<?xml version="1.0" encoding="UTF-8" standalone="no"?>
<!DOCTYPE svg PUBLIC "-//W3C//DTD SVG 1.1//EN"
 "http://www.w3.org/Graphics/SVG/1.1/DTD/svg11.dtd">
<!-- Generated by graphviz version 2.30.1 (20200930.0103)
 -->
<!-- Title: RTCurve::GetT2RSpline Pages: 1 -->
<svg width="1084pt" height="137pt"
 viewBox="0.00 0.00 1084.00 137.00" xmlns="http://www.w3.org/2000/svg" xmlns:xlink="http://www.w3.org/1999/xlink">
<g id="graph0" class="graph" transform="scale(1 1) rotate(0) translate(4 133)">
<title>RTCurve::GetT2RSpline</title>
<!-- Node1 -->
<g id="node1" class="node"><title>Node1</title>
<polygon fill="#bfbfbf" stroke="black" points="0.5,-67.5 0.5,-86.5 119.5,-86.5 119.5,-67.5 0.5,-67.5"/>
<text text-anchor="middle" x="60" y="-74.5" font-family="FreeSans" font-size="10.00">RTCurve::GetT2RSpline</text>
</g>
<!-- Node2 -->
<g id="node2" class="node"><title>Node2</title>
<g id="a_node2"><a xlink:href="../../de/d72/classMakeRTCurve.html#ab4ada927ad5286b66dabc0346194ee4f" target="_top" target="_top" target="_top" xlink:title="MakeRTCurve::DrawCalibResult">
<polygon fill="none" stroke="black" points="652.5,-109.5 652.5,-128.5 805.5,-128.5 805.5,-109.5 652.5,-109.5"/>
<text text-anchor="middle" x="729" y="-116.5" font-family="FreeSans" font-size="10.00">MakeRTCurve::DrawCalibResult</text>
</a>
</g>
</g>
<!-- Node1&#45;&gt;Node2 -->
<g id="edge1" class="edge"><title>Node1&#45;&gt;Node2</title>
<path fill="none" stroke="midnightblue" d="M112.003,-88.6094C126.181,-91.4514 141.631,-94.1924 156,-96 332.756,-118.236 542.421,-120.609 652.251,-120.034"/>
<polygon fill="midnightblue" stroke="midnightblue" points="112.438,-85.1256 101.938,-86.534 111.025,-91.9814 112.438,-85.1256"/>
</g>
<!-- Node4 -->
<g id="node4" class="node"><title>Node4</title>
<g id="a_node4"><a xlink:href="../../d3/d0c/classRTCurve.html#a1fe9921fe899712ccff8612610f0748d" target="_top" target="_top" target="_top" xlink:title="RTCurve::EvalR">
<polygon fill="none" stroke="black" points="181.5,-67.5 181.5,-86.5 264.5,-86.5 264.5,-67.5 181.5,-67.5"/>
<text text-anchor="middle" x="223" y="-74.5" font-family="FreeSans" font-size="10.00">RTCurve::EvalR</text>
</a>
</g>
</g>
<!-- Node1&#45;&gt;Node4 -->
<g id="edge3" class="edge"><title>Node1&#45;&gt;Node4</title>
<path fill="none" stroke="midnightblue" d="M129.809,-77C147.376,-77 165.702,-77 181.344,-77"/>
<polygon fill="midnightblue" stroke="midnightblue" points="129.58,-73.5001 119.58,-77 129.58,-80.5001 129.58,-73.5001"/>
</g>
<!-- Node11 -->
<g id="node11" class="node"><title>Node11</title>
<g id="a_node11"><a xlink:href="../../d6/db6/classCalibParam.html#a81dc60a9a65f78e7db78ba3752ad7355" target="_top" target="_top" target="_top" xlink:title="CalibParam::WriteRTGraph">
<polygon fill="none" stroke="black" points="156.5,-10.5 156.5,-29.5 289.5,-29.5 289.5,-10.5 156.5,-10.5"/>
<text text-anchor="middle" x="223" y="-17.5" font-family="FreeSans" font-size="10.00">CalibParam::WriteRTGraph</text>
</a>
</g>
</g>
<!-- Node1&#45;&gt;Node11 -->
<g id="edge13" class="edge"><title>Node1&#45;&gt;Node11</title>
<path fill="none" stroke="midnightblue" d="M97.5172,-64.0715C127.141,-53.5836 168.231,-39.0361 194.964,-29.5716"/>
<polygon fill="midnightblue" stroke="midnightblue" points="96.2063,-60.8227 87.9478,-67.4595 98.5426,-67.4214 96.2063,-60.8227"/>
</g>
<!-- Node3 -->
<g id="node3" class="node"><title>Node3</title>
<g id="a_node3"><a xlink:href="../../d6/d11/AnaRTCurve_8C.html#a897b0cf9d4528e29771057aaa09cfd24" target="_top" target="_top" target="_top" xlink:title="AnaRTCurve.C: ROOT macro to make the X&#45;T curve. ">
<polygon fill="none" stroke="black" points="1004.5,-43.5 1004.5,-62.5 1075.5,-62.5 1075.5,-43.5 1004.5,-43.5"/>
<text text-anchor="middle" x="1040" y="-50.5" font-family="FreeSans" font-size="10.00">AnaRTCurve</text>
</a>
</g>
</g>
<!-- Node2&#45;&gt;Node3 -->
<g id="edge2" class="edge"><title>Node2&#45;&gt;Node3</title>
<path fill="none" stroke="midnightblue" d="M793.577,-107.634C841.657,-98.7509 909.208,-85.6557 968,-72 980.181,-69.1708 993.44,-65.7233 1005.17,-62.5456"/>
<polygon fill="midnightblue" stroke="midnightblue" points="792.826,-104.213 783.623,-109.464 794.091,-111.098 792.826,-104.213"/>
</g>
<!-- Node5 -->
<g id="node5" class="node"><title>Node5</title>
<g id="a_node5"><a xlink:href="../../d5/df4/classFitRTDist.html#ab6806f10181ab5b39521b95327ef1069" target="_top" target="_top" target="_top" xlink:title="FitRTDist::CalcChi2">
<polygon fill="none" stroke="black" points="343.5,-76.5 343.5,-95.5 444.5,-95.5 444.5,-76.5 343.5,-76.5"/>
<text text-anchor="middle" x="394" y="-83.5" font-family="FreeSans" font-size="10.00">FitRTDist::CalcChi2</text>
</a>
</g>
</g>
<!-- Node4&#45;&gt;Node5 -->
<g id="edge4" class="edge"><title>Node4&#45;&gt;Node5</title>
<path fill="none" stroke="midnightblue" d="M274.929,-79.7122C296.636,-80.8682 321.873,-82.2122 343.429,-83.3601"/>
<polygon fill="midnightblue" stroke="midnightblue" points="275.082,-76.2155 264.91,-79.1786 274.71,-83.2056 275.082,-76.2155"/>
</g>
<!-- Node9 -->
<g id="node9" class="node"><title>Node9</title>
<g id="a_node9"><a xlink:href="../../d6/db6/classCalibParam.html#a47703e979fa6f8a22f1af6600ce651b9" target="_top" target="_top" target="_top" xlink:title="CalibParam::WriteRTParam">
<polygon fill="none" stroke="black" points="326.5,-38.5 326.5,-57.5 461.5,-57.5 461.5,-38.5 326.5,-38.5"/>
<text text-anchor="middle" x="394" y="-45.5" font-family="FreeSans" font-size="10.00">CalibParam::WriteRTParam</text>
</a>
</g>
</g>
<!-- Node4&#45;&gt;Node9 -->
<g id="edge10" class="edge"><title>Node4&#45;&gt;Node9</title>
<path fill="none" stroke="midnightblue" d="M274.934,-68.2598C294.666,-64.8739 317.314,-60.9876 337.462,-57.5302"/>
<polygon fill="midnightblue" stroke="midnightblue" points="274.174,-64.839 264.91,-69.9799 275.358,-71.7382 274.174,-64.839"/>
</g>
<!-- Node6 -->
<g id="node6" class="node"><title>Node6</title>
<g id="a_node6"><a xlink:href="../../d5/df4/classFitRTDist.html#ae30018a51a1d07065649f48484a4185f" target="_top" target="_top" target="_top" xlink:title="FitRTDist::DoFit">
<polygon fill="none" stroke="black" points="686.5,-43.5 686.5,-62.5 771.5,-62.5 771.5,-43.5 686.5,-43.5"/>
<text text-anchor="middle" x="729" y="-50.5" font-family="FreeSans" font-size="10.00">FitRTDist::DoFit</text>
</a>
</g>
</g>
<!-- Node5&#45;&gt;Node6 -->
<g id="edge5" class="edge"><title>Node5&#45;&gt;Node6</title>
<path fill="none" stroke="midnightblue" d="M454.709,-81.494C499.213,-77.983 561.462,-72.7509 616,-67 639.288,-64.5444 665.239,-61.3307 686.293,-58.6018"/>
<polygon fill="midnightblue" stroke="midnightblue" points="454.34,-78.0121 444.644,-82.2826 454.887,-84.9907 454.34,-78.0121"/>
</g>
<!-- Node8 -->
<g id="node8" class="node"><title>Node8</title>
<g id="a_node8"><a xlink:href="../../d5/df4/classFitRTDist.html#a7eb8770b62aa93326e7f1fec4fe59438" target="_top" target="_top" target="_top" xlink:title="FitRTDist::FCN">
<polygon fill="none" stroke="black" points="516.5,-38.5 516.5,-57.5 597.5,-57.5 597.5,-38.5 516.5,-38.5"/>
<text text-anchor="middle" x="557" y="-45.5" font-family="FreeSans" font-size="10.00">FitRTDist::FCN</text>
</a>
</g>
</g>
<!-- Node5&#45;&gt;Node8 -->
<g id="edge8" class="edge"><title>Node5&#45;&gt;Node8</title>
<path fill="none" stroke="midnightblue" d="M445.516,-74.0769C468.417,-68.6717 495.096,-62.3749 516.499,-57.3232"/>
<polygon fill="midnightblue" stroke="midnightblue" points="444.556,-70.7074 435.627,-76.411 446.164,-77.5202 444.556,-70.7074"/>
</g>
<!-- Node7 -->
<g id="node7" class="node"><title>Node7</title>
<g id="a_node7"><a xlink:href="../../de/d72/classMakeRTCurve.html#a9bc08fbd0282af4f51288d874b22bf22" target="_top" target="_top" target="_top" xlink:title="MakeRTCurve::ExtractRT">
<polygon fill="none" stroke="black" points="842.5,-43.5 842.5,-62.5 967.5,-62.5 967.5,-43.5 842.5,-43.5"/>
<text text-anchor="middle" x="905" y="-50.5" font-family="FreeSans" font-size="10.00">MakeRTCurve::ExtractRT</text>
</a>
</g>
</g>
<!-- Node6&#45;&gt;Node7 -->
<g id="edge6" class="edge"><title>Node6&#45;&gt;Node7</title>
<path fill="none" stroke="midnightblue" d="M781.907,-53C800.868,-53 822.5,-53 842.235,-53"/>
<polygon fill="midnightblue" stroke="midnightblue" points="781.677,-49.5001 771.677,-53 781.677,-56.5001 781.677,-49.5001"/>
</g>
<!-- Node7&#45;&gt;Node3 -->
<g id="edge7" class="edge"><title>Node7&#45;&gt;Node3</title>
<path fill="none" stroke="midnightblue" d="M978.08,-53C987.14,-53 996.061,-53 1004.16,-53"/>
<polygon fill="midnightblue" stroke="midnightblue" points="977.828,-49.5001 967.828,-53 977.828,-56.5001 977.828,-49.5001"/>
</g>
<!-- Node8&#45;&gt;Node6 -->
<g id="edge9" class="edge"><title>Node8&#45;&gt;Node6</title>
<path fill="none" stroke="midnightblue" d="M607.856,-49.4663C632.789,-50.1997 662.62,-51.0771 686.319,-51.7741"/>
<polygon fill="midnightblue" stroke="midnightblue" points="607.956,-45.9679 597.857,-49.1723 607.75,-52.9649 607.956,-45.9679"/>
</g>
<!-- Node10 -->
<g id="node10" class="node"><title>Node10</title>
<g id="a_node10"><a xlink:href="../../de/d72/classMakeRTCurve.html#afcc7e8a2dbbe068378167285b2ce578a" target="_top" target="_top" target="_top" xlink:title="MakeRTCurve::WriteRT">
<polygon fill="none" stroke="black" points="498,-0.5 498,-19.5 616,-19.5 616,-0.5 498,-0.5"/>
<text text-anchor="middle" x="557" y="-7.5" font-family="FreeSans" font-size="10.00">MakeRTCurve::WriteRT</text>
</a>
</g>
</g>
<!-- Node9&#45;&gt;Node10 -->
<g id="edge11" class="edge"><title>Node9&#45;&gt;Node10</title>
<path fill="none" stroke="midnightblue" d="M445.402,-36.1039C468.032,-30.7626 494.37,-24.5463 515.665,-19.5201"/>
<polygon fill="midnightblue" stroke="midnightblue" points="444.556,-32.7074 435.627,-38.411 446.164,-39.5202 444.556,-32.7074"/>
</g>
<!-- Node10&#45;&gt;Node3 -->
<g id="edge12" class="edge"><title>Node10&#45;&gt;Node3</title>
<path fill="none" stroke="midnightblue" d="M626.276,-9.77759C708.028,-10.4808 848.854,-14.7754 968,-34 981.605,-36.1952 996.367,-39.9198 1008.89,-43.4927"/>
<polygon fill="midnightblue" stroke="midnightblue" points="626.141,-6.27665 616.117,-9.70618 626.092,-13.2765 626.141,-6.27665"/>
</g>
<!-- Node11&#45;&gt;Node10 -->
<g id="edge14" class="edge"><title>Node11&#45;&gt;Node10</title>
<path fill="none" stroke="midnightblue" d="M299.792,-17.7171C359.929,-15.9058 442.751,-13.4111 497.763,-11.7541"/>
<polygon fill="midnightblue" stroke="midnightblue" points="299.483,-14.2247 289.593,-18.0243 299.693,-21.2216 299.483,-14.2247"/>
</g>
</g>
</svg>
