<?xml version="1.0" encoding="UTF-8" standalone="no"?>
<!DOCTYPE svg PUBLIC "-//W3C//DTD SVG 1.1//EN"
 "http://www.w3.org/Graphics/SVG/1.1/DTD/svg11.dtd">
<!-- Generated by graphviz version 2.36.0 (20140111.2315)
 -->
<!-- Title: /home/yuhw/GitHub/SeaQuest/e1039&#45;core/framework/phool/PHFlag.h Pages: 1 -->
<svg width="4430pt" height="218pt"
 viewBox="0.00 0.00 4430.00 218.00" xmlns="http://www.w3.org/2000/svg" xmlns:xlink="http://www.w3.org/1999/xlink">
<g id="graph0" class="graph" transform="scale(1 1) rotate(0) translate(4 214)">
<title>/home/yuhw/GitHub/SeaQuest/e1039&#45;core/framework/phool/PHFlag.h</title>
<!-- Node1 -->
<g id="node1" class="node"><title>Node1</title>
<polygon fill="#bfbfbf" stroke="black" points="1924.5,-168.5 1924.5,-209.5 2073.5,-209.5 2073.5,-168.5 1924.5,-168.5"/>
<text text-anchor="start" x="1932.5" y="-197.5" font-family="FreeSans" font-size="10.00">/home/yuhw/GitHub/SeaQuest</text>
<text text-anchor="start" x="1932.5" y="-186.5" font-family="FreeSans" font-size="10.00">/e1039&#45;core/framework/phool</text>
<text text-anchor="middle" x="1999" y="-175.5" font-family="FreeSans" font-size="10.00">/PHFlag.h</text>
</g>
<!-- Node2 -->
<g id="node2" class="node"><title>Node2</title>
<g id="a_node2"><a xlink:href="../../d1/d32/FlagSavev1_8cc.html" target="_top" xlink:title="/home/yuhw/GitHub/SeaQuest\l/e1039&#45;core/framework/ffaobjects\l/FlagSavev1.cc">
<polygon fill="none" stroke="black" points="1745.5,-90.5 1745.5,-131.5 1906.5,-131.5 1906.5,-90.5 1745.5,-90.5"/>
<text text-anchor="start" x="1753.5" y="-119.5" font-family="FreeSans" font-size="10.00">/home/yuhw/GitHub/SeaQuest</text>
<text text-anchor="start" x="1753.5" y="-108.5" font-family="FreeSans" font-size="10.00">/e1039&#45;core/framework/ffaobjects</text>
<text text-anchor="middle" x="1826" y="-97.5" font-family="FreeSans" font-size="10.00">/FlagSavev1.cc</text>
</a>
</g>
</g>
<!-- Node1&#45;&gt;Node2 -->
<g id="edge1" class="edge"><title>Node1&#45;&gt;Node2</title>
<path fill="none" stroke="midnightblue" d="M1945.12,-164.329C1921.11,-153.783 1893.18,-141.513 1870.4,-131.506"/>
<polygon fill="midnightblue" stroke="midnightblue" points="1943.88,-167.61 1954.45,-168.428 1946.7,-161.202 1943.88,-167.61"/>
</g>
<!-- Node3 -->
<g id="node3" class="node"><title>Node3</title>
<g id="a_node3"><a xlink:href="../../d6/da7/PHFlag_8cc.html" target="_top" xlink:title="/home/yuhw/GitHub/SeaQuest\l/e1039&#45;core/framework/phool\l/PHFlag.cc">
<polygon fill="none" stroke="black" points="1924.5,-90.5 1924.5,-131.5 2073.5,-131.5 2073.5,-90.5 1924.5,-90.5"/>
<text text-anchor="start" x="1932.5" y="-119.5" font-family="FreeSans" font-size="10.00">/home/yuhw/GitHub/SeaQuest</text>
<text text-anchor="start" x="1932.5" y="-108.5" font-family="FreeSans" font-size="10.00">/e1039&#45;core/framework/phool</text>
<text text-anchor="middle" x="1999" y="-97.5" font-family="FreeSans" font-size="10.00">/PHFlag.cc</text>
</a>
</g>
</g>
<!-- Node1&#45;&gt;Node3 -->
<g id="edge2" class="edge"><title>Node1&#45;&gt;Node3</title>
<path fill="none" stroke="midnightblue" d="M1999,-158.297C1999,-149.301 1999,-139.653 1999,-131.506"/>
<polygon fill="midnightblue" stroke="midnightblue" points="1995.5,-158.428 1999,-168.428 2002.5,-158.428 1995.5,-158.428"/>
</g>
<!-- Node4 -->
<g id="node4" class="node"><title>Node4</title>
<g id="a_node4"><a xlink:href="../../d2/dcb/recoConsts_8h.html" target="_top" xlink:title="/home/yuhw/GitHub/SeaQuest\l/e1039&#45;core/framework/phool\l/recoConsts.h">
<polygon fill="none" stroke="black" points="2091.5,-90.5 2091.5,-131.5 2240.5,-131.5 2240.5,-90.5 2091.5,-90.5"/>
<text text-anchor="start" x="2099.5" y="-119.5" font-family="FreeSans" font-size="10.00">/home/yuhw/GitHub/SeaQuest</text>
<text text-anchor="start" x="2099.5" y="-108.5" font-family="FreeSans" font-size="10.00">/e1039&#45;core/framework/phool</text>
<text text-anchor="middle" x="2166" y="-97.5" font-family="FreeSans" font-size="10.00">/recoConsts.h</text>
</a>
</g>
</g>
<!-- Node1&#45;&gt;Node4 -->
<g id="edge3" class="edge"><title>Node1&#45;&gt;Node4</title>
<path fill="none" stroke="midnightblue" d="M2051.32,-164.189C2074.42,-153.675 2101.25,-141.469 2123.14,-131.506"/>
<polygon fill="midnightblue" stroke="midnightblue" points="2049.66,-161.1 2042.01,-168.428 2052.56,-167.472 2049.66,-161.1"/>
</g>
<!-- Node5 -->
<g id="node5" class="node"><title>Node5</title>
<g id="a_node5"><a xlink:href="../../d3/d53/Fun4AllDstInputManager_8cc.html" target="_top" xlink:title="/home/yuhw/GitHub/SeaQuest\l/e1039&#45;core/framework/fun4all\l/Fun4AllDstInputManager.cc">
<polygon fill="none" stroke="black" points="-0.5,-6.5 -0.5,-47.5 148.5,-47.5 148.5,-6.5 -0.5,-6.5"/>
<text text-anchor="start" x="7.5" y="-35.5" font-family="FreeSans" font-size="10.00">/home/yuhw/GitHub/SeaQuest</text>
<text text-anchor="start" x="7.5" y="-24.5" font-family="FreeSans" font-size="10.00">/e1039&#45;core/framework/fun4all</text>
<text text-anchor="middle" x="74" y="-13.5" font-family="FreeSans" font-size="10.00">/Fun4AllDstInputManager.cc</text>
</a>
</g>
</g>
<!-- Node4&#45;&gt;Node5 -->
<g id="edge4" class="edge"><title>Node4&#45;&gt;Node5</title>
<path fill="none" stroke="midnightblue" d="M2081.54,-90.1534C1641.27,-37.4398 576.114,-122.125 157,-54 147.759,-52.498 138.126,-50.1984 128.833,-47.5758"/>
<polygon fill="midnightblue" stroke="midnightblue" points="2081.14,-93.6317 2091.5,-91.3835 2082,-86.6844 2081.14,-93.6317"/>
</g>
<!-- Node6 -->
<g id="node6" class="node"><title>Node6</title>
<g id="a_node6"><a xlink:href="../../dd/dec/Fun4AllDummyInputManager_8cc.html" target="_top" xlink:title="/home/yuhw/GitHub/SeaQuest\l/e1039&#45;core/framework/fun4all\l/Fun4AllDummyInputManager.cc">
<polygon fill="none" stroke="black" points="166,-6.5 166,-47.5 324,-47.5 324,-6.5 166,-6.5"/>
<text text-anchor="start" x="174" y="-35.5" font-family="FreeSans" font-size="10.00">/home/yuhw/GitHub/SeaQuest</text>
<text text-anchor="start" x="174" y="-24.5" font-family="FreeSans" font-size="10.00">/e1039&#45;core/framework/fun4all</text>
<text text-anchor="middle" x="245" y="-13.5" font-family="FreeSans" font-size="10.00">/Fun4AllDummyInputManager.cc</text>
</a>
</g>
</g>
<!-- Node4&#45;&gt;Node6 -->
<g id="edge5" class="edge"><title>Node4&#45;&gt;Node6</title>
<path fill="none" stroke="midnightblue" d="M2081.53,-90.1535C1679.94,-41.8853 713.089,-113.736 332,-54 322.344,-52.4864 312.262,-50.181 302.527,-47.556"/>
<polygon fill="midnightblue" stroke="midnightblue" points="2081.14,-93.6318 2091.5,-91.3909 2082,-86.6851 2081.14,-93.6318"/>
</g>
<!-- Node7 -->
<g id="node7" class="node"><title>Node7</title>
<g id="a_node7"><a xlink:href="../../df/d24/Fun4AllHistoManager_8cc.html" target="_top" xlink:title="/home/yuhw/GitHub/SeaQuest\l/e1039&#45;core/framework/fun4all\l/Fun4AllHistoManager.cc">
<polygon fill="none" stroke="black" points="341.5,-6.5 341.5,-47.5 490.5,-47.5 490.5,-6.5 341.5,-6.5"/>
<text text-anchor="start" x="349.5" y="-35.5" font-family="FreeSans" font-size="10.00">/home/yuhw/GitHub/SeaQuest</text>
<text text-anchor="start" x="349.5" y="-24.5" font-family="FreeSans" font-size="10.00">/e1039&#45;core/framework/fun4all</text>
<text text-anchor="middle" x="416" y="-13.5" font-family="FreeSans" font-size="10.00">/Fun4AllHistoManager.cc</text>
</a>
</g>
</g>
<!-- Node4&#45;&gt;Node7 -->
<g id="edge6" class="edge"><title>Node4&#45;&gt;Node7</title>
<path fill="none" stroke="midnightblue" d="M2081.38,-90.1369C1716.61,-46.2166 842.975,-110.624 499,-54 489.762,-52.4793 480.131,-50.1702 470.838,-47.5437"/>
<polygon fill="midnightblue" stroke="midnightblue" points="2081.14,-93.6336 2091.5,-91.3995 2082.01,-86.6875 2081.14,-93.6336"/>
</g>
<!-- Node8 -->
<g id="node8" class="node"><title>Node8</title>
<g id="a_node8"><a xlink:href="../../da/d7b/Fun4AllPrdfInputManager_8cc.html" target="_top" xlink:title="/home/yuhw/GitHub/SeaQuest\l/e1039&#45;core/framework/fun4all\l/Fun4AllPrdfInputManager.cc">
<polygon fill="none" stroke="black" points="508.5,-6.5 508.5,-47.5 657.5,-47.5 657.5,-6.5 508.5,-6.5"/>
<text text-anchor="start" x="516.5" y="-35.5" font-family="FreeSans" font-size="10.00">/home/yuhw/GitHub/SeaQuest</text>
<text text-anchor="start" x="516.5" y="-24.5" font-family="FreeSans" font-size="10.00">/e1039&#45;core/framework/fun4all</text>
<text text-anchor="middle" x="583" y="-13.5" font-family="FreeSans" font-size="10.00">/Fun4AllPrdfInputManager.cc</text>
</a>
</g>
</g>
<!-- Node4&#45;&gt;Node8 -->
<g id="edge7" class="edge"><title>Node4&#45;&gt;Node8</title>
<path fill="none" stroke="midnightblue" d="M2081.45,-90.1463C1753.65,-50.4677 973.335,-105.016 666,-54 656.764,-52.4669 647.134,-50.1514 637.841,-47.5224"/>
<polygon fill="midnightblue" stroke="midnightblue" points="2081.14,-93.6338 2091.49,-91.41 2082.01,-86.6886 2081.14,-93.6338"/>
</g>
<!-- Node9 -->
<g id="node9" class="node"><title>Node9</title>
<g id="a_node9"><a xlink:href="../../d8/d3b/Fun4AllPrdfOutputManager_8cc.html" target="_top" xlink:title="/home/yuhw/GitHub/SeaQuest\l/e1039&#45;core/framework/fun4all\l/Fun4AllPrdfOutputManager.cc">
<polygon fill="none" stroke="black" points="675,-6.5 675,-47.5 825,-47.5 825,-6.5 675,-6.5"/>
<text text-anchor="start" x="683" y="-35.5" font-family="FreeSans" font-size="10.00">/home/yuhw/GitHub/SeaQuest</text>
<text text-anchor="start" x="683" y="-24.5" font-family="FreeSans" font-size="10.00">/e1039&#45;core/framework/fun4all</text>
<text text-anchor="middle" x="750" y="-13.5" font-family="FreeSans" font-size="10.00">/Fun4AllPrdfOutputManager.cc</text>
</a>
</g>
</g>
<!-- Node4&#45;&gt;Node9 -->
<g id="edge8" class="edge"><title>Node4&#45;&gt;Node9</title>
<path fill="none" stroke="midnightblue" d="M2081.28,-90.0888C1529.58,-18.8656 1377.35,-145.309 833,-54 823.916,-52.4762 814.448,-50.2024 805.296,-47.6225"/>
<polygon fill="midnightblue" stroke="midnightblue" points="2081.12,-93.5976 2091.49,-91.4234 2082.03,-86.6567 2081.12,-93.5976"/>
</g>
<!-- Node10 -->
<g id="node10" class="node"><title>Node10</title>
<g id="a_node10"><a xlink:href="../../d8/d7a/Fun4AllServer_8cc.html" target="_top" xlink:title="/home/yuhw/GitHub/SeaQuest\l/e1039&#45;core/framework/fun4all\l/Fun4AllServer.cc">
<polygon fill="none" stroke="black" points="842.5,-6.5 842.5,-47.5 991.5,-47.5 991.5,-6.5 842.5,-6.5"/>
<text text-anchor="start" x="850.5" y="-35.5" font-family="FreeSans" font-size="10.00">/home/yuhw/GitHub/SeaQuest</text>
<text text-anchor="start" x="850.5" y="-24.5" font-family="FreeSans" font-size="10.00">/e1039&#45;core/framework/fun4all</text>
<text text-anchor="middle" x="917" y="-13.5" font-family="FreeSans" font-size="10.00">/Fun4AllServer.cc</text>
</a>
</g>
</g>
<!-- Node4&#45;&gt;Node10 -->
<g id="edge9" class="edge"><title>Node4&#45;&gt;Node10</title>
<path fill="none" stroke="midnightblue" d="M2081.57,-90.1223C1603.32,-27.433 1471.1,-134.1 1000,-54 990.919,-52.456 981.453,-50.1716 972.302,-47.5873"/>
<polygon fill="midnightblue" stroke="midnightblue" points="2081.12,-93.5933 2091.49,-91.441 2082.04,-86.6543 2081.12,-93.5933"/>
</g>
<!-- Node11 -->
<g id="node11" class="node"><title>Node11</title>
<g id="a_node11"><a xlink:href="../../df/d03/Fun4AllSyncManager_8cc.html" target="_top" xlink:title="/home/yuhw/GitHub/SeaQuest\l/e1039&#45;core/framework/fun4all\l/Fun4AllSyncManager.cc">
<polygon fill="none" stroke="black" points="1009.5,-6.5 1009.5,-47.5 1158.5,-47.5 1158.5,-6.5 1009.5,-6.5"/>
<text text-anchor="start" x="1017.5" y="-35.5" font-family="FreeSans" font-size="10.00">/home/yuhw/GitHub/SeaQuest</text>
<text text-anchor="start" x="1017.5" y="-24.5" font-family="FreeSans" font-size="10.00">/e1039&#45;core/framework/fun4all</text>
<text text-anchor="middle" x="1084" y="-13.5" font-family="FreeSans" font-size="10.00">/Fun4AllSyncManager.cc</text>
</a>
</g>
</g>
<!-- Node4&#45;&gt;Node11 -->
<g id="edge10" class="edge"><title>Node4&#45;&gt;Node11</title>
<path fill="none" stroke="midnightblue" d="M2081.57,-90.1188C1677,-36.0269 1564.78,-122.875 1167,-54 1157.92,-52.4285 1148.46,-50.1297 1139.31,-47.5394"/>
<polygon fill="midnightblue" stroke="midnightblue" points="2081.11,-93.5879 2091.49,-91.4649 2082.05,-86.6515 2081.11,-93.5879"/>
</g>
<!-- Node12 -->
<g id="node12" class="node"><title>Node12</title>
<g id="a_node12"><a xlink:href="../../d4/d30/PHRandomSeed_8cc.html" target="_top" xlink:title="/home/yuhw/GitHub/SeaQuest\l/e1039&#45;core/framework/phool\l/PHRandomSeed.cc">
<polygon fill="none" stroke="black" points="1176.5,-6.5 1176.5,-47.5 1325.5,-47.5 1325.5,-6.5 1176.5,-6.5"/>
<text text-anchor="start" x="1184.5" y="-35.5" font-family="FreeSans" font-size="10.00">/home/yuhw/GitHub/SeaQuest</text>
<text text-anchor="start" x="1184.5" y="-24.5" font-family="FreeSans" font-size="10.00">/e1039&#45;core/framework/phool</text>
<text text-anchor="middle" x="1251" y="-13.5" font-family="FreeSans" font-size="10.00">/PHRandomSeed.cc</text>
</a>
</g>
</g>
<!-- Node4&#45;&gt;Node12 -->
<g id="edge11" class="edge"><title>Node4&#45;&gt;Node12</title>
<path fill="none" stroke="midnightblue" d="M2081.13,-90.052C1750.58,-44.6547 1658.34,-111.624 1334,-54 1325.08,-52.4151 1315.78,-50.145 1306.77,-47.5978"/>
<polygon fill="midnightblue" stroke="midnightblue" points="2081.09,-93.5808 2091.48,-91.4994 2082.06,-86.6482 2081.09,-93.5808"/>
</g>
<!-- Node13 -->
<g id="node13" class="node"><title>Node13</title>
<g id="a_node13"><a xlink:href="../../d7/df1/recoConsts_8cc.html" target="_top" xlink:title="/home/yuhw/GitHub/SeaQuest\l/e1039&#45;core/framework/phool\l/recoConsts.cc">
<polygon fill="none" stroke="black" points="1343.5,-6.5 1343.5,-47.5 1492.5,-47.5 1492.5,-6.5 1343.5,-6.5"/>
<text text-anchor="start" x="1351.5" y="-35.5" font-family="FreeSans" font-size="10.00">/home/yuhw/GitHub/SeaQuest</text>
<text text-anchor="start" x="1351.5" y="-24.5" font-family="FreeSans" font-size="10.00">/e1039&#45;core/framework/phool</text>
<text text-anchor="middle" x="1418" y="-13.5" font-family="FreeSans" font-size="10.00">/recoConsts.cc</text>
</a>
</g>
</g>
<!-- Node4&#45;&gt;Node13 -->
<g id="edge12" class="edge"><title>Node4&#45;&gt;Node13</title>
<path fill="none" stroke="midnightblue" d="M2081.46,-90.0859C1824.28,-53.1288 1752.18,-100.415 1501,-54 1492.24,-52.3811 1483.11,-50.1274 1474.24,-47.6175"/>
<polygon fill="midnightblue" stroke="midnightblue" points="2081.07,-93.5663 2091.47,-91.5537 2082.09,-86.6403 2081.07,-93.5663"/>
</g>
<!-- Node14 -->
<g id="node14" class="node"><title>Node14</title>
<g id="a_node14"><a xlink:href="../../d4/d0c/Fun4AllHepMCInputManager_8cc.html" target="_top" xlink:title="/home/yuhw/GitHub/SeaQuest\l/e1039&#45;core/generators/phhepmc\l/Fun4AllHepMCInputManager.cc">
<polygon fill="none" stroke="black" points="1510.5,-6.5 1510.5,-47.5 1669.5,-47.5 1669.5,-6.5 1510.5,-6.5"/>
<text text-anchor="start" x="1518.5" y="-35.5" font-family="FreeSans" font-size="10.00">/home/yuhw/GitHub/SeaQuest</text>
<text text-anchor="start" x="1518.5" y="-24.5" font-family="FreeSans" font-size="10.00">/e1039&#45;core/generators/phhepmc</text>
<text text-anchor="middle" x="1590" y="-13.5" font-family="FreeSans" font-size="10.00">/Fun4AllHepMCInputManager.cc</text>
</a>
</g>
</g>
<!-- Node4&#45;&gt;Node14 -->
<g id="edge13" class="edge"><title>Node4&#45;&gt;Node14</title>
<path fill="none" stroke="midnightblue" d="M2081.44,-90.0561C1902.26,-61.9908 1851.89,-87.0958 1678,-54 1668.92,-52.2724 1659.44,-49.9931 1650.21,-47.5006"/>
<polygon fill="midnightblue" stroke="midnightblue" points="2081.03,-93.5357 2091.46,-91.6599 2082.14,-86.6236 2081.03,-93.5357"/>
</g>
<!-- Node15 -->
<g id="node15" class="node"><title>Node15</title>
<g id="a_node15"><a xlink:href="../../d6/dde/Fun4AllHepMCPileupInputManager_8cc.html" target="_top" xlink:title="/home/yuhw/GitHub/SeaQuest\l/e1039&#45;core/generators/phhepmc\l/Fun4AllHepMCPileupInputManager.cc">
<polygon fill="none" stroke="black" points="1687.5,-6.5 1687.5,-47.5 1872.5,-47.5 1872.5,-6.5 1687.5,-6.5"/>
<text text-anchor="start" x="1695.5" y="-35.5" font-family="FreeSans" font-size="10.00">/home/yuhw/GitHub/SeaQuest</text>
<text text-anchor="start" x="1695.5" y="-24.5" font-family="FreeSans" font-size="10.00">/e1039&#45;core/generators/phhepmc</text>
<text text-anchor="middle" x="1780" y="-13.5" font-family="FreeSans" font-size="10.00">/Fun4AllHepMCPileupInputManager.cc</text>
</a>
</g>
</g>
<!-- Node4&#45;&gt;Node15 -->
<g id="edge14" class="edge"><title>Node4&#45;&gt;Node15</title>
<path fill="none" stroke="midnightblue" d="M2081.35,-89.9295C1991.87,-71.6223 1967.16,-72.4928 1882,-54 1872.89,-52.0222 1863.37,-49.8005 1853.95,-47.5106"/>
<polygon fill="midnightblue" stroke="midnightblue" points="2080.89,-93.409 2091.39,-92.0089 2082.31,-86.5543 2080.89,-93.409"/>
</g>
<!-- Node16 -->
<g id="node16" class="node"><title>Node16</title>
<g id="a_node16"><a xlink:href="../../db/dbe/Fun4AllOscarInputManager_8cc.html" target="_top" xlink:title="/home/yuhw/GitHub/SeaQuest\l/e1039&#45;core/generators/phhepmc\l/Fun4AllOscarInputManager.cc">
<polygon fill="none" stroke="black" points="1890.5,-6.5 1890.5,-47.5 2049.5,-47.5 2049.5,-6.5 1890.5,-6.5"/>
<text text-anchor="start" x="1898.5" y="-35.5" font-family="FreeSans" font-size="10.00">/home/yuhw/GitHub/SeaQuest</text>
<text text-anchor="start" x="1898.5" y="-24.5" font-family="FreeSans" font-size="10.00">/e1039&#45;core/generators/phhepmc</text>
<text text-anchor="middle" x="1970" y="-13.5" font-family="FreeSans" font-size="10.00">/Fun4AllOscarInputManager.cc</text>
</a>
</g>
</g>
<!-- Node4&#45;&gt;Node16 -->
<g id="edge15" class="edge"><title>Node4&#45;&gt;Node16</title>
<path fill="none" stroke="midnightblue" d="M2109.74,-86.4642C2080.35,-74.1666 2044.79,-59.2911 2016.9,-47.6227"/>
<polygon fill="midnightblue" stroke="midnightblue" points="2108.48,-89.7282 2119.05,-90.359 2111.18,-83.2706 2108.48,-89.7282"/>
</g>
<!-- Node17 -->
<g id="node17" class="node"><title>Node17</title>
<g id="a_node17"><a xlink:href="../../d0/d16/PHHepMCParticleSelectorDecayProductChain_8cc.html" target="_top" xlink:title="/home/yuhw/GitHub/SeaQuest\l/e1039&#45;core/generators/phhepmc\l/PHHepMCParticleSelectorDecayProduct\lChain.cc">
<polygon fill="none" stroke="black" points="2067.5,-1 2067.5,-53 2264.5,-53 2264.5,-1 2067.5,-1"/>
<text text-anchor="start" x="2075.5" y="-41" font-family="FreeSans" font-size="10.00">/home/yuhw/GitHub/SeaQuest</text>
<text text-anchor="start" x="2075.5" y="-30" font-family="FreeSans" font-size="10.00">/e1039&#45;core/generators/phhepmc</text>
<text text-anchor="start" x="2075.5" y="-19" font-family="FreeSans" font-size="10.00">/PHHepMCParticleSelectorDecayProduct</text>
<text text-anchor="middle" x="2166" y="-8" font-family="FreeSans" font-size="10.00">Chain.cc</text>
</a>
</g>
</g>
<!-- Node4&#45;&gt;Node17 -->
<g id="edge16" class="edge"><title>Node4&#45;&gt;Node17</title>
<path fill="none" stroke="midnightblue" d="M2166,-79.9378C2166,-71.1758 2166,-61.6949 2166,-53.2613"/>
<polygon fill="midnightblue" stroke="midnightblue" points="2162.5,-80.1501 2166,-90.1501 2169.5,-80.1501 2162.5,-80.1501"/>
</g>
<!-- Node18 -->
<g id="node18" class="node"><title>Node18</title>
<g id="a_node18"><a xlink:href="../../de/d00/Fun4AllEVIOInputManager_8cc.html" target="_top" xlink:title="/home/yuhw/GitHub/SeaQuest\l/e1039&#45;core/online/decoder\l_maindaq/Fun4AllEVIOInputManager.cc">
<polygon fill="none" stroke="black" points="2283,-6.5 2283,-47.5 2473,-47.5 2473,-6.5 2283,-6.5"/>
<text text-anchor="start" x="2291" y="-35.5" font-family="FreeSans" font-size="10.00">/home/yuhw/GitHub/SeaQuest</text>
<text text-anchor="start" x="2291" y="-24.5" font-family="FreeSans" font-size="10.00">/e1039&#45;core/online/decoder</text>
<text text-anchor="middle" x="2378" y="-13.5" font-family="FreeSans" font-size="10.00">_maindaq/Fun4AllEVIOInputManager.cc</text>
</a>
</g>
</g>
<!-- Node4&#45;&gt;Node18 -->
<g id="edge17" class="edge"><title>Node4&#45;&gt;Node18</title>
<path fill="none" stroke="midnightblue" d="M2226.2,-86.7138C2258.21,-74.3356 2297.1,-59.2905 2327.51,-47.5291"/>
<polygon fill="midnightblue" stroke="midnightblue" points="2224.57,-83.5913 2216.51,-90.4631 2227.1,-90.1199 2224.57,-83.5913"/>
</g>
<!-- Node19 -->
<g id="node19" class="node"><title>Node19</title>
<g id="a_node19"><a xlink:href="../../d0/d06/FastTracklet_8cxx.html" target="_top" xlink:title="/home/yuhw/GitHub/SeaQuest\l/e1039&#45;core/packages/ktracker\l/FastTracklet.cxx">
<polygon fill="none" stroke="black" points="2491.5,-6.5 2491.5,-47.5 2642.5,-47.5 2642.5,-6.5 2491.5,-6.5"/>
<text text-anchor="start" x="2499.5" y="-35.5" font-family="FreeSans" font-size="10.00">/home/yuhw/GitHub/SeaQuest</text>
<text text-anchor="start" x="2499.5" y="-24.5" font-family="FreeSans" font-size="10.00">/e1039&#45;core/packages/ktracker</text>
<text text-anchor="middle" x="2567" y="-13.5" font-family="FreeSans" font-size="10.00">/FastTracklet.cxx</text>
</a>
</g>
</g>
<!-- Node4&#45;&gt;Node19 -->
<g id="edge18" class="edge"><title>Node4&#45;&gt;Node19</title>
<path fill="none" stroke="midnightblue" d="M2250.63,-97.8624C2314.6,-87.9985 2404.36,-72.6815 2482,-54 2489.95,-52.0867 2498.25,-49.8512 2506.42,-47.509"/>
<polygon fill="midnightblue" stroke="midnightblue" points="2249.95,-94.4261 2240.59,-99.3983 2251.01,-101.346 2249.95,-94.4261"/>
</g>
<!-- Node20 -->
<g id="node20" class="node"><title>Node20</title>
<g id="a_node20"><a xlink:href="../../d5/dc7/Fun4AllSRawEventInputManager_8cxx.html" target="_top" xlink:title="/home/yuhw/GitHub/SeaQuest\l/e1039&#45;core/packages/ktracker\l/Fun4AllSRawEventInputManager.cxx">
<polygon fill="none" stroke="black" points="2660.5,-6.5 2660.5,-47.5 2839.5,-47.5 2839.5,-6.5 2660.5,-6.5"/>
<text text-anchor="start" x="2668.5" y="-35.5" font-family="FreeSans" font-size="10.00">/home/yuhw/GitHub/SeaQuest</text>
<text text-anchor="start" x="2668.5" y="-24.5" font-family="FreeSans" font-size="10.00">/e1039&#45;core/packages/ktracker</text>
<text text-anchor="middle" x="2750" y="-13.5" font-family="FreeSans" font-size="10.00">/Fun4AllSRawEventInputManager.cxx</text>
</a>
</g>
</g>
<!-- Node4&#45;&gt;Node20 -->
<g id="edge19" class="edge"><title>Node4&#45;&gt;Node20</title>
<path fill="none" stroke="midnightblue" d="M2250.93,-103.865C2348.18,-95.9921 2512.02,-80.1374 2651,-54 2660.69,-52.1772 2670.84,-49.9227 2680.78,-47.5094"/>
<polygon fill="midnightblue" stroke="midnightblue" points="2250.55,-100.384 2240.86,-104.671 2251.1,-107.362 2250.55,-100.384"/>
</g>
<!-- Node21 -->
<g id="node21" class="node"><title>Node21</title>
<g id="a_node21"><a xlink:href="../../d7/d57/SRecEvent_8cxx.html" target="_top" xlink:title="/home/yuhw/GitHub/SeaQuest\l/e1039&#45;core/packages/ktracker\l/SRecEvent.cxx">
<polygon fill="none" stroke="black" points="2857.5,-6.5 2857.5,-47.5 3008.5,-47.5 3008.5,-6.5 2857.5,-6.5"/>
<text text-anchor="start" x="2865.5" y="-35.5" font-family="FreeSans" font-size="10.00">/home/yuhw/GitHub/SeaQuest</text>
<text text-anchor="start" x="2865.5" y="-24.5" font-family="FreeSans" font-size="10.00">/e1039&#45;core/packages/ktracker</text>
<text text-anchor="middle" x="2933" y="-13.5" font-family="FreeSans" font-size="10.00">/SRecEvent.cxx</text>
</a>
</g>
</g>
<!-- Node4&#45;&gt;Node21 -->
<g id="edge20" class="edge"><title>Node4&#45;&gt;Node21</title>
<path fill="none" stroke="midnightblue" d="M2250.89,-108.868C2380.68,-105.83 2635.71,-94.6927 2848,-54 2856.79,-52.315 2865.96,-50.0589 2874.89,-47.5771"/>
<polygon fill="midnightblue" stroke="midnightblue" points="2250.55,-105.375 2240.63,-109.098 2250.7,-112.373 2250.55,-105.375"/>
</g>
<!-- Node22 -->
<g id="node22" class="node"><title>Node22</title>
<g id="a_node22"><a xlink:href="../../d1/d51/PHFieldUtility_8cc.html" target="_top" xlink:title="/home/yuhw/GitHub/SeaQuest\l/e1039&#45;core/packages/PHField\l/PHFieldUtility.cc">
<polygon fill="none" stroke="black" points="3026.5,-6.5 3026.5,-47.5 3177.5,-47.5 3177.5,-6.5 3026.5,-6.5"/>
<text text-anchor="start" x="3034.5" y="-35.5" font-family="FreeSans" font-size="10.00">/home/yuhw/GitHub/SeaQuest</text>
<text text-anchor="start" x="3034.5" y="-24.5" font-family="FreeSans" font-size="10.00">/e1039&#45;core/packages/PHField</text>
<text text-anchor="middle" x="3102" y="-13.5" font-family="FreeSans" font-size="10.00">/PHFieldUtility.cc</text>
</a>
</g>
</g>
<!-- Node4&#45;&gt;Node22 -->
<g id="edge21" class="edge"><title>Node4&#45;&gt;Node22</title>
<path fill="none" stroke="midnightblue" d="M2251.03,-110.866C2405.09,-111.007 2740.1,-104.753 3017,-54 3025.96,-52.3585 3035.3,-50.0927 3044.37,-47.5774"/>
<polygon fill="midnightblue" stroke="midnightblue" points="2250.71,-107.365 2240.7,-110.846 2250.69,-114.365 2250.71,-107.365"/>
</g>
<!-- Node23 -->
<g id="node23" class="node"><title>Node23</title>
<g id="a_node23"><a xlink:href="../../d6/d91/PHGeomUtility_8cc.html" target="_top" xlink:title="/home/yuhw/GitHub/SeaQuest\l/e1039&#45;core/packages/PHGeometry\l/PHGeomUtility.cc">
<polygon fill="none" stroke="black" points="3196,-6.5 3196,-47.5 3368,-47.5 3368,-6.5 3196,-6.5"/>
<text text-anchor="start" x="3204" y="-35.5" font-family="FreeSans" font-size="10.00">/home/yuhw/GitHub/SeaQuest</text>
<text text-anchor="start" x="3204" y="-24.5" font-family="FreeSans" font-size="10.00">/e1039&#45;core/packages/PHGeometry</text>
<text text-anchor="middle" x="3282" y="-13.5" font-family="FreeSans" font-size="10.00">/PHGeomUtility.cc</text>
</a>
</g>
</g>
<!-- Node4&#45;&gt;Node23 -->
<g id="edge22" class="edge"><title>Node4&#45;&gt;Node23</title>
<path fill="none" stroke="midnightblue" d="M2250.65,-107.638C2461.63,-101.384 3006.73,-82.8696 3186,-54 3196.14,-52.3665 3206.76,-50.0879 3217.08,-47.5522"/>
<polygon fill="midnightblue" stroke="midnightblue" points="2250.45,-104.143 2240.56,-107.936 2250.66,-111.139 2250.45,-104.143"/>
</g>
<!-- Node24 -->
<g id="node24" class="node"><title>Node24</title>
<g id="a_node24"><a xlink:href="../../d2/d09/HepMCNodeReader_8cc.html" target="_top" xlink:title="/home/yuhw/GitHub/SeaQuest\l/e1039&#45;core/simulation/g4main\l/HepMCNodeReader.cc">
<polygon fill="none" stroke="black" points="3386.5,-6.5 3386.5,-47.5 3535.5,-47.5 3535.5,-6.5 3386.5,-6.5"/>
<text text-anchor="start" x="3394.5" y="-35.5" font-family="FreeSans" font-size="10.00">/home/yuhw/GitHub/SeaQuest</text>
<text text-anchor="start" x="3394.5" y="-24.5" font-family="FreeSans" font-size="10.00">/e1039&#45;core/simulation/g4main</text>
<text text-anchor="middle" x="3461" y="-13.5" font-family="FreeSans" font-size="10.00">/HepMCNodeReader.cc</text>
</a>
</g>
</g>
<!-- Node4&#45;&gt;Node24 -->
<g id="edge23" class="edge"><title>Node4&#45;&gt;Node24</title>
<path fill="none" stroke="midnightblue" d="M2251.08,-108.87C2489.39,-105.26 3160.21,-91.9267 3377,-54 3386.02,-52.4216 3395.43,-50.1548 3404.55,-47.6091"/>
<polygon fill="midnightblue" stroke="midnightblue" points="2250.69,-105.376 2240.74,-109.025 2250.79,-112.375 2250.69,-105.376"/>
</g>
<!-- Node25 -->
<g id="node25" class="node"><title>Node25</title>
<g id="a_node25"><a xlink:href="../../d4/d94/PHG4ParticleGeneratorBase_8cc.html" target="_top" xlink:title="/home/yuhw/GitHub/SeaQuest\l/e1039&#45;core/simulation/g4main\l/PHG4ParticleGeneratorBase.cc">
<polygon fill="none" stroke="black" points="3553,-6.5 3553,-47.5 3711,-47.5 3711,-6.5 3553,-6.5"/>
<text text-anchor="start" x="3561" y="-35.5" font-family="FreeSans" font-size="10.00">/home/yuhw/GitHub/SeaQuest</text>
<text text-anchor="start" x="3561" y="-24.5" font-family="FreeSans" font-size="10.00">/e1039&#45;core/simulation/g4main</text>
<text text-anchor="middle" x="3632" y="-13.5" font-family="FreeSans" font-size="10.00">/PHG4ParticleGeneratorBase.cc</text>
</a>
</g>
</g>
<!-- Node4&#45;&gt;Node25 -->
<g id="edge24" class="edge"><title>Node4&#45;&gt;Node25</title>
<path fill="none" stroke="midnightblue" d="M2250.87,-109.288C2510.78,-106.674 3293.26,-95.4804 3544,-54 3553.59,-52.4139 3563.6,-50.1075 3573.3,-47.514"/>
<polygon fill="midnightblue" stroke="midnightblue" points="2250.71,-105.789 2240.74,-109.388 2250.77,-112.789 2250.71,-105.789"/>
</g>
<!-- Node26 -->
<g id="node26" class="node"><title>Node26</title>
<g id="a_node26"><a xlink:href="../../d1/de0/PHG4ParticleGeneratorD0_8cc.html" target="_top" xlink:title="/home/yuhw/GitHub/SeaQuest\l/e1039&#45;core/simulation/g4main\l/PHG4ParticleGeneratorD0.cc">
<polygon fill="none" stroke="black" points="3728.5,-6.5 3728.5,-47.5 3877.5,-47.5 3877.5,-6.5 3728.5,-6.5"/>
<text text-anchor="start" x="3736.5" y="-35.5" font-family="FreeSans" font-size="10.00">/home/yuhw/GitHub/SeaQuest</text>
<text text-anchor="start" x="3736.5" y="-24.5" font-family="FreeSans" font-size="10.00">/e1039&#45;core/simulation/g4main</text>
<text text-anchor="middle" x="3803" y="-13.5" font-family="FreeSans" font-size="10.00">/PHG4ParticleGeneratorD0.cc</text>
</a>
</g>
</g>
<!-- Node4&#45;&gt;Node26 -->
<g id="edge25" class="edge"><title>Node4&#45;&gt;Node26</title>
<path fill="none" stroke="midnightblue" d="M2250.86,-109.885C2532.29,-109.041 3433.1,-102.519 3719,-54 3728.18,-52.4419 3737.76,-50.1501 3747.02,-47.5627"/>
<polygon fill="midnightblue" stroke="midnightblue" points="2250.71,-106.385 2240.72,-109.913 2250.73,-113.385 2250.71,-106.385"/>
</g>
<!-- Node27 -->
<g id="node27" class="node"><title>Node27</title>
<g id="a_node27"><a xlink:href="../../dd/d77/PHG4ParticleGeneratorVectorMeson_8cc.html" target="_top" xlink:title="/home/yuhw/GitHub/SeaQuest\l/e1039&#45;core/simulation/g4main\l/PHG4ParticleGeneratorVectorMeson.cc">
<polygon fill="none" stroke="black" points="3895.5,-6.5 3895.5,-47.5 4088.5,-47.5 4088.5,-6.5 3895.5,-6.5"/>
<text text-anchor="start" x="3903.5" y="-35.5" font-family="FreeSans" font-size="10.00">/home/yuhw/GitHub/SeaQuest</text>
<text text-anchor="start" x="3903.5" y="-24.5" font-family="FreeSans" font-size="10.00">/e1039&#45;core/simulation/g4main</text>
<text text-anchor="middle" x="3992" y="-13.5" font-family="FreeSans" font-size="10.00">/PHG4ParticleGeneratorVectorMeson.cc</text>
</a>
</g>
</g>
<!-- Node4&#45;&gt;Node27 -->
<g id="edge26" class="edge"><title>Node4&#45;&gt;Node27</title>
<path fill="none" stroke="midnightblue" d="M2251.02,-109.57C2551.82,-107.686 3564.78,-98.1346 3886,-54 3897.45,-52.4267 3909.46,-50.127 3921.12,-47.5363"/>
<polygon fill="midnightblue" stroke="midnightblue" points="2250.6,-106.073 2240.62,-109.634 2250.64,-113.073 2250.6,-106.073"/>
</g>
<!-- Node28 -->
<g id="node28" class="node"><title>Node28</title>
<g id="a_node28"><a xlink:href="../../d9/d93/PHG4PhenixDetector_8cc.html" target="_top" xlink:title="/home/yuhw/GitHub/SeaQuest\l/e1039&#45;core/simulation/g4main\l/PHG4PhenixDetector.cc">
<polygon fill="none" stroke="black" points="4106.5,-6.5 4106.5,-47.5 4255.5,-47.5 4255.5,-6.5 4106.5,-6.5"/>
<text text-anchor="start" x="4114.5" y="-35.5" font-family="FreeSans" font-size="10.00">/home/yuhw/GitHub/SeaQuest</text>
<text text-anchor="start" x="4114.5" y="-24.5" font-family="FreeSans" font-size="10.00">/e1039&#45;core/simulation/g4main</text>
<text text-anchor="middle" x="4181" y="-13.5" font-family="FreeSans" font-size="10.00">/PHG4PhenixDetector.cc</text>
</a>
</g>
</g>
<!-- Node4&#45;&gt;Node28 -->
<g id="edge27" class="edge"><title>Node4&#45;&gt;Node28</title>
<path fill="none" stroke="midnightblue" d="M2250.59,-108.897C2599.04,-104.169 3913.58,-84.4626 4097,-54 4106.19,-52.4743 4115.76,-50.1994 4125.03,-47.6191"/>
<polygon fill="midnightblue" stroke="midnightblue" points="2250.52,-105.398 2240.57,-109.032 2250.61,-112.397 2250.52,-105.398"/>
</g>
<!-- Node29 -->
<g id="node29" class="node"><title>Node29</title>
<g id="a_node29"><a xlink:href="../../d2/dcb/PHG4Reco_8cc.html" target="_top" xlink:title="/home/yuhw/GitHub/SeaQuest\l/e1039&#45;core/simulation/g4main\l/PHG4Reco.cc">
<polygon fill="none" stroke="black" points="4273.5,-6.5 4273.5,-47.5 4422.5,-47.5 4422.5,-6.5 4273.5,-6.5"/>
<text text-anchor="start" x="4281.5" y="-35.5" font-family="FreeSans" font-size="10.00">/home/yuhw/GitHub/SeaQuest</text>
<text text-anchor="start" x="4281.5" y="-24.5" font-family="FreeSans" font-size="10.00">/e1039&#45;core/simulation/g4main</text>
<text text-anchor="middle" x="4348" y="-13.5" font-family="FreeSans" font-size="10.00">/PHG4Reco.cc</text>
</a>
</g>
</g>
<!-- Node4&#45;&gt;Node29 -->
<g id="edge28" class="edge"><title>Node4&#45;&gt;Node29</title>
<path fill="none" stroke="midnightblue" d="M2250.81,-109.105C2618.28,-105.04 4063.43,-87.074 4264,-54 4273.34,-52.46 4283.08,-50.141 4292.48,-47.5105"/>
<polygon fill="midnightblue" stroke="midnightblue" points="2250.74,-105.605 2240.78,-109.215 2250.81,-112.605 2250.74,-105.605"/>
</g>
</g>
</svg>
