<?xml version="1.0" encoding="UTF-8" standalone="no"?>
<!DOCTYPE svg PUBLIC "-//W3C//DTD SVG 1.1//EN"
 "http://www.w3.org/Graphics/SVG/1.1/DTD/svg11.dtd">
<!-- Generated by graphviz version 2.30.1 (20200930.0103)
 -->
<!-- Title: SQGenFit::GFTrack::checkConsistency Pages: 1 -->
<svg width="410pt" height="87pt"
 viewBox="0.00 0.00 410.00 87.00" xmlns="http://www.w3.org/2000/svg" xmlns:xlink="http://www.w3.org/1999/xlink">
<g id="graph0" class="graph" transform="scale(1 1) rotate(0) translate(4 83)">
<title>SQGenFit::GFTrack::checkConsistency</title>
<!-- Node1 -->
<g id="node1" class="node"><title>Node1</title>
<polygon fill="#bfbfbf" stroke="black" points="0.5,-24 0.5,-54 107.5,-54 107.5,-24 0.5,-24"/>
<text text-anchor="start" x="8.5" y="-42" font-family="FreeSans" font-size="10.00">SQGenFit::GFTrack::</text>
<text text-anchor="middle" x="54" y="-31" font-family="FreeSans" font-size="10.00">checkConsistency</text>
</g>
<!-- Node2 -->
<g id="node2" class="node"><title>Node2</title>
<g id="a_node2"><a xlink:href="../../d8/d77/classSQGenFit_1_1GFFitter.html#ad51fae247e8bb6cf75b6d82d230403c2" target="_top" xlink:title="SQGenFit::GFFitter\l::processTrack">
<polygon fill="none" stroke="black" points="147.5,-49 147.5,-79 248.5,-79 248.5,-49 147.5,-49"/>
<text text-anchor="start" x="155.5" y="-67" font-family="FreeSans" font-size="10.00">SQGenFit::GFFitter</text>
<text text-anchor="middle" x="198" y="-56" font-family="FreeSans" font-size="10.00">::processTrack</text>
</a>
</g>
</g>
<!-- Node1&#45;&gt;Node2 -->
<g id="edge1" class="edge"><title>Node1&#45;&gt;Node2</title>
<path fill="none" stroke="midnightblue" d="M118.017,-50.0945C127.851,-51.8259 137.892,-53.5937 147.373,-55.2628"/>
<polygon fill="midnightblue" stroke="midnightblue" points="118.331,-46.5961 107.876,-48.3091 117.117,-53.49 118.331,-46.5961"/>
</g>
<!-- Node5 -->
<g id="node5" class="node"><title>Node5</title>
<g id="a_node5"><a xlink:href="../../d2/d6b/classSQGenFit_1_1GFTrack.html#aa12a74dbecdfcb395e1e3b44859ce6b8" target="_top" xlink:title="SQGenFit::GFTrack::\lsetTracklet">
<polygon fill="none" stroke="black" points="144.5,-0 144.5,-30 251.5,-30 251.5,-0 144.5,-0"/>
<text text-anchor="start" x="152.5" y="-18" font-family="FreeSans" font-size="10.00">SQGenFit::GFTrack::</text>
<text text-anchor="middle" x="198" y="-7" font-family="FreeSans" font-size="10.00">setTracklet</text>
</a>
</g>
</g>
<!-- Node1&#45;&gt;Node5 -->
<g id="edge4" class="edge"><title>Node1&#45;&gt;Node5</title>
<path fill="none" stroke="midnightblue" d="M117.994,-28.3531C126.704,-26.8809 135.578,-25.3812 144.08,-23.9442"/>
<polygon fill="midnightblue" stroke="midnightblue" points="117.152,-24.9456 107.876,-30.0633 118.319,-31.8478 117.152,-24.9456"/>
</g>
<!-- Node3 -->
<g id="node3" class="node"><title>Node3</title>
<g id="a_node3"><a xlink:href="../../df/df2/classSQReco.html#a32bb088e7896b2ecdb5b9aa4df1f6a50" target="_top" xlink:title="SQReco::fitTrackCand">
<polygon fill="none" stroke="black" points="288.5,-51.5 288.5,-70.5 401.5,-70.5 401.5,-51.5 288.5,-51.5"/>
<text text-anchor="middle" x="345" y="-58.5" font-family="FreeSans" font-size="10.00">SQReco::fitTrackCand</text>
</a>
</g>
</g>
<!-- Node2&#45;&gt;Node3 -->
<g id="edge2" class="edge"><title>Node2&#45;&gt;Node3</title>
<path fill="none" stroke="midnightblue" d="M259.203,-62.7544C268.837,-62.5551 278.768,-62.3496 288.291,-62.1526"/>
<polygon fill="midnightblue" stroke="midnightblue" points="258.826,-59.2614 248.901,-62.9676 258.971,-66.2599 258.826,-59.2614"/>
</g>
<!-- Node4 -->
<g id="node4" class="node"><title>Node4</title>
<g id="a_node4"><a xlink:href="../../db/d86/test__minimum_8cxx.html#a0ddf1224851353fc92bfbff6f499fa97" target="_top" xlink:title="main">
<polygon fill="none" stroke="black" points="326,-10.5 326,-29.5 364,-29.5 364,-10.5 326,-10.5"/>
<text text-anchor="middle" x="345" y="-17.5" font-family="FreeSans" font-size="10.00">main</text>
</a>
</g>
</g>
<!-- Node2&#45;&gt;Node4 -->
<g id="edge3" class="edge"><title>Node2&#45;&gt;Node4</title>
<path fill="none" stroke="midnightblue" d="M258.387,-45.9792C282.669,-38.6107 308.982,-30.6262 325.935,-25.4819"/>
<polygon fill="midnightblue" stroke="midnightblue" points="257.048,-42.7278 248.495,-48.9808 259.081,-49.4262 257.048,-42.7278"/>
</g>
<!-- Node5&#45;&gt;Node3 -->
<g id="edge5" class="edge"><title>Node5&#45;&gt;Node3</title>
<path fill="none" stroke="midnightblue" d="M256.269,-33.1681C275.907,-39.3981 297.107,-46.1236 313.747,-51.4024"/>
<polygon fill="midnightblue" stroke="midnightblue" points="257.069,-29.7499 246.478,-30.0621 254.952,-36.4222 257.069,-29.7499"/>
</g>
<!-- Node5&#45;&gt;Node4 -->
<g id="edge6" class="edge"><title>Node5&#45;&gt;Node4</title>
<path fill="none" stroke="midnightblue" d="M261.929,-17.17C285.106,-17.9692 309.612,-18.8142 325.746,-19.3705"/>
<polygon fill="midnightblue" stroke="midnightblue" points="261.873,-13.6661 251.759,-16.8193 261.632,-20.6619 261.873,-13.6661"/>
</g>
</g>
</svg>
