<?xml version="1.0" encoding="UTF-8" standalone="no"?>
<!DOCTYPE svg PUBLIC "-//W3C//DTD SVG 1.1//EN"
 "http://www.w3.org/Graphics/SVG/1.1/DTD/svg11.dtd">
<!-- Generated by graphviz version 2.30.1 (20180413.0232)
 -->
<!-- Title: Fun4AllServer::unregisterSubsystemsNow Pages: 1 -->
<svg width="1090pt" height="1522pt"
 viewBox="0.00 0.00 1090.00 1522.00" xmlns="http://www.w3.org/2000/svg" xmlns:xlink="http://www.w3.org/1999/xlink">
<g id="graph0" class="graph" transform="scale(1 1) rotate(0) translate(4 1518)">
<title>Fun4AllServer::unregisterSubsystemsNow</title>
<!-- Node1 -->
<g id="node1" class="node"><title>Node1</title>
<polygon fill="#bfbfbf" stroke="black" points="0,-726 0,-756 124,-756 124,-726 0,-726"/>
<text text-anchor="start" x="8" y="-744" font-family="FreeSans" font-size="10.00">Fun4AllServer::unregister</text>
<text text-anchor="middle" x="62" y="-733" font-family="FreeSans" font-size="10.00">SubsystemsNow</text>
</g>
<!-- Node2 -->
<g id="node2" class="node"><title>Node2</title>
<g id="a_node2"><a xlink:href="../../da/d29/classFun4AllServer.html#afcfc5583204cac58b4e66a2406187a18" target="_top" xlink:title="Fun4AllServer::BeginRun">
<polygon fill="none" stroke="black" points="160,-753.5 160,-772.5 284,-772.5 284,-753.5 160,-753.5"/>
<text text-anchor="middle" x="222" y="-760.5" font-family="FreeSans" font-size="10.00">Fun4AllServer::BeginRun</text>
</a>
</g>
</g>
<!-- Node1&#45;&gt;Node2 -->
<g id="edge1" class="edge"><title>Node1&#45;&gt;Node2</title>
<path fill="none" stroke="midnightblue" d="M134.086,-750.898C142.673,-752.094 151.387,-753.307 159.815,-754.481"/>
<polygon fill="midnightblue" stroke="midnightblue" points="134.474,-747.418 124.087,-749.506 133.509,-754.352 134.474,-747.418"/>
</g>
<!-- Node49 -->
<g id="node49" class="node"><title>Node49</title>
<g id="a_node49"><a xlink:href="../../da/d29/classFun4AllServer.html#a6a65a944dfb40966ace97d35ab1f7942" target="_top" xlink:title="Fun4AllServer::process\l_event">
<polygon fill="none" stroke="black" points="164.5,-704 164.5,-734 279.5,-734 279.5,-704 164.5,-704"/>
<text text-anchor="start" x="172.5" y="-722" font-family="FreeSans" font-size="10.00">Fun4AllServer::process</text>
<text text-anchor="middle" x="222" y="-711" font-family="FreeSans" font-size="10.00">_event</text>
</a>
</g>
</g>
<!-- Node1&#45;&gt;Node49 -->
<g id="edge49" class="edge"><title>Node1&#45;&gt;Node49</title>
<path fill="none" stroke="midnightblue" d="M134.16,-731.092C144.317,-729.677 154.648,-728.239 164.473,-726.871"/>
<polygon fill="midnightblue" stroke="midnightblue" points="133.509,-727.648 124.087,-732.494 134.474,-734.582 133.509,-727.648"/>
</g>
<!-- Node3 -->
<g id="node3" class="node"><title>Node3</title>
<g id="a_node3"><a xlink:href="../../da/d29/classFun4AllServer.html#a11bbc8b2f53bc06e0b05ee202dd6372a" target="_top" xlink:title="run n events (0 means up to end of file) ">
<polygon fill="none" stroke="black" points="330.5,-753.5 330.5,-772.5 425.5,-772.5 425.5,-753.5 330.5,-753.5"/>
<text text-anchor="middle" x="378" y="-760.5" font-family="FreeSans" font-size="10.00">Fun4AllServer::run</text>
</a>
</g>
</g>
<!-- Node2&#45;&gt;Node3 -->
<g id="edge2" class="edge"><title>Node2&#45;&gt;Node3</title>
<path fill="none" stroke="midnightblue" d="M294.422,-763C306.548,-763 318.858,-763 330.143,-763"/>
<polygon fill="midnightblue" stroke="midnightblue" points="294.307,-759.5 284.307,-763 294.307,-766.5 294.307,-759.5"/>
</g>
<!-- Node4 -->
<g id="node4" class="node"><title>Node4</title>
<g id="a_node4"><a xlink:href="../../df/d51/Fun4All__ExportGeom_8C.html#a582925c51bad38d562cf19e71211adfd" target="_top" xlink:title="get geometry from DST file and output TGeoManager ROOT files or other formats of geometry files ...">
<polygon fill="none" stroke="black" points="485,-1494.5 485,-1513.5 593,-1513.5 593,-1494.5 485,-1494.5"/>
<text text-anchor="middle" x="539" y="-1501.5" font-family="FreeSans" font-size="10.00">Fun4All_ExportGeom</text>
</a>
</g>
</g>
<!-- Node3&#45;&gt;Node4 -->
<g id="edge3" class="edge"><title>Node3&#45;&gt;Node4</title>
<path fill="none" stroke="midnightblue" d="M378.726,-783.162C377.704,-888.579 378.181,-1375.69 472,-1485 475.572,-1489.16 479.992,-1492.44 484.839,-1495.02"/>
<polygon fill="midnightblue" stroke="midnightblue" points="382.228,-782.995 378.842,-772.955 375.228,-782.915 382.228,-782.995"/>
</g>
<!-- Node5 -->
<g id="node5" class="node"><title>Node5</title>
<g id="a_node5"><a xlink:href="../../d9/de0/Fun4All__G4__BNL_8C.html#a62a558c2bb73d1be82a65b16f52ce2e0" target="_top" xlink:title="Fun4All_G4_BNL">
<polygon fill="none" stroke="black" points="493,-1456.5 493,-1475.5 585,-1475.5 585,-1456.5 493,-1456.5"/>
<text text-anchor="middle" x="539" y="-1463.5" font-family="FreeSans" font-size="10.00">Fun4All_G4_BNL</text>
</a>
</g>
</g>
<!-- Node3&#45;&gt;Node5 -->
<g id="edge4" class="edge"><title>Node3&#45;&gt;Node5</title>
<path fill="none" stroke="midnightblue" d="M378.886,-783.056C378.714,-884.899 382.952,-1343.99 472,-1447 477.458,-1453.31 484.866,-1457.6 492.75,-1460.48"/>
<polygon fill="midnightblue" stroke="midnightblue" points="382.386,-782.925 378.921,-772.913 375.386,-782.901 382.386,-782.925"/>
</g>
<!-- Node6 -->
<g id="node6" class="node"><title>Node6</title>
<g id="a_node6"><a xlink:href="../../de/dad/Fun4All__G4__BNL__R1_8C.html#a361be596f3554cfa3d0fc26346c50c31" target="_top" xlink:title="Fun4All_G4_BNL_R1">
<polygon fill="none" stroke="black" points="484.5,-1418.5 484.5,-1437.5 593.5,-1437.5 593.5,-1418.5 484.5,-1418.5"/>
<text text-anchor="middle" x="539" y="-1425.5" font-family="FreeSans" font-size="10.00">Fun4All_G4_BNL_R1</text>
</a>
</g>
</g>
<!-- Node3&#45;&gt;Node6 -->
<g id="edge5" class="edge"><title>Node3&#45;&gt;Node6</title>
<path fill="none" stroke="midnightblue" d="M379.062,-782.863C379.768,-880.89 387.69,-1312.24 472,-1409 475.447,-1412.96 479.658,-1416.11 484.27,-1418.63"/>
<polygon fill="midnightblue" stroke="midnightblue" points="382.562,-782.81 379.007,-772.829 375.562,-782.848 382.562,-782.81"/>
</g>
<!-- Node7 -->
<g id="node7" class="node"><title>Node7</title>
<g id="a_node7"><a xlink:href="../../d1/d24/Fun4All__G4__E1039_8C.html#ad81863c21df83a735c57713bc9ec59b1" target="_top" xlink:title="Fun4All_G4_E1039">
<polygon fill="none" stroke="black" points="489,-1380.5 489,-1399.5 589,-1399.5 589,-1380.5 489,-1380.5"/>
<text text-anchor="middle" x="539" y="-1387.5" font-family="FreeSans" font-size="10.00">Fun4All_G4_E1039</text>
</a>
</g>
</g>
<!-- Node3&#45;&gt;Node7 -->
<g id="edge6" class="edge"><title>Node3&#45;&gt;Node7</title>
<path fill="none" stroke="midnightblue" d="M379.259,-782.869C380.889,-877.374 392.476,-1280.54 472,-1371 476.566,-1376.19 482.451,-1380.01 488.823,-1382.81"/>
<polygon fill="midnightblue" stroke="midnightblue" points="382.756,-782.645 379.102,-772.7 375.757,-782.753 382.756,-782.645"/>
</g>
<!-- Node8 -->
<g id="node8" class="node"><title>Node8</title>
<g id="a_node8"><a xlink:href="../../de/d10/Fun4All__G4__E1039__R1_8C.html#aa484b834b55e3114dfd4cd82dcd11831" target="_top" xlink:title="Fun4All_G4_E1039_R1">
<polygon fill="none" stroke="black" points="480.5,-1342.5 480.5,-1361.5 597.5,-1361.5 597.5,-1342.5 480.5,-1342.5"/>
<text text-anchor="middle" x="539" y="-1349.5" font-family="FreeSans" font-size="10.00">Fun4All_G4_E1039_R1</text>
</a>
</g>
</g>
<!-- Node3&#45;&gt;Node8 -->
<g id="edge7" class="edge"><title>Node3&#45;&gt;Node8</title>
<path fill="none" stroke="midnightblue" d="M379.478,-782.758C382.068,-873.421 397.22,-1248.78 472,-1333 475.404,-1336.83 479.527,-1339.92 484.031,-1342.39"/>
<polygon fill="midnightblue" stroke="midnightblue" points="382.971,-782.429 379.206,-772.526 375.973,-782.615 382.971,-782.429"/>
</g>
<!-- Node9 -->
<g id="node9" class="node"><title>Node9</title>
<g id="a_node9"><a xlink:href="../../df/d98/Fun4All__G4__E1039__R2_8C.html#a0cc5938b98723b2d5216049aad7edb01" target="_top" xlink:title="Fun4All_G4_E1039_R2">
<polygon fill="none" stroke="black" points="480.5,-1304.5 480.5,-1323.5 597.5,-1323.5 597.5,-1304.5 480.5,-1304.5"/>
<text text-anchor="middle" x="539" y="-1311.5" font-family="FreeSans" font-size="10.00">Fun4All_G4_E1039_R2</text>
</a>
</g>
</g>
<!-- Node3&#45;&gt;Node9 -->
<g id="edge8" class="edge"><title>Node3&#45;&gt;Node9</title>
<path fill="none" stroke="midnightblue" d="M379.733,-782.815C383.343,-869.814 401.998,-1217.06 472,-1295 475.426,-1298.81 479.563,-1301.88 484.076,-1304.35"/>
<polygon fill="midnightblue" stroke="midnightblue" points="383.226,-782.573 379.334,-772.719 376.231,-782.849 383.226,-782.573"/>
</g>
<!-- Node10 -->
<g id="node10" class="node"><title>Node10</title>
<g id="a_node10"><a xlink:href="../../d1/d91/Fun4All__G4__E1039__R2__V2_8C.html#a89f8b08cddafb17f4ba14e509a0ca1db" target="_top" xlink:title="Fun4All_G4_E1039_R2_V2">
<polygon fill="none" stroke="black" points="472,-1266.5 472,-1285.5 606,-1285.5 606,-1266.5 472,-1266.5"/>
<text text-anchor="middle" x="539" y="-1273.5" font-family="FreeSans" font-size="10.00">Fun4All_G4_E1039_R2_V2</text>
</a>
</g>
</g>
<!-- Node3&#45;&gt;Node10 -->
<g id="edge9" class="edge"><title>Node3&#45;&gt;Node10</title>
<path fill="none" stroke="midnightblue" d="M380.032,-782.973C384.734,-866.314 406.788,-1185.33 472,-1257 475.531,-1260.88 479.798,-1263.99 484.443,-1266.47"/>
<polygon fill="midnightblue" stroke="midnightblue" points="383.518,-782.623 379.481,-772.827 376.529,-783.002 383.518,-782.623"/>
</g>
<!-- Node11 -->
<g id="node11" class="node"><title>Node11</title>
<g id="a_node11"><a xlink:href="../../d9/d0f/Fun4All__ImportGeom_8C.html#a3388968a8dae60e9eb62b1126f747b6a" target="_top" xlink:title="Read in a Geometry file, and output DST and ROOT TGeo files. ">
<polygon fill="none" stroke="black" points="484.5,-1228.5 484.5,-1247.5 593.5,-1247.5 593.5,-1228.5 484.5,-1228.5"/>
<text text-anchor="middle" x="539" y="-1235.5" font-family="FreeSans" font-size="10.00">Fun4All_ImportGeom</text>
</a>
</g>
</g>
<!-- Node3&#45;&gt;Node11 -->
<g id="edge10" class="edge"><title>Node3&#45;&gt;Node11</title>
<path fill="none" stroke="midnightblue" d="M380.37,-782.94C386.206,-862.162 411.512,-1153.53 472,-1219 475.56,-1222.85 479.846,-1225.94 484.504,-1228.42"/>
<polygon fill="midnightblue" stroke="midnightblue" points="383.853,-782.568 379.649,-772.843 376.87,-783.067 383.853,-782.568"/>
</g>
<!-- Node12 -->
<g id="node12" class="node"><title>Node12</title>
<g id="a_node12"><a xlink:href="../../d5/db4/Fun4All__Test_8C.html#ae69a57ea66fbed58544200f95796a66f" target="_top" xlink:title="Fun4All_Test">
<polygon fill="none" stroke="black" points="502,-1190.5 502,-1209.5 576,-1209.5 576,-1190.5 502,-1190.5"/>
<text text-anchor="middle" x="539" y="-1197.5" font-family="FreeSans" font-size="10.00">Fun4All_Test</text>
</a>
</g>
</g>
<!-- Node3&#45;&gt;Node12 -->
<g id="edge11" class="edge"><title>Node3&#45;&gt;Node12</title>
<path fill="none" stroke="midnightblue" d="M380.791,-783.166C387.872,-858.448 416.282,-1121.75 472,-1181 479.76,-1189.25 490.85,-1194 501.729,-1196.7"/>
<polygon fill="midnightblue" stroke="midnightblue" points="384.236,-782.397 379.837,-772.758 377.265,-783.036 384.236,-782.397"/>
</g>
<!-- Node13 -->
<g id="node13" class="node"><title>Node13</title>
<g id="a_node13"><a xlink:href="../../db/dbe/Fun4CODA_8C.html#a1bbee777074605aa2a59ddf9b2b52742" target="_top" xlink:title="Fun4CODA">
<polygon fill="none" stroke="black" points="506,-1152.5 506,-1171.5 572,-1171.5 572,-1152.5 506,-1152.5"/>
<text text-anchor="middle" x="539" y="-1159.5" font-family="FreeSans" font-size="10.00">Fun4CODA</text>
</a>
</g>
</g>
<!-- Node3&#45;&gt;Node13 -->
<g id="edge12" class="edge"><title>Node3&#45;&gt;Node13</title>
<path fill="none" stroke="midnightblue" d="M381.218,-782.683C389.509,-852.903 420.858,-1089.76 472,-1143 480.838,-1152.2 493.818,-1157.03 505.934,-1159.53"/>
<polygon fill="midnightblue" stroke="midnightblue" points="384.673,-782.098 380.048,-772.566 377.72,-782.902 384.673,-782.098"/>
</g>
<!-- Node14 -->
<g id="node14" class="node"><title>Node14</title>
<g id="a_node14"><a xlink:href="../../df/dc0/Fun4DB_8C.html#a156048b96f7485e3cc410afbc05fc286" target="_top" xlink:title="Fun4DB">
<polygon fill="none" stroke="black" points="513,-1114.5 513,-1133.5 565,-1133.5 565,-1114.5 513,-1114.5"/>
<text text-anchor="middle" x="539" y="-1121.5" font-family="FreeSans" font-size="10.00">Fun4DB</text>
</a>
</g>
</g>
<!-- Node3&#45;&gt;Node14 -->
<g id="edge13" class="edge"><title>Node3&#45;&gt;Node14</title>
<path fill="none" stroke="midnightblue" d="M381.808,-782.803C391.506,-848.515 425.556,-1057.86 472,-1105 482.628,-1115.79 498.955,-1120.55 512.71,-1122.61"/>
<polygon fill="midnightblue" stroke="midnightblue" points="385.226,-781.98 380.327,-772.586 378.298,-782.984 385.226,-781.98"/>
</g>
<!-- Node16 -->
<g id="node16" class="node"><title>Node16</title>
<g id="a_node16"><a xlink:href="../../de/daf/Fun4DST_8C.html#a6a43c5ad028285b022976fa872e60cbc" target="_top" xlink:title="Fun4DST">
<polygon fill="none" stroke="black" points="510,-1076.5 510,-1095.5 568,-1095.5 568,-1076.5 510,-1076.5"/>
<text text-anchor="middle" x="539" y="-1083.5" font-family="FreeSans" font-size="10.00">Fun4DST</text>
</a>
</g>
</g>
<!-- Node3&#45;&gt;Node16 -->
<g id="edge15" class="edge"><title>Node3&#45;&gt;Node16</title>
<path fill="none" stroke="midnightblue" d="M378.954,-782.753C379.937,-836.478 390.25,-986.594 472,-1067 482.031,-1076.87 496.837,-1081.67 509.885,-1083.99"/>
<polygon fill="midnightblue" stroke="midnightblue" points="382.452,-782.518 378.863,-772.55 375.452,-782.58 382.452,-782.518"/>
</g>
<!-- Node17 -->
<g id="node17" class="node"><title>Node17</title>
<g id="a_node17"><a xlink:href="../../d2/d24/Fun4E1039Shielding_8C.html#a42592782dd55d6e219305ff678a00dc2" target="_top" xlink:title="Fun4E1039Shielding">
<polygon fill="none" stroke="black" points="486.5,-1038.5 486.5,-1057.5 591.5,-1057.5 591.5,-1038.5 486.5,-1038.5"/>
<text text-anchor="middle" x="539" y="-1045.5" font-family="FreeSans" font-size="10.00">Fun4E1039Shielding</text>
</a>
</g>
</g>
<!-- Node3&#45;&gt;Node17 -->
<g id="edge16" class="edge"><title>Node3&#45;&gt;Node17</title>
<path fill="none" stroke="midnightblue" d="M379.969,-782.882C383.462,-832.064 399.433,-960.39 472,-1029 476.159,-1032.93 481.078,-1036.06 486.327,-1038.54"/>
<polygon fill="midnightblue" stroke="midnightblue" points="383.448,-782.42 379.347,-772.651 376.461,-782.845 383.448,-782.42"/>
</g>
<!-- Node18 -->
<g id="node18" class="node"><title>Node18</title>
<g id="a_node18"><a xlink:href="../../db/d7c/Fun4DumpGeom_8C.html#ac8b66de3cf15072c6969f76f6b8f7f4c" target="_top" xlink:title="Fun4Geom">
<polygon fill="none" stroke="black" points="506.5,-1000.5 506.5,-1019.5 571.5,-1019.5 571.5,-1000.5 506.5,-1000.5"/>
<text text-anchor="middle" x="539" y="-1007.5" font-family="FreeSans" font-size="10.00">Fun4Geom</text>
</a>
</g>
</g>
<!-- Node3&#45;&gt;Node18 -->
<g id="edge17" class="edge"><title>Node3&#45;&gt;Node18</title>
<path fill="none" stroke="midnightblue" d="M381.308,-783.005C387.49,-827.245 408.517,-933.97 472,-991 481.402,-999.447 494.334,-1004.16 506.26,-1006.77"/>
<polygon fill="midnightblue" stroke="midnightblue" points="384.761,-782.417 380.013,-772.946 377.819,-783.311 384.761,-782.417"/>
</g>
<!-- Node19 -->
<g id="node19" class="node"><title>Node19</title>
<g id="a_node19"><a xlink:href="../../d6/d6a/Fun4HodoAccGap_8C.html#a7aaa0687f144d5e7b417d7e9ac5f36da" target="_top" xlink:title="Fun4HodoAccGap">
<polygon fill="none" stroke="black" points="491,-962.5 491,-981.5 587,-981.5 587,-962.5 491,-962.5"/>
<text text-anchor="middle" x="539" y="-969.5" font-family="FreeSans" font-size="10.00">Fun4HodoAccGap</text>
</a>
</g>
</g>
<!-- Node3&#45;&gt;Node19 -->
<g id="edge18" class="edge"><title>Node3&#45;&gt;Node19</title>
<path fill="none" stroke="midnightblue" d="M383.01,-782.517C391.95,-821.026 417.195,-907.03 472,-953 477.481,-957.598 484.019,-961.084 490.816,-963.727"/>
<polygon fill="midnightblue" stroke="midnightblue" points="386.392,-781.601 380.826,-772.586 379.555,-783.104 386.392,-781.601"/>
</g>
<!-- Node20 -->
<g id="node20" class="node"><title>Node20</title>
<g id="a_node20"><a xlink:href="../../dd/d7d/Fun4kTracker_8C.html#abe7052288e4678d0346333383ad821ff" target="_top" xlink:title="Fun4kTracker">
<polygon fill="none" stroke="black" points="500.5,-924.5 500.5,-943.5 577.5,-943.5 577.5,-924.5 500.5,-924.5"/>
<text text-anchor="middle" x="539" y="-931.5" font-family="FreeSans" font-size="10.00">Fun4kTracker</text>
</a>
</g>
</g>
<!-- Node3&#45;&gt;Node20 -->
<g id="edge19" class="edge"><title>Node3&#45;&gt;Node20</title>
<path fill="none" stroke="midnightblue" d="M385.449,-782.133C397.335,-814.459 425.791,-879.798 472,-915 480.252,-921.286 490.518,-925.494 500.476,-928.31"/>
<polygon fill="midnightblue" stroke="midnightblue" points="388.686,-780.788 382.052,-772.527 382.087,-783.122 388.686,-780.788"/>
</g>
<!-- Node21 -->
<g id="node21" class="node"><title>Node21</title>
<g id="a_node21"><a xlink:href="../../df/d6a/e1039-core_2online_2macros_2Fun4MainDaq_8C.html#ab9151bcfc5d35e7a25c9cf86fddd2bd2" target="_top" xlink:title="Fun4MainDaq.C: Fun4all macro to decode the MainDAQ data. ">
<polygon fill="none" stroke="black" points="500.5,-886.5 500.5,-905.5 577.5,-905.5 577.5,-886.5 500.5,-886.5"/>
<text text-anchor="middle" x="539" y="-893.5" font-family="FreeSans" font-size="10.00">Fun4MainDaq</text>
</a>
</g>
</g>
<!-- Node3&#45;&gt;Node21 -->
<g id="edge20" class="edge"><title>Node3&#45;&gt;Node21</title>
<path fill="none" stroke="midnightblue" d="M389.211,-781.562C404.104,-806.906 434.173,-852.033 472,-877 480.459,-882.583 490.576,-886.553 500.319,-889.366"/>
<polygon fill="midnightblue" stroke="midnightblue" points="392.097,-779.558 384.1,-772.609 386.018,-783.029 392.097,-779.558"/>
</g>
<!-- Node22 -->
<g id="node22" class="node"><title>Node22</title>
<g id="a_node22"><a xlink:href="../../d1/d6b/Fun4MainDaqE906_8C.html#a3617355b5c033a5635408b1cd8c29c35" target="_top" xlink:title="Fun4MainDaq.C: Fun4all macro to decode the MainDAQ data. ">
<polygon fill="none" stroke="black" points="490,-848.5 490,-867.5 588,-867.5 588,-848.5 490,-848.5"/>
<text text-anchor="middle" x="539" y="-855.5" font-family="FreeSans" font-size="10.00">Fun4MainDaqE906</text>
</a>
</g>
</g>
<!-- Node3&#45;&gt;Node22 -->
<g id="edge21" class="edge"><title>Node3&#45;&gt;Node22</title>
<path fill="none" stroke="midnightblue" d="M395.253,-779.821C412.727,-796.997 442.05,-823.304 472,-839 479.182,-842.764 487.205,-845.869 495.116,-848.399"/>
<polygon fill="midnightblue" stroke="midnightblue" points="397.638,-777.255 388.1,-772.643 392.679,-782.196 397.638,-777.255"/>
</g>
<!-- Node23 -->
<g id="node23" class="node"><title>Node23</title>
<g id="a_node23"><a xlink:href="../../da/daa/Fun4RealDst_8C.html#aa80eadb6952b5d52a756d7cf52d05770" target="_top" xlink:title="Function to analyze multiple DST files. ">
<polygon fill="none" stroke="black" points="492.5,-810.5 492.5,-829.5 585.5,-829.5 585.5,-810.5 492.5,-810.5"/>
<text text-anchor="middle" x="539" y="-817.5" font-family="FreeSans" font-size="10.00">Fun4MultiRealDst</text>
</a>
</g>
</g>
<!-- Node3&#45;&gt;Node23 -->
<g id="edge22" class="edge"><title>Node3&#45;&gt;Node23</title>
<path fill="none" stroke="midnightblue" d="M409.932,-776.616C427.875,-784.267 451.007,-793.713 472,-801 481.687,-804.363 492.314,-807.61 502.156,-810.441"/>
<polygon fill="midnightblue" stroke="midnightblue" points="411.114,-773.314 400.545,-772.575 408.346,-779.744 411.114,-773.314"/>
</g>
<!-- Node24 -->
<g id="node24" class="node"><title>Node24</title>
<g id="a_node24"><a xlink:href="../../d7/d66/Fun4PatternDB_8C.html#a9e68afec0dfdd12961d550386529d5eb" target="_top" xlink:title="Fun4PatternDB">
<polygon fill="none" stroke="black" points="497.5,-772.5 497.5,-791.5 580.5,-791.5 580.5,-772.5 497.5,-772.5"/>
<text text-anchor="middle" x="539" y="-779.5" font-family="FreeSans" font-size="10.00">Fun4PatternDB</text>
</a>
</g>
</g>
<!-- Node3&#45;&gt;Node24 -->
<g id="edge23" class="edge"><title>Node3&#45;&gt;Node24</title>
<path fill="none" stroke="midnightblue" d="M435.937,-769.804C456.266,-772.233 478.741,-774.919 497.415,-777.15"/>
<polygon fill="midnightblue" stroke="midnightblue" points="436.19,-766.309 425.845,-768.598 435.359,-773.26 436.19,-766.309"/>
</g>
<!-- Node25 -->
<g id="node25" class="node"><title>Node25</title>
<g id="a_node25"><a xlink:href="../../de/d66/Fun4Pythia8Demo_8C.html#a6a06be36766511c5ad76013c9cbfe5b5" target="_top" xlink:title="Fun4Pythia8Demo">
<polygon fill="none" stroke="black" points="491,-734.5 491,-753.5 587,-753.5 587,-734.5 491,-734.5"/>
<text text-anchor="middle" x="539" y="-741.5" font-family="FreeSans" font-size="10.00">Fun4Pythia8Demo</text>
</a>
</g>
</g>
<!-- Node3&#45;&gt;Node25 -->
<g id="edge24" class="edge"><title>Node3&#45;&gt;Node25</title>
<path fill="none" stroke="midnightblue" d="M435.946,-756.195C453.973,-754.041 473.687,-751.685 490.94,-749.624"/>
<polygon fill="midnightblue" stroke="midnightblue" points="435.359,-752.74 425.845,-757.402 436.19,-759.691 435.359,-752.74"/>
</g>
<!-- Node26 -->
<g id="node26" class="node"><title>Node26</title>
<g id="a_node26"><a xlink:href="../../d9/d8c/Fun4ReadMySql_8C.html#a82110168fa15d41b073c27eeadfc0ff3" target="_top" xlink:title="Fun4ReadMySql">
<polygon fill="none" stroke="black" points="495,-696.5 495,-715.5 583,-715.5 583,-696.5 495,-696.5"/>
<text text-anchor="middle" x="539" y="-703.5" font-family="FreeSans" font-size="10.00">Fun4ReadMySql</text>
</a>
</g>
</g>
<!-- Node3&#45;&gt;Node26 -->
<g id="edge25" class="edge"><title>Node3&#45;&gt;Node26</title>
<path fill="none" stroke="midnightblue" d="M418.405,-749.904C424.349,-747.719 430.37,-745.384 436,-743 452.473,-736.025 455.335,-731.502 472,-725 480.998,-721.49 490.909,-718.299 500.255,-715.576"/>
<polygon fill="midnightblue" stroke="midnightblue" points="416.8,-746.761 408.561,-753.422 419.156,-753.353 416.8,-746.761"/>
</g>
<!-- Node27 -->
<g id="node27" class="node"><title>Node27</title>
<g id="a_node27"><a xlink:href="../../da/daa/Fun4RealDst_8C.html#af2bc551d71266cd8c5a6daeea6a861d8" target="_top" xlink:title="Fun4MainDaq.C: Fun4all macro to decode the MainDAQ data. ">
<polygon fill="none" stroke="black" points="503,-658.5 503,-677.5 575,-677.5 575,-658.5 503,-658.5"/>
<text text-anchor="middle" x="539" y="-665.5" font-family="FreeSans" font-size="10.00">Fun4RealDst</text>
</a>
</g>
</g>
<!-- Node3&#45;&gt;Node27 -->
<g id="edge26" class="edge"><title>Node3&#45;&gt;Node27</title>
<path fill="none" stroke="midnightblue" d="M426.929,-748.955C430.136,-747.189 433.199,-745.212 436,-743 459.22,-724.662 448.265,-704.667 472,-687 480.991,-680.308 492.278,-675.968 502.962,-673.156"/>
<polygon fill="midnightblue" stroke="midnightblue" points="425.135,-745.933 417.611,-753.392 428.145,-752.253 425.135,-745.933"/>
</g>
<!-- Node28 -->
<g id="node28" class="node"><title>Node28</title>
<g id="a_node28"><a xlink:href="../../d6/d4c/Fun4SeaQuest_8C.html#a81bffd149f5c71602cb40eb0f45019c3" target="_top" xlink:title="Fun4SeaQuest">
<polygon fill="none" stroke="black" points="498.5,-620.5 498.5,-639.5 579.5,-639.5 579.5,-620.5 498.5,-620.5"/>
<text text-anchor="middle" x="539" y="-627.5" font-family="FreeSans" font-size="10.00">Fun4SeaQuest</text>
</a>
</g>
</g>
<!-- Node3&#45;&gt;Node28 -->
<g id="edge27" class="edge"><title>Node3&#45;&gt;Node28</title>
<path fill="none" stroke="midnightblue" d="M429.06,-748.558C431.547,-746.902 433.885,-745.056 436,-743 468.078,-711.817 439.044,-679.254 472,-649 479.29,-642.307 488.791,-637.957 498.303,-635.134"/>
<polygon fill="midnightblue" stroke="midnightblue" points="427.195,-745.59 420.14,-753.494 430.584,-751.715 427.195,-745.59"/>
</g>
<!-- Node29 -->
<g id="node29" class="node"><title>Node29</title>
<g id="a_node29"><a xlink:href="../../d7/d65/e1039-core_2macros_2Fun4Sim_8C.html#a5e9276116ae0064f58b288a1e0e4e3db" target="_top" xlink:title="Fun4Sim">
<polygon fill="none" stroke="black" points="511,-582.5 511,-601.5 567,-601.5 567,-582.5 511,-582.5"/>
<text text-anchor="middle" x="539" y="-589.5" font-family="FreeSans" font-size="10.00">Fun4Sim</text>
</a>
</g>
</g>
<!-- Node3&#45;&gt;Node29 -->
<g id="edge28" class="edge"><title>Node3&#45;&gt;Node29</title>
<path fill="none" stroke="midnightblue" d="M430.127,-748.21C432.242,-746.645 434.218,-744.914 436,-743 477.441,-698.498 429.304,-654.3 472,-611 482.13,-600.727 497.429,-595.92 510.747,-593.708"/>
<polygon fill="midnightblue" stroke="midnightblue" points="428.16,-745.309 421.396,-753.463 431.769,-751.307 428.16,-745.309"/>
</g>
<!-- Node31 -->
<g id="node31" class="node"><title>Node31</title>
<g id="a_node31"><a xlink:href="../../db/dba/Fun4SimDst_8C.html#abf0708efff889232b6c0a7359cfb70ae" target="_top" xlink:title="Fun4SimDst.C: Fun4all macro to analyze the E1039 simulated DST files. ">
<polygon fill="none" stroke="black" points="504,-544.5 504,-563.5 574,-563.5 574,-544.5 504,-544.5"/>
<text text-anchor="middle" x="539" y="-551.5" font-family="FreeSans" font-size="10.00">Fun4SimDst</text>
</a>
</g>
</g>
<!-- Node3&#45;&gt;Node31 -->
<g id="edge30" class="edge"><title>Node3&#45;&gt;Node31</title>
<path fill="none" stroke="midnightblue" d="M430.907,-747.829C432.742,-746.365 434.453,-744.76 436,-743 486.984,-684.989 419.38,-629.531 472,-573 480.205,-564.185 492.209,-559.368 503.737,-556.767"/>
<polygon fill="midnightblue" stroke="midnightblue" points="428.745,-745.057 422.195,-753.386 432.509,-750.959 428.745,-745.057"/>
</g>
<!-- Node32 -->
<g id="node32" class="node"><title>Node32</title>
<g id="a_node32"><a xlink:href="../../d6/dac/Fun4SimMicroDst_8C.html#ab980c780491ded824d61247fc1fa6127" target="_top" xlink:title="Fun4SimMicroDst.C: Fun4all macro to analyze you uDST. ">
<polygon fill="none" stroke="black" points="492,-506.5 492,-525.5 586,-525.5 586,-506.5 492,-506.5"/>
<text text-anchor="middle" x="539" y="-513.5" font-family="FreeSans" font-size="10.00">Fun4SimMicroDst</text>
</a>
</g>
</g>
<!-- Node3&#45;&gt;Node32 -->
<g id="edge31" class="edge"><title>Node3&#45;&gt;Node32</title>
<path fill="none" stroke="midnightblue" d="M431.089,-747.82C432.864,-746.358 434.514,-744.756 436,-743 496.609,-671.386 409.37,-604.853 472,-535 477.333,-529.052 484.395,-524.916 491.917,-522.051"/>
<polygon fill="midnightblue" stroke="midnightblue" points="429.07,-744.958 422.628,-753.369 432.909,-750.811 429.07,-744.958"/>
</g>
<!-- Node33 -->
<g id="node33" class="node"><title>Node33</title>
<g id="a_node33"><a xlink:href="../../d8/de7/Fun4SRawEvent_8C.html#aaa9bb2e956ce860a8cb6e7845bcc4ed5" target="_top" xlink:title="Fun4SRawEvent">
<polygon fill="none" stroke="black" points="495,-468.5 495,-487.5 583,-487.5 583,-468.5 495,-468.5"/>
<text text-anchor="middle" x="539" y="-475.5" font-family="FreeSans" font-size="10.00">Fun4SRawEvent</text>
</a>
</g>
</g>
<!-- Node3&#45;&gt;Node33 -->
<g id="edge32" class="edge"><title>Node3&#45;&gt;Node33</title>
<path fill="none" stroke="midnightblue" d="M431.146,-747.868C432.906,-746.393 434.537,-744.775 436,-743 506.278,-657.732 399.314,-580.226 472,-497 477.961,-490.175 486.2,-485.727 494.838,-482.848"/>
<polygon fill="midnightblue" stroke="midnightblue" points="429.126,-745.008 422.734,-753.457 433,-750.838 429.126,-745.008"/>
</g>
<!-- Node34 -->
<g id="node34" class="node"><title>Node34</title>
<g id="a_node34"><a xlink:href="../../de/d48/Fun4TestAnalyzer_8C.html#af993f3ce438e5ebcb52b97e41124a3db" target="_top" xlink:title="Fun4TestAnalyzer">
<polygon fill="none" stroke="black" points="492,-430.5 492,-449.5 586,-449.5 586,-430.5 492,-430.5"/>
<text text-anchor="middle" x="539" y="-437.5" font-family="FreeSans" font-size="10.00">Fun4TestAnalyzer</text>
</a>
</g>
</g>
<!-- Node3&#45;&gt;Node34 -->
<g id="edge33" class="edge"><title>Node3&#45;&gt;Node34</title>
<path fill="none" stroke="midnightblue" d="M431.679,-747.48C433.24,-746.111 434.69,-744.621 436,-743 515.974,-644.045 389.231,-555.63 472,-459 477.197,-452.933 484.195,-448.74 491.694,-445.856"/>
<polygon fill="midnightblue" stroke="midnightblue" points="429.358,-744.828 423.092,-753.372 433.318,-750.601 429.358,-744.828"/>
</g>
<!-- Node35 -->
<g id="node35" class="node"><title>Node35</title>
<g id="a_node35"><a xlink:href="../../d2/d3a/Fun4TrkDev_8C.html#abd98cf50196a6ad7cb2289d1f0442b73" target="_top" xlink:title="Fun4TrkDev">
<polygon fill="none" stroke="black" points="504.5,-392.5 504.5,-411.5 573.5,-411.5 573.5,-392.5 504.5,-392.5"/>
<text text-anchor="middle" x="539" y="-399.5" font-family="FreeSans" font-size="10.00">Fun4TrkDev</text>
</a>
</g>
</g>
<!-- Node3&#45;&gt;Node35 -->
<g id="edge34" class="edge"><title>Node3&#45;&gt;Node35</title>
<path fill="none" stroke="midnightblue" d="M431.709,-747.505C433.262,-746.129 434.702,-744.631 436,-743 525.688,-630.337 379.13,-531.054 472,-421 479.997,-411.523 492.389,-406.61 504.286,-404.117"/>
<polygon fill="midnightblue" stroke="midnightblue" points="429.388,-744.855 423.152,-753.42 433.368,-750.613 429.388,-744.855"/>
</g>
<!-- Node36 -->
<g id="node36" class="node"><title>Node36</title>
<g id="a_node36"><a xlink:href="../../d1/da2/E1039Shielding_2int__run_8C.html#a088590a1a5b93b904ba076de8ca1ef82" target="_top" xlink:title="int_run">
<polygon fill="none" stroke="black" points="516,-354.5 516,-373.5 562,-373.5 562,-354.5 516,-354.5"/>
<text text-anchor="middle" x="539" y="-361.5" font-family="FreeSans" font-size="10.00">int_run</text>
</a>
</g>
</g>
<!-- Node3&#45;&gt;Node36 -->
<g id="edge35" class="edge"><title>Node3&#45;&gt;Node36</title>
<path fill="none" stroke="midnightblue" d="M431.734,-747.524C433.279,-746.143 434.711,-744.638 436,-743 535.412,-616.615 369.017,-506.493 472,-383 482.615,-370.271 501.16,-365.764 515.895,-364.302"/>
<polygon fill="midnightblue" stroke="midnightblue" points="429.412,-744.875 423.2,-753.458 433.408,-750.623 429.412,-744.875"/>
</g>
<!-- Node37 -->
<g id="node37" class="node"><title>Node37</title>
<g id="a_node37"><a xlink:href="../../d8/d6d/classEventDispUI.html#a56a1055e13ce1e361c85c1820e44a9b3" target="_top" xlink:title="EventDispUI::MoveEvent">
<polygon fill="none" stroke="black" points="478.5,-316.5 478.5,-335.5 599.5,-335.5 599.5,-316.5 478.5,-316.5"/>
<text text-anchor="middle" x="539" y="-323.5" font-family="FreeSans" font-size="10.00">EventDispUI::MoveEvent</text>
</a>
</g>
</g>
<!-- Node3&#45;&gt;Node37 -->
<g id="edge36" class="edge"><title>Node3&#45;&gt;Node37</title>
<path fill="none" stroke="midnightblue" d="M431.754,-747.54C433.294,-746.154 434.719,-744.644 436,-743 490.572,-672.941 415.448,-413.471 472,-345 475.189,-341.139 479.108,-338.033 483.432,-335.539"/>
<polygon fill="midnightblue" stroke="midnightblue" points="429.432,-744.892 423.239,-753.489 433.441,-750.63 429.432,-744.892"/>
</g>
<!-- Node41 -->
<g id="node41" class="node"><title>Node41</title>
<g id="a_node41"><a xlink:href="../../d2/d99/classEvNavHandler.html#ad5d302e05a2917dbcf1d4b66453b7187" target="_top" xlink:title="EvNavHandler::NextEvent">
<polygon fill="none" stroke="black" points="476.5,-278.5 476.5,-297.5 601.5,-297.5 601.5,-278.5 476.5,-278.5"/>
<text text-anchor="middle" x="539" y="-285.5" font-family="FreeSans" font-size="10.00">EvNavHandler::NextEvent</text>
</a>
</g>
</g>
<!-- Node3&#45;&gt;Node41 -->
<g id="edge41" class="edge"><title>Node3&#45;&gt;Node41</title>
<path fill="none" stroke="midnightblue" d="M431.857,-747.474C433.359,-746.106 434.75,-744.618 436,-743 495.442,-666.071 410.384,-382.199 472,-307 475.174,-303.126 479.083,-300.012 483.4,-297.513"/>
<polygon fill="midnightblue" stroke="midnightblue" points="429.684,-744.724 423.548,-753.361 433.731,-750.435 429.684,-744.724"/>
</g>
<!-- Node42 -->
<g id="node42" class="node"><title>Node42</title>
<g id="a_node42"><a xlink:href="../../d8/d6d/classEventDispUI.html#a93421e77c003c06c1aff15cd2adb1c9a" target="_top" xlink:title="EventDispUI::NextEvent">
<polygon fill="none" stroke="black" points="480.5,-240.5 480.5,-259.5 597.5,-259.5 597.5,-240.5 480.5,-240.5"/>
<text text-anchor="middle" x="539" y="-247.5" font-family="FreeSans" font-size="10.00">EventDispUI::NextEvent</text>
</a>
</g>
</g>
<!-- Node3&#45;&gt;Node42 -->
<g id="edge42" class="edge"><title>Node3&#45;&gt;Node42</title>
<path fill="none" stroke="midnightblue" d="M431.87,-747.484C433.369,-746.114 434.755,-744.622 436,-743 500.314,-659.198 405.318,-350.931 472,-269 475.086,-265.208 478.876,-262.144 483.066,-259.671"/>
<polygon fill="midnightblue" stroke="midnightblue" points="429.697,-744.735 423.575,-753.382 433.753,-750.44 429.697,-744.735"/>
</g>
<!-- Node43 -->
<g id="node43" class="node"><title>Node43</title>
<g id="a_node43"><a xlink:href="../../d6/deb/PHGeom__DSTInspection_8C.html#a8a06a40e2950cd31dda512c040049cd0" target="_top" xlink:title="PHGeom_DSTInspection">
<polygon fill="none" stroke="black" points="476.5,-202.5 476.5,-221.5 601.5,-221.5 601.5,-202.5 476.5,-202.5"/>
<text text-anchor="middle" x="539" y="-209.5" font-family="FreeSans" font-size="10.00">PHGeom_DSTInspection</text>
</a>
</g>
</g>
<!-- Node3&#45;&gt;Node43 -->
<g id="edge43" class="edge"><title>Node3&#45;&gt;Node43</title>
<path fill="none" stroke="midnightblue" d="M431.882,-747.493C433.377,-746.12 434.76,-744.626 436,-743 505.187,-652.322 400.25,-319.664 472,-231 475.075,-227.2 478.858,-224.129 483.044,-221.653"/>
<polygon fill="midnightblue" stroke="midnightblue" points="429.709,-744.744 423.598,-753.4 433.772,-750.444 429.709,-744.744"/>
</g>
<!-- Node44 -->
<g id="node44" class="node"><title>Node44</title>
<g id="a_node44"><a xlink:href="../../d8/d6d/classEventDispUI.html#ae9dafaeb3aef27cf0a38037faf17562d" target="_top" xlink:title="EventDispUI::PrevEvent">
<polygon fill="none" stroke="black" points="480.5,-164.5 480.5,-183.5 597.5,-183.5 597.5,-164.5 480.5,-164.5"/>
<text text-anchor="middle" x="539" y="-171.5" font-family="FreeSans" font-size="10.00">EventDispUI::PrevEvent</text>
</a>
</g>
</g>
<!-- Node3&#45;&gt;Node44 -->
<g id="edge44" class="edge"><title>Node3&#45;&gt;Node44</title>
<path fill="none" stroke="midnightblue" d="M431.892,-747.501C433.385,-746.126 434.763,-744.629 436,-743 510.062,-645.445 395.18,-288.399 472,-193 475.066,-189.192 478.843,-186.117 483.024,-183.637"/>
<polygon fill="midnightblue" stroke="midnightblue" points="429.718,-744.752 423.618,-753.415 433.789,-750.447 429.718,-744.752"/>
</g>
<!-- Node45 -->
<g id="node45" class="node"><title>Node45</title>
<g id="a_node45"><a xlink:href="../../d1/dce/classPHEventDisplay.html#adbfbc3b91e5fae081419271b60e74452" target="_top" xlink:title="PHEventDisplay::reco\l_thread">
<polygon fill="none" stroke="black" points="485,-115 485,-145 593,-145 593,-115 485,-115"/>
<text text-anchor="start" x="493" y="-133" font-family="FreeSans" font-size="10.00">PHEventDisplay::reco</text>
<text text-anchor="middle" x="539" y="-122" font-family="FreeSans" font-size="10.00">_thread</text>
</a>
</g>
</g>
<!-- Node3&#45;&gt;Node45 -->
<g id="edge45" class="edge"><title>Node3&#45;&gt;Node45</title>
<path fill="none" stroke="midnightblue" d="M431.901,-747.507C433.391,-746.13 434.767,-744.631 436,-743 514.938,-638.566 394.354,-260.399 472,-155 475.488,-150.265 479.989,-146.426 484.999,-143.315"/>
<polygon fill="midnightblue" stroke="midnightblue" points="429.727,-744.759 423.636,-753.428 433.803,-750.45 429.727,-744.759"/>
</g>
<!-- Node46 -->
<g id="node46" class="node"><title>Node46</title>
<g id="a_node46"><a xlink:href="../../db/dea/RecoE1039Data_8C.html#a619388c470b52b98a611cb6f18ba24c1" target="_top" xlink:title="RecoE1039Data">
<polygon fill="none" stroke="black" points="496,-76.5 496,-95.5 582,-95.5 582,-76.5 496,-76.5"/>
<text text-anchor="middle" x="539" y="-83.5" font-family="FreeSans" font-size="10.00">RecoE1039Data</text>
</a>
</g>
</g>
<!-- Node3&#45;&gt;Node46 -->
<g id="edge46" class="edge"><title>Node3&#45;&gt;Node46</title>
<path fill="none" stroke="midnightblue" d="M431.911,-747.515C433.398,-746.136 434.771,-744.634 436,-743 521.356,-629.513 383.437,-216.002 472,-105 477.949,-97.5435 486.625,-92.8919 495.743,-90.0202"/>
<polygon fill="midnightblue" stroke="midnightblue" points="429.737,-744.767 423.655,-753.443 433.82,-750.453 429.737,-744.767"/>
</g>
<!-- Node47 -->
<g id="node47" class="node"><title>Node47</title>
<g id="a_node47"><a xlink:href="../../d0/d9c/RecoE1039Sim_8C.html#a07edfd7b51752cb53ea50911050a8511" target="_top" xlink:title="RecoE1039Sim">
<polygon fill="none" stroke="black" points="497.5,-38.5 497.5,-57.5 580.5,-57.5 580.5,-38.5 497.5,-38.5"/>
<text text-anchor="middle" x="539" y="-45.5" font-family="FreeSans" font-size="10.00">RecoE1039Sim</text>
</a>
</g>
</g>
<!-- Node3&#45;&gt;Node47 -->
<g id="edge47" class="edge"><title>Node3&#45;&gt;Node47</title>
<path fill="none" stroke="midnightblue" d="M431.918,-747.52C433.403,-746.139 434.773,-744.636 436,-743 526.234,-622.631 378.364,-184.741 472,-67 478.308,-59.0675 487.704,-54.3081 497.441,-51.489"/>
<polygon fill="midnightblue" stroke="midnightblue" points="429.743,-744.773 423.669,-753.453 433.831,-750.455 429.743,-744.773"/>
</g>
<!-- Node48 -->
<g id="node48" class="node"><title>Node48</title>
<g id="a_node48"><a xlink:href="../../df/d0c/RecoE906Data_8C.html#ad032525ca693000ba382d14d82bf9f2b" target="_top" xlink:title="RecoE906Data">
<polygon fill="none" stroke="black" points="498.5,-0.5 498.5,-19.5 579.5,-19.5 579.5,-0.5 498.5,-0.5"/>
<text text-anchor="middle" x="539" y="-7.5" font-family="FreeSans" font-size="10.00">RecoE906Data</text>
</a>
</g>
</g>
<!-- Node3&#45;&gt;Node48 -->
<g id="edge48" class="edge"><title>Node3&#45;&gt;Node48</title>
<path fill="none" stroke="midnightblue" d="M431.923,-747.524C433.407,-746.143 434.776,-744.638 436,-743 531.112,-615.749 373.291,-153.481 472,-29 478.52,-20.7783 488.356,-15.9639 498.458,-13.1858"/>
<polygon fill="midnightblue" stroke="midnightblue" points="429.749,-744.777 423.68,-753.462 433.84,-750.457 429.749,-744.777"/>
</g>
<!-- Node15 -->
<g id="node15" class="node"><title>Node15</title>
<g id="a_node15"><a xlink:href="../../de/d2a/eve__disp__db_8C.html#aa8b45dd9cf940c8aff427aed5d9db19f" target="_top" xlink:title="eve_disp_db">
<polygon fill="none" stroke="black" points="676,-1114.5 676,-1133.5 746,-1133.5 746,-1114.5 676,-1114.5"/>
<text text-anchor="middle" x="711" y="-1121.5" font-family="FreeSans" font-size="10.00">eve_disp_db</text>
</a>
</g>
</g>
<!-- Node14&#45;&gt;Node15 -->
<g id="edge14" class="edge"><title>Node14&#45;&gt;Node15</title>
<path fill="none" stroke="midnightblue" d="M575.338,-1124C604.799,-1124 646.52,-1124 675.691,-1124"/>
<polygon fill="midnightblue" stroke="midnightblue" points="575.084,-1120.5 565.084,-1124 575.084,-1127.5 575.084,-1120.5"/>
</g>
<!-- Node30 -->
<g id="node30" class="node"><title>Node30</title>
<g id="a_node30"><a xlink:href="../../d2/d96/eve__disp_8C.html#abeb034dea489ef1866373d2464ec5721" target="_top" xlink:title="eve_disp">
<polygon fill="none" stroke="black" points="684,-582.5 684,-601.5 738,-601.5 738,-582.5 684,-582.5"/>
<text text-anchor="middle" x="711" y="-589.5" font-family="FreeSans" font-size="10.00">eve_disp</text>
</a>
</g>
</g>
<!-- Node29&#45;&gt;Node30 -->
<g id="edge29" class="edge"><title>Node29&#45;&gt;Node30</title>
<path fill="none" stroke="midnightblue" d="M577.693,-592C609.934,-592 655.501,-592 683.871,-592"/>
<polygon fill="midnightblue" stroke="midnightblue" points="577.313,-588.5 567.313,-592 577.313,-595.5 577.313,-588.5"/>
</g>
<!-- Node38 -->
<g id="node38" class="node"><title>Node38</title>
<g id="a_node38"><a xlink:href="../../d8/d6d/classEventDispUI.html#a981ae05d65de438d952e0de96e5c5668" target="_top" xlink:title="EventDispUI::ExecNewEvent\lCheck">
<polygon fill="none" stroke="black" points="642.5,-333 642.5,-363 779.5,-363 779.5,-333 642.5,-333"/>
<text text-anchor="start" x="650.5" y="-351" font-family="FreeSans" font-size="10.00">EventDispUI::ExecNewEvent</text>
<text text-anchor="middle" x="711" y="-340" font-family="FreeSans" font-size="10.00">Check</text>
</a>
</g>
</g>
<!-- Node37&#45;&gt;Node38 -->
<g id="edge37" class="edge"><title>Node37&#45;&gt;Node38</title>
<path fill="none" stroke="midnightblue" d="M610.083,-335.07C620.796,-336.456 631.835,-337.885 642.491,-339.264"/>
<polygon fill="midnightblue" stroke="midnightblue" points="610.302,-331.569 599.936,-333.756 609.404,-338.511 610.302,-331.569"/>
</g>
<!-- Node40 -->
<g id="node40" class="node"><title>Node40</title>
<g id="a_node40"><a xlink:href="../../d8/d6d/classEventDispUI.html#a7f8c09eb13c68412e90040c07ce9ee84" target="_top" xlink:title="EventDispUI::Run">
<polygon fill="none" stroke="red" points="990.5,-316.5 990.5,-335.5 1081.5,-335.5 1081.5,-316.5 990.5,-316.5"/>
<text text-anchor="middle" x="1036" y="-323.5" font-family="FreeSans" font-size="10.00">EventDispUI::Run</text>
</a>
</g>
</g>
<!-- Node37&#45;&gt;Node40 -->
<g id="edge40" class="edge"><title>Node37&#45;&gt;Node40</title>
<path fill="none" stroke="midnightblue" d="M609.825,-323.674C620.598,-323.394 631.596,-323.153 642,-323 780.652,-320.961 815.357,-320.433 954,-323 965.819,-323.219 978.602,-323.617 990.445,-324.053"/>
<polygon fill="midnightblue" stroke="midnightblue" points="609.493,-320.181 599.592,-323.953 609.684,-327.179 609.493,-320.181"/>
</g>
<!-- Node39 -->
<g id="node39" class="node"><title>Node39</title>
<g id="a_node39"><a xlink:href="../../d8/d6d/classEventDispUI.html#a134e46147eb8dd92bf6557a609984a00" target="_top" xlink:title="EventDispUI::FuncNewEvent\lCheck">
<polygon fill="none" stroke="black" points="816,-333 816,-363 954,-363 954,-333 816,-333"/>
<text text-anchor="start" x="824" y="-351" font-family="FreeSans" font-size="10.00">EventDispUI::FuncNewEvent</text>
<text text-anchor="middle" x="885" y="-340" font-family="FreeSans" font-size="10.00">Check</text>
</a>
</g>
</g>
<!-- Node38&#45;&gt;Node39 -->
<g id="edge38" class="edge"><title>Node38&#45;&gt;Node39</title>
<path fill="none" stroke="midnightblue" d="M790.054,-348C798.696,-348 807.446,-348 815.952,-348"/>
<polygon fill="midnightblue" stroke="midnightblue" points="789.979,-344.5 779.979,-348 789.979,-351.5 789.979,-344.5"/>
</g>
<!-- Node39&#45;&gt;Node40 -->
<g id="edge39" class="edge"><title>Node39&#45;&gt;Node40</title>
<path fill="none" stroke="midnightblue" d="M964.458,-336.416C973.367,-335.1 982.2,-333.796 990.446,-332.578"/>
<polygon fill="midnightblue" stroke="midnightblue" points="963.776,-332.978 954.395,-337.901 964.799,-339.903 963.776,-332.978"/>
</g>
<!-- Node50 -->
<g id="node50" class="node"><title>Node50</title>
<g id="a_node50"><a xlink:href="../../da/d29/classFun4AllServer.html#a94738b092fa009fcea45737d8ea41224" target="_top" xlink:title="Fun4AllServer::process\l_event">
<polygon fill="none" stroke="black" points="320.5,-704 320.5,-734 435.5,-734 435.5,-704 320.5,-704"/>
<text text-anchor="start" x="328.5" y="-722" font-family="FreeSans" font-size="10.00">Fun4AllServer::process</text>
<text text-anchor="middle" x="378" y="-711" font-family="FreeSans" font-size="10.00">_event</text>
</a>
</g>
</g>
<!-- Node49&#45;&gt;Node50 -->
<g id="edge50" class="edge"><title>Node49&#45;&gt;Node50</title>
<path fill="none" stroke="midnightblue" d="M289.935,-719C300.068,-719 310.439,-719 320.328,-719"/>
<polygon fill="midnightblue" stroke="midnightblue" points="289.906,-715.5 279.906,-719 289.906,-722.5 289.906,-715.5"/>
</g>
<!-- Node49&#45;&gt;Node3 -->
<g id="edge51" class="edge"><title>Node49&#45;&gt;Node3</title>
<path fill="none" stroke="midnightblue" d="M285.211,-736.774C305.129,-742.465 326.419,-748.548 343.476,-753.422"/>
<polygon fill="midnightblue" stroke="midnightblue" points="286.144,-733.401 275.567,-734.019 284.221,-740.132 286.144,-733.401"/>
</g>
</g>
</svg>
