<?xml version="1.0" encoding="UTF-8" standalone="no"?>
<!DOCTYPE svg PUBLIC "-//W3C//DTD SVG 1.1//EN"
 "http://www.w3.org/Graphics/SVG/1.1/DTD/svg11.dtd">
<!-- Generated by graphviz version 2.36.0 (20140111.2315)
 -->
<!-- Title: /home/yuhw/GitHub/SeaQuest/seaquest&#45;offline/packages/ktracker/TriggerAnalyzer.h Pages: 1 -->
<svg width="1702pt" height="206pt"
 viewBox="0.00 0.00 1702.00 206.00" xmlns="http://www.w3.org/2000/svg" xmlns:xlink="http://www.w3.org/1999/xlink">
<g id="graph0" class="graph" transform="scale(1 1) rotate(0) translate(4 202)">
<title>/home/yuhw/GitHub/SeaQuest/seaquest&#45;offline/packages/ktracker/TriggerAnalyzer.h</title>
<!-- Node1 -->
<g id="node1" class="node"><title>Node1</title>
<polygon fill="#bfbfbf" stroke="black" points="453.5,-156.5 453.5,-197.5 602.5,-197.5 602.5,-156.5 453.5,-156.5"/>
<text text-anchor="start" x="461.5" y="-185.5" font-family="FreeSans" font-size="10.00">/home/yuhw/GitHub/SeaQuest</text>
<text text-anchor="start" x="461.5" y="-174.5" font-family="FreeSans" font-size="10.00">/seaquest&#45;offline/packages</text>
<text text-anchor="middle" x="528" y="-163.5" font-family="FreeSans" font-size="10.00">/ktracker/TriggerAnalyzer.h</text>
</g>
<!-- Node2 -->
<g id="node2" class="node"><title>Node2</title>
<g id="a_node2"><a xlink:href="../../db/d92/update_8cxx.html" target="_top" xlink:title="/home/yuhw/GitHub/SeaQuest\l/seaquest&#45;ktracker/alignment\l/tools/update.cxx">
<polygon fill="none" stroke="black" points="-0.5,-78.5 -0.5,-119.5 148.5,-119.5 148.5,-78.5 -0.5,-78.5"/>
<text text-anchor="start" x="7.5" y="-107.5" font-family="FreeSans" font-size="10.00">/home/yuhw/GitHub/SeaQuest</text>
<text text-anchor="start" x="7.5" y="-96.5" font-family="FreeSans" font-size="10.00">/seaquest&#45;ktracker/alignment</text>
<text text-anchor="middle" x="74" y="-85.5" font-family="FreeSans" font-size="10.00">/tools/update.cxx</text>
</a>
</g>
</g>
<!-- Node1&#45;&gt;Node2 -->
<g id="edge1" class="edge"><title>Node1&#45;&gt;Node2</title>
<path fill="none" stroke="midnightblue" d="M443.184,-164.779C368.815,-154.521 257.902,-138.21 162,-120 157.69,-119.182 153.27,-118.303 148.816,-117.387"/>
<polygon fill="midnightblue" stroke="midnightblue" points="443.046,-168.293 453.429,-166.185 443.998,-161.358 443.046,-168.293"/>
</g>
<!-- Node3 -->
<g id="node3" class="node"><title>Node3</title>
<g id="a_node3"><a xlink:href="../../da/dbb/eventMixer_8cxx.html" target="_top" xlink:title="/home/yuhw/GitHub/SeaQuest\l/seaquest&#45;ktracker/analysis\l_tools/eventMixer.cxx">
<polygon fill="none" stroke="black" points="166.5,-0.5 166.5,-41.5 315.5,-41.5 315.5,-0.5 166.5,-0.5"/>
<text text-anchor="start" x="174.5" y="-29.5" font-family="FreeSans" font-size="10.00">/home/yuhw/GitHub/SeaQuest</text>
<text text-anchor="start" x="174.5" y="-18.5" font-family="FreeSans" font-size="10.00">/seaquest&#45;ktracker/analysis</text>
<text text-anchor="middle" x="241" y="-7.5" font-family="FreeSans" font-size="10.00">_tools/eventMixer.cxx</text>
</a>
</g>
</g>
<!-- Node1&#45;&gt;Node3 -->
<g id="edge2" class="edge"><title>Node1&#45;&gt;Node3</title>
<path fill="none" stroke="midnightblue" d="M443.489,-173.849C355.241,-169.608 225.361,-157.057 194,-120 174.009,-96.378 198.92,-62.8025 219.407,-41.7208"/>
<polygon fill="midnightblue" stroke="midnightblue" points="443.351,-177.346 453.499,-174.303 443.668,-170.353 443.351,-177.346"/>
</g>
<!-- Node4 -->
<g id="node4" class="node"><title>Node4</title>
<g id="a_node4"><a xlink:href="../../d3/d15/hodoTracking_8cxx.html" target="_top" xlink:title="/home/yuhw/GitHub/SeaQuest\l/seaquest&#45;ktracker/analysis\l_tools/hodoTracking.cxx">
<polygon fill="none" stroke="black" points="203.5,-78.5 203.5,-119.5 352.5,-119.5 352.5,-78.5 203.5,-78.5"/>
<text text-anchor="start" x="211.5" y="-107.5" font-family="FreeSans" font-size="10.00">/home/yuhw/GitHub/SeaQuest</text>
<text text-anchor="start" x="211.5" y="-96.5" font-family="FreeSans" font-size="10.00">/seaquest&#45;ktracker/analysis</text>
<text text-anchor="middle" x="278" y="-85.5" font-family="FreeSans" font-size="10.00">_tools/hodoTracking.cxx</text>
</a>
</g>
</g>
<!-- Node1&#45;&gt;Node4 -->
<g id="edge3" class="edge"><title>Node1&#45;&gt;Node4</title>
<path fill="none" stroke="midnightblue" d="M453.797,-153.442C418.313,-142.655 376.247,-129.867 342.163,-119.506"/>
<polygon fill="midnightblue" stroke="midnightblue" points="453.033,-156.868 463.619,-156.428 455.069,-150.171 453.033,-156.868"/>
</g>
<!-- Node5 -->
<g id="node5" class="node"><title>Node5</title>
<g id="a_node5"><a xlink:href="../../db/dee/triggerAna_8cxx.html" target="_top" xlink:title="/home/yuhw/GitHub/SeaQuest\l/seaquest&#45;ktracker/analysis\l_tools/triggerAna.cxx">
<polygon fill="none" stroke="black" points="370.5,-78.5 370.5,-119.5 519.5,-119.5 519.5,-78.5 370.5,-78.5"/>
<text text-anchor="start" x="378.5" y="-107.5" font-family="FreeSans" font-size="10.00">/home/yuhw/GitHub/SeaQuest</text>
<text text-anchor="start" x="378.5" y="-96.5" font-family="FreeSans" font-size="10.00">/seaquest&#45;ktracker/analysis</text>
<text text-anchor="middle" x="445" y="-85.5" font-family="FreeSans" font-size="10.00">_tools/triggerAna.cxx</text>
</a>
</g>
</g>
<!-- Node1&#45;&gt;Node5 -->
<g id="edge4" class="edge"><title>Node1&#45;&gt;Node5</title>
<path fill="none" stroke="midnightblue" d="M499.05,-149.492C488.28,-139.629 476.264,-128.627 466.302,-119.506"/>
<polygon fill="midnightblue" stroke="midnightblue" points="496.887,-152.256 506.625,-156.428 501.614,-147.094 496.887,-152.256"/>
</g>
<!-- Node6 -->
<g id="node6" class="node"><title>Node6</title>
<g id="a_node6"><a xlink:href="../../dd/d4d/triggerAna__online_8cxx.html" target="_top" xlink:title="/home/yuhw/GitHub/SeaQuest\l/seaquest&#45;ktracker/analysis\l_tools/triggerAna_online.cxx">
<polygon fill="none" stroke="black" points="537.5,-78.5 537.5,-119.5 686.5,-119.5 686.5,-78.5 537.5,-78.5"/>
<text text-anchor="start" x="545.5" y="-107.5" font-family="FreeSans" font-size="10.00">/home/yuhw/GitHub/SeaQuest</text>
<text text-anchor="start" x="545.5" y="-96.5" font-family="FreeSans" font-size="10.00">/seaquest&#45;ktracker/analysis</text>
<text text-anchor="middle" x="612" y="-85.5" font-family="FreeSans" font-size="10.00">_tools/triggerAna_online.cxx</text>
</a>
</g>
</g>
<!-- Node1&#45;&gt;Node6 -->
<g id="edge5" class="edge"><title>Node1&#45;&gt;Node6</title>
<path fill="none" stroke="midnightblue" d="M557.299,-149.492C568.199,-139.629 580.359,-128.627 590.441,-119.506"/>
<polygon fill="midnightblue" stroke="midnightblue" points="554.699,-147.124 549.632,-156.428 559.396,-152.314 554.699,-147.124"/>
</g>
<!-- Node7 -->
<g id="node7" class="node"><title>Node7</title>
<g id="a_node7"><a xlink:href="../../d2/dfb/seaquest-ktracker_2src_2TriggerAnalyzer_8cxx.html" target="_top" xlink:title="/home/yuhw/GitHub/SeaQuest\l/seaquest&#45;ktracker/src/TriggerAnalyzer.cxx">
<polygon fill="none" stroke="black" points="705,-84 705,-114 905,-114 905,-84 705,-84"/>
<text text-anchor="start" x="713" y="-102" font-family="FreeSans" font-size="10.00">/home/yuhw/GitHub/SeaQuest</text>
<text text-anchor="middle" x="805" y="-91" font-family="FreeSans" font-size="10.00">/seaquest&#45;ktracker/src/TriggerAnalyzer.cxx</text>
</a>
</g>
</g>
<!-- Node1&#45;&gt;Node7 -->
<g id="edge6" class="edge"><title>Node1&#45;&gt;Node7</title>
<path fill="none" stroke="midnightblue" d="M609.127,-153.741C655.814,-140.932 713.066,-125.224 753.586,-114.106"/>
<polygon fill="midnightblue" stroke="midnightblue" points="608.052,-150.407 599.334,-156.428 609.904,-157.157 608.052,-150.407"/>
</g>
<!-- Node8 -->
<g id="node8" class="node"><title>Node8</title>
<g id="a_node8"><a xlink:href="../../dc/d13/seaquest-offline_2packages_2ktracker_2EventReducer_8h.html" target="_top" xlink:title="/home/yuhw/GitHub/SeaQuest\l/seaquest&#45;offline/packages\l/ktracker/EventReducer.h">
<polygon fill="none" stroke="black" points="923.5,-78.5 923.5,-119.5 1072.5,-119.5 1072.5,-78.5 923.5,-78.5"/>
<text text-anchor="start" x="931.5" y="-107.5" font-family="FreeSans" font-size="10.00">/home/yuhw/GitHub/SeaQuest</text>
<text text-anchor="start" x="931.5" y="-96.5" font-family="FreeSans" font-size="10.00">/seaquest&#45;offline/packages</text>
<text text-anchor="middle" x="998" y="-85.5" font-family="FreeSans" font-size="10.00">/ktracker/EventReducer.h</text>
</a>
</g>
</g>
<!-- Node1&#45;&gt;Node8 -->
<g id="edge7" class="edge"><title>Node1&#45;&gt;Node8</title>
<path fill="none" stroke="midnightblue" d="M613.003,-165.894C691.459,-156.039 811.041,-139.684 914,-120 917.092,-119.409 920.242,-118.78 923.42,-118.124"/>
<polygon fill="midnightblue" stroke="midnightblue" points="612.179,-162.469 602.69,-167.181 613.046,-169.415 612.179,-162.469"/>
</g>
<!-- Node16 -->
<g id="node16" class="node"><title>Node16</title>
<g id="a_node16"><a xlink:href="../../d1/d87/seaquest-offline_2packages_2ktracker_2TriggerAnalyzer_8cxx.html" target="_top" xlink:title="/home/yuhw/GitHub/SeaQuest\l/seaquest&#45;offline/packages\l/ktracker/TriggerAnalyzer.cxx">
<polygon fill="none" stroke="black" points="1090.5,-78.5 1090.5,-119.5 1239.5,-119.5 1239.5,-78.5 1090.5,-78.5"/>
<text text-anchor="start" x="1098.5" y="-107.5" font-family="FreeSans" font-size="10.00">/home/yuhw/GitHub/SeaQuest</text>
<text text-anchor="start" x="1098.5" y="-96.5" font-family="FreeSans" font-size="10.00">/seaquest&#45;offline/packages</text>
<text text-anchor="middle" x="1165" y="-85.5" font-family="FreeSans" font-size="10.00">/ktracker/TriggerAnalyzer.cxx</text>
</a>
</g>
</g>
<!-- Node1&#45;&gt;Node16 -->
<g id="edge16" class="edge"><title>Node1&#45;&gt;Node16</title>
<path fill="none" stroke="midnightblue" d="M612.934,-170.916C721.893,-163.589 916.465,-147.792 1081,-120 1084.1,-119.476 1087.26,-118.903 1090.45,-118.293"/>
<polygon fill="midnightblue" stroke="midnightblue" points="612.407,-167.443 602.661,-171.598 612.871,-174.427 612.407,-167.443"/>
</g>
<!-- Node8&#45;&gt;Node3 -->
<g id="edge10" class="edge"><title>Node8&#45;&gt;Node3</title>
<path fill="none" stroke="midnightblue" d="M913.353,-78.0526C681.019,-43.4326 618.385,-65.3381 389,-42 365.14,-39.5724 339.2,-36.288 315.798,-33.0828"/>
<polygon fill="midnightblue" stroke="midnightblue" points="913.06,-81.5479 923.471,-79.5796 914.105,-74.6263 913.06,-81.5479"/>
</g>
<!-- Node9 -->
<g id="node9" class="node"><title>Node9</title>
<g id="a_node9"><a xlink:href="../../d7/d70/alignment_2tools_2hodoAlign_8cxx.html" target="_top" xlink:title="/home/yuhw/GitHub/SeaQuest\l/seaquest&#45;ktracker/alignment\l/tools/hodoAlign.cxx">
<polygon fill="none" stroke="black" points="398.5,-0.5 398.5,-41.5 547.5,-41.5 547.5,-0.5 398.5,-0.5"/>
<text text-anchor="start" x="406.5" y="-29.5" font-family="FreeSans" font-size="10.00">/home/yuhw/GitHub/SeaQuest</text>
<text text-anchor="start" x="406.5" y="-18.5" font-family="FreeSans" font-size="10.00">/seaquest&#45;ktracker/alignment</text>
<text text-anchor="middle" x="473" y="-7.5" font-family="FreeSans" font-size="10.00">/tools/hodoAlign.cxx</text>
</a>
</g>
</g>
<!-- Node8&#45;&gt;Node9 -->
<g id="edge8" class="edge"><title>Node8&#45;&gt;Node9</title>
<path fill="none" stroke="midnightblue" d="M913.323,-78.0212C754.513,-52.1151 710.42,-68.2433 556,-42 553.224,-41.5282 550.402,-41.0162 547.558,-40.4726"/>
<polygon fill="midnightblue" stroke="midnightblue" points="913.012,-81.5175 923.451,-79.7044 914.16,-74.6122 913.012,-81.5175"/>
</g>
<!-- Node10 -->
<g id="node10" class="node"><title>Node10</title>
<g id="a_node10"><a xlink:href="../../d5/d3a/alignment_2tools_2propAlign_8cxx.html" target="_top" xlink:title="/home/yuhw/GitHub/SeaQuest\l/seaquest&#45;ktracker/alignment\l/tools/propAlign.cxx">
<polygon fill="none" stroke="black" points="565.5,-0.5 565.5,-41.5 714.5,-41.5 714.5,-0.5 565.5,-0.5"/>
<text text-anchor="start" x="573.5" y="-29.5" font-family="FreeSans" font-size="10.00">/home/yuhw/GitHub/SeaQuest</text>
<text text-anchor="start" x="573.5" y="-18.5" font-family="FreeSans" font-size="10.00">/seaquest&#45;ktracker/alignment</text>
<text text-anchor="middle" x="640" y="-7.5" font-family="FreeSans" font-size="10.00">/tools/propAlign.cxx</text>
</a>
</g>
</g>
<!-- Node8&#45;&gt;Node10 -->
<g id="edge9" class="edge"><title>Node8&#45;&gt;Node10</title>
<path fill="none" stroke="midnightblue" d="M913.486,-77.9447C827.839,-59.9766 804.409,-59.4689 723,-42 720.246,-41.4091 717.444,-40.7958 714.616,-40.1666"/>
<polygon fill="midnightblue" stroke="midnightblue" points="912.878,-81.3936 923.387,-80.0408 914.328,-74.5454 912.878,-81.3936"/>
</g>
<!-- Node11 -->
<g id="node11" class="node"><title>Node11</title>
<g id="a_node11"><a xlink:href="../../d7/de7/hodoEfficiency_8cxx.html" target="_top" xlink:title="/home/yuhw/GitHub/SeaQuest\l/seaquest&#45;ktracker/analysis\l_tools/hodoEfficiency.cxx">
<polygon fill="none" stroke="black" points="732.5,-0.5 732.5,-41.5 881.5,-41.5 881.5,-0.5 732.5,-0.5"/>
<text text-anchor="start" x="740.5" y="-29.5" font-family="FreeSans" font-size="10.00">/home/yuhw/GitHub/SeaQuest</text>
<text text-anchor="start" x="740.5" y="-18.5" font-family="FreeSans" font-size="10.00">/seaquest&#45;ktracker/analysis</text>
<text text-anchor="middle" x="807" y="-7.5" font-family="FreeSans" font-size="10.00">_tools/hodoEfficiency.cxx</text>
</a>
</g>
</g>
<!-- Node8&#45;&gt;Node11 -->
<g id="edge11" class="edge"><title>Node8&#45;&gt;Node11</title>
<path fill="none" stroke="midnightblue" d="M939.214,-74.6086C912.555,-64.0008 881.393,-51.6015 856.021,-41.5056"/>
<polygon fill="midnightblue" stroke="midnightblue" points="938.227,-77.9829 948.813,-78.4281 940.815,-71.4789 938.227,-77.9829"/>
</g>
<!-- Node12 -->
<g id="node12" class="node"><title>Node12</title>
<g id="a_node12"><a xlink:href="../../d9/da4/kFastTracking_8cxx.html" target="_top" xlink:title="/home/yuhw/GitHub/SeaQuest\l/seaquest&#45;ktracker/exe/kFastTracking.cxx">
<polygon fill="none" stroke="black" points="899.5,-6 899.5,-36 1096.5,-36 1096.5,-6 899.5,-6"/>
<text text-anchor="start" x="907.5" y="-24" font-family="FreeSans" font-size="10.00">/home/yuhw/GitHub/SeaQuest</text>
<text text-anchor="middle" x="998" y="-13" font-family="FreeSans" font-size="10.00">/seaquest&#45;ktracker/exe/kFastTracking.cxx</text>
</a>
</g>
</g>
<!-- Node8&#45;&gt;Node12 -->
<g id="edge12" class="edge"><title>Node8&#45;&gt;Node12</title>
<path fill="none" stroke="midnightblue" d="M998,-68.2829C998,-57.2536 998,-45.2457 998,-36.2254"/>
<polygon fill="midnightblue" stroke="midnightblue" points="994.5,-68.4281 998,-78.4281 1001.5,-68.4281 994.5,-68.4281"/>
</g>
<!-- Node13 -->
<g id="node13" class="node"><title>Node13</title>
<g id="a_node13"><a xlink:href="../../d9/d77/seaquest-ktracker_2src_2EventReducer_8cxx.html" target="_top" xlink:title="/home/yuhw/GitHub/SeaQuest\l/seaquest&#45;ktracker/src/EventReducer.cxx">
<polygon fill="none" stroke="black" points="1115,-6 1115,-36 1309,-36 1309,-6 1115,-6"/>
<text text-anchor="start" x="1123" y="-24" font-family="FreeSans" font-size="10.00">/home/yuhw/GitHub/SeaQuest</text>
<text text-anchor="middle" x="1212" y="-13" font-family="FreeSans" font-size="10.00">/seaquest&#45;ktracker/src/EventReducer.cxx</text>
</a>
</g>
</g>
<!-- Node8&#45;&gt;Node13 -->
<g id="edge13" class="edge"><title>Node8&#45;&gt;Node13</title>
<path fill="none" stroke="midnightblue" d="M1062.95,-74.9337C1098.59,-62.2767 1141.63,-46.9911 1172.28,-36.1065"/>
<polygon fill="midnightblue" stroke="midnightblue" points="1061.36,-71.7832 1053.11,-78.4281 1063.71,-78.3796 1061.36,-71.7832"/>
</g>
<!-- Node14 -->
<g id="node14" class="node"><title>Node14</title>
<g id="a_node14"><a xlink:href="../../d6/de3/seaquest-offline_2packages_2ktracker_2EventReducer_8cxx.html" target="_top" xlink:title="/home/yuhw/GitHub/SeaQuest\l/seaquest&#45;offline/packages\l/ktracker/EventReducer.cxx">
<polygon fill="none" stroke="black" points="1326.5,-0.5 1326.5,-41.5 1475.5,-41.5 1475.5,-0.5 1326.5,-0.5"/>
<text text-anchor="start" x="1334.5" y="-29.5" font-family="FreeSans" font-size="10.00">/home/yuhw/GitHub/SeaQuest</text>
<text text-anchor="start" x="1334.5" y="-18.5" font-family="FreeSans" font-size="10.00">/seaquest&#45;offline/packages</text>
<text text-anchor="middle" x="1401" y="-7.5" font-family="FreeSans" font-size="10.00">/ktracker/EventReducer.cxx</text>
</a>
</g>
</g>
<!-- Node8&#45;&gt;Node14 -->
<g id="edge14" class="edge"><title>Node8&#45;&gt;Node14</title>
<path fill="none" stroke="midnightblue" d="M1082.63,-77.9664C1187.44,-57.9965 1216.44,-61.6406 1317,-42 1320.09,-41.3966 1323.24,-40.7575 1326.41,-40.0928"/>
<polygon fill="midnightblue" stroke="midnightblue" points="1081.74,-74.5733 1072.59,-79.9072 1083.07,-81.4461 1081.74,-74.5733"/>
</g>
<!-- Node15 -->
<g id="node15" class="node"><title>Node15</title>
<g id="a_node15"><a xlink:href="../../d8/d66/KalmanFastTrackingWrapper_8cxx.html" target="_top" xlink:title="/home/yuhw/GitHub/SeaQuest\l/seaquest&#45;offline/packages\l/ktracker/KalmanFastTrackingWrapper.cxx">
<polygon fill="none" stroke="black" points="1494,-0.5 1494,-41.5 1694,-41.5 1694,-0.5 1494,-0.5"/>
<text text-anchor="start" x="1502" y="-29.5" font-family="FreeSans" font-size="10.00">/home/yuhw/GitHub/SeaQuest</text>
<text text-anchor="start" x="1502" y="-18.5" font-family="FreeSans" font-size="10.00">/seaquest&#45;offline/packages</text>
<text text-anchor="middle" x="1594" y="-7.5" font-family="FreeSans" font-size="10.00">/ktracker/KalmanFastTrackingWrapper.cxx</text>
</a>
</g>
</g>
<!-- Node8&#45;&gt;Node15 -->
<g id="edge15" class="edge"><title>Node8&#45;&gt;Node15</title>
<path fill="none" stroke="midnightblue" d="M1082.52,-78.0538C1260.79,-49.7485 1309.45,-65.6342 1484,-42 1487.27,-41.5572 1490.59,-41.0851 1493.94,-40.5894"/>
<polygon fill="midnightblue" stroke="midnightblue" points="1081.86,-74.6147 1072.54,-79.6616 1082.97,-81.5254 1081.86,-74.6147"/>
</g>
</g>
</svg>
