<?xml version="1.0" encoding="UTF-8" standalone="no"?>
<!DOCTYPE svg PUBLIC "-//W3C//DTD SVG 1.1//EN"
 "http://www.w3.org/Graphics/SVG/1.1/DTD/svg11.dtd">
<!-- Generated by graphviz version 2.44.0 (0)
 -->
<!-- Title: /dev/shm/kenichi/update&#45;github&#45;e1039&#45;doc/e1039&#45;core/simulation/g4gdml/PHG4GDMLWriteDefine.hh Pages: 1 -->
<svg width="1113pt" height="240pt"
 viewBox="0.00 0.00 1112.50 240.00" xmlns="http://www.w3.org/2000/svg" xmlns:xlink="http://www.w3.org/1999/xlink">
<g id="graph0" class="graph" transform="scale(1 1) rotate(0) translate(4 236)">
<title>/dev/shm/kenichi/update&#45;github&#45;e1039&#45;doc/e1039&#45;core/simulation/g4gdml/PHG4GDMLWriteDefine.hh</title>
<!-- Node1 -->
<g id="node1" class="node">
<title>Node1</title>
<g id="a_node1"><a xlink:title=" ">
<polygon fill="#bfbfbf" stroke="black" points="208.5,-179.5 208.5,-231.5 356.5,-231.5 356.5,-179.5 208.5,-179.5"/>
<text text-anchor="start" x="216.5" y="-219.5" font-family="FreeSans" font-size="10.00">/dev/shm/kenichi/update</text>
<text text-anchor="start" x="216.5" y="-208.5" font-family="FreeSans" font-size="10.00">&#45;github&#45;e1039&#45;doc/e1039</text>
<text text-anchor="start" x="216.5" y="-197.5" font-family="FreeSans" font-size="10.00">&#45;core/simulation/g4gdml</text>
<text text-anchor="middle" x="282.5" y="-186.5" font-family="FreeSans" font-size="10.00">/PHG4GDMLWriteDefine.hh</text>
</a>
</g>
</g>
<!-- Node2 -->
<g id="node2" class="node">
<title>Node2</title>
<g id="a_node2"><a xlink:title=" ">
<polygon fill="none" stroke="#bfbfbf" points="0,-123.5 0,-142.5 111,-142.5 111,-123.5 0,-123.5"/>
<text text-anchor="middle" x="55.5" y="-130.5" font-family="FreeSans" font-size="10.00">Geant4/G4Types.hh</text>
</a>
</g>
</g>
<!-- Node1&#45;&gt;Node2 -->
<g id="edge1" class="edge">
<title>Node1&#45;&gt;Node2</title>
<path fill="none" stroke="midnightblue" d="M208.49,-181.51C169.73,-169.48 123.95,-155.26 92.63,-145.53"/>
<polygon fill="midnightblue" stroke="midnightblue" points="93.59,-142.17 83,-142.54 91.52,-148.85 93.59,-142.17"/>
</g>
<!-- Node3 -->
<g id="node3" class="node">
<title>Node3</title>
<g id="a_node3"><a xlink:title=" ">
<polygon fill="none" stroke="#bfbfbf" points="129,-123.5 129,-142.5 270,-142.5 270,-123.5 129,-123.5"/>
<text text-anchor="middle" x="199.5" y="-130.5" font-family="FreeSans" font-size="10.00">Geant4/G4ThreeVector.hh</text>
</a>
</g>
</g>
<!-- Node1&#45;&gt;Node3 -->
<g id="edge2" class="edge">
<title>Node1&#45;&gt;Node3</title>
<path fill="none" stroke="midnightblue" d="M253,-179.45C241.21,-169.43 228,-158.21 217.66,-149.42"/>
<polygon fill="midnightblue" stroke="midnightblue" points="219.62,-146.5 209.74,-142.7 215.09,-151.84 219.62,-146.5"/>
</g>
<!-- Node4 -->
<g id="node4" class="node">
<title>Node4</title>
<g id="a_node4"><a xlink:title=" ">
<polygon fill="none" stroke="#bfbfbf" points="288.5,-123.5 288.5,-142.5 444.5,-142.5 444.5,-123.5 288.5,-123.5"/>
<text text-anchor="middle" x="366.5" y="-130.5" font-family="FreeSans" font-size="10.00">Geant4/G4RotationMatrix.hh</text>
</a>
</g>
</g>
<!-- Node1&#45;&gt;Node4 -->
<g id="edge3" class="edge">
<title>Node1&#45;&gt;Node4</title>
<path fill="none" stroke="midnightblue" d="M312.35,-179.45C324.41,-169.33 337.92,-157.98 348.44,-149.16"/>
<polygon fill="midnightblue" stroke="midnightblue" points="350.73,-151.81 356.14,-142.7 346.23,-146.44 350.73,-151.81"/>
</g>
<!-- Node5 -->
<g id="node5" class="node">
<title>Node5</title>
<g id="a_node5"><a xlink:href="../../d2/dae/PHG4GDMLWrite_8hh.html" target="_top" xlink:title=" ">
<polygon fill="none" stroke="black" points="463,-123.5 463,-142.5 576,-142.5 576,-123.5 463,-123.5"/>
<text text-anchor="middle" x="519.5" y="-130.5" font-family="FreeSans" font-size="10.00">PHG4GDMLWrite.hh</text>
</a>
</g>
</g>
<!-- Node1&#45;&gt;Node5 -->
<g id="edge4" class="edge">
<title>Node1&#45;&gt;Node5</title>
<path fill="none" stroke="midnightblue" d="M356.51,-182.48C397.75,-170.22 447.39,-155.45 480.97,-145.46"/>
<polygon fill="midnightblue" stroke="midnightblue" points="482.26,-148.73 490.84,-142.52 480.26,-142.02 482.26,-148.73"/>
</g>
<!-- Node6 -->
<g id="node6" class="node">
<title>Node6</title>
<g id="a_node6"><a xlink:title=" ">
<polygon fill="none" stroke="#bfbfbf" points="65.5,-62 65.5,-81 103.5,-81 103.5,-62 65.5,-62"/>
<text text-anchor="middle" x="84.5" y="-69" font-family="FreeSans" font-size="10.00">map</text>
</a>
</g>
</g>
<!-- Node5&#45;&gt;Node6 -->
<g id="edge5" class="edge">
<title>Node5&#45;&gt;Node6</title>
<path fill="none" stroke="midnightblue" d="M462.99,-124.18C459.78,-123.77 456.6,-123.37 453.5,-123 302.2,-104.7 258.47,-130.8 112.5,-87 111.03,-86.56 109.54,-86.04 108.06,-85.46"/>
<polygon fill="midnightblue" stroke="midnightblue" points="109.15,-82.11 98.6,-81.1 106.21,-88.47 109.15,-82.11"/>
</g>
<!-- Node7 -->
<g id="node7" class="node">
<title>Node7</title>
<g id="a_node7"><a xlink:title=" ">
<polygon fill="none" stroke="#bfbfbf" points="121.5,-62 121.5,-81 247.5,-81 247.5,-62 121.5,-62"/>
<text text-anchor="middle" x="184.5" y="-69" font-family="FreeSans" font-size="10.00">xercesc/dom/DOM.hpp</text>
</a>
</g>
</g>
<!-- Node5&#45;&gt;Node7 -->
<g id="edge6" class="edge">
<title>Node5&#45;&gt;Node7</title>
<path fill="none" stroke="midnightblue" d="M467.23,-123.43C414.3,-114.66 330.11,-100.44 257.5,-87 250.76,-85.75 243.67,-84.4 236.68,-83.03"/>
<polygon fill="midnightblue" stroke="midnightblue" points="237.03,-79.54 226.54,-81.04 235.68,-86.41 237.03,-79.54"/>
</g>
<!-- Node8 -->
<g id="node8" class="node">
<title>Node8</title>
<g id="a_node8"><a xlink:title=" ">
<polygon fill="none" stroke="#bfbfbf" points="266,-56.5 266,-86.5 421,-86.5 421,-56.5 266,-56.5"/>
<text text-anchor="start" x="274" y="-74.5" font-family="FreeSans" font-size="10.00">xercesc/framework/LocalFile</text>
<text text-anchor="middle" x="343.5" y="-63.5" font-family="FreeSans" font-size="10.00">FormatTarget.hpp</text>
</a>
</g>
</g>
<!-- Node5&#45;&gt;Node8 -->
<g id="edge7" class="edge">
<title>Node5&#45;&gt;Node8</title>
<path fill="none" stroke="midnightblue" d="M494.28,-123.48C468.44,-114.74 427.53,-100.91 394.84,-89.86"/>
<polygon fill="midnightblue" stroke="midnightblue" points="395.57,-86.41 384.98,-86.52 393.33,-93.04 395.57,-86.41"/>
</g>
<!-- Node9 -->
<g id="node9" class="node">
<title>Node9</title>
<g id="a_node9"><a xlink:title=" ">
<polygon fill="none" stroke="#bfbfbf" points="439,-62 439,-81 600,-81 600,-62 439,-62"/>
<text text-anchor="middle" x="519.5" y="-69" font-family="FreeSans" font-size="10.00">xercesc/util/PlatformUtils.hpp</text>
</a>
</g>
</g>
<!-- Node5&#45;&gt;Node9 -->
<g id="edge8" class="edge">
<title>Node5&#45;&gt;Node9</title>
<path fill="none" stroke="midnightblue" d="M519.5,-123.48C519.5,-115.08 519.5,-101.98 519.5,-91.16"/>
<polygon fill="midnightblue" stroke="midnightblue" points="523,-91.01 519.5,-81.01 516,-91.01 523,-91.01"/>
</g>
<!-- Node10 -->
<g id="node10" class="node">
<title>Node10</title>
<g id="a_node10"><a xlink:title=" ">
<polygon fill="none" stroke="#bfbfbf" points="618.5,-62 618.5,-81 764.5,-81 764.5,-62 618.5,-62"/>
<text text-anchor="middle" x="691.5" y="-69" font-family="FreeSans" font-size="10.00">xercesc/util/XMLString.hpp</text>
</a>
</g>
</g>
<!-- Node5&#45;&gt;Node10 -->
<g id="edge9" class="edge">
<title>Node5&#45;&gt;Node10</title>
<path fill="none" stroke="midnightblue" d="M544.14,-123.48C573.78,-113.22 623.68,-95.96 657.1,-84.4"/>
<polygon fill="midnightblue" stroke="midnightblue" points="658.6,-87.59 666.9,-81.01 656.31,-80.97 658.6,-87.59"/>
</g>
<!-- Node11 -->
<g id="node11" class="node">
<title>Node11</title>
<g id="a_node11"><a xlink:title=" ">
<polygon fill="none" stroke="#bfbfbf" points="782.5,-62 782.5,-81 928.5,-81 928.5,-62 782.5,-62"/>
<text text-anchor="middle" x="855.5" y="-69" font-family="FreeSans" font-size="10.00">Geant4/G4Transform3D.hh</text>
</a>
</g>
</g>
<!-- Node5&#45;&gt;Node11 -->
<g id="edge10" class="edge">
<title>Node5&#45;&gt;Node11</title>
<path fill="none" stroke="midnightblue" d="M567.64,-123.48C628.27,-112.74 732.36,-94.31 797.36,-82.79"/>
<polygon fill="midnightblue" stroke="midnightblue" points="798.21,-86.2 807.45,-81.01 796.99,-79.31 798.21,-86.2"/>
</g>
<!-- Node12 -->
<g id="node12" class="node">
<title>Node12</title>
<g id="a_node12"><a xlink:href="../../d9/df8/PHG4GDMLAuxStructType_8hh.html" target="_top" xlink:title=" ">
<polygon fill="none" stroke="black" points="946.5,-62 946.5,-81 1104.5,-81 1104.5,-62 946.5,-62"/>
<text text-anchor="middle" x="1025.5" y="-69" font-family="FreeSans" font-size="10.00">PHG4GDMLAuxStructType.hh</text>
</a>
</g>
</g>
<!-- Node5&#45;&gt;Node12 -->
<g id="edge11" class="edge">
<title>Node5&#45;&gt;Node12</title>
<path fill="none" stroke="midnightblue" d="M576.08,-126.92C656.54,-119.47 808.59,-104.55 937.5,-87 946.95,-85.71 956.95,-84.21 966.68,-82.66"/>
<polygon fill="midnightblue" stroke="midnightblue" points="967.39,-86.09 976.7,-81.04 966.27,-79.18 967.39,-86.09"/>
</g>
<!-- Node13 -->
<g id="node13" class="node">
<title>Node13</title>
<g id="a_node13"><a xlink:title=" ">
<polygon fill="none" stroke="#bfbfbf" points="1002,-0.5 1002,-19.5 1049,-19.5 1049,-0.5 1002,-0.5"/>
<text text-anchor="middle" x="1025.5" y="-7.5" font-family="FreeSans" font-size="10.00">vector</text>
</a>
</g>
</g>
<!-- Node12&#45;&gt;Node13 -->
<g id="edge12" class="edge">
<title>Node12&#45;&gt;Node13</title>
<path fill="none" stroke="midnightblue" d="M1025.5,-61.98C1025.5,-53.58 1025.5,-40.48 1025.5,-29.66"/>
<polygon fill="midnightblue" stroke="midnightblue" points="1029,-29.51 1025.5,-19.51 1022,-29.51 1029,-29.51"/>
</g>
</g>
</svg>
