<?xml version="1.0" encoding="UTF-8" standalone="no"?>
<!DOCTYPE svg PUBLIC "-//W3C//DTD SVG 1.1//EN"
 "http://www.w3.org/Graphics/SVG/1.1/DTD/svg11.dtd">
<!-- Generated by graphviz version 2.30.1 (20200930.0103)
 -->
<!-- Title: PHHepMCGenHelper::create_node_tree Pages: 1 -->
<svg width="438pt" height="96pt"
 viewBox="0.00 0.00 438.00 96.00" xmlns="http://www.w3.org/2000/svg" xmlns:xlink="http://www.w3.org/1999/xlink">
<g id="graph0" class="graph" transform="scale(1 1) rotate(0) translate(4 92)">
<title>PHHepMCGenHelper::create_node_tree</title>
<!-- Node1 -->
<g id="node1" class="node"><title>Node1</title>
<polygon fill="#bfbfbf" stroke="black" points="0,-22 0,-52 140,-52 140,-22 0,-22"/>
<text text-anchor="start" x="8" y="-40" font-family="FreeSans" font-size="10.00">PHHepMCGenHelper::create</text>
<text text-anchor="middle" x="70" y="-29" font-family="FreeSans" font-size="10.00">_node_tree</text>
</g>
<!-- Node2 -->
<g id="node2" class="node"><title>Node2</title>
<g id="a_node2"><a xlink:href="../../d5/d07/classPHNodeIterator.html#aea98bf8619af59b1212a94fb32106baa" target="_top" target="_top" target="_top" xlink:title="PHNodeIterator::findFirst">
<polygon fill="none" stroke="black" points="176,-49.5 176,-68.5 298,-68.5 298,-49.5 176,-49.5"/>
<text text-anchor="middle" x="237" y="-56.5" font-family="FreeSans" font-size="10.00">PHNodeIterator::findFirst</text>
</a>
</g>
</g>
<!-- Node1&#45;&gt;Node2 -->
<g id="edge1" class="edge"><title>Node1&#45;&gt;Node2</title>
<path fill="none" stroke="midnightblue" d="M140.019,-46.2025C148.588,-47.345 157.356,-48.5141 165.94,-49.6587"/>
<polygon fill="midnightblue" stroke="midnightblue" points="165.535,-53.1355 175.91,-50.988 166.46,-46.1969 165.535,-53.1355"/>
</g>
<!-- Node5 -->
<g id="node5" class="node"><title>Node5</title>
<g id="a_node5"><a xlink:href="../../d8/dc4/classSQPrimaryVertexGen.html#adaec2c25db49bd6962dda77a1cf060cb" target="_top" target="_top" target="_top" xlink:title="Initialize at the begining of Run. ">
<polygon fill="none" stroke="black" points="182.5,-0 182.5,-30 291.5,-30 291.5,-0 182.5,-0"/>
<text text-anchor="start" x="190.5" y="-18" font-family="FreeSans" font-size="10.00">SQPrimaryVertexGen</text>
<text text-anchor="middle" x="237" y="-7" font-family="FreeSans" font-size="10.00">::InitRun</text>
</a>
</g>
</g>
<!-- Node1&#45;&gt;Node5 -->
<g id="edge5" class="edge"><title>Node1&#45;&gt;Node5</title>
<path fill="none" stroke="midnightblue" d="M140.019,-27.7975C150.726,-26.3698 161.745,-24.9006 172.327,-23.4897"/>
<polygon fill="midnightblue" stroke="midnightblue" points="172.866,-26.949 182.315,-22.158 171.94,-20.0104 172.866,-26.949"/>
</g>
<!-- Node3 -->
<g id="node3" class="node"><title>Node3</title>
<g id="a_node3"><a xlink:href="../../dc/d82/classPHNode.html#a4ab1f90aed955a652813bfe377087bda" target="_top" target="_top" target="_top" xlink:title="PHNode::getType">
<polygon fill="none" stroke="black" points="336,-68.5 336,-87.5 428,-87.5 428,-68.5 336,-68.5"/>
<text text-anchor="middle" x="382" y="-75.5" font-family="FreeSans" font-size="10.00">PHNode::getType</text>
</a>
</g>
</g>
<!-- Node2&#45;&gt;Node3 -->
<g id="edge2" class="edge"><title>Node2&#45;&gt;Node3</title>
<path fill="none" stroke="midnightblue" d="M298.23,-67.0026C307.326,-68.2111 316.67,-69.4527 325.656,-70.6466"/>
<polygon fill="midnightblue" stroke="midnightblue" points="325.242,-74.1223 335.616,-71.9699 326.164,-67.1832 325.242,-74.1223"/>
</g>
<!-- Node4 -->
<g id="node4" class="node"><title>Node4</title>
<g id="a_node4"><a xlink:href="../../dc/d82/classPHNode.html#aca3576f926a4401eddc3d88bf0ce0de3" target="_top" target="_top" target="_top" xlink:title="PHNode::getName">
<polygon fill="none" stroke="black" points="334,-30.5 334,-49.5 430,-49.5 430,-30.5 334,-30.5"/>
<text text-anchor="middle" x="382" y="-37.5" font-family="FreeSans" font-size="10.00">PHNode::getName</text>
</a>
</g>
</g>
<!-- Node2&#45;&gt;Node4 -->
<g id="edge3" class="edge"><title>Node2&#45;&gt;Node4</title>
<path fill="none" stroke="midnightblue" d="M298.23,-50.9974C306.696,-49.8726 315.378,-48.7191 323.785,-47.6021"/>
<polygon fill="midnightblue" stroke="midnightblue" points="324.418,-51.0487 333.87,-46.262 323.496,-44.1097 324.418,-51.0487"/>
</g>
<!-- Node2&#45;&gt;Node2 -->
<g id="edge4" class="edge"><title>Node2&#45;&gt;Node2</title>
<path fill="none" stroke="midnightblue" d="M214.805,-68.7571C204.008,-77.5653 211.406,-87 237,-87 253.796,-87 262.756,-82.9368 263.879,-77.6539"/>
<polygon fill="midnightblue" stroke="midnightblue" points="266.951,-75.9747 259.195,-68.7571 260.757,-79.2361 266.951,-75.9747"/>
</g>
</g>
</svg>
