<?xml version="1.0" encoding="UTF-8" standalone="no"?>
<!DOCTYPE svg PUBLIC "-//W3C//DTD SVG 1.1//EN"
 "http://www.w3.org/Graphics/SVG/1.1/DTD/svg11.dtd">
<!-- Generated by graphviz version 2.30.1 (20180413.0232)
 -->
<!-- Title: PHHepMCGenHelper::set_vertex_distribution_mean Pages: 1 -->
<svg width="504pt" height="457pt"
 viewBox="0.00 0.00 504.00 457.00" xmlns="http://www.w3.org/2000/svg" xmlns:xlink="http://www.w3.org/1999/xlink">
<g id="graph0" class="graph" transform="scale(1 1) rotate(0) translate(4 453)">
<title>PHHepMCGenHelper::set_vertex_distribution_mean</title>
<!-- Node1 -->
<g id="node1" class="node"><title>Node1</title>
<polygon fill="#bfbfbf" stroke="black" points="0,-321 0,-351 128,-351 128,-321 0,-321"/>
<text text-anchor="start" x="8" y="-339" font-family="FreeSans" font-size="10.00">PHHepMCGenHelper::set</text>
<text text-anchor="middle" x="64" y="-328" font-family="FreeSans" font-size="10.00">_vertex_distribution_mean</text>
</g>
<!-- Node2 -->
<g id="node2" class="node"><title>Node2</title>
<g id="a_node2"><a xlink:href="../../de/d99/classFun4AllHepMCPileupInputManager.html#a94b3b8e44e727ee4cfcad90d5f1933f7" target="_top" xlink:title="Fun4AllHepMCPileupInputManager\l::Fun4AllHepMCPileupInputManager">
<polygon fill="none" stroke="black" points="164.5,-419 164.5,-449 337.5,-449 337.5,-419 164.5,-419"/>
<text text-anchor="start" x="172.5" y="-437" font-family="FreeSans" font-size="10.00">Fun4AllHepMCPileupInputManager</text>
<text text-anchor="middle" x="251" y="-426" font-family="FreeSans" font-size="10.00">::Fun4AllHepMCPileupInputManager</text>
</a>
</g>
</g>
<!-- Node1&#45;&gt;Node2 -->
<g id="edge1" class="edge"><title>Node1&#45;&gt;Node2</title>
<path fill="none" stroke="midnightblue" d="M89.2888,-357.741C108.41,-373.866 136.362,-395.336 164,-409 171.666,-412.79 180.008,-416.105 188.381,-418.975"/>
<polygon fill="midnightblue" stroke="midnightblue" points="91.5295,-355.051 81.6613,-351.195 86.9709,-360.364 91.5295,-355.051"/>
</g>
<!-- Node3 -->
<g id="node3" class="node"><title>Node3</title>
<g id="a_node3"><a xlink:href="../../d3/d49/classReadEICFiles.html#a30e1d2849bdf070aa50b04a5137c21d6" target="_top" xlink:title="set the mean value of the vertex distribution, use PHENIX units of cm, ns ">
<polygon fill="none" stroke="black" points="189.5,-370 189.5,-400 312.5,-400 312.5,-370 189.5,-370"/>
<text text-anchor="start" x="197.5" y="-388" font-family="FreeSans" font-size="10.00">ReadEICFiles::set_vertex</text>
<text text-anchor="middle" x="251" y="-377" font-family="FreeSans" font-size="10.00">_distribution_mean</text>
</a>
</g>
</g>
<!-- Node1&#45;&gt;Node3 -->
<g id="edge2" class="edge"><title>Node1&#45;&gt;Node3</title>
<path fill="none" stroke="midnightblue" d="M131.535,-353.623C151.775,-358.984 173.82,-364.823 193.344,-369.994"/>
<polygon fill="midnightblue" stroke="midnightblue" points="132.326,-350.212 121.763,-351.035 130.534,-356.978 132.326,-350.212"/>
</g>
<!-- Node4 -->
<g id="node4" class="node"><title>Node4</title>
<g id="a_node4"><a xlink:href="../../db/d1f/classFun4AllOscarInputManager.html#abe72334ed4a1bdc9c7eacfd89c9144be" target="_top" xlink:title="set the mean value of the vertex distribution, use PHENIX units of cm, ns ">
<polygon fill="none" stroke="black" points="178,-321 178,-351 324,-351 324,-321 178,-321"/>
<text text-anchor="start" x="186" y="-339" font-family="FreeSans" font-size="10.00">Fun4AllOscarInputManager</text>
<text text-anchor="middle" x="251" y="-328" font-family="FreeSans" font-size="10.00">::set_vertex_distribution_mean</text>
</a>
</g>
</g>
<!-- Node1&#45;&gt;Node4 -->
<g id="edge3" class="edge"><title>Node1&#45;&gt;Node4</title>
<path fill="none" stroke="midnightblue" d="M138.438,-336C151.433,-336 164.953,-336 177.91,-336"/>
<polygon fill="midnightblue" stroke="midnightblue" points="138.149,-332.5 128.149,-336 138.149,-339.5 138.149,-332.5"/>
</g>
<!-- Node5 -->
<g id="node5" class="node"><title>Node5</title>
<g id="a_node5"><a xlink:href="../../d6/d6f/classFun4AllHepMCInputManager.html#a6361f8f1de5cb369a9f420d842c8e184" target="_top" xlink:title="set the mean value of the vertex distribution, use PHENIX units of cm, ns ">
<polygon fill="none" stroke="black" points="178,-272 178,-302 324,-302 324,-272 178,-272"/>
<text text-anchor="start" x="186" y="-290" font-family="FreeSans" font-size="10.00">Fun4AllHepMCInputManager</text>
<text text-anchor="middle" x="251" y="-279" font-family="FreeSans" font-size="10.00">::set_vertex_distribution_mean</text>
</a>
</g>
</g>
<!-- Node1&#45;&gt;Node5 -->
<g id="edge4" class="edge"><title>Node1&#45;&gt;Node5</title>
<path fill="none" stroke="midnightblue" d="M131.535,-318.377C151.775,-313.016 173.82,-307.177 193.344,-302.006"/>
<polygon fill="midnightblue" stroke="midnightblue" points="130.534,-315.022 121.763,-320.965 132.326,-321.788 130.534,-315.022"/>
</g>
<!-- Node8 -->
<g id="node8" class="node"><title>Node8</title>
<g id="a_node8"><a xlink:href="../../d9/d3a/classPHPythia8.html#a470a47c13c0afa5c17b3a7139895e6bd" target="_top" xlink:title="set the mean value of the vertex distribution, use PHENIX units of cm, ns ">
<polygon fill="none" stroke="black" points="196,-158 196,-188 306,-188 306,-158 196,-158"/>
<text text-anchor="start" x="204" y="-176" font-family="FreeSans" font-size="10.00">PHPythia8::set_vertex</text>
<text text-anchor="middle" x="251" y="-165" font-family="FreeSans" font-size="10.00">_distribution_mean</text>
</a>
</g>
</g>
<!-- Node1&#45;&gt;Node8 -->
<g id="edge7" class="edge"><title>Node1&#45;&gt;Node8</title>
<path fill="none" stroke="midnightblue" d="M89.6654,-314.268C127.801,-280.668 200.099,-216.967 232.969,-188.006"/>
<polygon fill="midnightblue" stroke="midnightblue" points="87.2621,-311.721 82.0728,-320.958 91.8897,-316.973 87.2621,-311.721"/>
</g>
<!-- Node6 -->
<g id="node6" class="node"><title>Node6</title>
<g id="a_node6"><a xlink:href="../../d1/dd6/EventDisplay4Sim_8C.html#af86696dcebf4f8619d2417d0865bbf66" target="_top" xlink:title="EventDisplay4Sim">
<polygon fill="none" stroke="black" points="388,-277.5 388,-296.5 482,-296.5 482,-277.5 388,-277.5"/>
<text text-anchor="middle" x="435" y="-284.5" font-family="FreeSans" font-size="10.00">EventDisplay4Sim</text>
</a>
</g>
</g>
<!-- Node5&#45;&gt;Node6 -->
<g id="edge5" class="edge"><title>Node5&#45;&gt;Node6</title>
<path fill="none" stroke="midnightblue" d="M334.329,-287C352.696,-287 371.539,-287 387.827,-287"/>
<polygon fill="midnightblue" stroke="midnightblue" points="334.193,-283.5 324.193,-287 334.193,-290.5 334.193,-283.5"/>
</g>
<!-- Node7 -->
<g id="node7" class="node"><title>Node7</title>
<g id="a_node7"><a xlink:href="../../d5/d7f/SimChainDev_2Fun4Sim_8C.html#a05d19d59f1955a51d54ae22957bbcf86" target="_top" xlink:title="Fun4Sim">
<polygon fill="none" stroke="black" points="407,-315.5 407,-334.5 463,-334.5 463,-315.5 407,-315.5"/>
<text text-anchor="middle" x="435" y="-322.5" font-family="FreeSans" font-size="10.00">Fun4Sim</text>
</a>
</g>
</g>
<!-- Node5&#45;&gt;Node7 -->
<g id="edge6" class="edge"><title>Node5&#45;&gt;Node7</title>
<path fill="none" stroke="midnightblue" d="M333.877,-304.095C360.005,-309.55 387.146,-315.217 406.568,-319.272"/>
<polygon fill="midnightblue" stroke="midnightblue" points="334.436,-300.636 323.931,-302.019 333.005,-307.489 334.436,-300.636"/>
</g>
<!-- Node9 -->
<g id="node9" class="node"><title>Node9</title>
<g id="a_node9"><a xlink:href="../../d2/d24/Fun4E1039Shielding_8C.html#a42592782dd55d6e219305ff678a00dc2" target="_top" xlink:title="Fun4E1039Shielding">
<polygon fill="none" stroke="black" points="382.5,-239.5 382.5,-258.5 487.5,-258.5 487.5,-239.5 382.5,-239.5"/>
<text text-anchor="middle" x="435" y="-246.5" font-family="FreeSans" font-size="10.00">Fun4E1039Shielding</text>
</a>
</g>
</g>
<!-- Node8&#45;&gt;Node9 -->
<g id="edge8" class="edge"><title>Node8&#45;&gt;Node9</title>
<path fill="none" stroke="midnightblue" d="M290.635,-192.631C314.354,-204.284 345.543,-218.901 374,-230 382.653,-233.375 392.174,-236.603 401.034,-239.41"/>
<polygon fill="midnightblue" stroke="midnightblue" points="292.123,-189.462 281.608,-188.162 289.017,-195.735 292.123,-189.462"/>
</g>
<!-- Node8&#45;&gt;Node6 -->
<g id="edge9" class="edge"><title>Node8&#45;&gt;Node6</title>
<path fill="none" stroke="midnightblue" d="M275.296,-195.293C298.628,-216.565 336.381,-248.217 374,-268 381.06,-271.713 388.972,-274.853 396.677,-277.445"/>
<polygon fill="midnightblue" stroke="midnightblue" points="277.387,-192.459 267.669,-188.239 272.634,-197.598 277.387,-192.459"/>
</g>
<!-- Node10 -->
<g id="node10" class="node"><title>Node10</title>
<g id="a_node10"><a xlink:href="../../d6/d6a/Fun4HodoAccGap_8C.html#a7aaa0687f144d5e7b417d7e9ac5f36da" target="_top" xlink:title="Fun4HodoAccGap">
<polygon fill="none" stroke="black" points="387,-201.5 387,-220.5 483,-220.5 483,-201.5 387,-201.5"/>
<text text-anchor="middle" x="435" y="-208.5" font-family="FreeSans" font-size="10.00">Fun4HodoAccGap</text>
</a>
</g>
</g>
<!-- Node8&#45;&gt;Node10 -->
<g id="edge10" class="edge"><title>Node8&#45;&gt;Node10</title>
<path fill="none" stroke="midnightblue" d="M316.145,-186.393C339.989,-191.371 366.535,-196.914 388.387,-201.477"/>
<polygon fill="midnightblue" stroke="midnightblue" points="316.618,-182.916 306.113,-184.298 315.187,-189.768 316.618,-182.916"/>
</g>
<!-- Node11 -->
<g id="node11" class="node"><title>Node11</title>
<g id="a_node11"><a xlink:href="../../d7/dbf/Pythia8Demo_2Fun4Sim_8C.html#a13db461d7442e3977a7c3773cd8119df" target="_top" xlink:title="Fun4Sim">
<polygon fill="none" stroke="black" points="407,-163.5 407,-182.5 463,-182.5 463,-163.5 407,-163.5"/>
<text text-anchor="middle" x="435" y="-170.5" font-family="FreeSans" font-size="10.00">Fun4Sim</text>
</a>
</g>
</g>
<!-- Node8&#45;&gt;Node11 -->
<g id="edge11" class="edge"><title>Node8&#45;&gt;Node11</title>
<path fill="none" stroke="midnightblue" d="M316.454,-173C347.529,-173 383.129,-173 406.933,-173"/>
<polygon fill="midnightblue" stroke="midnightblue" points="316.113,-169.5 306.113,-173 316.113,-176.5 316.113,-169.5"/>
</g>
<!-- Node12 -->
<g id="node12" class="node"><title>Node12</title>
<g id="a_node12"><a xlink:href="../../d0/d9c/RecoE1039Sim_8C.html#a07edfd7b51752cb53ea50911050a8511" target="_top" xlink:title="RecoE1039Sim">
<polygon fill="none" stroke="black" points="393.5,-125.5 393.5,-144.5 476.5,-144.5 476.5,-125.5 393.5,-125.5"/>
<text text-anchor="middle" x="435" y="-132.5" font-family="FreeSans" font-size="10.00">RecoE1039Sim</text>
</a>
</g>
</g>
<!-- Node8&#45;&gt;Node12 -->
<g id="edge12" class="edge"><title>Node8&#45;&gt;Node12</title>
<path fill="none" stroke="midnightblue" d="M316.158,-159.604C341.852,-154.24 370.681,-148.22 393.394,-143.478"/>
<polygon fill="midnightblue" stroke="midnightblue" points="315.187,-156.232 306.113,-161.702 316.618,-163.084 315.187,-156.232"/>
</g>
<!-- Node13 -->
<g id="node13" class="node"><title>Node13</title>
<g id="a_node13"><a xlink:href="../../d7/d66/Fun4PatternDB_8C.html#a9e68afec0dfdd12961d550386529d5eb" target="_top" xlink:title="Fun4PatternDB">
<polygon fill="none" stroke="black" points="393.5,-87.5 393.5,-106.5 476.5,-106.5 476.5,-87.5 393.5,-87.5"/>
<text text-anchor="middle" x="435" y="-94.5" font-family="FreeSans" font-size="10.00">Fun4PatternDB</text>
</a>
</g>
</g>
<!-- Node8&#45;&gt;Node13 -->
<g id="edge13" class="edge"><title>Node8&#45;&gt;Node13</title>
<path fill="none" stroke="midnightblue" d="M290.635,-153.369C314.354,-141.716 345.543,-127.099 374,-116 382.653,-112.625 392.174,-109.397 401.034,-106.59"/>
<polygon fill="midnightblue" stroke="midnightblue" points="289.017,-150.265 281.608,-157.838 292.123,-156.538 289.017,-150.265"/>
</g>
<!-- Node14 -->
<g id="node14" class="node"><title>Node14</title>
<g id="a_node14"><a xlink:href="../../d2/d3a/Fun4TrkDev_8C.html#abd98cf50196a6ad7cb2289d1f0442b73" target="_top" xlink:title="Fun4TrkDev">
<polygon fill="none" stroke="black" points="400.5,-49.5 400.5,-68.5 469.5,-68.5 469.5,-49.5 400.5,-49.5"/>
<text text-anchor="middle" x="435" y="-56.5" font-family="FreeSans" font-size="10.00">Fun4TrkDev</text>
</a>
</g>
</g>
<!-- Node8&#45;&gt;Node14 -->
<g id="edge14" class="edge"><title>Node8&#45;&gt;Node14</title>
<path fill="none" stroke="midnightblue" d="M275.296,-150.707C298.628,-129.435 336.381,-97.7834 374,-78 382.22,-73.6771 391.596,-70.1303 400.455,-67.3207"/>
<polygon fill="midnightblue" stroke="midnightblue" points="272.634,-148.402 267.669,-157.761 277.387,-153.541 272.634,-148.402"/>
</g>
<!-- Node15 -->
<g id="node15" class="node"><title>Node15</title>
<g id="a_node15"><a xlink:href="../../d9/d3a/classPHPythia8.html#abb21b0537da59ea9e6a1a4b92827af18" target="_top" xlink:title="PHPythia8::beam_vertex\l_parameters">
<polygon fill="none" stroke="black" points="374,-0 374,-30 496,-30 496,-0 374,-0"/>
<text text-anchor="start" x="382" y="-18" font-family="FreeSans" font-size="10.00">PHPythia8::beam_vertex</text>
<text text-anchor="middle" x="435" y="-7" font-family="FreeSans" font-size="10.00">_parameters</text>
</a>
</g>
</g>
<!-- Node8&#45;&gt;Node15 -->
<g id="edge15" class="edge"><title>Node8&#45;&gt;Node15</title>
<path fill="none" stroke="midnightblue" d="M268.464,-149.529C289.885,-120.455 329.829,-70.9803 374,-40 379.266,-36.3065 385.162,-33.0183 391.145,-30.1381"/>
<polygon fill="midnightblue" stroke="midnightblue" points="265.464,-147.704 262.427,-157.854 271.131,-151.814 265.464,-147.704"/>
</g>
</g>
</svg>
