<?xml version="1.0" encoding="UTF-8" standalone="no"?>
<!DOCTYPE svg PUBLIC "-//W3C//DTD SVG 1.1//EN"
 "http://www.w3.org/Graphics/SVG/1.1/DTD/svg11.dtd">
<!-- Generated by graphviz version 2.30.1 (20200930.0103)
 -->
<!-- Title: AnaSignal::GetRoadMapPosTop Pages: 1 -->
<svg width="462pt" height="104pt"
 viewBox="0.00 0.00 462.00 104.00" xmlns="http://www.w3.org/2000/svg" xmlns:xlink="http://www.w3.org/1999/xlink">
<g id="graph0" class="graph" transform="scale(1 1) rotate(0) translate(4 100)">
<title>AnaSignal::GetRoadMapPosTop</title>
<!-- Node1 -->
<g id="node1" class="node"><title>Node1</title>
<polygon fill="#bfbfbf" stroke="black" points="0.5,-38.5 0.5,-57.5 155.5,-57.5 155.5,-38.5 0.5,-38.5"/>
<text text-anchor="middle" x="78" y="-45.5" font-family="FreeSans" font-size="10.00">AnaSignal::GetRoadMapPosTop</text>
</g>
<!-- Node2 -->
<g id="node2" class="node"><title>Node2</title>
<g id="a_node2"><a xlink:href="../../d3/d1d/ApplyRoadset2Signal_8C.html#a9ffd08c74a3b922193e8865b086eb211" target="_top" xlink:title="ApplyRoadset2Signal">
<polygon fill="none" stroke="black" points="192,-76.5 192,-95.5 300,-95.5 300,-76.5 192,-76.5"/>
<text text-anchor="middle" x="246" y="-83.5" font-family="FreeSans" font-size="10.00">ApplyRoadset2Signal</text>
</a>
</g>
</g>
<!-- Node1&#45;&gt;Node2 -->
<g id="edge1" class="edge"><title>Node1&#45;&gt;Node2</title>
<path fill="none" stroke="midnightblue" d="M130.653,-59.8243C154.056,-65.1816 181.357,-71.4311 203.412,-76.4799"/>
<polygon fill="midnightblue" stroke="midnightblue" points="131.418,-56.4088 120.889,-57.589 129.856,-63.2323 131.418,-56.4088"/>
</g>
<!-- Node3 -->
<g id="node3" class="node"><title>Node3</title>
<g id="a_node3"><a xlink:href="../../d5/de8/classGenRoadset.html#ae904057a5d67cad574bb54658bc4979e" target="_top" xlink:title="GenRoadset::SetMap">
<polygon fill="none" stroke="black" points="192,-0.5 192,-19.5 300,-19.5 300,-0.5 192,-0.5"/>
<text text-anchor="middle" x="246" y="-7.5" font-family="FreeSans" font-size="10.00">GenRoadset::SetMap</text>
</a>
</g>
</g>
<!-- Node1&#45;&gt;Node3 -->
<g id="edge2" class="edge"><title>Node1&#45;&gt;Node3</title>
<path fill="none" stroke="midnightblue" d="M130.653,-36.1757C154.056,-30.8184 181.357,-24.5689 203.412,-19.5201"/>
<polygon fill="midnightblue" stroke="midnightblue" points="129.856,-32.7677 120.889,-38.411 131.418,-39.5912 129.856,-32.7677"/>
</g>
<!-- Node6 -->
<g id="node6" class="node"><title>Node6</title>
<g id="a_node6"><a xlink:href="../../db/df7/classAnaBG.html#a14df884050ed84da7972d0c399907114" target="_top" xlink:title="AnaBG::SetRoads">
<polygon fill="none" stroke="black" points="198.5,-38.5 198.5,-57.5 293.5,-57.5 293.5,-38.5 198.5,-38.5"/>
<text text-anchor="middle" x="246" y="-45.5" font-family="FreeSans" font-size="10.00">AnaBG::SetRoads</text>
</a>
</g>
</g>
<!-- Node1&#45;&gt;Node6 -->
<g id="edge5" class="edge"><title>Node1&#45;&gt;Node6</title>
<path fill="none" stroke="midnightblue" d="M165.977,-48C177.181,-48 188.289,-48 198.48,-48"/>
<polygon fill="midnightblue" stroke="midnightblue" points="165.683,-44.5001 155.683,-48 165.683,-51.5001 165.683,-44.5001"/>
</g>
<!-- Node4 -->
<g id="node4" class="node"><title>Node4</title>
<g id="a_node4"><a xlink:href="../../db/d30/GenerateRoad_8C.html#ad670b842d08a44a59cfb72c6170cd1f5" target="_top" xlink:title="Macro to generate a roadset based on the S/N FoM. ">
<polygon fill="none" stroke="black" points="355.5,-38.5 355.5,-57.5 434.5,-57.5 434.5,-38.5 355.5,-38.5"/>
<text text-anchor="middle" x="395" y="-45.5" font-family="FreeSans" font-size="10.00">GenerateRoad</text>
</a>
</g>
</g>
<!-- Node3&#45;&gt;Node4 -->
<g id="edge3" class="edge"><title>Node3&#45;&gt;Node4</title>
<path fill="none" stroke="midnightblue" d="M293.855,-22.1121C314.328,-27.4044 337.99,-33.5213 357.172,-38.4799"/>
<polygon fill="midnightblue" stroke="midnightblue" points="294.652,-18.7032 284.094,-19.589 292.9,-25.4805 294.652,-18.7032"/>
</g>
<!-- Node5 -->
<g id="node5" class="node"><title>Node5</title>
<g id="a_node5"><a xlink:href="../../db/d30/GenerateRoad_8C.html#a6db19ceb083a4f626a6ddc1a3c26eff8" target="_top" xlink:title="Macro to generate a roadset based on the GMC signal yield. ">
<polygon fill="none" stroke="black" points="336.5,-0.5 336.5,-19.5 453.5,-19.5 453.5,-0.5 336.5,-0.5"/>
<text text-anchor="middle" x="395" y="-7.5" font-family="FreeSans" font-size="10.00">GenerateRoadBySignal</text>
</a>
</g>
</g>
<!-- Node3&#45;&gt;Node5 -->
<g id="edge4" class="edge"><title>Node3&#45;&gt;Node5</title>
<path fill="none" stroke="midnightblue" d="M310.143,-10C318.826,-10 327.706,-10 336.284,-10"/>
<polygon fill="midnightblue" stroke="midnightblue" points="310.07,-6.5001 300.07,-10 310.07,-13.5001 310.07,-6.5001"/>
</g>
<!-- Node6&#45;&gt;Node4 -->
<g id="edge6" class="edge"><title>Node6&#45;&gt;Node4</title>
<path fill="none" stroke="midnightblue" d="M303.982,-48C321.117,-48 339.516,-48 355.185,-48"/>
<polygon fill="midnightblue" stroke="midnightblue" points="303.512,-44.5001 293.512,-48 303.512,-51.5001 303.512,-44.5001"/>
</g>
</g>
</svg>
