<?xml version="1.0" encoding="UTF-8" standalone="no"?>
<!DOCTYPE svg PUBLIC "-//W3C//DTD SVG 1.1//EN"
 "http://www.w3.org/Graphics/SVG/1.1/DTD/svg11.dtd">
<!-- Generated by graphviz version 2.40.1 (20161225.0304)
 -->
<!-- Title: VariableArray::set_val Pages: 1 -->
<svg width="434pt" height="39pt"
 viewBox="0.00 0.00 434.00 39.00" xmlns="http://www.w3.org/2000/svg" xmlns:xlink="http://www.w3.org/1999/xlink">
<g id="graph0" class="graph" transform="scale(1 1) rotate(0) translate(4 35)">
<title>VariableArray::set_val</title>
<!-- Node21 -->
<g id="node1" class="node">
<title>Node21</title>
<polygon fill="#bfbfbf" stroke="#000000" points="0,-6 0,-25 108,-25 108,-6 0,-6"/>
<text text-anchor="middle" x="54" y="-13" font-family="FreeSans" font-size="10.00" fill="#000000">VariableArray::set_val</text>
</g>
<!-- Node22 -->
<g id="node2" class="node">
<title>Node22</title>
<g id="a_node2"><a xlink:href="../../dc/d9a/classPHG4InEventCompress.html#a90aa61e9a022c17368a44e38a453a039" target="_top" xlink:title="PHG4InEventCompress\l::process_event">
<polygon fill="none" stroke="#000000" points="144,-.5 144,-30.5 262,-30.5 262,-.5 144,-.5"/>
<text text-anchor="start" x="152" y="-18.5" font-family="FreeSans" font-size="10.00" fill="#000000">PHG4InEventCompress</text>
<text text-anchor="middle" x="203" y="-7.5" font-family="FreeSans" font-size="10.00" fill="#000000">::process_event</text>
</a>
</g>
</g>
<!-- Node21&#45;&gt;Node22 -->
<g id="edge1" class="edge">
<title>Node21&#45;&gt;Node22</title>
<path fill="none" stroke="#191970" d="M118.3909,-15.5C126.8305,-15.5 135.4463,-15.5 143.7944,-15.5"/>
<polygon fill="#191970" stroke="#191970" points="118.2139,-12.0001 108.2139,-15.5 118.2139,-19.0001 118.2139,-12.0001"/>
</g>
<!-- Node23 -->
<g id="node3" class="node">
<title>Node23</title>
<g id="a_node3"><a xlink:href="../../dc/d9a/classPHG4InEventCompress.html#af9b9408f3cb56ac8800e88ce1d82ab3b" target="_top" xlink:title="PHG4InEventCompress\l::~PHG4InEventCompress">
<polygon fill="none" stroke="#000000" points="298,-.5 298,-30.5 426,-30.5 426,-.5 298,-.5"/>
<text text-anchor="start" x="306" y="-18.5" font-family="FreeSans" font-size="10.00" fill="#000000">PHG4InEventCompress</text>
<text text-anchor="middle" x="362" y="-7.5" font-family="FreeSans" font-size="10.00" fill="#000000">::~PHG4InEventCompress</text>
</a>
</g>
</g>
<!-- Node22&#45;&gt;Node23 -->
<g id="edge2" class="edge">
<title>Node22&#45;&gt;Node23</title>
<path fill="none" stroke="#191970" d="M272.4424,-15.5C280.9193,-15.5 289.5513,-15.5 297.9444,-15.5"/>
<polygon fill="#191970" stroke="#191970" points="272.2058,-12.0001 262.2057,-15.5 272.2057,-19.0001 272.2058,-12.0001"/>
</g>
</g>
</svg>
