<?xml version="1.0" encoding="UTF-8" standalone="no"?>
<!DOCTYPE svg PUBLIC "-//W3C//DTD SVG 1.1//EN"
 "http://www.w3.org/Graphics/SVG/1.1/DTD/svg11.dtd">
<!-- Generated by graphviz version 2.44.0 (0)
 -->
<!-- Title: /dev/shm/kenichi/update&#45;github&#45;e1039&#45;doc/e1039&#45;core/framework/phool/PHTypedNodeIterator.h Pages: 1 -->
<svg width="233pt" height="397pt"
 viewBox="0.00 0.00 233.31 397.00" xmlns="http://www.w3.org/2000/svg" xmlns:xlink="http://www.w3.org/1999/xlink">
<g id="graph0" class="graph" transform="scale(1 1) rotate(0) translate(4 393)">
<title>/dev/shm/kenichi/update&#45;github&#45;e1039&#45;doc/e1039&#45;core/framework/phool/PHTypedNodeIterator.h</title>
<!-- Node1 -->
<g id="node1" class="node">
<title>Node1</title>
<g id="a_node1"><a xlink:title=" ">
<polygon fill="#bfbfbf" stroke="black" points="27.31,-336.5 27.31,-388.5 225.31,-388.5 225.31,-336.5 27.31,-336.5"/>
<text text-anchor="start" x="35.31" y="-376.5" font-family="FreeSans" font-size="10.00">/dev/shm/kenichi/update</text>
<text text-anchor="start" x="35.31" y="-365.5" font-family="FreeSans" font-size="10.00">&#45;github&#45;e1039&#45;doc/e1039</text>
<text text-anchor="start" x="35.31" y="-354.5" font-family="FreeSans" font-size="10.00">&#45;core/framework/phool/PHTypedNode</text>
<text text-anchor="middle" x="126.31" y="-343.5" font-family="FreeSans" font-size="10.00">Iterator.h</text>
</a>
</g>
</g>
<!-- Node2 -->
<g id="node2" class="node">
<title>Node2</title>
<g id="a_node2"><a xlink:href="../../d8/dfd/PHNodeIterator_8h.html" target="_top" xlink:title=" ">
<polygon fill="none" stroke="black" points="29.31,-280.5 29.31,-299.5 129.31,-299.5 129.31,-280.5 29.31,-280.5"/>
<text text-anchor="middle" x="79.31" y="-287.5" font-family="FreeSans" font-size="10.00">PHNodeIterator.h</text>
</a>
</g>
</g>
<!-- Node1&#45;&gt;Node2 -->
<g id="edge1" class="edge">
<title>Node1&#45;&gt;Node2</title>
<path fill="none" stroke="midnightblue" d="M109.61,-336.45C103.33,-327.03 96.35,-316.55 90.67,-308.03"/>
<polygon fill="midnightblue" stroke="midnightblue" points="93.57,-306.07 85.11,-299.7 87.74,-309.96 93.57,-306.07"/>
</g>
<!-- Node10 -->
<g id="node10" class="node">
<title>Node10</title>
<g id="a_node10"><a xlink:title=" ">
<polygon fill="none" stroke="#bfbfbf" points="147.81,-280.5 147.81,-299.5 200.81,-299.5 200.81,-280.5 147.81,-280.5"/>
<text text-anchor="middle" x="174.31" y="-287.5" font-family="FreeSans" font-size="10.00">cstddef</text>
</a>
</g>
</g>
<!-- Node1&#45;&gt;Node10 -->
<g id="edge15" class="edge">
<title>Node1&#45;&gt;Node10</title>
<path fill="none" stroke="midnightblue" d="M143.37,-336.45C149.78,-327.03 156.92,-316.55 162.72,-308.03"/>
<polygon fill="midnightblue" stroke="midnightblue" points="165.66,-309.93 168.39,-299.7 159.87,-305.99 165.66,-309.93"/>
</g>
<!-- Node3 -->
<g id="node3" class="node">
<title>Node3</title>
<g id="a_node3"><a xlink:href="../../d5/d6f/phool_8h.html" target="_top" xlink:title=" ">
<polygon fill="none" stroke="black" points="8.81,-56.5 8.81,-75.5 61.81,-75.5 61.81,-56.5 8.81,-56.5"/>
<text text-anchor="middle" x="35.31" y="-63.5" font-family="FreeSans" font-size="10.00">phool.h</text>
</a>
</g>
</g>
<!-- Node2&#45;&gt;Node3 -->
<g id="edge2" class="edge">
<title>Node2&#45;&gt;Node3</title>
<path fill="none" stroke="midnightblue" d="M56.52,-280.47C40.99,-273.32 21.61,-261.44 12.31,-244 -15.57,-191.69 11.06,-118.72 26.3,-85.18"/>
<polygon fill="midnightblue" stroke="midnightblue" points="29.65,-86.29 30.77,-75.75 23.33,-83.29 29.65,-86.29"/>
</g>
<!-- Node5 -->
<g id="node5" class="node">
<title>Node5</title>
<g id="a_node5"><a xlink:href="../../d8/d30/PHCompositeNode_8h.html" target="_top" xlink:title=" ">
<polygon fill="none" stroke="black" points="20.81,-224.5 20.81,-243.5 137.81,-243.5 137.81,-224.5 20.81,-224.5"/>
<text text-anchor="middle" x="79.31" y="-231.5" font-family="FreeSans" font-size="10.00">PHCompositeNode.h</text>
</a>
</g>
</g>
<!-- Node2&#45;&gt;Node5 -->
<g id="edge4" class="edge">
<title>Node2&#45;&gt;Node5</title>
<path fill="none" stroke="midnightblue" d="M79.31,-280.08C79.31,-273.01 79.31,-262.86 79.31,-253.99"/>
<polygon fill="midnightblue" stroke="midnightblue" points="82.81,-253.75 79.31,-243.75 75.81,-253.75 82.81,-253.75"/>
</g>
<!-- Node9 -->
<g id="node9" class="node">
<title>Node9</title>
<g id="a_node9"><a xlink:href="../../db/dd5/PHPointerList_8h.html" target="_top" xlink:title=" ">
<polygon fill="none" stroke="black" points="107.81,-168.5 107.81,-187.5 198.81,-187.5 198.81,-168.5 107.81,-168.5"/>
<text text-anchor="middle" x="153.31" y="-175.5" font-family="FreeSans" font-size="10.00">PHPointerList.h</text>
</a>
</g>
</g>
<!-- Node2&#45;&gt;Node9 -->
<g id="edge14" class="edge">
<title>Node2&#45;&gt;Node9</title>
<path fill="none" stroke="midnightblue" d="M101.62,-280.44C117.2,-273.21 136.99,-261.25 147.31,-244 155.59,-230.17 156.52,-211.65 155.71,-197.92"/>
<polygon fill="midnightblue" stroke="midnightblue" points="159.18,-197.34 154.75,-187.72 152.21,-198 159.18,-197.34"/>
</g>
<!-- Node4 -->
<g id="node4" class="node">
<title>Node4</title>
<g id="a_node4"><a xlink:title=" ">
<polygon fill="none" stroke="#bfbfbf" points="96.31,-0.5 96.31,-19.5 156.31,-19.5 156.31,-0.5 96.31,-0.5"/>
<text text-anchor="middle" x="126.31" y="-7.5" font-family="FreeSans" font-size="10.00">iostream</text>
</a>
</g>
</g>
<!-- Node3&#45;&gt;Node4 -->
<g id="edge3" class="edge">
<title>Node3&#45;&gt;Node4</title>
<path fill="none" stroke="midnightblue" d="M49.93,-56.32C64.26,-47.82 86.33,-34.73 103.06,-24.8"/>
<polygon fill="midnightblue" stroke="midnightblue" points="104.91,-27.77 111.73,-19.65 101.34,-21.75 104.91,-27.77"/>
</g>
<!-- Node5&#45;&gt;Node3 -->
<g id="edge5" class="edge">
<title>Node5&#45;&gt;Node3</title>
<path fill="none" stroke="midnightblue" d="M76.95,-224.08C70.02,-197.95 49.68,-121.21 40.24,-85.58"/>
<polygon fill="midnightblue" stroke="midnightblue" points="43.53,-84.34 37.58,-75.57 36.76,-86.13 43.53,-84.34"/>
</g>
<!-- Node6 -->
<g id="node6" class="node">
<title>Node6</title>
<g id="a_node6"><a xlink:href="../../d3/d62/PHNode_8h.html" target="_top" xlink:title=" ">
<polygon fill="none" stroke="black" points="101.81,-112.5 101.81,-131.5 166.81,-131.5 166.81,-112.5 101.81,-112.5"/>
<text text-anchor="middle" x="134.31" y="-119.5" font-family="FreeSans" font-size="10.00">PHNode.h</text>
</a>
</g>
</g>
<!-- Node5&#45;&gt;Node6 -->
<g id="edge6" class="edge">
<title>Node5&#45;&gt;Node6</title>
<path fill="none" stroke="midnightblue" d="M80.96,-224.2C83.6,-211.33 89.5,-186.85 99.31,-168 104.67,-157.7 112.46,-147.4 119.34,-139.25"/>
<polygon fill="midnightblue" stroke="midnightblue" points="122.06,-141.46 126.03,-131.64 116.8,-136.84 122.06,-141.46"/>
</g>
<!-- Node5&#45;&gt;Node9 -->
<g id="edge10" class="edge">
<title>Node5&#45;&gt;Node9</title>
<path fill="none" stroke="midnightblue" d="M91.2,-224.32C102.46,-216.11 119.6,-203.6 133.02,-193.81"/>
<polygon fill="midnightblue" stroke="midnightblue" points="135.19,-196.56 141.21,-187.83 131.07,-190.9 135.19,-196.56"/>
</g>
<!-- Node6&#45;&gt;Node3 -->
<g id="edge7" class="edge">
<title>Node6&#45;&gt;Node3</title>
<path fill="none" stroke="midnightblue" d="M118.41,-112.32C102.67,-103.74 78.37,-90.49 60.1,-80.52"/>
<polygon fill="midnightblue" stroke="midnightblue" points="61.63,-77.37 51.18,-75.65 58.28,-83.52 61.63,-77.37"/>
</g>
<!-- Node7 -->
<g id="node7" class="node">
<title>Node7</title>
<g id="a_node7"><a xlink:title=" ">
<polygon fill="none" stroke="#bfbfbf" points="80.31,-56.5 80.31,-75.5 128.31,-75.5 128.31,-56.5 80.31,-56.5"/>
<text text-anchor="middle" x="104.31" y="-63.5" font-family="FreeSans" font-size="10.00">iosfwd</text>
</a>
</g>
</g>
<!-- Node6&#45;&gt;Node7 -->
<g id="edge8" class="edge">
<title>Node6&#45;&gt;Node7</title>
<path fill="none" stroke="midnightblue" d="M129.36,-112.08C125.21,-104.61 119.16,-93.72 114.05,-84.52"/>
<polygon fill="midnightblue" stroke="midnightblue" points="117.09,-82.79 109.17,-75.75 110.97,-86.19 117.09,-82.79"/>
</g>
<!-- Node8 -->
<g id="node8" class="node">
<title>Node8</title>
<g id="a_node8"><a xlink:title=" ">
<polygon fill="none" stroke="#bfbfbf" points="146.31,-56.5 146.31,-75.5 190.31,-75.5 190.31,-56.5 146.31,-56.5"/>
<text text-anchor="middle" x="168.31" y="-63.5" font-family="FreeSans" font-size="10.00">string</text>
</a>
</g>
</g>
<!-- Node6&#45;&gt;Node8 -->
<g id="edge9" class="edge">
<title>Node6&#45;&gt;Node8</title>
<path fill="none" stroke="midnightblue" d="M139.93,-112.08C144.68,-104.53 151.63,-93.49 157.46,-84.23"/>
<polygon fill="midnightblue" stroke="midnightblue" points="160.44,-86.08 162.8,-75.75 154.51,-82.35 160.44,-86.08"/>
</g>
<!-- Node9&#45;&gt;Node3 -->
<g id="edge11" class="edge">
<title>Node9&#45;&gt;Node3</title>
<path fill="none" stroke="midnightblue" d="M140.33,-168.38C127.77,-159.8 108.47,-145.92 93.31,-132 76.86,-116.89 60.1,-97.59 48.85,-83.96"/>
<polygon fill="midnightblue" stroke="midnightblue" points="51.34,-81.47 42.31,-75.92 45.9,-85.88 51.34,-81.47"/>
</g>
<!-- Node9&#45;&gt;Node4 -->
<g id="edge13" class="edge">
<title>Node9&#45;&gt;Node4</title>
<path fill="none" stroke="midnightblue" d="M161.54,-168.41C180.01,-148.06 221.44,-95.64 199.31,-56 191.16,-41.39 176.09,-30.94 161.76,-23.8"/>
<polygon fill="midnightblue" stroke="midnightblue" points="163.07,-20.56 152.52,-19.59 160.17,-26.92 163.07,-20.56"/>
</g>
<!-- Node9&#45;&gt;Node6 -->
<g id="edge12" class="edge">
<title>Node9&#45;&gt;Node6</title>
<path fill="none" stroke="midnightblue" d="M150.18,-168.08C147.63,-160.85 143.96,-150.41 140.79,-141.4"/>
<polygon fill="midnightblue" stroke="midnightblue" points="144.01,-140.02 137.39,-131.75 137.41,-142.35 144.01,-140.02"/>
</g>
</g>
</svg>
