<?xml version="1.0" encoding="UTF-8" standalone="no"?>
<!DOCTYPE svg PUBLIC "-//W3C//DTD SVG 1.1//EN"
 "http://www.w3.org/Graphics/SVG/1.1/DTD/svg11.dtd">
<!-- Generated by graphviz version 2.30.1 (20200930.0103)
 -->
<!-- Title: Fun4AllSRawEventInputManager::OpenNextFile Pages: 1 -->
<svg width="692pt" height="87pt"
 viewBox="0.00 0.00 692.00 87.00" xmlns="http://www.w3.org/2000/svg" xmlns:xlink="http://www.w3.org/1999/xlink">
<g id="graph0" class="graph" transform="scale(1 1) rotate(0) translate(4 83)">
<title>Fun4AllSRawEventInputManager::OpenNextFile</title>
<!-- Node1 -->
<g id="node1" class="node"><title>Node1</title>
<polygon fill="#bfbfbf" stroke="black" points="0,-24 0,-54 158,-54 158,-24 0,-24"/>
<text text-anchor="start" x="8" y="-42" font-family="FreeSans" font-size="10.00">Fun4AllSRawEventInputManager</text>
<text text-anchor="middle" x="79" y="-31" font-family="FreeSans" font-size="10.00">::OpenNextFile</text>
</g>
<!-- Node2 -->
<g id="node2" class="node"><title>Node2</title>
<g id="a_node2"><a xlink:href="../../d5/dd4/classFun4AllSRawEventInputManager.html#aebaa414c57aa571e3869b12db6abe84e" target="_top" xlink:title="Fun4AllSRawEventInputManager\l::fileopen">
<polygon fill="none" stroke="black" points="194,-24 194,-54 352,-54 352,-24 194,-24"/>
<text text-anchor="start" x="202" y="-42" font-family="FreeSans" font-size="10.00">Fun4AllSRawEventInputManager</text>
<text text-anchor="middle" x="273" y="-31" font-family="FreeSans" font-size="10.00">::fileopen</text>
</a>
</g>
</g>
<!-- Node1&#45;&gt;Node2 -->
<g id="edge1" class="edge"><title>Node1&#45;&gt;Node2</title>
<path fill="none" stroke="midnightblue" d="M158.094,-39C166.601,-39 175.302,-39 183.918,-39"/>
<polygon fill="midnightblue" stroke="midnightblue" points="183.975,-42.5001 193.975,-39 183.975,-35.5001 183.975,-42.5001"/>
</g>
<!-- Node3 -->
<g id="node3" class="node"><title>Node3</title>
<g id="a_node3"><a xlink:href="../../d4/da9/classFun4AllInputManager.html#a98ac3fb04956625a423ef41a3909ba27" target="_top" xlink:title="Fun4AllInputManager\l::AddToFileOpened">
<polygon fill="none" stroke="black" points="412.5,-49 412.5,-79 521.5,-79 521.5,-49 412.5,-49"/>
<text text-anchor="start" x="420.5" y="-67" font-family="FreeSans" font-size="10.00">Fun4AllInputManager</text>
<text text-anchor="middle" x="467" y="-56" font-family="FreeSans" font-size="10.00">::AddToFileOpened</text>
</a>
</g>
</g>
<!-- Node2&#45;&gt;Node3 -->
<g id="edge2" class="edge"><title>Node2&#45;&gt;Node3</title>
<path fill="none" stroke="midnightblue" d="M352.094,-49.1685C368.701,-51.3309 386.05,-53.5898 402.055,-55.6738"/>
<polygon fill="midnightblue" stroke="midnightblue" points="401.99,-59.1948 412.358,-57.0153 402.893,-52.2534 401.99,-59.1948"/>
</g>
<!-- Node4 -->
<g id="node4" class="node"><title>Node4</title>
<g id="a_node4"><a xlink:href="../../d5/dd4/classFun4AllSRawEventInputManager.html#a7849dc28e35c3954b17106c4a82ecae6" target="_top" xlink:title="Fun4AllSRawEventInputManager\l::fileclose">
<polygon fill="none" stroke="black" points="388,-0 388,-30 546,-30 546,-0 388,-0"/>
<text text-anchor="start" x="396" y="-18" font-family="FreeSans" font-size="10.00">Fun4AllSRawEventInputManager</text>
<text text-anchor="middle" x="467" y="-7" font-family="FreeSans" font-size="10.00">::fileclose</text>
</a>
</g>
</g>
<!-- Node2&#45;&gt;Node4 -->
<g id="edge3" class="edge"><title>Node2&#45;&gt;Node4</title>
<path fill="none" stroke="midnightblue" d="M352.094,-29.2383C360.601,-28.1749 369.302,-27.0873 377.918,-26.0103"/>
<polygon fill="midnightblue" stroke="midnightblue" points="378.487,-29.4665 387.975,-24.7531 377.619,-22.5205 378.487,-29.4665"/>
</g>
<!-- Node5 -->
<g id="node5" class="node"><title>Node5</title>
<g id="a_node5"><a xlink:href="../../d5/dec/classFun4AllBase.html#a41f9ac377743d046f590617fd6f4f0ed" target="_top" xlink:title="Returns the name of this module. ">
<polygon fill="none" stroke="black" points="582.5,-5.5 582.5,-24.5 683.5,-24.5 683.5,-5.5 582.5,-5.5"/>
<text text-anchor="middle" x="633" y="-12.5" font-family="FreeSans" font-size="10.00">Fun4AllBase::Name</text>
</a>
</g>
</g>
<!-- Node4&#45;&gt;Node5 -->
<g id="edge4" class="edge"><title>Node4&#45;&gt;Node5</title>
<path fill="none" stroke="midnightblue" d="M546.158,-15C554.838,-15 563.576,-15 571.982,-15"/>
<polygon fill="midnightblue" stroke="midnightblue" points="572.043,-18.5001 582.043,-15 572.043,-11.5001 572.043,-18.5001"/>
</g>
</g>
</svg>
