<?xml version="1.0" encoding="UTF-8" standalone="no"?>
<!DOCTYPE svg PUBLIC "-//W3C//DTD SVG 1.1//EN"
 "http://www.w3.org/Graphics/SVG/1.1/DTD/svg11.dtd">
<!-- Generated by graphviz version 2.36.0 (20140111.2315)
 -->
<!-- Title: seaquest&#45;offline/fun4all/fun4all/Fun4AllDstInputManager.h Pages: 1 -->
<svg width="351pt" height="196pt"
 viewBox="0.00 0.00 351.00 196.00" xmlns="http://www.w3.org/2000/svg" xmlns:xlink="http://www.w3.org/1999/xlink">
<g id="graph0" class="graph" transform="scale(1 1) rotate(0) translate(4 192)">
<title>seaquest&#45;offline/fun4all/fun4all/Fun4AllDstInputManager.h</title>
<!-- Node1 -->
<g id="node1" class="node"><title>Node1</title>
<polygon fill="#bfbfbf" stroke="black" points="92,-157 92,-187 258,-187 258,-157 92,-157"/>
<text text-anchor="start" x="100" y="-175" font-family="FreeSans" font-size="10.00">seaquest&#45;offline/fun4all</text>
<text text-anchor="middle" x="175" y="-164" font-family="FreeSans" font-size="10.00">/fun4all/Fun4AllDstInputManager.h</text>
</g>
<!-- Node2 -->
<g id="node2" class="node"><title>Node2</title>
<g id="a_node2"><a xlink:href="../../d3/d53/Fun4AllDstInputManager_8cc.html" target="_top" xlink:title="seaquest&#45;offline/fun4all\l/fun4all/Fun4AllDstInputManager.cc">
<polygon fill="none" stroke="black" points="-0.5,-84 -0.5,-114 170.5,-114 170.5,-84 -0.5,-84"/>
<text text-anchor="start" x="7.5" y="-102" font-family="FreeSans" font-size="10.00">seaquest&#45;offline/fun4all</text>
<text text-anchor="middle" x="85" y="-91" font-family="FreeSans" font-size="10.00">/fun4all/Fun4AllDstInputManager.cc</text>
</a>
</g>
</g>
<!-- Node1&#45;&gt;Node2 -->
<g id="edge1" class="edge"><title>Node1&#45;&gt;Node2</title>
<path fill="none" stroke="midnightblue" d="M148.995,-150.485C134.271,-138.87 116.224,-124.632 103.052,-114.241"/>
<polygon fill="midnightblue" stroke="midnightblue" points="147.2,-153.527 157.219,-156.973 151.536,-148.031 147.2,-153.527"/>
</g>
<!-- Node3 -->
<g id="node3" class="node"><title>Node3</title>
<g id="a_node3"><a xlink:href="../../d2/dab/Fun4AllNoSyncDstInputManager_8h.html" target="_top" xlink:title="seaquest&#45;offline/fun4all\l/fun4all/Fun4AllNoSyncDstInput\lManager.h">
<polygon fill="none" stroke="black" points="188.5,-78.5 188.5,-119.5 343.5,-119.5 343.5,-78.5 188.5,-78.5"/>
<text text-anchor="start" x="196.5" y="-107.5" font-family="FreeSans" font-size="10.00">seaquest&#45;offline/fun4all</text>
<text text-anchor="start" x="196.5" y="-96.5" font-family="FreeSans" font-size="10.00">/fun4all/Fun4AllNoSyncDstInput</text>
<text text-anchor="middle" x="266" y="-85.5" font-family="FreeSans" font-size="10.00">Manager.h</text>
</a>
</g>
</g>
<!-- Node1&#45;&gt;Node3 -->
<g id="edge2" class="edge"><title>Node1&#45;&gt;Node3</title>
<path fill="none" stroke="midnightblue" d="M201.171,-150.581C213.64,-140.853 228.487,-129.268 240.825,-119.642"/>
<polygon fill="midnightblue" stroke="midnightblue" points="198.71,-148.062 192.979,-156.973 203.016,-153.581 198.71,-148.062"/>
</g>
<!-- Node4 -->
<g id="node4" class="node"><title>Node4</title>
<g id="a_node4"><a xlink:href="../../d9/d35/Fun4AllNoSyncDstInputManager_8cc.html" target="_top" xlink:title="seaquest&#45;offline/fun4all\l/fun4all/Fun4AllNoSyncDstInput\lManager.cc">
<polygon fill="none" stroke="black" points="188.5,-0.5 188.5,-41.5 343.5,-41.5 343.5,-0.5 188.5,-0.5"/>
<text text-anchor="start" x="196.5" y="-29.5" font-family="FreeSans" font-size="10.00">seaquest&#45;offline/fun4all</text>
<text text-anchor="start" x="196.5" y="-18.5" font-family="FreeSans" font-size="10.00">/fun4all/Fun4AllNoSyncDstInput</text>
<text text-anchor="middle" x="266" y="-7.5" font-family="FreeSans" font-size="10.00">Manager.cc</text>
</a>
</g>
</g>
<!-- Node3&#45;&gt;Node4 -->
<g id="edge3" class="edge"><title>Node3&#45;&gt;Node4</title>
<path fill="none" stroke="midnightblue" d="M266,-68.2965C266,-59.3009 266,-49.6532 266,-41.5056"/>
<polygon fill="midnightblue" stroke="midnightblue" points="262.5,-68.4281 266,-78.4281 269.5,-68.4281 262.5,-68.4281"/>
</g>
</g>
</svg>
