<?xml version="1.0" encoding="UTF-8" standalone="no"?>
<!DOCTYPE svg PUBLIC "-//W3C//DTD SVG 1.1//EN"
 "http://www.w3.org/Graphics/SVG/1.1/DTD/svg11.dtd">
<!-- Generated by graphviz version 2.30.1 (20200930.0103)
 -->
<!-- Title: Fun4AllServer::DisconnectDB Pages: 1 -->
<svg width="882pt" height="1496pt"
 viewBox="0.00 0.00 882.00 1496.28" xmlns="http://www.w3.org/2000/svg" xmlns:xlink="http://www.w3.org/1999/xlink">
<g id="graph0" class="graph" transform="scale(1 1) rotate(0) translate(4 1492.28)">
<title>Fun4AllServer::DisconnectDB</title>
<!-- Node1 -->
<g id="node1" class="node"><title>Node1</title>
<polygon fill="#bfbfbf" stroke="black" points="0.5,-741.5 0.5,-760.5 143.5,-760.5 143.5,-741.5 0.5,-741.5"/>
<text text-anchor="middle" x="72" y="-748.5" font-family="FreeSans" font-size="10.00">Fun4AllServer::DisconnectDB</text>
</g>
<!-- Node2 -->
<g id="node2" class="node"><title>Node2</title>
<g id="a_node2"><a xlink:href="../../da/d29/classFun4AllServer.html#afcfc5583204cac58b4e66a2406187a18" target="_top" xlink:title="Fun4AllServer::BeginRun">
<polygon fill="none" stroke="black" points="180,-741.5 180,-760.5 304,-760.5 304,-741.5 180,-741.5"/>
<text text-anchor="middle" x="242" y="-748.5" font-family="FreeSans" font-size="10.00">Fun4AllServer::BeginRun</text>
</a>
</g>
</g>
<!-- Node1&#45;&gt;Node2 -->
<g id="edge1" class="edge"><title>Node1&#45;&gt;Node2</title>
<path fill="none" stroke="midnightblue" d="M153.964,-751C162.693,-751 171.466,-751 179.904,-751"/>
<polygon fill="midnightblue" stroke="midnightblue" points="153.76,-747.5 143.76,-751 153.76,-754.5 153.76,-747.5"/>
</g>
<!-- Node3 -->
<g id="node3" class="node"><title>Node3</title>
<g id="a_node3"><a xlink:href="../../da/d29/classFun4AllServer.html#a11bbc8b2f53bc06e0b05ee202dd6372a" target="_top" xlink:title="run n events (0 means up to end of file) ">
<polygon fill="none" stroke="black" points="340.5,-741.5 340.5,-760.5 435.5,-760.5 435.5,-741.5 340.5,-741.5"/>
<text text-anchor="middle" x="388" y="-748.5" font-family="FreeSans" font-size="10.00">Fun4AllServer::run</text>
</a>
</g>
</g>
<!-- Node2&#45;&gt;Node3 -->
<g id="edge2" class="edge"><title>Node2&#45;&gt;Node3</title>
<path fill="none" stroke="midnightblue" d="M314.07,-751C322.961,-751 331.87,-751 340.257,-751"/>
<polygon fill="midnightblue" stroke="midnightblue" points="314.069,-747.5 304.069,-751 314.069,-754.5 314.069,-747.5"/>
</g>
<!-- Node4 -->
<g id="node4" class="node"><title>Node4</title>
<g id="a_node4"><a xlink:href="../../da/daa/Fun4RealDst_8C.html#af2bc551d71266cd8c5a6daeea6a861d8" target="_top" xlink:title="Fun4MainDaq.C: Fun4all macro to decode the MainDAQ data. ">
<polygon fill="none" stroke="black" points="656,-1444.5 656,-1463.5 728,-1463.5 728,-1444.5 656,-1444.5"/>
<text text-anchor="middle" x="692" y="-1451.5" font-family="FreeSans" font-size="10.00">Fun4RealDst</text>
</a>
</g>
</g>
<!-- Node3&#45;&gt;Node4 -->
<g id="edge3" class="edge"><title>Node3&#45;&gt;Node4</title>
<path fill="none" stroke="midnightblue" d="M389.78,-770.883C394.305,-881.088 418.833,-1413.69 472,-1461 527.272,-1510.19 624.973,-1480.59 668.725,-1463.53"/>
<polygon fill="midnightblue" stroke="midnightblue" points="393.265,-770.414 389.365,-760.563 386.27,-770.696 393.265,-770.414"/>
</g>
<!-- Node5 -->
<g id="node5" class="node"><title>Node5</title>
<g id="a_node5"><a xlink:href="../../da/daa/Fun4RealDst_8C.html#aa80eadb6952b5d52a756d7cf52d05770" target="_top" xlink:title="Function to analyze multiple DST files. ">
<polygon fill="none" stroke="black" points="645.5,-1330.5 645.5,-1349.5 738.5,-1349.5 738.5,-1330.5 645.5,-1330.5"/>
<text text-anchor="middle" x="692" y="-1337.5" font-family="FreeSans" font-size="10.00">Fun4MultiRealDst</text>
</a>
</g>
</g>
<!-- Node3&#45;&gt;Node5 -->
<g id="edge4" class="edge"><title>Node3&#45;&gt;Node5</title>
<path fill="none" stroke="midnightblue" d="M389.87,-770.833C394.793,-878.499 420.762,-1389.6 472,-1435 516.576,-1474.49 551.631,-1459.31 606,-1435 646.003,-1417.11 674.974,-1370.07 686.048,-1349.67"/>
<polygon fill="midnightblue" stroke="midnightblue" points="393.361,-770.546 389.416,-760.713 386.368,-770.86 393.361,-770.546"/>
</g>
<!-- Node6 -->
<g id="node6" class="node"><title>Node6</title>
<g id="a_node6"><a xlink:href="../../d5/df8/AnaSimDst_2work_2Fun4SimDst_8C.html#abf0708efff889232b6c0a7359cfb70ae" target="_top" xlink:title="Fun4SimDst.C: Fun4all macro to analyze the E1039 simulated DST files. ">
<polygon fill="none" stroke="black" points="504,-1406.5 504,-1425.5 574,-1425.5 574,-1406.5 504,-1406.5"/>
<text text-anchor="middle" x="539" y="-1413.5" font-family="FreeSans" font-size="10.00">Fun4SimDst</text>
</a>
</g>
</g>
<!-- Node3&#45;&gt;Node6 -->
<g id="edge5" class="edge"><title>Node3&#45;&gt;Node6</title>
<path fill="none" stroke="midnightblue" d="M388.731,-770.846C387.808,-868.789 388.6,-1299.8 472,-1397 479.92,-1406.23 492.006,-1411.12 503.682,-1413.67"/>
<polygon fill="midnightblue" stroke="midnightblue" points="392.231,-770.859 388.844,-760.82 385.231,-770.78 392.231,-770.859"/>
</g>
<!-- Node7 -->
<g id="node7" class="node"><title>Node7</title>
<g id="a_node7"><a xlink:href="../../d8/d69/AnaSimDst_2work_2Fun4SimMicroDst_8C.html#ab980c780491ded824d61247fc1fa6127" target="_top" xlink:title="Fun4SimMicroDst.C: Fun4all macro to analyze you uDST. ">
<polygon fill="none" stroke="black" points="492,-1368.5 492,-1387.5 586,-1387.5 586,-1368.5 492,-1368.5"/>
<text text-anchor="middle" x="539" y="-1375.5" font-family="FreeSans" font-size="10.00">Fun4SimMicroDst</text>
</a>
</g>
</g>
<!-- Node3&#45;&gt;Node7 -->
<g id="edge6" class="edge"><title>Node3&#45;&gt;Node7</title>
<path fill="none" stroke="midnightblue" d="M388.908,-770.851C388.872,-865.272 393.391,-1268.11 472,-1359 477.226,-1365.04 484.237,-1369.22 491.742,-1372.1"/>
<polygon fill="midnightblue" stroke="midnightblue" points="392.408,-770.699 388.931,-760.691 385.408,-770.683 392.408,-770.699"/>
</g>
<!-- Node8 -->
<g id="node8" class="node"><title>Node8</title>
<g id="a_node8"><a xlink:href="../../d3/da6/Fun4Sim__TrkQA_8C.html#a20f55f3330ca74980c4c35261d0761f8" target="_top" xlink:title="Fun4Sim_TrkQA">
<polygon fill="none" stroke="black" points="494.5,-1330.5 494.5,-1349.5 583.5,-1349.5 583.5,-1330.5 494.5,-1330.5"/>
<text text-anchor="middle" x="539" y="-1337.5" font-family="FreeSans" font-size="10.00">Fun4Sim_TrkQA</text>
</a>
</g>
</g>
<!-- Node3&#45;&gt;Node8 -->
<g id="edge7" class="edge"><title>Node3&#45;&gt;Node8</title>
<path fill="none" stroke="midnightblue" d="M389.106,-770.74C389.994,-861.32 398.14,-1236.37 472,-1321 477.88,-1327.74 485.98,-1332.16 494.494,-1335.04"/>
<polygon fill="midnightblue" stroke="midnightblue" points="392.605,-770.489 389.027,-760.517 385.605,-770.544 392.605,-770.489"/>
</g>
<!-- Node9 -->
<g id="node9" class="node"><title>Node9</title>
<g id="a_node9"><a xlink:href="../../de/de6/Fun4AllReco_8C.html#a43d2d478ac0bc12be4a621bacb613bdd" target="_top" xlink:title="Fun4AllReco.C: Fun4all macro to run the reconstruction. ">
<polygon fill="none" stroke="black" points="503,-1292.5 503,-1311.5 575,-1311.5 575,-1292.5 503,-1292.5"/>
<text text-anchor="middle" x="539" y="-1299.5" font-family="FreeSans" font-size="10.00">Fun4AllReco</text>
</a>
</g>
</g>
<!-- Node3&#45;&gt;Node9 -->
<g id="edge8" class="edge"><title>Node3&#45;&gt;Node9</title>
<path fill="none" stroke="midnightblue" d="M389.5,-770.763C392.059,-856.831 406.263,-1198.21 472,-1278 479.753,-1287.41 491.519,-1293.13 502.981,-1296.61"/>
<polygon fill="midnightblue" stroke="midnightblue" points="392.993,-770.462 389.217,-760.563 385.996,-770.656 392.993,-770.462"/>
</g>
<!-- Node10 -->
<g id="node10" class="node"><title>Node10</title>
<g id="a_node10"><a xlink:href="../../db/dbe/Fun4CODA_8C.html#a1bbee777074605aa2a59ddf9b2b52742" target="_top" xlink:title="Fun4CODA">
<polygon fill="none" stroke="black" points="659,-1254.5 659,-1273.5 725,-1273.5 725,-1254.5 659,-1254.5"/>
<text text-anchor="middle" x="692" y="-1261.5" font-family="FreeSans" font-size="10.00">Fun4CODA</text>
</a>
</g>
</g>
<!-- Node3&#45;&gt;Node10 -->
<g id="edge9" class="edge"><title>Node3&#45;&gt;Node10</title>
<path fill="none" stroke="midnightblue" d="M389.35,-770.955C391.249,-854.187 402.982,-1172.39 472,-1238 522.367,-1285.88 611.397,-1278.94 658.95,-1270.84"/>
<polygon fill="midnightblue" stroke="midnightblue" points="392.847,-770.748 389.143,-760.821 385.849,-770.891 392.847,-770.748"/>
</g>
<!-- Node11 -->
<g id="node11" class="node"><title>Node11</title>
<g id="a_node11"><a xlink:href="../../de/daf/Fun4DST_8C.html#a6a43c5ad028285b022976fa872e60cbc" target="_top" xlink:title="Fun4DST">
<polygon fill="none" stroke="black" points="663,-1216.5 663,-1235.5 721,-1235.5 721,-1216.5 663,-1216.5"/>
<text text-anchor="middle" x="692" y="-1223.5" font-family="FreeSans" font-size="10.00">Fun4DST</text>
</a>
</g>
</g>
<!-- Node3&#45;&gt;Node11 -->
<g id="edge10" class="edge"><title>Node3&#45;&gt;Node11</title>
<path fill="none" stroke="midnightblue" d="M389.539,-770.748C392.151,-850.459 406.22,-1147.1 472,-1207 524.626,-1254.92 616.805,-1243.1 662.977,-1233.16"/>
<polygon fill="midnightblue" stroke="midnightblue" points="393.033,-770.504 389.232,-760.615 386.037,-770.716 393.033,-770.504"/>
</g>
<!-- Node12 -->
<g id="node12" class="node"><title>Node12</title>
<g id="a_node12"><a xlink:href="../../d2/d24/Fun4E1039Shielding_8C.html#a42592782dd55d6e219305ff678a00dc2" target="_top" xlink:title="Fun4E1039Shielding">
<polygon fill="none" stroke="black" points="486.5,-1178.5 486.5,-1197.5 591.5,-1197.5 591.5,-1178.5 486.5,-1178.5"/>
<text text-anchor="middle" x="539" y="-1185.5" font-family="FreeSans" font-size="10.00">Fun4E1039Shielding</text>
</a>
</g>
</g>
<!-- Node3&#45;&gt;Node12 -->
<g id="edge11" class="edge"><title>Node3&#45;&gt;Node12</title>
<path fill="none" stroke="midnightblue" d="M390.279,-771.144C395.452,-846.347 417.229,-1109.41 472,-1169 476.034,-1173.39 481.01,-1176.79 486.407,-1179.42"/>
<polygon fill="midnightblue" stroke="midnightblue" points="393.744,-770.493 389.589,-760.747 386.759,-770.957 393.744,-770.493"/>
</g>
<!-- Node13 -->
<g id="node13" class="node"><title>Node13</title>
<g id="a_node13"><a xlink:href="../../d1/da2/E1039Shielding_2int__run_8C.html#a088590a1a5b93b904ba076de8ca1ef82" target="_top" xlink:title="int_run">
<polygon fill="none" stroke="black" points="516,-1140.5 516,-1159.5 562,-1159.5 562,-1140.5 516,-1140.5"/>
<text text-anchor="middle" x="539" y="-1147.5" font-family="FreeSans" font-size="10.00">int_run</text>
</a>
</g>
</g>
<!-- Node3&#45;&gt;Node13 -->
<g id="edge12" class="edge"><title>Node3&#45;&gt;Node13</title>
<path fill="none" stroke="midnightblue" d="M390.669,-770.661C397.01,-840.806 421.818,-1077.43 472,-1131 483.168,-1142.92 501.285,-1147.52 515.714,-1149.23"/>
<polygon fill="midnightblue" stroke="midnightblue" points="394.143,-770.21 389.781,-760.555 387.17,-770.823 394.143,-770.21"/>
</g>
<!-- Node14 -->
<g id="node14" class="node"><title>Node14</title>
<g id="a_node14"><a xlink:href="../../df/dbc/run_8C.html#a078d38b1d96e7c0e4f35d93363cc8325" target="_top" xlink:title="run">
<polygon fill="none" stroke="red" points="524,-1102.5 524,-1121.5 554,-1121.5 554,-1102.5 524,-1102.5"/>
<text text-anchor="middle" x="539" y="-1109.5" font-family="FreeSans" font-size="10.00">run</text>
</a>
</g>
</g>
<!-- Node3&#45;&gt;Node14 -->
<g id="edge13" class="edge"><title>Node3&#45;&gt;Node14</title>
<path fill="none" stroke="midnightblue" d="M391.198,-770.78C398.876,-836.42 426.529,-1045.57 472,-1093 485.532,-1107.12 508.813,-1110.94 523.798,-1111.87"/>
<polygon fill="midnightblue" stroke="midnightblue" points="394.645,-770.112 390.032,-760.574 387.69,-770.907 394.645,-770.112"/>
</g>
<!-- Node24 -->
<g id="node24" class="node"><title>Node24</title>
<g id="a_node24"><a xlink:href="../../d4/d6b/Fun4DQ_8C.html#ade50123660c824c610022429d0847486" target="_top" xlink:title="Fun4DQ">
<polygon fill="none" stroke="black" points="512.5,-1064.5 512.5,-1083.5 565.5,-1083.5 565.5,-1064.5 512.5,-1064.5"/>
<text text-anchor="middle" x="539" y="-1071.5" font-family="FreeSans" font-size="10.00">Fun4DQ</text>
</a>
</g>
</g>
<!-- Node3&#45;&gt;Node24 -->
<g id="edge28" class="edge"><title>Node3&#45;&gt;Node24</title>
<path fill="none" stroke="midnightblue" d="M388.228,-770.698C387.252,-824.283 392.184,-974.077 472,-1055 482.55,-1065.7 498.703,-1070.47 512.388,-1072.55"/>
<polygon fill="midnightblue" stroke="midnightblue" points="391.732,-770.616 388.511,-760.522 384.734,-770.421 391.732,-770.616"/>
</g>
<!-- Node25 -->
<g id="node25" class="node"><title>Node25</title>
<g id="a_node25"><a xlink:href="../../db/d2f/Fun4EMCal_8C.html#a7559861c26cbabfa3e4349440d5af51b" target="_top" xlink:title="Fun4EMCal">
<polygon fill="none" stroke="black" points="505.5,-1026.5 505.5,-1045.5 572.5,-1045.5 572.5,-1026.5 505.5,-1026.5"/>
<text text-anchor="middle" x="539" y="-1033.5" font-family="FreeSans" font-size="10.00">Fun4EMCal</text>
</a>
</g>
</g>
<!-- Node3&#45;&gt;Node25 -->
<g id="edge29" class="edge"><title>Node3&#45;&gt;Node25</title>
<path fill="none" stroke="midnightblue" d="M389.147,-770.828C390.618,-819.885 401.402,-947.949 472,-1017 480.865,-1025.67 493.42,-1030.43 505.203,-1033.03"/>
<polygon fill="midnightblue" stroke="midnightblue" points="392.642,-770.553 388.946,-760.624 385.643,-770.691 392.642,-770.553"/>
</g>
<!-- Node26 -->
<g id="node26" class="node"><title>Node26</title>
<g id="a_node26"><a xlink:href="../../d7/d2d/macro__ana_2Fun4All_8C.html#afa2b16358017bbcbfbab8e9243beb61d" target="_top" xlink:title="Fun4All">
<polygon fill="none" stroke="black" points="514,-988.5 514,-1007.5 564,-1007.5 564,-988.5 514,-988.5"/>
<text text-anchor="middle" x="539" y="-995.5" font-family="FreeSans" font-size="10.00">Fun4All</text>
</a>
</g>
</g>
<!-- Node3&#45;&gt;Node26 -->
<g id="edge30" class="edge"><title>Node3&#45;&gt;Node26</title>
<path fill="none" stroke="midnightblue" d="M390.359,-770.954C394.457,-815.091 410.529,-921.62 472,-979 483.244,-989.496 499.915,-994.238 513.689,-996.361"/>
<polygon fill="midnightblue" stroke="midnightblue" points="393.842,-770.601 389.539,-760.92 386.866,-771.171 393.842,-770.601"/>
</g>
<!-- Node27 -->
<g id="node27" class="node"><title>Node27</title>
<g id="a_node27"><a xlink:href="../../d8/d19/HitEmbedding_2macro__embed_2Fun4Sim_8C.html#a023b21d2b27b8be1999a1cb7e43bbb23" target="_top" xlink:title="Fun4Sim">
<polygon fill="none" stroke="black" points="511,-950.5 511,-969.5 567,-969.5 567,-950.5 511,-950.5"/>
<text text-anchor="middle" x="539" y="-957.5" font-family="FreeSans" font-size="10.00">Fun4Sim</text>
</a>
</g>
</g>
<!-- Node3&#45;&gt;Node27 -->
<g id="edge31" class="edge"><title>Node3&#45;&gt;Node27</title>
<path fill="none" stroke="midnightblue" d="M391.924,-770.476C398.733,-808.911 419.273,-894.79 472,-941 482.671,-950.352 497.683,-955.115 510.694,-957.535"/>
<polygon fill="midnightblue" stroke="midnightblue" points="395.37,-769.863 390.291,-760.565 388.463,-771 395.37,-769.863"/>
</g>
<!-- Node28 -->
<g id="node28" class="node"><title>Node28</title>
<g id="a_node28"><a xlink:href="../../d6/d6a/Fun4HodoAccGap_8C.html#a7aaa0687f144d5e7b417d7e9ac5f36da" target="_top" xlink:title="Fun4HodoAccGap">
<polygon fill="none" stroke="black" points="491,-912.5 491,-931.5 587,-931.5 587,-912.5 491,-912.5"/>
<text text-anchor="middle" x="539" y="-919.5" font-family="FreeSans" font-size="10.00">Fun4HodoAccGap</text>
</a>
</g>
</g>
<!-- Node3&#45;&gt;Node28 -->
<g id="edge32" class="edge"><title>Node3&#45;&gt;Node28</title>
<path fill="none" stroke="midnightblue" d="M394.284,-770.533C404.073,-802.97 428.138,-867.845 472,-903 477.582,-907.474 484.174,-910.895 490.994,-913.51"/>
<polygon fill="midnightblue" stroke="midnightblue" points="397.531,-769.161 391.407,-760.515 390.803,-771.093 397.531,-769.161"/>
</g>
<!-- Node29 -->
<g id="node29" class="node"><title>Node29</title>
<g id="a_node29"><a xlink:href="../../de/d66/Fun4Pythia8Demo_8C.html#a6a06be36766511c5ad76013c9cbfe5b5" target="_top" xlink:title="Fun4Pythia8Demo">
<polygon fill="none" stroke="black" points="491,-874.5 491,-893.5 587,-893.5 587,-874.5 491,-874.5"/>
<text text-anchor="middle" x="539" y="-881.5" font-family="FreeSans" font-size="10.00">Fun4Pythia8Demo</text>
</a>
</g>
</g>
<!-- Node3&#45;&gt;Node29 -->
<g id="edge33" class="edge"><title>Node3&#45;&gt;Node29</title>
<path fill="none" stroke="midnightblue" d="M397.767,-769.914C410.515,-795.335 436.573,-840.192 472,-865 477.665,-868.967 484.151,-872.111 490.795,-874.603"/>
<polygon fill="midnightblue" stroke="midnightblue" points="400.773,-768.092 393.266,-760.616 394.473,-771.142 400.773,-768.092"/>
</g>
<!-- Node30 -->
<g id="node30" class="node"><title>Node30</title>
<g id="a_node30"><a xlink:href="../../d5/dcc/splitDST_8C.html#a4903aee6c2f9833d2e9903f991e084ec" target="_top" xlink:title="splitDST">
<polygon fill="none" stroke="black" points="512.5,-836.5 512.5,-855.5 565.5,-855.5 565.5,-836.5 512.5,-836.5"/>
<text text-anchor="middle" x="539" y="-843.5" font-family="FreeSans" font-size="10.00">splitDST</text>
</a>
</g>
</g>
<!-- Node3&#45;&gt;Node30 -->
<g id="edge34" class="edge"><title>Node3&#45;&gt;Node30</title>
<path fill="none" stroke="midnightblue" d="M403.555,-768.372C418.901,-785.622 444.61,-811.649 472,-827 484.482,-833.996 499.764,-838.608 512.478,-841.534"/>
<polygon fill="midnightblue" stroke="midnightblue" points="406.09,-765.953 396.893,-760.694 400.803,-770.541 406.09,-765.953"/>
</g>
<!-- Node31 -->
<g id="node31" class="node"><title>Node31</title>
<g id="a_node31"><a xlink:href="../../db/dea/RecoE1039Data_8C.html#a619388c470b52b98a611cb6f18ba24c1" target="_top" xlink:title="RecoE1039Data">
<polygon fill="none" stroke="black" points="496,-798.5 496,-817.5 582,-817.5 582,-798.5 496,-798.5"/>
<text text-anchor="middle" x="539" y="-805.5" font-family="FreeSans" font-size="10.00">RecoE1039Data</text>
</a>
</g>
</g>
<!-- Node3&#45;&gt;Node31 -->
<g id="edge35" class="edge"><title>Node3&#45;&gt;Node31</title>
<path fill="none" stroke="midnightblue" d="M417.034,-765.101C432.917,-772.767 453.294,-782.069 472,-789 481.28,-792.438 491.481,-795.644 501.029,-798.407"/>
<polygon fill="midnightblue" stroke="midnightblue" points="418.302,-761.825 407.781,-760.575 415.226,-768.113 418.302,-761.825"/>
</g>
<!-- Node32 -->
<g id="node32" class="node"><title>Node32</title>
<g id="a_node32"><a xlink:href="../../d0/d9c/RecoE1039Sim_8C.html#a7505ed22de28394b320e370de5caa6c3" target="_top" xlink:title="RecoE1039Sim">
<polygon fill="none" stroke="black" points="497.5,-760.5 497.5,-779.5 580.5,-779.5 580.5,-760.5 497.5,-760.5"/>
<text text-anchor="middle" x="539" y="-767.5" font-family="FreeSans" font-size="10.00">RecoE1039Sim</text>
</a>
</g>
</g>
<!-- Node3&#45;&gt;Node32 -->
<g id="edge36" class="edge"><title>Node3&#45;&gt;Node32</title>
<path fill="none" stroke="midnightblue" d="M445.697,-758.23C462.933,-760.428 481.519,-762.798 497.463,-764.831"/>
<polygon fill="midnightblue" stroke="midnightblue" points="446.098,-754.753 435.736,-756.96 445.213,-761.696 446.098,-754.753"/>
</g>
<!-- Node33 -->
<g id="node33" class="node"><title>Node33</title>
<g id="a_node33"><a xlink:href="../../df/d0c/RecoE906Data_8C.html#ad032525ca693000ba382d14d82bf9f2b" target="_top" xlink:title="RecoE906Data">
<polygon fill="none" stroke="black" points="498.5,-722.5 498.5,-741.5 579.5,-741.5 579.5,-722.5 498.5,-722.5"/>
<text text-anchor="middle" x="539" y="-729.5" font-family="FreeSans" font-size="10.00">RecoE906Data</text>
</a>
</g>
</g>
<!-- Node3&#45;&gt;Node33 -->
<g id="edge37" class="edge"><title>Node3&#45;&gt;Node33</title>
<path fill="none" stroke="midnightblue" d="M445.872,-743.748C463.414,-741.511 482.339,-739.098 498.447,-737.044"/>
<polygon fill="midnightblue" stroke="midnightblue" points="445.213,-740.304 435.736,-745.04 446.098,-747.247 445.213,-740.304"/>
</g>
<!-- Node34 -->
<g id="node34" class="node"><title>Node34</title>
<g id="a_node34"><a xlink:href="../../d8/de7/Fun4SRawEvent_8C.html#aaa9bb2e956ce860a8cb6e7845bcc4ed5" target="_top" xlink:title="Fun4SRawEvent">
<polygon fill="none" stroke="black" points="495,-684.5 495,-703.5 583,-703.5 583,-684.5 495,-684.5"/>
<text text-anchor="middle" x="539" y="-691.5" font-family="FreeSans" font-size="10.00">Fun4SRawEvent</text>
</a>
</g>
</g>
<!-- Node3&#45;&gt;Node34 -->
<g id="edge38" class="edge"><title>Node3&#45;&gt;Node34</title>
<path fill="none" stroke="midnightblue" d="M417.034,-736.899C432.917,-729.233 453.294,-719.931 472,-713 481.28,-709.562 491.481,-706.356 501.029,-703.593"/>
<polygon fill="midnightblue" stroke="midnightblue" points="415.226,-733.887 407.781,-741.425 418.302,-740.175 415.226,-733.887"/>
</g>
<!-- Node35 -->
<g id="node35" class="node"><title>Node35</title>
<g id="a_node35"><a xlink:href="../../d9/de0/Fun4All__G4__BNL_8C.html#a62a558c2bb73d1be82a65b16f52ce2e0" target="_top" xlink:title="Fun4All_G4_BNL">
<polygon fill="none" stroke="black" points="493,-646.5 493,-665.5 585,-665.5 585,-646.5 493,-646.5"/>
<text text-anchor="middle" x="539" y="-653.5" font-family="FreeSans" font-size="10.00">Fun4All_G4_BNL</text>
</a>
</g>
</g>
<!-- Node3&#45;&gt;Node35 -->
<g id="edge39" class="edge"><title>Node3&#45;&gt;Node35</title>
<path fill="none" stroke="midnightblue" d="M403.555,-733.628C418.901,-716.378 444.61,-690.351 472,-675 478.865,-671.152 486.577,-668.026 494.243,-665.504"/>
<polygon fill="midnightblue" stroke="midnightblue" points="400.803,-731.459 396.893,-741.306 406.09,-736.047 400.803,-731.459"/>
</g>
<!-- Node36 -->
<g id="node36" class="node"><title>Node36</title>
<g id="a_node36"><a xlink:href="../../de/dad/Fun4All__G4__BNL__R1_8C.html#a361be596f3554cfa3d0fc26346c50c31" target="_top" xlink:title="Fun4All_G4_BNL_R1">
<polygon fill="none" stroke="black" points="484.5,-608.5 484.5,-627.5 593.5,-627.5 593.5,-608.5 484.5,-608.5"/>
<text text-anchor="middle" x="539" y="-615.5" font-family="FreeSans" font-size="10.00">Fun4All_G4_BNL_R1</text>
</a>
</g>
</g>
<!-- Node3&#45;&gt;Node36 -->
<g id="edge40" class="edge"><title>Node3&#45;&gt;Node36</title>
<path fill="none" stroke="midnightblue" d="M397.767,-732.086C410.515,-706.665 436.573,-661.808 472,-637 477.567,-633.102 483.927,-629.997 490.451,-627.527"/>
<polygon fill="midnightblue" stroke="midnightblue" points="394.473,-730.858 393.266,-741.384 400.773,-733.908 394.473,-730.858"/>
</g>
<!-- Node37 -->
<g id="node37" class="node"><title>Node37</title>
<g id="a_node37"><a xlink:href="../../d1/d24/Fun4All__G4__E1039_8C.html#ad81863c21df83a735c57713bc9ec59b1" target="_top" xlink:title="Fun4All_G4_E1039">
<polygon fill="none" stroke="black" points="489,-570.5 489,-589.5 589,-589.5 589,-570.5 489,-570.5"/>
<text text-anchor="middle" x="539" y="-577.5" font-family="FreeSans" font-size="10.00">Fun4All_G4_E1039</text>
</a>
</g>
</g>
<!-- Node3&#45;&gt;Node37 -->
<g id="edge41" class="edge"><title>Node3&#45;&gt;Node37</title>
<path fill="none" stroke="midnightblue" d="M394.284,-731.467C404.073,-699.03 428.138,-634.155 472,-599 477.024,-594.973 482.865,-591.8 488.956,-589.299"/>
<polygon fill="midnightblue" stroke="midnightblue" points="390.803,-730.907 391.407,-741.485 397.531,-732.839 390.803,-730.907"/>
</g>
<!-- Node38 -->
<g id="node38" class="node"><title>Node38</title>
<g id="a_node38"><a xlink:href="../../de/d10/Fun4All__G4__E1039__R1_8C.html#aa484b834b55e3114dfd4cd82dcd11831" target="_top" xlink:title="Fun4All_G4_E1039_R1">
<polygon fill="none" stroke="black" points="480.5,-532.5 480.5,-551.5 597.5,-551.5 597.5,-532.5 480.5,-532.5"/>
<text text-anchor="middle" x="539" y="-539.5" font-family="FreeSans" font-size="10.00">Fun4All_G4_E1039_R1</text>
</a>
</g>
</g>
<!-- Node3&#45;&gt;Node38 -->
<g id="edge42" class="edge"><title>Node3&#45;&gt;Node38</title>
<path fill="none" stroke="midnightblue" d="M391.924,-731.524C398.733,-693.089 419.273,-607.21 472,-561 476.394,-557.149 481.524,-554.076 486.947,-551.625"/>
<polygon fill="midnightblue" stroke="midnightblue" points="388.463,-731 390.291,-741.435 395.37,-732.137 388.463,-731"/>
</g>
<!-- Node39 -->
<g id="node39" class="node"><title>Node39</title>
<g id="a_node39"><a xlink:href="../../df/d98/Fun4All__G4__E1039__R2_8C.html#a0cc5938b98723b2d5216049aad7edb01" target="_top" xlink:title="Fun4All_G4_E1039_R2">
<polygon fill="none" stroke="black" points="480.5,-494.5 480.5,-513.5 597.5,-513.5 597.5,-494.5 480.5,-494.5"/>
<text text-anchor="middle" x="539" y="-501.5" font-family="FreeSans" font-size="10.00">Fun4All_G4_E1039_R2</text>
</a>
</g>
</g>
<!-- Node3&#45;&gt;Node39 -->
<g id="edge43" class="edge"><title>Node3&#45;&gt;Node39</title>
<path fill="none" stroke="midnightblue" d="M390.359,-731.046C394.457,-686.909 410.529,-580.38 472,-523 476.184,-519.095 481.119,-515.986 486.377,-513.512"/>
<polygon fill="midnightblue" stroke="midnightblue" points="386.866,-730.829 389.539,-741.08 393.842,-731.399 386.866,-730.829"/>
</g>
<!-- Node40 -->
<g id="node40" class="node"><title>Node40</title>
<g id="a_node40"><a xlink:href="../../d1/d91/Fun4All__G4__E1039__R2__V2_8C.html#a89f8b08cddafb17f4ba14e509a0ca1db" target="_top" xlink:title="Fun4All_G4_E1039_R2_V2">
<polygon fill="none" stroke="black" points="472,-456.5 472,-475.5 606,-475.5 606,-456.5 472,-456.5"/>
<text text-anchor="middle" x="539" y="-463.5" font-family="FreeSans" font-size="10.00">Fun4All_G4_E1039_R2_V2</text>
</a>
</g>
</g>
<!-- Node3&#45;&gt;Node40 -->
<g id="edge44" class="edge"><title>Node3&#45;&gt;Node40</title>
<path fill="none" stroke="midnightblue" d="M389.147,-731.172C390.618,-682.115 401.402,-554.051 472,-485 475.921,-481.165 480.564,-478.094 485.543,-475.638"/>
<polygon fill="midnightblue" stroke="midnightblue" points="385.643,-731.309 388.946,-741.376 392.642,-731.447 385.643,-731.309"/>
</g>
<!-- Node41 -->
<g id="node41" class="node"><title>Node41</title>
<g id="a_node41"><a xlink:href="../../d5/db4/Fun4All__Test_8C.html#ae69a57ea66fbed58544200f95796a66f" target="_top" xlink:title="Fun4All_Test">
<polygon fill="none" stroke="black" points="502,-418.5 502,-437.5 576,-437.5 576,-418.5 502,-418.5"/>
<text text-anchor="middle" x="539" y="-425.5" font-family="FreeSans" font-size="10.00">Fun4All_Test</text>
</a>
</g>
</g>
<!-- Node3&#45;&gt;Node41 -->
<g id="edge45" class="edge"><title>Node3&#45;&gt;Node41</title>
<path fill="none" stroke="midnightblue" d="M388.228,-731.302C387.252,-677.717 392.184,-527.923 472,-447 479.954,-438.935 491.094,-434.24 501.959,-431.523"/>
<polygon fill="midnightblue" stroke="midnightblue" points="384.734,-731.579 388.511,-741.478 391.732,-731.384 384.734,-731.579"/>
</g>
<!-- Node42 -->
<g id="node42" class="node"><title>Node42</title>
<g id="a_node42"><a xlink:href="../../d7/d66/Fun4PatternDB_8C.html#a9e68afec0dfdd12961d550386529d5eb" target="_top" xlink:title="Fun4PatternDB">
<polygon fill="none" stroke="black" points="497.5,-380.5 497.5,-399.5 580.5,-399.5 580.5,-380.5 497.5,-380.5"/>
<text text-anchor="middle" x="539" y="-387.5" font-family="FreeSans" font-size="10.00">Fun4PatternDB</text>
</a>
</g>
</g>
<!-- Node3&#45;&gt;Node42 -->
<g id="edge46" class="edge"><title>Node3&#45;&gt;Node42</title>
<path fill="none" stroke="midnightblue" d="M391.198,-731.22C398.876,-665.58 426.529,-456.432 472,-409 478.766,-401.942 487.969,-397.456 497.354,-394.619"/>
<polygon fill="midnightblue" stroke="midnightblue" points="387.69,-731.093 390.032,-741.426 394.645,-731.888 387.69,-731.093"/>
</g>
<!-- Node43 -->
<g id="node43" class="node"><title>Node43</title>
<g id="a_node43"><a xlink:href="../../d2/d3a/Fun4TrkDev_8C.html#abd98cf50196a6ad7cb2289d1f0442b73" target="_top" xlink:title="Fun4TrkDev">
<polygon fill="none" stroke="black" points="504.5,-342.5 504.5,-361.5 573.5,-361.5 573.5,-342.5 504.5,-342.5"/>
<text text-anchor="middle" x="539" y="-349.5" font-family="FreeSans" font-size="10.00">Fun4TrkDev</text>
</a>
</g>
</g>
<!-- Node3&#45;&gt;Node43 -->
<g id="edge47" class="edge"><title>Node3&#45;&gt;Node43</title>
<path fill="none" stroke="midnightblue" d="M390.669,-731.339C397.01,-661.194 421.818,-424.568 472,-371 480.396,-362.037 492.72,-357.211 504.452,-354.643"/>
<polygon fill="midnightblue" stroke="midnightblue" points="387.17,-731.177 389.781,-741.445 394.143,-731.79 387.17,-731.177"/>
</g>
<!-- Node44 -->
<g id="node44" class="node"><title>Node44</title>
<g id="a_node44"><a xlink:href="../../db/d7c/Fun4DumpGeom_8C.html#a18cc63f0a92bfc9f708a373bfc0534f6" target="_top" xlink:title="Fun4DumpGeom">
<polygon fill="none" stroke="black" points="494,-304.5 494,-323.5 584,-323.5 584,-304.5 494,-304.5"/>
<text text-anchor="middle" x="539" y="-311.5" font-family="FreeSans" font-size="10.00">Fun4DumpGeom</text>
</a>
</g>
</g>
<!-- Node3&#45;&gt;Node44 -->
<g id="edge48" class="edge"><title>Node3&#45;&gt;Node44</title>
<path fill="none" stroke="midnightblue" d="M390.279,-730.856C395.452,-655.653 417.229,-392.593 472,-333 477.809,-326.679 485.572,-322.411 493.729,-319.54"/>
<polygon fill="midnightblue" stroke="midnightblue" points="386.759,-731.043 389.589,-741.253 393.744,-731.507 386.759,-731.043"/>
</g>
<!-- Node22 -->
<g id="node22" class="node"><title>Node22</title>
<g id="a_node22"><a xlink:href="../../df/d6a/e1039-core_2online_2macros_2Fun4MainDaq_8C.html#ab9151bcfc5d35e7a25c9cf86fddd2bd2" target="_top" xlink:title="Fun4MainDaq.C: Fun4all macro to decode the MainDAQ data. ">
<polygon fill="none" stroke="black" points="653.5,-750.5 653.5,-769.5 730.5,-769.5 730.5,-750.5 653.5,-750.5"/>
<text text-anchor="middle" x="692" y="-757.5" font-family="FreeSans" font-size="10.00">Fun4MainDaq</text>
</a>
</g>
</g>
<!-- Node3&#45;&gt;Node22 -->
<g id="edge49" class="edge"><title>Node3&#45;&gt;Node22</title>
<path fill="none" stroke="midnightblue" d="M389.398,-731.091C391.462,-650.75 403.69,-351.999 472,-295 517.728,-256.844 560.258,-256.862 606,-295 624.397,-310.339 679.949,-684.55 689.572,-750.211"/>
<polygon fill="midnightblue" stroke="midnightblue" points="385.894,-731.227 389.162,-741.305 392.892,-731.388 385.894,-731.227"/>
</g>
<!-- Node23 -->
<g id="node23" class="node"><title>Node23</title>
<g id="a_node23"><a xlink:href="../../d1/d6b/Fun4MainDaqE906_8C.html#a3617355b5c033a5635408b1cd8c29c35" target="_top" xlink:title="Fun4MainDaq.C: Fun4all macro to decode the MainDAQ data. ">
<polygon fill="none" stroke="black" points="643,-389.5 643,-408.5 741,-408.5 741,-389.5 643,-389.5"/>
<text text-anchor="middle" x="692" y="-396.5" font-family="FreeSans" font-size="10.00">Fun4MainDaqE906</text>
</a>
</g>
</g>
<!-- Node3&#45;&gt;Node23 -->
<g id="edge50" class="edge"><title>Node3&#45;&gt;Node23</title>
<path fill="none" stroke="midnightblue" d="M389.139,-731.323C390.18,-647.876 398.937,-324.686 472,-263 517.506,-224.58 553.91,-234.129 606,-263 656.654,-291.075 681.109,-363.309 688.498,-389.41"/>
<polygon fill="midnightblue" stroke="midnightblue" points="385.638,-731.42 389.037,-741.455 392.637,-731.49 385.638,-731.42"/>
</g>
<!-- Node45 -->
<g id="node45" class="node"><title>Node45</title>
<g id="a_node45"><a xlink:href="../../d8/d6d/classEventDispUI.html#a93421e77c003c06c1aff15cd2adb1c9a" target="_top" xlink:title="EventDispUI::NextEvent">
<polygon fill="none" stroke="black" points="480.5,-190.5 480.5,-209.5 597.5,-209.5 597.5,-190.5 480.5,-190.5"/>
<text text-anchor="middle" x="539" y="-197.5" font-family="FreeSans" font-size="10.00">EventDispUI::NextEvent</text>
</a>
</g>
</g>
<!-- Node3&#45;&gt;Node45 -->
<g id="edge51" class="edge"><title>Node3&#45;&gt;Node45</title>
<path fill="none" stroke="midnightblue" d="M389.5,-731.237C392.059,-645.169 406.263,-303.792 472,-224 477.194,-217.695 484.19,-213.047 491.69,-209.619"/>
<polygon fill="midnightblue" stroke="midnightblue" points="385.996,-731.344 389.217,-741.437 392.993,-731.538 385.996,-731.344"/>
</g>
<!-- Node46 -->
<g id="node46" class="node"><title>Node46</title>
<g id="a_node46"><a xlink:href="../../d8/d6d/classEventDispUI.html#ae9dafaeb3aef27cf0a38037faf17562d" target="_top" xlink:title="EventDispUI::PrevEvent">
<polygon fill="none" stroke="black" points="480.5,-152.5 480.5,-171.5 597.5,-171.5 597.5,-152.5 480.5,-152.5"/>
<text text-anchor="middle" x="539" y="-159.5" font-family="FreeSans" font-size="10.00">EventDispUI::PrevEvent</text>
</a>
</g>
</g>
<!-- Node3&#45;&gt;Node46 -->
<g id="edge52" class="edge"><title>Node3&#45;&gt;Node46</title>
<path fill="none" stroke="midnightblue" d="M389.106,-731.26C389.994,-640.68 398.14,-265.631 472,-181 475.371,-177.137 479.472,-174.036 483.962,-171.549"/>
<polygon fill="midnightblue" stroke="midnightblue" points="385.605,-731.456 389.027,-741.483 392.605,-731.511 385.605,-731.456"/>
</g>
<!-- Node47 -->
<g id="node47" class="node"><title>Node47</title>
<g id="a_node47"><a xlink:href="../../d8/d6d/classEventDispUI.html#a56a1055e13ce1e361c85c1820e44a9b3" target="_top" xlink:title="EventDispUI::MoveEvent">
<polygon fill="none" stroke="red" points="478.5,-114.5 478.5,-133.5 599.5,-133.5 599.5,-114.5 478.5,-114.5"/>
<text text-anchor="middle" x="539" y="-121.5" font-family="FreeSans" font-size="10.00">EventDispUI::MoveEvent</text>
</a>
</g>
</g>
<!-- Node3&#45;&gt;Node47 -->
<g id="edge53" class="edge"><title>Node3&#45;&gt;Node47</title>
<path fill="none" stroke="midnightblue" d="M388.908,-731.149C388.872,-636.728 393.391,-233.887 472,-143 475.354,-139.122 479.443,-136.011 483.927,-133.518"/>
<polygon fill="midnightblue" stroke="midnightblue" points="385.408,-731.317 388.931,-741.309 392.408,-731.301 385.408,-731.317"/>
</g>
<!-- Node48 -->
<g id="node48" class="node"><title>Node48</title>
<g id="a_node48"><a xlink:href="../../df/d51/Fun4All__ExportGeom_8C.html#a582925c51bad38d562cf19e71211adfd" target="_top" xlink:title="get geometry from DST file and output TGeoManager ROOT files or other formats of geometry files ...">
<polygon fill="none" stroke="black" points="485,-76.5 485,-95.5 593,-95.5 593,-76.5 485,-76.5"/>
<text text-anchor="middle" x="539" y="-83.5" font-family="FreeSans" font-size="10.00">Fun4All_ExportGeom</text>
</a>
</g>
</g>
<!-- Node3&#45;&gt;Node48 -->
<g id="edge54" class="edge"><title>Node3&#45;&gt;Node48</title>
<path fill="none" stroke="midnightblue" d="M388.731,-731.154C387.808,-633.211 388.6,-202.199 472,-105 475.572,-100.837 479.991,-97.5573 484.837,-94.9769"/>
<polygon fill="midnightblue" stroke="midnightblue" points="385.231,-731.22 388.844,-741.18 392.231,-731.141 385.231,-731.22"/>
</g>
<!-- Node49 -->
<g id="node49" class="node"><title>Node49</title>
<g id="a_node49"><a xlink:href="../../d9/d0f/Fun4All__ImportGeom_8C.html#a3388968a8dae60e9eb62b1126f747b6a" target="_top" xlink:title="Read in a Geometry file, and output DST and ROOT TGeo files. ">
<polygon fill="none" stroke="black" points="484.5,-38.5 484.5,-57.5 593.5,-57.5 593.5,-38.5 484.5,-38.5"/>
<text text-anchor="middle" x="539" y="-45.5" font-family="FreeSans" font-size="10.00">Fun4All_ImportGeom</text>
</a>
</g>
</g>
<!-- Node3&#45;&gt;Node49 -->
<g id="edge55" class="edge"><title>Node3&#45;&gt;Node49</title>
<path fill="none" stroke="midnightblue" d="M388.57,-730.961C386.797,-629.201 383.858,-170.459 472,-67 475.48,-62.9156 479.775,-59.6801 484.493,-57.1212"/>
<polygon fill="midnightblue" stroke="midnightblue" points="385.073,-731.164 388.764,-741.095 392.072,-731.03 385.073,-731.164"/>
</g>
<!-- Node50 -->
<g id="node50" class="node"><title>Node50</title>
<g id="a_node50"><a xlink:href="../../d6/deb/PHGeom__DSTInspection_8C.html#a8a06a40e2950cd31dda512c040049cd0" target="_top" xlink:title="PHGeom_DSTInspection">
<polygon fill="none" stroke="black" points="476.5,-0.5 476.5,-19.5 601.5,-19.5 601.5,-0.5 476.5,-0.5"/>
<text text-anchor="middle" x="539" y="-7.5" font-family="FreeSans" font-size="10.00">PHGeom_DSTInspection</text>
</a>
</g>
</g>
<!-- Node3&#45;&gt;Node50 -->
<g id="edge56" class="edge"><title>Node3&#45;&gt;Node50</title>
<path fill="none" stroke="midnightblue" d="M389.971,-731.347C395.579,-621.278 425.202,-84.2823 472,-29 475.236,-25.1777 479.186,-22.0982 483.53,-19.6206"/>
<polygon fill="midnightblue" stroke="midnightblue" points="386.473,-731.225 389.467,-741.388 393.464,-731.576 386.473,-731.225"/>
</g>
<!-- Node15 -->
<g id="node15" class="node"><title>Node15</title>
<g id="a_node15"><a xlink:href="../../db/d7d/UploadCalibParam_8C.html#af49a89b9cc0fcf0323b215b3344f3869" target="_top" xlink:title="CheckCalibParam">
<polygon fill="none" stroke="black" points="644.5,-1026.5 644.5,-1045.5 739.5,-1045.5 739.5,-1026.5 644.5,-1026.5"/>
<text text-anchor="middle" x="692" y="-1033.5" font-family="FreeSans" font-size="10.00">CheckCalibParam</text>
</a>
</g>
</g>
<!-- Node14&#45;&gt;Node15 -->
<g id="edge14" class="edge"><title>Node14&#45;&gt;Node15</title>
<path fill="none" stroke="midnightblue" d="M564.192,-1107.84C577.16,-1104.93 593.082,-1100.25 606,-1093 624.931,-1082.38 624.07,-1072.23 642,-1060 649.981,-1054.55 659.382,-1049.64 667.803,-1045.69"/>
<polygon fill="midnightblue" stroke="midnightblue" points="563.23,-1104.46 554.124,-1109.88 564.62,-1111.32 563.23,-1104.46"/>
</g>
<!-- Node16 -->
<g id="node16" class="node"><title>Node16</title>
<g id="a_node16"><a xlink:href="../../d0/da4/UploadChanMap_8C.html#ae385e581fe5291a9fb5d38cb847a6501" target="_top" xlink:title="CheckChanMap">
<polygon fill="none" stroke="black" points="649,-988.5 649,-1007.5 735,-1007.5 735,-988.5 649,-988.5"/>
<text text-anchor="middle" x="692" y="-995.5" font-family="FreeSans" font-size="10.00">CheckChanMap</text>
</a>
</g>
</g>
<!-- Node14&#45;&gt;Node16 -->
<g id="edge15" class="edge"><title>Node14&#45;&gt;Node16</title>
<path fill="none" stroke="midnightblue" d="M564.332,-1109.9C577.914,-1107.62 594.385,-1102.87 606,-1093 634.481,-1068.8 614.631,-1042.45 642,-1017 646.142,-1013.15 651.152,-1010.05 656.367,-1007.56"/>
<polygon fill="midnightblue" stroke="midnightblue" points="563.656,-1106.46 554.207,-1111.26 564.582,-1113.4 563.656,-1106.46"/>
</g>
<!-- Node17 -->
<g id="node17" class="node"><title>Node17</title>
<g id="a_node17"><a xlink:href="../../d3/d9b/UploadGeomParam_8C.html#abff45e447c793e64f0acf5a0566a404c" target="_top" xlink:title="CheckGeomParam">
<polygon fill="none" stroke="black" points="642.5,-950.5 642.5,-969.5 741.5,-969.5 741.5,-950.5 642.5,-950.5"/>
<text text-anchor="middle" x="692" y="-957.5" font-family="FreeSans" font-size="10.00">CheckGeomParam</text>
</a>
</g>
</g>
<!-- Node14&#45;&gt;Node17 -->
<g id="edge16" class="edge"><title>Node14&#45;&gt;Node17</title>
<path fill="none" stroke="midnightblue" d="M564.35,-1110.56C578.208,-1108.51 594.951,-1103.77 606,-1093 644.048,-1055.91 605.651,-1017.75 642,-979 645.62,-975.14 650.115,-972.054 654.903,-969.589"/>
<polygon fill="midnightblue" stroke="midnightblue" points="563.579,-1107.12 554.02,-1111.69 564.342,-1114.08 563.579,-1107.12"/>
</g>
<!-- Node18 -->
<g id="node18" class="node"><title>Node18</title>
<g id="a_node18"><a xlink:href="../../dd/d6a/Daemon4MainDaq_8C.html#ad0f46ab319c89fc6c89e39e2fad07591" target="_top" xlink:title="Daemon4MainDaq">
<polygon fill="none" stroke="black" points="778,-1121.5 778,-1140.5 874,-1140.5 874,-1121.5 778,-1121.5"/>
<text text-anchor="middle" x="826" y="-1128.5" font-family="FreeSans" font-size="10.00">Daemon4MainDaq</text>
</a>
</g>
</g>
<!-- Node14&#45;&gt;Node18 -->
<g id="edge17" class="edge"><title>Node14&#45;&gt;Node18</title>
<path fill="none" stroke="midnightblue" d="M564.09,-1105.02C602.254,-1095 678.769,-1079.21 742,-1093 766.93,-1098.44 793.331,-1112.06 809.493,-1121.43"/>
<polygon fill="midnightblue" stroke="midnightblue" points="563.116,-1101.65 554.386,-1107.66 564.955,-1108.41 563.116,-1101.65"/>
</g>
<!-- Node19 -->
<g id="node19" class="node"><title>Node19</title>
<g id="a_node19"><a xlink:href="../../d8/dbb/draw__real__dst_8cc.html#af93b633fe9042696f8d0963f7e18a767" target="_top" xlink:title="Main function. ">
<polygon fill="none" stroke="black" points="654,-1140.5 654,-1159.5 730,-1159.5 730,-1140.5 654,-1140.5"/>
<text text-anchor="middle" x="692" y="-1147.5" font-family="FreeSans" font-size="10.00">draw_real_dst</text>
</a>
</g>
</g>
<!-- Node14&#45;&gt;Node19 -->
<g id="edge18" class="edge"><title>Node14&#45;&gt;Node19</title>
<path fill="none" stroke="midnightblue" d="M563.987,-1118.04C588.185,-1124.13 625.878,-1133.61 653.925,-1140.67"/>
<polygon fill="midnightblue" stroke="midnightblue" points="564.758,-1114.62 554.206,-1115.57 563.049,-1121.41 564.758,-1114.62"/>
</g>
<!-- Node20 -->
<g id="node20" class="node"><title>Node20</title>
<g id="a_node20"><a xlink:href="../../d1/de7/classDbUpRun.html#aa774e4acba1b9e65244a78265bec930a" target="_top" xlink:title="Called at the end of all processing. ">
<polygon fill="none" stroke="black" points="652.5,-1102.5 652.5,-1121.5 731.5,-1121.5 731.5,-1102.5 652.5,-1102.5"/>
<text text-anchor="middle" x="692" y="-1109.5" font-family="FreeSans" font-size="10.00">DbUpRun::End</text>
</a>
</g>
</g>
<!-- Node14&#45;&gt;Node20 -->
<g id="edge19" class="edge"><title>Node14&#45;&gt;Node20</title>
<path fill="none" stroke="midnightblue" d="M564.455,-1112C588.215,-1112 624.66,-1112 652.347,-1112"/>
<polygon fill="midnightblue" stroke="midnightblue" points="564.206,-1108.5 554.206,-1112 564.206,-1115.5 564.206,-1108.5"/>
</g>
<!-- Node21 -->
<g id="node21" class="node"><title>Node21</title>
<g id="a_node21"><a xlink:href="../../dd/d6a/Daemon4MainDaq_8C.html#aa863a64441cd412156a8340eabb322a4" target="_top" xlink:title="Daemon4MainDaq.C. ">
<polygon fill="none" stroke="black" points="647,-1178.5 647,-1197.5 737,-1197.5 737,-1178.5 647,-1178.5"/>
<text text-anchor="middle" x="692" y="-1185.5" font-family="FreeSans" font-size="10.00">FindExistingRuns</text>
</a>
</g>
</g>
<!-- Node14&#45;&gt;Node21 -->
<g id="edge20" class="edge"><title>Node14&#45;&gt;Node21</title>
<path fill="none" stroke="midnightblue" d="M564.156,-1115.75C577.231,-1118.54 593.265,-1123.26 606,-1131 625.878,-1143.09 622.684,-1156.03 642,-1169 647.53,-1172.71 653.891,-1175.85 660.159,-1178.44"/>
<polygon fill="midnightblue" stroke="midnightblue" points="564.482,-1112.25 554.006,-1113.83 563.181,-1119.13 564.482,-1112.25"/>
</g>
<!-- Node14&#45;&gt;Node10 -->
<g id="edge22" class="edge"><title>Node14&#45;&gt;Node10</title>
<path fill="none" stroke="midnightblue" d="M564.35,-1113.44C578.208,-1115.49 594.951,-1120.23 606,-1131 644.048,-1168.09 605.651,-1206.25 642,-1245 646.619,-1249.92 652.662,-1253.59 658.92,-1256.31"/>
<polygon fill="midnightblue" stroke="midnightblue" points="564.342,-1109.92 554.02,-1112.31 563.579,-1116.88 564.342,-1109.92"/>
</g>
<!-- Node14&#45;&gt;Node11 -->
<g id="edge23" class="edge"><title>Node14&#45;&gt;Node11</title>
<path fill="none" stroke="midnightblue" d="M564.332,-1114.1C577.914,-1116.38 594.385,-1121.13 606,-1131 634.481,-1155.2 614.631,-1181.55 642,-1207 647.879,-1212.47 655.507,-1216.42 662.986,-1219.26"/>
<polygon fill="midnightblue" stroke="midnightblue" points="564.582,-1110.6 554.207,-1112.74 563.656,-1117.54 564.582,-1110.6"/>
</g>
<!-- Node14&#45;&gt;Node22 -->
<g id="edge24" class="edge"><title>Node14&#45;&gt;Node22</title>
<path fill="none" stroke="midnightblue" d="M564.232,-1110.91C578.273,-1108.99 595.247,-1104.28 606,-1093 653.905,-1042.75 624.927,-1008.29 642,-941 658.652,-875.366 680.592,-796.899 688.234,-769.781"/>
<polygon fill="midnightblue" stroke="midnightblue" points="563.829,-1107.43 554.217,-1111.89 564.51,-1114.4 563.829,-1107.43"/>
</g>
<!-- Node14&#45;&gt;Node23 -->
<g id="edge25" class="edge"><title>Node14&#45;&gt;Node23</title>
<path fill="none" stroke="midnightblue" d="M564.258,-1111.46C578.601,-1109.77 595.885,-1105.1 606,-1093 656.427,-1032.67 632.422,-819.045 642,-741 658.22,-608.833 683.157,-448.704 689.495,-408.501"/>
<polygon fill="midnightblue" stroke="midnightblue" points="563.734,-1107.99 554.03,-1112.24 564.267,-1114.97 563.734,-1107.99"/>
</g>
<!-- Node14&#45;&gt;Node5 -->
<g id="edge26" class="edge"><title>Node14&#45;&gt;Node5</title>
<path fill="none" stroke="midnightblue" d="M564.232,-1113.09C578.273,-1115.01 595.247,-1119.72 606,-1131 653.905,-1181.25 610.477,-1221.14 642,-1283 651.599,-1301.84 668.671,-1319.66 679.915,-1330.21"/>
<polygon fill="midnightblue" stroke="midnightblue" points="564.51,-1109.6 554.217,-1112.11 563.829,-1116.57 564.51,-1109.6"/>
</g>
<!-- Node14&#45;&gt;Node4 -->
<g id="edge27" class="edge"><title>Node14&#45;&gt;Node4</title>
<path fill="none" stroke="midnightblue" d="M564.286,-1112.77C578.493,-1114.56 595.621,-1119.25 606,-1131 673.919,-1207.89 610.08,-1261.5 642,-1359 652.855,-1392.16 674.193,-1427.85 684.763,-1444.47"/>
<polygon fill="midnightblue" stroke="midnightblue" points="564.414,-1109.27 554.152,-1111.91 563.818,-1116.25 564.414,-1109.27"/>
</g>
<!-- Node21&#45;&gt;Node18 -->
<g id="edge21" class="edge"><title>Node21&#45;&gt;Node18</title>
<path fill="none" stroke="midnightblue" d="M728.05,-1174.7C732.757,-1172.83 737.508,-1170.9 742,-1169 763.753,-1159.81 788.301,-1148.45 805.022,-1140.55"/>
<polygon fill="midnightblue" stroke="midnightblue" points="726.582,-1171.52 718.547,-1178.42 729.135,-1178.03 726.582,-1171.52"/>
</g>
</g>
</svg>
