<?xml version="1.0" encoding="UTF-8" standalone="no"?>
<!DOCTYPE svg PUBLIC "-//W3C//DTD SVG 1.1//EN"
 "http://www.w3.org/Graphics/SVG/1.1/DTD/svg11.dtd">
<!-- Generated by graphviz version 2.30.1 (20200930.0103)
 -->
<!-- Title: Fun4AllServer::Print Pages: 1 -->
<svg width="726pt" height="1496pt"
 viewBox="0.00 0.00 726.00 1496.28" xmlns="http://www.w3.org/2000/svg" xmlns:xlink="http://www.w3.org/1999/xlink">
<g id="graph0" class="graph" transform="scale(1 1) rotate(0) translate(4 1492.28)">
<title>Fun4AllServer::Print</title>
<!-- Node1 -->
<g id="node1" class="node"><title>Node1</title>
<polygon fill="#bfbfbf" stroke="black" points="0,-722.5 0,-741.5 102,-741.5 102,-722.5 0,-722.5"/>
<text text-anchor="middle" x="51" y="-729.5" font-family="FreeSans" font-size="10.00">Fun4AllServer::Print</text>
</g>
<!-- Node2 -->
<g id="node2" class="node"><title>Node2</title>
<g id="a_node2"><a xlink:href="../../da/d29/classFun4AllServer.html#afcfc5583204cac58b4e66a2406187a18" target="_top" xlink:title="Fun4AllServer::BeginRun">
<polygon fill="none" stroke="black" points="147,-741.5 147,-760.5 271,-760.5 271,-741.5 147,-741.5"/>
<text text-anchor="middle" x="209" y="-748.5" font-family="FreeSans" font-size="10.00">Fun4AllServer::BeginRun</text>
</a>
</g>
</g>
<!-- Node1&#45;&gt;Node2 -->
<g id="edge1" class="edge"><title>Node1&#45;&gt;Node2</title>
<path fill="none" stroke="midnightblue" d="M112.444,-739.362C123.77,-740.741 135.616,-742.184 146.96,-743.566"/>
<polygon fill="midnightblue" stroke="midnightblue" points="112.568,-735.851 102.218,-738.116 111.722,-742.8 112.568,-735.851"/>
</g>
<!-- Node50 -->
<g id="node50" class="node"><title>Node50</title>
<g id="a_node50"><a xlink:href="../../df/d41/classPHEveDisplay.html#a7277b7998bff90aa84bdc066e6cbbb6a" target="_top" xlink:title="PHEveDisplay::PHEveDisplay">
<polygon fill="none" stroke="black" points="138.5,-703.5 138.5,-722.5 279.5,-722.5 279.5,-703.5 138.5,-703.5"/>
<text text-anchor="middle" x="209" y="-710.5" font-family="FreeSans" font-size="10.00">PHEveDisplay::PHEveDisplay</text>
</a>
</g>
</g>
<!-- Node1&#45;&gt;Node50 -->
<g id="edge55" class="edge"><title>Node1&#45;&gt;Node50</title>
<path fill="none" stroke="midnightblue" d="M112.385,-724.645C120.863,-723.613 129.634,-722.545 138.268,-721.493"/>
<polygon fill="midnightblue" stroke="midnightblue" points="111.722,-721.2 102.218,-725.884 112.568,-728.149 111.722,-721.2"/>
</g>
<!-- Node3 -->
<g id="node3" class="node"><title>Node3</title>
<g id="a_node3"><a xlink:href="../../da/d29/classFun4AllServer.html#a11bbc8b2f53bc06e0b05ee202dd6372a" target="_top" xlink:title="run n events (0 means up to end of file) ">
<polygon fill="none" stroke="black" points="316.5,-741.5 316.5,-760.5 411.5,-760.5 411.5,-741.5 316.5,-741.5"/>
<text text-anchor="middle" x="364" y="-748.5" font-family="FreeSans" font-size="10.00">Fun4AllServer::run</text>
</a>
</g>
</g>
<!-- Node2&#45;&gt;Node3 -->
<g id="edge2" class="edge"><title>Node2&#45;&gt;Node3</title>
<path fill="none" stroke="midnightblue" d="M281.617,-751C293.377,-751 305.292,-751 316.244,-751"/>
<polygon fill="midnightblue" stroke="midnightblue" points="281.349,-747.5 271.349,-751 281.349,-754.5 281.349,-747.5"/>
</g>
<!-- Node4 -->
<g id="node4" class="node"><title>Node4</title>
<g id="a_node4"><a xlink:href="../../da/daa/Fun4RealDst_8C.html#af2bc551d71266cd8c5a6daeea6a861d8" target="_top" xlink:title="Fun4MainDaq.C: Fun4all macro to decode the MainDAQ data. ">
<polygon fill="none" stroke="black" points="632,-1444.5 632,-1463.5 704,-1463.5 704,-1444.5 632,-1444.5"/>
<text text-anchor="middle" x="668" y="-1451.5" font-family="FreeSans" font-size="10.00">Fun4RealDst</text>
</a>
</g>
</g>
<!-- Node3&#45;&gt;Node4 -->
<g id="edge3" class="edge"><title>Node3&#45;&gt;Node4</title>
<path fill="none" stroke="midnightblue" d="M365.78,-770.883C370.305,-881.088 394.833,-1413.69 448,-1461 503.272,-1510.19 600.973,-1480.59 644.725,-1463.53"/>
<polygon fill="midnightblue" stroke="midnightblue" points="369.265,-770.414 365.365,-760.563 362.27,-770.696 369.265,-770.414"/>
</g>
<!-- Node5 -->
<g id="node5" class="node"><title>Node5</title>
<g id="a_node5"><a xlink:href="../../da/daa/Fun4RealDst_8C.html#aa80eadb6952b5d52a756d7cf52d05770" target="_top" xlink:title="Function to analyze multiple DST files. ">
<polygon fill="none" stroke="black" points="621.5,-1330.5 621.5,-1349.5 714.5,-1349.5 714.5,-1330.5 621.5,-1330.5"/>
<text text-anchor="middle" x="668" y="-1337.5" font-family="FreeSans" font-size="10.00">Fun4MultiRealDst</text>
</a>
</g>
</g>
<!-- Node3&#45;&gt;Node5 -->
<g id="edge4" class="edge"><title>Node3&#45;&gt;Node5</title>
<path fill="none" stroke="midnightblue" d="M365.87,-770.833C370.793,-878.499 396.762,-1389.6 448,-1435 492.576,-1474.49 527.631,-1459.31 582,-1435 622.003,-1417.11 650.974,-1370.07 662.048,-1349.67"/>
<polygon fill="midnightblue" stroke="midnightblue" points="369.361,-770.546 365.416,-760.713 362.368,-770.86 369.361,-770.546"/>
</g>
<!-- Node6 -->
<g id="node6" class="node"><title>Node6</title>
<g id="a_node6"><a xlink:href="../../d5/df8/AnaSimDst_2work_2Fun4SimDst_8C.html#abf0708efff889232b6c0a7359cfb70ae" target="_top" xlink:title="Fun4SimDst.C: Fun4all macro to analyze the E1039 simulated DST files. ">
<polygon fill="none" stroke="black" points="480,-1406.5 480,-1425.5 550,-1425.5 550,-1406.5 480,-1406.5"/>
<text text-anchor="middle" x="515" y="-1413.5" font-family="FreeSans" font-size="10.00">Fun4SimDst</text>
</a>
</g>
</g>
<!-- Node3&#45;&gt;Node6 -->
<g id="edge5" class="edge"><title>Node3&#45;&gt;Node6</title>
<path fill="none" stroke="midnightblue" d="M364.731,-770.846C363.808,-868.789 364.6,-1299.8 448,-1397 455.92,-1406.23 468.006,-1411.12 479.682,-1413.67"/>
<polygon fill="midnightblue" stroke="midnightblue" points="368.231,-770.859 364.844,-760.82 361.231,-770.78 368.231,-770.859"/>
</g>
<!-- Node7 -->
<g id="node7" class="node"><title>Node7</title>
<g id="a_node7"><a xlink:href="../../d8/d69/AnaSimDst_2work_2Fun4SimMicroDst_8C.html#ab980c780491ded824d61247fc1fa6127" target="_top" xlink:title="Fun4SimMicroDst.C: Fun4all macro to analyze you uDST. ">
<polygon fill="none" stroke="black" points="468,-1368.5 468,-1387.5 562,-1387.5 562,-1368.5 468,-1368.5"/>
<text text-anchor="middle" x="515" y="-1375.5" font-family="FreeSans" font-size="10.00">Fun4SimMicroDst</text>
</a>
</g>
</g>
<!-- Node3&#45;&gt;Node7 -->
<g id="edge6" class="edge"><title>Node3&#45;&gt;Node7</title>
<path fill="none" stroke="midnightblue" d="M364.908,-770.851C364.872,-865.272 369.391,-1268.11 448,-1359 453.226,-1365.04 460.237,-1369.22 467.742,-1372.1"/>
<polygon fill="midnightblue" stroke="midnightblue" points="368.408,-770.699 364.931,-760.691 361.408,-770.683 368.408,-770.699"/>
</g>
<!-- Node8 -->
<g id="node8" class="node"><title>Node8</title>
<g id="a_node8"><a xlink:href="../../d3/da6/Fun4Sim__TrkQA_8C.html#a20f55f3330ca74980c4c35261d0761f8" target="_top" xlink:title="Fun4Sim_TrkQA">
<polygon fill="none" stroke="black" points="470.5,-1330.5 470.5,-1349.5 559.5,-1349.5 559.5,-1330.5 470.5,-1330.5"/>
<text text-anchor="middle" x="515" y="-1337.5" font-family="FreeSans" font-size="10.00">Fun4Sim_TrkQA</text>
</a>
</g>
</g>
<!-- Node3&#45;&gt;Node8 -->
<g id="edge7" class="edge"><title>Node3&#45;&gt;Node8</title>
<path fill="none" stroke="midnightblue" d="M365.106,-770.74C365.994,-861.32 374.14,-1236.37 448,-1321 453.88,-1327.74 461.98,-1332.16 470.494,-1335.04"/>
<polygon fill="midnightblue" stroke="midnightblue" points="368.605,-770.489 365.027,-760.517 361.605,-770.544 368.605,-770.489"/>
</g>
<!-- Node9 -->
<g id="node9" class="node"><title>Node9</title>
<g id="a_node9"><a xlink:href="../../de/de6/Fun4AllReco_8C.html#a43d2d478ac0bc12be4a621bacb613bdd" target="_top" xlink:title="Fun4AllReco.C: Fun4all macro to run the reconstruction. ">
<polygon fill="none" stroke="black" points="479,-1292.5 479,-1311.5 551,-1311.5 551,-1292.5 479,-1292.5"/>
<text text-anchor="middle" x="515" y="-1299.5" font-family="FreeSans" font-size="10.00">Fun4AllReco</text>
</a>
</g>
</g>
<!-- Node3&#45;&gt;Node9 -->
<g id="edge8" class="edge"><title>Node3&#45;&gt;Node9</title>
<path fill="none" stroke="midnightblue" d="M365.5,-770.763C368.059,-856.831 382.263,-1198.21 448,-1278 455.753,-1287.41 467.519,-1293.13 478.981,-1296.61"/>
<polygon fill="midnightblue" stroke="midnightblue" points="368.993,-770.462 365.217,-760.563 361.996,-770.656 368.993,-770.462"/>
</g>
<!-- Node10 -->
<g id="node10" class="node"><title>Node10</title>
<g id="a_node10"><a xlink:href="../../db/dbe/Fun4CODA_8C.html#a1bbee777074605aa2a59ddf9b2b52742" target="_top" xlink:title="Fun4CODA">
<polygon fill="none" stroke="black" points="635,-1254.5 635,-1273.5 701,-1273.5 701,-1254.5 635,-1254.5"/>
<text text-anchor="middle" x="668" y="-1261.5" font-family="FreeSans" font-size="10.00">Fun4CODA</text>
</a>
</g>
</g>
<!-- Node3&#45;&gt;Node10 -->
<g id="edge9" class="edge"><title>Node3&#45;&gt;Node10</title>
<path fill="none" stroke="midnightblue" d="M365.35,-770.955C367.249,-854.187 378.982,-1172.39 448,-1238 498.367,-1285.88 587.397,-1278.94 634.95,-1270.84"/>
<polygon fill="midnightblue" stroke="midnightblue" points="368.847,-770.748 365.143,-760.821 361.849,-770.891 368.847,-770.748"/>
</g>
<!-- Node11 -->
<g id="node11" class="node"><title>Node11</title>
<g id="a_node11"><a xlink:href="../../de/daf/Fun4DST_8C.html#a6a43c5ad028285b022976fa872e60cbc" target="_top" xlink:title="Fun4DST">
<polygon fill="none" stroke="black" points="639,-1216.5 639,-1235.5 697,-1235.5 697,-1216.5 639,-1216.5"/>
<text text-anchor="middle" x="668" y="-1223.5" font-family="FreeSans" font-size="10.00">Fun4DST</text>
</a>
</g>
</g>
<!-- Node3&#45;&gt;Node11 -->
<g id="edge10" class="edge"><title>Node3&#45;&gt;Node11</title>
<path fill="none" stroke="midnightblue" d="M365.539,-770.748C368.151,-850.459 382.22,-1147.1 448,-1207 500.626,-1254.92 592.805,-1243.1 638.977,-1233.16"/>
<polygon fill="midnightblue" stroke="midnightblue" points="369.033,-770.504 365.232,-760.615 362.037,-770.716 369.033,-770.504"/>
</g>
<!-- Node12 -->
<g id="node12" class="node"><title>Node12</title>
<g id="a_node12"><a xlink:href="../../d2/d24/Fun4E1039Shielding_8C.html#a42592782dd55d6e219305ff678a00dc2" target="_top" xlink:title="Fun4E1039Shielding">
<polygon fill="none" stroke="black" points="462.5,-1178.5 462.5,-1197.5 567.5,-1197.5 567.5,-1178.5 462.5,-1178.5"/>
<text text-anchor="middle" x="515" y="-1185.5" font-family="FreeSans" font-size="10.00">Fun4E1039Shielding</text>
</a>
</g>
</g>
<!-- Node3&#45;&gt;Node12 -->
<g id="edge11" class="edge"><title>Node3&#45;&gt;Node12</title>
<path fill="none" stroke="midnightblue" d="M366.279,-771.144C371.452,-846.347 393.229,-1109.41 448,-1169 452.034,-1173.39 457.01,-1176.79 462.407,-1179.42"/>
<polygon fill="midnightblue" stroke="midnightblue" points="369.744,-770.493 365.589,-760.747 362.759,-770.957 369.744,-770.493"/>
</g>
<!-- Node13 -->
<g id="node13" class="node"><title>Node13</title>
<g id="a_node13"><a xlink:href="../../d1/da2/E1039Shielding_2int__run_8C.html#a088590a1a5b93b904ba076de8ca1ef82" target="_top" xlink:title="int_run">
<polygon fill="none" stroke="black" points="492,-1140.5 492,-1159.5 538,-1159.5 538,-1140.5 492,-1140.5"/>
<text text-anchor="middle" x="515" y="-1147.5" font-family="FreeSans" font-size="10.00">int_run</text>
</a>
</g>
</g>
<!-- Node3&#45;&gt;Node13 -->
<g id="edge12" class="edge"><title>Node3&#45;&gt;Node13</title>
<path fill="none" stroke="midnightblue" d="M366.669,-770.661C373.01,-840.806 397.818,-1077.43 448,-1131 459.168,-1142.92 477.285,-1147.52 491.714,-1149.23"/>
<polygon fill="midnightblue" stroke="midnightblue" points="370.143,-770.21 365.781,-760.555 363.17,-770.823 370.143,-770.21"/>
</g>
<!-- Node14 -->
<g id="node14" class="node"><title>Node14</title>
<g id="a_node14"><a xlink:href="../../df/dbc/run_8C.html#a078d38b1d96e7c0e4f35d93363cc8325" target="_top" xlink:title="run">
<polygon fill="none" stroke="red" points="500,-1102.5 500,-1121.5 530,-1121.5 530,-1102.5 500,-1102.5"/>
<text text-anchor="middle" x="515" y="-1109.5" font-family="FreeSans" font-size="10.00">run</text>
</a>
</g>
</g>
<!-- Node3&#45;&gt;Node14 -->
<g id="edge13" class="edge"><title>Node3&#45;&gt;Node14</title>
<path fill="none" stroke="midnightblue" d="M367.198,-770.78C374.876,-836.42 402.529,-1045.57 448,-1093 461.532,-1107.12 484.813,-1110.94 499.798,-1111.87"/>
<polygon fill="midnightblue" stroke="midnightblue" points="370.645,-770.112 366.032,-760.574 363.69,-770.907 370.645,-770.112"/>
</g>
<!-- Node23 -->
<g id="node23" class="node"><title>Node23</title>
<g id="a_node23"><a xlink:href="../../d4/d6b/Fun4DQ_8C.html#ade50123660c824c610022429d0847486" target="_top" xlink:title="Fun4DQ">
<polygon fill="none" stroke="black" points="488.5,-1064.5 488.5,-1083.5 541.5,-1083.5 541.5,-1064.5 488.5,-1064.5"/>
<text text-anchor="middle" x="515" y="-1071.5" font-family="FreeSans" font-size="10.00">Fun4DQ</text>
</a>
</g>
</g>
<!-- Node3&#45;&gt;Node23 -->
<g id="edge26" class="edge"><title>Node3&#45;&gt;Node23</title>
<path fill="none" stroke="midnightblue" d="M364.228,-770.698C363.252,-824.283 368.184,-974.077 448,-1055 458.55,-1065.7 474.703,-1070.47 488.388,-1072.55"/>
<polygon fill="midnightblue" stroke="midnightblue" points="367.732,-770.616 364.511,-760.522 360.734,-770.421 367.732,-770.616"/>
</g>
<!-- Node24 -->
<g id="node24" class="node"><title>Node24</title>
<g id="a_node24"><a xlink:href="../../db/d2f/Fun4EMCal_8C.html#a7559861c26cbabfa3e4349440d5af51b" target="_top" xlink:title="Fun4EMCal">
<polygon fill="none" stroke="black" points="481.5,-1026.5 481.5,-1045.5 548.5,-1045.5 548.5,-1026.5 481.5,-1026.5"/>
<text text-anchor="middle" x="515" y="-1033.5" font-family="FreeSans" font-size="10.00">Fun4EMCal</text>
</a>
</g>
</g>
<!-- Node3&#45;&gt;Node24 -->
<g id="edge27" class="edge"><title>Node3&#45;&gt;Node24</title>
<path fill="none" stroke="midnightblue" d="M365.147,-770.828C366.618,-819.885 377.402,-947.949 448,-1017 456.865,-1025.67 469.42,-1030.43 481.203,-1033.03"/>
<polygon fill="midnightblue" stroke="midnightblue" points="368.642,-770.553 364.946,-760.624 361.643,-770.691 368.642,-770.553"/>
</g>
<!-- Node25 -->
<g id="node25" class="node"><title>Node25</title>
<g id="a_node25"><a xlink:href="../../df/d6f/GenRoadset_2macro__e906__nim3_2Fun4All_8C.html#aa9d8439da27772d2a98c941554b90bf8" target="_top" xlink:title="Fun4All">
<polygon fill="none" stroke="black" points="490,-988.5 490,-1007.5 540,-1007.5 540,-988.5 490,-988.5"/>
<text text-anchor="middle" x="515" y="-995.5" font-family="FreeSans" font-size="10.00">Fun4All</text>
</a>
</g>
</g>
<!-- Node3&#45;&gt;Node25 -->
<g id="edge28" class="edge"><title>Node3&#45;&gt;Node25</title>
<path fill="none" stroke="midnightblue" d="M366.359,-770.954C370.457,-815.091 386.529,-921.62 448,-979 459.244,-989.496 475.915,-994.238 489.689,-996.361"/>
<polygon fill="midnightblue" stroke="midnightblue" points="369.842,-770.601 365.539,-760.92 362.866,-771.171 369.842,-770.601"/>
</g>
<!-- Node26 -->
<g id="node26" class="node"><title>Node26</title>
<g id="a_node26"><a xlink:href="../../d8/d19/HitEmbedding_2macro__embed_2Fun4Sim_8C.html#a023b21d2b27b8be1999a1cb7e43bbb23" target="_top" xlink:title="Fun4Sim">
<polygon fill="none" stroke="black" points="487,-950.5 487,-969.5 543,-969.5 543,-950.5 487,-950.5"/>
<text text-anchor="middle" x="515" y="-957.5" font-family="FreeSans" font-size="10.00">Fun4Sim</text>
</a>
</g>
</g>
<!-- Node3&#45;&gt;Node26 -->
<g id="edge29" class="edge"><title>Node3&#45;&gt;Node26</title>
<path fill="none" stroke="midnightblue" d="M367.924,-770.476C374.733,-808.911 395.273,-894.79 448,-941 458.671,-950.352 473.683,-955.115 486.694,-957.535"/>
<polygon fill="midnightblue" stroke="midnightblue" points="371.37,-769.863 366.291,-760.565 364.463,-771 371.37,-769.863"/>
</g>
<!-- Node27 -->
<g id="node27" class="node"><title>Node27</title>
<g id="a_node27"><a xlink:href="../../d6/d6a/Fun4HodoAccGap_8C.html#a7aaa0687f144d5e7b417d7e9ac5f36da" target="_top" xlink:title="Fun4HodoAccGap">
<polygon fill="none" stroke="black" points="467,-912.5 467,-931.5 563,-931.5 563,-912.5 467,-912.5"/>
<text text-anchor="middle" x="515" y="-919.5" font-family="FreeSans" font-size="10.00">Fun4HodoAccGap</text>
</a>
</g>
</g>
<!-- Node3&#45;&gt;Node27 -->
<g id="edge30" class="edge"><title>Node3&#45;&gt;Node27</title>
<path fill="none" stroke="midnightblue" d="M370.284,-770.533C380.073,-802.97 404.138,-867.845 448,-903 453.582,-907.474 460.174,-910.895 466.994,-913.51"/>
<polygon fill="midnightblue" stroke="midnightblue" points="373.531,-769.161 367.407,-760.515 366.803,-771.093 373.531,-769.161"/>
</g>
<!-- Node28 -->
<g id="node28" class="node"><title>Node28</title>
<g id="a_node28"><a xlink:href="../../de/d66/Fun4Pythia8Demo_8C.html#a6a06be36766511c5ad76013c9cbfe5b5" target="_top" xlink:title="Fun4Pythia8Demo">
<polygon fill="none" stroke="black" points="467,-874.5 467,-893.5 563,-893.5 563,-874.5 467,-874.5"/>
<text text-anchor="middle" x="515" y="-881.5" font-family="FreeSans" font-size="10.00">Fun4Pythia8Demo</text>
</a>
</g>
</g>
<!-- Node3&#45;&gt;Node28 -->
<g id="edge31" class="edge"><title>Node3&#45;&gt;Node28</title>
<path fill="none" stroke="midnightblue" d="M373.767,-769.914C386.515,-795.335 412.573,-840.192 448,-865 453.665,-868.967 460.151,-872.111 466.795,-874.603"/>
<polygon fill="midnightblue" stroke="midnightblue" points="376.773,-768.092 369.266,-760.616 370.473,-771.142 376.773,-768.092"/>
</g>
<!-- Node29 -->
<g id="node29" class="node"><title>Node29</title>
<g id="a_node29"><a xlink:href="../../d5/dcc/splitDST_8C.html#a4903aee6c2f9833d2e9903f991e084ec" target="_top" xlink:title="splitDST">
<polygon fill="none" stroke="black" points="488.5,-836.5 488.5,-855.5 541.5,-855.5 541.5,-836.5 488.5,-836.5"/>
<text text-anchor="middle" x="515" y="-843.5" font-family="FreeSans" font-size="10.00">splitDST</text>
</a>
</g>
</g>
<!-- Node3&#45;&gt;Node29 -->
<g id="edge32" class="edge"><title>Node3&#45;&gt;Node29</title>
<path fill="none" stroke="midnightblue" d="M379.555,-768.372C394.901,-785.622 420.61,-811.649 448,-827 460.482,-833.996 475.764,-838.608 488.478,-841.534"/>
<polygon fill="midnightblue" stroke="midnightblue" points="382.09,-765.953 372.893,-760.694 376.803,-770.541 382.09,-765.953"/>
</g>
<!-- Node30 -->
<g id="node30" class="node"><title>Node30</title>
<g id="a_node30"><a xlink:href="../../db/dea/RecoE1039Data_8C.html#a619388c470b52b98a611cb6f18ba24c1" target="_top" xlink:title="RecoE1039Data">
<polygon fill="none" stroke="black" points="472,-798.5 472,-817.5 558,-817.5 558,-798.5 472,-798.5"/>
<text text-anchor="middle" x="515" y="-805.5" font-family="FreeSans" font-size="10.00">RecoE1039Data</text>
</a>
</g>
</g>
<!-- Node3&#45;&gt;Node30 -->
<g id="edge33" class="edge"><title>Node3&#45;&gt;Node30</title>
<path fill="none" stroke="midnightblue" d="M393.034,-765.101C408.917,-772.767 429.294,-782.069 448,-789 457.28,-792.438 467.481,-795.644 477.029,-798.407"/>
<polygon fill="midnightblue" stroke="midnightblue" points="394.302,-761.825 383.781,-760.575 391.226,-768.113 394.302,-761.825"/>
</g>
<!-- Node31 -->
<g id="node31" class="node"><title>Node31</title>
<g id="a_node31"><a xlink:href="../../d0/d9c/RecoE1039Sim_8C.html#a7505ed22de28394b320e370de5caa6c3" target="_top" xlink:title="RecoE1039Sim">
<polygon fill="none" stroke="black" points="473.5,-760.5 473.5,-779.5 556.5,-779.5 556.5,-760.5 473.5,-760.5"/>
<text text-anchor="middle" x="515" y="-767.5" font-family="FreeSans" font-size="10.00">RecoE1039Sim</text>
</a>
</g>
</g>
<!-- Node3&#45;&gt;Node31 -->
<g id="edge34" class="edge"><title>Node3&#45;&gt;Node31</title>
<path fill="none" stroke="midnightblue" d="M421.697,-758.23C438.933,-760.428 457.519,-762.798 473.463,-764.831"/>
<polygon fill="midnightblue" stroke="midnightblue" points="422.098,-754.753 411.736,-756.96 421.213,-761.696 422.098,-754.753"/>
</g>
<!-- Node32 -->
<g id="node32" class="node"><title>Node32</title>
<g id="a_node32"><a xlink:href="../../df/d0c/RecoE906Data_8C.html#ad032525ca693000ba382d14d82bf9f2b" target="_top" xlink:title="RecoE906Data">
<polygon fill="none" stroke="black" points="474.5,-722.5 474.5,-741.5 555.5,-741.5 555.5,-722.5 474.5,-722.5"/>
<text text-anchor="middle" x="515" y="-729.5" font-family="FreeSans" font-size="10.00">RecoE906Data</text>
</a>
</g>
</g>
<!-- Node3&#45;&gt;Node32 -->
<g id="edge35" class="edge"><title>Node3&#45;&gt;Node32</title>
<path fill="none" stroke="midnightblue" d="M421.872,-743.748C439.414,-741.511 458.339,-739.098 474.447,-737.044"/>
<polygon fill="midnightblue" stroke="midnightblue" points="421.213,-740.304 411.736,-745.04 422.098,-747.247 421.213,-740.304"/>
</g>
<!-- Node33 -->
<g id="node33" class="node"><title>Node33</title>
<g id="a_node33"><a xlink:href="../../d8/de7/Fun4SRawEvent_8C.html#aaa9bb2e956ce860a8cb6e7845bcc4ed5" target="_top" xlink:title="Fun4SRawEvent">
<polygon fill="none" stroke="black" points="471,-684.5 471,-703.5 559,-703.5 559,-684.5 471,-684.5"/>
<text text-anchor="middle" x="515" y="-691.5" font-family="FreeSans" font-size="10.00">Fun4SRawEvent</text>
</a>
</g>
</g>
<!-- Node3&#45;&gt;Node33 -->
<g id="edge36" class="edge"><title>Node3&#45;&gt;Node33</title>
<path fill="none" stroke="midnightblue" d="M393.034,-736.899C408.917,-729.233 429.294,-719.931 448,-713 457.28,-709.562 467.481,-706.356 477.029,-703.593"/>
<polygon fill="midnightblue" stroke="midnightblue" points="391.226,-733.887 383.781,-741.425 394.302,-740.175 391.226,-733.887"/>
</g>
<!-- Node34 -->
<g id="node34" class="node"><title>Node34</title>
<g id="a_node34"><a xlink:href="../../d9/de0/Fun4All__G4__BNL_8C.html#a62a558c2bb73d1be82a65b16f52ce2e0" target="_top" xlink:title="Fun4All_G4_BNL">
<polygon fill="none" stroke="black" points="469,-646.5 469,-665.5 561,-665.5 561,-646.5 469,-646.5"/>
<text text-anchor="middle" x="515" y="-653.5" font-family="FreeSans" font-size="10.00">Fun4All_G4_BNL</text>
</a>
</g>
</g>
<!-- Node3&#45;&gt;Node34 -->
<g id="edge37" class="edge"><title>Node3&#45;&gt;Node34</title>
<path fill="none" stroke="midnightblue" d="M379.555,-733.628C394.901,-716.378 420.61,-690.351 448,-675 454.865,-671.152 462.577,-668.026 470.243,-665.504"/>
<polygon fill="midnightblue" stroke="midnightblue" points="376.803,-731.459 372.893,-741.306 382.09,-736.047 376.803,-731.459"/>
</g>
<!-- Node35 -->
<g id="node35" class="node"><title>Node35</title>
<g id="a_node35"><a xlink:href="../../de/dad/Fun4All__G4__BNL__R1_8C.html#a361be596f3554cfa3d0fc26346c50c31" target="_top" xlink:title="Fun4All_G4_BNL_R1">
<polygon fill="none" stroke="black" points="460.5,-608.5 460.5,-627.5 569.5,-627.5 569.5,-608.5 460.5,-608.5"/>
<text text-anchor="middle" x="515" y="-615.5" font-family="FreeSans" font-size="10.00">Fun4All_G4_BNL_R1</text>
</a>
</g>
</g>
<!-- Node3&#45;&gt;Node35 -->
<g id="edge38" class="edge"><title>Node3&#45;&gt;Node35</title>
<path fill="none" stroke="midnightblue" d="M373.767,-732.086C386.515,-706.665 412.573,-661.808 448,-637 453.567,-633.102 459.927,-629.997 466.451,-627.527"/>
<polygon fill="midnightblue" stroke="midnightblue" points="370.473,-730.858 369.266,-741.384 376.773,-733.908 370.473,-730.858"/>
</g>
<!-- Node36 -->
<g id="node36" class="node"><title>Node36</title>
<g id="a_node36"><a xlink:href="../../d1/d24/Fun4All__G4__E1039_8C.html#ad81863c21df83a735c57713bc9ec59b1" target="_top" xlink:title="Fun4All_G4_E1039">
<polygon fill="none" stroke="black" points="465,-570.5 465,-589.5 565,-589.5 565,-570.5 465,-570.5"/>
<text text-anchor="middle" x="515" y="-577.5" font-family="FreeSans" font-size="10.00">Fun4All_G4_E1039</text>
</a>
</g>
</g>
<!-- Node3&#45;&gt;Node36 -->
<g id="edge39" class="edge"><title>Node3&#45;&gt;Node36</title>
<path fill="none" stroke="midnightblue" d="M370.284,-731.467C380.073,-699.03 404.138,-634.155 448,-599 453.024,-594.973 458.865,-591.8 464.956,-589.299"/>
<polygon fill="midnightblue" stroke="midnightblue" points="366.803,-730.907 367.407,-741.485 373.531,-732.839 366.803,-730.907"/>
</g>
<!-- Node37 -->
<g id="node37" class="node"><title>Node37</title>
<g id="a_node37"><a xlink:href="../../de/d10/Fun4All__G4__E1039__R1_8C.html#aa484b834b55e3114dfd4cd82dcd11831" target="_top" xlink:title="Fun4All_G4_E1039_R1">
<polygon fill="none" stroke="black" points="456.5,-532.5 456.5,-551.5 573.5,-551.5 573.5,-532.5 456.5,-532.5"/>
<text text-anchor="middle" x="515" y="-539.5" font-family="FreeSans" font-size="10.00">Fun4All_G4_E1039_R1</text>
</a>
</g>
</g>
<!-- Node3&#45;&gt;Node37 -->
<g id="edge40" class="edge"><title>Node3&#45;&gt;Node37</title>
<path fill="none" stroke="midnightblue" d="M367.924,-731.524C374.733,-693.089 395.273,-607.21 448,-561 452.394,-557.149 457.524,-554.076 462.947,-551.625"/>
<polygon fill="midnightblue" stroke="midnightblue" points="364.463,-731 366.291,-741.435 371.37,-732.137 364.463,-731"/>
</g>
<!-- Node38 -->
<g id="node38" class="node"><title>Node38</title>
<g id="a_node38"><a xlink:href="../../df/d98/Fun4All__G4__E1039__R2_8C.html#a0cc5938b98723b2d5216049aad7edb01" target="_top" xlink:title="Fun4All_G4_E1039_R2">
<polygon fill="none" stroke="black" points="456.5,-494.5 456.5,-513.5 573.5,-513.5 573.5,-494.5 456.5,-494.5"/>
<text text-anchor="middle" x="515" y="-501.5" font-family="FreeSans" font-size="10.00">Fun4All_G4_E1039_R2</text>
</a>
</g>
</g>
<!-- Node3&#45;&gt;Node38 -->
<g id="edge41" class="edge"><title>Node3&#45;&gt;Node38</title>
<path fill="none" stroke="midnightblue" d="M366.359,-731.046C370.457,-686.909 386.529,-580.38 448,-523 452.184,-519.095 457.119,-515.986 462.377,-513.512"/>
<polygon fill="midnightblue" stroke="midnightblue" points="362.866,-730.829 365.539,-741.08 369.842,-731.399 362.866,-730.829"/>
</g>
<!-- Node39 -->
<g id="node39" class="node"><title>Node39</title>
<g id="a_node39"><a xlink:href="../../d1/d91/Fun4All__G4__E1039__R2__V2_8C.html#a89f8b08cddafb17f4ba14e509a0ca1db" target="_top" xlink:title="Fun4All_G4_E1039_R2_V2">
<polygon fill="none" stroke="black" points="448,-456.5 448,-475.5 582,-475.5 582,-456.5 448,-456.5"/>
<text text-anchor="middle" x="515" y="-463.5" font-family="FreeSans" font-size="10.00">Fun4All_G4_E1039_R2_V2</text>
</a>
</g>
</g>
<!-- Node3&#45;&gt;Node39 -->
<g id="edge42" class="edge"><title>Node3&#45;&gt;Node39</title>
<path fill="none" stroke="midnightblue" d="M365.147,-731.172C366.618,-682.115 377.402,-554.051 448,-485 451.921,-481.165 456.564,-478.094 461.543,-475.638"/>
<polygon fill="midnightblue" stroke="midnightblue" points="361.643,-731.309 364.946,-741.376 368.642,-731.447 361.643,-731.309"/>
</g>
<!-- Node40 -->
<g id="node40" class="node"><title>Node40</title>
<g id="a_node40"><a xlink:href="../../d5/db4/Fun4All__Test_8C.html#ae69a57ea66fbed58544200f95796a66f" target="_top" xlink:title="Fun4All_Test">
<polygon fill="none" stroke="black" points="478,-418.5 478,-437.5 552,-437.5 552,-418.5 478,-418.5"/>
<text text-anchor="middle" x="515" y="-425.5" font-family="FreeSans" font-size="10.00">Fun4All_Test</text>
</a>
</g>
</g>
<!-- Node3&#45;&gt;Node40 -->
<g id="edge43" class="edge"><title>Node3&#45;&gt;Node40</title>
<path fill="none" stroke="midnightblue" d="M364.228,-731.302C363.252,-677.717 368.184,-527.923 448,-447 455.954,-438.935 467.094,-434.24 477.959,-431.523"/>
<polygon fill="midnightblue" stroke="midnightblue" points="360.734,-731.579 364.511,-741.478 367.732,-731.384 360.734,-731.579"/>
</g>
<!-- Node41 -->
<g id="node41" class="node"><title>Node41</title>
<g id="a_node41"><a xlink:href="../../d7/d66/Fun4PatternDB_8C.html#a9e68afec0dfdd12961d550386529d5eb" target="_top" xlink:title="Fun4PatternDB">
<polygon fill="none" stroke="black" points="473.5,-380.5 473.5,-399.5 556.5,-399.5 556.5,-380.5 473.5,-380.5"/>
<text text-anchor="middle" x="515" y="-387.5" font-family="FreeSans" font-size="10.00">Fun4PatternDB</text>
</a>
</g>
</g>
<!-- Node3&#45;&gt;Node41 -->
<g id="edge44" class="edge"><title>Node3&#45;&gt;Node41</title>
<path fill="none" stroke="midnightblue" d="M367.198,-731.22C374.876,-665.58 402.529,-456.432 448,-409 454.766,-401.942 463.969,-397.456 473.354,-394.619"/>
<polygon fill="midnightblue" stroke="midnightblue" points="363.69,-731.093 366.032,-741.426 370.645,-731.888 363.69,-731.093"/>
</g>
<!-- Node42 -->
<g id="node42" class="node"><title>Node42</title>
<g id="a_node42"><a xlink:href="../../d2/d3a/Fun4TrkDev_8C.html#abd98cf50196a6ad7cb2289d1f0442b73" target="_top" xlink:title="Fun4TrkDev">
<polygon fill="none" stroke="black" points="480.5,-342.5 480.5,-361.5 549.5,-361.5 549.5,-342.5 480.5,-342.5"/>
<text text-anchor="middle" x="515" y="-349.5" font-family="FreeSans" font-size="10.00">Fun4TrkDev</text>
</a>
</g>
</g>
<!-- Node3&#45;&gt;Node42 -->
<g id="edge45" class="edge"><title>Node3&#45;&gt;Node42</title>
<path fill="none" stroke="midnightblue" d="M366.669,-731.339C373.01,-661.194 397.818,-424.568 448,-371 456.396,-362.037 468.72,-357.211 480.452,-354.643"/>
<polygon fill="midnightblue" stroke="midnightblue" points="363.17,-731.177 365.781,-741.445 370.143,-731.79 363.17,-731.177"/>
</g>
<!-- Node43 -->
<g id="node43" class="node"><title>Node43</title>
<g id="a_node43"><a xlink:href="../../db/d7c/Fun4DumpGeom_8C.html#a18cc63f0a92bfc9f708a373bfc0534f6" target="_top" xlink:title="Macro function to save the geometry info on ROOT file, geom.root. ">
<polygon fill="none" stroke="black" points="470,-304.5 470,-323.5 560,-323.5 560,-304.5 470,-304.5"/>
<text text-anchor="middle" x="515" y="-311.5" font-family="FreeSans" font-size="10.00">Fun4DumpGeom</text>
</a>
</g>
</g>
<!-- Node3&#45;&gt;Node43 -->
<g id="edge46" class="edge"><title>Node3&#45;&gt;Node43</title>
<path fill="none" stroke="midnightblue" d="M366.279,-730.856C371.452,-655.653 393.229,-392.593 448,-333 453.809,-326.679 461.572,-322.411 469.729,-319.54"/>
<polygon fill="midnightblue" stroke="midnightblue" points="362.759,-731.043 365.589,-741.253 369.744,-731.507 362.759,-731.043"/>
</g>
<!-- Node21 -->
<g id="node21" class="node"><title>Node21</title>
<g id="a_node21"><a xlink:href="../../df/d6a/e1039-core_2online_2macros_2Fun4MainDaq_8C.html#ab9151bcfc5d35e7a25c9cf86fddd2bd2" target="_top" xlink:title="Fun4MainDaq.C: Fun4all macro to decode the MainDAQ data. ">
<polygon fill="none" stroke="black" points="629.5,-779.5 629.5,-798.5 706.5,-798.5 706.5,-779.5 629.5,-779.5"/>
<text text-anchor="middle" x="668" y="-786.5" font-family="FreeSans" font-size="10.00">Fun4MainDaq</text>
</a>
</g>
</g>
<!-- Node3&#45;&gt;Node21 -->
<g id="edge47" class="edge"><title>Node3&#45;&gt;Node21</title>
<path fill="none" stroke="midnightblue" d="M365.398,-731.091C367.462,-650.75 379.69,-351.999 448,-295 493.728,-256.844 536.457,-256.624 582,-295 601.507,-311.437 656.599,-712.269 665.715,-779.48"/>
<polygon fill="midnightblue" stroke="midnightblue" points="361.894,-731.227 365.162,-741.305 368.892,-731.388 361.894,-731.227"/>
</g>
<!-- Node22 -->
<g id="node22" class="node"><title>Node22</title>
<g id="a_node22"><a xlink:href="../../d1/d6b/Fun4MainDaqE906_8C.html#a3617355b5c033a5635408b1cd8c29c35" target="_top" xlink:title="Fun4MainDaq.C: Fun4all macro to decode the MainDAQ data. ">
<polygon fill="none" stroke="black" points="619,-399.5 619,-418.5 717,-418.5 717,-399.5 619,-399.5"/>
<text text-anchor="middle" x="668" y="-406.5" font-family="FreeSans" font-size="10.00">Fun4MainDaqE906</text>
</a>
</g>
</g>
<!-- Node3&#45;&gt;Node22 -->
<g id="edge48" class="edge"><title>Node3&#45;&gt;Node22</title>
<path fill="none" stroke="midnightblue" d="M365.139,-731.323C366.18,-647.876 374.937,-324.686 448,-263 493.506,-224.58 530.37,-233.316 582,-263 635.143,-293.554 658.167,-371.531 664.831,-399.133"/>
<polygon fill="midnightblue" stroke="midnightblue" points="361.638,-731.42 365.037,-741.455 368.637,-731.49 361.638,-731.42"/>
</g>
<!-- Node44 -->
<g id="node44" class="node"><title>Node44</title>
<g id="a_node44"><a xlink:href="../../d8/d6d/classEventDispUI.html#a93421e77c003c06c1aff15cd2adb1c9a" target="_top" xlink:title="EventDispUI::NextEvent">
<polygon fill="none" stroke="black" points="456.5,-190.5 456.5,-209.5 573.5,-209.5 573.5,-190.5 456.5,-190.5"/>
<text text-anchor="middle" x="515" y="-197.5" font-family="FreeSans" font-size="10.00">EventDispUI::NextEvent</text>
</a>
</g>
</g>
<!-- Node3&#45;&gt;Node44 -->
<g id="edge49" class="edge"><title>Node3&#45;&gt;Node44</title>
<path fill="none" stroke="midnightblue" d="M365.5,-731.237C368.059,-645.169 382.263,-303.792 448,-224 453.194,-217.695 460.19,-213.047 467.69,-209.619"/>
<polygon fill="midnightblue" stroke="midnightblue" points="361.996,-731.344 365.217,-741.437 368.993,-731.538 361.996,-731.344"/>
</g>
<!-- Node45 -->
<g id="node45" class="node"><title>Node45</title>
<g id="a_node45"><a xlink:href="../../d8/d6d/classEventDispUI.html#ae9dafaeb3aef27cf0a38037faf17562d" target="_top" xlink:title="EventDispUI::PrevEvent">
<polygon fill="none" stroke="black" points="456.5,-152.5 456.5,-171.5 573.5,-171.5 573.5,-152.5 456.5,-152.5"/>
<text text-anchor="middle" x="515" y="-159.5" font-family="FreeSans" font-size="10.00">EventDispUI::PrevEvent</text>
</a>
</g>
</g>
<!-- Node3&#45;&gt;Node45 -->
<g id="edge50" class="edge"><title>Node3&#45;&gt;Node45</title>
<path fill="none" stroke="midnightblue" d="M365.106,-731.26C365.994,-640.68 374.14,-265.631 448,-181 451.371,-177.137 455.472,-174.036 459.962,-171.549"/>
<polygon fill="midnightblue" stroke="midnightblue" points="361.605,-731.456 365.027,-741.483 368.605,-731.511 361.605,-731.456"/>
</g>
<!-- Node46 -->
<g id="node46" class="node"><title>Node46</title>
<g id="a_node46"><a xlink:href="../../d8/d6d/classEventDispUI.html#a56a1055e13ce1e361c85c1820e44a9b3" target="_top" xlink:title="EventDispUI::MoveEvent">
<polygon fill="none" stroke="red" points="454.5,-114.5 454.5,-133.5 575.5,-133.5 575.5,-114.5 454.5,-114.5"/>
<text text-anchor="middle" x="515" y="-121.5" font-family="FreeSans" font-size="10.00">EventDispUI::MoveEvent</text>
</a>
</g>
</g>
<!-- Node3&#45;&gt;Node46 -->
<g id="edge51" class="edge"><title>Node3&#45;&gt;Node46</title>
<path fill="none" stroke="midnightblue" d="M364.908,-731.149C364.872,-636.728 369.391,-233.887 448,-143 451.354,-139.122 455.443,-136.011 459.927,-133.518"/>
<polygon fill="midnightblue" stroke="midnightblue" points="361.408,-731.317 364.931,-741.309 368.408,-731.301 361.408,-731.317"/>
</g>
<!-- Node47 -->
<g id="node47" class="node"><title>Node47</title>
<g id="a_node47"><a xlink:href="../../df/d51/Fun4All__ExportGeom_8C.html#a582925c51bad38d562cf19e71211adfd" target="_top" xlink:title="get geometry from DST file and output TGeoManager ROOT files or other formats of geometry files ...">
<polygon fill="none" stroke="black" points="461,-76.5 461,-95.5 569,-95.5 569,-76.5 461,-76.5"/>
<text text-anchor="middle" x="515" y="-83.5" font-family="FreeSans" font-size="10.00">Fun4All_ExportGeom</text>
</a>
</g>
</g>
<!-- Node3&#45;&gt;Node47 -->
<g id="edge52" class="edge"><title>Node3&#45;&gt;Node47</title>
<path fill="none" stroke="midnightblue" d="M364.731,-731.154C363.808,-633.211 364.6,-202.199 448,-105 451.572,-100.837 455.991,-97.5573 460.837,-94.9769"/>
<polygon fill="midnightblue" stroke="midnightblue" points="361.231,-731.22 364.844,-741.18 368.231,-731.141 361.231,-731.22"/>
</g>
<!-- Node48 -->
<g id="node48" class="node"><title>Node48</title>
<g id="a_node48"><a xlink:href="../../d9/d0f/Fun4All__ImportGeom_8C.html#a3388968a8dae60e9eb62b1126f747b6a" target="_top" xlink:title="Read in a Geometry file, and output DST and ROOT TGeo files. ">
<polygon fill="none" stroke="black" points="460.5,-38.5 460.5,-57.5 569.5,-57.5 569.5,-38.5 460.5,-38.5"/>
<text text-anchor="middle" x="515" y="-45.5" font-family="FreeSans" font-size="10.00">Fun4All_ImportGeom</text>
</a>
</g>
</g>
<!-- Node3&#45;&gt;Node48 -->
<g id="edge53" class="edge"><title>Node3&#45;&gt;Node48</title>
<path fill="none" stroke="midnightblue" d="M364.57,-730.961C362.797,-629.201 359.858,-170.459 448,-67 451.48,-62.9156 455.775,-59.6801 460.493,-57.1212"/>
<polygon fill="midnightblue" stroke="midnightblue" points="361.073,-731.164 364.764,-741.095 368.072,-731.03 361.073,-731.164"/>
</g>
<!-- Node49 -->
<g id="node49" class="node"><title>Node49</title>
<g id="a_node49"><a xlink:href="../../d6/deb/PHGeom__DSTInspection_8C.html#a8a06a40e2950cd31dda512c040049cd0" target="_top" xlink:title="PHGeom_DSTInspection">
<polygon fill="none" stroke="black" points="452.5,-0.5 452.5,-19.5 577.5,-19.5 577.5,-0.5 452.5,-0.5"/>
<text text-anchor="middle" x="515" y="-7.5" font-family="FreeSans" font-size="10.00">PHGeom_DSTInspection</text>
</a>
</g>
</g>
<!-- Node3&#45;&gt;Node49 -->
<g id="edge54" class="edge"><title>Node3&#45;&gt;Node49</title>
<path fill="none" stroke="midnightblue" d="M365.971,-731.347C371.579,-621.278 401.202,-84.2823 448,-29 451.236,-25.1777 455.186,-22.0982 459.53,-19.6206"/>
<polygon fill="midnightblue" stroke="midnightblue" points="362.473,-731.225 365.467,-741.388 369.464,-731.576 362.473,-731.225"/>
</g>
<!-- Node15 -->
<g id="node15" class="node"><title>Node15</title>
<g id="a_node15"><a xlink:href="../../db/d7d/UploadCalibParam_8C.html#af49a89b9cc0fcf0323b215b3344f3869" target="_top" xlink:title="CheckCalibParam">
<polygon fill="none" stroke="black" points="620.5,-1178.5 620.5,-1197.5 715.5,-1197.5 715.5,-1178.5 620.5,-1178.5"/>
<text text-anchor="middle" x="668" y="-1185.5" font-family="FreeSans" font-size="10.00">CheckCalibParam</text>
</a>
</g>
</g>
<!-- Node14&#45;&gt;Node15 -->
<g id="edge14" class="edge"><title>Node14&#45;&gt;Node15</title>
<path fill="none" stroke="midnightblue" d="M540.156,-1115.75C553.231,-1118.54 569.265,-1123.26 582,-1131 601.878,-1143.09 598.684,-1156.03 618,-1169 623.53,-1172.71 629.891,-1175.85 636.159,-1178.44"/>
<polygon fill="midnightblue" stroke="midnightblue" points="540.482,-1112.25 530.006,-1113.83 539.181,-1119.13 540.482,-1112.25"/>
</g>
<!-- Node16 -->
<g id="node16" class="node"><title>Node16</title>
<g id="a_node16"><a xlink:href="../../d0/da4/UploadChanMap_8C.html#ae385e581fe5291a9fb5d38cb847a6501" target="_top" xlink:title="CheckChanMap">
<polygon fill="none" stroke="black" points="625,-1140.5 625,-1159.5 711,-1159.5 711,-1140.5 625,-1140.5"/>
<text text-anchor="middle" x="668" y="-1147.5" font-family="FreeSans" font-size="10.00">CheckChanMap</text>
</a>
</g>
</g>
<!-- Node14&#45;&gt;Node16 -->
<g id="edge15" class="edge"><title>Node14&#45;&gt;Node16</title>
<path fill="none" stroke="midnightblue" d="M540.205,-1118.09C564.14,-1124.11 601.122,-1133.42 628.981,-1140.43"/>
<polygon fill="midnightblue" stroke="midnightblue" points="540.758,-1114.62 530.206,-1115.57 539.049,-1121.41 540.758,-1114.62"/>
</g>
<!-- Node17 -->
<g id="node17" class="node"><title>Node17</title>
<g id="a_node17"><a xlink:href="../../d3/d9b/UploadGeomParam_8C.html#abff45e447c793e64f0acf5a0566a404c" target="_top" xlink:title="CheckGeomParam">
<polygon fill="none" stroke="black" points="618.5,-1102.5 618.5,-1121.5 717.5,-1121.5 717.5,-1102.5 618.5,-1102.5"/>
<text text-anchor="middle" x="668" y="-1109.5" font-family="FreeSans" font-size="10.00">CheckGeomParam</text>
</a>
</g>
</g>
<!-- Node14&#45;&gt;Node17 -->
<g id="edge16" class="edge"><title>Node14&#45;&gt;Node17</title>
<path fill="none" stroke="midnightblue" d="M540.458,-1112C561.402,-1112 592.201,-1112 618.17,-1112"/>
<polygon fill="midnightblue" stroke="midnightblue" points="540.206,-1108.5 530.206,-1112 540.206,-1115.5 540.206,-1108.5"/>
</g>
<!-- Node18 -->
<g id="node18" class="node"><title>Node18</title>
<g id="a_node18"><a xlink:href="../../dd/d6a/Daemon4MainDaq_8C.html#ad0f46ab319c89fc6c89e39e2fad07591" target="_top" xlink:title="Daemon4MainDaq">
<polygon fill="none" stroke="black" points="620,-1064.5 620,-1083.5 716,-1083.5 716,-1064.5 620,-1064.5"/>
<text text-anchor="middle" x="668" y="-1071.5" font-family="FreeSans" font-size="10.00">Daemon4MainDaq</text>
</a>
</g>
</g>
<!-- Node14&#45;&gt;Node18 -->
<g id="edge17" class="edge"><title>Node14&#45;&gt;Node18</title>
<path fill="none" stroke="midnightblue" d="M540.205,-1105.91C564.14,-1099.89 601.122,-1090.58 628.981,-1083.57"/>
<polygon fill="midnightblue" stroke="midnightblue" points="539.049,-1102.59 530.206,-1108.43 540.758,-1109.38 539.049,-1102.59"/>
</g>
<!-- Node19 -->
<g id="node19" class="node"><title>Node19</title>
<g id="a_node19"><a xlink:href="../../d8/dbb/draw__real__dst_8cc.html#af93b633fe9042696f8d0963f7e18a767" target="_top" xlink:title="Main function. ">
<polygon fill="none" stroke="black" points="630,-1026.5 630,-1045.5 706,-1045.5 706,-1026.5 630,-1026.5"/>
<text text-anchor="middle" x="668" y="-1033.5" font-family="FreeSans" font-size="10.00">draw_real_dst</text>
</a>
</g>
</g>
<!-- Node14&#45;&gt;Node19 -->
<g id="edge18" class="edge"><title>Node14&#45;&gt;Node19</title>
<path fill="none" stroke="midnightblue" d="M540.156,-1108.25C553.231,-1105.46 569.265,-1100.74 582,-1093 601.878,-1080.91 598.684,-1067.97 618,-1055 623.53,-1051.29 629.891,-1048.15 636.159,-1045.56"/>
<polygon fill="midnightblue" stroke="midnightblue" points="539.181,-1104.87 530.006,-1110.17 540.482,-1111.75 539.181,-1104.87"/>
</g>
<!-- Node20 -->
<g id="node20" class="node"><title>Node20</title>
<g id="a_node20"><a xlink:href="../../d1/de7/classDbUpRun.html#aa774e4acba1b9e65244a78265bec930a" target="_top" xlink:title="Called at the end of all processing. ">
<polygon fill="none" stroke="black" points="628.5,-988.5 628.5,-1007.5 707.5,-1007.5 707.5,-988.5 628.5,-988.5"/>
<text text-anchor="middle" x="668" y="-995.5" font-family="FreeSans" font-size="10.00">DbUpRun::End</text>
</a>
</g>
</g>
<!-- Node14&#45;&gt;Node20 -->
<g id="edge19" class="edge"><title>Node14&#45;&gt;Node20</title>
<path fill="none" stroke="midnightblue" d="M540.332,-1109.9C553.914,-1107.62 570.385,-1102.87 582,-1093 610.481,-1068.8 590.631,-1042.45 618,-1017 622.142,-1013.15 627.152,-1010.05 632.367,-1007.56"/>
<polygon fill="midnightblue" stroke="midnightblue" points="539.656,-1106.46 530.207,-1111.26 540.582,-1113.4 539.656,-1106.46"/>
</g>
<!-- Node14&#45;&gt;Node10 -->
<g id="edge20" class="edge"><title>Node14&#45;&gt;Node10</title>
<path fill="none" stroke="midnightblue" d="M540.35,-1113.44C554.208,-1115.49 570.951,-1120.23 582,-1131 620.048,-1168.09 581.651,-1206.25 618,-1245 622.619,-1249.92 628.662,-1253.59 634.92,-1256.31"/>
<polygon fill="midnightblue" stroke="midnightblue" points="540.342,-1109.92 530.02,-1112.31 539.579,-1116.88 540.342,-1109.92"/>
</g>
<!-- Node14&#45;&gt;Node11 -->
<g id="edge21" class="edge"><title>Node14&#45;&gt;Node11</title>
<path fill="none" stroke="midnightblue" d="M540.332,-1114.1C553.914,-1116.38 570.385,-1121.13 582,-1131 610.481,-1155.2 590.631,-1181.55 618,-1207 623.879,-1212.47 631.507,-1216.42 638.986,-1219.26"/>
<polygon fill="midnightblue" stroke="midnightblue" points="540.582,-1110.6 530.207,-1112.74 539.656,-1117.54 540.582,-1110.6"/>
</g>
<!-- Node14&#45;&gt;Node21 -->
<g id="edge22" class="edge"><title>Node14&#45;&gt;Node21</title>
<path fill="none" stroke="midnightblue" d="M540.071,-1110.75C554.054,-1108.78 571.024,-1104.06 582,-1093 593.002,-1081.91 651.83,-849.438 664.567,-798.717"/>
<polygon fill="midnightblue" stroke="midnightblue" points="539.695,-1107.27 530.108,-1111.78 540.415,-1114.23 539.695,-1107.27"/>
</g>
<!-- Node14&#45;&gt;Node22 -->
<g id="edge23" class="edge"><title>Node14&#45;&gt;Node22</title>
<path fill="none" stroke="midnightblue" d="M540.219,-1111.42C554.548,-1109.73 571.83,-1105.06 582,-1093 628.568,-1037.8 609.142,-841.677 618,-770 635.259,-630.335 659.532,-460.746 665.589,-418.753"/>
<polygon fill="midnightblue" stroke="midnightblue" points="539.704,-1107.95 530.004,-1112.22 540.245,-1114.93 539.704,-1107.95"/>
</g>
<!-- Node14&#45;&gt;Node5 -->
<g id="edge24" class="edge"><title>Node14&#45;&gt;Node5</title>
<path fill="none" stroke="midnightblue" d="M540.232,-1113.09C554.273,-1115.01 571.247,-1119.72 582,-1131 629.905,-1181.25 586.477,-1221.14 618,-1283 627.599,-1301.84 644.671,-1319.66 655.915,-1330.21"/>
<polygon fill="midnightblue" stroke="midnightblue" points="540.51,-1109.6 530.217,-1112.11 539.829,-1116.57 540.51,-1109.6"/>
</g>
<!-- Node14&#45;&gt;Node4 -->
<g id="edge25" class="edge"><title>Node14&#45;&gt;Node4</title>
<path fill="none" stroke="midnightblue" d="M540.286,-1112.77C554.493,-1114.56 571.621,-1119.25 582,-1131 649.919,-1207.89 586.08,-1261.5 618,-1359 628.855,-1392.16 650.193,-1427.85 660.763,-1444.47"/>
<polygon fill="midnightblue" stroke="midnightblue" points="540.414,-1109.27 530.152,-1111.91 539.818,-1116.25 540.414,-1109.27"/>
</g>
</g>
</svg>
