<?xml version="1.0" encoding="UTF-8" standalone="no"?>
<!DOCTYPE svg PUBLIC "-//W3C//DTD SVG 1.1//EN"
 "http://www.w3.org/Graphics/SVG/1.1/DTD/svg11.dtd">
<!-- Generated by graphviz version 2.44.0 (0)
 -->
<!-- Title: Fun4AllServer::End Pages: 1 -->
<svg width="872pt" height="217pt"
 viewBox="0.00 0.00 872.00 217.00" xmlns="http://www.w3.org/2000/svg" xmlns:xlink="http://www.w3.org/1999/xlink">
<g id="graph0" class="graph" transform="scale(1 1) rotate(0) translate(4 213)">
<title>Fun4AllServer::End</title>
<!-- Node1 -->
<g id="node1" class="node">
<title>Node1</title>
<g id="a_node1"><a xlink:title=" ">
<polygon fill="#bfbfbf" stroke="black" points="0,-95.5 0,-114.5 108,-114.5 108,-95.5 0,-95.5"/>
<text text-anchor="middle" x="54" y="-102.5" font-family="FreeSans" font-size="10.00">Fun4AllServer::End</text>
</a>
</g>
</g>
<!-- Node2 -->
<g id="node2" class="node">
<title>Node2</title>
<g id="a_node2"><a xlink:href="../../da/d29/classFun4AllServer.html#a53b1b6b338aa36891f2690a188920980" target="_top" xlink:title=" ">
<polygon fill="none" stroke="black" points="153.5,-189.5 153.5,-208.5 280.5,-208.5 280.5,-189.5 153.5,-189.5"/>
<text text-anchor="middle" x="217" y="-196.5" font-family="FreeSans" font-size="10.00">Fun4AllServer::EndRun</text>
</a>
</g>
</g>
<!-- Node1&#45;&gt;Node2 -->
<g id="edge1" class="edge">
<title>Node1&#45;&gt;Node2</title>
<path fill="none" stroke="midnightblue" d="M63.6,-114.61C78.44,-130.59 110.47,-162.58 144,-180 148.47,-182.32 153.26,-184.38 158.15,-186.2"/>
<polygon fill="midnightblue" stroke="midnightblue" points="157.05,-189.52 167.64,-189.41 159.29,-182.89 157.05,-189.52"/>
</g>
<!-- Node3 -->
<g id="node3" class="node">
<title>Node3</title>
<g id="a_node3"><a xlink:href="../../d5/d07/classPHNodeIterator.html#aea98bf8619af59b1212a94fb32106baa" target="_top" xlink:title=" ">
<polygon fill="none" stroke="black" points="148.5,-133.5 148.5,-152.5 285.5,-152.5 285.5,-133.5 148.5,-133.5"/>
<text text-anchor="middle" x="217" y="-140.5" font-family="FreeSans" font-size="10.00">PHNodeIterator::findFirst</text>
</a>
</g>
</g>
<!-- Node1&#45;&gt;Node3 -->
<g id="edge2" class="edge">
<title>Node1&#45;&gt;Node3</title>
<path fill="none" stroke="midnightblue" d="M95.63,-114.59C116.97,-119.63 143.31,-125.84 165.91,-131.18"/>
<polygon fill="midnightblue" stroke="midnightblue" points="165.13,-134.59 175.67,-133.48 166.74,-127.78 165.13,-134.59"/>
</g>
<!-- Node6 -->
<g id="node6" class="node">
<title>Node6</title>
<g id="a_node6"><a xlink:href="../../d1/da8/classPHFlag.html#a9002aa5e5ee1ef0e76d65201d6056adf" target="_top" xlink:title=" ">
<polygon fill="none" stroke="black" points="161,-95.5 161,-114.5 273,-114.5 273,-95.5 161,-95.5"/>
<text text-anchor="middle" x="217" y="-102.5" font-family="FreeSans" font-size="10.00">PHFlag::get_IntFlag</text>
</a>
</g>
</g>
<!-- Node1&#45;&gt;Node6 -->
<g id="edge6" class="edge">
<title>Node1&#45;&gt;Node6</title>
<path fill="none" stroke="midnightblue" d="M108.16,-105C121.8,-105 136.62,-105 150.79,-105"/>
<polygon fill="midnightblue" stroke="midnightblue" points="150.96,-108.5 160.96,-105 150.96,-101.5 150.96,-108.5"/>
</g>
<!-- Node7 -->
<g id="node7" class="node">
<title>Node7</title>
<g id="a_node7"><a xlink:href="../../d8/d14/classrecoConsts.html#aea8535068aa74d8acf1f98e938a1ff85" target="_top" xlink:title=" ">
<polygon fill="none" stroke="black" points="158,-57.5 158,-76.5 276,-76.5 276,-57.5 158,-57.5"/>
<text text-anchor="middle" x="217" y="-64.5" font-family="FreeSans" font-size="10.00">recoConsts::instance</text>
</a>
</g>
</g>
<!-- Node1&#45;&gt;Node7 -->
<g id="edge7" class="edge">
<title>Node1&#45;&gt;Node7</title>
<path fill="none" stroke="midnightblue" d="M95.63,-95.41C116.97,-90.37 143.31,-84.16 165.91,-78.82"/>
<polygon fill="midnightblue" stroke="midnightblue" points="166.74,-82.22 175.67,-76.52 165.13,-75.41 166.74,-82.22"/>
</g>
<!-- Node15 -->
<g id="node15" class="node">
<title>Node15</title>
<g id="a_node15"><a xlink:href="../../da/d29/classFun4AllServer.html#a6f2074f451d0c0c1b4a802edde5ffb94" target="_top" xlink:title=" ">
<polygon fill="none" stroke="black" points="144,-19.5 144,-38.5 290,-38.5 290,-19.5 144,-19.5"/>
<text text-anchor="middle" x="217" y="-26.5" font-family="FreeSans" font-size="10.00">Fun4AllServer::outfileclose</text>
</a>
</g>
</g>
<!-- Node1&#45;&gt;Node15 -->
<g id="edge15" class="edge">
<title>Node1&#45;&gt;Node15</title>
<path fill="none" stroke="midnightblue" d="M67.26,-95.37C83.81,-82.81 114.6,-60.91 144,-48 149.46,-45.6 155.29,-43.45 161.18,-41.54"/>
<polygon fill="midnightblue" stroke="midnightblue" points="162.53,-44.78 171.09,-38.54 160.51,-38.08 162.53,-44.78"/>
</g>
<!-- Node3&#45;&gt;Node3 -->
<g id="edge3" class="edge">
<title>Node3&#45;&gt;Node3</title>
<path fill="none" stroke="midnightblue" d="M192.03,-152.76C179.88,-161.57 188.21,-171 217,-171 236.35,-171 246.45,-166.74 247.31,-161.27"/>
<polygon fill="midnightblue" stroke="midnightblue" points="250.25,-159.37 241.97,-152.76 244.32,-163.09 250.25,-159.37"/>
</g>
<!-- Node4 -->
<g id="node4" class="node">
<title>Node4</title>
<g id="a_node4"><a xlink:href="../../dc/d82/classPHNode.html#aa9c780cb75e143c50861c4a75ba8aeb6" target="_top" xlink:title=" ">
<polygon fill="none" stroke="black" points="341,-171.5 341,-190.5 448,-190.5 448,-171.5 341,-171.5"/>
<text text-anchor="middle" x="394.5" y="-178.5" font-family="FreeSans" font-size="10.00">PHNode::getName</text>
</a>
</g>
</g>
<!-- Node3&#45;&gt;Node4 -->
<g id="edge4" class="edge">
<title>Node3&#45;&gt;Node4</title>
<path fill="none" stroke="midnightblue" d="M262.29,-152.59C285.76,-157.67 314.78,-163.96 339.56,-169.32"/>
<polygon fill="midnightblue" stroke="midnightblue" points="339.02,-172.78 349.53,-171.48 340.5,-165.94 339.02,-172.78"/>
</g>
<!-- Node5 -->
<g id="node5" class="node">
<title>Node5</title>
<g id="a_node5"><a xlink:href="../../dc/d82/classPHNode.html#a2ad5efd9aead81422462224b33f5c0a9" target="_top" xlink:title=" ">
<polygon fill="none" stroke="black" points="344.5,-133.5 344.5,-152.5 444.5,-152.5 444.5,-133.5 344.5,-133.5"/>
<text text-anchor="middle" x="394.5" y="-140.5" font-family="FreeSans" font-size="10.00">PHNode::getType</text>
</a>
</g>
</g>
<!-- Node3&#45;&gt;Node5 -->
<g id="edge5" class="edge">
<title>Node3&#45;&gt;Node5</title>
<path fill="none" stroke="midnightblue" d="M285.6,-143C301.68,-143 318.72,-143 334.38,-143"/>
<polygon fill="midnightblue" stroke="midnightblue" points="334.46,-146.5 344.46,-143 334.46,-139.5 334.46,-146.5"/>
</g>
<!-- Node8 -->
<g id="node8" class="node">
<title>Node8</title>
<g id="a_node8"><a xlink:href="../../d8/d14/classrecoConsts.html#ae882d6adc62f783ec78114fe3dee3c24" target="_top" xlink:title=" ">
<polygon fill="none" stroke="black" points="329,-95.5 329,-114.5 460,-114.5 460,-95.5 329,-95.5"/>
<text text-anchor="middle" x="394.5" y="-102.5" font-family="FreeSans" font-size="10.00">recoConsts::recoConsts</text>
</a>
</g>
</g>
<!-- Node7&#45;&gt;Node8 -->
<g id="edge8" class="edge">
<title>Node7&#45;&gt;Node8</title>
<path fill="none" stroke="midnightblue" d="M262.29,-76.59C285.76,-81.67 314.78,-87.96 339.56,-93.32"/>
<polygon fill="midnightblue" stroke="midnightblue" points="339.02,-96.78 349.53,-95.48 340.5,-89.94 339.02,-96.78"/>
</g>
<!-- Node9 -->
<g id="node9" class="node">
<title>Node9</title>
<g id="a_node9"><a xlink:href="../../d8/d14/classrecoConsts.html#a864b1da9614924988d09542c268c42dc" target="_top" xlink:title="set the default value for all the constants needed &#45; user is supposed to add a default value here to ...">
<polygon fill="none" stroke="black" points="326,-57.5 326,-76.5 463,-76.5 463,-57.5 326,-57.5"/>
<text text-anchor="middle" x="394.5" y="-64.5" font-family="FreeSans" font-size="10.00">recoConsts::set_defaults</text>
</a>
</g>
</g>
<!-- Node7&#45;&gt;Node9 -->
<g id="edge9" class="edge">
<title>Node7&#45;&gt;Node9</title>
<path fill="none" stroke="midnightblue" d="M276.44,-67C289.07,-67 302.62,-67 315.86,-67"/>
<polygon fill="midnightblue" stroke="midnightblue" points="315.9,-70.5 325.9,-67 315.9,-63.5 315.9,-70.5"/>
</g>
<!-- Node10 -->
<g id="node10" class="node">
<title>Node10</title>
<g id="a_node10"><a xlink:href="../../d1/da8/classPHFlag.html#a5aaf1fedd8907f4b2b0c9535a4491f42" target="_top" xlink:title=" ">
<polygon fill="none" stroke="black" points="509,-114.5 509,-133.5 629,-133.5 629,-114.5 509,-114.5"/>
<text text-anchor="middle" x="569" y="-121.5" font-family="FreeSans" font-size="10.00">PHFlag::set_BoolFlag</text>
</a>
</g>
</g>
<!-- Node9&#45;&gt;Node10 -->
<g id="edge10" class="edge">
<title>Node9&#45;&gt;Node10</title>
<path fill="none" stroke="midnightblue" d="M434.87,-76.57C444.22,-79.26 454.07,-82.43 463,-86 479.8,-92.71 482.18,-98.34 499,-105 504.99,-107.37 511.38,-109.56 517.77,-111.55"/>
<polygon fill="midnightblue" stroke="midnightblue" points="517.16,-115.02 527.74,-114.5 519.15,-108.31 517.16,-115.02"/>
</g>
<!-- Node11 -->
<g id="node11" class="node">
<title>Node11</title>
<g id="a_node11"><a xlink:href="../../d8/d14/classrecoConsts.html#aec7c7c885b190f7dbb57ac99af4587e6" target="_top" xlink:title="overide the virtual function to expand the environmental variables">
<polygon fill="none" stroke="black" points="499,-76.5 499,-95.5 639,-95.5 639,-76.5 499,-76.5"/>
<text text-anchor="middle" x="569" y="-83.5" font-family="FreeSans" font-size="10.00">recoConsts::set_CharFlag</text>
</a>
</g>
</g>
<!-- Node9&#45;&gt;Node11 -->
<g id="edge11" class="edge">
<title>Node9&#45;&gt;Node11</title>
<path fill="none" stroke="midnightblue" d="M463.18,-74.45C471.59,-75.38 480.25,-76.34 488.82,-77.28"/>
<polygon fill="midnightblue" stroke="midnightblue" points="488.49,-80.76 498.81,-78.38 489.26,-73.81 488.49,-80.76"/>
</g>
<!-- Node13 -->
<g id="node13" class="node">
<title>Node13</title>
<g id="a_node13"><a xlink:href="../../d1/da8/classPHFlag.html#a64f8c67e9313e5cecdbed51f747026da" target="_top" xlink:title=" ">
<polygon fill="none" stroke="black" points="502.5,-38.5 502.5,-57.5 635.5,-57.5 635.5,-38.5 502.5,-38.5"/>
<text text-anchor="middle" x="569" y="-45.5" font-family="FreeSans" font-size="10.00">PHFlag::set_DoubleFlag</text>
</a>
</g>
</g>
<!-- Node9&#45;&gt;Node13 -->
<g id="edge13" class="edge">
<title>Node9&#45;&gt;Node13</title>
<path fill="none" stroke="midnightblue" d="M463.18,-59.55C472.78,-58.49 482.7,-57.4 492.43,-56.32"/>
<polygon fill="midnightblue" stroke="midnightblue" points="492.93,-59.79 502.49,-55.22 492.17,-52.83 492.93,-59.79"/>
</g>
<!-- Node14 -->
<g id="node14" class="node">
<title>Node14</title>
<g id="a_node14"><a xlink:href="../../d1/da8/classPHFlag.html#a3ef5c3f1eff2daaaf18e5129858a9ef8" target="_top" xlink:title=" ">
<polygon fill="none" stroke="black" points="513.5,-0.5 513.5,-19.5 624.5,-19.5 624.5,-0.5 513.5,-0.5"/>
<text text-anchor="middle" x="569" y="-7.5" font-family="FreeSans" font-size="10.00">PHFlag::set_IntFlag</text>
</a>
</g>
</g>
<!-- Node9&#45;&gt;Node14 -->
<g id="edge14" class="edge">
<title>Node9&#45;&gt;Node14</title>
<path fill="none" stroke="midnightblue" d="M434.87,-57.43C444.22,-54.74 454.07,-51.57 463,-48 479.8,-41.29 482.18,-35.66 499,-29 504.99,-26.63 511.38,-24.44 517.77,-22.45"/>
<polygon fill="midnightblue" stroke="midnightblue" points="519.15,-25.69 527.74,-19.5 517.16,-18.98 519.15,-25.69"/>
</g>
<!-- Node12 -->
<g id="node12" class="node">
<title>Node12</title>
<g id="a_node12"><a xlink:href="../../d8/d14/classrecoConsts.html#ad45c452d9a71b5410c472614d72442ec" target="_top" xlink:title=" ">
<polygon fill="none" stroke="black" points="675,-76.5 675,-95.5 864,-95.5 864,-76.5 675,-76.5"/>
<text text-anchor="middle" x="769.5" y="-83.5" font-family="FreeSans" font-size="10.00">recoConsts::ExpandEnvironmentals</text>
</a>
</g>
</g>
<!-- Node11&#45;&gt;Node12 -->
<g id="edge12" class="edge">
<title>Node11&#45;&gt;Node12</title>
<path fill="none" stroke="midnightblue" d="M639.15,-86C647.43,-86 656.02,-86 664.66,-86"/>
<polygon fill="midnightblue" stroke="midnightblue" points="664.81,-89.5 674.81,-86 664.81,-82.5 664.81,-89.5"/>
</g>
<!-- Node16 -->
<g id="node16" class="node">
<title>Node16</title>
<g id="a_node16"><a xlink:href="../../d5/dec/classFun4AllBase.html#ab4106fbb3615ea6836f394c52642b893" target="_top" xlink:title="Returns the name of this module.">
<polygon fill="none" stroke="black" points="338.5,-19.5 338.5,-38.5 450.5,-38.5 450.5,-19.5 338.5,-19.5"/>
<text text-anchor="middle" x="394.5" y="-26.5" font-family="FreeSans" font-size="10.00">Fun4AllBase::Name</text>
</a>
</g>
</g>
<!-- Node15&#45;&gt;Node16 -->
<g id="edge16" class="edge">
<title>Node15&#45;&gt;Node16</title>
<path fill="none" stroke="midnightblue" d="M290.14,-29C302.7,-29 315.7,-29 328.06,-29"/>
<polygon fill="midnightblue" stroke="midnightblue" points="328.27,-32.5 338.27,-29 328.27,-25.5 328.27,-32.5"/>
</g>
</g>
</svg>
