<?xml version="1.0" encoding="UTF-8" standalone="no"?>
<!DOCTYPE svg PUBLIC "-//W3C//DTD SVG 1.1//EN"
 "http://www.w3.org/Graphics/SVG/1.1/DTD/svg11.dtd">
<!-- Generated by graphviz version 2.30.1 (20180413.0232)
 -->
<!-- Title: Fun4AllServer::registerSubsystem Pages: 1 -->
<svg width="494pt" height="1206pt"
 viewBox="0.00 0.00 494.00 1206.00" xmlns="http://www.w3.org/2000/svg" xmlns:xlink="http://www.w3.org/1999/xlink">
<g id="graph0" class="graph" transform="scale(1 1) rotate(0) translate(4 1202)">
<title>Fun4AllServer::registerSubsystem</title>
<!-- Node1 -->
<g id="node1" class="node"><title>Node1</title>
<polygon fill="#bfbfbf" stroke="black" points="0.5,-589.5 0.5,-608.5 161.5,-608.5 161.5,-589.5 0.5,-589.5"/>
<text text-anchor="middle" x="81" y="-596.5" font-family="FreeSans" font-size="10.00">Fun4AllServer::registerSubsystem</text>
</g>
<!-- Node2 -->
<g id="node2" class="node"><title>Node2</title>
<g id="a_node2"><a xlink:href="../../d1/dd6/EventDisplay4Sim_8C.html#af86696dcebf4f8619d2417d0865bbf66" target="_top" xlink:title="EventDisplay4Sim">
<polygon fill="none" stroke="black" points="218,-1178.5 218,-1197.5 312,-1197.5 312,-1178.5 218,-1178.5"/>
<text text-anchor="middle" x="265" y="-1185.5" font-family="FreeSans" font-size="10.00">EventDisplay4Sim</text>
</a>
</g>
</g>
<!-- Node1&#45;&gt;Node2 -->
<g id="edge1" class="edge"><title>Node1&#45;&gt;Node2</title>
<path fill="none" stroke="midnightblue" d="M83.3302,-618.798C89.822,-709.637 121.042,-1085.66 198,-1169 203.339,-1174.78 210.312,-1178.84 217.721,-1181.69"/>
<polygon fill="midnightblue" stroke="midnightblue" points="86.8026,-618.278 82.6173,-608.545 79.8195,-618.764 86.8026,-618.278"/>
</g>
<!-- Node3 -->
<g id="node3" class="node"><title>Node3</title>
<g id="a_node3"><a xlink:href="../../df/d27/Fun4All__EventDisplay_8C.html#a1882962483c970b18963752d848a9f60" target="_top" xlink:title="Fun4All_EventDisplay">
<polygon fill="none" stroke="black" points="210,-1140.5 210,-1159.5 320,-1159.5 320,-1140.5 210,-1140.5"/>
<text text-anchor="middle" x="265" y="-1147.5" font-family="FreeSans" font-size="10.00">Fun4All_EventDisplay</text>
</a>
</g>
</g>
<!-- Node1&#45;&gt;Node3 -->
<g id="edge2" class="edge"><title>Node1&#45;&gt;Node3</title>
<path fill="none" stroke="midnightblue" d="M83.6461,-618.856C91.2599,-706.029 125.803,-1053.9 198,-1131 201.586,-1134.83 205.889,-1137.9 210.557,-1140.37"/>
<polygon fill="midnightblue" stroke="midnightblue" points="87.1205,-618.405 82.7825,-608.739 80.1458,-619.001 87.1205,-618.405"/>
</g>
<!-- Node4 -->
<g id="node4" class="node"><title>Node4</title>
<g id="a_node4"><a xlink:href="../../d9/de0/Fun4All__G4__BNL_8C.html#a62a558c2bb73d1be82a65b16f52ce2e0" target="_top" xlink:title="Fun4All_G4_BNL">
<polygon fill="none" stroke="black" points="219,-1102.5 219,-1121.5 311,-1121.5 311,-1102.5 219,-1102.5"/>
<text text-anchor="middle" x="265" y="-1109.5" font-family="FreeSans" font-size="10.00">Fun4All_G4_BNL</text>
</a>
</g>
</g>
<!-- Node1&#45;&gt;Node4 -->
<g id="edge3" class="edge"><title>Node1&#45;&gt;Node4</title>
<path fill="none" stroke="midnightblue" d="M84.0212,-619.015C92.8422,-702.528 130.575,-1022.14 198,-1093 203.671,-1098.96 211.08,-1103.09 218.878,-1105.94"/>
<polygon fill="midnightblue" stroke="midnightblue" points="87.4799,-618.435 82.9683,-608.848 80.5172,-619.156 87.4799,-618.435"/>
</g>
<!-- Node5 -->
<g id="node5" class="node"><title>Node5</title>
<g id="a_node5"><a xlink:href="../../de/dad/Fun4All__G4__BNL__R1_8C.html#a361be596f3554cfa3d0fc26346c50c31" target="_top" xlink:title="Fun4All_G4_BNL_R1">
<polygon fill="none" stroke="black" points="210.5,-1064.5 210.5,-1083.5 319.5,-1083.5 319.5,-1064.5 210.5,-1064.5"/>
<text text-anchor="middle" x="265" y="-1071.5" font-family="FreeSans" font-size="10.00">Fun4All_G4_BNL_R1</text>
</a>
</g>
</g>
<!-- Node1&#45;&gt;Node5 -->
<g id="edge4" class="edge"><title>Node1&#45;&gt;Node5</title>
<path fill="none" stroke="midnightblue" d="M84.4369,-618.983C94.502,-698.372 135.276,-990.288 198,-1055 201.734,-1058.85 206.195,-1061.94 211.012,-1064.41"/>
<polygon fill="midnightblue" stroke="midnightblue" points="87.8858,-618.355 83.1758,-608.865 80.9395,-619.221 87.8858,-618.355"/>
</g>
<!-- Node6 -->
<g id="node6" class="node"><title>Node6</title>
<g id="a_node6"><a xlink:href="../../d1/d24/Fun4All__G4__E1039_8C.html#ad81863c21df83a735c57713bc9ec59b1" target="_top" xlink:title="Fun4All_G4_E1039">
<polygon fill="none" stroke="black" points="215,-1026.5 215,-1045.5 315,-1045.5 315,-1026.5 215,-1026.5"/>
<text text-anchor="middle" x="265" y="-1033.5" font-family="FreeSans" font-size="10.00">Fun4All_G4_E1039</text>
</a>
</g>
</g>
<!-- Node1&#45;&gt;Node6 -->
<g id="edge5" class="edge"><title>Node1&#45;&gt;Node6</title>
<path fill="none" stroke="midnightblue" d="M81.2069,-618.799C79.6795,-685.146 84.01,-901.91 198,-1017 202.699,-1021.74 208.5,-1025.32 214.697,-1028.02"/>
<polygon fill="midnightblue" stroke="midnightblue" points="84.7136,-618.632 81.523,-608.529 77.7169,-618.417 84.7136,-618.632"/>
</g>
<!-- Node7 -->
<g id="node7" class="node"><title>Node7</title>
<g id="a_node7"><a xlink:href="../../de/d10/Fun4All__G4__E1039__R1_8C.html#aa484b834b55e3114dfd4cd82dcd11831" target="_top" xlink:title="Fun4All_G4_E1039_R1">
<polygon fill="none" stroke="black" points="206.5,-988.5 206.5,-1007.5 323.5,-1007.5 323.5,-988.5 206.5,-988.5"/>
<text text-anchor="middle" x="265" y="-995.5" font-family="FreeSans" font-size="10.00">Fun4All_G4_E1039_R1</text>
</a>
</g>
</g>
<!-- Node1&#45;&gt;Node7 -->
<g id="edge6" class="edge"><title>Node1&#45;&gt;Node7</title>
<path fill="none" stroke="midnightblue" d="M81.8535,-618.638C82.4948,-680.897 93.1712,-875.833 198,-979 201.909,-982.847 206.545,-985.925 211.519,-988.387"/>
<polygon fill="midnightblue" stroke="midnightblue" points="85.3535,-618.601 81.8301,-608.609 78.3535,-618.618 85.3535,-618.601"/>
</g>
<!-- Node8 -->
<g id="node8" class="node"><title>Node8</title>
<g id="a_node8"><a xlink:href="../../df/d98/Fun4All__G4__E1039__R2_8C.html#a0cc5938b98723b2d5216049aad7edb01" target="_top" xlink:title="Fun4All_G4_E1039_R2">
<polygon fill="none" stroke="black" points="206.5,-950.5 206.5,-969.5 323.5,-969.5 323.5,-950.5 206.5,-950.5"/>
<text text-anchor="middle" x="265" y="-957.5" font-family="FreeSans" font-size="10.00">Fun4All_G4_E1039_R2</text>
</a>
</g>
</g>
<!-- Node1&#45;&gt;Node8 -->
<g id="edge7" class="edge"><title>Node1&#45;&gt;Node8</title>
<path fill="none" stroke="midnightblue" d="M82.624,-618.572C85.5613,-676.66 102.325,-849.693 198,-941 202.054,-944.869 206.844,-947.958 211.964,-950.423"/>
<polygon fill="midnightblue" stroke="midnightblue" points="86.1195,-618.39 82.2016,-608.546 79.1257,-618.684 86.1195,-618.39"/>
</g>
<!-- Node9 -->
<g id="node9" class="node"><title>Node9</title>
<g id="a_node9"><a xlink:href="../../d1/d91/Fun4All__G4__E1039__R2__V2_8C.html#a89f8b08cddafb17f4ba14e509a0ca1db" target="_top" xlink:title="Fun4All_G4_E1039_R2_V2">
<polygon fill="none" stroke="black" points="198,-912.5 198,-931.5 332,-931.5 332,-912.5 198,-912.5"/>
<text text-anchor="middle" x="265" y="-919.5" font-family="FreeSans" font-size="10.00">Fun4All_G4_E1039_R2_V2</text>
</a>
</g>
</g>
<!-- Node1&#45;&gt;Node9 -->
<g id="edge8" class="edge"><title>Node1&#45;&gt;Node9</title>
<path fill="none" stroke="midnightblue" d="M83.6003,-618.859C89.0343,-672.85 111.594,-823.581 198,-903 202.214,-906.873 207.168,-909.962 212.436,-912.424"/>
<polygon fill="midnightblue" stroke="midnightblue" points="87.0586,-618.242 82.6622,-608.603 80.0877,-618.88 87.0586,-618.242"/>
</g>
<!-- Node10 -->
<g id="node10" class="node"><title>Node10</title>
<g id="a_node10"><a xlink:href="../../d9/d0f/Fun4All__ImportGeom_8C.html#a3388968a8dae60e9eb62b1126f747b6a" target="_top" xlink:title="Read in a Geometry file, and output DST and ROOT TGeo files. ">
<polygon fill="none" stroke="black" points="210.5,-874.5 210.5,-893.5 319.5,-893.5 319.5,-874.5 210.5,-874.5"/>
<text text-anchor="middle" x="265" y="-881.5" font-family="FreeSans" font-size="10.00">Fun4All_ImportGeom</text>
</a>
</g>
</g>
<!-- Node1&#45;&gt;Node10 -->
<g id="edge9" class="edge"><title>Node1&#45;&gt;Node10</title>
<path fill="none" stroke="midnightblue" d="M84.7824,-618.669C92.7933,-667.844 120.513,-797.048 198,-865 202.393,-868.852 207.522,-871.926 212.945,-874.378"/>
<polygon fill="midnightblue" stroke="midnightblue" points="88.2293,-618.056 83.255,-608.701 81.3101,-619.116 88.2293,-618.056"/>
</g>
<!-- Node11 -->
<g id="node11" class="node"><title>Node11</title>
<g id="a_node11"><a xlink:href="../../d5/db4/Fun4All__Test_8C.html#ae69a57ea66fbed58544200f95796a66f" target="_top" xlink:title="Fun4All_Test">
<polygon fill="none" stroke="black" points="228,-836.5 228,-855.5 302,-855.5 302,-836.5 228,-836.5"/>
<text text-anchor="middle" x="265" y="-843.5" font-family="FreeSans" font-size="10.00">Fun4All_Test</text>
</a>
</g>
</g>
<!-- Node1&#45;&gt;Node11 -->
<g id="edge10" class="edge"><title>Node1&#45;&gt;Node11</title>
<path fill="none" stroke="midnightblue" d="M86.3037,-618.479C97.059,-662.514 129.322,-770.291 198,-827 206.459,-833.985 217.362,-838.403 227.86,-841.197"/>
<polygon fill="midnightblue" stroke="midnightblue" points="89.6568,-617.447 83.9741,-608.505 82.8402,-619.039 89.6568,-617.447"/>
</g>
<!-- Node12 -->
<g id="node12" class="node"><title>Node12</title>
<g id="a_node12"><a xlink:href="../../db/dbe/Fun4CODA_8C.html#a1bbee777074605aa2a59ddf9b2b52742" target="_top" xlink:title="Fun4CODA">
<polygon fill="none" stroke="black" points="232,-798.5 232,-817.5 298,-817.5 298,-798.5 232,-798.5"/>
<text text-anchor="middle" x="265" y="-805.5" font-family="FreeSans" font-size="10.00">Fun4CODA</text>
</a>
</g>
</g>
<!-- Node1&#45;&gt;Node12 -->
<g id="edge11" class="edge"><title>Node1&#45;&gt;Node12</title>
<path fill="none" stroke="midnightblue" d="M88.2842,-618.079C101.911,-656.441 137.885,-743.159 198,-789 207.766,-796.447 220.357,-800.977 231.92,-803.732"/>
<polygon fill="midnightblue" stroke="midnightblue" points="91.592,-616.934 85.0318,-608.615 84.972,-619.209 91.592,-616.934"/>
</g>
<!-- Node13 -->
<g id="node13" class="node"><title>Node13</title>
<g id="a_node13"><a xlink:href="../../d4/d6b/Fun4DQ_8C.html#ade50123660c824c610022429d0847486" target="_top" xlink:title="Fun4DQ">
<polygon fill="none" stroke="black" points="238.5,-760.5 238.5,-779.5 291.5,-779.5 291.5,-760.5 238.5,-760.5"/>
<text text-anchor="middle" x="265" y="-767.5" font-family="FreeSans" font-size="10.00">Fun4DQ</text>
</a>
</g>
</g>
<!-- Node1&#45;&gt;Node13 -->
<g id="edge12" class="edge"><title>Node1&#45;&gt;Node13</title>
<path fill="none" stroke="midnightblue" d="M91.143,-617.719C107.829,-649.905 146.317,-715.671 198,-751 209.911,-759.142 225.307,-763.832 238.233,-766.514"/>
<polygon fill="midnightblue" stroke="midnightblue" points="94.1347,-615.878 86.5025,-608.53 87.8863,-619.034 94.1347,-615.878"/>
</g>
<!-- Node14 -->
<g id="node14" class="node"><title>Node14</title>
<g id="a_node14"><a xlink:href="../../de/daf/Fun4DST_8C.html#a6a43c5ad028285b022976fa872e60cbc" target="_top" xlink:title="Fun4DST">
<polygon fill="none" stroke="black" points="236,-722.5 236,-741.5 294,-741.5 294,-722.5 236,-722.5"/>
<text text-anchor="middle" x="265" y="-729.5" font-family="FreeSans" font-size="10.00">Fun4DST</text>
</a>
</g>
</g>
<!-- Node1&#45;&gt;Node14 -->
<g id="edge13" class="edge"><title>Node1&#45;&gt;Node14</title>
<path fill="none" stroke="midnightblue" d="M95.319,-616.813C115.024,-641.925 154.349,-687.512 198,-713 209.532,-719.734 223.607,-724.212 235.792,-727.12"/>
<polygon fill="midnightblue" stroke="midnightblue" points="97.8454,-614.356 88.9755,-608.562 92.2961,-618.623 97.8454,-614.356"/>
</g>
<!-- Node15 -->
<g id="node15" class="node"><title>Node15</title>
<g id="a_node15"><a xlink:href="../../db/d7c/Fun4DumpGeom_8C.html#a18cc63f0a92bfc9f708a373bfc0534f6" target="_top" xlink:title="Fun4DumpGeom">
<polygon fill="none" stroke="black" points="220,-684.5 220,-703.5 310,-703.5 310,-684.5 220,-684.5"/>
<text text-anchor="middle" x="265" y="-691.5" font-family="FreeSans" font-size="10.00">Fun4DumpGeom</text>
</a>
</g>
</g>
<!-- Node1&#45;&gt;Node15 -->
<g id="edge14" class="edge"><title>Node1&#45;&gt;Node15</title>
<path fill="none" stroke="midnightblue" d="M102.189,-614.949C124.506,-631.909 162.067,-658.514 198,-675 206.02,-678.679 214.918,-681.819 223.516,-684.424"/>
<polygon fill="midnightblue" stroke="midnightblue" points="104.204,-612.083 94.1465,-608.751 99.9306,-617.627 104.204,-612.083"/>
</g>
<!-- Node16 -->
<g id="node16" class="node"><title>Node16</title>
<g id="a_node16"><a xlink:href="../../d2/d24/Fun4E1039Shielding_8C.html#a42592782dd55d6e219305ff678a00dc2" target="_top" xlink:title="Fun4E1039Shielding">
<polygon fill="none" stroke="black" points="212.5,-646.5 212.5,-665.5 317.5,-665.5 317.5,-646.5 212.5,-646.5"/>
<text text-anchor="middle" x="265" y="-653.5" font-family="FreeSans" font-size="10.00">Fun4E1039Shielding</text>
</a>
</g>
</g>
<!-- Node1&#45;&gt;Node16 -->
<g id="edge15" class="edge"><title>Node1&#45;&gt;Node16</title>
<path fill="none" stroke="midnightblue" d="M119.613,-611.704C142.26,-619.258 171.71,-628.913 198,-637 208.371,-640.19 219.708,-643.513 230.015,-646.472"/>
<polygon fill="midnightblue" stroke="midnightblue" points="120.631,-608.354 110.037,-608.5 118.41,-614.993 120.631,-608.354"/>
</g>
<!-- Node17 -->
<g id="node17" class="node"><title>Node17</title>
<g id="a_node17"><a xlink:href="../../db/d2f/Fun4EMCal_8C.html#a7559861c26cbabfa3e4349440d5af51b" target="_top" xlink:title="Fun4EMCal">
<polygon fill="none" stroke="black" points="231.5,-608.5 231.5,-627.5 298.5,-627.5 298.5,-608.5 231.5,-608.5"/>
<text text-anchor="middle" x="265" y="-615.5" font-family="FreeSans" font-size="10.00">Fun4EMCal</text>
</a>
</g>
</g>
<!-- Node1&#45;&gt;Node17 -->
<g id="edge16" class="edge"><title>Node1&#45;&gt;Node17</title>
<path fill="none" stroke="midnightblue" d="M171.651,-608.359C192.938,-610.581 214.323,-612.814 231.147,-614.57"/>
<polygon fill="midnightblue" stroke="midnightblue" points="171.872,-604.863 161.563,-607.306 171.146,-611.826 171.872,-604.863"/>
</g>
<!-- Node18 -->
<g id="node18" class="node"><title>Node18</title>
<g id="a_node18"><a xlink:href="../../d6/d6a/Fun4HodoAccGap_8C.html#a7aaa0687f144d5e7b417d7e9ac5f36da" target="_top" xlink:title="Fun4HodoAccGap">
<polygon fill="none" stroke="black" points="217,-570.5 217,-589.5 313,-589.5 313,-570.5 217,-570.5"/>
<text text-anchor="middle" x="265" y="-577.5" font-family="FreeSans" font-size="10.00">Fun4HodoAccGap</text>
</a>
</g>
</g>
<!-- Node1&#45;&gt;Node18 -->
<g id="edge17" class="edge"><title>Node1&#45;&gt;Node18</title>
<path fill="none" stroke="midnightblue" d="M171.766,-589.629C187.332,-588.004 202.946,-586.374 216.786,-584.929"/>
<polygon fill="midnightblue" stroke="midnightblue" points="171.146,-586.174 161.563,-590.694 171.872,-593.137 171.146,-586.174"/>
</g>
<!-- Node19 -->
<g id="node19" class="node"><title>Node19</title>
<g id="a_node19"><a xlink:href="../../df/d6a/e1039-core_2online_2macros_2Fun4MainDaq_8C.html#ab9151bcfc5d35e7a25c9cf86fddd2bd2" target="_top" xlink:title="Fun4MainDaq.C: Fun4all macro to decode the MainDAQ data. ">
<polygon fill="none" stroke="black" points="226.5,-532.5 226.5,-551.5 303.5,-551.5 303.5,-532.5 226.5,-532.5"/>
<text text-anchor="middle" x="265" y="-539.5" font-family="FreeSans" font-size="10.00">Fun4MainDaq</text>
</a>
</g>
</g>
<!-- Node1&#45;&gt;Node19 -->
<g id="edge18" class="edge"><title>Node1&#45;&gt;Node19</title>
<path fill="none" stroke="midnightblue" d="M119.613,-586.296C142.26,-578.742 171.71,-569.087 198,-561 208.371,-557.81 219.708,-554.487 230.015,-551.528"/>
<polygon fill="midnightblue" stroke="midnightblue" points="118.41,-583.007 110.037,-589.5 120.631,-589.646 118.41,-583.007"/>
</g>
<!-- Node20 -->
<g id="node20" class="node"><title>Node20</title>
<g id="a_node20"><a xlink:href="../../d1/d6b/Fun4MainDaqE906_8C.html#a3617355b5c033a5635408b1cd8c29c35" target="_top" xlink:title="Fun4MainDaq.C: Fun4all macro to decode the MainDAQ data. ">
<polygon fill="none" stroke="black" points="216,-494.5 216,-513.5 314,-513.5 314,-494.5 216,-494.5"/>
<text text-anchor="middle" x="265" y="-501.5" font-family="FreeSans" font-size="10.00">Fun4MainDaqE906</text>
</a>
</g>
</g>
<!-- Node1&#45;&gt;Node20 -->
<g id="edge19" class="edge"><title>Node1&#45;&gt;Node20</title>
<path fill="none" stroke="midnightblue" d="M102.189,-583.051C124.506,-566.091 162.067,-539.486 198,-523 206.02,-519.321 214.918,-516.181 223.516,-513.576"/>
<polygon fill="midnightblue" stroke="midnightblue" points="99.9306,-580.373 94.1465,-589.249 104.204,-585.917 99.9306,-580.373"/>
</g>
<!-- Node21 -->
<g id="node21" class="node"><title>Node21</title>
<g id="a_node21"><a xlink:href="../../da/daa/Fun4RealDst_8C.html#aa80eadb6952b5d52a756d7cf52d05770" target="_top" xlink:title="Function to analyze multiple DST files. ">
<polygon fill="none" stroke="black" points="218.5,-456.5 218.5,-475.5 311.5,-475.5 311.5,-456.5 218.5,-456.5"/>
<text text-anchor="middle" x="265" y="-463.5" font-family="FreeSans" font-size="10.00">Fun4MultiRealDst</text>
</a>
</g>
</g>
<!-- Node1&#45;&gt;Node21 -->
<g id="edge20" class="edge"><title>Node1&#45;&gt;Node21</title>
<path fill="none" stroke="midnightblue" d="M95.319,-581.187C115.024,-556.075 154.349,-510.488 198,-485 204.59,-481.152 212.01,-478.041 219.433,-475.538"/>
<polygon fill="midnightblue" stroke="midnightblue" points="92.2961,-579.377 88.9755,-589.438 97.8454,-583.644 92.2961,-579.377"/>
</g>
<!-- Node22 -->
<g id="node22" class="node"><title>Node22</title>
<g id="a_node22"><a xlink:href="../../d7/d66/Fun4PatternDB_8C.html#a9e68afec0dfdd12961d550386529d5eb" target="_top" xlink:title="Fun4PatternDB">
<polygon fill="none" stroke="black" points="223.5,-418.5 223.5,-437.5 306.5,-437.5 306.5,-418.5 223.5,-418.5"/>
<text text-anchor="middle" x="265" y="-425.5" font-family="FreeSans" font-size="10.00">Fun4PatternDB</text>
</a>
</g>
</g>
<!-- Node1&#45;&gt;Node22 -->
<g id="edge21" class="edge"><title>Node1&#45;&gt;Node22</title>
<path fill="none" stroke="midnightblue" d="M91.143,-580.281C107.829,-548.095 146.317,-482.329 198,-447 205.58,-441.819 214.571,-438.036 223.438,-435.278"/>
<polygon fill="midnightblue" stroke="midnightblue" points="87.8863,-578.966 86.5025,-589.47 94.1347,-582.122 87.8863,-578.966"/>
</g>
<!-- Node23 -->
<g id="node23" class="node"><title>Node23</title>
<g id="a_node23"><a xlink:href="../../de/d66/Fun4Pythia8Demo_8C.html#a6a06be36766511c5ad76013c9cbfe5b5" target="_top" xlink:title="Fun4Pythia8Demo">
<polygon fill="none" stroke="black" points="217,-380.5 217,-399.5 313,-399.5 313,-380.5 217,-380.5"/>
<text text-anchor="middle" x="265" y="-387.5" font-family="FreeSans" font-size="10.00">Fun4Pythia8Demo</text>
</a>
</g>
</g>
<!-- Node1&#45;&gt;Node23 -->
<g id="edge22" class="edge"><title>Node1&#45;&gt;Node23</title>
<path fill="none" stroke="midnightblue" d="M88.2842,-579.921C101.911,-541.559 137.885,-454.841 198,-409 203.594,-404.734 210.115,-401.425 216.839,-398.859"/>
<polygon fill="midnightblue" stroke="midnightblue" points="84.972,-578.791 85.0318,-589.385 91.592,-581.066 84.972,-578.791"/>
</g>
<!-- Node24 -->
<g id="node24" class="node"><title>Node24</title>
<g id="a_node24"><a xlink:href="../../da/daa/Fun4RealDst_8C.html#af2bc551d71266cd8c5a6daeea6a861d8" target="_top" xlink:title="Fun4MainDaq.C: Fun4all macro to decode the MainDAQ data. ">
<polygon fill="none" stroke="black" points="229,-342.5 229,-361.5 301,-361.5 301,-342.5 229,-342.5"/>
<text text-anchor="middle" x="265" y="-349.5" font-family="FreeSans" font-size="10.00">Fun4RealDst</text>
</a>
</g>
</g>
<!-- Node1&#45;&gt;Node24 -->
<g id="edge23" class="edge"><title>Node1&#45;&gt;Node24</title>
<path fill="none" stroke="midnightblue" d="M86.3037,-579.521C97.059,-535.486 129.322,-427.709 198,-371 206.735,-363.788 218.075,-359.312 228.885,-356.534"/>
<polygon fill="midnightblue" stroke="midnightblue" points="82.8402,-578.961 83.9741,-589.495 89.6568,-580.553 82.8402,-578.961"/>
</g>
<!-- Node25 -->
<g id="node25" class="node"><title>Node25</title>
<g id="a_node25"><a xlink:href="../../d7/dbf/Pythia8Demo_2Fun4Sim_8C.html#a13db461d7442e3977a7c3773cd8119df" target="_top" xlink:title="Fun4Sim">
<polygon fill="none" stroke="black" points="237,-304.5 237,-323.5 293,-323.5 293,-304.5 237,-304.5"/>
<text text-anchor="middle" x="265" y="-311.5" font-family="FreeSans" font-size="10.00">Fun4Sim</text>
</a>
</g>
</g>
<!-- Node1&#45;&gt;Node25 -->
<g id="edge24" class="edge"><title>Node1&#45;&gt;Node25</title>
<path fill="none" stroke="midnightblue" d="M84.7824,-579.331C92.7933,-530.156 120.513,-400.952 198,-333 208.668,-323.645 223.679,-318.881 236.691,-316.462"/>
<polygon fill="midnightblue" stroke="midnightblue" points="81.3101,-578.884 83.255,-589.299 88.2293,-579.944 81.3101,-578.884"/>
</g>
<!-- Node26 -->
<g id="node26" class="node"><title>Node26</title>
<g id="a_node26"><a xlink:href="../../d3/da6/Fun4Sim__TrkQA_8C.html#a20f55f3330ca74980c4c35261d0761f8" target="_top" xlink:title="Fun4Sim_TrkQA">
<polygon fill="none" stroke="black" points="220.5,-266.5 220.5,-285.5 309.5,-285.5 309.5,-266.5 220.5,-266.5"/>
<text text-anchor="middle" x="265" y="-273.5" font-family="FreeSans" font-size="10.00">Fun4Sim_TrkQA</text>
</a>
</g>
</g>
<!-- Node1&#45;&gt;Node26 -->
<g id="edge25" class="edge"><title>Node1&#45;&gt;Node26</title>
<path fill="none" stroke="midnightblue" d="M83.6003,-579.141C89.0343,-525.15 111.594,-374.419 198,-295 204.233,-289.271 212.085,-285.258 220.179,-282.451"/>
<polygon fill="midnightblue" stroke="midnightblue" points="80.0877,-579.12 82.6622,-589.397 87.0586,-579.758 80.0877,-579.12"/>
</g>
<!-- Node27 -->
<g id="node27" class="node"><title>Node27</title>
<g id="a_node27"><a xlink:href="../../d6/dac/Fun4SimMicroDst_8C.html#ab980c780491ded824d61247fc1fa6127" target="_top" xlink:title="Fun4SimMicroDst.C: Fun4all macro to analyze you uDST. ">
<polygon fill="none" stroke="black" points="218,-228.5 218,-247.5 312,-247.5 312,-228.5 218,-228.5"/>
<text text-anchor="middle" x="265" y="-235.5" font-family="FreeSans" font-size="10.00">Fun4SimMicroDst</text>
</a>
</g>
</g>
<!-- Node1&#45;&gt;Node27 -->
<g id="edge26" class="edge"><title>Node1&#45;&gt;Node27</title>
<path fill="none" stroke="midnightblue" d="M82.624,-579.428C85.5613,-521.34 102.325,-348.307 198,-257 203.607,-251.649 210.621,-247.791 217.967,-245.012"/>
<polygon fill="midnightblue" stroke="midnightblue" points="79.1257,-579.316 82.2016,-589.454 86.1195,-579.61 79.1257,-579.316"/>
</g>
<!-- Node28 -->
<g id="node28" class="node"><title>Node28</title>
<g id="a_node28"><a xlink:href="../../d8/de7/Fun4SRawEvent_8C.html#aaa9bb2e956ce860a8cb6e7845bcc4ed5" target="_top" xlink:title="Fun4SRawEvent">
<polygon fill="none" stroke="black" points="221,-190.5 221,-209.5 309,-209.5 309,-190.5 221,-190.5"/>
<text text-anchor="middle" x="265" y="-197.5" font-family="FreeSans" font-size="10.00">Fun4SRawEvent</text>
</a>
</g>
</g>
<!-- Node1&#45;&gt;Node28 -->
<g id="edge27" class="edge"><title>Node1&#45;&gt;Node28</title>
<path fill="none" stroke="midnightblue" d="M81.8535,-579.362C82.4948,-517.103 93.1712,-322.167 198,-219 204.289,-212.811 212.457,-208.612 220.892,-205.771"/>
<polygon fill="midnightblue" stroke="midnightblue" points="78.3535,-579.382 81.8301,-589.391 85.3535,-579.399 78.3535,-579.382"/>
</g>
<!-- Node29 -->
<g id="node29" class="node"><title>Node29</title>
<g id="a_node29"><a xlink:href="../../d2/d3a/Fun4TrkDev_8C.html#abd98cf50196a6ad7cb2289d1f0442b73" target="_top" xlink:title="Fun4TrkDev">
<polygon fill="none" stroke="black" points="230.5,-152.5 230.5,-171.5 299.5,-171.5 299.5,-152.5 230.5,-152.5"/>
<text text-anchor="middle" x="265" y="-159.5" font-family="FreeSans" font-size="10.00">Fun4TrkDev</text>
</a>
</g>
</g>
<!-- Node1&#45;&gt;Node29 -->
<g id="edge28" class="edge"><title>Node1&#45;&gt;Node29</title>
<path fill="none" stroke="midnightblue" d="M81.2069,-579.201C79.6795,-512.854 84.01,-296.09 198,-181 206.559,-172.359 218.775,-167.587 230.375,-164.974"/>
<polygon fill="midnightblue" stroke="midnightblue" points="77.7169,-579.583 81.523,-589.471 84.7136,-579.368 77.7169,-579.583"/>
</g>
<!-- Node30 -->
<g id="node30" class="node"><title>Node30</title>
<g id="a_node30"><a xlink:href="../../d6/d9e/EventDisp4MainDaqDst_8C.html#a9d62acc9c2150e00b509d9d553d7d6c1" target="_top" xlink:title="InitInput">
<polygon fill="none" stroke="black" points="239,-114.5 239,-133.5 291,-133.5 291,-114.5 239,-114.5"/>
<text text-anchor="middle" x="265" y="-121.5" font-family="FreeSans" font-size="10.00">InitInput</text>
</a>
</g>
</g>
<!-- Node1&#45;&gt;Node30 -->
<g id="edge29" class="edge"><title>Node1&#45;&gt;Node30</title>
<path fill="none" stroke="midnightblue" d="M84.4369,-579.017C94.502,-499.628 135.276,-207.712 198,-143 208.622,-132.041 225.122,-127.291 238.967,-125.281"/>
<polygon fill="midnightblue" stroke="midnightblue" points="80.9395,-578.779 83.1758,-589.135 87.8858,-579.645 80.9395,-578.779"/>
</g>
<!-- Node32 -->
<g id="node32" class="node"><title>Node32</title>
<g id="a_node32"><a xlink:href="../../db/dea/RecoE1039Data_8C.html#a619388c470b52b98a611cb6f18ba24c1" target="_top" xlink:title="RecoE1039Data">
<polygon fill="none" stroke="black" points="222,-76.5 222,-95.5 308,-95.5 308,-76.5 222,-76.5"/>
<text text-anchor="middle" x="265" y="-83.5" font-family="FreeSans" font-size="10.00">RecoE1039Data</text>
</a>
</g>
</g>
<!-- Node1&#45;&gt;Node32 -->
<g id="edge31" class="edge"><title>Node1&#45;&gt;Node32</title>
<path fill="none" stroke="midnightblue" d="M84.0212,-578.985C92.8422,-495.472 130.575,-175.859 198,-105 204.411,-98.2623 213.043,-93.8666 221.946,-91.0111"/>
<polygon fill="midnightblue" stroke="midnightblue" points="80.5172,-578.844 82.9683,-589.152 87.4799,-579.565 80.5172,-578.844"/>
</g>
<!-- Node33 -->
<g id="node33" class="node"><title>Node33</title>
<g id="a_node33"><a xlink:href="../../d0/d9c/RecoE1039Sim_8C.html#a7505ed22de28394b320e370de5caa6c3" target="_top" xlink:title="RecoE1039Sim">
<polygon fill="none" stroke="black" points="223.5,-38.5 223.5,-57.5 306.5,-57.5 306.5,-38.5 223.5,-38.5"/>
<text text-anchor="middle" x="265" y="-45.5" font-family="FreeSans" font-size="10.00">RecoE1039Sim</text>
</a>
</g>
</g>
<!-- Node1&#45;&gt;Node33 -->
<g id="edge32" class="edge"><title>Node1&#45;&gt;Node33</title>
<path fill="none" stroke="midnightblue" d="M83.6461,-579.144C91.2599,-491.971 125.803,-144.096 198,-67 204.683,-59.8633 213.857,-55.3491 223.239,-52.5096"/>
<polygon fill="midnightblue" stroke="midnightblue" points="80.1458,-578.999 82.7825,-589.261 87.1205,-579.595 80.1458,-578.999"/>
</g>
<!-- Node34 -->
<g id="node34" class="node"><title>Node34</title>
<g id="a_node34"><a xlink:href="../../df/d0c/RecoE906Data_8C.html#ad032525ca693000ba382d14d82bf9f2b" target="_top" xlink:title="RecoE906Data">
<polygon fill="none" stroke="black" points="224.5,-0.5 224.5,-19.5 305.5,-19.5 305.5,-0.5 224.5,-0.5"/>
<text text-anchor="middle" x="265" y="-7.5" font-family="FreeSans" font-size="10.00">RecoE906Data</text>
</a>
</g>
</g>
<!-- Node1&#45;&gt;Node34 -->
<g id="edge33" class="edge"><title>Node1&#45;&gt;Node34</title>
<path fill="none" stroke="midnightblue" d="M83.3302,-579.202C89.822,-488.363 121.042,-112.336 198,-29 204.876,-21.5541 214.462,-16.9581 224.201,-14.1404"/>
<polygon fill="midnightblue" stroke="midnightblue" points="79.8195,-579.236 82.6173,-589.455 86.8026,-579.722 79.8195,-579.236"/>
</g>
<!-- Node31 -->
<g id="node31" class="node"><title>Node31</title>
<g id="a_node31"><a xlink:href="../../d6/d9e/EventDisp4MainDaqDst_8C.html#a52e0269749883c6976db81717ead7d9b" target="_top" xlink:title="EventDisp4MainDaqDst">
<polygon fill="none" stroke="black" points="368.5,-114.5 368.5,-133.5 485.5,-133.5 485.5,-114.5 368.5,-114.5"/>
<text text-anchor="middle" x="427" y="-121.5" font-family="FreeSans" font-size="10.00">EventDisp4MainDaqDst</text>
</a>
</g>
</g>
<!-- Node30&#45;&gt;Node31 -->
<g id="edge30" class="edge"><title>Node30&#45;&gt;Node31</title>
<path fill="none" stroke="midnightblue" d="M301.377,-124C320.999,-124 345.888,-124 368.256,-124"/>
<polygon fill="midnightblue" stroke="midnightblue" points="301.353,-120.5 291.352,-124 301.352,-127.5 301.353,-120.5"/>
</g>
</g>
</svg>
