<?xml version="1.0" encoding="UTF-8" standalone="no"?>
<!DOCTYPE svg PUBLIC "-//W3C//DTD SVG 1.1//EN"
 "http://www.w3.org/Graphics/SVG/1.1/DTD/svg11.dtd">
<!-- Generated by graphviz version 2.30.1 (20200930.0103)
 -->
<!-- Title: /dev/shm/kenichi/update&#45;github&#45;e1039&#45;doc/e1039&#45;analysis/GenRoadset/src/UtilRoad.h Pages: 1 -->
<svg width="990pt" height="152pt"
 viewBox="0.00 0.00 990.00 152.00" xmlns="http://www.w3.org/2000/svg" xmlns:xlink="http://www.w3.org/1999/xlink">
<g id="graph0" class="graph" transform="scale(1 1) rotate(0) translate(4 148)">
<title>/dev/shm/kenichi/update&#45;github&#45;e1039&#45;doc/e1039&#45;analysis/GenRoadset/src/UtilRoad.h</title>
<!-- Node1 -->
<g id="node1" class="node"><title>Node1</title>
<polygon fill="#bfbfbf" stroke="black" points="428.5,-91 428.5,-143 553.5,-143 553.5,-91 428.5,-91"/>
<text text-anchor="start" x="436.5" y="-131" font-family="FreeSans" font-size="10.00">/dev/shm/kenichi/update</text>
<text text-anchor="start" x="436.5" y="-120" font-family="FreeSans" font-size="10.00">&#45;github&#45;e1039&#45;doc/e1039</text>
<text text-anchor="start" x="436.5" y="-109" font-family="FreeSans" font-size="10.00">&#45;analysis/GenRoadset/src</text>
<text text-anchor="middle" x="491" y="-98" font-family="FreeSans" font-size="10.00">/UtilRoad.h</text>
</g>
<!-- Node2 -->
<g id="node2" class="node"><title>Node2</title>
<g id="a_node2"><a xlink:href="../../db/dfe/AnaBG_8cc.html" target="_top" xlink:title="/dev/shm/kenichi/update\l&#45;github&#45;e1039&#45;doc/e1039\l&#45;analysis/GenRoadset/src\l/AnaBG.cc">
<polygon fill="none" stroke="black" points="-0.5,-1 -0.5,-53 124.5,-53 124.5,-1 -0.5,-1"/>
<text text-anchor="start" x="7.5" y="-41" font-family="FreeSans" font-size="10.00">/dev/shm/kenichi/update</text>
<text text-anchor="start" x="7.5" y="-30" font-family="FreeSans" font-size="10.00">&#45;github&#45;e1039&#45;doc/e1039</text>
<text text-anchor="start" x="7.5" y="-19" font-family="FreeSans" font-size="10.00">&#45;analysis/GenRoadset/src</text>
<text text-anchor="middle" x="62" y="-8" font-family="FreeSans" font-size="10.00">/AnaBG.cc</text>
</a>
</g>
</g>
<!-- Node1&#45;&gt;Node2 -->
<g id="edge1" class="edge"><title>Node1&#45;&gt;Node2</title>
<path fill="none" stroke="midnightblue" d="M418.172,-107.29C345.244,-97.6589 230.194,-79.9866 133,-54 130.21,-53.2541 127.375,-52.4443 124.524,-51.5872"/>
<polygon fill="midnightblue" stroke="midnightblue" points="417.808,-110.772 428.177,-108.595 418.714,-103.831 417.808,-110.772"/>
</g>
<!-- Node3 -->
<g id="node3" class="node"><title>Node3</title>
<g id="a_node3"><a xlink:href="../../d0/d15/AnaSignal_8cc.html" target="_top" xlink:title="/dev/shm/kenichi/update\l&#45;github&#45;e1039&#45;doc/e1039\l&#45;analysis/GenRoadset/src\l/AnaSignal.cc">
<polygon fill="none" stroke="black" points="142.5,-1 142.5,-53 267.5,-53 267.5,-1 142.5,-1"/>
<text text-anchor="start" x="150.5" y="-41" font-family="FreeSans" font-size="10.00">/dev/shm/kenichi/update</text>
<text text-anchor="start" x="150.5" y="-30" font-family="FreeSans" font-size="10.00">&#45;github&#45;e1039&#45;doc/e1039</text>
<text text-anchor="start" x="150.5" y="-19" font-family="FreeSans" font-size="10.00">&#45;analysis/GenRoadset/src</text>
<text text-anchor="middle" x="205" y="-8" font-family="FreeSans" font-size="10.00">/AnaSignal.cc</text>
</a>
</g>
</g>
<!-- Node1&#45;&gt;Node3 -->
<g id="edge2" class="edge"><title>Node1&#45;&gt;Node3</title>
<path fill="none" stroke="midnightblue" d="M418.254,-96.3931C376.422,-84.777 323.004,-69.3626 276,-54 273.255,-53.1028 270.457,-52.1678 267.637,-51.2082"/>
<polygon fill="midnightblue" stroke="midnightblue" points="417.511,-99.819 428.082,-99.1117 419.377,-93.0723 417.511,-99.819"/>
</g>
<!-- Node4 -->
<g id="node4" class="node"><title>Node4</title>
<g id="a_node4"><a xlink:href="../../db/d10/DrawRoadset_8cc.html" target="_top" xlink:title="/dev/shm/kenichi/update\l&#45;github&#45;e1039&#45;doc/e1039\l&#45;analysis/GenRoadset/src\l/DrawRoadset.cc">
<polygon fill="none" stroke="black" points="285.5,-1 285.5,-53 410.5,-53 410.5,-1 285.5,-1"/>
<text text-anchor="start" x="293.5" y="-41" font-family="FreeSans" font-size="10.00">/dev/shm/kenichi/update</text>
<text text-anchor="start" x="293.5" y="-30" font-family="FreeSans" font-size="10.00">&#45;github&#45;e1039&#45;doc/e1039</text>
<text text-anchor="start" x="293.5" y="-19" font-family="FreeSans" font-size="10.00">&#45;analysis/GenRoadset/src</text>
<text text-anchor="middle" x="348" y="-8" font-family="FreeSans" font-size="10.00">/DrawRoadset.cc</text>
</a>
</g>
</g>
<!-- Node1&#45;&gt;Node4 -->
<g id="edge3" class="edge"><title>Node1&#45;&gt;Node4</title>
<path fill="none" stroke="midnightblue" d="M441.281,-85.4039C424.202,-74.8936 405.29,-63.2553 388.984,-53.221"/>
<polygon fill="midnightblue" stroke="midnightblue" points="439.671,-88.5225 450.022,-90.7827 443.34,-82.5609 439.671,-88.5225"/>
</g>
<!-- Node5 -->
<g id="node5" class="node"><title>Node5</title>
<g id="a_node5"><a xlink:href="../../d0/d04/GenRoadset_8cc.html" target="_top" xlink:title="/dev/shm/kenichi/update\l&#45;github&#45;e1039&#45;doc/e1039\l&#45;analysis/GenRoadset/src\l/GenRoadset.cc">
<polygon fill="none" stroke="black" points="428.5,-1 428.5,-53 553.5,-53 553.5,-1 428.5,-1"/>
<text text-anchor="start" x="436.5" y="-41" font-family="FreeSans" font-size="10.00">/dev/shm/kenichi/update</text>
<text text-anchor="start" x="436.5" y="-30" font-family="FreeSans" font-size="10.00">&#45;github&#45;e1039&#45;doc/e1039</text>
<text text-anchor="start" x="436.5" y="-19" font-family="FreeSans" font-size="10.00">&#45;analysis/GenRoadset/src</text>
<text text-anchor="middle" x="491" y="-8" font-family="FreeSans" font-size="10.00">/GenRoadset.cc</text>
</a>
</g>
</g>
<!-- Node1&#45;&gt;Node5 -->
<g id="edge4" class="edge"><title>Node1&#45;&gt;Node5</title>
<path fill="none" stroke="midnightblue" d="M491,-80.4892C491,-71.3088 491,-61.616 491,-53.0921"/>
<polygon fill="midnightblue" stroke="midnightblue" points="487.5,-80.5467 491,-90.5468 494.5,-80.5468 487.5,-80.5467"/>
</g>
<!-- Node6 -->
<g id="node6" class="node"><title>Node6</title>
<g id="a_node6"><a xlink:href="../../da/d45/ReAnaBG_8cc.html" target="_top" xlink:title="/dev/shm/kenichi/update\l&#45;github&#45;e1039&#45;doc/e1039\l&#45;analysis/GenRoadset/src\l/ReAnaBG.cc">
<polygon fill="none" stroke="black" points="571.5,-1 571.5,-53 696.5,-53 696.5,-1 571.5,-1"/>
<text text-anchor="start" x="579.5" y="-41" font-family="FreeSans" font-size="10.00">/dev/shm/kenichi/update</text>
<text text-anchor="start" x="579.5" y="-30" font-family="FreeSans" font-size="10.00">&#45;github&#45;e1039&#45;doc/e1039</text>
<text text-anchor="start" x="579.5" y="-19" font-family="FreeSans" font-size="10.00">&#45;analysis/GenRoadset/src</text>
<text text-anchor="middle" x="634" y="-8" font-family="FreeSans" font-size="10.00">/ReAnaBG.cc</text>
</a>
</g>
</g>
<!-- Node1&#45;&gt;Node6 -->
<g id="edge5" class="edge"><title>Node1&#45;&gt;Node6</title>
<path fill="none" stroke="midnightblue" d="M540.719,-85.4039C557.798,-74.8936 576.71,-63.2553 593.016,-53.221"/>
<polygon fill="midnightblue" stroke="midnightblue" points="538.66,-82.5609 531.978,-90.7827 542.329,-88.5225 538.66,-82.5609"/>
</g>
<!-- Node7 -->
<g id="node7" class="node"><title>Node7</title>
<g id="a_node7"><a xlink:href="../../d2/d5c/ReAnaSignal_8cc.html" target="_top" xlink:title="/dev/shm/kenichi/update\l&#45;github&#45;e1039&#45;doc/e1039\l&#45;analysis/GenRoadset/src\l/ReAnaSignal.cc">
<polygon fill="none" stroke="black" points="714.5,-1 714.5,-53 839.5,-53 839.5,-1 714.5,-1"/>
<text text-anchor="start" x="722.5" y="-41" font-family="FreeSans" font-size="10.00">/dev/shm/kenichi/update</text>
<text text-anchor="start" x="722.5" y="-30" font-family="FreeSans" font-size="10.00">&#45;github&#45;e1039&#45;doc/e1039</text>
<text text-anchor="start" x="722.5" y="-19" font-family="FreeSans" font-size="10.00">&#45;analysis/GenRoadset/src</text>
<text text-anchor="middle" x="777" y="-8" font-family="FreeSans" font-size="10.00">/ReAnaSignal.cc</text>
</a>
</g>
</g>
<!-- Node1&#45;&gt;Node7 -->
<g id="edge6" class="edge"><title>Node1&#45;&gt;Node7</title>
<path fill="none" stroke="midnightblue" d="M563.376,-96.2855C605.003,-84.6342 658.173,-69.2207 705,-54 708.033,-53.014 711.131,-51.9844 714.254,-50.928"/>
<polygon fill="midnightblue" stroke="midnightblue" points="562.288,-92.9552 553.596,-99.0131 564.169,-99.6978 562.288,-92.9552"/>
</g>
<!-- Node8 -->
<g id="node8" class="node"><title>Node8</title>
<g id="a_node8"><a xlink:href="../../da/dc6/UtilRoad_8cc.html" target="_top" xlink:title="/dev/shm/kenichi/update\l&#45;github&#45;e1039&#45;doc/e1039\l&#45;analysis/GenRoadset/src\l/UtilRoad.cc">
<polygon fill="none" stroke="black" points="857.5,-1 857.5,-53 982.5,-53 982.5,-1 857.5,-1"/>
<text text-anchor="start" x="865.5" y="-41" font-family="FreeSans" font-size="10.00">/dev/shm/kenichi/update</text>
<text text-anchor="start" x="865.5" y="-30" font-family="FreeSans" font-size="10.00">&#45;github&#45;e1039&#45;doc/e1039</text>
<text text-anchor="start" x="865.5" y="-19" font-family="FreeSans" font-size="10.00">&#45;analysis/GenRoadset/src</text>
<text text-anchor="middle" x="920" y="-8" font-family="FreeSans" font-size="10.00">/UtilRoad.cc</text>
</a>
</g>
</g>
<!-- Node1&#45;&gt;Node8 -->
<g id="edge7" class="edge"><title>Node1&#45;&gt;Node8</title>
<path fill="none" stroke="midnightblue" d="M563.599,-107.177C636.303,-97.4588 751.018,-79.7212 848,-54 851.083,-53.1823 854.221,-52.2895 857.376,-51.3427"/>
<polygon fill="midnightblue" stroke="midnightblue" points="563.08,-103.715 553.625,-108.495 563.997,-110.654 563.08,-103.715"/>
</g>
</g>
</svg>
