<?xml version="1.0" encoding="UTF-8" standalone="no"?>
<!DOCTYPE svg PUBLIC "-//W3C//DTD SVG 1.1//EN"
 "http://www.w3.org/Graphics/SVG/1.1/DTD/svg11.dtd">
<!-- Generated by graphviz version 2.40.1 (20161225.0304)
 -->
<!-- Title: /home/yuhw/GitHub/SeaQuest/e1039&#45;core/framework/ffaobjects/RunHeader.cc Pages: 1 -->
<svg width="328pt" height="218pt"
 viewBox="0.00 0.00 328.00 218.00" xmlns="http://www.w3.org/2000/svg" xmlns:xlink="http://www.w3.org/1999/xlink">
<g id="graph0" class="graph" transform="scale(1 1) rotate(0) translate(4 214)">
<title>/home/yuhw/GitHub/SeaQuest/e1039&#45;core/framework/ffaobjects/RunHeader.cc</title>
<!-- Node0 -->
<g id="node1" class="node">
<title>Node0</title>
<polygon fill="#bfbfbf" stroke="#000000" points="138.5,-168.5 138.5,-209.5 297.5,-209.5 297.5,-168.5 138.5,-168.5"/>
<text text-anchor="start" x="146.5" y="-197.5" font-family="FreeSans" font-size="10.00" fill="#000000">/home/yuhw/GitHub/SeaQuest</text>
<text text-anchor="start" x="146.5" y="-186.5" font-family="FreeSans" font-size="10.00" fill="#000000">/e1039&#45;core/framework/ffaobjects</text>
<text text-anchor="middle" x="218" y="-175.5" font-family="FreeSans" font-size="10.00" fill="#000000">/RunHeader.cc</text>
</g>
<!-- Node1 -->
<g id="node2" class="node">
<title>Node1</title>
<g id="a_node2"><a xlink:href="../../da/d61/RunHeader_8h.html" target="_top" xlink:title="RunHeader.h">
<polygon fill="none" stroke="#000000" points="101,-112.5 101,-131.5 173,-131.5 173,-112.5 101,-112.5"/>
<text text-anchor="middle" x="137" y="-119.5" font-family="FreeSans" font-size="10.00" fill="#000000">RunHeader.h</text>
</a>
</g>
</g>
<!-- Node0&#45;&gt;Node1 -->
<g id="edge1" class="edge">
<title>Node0&#45;&gt;Node1</title>
<path fill="none" stroke="#191970" d="M192.8151,-168.168C181.1207,-158.4949 167.4284,-147.1692 156.5322,-138.1562"/>
<polygon fill="#191970" stroke="#191970" points="158.7605,-135.4573 148.8241,-131.7805 154.2989,-140.8512 158.7605,-135.4573"/>
</g>
<!-- Node4 -->
<g id="node5" class="node">
<title>Node4</title>
<polygon fill="none" stroke="#bfbfbf" points="142.5,-.5 142.5,-19.5 195.5,-19.5 195.5,-.5 142.5,-.5"/>
<text text-anchor="middle" x="169" y="-7.5" font-family="FreeSans" font-size="10.00" fill="#000000">iostream</text>
</g>
<!-- Node0&#45;&gt;Node4 -->
<g id="edge9" class="edge">
<title>Node0&#45;&gt;Node4</title>
<path fill="none" stroke="#191970" d="M217.4945,-168.0642C216.2599,-141.291 212.0743,-93.8642 198,-56 194.3196,-46.0986 188.3165,-36.065 182.7241,-27.9062"/>
<polygon fill="#191970" stroke="#191970" points="185.4196,-25.6603 176.7303,-19.5983 179.7427,-29.7559 185.4196,-25.6603"/>
</g>
<!-- Node6 -->
<g id="node7" class="node">
<title>Node6</title>
<g id="a_node7"><a xlink:href="../../d5/d6f/phool_8h.html" target="_top" xlink:title="phool/phool.h">
<polygon fill="none" stroke="#000000" points="246,-112.5 246,-131.5 320,-131.5 320,-112.5 246,-112.5"/>
<text text-anchor="middle" x="283" y="-119.5" font-family="FreeSans" font-size="10.00" fill="#000000">phool/phool.h</text>
</a>
</g>
</g>
<!-- Node0&#45;&gt;Node6 -->
<g id="edge7" class="edge">
<title>Node0&#45;&gt;Node6</title>
<path fill="none" stroke="#191970" d="M238.2101,-168.168C247.2265,-158.8742 257.7228,-148.0549 266.2872,-139.227"/>
<polygon fill="#191970" stroke="#191970" points="269.0604,-141.395 273.5115,-131.7805 264.0362,-136.5208 269.0604,-141.395"/>
</g>
<!-- Node2 -->
<g id="node3" class="node">
<title>Node2</title>
<g id="a_node3"><a xlink:href="../../df/d32/PHObject_8h.html" target="_top" xlink:title="phool/PHObject.h">
<polygon fill="none" stroke="#000000" points="0,-56.5 0,-75.5 92,-75.5 92,-56.5 0,-56.5"/>
<text text-anchor="middle" x="46" y="-63.5" font-family="FreeSans" font-size="10.00" fill="#000000">phool/PHObject.h</text>
</a>
</g>
</g>
<!-- Node1&#45;&gt;Node2 -->
<g id="edge2" class="edge">
<title>Node1&#45;&gt;Node2</title>
<path fill="none" stroke="#191970" d="M121.149,-112.2455C107.1868,-103.6534 86.6272,-91.0014 70.5404,-81.1018"/>
<polygon fill="#191970" stroke="#191970" points="72.0203,-77.9029 61.6693,-75.6427 68.3516,-83.8645 72.0203,-77.9029"/>
</g>
<!-- Node1&#45;&gt;Node4 -->
<g id="edge6" class="edge">
<title>Node1&#45;&gt;Node4</title>
<path fill="none" stroke="#191970" d="M135.6939,-112.3321C134.2789,-99.2267 132.9587,-75.2502 139,-56 142.1868,-45.8455 148.2983,-35.8007 154.178,-27.7004"/>
<polygon fill="#191970" stroke="#191970" points="156.9691,-29.8126 160.3179,-19.7609 151.4317,-25.5304 156.9691,-29.8126"/>
</g>
<!-- Node5 -->
<g id="node6" class="node">
<title>Node5</title>
<polygon fill="none" stroke="#bfbfbf" points="148.5,-56.5 148.5,-75.5 189.5,-75.5 189.5,-56.5 148.5,-56.5"/>
<text text-anchor="middle" x="169" y="-63.5" font-family="FreeSans" font-size="10.00" fill="#000000">ctime</text>
</g>
<!-- Node1&#45;&gt;Node5 -->
<g id="edge5" class="edge">
<title>Node1&#45;&gt;Node5</title>
<path fill="none" stroke="#191970" d="M142.574,-112.2455C146.9331,-104.617 153.1211,-93.7881 158.4133,-84.5267"/>
<polygon fill="#191970" stroke="#191970" points="161.5673,-86.0616 163.4899,-75.6427 155.4896,-82.5886 161.5673,-86.0616"/>
</g>
<!-- Node3 -->
<g id="node4" class="node">
<title>Node3</title>
<polygon fill="none" stroke="#bfbfbf" points="16.5,-.5 16.5,-19.5 75.5,-19.5 75.5,-.5 16.5,-.5"/>
<text text-anchor="middle" x="46" y="-7.5" font-family="FreeSans" font-size="10.00" fill="#000000">TObject.h</text>
</g>
<!-- Node2&#45;&gt;Node3 -->
<g id="edge3" class="edge">
<title>Node2&#45;&gt;Node3</title>
<path fill="none" stroke="#191970" d="M46,-56.2455C46,-48.9382 46,-38.6944 46,-29.7046"/>
<polygon fill="#191970" stroke="#191970" points="49.5001,-29.6426 46,-19.6427 42.5001,-29.6427 49.5001,-29.6426"/>
</g>
<!-- Node2&#45;&gt;Node4 -->
<g id="edge4" class="edge">
<title>Node2&#45;&gt;Node4</title>
<path fill="none" stroke="#191970" d="M67.1445,-56.3733C86.8892,-47.3838 116.5698,-33.8706 138.8055,-23.7471"/>
<polygon fill="#191970" stroke="#191970" points="140.4806,-26.8302 148.1315,-19.5011 137.58,-20.4594 140.4806,-26.8302"/>
</g>
<!-- Node6&#45;&gt;Node4 -->
<g id="edge8" class="edge">
<title>Node6&#45;&gt;Node4</title>
<path fill="none" stroke="#191970" d="M276.8261,-112.359C267.913,-98.8627 250.4723,-73.9765 232,-56 220.207,-44.5235 205.416,-33.5784 193.1297,-25.2457"/>
<polygon fill="#191970" stroke="#191970" points="194.9755,-22.2702 184.7048,-19.6697 191.1121,-28.1075 194.9755,-22.2702"/>
</g>
</g>
</svg>
