<?xml version="1.0" encoding="UTF-8" standalone="no"?>
<!DOCTYPE svg PUBLIC "-//W3C//DTD SVG 1.1//EN"
 "http://www.w3.org/Graphics/SVG/1.1/DTD/svg11.dtd">
<!-- Generated by graphviz version 2.30.1 (20200930.0103)
 -->
<!-- Title: Fun4AllSyncManager::CurrentEvent Pages: 1 -->
<svg width="340pt" height="180pt"
 viewBox="0.00 0.00 340.00 180.00" xmlns="http://www.w3.org/2000/svg" xmlns:xlink="http://www.w3.org/1999/xlink">
<g id="graph0" class="graph" transform="scale(1 1) rotate(0) translate(4 176)">
<title>Fun4AllSyncManager::CurrentEvent</title>
<!-- Node1 -->
<g id="node1" class="node"><title>Node1</title>
<polygon fill="#bfbfbf" stroke="black" points="0.5,-71 0.5,-101 109.5,-101 109.5,-71 0.5,-71"/>
<text text-anchor="start" x="8.5" y="-89" font-family="FreeSans" font-size="10.00">Fun4AllSyncManager</text>
<text text-anchor="middle" x="55" y="-78" font-family="FreeSans" font-size="10.00">::CurrentEvent</text>
</g>
<!-- Node2 -->
<g id="node2" class="node"><title>Node2</title>
<g id="a_node2"><a xlink:href="../../d3/d97/classFun4AllEVIOInputManager.html#af61a28facba084aad29bf788ef2d28e7" target="_top" xlink:title="Fun4AllEVIOInputManager::run">
<polygon fill="none" stroke="black" points="164.5,-152.5 164.5,-171.5 313.5,-171.5 313.5,-152.5 164.5,-152.5"/>
<text text-anchor="middle" x="239" y="-159.5" font-family="FreeSans" font-size="10.00">Fun4AllEVIOInputManager::run</text>
</a>
</g>
</g>
<!-- Node1&#45;&gt;Node2 -->
<g id="edge1" class="edge"><title>Node1&#45;&gt;Node2</title>
<path fill="none" stroke="midnightblue" d="M83.6311,-107.203C100.746,-119.367 123.659,-133.97 146,-143 155.526,-146.85 165.935,-149.956 176.216,-152.451"/>
<polygon fill="midnightblue" stroke="midnightblue" points="85.39,-104.155 75.243,-101.107 81.2746,-109.817 85.39,-104.155"/>
</g>
<!-- Node3 -->
<g id="node3" class="node"><title>Node3</title>
<g id="a_node3"><a xlink:href="../../da/dd8/classFun4AllPrdfInputManager.html#ac3f313ef5571ce32cd40799791e2ea56" target="_top" xlink:title="Fun4AllPrdfInputManager::run">
<polygon fill="none" stroke="black" points="166.5,-114.5 166.5,-133.5 311.5,-133.5 311.5,-114.5 166.5,-114.5"/>
<text text-anchor="middle" x="239" y="-121.5" font-family="FreeSans" font-size="10.00">Fun4AllPrdfInputManager::run</text>
</a>
</g>
</g>
<!-- Node1&#45;&gt;Node3 -->
<g id="edge2" class="edge"><title>Node1&#45;&gt;Node3</title>
<path fill="none" stroke="midnightblue" d="M119.669,-99.4776C128.512,-101.339 137.482,-103.221 146,-105 160.847,-108.1 177.049,-111.456 191.661,-114.471"/>
<polygon fill="midnightblue" stroke="midnightblue" points="120.276,-96.0288 109.769,-97.3917 118.833,-102.878 120.276,-96.0288"/>
</g>
<!-- Node4 -->
<g id="node4" class="node"><title>Node4</title>
<g id="a_node4"><a xlink:href="../../d5/dd4/classFun4AllSRawEventInputManager.html#a6fb883458d575781c7ae1da38ecf30dd" target="_top" xlink:title="Fun4AllSRawEventInputManager::run">
<polygon fill="none" stroke="black" points="151,-76.5 151,-95.5 327,-95.5 327,-76.5 151,-76.5"/>
<text text-anchor="middle" x="239" y="-83.5" font-family="FreeSans" font-size="10.00">Fun4AllSRawEventInputManager::run</text>
</a>
</g>
</g>
<!-- Node1&#45;&gt;Node4 -->
<g id="edge3" class="edge"><title>Node1&#45;&gt;Node4</title>
<path fill="none" stroke="midnightblue" d="M119.9,-86C129.955,-86 140.495,-86 150.965,-86"/>
<polygon fill="midnightblue" stroke="midnightblue" points="119.622,-82.5001 109.622,-86 119.622,-89.5001 119.622,-82.5001"/>
</g>
<!-- Node5 -->
<g id="node5" class="node"><title>Node5</title>
<g id="a_node5"><a xlink:href="../../de/d99/classFun4AllHepMCPileupInputManager.html#a81bf2b69c3c4d3aae0aadebafe1c2c2e" target="_top" xlink:title="Fun4AllHepMCPileupInputManager::run">
<polygon fill="none" stroke="black" points="146,-38.5 146,-57.5 332,-57.5 332,-38.5 146,-38.5"/>
<text text-anchor="middle" x="239" y="-45.5" font-family="FreeSans" font-size="10.00">Fun4AllHepMCPileupInputManager::run</text>
</a>
</g>
</g>
<!-- Node1&#45;&gt;Node5 -->
<g id="edge4" class="edge"><title>Node1&#45;&gt;Node5</title>
<path fill="none" stroke="midnightblue" d="M119.669,-72.5224C128.512,-70.6611 137.482,-68.7788 146,-67 160.847,-63.8996 177.049,-60.5444 191.661,-57.5286"/>
<polygon fill="midnightblue" stroke="midnightblue" points="118.833,-69.1216 109.769,-74.6083 120.276,-75.9712 118.833,-69.1216"/>
</g>
<!-- Node6 -->
<g id="node6" class="node"><title>Node6</title>
<g id="a_node6"><a xlink:href="../../d6/d6f/classFun4AllHepMCInputManager.html#ab6c80a8ee0701bfff5eee3ec3623015c" target="_top" xlink:title="Fun4AllHepMCInputManager::run">
<polygon fill="none" stroke="black" points="159.5,-0.5 159.5,-19.5 318.5,-19.5 318.5,-0.5 159.5,-0.5"/>
<text text-anchor="middle" x="239" y="-7.5" font-family="FreeSans" font-size="10.00">Fun4AllHepMCInputManager::run</text>
</a>
</g>
</g>
<!-- Node1&#45;&gt;Node6 -->
<g id="edge5" class="edge"><title>Node1&#45;&gt;Node6</title>
<path fill="none" stroke="midnightblue" d="M83.6311,-64.7969C100.746,-52.6328 123.659,-38.0301 146,-29 155.526,-25.1496 165.935,-22.0437 176.216,-19.5489"/>
<polygon fill="midnightblue" stroke="midnightblue" points="81.2746,-62.1828 75.243,-70.8932 85.39,-67.8453 81.2746,-62.1828"/>
</g>
</g>
</svg>
