<?xml version="1.0" encoding="UTF-8" standalone="no"?>
<!DOCTYPE svg PUBLIC "-//W3C//DTD SVG 1.1//EN"
 "http://www.w3.org/Graphics/SVG/1.1/DTD/svg11.dtd">
<!-- Generated by graphviz version 2.44.0 (0)
 -->
<!-- Title: PHParametersContainer::CopyToPdbParameterMapContainer Pages: 1 -->
<svg width="578pt" height="137pt"
 viewBox="0.00 0.00 578.00 137.00" xmlns="http://www.w3.org/2000/svg" xmlns:xlink="http://www.w3.org/1999/xlink">
<g id="graph0" class="graph" transform="scale(1 1) rotate(0) translate(4 133)">
<title>PHParametersContainer::CopyToPdbParameterMapContainer</title>
<!-- Node1 -->
<g id="node1" class="node">
<title>Node1</title>
<g id="a_node1"><a xlink:title=" ">
<polygon fill="#bfbfbf" stroke="black" points="376,-49.5 376,-79.5 570,-79.5 570,-49.5 376,-49.5"/>
<text text-anchor="start" x="384" y="-67.5" font-family="FreeSans" font-size="10.00">PHParametersContainer</text>
<text text-anchor="middle" x="473" y="-56.5" font-family="FreeSans" font-size="10.00">::CopyToPdbParameterMapContainer</text>
</a>
</g>
</g>
<!-- Node2 -->
<g id="node2" class="node">
<title>Node2</title>
<g id="a_node2"><a xlink:href="../../d7/d6b/classPHParametersContainer.html#aaead8ac42db247baa239c4b236b427c5" target="_top" xlink:title=" ">
<polygon fill="none" stroke="black" points="207,-98.5 207,-128.5 340,-128.5 340,-98.5 207,-98.5"/>
<text text-anchor="start" x="215" y="-116.5" font-family="FreeSans" font-size="10.00">PHParametersContainer</text>
<text text-anchor="middle" x="273.5" y="-105.5" font-family="FreeSans" font-size="10.00">::SaveToNodeTree</text>
</a>
</g>
</g>
<!-- Node1&#45;&gt;Node2 -->
<g id="edge1" class="edge">
<title>Node1&#45;&gt;Node2</title>
<path fill="none" stroke="midnightblue" d="M401.56,-81.98C379.79,-87.38 356.02,-93.28 334.98,-98.49"/>
<polygon fill="midnightblue" stroke="midnightblue" points="402.54,-85.34 411.4,-79.53 400.85,-78.55 402.54,-85.34"/>
</g>
<!-- Node4 -->
<g id="node4" class="node">
<title>Node4</title>
<g id="a_node4"><a xlink:href="../../d7/d6b/classPHParametersContainer.html#a28e298090d8a42aed01b4d7c533f5f8c" target="_top" xlink:title=" ">
<polygon fill="none" stroke="black" points="207,-49.5 207,-79.5 340,-79.5 340,-49.5 207,-49.5"/>
<text text-anchor="start" x="215" y="-67.5" font-family="FreeSans" font-size="10.00">PHParametersContainer</text>
<text text-anchor="middle" x="273.5" y="-56.5" font-family="FreeSans" font-size="10.00">::WriteToDB</text>
</a>
</g>
</g>
<!-- Node1&#45;&gt;Node4 -->
<g id="edge3" class="edge">
<title>Node1&#45;&gt;Node4</title>
<path fill="none" stroke="midnightblue" d="M365.68,-64.5C357.02,-64.5 348.45,-64.5 340.22,-64.5"/>
<polygon fill="midnightblue" stroke="midnightblue" points="365.85,-68 375.85,-64.5 365.85,-61 365.85,-68"/>
</g>
<!-- Node6 -->
<g id="node6" class="node">
<title>Node6</title>
<g id="a_node6"><a xlink:href="../../d7/d6b/classPHParametersContainer.html#a2ff7874e21c88c95d6c630512185bbaa" target="_top" xlink:title=" ">
<polygon fill="none" stroke="black" points="207,-0.5 207,-30.5 340,-30.5 340,-0.5 207,-0.5"/>
<text text-anchor="start" x="215" y="-18.5" font-family="FreeSans" font-size="10.00">PHParametersContainer</text>
<text text-anchor="middle" x="273.5" y="-7.5" font-family="FreeSans" font-size="10.00">::WriteToFile</text>
</a>
</g>
</g>
<!-- Node1&#45;&gt;Node6 -->
<g id="edge5" class="edge">
<title>Node1&#45;&gt;Node6</title>
<path fill="none" stroke="midnightblue" d="M401.56,-47.02C379.79,-41.62 356.02,-35.72 334.98,-30.51"/>
<polygon fill="midnightblue" stroke="midnightblue" points="400.85,-50.45 411.4,-49.47 402.54,-43.66 400.85,-50.45"/>
</g>
<!-- Node3 -->
<g id="node3" class="node">
<title>Node3</title>
<g id="a_node3"><a xlink:href="../../da/d11/classPHParameterContainerInterface.html#aca8df1df6b4d8744ae9abaeec7bca577" target="_top" xlink:title=" ">
<polygon fill="none" stroke="black" points="0,-98.5 0,-128.5 171,-128.5 171,-98.5 0,-98.5"/>
<text text-anchor="start" x="8" y="-116.5" font-family="FreeSans" font-size="10.00">PHParameterContainerInterface</text>
<text text-anchor="middle" x="85.5" y="-105.5" font-family="FreeSans" font-size="10.00">::SaveToNodeTree</text>
</a>
</g>
</g>
<!-- Node2&#45;&gt;Node3 -->
<g id="edge2" class="edge">
<title>Node2&#45;&gt;Node3</title>
<path fill="none" stroke="midnightblue" d="M196.72,-113.5C188.26,-113.5 179.6,-113.5 171.03,-113.5"/>
<polygon fill="midnightblue" stroke="midnightblue" points="196.92,-117 206.92,-113.5 196.92,-110 196.92,-117"/>
</g>
<!-- Node5 -->
<g id="node5" class="node">
<title>Node5</title>
<g id="a_node5"><a xlink:href="../../d5/d29/classPHG4DetectorSubsystem.html#aaa04f4a2184f81eba3c3552d1b7061e3" target="_top" xlink:title=" ">
<polygon fill="none" stroke="black" points="15.5,-49.5 15.5,-79.5 155.5,-79.5 155.5,-49.5 15.5,-49.5"/>
<text text-anchor="start" x="23.5" y="-67.5" font-family="FreeSans" font-size="10.00">PHG4DetectorSubsystem</text>
<text text-anchor="middle" x="85.5" y="-56.5" font-family="FreeSans" font-size="10.00">::SaveParamsToDB</text>
</a>
</g>
</g>
<!-- Node4&#45;&gt;Node5 -->
<g id="edge4" class="edge">
<title>Node4&#45;&gt;Node5</title>
<path fill="none" stroke="midnightblue" d="M196.65,-64.5C183.06,-64.5 168.97,-64.5 155.58,-64.5"/>
<polygon fill="midnightblue" stroke="midnightblue" points="196.92,-68 206.92,-64.5 196.92,-61 196.92,-68"/>
</g>
</g>
</svg>
