<?xml version="1.0" encoding="UTF-8" standalone="no"?>
<!DOCTYPE svg PUBLIC "-//W3C//DTD SVG 1.1//EN"
 "http://www.w3.org/Graphics/SVG/1.1/DTD/svg11.dtd">
<!-- Generated by graphviz version 2.36.0 (20140111.2315)
 -->
<!-- Title: PHG4StepStatusDecode::GetStepStatus Pages: 1 -->
<svg width="336pt" height="332pt"
 viewBox="0.00 0.00 336.00 332.00" xmlns="http://www.w3.org/2000/svg" xmlns:xlink="http://www.w3.org/1999/xlink">
<g id="graph0" class="graph" transform="scale(1 1) rotate(0) translate(4 328)">
<title>PHG4StepStatusDecode::GetStepStatus</title>
<!-- Node1 -->
<g id="node1" class="node"><title>Node1</title>
<polygon fill="#bfbfbf" stroke="black" points="0.5,-147 0.5,-177 125.5,-177 125.5,-147 0.5,-147"/>
<text text-anchor="start" x="8.5" y="-165" font-family="FreeSans" font-size="10.00">PHG4StepStatusDecode</text>
<text text-anchor="middle" x="63" y="-154" font-family="FreeSans" font-size="10.00">::GetStepStatus</text>
</g>
<!-- Node2 -->
<g id="node2" class="node"><title>Node2</title>
<g id="a_node2"><a xlink:href="../../d1/da2/classPHG4BlockSteppingAction.html#ae7baa1eb4f42a8a23888709986dd6881" target="_top" xlink:title="stepping action ">
<polygon fill="none" stroke="black" points="178,-294 178,-324 312,-324 312,-294 178,-294"/>
<text text-anchor="start" x="186" y="-312" font-family="FreeSans" font-size="10.00">PHG4BlockSteppingAction</text>
<text text-anchor="middle" x="245" y="-301" font-family="FreeSans" font-size="10.00">::UserSteppingAction</text>
</a>
</g>
</g>
<!-- Node1&#45;&gt;Node2 -->
<g id="edge1" class="edge"><title>Node1&#45;&gt;Node2</title>
<path fill="none" stroke="midnightblue" d="M77.3293,-186.184C93.7463,-213.78 124.163,-258.391 162,-284 167.67,-287.837 173.949,-291.103 180.437,-293.878"/>
<polygon fill="midnightblue" stroke="midnightblue" points="80.1599,-184.088 72.117,-177.191 74.1037,-187.598 80.1599,-184.088"/>
</g>
<!-- Node3 -->
<g id="node3" class="node"><title>Node3</title>
<g id="a_node3"><a xlink:href="../../d9/d14/classPHG4E1039InsensSteppingAction.html#a96517d619844a56a49d337482f09d5dd" target="_top" xlink:title="stepping action ">
<polygon fill="none" stroke="black" points="162,-245 162,-275 328,-275 328,-245 162,-245"/>
<text text-anchor="start" x="170" y="-263" font-family="FreeSans" font-size="10.00">PHG4E1039InsensSteppingAction</text>
<text text-anchor="middle" x="245" y="-252" font-family="FreeSans" font-size="10.00">::UserSteppingAction</text>
</a>
</g>
</g>
<!-- Node1&#45;&gt;Node3 -->
<g id="edge2" class="edge"><title>Node1&#45;&gt;Node3</title>
<path fill="none" stroke="midnightblue" d="M88.3112,-183.868C107.239,-199.922 134.787,-221.242 162,-235 169.438,-238.76 177.546,-242.072 185.674,-244.951"/>
<polygon fill="midnightblue" stroke="midnightblue" points="90.3602,-181.013 80.5033,-177.128 85.7862,-186.312 90.3602,-181.013"/>
</g>
<!-- Node4 -->
<g id="node4" class="node"><title>Node4</title>
<g id="a_node4"><a xlink:href="../../d2/dc6/classPHG4CollimatorSteppingAction.html#a615dc42ea59ff8790f73255c56a8c654" target="_top" xlink:title="stepping action ">
<polygon fill="none" stroke="black" points="168.5,-196 168.5,-226 321.5,-226 321.5,-196 168.5,-196"/>
<text text-anchor="start" x="176.5" y="-214" font-family="FreeSans" font-size="10.00">PHG4CollimatorSteppingAction</text>
<text text-anchor="middle" x="245" y="-203" font-family="FreeSans" font-size="10.00">::UserSteppingAction</text>
</a>
</g>
</g>
<!-- Node1&#45;&gt;Node4 -->
<g id="edge3" class="edge"><title>Node1&#45;&gt;Node4</title>
<path fill="none" stroke="midnightblue" d="M129.198,-179.748C148.707,-185.059 169.902,-190.829 188.708,-195.948"/>
<polygon fill="midnightblue" stroke="midnightblue" points="130.043,-176.351 119.475,-177.101 128.204,-183.105 130.043,-176.351"/>
</g>
<!-- Node5 -->
<g id="node5" class="node"><title>Node5</title>
<g id="a_node5"><a xlink:href="../../d2/db5/classPHG4BNLTargetCoilSteppingAction.html#a0e62c4546b2a6fceca0f410e1fe4d222" target="_top" xlink:title="stepping action ">
<polygon fill="none" stroke="black" points="172,-147 172,-177 318,-177 318,-147 172,-147"/>
<text text-anchor="start" x="180" y="-165" font-family="FreeSans" font-size="10.00">PHG4BNLTargetCoilStepping</text>
<text text-anchor="middle" x="245" y="-154" font-family="FreeSans" font-size="10.00">Action::UserSteppingAction</text>
</a>
</g>
</g>
<!-- Node1&#45;&gt;Node5 -->
<g id="edge4" class="edge"><title>Node1&#45;&gt;Node5</title>
<path fill="none" stroke="midnightblue" d="M135.948,-162C147.768,-162 160.021,-162 171.846,-162"/>
<polygon fill="midnightblue" stroke="midnightblue" points="135.694,-158.5 125.694,-162 135.694,-165.5 135.694,-158.5"/>
</g>
<!-- Node6 -->
<g id="node6" class="node"><title>Node6</title>
<g id="a_node6"><a xlink:href="../../da/d58/classPHG4CylinderSteppingAction.html#a617bc1e8c57c83679e482a27a7d5a8b5" target="_top" xlink:title="stepping action ">
<polygon fill="none" stroke="black" points="173,-98 173,-128 317,-128 317,-98 173,-98"/>
<text text-anchor="start" x="181" y="-116" font-family="FreeSans" font-size="10.00">PHG4CylinderSteppingAction</text>
<text text-anchor="middle" x="245" y="-105" font-family="FreeSans" font-size="10.00">::UserSteppingAction</text>
</a>
</g>
</g>
<!-- Node1&#45;&gt;Node6 -->
<g id="edge5" class="edge"><title>Node1&#45;&gt;Node6</title>
<path fill="none" stroke="midnightblue" d="M129.198,-144.252C148.707,-138.941 169.902,-133.171 188.708,-128.052"/>
<polygon fill="midnightblue" stroke="midnightblue" points="128.204,-140.895 119.475,-146.899 130.043,-147.649 128.204,-140.895"/>
</g>
<!-- Node7 -->
<g id="node7" class="node"><title>Node7</title>
<g id="a_node7"><a xlink:href="../../d3/d3d/classPHG4PolyconSteppingAction.html#a3c87e656ab7fe0670495941e0c545bfd" target="_top" xlink:title="stepping action ">
<polygon fill="none" stroke="black" points="173,-49 173,-79 317,-79 317,-49 173,-49"/>
<text text-anchor="start" x="181" y="-67" font-family="FreeSans" font-size="10.00">PHG4PolyconSteppingAction</text>
<text text-anchor="middle" x="245" y="-56" font-family="FreeSans" font-size="10.00">::UserSteppingAction</text>
</a>
</g>
</g>
<!-- Node1&#45;&gt;Node7 -->
<g id="edge6" class="edge"><title>Node1&#45;&gt;Node7</title>
<path fill="none" stroke="midnightblue" d="M88.3112,-140.132C107.239,-124.078 134.787,-102.758 162,-89 169.438,-85.2397 177.546,-81.9283 185.674,-79.0492"/>
<polygon fill="midnightblue" stroke="midnightblue" points="85.7862,-137.688 80.5033,-146.872 90.3602,-142.987 85.7862,-137.688"/>
</g>
<!-- Node8 -->
<g id="node8" class="node"><title>Node8</title>
<g id="a_node8"><a xlink:href="../../db/d00/classPHG4TargetCoilSteppingAction.html#a782a5cc75c50dcb78cff48729fe8922f" target="_top" xlink:title="stepping action ">
<polygon fill="none" stroke="black" points="168,-0 168,-30 322,-30 322,-0 168,-0"/>
<text text-anchor="start" x="176" y="-18" font-family="FreeSans" font-size="10.00">PHG4TargetCoilSteppingAction</text>
<text text-anchor="middle" x="245" y="-7" font-family="FreeSans" font-size="10.00">::UserSteppingAction</text>
</a>
</g>
</g>
<!-- Node1&#45;&gt;Node8 -->
<g id="edge7" class="edge"><title>Node1&#45;&gt;Node8</title>
<path fill="none" stroke="midnightblue" d="M77.3293,-137.816C93.7463,-110.22 124.163,-65.6086 162,-40 167.67,-36.1627 173.949,-32.8972 180.437,-30.122"/>
<polygon fill="midnightblue" stroke="midnightblue" points="74.1037,-136.402 72.117,-146.809 80.1599,-139.912 74.1037,-136.402"/>
</g>
</g>
</svg>
