<?xml version="1.0" encoding="UTF-8" standalone="no"?>
<!DOCTYPE svg PUBLIC "-//W3C//DTD SVG 1.1//EN"
 "http://www.w3.org/Graphics/SVG/1.1/DTD/svg11.dtd">
<!-- Generated by graphviz version 2.36.0 (20140111.2315)
 -->
<!-- Title: /home/yuhw/GitHub/SeaQuest/e1039&#45;core/simulation/g4detectors/PHG4TargetCoilDetector.h Pages: 1 -->
<svg width="197pt" height="162pt"
 viewBox="0.00 0.00 197.00 162.00" xmlns="http://www.w3.org/2000/svg" xmlns:xlink="http://www.w3.org/1999/xlink">
<g id="graph0" class="graph" transform="scale(1 1) rotate(0) translate(4 158)">
<title>/home/yuhw/GitHub/SeaQuest/e1039&#45;core/simulation/g4detectors/PHG4TargetCoilDetector.h</title>
<!-- Node1 -->
<g id="node1" class="node"><title>Node1</title>
<polygon fill="#bfbfbf" stroke="black" points="20.5,-112.5 20.5,-153.5 189.5,-153.5 189.5,-112.5 20.5,-112.5"/>
<text text-anchor="start" x="28.5" y="-141.5" font-family="FreeSans" font-size="10.00">/home/yuhw/GitHub/SeaQuest</text>
<text text-anchor="start" x="28.5" y="-130.5" font-family="FreeSans" font-size="10.00">/e1039&#45;core/simulation/g4detectors</text>
<text text-anchor="middle" x="105" y="-119.5" font-family="FreeSans" font-size="10.00">/PHG4TargetCoilDetector.h</text>
</g>
<!-- Node2 -->
<g id="node2" class="node"><title>Node2</title>
<g id="a_node2"><a xlink:href="../../dd/dcc/PHG4Detector_8h.html" target="_top" xlink:title="g4main/PHG4Detector.h">
<polygon fill="none" stroke="black" points="0,-56.5 0,-75.5 122,-75.5 122,-56.5 0,-56.5"/>
<text text-anchor="middle" x="61" y="-63.5" font-family="FreeSans" font-size="10.00">g4main/PHG4Detector.h</text>
</a>
</g>
</g>
<!-- Node1&#45;&gt;Node2 -->
<g id="edge1" class="edge"><title>Node1&#45;&gt;Node2</title>
<path fill="none" stroke="midnightblue" d="M91.7985,-112.498C85.7012,-103.49 78.5242,-92.8881 72.6331,-84.1852"/>
<polygon fill="midnightblue" stroke="midnightblue" points="75.3612,-81.9716 66.8571,-75.6525 69.5644,-85.8956 75.3612,-81.9716"/>
</g>
<!-- Node4 -->
<g id="node4" class="node"><title>Node4</title>
<polygon fill="none" stroke="#bfbfbf" points="117.5,-0.5 117.5,-19.5 158.5,-19.5 158.5,-0.5 117.5,-0.5"/>
<text text-anchor="middle" x="138" y="-7.5" font-family="FreeSans" font-size="10.00">string</text>
</g>
<!-- Node1&#45;&gt;Node4 -->
<g id="edge4" class="edge"><title>Node1&#45;&gt;Node4</title>
<path fill="none" stroke="midnightblue" d="M116.036,-112.389C121.431,-101.909 127.5,-88.6 131,-76 135.23,-60.7753 136.929,-42.8863 137.599,-29.7335"/>
<polygon fill="midnightblue" stroke="midnightblue" points="141.103,-29.6985 137.961,-19.5802 134.107,-29.4491 141.103,-29.6985"/>
</g>
<!-- Node3 -->
<g id="node3" class="node"><title>Node3</title>
<polygon fill="none" stroke="#bfbfbf" points="34,-0.5 34,-19.5 88,-19.5 88,-0.5 34,-0.5"/>
<text text-anchor="middle" x="61" y="-7.5" font-family="FreeSans" font-size="10.00">iostream</text>
</g>
<!-- Node2&#45;&gt;Node3 -->
<g id="edge2" class="edge"><title>Node2&#45;&gt;Node3</title>
<path fill="none" stroke="midnightblue" d="M61,-56.083C61,-49.0059 61,-38.8611 61,-29.9865"/>
<polygon fill="midnightblue" stroke="midnightblue" points="64.5001,-29.751 61,-19.7511 57.5001,-29.7511 64.5001,-29.751"/>
</g>
<!-- Node2&#45;&gt;Node4 -->
<g id="edge3" class="edge"><title>Node2&#45;&gt;Node4</title>
<path fill="none" stroke="midnightblue" d="M73.3714,-56.324C85.1585,-48.0577 103.132,-35.4527 117.136,-25.6322"/>
<polygon fill="midnightblue" stroke="midnightblue" points="119.482,-28.2619 125.659,-19.6545 115.462,-22.5307 119.482,-28.2619"/>
</g>
</g>
</svg>
