<?xml version="1.0" encoding="UTF-8" standalone="no"?>
<!DOCTYPE svg PUBLIC "-//W3C//DTD SVG 1.1//EN"
 "http://www.w3.org/Graphics/SVG/1.1/DTD/svg11.dtd">
<!-- Generated by graphviz version 2.30.1 (20200930.0103)
 -->
<!-- Title: TriggerRoad::getTB Pages: 1 -->
<svg width="1164pt" height="348pt"
 viewBox="0.00 0.00 1164.00 348.02" xmlns="http://www.w3.org/2000/svg" xmlns:xlink="http://www.w3.org/1999/xlink">
<g id="graph0" class="graph" transform="scale(1 1) rotate(0) translate(4 344.022)">
<title>TriggerRoad::getTB</title>
<!-- Node1 -->
<g id="node1" class="node"><title>Node1</title>
<polygon fill="#bfbfbf" stroke="black" points="0,-57.5 0,-76.5 100,-76.5 100,-57.5 0,-57.5"/>
<text text-anchor="middle" x="50" y="-64.5" font-family="FreeSans" font-size="10.00">TriggerRoad::getTB</text>
</g>
<!-- Node2 -->
<g id="node2" class="node"><title>Node2</title>
<g id="a_node2"><a xlink:href="../../d5/d72/classTriggerRoad.html#affb1214bf3dda5cbeb9ff171ab681641" target="_top" xlink:title="TriggerRoad::getRoadID">
<polygon fill="none" stroke="black" points="136.5,-171.5 136.5,-190.5 255.5,-190.5 255.5,-171.5 136.5,-171.5"/>
<text text-anchor="middle" x="196" y="-178.5" font-family="FreeSans" font-size="10.00">TriggerRoad::getRoadID</text>
</a>
</g>
</g>
<!-- Node1&#45;&gt;Node2 -->
<g id="edge1" class="edge"><title>Node1&#45;&gt;Node2</title>
<path fill="none" stroke="midnightblue" d="M71.4726,-83.2075C101.874,-107.275 158.019,-151.723 182.754,-171.305"/>
<polygon fill="midnightblue" stroke="midnightblue" points="73.2903,-80.1825 63.2774,-76.7196 68.9454,-85.6708 73.2903,-80.1825"/>
</g>
<!-- Node22 -->
<g id="node22" class="node"><title>Node22</title>
<g id="a_node22"><a xlink:href="../../d5/d72/classTriggerRoad.html#a7325e31db4452eba53e7a536d720ade3" target="_top" xlink:title="TriggerRoad::isValid">
<polygon fill="none" stroke="black" points="145.5,-19.5 145.5,-38.5 246.5,-38.5 246.5,-19.5 145.5,-19.5"/>
<text text-anchor="middle" x="196" y="-26.5" font-family="FreeSans" font-size="10.00">TriggerRoad::isValid</text>
</a>
</g>
</g>
<!-- Node1&#45;&gt;Node22 -->
<g id="edge28" class="edge"><title>Node1&#45;&gt;Node22</title>
<path fill="none" stroke="midnightblue" d="M97.1722,-54.8157C117.164,-49.54 140.219,-43.4562 158.924,-38.5201"/>
<polygon fill="midnightblue" stroke="midnightblue" points="96.1132,-51.4752 87.3373,-57.411 97.8994,-58.2435 96.1132,-51.4752"/>
</g>
<!-- Node26 -->
<g id="node26" class="node"><title>Node26</title>
<g id="a_node26"><a xlink:href="../../d5/d72/classTriggerRoad.html#aa16211bed727b5fc60e1a51dae52413e" target="_top" xlink:title="TriggerRoad::reflectTB">
<polygon fill="none" stroke="black" points="139.5,-57.5 139.5,-76.5 252.5,-76.5 252.5,-57.5 139.5,-57.5"/>
<text text-anchor="middle" x="196" y="-64.5" font-family="FreeSans" font-size="10.00">TriggerRoad::reflectTB</text>
</a>
</g>
</g>
<!-- Node1&#45;&gt;Node26 -->
<g id="edge32" class="edge"><title>Node1&#45;&gt;Node26</title>
<path fill="none" stroke="midnightblue" d="M110.405,-67C119.995,-67 129.892,-67 139.388,-67"/>
<polygon fill="midnightblue" stroke="midnightblue" points="110.154,-63.5001 100.154,-67 110.154,-70.5001 110.154,-63.5001"/>
</g>
<!-- Node3 -->
<g id="node3" class="node"><title>Node3</title>
<g id="a_node3"><a xlink:href="../../d6/deb/classTriggerAnalyzer.html#ad9cfc03722fb7065da7c30e9ff6a62e1" target="_top" xlink:title="TriggerAnalyzer::acceptEvent">
<polygon fill="none" stroke="black" points="292.5,-266.5 292.5,-285.5 433.5,-285.5 433.5,-266.5 292.5,-266.5"/>
<text text-anchor="middle" x="363" y="-273.5" font-family="FreeSans" font-size="10.00">TriggerAnalyzer::acceptEvent</text>
</a>
</g>
</g>
<!-- Node2&#45;&gt;Node3 -->
<g id="edge2" class="edge"><title>Node2&#45;&gt;Node3</title>
<path fill="none" stroke="midnightblue" d="M215.219,-197.359C233.53,-213.112 263.109,-236.736 292,-252 303.019,-257.821 315.737,-262.677 327.285,-266.463"/>
<polygon fill="midnightblue" stroke="midnightblue" points="217.474,-194.681 207.642,-190.733 212.866,-199.951 217.474,-194.681"/>
</g>
<!-- Node10 -->
<g id="node10" class="node"><title>Node10</title>
<g id="a_node10"><a xlink:href="../../df/df2/classSQReco.html#a2d24deb38cf514e80e9b53199f2c81a9" target="_top" xlink:title="SQReco::fitTrackCand">
<polygon fill="none" stroke="black" points="684.5,-304.5 684.5,-323.5 797.5,-323.5 797.5,-304.5 684.5,-304.5"/>
<text text-anchor="middle" x="741" y="-311.5" font-family="FreeSans" font-size="10.00">SQReco::fitTrackCand</text>
</a>
</g>
</g>
<!-- Node2&#45;&gt;Node10 -->
<g id="edge9" class="edge"><title>Node2&#45;&gt;Node10</title>
<path fill="none" stroke="midnightblue" d="M206.155,-199.74C220.351,-226.434 250.43,-274.445 292,-295 425.808,-361.165 610.509,-338.872 694.793,-323.513"/>
<polygon fill="midnightblue" stroke="midnightblue" points="209.176,-197.959 201.501,-190.655 202.945,-201.151 209.176,-197.959"/>
</g>
<!-- Node11 -->
<g id="node11" class="node"><title>Node11</title>
<g id="a_node11"><a xlink:href="../../d2/d26/classTracklet.html#aa0ca7e43f4d1359b0068c35299a70db5" target="_top" xlink:title="Tracklet::getSRecTrack">
<polygon fill="none" stroke="black" points="303.5,-190.5 303.5,-209.5 422.5,-209.5 422.5,-190.5 303.5,-190.5"/>
<text text-anchor="middle" x="363" y="-197.5" font-family="FreeSans" font-size="10.00">Tracklet::getSRecTrack</text>
</a>
</g>
</g>
<!-- Node2&#45;&gt;Node11 -->
<g id="edge11" class="edge"><title>Node2&#45;&gt;Node11</title>
<path fill="none" stroke="midnightblue" d="M265.939,-188.938C278.351,-190.368 291.185,-191.846 303.274,-193.238"/>
<polygon fill="midnightblue" stroke="midnightblue" points="265.972,-185.419 255.637,-187.752 265.171,-192.373 265.972,-185.419"/>
</g>
<!-- Node19 -->
<g id="node19" class="node"><title>Node19</title>
<g id="a_node19"><a xlink:href="../../d6/deb/classTriggerAnalyzer.html#a33bd7d0faf83282d6a1bcb50397a61cd" target="_top" xlink:title="TriggerAnalyzer::init">
<polygon fill="none" stroke="black" points="312.5,-152.5 312.5,-171.5 413.5,-171.5 413.5,-152.5 312.5,-152.5"/>
<text text-anchor="middle" x="363" y="-159.5" font-family="FreeSans" font-size="10.00">TriggerAnalyzer::init</text>
</a>
</g>
</g>
<!-- Node2&#45;&gt;Node19 -->
<g id="edge23" class="edge"><title>Node2&#45;&gt;Node19</title>
<path fill="none" stroke="midnightblue" d="M265.77,-173.081C281.373,-171.284 297.651,-169.41 312.285,-167.725"/>
<polygon fill="midnightblue" stroke="midnightblue" points="265.171,-169.627 255.637,-174.248 265.972,-176.581 265.171,-169.627"/>
</g>
<!-- Node12 -->
<g id="node12" class="node"><title>Node12</title>
<g id="a_node12"><a xlink:href="../../d3/d46/classKalmanFastTracking.html#ac0b6441647d023db04c618a35fd2a8cd" target="_top" xlink:title="Track fitting stuff. ">
<polygon fill="none" stroke="black" points="500.5,-185 500.5,-215 607.5,-215 607.5,-185 500.5,-185"/>
<text text-anchor="start" x="508.5" y="-203" font-family="FreeSans" font-size="10.00">KalmanFastTracking</text>
<text text-anchor="middle" x="554" y="-192" font-family="FreeSans" font-size="10.00">::processOneTracklet</text>
</a>
</g>
</g>
<!-- Node2&#45;&gt;Node12 -->
<g id="edge24" class="edge"><title>Node2&#45;&gt;Node12</title>
<path fill="none" stroke="midnightblue" d="M223.966,-194.996C242.538,-203.823 268.085,-214.394 292,-219 363.269,-232.725 447.225,-221.922 500.283,-211.858"/>
<polygon fill="midnightblue" stroke="midnightblue" points="225.457,-191.829 214.936,-190.581 222.382,-198.118 225.457,-191.829"/>
</g>
<!-- Node15 -->
<g id="node15" class="node"><title>Node15</title>
<g id="a_node15"><a xlink:href="../../db/daa/classKalmanDSTrk.html#ace95cba717e2c3b24dfb46e8d458f61a" target="_top" xlink:title="Track fitting stuff. ">
<polygon fill="none" stroke="black" points="470,-114.5 470,-133.5 638,-133.5 638,-114.5 470,-114.5"/>
<text text-anchor="middle" x="554" y="-121.5" font-family="FreeSans" font-size="10.00">KalmanDSTrk::processOneTracklet</text>
</a>
</g>
</g>
<!-- Node2&#45;&gt;Node15 -->
<g id="edge25" class="edge"><title>Node2&#45;&gt;Node15</title>
<path fill="none" stroke="midnightblue" d="M225.388,-166.965C243.89,-158.498 268.817,-148.345 292,-143 350.438,-129.527 418.004,-124.897 469.747,-123.572"/>
<polygon fill="midnightblue" stroke="midnightblue" points="223.65,-163.914 216.083,-171.329 226.623,-170.252 223.65,-163.914"/>
</g>
<!-- Node20 -->
<g id="node20" class="node"><title>Node20</title>
<g id="a_node20"><a xlink:href="../../d6/deb/classTriggerAnalyzer.html#a03e5c7880cb71f8b01bdc9f3228205cd" target="_top" xlink:title="TriggerAnalyzer::search">
<polygon fill="none" stroke="black" points="305,-76.5 305,-95.5 421,-95.5 421,-76.5 305,-76.5"/>
<text text-anchor="middle" x="363" y="-83.5" font-family="FreeSans" font-size="10.00">TriggerAnalyzer::search</text>
</a>
</g>
</g>
<!-- Node2&#45;&gt;Node20 -->
<g id="edge26" class="edge"><title>Node2&#45;&gt;Node20</title>
<path fill="none" stroke="midnightblue" d="M215.219,-164.641C233.53,-148.888 263.109,-125.264 292,-110 303.019,-104.179 315.737,-99.323 327.285,-95.5372"/>
<polygon fill="midnightblue" stroke="midnightblue" points="212.866,-162.049 207.642,-171.267 217.474,-167.319 212.866,-162.049"/>
</g>
<!-- Node4 -->
<g id="node4" class="node"><title>Node4</title>
<g id="a_node4"><a xlink:href="../../d6/deb/classTriggerAnalyzer.html#ae272ad1c169364e806932080d4596f41" target="_top" xlink:title="TriggerAnalyzer::acceptEvent">
<polygon fill="none" stroke="black" points="483.5,-272.5 483.5,-291.5 624.5,-291.5 624.5,-272.5 483.5,-272.5"/>
<text text-anchor="middle" x="554" y="-279.5" font-family="FreeSans" font-size="10.00">TriggerAnalyzer::acceptEvent</text>
</a>
</g>
</g>
<!-- Node3&#45;&gt;Node4 -->
<g id="edge3" class="edge"><title>Node3&#45;&gt;Node4</title>
<path fill="none" stroke="midnightblue" d="M443.95,-278.538C457.017,-278.953 470.464,-279.38 483.26,-279.786"/>
<polygon fill="midnightblue" stroke="midnightblue" points="443.677,-275.028 433.571,-278.209 443.455,-282.024 443.677,-275.028"/>
</g>
<!-- Node5 -->
<g id="node5" class="node"><title>Node5</title>
<g id="a_node5"><a xlink:href="../../d6/deb/classTriggerAnalyzer.html#a95f1cd767179e609427ece340612d01e" target="_top" xlink:title="TriggerAnalyzer::trimEvent">
<polygon fill="none" stroke="black" points="490,-234.5 490,-253.5 618,-253.5 618,-234.5 490,-234.5"/>
<text text-anchor="middle" x="554" y="-241.5" font-family="FreeSans" font-size="10.00">TriggerAnalyzer::trimEvent</text>
</a>
</g>
</g>
<!-- Node3&#45;&gt;Node5 -->
<g id="edge4" class="edge"><title>Node3&#45;&gt;Node5</title>
<path fill="none" stroke="midnightblue" d="M430.307,-264.773C451.98,-261.104 475.831,-257.066 496.696,-253.533"/>
<polygon fill="midnightblue" stroke="midnightblue" points="429.47,-261.365 420.195,-266.486 430.638,-268.267 429.47,-261.365"/>
</g>
<!-- Node6 -->
<g id="node6" class="node"><title>Node6</title>
<g id="a_node6"><a xlink:href="../../d5/dda/classEventReducer.html#af72954cea31bb7b3b3f122c3067b632c" target="_top" xlink:title="EventReducer::reduceEvent">
<polygon fill="none" stroke="black" points="674,-260.5 674,-279.5 808,-279.5 808,-260.5 674,-260.5"/>
<text text-anchor="middle" x="741" y="-267.5" font-family="FreeSans" font-size="10.00">EventReducer::reduceEvent</text>
</a>
</g>
</g>
<!-- Node5&#45;&gt;Node6 -->
<g id="edge5" class="edge"><title>Node5&#45;&gt;Node6</title>
<path fill="none" stroke="midnightblue" d="M628.43,-254.32C643.473,-256.434 659.219,-258.647 673.982,-260.722"/>
<polygon fill="midnightblue" stroke="midnightblue" points="628.539,-250.801 618.149,-252.875 627.565,-257.733 628.539,-250.801"/>
</g>
<!-- Node7 -->
<g id="node7" class="node"><title>Node7</title>
<g id="a_node7"><a xlink:href="../../df/df2/classSQReco.html#a4b0d94299406e4c437ecd4e1f598fcda" target="_top" xlink:title="SQReco::ProcessEventPrep">
<polygon fill="none" stroke="black" points="844.5,-261.5 844.5,-280.5 981.5,-280.5 981.5,-261.5 844.5,-261.5"/>
<text text-anchor="middle" x="913" y="-268.5" font-family="FreeSans" font-size="10.00">SQReco::ProcessEventPrep</text>
</a>
</g>
</g>
<!-- Node6&#45;&gt;Node7 -->
<g id="edge6" class="edge"><title>Node6&#45;&gt;Node7</title>
<path fill="none" stroke="midnightblue" d="M818.303,-270.449C826.964,-270.5 835.747,-270.551 844.287,-270.602"/>
<polygon fill="midnightblue" stroke="midnightblue" points="818.234,-266.948 808.213,-270.389 818.192,-273.948 818.234,-266.948"/>
</g>
<!-- Node8 -->
<g id="node8" class="node"><title>Node8</title>
<g id="a_node8"><a xlink:href="../../dd/d62/classSQTrackletReco.html#a8da2377e83fb17bc8189b89175833872" target="_top" xlink:title="SQTrackletReco::process\l_event">
<polygon fill="none" stroke="black" points="1024,-212 1024,-242 1150,-242 1150,-212 1024,-212"/>
<text text-anchor="start" x="1032" y="-230" font-family="FreeSans" font-size="10.00">SQTrackletReco::process</text>
<text text-anchor="middle" x="1087" y="-219" font-family="FreeSans" font-size="10.00">_event</text>
</a>
</g>
</g>
<!-- Node7&#45;&gt;Node8 -->
<g id="edge7" class="edge"><title>Node7&#45;&gt;Node8</title>
<path fill="none" stroke="midnightblue" d="M961.011,-258.974C981.413,-253.755 1005.53,-247.586 1027.11,-242.065"/>
<polygon fill="midnightblue" stroke="midnightblue" points="960.142,-255.583 951.321,-261.453 961.877,-262.365 960.142,-255.583"/>
</g>
<!-- Node9 -->
<g id="node9" class="node"><title>Node9</title>
<g id="a_node9"><a xlink:href="../../df/df2/classSQReco.html#a4d308ea90b8cd7c24a235f32debd6ddb" target="_top" xlink:title="SQReco::process_event">
<polygon fill="none" stroke="black" points="1027.5,-261.5 1027.5,-280.5 1146.5,-280.5 1146.5,-261.5 1027.5,-261.5"/>
<text text-anchor="middle" x="1087" y="-268.5" font-family="FreeSans" font-size="10.00">SQReco::process_event</text>
</a>
</g>
</g>
<!-- Node7&#45;&gt;Node9 -->
<g id="edge8" class="edge"><title>Node7&#45;&gt;Node9</title>
<path fill="none" stroke="midnightblue" d="M992.286,-271C1004.1,-271 1016.11,-271 1027.41,-271"/>
<polygon fill="midnightblue" stroke="midnightblue" points="991.979,-267.5 981.979,-271 991.979,-274.5 991.979,-267.5"/>
</g>
<!-- Node10&#45;&gt;Node9 -->
<g id="edge10" class="edge"><title>Node10&#45;&gt;Node9</title>
<path fill="none" stroke="midnightblue" d="M807.937,-308.855C856.251,-304.733 923.354,-298.276 982,-290 1000.54,-287.384 1020.81,-283.836 1038.5,-280.515"/>
<polygon fill="midnightblue" stroke="midnightblue" points="807.593,-305.371 797.923,-309.699 808.181,-312.346 807.593,-305.371"/>
</g>
<!-- Node11&#45;&gt;Node12 -->
<g id="edge12" class="edge"><title>Node11&#45;&gt;Node12</title>
<path fill="none" stroke="midnightblue" d="M432.585,-200C454.882,-200 479.266,-200 500.224,-200"/>
<polygon fill="midnightblue" stroke="midnightblue" points="432.506,-196.5 422.506,-200 432.506,-203.5 432.506,-196.5"/>
</g>
<!-- Node11&#45;&gt;Node15 -->
<g id="edge18" class="edge"><title>Node11&#45;&gt;Node15</title>
<path fill="none" stroke="midnightblue" d="M413.906,-187.652C420.72,-185.619 427.576,-183.388 434,-181 471.362,-167.113 512.91,-145.771 535.693,-133.524"/>
<polygon fill="midnightblue" stroke="midnightblue" points="412.659,-184.368 404.008,-190.485 414.585,-191.098 412.659,-184.368"/>
</g>
<!-- Node13 -->
<g id="node13" class="node"><title>Node13</title>
<g id="a_node13"><a xlink:href="../../d3/d46/classKalmanFastTracking.html#a53c93bc5e58b3560d1cfb42e84bbe95c" target="_top" xlink:title="KalmanFastTracking\l::buildGlobalTracks">
<polygon fill="none" stroke="black" points="688,-170 688,-200 794,-200 794,-170 688,-170"/>
<text text-anchor="start" x="696" y="-188" font-family="FreeSans" font-size="10.00">KalmanFastTracking</text>
<text text-anchor="middle" x="741" y="-177" font-family="FreeSans" font-size="10.00">::buildGlobalTracks</text>
</a>
</g>
</g>
<!-- Node12&#45;&gt;Node13 -->
<g id="edge13" class="edge"><title>Node12&#45;&gt;Node13</title>
<path fill="none" stroke="midnightblue" d="M617.492,-194.933C640.411,-193.075 666.088,-190.993 687.99,-189.217"/>
<polygon fill="midnightblue" stroke="midnightblue" points="617.203,-191.445 607.519,-195.742 617.769,-198.422 617.203,-191.445"/>
</g>
<!-- Node14 -->
<g id="node14" class="node"><title>Node14</title>
<g id="a_node14"><a xlink:href="../../d3/d46/classKalmanFastTracking.html#ada493cf8d995c42b9e78a53b891ce72b" target="_top" xlink:title="KalmanFastTracking\l::setRawEvent">
<polygon fill="none" stroke="black" points="860,-212 860,-242 966,-242 966,-212 860,-212"/>
<text text-anchor="start" x="868" y="-230" font-family="FreeSans" font-size="10.00">KalmanFastTracking</text>
<text text-anchor="middle" x="913" y="-219" font-family="FreeSans" font-size="10.00">::setRawEvent</text>
</a>
</g>
</g>
<!-- Node12&#45;&gt;Node14 -->
<g id="edge17" class="edge"><title>Node12&#45;&gt;Node14</title>
<path fill="none" stroke="midnightblue" d="M617.947,-204.761C686.776,-209.966 795.805,-218.212 859.979,-223.066"/>
<polygon fill="midnightblue" stroke="midnightblue" points="617.912,-201.248 607.677,-203.984 617.384,-208.228 617.912,-201.248"/>
</g>
<!-- Node13&#45;&gt;Node14 -->
<g id="edge14" class="edge"><title>Node13&#45;&gt;Node14</title>
<path fill="none" stroke="midnightblue" d="M804.334,-200.4C822.549,-204.9 842.262,-209.77 859.78,-214.099"/>
<polygon fill="midnightblue" stroke="midnightblue" points="804.94,-196.945 794.393,-197.944 803.261,-203.74 804.94,-196.945"/>
</g>
<!-- Node14&#45;&gt;Node8 -->
<g id="edge15" class="edge"><title>Node14&#45;&gt;Node8</title>
<path fill="none" stroke="midnightblue" d="M976.09,-227C991.617,-227 1008.27,-227 1023.81,-227"/>
<polygon fill="midnightblue" stroke="midnightblue" points="976.072,-223.5 966.072,-227 976.072,-230.5 976.072,-223.5"/>
</g>
<!-- Node14&#45;&gt;Node9 -->
<g id="edge16" class="edge"><title>Node14&#45;&gt;Node9</title>
<path fill="none" stroke="midnightblue" d="M975.976,-242.854C1000.38,-249.097 1027.59,-256.057 1048.84,-261.495"/>
<polygon fill="midnightblue" stroke="midnightblue" points="976.628,-239.408 966.072,-240.321 974.893,-246.19 976.628,-239.408"/>
</g>
<!-- Node16 -->
<g id="node16" class="node"><title>Node16</title>
<g id="a_node16"><a xlink:href="../../db/daa/classKalmanDSTrk.html#adf4981f081f2606bf3412851eaa62eb0" target="_top" xlink:title="KalmanDSTrk::buildGlobal\lTracks">
<polygon fill="none" stroke="black" points="676,-66 676,-96 806,-96 806,-66 676,-66"/>
<text text-anchor="start" x="684" y="-84" font-family="FreeSans" font-size="10.00">KalmanDSTrk::buildGlobal</text>
<text text-anchor="middle" x="741" y="-73" font-family="FreeSans" font-size="10.00">Tracks</text>
</a>
</g>
</g>
<!-- Node15&#45;&gt;Node16 -->
<g id="edge19" class="edge"><title>Node15&#45;&gt;Node16</title>
<path fill="none" stroke="midnightblue" d="M606.602,-112.238C617,-109.854 627.852,-107.355 638,-105 650.405,-102.121 663.652,-99.0218 676.353,-96.0384"/>
<polygon fill="midnightblue" stroke="midnightblue" points="605.776,-108.837 596.81,-114.481 607.339,-115.66 605.776,-108.837"/>
</g>
<!-- Node17 -->
<g id="node17" class="node"><title>Node17</title>
<g id="a_node17"><a xlink:href="../../db/daa/classKalmanDSTrk.html#a58ceb0cdcf685588b2a543d7a9c2bf9d" target="_top" xlink:title="KalmanDSTrk::setRawEvent\lWorker">
<polygon fill="none" stroke="black" points="844.5,-88 844.5,-118 981.5,-118 981.5,-88 844.5,-88"/>
<text text-anchor="start" x="852.5" y="-106" font-family="FreeSans" font-size="10.00">KalmanDSTrk::setRawEvent</text>
<text text-anchor="middle" x="913" y="-95" font-family="FreeSans" font-size="10.00">Worker</text>
</a>
</g>
</g>
<!-- Node15&#45;&gt;Node17 -->
<g id="edge22" class="edge"><title>Node15&#45;&gt;Node17</title>
<path fill="none" stroke="midnightblue" d="M648.354,-118.509C709.873,-114.89 789.015,-110.234 844.47,-106.972"/>
<polygon fill="midnightblue" stroke="midnightblue" points="648.027,-115.022 638.25,-119.103 648.438,-122.01 648.027,-115.022"/>
</g>
<!-- Node16&#45;&gt;Node17 -->
<g id="edge20" class="edge"><title>Node16&#45;&gt;Node17</title>
<path fill="none" stroke="midnightblue" d="M816.271,-90.6116C825.571,-91.8151 835.046,-93.0412 844.239,-94.2309"/>
<polygon fill="midnightblue" stroke="midnightblue" points="816.636,-87.1297 806.27,-89.3173 815.738,-94.0718 816.636,-87.1297"/>
</g>
<!-- Node18 -->
<g id="node18" class="node"><title>Node18</title>
<g id="a_node18"><a xlink:href="../../db/daa/classKalmanDSTrk.html#a67f1b61fbc3fbba52e10f4b06d4f8794" target="_top" xlink:title="KalmanDSTrk::setRawEvent">
<polygon fill="none" stroke="black" points="1018.5,-93.5 1018.5,-112.5 1155.5,-112.5 1155.5,-93.5 1018.5,-93.5"/>
<text text-anchor="middle" x="1087" y="-100.5" font-family="FreeSans" font-size="10.00">KalmanDSTrk::setRawEvent</text>
</a>
</g>
</g>
<!-- Node17&#45;&gt;Node18 -->
<g id="edge21" class="edge"><title>Node17&#45;&gt;Node18</title>
<path fill="none" stroke="midnightblue" d="M992.134,-103C1000.85,-103 1009.67,-103 1018.23,-103"/>
<polygon fill="midnightblue" stroke="midnightblue" points="991.979,-99.5001 981.979,-103 991.979,-106.5 991.979,-99.5001"/>
</g>
<!-- Node21 -->
<g id="node21" class="node"><title>Node21</title>
<g id="a_node21"><a xlink:href="../../d6/deb/classTriggerAnalyzer.html#a51d0bd1fb5b3b41294f3772b4072ee2c" target="_top" xlink:title="TriggerAnalyzer::acceptEvent">
<polygon fill="none" stroke="black" points="483.5,-76.5 483.5,-95.5 624.5,-95.5 624.5,-76.5 483.5,-76.5"/>
<text text-anchor="middle" x="554" y="-83.5" font-family="FreeSans" font-size="10.00">TriggerAnalyzer::acceptEvent</text>
</a>
</g>
</g>
<!-- Node20&#45;&gt;Node21 -->
<g id="edge27" class="edge"><title>Node20&#45;&gt;Node21</title>
<path fill="none" stroke="midnightblue" d="M431.506,-86C448.321,-86 466.38,-86 483.299,-86"/>
<polygon fill="midnightblue" stroke="midnightblue" points="431.219,-82.5001 421.219,-86 431.219,-89.5001 431.219,-82.5001"/>
</g>
<!-- Node23 -->
<g id="node23" class="node"><title>Node23</title>
<g id="a_node23"><a xlink:href="../../d5/d72/classTriggerRoad.html#a1d36c47262de34a3324f2ad2f35b8881" target="_top" xlink:title="TriggerRoad::makeRoadList">
<polygon fill="none" stroke="black" points="295.5,-38.5 295.5,-57.5 430.5,-57.5 430.5,-38.5 295.5,-38.5"/>
<text text-anchor="middle" x="363" y="-45.5" font-family="FreeSans" font-size="10.00">TriggerRoad::makeRoadList</text>
</a>
</g>
</g>
<!-- Node22&#45;&gt;Node23 -->
<g id="edge29" class="edge"><title>Node22&#45;&gt;Node23</title>
<path fill="none" stroke="midnightblue" d="M256.456,-35.8464C269.105,-37.303 282.54,-38.85 295.434,-40.3349"/>
<polygon fill="midnightblue" stroke="midnightblue" points="256.84,-32.3676 246.505,-34.7006 256.039,-39.3217 256.84,-32.3676"/>
</g>
<!-- Node24 -->
<g id="node24" class="node"><title>Node24</title>
<g id="a_node24"><a xlink:href="../../d6/deb/classTriggerAnalyzer.html#a4212359548aef2d1346a73687c623ac8" target="_top" xlink:title="TriggerAnalyzer::init">
<polygon fill="none" stroke="black" points="312.5,-0.5 312.5,-19.5 413.5,-19.5 413.5,-0.5 312.5,-0.5"/>
<text text-anchor="middle" x="363" y="-7.5" font-family="FreeSans" font-size="10.00">TriggerAnalyzer::init</text>
</a>
</g>
</g>
<!-- Node22&#45;&gt;Node24 -->
<g id="edge30" class="edge"><title>Node22&#45;&gt;Node24</title>
<path fill="none" stroke="midnightblue" d="M256.47,-22.152C274.755,-20.0464 294.682,-17.7518 312.245,-15.7294"/>
<polygon fill="midnightblue" stroke="midnightblue" points="256.039,-18.6783 246.505,-23.2994 256.84,-25.6324 256.039,-18.6783"/>
</g>
<!-- Node25 -->
<g id="node25" class="node"><title>Node25</title>
<g id="a_node25"><a xlink:href="../../d5/dda/classEventReducer.html#a561a06dc56cee12696d12ba18d207433" target="_top" xlink:title="EventReducer::EventReducer">
<polygon fill="none" stroke="black" points="483.5,-0.5 483.5,-19.5 624.5,-19.5 624.5,-0.5 483.5,-0.5"/>
<text text-anchor="middle" x="554" y="-7.5" font-family="FreeSans" font-size="10.00">EventReducer::EventReducer</text>
</a>
</g>
</g>
<!-- Node24&#45;&gt;Node25 -->
<g id="edge31" class="edge"><title>Node24&#45;&gt;Node25</title>
<path fill="none" stroke="midnightblue" d="M423.659,-10C442.642,-10 463.805,-10 483.424,-10"/>
<polygon fill="midnightblue" stroke="midnightblue" points="423.658,-6.5001 413.658,-10 423.657,-13.5001 423.658,-6.5001"/>
</g>
<!-- Node26&#45;&gt;Node23 -->
<g id="edge33" class="edge"><title>Node26&#45;&gt;Node23</title>
<path fill="none" stroke="midnightblue" d="M262.946,-59.4062C273.613,-58.1779 284.665,-56.9052 295.349,-55.675"/>
<polygon fill="midnightblue" stroke="midnightblue" points="262.395,-55.9464 252.861,-60.5675 263.196,-62.9004 262.395,-55.9464"/>
</g>
</g>
</svg>
