<?xml version="1.0" encoding="UTF-8" standalone="no"?>
<!DOCTYPE svg PUBLIC "-//W3C//DTD SVG 1.1//EN"
 "http://www.w3.org/Graphics/SVG/1.1/DTD/svg11.dtd">
<!-- Generated by graphviz version 2.40.1 (20161225.0304)
 -->
<!-- Title: PHG4CylinderCellReco::get_timing_window_max Pages: 1 -->
<svg width="669pt" height="427pt"
 viewBox="0.00 0.00 669.00 427.00" xmlns="http://www.w3.org/2000/svg" xmlns:xlink="http://www.w3.org/1999/xlink">
<g id="graph0" class="graph" transform="scale(1 1) rotate(0) translate(4 423)">
<title>PHG4CylinderCellReco::get_timing_window_max</title>
<!-- Node155 -->
<g id="node1" class="node">
<title>Node155</title>
<polygon fill="#bfbfbf" stroke="#000000" points="0,-213.5 0,-243.5 126,-243.5 126,-213.5 0,-213.5"/>
<text text-anchor="start" x="8" y="-231.5" font-family="FreeSans" font-size="10.00" fill="#000000">PHG4CylinderCellReco</text>
<text text-anchor="middle" x="63" y="-220.5" font-family="FreeSans" font-size="10.00" fill="#000000">::get_timing_window_max</text>
</g>
<!-- Node156 -->
<g id="node2" class="node">
<title>Node156</title>
<g id="a_node2"><a xlink:href="../../d5/dd0/classPHG4CylinderCellReco.html#a79bc62b14d2fdf91ad9b8976514553e8" target="_top" xlink:title="PHG4CylinderCellReco\l::CheckEnergy">
<polygon fill="none" stroke="#000000" points="162,-366.5 162,-396.5 278,-396.5 278,-366.5 162,-366.5"/>
<text text-anchor="start" x="170" y="-384.5" font-family="FreeSans" font-size="10.00" fill="#000000">PHG4CylinderCellReco</text>
<text text-anchor="middle" x="220" y="-373.5" font-family="FreeSans" font-size="10.00" fill="#000000">::CheckEnergy</text>
</a>
</g>
</g>
<!-- Node155&#45;&gt;Node156 -->
<g id="edge1" class="edge">
<title>Node155&#45;&gt;Node156</title>
<path fill="none" stroke="#191970" d="M71.0941,-243.7104C85.8781,-270.1902 119.6625,-325.0278 162,-357.5 163.7915,-358.8741 165.673,-360.183 167.6181,-361.4282"/>
<polygon fill="#191970" stroke="#191970" points="166.0528,-364.5648 176.4722,-366.4849 169.5244,-358.4862 166.0528,-364.5648"/>
</g>
<!-- Node159 -->
<g id="node5" class="node">
<title>Node159</title>
<g id="a_node5"><a xlink:href="../../d5/dd0/classPHG4CylinderCellReco.html#a09f96b8d631c8175e17763924fbbd060" target="_top" xlink:title="PHG4CylinderCellReco\l::get_eta">
<polygon fill="none" stroke="#000000" points="162,-317.5 162,-347.5 278,-347.5 278,-317.5 162,-317.5"/>
<text text-anchor="start" x="170" y="-335.5" font-family="FreeSans" font-size="10.00" fill="#000000">PHG4CylinderCellReco</text>
<text text-anchor="middle" x="220" y="-324.5" font-family="FreeSans" font-size="10.00" fill="#000000">::get_eta</text>
</a>
</g>
</g>
<!-- Node155&#45;&gt;Node159 -->
<g id="edge4" class="edge">
<title>Node155&#45;&gt;Node159</title>
<path fill="none" stroke="#191970" d="M78.7375,-243.6395C97.4206,-261.0124 130.082,-289.5408 162,-308.5 164.6322,-310.0635 167.3851,-311.5729 170.2006,-313.0212"/>
<polygon fill="#191970" stroke="#191970" points="168.8075,-316.2351 179.3347,-317.4304 171.8506,-309.9311 168.8075,-316.2351"/>
</g>
<!-- Node160 -->
<g id="node6" class="node">
<title>Node160</title>
<g id="a_node6"><a xlink:href="../../d5/dd0/classPHG4CylinderCellReco.html#a7e5ac7f96cede0a53b8f3077483be86e" target="_top" xlink:title="PHG4CylinderCellReco\l::get_etaphi">
<polygon fill="none" stroke="#000000" points="162,-268.5 162,-298.5 278,-298.5 278,-268.5 162,-268.5"/>
<text text-anchor="start" x="170" y="-286.5" font-family="FreeSans" font-size="10.00" fill="#000000">PHG4CylinderCellReco</text>
<text text-anchor="middle" x="220" y="-275.5" font-family="FreeSans" font-size="10.00" fill="#000000">::get_etaphi</text>
</a>
</g>
</g>
<!-- Node155&#45;&gt;Node160 -->
<g id="edge5" class="edge">
<title>Node155&#45;&gt;Node160</title>
<path fill="none" stroke="#191970" d="M105.9009,-243.529C124.9386,-250.1982 147.5203,-258.109 167.5499,-265.1258"/>
<polygon fill="#191970" stroke="#191970" points="166.5561,-268.4861 177.1509,-268.4892 168.8705,-261.8798 166.5561,-268.4861"/>
</g>
<!-- Node161 -->
<g id="node7" class="node">
<title>Node161</title>
<g id="a_node7"><a xlink:href="../../d5/dd0/classPHG4CylinderCellReco.html#a0d95db78388db2f32607a90f661f41a1" target="_top" xlink:title="PHG4CylinderCellReco\l::line_and_rectangle\l_intersect">
<polygon fill="none" stroke="#000000" points="162,-208 162,-249 278,-249 278,-208 162,-208"/>
<text text-anchor="start" x="170" y="-237" font-family="FreeSans" font-size="10.00" fill="#000000">PHG4CylinderCellReco</text>
<text text-anchor="start" x="170" y="-226" font-family="FreeSans" font-size="10.00" fill="#000000">::line_and_rectangle</text>
<text text-anchor="middle" x="220" y="-215" font-family="FreeSans" font-size="10.00" fill="#000000">_intersect</text>
</a>
</g>
</g>
<!-- Node155&#45;&gt;Node161 -->
<g id="edge6" class="edge">
<title>Node155&#45;&gt;Node161</title>
<path fill="none" stroke="#191970" d="M126.4054,-228.5C134.7549,-228.5 143.3411,-228.5 151.7669,-228.5"/>
<polygon fill="#191970" stroke="#191970" points="151.9381,-232.0001 161.938,-228.5 151.938,-225.0001 151.9381,-232.0001"/>
</g>
<!-- Node162 -->
<g id="node8" class="node">
<title>Node162</title>
<g id="a_node8"><a xlink:href="../../d5/dd0/classPHG4CylinderCellReco.html#a45252e738c855c6343b393d6a49e3398" target="_top" xlink:title="PHG4CylinderCellReco\l::lines_intersect">
<polygon fill="none" stroke="#000000" points="339.5,-188.5 339.5,-218.5 455.5,-218.5 455.5,-188.5 339.5,-188.5"/>
<text text-anchor="start" x="347.5" y="-206.5" font-family="FreeSans" font-size="10.00" fill="#000000">PHG4CylinderCellReco</text>
<text text-anchor="middle" x="397.5" y="-195.5" font-family="FreeSans" font-size="10.00" fill="#000000">::lines_intersect</text>
</a>
</g>
</g>
<!-- Node155&#45;&gt;Node162 -->
<g id="edge8" class="edge">
<title>Node155&#45;&gt;Node162</title>
<path fill="none" stroke="#191970" d="M103.3244,-213.3417C121.0492,-207.4504 142.2805,-201.4222 162,-198.5 217.7776,-190.2344 281.7884,-192.3231 328.9827,-196.0101"/>
<polygon fill="#191970" stroke="#191970" points="328.8359,-199.5098 339.0899,-196.8441 329.4116,-192.5335 328.8359,-199.5098"/>
</g>
<!-- Node163 -->
<g id="node9" class="node">
<title>Node163</title>
<g id="a_node9"><a xlink:href="../../d5/dd0/classPHG4CylinderCellReco.html#aeee8938e00f84f19dbb073fc0bbfddec" target="_top" xlink:title="PHG4CylinderCellReco\l::set_size">
<polygon fill="none" stroke="#000000" points="162,-120.5 162,-150.5 278,-150.5 278,-120.5 162,-120.5"/>
<text text-anchor="start" x="170" y="-138.5" font-family="FreeSans" font-size="10.00" fill="#000000">PHG4CylinderCellReco</text>
<text text-anchor="middle" x="220" y="-127.5" font-family="FreeSans" font-size="10.00" fill="#000000">::set_size</text>
</a>
</g>
</g>
<!-- Node155&#45;&gt;Node163 -->
<g id="edge9" class="edge">
<title>Node155&#45;&gt;Node163</title>
<path fill="none" stroke="#191970" d="M85.4515,-213.4008C105.2898,-200.2559 135.1583,-180.9412 162,-165.5 167.9421,-162.0817 174.3131,-158.6044 180.5788,-155.2868"/>
<polygon fill="#191970" stroke="#191970" points="182.3766,-158.2965 189.6213,-150.5657 179.1369,-152.0914 182.3766,-158.2965"/>
</g>
<!-- Node164 -->
<g id="node10" class="node">
<title>Node164</title>
<g id="a_node10"><a xlink:href="../../d5/dd0/classPHG4CylinderCellReco.html#a2ab7baca05738b086177de3cea8928d1" target="_top" xlink:title="PHG4CylinderCellReco\l::set_timing_window">
<polygon fill="none" stroke="#000000" points="162,-71.5 162,-101.5 278,-101.5 278,-71.5 162,-71.5"/>
<text text-anchor="start" x="170" y="-89.5" font-family="FreeSans" font-size="10.00" fill="#000000">PHG4CylinderCellReco</text>
<text text-anchor="middle" x="220" y="-78.5" font-family="FreeSans" font-size="10.00" fill="#000000">::set_timing_window</text>
</a>
</g>
</g>
<!-- Node155&#45;&gt;Node164 -->
<g id="edge10" class="edge">
<title>Node155&#45;&gt;Node164</title>
<path fill="none" stroke="#191970" d="M72.4947,-213.2564C88.3614,-188.8583 122.4505,-140.8086 162,-111.5 164.3538,-109.7557 166.8481,-108.1031 169.4279,-106.5422"/>
<polygon fill="#191970" stroke="#191970" points="171.3685,-109.4696 178.4487,-101.5879 167.9987,-103.334 171.3685,-109.4696"/>
</g>
<!-- Node157 -->
<g id="node3" class="node">
<title>Node157</title>
<g id="a_node3"><a xlink:href="../../d4/d97/classPHG4CellContainer.html#a5961e0e0f06fb85ae79acc5e5a1b0c6c" target="_top" xlink:title="return all Cells matching a given detid ">
<polygon fill="none" stroke="#000000" points="345,-388.5 345,-418.5 450,-418.5 450,-388.5 345,-388.5"/>
<text text-anchor="start" x="353" y="-406.5" font-family="FreeSans" font-size="10.00" fill="#000000">PHG4CellContainer::</text>
<text text-anchor="middle" x="397.5" y="-395.5" font-family="FreeSans" font-size="10.00" fill="#000000">getCells</text>
</a>
</g>
</g>
<!-- Node156&#45;&gt;Node157 -->
<g id="edge2" class="edge">
<title>Node156&#45;&gt;Node157</title>
<path fill="none" stroke="#191970" d="M278.1201,-388.7036C296.2909,-390.9558 316.4141,-393.4499 334.8803,-395.7387"/>
<polygon fill="#191970" stroke="#191970" points="334.5913,-399.2296 344.9459,-396.9862 335.4523,-392.2827 334.5913,-399.2296"/>
</g>
<!-- Node158 -->
<g id="node4" class="node">
<title>Node158</title>
<g id="a_node4"><a xlink:href="../../d5/dec/classFun4AllBase.html#ab4106fbb3615ea6836f394c52642b893" target="_top" xlink:title="Returns the name of this module. ">
<polygon fill="none" stroke="#000000" points="347,-350 347,-369 448,-369 448,-350 347,-350"/>
<text text-anchor="middle" x="397.5" y="-357" font-family="FreeSans" font-size="10.00" fill="#000000">Fun4AllBase::Name</text>
</a>
</g>
</g>
<!-- Node156&#45;&gt;Node158 -->
<g id="edge3" class="edge">
<title>Node156&#45;&gt;Node158</title>
<path fill="none" stroke="#191970" d="M278.1201,-374.2964C296.8892,-371.9701 317.7415,-369.3856 336.699,-367.0359"/>
<polygon fill="#191970" stroke="#191970" points="337.2201,-370.4982 346.7136,-365.7947 336.359,-363.5513 337.2201,-370.4982"/>
</g>
<!-- Node161&#45;&gt;Node162 -->
<g id="edge7" class="edge">
<title>Node161&#45;&gt;Node162</title>
<path fill="none" stroke="#191970" d="M278.1201,-220.3141C294.3635,-218.0263 312.1672,-215.5187 328.9526,-213.1546"/>
<polygon fill="#191970" stroke="#191970" points="329.8352,-216.5649 339.2493,-211.7043 328.8589,-209.6333 329.8352,-216.5649"/>
</g>
<!-- Node165 -->
<g id="node11" class="node">
<title>Node165</title>
<g id="a_node11"><a xlink:href="../../d4/d69/classPHG4ParameterContainerInterface.html#aa7efdb8861671ac6f3f5d3a30167d210" target="_top" xlink:title="PHG4ParameterContainerInterface\l::set_double_param">
<polygon fill="none" stroke="#000000" points="314,-71.5 314,-101.5 481,-101.5 481,-71.5 314,-71.5"/>
<text text-anchor="start" x="322" y="-89.5" font-family="FreeSans" font-size="10.00" fill="#000000">PHG4ParameterContainerInterface</text>
<text text-anchor="middle" x="397.5" y="-78.5" font-family="FreeSans" font-size="10.00" fill="#000000">::set_double_param</text>
</a>
</g>
</g>
<!-- Node164&#45;&gt;Node165 -->
<g id="edge11" class="edge">
<title>Node164&#45;&gt;Node165</title>
<path fill="none" stroke="#191970" d="M278.1201,-86.5C286.3319,-86.5 294.9424,-86.5 303.6185,-86.5"/>
<polygon fill="#191970" stroke="#191970" points="303.8137,-90.0001 313.8137,-86.5 303.8136,-83.0001 303.8137,-90.0001"/>
</g>
<!-- Node166 -->
<g id="node12" class="node">
<title>Node166</title>
<g id="a_node12"><a xlink:href="../../da/d29/classPHG4Parameters.html#ac74dd8d4ef9208fc332f4976465ee048" target="_top" xlink:title="PHG4Parameters::exist\l_double_param">
<polygon fill="none" stroke="#000000" points="531,-137.5 531,-167.5 647,-167.5 647,-137.5 531,-137.5"/>
<text text-anchor="start" x="539" y="-155.5" font-family="FreeSans" font-size="10.00" fill="#000000">PHG4Parameters::exist</text>
<text text-anchor="middle" x="589" y="-144.5" font-family="FreeSans" font-size="10.00" fill="#000000">_double_param</text>
</a>
</g>
</g>
<!-- Node165&#45;&gt;Node166 -->
<g id="edge12" class="edge">
<title>Node165&#45;&gt;Node166</title>
<path fill="none" stroke="#191970" d="M441.434,-101.6417C469.4111,-111.284 505.834,-123.837 535.4933,-134.0591"/>
<polygon fill="#191970" stroke="#191970" points="534.6757,-137.4793 545.2705,-137.4287 536.9567,-130.8613 534.6757,-137.4793"/>
</g>
<!-- Node167 -->
<g id="node13" class="node">
<title>Node167</title>
<g id="a_node13"><a xlink:href="../../da/d29/classPHG4Parameters.html#aeff428ac1b883fcf47f90ef43bdcc1a9" target="_top" xlink:title="PHG4Parameters::printdouble">
<polygon fill="none" stroke="#000000" points="517,-99 517,-118 661,-118 661,-99 517,-99"/>
<text text-anchor="middle" x="589" y="-106" font-family="FreeSans" font-size="10.00" fill="#000000">PHG4Parameters::printdouble</text>
</a>
</g>
</g>
<!-- Node165&#45;&gt;Node167 -->
<g id="edge13" class="edge">
<title>Node165&#45;&gt;Node167</title>
<path fill="none" stroke="#191970" d="M481.2161,-96.1175C489.6592,-97.0875 498.2291,-98.072 506.6576,-99.0403"/>
<polygon fill="#191970" stroke="#191970" points="506.5163,-102.547 516.8504,-100.2113 507.3153,-95.5927 506.5163,-102.547"/>
</g>
<!-- Node168 -->
<g id="node14" class="node">
<title>Node168</title>
<g id="a_node14"><a xlink:href="../../d5/d5f/classPHG4ParametersContainer.html#aa24d3f2dfbd17c1025f89e091c37a3a5" target="_top" xlink:title="PHG4ParametersContainer\l::Name">
<polygon fill="none" stroke="#000000" points="522,-49.5 522,-79.5 656,-79.5 656,-49.5 522,-49.5"/>
<text text-anchor="start" x="530" y="-67.5" font-family="FreeSans" font-size="10.00" fill="#000000">PHG4ParametersContainer</text>
<text text-anchor="middle" x="589" y="-56.5" font-family="FreeSans" font-size="10.00" fill="#000000">::Name</text>
</a>
</g>
</g>
<!-- Node165&#45;&gt;Node168 -->
<g id="edge14" class="edge">
<title>Node165&#45;&gt;Node168</title>
<path fill="none" stroke="#191970" d="M481.2161,-76.8825C491.4063,-75.7118 501.7813,-74.5199 511.8694,-73.361"/>
<polygon fill="#191970" stroke="#191970" points="512.3093,-76.8335 521.8445,-72.215 511.5103,-69.8793 512.3093,-76.8335"/>
</g>
<!-- Node169 -->
<g id="node15" class="node">
<title>Node169</title>
<g id="a_node15"><a xlink:href="../../da/d29/classPHG4Parameters.html#a40d8acd8a8c5475928d5b5dacf38f583" target="_top" xlink:title="PHG4Parameters::set\l_double_param">
<polygon fill="none" stroke="#000000" points="534,-.5 534,-30.5 644,-30.5 644,-.5 534,-.5"/>
<text text-anchor="start" x="542" y="-18.5" font-family="FreeSans" font-size="10.00" fill="#000000">PHG4Parameters::set</text>
<text text-anchor="middle" x="589" y="-7.5" font-family="FreeSans" font-size="10.00" fill="#000000">_double_param</text>
</a>
</g>
</g>
<!-- Node165&#45;&gt;Node169 -->
<g id="edge15" class="edge">
<title>Node165&#45;&gt;Node169</title>
<path fill="none" stroke="#191970" d="M434.1841,-71.4901C457.7291,-62.001 489.0246,-49.6559 517,-39.5 522.1863,-37.6172 527.6024,-35.7082 533.0344,-33.8319"/>
<polygon fill="#191970" stroke="#191970" points="534.4505,-37.0469 542.7827,-30.5028 532.1882,-30.4225 534.4505,-37.0469"/>
</g>
</g>
</svg>
