<?xml version="1.0" encoding="UTF-8" standalone="no"?>
<!DOCTYPE svg PUBLIC "-//W3C//DTD SVG 1.1//EN"
 "http://www.w3.org/Graphics/SVG/1.1/DTD/svg11.dtd">
<!-- Generated by graphviz version 2.30.1 (20200930.0103)
 -->
<!-- Title: PHG4TargetCoilV2Detector::Construct Pages: 1 -->
<svg width="312pt" height="153pt"
 viewBox="0.00 0.00 312.00 153.00" xmlns="http://www.w3.org/2000/svg" xmlns:xlink="http://www.w3.org/1999/xlink">
<g id="graph0" class="graph" transform="scale(1 1) rotate(0) translate(4 149)">
<title>PHG4TargetCoilV2Detector::Construct</title>
<!-- Node1 -->
<g id="node1" class="node"><title>Node1</title>
<polygon fill="#bfbfbf" stroke="black" points="0.5,-52 0.5,-82 135.5,-82 135.5,-52 0.5,-52"/>
<text text-anchor="start" x="8.5" y="-70" font-family="FreeSans" font-size="10.00">PHG4TargetCoilV2Detector</text>
<text text-anchor="middle" x="68" y="-59" font-family="FreeSans" font-size="10.00">::Construct</text>
</g>
<!-- Node2 -->
<g id="node2" class="node"><title>Node2</title>
<g id="a_node2"><a xlink:href="../../dd/dae/classPHParameters.html#aa61ce249b94375d9af4482c36a1308cf" target="_top" target="_top" target="_top" xlink:title="PHParameters::get_double\l_param">
<polygon fill="none" stroke="black" points="172.5,-115 172.5,-145 303.5,-145 303.5,-115 172.5,-115"/>
<text text-anchor="start" x="180.5" y="-133" font-family="FreeSans" font-size="10.00">PHParameters::get_double</text>
<text text-anchor="middle" x="238" y="-122" font-family="FreeSans" font-size="10.00">_param</text>
</a>
</g>
</g>
<!-- Node1&#45;&gt;Node2 -->
<g id="edge1" class="edge"><title>Node1&#45;&gt;Node2</title>
<path fill="none" stroke="midnightblue" d="M109.24,-82.0901C132.636,-90.8633 162.314,-101.993 187.177,-111.316"/>
<polygon fill="midnightblue" stroke="midnightblue" points="186.205,-114.69 196.797,-114.924 188.663,-108.136 186.205,-114.69"/>
</g>
<!-- Node3 -->
<g id="node3" class="node"><title>Node3</title>
<g id="a_node3"><a xlink:href="../../d3/de7/classPHG4Detector.html#a2d071f49fa045db5ade51bb99f88218f" target="_top" target="_top" target="_top" xlink:title="PHG4Detector::GetName">
<polygon fill="none" stroke="black" points="175.5,-76.5 175.5,-95.5 300.5,-95.5 300.5,-76.5 175.5,-76.5"/>
<text text-anchor="middle" x="238" y="-83.5" font-family="FreeSans" font-size="10.00">PHG4Detector::GetName</text>
</a>
</g>
</g>
<!-- Node1&#45;&gt;Node3 -->
<g id="edge2" class="edge"><title>Node1&#45;&gt;Node3</title>
<path fill="none" stroke="midnightblue" d="M135.881,-74.5639C145.524,-75.6545 155.482,-76.7807 165.217,-77.8817"/>
<polygon fill="midnightblue" stroke="midnightblue" points="164.927,-81.3712 175.257,-79.0172 165.714,-74.4155 164.927,-81.3712"/>
</g>
<!-- Node4 -->
<g id="node4" class="node"><title>Node4</title>
<g id="a_node4"><a xlink:href="../../dd/dae/classPHParameters.html#aad26ea942f2bea4c9b12af9c35f204d6" target="_top" target="_top" target="_top" xlink:title="PHParameters::Print">
<polygon fill="none" stroke="black" points="186,-38.5 186,-57.5 290,-57.5 290,-38.5 186,-38.5"/>
<text text-anchor="middle" x="238" y="-45.5" font-family="FreeSans" font-size="10.00">PHParameters::Print</text>
</a>
</g>
</g>
<!-- Node1&#45;&gt;Node4 -->
<g id="edge3" class="edge"><title>Node1&#45;&gt;Node4</title>
<path fill="none" stroke="midnightblue" d="M135.881,-59.4361C149.022,-57.9499 162.746,-56.3978 175.693,-54.9335"/>
<polygon fill="midnightblue" stroke="midnightblue" points="176.34,-58.3827 185.883,-53.781 175.553,-51.4271 176.34,-58.3827"/>
</g>
<!-- Node5 -->
<g id="node5" class="node"><title>Node5</title>
<g id="a_node5"><a xlink:href="../../df/d02/classPHG4Utils.html#a1a7cdb2daef50974eb7306274407b086" target="_top" target="_top" target="_top" xlink:title="PHG4Utils::SetColour">
<polygon fill="none" stroke="black" points="183.5,-0.5 183.5,-19.5 292.5,-19.5 292.5,-0.5 183.5,-0.5"/>
<text text-anchor="middle" x="238" y="-7.5" font-family="FreeSans" font-size="10.00">PHG4Utils::SetColour</text>
</a>
</g>
</g>
<!-- Node1&#45;&gt;Node5 -->
<g id="edge4" class="edge"><title>Node1&#45;&gt;Node5</title>
<path fill="none" stroke="midnightblue" d="M107.905,-51.9254C127.091,-44.6762 150.643,-36.0517 172,-29 178.676,-26.7958 185.779,-24.5846 192.747,-22.4901"/>
<polygon fill="midnightblue" stroke="midnightblue" points="194.194,-25.7118 202.791,-19.5191 192.209,-18.9992 194.194,-25.7118"/>
</g>
</g>
</svg>
