<?xml version="1.0" encoding="UTF-8" standalone="no"?>
<!DOCTYPE svg PUBLIC "-//W3C//DTD SVG 1.1//EN"
 "http://www.w3.org/Graphics/SVG/1.1/DTD/svg11.dtd">
<!-- Generated by graphviz version 2.30.1 (20180413.0232)
 -->
<!-- Title: Fun4AllDstOutputManager::outfileopen Pages: 1 -->
<svg width="352pt" height="77pt"
 viewBox="0.00 0.00 352.00 77.00" xmlns="http://www.w3.org/2000/svg" xmlns:xlink="http://www.w3.org/1999/xlink">
<g id="graph0" class="graph" transform="scale(1 1) rotate(0) translate(4 73)">
<title>Fun4AllDstOutputManager::outfileopen</title>
<!-- Node1 -->
<g id="node1" class="node"><title>Node1</title>
<polygon fill="#bfbfbf" stroke="black" points="0.5,-22 0.5,-52 131.5,-52 131.5,-22 0.5,-22"/>
<text text-anchor="start" x="8.5" y="-40" font-family="FreeSans" font-size="10.00">Fun4AllDstOutputManager</text>
<text text-anchor="middle" x="66" y="-29" font-family="FreeSans" font-size="10.00">::outfileopen</text>
</g>
<!-- Node2 -->
<g id="node2" class="node"><title>Node2</title>
<g id="a_node2"><a xlink:href="../../d7/d4d/classPHNodeIOManager.html#a7fcd787c0049e4476b2534299b801b47" target="_top" xlink:title="PHNodeIOManager::isFunctional">
<polygon fill="none" stroke="black" points="177.5,-49.5 177.5,-68.5 334.5,-68.5 334.5,-49.5 177.5,-49.5"/>
<text text-anchor="middle" x="256" y="-56.5" font-family="FreeSans" font-size="10.00">PHNodeIOManager::isFunctional</text>
</a>
</g>
</g>
<!-- Node1&#45;&gt;Node2 -->
<g id="edge1" class="edge"><title>Node1&#45;&gt;Node2</title>
<path fill="none" stroke="midnightblue" d="M131.699,-44.5712C143.15,-45.9112 155.246,-47.3267 167.207,-48.7264"/>
<polygon fill="midnightblue" stroke="midnightblue" points="166.867,-52.2103 177.206,-49.8964 167.68,-45.2578 166.867,-52.2103"/>
</g>
<!-- Node3 -->
<g id="node3" class="node"><title>Node3</title>
<g id="a_node3"><a xlink:href="../../d7/d4d/classPHNodeIOManager.html#a3a09bb7a12ddd71a5cfb06bcbd679540" target="_top" xlink:title="PHNodeIOManager::SetCompression\lLevel">
<polygon fill="none" stroke="black" points="168,-0 168,-30 344,-30 344,-0 168,-0"/>
<text text-anchor="start" x="176" y="-18" font-family="FreeSans" font-size="10.00">PHNodeIOManager::SetCompression</text>
<text text-anchor="middle" x="256" y="-7" font-family="FreeSans" font-size="10.00">Level</text>
</a>
</g>
</g>
<!-- Node1&#45;&gt;Node3 -->
<g id="edge2" class="edge"><title>Node1&#45;&gt;Node3</title>
<path fill="none" stroke="midnightblue" d="M131.699,-29.4288C140.188,-28.4355 149.031,-27.4006 157.911,-26.3615"/>
<polygon fill="midnightblue" stroke="midnightblue" points="158.41,-29.8271 167.935,-25.1884 157.596,-22.8745 158.41,-29.8271"/>
</g>
</g>
</svg>
