<?xml version="1.0" encoding="UTF-8" standalone="no"?>
<!DOCTYPE svg PUBLIC "-//W3C//DTD SVG 1.1//EN"
 "http://www.w3.org/Graphics/SVG/1.1/DTD/svg11.dtd">
<!-- Generated by graphviz version 2.30.1 (20180413.0232)
 -->
<!-- Title: PHNodeIterator::forEach Pages: 1 -->
<svg width="1420pt" height="1434pt"
 viewBox="0.00 0.00 1420.00 1434.00" xmlns="http://www.w3.org/2000/svg" xmlns:xlink="http://www.w3.org/1999/xlink">
<g id="graph0" class="graph" transform="scale(1 1) rotate(0) translate(4 1430)">
<title>PHNodeIterator::forEach</title>
<!-- Node1 -->
<g id="node1" class="node"><title>Node1</title>
<polygon fill="#bfbfbf" stroke="black" points="0.5,-744.5 0.5,-763.5 121.5,-763.5 121.5,-744.5 0.5,-744.5"/>
<text text-anchor="middle" x="61" y="-751.5" font-family="FreeSans" font-size="10.00">PHNodeIterator::forEach</text>
</g>
<!-- Node2 -->
<g id="node2" class="node"><title>Node2</title>
<g id="a_node2"><a xlink:href="../../d5/d07/classPHNodeIterator.html#a07cdbcfd300706ffa96c5b5860b35c43" target="_top" xlink:title="PHNodeIterator::for_each">
<polygon fill="none" stroke="black" points="170.5,-763.5 170.5,-782.5 295.5,-782.5 295.5,-763.5 170.5,-763.5"/>
<text text-anchor="middle" x="233" y="-770.5" font-family="FreeSans" font-size="10.00">PHNodeIterator::for_each</text>
</a>
</g>
</g>
<!-- Node1&#45;&gt;Node2 -->
<g id="edge1" class="edge"><title>Node1&#45;&gt;Node2</title>
<path fill="none" stroke="midnightblue" d="M132.001,-761.824C144.702,-763.243 157.866,-764.714 170.307,-766.105"/>
<polygon fill="midnightblue" stroke="midnightblue" points="132.263,-758.331 121.936,-760.699 131.485,-765.288 132.263,-758.331"/>
</g>
<!-- Node1&#45;&gt;Node1 -->
<g id="edge2" class="edge"><title>Node1&#45;&gt;Node1</title>
<path fill="none" stroke="midnightblue" d="M28.8144,-772.275C29.732,-777.741 40.4606,-782 61,-782 91.5703,-782 100.407,-772.565 87.5102,-763.757"/>
<polygon fill="midnightblue" stroke="midnightblue" points="31.8574,-774.02 34.4898,-763.757 26.0321,-770.138 31.8574,-774.02"/>
</g>
<!-- Node3 -->
<g id="node3" class="node"><title>Node3</title>
<g id="a_node3"><a xlink:href="../../da/d29/classFun4AllServer.html#ab2479a9a3e45d51118e308597acd5228" target="_top" xlink:title="Fun4AllServer::ResetNodeTree">
<polygon fill="none" stroke="black" points="158.5,-725.5 158.5,-744.5 307.5,-744.5 307.5,-725.5 158.5,-725.5"/>
<text text-anchor="middle" x="233" y="-732.5" font-family="FreeSans" font-size="10.00">Fun4AllServer::ResetNodeTree</text>
</a>
</g>
</g>
<!-- Node1&#45;&gt;Node3 -->
<g id="edge3" class="edge"><title>Node1&#45;&gt;Node3</title>
<path fill="none" stroke="midnightblue" d="M132.001,-746.176C140.678,-745.207 149.571,-744.213 158.302,-743.237"/>
<polygon fill="midnightblue" stroke="midnightblue" points="131.485,-742.712 121.936,-747.301 132.263,-749.669 131.485,-742.712"/>
</g>
<!-- Node4 -->
<g id="node4" class="node"><title>Node4</title>
<g id="a_node4"><a xlink:href="../../da/d29/classFun4AllServer.html#a6a65a944dfb40966ace97d35ab1f7942" target="_top" xlink:title="Fun4AllServer::process\l_event">
<polygon fill="none" stroke="black" points="344.5,-742 344.5,-772 459.5,-772 459.5,-742 344.5,-742"/>
<text text-anchor="start" x="352.5" y="-760" font-family="FreeSans" font-size="10.00">Fun4AllServer::process</text>
<text text-anchor="middle" x="402" y="-749" font-family="FreeSans" font-size="10.00">_event</text>
</a>
</g>
</g>
<!-- Node3&#45;&gt;Node4 -->
<g id="edge4" class="edge"><title>Node3&#45;&gt;Node4</title>
<path fill="none" stroke="midnightblue" d="M316.214,-745.831C325.776,-747.09 335.362,-748.353 344.468,-749.553"/>
<polygon fill="midnightblue" stroke="midnightblue" points="316.649,-742.358 306.277,-744.522 315.735,-749.298 316.649,-742.358"/>
</g>
<!-- Node6 -->
<g id="node6" class="node"><title>Node6</title>
<g id="a_node6"><a xlink:href="../../da/d29/classFun4AllServer.html#a11bbc8b2f53bc06e0b05ee202dd6372a" target="_top" xlink:title="run n events (0 means up to end of file) ">
<polygon fill="none" stroke="black" points="506.5,-703.5 506.5,-722.5 601.5,-722.5 601.5,-703.5 506.5,-703.5"/>
<text text-anchor="middle" x="554" y="-710.5" font-family="FreeSans" font-size="10.00">Fun4AllServer::run</text>
</a>
</g>
</g>
<!-- Node3&#45;&gt;Node6 -->
<g id="edge50" class="edge"><title>Node3&#45;&gt;Node6</title>
<path fill="none" stroke="midnightblue" d="M317.845,-729.218C378.097,-725.062 457.096,-719.614 506.453,-716.21"/>
<polygon fill="midnightblue" stroke="midnightblue" points="317.321,-725.745 307.586,-729.925 317.803,-732.729 317.321,-725.745"/>
</g>
<!-- Node5 -->
<g id="node5" class="node"><title>Node5</title>
<g id="a_node5"><a xlink:href="../../da/d29/classFun4AllServer.html#a94738b092fa009fcea45737d8ea41224" target="_top" xlink:title="Fun4AllServer::process\l_event">
<polygon fill="none" stroke="black" points="496.5,-742 496.5,-772 611.5,-772 611.5,-742 496.5,-742"/>
<text text-anchor="start" x="504.5" y="-760" font-family="FreeSans" font-size="10.00">Fun4AllServer::process</text>
<text text-anchor="middle" x="554" y="-749" font-family="FreeSans" font-size="10.00">_event</text>
</a>
</g>
</g>
<!-- Node4&#45;&gt;Node5 -->
<g id="edge5" class="edge"><title>Node4&#45;&gt;Node5</title>
<path fill="none" stroke="midnightblue" d="M469.916,-757C478.694,-757 487.622,-757 496.211,-757"/>
<polygon fill="midnightblue" stroke="midnightblue" points="469.709,-753.5 459.709,-757 469.709,-760.5 469.709,-753.5"/>
</g>
<!-- Node4&#45;&gt;Node6 -->
<g id="edge6" class="edge"><title>Node4&#45;&gt;Node6</title>
<path fill="none" stroke="midnightblue" d="M463.859,-739.148C483.184,-733.479 503.809,-727.429 520.347,-722.578"/>
<polygon fill="midnightblue" stroke="midnightblue" points="462.812,-735.807 454.202,-741.981 464.783,-742.524 462.812,-735.807"/>
</g>
<!-- Node7 -->
<g id="node7" class="node"><title>Node7</title>
<g id="a_node7"><a xlink:href="../../df/d51/Fun4All__ExportGeom_8C.html#a582925c51bad38d562cf19e71211adfd" target="_top" xlink:title="get geometry from DST file and output TGeoManager ROOT files or other formats of geometry files ...">
<polygon fill="none" stroke="black" points="661,-1406.5 661,-1425.5 769,-1425.5 769,-1406.5 661,-1406.5"/>
<text text-anchor="middle" x="715" y="-1413.5" font-family="FreeSans" font-size="10.00">Fun4All_ExportGeom</text>
</a>
</g>
</g>
<!-- Node6&#45;&gt;Node7 -->
<g id="edge7" class="edge"><title>Node6&#45;&gt;Node7</title>
<path fill="none" stroke="midnightblue" d="M608.982,-728.572C610.061,-729.641 611.071,-730.782 612,-732 701.748,-849.676 555.832,-1281.21 648,-1397 651.49,-1401.38 655.923,-1404.8 660.836,-1407.45"/>
<polygon fill="midnightblue" stroke="midnightblue" points="611.08,-725.771 600.997,-722.519 606.852,-731.349 611.08,-725.771"/>
</g>
<!-- Node8 -->
<g id="node8" class="node"><title>Node8</title>
<g id="a_node8"><a xlink:href="../../d9/de0/Fun4All__G4__BNL_8C.html#a62a558c2bb73d1be82a65b16f52ce2e0" target="_top" xlink:title="Fun4All_G4_BNL">
<polygon fill="none" stroke="black" points="669,-1368.5 669,-1387.5 761,-1387.5 761,-1368.5 669,-1368.5"/>
<text text-anchor="middle" x="715" y="-1375.5" font-family="FreeSans" font-size="10.00">Fun4All_G4_BNL</text>
</a>
</g>
</g>
<!-- Node6&#45;&gt;Node8 -->
<g id="edge8" class="edge"><title>Node6&#45;&gt;Node8</title>
<path fill="none" stroke="midnightblue" d="M608.977,-728.576C610.057,-729.644 611.069,-730.783 612,-732 696.817,-842.833 560.905,-1249.95 648,-1359 653.283,-1365.62 660.713,-1370.02 668.691,-1372.94"/>
<polygon fill="midnightblue" stroke="midnightblue" points="611.07,-725.772 600.984,-722.529 606.847,-731.354 611.07,-725.772"/>
</g>
<!-- Node9 -->
<g id="node9" class="node"><title>Node9</title>
<g id="a_node9"><a xlink:href="../../de/dad/Fun4All__G4__BNL__R1_8C.html#a361be596f3554cfa3d0fc26346c50c31" target="_top" xlink:title="Fun4All_G4_BNL_R1">
<polygon fill="none" stroke="black" points="660.5,-1330.5 660.5,-1349.5 769.5,-1349.5 769.5,-1330.5 660.5,-1330.5"/>
<text text-anchor="middle" x="715" y="-1337.5" font-family="FreeSans" font-size="10.00">Fun4All_G4_BNL_R1</text>
</a>
</g>
</g>
<!-- Node6&#45;&gt;Node9 -->
<g id="edge9" class="edge"><title>Node6&#45;&gt;Node9</title>
<path fill="none" stroke="midnightblue" d="M608.971,-728.581C610.053,-729.647 611.067,-730.785 612,-732 691.886,-835.991 565.976,-1218.69 648,-1321 651.356,-1325.19 655.572,-1328.49 660.241,-1331.09"/>
<polygon fill="midnightblue" stroke="midnightblue" points="611.059,-725.772 600.97,-722.54 606.841,-731.359 611.059,-725.772"/>
</g>
<!-- Node10 -->
<g id="node10" class="node"><title>Node10</title>
<g id="a_node10"><a xlink:href="../../d1/d24/Fun4All__G4__E1039_8C.html#ad81863c21df83a735c57713bc9ec59b1" target="_top" xlink:title="Fun4All_G4_E1039">
<polygon fill="none" stroke="black" points="665,-1292.5 665,-1311.5 765,-1311.5 765,-1292.5 665,-1292.5"/>
<text text-anchor="middle" x="715" y="-1299.5" font-family="FreeSans" font-size="10.00">Fun4All_G4_E1039</text>
</a>
</g>
</g>
<!-- Node6&#45;&gt;Node10 -->
<g id="edge10" class="edge"><title>Node6&#45;&gt;Node10</title>
<path fill="none" stroke="midnightblue" d="M608.964,-728.586C610.048,-729.651 611.064,-730.787 612,-732 686.956,-829.151 571.047,-1187.42 648,-1283 652.412,-1288.48 658.296,-1292.44 664.739,-1295.3"/>
<polygon fill="midnightblue" stroke="midnightblue" points="611.047,-725.773 600.953,-722.552 606.835,-731.365 611.047,-725.773"/>
</g>
<!-- Node11 -->
<g id="node11" class="node"><title>Node11</title>
<g id="a_node11"><a xlink:href="../../de/d10/Fun4All__G4__E1039__R1_8C.html#aa484b834b55e3114dfd4cd82dcd11831" target="_top" xlink:title="Fun4All_G4_E1039_R1">
<polygon fill="none" stroke="black" points="656.5,-1254.5 656.5,-1273.5 773.5,-1273.5 773.5,-1254.5 656.5,-1254.5"/>
<text text-anchor="middle" x="715" y="-1261.5" font-family="FreeSans" font-size="10.00">Fun4All_G4_E1039_R1</text>
</a>
</g>
</g>
<!-- Node6&#45;&gt;Node11 -->
<g id="edge11" class="edge"><title>Node6&#45;&gt;Node11</title>
<path fill="none" stroke="midnightblue" d="M608.956,-728.592C610.043,-729.655 611.061,-730.789 612,-732 682.027,-822.312 576.117,-1156.16 648,-1245 651.075,-1248.8 654.858,-1251.87 659.043,-1254.35"/>
<polygon fill="midnightblue" stroke="midnightblue" points="611.032,-725.774 600.935,-722.567 606.828,-731.371 611.032,-725.774"/>
</g>
<!-- Node12 -->
<g id="node12" class="node"><title>Node12</title>
<g id="a_node12"><a xlink:href="../../df/d98/Fun4All__G4__E1039__R2_8C.html#a0cc5938b98723b2d5216049aad7edb01" target="_top" xlink:title="Fun4All_G4_E1039_R2">
<polygon fill="none" stroke="black" points="656.5,-1216.5 656.5,-1235.5 773.5,-1235.5 773.5,-1216.5 656.5,-1216.5"/>
<text text-anchor="middle" x="715" y="-1223.5" font-family="FreeSans" font-size="10.00">Fun4All_G4_E1039_R2</text>
</a>
</g>
</g>
<!-- Node6&#45;&gt;Node12 -->
<g id="edge12" class="edge"><title>Node6&#45;&gt;Node12</title>
<path fill="none" stroke="midnightblue" d="M608.947,-728.599C610.036,-729.66 611.058,-730.792 612,-732 677.099,-815.475 581.185,-1124.89 648,-1207 651.086,-1210.79 654.876,-1213.86 659.066,-1216.33"/>
<polygon fill="midnightblue" stroke="midnightblue" points="611.016,-725.776 600.913,-722.584 606.82,-731.379 611.016,-725.776"/>
</g>
<!-- Node13 -->
<g id="node13" class="node"><title>Node13</title>
<g id="a_node13"><a xlink:href="../../d1/d91/Fun4All__G4__E1039__R2__V2_8C.html#a89f8b08cddafb17f4ba14e509a0ca1db" target="_top" xlink:title="Fun4All_G4_E1039_R2_V2">
<polygon fill="none" stroke="black" points="648,-1178.5 648,-1197.5 782,-1197.5 782,-1178.5 648,-1178.5"/>
<text text-anchor="middle" x="715" y="-1185.5" font-family="FreeSans" font-size="10.00">Fun4All_G4_E1039_R2_V2</text>
</a>
</g>
</g>
<!-- Node6&#45;&gt;Node13 -->
<g id="edge13" class="edge"><title>Node6&#45;&gt;Node13</title>
<path fill="none" stroke="midnightblue" d="M608.937,-728.607C610.029,-729.666 611.054,-730.795 612,-732 672.174,-808.64 586.251,-1093.62 648,-1169 651.174,-1172.87 655.082,-1175.99 659.4,-1178.49"/>
<polygon fill="midnightblue" stroke="midnightblue" points="610.996,-725.777 600.888,-722.603 606.811,-731.388 610.996,-725.777"/>
</g>
<!-- Node14 -->
<g id="node14" class="node"><title>Node14</title>
<g id="a_node14"><a xlink:href="../../d9/d0f/Fun4All__ImportGeom_8C.html#a3388968a8dae60e9eb62b1126f747b6a" target="_top" xlink:title="Read in a Geometry file, and output DST and ROOT TGeo files. ">
<polygon fill="none" stroke="black" points="660.5,-1140.5 660.5,-1159.5 769.5,-1159.5 769.5,-1140.5 660.5,-1140.5"/>
<text text-anchor="middle" x="715" y="-1147.5" font-family="FreeSans" font-size="10.00">Fun4All_ImportGeom</text>
</a>
</g>
</g>
<!-- Node6&#45;&gt;Node14 -->
<g id="edge14" class="edge"><title>Node6&#45;&gt;Node14</title>
<path fill="none" stroke="midnightblue" d="M608.924,-728.617C610.02,-729.673 611.049,-730.799 612,-732 667.25,-801.808 591.315,-1062.35 648,-1131 651.416,-1135.14 655.671,-1138.41 660.364,-1140.99"/>
<polygon fill="midnightblue" stroke="midnightblue" points="610.973,-725.779 600.858,-722.627 606.799,-731.399 610.973,-725.779"/>
</g>
<!-- Node15 -->
<g id="node15" class="node"><title>Node15</title>
<g id="a_node15"><a xlink:href="../../d5/db4/Fun4All__Test_8C.html#ae69a57ea66fbed58544200f95796a66f" target="_top" xlink:title="Fun4All_Test">
<polygon fill="none" stroke="black" points="678,-1102.5 678,-1121.5 752,-1121.5 752,-1102.5 678,-1102.5"/>
<text text-anchor="middle" x="715" y="-1109.5" font-family="FreeSans" font-size="10.00">Fun4All_Test</text>
</a>
</g>
</g>
<!-- Node6&#45;&gt;Node15 -->
<g id="edge15" class="edge"><title>Node6&#45;&gt;Node15</title>
<path fill="none" stroke="midnightblue" d="M608.839,-728.562C609.965,-729.633 611.023,-730.778 612,-732 712.66,-857.96 544.751,-969.153 648,-1093 655.406,-1101.88 666.676,-1106.76 677.817,-1109.4"/>
<polygon fill="midnightblue" stroke="midnightblue" points="610.687,-725.578 600.549,-722.5 606.555,-731.228 610.687,-725.578"/>
</g>
<!-- Node16 -->
<g id="node16" class="node"><title>Node16</title>
<g id="a_node16"><a xlink:href="../../db/dbe/Fun4CODA_8C.html#a1bbee777074605aa2a59ddf9b2b52742" target="_top" xlink:title="Fun4CODA">
<polygon fill="none" stroke="black" points="682,-1064.5 682,-1083.5 748,-1083.5 748,-1064.5 682,-1064.5"/>
<text text-anchor="middle" x="715" y="-1071.5" font-family="FreeSans" font-size="10.00">Fun4CODA</text>
</a>
</g>
</g>
<!-- Node6&#45;&gt;Node16 -->
<g id="edge16" class="edge"><title>Node6&#45;&gt;Node16</title>
<path fill="none" stroke="midnightblue" d="M608.82,-728.577C609.952,-729.644 611.016,-730.783 612,-732 702.828,-844.314 554.864,-944.592 648,-1055 656.38,-1064.93 669.589,-1069.85 681.996,-1072.23"/>
<polygon fill="midnightblue" stroke="midnightblue" points="610.652,-725.582 600.504,-722.536 606.538,-731.245 610.652,-725.582"/>
</g>
<!-- Node17 -->
<g id="node17" class="node"><title>Node17</title>
<g id="a_node17"><a xlink:href="../../d4/d6b/Fun4DQ_8C.html#ade50123660c824c610022429d0847486" target="_top" xlink:title="Fun4DQ">
<polygon fill="none" stroke="black" points="688.5,-1026.5 688.5,-1045.5 741.5,-1045.5 741.5,-1026.5 688.5,-1026.5"/>
<text text-anchor="middle" x="715" y="-1033.5" font-family="FreeSans" font-size="10.00">Fun4DQ</text>
</a>
</g>
</g>
<!-- Node6&#45;&gt;Node17 -->
<g id="edge17" class="edge"><title>Node6&#45;&gt;Node17</title>
<path fill="none" stroke="midnightblue" d="M608.796,-728.597C609.935,-729.658 611.007,-730.791 612,-732 693.007,-830.683 564.965,-920.017 648,-1017 657.926,-1028.59 674.426,-1033.34 688.445,-1035.2"/>
<polygon fill="midnightblue" stroke="midnightblue" points="610.608,-725.588 600.448,-722.582 606.516,-731.267 610.608,-725.588"/>
</g>
<!-- Node18 -->
<g id="node18" class="node"><title>Node18</title>
<g id="a_node18"><a xlink:href="../../de/daf/Fun4DST_8C.html#a6a43c5ad028285b022976fa872e60cbc" target="_top" xlink:title="Fun4DST">
<polygon fill="none" stroke="black" points="686,-988.5 686,-1007.5 744,-1007.5 744,-988.5 686,-988.5"/>
<text text-anchor="middle" x="715" y="-995.5" font-family="FreeSans" font-size="10.00">Fun4DST</text>
</a>
</g>
</g>
<!-- Node6&#45;&gt;Node18 -->
<g id="edge18" class="edge"><title>Node6&#45;&gt;Node18</title>
<path fill="none" stroke="midnightblue" d="M608.766,-728.622C609.913,-729.676 610.996,-730.8 612,-732 683.204,-817.072 575.049,-895.422 648,-979 657.409,-989.78 672.499,-994.628 685.877,-996.737"/>
<polygon fill="midnightblue" stroke="midnightblue" points="610.55,-725.596 600.375,-722.642 606.488,-731.296 610.55,-725.596"/>
</g>
<!-- Node19 -->
<g id="node19" class="node"><title>Node19</title>
<g id="a_node19"><a xlink:href="../../d2/d24/Fun4E1039Shielding_8C.html#a42592782dd55d6e219305ff678a00dc2" target="_top" xlink:title="Fun4E1039Shielding">
<polygon fill="none" stroke="black" points="662.5,-950.5 662.5,-969.5 767.5,-969.5 767.5,-950.5 662.5,-950.5"/>
<text text-anchor="middle" x="715" y="-957.5" font-family="FreeSans" font-size="10.00">Fun4E1039Shielding</text>
</a>
</g>
</g>
<!-- Node6&#45;&gt;Node19 -->
<g id="edge19" class="edge"><title>Node6&#45;&gt;Node19</title>
<path fill="none" stroke="midnightblue" d="M608.294,-728.275C609.614,-729.428 610.855,-730.667 612,-732 673.426,-803.492 585.105,-870.796 648,-941 651.978,-945.44 656.92,-948.871 662.297,-951.517"/>
<polygon fill="midnightblue" stroke="midnightblue" points="610.224,-725.355 600.001,-722.574 606.259,-731.123 610.224,-725.355"/>
</g>
<!-- Node20 -->
<g id="node20" class="node"><title>Node20</title>
<g id="a_node20"><a xlink:href="../../db/d2f/Fun4EMCal_8C.html#a7559861c26cbabfa3e4349440d5af51b" target="_top" xlink:title="Fun4EMCal">
<polygon fill="none" stroke="black" points="681.5,-912.5 681.5,-931.5 748.5,-931.5 748.5,-912.5 681.5,-912.5"/>
<text text-anchor="middle" x="715" y="-919.5" font-family="FreeSans" font-size="10.00">Fun4EMCal</text>
</a>
</g>
</g>
<!-- Node6&#45;&gt;Node20 -->
<g id="edge20" class="edge"><title>Node6&#45;&gt;Node20</title>
<path fill="none" stroke="midnightblue" d="M608.148,-728.261C609.517,-729.418 610.807,-730.662 612,-732 663.693,-789.964 595.117,-846.12 648,-903 656.606,-912.257 669.401,-917.105 681.44,-919.609"/>
<polygon fill="midnightblue" stroke="midnightblue" points="609.844,-725.185 599.583,-722.547 605.959,-731.008 609.844,-725.185"/>
</g>
<!-- Node21 -->
<g id="node21" class="node"><title>Node21</title>
<g id="a_node21"><a xlink:href="../../db/d7c/Fun4DumpGeom_8C.html#ac8b66de3cf15072c6969f76f6b8f7f4c" target="_top" xlink:title="Fun4Geom">
<polygon fill="none" stroke="black" points="682.5,-874.5 682.5,-893.5 747.5,-893.5 747.5,-874.5 682.5,-874.5"/>
<text text-anchor="middle" x="715" y="-881.5" font-family="FreeSans" font-size="10.00">Fun4Geom</text>
</a>
</g>
</g>
<!-- Node6&#45;&gt;Node21 -->
<g id="edge21" class="edge"><title>Node6&#45;&gt;Node21</title>
<path fill="none" stroke="midnightblue" d="M607.575,-727.972C609.147,-729.21 610.63,-730.549 612,-732 654.041,-776.527 605.045,-821.354 648,-865 657.033,-874.178 670.191,-878.994 682.386,-881.494"/>
<polygon fill="midnightblue" stroke="midnightblue" points="609.41,-724.991 599.089,-722.597 605.664,-730.904 609.41,-724.991"/>
</g>
<!-- Node22 -->
<g id="node22" class="node"><title>Node22</title>
<g id="a_node22"><a xlink:href="../../d6/d6a/Fun4HodoAccGap_8C.html#a7aaa0687f144d5e7b417d7e9ac5f36da" target="_top" xlink:title="Fun4HodoAccGap">
<polygon fill="none" stroke="black" points="667,-836.5 667,-855.5 763,-855.5 763,-836.5 667,-836.5"/>
<text text-anchor="middle" x="715" y="-843.5" font-family="FreeSans" font-size="10.00">Fun4HodoAccGap</text>
</a>
</g>
</g>
<!-- Node6&#45;&gt;Node22 -->
<g id="edge22" class="edge"><title>Node6&#45;&gt;Node22</title>
<path fill="none" stroke="midnightblue" d="M606.677,-727.63C608.563,-728.962 610.349,-730.415 612,-732 644.567,-763.275 614.792,-796.407 648,-827 653.349,-831.928 659.897,-835.587 666.768,-838.3"/>
<polygon fill="midnightblue" stroke="midnightblue" points="608.281,-724.515 597.873,-722.533 604.773,-730.572 608.281,-724.515"/>
</g>
<!-- Node23 -->
<g id="node23" class="node"><title>Node23</title>
<g id="a_node23"><a xlink:href="../../dd/d7d/Fun4kTracker_8C.html#abe7052288e4678d0346333383ad821ff" target="_top" xlink:title="Fun4kTracker">
<polygon fill="none" stroke="black" points="676.5,-798.5 676.5,-817.5 753.5,-817.5 753.5,-798.5 676.5,-798.5"/>
<text text-anchor="middle" x="715" y="-805.5" font-family="FreeSans" font-size="10.00">Fun4kTracker</text>
</a>
</g>
</g>
<!-- Node6&#45;&gt;Node23 -->
<g id="edge23" class="edge"><title>Node6&#45;&gt;Node23</title>
<path fill="none" stroke="midnightblue" d="M604.598,-727.061C607.201,-728.549 609.691,-730.191 612,-732 635.585,-750.48 624.037,-771.013 648,-789 656.201,-795.156 666.34,-799.32 676.19,-802.136"/>
<polygon fill="midnightblue" stroke="midnightblue" points="605.932,-723.818 595.411,-722.57 602.858,-730.106 605.932,-723.818"/>
</g>
<!-- Node24 -->
<g id="node24" class="node"><title>Node24</title>
<g id="a_node24"><a xlink:href="../../df/d6a/e1039-core_2online_2macros_2Fun4MainDaq_8C.html#ab9151bcfc5d35e7a25c9cf86fddd2bd2" target="_top" xlink:title="Fun4MainDaq.C: Fun4all macro to decode the MainDAQ data. ">
<polygon fill="none" stroke="black" points="676.5,-760.5 676.5,-779.5 753.5,-779.5 753.5,-760.5 676.5,-760.5"/>
<text text-anchor="middle" x="715" y="-767.5" font-family="FreeSans" font-size="10.00">Fun4MainDaq</text>
</a>
</g>
</g>
<!-- Node6&#45;&gt;Node24 -->
<g id="edge24" class="edge"><title>Node6&#45;&gt;Node24</title>
<path fill="none" stroke="midnightblue" d="M596.244,-725.853C601.596,-727.781 606.964,-729.849 612,-732 628.637,-739.107 631.219,-744.24 648,-751 656.959,-754.609 666.855,-757.836 676.2,-760.562"/>
<polygon fill="midnightblue" stroke="midnightblue" points="597.299,-722.514 586.704,-722.544 595.006,-729.127 597.299,-722.514"/>
</g>
<!-- Node25 -->
<g id="node25" class="node"><title>Node25</title>
<g id="a_node25"><a xlink:href="../../d1/d6b/Fun4MainDaqE906_8C.html#a3617355b5c033a5635408b1cd8c29c35" target="_top" xlink:title="Fun4MainDaq.C: Fun4all macro to decode the MainDAQ data. ">
<polygon fill="none" stroke="black" points="666,-722.5 666,-741.5 764,-741.5 764,-722.5 666,-722.5"/>
<text text-anchor="middle" x="715" y="-729.5" font-family="FreeSans" font-size="10.00">Fun4MainDaqE906</text>
</a>
</g>
</g>
<!-- Node6&#45;&gt;Node25 -->
<g id="edge25" class="edge"><title>Node6&#45;&gt;Node25</title>
<path fill="none" stroke="midnightblue" d="M612.009,-719.812C629.635,-721.919 648.869,-724.217 665.836,-726.245"/>
<polygon fill="midnightblue" stroke="midnightblue" points="612.19,-716.309 601.845,-718.598 611.359,-723.26 612.19,-716.309"/>
</g>
<!-- Node26 -->
<g id="node26" class="node"><title>Node26</title>
<g id="a_node26"><a xlink:href="../../da/daa/Fun4RealDst_8C.html#aa80eadb6952b5d52a756d7cf52d05770" target="_top" xlink:title="Function to analyze multiple DST files. ">
<polygon fill="none" stroke="black" points="668.5,-684.5 668.5,-703.5 761.5,-703.5 761.5,-684.5 668.5,-684.5"/>
<text text-anchor="middle" x="715" y="-691.5" font-family="FreeSans" font-size="10.00">Fun4MultiRealDst</text>
</a>
</g>
</g>
<!-- Node6&#45;&gt;Node26 -->
<g id="edge26" class="edge"><title>Node6&#45;&gt;Node26</title>
<path fill="none" stroke="midnightblue" d="M611.919,-706.198C630.432,-703.986 650.727,-701.561 668.311,-699.46"/>
<polygon fill="midnightblue" stroke="midnightblue" points="611.359,-702.74 601.845,-707.402 612.19,-709.691 611.359,-702.74"/>
</g>
<!-- Node27 -->
<g id="node27" class="node"><title>Node27</title>
<g id="a_node27"><a xlink:href="../../d7/d66/Fun4PatternDB_8C.html#a9e68afec0dfdd12961d550386529d5eb" target="_top" xlink:title="Fun4PatternDB">
<polygon fill="none" stroke="black" points="673.5,-646.5 673.5,-665.5 756.5,-665.5 756.5,-646.5 673.5,-646.5"/>
<text text-anchor="middle" x="715" y="-653.5" font-family="FreeSans" font-size="10.00">Fun4PatternDB</text>
</a>
</g>
</g>
<!-- Node6&#45;&gt;Node27 -->
<g id="edge27" class="edge"><title>Node6&#45;&gt;Node27</title>
<path fill="none" stroke="midnightblue" d="M585.932,-699.384C603.875,-691.733 627.007,-682.287 648,-675 657.687,-671.637 668.314,-668.39 678.156,-665.559"/>
<polygon fill="midnightblue" stroke="midnightblue" points="584.346,-696.256 576.545,-703.425 587.114,-702.686 584.346,-696.256"/>
</g>
<!-- Node28 -->
<g id="node28" class="node"><title>Node28</title>
<g id="a_node28"><a xlink:href="../../de/d66/Fun4Pythia8Demo_8C.html#a6a06be36766511c5ad76013c9cbfe5b5" target="_top" xlink:title="Fun4Pythia8Demo">
<polygon fill="none" stroke="black" points="667,-608.5 667,-627.5 763,-627.5 763,-608.5 667,-608.5"/>
<text text-anchor="middle" x="715" y="-615.5" font-family="FreeSans" font-size="10.00">Fun4Pythia8Demo</text>
</a>
</g>
</g>
<!-- Node6&#45;&gt;Node28 -->
<g id="edge28" class="edge"><title>Node6&#45;&gt;Node28</title>
<path fill="none" stroke="midnightblue" d="M571.253,-696.179C588.727,-679.003 618.05,-652.696 648,-637 655.182,-633.236 663.205,-630.131 671.116,-627.601"/>
<polygon fill="midnightblue" stroke="midnightblue" points="568.679,-693.804 564.1,-703.357 573.638,-698.745 568.679,-693.804"/>
</g>
<!-- Node29 -->
<g id="node29" class="node"><title>Node29</title>
<g id="a_node29"><a xlink:href="../../d9/d8c/Fun4ReadMySql_8C.html#a82110168fa15d41b073c27eeadfc0ff3" target="_top" xlink:title="Fun4ReadMySql">
<polygon fill="none" stroke="black" points="671,-570.5 671,-589.5 759,-589.5 759,-570.5 671,-570.5"/>
<text text-anchor="middle" x="715" y="-577.5" font-family="FreeSans" font-size="10.00">Fun4ReadMySql</text>
</a>
</g>
</g>
<!-- Node6&#45;&gt;Node29 -->
<g id="edge29" class="edge"><title>Node6&#45;&gt;Node29</title>
<path fill="none" stroke="midnightblue" d="M565.211,-694.438C580.104,-669.094 610.173,-623.967 648,-599 654.866,-594.468 662.826,-590.999 670.791,-588.348"/>
<polygon fill="midnightblue" stroke="midnightblue" points="562.018,-692.971 560.1,-703.391 568.097,-696.442 562.018,-692.971"/>
</g>
<!-- Node30 -->
<g id="node30" class="node"><title>Node30</title>
<g id="a_node30"><a xlink:href="../../da/daa/Fun4RealDst_8C.html#af2bc551d71266cd8c5a6daeea6a861d8" target="_top" xlink:title="Fun4MainDaq.C: Fun4all macro to decode the MainDAQ data. ">
<polygon fill="none" stroke="black" points="679,-532.5 679,-551.5 751,-551.5 751,-532.5 679,-532.5"/>
<text text-anchor="middle" x="715" y="-539.5" font-family="FreeSans" font-size="10.00">Fun4RealDst</text>
</a>
</g>
</g>
<!-- Node6&#45;&gt;Node30 -->
<g id="edge30" class="edge"><title>Node6&#45;&gt;Node30</title>
<path fill="none" stroke="midnightblue" d="M561.449,-693.867C573.335,-661.541 601.791,-596.202 648,-561 656.916,-554.208 668.183,-549.842 678.872,-547.036"/>
<polygon fill="midnightblue" stroke="midnightblue" points="558.087,-692.878 558.052,-703.473 564.686,-695.212 558.087,-692.878"/>
</g>
<!-- Node31 -->
<g id="node31" class="node"><title>Node31</title>
<g id="a_node31"><a xlink:href="../../d6/d4c/Fun4SeaQuest_8C.html#a81bffd149f5c71602cb40eb0f45019c3" target="_top" xlink:title="Fun4SeaQuest">
<polygon fill="none" stroke="black" points="674.5,-494.5 674.5,-513.5 755.5,-513.5 755.5,-494.5 674.5,-494.5"/>
<text text-anchor="middle" x="715" y="-501.5" font-family="FreeSans" font-size="10.00">Fun4SeaQuest</text>
</a>
</g>
</g>
<!-- Node6&#45;&gt;Node31 -->
<g id="edge31" class="edge"><title>Node6&#45;&gt;Node31</title>
<path fill="none" stroke="midnightblue" d="M559.01,-693.483C567.95,-654.974 593.195,-568.97 648,-523 655.491,-516.717 664.955,-512.509 674.359,-509.692"/>
<polygon fill="midnightblue" stroke="midnightblue" points="555.555,-692.896 556.826,-703.414 562.392,-694.399 555.555,-692.896"/>
</g>
<!-- Node32 -->
<g id="node32" class="node"><title>Node32</title>
<g id="a_node32"><a xlink:href="../../d7/d65/e1039-core_2macros_2Fun4Sim_8C.html#a5e9276116ae0064f58b288a1e0e4e3db" target="_top" xlink:title="Fun4Sim">
<polygon fill="none" stroke="black" points="687,-456.5 687,-475.5 743,-475.5 743,-456.5 687,-456.5"/>
<text text-anchor="middle" x="715" y="-463.5" font-family="FreeSans" font-size="10.00">Fun4Sim</text>
</a>
</g>
</g>
<!-- Node6&#45;&gt;Node32 -->
<g id="edge32" class="edge"><title>Node6&#45;&gt;Node32</title>
<path fill="none" stroke="midnightblue" d="M557.308,-692.995C563.49,-648.755 584.517,-542.03 648,-485 658.644,-475.438 673.811,-470.665 686.922,-468.293"/>
<polygon fill="midnightblue" stroke="midnightblue" points="553.819,-692.689 556.013,-703.054 560.761,-693.583 553.819,-692.689"/>
</g>
<!-- Node33 -->
<g id="node33" class="node"><title>Node33</title>
<g id="a_node33"><a xlink:href="../../db/dba/Fun4SimDst_8C.html#abf0708efff889232b6c0a7359cfb70ae" target="_top" xlink:title="Fun4SimDst.C: Fun4all macro to analyze the E1039 simulated DST files. ">
<polygon fill="none" stroke="black" points="680,-418.5 680,-437.5 750,-437.5 750,-418.5 680,-418.5"/>
<text text-anchor="middle" x="715" y="-425.5" font-family="FreeSans" font-size="10.00">Fun4SimDst</text>
</a>
</g>
</g>
<!-- Node6&#45;&gt;Node33 -->
<g id="edge33" class="edge"><title>Node6&#45;&gt;Node33</title>
<path fill="none" stroke="midnightblue" d="M555.969,-693.118C559.462,-643.936 575.433,-515.61 648,-447 656.664,-438.808 668.63,-434.117 679.997,-431.442"/>
<polygon fill="midnightblue" stroke="midnightblue" points="552.461,-693.155 555.347,-703.349 559.448,-693.58 552.461,-693.155"/>
</g>
<!-- Node34 -->
<g id="node34" class="node"><title>Node34</title>
<g id="a_node34"><a xlink:href="../../d6/dac/Fun4SimMicroDst_8C.html#ab980c780491ded824d61247fc1fa6127" target="_top" xlink:title="Fun4SimMicroDst.C: Fun4all macro to analyze you uDST. ">
<polygon fill="none" stroke="black" points="668,-380.5 668,-399.5 762,-399.5 762,-380.5 668,-380.5"/>
<text text-anchor="middle" x="715" y="-387.5" font-family="FreeSans" font-size="10.00">Fun4SimMicroDst</text>
</a>
</g>
</g>
<!-- Node6&#45;&gt;Node34 -->
<g id="edge34" class="edge"><title>Node6&#45;&gt;Node34</title>
<path fill="none" stroke="midnightblue" d="M554.954,-693.247C555.937,-639.522 566.25,-489.406 648,-409 653.526,-403.565 660.5,-399.665 667.832,-396.871"/>
<polygon fill="midnightblue" stroke="midnightblue" points="551.452,-693.42 554.863,-703.45 558.452,-693.482 551.452,-693.42"/>
</g>
<!-- Node35 -->
<g id="node35" class="node"><title>Node35</title>
<g id="a_node35"><a xlink:href="../../d8/de7/Fun4SRawEvent_8C.html#aaa9bb2e956ce860a8cb6e7845bcc4ed5" target="_top" xlink:title="Fun4SRawEvent">
<polygon fill="none" stroke="black" points="671,-342.5 671,-361.5 759,-361.5 759,-342.5 671,-342.5"/>
<text text-anchor="middle" x="715" y="-349.5" font-family="FreeSans" font-size="10.00">Fun4SRawEvent</text>
</a>
</g>
</g>
<!-- Node6&#45;&gt;Node35 -->
<g id="edge35" class="edge"><title>Node6&#45;&gt;Node35</title>
<path fill="none" stroke="midnightblue" d="M557.808,-693.197C567.506,-627.485 601.556,-418.136 648,-371 654.193,-364.715 662.32,-360.476 670.746,-357.625"/>
<polygon fill="midnightblue" stroke="midnightblue" points="554.298,-693.016 556.327,-703.414 561.226,-694.02 554.298,-693.016"/>
</g>
<!-- Node36 -->
<g id="node36" class="node"><title>Node36</title>
<g id="a_node36"><a xlink:href="../../de/d48/Fun4TestAnalyzer_8C.html#af993f3ce438e5ebcb52b97e41124a3db" target="_top" xlink:title="Fun4TestAnalyzer">
<polygon fill="none" stroke="black" points="668,-304.5 668,-323.5 762,-323.5 762,-304.5 668,-304.5"/>
<text text-anchor="middle" x="715" y="-311.5" font-family="FreeSans" font-size="10.00">Fun4TestAnalyzer</text>
</a>
</g>
</g>
<!-- Node6&#45;&gt;Node36 -->
<g id="edge36" class="edge"><title>Node6&#45;&gt;Node36</title>
<path fill="none" stroke="midnightblue" d="M557.218,-693.317C565.509,-623.097 596.858,-386.245 648,-333 653.451,-327.324 660.479,-323.312 667.907,-320.483"/>
<polygon fill="midnightblue" stroke="midnightblue" points="553.72,-693.098 556.048,-703.434 560.673,-693.902 553.72,-693.098"/>
</g>
<!-- Node37 -->
<g id="node37" class="node"><title>Node37</title>
<g id="a_node37"><a xlink:href="../../d2/d3a/Fun4TrkDev_8C.html#abd98cf50196a6ad7cb2289d1f0442b73" target="_top" xlink:title="Fun4TrkDev">
<polygon fill="none" stroke="black" points="680.5,-266.5 680.5,-285.5 749.5,-285.5 749.5,-266.5 680.5,-266.5"/>
<text text-anchor="middle" x="715" y="-273.5" font-family="FreeSans" font-size="10.00">Fun4TrkDev</text>
</a>
</g>
</g>
<!-- Node6&#45;&gt;Node37 -->
<g id="edge37" class="edge"><title>Node6&#45;&gt;Node37</title>
<path fill="none" stroke="midnightblue" d="M556.791,-692.834C563.872,-617.552 592.282,-354.247 648,-295 656.414,-286.053 668.741,-281.23 680.471,-278.661"/>
<polygon fill="midnightblue" stroke="midnightblue" points="553.265,-692.964 555.837,-703.242 560.236,-693.603 553.265,-692.964"/>
</g>
<!-- Node38 -->
<g id="node38" class="node"><title>Node38</title>
<g id="a_node38"><a xlink:href="../../d1/da2/E1039Shielding_2int__run_8C.html#a088590a1a5b93b904ba076de8ca1ef82" target="_top" xlink:title="int_run">
<polygon fill="none" stroke="black" points="692,-228.5 692,-247.5 738,-247.5 738,-228.5 692,-228.5"/>
<text text-anchor="middle" x="715" y="-235.5" font-family="FreeSans" font-size="10.00">int_run</text>
</a>
</g>
</g>
<!-- Node6&#45;&gt;Node38 -->
<g id="edge38" class="edge"><title>Node6&#45;&gt;Node38</title>
<path fill="none" stroke="midnightblue" d="M556.37,-693.06C562.206,-613.838 587.512,-322.473 648,-257 659.166,-244.914 677.472,-240.337 691.976,-238.685"/>
<polygon fill="midnightblue" stroke="midnightblue" points="552.87,-692.933 555.649,-703.157 559.853,-693.432 552.87,-692.933"/>
</g>
<!-- Node39 -->
<g id="node39" class="node"><title>Node39</title>
<g id="a_node39"><a xlink:href="../../d8/d6d/classEventDispUI.html#a56a1055e13ce1e361c85c1820e44a9b3" target="_top" xlink:title="EventDispUI::MoveEvent">
<polygon fill="none" stroke="black" points="654.5,-190.5 654.5,-209.5 775.5,-209.5 775.5,-190.5 654.5,-190.5"/>
<text text-anchor="middle" x="715" y="-197.5" font-family="FreeSans" font-size="10.00">EventDispUI::MoveEvent</text>
</a>
</g>
</g>
<!-- Node6&#45;&gt;Node39 -->
<g id="edge39" class="edge"><title>Node6&#45;&gt;Node39</title>
<path fill="none" stroke="midnightblue" d="M556.032,-693.027C560.734,-609.686 582.788,-290.665 648,-219 651.531,-215.12 655.798,-212.012 660.443,-209.526"/>
<polygon fill="midnightblue" stroke="midnightblue" points="552.529,-692.998 555.481,-703.173 559.518,-693.377 552.529,-692.998"/>
</g>
<!-- Node44 -->
<g id="node44" class="node"><title>Node44</title>
<g id="a_node44"><a xlink:href="../../d8/d6d/classEventDispUI.html#a93421e77c003c06c1aff15cd2adb1c9a" target="_top" xlink:title="EventDispUI::NextEvent">
<polygon fill="none" stroke="black" points="656.5,-152.5 656.5,-171.5 773.5,-171.5 773.5,-152.5 656.5,-152.5"/>
<text text-anchor="middle" x="715" y="-159.5" font-family="FreeSans" font-size="10.00">EventDispUI::NextEvent</text>
</a>
</g>
</g>
<!-- Node6&#45;&gt;Node44 -->
<g id="edge45" class="edge"><title>Node6&#45;&gt;Node44</title>
<path fill="none" stroke="midnightblue" d="M555.733,-693.185C559.343,-606.186 577.998,-258.942 648,-181 651.426,-177.185 655.563,-174.116 660.076,-171.65"/>
<polygon fill="midnightblue" stroke="midnightblue" points="552.231,-693.151 555.334,-703.281 559.226,-693.427 552.231,-693.151"/>
</g>
<!-- Node45 -->
<g id="node45" class="node"><title>Node45</title>
<g id="a_node45"><a xlink:href="../../d6/deb/PHGeom__DSTInspection_8C.html#a8a06a40e2950cd31dda512c040049cd0" target="_top" xlink:title="PHGeom_DSTInspection">
<polygon fill="none" stroke="black" points="652.5,-114.5 652.5,-133.5 777.5,-133.5 777.5,-114.5 652.5,-114.5"/>
<text text-anchor="middle" x="715" y="-121.5" font-family="FreeSans" font-size="10.00">PHGeom_DSTInspection</text>
</a>
</g>
</g>
<!-- Node6&#45;&gt;Node45 -->
<g id="edge46" class="edge"><title>Node6&#45;&gt;Node45</title>
<path fill="none" stroke="midnightblue" d="M555.478,-693.242C558.068,-602.579 573.22,-227.217 648,-143 651.404,-139.166 655.527,-136.084 660.031,-133.61"/>
<polygon fill="midnightblue" stroke="midnightblue" points="551.973,-693.385 555.206,-703.474 558.971,-693.571 551.973,-693.385"/>
</g>
<!-- Node46 -->
<g id="node46" class="node"><title>Node46</title>
<g id="a_node46"><a xlink:href="../../d8/d6d/classEventDispUI.html#ae9dafaeb3aef27cf0a38037faf17562d" target="_top" xlink:title="EventDispUI::PrevEvent">
<polygon fill="none" stroke="black" points="656.5,-76.5 656.5,-95.5 773.5,-95.5 773.5,-76.5 656.5,-76.5"/>
<text text-anchor="middle" x="715" y="-83.5" font-family="FreeSans" font-size="10.00">EventDispUI::PrevEvent</text>
</a>
</g>
</g>
<!-- Node6&#45;&gt;Node46 -->
<g id="edge47" class="edge"><title>Node6&#45;&gt;Node46</title>
<path fill="none" stroke="midnightblue" d="M555.259,-693.131C556.889,-598.626 568.476,-195.462 648,-105 651.385,-101.149 655.495,-98.056 659.991,-95.5745"/>
<polygon fill="midnightblue" stroke="midnightblue" points="551.757,-693.247 555.102,-703.3 558.756,-693.355 551.757,-693.247"/>
</g>
<!-- Node47 -->
<g id="node47" class="node"><title>Node47</title>
<g id="a_node47"><a xlink:href="../../d0/d9c/RecoE1039Sim_8C.html#a07edfd7b51752cb53ea50911050a8511" target="_top" xlink:title="RecoE1039Sim">
<polygon fill="none" stroke="black" points="673.5,-38.5 673.5,-57.5 756.5,-57.5 756.5,-38.5 673.5,-38.5"/>
<text text-anchor="middle" x="715" y="-45.5" font-family="FreeSans" font-size="10.00">RecoE1039Sim</text>
</a>
</g>
</g>
<!-- Node6&#45;&gt;Node47 -->
<g id="edge48" class="edge"><title>Node6&#45;&gt;Node47</title>
<path fill="none" stroke="midnightblue" d="M555.062,-693.137C555.768,-595.11 563.69,-163.762 648,-67 654.501,-59.5384 663.725,-54.9179 673.222,-52.0807"/>
<polygon fill="midnightblue" stroke="midnightblue" points="551.562,-693.152 555.007,-703.171 558.562,-693.19 551.562,-693.152"/>
</g>
<!-- Node48 -->
<g id="node48" class="node"><title>Node48</title>
<g id="a_node48"><a xlink:href="../../df/d0c/RecoE906Data_8C.html#ad032525ca693000ba382d14d82bf9f2b" target="_top" xlink:title="RecoE906Data">
<polygon fill="none" stroke="black" points="674.5,-0.5 674.5,-19.5 755.5,-19.5 755.5,-0.5 674.5,-0.5"/>
<text text-anchor="middle" x="715" y="-7.5" font-family="FreeSans" font-size="10.00">RecoE906Data</text>
</a>
</g>
</g>
<!-- Node6&#45;&gt;Node48 -->
<g id="edge49" class="edge"><title>Node6&#45;&gt;Node48</title>
<path fill="none" stroke="midnightblue" d="M554.886,-692.944C554.714,-591.101 558.952,-132.013 648,-29 654.706,-21.2423 664.355,-16.5526 674.212,-13.7451"/>
<polygon fill="midnightblue" stroke="midnightblue" points="551.386,-693.099 554.921,-703.087 558.386,-693.075 551.386,-693.099"/>
</g>
<!-- Node40 -->
<g id="node40" class="node"><title>Node40</title>
<g id="a_node40"><a xlink:href="../../d8/d6d/classEventDispUI.html#a981ae05d65de438d952e0de96e5c5668" target="_top" xlink:title="EventDispUI::ExecNewEvent\lCheck">
<polygon fill="none" stroke="black" points="818.5,-207 818.5,-237 955.5,-237 955.5,-207 818.5,-207"/>
<text text-anchor="start" x="826.5" y="-225" font-family="FreeSans" font-size="10.00">EventDispUI::ExecNewEvent</text>
<text text-anchor="middle" x="887" y="-214" font-family="FreeSans" font-size="10.00">Check</text>
</a>
</g>
</g>
<!-- Node39&#45;&gt;Node40 -->
<g id="edge40" class="edge"><title>Node39&#45;&gt;Node40</title>
<path fill="none" stroke="midnightblue" d="M786.083,-209.07C796.796,-210.456 807.835,-211.885 818.491,-213.264"/>
<polygon fill="midnightblue" stroke="midnightblue" points="786.302,-205.569 775.936,-207.756 785.404,-212.511 786.302,-205.569"/>
</g>
<!-- Node42 -->
<g id="node42" class="node"><title>Node42</title>
<g id="a_node42"><a xlink:href="../../d8/d6d/classEventDispUI.html#a7f8c09eb13c68412e90040c07ce9ee84" target="_top" xlink:title="EventDispUI::Run">
<polygon fill="none" stroke="black" points="1166.5,-190.5 1166.5,-209.5 1257.5,-209.5 1257.5,-190.5 1166.5,-190.5"/>
<text text-anchor="middle" x="1212" y="-197.5" font-family="FreeSans" font-size="10.00">EventDispUI::Run</text>
</a>
</g>
</g>
<!-- Node39&#45;&gt;Node42 -->
<g id="edge44" class="edge"><title>Node39&#45;&gt;Node42</title>
<path fill="none" stroke="midnightblue" d="M785.825,-197.674C796.598,-197.394 807.596,-197.153 818,-197 956.652,-194.961 991.357,-194.433 1130,-197 1141.82,-197.219 1154.6,-197.617 1166.45,-198.053"/>
<polygon fill="midnightblue" stroke="midnightblue" points="785.493,-194.181 775.592,-197.953 785.684,-201.179 785.493,-194.181"/>
</g>
<!-- Node41 -->
<g id="node41" class="node"><title>Node41</title>
<g id="a_node41"><a xlink:href="../../d8/d6d/classEventDispUI.html#a134e46147eb8dd92bf6557a609984a00" target="_top" xlink:title="EventDispUI::FuncNewEvent\lCheck">
<polygon fill="none" stroke="black" points="992,-207 992,-237 1130,-237 1130,-207 992,-207"/>
<text text-anchor="start" x="1000" y="-225" font-family="FreeSans" font-size="10.00">EventDispUI::FuncNewEvent</text>
<text text-anchor="middle" x="1061" y="-214" font-family="FreeSans" font-size="10.00">Check</text>
</a>
</g>
</g>
<!-- Node40&#45;&gt;Node41 -->
<g id="edge41" class="edge"><title>Node40&#45;&gt;Node41</title>
<path fill="none" stroke="midnightblue" d="M966.054,-222C974.696,-222 983.446,-222 991.952,-222"/>
<polygon fill="midnightblue" stroke="midnightblue" points="965.979,-218.5 955.979,-222 965.979,-225.5 965.979,-218.5"/>
</g>
<!-- Node41&#45;&gt;Node42 -->
<g id="edge42" class="edge"><title>Node41&#45;&gt;Node42</title>
<path fill="none" stroke="midnightblue" d="M1140.46,-210.416C1149.37,-209.1 1158.2,-207.796 1166.45,-206.578"/>
<polygon fill="midnightblue" stroke="midnightblue" points="1139.78,-206.978 1130.39,-211.901 1140.8,-213.903 1139.78,-206.978"/>
</g>
<!-- Node43 -->
<g id="node43" class="node"><title>Node43</title>
<g id="a_node43"><a xlink:href="../../d6/d9e/EventDisp4MainDaqDst_8C.html#a52e0269749883c6976db81717ead7d9b" target="_top" xlink:title="EventDisp4MainDaqDst">
<polygon fill="none" stroke="black" points="1294.5,-190.5 1294.5,-209.5 1411.5,-209.5 1411.5,-190.5 1294.5,-190.5"/>
<text text-anchor="middle" x="1353" y="-197.5" font-family="FreeSans" font-size="10.00">EventDisp4MainDaqDst</text>
</a>
</g>
</g>
<!-- Node42&#45;&gt;Node43 -->
<g id="edge43" class="edge"><title>Node42&#45;&gt;Node43</title>
<path fill="none" stroke="midnightblue" d="M1268.02,-200C1276.6,-200 1285.49,-200 1294.13,-200"/>
<polygon fill="midnightblue" stroke="midnightblue" points="1267.75,-196.5 1257.75,-200 1267.75,-203.5 1267.75,-196.5"/>
</g>
</g>
</svg>
