<?xml version="1.0" encoding="UTF-8" standalone="no"?>
<!DOCTYPE svg PUBLIC "-//W3C//DTD SVG 1.1//EN"
 "http://www.w3.org/Graphics/SVG/1.1/DTD/svg11.dtd">
<!-- Generated by graphviz version 2.30.1 (20200930.0103)
 -->
<!-- Title: /dev/shm/kenichi/update&#45;github&#45;e1039&#45;doc/e1039&#45;core/online/onlmonserver/OnlMonReco.cc Pages: 1 -->
<svg width="1519pt" height="566pt"
 viewBox="0.00 0.00 1519.00 566.00" xmlns="http://www.w3.org/2000/svg" xmlns:xlink="http://www.w3.org/1999/xlink">
<g id="graph0" class="graph" transform="scale(1 1) rotate(0) translate(4 562)">
<title>/dev/shm/kenichi/update&#45;github&#45;e1039&#45;doc/e1039&#45;core/online/onlmonserver/OnlMonReco.cc</title>
<!-- Node1 -->
<g id="node1" class="node"><title>Node1</title>
<polygon fill="#bfbfbf" stroke="black" points="771.5,-505 771.5,-557 898.5,-557 898.5,-505 771.5,-505"/>
<text text-anchor="start" x="779.5" y="-545" font-family="FreeSans" font-size="10.00">/dev/shm/kenichi/update</text>
<text text-anchor="start" x="779.5" y="-534" font-family="FreeSans" font-size="10.00">&#45;github&#45;e1039&#45;doc/e1039</text>
<text text-anchor="start" x="779.5" y="-523" font-family="FreeSans" font-size="10.00">&#45;core/online/onlmonserver</text>
<text text-anchor="middle" x="835" y="-512" font-family="FreeSans" font-size="10.00">/OnlMonReco.cc</text>
</g>
<!-- Node2 -->
<g id="node2" class="node"><title>Node2</title>
<polygon fill="none" stroke="#bfbfbf" points="0,-448.5 0,-467.5 50,-467.5 50,-448.5 0,-448.5"/>
<text text-anchor="middle" x="25" y="-455.5" font-family="FreeSans" font-size="10.00">sstream</text>
</g>
<!-- Node1&#45;&gt;Node2 -->
<g id="edge1" class="edge"><title>Node1&#45;&gt;Node2</title>
<path fill="none" stroke="midnightblue" d="M771.405,-528.765C639.915,-525.381 328.665,-513.068 60.0782,-467.882"/>
<polygon fill="midnightblue" stroke="midnightblue" points="60.586,-464.418 50.1407,-466.192 59.4121,-471.319 60.586,-464.418"/>
</g>
<!-- Node3 -->
<g id="node3" class="node"><title>Node3</title>
<polygon fill="none" stroke="#bfbfbf" points="68,-448.5 68,-467.5 118,-467.5 118,-448.5 68,-448.5"/>
<text text-anchor="middle" x="93" y="-455.5" font-family="FreeSans" font-size="10.00">iomanip</text>
</g>
<!-- Node1&#45;&gt;Node3 -->
<g id="edge2" class="edge"><title>Node1&#45;&gt;Node3</title>
<path fill="none" stroke="midnightblue" d="M771.06,-528.069C648.04,-523.559 369.927,-509.504 128.176,-467.915"/>
<polygon fill="midnightblue" stroke="midnightblue" points="128.596,-464.436 118.144,-466.17 127.396,-471.332 128.596,-464.436"/>
</g>
<!-- Node4 -->
<g id="node4" class="node"><title>Node4</title>
<polygon fill="none" stroke="#bfbfbf" points="136.5,-448.5 136.5,-467.5 185.5,-467.5 185.5,-448.5 136.5,-448.5"/>
<text text-anchor="middle" x="161" y="-455.5" font-family="FreeSans" font-size="10.00">TH1D.h</text>
</g>
<!-- Node1&#45;&gt;Node4 -->
<g id="edge3" class="edge"><title>Node1&#45;&gt;Node4</title>
<path fill="none" stroke="midnightblue" d="M771.105,-526.506C656.225,-519.615 407.427,-501.914 200,-468 198.543,-467.762 197.059,-467.501 195.562,-467.223"/>
<polygon fill="midnightblue" stroke="midnightblue" points="196.16,-463.773 185.662,-465.199 194.758,-470.631 196.16,-463.773"/>
</g>
<!-- Node5 -->
<g id="node5" class="node"><title>Node5</title>
<g id="a_node5"><a xlink:href="../../de/d59/SQRun_8h.html" target="_top" xlink:title="interface_main/SQRun.h">
<polygon fill="none" stroke="black" points="1099,-168.5 1099,-187.5 1221,-187.5 1221,-168.5 1099,-168.5"/>
<text text-anchor="middle" x="1160" y="-175.5" font-family="FreeSans" font-size="10.00">interface_main/SQRun.h</text>
</a>
</g>
</g>
<!-- Node1&#45;&gt;Node5 -->
<g id="edge4" class="edge"><title>Node1&#45;&gt;Node5</title>
<path fill="none" stroke="midnightblue" d="M898.733,-522.445C967.108,-510.371 1066,-479.657 1066,-403 1066,-403 1066,-403 1066,-289 1066,-245.932 1108.16,-211.214 1136.01,-192.978"/>
<polygon fill="midnightblue" stroke="midnightblue" points="1137.88,-195.937 1144.48,-187.647 1134.15,-190.013 1137.88,-195.937"/>
</g>
<!-- Node11 -->
<g id="node11" class="node"><title>Node11</title>
<g id="a_node11"><a xlink:href="../../d0/db5/SQEvent_8h.html" target="_top" xlink:title="interface_main/SQEvent.h">
<polygon fill="none" stroke="black" points="832.5,-168.5 832.5,-187.5 961.5,-187.5 961.5,-168.5 832.5,-168.5"/>
<text text-anchor="middle" x="897" y="-175.5" font-family="FreeSans" font-size="10.00">interface_main/SQEvent.h</text>
</a>
</g>
</g>
<!-- Node1&#45;&gt;Node11 -->
<g id="edge11" class="edge"><title>Node1&#45;&gt;Node11</title>
<path fill="none" stroke="midnightblue" d="M898.73,-516.121C954.947,-499.686 1028,-466.174 1028,-403 1028,-403 1028,-403 1028,-289 1028,-258.775 1028.43,-246.278 1008,-224 993.145,-207.799 971.634,-197.305 951.495,-190.567"/>
<polygon fill="midnightblue" stroke="midnightblue" points="952.342,-187.165 941.754,-187.552 950.272,-193.852 952.342,-187.165"/>
</g>
<!-- Node13 -->
<g id="node13" class="node"><title>Node13</title>
<g id="a_node13"><a xlink:href="../../db/ddd/SQHitVector_8h.html" target="_top" xlink:title="interface_main/SQHitVector.h">
<polygon fill="none" stroke="black" points="1188.5,-224.5 1188.5,-243.5 1333.5,-243.5 1333.5,-224.5 1188.5,-224.5"/>
<text text-anchor="middle" x="1261" y="-231.5" font-family="FreeSans" font-size="10.00">interface_main/SQHitVector.h</text>
</a>
</g>
</g>
<!-- Node1&#45;&gt;Node13 -->
<g id="edge16" class="edge"><title>Node1&#45;&gt;Node13</title>
<path fill="none" stroke="midnightblue" d="M898.631,-529.715C953.086,-526.137 1030.33,-512.67 1080,-468 1102.9,-447.407 1104,-433.795 1104,-403 1104,-403 1104,-403 1104,-345 1104,-290.739 1167.68,-260.976 1213.93,-246.516"/>
<polygon fill="midnightblue" stroke="midnightblue" points="1215.21,-249.786 1223.79,-243.576 1213.21,-243.077 1215.21,-249.786"/>
</g>
<!-- Node18 -->
<g id="node18" class="node"><title>Node18</title>
<polygon fill="none" stroke="#bfbfbf" points="1132,-448.5 1132,-467.5 1242,-467.5 1242,-448.5 1132,-448.5"/>
<text text-anchor="middle" x="1187" y="-455.5" font-family="FreeSans" font-size="10.00">ktracker/SRecEvent.h</text>
</g>
<!-- Node1&#45;&gt;Node18 -->
<g id="edge28" class="edge"><title>Node1&#45;&gt;Node18</title>
<path fill="none" stroke="midnightblue" d="M898.745,-517.142C966.306,-503.515 1071.74,-482.248 1134.63,-469.563"/>
<polygon fill="midnightblue" stroke="midnightblue" points="1135.62,-472.935 1144.73,-467.527 1134.23,-466.073 1135.62,-472.935"/>
</g>
<!-- Node19 -->
<g id="node19" class="node"><title>Node19</title>
<g id="a_node19"><a xlink:href="../../da/dc1/Fun4AllReturnCodes_8h.html" target="_top" xlink:title="fun4all/Fun4AllReturnCodes.h">
<polygon fill="none" stroke="black" points="1260,-448.5 1260,-467.5 1404,-467.5 1404,-448.5 1260,-448.5"/>
<text text-anchor="middle" x="1332" y="-455.5" font-family="FreeSans" font-size="10.00">fun4all/Fun4AllReturnCodes.h</text>
</a>
</g>
</g>
<!-- Node1&#45;&gt;Node19 -->
<g id="edge29" class="edge"><title>Node1&#45;&gt;Node19</title>
<path fill="none" stroke="midnightblue" d="M898.703,-520.9C992.179,-507.546 1165.85,-482.735 1262.52,-468.926"/>
<polygon fill="midnightblue" stroke="midnightblue" points="1263.08,-472.382 1272.48,-467.503 1262.09,-465.452 1263.08,-472.382"/>
</g>
<!-- Node20 -->
<g id="node20" class="node"><title>Node20</title>
<g id="a_node20"><a xlink:href="../../d8/dfd/PHNodeIterator_8h.html" target="_top" xlink:title="phool/PHNodeIterator.h">
<polygon fill="none" stroke="black" points="12.5,-280.5 12.5,-299.5 129.5,-299.5 129.5,-280.5 12.5,-280.5"/>
<text text-anchor="middle" x="71" y="-287.5" font-family="FreeSans" font-size="10.00">phool/PHNodeIterator.h</text>
</a>
</g>
</g>
<!-- Node1&#45;&gt;Node20 -->
<g id="edge30" class="edge"><title>Node1&#45;&gt;Node20</title>
<path fill="none" stroke="midnightblue" d="M771.284,-528.546C650.927,-523.668 384.105,-502.593 182,-412 141.393,-393.798 127.394,-390.264 99,-356 87.7407,-342.413 80.3024,-323.615 75.9413,-309.728"/>
<polygon fill="midnightblue" stroke="midnightblue" points="79.223,-308.476 73.0893,-299.837 72.497,-310.416 79.223,-308.476"/>
</g>
<!-- Node26 -->
<g id="node26" class="node"><title>Node26</title>
<g id="a_node26"><a xlink:href="../../d3/d79/PHIODataNode_8h.html" target="_top" xlink:title="phool/PHIODataNode.h">
<polygon fill="none" stroke="black" points="395.5,-392.5 395.5,-411.5 512.5,-411.5 512.5,-392.5 395.5,-392.5"/>
<text text-anchor="middle" x="454" y="-399.5" font-family="FreeSans" font-size="10.00">phool/PHIODataNode.h</text>
</a>
</g>
</g>
<!-- Node1&#45;&gt;Node26 -->
<g id="edge44" class="edge"><title>Node1&#45;&gt;Node26</title>
<path fill="none" stroke="midnightblue" d="M771.229,-508.743C690.395,-481.798 553.845,-436.282 489.527,-414.842"/>
<polygon fill="midnightblue" stroke="midnightblue" points="490.437,-411.457 479.844,-411.615 488.224,-418.097 490.437,-411.457"/>
</g>
<!-- Node33 -->
<g id="node33" class="node"><title>Node33</title>
<g id="a_node33"><a xlink:href="../../dd/dd4/getClass_8h.html" target="_top" xlink:title="phool/getClass.h">
<polygon fill="none" stroke="black" points="410.5,-448.5 410.5,-467.5 497.5,-467.5 497.5,-448.5 410.5,-448.5"/>
<text text-anchor="middle" x="454" y="-455.5" font-family="FreeSans" font-size="10.00">phool/getClass.h</text>
</a>
</g>
</g>
<!-- Node1&#45;&gt;Node33 -->
<g id="edge62" class="edge"><title>Node1&#45;&gt;Node33</title>
<path fill="none" stroke="midnightblue" d="M771.229,-518.116C697.331,-504.345 576.868,-481.897 507.598,-468.988"/>
<polygon fill="midnightblue" stroke="midnightblue" points="508.233,-465.546 497.761,-467.155 506.95,-472.428 508.233,-465.546"/>
</g>
<!-- Node34 -->
<g id="node34" class="node"><title>Node34</title>
<g id="a_node34"><a xlink:href="../../d3/d55/UtilHist_8h.html" target="_top" xlink:title="UtilAna/UtilHist.h">
<polygon fill="none" stroke="black" points="1422.5,-448.5 1422.5,-467.5 1511.5,-467.5 1511.5,-448.5 1422.5,-448.5"/>
<text text-anchor="middle" x="1467" y="-455.5" font-family="FreeSans" font-size="10.00">UtilAna/UtilHist.h</text>
</a>
</g>
</g>
<!-- Node1&#45;&gt;Node34 -->
<g id="edge69" class="edge"><title>Node1&#45;&gt;Node34</title>
<path fill="none" stroke="midnightblue" d="M898.867,-524.376C1003.75,-514.87 1219.24,-494.208 1412.2,-468.036"/>
<polygon fill="midnightblue" stroke="midnightblue" points="1412.81,-471.486 1422.24,-466.666 1411.86,-464.55 1412.81,-471.486"/>
</g>
<!-- Node35 -->
<g id="node35" class="node"><title>Node35</title>
<g id="a_node35"><a xlink:href="../../de/d66/OnlMonReco_8h.html" target="_top" xlink:title="OnlMonReco.h">
<polygon fill="none" stroke="black" points="795,-392.5 795,-411.5 875,-411.5 875,-392.5 795,-392.5"/>
<text text-anchor="middle" x="835" y="-399.5" font-family="FreeSans" font-size="10.00">OnlMonReco.h</text>
</a>
</g>
</g>
<!-- Node1&#45;&gt;Node35 -->
<g id="edge70" class="edge"><title>Node1&#45;&gt;Node35</title>
<path fill="none" stroke="midnightblue" d="M835,-504.909C835,-480.409 835,-443.69 835,-421.664"/>
<polygon fill="midnightblue" stroke="midnightblue" points="838.5,-421.628 835,-411.628 831.5,-421.628 838.5,-421.628"/>
</g>
<!-- Node6 -->
<g id="node6" class="node"><title>Node6</title>
<g id="a_node6"><a xlink:href="../../df/d32/PHObject_8h.html" target="_top" xlink:title="phool/PHObject.h">
<polygon fill="none" stroke="black" points="1195,-112.5 1195,-131.5 1287,-131.5 1287,-112.5 1195,-112.5"/>
<text text-anchor="middle" x="1241" y="-119.5" font-family="FreeSans" font-size="10.00">phool/PHObject.h</text>
</a>
</g>
</g>
<!-- Node5&#45;&gt;Node6 -->
<g id="edge5" class="edge"><title>Node5&#45;&gt;Node6</title>
<path fill="none" stroke="midnightblue" d="M1173.01,-168.324C1185.53,-159.979 1204.68,-147.212 1219.47,-137.352"/>
<polygon fill="midnightblue" stroke="midnightblue" points="1221.64,-140.114 1228.02,-131.655 1217.76,-134.289 1221.64,-140.114"/>
</g>
<!-- Node9 -->
<g id="node9" class="node"><title>Node9</title>
<polygon fill="none" stroke="#bfbfbf" points="873.5,-112.5 873.5,-131.5 908.5,-131.5 908.5,-112.5 873.5,-112.5"/>
<text text-anchor="middle" x="891" y="-119.5" font-family="FreeSans" font-size="10.00">map</text>
</g>
<!-- Node5&#45;&gt;Node9 -->
<g id="edge8" class="edge"><title>Node5&#45;&gt;Node9</title>
<path fill="none" stroke="midnightblue" d="M1101.81,-168.49C1054.79,-161.091 986.802,-149.212 918.666,-131.859"/>
<polygon fill="midnightblue" stroke="midnightblue" points="919.172,-128.375 908.615,-129.259 917.419,-135.152 919.172,-128.375"/>
</g>
<!-- Node8 -->
<g id="node8" class="node"><title>Node8</title>
<polygon fill="none" stroke="#bfbfbf" points="950.5,-0.5 950.5,-19.5 1003.5,-19.5 1003.5,-0.5 950.5,-0.5"/>
<text text-anchor="middle" x="977" y="-7.5" font-family="FreeSans" font-size="10.00">iostream</text>
</g>
<!-- Node5&#45;&gt;Node8 -->
<g id="edge9" class="edge"><title>Node5&#45;&gt;Node8</title>
<path fill="none" stroke="midnightblue" d="M1221.03,-169.693C1266.82,-161.479 1318.11,-144.749 1296,-112 1263.83,-64.3519 1090.69,-30.005 1013.82,-16.8763"/>
<polygon fill="midnightblue" stroke="midnightblue" points="1014.08,-13.3706 1003.63,-15.1654 1012.92,-20.2739 1014.08,-13.3706"/>
</g>
<!-- Node10 -->
<g id="node10" class="node"><title>Node10</title>
<polygon fill="none" stroke="#bfbfbf" points="1137.5,-112.5 1137.5,-131.5 1176.5,-131.5 1176.5,-112.5 1137.5,-112.5"/>
<text text-anchor="middle" x="1157" y="-119.5" font-family="FreeSans" font-size="10.00">limits</text>
</g>
<!-- Node5&#45;&gt;Node10 -->
<g id="edge10" class="edge"><title>Node5&#45;&gt;Node10</title>
<path fill="none" stroke="midnightblue" d="M1159.5,-168.083C1159.11,-161.006 1158.55,-150.861 1158.05,-141.986"/>
<polygon fill="midnightblue" stroke="midnightblue" points="1161.54,-141.542 1157.49,-131.751 1154.55,-141.93 1161.54,-141.542"/>
</g>
<!-- Node7 -->
<g id="node7" class="node"><title>Node7</title>
<polygon fill="none" stroke="#bfbfbf" points="715.5,-56.5 715.5,-75.5 774.5,-75.5 774.5,-56.5 715.5,-56.5"/>
<text text-anchor="middle" x="745" y="-63.5" font-family="FreeSans" font-size="10.00">TObject.h</text>
</g>
<!-- Node6&#45;&gt;Node7 -->
<g id="edge6" class="edge"><title>Node6&#45;&gt;Node7</title>
<path fill="none" stroke="midnightblue" d="M1194.89,-113.374C1191.54,-112.887 1188.22,-112.423 1185,-112 1037.94,-92.6785 862.295,-76.8945 784.932,-70.3102"/>
<polygon fill="midnightblue" stroke="midnightblue" points="784.941,-66.7985 774.681,-69.4428 784.351,-73.7736 784.941,-66.7985"/>
</g>
<!-- Node6&#45;&gt;Node8 -->
<g id="edge7" class="edge"><title>Node6&#45;&gt;Node8</title>
<path fill="none" stroke="midnightblue" d="M1227.65,-112.456C1206.24,-99.0334 1162.62,-72.8076 1123,-56 1086.85,-40.6639 1043.69,-28.0161 1013.71,-20.0762"/>
<polygon fill="midnightblue" stroke="midnightblue" points="1014.25,-16.5999 1003.69,-17.4675 1012.48,-23.3741 1014.25,-16.5999"/>
</g>
<!-- Node11&#45;&gt;Node6 -->
<g id="edge12" class="edge"><title>Node11&#45;&gt;Node6</title>
<path fill="none" stroke="midnightblue" d="M951.955,-168.486C1007.77,-159.823 1096.98,-145.931 1184.72,-132.038"/>
<polygon fill="midnightblue" stroke="midnightblue" points="1185.53,-135.454 1194.86,-130.432 1184.43,-128.54 1185.53,-135.454"/>
</g>
<!-- Node12 -->
<g id="node12" class="node"><title>Node12</title>
<polygon fill="none" stroke="#bfbfbf" points="773,-112.5 773,-131.5 817,-131.5 817,-112.5 773,-112.5"/>
<text text-anchor="middle" x="795" y="-119.5" font-family="FreeSans" font-size="10.00">climits</text>
</g>
<!-- Node11&#45;&gt;Node12 -->
<g id="edge13" class="edge"><title>Node11&#45;&gt;Node12</title>
<path fill="none" stroke="midnightblue" d="M880.612,-168.324C864.329,-159.703 839.133,-146.364 820.284,-136.386"/>
<polygon fill="midnightblue" stroke="midnightblue" points="821.823,-133.24 811.347,-131.655 818.548,-139.427 821.823,-133.24"/>
</g>
<!-- Node11&#45;&gt;Node9 -->
<g id="edge14" class="edge"><title>Node11&#45;&gt;Node9</title>
<path fill="none" stroke="midnightblue" d="M896.009,-168.083C895.214,-160.927 894.071,-150.635 893.077,-141.691"/>
<polygon fill="midnightblue" stroke="midnightblue" points="896.555,-141.303 891.972,-131.751 889.598,-142.076 896.555,-141.303"/>
</g>
<!-- Node11&#45;&gt;Node8 -->
<g id="edge15" class="edge"><title>Node11&#45;&gt;Node8</title>
<path fill="none" stroke="midnightblue" d="M887.364,-168.272C874.926,-155.891 855.901,-132.457 865,-112 882.704,-72.1954 924.705,-41.4678 951.942,-24.8322"/>
<polygon fill="midnightblue" stroke="midnightblue" points="954.066,-27.6429 960.897,-19.5439 950.506,-21.6155 954.066,-27.6429"/>
</g>
<!-- Node13&#45;&gt;Node6 -->
<g id="edge17" class="edge"><title>Node13&#45;&gt;Node6</title>
<path fill="none" stroke="midnightblue" d="M1270.16,-224.203C1281.98,-211.74 1300,-188.209 1291,-168 1285.43,-155.498 1274.48,-145.012 1264.25,-137.317"/>
<polygon fill="midnightblue" stroke="midnightblue" points="1266.16,-134.379 1255.95,-131.526 1262.15,-140.119 1266.16,-134.379"/>
</g>
<!-- Node14 -->
<g id="node14" class="node"><title>Node14</title>
<polygon fill="none" stroke="#bfbfbf" points="1239.5,-168.5 1239.5,-187.5 1282.5,-187.5 1282.5,-168.5 1239.5,-168.5"/>
<text text-anchor="middle" x="1261" y="-175.5" font-family="FreeSans" font-size="10.00">vector</text>
</g>
<!-- Node13&#45;&gt;Node14 -->
<g id="edge18" class="edge"><title>Node13&#45;&gt;Node14</title>
<path fill="none" stroke="midnightblue" d="M1261,-224.083C1261,-217.006 1261,-206.861 1261,-197.986"/>
<polygon fill="midnightblue" stroke="midnightblue" points="1264.5,-197.751 1261,-187.751 1257.5,-197.751 1264.5,-197.751"/>
</g>
<!-- Node13&#45;&gt;Node8 -->
<g id="edge19" class="edge"><title>Node13&#45;&gt;Node8</title>
<path fill="none" stroke="midnightblue" d="M1273.66,-224.255C1284.25,-216.174 1298.75,-203.151 1306,-188 1320.62,-157.433 1327.82,-141.963 1312,-112 1291.39,-72.974 1270.86,-72.6806 1230,-56 1156.93,-26.168 1064.02,-16.077 1013.6,-12.6892"/>
<polygon fill="midnightblue" stroke="midnightblue" points="1013.7,-9.18906 1003.5,-12.0634 1013.27,-16.1756 1013.7,-9.18906"/>
</g>
<!-- Node15 -->
<g id="node15" class="node"><title>Node15</title>
<g id="a_node15"><a xlink:href="../../d1/ddf/SQHit_8h.html" target="_top" xlink:title="SQHit.h">
<polygon fill="none" stroke="black" points="1031,-168.5 1031,-187.5 1081,-187.5 1081,-168.5 1031,-168.5"/>
<text text-anchor="middle" x="1056" y="-175.5" font-family="FreeSans" font-size="10.00">SQHit.h</text>
</a>
</g>
</g>
<!-- Node13&#45;&gt;Node15 -->
<g id="edge20" class="edge"><title>Node13&#45;&gt;Node15</title>
<path fill="none" stroke="midnightblue" d="M1228.53,-224.471C1196.15,-215.96 1144.71,-202.434 1091.25,-188.328"/>
<polygon fill="midnightblue" stroke="midnightblue" points="1091.81,-184.856 1081.25,-185.688 1090.03,-191.624 1091.81,-184.856"/>
</g>
<!-- Node15&#45;&gt;Node6 -->
<g id="edge21" class="edge"><title>Node15&#45;&gt;Node6</title>
<path fill="none" stroke="midnightblue" d="M1081.34,-169.605C1112.45,-160.522 1165.57,-145.018 1201.93,-134.405"/>
<polygon fill="midnightblue" stroke="midnightblue" points="1203.09,-137.713 1211.71,-131.551 1201.13,-130.993 1203.09,-137.713"/>
</g>
<!-- Node16 -->
<g id="node16" class="node"><title>Node16</title>
<g id="a_node16"><a xlink:href="../../d2/d92/PHG4HitDefs_8h.html" target="_top" xlink:title="g4main/PHG4HitDefs.h">
<polygon fill="none" stroke="black" points="927,-112.5 927,-131.5 1043,-131.5 1043,-112.5 927,-112.5"/>
<text text-anchor="middle" x="985" y="-119.5" font-family="FreeSans" font-size="10.00">g4main/PHG4HitDefs.h</text>
</a>
</g>
</g>
<!-- Node15&#45;&gt;Node16 -->
<g id="edge22" class="edge"><title>Node15&#45;&gt;Node16</title>
<path fill="none" stroke="midnightblue" d="M1044.59,-168.324C1033.89,-160.185 1017.66,-147.839 1004.84,-138.087"/>
<polygon fill="midnightblue" stroke="midnightblue" points="1006.69,-135.102 996.615,-131.834 1002.46,-140.673 1006.69,-135.102"/>
</g>
<!-- Node15&#45;&gt;Node8 -->
<g id="edge24" class="edge"><title>Node15&#45;&gt;Node8</title>
<path fill="none" stroke="midnightblue" d="M1060.97,-168.333C1067.56,-155.628 1077.55,-131.356 1070,-112 1055.48,-74.7869 1020.11,-43.0118 997.418,-25.503"/>
<polygon fill="midnightblue" stroke="midnightblue" points="999.514,-22.6997 989.411,-19.5094 995.319,-28.3037 999.514,-22.6997"/>
</g>
<!-- Node15&#45;&gt;Node10 -->
<g id="edge25" class="edge"><title>Node15&#45;&gt;Node10</title>
<path fill="none" stroke="midnightblue" d="M1072.23,-168.324C1088.35,-159.703 1113.3,-146.364 1131.96,-136.386"/>
<polygon fill="midnightblue" stroke="midnightblue" points="1133.64,-139.456 1140.81,-131.655 1130.34,-133.283 1133.64,-139.456"/>
</g>
<!-- Node17 -->
<g id="node17" class="node"><title>Node17</title>
<polygon fill="none" stroke="#bfbfbf" points="554,-56.5 554,-75.5 594,-75.5 594,-56.5 554,-56.5"/>
<text text-anchor="middle" x="574" y="-63.5" font-family="FreeSans" font-size="10.00">string</text>
</g>
<!-- Node15&#45;&gt;Node17 -->
<g id="edge26" class="edge"><title>Node15&#45;&gt;Node17</title>
<path fill="none" stroke="midnightblue" d="M1058.55,-168.467C1062.11,-154.576 1066.63,-127.109 1052,-112 1044.16,-103.902 708.192,-77.3531 604.293,-69.322"/>
<polygon fill="midnightblue" stroke="midnightblue" points="604.398,-65.8198 594.159,-68.5406 603.86,-72.7991 604.398,-65.8198"/>
</g>
<!-- Node15&#45;&gt;Node9 -->
<g id="edge27" class="edge"><title>Node15&#45;&gt;Node9</title>
<path fill="none" stroke="midnightblue" d="M1030.8,-168.838C1004.96,-160.456 963.366,-146.93 918.364,-132.105"/>
<polygon fill="midnightblue" stroke="midnightblue" points="919.306,-128.73 908.713,-128.923 917.114,-135.378 919.306,-128.73"/>
</g>
<!-- Node16&#45;&gt;Node17 -->
<g id="edge23" class="edge"><title>Node16&#45;&gt;Node17</title>
<path fill="none" stroke="midnightblue" d="M926.762,-113.288C923.459,-112.852 920.188,-112.42 917,-112 801.526,-96.7835 664.169,-78.7973 604.349,-70.9699"/>
<polygon fill="midnightblue" stroke="midnightblue" points="604.474,-67.4565 594.105,-69.6295 603.566,-74.3973 604.474,-67.4565"/>
</g>
<!-- Node21 -->
<g id="node21" class="node"><title>Node21</title>
<g id="a_node21"><a xlink:href="../../d5/d6f/phool_8h.html" target="_top" xlink:title="phool.h">
<polygon fill="none" stroke="black" points="106.5,-56.5 106.5,-75.5 153.5,-75.5 153.5,-56.5 106.5,-56.5"/>
<text text-anchor="middle" x="130" y="-63.5" font-family="FreeSans" font-size="10.00">phool.h</text>
</a>
</g>
</g>
<!-- Node20&#45;&gt;Node21 -->
<g id="edge31" class="edge"><title>Node20&#45;&gt;Node21</title>
<path fill="none" stroke="midnightblue" d="M68.8831,-280.197C62.8678,-253.113 48.0303,-169.389 79,-112 85.5716,-99.8224 96.8136,-89.3641 107.073,-81.6028"/>
<polygon fill="midnightblue" stroke="midnightblue" points="109.206,-84.3808 115.336,-75.7391 105.155,-78.6721 109.206,-84.3808"/>
</g>
<!-- Node22 -->
<g id="node22" class="node"><title>Node22</title>
<g id="a_node22"><a xlink:href="../../d8/d30/PHCompositeNode_8h.html" target="_top" xlink:title="PHCompositeNode.h">
<polygon fill="none" stroke="black" points="94,-224.5 94,-243.5 200,-243.5 200,-224.5 94,-224.5"/>
<text text-anchor="middle" x="147" y="-231.5" font-family="FreeSans" font-size="10.00">PHCompositeNode.h</text>
</a>
</g>
</g>
<!-- Node20&#45;&gt;Node22 -->
<g id="edge33" class="edge"><title>Node20&#45;&gt;Node22</title>
<path fill="none" stroke="midnightblue" d="M83.2107,-280.324C94.7759,-272.107 112.375,-259.602 126.161,-249.807"/>
<polygon fill="midnightblue" stroke="midnightblue" points="128.443,-252.479 134.567,-243.834 124.388,-246.773 128.443,-252.479"/>
</g>
<!-- Node25 -->
<g id="node25" class="node"><title>Node25</title>
<g id="a_node25"><a xlink:href="../../db/dd5/PHPointerList_8h.html" target="_top" xlink:title="PHPointerList.h">
<polygon fill="none" stroke="black" points="89.5,-168.5 89.5,-187.5 172.5,-187.5 172.5,-168.5 89.5,-168.5"/>
<text text-anchor="middle" x="131" y="-175.5" font-family="FreeSans" font-size="10.00">PHPointerList.h</text>
</a>
</g>
</g>
<!-- Node20&#45;&gt;Node25 -->
<g id="edge43" class="edge"><title>Node20&#45;&gt;Node25</title>
<path fill="none" stroke="midnightblue" d="M71.2886,-280.457C72.0555,-267.487 74.8491,-242.394 85,-224 91.3645,-212.467 101.624,-202.012 110.841,-194.088"/>
<polygon fill="midnightblue" stroke="midnightblue" points="113.316,-196.587 118.87,-187.565 108.902,-191.154 113.316,-196.587"/>
</g>
<!-- Node21&#45;&gt;Node8 -->
<g id="edge32" class="edge"><title>Node21&#45;&gt;Node8</title>
<path fill="none" stroke="midnightblue" d="M153.592,-58.7297C158.334,-57.663 163.303,-56.6813 168,-56 463.643,-13.1119 825.516,-10.4128 940.277,-10.7385"/>
<polygon fill="midnightblue" stroke="midnightblue" points="940.279,-14.2384 950.292,-10.7767 940.306,-7.23849 940.279,-14.2384"/>
</g>
<!-- Node22&#45;&gt;Node21 -->
<g id="edge34" class="edge"><title>Node22&#45;&gt;Node21</title>
<path fill="none" stroke="midnightblue" d="M124.212,-224.471C108.674,-217.316 89.2925,-205.435 80,-188 60.7779,-151.934 93.2215,-106.842 114.238,-83.193"/>
<polygon fill="midnightblue" stroke="midnightblue" points="116.878,-85.4932 121.092,-75.7725 111.736,-80.7437 116.878,-85.4932"/>
</g>
<!-- Node23 -->
<g id="node23" class="node"><title>Node23</title>
<g id="a_node23"><a xlink:href="../../d3/d62/PHNode_8h.html" target="_top" xlink:title="PHNode.h">
<polygon fill="none" stroke="black" points="210,-112.5 210,-131.5 270,-131.5 270,-112.5 210,-112.5"/>
<text text-anchor="middle" x="240" y="-119.5" font-family="FreeSans" font-size="10.00">PHNode.h</text>
</a>
</g>
</g>
<!-- Node22&#45;&gt;Node23 -->
<g id="edge35" class="edge"><title>Node22&#45;&gt;Node23</title>
<path fill="none" stroke="midnightblue" d="M154.298,-224.368C169.781,-206.055 206.14,-163.049 226.166,-139.362"/>
<polygon fill="midnightblue" stroke="midnightblue" points="228.953,-141.488 232.736,-131.591 223.607,-136.968 228.953,-141.488"/>
</g>
<!-- Node22&#45;&gt;Node25 -->
<g id="edge39" class="edge"><title>Node22&#45;&gt;Node25</title>
<path fill="none" stroke="midnightblue" d="M144.358,-224.083C142.214,-216.849 139.121,-206.409 136.451,-197.397"/>
<polygon fill="midnightblue" stroke="midnightblue" points="139.79,-196.345 133.593,-187.751 133.078,-198.333 139.79,-196.345"/>
</g>
<!-- Node23&#45;&gt;Node21 -->
<g id="edge36" class="edge"><title>Node23&#45;&gt;Node21</title>
<path fill="none" stroke="midnightblue" d="M222.327,-112.324C204.606,-103.625 177.097,-90.1202 156.712,-80.113"/>
<polygon fill="midnightblue" stroke="midnightblue" points="158.149,-76.9195 147.63,-75.6545 155.064,-83.2031 158.149,-76.9195"/>
</g>
<!-- Node24 -->
<g id="node24" class="node"><title>Node24</title>
<polygon fill="none" stroke="#bfbfbf" points="218,-56.5 218,-75.5 262,-75.5 262,-56.5 218,-56.5"/>
<text text-anchor="middle" x="240" y="-63.5" font-family="FreeSans" font-size="10.00">iosfwd</text>
</g>
<!-- Node23&#45;&gt;Node24 -->
<g id="edge37" class="edge"><title>Node23&#45;&gt;Node24</title>
<path fill="none" stroke="midnightblue" d="M240,-112.083C240,-105.006 240,-94.8611 240,-85.9865"/>
<polygon fill="midnightblue" stroke="midnightblue" points="243.5,-85.751 240,-75.7511 236.5,-85.7511 243.5,-85.751"/>
</g>
<!-- Node23&#45;&gt;Node17 -->
<g id="edge38" class="edge"><title>Node23&#45;&gt;Node17</title>
<path fill="none" stroke="midnightblue" d="M270.229,-116.113C333.681,-105.854 480.123,-82.1777 543.666,-71.9043"/>
<polygon fill="midnightblue" stroke="midnightblue" points="544.517,-75.3123 553.83,-70.261 543.399,-68.402 544.517,-75.3123"/>
</g>
<!-- Node25&#45;&gt;Node21 -->
<g id="edge40" class="edge"><title>Node25&#45;&gt;Node21</title>
<path fill="none" stroke="midnightblue" d="M130.922,-168.368C130.76,-150.617 130.388,-109.666 130.169,-85.5974"/>
<polygon fill="midnightblue" stroke="midnightblue" points="133.669,-85.5592 130.078,-75.5914 126.669,-85.6229 133.669,-85.5592"/>
</g>
<!-- Node25&#45;&gt;Node23 -->
<g id="edge41" class="edge"><title>Node25&#45;&gt;Node23</title>
<path fill="none" stroke="midnightblue" d="M148.513,-168.324C166.072,-159.625 193.331,-146.12 213.531,-136.113"/>
<polygon fill="midnightblue" stroke="midnightblue" points="215.124,-139.23 222.531,-131.655 212.016,-132.958 215.124,-139.23"/>
</g>
<!-- Node25&#45;&gt;Node8 -->
<g id="edge42" class="edge"><title>Node25&#45;&gt;Node8</title>
<path fill="none" stroke="midnightblue" d="M133.568,-168.265C140.897,-145.097 164.319,-82.0815 209,-56 272.51,-18.9274 795.162,-12.3367 939.944,-11.2187"/>
<polygon fill="midnightblue" stroke="midnightblue" points="940.117,-14.7177 950.091,-11.1447 940.066,-7.71787 940.117,-14.7177"/>
</g>
<!-- Node27 -->
<g id="node27" class="node"><title>Node27</title>
<g id="a_node27"><a xlink:href="../../dd/d9b/PHDataNode_8h.html" target="_top" xlink:title="PHDataNode.h">
<polygon fill="none" stroke="black" points="275,-280.5 275,-299.5 355,-299.5 355,-280.5 275,-280.5"/>
<text text-anchor="middle" x="315" y="-287.5" font-family="FreeSans" font-size="10.00">PHDataNode.h</text>
</a>
</g>
</g>
<!-- Node26&#45;&gt;Node27 -->
<g id="edge45" class="edge"><title>Node26&#45;&gt;Node27</title>
<path fill="none" stroke="midnightblue" d="M436.293,-392.464C420.083,-384.241 395.827,-370.884 377,-356 358.561,-341.423 340.343,-321.48 328.478,-307.542"/>
<polygon fill="midnightblue" stroke="midnightblue" points="331.061,-305.175 321.965,-299.741 325.687,-309.661 331.061,-305.175"/>
</g>
<!-- Node28 -->
<g id="node28" class="node"><title>Node28</title>
<g id="a_node28"><a xlink:href="../../d9/d53/PHIOManager_8h.html" target="_top" xlink:title="PHIOManager.h">
<polygon fill="none" stroke="black" points="349,-112.5 349,-131.5 435,-131.5 435,-112.5 349,-112.5"/>
<text text-anchor="middle" x="392" y="-119.5" font-family="FreeSans" font-size="10.00">PHIOManager.h</text>
</a>
</g>
</g>
<!-- Node26&#45;&gt;Node28 -->
<g id="edge48" class="edge"><title>Node26&#45;&gt;Node28</title>
<path fill="none" stroke="midnightblue" d="M449.354,-392.414C434.385,-364.198 387.493,-271.37 372,-188 370.376,-179.261 370.155,-176.695 372,-168 373.997,-158.591 378.101,-148.762 382.075,-140.698"/>
<polygon fill="midnightblue" stroke="midnightblue" points="385.307,-142.072 386.87,-131.593 379.113,-138.81 385.307,-142.072"/>
</g>
<!-- Node29 -->
<g id="node29" class="node"><title>Node29</title>
<g id="a_node29"><a xlink:href="../../dd/de7/PHNodeIOManager_8h.html" target="_top" xlink:title="PHNodeIOManager.h">
<polygon fill="none" stroke="black" points="381,-168.5 381,-187.5 489,-187.5 489,-168.5 381,-168.5"/>
<text text-anchor="middle" x="435" y="-175.5" font-family="FreeSans" font-size="10.00">PHNodeIOManager.h</text>
</a>
</g>
</g>
<!-- Node26&#45;&gt;Node29 -->
<g id="edge51" class="edge"><title>Node26&#45;&gt;Node29</title>
<path fill="none" stroke="midnightblue" d="M453.255,-392.297C450.46,-359.633 440.552,-243.866 436.622,-197.957"/>
<polygon fill="midnightblue" stroke="midnightblue" points="440.1,-197.549 435.76,-187.884 433.126,-198.146 440.1,-197.549"/>
</g>
<!-- Node30 -->
<g id="node30" class="node"><title>Node30</title>
<g id="a_node30"><a xlink:href="../../db/d17/PHTypedNodeIterator_8h.html" target="_top" xlink:title="PHTypedNodeIterator.h">
<polygon fill="none" stroke="black" points="131.5,-336.5 131.5,-355.5 248.5,-355.5 248.5,-336.5 131.5,-336.5"/>
<text text-anchor="middle" x="190" y="-343.5" font-family="FreeSans" font-size="10.00">PHTypedNodeIterator.h</text>
</a>
</g>
</g>
<!-- Node26&#45;&gt;Node30 -->
<g id="edge55" class="edge"><title>Node26&#45;&gt;Node30</title>
<path fill="none" stroke="midnightblue" d="M412.168,-392.444C365.921,-382.984 291.388,-367.738 241.564,-357.547"/>
<polygon fill="midnightblue" stroke="midnightblue" points="242.134,-354.091 231.636,-355.516 240.732,-360.949 242.134,-354.091"/>
</g>
<!-- Node32 -->
<g id="node32" class="node"><title>Node32</title>
<g id="a_node32"><a xlink:href="../../de/da7/phooldefs_8h.html" target="_top" xlink:title="phooldefs.h">
<polygon fill="none" stroke="black" points="501.5,-336.5 501.5,-355.5 566.5,-355.5 566.5,-336.5 501.5,-336.5"/>
<text text-anchor="middle" x="534" y="-343.5" font-family="FreeSans" font-size="10.00">phooldefs.h</text>
</a>
</g>
</g>
<!-- Node26&#45;&gt;Node32 -->
<g id="edge58" class="edge"><title>Node26&#45;&gt;Node32</title>
<path fill="none" stroke="midnightblue" d="M466.853,-392.324C479.216,-383.979 498.13,-371.212 512.737,-361.352"/>
<polygon fill="midnightblue" stroke="midnightblue" points="514.848,-364.15 521.179,-355.655 510.932,-358.348 514.848,-364.15"/>
</g>
<!-- Node26&#45;&gt;Node7 -->
<g id="edge60" class="edge"><title>Node26&#45;&gt;Node7</title>
<path fill="none" stroke="midnightblue" d="M497.431,-392.476C522.29,-385.853 552.841,-374.572 575,-356 599.092,-335.808 703.558,-143.94 735.612,-84.48"/>
<polygon fill="midnightblue" stroke="midnightblue" points="738.762,-86.0132 740.419,-75.5488 732.597,-82.6959 738.762,-86.0132"/>
</g>
<!-- Node26&#45;&gt;Node17 -->
<g id="edge61" class="edge"><title>Node26&#45;&gt;Node17</title>
<path fill="none" stroke="midnightblue" d="M456.779,-392.417C468.179,-357.348 512.759,-221.602 555,-112 558.474,-102.987 562.618,-93.0852 566.148,-84.8705"/>
<polygon fill="midnightblue" stroke="midnightblue" points="569.418,-86.1273 570.194,-75.561 562.998,-83.3368 569.418,-86.1273"/>
</g>
<!-- Node27&#45;&gt;Node23 -->
<g id="edge46" class="edge"><title>Node27&#45;&gt;Node23</title>
<path fill="none" stroke="midnightblue" d="M310.968,-280.075C299.111,-253.832 264.192,-176.545 248.185,-141.117"/>
<polygon fill="midnightblue" stroke="midnightblue" points="251.178,-139.24 243.871,-131.568 244.799,-142.122 251.178,-139.24"/>
</g>
<!-- Node27&#45;&gt;Node8 -->
<g id="edge47" class="edge"><title>Node27&#45;&gt;Node8</title>
<path fill="none" stroke="midnightblue" d="M315,-280.442C315,-261.936 315,-216.812 315,-179 315,-179 315,-179 315,-121 315,-57.1291 800.74,-21.9684 940.06,-13.1973"/>
<polygon fill="midnightblue" stroke="midnightblue" points="940.465,-16.6789 950.229,-12.5654 940.031,-9.69241 940.465,-16.6789"/>
</g>
<!-- Node28&#45;&gt;Node21 -->
<g id="edge49" class="edge"><title>Node28&#45;&gt;Node21</title>
<path fill="none" stroke="midnightblue" d="M350.485,-112.444C298.731,-101.777 211.282,-83.7528 163.55,-73.9148"/>
<polygon fill="midnightblue" stroke="midnightblue" points="164.214,-70.4783 153.714,-71.8876 162.801,-77.3342 164.214,-70.4783"/>
</g>
<!-- Node28&#45;&gt;Node17 -->
<g id="edge50" class="edge"><title>Node28&#45;&gt;Node17</title>
<path fill="none" stroke="midnightblue" d="M420.838,-112.444C454.448,-102.472 509.727,-86.0701 543.877,-75.9377"/>
<polygon fill="midnightblue" stroke="midnightblue" points="545.158,-79.2084 553.749,-73.0084 543.167,-72.4975 545.158,-79.2084"/>
</g>
<!-- Node29&#45;&gt;Node28 -->
<g id="edge52" class="edge"><title>Node29&#45;&gt;Node28</title>
<path fill="none" stroke="midnightblue" d="M427.899,-168.083C421.763,-160.377 412.73,-149.033 405.261,-139.653"/>
<polygon fill="midnightblue" stroke="midnightblue" points="407.936,-137.394 398.968,-131.751 402.46,-141.754 407.936,-137.394"/>
</g>
<!-- Node29&#45;&gt;Node17 -->
<g id="edge53" class="edge"><title>Node29&#45;&gt;Node17</title>
<path fill="none" stroke="midnightblue" d="M442.893,-168.437C455.097,-155.441 479.59,-130.315 503,-112 517.803,-100.419 535.681,-89.1013 549.794,-80.713"/>
<polygon fill="midnightblue" stroke="midnightblue" points="551.588,-83.7187 558.454,-75.6503 548.055,-77.6756 551.588,-83.7187"/>
</g>
<!-- Node29&#45;&gt;Node9 -->
<g id="edge54" class="edge"><title>Node29&#45;&gt;Node9</title>
<path fill="none" stroke="midnightblue" d="M489.126,-171.169C564.634,-162.943 705.846,-147.23 826,-132 838.287,-130.442 851.861,-128.585 863.413,-126.963"/>
<polygon fill="midnightblue" stroke="midnightblue" points="863.948,-130.422 873.358,-125.554 862.966,-123.491 863.948,-130.422"/>
</g>
<!-- Node30&#45;&gt;Node20 -->
<g id="edge56" class="edge"><title>Node30&#45;&gt;Node20</title>
<path fill="none" stroke="midnightblue" d="M171.144,-336.444C151.734,-327.636 121.27,-313.812 99.0355,-303.722"/>
<polygon fill="midnightblue" stroke="midnightblue" points="100.32,-300.462 89.7677,-299.516 97.4277,-306.836 100.32,-300.462"/>
</g>
<!-- Node31 -->
<g id="node31" class="node"><title>Node31</title>
<polygon fill="none" stroke="#bfbfbf" points="166,-280.5 166,-299.5 214,-299.5 214,-280.5 166,-280.5"/>
<text text-anchor="middle" x="190" y="-287.5" font-family="FreeSans" font-size="10.00">cstddef</text>
</g>
<!-- Node30&#45;&gt;Node31 -->
<g id="edge57" class="edge"><title>Node30&#45;&gt;Node31</title>
<path fill="none" stroke="midnightblue" d="M190,-336.083C190,-329.006 190,-318.861 190,-309.986"/>
<polygon fill="midnightblue" stroke="midnightblue" points="193.5,-309.751 190,-299.751 186.5,-309.751 193.5,-309.751"/>
</g>
<!-- Node32&#45;&gt;Node17 -->
<g id="edge59" class="edge"><title>Node32&#45;&gt;Node17</title>
<path fill="none" stroke="midnightblue" d="M536.832,-336.268C542.564,-317.794 555,-273.301 555,-235 555,-235 555,-235 555,-177 555,-144.489 563.159,-107.35 568.784,-85.6103"/>
<polygon fill="midnightblue" stroke="midnightblue" points="572.218,-86.3175 571.438,-75.7514 565.459,-84.498 572.218,-86.3175"/>
</g>
<!-- Node33&#45;&gt;Node20 -->
<g id="edge63" class="edge"><title>Node33&#45;&gt;Node20</title>
<path fill="none" stroke="midnightblue" d="M410.229,-453.178C342.38,-445.315 210.436,-422.09 122,-356 104.823,-343.163 90.3152,-323.152 81.2171,-308.724"/>
<polygon fill="midnightblue" stroke="midnightblue" points="83.983,-306.533 75.8164,-299.783 77.9914,-310.153 83.983,-306.533"/>
</g>
<!-- Node33&#45;&gt;Node26 -->
<g id="edge64" class="edge"><title>Node33&#45;&gt;Node26</title>
<path fill="none" stroke="midnightblue" d="M454,-448.083C454,-441.006 454,-430.861 454,-421.986"/>
<polygon fill="midnightblue" stroke="midnightblue" points="457.5,-421.751 454,-411.751 450.5,-421.751 457.5,-421.751"/>
</g>
<!-- Node33&#45;&gt;Node27 -->
<g id="edge65" class="edge"><title>Node33&#45;&gt;Node27</title>
<path fill="none" stroke="midnightblue" d="M437.524,-448.398C423.084,-440.318 402.102,-427.217 387,-412 356.263,-381.03 333.385,-334.421 322.35,-309.039"/>
<polygon fill="midnightblue" stroke="midnightblue" points="325.467,-307.423 318.357,-299.568 319.017,-310.142 325.467,-307.423"/>
</g>
<!-- Node33&#45;&gt;Node23 -->
<g id="edge66" class="edge"><title>Node33&#45;&gt;Node23</title>
<path fill="none" stroke="midnightblue" d="M432.084,-448.489C413.443,-440.643 386.512,-427.831 366,-412 313.173,-371.227 294.264,-360.451 266,-300 241.053,-246.644 238.799,-175.208 239.307,-141.758"/>
<polygon fill="midnightblue" stroke="midnightblue" points="242.809,-141.69 239.569,-131.603 235.812,-141.509 242.809,-141.69"/>
</g>
<!-- Node33&#45;&gt;Node7 -->
<g id="edge67" class="edge"><title>Node33&#45;&gt;Node7</title>
<path fill="none" stroke="midnightblue" d="M497.653,-455.815C566.361,-451.37 692,-431.666 692,-347 692,-347 692,-347 692,-289 692,-283.809 727.535,-138.274 740.411,-85.7094"/>
<polygon fill="midnightblue" stroke="midnightblue" points="743.875,-86.2782 742.857,-75.7325 737.077,-84.6118 743.875,-86.2782"/>
</g>
<!-- Node33&#45;&gt;Node17 -->
<g id="edge68" class="edge"><title>Node33&#45;&gt;Node17</title>
<path fill="none" stroke="midnightblue" d="M473.334,-448.373C502.48,-434.094 556.258,-402.436 575,-356 613.421,-260.806 589.79,-133.177 578.752,-85.7619"/>
<polygon fill="midnightblue" stroke="midnightblue" points="582.134,-84.8578 576.378,-75.9628 575.331,-86.5058 582.134,-84.8578"/>
</g>
<!-- Node36 -->
<g id="node36" class="node"><title>Node36</title>
<g id="a_node36"><a xlink:href="../../dd/d5f/OnlMonClient_8h.html" target="_top" xlink:title="OnlMonClient.h">
<polygon fill="none" stroke="black" points="793.5,-336.5 793.5,-355.5 876.5,-355.5 876.5,-336.5 793.5,-336.5"/>
<text text-anchor="middle" x="835" y="-343.5" font-family="FreeSans" font-size="10.00">OnlMonClient.h</text>
</a>
</g>
</g>
<!-- Node35&#45;&gt;Node36 -->
<g id="edge71" class="edge"><title>Node35&#45;&gt;Node36</title>
<path fill="none" stroke="midnightblue" d="M835,-392.083C835,-385.006 835,-374.861 835,-365.986"/>
<polygon fill="midnightblue" stroke="midnightblue" points="838.5,-365.751 835,-355.751 831.5,-365.751 838.5,-365.751"/>
</g>
<!-- Node37 -->
<g id="node37" class="node"><title>Node37</title>
<g id="a_node37"><a xlink:href="../../d5/dc2/SubsysReco_8h.html" target="_top" xlink:title="fun4all/SubsysReco.h">
<polygon fill="none" stroke="black" points="720.5,-224.5 720.5,-243.5 829.5,-243.5 829.5,-224.5 720.5,-224.5"/>
<text text-anchor="middle" x="775" y="-231.5" font-family="FreeSans" font-size="10.00">fun4all/SubsysReco.h</text>
</a>
</g>
</g>
<!-- Node36&#45;&gt;Node37 -->
<g id="edge72" class="edge"><title>Node36&#45;&gt;Node37</title>
<path fill="none" stroke="midnightblue" d="M830.292,-336.368C820.478,-318.376 797.664,-276.55 784.615,-252.627"/>
<polygon fill="midnightblue" stroke="midnightblue" points="787.547,-250.694 779.686,-243.591 781.402,-254.046 787.547,-250.694"/>
</g>
<!-- Node39 -->
<g id="node39" class="node"><title>Node39</title>
<g id="a_node39"><a xlink:href="../../d4/def/OnlMonCanvas_8h.html" target="_top" xlink:title="OnlMonCanvas.h">
<polygon fill="none" stroke="black" points="819.5,-280.5 819.5,-299.5 908.5,-299.5 908.5,-280.5 819.5,-280.5"/>
<text text-anchor="middle" x="864" y="-287.5" font-family="FreeSans" font-size="10.00">OnlMonCanvas.h</text>
</a>
</g>
</g>
<!-- Node36&#45;&gt;Node39 -->
<g id="edge77" class="edge"><title>Node36&#45;&gt;Node39</title>
<path fill="none" stroke="midnightblue" d="M839.789,-336.083C843.758,-328.691 849.525,-317.953 854.435,-308.811"/>
<polygon fill="midnightblue" stroke="midnightblue" points="857.653,-310.217 859.3,-299.751 851.486,-306.905 857.653,-310.217"/>
</g>
<!-- Node38 -->
<g id="node38" class="node"><title>Node38</title>
<g id="a_node38"><a xlink:href="../../d2/de7/Fun4AllBase_8h.html" target="_top" xlink:title="Fun4AllBase.h">
<polygon fill="none" stroke="black" points="735.5,-168.5 735.5,-187.5 814.5,-187.5 814.5,-168.5 735.5,-168.5"/>
<text text-anchor="middle" x="775" y="-175.5" font-family="FreeSans" font-size="10.00">Fun4AllBase.h</text>
</a>
</g>
</g>
<!-- Node37&#45;&gt;Node38 -->
<g id="edge73" class="edge"><title>Node37&#45;&gt;Node38</title>
<path fill="none" stroke="midnightblue" d="M775,-224.083C775,-217.006 775,-206.861 775,-197.986"/>
<polygon fill="midnightblue" stroke="midnightblue" points="778.5,-197.751 775,-187.751 771.5,-197.751 778.5,-197.751"/>
</g>
<!-- Node37&#45;&gt;Node17 -->
<g id="edge76" class="edge"><title>Node37&#45;&gt;Node17</title>
<path fill="none" stroke="midnightblue" d="M764.449,-224.379C743.152,-206.968 693.517,-166.343 652,-132 631.601,-115.125 608.291,-95.6787 592.506,-82.4857"/>
<polygon fill="midnightblue" stroke="midnightblue" points="594.494,-79.5856 584.577,-75.8557 590.004,-84.9556 594.494,-79.5856"/>
</g>
<!-- Node38&#45;&gt;Node17 -->
<g id="edge74" class="edge"><title>Node38&#45;&gt;Node17</title>
<path fill="none" stroke="midnightblue" d="M759.228,-168.368C724.369,-149.292 640.553,-103.422 598.678,-80.5054"/>
<polygon fill="midnightblue" stroke="midnightblue" points="600.151,-77.3219 589.699,-75.5914 596.791,-83.4625 600.151,-77.3219"/>
</g>
<!-- Node38&#45;&gt;Node12 -->
<g id="edge75" class="edge"><title>Node38&#45;&gt;Node12</title>
<path fill="none" stroke="midnightblue" d="M778.303,-168.083C780.982,-160.849 784.849,-150.409 788.186,-141.397"/>
<polygon fill="midnightblue" stroke="midnightblue" points="791.568,-142.344 791.759,-131.751 785.004,-139.913 791.568,-142.344"/>
</g>
<!-- Node40 -->
<g id="node40" class="node"><title>Node40</title>
<polygon fill="none" stroke="#bfbfbf" points="848,-224.5 848,-243.5 910,-243.5 910,-224.5 848,-224.5"/>
<text text-anchor="middle" x="879" y="-231.5" font-family="FreeSans" font-size="10.00">TCanvas.h</text>
</g>
<!-- Node39&#45;&gt;Node40 -->
<g id="edge78" class="edge"><title>Node39&#45;&gt;Node40</title>
<path fill="none" stroke="midnightblue" d="M866.477,-280.083C868.486,-272.849 871.386,-262.409 873.89,-253.397"/>
<polygon fill="midnightblue" stroke="midnightblue" points="877.265,-254.323 876.569,-243.751 870.52,-252.449 877.265,-254.323"/>
</g>
<!-- Node41 -->
<g id="node41" class="node"><title>Node41</title>
<polygon fill="none" stroke="#bfbfbf" points="928.5,-224.5 928.5,-243.5 999.5,-243.5 999.5,-224.5 928.5,-224.5"/>
<text text-anchor="middle" x="964" y="-231.5" font-family="FreeSans" font-size="10.00">TPaveText.h</text>
</g>
<!-- Node39&#45;&gt;Node41 -->
<g id="edge79" class="edge"><title>Node39&#45;&gt;Node41</title>
<path fill="none" stroke="midnightblue" d="M880.067,-280.324C895.958,-271.743 920.507,-258.486 938.958,-248.522"/>
<polygon fill="midnightblue" stroke="midnightblue" points="940.837,-251.486 947.973,-243.655 937.511,-245.326 940.837,-251.486"/>
</g>
<!-- Node39&#45;&gt;Node37 -->
<g id="edge80" class="edge"><title>Node39&#45;&gt;Node37</title>
<path fill="none" stroke="midnightblue" d="M849.701,-280.324C835.817,-271.9 814.508,-258.971 798.196,-249.074"/>
<polygon fill="midnightblue" stroke="midnightblue" points="799.629,-245.85 789.264,-243.655 795.998,-251.834 799.629,-245.85"/>
</g>
</g>
</svg>
