<?xml version="1.0" encoding="UTF-8" standalone="no"?>
<!DOCTYPE svg PUBLIC "-//W3C//DTD SVG 1.1//EN"
 "http://www.w3.org/Graphics/SVG/1.1/DTD/svg11.dtd">
<!-- Generated by graphviz version 2.30.1 (20200930.0103)
 -->
<!-- Title: PHG4Cellv1::get_edep Pages: 1 -->
<svg width="462pt" height="104pt"
 viewBox="0.00 0.00 462.00 104.00" xmlns="http://www.w3.org/2000/svg" xmlns:xlink="http://www.w3.org/1999/xlink">
<g id="graph0" class="graph" transform="scale(1 1) rotate(0) translate(4 100)">
<title>PHG4Cellv1::get_edep</title>
<!-- Node1 -->
<g id="node1" class="node"><title>Node1</title>
<polygon fill="#bfbfbf" stroke="black" points="0.5,-38.5 0.5,-57.5 113.5,-57.5 113.5,-38.5 0.5,-38.5"/>
<text text-anchor="middle" x="57" y="-45.5" font-family="FreeSans" font-size="10.00">PHG4Cellv1::get_edep</text>
</g>
<!-- Node2 -->
<g id="node2" class="node"><title>Node2</title>
<g id="a_node2"><a xlink:href="../../de/d5e/classPHG4Cellv1.html#a8c51fc772173796ddf4f4d0d7bf85fef" target="_top" xlink:title="PHG4Cellv1::get_property\l_float">
<polygon fill="none" stroke="black" points="150.5,-33 150.5,-63 277.5,-63 277.5,-33 150.5,-33"/>
<text text-anchor="start" x="158.5" y="-51" font-family="FreeSans" font-size="10.00">PHG4Cellv1::get_property</text>
<text text-anchor="middle" x="214" y="-40" font-family="FreeSans" font-size="10.00">_float</text>
</a>
</g>
</g>
<!-- Node1&#45;&gt;Node2 -->
<g id="edge1" class="edge"><title>Node1&#45;&gt;Node2</title>
<path fill="none" stroke="midnightblue" d="M113.521,-48C122.23,-48 131.344,-48 140.369,-48"/>
<polygon fill="midnightblue" stroke="midnightblue" points="140.495,-51.5001 150.495,-48 140.495,-44.5001 140.495,-51.5001"/>
</g>
<!-- Node3 -->
<g id="node3" class="node"><title>Node3</title>
<g id="a_node3"><a xlink:href="../../dc/dfe/classPHG4Cell.html#a662d88c74fbd5dc06d8dd9aac168210b" target="_top" xlink:title="PHG4Cell::check_property">
<polygon fill="none" stroke="black" points="319,-76.5 319,-95.5 449,-95.5 449,-76.5 319,-76.5"/>
<text text-anchor="middle" x="384" y="-83.5" font-family="FreeSans" font-size="10.00">PHG4Cell::check_property</text>
</a>
</g>
</g>
<!-- Node2&#45;&gt;Node3 -->
<g id="edge2" class="edge"><title>Node2&#45;&gt;Node3</title>
<path fill="none" stroke="midnightblue" d="M277.557,-62.1498C295.017,-66.0991 313.801,-70.3479 330.609,-74.1497"/>
<polygon fill="midnightblue" stroke="midnightblue" points="330.264,-77.6599 340.789,-76.4524 331.808,-70.8324 330.264,-77.6599"/>
</g>
<!-- Node4 -->
<g id="node4" class="node"><title>Node4</title>
<g id="a_node4"><a xlink:href="../../dc/dfe/classPHG4Cell.html#a42e05d988a7b10a3011cbb29ccc873cd" target="_top" xlink:title="PHG4Cell::get_property_info">
<polygon fill="none" stroke="black" points="315,-38.5 315,-57.5 453,-57.5 453,-38.5 315,-38.5"/>
<text text-anchor="middle" x="384" y="-45.5" font-family="FreeSans" font-size="10.00">PHG4Cell::get_property_info</text>
</a>
</g>
</g>
<!-- Node2&#45;&gt;Node4 -->
<g id="edge3" class="edge"><title>Node2&#45;&gt;Node4</title>
<path fill="none" stroke="midnightblue" d="M277.557,-48C286.369,-48 295.518,-48 304.58,-48"/>
<polygon fill="midnightblue" stroke="midnightblue" points="304.751,-51.5001 314.751,-48 304.751,-44.5001 304.751,-51.5001"/>
</g>
<!-- Node5 -->
<g id="node5" class="node"><title>Node5</title>
<g id="a_node5"><a xlink:href="../../dc/dfe/classPHG4Cell.html#a2d7f4192e24268528db85e3f89e9bc6d" target="_top" xlink:title="PHG4Cell::get_property_type">
<polygon fill="none" stroke="black" points="314,-0.5 314,-19.5 454,-19.5 454,-0.5 314,-0.5"/>
<text text-anchor="middle" x="384" y="-7.5" font-family="FreeSans" font-size="10.00">PHG4Cell::get_property_type</text>
</a>
</g>
</g>
<!-- Node2&#45;&gt;Node5 -->
<g id="edge4" class="edge"><title>Node2&#45;&gt;Node5</title>
<path fill="none" stroke="midnightblue" d="M277.557,-33.8502C295.017,-29.9009 313.801,-25.6521 330.609,-21.8503"/>
<polygon fill="midnightblue" stroke="midnightblue" points="331.808,-25.1676 340.789,-19.5476 330.264,-18.3401 331.808,-25.1676"/>
</g>
</g>
</svg>
