<?xml version="1.0" encoding="UTF-8" standalone="no"?>
<!DOCTYPE svg PUBLIC "-//W3C//DTD SVG 1.1//EN"
 "http://www.w3.org/Graphics/SVG/1.1/DTD/svg11.dtd">
<!-- Generated by graphviz version 2.30.1 (20180413.0232)
 -->
<!-- Title: CalibParamInTimeTaiwan::Add Pages: 1 -->
<svg width="872pt" height="332pt"
 viewBox="0.00 0.00 872.00 332.00" xmlns="http://www.w3.org/2000/svg" xmlns:xlink="http://www.w3.org/1999/xlink">
<g id="graph0" class="graph" transform="scale(1 1) rotate(0) translate(4 328)">
<title>CalibParamInTimeTaiwan::Add</title>
<!-- Node1 -->
<g id="node1" class="node"><title>Node1</title>
<polygon fill="#bfbfbf" stroke="black" points="0.5,-266.5 0.5,-285.5 149.5,-285.5 149.5,-266.5 0.5,-266.5"/>
<text text-anchor="middle" x="75" y="-273.5" font-family="FreeSans" font-size="10.00">CalibParamInTimeTaiwan::Add</text>
</g>
<!-- Node2 -->
<g id="node2" class="node"><title>Node2</title>
<g id="a_node2"><a xlink:href="../../d0/da0/classGeomSvc.html#a3e4f40789e9b2a98477ab8e8191d5ff2" target="_top" xlink:title="Get the plane position. ">
<polygon fill="none" stroke="black" points="186,-304.5 186,-323.5 310,-323.5 310,-304.5 186,-304.5"/>
<text text-anchor="middle" x="248" y="-311.5" font-family="FreeSans" font-size="10.00">GeomSvc::getDetectorID</text>
</a>
</g>
</g>
<!-- Node1&#45;&gt;Node2 -->
<g id="edge1" class="edge"><title>Node1&#45;&gt;Node2</title>
<path fill="none" stroke="midnightblue" d="M119.151,-285.589C141.919,-290.649 170.048,-296.9 194.119,-302.249"/>
<polygon fill="midnightblue" stroke="midnightblue" points="193.639,-305.727 204.16,-304.48 195.157,-298.894 193.639,-305.727"/>
</g>
<!-- Node3 -->
<g id="node3" class="node"><title>Node3</title>
<g id="a_node3"><a xlink:href="../../d0/da0/classGeomSvc.html#a2b7ecf5467120206b9479654c48ad7c4" target="_top" xlink:title="singlton instance ">
<polygon fill="none" stroke="black" points="198,-171.5 198,-190.5 298,-190.5 298,-171.5 198,-171.5"/>
<text text-anchor="middle" x="248" y="-178.5" font-family="FreeSans" font-size="10.00">GeomSvc::instance</text>
</a>
</g>
</g>
<!-- Node1&#45;&gt;Node3 -->
<g id="edge2" class="edge"><title>Node1&#45;&gt;Node3</title>
<path fill="none" stroke="midnightblue" d="M93.3374,-266.368C123.502,-249.61 185.785,-215.008 221.094,-195.392"/>
<polygon fill="midnightblue" stroke="midnightblue" points="222.829,-198.432 229.871,-190.516 219.43,-192.313 222.829,-198.432"/>
</g>
<!-- Node6 -->
<g id="node6" class="node"><title>Node6</title>
<g id="a_node6"><a xlink:href="../../d0/da0/classGeomSvc.html#a315e886f05db8254ed7d320706e268e6" target="_top" xlink:title="Convert the official detectorName to local detectorName. ">
<polygon fill="none" stroke="black" points="626,-190.5 626,-209.5 784,-209.5 784,-190.5 626,-190.5"/>
<text text-anchor="middle" x="705" y="-197.5" font-family="FreeSans" font-size="10.00">GeomSvc::toLocalDetectorName</text>
</a>
</g>
</g>
<!-- Node1&#45;&gt;Node6 -->
<g id="edge17" class="edge"><title>Node1&#45;&gt;Node6</title>
<path fill="none" stroke="midnightblue" d="M149.744,-282.936C250.833,-290.278 437.302,-296.039 590,-257 623.578,-248.416 658.741,-228.999 680.981,-215.218"/>
<polygon fill="midnightblue" stroke="midnightblue" points="683.106,-218.015 689.679,-209.705 679.359,-212.103 683.106,-218.015"/>
</g>
<!-- Node4 -->
<g id="node4" class="node"><title>Node4</title>
<g id="a_node4"><a xlink:href="../../d0/da0/classGeomSvc.html#a96ec4efc82cbaed0b5623e4dd69385b6" target="_top" xlink:title="Initialization, either from MySQL or from ascii file. ">
<polygon fill="none" stroke="black" points="346.5,-133.5 346.5,-152.5 423.5,-152.5 423.5,-133.5 346.5,-133.5"/>
<text text-anchor="middle" x="385" y="-140.5" font-family="FreeSans" font-size="10.00">GeomSvc::init</text>
</a>
</g>
</g>
<!-- Node3&#45;&gt;Node4 -->
<g id="edge3" class="edge"><title>Node3&#45;&gt;Node4</title>
<path fill="none" stroke="midnightblue" d="M283.066,-171.411C300.413,-166.528 321.702,-160.536 340.249,-155.315"/>
<polygon fill="midnightblue" stroke="midnightblue" points="341.267,-158.665 349.945,-152.586 339.37,-151.926 341.267,-158.665"/>
</g>
<!-- Node5 -->
<g id="node5" class="node"><title>Node5</title>
<g id="a_node5"><a xlink:href="../../d0/da0/classGeomSvc.html#adbe1473f9b3a8ff942da8d7d8ee28322" target="_top" xlink:title="GeomSvc::initPlaneDbSvc">
<polygon fill="none" stroke="black" points="460,-190.5 460,-209.5 590,-209.5 590,-190.5 460,-190.5"/>
<text text-anchor="middle" x="525" y="-197.5" font-family="FreeSans" font-size="10.00">GeomSvc::initPlaneDbSvc</text>
</a>
</g>
</g>
<!-- Node4&#45;&gt;Node5 -->
<g id="edge4" class="edge"><title>Node4&#45;&gt;Node5</title>
<path fill="none" stroke="midnightblue" d="M402.339,-152.509C417.065,-160.807 439.492,-172.773 460,-181 465.582,-183.239 471.531,-185.351 477.468,-187.296"/>
<polygon fill="midnightblue" stroke="midnightblue" points="476.793,-190.752 487.382,-190.403 478.887,-184.072 476.793,-190.752"/>
</g>
<!-- Node7 -->
<g id="node7" class="node"><title>Node7</title>
<g id="a_node7"><a xlink:href="../../d0/da0/classGeomSvc.html#a0d550b9f787318d57cdae9db2d04d6fb" target="_top" xlink:title="GeomSvc::initPlaneDirect">
<polygon fill="none" stroke="black" points="461.5,-152.5 461.5,-171.5 588.5,-171.5 588.5,-152.5 461.5,-152.5"/>
<text text-anchor="middle" x="525" y="-159.5" font-family="FreeSans" font-size="10.00">GeomSvc::initPlaneDirect</text>
</a>
</g>
</g>
<!-- Node4&#45;&gt;Node7 -->
<g id="edge6" class="edge"><title>Node4&#45;&gt;Node7</title>
<path fill="none" stroke="midnightblue" d="M423.709,-148.192C432.357,-149.382 441.836,-150.688 451.408,-152.005"/>
<polygon fill="midnightblue" stroke="midnightblue" points="451.001,-155.482 461.385,-153.379 451.956,-148.548 451.001,-155.482"/>
</g>
<!-- Node8 -->
<g id="node8" class="node"><title>Node8</title>
<g id="a_node8"><a xlink:href="../../d8/d62/classJobOptsSvc.html#aeb0d694dc08274aa90b0d6b1ee8384cb" target="_top" xlink:title="singlton instance ">
<polygon fill="none" stroke="black" points="650,-133.5 650,-152.5 760,-152.5 760,-133.5 650,-133.5"/>
<text text-anchor="middle" x="705" y="-140.5" font-family="FreeSans" font-size="10.00">JobOptsSvc::instance</text>
</a>
</g>
</g>
<!-- Node4&#45;&gt;Node8 -->
<g id="edge11" class="edge"><title>Node4&#45;&gt;Node8</title>
<path fill="none" stroke="midnightblue" d="M423.728,-143C476.98,-143 574.917,-143 639.757,-143"/>
<polygon fill="midnightblue" stroke="midnightblue" points="639.867,-146.5 649.867,-143 639.867,-139.5 639.867,-146.5"/>
</g>
<!-- Node11 -->
<g id="node11" class="node"><title>Node11</title>
<g id="a_node11"><a xlink:href="../../d0/da0/classGeomSvc.html#ab6c810e39b86ce66a4be6a596b4d54b8" target="_top" xlink:title="GeomSvc::loadAlignment">
<polygon fill="none" stroke="black" points="462.5,-38.5 462.5,-57.5 587.5,-57.5 587.5,-38.5 462.5,-38.5"/>
<text text-anchor="middle" x="525" y="-45.5" font-family="FreeSans" font-size="10.00">GeomSvc::loadAlignment</text>
</a>
</g>
</g>
<!-- Node4&#45;&gt;Node11 -->
<g id="edge12" class="edge"><title>Node4&#45;&gt;Node11</title>
<path fill="none" stroke="midnightblue" d="M393.689,-133.451C406.176,-118.494 432.274,-89.4499 460,-72 466.638,-67.8223 474.114,-64.202 481.554,-61.1298"/>
<polygon fill="midnightblue" stroke="midnightblue" points="482.819,-64.3931 490.891,-57.5308 480.302,-57.8615 482.819,-64.3931"/>
</g>
<!-- Node10 -->
<g id="node10" class="node"><title>Node10</title>
<g id="a_node10"><a xlink:href="../../d0/da0/classGeomSvc.html#a418543d7b33fc95092b2cd4a7496f1b8" target="_top" xlink:title="GeomSvc::loadMilleAlignment">
<polygon fill="none" stroke="black" points="632,-85.5 632,-104.5 778,-104.5 778,-85.5 632,-85.5"/>
<text text-anchor="middle" x="705" y="-92.5" font-family="FreeSans" font-size="10.00">GeomSvc::loadMilleAlignment</text>
</a>
</g>
</g>
<!-- Node4&#45;&gt;Node10 -->
<g id="edge13" class="edge"><title>Node4&#45;&gt;Node10</title>
<path fill="none" stroke="midnightblue" d="M423.728,-137.305C474.56,-129.632 566.106,-115.814 630.717,-106.062"/>
<polygon fill="midnightblue" stroke="midnightblue" points="631.48,-109.486 640.845,-104.533 630.435,-102.565 631.48,-109.486"/>
</g>
<!-- Node12 -->
<g id="node12" class="node"><title>Node12</title>
<g id="a_node12"><a xlink:href="../../d0/da0/classGeomSvc.html#abc60088ed5985a796f5df18ae4299661" target="_top" xlink:title="GeomSvc::loadCalibration">
<polygon fill="none" stroke="black" points="461,-0.5 461,-19.5 589,-19.5 589,-0.5 461,-0.5"/>
<text text-anchor="middle" x="525" y="-7.5" font-family="FreeSans" font-size="10.00">GeomSvc::loadCalibration</text>
</a>
</g>
</g>
<!-- Node4&#45;&gt;Node12 -->
<g id="edge14" class="edge"><title>Node4&#45;&gt;Node12</title>
<path fill="none" stroke="midnightblue" d="M389.519,-133.407C398.057,-111.477 422.01,-57.3924 460,-29 462.518,-27.1179 465.221,-25.4214 468.042,-23.8921"/>
<polygon fill="midnightblue" stroke="midnightblue" points="469.776,-26.9459 477.367,-19.5555 466.824,-20.5986 469.776,-26.9459"/>
</g>
<!-- Node14 -->
<g id="node14" class="node"><title>Node14</title>
<g id="a_node14"><a xlink:href="../../d0/da0/classGeomSvc.html#a0c78d3ac904cfbb367e96c73f176630d" target="_top" xlink:title="GeomSvc::initWireLUT">
<polygon fill="none" stroke="black" points="468,-228.5 468,-247.5 582,-247.5 582,-228.5 468,-228.5"/>
<text text-anchor="middle" x="525" y="-235.5" font-family="FreeSans" font-size="10.00">GeomSvc::initWireLUT</text>
</a>
</g>
</g>
<!-- Node4&#45;&gt;Node14 -->
<g id="edge16" class="edge"><title>Node4&#45;&gt;Node14</title>
<path fill="none" stroke="midnightblue" d="M392.806,-152.705C404.627,-168.845 430.527,-201.186 460,-219 463.571,-221.158 467.403,-223.085 471.353,-224.803"/>
<polygon fill="midnightblue" stroke="midnightblue" points="470.124,-228.081 480.713,-228.444 472.662,-221.557 470.124,-228.081"/>
</g>
<!-- Node5&#45;&gt;Node6 -->
<g id="edge5" class="edge"><title>Node5&#45;&gt;Node6</title>
<path fill="none" stroke="midnightblue" d="M590.011,-200C598.392,-200 607.096,-200 615.789,-200"/>
<polygon fill="midnightblue" stroke="midnightblue" points="615.97,-203.5 625.97,-200 615.97,-196.5 615.97,-203.5"/>
</g>
<!-- Node7&#45;&gt;Node8 -->
<g id="edge7" class="edge"><title>Node7&#45;&gt;Node8</title>
<path fill="none" stroke="midnightblue" d="M588.506,-155.328C605.097,-153.557 623.04,-151.642 639.724,-149.861"/>
<polygon fill="midnightblue" stroke="midnightblue" points="640.354,-153.314 649.926,-148.772 639.611,-146.353 640.354,-153.314"/>
</g>
<!-- Node7&#45;&gt;Node6 -->
<g id="edge9" class="edge"><title>Node7&#45;&gt;Node6</title>
<path fill="none" stroke="midnightblue" d="M570.917,-171.589C594.829,-176.694 624.421,-183.011 649.625,-188.392"/>
<polygon fill="midnightblue" stroke="midnightblue" points="648.896,-191.815 659.406,-190.48 650.357,-184.969 648.896,-191.815"/>
</g>
<!-- Node7&#45;&gt;Node10 -->
<g id="edge10" class="edge"><title>Node7&#45;&gt;Node10</title>
<path fill="none" stroke="midnightblue" d="M551.05,-152.424C571.265,-144.71 600.444,-133.606 626,-124 639.794,-118.815 654.979,-113.158 668.256,-108.228"/>
<polygon fill="midnightblue" stroke="midnightblue" points="669.824,-111.379 677.983,-104.62 667.39,-104.817 669.824,-111.379"/>
</g>
<!-- Node9 -->
<g id="node9" class="node"><title>Node9</title>
<g id="a_node9"><a xlink:href="../../dd/d23/JobOptsSvc_8cxx.html#a71e70a8ecc08c35494b083076d2ace7b" target="_top" xlink:title="debug">
<polygon fill="none" stroke="black" points="820.5,-133.5 820.5,-152.5 863.5,-152.5 863.5,-133.5 820.5,-133.5"/>
<text text-anchor="middle" x="842" y="-140.5" font-family="FreeSans" font-size="10.00">debug</text>
</a>
</g>
</g>
<!-- Node8&#45;&gt;Node9 -->
<g id="edge8" class="edge"><title>Node8&#45;&gt;Node9</title>
<path fill="none" stroke="midnightblue" d="M760.132,-143C777.132,-143 795.311,-143 810.118,-143"/>
<polygon fill="midnightblue" stroke="midnightblue" points="810.239,-146.5 820.239,-143 810.239,-139.5 810.239,-146.5"/>
</g>
<!-- Node13 -->
<g id="node13" class="node"><title>Node13</title>
<g id="a_node13"><a xlink:href="../../d0/da0/classGeomSvc.html#a64fde7dce7f3df7cf534796d7da4ecdb" target="_top" xlink:title="GeomSvc::getDetectorName">
<polygon fill="none" stroke="black" points="635,-0.5 635,-19.5 775,-19.5 775,-0.5 635,-0.5"/>
<text text-anchor="middle" x="705" y="-7.5" font-family="FreeSans" font-size="10.00">GeomSvc::getDetectorName</text>
</a>
</g>
</g>
<!-- Node12&#45;&gt;Node13 -->
<g id="edge15" class="edge"><title>Node12&#45;&gt;Node13</title>
<path fill="none" stroke="midnightblue" d="M589.007,-10C600.455,-10 612.532,-10 624.384,-10"/>
<polygon fill="midnightblue" stroke="midnightblue" points="624.721,-13.5001 634.721,-10 624.721,-6.5001 624.721,-13.5001"/>
</g>
</g>
</svg>
