<?xml version="1.0" encoding="UTF-8" standalone="no"?>
<!DOCTYPE svg PUBLIC "-//W3C//DTD SVG 1.1//EN"
 "http://www.w3.org/Graphics/SVG/1.1/DTD/svg11.dtd">
<!-- Generated by graphviz version 2.40.1 (20161225.0304)
 -->
<!-- Title: evGetEventType Pages: 1 -->
<svg width="646pt" height="130pt"
 viewBox="0.00 0.00 646.00 130.27" xmlns="http://www.w3.org/2000/svg" xmlns:xlink="http://www.w3.org/1999/xlink">
<g id="graph0" class="graph" transform="scale(1 1) rotate(0) translate(4 126.2678)">
<title>evGetEventType</title>
<!-- Node86 -->
<g id="node1" class="node">
<title>Node86</title>
<polygon fill="#bfbfbf" stroke="#000000" points="0,-57.5 0,-76.5 87,-76.5 87,-57.5 0,-57.5"/>
<text text-anchor="middle" x="43.5" y="-64.5" font-family="FreeSans" font-size="10.00" fill="#000000">evGetEventType</text>
</g>
<!-- Node87 -->
<g id="node2" class="node">
<title>Node87</title>
<g id="a_node2"><a xlink:href="../../d9/dca/evio_8c.html#aa7c8f208e69fdafee6e63972be1b04bd" target="_top" xlink:title="evSearchWithinBlock">
<polygon fill="none" stroke="#000000" points="436,-48.5 436,-67.5 545,-67.5 545,-48.5 436,-48.5"/>
<text text-anchor="middle" x="490.5" y="-55.5" font-family="FreeSans" font-size="10.00" fill="#000000">evSearchWithinBlock</text>
</a>
</g>
</g>
<!-- Node86&#45;&gt;Node87 -->
<g id="edge1" class="edge">
<title>Node86&#45;&gt;Node87</title>
<path fill="none" stroke="#191970" d="M67.0671,-81.7079C82.3725,-90.3708 103.1086,-100.4904 123,-105 243.1276,-132.2341 280.0321,-123.9292 400,-96 426.389,-89.8565 454.9089,-76.6856 472.7331,-67.5865"/>
<polygon fill="#191970" stroke="#191970" points="68.6921,-78.6035 58.2952,-76.5654 65.1519,-84.6423 68.6921,-78.6035"/>
</g>
<!-- Node89 -->
<g id="node4" class="node">
<title>Node89</title>
<g id="a_node4"><a xlink:href="../../d9/dca/evio_8c.html#a93c27e92d297701d570d9526101bcb1a" target="_top" xlink:title="findLastEventWithinBlock">
<polygon fill="none" stroke="#000000" points="124,-76.5 124,-95.5 249,-95.5 249,-76.5 124,-76.5"/>
<text text-anchor="middle" x="186.5" y="-83.5" font-family="FreeSans" font-size="10.00" fill="#000000">findLastEventWithinBlock</text>
</a>
</g>
</g>
<!-- Node86&#45;&gt;Node89 -->
<g id="edge3" class="edge">
<title>Node86&#45;&gt;Node89</title>
<path fill="none" stroke="#191970" d="M97.1934,-74.1341C105.8978,-75.2906 114.9781,-76.4971 123.8724,-77.6788"/>
<polygon fill="#191970" stroke="#191970" points="97.5556,-70.6515 87.1817,-72.8039 96.6336,-77.5906 97.5556,-70.6515"/>
</g>
<!-- Node91 -->
<g id="node6" class="node">
<title>Node91</title>
<g id="a_node6"><a xlink:href="../../d9/dca/evio_8c.html#a81688fd8ecfa41ae1575c301cbe2189e" target="_top" xlink:title="isRealEventsInsideBlock">
<polygon fill="none" stroke="#000000" points="125.5,-.5 125.5,-19.5 247.5,-19.5 247.5,-.5 125.5,-.5"/>
<text text-anchor="middle" x="186.5" y="-7.5" font-family="FreeSans" font-size="10.00" fill="#000000">isRealEventsInsideBlock</text>
</a>
</g>
</g>
<!-- Node86&#45;&gt;Node91 -->
<g id="edge5" class="edge">
<title>Node86&#45;&gt;Node91</title>
<path fill="none" stroke="#191970" d="M70.7466,-52.6833C85.8847,-45.0599 105.2048,-35.8675 123,-29 131.9105,-25.5613 141.7181,-22.3551 150.9044,-19.5922"/>
<polygon fill="#191970" stroke="#191970" points="68.7742,-49.7605 61.4607,-57.4262 71.9583,-55.9944 68.7742,-49.7605"/>
</g>
<!-- Node93 -->
<g id="node8" class="node">
<title>Node93</title>
<g id="a_node8"><a xlink:href="../../d9/dca/evio_8c.html#aae5ac45ac550156c24414bb20a25816d" target="_top" xlink:title="physicsEventsInsideBlock">
<polygon fill="none" stroke="#000000" points="123,-38.5 123,-57.5 250,-57.5 250,-38.5 123,-38.5"/>
<text text-anchor="middle" x="186.5" y="-45.5" font-family="FreeSans" font-size="10.00" fill="#000000">physicsEventsInsideBlock</text>
</a>
</g>
</g>
<!-- Node86&#45;&gt;Node93 -->
<g id="edge8" class="edge">
<title>Node86&#45;&gt;Node93</title>
<path fill="none" stroke="#191970" d="M97.1793,-59.8678C105.5444,-58.7563 114.2571,-57.5987 122.8184,-56.4612"/>
<polygon fill="#191970" stroke="#191970" points="96.6336,-56.4094 87.1817,-61.1961 97.5556,-63.3485 96.6336,-56.4094"/>
</g>
<!-- Node88 -->
<g id="node3" class="node">
<title>Node88</title>
<g id="a_node3"><a xlink:href="../../d9/dca/evio_8c.html#a00c2c7f581e641b8b47637883ddb4333" target="_top" xlink:title="evSearch">
<polygon fill="none" stroke="#000000" points="581,-48.5 581,-67.5 638,-67.5 638,-48.5 581,-48.5"/>
<text text-anchor="middle" x="609.5" y="-55.5" font-family="FreeSans" font-size="10.00" fill="#000000">evSearch</text>
</a>
</g>
</g>
<!-- Node87&#45;&gt;Node88 -->
<g id="edge2" class="edge">
<title>Node87&#45;&gt;Node88</title>
<path fill="none" stroke="#191970" d="M555.2678,-58C564.2307,-58 573.0328,-58 580.8522,-58"/>
<polygon fill="#191970" stroke="#191970" points="555.124,-54.5001 545.124,-58 555.124,-61.5001 555.124,-54.5001"/>
</g>
<!-- Node90 -->
<g id="node5" class="node">
<title>Node90</title>
<g id="a_node5"><a xlink:href="../../d9/dca/evio_8c.html#a474d0f717485e2365cea6cd877db6819" target="_top" xlink:title="evOpenSearch">
<polygon fill="none" stroke="#000000" points="303,-67.5 303,-86.5 383,-86.5 383,-67.5 303,-67.5"/>
<text text-anchor="middle" x="343" y="-74.5" font-family="FreeSans" font-size="10.00" fill="#000000">evOpenSearch</text>
</a>
</g>
</g>
<!-- Node89&#45;&gt;Node90 -->
<g id="edge4" class="edge">
<title>Node89&#45;&gt;Node90</title>
<path fill="none" stroke="#191970" d="M259.4875,-81.8026C274.3684,-80.9469 289.5041,-80.0764 302.7291,-79.3159"/>
<polygon fill="#191970" stroke="#191970" points="259.0353,-78.3228 249.2528,-82.3912 259.4373,-85.3112 259.0353,-78.3228"/>
</g>
<!-- Node92 -->
<g id="node7" class="node">
<title>Node92</title>
<g id="a_node7"><a xlink:href="../../d9/dca/evio_8c.html#a87ff639b06fb7cfc16899255d4a504e2" target="_top" xlink:title="evFindEventBlockNum">
<polygon fill="none" stroke="#000000" points="286,-10.5 286,-29.5 400,-29.5 400,-10.5 286,-10.5"/>
<text text-anchor="middle" x="343" y="-17.5" font-family="FreeSans" font-size="10.00" fill="#000000">evFindEventBlockNum</text>
</a>
</g>
</g>
<!-- Node91&#45;&gt;Node92 -->
<g id="edge6" class="edge">
<title>Node91&#45;&gt;Node92</title>
<path fill="none" stroke="#191970" d="M257.9687,-14.5667C267.3147,-15.1639 276.7908,-15.7694 285.8581,-16.3488"/>
<polygon fill="#191970" stroke="#191970" points="258.1066,-11.0685 247.9038,-13.9236 257.6602,-18.0542 258.1066,-11.0685"/>
</g>
<!-- Node92&#45;&gt;Node87 -->
<g id="edge7" class="edge">
<title>Node92&#45;&gt;Node87</title>
<path fill="none" stroke="#191970" d="M390.0141,-32.1121C410.5566,-37.4044 434.2998,-43.5213 453.5472,-48.4799"/>
<polygon fill="#191970" stroke="#191970" points="390.7775,-28.6946 380.2205,-29.589 389.0311,-35.4732 390.7775,-28.6946"/>
</g>
<!-- Node93&#45;&gt;Node90 -->
<g id="edge9" class="edge">
<title>Node93&#45;&gt;Node90</title>
<path fill="none" stroke="#191970" d="M248.2122,-59.4355C266.5587,-62.8352 286.1762,-66.4703 302.7768,-69.5465"/>
<polygon fill="#191970" stroke="#191970" points="248.648,-55.9567 238.1777,-57.5761 247.3726,-62.8396 248.648,-55.9567"/>
</g>
</g>
</svg>
