<?xml version="1.0" encoding="UTF-8" standalone="no"?>
<!DOCTYPE svg PUBLIC "-//W3C//DTD SVG 1.1//EN"
 "http://www.w3.org/Graphics/SVG/1.1/DTD/svg11.dtd">
<!-- Generated by graphviz version 2.36.0 (20140111.2315)
 -->
<!-- Title: MapperScaler Pages: 1 -->
<svg width="134pt" height="246pt"
 viewBox="0.00 0.00 134.00 246.00" xmlns="http://www.w3.org/2000/svg" xmlns:xlink="http://www.w3.org/1999/xlink">
<g id="graph0" class="graph" transform="scale(1 1) rotate(0) translate(4 242)">
<title>MapperScaler</title>
<!-- Node1 -->
<g id="node1" class="node"><title>Node1</title>
<polygon fill="#bfbfbf" stroke="black" points="24.5,-0.5 24.5,-19.5 101.5,-19.5 101.5,-0.5 24.5,-0.5"/>
<text text-anchor="middle" x="63" y="-7.5" font-family="FreeSans" font-size="10.00">MapperScaler</text>
</g>
<!-- Node2 -->
<g id="node2" class="node"><title>Node2</title>
<polygon fill="none" stroke="#bfbfbf" points="-0.5,-69 -0.5,-99 126.5,-99 126.5,-69 -0.5,-69"/>
<text text-anchor="start" x="7.5" y="-87" font-family="FreeSans" font-size="10.00">std::map&lt; RocBoardChan</text>
<text text-anchor="middle" x="63" y="-76" font-family="FreeSans" font-size="10.00">_t, std::string &gt;</text>
</g>
<!-- Node2&#45;&gt;Node1 -->
<g id="edge1" class="edge"><title>Node2&#45;&gt;Node1</title>
<path fill="none" stroke="#9a32cd" stroke-dasharray="5,2" d="M63,-58.6883C63,-45.2526 63,-29.3805 63,-19.7589"/>
<polygon fill="#9a32cd" stroke="#9a32cd" points="59.5001,-58.7751 63,-68.7751 66.5001,-58.7752 59.5001,-58.7751"/>
<text text-anchor="middle" x="80.5" y="-41.5" font-family="FreeSans" font-size="10.00"> m_map</text>
</g>
<!-- Node3 -->
<g id="node3" class="node"><title>Node3</title>
<g id="a_node3"><a xlink:title="STL class. ">
<polygon fill="none" stroke="#bfbfbf" points="33.5,-148.5 33.5,-167.5 92.5,-167.5 92.5,-148.5 33.5,-148.5"/>
<text text-anchor="middle" x="63" y="-155.5" font-family="FreeSans" font-size="10.00">std::string</text>
</a>
</g>
</g>
<!-- Node3&#45;&gt;Node2 -->
<g id="edge2" class="edge"><title>Node3&#45;&gt;Node2</title>
<path fill="none" stroke="#9a32cd" stroke-dasharray="5,2" d="M63,-138.085C63,-125.915 63,-110.354 63,-99.2316"/>
<polygon fill="#9a32cd" stroke="#9a32cd" points="59.5001,-138.458 63,-148.458 66.5001,-138.458 59.5001,-138.458"/>
<text text-anchor="middle" x="84.5" y="-121.5" font-family="FreeSans" font-size="10.00"> elements</text>
</g>
<!-- Node4 -->
<g id="node4" class="node"><title>Node4</title>
<g id="a_node4"><a xlink:title="STL class. ">
<polygon fill="none" stroke="#bfbfbf" points="16.5,-207 16.5,-237 109.5,-237 109.5,-207 16.5,-207"/>
<text text-anchor="start" x="24.5" y="-225" font-family="FreeSans" font-size="10.00">std::basic_string&lt;</text>
<text text-anchor="middle" x="63" y="-214" font-family="FreeSans" font-size="10.00"> char &gt;</text>
</a>
</g>
</g>
<!-- Node4&#45;&gt;Node3 -->
<g id="edge3" class="edge"><title>Node4&#45;&gt;Node3</title>
<path fill="none" stroke="midnightblue" d="M63,-196.871C63,-186.663 63,-175.408 63,-167.842"/>
<polygon fill="midnightblue" stroke="midnightblue" points="59.5001,-196.931 63,-206.931 66.5001,-196.931 59.5001,-196.931"/>
</g>
</g>
</svg>
