<?xml version="1.0" encoding="UTF-8" standalone="no"?>
<!DOCTYPE svg PUBLIC "-//W3C//DTD SVG 1.1//EN"
 "http://www.w3.org/Graphics/SVG/1.1/DTD/svg11.dtd">
<!-- Generated by graphviz version 2.40.1 (20161225.0304)
 -->
<!-- Title: /home/yuhw/GitHub/SeaQuest/e1039&#45;core/online/onlmonserver/OnlMonServer.cc Pages: 1 -->
<svg width="611pt" height="330pt"
 viewBox="0.00 0.00 611.08 330.00" xmlns="http://www.w3.org/2000/svg" xmlns:xlink="http://www.w3.org/1999/xlink">
<g id="graph0" class="graph" transform="scale(1 1) rotate(0) translate(4 326)">
<title>/home/yuhw/GitHub/SeaQuest/e1039&#45;core/online/onlmonserver/OnlMonServer.cc</title>
<!-- Node0 -->
<g id="node1" class="node">
<title>Node0</title>
<polygon fill="#bfbfbf" stroke="#000000" points="161.0825,-280.5 161.0825,-321.5 317.0825,-321.5 317.0825,-280.5 161.0825,-280.5"/>
<text text-anchor="start" x="169.0825" y="-309.5" font-family="FreeSans" font-size="10.00" fill="#000000">/home/yuhw/GitHub/SeaQuest</text>
<text text-anchor="start" x="169.0825" y="-298.5" font-family="FreeSans" font-size="10.00" fill="#000000">/e1039&#45;core/online/onlmonserver</text>
<text text-anchor="middle" x="239.0825" y="-287.5" font-family="FreeSans" font-size="10.00" fill="#000000">/OnlMonServer.cc</text>
</g>
<!-- Node1 -->
<g id="node2" class="node">
<title>Node1</title>
<polygon fill="none" stroke="#bfbfbf" points="412.0825,-.5 412.0825,-19.5 452.0825,-19.5 452.0825,-.5 412.0825,-.5"/>
<text text-anchor="middle" x="432.0825" y="-7.5" font-family="FreeSans" font-size="10.00" fill="#000000">string</text>
</g>
<!-- Node0&#45;&gt;Node1 -->
<g id="edge1" class="edge">
<title>Node0&#45;&gt;Node1</title>
<path fill="none" stroke="#191970" d="M160.8227,-292.9764C91.4549,-281.0234 1.0825,-251.3715 1.0825,-178 1.0825,-178 1.0825,-178 1.0825,-122 1.0825,-91.4754 -3.2475,-75.6842 20.0825,-56 49.1883,-31.4426 311.7724,-16.0493 401.8872,-11.4525"/>
<polygon fill="#191970" stroke="#191970" points="402.1824,-14.9422 411.9945,-10.9455 401.8317,-7.951 402.1824,-14.9422"/>
</g>
<!-- Node2 -->
<g id="node3" class="node">
<title>Node2</title>
<polygon fill="none" stroke="#bfbfbf" points="29.0825,-56.5 29.0825,-75.5 79.0825,-75.5 79.0825,-56.5 29.0825,-56.5"/>
<text text-anchor="middle" x="54.0825" y="-63.5" font-family="FreeSans" font-size="10.00" fill="#000000">sstream</text>
</g>
<!-- Node0&#45;&gt;Node2 -->
<g id="edge2" class="edge">
<title>Node0&#45;&gt;Node2</title>
<path fill="none" stroke="#191970" d="M160.7966,-286.5596C134.9932,-278.1465 108.2775,-264.8812 90.0825,-244 50.46,-198.5279 49.9517,-121.6211 52.2258,-85.6501"/>
<polygon fill="#191970" stroke="#191970" points="55.7291,-85.7429 53.0159,-75.5013 48.7502,-85.1995 55.7291,-85.7429"/>
</g>
<!-- Node3 -->
<g id="node4" class="node">
<title>Node3</title>
<polygon fill="none" stroke="#bfbfbf" points="176.0825,-168.5 176.0825,-187.5 232.0825,-187.5 232.0825,-168.5 176.0825,-168.5"/>
<text text-anchor="middle" x="204.0825" y="-175.5" font-family="FreeSans" font-size="10.00" fill="#000000">pthread.h</text>
</g>
<!-- Node0&#45;&gt;Node3 -->
<g id="edge3" class="edge">
<title>Node0&#45;&gt;Node3</title>
<path fill="none" stroke="#191970" d="M160.958,-286.9226C137.0721,-278.5587 113.362,-265.2315 99.0825,-244 79.2827,-214.5607 128.4718,-195.6757 166.0427,-185.9547"/>
<polygon fill="#191970" stroke="#191970" points="166.9004,-189.3482 175.7791,-183.5673 165.2332,-182.5496 166.9004,-189.3482"/>
</g>
<!-- Node4 -->
<g id="node5" class="node">
<title>Node4</title>
<polygon fill="none" stroke="#bfbfbf" points="108.0825,-224.5 108.0825,-243.5 176.0825,-243.5 176.0825,-224.5 108.0825,-224.5"/>
<text text-anchor="middle" x="142.0825" y="-231.5" font-family="FreeSans" font-size="10.00" fill="#000000">TMessage.h</text>
</g>
<!-- Node0&#45;&gt;Node4 -->
<g id="edge4" class="edge">
<title>Node0&#45;&gt;Node4</title>
<path fill="none" stroke="#191970" d="M209.1878,-280.3511C194.8051,-270.4167 177.8495,-258.7051 164.5805,-249.5398"/>
<polygon fill="#191970" stroke="#191970" points="166.2773,-246.4581 156.0601,-243.6546 162.299,-252.2178 166.2773,-246.4581"/>
</g>
<!-- Node5 -->
<g id="node6" class="node">
<title>Node5</title>
<polygon fill="none" stroke="#bfbfbf" points="194.5825,-224.5 194.5825,-243.5 283.5825,-243.5 283.5825,-224.5 194.5825,-224.5"/>
<text text-anchor="middle" x="239.0825" y="-231.5" font-family="FreeSans" font-size="10.00" fill="#000000">TServerSocket.h</text>
</g>
<!-- Node0&#45;&gt;Node5 -->
<g id="edge5" class="edge">
<title>Node0&#45;&gt;Node5</title>
<path fill="none" stroke="#191970" d="M239.0825,-280.168C239.0825,-271.8226 239.0825,-262.2471 239.0825,-253.9879"/>
<polygon fill="#191970" stroke="#191970" points="242.5826,-253.7804 239.0825,-243.7805 235.5826,-253.7805 242.5826,-253.7804"/>
</g>
<!-- Node6 -->
<g id="node7" class="node">
<title>Node6</title>
<polygon fill="none" stroke="#bfbfbf" points="301.5825,-224.5 301.5825,-243.5 362.5825,-243.5 362.5825,-224.5 301.5825,-224.5"/>
<text text-anchor="middle" x="332.0825" y="-231.5" font-family="FreeSans" font-size="10.00" fill="#000000">TSocket.h</text>
</g>
<!-- Node0&#45;&gt;Node6 -->
<g id="edge6" class="edge">
<title>Node0&#45;&gt;Node6</title>
<path fill="none" stroke="#191970" d="M267.7444,-280.3511C281.534,-270.4167 297.7904,-258.7051 310.5123,-249.5398"/>
<polygon fill="#191970" stroke="#191970" points="312.6134,-252.3398 318.6813,-243.6546 308.5217,-246.6602 312.6134,-252.3398"/>
</g>
<!-- Node7 -->
<g id="node8" class="node">
<title>Node7</title>
<polygon fill="none" stroke="#bfbfbf" points="381.0825,-224.5 381.0825,-243.5 439.0825,-243.5 439.0825,-224.5 381.0825,-224.5"/>
<text text-anchor="middle" x="410.0825" y="-231.5" font-family="FreeSans" font-size="10.00" fill="#000000">TROOT.h</text>
</g>
<!-- Node0&#45;&gt;Node7 -->
<g id="edge7" class="edge">
<title>Node0&#45;&gt;Node7</title>
<path fill="none" stroke="#191970" d="M291.7834,-280.3511C319.2107,-269.6047 351.9456,-256.7788 376.0203,-247.346"/>
<polygon fill="#191970" stroke="#191970" points="377.4076,-250.5616 385.4415,-243.6546 374.8539,-244.044 377.4076,-250.5616"/>
</g>
<!-- Node8 -->
<g id="node9" class="node">
<title>Node8</title>
<polygon fill="none" stroke="#bfbfbf" points="457.0825,-224.5 457.0825,-243.5 499.0825,-243.5 499.0825,-224.5 457.0825,-224.5"/>
<text text-anchor="middle" x="478.0825" y="-231.5" font-family="FreeSans" font-size="10.00" fill="#000000">TH1.h</text>
</g>
<!-- Node0&#45;&gt;Node8 -->
<g id="edge8" class="edge">
<title>Node0&#45;&gt;Node8</title>
<path fill="none" stroke="#191970" d="M317.2878,-280.7737C354.2082,-270.9632 399.0526,-258.6737 447.1601,-244.1769"/>
<polygon fill="#191970" stroke="#191970" points="448.2688,-247.4982 456.8238,-241.2482 446.2385,-240.7991 448.2688,-247.4982"/>
</g>
<!-- Node9 -->
<g id="node10" class="node">
<title>Node9</title>
<g id="a_node10"><a xlink:href="../../d7/d8a/OnlMonServer_8h.html" target="_top" xlink:title="OnlMonServer.h">
<polygon fill="none" stroke="#000000" points="517.0825,-224.5 517.0825,-243.5 603.0825,-243.5 603.0825,-224.5 517.0825,-224.5"/>
<text text-anchor="middle" x="560.0825" y="-231.5" font-family="FreeSans" font-size="10.00" fill="#000000">OnlMonServer.h</text>
</a>
</g>
</g>
<!-- Node0&#45;&gt;Node9 -->
<g id="edge9" class="edge">
<title>Node0&#45;&gt;Node9</title>
<path fill="none" stroke="#191970" d="M317.1974,-284.6956C376.003,-272.4216 455.0524,-255.9222 506.7635,-245.1289"/>
<polygon fill="#191970" stroke="#191970" points="507.6532,-248.5187 516.7271,-243.0492 506.2229,-241.6664 507.6532,-248.5187"/>
</g>
<!-- Node9&#45;&gt;Node1 -->
<g id="edge10" class="edge">
<title>Node9&#45;&gt;Node1</title>
<path fill="none" stroke="#191970" d="M562.745,-224.3305C570.0669,-195.4942 587.5159,-108.8279 549.0825,-56 543.6715,-48.5624 494.6605,-30.9759 461.8121,-19.8301"/>
<polygon fill="#191970" stroke="#191970" points="462.7969,-16.4687 452.2028,-16.5962 460.5641,-23.1031 462.7969,-16.4687"/>
</g>
<!-- Node9&#45;&gt;Node3 -->
<g id="edge28" class="edge">
<title>Node9&#45;&gt;Node3</title>
<path fill="none" stroke="#191970" d="M516.9764,-225.5734C513.9689,-225.0277 510.9819,-224.4979 508.0825,-224 412.7452,-207.6266 300.0468,-191.3833 242.3417,-183.2907"/>
<polygon fill="#191970" stroke="#191970" points="242.6117,-179.7945 232.2235,-181.8764 241.6426,-186.7271 242.6117,-179.7945"/>
</g>
<!-- Node10 -->
<g id="node11" class="node">
<title>Node10</title>
<g id="a_node11"><a xlink:href="../../dc/da2/Fun4AllServer_8h.html" target="_top" xlink:title="fun4all/Fun4AllServer.h">
<polygon fill="none" stroke="#000000" points="329.0825,-168.5 329.0825,-187.5 445.0825,-187.5 445.0825,-168.5 329.0825,-168.5"/>
<text text-anchor="middle" x="387.0825" y="-175.5" font-family="FreeSans" font-size="10.00" fill="#000000">fun4all/Fun4AllServer.h</text>
</a>
</g>
</g>
<!-- Node9&#45;&gt;Node10 -->
<g id="edge11" class="edge">
<title>Node9&#45;&gt;Node10</title>
<path fill="none" stroke="#191970" d="M530.3427,-224.3733C501.5755,-215.0613 457.8125,-200.8953 426.2269,-190.671"/>
<polygon fill="#191970" stroke="#191970" points="427.026,-187.251 416.4342,-187.5011 424.8702,-193.9107 427.026,-187.251"/>
</g>
<!-- Node10&#45;&gt;Node1 -->
<g id="edge26" class="edge">
<title>Node10&#45;&gt;Node1</title>
<path fill="none" stroke="#191970" d="M405.9649,-168.3676C419.0525,-160.5389 435.4474,-148.1524 443.0825,-132 458.9075,-98.5215 448.1159,-54.1436 439.5944,-29.1817"/>
<polygon fill="#191970" stroke="#191970" points="442.8747,-27.9608 436.1655,-19.7609 436.2968,-30.3549 442.8747,-27.9608"/>
</g>
<!-- Node11 -->
<g id="node12" class="node">
<title>Node11</title>
<g id="a_node12"><a xlink:href="../../d2/de7/Fun4AllBase_8h.html" target="_top" xlink:title="Fun4AllBase.h">
<polygon fill="none" stroke="#000000" points="460.5825,-56.5 460.5825,-75.5 539.5825,-75.5 539.5825,-56.5 460.5825,-56.5"/>
<text text-anchor="middle" x="500.0825" y="-63.5" font-family="FreeSans" font-size="10.00" fill="#000000">Fun4AllBase.h</text>
</a>
</g>
</g>
<!-- Node10&#45;&gt;Node11 -->
<g id="edge12" class="edge">
<title>Node10&#45;&gt;Node11</title>
<path fill="none" stroke="#191970" d="M418.3973,-168.3781C437.3815,-161.1096 460.807,-149.3722 476.0825,-132 487.5175,-118.9954 493.6515,-100.1053 496.8468,-85.8633"/>
<polygon fill="#191970" stroke="#191970" points="500.3616,-86.122 498.8244,-75.6392 493.4889,-84.7925 500.3616,-86.122"/>
</g>
<!-- Node13 -->
<g id="node14" class="node">
<title>Node13</title>
<g id="a_node14"><a xlink:href="../../d0/d59/Fun4AllHistoManager_8h.html" target="_top" xlink:title="Fun4AllHistoManager.h">
<polygon fill="none" stroke="#000000" points="218.0825,-112.5 218.0825,-131.5 334.0825,-131.5 334.0825,-112.5 218.0825,-112.5"/>
<text text-anchor="middle" x="276.0825" y="-119.5" font-family="FreeSans" font-size="10.00" fill="#000000">Fun4AllHistoManager.h</text>
</a>
</g>
</g>
<!-- Node10&#45;&gt;Node13 -->
<g id="edge15" class="edge">
<title>Node10&#45;&gt;Node13</title>
<path fill="none" stroke="#191970" d="M368.0009,-168.3733C350.3423,-159.4644 323.8772,-146.1127 303.8727,-136.0203"/>
<polygon fill="#191970" stroke="#191970" points="305.4197,-132.8806 294.9151,-131.5011 302.2667,-139.1303 305.4197,-132.8806"/>
</g>
<!-- Node14 -->
<g id="node15" class="node">
<title>Node14</title>
<polygon fill="none" stroke="#bfbfbf" points="165.5825,-56.5 165.5825,-75.5 218.5825,-75.5 218.5825,-56.5 165.5825,-56.5"/>
<text text-anchor="middle" x="192.0825" y="-63.5" font-family="FreeSans" font-size="10.00" fill="#000000">iostream</text>
</g>
<!-- Node10&#45;&gt;Node14 -->
<g id="edge24" class="edge">
<title>Node10&#45;&gt;Node14</title>
<path fill="none" stroke="#191970" d="M329.0513,-169.5033C283.8185,-161.7303 225.9464,-148.8774 209.0825,-132 196.953,-119.8608 193.1107,-100.293 192.0587,-85.6098"/>
<polygon fill="#191970" stroke="#191970" points="195.5539,-85.4093 191.7071,-75.5375 188.5582,-85.6535 195.5539,-85.4093"/>
</g>
<!-- Node15 -->
<g id="node16" class="node">
<title>Node15</title>
<polygon fill="none" stroke="#bfbfbf" points="324.5825,-56.5 324.5825,-75.5 359.5825,-75.5 359.5825,-56.5 324.5825,-56.5"/>
<text text-anchor="middle" x="342.0825" y="-63.5" font-family="FreeSans" font-size="10.00" fill="#000000">map</text>
</g>
<!-- Node10&#45;&gt;Node15 -->
<g id="edge25" class="edge">
<title>Node10&#45;&gt;Node15</title>
<path fill="none" stroke="#191970" d="M383.2458,-168.4509C375.84,-150.0186 359.4498,-109.2254 349.7337,-85.043"/>
<polygon fill="#191970" stroke="#191970" points="352.8854,-83.499 345.9094,-75.5249 346.39,-86.1088 352.8854,-83.499"/>
</g>
<!-- Node16 -->
<g id="node17" class="node">
<title>Node16</title>
<g id="a_node17"><a xlink:href="../../dc/d26/PHTimer_8h.html" target="_top" xlink:title="high precision timer ">
<polygon fill="none" stroke="#000000" points="72.5825,-112.5 72.5825,-131.5 161.5825,-131.5 161.5825,-112.5 72.5825,-112.5"/>
<text text-anchor="middle" x="117.0825" y="-119.5" font-family="FreeSans" font-size="10.00" fill="#000000">phool/PHTimer.h</text>
</a>
</g>
</g>
<!-- Node10&#45;&gt;Node16 -->
<g id="edge20" class="edge">
<title>Node10&#45;&gt;Node16</title>
<path fill="none" stroke="#191970" d="M340.9746,-168.4369C294.0522,-158.7048 221.3386,-143.6235 171.5925,-133.3058"/>
<polygon fill="#191970" stroke="#191970" points="172.1563,-129.8483 161.6539,-131.2444 170.7347,-136.7024 172.1563,-129.8483"/>
</g>
<!-- Node18 -->
<g id="node19" class="node">
<title>Node18</title>
<polygon fill="none" stroke="#bfbfbf" points="390.5825,-112.5 390.5825,-131.5 433.5825,-131.5 433.5825,-112.5 390.5825,-112.5"/>
<text text-anchor="middle" x="412.0825" y="-119.5" font-family="FreeSans" font-size="10.00" fill="#000000">vector</text>
</g>
<!-- Node10&#45;&gt;Node18 -->
<g id="edge27" class="edge">
<title>Node10&#45;&gt;Node18</title>
<path fill="none" stroke="#191970" d="M391.4372,-168.2455C394.8069,-160.6973 399.5754,-150.0158 403.6808,-140.8197"/>
<polygon fill="#191970" stroke="#191970" points="406.8971,-142.2009 407.7777,-131.6427 400.5052,-139.3473 406.8971,-142.2009"/>
</g>
<!-- Node11&#45;&gt;Node1 -->
<g id="edge13" class="edge">
<title>Node11&#45;&gt;Node1</title>
<path fill="none" stroke="#191970" d="M488.2378,-56.2455C478.1945,-47.9746 463.583,-35.9416 451.7821,-26.2232"/>
<polygon fill="#191970" stroke="#191970" points="453.7358,-23.298 443.7914,-19.6427 449.2858,-28.7015 453.7358,-23.298"/>
</g>
<!-- Node12 -->
<g id="node13" class="node">
<title>Node12</title>
<polygon fill="none" stroke="#bfbfbf" points="478.0825,-.5 478.0825,-19.5 522.0825,-19.5 522.0825,-.5 478.0825,-.5"/>
<text text-anchor="middle" x="500.0825" y="-7.5" font-family="FreeSans" font-size="10.00" fill="#000000">climits</text>
</g>
<!-- Node11&#45;&gt;Node12 -->
<g id="edge14" class="edge">
<title>Node11&#45;&gt;Node12</title>
<path fill="none" stroke="#191970" d="M500.0825,-56.2455C500.0825,-48.9382 500.0825,-38.6944 500.0825,-29.7046"/>
<polygon fill="#191970" stroke="#191970" points="503.5826,-29.6426 500.0825,-19.6427 496.5826,-29.6427 503.5826,-29.6426"/>
</g>
<!-- Node13&#45;&gt;Node1 -->
<g id="edge19" class="edge">
<title>Node13&#45;&gt;Node1</title>
<path fill="none" stroke="#191970" d="M279.6954,-112.1195C285.3708,-97.8733 297.6635,-71.5687 316.0825,-56 341.095,-34.8581 377.0172,-22.6448 402.2422,-16.1876"/>
<polygon fill="#191970" stroke="#191970" points="403.0997,-19.5812 412.0029,-13.8381 401.4615,-12.7756 403.0997,-19.5812"/>
</g>
<!-- Node13&#45;&gt;Node11 -->
<g id="edge16" class="edge">
<title>Node13&#45;&gt;Node11</title>
<path fill="none" stroke="#191970" d="M314.3349,-112.4369C352.4292,-102.9133 411.0138,-88.2672 452.1812,-77.9753"/>
<polygon fill="#191970" stroke="#191970" points="453.1353,-81.3446 461.9878,-75.5237 451.4375,-74.5536 453.1353,-81.3446"/>
</g>
<!-- Node13&#45;&gt;Node14 -->
<g id="edge17" class="edge">
<title>Node13&#45;&gt;Node14</title>
<path fill="none" stroke="#191970" d="M261.4508,-112.2455C248.6831,-103.7337 229.9387,-91.2375 215.1526,-81.3801"/>
<polygon fill="#191970" stroke="#191970" points="216.8085,-78.2775 206.5465,-75.6427 212.9255,-84.1019 216.8085,-78.2775"/>
</g>
<!-- Node13&#45;&gt;Node15 -->
<g id="edge18" class="edge">
<title>Node13&#45;&gt;Node15</title>
<path fill="none" stroke="#191970" d="M287.5788,-112.2455C297.3267,-103.9746 311.5084,-91.9416 322.9623,-82.2232"/>
<polygon fill="#191970" stroke="#191970" points="325.3572,-84.7813 330.7179,-75.6427 320.8284,-79.4437 325.3572,-84.7813"/>
</g>
<!-- Node16&#45;&gt;Node2 -->
<g id="edge22" class="edge">
<title>Node16&#45;&gt;Node2</title>
<path fill="none" stroke="#191970" d="M106.1087,-112.2455C96.8943,-104.0549 83.5293,-92.1749 72.6528,-82.5069"/>
<polygon fill="#191970" stroke="#191970" points="74.7299,-79.6704 64.9305,-75.6427 70.0793,-84.9023 74.7299,-79.6704"/>
</g>
<!-- Node16&#45;&gt;Node14 -->
<g id="edge21" class="edge">
<title>Node16&#45;&gt;Node14</title>
<path fill="none" stroke="#191970" d="M130.1465,-112.2455C141.4387,-103.814 157.967,-91.4729 171.1096,-81.6598"/>
<polygon fill="#191970" stroke="#191970" points="173.2494,-84.4301 179.1682,-75.6427 169.0613,-78.8211 173.2494,-84.4301"/>
</g>
<!-- Node17 -->
<g id="node18" class="node">
<title>Node17</title>
<polygon fill="none" stroke="#bfbfbf" points="97.0825,-56.5 97.0825,-75.5 147.0825,-75.5 147.0825,-56.5 97.0825,-56.5"/>
<text text-anchor="middle" x="122.0825" y="-63.5" font-family="FreeSans" font-size="10.00" fill="#000000">unistd.h</text>
</g>
<!-- Node16&#45;&gt;Node17 -->
<g id="edge23" class="edge">
<title>Node16&#45;&gt;Node17</title>
<path fill="none" stroke="#191970" d="M117.9534,-112.2455C118.6059,-104.9382 119.5205,-94.6944 120.3231,-85.7046"/>
<polygon fill="#191970" stroke="#191970" points="123.8183,-85.9143 121.2215,-75.6427 116.846,-85.2918 123.8183,-85.9143"/>
</g>
</g>
</svg>
