<?xml version="1.0" encoding="UTF-8" standalone="no"?>
<!DOCTYPE svg PUBLIC "-//W3C//DTD SVG 1.1//EN"
 "http://www.w3.org/Graphics/SVG/1.1/DTD/svg11.dtd">
<!-- Generated by graphviz version 2.40.1 (20161225.0304)
 -->
<!-- Title: PHNode::write Pages: 1 -->
<svg width="1451pt" height="296pt"
 viewBox="0.00 0.00 1451.00 295.50" xmlns="http://www.w3.org/2000/svg" xmlns:xlink="http://www.w3.org/1999/xlink">
<g id="graph0" class="graph" transform="scale(1 1) rotate(0) translate(4 291.5)">
<title>PHNode::write</title>
<!-- Node650 -->
<g id="node1" class="node">
<title>Node650</title>
<polygon fill="#bfbfbf" stroke="#000000" points="0,-115.5 0,-134.5 77,-134.5 77,-115.5 0,-115.5"/>
<text text-anchor="middle" x="38.5" y="-122.5" font-family="FreeSans" font-size="10.00" fill="#000000">PHNode::write</text>
</g>
<!-- Node651 -->
<g id="node2" class="node">
<title>Node651</title>
<g id="a_node2"><a xlink:href="../../dc/d82/classPHNode.html#a5efaced7ccd6df01fc40abbb07dfe61d" target="_top" xlink:title="PHNode::setObjectType">
<polygon fill="none" stroke="#000000" points="115,-135.5 115,-154.5 234,-154.5 234,-135.5 115,-135.5"/>
<text text-anchor="middle" x="174.5" y="-142.5" font-family="FreeSans" font-size="10.00" fill="#000000">PHNode::setObjectType</text>
</a>
</g>
</g>
<!-- Node650&#45;&gt;Node651 -->
<g id="edge1" class="edge">
<title>Node650&#45;&gt;Node651</title>
<path fill="none" stroke="#191970" d="M87.06,-132.1412C96.0962,-133.47 105.6325,-134.8724 114.9535,-136.2432"/>
<polygon fill="#191970" stroke="#191970" points="87.5112,-128.67 77.1084,-130.6777 86.4927,-135.5955 87.5112,-128.67"/>
</g>
<!-- Node663 -->
<g id="node14" class="node">
<title>Node663</title>
<g id="a_node14"><a xlink:href="../../d5/dca/classPHCompositeNode.html#a774f54eea4fcb26e8b98f537efc1c6d9" target="_top" xlink:title="PHCompositeNode::write">
<polygon fill="none" stroke="#000000" points="113,-96.5 113,-115.5 236,-115.5 236,-96.5 113,-96.5"/>
<text text-anchor="middle" x="174.5" y="-103.5" font-family="FreeSans" font-size="10.00" fill="#000000">PHCompositeNode::write</text>
</a>
</g>
</g>
<!-- Node650&#45;&gt;Node663 -->
<g id="edge19" class="edge">
<title>Node650&#45;&gt;Node663</title>
<path fill="none" stroke="#191970" d="M87.0678,-118.2148C95.4384,-117.0454 104.2379,-115.816 112.8977,-114.6062"/>
<polygon fill="#191970" stroke="#191970" points="86.5279,-114.7561 77.1084,-119.6062 87.4965,-121.6888 86.5279,-114.7561"/>
</g>
<!-- Node652 -->
<g id="node3" class="node">
<title>Node652</title>
<g id="a_node3"><a xlink:href="../../d7/d4d/classPHNodeIOManager.html#a3882997324989c7dd04e9f6b728af7db" target="_top" xlink:title="PHNodeIOManager::reconstruct\lNodeTree">
<polygon fill="none" stroke="#000000" points="272,-132 272,-162 425,-162 425,-132 272,-132"/>
<text text-anchor="start" x="280" y="-150" font-family="FreeSans" font-size="10.00" fill="#000000">PHNodeIOManager::reconstruct</text>
<text text-anchor="middle" x="348.5" y="-139" font-family="FreeSans" font-size="10.00" fill="#000000">NodeTree</text>
</a>
</g>
</g>
<!-- Node651&#45;&gt;Node652 -->
<g id="edge2" class="edge">
<title>Node651&#45;&gt;Node652</title>
<path fill="none" stroke="#191970" d="M244.452,-145.804C253.4876,-145.9079 262.7785,-146.0147 271.914,-146.1197"/>
<polygon fill="#191970" stroke="#191970" points="244.4205,-142.3036 234.3809,-145.6883 244.34,-149.3031 244.4205,-142.3036"/>
</g>
<!-- Node653 -->
<g id="node4" class="node">
<title>Node653</title>
<g id="a_node4"><a xlink:href="../../d7/d4d/classPHNodeIOManager.html#a92da4bff2438e94d469011b7720f286f" target="_top" xlink:title="PHNodeIOManager::read">
<polygon fill="none" stroke="#000000" points="477.5,-205.5 477.5,-224.5 601.5,-224.5 601.5,-205.5 477.5,-205.5"/>
<text text-anchor="middle" x="539.5" y="-212.5" font-family="FreeSans" font-size="10.00" fill="#000000">PHNodeIOManager::read</text>
</a>
</g>
</g>
<!-- Node652&#45;&gt;Node653 -->
<g id="edge3" class="edge">
<title>Node652&#45;&gt;Node653</title>
<path fill="none" stroke="#191970" d="M400.3277,-165.4517C436.5668,-178.3536 483.4988,-195.0624 512.5458,-205.4037"/>
<polygon fill="#191970" stroke="#191970" points="401.4838,-162.1482 390.8891,-162.0914 399.1359,-168.7427 401.4838,-162.1482"/>
</g>
<!-- Node660 -->
<g id="node11" class="node">
<title>Node660</title>
<g id="a_node11"><a xlink:href="../../d7/d4d/classPHNodeIOManager.html#a8fe87c81674f4a7223b4801bee3ee124" target="_top" xlink:title="PHNodeIOManager::isFunctional">
<polygon fill="none" stroke="#000000" points="461,-137.5 461,-156.5 618,-156.5 618,-137.5 461,-137.5"/>
<text text-anchor="middle" x="539.5" y="-144.5" font-family="FreeSans" font-size="10.00" fill="#000000">PHNodeIOManager::isFunctional</text>
</a>
</g>
</g>
<!-- Node652&#45;&gt;Node660 -->
<g id="edge15" class="edge">
<title>Node652&#45;&gt;Node660</title>
<path fill="none" stroke="#191970" d="M435.3379,-147C443.7941,-147 452.3417,-147 460.7124,-147"/>
<polygon fill="#191970" stroke="#191970" points="435.0865,-143.5001 425.0865,-147 435.0864,-150.5001 435.0865,-143.5001"/>
</g>
<!-- Node654 -->
<g id="node5" class="node">
<title>Node654</title>
<g id="a_node5"><a xlink:href="../../d7/d0b/classFun4AllDstInputManager.html#a4d32eadb9f77d41387656b87377ef14f" target="_top" xlink:title="Fun4AllDstInputManager\l::fileopen">
<polygon fill="none" stroke="#000000" points="660,-156 660,-186 783,-186 783,-156 660,-156"/>
<text text-anchor="start" x="668" y="-174" font-family="FreeSans" font-size="10.00" fill="#000000">Fun4AllDstInputManager</text>
<text text-anchor="middle" x="721.5" y="-163" font-family="FreeSans" font-size="10.00" fill="#000000">::fileopen</text>
</a>
</g>
</g>
<!-- Node653&#45;&gt;Node654 -->
<g id="edge4" class="edge">
<title>Node653&#45;&gt;Node654</title>
<path fill="none" stroke="#191970" d="M588.7458,-203.0944C610.6627,-197.7958 636.7055,-191.4998 659.895,-185.8935"/>
<polygon fill="#191970" stroke="#191970" points="587.8888,-199.7007 578.9913,-205.4527 589.5338,-206.5047 587.8888,-199.7007"/>
</g>
<!-- Node657 -->
<g id="node8" class="node">
<title>Node657</title>
<g id="a_node8"><a xlink:href="../../d7/d0b/classFun4AllDstInputManager.html#ade26017b627e0e1f1ec0dec62ac7fd52" target="_top" xlink:title="Fun4AllDstInputManager\l::ReadNextEventSyncObject">
<polygon fill="none" stroke="#000000" points="986,-235 986,-265 1123,-265 1123,-235 986,-235"/>
<text text-anchor="start" x="994" y="-253" font-family="FreeSans" font-size="10.00" fill="#000000">Fun4AllDstInputManager</text>
<text text-anchor="middle" x="1054.5" y="-242" font-family="FreeSans" font-size="10.00" fill="#000000">::ReadNextEventSyncObject</text>
</a>
</g>
</g>
<!-- Node653&#45;&gt;Node657 -->
<g id="edge14" class="edge">
<title>Node653&#45;&gt;Node657</title>
<path fill="none" stroke="#191970" d="M611.6734,-221.5772C625.7079,-222.7787 640.3097,-223.975 654,-225 770.3659,-233.712 905.9119,-241.7262 985.7223,-246.226"/>
<polygon fill="#191970" stroke="#191970" points="611.8399,-218.0786 601.5754,-220.7037 611.2366,-225.0526 611.8399,-218.0786"/>
</g>
<!-- Node658 -->
<g id="node9" class="node">
<title>Node658</title>
<g id="a_node9"><a xlink:href="../../d7/d0b/classFun4AllDstInputManager.html#a0244c2edbaa2350038304b09f352c2d0" target="_top" xlink:title="Fun4AllDstInputManager\l::SyncIt">
<polygon fill="none" stroke="#000000" points="1161,-257 1161,-287 1284,-287 1284,-257 1161,-257"/>
<text text-anchor="start" x="1169" y="-275" font-family="FreeSans" font-size="10.00" fill="#000000">Fun4AllDstInputManager</text>
<text text-anchor="middle" x="1222.5" y="-264" font-family="FreeSans" font-size="10.00" fill="#000000">::SyncIt</text>
</a>
</g>
</g>
<!-- Node653&#45;&gt;Node658 -->
<g id="edge13" class="edge">
<title>Node653&#45;&gt;Node658</title>
<path fill="none" stroke="#191970" d="M583.0135,-227.1964C604.2697,-232.7544 630.313,-238.9766 654,-243 860.8531,-278.1354 915.2089,-278.2268 1125,-275 1136.5992,-274.8216 1148.9718,-274.5239 1160.8734,-274.1835"/>
<polygon fill="#191970" stroke="#191970" points="583.8664,-223.8016 573.303,-224.617 582.0693,-230.567 583.8664,-223.8016"/>
</g>
<!-- Node659 -->
<g id="node10" class="node">
<title>Node659</title>
<g id="a_node10"><a xlink:href="../../d7/d0b/classFun4AllDstInputManager.html#aeafa0248f9050c13fdae1bcb93336d7a" target="_top" xlink:title="Fun4AllDstInputManager::run">
<polygon fill="none" stroke="#000000" points="984,-196.5 984,-215.5 1125,-215.5 1125,-196.5 984,-196.5"/>
<text text-anchor="middle" x="1054.5" y="-203.5" font-family="FreeSans" font-size="10.00" fill="#000000">Fun4AllDstInputManager::run</text>
</a>
</g>
</g>
<!-- Node653&#45;&gt;Node659 -->
<g id="edge12" class="edge">
<title>Node653&#45;&gt;Node659</title>
<path fill="none" stroke="#191970" d="M611.7997,-213.7365C710.4643,-212.0123 886.1612,-208.9418 983.9208,-207.2334"/>
<polygon fill="#191970" stroke="#191970" points="611.5583,-210.2401 601.621,-213.9144 611.6807,-217.239 611.5583,-210.2401"/>
</g>
<!-- Node655 -->
<g id="node6" class="node">
<title>Node655</title>
<g id="a_node6"><a xlink:href="../../d7/d0b/classFun4AllDstInputManager.html#ae4e92b95ae50ab72856d06c99b043496" target="_top" xlink:title="Fun4AllDstInputManager\l::OpenNextFile">
<polygon fill="none" stroke="#000000" points="825,-156 825,-186 948,-186 948,-156 825,-156"/>
<text text-anchor="start" x="833" y="-174" font-family="FreeSans" font-size="10.00" fill="#000000">Fun4AllDstInputManager</text>
<text text-anchor="middle" x="886.5" y="-163" font-family="FreeSans" font-size="10.00" fill="#000000">::OpenNextFile</text>
</a>
</g>
</g>
<!-- Node654&#45;&gt;Node655 -->
<g id="edge5" class="edge">
<title>Node654&#45;&gt;Node655</title>
<path fill="none" stroke="#191970" d="M793.6829,-171C804.055,-171 814.6481,-171 824.7924,-171"/>
<polygon fill="#191970" stroke="#191970" points="793.4094,-167.5001 783.4094,-171 793.4093,-174.5001 793.4094,-167.5001"/>
</g>
<!-- Node656 -->
<g id="node7" class="node">
<title>Node656</title>
<g id="a_node7"><a xlink:href="../../d7/d0b/classFun4AllDstInputManager.html#a33ba8ba9d1dac601d13b03a5f19dead7" target="_top" xlink:title="Fun4AllDstInputManager\l::isOpen">
<polygon fill="none" stroke="#000000" points="1320,-213 1320,-243 1443,-243 1443,-213 1320,-213"/>
<text text-anchor="start" x="1328" y="-231" font-family="FreeSans" font-size="10.00" fill="#000000">Fun4AllDstInputManager</text>
<text text-anchor="middle" x="1381.5" y="-220" font-family="FreeSans" font-size="10.00" fill="#000000">::isOpen</text>
</a>
</g>
</g>
<!-- Node655&#45;&gt;Node656 -->
<g id="edge6" class="edge">
<title>Node655&#45;&gt;Node656</title>
<path fill="none" stroke="#191970" d="M958.5754,-174.1152C1005.9688,-176.5869 1069.2954,-180.6929 1125,-187 1191.8793,-194.5724 1267.9601,-207.2511 1319.7813,-216.5082"/>
<polygon fill="#191970" stroke="#191970" points="958.5747,-170.6107 948.4095,-173.5973 958.2185,-177.6017 958.5747,-170.6107"/>
</g>
<!-- Node655&#45;&gt;Node657 -->
<g id="edge7" class="edge">
<title>Node655&#45;&gt;Node657</title>
<path fill="none" stroke="#191970" d="M919.8137,-191.2458C938.3332,-202.0393 962.0162,-215.096 984,-225 991.8146,-228.5206 1000.2857,-231.8876 1008.5554,-234.9461"/>
<polygon fill="#191970" stroke="#191970" points="921.5599,-188.2123 911.1672,-186.1527 918.0071,-194.2438 921.5599,-188.2123"/>
</g>
<!-- Node655&#45;&gt;Node659 -->
<g id="edge11" class="edge">
<title>Node655&#45;&gt;Node659</title>
<path fill="none" stroke="#191970" d="M958.0926,-185.9151C975.2351,-189.4865 993.0825,-193.2047 1008.6939,-196.4571"/>
<polygon fill="#191970" stroke="#191970" points="958.6067,-182.4472 948.103,-183.834 957.179,-189.3 958.6067,-182.4472"/>
</g>
<!-- Node657&#45;&gt;Node656 -->
<g id="edge8" class="edge">
<title>Node657&#45;&gt;Node656</title>
<path fill="none" stroke="#191970" d="M1133.1576,-244.7081C1190.4799,-240.8515 1267.0477,-235.7002 1319.9375,-232.1418"/>
<polygon fill="#191970" stroke="#191970" points="1132.7924,-241.2246 1123.0499,-245.3881 1133.2623,-248.2088 1132.7924,-241.2246"/>
</g>
<!-- Node657&#45;&gt;Node658 -->
<g id="edge9" class="edge">
<title>Node657&#45;&gt;Node658</title>
<path fill="none" stroke="#191970" d="M1133.2851,-260.3171C1142.5218,-261.5267 1151.8428,-262.7473 1160.7993,-263.9201"/>
<polygon fill="#191970" stroke="#191970" points="1133.6866,-256.8399 1123.3168,-259.0117 1132.7776,-263.7806 1133.6866,-256.8399"/>
</g>
<!-- Node658&#45;&gt;Node656 -->
<g id="edge10" class="edge">
<title>Node658&#45;&gt;Node656</title>
<path fill="none" stroke="#191970" d="M1286.4719,-254.2971C1299.9733,-250.5608 1314.0965,-246.6525 1327.2008,-243.0262"/>
<polygon fill="#191970" stroke="#191970" points="1285.4784,-250.9404 1276.7741,-256.9808 1287.3454,-257.6869 1285.4784,-250.9404"/>
</g>
<!-- Node660&#45;&gt;Node654 -->
<g id="edge16" class="edge">
<title>Node660&#45;&gt;Node654</title>
<path fill="none" stroke="#191970" d="M621.8923,-157.8649C634.6962,-159.5533 647.7295,-161.272 659.9659,-162.8856"/>
<polygon fill="#191970" stroke="#191970" points="622.0644,-154.3574 611.6926,-156.5199 621.1492,-161.2973 622.0644,-154.3574"/>
</g>
<!-- Node661 -->
<g id="node12" class="node">
<title>Node661</title>
<g id="a_node12"><a xlink:href="../../da/daa/classFun4AllDstOutputManager.html#ab35afe1cb4af035c5a145fa4aef50809" target="_top" xlink:title="Fun4AllDstOutputManager\l::Fun4AllDstOutputManager">
<polygon fill="none" stroke="#000000" points="654,-107 654,-137 789,-137 789,-107 654,-107"/>
<text text-anchor="start" x="662" y="-125" font-family="FreeSans" font-size="10.00" fill="#000000">Fun4AllDstOutputManager</text>
<text text-anchor="middle" x="721.5" y="-114" font-family="FreeSans" font-size="10.00" fill="#000000">::Fun4AllDstOutputManager</text>
</a>
</g>
</g>
<!-- Node660&#45;&gt;Node661 -->
<g id="edge17" class="edge">
<title>Node660&#45;&gt;Node661</title>
<path fill="none" stroke="#191970" d="M618.9674,-136.0841C630.6053,-134.4855 642.499,-132.8518 653.8704,-131.2898"/>
<polygon fill="#191970" stroke="#191970" points="618.2562,-132.6489 608.8256,-137.4773 619.2089,-139.5838 618.2562,-132.6489"/>
</g>
<!-- Node662 -->
<g id="node13" class="node">
<title>Node662</title>
<g id="a_node13"><a xlink:href="../../da/daa/classFun4AllDstOutputManager.html#af198050f44463c4c11e305e1a156eb96" target="_top" xlink:title="opens output file ">
<polygon fill="none" stroke="#000000" points="656,-58 656,-88 787,-88 787,-58 656,-58"/>
<text text-anchor="start" x="664" y="-76" font-family="FreeSans" font-size="10.00" fill="#000000">Fun4AllDstOutputManager</text>
<text text-anchor="middle" x="721.5" y="-65" font-family="FreeSans" font-size="10.00" fill="#000000">::outfileopen</text>
</a>
</g>
</g>
<!-- Node660&#45;&gt;Node662 -->
<g id="edge18" class="edge">
<title>Node660&#45;&gt;Node662</title>
<path fill="none" stroke="#191970" d="M603.3088,-134.2201C608.3847,-132.4052 613.3438,-130.3424 618,-128 636.6056,-118.64 635.9747,-108.4339 654,-98 660.3811,-94.3063 667.4062,-90.9873 674.4396,-88.0664"/>
<polygon fill="#191970" stroke="#191970" points="601.8871,-131.0016 593.4526,-137.4133 604.0446,-137.6608 601.8871,-131.0016"/>
</g>
<!-- Node664 -->
<g id="node15" class="node">
<title>Node664</title>
<g id="a_node15"><a xlink:href="../../d7/d4d/classPHNodeIOManager.html#a436c3a21a9c6ea54a33ffcc9f2480949" target="_top" xlink:title="PHNodeIOManager::write">
<polygon fill="none" stroke="#000000" points="286,-93.5 286,-112.5 411,-112.5 411,-93.5 286,-93.5"/>
<text text-anchor="middle" x="348.5" y="-100.5" font-family="FreeSans" font-size="10.00" fill="#000000">PHNodeIOManager::write</text>
</a>
</g>
</g>
<!-- Node663&#45;&gt;Node664 -->
<g id="edge20" class="edge">
<title>Node663&#45;&gt;Node664</title>
<path fill="none" stroke="#191970" d="M246.68,-104.7555C259.73,-104.5305 273.2383,-104.2976 285.9835,-104.0779"/>
<polygon fill="#191970" stroke="#191970" points="246.274,-101.2619 236.3358,-104.9339 246.3947,-108.2609 246.274,-101.2619"/>
</g>
<!-- Node664&#45;&gt;Node660 -->
<g id="edge24" class="edge">
<title>Node664&#45;&gt;Node660</title>
<path fill="none" stroke="#191970" d="M400.0546,-114.8764C430.8219,-121.9642 469.3717,-130.8448 498.1367,-137.4713"/>
<polygon fill="#191970" stroke="#191970" points="400.4747,-111.3816 389.9442,-112.5473 398.9032,-118.203 400.4747,-111.3816"/>
</g>
<!-- Node665 -->
<g id="node16" class="node">
<title>Node665</title>
<g id="a_node16"><a xlink:href="../../da/daa/classFun4AllDstOutputManager.html#aa4b5b519c6db1540d03007c8c21436fc" target="_top" xlink:title="write starting from given node ">
<polygon fill="none" stroke="#000000" points="474,-88 474,-118 605,-118 605,-88 474,-88"/>
<text text-anchor="start" x="482" y="-106" font-family="FreeSans" font-size="10.00" fill="#000000">Fun4AllDstOutputManager</text>
<text text-anchor="middle" x="539.5" y="-95" font-family="FreeSans" font-size="10.00" fill="#000000">::Write</text>
</a>
</g>
</g>
<!-- Node664&#45;&gt;Node665 -->
<g id="edge21" class="edge">
<title>Node664&#45;&gt;Node665</title>
<path fill="none" stroke="#191970" d="M421.108,-103C438.4485,-103 456.859,-103 473.8647,-103"/>
<polygon fill="#191970" stroke="#191970" points="421.0406,-99.5001 411.0405,-103 421.0405,-106.5001 421.0406,-99.5001"/>
</g>
<!-- Node666 -->
<g id="node17" class="node">
<title>Node666</title>
<g id="a_node17"><a xlink:href="../../da/daa/classFun4AllDstOutputManager.html#ac839ec7d93dd52ca363c8307fa88cb94" target="_top" xlink:title="write specified node ">
<polygon fill="none" stroke="#000000" points="474,-39 474,-69 605,-69 605,-39 474,-39"/>
<text text-anchor="start" x="482" y="-57" font-family="FreeSans" font-size="10.00" fill="#000000">Fun4AllDstOutputManager</text>
<text text-anchor="middle" x="539.5" y="-46" font-family="FreeSans" font-size="10.00" fill="#000000">::WriteNode</text>
</a>
</g>
</g>
<!-- Node664&#45;&gt;Node666 -->
<g id="edge22" class="edge">
<title>Node664&#45;&gt;Node666</title>
<path fill="none" stroke="#191970" d="M395.6723,-90.8982C421.4228,-84.292 453.5389,-76.0529 480.8865,-69.037"/>
<polygon fill="#191970" stroke="#191970" points="394.5967,-87.5607 385.7801,-93.436 396.3362,-94.3412 394.5967,-87.5607"/>
</g>
<!-- Node667 -->
<g id="node18" class="node">
<title>Node667</title>
<g id="a_node18"><a xlink:href="../../d9/dde/classPHIODataNode.html#a85de85728a52af6aac318b64179ffd2f" target="_top" xlink:title="PHIODataNode::write">
<polygon fill="none" stroke="#000000" points="485.5,-.5 485.5,-19.5 593.5,-19.5 593.5,-.5 485.5,-.5"/>
<text text-anchor="middle" x="539.5" y="-7.5" font-family="FreeSans" font-size="10.00" fill="#000000">PHIODataNode::write</text>
</a>
</g>
</g>
<!-- Node664&#45;&gt;Node667 -->
<g id="edge23" class="edge">
<title>Node664&#45;&gt;Node667</title>
<path fill="none" stroke="#191970" d="M368.2262,-86.9534C389.785,-70.1787 425.9448,-44.2214 461,-29 469.746,-25.2024 479.3844,-22.0816 488.8241,-19.5462"/>
<polygon fill="#191970" stroke="#191970" points="365.8594,-84.3629 360.1879,-93.3119 370.2022,-89.853 365.8594,-84.3629"/>
</g>
</g>
</svg>
