<?xml version="1.0" encoding="UTF-8" standalone="no"?>
<!DOCTYPE svg PUBLIC "-//W3C//DTD SVG 1.1//EN"
 "http://www.w3.org/Graphics/SVG/1.1/DTD/svg11.dtd">
<!-- Generated by graphviz version 2.40.1 (20161225.0304)
 -->
<!-- Title: mTrkEveDisplay::hit_to_wire Pages: 1 -->
<svg width="281pt" height="142pt"
 viewBox="0.00 0.00 281.00 142.00" xmlns="http://www.w3.org/2000/svg" xmlns:xlink="http://www.w3.org/1999/xlink">
<g id="graph0" class="graph" transform="scale(1 1) rotate(0) translate(4 138)">
<title>mTrkEveDisplay::hit_to_wire</title>
<!-- Node107 -->
<g id="node1" class="node">
<title>Node107</title>
<polygon fill="#bfbfbf" stroke="#000000" points="0,-52 0,-82 101,-82 101,-52 0,-52"/>
<text text-anchor="start" x="8" y="-70" font-family="FreeSans" font-size="10.00" fill="#000000">mTrkEveDisplay::hit</text>
<text text-anchor="middle" x="50.5" y="-59" font-family="FreeSans" font-size="10.00" fill="#000000">_to_wire</text>
</g>
<!-- Node108 -->
<g id="node2" class="node">
<title>Node108</title>
<g id="a_node2"><a xlink:href="../../d0/da0/classGeomSvc.html#aac855df5e6cbd57fed93378361a5a8c8" target="_top" xlink:title="GeomSvc::getCostheta">
<polygon fill="none" stroke="#000000" points="147,-114.5 147,-133.5 263,-133.5 263,-114.5 147,-114.5"/>
<text text-anchor="middle" x="205" y="-121.5" font-family="FreeSans" font-size="10.00" fill="#000000">GeomSvc::getCostheta</text>
</a>
</g>
</g>
<!-- Node107&#45;&gt;Node108 -->
<g id="edge1" class="edge">
<title>Node107&#45;&gt;Node108</title>
<path fill="none" stroke="#191970" d="M82.106,-82.1711C98.2999,-89.6131 118.4647,-98.3767 137,-105 143.5145,-107.3279 150.4616,-109.5528 157.334,-111.607"/>
<polygon fill="#191970" stroke="#191970" points="156.7114,-115.0703 167.2901,-114.4866 158.6563,-108.3459 156.7114,-115.0703"/>
</g>
<!-- Node109 -->
<g id="node3" class="node">
<title>Node109</title>
<g id="a_node3"><a xlink:href="../../d0/da0/classGeomSvc.html#a5a50feb4de0351f6d3d739dbc66d6247" target="_top" xlink:title="Convert the detectorID and elementID to the actual hit position. ">
<polygon fill="none" stroke="#000000" points="137,-76.5 137,-95.5 273,-95.5 273,-76.5 137,-76.5"/>
<text text-anchor="middle" x="205" y="-83.5" font-family="FreeSans" font-size="10.00" fill="#000000">GeomSvc::getMeasurement</text>
</a>
</g>
</g>
<!-- Node107&#45;&gt;Node109 -->
<g id="edge2" class="edge">
<title>Node107&#45;&gt;Node109</title>
<path fill="none" stroke="#191970" d="M101.0891,-73.2213C109.3121,-74.2326 117.9945,-75.3003 126.6947,-76.3702"/>
<polygon fill="#191970" stroke="#191970" points="126.5373,-79.8771 136.8897,-77.624 127.3917,-72.9295 126.5373,-79.8771"/>
</g>
<!-- Node110 -->
<g id="node4" class="node">
<title>Node110</title>
<g id="a_node4"><a xlink:href="../../d0/da0/classGeomSvc.html#a1a48323dde70f8b33328028dc873ebe6" target="_top" xlink:title="GeomSvc::getPlane">
<polygon fill="none" stroke="#000000" points="154,-38.5 154,-57.5 256,-57.5 256,-38.5 154,-38.5"/>
<text text-anchor="middle" x="205" y="-45.5" font-family="FreeSans" font-size="10.00" fill="#000000">GeomSvc::getPlane</text>
</a>
</g>
</g>
<!-- Node107&#45;&gt;Node110 -->
<g id="edge3" class="edge">
<title>Node107&#45;&gt;Node110</title>
<path fill="none" stroke="#191970" d="M101.0891,-60.7787C114.6859,-59.1066 129.5387,-57.28 143.6514,-55.5445"/>
<polygon fill="#191970" stroke="#191970" points="144.2703,-58.9948 153.7683,-54.3003 143.4159,-52.0472 144.2703,-58.9948"/>
</g>
<!-- Node111 -->
<g id="node5" class="node">
<title>Node111</title>
<g id="a_node5"><a xlink:href="../../d0/da0/classGeomSvc.html#af5571d799f3660faf0b7889bb3dff217" target="_top" xlink:title="GeomSvc::getSintheta">
<polygon fill="none" stroke="#000000" points="148.5,-.5 148.5,-19.5 261.5,-19.5 261.5,-.5 148.5,-.5"/>
<text text-anchor="middle" x="205" y="-7.5" font-family="FreeSans" font-size="10.00" fill="#000000">GeomSvc::getSintheta</text>
</a>
</g>
</g>
<!-- Node107&#45;&gt;Node111 -->
<g id="edge4" class="edge">
<title>Node107&#45;&gt;Node111</title>
<path fill="none" stroke="#191970" d="M82.106,-51.8289C98.2999,-44.3869 118.4647,-35.6233 137,-29 143.5145,-26.6721 150.4616,-24.4472 157.334,-22.393"/>
<polygon fill="#191970" stroke="#191970" points="158.6563,-25.6541 167.2901,-19.5134 156.7114,-18.9297 158.6563,-25.6541"/>
</g>
</g>
</svg>
