<?xml version="1.0" encoding="UTF-8" standalone="no"?>
<!DOCTYPE svg PUBLIC "-//W3C//DTD SVG 1.1//EN"
 "http://www.w3.org/Graphics/SVG/1.1/DTD/svg11.dtd">
<!-- Generated by graphviz version 2.30.1 (20180413.0232)
 -->
<!-- Title: Fun4AllOutputManager::Print Pages: 1 -->
<svg width="924pt" height="1584pt"
 viewBox="0.00 0.00 924.00 1583.79" xmlns="http://www.w3.org/2000/svg" xmlns:xlink="http://www.w3.org/1999/xlink">
<g id="graph0" class="graph" transform="scale(1 1) rotate(0) translate(4 1579.79)">
<title>Fun4AllOutputManager::Print</title>
<!-- Node1 -->
<g id="node1" class="node"><title>Node1</title>
<polygon fill="#bfbfbf" stroke="black" points="0,-823 0,-853 116,-853 116,-823 0,-823"/>
<text text-anchor="start" x="8" y="-841" font-family="FreeSans" font-size="10.00">Fun4AllOutputManager</text>
<text text-anchor="middle" x="58" y="-830" font-family="FreeSans" font-size="10.00">::Print</text>
</g>
<!-- Node2 -->
<g id="node2" class="node"><title>Node2</title>
<g id="a_node2"><a xlink:href="../../da/daa/classFun4AllDstOutputManager.html#aabf3c98fd391310f0bd2b917213f6671" target="_top" xlink:title="print method (dump event selector) ">
<polygon fill="none" stroke="black" points="161.5,-897 161.5,-927 292.5,-927 292.5,-897 161.5,-897"/>
<text text-anchor="start" x="169.5" y="-915" font-family="FreeSans" font-size="10.00">Fun4AllDstOutputManager</text>
<text text-anchor="middle" x="227" y="-904" font-family="FreeSans" font-size="10.00">::Print</text>
</a>
</g>
</g>
<!-- Node1&#45;&gt;Node2 -->
<g id="edge1" class="edge"><title>Node1&#45;&gt;Node2</title>
<path fill="none" stroke="midnightblue" d="M94.0013,-858.135C111.165,-867.568 132.331,-878.559 152,-887 160.225,-890.529 169.127,-893.901 177.811,-896.961"/>
<polygon fill="midnightblue" stroke="midnightblue" points="95.3534,-854.882 84.9129,-853.081 91.9513,-861 95.3534,-854.882"/>
</g>
<!-- Node3 -->
<g id="node3" class="node"><title>Node3</title>
<g id="a_node3"><a xlink:href="../../d2/d4a/classFun4AllEventOutputManager.html#a2d0c494379ea20262ea11203096d0884" target="_top" xlink:title="print method (dump event selector) ">
<polygon fill="none" stroke="black" points="157,-848 157,-878 297,-878 297,-848 157,-848"/>
<text text-anchor="start" x="165" y="-866" font-family="FreeSans" font-size="10.00">Fun4AllEventOutputManager</text>
<text text-anchor="middle" x="227" y="-855" font-family="FreeSans" font-size="10.00">::Print</text>
</a>
</g>
</g>
<!-- Node1&#45;&gt;Node3 -->
<g id="edge2" class="edge"><title>Node1&#45;&gt;Node3</title>
<path fill="none" stroke="midnightblue" d="M126.015,-848.032C136.161,-849.551 146.646,-851.121 156.836,-852.646"/>
<polygon fill="midnightblue" stroke="midnightblue" points="126.413,-844.553 116.005,-846.534 125.376,-851.476 126.413,-844.553"/>
</g>
<!-- Node4 -->
<g id="node4" class="node"><title>Node4</title>
<g id="a_node4"><a xlink:href="../../d0/dec/classFun4AllHepMCOutputManager.html#ae757e05063e710a80aa993af065a15ce" target="_top" xlink:title="print method (dump event selector) ">
<polygon fill="none" stroke="black" points="152.5,-799 152.5,-829 301.5,-829 301.5,-799 152.5,-799"/>
<text text-anchor="start" x="160.5" y="-817" font-family="FreeSans" font-size="10.00">Fun4AllHepMCOutputManager</text>
<text text-anchor="middle" x="227" y="-806" font-family="FreeSans" font-size="10.00">::Print</text>
</a>
</g>
</g>
<!-- Node1&#45;&gt;Node4 -->
<g id="edge3" class="edge"><title>Node1&#45;&gt;Node4</title>
<path fill="none" stroke="midnightblue" d="M126.051,-828.364C134.726,-827.117 143.648,-825.835 152.421,-824.574"/>
<polygon fill="midnightblue" stroke="midnightblue" points="125.405,-824.921 116.005,-829.808 126.401,-831.849 125.405,-824.921"/>
</g>
<!-- Node5 -->
<g id="node5" class="node"><title>Node5</title>
<g id="a_node5"><a xlink:href="../../da/d29/classFun4AllServer.html#ae1b1a243ee1a67367c8da4ec3bdc003d" target="_top" xlink:title="Fun4AllServer::Print">
<polygon fill="none" stroke="black" points="176,-760.5 176,-779.5 278,-779.5 278,-760.5 176,-760.5"/>
<text text-anchor="middle" x="227" y="-767.5" font-family="FreeSans" font-size="10.00">Fun4AllServer::Print</text>
</a>
</g>
</g>
<!-- Node1&#45;&gt;Node5 -->
<g id="edge4" class="edge"><title>Node1&#45;&gt;Node5</title>
<path fill="none" stroke="midnightblue" d="M93.8281,-817.784C110.952,-808.43 132.134,-797.71 152,-790 162.297,-786.003 173.696,-782.496 184.4,-779.581"/>
<polygon fill="midnightblue" stroke="midnightblue" points="91.8125,-814.9 84.7668,-822.812 95.209,-821.02 91.8125,-814.9"/>
</g>
<!-- Node6 -->
<g id="node6" class="node"><title>Node6</title>
<g id="a_node6"><a xlink:href="../../da/d29/classFun4AllServer.html#afcfc5583204cac58b4e66a2406187a18" target="_top" xlink:title="Fun4AllServer::BeginRun">
<polygon fill="none" stroke="black" points="347,-779.5 347,-798.5 471,-798.5 471,-779.5 347,-779.5"/>
<text text-anchor="middle" x="409" y="-786.5" font-family="FreeSans" font-size="10.00">Fun4AllServer::BeginRun</text>
</a>
</g>
</g>
<!-- Node5&#45;&gt;Node6 -->
<g id="edge5" class="edge"><title>Node5&#45;&gt;Node6</title>
<path fill="none" stroke="midnightblue" d="M288.124,-776.346C307.04,-778.343 327.943,-780.55 346.925,-782.553"/>
<polygon fill="midnightblue" stroke="midnightblue" points="288.452,-772.862 278.14,-775.293 287.717,-779.823 288.452,-772.862"/>
</g>
<!-- Node50 -->
<g id="node50" class="node"><title>Node50</title>
<g id="a_node50"><a xlink:href="../../df/d41/classPHEveDisplay.html#a7277b7998bff90aa84bdc066e6cbbb6a" target="_top" xlink:title="PHEveDisplay::PHEveDisplay">
<polygon fill="none" stroke="black" points="338.5,-741.5 338.5,-760.5 479.5,-760.5 479.5,-741.5 338.5,-741.5"/>
<text text-anchor="middle" x="409" y="-748.5" font-family="FreeSans" font-size="10.00">PHEveDisplay::PHEveDisplay</text>
</a>
</g>
</g>
<!-- Node5&#45;&gt;Node50 -->
<g id="edge55" class="edge"><title>Node5&#45;&gt;Node50</title>
<path fill="none" stroke="midnightblue" d="M288.429,-763.621C304.432,-761.932 321.837,-760.095 338.289,-758.358"/>
<polygon fill="midnightblue" stroke="midnightblue" points="287.717,-760.177 278.14,-764.707 288.452,-767.138 287.717,-760.177"/>
</g>
<!-- Node7 -->
<g id="node7" class="node"><title>Node7</title>
<g id="a_node7"><a xlink:href="../../da/d29/classFun4AllServer.html#a11bbc8b2f53bc06e0b05ee202dd6372a" target="_top" xlink:title="run n events (0 means up to end of file) ">
<polygon fill="none" stroke="black" points="516.5,-779.5 516.5,-798.5 611.5,-798.5 611.5,-779.5 516.5,-779.5"/>
<text text-anchor="middle" x="564" y="-786.5" font-family="FreeSans" font-size="10.00">Fun4AllServer::run</text>
</a>
</g>
</g>
<!-- Node6&#45;&gt;Node7 -->
<g id="edge6" class="edge"><title>Node6&#45;&gt;Node7</title>
<path fill="none" stroke="midnightblue" d="M481.617,-789C493.377,-789 505.292,-789 516.244,-789"/>
<polygon fill="midnightblue" stroke="midnightblue" points="481.349,-785.5 471.349,-789 481.349,-792.5 481.349,-785.5"/>
</g>
<!-- Node8 -->
<g id="node8" class="node"><title>Node8</title>
<g id="a_node8"><a xlink:href="../../da/daa/Fun4RealDst_8C.html#af2bc551d71266cd8c5a6daeea6a861d8" target="_top" xlink:title="Fun4MainDaq.C: Fun4all macro to decode the MainDAQ data. ">
<polygon fill="none" stroke="black" points="831,-1555.5 831,-1574.5 903,-1574.5 903,-1555.5 831,-1555.5"/>
<text text-anchor="middle" x="867" y="-1562.5" font-family="FreeSans" font-size="10.00">Fun4RealDst</text>
</a>
</g>
</g>
<!-- Node7&#45;&gt;Node8 -->
<g id="edge7" class="edge"><title>Node7&#45;&gt;Node8</title>
<path fill="none" stroke="midnightblue" d="M565.796,-808.999C570.487,-922.186 596.111,-1479.28 648,-1533 695.306,-1581.97 782.221,-1578.31 830.794,-1571.54"/>
<polygon fill="midnightblue" stroke="midnightblue" points="569.28,-808.542 565.376,-798.692 562.286,-808.827 569.28,-808.542"/>
</g>
<!-- Node9 -->
<g id="node9" class="node"><title>Node9</title>
<g id="a_node9"><a xlink:href="../../da/daa/Fun4RealDst_8C.html#aa80eadb6952b5d52a756d7cf52d05770" target="_top" xlink:title="Function to analyze multiple DST files. ">
<polygon fill="none" stroke="black" points="820.5,-1331.5 820.5,-1350.5 913.5,-1350.5 913.5,-1331.5 820.5,-1331.5"/>
<text text-anchor="middle" x="867" y="-1338.5" font-family="FreeSans" font-size="10.00">Fun4MultiRealDst</text>
</a>
</g>
</g>
<!-- Node7&#45;&gt;Node9 -->
<g id="edge8" class="edge"><title>Node7&#45;&gt;Node9</title>
<path fill="none" stroke="midnightblue" d="M564.991,-809.128C565.399,-897.456 571.846,-1249.52 648,-1321 695.386,-1365.48 776.735,-1359.46 825.532,-1350.56"/>
<polygon fill="midnightblue" stroke="midnightblue" points="568.49,-808.867 564.967,-798.875 561.49,-808.884 568.49,-808.867"/>
</g>
<!-- Node10 -->
<g id="node10" class="node"><title>Node10</title>
<g id="a_node10"><a xlink:href="../../db/dba/Fun4SimDst_8C.html#abf0708efff889232b6c0a7359cfb70ae" target="_top" xlink:title="Fun4SimDst.C: Fun4all macro to analyze the E1039 simulated DST files. ">
<polygon fill="none" stroke="black" points="680,-1292.5 680,-1311.5 750,-1311.5 750,-1292.5 680,-1292.5"/>
<text text-anchor="middle" x="715" y="-1299.5" font-family="FreeSans" font-size="10.00">Fun4SimDst</text>
</a>
</g>
</g>
<!-- Node7&#45;&gt;Node10 -->
<g id="edge9" class="edge"><title>Node7&#45;&gt;Node10</title>
<path fill="none" stroke="midnightblue" d="M565.6,-808.952C568.505,-892.212 583.719,-1210.95 648,-1283 656.097,-1292.08 668.219,-1296.93 679.874,-1299.5"/>
<polygon fill="midnightblue" stroke="midnightblue" points="569.094,-808.697 565.268,-798.817 562.098,-808.926 569.094,-808.697"/>
</g>
<!-- Node11 -->
<g id="node11" class="node"><title>Node11</title>
<g id="a_node11"><a xlink:href="../../d6/dac/Fun4SimMicroDst_8C.html#ab980c780491ded824d61247fc1fa6127" target="_top" xlink:title="Fun4SimMicroDst.C: Fun4all macro to analyze you uDST. ">
<polygon fill="none" stroke="black" points="668,-1254.5 668,-1273.5 762,-1273.5 762,-1254.5 668,-1254.5"/>
<text text-anchor="middle" x="715" y="-1261.5" font-family="FreeSans" font-size="10.00">Fun4SimMicroDst</text>
</a>
</g>
</g>
<!-- Node7&#45;&gt;Node11 -->
<g id="edge10" class="edge"><title>Node7&#45;&gt;Node11</title>
<path fill="none" stroke="midnightblue" d="M565.904,-808.919C569.894,-888.06 588.451,-1179.16 648,-1245 653.359,-1250.92 660.433,-1255.05 667.959,-1257.91"/>
<polygon fill="midnightblue" stroke="midnightblue" points="569.396,-808.652 565.418,-798.832 562.404,-808.989 569.396,-808.652"/>
</g>
<!-- Node12 -->
<g id="node12" class="node"><title>Node12</title>
<g id="a_node12"><a xlink:href="../../d3/da6/Fun4Sim__TrkQA_8C.html#a20f55f3330ca74980c4c35261d0761f8" target="_top" xlink:title="Fun4Sim_TrkQA">
<polygon fill="none" stroke="black" points="670.5,-1216.5 670.5,-1235.5 759.5,-1235.5 759.5,-1216.5 670.5,-1216.5"/>
<text text-anchor="middle" x="715" y="-1223.5" font-family="FreeSans" font-size="10.00">Fun4Sim_TrkQA</text>
</a>
</g>
</g>
<!-- Node7&#45;&gt;Node12 -->
<g id="edge11" class="edge"><title>Node7&#45;&gt;Node12</title>
<path fill="none" stroke="midnightblue" d="M566.279,-809.144C571.452,-884.347 593.229,-1147.41 648,-1207 653.971,-1213.5 662.004,-1217.82 670.41,-1220.7"/>
<polygon fill="midnightblue" stroke="midnightblue" points="569.744,-808.493 565.589,-798.747 562.759,-808.957 569.744,-808.493"/>
</g>
<!-- Node13 -->
<g id="node13" class="node"><title>Node13</title>
<g id="a_node13"><a xlink:href="../../db/dbe/Fun4CODA_8C.html#a1bbee777074605aa2a59ddf9b2b52742" target="_top" xlink:title="Fun4CODA">
<polygon fill="none" stroke="black" points="834,-1512.5 834,-1531.5 900,-1531.5 900,-1512.5 834,-1512.5"/>
<text text-anchor="middle" x="867" y="-1519.5" font-family="FreeSans" font-size="10.00">Fun4CODA</text>
</a>
</g>
</g>
<!-- Node7&#45;&gt;Node13 -->
<g id="edge12" class="edge"><title>Node7&#45;&gt;Node13</title>
<path fill="none" stroke="midnightblue" d="M565.852,-808.858C570.762,-918.932 597.032,-1451.04 648,-1501 697.284,-1549.31 786.264,-1539.67 833.88,-1529.97"/>
<polygon fill="midnightblue" stroke="midnightblue" points="569.335,-808.387 565.4,-798.55 562.341,-808.694 569.335,-808.387"/>
</g>
<!-- Node14 -->
<g id="node14" class="node"><title>Node14</title>
<g id="a_node14"><a xlink:href="../../de/daf/Fun4DST_8C.html#a6a43c5ad028285b022976fa872e60cbc" target="_top" xlink:title="Fun4DST">
<polygon fill="none" stroke="black" points="838,-1465.5 838,-1484.5 896,-1484.5 896,-1465.5 838,-1465.5"/>
<text text-anchor="middle" x="867" y="-1472.5" font-family="FreeSans" font-size="10.00">Fun4DST</text>
</a>
</g>
</g>
<!-- Node7&#45;&gt;Node14 -->
<g id="edge13" class="edge"><title>Node7&#45;&gt;Node14</title>
<path fill="none" stroke="midnightblue" d="M565.877,-808.825C570.837,-916.449 596.971,-1427.37 648,-1473 701.183,-1520.56 794.241,-1499.16 839.617,-1484.58"/>
<polygon fill="midnightblue" stroke="midnightblue" points="569.368,-808.541 565.419,-798.709 562.375,-808.857 569.368,-808.541"/>
</g>
<!-- Node15 -->
<g id="node15" class="node"><title>Node15</title>
<g id="a_node15"><a xlink:href="../../d2/d24/Fun4E1039Shielding_8C.html#a42592782dd55d6e219305ff678a00dc2" target="_top" xlink:title="Fun4E1039Shielding">
<polygon fill="none" stroke="black" points="662.5,-1178.5 662.5,-1197.5 767.5,-1197.5 767.5,-1178.5 662.5,-1178.5"/>
<text text-anchor="middle" x="715" y="-1185.5" font-family="FreeSans" font-size="10.00">Fun4E1039Shielding</text>
</a>
</g>
</g>
<!-- Node7&#45;&gt;Node15 -->
<g id="edge14" class="edge"><title>Node7&#45;&gt;Node15</title>
<path fill="none" stroke="midnightblue" d="M566.669,-808.661C573.01,-878.806 597.818,-1115.43 648,-1169 652.076,-1173.35 657.077,-1176.73 662.487,-1179.34"/>
<polygon fill="midnightblue" stroke="midnightblue" points="570.143,-808.21 565.781,-798.555 563.17,-808.823 570.143,-808.21"/>
</g>
<!-- Node16 -->
<g id="node16" class="node"><title>Node16</title>
<g id="a_node16"><a xlink:href="../../d1/da2/E1039Shielding_2int__run_8C.html#a088590a1a5b93b904ba076de8ca1ef82" target="_top" xlink:title="int_run">
<polygon fill="none" stroke="black" points="692,-1140.5 692,-1159.5 738,-1159.5 738,-1140.5 692,-1140.5"/>
<text text-anchor="middle" x="715" y="-1147.5" font-family="FreeSans" font-size="10.00">int_run</text>
</a>
</g>
</g>
<!-- Node7&#45;&gt;Node16 -->
<g id="edge15" class="edge"><title>Node7&#45;&gt;Node16</title>
<path fill="none" stroke="midnightblue" d="M567.198,-808.78C574.876,-874.42 602.529,-1083.57 648,-1131 659.305,-1142.79 677.412,-1147.4 691.803,-1149.14"/>
<polygon fill="midnightblue" stroke="midnightblue" points="570.645,-808.112 566.032,-798.574 563.69,-808.907 570.645,-808.112"/>
</g>
<!-- Node17 -->
<g id="node17" class="node"><title>Node17</title>
<g id="a_node17"><a xlink:href="../../df/dbc/run_8C.html#a078d38b1d96e7c0e4f35d93363cc8325" target="_top" xlink:title="run">
<polygon fill="none" stroke="red" points="700,-1444.5 700,-1463.5 730,-1463.5 730,-1444.5 700,-1444.5"/>
<text text-anchor="middle" x="715" y="-1451.5" font-family="FreeSans" font-size="10.00">run</text>
</a>
</g>
</g>
<!-- Node7&#45;&gt;Node17 -->
<g id="edge16" class="edge"><title>Node7&#45;&gt;Node17</title>
<path fill="none" stroke="midnightblue" d="M564.887,-808.879C564.722,-906.108 568.617,-1330.9 648,-1430 660.654,-1445.8 684.648,-1451.2 699.955,-1453.04"/>
<polygon fill="midnightblue" stroke="midnightblue" points="568.387,-808.701 564.922,-798.689 561.387,-808.677 568.387,-808.701"/>
</g>
<!-- Node20 -->
<g id="node20" class="node"><title>Node20</title>
<g id="a_node20"><a xlink:href="../../d4/d6b/Fun4DQ_8C.html#ade50123660c824c610022429d0847486" target="_top" xlink:title="Fun4DQ">
<polygon fill="none" stroke="black" points="688.5,-1102.5 688.5,-1121.5 741.5,-1121.5 741.5,-1102.5 688.5,-1102.5"/>
<text text-anchor="middle" x="715" y="-1109.5" font-family="FreeSans" font-size="10.00">Fun4DQ</text>
</a>
</g>
</g>
<!-- Node7&#45;&gt;Node20 -->
<g id="edge23" class="edge"><title>Node7&#45;&gt;Node20</title>
<path fill="none" stroke="midnightblue" d="M564.228,-808.698C563.252,-862.283 568.184,-1012.08 648,-1093 658.55,-1103.7 674.703,-1108.47 688.388,-1110.55"/>
<polygon fill="midnightblue" stroke="midnightblue" points="567.732,-808.616 564.511,-798.522 560.734,-808.421 567.732,-808.616"/>
</g>
<!-- Node21 -->
<g id="node21" class="node"><title>Node21</title>
<g id="a_node21"><a xlink:href="../../db/d2f/Fun4EMCal_8C.html#a7559861c26cbabfa3e4349440d5af51b" target="_top" xlink:title="Fun4EMCal">
<polygon fill="none" stroke="black" points="681.5,-1064.5 681.5,-1083.5 748.5,-1083.5 748.5,-1064.5 681.5,-1064.5"/>
<text text-anchor="middle" x="715" y="-1071.5" font-family="FreeSans" font-size="10.00">Fun4EMCal</text>
</a>
</g>
</g>
<!-- Node7&#45;&gt;Node21 -->
<g id="edge24" class="edge"><title>Node7&#45;&gt;Node21</title>
<path fill="none" stroke="midnightblue" d="M565.147,-808.828C566.618,-857.885 577.402,-985.949 648,-1055 656.865,-1063.67 669.42,-1068.43 681.203,-1071.03"/>
<polygon fill="midnightblue" stroke="midnightblue" points="568.642,-808.553 564.946,-798.624 561.643,-808.691 568.642,-808.553"/>
</g>
<!-- Node22 -->
<g id="node22" class="node"><title>Node22</title>
<g id="a_node22"><a xlink:href="../../d6/d6a/Fun4HodoAccGap_8C.html#a7aaa0687f144d5e7b417d7e9ac5f36da" target="_top" xlink:title="Fun4HodoAccGap">
<polygon fill="none" stroke="black" points="667,-1026.5 667,-1045.5 763,-1045.5 763,-1026.5 667,-1026.5"/>
<text text-anchor="middle" x="715" y="-1033.5" font-family="FreeSans" font-size="10.00">Fun4HodoAccGap</text>
</a>
</g>
</g>
<!-- Node7&#45;&gt;Node22 -->
<g id="edge25" class="edge"><title>Node7&#45;&gt;Node22</title>
<path fill="none" stroke="midnightblue" d="M566.359,-808.954C570.457,-853.091 586.529,-959.62 648,-1017 653.317,-1021.96 659.847,-1025.64 666.711,-1028.36"/>
<polygon fill="midnightblue" stroke="midnightblue" points="569.842,-808.601 565.539,-798.92 562.866,-809.171 569.842,-808.601"/>
</g>
<!-- Node23 -->
<g id="node23" class="node"><title>Node23</title>
<g id="a_node23"><a xlink:href="../../de/d66/Fun4Pythia8Demo_8C.html#a6a06be36766511c5ad76013c9cbfe5b5" target="_top" xlink:title="Fun4Pythia8Demo">
<polygon fill="none" stroke="black" points="667,-988.5 667,-1007.5 763,-1007.5 763,-988.5 667,-988.5"/>
<text text-anchor="middle" x="715" y="-995.5" font-family="FreeSans" font-size="10.00">Fun4Pythia8Demo</text>
</a>
</g>
</g>
<!-- Node7&#45;&gt;Node23 -->
<g id="edge26" class="edge"><title>Node7&#45;&gt;Node23</title>
<path fill="none" stroke="midnightblue" d="M567.924,-808.476C574.733,-846.911 595.273,-932.79 648,-979 653.47,-983.794 660.081,-987.382 666.978,-990.067"/>
<polygon fill="midnightblue" stroke="midnightblue" points="571.37,-807.863 566.291,-798.565 564.463,-809 571.37,-807.863"/>
</g>
<!-- Node24 -->
<g id="node24" class="node"><title>Node24</title>
<g id="a_node24"><a xlink:href="../../d5/dcc/splitDST_8C.html#a4903aee6c2f9833d2e9903f991e084ec" target="_top" xlink:title="splitDST">
<polygon fill="none" stroke="black" points="688.5,-950.5 688.5,-969.5 741.5,-969.5 741.5,-950.5 688.5,-950.5"/>
<text text-anchor="middle" x="715" y="-957.5" font-family="FreeSans" font-size="10.00">splitDST</text>
</a>
</g>
</g>
<!-- Node7&#45;&gt;Node24 -->
<g id="edge27" class="edge"><title>Node7&#45;&gt;Node24</title>
<path fill="none" stroke="midnightblue" d="M570.284,-808.533C580.073,-840.97 604.138,-905.845 648,-941 659.444,-950.172 675.127,-954.917 688.334,-957.371"/>
<polygon fill="midnightblue" stroke="midnightblue" points="573.531,-807.161 567.407,-798.515 566.803,-809.093 573.531,-807.161"/>
</g>
<!-- Node25 -->
<g id="node25" class="node"><title>Node25</title>
<g id="a_node25"><a xlink:href="../../db/dea/RecoE1039Data_8C.html#a619388c470b52b98a611cb6f18ba24c1" target="_top" xlink:title="RecoE1039Data">
<polygon fill="none" stroke="black" points="672,-912.5 672,-931.5 758,-931.5 758,-912.5 672,-912.5"/>
<text text-anchor="middle" x="715" y="-919.5" font-family="FreeSans" font-size="10.00">RecoE1039Data</text>
</a>
</g>
</g>
<!-- Node7&#45;&gt;Node25 -->
<g id="edge28" class="edge"><title>Node7&#45;&gt;Node25</title>
<path fill="none" stroke="midnightblue" d="M573.767,-807.914C586.515,-833.335 612.573,-878.192 648,-903 655.13,-907.993 663.56,-911.683 671.97,-914.408"/>
<polygon fill="midnightblue" stroke="midnightblue" points="576.773,-806.092 569.266,-798.616 570.473,-809.142 576.773,-806.092"/>
</g>
<!-- Node26 -->
<g id="node26" class="node"><title>Node26</title>
<g id="a_node26"><a xlink:href="../../d0/d9c/RecoE1039Sim_8C.html#a7505ed22de28394b320e370de5caa6c3" target="_top" xlink:title="RecoE1039Sim">
<polygon fill="none" stroke="black" points="673.5,-874.5 673.5,-893.5 756.5,-893.5 756.5,-874.5 673.5,-874.5"/>
<text text-anchor="middle" x="715" y="-881.5" font-family="FreeSans" font-size="10.00">RecoE1039Sim</text>
</a>
</g>
</g>
<!-- Node7&#45;&gt;Node26 -->
<g id="edge29" class="edge"><title>Node7&#45;&gt;Node26</title>
<path fill="none" stroke="midnightblue" d="M579.555,-806.372C594.901,-823.622 620.61,-849.649 648,-865 655.801,-869.372 664.696,-872.813 673.374,-875.494"/>
<polygon fill="midnightblue" stroke="midnightblue" points="582.09,-803.953 572.893,-798.694 576.803,-808.541 582.09,-803.953"/>
</g>
<!-- Node27 -->
<g id="node27" class="node"><title>Node27</title>
<g id="a_node27"><a xlink:href="../../df/d0c/RecoE906Data_8C.html#ad032525ca693000ba382d14d82bf9f2b" target="_top" xlink:title="RecoE906Data">
<polygon fill="none" stroke="black" points="674.5,-836.5 674.5,-855.5 755.5,-855.5 755.5,-836.5 674.5,-836.5"/>
<text text-anchor="middle" x="715" y="-843.5" font-family="FreeSans" font-size="10.00">RecoE906Data</text>
</a>
</g>
</g>
<!-- Node7&#45;&gt;Node27 -->
<g id="edge30" class="edge"><title>Node7&#45;&gt;Node27</title>
<path fill="none" stroke="midnightblue" d="M593.034,-803.101C608.917,-810.767 629.294,-820.069 648,-827 657.28,-830.438 667.481,-833.644 677.029,-836.407"/>
<polygon fill="midnightblue" stroke="midnightblue" points="594.302,-799.825 583.781,-798.575 591.226,-806.113 594.302,-799.825"/>
</g>
<!-- Node28 -->
<g id="node28" class="node"><title>Node28</title>
<g id="a_node28"><a xlink:href="../../d8/de7/Fun4SRawEvent_8C.html#aaa9bb2e956ce860a8cb6e7845bcc4ed5" target="_top" xlink:title="Fun4SRawEvent">
<polygon fill="none" stroke="black" points="671,-798.5 671,-817.5 759,-817.5 759,-798.5 671,-798.5"/>
<text text-anchor="middle" x="715" y="-805.5" font-family="FreeSans" font-size="10.00">Fun4SRawEvent</text>
</a>
</g>
</g>
<!-- Node7&#45;&gt;Node28 -->
<g id="edge31" class="edge"><title>Node7&#45;&gt;Node28</title>
<path fill="none" stroke="midnightblue" d="M621.722,-796.233C638.062,-798.317 655.613,-800.555 670.976,-802.514"/>
<polygon fill="midnightblue" stroke="midnightblue" points="622.098,-792.753 611.736,-794.96 621.213,-799.696 622.098,-792.753"/>
</g>
<!-- Node29 -->
<g id="node29" class="node"><title>Node29</title>
<g id="a_node29"><a xlink:href="../../d9/de0/Fun4All__G4__BNL_8C.html#a62a558c2bb73d1be82a65b16f52ce2e0" target="_top" xlink:title="Fun4All_G4_BNL">
<polygon fill="none" stroke="black" points="669,-760.5 669,-779.5 761,-779.5 761,-760.5 669,-760.5"/>
<text text-anchor="middle" x="715" y="-767.5" font-family="FreeSans" font-size="10.00">Fun4All_G4_BNL</text>
</a>
</g>
</g>
<!-- Node7&#45;&gt;Node29 -->
<g id="edge32" class="edge"><title>Node7&#45;&gt;Node29</title>
<path fill="none" stroke="midnightblue" d="M621.802,-781.757C637.408,-779.767 654.113,-777.637 668.959,-775.744"/>
<polygon fill="midnightblue" stroke="midnightblue" points="621.213,-778.304 611.736,-783.04 622.098,-785.247 621.213,-778.304"/>
</g>
<!-- Node30 -->
<g id="node30" class="node"><title>Node30</title>
<g id="a_node30"><a xlink:href="../../de/dad/Fun4All__G4__BNL__R1_8C.html#a361be596f3554cfa3d0fc26346c50c31" target="_top" xlink:title="Fun4All_G4_BNL_R1">
<polygon fill="none" stroke="black" points="660.5,-722.5 660.5,-741.5 769.5,-741.5 769.5,-722.5 660.5,-722.5"/>
<text text-anchor="middle" x="715" y="-729.5" font-family="FreeSans" font-size="10.00">Fun4All_G4_BNL_R1</text>
</a>
</g>
</g>
<!-- Node7&#45;&gt;Node30 -->
<g id="edge33" class="edge"><title>Node7&#45;&gt;Node30</title>
<path fill="none" stroke="midnightblue" d="M593.034,-774.899C608.917,-767.233 629.294,-757.931 648,-751 657.28,-747.562 667.481,-744.356 677.029,-741.593"/>
<polygon fill="midnightblue" stroke="midnightblue" points="591.226,-771.887 583.781,-779.425 594.302,-778.175 591.226,-771.887"/>
</g>
<!-- Node31 -->
<g id="node31" class="node"><title>Node31</title>
<g id="a_node31"><a xlink:href="../../d1/d24/Fun4All__G4__E1039_8C.html#ad81863c21df83a735c57713bc9ec59b1" target="_top" xlink:title="Fun4All_G4_E1039">
<polygon fill="none" stroke="black" points="665,-684.5 665,-703.5 765,-703.5 765,-684.5 665,-684.5"/>
<text text-anchor="middle" x="715" y="-691.5" font-family="FreeSans" font-size="10.00">Fun4All_G4_E1039</text>
</a>
</g>
</g>
<!-- Node7&#45;&gt;Node31 -->
<g id="edge34" class="edge"><title>Node7&#45;&gt;Node31</title>
<path fill="none" stroke="midnightblue" d="M579.555,-771.628C594.901,-754.378 620.61,-728.351 648,-713 654.865,-709.152 662.577,-706.026 670.243,-703.504"/>
<polygon fill="midnightblue" stroke="midnightblue" points="576.803,-769.459 572.893,-779.306 582.09,-774.047 576.803,-769.459"/>
</g>
<!-- Node32 -->
<g id="node32" class="node"><title>Node32</title>
<g id="a_node32"><a xlink:href="../../de/d10/Fun4All__G4__E1039__R1_8C.html#aa484b834b55e3114dfd4cd82dcd11831" target="_top" xlink:title="Fun4All_G4_E1039_R1">
<polygon fill="none" stroke="black" points="656.5,-646.5 656.5,-665.5 773.5,-665.5 773.5,-646.5 656.5,-646.5"/>
<text text-anchor="middle" x="715" y="-653.5" font-family="FreeSans" font-size="10.00">Fun4All_G4_E1039_R1</text>
</a>
</g>
</g>
<!-- Node7&#45;&gt;Node32 -->
<g id="edge35" class="edge"><title>Node7&#45;&gt;Node32</title>
<path fill="none" stroke="midnightblue" d="M573.767,-770.086C586.515,-744.665 612.573,-699.808 648,-675 653.567,-671.102 659.927,-667.997 666.451,-665.527"/>
<polygon fill="midnightblue" stroke="midnightblue" points="570.473,-768.858 569.266,-779.384 576.773,-771.908 570.473,-768.858"/>
</g>
<!-- Node33 -->
<g id="node33" class="node"><title>Node33</title>
<g id="a_node33"><a xlink:href="../../df/d98/Fun4All__G4__E1039__R2_8C.html#a0cc5938b98723b2d5216049aad7edb01" target="_top" xlink:title="Fun4All_G4_E1039_R2">
<polygon fill="none" stroke="black" points="656.5,-608.5 656.5,-627.5 773.5,-627.5 773.5,-608.5 656.5,-608.5"/>
<text text-anchor="middle" x="715" y="-615.5" font-family="FreeSans" font-size="10.00">Fun4All_G4_E1039_R2</text>
</a>
</g>
</g>
<!-- Node7&#45;&gt;Node33 -->
<g id="edge36" class="edge"><title>Node7&#45;&gt;Node33</title>
<path fill="none" stroke="midnightblue" d="M570.284,-769.467C580.073,-737.03 604.138,-672.155 648,-637 652.838,-633.122 658.434,-630.036 664.28,-627.58"/>
<polygon fill="midnightblue" stroke="midnightblue" points="566.803,-768.907 567.407,-779.485 573.531,-770.839 566.803,-768.907"/>
</g>
<!-- Node34 -->
<g id="node34" class="node"><title>Node34</title>
<g id="a_node34"><a xlink:href="../../d1/d91/Fun4All__G4__E1039__R2__V2_8C.html#a89f8b08cddafb17f4ba14e509a0ca1db" target="_top" xlink:title="Fun4All_G4_E1039_R2_V2">
<polygon fill="none" stroke="black" points="648,-570.5 648,-589.5 782,-589.5 782,-570.5 648,-570.5"/>
<text text-anchor="middle" x="715" y="-577.5" font-family="FreeSans" font-size="10.00">Fun4All_G4_E1039_R2_V2</text>
</a>
</g>
</g>
<!-- Node7&#45;&gt;Node34 -->
<g id="edge37" class="edge"><title>Node7&#45;&gt;Node34</title>
<path fill="none" stroke="midnightblue" d="M567.924,-769.524C574.733,-731.089 595.273,-645.21 648,-599 652.394,-595.149 657.524,-592.076 662.947,-589.625"/>
<polygon fill="midnightblue" stroke="midnightblue" points="564.463,-769 566.291,-779.435 571.37,-770.137 564.463,-769"/>
</g>
<!-- Node35 -->
<g id="node35" class="node"><title>Node35</title>
<g id="a_node35"><a xlink:href="../../d5/db4/Fun4All__Test_8C.html#ae69a57ea66fbed58544200f95796a66f" target="_top" xlink:title="Fun4All_Test">
<polygon fill="none" stroke="black" points="678,-532.5 678,-551.5 752,-551.5 752,-532.5 678,-532.5"/>
<text text-anchor="middle" x="715" y="-539.5" font-family="FreeSans" font-size="10.00">Fun4All_Test</text>
</a>
</g>
</g>
<!-- Node7&#45;&gt;Node35 -->
<g id="edge38" class="edge"><title>Node7&#45;&gt;Node35</title>
<path fill="none" stroke="midnightblue" d="M566.359,-769.046C570.457,-724.909 586.529,-618.38 648,-561 656.106,-553.433 667.033,-548.857 677.661,-546.096"/>
<polygon fill="midnightblue" stroke="midnightblue" points="562.866,-768.829 565.539,-779.08 569.842,-769.399 562.866,-768.829"/>
</g>
<!-- Node36 -->
<g id="node36" class="node"><title>Node36</title>
<g id="a_node36"><a xlink:href="../../d7/d66/Fun4PatternDB_8C.html#a9e68afec0dfdd12961d550386529d5eb" target="_top" xlink:title="Fun4PatternDB">
<polygon fill="none" stroke="black" points="673.5,-494.5 673.5,-513.5 756.5,-513.5 756.5,-494.5 673.5,-494.5"/>
<text text-anchor="middle" x="715" y="-501.5" font-family="FreeSans" font-size="10.00">Fun4PatternDB</text>
</a>
</g>
</g>
<!-- Node7&#45;&gt;Node36 -->
<g id="edge39" class="edge"><title>Node7&#45;&gt;Node36</title>
<path fill="none" stroke="midnightblue" d="M565.147,-769.172C566.618,-720.115 577.402,-592.051 648,-523 654.905,-516.247 664.047,-511.865 673.321,-509.03"/>
<polygon fill="midnightblue" stroke="midnightblue" points="561.643,-769.309 564.946,-779.376 568.642,-769.447 561.643,-769.309"/>
</g>
<!-- Node37 -->
<g id="node37" class="node"><title>Node37</title>
<g id="a_node37"><a xlink:href="../../d2/d3a/Fun4TrkDev_8C.html#abd98cf50196a6ad7cb2289d1f0442b73" target="_top" xlink:title="Fun4TrkDev">
<polygon fill="none" stroke="black" points="680.5,-456.5 680.5,-475.5 749.5,-475.5 749.5,-456.5 680.5,-456.5"/>
<text text-anchor="middle" x="715" y="-463.5" font-family="FreeSans" font-size="10.00">Fun4TrkDev</text>
</a>
</g>
</g>
<!-- Node7&#45;&gt;Node37 -->
<g id="edge40" class="edge"><title>Node7&#45;&gt;Node37</title>
<path fill="none" stroke="midnightblue" d="M564.228,-769.302C563.252,-715.717 568.184,-565.923 648,-485 656.541,-476.341 668.753,-471.566 680.355,-468.954"/>
<polygon fill="midnightblue" stroke="midnightblue" points="560.734,-769.579 564.511,-779.478 567.732,-769.384 560.734,-769.579"/>
</g>
<!-- Node38 -->
<g id="node38" class="node"><title>Node38</title>
<g id="a_node38"><a xlink:href="../../db/d7c/Fun4DumpGeom_8C.html#ac8b66de3cf15072c6969f76f6b8f7f4c" target="_top" xlink:title="Fun4Geom">
<polygon fill="none" stroke="black" points="682.5,-418.5 682.5,-437.5 747.5,-437.5 747.5,-418.5 682.5,-418.5"/>
<text text-anchor="middle" x="715" y="-425.5" font-family="FreeSans" font-size="10.00">Fun4Geom</text>
</a>
</g>
</g>
<!-- Node7&#45;&gt;Node38 -->
<g id="edge41" class="edge"><title>Node7&#45;&gt;Node38</title>
<path fill="none" stroke="midnightblue" d="M567.198,-769.22C574.876,-703.58 602.529,-494.432 648,-447 656.912,-437.704 670.051,-432.87 682.264,-430.388"/>
<polygon fill="midnightblue" stroke="midnightblue" points="563.69,-769.093 566.032,-779.426 570.645,-769.888 563.69,-769.093"/>
</g>
<!-- Node39 -->
<g id="node39" class="node"><title>Node39</title>
<g id="a_node39"><a xlink:href="../../dd/d7d/Fun4kTracker_8C.html#abe7052288e4678d0346333383ad821ff" target="_top" xlink:title="Fun4kTracker">
<polygon fill="none" stroke="black" points="676.5,-380.5 676.5,-399.5 753.5,-399.5 753.5,-380.5 676.5,-380.5"/>
<text text-anchor="middle" x="715" y="-387.5" font-family="FreeSans" font-size="10.00">Fun4kTracker</text>
</a>
</g>
</g>
<!-- Node7&#45;&gt;Node39 -->
<g id="edge42" class="edge"><title>Node7&#45;&gt;Node39</title>
<path fill="none" stroke="midnightblue" d="M566.669,-769.339C573.01,-699.194 597.818,-462.568 648,-409 655.418,-401.081 665.902,-396.391 676.335,-393.636"/>
<polygon fill="midnightblue" stroke="midnightblue" points="563.17,-769.177 565.781,-779.445 570.143,-769.79 563.17,-769.177"/>
</g>
<!-- Node40 -->
<g id="node40" class="node"><title>Node40</title>
<g id="a_node40"><a xlink:href="../../d9/d8c/Fun4ReadMySql_8C.html#a82110168fa15d41b073c27eeadfc0ff3" target="_top" xlink:title="Fun4ReadMySql">
<polygon fill="none" stroke="black" points="671,-342.5 671,-361.5 759,-361.5 759,-342.5 671,-342.5"/>
<text text-anchor="middle" x="715" y="-349.5" font-family="FreeSans" font-size="10.00">Fun4ReadMySql</text>
</a>
</g>
</g>
<!-- Node7&#45;&gt;Node40 -->
<g id="edge43" class="edge"><title>Node7&#45;&gt;Node40</title>
<path fill="none" stroke="midnightblue" d="M566.279,-768.856C571.452,-693.653 593.229,-430.593 648,-371 654.051,-364.416 662.222,-360.059 670.751,-357.189"/>
<polygon fill="midnightblue" stroke="midnightblue" points="562.759,-769.043 565.589,-779.253 569.744,-769.507 562.759,-769.043"/>
</g>
<!-- Node41 -->
<g id="node41" class="node"><title>Node41</title>
<g id="a_node41"><a xlink:href="../../d6/d4c/Fun4SeaQuest_8C.html#a81bffd149f5c71602cb40eb0f45019c3" target="_top" xlink:title="Fun4SeaQuest">
<polygon fill="none" stroke="black" points="674.5,-304.5 674.5,-323.5 755.5,-323.5 755.5,-304.5 674.5,-304.5"/>
<text text-anchor="middle" x="715" y="-311.5" font-family="FreeSans" font-size="10.00">Fun4SeaQuest</text>
</a>
</g>
</g>
<!-- Node7&#45;&gt;Node41 -->
<g id="edge44" class="edge"><title>Node7&#45;&gt;Node41</title>
<path fill="none" stroke="midnightblue" d="M565.904,-769.081C569.894,-689.94 588.451,-398.84 648,-333 654.879,-325.395 664.584,-320.755 674.441,-317.947"/>
<polygon fill="midnightblue" stroke="midnightblue" points="562.404,-769.011 565.418,-779.168 569.396,-769.348 562.404,-769.011"/>
</g>
<!-- Node42 -->
<g id="node42" class="node"><title>Node42</title>
<g id="a_node42"><a xlink:href="../../d7/d65/e1039-core_2macros_2Fun4Sim_8C.html#a5e9276116ae0064f58b288a1e0e4e3db" target="_top" xlink:title="Fun4Sim">
<polygon fill="none" stroke="black" points="687,-266.5 687,-285.5 743,-285.5 743,-266.5 687,-266.5"/>
<text text-anchor="middle" x="715" y="-273.5" font-family="FreeSans" font-size="10.00">Fun4Sim</text>
</a>
</g>
</g>
<!-- Node7&#45;&gt;Node42 -->
<g id="edge45" class="edge"><title>Node7&#45;&gt;Node42</title>
<path fill="none" stroke="midnightblue" d="M565.6,-769.048C568.505,-685.788 583.719,-367.049 648,-295 657.764,-284.056 673.381,-279.243 686.973,-277.195"/>
<polygon fill="midnightblue" stroke="midnightblue" points="562.098,-769.074 565.268,-779.183 569.094,-769.303 562.098,-769.074"/>
</g>
<!-- Node43 -->
<g id="node43" class="node"><title>Node43</title>
<g id="a_node43"><a xlink:href="../../de/d48/Fun4TestAnalyzer_8C.html#af993f3ce438e5ebcb52b97e41124a3db" target="_top" xlink:title="Fun4TestAnalyzer">
<polygon fill="none" stroke="black" points="668,-228.5 668,-247.5 762,-247.5 762,-228.5 668,-228.5"/>
<text text-anchor="middle" x="715" y="-235.5" font-family="FreeSans" font-size="10.00">Fun4TestAnalyzer</text>
</a>
</g>
</g>
<!-- Node7&#45;&gt;Node43 -->
<g id="edge46" class="edge"><title>Node7&#45;&gt;Node43</title>
<path fill="none" stroke="midnightblue" d="M565.334,-769.204C567.198,-682.288 578.923,-335.342 648,-257 653.284,-251.008 660.322,-246.851 667.836,-243.979"/>
<polygon fill="midnightblue" stroke="midnightblue" points="561.833,-769.225 565.138,-779.291 568.832,-769.361 561.833,-769.225"/>
</g>
<!-- Node18 -->
<g id="node18" class="node"><title>Node18</title>
<g id="a_node18"><a xlink:href="../../df/d6a/e1039-core_2online_2macros_2Fun4MainDaq_8C.html#ab9151bcfc5d35e7a25c9cf86fddd2bd2" target="_top" xlink:title="Fun4MainDaq.C: Fun4all macro to decode the MainDAQ data. ">
<polygon fill="none" stroke="black" points="828.5,-1408.5 828.5,-1427.5 905.5,-1427.5 905.5,-1408.5 828.5,-1408.5"/>
<text text-anchor="middle" x="867" y="-1415.5" font-family="FreeSans" font-size="10.00">Fun4MainDaq</text>
</a>
</g>
</g>
<!-- Node7&#45;&gt;Node18 -->
<g id="edge47" class="edge"><title>Node7&#45;&gt;Node18</title>
<path fill="none" stroke="midnightblue" d="M564.729,-808.683C563.87,-902.271 565.172,-1301.18 648,-1385 695.085,-1432.65 779.668,-1430.57 828.479,-1424.49"/>
<polygon fill="midnightblue" stroke="midnightblue" points="568.23,-808.65 564.842,-798.611 561.23,-808.571 568.23,-808.65"/>
</g>
<!-- Node19 -->
<g id="node19" class="node"><title>Node19</title>
<g id="a_node19"><a xlink:href="../../d1/d6b/Fun4MainDaqE906_8C.html#a3617355b5c033a5635408b1cd8c29c35" target="_top" xlink:title="Fun4MainDaq.C: Fun4all macro to decode the MainDAQ data. ">
<polygon fill="none" stroke="black" points="818,-1369.5 818,-1388.5 916,-1388.5 916,-1369.5 818,-1369.5"/>
<text text-anchor="middle" x="867" y="-1376.5" font-family="FreeSans" font-size="10.00">Fun4MainDaqE906</text>
</a>
</g>
</g>
<!-- Node7&#45;&gt;Node19 -->
<g id="edge48" class="edge"><title>Node7&#45;&gt;Node19</title>
<path fill="none" stroke="midnightblue" d="M564.858,-808.769C564.643,-899.443 568.624,-1274.44 648,-1352 692.325,-1395.31 768.216,-1394.52 817.739,-1388.16"/>
<polygon fill="midnightblue" stroke="midnightblue" points="568.359,-808.549 564.905,-798.533 561.359,-808.517 568.359,-808.549"/>
</g>
<!-- Node44 -->
<g id="node44" class="node"><title>Node44</title>
<g id="a_node44"><a xlink:href="../../d8/d6d/classEventDispUI.html#a93421e77c003c06c1aff15cd2adb1c9a" target="_top" xlink:title="EventDispUI::NextEvent">
<polygon fill="none" stroke="black" points="656.5,-190.5 656.5,-209.5 773.5,-209.5 773.5,-190.5 656.5,-190.5"/>
<text text-anchor="middle" x="715" y="-197.5" font-family="FreeSans" font-size="10.00">EventDispUI::NextEvent</text>
</a>
</g>
</g>
<!-- Node7&#45;&gt;Node44 -->
<g id="edge49" class="edge"><title>Node7&#45;&gt;Node44</title>
<path fill="none" stroke="midnightblue" d="M565.106,-769.26C565.994,-678.68 574.14,-303.631 648,-219 651.371,-215.137 655.472,-212.036 659.962,-209.549"/>
<polygon fill="midnightblue" stroke="midnightblue" points="561.605,-769.456 565.027,-779.483 568.605,-769.511 561.605,-769.456"/>
</g>
<!-- Node45 -->
<g id="node45" class="node"><title>Node45</title>
<g id="a_node45"><a xlink:href="../../d8/d6d/classEventDispUI.html#ae9dafaeb3aef27cf0a38037faf17562d" target="_top" xlink:title="EventDispUI::PrevEvent">
<polygon fill="none" stroke="black" points="656.5,-152.5 656.5,-171.5 773.5,-171.5 773.5,-152.5 656.5,-152.5"/>
<text text-anchor="middle" x="715" y="-159.5" font-family="FreeSans" font-size="10.00">EventDispUI::PrevEvent</text>
</a>
</g>
</g>
<!-- Node7&#45;&gt;Node45 -->
<g id="edge50" class="edge"><title>Node7&#45;&gt;Node45</title>
<path fill="none" stroke="midnightblue" d="M564.908,-769.149C564.872,-674.728 569.391,-271.887 648,-181 651.354,-177.122 655.443,-174.011 659.927,-171.518"/>
<polygon fill="midnightblue" stroke="midnightblue" points="561.408,-769.317 564.931,-779.309 568.408,-769.301 561.408,-769.317"/>
</g>
<!-- Node46 -->
<g id="node46" class="node"><title>Node46</title>
<g id="a_node46"><a xlink:href="../../d8/d6d/classEventDispUI.html#a56a1055e13ce1e361c85c1820e44a9b3" target="_top" xlink:title="EventDispUI::MoveEvent">
<polygon fill="none" stroke="red" points="654.5,-114.5 654.5,-133.5 775.5,-133.5 775.5,-114.5 654.5,-114.5"/>
<text text-anchor="middle" x="715" y="-121.5" font-family="FreeSans" font-size="10.00">EventDispUI::MoveEvent</text>
</a>
</g>
</g>
<!-- Node7&#45;&gt;Node46 -->
<g id="edge51" class="edge"><title>Node7&#45;&gt;Node46</title>
<path fill="none" stroke="midnightblue" d="M564.731,-769.154C563.808,-671.211 564.6,-240.199 648,-143 651.261,-139.199 655.229,-136.134 659.583,-133.666"/>
<polygon fill="midnightblue" stroke="midnightblue" points="561.231,-769.22 564.844,-779.18 568.231,-769.141 561.231,-769.22"/>
</g>
<!-- Node47 -->
<g id="node47" class="node"><title>Node47</title>
<g id="a_node47"><a xlink:href="../../df/d51/Fun4All__ExportGeom_8C.html#a582925c51bad38d562cf19e71211adfd" target="_top" xlink:title="get geometry from DST file and output TGeoManager ROOT files or other formats of geometry files ...">
<polygon fill="none" stroke="black" points="661,-76.5 661,-95.5 769,-95.5 769,-76.5 661,-76.5"/>
<text text-anchor="middle" x="715" y="-83.5" font-family="FreeSans" font-size="10.00">Fun4All_ExportGeom</text>
</a>
</g>
</g>
<!-- Node7&#45;&gt;Node47 -->
<g id="edge52" class="edge"><title>Node7&#45;&gt;Node47</title>
<path fill="none" stroke="midnightblue" d="M564.57,-768.961C562.797,-667.201 559.858,-208.459 648,-105 651.557,-100.825 655.967,-97.5367 660.808,-94.9516"/>
<polygon fill="midnightblue" stroke="midnightblue" points="561.073,-769.164 564.764,-779.095 568.072,-769.03 561.073,-769.164"/>
</g>
<!-- Node48 -->
<g id="node48" class="node"><title>Node48</title>
<g id="a_node48"><a xlink:href="../../d9/d0f/Fun4All__ImportGeom_8C.html#a3388968a8dae60e9eb62b1126f747b6a" target="_top" xlink:title="Read in a Geometry file, and output DST and ROOT TGeo files. ">
<polygon fill="none" stroke="black" points="660.5,-38.5 660.5,-57.5 769.5,-57.5 769.5,-38.5 660.5,-38.5"/>
<text text-anchor="middle" x="715" y="-45.5" font-family="FreeSans" font-size="10.00">Fun4All_ImportGeom</text>
</a>
</g>
</g>
<!-- Node7&#45;&gt;Node48 -->
<g id="edge53" class="edge"><title>Node7&#45;&gt;Node48</title>
<path fill="none" stroke="midnightblue" d="M565.971,-769.347C571.579,-659.278 601.202,-122.282 648,-67 651.467,-62.9047 655.754,-59.6621 660.466,-57.0989"/>
<polygon fill="midnightblue" stroke="midnightblue" points="562.473,-769.225 565.467,-779.388 569.464,-769.576 562.473,-769.225"/>
</g>
<!-- Node49 -->
<g id="node49" class="node"><title>Node49</title>
<g id="a_node49"><a xlink:href="../../d6/deb/PHGeom__DSTInspection_8C.html#a8a06a40e2950cd31dda512c040049cd0" target="_top" xlink:title="PHGeom_DSTInspection">
<polygon fill="none" stroke="black" points="652.5,-0.5 652.5,-19.5 777.5,-19.5 777.5,-0.5 652.5,-0.5"/>
<text text-anchor="middle" x="715" y="-7.5" font-family="FreeSans" font-size="10.00">PHGeom_DSTInspection</text>
</a>
</g>
</g>
<!-- Node7&#45;&gt;Node49 -->
<g id="edge54" class="edge"><title>Node7&#45;&gt;Node49</title>
<path fill="none" stroke="midnightblue" d="M565.851,-769.385C570.939,-655.999 598.782,-87.4761 648,-29 651.225,-25.1685 655.168,-22.0829 659.507,-19.6014"/>
<polygon fill="midnightblue" stroke="midnightblue" points="562.353,-769.273 565.408,-779.418 569.346,-769.582 562.353,-769.273"/>
</g>
<!-- Node17&#45;&gt;Node13 -->
<g id="edge17" class="edge"><title>Node17&#45;&gt;Node13</title>
<path fill="none" stroke="midnightblue" d="M739.448,-1464.63C768.368,-1477.74 817.103,-1499.83 844.899,-1512.43"/>
<polygon fill="midnightblue" stroke="midnightblue" points="740.665,-1461.34 730.112,-1460.4 737.774,-1467.71 740.665,-1461.34"/>
</g>
<!-- Node17&#45;&gt;Node14 -->
<g id="edge18" class="edge"><title>Node17&#45;&gt;Node14</title>
<path fill="none" stroke="midnightblue" d="M740.126,-1457.38C766.785,-1461.11 809.666,-1467.11 837.84,-1471.06"/>
<polygon fill="midnightblue" stroke="midnightblue" points="740.5,-1453.9 730.112,-1455.98 739.53,-1460.83 740.5,-1453.9"/>
</g>
<!-- Node17&#45;&gt;Node18 -->
<g id="edge19" class="edge"><title>Node17&#45;&gt;Node18</title>
<path fill="none" stroke="midnightblue" d="M740.045,-1448.23C763.821,-1442.52 800.558,-1433.71 828.233,-1427.06"/>
<polygon fill="midnightblue" stroke="midnightblue" points="739.019,-1444.88 730.112,-1450.61 740.652,-1451.68 739.019,-1444.88"/>
</g>
<!-- Node17&#45;&gt;Node19 -->
<g id="edge20" class="edge"><title>Node17&#45;&gt;Node19</title>
<path fill="none" stroke="midnightblue" d="M739.181,-1440.64C759.636,-1429.06 790.405,-1412.15 818,-1399 825.661,-1395.35 834.168,-1391.68 841.866,-1388.51"/>
<polygon fill="midnightblue" stroke="midnightblue" points="737.249,-1437.71 730.292,-1445.71 740.714,-1443.8 737.249,-1437.71"/>
</g>
<!-- Node17&#45;&gt;Node9 -->
<g id="edge21" class="edge"><title>Node17&#45;&gt;Node9</title>
<path fill="none" stroke="midnightblue" d="M731.184,-1436.54C749.874,-1415.93 783.407,-1381.72 818,-1360 823.768,-1356.38 830.342,-1353.23 836.735,-1350.6"/>
<polygon fill="midnightblue" stroke="midnightblue" points="728.383,-1434.42 724.341,-1444.21 733.608,-1439.08 728.383,-1434.42"/>
</g>
<!-- Node17&#45;&gt;Node8 -->
<g id="edge22" class="edge"><title>Node17&#45;&gt;Node8</title>
<path fill="none" stroke="midnightblue" d="M732.972,-1470.75C752.417,-1489.38 785.765,-1519.65 818,-1541 826.079,-1546.35 835.515,-1551.31 843.873,-1555.32"/>
<polygon fill="midnightblue" stroke="midnightblue" points="735.383,-1468.21 725.766,-1463.77 730.512,-1473.24 735.383,-1468.21"/>
</g>
</g>
</svg>
