<?xml version="1.0" encoding="UTF-8" standalone="no"?>
<!DOCTYPE svg PUBLIC "-//W3C//DTD SVG 1.1//EN"
 "http://www.w3.org/Graphics/SVG/1.1/DTD/svg11.dtd">
<!-- Generated by graphviz version 2.40.1 (20161225.0304)
 -->
<!-- Title: PHG4GDMLWriteSolids::GenTrapWrite Pages: 1 -->
<svg width="2065pt" height="1012pt"
 viewBox="0.00 0.00 2065.00 1011.74" xmlns="http://www.w3.org/2000/svg" xmlns:xlink="http://www.w3.org/1999/xlink">
<g id="graph0" class="graph" transform="scale(1 1) rotate(0) translate(4 1007.7382)">
<title>PHG4GDMLWriteSolids::GenTrapWrite</title>
<!-- Node483 -->
<g id="node1" class="node">
<title>Node483</title>
<polygon fill="#bfbfbf" stroke="#000000" points="0,-912.7382 0,-942.7382 119,-942.7382 119,-912.7382 0,-912.7382"/>
<text text-anchor="start" x="8" y="-930.7382" font-family="FreeSans" font-size="10.00" fill="#000000">PHG4GDMLWriteSolids</text>
<text text-anchor="middle" x="59.5" y="-919.7382" font-family="FreeSans" font-size="10.00" fill="#000000">::GenTrapWrite</text>
</g>
<!-- Node484 -->
<g id="node2" class="node">
<title>Node484</title>
<g id="a_node2"><a xlink:href="../../dd/db5/classPHG4GDMLWrite.html#a16834147e17b47595b04d27a49405198" target="_top" xlink:title="PHG4GDMLWrite::GenerateName">
<polygon fill="none" stroke="#000000" points="1395,-690.2382 1395,-709.2382 1558,-709.2382 1558,-690.2382 1395,-690.2382"/>
<text text-anchor="middle" x="1476.5" y="-697.2382" font-family="FreeSans" font-size="10.00" fill="#000000">PHG4GDMLWrite::GenerateName</text>
</a>
</g>
</g>
<!-- Node483&#45;&gt;Node484 -->
<g id="edge1" class="edge">
<title>Node483&#45;&gt;Node484</title>
<path fill="none" stroke="#191970" d="M119.242,-939.4495C181.4746,-950.6148 281.931,-965.7382 369.5,-965.7382 369.5,-965.7382 369.5,-965.7382 989.5,-965.7382 1160.9722,-965.7382 1218.8641,-953.5544 1359,-854.7382 1411.0448,-818.0391 1450.1757,-751.293 1467.1751,-718.6864"/>
<polygon fill="#191970" stroke="#191970" points="1470.4939,-719.8812 1471.905,-709.3808 1464.2537,-716.7094 1470.4939,-719.8812"/>
</g>
<!-- Node485 -->
<g id="node3" class="node">
<title>Node485</title>
<g id="a_node3"><a xlink:href="../../dd/db5/classPHG4GDMLWrite.html#afe96dc9fdc7c1a0a1a96b59dc15dffa2" target="_top" xlink:title="PHG4GDMLWrite::NewAttribute">
<polygon fill="none" stroke="#000000" points="1904,-633.2382 1904,-652.2382 2057,-652.2382 2057,-633.2382 1904,-633.2382"/>
<text text-anchor="middle" x="1980.5" y="-640.2382" font-family="FreeSans" font-size="10.00" fill="#000000">PHG4GDMLWrite::NewAttribute</text>
</a>
</g>
</g>
<!-- Node483&#45;&gt;Node485 -->
<g id="edge2" class="edge">
<title>Node483&#45;&gt;Node485</title>
<path fill="none" stroke="#191970" d="M91.5882,-942.8832C109.8351,-950.9733 133.3087,-960.5182 155,-966.7382 247.9934,-993.4044 272.7588,-1003.7382 369.5,-1003.7382 369.5,-1003.7382 369.5,-1003.7382 1653.5,-1003.7382 1700.1669,-1003.7382 1820.9203,-953.1786 1868,-903.7382 1937.1459,-831.1253 1967.4035,-709.3357 1976.9422,-662.1939"/>
<polygon fill="#191970" stroke="#191970" points="1980.3817,-662.8421 1978.8462,-652.3591 1973.5093,-661.5116 1980.3817,-662.8421"/>
</g>
<!-- Node486 -->
<g id="node4" class="node">
<title>Node486</title>
<g id="a_node4"><a xlink:href="../../dd/db5/classPHG4GDMLWrite.html#ada0a5579d406ec27f3150711ab83becc" target="_top" xlink:title="PHG4GDMLWrite::NewElement">
<polygon fill="none" stroke="#000000" points="1904.5,-203.2382 1904.5,-222.2382 2056.5,-222.2382 2056.5,-203.2382 1904.5,-203.2382"/>
<text text-anchor="middle" x="1980.5" y="-210.2382" font-family="FreeSans" font-size="10.00" fill="#000000">PHG4GDMLWrite::NewElement</text>
</a>
</g>
</g>
<!-- Node483&#45;&gt;Node486 -->
<g id="edge3" class="edge">
<title>Node483&#45;&gt;Node486</title>
<path fill="none" stroke="#191970" d="M61.1392,-912.4714C74.4464,-792.3338 169.4161,-3.7382 369.5,-3.7382 369.5,-3.7382 369.5,-3.7382 1653.5,-3.7382 1750.0235,-3.7382 1787.1734,15.0241 1868,-37.7382 1926.6332,-76.013 1960.9786,-156.6758 1974.1969,-193.5781"/>
<polygon fill="#191970" stroke="#191970" points="1970.9271,-194.8322 1977.4968,-203.1442 1977.5444,-192.5494 1970.9271,-194.8322"/>
</g>
<!-- Node487 -->
<g id="node5" class="node">
<title>Node487</title>
<g id="a_node5"><a xlink:href="../../d0/d94/classPHG4GDMLWriteSolids.html#a80558da78c1f285c6242bbc0144465a1" target="_top" xlink:title="PHG4GDMLWriteSolids\l::TrapWrite">
<polygon fill="none" stroke="#000000" points="155,-874.7382 155,-904.7382 274,-904.7382 274,-874.7382 155,-874.7382"/>
<text text-anchor="start" x="163" y="-892.7382" font-family="FreeSans" font-size="10.00" fill="#000000">PHG4GDMLWriteSolids</text>
<text text-anchor="middle" x="214.5" y="-881.7382" font-family="FreeSans" font-size="10.00" fill="#000000">::TrapWrite</text>
</a>
</g>
</g>
<!-- Node483&#45;&gt;Node487 -->
<g id="edge4" class="edge">
<title>Node483&#45;&gt;Node487</title>
<path fill="none" stroke="#191970" d="M119.427,-913.0464C127.8155,-910.9899 136.494,-908.8623 145.0406,-906.767"/>
<polygon fill="#191970" stroke="#191970" points="146.1087,-910.1088 154.9877,-904.3283 144.4419,-903.3102 146.1087,-910.1088"/>
</g>
<!-- Node487&#45;&gt;Node484 -->
<g id="edge5" class="edge">
<title>Node487&#45;&gt;Node484</title>
<path fill="none" stroke="#191970" d="M274.2182,-889.7382C336.6433,-889.7382 437.447,-889.7382 524.5,-889.7382 524.5,-889.7382 524.5,-889.7382 1144.5,-889.7382 1282.9538,-889.7382 1416.0881,-763.726 1460.7415,-716.9464"/>
<polygon fill="#191970" stroke="#191970" points="1463.5143,-719.1066 1467.8097,-709.4215 1458.4122,-714.314 1463.5143,-719.1066"/>
</g>
<!-- Node487&#45;&gt;Node485 -->
<g id="edge7" class="edge">
<title>Node487&#45;&gt;Node485</title>
<path fill="none" stroke="#191970" d="M274.242,-901.4495C336.4746,-912.6148 436.931,-927.7382 524.5,-927.7382 524.5,-927.7382 524.5,-927.7382 989.5,-927.7382 1206.6024,-927.7382 1259.3976,-965.7382 1476.5,-965.7382 1476.5,-965.7382 1476.5,-965.7382 1653.5,-965.7382 1827.691,-965.7382 1942.5797,-730.8799 1972.6446,-661.6956"/>
<polygon fill="#191970" stroke="#191970" points="1975.9031,-662.9768 1976.6006,-652.405 1969.4626,-660.2344 1975.9031,-662.9768"/>
</g>
<!-- Node487&#45;&gt;Node486 -->
<g id="edge6" class="edge">
<title>Node487&#45;&gt;Node486</title>
<path fill="none" stroke="#191970" d="M216.5438,-874.6597C232.372,-760.8879 339.7296,-41.7382 524.5,-41.7382 524.5,-41.7382 524.5,-41.7382 1653.5,-41.7382 1750.3178,-41.7382 1784.0772,-31.4616 1868,-79.7382 1916.518,-107.6482 1953.6835,-164.718 1970.5522,-194.197"/>
<polygon fill="#191970" stroke="#191970" points="1967.5605,-196.0188 1975.4819,-203.0545 1973.677,-192.6146 1967.5605,-196.0188"/>
</g>
<!-- Node488 -->
<g id="node6" class="node">
<title>Node488</title>
<g id="a_node6"><a xlink:href="../../d0/d94/classPHG4GDMLWriteSolids.html#aec95c52a133f535ceb1c24ca9ebd59e4" target="_top" xlink:title="PHG4GDMLWriteSolids\l::TrdWrite">
<polygon fill="none" stroke="#000000" points="310,-722.7382 310,-752.7382 429,-752.7382 429,-722.7382 310,-722.7382"/>
<text text-anchor="start" x="318" y="-740.7382" font-family="FreeSans" font-size="10.00" fill="#000000">PHG4GDMLWriteSolids</text>
<text text-anchor="middle" x="369.5" y="-729.7382" font-family="FreeSans" font-size="10.00" fill="#000000">::TrdWrite</text>
</a>
</g>
</g>
<!-- Node487&#45;&gt;Node488 -->
<g id="edge8" class="edge">
<title>Node487&#45;&gt;Node488</title>
<path fill="none" stroke="#191970" d="M229.9287,-874.6082C257.434,-847.6352 315.0424,-791.1418 346.977,-759.8253"/>
<polygon fill="#191970" stroke="#191970" points="349.4445,-762.3077 354.1337,-752.8071 344.5433,-757.3098 349.4445,-762.3077"/>
</g>
<!-- Node488&#45;&gt;Node484 -->
<g id="edge9" class="edge">
<title>Node488&#45;&gt;Node484</title>
<path fill="none" stroke="#191970" d="M429.2182,-737.7382C491.6433,-737.7382 592.447,-737.7382 679.5,-737.7382 679.5,-737.7382 679.5,-737.7382 1144.5,-737.7382 1239.5517,-737.7382 1348.9239,-722.1735 1415.3535,-710.9669"/>
<polygon fill="#191970" stroke="#191970" points="1415.969,-714.4125 1425.2367,-709.2782 1414.79,-707.5125 1415.969,-714.4125"/>
</g>
<!-- Node488&#45;&gt;Node485 -->
<g id="edge11" class="edge">
<title>Node488&#45;&gt;Node485</title>
<path fill="none" stroke="#191970" d="M392.9236,-752.8765C443.2316,-783.8868 566.2472,-851.7382 679.5,-851.7382 679.5,-851.7382 679.5,-851.7382 1653.5,-851.7382 1752.4927,-851.7382 1786.2093,-847.5042 1868,-791.7382 1918.2643,-757.4673 1955.2961,-693.3584 1971.4805,-661.5843"/>
<polygon fill="#191970" stroke="#191970" points="1974.6866,-662.997 1975.993,-652.483 1968.4151,-659.8875 1974.6866,-662.997"/>
</g>
<!-- Node488&#45;&gt;Node486 -->
<g id="edge10" class="edge">
<title>Node488&#45;&gt;Node486</title>
<path fill="none" stroke="#191970" d="M373.07,-722.4418C396.5582,-623.6461 532.5426,-79.7382 679.5,-79.7382 679.5,-79.7382 679.5,-79.7382 1653.5,-79.7382 1750.6437,-79.7382 1779.975,-80.647 1868,-121.7382 1907.1861,-140.0308 1944.5424,-174.8713 1964.8101,-195.7324"/>
<polygon fill="#191970" stroke="#191970" points="1962.5139,-198.3967 1971.9422,-203.2296 1967.5855,-193.5719 1962.5139,-198.3967"/>
</g>
<!-- Node489 -->
<g id="node7" class="node">
<title>Node489</title>
<g id="a_node7"><a xlink:href="../../d0/d94/classPHG4GDMLWriteSolids.html#a344250f109aa3c8b80573dfd51655ddb" target="_top" xlink:title="PHG4GDMLWriteSolids\l::TubeWrite">
<polygon fill="none" stroke="#000000" points="465,-596.7382 465,-626.7382 584,-626.7382 584,-596.7382 465,-596.7382"/>
<text text-anchor="start" x="473" y="-614.7382" font-family="FreeSans" font-size="10.00" fill="#000000">PHG4GDMLWriteSolids</text>
<text text-anchor="middle" x="524.5" y="-603.7382" font-family="FreeSans" font-size="10.00" fill="#000000">::TubeWrite</text>
</a>
</g>
</g>
<!-- Node488&#45;&gt;Node489 -->
<g id="edge12" class="edge">
<title>Node488&#45;&gt;Node489</title>
<path fill="none" stroke="#191970" d="M388.1966,-722.5397C415.5445,-700.3085 466.5912,-658.8125 497.8594,-633.3944"/>
<polygon fill="#191970" stroke="#191970" points="500.1852,-636.0144 505.7371,-626.9907 495.7697,-630.5826 500.1852,-636.0144"/>
</g>
<!-- Node489&#45;&gt;Node484 -->
<g id="edge13" class="edge">
<title>Node489&#45;&gt;Node484</title>
<path fill="none" stroke="#191970" d="M584.0824,-612.668C721.5059,-615.5575 1070.9629,-627.169 1359,-672.7382 1382.9154,-676.5218 1409.2096,-682.3991 1430.8496,-687.7053"/>
<polygon fill="#191970" stroke="#191970" points="1430.2033,-691.1512 1440.7528,-690.1729 1431.8957,-684.3589 1430.2033,-691.1512"/>
</g>
<!-- Node489&#45;&gt;Node485 -->
<g id="edge15" class="edge">
<title>Node489&#45;&gt;Node485</title>
<path fill="none" stroke="#191970" d="M534.5112,-596.4244C569.2735,-545.304 690.5277,-383.7382 834.5,-383.7382 834.5,-383.7382 834.5,-383.7382 1144.5,-383.7382 1240.2468,-383.7382 1275.6754,-356.5739 1359,-403.7382 1382.5175,-417.0498 1372.7226,-437.4415 1395,-452.7382 1484.8152,-514.4095 1766.8847,-541.1694 1868,-581.7382 1899.9351,-594.551 1934.4051,-614.1869 1956.6546,-627.7007"/>
<polygon fill="#191970" stroke="#191970" points="1955.0476,-630.8213 1965.3989,-633.0798 1958.7153,-624.8591 1955.0476,-630.8213"/>
</g>
<!-- Node489&#45;&gt;Node486 -->
<g id="edge14" class="edge">
<title>Node489&#45;&gt;Node486</title>
<path fill="none" stroke="#191970" d="M526.3437,-596.684C537.3909,-513.8937 602.3797,-117.7382 834.5,-117.7382 834.5,-117.7382 834.5,-117.7382 1653.5,-117.7382 1750.6437,-117.7382 1775.6909,-129.474 1868,-159.7382 1898.8761,-169.8612 1932.3304,-186.3994 1954.6602,-198.3112"/>
<polygon fill="#191970" stroke="#191970" points="1953.0487,-201.4187 1963.5091,-203.1009 1956.3808,-195.2626 1953.0487,-201.4187"/>
</g>
<!-- Node490 -->
<g id="node8" class="node">
<title>Node490</title>
<g id="a_node8"><a xlink:href="../../d0/d94/classPHG4GDMLWriteSolids.html#afa8d5aea54a4b2e2367e0511bc7c12a5" target="_top" xlink:title="PHG4GDMLWriteSolids\l::CutTubeWrite">
<polygon fill="none" stroke="#000000" points="620,-640.7382 620,-670.7382 739,-670.7382 739,-640.7382 620,-640.7382"/>
<text text-anchor="start" x="628" y="-658.7382" font-family="FreeSans" font-size="10.00" fill="#000000">PHG4GDMLWriteSolids</text>
<text text-anchor="middle" x="679.5" y="-647.7382" font-family="FreeSans" font-size="10.00" fill="#000000">::CutTubeWrite</text>
</a>
</g>
</g>
<!-- Node489&#45;&gt;Node490 -->
<g id="edge16" class="edge">
<title>Node489&#45;&gt;Node490</title>
<path fill="none" stroke="#191970" d="M577.4087,-626.7574C590.058,-630.3482 603.6824,-634.2158 616.7287,-637.9192"/>
<polygon fill="#191970" stroke="#191970" points="615.9911,-641.3481 626.5668,-640.712 617.9027,-634.6141 615.9911,-641.3481"/>
</g>
<!-- Node490&#45;&gt;Node484 -->
<g id="edge17" class="edge">
<title>Node490&#45;&gt;Node484</title>
<path fill="none" stroke="#191970" d="M730.6979,-670.8288C744.9365,-674.5628 760.4788,-678.2128 775,-680.7382 869.2913,-697.1367 893.7934,-699.7382 989.5,-699.7382 989.5,-699.7382 989.5,-699.7382 1144.5,-699.7382 1225.7773,-699.7382 1318.247,-699.7382 1384.9188,-699.7382"/>
<polygon fill="#191970" stroke="#191970" points="1384.9776,-703.2383 1394.9776,-699.7382 1384.9775,-696.2383 1384.9776,-703.2383"/>
</g>
<!-- Node490&#45;&gt;Node485 -->
<g id="edge18" class="edge">
<title>Node490&#45;&gt;Node485</title>
<path fill="none" stroke="#191970" d="M695.4809,-670.8879C738.947,-710.434 864.4582,-813.7382 989.5,-813.7382 989.5,-813.7382 989.5,-813.7382 1653.5,-813.7382 1752.7358,-813.7382 1782.1531,-801.5183 1868,-751.7382 1909.696,-727.5599 1947.5802,-684.6152 1966.9453,-660.4778"/>
<polygon fill="#191970" stroke="#191970" points="1969.7843,-662.5297 1973.2147,-652.5055 1964.2819,-658.2026 1969.7843,-662.5297"/>
</g>
<!-- Node490&#45;&gt;Node486 -->
<g id="edge19" class="edge">
<title>Node490&#45;&gt;Node486</title>
<path fill="none" stroke="#191970" d="M681.2773,-640.5012C691.9674,-556.7053 755.3535,-155.7382 989.5,-155.7382 989.5,-155.7382 989.5,-155.7382 1653.5,-155.7382 1756.9442,-155.7382 1876.0977,-183.7639 1938.0685,-200.5122"/>
<polygon fill="#191970" stroke="#191970" points="1937.3046,-203.9318 1947.874,-203.1977 1939.1537,-197.1804 1937.3046,-203.9318"/>
</g>
<!-- Node491 -->
<g id="node9" class="node">
<title>Node491</title>
<g id="a_node9"><a xlink:href="../../d0/d94/classPHG4GDMLWriteSolids.html#a1fe20a0882d9c7856a4036a83ff88c27" target="_top" xlink:title="PHG4GDMLWriteSolids\l::TwistedboxWrite">
<polygon fill="none" stroke="#000000" points="775,-640.7382 775,-670.7382 894,-670.7382 894,-640.7382 775,-640.7382"/>
<text text-anchor="start" x="783" y="-658.7382" font-family="FreeSans" font-size="10.00" fill="#000000">PHG4GDMLWriteSolids</text>
<text text-anchor="middle" x="834.5" y="-647.7382" font-family="FreeSans" font-size="10.00" fill="#000000">::TwistedboxWrite</text>
</a>
</g>
</g>
<!-- Node490&#45;&gt;Node491 -->
<g id="edge20" class="edge">
<title>Node490&#45;&gt;Node491</title>
<path fill="none" stroke="#191970" d="M739.427,-655.7382C747.7244,-655.7382 756.3054,-655.7382 764.7618,-655.7382"/>
<polygon fill="#191970" stroke="#191970" points="764.9877,-659.2383 774.9877,-655.7382 764.9877,-652.2383 764.9877,-659.2383"/>
</g>
<!-- Node491&#45;&gt;Node484 -->
<g id="edge21" class="edge">
<title>Node491&#45;&gt;Node484</title>
<path fill="none" stroke="#191970" d="M894.3677,-657.9643C991.8554,-661.8583 1190.9163,-670.9318 1359,-685.7382 1369.8109,-686.6905 1381.1636,-687.846 1392.3742,-689.0802"/>
<polygon fill="#191970" stroke="#191970" points="1392.2812,-692.5918 1402.6099,-690.2322 1393.0642,-685.6357 1392.2812,-692.5918"/>
</g>
<!-- Node491&#45;&gt;Node485 -->
<g id="edge23" class="edge">
<title>Node491&#45;&gt;Node485</title>
<path fill="none" stroke="#191970" d="M856.6811,-670.9363C906.0365,-703.2266 1029.6551,-775.7382 1144.5,-775.7382 1144.5,-775.7382 1144.5,-775.7382 1653.5,-775.7382 1776.9692,-775.7382 1908.62,-693.3712 1959.1106,-658.2757"/>
<polygon fill="#191970" stroke="#191970" points="1961.4214,-660.9288 1967.5736,-652.3032 1957.3852,-655.2096 1961.4214,-660.9288"/>
</g>
<!-- Node491&#45;&gt;Node486 -->
<g id="edge22" class="edge">
<title>Node491&#45;&gt;Node486</title>
<path fill="none" stroke="#191970" d="M836.8663,-640.6293C850.2673,-561.0067 924.03,-193.7382 1144.5,-193.7382 1144.5,-193.7382 1144.5,-193.7382 1653.5,-193.7382 1735.143,-193.7382 1828.0592,-199.714 1893.9261,-204.963"/>
<polygon fill="#191970" stroke="#191970" points="1894.0098,-208.481 1904.2592,-205.7981 1894.5737,-201.5038 1894.0098,-208.481"/>
</g>
<!-- Node492 -->
<g id="node10" class="node">
<title>Node492</title>
<g id="a_node10"><a xlink:href="../../d0/d94/classPHG4GDMLWriteSolids.html#a971e013b661799d807ea7a464c04bd15" target="_top" xlink:title="PHG4GDMLWriteSolids\l::TwistedtrapWrite">
<polygon fill="none" stroke="#000000" points="930,-494.7382 930,-524.7382 1049,-524.7382 1049,-494.7382 930,-494.7382"/>
<text text-anchor="start" x="938" y="-512.7382" font-family="FreeSans" font-size="10.00" fill="#000000">PHG4GDMLWriteSolids</text>
<text text-anchor="middle" x="989.5" y="-501.7382" font-family="FreeSans" font-size="10.00" fill="#000000">::TwistedtrapWrite</text>
</a>
</g>
</g>
<!-- Node491&#45;&gt;Node492 -->
<g id="edge24" class="edge">
<title>Node491&#45;&gt;Node492</title>
<path fill="none" stroke="#191970" d="M850.5039,-640.6635C877.8852,-614.8722 933.8493,-562.1576 965.7822,-532.0789"/>
<polygon fill="#191970" stroke="#191970" points="968.4715,-534.3539 973.3509,-524.9496 963.6718,-529.2585 968.4715,-534.3539"/>
</g>
<!-- Node492&#45;&gt;Node484 -->
<g id="edge25" class="edge">
<title>Node492&#45;&gt;Node484</title>
<path fill="none" stroke="#191970" d="M1049.3518,-520.0335C1141.1136,-536.7787 1310.9963,-571.8726 1359,-609.7382 1385.234,-630.4317 1368.996,-654.7564 1395,-675.7382 1400.2446,-679.9699 1406.213,-683.4556 1412.4799,-686.3268"/>
<polygon fill="#191970" stroke="#191970" points="1411.2429,-689.6018 1421.8256,-690.1089 1413.8689,-683.1131 1411.2429,-689.6018"/>
</g>
<!-- Node492&#45;&gt;Node485 -->
<g id="edge27" class="edge">
<title>Node492&#45;&gt;Node485</title>
<path fill="none" stroke="#191970" d="M1049.4001,-511.133C1092.5646,-512.7491 1152.107,-516.2332 1204,-523.7382 1273.8961,-533.8469 1296.9107,-525.0844 1359,-558.7382 1378.6188,-569.372 1374.8643,-584.1189 1395,-593.7382 1475.3837,-632.1395 1505.4058,-608.3969 1594,-617.7382 1662.788,-624.9911 1679.9942,-626.9845 1749,-631.7382 1796.7531,-635.0278 1850.1159,-637.6355 1893.5626,-639.4846"/>
<polygon fill="#191970" stroke="#191970" points="1893.6747,-642.9923 1903.8126,-639.9147 1893.9682,-635.9984 1893.6747,-642.9923"/>
</g>
<!-- Node492&#45;&gt;Node486 -->
<g id="edge26" class="edge">
<title>Node492&#45;&gt;Node486</title>
<path fill="none" stroke="#191970" d="M996.9315,-494.3957C1026.3486,-436.1161 1140.8221,-231.7382 1299.5,-231.7382 1299.5,-231.7382 1299.5,-231.7382 1653.5,-231.7382 1735.143,-231.7382 1828.0592,-225.7624 1893.9261,-220.5134"/>
<polygon fill="#191970" stroke="#191970" points="1894.5737,-223.9726 1904.2592,-219.6783 1894.0098,-216.9954 1894.5737,-223.9726"/>
</g>
<!-- Node493 -->
<g id="node11" class="node">
<title>Node493</title>
<g id="a_node11"><a xlink:href="../../d0/d94/classPHG4GDMLWriteSolids.html#a00f423d7d6692958b44bf97ef34e5ffb" target="_top" xlink:title="PHG4GDMLWriteSolids\l::TwistedtrdWrite">
<polygon fill="none" stroke="#000000" points="1085,-450.7382 1085,-480.7382 1204,-480.7382 1204,-450.7382 1085,-450.7382"/>
<text text-anchor="start" x="1093" y="-468.7382" font-family="FreeSans" font-size="10.00" fill="#000000">PHG4GDMLWriteSolids</text>
<text text-anchor="middle" x="1144.5" y="-457.7382" font-family="FreeSans" font-size="10.00" fill="#000000">::TwistedtrdWrite</text>
</a>
</g>
</g>
<!-- Node492&#45;&gt;Node493 -->
<g id="edge28" class="edge">
<title>Node492&#45;&gt;Node493</title>
<path fill="none" stroke="#191970" d="M1042.4087,-494.719C1055.058,-491.1282 1068.6824,-487.2606 1081.7287,-483.5572"/>
<polygon fill="#191970" stroke="#191970" points="1082.9027,-486.8623 1091.5668,-480.7644 1080.9911,-480.1283 1082.9027,-486.8623"/>
</g>
<!-- Node493&#45;&gt;Node484 -->
<g id="edge29" class="edge">
<title>Node493&#45;&gt;Node484</title>
<path fill="none" stroke="#191970" d="M1194.8226,-480.7671C1241.9444,-496.9308 1311.9643,-526.5641 1359,-571.7382 1383.0988,-594.8832 1373.2226,-612.3968 1395,-637.7382 1411.1821,-656.5687 1433.9634,-673.3054 1451.3278,-684.6288"/>
<polygon fill="#191970" stroke="#191970" points="1449.5324,-687.6347 1459.8508,-690.0391 1453.2839,-681.7249 1449.5324,-687.6347"/>
</g>
<!-- Node493&#45;&gt;Node485 -->
<g id="edge31" class="edge">
<title>Node493&#45;&gt;Node485</title>
<path fill="none" stroke="#191970" d="M1204.2652,-460.996C1250.1285,-460.277 1313.1505,-465.8867 1359,-495.7382 1384.4256,-512.2922 1369.7239,-536.9569 1395,-553.7382 1527.7052,-641.8436 1591.4809,-586.0534 1749,-609.7382 1799.8529,-617.3845 1857.0598,-625.5434 1901.8823,-631.8356"/>
<polygon fill="#191970" stroke="#191970" points="1901.4424,-635.308 1911.8315,-633.2301 1902.4142,-628.3758 1901.4424,-635.308"/>
</g>
<!-- Node493&#45;&gt;Node486 -->
<g id="edge30" class="edge">
<title>Node493&#45;&gt;Node486</title>
<path fill="none" stroke="#191970" d="M1157.6798,-450.6839C1199.4047,-404.788 1334.2657,-269.7382 1476.5,-269.7382 1476.5,-269.7382 1476.5,-269.7382 1653.5,-269.7382 1749.4282,-269.7382 1773.9532,-264.6436 1868,-245.7382 1893.3234,-240.6477 1921.1852,-232.4949 1942.8461,-225.5668"/>
<polygon fill="#191970" stroke="#191970" points="1944.2081,-228.8044 1952.6362,-222.3843 1942.044,-222.1473 1944.2081,-228.8044"/>
</g>
<!-- Node494 -->
<g id="node12" class="node">
<title>Node494</title>
<g id="a_node12"><a xlink:href="../../d0/d94/classPHG4GDMLWriteSolids.html#a3e3f5285136c04aa88abb5f6ba33fefb" target="_top" xlink:title="PHG4GDMLWriteSolids\l::TwistedtubsWrite">
<polygon fill="none" stroke="#000000" points="1240,-412.7382 1240,-442.7382 1359,-442.7382 1359,-412.7382 1240,-412.7382"/>
<text text-anchor="start" x="1248" y="-430.7382" font-family="FreeSans" font-size="10.00" fill="#000000">PHG4GDMLWriteSolids</text>
<text text-anchor="middle" x="1299.5" y="-419.7382" font-family="FreeSans" font-size="10.00" fill="#000000">::TwistedtubsWrite</text>
</a>
</g>
</g>
<!-- Node493&#45;&gt;Node494 -->
<g id="edge32" class="edge">
<title>Node493&#45;&gt;Node494</title>
<path fill="none" stroke="#191970" d="M1204.427,-451.0464C1212.8155,-448.9899 1221.494,-446.8623 1230.0406,-444.767"/>
<polygon fill="#191970" stroke="#191970" points="1231.1087,-448.1088 1239.9877,-442.3283 1229.4419,-441.3102 1231.1087,-448.1088"/>
</g>
<!-- Node494&#45;&gt;Node484 -->
<g id="edge33" class="edge">
<title>Node494&#45;&gt;Node484</title>
<path fill="none" stroke="#191970" d="M1308.0314,-442.8021C1319.6373,-463.325 1341.0165,-501.2395 1359,-533.7382 1375.1779,-562.9738 1376.3662,-572.0033 1395,-599.7382 1415.5633,-630.3451 1443.3854,-662.944 1460.6251,-682.3139"/>
<polygon fill="#191970" stroke="#191970" points="1458.2388,-684.8949 1467.5255,-689.9947 1463.446,-680.2167 1458.2388,-684.8949"/>
</g>
<!-- Node494&#45;&gt;Node485 -->
<g id="edge35" class="edge">
<title>Node494&#45;&gt;Node485</title>
<path fill="none" stroke="#191970" d="M1337.9434,-442.8059C1345.4874,-446.9005 1352.9326,-451.864 1359,-457.7382 1383.0057,-480.9798 1368.0025,-504.0512 1395,-523.7382 1467.7533,-576.7911 1505.4293,-545.5247 1594,-561.7382 1715.6115,-584.0001 1747.6059,-581.6279 1868,-609.7382 1892.6401,-615.4913 1919.8778,-623.4385 1941.3801,-630.0924"/>
<polygon fill="#191970" stroke="#191970" points="1940.5426,-633.4976 1951.1315,-633.1426 1942.6324,-626.8168 1940.5426,-633.4976"/>
</g>
<!-- Node494&#45;&gt;Node486 -->
<g id="edge34" class="edge">
<title>Node494&#45;&gt;Node486</title>
<path fill="none" stroke="#191970" d="M1359.1684,-412.6885C1504.4635,-376.0334 1865.0124,-285.0209 1868,-283.7382 1902.3207,-269.0034 1938.1742,-244.5515 1959.9278,-228.5395"/>
<polygon fill="#191970" stroke="#191970" points="1962.1612,-231.2398 1968.0754,-222.4493 1957.9703,-225.633 1962.1612,-231.2398"/>
</g>
<!-- Node495 -->
<g id="node13" class="node">
<title>Node495</title>
<g id="a_node13"><a xlink:href="../../d0/d94/classPHG4GDMLWriteSolids.html#a21646b90690b673d3d5f48acd22f95c3" target="_top" xlink:title="PHG4GDMLWriteSolids\l::ZplaneWrite">
<polygon fill="none" stroke="#000000" points="1417,-412.7382 1417,-442.7382 1536,-442.7382 1536,-412.7382 1417,-412.7382"/>
<text text-anchor="start" x="1425" y="-430.7382" font-family="FreeSans" font-size="10.00" fill="#000000">PHG4GDMLWriteSolids</text>
<text text-anchor="middle" x="1476.5" y="-419.7382" font-family="FreeSans" font-size="10.00" fill="#000000">::ZplaneWrite</text>
</a>
</g>
</g>
<!-- Node494&#45;&gt;Node495 -->
<g id="edge36" class="edge">
<title>Node494&#45;&gt;Node495</title>
<path fill="none" stroke="#191970" d="M1359.4241,-427.7382C1374.6441,-427.7382 1391.1272,-427.7382 1406.7875,-427.7382"/>
<polygon fill="#191970" stroke="#191970" points="1406.9383,-431.2383 1416.9382,-427.7382 1406.9382,-424.2383 1406.9383,-431.2383"/>
</g>
<!-- Node495&#45;&gt;Node485 -->
<g id="edge38" class="edge">
<title>Node495&#45;&gt;Node485</title>
<path fill="none" stroke="#191970" d="M1536.1578,-442.1423C1638.4126,-467.0893 1839.0004,-517.2492 1868,-533.7382 1910.1101,-557.6817 1948.0853,-601.0765 1967.2927,-625.2622"/>
<polygon fill="#191970" stroke="#191970" points="1964.59,-627.4882 1973.4928,-633.232 1970.115,-623.19 1964.59,-627.4882"/>
</g>
<!-- Node495&#45;&gt;Node486 -->
<g id="edge37" class="edge">
<title>Node495&#45;&gt;Node486</title>
<path fill="none" stroke="#191970" d="M1536.1578,-413.3341C1638.4126,-388.3871 1839.0004,-338.2272 1868,-321.7382 1910.1101,-297.7947 1948.0853,-254.3999 1967.2927,-230.2142"/>
<polygon fill="#191970" stroke="#191970" points="1970.115,-232.2864 1973.4928,-222.2444 1964.59,-227.9882 1970.115,-232.2864"/>
</g>
<!-- Node496 -->
<g id="node14" class="node">
<title>Node496</title>
<g id="a_node14"><a xlink:href="../../d0/d94/classPHG4GDMLWriteSolids.html#a76c8c5f156836bf33c21ea9235afad2c" target="_top" xlink:title="PHG4GDMLWriteSolids\l::RZPointWrite">
<polygon fill="none" stroke="#000000" points="1594,-412.7382 1594,-442.7382 1713,-442.7382 1713,-412.7382 1594,-412.7382"/>
<text text-anchor="start" x="1602" y="-430.7382" font-family="FreeSans" font-size="10.00" fill="#000000">PHG4GDMLWriteSolids</text>
<text text-anchor="middle" x="1653.5" y="-419.7382" font-family="FreeSans" font-size="10.00" fill="#000000">::RZPointWrite</text>
</a>
</g>
</g>
<!-- Node495&#45;&gt;Node496 -->
<g id="edge39" class="edge">
<title>Node495&#45;&gt;Node496</title>
<path fill="none" stroke="#191970" d="M1536.4241,-427.7382C1551.6441,-427.7382 1568.1272,-427.7382 1583.7875,-427.7382"/>
<polygon fill="#191970" stroke="#191970" points="1583.9383,-431.2383 1593.9382,-427.7382 1583.9382,-424.2383 1583.9383,-431.2383"/>
</g>
<!-- Node496&#45;&gt;Node485 -->
<g id="edge41" class="edge">
<title>Node496&#45;&gt;Node485</title>
<path fill="none" stroke="#191970" d="M1706.5643,-442.7496C1765.6026,-459.7343 1854.513,-486.266 1868,-495.7382 1917.3597,-530.4046 1954.8133,-593.2541 1971.2872,-624.3279"/>
<polygon fill="#191970" stroke="#191970" points="1968.1852,-625.9489 1975.8872,-633.2242 1974.4032,-622.7338 1968.1852,-625.9489"/>
</g>
<!-- Node496&#45;&gt;Node486 -->
<g id="edge40" class="edge">
<title>Node496&#45;&gt;Node486</title>
<path fill="none" stroke="#191970" d="M1713.1484,-413.137C1767.4353,-399.0836 1842.8242,-377.4197 1868,-359.7382 1917.3597,-325.0718 1954.8133,-262.2223 1971.2872,-231.1485"/>
<polygon fill="#191970" stroke="#191970" points="1974.4032,-232.7426 1975.8872,-222.2522 1968.1852,-229.5275 1974.4032,-232.7426"/>
</g>
<!-- Node497 -->
<g id="node15" class="node">
<title>Node497</title>
<g id="a_node15"><a xlink:href="../../d0/d94/classPHG4GDMLWriteSolids.html#aeff594027a690ae9d0146a298ed2481c" target="_top" xlink:title="PHG4GDMLWriteSolids\l::OpticalSurfaceWrite">
<polygon fill="none" stroke="#000000" points="1749,-412.7382 1749,-442.7382 1868,-442.7382 1868,-412.7382 1749,-412.7382"/>
<text text-anchor="start" x="1757" y="-430.7382" font-family="FreeSans" font-size="10.00" fill="#000000">PHG4GDMLWriteSolids</text>
<text text-anchor="middle" x="1808.5" y="-419.7382" font-family="FreeSans" font-size="10.00" fill="#000000">::OpticalSurfaceWrite</text>
</a>
</g>
</g>
<!-- Node496&#45;&gt;Node497 -->
<g id="edge42" class="edge">
<title>Node496&#45;&gt;Node497</title>
<path fill="none" stroke="#191970" d="M1713.427,-427.7382C1721.7244,-427.7382 1730.3054,-427.7382 1738.7618,-427.7382"/>
<polygon fill="#191970" stroke="#191970" points="1738.9877,-431.2383 1748.9877,-427.7382 1738.9877,-424.2383 1738.9877,-431.2383"/>
</g>
<!-- Node497&#45;&gt;Node485 -->
<g id="edge44" class="edge">
<title>Node497&#45;&gt;Node485</title>
<path fill="none" stroke="#191970" d="M1846.4237,-442.8599C1854.0865,-446.9725 1861.7113,-451.9297 1868,-457.7382 1921.2819,-506.9511 1958.1553,-587.0765 1973.0857,-623.5576"/>
<polygon fill="#191970" stroke="#191970" points="1969.9024,-625.0237 1976.8604,-633.0135 1976.4035,-622.4285 1969.9024,-625.0237"/>
</g>
<!-- Node497&#45;&gt;Node486 -->
<g id="edge43" class="edge">
<title>Node497&#45;&gt;Node486</title>
<path fill="none" stroke="#191970" d="M1846.4237,-412.6165C1854.0865,-408.5039 1861.7113,-403.5467 1868,-397.7382 1921.2819,-348.5253 1958.1553,-268.4 1973.0857,-231.9188"/>
<polygon fill="#191970" stroke="#191970" points="1976.4035,-233.0479 1976.8604,-222.4629 1969.9024,-230.4527 1976.4035,-233.0479"/>
</g>
</g>
</svg>
