<?xml version="1.0" encoding="UTF-8" standalone="no"?>
<!DOCTYPE svg PUBLIC "-//W3C//DTD SVG 1.1//EN"
 "http://www.w3.org/Graphics/SVG/1.1/DTD/svg11.dtd">
<!-- Generated by graphviz version 2.30.1 (20200930.0103)
 -->
<!-- Title: SubsysRecoBG::process_event Pages: 1 -->
<svg width="1772pt" height="896pt"
 viewBox="0.00 0.00 1772.00 896.20" xmlns="http://www.w3.org/2000/svg" xmlns:xlink="http://www.w3.org/1999/xlink">
<g id="graph0" class="graph" transform="scale(1 1) rotate(0) translate(4 892.198)">
<title>SubsysRecoBG::process_event</title>
<!-- Node1 -->
<g id="node1" class="node"><title>Node1</title>
<polygon fill="#bfbfbf" stroke="black" points="0,-99 0,-129 122,-129 122,-99 0,-99"/>
<text text-anchor="start" x="8" y="-117" font-family="FreeSans" font-size="10.00">SubsysRecoBG::process</text>
<text text-anchor="middle" x="61" y="-106" font-family="FreeSans" font-size="10.00">_event</text>
</g>
<!-- Node2 -->
<g id="node2" class="node"><title>Node2</title>
<g id="a_node2"><a xlink:href="../../d6/d44/classSubsysRecoBG.html#a48e2f33bfc0e198d81e58285a88e0c29" target="_top" target="_top" target="_top" xlink:title="SubsysRecoBG::ExtractHits">
<polygon fill="none" stroke="black" points="158.5,-214.5 158.5,-233.5 293.5,-233.5 293.5,-214.5 158.5,-214.5"/>
<text text-anchor="middle" x="226" y="-221.5" font-family="FreeSans" font-size="10.00">SubsysRecoBG::ExtractHits</text>
</a>
</g>
</g>
<!-- Node1&#45;&gt;Node2 -->
<g id="edge1" class="edge"><title>Node1&#45;&gt;Node2</title>
<path fill="none" stroke="midnightblue" d="M74.0524,-129.004C90.8369,-148.939 123.139,-183.965 158,-204 162.554,-206.617 167.482,-208.921 172.528,-210.942"/>
<polygon fill="midnightblue" stroke="midnightblue" points="171.715,-214.371 182.309,-214.49 174.102,-207.79 171.715,-214.371"/>
</g>
<!-- Node46 -->
<g id="node46" class="node"><title>Node46</title>
<g id="a_node46"><a xlink:href="../../d9/d3d/classSQMCEvent.html#aff2a1d1dd69ad3d846745d2704a88c48" target="_top" target="_top" target="_top" xlink:title="Return the cross section. ">
<polygon fill="none" stroke="black" points="168,-165 168,-195 284,-195 284,-165 168,-165"/>
<text text-anchor="start" x="176" y="-183" font-family="FreeSans" font-size="10.00">SQMCEvent::get_cross</text>
<text text-anchor="middle" x="226" y="-172" font-family="FreeSans" font-size="10.00">_section</text>
</a>
</g>
</g>
<!-- Node1&#45;&gt;Node46 -->
<g id="edge59" class="edge"><title>Node1&#45;&gt;Node46</title>
<path fill="none" stroke="midnightblue" d="M96.4979,-129.193C114.705,-137.095 137.47,-146.791 158,-155 163.188,-157.074 168.622,-159.192 174.055,-161.273"/>
<polygon fill="midnightblue" stroke="midnightblue" points="173.191,-164.689 183.782,-164.964 175.674,-158.144 173.191,-164.689"/>
</g>
<!-- Node47 -->
<g id="node47" class="node"><title>Node47</title>
<g id="a_node47"><a xlink:href="../../d9/dd7/classSQEvent.html#ae99eb349fe38c0a3e655cadeecb8772a" target="_top" target="_top" target="_top" xlink:title="Return the event ID, which is unique per run. ">
<polygon fill="none" stroke="black" points="169,-126.5 169,-145.5 283,-145.5 283,-126.5 169,-126.5"/>
<text text-anchor="middle" x="226" y="-133.5" font-family="FreeSans" font-size="10.00">SQEvent::get_event_id</text>
</a>
</g>
</g>
<!-- Node1&#45;&gt;Node47 -->
<g id="edge60" class="edge"><title>Node1&#45;&gt;Node47</title>
<path fill="none" stroke="midnightblue" d="M122.232,-122.129C134.135,-123.736 146.689,-125.43 158.777,-127.062"/>
<polygon fill="midnightblue" stroke="midnightblue" points="158.419,-130.545 168.798,-128.414 159.356,-123.608 158.419,-130.545"/>
</g>
<!-- Node48 -->
<g id="node48" class="node"><title>Node48</title>
<g id="a_node48"><a xlink:href="../../d9/dd7/classSQEvent.html#a7592da49f16b4a1ad6ccf1fbf4ce8d31" target="_top" target="_top" target="_top" xlink:title="Return the i&#45;th QIE RF intensity, where i=&#45;16...+16. ">
<polygon fill="none" stroke="black" points="175,-77 175,-107 277,-107 277,-77 175,-77"/>
<text text-anchor="start" x="183" y="-95" font-family="FreeSans" font-size="10.00">SQEvent::get_qie_rf</text>
<text text-anchor="middle" x="226" y="-84" font-family="FreeSans" font-size="10.00">_intensity</text>
</a>
</g>
</g>
<!-- Node1&#45;&gt;Node48 -->
<g id="edge61" class="edge"><title>Node1&#45;&gt;Node48</title>
<path fill="none" stroke="midnightblue" d="M122.232,-105.871C136.171,-103.989 151.001,-101.988 164.933,-100.107"/>
<polygon fill="midnightblue" stroke="midnightblue" points="165.45,-103.569 174.892,-98.763 164.514,-96.6321 165.45,-103.569"/>
</g>
<!-- Node49 -->
<g id="node49" class="node"><title>Node49</title>
<g id="a_node49"><a xlink:href="../../d9/dd7/classSQEvent.html#a392d15330793852b00fa9bc842604dca" target="_top" target="_top" target="_top" xlink:title="Return the run ID. ">
<polygon fill="none" stroke="black" points="174,-38.5 174,-57.5 278,-57.5 278,-38.5 174,-38.5"/>
<text text-anchor="middle" x="226" y="-45.5" font-family="FreeSans" font-size="10.00">SQEvent::get_run_id</text>
</a>
</g>
</g>
<!-- Node1&#45;&gt;Node49 -->
<g id="edge62" class="edge"><title>Node1&#45;&gt;Node49</title>
<path fill="none" stroke="midnightblue" d="M89.5561,-98.8694C108.435,-88.9148 134.259,-76.0938 158,-67 164.002,-64.7011 170.4,-62.5377 176.771,-60.5527"/>
<polygon fill="midnightblue" stroke="midnightblue" points="178.12,-63.8026 186.699,-57.5863 176.116,-57.0956 178.12,-63.8026"/>
</g>
<!-- Node50 -->
<g id="node50" class="node"><title>Node50</title>
<g id="a_node50"><a xlink:href="../../d9/dd7/classSQEvent.html#a7965e4398ca4e41dc4133a958b3caa29" target="_top" target="_top" target="_top" xlink:title="Return the trigger bit (fired or not) of the selected trigger channel. ">
<polygon fill="none" stroke="black" points="173.5,-0.5 173.5,-19.5 278.5,-19.5 278.5,-0.5 173.5,-0.5"/>
<text text-anchor="middle" x="226" y="-7.5" font-family="FreeSans" font-size="10.00">SQEvent::get_trigger</text>
</a>
</g>
</g>
<!-- Node1&#45;&gt;Node50 -->
<g id="edge63" class="edge"><title>Node1&#45;&gt;Node50</title>
<path fill="none" stroke="midnightblue" d="M75.0754,-98.8167C92.2497,-79.8014 124.213,-47.4806 158,-29 162.157,-26.7263 166.611,-24.7036 171.174,-22.9081"/>
<polygon fill="midnightblue" stroke="midnightblue" points="172.39,-26.1905 180.633,-19.5345 170.038,-19.5973 172.39,-26.1905"/>
</g>
<!-- Node3 -->
<g id="node3" class="node"><title>Node3</title>
<g id="a_node3"><a xlink:href="../../d0/dc5/namespaceUtilSQHit.html#a5fb03b8a409fe9772bfae09b0d316aba" target="_top" target="_top" target="_top" xlink:title="Extract a set of first hits that are of the given detector (det_name), where &quot;first&quot; means the earlie...">
<polygon fill="none" stroke="black" points="330,-214.5 330,-233.5 446,-233.5 446,-214.5 330,-214.5"/>
<text text-anchor="middle" x="388" y="-221.5" font-family="FreeSans" font-size="10.00">UtilSQHit::FindFirstHits</text>
</a>
</g>
</g>
<!-- Node2&#45;&gt;Node3 -->
<g id="edge2" class="edge"><title>Node2&#45;&gt;Node3</title>
<path fill="none" stroke="midnightblue" d="M293.927,-224C302.451,-224 311.177,-224 319.706,-224"/>
<polygon fill="midnightblue" stroke="midnightblue" points="319.984,-227.5 329.984,-224 319.984,-220.5 319.984,-227.5"/>
</g>
<!-- Node4 -->
<g id="node4" class="node"><title>Node4</title>
<g id="a_node4"><a xlink:href="../../d0/da0/classGeomSvc.html#a2b7ecf5467120206b9479654c48ad7c4" target="_top" target="_top" target="_top" xlink:title="singlton instance ">
<polygon fill="none" stroke="black" points="482,-416.5 482,-435.5 582,-435.5 582,-416.5 482,-416.5"/>
<text text-anchor="middle" x="532" y="-423.5" font-family="FreeSans" font-size="10.00">GeomSvc::instance</text>
</a>
</g>
</g>
<!-- Node3&#45;&gt;Node4 -->
<g id="edge3" class="edge"><title>Node3&#45;&gt;Node4</title>
<path fill="none" stroke="midnightblue" d="M395.849,-233.743C418.202,-265.541 489.257,-366.62 518.373,-408.037"/>
<polygon fill="midnightblue" stroke="midnightblue" points="515.605,-410.187 524.22,-416.355 521.332,-406.161 515.605,-410.187"/>
</g>
<!-- Node31 -->
<g id="node31" class="node"><title>Node31</title>
<g id="a_node31"><a xlink:href="../../d0/da0/classGeomSvc.html#a3e4f40789e9b2a98477ab8e8191d5ff2" target="_top" target="_top" target="_top" xlink:title="Get the plane position. ">
<polygon fill="none" stroke="black" points="1317,-34.5 1317,-53.5 1441,-53.5 1441,-34.5 1317,-34.5"/>
<text text-anchor="middle" x="1379" y="-41.5" font-family="FreeSans" font-size="10.00">GeomSvc::getDetectorID</text>
</a>
</g>
</g>
<!-- Node3&#45;&gt;Node31 -->
<g id="edge58" class="edge"><title>Node3&#45;&gt;Node31</title>
<path fill="none" stroke="midnightblue" d="M396.059,-214.322C424.223,-176.935 533.011,-44 656,-44 656,-44 656,-44 1002,-44 1107.99,-44 1230.78,-44 1306.43,-44"/>
<polygon fill="midnightblue" stroke="midnightblue" points="1306.78,-47.5001 1316.78,-44 1306.78,-40.5001 1306.78,-47.5001"/>
</g>
<!-- Node5 -->
<g id="node5" class="node"><title>Node5</title>
<g id="a_node5"><a xlink:href="../../d0/da0/classGeomSvc.html#a96ec4efc82cbaed0b5623e4dd69385b6" target="_top" target="_top" target="_top" xlink:title="Initialization, either from MySQL or from ascii file. ">
<polygon fill="none" stroke="black" points="618.5,-678.5 618.5,-697.5 695.5,-697.5 695.5,-678.5 618.5,-678.5"/>
<text text-anchor="middle" x="657" y="-685.5" font-family="FreeSans" font-size="10.00">GeomSvc::init</text>
</a>
</g>
</g>
<!-- Node4&#45;&gt;Node5 -->
<g id="edge4" class="edge"><title>Node4&#45;&gt;Node5</title>
<path fill="none" stroke="midnightblue" d="M537.524,-435.635C555.605,-474.151 622.88,-617.452 647.177,-669.205"/>
<polygon fill="midnightblue" stroke="midnightblue" points="644.017,-670.712 651.435,-678.277 650.354,-667.737 644.017,-670.712"/>
</g>
<!-- Node6 -->
<g id="node6" class="node"><title>Node6</title>
<g id="a_node6"><a xlink:href="../../d0/da0/classGeomSvc.html#adbe1473f9b3a8ff942da8d7d8ee28322" target="_top" target="_top" target="_top" xlink:title="GeomSvc::initPlaneDbSvc">
<polygon fill="none" stroke="black" points="744,-716.5 744,-735.5 874,-735.5 874,-716.5 744,-716.5"/>
<text text-anchor="middle" x="809" y="-723.5" font-family="FreeSans" font-size="10.00">GeomSvc::initPlaneDbSvc</text>
</a>
</g>
</g>
<!-- Node5&#45;&gt;Node6 -->
<g id="edge5" class="edge"><title>Node5&#45;&gt;Node6</title>
<path fill="none" stroke="midnightblue" d="M694.876,-697.517C706.726,-700.563 719.914,-703.938 732,-707 741.004,-709.281 750.613,-711.698 759.864,-714.015"/>
<polygon fill="midnightblue" stroke="midnightblue" points="759.164,-717.448 769.715,-716.479 760.863,-710.657 759.164,-717.448"/>
</g>
<!-- Node39 -->
<g id="node39" class="node"><title>Node39</title>
<g id="a_node39"><a xlink:href="../../d0/da0/classGeomSvc.html#a0d550b9f787318d57cdae9db2d04d6fb" target="_top" target="_top" target="_top" xlink:title="GeomSvc::initPlaneDirect">
<polygon fill="none" stroke="black" points="745.5,-678.5 745.5,-697.5 872.5,-697.5 872.5,-678.5 745.5,-678.5"/>
<text text-anchor="middle" x="809" y="-685.5" font-family="FreeSans" font-size="10.00">GeomSvc::initPlaneDirect</text>
</a>
</g>
</g>
<!-- Node5&#45;&gt;Node39 -->
<g id="edge49" class="edge"><title>Node5&#45;&gt;Node39</title>
<path fill="none" stroke="midnightblue" d="M695.851,-688C707.816,-688 721.468,-688 735.032,-688"/>
<polygon fill="midnightblue" stroke="midnightblue" points="735.357,-691.5 745.357,-688 735.357,-684.5 735.357,-691.5"/>
</g>
<!-- Node40 -->
<g id="node40" class="node"><title>Node40</title>
<g id="a_node40"><a xlink:href="../../d0/da0/classGeomSvc.html#a0c78d3ac904cfbb367e96c73f176630d" target="_top" target="_top" target="_top" xlink:title="GeomSvc::initWireLUT">
<polygon fill="none" stroke="black" points="752,-640.5 752,-659.5 866,-659.5 866,-640.5 752,-640.5"/>
<text text-anchor="middle" x="809" y="-647.5" font-family="FreeSans" font-size="10.00">GeomSvc::initWireLUT</text>
</a>
</g>
</g>
<!-- Node5&#45;&gt;Node40 -->
<g id="edge50" class="edge"><title>Node5&#45;&gt;Node40</title>
<path fill="none" stroke="midnightblue" d="M694.876,-678.483C706.726,-675.437 719.914,-672.062 732,-669 741.004,-666.719 750.613,-664.302 759.864,-661.985"/>
<polygon fill="midnightblue" stroke="midnightblue" points="760.863,-665.343 769.715,-659.521 759.164,-658.552 760.863,-665.343"/>
</g>
<!-- Node7 -->
<g id="node7" class="node"><title>Node7</title>
<g id="a_node7"><a xlink:href="../../d8/d14/classrecoConsts.html#aea8535068aa74d8acf1f98e938a1ff85" target="_top" target="_top" target="_top" xlink:title="recoConsts::instance">
<polygon fill="none" stroke="black" points="1326.5,-643.5 1326.5,-662.5 1431.5,-662.5 1431.5,-643.5 1326.5,-643.5"/>
<text text-anchor="middle" x="1379" y="-650.5" font-family="FreeSans" font-size="10.00">recoConsts::instance</text>
</a>
</g>
</g>
<!-- Node5&#45;&gt;Node7 -->
<g id="edge51" class="edge"><title>Node5&#45;&gt;Node7</title>
<path fill="none" stroke="midnightblue" d="M666.387,-697.601C679.009,-711.234 704.368,-735.592 732,-745 961.938,-823.291 1049.53,-803.473 1278,-721 1309.82,-709.512 1341.21,-685.541 1360.1,-669.356"/>
<polygon fill="midnightblue" stroke="midnightblue" points="1362.42,-671.976 1367.62,-662.747 1357.8,-666.716 1362.42,-671.976"/>
</g>
<!-- Node41 -->
<g id="node41" class="node"><title>Node41</title>
<g id="a_node41"><a xlink:href="../../d0/da0/classGeomSvc.html#ab6c810e39b86ce66a4be6a596b4d54b8" target="_top" target="_top" target="_top" xlink:title="GeomSvc::loadAlignment">
<polygon fill="none" stroke="black" points="746.5,-602.5 746.5,-621.5 871.5,-621.5 871.5,-602.5 746.5,-602.5"/>
<text text-anchor="middle" x="809" y="-609.5" font-family="FreeSans" font-size="10.00">GeomSvc::loadAlignment</text>
</a>
</g>
</g>
<!-- Node5&#45;&gt;Node41 -->
<g id="edge52" class="edge"><title>Node5&#45;&gt;Node41</title>
<path fill="none" stroke="midnightblue" d="M667.636,-678.422C680.966,-665.711 706.308,-643.432 732,-631 736.974,-628.593 742.283,-626.472 747.695,-624.606"/>
<polygon fill="midnightblue" stroke="midnightblue" points="749.014,-627.86 757.5,-621.517 746.91,-621.184 749.014,-627.86"/>
</g>
<!-- Node42 -->
<g id="node42" class="node"><title>Node42</title>
<g id="a_node42"><a xlink:href="../../d0/da0/classGeomSvc.html#abc60088ed5985a796f5df18ae4299661" target="_top" target="_top" target="_top" xlink:title="GeomSvc::loadCalibration">
<polygon fill="none" stroke="black" points="745,-564.5 745,-583.5 873,-583.5 873,-564.5 745,-564.5"/>
<text text-anchor="middle" x="809" y="-571.5" font-family="FreeSans" font-size="10.00">GeomSvc::loadCalibration</text>
</a>
</g>
</g>
<!-- Node5&#45;&gt;Node42 -->
<g id="edge53" class="edge"><title>Node5&#45;&gt;Node42</title>
<path fill="none" stroke="midnightblue" d="M662.63,-678.474C672.525,-659.165 697.658,-615.353 732,-593 735.149,-590.95 738.503,-589.122 741.982,-587.491"/>
<polygon fill="midnightblue" stroke="midnightblue" points="743.501,-590.65 751.425,-583.617 740.845,-584.174 743.501,-590.65"/>
</g>
<!-- Node44 -->
<g id="node44" class="node"><title>Node44</title>
<g id="a_node44"><a xlink:href="../../d0/da0/classGeomSvc.html#a418543d7b33fc95092b2cd4a7496f1b8" target="_top" target="_top" target="_top" xlink:title="GeomSvc::loadMilleAlignment">
<polygon fill="none" stroke="black" points="928,-849.5 928,-868.5 1074,-868.5 1074,-849.5 928,-849.5"/>
<text text-anchor="middle" x="1001" y="-856.5" font-family="FreeSans" font-size="10.00">GeomSvc::loadMilleAlignment</text>
</a>
</g>
</g>
<!-- Node5&#45;&gt;Node44 -->
<g id="edge55" class="edge"><title>Node5&#45;&gt;Node44</title>
<path fill="none" stroke="midnightblue" d="M658.688,-697.651C661.425,-727.913 674.412,-821.172 732,-859 801.742,-904.811 905.292,-886.437 961.056,-871.325"/>
<polygon fill="midnightblue" stroke="midnightblue" points="962.216,-874.635 970.894,-868.557 960.32,-867.896 962.216,-874.635"/>
</g>
<!-- Node45 -->
<g id="node45" class="node"><title>Node45</title>
<g id="a_node45"><a xlink:href="../../d0/da0/classGeomSvc.html#a6234a9e4de78f5667104d23c8828b79f" target="_top" target="_top" target="_top" xlink:title="Load parameters used in the online&#45;alignment mode. ">
<polygon fill="none" stroke="black" points="732.5,-830.5 732.5,-849.5 885.5,-849.5 885.5,-830.5 732.5,-830.5"/>
<text text-anchor="middle" x="809" y="-837.5" font-family="FreeSans" font-size="10.00">GeomSvc::loadOnlineAlignment</text>
</a>
</g>
</g>
<!-- Node5&#45;&gt;Node45 -->
<g id="edge56" class="edge"><title>Node5&#45;&gt;Node45</title>
<path fill="none" stroke="midnightblue" d="M660.864,-697.642C668.418,-721.405 691.16,-783.227 732,-816 737.293,-820.247 743.347,-823.748 749.677,-826.633"/>
<polygon fill="midnightblue" stroke="midnightblue" points="748.509,-829.935 759.092,-830.433 751.129,-823.444 748.509,-829.935"/>
</g>
<!-- Node6&#45;&gt;Node7 -->
<g id="edge6" class="edge"><title>Node6&#45;&gt;Node7</title>
<path fill="none" stroke="midnightblue" d="M874.194,-728.389C965.3,-730.291 1136.74,-728.356 1278,-695 1303.83,-688.901 1331.53,-676.788 1351.21,-667.131"/>
<polygon fill="midnightblue" stroke="midnightblue" points="1352.82,-670.24 1360.18,-662.624 1349.68,-663.984 1352.82,-670.24"/>
</g>
<!-- Node14 -->
<g id="node14" class="node"><title>Node14</title>
<g id="a_node14"><a xlink:href="../../df/dbc/run_8C.html#a078d38b1d96e7c0e4f35d93363cc8325" target="_top" target="_top" target="_top" xlink:title="run">
<polygon fill="none" stroke="black" points="986,-416.5 986,-435.5 1016,-435.5 1016,-416.5 986,-416.5"/>
<text text-anchor="middle" x="1001" y="-423.5" font-family="FreeSans" font-size="10.00">run</text>
</a>
</g>
</g>
<!-- Node6&#45;&gt;Node14 -->
<g id="edge13" class="edge"><title>Node6&#45;&gt;Node14</title>
<path fill="none" stroke="midnightblue" d="M873.211,-716.323C877.917,-713.839 882.273,-710.774 886,-707 934.785,-657.606 895.722,-619.259 922,-555 939.305,-512.684 969.311,-468.053 986.628,-443.97"/>
<polygon fill="midnightblue" stroke="midnightblue" points="989.526,-445.935 992.59,-435.793 983.87,-441.811 989.526,-445.935"/>
</g>
<!-- Node38 -->
<g id="node38" class="node"><title>Node38</title>
<g id="a_node38"><a xlink:href="../../d0/da0/classGeomSvc.html#a315e886f05db8254ed7d320706e268e6" target="_top" target="_top" target="_top" xlink:title="Convert the official detectorName to local detectorName. ">
<polygon fill="none" stroke="black" points="922,-678.5 922,-697.5 1080,-697.5 1080,-678.5 922,-678.5"/>
<text text-anchor="middle" x="1001" y="-685.5" font-family="FreeSans" font-size="10.00">GeomSvc::toLocalDetectorName</text>
</a>
</g>
</g>
<!-- Node6&#45;&gt;Node38 -->
<g id="edge48" class="edge"><title>Node6&#45;&gt;Node38</title>
<path fill="none" stroke="midnightblue" d="M857.945,-716.411C883.582,-711.284 915.336,-704.933 942.316,-699.537"/>
<polygon fill="midnightblue" stroke="midnightblue" points="943.28,-702.913 952.4,-697.52 941.908,-696.049 943.28,-702.913"/>
</g>
<!-- Node8 -->
<g id="node8" class="node"><title>Node8</title>
<g id="a_node8"><a xlink:href="../../d8/d14/classrecoConsts.html#ae882d6adc62f783ec78114fe3dee3c24" target="_top" target="_top" target="_top" xlink:title="recoConsts::recoConsts">
<polygon fill="none" stroke="black" points="1482.5,-643.5 1482.5,-662.5 1599.5,-662.5 1599.5,-643.5 1482.5,-643.5"/>
<text text-anchor="middle" x="1541" y="-650.5" font-family="FreeSans" font-size="10.00">recoConsts::recoConsts</text>
</a>
</g>
</g>
<!-- Node7&#45;&gt;Node8 -->
<g id="edge7" class="edge"><title>Node7&#45;&gt;Node8</title>
<path fill="none" stroke="midnightblue" d="M1431.51,-653C1444.46,-653 1458.57,-653 1472.19,-653"/>
<polygon fill="midnightblue" stroke="midnightblue" points="1472.49,-656.5 1482.49,-653 1472.49,-649.5 1472.49,-656.5"/>
</g>
<!-- Node9 -->
<g id="node9" class="node"><title>Node9</title>
<g id="a_node9"><a xlink:href="../../d8/d14/classrecoConsts.html#a864b1da9614924988d09542c268c42dc" target="_top" target="_top" target="_top" xlink:title="set the default value for all the constants needed &#45; user is supposed to add a default value here to ...">
<polygon fill="none" stroke="black" points="1480.5,-531.5 1480.5,-550.5 1601.5,-550.5 1601.5,-531.5 1480.5,-531.5"/>
<text text-anchor="middle" x="1541" y="-538.5" font-family="FreeSans" font-size="10.00">recoConsts::set_defaults</text>
</a>
</g>
</g>
<!-- Node7&#45;&gt;Node9 -->
<g id="edge8" class="edge"><title>Node7&#45;&gt;Node9</title>
<path fill="none" stroke="midnightblue" d="M1393.64,-643.451C1421.39,-624.027 1484.61,-579.77 1518.16,-556.289"/>
<polygon fill="midnightblue" stroke="midnightblue" points="1520.21,-559.127 1526.39,-550.525 1516.19,-553.392 1520.21,-559.127"/>
</g>
<!-- Node10 -->
<g id="node10" class="node"><title>Node10</title>
<g id="a_node10"><a xlink:href="../../d1/da8/classPHFlag.html#a5aaf1fedd8907f4b2b0c9535a4491f42" target="_top" target="_top" target="_top" xlink:title="PHFlag::set_BoolFlag">
<polygon fill="none" stroke="black" points="1646,-733.5 1646,-752.5 1756,-752.5 1756,-733.5 1646,-733.5"/>
<text text-anchor="middle" x="1701" y="-740.5" font-family="FreeSans" font-size="10.00">PHFlag::set_BoolFlag</text>
</a>
</g>
</g>
<!-- Node9&#45;&gt;Node10 -->
<g id="edge9" class="edge"><title>Node9&#45;&gt;Node10</title>
<path fill="none" stroke="midnightblue" d="M1549.62,-550.743C1574.54,-582.608 1653.89,-684.045 1686.15,-725.297"/>
<polygon fill="midnightblue" stroke="midnightblue" points="1683.54,-727.635 1692.46,-733.355 1689.05,-723.322 1683.54,-727.635"/>
</g>
<!-- Node11 -->
<g id="node11" class="node"><title>Node11</title>
<g id="a_node11"><a xlink:href="../../d8/d14/classrecoConsts.html#aec7c7c885b190f7dbb57ac99af4587e6" target="_top" target="_top" target="_top" xlink:title="overide the virtual function to expand the environmental variables ">
<polygon fill="none" stroke="red" points="1638,-531.5 1638,-550.5 1764,-550.5 1764,-531.5 1638,-531.5"/>
<text text-anchor="middle" x="1701" y="-538.5" font-family="FreeSans" font-size="10.00">recoConsts::set_CharFlag</text>
</a>
</g>
</g>
<!-- Node9&#45;&gt;Node11 -->
<g id="edge10" class="edge"><title>Node9&#45;&gt;Node11</title>
<path fill="none" stroke="midnightblue" d="M1601.73,-541C1610.21,-541 1619.01,-541 1627.69,-541"/>
<polygon fill="midnightblue" stroke="midnightblue" points="1627.81,-544.5 1637.81,-541 1627.81,-537.5 1627.81,-544.5"/>
</g>
<!-- Node12 -->
<g id="node12" class="node"><title>Node12</title>
<g id="a_node12"><a xlink:href="../../d1/da8/classPHFlag.html#a64f8c67e9313e5cecdbed51f747026da" target="_top" target="_top" target="_top" xlink:title="PHFlag::set_DoubleFlag">
<polygon fill="none" stroke="black" points="1641,-192.5 1641,-211.5 1761,-211.5 1761,-192.5 1641,-192.5"/>
<text text-anchor="middle" x="1701" y="-199.5" font-family="FreeSans" font-size="10.00">PHFlag::set_DoubleFlag</text>
</a>
</g>
</g>
<!-- Node9&#45;&gt;Node12 -->
<g id="edge11" class="edge"><title>Node9&#45;&gt;Node12</title>
<path fill="none" stroke="midnightblue" d="M1546.56,-531.22C1568.32,-484.533 1661.78,-284.002 1691.14,-221.011"/>
<polygon fill="midnightblue" stroke="midnightblue" points="1694.37,-222.362 1695.42,-211.82 1688.03,-219.405 1694.37,-222.362"/>
</g>
<!-- Node13 -->
<g id="node13" class="node"><title>Node13</title>
<g id="a_node13"><a xlink:href="../../d1/da8/classPHFlag.html#a3ef5c3f1eff2daaaf18e5129858a9ef8" target="_top" target="_top" target="_top" xlink:title="PHFlag::set_IntFlag">
<polygon fill="none" stroke="black" points="1650.5,-411.5 1650.5,-430.5 1751.5,-430.5 1751.5,-411.5 1650.5,-411.5"/>
<text text-anchor="middle" x="1701" y="-418.5" font-family="FreeSans" font-size="10.00">PHFlag::set_IntFlag</text>
</a>
</g>
</g>
<!-- Node9&#45;&gt;Node13 -->
<g id="edge12" class="edge"><title>Node9&#45;&gt;Node13</title>
<path fill="none" stroke="midnightblue" d="M1554.66,-531.383C1581.82,-510.757 1645.89,-462.098 1679.15,-436.838"/>
<polygon fill="midnightblue" stroke="midnightblue" points="1681.43,-439.499 1687.28,-430.663 1677.2,-433.924 1681.43,-439.499"/>
</g>
<!-- Node15 -->
<g id="node15" class="node"><title>Node15</title>
<g id="a_node15"><a xlink:href="../../d5/de9/E1039Shielding_2ana_8C.html#a24b637aefa84c667b63905e9be5a8f69" target="_top" target="_top" target="_top" xlink:title="ana">
<polygon fill="none" stroke="black" points="1181,-514.5 1181,-533.5 1213,-533.5 1213,-514.5 1181,-514.5"/>
<text text-anchor="middle" x="1197" y="-521.5" font-family="FreeSans" font-size="10.00">ana</text>
</a>
</g>
</g>
<!-- Node14&#45;&gt;Node15 -->
<g id="edge14" class="edge"><title>Node14&#45;&gt;Node15</title>
<path fill="none" stroke="midnightblue" d="M1012.8,-435.591C1032.11,-452.236 1074.44,-486.46 1116,-505 1133.37,-512.749 1154.33,-517.579 1170.44,-520.429"/>
<polygon fill="midnightblue" stroke="midnightblue" points="1170.28,-523.949 1180.71,-522.097 1171.4,-517.04 1170.28,-523.949"/>
</g>
<!-- Node17 -->
<g id="node17" class="node"><title>Node17</title>
<g id="a_node17"><a xlink:href="../../da/d29/classFun4AllServer.html#ab7263450319ca1d5029209fde26a7af8" target="_top" target="_top" target="_top" xlink:title="Fun4AllServer::End">
<polygon fill="none" stroke="black" points="1148,-476.5 1148,-495.5 1246,-495.5 1246,-476.5 1148,-476.5"/>
<text text-anchor="middle" x="1197" y="-483.5" font-family="FreeSans" font-size="10.00">Fun4AllServer::End</text>
</a>
</g>
</g>
<!-- Node14&#45;&gt;Node17 -->
<g id="edge16" class="edge"><title>Node14&#45;&gt;Node17</title>
<path fill="none" stroke="midnightblue" d="M1016.23,-431.7C1037.63,-440.143 1079.51,-456.143 1116,-467 1124.35,-469.485 1133.27,-471.865 1142,-474.048"/>
<polygon fill="midnightblue" stroke="midnightblue" points="1141.21,-477.457 1151.75,-476.426 1142.87,-470.656 1141.21,-477.457"/>
</g>
<!-- Node22 -->
<g id="node22" class="node"><title>Node22</title>
<g id="a_node22"><a xlink:href="../../d4/da9/classFun4AllInputManager.html#a8ad787f847a175450ec5beddeaa33ca6" target="_top" target="_top" target="_top" xlink:title="Fun4AllInputManager\l::fileopen">
<polygon fill="none" stroke="black" points="1142.5,-389 1142.5,-419 1251.5,-419 1251.5,-389 1142.5,-389"/>
<text text-anchor="start" x="1150.5" y="-407" font-family="FreeSans" font-size="10.00">Fun4AllInputManager</text>
<text text-anchor="middle" x="1197" y="-396" font-family="FreeSans" font-size="10.00">::fileopen</text>
</a>
</g>
</g>
<!-- Node14&#45;&gt;Node22 -->
<g id="edge23" class="edge"><title>Node14&#45;&gt;Node22</title>
<path fill="none" stroke="midnightblue" d="M1016.27,-424.382C1040.44,-421.641 1090.84,-415.925 1132.14,-411.242"/>
<polygon fill="midnightblue" stroke="midnightblue" points="1132.6,-414.712 1142.15,-410.107 1131.82,-407.756 1132.6,-414.712"/>
</g>
<!-- Node23 -->
<g id="node23" class="node"><title>Node23</title>
<g id="a_node23"><a xlink:href="../../d8/d14/classrecoConsts.html#a7c0a1405f7f0f8c2acca26831984b28d" target="_top" target="_top" target="_top" xlink:title="initialize the constants by the runNo &#45; not implemented yet ">
<polygon fill="none" stroke="black" points="1500,-370.5 1500,-389.5 1582,-389.5 1582,-370.5 1500,-370.5"/>
<text text-anchor="middle" x="1541" y="-377.5" font-family="FreeSans" font-size="10.00">recoConsts::init</text>
</a>
</g>
</g>
<!-- Node14&#45;&gt;Node23 -->
<g id="edge24" class="edge"><title>Node14&#45;&gt;Node23</title>
<path fill="none" stroke="midnightblue" d="M1016.18,-418.012C1037.2,-406.681 1078.2,-386.486 1116,-379 1248.68,-352.721 1409.34,-364.682 1489.45,-373.527"/>
<polygon fill="midnightblue" stroke="midnightblue" points="1489.41,-377.045 1499.75,-374.695 1490.2,-370.089 1489.41,-377.045"/>
</g>
<!-- Node14&#45;&gt;Node7 -->
<g id="edge26" class="edge"><title>Node14&#45;&gt;Node7</title>
<path fill="none" stroke="midnightblue" d="M1008.9,-435.598C1023.63,-456.45 1058.58,-507.814 1080,-555 1101.79,-602.996 1073.45,-636.896 1116,-668 1185.11,-718.515 1293.91,-686.799 1346.91,-666.347"/>
<polygon fill="midnightblue" stroke="midnightblue" points="1348.44,-669.506 1356.43,-662.558 1345.85,-663.002 1348.44,-669.506"/>
</g>
<!-- Node24 -->
<g id="node24" class="node"><title>Node24</title>
<g id="a_node24"><a xlink:href="../../da/d29/classFun4AllServer.html#a3e55156f91b2c94bb6c4ef33ffce587a" target="_top" target="_top" target="_top" xlink:title="Fun4AllServer::instance">
<polygon fill="none" stroke="black" points="1320,-312.5 1320,-331.5 1438,-331.5 1438,-312.5 1320,-312.5"/>
<text text-anchor="middle" x="1379" y="-319.5" font-family="FreeSans" font-size="10.00">Fun4AllServer::instance</text>
</a>
</g>
</g>
<!-- Node14&#45;&gt;Node24 -->
<g id="edge27" class="edge"><title>Node14&#45;&gt;Node24</title>
<path fill="none" stroke="midnightblue" d="M1011.64,-416.498C1030.08,-398.995 1072.42,-361.989 1116,-346 1178.85,-322.944 1255.6,-318.42 1309.74,-318.767"/>
<polygon fill="midnightblue" stroke="midnightblue" points="1309.88,-322.269 1319.92,-318.891 1309.96,-315.269 1309.88,-322.269"/>
</g>
<!-- Node14&#45;&gt;Node4 -->
<g id="edge28" class="edge"><title>Node14&#45;&gt;Node4</title>
<path fill="none" stroke="midnightblue" d="M985.758,-426C926.953,-426 701.053,-426 592.249,-426"/>
<polygon fill="midnightblue" stroke="midnightblue" points="592.095,-422.5 582.095,-426 592.094,-429.5 592.095,-422.5"/>
</g>
<!-- Node25 -->
<g id="node25" class="node"><title>Node25</title>
<g id="a_node25"><a xlink:href="../../d8/d14/classrecoConsts.html#a5502a14fdb8433de15c2e71351f281d6" target="_top" target="_top" target="_top" xlink:title="print all the parameters ">
<polygon fill="none" stroke="red" points="1152.5,-236.5 1152.5,-255.5 1241.5,-255.5 1241.5,-236.5 1152.5,-236.5"/>
<text text-anchor="middle" x="1197" y="-243.5" font-family="FreeSans" font-size="10.00">recoConsts::Print</text>
</a>
</g>
</g>
<!-- Node14&#45;&gt;Node25 -->
<g id="edge29" class="edge"><title>Node14&#45;&gt;Node25</title>
<path fill="none" stroke="midnightblue" d="M1005.95,-416.172C1017.87,-387.804 1056.39,-305.249 1116,-265 1123.9,-259.664 1133.13,-255.819 1142.45,-253.05"/>
<polygon fill="midnightblue" stroke="midnightblue" points="1143.34,-256.434 1152.14,-250.537 1141.58,-249.658 1143.34,-256.434"/>
</g>
<!-- Node29 -->
<g id="node29" class="node"><title>Node29</title>
<g id="a_node29"><a xlink:href="../../da/d29/classFun4AllServer.html#ae3fe7393e52376b515c60dd927670f2e" target="_top" target="_top" target="_top" xlink:title="Fun4AllServer::PrintTimer">
<polygon fill="none" stroke="black" points="1133.5,-198.5 1133.5,-217.5 1260.5,-217.5 1260.5,-198.5 1133.5,-198.5"/>
<text text-anchor="middle" x="1197" y="-205.5" font-family="FreeSans" font-size="10.00">Fun4AllServer::PrintTimer</text>
</a>
</g>
</g>
<!-- Node14&#45;&gt;Node29 -->
<g id="edge33" class="edge"><title>Node14&#45;&gt;Node29</title>
<path fill="none" stroke="midnightblue" d="M1004.56,-416.266C1013.63,-383.779 1047.43,-278.251 1116,-227 1118.63,-225.034 1121.43,-223.268 1124.36,-221.682"/>
<polygon fill="midnightblue" stroke="midnightblue" points="1125.86,-224.845 1133.44,-217.444 1122.9,-218.501 1125.86,-224.845"/>
</g>
<!-- Node30 -->
<g id="node30" class="node"><title>Node30</title>
<g id="a_node30"><a xlink:href="../../dc/da8/classAnaModule.html#aae26c89fb67266a27325b364ba48cc38" target="_top" target="_top" target="_top" xlink:title="AnaModule::registerDetector">
<polygon fill="none" stroke="black" points="1128,-160.5 1128,-179.5 1266,-179.5 1266,-160.5 1128,-160.5"/>
<text text-anchor="middle" x="1197" y="-167.5" font-family="FreeSans" font-size="10.00">AnaModule::registerDetector</text>
</a>
</g>
</g>
<!-- Node14&#45;&gt;Node30 -->
<g id="edge34" class="edge"><title>Node14&#45;&gt;Node30</title>
<path fill="none" stroke="midnightblue" d="M1003.66,-416.01C1010.31,-379.393 1038.47,-251.418 1116,-189 1118.09,-187.316 1120.31,-185.777 1122.62,-184.37"/>
<polygon fill="midnightblue" stroke="midnightblue" points="1124.65,-187.262 1131.94,-179.578 1121.45,-181.037 1124.65,-187.262"/>
</g>
<!-- Node32 -->
<g id="node32" class="node"><title>Node32</title>
<g id="a_node32"><a xlink:href="../../da/d29/classFun4AllServer.html#ab2cb490790d15b865ae79eb3094caabe" target="_top" target="_top" target="_top" xlink:title="Fun4AllServer::registerInput\lManager">
<polygon fill="none" stroke="red" points="1129.5,-111 1129.5,-141 1264.5,-141 1264.5,-111 1129.5,-111"/>
<text text-anchor="start" x="1137.5" y="-129" font-family="FreeSans" font-size="10.00">Fun4AllServer::registerInput</text>
<text text-anchor="middle" x="1197" y="-118" font-family="FreeSans" font-size="10.00">Manager</text>
</a>
</g>
</g>
<!-- Node14&#45;&gt;Node32 -->
<g id="edge36" class="edge"><title>Node14&#45;&gt;Node32</title>
<path fill="none" stroke="midnightblue" d="M1003.08,-416.305C1007.98,-377.012 1031.68,-228.046 1116,-151 1117.7,-149.445 1119.5,-147.986 1121.37,-146.619"/>
<polygon fill="midnightblue" stroke="midnightblue" points="1123.42,-149.464 1130.04,-141.185 1119.7,-143.535 1123.42,-149.464"/>
</g>
<!-- Node33 -->
<g id="node33" class="node"><title>Node33</title>
<g id="a_node33"><a xlink:href="../../da/d29/classFun4AllServer.html#a0a9947db0ede1e55622001eb7515f8c0" target="_top" target="_top" target="_top" xlink:title="Fun4AllServer::registerSubsystem">
<polygon fill="none" stroke="red" points="1116.5,-274.5 1116.5,-293.5 1277.5,-293.5 1277.5,-274.5 1116.5,-274.5"/>
<text text-anchor="middle" x="1197" y="-281.5" font-family="FreeSans" font-size="10.00">Fun4AllServer::registerSubsystem</text>
</a>
</g>
</g>
<!-- Node14&#45;&gt;Node33 -->
<g id="edge37" class="edge"><title>Node14&#45;&gt;Node33</title>
<path fill="none" stroke="midnightblue" d="M1008.52,-416.459C1024.29,-394.096 1066.86,-337.93 1116,-308 1123.3,-303.555 1131.48,-299.884 1139.74,-296.867"/>
<polygon fill="midnightblue" stroke="midnightblue" points="1141.07,-300.114 1149.44,-293.618 1138.85,-293.476 1141.07,-300.114"/>
</g>
<!-- Node34 -->
<g id="node34" class="node"><title>Node34</title>
<g id="a_node34"><a xlink:href="../../da/d29/classFun4AllServer.html#a11bbc8b2f53bc06e0b05ee202dd6372a" target="_top" target="_top" target="_top" xlink:title="run n events (0 means up to end of file) ">
<polygon fill="none" stroke="red" points="1149.5,-438.5 1149.5,-457.5 1244.5,-457.5 1244.5,-438.5 1149.5,-438.5"/>
<text text-anchor="middle" x="1197" y="-445.5" font-family="FreeSans" font-size="10.00">Fun4AllServer::run</text>
</a>
</g>
</g>
<!-- Node14&#45;&gt;Node34 -->
<g id="edge39" class="edge"><title>Node14&#45;&gt;Node34</title>
<path fill="none" stroke="midnightblue" d="M1016.27,-427.618C1041.86,-430.521 1096.89,-436.761 1139.35,-441.576"/>
<polygon fill="midnightblue" stroke="midnightblue" points="1138.97,-445.055 1149.3,-442.705 1139.76,-438.1 1138.97,-445.055"/>
</g>
<!-- Node14&#45;&gt;Node10 -->
<g id="edge43" class="edge"><title>Node14&#45;&gt;Node10</title>
<path fill="none" stroke="midnightblue" d="M1009.11,-435.508C1024.24,-456.184 1059.93,-507.226 1080,-555 1104.89,-614.231 1066.88,-653.584 1116,-695 1273.65,-827.938 1547.81,-780.441 1655.11,-754.907"/>
<polygon fill="midnightblue" stroke="midnightblue" points="1656.08,-758.275 1664.97,-752.511 1654.42,-751.473 1656.08,-758.275"/>
</g>
<!-- Node14&#45;&gt;Node12 -->
<g id="edge44" class="edge"><title>Node14&#45;&gt;Node12</title>
<path fill="none" stroke="midnightblue" d="M1001.78,-416.28C1001.36,-370.9 1006.25,-178.811 1116,-101 1205.42,-37.6014 1550.54,-149.702 1663.78,-189.083"/>
<polygon fill="midnightblue" stroke="midnightblue" points="1662.79,-192.445 1673.39,-192.443 1665.1,-185.837 1662.79,-192.445"/>
</g>
<!-- Node35 -->
<g id="node35" class="node"><title>Node35</title>
<g id="a_node35"><a xlink:href="../../dc/da8/classAnaModule.html#a815e50856d90a0bc816ad165bcf8d8f4" target="_top" target="_top" target="_top" xlink:title="AnaModule::set_output\l_filename">
<polygon fill="none" stroke="black" points="1139.5,-629 1139.5,-659 1254.5,-659 1254.5,-629 1139.5,-629"/>
<text text-anchor="start" x="1147.5" y="-647" font-family="FreeSans" font-size="10.00">AnaModule::set_output</text>
<text text-anchor="middle" x="1197" y="-636" font-family="FreeSans" font-size="10.00">_filename</text>
</a>
</g>
</g>
<!-- Node14&#45;&gt;Node35 -->
<g id="edge45" class="edge"><title>Node14&#45;&gt;Node35</title>
<path fill="none" stroke="midnightblue" d="M1007.98,-435.647C1021.18,-457.017 1053.76,-510.014 1080,-555 1096.45,-583.189 1090.64,-598.463 1116,-619 1120.31,-622.491 1125.11,-625.497 1130.16,-628.084"/>
<polygon fill="midnightblue" stroke="midnightblue" points="1128.92,-631.362 1139.47,-632.305 1131.81,-624.987 1128.92,-631.362"/>
</g>
<!-- Node36 -->
<g id="node36" class="node"><title>Node36</title>
<g id="a_node36"><a xlink:href="../../d0/da0/classGeomSvc.html#a5c51613529dae6339bb35eb99e81f758" target="_top" target="_top" target="_top" xlink:title="GeomSvc::UseDbSvc">
<polygon fill="none" stroke="black" points="1142.5,-590.5 1142.5,-609.5 1251.5,-609.5 1251.5,-590.5 1142.5,-590.5"/>
<text text-anchor="middle" x="1197" y="-597.5" font-family="FreeSans" font-size="10.00">GeomSvc::UseDbSvc</text>
</a>
</g>
</g>
<!-- Node14&#45;&gt;Node36 -->
<g id="edge46" class="edge"><title>Node14&#45;&gt;Node36</title>
<path fill="none" stroke="midnightblue" d="M1006.23,-435.857C1018.64,-463.536 1057.79,-542.453 1116,-581 1121.03,-584.333 1126.58,-587.082 1132.35,-589.351"/>
<polygon fill="midnightblue" stroke="midnightblue" points="1131.6,-592.794 1142.19,-592.734 1133.87,-586.174 1131.6,-592.794"/>
</g>
<!-- Node37 -->
<g id="node37" class="node"><title>Node37</title>
<g id="a_node37"><a xlink:href="../../d5/dec/classFun4AllBase.html#a05da2261577843028cf78e99171343b9" target="_top" target="_top" target="_top" xlink:title="Sets the verbosity of this module (0 by default=quiet). ">
<polygon fill="none" stroke="black" points="1139.5,-552.5 1139.5,-571.5 1254.5,-571.5 1254.5,-552.5 1139.5,-552.5"/>
<text text-anchor="middle" x="1197" y="-559.5" font-family="FreeSans" font-size="10.00">Fun4AllBase::Verbosity</text>
</a>
</g>
</g>
<!-- Node14&#45;&gt;Node37 -->
<g id="edge47" class="edge"><title>Node14&#45;&gt;Node37</title>
<path fill="none" stroke="midnightblue" d="M1008.43,-435.65C1024,-458.233 1066.16,-514.745 1116,-543 1120.39,-545.488 1125.09,-547.652 1129.94,-549.533"/>
<polygon fill="midnightblue" stroke="midnightblue" points="1128.79,-552.84 1139.38,-552.812 1131.09,-546.227 1128.79,-552.84"/>
</g>
<!-- Node16 -->
<g id="node16" class="node"><title>Node16</title>
<g id="a_node16"><a xlink:href="../../d5/de9/E1039Shielding_2ana_8C.html#a4770f9752bd2f6c264c3a5f0e5f07bf3" target="_top" target="_top" target="_top" xlink:title="drawSnglAccPz">
<polygon fill="none" stroke="red" points="1336.5,-570.5 1336.5,-589.5 1421.5,-589.5 1421.5,-570.5 1336.5,-570.5"/>
<text text-anchor="middle" x="1379" y="-577.5" font-family="FreeSans" font-size="10.00">drawSnglAccPz</text>
</a>
</g>
</g>
<!-- Node15&#45;&gt;Node16 -->
<g id="edge15" class="edge"><title>Node15&#45;&gt;Node16</title>
<path fill="none" stroke="midnightblue" d="M1213.04,-526.501C1229.35,-529.458 1256,-535.007 1278,-543 1294.81,-549.107 1297.36,-554.429 1314,-561 1319.8,-563.291 1325.99,-565.458 1332.15,-567.453"/>
<polygon fill="midnightblue" stroke="midnightblue" points="1331.16,-570.809 1341.74,-570.438 1333.24,-564.125 1331.16,-570.809"/>
</g>
<!-- Node18 -->
<g id="node18" class="node"><title>Node18</title>
<g id="a_node18"><a xlink:href="../../da/d29/classFun4AllServer.html#a53b1b6b338aa36891f2690a188920980" target="_top" target="_top" target="_top" xlink:title="Fun4AllServer::EndRun">
<polygon fill="none" stroke="black" points="1321,-438.5 1321,-457.5 1437,-457.5 1437,-438.5 1321,-438.5"/>
<text text-anchor="middle" x="1379" y="-445.5" font-family="FreeSans" font-size="10.00">Fun4AllServer::EndRun</text>
</a>
</g>
</g>
<!-- Node17&#45;&gt;Node18 -->
<g id="edge17" class="edge"><title>Node17&#45;&gt;Node18</title>
<path fill="none" stroke="midnightblue" d="M1243.42,-476.411C1267.6,-471.306 1297.53,-464.989 1323.01,-459.608"/>
<polygon fill="midnightblue" stroke="midnightblue" points="1323.84,-463.01 1332.91,-457.52 1322.4,-456.161 1323.84,-463.01"/>
</g>
<!-- Node19 -->
<g id="node19" class="node"><title>Node19</title>
<g id="a_node19"><a xlink:href="../../d5/d07/classPHNodeIterator.html#aea98bf8619af59b1212a94fb32106baa" target="_top" target="_top" target="_top" xlink:title="PHNodeIterator::findFirst">
<polygon fill="none" stroke="red" points="1318,-514.5 1318,-533.5 1440,-533.5 1440,-514.5 1318,-514.5"/>
<text text-anchor="middle" x="1379" y="-521.5" font-family="FreeSans" font-size="10.00">PHNodeIterator::findFirst</text>
</a>
</g>
</g>
<!-- Node17&#45;&gt;Node19 -->
<g id="edge18" class="edge"><title>Node17&#45;&gt;Node19</title>
<path fill="none" stroke="midnightblue" d="M1243.42,-495.589C1267.6,-500.694 1297.53,-507.011 1323.01,-512.392"/>
<polygon fill="midnightblue" stroke="midnightblue" points="1322.4,-515.839 1332.91,-514.48 1323.84,-508.99 1322.4,-515.839"/>
</g>
<!-- Node20 -->
<g id="node20" class="node"><title>Node20</title>
<g id="a_node20"><a xlink:href="../../d1/da8/classPHFlag.html#a07899067141a5f12333cc37183caddc8" target="_top" target="_top" target="_top" xlink:title="PHFlag::get_IntFlag">
<polygon fill="none" stroke="black" points="1328,-400.5 1328,-419.5 1430,-419.5 1430,-400.5 1328,-400.5"/>
<text text-anchor="middle" x="1379" y="-407.5" font-family="FreeSans" font-size="10.00">PHFlag::get_IntFlag</text>
</a>
</g>
</g>
<!-- Node17&#45;&gt;Node20 -->
<g id="edge20" class="edge"><title>Node17&#45;&gt;Node20</title>
<path fill="none" stroke="midnightblue" d="M1246.25,-479.28C1257.16,-476.495 1268.35,-472.56 1278,-467 1298.16,-455.384 1294.17,-441.17 1314,-429 1317.4,-426.911 1321.05,-425.04 1324.81,-423.367"/>
<polygon fill="midnightblue" stroke="midnightblue" points="1326.32,-426.534 1334.33,-419.601 1323.75,-420.025 1326.32,-426.534"/>
</g>
<!-- Node17&#45;&gt;Node7 -->
<g id="edge21" class="edge"><title>Node17&#45;&gt;Node7</title>
<path fill="none" stroke="midnightblue" d="M1246.01,-489.61C1257.54,-492.454 1269.09,-497.195 1278,-505 1311.66,-534.469 1288.08,-562.534 1314,-599 1324.85,-614.262 1340.98,-627.835 1354.33,-637.555"/>
<polygon fill="midnightblue" stroke="midnightblue" points="1352.42,-640.493 1362.62,-643.366 1356.44,-634.76 1352.42,-640.493"/>
</g>
<!-- Node21 -->
<g id="node21" class="node"><title>Node21</title>
<g id="a_node21"><a xlink:href="../../da/d29/classFun4AllServer.html#a6f2074f451d0c0c1b4a802edde5ffb94" target="_top" target="_top" target="_top" xlink:title="Fun4AllServer::outfileclose">
<polygon fill="none" stroke="red" points="1314,-476.5 1314,-495.5 1444,-495.5 1444,-476.5 1314,-476.5"/>
<text text-anchor="middle" x="1379" y="-483.5" font-family="FreeSans" font-size="10.00">Fun4AllServer::outfileclose</text>
</a>
</g>
</g>
<!-- Node17&#45;&gt;Node21 -->
<g id="edge22" class="edge"><title>Node17&#45;&gt;Node21</title>
<path fill="none" stroke="midnightblue" d="M1246.24,-486C1263.88,-486 1284.28,-486 1303.68,-486"/>
<polygon fill="midnightblue" stroke="midnightblue" points="1303.71,-489.5 1313.71,-486 1303.71,-482.5 1303.71,-489.5"/>
</g>
<!-- Node19&#45;&gt;Node19 -->
<g id="edge19" class="edge"><title>Node19&#45;&gt;Node19</title>
<path fill="none" stroke="midnightblue" d="M1354.03,-533.757C1341.88,-542.565 1350.21,-552 1379,-552 1398.35,-552 1408.45,-547.741 1409.31,-542.275"/>
<polygon fill="midnightblue" stroke="midnightblue" points="1412.25,-540.367 1403.97,-533.757 1406.32,-544.088 1412.25,-540.367"/>
</g>
<!-- Node23&#45;&gt;Node13 -->
<g id="edge25" class="edge"><title>Node23&#45;&gt;Node13</title>
<path fill="none" stroke="midnightblue" d="M1578.65,-389.509C1600.9,-395.284 1629.52,-402.711 1653.38,-408.902"/>
<polygon fill="midnightblue" stroke="midnightblue" points="1652.72,-412.347 1663.28,-411.471 1654.48,-405.572 1652.72,-412.347"/>
</g>
<!-- Node26 -->
<g id="node26" class="node"><title>Node26</title>
<g id="a_node26"><a xlink:href="../../d1/da8/classPHFlag.html#a982354b034569d3d6bc464acc3ec1359" target="_top" target="_top" target="_top" xlink:title="PHFlag::PrintBoolFlags">
<polygon fill="none" stroke="black" points="1321,-198.5 1321,-217.5 1437,-217.5 1437,-198.5 1321,-198.5"/>
<text text-anchor="middle" x="1379" y="-205.5" font-family="FreeSans" font-size="10.00">PHFlag::PrintBoolFlags</text>
</a>
</g>
</g>
<!-- Node25&#45;&gt;Node26 -->
<g id="edge30" class="edge"><title>Node25&#45;&gt;Node26</title>
<path fill="none" stroke="midnightblue" d="M1241.57,-236.801C1266.01,-231.643 1296.73,-225.158 1322.82,-219.648"/>
<polygon fill="midnightblue" stroke="midnightblue" points="1323.89,-223.001 1332.95,-217.511 1322.44,-216.152 1323.89,-223.001"/>
</g>
<!-- Node27 -->
<g id="node27" class="node"><title>Node27</title>
<g id="a_node27"><a xlink:href="../../d1/da8/classPHFlag.html#a22faecd438ab5934d1634d1dec80bbbc" target="_top" target="_top" target="_top" xlink:title="PHFlag::PrintCharFlags">
<polygon fill="none" stroke="black" points="1320.5,-274.5 1320.5,-293.5 1437.5,-293.5 1437.5,-274.5 1320.5,-274.5"/>
<text text-anchor="middle" x="1379" y="-281.5" font-family="FreeSans" font-size="10.00">PHFlag::PrintCharFlags</text>
</a>
</g>
</g>
<!-- Node25&#45;&gt;Node27 -->
<g id="edge31" class="edge"><title>Node25&#45;&gt;Node27</title>
<path fill="none" stroke="midnightblue" d="M1241.57,-255.199C1266.01,-260.357 1296.73,-266.842 1322.82,-272.352"/>
<polygon fill="midnightblue" stroke="midnightblue" points="1322.44,-275.848 1332.95,-274.489 1323.89,-268.999 1322.44,-275.848"/>
</g>
<!-- Node28 -->
<g id="node28" class="node"><title>Node28</title>
<g id="a_node28"><a xlink:href="../../d1/da8/classPHFlag.html#a1ff4c6fb4381385006ee1a1a98127db5" target="_top" target="_top" target="_top" xlink:title="PHFlag::PrintDoubleFlags">
<polygon fill="none" stroke="black" points="1315.5,-236.5 1315.5,-255.5 1442.5,-255.5 1442.5,-236.5 1315.5,-236.5"/>
<text text-anchor="middle" x="1379" y="-243.5" font-family="FreeSans" font-size="10.00">PHFlag::PrintDoubleFlags</text>
</a>
</g>
</g>
<!-- Node25&#45;&gt;Node28 -->
<g id="edge32" class="edge"><title>Node25&#45;&gt;Node28</title>
<path fill="none" stroke="midnightblue" d="M1241.57,-246C1260.7,-246 1283.69,-246 1305.3,-246"/>
<polygon fill="midnightblue" stroke="midnightblue" points="1305.44,-249.5 1315.44,-246 1305.44,-242.5 1305.44,-249.5"/>
</g>
<!-- Node30&#45;&gt;Node31 -->
<g id="edge35" class="edge"><title>Node30&#45;&gt;Node31</title>
<path fill="none" stroke="midnightblue" d="M1253.84,-160.414C1262.26,-157.745 1270.59,-154.341 1278,-150 1316.35,-127.541 1349.16,-85.9873 1365.97,-62.1234"/>
<polygon fill="midnightblue" stroke="midnightblue" points="1369.02,-63.8661 1371.8,-53.6412 1363.25,-59.9036 1369.02,-63.8661"/>
</g>
<!-- Node33&#45;&gt;Node24 -->
<g id="edge38" class="edge"><title>Node33&#45;&gt;Node24</title>
<path fill="none" stroke="midnightblue" d="M1243.42,-293.589C1267.6,-298.694 1297.53,-305.011 1323.01,-310.392"/>
<polygon fill="midnightblue" stroke="midnightblue" points="1322.4,-313.839 1332.91,-312.48 1323.84,-306.99 1322.4,-313.839"/>
</g>
<!-- Node34&#45;&gt;Node18 -->
<g id="edge40" class="edge"><title>Node34&#45;&gt;Node18</title>
<path fill="none" stroke="midnightblue" d="M1244.82,-448C1264.88,-448 1288.68,-448 1310.57,-448"/>
<polygon fill="midnightblue" stroke="midnightblue" points="1310.81,-451.5 1320.81,-448 1310.81,-444.5 1310.81,-451.5"/>
</g>
<!-- Node34&#45;&gt;Node20 -->
<g id="edge41" class="edge"><title>Node34&#45;&gt;Node20</title>
<path fill="none" stroke="midnightblue" d="M1243.42,-438.411C1267.6,-433.306 1297.53,-426.989 1323.01,-421.608"/>
<polygon fill="midnightblue" stroke="midnightblue" points="1323.84,-425.01 1332.91,-419.52 1322.4,-418.161 1323.84,-425.01"/>
</g>
<!-- Node34&#45;&gt;Node7 -->
<g id="edge42" class="edge"><title>Node34&#45;&gt;Node7</title>
<path fill="none" stroke="midnightblue" d="M1244.89,-450.618C1256.98,-453.404 1269.07,-458.365 1278,-467 1321.7,-509.282 1281.28,-547.742 1314,-599 1324.01,-614.682 1340,-628.179 1353.5,-637.757"/>
<polygon fill="midnightblue" stroke="midnightblue" points="1351.68,-640.751 1361.92,-643.469 1355.61,-634.958 1351.68,-640.751"/>
</g>
<!-- Node43 -->
<g id="node43" class="node"><title>Node43</title>
<g id="a_node43"><a xlink:href="../../d0/da0/classGeomSvc.html#a64fde7dce7f3df7cf534796d7da4ecdb" target="_top" target="_top" target="_top" xlink:title="GeomSvc::getDetectorName">
<polygon fill="none" stroke="black" points="931,-564.5 931,-583.5 1071,-583.5 1071,-564.5 931,-564.5"/>
<text text-anchor="middle" x="1001" y="-571.5" font-family="FreeSans" font-size="10.00">GeomSvc::getDetectorName</text>
</a>
</g>
</g>
<!-- Node42&#45;&gt;Node43 -->
<g id="edge54" class="edge"><title>Node42&#45;&gt;Node43</title>
<path fill="none" stroke="midnightblue" d="M873.003,-574C888.245,-574 904.73,-574 920.616,-574"/>
<polygon fill="midnightblue" stroke="midnightblue" points="920.95,-577.5 930.95,-574 920.95,-570.5 920.95,-577.5"/>
</g>
<!-- Node45&#45;&gt;Node44 -->
<g id="edge57" class="edge"><title>Node45&#45;&gt;Node44</title>
<path fill="none" stroke="midnightblue" d="M885.639,-847.564C896.148,-848.615 906.986,-849.699 917.611,-850.761"/>
<polygon fill="midnightblue" stroke="midnightblue" points="917.415,-854.259 927.714,-851.771 918.112,-847.294 917.415,-854.259"/>
</g>
</g>
</svg>
