<?xml version="1.0" encoding="UTF-8" standalone="no"?>
<!DOCTYPE svg PUBLIC "-//W3C//DTD SVG 1.1//EN"
 "http://www.w3.org/Graphics/SVG/1.1/DTD/svg11.dtd">
<!-- Generated by graphviz version 2.36.0 (20140111.2315)
 -->
<!-- Title: /home/yuhw/GitHub/SeaQuest/e1039&#45;core/online/chan_map/ChanMapScaler.h Pages: 1 -->
<svg width="342pt" height="218pt"
 viewBox="0.00 0.00 342.00 218.00" xmlns="http://www.w3.org/2000/svg" xmlns:xlink="http://www.w3.org/1999/xlink">
<g id="graph0" class="graph" transform="scale(1 1) rotate(0) translate(4 214)">
<title>/home/yuhw/GitHub/SeaQuest/e1039&#45;core/online/chan_map/ChanMapScaler.h</title>
<!-- Node1 -->
<g id="node1" class="node"><title>Node1</title>
<polygon fill="#bfbfbf" stroke="black" points="120.5,-168.5 120.5,-209.5 269.5,-209.5 269.5,-168.5 120.5,-168.5"/>
<text text-anchor="start" x="128.5" y="-197.5" font-family="FreeSans" font-size="10.00">/home/yuhw/GitHub/SeaQuest</text>
<text text-anchor="start" x="128.5" y="-186.5" font-family="FreeSans" font-size="10.00">/e1039&#45;core/online/chan</text>
<text text-anchor="middle" x="195" y="-175.5" font-family="FreeSans" font-size="10.00">_map/ChanMapScaler.h</text>
</g>
<!-- Node2 -->
<g id="node2" class="node"><title>Node2</title>
<g id="a_node2"><a xlink:href="../../d4/d28/RunParamBase_8h.html" target="_top" xlink:title="RunParamBase.h">
<polygon fill="none" stroke="black" points="149,-112.5 149,-131.5 241,-131.5 241,-112.5 149,-112.5"/>
<text text-anchor="middle" x="195" y="-119.5" font-family="FreeSans" font-size="10.00">RunParamBase.h</text>
</a>
</g>
</g>
<!-- Node1&#45;&gt;Node2 -->
<g id="edge1" class="edge"><title>Node1&#45;&gt;Node2</title>
<path fill="none" stroke="midnightblue" d="M195,-168.498C195,-160.065 195,-150.235 195,-141.874"/>
<polygon fill="midnightblue" stroke="midnightblue" points="198.5,-141.652 195,-131.652 191.5,-141.653 198.5,-141.652"/>
</g>
<!-- Node3 -->
<g id="node3" class="node"><title>Node3</title>
<polygon fill="none" stroke="#bfbfbf" points="0,-0.5 0,-19.5 54,-19.5 54,-0.5 0,-0.5"/>
<text text-anchor="middle" x="27" y="-7.5" font-family="FreeSans" font-size="10.00">iostream</text>
</g>
<!-- Node2&#45;&gt;Node3 -->
<g id="edge2" class="edge"><title>Node2&#45;&gt;Node3</title>
<path fill="none" stroke="midnightblue" d="M148.766,-119.634C114.262,-116.08 68.5104,-105.57 41,-76 29.5842,-63.7294 26.614,-44.47 26.1817,-30.0959"/>
<polygon fill="midnightblue" stroke="midnightblue" points="29.6835,-29.8709 26.2661,-19.8424 22.6838,-29.8132 29.6835,-29.8709"/>
</g>
<!-- Node4 -->
<g id="node4" class="node"><title>Node4</title>
<polygon fill="none" stroke="#bfbfbf" points="242.5,-56.5 242.5,-75.5 277.5,-75.5 277.5,-56.5 242.5,-56.5"/>
<text text-anchor="middle" x="260" y="-63.5" font-family="FreeSans" font-size="10.00">map</text>
</g>
<!-- Node2&#45;&gt;Node4 -->
<g id="edge3" class="edge"><title>Node2&#45;&gt;Node4</title>
<path fill="none" stroke="midnightblue" d="M205.443,-112.324C215.146,-104.263 229.815,-92.0765 241.5,-82.3695"/>
<polygon fill="midnightblue" stroke="midnightblue" points="243.911,-84.9163 249.367,-75.8339 239.438,-79.532 243.911,-84.9163"/>
</g>
<!-- Node5 -->
<g id="node5" class="node"><title>Node5</title>
<polygon fill="none" stroke="#bfbfbf" points="90,-0.5 90,-19.5 134,-19.5 134,-0.5 90,-0.5"/>
<text text-anchor="middle" x="112" y="-7.5" font-family="FreeSans" font-size="10.00">vector</text>
</g>
<!-- Node2&#45;&gt;Node5 -->
<g id="edge4" class="edge"><title>Node2&#45;&gt;Node5</title>
<path fill="none" stroke="midnightblue" d="M190.556,-112.173C183.874,-99.2695 170.473,-74.7528 156,-56 147.924,-45.5363 137.656,-34.9135 129.071,-26.6184"/>
<polygon fill="midnightblue" stroke="midnightblue" points="131.444,-24.0461 121.77,-19.7262 126.639,-29.1361 131.444,-24.0461"/>
</g>
<!-- Node6 -->
<g id="node6" class="node"><title>Node6</title>
<polygon fill="none" stroke="#bfbfbf" points="179.5,-0.5 179.5,-19.5 220.5,-19.5 220.5,-0.5 179.5,-0.5"/>
<text text-anchor="middle" x="200" y="-7.5" font-family="FreeSans" font-size="10.00">string</text>
</g>
<!-- Node2&#45;&gt;Node6 -->
<g id="edge5" class="edge"><title>Node2&#45;&gt;Node6</title>
<path fill="none" stroke="midnightblue" d="M195.392,-112.368C196.199,-94.617 198.061,-53.6664 199.155,-29.5974"/>
<polygon fill="midnightblue" stroke="midnightblue" points="202.652,-29.7401 199.609,-19.5914 195.659,-29.4221 202.652,-29.7401"/>
</g>
<!-- Node7 -->
<g id="node7" class="node"><title>Node7</title>
<polygon fill="none" stroke="#bfbfbf" points="296,-56.5 296,-75.5 334,-75.5 334,-56.5 296,-56.5"/>
<text text-anchor="middle" x="315" y="-63.5" font-family="FreeSans" font-size="10.00">tuple</text>
</g>
<!-- Node2&#45;&gt;Node7 -->
<g id="edge6" class="edge"><title>Node2&#45;&gt;Node7</title>
<path fill="none" stroke="midnightblue" d="M214.014,-112.444C233.588,-103.636 264.308,-89.8116 286.729,-79.722"/>
<polygon fill="midnightblue" stroke="midnightblue" points="288.392,-82.8119 296.075,-75.5164 285.519,-76.4284 288.392,-82.8119"/>
</g>
<!-- Node8 -->
<g id="node8" class="node"><title>Node8</title>
<g id="a_node8"><a xlink:href="../../d0/dc7/ParamRunRange_8h.html" target="_top" xlink:title="ParamRunRange.h">
<polygon fill="none" stroke="black" points="50,-56.5 50,-75.5 148,-75.5 148,-56.5 50,-56.5"/>
<text text-anchor="middle" x="99" y="-63.5" font-family="FreeSans" font-size="10.00">ParamRunRange.h</text>
</a>
</g>
</g>
<!-- Node2&#45;&gt;Node8 -->
<g id="edge7" class="edge"><title>Node2&#45;&gt;Node8</title>
<path fill="none" stroke="midnightblue" d="M179.576,-112.324C164.46,-103.822 141.185,-90.7288 123.529,-80.7975"/>
<polygon fill="midnightblue" stroke="midnightblue" points="124.817,-77.5066 114.386,-75.6545 121.386,-83.6077 124.817,-77.5066"/>
</g>
<!-- Node8&#45;&gt;Node3 -->
<g id="edge8" class="edge"><title>Node8&#45;&gt;Node3</title>
<path fill="none" stroke="midnightblue" d="M87.432,-56.324C76.5798,-48.1849 60.1193,-35.8395 47.1166,-26.0874"/>
<polygon fill="midnightblue" stroke="midnightblue" points="48.8786,-23.0339 38.7785,-19.8339 44.6785,-28.6339 48.8786,-23.0339"/>
</g>
<!-- Node8&#45;&gt;Node5 -->
<g id="edge9" class="edge"><title>Node8&#45;&gt;Node5</title>
<path fill="none" stroke="midnightblue" d="M101.147,-56.083C102.869,-48.9272 105.347,-38.6353 107.5,-29.6911"/>
<polygon fill="midnightblue" stroke="midnightblue" points="110.955,-30.2925 109.893,-19.7511 104.15,-28.6541 110.955,-30.2925"/>
</g>
<!-- Node8&#45;&gt;Node6 -->
<g id="edge10" class="edge"><title>Node8&#45;&gt;Node6</title>
<path fill="none" stroke="midnightblue" d="M115.227,-56.324C131.351,-47.7034 156.3,-34.3643 174.964,-24.3855"/>
<polygon fill="midnightblue" stroke="midnightblue" points="176.644,-27.456 183.813,-19.6545 173.344,-21.283 176.644,-27.456"/>
</g>
</g>
</svg>
