<?xml version="1.0" encoding="UTF-8" standalone="no"?>
<!DOCTYPE svg PUBLIC "-//W3C//DTD SVG 1.1//EN"
 "http://www.w3.org/Graphics/SVG/1.1/DTD/svg11.dtd">
<!-- Generated by graphviz version 2.40.1 (20161225.0304)
 -->
<!-- Title: EvtFilter::GetNodes Pages: 1 -->
<svg width="241pt" height="88pt"
 viewBox="0.00 0.00 241.00 88.00" xmlns="http://www.w3.org/2000/svg" xmlns:xlink="http://www.w3.org/1999/xlink">
<g id="graph0" class="graph" transform="scale(1 1) rotate(0) translate(4 84)">
<title>EvtFilter::GetNodes</title>
<!-- Node11 -->
<g id="node1" class="node">
<title>Node11</title>
<polygon fill="#bfbfbf" stroke="#000000" points="0,-30 0,-49 99,-49 99,-30 0,-30"/>
<text text-anchor="middle" x="49.5" y="-37" font-family="FreeSans" font-size="10.00" fill="#000000">EvtFilter::GetNodes</text>
</g>
<!-- Node12 -->
<g id="node2" class="node">
<title>Node12</title>
<g id="a_node2"><a xlink:href="../../d1/dbd/classEvtFilter.html#a33383adab06127d5caf19547101b424a" target="_top" xlink:title="event processing ">
<polygon fill="none" stroke="#000000" points="139.5,-49.5 139.5,-79.5 228.5,-79.5 228.5,-49.5 139.5,-49.5"/>
<text text-anchor="start" x="147.5" y="-67.5" font-family="FreeSans" font-size="10.00" fill="#000000">EvtFilter::process</text>
<text text-anchor="middle" x="184" y="-56.5" font-family="FreeSans" font-size="10.00" fill="#000000">_event</text>
</a>
</g>
</g>
<!-- Node11&#45;&gt;Node12 -->
<g id="edge1" class="edge">
<title>Node11&#45;&gt;Node12</title>
<path fill="none" stroke="#191970" d="M109.2249,-50.6013C119.3607,-52.4853 129.7275,-54.4122 139.3886,-56.2079"/>
<polygon fill="#191970" stroke="#191970" points="109.6719,-47.1245 99.2007,-48.738 108.3927,-54.0066 109.6719,-47.1245"/>
</g>
<!-- Node13 -->
<g id="node3" class="node">
<title>Node13</title>
<g id="a_node3"><a xlink:href="../../d1/dbd/classEvtFilter.html#a0819aca2f043c446fff5e8128417a78c" target="_top" xlink:title="EvtFilter::set_event\l_id_req">
<polygon fill="none" stroke="#000000" points="135,-.5 135,-30.5 233,-30.5 233,-.5 135,-.5"/>
<text text-anchor="start" x="143" y="-18.5" font-family="FreeSans" font-size="10.00" fill="#000000">EvtFilter::set_event</text>
<text text-anchor="middle" x="184" y="-7.5" font-family="FreeSans" font-size="10.00" fill="#000000">_id_req</text>
</a>
</g>
</g>
<!-- Node11&#45;&gt;Node13 -->
<g id="edge2" class="edge">
<title>Node11&#45;&gt;Node13</title>
<path fill="none" stroke="#191970" d="M109.1961,-28.8479C117.8054,-27.3117 126.582,-25.7456 134.9518,-24.2521"/>
<polygon fill="#191970" stroke="#191970" points="108.4304,-25.4292 99.2007,-30.6315 109.6601,-32.3203 108.4304,-25.4292"/>
</g>
</g>
</svg>
