<?xml version="1.0" encoding="UTF-8" standalone="no"?>
<!DOCTYPE svg PUBLIC "-//W3C//DTD SVG 1.1//EN"
 "http://www.w3.org/Graphics/SVG/1.1/DTD/svg11.dtd">
<!-- Generated by graphviz version 2.30.1 (20180413.0232)
 -->
<!-- Title: EventDispUI::FindNewRuns Pages: 1 -->
<svg width="1034pt" height="1077pt"
 viewBox="0.00 0.00 1034.00 1077.10" xmlns="http://www.w3.org/2000/svg" xmlns:xlink="http://www.w3.org/1999/xlink">
<g id="graph0" class="graph" transform="scale(1 1) rotate(0) translate(4 1073.1)">
<title>EventDispUI::FindNewRuns</title>
<!-- Node1 -->
<g id="node1" class="node"><title>Node1</title>
<polygon fill="#bfbfbf" stroke="black" points="0.5,-853.603 0.5,-872.603 133.5,-872.603 133.5,-853.603 0.5,-853.603"/>
<text text-anchor="middle" x="67" y="-860.603" font-family="FreeSans" font-size="10.00">EventDispUI::FindNewRuns</text>
</g>
<!-- Node2 -->
<g id="node2" class="node"><title>Node2</title>
<g id="a_node2"><a xlink:href="../../d8/d6d/classEventDispUI.html#af268cfd51f1a67dca68fda0c6aebb85d" target="_top" xlink:title="EventDispUI::GetDstPath">
<polygon fill="none" stroke="black" points="170,-1011.6 170,-1030.6 294,-1030.6 294,-1011.6 170,-1011.6"/>
<text text-anchor="middle" x="232" y="-1018.6" font-family="FreeSans" font-size="10.00">EventDispUI::GetDstPath</text>
</a>
</g>
</g>
<!-- Node1&#45;&gt;Node2 -->
<g id="edge1" class="edge"><title>Node1&#45;&gt;Node2</title>
<path fill="none" stroke="midnightblue" d="M78.1964,-872.987C105.296,-899.256 179.362,-971.05 213.43,-1004.07"/>
<polygon fill="midnightblue" stroke="midnightblue" points="211.191,-1006.78 220.807,-1011.22 216.063,-1001.75 211.191,-1006.78"/>
</g>
<!-- Node5 -->
<g id="node5" class="node"><title>Node5</title>
<g id="a_node5"><a xlink:href="../../df/dbc/run_8C.html#a078d38b1d96e7c0e4f35d93363cc8325" target="_top" xlink:title="run">
<polygon fill="none" stroke="black" points="217,-676.603 217,-695.603 247,-695.603 247,-676.603 217,-676.603"/>
<text text-anchor="middle" x="232" y="-683.603" font-family="FreeSans" font-size="10.00">run</text>
</a>
</g>
</g>
<!-- Node1&#45;&gt;Node5 -->
<g id="edge4" class="edge"><title>Node1&#45;&gt;Node5</title>
<path fill="none" stroke="midnightblue" d="M76.7636,-853.587C103.076,-825.015 181.646,-739.697 215.356,-703.091"/>
<polygon fill="midnightblue" stroke="midnightblue" points="217.993,-705.394 222.193,-695.667 212.844,-700.652 217.993,-705.394"/>
</g>
<!-- Node3 -->
<g id="node3" class="node"><title>Node3</title>
<g id="a_node3"><a xlink:href="../../df/da2/classUtilOnline.html#a7ec2a9a7d7b170a1ee45452d54fb5271" target="_top" xlink:title="UtilOnline::GetEDDstFilePath">
<polygon fill="none" stroke="black" points="340,-1011.6 340,-1030.6 482,-1030.6 482,-1011.6 340,-1011.6"/>
<text text-anchor="middle" x="411" y="-1018.6" font-family="FreeSans" font-size="10.00">UtilOnline::GetEDDstFilePath</text>
</a>
</g>
</g>
<!-- Node2&#45;&gt;Node3 -->
<g id="edge2" class="edge"><title>Node2&#45;&gt;Node3</title>
<path fill="none" stroke="midnightblue" d="M294.409,-1021.1C305.761,-1021.1 317.772,-1021.1 329.588,-1021.1"/>
<polygon fill="midnightblue" stroke="midnightblue" points="329.901,-1024.6 339.901,-1021.1 329.901,-1017.6 329.901,-1024.6"/>
</g>
<!-- Node4 -->
<g id="node4" class="node"><title>Node4</title>
<g id="a_node4"><a xlink:href="../../df/da2/classUtilOnline.html#a14366cb70ac45b076f294a191e86b68f" target="_top" xlink:title="UtilOnline::GetDstFilePath">
<polygon fill="none" stroke="black" points="346.5,-1049.6 346.5,-1068.6 475.5,-1068.6 475.5,-1049.6 346.5,-1049.6"/>
<text text-anchor="middle" x="411" y="-1056.6" font-family="FreeSans" font-size="10.00">UtilOnline::GetDstFilePath</text>
</a>
</g>
</g>
<!-- Node2&#45;&gt;Node4 -->
<g id="edge3" class="edge"><title>Node2&#45;&gt;Node4</title>
<path fill="none" stroke="midnightblue" d="M277.665,-1030.69C301.337,-1035.77 330.608,-1042.06 355.597,-1047.42"/>
<polygon fill="midnightblue" stroke="midnightblue" points="355.145,-1050.91 365.657,-1049.58 356.614,-1044.06 355.145,-1050.91"/>
</g>
<!-- Node6 -->
<g id="node6" class="node"><title>Node6</title>
<g id="a_node6"><a xlink:href="../../d5/de9/E1039Shielding_2ana_8C.html#a24b637aefa84c667b63905e9be5a8f69" target="_top" xlink:title="ana">
<polygon fill="none" stroke="black" points="395,-733.603 395,-752.603 427,-752.603 427,-733.603 395,-733.603"/>
<text text-anchor="middle" x="411" y="-740.603" font-family="FreeSans" font-size="10.00">ana</text>
</a>
</g>
</g>
<!-- Node5&#45;&gt;Node6 -->
<g id="edge5" class="edge"><title>Node5&#45;&gt;Node6</title>
<path fill="none" stroke="midnightblue" d="M247.083,-691.075C265.91,-697.679 300.352,-709.616 330,-719.103 348.29,-724.956 369.067,-731.176 384.862,-735.818"/>
<polygon fill="midnightblue" stroke="midnightblue" points="384.33,-739.308 394.91,-738.755 386.294,-732.589 384.33,-739.308"/>
</g>
<!-- Node9 -->
<g id="node9" class="node"><title>Node9</title>
<g id="a_node9"><a xlink:href="../../da/d29/classFun4AllServer.html#ab7263450319ca1d5029209fde26a7af8" target="_top" xlink:title="Fun4AllServer::End">
<polygon fill="none" stroke="black" points="362,-559.603 362,-578.603 460,-578.603 460,-559.603 362,-559.603"/>
<text text-anchor="middle" x="411" y="-566.603" font-family="FreeSans" font-size="10.00">Fun4AllServer::End</text>
</a>
</g>
</g>
<!-- Node5&#45;&gt;Node9 -->
<g id="edge8" class="edge"><title>Node5&#45;&gt;Node9</title>
<path fill="none" stroke="midnightblue" d="M247.185,-676.727C277.587,-656.631 349.278,-609.242 386.559,-584.598"/>
<polygon fill="midnightblue" stroke="midnightblue" points="388.838,-587.287 395.25,-578.853 384.978,-581.448 388.838,-587.287"/>
</g>
<!-- Node19 -->
<g id="node19" class="node"><title>Node19</title>
<g id="a_node19"><a xlink:href="../../d4/da9/classFun4AllInputManager.html#a8ad787f847a175450ec5beddeaa33ca6" target="_top" xlink:title="Fun4AllInputManager\l::fileopen">
<polygon fill="none" stroke="black" points="356.5,-309.103 356.5,-339.103 465.5,-339.103 465.5,-309.103 356.5,-309.103"/>
<text text-anchor="start" x="364.5" y="-327.103" font-family="FreeSans" font-size="10.00">Fun4AllInputManager</text>
<text text-anchor="middle" x="411" y="-316.103" font-family="FreeSans" font-size="10.00">::fileopen</text>
</a>
</g>
</g>
<!-- Node5&#45;&gt;Node19 -->
<g id="edge19" class="edge"><title>Node5&#45;&gt;Node19</title>
<path fill="none" stroke="midnightblue" d="M232.669,-676.439C231.696,-632.033 233.67,-445.595 330,-348.103 334.862,-343.183 340.689,-339.263 346.954,-336.141"/>
<polygon fill="midnightblue" stroke="midnightblue" points="348.561,-339.261 356.384,-332.116 345.813,-332.823 348.561,-339.261"/>
</g>
<!-- Node10 -->
<g id="node10" class="node"><title>Node10</title>
<g id="a_node10"><a xlink:href="../../d8/d14/classrecoConsts.html#ae69a5c29a7199ba16d0e537158618802" target="_top" xlink:title="recoConsts::instance">
<polygon fill="none" stroke="black" points="716.5,-837.603 716.5,-856.603 821.5,-856.603 821.5,-837.603 716.5,-837.603"/>
<text text-anchor="middle" x="769" y="-844.603" font-family="FreeSans" font-size="10.00">recoConsts::instance</text>
</a>
</g>
</g>
<!-- Node5&#45;&gt;Node10 -->
<g id="edge20" class="edge"><title>Node5&#45;&gt;Node10</title>
<path fill="none" stroke="midnightblue" d="M247.02,-686.148C295.633,-686.596 455.945,-690.633 492,-724.103 545.737,-773.989 470.775,-839.261 528,-885.103 591.76,-936.181 696.396,-888.235 743.577,-861.854"/>
<polygon fill="midnightblue" stroke="midnightblue" points="745.546,-864.759 752.478,-856.748 742.063,-858.688 745.546,-864.759"/>
</g>
<!-- Node20 -->
<g id="node20" class="node"><title>Node20</title>
<g id="a_node20"><a xlink:href="../../da/d29/classFun4AllServer.html#a3e55156f91b2c94bb6c4ef33ffce587a" target="_top" xlink:title="Fun4AllServer::instance">
<polygon fill="none" stroke="black" points="534,-426.603 534,-445.603 652,-445.603 652,-426.603 534,-426.603"/>
<text text-anchor="middle" x="593" y="-433.603" font-family="FreeSans" font-size="10.00">Fun4AllServer::instance</text>
</a>
</g>
</g>
<!-- Node5&#45;&gt;Node20 -->
<g id="edge21" class="edge"><title>Node5&#45;&gt;Node20</title>
<path fill="none" stroke="midnightblue" d="M237.776,-676.263C250.01,-651.936 284.723,-588.185 330,-550.103 393.567,-496.638 486.069,-464.342 542.458,-448.396"/>
<polygon fill="midnightblue" stroke="midnightblue" points="543.504,-451.738 552.21,-445.7 541.639,-444.991 543.504,-451.738"/>
</g>
<!-- Node21 -->
<g id="node21" class="node"><title>Node21</title>
<g id="a_node21"><a xlink:href="../../d0/da0/classGeomSvc.html#a2b7ecf5467120206b9479654c48ad7c4" target="_top" xlink:title="singlton instance ">
<polygon fill="none" stroke="black" points="361,-186.603 361,-205.603 461,-205.603 461,-186.603 361,-186.603"/>
<text text-anchor="middle" x="411" y="-193.603" font-family="FreeSans" font-size="10.00">GeomSvc::instance</text>
</a>
</g>
</g>
<!-- Node5&#45;&gt;Node21 -->
<g id="edge22" class="edge"><title>Node5&#45;&gt;Node21</title>
<path fill="none" stroke="midnightblue" d="M233.689,-676.447C238.185,-616.069 265.202,-290.744 330,-220.103 335.847,-213.729 343.314,-209.022 351.327,-205.551"/>
<polygon fill="midnightblue" stroke="midnightblue" points="352.746,-208.759 360.921,-202.02 350.328,-202.19 352.746,-208.759"/>
</g>
<!-- Node30 -->
<g id="node30" class="node"><title>Node30</title>
<g id="a_node30"><a xlink:href="../../d8/d14/classrecoConsts.html#a5502a14fdb8433de15c2e71351f281d6" target="_top" xlink:title="recoConsts::Print">
<polygon fill="none" stroke="black" points="366.5,-148.603 366.5,-167.603 455.5,-167.603 455.5,-148.603 366.5,-148.603"/>
<text text-anchor="middle" x="411" y="-155.603" font-family="FreeSans" font-size="10.00">recoConsts::Print</text>
</a>
</g>
</g>
<!-- Node5&#45;&gt;Node30 -->
<g id="edge34" class="edge"><title>Node5&#45;&gt;Node30</title>
<path fill="none" stroke="midnightblue" d="M233.454,-676.35C236.633,-612.362 257.575,-252.853 330,-177.103 337.103,-169.674 346.539,-164.921 356.433,-161.927"/>
<polygon fill="midnightblue" stroke="midnightblue" points="357.53,-165.262 366.411,-159.484 355.865,-158.462 357.53,-165.262"/>
</g>
<!-- Node31 -->
<g id="node31" class="node"><title>Node31</title>
<g id="a_node31"><a xlink:href="../../da/d29/classFun4AllServer.html#ae3fe7393e52376b515c60dd927670f2e" target="_top" xlink:title="Fun4AllServer::PrintTimer">
<polygon fill="none" stroke="black" points="347.5,-973.603 347.5,-992.603 474.5,-992.603 474.5,-973.603 347.5,-973.603"/>
<text text-anchor="middle" x="411" y="-980.603" font-family="FreeSans" font-size="10.00">Fun4AllServer::PrintTimer</text>
</a>
</g>
</g>
<!-- Node5&#45;&gt;Node31 -->
<g id="edge35" class="edge"><title>Node5&#45;&gt;Node31</title>
<path fill="none" stroke="midnightblue" d="M233.23,-695.757C234.726,-735.539 245.94,-888.249 330,-964.103 332.623,-966.47 335.487,-968.557 338.52,-970.396"/>
<polygon fill="midnightblue" stroke="midnightblue" points="336.958,-973.529 347.458,-974.948 340.135,-967.291 336.958,-973.529"/>
</g>
<!-- Node32 -->
<g id="node32" class="node"><title>Node32</title>
<g id="a_node32"><a xlink:href="../../dc/da8/classAnaModule.html#aae26c89fb67266a27325b364ba48cc38" target="_top" xlink:title="AnaModule::registerDetector">
<polygon fill="none" stroke="black" points="342,-935.603 342,-954.603 480,-954.603 480,-935.603 342,-935.603"/>
<text text-anchor="middle" x="411" y="-942.603" font-family="FreeSans" font-size="10.00">AnaModule::registerDetector</text>
</a>
</g>
</g>
<!-- Node5&#45;&gt;Node32 -->
<g id="edge36" class="edge"><title>Node5&#45;&gt;Node32</title>
<path fill="none" stroke="midnightblue" d="M233.815,-695.674C237.436,-731.922 255.357,-861.954 330,-926.103 331.803,-927.653 333.711,-929.082 335.701,-930.398"/>
<polygon fill="midnightblue" stroke="midnightblue" points="334.447,-933.704 344.891,-935.482 337.835,-927.579 334.447,-933.704"/>
</g>
<!-- Node34 -->
<g id="node34" class="node"><title>Node34</title>
<g id="a_node34"><a xlink:href="../../da/d29/classFun4AllServer.html#ab2cb490790d15b865ae79eb3094caabe" target="_top" xlink:title="Fun4AllServer::registerInput\lManager">
<polygon fill="none" stroke="black" points="343.5,-358.103 343.5,-388.103 478.5,-388.103 478.5,-358.103 343.5,-358.103"/>
<text text-anchor="start" x="351.5" y="-376.103" font-family="FreeSans" font-size="10.00">Fun4AllServer::registerInput</text>
<text text-anchor="middle" x="411" y="-365.103" font-family="FreeSans" font-size="10.00">Manager</text>
</a>
</g>
</g>
<!-- Node5&#45;&gt;Node34 -->
<g id="edge38" class="edge"><title>Node5&#45;&gt;Node34</title>
<path fill="none" stroke="midnightblue" d="M233.248,-676.547C234.815,-636.44 246.273,-480.009 330,-398.103 331.482,-396.653 333.047,-395.287 334.682,-394"/>
<polygon fill="midnightblue" stroke="midnightblue" points="336.991,-396.667 343.364,-388.203 333.104,-390.845 336.991,-396.667"/>
</g>
<!-- Node37 -->
<g id="node37" class="node"><title>Node37</title>
<g id="a_node37"><a xlink:href="../../da/d29/classFun4AllServer.html#a0a9947db0ede1e55622001eb7515f8c0" target="_top" xlink:title="Fun4AllServer::registerSubsystem">
<polygon fill="none" stroke="black" points="330.5,-407.603 330.5,-426.603 491.5,-426.603 491.5,-407.603 330.5,-407.603"/>
<text text-anchor="middle" x="411" y="-414.603" font-family="FreeSans" font-size="10.00">Fun4AllServer::registerSubsystem</text>
</a>
</g>
</g>
<!-- Node5&#45;&gt;Node37 -->
<g id="edge42" class="edge"><title>Node5&#45;&gt;Node37</title>
<path fill="none" stroke="midnightblue" d="M235.691,-676.571C244.806,-645.513 276.937,-545.418 330,-479.103 345.332,-459.943 367.744,-443.236 384.949,-432.008"/>
<polygon fill="midnightblue" stroke="midnightblue" points="386.83,-434.96 393.406,-426.652 383.085,-429.046 386.83,-434.96"/>
</g>
<!-- Node40 -->
<g id="node40" class="node"><title>Node40</title>
<g id="a_node40"><a xlink:href="../../da/d29/classFun4AllServer.html#a11bbc8b2f53bc06e0b05ee202dd6372a" target="_top" xlink:title="run n events (0 means up to end of file) ">
<polygon fill="none" stroke="black" points="363.5,-657.603 363.5,-676.603 458.5,-676.603 458.5,-657.603 363.5,-657.603"/>
<text text-anchor="middle" x="411" y="-664.603" font-family="FreeSans" font-size="10.00">Fun4AllServer::run</text>
</a>
</g>
</g>
<!-- Node5&#45;&gt;Node40 -->
<g id="edge47" class="edge"><title>Node5&#45;&gt;Node40</title>
<path fill="none" stroke="midnightblue" d="M247.185,-684.581C269.906,-682.142 315.687,-677.227 352.933,-673.229"/>
<polygon fill="midnightblue" stroke="midnightblue" points="353.616,-676.676 363.185,-672.129 352.869,-669.716 353.616,-676.676"/>
</g>
<!-- Node47 -->
<g id="node47" class="node"><title>Node47</title>
<g id="a_node47"><a xlink:href="../../d1/da8/classPHFlag.html#a64f8c67e9313e5cecdbed51f747026da" target="_top" xlink:title="PHFlag::set_DoubleFlag">
<polygon fill="none" stroke="black" points="351,-897.603 351,-916.603 471,-916.603 471,-897.603 351,-897.603"/>
<text text-anchor="middle" x="411" y="-904.603" font-family="FreeSans" font-size="10.00">PHFlag::set_DoubleFlag</text>
</a>
</g>
</g>
<!-- Node5&#45;&gt;Node47 -->
<g id="edge61" class="edge"><title>Node5&#45;&gt;Node47</title>
<path fill="none" stroke="midnightblue" d="M234.695,-695.873C240.885,-728.488 265.385,-834.522 330,-887.103 333.531,-889.977 337.419,-892.445 341.52,-894.564"/>
<polygon fill="midnightblue" stroke="midnightblue" points="340.225,-897.818 350.786,-898.668 343.06,-891.418 340.225,-897.818"/>
</g>
<!-- Node48 -->
<g id="node48" class="node"><title>Node48</title>
<g id="a_node48"><a xlink:href="../../dc/da8/classAnaModule.html#a815e50856d90a0bc816ad165bcf8d8f4" target="_top" xlink:title="AnaModule::set_output\l_filename">
<polygon fill="none" stroke="black" points="353.5,-848.103 353.5,-878.103 468.5,-878.103 468.5,-848.103 353.5,-848.103"/>
<text text-anchor="start" x="361.5" y="-866.103" font-family="FreeSans" font-size="10.00">AnaModule::set_output</text>
<text text-anchor="middle" x="411" y="-855.103" font-family="FreeSans" font-size="10.00">_filename</text>
</a>
</g>
</g>
<!-- Node5&#45;&gt;Node48 -->
<g id="edge62" class="edge"><title>Node5&#45;&gt;Node48</title>
<path fill="none" stroke="midnightblue" d="M236.496,-695.959C246.569,-722.927 278.276,-798.551 330,-838.103 334.335,-841.418 339.116,-844.298 344.12,-846.8"/>
<polygon fill="midnightblue" stroke="midnightblue" points="342.762,-850.026 353.32,-850.906 345.615,-843.634 342.762,-850.026"/>
</g>
<!-- Node49 -->
<g id="node49" class="node"><title>Node49</title>
<g id="a_node49"><a xlink:href="../../d0/da0/classGeomSvc.html#a5c51613529dae6339bb35eb99e81f758" target="_top" xlink:title="GeomSvc::UseDbSvc">
<polygon fill="none" stroke="black" points="356.5,-809.603 356.5,-828.603 465.5,-828.603 465.5,-809.603 356.5,-809.603"/>
<text text-anchor="middle" x="411" y="-816.603" font-family="FreeSans" font-size="10.00">GeomSvc::UseDbSvc</text>
</a>
</g>
</g>
<!-- Node5&#45;&gt;Node49 -->
<g id="edge63" class="edge"><title>Node5&#45;&gt;Node49</title>
<path fill="none" stroke="midnightblue" d="M238.34,-695.851C251.062,-718.105 285.456,-772.825 330,-800.103 335.147,-803.256 340.776,-805.885 346.588,-808.078"/>
<polygon fill="midnightblue" stroke="midnightblue" points="345.894,-811.536 356.488,-811.372 348.105,-804.894 345.894,-811.536"/>
</g>
<!-- Node50 -->
<g id="node50" class="node"><title>Node50</title>
<g id="a_node50"><a xlink:href="../../d5/dec/classFun4AllBase.html#a05da2261577843028cf78e99171343b9" target="_top" xlink:title="Sets the verbosity of this module (0 by default=quiet). ">
<polygon fill="none" stroke="black" points="353.5,-771.603 353.5,-790.603 468.5,-790.603 468.5,-771.603 353.5,-771.603"/>
<text text-anchor="middle" x="411" y="-778.603" font-family="FreeSans" font-size="10.00">Fun4AllBase::Verbosity</text>
</a>
</g>
</g>
<!-- Node5&#45;&gt;Node50 -->
<g id="edge64" class="edge"><title>Node5&#45;&gt;Node50</title>
<path fill="none" stroke="midnightblue" d="M242.226,-695.647C258.437,-711.844 293.765,-744.649 330,-762.103 334.984,-764.504 340.291,-766.613 345.711,-768.464"/>
<polygon fill="midnightblue" stroke="midnightblue" points="344.953,-771.894 355.542,-771.524 347.034,-765.21 344.953,-771.894"/>
</g>
<!-- Node7 -->
<g id="node7" class="node"><title>Node7</title>
<g id="a_node7"><a xlink:href="../../d5/de9/E1039Shielding_2ana_8C.html#a4770f9752bd2f6c264c3a5f0e5f07bf3" target="_top" xlink:title="drawSnglAccPz">
<polygon fill="none" stroke="black" points="550.5,-932.603 550.5,-951.603 635.5,-951.603 635.5,-932.603 550.5,-932.603"/>
<text text-anchor="middle" x="593" y="-939.603" font-family="FreeSans" font-size="10.00">drawSnglAccPz</text>
</a>
</g>
</g>
<!-- Node6&#45;&gt;Node7 -->
<g id="edge6" class="edge"><title>Node6&#45;&gt;Node7</title>
<path fill="none" stroke="midnightblue" d="M427.228,-742.267C445.229,-742.159 474.895,-744.889 492,-762.103 542.154,-812.578 481.113,-864.581 528,-918.103 531.714,-922.343 536.254,-925.836 541.184,-928.713"/>
<polygon fill="midnightblue" stroke="midnightblue" points="539.87,-931.968 550.387,-933.255 542.968,-925.691 539.87,-931.968"/>
</g>
<!-- Node8 -->
<g id="node8" class="node"><title>Node8</title>
<g id="a_node8"><a xlink:href="../../d5/de9/E1039Shielding_2ana_8C.html#a68f99920be96fd675894490fd64e9a37" target="_top" xlink:title="getEffHist">
<polygon fill="none" stroke="red" points="740.5,-932.603 740.5,-951.603 797.5,-951.603 797.5,-932.603 740.5,-932.603"/>
<text text-anchor="middle" x="769" y="-939.603" font-family="FreeSans" font-size="10.00">getEffHist</text>
</a>
</g>
</g>
<!-- Node7&#45;&gt;Node8 -->
<g id="edge7" class="edge"><title>Node7&#45;&gt;Node8</title>
<path fill="none" stroke="midnightblue" d="M635.677,-942.103C664.473,-942.103 702.459,-942.103 730.343,-942.103"/>
<polygon fill="midnightblue" stroke="midnightblue" points="730.494,-945.604 740.494,-942.103 730.494,-938.604 730.494,-945.604"/>
</g>
<!-- Node9&#45;&gt;Node10 -->
<g id="edge9" class="edge"><title>Node9&#45;&gt;Node10</title>
<path fill="none" stroke="midnightblue" d="M423.877,-578.692C444.537,-595.214 488.651,-629.807 528,-656.103 583.832,-693.415 605.323,-691.456 658,-733.103 696.045,-763.183 733.872,-805.916 753.728,-829.597"/>
<polygon fill="midnightblue" stroke="midnightblue" points="751.121,-831.936 760.198,-837.401 756.51,-827.468 751.121,-831.936"/>
</g>
<!-- Node12 -->
<g id="node12" class="node"><title>Node12</title>
<g id="a_node12"><a xlink:href="../../da/d29/classFun4AllServer.html#a53b1b6b338aa36891f2690a188920980" target="_top" xlink:title="Fun4AllServer::EndRun">
<polygon fill="none" stroke="black" points="535,-578.603 535,-597.603 651,-597.603 651,-578.603 535,-578.603"/>
<text text-anchor="middle" x="593" y="-585.603" font-family="FreeSans" font-size="10.00">Fun4AllServer::EndRun</text>
</a>
</g>
</g>
<!-- Node9&#45;&gt;Node12 -->
<g id="edge11" class="edge"><title>Node9&#45;&gt;Node12</title>
<path fill="none" stroke="midnightblue" d="M460.237,-574.195C480.105,-576.292 503.461,-578.758 524.948,-581.026"/>
<polygon fill="midnightblue" stroke="midnightblue" points="524.683,-584.517 534.995,-582.086 525.417,-577.556 524.683,-584.517"/>
</g>
<!-- Node13 -->
<g id="node13" class="node"><title>Node13</title>
<g id="a_node13"><a xlink:href="../../d1/da8/classPHFlag.html#a07899067141a5f12333cc37183caddc8" target="_top" xlink:title="PHFlag::get_IntFlag">
<polygon fill="none" stroke="black" points="542,-540.603 542,-559.603 644,-559.603 644,-540.603 542,-540.603"/>
<text text-anchor="middle" x="593" y="-547.603" font-family="FreeSans" font-size="10.00">PHFlag::get_IntFlag</text>
</a>
</g>
</g>
<!-- Node9&#45;&gt;Node13 -->
<g id="edge12" class="edge"><title>Node9&#45;&gt;Node13</title>
<path fill="none" stroke="midnightblue" d="M460.237,-564.012C482.189,-561.695 508.401,-558.928 531.644,-556.474"/>
<polygon fill="midnightblue" stroke="midnightblue" points="532.167,-559.939 541.744,-555.408 531.432,-552.977 532.167,-559.939"/>
</g>
<!-- Node14 -->
<g id="node14" class="node"><title>Node14</title>
<g id="a_node14"><a xlink:href="../../d5/d07/classPHNodeIterator.html#aea98bf8619af59b1212a94fb32106baa" target="_top" xlink:title="PHNodeIterator::findFirst">
<polygon fill="none" stroke="black" points="708,-562.603 708,-581.603 830,-581.603 830,-562.603 708,-562.603"/>
<text text-anchor="middle" x="769" y="-569.603" font-family="FreeSans" font-size="10.00">PHNodeIterator::findFirst</text>
</a>
</g>
</g>
<!-- Node9&#45;&gt;Node14 -->
<g id="edge13" class="edge"><title>Node9&#45;&gt;Node14</title>
<path fill="none" stroke="midnightblue" d="M434.148,-559.51C457.113,-550.125 494.307,-536.481 528,-531.103 585.056,-521.996 601.139,-520.851 658,-531.103 686.699,-536.278 717.681,-548.477 739.428,-558.231"/>
<polygon fill="midnightblue" stroke="midnightblue" points="738.181,-561.51 748.729,-562.507 741.105,-555.15 738.181,-561.51"/>
</g>
<!-- Node17 -->
<g id="node17" class="node"><title>Node17</title>
<g id="a_node17"><a xlink:href="../../da/d29/classFun4AllServer.html#a6f2074f451d0c0c1b4a802edde5ffb94" target="_top" xlink:title="Fun4AllServer::outfileclose">
<polygon fill="none" stroke="black" points="528,-464.603 528,-483.603 658,-483.603 658,-464.603 528,-464.603"/>
<text text-anchor="middle" x="593" y="-471.603" font-family="FreeSans" font-size="10.00">Fun4AllServer::outfileclose</text>
</a>
</g>
</g>
<!-- Node9&#45;&gt;Node17 -->
<g id="edge17" class="edge"><title>Node9&#45;&gt;Node17</title>
<path fill="none" stroke="midnightblue" d="M425.793,-559.46C447.043,-544.885 489.38,-516.95 528,-498.103 536.058,-494.171 544.936,-490.469 553.446,-487.204"/>
<polygon fill="midnightblue" stroke="midnightblue" points="554.681,-490.479 562.836,-483.714 552.243,-483.917 554.681,-490.479"/>
</g>
<!-- Node11 -->
<g id="node11" class="node"><title>Node11</title>
<g id="a_node11"><a xlink:href="../../d8/d14/classrecoConsts.html#ae882d6adc62f783ec78114fe3dee3c24" target="_top" xlink:title="recoConsts::recoConsts">
<polygon fill="none" stroke="black" points="894.5,-837.603 894.5,-856.603 1011.5,-856.603 1011.5,-837.603 894.5,-837.603"/>
<text text-anchor="middle" x="953" y="-844.603" font-family="FreeSans" font-size="10.00">recoConsts::recoConsts</text>
</a>
</g>
</g>
<!-- Node10&#45;&gt;Node11 -->
<g id="edge10" class="edge"><title>Node10&#45;&gt;Node11</title>
<path fill="none" stroke="midnightblue" d="M821.667,-847.103C841.175,-847.103 863.669,-847.103 884.419,-847.103"/>
<polygon fill="midnightblue" stroke="midnightblue" points="884.445,-850.604 894.445,-847.103 884.445,-843.604 884.445,-850.604"/>
</g>
<!-- Node15 -->
<g id="node15" class="node"><title>Node15</title>
<g id="a_node15"><a xlink:href="../../dc/d82/classPHNode.html#a4ab1f90aed955a652813bfe377087bda" target="_top" xlink:title="PHNode::getType">
<polygon fill="none" stroke="black" points="907,-581.603 907,-600.603 999,-600.603 999,-581.603 907,-581.603"/>
<text text-anchor="middle" x="953" y="-588.603" font-family="FreeSans" font-size="10.00">PHNode::getType</text>
</a>
</g>
</g>
<!-- Node14&#45;&gt;Node15 -->
<g id="edge14" class="edge"><title>Node14&#45;&gt;Node15</title>
<path fill="none" stroke="midnightblue" d="M830.098,-578.377C851.631,-580.625 875.784,-583.147 896.875,-585.349"/>
<polygon fill="midnightblue" stroke="midnightblue" points="896.649,-588.844 906.958,-586.401 897.376,-581.882 896.649,-588.844"/>
</g>
<!-- Node16 -->
<g id="node16" class="node"><title>Node16</title>
<g id="a_node16"><a xlink:href="../../dc/d82/classPHNode.html#aca3576f926a4401eddc3d88bf0ce0de3" target="_top" xlink:title="PHNode::getName">
<polygon fill="none" stroke="black" points="905,-543.603 905,-562.603 1001,-562.603 1001,-543.603 905,-543.603"/>
<text text-anchor="middle" x="953" y="-550.603" font-family="FreeSans" font-size="10.00">PHNode::getName</text>
</a>
</g>
</g>
<!-- Node14&#45;&gt;Node16 -->
<g id="edge15" class="edge"><title>Node14&#45;&gt;Node16</title>
<path fill="none" stroke="midnightblue" d="M830.098,-565.829C850.913,-563.656 874.176,-561.228 894.756,-559.08"/>
<polygon fill="midnightblue" stroke="midnightblue" points="895.349,-562.537 904.932,-558.017 894.622,-555.574 895.349,-562.537"/>
</g>
<!-- Node14&#45;&gt;Node14 -->
<g id="edge16" class="edge"><title>Node14&#45;&gt;Node14</title>
<path fill="none" stroke="midnightblue" d="M741.873,-581.861C728.677,-590.669 737.719,-600.103 769,-600.103 790.506,-600.103 801.5,-595.644 801.983,-589.995"/>
<polygon fill="midnightblue" stroke="midnightblue" points="804.81,-587.931 796.127,-581.861 799.129,-592.021 804.81,-587.931"/>
</g>
<!-- Node18 -->
<g id="node18" class="node"><title>Node18</title>
<g id="a_node18"><a xlink:href="../../d5/dec/classFun4AllBase.html#a41f9ac377743d046f590617fd6f4f0ed" target="_top" xlink:title="Returns the name of this module. ">
<polygon fill="none" stroke="black" points="718.5,-426.603 718.5,-445.603 819.5,-445.603 819.5,-426.603 718.5,-426.603"/>
<text text-anchor="middle" x="769" y="-433.603" font-family="FreeSans" font-size="10.00">Fun4AllBase::Name</text>
</a>
</g>
</g>
<!-- Node17&#45;&gt;Node18 -->
<g id="edge18" class="edge"><title>Node17&#45;&gt;Node18</title>
<path fill="none" stroke="midnightblue" d="M637.908,-464.514C661.179,-459.432 689.954,-453.148 714.519,-447.783"/>
<polygon fill="midnightblue" stroke="midnightblue" points="715.385,-451.177 724.408,-445.624 713.892,-444.338 715.385,-451.177"/>
</g>
<!-- Node22 -->
<g id="node22" class="node"><title>Node22</title>
<g id="a_node22"><a xlink:href="../../d0/da0/classGeomSvc.html#a96ec4efc82cbaed0b5623e4dd69385b6" target="_top" xlink:title="Initialization, either from MySQL or from ascii file. ">
<polygon fill="none" stroke="black" points="554.5,-129.603 554.5,-148.603 631.5,-148.603 631.5,-129.603 554.5,-129.603"/>
<text text-anchor="middle" x="593" y="-136.603" font-family="FreeSans" font-size="10.00">GeomSvc::init</text>
</a>
</g>
</g>
<!-- Node21&#45;&gt;Node22 -->
<g id="edge23" class="edge"><title>Node21&#45;&gt;Node22</title>
<path fill="none" stroke="midnightblue" d="M456.708,-186.569C468.283,-183.805 480.674,-180.584 492,-177.103 515.084,-170.009 540.518,-160.318 559.958,-152.498"/>
<polygon fill="midnightblue" stroke="midnightblue" points="561.313,-155.725 569.258,-148.716 558.676,-149.241 561.313,-155.725"/>
</g>
<!-- Node23 -->
<g id="node23" class="node"><title>Node23</title>
<g id="a_node23"><a xlink:href="../../d0/da0/classGeomSvc.html#adbe1473f9b3a8ff942da8d7d8ee28322" target="_top" xlink:title="GeomSvc::initPlaneDbSvc">
<polygon fill="none" stroke="red" points="704,-224.603 704,-243.603 834,-243.603 834,-224.603 704,-224.603"/>
<text text-anchor="middle" x="769" y="-231.603" font-family="FreeSans" font-size="10.00">GeomSvc::initPlaneDbSvc</text>
</a>
</g>
</g>
<!-- Node22&#45;&gt;Node23 -->
<g id="edge24" class="edge"><title>Node22&#45;&gt;Node23</title>
<path fill="none" stroke="midnightblue" d="M603.878,-148.82C620.854,-164.978 657.293,-197.345 694,-215.103 698.925,-217.486 704.185,-219.594 709.542,-221.455"/>
<polygon fill="midnightblue" stroke="midnightblue" points="708.652,-224.844 719.242,-224.541 710.774,-218.174 708.652,-224.844"/>
</g>
<!-- Node24 -->
<g id="node24" class="node"><title>Node24</title>
<g id="a_node24"><a xlink:href="../../d0/da0/classGeomSvc.html#a0d550b9f787318d57cdae9db2d04d6fb" target="_top" xlink:title="GeomSvc::initPlaneDirect">
<polygon fill="none" stroke="red" points="705.5,-34.6035 705.5,-53.6035 832.5,-53.6035 832.5,-34.6035 705.5,-34.6035"/>
<text text-anchor="middle" x="769" y="-41.6035" font-family="FreeSans" font-size="10.00">GeomSvc::initPlaneDirect</text>
</a>
</g>
</g>
<!-- Node22&#45;&gt;Node24 -->
<g id="edge26" class="edge"><title>Node22&#45;&gt;Node24</title>
<path fill="none" stroke="midnightblue" d="M604.973,-129.587C622.648,-114.674 658.992,-85.6894 694,-68.1035 702.599,-63.7839 712.144,-60.0096 721.442,-56.8118"/>
<polygon fill="midnightblue" stroke="midnightblue" points="722.574,-60.1238 730.992,-53.6893 720.399,-53.4704 722.574,-60.1238"/>
</g>
<!-- Node25 -->
<g id="node25" class="node"><title>Node25</title>
<g id="a_node25"><a xlink:href="../../d8/d62/classJobOptsSvc.html#aeb0d694dc08274aa90b0d6b1ee8384cb" target="_top" xlink:title="singlton instance ">
<polygon fill="none" stroke="red" points="898,-62.6035 898,-81.6035 1008,-81.6035 1008,-62.6035 898,-62.6035"/>
<text text-anchor="middle" x="953" y="-69.6035" font-family="FreeSans" font-size="10.00">JobOptsSvc::instance</text>
</a>
</g>
</g>
<!-- Node22&#45;&gt;Node25 -->
<g id="edge29" class="edge"><title>Node22&#45;&gt;Node25</title>
<path fill="none" stroke="midnightblue" d="M614.584,-129.528C634.47,-120.703 665.66,-107.965 694,-101.103 758.891,-85.3927 835.065,-78.1538 887.74,-74.8428"/>
<polygon fill="midnightblue" stroke="midnightblue" points="888.178,-78.323 897.951,-74.2317 887.76,-71.3355 888.178,-78.323"/>
</g>
<!-- Node27 -->
<g id="node27" class="node"><title>Node27</title>
<g id="a_node27"><a xlink:href="../../d0/da0/classGeomSvc.html#ab6c810e39b86ce66a4be6a596b4d54b8" target="_top" xlink:title="GeomSvc::loadAlignment">
<polygon fill="none" stroke="black" points="706.5,-186.603 706.5,-205.603 831.5,-205.603 831.5,-186.603 706.5,-186.603"/>
<text text-anchor="middle" x="769" y="-193.603" font-family="FreeSans" font-size="10.00">GeomSvc::loadAlignment</text>
</a>
</g>
</g>
<!-- Node22&#45;&gt;Node27 -->
<g id="edge30" class="edge"><title>Node22&#45;&gt;Node27</title>
<path fill="none" stroke="midnightblue" d="M617.178,-148.757C637.281,-156.925 667.269,-168.622 694,-177.103 701.556,-179.501 709.617,-181.814 717.536,-183.953"/>
<polygon fill="midnightblue" stroke="midnightblue" points="716.88,-187.399 727.441,-186.56 718.662,-180.63 716.88,-187.399"/>
</g>
<!-- Node26 -->
<g id="node26" class="node"><title>Node26</title>
<g id="a_node26"><a xlink:href="../../d0/da0/classGeomSvc.html#a418543d7b33fc95092b2cd4a7496f1b8" target="_top" xlink:title="GeomSvc::loadMilleAlignment">
<polygon fill="none" stroke="black" points="880,-5.60346 880,-24.6035 1026,-24.6035 1026,-5.60346 880,-5.60346"/>
<text text-anchor="middle" x="953" y="-12.6035" font-family="FreeSans" font-size="10.00">GeomSvc::loadMilleAlignment</text>
</a>
</g>
</g>
<!-- Node22&#45;&gt;Node26 -->
<g id="edge31" class="edge"><title>Node22&#45;&gt;Node26</title>
<path fill="none" stroke="midnightblue" d="M598.88,-129.424C611.143,-106.307 645.755,-48.096 694,-25.1035 755.774,4.33663 835.621,2.22068 890.017,-4.28479"/>
<polygon fill="midnightblue" stroke="midnightblue" points="889.842,-7.79089 900.206,-5.59003 890.732,-0.847632 889.842,-7.79089"/>
</g>
<!-- Node28 -->
<g id="node28" class="node"><title>Node28</title>
<g id="a_node28"><a xlink:href="../../d0/da0/classGeomSvc.html#abc60088ed5985a796f5df18ae4299661" target="_top" xlink:title="GeomSvc::loadCalibration">
<polygon fill="none" stroke="red" points="705,-148.603 705,-167.603 833,-167.603 833,-148.603 705,-148.603"/>
<text text-anchor="middle" x="769" y="-155.603" font-family="FreeSans" font-size="10.00">GeomSvc::loadCalibration</text>
</a>
</g>
</g>
<!-- Node22&#45;&gt;Node28 -->
<g id="edge32" class="edge"><title>Node22&#45;&gt;Node28</title>
<path fill="none" stroke="midnightblue" d="M631.755,-143.226C650.134,-145.233 672.885,-147.717 694.497,-150.077"/>
<polygon fill="midnightblue" stroke="midnightblue" points="694.336,-153.58 704.657,-151.187 695.096,-146.622 694.336,-153.58"/>
</g>
<!-- Node29 -->
<g id="node29" class="node"><title>Node29</title>
<g id="a_node29"><a xlink:href="../../d0/da0/classGeomSvc.html#a0c78d3ac904cfbb367e96c73f176630d" target="_top" xlink:title="GeomSvc::initWireLUT">
<polygon fill="none" stroke="black" points="712,-110.603 712,-129.603 826,-129.603 826,-110.603 712,-110.603"/>
<text text-anchor="middle" x="769" y="-117.603" font-family="FreeSans" font-size="10.00">GeomSvc::initWireLUT</text>
</a>
</g>
</g>
<!-- Node22&#45;&gt;Node29 -->
<g id="edge33" class="edge"><title>Node22&#45;&gt;Node29</title>
<path fill="none" stroke="midnightblue" d="M631.755,-134.981C652.22,-132.746 678.106,-129.919 701.804,-127.332"/>
<polygon fill="midnightblue" stroke="midnightblue" points="702.243,-130.805 711.804,-126.24 701.483,-123.846 702.243,-130.805"/>
</g>
<!-- Node23&#45;&gt;Node5 -->
<g id="edge25" class="edge"><title>Node23&#45;&gt;Node5</title>
<path fill="none" stroke="midnightblue" d="M717.524,-224.586C626.49,-210.618 434.582,-196.316 330,-299.103 276.302,-351.879 243.854,-594.107 235.289,-665.959"/>
<polygon fill="midnightblue" stroke="midnightblue" points="231.763,-665.974 234.081,-676.312 238.716,-666.785 231.763,-665.974"/>
</g>
<!-- Node24&#45;&gt;Node25 -->
<g id="edge27" class="edge"><title>Node24&#45;&gt;Node25</title>
<path fill="none" stroke="midnightblue" d="M831.871,-53.6221C849.956,-56.4044 869.758,-59.4508 887.974,-62.2533"/>
<polygon fill="midnightblue" stroke="midnightblue" points="887.494,-65.7205 897.91,-63.7819 888.558,-58.8019 887.494,-65.7205"/>
</g>
<!-- Node24&#45;&gt;Node26 -->
<g id="edge28" class="edge"><title>Node24&#45;&gt;Node26</title>
<path fill="none" stroke="midnightblue" d="M829.846,-34.5676C846.561,-31.9042 864.871,-28.9866 882.111,-26.2396"/>
<polygon fill="midnightblue" stroke="midnightblue" points="882.794,-29.6751 892.118,-24.645 881.692,-22.7623 882.794,-29.6751"/>
</g>
<!-- Node33 -->
<g id="node33" class="node"><title>Node33</title>
<g id="a_node33"><a xlink:href="../../d0/da0/classGeomSvc.html#a3e4f40789e9b2a98477ab8e8191d5ff2" target="_top" xlink:title="Get the plane position. ">
<polygon fill="none" stroke="black" points="531,-970.603 531,-989.603 655,-989.603 655,-970.603 531,-970.603"/>
<text text-anchor="middle" x="593" y="-977.603" font-family="FreeSans" font-size="10.00">GeomSvc::getDetectorID</text>
</a>
</g>
</g>
<!-- Node32&#45;&gt;Node33 -->
<g id="edge37" class="edge"><title>Node32&#45;&gt;Node33</title>
<path fill="none" stroke="midnightblue" d="M461.186,-954.667C483.31,-958.969 509.609,-964.083 532.804,-968.593"/>
<polygon fill="midnightblue" stroke="midnightblue" points="532.389,-972.078 542.874,-970.551 533.726,-965.207 532.389,-972.078"/>
</g>
<!-- Node35 -->
<g id="node35" class="node"><title>Node35</title>
<g id="a_node35"><a xlink:href="../../dd/ded/classFun4AllSyncManager.html#a2a284bc4ed777ec7f39d6e5c7090067c" target="_top" xlink:title="Fun4AllSyncManager\l::registerInputManager">
<polygon fill="none" stroke="black" points="537,-263.103 537,-293.103 649,-293.103 649,-263.103 537,-263.103"/>
<text text-anchor="start" x="545" y="-281.103" font-family="FreeSans" font-size="10.00">Fun4AllSyncManager</text>
<text text-anchor="middle" x="593" y="-270.103" font-family="FreeSans" font-size="10.00">::registerInputManager</text>
</a>
</g>
</g>
<!-- Node34&#45;&gt;Node35 -->
<g id="edge39" class="edge"><title>Node34&#45;&gt;Node35</title>
<path fill="none" stroke="midnightblue" d="M473.61,-358.038C480.084,-355.247 486.353,-351.962 492,-348.103 513.147,-333.653 507.368,-318.28 528,-303.103 530.513,-301.255 533.181,-299.523 535.946,-297.903"/>
<polygon fill="midnightblue" stroke="midnightblue" points="537.824,-300.869 545.034,-293.106 534.556,-294.679 537.824,-300.869"/>
</g>
<!-- Node35&#45;&gt;Node18 -->
<g id="edge40" class="edge"><title>Node35&#45;&gt;Node18</title>
<path fill="none" stroke="midnightblue" d="M640.909,-293.185C646.915,-296.034 652.78,-299.329 658,-303.103 702.309,-335.145 739.342,-389.087 756.958,-417.426"/>
<polygon fill="midnightblue" stroke="midnightblue" points="754.172,-419.58 762.359,-426.304 760.152,-415.941 754.172,-419.58"/>
</g>
<!-- Node36 -->
<g id="node36" class="node"><title>Node36</title>
<g id="a_node36"><a xlink:href="../../d4/da9/classFun4AllInputManager.html#a5b0cdb689482c4143b7b22ca8a780c51" target="_top" xlink:title="Fun4AllInputManager\l::setSyncManager">
<polygon fill="none" stroke="black" points="714.5,-263.103 714.5,-293.103 823.5,-293.103 823.5,-263.103 714.5,-263.103"/>
<text text-anchor="start" x="722.5" y="-281.103" font-family="FreeSans" font-size="10.00">Fun4AllInputManager</text>
<text text-anchor="middle" x="769" y="-270.103" font-family="FreeSans" font-size="10.00">::setSyncManager</text>
</a>
</g>
</g>
<!-- Node35&#45;&gt;Node36 -->
<g id="edge41" class="edge"><title>Node35&#45;&gt;Node36</title>
<path fill="none" stroke="midnightblue" d="M649.055,-278.103C666.614,-278.103 686.19,-278.103 704.31,-278.103"/>
<polygon fill="midnightblue" stroke="midnightblue" points="704.493,-281.604 714.493,-278.103 704.493,-274.604 704.493,-281.604"/>
</g>
<!-- Node37&#45;&gt;Node20 -->
<g id="edge43" class="edge"><title>Node37&#45;&gt;Node20</title>
<path fill="none" stroke="midnightblue" d="M491.737,-425.52C502.497,-426.656 513.456,-427.813 523.987,-428.924"/>
<polygon fill="midnightblue" stroke="midnightblue" points="523.62,-432.405 533.932,-429.974 524.355,-425.444 523.62,-432.405"/>
</g>
<!-- Node37&#45;&gt;Node18 -->
<g id="edge44" class="edge"><title>Node37&#45;&gt;Node18</title>
<path fill="none" stroke="midnightblue" d="M491.637,-413.664C539.869,-412.436 602.576,-412.352 658,-417.103 676.078,-418.653 695.646,-421.611 713.196,-424.739"/>
<polygon fill="midnightblue" stroke="midnightblue" points="712.801,-428.225 723.269,-426.591 714.067,-421.341 712.801,-428.225"/>
</g>
<!-- Node38 -->
<g id="node38" class="node"><title>Node38</title>
<g id="a_node38"><a xlink:href="../../da/d29/classFun4AllServer.html#abcaf6825367e5db292ff795237bdcf62" target="_top" xlink:title="Fun4AllServer::topNode">
<polygon fill="none" stroke="black" points="534,-350.603 534,-369.603 652,-369.603 652,-350.603 534,-350.603"/>
<text text-anchor="middle" x="593" y="-357.603" font-family="FreeSans" font-size="10.00">Fun4AllServer::topNode</text>
</a>
</g>
</g>
<!-- Node37&#45;&gt;Node38 -->
<g id="edge45" class="edge"><title>Node37&#45;&gt;Node38</title>
<path fill="none" stroke="midnightblue" d="M453.761,-407.579C466.147,-404.508 479.69,-400.907 492,-397.103 498.508,-395.092 530.593,-383.162 556.69,-373.383"/>
<polygon fill="midnightblue" stroke="midnightblue" points="558.199,-376.555 566.333,-369.766 555.741,-370.001 558.199,-376.555"/>
</g>
<!-- Node39 -->
<g id="node39" class="node"><title>Node39</title>
<g id="a_node39"><a xlink:href="../../d0/d32/classSubsysReco.html#a6670c0a093dd2c2bdd44f8fc6f9ba8e8" target="_top" xlink:title="SubsysReco::Init">
<polygon fill="none" stroke="black" points="549,-312.603 549,-331.603 637,-331.603 637,-312.603 549,-312.603"/>
<text text-anchor="middle" x="593" y="-319.603" font-family="FreeSans" font-size="10.00">SubsysReco::Init</text>
</a>
</g>
</g>
<!-- Node37&#45;&gt;Node39 -->
<g id="edge46" class="edge"><title>Node37&#45;&gt;Node39</title>
<path fill="none" stroke="midnightblue" d="M471.914,-407.51C479.058,-404.844 485.951,-401.442 492,-397.103 516.043,-379.858 504.339,-358.869 528,-341.103 531.441,-338.52 535.23,-336.286 539.194,-334.355"/>
<polygon fill="midnightblue" stroke="midnightblue" points="540.81,-337.472 548.677,-330.376 538.102,-331.017 540.81,-337.472"/>
</g>
<!-- Node40&#45;&gt;Node10 -->
<g id="edge48" class="edge"><title>Node40&#45;&gt;Node10</title>
<path fill="none" stroke="midnightblue" d="M458.872,-673.036C470.955,-676.581 483.059,-682.204 492,-691.103 530.861,-729.784 486.628,-773.12 528,-809.103 553.931,-831.657 644.069,-840.895 706.183,-844.631"/>
<polygon fill="midnightblue" stroke="midnightblue" points="706.097,-848.131 716.28,-845.205 706.495,-841.143 706.097,-848.131"/>
</g>
<!-- Node41 -->
<g id="node41" class="node"><title>Node41</title>
<g id="a_node41"><a xlink:href="../../d1/da8/classPHFlag.html#a4b73a422f0076568904d71f40e849da5" target="_top" xlink:title="PHFlag::FlagExist">
<polygon fill="none" stroke="black" points="547,-780.603 547,-799.603 639,-799.603 639,-780.603 547,-780.603"/>
<text text-anchor="middle" x="593" y="-787.603" font-family="FreeSans" font-size="10.00">PHFlag::FlagExist</text>
</a>
</g>
</g>
<!-- Node40&#45;&gt;Node41 -->
<g id="edge49" class="edge"><title>Node40&#45;&gt;Node41</title>
<path fill="none" stroke="midnightblue" d="M458.575,-673.923C470.517,-677.478 482.622,-682.884 492,-691.103 521.32,-716.804 498.643,-745.445 528,-771.103 530.874,-773.616 534.069,-775.796 537.453,-777.688"/>
<polygon fill="midnightblue" stroke="midnightblue" points="536.225,-780.978 546.765,-782.054 539.197,-774.64 536.225,-780.978"/>
</g>
<!-- Node40&#45;&gt;Node13 -->
<g id="edge50" class="edge"><title>Node40&#45;&gt;Node13</title>
<path fill="none" stroke="midnightblue" d="M420.636,-657.522C438.689,-638.056 482.53,-593.651 528,-569.103 532.178,-566.848 536.659,-564.827 541.237,-563.025"/>
<polygon fill="midnightblue" stroke="midnightblue" points="542.478,-566.298 550.707,-559.625 540.112,-559.71 542.478,-566.298"/>
</g>
<!-- Node42 -->
<g id="node42" class="node"><title>Node42</title>
<g id="a_node42"><a xlink:href="../../da/d29/classFun4AllServer.html#ab2479a9a3e45d51118e308597acd5228" target="_top" xlink:title="Fun4AllServer::ResetNodeTree">
<polygon fill="none" stroke="red" points="694.5,-691.603 694.5,-710.603 843.5,-710.603 843.5,-691.603 694.5,-691.603"/>
<text text-anchor="middle" x="769" y="-698.603" font-family="FreeSans" font-size="10.00">Fun4AllServer::ResetNodeTree</text>
</a>
</g>
</g>
<!-- Node40&#45;&gt;Node42 -->
<g id="edge51" class="edge"><title>Node40&#45;&gt;Node42</title>
<path fill="none" stroke="midnightblue" d="M458.541,-671.548C515.666,-677.004 613.604,-686.358 684.015,-693.082"/>
<polygon fill="midnightblue" stroke="midnightblue" points="683.909,-696.588 694.196,-694.055 684.574,-689.62 683.909,-696.588"/>
</g>
<!-- Node44 -->
<g id="node44" class="node"><title>Node44</title>
<g id="a_node44"><a xlink:href="../../da/d29/classFun4AllServer.html#af1002b9170308da078c0e14a5ac4b514" target="_top" xlink:title="Fun4AllServer::setRun">
<polygon fill="none" stroke="red" points="537,-856.603 537,-875.603 649,-875.603 649,-856.603 537,-856.603"/>
<text text-anchor="middle" x="593" y="-863.603" font-family="FreeSans" font-size="10.00">Fun4AllServer::setRun</text>
</a>
</g>
</g>
<!-- Node40&#45;&gt;Node44 -->
<g id="edge53" class="edge"><title>Node40&#45;&gt;Node44</title>
<path fill="none" stroke="midnightblue" d="M458.821,-672.558C471.049,-676.09 483.24,-681.825 492,-691.103 539.364,-741.268 482.351,-790.373 528,-842.103 531.31,-845.854 535.265,-849.021 539.564,-851.693"/>
<polygon fill="midnightblue" stroke="midnightblue" points="538.289,-854.977 548.772,-856.515 541.536,-848.775 538.289,-854.977"/>
</g>
<!-- Node45 -->
<g id="node45" class="node"><title>Node45</title>
<g id="a_node45"><a xlink:href="../../da/d29/classFun4AllServer.html#afcfc5583204cac58b4e66a2406187a18" target="_top" xlink:title="Fun4AllServer::BeginRun">
<polygon fill="none" stroke="red" points="531,-742.603 531,-761.603 655,-761.603 655,-742.603 531,-742.603"/>
<text text-anchor="middle" x="593" y="-749.603" font-family="FreeSans" font-size="10.00">Fun4AllServer::BeginRun</text>
</a>
</g>
</g>
<!-- Node40&#45;&gt;Node45 -->
<g id="edge55" class="edge"><title>Node40&#45;&gt;Node45</title>
<path fill="none" stroke="midnightblue" d="M458.127,-676.619C469.683,-680.144 481.71,-684.861 492,-691.103 511.617,-703.003 508.795,-715.55 528,-728.103 534.283,-732.21 541.368,-735.752 548.475,-738.759"/>
<polygon fill="midnightblue" stroke="midnightblue" points="547.519,-742.143 558.107,-742.529 550.071,-735.625 547.519,-742.143"/>
</g>
<!-- Node40&#45;&gt;Node12 -->
<g id="edge56" class="edge"><title>Node40&#45;&gt;Node12</title>
<path fill="none" stroke="midnightblue" d="M428.492,-657.6C450.62,-645.111 491.38,-623.015 528,-608.103 534.375,-605.508 541.218,-603.044 547.975,-600.79"/>
<polygon fill="midnightblue" stroke="midnightblue" points="549.298,-604.041 557.746,-597.647 547.155,-597.377 549.298,-604.041"/>
</g>
<!-- Node46 -->
<g id="node46" class="node"><title>Node46</title>
<g id="a_node46"><a xlink:href="../../da/d29/classFun4AllServer.html#a6a65a944dfb40966ace97d35ab1f7942" target="_top" xlink:title="Fun4AllServer::process\l_event">
<polygon fill="none" stroke="red" points="535.5,-617.103 535.5,-647.103 650.5,-647.103 650.5,-617.103 535.5,-617.103"/>
<text text-anchor="start" x="543.5" y="-635.103" font-family="FreeSans" font-size="10.00">Fun4AllServer::process</text>
<text text-anchor="middle" x="593" y="-624.103" font-family="FreeSans" font-size="10.00">_event</text>
</a>
</g>
</g>
<!-- Node40&#45;&gt;Node46 -->
<g id="edge57" class="edge"><title>Node40&#45;&gt;Node46</title>
<path fill="none" stroke="midnightblue" d="M458.823,-657.999C479.148,-654.047 503.322,-649.346 525.461,-645.042"/>
<polygon fill="midnightblue" stroke="midnightblue" points="526.32,-648.44 535.468,-643.096 524.984,-641.569 526.32,-648.44"/>
</g>
<!-- Node43 -->
<g id="node43" class="node"><title>Node43</title>
<g id="a_node43"><a xlink:href="../../db/d8e/classPHNodeOperation.html#a641fdf1094ec15063171e199a4066a0d" target="_top" xlink:title="PHNodeOperation::Verbosity">
<polygon fill="none" stroke="black" points="884,-691.603 884,-710.603 1022,-710.603 1022,-691.603 884,-691.603"/>
<text text-anchor="middle" x="953" y="-698.603" font-family="FreeSans" font-size="10.00">PHNodeOperation::Verbosity</text>
</a>
</g>
</g>
<!-- Node42&#45;&gt;Node43 -->
<g id="edge52" class="edge"><title>Node42&#45;&gt;Node43</title>
<path fill="none" stroke="midnightblue" d="M843.502,-701.103C853.387,-701.103 863.558,-701.103 873.524,-701.103"/>
<polygon fill="midnightblue" stroke="midnightblue" points="873.816,-704.604 883.816,-701.103 873.816,-697.604 873.816,-704.604"/>
</g>
<!-- Node44&#45;&gt;Node10 -->
<g id="edge54" class="edge"><title>Node44&#45;&gt;Node10</title>
<path fill="none" stroke="midnightblue" d="M649.055,-860.092C667.2,-858.11 687.499,-855.894 706.118,-853.861"/>
<polygon fill="midnightblue" stroke="midnightblue" points="706.704,-857.318 716.265,-852.753 705.945,-850.359 706.704,-857.318"/>
</g>
<!-- Node46&#45;&gt;Node14 -->
<g id="edge58" class="edge"><title>Node46&#45;&gt;Node14</title>
<path fill="none" stroke="midnightblue" d="M637.908,-616.963C666.6,-607.069 703.659,-594.29 730.879,-584.904"/>
<polygon fill="midnightblue" stroke="midnightblue" points="732.116,-588.179 740.429,-581.611 729.834,-581.562 732.116,-588.179"/>
</g>
<!-- Node46&#45;&gt;Node18 -->
<g id="edge59" class="edge"><title>Node46&#45;&gt;Node18</title>
<path fill="none" stroke="midnightblue" d="M642.334,-617.096C647.919,-614.266 653.292,-610.956 658,-607.103 661.468,-604.266 728.668,-498.303 756.293,-454.629"/>
<polygon fill="midnightblue" stroke="midnightblue" points="759.309,-456.41 761.694,-446.087 753.392,-452.669 759.309,-456.41"/>
</g>
<!-- Node46&#45;&gt;Node42 -->
<g id="edge60" class="edge"><title>Node46&#45;&gt;Node42</title>
<path fill="none" stroke="midnightblue" d="M632.185,-647.246C662.744,-659.364 705.182,-676.193 734.448,-687.798"/>
<polygon fill="midnightblue" stroke="midnightblue" points="733.246,-691.087 743.832,-691.52 735.826,-684.58 733.246,-691.087"/>
</g>
</g>
</svg>
