<?xml version="1.0" encoding="UTF-8" standalone="no"?>
<!DOCTYPE svg PUBLIC "-//W3C//DTD SVG 1.1//EN"
 "http://www.w3.org/Graphics/SVG/1.1/DTD/svg11.dtd">
<!-- Generated by graphviz version 2.30.1 (20200930.0103)
 -->
<!-- Title: MakeRT Pages: 1 -->
<svg width="1616pt" height="826pt"
 viewBox="0.00 0.00 1616.00 826.00" xmlns="http://www.w3.org/2000/svg" xmlns:xlink="http://www.w3.org/1999/xlink">
<g id="graph0" class="graph" transform="scale(1 1) rotate(0) translate(4 822)">
<title>MakeRT</title>
<!-- Node1 -->
<g id="node1" class="node"><title>Node1</title>
<polygon fill="#bfbfbf" stroke="black" points="0.5,-152.5 0.5,-171.5 53.5,-171.5 53.5,-152.5 0.5,-152.5"/>
<text text-anchor="middle" x="27" y="-159.5" font-family="FreeSans" font-size="10.00">MakeRT</text>
</g>
<!-- Node2 -->
<g id="node2" class="node"><title>Node2</title>
<g id="a_node2"><a xlink:href="../../de/d72/classMakeRTCurve.html#ab93f9634739a05300ad5613619bda081" target="_top" xlink:title="MakeRTCurve::AnalyzeList\lOfFiles">
<polygon fill="none" stroke="black" points="97.5,-563 97.5,-593 228.5,-593 228.5,-563 97.5,-563"/>
<text text-anchor="start" x="105.5" y="-581" font-family="FreeSans" font-size="10.00">MakeRTCurve::AnalyzeList</text>
<text text-anchor="middle" x="163" y="-570" font-family="FreeSans" font-size="10.00">OfFiles</text>
</a>
</g>
</g>
<!-- Node1&#45;&gt;Node2 -->
<g id="edge1" class="edge"><title>Node1&#45;&gt;Node2</title>
<path fill="none" stroke="midnightblue" d="M29.2948,-171.747C34.2704,-207.794 53.7229,-336.665 90,-437 105.55,-480.007 131.301,-526.671 147.424,-554.072"/>
<polygon fill="midnightblue" stroke="midnightblue" points="144.57,-556.12 152.693,-562.923 150.585,-552.539 144.57,-556.12"/>
</g>
<!-- Node16 -->
<g id="node16" class="node"><title>Node16</title>
<g id="a_node16"><a xlink:href="../../de/d72/classMakeRTCurve.html#ab49f5926a8a687a7c6cd79b1bb5c5196" target="_top" xlink:title="MakeRTCurve::DrawHistEvent">
<polygon fill="none" stroke="black" points="90.5,-408.5 90.5,-427.5 235.5,-427.5 235.5,-408.5 90.5,-408.5"/>
<text text-anchor="middle" x="163" y="-415.5" font-family="FreeSans" font-size="10.00">MakeRTCurve::DrawHistEvent</text>
</a>
</g>
</g>
<!-- Node1&#45;&gt;Node16 -->
<g id="edge15" class="edge"><title>Node1&#45;&gt;Node16</title>
<path fill="none" stroke="midnightblue" d="M29.3993,-171.843C33.9454,-201.286 50.3606,-290.447 90,-352 103.014,-372.209 123.691,-390.273 139.555,-402.372"/>
<polygon fill="midnightblue" stroke="midnightblue" points="137.67,-405.331 147.793,-408.456 141.828,-399.7 137.67,-405.331"/>
</g>
<!-- Node18 -->
<g id="node18" class="node"><title>Node18</title>
<g id="a_node18"><a xlink:href="../../de/d72/classMakeRTCurve.html#a00cc34269fdac115f803771ab72d8fa5" target="_top" xlink:title="MakeRTCurve::DrawHistHit">
<polygon fill="none" stroke="black" points="96.5,-323.5 96.5,-342.5 229.5,-342.5 229.5,-323.5 96.5,-323.5"/>
<text text-anchor="middle" x="163" y="-330.5" font-family="FreeSans" font-size="10.00">MakeRTCurve::DrawHistHit</text>
</a>
</g>
</g>
<!-- Node1&#45;&gt;Node18 -->
<g id="edge17" class="edge"><title>Node1&#45;&gt;Node18</title>
<path fill="none" stroke="midnightblue" d="M35.5884,-171.684C57.3312,-199.43 120.091,-279.52 148.154,-315.331"/>
<polygon fill="midnightblue" stroke="midnightblue" points="145.572,-317.71 154.495,-323.423 151.082,-313.393 145.572,-317.71"/>
</g>
<!-- Node43 -->
<g id="node43" class="node"><title>Node43</title>
<g id="a_node43"><a xlink:href="../../de/d72/classMakeRTCurve.html#a2756b0c00ae6335182f4f6c20d1b169b" target="_top" xlink:title="MakeRTCurve::Init">
<polygon fill="none" stroke="black" points="115,-190.5 115,-209.5 211,-209.5 211,-190.5 115,-190.5"/>
<text text-anchor="middle" x="163" y="-197.5" font-family="FreeSans" font-size="10.00">MakeRTCurve::Init</text>
</a>
</g>
</g>
<!-- Node1&#45;&gt;Node43 -->
<g id="edge43" class="edge"><title>Node1&#45;&gt;Node43</title>
<path fill="none" stroke="midnightblue" d="M53.5198,-169.237C71.8748,-174.442 97.0773,-181.589 118.571,-187.684"/>
<polygon fill="midnightblue" stroke="midnightblue" points="117.886,-191.128 128.462,-190.489 119.796,-184.394 117.886,-191.128"/>
</g>
<!-- Node50 -->
<g id="node50" class="node"><title>Node50</title>
<g id="a_node50"><a xlink:href="../../d8/d14/classrecoConsts.html#a7c0a1405f7f0f8c2acca26831984b28d" target="_top" xlink:title="initialize the constants by the runNo &#45; not implemented yet ">
<polygon fill="none" stroke="black" points="992,-95.5 992,-114.5 1074,-114.5 1074,-95.5 992,-95.5"/>
<text text-anchor="middle" x="1033" y="-102.5" font-family="FreeSans" font-size="10.00">recoConsts::init</text>
</a>
</g>
</g>
<!-- Node1&#45;&gt;Node50 -->
<g id="edge54" class="edge"><title>Node1&#45;&gt;Node50</title>
<path fill="none" stroke="midnightblue" d="M41.0883,-152.482C53.1803,-144.169 71.9504,-132.452 90,-126 194.719,-88.567 225.792,-86 337,-86 337,-86 337,-86 686,-86 791.216,-86 914.159,-94.8679 981.5,-100.487"/>
<polygon fill="midnightblue" stroke="midnightblue" points="981.559,-104.004 991.819,-101.359 982.149,-97.0293 981.559,-104.004"/>
</g>
<!-- Node22 -->
<g id="node22" class="node"><title>Node22</title>
<g id="a_node22"><a xlink:href="../../d8/d14/classrecoConsts.html#aea8535068aa74d8acf1f98e938a1ff85" target="_top" xlink:title="recoConsts::instance">
<polygon fill="none" stroke="black" points="980.5,-152.5 980.5,-171.5 1085.5,-171.5 1085.5,-152.5 980.5,-152.5"/>
<text text-anchor="middle" x="1033" y="-159.5" font-family="FreeSans" font-size="10.00">recoConsts::instance</text>
</a>
</g>
</g>
<!-- Node1&#45;&gt;Node22 -->
<g id="edge56" class="edge"><title>Node1&#45;&gt;Node22</title>
<path fill="none" stroke="midnightblue" d="M53.5071,-156.716C106.211,-146.275 231.062,-124 337,-124 337,-124 337,-124 686,-124 800.977,-124 830.198,-126.605 944,-143 956.817,-144.846 970.555,-147.488 983.276,-150.216"/>
<polygon fill="midnightblue" stroke="midnightblue" points="982.703,-153.674 993.222,-152.409 984.211,-146.838 982.703,-153.674"/>
</g>
<!-- Node27 -->
<g id="node27" class="node"><title>Node27</title>
<g id="a_node27"><a xlink:href="../../d1/da8/classPHFlag.html#a5aaf1fedd8907f4b2b0c9535a4491f42" target="_top" xlink:title="PHFlag::set_BoolFlag">
<polygon fill="none" stroke="black" points="1288,-38.5 1288,-57.5 1398,-57.5 1398,-38.5 1288,-38.5"/>
<text text-anchor="middle" x="1343" y="-45.5" font-family="FreeSans" font-size="10.00">PHFlag::set_BoolFlag</text>
</a>
</g>
</g>
<!-- Node1&#45;&gt;Node27 -->
<g id="edge57" class="edge"><title>Node1&#45;&gt;Node27</title>
<path fill="none" stroke="midnightblue" d="M32.7769,-152.391C41.5837,-135.789 62.0642,-101.979 90,-86 186.412,-30.8528 225.931,-48 337,-48 337,-48 337,-48 1034,-48 1118.21,-48 1215.37,-48 1277.68,-48"/>
<polygon fill="midnightblue" stroke="midnightblue" points="1277.75,-51.5001 1287.75,-48 1277.75,-44.5001 1277.75,-51.5001"/>
</g>
<!-- Node25 -->
<g id="node25" class="node"><title>Node25</title>
<g id="a_node25"><a xlink:href="../../d1/da8/classPHFlag.html#a64f8c67e9313e5cecdbed51f747026da" target="_top" xlink:title="PHFlag::set_DoubleFlag">
<polygon fill="none" stroke="black" points="1283,-0.5 1283,-19.5 1403,-19.5 1403,-0.5 1283,-0.5"/>
<text text-anchor="middle" x="1343" y="-7.5" font-family="FreeSans" font-size="10.00">PHFlag::set_DoubleFlag</text>
</a>
</g>
</g>
<!-- Node1&#45;&gt;Node25 -->
<g id="edge58" class="edge"><title>Node1&#45;&gt;Node25</title>
<path fill="none" stroke="midnightblue" d="M29.8597,-152.213C34.8742,-128.77 51.0198,-69.3236 90,-42 180.644,21.538 226.305,-10 337,-10 337,-10 337,-10 1034,-10 1116.06,-10 1210.41,-10 1272.83,-10"/>
<polygon fill="midnightblue" stroke="midnightblue" points="1272.95,-13.5001 1282.95,-10 1272.95,-6.5001 1272.95,-13.5001"/>
</g>
<!-- Node3 -->
<g id="node3" class="node"><title>Node3</title>
<g id="a_node3"><a xlink:href="../../de/d72/classMakeRTCurve.html#a94dcb23bfa67b4b64c2f7efa3d48a235" target="_top" xlink:title="MakeRTCurve::AnalyzeFile">
<polygon fill="none" stroke="black" points="272,-684.5 272,-703.5 404,-703.5 404,-684.5 272,-684.5"/>
<text text-anchor="middle" x="338" y="-691.5" font-family="FreeSans" font-size="10.00">MakeRTCurve::AnalyzeFile</text>
</a>
</g>
</g>
<!-- Node2&#45;&gt;Node3 -->
<g id="edge2" class="edge"><title>Node2&#45;&gt;Node3</title>
<path fill="none" stroke="midnightblue" d="M186.617,-593.165C219.602,-615.282 280.589,-656.175 313.865,-678.487"/>
<polygon fill="midnightblue" stroke="midnightblue" points="312.214,-681.594 322.469,-684.257 316.112,-675.78 312.214,-681.594"/>
</g>
<!-- Node4 -->
<g id="node4" class="node"><title>Node4</title>
<g id="a_node4"><a xlink:href="../../de/d52/classCalibData.html#a206f6d490b2ec28d90d3324abb3afbb4" target="_top" xlink:title="CalibData::FillTracklet">
<polygon fill="none" stroke="black" points="454.5,-722.5 454.5,-741.5 565.5,-741.5 565.5,-722.5 454.5,-722.5"/>
<text text-anchor="middle" x="510" y="-729.5" font-family="FreeSans" font-size="10.00">CalibData::FillTracklet</text>
</a>
</g>
</g>
<!-- Node3&#45;&gt;Node4 -->
<g id="edge3" class="edge"><title>Node3&#45;&gt;Node4</title>
<path fill="none" stroke="midnightblue" d="M381.898,-703.589C404.534,-708.649 432.498,-714.9 456.429,-720.249"/>
<polygon fill="midnightblue" stroke="midnightblue" points="455.888,-723.714 466.41,-722.48 457.415,-716.883 455.888,-723.714"/>
</g>
<!-- Node6 -->
<g id="node6" class="node"><title>Node6</title>
<g id="a_node6"><a xlink:href="../../d2/d26/classTracklet.html#a8076c3e959727c2c4a7b928c5b385144" target="_top" xlink:title="Tracklet::getExpPositionW">
<polygon fill="none" stroke="black" points="445.5,-684.5 445.5,-703.5 574.5,-703.5 574.5,-684.5 445.5,-684.5"/>
<text text-anchor="middle" x="510" y="-691.5" font-family="FreeSans" font-size="10.00">Tracklet::getExpPositionW</text>
</a>
</g>
</g>
<!-- Node3&#45;&gt;Node6 -->
<g id="edge5" class="edge"><title>Node3&#45;&gt;Node6</title>
<path fill="none" stroke="midnightblue" d="M404.24,-694C414.353,-694 424.86,-694 435.146,-694"/>
<polygon fill="midnightblue" stroke="midnightblue" points="435.336,-697.5 445.336,-694 435.336,-690.5 435.336,-697.5"/>
</g>
<!-- Node14 -->
<g id="node14" class="node"><title>Node14</title>
<g id="a_node14"><a xlink:href="../../de/d52/classCalibData.html#ab9db1159336ae37e87f8d330b7385812" target="_top" xlink:title="Fill the hit information. ">
<polygon fill="none" stroke="black" points="466,-646.5 466,-665.5 554,-665.5 554,-646.5 466,-646.5"/>
<text text-anchor="middle" x="510" y="-653.5" font-family="FreeSans" font-size="10.00">CalibData::FillHit</text>
</a>
</g>
</g>
<!-- Node3&#45;&gt;Node14 -->
<g id="edge13" class="edge"><title>Node3&#45;&gt;Node14</title>
<path fill="none" stroke="midnightblue" d="M381.898,-684.411C404.534,-679.351 432.498,-673.1 456.429,-667.751"/>
<polygon fill="midnightblue" stroke="midnightblue" points="457.415,-671.117 466.41,-665.52 455.888,-664.286 457.415,-671.117"/>
</g>
<!-- Node15 -->
<g id="node15" class="node"><title>Node15</title>
<g id="a_node15"><a xlink:href="../../de/d52/classCalibData.html#ab9ef3ce858d6c8efa4d70b5d20fcc806" target="_top" xlink:title="CalibData::FillEventInfo">
<polygon fill="none" stroke="black" points="452,-760.5 452,-779.5 568,-779.5 568,-760.5 452,-760.5"/>
<text text-anchor="middle" x="510" y="-767.5" font-family="FreeSans" font-size="10.00">CalibData::FillEventInfo</text>
</a>
</g>
</g>
<!-- Node3&#45;&gt;Node15 -->
<g id="edge14" class="edge"><title>Node3&#45;&gt;Node15</title>
<path fill="none" stroke="midnightblue" d="M353.481,-703.686C372.593,-716.109 407.614,-737.64 440,-751 445.804,-753.394 452.005,-755.584 458.221,-757.556"/>
<polygon fill="midnightblue" stroke="midnightblue" points="457.36,-760.952 467.944,-760.474 459.372,-754.247 457.36,-760.952"/>
</g>
<!-- Node5 -->
<g id="node5" class="node"><title>Node5</title>
<g id="a_node5"><a xlink:href="../../d2/d26/classTracklet.html#a5328ac485c2eec2b1b3162cc20a1ccf8" target="_top" xlink:title="Tracklet::getNHits">
<polygon fill="none" stroke="black" points="638.5,-798.5 638.5,-817.5 731.5,-817.5 731.5,-798.5 638.5,-798.5"/>
<text text-anchor="middle" x="685" y="-805.5" font-family="FreeSans" font-size="10.00">Tracklet::getNHits</text>
</a>
</g>
</g>
<!-- Node4&#45;&gt;Node5 -->
<g id="edge4" class="edge"><title>Node4&#45;&gt;Node5</title>
<path fill="none" stroke="midnightblue" d="M559.165,-741.612C566.422,-744.082 573.608,-747.164 580,-751 599.947,-762.972 596.075,-776.99 616,-789 620.052,-791.442 624.427,-793.58 628.937,-795.449"/>
<polygon fill="midnightblue" stroke="midnightblue" points="627.728,-798.734 638.321,-798.921 630.157,-792.169 627.728,-798.734"/>
</g>
<!-- Node7 -->
<g id="node7" class="node"><title>Node7</title>
<g id="a_node7"><a xlink:href="../../d0/da0/classGeomSvc.html#a58a3d25847e956be5173e1c0241d8cc3" target="_top" xlink:title="GeomSvc::getPlanePosition">
<polygon fill="none" stroke="black" points="616.5,-722.5 616.5,-741.5 753.5,-741.5 753.5,-722.5 616.5,-722.5"/>
<text text-anchor="middle" x="685" y="-729.5" font-family="FreeSans" font-size="10.00">GeomSvc::getPlanePosition</text>
</a>
</g>
</g>
<!-- Node6&#45;&gt;Node7 -->
<g id="edge6" class="edge"><title>Node6&#45;&gt;Node7</title>
<path fill="none" stroke="midnightblue" d="M554.655,-703.589C577.793,-708.671 606.402,-714.955 630.827,-720.32"/>
<polygon fill="midnightblue" stroke="midnightblue" points="630.141,-723.753 640.659,-722.48 631.642,-716.916 630.141,-723.753"/>
</g>
<!-- Node8 -->
<g id="node8" class="node"><title>Node8</title>
<g id="a_node8"><a xlink:href="../../d2/d26/classTracklet.html#a34dc65d53a8d13dd4f2cf35ee7f24573" target="_top" xlink:title="Tracklet::getExpPositionX">
<polygon fill="none" stroke="black" points="621.5,-684.5 621.5,-703.5 748.5,-703.5 748.5,-684.5 621.5,-684.5"/>
<text text-anchor="middle" x="685" y="-691.5" font-family="FreeSans" font-size="10.00">Tracklet::getExpPositionX</text>
</a>
</g>
</g>
<!-- Node6&#45;&gt;Node8 -->
<g id="edge7" class="edge"><title>Node6&#45;&gt;Node8</title>
<path fill="none" stroke="midnightblue" d="M574.927,-694C586.808,-694 599.301,-694 611.418,-694"/>
<polygon fill="midnightblue" stroke="midnightblue" points="611.488,-697.5 621.488,-694 611.488,-690.5 611.488,-697.5"/>
</g>
<!-- Node10 -->
<g id="node10" class="node"><title>Node10</title>
<g id="a_node10"><a xlink:href="../../d2/d26/classTracklet.html#acfa229de89a95c51f515f9fec5763108" target="_top" xlink:title="Tracklet::getExpPositionY">
<polygon fill="none" stroke="black" points="621.5,-646.5 621.5,-665.5 748.5,-665.5 748.5,-646.5 621.5,-646.5"/>
<text text-anchor="middle" x="685" y="-653.5" font-family="FreeSans" font-size="10.00">Tracklet::getExpPositionY</text>
</a>
</g>
</g>
<!-- Node6&#45;&gt;Node10 -->
<g id="edge9" class="edge"><title>Node6&#45;&gt;Node10</title>
<path fill="none" stroke="midnightblue" d="M554.655,-684.411C577.793,-679.329 606.402,-673.045 630.827,-667.68"/>
<polygon fill="midnightblue" stroke="midnightblue" points="631.642,-671.084 640.659,-665.52 630.141,-664.247 631.642,-671.084"/>
</g>
<!-- Node11 -->
<g id="node11" class="node"><title>Node11</title>
<g id="a_node11"><a xlink:href="../../d0/da0/classGeomSvc.html#aeb39d8892e1abc38eaf32608b0db0a20" target="_top" xlink:title="See if a point is in a plane. ">
<polygon fill="none" stroke="black" points="633,-608.5 633,-627.5 737,-627.5 737,-608.5 633,-608.5"/>
<text text-anchor="middle" x="685" y="-615.5" font-family="FreeSans" font-size="10.00">GeomSvc::isInPlane</text>
</a>
</g>
</g>
<!-- Node6&#45;&gt;Node11 -->
<g id="edge10" class="edge"><title>Node6&#45;&gt;Node11</title>
<path fill="none" stroke="midnightblue" d="M559.165,-684.388C566.422,-681.918 573.608,-678.836 580,-675 599.947,-663.028 596.075,-649.01 616,-637 619.602,-634.829 623.46,-632.898 627.441,-631.183"/>
<polygon fill="midnightblue" stroke="midnightblue" points="628.806,-634.408 636.89,-627.559 626.299,-627.872 628.806,-634.408"/>
</g>
<!-- Node12 -->
<g id="node12" class="node"><title>Node12</title>
<g id="a_node12"><a xlink:href="../../d0/da0/classGeomSvc.html#a23e7d026a79544283e2b654f3d0d5c8e" target="_top" xlink:title="GeomSvc::getCostheta">
<polygon fill="none" stroke="black" points="627,-570.5 627,-589.5 743,-589.5 743,-570.5 627,-570.5"/>
<text text-anchor="middle" x="685" y="-577.5" font-family="FreeSans" font-size="10.00">GeomSvc::getCostheta</text>
</a>
</g>
</g>
<!-- Node6&#45;&gt;Node12 -->
<g id="edge11" class="edge"><title>Node6&#45;&gt;Node12</title>
<path fill="none" stroke="midnightblue" d="M564.587,-684.35C570.153,-681.901 575.433,-678.836 580,-675 608.621,-650.963 587.424,-623.091 616,-599 618.009,-597.306 620.158,-595.763 622.411,-594.357"/>
<polygon fill="midnightblue" stroke="midnightblue" points="624.291,-597.323 631.527,-589.585 621.045,-591.121 624.291,-597.323"/>
</g>
<!-- Node13 -->
<g id="node13" class="node"><title>Node13</title>
<g id="a_node13"><a xlink:href="../../d0/da0/classGeomSvc.html#a41346cb0bb159f91049cfc0a284c1b29" target="_top" xlink:title="GeomSvc::getSintheta">
<polygon fill="none" stroke="black" points="628.5,-760.5 628.5,-779.5 741.5,-779.5 741.5,-760.5 628.5,-760.5"/>
<text text-anchor="middle" x="685" y="-767.5" font-family="FreeSans" font-size="10.00">GeomSvc::getSintheta</text>
</a>
</g>
</g>
<!-- Node6&#45;&gt;Node13 -->
<g id="edge12" class="edge"><title>Node6&#45;&gt;Node13</title>
<path fill="none" stroke="midnightblue" d="M559.165,-703.612C566.422,-706.082 573.608,-709.164 580,-713 599.947,-724.972 596.075,-738.99 616,-751 619.602,-753.171 623.46,-755.102 627.441,-756.817"/>
<polygon fill="midnightblue" stroke="midnightblue" points="626.299,-760.128 636.89,-760.441 628.806,-753.592 626.299,-760.128"/>
</g>
<!-- Node9 -->
<g id="node9" class="node"><title>Node9</title>
<g id="a_node9"><a xlink:href="../../d2/d26/classTracklet.html#a1f2be06375c110356dabc35f1033ea73" target="_top" xlink:title="Return the charge (+1 or &#45;1) of this tracklet. ">
<polygon fill="none" stroke="black" points="816.5,-684.5 816.5,-703.5 917.5,-703.5 917.5,-684.5 816.5,-684.5"/>
<text text-anchor="middle" x="867" y="-691.5" font-family="FreeSans" font-size="10.00">Tracklet::getCharge</text>
</a>
</g>
</g>
<!-- Node8&#45;&gt;Node9 -->
<g id="edge8" class="edge"><title>Node8&#45;&gt;Node9</title>
<path fill="none" stroke="midnightblue" d="M748.703,-694C767.365,-694 787.757,-694 806.227,-694"/>
<polygon fill="midnightblue" stroke="midnightblue" points="806.268,-697.5 816.268,-694 806.268,-690.5 806.268,-697.5"/>
</g>
<!-- Node17 -->
<g id="node17" class="node"><title>Node17</title>
<g id="a_node17"><a xlink:href="../../de/d52/classCalibData.html#aaa08b0b8ac27a0ff81b1ed85aafed48e" target="_top" xlink:title="CalibData::DrawHistEvent">
<polygon fill="none" stroke="black" points="275.5,-456.5 275.5,-475.5 400.5,-475.5 400.5,-456.5 275.5,-456.5"/>
<text text-anchor="middle" x="338" y="-463.5" font-family="FreeSans" font-size="10.00">CalibData::DrawHistEvent</text>
</a>
</g>
</g>
<!-- Node16&#45;&gt;Node17 -->
<g id="edge16" class="edge"><title>Node16&#45;&gt;Node17</title>
<path fill="none" stroke="midnightblue" d="M198.593,-427.598C225.584,-435.087 263.275,-445.544 292.51,-453.656"/>
<polygon fill="midnightblue" stroke="midnightblue" points="291.895,-457.117 302.467,-456.418 293.766,-450.372 291.895,-457.117"/>
</g>
<!-- Node19 -->
<g id="node19" class="node"><title>Node19</title>
<g id="a_node19"><a xlink:href="../../de/d52/classCalibData.html#a57ff174a2221479087a1522cc41a146d" target="_top" xlink:title="CalibData::DrawHistHit">
<polygon fill="none" stroke="black" points="281.5,-418.5 281.5,-437.5 394.5,-437.5 394.5,-418.5 281.5,-418.5"/>
<text text-anchor="middle" x="338" y="-425.5" font-family="FreeSans" font-size="10.00">CalibData::DrawHistHit</text>
</a>
</g>
</g>
<!-- Node18&#45;&gt;Node19 -->
<g id="edge18" class="edge"><title>Node18&#45;&gt;Node19</title>
<path fill="none" stroke="midnightblue" d="M181.54,-342.632C212.057,-359.39 275.069,-393.992 310.791,-413.608"/>
<polygon fill="midnightblue" stroke="midnightblue" points="309.221,-416.738 319.671,-418.484 312.59,-410.603 309.221,-416.738"/>
</g>
<!-- Node20 -->
<g id="node20" class="node"><title>Node20</title>
<g id="a_node20"><a xlink:href="../../d0/da0/classGeomSvc.html#a2b7ecf5467120206b9479654c48ad7c4" target="_top" xlink:title="singlton instance ">
<polygon fill="none" stroke="black" points="460,-228.5 460,-247.5 560,-247.5 560,-228.5 460,-228.5"/>
<text text-anchor="middle" x="510" y="-235.5" font-family="FreeSans" font-size="10.00">GeomSvc::instance</text>
</a>
</g>
</g>
<!-- Node19&#45;&gt;Node20 -->
<g id="edge19" class="edge"><title>Node19&#45;&gt;Node20</title>
<path fill="none" stroke="midnightblue" d="M343.461,-418.437C358.854,-385.807 410.423,-279.624 440,-257 443.184,-254.564 446.662,-252.441 450.308,-250.589"/>
<polygon fill="midnightblue" stroke="midnightblue" points="451.876,-253.724 459.65,-246.525 449.084,-247.305 451.876,-253.724"/>
</g>
<!-- Node34 -->
<g id="node34" class="node"><title>Node34</title>
<g id="a_node34"><a xlink:href="../../d6/db6/classCalibParam.html#a5bdb2144c5ed8dca60e8665072351bfc" target="_top" xlink:title="CalibParam::GetNumPlanes">
<polygon fill="none" stroke="black" points="441.5,-380.5 441.5,-399.5 578.5,-399.5 578.5,-380.5 441.5,-380.5"/>
<text text-anchor="middle" x="510" y="-387.5" font-family="FreeSans" font-size="10.00">CalibParam::GetNumPlanes</text>
</a>
</g>
</g>
<!-- Node19&#45;&gt;Node34 -->
<g id="edge34" class="edge"><title>Node19&#45;&gt;Node34</title>
<path fill="none" stroke="midnightblue" d="M381.898,-418.411C404.534,-413.351 432.498,-407.1 456.429,-401.751"/>
<polygon fill="midnightblue" stroke="midnightblue" points="457.415,-405.117 466.41,-399.52 455.888,-398.286 457.415,-405.117"/>
</g>
<!-- Node35 -->
<g id="node35" class="node"><title>Node35</title>
<g id="a_node35"><a xlink:href="../../d6/db6/classCalibParam.html#aa9c1df85b36f2dd69fabc338964c48f1" target="_top" xlink:title="CalibParam::AnaD0">
<polygon fill="none" stroke="black" points="459.5,-494.5 459.5,-513.5 560.5,-513.5 560.5,-494.5 459.5,-494.5"/>
<text text-anchor="middle" x="510" y="-501.5" font-family="FreeSans" font-size="10.00">CalibParam::AnaD0</text>
</a>
</g>
</g>
<!-- Node19&#45;&gt;Node35 -->
<g id="edge35" class="edge"><title>Node19&#45;&gt;Node35</title>
<path fill="none" stroke="midnightblue" d="M383.35,-437.53C390.533,-440.027 397.679,-443.139 404,-447 423.853,-459.128 420.053,-473.028 440,-485 443.596,-487.158 447.442,-489.077 451.412,-490.783"/>
<polygon fill="midnightblue" stroke="midnightblue" points="450.244,-494.084 460.835,-494.388 452.746,-487.546 450.244,-494.084"/>
</g>
<!-- Node36 -->
<g id="node36" class="node"><title>Node36</title>
<g id="a_node36"><a xlink:href="../../d6/db6/classCalibParam.html#a656a8a007c4bd54c7f577644447c938b" target="_top" xlink:title="CalibParam::AnaD1">
<polygon fill="none" stroke="black" points="459.5,-456.5 459.5,-475.5 560.5,-475.5 560.5,-456.5 459.5,-456.5"/>
<text text-anchor="middle" x="510" y="-463.5" font-family="FreeSans" font-size="10.00">CalibParam::AnaD1</text>
</a>
</g>
</g>
<!-- Node19&#45;&gt;Node36 -->
<g id="edge36" class="edge"><title>Node19&#45;&gt;Node36</title>
<path fill="none" stroke="midnightblue" d="M381.898,-437.589C404.534,-442.649 432.498,-448.9 456.429,-454.249"/>
<polygon fill="midnightblue" stroke="midnightblue" points="455.888,-457.714 466.41,-456.48 457.415,-450.883 455.888,-457.714"/>
</g>
<!-- Node37 -->
<g id="node37" class="node"><title>Node37</title>
<g id="a_node37"><a xlink:href="../../d6/db6/classCalibParam.html#a5c30840045df3bb06173e67779c47a3a" target="_top" xlink:title="CalibParam::AnaD2">
<polygon fill="none" stroke="black" points="459.5,-418.5 459.5,-437.5 560.5,-437.5 560.5,-418.5 459.5,-418.5"/>
<text text-anchor="middle" x="510" y="-425.5" font-family="FreeSans" font-size="10.00">CalibParam::AnaD2</text>
</a>
</g>
</g>
<!-- Node19&#45;&gt;Node37 -->
<g id="edge37" class="edge"><title>Node19&#45;&gt;Node37</title>
<path fill="none" stroke="midnightblue" d="M394.664,-428C412.068,-428 431.342,-428 449.028,-428"/>
<polygon fill="midnightblue" stroke="midnightblue" points="449.233,-431.5 459.233,-428 449.232,-424.5 449.233,-431.5"/>
</g>
<!-- Node38 -->
<g id="node38" class="node"><title>Node38</title>
<g id="a_node38"><a xlink:href="../../d6/db6/classCalibParam.html#a347692ba70a8b302c4a734ea0adbca7c" target="_top" xlink:title="CalibParam::AnaD3p">
<polygon fill="none" stroke="black" points="457,-608.5 457,-627.5 563,-627.5 563,-608.5 457,-608.5"/>
<text text-anchor="middle" x="510" y="-615.5" font-family="FreeSans" font-size="10.00">CalibParam::AnaD3p</text>
</a>
</g>
</g>
<!-- Node19&#45;&gt;Node38 -->
<g id="edge38" class="edge"><title>Node19&#45;&gt;Node38</title>
<path fill="none" stroke="midnightblue" d="M391.257,-437.626C395.987,-440.088 400.357,-443.163 404,-447 451.802,-497.346 391.805,-549.03 440,-599 442.372,-601.459 445.031,-603.61 447.887,-605.489"/>
<polygon fill="midnightblue" stroke="midnightblue" points="446.493,-608.712 456.96,-610.351 449.799,-602.542 446.493,-608.712"/>
</g>
<!-- Node39 -->
<g id="node39" class="node"><title>Node39</title>
<g id="a_node39"><a xlink:href="../../d6/db6/classCalibParam.html#a4cf8f46bc2106df5a8577d4050634b14" target="_top" xlink:title="CalibParam::AnaD3m">
<polygon fill="none" stroke="black" points="455.5,-570.5 455.5,-589.5 564.5,-589.5 564.5,-570.5 455.5,-570.5"/>
<text text-anchor="middle" x="510" y="-577.5" font-family="FreeSans" font-size="10.00">CalibParam::AnaD3m</text>
</a>
</g>
</g>
<!-- Node19&#45;&gt;Node39 -->
<g id="edge39" class="edge"><title>Node19&#45;&gt;Node39</title>
<path fill="none" stroke="midnightblue" d="M390.335,-437.585C395.361,-440.049 400.051,-443.135 404,-447 441.972,-484.165 401.737,-524.134 440,-561 441.918,-562.848 443.999,-564.52 446.202,-566.032"/>
<polygon fill="midnightblue" stroke="midnightblue" points="444.785,-569.251 455.216,-571.108 448.219,-563.151 444.785,-569.251"/>
</g>
<!-- Node40 -->
<g id="node40" class="node"><title>Node40</title>
<g id="a_node40"><a xlink:href="../../d0/da0/classGeomSvc.html#a64fde7dce7f3df7cf534796d7da4ecdb" target="_top" xlink:title="GeomSvc::getDetectorName">
<polygon fill="none" stroke="black" points="440,-342.5 440,-361.5 580,-361.5 580,-342.5 440,-342.5"/>
<text text-anchor="middle" x="510" y="-349.5" font-family="FreeSans" font-size="10.00">GeomSvc::getDetectorName</text>
</a>
</g>
</g>
<!-- Node19&#45;&gt;Node40 -->
<g id="edge40" class="edge"><title>Node19&#45;&gt;Node40</title>
<path fill="none" stroke="midnightblue" d="M353.481,-418.314C372.593,-405.891 407.614,-384.36 440,-371 445.804,-368.606 452.005,-366.416 458.221,-364.444"/>
<polygon fill="midnightblue" stroke="midnightblue" points="459.372,-367.753 467.944,-361.526 457.36,-361.048 459.372,-367.753"/>
</g>
<!-- Node41 -->
<g id="node41" class="node"><title>Node41</title>
<g id="a_node41"><a xlink:href="../../d3/daf/namespaceUtilHist.html#a5c646c763a7d90ed6ae5b9eb7d6b9719" target="_top" xlink:title="Adjust the axis range via &quot;h1&#45;&gt;GetXaxis()&#45;&gt;SetRange(bin_lo, bin_hi)&quot; to zoom up non&#45;empty bins...">
<polygon fill="none" stroke="black" points="452.5,-532.5 452.5,-551.5 567.5,-551.5 567.5,-532.5 452.5,-532.5"/>
<text text-anchor="middle" x="510" y="-539.5" font-family="FreeSans" font-size="10.00">UtilHist::AutoSetRange</text>
</a>
</g>
</g>
<!-- Node19&#45;&gt;Node41 -->
<g id="edge41" class="edge"><title>Node19&#45;&gt;Node41</title>
<path fill="none" stroke="midnightblue" d="M388.514,-437.551C394.115,-440.013 399.439,-443.108 404,-447 432.432,-471.261 411.379,-498.963 440,-523 441.998,-524.678 444.133,-526.209 446.368,-527.605"/>
<polygon fill="midnightblue" stroke="midnightblue" points="444.931,-530.803 455.413,-532.35 448.183,-524.605 444.931,-530.803"/>
</g>
<!-- Node21 -->
<g id="node21" class="node"><title>Node21</title>
<g id="a_node21"><a xlink:href="../../d0/da0/classGeomSvc.html#a96ec4efc82cbaed0b5623e4dd69385b6" target="_top" xlink:title="Initialization, either from MySQL or from ascii file. ">
<polygon fill="none" stroke="red" points="646.5,-228.5 646.5,-247.5 723.5,-247.5 723.5,-228.5 646.5,-228.5"/>
<text text-anchor="middle" x="685" y="-235.5" font-family="FreeSans" font-size="10.00">GeomSvc::init</text>
</a>
</g>
</g>
<!-- Node20&#45;&gt;Node21 -->
<g id="edge20" class="edge"><title>Node20&#45;&gt;Node21</title>
<path fill="none" stroke="midnightblue" d="M560.112,-238C583.955,-238 612.491,-238 636.163,-238"/>
<polygon fill="midnightblue" stroke="midnightblue" points="636.322,-241.5 646.322,-238 636.322,-234.5 636.322,-241.5"/>
</g>
<!-- Node21&#45;&gt;Node22 -->
<g id="edge21" class="edge"><title>Node21&#45;&gt;Node22</title>
<path fill="none" stroke="midnightblue" d="M698.563,-247.657C717.267,-261.361 754.097,-285.806 790,-295 856.305,-311.979 883.711,-327.401 944,-295 989.159,-270.73 1015.03,-211.987 1025.89,-181.337"/>
<polygon fill="midnightblue" stroke="midnightblue" points="1029.24,-182.365 1029.11,-171.771 1022.6,-180.131 1029.24,-182.365"/>
</g>
<!-- Node30 -->
<g id="node30" class="node"><title>Node30</title>
<g id="a_node30"><a xlink:href="../../d0/da0/classGeomSvc.html#adbe1473f9b3a8ff942da8d7d8ee28322" target="_top" xlink:title="GeomSvc::initPlaneDbSvc">
<polygon fill="none" stroke="red" points="802,-152.5 802,-171.5 932,-171.5 932,-152.5 802,-152.5"/>
<text text-anchor="middle" x="867" y="-159.5" font-family="FreeSans" font-size="10.00">GeomSvc::initPlaneDbSvc</text>
</a>
</g>
</g>
<!-- Node21&#45;&gt;Node30 -->
<g id="edge29" class="edge"><title>Node21&#45;&gt;Node30</title>
<path fill="none" stroke="midnightblue" d="M700.57,-228.437C720.169,-215.949 756.448,-194.136 790,-181 796.297,-178.535 803.014,-176.31 809.751,-174.326"/>
<polygon fill="midnightblue" stroke="midnightblue" points="810.893,-177.642 819.59,-171.591 809.018,-170.898 810.893,-177.642"/>
</g>
<!-- Node31 -->
<g id="node31" class="node"><title>Node31</title>
<g id="a_node31"><a xlink:href="../../d0/da0/classGeomSvc.html#a0d550b9f787318d57cdae9db2d04d6fb" target="_top" xlink:title="GeomSvc::initPlaneDirect">
<polygon fill="none" stroke="black" points="803.5,-266.5 803.5,-285.5 930.5,-285.5 930.5,-266.5 803.5,-266.5"/>
<text text-anchor="middle" x="867" y="-273.5" font-family="FreeSans" font-size="10.00">GeomSvc::initPlaneDirect</text>
</a>
</g>
</g>
<!-- Node21&#45;&gt;Node31 -->
<g id="edge31" class="edge"><title>Node21&#45;&gt;Node31</title>
<path fill="none" stroke="midnightblue" d="M723.734,-245.966C748.983,-251.296 782.63,-258.4 810.864,-264.36"/>
<polygon fill="midnightblue" stroke="midnightblue" points="810.487,-267.858 820.995,-266.499 811.933,-261.009 810.487,-267.858"/>
</g>
<!-- Node32 -->
<g id="node32" class="node"><title>Node32</title>
<g id="a_node32"><a xlink:href="../../d0/da0/classGeomSvc.html#a6234a9e4de78f5667104d23c8828b79f" target="_top" xlink:title="Load parameters used in the online&#45;alignment mode. ">
<polygon fill="none" stroke="red" points="790.5,-228.5 790.5,-247.5 943.5,-247.5 943.5,-228.5 790.5,-228.5"/>
<text text-anchor="middle" x="867" y="-235.5" font-family="FreeSans" font-size="10.00">GeomSvc::loadOnlineAlignment</text>
</a>
</g>
</g>
<!-- Node21&#45;&gt;Node32 -->
<g id="edge32" class="edge"><title>Node21&#45;&gt;Node32</title>
<path fill="none" stroke="midnightblue" d="M723.734,-238C740.314,-238 760.515,-238 780.426,-238"/>
<polygon fill="midnightblue" stroke="midnightblue" points="780.475,-241.5 790.475,-238 780.475,-234.5 780.475,-241.5"/>
</g>
<!-- Node33 -->
<g id="node33" class="node"><title>Node33</title>
<g id="a_node33"><a xlink:href="../../d0/da0/classGeomSvc.html#ab6c810e39b86ce66a4be6a596b4d54b8" target="_top" xlink:title="GeomSvc::loadAlignment">
<polygon fill="none" stroke="black" points="804.5,-190.5 804.5,-209.5 929.5,-209.5 929.5,-190.5 804.5,-190.5"/>
<text text-anchor="middle" x="867" y="-197.5" font-family="FreeSans" font-size="10.00">GeomSvc::loadAlignment</text>
</a>
</g>
</g>
<!-- Node21&#45;&gt;Node33 -->
<g id="edge33" class="edge"><title>Node21&#45;&gt;Node33</title>
<path fill="none" stroke="midnightblue" d="M723.734,-230.034C748.983,-224.704 782.63,-217.6 810.864,-211.64"/>
<polygon fill="midnightblue" stroke="midnightblue" points="811.933,-214.991 820.995,-209.501 810.487,-208.142 811.933,-214.991"/>
</g>
<!-- Node23 -->
<g id="node23" class="node"><title>Node23</title>
<g id="a_node23"><a xlink:href="../../d8/d14/classrecoConsts.html#ae882d6adc62f783ec78114fe3dee3c24" target="_top" xlink:title="recoConsts::recoConsts">
<polygon fill="none" stroke="black" points="1124.5,-152.5 1124.5,-171.5 1241.5,-171.5 1241.5,-152.5 1124.5,-152.5"/>
<text text-anchor="middle" x="1183" y="-159.5" font-family="FreeSans" font-size="10.00">recoConsts::recoConsts</text>
</a>
</g>
</g>
<!-- Node22&#45;&gt;Node23 -->
<g id="edge22" class="edge"><title>Node22&#45;&gt;Node23</title>
<path fill="none" stroke="midnightblue" d="M1085.76,-162C1094.95,-162 1104.63,-162 1114.18,-162"/>
<polygon fill="midnightblue" stroke="midnightblue" points="1114.45,-165.5 1124.45,-162 1114.45,-158.5 1114.45,-165.5"/>
</g>
<!-- Node24 -->
<g id="node24" class="node"><title>Node24</title>
<g id="a_node24"><a xlink:href="../../d8/d14/classrecoConsts.html#a864b1da9614924988d09542c268c42dc" target="_top" xlink:title="set the default value for all the constants needed &#45; user is supposed to add a default value here to ...">
<polygon fill="none" stroke="black" points="1122.5,-76.5 1122.5,-95.5 1243.5,-95.5 1243.5,-76.5 1122.5,-76.5"/>
<text text-anchor="middle" x="1183" y="-83.5" font-family="FreeSans" font-size="10.00">recoConsts::set_defaults</text>
</a>
</g>
</g>
<!-- Node22&#45;&gt;Node24 -->
<g id="edge23" class="edge"><title>Node22&#45;&gt;Node24</title>
<path fill="none" stroke="midnightblue" d="M1052.74,-152.375C1078.43,-139.183 1124.76,-115.393 1154.41,-100.166"/>
<polygon fill="midnightblue" stroke="midnightblue" points="1156.11,-103.229 1163.41,-95.5473 1152.91,-97.0019 1156.11,-103.229"/>
</g>
<!-- Node24&#45;&gt;Node25 -->
<g id="edge24" class="edge"><title>Node24&#45;&gt;Node25</title>
<path fill="none" stroke="midnightblue" d="M1197.75,-76.4025C1215.89,-64.0753 1249.16,-42.6472 1280,-29 1285.08,-26.7507 1290.51,-24.6623 1295.96,-22.7564"/>
<polygon fill="midnightblue" stroke="midnightblue" points="1297.34,-25.989 1305.73,-19.5274 1295.14,-19.3427 1297.34,-25.989"/>
</g>
<!-- Node26 -->
<g id="node26" class="node"><title>Node26</title>
<g id="a_node26"><a xlink:href="../../d1/da8/classPHFlag.html#a3ef5c3f1eff2daaaf18e5129858a9ef8" target="_top" xlink:title="PHFlag::set_IntFlag">
<polygon fill="none" stroke="black" points="1292.5,-114.5 1292.5,-133.5 1393.5,-133.5 1393.5,-114.5 1292.5,-114.5"/>
<text text-anchor="middle" x="1343" y="-121.5" font-family="FreeSans" font-size="10.00">PHFlag::set_IntFlag</text>
</a>
</g>
</g>
<!-- Node24&#45;&gt;Node26 -->
<g id="edge25" class="edge"><title>Node24&#45;&gt;Node26</title>
<path fill="none" stroke="midnightblue" d="M1223.87,-95.589C1244.72,-100.604 1270.43,-106.788 1292.54,-112.105"/>
<polygon fill="midnightblue" stroke="midnightblue" points="1291.88,-115.544 1302.42,-114.48 1293.51,-108.739 1291.88,-115.544"/>
</g>
<!-- Node24&#45;&gt;Node27 -->
<g id="edge26" class="edge"><title>Node24&#45;&gt;Node27</title>
<path fill="none" stroke="midnightblue" d="M1223.87,-76.411C1244.72,-71.3965 1270.43,-65.2119 1292.54,-59.8947"/>
<polygon fill="midnightblue" stroke="midnightblue" points="1293.51,-63.2615 1302.42,-57.5201 1291.88,-56.4555 1293.51,-63.2615"/>
</g>
<!-- Node28 -->
<g id="node28" class="node"><title>Node28</title>
<g id="a_node28"><a xlink:href="../../d8/d14/classrecoConsts.html#aec7c7c885b190f7dbb57ac99af4587e6" target="_top" xlink:title="overide the virtual function to expand the environmental variables ">
<polygon fill="none" stroke="black" points="1280,-76.5 1280,-95.5 1406,-95.5 1406,-76.5 1280,-76.5"/>
<text text-anchor="middle" x="1343" y="-83.5" font-family="FreeSans" font-size="10.00">recoConsts::set_CharFlag</text>
</a>
</g>
</g>
<!-- Node24&#45;&gt;Node28 -->
<g id="edge27" class="edge"><title>Node24&#45;&gt;Node28</title>
<path fill="none" stroke="midnightblue" d="M1243.73,-86C1252.21,-86 1261.01,-86 1269.69,-86"/>
<polygon fill="midnightblue" stroke="midnightblue" points="1269.81,-89.5001 1279.81,-86 1269.81,-82.5001 1269.81,-89.5001"/>
</g>
<!-- Node29 -->
<g id="node29" class="node"><title>Node29</title>
<g id="a_node29"><a xlink:href="../../d8/d14/classrecoConsts.html#ad45c452d9a71b5410c472614d72442ec" target="_top" xlink:title="recoConsts::ExpandEnvironmentals">
<polygon fill="none" stroke="black" points="1442,-76.5 1442,-95.5 1608,-95.5 1608,-76.5 1442,-76.5"/>
<text text-anchor="middle" x="1525" y="-83.5" font-family="FreeSans" font-size="10.00">recoConsts::ExpandEnvironmentals</text>
</a>
</g>
</g>
<!-- Node28&#45;&gt;Node29 -->
<g id="edge28" class="edge"><title>Node28&#45;&gt;Node29</title>
<path fill="none" stroke="midnightblue" d="M1406.2,-86C1414.45,-86 1423.05,-86 1431.68,-86"/>
<polygon fill="midnightblue" stroke="midnightblue" points="1431.8,-89.5001 1441.8,-86 1431.8,-82.5001 1431.8,-89.5001"/>
</g>
<!-- Node30&#45;&gt;Node22 -->
<g id="edge30" class="edge"><title>Node30&#45;&gt;Node22</title>
<path fill="none" stroke="midnightblue" d="M932.346,-162C944.826,-162 957.877,-162 970.27,-162"/>
<polygon fill="midnightblue" stroke="midnightblue" points="970.498,-165.5 980.498,-162 970.498,-158.5 970.498,-165.5"/>
</g>
<!-- Node42 -->
<g id="node42" class="node"><title>Node42</title>
<g id="a_node42"><a xlink:href="../../d3/daf/namespaceUtilHist.html#a3cf821e9299974225cc90084beadcb30" target="_top" xlink:title="Find the lowest and highest bins (&quot;bin_lo&quot; and &quot;bin_hi&quot;) out of non&#45;empty bins of &quot;h1&quot;...">
<polygon fill="none" stroke="black" points="624,-532.5 624,-551.5 746,-551.5 746,-532.5 624,-532.5"/>
<text text-anchor="middle" x="685" y="-539.5" font-family="FreeSans" font-size="10.00">UtilHist::FindFilledRange</text>
</a>
</g>
</g>
<!-- Node41&#45;&gt;Node42 -->
<g id="edge42" class="edge"><title>Node41&#45;&gt;Node42</title>
<path fill="none" stroke="midnightblue" d="M567.647,-542C582.299,-542 598.254,-542 613.519,-542"/>
<polygon fill="midnightblue" stroke="midnightblue" points="613.952,-545.5 623.952,-542 613.952,-538.5 613.952,-545.5"/>
</g>
<!-- Node44 -->
<g id="node44" class="node"><title>Node44</title>
<g id="a_node44"><a xlink:href="../../d6/db6/classCalibParam.html#a303685b2c7d72864d02729b4291f1300" target="_top" xlink:title="CalibParam::Init">
<polygon fill="none" stroke="black" points="295.5,-190.5 295.5,-209.5 380.5,-209.5 380.5,-190.5 295.5,-190.5"/>
<text text-anchor="middle" x="338" y="-197.5" font-family="FreeSans" font-size="10.00">CalibParam::Init</text>
</a>
</g>
</g>
<!-- Node43&#45;&gt;Node44 -->
<g id="edge44" class="edge"><title>Node43&#45;&gt;Node44</title>
<path fill="none" stroke="midnightblue" d="M211.273,-200C234.193,-200 261.774,-200 285.256,-200"/>
<polygon fill="midnightblue" stroke="midnightblue" points="285.383,-203.5 295.383,-200 285.383,-196.5 285.383,-203.5"/>
</g>
<!-- Node46 -->
<g id="node46" class="node"><title>Node46</title>
<g id="a_node46"><a xlink:href="../../de/d52/classCalibData.html#afea151af007051b5f0744b0f988cd01e" target="_top" xlink:title="CalibData::Init">
<polygon fill="none" stroke="black" points="299.5,-266.5 299.5,-285.5 376.5,-285.5 376.5,-266.5 299.5,-266.5"/>
<text text-anchor="middle" x="338" y="-273.5" font-family="FreeSans" font-size="10.00">CalibData::Init</text>
</a>
</g>
</g>
<!-- Node43&#45;&gt;Node46 -->
<g id="edge47" class="edge"><title>Node43&#45;&gt;Node46</title>
<path fill="none" stroke="midnightblue" d="M185.911,-209.625C216.328,-222.988 271.502,-247.227 306.094,-262.423"/>
<polygon fill="midnightblue" stroke="midnightblue" points="304.704,-265.635 315.267,-266.453 307.52,-259.226 304.704,-265.635"/>
</g>
<!-- Node44&#45;&gt;Node20 -->
<g id="edge45" class="edge"><title>Node44&#45;&gt;Node20</title>
<path fill="none" stroke="midnightblue" d="M380.587,-209.296C403.481,-214.413 432.119,-220.815 456.538,-226.273"/>
<polygon fill="midnightblue" stroke="midnightblue" points="455.842,-229.704 466.365,-228.47 457.369,-222.873 455.842,-229.704"/>
</g>
<!-- Node45 -->
<g id="node45" class="node"><title>Node45</title>
<g id="a_node45"><a xlink:href="../../d0/da0/classGeomSvc.html#a62517e6e6692a7f4a7ee4f45acfbc1a3" target="_top" xlink:title="GeomSvc::getCellWidth">
<polygon fill="none" stroke="black" points="450.5,-152.5 450.5,-171.5 569.5,-171.5 569.5,-152.5 450.5,-152.5"/>
<text text-anchor="middle" x="510" y="-159.5" font-family="FreeSans" font-size="10.00">GeomSvc::getCellWidth</text>
</a>
</g>
</g>
<!-- Node44&#45;&gt;Node45 -->
<g id="edge46" class="edge"><title>Node44&#45;&gt;Node45</title>
<path fill="none" stroke="midnightblue" d="M380.587,-190.704C403.481,-185.587 432.119,-179.185 456.538,-173.727"/>
<polygon fill="midnightblue" stroke="midnightblue" points="457.369,-177.127 466.365,-171.53 455.842,-170.296 457.369,-177.127"/>
</g>
<!-- Node46&#45;&gt;Node20 -->
<g id="edge48" class="edge"><title>Node46&#45;&gt;Node20</title>
<path fill="none" stroke="midnightblue" d="M376.729,-267.567C400.131,-262.335 430.543,-255.537 456.305,-249.779"/>
<polygon fill="midnightblue" stroke="midnightblue" points="457.295,-253.144 466.29,-247.547 455.768,-246.313 457.295,-253.144"/>
</g>
<!-- Node46&#45;&gt;Node34 -->
<g id="edge49" class="edge"><title>Node46&#45;&gt;Node34</title>
<path fill="none" stroke="midnightblue" d="M346.499,-285.696C361.894,-304.925 399.072,-348.013 440,-371 443.946,-373.216 448.165,-375.186 452.501,-376.935"/>
<polygon fill="midnightblue" stroke="midnightblue" points="451.523,-380.304 462.117,-380.422 453.909,-373.723 451.523,-380.304"/>
</g>
<!-- Node46&#45;&gt;Node40 -->
<g id="edge50" class="edge"><title>Node46&#45;&gt;Node40</title>
<path fill="none" stroke="midnightblue" d="M353.481,-285.686C372.593,-298.109 407.614,-319.64 440,-333 445.804,-335.394 452.005,-337.584 458.221,-339.556"/>
<polygon fill="midnightblue" stroke="midnightblue" points="457.36,-342.952 467.944,-342.474 459.372,-336.247 457.36,-342.952"/>
</g>
<!-- Node47 -->
<g id="node47" class="node"><title>Node47</title>
<g id="a_node47"><a xlink:href="../../d6/db6/classCalibParam.html#a3439b75982b3dd7dbbcfdf8d8490f1d1" target="_top" xlink:title="CalibParam::GetTMin">
<polygon fill="none" stroke="black" points="455.5,-190.5 455.5,-209.5 564.5,-209.5 564.5,-190.5 455.5,-190.5"/>
<text text-anchor="middle" x="510" y="-197.5" font-family="FreeSans" font-size="10.00">CalibParam::GetTMin</text>
</a>
</g>
</g>
<!-- Node46&#45;&gt;Node47 -->
<g id="edge51" class="edge"><title>Node46&#45;&gt;Node47</title>
<path fill="none" stroke="midnightblue" d="M353.481,-266.314C372.593,-253.891 407.614,-232.36 440,-219 445.804,-216.606 452.005,-214.416 458.221,-212.444"/>
<polygon fill="midnightblue" stroke="midnightblue" points="459.372,-215.753 467.944,-209.526 457.36,-209.048 459.372,-215.753"/>
</g>
<!-- Node48 -->
<g id="node48" class="node"><title>Node48</title>
<g id="a_node48"><a xlink:href="../../d6/db6/classCalibParam.html#a2a139bd7c2e4b7dd58e6e55a477c59f7" target="_top" xlink:title="CalibParam::GetTMax">
<polygon fill="none" stroke="black" points="454.5,-304.5 454.5,-323.5 565.5,-323.5 565.5,-304.5 454.5,-304.5"/>
<text text-anchor="middle" x="510" y="-311.5" font-family="FreeSans" font-size="10.00">CalibParam::GetTMax</text>
</a>
</g>
</g>
<!-- Node46&#45;&gt;Node48 -->
<g id="edge52" class="edge"><title>Node46&#45;&gt;Node48</title>
<path fill="none" stroke="midnightblue" d="M376.729,-284.433C400.131,-289.665 430.543,-296.463 456.305,-302.221"/>
<polygon fill="midnightblue" stroke="midnightblue" points="455.768,-305.687 466.29,-304.453 457.295,-298.856 455.768,-305.687"/>
</g>
<!-- Node49 -->
<g id="node49" class="node"><title>Node49</title>
<g id="a_node49"><a xlink:href="../../d6/db6/classCalibParam.html#a8d9a1deac87fa517e730b0f673645c48" target="_top" xlink:title="CalibParam::GetRMax">
<polygon fill="none" stroke="black" points="454,-266.5 454,-285.5 566,-285.5 566,-266.5 454,-266.5"/>
<text text-anchor="middle" x="510" y="-273.5" font-family="FreeSans" font-size="10.00">CalibParam::GetRMax</text>
</a>
</g>
</g>
<!-- Node46&#45;&gt;Node49 -->
<g id="edge53" class="edge"><title>Node46&#45;&gt;Node49</title>
<path fill="none" stroke="midnightblue" d="M376.729,-276C396.408,-276 421.046,-276 443.705,-276"/>
<polygon fill="midnightblue" stroke="midnightblue" points="443.953,-279.5 453.953,-276 443.953,-272.5 443.953,-279.5"/>
</g>
<!-- Node50&#45;&gt;Node26 -->
<g id="edge55" class="edge"><title>Node50&#45;&gt;Node26</title>
<path fill="none" stroke="midnightblue" d="M1074.27,-107.484C1127.21,-110.75 1220.69,-116.517 1281.99,-120.298"/>
<polygon fill="midnightblue" stroke="midnightblue" points="1282.1,-123.811 1292.29,-120.934 1282.53,-116.824 1282.1,-123.811"/>
</g>
</g>
</svg>
