<?xml version="1.0" encoding="UTF-8" standalone="no"?>
<!DOCTYPE svg PUBLIC "-//W3C//DTD SVG 1.1//EN"
 "http://www.w3.org/Graphics/SVG/1.1/DTD/svg11.dtd">
<!-- Generated by graphviz version 2.30.1 (20200930.0103)
 -->
<!-- Title: CalibXTv2::process_event Pages: 1 -->
<svg width="1694pt" height="832pt"
 viewBox="0.00 0.00 1694.00 832.00" xmlns="http://www.w3.org/2000/svg" xmlns:xlink="http://www.w3.org/1999/xlink">
<g id="graph0" class="graph" transform="scale(1 1) rotate(0) translate(4 828)">
<title>CalibXTv2::process_event</title>
<!-- Node1 -->
<g id="node1" class="node"><title>Node1</title>
<polygon fill="#bfbfbf" stroke="black" points="0,-578 0,-608 98,-608 98,-578 0,-578"/>
<text text-anchor="start" x="8" y="-596" font-family="FreeSans" font-size="10.00">CalibXTv2::process</text>
<text text-anchor="middle" x="49" y="-585" font-family="FreeSans" font-size="10.00">_event</text>
</g>
<!-- Node2 -->
<g id="node2" class="node"><title>Node2</title>
<g id="a_node2"><a xlink:href="../../d9/dbc/classSQHitVector.html#a194d01789d543dd623068b46c450e434" target="_top" xlink:title="SQHitVector::begin">
<polygon fill="none" stroke="black" points="153,-804.5 153,-823.5 251,-823.5 251,-804.5 153,-804.5"/>
<text text-anchor="middle" x="202" y="-811.5" font-family="FreeSans" font-size="10.00">SQHitVector::begin</text>
</a>
</g>
</g>
<!-- Node1&#45;&gt;Node2 -->
<g id="edge1" class="edge"><title>Node1&#45;&gt;Node2</title>
<path fill="none" stroke="midnightblue" d="M51.8206,-608.247C57.1307,-645.819 76.0837,-743.532 134,-795 136.965,-797.635 140.271,-799.907 143.782,-801.866"/>
<polygon fill="midnightblue" stroke="midnightblue" points="142.312,-805.042 152.852,-806.116 145.282,-798.703 142.312,-805.042"/>
</g>
<!-- Node3 -->
<g id="node3" class="node"><title>Node3</title>
<g id="a_node3"><a xlink:href="../../d9/dbc/classSQHitVector.html#afc94725c2663f4280cabaa5754a57f17" target="_top" xlink:title="SQHitVector::end">
<polygon fill="none" stroke="black" points="156.5,-766.5 156.5,-785.5 247.5,-785.5 247.5,-766.5 156.5,-766.5"/>
<text text-anchor="middle" x="202" y="-773.5" font-family="FreeSans" font-size="10.00">SQHitVector::end</text>
</a>
</g>
</g>
<!-- Node1&#45;&gt;Node3 -->
<g id="edge2" class="edge"><title>Node1&#45;&gt;Node3</title>
<path fill="none" stroke="midnightblue" d="M53.5109,-608.112C61.7681,-640.256 85.4867,-715.754 134,-756 137.928,-759.259 142.374,-761.987 147.06,-764.27"/>
<polygon fill="midnightblue" stroke="midnightblue" points="145.722,-767.504 156.298,-768.136 148.424,-761.047 145.722,-767.504"/>
</g>
<!-- Node4 -->
<g id="node4" class="node"><title>Node4</title>
<g id="a_node4"><a xlink:href="../../d7/dec/classCalibParamInTimeTaiwan.html#af1567b96acda44861375b27fc52dce6e" target="_top" xlink:title="CalibParamInTimeTaiwan\l::Find">
<polygon fill="none" stroke="black" points="138,-717 138,-747 266,-747 266,-717 138,-717"/>
<text text-anchor="start" x="146" y="-735" font-family="FreeSans" font-size="10.00">CalibParamInTimeTaiwan</text>
<text text-anchor="middle" x="202" y="-724" font-family="FreeSans" font-size="10.00">::Find</text>
</a>
</g>
</g>
<!-- Node1&#45;&gt;Node4 -->
<g id="edge3" class="edge"><title>Node1&#45;&gt;Node4</title>
<path fill="none" stroke="midnightblue" d="M57.4223,-608.121C69.9952,-632.269 97.696,-679.604 134,-707 136.448,-708.847 139.048,-710.571 141.747,-712.178"/>
<polygon fill="midnightblue" stroke="midnightblue" points="140.17,-715.303 150.641,-716.919 143.463,-709.126 140.17,-715.303"/>
</g>
<!-- Node5 -->
<g id="node5" class="node"><title>Node5</title>
<g id="a_node5"><a xlink:href="../../da/d44/classCalibParamXT.html#ae9573908bf0e2e97a8d51207612acd5e" target="_top" xlink:title="To be obsolete. Use FindT2X(). ">
<polygon fill="none" stroke="black" points="150.5,-678.5 150.5,-697.5 253.5,-697.5 253.5,-678.5 150.5,-678.5"/>
<text text-anchor="middle" x="202" y="-685.5" font-family="FreeSans" font-size="10.00">CalibParamXT::Find</text>
</a>
</g>
</g>
<!-- Node1&#45;&gt;Node5 -->
<g id="edge4" class="edge"><title>Node1&#45;&gt;Node5</title>
<path fill="none" stroke="midnightblue" d="M62.7081,-608.092C77.9546,-625.262 105.099,-652.99 134,-669 137.974,-671.202 142.226,-673.166 146.587,-674.916"/>
<polygon fill="midnightblue" stroke="midnightblue" points="145.651,-678.3 156.245,-678.412 148.033,-671.718 145.651,-678.3"/>
</g>
<!-- Node7 -->
<g id="node7" class="node"><title>Node7</title>
<g id="a_node7"><a xlink:href="../../de/d79/classSQHit.html#acae7667f8a85fd1de5ae611b8c51fb33" target="_top" xlink:title="Return the detector ID of this hit. ">
<polygon fill="none" stroke="black" points="145,-640.5 145,-659.5 259,-659.5 259,-640.5 145,-640.5"/>
<text text-anchor="middle" x="202" y="-647.5" font-family="FreeSans" font-size="10.00">SQHit::get_detector_id</text>
</a>
</g>
</g>
<!-- Node1&#45;&gt;Node7 -->
<g id="edge6" class="edge"><title>Node1&#45;&gt;Node7</title>
<path fill="none" stroke="midnightblue" d="M80.2669,-608.008C96.0499,-615.495 115.811,-624.348 134,-631 140.332,-633.316 147.085,-635.524 153.775,-637.562"/>
<polygon fill="midnightblue" stroke="midnightblue" points="152.893,-640.951 163.474,-640.418 154.87,-634.236 152.893,-640.951"/>
</g>
<!-- Node8 -->
<g id="node8" class="node"><title>Node8</title>
<g id="a_node8"><a xlink:href="../../de/d79/classSQHit.html#a4ce14b27ab63d03e5f3aab541b2efe26" target="_top" xlink:title="Return the element ID of this hit. ">
<polygon fill="none" stroke="black" points="145.5,-602.5 145.5,-621.5 258.5,-621.5 258.5,-602.5 145.5,-602.5"/>
<text text-anchor="middle" x="202" y="-609.5" font-family="FreeSans" font-size="10.00">SQHit::get_element_id</text>
</a>
</g>
</g>
<!-- Node1&#45;&gt;Node8 -->
<g id="edge7" class="edge"><title>Node1&#45;&gt;Node8</title>
<path fill="none" stroke="midnightblue" d="M98.1925,-599.064C110.043,-600.555 122.93,-602.177 135.447,-603.752"/>
<polygon fill="midnightblue" stroke="midnightblue" points="135.019,-607.225 145.378,-605.001 135.893,-600.28 135.019,-607.225"/>
</g>
<!-- Node9 -->
<g id="node9" class="node"><title>Node9</title>
<g id="a_node9"><a xlink:href="../../de/d79/classSQHit.html#aeba3ae619e5aaf5da416508413dd5e47" target="_top" xlink:title="Return the TDC time (nsec) of this hit. ">
<polygon fill="none" stroke="black" points="150,-564.5 150,-583.5 254,-583.5 254,-564.5 150,-564.5"/>
<text text-anchor="middle" x="202" y="-571.5" font-family="FreeSans" font-size="10.00">SQHit::get_tdc_time</text>
</a>
</g>
</g>
<!-- Node1&#45;&gt;Node9 -->
<g id="edge8" class="edge"><title>Node1&#45;&gt;Node9</title>
<path fill="none" stroke="midnightblue" d="M98.1925,-586.936C111.458,-585.267 126.024,-583.434 139.913,-581.686"/>
<polygon fill="midnightblue" stroke="midnightblue" points="140.394,-585.154 149.879,-580.432 139.52,-578.208 140.394,-585.154"/>
</g>
<!-- Node10 -->
<g id="node10" class="node"><title>Node10</title>
<g id="a_node10"><a xlink:href="../../d0/da0/classGeomSvc.html#a5a50feb4de0351f6d3d739dbc66d6247" target="_top" xlink:title="Convert the detectorID and elementID to the actual hit position. ">
<polygon fill="none" stroke="black" points="134,-526.5 134,-545.5 270,-545.5 270,-526.5 134,-526.5"/>
<text text-anchor="middle" x="202" y="-533.5" font-family="FreeSans" font-size="10.00">GeomSvc::getMeasurement</text>
</a>
</g>
</g>
<!-- Node1&#45;&gt;Node10 -->
<g id="edge9" class="edge"><title>Node1&#45;&gt;Node10</title>
<path fill="none" stroke="midnightblue" d="M80.2669,-577.992C96.0499,-570.505 115.811,-561.652 134,-555 140.332,-552.684 147.085,-550.476 153.775,-548.438"/>
<polygon fill="midnightblue" stroke="midnightblue" points="154.87,-551.764 163.474,-545.582 152.893,-545.049 154.87,-551.764"/>
</g>
<!-- Node11 -->
<g id="node11" class="node"><title>Node11</title>
<g id="a_node11"><a xlink:href="../../d0/da0/classGeomSvc.html#a2b7ecf5467120206b9479654c48ad7c4" target="_top" xlink:title="singlton instance ">
<polygon fill="none" stroke="black" points="152,-488.5 152,-507.5 252,-507.5 252,-488.5 152,-488.5"/>
<text text-anchor="middle" x="202" y="-495.5" font-family="FreeSans" font-size="10.00">GeomSvc::instance</text>
</a>
</g>
</g>
<!-- Node1&#45;&gt;Node11 -->
<g id="edge10" class="edge"><title>Node1&#45;&gt;Node11</title>
<path fill="none" stroke="midnightblue" d="M62.7081,-577.908C77.9546,-560.738 105.099,-533.01 134,-517 137.974,-514.798 142.226,-512.834 146.587,-511.084"/>
<polygon fill="midnightblue" stroke="midnightblue" points="148.033,-514.282 156.245,-507.588 145.651,-507.7 148.033,-514.282"/>
</g>
<!-- Node48 -->
<g id="node48" class="node"><title>Node48</title>
<g id="a_node48"><a xlink:href="../../de/d79/classSQHit.html#ac4a04a2324c69db1a38fa0b19040b361" target="_top" xlink:title="SQHit::set_drift_distance">
<polygon fill="none" stroke="black" points="140.5,-450.5 140.5,-469.5 263.5,-469.5 263.5,-450.5 140.5,-450.5"/>
<text text-anchor="middle" x="202" y="-457.5" font-family="FreeSans" font-size="10.00">SQHit::set_drift_distance</text>
</a>
</g>
</g>
<!-- Node1&#45;&gt;Node48 -->
<g id="edge59" class="edge"><title>Node1&#45;&gt;Node48</title>
<path fill="none" stroke="midnightblue" d="M56.9769,-577.933C69.1038,-553.424 96.417,-505.047 134,-479 136.869,-477.011 139.944,-475.23 143.141,-473.633"/>
<polygon fill="midnightblue" stroke="midnightblue" points="144.628,-476.803 152.405,-469.608 141.839,-470.383 144.628,-476.803"/>
</g>
<!-- Node49 -->
<g id="node49" class="node"><title>Node49</title>
<g id="a_node49"><a xlink:href="../../de/d79/classSQHit.html#af76759313e6258d1a2c526591ef79aa6" target="_top" xlink:title="SQHit::set_in_time">
<polygon fill="none" stroke="black" points="153.5,-412.5 153.5,-431.5 250.5,-431.5 250.5,-412.5 153.5,-412.5"/>
<text text-anchor="middle" x="202" y="-419.5" font-family="FreeSans" font-size="10.00">SQHit::set_in_time</text>
</a>
</g>
</g>
<!-- Node1&#45;&gt;Node49 -->
<g id="edge60" class="edge"><title>Node1&#45;&gt;Node49</title>
<path fill="none" stroke="midnightblue" d="M54.0534,-577.921C63.0678,-547.326 87.7218,-477.749 134,-441 137.107,-438.533 140.518,-436.386 144.104,-434.518"/>
<polygon fill="midnightblue" stroke="midnightblue" points="145.592,-437.687 153.306,-430.425 142.747,-431.291 145.592,-437.687"/>
</g>
<!-- Node50 -->
<g id="node50" class="node"><title>Node50</title>
<g id="a_node50"><a xlink:href="../../de/d79/classSQHit.html#a7549b98c01465679c34eedaab71381e6" target="_top" xlink:title="SQHit::set_pos">
<polygon fill="none" stroke="black" points="162,-374.5 162,-393.5 242,-393.5 242,-374.5 162,-374.5"/>
<text text-anchor="middle" x="202" y="-381.5" font-family="FreeSans" font-size="10.00">SQHit::set_pos</text>
</a>
</g>
</g>
<!-- Node1&#45;&gt;Node50 -->
<g id="edge61" class="edge"><title>Node1&#45;&gt;Node50</title>
<path fill="none" stroke="midnightblue" d="M52.2497,-577.851C58.3995,-541.907 78.8732,-450.906 134,-403 139.273,-398.418 145.579,-394.936 152.183,-392.291"/>
<polygon fill="midnightblue" stroke="midnightblue" points="153.629,-395.497 161.987,-388.985 151.392,-388.864 153.629,-395.497"/>
</g>
<!-- Node6 -->
<g id="node6" class="node"><title>Node6</title>
<g id="a_node6"><a xlink:href="../../da/d44/classCalibParamXT.html#a5c1a0ef7bff6914d068ae1f9240f5382" target="_top" xlink:title="CalibParamXT::FindT2X">
<polygon fill="none" stroke="black" points="306.5,-678.5 306.5,-697.5 427.5,-697.5 427.5,-678.5 306.5,-678.5"/>
<text text-anchor="middle" x="367" y="-685.5" font-family="FreeSans" font-size="10.00">CalibParamXT::FindT2X</text>
</a>
</g>
</g>
<!-- Node5&#45;&gt;Node6 -->
<g id="edge5" class="edge"><title>Node5&#45;&gt;Node6</title>
<path fill="none" stroke="midnightblue" d="M253.681,-688C267.142,-688 281.919,-688 296.205,-688"/>
<polygon fill="midnightblue" stroke="midnightblue" points="296.496,-691.5 306.496,-688 296.496,-684.5 296.496,-691.5"/>
</g>
<!-- Node12 -->
<g id="node12" class="node"><title>Node12</title>
<g id="a_node12"><a xlink:href="../../d0/da0/classGeomSvc.html#a96ec4efc82cbaed0b5623e4dd69385b6" target="_top" xlink:title="Initialization, either from MySQL or from ascii file. ">
<polygon fill="none" stroke="black" points="328.5,-469.5 328.5,-488.5 405.5,-488.5 405.5,-469.5 328.5,-469.5"/>
<text text-anchor="middle" x="367" y="-476.5" font-family="FreeSans" font-size="10.00">GeomSvc::init</text>
</a>
</g>
</g>
<!-- Node11&#45;&gt;Node12 -->
<g id="edge11" class="edge"><title>Node11&#45;&gt;Node12</title>
<path fill="none" stroke="midnightblue" d="M252.348,-492.248C273.269,-489.809 297.557,-486.978 318.296,-484.561"/>
<polygon fill="midnightblue" stroke="midnightblue" points="318.944,-488.009 328.471,-483.375 318.133,-481.056 318.944,-488.009"/>
</g>
<!-- Node13 -->
<g id="node13" class="node"><title>Node13</title>
<g id="a_node13"><a xlink:href="../../d8/d14/classrecoConsts.html#aea8535068aa74d8acf1f98e938a1ff85" target="_top" xlink:title="recoConsts::instance">
<polygon fill="none" stroke="black" points="1052.5,-529.5 1052.5,-548.5 1157.5,-548.5 1157.5,-529.5 1052.5,-529.5"/>
<text text-anchor="middle" x="1105" y="-536.5" font-family="FreeSans" font-size="10.00">recoConsts::instance</text>
</a>
</g>
</g>
<!-- Node12&#45;&gt;Node13 -->
<g id="edge12" class="edge"><title>Node12&#45;&gt;Node13</title>
<path fill="none" stroke="midnightblue" d="M375.402,-488.737C390.251,-507.66 425.563,-549.673 464,-574 539.914,-622.045 566.234,-623.805 654,-643 808.725,-676.84 867.603,-728.34 1010,-659 1053.44,-637.846 1082.73,-585.828 1095.96,-557.73"/>
<polygon fill="midnightblue" stroke="midnightblue" points="1099.17,-559.116 1100.1,-548.562 1092.79,-556.234 1099.17,-559.116"/>
</g>
<!-- Node21 -->
<g id="node21" class="node"><title>Node21</title>
<g id="a_node21"><a xlink:href="../../d0/da0/classGeomSvc.html#adbe1473f9b3a8ff942da8d7d8ee28322" target="_top" xlink:title="GeomSvc::initPlaneDbSvc">
<polygon fill="none" stroke="black" points="476,-545.5 476,-564.5 606,-564.5 606,-545.5 476,-545.5"/>
<text text-anchor="middle" x="541" y="-552.5" font-family="FreeSans" font-size="10.00">GeomSvc::initPlaneDbSvc</text>
</a>
</g>
</g>
<!-- Node12&#45;&gt;Node21 -->
<g id="edge20" class="edge"><title>Node12&#45;&gt;Node21</title>
<path fill="none" stroke="midnightblue" d="M389.784,-488.625C419.896,-501.931 474.413,-526.02 508.831,-541.228"/>
<polygon fill="midnightblue" stroke="midnightblue" points="507.831,-544.612 518.393,-545.453 510.661,-538.21 507.831,-544.612"/>
</g>
<!-- Node41 -->
<g id="node41" class="node"><title>Node41</title>
<g id="a_node41"><a xlink:href="../../d0/da0/classGeomSvc.html#a0d550b9f787318d57cdae9db2d04d6fb" target="_top" xlink:title="GeomSvc::initPlaneDirect">
<polygon fill="none" stroke="black" points="477.5,-469.5 477.5,-488.5 604.5,-488.5 604.5,-469.5 477.5,-469.5"/>
<text text-anchor="middle" x="541" y="-476.5" font-family="FreeSans" font-size="10.00">GeomSvc::initPlaneDirect</text>
</a>
</g>
</g>
<!-- Node12&#45;&gt;Node41 -->
<g id="edge51" class="edge"><title>Node12&#45;&gt;Node41</title>
<path fill="none" stroke="midnightblue" d="M405.746,-479C423.762,-479 445.956,-479 467.073,-479"/>
<polygon fill="midnightblue" stroke="midnightblue" points="467.33,-482.5 477.33,-479 467.33,-475.5 467.33,-482.5"/>
</g>
<!-- Node42 -->
<g id="node42" class="node"><title>Node42</title>
<g id="a_node42"><a xlink:href="../../d0/da0/classGeomSvc.html#a6234a9e4de78f5667104d23c8828b79f" target="_top" xlink:title="Load parameters used in the online&#45;alignment mode. ">
<polygon fill="none" stroke="black" points="464.5,-431.5 464.5,-450.5 617.5,-450.5 617.5,-431.5 464.5,-431.5"/>
<text text-anchor="middle" x="541" y="-438.5" font-family="FreeSans" font-size="10.00">GeomSvc::loadOnlineAlignment</text>
</a>
</g>
</g>
<!-- Node12&#45;&gt;Node42 -->
<g id="edge52" class="edge"><title>Node12&#45;&gt;Node42</title>
<path fill="none" stroke="midnightblue" d="M405.746,-470.661C429.597,-465.391 460.769,-458.505 487.071,-452.694"/>
<polygon fill="midnightblue" stroke="midnightblue" points="487.879,-456.1 496.888,-450.525 486.369,-449.264 487.879,-456.1"/>
</g>
<!-- Node44 -->
<g id="node44" class="node"><title>Node44</title>
<g id="a_node44"><a xlink:href="../../d0/da0/classGeomSvc.html#ab6c810e39b86ce66a4be6a596b4d54b8" target="_top" xlink:title="GeomSvc::loadAlignment">
<polygon fill="none" stroke="black" points="478.5,-393.5 478.5,-412.5 603.5,-412.5 603.5,-393.5 478.5,-393.5"/>
<text text-anchor="middle" x="541" y="-400.5" font-family="FreeSans" font-size="10.00">GeomSvc::loadAlignment</text>
</a>
</g>
</g>
<!-- Node12&#45;&gt;Node44 -->
<g id="edge54" class="edge"><title>Node12&#45;&gt;Node44</title>
<path fill="none" stroke="midnightblue" d="M381.33,-469.369C399.289,-456.805 432.632,-434.909 464,-422 469.943,-419.554 476.281,-417.364 482.666,-415.419"/>
<polygon fill="midnightblue" stroke="midnightblue" points="484.031,-418.669 492.688,-412.561 482.111,-411.937 484.031,-418.669"/>
</g>
<!-- Node43 -->
<g id="node43" class="node"><title>Node43</title>
<g id="a_node43"><a xlink:href="../../d0/da0/classGeomSvc.html#a418543d7b33fc95092b2cd4a7496f1b8" target="_top" xlink:title="GeomSvc::loadMilleAlignment">
<polygon fill="none" stroke="black" points="660,-355.5 660,-374.5 806,-374.5 806,-355.5 660,-355.5"/>
<text text-anchor="middle" x="733" y="-362.5" font-family="FreeSans" font-size="10.00">GeomSvc::loadMilleAlignment</text>
</a>
</g>
</g>
<!-- Node12&#45;&gt;Node43 -->
<g id="edge55" class="edge"><title>Node12&#45;&gt;Node43</title>
<path fill="none" stroke="midnightblue" d="M374.243,-469.226C387.757,-449.045 421.926,-403.066 464,-384 522.195,-357.629 594.839,-354.039 649.81,-356.4"/>
<polygon fill="midnightblue" stroke="midnightblue" points="649.698,-359.899 659.861,-356.907 650.05,-352.908 649.698,-359.899"/>
</g>
<!-- Node45 -->
<g id="node45" class="node"><title>Node45</title>
<g id="a_node45"><a xlink:href="../../d0/da0/classGeomSvc.html#abc60088ed5985a796f5df18ae4299661" target="_top" xlink:title="GeomSvc::loadCalibration">
<polygon fill="none" stroke="black" points="477,-317.5 477,-336.5 605,-336.5 605,-317.5 477,-317.5"/>
<text text-anchor="middle" x="541" y="-324.5" font-family="FreeSans" font-size="10.00">GeomSvc::loadCalibration</text>
</a>
</g>
</g>
<!-- Node12&#45;&gt;Node45 -->
<g id="edge56" class="edge"><title>Node12&#45;&gt;Node45</title>
<path fill="none" stroke="midnightblue" d="M372.551,-469.358C384.257,-445.593 417.768,-383.768 464,-351 470.054,-346.709 476.906,-343.163 483.957,-340.238"/>
<polygon fill="midnightblue" stroke="midnightblue" points="485.495,-343.4 493.638,-336.622 483.045,-336.842 485.495,-343.4"/>
</g>
<!-- Node47 -->
<g id="node47" class="node"><title>Node47</title>
<g id="a_node47"><a xlink:href="../../d0/da0/classGeomSvc.html#a0c78d3ac904cfbb367e96c73f176630d" target="_top" xlink:title="GeomSvc::initWireLUT">
<polygon fill="none" stroke="black" points="484,-757.5 484,-776.5 598,-776.5 598,-757.5 484,-757.5"/>
<text text-anchor="middle" x="541" y="-764.5" font-family="FreeSans" font-size="10.00">GeomSvc::initWireLUT</text>
</a>
</g>
</g>
<!-- Node12&#45;&gt;Node47 -->
<g id="edge58" class="edge"><title>Node12&#45;&gt;Node47</title>
<path fill="none" stroke="midnightblue" d="M370.918,-488.539C384.782,-533.627 444.146,-723.98 464,-743 468.225,-747.047 473.127,-750.412 478.368,-753.21"/>
<polygon fill="midnightblue" stroke="midnightblue" points="476.901,-756.388 487.447,-757.403 479.836,-750.033 476.901,-756.388"/>
</g>
<!-- Node14 -->
<g id="node14" class="node"><title>Node14</title>
<g id="a_node14"><a xlink:href="../../d8/d14/classrecoConsts.html#ae882d6adc62f783ec78114fe3dee3c24" target="_top" xlink:title="recoConsts::recoConsts">
<polygon fill="none" stroke="black" points="1202.5,-529.5 1202.5,-548.5 1319.5,-548.5 1319.5,-529.5 1202.5,-529.5"/>
<text text-anchor="middle" x="1261" y="-536.5" font-family="FreeSans" font-size="10.00">recoConsts::recoConsts</text>
</a>
</g>
</g>
<!-- Node13&#45;&gt;Node14 -->
<g id="edge13" class="edge"><title>Node13&#45;&gt;Node14</title>
<path fill="none" stroke="midnightblue" d="M1157.71,-539C1168.79,-539 1180.66,-539 1192.25,-539"/>
<polygon fill="midnightblue" stroke="midnightblue" points="1192.33,-542.5 1202.33,-539 1192.33,-535.5 1192.33,-542.5"/>
</g>
<!-- Node15 -->
<g id="node15" class="node"><title>Node15</title>
<g id="a_node15"><a xlink:href="../../d8/d14/classrecoConsts.html#a864b1da9614924988d09542c268c42dc" target="_top" xlink:title="set the default value for all the constants needed &#45; user is supposed to add a default value here to ...">
<polygon fill="none" stroke="black" points="1200.5,-470.5 1200.5,-489.5 1321.5,-489.5 1321.5,-470.5 1200.5,-470.5"/>
<text text-anchor="middle" x="1261" y="-477.5" font-family="FreeSans" font-size="10.00">recoConsts::set_defaults</text>
</a>
</g>
</g>
<!-- Node13&#45;&gt;Node15 -->
<g id="edge14" class="edge"><title>Node13&#45;&gt;Node15</title>
<path fill="none" stroke="midnightblue" d="M1136.56,-529.485C1145.46,-526.581 1155.16,-523.284 1164,-520 1186.05,-511.808 1210.52,-501.594 1229.24,-493.537"/>
<polygon fill="midnightblue" stroke="midnightblue" points="1230.68,-496.73 1238.46,-489.543 1227.89,-490.307 1230.68,-496.73"/>
</g>
<!-- Node16 -->
<g id="node16" class="node"><title>Node16</title>
<g id="a_node16"><a xlink:href="../../d1/da8/classPHFlag.html#a64f8c67e9313e5cecdbed51f747026da" target="_top" xlink:title="PHFlag::set_DoubleFlag">
<polygon fill="none" stroke="black" points="1361,-628.5 1361,-647.5 1481,-647.5 1481,-628.5 1361,-628.5"/>
<text text-anchor="middle" x="1421" y="-635.5" font-family="FreeSans" font-size="10.00">PHFlag::set_DoubleFlag</text>
</a>
</g>
</g>
<!-- Node15&#45;&gt;Node16 -->
<g id="edge15" class="edge"><title>Node15&#45;&gt;Node16</title>
<path fill="none" stroke="midnightblue" d="M1279.24,-489.657C1291.77,-497.101 1308.79,-508.107 1322,-520 1356.93,-551.437 1390.27,-595.599 1407.61,-620.008"/>
<polygon fill="midnightblue" stroke="midnightblue" points="1404.84,-622.15 1413.45,-628.328 1410.57,-618.131 1404.84,-622.15"/>
</g>
<!-- Node17 -->
<g id="node17" class="node"><title>Node17</title>
<g id="a_node17"><a xlink:href="../../d1/da8/classPHFlag.html#a3ef5c3f1eff2daaaf18e5129858a9ef8" target="_top" xlink:title="PHFlag::set_IntFlag">
<polygon fill="none" stroke="black" points="1370.5,-372.5 1370.5,-391.5 1471.5,-391.5 1471.5,-372.5 1370.5,-372.5"/>
<text text-anchor="middle" x="1421" y="-379.5" font-family="FreeSans" font-size="10.00">PHFlag::set_IntFlag</text>
</a>
</g>
</g>
<!-- Node15&#45;&gt;Node17 -->
<g id="edge16" class="edge"><title>Node15&#45;&gt;Node17</title>
<path fill="none" stroke="midnightblue" d="M1277.44,-470.425C1304.98,-453.344 1362.77,-417.499 1395.69,-397.081"/>
<polygon fill="midnightblue" stroke="midnightblue" points="1397.61,-400.004 1404.27,-391.759 1393.92,-394.056 1397.61,-400.004"/>
</g>
<!-- Node18 -->
<g id="node18" class="node"><title>Node18</title>
<g id="a_node18"><a xlink:href="../../d1/da8/classPHFlag.html#a5aaf1fedd8907f4b2b0c9535a4491f42" target="_top" xlink:title="PHFlag::set_BoolFlag">
<polygon fill="none" stroke="black" points="1366,-169.5 1366,-188.5 1476,-188.5 1476,-169.5 1366,-169.5"/>
<text text-anchor="middle" x="1421" y="-176.5" font-family="FreeSans" font-size="10.00">PHFlag::set_BoolFlag</text>
</a>
</g>
</g>
<!-- Node15&#45;&gt;Node18 -->
<g id="edge17" class="edge"><title>Node15&#45;&gt;Node18</title>
<path fill="none" stroke="midnightblue" d="M1267.4,-470.431C1278.03,-451.53 1302.37,-408.023 1322,-371 1355.37,-308.076 1393.28,-232.599 1410.54,-198.008"/>
<polygon fill="midnightblue" stroke="midnightblue" points="1413.88,-199.156 1415.21,-188.644 1407.62,-196.034 1413.88,-199.156"/>
</g>
<!-- Node19 -->
<g id="node19" class="node"><title>Node19</title>
<g id="a_node19"><a xlink:href="../../d8/d14/classrecoConsts.html#aec7c7c885b190f7dbb57ac99af4587e6" target="_top" xlink:title="overide the virtual function to expand the environmental variables ">
<polygon fill="none" stroke="black" points="1358,-470.5 1358,-489.5 1484,-489.5 1484,-470.5 1358,-470.5"/>
<text text-anchor="middle" x="1421" y="-477.5" font-family="FreeSans" font-size="10.00">recoConsts::set_CharFlag</text>
</a>
</g>
</g>
<!-- Node15&#45;&gt;Node19 -->
<g id="edge18" class="edge"><title>Node15&#45;&gt;Node19</title>
<path fill="none" stroke="midnightblue" d="M1321.73,-480C1330.21,-480 1339.01,-480 1347.69,-480"/>
<polygon fill="midnightblue" stroke="midnightblue" points="1347.81,-483.5 1357.81,-480 1347.81,-476.5 1347.81,-483.5"/>
</g>
<!-- Node20 -->
<g id="node20" class="node"><title>Node20</title>
<g id="a_node20"><a xlink:href="../../d8/d14/classrecoConsts.html#ad45c452d9a71b5410c472614d72442ec" target="_top" xlink:title="recoConsts::ExpandEnvironmentals">
<polygon fill="none" stroke="black" points="1520,-470.5 1520,-489.5 1686,-489.5 1686,-470.5 1520,-470.5"/>
<text text-anchor="middle" x="1603" y="-477.5" font-family="FreeSans" font-size="10.00">recoConsts::ExpandEnvironmentals</text>
</a>
</g>
</g>
<!-- Node19&#45;&gt;Node20 -->
<g id="edge19" class="edge"><title>Node19&#45;&gt;Node20</title>
<path fill="none" stroke="midnightblue" d="M1484.2,-480C1492.45,-480 1501.05,-480 1509.68,-480"/>
<polygon fill="midnightblue" stroke="midnightblue" points="1509.8,-483.5 1519.8,-480 1509.8,-476.5 1509.8,-483.5"/>
</g>
<!-- Node21&#45;&gt;Node13 -->
<g id="edge21" class="edge"><title>Node21&#45;&gt;Node13</title>
<path fill="none" stroke="midnightblue" d="M559.349,-564.506C622.433,-597.735 844.605,-703.022 1010,-634 1047.26,-618.45 1077.3,-580.141 1092.72,-557.202"/>
<polygon fill="midnightblue" stroke="midnightblue" points="1095.73,-558.989 1098.24,-548.695 1089.86,-555.178 1095.73,-558.989"/>
</g>
<!-- Node22 -->
<g id="node22" class="node"><title>Node22</title>
<g id="a_node22"><a xlink:href="../../df/dbc/run_8C.html#a078d38b1d96e7c0e4f35d93363cc8325" target="_top" xlink:title="run">
<polygon fill="none" stroke="black" points="718,-393.5 718,-412.5 748,-412.5 748,-393.5 718,-393.5"/>
<text text-anchor="middle" x="733" y="-400.5" font-family="FreeSans" font-size="10.00">run</text>
</a>
</g>
</g>
<!-- Node21&#45;&gt;Node22 -->
<g id="edge22" class="edge"><title>Node21&#45;&gt;Node22</title>
<path fill="none" stroke="midnightblue" d="M586.005,-545.483C596.981,-541.958 608.359,-537.241 618,-531 663.585,-501.489 702.108,-449.011 720.474,-421.304"/>
<polygon fill="midnightblue" stroke="midnightblue" points="723.604,-422.909 726.108,-412.615 717.73,-419.101 723.604,-422.909"/>
</g>
<!-- Node40 -->
<g id="node40" class="node"><title>Node40</title>
<g id="a_node40"><a xlink:href="../../d0/da0/classGeomSvc.html#a315e886f05db8254ed7d320706e268e6" target="_top" xlink:title="Convert the official detectorName to local detectorName. ">
<polygon fill="none" stroke="black" points="654,-545.5 654,-564.5 812,-564.5 812,-545.5 654,-545.5"/>
<text text-anchor="middle" x="733" y="-552.5" font-family="FreeSans" font-size="10.00">GeomSvc::toLocalDetectorName</text>
</a>
</g>
</g>
<!-- Node21&#45;&gt;Node40 -->
<g id="edge50" class="edge"><title>Node21&#45;&gt;Node40</title>
<path fill="none" stroke="midnightblue" d="M606.06,-555C618.132,-555 630.951,-555 643.613,-555"/>
<polygon fill="midnightblue" stroke="midnightblue" points="643.716,-558.5 653.716,-555 643.716,-551.5 643.716,-558.5"/>
</g>
<!-- Node23 -->
<g id="node23" class="node"><title>Node23</title>
<g id="a_node23"><a xlink:href="../../d5/de9/E1039Shielding_2ana_8C.html#a24b637aefa84c667b63905e9be5a8f69" target="_top" xlink:title="ana">
<polygon fill="none" stroke="black" points="913,-415.5 913,-434.5 945,-434.5 945,-415.5 913,-415.5"/>
<text text-anchor="middle" x="929" y="-422.5" font-family="FreeSans" font-size="10.00">ana</text>
</a>
</g>
</g>
<!-- Node22&#45;&gt;Node23 -->
<g id="edge23" class="edge"><title>Node22&#45;&gt;Node23</title>
<path fill="none" stroke="midnightblue" d="M748.265,-404.618C780.958,-408.325 861.643,-417.475 902.872,-422.15"/>
<polygon fill="midnightblue" stroke="midnightblue" points="902.586,-425.64 912.917,-423.29 903.375,-418.685 902.586,-425.64"/>
</g>
<!-- Node25 -->
<g id="node25" class="node"><title>Node25</title>
<g id="a_node25"><a xlink:href="../../da/d29/classFun4AllServer.html#ab7263450319ca1d5029209fde26a7af8" target="_top" xlink:title="Fun4AllServer::End">
<polygon fill="none" stroke="red" points="880,-491.5 880,-510.5 978,-510.5 978,-491.5 880,-491.5"/>
<text text-anchor="middle" x="929" y="-498.5" font-family="FreeSans" font-size="10.00">Fun4AllServer::End</text>
</a>
</g>
</g>
<!-- Node22&#45;&gt;Node25 -->
<g id="edge25" class="edge"><title>Node22&#45;&gt;Node25</title>
<path fill="none" stroke="midnightblue" d="M744.798,-412.591C764.108,-429.236 806.438,-463.46 848,-482 854.889,-485.073 862.343,-487.687 869.835,-489.901"/>
<polygon fill="midnightblue" stroke="midnightblue" points="869.092,-493.326 879.661,-492.585 870.937,-486.573 869.092,-493.326"/>
</g>
<!-- Node28 -->
<g id="node28" class="node"><title>Node28</title>
<g id="a_node28"><a xlink:href="../../d4/da9/classFun4AllInputManager.html#a8ad787f847a175450ec5beddeaa33ca6" target="_top" xlink:title="Fun4AllInputManager\l::fileopen">
<polygon fill="none" stroke="black" points="874.5,-366 874.5,-396 983.5,-396 983.5,-366 874.5,-366"/>
<text text-anchor="start" x="882.5" y="-384" font-family="FreeSans" font-size="10.00">Fun4AllInputManager</text>
<text text-anchor="middle" x="929" y="-373" font-family="FreeSans" font-size="10.00">::fileopen</text>
</a>
</g>
</g>
<!-- Node22&#45;&gt;Node28 -->
<g id="edge29" class="edge"><title>Node22&#45;&gt;Node28</title>
<path fill="none" stroke="midnightblue" d="M748.265,-401.382C772.436,-398.641 822.84,-392.925 864.137,-388.242"/>
<polygon fill="midnightblue" stroke="midnightblue" points="864.604,-391.712 874.146,-387.107 863.816,-384.756 864.604,-391.712"/>
</g>
<!-- Node29 -->
<g id="node29" class="node"><title>Node29</title>
<g id="a_node29"><a xlink:href="../../d8/d14/classrecoConsts.html#a7c0a1405f7f0f8c2acca26831984b28d" target="_top" xlink:title="initialize the constants by the runNo &#45; not implemented yet ">
<polygon fill="none" stroke="black" points="1220,-342.5 1220,-361.5 1302,-361.5 1302,-342.5 1220,-342.5"/>
<text text-anchor="middle" x="1261" y="-349.5" font-family="FreeSans" font-size="10.00">recoConsts::init</text>
</a>
</g>
</g>
<!-- Node22&#45;&gt;Node29 -->
<g id="edge30" class="edge"><title>Node22&#45;&gt;Node29</title>
<path fill="none" stroke="midnightblue" d="M748.096,-401.312C764.173,-398.997 790.953,-393.94 812,-384 830.085,-375.459 829.065,-363.44 848,-357 972.28,-314.734 1130.09,-330.494 1209.5,-342.809"/>
<polygon fill="midnightblue" stroke="midnightblue" points="1209.28,-346.319 1219.71,-344.441 1210.39,-339.407 1209.28,-346.319"/>
</g>
<!-- Node22&#45;&gt;Node13 -->
<g id="edge32" class="edge"><title>Node22&#45;&gt;Node13</title>
<path fill="none" stroke="midnightblue" d="M739.926,-412.84C754.711,-436.358 795.82,-495.674 848,-520 909.475,-548.659 988.334,-549.957 1042.18,-546.298"/>
<polygon fill="midnightblue" stroke="midnightblue" points="1042.56,-549.78 1052.27,-545.535 1042.03,-542.8 1042.56,-549.78"/>
</g>
<!-- Node30 -->
<g id="node30" class="node"><title>Node30</title>
<g id="a_node30"><a xlink:href="../../da/d29/classFun4AllServer.html#a3e55156f91b2c94bb6c4ef33ffce587a" target="_top" xlink:title="Fun4AllServer::instance">
<polygon fill="none" stroke="black" points="1046,-270.5 1046,-289.5 1164,-289.5 1164,-270.5 1046,-270.5"/>
<text text-anchor="middle" x="1105" y="-277.5" font-family="FreeSans" font-size="10.00">Fun4AllServer::instance</text>
</a>
</g>
</g>
<!-- Node22&#45;&gt;Node30 -->
<g id="edge33" class="edge"><title>Node22&#45;&gt;Node30</title>
<path fill="none" stroke="midnightblue" d="M748.257,-403.412C765.491,-403.129 794.372,-400.04 812,-384 848.179,-351.082 808.156,-308.371 848,-280 912.963,-233.742 1012.63,-252.331 1066.43,-267.587"/>
<polygon fill="midnightblue" stroke="midnightblue" points="1065.66,-271.008 1076.24,-270.477 1067.64,-264.294 1065.66,-271.008"/>
</g>
<!-- Node22&#45;&gt;Node11 -->
<g id="edge34" class="edge"><title>Node22&#45;&gt;Node11</title>
<path fill="none" stroke="midnightblue" d="M724.483,-412.745C707.929,-433.302 665.964,-480.635 618,-498 495.213,-542.455 338.268,-523.962 257.081,-509.371"/>
<polygon fill="midnightblue" stroke="midnightblue" points="257.558,-505.9 247.088,-507.526 256.286,-512.784 257.558,-505.9"/>
</g>
<!-- Node31 -->
<g id="node31" class="node"><title>Node31</title>
<g id="a_node31"><a xlink:href="../../d8/d14/classrecoConsts.html#a5502a14fdb8433de15c2e71351f281d6" target="_top" xlink:title="print all the parameters ">
<polygon fill="none" stroke="red" points="884.5,-213.5 884.5,-232.5 973.5,-232.5 973.5,-213.5 884.5,-213.5"/>
<text text-anchor="middle" x="929" y="-220.5" font-family="FreeSans" font-size="10.00">recoConsts::Print</text>
</a>
</g>
</g>
<!-- Node22&#45;&gt;Node31 -->
<g id="edge35" class="edge"><title>Node22&#45;&gt;Node31</title>
<path fill="none" stroke="midnightblue" d="M748.158,-403.631C765.565,-403.6 794.897,-400.798 812,-384 856.916,-339.886 804.258,-292.278 848,-247 855.253,-239.492 864.754,-234.309 874.664,-230.737"/>
<polygon fill="midnightblue" stroke="midnightblue" points="875.709,-234.077 884.231,-227.782 873.643,-227.389 875.709,-234.077"/>
</g>
<!-- Node32 -->
<g id="node32" class="node"><title>Node32</title>
<g id="a_node32"><a xlink:href="../../da/d29/classFun4AllServer.html#ae3fe7393e52376b515c60dd927670f2e" target="_top" xlink:title="Fun4AllServer::PrintTimer">
<polygon fill="none" stroke="black" points="865.5,-175.5 865.5,-194.5 992.5,-194.5 992.5,-175.5 865.5,-175.5"/>
<text text-anchor="middle" x="929" y="-182.5" font-family="FreeSans" font-size="10.00">Fun4AllServer::PrintTimer</text>
</a>
</g>
</g>
<!-- Node22&#45;&gt;Node32 -->
<g id="edge36" class="edge"><title>Node22&#45;&gt;Node32</title>
<path fill="none" stroke="midnightblue" d="M748.017,-403.791C765.555,-403.96 795.308,-401.4 812,-384 868.478,-325.125 791.353,-262.712 848,-204 850.504,-201.404 853.294,-199.136 856.287,-197.156"/>
<polygon fill="midnightblue" stroke="midnightblue" points="858.088,-200.16 865.197,-192.305 854.741,-194.012 858.088,-200.16"/>
</g>
<!-- Node33 -->
<g id="node33" class="node"><title>Node33</title>
<g id="a_node33"><a xlink:href="../../dc/da8/classAnaModule.html#aae26c89fb67266a27325b364ba48cc38" target="_top" xlink:title="AnaModule::registerDetector">
<polygon fill="none" stroke="red" points="860,-137.5 860,-156.5 998,-156.5 998,-137.5 860,-137.5"/>
<text text-anchor="middle" x="929" y="-144.5" font-family="FreeSans" font-size="10.00">AnaModule::registerDetector</text>
</a>
</g>
</g>
<!-- Node22&#45;&gt;Node33 -->
<g id="edge37" class="edge"><title>Node22&#45;&gt;Node33</title>
<path fill="none" stroke="midnightblue" d="M748.11,-403.879C765.747,-404.141 795.604,-401.679 812,-384 878.777,-311.998 781.016,-237.81 848,-166 849.205,-164.708 850.48,-163.497 851.817,-162.361"/>
<polygon fill="midnightblue" stroke="midnightblue" points="853.836,-165.221 860.068,-156.652 849.853,-159.464 853.836,-165.221"/>
</g>
<!-- Node34 -->
<g id="node34" class="node"><title>Node34</title>
<g id="a_node34"><a xlink:href="../../da/d29/classFun4AllServer.html#ab2cb490790d15b865ae79eb3094caabe" target="_top" xlink:title="Fun4AllServer::registerInput\lManager">
<polygon fill="none" stroke="red" points="861.5,-88 861.5,-118 996.5,-118 996.5,-88 861.5,-88"/>
<text text-anchor="start" x="869.5" y="-106" font-family="FreeSans" font-size="10.00">Fun4AllServer::registerInput</text>
<text text-anchor="middle" x="929" y="-95" font-family="FreeSans" font-size="10.00">Manager</text>
</a>
</g>
</g>
<!-- Node22&#45;&gt;Node34 -->
<g id="edge38" class="edge"><title>Node22&#45;&gt;Node34</title>
<path fill="none" stroke="midnightblue" d="M748.177,-403.94C765.885,-404.267 795.817,-401.874 812,-384 889.115,-298.826 773.647,-215.596 848,-128 849.53,-126.197 851.188,-124.523 852.952,-122.967"/>
<polygon fill="midnightblue" stroke="midnightblue" points="855.277,-125.604 861.294,-116.882 851.152,-119.948 855.277,-125.604"/>
</g>
<!-- Node35 -->
<g id="node35" class="node"><title>Node35</title>
<g id="a_node35"><a xlink:href="../../da/d29/classFun4AllServer.html#a0a9947db0ede1e55622001eb7515f8c0" target="_top" xlink:title="Fun4AllServer::registerSubsystem">
<polygon fill="none" stroke="red" points="848.5,-289.5 848.5,-308.5 1009.5,-308.5 1009.5,-289.5 848.5,-289.5"/>
<text text-anchor="middle" x="929" y="-296.5" font-family="FreeSans" font-size="10.00">Fun4AllServer::registerSubsystem</text>
</a>
</g>
</g>
<!-- Node22&#45;&gt;Node35 -->
<g id="edge39" class="edge"><title>Node22&#45;&gt;Node35</title>
<path fill="none" stroke="midnightblue" d="M748.051,-402.788C764.819,-401.864 792.971,-398.117 812,-384 837.282,-365.243 823.219,-342.414 848,-323 853.445,-318.734 859.639,-315.225 866.113,-312.338"/>
<polygon fill="midnightblue" stroke="midnightblue" points="867.727,-315.464 875.745,-308.539 865.158,-308.952 867.727,-315.464"/>
</g>
<!-- Node36 -->
<g id="node36" class="node"><title>Node36</title>
<g id="a_node36"><a xlink:href="../../da/d29/classFun4AllServer.html#a11bbc8b2f53bc06e0b05ee202dd6372a" target="_top" xlink:title="run n events (0 means up to end of file) ">
<polygon fill="none" stroke="red" points="881.5,-453.5 881.5,-472.5 976.5,-472.5 976.5,-453.5 881.5,-453.5"/>
<text text-anchor="middle" x="929" y="-460.5" font-family="FreeSans" font-size="10.00">Fun4AllServer::run</text>
</a>
</g>
</g>
<!-- Node22&#45;&gt;Node36 -->
<g id="edge41" class="edge"><title>Node22&#45;&gt;Node36</title>
<path fill="none" stroke="midnightblue" d="M748.225,-408.7C769.632,-417.143 811.512,-433.143 848,-444 856.351,-446.485 865.266,-448.865 874.003,-451.048"/>
<polygon fill="midnightblue" stroke="midnightblue" points="873.207,-454.457 883.752,-453.426 874.866,-447.656 873.207,-454.457"/>
</g>
<!-- Node22&#45;&gt;Node18 -->
<g id="edge45" class="edge"><title>Node22&#45;&gt;Node18</title>
<path fill="none" stroke="midnightblue" d="M748.241,-403.997C766.017,-404.385 796.02,-402.056 812,-384 857.378,-332.728 796.835,-123.499 848,-78 928.647,-6.28503 1274.3,-125.095 1385.44,-165.969"/>
<polygon fill="midnightblue" stroke="midnightblue" points="1384.25,-169.263 1394.85,-169.45 1386.68,-162.698 1384.25,-169.263"/>
</g>
<!-- Node22&#45;&gt;Node16 -->
<g id="edge46" class="edge"><title>Node22&#45;&gt;Node16</title>
<path fill="none" stroke="midnightblue" d="M740.495,-412.681C754.737,-434.184 789.252,-487.833 812,-536 831.816,-577.957 810.044,-607.309 848,-634 1015.9,-752.067 1285.54,-682.095 1383.19,-650.756"/>
<polygon fill="midnightblue" stroke="midnightblue" points="1384.48,-654.016 1392.9,-647.584 1382.31,-647.362 1384.48,-654.016"/>
</g>
<!-- Node37 -->
<g id="node37" class="node"><title>Node37</title>
<g id="a_node37"><a xlink:href="../../dc/da8/classAnaModule.html#a815e50856d90a0bc816ad165bcf8d8f4" target="_top" xlink:title="AnaModule::set_output\l_filename">
<polygon fill="none" stroke="black" points="871.5,-0 871.5,-30 986.5,-30 986.5,-0 871.5,-0"/>
<text text-anchor="start" x="879.5" y="-18" font-family="FreeSans" font-size="10.00">AnaModule::set_output</text>
<text text-anchor="middle" x="929" y="-7" font-family="FreeSans" font-size="10.00">_filename</text>
</a>
</g>
</g>
<!-- Node22&#45;&gt;Node37 -->
<g id="edge47" class="edge"><title>Node22&#45;&gt;Node37</title>
<path fill="none" stroke="midnightblue" d="M748.274,-404.026C766.083,-404.444 796.122,-402.146 812,-384 911.772,-269.974 755.235,-164.796 848,-45 851.934,-39.9203 856.826,-35.7006 862.241,-32.1955"/>
<polygon fill="midnightblue" stroke="midnightblue" points="864.081,-35.1769 871.116,-27.2546 860.676,-29.0608 864.081,-35.1769"/>
</g>
<!-- Node38 -->
<g id="node38" class="node"><title>Node38</title>
<g id="a_node38"><a xlink:href="../../d0/da0/classGeomSvc.html#a5c51613529dae6339bb35eb99e81f758" target="_top" xlink:title="GeomSvc::UseDbSvc">
<polygon fill="none" stroke="black" points="874.5,-605.5 874.5,-624.5 983.5,-624.5 983.5,-605.5 874.5,-605.5"/>
<text text-anchor="middle" x="929" y="-612.5" font-family="FreeSans" font-size="10.00">GeomSvc::UseDbSvc</text>
</a>
</g>
</g>
<!-- Node22&#45;&gt;Node38 -->
<g id="edge48" class="edge"><title>Node22&#45;&gt;Node38</title>
<path fill="none" stroke="midnightblue" d="M739.594,-412.527C762.364,-451.299 846.916,-595.201 848,-596 853.052,-599.724 858.729,-602.73 864.667,-605.153"/>
<polygon fill="midnightblue" stroke="midnightblue" points="863.565,-608.476 874.16,-608.503 865.894,-601.875 863.565,-608.476"/>
</g>
<!-- Node39 -->
<g id="node39" class="node"><title>Node39</title>
<g id="a_node39"><a xlink:href="../../d5/dec/classFun4AllBase.html#a05da2261577843028cf78e99171343b9" target="_top" xlink:title="Sets the verbosity of this module (0 by default=quiet). ">
<polygon fill="none" stroke="black" points="871.5,-567.5 871.5,-586.5 986.5,-586.5 986.5,-567.5 871.5,-567.5"/>
<text text-anchor="middle" x="929" y="-574.5" font-family="FreeSans" font-size="10.00">Fun4AllBase::Verbosity</text>
</a>
</g>
</g>
<!-- Node22&#45;&gt;Node39 -->
<g id="edge49" class="edge"><title>Node22&#45;&gt;Node39</title>
<path fill="none" stroke="midnightblue" d="M738.623,-412.755C751.775,-439.441 792.087,-514.238 848,-553 854.368,-557.415 861.563,-561.032 868.963,-563.993"/>
<polygon fill="midnightblue" stroke="midnightblue" points="867.804,-567.295 878.399,-567.402 870.183,-560.712 867.804,-567.295"/>
</g>
<!-- Node24 -->
<g id="node24" class="node"><title>Node24</title>
<g id="a_node24"><a xlink:href="../../d5/de9/E1039Shielding_2ana_8C.html#a4770f9752bd2f6c264c3a5f0e5f07bf3" target="_top" xlink:title="drawSnglAccPz">
<polygon fill="none" stroke="red" points="1062.5,-415.5 1062.5,-434.5 1147.5,-434.5 1147.5,-415.5 1062.5,-415.5"/>
<text text-anchor="middle" x="1105" y="-422.5" font-family="FreeSans" font-size="10.00">drawSnglAccPz</text>
</a>
</g>
</g>
<!-- Node23&#45;&gt;Node24 -->
<g id="edge24" class="edge"><title>Node23&#45;&gt;Node24</title>
<path fill="none" stroke="midnightblue" d="M945.137,-425C968.792,-425 1015.62,-425 1052.33,-425"/>
<polygon fill="midnightblue" stroke="midnightblue" points="1052.39,-428.5 1062.39,-425 1052.39,-421.5 1052.39,-428.5"/>
</g>
<!-- Node25&#45;&gt;Node13 -->
<g id="edge26" class="edge"><title>Node25&#45;&gt;Node13</title>
<path fill="none" stroke="midnightblue" d="M973.908,-510.589C997.179,-515.671 1025.95,-521.955 1050.52,-527.32"/>
<polygon fill="midnightblue" stroke="midnightblue" points="1049.89,-530.766 1060.41,-529.48 1051.39,-523.927 1049.89,-530.766"/>
</g>
<!-- Node26 -->
<g id="node26" class="node"><title>Node26</title>
<g id="a_node26"><a xlink:href="../../da/d29/classFun4AllServer.html#a53b1b6b338aa36891f2690a188920980" target="_top" xlink:title="Fun4AllServer::EndRun">
<polygon fill="none" stroke="black" points="1047,-453.5 1047,-472.5 1163,-472.5 1163,-453.5 1047,-453.5"/>
<text text-anchor="middle" x="1105" y="-460.5" font-family="FreeSans" font-size="10.00">Fun4AllServer::EndRun</text>
</a>
</g>
</g>
<!-- Node25&#45;&gt;Node26 -->
<g id="edge27" class="edge"><title>Node25&#45;&gt;Node26</title>
<path fill="none" stroke="midnightblue" d="M973.908,-491.411C997.179,-486.329 1025.95,-480.045 1050.52,-474.68"/>
<polygon fill="midnightblue" stroke="midnightblue" points="1051.39,-478.073 1060.41,-472.52 1049.89,-471.234 1051.39,-478.073"/>
</g>
<!-- Node27 -->
<g id="node27" class="node"><title>Node27</title>
<g id="a_node27"><a xlink:href="../../d1/da8/classPHFlag.html#a07899067141a5f12333cc37183caddc8" target="_top" xlink:title="PHFlag::get_IntFlag">
<polygon fill="none" stroke="black" points="1054,-491.5 1054,-510.5 1156,-510.5 1156,-491.5 1054,-491.5"/>
<text text-anchor="middle" x="1105" y="-498.5" font-family="FreeSans" font-size="10.00">PHFlag::get_IntFlag</text>
</a>
</g>
</g>
<!-- Node25&#45;&gt;Node27 -->
<g id="edge28" class="edge"><title>Node25&#45;&gt;Node27</title>
<path fill="none" stroke="midnightblue" d="M978.007,-501C998.327,-501 1022.23,-501 1043.72,-501"/>
<polygon fill="midnightblue" stroke="midnightblue" points="1043.72,-504.5 1053.72,-501 1043.72,-497.5 1043.72,-504.5"/>
</g>
<!-- Node29&#45;&gt;Node17 -->
<g id="edge31" class="edge"><title>Node29&#45;&gt;Node17</title>
<path fill="none" stroke="midnightblue" d="M1302.28,-359.648C1319.95,-363.004 1341.06,-367.012 1360.49,-370.701"/>
<polygon fill="midnightblue" stroke="midnightblue" points="1360,-374.169 1370.47,-372.596 1361.3,-367.292 1360,-374.169"/>
</g>
<!-- Node35&#45;&gt;Node30 -->
<g id="edge40" class="edge"><title>Node35&#45;&gt;Node30</title>
<path fill="none" stroke="midnightblue" d="M1009.62,-290.306C1018.36,-289.351 1027.21,-288.385 1035.8,-287.447"/>
<polygon fill="midnightblue" stroke="midnightblue" points="1036.19,-290.926 1045.75,-286.361 1035.43,-283.967 1036.19,-290.926"/>
</g>
<!-- Node36&#45;&gt;Node13 -->
<g id="edge42" class="edge"><title>Node36&#45;&gt;Node13</title>
<path fill="none" stroke="midnightblue" d="M976.578,-469.3C988.005,-472.105 999.858,-476.155 1010,-482 1030.16,-493.616 1026.34,-507.554 1046,-520 1049.19,-522.018 1052.61,-523.842 1056.14,-525.487"/>
<polygon fill="midnightblue" stroke="midnightblue" points="1055.07,-528.832 1065.65,-529.434 1057.75,-522.367 1055.07,-528.832"/>
</g>
<!-- Node36&#45;&gt;Node27 -->
<g id="edge43" class="edge"><title>Node36&#45;&gt;Node27</title>
<path fill="none" stroke="midnightblue" d="M973.908,-472.589C997.179,-477.671 1025.95,-483.955 1050.52,-489.32"/>
<polygon fill="midnightblue" stroke="midnightblue" points="1049.89,-492.766 1060.41,-491.48 1051.39,-485.927 1049.89,-492.766"/>
</g>
<!-- Node36&#45;&gt;Node26 -->
<g id="edge44" class="edge"><title>Node36&#45;&gt;Node26</title>
<path fill="none" stroke="midnightblue" d="M976.629,-463C995.144,-463 1016.79,-463 1036.94,-463"/>
<polygon fill="midnightblue" stroke="midnightblue" points="1036.99,-466.5 1046.99,-463 1036.99,-459.5 1036.99,-466.5"/>
</g>
<!-- Node42&#45;&gt;Node43 -->
<g id="edge53" class="edge"><title>Node42&#45;&gt;Node43</title>
<path fill="none" stroke="midnightblue" d="M596.24,-431.495C603.825,-429.021 611.306,-425.91 618,-422 638.088,-410.265 633.877,-395.674 654,-384 657.73,-381.836 661.697,-379.918 665.79,-378.218"/>
<polygon fill="midnightblue" stroke="midnightblue" points="667.345,-381.375 675.517,-374.632 664.923,-374.807 667.345,-381.375"/>
</g>
<!-- Node46 -->
<g id="node46" class="node"><title>Node46</title>
<g id="a_node46"><a xlink:href="../../d0/da0/classGeomSvc.html#a64fde7dce7f3df7cf534796d7da4ecdb" target="_top" xlink:title="GeomSvc::getDetectorName">
<polygon fill="none" stroke="black" points="663,-317.5 663,-336.5 803,-336.5 803,-317.5 663,-317.5"/>
<text text-anchor="middle" x="733" y="-324.5" font-family="FreeSans" font-size="10.00">GeomSvc::getDetectorName</text>
</a>
</g>
</g>
<!-- Node45&#45;&gt;Node46 -->
<g id="edge57" class="edge"><title>Node45&#45;&gt;Node46</title>
<path fill="none" stroke="midnightblue" d="M605.003,-327C620.245,-327 636.73,-327 652.616,-327"/>
<polygon fill="midnightblue" stroke="midnightblue" points="652.95,-330.5 662.95,-327 652.95,-323.5 652.95,-330.5"/>
</g>
</g>
</svg>
