<?xml version="1.0" encoding="UTF-8" standalone="no"?>
<!DOCTYPE svg PUBLIC "-//W3C//DTD SVG 1.1//EN"
 "http://www.w3.org/Graphics/SVG/1.1/DTD/svg11.dtd">
<!-- Generated by graphviz version 2.44.0 (0)
 -->
<!-- Title: CalibDriftDist::process_event Pages: 1 -->
<svg width="1547pt" height="750pt"
 viewBox="0.00 0.00 1547.00 750.00" xmlns="http://www.w3.org/2000/svg" xmlns:xlink="http://www.w3.org/1999/xlink">
<g id="graph0" class="graph" transform="scale(1 1) rotate(0) translate(4 746)">
<title>CalibDriftDist::process_event</title>
<!-- Node1 -->
<g id="node1" class="node">
<title>Node1</title>
<g id="a_node1"><a xlink:title=" ">
<polygon fill="#bfbfbf" stroke="black" points="0,-223 0,-253 125,-253 125,-223 0,-223"/>
<text text-anchor="start" x="8" y="-241" font-family="FreeSans" font-size="10.00">CalibDriftDist::process</text>
<text text-anchor="middle" x="62.5" y="-230" font-family="FreeSans" font-size="10.00">_event</text>
</a>
</g>
</g>
<!-- Node2 -->
<g id="node2" class="node">
<title>Node2</title>
<g id="a_node2"><a xlink:href="../../d9/dbc/classSQHitVector.html#af4e23e0ec236191386dc8e0d57c61e3c" target="_top" xlink:title=" ">
<polygon fill="none" stroke="black" points="183,-456.5 183,-475.5 291,-475.5 291,-456.5 183,-456.5"/>
<text text-anchor="middle" x="237" y="-463.5" font-family="FreeSans" font-size="10.00">SQHitVector::begin</text>
</a>
</g>
</g>
<!-- Node1&#45;&gt;Node2 -->
<g id="edge1" class="edge">
<title>Node1&#45;&gt;Node2</title>
<path fill="none" stroke="midnightblue" d="M65.98,-253.07C73.16,-291.63 97.61,-394.55 161,-447 164.75,-450.1 168.94,-452.71 173.37,-454.89"/>
<polygon fill="midnightblue" stroke="midnightblue" points="172.16,-458.18 182.73,-458.81 174.86,-451.72 172.16,-458.18"/>
</g>
<!-- Node3 -->
<g id="node3" class="node">
<title>Node3</title>
<g id="a_node3"><a xlink:href="../../d9/dbc/classSQHitVector.html#a1de5ee010fa8617778b7a56d21e545f0" target="_top" xlink:title=" ">
<polygon fill="none" stroke="black" points="187.5,-418.5 187.5,-437.5 286.5,-437.5 286.5,-418.5 187.5,-418.5"/>
<text text-anchor="middle" x="237" y="-425.5" font-family="FreeSans" font-size="10.00">SQHitVector::end</text>
</a>
</g>
</g>
<!-- Node1&#45;&gt;Node3 -->
<g id="edge2" class="edge">
<title>Node1&#45;&gt;Node3</title>
<path fill="none" stroke="midnightblue" d="M67.65,-253.03C77.69,-286.52 106.6,-367.62 161,-409 166.05,-412.84 171.79,-415.91 177.8,-418.37"/>
<polygon fill="midnightblue" stroke="midnightblue" points="176.79,-421.73 187.39,-421.74 179.12,-415.12 176.79,-421.73"/>
</g>
<!-- Node4 -->
<g id="node4" class="node">
<title>Node4</title>
<g id="a_node4"><a xlink:href="../../de/d79/classSQHit.html#ae69d6d52727c281a3a314cc8a48a8d6c" target="_top" xlink:title="Return the detector ID of this hit.">
<polygon fill="none" stroke="black" points="174,-380.5 174,-399.5 300,-399.5 300,-380.5 174,-380.5"/>
<text text-anchor="middle" x="237" y="-387.5" font-family="FreeSans" font-size="10.00">SQHit::get_detector_id</text>
</a>
</g>
</g>
<!-- Node1&#45;&gt;Node4 -->
<g id="edge3" class="edge">
<title>Node1&#45;&gt;Node4</title>
<path fill="none" stroke="midnightblue" d="M70.19,-253.02C83.37,-280.82 115.42,-340.27 161,-371 164.08,-373.07 167.36,-374.92 170.78,-376.57"/>
<polygon fill="midnightblue" stroke="midnightblue" points="169.48,-379.82 180.06,-380.47 172.2,-373.37 169.48,-379.82"/>
</g>
<!-- Node5 -->
<g id="node5" class="node">
<title>Node5</title>
<g id="a_node5"><a xlink:href="../../de/d79/classSQHit.html#ab0f1f06e3215306cc35d4548d5e4ba9f" target="_top" xlink:title="Return the element ID of this hit.">
<polygon fill="none" stroke="black" points="174,-342.5 174,-361.5 300,-361.5 300,-342.5 174,-342.5"/>
<text text-anchor="middle" x="237" y="-349.5" font-family="FreeSans" font-size="10.00">SQHit::get_element_id</text>
</a>
</g>
</g>
<!-- Node1&#45;&gt;Node5 -->
<g id="edge4" class="edge">
<title>Node1&#45;&gt;Node5</title>
<path fill="none" stroke="midnightblue" d="M74.64,-253.01C91.12,-274.12 124.08,-312.34 161,-333 165,-335.24 169.26,-337.22 173.65,-338.97"/>
<polygon fill="midnightblue" stroke="midnightblue" points="172.81,-342.38 183.4,-342.44 175.15,-335.79 172.81,-342.38"/>
</g>
<!-- Node6 -->
<g id="node6" class="node">
<title>Node6</title>
<g id="a_node6"><a xlink:href="../../de/d79/classSQHit.html#abdbbb731442058ca5c3f1dab3fac96e3" target="_top" xlink:title="Return the TDC time (nsec) of this hit.">
<polygon fill="none" stroke="black" points="180,-304.5 180,-323.5 294,-323.5 294,-304.5 180,-304.5"/>
<text text-anchor="middle" x="237" y="-311.5" font-family="FreeSans" font-size="10.00">SQHit::get_tdc_time</text>
</a>
</g>
</g>
<!-- Node1&#45;&gt;Node6 -->
<g id="edge5" class="edge">
<title>Node1&#45;&gt;Node6</title>
<path fill="none" stroke="midnightblue" d="M85.42,-253.24C104.6,-265.97 133.6,-283.78 161,-295 166.96,-297.44 173.31,-299.63 179.7,-301.58"/>
<polygon fill="midnightblue" stroke="midnightblue" points="179.15,-305.06 189.73,-304.45 181.08,-298.33 179.15,-305.06"/>
</g>
<!-- Node7 -->
<g id="node7" class="node">
<title>Node7</title>
<g id="a_node7"><a xlink:href="../../d0/da0/classGeomSvc.html#a5a50feb4de0351f6d3d739dbc66d6247" target="_top" xlink:title="Convert the detectorID and elementID to the actual hit position.">
<polygon fill="none" stroke="black" points="161,-266.5 161,-285.5 313,-285.5 313,-266.5 161,-266.5"/>
<text text-anchor="middle" x="237" y="-273.5" font-family="FreeSans" font-size="10.00">GeomSvc::getMeasurement</text>
</a>
</g>
</g>
<!-- Node1&#45;&gt;Node7 -->
<g id="edge6" class="edge">
<title>Node1&#45;&gt;Node7</title>
<path fill="none" stroke="midnightblue" d="M125.29,-251.61C144.13,-255.76 164.67,-260.29 182.89,-264.3"/>
<polygon fill="midnightblue" stroke="midnightblue" points="182.22,-267.74 192.74,-266.47 183.73,-260.9 182.22,-267.74"/>
</g>
<!-- Node8 -->
<g id="node8" class="node">
<title>Node8</title>
<g id="a_node8"><a xlink:href="../../da/d44/classCalibParamXT.html#ae8b5ad07120bdede515234fbb97d7784" target="_top" xlink:title="Return a set of parameters for det. Return 0 if det is invalid.">
<polygon fill="none" stroke="black" points="168,-228.5 168,-247.5 306,-247.5 306,-228.5 168,-228.5"/>
<text text-anchor="middle" x="237" y="-235.5" font-family="FreeSans" font-size="10.00">CalibParamXT::GetParam</text>
</a>
</g>
</g>
<!-- Node1&#45;&gt;Node8 -->
<g id="edge7" class="edge">
<title>Node1&#45;&gt;Node8</title>
<path fill="none" stroke="midnightblue" d="M125.29,-238C135.77,-238 146.77,-238 157.6,-238"/>
<polygon fill="midnightblue" stroke="midnightblue" points="157.92,-241.5 167.92,-238 157.92,-234.5 157.92,-241.5"/>
</g>
<!-- Node9 -->
<g id="node9" class="node">
<title>Node9</title>
<g id="a_node9"><a xlink:href="../../d0/da0/classGeomSvc.html#a2b7ecf5467120206b9479654c48ad7c4" target="_top" xlink:title="singlton instance">
<polygon fill="none" stroke="black" points="182,-190.5 182,-209.5 292,-209.5 292,-190.5 182,-190.5"/>
<text text-anchor="middle" x="237" y="-197.5" font-family="FreeSans" font-size="10.00">GeomSvc::instance</text>
</a>
</g>
</g>
<!-- Node1&#45;&gt;Node9 -->
<g id="edge8" class="edge">
<title>Node1&#45;&gt;Node9</title>
<path fill="none" stroke="midnightblue" d="M125.29,-224.39C144.13,-220.24 164.67,-215.71 182.89,-211.7"/>
<polygon fill="midnightblue" stroke="midnightblue" points="183.73,-215.1 192.74,-209.53 182.22,-208.26 183.73,-215.1"/>
</g>
<!-- Node46 -->
<g id="node46" class="node">
<title>Node46</title>
<g id="a_node46"><a xlink:href="../../d0/da0/classGeomSvc.html#ac6292518dd253af06b1a71ad787ef8b0" target="_top" xlink:title="Return &quot;true&quot; for chamber planes.">
<polygon fill="none" stroke="black" points="349,-152.5 349,-171.5 471,-171.5 471,-152.5 349,-152.5"/>
<text text-anchor="middle" x="410" y="-159.5" font-family="FreeSans" font-size="10.00">GeomSvc::isChamber</text>
</a>
</g>
</g>
<!-- Node1&#45;&gt;Node46 -->
<g id="edge50" class="edge">
<title>Node1&#45;&gt;Node46</title>
<path fill="none" stroke="midnightblue" d="M83.14,-222.88C101.98,-209.29 131.8,-190.12 161,-181 219.03,-162.87 288.25,-158.94 338.79,-159.07"/>
<polygon fill="midnightblue" stroke="midnightblue" points="338.94,-162.57 348.96,-159.15 338.99,-155.57 338.94,-162.57"/>
</g>
<!-- Node47 -->
<g id="node47" class="node">
<title>Node47</title>
<g id="a_node47"><a xlink:href="../../d0/da0/classGeomSvc.html#a1dede0ab1cbe3ceee049d2efd60f76b1" target="_top" xlink:title="Return &quot;true&quot; for prop tube planes.">
<polygon fill="none" stroke="black" points="349,-114.5 349,-133.5 471,-133.5 471,-114.5 349,-114.5"/>
<text text-anchor="middle" x="410" y="-121.5" font-family="FreeSans" font-size="10.00">GeomSvc::isPropTube</text>
</a>
</g>
</g>
<!-- Node1&#45;&gt;Node47 -->
<g id="edge52" class="edge">
<title>Node1&#45;&gt;Node47</title>
<path fill="none" stroke="midnightblue" d="M76.26,-222.91C93.38,-203.8 125.76,-171.47 161,-156 217.34,-131.26 287.31,-124.11 338.55,-122.65"/>
<polygon fill="midnightblue" stroke="midnightblue" points="338.95,-126.14 348.87,-122.42 338.79,-119.14 338.95,-126.14"/>
</g>
<!-- Node48 -->
<g id="node48" class="node">
<title>Node48</title>
<g id="a_node48"><a xlink:href="../../de/d79/classSQHit.html#ac4a04a2324c69db1a38fa0b19040b361" target="_top" xlink:title=" ">
<polygon fill="none" stroke="black" points="168.5,-76.5 168.5,-95.5 305.5,-95.5 305.5,-76.5 168.5,-76.5"/>
<text text-anchor="middle" x="237" y="-83.5" font-family="FreeSans" font-size="10.00">SQHit::set_drift_distance</text>
</a>
</g>
</g>
<!-- Node1&#45;&gt;Node48 -->
<g id="edge54" class="edge">
<title>Node1&#45;&gt;Node48</title>
<path fill="none" stroke="midnightblue" d="M70.95,-222.97C84.94,-196.29 117.64,-140.61 161,-110 167.07,-105.72 173.93,-102.17 180.99,-99.24"/>
<polygon fill="midnightblue" stroke="midnightblue" points="182.53,-102.4 190.67,-95.62 180.08,-95.85 182.53,-102.4"/>
</g>
<!-- Node49 -->
<g id="node49" class="node">
<title>Node49</title>
<g id="a_node49"><a xlink:href="../../de/d79/classSQHit.html#af76759313e6258d1a2c526591ef79aa6" target="_top" xlink:title=" ">
<polygon fill="none" stroke="black" points="183.5,-38.5 183.5,-57.5 290.5,-57.5 290.5,-38.5 183.5,-38.5"/>
<text text-anchor="middle" x="237" y="-45.5" font-family="FreeSans" font-size="10.00">SQHit::set_in_time</text>
</a>
</g>
</g>
<!-- Node1&#45;&gt;Node49 -->
<g id="edge55" class="edge">
<title>Node1&#45;&gt;Node49</title>
<path fill="none" stroke="midnightblue" d="M67.65,-222.97C77.69,-189.48 106.6,-108.38 161,-67 164.94,-64.01 169.29,-61.48 173.86,-59.35"/>
<polygon fill="midnightblue" stroke="midnightblue" points="175.49,-62.47 183.49,-55.51 172.9,-55.97 175.49,-62.47"/>
</g>
<!-- Node50 -->
<g id="node50" class="node">
<title>Node50</title>
<g id="a_node50"><a xlink:href="../../de/d79/classSQHit.html#a7549b98c01465679c34eedaab71381e6" target="_top" xlink:title=" ">
<polygon fill="none" stroke="black" points="193,-0.5 193,-19.5 281,-19.5 281,-0.5 193,-0.5"/>
<text text-anchor="middle" x="237" y="-7.5" font-family="FreeSans" font-size="10.00">SQHit::set_pos</text>
</a>
</g>
</g>
<!-- Node1&#45;&gt;Node50 -->
<g id="edge56" class="edge">
<title>Node1&#45;&gt;Node50</title>
<path fill="none" stroke="midnightblue" d="M65.98,-222.93C73.16,-184.37 97.61,-81.45 161,-29 167.4,-23.7 175.09,-19.86 183.06,-17.07"/>
<polygon fill="midnightblue" stroke="midnightblue" points="184.27,-20.36 192.87,-14.17 182.29,-13.65 184.27,-20.36"/>
</g>
<!-- Node10 -->
<g id="node10" class="node">
<title>Node10</title>
<g id="a_node10"><a xlink:href="../../d0/da0/classGeomSvc.html#a96ec4efc82cbaed0b5623e4dd69385b6" target="_top" xlink:title="Initialization, either from MySQL or from ascii file.">
<polygon fill="none" stroke="black" points="367.5,-304.5 367.5,-323.5 452.5,-323.5 452.5,-304.5 367.5,-304.5"/>
<text text-anchor="middle" x="410" y="-311.5" font-family="FreeSans" font-size="10.00">GeomSvc::init</text>
</a>
</g>
</g>
<!-- Node9&#45;&gt;Node10 -->
<g id="edge9" class="edge">
<title>Node9&#45;&gt;Node10</title>
<path fill="none" stroke="midnightblue" d="M290.63,-209.51C298.4,-211.99 306.1,-215.1 313,-219 347.99,-238.76 379.16,-274.64 395.94,-296.2"/>
<polygon fill="midnightblue" stroke="midnightblue" points="393.19,-298.37 402.03,-304.22 398.77,-294.14 393.19,-298.37"/>
</g>
<!-- Node11 -->
<g id="node11" class="node">
<title>Node11</title>
<g id="a_node11"><a xlink:href="../../d0/da0/classGeomSvc.html#adbe1473f9b3a8ff942da8d7d8ee28322" target="_top" xlink:title=" ">
<polygon fill="none" stroke="black" points="521.5,-475.5 521.5,-494.5 664.5,-494.5 664.5,-475.5 521.5,-475.5"/>
<text text-anchor="middle" x="593" y="-482.5" font-family="FreeSans" font-size="10.00">GeomSvc::initPlaneDbSvc</text>
</a>
</g>
</g>
<!-- Node10&#45;&gt;Node11 -->
<g id="edge10" class="edge">
<title>Node10&#45;&gt;Node11</title>
<path fill="none" stroke="midnightblue" d="M420.38,-323.6C437.39,-340.93 474.55,-378.47 507,-409 529.3,-429.98 555.69,-453.36 573.08,-468.57"/>
<polygon fill="midnightblue" stroke="midnightblue" points="571,-471.4 580.84,-475.34 575.6,-466.13 571,-471.4"/>
</g>
<!-- Node18 -->
<g id="node18" class="node">
<title>Node18</title>
<g id="a_node18"><a xlink:href="../../d8/d14/classrecoConsts.html#aea8535068aa74d8acf1f98e938a1ff85" target="_top" xlink:title=" ">
<polygon fill="none" stroke="black" points="747,-304.5 747,-323.5 865,-323.5 865,-304.5 747,-304.5"/>
<text text-anchor="middle" x="806" y="-311.5" font-family="FreeSans" font-size="10.00">recoConsts::instance</text>
</a>
</g>
</g>
<!-- Node10&#45;&gt;Node18 -->
<g id="edge43" class="edge">
<title>Node10&#45;&gt;Node18</title>
<path fill="none" stroke="midnightblue" d="M449.98,-323.51C467.32,-327.28 488.06,-331.14 507,-333 583.08,-340.46 602.77,-338.72 679,-333 700.14,-331.42 723.1,-328.36 743.57,-325.15"/>
<polygon fill="midnightblue" stroke="midnightblue" points="744.39,-328.56 753.7,-323.51 743.27,-321.65 744.39,-328.56"/>
</g>
<!-- Node39 -->
<g id="node39" class="node">
<title>Node39</title>
<g id="a_node39"><a xlink:href="../../d0/da0/classGeomSvc.html#a0d550b9f787318d57cdae9db2d04d6fb" target="_top" xlink:title=" ">
<polygon fill="none" stroke="black" points="522.5,-190.5 522.5,-209.5 663.5,-209.5 663.5,-190.5 522.5,-190.5"/>
<text text-anchor="middle" x="593" y="-197.5" font-family="FreeSans" font-size="10.00">GeomSvc::initPlaneDirect</text>
</a>
</g>
</g>
<!-- Node10&#45;&gt;Node39 -->
<g id="edge41" class="edge">
<title>Node10&#45;&gt;Node39</title>
<path fill="none" stroke="midnightblue" d="M417.7,-304.42C431.82,-285.02 466.67,-241.03 507,-219 511.25,-216.68 515.78,-214.64 520.43,-212.84"/>
<polygon fill="midnightblue" stroke="midnightblue" points="521.82,-216.07 530.14,-209.51 519.54,-209.45 521.82,-216.07"/>
</g>
<!-- Node40 -->
<g id="node40" class="node">
<title>Node40</title>
<g id="a_node40"><a xlink:href="../../d0/da0/classGeomSvc.html#a0c78d3ac904cfbb367e96c73f176630d" target="_top" xlink:title=" ">
<polygon fill="none" stroke="black" points="530,-513.5 530,-532.5 656,-532.5 656,-513.5 530,-513.5"/>
<text text-anchor="middle" x="593" y="-520.5" font-family="FreeSans" font-size="10.00">GeomSvc::initWireLUT</text>
</a>
</g>
</g>
<!-- Node10&#45;&gt;Node40 -->
<g id="edge42" class="edge">
<title>Node10&#45;&gt;Node40</title>
<path fill="none" stroke="midnightblue" d="M412.86,-323.74C419.44,-355.29 444.59,-455.42 507,-504 511.07,-507.17 515.57,-509.83 520.3,-512.07"/>
<polygon fill="midnightblue" stroke="midnightblue" points="519.08,-515.34 529.66,-515.85 521.7,-508.86 519.08,-515.34"/>
</g>
<!-- Node41 -->
<g id="node41" class="node">
<title>Node41</title>
<g id="a_node41"><a xlink:href="../../d0/da0/classGeomSvc.html#ab6c810e39b86ce66a4be6a596b4d54b8" target="_top" xlink:title=" ">
<polygon fill="none" stroke="black" points="523,-380.5 523,-399.5 663,-399.5 663,-380.5 523,-380.5"/>
<text text-anchor="middle" x="593" y="-387.5" font-family="FreeSans" font-size="10.00">GeomSvc::loadAlignment</text>
</a>
</g>
</g>
<!-- Node10&#45;&gt;Node41 -->
<g id="edge44" class="edge">
<title>Node10&#45;&gt;Node41</title>
<path fill="none" stroke="midnightblue" d="M426.12,-323.56C444.61,-334.92 477.15,-353.87 507,-366 517.88,-370.42 529.85,-374.34 541.3,-377.67"/>
<polygon fill="midnightblue" stroke="midnightblue" points="540.6,-381.11 551.17,-380.44 542.49,-374.37 540.6,-381.11"/>
</g>
<!-- Node42 -->
<g id="node42" class="node">
<title>Node42</title>
<g id="a_node42"><a xlink:href="../../d0/da0/classGeomSvc.html#abc60088ed5985a796f5df18ae4299661" target="_top" xlink:title=" ">
<polygon fill="none" stroke="black" points="521.5,-228.5 521.5,-247.5 664.5,-247.5 664.5,-228.5 521.5,-228.5"/>
<text text-anchor="middle" x="593" y="-235.5" font-family="FreeSans" font-size="10.00">GeomSvc::loadCalibration</text>
</a>
</g>
</g>
<!-- Node10&#45;&gt;Node42 -->
<g id="edge45" class="edge">
<title>Node10&#45;&gt;Node42</title>
<path fill="none" stroke="midnightblue" d="M426.12,-304.44C444.61,-293.08 477.15,-274.13 507,-262 517.88,-257.58 529.85,-253.66 541.3,-250.33"/>
<polygon fill="midnightblue" stroke="midnightblue" points="542.49,-253.63 551.17,-247.56 540.6,-246.89 542.49,-253.63"/>
</g>
<!-- Node44 -->
<g id="node44" class="node">
<title>Node44</title>
<g id="a_node44"><a xlink:href="../../d0/da0/classGeomSvc.html#a418543d7b33fc95092b2cd4a7496f1b8" target="_top" xlink:title=" ">
<polygon fill="none" stroke="black" points="724,-266.5 724,-285.5 888,-285.5 888,-266.5 724,-266.5"/>
<text text-anchor="middle" x="806" y="-273.5" font-family="FreeSans" font-size="10.00">GeomSvc::loadMilleAlignment</text>
</a>
</g>
</g>
<!-- Node10&#45;&gt;Node44 -->
<g id="edge47" class="edge">
<title>Node10&#45;&gt;Node44</title>
<path fill="none" stroke="midnightblue" d="M452.86,-304.47C469.61,-300.98 489.14,-297.33 507,-295 576.01,-286.01 654.58,-281.23 713.71,-278.71"/>
<polygon fill="midnightblue" stroke="midnightblue" points="713.93,-282.2 723.77,-278.29 713.64,-275.21 713.93,-282.2"/>
</g>
<!-- Node45 -->
<g id="node45" class="node">
<title>Node45</title>
<g id="a_node45"><a xlink:href="../../d0/da0/classGeomSvc.html#a6234a9e4de78f5667104d23c8828b79f" target="_top" xlink:title="Load parameters used in the online&#45;alignment mode.">
<polygon fill="none" stroke="black" points="507,-304.5 507,-323.5 679,-323.5 679,-304.5 507,-304.5"/>
<text text-anchor="middle" x="593" y="-311.5" font-family="FreeSans" font-size="10.00">GeomSvc::loadOnlineAlignment</text>
</a>
</g>
</g>
<!-- Node10&#45;&gt;Node45 -->
<g id="edge48" class="edge">
<title>Node10&#45;&gt;Node45</title>
<path fill="none" stroke="midnightblue" d="M452.53,-314C465.8,-314 481.08,-314 496.55,-314"/>
<polygon fill="midnightblue" stroke="midnightblue" points="496.73,-317.5 506.73,-314 496.73,-310.5 496.73,-317.5"/>
</g>
<!-- Node12 -->
<g id="node12" class="node">
<title>Node12</title>
<g id="a_node12"><a xlink:href="../../d1/da8/classPHFlag.html#a30692a93daeb85f72aa55375d41d4d1a" target="_top" xlink:title=" ">
<polygon fill="none" stroke="black" points="755,-380.5 755,-399.5 857,-399.5 857,-380.5 755,-380.5"/>
<text text-anchor="middle" x="806" y="-387.5" font-family="FreeSans" font-size="10.00">PHFlag::FlagExist</text>
</a>
</g>
</g>
<!-- Node11&#45;&gt;Node12 -->
<g id="edge11" class="edge">
<title>Node11&#45;&gt;Node12</title>
<path fill="none" stroke="midnightblue" d="M605.93,-475.46C626.78,-459.28 671.77,-426.49 715,-409 724.33,-405.23 734.51,-402.16 744.57,-399.68"/>
<polygon fill="midnightblue" stroke="midnightblue" points="745.59,-403.04 754.55,-397.39 744.02,-396.22 745.59,-403.04"/>
</g>
<!-- Node13 -->
<g id="node13" class="node">
<title>Node13</title>
<g id="a_node13"><a xlink:href="../../d1/da8/classPHFlag.html#a90dd6fab732973226112ede509be5743" target="_top" xlink:title=" ">
<polygon fill="none" stroke="black" points="745,-342.5 745,-361.5 867,-361.5 867,-342.5 745,-342.5"/>
<text text-anchor="middle" x="806" y="-349.5" font-family="FreeSans" font-size="10.00">PHFlag::get_CharFlag</text>
</a>
</g>
</g>
<!-- Node11&#45;&gt;Node13 -->
<g id="edge12" class="edge">
<title>Node11&#45;&gt;Node13</title>
<path fill="none" stroke="midnightblue" d="M605.27,-475.45C621.8,-461.32 653.44,-433.83 679,-409 695.69,-392.79 694.7,-382.36 715,-371 721.23,-367.51 728.02,-364.67 735,-362.34"/>
<polygon fill="midnightblue" stroke="midnightblue" points="736,-365.69 744.59,-359.48 734,-358.99 736,-365.69"/>
</g>
<!-- Node14 -->
<g id="node14" class="node">
<title>Node14</title>
<g id="a_node14"><a xlink:href="../../d1/da8/classPHFlag.html#a9002aa5e5ee1ef0e76d65201d6056adf" target="_top" xlink:title=" ">
<polygon fill="none" stroke="black" points="750,-722.5 750,-741.5 862,-741.5 862,-722.5 750,-722.5"/>
<text text-anchor="middle" x="806" y="-729.5" font-family="FreeSans" font-size="10.00">PHFlag::get_IntFlag</text>
</a>
</g>
</g>
<!-- Node11&#45;&gt;Node14 -->
<g id="edge13" class="edge">
<title>Node11&#45;&gt;Node14</title>
<path fill="none" stroke="midnightblue" d="M664.52,-493.4C669.89,-496.14 674.83,-499.62 679,-504 743.99,-572.27 649.61,-645.11 715,-713 721.82,-720.09 730.58,-724.86 739.93,-728.03"/>
<polygon fill="midnightblue" stroke="midnightblue" points="739.27,-731.48 749.84,-730.78 741.14,-724.73 739.27,-731.48"/>
</g>
<!-- Node15 -->
<g id="node15" class="node">
<title>Node15</title>
<g id="a_node15"><a xlink:href="../../db/d8a/classRunParamBase.html#ac014950f30700976f97c094cd54feb27" target="_top" xlink:title=" ">
<polygon fill="none" stroke="black" points="733.5,-684.5 733.5,-703.5 878.5,-703.5 878.5,-684.5 733.5,-684.5"/>
<text text-anchor="middle" x="806" y="-691.5" font-family="FreeSans" font-size="10.00">RunParamBase::GetMapID</text>
</a>
</g>
</g>
<!-- Node11&#45;&gt;Node15 -->
<g id="edge14" class="edge">
<title>Node11&#45;&gt;Node15</title>
<path fill="none" stroke="midnightblue" d="M664.75,-493.77C670,-496.45 674.86,-499.8 679,-504 733.58,-559.26 660.1,-620.07 715,-675 717.76,-677.76 720.81,-680.17 724.08,-682.26"/>
<polygon fill="midnightblue" stroke="midnightblue" points="722.69,-685.49 733.16,-687.11 725.98,-679.31 722.69,-685.49"/>
</g>
<!-- Node16 -->
<g id="node16" class="node">
<title>Node16</title>
<g id="a_node16"><a xlink:href="../../d1/d3b/classGeomParamPlane.html#a692de0076f1dbe125d7ba8cfc013b2bd" target="_top" xlink:title=" ">
<polygon fill="none" stroke="black" points="715,-646.5 715,-665.5 897,-665.5 897,-646.5 715,-646.5"/>
<text text-anchor="middle" x="806" y="-653.5" font-family="FreeSans" font-size="10.00">GeomParamPlane::GetNumPlanes</text>
</a>
</g>
</g>
<!-- Node11&#45;&gt;Node16 -->
<g id="edge15" class="edge">
<title>Node11&#45;&gt;Node16</title>
<path fill="none" stroke="midnightblue" d="M664.9,-494.23C670.06,-496.82 674.85,-500.03 679,-504 723.25,-546.33 670.5,-594.93 715,-637 716.48,-638.4 718.04,-639.71 719.66,-640.93"/>
<polygon fill="midnightblue" stroke="midnightblue" points="717.92,-643.97 728.24,-646.33 721.64,-638.04 717.92,-643.97"/>
</g>
<!-- Node17 -->
<g id="node17" class="node">
<title>Node17</title>
<g id="a_node17"><a xlink:href="../../d1/d3b/classGeomParamPlane.html#a8c176df7c57af3b0e4f35edee8ee0898" target="_top" xlink:title=" ">
<polygon fill="none" stroke="black" points="729,-608.5 729,-627.5 883,-627.5 883,-608.5 729,-608.5"/>
<text text-anchor="middle" x="806" y="-615.5" font-family="FreeSans" font-size="10.00">GeomParamPlane::GetPlane</text>
</a>
</g>
</g>
<!-- Node11&#45;&gt;Node17 -->
<g id="edge16" class="edge">
<title>Node11&#45;&gt;Node17</title>
<path fill="none" stroke="midnightblue" d="M664,-494.57C669.41,-497.08 674.51,-500.18 679,-504 711.81,-531.92 682.77,-565.42 715,-594 719.57,-598.06 724.76,-601.44 730.27,-604.25"/>
<polygon fill="midnightblue" stroke="midnightblue" points="729.26,-607.63 739.82,-608.48 732.09,-601.23 729.26,-607.63"/>
</g>
<!-- Node11&#45;&gt;Node18 -->
<g id="edge17" class="edge">
<title>Node11&#45;&gt;Node18</title>
<path fill="none" stroke="midnightblue" d="M607.92,-475.32C626.16,-462.07 658.26,-436.75 679,-409 701.37,-379.06 685.66,-356.16 715,-333 721.51,-327.86 729.07,-324.03 737,-321.18"/>
<polygon fill="midnightblue" stroke="midnightblue" points="738.27,-324.45 746.81,-318.17 736.22,-317.76 738.27,-324.45"/>
</g>
<!-- Node22 -->
<g id="node22" class="node">
<title>Node22</title>
<g id="a_node22"><a xlink:href="../../d8/d14/classrecoConsts.html#aec7c7c885b190f7dbb57ac99af4587e6" target="_top" xlink:title="overide the virtual function to expand the environmental variables">
<polygon fill="none" stroke="black" points="1158,-418.5 1158,-437.5 1298,-437.5 1298,-418.5 1158,-418.5"/>
<text text-anchor="middle" x="1228" y="-425.5" font-family="FreeSans" font-size="10.00">recoConsts::set_CharFlag</text>
</a>
</g>
</g>
<!-- Node11&#45;&gt;Node22 -->
<g id="edge31" class="edge">
<title>Node11&#45;&gt;Node22</title>
<path fill="none" stroke="midnightblue" d="M664.77,-478.63C783.7,-467.92 1022.83,-446.39 1147.42,-435.17"/>
<polygon fill="midnightblue" stroke="midnightblue" points="1148,-438.63 1157.65,-434.25 1147.37,-431.66 1148,-438.63"/>
</g>
<!-- Node26 -->
<g id="node26" class="node">
<title>Node26</title>
<g id="a_node26"><a xlink:href="../../db/d8a/classRunParamBase.html#a1a747ac4d6e1c3665d66f9a1d5118f32" target="_top" xlink:title=" ">
<polygon fill="none" stroke="black" points="939.5,-608.5 939.5,-627.5 1099.5,-627.5 1099.5,-608.5 939.5,-608.5"/>
<text text-anchor="middle" x="1019.5" y="-615.5" font-family="FreeSans" font-size="10.00">RunParamBase::ReadFromDB</text>
</a>
</g>
</g>
<!-- Node11&#45;&gt;Node26 -->
<g id="edge25" class="edge">
<title>Node11&#45;&gt;Node26</title>
<path fill="none" stroke="midnightblue" d="M661.14,-494.63C667.48,-497.09 673.56,-500.17 679,-504 703.5,-521.26 690.21,-544.17 715,-561 724.77,-567.64 864.98,-592.16 951.37,-606.79"/>
<polygon fill="midnightblue" stroke="midnightblue" points="950.92,-610.26 961.36,-608.48 952.08,-603.36 950.92,-610.26"/>
</g>
<!-- Node32 -->
<g id="node32" class="node">
<title>Node32</title>
<g id="a_node32"><a xlink:href="../../db/d8a/classRunParamBase.html#a0db5424bf8320bf32d14563a6ad8d28e" target="_top" xlink:title=" ">
<polygon fill="none" stroke="black" points="734.5,-494.5 734.5,-513.5 877.5,-513.5 877.5,-494.5 734.5,-494.5"/>
<text text-anchor="middle" x="806" y="-501.5" font-family="FreeSans" font-size="10.00">RunParamBase::SetMapID</text>
</a>
</g>
</g>
<!-- Node11&#45;&gt;Node32 -->
<g id="edge32" class="edge">
<title>Node11&#45;&gt;Node32</title>
<path fill="none" stroke="midnightblue" d="M664.55,-491.35C683.63,-493.07 704.43,-494.94 724.03,-496.71"/>
<polygon fill="midnightblue" stroke="midnightblue" points="723.88,-500.21 734.15,-497.62 724.51,-493.24 723.88,-500.21"/>
</g>
<!-- Node33 -->
<g id="node33" class="node">
<title>Node33</title>
<g id="a_node33"><a xlink:href="../../db/d8a/classRunParamBase.html#a9b35f11ddb755a62b5d25f7773e0f1ce" target="_top" xlink:title=" ">
<polygon fill="none" stroke="black" points="721,-532.5 721,-551.5 891,-551.5 891,-532.5 721,-532.5"/>
<text text-anchor="middle" x="806" y="-539.5" font-family="FreeSans" font-size="10.00">RunParamBase::SetMapIDbyDB</text>
</a>
</g>
</g>
<!-- Node11&#45;&gt;Node33 -->
<g id="edge33" class="edge">
<title>Node11&#45;&gt;Node33</title>
<path fill="none" stroke="midnightblue" d="M646.78,-494.51C657.59,-497.09 668.78,-500.24 679,-504 695.98,-510.25 697.99,-516.85 715,-523 722.29,-525.63 730.04,-527.95 737.83,-529.98"/>
<polygon fill="midnightblue" stroke="midnightblue" points="737.13,-533.41 747.68,-532.39 738.8,-526.61 737.13,-533.41"/>
</g>
<!-- Node38 -->
<g id="node38" class="node">
<title>Node38</title>
<g id="a_node38"><a xlink:href="../../d0/da0/classGeomSvc.html#a315e886f05db8254ed7d320706e268e6" target="_top" xlink:title="Convert the official detectorName to local detectorName.">
<polygon fill="none" stroke="black" points="718,-418.5 718,-437.5 894,-437.5 894,-418.5 718,-418.5"/>
<text text-anchor="middle" x="806" y="-425.5" font-family="FreeSans" font-size="10.00">GeomSvc::toLocalDetectorName</text>
</a>
</g>
</g>
<!-- Node11&#45;&gt;Node38 -->
<g id="edge40" class="edge">
<title>Node11&#45;&gt;Node38</title>
<path fill="none" stroke="midnightblue" d="M628.67,-475.49C652.86,-468.87 685.88,-459.85 715,-452 729.32,-448.14 744.94,-443.96 759.08,-440.19"/>
<polygon fill="midnightblue" stroke="midnightblue" points="760.31,-443.49 769.08,-437.53 758.51,-436.72 760.31,-443.49"/>
</g>
<!-- Node19 -->
<g id="node19" class="node">
<title>Node19</title>
<g id="a_node19"><a xlink:href="../../d8/d14/classrecoConsts.html#ae882d6adc62f783ec78114fe3dee3c24" target="_top" xlink:title=" ">
<polygon fill="none" stroke="black" points="954,-342.5 954,-361.5 1085,-361.5 1085,-342.5 954,-342.5"/>
<text text-anchor="middle" x="1019.5" y="-349.5" font-family="FreeSans" font-size="10.00">recoConsts::recoConsts</text>
</a>
</g>
</g>
<!-- Node18&#45;&gt;Node19 -->
<g id="edge18" class="edge">
<title>Node18&#45;&gt;Node19</title>
<path fill="none" stroke="midnightblue" d="M860.1,-323.54C889.01,-328.73 924.97,-335.2 955.32,-340.65"/>
<polygon fill="midnightblue" stroke="midnightblue" points="954.92,-344.13 965.38,-342.46 956.16,-337.24 954.92,-344.13"/>
</g>
<!-- Node20 -->
<g id="node20" class="node">
<title>Node20</title>
<g id="a_node20"><a xlink:href="../../d8/d14/classrecoConsts.html#a864b1da9614924988d09542c268c42dc" target="_top" xlink:title="set the default value for all the constants needed &#45; user is supposed to add a default value here to ...">
<polygon fill="none" stroke="black" points="951,-304.5 951,-323.5 1088,-323.5 1088,-304.5 951,-304.5"/>
<text text-anchor="middle" x="1019.5" y="-311.5" font-family="FreeSans" font-size="10.00">recoConsts::set_defaults</text>
</a>
</g>
</g>
<!-- Node18&#45;&gt;Node20 -->
<g id="edge19" class="edge">
<title>Node18&#45;&gt;Node20</title>
<path fill="none" stroke="midnightblue" d="M865.07,-314C888.4,-314 915.63,-314 940.63,-314"/>
<polygon fill="midnightblue" stroke="midnightblue" points="940.82,-317.5 950.82,-314 940.82,-310.5 940.82,-317.5"/>
</g>
<!-- Node21 -->
<g id="node21" class="node">
<title>Node21</title>
<g id="a_node21"><a xlink:href="../../d1/da8/classPHFlag.html#a5aaf1fedd8907f4b2b0c9535a4491f42" target="_top" xlink:title=" ">
<polygon fill="none" stroke="black" points="1168,-266.5 1168,-285.5 1288,-285.5 1288,-266.5 1168,-266.5"/>
<text text-anchor="middle" x="1228" y="-273.5" font-family="FreeSans" font-size="10.00">PHFlag::set_BoolFlag</text>
</a>
</g>
</g>
<!-- Node20&#45;&gt;Node21 -->
<g id="edge20" class="edge">
<title>Node20&#45;&gt;Node21</title>
<path fill="none" stroke="midnightblue" d="M1072.34,-304.46C1100.45,-299.29 1135.38,-292.86 1164.93,-287.42"/>
<polygon fill="midnightblue" stroke="midnightblue" points="1165.94,-290.8 1175.14,-285.54 1164.67,-283.91 1165.94,-290.8"/>
</g>
<!-- Node20&#45;&gt;Node22 -->
<g id="edge21" class="edge">
<title>Node20&#45;&gt;Node22</title>
<path fill="none" stroke="midnightblue" d="M1083.74,-323.54C1091.51,-326 1099.12,-329.1 1106,-333 1126.24,-344.47 1124.23,-355.98 1142,-371 1160.78,-386.87 1184.09,-402.24 1201.55,-413.01"/>
<polygon fill="midnightblue" stroke="midnightblue" points="1200.22,-416.29 1210.58,-418.49 1203.85,-410.31 1200.22,-416.29"/>
</g>
<!-- Node24 -->
<g id="node24" class="node">
<title>Node24</title>
<g id="a_node24"><a xlink:href="../../d1/da8/classPHFlag.html#a64f8c67e9313e5cecdbed51f747026da" target="_top" xlink:title=" ">
<polygon fill="none" stroke="black" points="1161.5,-342.5 1161.5,-361.5 1294.5,-361.5 1294.5,-342.5 1161.5,-342.5"/>
<text text-anchor="middle" x="1228" y="-349.5" font-family="FreeSans" font-size="10.00">PHFlag::set_DoubleFlag</text>
</a>
</g>
</g>
<!-- Node20&#45;&gt;Node24 -->
<g id="edge23" class="edge">
<title>Node20&#45;&gt;Node24</title>
<path fill="none" stroke="midnightblue" d="M1072.34,-323.54C1100.45,-328.71 1135.38,-335.14 1164.93,-340.58"/>
<polygon fill="midnightblue" stroke="midnightblue" points="1164.67,-344.09 1175.14,-342.46 1165.94,-337.2 1164.67,-344.09"/>
</g>
<!-- Node25 -->
<g id="node25" class="node">
<title>Node25</title>
<g id="a_node25"><a xlink:href="../../d1/da8/classPHFlag.html#a3ef5c3f1eff2daaaf18e5129858a9ef8" target="_top" xlink:title=" ">
<polygon fill="none" stroke="black" points="1172.5,-304.5 1172.5,-323.5 1283.5,-323.5 1283.5,-304.5 1172.5,-304.5"/>
<text text-anchor="middle" x="1228" y="-311.5" font-family="FreeSans" font-size="10.00">PHFlag::set_IntFlag</text>
</a>
</g>
</g>
<!-- Node20&#45;&gt;Node25 -->
<g id="edge24" class="edge">
<title>Node20&#45;&gt;Node25</title>
<path fill="none" stroke="midnightblue" d="M1088.12,-314C1111.89,-314 1138.53,-314 1162.08,-314"/>
<polygon fill="midnightblue" stroke="midnightblue" points="1162.31,-317.5 1172.31,-314 1162.31,-310.5 1162.31,-317.5"/>
</g>
<!-- Node23 -->
<g id="node23" class="node">
<title>Node23</title>
<g id="a_node23"><a xlink:href="../../d8/d14/classrecoConsts.html#ad45c452d9a71b5410c472614d72442ec" target="_top" xlink:title=" ">
<polygon fill="none" stroke="black" points="1350,-418.5 1350,-437.5 1539,-437.5 1539,-418.5 1350,-418.5"/>
<text text-anchor="middle" x="1444.5" y="-425.5" font-family="FreeSans" font-size="10.00">recoConsts::ExpandEnvironmentals</text>
</a>
</g>
</g>
<!-- Node22&#45;&gt;Node23 -->
<g id="edge22" class="edge">
<title>Node22&#45;&gt;Node23</title>
<path fill="none" stroke="midnightblue" d="M1298.05,-428C1311.35,-428 1325.56,-428 1339.69,-428"/>
<polygon fill="midnightblue" stroke="midnightblue" points="1339.95,-431.5 1349.95,-428 1339.95,-424.5 1339.95,-431.5"/>
</g>
<!-- Node27 -->
<g id="node27" class="node">
<title>Node27</title>
<g id="a_node27"><a xlink:href="../../d2/da4/classDbSvc.html#af7e30673551b9cbc6d0ad9e37e4ec35b" target="_top" xlink:title=" ">
<polygon fill="none" stroke="black" points="1179,-570.5 1179,-589.5 1277,-589.5 1277,-570.5 1179,-570.5"/>
<text text-anchor="middle" x="1228" y="-577.5" font-family="FreeSans" font-size="10.00">DbSvc::HasTable</text>
</a>
</g>
</g>
<!-- Node26&#45;&gt;Node27 -->
<g id="edge26" class="edge">
<title>Node26&#45;&gt;Node27</title>
<path fill="none" stroke="midnightblue" d="M1072.34,-608.46C1101.65,-603.07 1138.37,-596.31 1168.67,-590.73"/>
<polygon fill="midnightblue" stroke="midnightblue" points="1169.48,-594.14 1178.68,-588.89 1168.21,-587.26 1169.48,-594.14"/>
</g>
<!-- Node28 -->
<g id="node28" class="node">
<title>Node28</title>
<g id="a_node28"><a xlink:href="../../db/d8a/classRunParamBase.html#ad9f709752d29d2a439deafc2663e78e4" target="_top" xlink:title=" ">
<polygon fill="none" stroke="black" points="1142,-684.5 1142,-703.5 1314,-703.5 1314,-684.5 1142,-684.5"/>
<text text-anchor="middle" x="1228" y="-691.5" font-family="FreeSans" font-size="10.00">RunParamBase::MapTableName</text>
</a>
</g>
</g>
<!-- Node26&#45;&gt;Node28 -->
<g id="edge27" class="edge">
<title>Node26&#45;&gt;Node28</title>
<path fill="none" stroke="midnightblue" d="M1037.71,-627.55C1060.81,-640.02 1103.42,-661.81 1142,-675 1149.63,-677.61 1157.77,-679.95 1165.87,-682.03"/>
<polygon fill="midnightblue" stroke="midnightblue" points="1165.16,-685.46 1175.71,-684.44 1166.82,-678.66 1165.16,-685.46"/>
</g>
<!-- Node29 -->
<g id="node29" class="node">
<title>Node29</title>
<g id="a_node29"><a xlink:href="../../db/d8a/classRunParamBase.html#abad1d51250d48280d4a72a64d6f57866" target="_top" xlink:title=" ">
<polygon fill="none" stroke="black" points="1148,-646.5 1148,-665.5 1308,-665.5 1308,-646.5 1148,-646.5"/>
<text text-anchor="middle" x="1228" y="-653.5" font-family="FreeSans" font-size="10.00">RunParamBase::ReadDbTable</text>
</a>
</g>
</g>
<!-- Node26&#45;&gt;Node29 -->
<g id="edge28" class="edge">
<title>Node26&#45;&gt;Node29</title>
<path fill="none" stroke="midnightblue" d="M1072.34,-627.54C1100.45,-632.71 1135.38,-639.14 1164.93,-644.58"/>
<polygon fill="midnightblue" stroke="midnightblue" points="1164.67,-648.09 1175.14,-646.46 1165.94,-641.2 1164.67,-648.09"/>
</g>
<!-- Node30 -->
<g id="node30" class="node">
<title>Node30</title>
<g id="a_node30"><a xlink:href="../../db/d8a/classRunParamBase.html#aa5d08eb3156c795dd3d09085a90d8629" target="_top" xlink:title=" ">
<polygon fill="none" stroke="black" points="1146,-608.5 1146,-627.5 1310,-627.5 1310,-608.5 1146,-608.5"/>
<text text-anchor="middle" x="1228" y="-615.5" font-family="FreeSans" font-size="10.00">RunParamBase::SchemaName</text>
</a>
</g>
</g>
<!-- Node26&#45;&gt;Node30 -->
<g id="edge29" class="edge">
<title>Node26&#45;&gt;Node30</title>
<path fill="none" stroke="midnightblue" d="M1099.75,-618C1111.57,-618 1123.83,-618 1135.87,-618"/>
<polygon fill="midnightblue" stroke="midnightblue" points="1135.91,-621.5 1145.91,-618 1135.91,-614.5 1135.91,-621.5"/>
</g>
<!-- Node31 -->
<g id="node31" class="node">
<title>Node31</title>
<g id="a_node31"><a xlink:href="../../d2/da4/classDbSvc.html#a7e4cc05e20e0a21eef9c185c34c51044" target="_top" xlink:title=" ">
<polygon fill="none" stroke="black" points="1172.5,-532.5 1172.5,-551.5 1283.5,-551.5 1283.5,-532.5 1172.5,-532.5"/>
<text text-anchor="middle" x="1228" y="-539.5" font-family="FreeSans" font-size="10.00">DbSvc::UseSchema</text>
</a>
</g>
</g>
<!-- Node26&#45;&gt;Node31 -->
<g id="edge30" class="edge">
<title>Node26&#45;&gt;Node31</title>
<path fill="none" stroke="midnightblue" d="M1083.74,-608.46C1091.51,-606 1099.12,-602.9 1106,-599 1126.24,-587.53 1121.77,-572.48 1142,-561 1148.33,-557.41 1155.28,-554.5 1162.4,-552.13"/>
<polygon fill="midnightblue" stroke="midnightblue" points="1163.57,-555.44 1172.17,-549.24 1161.59,-548.72 1163.57,-555.44"/>
</g>
<!-- Node34 -->
<g id="node34" class="node">
<title>Node34</title>
<g id="a_node34"><a xlink:href="../../d0/d0d/classParamRunRange.html#a6a2dad9dc6c5fe19ef4e07109f2de6c6" target="_top" xlink:title=" ">
<polygon fill="none" stroke="black" points="958,-494.5 958,-513.5 1081,-513.5 1081,-494.5 958,-494.5"/>
<text text-anchor="middle" x="1019.5" y="-501.5" font-family="FreeSans" font-size="10.00">ParamRunRange::Find</text>
</a>
</g>
</g>
<!-- Node33&#45;&gt;Node34 -->
<g id="edge34" class="edge">
<title>Node33&#45;&gt;Node34</title>
<path fill="none" stroke="midnightblue" d="M860.1,-532.46C889.01,-527.27 924.97,-520.8 955.32,-515.35"/>
<polygon fill="midnightblue" stroke="midnightblue" points="956.16,-518.76 965.38,-513.54 954.92,-511.87 956.16,-518.76"/>
</g>
<!-- Node35 -->
<g id="node35" class="node">
<title>Node35</title>
<g id="a_node35"><a xlink:href="../../db/d8a/classRunParamBase.html#aebc390d29c3083e39a226cce4293ac63" target="_top" xlink:title=" ">
<polygon fill="none" stroke="black" points="933,-570.5 933,-589.5 1106,-589.5 1106,-570.5 933,-570.5"/>
<text text-anchor="middle" x="1019.5" y="-577.5" font-family="FreeSans" font-size="10.00">RunParamBase::RangeFileName</text>
</a>
</g>
</g>
<!-- Node33&#45;&gt;Node35 -->
<g id="edge35" class="edge">
<title>Node33&#45;&gt;Node35</title>
<path fill="none" stroke="midnightblue" d="M860.1,-551.54C889.01,-556.73 924.97,-563.2 955.32,-568.65"/>
<polygon fill="midnightblue" stroke="midnightblue" points="954.92,-572.13 965.38,-570.46 956.16,-565.24 954.92,-572.13"/>
</g>
<!-- Node36 -->
<g id="node36" class="node">
<title>Node36</title>
<g id="a_node36"><a xlink:href="../../d0/d0d/classParamRunRange.html#a2ed6cb68949441b6a3a929fddd6c3910" target="_top" xlink:title=" ">
<polygon fill="none" stroke="black" points="936,-532.5 936,-551.5 1103,-551.5 1103,-532.5 936,-532.5"/>
<text text-anchor="middle" x="1019.5" y="-539.5" font-family="FreeSans" font-size="10.00">ParamRunRange::ReadFromDB</text>
</a>
</g>
</g>
<!-- Node33&#45;&gt;Node36 -->
<g id="edge36" class="edge">
<title>Node33&#45;&gt;Node36</title>
<path fill="none" stroke="midnightblue" d="M891.2,-542C902.6,-542 914.36,-542 925.9,-542"/>
<polygon fill="midnightblue" stroke="midnightblue" points="925.97,-545.5 935.97,-542 925.97,-538.5 925.97,-545.5"/>
</g>
<!-- Node36&#45;&gt;Node27 -->
<g id="edge37" class="edge">
<title>Node36&#45;&gt;Node27</title>
<path fill="none" stroke="midnightblue" d="M1072.34,-551.54C1101.65,-556.93 1138.37,-563.69 1168.67,-569.27"/>
<polygon fill="midnightblue" stroke="midnightblue" points="1168.21,-572.74 1178.68,-571.11 1169.48,-565.86 1168.21,-572.74"/>
</g>
<!-- Node36&#45;&gt;Node31 -->
<g id="edge39" class="edge">
<title>Node36&#45;&gt;Node31</title>
<path fill="none" stroke="midnightblue" d="M1103,-542C1122.72,-542 1143.49,-542 1162.27,-542"/>
<polygon fill="midnightblue" stroke="midnightblue" points="1162.48,-545.5 1172.48,-542 1162.48,-538.5 1162.48,-545.5"/>
</g>
<!-- Node37 -->
<g id="node37" class="node">
<title>Node37</title>
<g id="a_node37"><a xlink:href="../../d2/da4/classDbSvc.html#a5a73427afe9c0bd72d41b45e211ae187" target="_top" xlink:title=" ">
<polygon fill="none" stroke="black" points="1182.5,-494.5 1182.5,-513.5 1273.5,-513.5 1273.5,-494.5 1182.5,-494.5"/>
<text text-anchor="middle" x="1228" y="-501.5" font-family="FreeSans" font-size="10.00">DbSvc::Process</text>
</a>
</g>
</g>
<!-- Node36&#45;&gt;Node37 -->
<g id="edge38" class="edge">
<title>Node36&#45;&gt;Node37</title>
<path fill="none" stroke="midnightblue" d="M1072.34,-532.46C1102.83,-526.85 1141.34,-519.76 1172.3,-514.07"/>
<polygon fill="midnightblue" stroke="midnightblue" points="1173.29,-517.44 1182.49,-512.19 1172.02,-510.56 1173.29,-517.44"/>
</g>
<!-- Node43 -->
<g id="node43" class="node">
<title>Node43</title>
<g id="a_node43"><a xlink:href="../../d0/da0/classGeomSvc.html#ac4edd9b5679db2ac9b6f6bea59929447" target="_top" xlink:title=" ">
<polygon fill="none" stroke="black" points="728,-152.5 728,-171.5 884,-171.5 884,-152.5 728,-152.5"/>
<text text-anchor="middle" x="806" y="-159.5" font-family="FreeSans" font-size="10.00">GeomSvc::getDetectorName</text>
</a>
</g>
</g>
<!-- Node42&#45;&gt;Node43 -->
<g id="edge46" class="edge">
<title>Node42&#45;&gt;Node43</title>
<path fill="none" stroke="midnightblue" d="M644.81,-228.43C656.18,-225.79 668.1,-222.64 679,-219 714.34,-207.2 753.13,-188.76 778.21,-176.07"/>
<polygon fill="midnightblue" stroke="midnightblue" points="779.8,-179.18 787.11,-171.51 776.61,-172.95 779.8,-179.18"/>
</g>
<!-- Node45&#45;&gt;Node44 -->
<g id="edge49" class="edge">
<title>Node45&#45;&gt;Node44</title>
<path fill="none" stroke="midnightblue" d="M646.97,-304.46C675.82,-299.27 711.7,-292.8 741.97,-287.35"/>
<polygon fill="midnightblue" stroke="midnightblue" points="742.79,-290.76 752.01,-285.54 741.54,-283.87 742.79,-290.76"/>
</g>
<!-- Node46&#45;&gt;Node43 -->
<g id="edge51" class="edge">
<title>Node46&#45;&gt;Node43</title>
<path fill="none" stroke="midnightblue" d="M471.27,-162C536.95,-162 642.63,-162 717.46,-162"/>
<polygon fill="midnightblue" stroke="midnightblue" points="717.8,-165.5 727.8,-162 717.8,-158.5 717.8,-165.5"/>
</g>
<!-- Node47&#45;&gt;Node43 -->
<g id="edge53" class="edge">
<title>Node47&#45;&gt;Node43</title>
<path fill="none" stroke="midnightblue" d="M471.27,-129.81C536.95,-136.15 642.63,-146.34 717.46,-153.56"/>
<polygon fill="midnightblue" stroke="midnightblue" points="717.51,-157.08 727.8,-154.55 718.18,-150.11 717.51,-157.08"/>
</g>
</g>
</svg>
