<?xml version="1.0" encoding="UTF-8" standalone="no"?>
<!DOCTYPE svg PUBLIC "-//W3C//DTD SVG 1.1//EN"
 "http://www.w3.org/Graphics/SVG/1.1/DTD/svg11.dtd">
<!-- Generated by graphviz version 2.44.0 (0)
 -->
<!-- Title: PHG4Hitv1::get_property_uint Pages: 1 -->
<svg width="328pt" height="104pt"
 viewBox="0.00 0.00 328.00 104.00" xmlns="http://www.w3.org/2000/svg" xmlns:xlink="http://www.w3.org/1999/xlink">
<g id="graph0" class="graph" transform="scale(1 1) rotate(0) translate(4 100)">
<title>PHG4Hitv1::get_property_uint</title>
<!-- Node1 -->
<g id="node1" class="node">
<title>Node1</title>
<g id="a_node1"><a xlink:title=" ">
<polygon fill="#bfbfbf" stroke="black" points="158,-38.5 158,-57.5 320,-57.5 320,-38.5 158,-38.5"/>
<text text-anchor="middle" x="239" y="-45.5" font-family="FreeSans" font-size="10.00">PHG4Hitv1::get_property_uint</text>
</a>
</g>
</g>
<!-- Node2 -->
<g id="node2" class="node">
<title>Node2</title>
<g id="a_node2"><a xlink:href="../../d9/d35/classPHG4Hitv1.html#a74c828453099339427dbcedb6810a49f" target="_top" xlink:title=" ">
<polygon fill="none" stroke="black" points="0,-76.5 0,-95.5 122,-95.5 122,-76.5 0,-76.5"/>
<text text-anchor="middle" x="61" y="-83.5" font-family="FreeSans" font-size="10.00">PHG4Hitv1::get_layer</text>
</a>
</g>
</g>
<!-- Node1&#45;&gt;Node2 -->
<g id="edge1" class="edge">
<title>Node1&#45;&gt;Node2</title>
<path fill="none" stroke="midnightblue" d="M183.57,-59.75C158.68,-65.13 129.58,-71.41 106.09,-76.48"/>
<polygon fill="midnightblue" stroke="midnightblue" points="184.55,-63.12 193.59,-57.59 183.07,-56.28 184.55,-63.12"/>
</g>
<!-- Node3 -->
<g id="node3" class="node">
<title>Node3</title>
<g id="a_node3"><a xlink:href="../../d9/d35/classPHG4Hitv1.html#ab8f97dd68f6ee6b0606b3c550d8b8bf1" target="_top" xlink:title=" ">
<polygon fill="none" stroke="black" points="4.5,-38.5 4.5,-57.5 117.5,-57.5 117.5,-38.5 4.5,-38.5"/>
<text text-anchor="middle" x="61" y="-45.5" font-family="FreeSans" font-size="10.00">PHG4Hitv1::identify</text>
</a>
</g>
</g>
<!-- Node1&#45;&gt;Node3 -->
<g id="edge2" class="edge">
<title>Node1&#45;&gt;Node3</title>
<path fill="none" stroke="midnightblue" d="M147.74,-48C137.49,-48 127.28,-48 117.67,-48"/>
<polygon fill="midnightblue" stroke="midnightblue" points="147.98,-51.5 157.98,-48 147.98,-44.5 147.98,-51.5"/>
</g>
<!-- Node4 -->
<g id="node4" class="node">
<title>Node4</title>
<g id="a_node4"><a xlink:href="../../d9/d35/classPHG4Hitv1.html#ac0fc30676a75ef1b8d1592dcf128180a" target="_top" xlink:title=" ">
<polygon fill="none" stroke="black" points="12,-0.5 12,-19.5 110,-19.5 110,-0.5 12,-0.5"/>
<text text-anchor="middle" x="61" y="-7.5" font-family="FreeSans" font-size="10.00">PHG4Hitv1::print</text>
</a>
</g>
</g>
<!-- Node1&#45;&gt;Node4 -->
<g id="edge3" class="edge">
<title>Node1&#45;&gt;Node4</title>
<path fill="none" stroke="midnightblue" d="M183.57,-36.25C158.68,-30.87 129.58,-24.59 106.09,-19.52"/>
<polygon fill="midnightblue" stroke="midnightblue" points="183.07,-39.72 193.59,-38.41 184.55,-32.88 183.07,-39.72"/>
</g>
</g>
</svg>
