<?xml version="1.0" encoding="UTF-8" standalone="no"?>
<!DOCTYPE svg PUBLIC "-//W3C//DTD SVG 1.1//EN"
 "http://www.w3.org/Graphics/SVG/1.1/DTD/svg11.dtd">
<!-- Generated by graphviz version 2.30.1 (20200930.0103)
 -->
<!-- Title: EventReducer::processCluster Pages: 1 -->
<svg width="828pt" height="77pt"
 viewBox="0.00 0.00 828.00 77.00" xmlns="http://www.w3.org/2000/svg" xmlns:xlink="http://www.w3.org/1999/xlink">
<g id="graph0" class="graph" transform="scale(1 1) rotate(0) translate(4 73)">
<title>EventReducer::processCluster</title>
<!-- Node1 -->
<g id="node1" class="node"><title>Node1</title>
<polygon fill="#bfbfbf" stroke="black" points="0,-27.5 0,-46.5 144,-46.5 144,-27.5 0,-27.5"/>
<text text-anchor="middle" x="72" y="-34.5" font-family="FreeSans" font-size="10.00">EventReducer::processCluster</text>
</g>
<!-- Node2 -->
<g id="node2" class="node"><title>Node2</title>
<g id="a_node2"><a xlink:href="../../d5/dda/classEventReducer.html#a6aa4f5546837d8b2e47367b131332e7e" target="_top" xlink:title="EventReducer::deClusterize">
<polygon fill="none" stroke="black" points="180,-27.5 180,-46.5 314,-46.5 314,-27.5 180,-27.5"/>
<text text-anchor="middle" x="247" y="-34.5" font-family="FreeSans" font-size="10.00">EventReducer::deClusterize</text>
</a>
</g>
</g>
<!-- Node1&#45;&gt;Node2 -->
<g id="edge1" class="edge"><title>Node1&#45;&gt;Node2</title>
<path fill="none" stroke="midnightblue" d="M154.609,-37C163.05,-37 171.554,-37 179.798,-37"/>
<polygon fill="midnightblue" stroke="midnightblue" points="154.365,-33.5001 144.365,-37 154.364,-40.5001 154.365,-33.5001"/>
</g>
<!-- Node3 -->
<g id="node3" class="node"><title>Node3</title>
<g id="a_node3"><a xlink:href="../../d5/dda/classEventReducer.html#af72954cea31bb7b3b3f122c3067b632c" target="_top" xlink:title="EventReducer::reduceEvent">
<polygon fill="none" stroke="black" points="350,-27.5 350,-46.5 484,-46.5 484,-27.5 350,-27.5"/>
<text text-anchor="middle" x="417" y="-34.5" font-family="FreeSans" font-size="10.00">EventReducer::reduceEvent</text>
</a>
</g>
</g>
<!-- Node2&#45;&gt;Node3 -->
<g id="edge2" class="edge"><title>Node2&#45;&gt;Node3</title>
<path fill="none" stroke="midnightblue" d="M324.595,-37C333.013,-37 341.532,-37 349.809,-37"/>
<polygon fill="midnightblue" stroke="midnightblue" points="324.398,-33.5001 314.398,-37 324.398,-40.5001 324.398,-33.5001"/>
</g>
<!-- Node4 -->
<g id="node4" class="node"><title>Node4</title>
<g id="a_node4"><a xlink:href="../../df/df2/classSQReco.html#a4b0d94299406e4c437ecd4e1f598fcda" target="_top" xlink:title="SQReco::ProcessEventPrep">
<polygon fill="none" stroke="black" points="520.5,-27.5 520.5,-46.5 657.5,-46.5 657.5,-27.5 520.5,-27.5"/>
<text text-anchor="middle" x="589" y="-34.5" font-family="FreeSans" font-size="10.00">SQReco::ProcessEventPrep</text>
</a>
</g>
</g>
<!-- Node3&#45;&gt;Node4 -->
<g id="edge3" class="edge"><title>Node3&#45;&gt;Node4</title>
<path fill="none" stroke="midnightblue" d="M494.303,-37C502.964,-37 511.747,-37 520.287,-37"/>
<polygon fill="midnightblue" stroke="midnightblue" points="494.213,-33.5001 484.213,-37 494.213,-40.5001 494.213,-33.5001"/>
</g>
<!-- Node5 -->
<g id="node5" class="node"><title>Node5</title>
<g id="a_node5"><a xlink:href="../../df/df2/classSQReco.html#a4d308ea90b8cd7c24a235f32debd6ddb" target="_top" xlink:title="SQReco::process_event">
<polygon fill="none" stroke="black" points="697.5,-49.5 697.5,-68.5 816.5,-68.5 816.5,-49.5 697.5,-49.5"/>
<text text-anchor="middle" x="757" y="-56.5" font-family="FreeSans" font-size="10.00">SQReco::process_event</text>
</a>
</g>
</g>
<!-- Node4&#45;&gt;Node5 -->
<g id="edge4" class="edge"><title>Node4&#45;&gt;Node5</title>
<path fill="none" stroke="midnightblue" d="M667.494,-47.2703C677.528,-48.6001 687.669,-49.9441 697.329,-51.2243"/>
<polygon fill="midnightblue" stroke="midnightblue" points="667.892,-43.7925 657.519,-45.9482 666.972,-50.7318 667.892,-43.7925"/>
</g>
<!-- Node6 -->
<g id="node6" class="node"><title>Node6</title>
<g id="a_node6"><a xlink:href="../../dd/d62/classSQTrackletReco.html#a8da2377e83fb17bc8189b89175833872" target="_top" xlink:title="SQTrackletReco::process\l_event">
<polygon fill="none" stroke="black" points="694,-0 694,-30 820,-30 820,-0 694,-0"/>
<text text-anchor="start" x="702" y="-18" font-family="FreeSans" font-size="10.00">SQTrackletReco::process</text>
<text text-anchor="middle" x="757" y="-7" font-family="FreeSans" font-size="10.00">_event</text>
</a>
</g>
</g>
<!-- Node4&#45;&gt;Node6 -->
<g id="edge5" class="edge"><title>Node4&#45;&gt;Node6</title>
<path fill="none" stroke="midnightblue" d="M667.465,-26.7336C676.325,-25.5594 685.27,-24.3739 693.893,-23.2311"/>
<polygon fill="midnightblue" stroke="midnightblue" points="666.972,-23.2682 657.519,-28.0518 667.892,-30.2075 666.972,-23.2682"/>
</g>
</g>
</svg>
