<?xml version="1.0" encoding="UTF-8" standalone="no"?>
<!DOCTYPE svg PUBLIC "-//W3C//DTD SVG 1.1//EN"
 "http://www.w3.org/Graphics/SVG/1.1/DTD/svg11.dtd">
<!-- Generated by graphviz version 2.44.0 (0)
 -->
<!-- Title: PHG4DSTReader::Init Pages: 1 -->
<svg width="466pt" height="66pt"
 viewBox="0.00 0.00 466.00 66.00" xmlns="http://www.w3.org/2000/svg" xmlns:xlink="http://www.w3.org/1999/xlink">
<g id="graph0" class="graph" transform="scale(1 1) rotate(0) translate(4 62)">
<title>PHG4DSTReader::Init</title>
<!-- Node1 -->
<g id="node1" class="node">
<title>Node1</title>
<g id="a_node1"><a xlink:title="full initialization">
<polygon fill="#bfbfbf" stroke="black" points="0,-19.5 0,-38.5 119,-38.5 119,-19.5 0,-19.5"/>
<text text-anchor="middle" x="59.5" y="-26.5" font-family="FreeSans" font-size="10.00">PHG4DSTReader::Init</text>
</a>
</g>
</g>
<!-- Node2 -->
<g id="node2" class="node">
<title>Node2</title>
<g id="a_node2"><a xlink:href="../../d4/dc9/classPHG4DSTReader.html#a97aba6f360a98e68012f9f32e30a79d5" target="_top" xlink:title=" ">
<polygon fill="none" stroke="black" points="155,-19.5 155,-38.5 307,-38.5 307,-19.5 155,-19.5"/>
<text text-anchor="middle" x="231" y="-26.5" font-family="FreeSans" font-size="10.00">PHG4DSTReader::build_tree</text>
</a>
</g>
</g>
<!-- Node1&#45;&gt;Node2 -->
<g id="edge1" class="edge">
<title>Node1&#45;&gt;Node2</title>
<path fill="none" stroke="midnightblue" d="M119.31,-29C127.55,-29 136.16,-29 144.78,-29"/>
<polygon fill="midnightblue" stroke="midnightblue" points="144.88,-32.5 154.88,-29 144.88,-25.5 144.88,-32.5"/>
</g>
<!-- Node3 -->
<g id="node3" class="node">
<title>Node3</title>
<g id="a_node3"><a xlink:href="../../d3/d2b/classPHTFileServer.html#a5a3ed7a2a70cc2e38dbe1cb33afe9c2f" target="_top" xlink:title="return reference to class singleton">
<polygon fill="none" stroke="black" points="347,-38.5 347,-57.5 454,-57.5 454,-38.5 347,-38.5"/>
<text text-anchor="middle" x="400.5" y="-45.5" font-family="FreeSans" font-size="10.00">PHTFileServer::get</text>
</a>
</g>
</g>
<!-- Node2&#45;&gt;Node3 -->
<g id="edge2" class="edge">
<title>Node2&#45;&gt;Node3</title>
<path fill="none" stroke="midnightblue" d="M307.42,-37.56C317.11,-38.65 326.96,-39.77 336.42,-40.85"/>
<polygon fill="midnightblue" stroke="midnightblue" points="336.19,-44.34 346.52,-41.99 336.98,-37.39 336.19,-44.34"/>
</g>
<!-- Node4 -->
<g id="node4" class="node">
<title>Node4</title>
<g id="a_node4"><a xlink:href="../../d3/d2b/classPHTFileServer.html#aaae99c6748eb17d5f8d7df375bc6d615" target="_top" xlink:title="open a SafeTFile. If filename is not found in the map, create a new TFile and append to the map; incr...">
<polygon fill="none" stroke="black" points="343,-0.5 343,-19.5 458,-19.5 458,-0.5 343,-0.5"/>
<text text-anchor="middle" x="400.5" y="-7.5" font-family="FreeSans" font-size="10.00">PHTFileServer::open</text>
</a>
</g>
</g>
<!-- Node2&#45;&gt;Node4 -->
<g id="edge3" class="edge">
<title>Node2&#45;&gt;Node4</title>
<path fill="none" stroke="midnightblue" d="M307.42,-20.44C315.82,-19.49 324.32,-18.53 332.6,-17.59"/>
<polygon fill="midnightblue" stroke="midnightblue" points="333.02,-21.06 342.57,-16.46 332.23,-14.11 333.02,-21.06"/>
</g>
</g>
</svg>
