<?xml version="1.0" encoding="UTF-8" standalone="no"?>
<!DOCTYPE svg PUBLIC "-//W3C//DTD SVG 1.1//EN"
 "http://www.w3.org/Graphics/SVG/1.1/DTD/svg11.dtd">
<!-- Generated by graphviz version 2.36.0 (20140111.2315)
 -->
<!-- Title: /home/yuhw/GitHub/SeaQuest/seaquest&#45;offline/simulation/g4detectors/PHG4PSTOFSubsystem.h Pages: 1 -->
<svg width="444pt" height="330pt"
 viewBox="0.00 0.00 444.00 330.00" xmlns="http://www.w3.org/2000/svg" xmlns:xlink="http://www.w3.org/1999/xlink">
<g id="graph0" class="graph" transform="scale(1 1) rotate(0) translate(4 326)">
<title>/home/yuhw/GitHub/SeaQuest/seaquest&#45;offline/simulation/g4detectors/PHG4PSTOFSubsystem.h</title>
<!-- Node1 -->
<g id="node1" class="node"><title>Node1</title>
<polygon fill="#bfbfbf" stroke="black" points="246,-280.5 246,-321.5 436,-321.5 436,-280.5 246,-280.5"/>
<text text-anchor="start" x="254" y="-309.5" font-family="FreeSans" font-size="10.00">/home/yuhw/GitHub/SeaQuest</text>
<text text-anchor="start" x="254" y="-298.5" font-family="FreeSans" font-size="10.00">/seaquest&#45;offline/simulation</text>
<text text-anchor="middle" x="341" y="-287.5" font-family="FreeSans" font-size="10.00">/g4detectors/PHG4PSTOFSubsystem.h</text>
</g>
<!-- Node2 -->
<g id="node2" class="node"><title>Node2</title>
<g id="a_node2"><a xlink:href="../../d5/d12/PHG4DetectorGroupSubsystem_8h.html" target="_top" xlink:title="PHG4DetectorGroupSubsystem.h">
<polygon fill="none" stroke="black" points="204.5,-224.5 204.5,-243.5 367.5,-243.5 367.5,-224.5 204.5,-224.5"/>
<text text-anchor="middle" x="286" y="-231.5" font-family="FreeSans" font-size="10.00">PHG4DetectorGroupSubsystem.h</text>
</a>
</g>
</g>
<!-- Node1&#45;&gt;Node2 -->
<g id="edge1" class="edge"><title>Node1&#45;&gt;Node2</title>
<path fill="none" stroke="midnightblue" d="M324.498,-280.498C316.633,-271.203 307.331,-260.21 299.841,-251.358"/>
<polygon fill="midnightblue" stroke="midnightblue" points="302.453,-249.026 293.321,-243.652 297.109,-253.547 302.453,-249.026"/>
</g>
<!-- Node6 -->
<g id="node6" class="node"><title>Node6</title>
<polygon fill="none" stroke="#bfbfbf" points="125.5,-0.5 125.5,-19.5 166.5,-19.5 166.5,-0.5 125.5,-0.5"/>
<text text-anchor="middle" x="146" y="-7.5" font-family="FreeSans" font-size="10.00">string</text>
</g>
<!-- Node1&#45;&gt;Node6 -->
<g id="edge13" class="edge"><title>Node1&#45;&gt;Node6</title>
<path fill="none" stroke="midnightblue" d="M356.321,-280.268C372.595,-257.286 396,-217.536 396,-179 396,-179 396,-179 396,-121 396,-26.448 244.327,-12.4538 177.259,-10.8877"/>
<polygon fill="midnightblue" stroke="midnightblue" points="176.937,-7.3825 166.885,-10.7299 176.83,-14.3817 176.937,-7.3825"/>
</g>
<!-- Node3 -->
<g id="node3" class="node"><title>Node3</title>
<g id="a_node3"><a xlink:href="../../df/d1c/PHG4Subsystem_8h.html" target="_top" xlink:title="g4main/PHG4Subsystem.h">
<polygon fill="none" stroke="black" points="86,-168.5 86,-187.5 220,-187.5 220,-168.5 86,-168.5"/>
<text text-anchor="middle" x="153" y="-175.5" font-family="FreeSans" font-size="10.00">g4main/PHG4Subsystem.h</text>
</a>
</g>
</g>
<!-- Node2&#45;&gt;Node3 -->
<g id="edge2" class="edge"><title>Node2&#45;&gt;Node3</title>
<path fill="none" stroke="midnightblue" d="M264.926,-224.444C242.94,-215.517 208.266,-201.439 183.336,-191.317"/>
<polygon fill="midnightblue" stroke="midnightblue" points="184.558,-188.035 173.976,-187.516 181.924,-194.521 184.558,-188.035"/>
</g>
<!-- Node2&#45;&gt;Node6 -->
<g id="edge12" class="edge"><title>Node2&#45;&gt;Node6</title>
<path fill="none" stroke="midnightblue" d="M283.62,-224.3C277.752,-203.71 261.282,-150.811 237,-112 215.875,-78.2353 183.059,-45.0983 163.145,-26.4328"/>
<polygon fill="midnightblue" stroke="midnightblue" points="165.436,-23.7849 155.712,-19.5781 160.69,-28.9306 165.436,-23.7849"/>
</g>
<!-- Node9 -->
<g id="node9" class="node"><title>Node9</title>
<polygon fill="none" stroke="#bfbfbf" points="284.5,-168.5 284.5,-187.5 319.5,-187.5 319.5,-168.5 284.5,-168.5"/>
<text text-anchor="middle" x="302" y="-175.5" font-family="FreeSans" font-size="10.00">map</text>
</g>
<!-- Node2&#45;&gt;Node9 -->
<g id="edge10" class="edge"><title>Node2&#45;&gt;Node9</title>
<path fill="none" stroke="midnightblue" d="M288.642,-224.083C290.786,-216.849 293.879,-206.409 296.549,-197.397"/>
<polygon fill="midnightblue" stroke="midnightblue" points="299.922,-198.333 299.407,-187.751 293.21,-196.345 299.922,-198.333"/>
</g>
<!-- Node10 -->
<g id="node10" class="node"><title>Node10</title>
<polygon fill="none" stroke="#bfbfbf" points="338,-168.5 338,-187.5 368,-187.5 368,-168.5 338,-168.5"/>
<text text-anchor="middle" x="353" y="-175.5" font-family="FreeSans" font-size="10.00">set</text>
</g>
<!-- Node2&#45;&gt;Node10 -->
<g id="edge11" class="edge"><title>Node2&#45;&gt;Node10</title>
<path fill="none" stroke="midnightblue" d="M296.765,-224.324C306.766,-216.263 321.887,-204.077 333.93,-194.369"/>
<polygon fill="midnightblue" stroke="midnightblue" points="336.45,-196.834 342.039,-187.834 332.057,-191.384 336.45,-196.834"/>
</g>
<!-- Node4 -->
<g id="node4" class="node"><title>Node4</title>
<g id="a_node4"><a xlink:href="../../d5/dc2/SubsysReco_8h.html" target="_top" xlink:title="fun4all/SubsysReco.h">
<polygon fill="none" stroke="black" points="8,-112.5 8,-131.5 118,-131.5 118,-112.5 8,-112.5"/>
<text text-anchor="middle" x="63" y="-119.5" font-family="FreeSans" font-size="10.00">fun4all/SubsysReco.h</text>
</a>
</g>
</g>
<!-- Node3&#45;&gt;Node4 -->
<g id="edge3" class="edge"><title>Node3&#45;&gt;Node4</title>
<path fill="none" stroke="midnightblue" d="M138.54,-168.324C124.5,-159.9 102.952,-146.971 86.4569,-137.074"/>
<polygon fill="midnightblue" stroke="midnightblue" points="87.7999,-133.798 77.4242,-131.655 84.1984,-139.801 87.7999,-133.798"/>
</g>
<!-- Node3&#45;&gt;Node6 -->
<g id="edge9" class="edge"><title>Node3&#45;&gt;Node6</title>
<path fill="none" stroke="midnightblue" d="M152.624,-168.075C151.522,-141.945 148.286,-65.2106 146.783,-29.577"/>
<polygon fill="midnightblue" stroke="midnightblue" points="150.28,-29.4117 146.361,-19.5681 143.286,-29.7067 150.28,-29.4117"/>
</g>
<!-- Node8 -->
<g id="node8" class="node"><title>Node8</title>
<polygon fill="none" stroke="#bfbfbf" points="174,-112.5 174,-131.5 228,-131.5 228,-112.5 174,-112.5"/>
<text text-anchor="middle" x="201" y="-119.5" font-family="FreeSans" font-size="10.00">iostream</text>
</g>
<!-- Node3&#45;&gt;Node8 -->
<g id="edge8" class="edge"><title>Node3&#45;&gt;Node8</title>
<path fill="none" stroke="midnightblue" d="M160.926,-168.083C167.846,-160.298 178.065,-148.801 186.452,-139.367"/>
<polygon fill="midnightblue" stroke="midnightblue" points="189.194,-141.55 193.221,-131.751 183.962,-136.9 189.194,-141.55"/>
</g>
<!-- Node5 -->
<g id="node5" class="node"><title>Node5</title>
<g id="a_node5"><a xlink:href="../../d2/de7/Fun4AllBase_8h.html" target="_top" xlink:title="Fun4AllBase.h">
<polygon fill="none" stroke="black" points="0,-56.5 0,-75.5 80,-75.5 80,-56.5 0,-56.5"/>
<text text-anchor="middle" x="40" y="-63.5" font-family="FreeSans" font-size="10.00">Fun4AllBase.h</text>
</a>
</g>
</g>
<!-- Node4&#45;&gt;Node5 -->
<g id="edge4" class="edge"><title>Node4&#45;&gt;Node5</title>
<path fill="none" stroke="midnightblue" d="M59.202,-112.083C56.0872,-104.77 51.5772,-94.1814 47.7107,-85.1034"/>
<polygon fill="midnightblue" stroke="midnightblue" points="50.8661,-83.5798 43.7273,-75.7511 44.4259,-86.3229 50.8661,-83.5798"/>
</g>
<!-- Node4&#45;&gt;Node6 -->
<g id="edge7" class="edge"><title>Node4&#45;&gt;Node6</title>
<path fill="none" stroke="midnightblue" d="M69.5129,-112.368C83.2708,-94.135 115.497,-51.4257 133.418,-27.6752"/>
<polygon fill="midnightblue" stroke="midnightblue" points="136.288,-29.6821 139.517,-19.5914 130.7,-25.4659 136.288,-29.6821"/>
</g>
<!-- Node5&#45;&gt;Node6 -->
<g id="edge5" class="edge"><title>Node5&#45;&gt;Node6</title>
<path fill="none" stroke="midnightblue" d="M57.0307,-56.324C74.0298,-47.6641 100.376,-34.2424 119.993,-24.249"/>
<polygon fill="midnightblue" stroke="midnightblue" points="121.69,-27.3125 129.012,-19.6545 118.512,-21.0752 121.69,-27.3125"/>
</g>
<!-- Node7 -->
<g id="node7" class="node"><title>Node7</title>
<polygon fill="none" stroke="#bfbfbf" points="17.5,-0.5 17.5,-19.5 62.5,-19.5 62.5,-0.5 17.5,-0.5"/>
<text text-anchor="middle" x="40" y="-7.5" font-family="FreeSans" font-size="10.00">climits</text>
</g>
<!-- Node5&#45;&gt;Node7 -->
<g id="edge6" class="edge"><title>Node5&#45;&gt;Node7</title>
<path fill="none" stroke="midnightblue" d="M40,-56.083C40,-49.0059 40,-38.8611 40,-29.9865"/>
<polygon fill="midnightblue" stroke="midnightblue" points="43.5001,-29.751 40,-19.7511 36.5001,-29.7511 43.5001,-29.751"/>
</g>
</g>
</svg>
