<?xml version="1.0" encoding="UTF-8" standalone="no"?>
<!DOCTYPE svg PUBLIC "-//W3C//DTD SVG 1.1//EN"
 "http://www.w3.org/Graphics/SVG/1.1/DTD/svg11.dtd">
<!-- Generated by graphviz version 2.44.0 (0)
 -->
<!-- Title: /dev/shm/kenichi/update&#45;github&#45;e1039&#45;doc/e1039&#45;core/simulation/g4main/PHG4Particlev2.h Pages: 1 -->
<svg width="195pt" height="285pt"
 viewBox="0.00 0.00 195.00 285.00" xmlns="http://www.w3.org/2000/svg" xmlns:xlink="http://www.w3.org/1999/xlink">
<g id="graph0" class="graph" transform="scale(1 1) rotate(0) translate(4 281)">
<title>/dev/shm/kenichi/update&#45;github&#45;e1039&#45;doc/e1039&#45;core/simulation/g4main/PHG4Particlev2.h</title>
<!-- Node1 -->
<g id="node1" class="node">
<title>Node1</title>
<g id="a_node1"><a xlink:title=" ">
<polygon fill="#bfbfbf" stroke="black" points="48,-224.5 48,-276.5 187,-276.5 187,-224.5 48,-224.5"/>
<text text-anchor="start" x="56" y="-264.5" font-family="FreeSans" font-size="10.00">/dev/shm/kenichi/update</text>
<text text-anchor="start" x="56" y="-253.5" font-family="FreeSans" font-size="10.00">&#45;github&#45;e1039&#45;doc/e1039</text>
<text text-anchor="start" x="56" y="-242.5" font-family="FreeSans" font-size="10.00">&#45;core/simulation/g4main</text>
<text text-anchor="middle" x="117.5" y="-231.5" font-family="FreeSans" font-size="10.00">/PHG4Particlev2.h</text>
</a>
</g>
</g>
<!-- Node2 -->
<g id="node2" class="node">
<title>Node2</title>
<g id="a_node2"><a xlink:href="../../d8/d39/PHG4Particlev1_8h.html" target="_top" xlink:title=" ">
<polygon fill="none" stroke="black" points="67,-168.5 67,-187.5 168,-187.5 168,-168.5 67,-168.5"/>
<text text-anchor="middle" x="117.5" y="-175.5" font-family="FreeSans" font-size="10.00">PHG4Particlev1.h</text>
</a>
</g>
</g>
<!-- Node1&#45;&gt;Node2 -->
<g id="edge1" class="edge">
<title>Node1&#45;&gt;Node2</title>
<path fill="none" stroke="midnightblue" d="M117.5,-224.45C117.5,-215.73 117.5,-206.1 117.5,-197.96"/>
<polygon fill="midnightblue" stroke="midnightblue" points="121,-197.7 117.5,-187.7 114,-197.7 121,-197.7"/>
</g>
<!-- Node3 -->
<g id="node3" class="node">
<title>Node3</title>
<g id="a_node3"><a xlink:href="../../dd/d05/PHG4Particle_8h.html" target="_top" xlink:title=" ">
<polygon fill="none" stroke="black" points="73,-112.5 73,-131.5 162,-131.5 162,-112.5 73,-112.5"/>
<text text-anchor="middle" x="117.5" y="-119.5" font-family="FreeSans" font-size="10.00">PHG4Particle.h</text>
</a>
</g>
</g>
<!-- Node2&#45;&gt;Node3 -->
<g id="edge2" class="edge">
<title>Node2&#45;&gt;Node3</title>
<path fill="none" stroke="midnightblue" d="M117.5,-168.08C117.5,-161.01 117.5,-150.86 117.5,-141.99"/>
<polygon fill="midnightblue" stroke="midnightblue" points="121,-141.75 117.5,-131.75 114,-141.75 121,-141.75"/>
</g>
<!-- Node4 -->
<g id="node4" class="node">
<title>Node4</title>
<g id="a_node4"><a xlink:href="../../df/d32/PHObject_8h.html" target="_top" xlink:title=" ">
<polygon fill="none" stroke="black" points="21,-56.5 21,-75.5 122,-75.5 122,-56.5 21,-56.5"/>
<text text-anchor="middle" x="71.5" y="-63.5" font-family="FreeSans" font-size="10.00">phool/PHObject.h</text>
</a>
</g>
</g>
<!-- Node3&#45;&gt;Node4 -->
<g id="edge3" class="edge">
<title>Node3&#45;&gt;Node4</title>
<path fill="none" stroke="midnightblue" d="M109.9,-112.08C103.27,-104.3 93.48,-92.8 85.44,-83.37"/>
<polygon fill="midnightblue" stroke="midnightblue" points="88.1,-81.09 78.95,-75.75 82.77,-85.63 88.1,-81.09"/>
</g>
<!-- Node7 -->
<g id="node7" class="node">
<title>Node7</title>
<g id="a_node7"><a xlink:title=" ">
<polygon fill="none" stroke="#bfbfbf" points="140,-56.5 140,-75.5 187,-75.5 187,-56.5 140,-56.5"/>
<text text-anchor="middle" x="163.5" y="-63.5" font-family="FreeSans" font-size="10.00">cmath</text>
</a>
</g>
</g>
<!-- Node3&#45;&gt;Node7 -->
<g id="edge6" class="edge">
<title>Node3&#45;&gt;Node7</title>
<path fill="none" stroke="midnightblue" d="M125.1,-112.08C131.73,-104.3 141.52,-92.8 149.56,-83.37"/>
<polygon fill="midnightblue" stroke="midnightblue" points="152.23,-85.63 156.05,-75.75 146.9,-81.09 152.23,-85.63"/>
</g>
<!-- Node5 -->
<g id="node5" class="node">
<title>Node5</title>
<g id="a_node5"><a xlink:title=" ">
<polygon fill="none" stroke="#bfbfbf" points="0,-0.5 0,-19.5 63,-19.5 63,-0.5 0,-0.5"/>
<text text-anchor="middle" x="31.5" y="-7.5" font-family="FreeSans" font-size="10.00">TObject.h</text>
</a>
</g>
</g>
<!-- Node4&#45;&gt;Node5 -->
<g id="edge4" class="edge">
<title>Node4&#45;&gt;Node5</title>
<path fill="none" stroke="midnightblue" d="M64.89,-56.08C59.24,-48.46 50.96,-37.26 44.05,-27.94"/>
<polygon fill="midnightblue" stroke="midnightblue" points="46.75,-25.7 37.98,-19.75 41.12,-29.87 46.75,-25.7"/>
</g>
<!-- Node6 -->
<g id="node6" class="node">
<title>Node6</title>
<g id="a_node6"><a xlink:title=" ">
<polygon fill="none" stroke="#bfbfbf" points="81.5,-0.5 81.5,-19.5 141.5,-19.5 141.5,-0.5 81.5,-0.5"/>
<text text-anchor="middle" x="111.5" y="-7.5" font-family="FreeSans" font-size="10.00">iostream</text>
</a>
</g>
</g>
<!-- Node4&#45;&gt;Node6 -->
<g id="edge5" class="edge">
<title>Node4&#45;&gt;Node6</title>
<path fill="none" stroke="midnightblue" d="M78.11,-56.08C83.76,-48.46 92.04,-37.26 98.95,-27.94"/>
<polygon fill="midnightblue" stroke="midnightblue" points="101.88,-29.87 105.02,-19.75 96.25,-25.7 101.88,-29.87"/>
</g>
</g>
</svg>
