<?xml version="1.0" encoding="UTF-8" standalone="no"?>
<!DOCTYPE svg PUBLIC "-//W3C//DTD SVG 1.1//EN"
 "http://www.w3.org/Graphics/SVG/1.1/DTD/svg11.dtd">
<!-- Generated by graphviz version 2.36.0 (20140111.2315)
 -->
<!-- Title: /home/yuhw/GitHub/SeaQuest/seaquest&#45;offline/simulation/g4detectors/PHG4Parameters.h Pages: 1 -->
<svg width="2959pt" height="140pt"
 viewBox="0.00 0.00 2959.00 140.00" xmlns="http://www.w3.org/2000/svg" xmlns:xlink="http://www.w3.org/1999/xlink">
<g id="graph0" class="graph" transform="scale(1 1) rotate(0) translate(4 136)">
<title>/home/yuhw/GitHub/SeaQuest/seaquest&#45;offline/simulation/g4detectors/PHG4Parameters.h</title>
<!-- Node1 -->
<g id="node1" class="node"><title>Node1</title>
<polygon fill="#bfbfbf" stroke="black" points="1332,-90.5 1332,-131.5 1490,-131.5 1490,-90.5 1332,-90.5"/>
<text text-anchor="start" x="1340" y="-119.5" font-family="FreeSans" font-size="10.00">/home/yuhw/GitHub/SeaQuest</text>
<text text-anchor="start" x="1340" y="-108.5" font-family="FreeSans" font-size="10.00">/seaquest&#45;offline/simulation</text>
<text text-anchor="middle" x="1411" y="-97.5" font-family="FreeSans" font-size="10.00">/g4detectors/PHG4Parameters.h</text>
</g>
<!-- Node2 -->
<g id="node2" class="node"><title>Node2</title>
<g id="a_node2"><a xlink:href="../../dc/d32/PHG4BlockCellReco_8cc.html" target="_top" xlink:title="/home/yuhw/GitHub/SeaQuest\l/seaquest&#45;offline/simulation\l/g4detectors/PHG4BlockCellReco.cc">
<polygon fill="none" stroke="black" points="-0.5,-6.5 -0.5,-47.5 176.5,-47.5 176.5,-6.5 -0.5,-6.5"/>
<text text-anchor="start" x="7.5" y="-35.5" font-family="FreeSans" font-size="10.00">/home/yuhw/GitHub/SeaQuest</text>
<text text-anchor="start" x="7.5" y="-24.5" font-family="FreeSans" font-size="10.00">/seaquest&#45;offline/simulation</text>
<text text-anchor="middle" x="88" y="-13.5" font-family="FreeSans" font-size="10.00">/g4detectors/PHG4BlockCellReco.cc</text>
</a>
</g>
</g>
<!-- Node1&#45;&gt;Node2 -->
<g id="edge1" class="edge"><title>Node1&#45;&gt;Node2</title>
<path fill="none" stroke="midnightblue" d="M1321.43,-108.421C1077.34,-103.716 404.12,-87.9611 185,-54 174.576,-52.3845 163.662,-50.0804 153.071,-47.5035"/>
<polygon fill="midnightblue" stroke="midnightblue" points="1321.62,-111.925 1331.68,-108.617 1321.75,-104.926 1321.62,-111.925"/>
</g>
<!-- Node3 -->
<g id="node3" class="node"><title>Node3</title>
<g id="a_node3"><a xlink:href="../../df/d22/PHG4CylinderGeom__Spacalv3__2015_8cc.html" target="_top" xlink:title="/home/yuhw/GitHub/SeaQuest\l/seaquest&#45;offline/simulation\l/g4detectors/PHG4CylinderGeom\l_Spacalv3_2015.cc">
<polygon fill="none" stroke="black" points="194.5,-1 194.5,-53 355.5,-53 355.5,-1 194.5,-1"/>
<text text-anchor="start" x="202.5" y="-41" font-family="FreeSans" font-size="10.00">/home/yuhw/GitHub/SeaQuest</text>
<text text-anchor="start" x="202.5" y="-30" font-family="FreeSans" font-size="10.00">/seaquest&#45;offline/simulation</text>
<text text-anchor="start" x="202.5" y="-19" font-family="FreeSans" font-size="10.00">/g4detectors/PHG4CylinderGeom</text>
<text text-anchor="middle" x="275" y="-8" font-family="FreeSans" font-size="10.00">_Spacalv3_2015.cc</text>
</a>
</g>
</g>
<!-- Node1&#45;&gt;Node3 -->
<g id="edge2" class="edge"><title>Node1&#45;&gt;Node3</title>
<path fill="none" stroke="midnightblue" d="M1321.65,-107.87C1103.28,-102.237 547.042,-85.2 364,-54 361.302,-53.5402 358.571,-53.0268 355.821,-52.4689"/>
<polygon fill="midnightblue" stroke="midnightblue" points="1321.7,-111.372 1331.79,-108.129 1321.88,-104.374 1321.7,-111.372"/>
</g>
<!-- Node4 -->
<g id="node4" class="node"><title>Node4</title>
<g id="a_node4"><a xlink:href="../../d2/d8a/PHG4DetectorGroupSubsystem_8cc.html" target="_top" xlink:title="/home/yuhw/GitHub/SeaQuest\l/seaquest&#45;offline/simulation\l/g4detectors/PHG4DetectorGroupSubsystem.cc">
<polygon fill="none" stroke="black" points="373.5,-6.5 373.5,-47.5 598.5,-47.5 598.5,-6.5 373.5,-6.5"/>
<text text-anchor="start" x="381.5" y="-35.5" font-family="FreeSans" font-size="10.00">/home/yuhw/GitHub/SeaQuest</text>
<text text-anchor="start" x="381.5" y="-24.5" font-family="FreeSans" font-size="10.00">/seaquest&#45;offline/simulation</text>
<text text-anchor="middle" x="486" y="-13.5" font-family="FreeSans" font-size="10.00">/g4detectors/PHG4DetectorGroupSubsystem.cc</text>
</a>
</g>
</g>
<!-- Node1&#45;&gt;Node4 -->
<g id="edge3" class="edge"><title>Node1&#45;&gt;Node4</title>
<path fill="none" stroke="midnightblue" d="M1321.86,-107.925C1173.08,-103.538 864.992,-90.5143 607,-54 594.767,-52.2687 581.925,-50.0034 569.365,-47.5314"/>
<polygon fill="midnightblue" stroke="midnightblue" points="1321.77,-111.424 1331.87,-108.214 1321.97,-104.426 1321.77,-111.424"/>
</g>
<!-- Node5 -->
<g id="node5" class="node"><title>Node5</title>
<g id="a_node5"><a xlink:href="../../d9/d50/PHG4HcalCellReco_8cc.html" target="_top" xlink:title="/home/yuhw/GitHub/SeaQuest\l/seaquest&#45;offline/simulation\l/g4detectors/PHG4HcalCellReco.cc">
<polygon fill="none" stroke="black" points="616.5,-6.5 616.5,-47.5 789.5,-47.5 789.5,-6.5 616.5,-6.5"/>
<text text-anchor="start" x="624.5" y="-35.5" font-family="FreeSans" font-size="10.00">/home/yuhw/GitHub/SeaQuest</text>
<text text-anchor="start" x="624.5" y="-24.5" font-family="FreeSans" font-size="10.00">/seaquest&#45;offline/simulation</text>
<text text-anchor="middle" x="703" y="-13.5" font-family="FreeSans" font-size="10.00">/g4detectors/PHG4HcalCellReco.cc</text>
</a>
</g>
</g>
<!-- Node1&#45;&gt;Node5 -->
<g id="edge4" class="edge"><title>Node1&#45;&gt;Node5</title>
<path fill="none" stroke="midnightblue" d="M1321.3,-106.75C1201.27,-101.277 982.177,-87.3476 798,-54 788.409,-52.2635 778.38,-50.0113 768.582,-47.5591"/>
<polygon fill="midnightblue" stroke="midnightblue" points="1321.39,-110.257 1331.53,-107.207 1321.7,-103.264 1321.39,-110.257"/>
</g>
<!-- Node6 -->
<g id="node6" class="node"><title>Node6</title>
<g id="a_node6"><a xlink:href="../../d0/d30/PHG4ParameterContainerInterface_8cc.html" target="_top" xlink:title="/home/yuhw/GitHub/SeaQuest\l/seaquest&#45;offline/simulation\l/g4detectors/PHG4ParameterContainer\lInterface.cc">
<polygon fill="none" stroke="black" points="807.5,-1 807.5,-53 994.5,-53 994.5,-1 807.5,-1"/>
<text text-anchor="start" x="815.5" y="-41" font-family="FreeSans" font-size="10.00">/home/yuhw/GitHub/SeaQuest</text>
<text text-anchor="start" x="815.5" y="-30" font-family="FreeSans" font-size="10.00">/seaquest&#45;offline/simulation</text>
<text text-anchor="start" x="815.5" y="-19" font-family="FreeSans" font-size="10.00">/g4detectors/PHG4ParameterContainer</text>
<text text-anchor="middle" x="901" y="-8" font-family="FreeSans" font-size="10.00">Interface.cc</text>
</a>
</g>
</g>
<!-- Node1&#45;&gt;Node6 -->
<g id="edge5" class="edge"><title>Node1&#45;&gt;Node6</title>
<path fill="none" stroke="midnightblue" d="M1321.82,-100.703C1238.84,-91.3576 1111.96,-75.2929 1003,-54 1000.22,-53.4567 997.403,-52.8839 994.563,-52.2871"/>
<polygon fill="midnightblue" stroke="midnightblue" points="1321.64,-104.205 1331.97,-101.837 1322.42,-97.2481 1321.64,-104.205"/>
</g>
<!-- Node7 -->
<g id="node7" class="node"><title>Node7</title>
<g id="a_node7"><a xlink:href="../../dd/ddf/PHG4ParameterInterface_8cc.html" target="_top" xlink:title="/home/yuhw/GitHub/SeaQuest\l/seaquest&#45;offline/simulation\l/g4detectors/PHG4ParameterInterface.cc">
<polygon fill="none" stroke="black" points="1012.5,-6.5 1012.5,-47.5 1209.5,-47.5 1209.5,-6.5 1012.5,-6.5"/>
<text text-anchor="start" x="1020.5" y="-35.5" font-family="FreeSans" font-size="10.00">/home/yuhw/GitHub/SeaQuest</text>
<text text-anchor="start" x="1020.5" y="-24.5" font-family="FreeSans" font-size="10.00">/seaquest&#45;offline/simulation</text>
<text text-anchor="middle" x="1111" y="-13.5" font-family="FreeSans" font-size="10.00">/g4detectors/PHG4ParameterInterface.cc</text>
</a>
</g>
</g>
<!-- Node1&#45;&gt;Node7 -->
<g id="edge6" class="edge"><title>Node1&#45;&gt;Node7</title>
<path fill="none" stroke="midnightblue" d="M1329.59,-87.7478C1283.61,-75.1812 1226.68,-59.62 1182.45,-47.5291"/>
<polygon fill="midnightblue" stroke="midnightblue" points="1328.95,-91.2026 1339.52,-90.4631 1330.8,-84.4503 1328.95,-91.2026"/>
</g>
<!-- Node8 -->
<g id="node8" class="node"><title>Node8</title>
<g id="a_node8"><a xlink:href="../../db/dab/PHG4Parameters_8cc.html" target="_top" xlink:title="/home/yuhw/GitHub/SeaQuest\l/seaquest&#45;offline/simulation\l/g4detectors/PHG4Parameters.cc">
<polygon fill="none" stroke="black" points="1228,-6.5 1228,-47.5 1392,-47.5 1392,-6.5 1228,-6.5"/>
<text text-anchor="start" x="1236" y="-35.5" font-family="FreeSans" font-size="10.00">/home/yuhw/GitHub/SeaQuest</text>
<text text-anchor="start" x="1236" y="-24.5" font-family="FreeSans" font-size="10.00">/seaquest&#45;offline/simulation</text>
<text text-anchor="middle" x="1310" y="-13.5" font-family="FreeSans" font-size="10.00">/g4detectors/PHG4Parameters.cc</text>
</a>
</g>
</g>
<!-- Node1&#45;&gt;Node8 -->
<g id="edge7" class="edge"><title>Node1&#45;&gt;Node8</title>
<path fill="none" stroke="midnightblue" d="M1378.65,-83.7348C1364.28,-72.0654 1347.64,-58.559 1334.34,-47.765"/>
<polygon fill="midnightblue" stroke="midnightblue" points="1376.84,-86.7731 1386.81,-90.359 1381.25,-81.3387 1376.84,-86.7731"/>
</g>
<!-- Node9 -->
<g id="node9" class="node"><title>Node9</title>
<g id="a_node9"><a xlink:href="../../d3/db2/PHG4ParametersContainer_8cc.html" target="_top" xlink:title="/home/yuhw/GitHub/SeaQuest\l/seaquest&#45;offline/simulation\l/g4detectors/PHG4ParametersContainer.cc">
<polygon fill="none" stroke="black" points="1410.5,-6.5 1410.5,-47.5 1615.5,-47.5 1615.5,-6.5 1410.5,-6.5"/>
<text text-anchor="start" x="1418.5" y="-35.5" font-family="FreeSans" font-size="10.00">/home/yuhw/GitHub/SeaQuest</text>
<text text-anchor="start" x="1418.5" y="-24.5" font-family="FreeSans" font-size="10.00">/seaquest&#45;offline/simulation</text>
<text text-anchor="middle" x="1513" y="-13.5" font-family="FreeSans" font-size="10.00">/g4detectors/PHG4ParametersContainer.cc</text>
</a>
</g>
</g>
<!-- Node1&#45;&gt;Node9 -->
<g id="edge8" class="edge"><title>Node1&#45;&gt;Node9</title>
<path fill="none" stroke="midnightblue" d="M1443.26,-84.0615C1457.87,-72.318 1474.86,-58.6599 1488.41,-47.765"/>
<polygon fill="midnightblue" stroke="midnightblue" points="1441.03,-81.3655 1435.43,-90.359 1445.42,-86.8212 1441.03,-81.3655"/>
</g>
<!-- Node10 -->
<g id="node10" class="node"><title>Node10</title>
<g id="a_node10"><a xlink:href="../../d2/dde/PHG4PSTOFDetector_8cc.html" target="_top" xlink:title="/home/yuhw/GitHub/SeaQuest\l/seaquest&#45;offline/simulation\l/g4detectors/PHG4PSTOFDetector.cc">
<polygon fill="none" stroke="black" points="1633.5,-6.5 1633.5,-47.5 1816.5,-47.5 1816.5,-6.5 1633.5,-6.5"/>
<text text-anchor="start" x="1641.5" y="-35.5" font-family="FreeSans" font-size="10.00">/home/yuhw/GitHub/SeaQuest</text>
<text text-anchor="start" x="1641.5" y="-24.5" font-family="FreeSans" font-size="10.00">/seaquest&#45;offline/simulation</text>
<text text-anchor="middle" x="1725" y="-13.5" font-family="FreeSans" font-size="10.00">/g4detectors/PHG4PSTOFDetector.cc</text>
</a>
</g>
</g>
<!-- Node1&#45;&gt;Node10 -->
<g id="edge9" class="edge"><title>Node1&#45;&gt;Node10</title>
<path fill="none" stroke="midnightblue" d="M1495.6,-87.9057C1543.83,-75.3118 1603.72,-59.6707 1650.22,-47.5291"/>
<polygon fill="midnightblue" stroke="midnightblue" points="1494.6,-84.5499 1485.81,-90.4631 1496.37,-91.3228 1494.6,-84.5499"/>
</g>
<!-- Node11 -->
<g id="node11" class="node"><title>Node11</title>
<g id="a_node11"><a xlink:href="../../d7/d1d/PHG4PSTOFSteppingAction_8cc.html" target="_top" xlink:title="/home/yuhw/GitHub/SeaQuest\l/seaquest&#45;offline/simulation\l/g4detectors/PHG4PSTOFSteppingAction.cc">
<polygon fill="none" stroke="black" points="1835,-6.5 1835,-47.5 2047,-47.5 2047,-6.5 1835,-6.5"/>
<text text-anchor="start" x="1843" y="-35.5" font-family="FreeSans" font-size="10.00">/home/yuhw/GitHub/SeaQuest</text>
<text text-anchor="start" x="1843" y="-24.5" font-family="FreeSans" font-size="10.00">/seaquest&#45;offline/simulation</text>
<text text-anchor="middle" x="1941" y="-13.5" font-family="FreeSans" font-size="10.00">/g4detectors/PHG4PSTOFSteppingAction.cc</text>
</a>
</g>
</g>
<!-- Node1&#45;&gt;Node11 -->
<g id="edge10" class="edge"><title>Node1&#45;&gt;Node11</title>
<path fill="none" stroke="midnightblue" d="M1500.32,-100.168C1584.4,-90.3819 1713.69,-73.9637 1825,-54 1835.67,-52.0871 1846.83,-49.8654 1857.85,-47.5418"/>
<polygon fill="midnightblue" stroke="midnightblue" points="1499.83,-96.702 1490.3,-101.329 1500.63,-103.656 1499.83,-96.702"/>
</g>
<!-- Node12 -->
<g id="node12" class="node"><title>Node12</title>
<g id="a_node12"><a xlink:href="../../d1/d16/PHG4PSTOFSubsystem_8cc.html" target="_top" xlink:title="/home/yuhw/GitHub/SeaQuest\l/seaquest&#45;offline/simulation\l/g4detectors/PHG4PSTOFSubsystem.cc">
<polygon fill="none" stroke="black" points="2064.5,-6.5 2064.5,-47.5 2259.5,-47.5 2259.5,-6.5 2064.5,-6.5"/>
<text text-anchor="start" x="2072.5" y="-35.5" font-family="FreeSans" font-size="10.00">/home/yuhw/GitHub/SeaQuest</text>
<text text-anchor="start" x="2072.5" y="-24.5" font-family="FreeSans" font-size="10.00">/seaquest&#45;offline/simulation</text>
<text text-anchor="middle" x="2162" y="-13.5" font-family="FreeSans" font-size="10.00">/g4detectors/PHG4PSTOFSubsystem.cc</text>
</a>
</g>
</g>
<!-- Node1&#45;&gt;Node12 -->
<g id="edge11" class="edge"><title>Node1&#45;&gt;Node12</title>
<path fill="none" stroke="midnightblue" d="M1500.31,-106.516C1625.14,-100.675 1858.55,-86.2188 2055,-54 2065.75,-52.2365 2077.02,-49.9693 2088.04,-47.5102"/>
<polygon fill="midnightblue" stroke="midnightblue" points="1499.87,-103.032 1490.04,-106.988 1500.19,-110.025 1499.87,-103.032"/>
</g>
<!-- Node13 -->
<g id="node13" class="node"><title>Node13</title>
<g id="a_node13"><a xlink:href="../../d0/d27/PHG4SiliconTrackerDetector_8cc.html" target="_top" xlink:title="/home/yuhw/GitHub/SeaQuest\l/seaquest&#45;offline/simulation\l/g4detectors/PHG4SiliconTrackerDetector.cc">
<polygon fill="none" stroke="black" points="2277,-6.5 2277,-47.5 2489,-47.5 2489,-6.5 2277,-6.5"/>
<text text-anchor="start" x="2285" y="-35.5" font-family="FreeSans" font-size="10.00">/home/yuhw/GitHub/SeaQuest</text>
<text text-anchor="start" x="2285" y="-24.5" font-family="FreeSans" font-size="10.00">/seaquest&#45;offline/simulation</text>
<text text-anchor="middle" x="2383" y="-13.5" font-family="FreeSans" font-size="10.00">/g4detectors/PHG4SiliconTrackerDetector.cc</text>
</a>
</g>
</g>
<!-- Node1&#45;&gt;Node13 -->
<g id="edge12" class="edge"><title>Node1&#45;&gt;Node13</title>
<path fill="none" stroke="midnightblue" d="M1500.04,-108.779C1656.28,-105.615 1989.68,-94.3002 2268,-54 2279.75,-52.2987 2292.08,-50.0337 2304.12,-47.5477"/>
<polygon fill="midnightblue" stroke="midnightblue" points="1499.93,-105.281 1490.01,-108.976 1500.07,-112.279 1499.93,-105.281"/>
</g>
<!-- Node14 -->
<g id="node14" class="node"><title>Node14</title>
<g id="a_node14"><a xlink:href="../../d4/dda/PHG4SiliconTrackerSteppingAction_8cc.html" target="_top" xlink:title="/home/yuhw/GitHub/SeaQuest\l/seaquest&#45;offline/simulation\l/g4detectors/PHG4SiliconTrackerStepping\lAction.cc">
<polygon fill="none" stroke="black" points="2507.5,-1 2507.5,-53 2708.5,-53 2708.5,-1 2507.5,-1"/>
<text text-anchor="start" x="2515.5" y="-41" font-family="FreeSans" font-size="10.00">/home/yuhw/GitHub/SeaQuest</text>
<text text-anchor="start" x="2515.5" y="-30" font-family="FreeSans" font-size="10.00">/seaquest&#45;offline/simulation</text>
<text text-anchor="start" x="2515.5" y="-19" font-family="FreeSans" font-size="10.00">/g4detectors/PHG4SiliconTrackerStepping</text>
<text text-anchor="middle" x="2608" y="-8" font-family="FreeSans" font-size="10.00">Action.cc</text>
</a>
</g>
</g>
<!-- Node1&#45;&gt;Node14 -->
<g id="edge13" class="edge"><title>Node1&#45;&gt;Node14</title>
<path fill="none" stroke="midnightblue" d="M1500.17,-110.768C1686.37,-111.195 2129.68,-106.065 2497,-54 2500.43,-53.5139 2503.91,-52.9728 2507.41,-52.3864"/>
<polygon fill="midnightblue" stroke="midnightblue" points="1500.17,-107.268 1490.16,-110.739 1500.15,-114.268 1500.17,-107.268"/>
</g>
<!-- Node15 -->
<g id="node15" class="node"><title>Node15</title>
<g id="a_node15"><a xlink:href="../../d6/d01/PHG4SiliconTrackerSubsystem_8cc.html" target="_top" xlink:title="/home/yuhw/GitHub/SeaQuest\l/seaquest&#45;offline/simulation\l/g4detectors/PHG4SiliconTrackerSubsystem.cc">
<polygon fill="none" stroke="black" points="2727,-6.5 2727,-47.5 2951,-47.5 2951,-6.5 2727,-6.5"/>
<text text-anchor="start" x="2735" y="-35.5" font-family="FreeSans" font-size="10.00">/home/yuhw/GitHub/SeaQuest</text>
<text text-anchor="start" x="2735" y="-24.5" font-family="FreeSans" font-size="10.00">/seaquest&#45;offline/simulation</text>
<text text-anchor="middle" x="2839" y="-13.5" font-family="FreeSans" font-size="10.00">/g4detectors/PHG4SiliconTrackerSubsystem.cc</text>
</a>
</g>
</g>
<!-- Node1&#45;&gt;Node15 -->
<g id="edge14" class="edge"><title>Node1&#45;&gt;Node15</title>
<path fill="none" stroke="midnightblue" d="M1500.48,-108.113C1755.18,-102.43 2480.93,-84.0027 2717,-54 2729.89,-52.3618 2743.44,-50.0633 2756.63,-47.504"/>
<polygon fill="midnightblue" stroke="midnightblue" points="1500.08,-104.621 1490.16,-108.342 1500.23,-111.619 1500.08,-104.621"/>
</g>
</g>
</svg>
