<?xml version="1.0" encoding="UTF-8" standalone="no"?>
<!DOCTYPE svg PUBLIC "-//W3C//DTD SVG 1.1//EN"
 "http://www.w3.org/Graphics/SVG/1.1/DTD/svg11.dtd">
<!-- Generated by graphviz version 2.30.1 (20200930.0103)
 -->
<!-- Title: PHG4CellDefs::has_binning Pages: 1 -->
<svg width="304pt" height="66pt"
 viewBox="0.00 0.00 304.00 66.00" xmlns="http://www.w3.org/2000/svg" xmlns:xlink="http://www.w3.org/1999/xlink">
<g id="graph0" class="graph" transform="scale(1 1) rotate(0) translate(4 62)">
<title>PHG4CellDefs::has_binning</title>
<!-- Node1 -->
<g id="node1" class="node"><title>Node1</title>
<polygon fill="#bfbfbf" stroke="black" points="0,-19.5 0,-38.5 134,-38.5 134,-19.5 0,-19.5"/>
<text text-anchor="middle" x="67" y="-26.5" font-family="FreeSans" font-size="10.00">PHG4CellDefs::has_binning</text>
</g>
<!-- Node2 -->
<g id="node2" class="node"><title>Node2</title>
<g id="a_node2"><a xlink:href="../../de/d5e/classPHG4Cellv1.html#ae67c80f5eb3f0e81cc34e0edefe194c6" target="_top" xlink:title="PHG4Cellv1::has_binning">
<polygon fill="none" stroke="black" points="170.5,-38.5 170.5,-57.5 295.5,-57.5 295.5,-38.5 170.5,-38.5"/>
<text text-anchor="middle" x="233" y="-45.5" font-family="FreeSans" font-size="10.00">PHG4Cellv1::has_binning</text>
</a>
</g>
</g>
<!-- Node1&#45;&gt;Node2 -->
<g id="edge1" class="edge"><title>Node1&#45;&gt;Node2</title>
<path fill="none" stroke="midnightblue" d="M144.369,-37.8477C153.058,-38.8543 161.831,-39.8707 170.296,-40.8514"/>
<polygon fill="midnightblue" stroke="midnightblue" points="144.569,-34.3474 134.232,-36.6733 143.763,-41.3009 144.569,-34.3474"/>
</g>
<!-- Node3 -->
<g id="node3" class="node"><title>Node3</title>
<g id="a_node3"><a xlink:href="../../da/d1d/classPHG4Cellv2.html#a70c822d8b9b82a4280a9cf4a04db16d6" target="_top" xlink:title="PHG4Cellv2::has_binning">
<polygon fill="none" stroke="black" points="170.5,-0.5 170.5,-19.5 295.5,-19.5 295.5,-0.5 170.5,-0.5"/>
<text text-anchor="middle" x="233" y="-7.5" font-family="FreeSans" font-size="10.00">PHG4Cellv2::has_binning</text>
</a>
</g>
</g>
<!-- Node1&#45;&gt;Node3 -->
<g id="edge2" class="edge"><title>Node1&#45;&gt;Node3</title>
<path fill="none" stroke="midnightblue" d="M144.369,-20.1523C153.058,-19.1457 161.831,-18.1293 170.296,-17.1486"/>
<polygon fill="midnightblue" stroke="midnightblue" points="143.763,-16.6991 134.232,-21.3267 144.569,-23.6526 143.763,-16.6991"/>
</g>
</g>
</svg>
