<?xml version="1.0" encoding="UTF-8" standalone="no"?>
<!DOCTYPE svg PUBLIC "-//W3C//DTD SVG 1.1//EN"
 "http://www.w3.org/Graphics/SVG/1.1/DTD/svg11.dtd">
<!-- Generated by graphviz version 2.36.0 (20140111.2315)
 -->
<!-- Title: PHG4Cell::add_edep Pages: 1 -->
<svg width="290pt" height="87pt"
 viewBox="0.00 0.00 290.00 87.00" xmlns="http://www.w3.org/2000/svg" xmlns:xlink="http://www.w3.org/1999/xlink">
<g id="graph0" class="graph" transform="scale(1 1) rotate(0) translate(4 83)">
<title>PHG4Cell::add_edep</title>
<!-- Node1 -->
<g id="node1" class="node"><title>Node1</title>
<polygon fill="#bfbfbf" stroke="black" points="0.5,-29.5 0.5,-48.5 107.5,-48.5 107.5,-29.5 0.5,-29.5"/>
<text text-anchor="middle" x="54" y="-36.5" font-family="FreeSans" font-size="10.00">PHG4Cell::add_edep</text>
</g>
<!-- Node2 -->
<g id="node2" class="node"><title>Node2</title>
<g id="a_node2"><a xlink:href="../../d5/dd0/classPHG4CylinderCellReco.html#acd9297cbac172c726c8da55f875a824a" target="_top" xlink:title="event processing ">
<polygon fill="none" stroke="black" points="154.5,-49 154.5,-79 271.5,-79 271.5,-49 154.5,-49"/>
<text text-anchor="start" x="162.5" y="-67" font-family="FreeSans" font-size="10.00">PHG4CylinderCellReco</text>
<text text-anchor="middle" x="213" y="-56" font-family="FreeSans" font-size="10.00">::process_event</text>
</a>
</g>
</g>
<!-- Node1&#45;&gt;Node2 -->
<g id="edge1" class="edge"><title>Node1&#45;&gt;Node2</title>
<path fill="none" stroke="midnightblue" d="M117.712,-48.986C129.79,-50.9093 142.388,-52.9154 154.298,-54.8118"/>
<polygon fill="midnightblue" stroke="midnightblue" points="118.141,-45.5104 107.715,-47.3942 117.041,-52.4233 118.141,-45.5104"/>
</g>
<!-- Node3 -->
<g id="node3" class="node"><title>Node3</title>
<g id="a_node3"><a xlink:href="../../dc/d94/classPHG4CylinderCellTPCReco.html#a75c377807a2b0585b5bad470cb2cf9f5" target="_top" xlink:title="event processing ">
<polygon fill="none" stroke="black" points="144.5,-0 144.5,-30 281.5,-30 281.5,-0 144.5,-0"/>
<text text-anchor="start" x="152.5" y="-18" font-family="FreeSans" font-size="10.00">PHG4CylinderCellTPCReco</text>
<text text-anchor="middle" x="213" y="-7" font-family="FreeSans" font-size="10.00">::process_event</text>
</a>
</g>
</g>
<!-- Node1&#45;&gt;Node3 -->
<g id="edge2" class="edge"><title>Node1&#45;&gt;Node3</title>
<path fill="none" stroke="midnightblue" d="M117.816,-29.3976C126.549,-28.0626 135.551,-26.6864 144.368,-25.3387"/>
<polygon fill="midnightblue" stroke="midnightblue" points="117.072,-25.9706 107.715,-30.9416 118.13,-32.8902 117.072,-25.9706"/>
</g>
</g>
</svg>
