<?xml version="1.0" encoding="UTF-8" standalone="no"?>
<!DOCTYPE svg PUBLIC "-//W3C//DTD SVG 1.1//EN"
 "http://www.w3.org/Graphics/SVG/1.1/DTD/svg11.dtd">
<!-- Generated by graphviz version 2.44.0 (0)
 -->
<!-- Title: VertexFit::VertexFit Pages: 1 -->
<svg width="304pt" height="104pt"
 viewBox="0.00 0.00 304.00 104.00" xmlns="http://www.w3.org/2000/svg" xmlns:xlink="http://www.w3.org/1999/xlink">
<g id="graph0" class="graph" transform="scale(1 1) rotate(0) translate(4 100)">
<title>VertexFit::VertexFit</title>
<!-- Node1 -->
<g id="node1" class="node">
<title>Node1</title>
<g id="a_node1"><a xlink:title=" ">
<polygon fill="#bfbfbf" stroke="black" points="0,-38.5 0,-57.5 110,-57.5 110,-38.5 0,-38.5"/>
<text text-anchor="middle" x="55" y="-45.5" font-family="FreeSans" font-size="10.00">VertexFit::VertexFit</text>
</a>
</g>
</g>
<!-- Node2 -->
<g id="node2" class="node">
<title>Node2</title>
<g id="a_node2"><a xlink:href="../../df/dd0/classNode.html#a4e6f7c1350b1445ca9b9221cb709dbcb" target="_top" xlink:title=" ">
<polygon fill="none" stroke="black" points="155.5,-76.5 155.5,-95.5 286.5,-95.5 286.5,-76.5 155.5,-76.5"/>
<text text-anchor="middle" x="221" y="-83.5" font-family="FreeSans" font-size="10.00">Node::getMeasurement</text>
</a>
</g>
</g>
<!-- Node1&#45;&gt;Node2 -->
<g id="edge1" class="edge">
<title>Node1&#45;&gt;Node2</title>
<path fill="none" stroke="midnightblue" d="M97.38,-57.59C119.12,-62.63 145.96,-68.84 168.97,-74.18"/>
<polygon fill="midnightblue" stroke="midnightblue" points="168.38,-77.63 178.91,-76.48 169.96,-70.81 168.38,-77.63"/>
</g>
<!-- Node3 -->
<g id="node3" class="node">
<title>Node3</title>
<g id="a_node3"><a xlink:href="../../df/dd0/classNode.html#aba6dd9d4c392f430d1c93d4af381dbaa" target="_top" xlink:title=" ">
<polygon fill="none" stroke="black" points="146,-38.5 146,-57.5 296,-57.5 296,-38.5 146,-38.5"/>
<text text-anchor="middle" x="221" y="-45.5" font-family="FreeSans" font-size="10.00">Node::getMeasurementCov</text>
</a>
</g>
</g>
<!-- Node1&#45;&gt;Node3 -->
<g id="edge2" class="edge">
<title>Node1&#45;&gt;Node3</title>
<path fill="none" stroke="midnightblue" d="M110.15,-48C118.4,-48 127.08,-48 135.79,-48"/>
<polygon fill="midnightblue" stroke="midnightblue" points="136,-51.5 146,-48 136,-44.5 136,-51.5"/>
</g>
<!-- Node4 -->
<g id="node4" class="node">
<title>Node4</title>
<g id="a_node4"><a xlink:href="../../df/dd0/classNode.html#ab276ce7246c8434b058236346dc121fd" target="_top" xlink:title=" ">
<polygon fill="none" stroke="black" points="167.5,-0.5 167.5,-19.5 274.5,-19.5 274.5,-0.5 167.5,-0.5"/>
<text text-anchor="middle" x="221" y="-7.5" font-family="FreeSans" font-size="10.00">Node::getProjector</text>
</a>
</g>
</g>
<!-- Node1&#45;&gt;Node4 -->
<g id="edge3" class="edge">
<title>Node1&#45;&gt;Node4</title>
<path fill="none" stroke="midnightblue" d="M97.38,-38.41C119.12,-33.37 145.96,-27.16 168.97,-21.82"/>
<polygon fill="midnightblue" stroke="midnightblue" points="169.96,-25.19 178.91,-19.52 168.38,-18.37 169.96,-25.19"/>
</g>
</g>
</svg>
