<?xml version="1.0" encoding="UTF-8" standalone="no"?>
<!DOCTYPE svg PUBLIC "-//W3C//DTD SVG 1.1//EN"
 "http://www.w3.org/Graphics/SVG/1.1/DTD/svg11.dtd">
<!-- Generated by graphviz version 2.30.1 (20200930.0103)
 -->
<!-- Title: TriggerAnalyzer::acceptEvent Pages: 1 -->
<svg width="442pt" height="28pt"
 viewBox="0.00 0.00 442.00 28.00" xmlns="http://www.w3.org/2000/svg" xmlns:xlink="http://www.w3.org/1999/xlink">
<g id="graph0" class="graph" transform="scale(1 1) rotate(0) translate(4 24)">
<title>TriggerAnalyzer::acceptEvent</title>
<!-- Node1 -->
<g id="node1" class="node"><title>Node1</title>
<polygon fill="#bfbfbf" stroke="black" points="0.5,-0.5 0.5,-19.5 141.5,-19.5 141.5,-0.5 0.5,-0.5"/>
<text text-anchor="middle" x="71" y="-7.5" font-family="FreeSans" font-size="10.00">TriggerAnalyzer::acceptEvent</text>
</g>
<!-- Node2 -->
<g id="node2" class="node"><title>Node2</title>
<g id="a_node2"><a xlink:href="../../d5/d72/classTriggerRoad.html#affb1214bf3dda5cbeb9ff171ab681641" target="_top" target="_top" target="_top" xlink:title="TriggerRoad::getRoadID">
<polygon fill="none" stroke="black" points="178.5,-0.5 178.5,-19.5 297.5,-19.5 297.5,-0.5 178.5,-0.5"/>
<text text-anchor="middle" x="238" y="-7.5" font-family="FreeSans" font-size="10.00">TriggerRoad::getRoadID</text>
</a>
</g>
</g>
<!-- Node1&#45;&gt;Node2 -->
<g id="edge1" class="edge"><title>Node1&#45;&gt;Node2</title>
<path fill="none" stroke="midnightblue" d="M141.975,-10C150.687,-10 159.59,-10 168.282,-10"/>
<polygon fill="midnightblue" stroke="midnightblue" points="168.366,-13.5001 178.366,-10 168.366,-6.5001 168.366,-13.5001"/>
</g>
<!-- Node3 -->
<g id="node3" class="node"><title>Node3</title>
<g id="a_node3"><a xlink:href="../../d5/d72/classTriggerRoad.html#a54f9154ab88c8742e9ed4d8df493c9db" target="_top" target="_top" target="_top" xlink:title="TriggerRoad::getTB">
<polygon fill="none" stroke="black" points="334,-0.5 334,-19.5 434,-19.5 434,-0.5 334,-0.5"/>
<text text-anchor="middle" x="384" y="-7.5" font-family="FreeSans" font-size="10.00">TriggerRoad::getTB</text>
</a>
</g>
</g>
<!-- Node2&#45;&gt;Node3 -->
<g id="edge2" class="edge"><title>Node2&#45;&gt;Node3</title>
<path fill="none" stroke="midnightblue" d="M297.57,-10C306.095,-10 314.881,-10 323.426,-10"/>
<polygon fill="midnightblue" stroke="midnightblue" points="323.695,-13.5001 333.695,-10 323.695,-6.5001 323.695,-13.5001"/>
</g>
</g>
</svg>
