<?xml version="1.0" encoding="UTF-8" standalone="no"?>
<!DOCTYPE svg PUBLIC "-//W3C//DTD SVG 1.1//EN"
 "http://www.w3.org/Graphics/SVG/1.1/DTD/svg11.dtd">
<!-- Generated by graphviz version 2.40.1 (20161225.0304)
 -->
<!-- Title: Pythia6::GetKFDP Pages: 1 -->
<svg width="1223pt" height="145pt"
 viewBox="0.00 0.00 1223.00 145.50" xmlns="http://www.w3.org/2000/svg" xmlns:xlink="http://www.w3.org/1999/xlink">
<g id="graph0" class="graph" transform="scale(1 1) rotate(0) translate(4 141.5)">
<title>Pythia6::GetKFDP</title>
<!-- Node21 -->
<g id="node1" class="node">
<title>Node21</title>
<polygon fill="#bfbfbf" stroke="#000000" points="0,-46 0,-65 95,-65 95,-46 0,-46"/>
<text text-anchor="middle" x="47.5" y="-53" font-family="FreeSans" font-size="10.00" fill="#000000">Pythia6::GetKFDP</text>
</g>
<!-- Node22 -->
<g id="node2" class="node">
<title>Node22</title>
<g id="a_node2"><a xlink:href="../../d8/d46/classG4Pythia6Decayer.html#a6f1f6c3050d58e4ff10422cf99dced0b" target="_top" xlink:title="G4Pythia6Decayer::ForceHadronicD">
<polygon fill="none" stroke="#000000" points="131,-65 131,-84 302,-84 302,-65 131,-65"/>
<text text-anchor="middle" x="216.5" y="-72" font-family="FreeSans" font-size="10.00" fill="#000000">G4Pythia6Decayer::ForceHadronicD</text>
</a>
</g>
</g>
<!-- Node21&#45;&gt;Node22 -->
<g id="edge1" class="edge">
<title>Node21&#45;&gt;Node22</title>
<path fill="none" stroke="#191970" d="M104.9915,-61.9635C113.6687,-62.9391 122.7705,-63.9624 131.8743,-64.9859"/>
<polygon fill="#191970" stroke="#191970" points="105.3541,-58.4823 95.0257,-60.8431 104.572,-65.4385 105.3541,-58.4823"/>
</g>
<!-- Node30 -->
<g id="node10" class="node">
<title>Node30</title>
<g id="a_node10"><a xlink:href="../../d8/d46/classG4Pythia6Decayer.html#aaf4e00bbb581e2a9ccf2771f163a77b9" target="_top" xlink:title="G4Pythia6Decayer::ForceOmega">
<polygon fill="none" stroke="#000000" points="137.5,-27 137.5,-46 295.5,-46 295.5,-27 137.5,-27"/>
<text text-anchor="middle" x="216.5" y="-34" font-family="FreeSans" font-size="10.00" fill="#000000">G4Pythia6Decayer::ForceOmega</text>
</a>
</g>
</g>
<!-- Node21&#45;&gt;Node30 -->
<g id="edge13" class="edge">
<title>Node21&#45;&gt;Node30</title>
<path fill="none" stroke="#191970" d="M105.1642,-49.017C115.5299,-47.8517 126.4966,-46.6187 137.3454,-45.399"/>
<polygon fill="#191970" stroke="#191970" points="104.572,-45.5615 95.0257,-50.1569 105.3541,-52.5177 104.572,-45.5615"/>
</g>
<!-- Node23 -->
<g id="node3" class="node">
<title>Node23</title>
<g id="a_node3"><a xlink:href="../../d8/d46/classG4Pythia6Decayer.html#a275808d1bb8f7f3573a88607eb1797a9" target="_top" xlink:title="G4Pythia6Decayer::ForceDecay">
<polygon fill="none" stroke="#000000" points="338,-46 338,-65 491,-65 491,-46 338,-46"/>
<text text-anchor="middle" x="414.5" y="-53" font-family="FreeSans" font-size="10.00" fill="#000000">G4Pythia6Decayer::ForceDecay</text>
</a>
</g>
</g>
<!-- Node22&#45;&gt;Node23 -->
<g id="edge2" class="edge">
<title>Node22&#45;&gt;Node23</title>
<path fill="none" stroke="#191970" d="M312.2047,-65.3162C320.7582,-64.4954 329.3445,-63.6715 337.7078,-62.8689"/>
<polygon fill="#191970" stroke="#191970" points="311.814,-61.8375 302.1941,-66.2768 312.4827,-68.8055 311.814,-61.8375"/>
</g>
<!-- Node29 -->
<g id="node9" class="node">
<title>Node29</title>
<g id="a_node9"><a xlink:href="../../d8/d46/classG4Pythia6Decayer.html#ad931e2ff605120a90b2ee9ffe5cb40af" target="_top" xlink:title="G4Pythia6Decayer::SetVerbose\lLevel">
<polygon fill="none" stroke="#000000" points="720.5,-47.5 720.5,-77.5 871.5,-77.5 871.5,-47.5 720.5,-47.5"/>
<text text-anchor="start" x="728.5" y="-65.5" font-family="FreeSans" font-size="10.00" fill="#000000">G4Pythia6Decayer::SetVerbose</text>
<text text-anchor="middle" x="796" y="-54.5" font-family="FreeSans" font-size="10.00" fill="#000000">Level</text>
</a>
</g>
</g>
<!-- Node22&#45;&gt;Node29 -->
<g id="edge12" class="edge">
<title>Node22&#45;&gt;Node29</title>
<path fill="none" stroke="#191970" d="M254.4004,-87.2469C333.3242,-111.9223 520.6389,-160.7288 673,-124.5 710.9219,-115.4828 750.4182,-92.813 774.11,-77.532"/>
<polygon fill="#191970" stroke="#191970" points="255.0288,-83.774 244.4383,-84.0791 252.9075,-90.4449 255.0288,-83.774"/>
</g>
<!-- Node24 -->
<g id="node4" class="node">
<title>Node24</title>
<g id="a_node4"><a xlink:href="../../d8/d46/classG4Pythia6Decayer.html#a9e2c2eb2d96530707e459567d49cbc70" target="_top" xlink:title="G4Pythia6Decayer::ForceDecayType">
<polygon fill="none" stroke="#000000" points="709,-8 709,-27 883,-27 883,-8 709,-8"/>
<text text-anchor="middle" x="796" y="-15" font-family="FreeSans" font-size="10.00" fill="#000000">G4Pythia6Decayer::ForceDecayType</text>
</a>
</g>
</g>
<!-- Node23&#45;&gt;Node24 -->
<g id="edge3" class="edge">
<title>Node23&#45;&gt;Node24</title>
<path fill="none" stroke="#191970" d="M501.4021,-46.844C563.4466,-40.6639 646.5765,-32.3836 708.7089,-26.1948"/>
<polygon fill="#191970" stroke="#191970" points="500.8471,-43.3818 491.2433,-47.8558 501.541,-50.3474 500.8471,-43.3818"/>
</g>
<!-- Node28 -->
<g id="node8" class="node">
<title>Node28</title>
<g id="a_node8"><a xlink:href="../../d8/d46/classG4Pythia6Decayer.html#a127f96a4b08c66c526d481757ea10aa0" target="_top" xlink:title="G4Pythia6Decayer::G4Pythia6\lDecayer">
<polygon fill="none" stroke="#000000" points="527,-84.5 527,-114.5 673,-114.5 673,-84.5 527,-84.5"/>
<text text-anchor="start" x="535" y="-102.5" font-family="FreeSans" font-size="10.00" fill="#000000">G4Pythia6Decayer::G4Pythia6</text>
<text text-anchor="middle" x="600" y="-91.5" font-family="FreeSans" font-size="10.00" fill="#000000">Decayer</text>
</a>
</g>
</g>
<!-- Node23&#45;&gt;Node28 -->
<g id="edge7" class="edge">
<title>Node23&#45;&gt;Node28</title>
<path fill="none" stroke="#191970" d="M464.602,-67.384C486.7314,-72.6331 513.0014,-78.8642 536.4858,-84.4346"/>
<polygon fill="#191970" stroke="#191970" points="465.2886,-63.9498 454.7507,-65.0473 463.673,-70.7609 465.2886,-63.9498"/>
</g>
<!-- Node23&#45;&gt;Node29 -->
<g id="edge11" class="edge">
<title>Node23&#45;&gt;Node29</title>
<path fill="none" stroke="#191970" d="M501.6226,-57.0986C567.6128,-58.3094 657.3609,-59.9562 720.3558,-61.112"/>
<polygon fill="#191970" stroke="#191970" points="501.3059,-53.5923 491.2433,-56.9081 501.1774,-60.5911 501.3059,-53.5923"/>
</g>
<!-- Node25 -->
<g id="node5" class="node">
<title>Node25</title>
<g id="a_node5"><a xlink:href="../../db/d73/classP6DExtDecayerPhysics.html#a4f01f2ff0034668cfb45591372d8f1b4" target="_top" xlink:title="P6DExtDecayerPhysics\l::ConstructProcess">
<polygon fill="none" stroke="#000000" points="932,-49.5 932,-79.5 1049,-79.5 1049,-49.5 932,-49.5"/>
<text text-anchor="start" x="940" y="-67.5" font-family="FreeSans" font-size="10.00" fill="#000000">P6DExtDecayerPhysics</text>
<text text-anchor="middle" x="990.5" y="-56.5" font-family="FreeSans" font-size="10.00" fill="#000000">::ConstructProcess</text>
</a>
</g>
</g>
<!-- Node24&#45;&gt;Node25 -->
<g id="edge4" class="edge">
<title>Node24&#45;&gt;Node25</title>
<path fill="none" stroke="#191970" d="M848.3711,-29.3598C859.7947,-31.9969 871.8117,-34.8092 883,-37.5 898.903,-41.3246 916.0967,-45.5861 931.9708,-49.5726"/>
<polygon fill="#191970" stroke="#191970" points="849.0506,-25.9248 838.5206,-27.0949 847.482,-32.7468 849.0506,-25.9248"/>
</g>
<!-- Node27 -->
<g id="node7" class="node">
<title>Node27</title>
<g id="a_node7"><a xlink:href="../../d4/d06/classG4Pythia6DecayerMessenger.html#af4a400cb97ecc6dcd249759951290f63" target="_top" xlink:title="G4Pythia6DecayerMessenger\l::SetNewValue">
<polygon fill="none" stroke="#000000" points="919,-.5 919,-30.5 1062,-30.5 1062,-.5 919,-.5"/>
<text text-anchor="start" x="927" y="-18.5" font-family="FreeSans" font-size="10.00" fill="#000000">G4Pythia6DecayerMessenger</text>
<text text-anchor="middle" x="990.5" y="-7.5" font-family="FreeSans" font-size="10.00" fill="#000000">::SetNewValue</text>
</a>
</g>
</g>
<!-- Node24&#45;&gt;Node27 -->
<g id="edge6" class="edge">
<title>Node24&#45;&gt;Node27</title>
<path fill="none" stroke="#191970" d="M893.1135,-16.5014C901.7346,-16.4128 910.357,-16.3241 918.7099,-16.2382"/>
<polygon fill="#191970" stroke="#191970" points="892.9735,-13.0026 883.0101,-16.6053 893.0456,-20.0022 892.9735,-13.0026"/>
</g>
<!-- Node26 -->
<g id="node6" class="node">
<title>Node26</title>
<g id="a_node6"><a xlink:href="../../db/d73/classP6DExtDecayerPhysics.html#a60668527f1682685bc35f6dfeb92bce1" target="_top" xlink:title="P6DExtDecayerPhysics\l::GetForceDecay">
<polygon fill="none" stroke="#000000" points="1098,-49.5 1098,-79.5 1215,-79.5 1215,-49.5 1098,-49.5"/>
<text text-anchor="start" x="1106" y="-67.5" font-family="FreeSans" font-size="10.00" fill="#000000">P6DExtDecayerPhysics</text>
<text text-anchor="middle" x="1156.5" y="-56.5" font-family="FreeSans" font-size="10.00" fill="#000000">::GetForceDecay</text>
</a>
</g>
</g>
<!-- Node25&#45;&gt;Node26 -->
<g id="edge5" class="edge">
<title>Node25&#45;&gt;Node26</title>
<path fill="none" stroke="#191970" d="M1059.2176,-64.5C1072.0833,-64.5 1085.421,-64.5 1097.9436,-64.5"/>
<polygon fill="#191970" stroke="#191970" points="1059.0254,-61.0001 1049.0254,-64.5 1059.0254,-68.0001 1059.0254,-61.0001"/>
</g>
<!-- Node28&#45;&gt;Node29 -->
<g id="edge8" class="edge">
<title>Node28&#45;&gt;Node29</title>
<path fill="none" stroke="#191970" d="M683.4299,-83.7505C695.6416,-81.4452 708.1621,-79.0817 720.2098,-76.8073"/>
<polygon fill="#191970" stroke="#191970" points="682.4391,-80.3756 673.2619,-85.6699 683.7376,-87.2541 682.4391,-80.3756"/>
</g>
<!-- Node29&#45;&gt;Node25 -->
<g id="edge9" class="edge">
<title>Node29&#45;&gt;Node25</title>
<path fill="none" stroke="#191970" d="M882.1348,-63.3857C898.9266,-63.5584 916.1662,-63.7356 931.8159,-63.8966"/>
<polygon fill="#191970" stroke="#191970" points="881.7912,-59.8821 871.7557,-63.279 881.7192,-66.8817 881.7912,-59.8821"/>
</g>
<!-- Node29&#45;&gt;Node27 -->
<g id="edge10" class="edge">
<title>Node29&#45;&gt;Node27</title>
<path fill="none" stroke="#191970" d="M867.977,-45.1071C887.8005,-40.3168 909.1295,-35.1628 928.3468,-30.519"/>
<polygon fill="#191970" stroke="#191970" points="866.9739,-41.7487 858.0758,-47.4997 868.6181,-48.5528 866.9739,-41.7487"/>
</g>
<!-- Node30&#45;&gt;Node23 -->
<g id="edge14" class="edge">
<title>Node30&#45;&gt;Node23</title>
<path fill="none" stroke="#191970" d="M305.7839,-45.0676C316.4627,-46.0924 327.2938,-47.1317 337.7737,-48.1374"/>
<polygon fill="#191970" stroke="#191970" points="305.8971,-41.5625 295.6085,-44.0912 305.2284,-48.5305 305.8971,-41.5625"/>
</g>
<!-- Node30&#45;&gt;Node29 -->
<g id="edge15" class="edge">
<title>Node30&#45;&gt;Node29</title>
<path fill="none" stroke="#191970" d="M305.6996,-34.5843C359.4133,-33.9076 429.1603,-33.869 491,-36.5 569.3157,-39.832 658.6369,-47.9557 720.2827,-54.2433"/>
<polygon fill="#191970" stroke="#191970" points="305.4719,-31.0869 295.5204,-34.7225 305.567,-38.0863 305.4719,-31.0869"/>
</g>
</g>
</svg>
