<?xml version="1.0" encoding="UTF-8" standalone="no"?>
<!DOCTYPE svg PUBLIC "-//W3C//DTD SVG 1.1//EN"
 "http://www.w3.org/Graphics/SVG/1.1/DTD/svg11.dtd">
<!-- Generated by graphviz version 2.40.1 (20161225.0304)
 -->
<!-- Title: /home/yuhw/GitHub/SeaQuest/e1039&#45;core/packages/jobopts_svc/JobOptsSvc.cxx Pages: 1 -->
<svg width="819pt" height="162pt"
 viewBox="0.00 0.00 819.00 162.00" xmlns="http://www.w3.org/2000/svg" xmlns:xlink="http://www.w3.org/1999/xlink">
<g id="graph0" class="graph" transform="scale(1 1) rotate(0) translate(4 158)">
<title>/home/yuhw/GitHub/SeaQuest/e1039&#45;core/packages/jobopts_svc/JobOptsSvc.cxx</title>
<!-- Node0 -->
<g id="node1" class="node">
<title>Node0</title>
<polygon fill="#bfbfbf" stroke="#000000" points="216,-112.5 216,-153.5 363,-153.5 363,-112.5 216,-112.5"/>
<text text-anchor="start" x="224" y="-141.5" font-family="FreeSans" font-size="10.00" fill="#000000">/home/yuhw/GitHub/SeaQuest</text>
<text text-anchor="start" x="224" y="-130.5" font-family="FreeSans" font-size="10.00" fill="#000000">/e1039&#45;core/packages/jobopts</text>
<text text-anchor="middle" x="289.5" y="-119.5" font-family="FreeSans" font-size="10.00" fill="#000000">_svc/JobOptsSvc.cxx</text>
</g>
<!-- Node1 -->
<g id="node2" class="node">
<title>Node1</title>
<polygon fill="none" stroke="#bfbfbf" points="0,-56.5 0,-75.5 35,-75.5 35,-56.5 0,-56.5"/>
<text text-anchor="middle" x="17.5" y="-63.5" font-family="FreeSans" font-size="10.00" fill="#000000">map</text>
</g>
<!-- Node0&#45;&gt;Node1 -->
<g id="edge1" class="edge">
<title>Node0&#45;&gt;Node1</title>
<path fill="none" stroke="#191970" d="M215.8636,-118.7427C169.0163,-109.0222 107.0147,-94.9605 44.6167,-76.0627"/>
<polygon fill="#191970" stroke="#191970" points="45.5928,-72.7012 35.006,-73.1141 43.5396,-79.3933 45.5928,-72.7012"/>
</g>
<!-- Node2 -->
<g id="node3" class="node">
<title>Node2</title>
<polygon fill="none" stroke="#bfbfbf" points="53,-56.5 53,-75.5 106,-75.5 106,-56.5 53,-56.5"/>
<text text-anchor="middle" x="79.5" y="-63.5" font-family="FreeSans" font-size="10.00" fill="#000000">iostream</text>
</g>
<!-- Node0&#45;&gt;Node2 -->
<g id="edge2" class="edge">
<title>Node0&#45;&gt;Node2</title>
<path fill="none" stroke="#191970" d="M225.0659,-112.4425C189.2113,-101.0031 145.8993,-87.1846 115.8887,-77.6097"/>
<polygon fill="#191970" stroke="#191970" points="116.8419,-74.2401 106.2511,-74.5349 114.7142,-80.9089 116.8419,-74.2401"/>
</g>
<!-- Node3 -->
<g id="node4" class="node">
<title>Node3</title>
<polygon fill="none" stroke="#bfbfbf" points="124,-56.5 124,-75.5 173,-75.5 173,-56.5 124,-56.5"/>
<text text-anchor="middle" x="148.5" y="-63.5" font-family="FreeSans" font-size="10.00" fill="#000000">fstream</text>
</g>
<!-- Node0&#45;&gt;Node3 -->
<g id="edge3" class="edge">
<title>Node0&#45;&gt;Node3</title>
<path fill="none" stroke="#191970" d="M246.0448,-112.3511C223.9319,-101.8435 197.6349,-89.3478 177.9202,-79.9798"/>
<polygon fill="#191970" stroke="#191970" points="179.3523,-76.7853 168.818,-75.6546 176.348,-83.1078 179.3523,-76.7853"/>
</g>
<!-- Node4 -->
<g id="node5" class="node">
<title>Node4</title>
<polygon fill="none" stroke="#bfbfbf" points="191.5,-56.5 191.5,-75.5 241.5,-75.5 241.5,-56.5 191.5,-56.5"/>
<text text-anchor="middle" x="216.5" y="-63.5" font-family="FreeSans" font-size="10.00" fill="#000000">sstream</text>
</g>
<!-- Node0&#45;&gt;Node4 -->
<g id="edge4" class="edge">
<title>Node0&#45;&gt;Node4</title>
<path fill="none" stroke="#191970" d="M266.8025,-112.168C256.4698,-102.6846 244.4064,-91.6127 234.6836,-82.689"/>
<polygon fill="#191970" stroke="#191970" points="236.8904,-79.9637 227.1563,-75.7805 232.1571,-85.1209 236.8904,-79.9637"/>
</g>
<!-- Node5 -->
<g id="node6" class="node">
<title>Node5</title>
<polygon fill="none" stroke="#bfbfbf" points="260,-56.5 260,-75.5 319,-75.5 319,-56.5 260,-56.5"/>
<text text-anchor="middle" x="289.5" y="-63.5" font-family="FreeSans" font-size="10.00" fill="#000000">wordexp.h</text>
</g>
<!-- Node0&#45;&gt;Node5 -->
<g id="edge5" class="edge">
<title>Node0&#45;&gt;Node5</title>
<path fill="none" stroke="#191970" d="M289.5,-112.168C289.5,-103.8226 289.5,-94.2471 289.5,-85.9879"/>
<polygon fill="#191970" stroke="#191970" points="293.0001,-85.7804 289.5,-75.7805 286.0001,-85.7805 293.0001,-85.7804"/>
</g>
<!-- Node6 -->
<g id="node7" class="node">
<title>Node6</title>
<polygon fill="none" stroke="#bfbfbf" points="337,-56.5 337,-75.5 464,-75.5 464,-56.5 337,-56.5"/>
<text text-anchor="middle" x="400.5" y="-63.5" font-family="FreeSans" font-size="10.00" fill="#000000">boost/algorithm/string.hpp</text>
</g>
<!-- Node0&#45;&gt;Node6 -->
<g id="edge6" class="edge">
<title>Node0&#45;&gt;Node6</title>
<path fill="none" stroke="#191970" d="M323.7094,-112.3511C340.4844,-102.2256 360.3181,-90.254 375.6262,-81.0139"/>
<polygon fill="#191970" stroke="#191970" points="377.7524,-83.8188 384.505,-75.6546 374.135,-77.8259 377.7524,-83.8188"/>
</g>
<!-- Node7 -->
<g id="node8" class="node">
<title>Node7</title>
<polygon fill="none" stroke="#bfbfbf" points="482,-56.5 482,-75.5 593,-75.5 593,-56.5 482,-56.5"/>
<text text-anchor="middle" x="537.5" y="-63.5" font-family="FreeSans" font-size="10.00" fill="#000000">boost/lexical_cast.hpp</text>
</g>
<!-- Node0&#45;&gt;Node7 -->
<g id="edge7" class="edge">
<title>Node0&#45;&gt;Node7</title>
<path fill="none" stroke="#191970" d="M363.2367,-113.0792C405.2611,-101.7258 456.5569,-87.8677 492.5771,-78.1364"/>
<polygon fill="#191970" stroke="#191970" points="493.5701,-81.4937 502.3111,-75.5067 491.7444,-74.736 493.5701,-81.4937"/>
</g>
<!-- Node8 -->
<g id="node9" class="node">
<title>Node8</title>
<g id="a_node9"><a xlink:href="../../da/d12/JobOptsSvc_8h.html" target="_top" xlink:title="JobOptsSvc.h">
<polygon fill="none" stroke="#000000" points="611,-56.5 611,-75.5 688,-75.5 688,-56.5 611,-56.5"/>
<text text-anchor="middle" x="649.5" y="-63.5" font-family="FreeSans" font-size="10.00" fill="#000000">JobOptsSvc.h</text>
</a>
</g>
</g>
<!-- Node0&#45;&gt;Node8 -->
<g id="edge8" class="edge">
<title>Node0&#45;&gt;Node8</title>
<path fill="none" stroke="#191970" d="M363.0375,-120.0936C424.0362,-109.2661 513.3018,-93.1415 600.901,-76.082"/>
<polygon fill="#191970" stroke="#191970" points="601.6003,-79.5117 610.744,-74.1598 600.2585,-72.6415 601.6003,-79.5117"/>
</g>
<!-- Node13 -->
<g id="node14" class="node">
<title>Node13</title>
<polygon fill="none" stroke="#bfbfbf" points="706.5,-56.5 706.5,-75.5 756.5,-75.5 756.5,-56.5 706.5,-56.5"/>
<text text-anchor="middle" x="731.5" y="-63.5" font-family="FreeSans" font-size="10.00" fill="#000000">TTree.h</text>
</g>
<!-- Node0&#45;&gt;Node13 -->
<g id="edge13" class="edge">
<title>Node0&#45;&gt;Node13</title>
<path fill="none" stroke="#191970" d="M363.0356,-126.0226C443.0055,-117.693 574.6263,-101.8213 696.4782,-75.9665"/>
<polygon fill="#191970" stroke="#191970" points="697.3138,-79.3669 706.3552,-73.844 695.843,-72.5232 697.3138,-79.3669"/>
</g>
<!-- Node9 -->
<g id="node10" class="node">
<title>Node9</title>
<polygon fill="none" stroke="#bfbfbf" points="533.5,-.5 533.5,-19.5 573.5,-19.5 573.5,-.5 533.5,-.5"/>
<text text-anchor="middle" x="553.5" y="-7.5" font-family="FreeSans" font-size="10.00" fill="#000000">string</text>
</g>
<!-- Node8&#45;&gt;Node9 -->
<g id="edge9" class="edge">
<title>Node8&#45;&gt;Node9</title>
<path fill="none" stroke="#191970" d="M632.7781,-56.2455C617.9111,-47.5731 595.9534,-34.7645 578.9142,-24.825"/>
<polygon fill="#191970" stroke="#191970" points="580.4317,-21.6582 570.0303,-19.6427 576.9045,-27.7047 580.4317,-21.6582"/>
</g>
<!-- Node10 -->
<g id="node11" class="node">
<title>Node10</title>
<polygon fill="none" stroke="#bfbfbf" points="591.5,-.5 591.5,-19.5 637.5,-19.5 637.5,-.5 591.5,-.5"/>
<text text-anchor="middle" x="614.5" y="-7.5" font-family="FreeSans" font-size="10.00" fill="#000000">TFile.h</text>
</g>
<!-- Node8&#45;&gt;Node10 -->
<g id="edge10" class="edge">
<title>Node8&#45;&gt;Node10</title>
<path fill="none" stroke="#191970" d="M643.4035,-56.2455C638.5855,-48.5367 631.7249,-37.5598 625.8968,-28.2348"/>
<polygon fill="#191970" stroke="#191970" points="628.7947,-26.2677 620.5267,-19.6427 622.8587,-29.9777 628.7947,-26.2677"/>
</g>
<!-- Node11 -->
<g id="node12" class="node">
<title>Node11</title>
<polygon fill="none" stroke="#bfbfbf" points="655.5,-.5 655.5,-19.5 711.5,-19.5 711.5,-.5 655.5,-.5"/>
<text text-anchor="middle" x="683.5" y="-7.5" font-family="FreeSans" font-size="10.00" fill="#000000">TString.h</text>
</g>
<!-- Node8&#45;&gt;Node11 -->
<g id="edge11" class="edge">
<title>Node8&#45;&gt;Node11</title>
<path fill="none" stroke="#191970" d="M655.4223,-56.2455C660.1027,-48.5367 666.7673,-37.5598 672.4289,-28.2348"/>
<polygon fill="#191970" stroke="#191970" points="675.4475,-30.007 677.6455,-19.6427 669.4639,-26.3741 675.4475,-30.007"/>
</g>
<!-- Node12 -->
<g id="node13" class="node">
<title>Node12</title>
<g id="a_node13"><a xlink:href="../../dd/de2/GlobalConsts_8h.html" target="_top" xlink:title="GlobalConsts.h">
<polygon fill="none" stroke="#000000" points="730,-.5 730,-19.5 811,-19.5 811,-.5 730,-.5"/>
<text text-anchor="middle" x="770.5" y="-7.5" font-family="FreeSans" font-size="10.00" fill="#000000">GlobalConsts.h</text>
</a>
</g>
</g>
<!-- Node8&#45;&gt;Node12 -->
<g id="edge12" class="edge">
<title>Node8&#45;&gt;Node12</title>
<path fill="none" stroke="#191970" d="M670.3006,-56.3733C689.7243,-47.3838 718.9224,-33.8706 740.7964,-23.7471"/>
<polygon fill="#191970" stroke="#191970" points="742.3656,-26.8776 749.9708,-19.5011 739.4255,-20.5249 742.3656,-26.8776"/>
</g>
</g>
</svg>
