<?xml version="1.0" encoding="UTF-8" standalone="no"?>
<!DOCTYPE svg PUBLIC "-//W3C//DTD SVG 1.1//EN"
 "http://www.w3.org/Graphics/SVG/1.1/DTD/svg11.dtd">
<!-- Generated by graphviz version 2.30.1 (20180413.0232)
 -->
<!-- Title: PHG4TruthInfoContainer::GetVtx Pages: 1 -->
<svg width="454pt" height="256pt"
 viewBox="0.00 0.00 454.00 256.00" xmlns="http://www.w3.org/2000/svg" xmlns:xlink="http://www.w3.org/1999/xlink">
<g id="graph0" class="graph" transform="scale(1 1) rotate(0) translate(4 252)">
<title>PHG4TruthInfoContainer::GetVtx</title>
<!-- Node1 -->
<g id="node1" class="node"><title>Node1</title>
<polygon fill="#bfbfbf" stroke="black" points="0.5,-98 0.5,-128 123.5,-128 123.5,-98 0.5,-98"/>
<text text-anchor="start" x="8.5" y="-116" font-family="FreeSans" font-size="10.00">PHG4TruthInfoContainer</text>
<text text-anchor="middle" x="62" y="-105" font-family="FreeSans" font-size="10.00">::GetVtx</text>
</g>
<!-- Node2 -->
<g id="node2" class="node"><title>Node2</title>
<g id="a_node2"><a xlink:href="../../df/d39/classTruthEval.html#a81f42e26bc57120814b56c5241c495e3" target="_top" xlink:title="TruthEval::process\l_event">
<polygon fill="none" stroke="black" points="178.5,-218 178.5,-248 273.5,-248 273.5,-218 178.5,-218"/>
<text text-anchor="start" x="186.5" y="-236" font-family="FreeSans" font-size="10.00">TruthEval::process</text>
<text text-anchor="middle" x="226" y="-225" font-family="FreeSans" font-size="10.00">_event</text>
</a>
</g>
</g>
<!-- Node1&#45;&gt;Node2 -->
<g id="edge1" class="edge"><title>Node1&#45;&gt;Node2</title>
<path fill="none" stroke="midnightblue" d="M81.5883,-135.959C99.7143,-157.092 129.012,-188.091 160,-208 165.798,-211.725 172.237,-215.031 178.743,-217.919"/>
<polygon fill="midnightblue" stroke="midnightblue" points="84.101,-133.509 74.9827,-128.114 78.7463,-138.018 84.101,-133.509"/>
</g>
<!-- Node3 -->
<g id="node3" class="node"><title>Node3</title>
<g id="a_node3"><a xlink:href="../../d4/dc9/classPHG4DSTReader.html#aa32c5027cd9c3e4d667a0e84d7243412" target="_top" xlink:title="event processing method ">
<polygon fill="none" stroke="black" points="160.5,-169 160.5,-199 291.5,-199 291.5,-169 160.5,-169"/>
<text text-anchor="start" x="168.5" y="-187" font-family="FreeSans" font-size="10.00">PHG4DSTReader::process</text>
<text text-anchor="middle" x="226" y="-176" font-family="FreeSans" font-size="10.00">_event</text>
</a>
</g>
</g>
<!-- Node1&#45;&gt;Node3 -->
<g id="edge2" class="edge"><title>Node1&#45;&gt;Node3</title>
<path fill="none" stroke="midnightblue" d="M102.628,-132.625C120.083,-141.052 140.921,-150.821 160,-159 167.779,-162.335 176.163,-165.715 184.241,-168.867"/>
<polygon fill="midnightblue" stroke="midnightblue" points="103.836,-129.32 93.3118,-128.099 100.778,-135.617 103.836,-129.32"/>
</g>
<!-- Node4 -->
<g id="node4" class="node"><title>Node4</title>
<g id="a_node4"><a xlink:href="../../dd/d9d/classPHG4TruthEventAction.html#ae3f2e6fb721a5bf18566688160ccc273" target="_top" xlink:title="PHG4TruthEventAction\l::ProcessShowers">
<polygon fill="none" stroke="black" points="167.5,-120 167.5,-150 284.5,-150 284.5,-120 167.5,-120"/>
<text text-anchor="start" x="175.5" y="-138" font-family="FreeSans" font-size="10.00">PHG4TruthEventAction</text>
<text text-anchor="middle" x="226" y="-127" font-family="FreeSans" font-size="10.00">::ProcessShowers</text>
</a>
</g>
</g>
<!-- Node1&#45;&gt;Node4 -->
<g id="edge3" class="edge"><title>Node1&#45;&gt;Node4</title>
<path fill="none" stroke="midnightblue" d="M133.944,-122.634C145.113,-124.151 156.542,-125.703 167.362,-127.173"/>
<polygon fill="midnightblue" stroke="midnightblue" points="134.164,-119.132 123.784,-121.255 133.222,-126.069 134.164,-119.132"/>
</g>
<!-- Node6 -->
<g id="node6" class="node"><title>Node6</title>
<g id="a_node6"><a xlink:href="../../de/d2f/classTrkEval.html#a2e4c91aacd41057f331a7b236f4d4958" target="_top" xlink:title="TrkEval::RecoEval">
<polygon fill="none" stroke="black" points="179,-81.5 179,-100.5 273,-100.5 273,-81.5 179,-81.5"/>
<text text-anchor="middle" x="226" y="-88.5" font-family="FreeSans" font-size="10.00">TrkEval::RecoEval</text>
</a>
</g>
</g>
<!-- Node1&#45;&gt;Node6 -->
<g id="edge5" class="edge"><title>Node1&#45;&gt;Node6</title>
<path fill="none" stroke="midnightblue" d="M133.726,-103.395C149.001,-101.321 164.77,-99.1793 178.815,-97.272"/>
<polygon fill="midnightblue" stroke="midnightblue" points="133.222,-99.9315 123.784,-104.745 134.164,-106.868 133.222,-99.9315"/>
</g>
<!-- Node8 -->
<g id="node8" class="node"><title>Node8</title>
<g id="a_node8"><a xlink:href="../../de/d2f/classTrkEval.html#a0fe4bff3e37b8f0884e24ea933c43c60" target="_top" xlink:title="TrkEval::TruthEval">
<polygon fill="none" stroke="black" points="179,-43.5 179,-62.5 273,-62.5 273,-43.5 179,-43.5"/>
<text text-anchor="middle" x="226" y="-50.5" font-family="FreeSans" font-size="10.00">TrkEval::TruthEval</text>
</a>
</g>
</g>
<!-- Node1&#45;&gt;Node8 -->
<g id="edge7" class="edge"><title>Node1&#45;&gt;Node8</title>
<path fill="none" stroke="midnightblue" d="M105.399,-93.8246C122.226,-86.5458 141.859,-78.4609 160,-72 169.525,-68.6077 179.986,-65.3504 189.679,-62.5202"/>
<polygon fill="midnightblue" stroke="midnightblue" points="103.61,-90.7869 95.8482,-97.9988 106.413,-97.201 103.61,-90.7869"/>
</g>
<!-- Node9 -->
<g id="node9" class="node"><title>Node9</title>
<g id="a_node9"><a xlink:href="../../de/d1e/classPatternDBGen.html#a56101ce12e7222017e64f8e3c45eb953" target="_top" xlink:title="PatternDBGen::TruthEval">
<polygon fill="none" stroke="black" points="163.5,-5.5 163.5,-24.5 288.5,-24.5 288.5,-5.5 163.5,-5.5"/>
<text text-anchor="middle" x="226" y="-12.5" font-family="FreeSans" font-size="10.00">PatternDBGen::TruthEval</text>
</a>
</g>
</g>
<!-- Node1&#45;&gt;Node9 -->
<g id="edge9" class="edge"><title>Node1&#45;&gt;Node9</title>
<path fill="none" stroke="midnightblue" d="M85.0804,-90.6229C103.62,-72.9819 131.571,-48.9427 160,-34 167.181,-30.2256 175.213,-27.1056 183.115,-24.5614"/>
<polygon fill="midnightblue" stroke="midnightblue" points="82.4778,-88.2714 77.7371,-97.7464 87.3518,-93.2958 82.4778,-88.2714"/>
</g>
<!-- Node5 -->
<g id="node5" class="node"><title>Node5</title>
<g id="a_node5"><a xlink:href="../../dd/d9d/classPHG4TruthEventAction.html#aadf84e52ab9bcf0b8fb892c626b53c27" target="_top" xlink:title="PHG4TruthEventAction\l::EndOfEventAction">
<polygon fill="none" stroke="black" points="328.5,-120 328.5,-150 445.5,-150 445.5,-120 328.5,-120"/>
<text text-anchor="start" x="336.5" y="-138" font-family="FreeSans" font-size="10.00">PHG4TruthEventAction</text>
<text text-anchor="middle" x="387" y="-127" font-family="FreeSans" font-size="10.00">::EndOfEventAction</text>
</a>
</g>
</g>
<!-- Node4&#45;&gt;Node5 -->
<g id="edge4" class="edge"><title>Node4&#45;&gt;Node5</title>
<path fill="none" stroke="midnightblue" d="M294.98,-135C306.131,-135 317.591,-135 328.457,-135"/>
<polygon fill="midnightblue" stroke="midnightblue" points="294.852,-131.5 284.852,-135 294.852,-138.5 294.852,-131.5"/>
</g>
<!-- Node7 -->
<g id="node7" class="node"><title>Node7</title>
<g id="a_node7"><a xlink:href="../../de/d2f/classTrkEval.html#a0c626d9ee4c94abf889fa5408f1f49d1" target="_top" xlink:title="TrkEval::process_event">
<polygon fill="none" stroke="black" points="329.5,-65.5 329.5,-84.5 444.5,-84.5 444.5,-65.5 329.5,-65.5"/>
<text text-anchor="middle" x="387" y="-72.5" font-family="FreeSans" font-size="10.00">TrkEval::process_event</text>
</a>
</g>
</g>
<!-- Node6&#45;&gt;Node7 -->
<g id="edge6" class="edge"><title>Node6&#45;&gt;Node7</title>
<path fill="none" stroke="midnightblue" d="M283.511,-85.3134C298.404,-83.8147 314.475,-82.1974 329.375,-80.6981"/>
<polygon fill="midnightblue" stroke="midnightblue" points="283.016,-81.8454 273.417,-86.3291 283.717,-88.8102 283.016,-81.8454"/>
</g>
<!-- Node8&#45;&gt;Node7 -->
<g id="edge8" class="edge"><title>Node8&#45;&gt;Node7</title>
<path fill="none" stroke="midnightblue" d="M283.511,-60.8191C298.404,-62.8798 314.475,-65.1035 329.375,-67.1651"/>
<polygon fill="midnightblue" stroke="midnightblue" points="283.802,-57.3262 273.417,-59.4225 282.843,-64.2601 283.802,-57.3262"/>
</g>
<!-- Node10 -->
<g id="node10" class="node"><title>Node10</title>
<g id="a_node10"><a xlink:href="../../de/d1e/classPatternDBGen.html#a7ee5bd712a184a109f52fd67e98acf7d" target="_top" xlink:title="PatternDBGen::process\l_event">
<polygon fill="none" stroke="black" points="328.5,-0 328.5,-30 445.5,-30 445.5,-0 328.5,-0"/>
<text text-anchor="start" x="336.5" y="-18" font-family="FreeSans" font-size="10.00">PatternDBGen::process</text>
<text text-anchor="middle" x="387" y="-7" font-family="FreeSans" font-size="10.00">_event</text>
</a>
</g>
</g>
<!-- Node9&#45;&gt;Node10 -->
<g id="edge10" class="edge"><title>Node9&#45;&gt;Node10</title>
<path fill="none" stroke="midnightblue" d="M299.084,-15C308.905,-15 318.879,-15 328.399,-15"/>
<polygon fill="midnightblue" stroke="midnightblue" points="298.929,-11.5001 288.929,-15 298.929,-18.5001 298.929,-11.5001"/>
</g>
</g>
</svg>
