<?xml version="1.0" encoding="UTF-8" standalone="no"?>
<!DOCTYPE svg PUBLIC "-//W3C//DTD SVG 1.1//EN"
 "http://www.w3.org/Graphics/SVG/1.1/DTD/svg11.dtd">
<!-- Generated by graphviz version 2.40.1 (20161225.0304)
 -->
<!-- Title: Fun4AllEventOutStream Pages: 1 -->
<svg width="854pt" height="230pt"
 viewBox="0.00 0.00 854.00 230.00" xmlns="http://www.w3.org/2000/svg" xmlns:xlink="http://www.w3.org/1999/xlink">
<g id="graph0" class="graph" transform="scale(1 1) rotate(0) translate(4 226)">
<title>Fun4AllEventOutStream</title>
<!-- Node4 -->
<g id="node1" class="node">
<title>Node4</title>
<polygon fill="#bfbfbf" stroke="#000000" points="496,-54.5 496,-73.5 617,-73.5 617,-54.5 496,-54.5"/>
<text text-anchor="middle" x="556.5" y="-61.5" font-family="FreeSans" font-size="10.00" fill="#000000">Fun4AllEventOutStream</text>
</g>
<!-- Node8 -->
<g id="node5" class="node">
<title>Node8</title>
<g id="a_node5"><a xlink:href="../../d2/d4a/classFun4AllEventOutputManager.html" target="_top" xlink:title="Fun4AllEventOutputManager">
<polygon fill="none" stroke="#000000" points="706,-101.5 706,-120.5 846,-120.5 846,-101.5 706,-101.5"/>
<text text-anchor="middle" x="776" y="-108.5" font-family="FreeSans" font-size="10.00" fill="#000000">Fun4AllEventOutputManager</text>
</a>
</g>
</g>
<!-- Node4&#45;&gt;Node8 -->
<g id="edge11" class="edge">
<title>Node4&#45;&gt;Node8</title>
<path fill="none" stroke="#9a32cd" stroke-dasharray="5,2" d="M627.3638,-59.1887C647.222,-59.4226 668.6607,-61.1863 688,-66 716.1408,-73.0045 745.4779,-90.3722 762.1679,-101.3678"/>
<polygon fill="#9a32cd" stroke="#9a32cd" points="627.1396,-55.6888 617.1428,-59.1978 627.1459,-62.6888 627.1396,-55.6888"/>
<text text-anchor="middle" x="661.5" y="-69" font-family="FreeSans" font-size="10.00" fill="#000000"> outstream</text>
</g>
<!-- Node5 -->
<g id="node2" class="node">
<title>Node5</title>
<g id="a_node2"><a xlink:href="../../d5/dec/classFun4AllBase.html" target="_top" xlink:title="Fun4AllBase">
<polygon fill="none" stroke="#000000" points="290,-60.5 290,-79.5 361,-79.5 361,-60.5 290,-60.5"/>
<text text-anchor="middle" x="325.5" y="-67.5" font-family="FreeSans" font-size="10.00" fill="#000000">Fun4AllBase</text>
</a>
</g>
</g>
<!-- Node5&#45;&gt;Node4 -->
<g id="edge1" class="edge">
<title>Node5&#45;&gt;Node4</title>
<path fill="none" stroke="#191970" d="M371.2038,-68.8129C406.8466,-67.8871 456.6781,-66.5928 495.6883,-65.5795"/>
<polygon fill="#191970" stroke="#191970" points="370.9932,-65.3171 361.0875,-69.0756 371.175,-72.3147 370.9932,-65.3171"/>
</g>
<!-- Node9 -->
<g id="node6" class="node">
<title>Node9</title>
<g id="a_node6"><a xlink:href="../../d8/d77/classFun4AllOutputManager.html" target="_top" xlink:title="Fun4AllOutputManager">
<polygon fill="none" stroke="#000000" points="498.5,-114.5 498.5,-133.5 614.5,-133.5 614.5,-114.5 498.5,-114.5"/>
<text text-anchor="middle" x="556.5" y="-121.5" font-family="FreeSans" font-size="10.00" fill="#000000">Fun4AllOutputManager</text>
</a>
</g>
</g>
<!-- Node5&#45;&gt;Node9 -->
<g id="edge6" class="edge">
<title>Node5&#45;&gt;Node9</title>
<path fill="none" stroke="#191970" d="M371.0839,-80.656C413.2328,-90.509 475.2978,-105.0177 515.8102,-114.4881"/>
<polygon fill="#191970" stroke="#191970" points="371.6217,-77.1874 361.0875,-78.3192 370.0283,-84.0036 371.6217,-77.1874"/>
</g>
<!-- Node6 -->
<g id="node3" class="node">
<title>Node6</title>
<g id="a_node3"><a xlink:title="STL class. ">
<polygon fill="none" stroke="#bfbfbf" points="128,-162.5 128,-181.5 185,-181.5 185,-162.5 128,-162.5"/>
<text text-anchor="middle" x="156.5" y="-169.5" font-family="FreeSans" font-size="10.00" fill="#000000">std::string</text>
</a>
</g>
</g>
<!-- Node6&#45;&gt;Node5 -->
<g id="edge2" class="edge">
<title>Node6&#45;&gt;Node5</title>
<path fill="none" stroke="#9a32cd" stroke-dasharray="5,2" d="M173.1709,-155.1528C181.7449,-146.8667 192.5647,-136.9735 203,-129 229.6531,-108.6347 236.5995,-103.1755 267,-89 274.6457,-85.4349 283.1435,-82.2607 291.2394,-79.5758"/>
<polygon fill="#9a32cd" stroke="#9a32cd" points="170.6739,-152.6995 166.0036,-162.2095 175.585,-157.6876 170.6739,-152.6995"/>
<text text-anchor="middle" x="226" y="-132" font-family="FreeSans" font-size="10.00" fill="#000000"> ThisName</text>
</g>
<!-- Node6&#45;&gt;Node8 -->
<g id="edge12" class="edge">
<title>Node6&#45;&gt;Node8</title>
<path fill="none" stroke="#9a32cd" stroke-dasharray="5,2" d="M179.646,-186.7041C186.9073,-190.8292 195.0954,-195.0012 203,-198 230.2238,-208.3279 238.0516,-208.8708 267,-212 457.3345,-232.5746 682.4001,-149.4001 753.3916,-120.5398"/>
<polygon fill="#9a32cd" stroke="#9a32cd" points="181.4212,-183.6877 171.035,-181.5958 177.8498,-189.7081 181.4212,-183.6877"/>
<text text-anchor="middle" x="440" y="-214" font-family="FreeSans" font-size="10.00" fill="#000000"> outfilerule</text>
</g>
<!-- Node6&#45;&gt;Node9 -->
<g id="edge8" class="edge">
<title>Node6&#45;&gt;Node9</title>
<path fill="none" stroke="#9a32cd" stroke-dasharray="5,2" d="M195.5077,-167.3191C266.1803,-158.8384 415.7231,-140.8932 498.4368,-130.9676"/>
<polygon fill="#9a32cd" stroke="#9a32cd" points="194.7787,-163.8814 185.267,-168.548 195.6128,-170.8315 194.7787,-163.8814"/>
<text text-anchor="middle" x="325.5" y="-161" font-family="FreeSans" font-size="10.00" fill="#000000"> outfilename</text>
</g>
<!-- Node11 -->
<g id="node8" class="node">
<title>Node11</title>
<polygon fill="none" stroke="#bfbfbf" points="267,-183.5 267,-202.5 384,-202.5 384,-183.5 267,-183.5"/>
<text text-anchor="middle" x="325.5" y="-190.5" font-family="FreeSans" font-size="10.00" fill="#000000">std::vector&lt; std::string &gt;</text>
</g>
<!-- Node6&#45;&gt;Node11 -->
<g id="edge10" class="edge">
<title>Node6&#45;&gt;Node11</title>
<path fill="none" stroke="#9a32cd" stroke-dasharray="5,2" d="M195.1049,-176.7971C216.3294,-179.4344 243.0995,-182.7609 266.8533,-185.7125"/>
<polygon fill="#9a32cd" stroke="#9a32cd" points="195.5238,-173.3223 185.1685,-175.5624 194.6606,-180.2689 195.5238,-173.3223"/>
<text text-anchor="middle" x="226" y="-186" font-family="FreeSans" font-size="10.00" fill="#000000"> elements</text>
</g>
<!-- Node7 -->
<g id="node4" class="node">
<title>Node7</title>
<g id="a_node4"><a xlink:title="STL class. ">
<polygon fill="none" stroke="#bfbfbf" points="0,-157 0,-187 91,-187 91,-157 0,-157"/>
<text text-anchor="start" x="8" y="-175" font-family="FreeSans" font-size="10.00" fill="#000000">std::basic_string&lt;</text>
<text text-anchor="middle" x="45.5" y="-164" font-family="FreeSans" font-size="10.00" fill="#000000"> char &gt;</text>
</a>
</g>
</g>
<!-- Node7&#45;&gt;Node6 -->
<g id="edge3" class="edge">
<title>Node7&#45;&gt;Node6</title>
<path fill="none" stroke="#191970" d="M101.5756,-172C110.7259,-172 119.8553,-172 127.9688,-172"/>
<polygon fill="#191970" stroke="#191970" points="101.2888,-168.5001 91.2888,-172 101.2888,-175.5001 101.2888,-168.5001"/>
</g>
<!-- Node8&#45;&gt;Node4 -->
<g id="edge4" class="edge">
<title>Node8&#45;&gt;Node4</title>
<path fill="none" stroke="#9a32cd" stroke-dasharray="5,2" d="M721.1216,-99.2493C684.0047,-91.3017 635.6142,-80.9402 600.9191,-73.5112"/>
<polygon fill="#9a32cd" stroke="#9a32cd" points="720.7596,-102.751 731.2708,-101.4224 722.2253,-95.9062 720.7596,-102.751"/>
<text text-anchor="middle" x="661.5" y="-94" font-family="FreeSans" font-size="10.00" fill="#000000"> mymanager</text>
</g>
<!-- Node9&#45;&gt;Node8 -->
<g id="edge5" class="edge">
<title>Node9&#45;&gt;Node8</title>
<path fill="none" stroke="#191970" d="M624.79,-119.9555C650.5266,-118.4312 679.8291,-116.6958 705.7423,-115.161"/>
<polygon fill="#191970" stroke="#191970" points="624.5212,-116.4652 614.7457,-120.5504 624.9352,-123.4529 624.5212,-116.4652"/>
</g>
<!-- Node10 -->
<g id="node7" class="node">
<title>Node10</title>
<polygon fill="none" stroke="#bfbfbf" points="268,-98.5 268,-117.5 383,-117.5 383,-98.5 268,-98.5"/>
<text text-anchor="middle" x="325.5" y="-105.5" font-family="FreeSans" font-size="10.00" fill="#000000">std::vector&lt; unsigned &gt;</text>
</g>
<!-- Node10&#45;&gt;Node9 -->
<g id="edge7" class="edge">
<title>Node10&#45;&gt;Node9</title>
<path fill="none" stroke="#9a32cd" stroke-dasharray="5,2" d="M393.3178,-112.6973C426.6509,-115.0061 466.4107,-117.7601 498.3383,-119.9715"/>
<polygon fill="#9a32cd" stroke="#9a32cd" points="393.4132,-109.1956 383.1952,-111.9962 392.9294,-116.1789 393.4132,-109.1956"/>
<text text-anchor="middle" x="440" y="-121" font-family="FreeSans" font-size="10.00" fill="#000000"> recomoduleindex</text>
</g>
<!-- Node11&#45;&gt;Node9 -->
<g id="edge9" class="edge">
<title>Node11&#45;&gt;Node9</title>
<path fill="none" stroke="#9a32cd" stroke-dasharray="5,2" d="M394.2705,-186.8886C420.9344,-183.1928 451.3918,-177.3131 478,-168 502.1837,-159.5355 527.5985,-143.8585 542.742,-133.6839"/>
<polygon fill="#9a32cd" stroke="#9a32cd" points="393.7136,-183.4316 384.2529,-188.2008 394.6228,-190.3723 393.7136,-183.4316"/>
<text text-anchor="middle" x="440" y="-188" font-family="FreeSans" font-size="10.00" fill="#000000"> EventSelectors</text>
</g>
<!-- Node12 -->
<g id="node9" class="node">
<title>Node12</title>
<polygon fill="none" stroke="#bfbfbf" points="275.5,-.5 275.5,-41.5 375.5,-41.5 375.5,-.5 275.5,-.5"/>
<text text-anchor="start" x="283.5" y="-29.5" font-family="FreeSans" font-size="10.00" fill="#000000">std::map&lt; int, boost</text>
<text text-anchor="start" x="283.5" y="-18.5" font-family="FreeSans" font-size="10.00" fill="#000000">::numeric::interval&lt;</text>
<text text-anchor="middle" x="325.5" y="-7.5" font-family="FreeSans" font-size="10.00" fill="#000000"> int &gt; &gt;</text>
</g>
<!-- Node12&#45;&gt;Node4 -->
<g id="edge13" class="edge">
<title>Node12&#45;&gt;Node4</title>
<path fill="none" stroke="#9a32cd" stroke-dasharray="5,2" d="M385.7339,-26.7268C413.9288,-29.961 447.8645,-34.649 478,-41 494.6754,-44.5143 512.9661,-49.7877 527.6938,-54.3988"/>
<polygon fill="#9a32cd" stroke="#9a32cd" points="385.9498,-23.2293 375.6238,-25.6006 385.1748,-30.1862 385.9498,-23.2293"/>
<text text-anchor="middle" x="440" y="-55" font-family="FreeSans" font-size="10.00" fill="#000000"> addpktrange</text>
<text text-anchor="middle" x="440" y="-44" font-family="FreeSans" font-size="10.00" fill="#000000">droppktrange</text>
</g>
</g>
</svg>
