<?xml version="1.0" encoding="UTF-8" standalone="no"?>
<!DOCTYPE svg PUBLIC "-//W3C//DTD SVG 1.1//EN"
 "http://www.w3.org/Graphics/SVG/1.1/DTD/svg11.dtd">
<!-- Generated by graphviz version 2.30.1 (20180413.0232)
 -->
<!-- Title: SQHitVector::clear Pages: 1 -->
<svg width="598pt" height="109pt"
 viewBox="0.00 0.00 598.00 109.00" xmlns="http://www.w3.org/2000/svg" xmlns:xlink="http://www.w3.org/1999/xlink">
<g id="graph0" class="graph" transform="scale(1 1) rotate(0) translate(4 105)">
<title>SQHitVector::clear</title>
<!-- Node1 -->
<g id="node1" class="node"><title>Node1</title>
<polygon fill="#bfbfbf" stroke="black" points="0,-43.5 0,-62.5 96,-62.5 96,-43.5 0,-43.5"/>
<text text-anchor="middle" x="48" y="-50.5" font-family="FreeSans" font-size="10.00">SQHitVector::clear</text>
</g>
<!-- Node2 -->
<g id="node2" class="node"><title>Node2</title>
<g id="a_node2"><a xlink:href="../../d0/dc5/namespaceUtilSQHit.html#ac07955c51fa7471fe13fc5355be40dad" target="_top" xlink:title="UtilSQHit::FindFirstHits">
<polygon fill="none" stroke="black" points="146,-81.5 146,-100.5 262,-100.5 262,-81.5 146,-81.5"/>
<text text-anchor="middle" x="204" y="-88.5" font-family="FreeSans" font-size="10.00">UtilSQHit::FindFirstHits</text>
</a>
</g>
</g>
<!-- Node1&#45;&gt;Node2 -->
<g id="edge1" class="edge"><title>Node1&#45;&gt;Node2</title>
<path fill="none" stroke="midnightblue" d="M97.7937,-65.04C119.308,-70.3488 144.232,-76.4988 164.419,-81.4799"/>
<polygon fill="midnightblue" stroke="midnightblue" points="98.408,-61.5867 87.8607,-62.589 96.731,-68.3828 98.408,-61.5867"/>
</g>
<!-- Node3 -->
<g id="node3" class="node"><title>Node3</title>
<g id="a_node3"><a xlink:href="../../d0/dc5/namespaceUtilSQHit.html#a2afabe45c8428fadeb72278f9608c7eb" target="_top" xlink:title="UtilSQHit::FindHits">
<polygon fill="none" stroke="black" points="155.5,-43.5 155.5,-62.5 252.5,-62.5 252.5,-43.5 155.5,-43.5"/>
<text text-anchor="middle" x="204" y="-50.5" font-family="FreeSans" font-size="10.00">UtilSQHit::FindHits</text>
</a>
</g>
</g>
<!-- Node1&#45;&gt;Node3 -->
<g id="edge2" class="edge"><title>Node1&#45;&gt;Node3</title>
<path fill="none" stroke="midnightblue" d="M106.44,-53C122.582,-53 139.953,-53 155.45,-53"/>
<polygon fill="midnightblue" stroke="midnightblue" points="106.042,-49.5001 96.0419,-53 106.042,-56.5001 106.042,-49.5001"/>
</g>
<!-- Node4 -->
<g id="node4" class="node"><title>Node4</title>
<g id="a_node4"><a xlink:href="../../df/d49/classCalibMergeH4.html#a04cb3900f6782caa8dcb187a50b06ec0" target="_top" xlink:title="CalibMergeH4::MergeHitsAnd">
<polygon fill="none" stroke="black" points="132.5,-5.5 132.5,-24.5 275.5,-24.5 275.5,-5.5 132.5,-5.5"/>
<text text-anchor="middle" x="204" y="-12.5" font-family="FreeSans" font-size="10.00">CalibMergeH4::MergeHitsAnd</text>
</a>
</g>
</g>
<!-- Node1&#45;&gt;Node4 -->
<g id="edge3" class="edge"><title>Node1&#45;&gt;Node4</title>
<path fill="none" stroke="midnightblue" d="M97.7937,-40.96C119.308,-35.6512 144.232,-29.5012 164.419,-24.5201"/>
<polygon fill="midnightblue" stroke="midnightblue" points="96.731,-37.6172 87.8607,-43.411 98.408,-44.4133 96.731,-37.6172"/>
</g>
<!-- Node5 -->
<g id="node5" class="node"><title>Node5</title>
<g id="a_node5"><a xlink:href="../../df/d49/classCalibMergeH4.html#a7a0917c307806ea9966b30af1be934fd" target="_top" xlink:title="CalibMergeH4::MergeHits">
<polygon fill="none" stroke="black" points="312.5,-5.5 312.5,-24.5 437.5,-24.5 437.5,-5.5 312.5,-5.5"/>
<text text-anchor="middle" x="375" y="-12.5" font-family="FreeSans" font-size="10.00">CalibMergeH4::MergeHits</text>
</a>
</g>
</g>
<!-- Node4&#45;&gt;Node5 -->
<g id="edge4" class="edge"><title>Node4&#45;&gt;Node5</title>
<path fill="none" stroke="midnightblue" d="M285.776,-15C294.747,-15 303.775,-15 312.453,-15"/>
<polygon fill="midnightblue" stroke="midnightblue" points="285.692,-11.5001 275.692,-15 285.692,-18.5001 285.692,-11.5001"/>
</g>
<!-- Node6 -->
<g id="node6" class="node"><title>Node6</title>
<g id="a_node6"><a xlink:href="../../df/d49/classCalibMergeH4.html#a33959572b7e56019a5adeb354e11d08f" target="_top" xlink:title="CalibMergeH4::process\l_event">
<polygon fill="none" stroke="black" points="474.5,-0 474.5,-30 589.5,-30 589.5,-0 474.5,-0"/>
<text text-anchor="start" x="482.5" y="-18" font-family="FreeSans" font-size="10.00">CalibMergeH4::process</text>
<text text-anchor="middle" x="532" y="-7" font-family="FreeSans" font-size="10.00">_event</text>
</a>
</g>
</g>
<!-- Node5&#45;&gt;Node6 -->
<g id="edge5" class="edge"><title>Node5&#45;&gt;Node6</title>
<path fill="none" stroke="midnightblue" d="M447.991,-15C456.813,-15 465.731,-15 474.285,-15"/>
<polygon fill="midnightblue" stroke="midnightblue" points="447.706,-11.5001 437.705,-15 447.705,-18.5001 447.706,-11.5001"/>
</g>
</g>
</svg>
