<?xml version="1.0" encoding="UTF-8" standalone="no"?>
<!DOCTYPE svg PUBLIC "-//W3C//DTD SVG 1.1//EN"
 "http://www.w3.org/Graphics/SVG/1.1/DTD/svg11.dtd">
<!-- Generated by graphviz version 2.30.1 (20200930.0103)
 -->
<!-- Title: OnlMonCham::InitRunOnlMon Pages: 1 -->
<svg width="1530pt" height="849pt"
 viewBox="0.00 0.00 1530.00 849.00" xmlns="http://www.w3.org/2000/svg" xmlns:xlink="http://www.w3.org/1999/xlink">
<g id="graph0" class="graph" transform="scale(1 1) rotate(0) translate(4 845)">
<title>OnlMonCham::InitRunOnlMon</title>
<!-- Node1 -->
<g id="node1" class="node"><title>Node1</title>
<polygon fill="#bfbfbf" stroke="black" points="0.5,-631.5 0.5,-650.5 145.5,-650.5 145.5,-631.5 0.5,-631.5"/>
<text text-anchor="middle" x="73" y="-638.5" font-family="FreeSans" font-size="10.00">OnlMonCham::InitRunOnlMon</text>
</g>
<!-- Node2 -->
<g id="node2" class="node"><title>Node2</title>
<g id="a_node2"><a xlink:href="../../d0/da0/classGeomSvc.html#afbf6d99190de576faf739ed50bbeb33b" target="_top" xlink:title="GeomSvc::getDetectorIDs">
<polygon fill="none" stroke="black" points="193,-821.5 193,-840.5 321,-840.5 321,-821.5 193,-821.5"/>
<text text-anchor="middle" x="257" y="-828.5" font-family="FreeSans" font-size="10.00">GeomSvc::getDetectorIDs</text>
</a>
</g>
</g>
<!-- Node1&#45;&gt;Node2 -->
<g id="edge1" class="edge"><title>Node1&#45;&gt;Node2</title>
<path fill="none" stroke="midnightblue" d="M77.6566,-650.899C88.7289,-679.515 124.688,-763.086 182,-807 187.546,-811.25 193.873,-814.762 200.438,-817.661"/>
<polygon fill="midnightblue" stroke="midnightblue" points="199.577,-821.084 210.165,-821.485 202.138,-814.569 199.577,-821.084"/>
</g>
<!-- Node3 -->
<g id="node3" class="node"><title>Node3</title>
<g id="a_node3"><a xlink:href="../../d0/da0/classGeomSvc.html#a64fde7dce7f3df7cf534796d7da4ecdb" target="_top" xlink:title="GeomSvc::getDetectorName">
<polygon fill="none" stroke="black" points="689,-764.5 689,-783.5 829,-783.5 829,-764.5 689,-764.5"/>
<text text-anchor="middle" x="759" y="-771.5" font-family="FreeSans" font-size="10.00">GeomSvc::getDetectorName</text>
</a>
</g>
</g>
<!-- Node1&#45;&gt;Node3 -->
<g id="edge2" class="edge"><title>Node1&#45;&gt;Node3</title>
<path fill="none" stroke="midnightblue" d="M96.8228,-650.524C161.051,-676.747 349.401,-749.667 514,-774 568.674,-782.083 630.996,-781.927 678.969,-779.83"/>
<polygon fill="midnightblue" stroke="midnightblue" points="679.157,-783.325 688.98,-779.356 678.826,-776.333 679.157,-783.325"/>
</g>
<!-- Node4 -->
<g id="node4" class="node"><title>Node4</title>
<g id="a_node4"><a xlink:href="../../d0/da0/classGeomSvc.html#ab5c7737b3c015da421b6ac756a35213c" target="_top" xlink:title="GeomSvc::getPlaneNElements">
<polygon fill="none" stroke="black" points="182.5,-593.5 182.5,-612.5 331.5,-612.5 331.5,-593.5 182.5,-593.5"/>
<text text-anchor="middle" x="257" y="-600.5" font-family="FreeSans" font-size="10.00">GeomSvc::getPlaneNElements</text>
</a>
</g>
</g>
<!-- Node1&#45;&gt;Node4 -->
<g id="edge3" class="edge"><title>Node1&#45;&gt;Node4</title>
<path fill="none" stroke="midnightblue" d="M119.926,-631.411C144.376,-626.306 174.633,-619.989 200.403,-614.608"/>
<polygon fill="midnightblue" stroke="midnightblue" points="201.33,-617.99 210.404,-612.52 199.9,-611.138 201.33,-617.99"/>
</g>
<!-- Node5 -->
<g id="node5" class="node"><title>Node5</title>
<g id="a_node5"><a xlink:href="../../d0/da0/classGeomSvc.html#a2b7ecf5467120206b9479654c48ad7c4" target="_top" xlink:title="singlton instance ">
<polygon fill="none" stroke="black" points="207,-631.5 207,-650.5 307,-650.5 307,-631.5 207,-631.5"/>
<text text-anchor="middle" x="257" y="-638.5" font-family="FreeSans" font-size="10.00">GeomSvc::instance</text>
</a>
</g>
</g>
<!-- Node1&#45;&gt;Node5 -->
<g id="edge4" class="edge"><title>Node1&#45;&gt;Node5</title>
<path fill="none" stroke="midnightblue" d="M145.67,-641C162.479,-641 180.211,-641 196.426,-641"/>
<polygon fill="midnightblue" stroke="midnightblue" points="196.837,-644.5 206.837,-641 196.837,-637.5 196.837,-644.5"/>
</g>
<!-- Node49 -->
<g id="node49" class="node"><title>Node49</title>
<g id="a_node49"><a xlink:href="../../d9/d62/classOnlMonClient.html#a8d9777853eb790abf4721f25cf4340cd" target="_top" xlink:title="OnlMonClient::RegisterHist">
<polygon fill="none" stroke="black" points="191.5,-495.5 191.5,-514.5 322.5,-514.5 322.5,-495.5 191.5,-495.5"/>
<text text-anchor="middle" x="257" y="-502.5" font-family="FreeSans" font-size="10.00">OnlMonClient::RegisterHist</text>
</a>
</g>
</g>
<!-- Node1&#45;&gt;Node49 -->
<g id="edge61" class="edge"><title>Node1&#45;&gt;Node49</title>
<path fill="none" stroke="midnightblue" d="M86.7979,-631.437C117.66,-608.375 196.442,-549.505 234.619,-520.977"/>
<polygon fill="midnightblue" stroke="midnightblue" points="237.057,-523.524 242.973,-514.735 232.867,-517.917 237.057,-523.524"/>
</g>
<!-- Node6 -->
<g id="node6" class="node"><title>Node6</title>
<g id="a_node6"><a xlink:href="../../d0/da0/classGeomSvc.html#a96ec4efc82cbaed0b5623e4dd69385b6" target="_top" xlink:title="Initialization, either from MySQL or from ascii file. ">
<polygon fill="none" stroke="black" points="384.5,-631.5 384.5,-650.5 461.5,-650.5 461.5,-631.5 384.5,-631.5"/>
<text text-anchor="middle" x="423" y="-638.5" font-family="FreeSans" font-size="10.00">GeomSvc::init</text>
</a>
</g>
</g>
<!-- Node5&#45;&gt;Node6 -->
<g id="edge5" class="edge"><title>Node5&#45;&gt;Node6</title>
<path fill="none" stroke="midnightblue" d="M307.205,-641C328.449,-641 353.208,-641 374.283,-641"/>
<polygon fill="midnightblue" stroke="midnightblue" points="374.301,-644.5 384.301,-641 374.301,-637.5 374.301,-644.5"/>
</g>
<!-- Node7 -->
<g id="node7" class="node"><title>Node7</title>
<g id="a_node7"><a xlink:href="../../d0/da0/classGeomSvc.html#adbe1473f9b3a8ff942da8d7d8ee28322" target="_top" xlink:title="GeomSvc::initPlaneDbSvc">
<polygon fill="none" stroke="black" points="514,-517.5 514,-536.5 644,-536.5 644,-517.5 514,-517.5"/>
<text text-anchor="middle" x="579" y="-524.5" font-family="FreeSans" font-size="10.00">GeomSvc::initPlaneDbSvc</text>
</a>
</g>
</g>
<!-- Node6&#45;&gt;Node7 -->
<g id="edge6" class="edge"><title>Node6&#45;&gt;Node7</title>
<path fill="none" stroke="midnightblue" d="M430.463,-631.336C443.787,-612.165 476.243,-569.175 514,-546 517.403,-543.911 521.05,-542.04 524.812,-540.367"/>
<polygon fill="midnightblue" stroke="midnightblue" points="526.32,-543.534 534.332,-536.601 523.745,-537.025 526.32,-543.534"/>
</g>
<!-- Node44 -->
<g id="node44" class="node"><title>Node44</title>
<g id="a_node44"><a xlink:href="../../d0/da0/classGeomSvc.html#a0d550b9f787318d57cdae9db2d04d6fb" target="_top" xlink:title="GeomSvc::initPlaneDirect">
<polygon fill="none" stroke="black" points="515.5,-555.5 515.5,-574.5 642.5,-574.5 642.5,-555.5 515.5,-555.5"/>
<text text-anchor="middle" x="579" y="-562.5" font-family="FreeSans" font-size="10.00">GeomSvc::initPlaneDirect</text>
</a>
</g>
</g>
<!-- Node6&#45;&gt;Node44 -->
<g id="edge52" class="edge"><title>Node6&#45;&gt;Node44</title>
<path fill="none" stroke="midnightblue" d="M438.876,-631.381C456.395,-620.298 486.588,-601.95 514,-589 522.263,-585.096 531.347,-581.369 540.01,-578.066"/>
<polygon fill="midnightblue" stroke="midnightblue" points="541.387,-581.288 549.545,-574.529 538.952,-574.725 541.387,-581.288"/>
</g>
<!-- Node46 -->
<g id="node46" class="node"><title>Node46</title>
<g id="a_node46"><a xlink:href="../../d0/da0/classGeomSvc.html#a0c78d3ac904cfbb367e96c73f176630d" target="_top" xlink:title="GeomSvc::initWireLUT">
<polygon fill="none" stroke="black" points="522,-707.5 522,-726.5 636,-726.5 636,-707.5 522,-707.5"/>
<text text-anchor="middle" x="579" y="-714.5" font-family="FreeSans" font-size="10.00">GeomSvc::initWireLUT</text>
</a>
</g>
</g>
<!-- Node6&#45;&gt;Node46 -->
<g id="edge55" class="edge"><title>Node6&#45;&gt;Node46</title>
<path fill="none" stroke="midnightblue" d="M438.876,-650.619C456.395,-661.702 486.588,-680.05 514,-693 522.263,-696.904 531.347,-700.631 540.01,-703.934"/>
<polygon fill="midnightblue" stroke="midnightblue" points="538.952,-707.275 549.545,-707.471 541.387,-700.712 538.952,-707.275"/>
</g>
<!-- Node15 -->
<g id="node15" class="node"><title>Node15</title>
<g id="a_node15"><a xlink:href="../../d8/d14/classrecoConsts.html#aea8535068aa74d8acf1f98e938a1ff85" target="_top" xlink:title="recoConsts::instance">
<polygon fill="none" stroke="black" points="1084.5,-631.5 1084.5,-650.5 1189.5,-650.5 1189.5,-631.5 1084.5,-631.5"/>
<text text-anchor="middle" x="1137" y="-638.5" font-family="FreeSans" font-size="10.00">recoConsts::instance</text>
</a>
</g>
</g>
<!-- Node6&#45;&gt;Node15 -->
<g id="edge56" class="edge"><title>Node6&#45;&gt;Node15</title>
<path fill="none" stroke="midnightblue" d="M460.508,-650.509C476.761,-654.274 496.211,-658.143 514,-660 744.746,-684.091 805.022,-681.748 1036,-660 1052.16,-658.478 1069.61,-655.601 1085.33,-652.538"/>
<polygon fill="midnightblue" stroke="midnightblue" points="1086.27,-655.919 1095.38,-650.511 1084.88,-649.057 1086.27,-655.919"/>
</g>
<!-- Node47 -->
<g id="node47" class="node"><title>Node47</title>
<g id="a_node47"><a xlink:href="../../d0/da0/classGeomSvc.html#ab6c810e39b86ce66a4be6a596b4d54b8" target="_top" xlink:title="GeomSvc::loadAlignment">
<polygon fill="none" stroke="black" points="516.5,-631.5 516.5,-650.5 641.5,-650.5 641.5,-631.5 516.5,-631.5"/>
<text text-anchor="middle" x="579" y="-638.5" font-family="FreeSans" font-size="10.00">GeomSvc::loadAlignment</text>
</a>
</g>
</g>
<!-- Node6&#45;&gt;Node47 -->
<g id="edge57" class="edge"><title>Node6&#45;&gt;Node47</title>
<path fill="none" stroke="midnightblue" d="M461.673,-641C475.186,-641 490.908,-641 506.343,-641"/>
<polygon fill="midnightblue" stroke="midnightblue" points="506.418,-644.5 516.418,-641 506.418,-637.5 506.418,-644.5"/>
</g>
<!-- Node48 -->
<g id="node48" class="node"><title>Node48</title>
<g id="a_node48"><a xlink:href="../../d0/da0/classGeomSvc.html#abc60088ed5985a796f5df18ae4299661" target="_top" xlink:title="GeomSvc::loadCalibration">
<polygon fill="none" stroke="black" points="515,-745.5 515,-764.5 643,-764.5 643,-745.5 515,-745.5"/>
<text text-anchor="middle" x="579" y="-752.5" font-family="FreeSans" font-size="10.00">GeomSvc::loadCalibration</text>
</a>
</g>
</g>
<!-- Node6&#45;&gt;Node48 -->
<g id="edge58" class="edge"><title>Node6&#45;&gt;Node48</title>
<path fill="none" stroke="midnightblue" d="M430.463,-650.664C443.787,-669.835 476.243,-712.825 514,-736 517.403,-738.089 521.05,-739.96 524.812,-741.633"/>
<polygon fill="midnightblue" stroke="midnightblue" points="523.745,-744.975 534.332,-745.399 526.32,-738.466 523.745,-744.975"/>
</g>
<!-- Node45 -->
<g id="node45" class="node"><title>Node45</title>
<g id="a_node45"><a xlink:href="../../d0/da0/classGeomSvc.html#a418543d7b33fc95092b2cd4a7496f1b8" target="_top" xlink:title="GeomSvc::loadMilleAlignment">
<polygon fill="none" stroke="black" points="686,-583.5 686,-602.5 832,-602.5 832,-583.5 686,-583.5"/>
<text text-anchor="middle" x="759" y="-590.5" font-family="FreeSans" font-size="10.00">GeomSvc::loadMilleAlignment</text>
</a>
</g>
</g>
<!-- Node6&#45;&gt;Node45 -->
<g id="edge60" class="edge"><title>Node6&#45;&gt;Node45</title>
<path fill="none" stroke="midnightblue" d="M461.517,-632.294C477.613,-628.763 496.667,-624.854 514,-622 567.627,-613.171 628.309,-605.947 675.742,-600.918"/>
<polygon fill="midnightblue" stroke="midnightblue" points="676.38,-604.37 685.961,-599.846 675.65,-597.408 676.38,-604.37"/>
</g>
<!-- Node8 -->
<g id="node8" class="node"><title>Node8</title>
<g id="a_node8"><a xlink:href="../../df/dbc/run_8C.html#a078d38b1d96e7c0e4f35d93363cc8325" target="_top" xlink:title="run">
<polygon fill="none" stroke="black" points="744,-391.5 744,-410.5 774,-410.5 774,-391.5 744,-391.5"/>
<text text-anchor="middle" x="759" y="-398.5" font-family="FreeSans" font-size="10.00">run</text>
</a>
</g>
</g>
<!-- Node7&#45;&gt;Node8 -->
<g id="edge7" class="edge"><title>Node7&#45;&gt;Node8</title>
<path fill="none" stroke="midnightblue" d="M612.658,-517.389C623.056,-513.648 634.356,-508.838 644,-503 683.485,-479.098 721.9,-440.638 742.499,-418.404"/>
<polygon fill="midnightblue" stroke="midnightblue" points="745.335,-420.488 749.487,-410.741 740.163,-415.772 745.335,-420.488"/>
</g>
<!-- Node43 -->
<g id="node43" class="node"><title>Node43</title>
<g id="a_node43"><a xlink:href="../../d0/da0/classGeomSvc.html#a315e886f05db8254ed7d320706e268e6" target="_top" xlink:title="Convert the official detectorName to local detectorName. ">
<polygon fill="none" stroke="black" points="680,-526.5 680,-545.5 838,-545.5 838,-526.5 680,-526.5"/>
<text text-anchor="middle" x="759" y="-533.5" font-family="FreeSans" font-size="10.00">GeomSvc::toLocalDetectorName</text>
</a>
</g>
</g>
<!-- Node7&#45;&gt;Node43 -->
<g id="edge51" class="edge"><title>Node7&#45;&gt;Node43</title>
<path fill="none" stroke="midnightblue" d="M644.011,-530.236C652.392,-530.66 661.096,-531.1 669.789,-531.54"/>
<polygon fill="midnightblue" stroke="midnightblue" points="669.806,-535.045 679.97,-532.055 670.159,-528.054 669.806,-535.045"/>
</g>
<!-- Node9 -->
<g id="node9" class="node"><title>Node9</title>
<g id="a_node9"><a xlink:href="../../d5/de9/E1039Shielding_2ana_8C.html#a24b637aefa84c667b63905e9be5a8f69" target="_top" xlink:title="ana">
<polygon fill="none" stroke="black" points="939,-707.5 939,-726.5 971,-726.5 971,-707.5 939,-707.5"/>
<text text-anchor="middle" x="955" y="-714.5" font-family="FreeSans" font-size="10.00">ana</text>
</a>
</g>
</g>
<!-- Node8&#45;&gt;Node9 -->
<g id="edge8" class="edge"><title>Node8&#45;&gt;Node9</title>
<path fill="none" stroke="midnightblue" d="M768.136,-410.549C783.922,-429.554 818.833,-473.998 838,-517 864.682,-576.861 837.039,-605.878 874,-660 887.876,-680.319 911.523,-695.84 929.519,-705.517"/>
<polygon fill="midnightblue" stroke="midnightblue" points="928.341,-708.846 938.837,-710.286 931.53,-702.615 928.341,-708.846"/>
</g>
<!-- Node11 -->
<g id="node11" class="node"><title>Node11</title>
<g id="a_node11"><a xlink:href="../../da/d29/classFun4AllServer.html#ab7263450319ca1d5029209fde26a7af8" target="_top" xlink:title="Fun4AllServer::End">
<polygon fill="none" stroke="black" points="906,-517.5 906,-536.5 1004,-536.5 1004,-517.5 906,-517.5"/>
<text text-anchor="middle" x="955" y="-524.5" font-family="FreeSans" font-size="10.00">Fun4AllServer::End</text>
</a>
</g>
</g>
<!-- Node8&#45;&gt;Node11 -->
<g id="edge10" class="edge"><title>Node8&#45;&gt;Node11</title>
<path fill="none" stroke="midnightblue" d="M768.101,-410.681C785.453,-430.811 828.357,-477.429 874,-503 882.082,-507.528 891.113,-511.291 900.116,-514.388"/>
<polygon fill="midnightblue" stroke="midnightblue" points="899.237,-517.782 909.828,-517.493 901.368,-511.114 899.237,-517.782"/>
</g>
<!-- Node23 -->
<g id="node23" class="node"><title>Node23</title>
<g id="a_node23"><a xlink:href="../../d4/da9/classFun4AllInputManager.html#a8ad787f847a175450ec5beddeaa33ca6" target="_top" xlink:title="Fun4AllInputManager\l::fileopen">
<polygon fill="none" stroke="black" points="900.5,-430 900.5,-460 1009.5,-460 1009.5,-430 900.5,-430"/>
<text text-anchor="start" x="908.5" y="-448" font-family="FreeSans" font-size="10.00">Fun4AllInputManager</text>
<text text-anchor="middle" x="955" y="-437" font-family="FreeSans" font-size="10.00">::fileopen</text>
</a>
</g>
</g>
<!-- Node8&#45;&gt;Node23 -->
<g id="edge23" class="edge"><title>Node8&#45;&gt;Node23</title>
<path fill="none" stroke="midnightblue" d="M774.265,-404.235C798.436,-409.717 848.84,-421.149 890.137,-430.516"/>
<polygon fill="midnightblue" stroke="midnightblue" points="889.62,-433.987 900.146,-432.786 891.168,-427.161 889.62,-433.987"/>
</g>
<!-- Node24 -->
<g id="node24" class="node"><title>Node24</title>
<g id="a_node24"><a xlink:href="../../d8/d14/classrecoConsts.html#a7c0a1405f7f0f8c2acca26831984b28d" target="_top" xlink:title="initialize the constants by the runNo &#45; not implemented yet ">
<polygon fill="none" stroke="black" points="914,-391.5 914,-410.5 996,-410.5 996,-391.5 914,-391.5"/>
<text text-anchor="middle" x="955" y="-398.5" font-family="FreeSans" font-size="10.00">recoConsts::init</text>
</a>
</g>
</g>
<!-- Node8&#45;&gt;Node24 -->
<g id="edge24" class="edge"><title>Node8&#45;&gt;Node24</title>
<path fill="none" stroke="midnightblue" d="M774.265,-401C801.16,-401 860.536,-401 903.703,-401"/>
<polygon fill="midnightblue" stroke="midnightblue" points="903.748,-404.5 913.748,-401 903.748,-397.5 903.748,-404.5"/>
</g>
<!-- Node8&#45;&gt;Node15 -->
<g id="edge25" class="edge"><title>Node8&#45;&gt;Node15</title>
<path fill="none" stroke="midnightblue" d="M767.014,-410.717C781.1,-430.381 813.568,-476.472 838,-517 855.453,-545.95 847.007,-563.651 874,-584 882.154,-590.147 1002.26,-614.653 1076.99,-629.459"/>
<polygon fill="midnightblue" stroke="midnightblue" points="1076.72,-632.974 1087.21,-631.48 1078.08,-626.107 1076.72,-632.974"/>
</g>
<!-- Node25 -->
<g id="node25" class="node"><title>Node25</title>
<g id="a_node25"><a xlink:href="../../da/d29/classFun4AllServer.html#a3e55156f91b2c94bb6c4ef33ffce587a" target="_top" xlink:title="Fun4AllServer::instance">
<polygon fill="none" stroke="black" points="1078,-315.5 1078,-334.5 1196,-334.5 1196,-315.5 1078,-315.5"/>
<text text-anchor="middle" x="1137" y="-322.5" font-family="FreeSans" font-size="10.00">Fun4AllServer::instance</text>
</a>
</g>
</g>
<!-- Node8&#45;&gt;Node25 -->
<g id="edge26" class="edge"><title>Node8&#45;&gt;Node25</title>
<path fill="none" stroke="midnightblue" d="M774.17,-392.63C795.17,-380.677 836.156,-359.053 874,-349 938.283,-331.924 1014.2,-326.509 1067.73,-325.014"/>
<polygon fill="midnightblue" stroke="midnightblue" points="1067.87,-328.511 1077.79,-324.771 1067.71,-321.513 1067.87,-328.511"/>
</g>
<!-- Node8&#45;&gt;Node5 -->
<g id="edge27" class="edge"><title>Node8&#45;&gt;Node5</title>
<path fill="none" stroke="midnightblue" d="M743.907,-406.34C705.935,-420.906 598.642,-463.24 514,-508 429.624,-552.619 419.708,-584.352 332,-622 326.321,-624.438 320.258,-626.617 314.138,-628.552"/>
<polygon fill="midnightblue" stroke="midnightblue" points="313.122,-625.203 304.523,-631.393 315.105,-631.916 313.122,-625.203"/>
</g>
<!-- Node26 -->
<g id="node26" class="node"><title>Node26</title>
<g id="a_node26"><a xlink:href="../../d8/d14/classrecoConsts.html#a5502a14fdb8433de15c2e71351f281d6" target="_top" xlink:title="print all the parameters ">
<polygon fill="none" stroke="black" points="910.5,-201.5 910.5,-220.5 999.5,-220.5 999.5,-201.5 910.5,-201.5"/>
<text text-anchor="middle" x="955" y="-208.5" font-family="FreeSans" font-size="10.00">recoConsts::Print</text>
</a>
</g>
</g>
<!-- Node8&#45;&gt;Node26 -->
<g id="edge28" class="edge"><title>Node8&#45;&gt;Node26</title>
<path fill="none" stroke="midnightblue" d="M763.443,-391.411C774.478,-362.123 811.914,-273.208 874,-230 881.914,-224.493 891.22,-220.569 900.633,-217.776"/>
<polygon fill="midnightblue" stroke="midnightblue" points="901.615,-221.138 910.428,-215.257 899.871,-214.358 901.615,-221.138"/>
</g>
<!-- Node32 -->
<g id="node32" class="node"><title>Node32</title>
<g id="a_node32"><a xlink:href="../../da/d29/classFun4AllServer.html#ae3fe7393e52376b515c60dd927670f2e" target="_top" xlink:title="Fun4AllServer::PrintTimer">
<polygon fill="none" stroke="black" points="891.5,-239.5 891.5,-258.5 1018.5,-258.5 1018.5,-239.5 891.5,-239.5"/>
<text text-anchor="middle" x="955" y="-246.5" font-family="FreeSans" font-size="10.00">Fun4AllServer::PrintTimer</text>
</a>
</g>
</g>
<!-- Node8&#45;&gt;Node32 -->
<g id="edge34" class="edge"><title>Node8&#45;&gt;Node32</title>
<path fill="none" stroke="midnightblue" d="M765.227,-391.494C779.29,-366.863 820.515,-300.621 874,-268 877.565,-265.826 881.359,-263.9 885.285,-262.195"/>
<polygon fill="midnightblue" stroke="midnightblue" points="886.555,-265.457 894.634,-258.603 884.044,-258.922 886.555,-265.457"/>
</g>
<!-- Node33 -->
<g id="node33" class="node"><title>Node33</title>
<g id="a_node33"><a xlink:href="../../dc/da8/classAnaModule.html#aae26c89fb67266a27325b364ba48cc38" target="_top" xlink:title="AnaModule::registerDetector">
<polygon fill="none" stroke="black" points="886,-163.5 886,-182.5 1024,-182.5 1024,-163.5 886,-163.5"/>
<text text-anchor="middle" x="955" y="-170.5" font-family="FreeSans" font-size="10.00">AnaModule::registerDetector</text>
</a>
</g>
</g>
<!-- Node8&#45;&gt;Node33 -->
<g id="edge35" class="edge"><title>Node8&#45;&gt;Node33</title>
<path fill="none" stroke="midnightblue" d="M762.284,-391.256C770.671,-357.725 803.054,-246.193 874,-192 876.34,-190.213 878.822,-188.59 881.408,-187.117"/>
<polygon fill="midnightblue" stroke="midnightblue" points="883.09,-190.191 890.547,-182.665 880.024,-183.898 883.09,-190.191"/>
</g>
<!-- Node35 -->
<g id="node35" class="node"><title>Node35</title>
<g id="a_node35"><a xlink:href="../../da/d29/classFun4AllServer.html#ab2cb490790d15b865ae79eb3094caabe" target="_top" xlink:title="Fun4AllServer::registerInput\lManager">
<polygon fill="none" stroke="black" points="887.5,-13 887.5,-43 1022.5,-43 1022.5,-13 887.5,-13"/>
<text text-anchor="start" x="895.5" y="-31" font-family="FreeSans" font-size="10.00">Fun4AllServer::registerInput</text>
<text text-anchor="middle" x="955" y="-20" font-family="FreeSans" font-size="10.00">Manager</text>
</a>
</g>
</g>
<!-- Node8&#45;&gt;Node35 -->
<g id="edge37" class="edge"><title>Node8&#45;&gt;Node35</title>
<path fill="none" stroke="midnightblue" d="M760.608,-391.422C763.836,-348.174 782.468,-168.76 874,-66 880.452,-58.7567 888.582,-52.7757 897.172,-47.8747"/>
<polygon fill="midnightblue" stroke="midnightblue" points="898.987,-50.8754 906.238,-43.1506 895.752,-44.6676 898.987,-50.8754"/>
</g>
<!-- Node37 -->
<g id="node37" class="node"><title>Node37</title>
<g id="a_node37"><a xlink:href="../../da/d29/classFun4AllServer.html#a0a9947db0ede1e55622001eb7515f8c0" target="_top" xlink:title="Fun4AllServer::registerSubsystem">
<polygon fill="none" stroke="red" points="874.5,-277.5 874.5,-296.5 1035.5,-296.5 1035.5,-277.5 874.5,-277.5"/>
<text text-anchor="middle" x="955" y="-284.5" font-family="FreeSans" font-size="10.00">Fun4AllServer::registerSubsystem</text>
</a>
</g>
</g>
<!-- Node8&#45;&gt;Node37 -->
<g id="edge39" class="edge"><title>Node8&#45;&gt;Node37</title>
<path fill="none" stroke="midnightblue" d="M769.471,-391.413C787.957,-373.212 830.83,-333.468 874,-311 882.592,-306.528 892.147,-302.756 901.577,-299.623"/>
<polygon fill="midnightblue" stroke="midnightblue" points="902.809,-302.905 911.313,-296.587 900.725,-296.223 902.809,-302.905"/>
</g>
<!-- Node39 -->
<g id="node39" class="node"><title>Node39</title>
<g id="a_node39"><a xlink:href="../../da/d29/classFun4AllServer.html#a11bbc8b2f53bc06e0b05ee202dd6372a" target="_top" xlink:title="run n events (0 means up to end of file) ">
<polygon fill="none" stroke="red" points="907.5,-555.5 907.5,-574.5 1002.5,-574.5 1002.5,-555.5 907.5,-555.5"/>
<text text-anchor="middle" x="955" y="-562.5" font-family="FreeSans" font-size="10.00">Fun4AllServer::run</text>
</a>
</g>
</g>
<!-- Node8&#45;&gt;Node39 -->
<g id="edge42" class="edge"><title>Node8&#45;&gt;Node39</title>
<path fill="none" stroke="midnightblue" d="M764.602,-410.597C777.698,-436.823 817.883,-510.122 874,-546 881.175,-550.587 889.35,-554.068 897.67,-556.71"/>
<polygon fill="midnightblue" stroke="midnightblue" points="896.879,-560.123 907.452,-559.441 898.761,-553.38 896.879,-560.123"/>
</g>
<!-- Node19 -->
<g id="node19" class="node"><title>Node19</title>
<g id="a_node19"><a xlink:href="../../d1/da8/classPHFlag.html#a5aaf1fedd8907f4b2b0c9535a4491f42" target="_top" xlink:title="PHFlag::set_BoolFlag">
<polygon fill="none" stroke="black" points="1404,-369.5 1404,-388.5 1514,-388.5 1514,-369.5 1404,-369.5"/>
<text text-anchor="middle" x="1459" y="-376.5" font-family="FreeSans" font-size="10.00">PHFlag::set_BoolFlag</text>
</a>
</g>
</g>
<!-- Node8&#45;&gt;Node19 -->
<g id="edge46" class="edge"><title>Node8&#45;&gt;Node19</title>
<path fill="none" stroke="midnightblue" d="M774.303,-397.858C795.81,-393.308 837.815,-385.088 874,-382 1062.39,-365.921 1286.21,-371.676 1393.87,-375.987"/>
<polygon fill="midnightblue" stroke="midnightblue" points="1393.79,-379.486 1403.93,-376.399 1394.08,-372.492 1393.79,-379.486"/>
</g>
<!-- Node18 -->
<g id="node18" class="node"><title>Node18</title>
<g id="a_node18"><a xlink:href="../../d1/da8/classPHFlag.html#a64f8c67e9313e5cecdbed51f747026da" target="_top" xlink:title="PHFlag::set_DoubleFlag">
<polygon fill="none" stroke="black" points="1399,-423.5 1399,-442.5 1519,-442.5 1519,-423.5 1399,-423.5"/>
<text text-anchor="middle" x="1459" y="-430.5" font-family="FreeSans" font-size="10.00">PHFlag::set_DoubleFlag</text>
</a>
</g>
</g>
<!-- Node8&#45;&gt;Node18 -->
<g id="edge47" class="edge"><title>Node8&#45;&gt;Node18</title>
<path fill="none" stroke="midnightblue" d="M771.326,-410.662C790.776,-426.544 832.454,-457.55 874,-469 943.412,-488.13 965.745,-484.754 1036,-469 1053.27,-465.128 1054.83,-456.295 1072,-452 1180.08,-424.958 1310.34,-425.002 1388.55,-428.372"/>
<polygon fill="midnightblue" stroke="midnightblue" points="1388.61,-431.879 1398.76,-428.844 1388.93,-424.886 1388.61,-431.879"/>
</g>
<!-- Node40 -->
<g id="node40" class="node"><title>Node40</title>
<g id="a_node40"><a xlink:href="../../dc/da8/classAnaModule.html#a815e50856d90a0bc816ad165bcf8d8f4" target="_top" xlink:title="AnaModule::set_output\l_filename">
<polygon fill="none" stroke="black" points="897.5,-114 897.5,-144 1012.5,-144 1012.5,-114 897.5,-114"/>
<text text-anchor="start" x="905.5" y="-132" font-family="FreeSans" font-size="10.00">AnaModule::set_output</text>
<text text-anchor="middle" x="955" y="-121" font-family="FreeSans" font-size="10.00">_filename</text>
</a>
</g>
</g>
<!-- Node8&#45;&gt;Node40 -->
<g id="edge48" class="edge"><title>Node8&#45;&gt;Node40</title>
<path fill="none" stroke="midnightblue" d="M761.585,-391.29C768.107,-354.49 796.283,-222.251 874,-154 878.237,-150.279 883.024,-147.112 888.098,-144.416"/>
<polygon fill="midnightblue" stroke="midnightblue" points="889.889,-147.443 897.483,-140.055 886.939,-141.095 889.889,-147.443"/>
</g>
<!-- Node41 -->
<g id="node41" class="node"><title>Node41</title>
<g id="a_node41"><a xlink:href="../../d0/da0/classGeomSvc.html#a5c51613529dae6339bb35eb99e81f758" target="_top" xlink:title="GeomSvc::UseDbSvc">
<polygon fill="none" stroke="black" points="900.5,-75.5 900.5,-94.5 1009.5,-94.5 1009.5,-75.5 900.5,-75.5"/>
<text text-anchor="middle" x="955" y="-82.5" font-family="FreeSans" font-size="10.00">GeomSvc::UseDbSvc</text>
</a>
</g>
</g>
<!-- Node8&#45;&gt;Node41 -->
<g id="edge49" class="edge"><title>Node8&#45;&gt;Node41</title>
<path fill="none" stroke="midnightblue" d="M760.594,-391.23C763.677,-349.532 781.51,-184.914 874,-104 878.865,-99.7439 884.512,-96.3989 890.512,-93.776"/>
<polygon fill="midnightblue" stroke="midnightblue" points="891.994,-96.9602 900.169,-90.2214 889.576,-90.391 891.994,-96.9602"/>
</g>
<!-- Node42 -->
<g id="node42" class="node"><title>Node42</title>
<g id="a_node42"><a xlink:href="../../d5/dec/classFun4AllBase.html#a05da2261577843028cf78e99171343b9" target="_top" xlink:title="Sets the verbosity of this module (0 by default=quiet). ">
<polygon fill="none" stroke="black" points="897.5,-631.5 897.5,-650.5 1012.5,-650.5 1012.5,-631.5 897.5,-631.5"/>
<text text-anchor="middle" x="955" y="-638.5" font-family="FreeSans" font-size="10.00">Fun4AllBase::Verbosity</text>
</a>
</g>
</g>
<!-- Node8&#45;&gt;Node42 -->
<g id="edge50" class="edge"><title>Node8&#45;&gt;Node42</title>
<path fill="none" stroke="midnightblue" d="M767.766,-410.725C782.903,-430.039 816.73,-474.998 838,-517 859.341,-559.141 839.707,-584.514 874,-617 878.145,-620.927 882.907,-624.213 887.999,-626.963"/>
<polygon fill="midnightblue" stroke="midnightblue" points="886.915,-630.319 897.459,-631.358 889.864,-623.97 886.915,-630.319"/>
</g>
<!-- Node10 -->
<g id="node10" class="node"><title>Node10</title>
<g id="a_node10"><a xlink:href="../../d5/de9/E1039Shielding_2ana_8C.html#a4770f9752bd2f6c264c3a5f0e5f07bf3" target="_top" xlink:title="drawSnglAccPz">
<polygon fill="none" stroke="red" points="1094.5,-707.5 1094.5,-726.5 1179.5,-726.5 1179.5,-707.5 1094.5,-707.5"/>
<text text-anchor="middle" x="1137" y="-714.5" font-family="FreeSans" font-size="10.00">drawSnglAccPz</text>
</a>
</g>
</g>
<!-- Node9&#45;&gt;Node10 -->
<g id="edge9" class="edge"><title>Node9&#45;&gt;Node10</title>
<path fill="none" stroke="midnightblue" d="M971.037,-717C995.702,-717 1045.87,-717 1084.43,-717"/>
<polygon fill="midnightblue" stroke="midnightblue" points="1084.47,-720.5 1094.47,-717 1084.47,-713.5 1084.47,-720.5"/>
</g>
<!-- Node12 -->
<g id="node12" class="node"><title>Node12</title>
<g id="a_node12"><a xlink:href="../../da/d29/classFun4AllServer.html#a53b1b6b338aa36891f2690a188920980" target="_top" xlink:title="Fun4AllServer::EndRun">
<polygon fill="none" stroke="black" points="1079,-593.5 1079,-612.5 1195,-612.5 1195,-593.5 1079,-593.5"/>
<text text-anchor="middle" x="1137" y="-600.5" font-family="FreeSans" font-size="10.00">Fun4AllServer::EndRun</text>
</a>
</g>
</g>
<!-- Node11&#45;&gt;Node12 -->
<g id="edge11" class="edge"><title>Node11&#45;&gt;Node12</title>
<path fill="none" stroke="midnightblue" d="M1004.25,-533.72C1015.16,-536.505 1026.35,-540.44 1036,-546 1056.16,-557.616 1052.17,-571.83 1072,-584 1075.4,-586.089 1079.05,-587.96 1082.81,-589.633"/>
<polygon fill="midnightblue" stroke="midnightblue" points="1081.75,-592.975 1092.33,-593.399 1084.32,-586.466 1081.75,-592.975"/>
</g>
<!-- Node13 -->
<g id="node13" class="node"><title>Node13</title>
<g id="a_node13"><a xlink:href="../../d5/d07/classPHNodeIterator.html#aea98bf8619af59b1212a94fb32106baa" target="_top" xlink:title="PHNodeIterator::findFirst">
<polygon fill="none" stroke="red" points="1076,-461.5 1076,-480.5 1198,-480.5 1198,-461.5 1076,-461.5"/>
<text text-anchor="middle" x="1137" y="-468.5" font-family="FreeSans" font-size="10.00">PHNodeIterator::findFirst</text>
</a>
</g>
</g>
<!-- Node11&#45;&gt;Node13 -->
<g id="edge12" class="edge"><title>Node11&#45;&gt;Node13</title>
<path fill="none" stroke="midnightblue" d="M988.349,-517.442C1002.93,-513.096 1020.35,-507.851 1036,-503 1056.22,-496.733 1078.67,-489.566 1097.17,-483.607"/>
<polygon fill="midnightblue" stroke="midnightblue" points="1098.29,-486.925 1106.73,-480.522 1096.14,-480.263 1098.29,-486.925"/>
</g>
<!-- Node14 -->
<g id="node14" class="node"><title>Node14</title>
<g id="a_node14"><a xlink:href="../../d1/da8/classPHFlag.html#a07899067141a5f12333cc37183caddc8" target="_top" xlink:title="PHFlag::get_IntFlag">
<polygon fill="none" stroke="black" points="1086,-555.5 1086,-574.5 1188,-574.5 1188,-555.5 1086,-555.5"/>
<text text-anchor="middle" x="1137" y="-562.5" font-family="FreeSans" font-size="10.00">PHFlag::get_IntFlag</text>
</a>
</g>
</g>
<!-- Node11&#45;&gt;Node14 -->
<g id="edge14" class="edge"><title>Node11&#45;&gt;Node14</title>
<path fill="none" stroke="midnightblue" d="M1001.42,-536.589C1025.6,-541.694 1055.53,-548.011 1081.01,-553.392"/>
<polygon fill="midnightblue" stroke="midnightblue" points="1080.4,-556.839 1090.91,-555.48 1081.84,-549.99 1080.4,-556.839"/>
</g>
<!-- Node11&#45;&gt;Node15 -->
<g id="edge15" class="edge"><title>Node11&#45;&gt;Node15</title>
<path fill="none" stroke="midnightblue" d="M1004.03,-531.189C1015.43,-534.035 1026.9,-538.632 1036,-546 1065.04,-569.525 1043.62,-597.68 1072,-622 1073.96,-623.683 1076.07,-625.217 1078.28,-626.615"/>
<polygon fill="midnightblue" stroke="midnightblue" points="1076.77,-629.773 1087.24,-631.361 1080.04,-623.587 1076.77,-629.773"/>
</g>
<!-- Node22 -->
<g id="node22" class="node"><title>Node22</title>
<g id="a_node22"><a xlink:href="../../da/d29/classFun4AllServer.html#a6f2074f451d0c0c1b4a802edde5ffb94" target="_top" xlink:title="Fun4AllServer::outfileclose">
<polygon fill="none" stroke="red" points="1072,-517.5 1072,-536.5 1202,-536.5 1202,-517.5 1072,-517.5"/>
<text text-anchor="middle" x="1137" y="-524.5" font-family="FreeSans" font-size="10.00">Fun4AllServer::outfileclose</text>
</a>
</g>
</g>
<!-- Node11&#45;&gt;Node22 -->
<g id="edge22" class="edge"><title>Node11&#45;&gt;Node22</title>
<path fill="none" stroke="midnightblue" d="M1004.24,-527C1021.88,-527 1042.28,-527 1061.68,-527"/>
<polygon fill="midnightblue" stroke="midnightblue" points="1061.71,-530.5 1071.71,-527 1061.71,-523.5 1061.71,-530.5"/>
</g>
<!-- Node13&#45;&gt;Node13 -->
<g id="edge13" class="edge"><title>Node13&#45;&gt;Node13</title>
<path fill="none" stroke="midnightblue" d="M1112.03,-480.757C1099.88,-489.565 1108.21,-499 1137,-499 1156.35,-499 1166.45,-494.741 1167.31,-489.275"/>
<polygon fill="midnightblue" stroke="midnightblue" points="1170.25,-487.367 1161.97,-480.757 1164.32,-491.088 1170.25,-487.367"/>
</g>
<!-- Node16 -->
<g id="node16" class="node"><title>Node16</title>
<g id="a_node16"><a xlink:href="../../d8/d14/classrecoConsts.html#ae882d6adc62f783ec78114fe3dee3c24" target="_top" xlink:title="recoConsts::recoConsts">
<polygon fill="none" stroke="black" points="1240.5,-631.5 1240.5,-650.5 1357.5,-650.5 1357.5,-631.5 1240.5,-631.5"/>
<text text-anchor="middle" x="1299" y="-638.5" font-family="FreeSans" font-size="10.00">recoConsts::recoConsts</text>
</a>
</g>
</g>
<!-- Node15&#45;&gt;Node16 -->
<g id="edge16" class="edge"><title>Node15&#45;&gt;Node16</title>
<path fill="none" stroke="midnightblue" d="M1189.51,-641C1202.46,-641 1216.57,-641 1230.19,-641"/>
<polygon fill="midnightblue" stroke="midnightblue" points="1230.49,-644.5 1240.49,-641 1230.49,-637.5 1230.49,-644.5"/>
</g>
<!-- Node17 -->
<g id="node17" class="node"><title>Node17</title>
<g id="a_node17"><a xlink:href="../../d8/d14/classrecoConsts.html#a864b1da9614924988d09542c268c42dc" target="_top" xlink:title="set the default value for all the constants needed &#45; user is supposed to add a default value here to ...">
<polygon fill="none" stroke="black" points="1238.5,-461.5 1238.5,-480.5 1359.5,-480.5 1359.5,-461.5 1238.5,-461.5"/>
<text text-anchor="middle" x="1299" y="-468.5" font-family="FreeSans" font-size="10.00">recoConsts::set_defaults</text>
</a>
</g>
</g>
<!-- Node15&#45;&gt;Node17 -->
<g id="edge17" class="edge"><title>Node15&#45;&gt;Node17</title>
<path fill="none" stroke="midnightblue" d="M1184.67,-631.489C1190.84,-629.019 1196.82,-625.91 1202,-622 1248.34,-587.028 1278.18,-522.65 1290.92,-490.433"/>
<polygon fill="midnightblue" stroke="midnightblue" points="1294.29,-491.42 1294.58,-480.83 1287.75,-488.926 1294.29,-491.42"/>
</g>
<!-- Node17&#45;&gt;Node18 -->
<g id="edge18" class="edge"><title>Node17&#45;&gt;Node18</title>
<path fill="none" stroke="midnightblue" d="M1339.87,-461.411C1360.72,-456.396 1386.43,-450.212 1408.54,-444.895"/>
<polygon fill="midnightblue" stroke="midnightblue" points="1409.51,-448.261 1418.42,-442.52 1407.88,-441.456 1409.51,-448.261"/>
</g>
<!-- Node17&#45;&gt;Node19 -->
<g id="edge19" class="edge"><title>Node17&#45;&gt;Node19</title>
<path fill="none" stroke="midnightblue" d="M1315.9,-461.412C1334.89,-449.998 1367.65,-430.415 1396,-414 1407.78,-407.177 1420.91,-399.745 1432.03,-393.492"/>
<polygon fill="midnightblue" stroke="midnightblue" points="1433.83,-396.499 1440.84,-388.556 1430.4,-390.394 1433.83,-396.499"/>
</g>
<!-- Node20 -->
<g id="node20" class="node"><title>Node20</title>
<g id="a_node20"><a xlink:href="../../d8/d14/classrecoConsts.html#aec7c7c885b190f7dbb57ac99af4587e6" target="_top" xlink:title="overide the virtual function to expand the environmental variables ">
<polygon fill="none" stroke="red" points="1396,-499.5 1396,-518.5 1522,-518.5 1522,-499.5 1396,-499.5"/>
<text text-anchor="middle" x="1459" y="-506.5" font-family="FreeSans" font-size="10.00">recoConsts::set_CharFlag</text>
</a>
</g>
</g>
<!-- Node17&#45;&gt;Node20 -->
<g id="edge20" class="edge"><title>Node17&#45;&gt;Node20</title>
<path fill="none" stroke="midnightblue" d="M1339.87,-480.589C1360.72,-485.604 1386.43,-491.788 1408.54,-497.105"/>
<polygon fill="midnightblue" stroke="midnightblue" points="1407.88,-500.544 1418.42,-499.48 1409.51,-493.739 1407.88,-500.544"/>
</g>
<!-- Node21 -->
<g id="node21" class="node"><title>Node21</title>
<g id="a_node21"><a xlink:href="../../d1/da8/classPHFlag.html#a3ef5c3f1eff2daaaf18e5129858a9ef8" target="_top" xlink:title="PHFlag::set_IntFlag">
<polygon fill="none" stroke="black" points="1408.5,-461.5 1408.5,-480.5 1509.5,-480.5 1509.5,-461.5 1408.5,-461.5"/>
<text text-anchor="middle" x="1459" y="-468.5" font-family="FreeSans" font-size="10.00">PHFlag::set_IntFlag</text>
</a>
</g>
</g>
<!-- Node17&#45;&gt;Node21 -->
<g id="edge21" class="edge"><title>Node17&#45;&gt;Node21</title>
<path fill="none" stroke="midnightblue" d="M1359.73,-471C1372.3,-471 1385.55,-471 1398.12,-471"/>
<polygon fill="midnightblue" stroke="midnightblue" points="1398.48,-474.5 1408.48,-471 1398.48,-467.5 1398.48,-474.5"/>
</g>
<!-- Node27 -->
<g id="node27" class="node"><title>Node27</title>
<g id="a_node27"><a xlink:href="../../d1/da8/classPHFlag.html#a22faecd438ab5934d1634d1dec80bbbc" target="_top" xlink:title="PHFlag::PrintCharFlags">
<polygon fill="none" stroke="black" points="1078.5,-163.5 1078.5,-182.5 1195.5,-182.5 1195.5,-163.5 1078.5,-163.5"/>
<text text-anchor="middle" x="1137" y="-170.5" font-family="FreeSans" font-size="10.00">PHFlag::PrintCharFlags</text>
</a>
</g>
</g>
<!-- Node26&#45;&gt;Node27 -->
<g id="edge29" class="edge"><title>Node26&#45;&gt;Node27</title>
<path fill="none" stroke="midnightblue" d="M999.573,-201.801C1024.01,-196.643 1054.73,-190.158 1080.82,-184.648"/>
<polygon fill="midnightblue" stroke="midnightblue" points="1081.89,-188.001 1090.95,-182.511 1080.44,-181.152 1081.89,-188.001"/>
</g>
<!-- Node28 -->
<g id="node28" class="node"><title>Node28</title>
<g id="a_node28"><a xlink:href="../../d1/da8/classPHFlag.html#ac342a6f0241b1db3bbf5cbb82635a572" target="_top" xlink:title="PHFlag::PrintFloatFlags">
<polygon fill="none" stroke="black" points="1077.5,-125.5 1077.5,-144.5 1196.5,-144.5 1196.5,-125.5 1077.5,-125.5"/>
<text text-anchor="middle" x="1137" y="-132.5" font-family="FreeSans" font-size="10.00">PHFlag::PrintFloatFlags</text>
</a>
</g>
</g>
<!-- Node26&#45;&gt;Node28 -->
<g id="edge30" class="edge"><title>Node26&#45;&gt;Node28</title>
<path fill="none" stroke="midnightblue" d="M999.662,-205.391C1011.97,-202.573 1024.99,-198.344 1036,-192 1056.16,-180.384 1052.17,-166.17 1072,-154 1075.4,-151.911 1079.05,-150.04 1082.81,-148.367"/>
<polygon fill="midnightblue" stroke="midnightblue" points="1084.32,-151.534 1092.33,-144.601 1081.75,-145.025 1084.32,-151.534"/>
</g>
<!-- Node29 -->
<g id="node29" class="node"><title>Node29</title>
<g id="a_node29"><a xlink:href="../../d1/da8/classPHFlag.html#a1ff4c6fb4381385006ee1a1a98127db5" target="_top" xlink:title="PHFlag::PrintDoubleFlags">
<polygon fill="none" stroke="black" points="1073.5,-87.5 1073.5,-106.5 1200.5,-106.5 1200.5,-87.5 1073.5,-87.5"/>
<text text-anchor="middle" x="1137" y="-94.5" font-family="FreeSans" font-size="10.00">PHFlag::PrintDoubleFlags</text>
</a>
</g>
</g>
<!-- Node26&#45;&gt;Node29 -->
<g id="edge31" class="edge"><title>Node26&#45;&gt;Node29</title>
<path fill="none" stroke="midnightblue" d="M999.865,-207.775C1012.59,-205.045 1025.79,-200.266 1036,-192 1065.04,-168.475 1043.62,-140.32 1072,-116 1073.96,-114.317 1076.07,-112.783 1078.28,-111.385"/>
<polygon fill="midnightblue" stroke="midnightblue" points="1080.04,-114.413 1087.24,-106.639 1076.77,-108.227 1080.04,-114.413"/>
</g>
<!-- Node30 -->
<g id="node30" class="node"><title>Node30</title>
<g id="a_node30"><a xlink:href="../../d1/da8/classPHFlag.html#ad1b9a7480bf5f4c89b9d3c7a8bc0a80a" target="_top" xlink:title="PHFlag::PrintIntFlags">
<polygon fill="none" stroke="black" points="1083,-239.5 1083,-258.5 1191,-258.5 1191,-239.5 1083,-239.5"/>
<text text-anchor="middle" x="1137" y="-246.5" font-family="FreeSans" font-size="10.00">PHFlag::PrintIntFlags</text>
</a>
</g>
</g>
<!-- Node26&#45;&gt;Node30 -->
<g id="edge32" class="edge"><title>Node26&#45;&gt;Node30</title>
<path fill="none" stroke="midnightblue" d="M999.573,-220.199C1024.01,-225.357 1054.73,-231.842 1080.82,-237.352"/>
<polygon fill="midnightblue" stroke="midnightblue" points="1080.44,-240.848 1090.95,-239.489 1081.89,-233.999 1080.44,-240.848"/>
</g>
<!-- Node31 -->
<g id="node31" class="node"><title>Node31</title>
<g id="a_node31"><a xlink:href="../../d1/da8/classPHFlag.html#a982354b034569d3d6bc464acc3ec1359" target="_top" xlink:title="PHFlag::PrintBoolFlags">
<polygon fill="none" stroke="black" points="1079,-201.5 1079,-220.5 1195,-220.5 1195,-201.5 1079,-201.5"/>
<text text-anchor="middle" x="1137" y="-208.5" font-family="FreeSans" font-size="10.00">PHFlag::PrintBoolFlags</text>
</a>
</g>
</g>
<!-- Node26&#45;&gt;Node31 -->
<g id="edge33" class="edge"><title>Node26&#45;&gt;Node31</title>
<path fill="none" stroke="midnightblue" d="M999.573,-211C1020.33,-211 1045.62,-211 1068.76,-211"/>
<polygon fill="midnightblue" stroke="midnightblue" points="1068.87,-214.5 1078.87,-211 1068.87,-207.5 1068.87,-214.5"/>
</g>
<!-- Node34 -->
<g id="node34" class="node"><title>Node34</title>
<g id="a_node34"><a xlink:href="../../d0/da0/classGeomSvc.html#a3e4f40789e9b2a98477ab8e8191d5ff2" target="_top" xlink:title="Get the plane position. ">
<polygon fill="none" stroke="black" points="1075,-49.5 1075,-68.5 1199,-68.5 1199,-49.5 1075,-49.5"/>
<text text-anchor="middle" x="1137" y="-56.5" font-family="FreeSans" font-size="10.00">GeomSvc::getDetectorID</text>
</a>
</g>
</g>
<!-- Node33&#45;&gt;Node34 -->
<g id="edge36" class="edge"><title>Node33&#45;&gt;Node34</title>
<path fill="none" stroke="midnightblue" d="M1018.07,-163.447C1024.53,-160.76 1030.67,-157.343 1036,-153 1064.65,-129.632 1043.86,-101.987 1072,-78 1074.01,-76.2894 1076.16,-74.7327 1078.42,-73.3162"/>
<polygon fill="midnightblue" stroke="midnightblue" points="1080.35,-76.2577 1087.59,-68.518 1077.1,-70.0565 1080.35,-76.2577"/>
</g>
<!-- Node36 -->
<g id="node36" class="node"><title>Node36</title>
<g id="a_node36"><a xlink:href="../../dd/ded/classFun4AllSyncManager.html#a2a284bc4ed777ec7f39d6e5c7090067c" target="_top" xlink:title="Fun4AllSyncManager\l::registerInputManager">
<polygon fill="none" stroke="red" points="1081,-0 1081,-30 1193,-30 1193,-0 1081,-0"/>
<text text-anchor="start" x="1089" y="-18" font-family="FreeSans" font-size="10.00">Fun4AllSyncManager</text>
<text text-anchor="middle" x="1137" y="-7" font-family="FreeSans" font-size="10.00">::registerInputManager</text>
</a>
</g>
</g>
<!-- Node35&#45;&gt;Node36 -->
<g id="edge38" class="edge"><title>Node35&#45;&gt;Node36</title>
<path fill="none" stroke="midnightblue" d="M1022.51,-23.1962C1038.29,-22.057 1055.1,-20.8431 1070.81,-19.7083"/>
<polygon fill="midnightblue" stroke="midnightblue" points="1071.23,-23.1868 1080.95,-18.9755 1070.73,-16.205 1071.23,-23.1868"/>
</g>
<!-- Node38 -->
<g id="node38" class="node"><title>Node38</title>
<g id="a_node38"><a xlink:href="../../d0/d32/classSubsysReco.html#a6670c0a093dd2c2bdd44f8fc6f9ba8e8" target="_top" xlink:title="SubsysReco::Init">
<polygon fill="none" stroke="black" points="1093,-277.5 1093,-296.5 1181,-296.5 1181,-277.5 1093,-277.5"/>
<text text-anchor="middle" x="1137" y="-284.5" font-family="FreeSans" font-size="10.00">SubsysReco::Init</text>
</a>
</g>
</g>
<!-- Node37&#45;&gt;Node38 -->
<g id="edge40" class="edge"><title>Node37&#45;&gt;Node38</title>
<path fill="none" stroke="midnightblue" d="M1035.74,-287C1051.48,-287 1067.64,-287 1082.27,-287"/>
<polygon fill="midnightblue" stroke="midnightblue" points="1082.62,-290.5 1092.62,-287 1082.62,-283.5 1082.62,-290.5"/>
</g>
<!-- Node37&#45;&gt;Node25 -->
<g id="edge41" class="edge"><title>Node37&#45;&gt;Node25</title>
<path fill="none" stroke="midnightblue" d="M1001.42,-296.589C1025.6,-301.694 1055.53,-308.011 1081.01,-313.392"/>
<polygon fill="midnightblue" stroke="midnightblue" points="1080.4,-316.839 1090.91,-315.48 1081.84,-309.99 1080.4,-316.839"/>
</g>
<!-- Node39&#45;&gt;Node12 -->
<g id="edge43" class="edge"><title>Node39&#45;&gt;Node12</title>
<path fill="none" stroke="midnightblue" d="M1001.42,-574.589C1025.6,-579.694 1055.53,-586.011 1081.01,-591.392"/>
<polygon fill="midnightblue" stroke="midnightblue" points="1080.4,-594.839 1090.91,-593.48 1081.84,-587.99 1080.4,-594.839"/>
</g>
<!-- Node39&#45;&gt;Node14 -->
<g id="edge44" class="edge"><title>Node39&#45;&gt;Node14</title>
<path fill="none" stroke="midnightblue" d="M1002.82,-565C1025.05,-565 1051.89,-565 1075.63,-565"/>
<polygon fill="midnightblue" stroke="midnightblue" points="1075.94,-568.5 1085.94,-565 1075.94,-561.5 1075.94,-568.5"/>
</g>
<!-- Node39&#45;&gt;Node15 -->
<g id="edge45" class="edge"><title>Node39&#45;&gt;Node15</title>
<path fill="none" stroke="midnightblue" d="M1000.64,-574.544C1012.57,-578.11 1025.16,-582.839 1036,-589 1054.87,-599.723 1053.11,-611.304 1072,-622 1075.91,-624.212 1080.1,-626.19 1084.39,-627.954"/>
<polygon fill="midnightblue" stroke="midnightblue" points="1083.31,-631.286 1093.91,-631.48 1085.75,-624.722 1083.31,-631.286"/>
</g>
<!-- Node44&#45;&gt;Node45 -->
<g id="edge53" class="edge"><title>Node44&#45;&gt;Node45</title>
<path fill="none" stroke="midnightblue" d="M640.76,-574.558C655.796,-576.923 672.032,-579.477 687.489,-581.908"/>
<polygon fill="midnightblue" stroke="midnightblue" points="687.092,-585.389 697.514,-583.485 688.18,-578.474 687.092,-585.389"/>
</g>
<!-- Node44&#45;&gt;Node43 -->
<g id="edge54" class="edge"><title>Node44&#45;&gt;Node43</title>
<path fill="none" stroke="midnightblue" d="M638.777,-555.424C654.962,-552.787 672.66,-549.904 689.35,-547.185"/>
<polygon fill="midnightblue" stroke="midnightblue" points="690.281,-550.579 699.588,-545.517 689.155,-543.67 690.281,-550.579"/>
</g>
<!-- Node48&#45;&gt;Node3 -->
<g id="edge59" class="edge"><title>Node48&#45;&gt;Node3</title>
<path fill="none" stroke="midnightblue" d="M643.007,-761.725C654.57,-762.96 666.776,-764.263 678.743,-765.54"/>
<polygon fill="midnightblue" stroke="midnightblue" points="678.406,-769.024 688.721,-766.605 679.149,-762.063 678.406,-769.024"/>
</g>
<!-- Node50 -->
<g id="node50" class="node"><title>Node50</title>
<g id="a_node50"><a xlink:href="../../d3/d96/classFun4AllHistoManager.html#a7e1354855437fa28bb0d29dc0581d0a6" target="_top" xlink:title="Fun4AllHistoManager\l::registerHisto">
<polygon fill="none" stroke="black" points="368.5,-430 368.5,-460 477.5,-460 477.5,-430 368.5,-430"/>
<text text-anchor="start" x="376.5" y="-448" font-family="FreeSans" font-size="10.00">Fun4AllHistoManager</text>
<text text-anchor="middle" x="423" y="-437" font-family="FreeSans" font-size="10.00">::registerHisto</text>
</a>
</g>
</g>
<!-- Node49&#45;&gt;Node50 -->
<g id="edge62" class="edge"><title>Node49&#45;&gt;Node50</title>
<path fill="none" stroke="midnightblue" d="M283.986,-495.493C307.356,-486.943 342.354,-474.139 371.258,-463.564"/>
<polygon fill="midnightblue" stroke="midnightblue" points="372.612,-466.796 380.801,-460.073 370.207,-460.222 372.612,-466.796"/>
</g>
</g>
</svg>
