<?xml version="1.0" encoding="UTF-8" standalone="no"?>
<!DOCTYPE svg PUBLIC "-//W3C//DTD SVG 1.1//EN"
 "http://www.w3.org/Graphics/SVG/1.1/DTD/svg11.dtd">
<!-- Generated by graphviz version 2.36.0 (20140111.2315)
 -->
<!-- Title: /home/yuhw/GitHub/SeaQuest/seaquest&#45;ktracker/alignment/tools/update.cxx Pages: 1 -->
<svg width="2038pt" height="386pt"
 viewBox="0.00 0.00 2038.00 386.00" xmlns="http://www.w3.org/2000/svg" xmlns:xlink="http://www.w3.org/1999/xlink">
<g id="graph0" class="graph" transform="scale(1 1) rotate(0) translate(4 382)">
<title>/home/yuhw/GitHub/SeaQuest/seaquest&#45;ktracker/alignment/tools/update.cxx</title>
<!-- Node1 -->
<g id="node1" class="node"><title>Node1</title>
<polygon fill="#bfbfbf" stroke="black" points="268.5,-336.5 268.5,-377.5 417.5,-377.5 417.5,-336.5 268.5,-336.5"/>
<text text-anchor="start" x="276.5" y="-365.5" font-family="FreeSans" font-size="10.00">/home/yuhw/GitHub/SeaQuest</text>
<text text-anchor="start" x="276.5" y="-354.5" font-family="FreeSans" font-size="10.00">/seaquest&#45;ktracker/alignment</text>
<text text-anchor="middle" x="343" y="-343.5" font-family="FreeSans" font-size="10.00">/tools/update.cxx</text>
</g>
<!-- Node2 -->
<g id="node2" class="node"><title>Node2</title>
<polygon fill="none" stroke="#bfbfbf" points="263,-0.5 263,-19.5 317,-19.5 317,-0.5 263,-0.5"/>
<text text-anchor="middle" x="290" y="-7.5" font-family="FreeSans" font-size="10.00">iostream</text>
</g>
<!-- Node1&#45;&gt;Node2 -->
<g id="edge1" class="edge"><title>Node1&#45;&gt;Node2</title>
<path fill="none" stroke="midnightblue" d="M268.41,-343.273C209.796,-328.493 138,-297.611 138,-235 138,-235 138,-235 138,-121 138,-64.3693 208.1,-33.9247 253.09,-20.2172"/>
<polygon fill="midnightblue" stroke="midnightblue" points="254.198,-23.54 262.825,-17.3902 252.246,-16.8177 254.198,-23.54"/>
</g>
<!-- Node3 -->
<g id="node3" class="node"><title>Node3</title>
<polygon fill="none" stroke="#bfbfbf" points="680,-56.5 680,-75.5 724,-75.5 724,-56.5 680,-56.5"/>
<text text-anchor="middle" x="702" y="-63.5" font-family="FreeSans" font-size="10.00">cmath</text>
</g>
<!-- Node1&#45;&gt;Node3 -->
<g id="edge2" class="edge"><title>Node1&#45;&gt;Node3</title>
<path fill="none" stroke="midnightblue" d="M326.435,-336.39C318.927,-326.225 310.876,-313.196 307,-300 297.481,-267.591 290.21,-253.309 307,-224 319.229,-202.653 475.081,-120.941 498,-112 568.33,-84.5631 590.378,-92.7 664,-76 665.934,-75.5613 667.922,-75.1054 669.927,-74.6419"/>
<polygon fill="midnightblue" stroke="midnightblue" points="670.973,-77.9916 679.913,-72.3059 669.379,-71.1756 670.973,-77.9916"/>
</g>
<!-- Node4 -->
<g id="node4" class="node"><title>Node4</title>
<polygon fill="none" stroke="#bfbfbf" points="818,-56.5 818,-75.5 874,-75.5 874,-56.5 818,-56.5"/>
<text text-anchor="middle" x="846" y="-63.5" font-family="FreeSans" font-size="10.00">algorithm</text>
</g>
<!-- Node1&#45;&gt;Node4 -->
<g id="edge3" class="edge"><title>Node1&#45;&gt;Node4</title>
<path fill="none" stroke="midnightblue" d="M335.744,-336.324C326.826,-308.408 315.662,-257.034 340,-224 368.834,-184.864 695.097,-103.303 807.903,-76.0717"/>
<polygon fill="midnightblue" stroke="midnightblue" points="808.925,-79.4258 817.828,-73.6832 807.287,-72.6201 808.925,-79.4258"/>
</g>
<!-- Node5 -->
<g id="node5" class="node"><title>Node5</title>
<polygon fill="none" stroke="#bfbfbf" points="408.5,-0.5 408.5,-19.5 449.5,-19.5 449.5,-0.5 408.5,-0.5"/>
<text text-anchor="middle" x="429" y="-7.5" font-family="FreeSans" font-size="10.00">string</text>
</g>
<!-- Node1&#45;&gt;Node5 -->
<g id="edge4" class="edge"><title>Node1&#45;&gt;Node5</title>
<path fill="none" stroke="midnightblue" d="M298.244,-336.393C260.986,-316.691 214,-282.441 214,-235 214,-235 214,-235 214,-121 214,-39.2943 338.581,-18.2405 398.078,-12.8446"/>
<polygon fill="midnightblue" stroke="midnightblue" points="398.701,-16.3056 408.385,-12.0081 398.135,-9.32853 398.701,-16.3056"/>
</g>
<!-- Node6 -->
<g id="node6" class="node"><title>Node6</title>
<polygon fill="none" stroke="#bfbfbf" points="1781,-0.5 1781,-19.5 1839,-19.5 1839,-0.5 1781,-0.5"/>
<text text-anchor="middle" x="1810" y="-7.5" font-family="FreeSans" font-size="10.00">TROOT.h</text>
</g>
<!-- Node1&#45;&gt;Node6 -->
<g id="edge5" class="edge"><title>Node1&#45;&gt;Node6</title>
<path fill="none" stroke="midnightblue" d="M417.662,-354.246C731.046,-346.403 1924,-311.52 1924,-235 1924,-235 1924,-235 1924,-121 1924,-74.1149 1873.45,-40.8944 1839.67,-23.9302"/>
<polygon fill="midnightblue" stroke="midnightblue" points="1841.17,-20.7687 1830.64,-19.5787 1838.13,-27.0742 1841.17,-20.7687"/>
</g>
<!-- Node7 -->
<g id="node7" class="node"><title>Node7</title>
<polygon fill="none" stroke="#bfbfbf" points="77,-0.5 77,-19.5 123,-19.5 123,-0.5 77,-0.5"/>
<text text-anchor="middle" x="100" y="-7.5" font-family="FreeSans" font-size="10.00">TFile.h</text>
</g>
<!-- Node1&#45;&gt;Node7 -->
<g id="edge6" class="edge"><title>Node1&#45;&gt;Node7</title>
<path fill="none" stroke="midnightblue" d="M268.435,-354.728C185.187,-348.886 62,-325.031 62,-235 62,-235 62,-235 62,-121 62,-86.8131 78.6005,-49.7639 89.8573,-28.5707"/>
<polygon fill="midnightblue" stroke="midnightblue" points="92.9473,-30.2151 94.7163,-19.769 86.8191,-26.832 92.9473,-30.2151"/>
</g>
<!-- Node8 -->
<g id="node8" class="node"><title>Node8</title>
<polygon fill="none" stroke="#bfbfbf" points="349,-224.5 349,-243.5 399,-243.5 399,-224.5 349,-224.5"/>
<text text-anchor="middle" x="374" y="-231.5" font-family="FreeSans" font-size="10.00">TTree.h</text>
</g>
<!-- Node1&#45;&gt;Node8 -->
<g id="edge7" class="edge"><title>Node1&#45;&gt;Node8</title>
<path fill="none" stroke="midnightblue" d="M348.05,-336.29C353.92,-313.375 363.535,-275.846 369.267,-253.473"/>
<polygon fill="midnightblue" stroke="midnightblue" points="372.712,-254.131 371.803,-243.575 365.931,-252.393 372.712,-254.131"/>
</g>
<!-- Node9 -->
<g id="node9" class="node"><title>Node9</title>
<polygon fill="none" stroke="#bfbfbf" points="0,-0.5 0,-19.5 56,-19.5 56,-0.5 0,-0.5"/>
<text text-anchor="middle" x="28" y="-7.5" font-family="FreeSans" font-size="10.00">TString.h</text>
</g>
<!-- Node1&#45;&gt;Node9 -->
<g id="edge8" class="edge"><title>Node1&#45;&gt;Node9</title>
<path fill="none" stroke="midnightblue" d="M268.402,-354.541C211.016,-350.269 131.842,-337.275 73,-300 42.4382,-280.64 24,-271.178 24,-235 24,-235 24,-235 24,-121 24,-88.9268 25.7193,-51.628 26.9035,-29.7413"/>
<polygon fill="midnightblue" stroke="midnightblue" points="30.4093,-29.7349 27.4771,-19.5539 23.4204,-29.3413 30.4093,-29.7349"/>
</g>
<!-- Node10 -->
<g id="node10" class="node"><title>Node10</title>
<polygon fill="none" stroke="#bfbfbf" points="605,-280.5 605,-299.5 673,-299.5 673,-280.5 605,-280.5"/>
<text text-anchor="middle" x="639" y="-287.5" font-family="FreeSans" font-size="10.00">GeomSvc.h</text>
</g>
<!-- Node1&#45;&gt;Node10 -->
<g id="edge9" class="edge"><title>Node1&#45;&gt;Node10</title>
<path fill="none" stroke="midnightblue" d="M417.693,-339.598C473.698,-327.299 548.439,-310.887 595.138,-300.632"/>
<polygon fill="midnightblue" stroke="midnightblue" points="595.929,-304.042 604.946,-298.478 594.428,-297.205 595.929,-304.042"/>
</g>
<!-- Node11 -->
<g id="node11" class="node"><title>Node11</title>
<polygon fill="none" stroke="#bfbfbf" points="691.5,-280.5 691.5,-299.5 766.5,-299.5 766.5,-280.5 691.5,-280.5"/>
<text text-anchor="middle" x="729" y="-287.5" font-family="FreeSans" font-size="10.00">SRawEvent.h</text>
</g>
<!-- Node1&#45;&gt;Node11 -->
<g id="edge10" class="edge"><title>Node1&#45;&gt;Node11</title>
<path fill="none" stroke="midnightblue" d="M417.826,-344.201C484.296,-333.59 584.357,-317.304 681.327,-300.083"/>
<polygon fill="midnightblue" stroke="midnightblue" points="682.074,-303.505 691.306,-298.306 680.847,-296.614 682.074,-303.505"/>
</g>
<!-- Node12 -->
<g id="node12" class="node"><title>Node12</title>
<g id="a_node12"><a xlink:href="../../d6/d97/TriggerAnalyzer_8h.html" target="_top" xlink:title="TriggerAnalyzer.h">
<polygon fill="none" stroke="black" points="495.5,-280.5 495.5,-299.5 586.5,-299.5 586.5,-280.5 495.5,-280.5"/>
<text text-anchor="middle" x="541" y="-287.5" font-family="FreeSans" font-size="10.00">TriggerAnalyzer.h</text>
</a>
</g>
</g>
<!-- Node1&#45;&gt;Node12 -->
<g id="edge11" class="edge"><title>Node1&#45;&gt;Node12</title>
<path fill="none" stroke="midnightblue" d="M402.407,-336.498C435.93,-325.493 476.706,-312.106 505.321,-302.713"/>
<polygon fill="midnightblue" stroke="midnightblue" points="506.494,-306.012 514.903,-299.567 504.311,-299.361 506.494,-306.012"/>
</g>
<!-- Node30 -->
<g id="node30" class="node"><title>Node30</title>
<polygon fill="none" stroke="#bfbfbf" points="1952,-280.5 1952,-299.5 2030,-299.5 2030,-280.5 1952,-280.5"/>
<text text-anchor="middle" x="1991" y="-287.5" font-family="FreeSans" font-size="10.00">JobOptsSvc.h</text>
</g>
<!-- Node1&#45;&gt;Node30 -->
<g id="edge75" class="edge"><title>Node1&#45;&gt;Node30</title>
<path fill="none" stroke="midnightblue" d="M417.667,-354.699C691.089,-349.729 1637.37,-330.665 1938,-300 1939.25,-299.872 1940.52,-299.733 1941.8,-299.583"/>
<polygon fill="midnightblue" stroke="midnightblue" points="1942.26,-303.053 1951.72,-298.269 1941.34,-296.113 1942.26,-303.053"/>
</g>
<!-- Node12&#45;&gt;Node2 -->
<g id="edge12" class="edge"><title>Node12&#45;&gt;Node2</title>
<path fill="none" stroke="midnightblue" d="M526.584,-280.246C500.119,-263.846 442.596,-226.643 400,-188 375.506,-165.779 372.651,-157 351,-132 329.54,-107.22 317.347,-105.474 303,-76 295.917,-61.449 292.693,-43.2705 291.225,-29.8406"/>
<polygon fill="midnightblue" stroke="midnightblue" points="294.711,-29.5204 290.36,-19.8602 287.737,-30.1253 294.711,-29.5204"/>
</g>
<!-- Node12&#45;&gt;Node5 -->
<g id="edge15" class="edge"><title>Node12&#45;&gt;Node5</title>
<path fill="none" stroke="midnightblue" d="M533.268,-280.289C521.816,-267.53 499.486,-243.191 479,-224 432.487,-180.427 406.255,-183.712 369,-132 348.445,-103.469 329.088,-86.2609 347,-56 358.148,-37.1657 380.286,-25.69 398.752,-19.0452"/>
<polygon fill="midnightblue" stroke="midnightblue" points="399.862,-22.3648 408.268,-15.9159 397.675,-15.7152 399.862,-22.3648"/>
</g>
<!-- Node12&#45;&gt;Node6 -->
<g id="edge18" class="edge"><title>Node12&#45;&gt;Node6</title>
<path fill="none" stroke="midnightblue" d="M586.565,-281.139C589.753,-280.714 592.921,-280.328 596,-280 915.484,-246.004 999.677,-287.545 1318,-244 1429.95,-228.685 1459.79,-226.57 1566,-188 1658.5,-154.41 1684.53,-142.57 1757,-76 1772.86,-61.4346 1788.08,-42.008 1798.11,-28.1963"/>
<polygon fill="midnightblue" stroke="midnightblue" points="1801.23,-29.8407 1804.17,-19.66 1795.53,-25.7894 1801.23,-29.8407"/>
</g>
<!-- Node12&#45;&gt;Node7 -->
<g id="edge19" class="edge"><title>Node12&#45;&gt;Node7</title>
<path fill="none" stroke="midnightblue" d="M519.234,-280.374C498.818,-271.99 467.671,-258.438 442,-244 375.452,-206.571 183.656,-70.6788 120.463,-25.625"/>
<polygon fill="midnightblue" stroke="midnightblue" points="122.276,-22.6189 112.103,-19.6593 118.21,-28.317 122.276,-22.6189"/>
</g>
<!-- Node12&#45;&gt;Node8 -->
<g id="edge20" class="edge"><title>Node12&#45;&gt;Node8</title>
<path fill="none" stroke="midnightblue" d="M514.538,-280.444C485.99,-271.212 440.402,-256.471 408.928,-246.294"/>
<polygon fill="midnightblue" stroke="midnightblue" points="409.836,-242.909 399.245,-243.163 407.683,-249.57 409.836,-242.909"/>
</g>
<!-- Node13 -->
<g id="node13" class="node"><title>Node13</title>
<polygon fill="none" stroke="#bfbfbf" points="1126,-0.5 1126,-19.5 1170,-19.5 1170,-0.5 1126,-0.5"/>
<text text-anchor="middle" x="1148" y="-7.5" font-family="FreeSans" font-size="10.00">vector</text>
</g>
<!-- Node12&#45;&gt;Node13 -->
<g id="edge13" class="edge"><title>Node12&#45;&gt;Node13</title>
<path fill="none" stroke="midnightblue" d="M586.567,-281.156C589.754,-280.727 592.922,-280.335 596,-280 887.604,-248.27 965.695,-292.401 1255,-244 1344.78,-228.98 1368.42,-224.043 1452,-188 1496.65,-168.744 1521.97,-174.28 1546,-132 1554.33,-117.348 1561.87,-76.0365 1543,-56 1518.25,-29.7166 1270.07,-16.3357 1180.24,-12.3247"/>
<polygon fill="midnightblue" stroke="midnightblue" points="1180.24,-8.82142 1170.09,-11.8818 1179.93,-15.8148 1180.24,-8.82142"/>
</g>
<!-- Node14 -->
<g id="node14" class="node"><title>Node14</title>
<polygon fill="none" stroke="#bfbfbf" points="1719.5,-0.5 1719.5,-19.5 1748.5,-19.5 1748.5,-0.5 1719.5,-0.5"/>
<text text-anchor="middle" x="1734" y="-7.5" font-family="FreeSans" font-size="10.00">list</text>
</g>
<!-- Node12&#45;&gt;Node14 -->
<g id="edge14" class="edge"><title>Node12&#45;&gt;Node14</title>
<path fill="none" stroke="midnightblue" d="M586.557,-281.063C589.747,-280.656 592.918,-280.295 596,-280 666.264,-273.286 1809.82,-286.734 1866,-244 1890.06,-225.7 1886,-209.225 1886,-179 1886,-179 1886,-179 1886,-121 1886,-58.8393 1801.54,-28.2286 1758.54,-16.6716"/>
<polygon fill="midnightblue" stroke="midnightblue" points="1759.13,-13.2105 1748.57,-14.1363 1757.4,-19.9943 1759.13,-13.2105"/>
</g>
<!-- Node15 -->
<g id="node15" class="node"><title>Node15</title>
<polygon fill="none" stroke="#bfbfbf" points="1828,-224.5 1828,-243.5 1858,-243.5 1858,-224.5 1828,-224.5"/>
<text text-anchor="middle" x="1843" y="-231.5" font-family="FreeSans" font-size="10.00">set</text>
</g>
<!-- Node12&#45;&gt;Node15 -->
<g id="edge16" class="edge"><title>Node12&#45;&gt;Node15</title>
<path fill="none" stroke="midnightblue" d="M586.558,-281.067C589.747,-280.659 592.918,-280.296 596,-280 865.541,-254.079 1546.9,-288.54 1814,-244 1815.29,-243.785 1816.6,-243.528 1817.91,-243.239"/>
<polygon fill="midnightblue" stroke="midnightblue" points="1819.1,-246.544 1827.84,-240.555 1817.27,-239.786 1819.1,-246.544"/>
</g>
<!-- Node16 -->
<g id="node16" class="node"><title>Node16</title>
<polygon fill="none" stroke="#bfbfbf" points="1371.5,-56.5 1371.5,-75.5 1406.5,-75.5 1406.5,-56.5 1371.5,-56.5"/>
<text text-anchor="middle" x="1389" y="-63.5" font-family="FreeSans" font-size="10.00">map</text>
</g>
<!-- Node12&#45;&gt;Node16 -->
<g id="edge17" class="edge"><title>Node12&#45;&gt;Node16</title>
<path fill="none" stroke="midnightblue" d="M586.568,-281.165C589.755,-280.734 592.922,-280.339 596,-280 735.165,-264.674 1098.35,-303.677 1225,-244 1300.14,-208.594 1357.27,-121.851 1379.21,-84.5361"/>
<polygon fill="midnightblue" stroke="midnightblue" points="1382.29,-86.2028 1384.23,-75.7885 1376.22,-82.7151 1382.29,-86.2028"/>
</g>
<!-- Node17 -->
<g id="node17" class="node"><title>Node17</title>
<g id="a_node17"><a xlink:href="../../d9/dcb/seaquest-ktracker_2inc_2GeomSvc_8h.html" target="_top" xlink:title="GeomSvc.h">
<polygon fill="none" stroke="black" points="378,-112.5 378,-131.5 446,-131.5 446,-112.5 378,-112.5"/>
<text text-anchor="middle" x="412" y="-119.5" font-family="FreeSans" font-size="10.00">GeomSvc.h</text>
</a>
</g>
</g>
<!-- Node12&#45;&gt;Node17 -->
<g id="edge21" class="edge"><title>Node12&#45;&gt;Node17</title>
<path fill="none" stroke="midnightblue" d="M539.147,-280.439C536.059,-267.445 528.985,-242.322 517,-224 493.673,-188.338 455.573,-155.871 432.248,-137.839"/>
<polygon fill="midnightblue" stroke="midnightblue" points="434.177,-134.91 424.093,-131.659 429.948,-140.488 434.177,-134.91"/>
</g>
<!-- Node22 -->
<g id="node22" class="node"><title>Node22</title>
<g id="a_node22"><a xlink:href="../../db/deb/seaquest-ktracker_2inc_2TriggerRoad_8h.html" target="_top" xlink:title="TriggerRoad.h">
<polygon fill="none" stroke="black" points="1139.5,-224.5 1139.5,-243.5 1216.5,-243.5 1216.5,-224.5 1139.5,-224.5"/>
<text text-anchor="middle" x="1178" y="-231.5" font-family="FreeSans" font-size="10.00">TriggerRoad.h</text>
</a>
</g>
</g>
<!-- Node12&#45;&gt;Node22 -->
<g id="edge34" class="edge"><title>Node12&#45;&gt;Node22</title>
<path fill="none" stroke="midnightblue" d="M586.576,-281.236C589.761,-280.788 592.926,-280.37 596,-280 793.031,-256.306 1029.17,-242.53 1129.3,-237.363"/>
<polygon fill="midnightblue" stroke="midnightblue" points="1129.6,-240.852 1139.41,-236.847 1129.25,-233.861 1129.6,-240.852"/>
</g>
<!-- Node26 -->
<g id="node26" class="node"><title>Node26</title>
<g id="a_node26"><a xlink:href="../../df/d0e/seaquest-ktracker_2inc_2SRawEvent_8h.html" target="_top" xlink:title="SRawEvent.h">
<polygon fill="none" stroke="black" points="1006.5,-56.5 1006.5,-75.5 1081.5,-75.5 1081.5,-56.5 1006.5,-56.5"/>
<text text-anchor="middle" x="1044" y="-63.5" font-family="FreeSans" font-size="10.00">SRawEvent.h</text>
</a>
</g>
</g>
<!-- Node12&#45;&gt;Node26 -->
<g id="edge74" class="edge"><title>Node12&#45;&gt;Node26</title>
<path fill="none" stroke="midnightblue" d="M560.41,-280.433C637.667,-246.336 923.571,-120.151 1015.4,-79.6217"/>
<polygon fill="midnightblue" stroke="midnightblue" points="1016.91,-82.7809 1024.65,-75.5411 1014.09,-76.3769 1016.91,-82.7809"/>
</g>
<!-- Node17&#45;&gt;Node2 -->
<g id="edge23" class="edge"><title>Node17&#45;&gt;Node2</title>
<path fill="none" stroke="midnightblue" d="M397.572,-112.45C383.887,-104.017 363.083,-90.3413 347,-76 330.275,-61.0866 313.672,-41.4607 302.736,-27.691"/>
<polygon fill="midnightblue" stroke="midnightblue" points="305.333,-25.3301 296.424,-19.5965 299.813,-29.6346 305.333,-25.3301"/>
</g>
<!-- Node17&#45;&gt;Node5 -->
<g id="edge25" class="edge"><title>Node17&#45;&gt;Node5</title>
<path fill="none" stroke="midnightblue" d="M420.483,-112.234C428.054,-103.75 438.604,-90.1314 443,-76 447.87,-60.3447 443.027,-42.053 437.75,-28.8691"/>
<polygon fill="midnightblue" stroke="midnightblue" points="440.862,-27.2545 433.601,-19.539 434.466,-30.0985 440.862,-27.2545"/>
</g>
<!-- Node17&#45;&gt;Node13 -->
<g id="edge24" class="edge"><title>Node17&#45;&gt;Node13</title>
<path fill="none" stroke="midnightblue" d="M446.171,-114.382C502.865,-103.331 611.86,-81.7647 629,-76 648.596,-69.4091 651.07,-61.4995 671,-56 713.696,-44.2186 1015.53,-20.8919 1115.75,-13.3862"/>
<polygon fill="midnightblue" stroke="midnightblue" points="1116.16,-16.8648 1125.88,-12.6301 1115.64,-9.88427 1116.16,-16.8648"/>
</g>
<!-- Node17&#45;&gt;Node16 -->
<g id="edge26" class="edge"><title>Node17&#45;&gt;Node16</title>
<path fill="none" stroke="midnightblue" d="M446.266,-120.634C591.945,-118.886 1161.1,-110.09 1361.36,-75.4452"/>
<polygon fill="midnightblue" stroke="midnightblue" points="1362.25,-78.8409 1371.46,-73.6146 1361,-71.953 1362.25,-78.8409"/>
</g>
<!-- Node18 -->
<g id="node18" class="node"><title>Node18</title>
<g id="a_node18"><a xlink:href="../../d2/dde/seaquest-ktracker_2inc_2GlobalConsts_8h.html" target="_top" xlink:title="GlobalConsts.h">
<polygon fill="none" stroke="black" points="710.5,-0.5 710.5,-19.5 793.5,-19.5 793.5,-0.5 710.5,-0.5"/>
<text text-anchor="middle" x="752" y="-7.5" font-family="FreeSans" font-size="10.00">GlobalConsts.h</text>
</a>
</g>
</g>
<!-- Node17&#45;&gt;Node18 -->
<g id="edge22" class="edge"><title>Node17&#45;&gt;Node18</title>
<path fill="none" stroke="midnightblue" d="M443.278,-112.437C472.706,-104.097 517.828,-90.5756 556,-76 576.068,-68.3373 579.875,-63.5115 600,-56 635.906,-42.5984 677.726,-30.4612 708.401,-22.1784"/>
<polygon fill="midnightblue" stroke="midnightblue" points="709.594,-25.4826 718.352,-19.521 707.788,-18.7196 709.594,-25.4826"/>
</g>
<!-- Node19 -->
<g id="node19" class="node"><title>Node19</title>
<polygon fill="none" stroke="#bfbfbf" points="947,-0.5 947,-19.5 1011,-19.5 1011,-0.5 947,-0.5"/>
<text text-anchor="middle" x="979" y="-7.5" font-family="FreeSans" font-size="10.00">TVector3.h</text>
</g>
<!-- Node17&#45;&gt;Node19 -->
<g id="edge27" class="edge"><title>Node17&#45;&gt;Node19</title>
<path fill="none" stroke="midnightblue" d="M446.323,-114.187C482.906,-106.517 542.286,-92.8923 592,-76 613.108,-68.8277 616.518,-61.9606 638,-56 742.925,-26.8859 871.387,-16.4161 936.62,-12.8015"/>
<polygon fill="midnightblue" stroke="midnightblue" points="937.109,-16.2807 946.911,-12.2595 936.741,-9.29035 937.109,-16.2807"/>
</g>
<!-- Node20 -->
<g id="node20" class="node"><title>Node20</title>
<polygon fill="none" stroke="#bfbfbf" points="490.5,-56.5 490.5,-75.5 547.5,-75.5 547.5,-56.5 490.5,-56.5"/>
<text text-anchor="middle" x="519" y="-63.5" font-family="FreeSans" font-size="10.00">TSpline.h</text>
</g>
<!-- Node17&#45;&gt;Node20 -->
<g id="edge28" class="edge"><title>Node17&#45;&gt;Node20</title>
<path fill="none" stroke="midnightblue" d="M429.191,-112.324C446.351,-103.664 472.946,-90.2424 492.747,-80.249"/>
<polygon fill="midnightblue" stroke="midnightblue" points="494.501,-83.2847 501.851,-75.6545 491.347,-77.0354 494.501,-83.2847"/>
</g>
<!-- Node21 -->
<g id="node21" class="node"><title>Node21</title>
<g id="a_node21"><a xlink:href="../../d4/d90/seaquest-ktracker_2inc_2JobOptsSvc_8h.html" target="_top" xlink:title="JobOptsSvc.h">
<polygon fill="none" stroke="black" points="356,-56.5 356,-75.5 434,-75.5 434,-56.5 356,-56.5"/>
<text text-anchor="middle" x="395" y="-63.5" font-family="FreeSans" font-size="10.00">JobOptsSvc.h</text>
</a>
</g>
</g>
<!-- Node17&#45;&gt;Node21 -->
<g id="edge29" class="edge"><title>Node17&#45;&gt;Node21</title>
<path fill="none" stroke="midnightblue" d="M409.193,-112.083C406.915,-104.849 403.629,-94.4087 400.792,-85.3968"/>
<polygon fill="midnightblue" stroke="midnightblue" points="404.096,-84.2385 397.755,-75.7511 397.419,-86.3406 404.096,-84.2385"/>
</g>
<!-- Node21&#45;&gt;Node5 -->
<g id="edge30" class="edge"><title>Node21&#45;&gt;Node5</title>
<path fill="none" stroke="midnightblue" d="M400.614,-56.083C405.367,-48.5341 412.318,-37.4948 418.152,-28.2298"/>
<polygon fill="midnightblue" stroke="midnightblue" points="421.124,-30.0783 423.49,-19.7511 415.2,-26.3486 421.124,-30.0783"/>
</g>
<!-- Node21&#45;&gt;Node7 -->
<g id="edge31" class="edge"><title>Node21&#45;&gt;Node7</title>
<path fill="none" stroke="midnightblue" d="M355.826,-57.8292C297.225,-47.1021 187.78,-27.0682 133.004,-17.0415"/>
<polygon fill="midnightblue" stroke="midnightblue" points="133.59,-13.5906 123.123,-15.2327 132.329,-20.4762 133.59,-13.5906"/>
</g>
<!-- Node21&#45;&gt;Node9 -->
<g id="edge32" class="edge"><title>Node21&#45;&gt;Node9</title>
<path fill="none" stroke="midnightblue" d="M355.821,-60.6938C294.285,-53.6867 171.334,-38.7007 68,-20 67.409,-19.893 66.8135,-19.7834 66.2145,-19.6713"/>
<polygon fill="midnightblue" stroke="midnightblue" points="66.8401,-16.2271 56.3467,-17.689 65.4615,-23.09 66.8401,-16.2271"/>
</g>
<!-- Node21&#45;&gt;Node18 -->
<g id="edge33" class="edge"><title>Node21&#45;&gt;Node18</title>
<path fill="none" stroke="midnightblue" d="M434.226,-59.0666C498.88,-49.287 627.834,-29.7815 700.009,-18.8642"/>
<polygon fill="midnightblue" stroke="midnightblue" points="700.867,-22.2742 710.231,-17.3179 699.82,-15.353 700.867,-22.2742"/>
</g>
<!-- Node22&#45;&gt;Node2 -->
<g id="edge35" class="edge"><title>Node22&#45;&gt;Node2</title>
<path fill="none" stroke="midnightblue" d="M1139.19,-232.018C996.655,-227.826 503.46,-208.01 369,-132 329.09,-109.439 305.903,-57.4304 295.901,-29.5123"/>
<polygon fill="midnightblue" stroke="midnightblue" points="299.131,-28.1402 292.606,-19.7931 292.502,-30.3874 299.131,-28.1402"/>
</g>
<!-- Node22&#45;&gt;Node3 -->
<g id="edge38" class="edge"><title>Node22&#45;&gt;Node3</title>
<path fill="none" stroke="midnightblue" d="M1139.33,-225.754C1071.48,-212.288 927.312,-180.311 813,-132 779.702,-117.927 744.133,-95.6626 722.478,-81.1924"/>
<polygon fill="midnightblue" stroke="midnightblue" points="724.339,-78.2255 714.097,-75.5147 720.413,-84.021 724.339,-78.2255"/>
</g>
<!-- Node22&#45;&gt;Node6 -->
<g id="edge40" class="edge"><title>Node22&#45;&gt;Node6</title>
<path fill="none" stroke="midnightblue" d="M1216.59,-233.243C1282.53,-232.532 1420.29,-226.106 1529,-188 1638.95,-149.459 1750.41,-61.4749 1792.49,-26.1204"/>
<polygon fill="midnightblue" stroke="midnightblue" points="1794.81,-28.7362 1800.17,-19.5961 1790.28,-23.3999 1794.81,-28.7362"/>
</g>
<!-- Node22&#45;&gt;Node13 -->
<g id="edge36" class="edge"><title>Node22&#45;&gt;Node13</title>
<path fill="none" stroke="midnightblue" d="M1216.61,-228.174C1324.97,-213.192 1618.05,-161.978 1524,-56 1501.3,-30.4216 1267.11,-16.6949 1180.22,-12.4517"/>
<polygon fill="midnightblue" stroke="midnightblue" points="1180.29,-8.95146 1170.14,-11.97 1179.96,-15.9435 1180.29,-8.95146"/>
</g>
<!-- Node22&#45;&gt;Node14 -->
<g id="edge37" class="edge"><title>Node22&#45;&gt;Node14</title>
<path fill="none" stroke="midnightblue" d="M1216.66,-233.534C1278.01,-233.079 1400.37,-226.813 1495,-188 1590.93,-148.654 1683.42,-62.124 1718.84,-26.645"/>
<polygon fill="midnightblue" stroke="midnightblue" points="1721.35,-29.0911 1725.88,-19.5137 1716.36,-24.1754 1721.35,-29.0911"/>
</g>
<!-- Node23 -->
<g id="node23" class="node"><title>Node23</title>
<polygon fill="none" stroke="#bfbfbf" points="1354.5,-0.5 1354.5,-19.5 1413.5,-19.5 1413.5,-0.5 1354.5,-0.5"/>
<text text-anchor="middle" x="1384" y="-7.5" font-family="FreeSans" font-size="10.00">TObject.h</text>
</g>
<!-- Node22&#45;&gt;Node23 -->
<g id="edge39" class="edge"><title>Node22&#45;&gt;Node23</title>
<path fill="none" stroke="midnightblue" d="M1216.82,-231.178C1270.98,-227.629 1371.62,-217.343 1452,-188 1497.68,-171.324 1521.97,-174.28 1546,-132 1553.9,-118.094 1560.68,-78.126 1543,-56 1528.15,-37.4186 1465.82,-24.028 1423.76,-16.9001"/>
<polygon fill="midnightblue" stroke="midnightblue" points="1424.24,-13.4323 1413.8,-15.2653 1423.1,-20.3398 1424.24,-13.4323"/>
</g>
<!-- Node24 -->
<g id="node24" class="node"><title>Node24</title>
<polygon fill="none" stroke="#bfbfbf" points="1127,-168.5 1127,-187.5 1177,-187.5 1177,-168.5 1127,-168.5"/>
<text text-anchor="middle" x="1152" y="-175.5" font-family="FreeSans" font-size="10.00">TH1D.h</text>
</g>
<!-- Node22&#45;&gt;Node24 -->
<g id="edge41" class="edge"><title>Node22&#45;&gt;Node24</title>
<path fill="none" stroke="midnightblue" d="M1173.71,-224.083C1170.15,-216.691 1164.98,-205.953 1160.58,-196.811"/>
<polygon fill="midnightblue" stroke="midnightblue" points="1163.71,-195.243 1156.21,-187.751 1157.4,-198.279 1163.71,-195.243"/>
</g>
<!-- Node25 -->
<g id="node25" class="node"><title>Node25</title>
<g id="a_node25"><a xlink:href="../../d7/ddc/seaquest-ktracker_2inc_2FastTracklet_8h.html" target="_top" xlink:title="FastTracklet.h">
<polygon fill="none" stroke="black" points="1029.5,-168.5 1029.5,-187.5 1108.5,-187.5 1108.5,-168.5 1029.5,-168.5"/>
<text text-anchor="middle" x="1069" y="-175.5" font-family="FreeSans" font-size="10.00">FastTracklet.h</text>
</a>
</g>
</g>
<!-- Node22&#45;&gt;Node25 -->
<g id="edge42" class="edge"><title>Node22&#45;&gt;Node25</title>
<path fill="none" stroke="midnightblue" d="M1160.49,-224.324C1142.93,-215.625 1115.67,-202.12 1095.47,-192.113"/>
<polygon fill="midnightblue" stroke="midnightblue" points="1096.98,-188.958 1086.47,-187.655 1093.88,-195.23 1096.98,-188.958"/>
</g>
<!-- Node27 -->
<g id="node27" class="node"><title>Node27</title>
<g id="a_node27"><a xlink:href="../../d8/dab/seaquest-ktracker_2inc_2SRecEvent_8h.html" target="_top" xlink:title="SRecEvent.h">
<polygon fill="none" stroke="black" points="1122.5,-112.5 1122.5,-131.5 1195.5,-131.5 1195.5,-112.5 1122.5,-112.5"/>
<text text-anchor="middle" x="1159" y="-119.5" font-family="FreeSans" font-size="10.00">SRecEvent.h</text>
</a>
</g>
</g>
<!-- Node22&#45;&gt;Node27 -->
<g id="edge73" class="edge"><title>Node22&#45;&gt;Node27</title>
<path fill="none" stroke="midnightblue" d="M1181.14,-224.43C1185.29,-211.846 1191.46,-187.723 1186,-168 1183.21,-157.921 1177.49,-147.832 1172.03,-139.769"/>
<polygon fill="midnightblue" stroke="midnightblue" points="1174.85,-137.688 1166.15,-131.636 1169.18,-141.79 1174.85,-137.688"/>
</g>
<!-- Node25&#45;&gt;Node13 -->
<g id="edge45" class="edge"><title>Node25&#45;&gt;Node13</title>
<path fill="none" stroke="midnightblue" d="M1073.25,-168.075C1085.79,-141.719 1122.84,-63.878 1139.6,-28.6608"/>
<polygon fill="midnightblue" stroke="midnightblue" points="1142.79,-30.1018 1143.92,-19.5681 1136.46,-27.0937 1142.79,-30.1018"/>
</g>
<!-- Node25&#45;&gt;Node14 -->
<g id="edge44" class="edge"><title>Node25&#45;&gt;Node14</title>
<path fill="none" stroke="midnightblue" d="M1108.65,-169.574C1226.32,-147.504 1566.79,-83.3784 1590,-76 1633.96,-62.0274 1682.31,-38.3621 1710.31,-23.7687"/>
<polygon fill="midnightblue" stroke="midnightblue" points="1712.11,-26.7759 1719.32,-19.0158 1708.84,-20.5838 1712.11,-26.7759"/>
</g>
<!-- Node25&#45;&gt;Node17 -->
<g id="edge48" class="edge"><title>Node25&#45;&gt;Node17</title>
<path fill="none" stroke="midnightblue" d="M1029.38,-173.744C913.734,-164.238 577.161,-136.575 456.059,-126.621"/>
<polygon fill="midnightblue" stroke="midnightblue" points="456.283,-123.128 446.03,-125.797 455.71,-130.104 456.283,-123.128"/>
</g>
<!-- Node25&#45;&gt;Node18 -->
<g id="edge43" class="edge"><title>Node25&#45;&gt;Node18</title>
<path fill="none" stroke="midnightblue" d="M1029.42,-177.39C981.56,-176.104 900.189,-168.145 842,-132 801.376,-106.766 772.904,-55.9383 759.925,-28.8878"/>
<polygon fill="midnightblue" stroke="midnightblue" points="763.09,-27.3946 755.716,-19.7876 756.737,-30.3331 763.09,-27.3946"/>
</g>
<!-- Node25&#45;&gt;Node19 -->
<g id="edge47" class="edge"><title>Node25&#45;&gt;Node19</title>
<path fill="none" stroke="midnightblue" d="M1029.35,-174.84C969.795,-169.209 858.911,-148.933 809,-76 776.443,-28.4251 876.635,-15.6472 936.899,-12.232"/>
<polygon fill="midnightblue" stroke="midnightblue" points="937.111,-15.7258 946.923,-11.7283 936.76,-8.73463 937.111,-15.7258"/>
</g>
<!-- Node25&#45;&gt;Node23 -->
<g id="edge46" class="edge"><title>Node25&#45;&gt;Node23</title>
<path fill="none" stroke="midnightblue" d="M1108.58,-168.87C1136.64,-161.934 1174.41,-150.152 1204,-132 1244.99,-106.854 1241.19,-82.9669 1281,-56 1301.55,-42.0806 1327.1,-30.8846 1347.62,-23.1417"/>
<polygon fill="midnightblue" stroke="midnightblue" points="1349.05,-26.3444 1357.24,-19.6213 1346.65,-19.7706 1349.05,-26.3444"/>
</g>
<!-- Node25&#45;&gt;Node26 -->
<g id="edge49" class="edge"><title>Node25&#45;&gt;Node26</title>
<path fill="none" stroke="midnightblue" d="M1067.04,-168.368C1063,-150.617 1053.7,-109.666 1048.23,-85.5974"/>
<polygon fill="midnightblue" stroke="midnightblue" points="1051.58,-84.567 1045.95,-75.5914 1044.76,-86.1185 1051.58,-84.567"/>
</g>
<!-- Node25&#45;&gt;Node27 -->
<g id="edge58" class="edge"><title>Node25&#45;&gt;Node27</title>
<path fill="none" stroke="midnightblue" d="M1083.46,-168.324C1097.5,-159.9 1119.05,-146.971 1135.54,-137.074"/>
<polygon fill="midnightblue" stroke="midnightblue" points="1137.8,-139.801 1144.58,-131.655 1134.2,-133.798 1137.8,-139.801"/>
</g>
<!-- Node26&#45;&gt;Node2 -->
<g id="edge51" class="edge"><title>Node26&#45;&gt;Node2</title>
<path fill="none" stroke="midnightblue" d="M1006.47,-62.3548C980.963,-60.5581 946.445,-58.1303 916,-56 686.228,-39.9223 628.67,-37.4773 399,-20 375.191,-18.1882 348.471,-15.9846 327.445,-14.2115"/>
<polygon fill="midnightblue" stroke="midnightblue" points="327.577,-10.7102 317.317,-13.3535 326.986,-17.6852 327.577,-10.7102"/>
</g>
<!-- Node26&#45;&gt;Node5 -->
<g id="edge54" class="edge"><title>Node26&#45;&gt;Node5</title>
<path fill="none" stroke="midnightblue" d="M1006.35,-61.1153C990.235,-59.4833 971.199,-57.597 954,-56 766.139,-38.5567 540.227,-20.0125 459.502,-13.4624"/>
<polygon fill="midnightblue" stroke="midnightblue" points="459.773,-9.97306 449.523,-12.6539 459.208,-16.9502 459.773,-9.97306"/>
</g>
<!-- Node26&#45;&gt;Node6 -->
<g id="edge56" class="edge"><title>Node26&#45;&gt;Node6</title>
<path fill="none" stroke="midnightblue" d="M1081.92,-63.1351C1209.75,-56.7661 1624.25,-35.4172 1757,-20 1761.5,-19.4771 1766.2,-18.8288 1770.87,-18.1214"/>
<polygon fill="midnightblue" stroke="midnightblue" points="1771.6,-21.5479 1780.92,-16.5041 1770.49,-14.6367 1771.6,-21.5479"/>
</g>
<!-- Node26&#45;&gt;Node13 -->
<g id="edge52" class="edge"><title>Node26&#45;&gt;Node13</title>
<path fill="none" stroke="midnightblue" d="M1060.71,-56.324C1077.31,-47.7034 1103,-34.3643 1122.22,-24.3855"/>
<polygon fill="midnightblue" stroke="midnightblue" points="1124.07,-27.3689 1131.33,-19.6545 1120.84,-21.1565 1124.07,-27.3689"/>
</g>
<!-- Node26&#45;&gt;Node14 -->
<g id="edge53" class="edge"><title>Node26&#45;&gt;Node14</title>
<path fill="none" stroke="midnightblue" d="M1081.59,-62.0584C1206.54,-52.2796 1605.94,-21.0224 1709.36,-12.9285"/>
<polygon fill="midnightblue" stroke="midnightblue" points="1709.76,-16.4078 1719.46,-12.1382 1709.21,-9.42919 1709.76,-16.4078"/>
</g>
<!-- Node26&#45;&gt;Node18 -->
<g id="edge50" class="edge"><title>Node26&#45;&gt;Node18</title>
<path fill="none" stroke="midnightblue" d="M1006.42,-58.051C954.84,-48.5114 861.886,-31.3215 803.751,-20.5705"/>
<polygon fill="midnightblue" stroke="midnightblue" points="804.143,-17.0835 793.673,-18.7066 802.87,-23.9668 804.143,-17.0835"/>
</g>
<!-- Node26&#45;&gt;Node19 -->
<g id="edge57" class="edge"><title>Node26&#45;&gt;Node19</title>
<path fill="none" stroke="midnightblue" d="M1033.56,-56.324C1023.85,-48.2631 1009.18,-36.0765 997.5,-26.3695"/>
<polygon fill="midnightblue" stroke="midnightblue" points="999.562,-23.532 989.633,-19.8339 995.089,-28.9163 999.562,-23.532"/>
</g>
<!-- Node26&#45;&gt;Node23 -->
<g id="edge55" class="edge"><title>Node26&#45;&gt;Node23</title>
<path fill="none" stroke="midnightblue" d="M1081.69,-59.0147C1146.35,-48.7449 1277.85,-27.8595 1344.04,-17.3465"/>
<polygon fill="midnightblue" stroke="midnightblue" points="1344.76,-20.7768 1354.08,-15.7515 1343.66,-13.8634 1344.76,-20.7768"/>
</g>
<!-- Node27&#45;&gt;Node2 -->
<g id="edge60" class="edge"><title>Node27&#45;&gt;Node2</title>
<path fill="none" stroke="midnightblue" d="M1122.12,-118.186C1073.56,-113.586 986.137,-102.193 916,-76 899.576,-69.8665 898.733,-61.2322 882,-56 676.548,8.24336 613.601,-36.857 399,-20 375.195,-18.1301 348.475,-15.9256 327.449,-14.1664"/>
<polygon fill="midnightblue" stroke="midnightblue" points="327.578,-10.665 317.32,-13.3166 326.993,-17.6405 327.578,-10.665"/>
</g>
<!-- Node27&#45;&gt;Node3 -->
<g id="edge66" class="edge"><title>Node27&#45;&gt;Node3</title>
<path fill="none" stroke="midnightblue" d="M1122.37,-116.672C1035.22,-106.374 816.655,-80.5478 734.179,-70.8023"/>
<polygon fill="midnightblue" stroke="midnightblue" points="734.482,-67.3139 724.14,-69.6161 733.661,-74.2655 734.482,-67.3139"/>
</g>
<!-- Node27&#45;&gt;Node4 -->
<g id="edge64" class="edge"><title>Node27&#45;&gt;Node4</title>
<path fill="none" stroke="midnightblue" d="M1122.08,-115.428C1069.84,-107.415 971.4,-91.8512 888,-76 886.764,-75.765 885.508,-75.5219 884.241,-75.2728"/>
<polygon fill="midnightblue" stroke="midnightblue" points="884.927,-71.8408 874.43,-73.2794 883.533,-78.7006 884.927,-71.8408"/>
</g>
<!-- Node27&#45;&gt;Node5 -->
<g id="edge63" class="edge"><title>Node27&#45;&gt;Node5</title>
<path fill="none" stroke="midnightblue" d="M1122.25,-115.979C1080.56,-109.593 1010.98,-96.8192 954,-76 936.074,-69.4507 934.298,-61.4265 916,-56 829.768,-30.4259 552.72,-16.3609 459.749,-12.2711"/>
<polygon fill="midnightblue" stroke="midnightblue" points="459.736,-8.76743 449.595,-11.8322 459.434,-15.7609 459.736,-8.76743"/>
</g>
<!-- Node27&#45;&gt;Node6 -->
<g id="edge68" class="edge"><title>Node27&#45;&gt;Node6</title>
<path fill="none" stroke="midnightblue" d="M1171.08,-112.34C1192.19,-97.7367 1237.67,-68.5775 1281,-56 1484.75,3.14297 1546.41,-45.787 1757,-20 1761.5,-19.4491 1766.2,-18.7834 1770.86,-18.0661"/>
<polygon fill="midnightblue" stroke="midnightblue" points="1771.6,-21.4919 1780.91,-16.4385 1770.48,-14.5819 1771.6,-21.4919"/>
</g>
<!-- Node27&#45;&gt;Node13 -->
<g id="edge61" class="edge"><title>Node27&#45;&gt;Node13</title>
<path fill="none" stroke="midnightblue" d="M1160.51,-112.111C1162.39,-99.5392 1165.02,-75.88 1162,-56 1160.63,-47.001 1157.81,-37.3251 1155.05,-29.2601"/>
<polygon fill="midnightblue" stroke="midnightblue" points="1158.31,-27.9759 1151.6,-19.7782 1151.73,-30.3722 1158.31,-27.9759"/>
</g>
<!-- Node27&#45;&gt;Node14 -->
<g id="edge62" class="edge"><title>Node27&#45;&gt;Node14</title>
<path fill="none" stroke="midnightblue" d="M1195.77,-119.209C1264.37,-115.31 1416.23,-104.039 1541,-76 1603.17,-62.0295 1673.45,-35.5177 1709.61,-21.0444"/>
<polygon fill="midnightblue" stroke="midnightblue" points="1711.33,-24.1271 1719.29,-17.1339 1708.7,-17.6374 1711.33,-24.1271"/>
</g>
<!-- Node27&#45;&gt;Node16 -->
<g id="edge65" class="edge"><title>Node27&#45;&gt;Node16</title>
<path fill="none" stroke="midnightblue" d="M1195.58,-114.078C1234.45,-106.463 1297.85,-93.2986 1361.55,-75.8857"/>
<polygon fill="midnightblue" stroke="midnightblue" points="1362.66,-79.2113 1371.36,-73.1706 1360.79,-72.4649 1362.66,-79.2113"/>
</g>
<!-- Node27&#45;&gt;Node18 -->
<g id="edge59" class="edge"><title>Node27&#45;&gt;Node18</title>
<path fill="none" stroke="midnightblue" d="M1122.43,-112.666C1089.24,-104.674 1039.18,-91.547 997,-76 977.224,-68.7104 973.958,-62.7755 954,-56 904.131,-39.0704 845.146,-26.775 803.833,-19.357"/>
<polygon fill="midnightblue" stroke="midnightblue" points="804.182,-15.8647 793.727,-17.5763 802.968,-22.7585 804.182,-15.8647"/>
</g>
<!-- Node27&#45;&gt;Node19 -->
<g id="edge70" class="edge"><title>Node27&#45;&gt;Node19</title>
<path fill="none" stroke="midnightblue" d="M1151.74,-112.347C1139.98,-98.776 1115.49,-72.35 1090,-56 1067.69,-41.6876 1040.07,-30.4709 1017.97,-22.8157"/>
<polygon fill="midnightblue" stroke="midnightblue" points="1018.83,-19.4141 1008.24,-19.5508 1016.61,-26.0504 1018.83,-19.4141"/>
</g>
<!-- Node27&#45;&gt;Node23 -->
<g id="edge67" class="edge"><title>Node27&#45;&gt;Node23</title>
<path fill="none" stroke="midnightblue" d="M1195.72,-119.186C1283.99,-114.451 1502.46,-100.363 1524,-76 1555.62,-40.2423 1475.46,-22.776 1423.76,-15.4585"/>
<polygon fill="midnightblue" stroke="midnightblue" points="1424.22,-11.9887 1413.84,-14.1279 1423.29,-18.9266 1424.22,-11.9887"/>
</g>
<!-- Node27&#45;&gt;Node26 -->
<g id="edge72" class="edge"><title>Node27&#45;&gt;Node26</title>
<path fill="none" stroke="midnightblue" d="M1140.78,-112.444C1122.1,-103.675 1092.84,-89.9355 1071.38,-79.8579"/>
<polygon fill="midnightblue" stroke="midnightblue" points="1072.68,-76.5988 1062.14,-75.5164 1069.7,-82.935 1072.68,-76.5988"/>
</g>
<!-- Node28 -->
<g id="node28" class="node"><title>Node28</title>
<polygon fill="none" stroke="#bfbfbf" points="1290.5,-56.5 1290.5,-75.5 1353.5,-75.5 1353.5,-56.5 1290.5,-56.5"/>
<text text-anchor="middle" x="1322" y="-63.5" font-family="FreeSans" font-size="10.00">TMatrixD.h</text>
</g>
<!-- Node27&#45;&gt;Node28 -->
<g id="edge69" class="edge"><title>Node27&#45;&gt;Node28</title>
<path fill="none" stroke="midnightblue" d="M1184.83,-112.444C1212.25,-103.359 1255.78,-88.9388 1286.43,-78.7831"/>
<polygon fill="midnightblue" stroke="midnightblue" points="1287.9,-81.9837 1296.29,-75.5164 1285.7,-75.3389 1287.9,-81.9837"/>
</g>
<!-- Node29 -->
<g id="node29" class="node"><title>Node29</title>
<polygon fill="none" stroke="#bfbfbf" points="1424.5,-56.5 1424.5,-75.5 1515.5,-75.5 1515.5,-56.5 1424.5,-56.5"/>
<text text-anchor="middle" x="1470" y="-63.5" font-family="FreeSans" font-size="10.00">TLorentzVector.h</text>
</g>
<!-- Node27&#45;&gt;Node29 -->
<g id="edge71" class="edge"><title>Node27&#45;&gt;Node29</title>
<path fill="none" stroke="midnightblue" d="M1195.59,-114.647C1249.59,-105.271 1351.03,-87.6575 1414.3,-76.6715"/>
<polygon fill="midnightblue" stroke="midnightblue" points="1415.24,-80.0602 1424.5,-74.901 1414.04,-73.1634 1415.24,-80.0602"/>
</g>
</g>
</svg>
