<?xml version="1.0" encoding="UTF-8" standalone="no"?>
<!DOCTYPE svg PUBLIC "-//W3C//DTD SVG 1.1//EN"
 "http://www.w3.org/Graphics/SVG/1.1/DTD/svg11.dtd">
<!-- Generated by graphviz version 2.44.0 (0)
 -->
<!-- Title: OnlMonMainDaq::DrawMonitor Pages: 1 -->
<svg width="1363pt" height="344pt"
 viewBox="0.00 0.00 1363.00 344.00" xmlns="http://www.w3.org/2000/svg" xmlns:xlink="http://www.w3.org/1999/xlink">
<g id="graph0" class="graph" transform="scale(1 1) rotate(0) translate(4 340)">
<title>OnlMonMainDaq::DrawMonitor</title>
<!-- Node1 -->
<g id="node1" class="node">
<title>Node1</title>
<g id="a_node1"><a xlink:title=" ">
<polygon fill="#bfbfbf" stroke="black" points="0,-152.5 0,-171.5 167,-171.5 167,-152.5 0,-152.5"/>
<text text-anchor="middle" x="83.5" y="-159.5" font-family="FreeSans" font-size="10.00">OnlMonMainDaq::DrawMonitor</text>
</a>
</g>
</g>
<!-- Node2 -->
<g id="node2" class="node">
<title>Node2</title>
<g id="a_node2"><a xlink:href="../../df/ddc/classOnlMonCanvas.html#a83334e848c8a13d6ba7e76a2b6b03f7c" target="_top" xlink:title=" ">
<polygon fill="none" stroke="black" points="210.5,-316.5 210.5,-335.5 368.5,-335.5 368.5,-316.5 210.5,-316.5"/>
<text text-anchor="middle" x="289.5" y="-323.5" font-family="FreeSans" font-size="10.00">OnlMonCanvas::AddMessage</text>
</a>
</g>
</g>
<!-- Node1&#45;&gt;Node2 -->
<g id="edge1" class="edge">
<title>Node1&#45;&gt;Node2</title>
<path fill="none" stroke="midnightblue" d="M89.36,-171.64C103.18,-197.98 145.43,-271.53 203,-307 206.57,-309.2 210.36,-311.14 214.28,-312.86"/>
<polygon fill="midnightblue" stroke="midnightblue" points="213.05,-316.14 223.64,-316.49 215.58,-309.61 213.05,-316.14"/>
</g>
<!-- Node3 -->
<g id="node3" class="node">
<title>Node3</title>
<g id="a_node3"><a xlink:href="../../d3/daf/namespaceUtilHist.html#a5c646c763a7d90ed6ae5b9eb7d6b9719" target="_top" xlink:title="Adjust the axis range via &quot;h1&#45;&gt;GetXaxis()&#45;&gt;SetRange(bin_lo, bin_hi)&quot; to zoom up non&#45;empty bins.">
<polygon fill="none" stroke="black" points="225.5,-278.5 225.5,-297.5 353.5,-297.5 353.5,-278.5 225.5,-278.5"/>
<text text-anchor="middle" x="289.5" y="-285.5" font-family="FreeSans" font-size="10.00">UtilHist::AutoSetRange</text>
</a>
</g>
</g>
<!-- Node1&#45;&gt;Node3 -->
<g id="edge2" class="edge">
<title>Node1&#45;&gt;Node3</title>
<path fill="none" stroke="midnightblue" d="M92.97,-171.73C111.1,-191.95 155.87,-238.73 203,-264 211.57,-268.6 221.11,-272.38 230.62,-275.48"/>
<polygon fill="midnightblue" stroke="midnightblue" points="229.89,-278.92 240.48,-278.47 231.92,-272.22 229.89,-278.92"/>
</g>
<!-- Node4 -->
<g id="node4" class="node">
<title>Node4</title>
<g id="a_node4"><a xlink:href="../../d3/daf/namespaceUtilHist.html#a3cf821e9299974225cc90084beadcb30" target="_top" xlink:title="Find the lowest and highest bins (&quot;bin_lo&quot; and &quot;bin_hi&quot;) out of non&#45;empty bins of &quot;h1&quot;.">
<polygon fill="none" stroke="black" points="426,-259.5 426,-278.5 563,-278.5 563,-259.5 426,-259.5"/>
<text text-anchor="middle" x="494.5" y="-266.5" font-family="FreeSans" font-size="10.00">UtilHist::FindFilledRange</text>
</a>
</g>
</g>
<!-- Node1&#45;&gt;Node4 -->
<g id="edge5" class="edge">
<title>Node1&#45;&gt;Node4</title>
<path fill="none" stroke="midnightblue" d="M97.17,-171.7C117.99,-187.08 161.32,-216.78 203,-231 272.51,-254.71 356.03,-263.76 415.64,-267.15"/>
<polygon fill="midnightblue" stroke="midnightblue" points="415.57,-270.65 425.74,-267.68 415.94,-263.66 415.57,-270.65"/>
</g>
<!-- Node5 -->
<g id="node5" class="node">
<title>Node5</title>
<g id="a_node5"><a xlink:href="../../d8/d69/classOnlMonMainDaq.html#a2426c5cde4658466fa96f3c226ad1197" target="_top" xlink:title=" ">
<polygon fill="none" stroke="black" points="207.5,-191 207.5,-221 371.5,-221 371.5,-191 207.5,-191"/>
<text text-anchor="start" x="215.5" y="-209" font-family="FreeSans" font-size="10.00">OnlMonMainDaq::EvalAverage</text>
<text text-anchor="middle" x="289.5" y="-198" font-family="FreeSans" font-size="10.00">OfFilledBins</text>
</a>
</g>
</g>
<!-- Node1&#45;&gt;Node5 -->
<g id="edge4" class="edge">
<title>Node1&#45;&gt;Node5</title>
<path fill="none" stroke="midnightblue" d="M128.76,-171.55C152.14,-176.59 181.55,-182.93 208.75,-188.8"/>
<polygon fill="midnightblue" stroke="midnightblue" points="208.14,-192.25 218.65,-190.93 209.61,-185.4 208.14,-192.25"/>
</g>
<!-- Node6 -->
<g id="node6" class="node">
<title>Node6</title>
<g id="a_node6"><a xlink:href="../../d9/d62/classOnlMonClient.html#a30958880ab524ef1a22e3224dfb667e1" target="_top" xlink:title=" ">
<polygon fill="none" stroke="black" points="218.5,-152.5 218.5,-171.5 360.5,-171.5 360.5,-152.5 218.5,-152.5"/>
<text text-anchor="middle" x="289.5" y="-159.5" font-family="FreeSans" font-size="10.00">OnlMonClient::GetCanvas</text>
</a>
</g>
</g>
<!-- Node1&#45;&gt;Node6 -->
<g id="edge6" class="edge">
<title>Node1&#45;&gt;Node6</title>
<path fill="none" stroke="midnightblue" d="M167.18,-162C180.73,-162 194.76,-162 208.25,-162"/>
<polygon fill="midnightblue" stroke="midnightblue" points="208.45,-165.5 218.45,-162 208.45,-158.5 208.45,-165.5"/>
</g>
<!-- Node7 -->
<g id="node7" class="node">
<title>Node7</title>
<g id="a_node7"><a xlink:href="../../d7/d79/classOnlMonParam.html#af5a61e57dd776e02b0b90c245558af3c" target="_top" xlink:title=" ">
<polygon fill="none" stroke="black" points="213.5,-114.5 213.5,-133.5 365.5,-133.5 365.5,-114.5 213.5,-114.5"/>
<text text-anchor="middle" x="289.5" y="-121.5" font-family="FreeSans" font-size="10.00">OnlMonParam::GetIntParam</text>
</a>
</g>
</g>
<!-- Node1&#45;&gt;Node7 -->
<g id="edge7" class="edge">
<title>Node1&#45;&gt;Node7</title>
<path fill="none" stroke="midnightblue" d="M135.71,-152.46C163.48,-147.29 197.99,-140.86 227.18,-135.42"/>
<polygon fill="midnightblue" stroke="midnightblue" points="228.07,-138.82 237.26,-133.54 226.79,-131.93 228.07,-138.82"/>
</g>
<!-- Node19 -->
<g id="node19" class="node">
<title>Node19</title>
<g id="a_node19"><a xlink:href="../../df/ddc/classOnlMonCanvas.html#aec0773674b0c23cc053658c3a4526183" target="_top" xlink:title=" ">
<polygon fill="none" stroke="black" points="212,-76.5 212,-95.5 367,-95.5 367,-76.5 212,-76.5"/>
<text text-anchor="middle" x="289.5" y="-83.5" font-family="FreeSans" font-size="10.00">OnlMonCanvas::GetMainPad</text>
</a>
</g>
</g>
<!-- Node1&#45;&gt;Node19 -->
<g id="edge19" class="edge">
<title>Node1&#45;&gt;Node19</title>
<path fill="none" stroke="midnightblue" d="M101.25,-152.42C123.74,-139.91 165.25,-118.08 203,-105 210.56,-102.38 218.62,-100.04 226.66,-97.96"/>
<polygon fill="midnightblue" stroke="midnightblue" points="227.55,-101.35 236.42,-95.57 225.88,-94.55 227.55,-101.35"/>
</g>
<!-- Node20 -->
<g id="node20" class="node">
<title>Node20</title>
<g id="a_node20"><a xlink:href="../../df/ddc/classOnlMonCanvas.html#a965335816e1bdd68a3c96b9ab5a72e2f" target="_top" xlink:title=" ">
<polygon fill="none" stroke="black" points="218,-38.5 218,-57.5 361,-57.5 361,-38.5 218,-38.5"/>
<text text-anchor="middle" x="289.5" y="-45.5" font-family="FreeSans" font-size="10.00">OnlMonCanvas::SetStatus</text>
</a>
</g>
</g>
<!-- Node1&#45;&gt;Node20 -->
<g id="edge20" class="edge">
<title>Node1&#45;&gt;Node20</title>
<path fill="none" stroke="midnightblue" d="M93.3,-152.47C111.69,-133.16 156.4,-89.35 203,-67 208.18,-64.51 213.7,-62.35 219.34,-60.46"/>
<polygon fill="midnightblue" stroke="midnightblue" points="220.36,-63.81 228.9,-57.54 218.32,-57.11 220.36,-63.81"/>
</g>
<!-- Node21 -->
<g id="node21" class="node">
<title>Node21</title>
<g id="a_node21"><a xlink:href="../../df/ddc/classOnlMonCanvas.html#afe5cfc9e7acdac2773513ba5f33f57f0" target="_top" xlink:title=" ">
<polygon fill="none" stroke="black" points="203,-0.5 203,-19.5 376,-19.5 376,-0.5 203,-0.5"/>
<text text-anchor="middle" x="289.5" y="-7.5" font-family="FreeSans" font-size="10.00">OnlMonCanvas::SetWorseStatus</text>
</a>
</g>
</g>
<!-- Node1&#45;&gt;Node21 -->
<g id="edge21" class="edge">
<title>Node1&#45;&gt;Node21</title>
<path fill="none" stroke="midnightblue" d="M90.01,-152.45C104.81,-127.72 148.06,-61.25 203,-29 206.69,-26.83 210.6,-24.92 214.64,-23.22"/>
<polygon fill="midnightblue" stroke="midnightblue" points="216.1,-26.41 224.25,-19.63 213.65,-19.85 216.1,-26.41"/>
</g>
<!-- Node3&#45;&gt;Node4 -->
<g id="edge3" class="edge">
<title>Node3&#45;&gt;Node4</title>
<path fill="none" stroke="midnightblue" d="M353.62,-282.09C373.32,-280.25 395.29,-278.19 415.87,-276.27"/>
<polygon fill="midnightblue" stroke="midnightblue" points="416.21,-279.75 425.84,-275.33 415.56,-272.78 416.21,-279.75"/>
</g>
<!-- Node8 -->
<g id="node8" class="node">
<title>Node8</title>
<g id="a_node8"><a xlink:href="../../d7/d79/classOnlMonParam.html#a29bfe25922c14cc64204127fbde6a591" target="_top" xlink:title=" ">
<polygon fill="none" stroke="black" points="412,-114.5 412,-133.5 577,-133.5 577,-114.5 412,-114.5"/>
<text text-anchor="middle" x="494.5" y="-121.5" font-family="FreeSans" font-size="10.00">OnlMonParam::FindParamInDir</text>
</a>
</g>
</g>
<!-- Node7&#45;&gt;Node8 -->
<g id="edge8" class="edge">
<title>Node7&#45;&gt;Node8</title>
<path fill="none" stroke="midnightblue" d="M365.51,-124C377.34,-124 389.68,-124 401.83,-124"/>
<polygon fill="midnightblue" stroke="midnightblue" points="401.97,-127.5 411.97,-124 401.97,-120.5 401.97,-127.5"/>
</g>
<!-- Node9 -->
<g id="node9" class="node">
<title>Node9</title>
<g id="a_node9"><a xlink:href="../../d7/d79/classOnlMonParam.html#ac3453d3802768369895989786d829159" target="_top" xlink:title=" ">
<polygon fill="none" stroke="black" points="613,-152.5 613,-171.5 781,-171.5 781,-152.5 613,-152.5"/>
<text text-anchor="middle" x="697" y="-159.5" font-family="FreeSans" font-size="10.00">OnlMonParam::FindParamInFile</text>
</a>
</g>
</g>
<!-- Node8&#45;&gt;Node9 -->
<g id="edge9" class="edge">
<title>Node8&#45;&gt;Node9</title>
<path fill="none" stroke="midnightblue" d="M545.84,-133.54C573.13,-138.71 607.04,-145.14 635.73,-150.58"/>
<polygon fill="midnightblue" stroke="midnightblue" points="635.17,-154.03 645.64,-152.46 636.47,-147.16 635.17,-154.03"/>
</g>
<!-- Node10 -->
<g id="node10" class="node">
<title>Node10</title>
<g id="a_node10"><a xlink:href="../../d1/da8/classPHFlag.html#a9002aa5e5ee1ef0e76d65201d6056adf" target="_top" xlink:title=" ">
<polygon fill="none" stroke="black" points="641,-114.5 641,-133.5 753,-133.5 753,-114.5 641,-114.5"/>
<text text-anchor="middle" x="697" y="-121.5" font-family="FreeSans" font-size="10.00">PHFlag::get_IntFlag</text>
</a>
</g>
</g>
<!-- Node8&#45;&gt;Node10 -->
<g id="edge10" class="edge">
<title>Node8&#45;&gt;Node10</title>
<path fill="none" stroke="midnightblue" d="M577.05,-124C594.83,-124 613.42,-124 630.48,-124"/>
<polygon fill="midnightblue" stroke="midnightblue" points="630.88,-127.5 640.88,-124 630.88,-120.5 630.88,-127.5"/>
</g>
<!-- Node11 -->
<g id="node11" class="node">
<title>Node11</title>
<g id="a_node11"><a xlink:href="../../d8/d14/classrecoConsts.html#aea8535068aa74d8acf1f98e938a1ff85" target="_top" xlink:title=" ">
<polygon fill="none" stroke="black" points="638,-76.5 638,-95.5 756,-95.5 756,-76.5 638,-76.5"/>
<text text-anchor="middle" x="697" y="-83.5" font-family="FreeSans" font-size="10.00">recoConsts::instance</text>
</a>
</g>
</g>
<!-- Node8&#45;&gt;Node11 -->
<g id="edge11" class="edge">
<title>Node8&#45;&gt;Node11</title>
<path fill="none" stroke="midnightblue" d="M545.84,-114.46C573.13,-109.29 607.04,-102.86 635.73,-97.42"/>
<polygon fill="midnightblue" stroke="midnightblue" points="636.47,-100.84 645.64,-95.54 635.17,-93.97 636.47,-100.84"/>
</g>
<!-- Node12 -->
<g id="node12" class="node">
<title>Node12</title>
<g id="a_node12"><a xlink:href="../../d8/d14/classrecoConsts.html#ae882d6adc62f783ec78114fe3dee3c24" target="_top" xlink:title=" ">
<polygon fill="none" stroke="black" points="820,-95.5 820,-114.5 951,-114.5 951,-95.5 820,-95.5"/>
<text text-anchor="middle" x="885.5" y="-102.5" font-family="FreeSans" font-size="10.00">recoConsts::recoConsts</text>
</a>
</g>
</g>
<!-- Node11&#45;&gt;Node12 -->
<g id="edge12" class="edge">
<title>Node11&#45;&gt;Node12</title>
<path fill="none" stroke="midnightblue" d="M756.24,-91.93C773.13,-93.65 791.81,-95.56 809.56,-97.37"/>
<polygon fill="midnightblue" stroke="midnightblue" points="809.58,-100.89 819.89,-98.42 810.29,-93.92 809.58,-100.89"/>
</g>
<!-- Node13 -->
<g id="node13" class="node">
<title>Node13</title>
<g id="a_node13"><a xlink:href="../../d8/d14/classrecoConsts.html#a864b1da9614924988d09542c268c42dc" target="_top" xlink:title="set the default value for all the constants needed &#45; user is supposed to add a default value here to ...">
<polygon fill="none" stroke="black" points="817,-57.5 817,-76.5 954,-76.5 954,-57.5 817,-57.5"/>
<text text-anchor="middle" x="885.5" y="-64.5" font-family="FreeSans" font-size="10.00">recoConsts::set_defaults</text>
</a>
</g>
</g>
<!-- Node11&#45;&gt;Node13 -->
<g id="edge13" class="edge">
<title>Node11&#45;&gt;Node13</title>
<path fill="none" stroke="midnightblue" d="M756.24,-80.07C772.17,-78.44 789.7,-76.66 806.54,-74.94"/>
<polygon fill="midnightblue" stroke="midnightblue" points="807.33,-78.38 816.92,-73.88 806.62,-71.42 807.33,-78.38"/>
</g>
<!-- Node14 -->
<g id="node14" class="node">
<title>Node14</title>
<g id="a_node14"><a xlink:href="../../d1/da8/classPHFlag.html#a5aaf1fedd8907f4b2b0c9535a4491f42" target="_top" xlink:title=" ">
<polygon fill="none" stroke="black" points="1000,-114.5 1000,-133.5 1120,-133.5 1120,-114.5 1000,-114.5"/>
<text text-anchor="middle" x="1060" y="-121.5" font-family="FreeSans" font-size="10.00">PHFlag::set_BoolFlag</text>
</a>
</g>
</g>
<!-- Node13&#45;&gt;Node14 -->
<g id="edge14" class="edge">
<title>Node13&#45;&gt;Node14</title>
<path fill="none" stroke="midnightblue" d="M925.87,-76.57C935.22,-79.26 945.07,-82.43 954,-86 970.8,-92.71 973.18,-98.34 990,-105 995.99,-107.37 1002.38,-109.56 1008.77,-111.55"/>
<polygon fill="midnightblue" stroke="midnightblue" points="1008.16,-115.02 1018.74,-114.5 1010.15,-108.31 1008.16,-115.02"/>
</g>
<!-- Node15 -->
<g id="node15" class="node">
<title>Node15</title>
<g id="a_node15"><a xlink:href="../../d8/d14/classrecoConsts.html#aec7c7c885b190f7dbb57ac99af4587e6" target="_top" xlink:title="overide the virtual function to expand the environmental variables">
<polygon fill="none" stroke="black" points="990,-76.5 990,-95.5 1130,-95.5 1130,-76.5 990,-76.5"/>
<text text-anchor="middle" x="1060" y="-83.5" font-family="FreeSans" font-size="10.00">recoConsts::set_CharFlag</text>
</a>
</g>
</g>
<!-- Node13&#45;&gt;Node15 -->
<g id="edge15" class="edge">
<title>Node13&#45;&gt;Node15</title>
<path fill="none" stroke="midnightblue" d="M954.18,-74.45C962.59,-75.38 971.25,-76.34 979.82,-77.28"/>
<polygon fill="midnightblue" stroke="midnightblue" points="979.49,-80.76 989.81,-78.38 980.26,-73.81 979.49,-80.76"/>
</g>
<!-- Node17 -->
<g id="node17" class="node">
<title>Node17</title>
<g id="a_node17"><a xlink:href="../../d1/da8/classPHFlag.html#a64f8c67e9313e5cecdbed51f747026da" target="_top" xlink:title=" ">
<polygon fill="none" stroke="black" points="993.5,-38.5 993.5,-57.5 1126.5,-57.5 1126.5,-38.5 993.5,-38.5"/>
<text text-anchor="middle" x="1060" y="-45.5" font-family="FreeSans" font-size="10.00">PHFlag::set_DoubleFlag</text>
</a>
</g>
</g>
<!-- Node13&#45;&gt;Node17 -->
<g id="edge17" class="edge">
<title>Node13&#45;&gt;Node17</title>
<path fill="none" stroke="midnightblue" d="M954.18,-59.55C963.78,-58.49 973.7,-57.4 983.43,-56.32"/>
<polygon fill="midnightblue" stroke="midnightblue" points="983.93,-59.79 993.49,-55.22 983.17,-52.83 983.93,-59.79"/>
</g>
<!-- Node18 -->
<g id="node18" class="node">
<title>Node18</title>
<g id="a_node18"><a xlink:href="../../d1/da8/classPHFlag.html#a3ef5c3f1eff2daaaf18e5129858a9ef8" target="_top" xlink:title=" ">
<polygon fill="none" stroke="black" points="1004.5,-0.5 1004.5,-19.5 1115.5,-19.5 1115.5,-0.5 1004.5,-0.5"/>
<text text-anchor="middle" x="1060" y="-7.5" font-family="FreeSans" font-size="10.00">PHFlag::set_IntFlag</text>
</a>
</g>
</g>
<!-- Node13&#45;&gt;Node18 -->
<g id="edge18" class="edge">
<title>Node13&#45;&gt;Node18</title>
<path fill="none" stroke="midnightblue" d="M910.98,-57.36C931.82,-49.31 962.66,-37.77 990,-29 997.16,-26.71 1004.78,-24.43 1012.26,-22.3"/>
<polygon fill="midnightblue" stroke="midnightblue" points="1013.26,-25.66 1021.95,-19.59 1011.38,-18.92 1013.26,-25.66"/>
</g>
<!-- Node16 -->
<g id="node16" class="node">
<title>Node16</title>
<g id="a_node16"><a xlink:href="../../d8/d14/classrecoConsts.html#ad45c452d9a71b5410c472614d72442ec" target="_top" xlink:title=" ">
<polygon fill="none" stroke="black" points="1166,-76.5 1166,-95.5 1355,-95.5 1355,-76.5 1166,-76.5"/>
<text text-anchor="middle" x="1260.5" y="-83.5" font-family="FreeSans" font-size="10.00">recoConsts::ExpandEnvironmentals</text>
</a>
</g>
</g>
<!-- Node15&#45;&gt;Node16 -->
<g id="edge16" class="edge">
<title>Node15&#45;&gt;Node16</title>
<path fill="none" stroke="midnightblue" d="M1130.15,-86C1138.43,-86 1147.02,-86 1155.66,-86"/>
<polygon fill="midnightblue" stroke="midnightblue" points="1155.81,-89.5 1165.81,-86 1155.81,-82.5 1155.81,-89.5"/>
</g>
</g>
</svg>
