<?xml version="1.0" encoding="UTF-8" standalone="no"?>
<!DOCTYPE svg PUBLIC "-//W3C//DTD SVG 1.1//EN"
 "http://www.w3.org/Graphics/SVG/1.1/DTD/svg11.dtd">
<!-- Generated by graphviz version 2.30.1 (20200930.0103)
 -->
<!-- Title: SQHitVector::size Pages: 1 -->
<svg width="446pt" height="487pt"
 viewBox="0.00 0.00 446.00 487.00" xmlns="http://www.w3.org/2000/svg" xmlns:xlink="http://www.w3.org/1999/xlink">
<g id="graph0" class="graph" transform="scale(1 1) rotate(0) translate(4 483)">
<title>SQHitVector::size</title>
<!-- Node1 -->
<g id="node1" class="node"><title>Node1</title>
<polygon fill="#bfbfbf" stroke="black" points="0,-240.5 0,-259.5 92,-259.5 92,-240.5 0,-240.5"/>
<text text-anchor="middle" x="46" y="-247.5" font-family="FreeSans" font-size="10.00">SQHitVector::size</text>
</g>
<!-- Node2 -->
<g id="node2" class="node"><title>Node2</title>
<g id="a_node2"><a xlink:href="../../df/d36/classSQDigitizer.html#a8db95e9af1b348833d7e759a486ee3da" target="_top" xlink:title="digitize the emcal hits ">
<polygon fill="none" stroke="black" points="144,-459.5 144,-478.5 272,-478.5 272,-459.5 144,-459.5"/>
<text text-anchor="middle" x="208" y="-466.5" font-family="FreeSans" font-size="10.00">SQDigitizer::digitizeEMCal</text>
</a>
</g>
</g>
<!-- Node1&#45;&gt;Node2 -->
<g id="edge1" class="edge"><title>Node1&#45;&gt;Node2</title>
<path fill="none" stroke="midnightblue" d="M49.0859,-269.849C54.4216,-310.206 72.3359,-402.058 128,-450 132.703,-454.051 138.123,-457.27 143.875,-459.824"/>
<polygon fill="midnightblue" stroke="midnightblue" points="52.5352,-269.215 47.8714,-259.702 45.5848,-270.047 52.5352,-269.215"/>
</g>
<!-- Node4 -->
<g id="node4" class="node"><title>Node4</title>
<g id="a_node4"><a xlink:href="../../df/d36/classSQDigitizer.html#a6888088bc0f09a34957d84e24ba7926b" target="_top" xlink:title="main external call, fill the digi hit vector ">
<polygon fill="none" stroke="black" points="145.5,-421.5 145.5,-440.5 270.5,-440.5 270.5,-421.5 145.5,-421.5"/>
<text text-anchor="middle" x="208" y="-428.5" font-family="FreeSans" font-size="10.00">SQDigitizer::digitizePlane</text>
</a>
</g>
</g>
<!-- Node1&#45;&gt;Node4 -->
<g id="edge3" class="edge"><title>Node1&#45;&gt;Node4</title>
<path fill="none" stroke="midnightblue" d="M51.3074,-269.883C59.7861,-304.114 81.9597,-374.049 128,-411 133.407,-415.339 139.638,-418.75 146.18,-421.429"/>
<polygon fill="midnightblue" stroke="midnightblue" points="54.6223,-268.687 48.9423,-259.743 47.8052,-270.277 54.6223,-268.687"/>
</g>
<!-- Node5 -->
<g id="node5" class="node"><title>Node5</title>
<g id="a_node5"><a xlink:href="../../d3/de7/classmTrkEveDisplay.html#a9dccd02ff8c77a1e34236d4575644100" target="_top" xlink:title="mTrkEveDisplay::draw\l_tracks">
<polygon fill="none" stroke="black" points="153,-372 153,-402 263,-402 263,-372 153,-372"/>
<text text-anchor="start" x="161" y="-390" font-family="FreeSans" font-size="10.00">mTrkEveDisplay::draw</text>
<text text-anchor="middle" x="208" y="-379" font-family="FreeSans" font-size="10.00">_tracks</text>
</a>
</g>
</g>
<!-- Node1&#45;&gt;Node5 -->
<g id="edge5" class="edge"><title>Node1&#45;&gt;Node5</title>
<path fill="none" stroke="midnightblue" d="M55.8034,-268.824C68.3805,-293.714 93.8064,-337.3 128,-362 135.463,-367.391 144.132,-371.649 152.938,-375.004"/>
<polygon fill="midnightblue" stroke="midnightblue" points="58.8805,-267.149 51.3472,-259.699 52.5904,-270.221 58.8805,-267.149"/>
</g>
<!-- Node7 -->
<g id="node7" class="node"><title>Node7</title>
<g id="a_node7"><a xlink:href="../../d0/dc5/namespaceUtilSQHit.html#a8796c745108428f2b9c4673dcb93d476" target="_top" xlink:title="UtilSQHit::FindFirstHits">
<polygon fill="none" stroke="black" points="150,-333.5 150,-352.5 266,-352.5 266,-333.5 150,-333.5"/>
<text text-anchor="middle" x="208" y="-340.5" font-family="FreeSans" font-size="10.00">UtilSQHit::FindFirstHits</text>
</a>
</g>
</g>
<!-- Node1&#45;&gt;Node7 -->
<g id="edge7" class="edge"><title>Node1&#45;&gt;Node7</title>
<path fill="none" stroke="midnightblue" d="M61.8132,-267.582C76.8256,-284.279 101.554,-308.869 128,-323 136.111,-327.334 145.196,-330.756 154.238,-333.451"/>
<polygon fill="midnightblue" stroke="midnightblue" points="64.1086,-264.89 54.8907,-259.667 58.8396,-269.499 64.1086,-264.89"/>
</g>
<!-- Node8 -->
<g id="node8" class="node"><title>Node8</title>
<g id="a_node8"><a xlink:href="../../d1/d9e/classAnaSimDst.html#a2cf8cb92aa16247867fe679f439e01ee" target="_top" xlink:title="AnaSimDst::process\l_event">
<polygon fill="none" stroke="black" points="156.5,-284 156.5,-314 259.5,-314 259.5,-284 156.5,-284"/>
<text text-anchor="start" x="164.5" y="-302" font-family="FreeSans" font-size="10.00">AnaSimDst::process</text>
<text text-anchor="middle" x="208" y="-291" font-family="FreeSans" font-size="10.00">_event</text>
</a>
</g>
</g>
<!-- Node1&#45;&gt;Node8 -->
<g id="edge8" class="edge"><title>Node1&#45;&gt;Node8</title>
<path fill="none" stroke="midnightblue" d="M87.9555,-262.543C109.276,-269.072 135.498,-277.102 157.9,-283.963"/>
<polygon fill="midnightblue" stroke="midnightblue" points="88.816,-259.146 78.2294,-259.564 86.7662,-265.839 88.816,-259.146"/>
</g>
<!-- Node9 -->
<g id="node9" class="node"><title>Node9</title>
<g id="a_node9"><a xlink:href="../../d9/d0c/classRndmEmbed.html#aab52cc2c180db26dd572a3556c8d6d9e" target="_top" xlink:title="RndmEmbed::process\l_event">
<polygon fill="none" stroke="black" points="153,-235 153,-265 263,-265 263,-235 153,-235"/>
<text text-anchor="start" x="161" y="-253" font-family="FreeSans" font-size="10.00">RndmEmbed::process</text>
<text text-anchor="middle" x="208" y="-242" font-family="FreeSans" font-size="10.00">_event</text>
</a>
</g>
</g>
<!-- Node1&#45;&gt;Node9 -->
<g id="edge9" class="edge"><title>Node1&#45;&gt;Node9</title>
<path fill="none" stroke="midnightblue" d="M102.857,-250C119.106,-250 136.821,-250 152.957,-250"/>
<polygon fill="midnightblue" stroke="midnightblue" points="102.422,-246.5 92.4216,-250 102.422,-253.5 102.422,-246.5"/>
</g>
<!-- Node10 -->
<g id="node10" class="node"><title>Node10</title>
<g id="a_node10"><a xlink:href="../../d4/d36/classSRawEventEmbed.html#a0041b344c23d0d679125dbb74aa1652b" target="_top" xlink:title="SRawEventEmbed::process\l_event">
<polygon fill="none" stroke="black" points="141,-186 141,-216 275,-216 275,-186 141,-186"/>
<text text-anchor="start" x="149" y="-204" font-family="FreeSans" font-size="10.00">SRawEventEmbed::process</text>
<text text-anchor="middle" x="208" y="-193" font-family="FreeSans" font-size="10.00">_event</text>
</a>
</g>
</g>
<!-- Node1&#45;&gt;Node10 -->
<g id="edge10" class="edge"><title>Node1&#45;&gt;Node10</title>
<path fill="none" stroke="midnightblue" d="M87.9555,-237.457C109.276,-230.928 135.498,-222.898 157.9,-216.037"/>
<polygon fill="midnightblue" stroke="midnightblue" points="86.7662,-234.161 78.2294,-240.436 88.816,-240.854 86.7662,-234.161"/>
</g>
<!-- Node11 -->
<g id="node11" class="node"><title>Node11</title>
<g id="a_node11"><a xlink:href="../../d8/d3e/classSimpleTree.html#a5b31087274e5e810e670395c811fd358" target="_top" xlink:title="SimpleTree::process\l_event">
<polygon fill="none" stroke="black" points="156,-137 156,-167 260,-167 260,-137 156,-137"/>
<text text-anchor="start" x="164" y="-155" font-family="FreeSans" font-size="10.00">SimpleTree::process</text>
<text text-anchor="middle" x="208" y="-144" font-family="FreeSans" font-size="10.00">_event</text>
</a>
</g>
</g>
<!-- Node1&#45;&gt;Node11 -->
<g id="edge11" class="edge"><title>Node1&#45;&gt;Node11</title>
<path fill="none" stroke="midnightblue" d="M62.4905,-232.219C77.6836,-215.782 102.258,-191.738 128,-177 136.614,-172.068 146.324,-167.978 155.913,-164.636"/>
<polygon fill="midnightblue" stroke="midnightblue" points="59.5427,-230.262 55.4442,-240.032 64.7408,-234.95 59.5427,-230.262"/>
</g>
<!-- Node12 -->
<g id="node12" class="node"><title>Node12</title>
<g id="a_node12"><a xlink:href="../../dd/d44/classTruthNodeMaker.html#a8796cc20f6e90d66179b114adc4d6397" target="_top" xlink:title="TruthNodeMaker::process\l_event">
<polygon fill="none" stroke="black" points="145,-88 145,-118 271,-118 271,-88 145,-88"/>
<text text-anchor="start" x="153" y="-106" font-family="FreeSans" font-size="10.00">TruthNodeMaker::process</text>
<text text-anchor="middle" x="208" y="-95" font-family="FreeSans" font-size="10.00">_event</text>
</a>
</g>
</g>
<!-- Node1&#45;&gt;Node12 -->
<g id="edge12" class="edge"><title>Node1&#45;&gt;Node12</title>
<path fill="none" stroke="midnightblue" d="M54.6684,-231.054C66.4726,-204.233 91.6073,-155.413 128,-128 133.171,-124.105 138.965,-120.807 145.003,-118.016"/>
<polygon fill="midnightblue" stroke="midnightblue" points="51.3572,-229.898 50.6771,-240.471 57.8022,-232.629 51.3572,-229.898"/>
</g>
<!-- Node13 -->
<g id="node13" class="node"><title>Node13</title>
<g id="a_node13"><a xlink:href="../../d8/dda/classDPTriggerAnalyzer.html#af71bdac68acca94700335d0e3be50250" target="_top" xlink:title="DPTriggerAnalyzer::\lprocess_event">
<polygon fill="none" stroke="black" points="157.5,-39 157.5,-69 258.5,-69 258.5,-39 157.5,-39"/>
<text text-anchor="start" x="165.5" y="-57" font-family="FreeSans" font-size="10.00">DPTriggerAnalyzer::</text>
<text text-anchor="middle" x="208" y="-46" font-family="FreeSans" font-size="10.00">process_event</text>
</a>
</g>
</g>
<!-- Node1&#45;&gt;Node13 -->
<g id="edge13" class="edge"><title>Node1&#45;&gt;Node13</title>
<path fill="none" stroke="midnightblue" d="M50.9475,-230.167C59.0423,-194.662 80.8742,-120.121 128,-79 136.346,-71.7173 146.819,-66.5538 157.383,-62.8936"/>
<polygon fill="midnightblue" stroke="midnightblue" points="47.464,-229.719 48.7874,-240.231 54.3081,-231.188 47.464,-229.719"/>
</g>
<!-- Node14 -->
<g id="node14" class="node"><title>Node14</title>
<g id="a_node14"><a xlink:href="../../d2/d02/classOnlMonH4.html#a04ac9a42248948b3004ff4847c8ee48f" target="_top" xlink:title="OnlMonH4::ProcessEventOnlMon">
<polygon fill="none" stroke="black" points="128.5,-0.5 128.5,-19.5 287.5,-19.5 287.5,-0.5 128.5,-0.5"/>
<text text-anchor="middle" x="208" y="-7.5" font-family="FreeSans" font-size="10.00">OnlMonH4::ProcessEventOnlMon</text>
</a>
</g>
</g>
<!-- Node1&#45;&gt;Node14 -->
<g id="edge14" class="edge"><title>Node1&#45;&gt;Node14</title>
<path fill="none" stroke="midnightblue" d="M48.2944,-230.326C52.2185,-187.277 67.7459,-84.2473 128,-30 132.837,-25.6455 138.486,-22.2102 144.499,-19.5042"/>
<polygon fill="midnightblue" stroke="midnightblue" points="44.8009,-230.106 47.4968,-240.353 51.7789,-230.662 44.8009,-230.106"/>
</g>
<!-- Node3 -->
<g id="node3" class="node"><title>Node3</title>
<g id="a_node3"><a xlink:href="../../df/d36/classSQDigitizer.html#a6fd850ed7dfbdeaeac53ef644c9f9eda" target="_top" xlink:title="event processing ">
<polygon fill="none" stroke="black" points="329.5,-435 329.5,-465 432.5,-465 432.5,-435 329.5,-435"/>
<text text-anchor="start" x="337.5" y="-453" font-family="FreeSans" font-size="10.00">SQDigitizer::process</text>
<text text-anchor="middle" x="381" y="-442" font-family="FreeSans" font-size="10.00">_event</text>
</a>
</g>
</g>
<!-- Node2&#45;&gt;Node3 -->
<g id="edge2" class="edge"><title>Node2&#45;&gt;Node3</title>
<path fill="none" stroke="midnightblue" d="M282.47,-460.837C298.274,-459.081 314.638,-457.262 329.343,-455.629"/>
<polygon fill="midnightblue" stroke="midnightblue" points="281.741,-457.396 272.188,-461.979 282.514,-464.353 281.741,-457.396"/>
</g>
<!-- Node4&#45;&gt;Node3 -->
<g id="edge4" class="edge"><title>Node4&#45;&gt;Node3</title>
<path fill="none" stroke="midnightblue" d="M280.782,-438.976C297.096,-440.788 314.094,-442.677 329.316,-444.368"/>
<polygon fill="midnightblue" stroke="midnightblue" points="281.06,-435.485 270.735,-437.859 280.287,-442.442 281.06,-435.485"/>
</g>
<!-- Node6 -->
<g id="node6" class="node"><title>Node6</title>
<g id="a_node6"><a xlink:href="../../d3/de7/classmTrkEveDisplay.html#aa3ce5d6c62c7c75bcb098cf992b788e1" target="_top" xlink:title="mTrkEveDisplay::event">
<polygon fill="none" stroke="black" points="324.5,-377.5 324.5,-396.5 437.5,-396.5 437.5,-377.5 324.5,-377.5"/>
<text text-anchor="middle" x="381" y="-384.5" font-family="FreeSans" font-size="10.00">mTrkEveDisplay::event</text>
</a>
</g>
</g>
<!-- Node5&#45;&gt;Node6 -->
<g id="edge6" class="edge"><title>Node5&#45;&gt;Node6</title>
<path fill="none" stroke="midnightblue" d="M273.396,-387C290.206,-387 308.176,-387 324.481,-387"/>
<polygon fill="midnightblue" stroke="midnightblue" points="273.106,-383.5 263.105,-387 273.105,-390.5 273.106,-383.5"/>
</g>
</g>
</svg>
