<?xml version="1.0" encoding="UTF-8" standalone="no"?>
<!DOCTYPE svg PUBLIC "-//W3C//DTD SVG 1.1//EN"
 "http://www.w3.org/Graphics/SVG/1.1/DTD/svg11.dtd">
<!-- Generated by graphviz version 2.36.0 (20140111.2315)
 -->
<!-- Title: Fun4AllHepMCPileupInputManager::run Pages: 1 -->
<svg width="952pt" height="728pt"
 viewBox="0.00 0.00 952.00 728.00" xmlns="http://www.w3.org/2000/svg" xmlns:xlink="http://www.w3.org/1999/xlink">
<g id="graph0" class="graph" transform="scale(1 1) rotate(0) translate(4 724)">
<title>Fun4AllHepMCPileupInputManager::run</title>
<!-- Node1 -->
<g id="node1" class="node"><title>Node1</title>
<polygon fill="#bfbfbf" stroke="black" points="0.5,-328.5 0.5,-347.5 187.5,-347.5 187.5,-328.5 0.5,-328.5"/>
<text text-anchor="middle" x="94" y="-335.5" font-family="FreeSans" font-size="10.00">Fun4AllHepMCPileupInputManager::run</text>
</g>
<!-- Node2 -->
<g id="node2" class="node"><title>Node2</title>
<g id="a_node2"><a xlink:href="../../d7/d7b/classPHHepMCGenEvent.html#a34a8f753178a4d74085b90e3a5264907" target="_top" xlink:title="host an HepMC event ">
<polygon fill="none" stroke="black" points="224,-700.5 224,-719.5 376,-719.5 376,-700.5 224,-700.5"/>
<text text-anchor="middle" x="300" y="-707.5" font-family="FreeSans" font-size="10.00">PHHepMCGenEvent::addEvent</text>
</a>
</g>
</g>
<!-- Node1&#45;&gt;Node2 -->
<g id="edge1" class="edge"><title>Node1&#45;&gt;Node2</title>
<path fill="none" stroke="midnightblue" d="M95.4419,-347.584C98.0828,-393.296 115.622,-591.029 224,-690 226.314,-692.113 228.826,-694.007 231.481,-695.704"/>
<polygon fill="midnightblue" stroke="midnightblue" points="229.915,-698.836 240.381,-700.484 233.227,-692.669 229.915,-698.836"/>
</g>
<!-- Node3 -->
<g id="node3" class="node"><title>Node3</title>
<g id="a_node3"><a xlink:href="../../d6/d6f/classFun4AllHepMCInputManager.html#a9a50c062c06ffe7af73b6591993de7c4" target="_top" xlink:title="Fun4AllHepMCInputManager\l::ConvertFromOscar">
<polygon fill="none" stroke="black" points="229,-651 229,-681 371,-681 371,-651 229,-651"/>
<text text-anchor="start" x="237" y="-669" font-family="FreeSans" font-size="10.00">Fun4AllHepMCInputManager</text>
<text text-anchor="middle" x="300" y="-658" font-family="FreeSans" font-size="10.00">::ConvertFromOscar</text>
</a>
</g>
</g>
<!-- Node1&#45;&gt;Node3 -->
<g id="edge2" class="edge"><title>Node1&#45;&gt;Node3</title>
<path fill="none" stroke="midnightblue" d="M96.4737,-347.756C103.156,-388.724 134.272,-548.752 224,-636 227.799,-639.694 232.11,-642.951 236.699,-645.819"/>
<polygon fill="midnightblue" stroke="midnightblue" points="235.363,-649.081 245.806,-650.869 238.758,-642.959 235.363,-649.081"/>
</g>
<!-- Node4 -->
<g id="node4" class="node"><title>Node4</title>
<g id="a_node4"><a xlink:href="../../dd/ded/classFun4AllSyncManager.html#a8b09000694a12e572075bc5f9824b13f" target="_top" xlink:title="Fun4AllSyncManager\l::CurrentEvent">
<polygon fill="none" stroke="black" points="245.5,-531 245.5,-561 354.5,-561 354.5,-531 245.5,-531"/>
<text text-anchor="start" x="253.5" y="-549" font-family="FreeSans" font-size="10.00">Fun4AllSyncManager</text>
<text text-anchor="middle" x="300" y="-538" font-family="FreeSans" font-size="10.00">::CurrentEvent</text>
</a>
</g>
</g>
<!-- Node1&#45;&gt;Node4 -->
<g id="edge3" class="edge"><title>Node1&#45;&gt;Node4</title>
<path fill="none" stroke="midnightblue" d="M100.13,-347.847C115.422,-376.384 163.416,-460.262 224,-510 231.702,-516.324 240.701,-521.854 249.738,-526.559"/>
<polygon fill="midnightblue" stroke="midnightblue" points="248.223,-529.714 258.741,-530.987 251.313,-523.433 248.223,-529.714"/>
</g>
<!-- Node7 -->
<g id="node7" class="node"><title>Node7</title>
<g id="a_node7"><a xlink:href="../../d6/d6f/classFun4AllHepMCInputManager.html#a1bde483df8980d46f5927a109ace2635" target="_top" xlink:title="Fun4AllHepMCInputManager\l::fileclose">
<polygon fill="none" stroke="black" points="629,-293 629,-323 771,-323 771,-293 629,-293"/>
<text text-anchor="start" x="637" y="-311" font-family="FreeSans" font-size="10.00">Fun4AllHepMCInputManager</text>
<text text-anchor="middle" x="700" y="-300" font-family="FreeSans" font-size="10.00">::fileclose</text>
</a>
</g>
</g>
<!-- Node1&#45;&gt;Node7 -->
<g id="edge6" class="edge"><title>Node1&#45;&gt;Node7</title>
<path fill="none" stroke="midnightblue" d="M135.69,-347.556C160.949,-352.991 194.171,-359.249 224,-362 367.532,-375.238 534.93,-345.662 627.753,-325.27"/>
<polygon fill="midnightblue" stroke="midnightblue" points="628.597,-328.668 637.598,-323.08 627.077,-321.835 628.597,-328.668"/>
</g>
<!-- Node8 -->
<g id="node8" class="node"><title>Node8</title>
<g id="a_node8"><a xlink:href="../../d5/dec/classFun4AllBase.html#a41f9ac377743d046f590617fd6f4f0ed" target="_top" xlink:title="Returns the name of this module. ">
<polygon fill="none" stroke="black" points="832.5,-536.5 832.5,-555.5 935.5,-555.5 935.5,-536.5 832.5,-536.5"/>
<text text-anchor="middle" x="884" y="-543.5" font-family="FreeSans" font-size="10.00">Fun4AllBase::Name</text>
</a>
</g>
</g>
<!-- Node1&#45;&gt;Node8 -->
<g id="edge22" class="edge"><title>Node1&#45;&gt;Node8</title>
<path fill="none" stroke="midnightblue" d="M97.2727,-347.967C106.155,-384.469 142.148,-511.744 224,-570 423.267,-711.822 748.889,-600.225 851.203,-559.406"/>
<polygon fill="midnightblue" stroke="midnightblue" points="852.712,-562.571 860.669,-555.575 850.086,-556.082 852.712,-562.571"/>
</g>
<!-- Node9 -->
<g id="node9" class="node"><title>Node9</title>
<g id="a_node9"><a xlink:href="../../dd/d2a/classPHHepMCGenHelper.html#ac7cd24ce28d07d1fa3459688fc8c407b" target="_top" xlink:title="PHHepMCGenHelper::get\l_embedding_id">
<polygon fill="none" stroke="black" points="236,-323 236,-353 364,-353 364,-323 236,-323"/>
<text text-anchor="start" x="244" y="-341" font-family="FreeSans" font-size="10.00">PHHepMCGenHelper::get</text>
<text text-anchor="middle" x="300" y="-330" font-family="FreeSans" font-size="10.00">_embedding_id</text>
</a>
</g>
</g>
<!-- Node1&#45;&gt;Node9 -->
<g id="edge8" class="edge"><title>Node1&#45;&gt;Node9</title>
<path fill="none" stroke="midnightblue" d="M187.748,-338C200.493,-338 213.433,-338 225.762,-338"/>
<polygon fill="midnightblue" stroke="midnightblue" points="225.957,-341.5 235.957,-338 225.957,-334.5 225.957,-341.5"/>
</g>
<!-- Node10 -->
<g id="node10" class="node"><title>Node10</title>
<g id="a_node10"><a xlink:href="../../dd/d2a/classPHHepMCGenHelper.html#a16425dd4d4a37fc3765ba93126230fe6" target="_top" xlink:title="PHHepMCGenHelper::get\l_geneventmap">
<polygon fill="none" stroke="black" points="236,-274 236,-304 364,-304 364,-274 236,-274"/>
<text text-anchor="start" x="244" y="-292" font-family="FreeSans" font-size="10.00">PHHepMCGenHelper::get</text>
<text text-anchor="middle" x="300" y="-281" font-family="FreeSans" font-size="10.00">_geneventmap</text>
</a>
</g>
</g>
<!-- Node1&#45;&gt;Node10 -->
<g id="edge9" class="edge"><title>Node1&#45;&gt;Node10</title>
<path fill="none" stroke="midnightblue" d="M134.818,-328.436C160.87,-322.178 195.675,-313.818 226.533,-306.406"/>
<polygon fill="midnightblue" stroke="midnightblue" points="227.491,-309.776 236.397,-304.037 225.856,-302.969 227.491,-309.776"/>
</g>
<!-- Node11 -->
<g id="node11" class="node"><title>Node11</title>
<g id="a_node11"><a xlink:href="../../d5/d41/classPHHepMCGenEventMap.html#a0aaa879be3540830d357a15423471ae3" target="_top" xlink:title="insert a event of interest, e.g. jetty event from pythia ">
<polygon fill="none" stroke="black" points="237.5,-176 237.5,-206 362.5,-206 362.5,-176 237.5,-176"/>
<text text-anchor="start" x="245.5" y="-194" font-family="FreeSans" font-size="10.00">PHHepMCGenEventMap</text>
<text text-anchor="middle" x="300" y="-183" font-family="FreeSans" font-size="10.00">::insert_active_event</text>
</a>
</g>
</g>
<!-- Node1&#45;&gt;Node11 -->
<g id="edge10" class="edge"><title>Node1&#45;&gt;Node11</title>
<path fill="none" stroke="midnightblue" d="M102.667,-328.276C121.146,-305.457 170.582,-247.994 224,-216 227.577,-213.858 231.36,-211.872 235.252,-210.036"/>
<polygon fill="midnightblue" stroke="midnightblue" points="236.708,-213.219 244.48,-206.019 233.914,-206.801 236.708,-213.219"/>
</g>
<!-- Node14 -->
<g id="node14" class="node"><title>Node14</title>
<g id="a_node14"><a xlink:href="../../d5/d41/classPHHepMCGenEventMap.html#a95d0dcb2a0100f9da5da5abbf6f24b9f" target="_top" xlink:title="insert a event of background, e.g. Au+Au collision background. First event has embedding ID = 0...">
<polygon fill="none" stroke="black" points="235,-225 235,-255 365,-255 365,-225 235,-225"/>
<text text-anchor="start" x="243" y="-243" font-family="FreeSans" font-size="10.00">PHHepMCGenEventMap</text>
<text text-anchor="middle" x="300" y="-232" font-family="FreeSans" font-size="10.00">::insert_background_event</text>
</a>
</g>
</g>
<!-- Node1&#45;&gt;Node14 -->
<g id="edge13" class="edge"><title>Node1&#45;&gt;Node14</title>
<path fill="none" stroke="midnightblue" d="M109.605,-328.49C133.022,-313.532 180.735,-284.236 224,-265 229.017,-262.77 234.297,-260.626 239.635,-258.596"/>
<polygon fill="midnightblue" stroke="midnightblue" points="241.076,-261.796 249.264,-255.072 238.67,-255.222 241.076,-261.796"/>
</g>
<!-- Node15 -->
<g id="node15" class="node"><title>Node15</title>
<g id="a_node15"><a xlink:href="../../dd/d2a/classPHHepMCGenHelper.html#af1c2525b75067fcdd4c28de6007c5963" target="_top" xlink:title="move vertex according to vertex settings ">
<polygon fill="none" stroke="black" points="230.5,-127 230.5,-157 369.5,-157 369.5,-127 230.5,-127"/>
<text text-anchor="start" x="238.5" y="-145" font-family="FreeSans" font-size="10.00">PHHepMCGenHelper::move</text>
<text text-anchor="middle" x="300" y="-134" font-family="FreeSans" font-size="10.00">_vertex</text>
</a>
</g>
</g>
<!-- Node1&#45;&gt;Node15 -->
<g id="edge15" class="edge"><title>Node1&#45;&gt;Node15</title>
<path fill="none" stroke="midnightblue" d="M99.65,-328.251C113.964,-299.265 160.281,-212.791 224,-167 226.675,-165.078 229.508,-163.296 232.445,-161.646"/>
<polygon fill="midnightblue" stroke="midnightblue" points="234.158,-164.701 241.517,-157.079 231.011,-158.449 234.158,-164.701"/>
</g>
<!-- Node18 -->
<g id="node18" class="node"><title>Node18</title>
<g id="a_node18"><a xlink:href="../../d7/d7b/classPHHepMCGenEvent.html#a4cd34cc37b99ec3a4a1301dfed8eab6c" target="_top" xlink:title="move the collision vertex position in the Hall coordinate system, use PHENIX units of cm...">
<polygon fill="none" stroke="black" points="412.5,-17.5 412.5,-36.5 575.5,-36.5 575.5,-17.5 412.5,-17.5"/>
<text text-anchor="middle" x="494" y="-24.5" font-family="FreeSans" font-size="10.00">PHHepMCGenEvent::moveVertex</text>
</a>
</g>
</g>
<!-- Node1&#45;&gt;Node18 -->
<g id="edge21" class="edge"><title>Node1&#45;&gt;Node18</title>
<path fill="none" stroke="midnightblue" d="M97.7396,-328.281C107.986,-293.765 147.448,-176.061 224,-118 279.658,-75.7859 314.429,-110.998 376,-78 394.868,-67.8877 392.997,-55.8574 412,-46 416.532,-43.6493 421.356,-41.5854 426.306,-39.7742"/>
<polygon fill="midnightblue" stroke="midnightblue" points="427.538,-43.0533 435.935,-36.5931 425.342,-36.4066 427.538,-43.0533"/>
</g>
<!-- Node21 -->
<g id="node21" class="node"><title>Node21</title>
<g id="a_node21"><a xlink:href="../../d6/d6f/classFun4AllHepMCInputManager.html#a0eee823ea0302273e9e2d3459bcc3508" target="_top" xlink:title="Fun4AllHepMCInputManager\l::OpenNextFile">
<polygon fill="none" stroke="black" points="229,-411 229,-441 371,-441 371,-411 229,-411"/>
<text text-anchor="start" x="237" y="-429" font-family="FreeSans" font-size="10.00">Fun4AllHepMCInputManager</text>
<text text-anchor="middle" x="300" y="-418" font-family="FreeSans" font-size="10.00">::OpenNextFile</text>
</a>
</g>
</g>
<!-- Node1&#45;&gt;Node21 -->
<g id="edge23" class="edge"><title>Node1&#45;&gt;Node21</title>
<path fill="none" stroke="midnightblue" d="M115.438,-347.509C140.776,-359.224 185.35,-379.59 224,-396 232.627,-399.663 241.86,-403.457 250.796,-407.066"/>
<polygon fill="midnightblue" stroke="midnightblue" points="249.749,-410.417 260.333,-410.893 252.356,-403.92 249.749,-410.417"/>
</g>
<!-- Node29 -->
<g id="node29" class="node"><title>Node29</title>
<g id="a_node29"><a xlink:href="../../d4/da9/classFun4AllInputManager.html#a08fc36a2da8759e20f8e035afe5ef6e5" target="_top" xlink:title="Fun4AllInputManager\l::RejectEvent">
<polygon fill="none" stroke="black" points="245.5,-471 245.5,-501 354.5,-501 354.5,-471 245.5,-471"/>
<text text-anchor="start" x="253.5" y="-489" font-family="FreeSans" font-size="10.00">Fun4AllInputManager</text>
<text text-anchor="middle" x="300" y="-478" font-family="FreeSans" font-size="10.00">::RejectEvent</text>
</a>
</g>
</g>
<!-- Node1&#45;&gt;Node29 -->
<g id="edge33" class="edge"><title>Node1&#45;&gt;Node29</title>
<path fill="none" stroke="midnightblue" d="M104.306,-347.677C124.592,-368.39 174.919,-417.756 224,-450 233.15,-456.011 243.456,-461.618 253.432,-466.534"/>
<polygon fill="midnightblue" stroke="midnightblue" points="251.926,-469.694 262.458,-470.846 254.944,-463.377 251.926,-469.694"/>
</g>
<!-- Node31 -->
<g id="node31" class="node"><title>Node31</title>
<g id="a_node31"><a xlink:href="../../d4/da9/classFun4AllInputManager.html#a01c946e063c464f497e7befbbe757f71" target="_top" xlink:title="Fun4AllInputManager\l::ResetEvent">
<polygon fill="none" stroke="black" points="245.5,-39 245.5,-69 354.5,-69 354.5,-39 245.5,-39"/>
<text text-anchor="start" x="253.5" y="-57" font-family="FreeSans" font-size="10.00">Fun4AllInputManager</text>
<text text-anchor="middle" x="300" y="-46" font-family="FreeSans" font-size="10.00">::ResetEvent</text>
</a>
</g>
</g>
<!-- Node1&#45;&gt;Node31 -->
<g id="edge37" class="edge"><title>Node1&#45;&gt;Node31</title>
<path fill="none" stroke="midnightblue" d="M97.2333,-328.45C106.316,-291.623 143.881,-157.257 224,-84 228.14,-80.2147 232.817,-76.8799 237.763,-73.9472"/>
<polygon fill="midnightblue" stroke="midnightblue" points="239.709,-76.8764 246.896,-69.0922 236.424,-70.6953 239.709,-76.8764"/>
</g>
<!-- Node32 -->
<g id="node32" class="node"><title>Node32</title>
<g id="a_node32"><a xlink:href="../../d5/dec/classFun4AllBase.html#a8a5c77a92bdac6bc043476e132379a40" target="_top" xlink:title="Gets the verbosity of this module. ">
<polygon fill="none" stroke="black" points="241.5,-0.5 241.5,-19.5 358.5,-19.5 358.5,-0.5 241.5,-0.5"/>
<text text-anchor="middle" x="300" y="-7.5" font-family="FreeSans" font-size="10.00">Fun4AllBase::Verbosity</text>
</a>
</g>
</g>
<!-- Node1&#45;&gt;Node32 -->
<g id="edge38" class="edge"><title>Node1&#45;&gt;Node32</title>
<path fill="none" stroke="midnightblue" d="M95.9523,-328.427C100.694,-286.07 125.613,-113.86 224,-29 226.543,-26.8068 229.304,-24.8607 232.217,-23.1344"/>
<polygon fill="midnightblue" stroke="midnightblue" points="233.954,-26.1794 241.345,-18.5877 230.833,-19.9137 233.954,-26.1794"/>
</g>
<!-- Node5 -->
<g id="node5" class="node"><title>Node5</title>
<g id="a_node5"><a xlink:href="../../da/d29/classFun4AllServer.html#a3e55156f91b2c94bb6c4ef33ffce587a" target="_top" xlink:title="Fun4AllServer::instance">
<polygon fill="none" stroke="black" points="434.5,-536.5 434.5,-555.5 553.5,-555.5 553.5,-536.5 434.5,-536.5"/>
<text text-anchor="middle" x="494" y="-543.5" font-family="FreeSans" font-size="10.00">Fun4AllServer::instance</text>
</a>
</g>
</g>
<!-- Node4&#45;&gt;Node5 -->
<g id="edge4" class="edge"><title>Node4&#45;&gt;Node5</title>
<path fill="none" stroke="midnightblue" d="M354.738,-546C376.192,-546 401.163,-546 423.935,-546"/>
<polygon fill="midnightblue" stroke="midnightblue" points="424.222,-549.5 434.222,-546 424.222,-542.5 424.222,-549.5"/>
</g>
<!-- Node6 -->
<g id="node6" class="node"><title>Node6</title>
<g id="a_node6"><a xlink:href="../../da/d29/classFun4AllServer.html#ac694f7821d6033f7734fa656ce7e38e0" target="_top" xlink:title="Fun4AllServer::EventNumber">
<polygon fill="none" stroke="black" points="423,-574.5 423,-593.5 565,-593.5 565,-574.5 423,-574.5"/>
<text text-anchor="middle" x="494" y="-581.5" font-family="FreeSans" font-size="10.00">Fun4AllServer::EventNumber</text>
</a>
</g>
</g>
<!-- Node4&#45;&gt;Node6 -->
<g id="edge5" class="edge"><title>Node4&#45;&gt;Node6</title>
<path fill="none" stroke="midnightblue" d="M354.738,-556.636C379.712,-561.578 409.454,-567.465 434.942,-572.509"/>
<polygon fill="midnightblue" stroke="midnightblue" points="434.358,-575.962 444.847,-574.47 435.717,-569.095 434.358,-575.962"/>
</g>
<!-- Node7&#45;&gt;Node8 -->
<g id="edge7" class="edge"><title>Node7&#45;&gt;Node8</title>
<path fill="none" stroke="midnightblue" d="M771.3,-322.125C777.33,-325.088 783.018,-328.67 788,-333 848.465,-385.557 872.214,-484.11 879.882,-526.163"/>
<polygon fill="midnightblue" stroke="midnightblue" points="876.467,-526.959 881.601,-536.227 883.367,-525.78 876.467,-526.959"/>
</g>
<!-- Node12 -->
<g id="node12" class="node"><title>Node12</title>
<g id="a_node12"><a xlink:href="../../d7/d7b/classPHHepMCGenEvent.html#a16b40df377cd06bfc6dc779d25740107" target="_top" xlink:title="PHHepMCGenEvent::Clone">
<polygon fill="none" stroke="black" points="426,-230.5 426,-249.5 562,-249.5 562,-230.5 426,-230.5"/>
<text text-anchor="middle" x="494" y="-237.5" font-family="FreeSans" font-size="10.00">PHHepMCGenEvent::Clone</text>
</a>
</g>
</g>
<!-- Node11&#45;&gt;Node12 -->
<g id="edge11" class="edge"><title>Node11&#45;&gt;Node12</title>
<path fill="none" stroke="midnightblue" d="M358.001,-206.05C375.329,-210.582 394.433,-215.537 412,-220 422.32,-222.622 433.391,-225.387 443.932,-227.997"/>
<polygon fill="midnightblue" stroke="midnightblue" points="443.287,-231.443 453.834,-230.442 444.965,-224.647 443.287,-231.443"/>
</g>
<!-- Node13 -->
<g id="node13" class="node"><title>Node13</title>
<g id="a_node13"><a xlink:href="../../d7/d7b/classPHHepMCGenEvent.html#a51bb6b2ee662beeefd54171ab480dccd" target="_top" xlink:title="PHHepMCGenEvent::PHHepMCGen\lEvent">
<polygon fill="none" stroke="black" points="612,-205 612,-235 788,-235 788,-205 612,-205"/>
<text text-anchor="start" x="620" y="-223" font-family="FreeSans" font-size="10.00">PHHepMCGenEvent::PHHepMCGen</text>
<text text-anchor="middle" x="700" y="-212" font-family="FreeSans" font-size="10.00">Event</text>
</a>
</g>
</g>
<!-- Node12&#45;&gt;Node13 -->
<g id="edge12" class="edge"><title>Node12&#45;&gt;Node13</title>
<path fill="none" stroke="midnightblue" d="M562.08,-233.424C574.758,-232.181 588.254,-230.857 601.644,-229.545"/>
<polygon fill="midnightblue" stroke="midnightblue" points="602.236,-233.004 611.847,-228.544 601.553,-226.037 602.236,-233.004"/>
</g>
<!-- Node14&#45;&gt;Node12 -->
<g id="edge14" class="edge"><title>Node14&#45;&gt;Node12</title>
<path fill="none" stroke="midnightblue" d="M365.2,-240C381.36,-240 398.875,-240 415.606,-240"/>
<polygon fill="midnightblue" stroke="midnightblue" points="415.903,-243.5 425.903,-240 415.903,-236.5 415.903,-243.5"/>
</g>
<!-- Node16 -->
<g id="node16" class="node"><title>Node16</title>
<g id="a_node16"><a xlink:href="../../d5/d41/classPHHepMCGenEventMap.html#aeee51cbc5dbbd18af41e66c03e955319" target="_top" xlink:title="fetch event ">
<polygon fill="none" stroke="black" points="422.5,-55.5 422.5,-74.5 565.5,-74.5 565.5,-55.5 422.5,-55.5"/>
<text text-anchor="middle" x="494" y="-62.5" font-family="FreeSans" font-size="10.00">PHHepMCGenEventMap::get</text>
</a>
</g>
</g>
<!-- Node15&#45;&gt;Node16 -->
<g id="edge16" class="edge"><title>Node15&#45;&gt;Node16</title>
<path fill="none" stroke="midnightblue" d="M344.806,-126.873C355.295,-122.605 366.268,-117.582 376,-112 393.583,-101.915 393.711,-92.7385 412,-84 417.05,-81.587 422.428,-79.4692 427.917,-77.6125"/>
<polygon fill="midnightblue" stroke="midnightblue" points="429.347,-80.8343 437.873,-74.545 427.286,-74.1447 429.347,-80.8343"/>
</g>
<!-- Node17 -->
<g id="node17" class="node"><title>Node17</title>
<g id="a_node17"><a xlink:href="../../d5/d41/classPHHepMCGenEventMap.html#a9808332ce5629be39dc62c9c3d50a0e2" target="_top" xlink:title="PHHepMCGenEventMap\l::identify">
<polygon fill="none" stroke="black" points="431.5,-181 431.5,-211 556.5,-211 556.5,-181 431.5,-181"/>
<text text-anchor="start" x="439.5" y="-199" font-family="FreeSans" font-size="10.00">PHHepMCGenEventMap</text>
<text text-anchor="middle" x="494" y="-188" font-family="FreeSans" font-size="10.00">::identify</text>
</a>
</g>
</g>
<!-- Node15&#45;&gt;Node17 -->
<g id="edge17" class="edge"><title>Node15&#45;&gt;Node17</title>
<path fill="none" stroke="midnightblue" d="M354.483,-157.042C377.791,-163.597 405.289,-171.331 429.616,-178.173"/>
<polygon fill="midnightblue" stroke="midnightblue" points="428.897,-181.607 439.471,-180.945 430.793,-174.868 428.897,-181.607"/>
</g>
<!-- Node15&#45;&gt;Node18 -->
<g id="edge18" class="edge"><title>Node15&#45;&gt;Node18</title>
<path fill="none" stroke="midnightblue" d="M352.566,-126.926C360.993,-122.964 369.183,-118.051 376,-112 400.988,-89.818 385.419,-66.2459 412,-46 414.37,-44.1949 416.884,-42.5573 419.503,-41.072"/>
<polygon fill="midnightblue" stroke="midnightblue" points="421.286,-44.0975 428.758,-36.5863 418.233,-37.7983 421.286,-44.0975"/>
</g>
<!-- Node19 -->
<g id="node19" class="node"><title>Node19</title>
<g id="a_node19"><a xlink:href="../../d7/d7b/classPHHepMCGenEvent.html#aeb1f4b1ca526d968a3b025a3063c61c4" target="_top" xlink:title="collision vertex position in the Hall coordinate system, use PHENIX units of cm, ns ...">
<polygon fill="none" stroke="black" points="431.5,-132 431.5,-162 556.5,-162 556.5,-132 431.5,-132"/>
<text text-anchor="start" x="439.5" y="-150" font-family="FreeSans" font-size="10.00">PHHepMCGenEvent::get</text>
<text text-anchor="middle" x="494" y="-139" font-family="FreeSans" font-size="10.00">_collision_vertex</text>
</a>
</g>
</g>
<!-- Node15&#45;&gt;Node19 -->
<g id="edge19" class="edge"><title>Node15&#45;&gt;Node19</title>
<path fill="none" stroke="midnightblue" d="M369.503,-143.784C386.181,-144.218 404.067,-144.684 420.906,-145.123"/>
<polygon fill="midnightblue" stroke="midnightblue" points="421.147,-148.63 431.235,-145.392 421.33,-141.632 421.147,-148.63"/>
</g>
<!-- Node20 -->
<g id="node20" class="node"><title>Node20</title>
<g id="a_node20"><a xlink:href="../../dd/d2a/classPHHepMCGenHelper.html#a030e43db2086d86155f32e8c6cf5958b" target="_top" xlink:title="PHHepMCGenHelper::smear">
<polygon fill="none" stroke="black" points="423,-93.5 423,-112.5 565,-112.5 565,-93.5 423,-93.5"/>
<text text-anchor="middle" x="494" y="-100.5" font-family="FreeSans" font-size="10.00">PHHepMCGenHelper::smear</text>
</a>
</g>
</g>
<!-- Node15&#45;&gt;Node20 -->
<g id="edge20" class="edge"><title>Node15&#45;&gt;Node20</title>
<path fill="none" stroke="midnightblue" d="M369.503,-128.085C391.345,-123.649 415.261,-118.791 436.18,-114.542"/>
<polygon fill="midnightblue" stroke="midnightblue" points="437.084,-117.93 446.187,-112.509 435.69,-111.07 437.084,-117.93"/>
</g>
<!-- Node22 -->
<g id="node22" class="node"><title>Node22</title>
<g id="a_node22"><a xlink:href="../../d6/d6f/classFun4AllHepMCInputManager.html#aaf891596a876957d656c23ea03b39f1a" target="_top" xlink:title="Fun4AllHepMCInputManager\l::fileopen">
<polygon fill="none" stroke="black" points="423,-411 423,-441 565,-441 565,-411 423,-411"/>
<text text-anchor="start" x="431" y="-429" font-family="FreeSans" font-size="10.00">Fun4AllHepMCInputManager</text>
<text text-anchor="middle" x="494" y="-418" font-family="FreeSans" font-size="10.00">::fileopen</text>
</a>
</g>
</g>
<!-- Node21&#45;&gt;Node22 -->
<g id="edge24" class="edge"><title>Node21&#45;&gt;Node22</title>
<path fill="none" stroke="midnightblue" d="M371.131,-426C384.534,-426 398.663,-426 412.363,-426"/>
<polygon fill="midnightblue" stroke="midnightblue" points="412.737,-429.5 422.737,-426 412.737,-422.5 412.737,-429.5"/>
</g>
<!-- Node22&#45;&gt;Node7 -->
<g id="edge27" class="edge"><title>Node22&#45;&gt;Node7</title>
<path fill="none" stroke="midnightblue" d="M551.41,-410.973C560.228,-407.028 568.794,-402.109 576,-396 600.599,-375.146 586.637,-352.918 612,-333 614.455,-331.072 617.052,-329.293 619.755,-327.652"/>
<polygon fill="midnightblue" stroke="midnightblue" points="621.539,-330.667 628.703,-322.861 618.235,-324.495 621.539,-330.667"/>
</g>
<!-- Node22&#45;&gt;Node8 -->
<g id="edge32" class="edge"><title>Node22&#45;&gt;Node8</title>
<path fill="none" stroke="midnightblue" d="M549.703,-441.018C559.01,-444.999 568.181,-449.932 576,-456 598.206,-473.234 588.07,-493.253 612,-508 675.814,-547.325 763.907,-552.611 822.112,-550.878"/>
<polygon fill="midnightblue" stroke="midnightblue" points="822.4,-554.37 832.262,-550.496 822.137,-547.375 822.4,-554.37"/>
</g>
<!-- Node23 -->
<g id="node23" class="node"><title>Node23</title>
<g id="a_node23"><a xlink:href="../../d4/da9/classFun4AllInputManager.html#a98ac3fb04956625a423ef41a3909ba27" target="_top" xlink:title="Fun4AllInputManager\l::AddToFileOpened">
<polygon fill="none" stroke="black" points="645.5,-430 645.5,-460 754.5,-460 754.5,-430 645.5,-430"/>
<text text-anchor="start" x="653.5" y="-448" font-family="FreeSans" font-size="10.00">Fun4AllInputManager</text>
<text text-anchor="middle" x="700" y="-437" font-family="FreeSans" font-size="10.00">::AddToFileOpened</text>
</a>
</g>
</g>
<!-- Node22&#45;&gt;Node23 -->
<g id="edge25" class="edge"><title>Node22&#45;&gt;Node23</title>
<path fill="none" stroke="midnightblue" d="M565.205,-432.539C587.993,-434.661 613.133,-437.003 635.411,-439.077"/>
<polygon fill="midnightblue" stroke="midnightblue" points="635.145,-442.568 645.426,-440.01 635.794,-435.598 635.145,-442.568"/>
</g>
<!-- Node24 -->
<g id="node24" class="node"><title>Node24</title>
<g id="a_node24"><a xlink:href="../../dd/ded/classFun4AllSyncManager.html#accab39002c98d83f875d96631b5d78bb" target="_top" xlink:title="Fun4AllSyncManager\l::CurrentRun">
<polygon fill="none" stroke="black" points="645.5,-381 645.5,-411 754.5,-411 754.5,-381 645.5,-381"/>
<text text-anchor="start" x="653.5" y="-399" font-family="FreeSans" font-size="10.00">Fun4AllSyncManager</text>
<text text-anchor="middle" x="700" y="-388" font-family="FreeSans" font-size="10.00">::CurrentRun</text>
</a>
</g>
</g>
<!-- Node22&#45;&gt;Node24 -->
<g id="edge26" class="edge"><title>Node22&#45;&gt;Node24</title>
<path fill="none" stroke="midnightblue" d="M565.205,-415.676C587.993,-412.325 613.133,-408.627 635.411,-405.351"/>
<polygon fill="midnightblue" stroke="midnightblue" points="636.042,-408.796 645.426,-403.878 635.024,-401.871 636.042,-408.796"/>
</g>
<!-- Node25 -->
<g id="node25" class="node"><title>Node25</title>
<g id="a_node25"><a xlink:href="../../d1/da8/classPHFlag.html#a4b73a422f0076568904d71f40e849da5" target="_top" xlink:title="PHFlag::FlagExist">
<polygon fill="none" stroke="black" points="653,-342.5 653,-361.5 747,-361.5 747,-342.5 653,-342.5"/>
<text text-anchor="middle" x="700" y="-349.5" font-family="FreeSans" font-size="10.00">PHFlag::FlagExist</text>
</a>
</g>
</g>
<!-- Node22&#45;&gt;Node25 -->
<g id="edge28" class="edge"><title>Node22&#45;&gt;Node25</title>
<path fill="none" stroke="midnightblue" d="M541.632,-410.842C553.095,-406.544 565.178,-401.516 576,-396 593.133,-387.268 594.341,-379.612 612,-372 621.707,-367.816 632.417,-364.442 642.906,-361.743"/>
<polygon fill="midnightblue" stroke="midnightblue" points="643.947,-365.092 652.855,-359.358 642.315,-358.285 643.947,-365.092"/>
</g>
<!-- Node26 -->
<g id="node26" class="node"><title>Node26</title>
<g id="a_node26"><a xlink:href="../../d1/da8/classPHFlag.html#a07899067141a5f12333cc37183caddc8" target="_top" xlink:title="PHFlag::get_IntFlag">
<polygon fill="none" stroke="black" points="648.5,-479.5 648.5,-498.5 751.5,-498.5 751.5,-479.5 648.5,-479.5"/>
<text text-anchor="middle" x="700" y="-486.5" font-family="FreeSans" font-size="10.00">PHFlag::get_IntFlag</text>
</a>
</g>
</g>
<!-- Node22&#45;&gt;Node26 -->
<g id="edge29" class="edge"><title>Node22&#45;&gt;Node26</title>
<path fill="none" stroke="midnightblue" d="M535.607,-441.062C567.817,-452.987 608.072,-467.832 612,-469 621.906,-471.946 632.555,-474.715 642.888,-477.198"/>
<polygon fill="midnightblue" stroke="midnightblue" points="642.128,-480.615 652.663,-479.488 643.725,-473.799 642.128,-480.615"/>
</g>
<!-- Node27 -->
<g id="node27" class="node"><title>Node27</title>
<g id="a_node27"><a xlink:href="../../d8/d14/classrecoConsts.html#ae69a5c29a7199ba16d0e537158618802" target="_top" xlink:title="recoConsts::instance">
<polygon fill="none" stroke="black" points="646.5,-254.5 646.5,-273.5 753.5,-273.5 753.5,-254.5 646.5,-254.5"/>
<text text-anchor="middle" x="700" y="-261.5" font-family="FreeSans" font-size="10.00">recoConsts::instance</text>
</a>
</g>
</g>
<!-- Node22&#45;&gt;Node27 -->
<g id="edge30" class="edge"><title>Node22&#45;&gt;Node27</title>
<path fill="none" stroke="midnightblue" d="M502.989,-410.782C519.279,-381.334 559.293,-316.591 612,-284 619.47,-279.381 627.897,-275.827 636.49,-273.092"/>
<polygon fill="midnightblue" stroke="midnightblue" points="637.55,-276.43 646.221,-270.34 635.645,-269.694 637.55,-276.43"/>
</g>
<!-- Node28 -->
<g id="node28" class="node"><title>Node28</title>
<g id="a_node28"><a xlink:href="../../d8/d14/classrecoConsts.html#ae882d6adc62f783ec78114fe3dee3c24" target="_top" xlink:title="recoConsts::recoConsts">
<polygon fill="none" stroke="black" points="824,-254.5 824,-273.5 944,-273.5 944,-254.5 824,-254.5"/>
<text text-anchor="middle" x="884" y="-261.5" font-family="FreeSans" font-size="10.00">recoConsts::recoConsts</text>
</a>
</g>
</g>
<!-- Node27&#45;&gt;Node28 -->
<g id="edge31" class="edge"><title>Node27&#45;&gt;Node28</title>
<path fill="none" stroke="midnightblue" d="M753.642,-264C772.327,-264 793.652,-264 813.524,-264"/>
<polygon fill="midnightblue" stroke="midnightblue" points="813.762,-267.5 823.762,-264 813.762,-260.5 813.762,-267.5"/>
</g>
<!-- Node29&#45;&gt;Node5 -->
<g id="edge34" class="edge"><title>Node29&#45;&gt;Node5</title>
<path fill="none" stroke="midnightblue" d="M338.118,-501.017C359.502,-509.337 387.015,-519.487 412,-527 420.342,-529.508 429.248,-531.889 437.99,-534.064"/>
<polygon fill="midnightblue" stroke="midnightblue" points="437.209,-537.476 447.752,-536.427 438.856,-530.672 437.209,-537.476"/>
</g>
<!-- Node29&#45;&gt;Node8 -->
<g id="edge36" class="edge"><title>Node29&#45;&gt;Node8</title>
<path fill="none" stroke="midnightblue" d="M354.554,-472.58C412.809,-461.028 506.85,-451.505 576,-489 601.357,-502.749 586.644,-529.249 612,-543 683.06,-581.538 780.799,-569.7 837.402,-557.745"/>
<polygon fill="midnightblue" stroke="midnightblue" points="838.465,-561.095 847.477,-555.523 836.958,-554.259 838.465,-561.095"/>
</g>
<!-- Node30 -->
<g id="node30" class="node"><title>Node30</title>
<g id="a_node30"><a xlink:href="../../da/d29/classFun4AllServer.html#abcaf6825367e5db292ff795237bdcf62" target="_top" xlink:title="Fun4AllServer::topNode">
<polygon fill="none" stroke="black" points="434.5,-498.5 434.5,-517.5 553.5,-517.5 553.5,-498.5 434.5,-498.5"/>
<text text-anchor="middle" x="494" y="-505.5" font-family="FreeSans" font-size="10.00">Fun4AllServer::topNode</text>
</a>
</g>
</g>
<!-- Node29&#45;&gt;Node30 -->
<g id="edge35" class="edge"><title>Node29&#45;&gt;Node30</title>
<path fill="none" stroke="midnightblue" d="M354.738,-492.157C376.288,-494.627 401.388,-497.503 424.242,-500.122"/>
<polygon fill="midnightblue" stroke="midnightblue" points="423.889,-503.604 434.222,-501.265 424.686,-496.649 423.889,-503.604"/>
</g>
</g>
</svg>
