<?xml version="1.0" encoding="UTF-8" standalone="no"?>
<!DOCTYPE svg PUBLIC "-//W3C//DTD SVG 1.1//EN"
 "http://www.w3.org/Graphics/SVG/1.1/DTD/svg11.dtd">
<!-- Generated by graphviz version 2.30.1 (20200930.0103)
 -->
<!-- Title: RunParamBase::SchemaName Pages: 1 -->
<svg width="512pt" height="419pt"
 viewBox="0.00 0.00 512.00 419.00" xmlns="http://www.w3.org/2000/svg" xmlns:xlink="http://www.w3.org/1999/xlink">
<g id="graph0" class="graph" transform="scale(1 1) rotate(0) translate(4 415)">
<title>RunParamBase::SchemaName</title>
<!-- Node1 -->
<g id="node1" class="node"><title>Node1</title>
<polygon fill="#bfbfbf" stroke="black" points="0,-95.5 0,-114.5 150,-114.5 150,-95.5 0,-95.5"/>
<text text-anchor="middle" x="75" y="-102.5" font-family="FreeSans" font-size="10.00">RunParamBase::SchemaName</text>
</g>
<!-- Node2 -->
<g id="node2" class="node"><title>Node2</title>
<g id="a_node2"><a xlink:href="../../db/d8a/classRunParamBase.html#a1a747ac4d6e1c3665d66f9a1d5118f32" target="_top" xlink:title="RunParamBase::ReadFromDB">
<polygon fill="none" stroke="black" points="194.5,-228.5 194.5,-247.5 341.5,-247.5 341.5,-228.5 194.5,-228.5"/>
<text text-anchor="middle" x="268" y="-235.5" font-family="FreeSans" font-size="10.00">RunParamBase::ReadFromDB</text>
</a>
</g>
</g>
<!-- Node1&#45;&gt;Node2 -->
<g id="edge1" class="edge"><title>Node1&#45;&gt;Node2</title>
<path fill="none" stroke="midnightblue" d="M97.9688,-120.298C137.676,-147.947 220.314,-205.491 253.132,-228.343"/>
<polygon fill="midnightblue" stroke="midnightblue" points="99.9428,-117.407 89.7362,-114.565 95.9426,-123.152 99.9428,-117.407"/>
</g>
<!-- Node11 -->
<g id="node11" class="node"><title>Node11</title>
<g id="a_node11"><a xlink:href="../../db/d8a/classRunParamBase.html#a5a75042c27d9ef9b53f4fa9e93a0a304" target="_top" xlink:title="RunParamBase::SetMapIDbyDB">
<polygon fill="none" stroke="black" points="190.5,-114.5 190.5,-133.5 345.5,-133.5 345.5,-114.5 190.5,-114.5"/>
<text text-anchor="middle" x="268" y="-121.5" font-family="FreeSans" font-size="10.00">RunParamBase::SetMapIDbyDB</text>
</a>
</g>
</g>
<!-- Node1&#45;&gt;Node11 -->
<g id="edge10" class="edge"><title>Node1&#45;&gt;Node11</title>
<path fill="none" stroke="midnightblue" d="M160.119,-113.368C170.194,-114.37 180.439,-115.389 190.4,-116.38"/>
<polygon fill="midnightblue" stroke="midnightblue" points="160.416,-109.88 150.119,-112.373 159.723,-116.846 160.416,-109.88"/>
</g>
<!-- Node12 -->
<g id="node12" class="node"><title>Node12</title>
<g id="a_node12"><a xlink:href="../../db/d8a/classRunParamBase.html#a15b5bce0a44515a4d6e55698a1f5f2b0" target="_top" xlink:title="RunParamBase::WriteRangeToDB">
<polygon fill="none" stroke="black" points="186,-76.5 186,-95.5 350,-95.5 350,-76.5 186,-76.5"/>
<text text-anchor="middle" x="268" y="-83.5" font-family="FreeSans" font-size="10.00">RunParamBase::WriteRangeToDB</text>
</a>
</g>
</g>
<!-- Node1&#45;&gt;Node12 -->
<g id="edge11" class="edge"><title>Node1&#45;&gt;Node12</title>
<path fill="none" stroke="midnightblue" d="M160.119,-96.6321C168.701,-95.7784 177.407,-94.9123 185.956,-94.062"/>
<polygon fill="midnightblue" stroke="midnightblue" points="159.723,-93.1541 150.119,-97.6269 160.416,-100.12 159.723,-93.1541"/>
</g>
<!-- Node16 -->
<g id="node16" class="node"><title>Node16</title>
<g id="a_node16"><a xlink:href="../../db/d8a/classRunParamBase.html#a0e3b99356e38f4e79d30cbb3a30f44ff" target="_top" xlink:title="RunParamBase::WriteToDB">
<polygon fill="none" stroke="black" points="200,-38.5 200,-57.5 336,-57.5 336,-38.5 200,-38.5"/>
<text text-anchor="middle" x="268" y="-45.5" font-family="FreeSans" font-size="10.00">RunParamBase::WriteToDB</text>
</a>
</g>
</g>
<!-- Node1&#45;&gt;Node16 -->
<g id="edge15" class="edge"><title>Node1&#45;&gt;Node16</title>
<path fill="none" stroke="midnightblue" d="M111.198,-91.8119C132.643,-84.0351 160.699,-74.3169 186,-67 197.794,-63.5892 210.686,-60.3487 222.647,-57.5415"/>
<polygon fill="midnightblue" stroke="midnightblue" points="109.733,-88.621 101.544,-95.3435 112.138,-95.195 109.733,-88.621"/>
</g>
<!-- Node3 -->
<g id="node3" class="node"><title>Node3</title>
<g id="a_node3"><a xlink:href="../../db/d7d/UploadCalibParam_8C.html#af49a89b9cc0fcf0323b215b3344f3869" target="_top" xlink:title="CheckCalibParam">
<polygon fill="none" stroke="black" points="397.5,-342.5 397.5,-361.5 492.5,-361.5 492.5,-342.5 397.5,-342.5"/>
<text text-anchor="middle" x="445" y="-349.5" font-family="FreeSans" font-size="10.00">CheckCalibParam</text>
</a>
</g>
</g>
<!-- Node2&#45;&gt;Node3 -->
<g id="edge2" class="edge"><title>Node2&#45;&gt;Node3</title>
<path fill="none" stroke="midnightblue" d="M285.753,-255.004C307.245,-275.965 346.484,-311.449 386,-333 392.791,-336.704 400.425,-339.84 407.869,-342.431"/>
<polygon fill="midnightblue" stroke="midnightblue" points="287.989,-252.292 278.422,-247.741 283.063,-257.265 287.989,-252.292"/>
</g>
<!-- Node4 -->
<g id="node4" class="node"><title>Node4</title>
<g id="a_node4"><a xlink:href="../../d0/da4/UploadChanMap_8C.html#ae385e581fe5291a9fb5d38cb847a6501" target="_top" xlink:title="CheckChanMap">
<polygon fill="none" stroke="black" points="402,-304.5 402,-323.5 488,-323.5 488,-304.5 402,-304.5"/>
<text text-anchor="middle" x="445" y="-311.5" font-family="FreeSans" font-size="10.00">CheckChanMap</text>
</a>
</g>
</g>
<!-- Node2&#45;&gt;Node4 -->
<g id="edge3" class="edge"><title>Node2&#45;&gt;Node4</title>
<path fill="none" stroke="midnightblue" d="M295.863,-252.393C319.275,-264.619 354.343,-282.173 386,-295 394.347,-298.382 403.546,-301.613 412.11,-304.42"/>
<polygon fill="midnightblue" stroke="midnightblue" points="297.369,-249.231 286.89,-247.67 294.109,-255.425 297.369,-249.231"/>
</g>
<!-- Node5 -->
<g id="node5" class="node"><title>Node5</title>
<g id="a_node5"><a xlink:href="../../d3/d9b/UploadGeomParam_8C.html#abff45e447c793e64f0acf5a0566a404c" target="_top" xlink:title="CheckGeomParam">
<polygon fill="none" stroke="black" points="395.5,-266.5 395.5,-285.5 494.5,-285.5 494.5,-266.5 395.5,-266.5"/>
<text text-anchor="middle" x="445" y="-273.5" font-family="FreeSans" font-size="10.00">CheckGeomParam</text>
</a>
</g>
</g>
<!-- Node2&#45;&gt;Node5 -->
<g id="edge4" class="edge"><title>Node2&#45;&gt;Node5</title>
<path fill="none" stroke="midnightblue" d="M323.124,-249.753C347.869,-255.126 376.803,-261.409 400.158,-266.48"/>
<polygon fill="midnightblue" stroke="midnightblue" points="323.675,-246.291 313.16,-247.589 322.189,-253.131 323.675,-246.291"/>
</g>
<!-- Node6 -->
<g id="node6" class="node"><title>Node6</title>
<g id="a_node6"><a xlink:href="../../d3/df0/structDecoParam.html#a5aa4569842470e27e4ed9480437e8047" target="_top" xlink:title="DecoParam::InitMapper">
<polygon fill="none" stroke="black" points="386,-228.5 386,-247.5 504,-247.5 504,-228.5 386,-228.5"/>
<text text-anchor="middle" x="445" y="-235.5" font-family="FreeSans" font-size="10.00">DecoParam::InitMapper</text>
</a>
</g>
</g>
<!-- Node2&#45;&gt;Node6 -->
<g id="edge5" class="edge"><title>Node2&#45;&gt;Node6</title>
<path fill="none" stroke="midnightblue" d="M351.785,-238C363.322,-238 374.968,-238 385.918,-238"/>
<polygon fill="midnightblue" stroke="midnightblue" points="351.695,-234.5 341.695,-238 351.695,-241.5 351.695,-234.5"/>
</g>
<!-- Node7 -->
<g id="node7" class="node"><title>Node7</title>
<g id="a_node7"><a xlink:href="../../d3/d98/classCalibInTime.html#a0265156f1d4f6847ae26065bc379343e" target="_top" xlink:title="CalibInTime::InitRun">
<polygon fill="none" stroke="black" points="393,-190.5 393,-209.5 497,-209.5 497,-190.5 393,-190.5"/>
<text text-anchor="middle" x="445" y="-197.5" font-family="FreeSans" font-size="10.00">CalibInTime::InitRun</text>
</a>
</g>
</g>
<!-- Node2&#45;&gt;Node7 -->
<g id="edge6" class="edge"><title>Node2&#45;&gt;Node7</title>
<path fill="none" stroke="midnightblue" d="M323.124,-226.247C347.869,-220.874 376.803,-214.591 400.158,-209.52"/>
<polygon fill="midnightblue" stroke="midnightblue" points="322.189,-222.869 313.16,-228.411 323.675,-229.709 322.189,-222.869"/>
</g>
<!-- Node8 -->
<g id="node8" class="node"><title>Node8</title>
<g id="a_node8"><a xlink:href="../../da/dab/classCalibXT.html#a0af85732012abc539169bc74d3e216ae" target="_top" xlink:title="CalibXT::InitRun">
<polygon fill="none" stroke="black" points="402,-152.5 402,-171.5 488,-171.5 488,-152.5 402,-152.5"/>
<text text-anchor="middle" x="445" y="-159.5" font-family="FreeSans" font-size="10.00">CalibXT::InitRun</text>
</a>
</g>
</g>
<!-- Node2&#45;&gt;Node8 -->
<g id="edge7" class="edge"><title>Node2&#45;&gt;Node8</title>
<path fill="none" stroke="midnightblue" d="M295.863,-223.607C319.275,-211.381 354.343,-193.827 386,-181 394.347,-177.618 403.546,-174.387 412.11,-171.58"/>
<polygon fill="midnightblue" stroke="midnightblue" points="294.109,-220.575 286.89,-228.33 297.369,-226.769 294.109,-220.575"/>
</g>
<!-- Node9 -->
<g id="node9" class="node"><title>Node9</title>
<g id="a_node9"><a xlink:href="../../db/d8f/classCalibXTv2.html#a94e3fb03913056682d734165d2a8d427" target="_top" xlink:title="CalibXTv2::InitRun">
<polygon fill="none" stroke="black" points="397,-114.5 397,-133.5 493,-133.5 493,-114.5 397,-114.5"/>
<text text-anchor="middle" x="445" y="-121.5" font-family="FreeSans" font-size="10.00">CalibXTv2::InitRun</text>
</a>
</g>
</g>
<!-- Node2&#45;&gt;Node9 -->
<g id="edge8" class="edge"><title>Node2&#45;&gt;Node9</title>
<path fill="none" stroke="midnightblue" d="M285.753,-220.996C307.245,-200.035 346.484,-164.551 386,-143 392.791,-139.296 400.425,-136.16 407.869,-133.569"/>
<polygon fill="midnightblue" stroke="midnightblue" points="283.063,-218.735 278.422,-228.259 287.989,-223.708 283.063,-218.735"/>
</g>
<!-- Node10 -->
<g id="node10" class="node"><title>Node10</title>
<g id="a_node10"><a xlink:href="../../dc/dcd/classSQChamberRealization.html#a69eb66408dc5f9cb20f92dcc12c89d14" target="_top" xlink:title="SQChamberRealization\l::InitRun">
<polygon fill="none" stroke="black" points="386.5,-381 386.5,-411 503.5,-411 503.5,-381 386.5,-381"/>
<text text-anchor="start" x="394.5" y="-399" font-family="FreeSans" font-size="10.00">SQChamberRealization</text>
<text text-anchor="middle" x="445" y="-388" font-family="FreeSans" font-size="10.00">::InitRun</text>
</a>
</g>
</g>
<!-- Node2&#45;&gt;Node10 -->
<g id="edge9" class="edge"><title>Node2&#45;&gt;Node10</title>
<path fill="none" stroke="midnightblue" d="M280.919,-256.08C300.119,-284.01 340.394,-337.878 386,-371 391.146,-374.737 396.937,-378.064 402.817,-380.975"/>
<polygon fill="midnightblue" stroke="midnightblue" points="283.736,-253.998 275.238,-247.67 277.935,-257.916 283.736,-253.998"/>
</g>
<!-- Node13 -->
<g id="node13" class="node"><title>Node13</title>
<g id="a_node13"><a xlink:href="../../db/d7d/UploadCalibParam_8C.html#abf758af3a7c6c28be661c078bb0a9ac3" target="_top" xlink:title="UploadCalibParam.C: Macro to upload the calibration parameter from tsv file to MySQL DB...">
<polygon fill="none" stroke="black" points="396.5,-76.5 396.5,-95.5 493.5,-95.5 493.5,-76.5 396.5,-76.5"/>
<text text-anchor="middle" x="445" y="-83.5" font-family="FreeSans" font-size="10.00">UploadCalibParam</text>
</a>
</g>
</g>
<!-- Node12&#45;&gt;Node13 -->
<g id="edge12" class="edge"><title>Node12&#45;&gt;Node13</title>
<path fill="none" stroke="midnightblue" d="M360.441,-86C372.753,-86 384.961,-86 396.086,-86"/>
<polygon fill="midnightblue" stroke="midnightblue" points="360.096,-82.5001 350.096,-86 360.096,-89.5001 360.096,-82.5001"/>
</g>
<!-- Node14 -->
<g id="node14" class="node"><title>Node14</title>
<g id="a_node14"><a xlink:href="../../d0/da4/UploadChanMap_8C.html#a6ec43687f04e8350c642c7866b2117f9" target="_top" xlink:title="UploadChanMap.C: Macro to upload the channel mapping from tsv file to MySQL DB. ">
<polygon fill="none" stroke="black" points="401,-38.5 401,-57.5 489,-57.5 489,-38.5 401,-38.5"/>
<text text-anchor="middle" x="445" y="-45.5" font-family="FreeSans" font-size="10.00">UploadChanMap</text>
</a>
</g>
</g>
<!-- Node12&#45;&gt;Node14 -->
<g id="edge13" class="edge"><title>Node12&#45;&gt;Node14</title>
<path fill="none" stroke="midnightblue" d="M323.201,-74.2305C348.143,-68.8146 377.328,-62.4773 400.763,-57.3887"/>
<polygon fill="midnightblue" stroke="midnightblue" points="322.189,-70.8686 313.16,-76.411 323.675,-77.7092 322.189,-70.8686"/>
</g>
<!-- Node15 -->
<g id="node15" class="node"><title>Node15</title>
<g id="a_node15"><a xlink:href="../../d3/d9b/UploadGeomParam_8C.html#a848a5f72fcdaa3c113387cdabf946afe" target="_top" xlink:title="UploadGeomParam.C: Macro to upload the geometry parameter from tsv file to MySQL DB. ">
<polygon fill="none" stroke="black" points="394.5,-0.5 394.5,-19.5 495.5,-19.5 495.5,-0.5 394.5,-0.5"/>
<text text-anchor="middle" x="445" y="-7.5" font-family="FreeSans" font-size="10.00">UploadGeomParam</text>
</a>
</g>
</g>
<!-- Node12&#45;&gt;Node15 -->
<g id="edge14" class="edge"><title>Node12&#45;&gt;Node15</title>
<path fill="none" stroke="midnightblue" d="M337.636,-72.9738C341.929,-71.2269 346.09,-69.2461 350,-67 370.173,-55.4119 366.345,-41.4462 386,-29 391.998,-25.202 398.829,-22.0905 405.647,-19.5664"/>
<polygon fill="midnightblue" stroke="midnightblue" points="336.286,-69.7404 328.075,-76.4364 338.669,-76.3221 336.286,-69.7404"/>
</g>
<!-- Node16&#45;&gt;Node13 -->
<g id="edge16" class="edge"><title>Node16&#45;&gt;Node13</title>
<path fill="none" stroke="midnightblue" d="M323.124,-59.7526C347.869,-65.1258 376.803,-71.4086 400.158,-76.4799"/>
<polygon fill="midnightblue" stroke="midnightblue" points="323.675,-56.2908 313.16,-57.589 322.189,-63.1314 323.675,-56.2908"/>
</g>
<!-- Node16&#45;&gt;Node14 -->
<g id="edge17" class="edge"><title>Node16&#45;&gt;Node14</title>
<path fill="none" stroke="midnightblue" d="M346.174,-48C364.9,-48 384.266,-48 400.777,-48"/>
<polygon fill="midnightblue" stroke="midnightblue" points="346.159,-44.5001 336.159,-48 346.159,-51.5001 346.159,-44.5001"/>
</g>
<!-- Node16&#45;&gt;Node15 -->
<g id="edge18" class="edge"><title>Node16&#45;&gt;Node15</title>
<path fill="none" stroke="midnightblue" d="M323.124,-36.2474C347.869,-30.8742 376.803,-24.5914 400.158,-19.5201"/>
<polygon fill="midnightblue" stroke="midnightblue" points="322.189,-32.8686 313.16,-38.411 323.675,-39.7092 322.189,-32.8686"/>
</g>
</g>
</svg>
