<?xml version="1.0" encoding="UTF-8" standalone="no"?>
<!DOCTYPE svg PUBLIC "-//W3C//DTD SVG 1.1//EN"
 "http://www.w3.org/Graphics/SVG/1.1/DTD/svg11.dtd">
<!-- Generated by graphviz version 2.30.1 (20180413.0232)
 -->
<!-- Title: DecoStatusDb::RunStarted Pages: 1 -->
<svg width="1030pt" height="1204pt"
 viewBox="0.00 0.00 1030.00 1204.00" xmlns="http://www.w3.org/2000/svg" xmlns:xlink="http://www.w3.org/1999/xlink">
<g id="graph0" class="graph" transform="scale(1 1) rotate(0) translate(4 1200)">
<title>DecoStatusDb::RunStarted</title>
<!-- Node1 -->
<g id="node1" class="node"><title>Node1</title>
<polygon fill="#bfbfbf" stroke="black" points="0,-1100.5 0,-1119.5 132,-1119.5 132,-1100.5 0,-1100.5"/>
<text text-anchor="middle" x="66" y="-1107.5" font-family="FreeSans" font-size="10.00">DecoStatusDb::RunStarted</text>
</g>
<!-- Node2 -->
<g id="node2" class="node"><title>Node2</title>
<g id="a_node2"><a xlink:href="../../d2/da4/classDbSvc.html#af342c238c151003ac35ca3e96f60d02e" target="_top" xlink:title="DbSvc::Con">
<polygon fill="none" stroke="black" points="195.5,-1138.5 195.5,-1157.5 262.5,-1157.5 262.5,-1138.5 195.5,-1138.5"/>
<text text-anchor="middle" x="229" y="-1145.5" font-family="FreeSans" font-size="10.00">DbSvc::Con</text>
</a>
</g>
</g>
<!-- Node1&#45;&gt;Node2 -->
<g id="edge1" class="edge"><title>Node1&#45;&gt;Node2</title>
<path fill="none" stroke="midnightblue" d="M107.627,-1119.59C131.428,-1125.21 161.45,-1132.29 185.558,-1137.98"/>
<polygon fill="midnightblue" stroke="midnightblue" points="184.955,-1141.44 195.492,-1140.33 186.563,-1134.62 184.955,-1141.44"/>
</g>
<!-- Node3 -->
<g id="node3" class="node"><title>Node3</title>
<g id="a_node3"><a xlink:href="../../d7/d48/classDecoStatusDb.html#aaba24471944a89239a3f5e7742cc856c" target="_top" xlink:title="DecoStatusDb::InitTable">
<polygon fill="none" stroke="black" points="168.5,-1100.5 168.5,-1119.5 289.5,-1119.5 289.5,-1100.5 168.5,-1100.5"/>
<text text-anchor="middle" x="229" y="-1107.5" font-family="FreeSans" font-size="10.00">DecoStatusDb::InitTable</text>
</a>
</g>
</g>
<!-- Node1&#45;&gt;Node3 -->
<g id="edge2" class="edge"><title>Node1&#45;&gt;Node3</title>
<path fill="none" stroke="midnightblue" d="M132.021,-1110C140.677,-1110 149.582,-1110 158.313,-1110"/>
<polygon fill="midnightblue" stroke="midnightblue" points="158.459,-1113.5 168.459,-1110 158.459,-1106.5 158.459,-1113.5"/>
</g>
<!-- Node8 -->
<g id="node8" class="node"><title>Node8</title>
<g id="a_node8"><a xlink:href="../../df/dbc/run_8C.html#a078d38b1d96e7c0e4f35d93363cc8325" target="_top" xlink:title="run">
<polygon fill="none" stroke="black" points="214,-727.5 214,-746.5 244,-746.5 244,-727.5 214,-727.5"/>
<text text-anchor="middle" x="229" y="-734.5" font-family="FreeSans" font-size="10.00">run</text>
</a>
</g>
</g>
<!-- Node1&#45;&gt;Node8 -->
<g id="edge7" class="edge"><title>Node1&#45;&gt;Node8</title>
<path fill="none" stroke="midnightblue" d="M71.1416,-1100.4C92.5392,-1050.83 190.691,-823.436 219.825,-755.94"/>
<polygon fill="midnightblue" stroke="midnightblue" points="223.136,-757.1 223.886,-746.532 216.709,-754.326 223.136,-757.1"/>
</g>
<!-- Node4 -->
<g id="node4" class="node"><title>Node4</title>
<g id="a_node4"><a xlink:href="../../da/dfa/classDbSvc_1_1VarList.html#a8835fc0ecc4041873b5e15dbb35a5218" target="_top" xlink:title="DbSvc::VarList::Add">
<polygon fill="none" stroke="black" points="356.5,-1100.5 356.5,-1119.5 457.5,-1119.5 457.5,-1100.5 356.5,-1100.5"/>
<text text-anchor="middle" x="407" y="-1107.5" font-family="FreeSans" font-size="10.00">DbSvc::VarList::Add</text>
</a>
</g>
</g>
<!-- Node3&#45;&gt;Node4 -->
<g id="edge3" class="edge"><title>Node3&#45;&gt;Node4</title>
<path fill="none" stroke="midnightblue" d="M289.586,-1110C307.844,-1110 327.93,-1110 346.202,-1110"/>
<polygon fill="midnightblue" stroke="midnightblue" points="346.433,-1113.5 356.433,-1110 346.432,-1106.5 346.433,-1113.5"/>
</g>
<!-- Node5 -->
<g id="node5" class="node"><title>Node5</title>
<g id="a_node5"><a xlink:href="../../d2/da4/classDbSvc.html#abc037dbd5084422aacdfa76bd0e8d2b7" target="_top" xlink:title="DbSvc::CreateTable">
<polygon fill="none" stroke="black" points="356,-1062.5 356,-1081.5 458,-1081.5 458,-1062.5 356,-1062.5"/>
<text text-anchor="middle" x="407" y="-1069.5" font-family="FreeSans" font-size="10.00">DbSvc::CreateTable</text>
</a>
</g>
</g>
<!-- Node3&#45;&gt;Node5 -->
<g id="edge4" class="edge"><title>Node3&#45;&gt;Node5</title>
<path fill="none" stroke="midnightblue" d="M274.412,-1100.41C297.951,-1095.33 327.057,-1089.04 351.905,-1083.68"/>
<polygon fill="midnightblue" stroke="midnightblue" points="352.871,-1087.05 361.907,-1081.52 351.394,-1080.21 352.871,-1087.05"/>
</g>
<!-- Node6 -->
<g id="node6" class="node"><title>Node6</title>
<g id="a_node6"><a xlink:href="../../d2/da4/classDbSvc.html#a7a6da517bc72f88c593f1102378dfdba" target="_top" xlink:title="DbSvc::DropTable">
<polygon fill="none" stroke="black" points="360,-1176.5 360,-1195.5 454,-1195.5 454,-1176.5 360,-1176.5"/>
<text text-anchor="middle" x="407" y="-1183.5" font-family="FreeSans" font-size="10.00">DbSvc::DropTable</text>
</a>
</g>
</g>
<!-- Node3&#45;&gt;Node6 -->
<g id="edge5" class="edge"><title>Node3&#45;&gt;Node6</title>
<path fill="none" stroke="midnightblue" d="M269.992,-1119.54C276.94,-1122.06 283.888,-1125.17 290,-1129 309.717,-1141.35 305.843,-1155.38 326,-1167 333.379,-1171.25 341.663,-1174.55 350.029,-1177.12"/>
<polygon fill="midnightblue" stroke="midnightblue" points="349.271,-1180.54 359.84,-1179.8 351.118,-1173.79 349.271,-1180.54"/>
</g>
<!-- Node7 -->
<g id="node7" class="node"><title>Node7</title>
<g id="a_node7"><a xlink:href="../../d2/da4/classDbSvc.html#af7e30673551b9cbc6d0ad9e37e4ec35b" target="_top" xlink:title="DbSvc::HasTable">
<polygon fill="none" stroke="black" points="362,-1138.5 362,-1157.5 452,-1157.5 452,-1138.5 362,-1138.5"/>
<text text-anchor="middle" x="407" y="-1145.5" font-family="FreeSans" font-size="10.00">DbSvc::HasTable</text>
</a>
</g>
</g>
<!-- Node3&#45;&gt;Node7 -->
<g id="edge6" class="edge"><title>Node3&#45;&gt;Node7</title>
<path fill="none" stroke="midnightblue" d="M274.412,-1119.59C297.951,-1124.67 327.057,-1130.96 351.905,-1136.32"/>
<polygon fill="midnightblue" stroke="midnightblue" points="351.394,-1139.79 361.907,-1138.48 352.871,-1132.95 351.394,-1139.79"/>
</g>
<!-- Node9 -->
<g id="node9" class="node"><title>Node9</title>
<g id="a_node9"><a xlink:href="../../d5/de9/E1039Shielding_2ana_8C.html#a24b637aefa84c667b63905e9be5a8f69" target="_top" xlink:title="ana">
<polygon fill="none" stroke="black" points="391,-670.5 391,-689.5 423,-689.5 423,-670.5 391,-670.5"/>
<text text-anchor="middle" x="407" y="-677.5" font-family="FreeSans" font-size="10.00">ana</text>
</a>
</g>
</g>
<!-- Node8&#45;&gt;Node9 -->
<g id="edge8" class="edge"><title>Node8&#45;&gt;Node9</title>
<path fill="none" stroke="midnightblue" d="M244.254,-731.902C262.949,-725.262 296.808,-713.392 326,-704 344.281,-698.118 365.058,-691.899 380.856,-687.266"/>
<polygon fill="midnightblue" stroke="midnightblue" points="382.285,-690.495 390.905,-684.335 380.325,-683.774 382.285,-690.495"/>
</g>
<!-- Node12 -->
<g id="node12" class="node"><title>Node12</title>
<g id="a_node12"><a xlink:href="../../da/d29/classFun4AllServer.html#ab7263450319ca1d5029209fde26a7af8" target="_top" xlink:title="Fun4AllServer::End">
<polygon fill="none" stroke="black" points="358,-316.5 358,-335.5 456,-335.5 456,-316.5 358,-316.5"/>
<text text-anchor="middle" x="407" y="-323.5" font-family="FreeSans" font-size="10.00">Fun4AllServer::End</text>
</a>
</g>
</g>
<!-- Node8&#45;&gt;Node12 -->
<g id="edge11" class="edge"><title>Node8&#45;&gt;Node12</title>
<path fill="none" stroke="midnightblue" d="M232.945,-727.118C243.63,-691.696 282.047,-568.049 326,-471 347.339,-423.882 378.195,-371.378 394.654,-344.328"/>
<polygon fill="midnightblue" stroke="midnightblue" points="397.779,-345.926 400.021,-335.572 391.811,-342.268 397.779,-345.926"/>
</g>
<!-- Node22 -->
<g id="node22" class="node"><title>Node22</title>
<g id="a_node22"><a xlink:href="../../d4/da9/classFun4AllInputManager.html#a8ad787f847a175450ec5beddeaa33ca6" target="_top" xlink:title="Fun4AllInputManager\l::fileopen">
<polygon fill="none" stroke="black" points="352.5,-179 352.5,-209 461.5,-209 461.5,-179 352.5,-179"/>
<text text-anchor="start" x="360.5" y="-197" font-family="FreeSans" font-size="10.00">Fun4AllInputManager</text>
<text text-anchor="middle" x="407" y="-186" font-family="FreeSans" font-size="10.00">::fileopen</text>
</a>
</g>
</g>
<!-- Node8&#45;&gt;Node22 -->
<g id="edge22" class="edge"><title>Node8&#45;&gt;Node22</title>
<path fill="none" stroke="midnightblue" d="M230.542,-727.279C234.277,-663.487 258.117,-304.837 326,-224 330.787,-218.299 336.772,-213.68 343.301,-209.939"/>
<polygon fill="midnightblue" stroke="midnightblue" points="345.094,-212.956 352.48,-205.361 341.97,-206.692 345.094,-212.956"/>
</g>
<!-- Node13 -->
<g id="node13" class="node"><title>Node13</title>
<g id="a_node13"><a xlink:href="../../d8/d14/classrecoConsts.html#ae69a5c29a7199ba16d0e537158618802" target="_top" xlink:title="recoConsts::instance">
<polygon fill="none" stroke="black" points="712.5,-537.5 712.5,-556.5 817.5,-556.5 817.5,-537.5 712.5,-537.5"/>
<text text-anchor="middle" x="765" y="-544.5" font-family="FreeSans" font-size="10.00">recoConsts::instance</text>
</a>
</g>
</g>
<!-- Node8&#45;&gt;Node13 -->
<g id="edge23" class="edge"><title>Node8&#45;&gt;Node13</title>
<path fill="none" stroke="midnightblue" d="M238.657,-727.265C254.244,-710.468 288.879,-676.367 326,-661 461.594,-604.869 516.653,-674.693 654,-623 690.087,-609.418 725.657,-581.463 746.186,-563.506"/>
<polygon fill="midnightblue" stroke="midnightblue" points="748.657,-565.992 753.777,-556.717 743.99,-560.774 748.657,-565.992"/>
</g>
<!-- Node23 -->
<g id="node23" class="node"><title>Node23</title>
<g id="a_node23"><a xlink:href="../../da/d29/classFun4AllServer.html#a3e55156f91b2c94bb6c4ef33ffce587a" target="_top" xlink:title="Fun4AllServer::instance">
<polygon fill="none" stroke="black" points="530,-114.5 530,-133.5 648,-133.5 648,-114.5 530,-114.5"/>
<text text-anchor="middle" x="589" y="-121.5" font-family="FreeSans" font-size="10.00">Fun4AllServer::instance</text>
</a>
</g>
</g>
<!-- Node8&#45;&gt;Node23 -->
<g id="edge24" class="edge"><title>Node8&#45;&gt;Node23</title>
<path fill="none" stroke="midnightblue" d="M230.547,-727.408C234.242,-665.992 257.513,-328.201 326,-257 377.339,-203.627 430.404,-264.553 488,-218 516.756,-194.758 495.862,-166.987 524,-143 526.007,-141.289 528.162,-139.733 530.424,-138.316"/>
<polygon fill="midnightblue" stroke="midnightblue" points="532.352,-141.258 539.587,-133.518 529.104,-135.057 532.352,-141.258"/>
</g>
<!-- Node24 -->
<g id="node24" class="node"><title>Node24</title>
<g id="a_node24"><a xlink:href="../../d0/da0/classGeomSvc.html#a2b7ecf5467120206b9479654c48ad7c4" target="_top" xlink:title="singlton instance ">
<polygon fill="none" stroke="black" points="357,-1024.5 357,-1043.5 457,-1043.5 457,-1024.5 357,-1024.5"/>
<text text-anchor="middle" x="407" y="-1031.5" font-family="FreeSans" font-size="10.00">GeomSvc::instance</text>
</a>
</g>
</g>
<!-- Node8&#45;&gt;Node24 -->
<g id="edge25" class="edge"><title>Node8&#45;&gt;Node24</title>
<path fill="none" stroke="midnightblue" d="M230.192,-746.65C231.533,-786.422 242.155,-939.095 326,-1015 332.094,-1020.52 339.495,-1024.51 347.305,-1027.39"/>
<polygon fill="midnightblue" stroke="midnightblue" points="346.388,-1030.77 356.976,-1030.38 348.455,-1024.09 346.388,-1030.77"/>
</g>
<!-- Node32 -->
<g id="node32" class="node"><title>Node32</title>
<g id="a_node32"><a xlink:href="../../d8/d14/classrecoConsts.html#a5502a14fdb8433de15c2e71351f281d6" target="_top" xlink:title="recoConsts::Print">
<polygon fill="none" stroke="black" points="362.5,-986.5 362.5,-1005.5 451.5,-1005.5 451.5,-986.5 362.5,-986.5"/>
<text text-anchor="middle" x="407" y="-993.5" font-family="FreeSans" font-size="10.00">recoConsts::Print</text>
</a>
</g>
</g>
<!-- Node8&#45;&gt;Node32 -->
<g id="edge36" class="edge"><title>Node8&#45;&gt;Node32</title>
<path fill="none" stroke="midnightblue" d="M230.773,-746.568C234.233,-782.806 251.58,-912.809 326,-977 333.461,-983.436 342.715,-987.782 352.252,-990.698"/>
<polygon fill="midnightblue" stroke="midnightblue" points="351.674,-994.163 362.229,-993.247 353.407,-987.381 351.674,-994.163"/>
</g>
<!-- Node33 -->
<g id="node33" class="node"><title>Node33</title>
<g id="a_node33"><a xlink:href="../../da/d29/classFun4AllServer.html#ae3fe7393e52376b515c60dd927670f2e" target="_top" xlink:title="Fun4AllServer::PrintTimer">
<polygon fill="none" stroke="black" points="343.5,-948.5 343.5,-967.5 470.5,-967.5 470.5,-948.5 343.5,-948.5"/>
<text text-anchor="middle" x="407" y="-955.5" font-family="FreeSans" font-size="10.00">Fun4AllServer::PrintTimer</text>
</a>
</g>
</g>
<!-- Node8&#45;&gt;Node33 -->
<g id="edge37" class="edge"><title>Node8&#45;&gt;Node33</title>
<path fill="none" stroke="midnightblue" d="M231.604,-746.844C237.498,-779.704 261.096,-886.497 326,-939 328.473,-941 331.121,-942.797 333.896,-944.409"/>
<polygon fill="midnightblue" stroke="midnightblue" points="332.61,-947.677 343.127,-948.957 335.704,-941.398 332.61,-947.677"/>
</g>
<!-- Node34 -->
<g id="node34" class="node"><title>Node34</title>
<g id="a_node34"><a xlink:href="../../dc/da8/classAnaModule.html#aae26c89fb67266a27325b364ba48cc38" target="_top" xlink:title="AnaModule::registerDetector">
<polygon fill="none" stroke="black" points="338,-910.5 338,-929.5 476,-929.5 476,-910.5 338,-910.5"/>
<text text-anchor="middle" x="407" y="-917.5" font-family="FreeSans" font-size="10.00">AnaModule::registerDetector</text>
</a>
</g>
</g>
<!-- Node8&#45;&gt;Node34 -->
<g id="edge38" class="edge"><title>Node8&#45;&gt;Node34</title>
<path fill="none" stroke="midnightblue" d="M232.669,-746.582C241.113,-775.029 270.048,-859.585 326,-901 328.501,-902.851 331.156,-904.525 333.921,-906.038"/>
<polygon fill="midnightblue" stroke="midnightblue" points="332.531,-909.252 343.07,-910.344 335.512,-902.918 332.531,-909.252"/>
</g>
<!-- Node36 -->
<g id="node36" class="node"><title>Node36</title>
<g id="a_node36"><a xlink:href="../../da/d29/classFun4AllServer.html#ab2cb490790d15b865ae79eb3094caabe" target="_top" xlink:title="Fun4AllServer::registerInput\lManager">
<polygon fill="none" stroke="black" points="339.5,-267 339.5,-297 474.5,-297 474.5,-267 339.5,-267"/>
<text text-anchor="start" x="347.5" y="-285" font-family="FreeSans" font-size="10.00">Fun4AllServer::registerInput</text>
<text text-anchor="middle" x="407" y="-274" font-family="FreeSans" font-size="10.00">Manager</text>
</a>
</g>
</g>
<!-- Node8&#45;&gt;Node36 -->
<g id="edge40" class="edge"><title>Node8&#45;&gt;Node36</title>
<path fill="none" stroke="midnightblue" d="M230.856,-727.359C236.151,-669.815 266.183,-372.015 326,-307 327.561,-305.303 329.235,-303.721 331.003,-302.245"/>
<polygon fill="midnightblue" stroke="midnightblue" points="333.11,-305.042 339.287,-296.434 329.09,-299.311 333.11,-305.042"/>
</g>
<!-- Node38 -->
<g id="node38" class="node"><title>Node38</title>
<g id="a_node38"><a xlink:href="../../da/d29/classFun4AllServer.html#a0a9947db0ede1e55622001eb7515f8c0" target="_top" xlink:title="Fun4AllServer::registerSubsystem">
<polygon fill="none" stroke="black" points="326.5,-76.5 326.5,-95.5 487.5,-95.5 487.5,-76.5 326.5,-76.5"/>
<text text-anchor="middle" x="407" y="-83.5" font-family="FreeSans" font-size="10.00">Fun4AllServer::registerSubsystem</text>
</a>
</g>
</g>
<!-- Node8&#45;&gt;Node38 -->
<g id="edge43" class="edge"><title>Node8&#45;&gt;Node38</title>
<path fill="none" stroke="midnightblue" d="M230.837,-727.451C236.733,-661.526 273.298,-273.471 326,-169 339.914,-141.418 366.134,-116.922 384.761,-101.818"/>
<polygon fill="midnightblue" stroke="midnightblue" points="387.018,-104.496 392.714,-95.5623 382.69,-98.9942 387.018,-104.496"/>
</g>
<!-- Node41 -->
<g id="node41" class="node"><title>Node41</title>
<g id="a_node41"><a xlink:href="../../da/d29/classFun4AllServer.html#a11bbc8b2f53bc06e0b05ee202dd6372a" target="_top" xlink:title="run n events (0 means up to end of file) ">
<polygon fill="none" stroke="black" points="359.5,-480.5 359.5,-499.5 454.5,-499.5 454.5,-480.5 359.5,-480.5"/>
<text text-anchor="middle" x="407" y="-487.5" font-family="FreeSans" font-size="10.00">Fun4AllServer::run</text>
</a>
</g>
</g>
<!-- Node8&#45;&gt;Node41 -->
<g id="edge48" class="edge"><title>Node8&#45;&gt;Node41</title>
<path fill="none" stroke="midnightblue" d="M236.899,-727.317C263.349,-690.197 358.528,-556.623 393.227,-507.925"/>
<polygon fill="midnightblue" stroke="midnightblue" points="396.196,-509.791 399.148,-499.616 390.495,-505.729 396.196,-509.791"/>
</g>
<!-- Node47 -->
<g id="node47" class="node"><title>Node47</title>
<g id="a_node47"><a xlink:href="../../d1/da8/classPHFlag.html#a64f8c67e9313e5cecdbed51f747026da" target="_top" xlink:title="PHFlag::set_DoubleFlag">
<polygon fill="none" stroke="black" points="347,-872.5 347,-891.5 467,-891.5 467,-872.5 347,-872.5"/>
<text text-anchor="middle" x="407" y="-879.5" font-family="FreeSans" font-size="10.00">PHFlag::set_DoubleFlag</text>
</a>
</g>
</g>
<!-- Node8&#45;&gt;Node47 -->
<g id="edge61" class="edge"><title>Node8&#45;&gt;Node47</title>
<path fill="none" stroke="midnightblue" d="M234.496,-746.588C246.076,-770.188 279.321,-831.389 326,-862 329.807,-864.496 333.902,-866.681 338.155,-868.593"/>
<polygon fill="midnightblue" stroke="midnightblue" points="337.082,-871.933 347.669,-872.358 339.658,-865.424 337.082,-871.933"/>
</g>
<!-- Node48 -->
<g id="node48" class="node"><title>Node48</title>
<g id="a_node48"><a xlink:href="../../dc/da8/classAnaModule.html#a815e50856d90a0bc816ad165bcf8d8f4" target="_top" xlink:title="AnaModule::set_output\l_filename">
<polygon fill="none" stroke="black" points="349.5,-823 349.5,-853 464.5,-853 464.5,-823 349.5,-823"/>
<text text-anchor="start" x="357.5" y="-841" font-family="FreeSans" font-size="10.00">AnaModule::set_output</text>
<text text-anchor="middle" x="407" y="-830" font-family="FreeSans" font-size="10.00">_filename</text>
</a>
</g>
</g>
<!-- Node8&#45;&gt;Node48 -->
<g id="edge62" class="edge"><title>Node8&#45;&gt;Node48</title>
<path fill="none" stroke="midnightblue" d="M239.504,-746.539C255.831,-762.434 290.857,-794.423 326,-813 330.468,-815.362 335.197,-817.543 340.033,-819.549"/>
<polygon fill="midnightblue" stroke="midnightblue" points="338.836,-822.839 349.425,-823.193 341.368,-816.313 338.836,-822.839"/>
</g>
<!-- Node49 -->
<g id="node49" class="node"><title>Node49</title>
<g id="a_node49"><a xlink:href="../../d0/da0/classGeomSvc.html#a5c51613529dae6339bb35eb99e81f758" target="_top" xlink:title="GeomSvc::UseDbSvc">
<polygon fill="none" stroke="black" points="352.5,-784.5 352.5,-803.5 461.5,-803.5 461.5,-784.5 352.5,-784.5"/>
<text text-anchor="middle" x="407" y="-791.5" font-family="FreeSans" font-size="10.00">GeomSvc::UseDbSvc</text>
</a>
</g>
</g>
<!-- Node8&#45;&gt;Node49 -->
<g id="edge63" class="edge"><title>Node8&#45;&gt;Node49</title>
<path fill="none" stroke="midnightblue" d="M244.082,-743.315C262.592,-751.444 296.251,-765.633 326,-775 334.025,-777.527 342.595,-779.897 351.034,-782.049"/>
<polygon fill="midnightblue" stroke="midnightblue" points="350.292,-785.471 360.84,-784.472 351.971,-778.676 350.292,-785.471"/>
</g>
<!-- Node50 -->
<g id="node50" class="node"><title>Node50</title>
<g id="a_node50"><a xlink:href="../../d5/dec/classFun4AllBase.html#a05da2261577843028cf78e99171343b9" target="_top" xlink:title="Sets the verbosity of this module (0 by default=quiet). ">
<polygon fill="none" stroke="black" points="349.5,-746.5 349.5,-765.5 464.5,-765.5 464.5,-746.5 349.5,-746.5"/>
<text text-anchor="middle" x="407" y="-753.5" font-family="FreeSans" font-size="10.00">Fun4AllBase::Verbosity</text>
</a>
</g>
</g>
<!-- Node8&#45;&gt;Node50 -->
<g id="edge64" class="edge"><title>Node8&#45;&gt;Node50</title>
<path fill="none" stroke="midnightblue" d="M244.105,-738.523C264.67,-740.743 304.237,-745.014 339.105,-748.778"/>
<polygon fill="midnightblue" stroke="midnightblue" points="338.953,-752.282 349.271,-749.876 339.704,-745.323 338.953,-752.282"/>
</g>
<!-- Node10 -->
<g id="node10" class="node"><title>Node10</title>
<g id="a_node10"><a xlink:href="../../d5/de9/E1039Shielding_2ana_8C.html#a4770f9752bd2f6c264c3a5f0e5f07bf3" target="_top" xlink:title="drawSnglAccPz">
<polygon fill="none" stroke="black" points="546.5,-670.5 546.5,-689.5 631.5,-689.5 631.5,-670.5 546.5,-670.5"/>
<text text-anchor="middle" x="589" y="-677.5" font-family="FreeSans" font-size="10.00">drawSnglAccPz</text>
</a>
</g>
</g>
<!-- Node9&#45;&gt;Node10 -->
<g id="edge9" class="edge"><title>Node9&#45;&gt;Node10</title>
<path fill="none" stroke="midnightblue" d="M423.037,-680C447.702,-680 497.866,-680 536.434,-680"/>
<polygon fill="midnightblue" stroke="midnightblue" points="536.47,-683.5 546.47,-680 536.469,-676.5 536.47,-683.5"/>
</g>
<!-- Node11 -->
<g id="node11" class="node"><title>Node11</title>
<g id="a_node11"><a xlink:href="../../d5/de9/E1039Shielding_2ana_8C.html#a68f99920be96fd675894490fd64e9a37" target="_top" xlink:title="getEffHist">
<polygon fill="none" stroke="red" points="736.5,-670.5 736.5,-689.5 793.5,-689.5 793.5,-670.5 736.5,-670.5"/>
<text text-anchor="middle" x="765" y="-677.5" font-family="FreeSans" font-size="10.00">getEffHist</text>
</a>
</g>
</g>
<!-- Node10&#45;&gt;Node11 -->
<g id="edge10" class="edge"><title>Node10&#45;&gt;Node11</title>
<path fill="none" stroke="midnightblue" d="M631.677,-680C660.473,-680 698.459,-680 726.343,-680"/>
<polygon fill="midnightblue" stroke="midnightblue" points="726.494,-683.5 736.494,-680 726.494,-676.5 726.494,-683.5"/>
</g>
<!-- Node12&#45;&gt;Node13 -->
<g id="edge12" class="edge"><title>Node12&#45;&gt;Node13</title>
<path fill="none" stroke="midnightblue" d="M424.415,-335.632C477.662,-366.881 642.799,-463.843 654,-471 685.288,-490.993 720.423,-515.674 742.382,-531.378"/>
<polygon fill="midnightblue" stroke="midnightblue" points="740.499,-534.335 750.663,-537.322 744.58,-528.648 740.499,-534.335"/>
</g>
<!-- Node15 -->
<g id="node15" class="node"><title>Node15</title>
<g id="a_node15"><a xlink:href="../../da/d29/classFun4AllServer.html#a53b1b6b338aa36891f2690a188920980" target="_top" xlink:title="Fun4AllServer::EndRun">
<polygon fill="none" stroke="black" points="531,-278.5 531,-297.5 647,-297.5 647,-278.5 531,-278.5"/>
<text text-anchor="middle" x="589" y="-285.5" font-family="FreeSans" font-size="10.00">Fun4AllServer::EndRun</text>
</a>
</g>
</g>
<!-- Node12&#45;&gt;Node15 -->
<g id="edge14" class="edge"><title>Node12&#45;&gt;Node15</title>
<path fill="none" stroke="midnightblue" d="M453.422,-316.411C477.603,-311.306 507.527,-304.989 533.014,-299.608"/>
<polygon fill="midnightblue" stroke="midnightblue" points="533.844,-303.01 542.905,-297.52 532.398,-296.161 533.844,-303.01"/>
</g>
<!-- Node16 -->
<g id="node16" class="node"><title>Node16</title>
<g id="a_node16"><a xlink:href="../../d1/da8/classPHFlag.html#a07899067141a5f12333cc37183caddc8" target="_top" xlink:title="PHFlag::get_IntFlag">
<polygon fill="none" stroke="black" points="538,-316.5 538,-335.5 640,-335.5 640,-316.5 538,-316.5"/>
<text text-anchor="middle" x="589" y="-323.5" font-family="FreeSans" font-size="10.00">PHFlag::get_IntFlag</text>
</a>
</g>
</g>
<!-- Node12&#45;&gt;Node16 -->
<g id="edge15" class="edge"><title>Node12&#45;&gt;Node16</title>
<path fill="none" stroke="midnightblue" d="M456.237,-326C478.189,-326 504.401,-326 527.644,-326"/>
<polygon fill="midnightblue" stroke="midnightblue" points="527.744,-329.5 537.744,-326 527.744,-322.5 527.744,-329.5"/>
</g>
<!-- Node17 -->
<g id="node17" class="node"><title>Node17</title>
<g id="a_node17"><a xlink:href="../../d5/d07/classPHNodeIterator.html#aea98bf8619af59b1212a94fb32106baa" target="_top" xlink:title="PHNodeIterator::findFirst">
<polygon fill="none" stroke="black" points="704,-300.5 704,-319.5 826,-319.5 826,-300.5 704,-300.5"/>
<text text-anchor="middle" x="765" y="-307.5" font-family="FreeSans" font-size="10.00">PHNodeIterator::findFirst</text>
</a>
</g>
</g>
<!-- Node12&#45;&gt;Node17 -->
<g id="edge16" class="edge"><title>Node12&#45;&gt;Node17</title>
<path fill="none" stroke="midnightblue" d="M456.207,-318.515C467.113,-315.6 478.321,-311.568 488,-306 507.888,-294.559 502.863,-277.925 524,-269 596.739,-238.285 691.106,-274.222 736.812,-295.897"/>
<polygon fill="midnightblue" stroke="midnightblue" points="735.537,-299.169 746.059,-300.406 738.605,-292.877 735.537,-299.169"/>
</g>
<!-- Node20 -->
<g id="node20" class="node"><title>Node20</title>
<g id="a_node20"><a xlink:href="../../da/d29/classFun4AllServer.html#a6f2074f451d0c0c1b4a802edde5ffb94" target="_top" xlink:title="Fun4AllServer::outfileclose">
<polygon fill="none" stroke="black" points="524,-202.5 524,-221.5 654,-221.5 654,-202.5 524,-202.5"/>
<text text-anchor="middle" x="589" y="-209.5" font-family="FreeSans" font-size="10.00">Fun4AllServer::outfileclose</text>
</a>
</g>
</g>
<!-- Node12&#45;&gt;Node20 -->
<g id="edge20" class="edge"><title>Node12&#45;&gt;Node20</title>
<path fill="none" stroke="midnightblue" d="M456.303,-320.84C467.568,-317.852 478.913,-313.205 488,-306 515.413,-284.265 497.867,-259.259 524,-236 528.486,-232.007 533.7,-228.655 539.178,-225.846"/>
<polygon fill="midnightblue" stroke="midnightblue" points="540.887,-228.915 548.565,-221.616 538.01,-222.534 540.887,-228.915"/>
</g>
<!-- Node14 -->
<g id="node14" class="node"><title>Node14</title>
<g id="a_node14"><a xlink:href="../../d8/d14/classrecoConsts.html#ae882d6adc62f783ec78114fe3dee3c24" target="_top" xlink:title="recoConsts::recoConsts">
<polygon fill="none" stroke="black" points="890.5,-537.5 890.5,-556.5 1007.5,-556.5 1007.5,-537.5 890.5,-537.5"/>
<text text-anchor="middle" x="949" y="-544.5" font-family="FreeSans" font-size="10.00">recoConsts::recoConsts</text>
</a>
</g>
</g>
<!-- Node13&#45;&gt;Node14 -->
<g id="edge13" class="edge"><title>Node13&#45;&gt;Node14</title>
<path fill="none" stroke="midnightblue" d="M817.667,-547C837.175,-547 859.669,-547 880.419,-547"/>
<polygon fill="midnightblue" stroke="midnightblue" points="880.445,-550.5 890.445,-547 880.445,-543.5 880.445,-550.5"/>
</g>
<!-- Node18 -->
<g id="node18" class="node"><title>Node18</title>
<g id="a_node18"><a xlink:href="../../dc/d82/classPHNode.html#a4ab1f90aed955a652813bfe377087bda" target="_top" xlink:title="PHNode::getType">
<polygon fill="none" stroke="black" points="903,-319.5 903,-338.5 995,-338.5 995,-319.5 903,-319.5"/>
<text text-anchor="middle" x="949" y="-326.5" font-family="FreeSans" font-size="10.00">PHNode::getType</text>
</a>
</g>
</g>
<!-- Node17&#45;&gt;Node18 -->
<g id="edge17" class="edge"><title>Node17&#45;&gt;Node18</title>
<path fill="none" stroke="midnightblue" d="M826.098,-316.274C847.631,-318.522 871.784,-321.043 892.875,-323.245"/>
<polygon fill="midnightblue" stroke="midnightblue" points="892.649,-326.741 902.958,-324.298 893.376,-319.778 892.649,-326.741"/>
</g>
<!-- Node19 -->
<g id="node19" class="node"><title>Node19</title>
<g id="a_node19"><a xlink:href="../../dc/d82/classPHNode.html#aca3576f926a4401eddc3d88bf0ce0de3" target="_top" xlink:title="PHNode::getName">
<polygon fill="none" stroke="black" points="901,-281.5 901,-300.5 997,-300.5 997,-281.5 901,-281.5"/>
<text text-anchor="middle" x="949" y="-288.5" font-family="FreeSans" font-size="10.00">PHNode::getName</text>
</a>
</g>
</g>
<!-- Node17&#45;&gt;Node19 -->
<g id="edge18" class="edge"><title>Node17&#45;&gt;Node19</title>
<path fill="none" stroke="midnightblue" d="M826.098,-303.726C846.913,-301.553 870.176,-299.124 890.756,-296.976"/>
<polygon fill="midnightblue" stroke="midnightblue" points="891.349,-300.433 900.932,-295.914 890.622,-293.471 891.349,-300.433"/>
</g>
<!-- Node17&#45;&gt;Node17 -->
<g id="edge19" class="edge"><title>Node17&#45;&gt;Node17</title>
<path fill="none" stroke="midnightblue" d="M737.873,-319.757C724.677,-328.565 733.719,-338 765,-338 786.506,-338 797.5,-333.541 797.983,-327.891"/>
<polygon fill="midnightblue" stroke="midnightblue" points="800.81,-325.827 792.127,-319.757 795.129,-329.917 800.81,-325.827"/>
</g>
<!-- Node21 -->
<g id="node21" class="node"><title>Node21</title>
<g id="a_node21"><a xlink:href="../../d5/dec/classFun4AllBase.html#a41f9ac377743d046f590617fd6f4f0ed" target="_top" xlink:title="Returns the name of this module. ">
<polygon fill="none" stroke="black" points="714.5,-180.5 714.5,-199.5 815.5,-199.5 815.5,-180.5 714.5,-180.5"/>
<text text-anchor="middle" x="765" y="-187.5" font-family="FreeSans" font-size="10.00">Fun4AllBase::Name</text>
</a>
</g>
</g>
<!-- Node20&#45;&gt;Node21 -->
<g id="edge21" class="edge"><title>Node20&#45;&gt;Node21</title>
<path fill="none" stroke="midnightblue" d="M654.297,-203.871C670.577,-201.812 687.997,-199.61 704.052,-197.58"/>
<polygon fill="midnightblue" stroke="midnightblue" points="704.898,-201.001 714.38,-196.274 704.02,-194.056 704.898,-201.001"/>
</g>
<!-- Node25 -->
<g id="node25" class="node"><title>Node25</title>
<g id="a_node25"><a xlink:href="../../d0/da0/classGeomSvc.html#a96ec4efc82cbaed0b5623e4dd69385b6" target="_top" xlink:title="Initialization, either from MySQL or from ascii file. ">
<polygon fill="none" stroke="red" points="550.5,-986.5 550.5,-1005.5 627.5,-1005.5 627.5,-986.5 550.5,-986.5"/>
<text text-anchor="middle" x="589" y="-993.5" font-family="FreeSans" font-size="10.00">GeomSvc::init</text>
</a>
</g>
</g>
<!-- Node24&#45;&gt;Node25 -->
<g id="edge26" class="edge"><title>Node24&#45;&gt;Node25</title>
<path fill="none" stroke="midnightblue" d="M453.422,-1024.41C480.018,-1018.8 513.564,-1011.71 540.509,-1006.03"/>
<polygon fill="midnightblue" stroke="midnightblue" points="541.424,-1009.41 550.485,-1003.92 539.978,-1002.56 541.424,-1009.41"/>
</g>
<!-- Node26 -->
<g id="node26" class="node"><title>Node26</title>
<g id="a_node26"><a xlink:href="../../d0/da0/classGeomSvc.html#adbe1473f9b3a8ff942da8d7d8ee28322" target="_top" xlink:title="GeomSvc::initPlaneDbSvc">
<polygon fill="none" stroke="red" points="700,-790.5 700,-809.5 830,-809.5 830,-790.5 700,-790.5"/>
<text text-anchor="middle" x="765" y="-797.5" font-family="FreeSans" font-size="10.00">GeomSvc::initPlaneDbSvc</text>
</a>
</g>
</g>
<!-- Node25&#45;&gt;Node26 -->
<g id="edge27" class="edge"><title>Node25&#45;&gt;Node26</title>
<path fill="none" stroke="midnightblue" d="M601.884,-986.48C615.172,-975.599 637.05,-956.965 654,-939 692.517,-898.175 731.984,-844.969 751.498,-817.745"/>
<polygon fill="midnightblue" stroke="midnightblue" points="754.374,-819.74 757.32,-809.564 748.67,-815.681 754.374,-819.74"/>
</g>
<!-- Node27 -->
<g id="node27" class="node"><title>Node27</title>
<g id="a_node27"><a xlink:href="../../d0/da0/classGeomSvc.html#a0d550b9f787318d57cdae9db2d04d6fb" target="_top" xlink:title="GeomSvc::initPlaneDirect">
<polygon fill="none" stroke="red" points="701.5,-948.5 701.5,-967.5 828.5,-967.5 828.5,-948.5 701.5,-948.5"/>
<text text-anchor="middle" x="765" y="-955.5" font-family="FreeSans" font-size="10.00">GeomSvc::initPlaneDirect</text>
</a>
</g>
</g>
<!-- Node25&#45;&gt;Node27 -->
<g id="edge29" class="edge"><title>Node25&#45;&gt;Node27</title>
<path fill="none" stroke="midnightblue" d="M627.755,-987.755C651.951,-982.47 683.723,-975.532 710.499,-969.684"/>
<polygon fill="midnightblue" stroke="midnightblue" points="711.468,-973.055 720.491,-967.502 709.974,-966.216 711.468,-973.055"/>
</g>
<!-- Node28 -->
<g id="node28" class="node"><title>Node28</title>
<g id="a_node28"><a xlink:href="../../d8/d62/classJobOptsSvc.html#aeb0d694dc08274aa90b0d6b1ee8384cb" target="_top" xlink:title="singlton instance ">
<polygon fill="none" stroke="red" points="894,-976.5 894,-995.5 1004,-995.5 1004,-976.5 894,-976.5"/>
<text text-anchor="middle" x="949" y="-983.5" font-family="FreeSans" font-size="10.00">JobOptsSvc::instance</text>
</a>
</g>
</g>
<!-- Node25&#45;&gt;Node28 -->
<g id="edge32" class="edge"><title>Node25&#45;&gt;Node28</title>
<path fill="none" stroke="midnightblue" d="M627.636,-994.949C688.417,-993.251 808.904,-989.885 883.553,-987.8"/>
<polygon fill="midnightblue" stroke="midnightblue" points="883.873,-991.293 893.771,-987.515 883.677,-984.295 883.873,-991.293"/>
</g>
<!-- Node30 -->
<g id="node30" class="node"><title>Node30</title>
<g id="a_node30"><a xlink:href="../../d0/da0/classGeomSvc.html#ab6c810e39b86ce66a4be6a596b4d54b8" target="_top" xlink:title="GeomSvc::loadAlignment">
<polygon fill="none" stroke="black" points="702.5,-1062.5 702.5,-1081.5 827.5,-1081.5 827.5,-1062.5 702.5,-1062.5"/>
<text text-anchor="middle" x="765" y="-1069.5" font-family="FreeSans" font-size="10.00">GeomSvc::loadAlignment</text>
</a>
</g>
</g>
<!-- Node25&#45;&gt;Node30 -->
<g id="edge33" class="edge"><title>Node25&#45;&gt;Node30</title>
<path fill="none" stroke="midnightblue" d="M603.963,-1005.57C622.757,-1018.06 657.585,-1039.88 690,-1053 695.971,-1055.42 702.339,-1057.6 708.739,-1059.55"/>
<polygon fill="midnightblue" stroke="midnightblue" points="708.193,-1063.04 718.77,-1062.43 710.123,-1056.31 708.193,-1063.04"/>
</g>
<!-- Node29 -->
<g id="node29" class="node"><title>Node29</title>
<g id="a_node29"><a xlink:href="../../d0/da0/classGeomSvc.html#a418543d7b33fc95092b2cd4a7496f1b8" target="_top" xlink:title="GeomSvc::loadMilleAlignment">
<polygon fill="none" stroke="black" points="876,-919.5 876,-938.5 1022,-938.5 1022,-919.5 876,-919.5"/>
<text text-anchor="middle" x="949" y="-926.5" font-family="FreeSans" font-size="10.00">GeomSvc::loadMilleAlignment</text>
</a>
</g>
</g>
<!-- Node25&#45;&gt;Node29 -->
<g id="edge34" class="edge"><title>Node25&#45;&gt;Node29</title>
<path fill="none" stroke="midnightblue" d="M602.364,-986.3C620.42,-972.781 655.607,-948.83 690,-939 747.174,-922.658 814.372,-920.567 865.853,-922.346"/>
<polygon fill="midnightblue" stroke="midnightblue" points="865.8,-925.847 875.932,-922.751 866.081,-918.853 865.8,-925.847"/>
</g>
<!-- Node31 -->
<g id="node31" class="node"><title>Node31</title>
<g id="a_node31"><a xlink:href="../../d0/da0/classGeomSvc.html#abc60088ed5985a796f5df18ae4299661" target="_top" xlink:title="GeomSvc::loadCalibration">
<polygon fill="none" stroke="red" points="701,-1024.5 701,-1043.5 829,-1043.5 829,-1024.5 701,-1024.5"/>
<text text-anchor="middle" x="765" y="-1031.5" font-family="FreeSans" font-size="10.00">GeomSvc::loadCalibration</text>
</a>
</g>
</g>
<!-- Node25&#45;&gt;Node31 -->
<g id="edge35" class="edge"><title>Node25&#45;&gt;Node31</title>
<path fill="none" stroke="midnightblue" d="M627.755,-1004.25C651.951,-1009.53 683.723,-1016.47 710.499,-1022.32"/>
<polygon fill="midnightblue" stroke="midnightblue" points="709.974,-1025.78 720.491,-1024.5 711.468,-1018.94 709.974,-1025.78"/>
</g>
<!-- Node26&#45;&gt;Node8 -->
<g id="edge28" class="edge"><title>Node26&#45;&gt;Node8</title>
<path fill="none" stroke="midnightblue" d="M732.936,-790.5C682.254,-775.548 578.354,-747.181 488,-737 402.471,-727.363 299.979,-732.193 254.177,-735.202"/>
<polygon fill="midnightblue" stroke="midnightblue" points="253.781,-731.721 244.045,-735.9 254.262,-738.704 253.781,-731.721"/>
</g>
<!-- Node27&#45;&gt;Node28 -->
<g id="edge30" class="edge"><title>Node27&#45;&gt;Node28</title>
<path fill="none" stroke="midnightblue" d="M827.871,-967.519C845.956,-970.301 865.758,-973.347 883.974,-976.15"/>
<polygon fill="midnightblue" stroke="midnightblue" points="883.494,-979.617 893.91,-977.678 884.558,-972.698 883.494,-979.617"/>
</g>
<!-- Node27&#45;&gt;Node29 -->
<g id="edge31" class="edge"><title>Node27&#45;&gt;Node29</title>
<path fill="none" stroke="midnightblue" d="M825.846,-948.464C842.561,-945.801 860.871,-942.883 878.111,-940.136"/>
<polygon fill="midnightblue" stroke="midnightblue" points="878.794,-943.572 888.118,-938.542 877.692,-936.659 878.794,-943.572"/>
</g>
<!-- Node35 -->
<g id="node35" class="node"><title>Node35</title>
<g id="a_node35"><a xlink:href="../../d0/da0/classGeomSvc.html#a3e4f40789e9b2a98477ab8e8191d5ff2" target="_top" xlink:title="Get the plane position. ">
<polygon fill="none" stroke="black" points="527,-910.5 527,-929.5 651,-929.5 651,-910.5 527,-910.5"/>
<text text-anchor="middle" x="589" y="-917.5" font-family="FreeSans" font-size="10.00">GeomSvc::getDetectorID</text>
</a>
</g>
</g>
<!-- Node34&#45;&gt;Node35 -->
<g id="edge39" class="edge"><title>Node34&#45;&gt;Node35</title>
<path fill="none" stroke="midnightblue" d="M476.05,-920C489.378,-920 503.39,-920 516.818,-920"/>
<polygon fill="midnightblue" stroke="midnightblue" points="516.95,-923.5 526.95,-920 516.95,-916.5 516.95,-923.5"/>
</g>
<!-- Node37 -->
<g id="node37" class="node"><title>Node37</title>
<g id="a_node37"><a xlink:href="../../dd/ded/classFun4AllSyncManager.html#a2a284bc4ed777ec7f39d6e5c7090067c" target="_top" xlink:title="Fun4AllSyncManager\l::registerInputManager">
<polygon fill="none" stroke="red" points="533,-153 533,-183 645,-183 645,-153 533,-153"/>
<text text-anchor="start" x="541" y="-171" font-family="FreeSans" font-size="10.00">Fun4AllSyncManager</text>
<text text-anchor="middle" x="589" y="-160" font-family="FreeSans" font-size="10.00">::registerInputManager</text>
</a>
</g>
</g>
<!-- Node36&#45;&gt;Node37 -->
<g id="edge41" class="edge"><title>Node36&#45;&gt;Node37</title>
<path fill="none" stroke="midnightblue" d="M463.153,-266.895C472.025,-262.949 480.683,-258.049 488,-252 511.675,-232.427 500.459,-212.734 524,-193 526,-191.324 528.125,-189.751 530.34,-188.277"/>
<polygon fill="midnightblue" stroke="midnightblue" points="532.383,-191.137 539.25,-183.068 528.85,-185.094 532.383,-191.137"/>
</g>
<!-- Node37&#45;&gt;Node21 -->
<g id="edge42" class="edge"><title>Node37&#45;&gt;Node21</title>
<path fill="none" stroke="midnightblue" d="M645.055,-174.961C663.875,-177.341 685.011,-180.013 704.188,-182.438"/>
<polygon fill="midnightblue" stroke="midnightblue" points="703.953,-185.936 714.313,-183.718 704.831,-178.991 703.953,-185.936"/>
</g>
<!-- Node38&#45;&gt;Node23 -->
<g id="edge44" class="edge"><title>Node38&#45;&gt;Node23</title>
<path fill="none" stroke="midnightblue" d="M453.422,-95.589C477.603,-100.694 507.527,-107.011 533.014,-112.392"/>
<polygon fill="midnightblue" stroke="midnightblue" points="532.398,-115.839 542.905,-114.48 533.844,-108.99 532.398,-115.839"/>
</g>
<!-- Node38&#45;&gt;Node21 -->
<g id="edge45" class="edge"><title>Node38&#45;&gt;Node21</title>
<path fill="none" stroke="midnightblue" d="M433.079,-76.4869C479.136,-60.6137 579.314,-33.5964 654,-67 701.956,-88.4486 737.651,-142.283 754.044,-171.1"/>
<polygon fill="midnightblue" stroke="midnightblue" points="751.139,-173.08 759.025,-180.155 757.272,-169.706 751.139,-173.08"/>
</g>
<!-- Node39 -->
<g id="node39" class="node"><title>Node39</title>
<g id="a_node39"><a xlink:href="../../da/d29/classFun4AllServer.html#abcaf6825367e5db292ff795237bdcf62" target="_top" xlink:title="Fun4AllServer::topNode">
<polygon fill="none" stroke="black" points="530,-0.5 530,-19.5 648,-19.5 648,-0.5 530,-0.5"/>
<text text-anchor="middle" x="589" y="-7.5" font-family="FreeSans" font-size="10.00">Fun4AllServer::topNode</text>
</a>
</g>
</g>
<!-- Node38&#45;&gt;Node39 -->
<g id="edge46" class="edge"><title>Node38&#45;&gt;Node39</title>
<path fill="none" stroke="midnightblue" d="M428.367,-76.4037C451.401,-65.6603 490.116,-47.9317 524,-34 532.946,-30.3215 542.685,-26.5522 551.803,-23.123"/>
<polygon fill="midnightblue" stroke="midnightblue" points="553.236,-26.3241 561.387,-19.5557 550.795,-19.7637 553.236,-26.3241"/>
</g>
<!-- Node40 -->
<g id="node40" class="node"><title>Node40</title>
<g id="a_node40"><a xlink:href="../../d0/d32/classSubsysReco.html#a6670c0a093dd2c2bdd44f8fc6f9ba8e8" target="_top" xlink:title="SubsysReco::Init">
<polygon fill="none" stroke="black" points="545,-76.5 545,-95.5 633,-95.5 633,-76.5 545,-76.5"/>
<text text-anchor="middle" x="589" y="-83.5" font-family="FreeSans" font-size="10.00">SubsysReco::Init</text>
</a>
</g>
</g>
<!-- Node38&#45;&gt;Node40 -->
<g id="edge47" class="edge"><title>Node38&#45;&gt;Node40</title>
<path fill="none" stroke="midnightblue" d="M487.737,-86C503.476,-86 519.64,-86 534.268,-86"/>
<polygon fill="midnightblue" stroke="midnightblue" points="534.621,-89.5001 544.621,-86 534.621,-82.5001 534.621,-89.5001"/>
</g>
<!-- Node41&#45;&gt;Node13 -->
<g id="edge49" class="edge"><title>Node41&#45;&gt;Node13</title>
<path fill="none" stroke="midnightblue" d="M422.199,-499.671C443.292,-513.391 484.659,-537.856 524,-547 583.298,-560.782 653.086,-558.832 702.074,-554.619"/>
<polygon fill="midnightblue" stroke="midnightblue" points="702.562,-558.089 712.201,-553.69 701.923,-551.118 702.562,-558.089"/>
</g>
<!-- Node42 -->
<g id="node42" class="node"><title>Node42</title>
<g id="a_node42"><a xlink:href="../../d1/da8/classPHFlag.html#a4b73a422f0076568904d71f40e849da5" target="_top" xlink:title="PHFlag::FlagExist">
<polygon fill="none" stroke="black" points="543,-480.5 543,-499.5 635,-499.5 635,-480.5 543,-480.5"/>
<text text-anchor="middle" x="589" y="-487.5" font-family="FreeSans" font-size="10.00">PHFlag::FlagExist</text>
</a>
</g>
</g>
<!-- Node41&#45;&gt;Node42 -->
<g id="edge50" class="edge"><title>Node41&#45;&gt;Node42</title>
<path fill="none" stroke="midnightblue" d="M454.823,-490C478.718,-490 507.935,-490 532.908,-490"/>
<polygon fill="midnightblue" stroke="midnightblue" points="532.964,-493.5 542.964,-490 532.964,-486.5 532.964,-493.5"/>
</g>
<!-- Node41&#45;&gt;Node16 -->
<g id="edge51" class="edge"><title>Node41&#45;&gt;Node16</title>
<path fill="none" stroke="midnightblue" d="M413.038,-480.192C426.962,-454.067 468.636,-382.256 524,-345 527.065,-342.937 530.359,-341.094 533.778,-339.447"/>
<polygon fill="midnightblue" stroke="midnightblue" points="535.196,-342.647 543.045,-335.531 532.471,-336.199 535.196,-342.647"/>
</g>
<!-- Node43 -->
<g id="node43" class="node"><title>Node43</title>
<g id="a_node43"><a xlink:href="../../da/d29/classFun4AllServer.html#ab2479a9a3e45d51118e308597acd5228" target="_top" xlink:title="Fun4AllServer::ResetNodeTree">
<polygon fill="none" stroke="red" points="690.5,-401.5 690.5,-420.5 839.5,-420.5 839.5,-401.5 690.5,-401.5"/>
<text text-anchor="middle" x="765" y="-408.5" font-family="FreeSans" font-size="10.00">Fun4AllServer::ResetNodeTree</text>
</a>
</g>
</g>
<!-- Node41&#45;&gt;Node43 -->
<g id="edge52" class="edge"><title>Node41&#45;&gt;Node43</title>
<path fill="none" stroke="midnightblue" d="M450.942,-480.471C516.247,-465.979 640.392,-438.43 711.145,-422.729"/>
<polygon fill="midnightblue" stroke="midnightblue" points="712.179,-426.085 721.183,-420.501 710.662,-419.251 712.179,-426.085"/>
</g>
<!-- Node44 -->
<g id="node44" class="node"><title>Node44</title>
<g id="a_node44"><a xlink:href="../../da/d29/classFun4AllServer.html#af1002b9170308da078c0e14a5ac4b514" target="_top" xlink:title="Fun4AllServer::setRun">
<polygon fill="none" stroke="red" points="533,-518.5 533,-537.5 645,-537.5 645,-518.5 533,-518.5"/>
<text text-anchor="middle" x="589" y="-525.5" font-family="FreeSans" font-size="10.00">Fun4AllServer::setRun</text>
</a>
</g>
</g>
<!-- Node41&#45;&gt;Node44 -->
<g id="edge53" class="edge"><title>Node41&#45;&gt;Node44</title>
<path fill="none" stroke="midnightblue" d="M453.422,-499.589C477.603,-504.694 507.527,-511.011 533.014,-516.392"/>
<polygon fill="midnightblue" stroke="midnightblue" points="532.398,-519.839 542.905,-518.48 533.844,-512.99 532.398,-519.839"/>
</g>
<!-- Node45 -->
<g id="node45" class="node"><title>Node45</title>
<g id="a_node45"><a xlink:href="../../da/d29/classFun4AllServer.html#afcfc5583204cac58b4e66a2406187a18" target="_top" xlink:title="Fun4AllServer::BeginRun">
<polygon fill="none" stroke="red" points="527,-594.5 527,-613.5 651,-613.5 651,-594.5 527,-594.5"/>
<text text-anchor="middle" x="589" y="-601.5" font-family="FreeSans" font-size="10.00">Fun4AllServer::BeginRun</text>
</a>
</g>
</g>
<!-- Node41&#45;&gt;Node45 -->
<g id="edge55" class="edge"><title>Node41&#45;&gt;Node45</title>
<path fill="none" stroke="midnightblue" d="M418.113,-499.588C437.386,-517.444 481.272,-556.138 524,-580 531.292,-584.072 539.412,-587.719 547.354,-590.867"/>
<polygon fill="midnightblue" stroke="midnightblue" points="546.292,-594.208 556.884,-594.455 548.758,-587.656 546.292,-594.208"/>
</g>
<!-- Node41&#45;&gt;Node15 -->
<g id="edge56" class="edge"><title>Node41&#45;&gt;Node15</title>
<path fill="none" stroke="midnightblue" d="M412.989,-480.266C430.731,-445.987 491.44,-331.609 524,-307 526.508,-305.104 529.203,-303.397 532.018,-301.86"/>
<polygon fill="midnightblue" stroke="midnightblue" points="533.754,-304.912 541.329,-297.504 530.788,-298.571 533.754,-304.912"/>
</g>
<!-- Node46 -->
<g id="node46" class="node"><title>Node46</title>
<g id="a_node46"><a xlink:href="../../da/d29/classFun4AllServer.html#a6a65a944dfb40966ace97d35ab1f7942" target="_top" xlink:title="Fun4AllServer::process\l_event">
<polygon fill="none" stroke="red" points="531.5,-355 531.5,-385 646.5,-385 646.5,-355 531.5,-355"/>
<text text-anchor="start" x="539.5" y="-373" font-family="FreeSans" font-size="10.00">Fun4AllServer::process</text>
<text text-anchor="middle" x="589" y="-362" font-family="FreeSans" font-size="10.00">_event</text>
</a>
</g>
</g>
<!-- Node41&#45;&gt;Node46 -->
<g id="edge57" class="edge"><title>Node41&#45;&gt;Node46</title>
<path fill="none" stroke="midnightblue" d="M422.426,-480.383C451.51,-460.993 517.756,-416.829 557.069,-390.62"/>
<polygon fill="midnightblue" stroke="midnightblue" points="559.12,-393.46 565.499,-385 555.237,-387.635 559.12,-393.46"/>
</g>
<!-- Node44&#45;&gt;Node13 -->
<g id="edge54" class="edge"><title>Node44&#45;&gt;Node13</title>
<path fill="none" stroke="midnightblue" d="M645.055,-534.012C663.2,-535.993 683.499,-538.21 702.118,-540.243"/>
<polygon fill="midnightblue" stroke="midnightblue" points="701.945,-543.745 712.265,-541.351 702.704,-536.786 701.945,-543.745"/>
</g>
<!-- Node46&#45;&gt;Node17 -->
<g id="edge58" class="edge"><title>Node46&#45;&gt;Node17</title>
<path fill="none" stroke="midnightblue" d="M633.908,-354.859C662.6,-344.965 699.659,-332.187 726.879,-322.8"/>
<polygon fill="midnightblue" stroke="midnightblue" points="728.116,-326.076 736.429,-319.507 725.834,-319.458 728.116,-326.076"/>
</g>
<!-- Node46&#45;&gt;Node21 -->
<g id="edge59" class="edge"><title>Node46&#45;&gt;Node21</title>
<path fill="none" stroke="midnightblue" d="M638.274,-354.918C643.869,-352.101 649.26,-348.814 654,-345 676.472,-326.917 673.472,-314.64 690,-291 710.63,-261.492 735.542,-227.888 750.559,-207.84"/>
<polygon fill="midnightblue" stroke="midnightblue" points="753.506,-209.745 756.712,-199.646 747.908,-205.542 753.506,-209.745"/>
</g>
<!-- Node46&#45;&gt;Node43 -->
<g id="edge60" class="edge"><title>Node46&#45;&gt;Node43</title>
<path fill="none" stroke="midnightblue" d="M646.974,-383.425C668.438,-388.483 692.682,-394.195 713.513,-399.104"/>
<polygon fill="midnightblue" stroke="midnightblue" points="712.902,-402.555 723.438,-401.442 714.507,-395.742 712.902,-402.555"/>
</g>
</g>
</svg>
