<?xml version="1.0" encoding="UTF-8" standalone="no"?>
<!DOCTYPE svg PUBLIC "-//W3C//DTD SVG 1.1//EN"
 "http://www.w3.org/Graphics/SVG/1.1/DTD/svg11.dtd">
<!-- Generated by graphviz version 2.44.0 (0)
 -->
<!-- Title: PHG4GDMLWriteSolids::RZPointWrite Pages: 1 -->
<svg width="341pt" height="66pt"
 viewBox="0.00 0.00 341.00 66.00" xmlns="http://www.w3.org/2000/svg" xmlns:xlink="http://www.w3.org/1999/xlink">
<g id="graph0" class="graph" transform="scale(1 1) rotate(0) translate(4 62)">
<title>PHG4GDMLWriteSolids::RZPointWrite</title>
<!-- Node1 -->
<g id="node1" class="node">
<title>Node1</title>
<g id="a_node1"><a xlink:title=" ">
<polygon fill="#bfbfbf" stroke="black" points="0,-14 0,-44 128,-44 128,-14 0,-14"/>
<text text-anchor="start" x="8" y="-32" font-family="FreeSans" font-size="10.00">PHG4GDMLWriteSolids</text>
<text text-anchor="middle" x="64" y="-21" font-family="FreeSans" font-size="10.00">::RZPointWrite</text>
</a>
</g>
</g>
<!-- Node2 -->
<g id="node2" class="node">
<title>Node2</title>
<g id="a_node2"><a xlink:href="../../dd/db5/classPHG4GDMLWrite.html#afe96dc9fdc7c1a0a1a96b59dc15dffa2" target="_top" xlink:title=" ">
<polygon fill="none" stroke="black" points="164,-38.5 164,-57.5 333,-57.5 333,-38.5 164,-38.5"/>
<text text-anchor="middle" x="248.5" y="-45.5" font-family="FreeSans" font-size="10.00">PHG4GDMLWrite::NewAttribute</text>
</a>
</g>
</g>
<!-- Node1&#45;&gt;Node2 -->
<g id="edge1" class="edge">
<title>Node1&#45;&gt;Node2</title>
<path fill="none" stroke="midnightblue" d="M128.06,-35.57C136.36,-36.43 144.99,-37.33 153.66,-38.23"/>
<polygon fill="midnightblue" stroke="midnightblue" points="153.53,-41.74 163.84,-39.29 154.25,-34.77 153.53,-41.74"/>
</g>
<!-- Node3 -->
<g id="node3" class="node">
<title>Node3</title>
<g id="a_node3"><a xlink:href="../../dd/db5/classPHG4GDMLWrite.html#ada0a5579d406ec27f3150711ab83becc" target="_top" xlink:title=" ">
<polygon fill="none" stroke="black" points="165,-0.5 165,-19.5 332,-19.5 332,-0.5 165,-0.5"/>
<text text-anchor="middle" x="248.5" y="-7.5" font-family="FreeSans" font-size="10.00">PHG4GDMLWrite::NewElement</text>
</a>
</g>
</g>
<!-- Node1&#45;&gt;Node3 -->
<g id="edge2" class="edge">
<title>Node1&#45;&gt;Node3</title>
<path fill="none" stroke="midnightblue" d="M128.06,-22.43C136.67,-21.54 145.65,-20.6 154.65,-19.67"/>
<polygon fill="midnightblue" stroke="midnightblue" points="155.22,-23.13 164.8,-18.61 154.49,-16.16 155.22,-23.13"/>
</g>
</g>
</svg>
