<?xml version="1.0" encoding="UTF-8" standalone="no"?>
<!DOCTYPE svg PUBLIC "-//W3C//DTD SVG 1.1//EN"
 "http://www.w3.org/Graphics/SVG/1.1/DTD/svg11.dtd">
<!-- Generated by graphviz version 2.40.1 (20161225.0304)
 -->
<!-- Title: Fun4AllServer::CountOutNodes Pages: 1 -->
<svg width="1778pt" height="810pt"
 viewBox="0.00 0.00 1778.00 809.53" xmlns="http://www.w3.org/2000/svg" xmlns:xlink="http://www.w3.org/1999/xlink">
<g id="graph0" class="graph" transform="scale(1 1) rotate(0) translate(4 805.5258)">
<title>Fun4AllServer::CountOutNodes</title>
<!-- Node175 -->
<g id="node1" class="node">
<title>Node175</title>
<polygon fill="#bfbfbf" stroke="#000000" points="0,-281.5258 0,-300.5258 150,-300.5258 150,-281.5258 0,-281.5258"/>
<text text-anchor="middle" x="75" y="-288.5258" font-family="FreeSans" font-size="10.00" fill="#000000">Fun4AllServer::CountOutNodes</text>
</g>
<!-- Node176 -->
<g id="node2" class="node">
<title>Node176</title>
<g id="a_node2"><a xlink:href="../../da/d29/classFun4AllServer.html#ad140d3adf05e96b8d1de3791abc8efce" target="_top" xlink:title="Fun4AllServer::KeepDBConnection">
<polygon fill="none" stroke="#000000" points="186,-303.5258 186,-322.5258 353,-322.5258 353,-303.5258 186,-303.5258"/>
<text text-anchor="middle" x="269.5" y="-310.5258" font-family="FreeSans" font-size="10.00" fill="#000000">Fun4AllServer::KeepDBConnection</text>
</a>
</g>
</g>
<!-- Node175&#45;&gt;Node176 -->
<g id="edge1" class="edge">
<title>Node175&#45;&gt;Node176</title>
<path fill="none" stroke="#191970" d="M160.3977,-300.6852C168.8221,-301.6381 177.3669,-302.6046 185.7743,-303.5555"/>
<polygon fill="#191970" stroke="#191970" points="160.5288,-297.1778 150.1988,-299.5316 159.742,-304.1334 160.5288,-297.1778"/>
</g>
<!-- Node177 -->
<g id="node3" class="node">
<title>Node177</title>
<g id="a_node3"><a xlink:href="../../da/d29/classFun4AllServer.html#a6a65a944dfb40966ace97d35ab1f7942" target="_top" xlink:title="Fun4AllServer::process\l_event">
<polygon fill="none" stroke="#000000" points="212,-254.0258 212,-284.0258 327,-284.0258 327,-254.0258 212,-254.0258"/>
<text text-anchor="start" x="220" y="-272.0258" font-family="FreeSans" font-size="10.00" fill="#000000">Fun4AllServer::process</text>
<text text-anchor="middle" x="269.5" y="-261.0258" font-family="FreeSans" font-size="10.00" fill="#000000">_event</text>
</a>
</g>
</g>
<!-- Node175&#45;&gt;Node177 -->
<g id="edge2" class="edge">
<title>Node175&#45;&gt;Node177</title>
<path fill="none" stroke="#191970" d="M160.3951,-281.3667C177.8435,-279.3931 195.8087,-277.361 211.9987,-275.5298"/>
<polygon fill="#191970" stroke="#191970" points="159.742,-277.9182 150.1988,-282.52 160.5288,-284.8738 159.742,-277.9182"/>
</g>
<!-- Node178 -->
<g id="node4" class="node">
<title>Node178</title>
<g id="a_node4"><a xlink:href="../../da/d29/classFun4AllServer.html#a94738b092fa009fcea45737d8ea41224" target="_top" xlink:title="Fun4AllServer::process\l_event">
<polygon fill="none" stroke="#000000" points="389,-317.0258 389,-347.0258 504,-347.0258 504,-317.0258 389,-317.0258"/>
<text text-anchor="start" x="397" y="-335.0258" font-family="FreeSans" font-size="10.00" fill="#000000">Fun4AllServer::process</text>
<text text-anchor="middle" x="446.5" y="-324.0258" font-family="FreeSans" font-size="10.00" fill="#000000">_event</text>
</a>
</g>
</g>
<!-- Node177&#45;&gt;Node178 -->
<g id="edge3" class="edge">
<title>Node177&#45;&gt;Node178</title>
<path fill="none" stroke="#191970" d="M332.7667,-287.2732C339.6255,-289.4577 346.4787,-291.7302 353,-294.0258 372.6682,-300.9493 394.2546,-309.6471 411.7259,-316.9737"/>
<polygon fill="#191970" stroke="#191970" points="333.3404,-283.7856 322.7516,-284.1432 331.2522,-290.4669 333.3404,-283.7856"/>
</g>
<!-- Node179 -->
<g id="node5" class="node">
<title>Node179</title>
<g id="a_node5"><a xlink:href="../../da/d29/classFun4AllServer.html#a11bbc8b2f53bc06e0b05ee202dd6372a" target="_top" xlink:title="run n events (0 means up to end of file) ">
<polygon fill="none" stroke="#000000" points="399,-240.5258 399,-259.5258 494,-259.5258 494,-240.5258 399,-240.5258"/>
<text text-anchor="middle" x="446.5" y="-247.5258" font-family="FreeSans" font-size="10.00" fill="#000000">Fun4AllServer::run</text>
</a>
</g>
</g>
<!-- Node177&#45;&gt;Node179 -->
<g id="edge4" class="edge">
<title>Node177&#45;&gt;Node179</title>
<path fill="none" stroke="#191970" d="M337.6429,-261.711C358.0428,-259.5212 379.9684,-257.1676 398.7579,-255.1506"/>
<polygon fill="#191970" stroke="#191970" points="337.0257,-258.2571 327.4564,-262.8045 337.7729,-265.2171 337.0257,-258.2571"/>
</g>
<!-- Node180 -->
<g id="node6" class="node">
<title>Node180</title>
<g id="a_node6"><a xlink:href="../../da/d29/classFun4AllServer.html#a6d16c322884bdb48e0e36b0c2b92dd00" target="_top" xlink:title="Fun4AllServer::topNode">
<polygon fill="none" stroke="#000000" points="540,-351.5258 540,-370.5258 658,-370.5258 658,-351.5258 540,-351.5258"/>
<text text-anchor="middle" x="599" y="-358.5258" font-family="FreeSans" font-size="10.00" fill="#000000">Fun4AllServer::topNode</text>
</a>
</g>
</g>
<!-- Node177&#45;&gt;Node180 -->
<g id="edge57" class="edge">
<title>Node177&#45;&gt;Node180</title>
<path fill="none" stroke="#191970" d="M337.5032,-273.6158C385.1829,-278.3703 449.8215,-287.9362 504,-307.0258 535.134,-317.9957 567.8329,-339.0001 585.5862,-351.3305"/>
<polygon fill="#191970" stroke="#191970" points="337.5788,-270.1073 327.2924,-272.645 336.9163,-277.0758 337.5788,-270.1073"/>
</g>
<!-- Node195 -->
<g id="node21" class="node">
<title>Node195</title>
<g id="a_node21"><a xlink:href="../../da/d29/classFun4AllServer.html#a248740a0e8d771bcabbe44cc08a5a1b6" target="_top" xlink:title="Fun4AllServer::makeHisto">
<polygon fill="none" stroke="#000000" points="922,-58.5258 922,-77.5258 1050,-77.5258 1050,-58.5258 922,-58.5258"/>
<text text-anchor="middle" x="986" y="-65.5258" font-family="FreeSans" font-size="10.00" fill="#000000">Fun4AllServer::makeHisto</text>
</a>
</g>
</g>
<!-- Node177&#45;&gt;Node195 -->
<g id="edge56" class="edge">
<title>Node177&#45;&gt;Node195</title>
<path fill="none" stroke="#191970" d="M294.131,-247.3354C355.9764,-194.5033 524.9828,-60.0455 694,-13.0258 763.794,6.3906 786.0214,1.4739 857,-13.0258 899.6983,-21.7483 945.7547,-45.1628 969.5976,-58.459"/>
<polygon fill="#191970" stroke="#191970" points="291.7521,-244.765 286.4585,-253.9426 296.3199,-250.0693 291.7521,-244.765"/>
</g>
<!-- Node179&#45;&gt;Node180 -->
<g id="edge5" class="edge">
<title>Node179&#45;&gt;Node180</title>
<path fill="none" stroke="#191970" d="M483.9358,-263.4303C490.8254,-266.51 497.7953,-270.0624 504,-274.0258 539.9982,-297.0203 575.1627,-334.1318 590.6988,-351.495"/>
<polygon fill="#191970" stroke="#191970" points="485.2446,-260.1838 474.67,-259.5293 482.5284,-266.6354 485.2446,-260.1838"/>
</g>
<!-- Node219 -->
<g id="node45" class="node">
<title>Node219</title>
<g id="a_node45"><a xlink:href="../../d1/dce/classPHEventDisplay.html#adbfbc3b91e5fae081419271b60e74452" target="_top" xlink:title="PHEventDisplay::reco\l_thread">
<polygon fill="none" stroke="#000000" points="545,-162.0258 545,-192.0258 653,-192.0258 653,-162.0258 545,-162.0258"/>
<text text-anchor="start" x="553" y="-180.0258" font-family="FreeSans" font-size="10.00" fill="#000000">PHEventDisplay::reco</text>
<text text-anchor="middle" x="599" y="-169.0258" font-family="FreeSans" font-size="10.00" fill="#000000">_thread</text>
</a>
</g>
</g>
<!-- Node179&#45;&gt;Node219 -->
<g id="edge54" class="edge">
<title>Node179&#45;&gt;Node219</title>
<path fill="none" stroke="#191970" d="M475.5075,-236.1402C501.7627,-223.5722 540.3502,-205.1008 567.3845,-192.1597"/>
<polygon fill="#191970" stroke="#191970" points="473.9453,-233.0076 466.4367,-240.4823 476.9678,-239.3215 473.9453,-233.0076"/>
</g>
<!-- Node181 -->
<g id="node7" class="node">
<title>Node181</title>
<g id="a_node7"><a xlink:href="../../d2/d4a/classFun4AllEventOutputManager.html#a07d37e34714c5e9cc5dab9c2898ad8a4" target="_top" xlink:title="write starting from given node ">
<polygon fill="none" stroke="#000000" points="705.5,-598.0258 705.5,-628.0258 845.5,-628.0258 845.5,-598.0258 705.5,-598.0258"/>
<text text-anchor="start" x="713.5" y="-616.0258" font-family="FreeSans" font-size="10.00" fill="#000000">Fun4AllEventOutputManager</text>
<text text-anchor="middle" x="775.5" y="-605.0258" font-family="FreeSans" font-size="10.00" fill="#000000">::Write</text>
</a>
</g>
</g>
<!-- Node180&#45;&gt;Node181 -->
<g id="edge6" class="edge">
<title>Node180&#45;&gt;Node181</title>
<path fill="none" stroke="#191970" d="M601.5966,-380.8738C608.3964,-424.7801 630.7943,-530.7708 694,-588.0258 698.2778,-591.9009 703.1438,-595.1755 708.3193,-597.9426"/>
<polygon fill="#191970" stroke="#191970" points="605.0489,-380.291 600.1588,-370.8922 598.1204,-381.2891 605.0489,-380.291"/>
</g>
<!-- Node183 -->
<g id="node9" class="node">
<title>Node183</title>
<g id="a_node9"><a xlink:href="../../d4/da9/classFun4AllInputManager.html#ac1910d048e912d51287df1e4f8579888" target="_top" xlink:title="Fun4AllInputManager\l::registerSubsystem">
<polygon fill="none" stroke="#000000" points="721,-346.0258 721,-376.0258 830,-376.0258 830,-346.0258 721,-346.0258"/>
<text text-anchor="start" x="729" y="-364.0258" font-family="FreeSans" font-size="10.00" fill="#000000">Fun4AllInputManager</text>
<text text-anchor="middle" x="775.5" y="-353.0258" font-family="FreeSans" font-size="10.00" fill="#000000">::registerSubsystem</text>
</a>
</g>
</g>
<!-- Node180&#45;&gt;Node183 -->
<g id="edge8" class="edge">
<title>Node180&#45;&gt;Node183</title>
<path fill="none" stroke="#191970" d="M668.3824,-361.0258C685.8088,-361.0258 704.2648,-361.0258 720.8574,-361.0258"/>
<polygon fill="#191970" stroke="#191970" points="668.263,-357.5259 658.2629,-361.0258 668.2629,-364.5259 668.263,-357.5259"/>
</g>
<!-- Node185 -->
<g id="node11" class="node">
<title>Node185</title>
<g id="a_node11"><a xlink:href="../../d4/da9/classFun4AllInputManager.html#a08fc36a2da8759e20f8e035afe5ef6e5" target="_top" xlink:title="Fun4AllInputManager\l::RejectEvent">
<polygon fill="none" stroke="#000000" points="721,-297.0258 721,-327.0258 830,-327.0258 830,-297.0258 721,-297.0258"/>
<text text-anchor="start" x="729" y="-315.0258" font-family="FreeSans" font-size="10.00" fill="#000000">Fun4AllInputManager</text>
<text text-anchor="middle" x="775.5" y="-304.0258" font-family="FreeSans" font-size="10.00" fill="#000000">::RejectEvent</text>
</a>
</g>
</g>
<!-- Node180&#45;&gt;Node185 -->
<g id="edge10" class="edge">
<title>Node180&#45;&gt;Node185</title>
<path fill="none" stroke="#191970" d="M643.2242,-348.7482C666.9117,-342.1721 696.2884,-334.0166 721.3362,-327.0628"/>
<polygon fill="#191970" stroke="#191970" points="642.1493,-345.4142 633.45,-351.4618 644.0218,-352.1591 642.1493,-345.4142"/>
</g>
<!-- Node193 -->
<g id="node19" class="node">
<title>Node193</title>
<g id="a_node19"><a xlink:href="../../da/dd8/classFun4AllPrdfInputManager.html#a36fdaca3254cbb07a00af64b10488385" target="_top" xlink:title="Fun4AllPrdfInputManager\l::Fun4AllPrdfInputManager">
<polygon fill="none" stroke="#000000" points="710,-248.0258 710,-278.0258 841,-278.0258 841,-248.0258 710,-248.0258"/>
<text text-anchor="start" x="718" y="-266.0258" font-family="FreeSans" font-size="10.00" fill="#000000">Fun4AllPrdfInputManager</text>
<text text-anchor="middle" x="775.5" y="-255.0258" font-family="FreeSans" font-size="10.00" fill="#000000">::Fun4AllPrdfInputManager</text>
</a>
</g>
</g>
<!-- Node180&#45;&gt;Node193 -->
<g id="edge19" class="edge">
<title>Node180&#45;&gt;Node193</title>
<path fill="none" stroke="#191970" d="M616.0662,-344.4576C634.0889,-327.7923 663.9978,-302.4201 694,-287.0258 700.5617,-283.659 707.6692,-280.6918 714.859,-278.0965"/>
<polygon fill="#191970" stroke="#191970" points="613.5402,-342.0288 608.6642,-351.4349 618.3417,-347.1225 613.5402,-342.0288"/>
</g>
<!-- Node194 -->
<g id="node20" class="node">
<title>Node194</title>
<g id="a_node20"><a xlink:href="../../da/d29/classFun4AllServer.html#a0a9947db0ede1e55622001eb7515f8c0" target="_top" xlink:title="Fun4AllServer::registerSubsystem">
<polygon fill="none" stroke="#000000" points="695,-209.5258 695,-228.5258 856,-228.5258 856,-209.5258 695,-209.5258"/>
<text text-anchor="middle" x="775.5" y="-216.5258" font-family="FreeSans" font-size="10.00" fill="#000000">Fun4AllServer::registerSubsystem</text>
</a>
</g>
</g>
<!-- Node180&#45;&gt;Node194 -->
<g id="edge20" class="edge">
<title>Node180&#45;&gt;Node194</title>
<path fill="none" stroke="#191970" d="M608.1527,-342.2454C622.5039,-314.8673 652.9587,-264.395 694,-238.0258 699.9894,-234.1776 706.6718,-231.1064 713.5625,-228.6559"/>
<polygon fill="#191970" stroke="#191970" points="605.0126,-340.699 603.6042,-351.1998 611.2536,-343.8692 605.0126,-340.699"/>
</g>
<!-- Node180&#45;&gt;Node195 -->
<g id="edge34" class="edge">
<title>Node180&#45;&gt;Node195</title>
<path fill="none" stroke="#191970" d="M606.209,-341.6248C617.3748,-311.5419 639.4944,-251.8138 658,-201.0258 674.1715,-156.6435 656.9422,-130.318 694,-101.0258 728.1701,-74.0162 846.6624,-68.356 921.7908,-67.5814"/>
<polygon fill="#191970" stroke="#191970" points="602.8181,-340.7023 602.6179,-351.2953 609.3802,-343.1392 602.8181,-340.7023"/>
</g>
<!-- Node196 -->
<g id="node22" class="node">
<title>Node196</title>
<g id="a_node22"><a xlink:href="../../da/d29/classFun4AllServer.html#ac42fd391b795d9605811abb9394c2011" target="_top" xlink:title="Fun4AllServer::getNode">
<polygon fill="none" stroke="#000000" points="716.5,-433.5258 716.5,-452.5258 834.5,-452.5258 834.5,-433.5258 716.5,-433.5258"/>
<text text-anchor="middle" x="775.5" y="-440.5258" font-family="FreeSans" font-size="10.00" fill="#000000">Fun4AllServer::getNode</text>
</a>
</g>
</g>
<!-- Node180&#45;&gt;Node196 -->
<g id="edge22" class="edge">
<title>Node180&#45;&gt;Node196</title>
<path fill="none" stroke="#191970" d="M631.8498,-376.0208C649.6301,-386.7119 672.337,-400.423 694,-410.0258 716.5192,-420.0082 744.3404,-427.1799 760.9631,-433.4585"/>
<polygon fill="#191970" stroke="#191970" points="633.4105,-372.876 623.0325,-370.7431 629.8153,-378.8822 633.4105,-372.876"/>
</g>
<!-- Node202 -->
<g id="node28" class="node">
<title>Node202</title>
<g id="a_node28"><a xlink:href="../../d6/d6f/classFun4AllHepMCInputManager.html#ab49f9d3e9950f49dfe1323ac466e2021" target="_top" xlink:title="Fun4AllHepMCInputManager\l::Fun4AllHepMCInputManager">
<polygon fill="none" stroke="#000000" points="913,-510.0258 913,-540.0258 1059,-540.0258 1059,-510.0258 913,-510.0258"/>
<text text-anchor="start" x="921" y="-528.0258" font-family="FreeSans" font-size="10.00" fill="#000000">Fun4AllHepMCInputManager</text>
<text text-anchor="middle" x="986" y="-517.0258" font-family="FreeSans" font-size="10.00" fill="#000000">::Fun4AllHepMCInputManager</text>
</a>
</g>
</g>
<!-- Node180&#45;&gt;Node202 -->
<g id="edge35" class="edge">
<title>Node180&#45;&gt;Node202</title>
<path fill="none" stroke="#191970" d="M610.7653,-379.1241C626.7413,-402.1569 657.5263,-441.42 694,-462.0258 712.9644,-472.7397 832.7919,-496.5235 912.9325,-511.6088"/>
<polygon fill="#191970" stroke="#191970" points="613.5226,-376.9529 605.0291,-370.6195 607.7192,-380.8671 613.5226,-376.9529"/>
</g>
<!-- Node203 -->
<g id="node29" class="node">
<title>Node203</title>
<g id="a_node29"><a xlink:href="../../db/d1f/classFun4AllOscarInputManager.html#a6eba24090795ccb027a1dedc87db1a85" target="_top" xlink:title="Fun4AllOscarInputManager\l::Fun4AllOscarInputManager">
<polygon fill="none" stroke="#000000" points="916.5,-412.0258 916.5,-442.0258 1055.5,-442.0258 1055.5,-412.0258 916.5,-412.0258"/>
<text text-anchor="start" x="924.5" y="-430.0258" font-family="FreeSans" font-size="10.00" fill="#000000">Fun4AllOscarInputManager</text>
<text text-anchor="middle" x="986" y="-419.0258" font-family="FreeSans" font-size="10.00" fill="#000000">::Fun4AllOscarInputManager</text>
</a>
</g>
</g>
<!-- Node180&#45;&gt;Node203 -->
<g id="edge36" class="edge">
<title>Node180&#45;&gt;Node203</title>
<path fill="none" stroke="#191970" d="M643.209,-373.2159C659.1369,-377.3364 677.2986,-381.7244 694,-385.0258 769.4915,-399.9483 856.9537,-411.822 916.3306,-419.0853"/>
<polygon fill="#191970" stroke="#191970" points="643.6636,-369.7167 633.1025,-370.5609 641.885,-376.487 643.6636,-369.7167"/>
</g>
<!-- Node204 -->
<g id="node30" class="node">
<title>Node204</title>
<g id="a_node30"><a xlink:href="../../d3/d97/classFun4AllEVIOInputManager.html#af15bc51c0267a3e6f959339b512f491e" target="_top" xlink:title="Fun4AllEVIOInputManager\l::Fun4AllEVIOInputManager">
<polygon fill="none" stroke="#000000" points="707.5,-160.0258 707.5,-190.0258 843.5,-190.0258 843.5,-160.0258 707.5,-160.0258"/>
<text text-anchor="start" x="715.5" y="-178.0258" font-family="FreeSans" font-size="10.00" fill="#000000">Fun4AllEVIOInputManager</text>
<text text-anchor="middle" x="775.5" y="-167.0258" font-family="FreeSans" font-size="10.00" fill="#000000">::Fun4AllEVIOInputManager</text>
</a>
</g>
</g>
<!-- Node180&#45;&gt;Node204 -->
<g id="edge37" class="edge">
<title>Node180&#45;&gt;Node204</title>
<path fill="none" stroke="#191970" d="M605.1258,-341.7824C616.8568,-308.0229 645.7072,-238.1037 694,-200.0258 698.8812,-196.1771 704.3545,-192.9183 710.0941,-190.1595"/>
<polygon fill="#191970" stroke="#191970" points="601.7663,-340.7927 601.9156,-351.3865 608.4053,-343.0118 601.7663,-340.7927"/>
</g>
<!-- Node205 -->
<g id="node31" class="node">
<title>Node205</title>
<g id="a_node31"><a xlink:href="../../d5/dd4/classFun4AllSRawEventInputManager.html#a72fc8aee367810a4f5104178ab58850d" target="_top" xlink:title="Fun4AllSRawEventInputManager\l::Fun4AllSRawEventInputManager">
<polygon fill="none" stroke="#000000" points="694,-111.0258 694,-141.0258 857,-141.0258 857,-111.0258 694,-111.0258"/>
<text text-anchor="start" x="702" y="-129.0258" font-family="FreeSans" font-size="10.00" fill="#000000">Fun4AllSRawEventInputManager</text>
<text text-anchor="middle" x="775.5" y="-118.0258" font-family="FreeSans" font-size="10.00" fill="#000000">::Fun4AllSRawEventInputManager</text>
</a>
</g>
</g>
<!-- Node180&#45;&gt;Node205 -->
<g id="edge38" class="edge">
<title>Node180&#45;&gt;Node205</title>
<path fill="none" stroke="#191970" d="M605.3201,-341.8482C621.0848,-295.0703 663.0986,-176.9683 694,-150.0258 697.8912,-146.6331 702.2418,-143.7195 706.8534,-141.2174"/>
<polygon fill="#191970" stroke="#191970" points="601.9766,-340.8107 602.1316,-351.4044 608.6168,-343.0263 601.9766,-340.8107"/>
</g>
<!-- Node206 -->
<g id="node32" class="node">
<title>Node206</title>
<g id="a_node32"><a xlink:href="../../df/d4d/classPHFieldUtility.html#a3afdd4e878d02b30b6f2c396e52b8e48" target="_top" xlink:title="Get transient PHField from DST nodes. If not found, make a new one based on default_config. ">
<polygon fill="none" stroke="#000000" points="717.5,-680.0258 717.5,-710.0258 833.5,-710.0258 833.5,-680.0258 717.5,-680.0258"/>
<text text-anchor="start" x="725.5" y="-698.0258" font-family="FreeSans" font-size="10.00" fill="#000000">PHFieldUtility::GetField</text>
<text text-anchor="middle" x="775.5" y="-687.0258" font-family="FreeSans" font-size="10.00" fill="#000000">MapNode</text>
</a>
</g>
</g>
<!-- Node180&#45;&gt;Node206 -->
<g id="edge39" class="edge">
<title>Node180&#45;&gt;Node206</title>
<path fill="none" stroke="#191970" d="M601.4776,-380.647C608.4038,-428.8777 631.7119,-555.3089 694,-638.0258 707.3987,-655.8189 727.9886,-670.1534 745.1201,-679.9969"/>
<polygon fill="#191970" stroke="#191970" points="604.9296,-380.0561 600.116,-370.6178 597.9932,-380.9978 604.9296,-380.0561"/>
</g>
<!-- Node215 -->
<g id="node41" class="node">
<title>Node215</title>
<g id="a_node41"><a xlink:href="../../df/d4d/classPHFieldUtility.html#a822dcd7d1978f7a23a5f6f26b13f2468" target="_top" xlink:title="Get persistent PHGeomIOTGeo from DST nodes. If not found, make a new one. ">
<polygon fill="none" stroke="#000000" points="717.5,-510.0258 717.5,-540.0258 833.5,-540.0258 833.5,-510.0258 717.5,-510.0258"/>
<text text-anchor="start" x="725.5" y="-528.0258" font-family="FreeSans" font-size="10.00" fill="#000000">PHFieldUtility::GetField</text>
<text text-anchor="middle" x="775.5" y="-517.0258" font-family="FreeSans" font-size="10.00" fill="#000000">ConfigNode</text>
</a>
</g>
</g>
<!-- Node180&#45;&gt;Node215 -->
<g id="edge49" class="edge">
<title>Node180&#45;&gt;Node215</title>
<path fill="none" stroke="#191970" d="M607.7588,-379.9601C621.9644,-408.7121 652.6582,-463.3755 694,-495.0258 701.9014,-501.0749 711.1458,-505.999 720.5154,-509.9761"/>
<polygon fill="#191970" stroke="#191970" points="610.7637,-378.1319 603.282,-370.6302 604.4527,-381.1602 610.7637,-378.1319"/>
</g>
<!-- Node216 -->
<g id="node42" class="node">
<title>Node216</title>
<g id="a_node42"><a xlink:href="../../d9/df8/classPHG4GDMLUtility.html#adb03ec38807279cb5abaf38987c5a73f" target="_top" xlink:title="save the current Geant4 geometry to GDML file. Reading PHG4GDMLConfig from topNode ...">
<polygon fill="none" stroke="#000000" points="696.5,-559.5258 696.5,-578.5258 854.5,-578.5258 854.5,-559.5258 696.5,-559.5258"/>
<text text-anchor="middle" x="775.5" y="-566.5258" font-family="FreeSans" font-size="10.00" fill="#000000">PHG4GDMLUtility::Dump_GDML</text>
</a>
</g>
</g>
<!-- Node180&#45;&gt;Node216 -->
<g id="edge50" class="edge">
<title>Node180&#45;&gt;Node216</title>
<path fill="none" stroke="#191970" d="M603.0593,-380.6935C612.1264,-419.4524 637.8023,-505.7734 694,-550.0258 698.9083,-553.8908 704.4671,-556.9934 710.3194,-559.4808"/>
<polygon fill="#191970" stroke="#191970" points="606.4241,-379.6998 600.8463,-370.6921 599.5894,-381.2121 606.4241,-379.6998"/>
</g>
<!-- Node182 -->
<g id="node8" class="node">
<title>Node182</title>
<g id="a_node8"><a xlink:href="../../d2/d4a/classFun4AllEventOutputManager.html#a2d2fe4f3aa9c7e9f3257921fb5dc00a4" target="_top" xlink:title="opens output file ">
<polygon fill="none" stroke="#000000" points="916,-598.0258 916,-628.0258 1056,-628.0258 1056,-598.0258 916,-598.0258"/>
<text text-anchor="start" x="924" y="-616.0258" font-family="FreeSans" font-size="10.00" fill="#000000">Fun4AllEventOutputManager</text>
<text text-anchor="middle" x="986" y="-605.0258" font-family="FreeSans" font-size="10.00" fill="#000000">::outfileopen</text>
</a>
</g>
</g>
<!-- Node181&#45;&gt;Node182 -->
<g id="edge7" class="edge">
<title>Node181&#45;&gt;Node182</title>
<path fill="none" stroke="#191970" d="M855.805,-613.0258C875.5801,-613.0258 896.6019,-613.0258 915.854,-613.0258"/>
<polygon fill="#191970" stroke="#191970" points="855.5935,-609.5259 845.5935,-613.0258 855.5934,-616.5259 855.5935,-609.5259"/>
</g>
<!-- Node184 -->
<g id="node10" class="node">
<title>Node184</title>
<g id="a_node10"><a xlink:href="../../d4/da9/classFun4AllInputManager.html#ad1ae90af23e619b5130e963815e01f98" target="_top" xlink:title="Fun4AllInputManager\l::NoSyncPushBackEvents">
<polygon fill="none" stroke="#000000" points="922,-363.0258 922,-393.0258 1050,-393.0258 1050,-363.0258 922,-363.0258"/>
<text text-anchor="start" x="930" y="-381.0258" font-family="FreeSans" font-size="10.00" fill="#000000">Fun4AllInputManager</text>
<text text-anchor="middle" x="986" y="-370.0258" font-family="FreeSans" font-size="10.00" fill="#000000">::NoSyncPushBackEvents</text>
</a>
</g>
</g>
<!-- Node183&#45;&gt;Node184 -->
<g id="edge9" class="edge">
<title>Node183&#45;&gt;Node184</title>
<path fill="none" stroke="#191970" d="M840.3465,-366.2628C866.2388,-368.3539 895.9773,-370.7555 921.8045,-372.8414"/>
<polygon fill="#191970" stroke="#191970" points="840.5062,-362.7644 830.2569,-365.448 839.9427,-369.7417 840.5062,-362.7644"/>
</g>
<!-- Node185&#45;&gt;Node184 -->
<g id="edge11" class="edge">
<title>Node185&#45;&gt;Node184</title>
<path fill="none" stroke="#191970" d="M837.4168,-330.0096C844.0375,-332.0069 850.6648,-334.0378 857,-336.0258 873.0918,-341.0754 876.9743,-342.7702 893,-348.0258 907.9919,-352.9424 924.3648,-358.2459 939.1367,-363.0065"/>
<polygon fill="#191970" stroke="#191970" points="838.34,-326.6325 827.7562,-327.1163 836.3316,-333.3382 838.34,-326.6325"/>
</g>
<!-- Node186 -->
<g id="node12" class="node">
<title>Node186</title>
<g id="a_node12"><a xlink:href="../../d7/d0b/classFun4AllDstInputManager.html#aeafa0248f9050c13fdae1bcb93336d7a" target="_top" xlink:title="Fun4AllDstInputManager::run">
<polygon fill="none" stroke="#000000" points="1305.5,-341.5258 1305.5,-360.5258 1446.5,-360.5258 1446.5,-341.5258 1305.5,-341.5258"/>
<text text-anchor="middle" x="1376" y="-348.5258" font-family="FreeSans" font-size="10.00" fill="#000000">Fun4AllDstInputManager::run</text>
</a>
</g>
</g>
<!-- Node185&#45;&gt;Node186 -->
<g id="edge12" class="edge">
<title>Node185&#45;&gt;Node186</title>
<path fill="none" stroke="#191970" d="M840.3942,-316.2404C953.9764,-323.6171 1187.8791,-338.8081 1305.3749,-346.439"/>
<polygon fill="#191970" stroke="#191970" points="840.3215,-312.7284 830.1156,-315.5728 839.8677,-319.7137 840.3215,-312.7284"/>
</g>
<!-- Node187 -->
<g id="node13" class="node">
<title>Node187</title>
<g id="a_node13"><a xlink:href="../../d3/d97/classFun4AllEVIOInputManager.html#af61a28facba084aad29bf788ef2d28e7" target="_top" xlink:title="Fun4AllEVIOInputManager::run">
<polygon fill="none" stroke="#000000" points="911.5,-172.5258 911.5,-191.5258 1060.5,-191.5258 1060.5,-172.5258 911.5,-172.5258"/>
<text text-anchor="middle" x="986" y="-179.5258" font-family="FreeSans" font-size="10.00" fill="#000000">Fun4AllEVIOInputManager::run</text>
</a>
</g>
</g>
<!-- Node185&#45;&gt;Node187 -->
<g id="edge13" class="edge">
<title>Node185&#45;&gt;Node187</title>
<path fill="none" stroke="#191970" d="M839.7192,-298.4551C845.9985,-295.3896 851.9147,-291.6319 857,-287.0258 887.7108,-259.2088 860.9885,-227.3355 893,-201.0258 898.4744,-196.5265 904.7336,-193.0026 911.3595,-190.2534"/>
<polygon fill="#191970" stroke="#191970" points="838.1371,-295.3248 830.3137,-302.4694 840.885,-301.763 838.1371,-295.3248"/>
</g>
<!-- Node188 -->
<g id="node14" class="node">
<title>Node188</title>
<g id="a_node14"><a xlink:href="../../da/dd8/classFun4AllPrdfInputManager.html#ac3f313ef5571ce32cd40799791e2ea56" target="_top" xlink:title="Fun4AllPrdfInputManager::run">
<polygon fill="none" stroke="#000000" points="913.5,-134.5258 913.5,-153.5258 1058.5,-153.5258 1058.5,-134.5258 913.5,-134.5258"/>
<text text-anchor="middle" x="986" y="-141.5258" font-family="FreeSans" font-size="10.00" fill="#000000">Fun4AllPrdfInputManager::run</text>
</a>
</g>
</g>
<!-- Node185&#45;&gt;Node188 -->
<g id="edge14" class="edge">
<title>Node185&#45;&gt;Node188</title>
<path fill="none" stroke="#191970" d="M839.7248,-299.2962C846.1076,-296.0788 852.0456,-292.0555 857,-287.0258 897.2714,-246.1424 850.8112,-201.9275 893,-163.0258 898.8152,-157.6636 905.7193,-153.6443 913.0994,-150.6528"/>
<polygon fill="#191970" stroke="#191970" points="837.9032,-296.2708 830.1176,-303.4566 840.685,-302.6944 837.9032,-296.2708"/>
</g>
<!-- Node189 -->
<g id="node15" class="node">
<title>Node189</title>
<g id="a_node15"><a xlink:href="../../d5/dd4/classFun4AllSRawEventInputManager.html#a6fb883458d575781c7ae1da38ecf30dd" target="_top" xlink:title="Fun4AllSRawEventInputManager::run">
<polygon fill="none" stroke="#000000" points="898,-96.5258 898,-115.5258 1074,-115.5258 1074,-96.5258 898,-96.5258"/>
<text text-anchor="middle" x="986" y="-103.5258" font-family="FreeSans" font-size="10.00" fill="#000000">Fun4AllSRawEventInputManager::run</text>
</a>
</g>
</g>
<!-- Node185&#45;&gt;Node189 -->
<g id="edge15" class="edge">
<title>Node185&#45;&gt;Node189</title>
<path fill="none" stroke="#191970" d="M839.3321,-299.9716C845.9321,-296.6411 852.0282,-292.4065 857,-287.0258 907.0543,-232.8541 840.4013,-176.7305 893,-125.0258 896.7607,-121.329 901.0343,-118.2596 905.6339,-115.7184"/>
<polygon fill="#191970" stroke="#191970" points="837.8662,-296.7923 830.0783,-303.9756 840.646,-303.2167 837.8662,-296.7923"/>
</g>
<!-- Node190 -->
<g id="node16" class="node">
<title>Node190</title>
<g id="a_node16"><a xlink:href="../../db/d1f/classFun4AllOscarInputManager.html#a4be602bd8c9fe73f9dcc81c8871784a6" target="_top" xlink:title="Fun4AllOscarInputManager::run">
<polygon fill="none" stroke="#000000" points="910,-286.5258 910,-305.5258 1062,-305.5258 1062,-286.5258 910,-286.5258"/>
<text text-anchor="middle" x="986" y="-293.5258" font-family="FreeSans" font-size="10.00" fill="#000000">Fun4AllOscarInputManager::run</text>
</a>
</g>
</g>
<!-- Node185&#45;&gt;Node190 -->
<g id="edge16" class="edge">
<title>Node185&#45;&gt;Node190</title>
<path fill="none" stroke="#191970" d="M840.4437,-307.0895C862.3586,-305.4237 887.0199,-303.5492 909.7291,-301.8231"/>
<polygon fill="#191970" stroke="#191970" points="839.9628,-303.6158 830.2569,-307.8637 840.4934,-310.5957 839.9628,-303.6158"/>
</g>
<!-- Node191 -->
<g id="node17" class="node">
<title>Node191</title>
<g id="a_node17"><a xlink:href="../../de/d99/classFun4AllHepMCPileupInputManager.html#a81bf2b69c3c4d3aae0aadebafe1c2c2e" target="_top" xlink:title="Fun4AllHepMCPileupInputManager::run">
<polygon fill="none" stroke="#000000" points="893,-248.5258 893,-267.5258 1079,-267.5258 1079,-248.5258 893,-248.5258"/>
<text text-anchor="middle" x="986" y="-255.5258" font-family="FreeSans" font-size="10.00" fill="#000000">Fun4AllHepMCPileupInputManager::run</text>
</a>
</g>
</g>
<!-- Node185&#45;&gt;Node191 -->
<g id="edge17" class="edge">
<title>Node185&#45;&gt;Node191</title>
<path fill="none" stroke="#191970" d="M833.9216,-294.1058C857.2883,-287.0474 881.3862,-279.9359 893,-277.0258 906.5874,-273.6212 921.4047,-270.3828 935.1372,-267.5756"/>
<polygon fill="#191970" stroke="#191970" points="832.895,-290.7596 824.3395,-297.0091 834.9248,-297.4589 832.895,-290.7596"/>
</g>
<!-- Node192 -->
<g id="node18" class="node">
<title>Node192</title>
<g id="a_node18"><a xlink:href="../../d6/d6f/classFun4AllHepMCInputManager.html#ab6c80a8ee0701bfff5eee3ec3623015c" target="_top" xlink:title="Fun4AllHepMCInputManager::run">
<polygon fill="none" stroke="#000000" points="906.5,-210.5258 906.5,-229.5258 1065.5,-229.5258 1065.5,-210.5258 906.5,-210.5258"/>
<text text-anchor="middle" x="986" y="-217.5258" font-family="FreeSans" font-size="10.00" fill="#000000">Fun4AllHepMCInputManager::run</text>
</a>
</g>
</g>
<!-- Node185&#45;&gt;Node192 -->
<g id="edge18" class="edge">
<title>Node185&#45;&gt;Node192</title>
<path fill="none" stroke="#191970" d="M839.9294,-296.5616C845.9517,-293.8648 851.7549,-290.711 857,-287.0258 878.8195,-271.6955 870.4692,-253.2903 893,-239.0258 899.1263,-235.1471 905.894,-232.0405 912.9017,-229.5551"/>
<polygon fill="#191970" stroke="#191970" points="838.2976,-293.4457 830.3341,-300.4338 840.9173,-299.9371 838.2976,-293.4457"/>
</g>
<!-- Node194&#45;&gt;Node195 -->
<g id="edge21" class="edge">
<title>Node194&#45;&gt;Node195</title>
<path fill="none" stroke="#191970" d="M850.0941,-204.4761C852.5366,-202.8388 854.8518,-201.028 857,-199.0258 895.2492,-163.3772 854.0609,-121.9196 893,-87.0258 901.1,-79.7673 911.2049,-74.9886 921.7425,-71.8935"/>
<polygon fill="#191970" stroke="#191970" points="848.3502,-201.4413 841.3564,-209.3998 851.7867,-207.5397 848.3502,-201.4413"/>
</g>
<!-- Node196&#45;&gt;Node180 -->
<g id="edge31" class="edge">
<title>Node196&#45;&gt;Node180</title>
<path fill="none" stroke="#191970" d="M706.5806,-433.1255C702.2794,-431.5287 698.0538,-429.8228 694,-428.0258 658.6679,-412.3637 620.5588,-385.7732 605.5768,-370.5978"/>
<polygon fill="#191970" stroke="#191970" points="705.4851,-436.4502 716.08,-436.4402 707.7913,-429.841 705.4851,-436.4502"/>
</g>
<!-- Node197 -->
<g id="node23" class="node">
<title>Node197</title>
<g id="a_node23"><a xlink:href="../../d7/d0b/classFun4AllDstInputManager.html#a4d32eadb9f77d41387656b87377ef14f" target="_top" xlink:title="Fun4AllDstInputManager\l::fileopen">
<polygon fill="none" stroke="#000000" points="924.5,-461.0258 924.5,-491.0258 1047.5,-491.0258 1047.5,-461.0258 924.5,-461.0258"/>
<text text-anchor="start" x="932.5" y="-479.0258" font-family="FreeSans" font-size="10.00" fill="#000000">Fun4AllDstInputManager</text>
<text text-anchor="middle" x="986" y="-468.0258" font-family="FreeSans" font-size="10.00" fill="#000000">::fileopen</text>
</a>
</g>
</g>
<!-- Node196&#45;&gt;Node197 -->
<g id="edge23" class="edge">
<title>Node196&#45;&gt;Node197</title>
<path fill="none" stroke="#191970" d="M844.7347,-453.8797C870.4167,-457.9058 899.352,-462.442 924.3163,-466.3557"/>
<polygon fill="#191970" stroke="#191970" points="845.1176,-450.397 834.6962,-452.3059 844.0334,-457.3126 845.1176,-450.397"/>
</g>
<!-- Node196&#45;&gt;Node202 -->
<g id="edge32" class="edge">
<title>Node196&#45;&gt;Node202</title>
<path fill="none" stroke="#191970" d="M831.4486,-455.6806C840.2918,-458.7497 849.1111,-462.492 857,-467.0258 876.0812,-477.9918 873.736,-490.3841 893,-501.0258 899.1302,-504.4122 905.7522,-507.3335 912.5396,-509.851"/>
<polygon fill="#191970" stroke="#191970" points="832.4775,-452.335 821.8862,-452.6089 830.3367,-458.9996 832.4775,-452.335"/>
</g>
<!-- Node196&#45;&gt;Node203 -->
<g id="edge33" class="edge">
<title>Node196&#45;&gt;Node203</title>
<path fill="none" stroke="#191970" d="M844.7302,-437.7636C867.7573,-436.0134 893.4001,-434.0643 916.4511,-432.3122"/>
<polygon fill="#191970" stroke="#191970" points="844.4021,-434.2784 834.6962,-438.5263 844.9327,-441.2583 844.4021,-434.2784"/>
</g>
<!-- Node198 -->
<g id="node24" class="node">
<title>Node198</title>
<g id="a_node24"><a xlink:href="../../d7/d0b/classFun4AllDstInputManager.html#ae4e92b95ae50ab72856d06c99b043496" target="_top" xlink:title="Fun4AllDstInputManager\l::OpenNextFile">
<polygon fill="none" stroke="#000000" points="1128,-412.0258 1128,-442.0258 1251,-442.0258 1251,-412.0258 1128,-412.0258"/>
<text text-anchor="start" x="1136" y="-430.0258" font-family="FreeSans" font-size="10.00" fill="#000000">Fun4AllDstInputManager</text>
<text text-anchor="middle" x="1189.5" y="-419.0258" font-family="FreeSans" font-size="10.00" fill="#000000">::OpenNextFile</text>
</a>
</g>
</g>
<!-- Node197&#45;&gt;Node198 -->
<g id="edge24" class="edge">
<title>Node197&#45;&gt;Node198</title>
<path fill="none" stroke="#191970" d="M1057.6069,-458.7838C1080.4967,-453.2723 1105.6237,-447.222 1127.7495,-441.8945"/>
<polygon fill="#191970" stroke="#191970" points="1056.5117,-455.4474 1047.609,-461.1912 1058.1505,-462.2529 1056.5117,-455.4474"/>
</g>
<!-- Node198&#45;&gt;Node186 -->
<g id="edge30" class="edge">
<title>Node198&#45;&gt;Node186</title>
<path fill="none" stroke="#191970" d="M1235.9366,-408.1026C1272.9914,-393.0025 1323.3624,-372.476 1352.5081,-360.5989"/>
<polygon fill="#191970" stroke="#191970" points="1234.2862,-404.9956 1226.3464,-412.0106 1236.9278,-411.478 1234.2862,-404.9956"/>
</g>
<!-- Node199 -->
<g id="node25" class="node">
<title>Node199</title>
<g id="a_node25"><a xlink:href="../../d7/d0b/classFun4AllDstInputManager.html#a33ba8ba9d1dac601d13b03a5f19dead7" target="_top" xlink:title="Fun4AllDstInputManager\l::isOpen">
<polygon fill="none" stroke="#000000" points="1647,-434.0258 1647,-464.0258 1770,-464.0258 1770,-434.0258 1647,-434.0258"/>
<text text-anchor="start" x="1655" y="-452.0258" font-family="FreeSans" font-size="10.00" fill="#000000">Fun4AllDstInputManager</text>
<text text-anchor="middle" x="1708.5" y="-441.0258" font-family="FreeSans" font-size="10.00" fill="#000000">::isOpen</text>
</a>
</g>
</g>
<!-- Node198&#45;&gt;Node199 -->
<g id="edge25" class="edge">
<title>Node198&#45;&gt;Node199</title>
<path fill="none" stroke="#191970" d="M1261.4231,-421.2321C1345.581,-415.7117 1488.9602,-410.2264 1611,-425.0258 1626.2289,-426.8726 1642.5089,-430.2856 1657.3179,-433.9699"/>
<polygon fill="#191970" stroke="#191970" points="1260.9491,-417.7561 1251.2076,-421.9216 1261.4206,-424.7402 1260.9491,-417.7561"/>
</g>
<!-- Node200 -->
<g id="node26" class="node">
<title>Node200</title>
<g id="a_node26"><a xlink:href="../../d7/d0b/classFun4AllDstInputManager.html#ade26017b627e0e1f1ec0dec62ac7fd52" target="_top" xlink:title="Fun4AllDstInputManager\l::ReadNextEventSyncObject">
<polygon fill="none" stroke="#000000" points="1307.5,-434.0258 1307.5,-464.0258 1444.5,-464.0258 1444.5,-434.0258 1307.5,-434.0258"/>
<text text-anchor="start" x="1315.5" y="-452.0258" font-family="FreeSans" font-size="10.00" fill="#000000">Fun4AllDstInputManager</text>
<text text-anchor="middle" x="1376" y="-441.0258" font-family="FreeSans" font-size="10.00" fill="#000000">::ReadNextEventSyncObject</text>
</a>
</g>
</g>
<!-- Node198&#45;&gt;Node200 -->
<g id="edge26" class="edge">
<title>Node198&#45;&gt;Node200</title>
<path fill="none" stroke="#191970" d="M1261.398,-435.5071C1276.5088,-437.2896 1292.41,-439.1653 1307.3964,-440.9331"/>
<polygon fill="#191970" stroke="#191970" points="1261.4251,-431.9861 1251.0839,-434.2904 1260.605,-438.9379 1261.4251,-431.9861"/>
</g>
<!-- Node200&#45;&gt;Node199 -->
<g id="edge27" class="edge">
<title>Node200&#45;&gt;Node199</title>
<path fill="none" stroke="#191970" d="M1442.1856,-466.3186C1457.1485,-469.5221 1473.0364,-472.376 1488,-474.0258 1542.3374,-480.0165 1556.7633,-480.8685 1611,-474.0258 1627.1236,-471.9916 1644.3998,-468.136 1659.8633,-464.0509"/>
<polygon fill="#191970" stroke="#191970" points="1442.5183,-462.8073 1431.9972,-464.0555 1441.0003,-469.6407 1442.5183,-462.8073"/>
</g>
<!-- Node201 -->
<g id="node27" class="node">
<title>Node201</title>
<g id="a_node27"><a xlink:href="../../d7/d0b/classFun4AllDstInputManager.html#a0244c2edbaa2350038304b09f352c2d0" target="_top" xlink:title="Fun4AllDstInputManager\l::SyncIt">
<polygon fill="none" stroke="#000000" points="1488,-434.0258 1488,-464.0258 1611,-464.0258 1611,-434.0258 1488,-434.0258"/>
<text text-anchor="start" x="1496" y="-452.0258" font-family="FreeSans" font-size="10.00" fill="#000000">Fun4AllDstInputManager</text>
<text text-anchor="middle" x="1549.5" y="-441.0258" font-family="FreeSans" font-size="10.00" fill="#000000">::SyncIt</text>
</a>
</g>
</g>
<!-- Node200&#45;&gt;Node201 -->
<g id="edge28" class="edge">
<title>Node200&#45;&gt;Node201</title>
<path fill="none" stroke="#191970" d="M1454.7208,-449.0258C1465.8495,-449.0258 1477.156,-449.0258 1487.8992,-449.0258"/>
<polygon fill="#191970" stroke="#191970" points="1454.5718,-445.5259 1444.5718,-449.0258 1454.5718,-452.5259 1454.5718,-445.5259"/>
</g>
<!-- Node201&#45;&gt;Node199 -->
<g id="edge29" class="edge">
<title>Node201&#45;&gt;Node199</title>
<path fill="none" stroke="#191970" d="M1621.5919,-449.0258C1629.9898,-449.0258 1638.499,-449.0258 1646.7402,-449.0258"/>
<polygon fill="#191970" stroke="#191970" points="1621.4289,-445.5259 1611.4288,-449.0258 1621.4288,-452.5259 1621.4289,-445.5259"/>
</g>
<!-- Node207 -->
<g id="node33" class="node">
<title>Node207</title>
<g id="a_node33"><a xlink:href="../../d1/dce/classPHEventDisplay.html#a41be51990798d21514cd311258511f42" target="_top" xlink:title="Run initialization. ">
<polygon fill="none" stroke="#000000" points="926,-647.5258 926,-666.5258 1046,-666.5258 1046,-647.5258 926,-647.5258"/>
<text text-anchor="middle" x="986" y="-654.5258" font-family="FreeSans" font-size="10.00" fill="#000000">PHEventDisplay::InitRun</text>
</a>
</g>
</g>
<!-- Node206&#45;&gt;Node207 -->
<g id="edge40" class="edge">
<title>Node206&#45;&gt;Node207</title>
<path fill="none" stroke="#191970" d="M843.6491,-682.7233C872.6819,-677.4823 906.0339,-671.4615 933.1537,-666.5657"/>
<polygon fill="#191970" stroke="#191970" points="842.7964,-679.3206 833.5773,-684.5415 844.04,-686.2093 842.7964,-679.3206"/>
</g>
<!-- Node208 -->
<g id="node34" class="node">
<title>Node208</title>
<g id="a_node34"><a xlink:href="../../d4/dff/classKalmanFastTrackingWrapper.html#a3bb9169cefe8ea8969f0ec5661baca2b" target="_top" xlink:title="KalmanFastTrackingWrapper\l::InitRun">
<polygon fill="none" stroke="#000000" points="1118.5,-771.0258 1118.5,-801.0258 1260.5,-801.0258 1260.5,-771.0258 1118.5,-771.0258"/>
<text text-anchor="start" x="1126.5" y="-789.0258" font-family="FreeSans" font-size="10.00" fill="#000000">KalmanFastTrackingWrapper</text>
<text text-anchor="middle" x="1189.5" y="-778.0258" font-family="FreeSans" font-size="10.00" fill="#000000">::InitRun</text>
</a>
</g>
</g>
<!-- Node206&#45;&gt;Node208 -->
<g id="edge41" class="edge">
<title>Node206&#45;&gt;Node208</title>
<path fill="none" stroke="#191970" d="M803.1201,-716.2013C825.8988,-732.3956 859.76,-753.6515 893,-764.0258 967.4025,-787.2469 1057.1903,-790.7285 1118.3277,-789.6781"/>
<polygon fill="#191970" stroke="#191970" points="805.1057,-713.3178 794.9569,-710.2758 800.9935,-718.9827 805.1057,-713.3178"/>
</g>
<!-- Node210 -->
<g id="node36" class="node">
<title>Node210</title>
<g id="a_node36"><a xlink:href="../../d4/dff/classKalmanFastTrackingWrapper.html#a73a592ff928c69486ab8835049ae9366" target="_top" xlink:title="KalmanFastTrackingWrapper\l::InitField">
<polygon fill="none" stroke="#000000" points="915,-724.0258 915,-754.0258 1057,-754.0258 1057,-724.0258 915,-724.0258"/>
<text text-anchor="start" x="923" y="-742.0258" font-family="FreeSans" font-size="10.00" fill="#000000">KalmanFastTrackingWrapper</text>
<text text-anchor="middle" x="986" y="-731.0258" font-family="FreeSans" font-size="10.00" fill="#000000">::InitField</text>
</a>
</g>
</g>
<!-- Node206&#45;&gt;Node210 -->
<g id="edge43" class="edge">
<title>Node206&#45;&gt;Node210</title>
<path fill="none" stroke="#191970" d="M843.5288,-709.2456C866.3801,-714.0221 891.9182,-719.3602 914.9922,-724.1833"/>
<polygon fill="#191970" stroke="#191970" points="844.0819,-705.7856 833.5773,-707.1655 842.6496,-712.6375 844.0819,-705.7856"/>
</g>
<!-- Node212 -->
<g id="node38" class="node">
<title>Node212</title>
<g id="a_node38"><a xlink:href="../../d0/d78/classPHG4Reco.html#a66fc50f0871fbaf83b21edfa8ae98259" target="_top" xlink:title="PHG4Reco::InitField">
<polygon fill="none" stroke="#000000" points="934,-685.5258 934,-704.5258 1038,-704.5258 1038,-685.5258 934,-685.5258"/>
<text text-anchor="middle" x="986" y="-692.5258" font-family="FreeSans" font-size="10.00" fill="#000000">PHG4Reco::InitField</text>
</a>
</g>
</g>
<!-- Node206&#45;&gt;Node212 -->
<g id="edge46" class="edge">
<title>Node206&#45;&gt;Node212</title>
<path fill="none" stroke="#191970" d="M843.7293,-695.0258C872.997,-695.0258 906.6416,-695.0258 933.8628,-695.0258"/>
<polygon fill="#191970" stroke="#191970" points="843.5773,-691.5259 833.5773,-695.0258 843.5772,-698.5259 843.5773,-691.5259"/>
</g>
<!-- Node209 -->
<g id="node35" class="node">
<title>Node209</title>
<g id="a_node35"><a xlink:href="../../d4/dff/classKalmanFastTrackingWrapper.html#a0cae88e6dbda7195c5980e36f5c8ee82" target="_top" xlink:title="KalmanFastTrackingWrapper\l::~KalmanFastTrackingWrapper">
<polygon fill="none" stroke="#000000" points="1300,-771.0258 1300,-801.0258 1452,-801.0258 1452,-771.0258 1300,-771.0258"/>
<text text-anchor="start" x="1308" y="-789.0258" font-family="FreeSans" font-size="10.00" fill="#000000">KalmanFastTrackingWrapper</text>
<text text-anchor="middle" x="1376" y="-778.0258" font-family="FreeSans" font-size="10.00" fill="#000000">::~KalmanFastTrackingWrapper</text>
</a>
</g>
</g>
<!-- Node208&#45;&gt;Node209 -->
<g id="edge42" class="edge">
<title>Node208&#45;&gt;Node209</title>
<path fill="none" stroke="#191970" d="M1270.5931,-786.0258C1280.3201,-786.0258 1290.2266,-786.0258 1299.8796,-786.0258"/>
<polygon fill="#191970" stroke="#191970" points="1270.5397,-782.5259 1260.5397,-786.0258 1270.5396,-789.5259 1270.5397,-782.5259"/>
</g>
<!-- Node210&#45;&gt;Node208 -->
<g id="edge44" class="edge">
<title>Node210&#45;&gt;Node208</title>
<path fill="none" stroke="#191970" d="M1060.7397,-756.2875C1081.6406,-761.1148 1104.1807,-766.3206 1124.4709,-771.0068"/>
<polygon fill="#191970" stroke="#191970" points="1061.4793,-752.8663 1050.9482,-754.0261 1059.904,-759.6868 1061.4793,-752.8663"/>
</g>
<!-- Node211 -->
<g id="node37" class="node">
<title>Node211</title>
<g id="a_node37"><a xlink:href="../../d4/dff/classKalmanFastTrackingWrapper.html#a46ff3f180842976abcebef6ae4927e65" target="_top" xlink:title="KalmanFastTrackingWrapper\l::set_enable_event_reducer">
<polygon fill="none" stroke="#000000" points="1118.5,-722.0258 1118.5,-752.0258 1260.5,-752.0258 1260.5,-722.0258 1118.5,-722.0258"/>
<text text-anchor="start" x="1126.5" y="-740.0258" font-family="FreeSans" font-size="10.00" fill="#000000">KalmanFastTrackingWrapper</text>
<text text-anchor="middle" x="1189.5" y="-729.0258" font-family="FreeSans" font-size="10.00" fill="#000000">::set_enable_event_reducer</text>
</a>
</g>
</g>
<!-- Node210&#45;&gt;Node211 -->
<g id="edge45" class="edge">
<title>Node210&#45;&gt;Node211</title>
<path fill="none" stroke="#191970" d="M1067.5325,-738.2245C1084.3557,-738.0592 1101.9471,-737.8863 1118.3658,-737.7249"/>
<polygon fill="#191970" stroke="#191970" points="1067.1395,-734.7281 1057.1744,-738.3263 1067.2084,-741.7277 1067.1395,-734.7281"/>
</g>
<!-- Node213 -->
<g id="node39" class="node">
<title>Node213</title>
<g id="a_node39"><a xlink:href="../../d0/d78/classPHG4Reco.html#a9d8228ce8682c19cd6be2f6b44ec847b" target="_top" xlink:title="PHG4Reco::InitRun">
<polygon fill="none" stroke="#000000" points="1139,-622.5258 1139,-641.5258 1240,-641.5258 1240,-622.5258 1139,-622.5258"/>
<text text-anchor="middle" x="1189.5" y="-629.5258" font-family="FreeSans" font-size="10.00" fill="#000000">PHG4Reco::InitRun</text>
</a>
</g>
</g>
<!-- Node212&#45;&gt;Node213 -->
<g id="edge47" class="edge">
<title>Node212&#45;&gt;Node213</title>
<path fill="none" stroke="#191970" d="M1047.9637,-683.9664C1058.4028,-681.6478 1069.0683,-678.9921 1079,-676.0258 1111.0523,-666.4527 1146.7883,-651.3757 1168.7104,-641.5942"/>
<polygon fill="#191970" stroke="#191970" points="1047.1027,-680.5713 1038.0558,-686.0852 1048.5666,-687.4165 1047.1027,-680.5713"/>
</g>
<!-- Node214 -->
<g id="node40" class="node">
<title>Node214</title>
<g id="a_node40"><a xlink:href="../../d0/d78/classPHG4Reco.html#abc0956c0994a72d5a817b69511e1456b" target="_top" xlink:title="register subsystem ">
<polygon fill="none" stroke="#000000" points="1115,-683.5258 1115,-702.5258 1264,-702.5258 1264,-683.5258 1115,-683.5258"/>
<text text-anchor="middle" x="1189.5" y="-690.5258" font-family="FreeSans" font-size="10.00" fill="#000000">PHG4Reco::registerSubsystem</text>
</a>
</g>
</g>
<!-- Node212&#45;&gt;Node214 -->
<g id="edge48" class="edge">
<title>Node212&#45;&gt;Node214</title>
<path fill="none" stroke="#191970" d="M1048.2323,-694.4142C1069.2627,-694.2075 1092.9597,-693.9746 1114.8515,-693.7594"/>
<polygon fill="#191970" stroke="#191970" points="1048.1071,-690.9151 1038.142,-694.5133 1048.176,-697.9148 1048.1071,-690.9151"/>
</g>
<!-- Node217 -->
<g id="node43" class="node">
<title>Node217</title>
<g id="a_node43"><a xlink:href="../../d0/d78/classPHG4Reco.html#a490f5037508d384c5b60855ef0f7e227" target="_top" xlink:title="PHG4Reco::Dump_GDML">
<polygon fill="none" stroke="#000000" points="922,-559.5258 922,-578.5258 1050,-578.5258 1050,-559.5258 922,-559.5258"/>
<text text-anchor="middle" x="986" y="-566.5258" font-family="FreeSans" font-size="10.00" fill="#000000">PHG4Reco::Dump_GDML</text>
</a>
</g>
</g>
<!-- Node216&#45;&gt;Node217 -->
<g id="edge51" class="edge">
<title>Node216&#45;&gt;Node217</title>
<path fill="none" stroke="#191970" d="M865.0001,-569.0258C884.1086,-569.0258 903.9257,-569.0258 921.8548,-569.0258"/>
<polygon fill="#191970" stroke="#191970" points="864.7811,-565.5259 854.7811,-569.0258 864.781,-572.5259 864.7811,-565.5259"/>
</g>
<!-- Node217&#45;&gt;Node213 -->
<g id="edge52" class="edge">
<title>Node217&#45;&gt;Node213</title>
<path fill="none" stroke="#191970" d="M1047.556,-580.8148C1058.1186,-583.2496 1068.9306,-586.0048 1079,-589.0258 1110.5474,-598.4904 1145.8246,-612.9211 1167.8462,-622.4132"/>
<polygon fill="#191970" stroke="#191970" points="1048.0598,-577.3413 1037.5376,-578.5804 1046.5359,-584.1734 1048.0598,-577.3413"/>
</g>
<!-- Node218 -->
<g id="node44" class="node">
<title>Node218</title>
<g id="a_node44"><a xlink:href="../../d0/d78/classPHG4Reco.html#ae3a89b790e2508e68657bd0059675ef5" target="_top" xlink:title="PHG4Reco::SetPhysicsList">
<polygon fill="none" stroke="#000000" points="1123,-559.5258 1123,-578.5258 1256,-578.5258 1256,-559.5258 1123,-559.5258"/>
<text text-anchor="middle" x="1189.5" y="-566.5258" font-family="FreeSans" font-size="10.00" fill="#000000">PHG4Reco::SetPhysicsList</text>
</a>
</g>
</g>
<!-- Node217&#45;&gt;Node218 -->
<g id="edge53" class="edge">
<title>Node217&#45;&gt;Node218</title>
<path fill="none" stroke="#191970" d="M1060.3344,-569.0258C1080.8135,-569.0258 1102.8938,-569.0258 1122.9056,-569.0258"/>
<polygon fill="#191970" stroke="#191970" points="1060.1094,-565.5259 1050.1094,-569.0258 1060.1093,-572.5259 1060.1094,-565.5259"/>
</g>
<!-- Node220 -->
<g id="node46" class="node">
<title>Node220</title>
<g id="a_node46"><a xlink:href="../../d1/dce/classPHEventDisplay.html#a02fc0b80e4c80d17913bc2f16561344c" target="_top" xlink:title="PHEventDisplay::set\l_verbosity">
<polygon fill="none" stroke="#000000" points="724.5,-23.0258 724.5,-53.0258 826.5,-53.0258 826.5,-23.0258 724.5,-23.0258"/>
<text text-anchor="start" x="732.5" y="-41.0258" font-family="FreeSans" font-size="10.00" fill="#000000">PHEventDisplay::set</text>
<text text-anchor="middle" x="775.5" y="-30.0258" font-family="FreeSans" font-size="10.00" fill="#000000">_verbosity</text>
</a>
</g>
</g>
<!-- Node219&#45;&gt;Node220 -->
<g id="edge55" class="edge">
<title>Node219&#45;&gt;Node220</title>
<path fill="none" stroke="#191970" d="M614.1681,-153.5065C631.0113,-129.0755 660.3099,-91.2386 694,-68.0258 703.1876,-61.6954 713.8735,-56.5181 724.4239,-52.3561"/>
<polygon fill="#191970" stroke="#191970" points="611.2314,-151.6013 608.5412,-161.8489 617.0348,-155.5156 611.2314,-151.6013"/>
</g>
</g>
</svg>
