<?xml version="1.0" encoding="UTF-8" standalone="no"?>
<!DOCTYPE svg PUBLIC "-//W3C//DTD SVG 1.1//EN"
 "http://www.w3.org/Graphics/SVG/1.1/DTD/svg11.dtd">
<!-- Generated by graphviz version 2.36.0 (20140111.2315)
 -->
<!-- Title: Fun4AllServer::CountOutNodesRecursive Pages: 1 -->
<svg width="820pt" height="674pt"
 viewBox="0.00 0.00 820.00 674.00" xmlns="http://www.w3.org/2000/svg" xmlns:xlink="http://www.w3.org/1999/xlink">
<g id="graph0" class="graph" transform="scale(1 1) rotate(0) translate(4 670)">
<title>Fun4AllServer::CountOutNodesRecursive</title>
<!-- Node1 -->
<g id="node1" class="node"><title>Node1</title>
<polygon fill="#bfbfbf" stroke="black" points="0,-340 0,-370 152,-370 152,-340 0,-340"/>
<text text-anchor="start" x="8" y="-358" font-family="FreeSans" font-size="10.00">Fun4AllServer::CountOutNodes</text>
<text text-anchor="middle" x="76" y="-347" font-family="FreeSans" font-size="10.00">Recursive</text>
</g>
<!-- Node2 -->
<g id="node2" class="node"><title>Node2</title>
<g id="a_node2"><a xlink:href="../../da/d29/classFun4AllServer.html#a6f3f13c3a8b5c29457e694ba910296aa" target="_top" xlink:title="Fun4AllServer::CountOutNodes">
<polygon fill="none" stroke="black" points="188,-345.5 188,-364.5 340,-364.5 340,-345.5 188,-345.5"/>
<text text-anchor="middle" x="264" y="-352.5" font-family="FreeSans" font-size="10.00">Fun4AllServer::CountOutNodes</text>
</a>
</g>
</g>
<!-- Node1&#45;&gt;Node2 -->
<g id="edge1" class="edge"><title>Node1&#45;&gt;Node2</title>
<path fill="none" stroke="midnightblue" d="M162.147,-355C170.742,-355 179.426,-355 187.905,-355"/>
<polygon fill="midnightblue" stroke="midnightblue" points="162.117,-351.5 152.117,-355 162.117,-358.5 162.117,-351.5"/>
</g>
<!-- Node3 -->
<g id="node3" class="node"><title>Node3</title>
<g id="a_node3"><a xlink:href="../../da/d29/classFun4AllServer.html#a6a65a944dfb40966ace97d35ab1f7942" target="_top" xlink:title="Fun4AllServer::process\l_event">
<polygon fill="none" stroke="black" points="376.5,-340 376.5,-370 493.5,-370 493.5,-340 376.5,-340"/>
<text text-anchor="start" x="384.5" y="-358" font-family="FreeSans" font-size="10.00">Fun4AllServer::process</text>
<text text-anchor="middle" x="435" y="-347" font-family="FreeSans" font-size="10.00">_event</text>
</a>
</g>
</g>
<!-- Node2&#45;&gt;Node3 -->
<g id="edge2" class="edge"><title>Node2&#45;&gt;Node3</title>
<path fill="none" stroke="midnightblue" d="M350.128,-355C359.015,-355 367.894,-355 376.37,-355"/>
<polygon fill="midnightblue" stroke="midnightblue" points="350.11,-351.5 340.11,-355 350.11,-358.5 350.11,-351.5"/>
</g>
<!-- Node4 -->
<g id="node4" class="node"><title>Node4</title>
<g id="a_node4"><a xlink:href="../../da/d29/classFun4AllServer.html#a94738b092fa009fcea45737d8ea41224" target="_top" xlink:title="Fun4AllServer::process\l_event">
<polygon fill="none" stroke="black" points="530.5,-362 530.5,-392 647.5,-392 647.5,-362 530.5,-362"/>
<text text-anchor="start" x="538.5" y="-380" font-family="FreeSans" font-size="10.00">Fun4AllServer::process</text>
<text text-anchor="middle" x="589" y="-369" font-family="FreeSans" font-size="10.00">_event</text>
</a>
</g>
</g>
<!-- Node3&#45;&gt;Node4 -->
<g id="edge3" class="edge"><title>Node3&#45;&gt;Node4</title>
<path fill="none" stroke="midnightblue" d="M504.072,-364.852C512.817,-366.118 521.704,-367.405 530.263,-368.643"/>
<polygon fill="midnightblue" stroke="midnightblue" points="504.297,-361.349 493.898,-363.38 503.294,-368.276 504.297,-361.349"/>
</g>
<!-- Node5 -->
<g id="node5" class="node"><title>Node5</title>
<g id="a_node5"><a xlink:href="../../da/d29/classFun4AllServer.html#a11bbc8b2f53bc06e0b05ee202dd6372a" target="_top" xlink:title="run n events (0 means up to end of file) ">
<polygon fill="none" stroke="black" points="541,-323.5 541,-342.5 637,-342.5 637,-323.5 541,-323.5"/>
<text text-anchor="middle" x="589" y="-330.5" font-family="FreeSans" font-size="10.00">Fun4AllServer::run</text>
</a>
</g>
</g>
<!-- Node3&#45;&gt;Node5 -->
<g id="edge4" class="edge"><title>Node3&#45;&gt;Node5</title>
<path fill="none" stroke="midnightblue" d="M504.152,-345.136C516.471,-343.353 529.067,-341.53 540.629,-339.856"/>
<polygon fill="midnightblue" stroke="midnightblue" points="503.294,-341.724 493.898,-346.62 504.297,-348.651 503.294,-341.724"/>
</g>
<!-- Node6 -->
<g id="node6" class="node"><title>Node6</title>
<g id="a_node6"><a xlink:href="../../d6/d6a/Fun4HodoAccGap_8C.html#a7aaa0687f144d5e7b417d7e9ac5f36da" target="_top" xlink:title="Fun4HodoAccGap">
<polygon fill="none" stroke="black" points="699.5,-646.5 699.5,-665.5 796.5,-665.5 796.5,-646.5 699.5,-646.5"/>
<text text-anchor="middle" x="748" y="-653.5" font-family="FreeSans" font-size="10.00">Fun4HodoAccGap</text>
</a>
</g>
</g>
<!-- Node5&#45;&gt;Node6 -->
<g id="edge5" class="edge"><title>Node5&#45;&gt;Node6</title>
<path fill="none" stroke="midnightblue" d="M643.198,-348.12C644.94,-349.598 646.554,-351.22 648,-353 728.241,-451.739 601.842,-539.85 684,-637 688.131,-641.885 693.469,-645.542 699.289,-648.274"/>
<polygon fill="midnightblue" stroke="midnightblue" points="645.109,-345.187 634.855,-342.519 641.207,-350.999 645.109,-345.187"/>
</g>
<!-- Node7 -->
<g id="node7" class="node"><title>Node7</title>
<g id="a_node7"><a xlink:href="../../d4/dec/HodoAccGap_2int__run_8C.html#a088590a1a5b93b904ba076de8ca1ef82" target="_top" xlink:title="int_run">
<polygon fill="none" stroke="black" points="725,-608.5 725,-627.5 771,-627.5 771,-608.5 725,-608.5"/>
<text text-anchor="middle" x="748" y="-615.5" font-family="FreeSans" font-size="10.00">int_run</text>
</a>
</g>
</g>
<!-- Node5&#45;&gt;Node7 -->
<g id="edge6" class="edge"><title>Node5&#45;&gt;Node7</title>
<path fill="none" stroke="midnightblue" d="M643.155,-348.156C644.909,-349.624 646.537,-351.234 648,-353 718.508,-438.079 611.84,-515.318 684,-599 694.072,-610.68 711.041,-615.325 724.832,-617.106"/>
<polygon fill="midnightblue" stroke="midnightblue" points="645.041,-345.207 634.776,-342.584 641.165,-351.036 645.041,-345.207"/>
</g>
<!-- Node8 -->
<g id="node8" class="node"><title>Node8</title>
<g id="a_node8"><a xlink:href="../../d9/dfb/Fun4PrgTrkDev_8C.html#a5f65e7394cb50b6f7d7e12ba4815b2c6" target="_top" xlink:title="Fun4PrgTrkDev">
<polygon fill="none" stroke="black" points="705.5,-570.5 705.5,-589.5 790.5,-589.5 790.5,-570.5 705.5,-570.5"/>
<text text-anchor="middle" x="748" y="-577.5" font-family="FreeSans" font-size="10.00">Fun4PrgTrkDev</text>
</a>
</g>
</g>
<!-- Node5&#45;&gt;Node8 -->
<g id="edge7" class="edge"><title>Node5&#45;&gt;Node8</title>
<path fill="none" stroke="midnightblue" d="M642.998,-348.122C644.805,-349.599 646.486,-351.22 648,-353 708.802,-424.45 621.811,-490.754 684,-561 689.604,-567.33 697.232,-571.588 705.246,-574.443"/>
<polygon fill="midnightblue" stroke="midnightblue" points="644.676,-345.039 634.384,-342.524 640.862,-350.908 644.676,-345.039"/>
</g>
<!-- Node9 -->
<g id="node9" class="node"><title>Node9</title>
<g id="a_node9"><a xlink:href="../../d9/de0/Fun4All__G4__BNL_8C.html#a62a558c2bb73d1be82a65b16f52ce2e0" target="_top" xlink:title="Fun4All_G4_BNL">
<polygon fill="none" stroke="black" points="701.5,-532.5 701.5,-551.5 794.5,-551.5 794.5,-532.5 701.5,-532.5"/>
<text text-anchor="middle" x="748" y="-539.5" font-family="FreeSans" font-size="10.00">Fun4All_G4_BNL</text>
</a>
</g>
</g>
<!-- Node5&#45;&gt;Node9 -->
<g id="edge8" class="edge"><title>Node5&#45;&gt;Node9</title>
<path fill="none" stroke="midnightblue" d="M642.813,-348.113C644.681,-349.592 646.424,-351.217 648,-353 699.14,-410.873 631.737,-466.139 684,-523 688.716,-528.131 694.761,-531.895 701.235,-534.653"/>
<polygon fill="midnightblue" stroke="midnightblue" points="644.268,-344.892 633.945,-342.509 640.529,-350.809 644.268,-344.892"/>
</g>
<!-- Node10 -->
<g id="node10" class="node"><title>Node10</title>
<g id="a_node10"><a xlink:href="../../de/dad/Fun4All__G4__BNL__R1_8C.html#a361be596f3554cfa3d0fc26346c50c31" target="_top" xlink:title="Fun4All_G4_BNL_R1">
<polygon fill="none" stroke="black" points="693,-494.5 693,-513.5 803,-513.5 803,-494.5 693,-494.5"/>
<text text-anchor="middle" x="748" y="-501.5" font-family="FreeSans" font-size="10.00">Fun4All_G4_BNL_R1</text>
</a>
</g>
</g>
<!-- Node5&#45;&gt;Node10 -->
<g id="edge9" class="edge"><title>Node5&#45;&gt;Node10</title>
<path fill="none" stroke="midnightblue" d="M642.133,-347.812C644.243,-349.372 646.216,-351.095 648,-353 689.561,-397.39 641.578,-441.432 684,-485 687.746,-488.847 692.24,-491.922 697.081,-494.378"/>
<polygon fill="midnightblue" stroke="midnightblue" points="643.797,-344.729 633.423,-342.575 640.19,-350.728 643.797,-344.729"/>
</g>
<!-- Node11 -->
<g id="node11" class="node"><title>Node11</title>
<g id="a_node11"><a xlink:href="../../d1/d24/Fun4All__G4__E1039_8C.html#ad81863c21df83a735c57713bc9ec59b1" target="_top" xlink:title="Fun4All_G4_E1039">
<polygon fill="none" stroke="black" points="698,-456.5 698,-475.5 798,-475.5 798,-456.5 698,-456.5"/>
<text text-anchor="middle" x="748" y="-463.5" font-family="FreeSans" font-size="10.00">Fun4All_G4_E1039</text>
</a>
</g>
</g>
<!-- Node5&#45;&gt;Node11 -->
<g id="edge10" class="edge"><title>Node5&#45;&gt;Node11</title>
<path fill="none" stroke="midnightblue" d="M641.061,-347.463C643.545,-349.114 645.882,-350.952 648,-353 680.162,-384.096 651.236,-416.539 684,-447 688.183,-450.889 693.136,-453.984 698.398,-456.446"/>
<polygon fill="midnightblue" stroke="midnightblue" points="642.598,-344.313 632.152,-342.543 639.213,-350.441 642.598,-344.313"/>
</g>
<!-- Node12 -->
<g id="node12" class="node"><title>Node12</title>
<g id="a_node12"><a xlink:href="../../de/d10/Fun4All__G4__E1039__R1_8C.html#aa484b834b55e3114dfd4cd82dcd11831" target="_top" xlink:title="Fun4All_G4_E1039_R1">
<polygon fill="none" stroke="black" points="689.5,-418.5 689.5,-437.5 806.5,-437.5 806.5,-418.5 689.5,-418.5"/>
<text text-anchor="middle" x="748" y="-425.5" font-family="FreeSans" font-size="10.00">Fun4All_G4_E1039_R1</text>
</a>
</g>
</g>
<!-- Node5&#45;&gt;Node12 -->
<g id="edge11" class="edge"><title>Node5&#45;&gt;Node12</title>
<path fill="none" stroke="midnightblue" d="M638.471,-346.823C641.842,-348.643 645.063,-350.693 648,-353 671.27,-371.275 660.377,-391.184 684,-409 689.108,-412.852 694.995,-415.928 701.077,-418.383"/>
<polygon fill="midnightblue" stroke="midnightblue" points="639.827,-343.593 629.286,-342.522 636.858,-349.933 639.827,-343.593"/>
</g>
<!-- Node13 -->
<g id="node13" class="node"><title>Node13</title>
<g id="a_node13"><a xlink:href="../../df/d98/Fun4All__G4__E1039__R2_8C.html#a0cc5938b98723b2d5216049aad7edb01" target="_top" xlink:title="Fun4All_G4_E1039_R2">
<polygon fill="none" stroke="black" points="689.5,-380.5 689.5,-399.5 806.5,-399.5 806.5,-380.5 689.5,-380.5"/>
<text text-anchor="middle" x="748" y="-387.5" font-family="FreeSans" font-size="10.00">Fun4All_G4_E1039_R2</text>
</a>
</g>
</g>
<!-- Node5&#45;&gt;Node13 -->
<g id="edge12" class="edge"><title>Node5&#45;&gt;Node13</title>
<path fill="none" stroke="midnightblue" d="M629.662,-345.896C635.852,-348.133 642.136,-350.536 648,-353 664.491,-359.931 667.376,-364.393 684,-371 692.812,-374.502 702.532,-377.73 711.645,-380.494"/>
<polygon fill="midnightblue" stroke="midnightblue" points="630.683,-342.545 620.088,-342.535 628.364,-349.15 630.683,-342.545"/>
</g>
<!-- Node14 -->
<g id="node14" class="node"><title>Node14</title>
<g id="a_node14"><a xlink:href="../../d5/db4/Fun4All__Test_8C.html#ae69a57ea66fbed58544200f95796a66f" target="_top" xlink:title="Fun4All_Test">
<polygon fill="none" stroke="black" points="711,-342.5 711,-361.5 785,-361.5 785,-342.5 711,-342.5"/>
<text text-anchor="middle" x="748" y="-349.5" font-family="FreeSans" font-size="10.00">Fun4All_Test</text>
</a>
</g>
</g>
<!-- Node5&#45;&gt;Node14 -->
<g id="edge13" class="edge"><title>Node5&#45;&gt;Node14</title>
<path fill="none" stroke="midnightblue" d="M647.039,-339.903C668.369,-342.484 691.988,-345.343 710.91,-347.632"/>
<polygon fill="midnightblue" stroke="midnightblue" points="647.453,-336.427 637.105,-338.701 646.612,-343.377 647.453,-336.427"/>
</g>
<!-- Node15 -->
<g id="node15" class="node"><title>Node15</title>
<g id="a_node15"><a xlink:href="../../db/d7c/Fun4DumpGeom_8C.html#ac063d1f79534ea7be7f5e9a08e247c30" target="_top" xlink:title="Fun4kDumpGeom">
<polygon fill="none" stroke="black" points="700.5,-304.5 700.5,-323.5 795.5,-323.5 795.5,-304.5 700.5,-304.5"/>
<text text-anchor="middle" x="748" y="-311.5" font-family="FreeSans" font-size="10.00">Fun4kDumpGeom</text>
</a>
</g>
</g>
<!-- Node5&#45;&gt;Node15 -->
<g id="edge14" class="edge"><title>Node5&#45;&gt;Node15</title>
<path fill="none" stroke="midnightblue" d="M647.209,-326.077C664.72,-323.957 683.76,-321.653 700.469,-319.631"/>
<polygon fill="midnightblue" stroke="midnightblue" points="646.612,-322.623 637.105,-327.299 647.453,-329.573 646.612,-322.623"/>
</g>
<!-- Node16 -->
<g id="node16" class="node"><title>Node16</title>
<g id="a_node16"><a xlink:href="../../dd/d7d/Fun4kTracker_8C.html#abe7052288e4678d0346333383ad821ff" target="_top" xlink:title="Fun4kTracker">
<polygon fill="none" stroke="black" points="709.5,-266.5 709.5,-285.5 786.5,-285.5 786.5,-266.5 709.5,-266.5"/>
<text text-anchor="middle" x="748" y="-273.5" font-family="FreeSans" font-size="10.00">Fun4kTracker</text>
</a>
</g>
</g>
<!-- Node5&#45;&gt;Node16 -->
<g id="edge15" class="edge"><title>Node5&#45;&gt;Node16</title>
<path fill="none" stroke="midnightblue" d="M621.676,-319.354C639.775,-311.77 662.986,-302.399 684,-295 693.375,-291.699 703.654,-288.447 713.14,-285.593"/>
<polygon fill="midnightblue" stroke="midnightblue" points="620.042,-316.245 612.192,-323.36 622.766,-322.693 620.042,-316.245"/>
</g>
<!-- Node17 -->
<g id="node17" class="node"><title>Node17</title>
<g id="a_node17"><a xlink:href="../../d9/d8c/Fun4ReadMySql_8C.html#a82110168fa15d41b073c27eeadfc0ff3" target="_top" xlink:title="Fun4ReadMySql">
<polygon fill="none" stroke="black" points="704,-228.5 704,-247.5 792,-247.5 792,-228.5 704,-228.5"/>
<text text-anchor="middle" x="748" y="-235.5" font-family="FreeSans" font-size="10.00">Fun4ReadMySql</text>
</a>
</g>
</g>
<!-- Node5&#45;&gt;Node17 -->
<g id="edge16" class="edge"><title>Node5&#45;&gt;Node17</title>
<path fill="none" stroke="midnightblue" d="M606.504,-316.265C624.226,-299.158 653.915,-272.908 684,-257 691.069,-253.262 698.983,-250.147 706.751,-247.595"/>
<polygon fill="midnightblue" stroke="midnightblue" points="603.915,-313.901 599.244,-323.411 608.826,-318.89 603.915,-313.901"/>
</g>
<!-- Node18 -->
<g id="node18" class="node"><title>Node18</title>
<g id="a_node18"><a xlink:href="../../d6/d4c/Fun4SeaQuest_8C.html#a81bffd149f5c71602cb40eb0f45019c3" target="_top" xlink:title="Fun4SeaQuest">
<polygon fill="none" stroke="black" points="707,-190.5 707,-209.5 789,-209.5 789,-190.5 707,-190.5"/>
<text text-anchor="middle" x="748" y="-197.5" font-family="FreeSans" font-size="10.00">Fun4SeaQuest</text>
</a>
</g>
</g>
<!-- Node5&#45;&gt;Node18 -->
<g id="edge17" class="edge"><title>Node5&#45;&gt;Node18</title>
<path fill="none" stroke="midnightblue" d="M600.416,-314.508C615.58,-289.246 646.103,-244.214 684,-219 690.848,-214.444 698.828,-210.947 706.76,-208.275"/>
<polygon fill="midnightblue" stroke="midnightblue" points="597.226,-313.029 595.208,-323.43 603.272,-316.558 597.226,-313.029"/>
</g>
<!-- Node19 -->
<g id="node19" class="node"><title>Node19</title>
<g id="a_node19"><a xlink:href="../../d3/dbd/seaquest-offline_2macros_2Fun4Sim_8C.html#a5e9276116ae0064f58b288a1e0e4e3db" target="_top" xlink:title="Fun4Sim">
<polygon fill="none" stroke="black" points="720,-152.5 720,-171.5 776,-171.5 776,-152.5 720,-152.5"/>
<text text-anchor="middle" x="748" y="-159.5" font-family="FreeSans" font-size="10.00">Fun4Sim</text>
</a>
</g>
</g>
<!-- Node5&#45;&gt;Node19 -->
<g id="edge18" class="edge"><title>Node5&#45;&gt;Node19</title>
<path fill="none" stroke="midnightblue" d="M596.801,-313.463C609.076,-281.069 638.015,-216.317 684,-181 694.329,-173.067 707.952,-168.432 719.886,-165.73"/>
<polygon fill="midnightblue" stroke="midnightblue" points="593.418,-312.525 593.277,-323.119 599.993,-314.925 593.418,-312.525"/>
</g>
<!-- Node20 -->
<g id="node20" class="node"><title>Node20</title>
<g id="a_node20"><a xlink:href="../../de/d48/Fun4TestAnalyzer_8C.html#af993f3ce438e5ebcb52b97e41124a3db" target="_top" xlink:title="Fun4TestAnalyzer">
<polygon fill="none" stroke="black" points="700.5,-114.5 700.5,-133.5 795.5,-133.5 795.5,-114.5 700.5,-114.5"/>
<text text-anchor="middle" x="748" y="-121.5" font-family="FreeSans" font-size="10.00">Fun4TestAnalyzer</text>
</a>
</g>
</g>
<!-- Node5&#45;&gt;Node20 -->
<g id="edge19" class="edge"><title>Node5&#45;&gt;Node20</title>
<path fill="none" stroke="midnightblue" d="M594.168,-313.539C603.409,-275.13 629.274,-189.295 684,-143 688.797,-138.942 694.441,-135.751 700.346,-133.241"/>
<polygon fill="midnightblue" stroke="midnightblue" points="590.72,-312.915 591.905,-323.443 597.544,-314.474 590.72,-312.915"/>
</g>
<!-- Node21 -->
<g id="node21" class="node"><title>Node21</title>
<g id="a_node21"><a xlink:href="../../df/d51/Fun4All__ExportGeom_8C.html#a582925c51bad38d562cf19e71211adfd" target="_top" xlink:title="get geometry from DST file and output TGeoManager ROOT files or other formats of geometry files ...">
<polygon fill="none" stroke="black" points="694,-76.5 694,-95.5 802,-95.5 802,-76.5 694,-76.5"/>
<text text-anchor="middle" x="748" y="-83.5" font-family="FreeSans" font-size="10.00">Fun4All_ExportGeom</text>
</a>
</g>
</g>
<!-- Node5&#45;&gt;Node21 -->
<g id="edge20" class="edge"><title>Node5&#45;&gt;Node21</title>
<path fill="none" stroke="midnightblue" d="M592.455,-313.049C598.951,-268.917 620.672,-162.399 684,-105 688.317,-101.087 693.414,-97.9794 698.809,-95.511"/>
<polygon fill="midnightblue" stroke="midnightblue" points="588.97,-312.701 591.087,-323.082 595.906,-313.646 588.97,-312.701"/>
</g>
<!-- Node22 -->
<g id="node22" class="node"><title>Node22</title>
<g id="a_node22"><a xlink:href="../../d9/d0f/Fun4All__ImportGeom_8C.html#a3388968a8dae60e9eb62b1126f747b6a" target="_top" xlink:title="Read in a Geometry file, and output DST and ROOT TGeo files. ">
<polygon fill="none" stroke="black" points="693.5,-38.5 693.5,-57.5 802.5,-57.5 802.5,-38.5 693.5,-38.5"/>
<text text-anchor="middle" x="748" y="-45.5" font-family="FreeSans" font-size="10.00">Fun4All_ImportGeom</text>
</a>
</g>
</g>
<!-- Node5&#45;&gt;Node22 -->
<g id="edge21" class="edge"><title>Node5&#45;&gt;Node22</title>
<path fill="none" stroke="midnightblue" d="M591.105,-313.169C594.921,-264.105 611.667,-136.027 684,-67 688.05,-63.1354 692.857,-60.0541 697.984,-57.5979"/>
<polygon fill="midnightblue" stroke="midnightblue" points="587.597,-313.161 590.414,-323.375 594.581,-313.634 587.597,-313.161"/>
</g>
<!-- Node23 -->
<g id="node23" class="node"><title>Node23</title>
<g id="a_node23"><a xlink:href="../../d6/deb/PHGeom__DSTInspection_8C.html#a8a06a40e2950cd31dda512c040049cd0" target="_top" xlink:title="PHGeom_DSTInspection">
<polygon fill="none" stroke="black" points="684.5,-0.5 684.5,-19.5 811.5,-19.5 811.5,-0.5 684.5,-0.5"/>
<text text-anchor="middle" x="748" y="-7.5" font-family="FreeSans" font-size="10.00">PHGeom_DSTInspection</text>
</a>
</g>
</g>
<!-- Node5&#45;&gt;Node23 -->
<g id="edge22" class="edge"><title>Node5&#45;&gt;Node23</title>
<path fill="none" stroke="midnightblue" d="M590.08,-313.296C591.396,-259.698 602.562,-109.872 684,-29 687.891,-25.1361 692.538,-22.0532 697.52,-19.5942"/>
<polygon fill="midnightblue" stroke="midnightblue" points="586.578,-313.423 589.926,-323.475 593.577,-313.529 586.578,-313.423"/>
</g>
</g>
</svg>
