<?xml version="1.0" encoding="UTF-8" standalone="no"?>
<!DOCTYPE svg PUBLIC "-//W3C//DTD SVG 1.1//EN"
 "http://www.w3.org/Graphics/SVG/1.1/DTD/svg11.dtd">
<!-- Generated by graphviz version 2.36.0 (20140111.2315)
 -->
<!-- Title: Fun4AllServer::registerOutputManager Pages: 1 -->
<svg width="298pt" height="104pt"
 viewBox="0.00 0.00 298.00 104.00" xmlns="http://www.w3.org/2000/svg" xmlns:xlink="http://www.w3.org/1999/xlink">
<g id="graph0" class="graph" transform="scale(1 1) rotate(0) translate(4 100)">
<title>Fun4AllServer::registerOutputManager</title>
<!-- Node1 -->
<g id="node1" class="node"><title>Node1</title>
<polygon fill="#bfbfbf" stroke="black" points="0,-33 0,-63 144,-63 144,-33 0,-33"/>
<text text-anchor="start" x="8" y="-51" font-family="FreeSans" font-size="10.00">Fun4AllServer::registerOutput</text>
<text text-anchor="middle" x="72" y="-40" font-family="FreeSans" font-size="10.00">Manager</text>
</g>
<!-- Node2 -->
<g id="node2" class="node"><title>Node2</title>
<g id="a_node2"><a xlink:href="../../d9/d0f/Fun4All__ImportGeom_8C.html#a3388968a8dae60e9eb62b1126f747b6a" target="_top" xlink:title="Read in a Geometry file, and output DST and ROOT TGeo files. ">
<polygon fill="none" stroke="black" points="180.5,-76.5 180.5,-95.5 289.5,-95.5 289.5,-76.5 180.5,-76.5"/>
<text text-anchor="middle" x="235" y="-83.5" font-family="FreeSans" font-size="10.00">Fun4All_ImportGeom</text>
</a>
</g>
</g>
<!-- Node1&#45;&gt;Node2 -->
<g id="edge1" class="edge"><title>Node1&#45;&gt;Node2</title>
<path fill="none" stroke="midnightblue" d="M146.606,-65.3729C162.741,-69.1812 179.249,-73.0773 193.509,-76.4432"/>
<polygon fill="midnightblue" stroke="midnightblue" points="147.168,-61.9094 136.631,-63.0186 145.56,-68.7222 147.168,-61.9094"/>
</g>
<!-- Node3 -->
<g id="node3" class="node"><title>Node3</title>
<g id="a_node3"><a xlink:href="../../d9/d8c/Fun4ReadMySql_8C.html#a82110168fa15d41b073c27eeadfc0ff3" target="_top" xlink:title="Fun4ReadMySql">
<polygon fill="none" stroke="black" points="191,-38.5 191,-57.5 279,-57.5 279,-38.5 191,-38.5"/>
<text text-anchor="middle" x="235" y="-45.5" font-family="FreeSans" font-size="10.00">Fun4ReadMySql</text>
</a>
</g>
</g>
<!-- Node1&#45;&gt;Node3 -->
<g id="edge2" class="edge"><title>Node1&#45;&gt;Node3</title>
<path fill="none" stroke="midnightblue" d="M154.15,-48C166.722,-48 179.273,-48 190.577,-48"/>
<polygon fill="midnightblue" stroke="midnightblue" points="154.086,-44.5001 144.086,-48 154.086,-51.5001 154.086,-44.5001"/>
</g>
<!-- Node4 -->
<g id="node4" class="node"><title>Node4</title>
<g id="a_node4"><a xlink:href="../../d6/d4c/Fun4SeaQuest_8C.html#a81bffd149f5c71602cb40eb0f45019c3" target="_top" xlink:title="Fun4SeaQuest">
<polygon fill="none" stroke="black" points="194,-0.5 194,-19.5 276,-19.5 276,-0.5 194,-0.5"/>
<text text-anchor="middle" x="235" y="-7.5" font-family="FreeSans" font-size="10.00">Fun4SeaQuest</text>
</a>
</g>
</g>
<!-- Node1&#45;&gt;Node4 -->
<g id="edge3" class="edge"><title>Node1&#45;&gt;Node4</title>
<path fill="none" stroke="midnightblue" d="M146.698,-30.6053C162.983,-26.7618 179.641,-22.83 193.982,-19.4451"/>
<polygon fill="midnightblue" stroke="midnightblue" points="145.56,-27.2778 136.631,-32.9814 147.168,-34.0906 145.56,-27.2778"/>
</g>
</g>
</svg>
