<?xml version="1.0" encoding="UTF-8" standalone="no"?>
<!DOCTYPE svg PUBLIC "-//W3C//DTD SVG 1.1//EN"
 "http://www.w3.org/Graphics/SVG/1.1/DTD/svg11.dtd">
<!-- Generated by graphviz version 2.36.0 (20140111.2315)
 -->
<!-- Title: Fun4AllServer::process_event Pages: 1 -->
<svg width="444pt" height="598pt"
 viewBox="0.00 0.00 444.00 598.00" xmlns="http://www.w3.org/2000/svg" xmlns:xlink="http://www.w3.org/1999/xlink">
<g id="graph0" class="graph" transform="scale(1 1) rotate(0) translate(4 594)">
<title>Fun4AllServer::process_event</title>
<!-- Node1 -->
<g id="node1" class="node"><title>Node1</title>
<polygon fill="#bfbfbf" stroke="black" points="0.5,-302 0.5,-332 117.5,-332 117.5,-302 0.5,-302"/>
<text text-anchor="start" x="8.5" y="-320" font-family="FreeSans" font-size="10.00">Fun4AllServer::process</text>
<text text-anchor="middle" x="59" y="-309" font-family="FreeSans" font-size="10.00">_event</text>
</g>
<!-- Node2 -->
<g id="node2" class="node"><title>Node2</title>
<g id="a_node2"><a xlink:href="../../da/d29/classFun4AllServer.html#a94738b092fa009fcea45737d8ea41224" target="_top" xlink:title="Fun4AllServer::process\l_event">
<polygon fill="none" stroke="black" points="154.5,-324 154.5,-354 271.5,-354 271.5,-324 154.5,-324"/>
<text text-anchor="start" x="162.5" y="-342" font-family="FreeSans" font-size="10.00">Fun4AllServer::process</text>
<text text-anchor="middle" x="213" y="-331" font-family="FreeSans" font-size="10.00">_event</text>
</a>
</g>
</g>
<!-- Node1&#45;&gt;Node2 -->
<g id="edge1" class="edge"><title>Node1&#45;&gt;Node2</title>
<path fill="none" stroke="midnightblue" d="M128.072,-326.852C136.817,-328.118 145.704,-329.405 154.263,-330.643"/>
<polygon fill="midnightblue" stroke="midnightblue" points="128.297,-323.349 117.898,-325.38 127.294,-330.276 128.297,-323.349"/>
</g>
<!-- Node3 -->
<g id="node3" class="node"><title>Node3</title>
<g id="a_node3"><a xlink:href="../../da/d29/classFun4AllServer.html#a11bbc8b2f53bc06e0b05ee202dd6372a" target="_top" xlink:title="run n events (0 means up to end of file) ">
<polygon fill="none" stroke="black" points="165,-285.5 165,-304.5 261,-304.5 261,-285.5 165,-285.5"/>
<text text-anchor="middle" x="213" y="-292.5" font-family="FreeSans" font-size="10.00">Fun4AllServer::run</text>
</a>
</g>
</g>
<!-- Node1&#45;&gt;Node3 -->
<g id="edge2" class="edge"><title>Node1&#45;&gt;Node3</title>
<path fill="none" stroke="midnightblue" d="M128.152,-307.136C140.471,-305.353 153.067,-303.53 164.629,-301.856"/>
<polygon fill="midnightblue" stroke="midnightblue" points="127.294,-303.724 117.898,-308.62 128.297,-310.651 127.294,-303.724"/>
</g>
<!-- Node4 -->
<g id="node4" class="node"><title>Node4</title>
<g id="a_node4"><a xlink:href="../../d9/de0/Fun4All__G4__BNL_8C.html#a62a558c2bb73d1be82a65b16f52ce2e0" target="_top" xlink:title="Fun4All_G4_BNL">
<polygon fill="none" stroke="black" points="325.5,-570.5 325.5,-589.5 418.5,-589.5 418.5,-570.5 325.5,-570.5"/>
<text text-anchor="middle" x="372" y="-577.5" font-family="FreeSans" font-size="10.00">Fun4All_G4_BNL</text>
</a>
</g>
</g>
<!-- Node3&#45;&gt;Node4 -->
<g id="edge3" class="edge"><title>Node3&#45;&gt;Node4</title>
<path fill="none" stroke="midnightblue" d="M267.155,-310.156C268.909,-311.624 270.537,-313.234 272,-315 342.508,-400.079 235.84,-477.318 308,-561 312.625,-566.364 318.706,-570.244 325.265,-573.045"/>
<polygon fill="midnightblue" stroke="midnightblue" points="269.041,-307.207 258.776,-304.584 265.165,-313.036 269.041,-307.207"/>
</g>
<!-- Node5 -->
<g id="node5" class="node"><title>Node5</title>
<g id="a_node5"><a xlink:href="../../de/dad/Fun4All__G4__BNL__R1_8C.html#a361be596f3554cfa3d0fc26346c50c31" target="_top" xlink:title="Fun4All_G4_BNL_R1">
<polygon fill="none" stroke="black" points="317,-532.5 317,-551.5 427,-551.5 427,-532.5 317,-532.5"/>
<text text-anchor="middle" x="372" y="-539.5" font-family="FreeSans" font-size="10.00">Fun4All_G4_BNL_R1</text>
</a>
</g>
</g>
<!-- Node3&#45;&gt;Node5 -->
<g id="edge4" class="edge"><title>Node3&#45;&gt;Node5</title>
<path fill="none" stroke="midnightblue" d="M266.998,-310.122C268.805,-311.599 270.486,-313.22 272,-315 332.802,-386.45 245.811,-452.754 308,-523 311.408,-526.849 315.564,-529.932 320.1,-532.399"/>
<polygon fill="midnightblue" stroke="midnightblue" points="268.676,-307.039 258.384,-304.524 264.862,-312.908 268.676,-307.039"/>
</g>
<!-- Node6 -->
<g id="node6" class="node"><title>Node6</title>
<g id="a_node6"><a xlink:href="../../d1/d24/Fun4All__G4__E1039_8C.html#ad81863c21df83a735c57713bc9ec59b1" target="_top" xlink:title="Fun4All_G4_E1039">
<polygon fill="none" stroke="black" points="322,-494.5 322,-513.5 422,-513.5 422,-494.5 322,-494.5"/>
<text text-anchor="middle" x="372" y="-501.5" font-family="FreeSans" font-size="10.00">Fun4All_G4_E1039</text>
</a>
</g>
</g>
<!-- Node3&#45;&gt;Node6 -->
<g id="edge5" class="edge"><title>Node3&#45;&gt;Node6</title>
<path fill="none" stroke="midnightblue" d="M266.813,-310.113C268.681,-311.592 270.424,-313.217 272,-315 323.14,-372.873 255.737,-428.139 308,-485 311.865,-489.205 316.624,-492.493 321.78,-495.061"/>
<polygon fill="midnightblue" stroke="midnightblue" points="268.268,-306.892 257.945,-304.509 264.529,-312.809 268.268,-306.892"/>
</g>
<!-- Node7 -->
<g id="node7" class="node"><title>Node7</title>
<g id="a_node7"><a xlink:href="../../de/d10/Fun4All__G4__E1039__R1_8C.html#aa484b834b55e3114dfd4cd82dcd11831" target="_top" xlink:title="Fun4All_G4_E1039_R1">
<polygon fill="none" stroke="black" points="313.5,-456.5 313.5,-475.5 430.5,-475.5 430.5,-456.5 313.5,-456.5"/>
<text text-anchor="middle" x="372" y="-463.5" font-family="FreeSans" font-size="10.00">Fun4All_G4_E1039_R1</text>
</a>
</g>
</g>
<!-- Node3&#45;&gt;Node7 -->
<g id="edge6" class="edge"><title>Node3&#45;&gt;Node7</title>
<path fill="none" stroke="midnightblue" d="M266.133,-309.812C268.243,-311.372 270.216,-313.095 272,-315 313.561,-359.39 265.578,-403.432 308,-447 311.746,-450.847 316.24,-453.922 321.081,-456.378"/>
<polygon fill="midnightblue" stroke="midnightblue" points="267.797,-306.729 257.423,-304.575 264.19,-312.728 267.797,-306.729"/>
</g>
<!-- Node8 -->
<g id="node8" class="node"><title>Node8</title>
<g id="a_node8"><a xlink:href="../../df/d98/Fun4All__G4__E1039__R2_8C.html#a0cc5938b98723b2d5216049aad7edb01" target="_top" xlink:title="Fun4All_G4_E1039_R2">
<polygon fill="none" stroke="black" points="313.5,-418.5 313.5,-437.5 430.5,-437.5 430.5,-418.5 313.5,-418.5"/>
<text text-anchor="middle" x="372" y="-425.5" font-family="FreeSans" font-size="10.00">Fun4All_G4_E1039_R2</text>
</a>
</g>
</g>
<!-- Node3&#45;&gt;Node8 -->
<g id="edge7" class="edge"><title>Node3&#45;&gt;Node8</title>
<path fill="none" stroke="midnightblue" d="M265.061,-309.463C267.545,-311.114 269.882,-312.952 272,-315 304.162,-346.096 275.236,-378.539 308,-409 312.183,-412.889 317.136,-415.984 322.398,-418.446"/>
<polygon fill="midnightblue" stroke="midnightblue" points="266.598,-306.313 256.152,-304.543 263.213,-312.441 266.598,-306.313"/>
</g>
<!-- Node9 -->
<g id="node9" class="node"><title>Node9</title>
<g id="a_node9"><a xlink:href="../../d5/db4/Fun4All__Test_8C.html#ae69a57ea66fbed58544200f95796a66f" target="_top" xlink:title="Fun4All_Test">
<polygon fill="none" stroke="black" points="335,-380.5 335,-399.5 409,-399.5 409,-380.5 335,-380.5"/>
<text text-anchor="middle" x="372" y="-387.5" font-family="FreeSans" font-size="10.00">Fun4All_Test</text>
</a>
</g>
</g>
<!-- Node3&#45;&gt;Node9 -->
<g id="edge8" class="edge"><title>Node3&#45;&gt;Node9</title>
<path fill="none" stroke="midnightblue" d="M262.471,-308.823C265.842,-310.643 269.063,-312.693 272,-315 295.27,-333.275 284.377,-353.184 308,-371 315.844,-376.916 325.528,-381.001 334.93,-383.818"/>
<polygon fill="midnightblue" stroke="midnightblue" points="263.827,-305.593 253.286,-304.522 260.858,-311.933 263.827,-305.593"/>
</g>
<!-- Node10 -->
<g id="node10" class="node"><title>Node10</title>
<g id="a_node10"><a xlink:href="../../d4/d87/int__run_8C.html#a088590a1a5b93b904ba076de8ca1ef82" target="_top" xlink:title="int_run">
<polygon fill="none" stroke="black" points="349,-342.5 349,-361.5 395,-361.5 395,-342.5 349,-342.5"/>
<text text-anchor="middle" x="372" y="-349.5" font-family="FreeSans" font-size="10.00">int_run</text>
</a>
</g>
</g>
<!-- Node3&#45;&gt;Node10 -->
<g id="edge9" class="edge"><title>Node3&#45;&gt;Node10</title>
<path fill="none" stroke="midnightblue" d="M253.662,-307.896C259.852,-310.133 266.136,-312.536 272,-315 288.491,-321.931 291.376,-326.393 308,-333 321.271,-338.274 336.602,-342.928 348.818,-346.309"/>
<polygon fill="midnightblue" stroke="midnightblue" points="254.683,-304.545 244.088,-304.535 252.364,-311.15 254.683,-304.545"/>
</g>
<!-- Node11 -->
<g id="node11" class="node"><title>Node11</title>
<g id="a_node11"><a xlink:href="../../db/d7c/Fun4DumpGeom_8C.html#ac063d1f79534ea7be7f5e9a08e247c30" target="_top" xlink:title="Fun4kDumpGeom">
<polygon fill="none" stroke="black" points="324.5,-304.5 324.5,-323.5 419.5,-323.5 419.5,-304.5 324.5,-304.5"/>
<text text-anchor="middle" x="372" y="-311.5" font-family="FreeSans" font-size="10.00">Fun4kDumpGeom</text>
</a>
</g>
</g>
<!-- Node3&#45;&gt;Node11 -->
<g id="edge10" class="edge"><title>Node3&#45;&gt;Node11</title>
<path fill="none" stroke="midnightblue" d="M271.209,-301.923C288.72,-304.043 307.76,-306.347 324.469,-308.369"/>
<polygon fill="midnightblue" stroke="midnightblue" points="271.453,-298.427 261.105,-300.701 270.612,-305.377 271.453,-298.427"/>
</g>
<!-- Node12 -->
<g id="node12" class="node"><title>Node12</title>
<g id="a_node12"><a xlink:href="../../dd/d7d/Fun4kTracker_8C.html#abe7052288e4678d0346333383ad821ff" target="_top" xlink:title="Fun4kTracker">
<polygon fill="none" stroke="black" points="333.5,-266.5 333.5,-285.5 410.5,-285.5 410.5,-266.5 333.5,-266.5"/>
<text text-anchor="middle" x="372" y="-273.5" font-family="FreeSans" font-size="10.00">Fun4kTracker</text>
</a>
</g>
</g>
<!-- Node3&#45;&gt;Node12 -->
<g id="edge11" class="edge"><title>Node3&#45;&gt;Node12</title>
<path fill="none" stroke="midnightblue" d="M271.09,-288.091C291.841,-285.58 314.752,-282.807 333.395,-280.551"/>
<polygon fill="midnightblue" stroke="midnightblue" points="270.612,-284.623 261.105,-289.299 271.453,-291.573 270.612,-284.623"/>
</g>
<!-- Node13 -->
<g id="node13" class="node"><title>Node13</title>
<g id="a_node13"><a xlink:href="../../d9/d8c/Fun4ReadMySql_8C.html#ab4da1ea0915fd586cbcf2cfc72ec8a16" target="_top" xlink:title="Fun4ReadMySql">
<polygon fill="none" stroke="black" points="328,-228.5 328,-247.5 416,-247.5 416,-228.5 328,-228.5"/>
<text text-anchor="middle" x="372" y="-235.5" font-family="FreeSans" font-size="10.00">Fun4ReadMySql</text>
</a>
</g>
</g>
<!-- Node3&#45;&gt;Node13 -->
<g id="edge12" class="edge"><title>Node3&#45;&gt;Node13</title>
<path fill="none" stroke="midnightblue" d="M245.676,-281.354C263.775,-273.77 286.986,-264.399 308,-257 317.375,-253.699 327.654,-250.447 337.14,-247.593"/>
<polygon fill="midnightblue" stroke="midnightblue" points="244.042,-278.245 236.192,-285.36 246.766,-284.693 244.042,-278.245"/>
</g>
<!-- Node14 -->
<g id="node14" class="node"><title>Node14</title>
<g id="a_node14"><a xlink:href="../../d6/d4c/Fun4SeaQuest_8C.html#a81bffd149f5c71602cb40eb0f45019c3" target="_top" xlink:title="Fun4SeaQuest">
<polygon fill="none" stroke="black" points="331,-190.5 331,-209.5 413,-209.5 413,-190.5 331,-190.5"/>
<text text-anchor="middle" x="372" y="-197.5" font-family="FreeSans" font-size="10.00">Fun4SeaQuest</text>
</a>
</g>
</g>
<!-- Node3&#45;&gt;Node14 -->
<g id="edge13" class="edge"><title>Node3&#45;&gt;Node14</title>
<path fill="none" stroke="midnightblue" d="M230.504,-278.265C248.226,-261.158 277.915,-234.908 308,-219 315.069,-215.262 322.983,-212.147 330.751,-209.595"/>
<polygon fill="midnightblue" stroke="midnightblue" points="227.915,-275.901 223.244,-285.411 232.826,-280.89 227.915,-275.901"/>
</g>
<!-- Node15 -->
<g id="node15" class="node"><title>Node15</title>
<g id="a_node15"><a xlink:href="../../dc/d1d/Fun4Sim_8C.html#a13db461d7442e3977a7c3773cd8119df" target="_top" xlink:title="Fun4Sim">
<polygon fill="none" stroke="black" points="344,-152.5 344,-171.5 400,-171.5 400,-152.5 344,-152.5"/>
<text text-anchor="middle" x="372" y="-159.5" font-family="FreeSans" font-size="10.00">Fun4Sim</text>
</a>
</g>
</g>
<!-- Node3&#45;&gt;Node15 -->
<g id="edge14" class="edge"><title>Node3&#45;&gt;Node15</title>
<path fill="none" stroke="midnightblue" d="M224.416,-276.508C239.58,-251.246 270.103,-206.214 308,-181 318.653,-173.912 332.043,-169.39 343.736,-166.544"/>
<polygon fill="midnightblue" stroke="midnightblue" points="221.226,-275.029 219.208,-285.43 227.272,-278.558 221.226,-275.029"/>
</g>
<!-- Node16 -->
<g id="node16" class="node"><title>Node16</title>
<g id="a_node16"><a xlink:href="../../de/d48/Fun4TestAnalyzer_8C.html#af993f3ce438e5ebcb52b97e41124a3db" target="_top" xlink:title="Fun4TestAnalyzer">
<polygon fill="none" stroke="black" points="324.5,-114.5 324.5,-133.5 419.5,-133.5 419.5,-114.5 324.5,-114.5"/>
<text text-anchor="middle" x="372" y="-121.5" font-family="FreeSans" font-size="10.00">Fun4TestAnalyzer</text>
</a>
</g>
</g>
<!-- Node3&#45;&gt;Node16 -->
<g id="edge15" class="edge"><title>Node3&#45;&gt;Node16</title>
<path fill="none" stroke="midnightblue" d="M220.801,-275.463C233.076,-243.069 262.015,-178.317 308,-143 313.074,-139.103 318.942,-136.002 325.015,-133.535"/>
<polygon fill="midnightblue" stroke="midnightblue" points="217.418,-274.525 217.277,-285.119 223.993,-276.925 217.418,-274.525"/>
</g>
<!-- Node17 -->
<g id="node17" class="node"><title>Node17</title>
<g id="a_node17"><a xlink:href="../../df/d51/Fun4All__ExportGeom_8C.html#a582925c51bad38d562cf19e71211adfd" target="_top" xlink:title="get geometry from DST file and output TGeoManager ROOT files or other formats of geometry files ...">
<polygon fill="none" stroke="black" points="318,-76.5 318,-95.5 426,-95.5 426,-76.5 318,-76.5"/>
<text text-anchor="middle" x="372" y="-83.5" font-family="FreeSans" font-size="10.00">Fun4All_ExportGeom</text>
</a>
</g>
</g>
<!-- Node3&#45;&gt;Node17 -->
<g id="edge16" class="edge"><title>Node3&#45;&gt;Node17</title>
<path fill="none" stroke="midnightblue" d="M218.168,-275.539C227.409,-237.13 253.274,-151.295 308,-105 312.623,-101.09 318.031,-97.9838 323.703,-95.5173"/>
<polygon fill="midnightblue" stroke="midnightblue" points="214.72,-274.915 215.905,-285.443 221.544,-276.474 214.72,-274.915"/>
</g>
<!-- Node18 -->
<g id="node18" class="node"><title>Node18</title>
<g id="a_node18"><a xlink:href="../../d9/d0f/Fun4All__ImportGeom_8C.html#a3388968a8dae60e9eb62b1126f747b6a" target="_top" xlink:title="Read in a Geometry file, and output DST and ROOT TGeo files. ">
<polygon fill="none" stroke="black" points="317.5,-38.5 317.5,-57.5 426.5,-57.5 426.5,-38.5 317.5,-38.5"/>
<text text-anchor="middle" x="372" y="-45.5" font-family="FreeSans" font-size="10.00">Fun4All_ImportGeom</text>
</a>
</g>
</g>
<!-- Node3&#45;&gt;Node18 -->
<g id="edge17" class="edge"><title>Node3&#45;&gt;Node18</title>
<path fill="none" stroke="midnightblue" d="M216.455,-275.049C222.951,-230.917 244.672,-124.399 308,-67 312.317,-63.0872 317.414,-59.9794 322.809,-57.511"/>
<polygon fill="midnightblue" stroke="midnightblue" points="212.97,-274.701 215.087,-285.082 219.906,-275.646 212.97,-274.701"/>
</g>
<!-- Node19 -->
<g id="node19" class="node"><title>Node19</title>
<g id="a_node19"><a xlink:href="../../d6/deb/PHGeom__DSTInspection_8C.html#a8a06a40e2950cd31dda512c040049cd0" target="_top" xlink:title="PHGeom_DSTInspection">
<polygon fill="none" stroke="black" points="308.5,-0.5 308.5,-19.5 435.5,-19.5 435.5,-0.5 308.5,-0.5"/>
<text text-anchor="middle" x="372" y="-7.5" font-family="FreeSans" font-size="10.00">PHGeom_DSTInspection</text>
</a>
</g>
</g>
<!-- Node3&#45;&gt;Node19 -->
<g id="edge18" class="edge"><title>Node3&#45;&gt;Node19</title>
<path fill="none" stroke="midnightblue" d="M215.105,-275.169C218.921,-226.105 235.667,-98.0265 308,-29 312.05,-25.1354 316.857,-22.0541 321.984,-19.5979"/>
<polygon fill="midnightblue" stroke="midnightblue" points="211.597,-275.161 214.414,-285.375 218.581,-275.634 211.597,-275.161"/>
</g>
</g>
</svg>
