<?xml version="1.0" encoding="UTF-8" standalone="no"?>
<!DOCTYPE svg PUBLIC "-//W3C//DTD SVG 1.1//EN"
 "http://www.w3.org/Graphics/SVG/1.1/DTD/svg11.dtd">
<!-- Generated by graphviz version 2.36.0 (20140111.2315)
 -->
<!-- Title: Fun4AllServer::CountOutNodes Pages: 1 -->
<svg width="632pt" height="712pt"
 viewBox="0.00 0.00 632.00 712.00" xmlns="http://www.w3.org/2000/svg" xmlns:xlink="http://www.w3.org/1999/xlink">
<g id="graph0" class="graph" transform="scale(1 1) rotate(0) translate(4 708)">
<title>Fun4AllServer::CountOutNodes</title>
<!-- Node1 -->
<g id="node1" class="node"><title>Node1</title>
<polygon fill="#bfbfbf" stroke="black" points="0,-364.5 0,-383.5 152,-383.5 152,-364.5 0,-364.5"/>
<text text-anchor="middle" x="76" y="-371.5" font-family="FreeSans" font-size="10.00">Fun4AllServer::CountOutNodes</text>
</g>
<!-- Node2 -->
<g id="node2" class="node"><title>Node2</title>
<g id="a_node2"><a xlink:href="../../da/d29/classFun4AllServer.html#a6a65a944dfb40966ace97d35ab1f7942" target="_top" xlink:title="Fun4AllServer::process\l_event">
<polygon fill="none" stroke="black" points="188.5,-359 188.5,-389 305.5,-389 305.5,-359 188.5,-359"/>
<text text-anchor="start" x="196.5" y="-377" font-family="FreeSans" font-size="10.00">Fun4AllServer::process</text>
<text text-anchor="middle" x="247" y="-366" font-family="FreeSans" font-size="10.00">_event</text>
</a>
</g>
</g>
<!-- Node1&#45;&gt;Node2 -->
<g id="edge1" class="edge"><title>Node1&#45;&gt;Node2</title>
<path fill="none" stroke="midnightblue" d="M162.128,-374C171.015,-374 179.894,-374 188.37,-374"/>
<polygon fill="midnightblue" stroke="midnightblue" points="162.11,-370.5 152.11,-374 162.11,-377.5 162.11,-370.5"/>
</g>
<!-- Node3 -->
<g id="node3" class="node"><title>Node3</title>
<g id="a_node3"><a xlink:href="../../da/d29/classFun4AllServer.html#a94738b092fa009fcea45737d8ea41224" target="_top" xlink:title="Fun4AllServer::process\l_event">
<polygon fill="none" stroke="black" points="342.5,-381 342.5,-411 459.5,-411 459.5,-381 342.5,-381"/>
<text text-anchor="start" x="350.5" y="-399" font-family="FreeSans" font-size="10.00">Fun4AllServer::process</text>
<text text-anchor="middle" x="401" y="-388" font-family="FreeSans" font-size="10.00">_event</text>
</a>
</g>
</g>
<!-- Node2&#45;&gt;Node3 -->
<g id="edge2" class="edge"><title>Node2&#45;&gt;Node3</title>
<path fill="none" stroke="midnightblue" d="M316.072,-383.852C324.817,-385.118 333.704,-386.405 342.263,-387.643"/>
<polygon fill="midnightblue" stroke="midnightblue" points="316.297,-380.349 305.898,-382.38 315.294,-387.276 316.297,-380.349"/>
</g>
<!-- Node4 -->
<g id="node4" class="node"><title>Node4</title>
<g id="a_node4"><a xlink:href="../../da/d29/classFun4AllServer.html#a11bbc8b2f53bc06e0b05ee202dd6372a" target="_top" xlink:title="run n events (0 means up to end of file) ">
<polygon fill="none" stroke="black" points="353,-342.5 353,-361.5 449,-361.5 449,-342.5 353,-342.5"/>
<text text-anchor="middle" x="401" y="-349.5" font-family="FreeSans" font-size="10.00">Fun4AllServer::run</text>
</a>
</g>
</g>
<!-- Node2&#45;&gt;Node4 -->
<g id="edge3" class="edge"><title>Node2&#45;&gt;Node4</title>
<path fill="none" stroke="midnightblue" d="M316.152,-364.136C328.471,-362.353 341.067,-360.53 352.629,-358.856"/>
<polygon fill="midnightblue" stroke="midnightblue" points="315.294,-360.724 305.898,-365.62 316.297,-367.651 315.294,-360.724"/>
</g>
<!-- Node5 -->
<g id="node5" class="node"><title>Node5</title>
<g id="a_node5"><a xlink:href="../../d2/d24/Fun4E1039Shielding_8C.html#a42592782dd55d6e219305ff678a00dc2" target="_top" xlink:title="Fun4E1039Shielding">
<polygon fill="none" stroke="black" points="507.5,-684.5 507.5,-703.5 612.5,-703.5 612.5,-684.5 507.5,-684.5"/>
<text text-anchor="middle" x="560" y="-691.5" font-family="FreeSans" font-size="10.00">Fun4E1039Shielding</text>
</a>
</g>
</g>
<!-- Node4&#45;&gt;Node5 -->
<g id="edge4" class="edge"><title>Node4&#45;&gt;Node5</title>
<path fill="none" stroke="midnightblue" d="M455.704,-367.529C457.255,-368.896 458.696,-370.383 460,-372 545.114,-477.578 408.835,-571.108 496,-675 499.231,-678.851 503.212,-681.939 507.59,-684.413"/>
<polygon fill="midnightblue" stroke="midnightblue" points="457.39,-364.441 447.171,-361.645 453.416,-370.203 457.39,-364.441"/>
</g>
<!-- Node6 -->
<g id="node6" class="node"><title>Node6</title>
<g id="a_node6"><a xlink:href="../../d1/da2/E1039Shielding_2int__run_8C.html#a088590a1a5b93b904ba076de8ca1ef82" target="_top" xlink:title="int_run">
<polygon fill="none" stroke="black" points="537,-646.5 537,-665.5 583,-665.5 583,-646.5 537,-646.5"/>
<text text-anchor="middle" x="560" y="-653.5" font-family="FreeSans" font-size="10.00">int_run</text>
</a>
</g>
</g>
<!-- Node4&#45;&gt;Node6 -->
<g id="edge5" class="edge"><title>Node4&#45;&gt;Node6</title>
<path fill="none" stroke="midnightblue" d="M455.178,-367.137C456.926,-368.61 458.546,-370.227 460,-372 535.372,-463.906 418.843,-546.587 496,-637 506.011,-648.731 522.984,-653.374 536.791,-655.141"/>
<polygon fill="midnightblue" stroke="midnightblue" points="457.077,-364.196 446.819,-361.549 453.187,-370.016 457.077,-364.196"/>
</g>
<!-- Node7 -->
<g id="node7" class="node"><title>Node7</title>
<g id="a_node7"><a xlink:href="../../d6/d6a/Fun4HodoAccGap_8C.html#a7aaa0687f144d5e7b417d7e9ac5f36da" target="_top" xlink:title="Fun4HodoAccGap">
<polygon fill="none" stroke="black" points="511.5,-608.5 511.5,-627.5 608.5,-627.5 608.5,-608.5 511.5,-608.5"/>
<text text-anchor="middle" x="560" y="-615.5" font-family="FreeSans" font-size="10.00">Fun4HodoAccGap</text>
</a>
</g>
</g>
<!-- Node4&#45;&gt;Node7 -->
<g id="edge6" class="edge"><title>Node4&#45;&gt;Node7</title>
<path fill="none" stroke="midnightblue" d="M455.129,-367.178C456.89,-368.64 458.526,-370.243 460,-372 525.651,-450.259 428.83,-522.041 496,-599 500.207,-603.82 505.588,-607.44 511.428,-610.155"/>
<polygon fill="midnightblue" stroke="midnightblue" points="457,-364.219 446.727,-361.625 453.14,-370.059 457,-364.219"/>
</g>
<!-- Node8 -->
<g id="node8" class="node"><title>Node8</title>
<g id="a_node8"><a xlink:href="../../d9/dfb/Fun4PrgTrkDev_8C.html#a5f65e7394cb50b6f7d7e12ba4815b2c6" target="_top" xlink:title="Fun4PrgTrkDev">
<polygon fill="none" stroke="black" points="517.5,-570.5 517.5,-589.5 602.5,-589.5 602.5,-570.5 517.5,-570.5"/>
<text text-anchor="middle" x="560" y="-577.5" font-family="FreeSans" font-size="10.00">Fun4PrgTrkDev</text>
</a>
</g>
</g>
<!-- Node4&#45;&gt;Node8 -->
<g id="edge7" class="edge"><title>Node4&#45;&gt;Node8</title>
<path fill="none" stroke="midnightblue" d="M454.96,-367.154C456.778,-368.623 458.471,-370.233 460,-372 515.964,-436.653 438.782,-497.454 496,-561 501.657,-567.282 509.307,-571.52 517.326,-574.371"/>
<polygon fill="midnightblue" stroke="midnightblue" points="456.617,-364.058 446.315,-361.583 452.825,-369.942 456.617,-364.058"/>
</g>
<!-- Node9 -->
<g id="node9" class="node"><title>Node9</title>
<g id="a_node9"><a xlink:href="../../d9/de0/Fun4All__G4__BNL_8C.html#a62a558c2bb73d1be82a65b16f52ce2e0" target="_top" xlink:title="Fun4All_G4_BNL">
<polygon fill="none" stroke="black" points="513.5,-532.5 513.5,-551.5 606.5,-551.5 606.5,-532.5 513.5,-532.5"/>
<text text-anchor="middle" x="560" y="-539.5" font-family="FreeSans" font-size="10.00">Fun4All_G4_BNL</text>
</a>
</g>
</g>
<!-- Node4&#45;&gt;Node9 -->
<g id="edge8" class="edge"><title>Node4&#45;&gt;Node9</title>
<path fill="none" stroke="midnightblue" d="M454.757,-367.163C456.64,-368.629 458.402,-370.237 460,-372 506.336,-423.116 448.672,-472.801 496,-523 500.78,-528.071 506.86,-531.803 513.347,-534.548"/>
<polygon fill="midnightblue" stroke="midnightblue" points="456.179,-363.925 445.842,-361.6 452.473,-369.863 456.179,-363.925"/>
</g>
<!-- Node10 -->
<g id="node10" class="node"><title>Node10</title>
<g id="a_node10"><a xlink:href="../../de/dad/Fun4All__G4__BNL__R1_8C.html#a361be596f3554cfa3d0fc26346c50c31" target="_top" xlink:title="Fun4All_G4_BNL_R1">
<polygon fill="none" stroke="black" points="505,-494.5 505,-513.5 615,-513.5 615,-494.5 505,-494.5"/>
<text text-anchor="middle" x="560" y="-501.5" font-family="FreeSans" font-size="10.00">Fun4All_G4_BNL_R1</text>
</a>
</g>
</g>
<!-- Node4&#45;&gt;Node10 -->
<g id="edge9" class="edge"><title>Node4&#45;&gt;Node10</title>
<path fill="none" stroke="midnightblue" d="M453.92,-366.823C456.099,-368.38 458.144,-370.1 460,-372 496.828,-409.709 458.441,-448.019 496,-485 499.907,-488.847 504.564,-491.92 509.552,-494.373"/>
<polygon fill="midnightblue" stroke="midnightblue" points="455.365,-363.614 444.964,-361.593 451.835,-369.659 455.365,-363.614"/>
</g>
<!-- Node11 -->
<g id="node11" class="node"><title>Node11</title>
<g id="a_node11"><a xlink:href="../../d1/d24/Fun4All__G4__E1039_8C.html#ad81863c21df83a735c57713bc9ec59b1" target="_top" xlink:title="Fun4All_G4_E1039">
<polygon fill="none" stroke="black" points="510,-456.5 510,-475.5 610,-475.5 610,-456.5 510,-456.5"/>
<text text-anchor="middle" x="560" y="-463.5" font-family="FreeSans" font-size="10.00">Fun4All_G4_E1039</text>
</a>
</g>
</g>
<!-- Node4&#45;&gt;Node11 -->
<g id="edge10" class="edge"><title>Node4&#45;&gt;Node11</title>
<path fill="none" stroke="midnightblue" d="M452.344,-366.348C455.07,-368.03 457.65,-369.907 460,-372 487.61,-396.593 467.914,-422.952 496,-447 500.512,-450.864 505.791,-453.942 511.338,-456.394"/>
<polygon fill="midnightblue" stroke="midnightblue" points="453.731,-363.125 443.245,-361.612 450.499,-369.334 453.731,-363.125"/>
</g>
<!-- Node12 -->
<g id="node12" class="node"><title>Node12</title>
<g id="a_node12"><a xlink:href="../../de/d10/Fun4All__G4__E1039__R1_8C.html#aa484b834b55e3114dfd4cd82dcd11831" target="_top" xlink:title="Fun4All_G4_E1039_R1">
<polygon fill="none" stroke="black" points="501.5,-418.5 501.5,-437.5 618.5,-437.5 618.5,-418.5 501.5,-418.5"/>
<text text-anchor="middle" x="560" y="-425.5" font-family="FreeSans" font-size="10.00">Fun4All_G4_E1039_R1</text>
</a>
</g>
</g>
<!-- Node4&#45;&gt;Node12 -->
<g id="edge11" class="edge"><title>Node4&#45;&gt;Node12</title>
<path fill="none" stroke="midnightblue" d="M447.676,-365.429C451.972,-367.374 456.153,-369.558 460,-372 479.371,-384.296 476.392,-397.086 496,-409 502.346,-412.856 509.531,-415.979 516.72,-418.492"/>
<polygon fill="midnightblue" stroke="midnightblue" points="448.754,-362.089 438.173,-361.548 446.107,-368.569 448.754,-362.089"/>
</g>
<!-- Node13 -->
<g id="node13" class="node"><title>Node13</title>
<g id="a_node13"><a xlink:href="../../df/d98/Fun4All__G4__E1039__R2_8C.html#a0cc5938b98723b2d5216049aad7edb01" target="_top" xlink:title="Fun4All_G4_E1039_R2">
<polygon fill="none" stroke="black" points="501.5,-380.5 501.5,-399.5 618.5,-399.5 618.5,-380.5 501.5,-380.5"/>
<text text-anchor="middle" x="560" y="-387.5" font-family="FreeSans" font-size="10.00">Fun4All_G4_E1039_R2</text>
</a>
</g>
</g>
<!-- Node4&#45;&gt;Node13 -->
<g id="edge12" class="edge"><title>Node4&#45;&gt;Node13</title>
<path fill="none" stroke="midnightblue" d="M451.447,-363.968C473.448,-369.293 498.994,-375.476 519.667,-380.48"/>
<polygon fill="midnightblue" stroke="midnightblue" points="452.16,-360.54 441.618,-361.589 450.514,-367.343 452.16,-360.54"/>
</g>
<!-- Node14 -->
<g id="node14" class="node"><title>Node14</title>
<g id="a_node14"><a xlink:href="../../d5/db4/Fun4All__Test_8C.html#ae69a57ea66fbed58544200f95796a66f" target="_top" xlink:title="Fun4All_Test">
<polygon fill="none" stroke="black" points="523,-342.5 523,-361.5 597,-361.5 597,-342.5 523,-342.5"/>
<text text-anchor="middle" x="560" y="-349.5" font-family="FreeSans" font-size="10.00">Fun4All_Test</text>
</a>
</g>
</g>
<!-- Node4&#45;&gt;Node14 -->
<g id="edge13" class="edge"><title>Node4&#45;&gt;Node14</title>
<path fill="none" stroke="midnightblue" d="M459.329,-352C480.583,-352 504.074,-352 522.91,-352"/>
<polygon fill="midnightblue" stroke="midnightblue" points="459.105,-348.5 449.105,-352 459.105,-355.5 459.105,-348.5"/>
</g>
<!-- Node15 -->
<g id="node15" class="node"><title>Node15</title>
<g id="a_node15"><a xlink:href="../../db/d7c/Fun4DumpGeom_8C.html#ac063d1f79534ea7be7f5e9a08e247c30" target="_top" xlink:title="Fun4kDumpGeom">
<polygon fill="none" stroke="black" points="512.5,-304.5 512.5,-323.5 607.5,-323.5 607.5,-304.5 512.5,-304.5"/>
<text text-anchor="middle" x="560" y="-311.5" font-family="FreeSans" font-size="10.00">Fun4kDumpGeom</text>
</a>
</g>
</g>
<!-- Node4&#45;&gt;Node15 -->
<g id="edge14" class="edge"><title>Node4&#45;&gt;Node15</title>
<path fill="none" stroke="midnightblue" d="M451.447,-340.032C473.448,-334.707 498.994,-328.524 519.667,-323.52"/>
<polygon fill="midnightblue" stroke="midnightblue" points="450.514,-336.657 441.618,-342.411 452.16,-343.46 450.514,-336.657"/>
</g>
<!-- Node16 -->
<g id="node16" class="node"><title>Node16</title>
<g id="a_node16"><a xlink:href="../../dd/d7d/Fun4kTracker_8C.html#abe7052288e4678d0346333383ad821ff" target="_top" xlink:title="Fun4kTracker">
<polygon fill="none" stroke="black" points="521.5,-266.5 521.5,-285.5 598.5,-285.5 598.5,-266.5 521.5,-266.5"/>
<text text-anchor="middle" x="560" y="-273.5" font-family="FreeSans" font-size="10.00">Fun4kTracker</text>
</a>
</g>
</g>
<!-- Node4&#45;&gt;Node16 -->
<g id="edge15" class="edge"><title>Node4&#45;&gt;Node16</title>
<path fill="none" stroke="midnightblue" d="M423.725,-336.648C442.244,-324.105 469.93,-306.611 496,-295 504.14,-291.375 513.168,-288.195 521.788,-285.525"/>
<polygon fill="midnightblue" stroke="midnightblue" points="421.674,-333.811 415.417,-342.361 425.641,-339.579 421.674,-333.811"/>
</g>
<!-- Node17 -->
<g id="node17" class="node"><title>Node17</title>
<g id="a_node17"><a xlink:href="../../d9/d8c/Fun4ReadMySql_8C.html#a82110168fa15d41b073c27eeadfc0ff3" target="_top" xlink:title="Fun4ReadMySql">
<polygon fill="none" stroke="black" points="516,-228.5 516,-247.5 604,-247.5 604,-228.5 516,-228.5"/>
<text text-anchor="middle" x="560" y="-235.5" font-family="FreeSans" font-size="10.00">Fun4ReadMySql</text>
</a>
</g>
</g>
<!-- Node4&#45;&gt;Node17 -->
<g id="edge16" class="edge"><title>Node4&#45;&gt;Node17</title>
<path fill="none" stroke="midnightblue" d="M415.073,-334.161C431.619,-312.818 462.081,-277.415 496,-257 502.362,-253.171 509.555,-250.061 516.747,-247.553"/>
<polygon fill="midnightblue" stroke="midnightblue" points="412.11,-332.277 408.865,-342.363 417.691,-336.502 412.11,-332.277"/>
</g>
<!-- Node18 -->
<g id="node18" class="node"><title>Node18</title>
<g id="a_node18"><a xlink:href="../../d6/d4c/Fun4SeaQuest_8C.html#a81bffd149f5c71602cb40eb0f45019c3" target="_top" xlink:title="Fun4SeaQuest">
<polygon fill="none" stroke="black" points="519,-190.5 519,-209.5 601,-209.5 601,-190.5 519,-190.5"/>
<text text-anchor="middle" x="560" y="-197.5" font-family="FreeSans" font-size="10.00">Fun4SeaQuest</text>
</a>
</g>
</g>
<!-- Node4&#45;&gt;Node18 -->
<g id="edge17" class="edge"><title>Node4&#45;&gt;Node18</title>
<path fill="none" stroke="midnightblue" d="M410.424,-332.901C424.159,-303.958 454.111,-249.173 496,-219 502.767,-214.126 510.797,-210.486 518.82,-207.774"/>
<polygon fill="midnightblue" stroke="midnightblue" points="407.1,-331.753 406.106,-342.301 413.461,-334.675 407.1,-331.753"/>
</g>
<!-- Node19 -->
<g id="node19" class="node"><title>Node19</title>
<g id="a_node19"><a xlink:href="../../d7/d65/e1039-core_2macros_2Fun4Sim_8C.html#a5e9276116ae0064f58b288a1e0e4e3db" target="_top" xlink:title="Fun4Sim">
<polygon fill="none" stroke="black" points="532,-152.5 532,-171.5 588,-171.5 588,-152.5 532,-152.5"/>
<text text-anchor="middle" x="560" y="-159.5" font-family="FreeSans" font-size="10.00">Fun4Sim</text>
</a>
</g>
</g>
<!-- Node4&#45;&gt;Node19 -->
<g id="edge18" class="edge"><title>Node4&#45;&gt;Node19</title>
<path fill="none" stroke="midnightblue" d="M407.339,-332.522C418.073,-297.035 445.651,-221.761 496,-181 506.122,-172.805 519.722,-168.141 531.696,-165.488"/>
<polygon fill="midnightblue" stroke="midnightblue" points="403.964,-331.597 404.542,-342.176 410.687,-333.545 403.964,-331.597"/>
</g>
<!-- Node20 -->
<g id="node20" class="node"><title>Node20</title>
<g id="a_node20"><a xlink:href="../../de/d48/Fun4TestAnalyzer_8C.html#af993f3ce438e5ebcb52b97e41124a3db" target="_top" xlink:title="Fun4TestAnalyzer">
<polygon fill="none" stroke="black" points="512.5,-114.5 512.5,-133.5 607.5,-133.5 607.5,-114.5 512.5,-114.5"/>
<text text-anchor="middle" x="560" y="-121.5" font-family="FreeSans" font-size="10.00">Fun4TestAnalyzer</text>
</a>
</g>
</g>
<!-- Node4&#45;&gt;Node20 -->
<g id="edge19" class="edge"><title>Node4&#45;&gt;Node20</title>
<path fill="none" stroke="midnightblue" d="M405.19,-332.593C412.979,-291.439 436.845,-194.938 496,-143 500.722,-138.854 506.322,-135.613 512.206,-133.079"/>
<polygon fill="midnightblue" stroke="midnightblue" points="401.744,-331.981 403.438,-342.44 408.635,-333.207 401.744,-331.981"/>
</g>
<!-- Node21 -->
<g id="node21" class="node"><title>Node21</title>
<g id="a_node21"><a xlink:href="../../df/d51/Fun4All__ExportGeom_8C.html#a582925c51bad38d562cf19e71211adfd" target="_top" xlink:title="get geometry from DST file and output TGeoManager ROOT files or other formats of geometry files ...">
<polygon fill="none" stroke="black" points="506,-76.5 506,-95.5 614,-95.5 614,-76.5 506,-76.5"/>
<text text-anchor="middle" x="560" y="-83.5" font-family="FreeSans" font-size="10.00">Fun4All_ExportGeom</text>
</a>
</g>
</g>
<!-- Node4&#45;&gt;Node21 -->
<g id="edge20" class="edge"><title>Node4&#45;&gt;Node21</title>
<path fill="none" stroke="midnightblue" d="M403.707,-332.319C408.805,-285.81 428.081,-168.278 496,-105 500.179,-101.106 505.129,-98.0088 510.39,-95.545"/>
<polygon fill="midnightblue" stroke="midnightblue" points="400.221,-332.008 402.716,-342.305 407.187,-332.7 400.221,-332.008"/>
</g>
<!-- Node22 -->
<g id="node22" class="node"><title>Node22</title>
<g id="a_node22"><a xlink:href="../../d9/d0f/Fun4All__ImportGeom_8C.html#a3388968a8dae60e9eb62b1126f747b6a" target="_top" xlink:title="Read in a Geometry file, and output DST and ROOT TGeo files. ">
<polygon fill="none" stroke="black" points="505.5,-38.5 505.5,-57.5 614.5,-57.5 614.5,-38.5 505.5,-38.5"/>
<text text-anchor="middle" x="560" y="-45.5" font-family="FreeSans" font-size="10.00">Fun4All_ImportGeom</text>
</a>
</g>
</g>
<!-- Node4&#45;&gt;Node22 -->
<g id="edge21" class="edge"><title>Node4&#45;&gt;Node22</title>
<path fill="none" stroke="midnightblue" d="M402.564,-332.149C405.119,-280.706 419.167,-141.885 496,-67 500.009,-63.0929 504.791,-59.9854 509.904,-57.5145"/>
<polygon fill="midnightblue" stroke="midnightblue" points="399.062,-332.123 402.159,-342.256 406.056,-332.404 399.062,-332.123"/>
</g>
<!-- Node23 -->
<g id="node23" class="node"><title>Node23</title>
<g id="a_node23"><a xlink:href="../../d6/deb/PHGeom__DSTInspection_8C.html#a8a06a40e2950cd31dda512c040049cd0" target="_top" xlink:title="PHGeom_DSTInspection">
<polygon fill="none" stroke="black" points="496.5,-0.5 496.5,-19.5 623.5,-19.5 623.5,-0.5 496.5,-0.5"/>
<text text-anchor="middle" x="560" y="-7.5" font-family="FreeSans" font-size="10.00">PHGeom_DSTInspection</text>
</a>
</g>
</g>
<!-- Node4&#45;&gt;Node23 -->
<g id="edge22" class="edge"><title>Node4&#45;&gt;Node23</title>
<path fill="none" stroke="midnightblue" d="M401.656,-332.206C401.799,-276.323 410.058,-115.781 496,-29 499.859,-25.1038 504.485,-22.0006 509.456,-19.5302"/>
<polygon fill="midnightblue" stroke="midnightblue" points="398.158,-332.502 401.724,-342.478 405.158,-332.455 398.158,-332.502"/>
</g>
</g>
</svg>
