<?xml version="1.0" encoding="UTF-8" standalone="no"?>
<!DOCTYPE svg PUBLIC "-//W3C//DTD SVG 1.1//EN"
 "http://www.w3.org/Graphics/SVG/1.1/DTD/svg11.dtd">
<!-- Generated by graphviz version 2.40.1 (20161225.0304)
 -->
<!-- Title: Fun4AllHistoManager::setOutfileName Pages: 1 -->
<svg width="449pt" height="39pt"
 viewBox="0.00 0.00 449.00 39.00" xmlns="http://www.w3.org/2000/svg" xmlns:xlink="http://www.w3.org/1999/xlink">
<g id="graph0" class="graph" transform="scale(1 1) rotate(0) translate(4 35)">
<title>Fun4AllHistoManager::setOutfileName</title>
<!-- Node245 -->
<g id="node1" class="node">
<title>Node245</title>
<polygon fill="#bfbfbf" stroke="#000000" points="0,-.5 0,-30.5 109,-30.5 109,-.5 0,-.5"/>
<text text-anchor="start" x="8" y="-18.5" font-family="FreeSans" font-size="10.00" fill="#000000">Fun4AllHistoManager</text>
<text text-anchor="middle" x="54.5" y="-7.5" font-family="FreeSans" font-size="10.00" fill="#000000">::setOutfileName</text>
</g>
<!-- Node246 -->
<g id="node2" class="node">
<title>Node246</title>
<g id="a_node2"><a xlink:href="../../da/d29/classFun4AllServer.html#a6108c3381626724da07c19dadf79104e" target="_top" xlink:title="Fun4AllServer::dumpHistos">
<polygon fill="none" stroke="#000000" points="145,-6 145,-25 277,-25 277,-6 145,-6"/>
<text text-anchor="middle" x="211" y="-13" font-family="FreeSans" font-size="10.00" fill="#000000">Fun4AllServer::dumpHistos</text>
</a>
</g>
</g>
<!-- Node245&#45;&gt;Node246 -->
<g id="edge1" class="edge">
<title>Node245&#45;&gt;Node246</title>
<path fill="none" stroke="#191970" d="M119.4107,-15.5C127.8616,-15.5 136.5264,-15.5 144.9949,-15.5"/>
<polygon fill="#191970" stroke="#191970" points="119.2361,-12.0001 109.2361,-15.5 119.2361,-19.0001 119.2361,-12.0001"/>
</g>
<!-- Node247 -->
<g id="node3" class="node">
<title>Node247</title>
<g id="a_node3"><a xlink:href="../../da/d29/classFun4AllServer.html#a248740a0e8d771bcabbe44cc08a5a1b6" target="_top" xlink:title="Fun4AllServer::makeHisto">
<polygon fill="none" stroke="#000000" points="313,-6 313,-25 441,-25 441,-6 313,-6"/>
<text text-anchor="middle" x="377" y="-13" font-family="FreeSans" font-size="10.00" fill="#000000">Fun4AllServer::makeHisto</text>
</a>
</g>
</g>
<!-- Node246&#45;&gt;Node247 -->
<g id="edge2" class="edge">
<title>Node246&#45;&gt;Node247</title>
<path fill="none" stroke="#191970" d="M287.0918,-15.5C295.6743,-15.5 304.3559,-15.5 312.7662,-15.5"/>
<polygon fill="#191970" stroke="#191970" points="287.0846,-12.0001 277.0846,-15.5 287.0845,-19.0001 287.0846,-12.0001"/>
</g>
</g>
</svg>
