<?xml version="1.0" encoding="UTF-8" standalone="no"?>
<!DOCTYPE svg PUBLIC "-//W3C//DTD SVG 1.1//EN"
 "http://www.w3.org/Graphics/SVG/1.1/DTD/svg11.dtd">
<!-- Generated by graphviz version 2.30.1 (20200930.0103)
 -->
<!-- Title: recoConsts::set_defaults Pages: 1 -->
<svg width="616pt" height="1942pt"
 viewBox="0.00 0.00 616.00 1942.00" xmlns="http://www.w3.org/2000/svg" xmlns:xlink="http://www.w3.org/1999/xlink">
<g id="graph0" class="graph" transform="scale(1 1) rotate(0) translate(4 1938)">
<title>recoConsts::set_defaults</title>
<!-- Node1 -->
<g id="node1" class="node"><title>Node1</title>
<polygon fill="#bfbfbf" stroke="black" points="0.5,-986.5 0.5,-1005.5 121.5,-1005.5 121.5,-986.5 0.5,-986.5"/>
<text text-anchor="middle" x="61" y="-993.5" font-family="FreeSans" font-size="10.00">recoConsts::set_defaults</text>
</g>
<!-- Node2 -->
<g id="node2" class="node"><title>Node2</title>
<g id="a_node2"><a xlink:href="../../d8/d14/classrecoConsts.html#aea8535068aa74d8acf1f98e938a1ff85" target="_top" xlink:title="recoConsts::instance">
<polygon fill="none" stroke="red" points="158.5,-986.5 158.5,-1005.5 263.5,-1005.5 263.5,-986.5 158.5,-986.5"/>
<text text-anchor="middle" x="211" y="-993.5" font-family="FreeSans" font-size="10.00">recoConsts::instance</text>
</a>
</g>
</g>
<!-- Node1&#45;&gt;Node2 -->
<g id="edge1" class="edge"><title>Node1&#45;&gt;Node2</title>
<path fill="none" stroke="midnightblue" d="M132.018,-996C140.802,-996 149.662,-996 158.099,-996"/>
<polygon fill="midnightblue" stroke="midnightblue" points="131.771,-992.5 121.771,-996 131.771,-999.5 131.771,-992.5"/>
</g>
<!-- Node3 -->
<g id="node3" class="node"><title>Node3</title>
<g id="a_node3"><a xlink:href="../../d6/d11/AnaRTCurve_8C.html#a897b0cf9d4528e29771057aaa09cfd24" target="_top" xlink:title="AnaRTCurve.C: ROOT macro to make the X&#45;T curve. ">
<polygon fill="none" stroke="black" points="345.5,-1914.5 345.5,-1933.5 416.5,-1933.5 416.5,-1914.5 345.5,-1914.5"/>
<text text-anchor="middle" x="381" y="-1921.5" font-family="FreeSans" font-size="10.00">AnaRTCurve</text>
</a>
</g>
</g>
<!-- Node2&#45;&gt;Node3 -->
<g id="edge2" class="edge"><title>Node2&#45;&gt;Node3</title>
<path fill="none" stroke="midnightblue" d="M212.57,-1015.8C216.384,-1142.3 239.911,-1834.26 300,-1904 311.121,-1916.91 329.189,-1922.14 345.343,-1924.04"/>
<polygon fill="midnightblue" stroke="midnightblue" points="216.064,-1015.53 212.27,-1005.64 209.067,-1015.74 216.064,-1015.53"/>
</g>
<!-- Node4 -->
<g id="node4" class="node"><title>Node4</title>
<g id="a_node4"><a xlink:href="../../d1/d13/classPHG4PhenixDetector.html#aed5e9a8d0ba20e1fef8a48240aa06b85" target="_top" xlink:title="this is called by geant to actually construct all detectors ">
<polygon fill="none" stroke="black" points="326.5,-1865 326.5,-1895 435.5,-1895 435.5,-1865 326.5,-1865"/>
<text text-anchor="start" x="334.5" y="-1883" font-family="FreeSans" font-size="10.00">PHG4PhenixDetector</text>
<text text-anchor="middle" x="381" y="-1872" font-family="FreeSans" font-size="10.00">::Construct</text>
</a>
</g>
</g>
<!-- Node2&#45;&gt;Node4 -->
<g id="edge3" class="edge"><title>Node2&#45;&gt;Node4</title>
<path fill="none" stroke="midnightblue" d="M212.739,-1015.82C217.466,-1138.16 245.043,-1787.73 300,-1855 306.721,-1863.23 316.113,-1868.79 326.108,-1872.55"/>
<polygon fill="midnightblue" stroke="midnightblue" points="216.23,-1015.52 212.352,-1005.66 209.235,-1015.79 216.23,-1015.52"/>
</g>
<!-- Node5 -->
<g id="node5" class="node"><title>Node5</title>
<g id="a_node5"><a xlink:href="../../d3/d96/classFun4AllHistoManager.html#a61c2043c62739de451de3f9287832a08" target="_top" xlink:title="Fun4AllHistoManager\l::dumpHistos">
<polygon fill="none" stroke="red" points="326.5,-1816 326.5,-1846 435.5,-1846 435.5,-1816 326.5,-1816"/>
<text text-anchor="start" x="334.5" y="-1834" font-family="FreeSans" font-size="10.00">Fun4AllHistoManager</text>
<text text-anchor="middle" x="381" y="-1823" font-family="FreeSans" font-size="10.00">::dumpHistos</text>
</a>
</g>
</g>
<!-- Node2&#45;&gt;Node5 -->
<g id="edge4" class="edge"><title>Node2&#45;&gt;Node5</title>
<path fill="none" stroke="midnightblue" d="M212.866,-1015.77C218.202,-1133.86 248.112,-1742.88 300,-1806 306.746,-1814.21 316.149,-1819.76 326.147,-1823.52"/>
<polygon fill="midnightblue" stroke="midnightblue" points="216.356,-1015.48 212.415,-1005.65 209.363,-1015.8 216.356,-1015.48"/>
</g>
<!-- Node6 -->
<g id="node6" class="node"><title>Node6</title>
<g id="a_node6"><a xlink:href="../../d5/df3/classPHG4SimpleEventGenerator.html#a422acd795cdae1c43198738dd7ee917e" target="_top" xlink:title="Called at the end of all processing. ">
<polygon fill="none" stroke="black" points="300.5,-1777.5 300.5,-1796.5 461.5,-1796.5 461.5,-1777.5 300.5,-1777.5"/>
<text text-anchor="middle" x="381" y="-1784.5" font-family="FreeSans" font-size="10.00">PHG4SimpleEventGenerator::End</text>
</a>
</g>
</g>
<!-- Node2&#45;&gt;Node6 -->
<g id="edge5" class="edge"><title>Node2&#45;&gt;Node6</title>
<path fill="none" stroke="midnightblue" d="M212.922,-1015.96C218.424,-1131.36 248.456,-1709.89 300,-1768 303.315,-1771.74 307.219,-1774.81 311.489,-1777.33"/>
<polygon fill="midnightblue" stroke="midnightblue" points="216.407,-1015.58 212.442,-1005.75 209.415,-1015.91 216.407,-1015.58"/>
</g>
<!-- Node7 -->
<g id="node7" class="node"><title>Node7</title>
<g id="a_node7"><a xlink:href="../../d9/d3a/classPHPythia8.html#a644fd629b9e90bdfd82622a2047a88d0" target="_top" xlink:title="Called at the end of all processing. ">
<polygon fill="none" stroke="black" points="339.5,-1739.5 339.5,-1758.5 422.5,-1758.5 422.5,-1739.5 339.5,-1739.5"/>
<text text-anchor="middle" x="381" y="-1746.5" font-family="FreeSans" font-size="10.00">PHPythia8::End</text>
</a>
</g>
</g>
<!-- Node2&#45;&gt;Node7 -->
<g id="edge6" class="edge"><title>Node2&#45;&gt;Node7</title>
<path fill="none" stroke="midnightblue" d="M213.029,-1015.67C219.025,-1126.98 250.9,-1674.97 300,-1730 309.884,-1741.08 324.94,-1746.29 339.335,-1748.58"/>
<polygon fill="midnightblue" stroke="midnightblue" points="216.516,-1015.33 212.49,-1005.53 209.526,-1015.7 216.516,-1015.33"/>
</g>
<!-- Node8 -->
<g id="node8" class="node"><title>Node8</title>
<g id="a_node8"><a xlink:href="../../d4/d06/classSQPrimaryParticleGen.html#adb5309b9d6239c32a6acabaa17aa2c20" target="_top" xlink:title="Called at the end of all processing. ">
<polygon fill="none" stroke="black" points="313,-1701.5 313,-1720.5 449,-1720.5 449,-1701.5 313,-1701.5"/>
<text text-anchor="middle" x="381" y="-1708.5" font-family="FreeSans" font-size="10.00">SQPrimaryParticleGen::End</text>
</a>
</g>
</g>
<!-- Node2&#45;&gt;Node8 -->
<g id="edge7" class="edge"><title>Node2&#45;&gt;Node8</title>
<path fill="none" stroke="midnightblue" d="M211.725,-1015.58C210.7,-1117.01 210.977,-1581.95 300,-1687 305.344,-1693.31 312.274,-1697.99 319.819,-1701.47"/>
<polygon fill="midnightblue" stroke="midnightblue" points="215.226,-1015.56 211.845,-1005.52 208.226,-1015.48 215.226,-1015.56"/>
</g>
<!-- Node9 -->
<g id="node9" class="node"><title>Node9</title>
<g id="a_node9"><a xlink:href="../../da/d29/classFun4AllServer.html#ab7263450319ca1d5029209fde26a7af8" target="_top" xlink:title="Fun4AllServer::End">
<polygon fill="none" stroke="red" points="332,-1397.5 332,-1416.5 430,-1416.5 430,-1397.5 332,-1397.5"/>
<text text-anchor="middle" x="381" y="-1404.5" font-family="FreeSans" font-size="10.00">Fun4AllServer::End</text>
</a>
</g>
</g>
<!-- Node2&#45;&gt;Node9 -->
<g id="edge8" class="edge"><title>Node2&#45;&gt;Node9</title>
<path fill="none" stroke="midnightblue" d="M213.911,-1016.01C221.118,-1087.41 248.868,-1328.27 300,-1383 308.415,-1392.01 320.061,-1397.68 331.865,-1401.24"/>
<polygon fill="midnightblue" stroke="midnightblue" points="217.362,-1015.33 212.898,-1005.72 210.395,-1016.02 217.362,-1015.33"/>
</g>
<!-- Node24 -->
<g id="node24" class="node"><title>Node24</title>
<g id="a_node24"><a xlink:href="../../d1/dd6/EventDisplay4Sim_8C.html#af86696dcebf4f8619d2417d0865bbf66" target="_top" xlink:title="EventDisplay4Sim">
<polygon fill="none" stroke="black" points="506,-1049.5 506,-1068.5 600,-1068.5 600,-1049.5 506,-1049.5"/>
<text text-anchor="middle" x="553" y="-1056.5" font-family="FreeSans" font-size="10.00">EventDisplay4Sim</text>
</a>
</g>
</g>
<!-- Node2&#45;&gt;Node24 -->
<g id="edge23" class="edge"><title>Node2&#45;&gt;Node24</title>
<path fill="none" stroke="midnightblue" d="M223.719,-1014.21C238.541,-1035.36 266.245,-1069.13 300,-1083 378.455,-1115.24 481.845,-1085.22 527.981,-1068.5"/>
<polygon fill="midnightblue" stroke="midnightblue" points="226.505,-1012.08 218.008,-1005.75 220.704,-1016 226.505,-1012.08"/>
</g>
<!-- Node25 -->
<g id="node25" class="node"><title>Node25</title>
<g id="a_node25"><a xlink:href="../../d5/dda/classEventReducer.html#a561a06dc56cee12696d12ba18d207433" target="_top" xlink:title="EventReducer::EventReducer">
<polygon fill="none" stroke="black" points="310.5,-967.5 310.5,-986.5 451.5,-986.5 451.5,-967.5 310.5,-967.5"/>
<text text-anchor="middle" x="381" y="-974.5" font-family="FreeSans" font-size="10.00">EventReducer::EventReducer</text>
</a>
</g>
</g>
<!-- Node2&#45;&gt;Node25 -->
<g id="edge24" class="edge"><title>Node2&#45;&gt;Node25</title>
<path fill="none" stroke="midnightblue" d="M274.017,-988.986C285.884,-987.644 298.381,-986.231 310.466,-984.864"/>
<polygon fill="midnightblue" stroke="midnightblue" points="273.32,-985.543 263.776,-990.144 274.106,-992.498 273.32,-985.543"/>
</g>
<!-- Node26 -->
<g id="node26" class="node"><title>Node26</title>
<g id="a_node26"><a xlink:href="../../d5/de0/ExtractXTCurve_8C.html#aeecc20bbebc9abf422b2e1a0f00add9e" target="_top" xlink:title="ExtractXTCurve.C: ROOT macro to extract the X&#45;T curve. ">
<polygon fill="none" stroke="black" points="339,-929.5 339,-948.5 423,-948.5 423,-929.5 339,-929.5"/>
<text text-anchor="middle" x="381" y="-936.5" font-family="FreeSans" font-size="10.00">ExtractXTCurve</text>
</a>
</g>
</g>
<!-- Node2&#45;&gt;Node26 -->
<g id="edge25" class="edge"><title>Node2&#45;&gt;Node26</title>
<path fill="none" stroke="midnightblue" d="M240.878,-982.013C257.818,-974.194 279.799,-964.703 300,-958 312.465,-953.864 326.303,-950.246 338.917,-947.309"/>
<polygon fill="midnightblue" stroke="midnightblue" points="239.107,-978.977 231.538,-986.39 242.078,-985.316 239.107,-978.977"/>
</g>
<!-- Node27 -->
<g id="node27" class="node"><title>Node27</title>
<g id="a_node27"><a xlink:href="../../db/d1f/classFun4AllOscarInputManager.html#a6fbe420ea4972e895f4061bb94ab9d77" target="_top" xlink:title="Fun4AllOscarInputManager\l::fileopen">
<polygon fill="none" stroke="red" points="314,-880 314,-910 448,-910 448,-880 314,-880"/>
<text text-anchor="start" x="322" y="-898" font-family="FreeSans" font-size="10.00">Fun4AllOscarInputManager</text>
<text text-anchor="middle" x="381" y="-887" font-family="FreeSans" font-size="10.00">::fileopen</text>
</a>
</g>
</g>
<!-- Node2&#45;&gt;Node27 -->
<g id="edge26" class="edge"><title>Node2&#45;&gt;Node27</title>
<path fill="none" stroke="midnightblue" d="M227.719,-978.802C244.215,-961.689 271.65,-935.769 300,-920 306.74,-916.251 314.118,-912.983 321.581,-910.157"/>
<polygon fill="midnightblue" stroke="midnightblue" points="224.857,-976.735 220.543,-986.412 229.95,-981.537 224.857,-976.735"/>
</g>
<!-- Node28 -->
<g id="node28" class="node"><title>Node28</title>
<g id="a_node28"><a xlink:href="../../d6/d6f/classFun4AllHepMCInputManager.html#aaf891596a876957d656c23ea03b39f1a" target="_top" xlink:title="Fun4AllHepMCInputManager\l::fileopen">
<polygon fill="none" stroke="red" points="310.5,-1044 310.5,-1074 451.5,-1074 451.5,-1044 310.5,-1044"/>
<text text-anchor="start" x="318.5" y="-1062" font-family="FreeSans" font-size="10.00">Fun4AllHepMCInputManager</text>
<text text-anchor="middle" x="381" y="-1051" font-family="FreeSans" font-size="10.00">::fileopen</text>
</a>
</g>
</g>
<!-- Node2&#45;&gt;Node28 -->
<g id="edge27" class="edge"><title>Node2&#45;&gt;Node28</title>
<path fill="none" stroke="midnightblue" d="M241.732,-1009.76C258.638,-1017.35 280.306,-1026.69 300,-1034 309.277,-1037.44 319.27,-1040.82 328.944,-1043.92"/>
<polygon fill="midnightblue" stroke="midnightblue" points="242.931,-1006.46 232.378,-1005.52 240.042,-1012.84 242.931,-1006.46"/>
</g>
<!-- Node29 -->
<g id="node29" class="node"><title>Node29</title>
<g id="a_node29"><a xlink:href="../../d7/d79/classOnlMonParam.html#a29bfe25922c14cc64204127fbde6a591" target="_top" xlink:title="OnlMonParam::FindParamInDir">
<polygon fill="none" stroke="red" points="305.5,-841.5 305.5,-860.5 456.5,-860.5 456.5,-841.5 305.5,-841.5"/>
<text text-anchor="middle" x="381" y="-848.5" font-family="FreeSans" font-size="10.00">OnlMonParam::FindParamInDir</text>
</a>
</g>
</g>
<!-- Node2&#45;&gt;Node29 -->
<g id="edge29" class="edge"><title>Node2&#45;&gt;Node29</title>
<path fill="none" stroke="midnightblue" d="M220.056,-977.046C232.831,-949.345 260.409,-898.154 300,-871 306.375,-866.627 313.621,-863.209 321.085,-860.538"/>
<polygon fill="midnightblue" stroke="midnightblue" points="216.756,-975.854 215.891,-986.413 223.152,-978.698 216.756,-975.854"/>
</g>
<!-- Node10 -->
<g id="node10" class="node"><title>Node10</title>
<g id="a_node10"><a xlink:href="../../d1/d54/CalibChamXT_2work__dist_2Fun4All_8C.html#a2846b192fd35e9cd2e7451bf444d827f" target="_top" xlink:title="Fun4All.C: Fun4all macro to execute &quot;ExtractTdcDist&quot;. ">
<polygon fill="none" stroke="black" points="528,-1662.5 528,-1681.5 578,-1681.5 578,-1662.5 528,-1662.5"/>
<text text-anchor="middle" x="553" y="-1669.5" font-family="FreeSans" font-size="10.00">Fun4All</text>
</a>
</g>
</g>
<!-- Node2&#45;&gt;Node10 -->
<g id="edge30" class="edge"><title>Node2&#45;&gt;Node10</title>
<path fill="none" stroke="midnightblue" d="M211.656,-1015.95C210.398,-1114.35 210.106,-1546.96 300,-1637 361.48,-1698.58 477.568,-1686.11 527.811,-1677.09"/>
<polygon fill="midnightblue" stroke="midnightblue" points="215.157,-1015.92 211.805,-1005.87 208.158,-1015.82 215.157,-1015.92"/>
</g>
<!-- Node11 -->
<g id="node11" class="node"><title>Node11</title>
<g id="a_node11"><a xlink:href="../../df/d51/Fun4All__ExportGeom_8C.html#a582925c51bad38d562cf19e71211adfd" target="_top" xlink:title="get geometry from DST file and output TGeoManager ROOT files or other formats of geometry files ...">
<polygon fill="none" stroke="black" points="499,-1624.5 499,-1643.5 607,-1643.5 607,-1624.5 499,-1624.5"/>
<text text-anchor="middle" x="553" y="-1631.5" font-family="FreeSans" font-size="10.00">Fun4All_ExportGeom</text>
</a>
</g>
</g>
<!-- Node2&#45;&gt;Node11 -->
<g id="edge31" class="edge"><title>Node2&#45;&gt;Node11</title>
<path fill="none" stroke="midnightblue" d="M211.834,-1015.98C211.48,-1111 215.036,-1515.93 300,-1600 351.935,-1651.39 442.041,-1650.54 499.258,-1643.52"/>
<polygon fill="midnightblue" stroke="midnightblue" points="215.335,-1015.78 211.893,-1005.76 208.335,-1015.74 215.335,-1015.78"/>
</g>
<!-- Node12 -->
<g id="node12" class="node"><title>Node12</title>
<g id="a_node12"><a xlink:href="../../d9/d0f/Fun4All__ImportGeom_8C.html#a3388968a8dae60e9eb62b1126f747b6a" target="_top" xlink:title="Read in a Geometry file, and output DST and ROOT TGeo files. ">
<polygon fill="none" stroke="black" points="498.5,-1586.5 498.5,-1605.5 607.5,-1605.5 607.5,-1586.5 498.5,-1586.5"/>
<text text-anchor="middle" x="553" y="-1593.5" font-family="FreeSans" font-size="10.00">Fun4All_ImportGeom</text>
</a>
</g>
</g>
<!-- Node2&#45;&gt;Node12 -->
<g id="edge32" class="edge"><title>Node2&#45;&gt;Node12</title>
<path fill="none" stroke="midnightblue" d="M212.032,-1015.63C212.611,-1106.44 219.862,-1484.74 300,-1563 352.641,-1614.4 443.623,-1612.84 500.663,-1605.51"/>
<polygon fill="midnightblue" stroke="midnightblue" points="215.532,-1015.58 211.99,-1005.6 208.532,-1015.61 215.532,-1015.58"/>
</g>
<!-- Node13 -->
<g id="node13" class="node"><title>Node13</title>
<g id="a_node13"><a xlink:href="../../dc/d87/Fun4AllAna_8C.html#ae261f5e3cea00457029a383191c9e461" target="_top" xlink:title="Fun4AllReco.C: Fun4all macro to run the reconstruction. ">
<polygon fill="none" stroke="black" points="519.5,-1548.5 519.5,-1567.5 586.5,-1567.5 586.5,-1548.5 519.5,-1548.5"/>
<text text-anchor="middle" x="553" y="-1555.5" font-family="FreeSans" font-size="10.00">Fun4AllAna</text>
</a>
</g>
</g>
<!-- Node2&#45;&gt;Node13 -->
<g id="edge33" class="edge"><title>Node2&#45;&gt;Node13</title>
<path fill="none" stroke="midnightblue" d="M212.251,-1016.05C213.792,-1104.02 224.644,-1454.73 300,-1527 359.333,-1583.9 465.961,-1574.35 519.484,-1564.97"/>
<polygon fill="midnightblue" stroke="midnightblue" points="215.748,-1015.78 212.095,-1005.83 208.749,-1015.89 215.748,-1015.78"/>
</g>
<!-- Node14 -->
<g id="node14" class="node"><title>Node14</title>
<g id="a_node14"><a xlink:href="../../d6/d6b/Fun4AllStep1_8C.html#a80b7d0af371ae0ca7d151efffe87f69b" target="_top" xlink:title="Fun4All macro to generate events and carry out the track reconstruction. ">
<polygon fill="none" stroke="black" points="515.5,-1509.5 515.5,-1528.5 590.5,-1528.5 590.5,-1509.5 515.5,-1509.5"/>
<text text-anchor="middle" x="553" y="-1516.5" font-family="FreeSans" font-size="10.00">Fun4AllStep1</text>
</a>
</g>
</g>
<!-- Node2&#45;&gt;Node14 -->
<g id="edge34" class="edge"><title>Node2&#45;&gt;Node14</title>
<path fill="none" stroke="midnightblue" d="M212.471,-1015.81C214.905,-1099.85 228.864,-1425.6 300,-1492 358.38,-1546.49 460.649,-1537.29 515.229,-1527.32"/>
<polygon fill="midnightblue" stroke="midnightblue" points="215.965,-1015.51 212.2,-1005.61 208.967,-1015.7 215.965,-1015.51"/>
</g>
<!-- Node15 -->
<g id="node15" class="node"><title>Node15</title>
<g id="a_node15"><a xlink:href="../../da/df1/Fun4AllStep2_8C.html#a11d31d4348734587fa6d3d77f4ba8d8e" target="_top" xlink:title="Fun4All macro to carry out the chamber realization and then the track reconstruction. ">
<polygon fill="none" stroke="black" points="515.5,-1470.5 515.5,-1489.5 590.5,-1489.5 590.5,-1470.5 515.5,-1470.5"/>
<text text-anchor="middle" x="553" y="-1477.5" font-family="FreeSans" font-size="10.00">Fun4AllStep2</text>
</a>
</g>
</g>
<!-- Node2&#45;&gt;Node15 -->
<g id="edge35" class="edge"><title>Node2&#45;&gt;Node15</title>
<path fill="none" stroke="midnightblue" d="M212.725,-1016.02C216.094,-1096.81 233.021,-1397.47 300,-1458 359.139,-1511.44 461.091,-1500.16 515.421,-1489.07"/>
<polygon fill="midnightblue" stroke="midnightblue" points="216.212,-1015.6 212.322,-1005.75 209.217,-1015.88 216.212,-1015.6"/>
</g>
<!-- Node16 -->
<g id="node16" class="node"><title>Node16</title>
<g id="a_node16"><a xlink:href="../../db/dbe/Fun4CODA_8C.html#a1bbee777074605aa2a59ddf9b2b52742" target="_top" xlink:title="Fun4CODA">
<polygon fill="none" stroke="black" points="520,-1430.5 520,-1449.5 586,-1449.5 586,-1430.5 520,-1430.5"/>
<text text-anchor="middle" x="553" y="-1437.5" font-family="FreeSans" font-size="10.00">Fun4CODA</text>
</a>
</g>
</g>
<!-- Node2&#45;&gt;Node16 -->
<g id="edge36" class="edge"><title>Node2&#45;&gt;Node16</title>
<path fill="none" stroke="midnightblue" d="M212.983,-1016.16C217.215,-1093.73 236.636,-1371.29 300,-1426 361.689,-1479.26 466.765,-1462.52 519.616,-1449.38"/>
<polygon fill="midnightblue" stroke="midnightblue" points="216.462,-1015.66 212.448,-1005.86 209.472,-1016.02 216.462,-1015.66"/>
</g>
<!-- Node17 -->
<g id="node17" class="node"><title>Node17</title>
<g id="a_node17"><a xlink:href="../../d4/d6b/Fun4DQ_8C.html#ade50123660c824c610022429d0847486" target="_top" xlink:title="Fun4DQ">
<polygon fill="none" stroke="black" points="526.5,-1387.5 526.5,-1406.5 579.5,-1406.5 579.5,-1387.5 526.5,-1387.5"/>
<text text-anchor="middle" x="553" y="-1394.5" font-family="FreeSans" font-size="10.00">Fun4DQ</text>
</a>
</g>
</g>
<!-- Node2&#45;&gt;Node17 -->
<g id="edge37" class="edge"><title>Node2&#45;&gt;Node17</title>
<path fill="none" stroke="midnightblue" d="M214.577,-1015.86C223.395,-1080.81 254.356,-1285.39 300,-1331 332.071,-1363.05 468.484,-1385.38 526.125,-1393.56"/>
<polygon fill="midnightblue" stroke="midnightblue" points="218.019,-1015.18 213.23,-1005.73 211.08,-1016.11 218.019,-1015.18"/>
</g>
<!-- Node18 -->
<g id="node18" class="node"><title>Node18</title>
<g id="a_node18"><a xlink:href="../../de/daf/Fun4DST_8C.html#a6a43c5ad028285b022976fa872e60cbc" target="_top" xlink:title="Fun4DST">
<polygon fill="none" stroke="black" points="524,-1340.5 524,-1359.5 582,-1359.5 582,-1340.5 524,-1340.5"/>
<text text-anchor="middle" x="553" y="-1347.5" font-family="FreeSans" font-size="10.00">Fun4DST</text>
</a>
</g>
</g>
<!-- Node2&#45;&gt;Node18 -->
<g id="edge38" class="edge"><title>Node2&#45;&gt;Node18</title>
<path fill="none" stroke="midnightblue" d="M211.747,-1016.08C212.23,-1068.74 221.12,-1211.87 300,-1287 362.534,-1346.56 472.524,-1352.27 523.979,-1351.36"/>
<polygon fill="midnightblue" stroke="midnightblue" points="215.247,-1015.76 211.755,-1005.76 208.247,-1015.76 215.247,-1015.76"/>
</g>
<!-- Node30 -->
<g id="node30" class="node"><title>Node30</title>
<g id="a_node30"><a xlink:href="../../df/d6a/e1039-core_2online_2macros_2Fun4MainDaq_8C.html#ab9151bcfc5d35e7a25c9cf86fddd2bd2" target="_top" xlink:title="Fun4MainDaq.C: Fun4all macro to decode the MainDAQ data. ">
<polygon fill="none" stroke="black" points="342.5,-803.5 342.5,-822.5 419.5,-822.5 419.5,-803.5 342.5,-803.5"/>
<text text-anchor="middle" x="381" y="-810.5" font-family="FreeSans" font-size="10.00">Fun4MainDaq</text>
</a>
</g>
</g>
<!-- Node2&#45;&gt;Node30 -->
<g id="edge39" class="edge"><title>Node2&#45;&gt;Node30</title>
<path fill="none" stroke="midnightblue" d="M216.769,-976.599C226.332,-941.94 251.239,-869.512 300,-832 311.993,-822.773 327.77,-817.93 342.142,-815.422"/>
<polygon fill="midnightblue" stroke="midnightblue" points="213.341,-975.872 214.192,-986.433 220.113,-977.647 213.341,-975.872"/>
</g>
<!-- Node19 -->
<g id="node19" class="node"><title>Node19</title>
<g id="a_node19"><a xlink:href="../../d8/d19/HitEmbedding_2macro__embed_2Fun4Sim_8C.html#a023b21d2b27b8be1999a1cb7e43bbb23" target="_top" xlink:title="Fun4Sim">
<polygon fill="none" stroke="black" points="525,-1283.5 525,-1302.5 581,-1302.5 581,-1283.5 525,-1283.5"/>
<text text-anchor="middle" x="553" y="-1290.5" font-family="FreeSans" font-size="10.00">Fun4Sim</text>
</a>
</g>
</g>
<!-- Node2&#45;&gt;Node19 -->
<g id="edge40" class="edge"><title>Node2&#45;&gt;Node19</title>
<path fill="none" stroke="midnightblue" d="M212.538,-1015.91C214.987,-1063.98 228.315,-1186.91 300,-1248 364.945,-1303.35 474.222,-1300.99 524.802,-1296.35"/>
<polygon fill="midnightblue" stroke="midnightblue" points="216.024,-1015.48 212.128,-1005.63 209.029,-1015.76 216.024,-1015.48"/>
</g>
<!-- Node20 -->
<g id="node20" class="node"><title>Node20</title>
<g id="a_node20"><a xlink:href="../../d0/d81/Fun4Sim__pileup_8C.html#a40cad4c0a6a6feeaac7beb8451e154e8" target="_top" xlink:title="Fun4Sim_pileup">
<polygon fill="none" stroke="black" points="510,-1245.5 510,-1264.5 596,-1264.5 596,-1245.5 510,-1245.5"/>
<text text-anchor="middle" x="553" y="-1252.5" font-family="FreeSans" font-size="10.00">Fun4Sim_pileup</text>
</a>
</g>
</g>
<!-- Node2&#45;&gt;Node20 -->
<g id="edge41" class="edge"><title>Node2&#45;&gt;Node20</title>
<path fill="none" stroke="midnightblue" d="M213.908,-1015.78C219.157,-1058.57 237.844,-1159.87 300,-1210 360.366,-1258.68 455.524,-1261.91 509.994,-1259.02"/>
<polygon fill="midnightblue" stroke="midnightblue" points="217.358,-1015.13 212.78,-1005.58 210.4,-1015.9 217.358,-1015.13"/>
</g>
<!-- Node21 -->
<g id="node21" class="node"><title>Node21</title>
<g id="a_node21"><a xlink:href="../../d3/da6/Fun4Sim__TrkQA_8C.html#a20f55f3330ca74980c4c35261d0761f8" target="_top" xlink:title="Fun4Sim_TrkQA">
<polygon fill="none" stroke="black" points="508.5,-1207.5 508.5,-1226.5 597.5,-1226.5 597.5,-1207.5 508.5,-1207.5"/>
<text text-anchor="middle" x="553" y="-1214.5" font-family="FreeSans" font-size="10.00">Fun4Sim_TrkQA</text>
</a>
</g>
</g>
<!-- Node2&#45;&gt;Node21 -->
<g id="edge42" class="edge"><title>Node2&#45;&gt;Node21</title>
<path fill="none" stroke="midnightblue" d="M215.717,-1015.67C223.85,-1052.87 246.911,-1133.38 300,-1173 361.219,-1218.69 453.932,-1222.85 508.183,-1220.65"/>
<polygon fill="midnightblue" stroke="midnightblue" points="219.092,-1014.7 213.656,-1005.6 212.234,-1016.1 219.092,-1014.7"/>
</g>
<!-- Node22 -->
<g id="node22" class="node"><title>Node22</title>
<g id="a_node22"><a xlink:href="../../d8/de7/Fun4SRawEvent_8C.html#aaa9bb2e956ce860a8cb6e7845bcc4ed5" target="_top" xlink:title="Fun4SRawEvent">
<polygon fill="none" stroke="black" points="509,-1169.5 509,-1188.5 597,-1188.5 597,-1169.5 509,-1169.5"/>
<text text-anchor="middle" x="553" y="-1176.5" font-family="FreeSans" font-size="10.00">Fun4SRawEvent</text>
</a>
</g>
</g>
<!-- Node2&#45;&gt;Node22 -->
<g id="edge43" class="edge"><title>Node2&#45;&gt;Node22</title>
<path fill="none" stroke="midnightblue" d="M218.279,-1015.59C229.375,-1046.81 255.572,-1107.32 300,-1137 363.434,-1179.38 455.385,-1183.77 508.899,-1182.09"/>
<polygon fill="midnightblue" stroke="midnightblue" points="221.508,-1014.22 214.979,-1005.87 214.88,-1016.47 221.508,-1014.22"/>
</g>
<!-- Node31 -->
<g id="node31" class="node"><title>Node31</title>
<g id="a_node31"><a xlink:href="../../d2/da1/classPHGeomUtility.html#a84ee9f9eaf686f5c98ddc1af089ae248" target="_top" xlink:title="Verbosity for geometry IO like, TGeoMangers. ">
<polygon fill="none" stroke="black" points="311,-765.5 311,-784.5 451,-784.5 451,-765.5 311,-765.5"/>
<text text-anchor="middle" x="381" y="-772.5" font-family="FreeSans" font-size="10.00">PHGeomUtility::GetVerbosity</text>
</a>
</g>
</g>
<!-- Node2&#45;&gt;Node31 -->
<g id="edge44" class="edge"><title>Node2&#45;&gt;Node31</title>
<path fill="none" stroke="midnightblue" d="M214.705,-976.166C221.346,-935.453 242.336,-842.232 300,-794 304.599,-790.153 309.842,-787.057 315.394,-784.569"/>
<polygon fill="midnightblue" stroke="midnightblue" points="211.226,-975.766 213.194,-986.176 218.148,-976.811 211.226,-975.766"/>
</g>
<!-- Node32 -->
<g id="node32" class="node"><title>Node32</title>
<g id="a_node32"><a xlink:href="../../d6/deb/classTriggerAnalyzer.html#a33bd7d0faf83282d6a1bcb50397a61cd" target="_top" xlink:title="TriggerAnalyzer::init">
<polygon fill="none" stroke="black" points="330.5,-727.5 330.5,-746.5 431.5,-746.5 431.5,-727.5 330.5,-727.5"/>
<text text-anchor="middle" x="381" y="-734.5" font-family="FreeSans" font-size="10.00">TriggerAnalyzer::init</text>
</a>
</g>
</g>
<!-- Node2&#45;&gt;Node32 -->
<g id="edge45" class="edge"><title>Node2&#45;&gt;Node32</title>
<path fill="none" stroke="midnightblue" d="M213.154,-976.341C216.951,-930.419 233.011,-815.5 300,-756 308.432,-748.511 319.278,-743.835 330.245,-740.948"/>
<polygon fill="midnightblue" stroke="midnightblue" points="209.653,-976.229 212.43,-986.454 216.635,-976.729 209.653,-976.229"/>
</g>
<!-- Node33 -->
<g id="node33" class="node"><title>Node33</title>
<g id="a_node33"><a xlink:href="../../dd/d12/classKScheduler.html#a5617206eee5ea9df57cc54f286f235b7" target="_top" xlink:title="KScheduler::Init">
<polygon fill="none" stroke="red" points="338.5,-689.5 338.5,-708.5 423.5,-708.5 423.5,-689.5 338.5,-689.5"/>
<text text-anchor="middle" x="381" y="-696.5" font-family="FreeSans" font-size="10.00">KScheduler::Init</text>
</a>
</g>
</g>
<!-- Node2&#45;&gt;Node33 -->
<g id="edge46" class="edge"><title>Node2&#45;&gt;Node33</title>
<path fill="none" stroke="midnightblue" d="M212.025,-976.076C213.227,-925.068 223.791,-788.812 300,-718 310.353,-708.38 324.663,-703.359 338.321,-700.819"/>
<polygon fill="midnightblue" stroke="midnightblue" points="208.522,-976.327 211.888,-986.373 215.521,-976.42 208.522,-976.327"/>
</g>
<!-- Node34 -->
<g id="node34" class="node"><title>Node34</title>
<g id="a_node34"><a xlink:href="../../d8/dda/classDPTriggerAnalyzer.html#aca73618ace2c3debcdd9a544e8a1da10" target="_top" xlink:title="DPTriggerAnalyzer::Init">
<polygon fill="none" stroke="black" points="323.5,-651.5 323.5,-670.5 438.5,-670.5 438.5,-651.5 323.5,-651.5"/>
<text text-anchor="middle" x="381" y="-658.5" font-family="FreeSans" font-size="10.00">DPTriggerAnalyzer::Init</text>
</a>
</g>
</g>
<!-- Node2&#45;&gt;Node34 -->
<g id="edge47" class="edge"><title>Node2&#45;&gt;Node34</title>
<path fill="none" stroke="midnightblue" d="M214.823,-976.424C224.189,-914.141 256.154,-722.193 300,-680 306.48,-673.764 314.616,-669.447 323.2,-666.481"/>
<polygon fill="midnightblue" stroke="midnightblue" points="211.336,-976.075 213.339,-986.479 218.261,-977.097 211.336,-976.075"/>
</g>
<!-- Node35 -->
<g id="node35" class="node"><title>Node35</title>
<g id="a_node35"><a xlink:href="../../d0/da0/classGeomSvc.html#a96ec4efc82cbaed0b5623e4dd69385b6" target="_top" xlink:title="Initialization, either from MySQL or from ascii file. ">
<polygon fill="none" stroke="red" points="514.5,-594.5 514.5,-613.5 591.5,-613.5 591.5,-594.5 514.5,-594.5"/>
<text text-anchor="middle" x="553" y="-601.5" font-family="FreeSans" font-size="10.00">GeomSvc::init</text>
</a>
</g>
</g>
<!-- Node2&#45;&gt;Node35 -->
<g id="edge48" class="edge"><title>Node2&#45;&gt;Node35</title>
<path fill="none" stroke="midnightblue" d="M214.069,-976.149C221.544,-908.412 249.418,-688.038 300,-642 330.717,-614.043 451.922,-606.654 514.366,-604.701"/>
<polygon fill="midnightblue" stroke="midnightblue" points="210.566,-975.992 212.976,-986.309 217.525,-976.74 210.566,-975.992"/>
</g>
<!-- Node36 -->
<g id="node36" class="node"><title>Node36</title>
<g id="a_node36"><a xlink:href="../../d0/da0/classGeomSvc.html#adbe1473f9b3a8ff942da8d7d8ee28322" target="_top" xlink:title="GeomSvc::initPlaneDbSvc">
<polygon fill="none" stroke="black" points="316,-575.5 316,-594.5 446,-594.5 446,-575.5 316,-575.5"/>
<text text-anchor="middle" x="381" y="-582.5" font-family="FreeSans" font-size="10.00">GeomSvc::initPlaneDbSvc</text>
</a>
</g>
</g>
<!-- Node2&#45;&gt;Node36 -->
<g id="edge49" class="edge"><title>Node2&#45;&gt;Node36</title>
<path fill="none" stroke="midnightblue" d="M213.911,-975.988C221.118,-904.592 248.868,-663.726 300,-609 305.841,-602.749 313.239,-598.104 321.165,-594.658"/>
<polygon fill="midnightblue" stroke="midnightblue" points="210.395,-975.98 212.898,-986.275 217.362,-976.666 210.395,-975.98"/>
</g>
<!-- Node37 -->
<g id="node37" class="node"><title>Node37</title>
<g id="a_node37"><a xlink:href="../../d6/dc8/classFun4AllPrdfOutputManager.html#a34a327859dafb50190588e6393d8ec2b" target="_top" xlink:title="Fun4AllPrdfOutputManager\l::InitPrdfManager">
<polygon fill="none" stroke="red" points="314,-526 314,-556 448,-556 448,-526 314,-526"/>
<text text-anchor="start" x="322" y="-544" font-family="FreeSans" font-size="10.00">Fun4AllPrdfOutputManager</text>
<text text-anchor="middle" x="381" y="-533" font-family="FreeSans" font-size="10.00">::InitPrdfManager</text>
</a>
</g>
</g>
<!-- Node2&#45;&gt;Node37 -->
<g id="edge51" class="edge"><title>Node2&#45;&gt;Node37</title>
<path fill="none" stroke="midnightblue" d="M213.419,-976.282C219.266,-900.363 243.87,-628.108 300,-566 304,-561.574 308.771,-557.924 313.963,-554.916"/>
<polygon fill="midnightblue" stroke="midnightblue" points="209.921,-976.134 212.665,-986.367 216.901,-976.655 209.921,-976.134"/>
</g>
<!-- Node38 -->
<g id="node38" class="node"><title>Node38</title>
<g id="a_node38"><a xlink:href="../../d4/d41/classCalibHodoInTime.html#aa02bceb910335dc4ed67613212bf1eec" target="_top" xlink:title="CalibHodoInTime::InitRun">
<polygon fill="none" stroke="black" points="318,-487.5 318,-506.5 444,-506.5 444,-487.5 318,-487.5"/>
<text text-anchor="middle" x="381" y="-494.5" font-family="FreeSans" font-size="10.00">CalibHodoInTime::InitRun</text>
</a>
</g>
</g>
<!-- Node2&#45;&gt;Node38 -->
<g id="edge52" class="edge"><title>Node2&#45;&gt;Node38</title>
<path fill="none" stroke="midnightblue" d="M212.867,-976.079C216.83,-894.28 235.885,-585.307 300,-517 304.997,-511.676 311.178,-507.68 317.873,-504.694"/>
<polygon fill="midnightblue" stroke="midnightblue" points="209.353,-976.293 212.388,-986.444 216.346,-976.616 209.353,-976.293"/>
</g>
<!-- Node39 -->
<g id="node39" class="node"><title>Node39</title>
<g id="a_node39"><a xlink:href="../../d5/d85/classPHG4TruthSubsystem.html#a0dc4476d86bcfecbb026ca2d98caca32" target="_top" xlink:title="init ">
<polygon fill="none" stroke="black" points="324.5,-438 324.5,-468 437.5,-468 437.5,-438 324.5,-438"/>
<text text-anchor="start" x="332.5" y="-456" font-family="FreeSans" font-size="10.00">PHG4TruthSubsystem</text>
<text text-anchor="middle" x="381" y="-445" font-family="FreeSans" font-size="10.00">::InitRun</text>
</a>
</g>
</g>
<!-- Node2&#45;&gt;Node39 -->
<g id="edge53" class="edge"><title>Node2&#45;&gt;Node39</title>
<path fill="none" stroke="midnightblue" d="M212.685,-975.939C216.009,-890.086 233.152,-554.511 300,-478 306.51,-470.549 315.207,-465.292 324.468,-461.59"/>
<polygon fill="midnightblue" stroke="midnightblue" points="209.179,-976.024 212.31,-986.146 216.174,-976.281 209.179,-976.024"/>
</g>
<!-- Node40 -->
<g id="node40" class="node"><title>Node40</title>
<g id="a_node40"><a xlink:href="../../dc/dcd/classSQChamberRealization.html#a69eb66408dc5f9cb20f92dcc12c89d14" target="_top" xlink:title="SQChamberRealization\l::InitRun">
<polygon fill="none" stroke="black" points="322.5,-389 322.5,-419 439.5,-419 439.5,-389 322.5,-389"/>
<text text-anchor="start" x="330.5" y="-407" font-family="FreeSans" font-size="10.00">SQChamberRealization</text>
<text text-anchor="middle" x="381" y="-396" font-family="FreeSans" font-size="10.00">::InitRun</text>
</a>
</g>
</g>
<!-- Node2&#45;&gt;Node40 -->
<g id="edge54" class="edge"><title>Node2&#45;&gt;Node40</title>
<path fill="none" stroke="midnightblue" d="M212.358,-976.089C214.378,-885.577 227.064,-513.694 300,-429 305.982,-422.054 313.865,-417.012 322.351,-413.358"/>
<polygon fill="midnightblue" stroke="midnightblue" points="208.858,-976.045 212.153,-986.114 215.856,-976.188 208.858,-976.045"/>
</g>
<!-- Node41 -->
<g id="node41" class="node"><title>Node41</title>
<g id="a_node41"><a xlink:href="../../d4/d73/classCalibDriftDist.html#ab8f98ba3b01859d64f958f280d0fe22f" target="_top" xlink:title="CalibDriftDist::InitRun">
<polygon fill="none" stroke="black" points="327,-350.5 327,-369.5 435,-369.5 435,-350.5 327,-350.5"/>
<text text-anchor="middle" x="381" y="-357.5" font-family="FreeSans" font-size="10.00">CalibDriftDist::InitRun</text>
</a>
</g>
</g>
<!-- Node2&#45;&gt;Node41 -->
<g id="edge55" class="edge"><title>Node2&#45;&gt;Node41</title>
<path fill="none" stroke="midnightblue" d="M211.975,-976.112C212.264,-880.678 218.307,-470.58 300,-380 307.095,-372.133 316.773,-367.143 326.948,-364.024"/>
<polygon fill="midnightblue" stroke="midnightblue" points="208.475,-976.144 211.963,-986.148 215.475,-976.152 208.475,-976.144"/>
</g>
<!-- Node42 -->
<g id="node42" class="node"><title>Node42</title>
<g id="a_node42"><a xlink:href="../../d5/df3/classPHG4SimpleEventGenerator.html#a54f0db778c3a2a4154b76b30e75baf44" target="_top" xlink:title="PHG4SimpleEventGenerator\l::InitRun">
<polygon fill="none" stroke="black" points="311,-301 311,-331 451,-331 451,-301 311,-301"/>
<text text-anchor="start" x="319" y="-319" font-family="FreeSans" font-size="10.00">PHG4SimpleEventGenerator</text>
<text text-anchor="middle" x="381" y="-308" font-family="FreeSans" font-size="10.00">::InitRun</text>
</a>
</g>
</g>
<!-- Node2&#45;&gt;Node42 -->
<g id="edge56" class="edge"><title>Node2&#45;&gt;Node42</title>
<path fill="none" stroke="midnightblue" d="M211.899,-975.908C211.802,-876.75 216.207,-440.336 300,-341 303.284,-337.107 307.165,-333.811 311.419,-331.022"/>
<polygon fill="midnightblue" stroke="midnightblue" points="208.399,-976.068 211.927,-986.059 215.399,-976.049 208.399,-976.068"/>
</g>
<!-- Node43 -->
<g id="node43" class="node"><title>Node43</title>
<g id="a_node43"><a xlink:href="../../d0/d78/classPHG4Reco.html#a9d8228ce8682c19cd6be2f6b44ec847b" target="_top" xlink:title="PHG4Reco::InitRun">
<polygon fill="none" stroke="red" points="330.5,-1005.5 330.5,-1024.5 431.5,-1024.5 431.5,-1005.5 330.5,-1005.5"/>
<text text-anchor="middle" x="381" y="-1012.5" font-family="FreeSans" font-size="10.00">PHG4Reco::InitRun</text>
</a>
</g>
</g>
<!-- Node2&#45;&gt;Node43 -->
<g id="edge57" class="edge"><title>Node2&#45;&gt;Node43</title>
<path fill="none" stroke="midnightblue" d="M273.93,-1003C292.54,-1005.11 312.706,-1007.39 330.407,-1009.39"/>
<polygon fill="midnightblue" stroke="midnightblue" points="274.106,-999.502 263.776,-1001.86 273.32,-1006.46 274.106,-999.502"/>
</g>
<!-- Node44 -->
<g id="node44" class="node"><title>Node44</title>
<g id="a_node44"><a xlink:href="../../d1/d13/classVertexFit.html#a818383ba3a5c7c386c5c8bb3328aa0a3" target="_top" xlink:title="VertexFit::InitRun">
<polygon fill="none" stroke="black" points="336,-262.5 336,-281.5 426,-281.5 426,-262.5 336,-262.5"/>
<text text-anchor="middle" x="381" y="-269.5" font-family="FreeSans" font-size="10.00">VertexFit::InitRun</text>
</a>
</g>
</g>
<!-- Node2&#45;&gt;Node44 -->
<g id="edge59" class="edge"><title>Node2&#45;&gt;Node44</title>
<path fill="none" stroke="midnightblue" d="M211.579,-975.972C209.819,-872.257 206.988,-396.967 300,-292 309.115,-281.714 322.644,-276.33 335.994,-273.618"/>
<polygon fill="midnightblue" stroke="midnightblue" points="208.085,-976.333 211.773,-986.266 215.084,-976.202 208.085,-976.333"/>
</g>
<!-- Node45 -->
<g id="node45" class="node"><title>Node45</title>
<g id="a_node45"><a xlink:href="../../dd/d1f/classPHRandomSeed.html#a2bde8781fe8b52f6f01d4160139f4f55" target="_top" xlink:title="PHRandomSeed::InitSeed">
<polygon fill="none" stroke="black" points="316.5,-224.5 316.5,-243.5 445.5,-243.5 445.5,-224.5 316.5,-224.5"/>
<text text-anchor="middle" x="381" y="-231.5" font-family="FreeSans" font-size="10.00">PHRandomSeed::InitSeed</text>
</a>
</g>
</g>
<!-- Node2&#45;&gt;Node45 -->
<g id="edge60" class="edge"><title>Node2&#45;&gt;Node45</title>
<path fill="none" stroke="midnightblue" d="M213.012,-976.093C218.912,-863.42 250.346,-308.736 300,-253 304.558,-247.884 310.219,-244.018 316.41,-241.114"/>
<polygon fill="midnightblue" stroke="midnightblue" points="209.502,-976.185 212.481,-986.353 216.493,-976.547 209.502,-976.185"/>
</g>
<!-- Node46 -->
<g id="node46" class="node"><title>Node46</title>
<g id="a_node46"><a xlink:href="../../d3/d46/classKalmanFastTracking.html#a1f0655a7ab5073c08fe0bfa15930dc8c" target="_top" xlink:title="KalmanFastTracking\l::KalmanFastTracking">
<polygon fill="none" stroke="black" points="326,-175 326,-205 436,-205 436,-175 326,-175"/>
<text text-anchor="start" x="334" y="-193" font-family="FreeSans" font-size="10.00">KalmanFastTracking</text>
<text text-anchor="middle" x="381" y="-182" font-family="FreeSans" font-size="10.00">::KalmanFastTracking</text>
</a>
</g>
</g>
<!-- Node2&#45;&gt;Node46 -->
<g id="edge61" class="edge"><title>Node2&#45;&gt;Node46</title>
<path fill="none" stroke="midnightblue" d="M212.95,-976.223C218.665,-860.651 249.929,-275.66 300,-215 306.669,-206.92 315.915,-201.408 325.761,-197.657"/>
<polygon fill="midnightblue" stroke="midnightblue" points="209.443,-976.271 212.451,-986.43 216.435,-976.612 209.443,-976.271"/>
</g>
<!-- Node47 -->
<g id="node47" class="node"><title>Node47</title>
<g id="a_node47"><a xlink:href="../../de/d12/classKalmanFastTrackletting.html#a163476fa3f6e96b1a179f092dfbdb17a" target="_top" xlink:title="KalmanFastTrackletting\l::KalmanFastTrackletting">
<polygon fill="none" stroke="black" points="319,-126 319,-156 443,-156 443,-126 319,-126"/>
<text text-anchor="start" x="327" y="-144" font-family="FreeSans" font-size="10.00">KalmanFastTrackletting</text>
<text text-anchor="middle" x="381" y="-133" font-family="FreeSans" font-size="10.00">::KalmanFastTrackletting</text>
</a>
</g>
</g>
<!-- Node2&#45;&gt;Node47 -->
<g id="edge62" class="edge"><title>Node2&#45;&gt;Node47</title>
<path fill="none" stroke="midnightblue" d="M212.816,-976.117C217.911,-856.055 246.873,-230.795 300,-166 305.074,-159.811 311.661,-155.128 318.876,-151.588"/>
<polygon fill="midnightblue" stroke="midnightblue" points="209.307,-976.254 212.386,-986.391 216.301,-976.546 209.307,-976.254"/>
</g>
<!-- Node48 -->
<g id="node48" class="node"><title>Node48</title>
<g id="a_node48"><a xlink:href="../../dc/de0/test__vtx_8C.html#a0ddf1224851353fc92bfbff6f499fa97" target="_top" xlink:title="main">
<polygon fill="none" stroke="black" points="362,-87.5 362,-106.5 400,-106.5 400,-87.5 362,-87.5"/>
<text text-anchor="middle" x="381" y="-94.5" font-family="FreeSans" font-size="10.00">main</text>
</a>
</g>
</g>
<!-- Node2&#45;&gt;Node48 -->
<g id="edge63" class="edge"><title>Node2&#45;&gt;Node48</title>
<path fill="none" stroke="midnightblue" d="M212.641,-976.071C216.816,-851.621 241.825,-184.3 300,-117 315.167,-99.4541 343.174,-96.1057 361.697,-96.0124"/>
<polygon fill="midnightblue" stroke="midnightblue" points="209.132,-976.272 212.301,-986.382 216.128,-976.502 209.132,-976.272"/>
</g>
<!-- Node49 -->
<g id="node49" class="node"><title>Node49</title>
<g id="a_node49"><a xlink:href="../../d6/deb/PHGeom__DSTInspection_8C.html#a8a06a40e2950cd31dda512c040049cd0" target="_top" xlink:title="PHGeom_DSTInspection">
<polygon fill="none" stroke="black" points="318.5,-49.5 318.5,-68.5 443.5,-68.5 443.5,-49.5 318.5,-49.5"/>
<text text-anchor="middle" x="381" y="-56.5" font-family="FreeSans" font-size="10.00">PHGeom_DSTInspection</text>
</a>
</g>
</g>
<!-- Node2&#45;&gt;Node49 -->
<g id="edge64" class="edge"><title>Node2&#45;&gt;Node49</title>
<path fill="none" stroke="midnightblue" d="M212.544,-975.974C216.194,-848.031 238.878,-148.17 300,-78 304.969,-72.295 311.31,-68.1378 318.241,-65.1321"/>
<polygon fill="midnightblue" stroke="midnightblue" points="209.037,-976.154 212.257,-986.248 216.035,-976.349 209.037,-976.154"/>
</g>
<!-- Node50 -->
<g id="node50" class="node"><title>Node50</title>
<g id="a_node50"><a xlink:href="../../db/d6c/classHepMCNodeReader.html#aa71e336f1ee6610de412c61a1de37470" target="_top" xlink:title="HepMCNodeReader::process\l_event">
<polygon fill="none" stroke="black" points="311,-0 311,-30 451,-30 451,-0 311,-0"/>
<text text-anchor="start" x="319" y="-18" font-family="FreeSans" font-size="10.00">HepMCNodeReader::process</text>
<text text-anchor="middle" x="381" y="-7" font-family="FreeSans" font-size="10.00">_event</text>
</a>
</g>
</g>
<!-- Node2&#45;&gt;Node50 -->
<g id="edge65" class="edge"><title>Node2&#45;&gt;Node50</title>
<path fill="none" stroke="midnightblue" d="M212.516,-976.419C216.093,-846.828 238.908,-115.57 300,-40 303.11,-36.1526 306.806,-32.8861 310.876,-30.1142"/>
<polygon fill="midnightblue" stroke="midnightblue" points="209.015,-976.383 212.244,-986.474 216.013,-976.572 209.015,-976.383"/>
</g>
<!-- Node23 -->
<g id="node23" class="node"><title>Node23</title>
<g id="a_node23"><a xlink:href="../../de/de6/Fun4AllReco_8C.html#a4897de516e3b8adf4af5321c24469fcc" target="_top" xlink:title="Fun4AllReco.C: Fun4all macro to run the reconstruction. ">
<polygon fill="none" stroke="black" points="499.5,-1131.5 499.5,-1150.5 606.5,-1150.5 606.5,-1131.5 499.5,-1131.5"/>
<text text-anchor="middle" x="553" y="-1138.5" font-family="FreeSans" font-size="10.00">R__LOAD_LIBRARY</text>
</a>
</g>
</g>
<!-- Node2&#45;&gt;Node23 -->
<g id="edge66" class="edge"><title>Node2&#45;&gt;Node23</title>
<path fill="none" stroke="midnightblue" d="M221.435,-1014.65C235.094,-1039.54 262.865,-1082.91 300,-1104 361.908,-1139.15 445.619,-1144.73 499.223,-1144.02"/>
<polygon fill="midnightblue" stroke="midnightblue" points="224.526,-1013.01 216.752,-1005.81 218.341,-1016.29 224.526,-1013.01"/>
</g>
<!-- Node9&#45;&gt;Node10 -->
<g id="edge9" class="edge"><title>Node9&#45;&gt;Node10</title>
<path fill="none" stroke="midnightblue" d="M385.808,-1426.47C395.807,-1472.51 427.084,-1588.99 498,-1653 506.263,-1660.46 517.632,-1665.03 527.807,-1667.81"/>
<polygon fill="midnightblue" stroke="midnightblue" points="389.216,-1425.67 383.758,-1416.59 382.362,-1427.09 389.216,-1425.67"/>
</g>
<!-- Node9&#45;&gt;Node11 -->
<g id="edge10" class="edge"><title>Node9&#45;&gt;Node11</title>
<path fill="none" stroke="midnightblue" d="M387.648,-1426.46C400.466,-1467.28 435.596,-1562.42 498,-1615 502.56,-1618.84 507.949,-1621.93 513.527,-1624.4"/>
<polygon fill="midnightblue" stroke="midnightblue" points="390.996,-1425.44 384.742,-1416.89 384.297,-1427.47 390.996,-1425.44"/>
</g>
<!-- Node9&#45;&gt;Node12 -->
<g id="edge11" class="edge"><title>Node9&#45;&gt;Node12</title>
<path fill="none" stroke="midnightblue" d="M390.117,-1426.15C405.861,-1461.08 443.824,-1535.37 498,-1577 502.965,-1580.81 508.756,-1583.9 514.667,-1586.39"/>
<polygon fill="midnightblue" stroke="midnightblue" points="393.173,-1424.41 385.951,-1416.65 386.763,-1427.22 393.173,-1424.41"/>
</g>
<!-- Node9&#45;&gt;Node13 -->
<g id="edge12" class="edge"><title>Node9&#45;&gt;Node13</title>
<path fill="none" stroke="midnightblue" d="M393.642,-1425.09C412.442,-1452.98 452.06,-1506.54 498,-1538 504.434,-1542.41 511.961,-1545.98 519.316,-1548.83"/>
<polygon fill="midnightblue" stroke="midnightblue" points="396.519,-1423.1 388.085,-1416.69 390.68,-1426.96 396.519,-1423.1"/>
</g>
<!-- Node9&#45;&gt;Node14 -->
<g id="edge13" class="edge"><title>Node9&#45;&gt;Node14</title>
<path fill="none" stroke="midnightblue" d="M399.153,-1423.51C420.744,-1443.58 459.665,-1477.43 498,-1499 505.144,-1503.02 513.252,-1506.52 520.973,-1509.41"/>
<polygon fill="midnightblue" stroke="midnightblue" points="401.442,-1420.86 391.763,-1416.55 396.641,-1425.96 401.442,-1420.86"/>
</g>
<!-- Node9&#45;&gt;Node15 -->
<g id="edge14" class="edge"><title>Node9&#45;&gt;Node15</title>
<path fill="none" stroke="midnightblue" d="M411.742,-1420.83C435.069,-1431.56 468.426,-1446.63 498,-1459 507.28,-1462.88 517.55,-1466.93 526.62,-1470.43"/>
<polygon fill="midnightblue" stroke="midnightblue" points="412.945,-1417.53 402.399,-1416.52 410.013,-1423.89 412.945,-1417.53"/>
</g>
<!-- Node9&#45;&gt;Node16 -->
<g id="edge15" class="edge"><title>Node9&#45;&gt;Node16</title>
<path fill="none" stroke="midnightblue" d="M440.242,-1418.31C466.85,-1423.47 497.353,-1429.39 519.762,-1433.74"/>
<polygon fill="midnightblue" stroke="midnightblue" points="440.744,-1414.84 430.26,-1416.37 439.41,-1421.71 440.744,-1414.84"/>
</g>
<!-- Node9&#45;&gt;Node17 -->
<g id="edge16" class="edge"><title>Node9&#45;&gt;Node17</title>
<path fill="none" stroke="midnightblue" d="M440.384,-1403.57C469.632,-1401.85 503.555,-1399.85 526.256,-1398.51"/>
<polygon fill="midnightblue" stroke="midnightblue" points="440.038,-1400.08 430.26,-1404.16 440.449,-1407.07 440.038,-1400.08"/>
</g>
<!-- Node9&#45;&gt;Node18 -->
<g id="edge17" class="edge"><title>Node9&#45;&gt;Node18</title>
<path fill="none" stroke="midnightblue" d="M420.182,-1394.2C451.594,-1383.67 495.404,-1368.98 523.736,-1359.48"/>
<polygon fill="midnightblue" stroke="midnightblue" points="418.823,-1390.96 410.454,-1397.46 421.048,-1397.6 418.823,-1390.96"/>
</g>
<!-- Node9&#45;&gt;Node19 -->
<g id="edge18" class="edge"><title>Node9&#45;&gt;Node19</title>
<path fill="none" stroke="midnightblue" d="M404.92,-1391.63C440.475,-1367.79 507.902,-1322.57 537.478,-1302.74"/>
<polygon fill="midnightblue" stroke="midnightblue" points="402.558,-1389 396.202,-1397.48 406.457,-1394.81 402.558,-1389"/>
</g>
<!-- Node9&#45;&gt;Node20 -->
<g id="edge19" class="edge"><title>Node9&#45;&gt;Node20</title>
<path fill="none" stroke="midnightblue" d="M393.24,-1388.95C411.752,-1360.61 451.297,-1305.67 498,-1274 503.593,-1270.21 510.025,-1267.09 516.455,-1264.55"/>
<polygon fill="midnightblue" stroke="midnightblue" points="390.231,-1387.16 387.788,-1397.47 396.127,-1390.93 390.231,-1387.16"/>
</g>
<!-- Node9&#45;&gt;Node21 -->
<g id="edge20" class="edge"><title>Node9&#45;&gt;Node21</title>
<path fill="none" stroke="midnightblue" d="M390.086,-1387.74C405.78,-1352.6 443.663,-1277.87 498,-1236 502.96,-1232.18 508.748,-1229.09 514.658,-1226.6"/>
<polygon fill="midnightblue" stroke="midnightblue" points="386.71,-1386.72 385.935,-1397.29 393.13,-1389.51 386.71,-1386.72"/>
</g>
<!-- Node9&#45;&gt;Node22 -->
<g id="edge21" class="edge"><title>Node9&#45;&gt;Node22</title>
<path fill="none" stroke="midnightblue" d="M387.62,-1387.44C400.386,-1346.43 435.421,-1250.84 498,-1198 502.556,-1194.15 507.943,-1191.07 513.521,-1188.59"/>
<polygon fill="midnightblue" stroke="midnightblue" points="384.256,-1386.48 384.727,-1397.06 390.959,-1388.5 384.256,-1386.48"/>
</g>
<!-- Node9&#45;&gt;Node23 -->
<g id="edge22" class="edge"><title>Node9&#45;&gt;Node23</title>
<path fill="none" stroke="midnightblue" d="M385.784,-1387.45C395.729,-1341.23 426.898,-1224.28 498,-1160 502.276,-1156.13 507.386,-1153.05 512.733,-1150.58"/>
<polygon fill="midnightblue" stroke="midnightblue" points="382.329,-1386.87 383.746,-1397.37 389.186,-1388.28 382.329,-1386.87"/>
</g>
<!-- Node28&#45;&gt;Node24 -->
<g id="edge28" class="edge"><title>Node28&#45;&gt;Node24</title>
<path fill="none" stroke="midnightblue" d="M461.98,-1059C477.003,-1059 492.236,-1059 505.793,-1059"/>
<polygon fill="midnightblue" stroke="midnightblue" points="461.636,-1055.5 451.636,-1059 461.636,-1062.5 461.636,-1055.5"/>
</g>
<!-- Node36&#45;&gt;Node35 -->
<g id="edge50" class="edge"><title>Node36&#45;&gt;Node35</title>
<path fill="none" stroke="midnightblue" d="M456.33,-593.307C476.357,-595.546 497.187,-597.874 514.278,-599.784"/>
<polygon fill="midnightblue" stroke="midnightblue" points="456.597,-589.816 446.27,-592.183 455.819,-596.772 456.597,-589.816"/>
</g>
<!-- Node43&#45;&gt;Node24 -->
<g id="edge58" class="edge"><title>Node43&#45;&gt;Node24</title>
<path fill="none" stroke="midnightblue" d="M430.467,-1026.99C440.877,-1029.6 451.811,-1032.37 462,-1035 480.006,-1039.65 499.996,-1044.97 516.555,-1049.41"/>
<polygon fill="midnightblue" stroke="midnightblue" points="431.237,-1023.57 420.687,-1024.54 429.539,-1030.36 431.237,-1023.57"/>
</g>
</g>
</svg>
