<?xml version="1.0" encoding="UTF-8" standalone="no"?>
<!DOCTYPE svg PUBLIC "-//W3C//DTD SVG 1.1//EN"
 "http://www.w3.org/Graphics/SVG/1.1/DTD/svg11.dtd">
<!-- Generated by graphviz version 2.36.0 (20140111.2315)
 -->
<!-- Title: SRecDimuon::calcVariables Pages: 1 -->
<svg width="372pt" height="28pt"
 viewBox="0.00 0.00 372.00 28.00" xmlns="http://www.w3.org/2000/svg" xmlns:xlink="http://www.w3.org/1999/xlink">
<g id="graph0" class="graph" transform="scale(1 1) rotate(0) translate(4 24)">
<title>SRecDimuon::calcVariables</title>
<!-- Node1 -->
<g id="node1" class="node"><title>Node1</title>
<polygon fill="#bfbfbf" stroke="black" points="0.5,-0.5 0.5,-19.5 137.5,-19.5 137.5,-0.5 0.5,-0.5"/>
<text text-anchor="middle" x="69" y="-7.5" font-family="FreeSans" font-size="10.00">SRecDimuon::calcVariables</text>
</g>
<!-- Node2 -->
<g id="node2" class="node"><title>Node2</title>
<g id="a_node2"><a xlink:href="../../d1/d13/classVertexFit.html#a080d08ef76e4108261aaf89373c07211" target="_top" xlink:title="Set the SRecEvent, main external call the use vertex fit. ">
<polygon fill="none" stroke="black" points="174,-0.5 174,-19.5 290,-19.5 290,-0.5 174,-0.5"/>
<text text-anchor="middle" x="232" y="-7.5" font-family="FreeSans" font-size="10.00">VertexFit::setRecEvent</text>
</a>
</g>
</g>
<!-- Node1&#45;&gt;Node2 -->
<g id="edge1" class="edge"><title>Node1&#45;&gt;Node2</title>
<path fill="none" stroke="midnightblue" d="M148.031,-10C156.772,-10 165.552,-10 173.958,-10"/>
<polygon fill="midnightblue" stroke="midnightblue" points="147.812,-6.5001 137.812,-10 147.812,-13.5001 147.812,-6.5001"/>
</g>
<!-- Node3 -->
<g id="node3" class="node"><title>Node3</title>
<g id="a_node3"><a xlink:href="../../de/d69/trackMixer_8cxx.html#a0ddf1224851353fc92bfbff6f499fa97" target="_top" xlink:title="main">
<polygon fill="none" stroke="black" points="326,-0.5 326,-19.5 364,-19.5 364,-0.5 326,-0.5"/>
<text text-anchor="middle" x="345" y="-7.5" font-family="FreeSans" font-size="10.00">main</text>
</a>
</g>
</g>
<!-- Node2&#45;&gt;Node3 -->
<g id="edge2" class="edge"><title>Node2&#45;&gt;Node3</title>
<path fill="none" stroke="midnightblue" d="M300.376,-10C309.702,-10 318.558,-10 325.824,-10"/>
<polygon fill="midnightblue" stroke="midnightblue" points="300.126,-6.5001 290.126,-10 300.126,-13.5001 300.126,-6.5001"/>
</g>
</g>
</svg>
