<?xml version="1.0" encoding="UTF-8" standalone="no"?>
<!DOCTYPE svg PUBLIC "-//W3C//DTD SVG 1.1//EN"
 "http://www.w3.org/Graphics/SVG/1.1/DTD/svg11.dtd">
<!-- Generated by graphviz version 2.36.0 (20140111.2315)
 -->
<!-- Title: evRead Pages: 1 -->
<svg width="938pt" height="126pt"
 viewBox="0.00 0.00 938.00 126.00" xmlns="http://www.w3.org/2000/svg" xmlns:xlink="http://www.w3.org/1999/xlink">
<g id="graph0" class="graph" transform="scale(1 1) rotate(0) translate(4 122)">
<title>evRead</title>
<!-- Node1 -->
<g id="node1" class="node"><title>Node1</title>
<polygon fill="#bfbfbf" stroke="black" points="0,-60.5 0,-79.5 50,-79.5 50,-60.5 0,-60.5"/>
<text text-anchor="middle" x="25" y="-67.5" font-family="FreeSans" font-size="10.00">evRead</text>
</g>
<!-- Node2 -->
<g id="node2" class="node"><title>Node2</title>
<g id="a_node2"><a xlink:href="../../d9/dca/evio_8c.html#ae03ba5881a2cca0aa4b784aa018f1db5" target="_top" xlink:title="evread_">
<polygon fill="none" stroke="black" points="133.5,-98.5 133.5,-117.5 184.5,-117.5 184.5,-98.5 133.5,-98.5"/>
<text text-anchor="middle" x="159" y="-105.5" font-family="FreeSans" font-size="10.00">evread_</text>
</a>
</g>
</g>
<!-- Node1&#45;&gt;Node2 -->
<g id="edge1" class="edge"><title>Node1&#45;&gt;Node2</title>
<path fill="none" stroke="midnightblue" d="M59.7957,-81.0187C68.3228,-83.7115 77.477,-86.5276 86,-89 101.644,-93.5383 119.331,-98.2119 133.259,-101.788"/>
<polygon fill="midnightblue" stroke="midnightblue" points="60.7399,-77.6462 50.1492,-77.9422 58.613,-84.3153 60.7399,-77.6462"/>
</g>
<!-- Node3 -->
<g id="node3" class="node"><title>Node3</title>
<g id="a_node3"><a xlink:href="../../df/de8/evtest_8c.html#a51af30a60f9f02777c6396b8247e356f" target="_top" xlink:title="main">
<polygon fill="none" stroke="black" points="140,-60.5 140,-79.5 178,-79.5 178,-60.5 140,-60.5"/>
<text text-anchor="middle" x="159" y="-67.5" font-family="FreeSans" font-size="10.00">main</text>
</a>
</g>
</g>
<!-- Node1&#45;&gt;Node3 -->
<g id="edge2" class="edge"><title>Node1&#45;&gt;Node3</title>
<path fill="none" stroke="midnightblue" d="M60.5454,-70C85.9649,-70 119.51,-70 139.88,-70"/>
<polygon fill="midnightblue" stroke="midnightblue" points="60.2109,-66.5001 50.2108,-70 60.2108,-73.5001 60.2109,-66.5001"/>
</g>
<!-- Node4 -->
<g id="node4" class="node"><title>Node4</title>
<g id="a_node4"><a xlink:href="../../d0/d21/classManageCodaInput.html#a45ae02994e5d4545960c25b05924b0d3" target="_top" xlink:title="ManageCodaInput::NextEvent">
<polygon fill="none" stroke="black" points="86.5,-22.5 86.5,-41.5 231.5,-41.5 231.5,-22.5 86.5,-22.5"/>
<text text-anchor="middle" x="159" y="-29.5" font-family="FreeSans" font-size="10.00">ManageCodaInput::NextEvent</text>
</a>
</g>
</g>
<!-- Node1&#45;&gt;Node4 -->
<g id="edge3" class="edge"><title>Node1&#45;&gt;Node4</title>
<path fill="none" stroke="midnightblue" d="M59.7957,-58.9813C68.3228,-56.2885 77.477,-53.4724 86,-51 97.1744,-47.7584 109.391,-44.4477 120.535,-41.5172"/>
<polygon fill="midnightblue" stroke="midnightblue" points="58.613,-55.6847 50.1492,-62.0578 60.7399,-62.3538 58.613,-55.6847"/>
</g>
<!-- Node5 -->
<g id="node5" class="node"><title>Node5</title>
<g id="a_node5"><a xlink:href="../../d3/d97/classFun4AllEVIOInputManager.html#af61a28facba084aad29bf788ef2d28e7" target="_top" xlink:title="Fun4AllEVIOInputManager::run">
<polygon fill="none" stroke="black" points="780,-55.5 780,-74.5 930,-74.5 930,-55.5 780,-55.5"/>
<text text-anchor="middle" x="855" y="-62.5" font-family="FreeSans" font-size="10.00">Fun4AllEVIOInputManager::run</text>
</a>
</g>
</g>
<!-- Node4&#45;&gt;Node5 -->
<g id="edge4" class="edge"><title>Node4&#45;&gt;Node5</title>
<path fill="none" stroke="midnightblue" d="M216.624,-44.6913C221.922,-46.5464 227.127,-48.6416 232,-51 250.002,-59.7129 249.026,-71.6754 268,-78 464.94,-143.647 720.122,-96.4138 815.665,-74.5169"/>
<polygon fill="midnightblue" stroke="midnightblue" points="217.629,-41.3381 207.037,-41.6067 215.485,-48.0017 217.629,-41.3381"/>
</g>
<!-- Node6 -->
<g id="node6" class="node"><title>Node6</title>
<g id="a_node6"><a xlink:href="../../d3/d97/classFun4AllEVIOInputManager.html#a0d59e8ef314a38e5a18c92e0224a2efa" target="_top" xlink:title="Fun4AllEVIOInputManager\l::PushBackEvents">
<polygon fill="none" stroke="black" points="272,-39 272,-69 404,-69 404,-39 272,-39"/>
<text text-anchor="start" x="280" y="-57" font-family="FreeSans" font-size="10.00">Fun4AllEVIOInputManager</text>
<text text-anchor="middle" x="338" y="-46" font-family="FreeSans" font-size="10.00">::PushBackEvents</text>
</a>
</g>
</g>
<!-- Node4&#45;&gt;Node6 -->
<g id="edge5" class="edge"><title>Node4&#45;&gt;Node6</title>
<path fill="none" stroke="midnightblue" d="M241.734,-42.159C251.788,-43.4087 261.96,-44.6729 271.725,-45.8867"/>
<polygon fill="midnightblue" stroke="midnightblue" points="242.093,-38.6768 231.738,-40.9165 241.229,-45.6233 242.093,-38.6768"/>
</g>
<!-- Node7 -->
<g id="node7" class="node"><title>Node7</title>
<g id="a_node7"><a xlink:href="../../d0/d21/classManageCodaInput.html#a6bb323bb8c65592d200b073b5915cb16" target="_top" xlink:title="ManageCodaInput::OpenFile">
<polygon fill="none" stroke="black" points="268.5,-0.5 268.5,-19.5 407.5,-19.5 407.5,-0.5 268.5,-0.5"/>
<text text-anchor="middle" x="338" y="-7.5" font-family="FreeSans" font-size="10.00">ManageCodaInput::OpenFile</text>
</a>
</g>
</g>
<!-- Node4&#45;&gt;Node7 -->
<g id="edge6" class="edge"><title>Node4&#45;&gt;Node7</title>
<path fill="none" stroke="midnightblue" d="M203.403,-20.7039C222.936,-17.4705 246.467,-14.3136 268.304,-11.941"/>
<polygon fill="midnightblue" stroke="midnightblue" points="202.551,-17.2992 193.292,-22.4505 203.742,-24.1971 202.551,-17.2992"/>
</g>
<!-- Node7&#45;&gt;Node4 -->
<g id="edge10" class="edge"><title>Node7&#45;&gt;Node4</title>
<path fill="none" stroke="midnightblue" d="M293.752,-21.2704C275.092,-24.3631 252.76,-27.3876 231.738,-29.7247"/>
<polygon fill="midnightblue" stroke="midnightblue" points="294.452,-24.7015 303.709,-19.5492 293.259,-17.8038 294.452,-24.7015"/>
</g>
<!-- Node8 -->
<g id="node8" class="node"><title>Node8</title>
<g id="a_node8"><a xlink:href="../../d3/d97/classFun4AllEVIOInputManager.html#a7bb0e143543d8a1754c9b7d4451f9e3b" target="_top" xlink:title="Fun4AllEVIOInputManager\l::fileopen">
<polygon fill="none" stroke="black" points="444,-6 444,-36 576,-36 576,-6 444,-6"/>
<text text-anchor="start" x="452" y="-24" font-family="FreeSans" font-size="10.00">Fun4AllEVIOInputManager</text>
<text text-anchor="middle" x="510" y="-13" font-family="FreeSans" font-size="10.00">::fileopen</text>
</a>
</g>
</g>
<!-- Node7&#45;&gt;Node8 -->
<g id="edge7" class="edge"><title>Node7&#45;&gt;Node8</title>
<path fill="none" stroke="midnightblue" d="M417.848,-15.1019C426.583,-15.6672 435.406,-16.238 443.944,-16.7905"/>
<polygon fill="midnightblue" stroke="midnightblue" points="417.861,-11.5955 407.655,-14.4424 417.409,-18.5809 417.861,-11.5955"/>
</g>
<!-- Node9 -->
<g id="node9" class="node"><title>Node9</title>
<g id="a_node9"><a xlink:href="../../d3/d97/classFun4AllEVIOInputManager.html#a1e94c890a89e8601f767c64cf26db5f9" target="_top" xlink:title="Fun4AllEVIOInputManager\l::OpenNextFile">
<polygon fill="none" stroke="black" points="612,-17 612,-47 744,-47 744,-17 612,-17"/>
<text text-anchor="start" x="620" y="-35" font-family="FreeSans" font-size="10.00">Fun4AllEVIOInputManager</text>
<text text-anchor="middle" x="678" y="-24" font-family="FreeSans" font-size="10.00">::OpenNextFile</text>
</a>
</g>
</g>
<!-- Node8&#45;&gt;Node9 -->
<g id="edge8" class="edge"><title>Node8&#45;&gt;Node9</title>
<path fill="none" stroke="midnightblue" d="M586.114,-25.9774C594.681,-26.5451 603.361,-27.1203 611.784,-27.6785"/>
<polygon fill="midnightblue" stroke="midnightblue" points="586.341,-22.4849 576.131,-25.3159 585.878,-29.4696 586.341,-22.4849"/>
</g>
<!-- Node9&#45;&gt;Node5 -->
<g id="edge9" class="edge"><title>Node9&#45;&gt;Node5</title>
<path fill="none" stroke="midnightblue" d="M754.406,-46.2194C771.013,-49.3511 788.214,-52.5946 803.552,-55.4869"/>
<polygon fill="midnightblue" stroke="midnightblue" points="754.639,-42.7017 744.164,-44.288 753.342,-49.5805 754.639,-42.7017"/>
</g>
</g>
</svg>
