<?xml version="1.0" encoding="UTF-8" standalone="no"?>
<!DOCTYPE svg PUBLIC "-//W3C//DTD SVG 1.1//EN"
 "http://www.w3.org/Graphics/SVG/1.1/DTD/svg11.dtd">
<!-- Generated by graphviz version 2.36.0 (20140111.2315)
 -->
<!-- Title: PHG4BlockCellReco::CheckEnergy Pages: 1 -->
<svg width="262pt" height="77pt"
 viewBox="0.00 0.00 262.00 77.00" xmlns="http://www.w3.org/2000/svg" xmlns:xlink="http://www.w3.org/1999/xlink">
<g id="graph0" class="graph" transform="scale(1 1) rotate(0) translate(4 73)">
<title>PHG4BlockCellReco::CheckEnergy</title>
<!-- Node1 -->
<g id="node1" class="node"><title>Node1</title>
<polygon fill="#bfbfbf" stroke="black" points="0,-17 0,-47 112,-47 112,-17 0,-17"/>
<text text-anchor="start" x="8" y="-35" font-family="FreeSans" font-size="10.00">PHG4BlockCellReco::</text>
<text text-anchor="middle" x="56" y="-24" font-family="FreeSans" font-size="10.00">CheckEnergy</text>
</g>
<!-- Node2 -->
<g id="node2" class="node"><title>Node2</title>
<g id="a_node2"><a xlink:href="../../d4/d97/classPHG4CellContainer.html#a143d53939e2ba1daeea68be10b33125d" target="_top" xlink:title="return all Cells matching a given detid ">
<polygon fill="none" stroke="black" points="148,-39 148,-69 254,-69 254,-39 148,-39"/>
<text text-anchor="start" x="156" y="-57" font-family="FreeSans" font-size="10.00">PHG4CellContainer::</text>
<text text-anchor="middle" x="201" y="-46" font-family="FreeSans" font-size="10.00">getCells</text>
</a>
</g>
</g>
<!-- Node1&#45;&gt;Node2 -->
<g id="edge1" class="edge"><title>Node1&#45;&gt;Node2</title>
<path fill="none" stroke="midnightblue" d="M112.288,-40.5058C120.557,-41.778 129.132,-43.0972 137.538,-44.3904"/>
<polygon fill="midnightblue" stroke="midnightblue" points="137.259,-47.8886 147.675,-45.95 138.323,-40.97 137.259,-47.8886"/>
</g>
<!-- Node3 -->
<g id="node3" class="node"><title>Node3</title>
<g id="a_node3"><a xlink:href="../../d5/dec/classFun4AllBase.html#a41f9ac377743d046f590617fd6f4f0ed" target="_top" xlink:title="Returns the name of this module. ">
<polygon fill="none" stroke="black" points="149.5,-0.5 149.5,-19.5 252.5,-19.5 252.5,-0.5 149.5,-0.5"/>
<text text-anchor="middle" x="201" y="-7.5" font-family="FreeSans" font-size="10.00">Fun4AllBase::Name</text>
</a>
</g>
</g>
<!-- Node1&#45;&gt;Node3 -->
<g id="edge2" class="edge"><title>Node1&#45;&gt;Node3</title>
<path fill="none" stroke="midnightblue" d="M112.288,-23.4942C121.081,-22.1413 130.221,-20.7353 139.135,-19.3639"/>
<polygon fill="midnightblue" stroke="midnightblue" points="139.721,-22.815 149.072,-17.835 138.656,-15.8964 139.721,-22.815"/>
</g>
</g>
</svg>
