<?xml version="1.0" encoding="UTF-8" standalone="no"?>
<!DOCTYPE svg PUBLIC "-//W3C//DTD SVG 1.1//EN"
 "http://www.w3.org/Graphics/SVG/1.1/DTD/svg11.dtd">
<!-- Generated by graphviz version 2.36.0 (20140111.2315)
 -->
<!-- Title: /home/yuhw/GitHub/SeaQuest/e1039&#45;core/simulation/g4main/PHG4Hitv1.h Pages: 1 -->
<svg width="2988pt" height="206pt"
 viewBox="0.00 0.00 2988.00 206.00" xmlns="http://www.w3.org/2000/svg" xmlns:xlink="http://www.w3.org/1999/xlink">
<g id="graph0" class="graph" transform="scale(1 1) rotate(0) translate(4 202)">
<title>/home/yuhw/GitHub/SeaQuest/e1039&#45;core/simulation/g4main/PHG4Hitv1.h</title>
<!-- Node1 -->
<g id="node1" class="node"><title>Node1</title>
<polygon fill="#bfbfbf" stroke="black" points="1452.5,-156.5 1452.5,-197.5 1601.5,-197.5 1601.5,-156.5 1452.5,-156.5"/>
<text text-anchor="start" x="1460.5" y="-185.5" font-family="FreeSans" font-size="10.00">/home/yuhw/GitHub/SeaQuest</text>
<text text-anchor="start" x="1460.5" y="-174.5" font-family="FreeSans" font-size="10.00">/e1039&#45;core/simulation/g4main</text>
<text text-anchor="middle" x="1527" y="-163.5" font-family="FreeSans" font-size="10.00">/PHG4Hitv1.h</text>
</g>
<!-- Node2 -->
<g id="node2" class="node"><title>Node2</title>
<g id="a_node2"><a xlink:href="../../d4/dcd/DPDigitizer_8cc.html" target="_top" xlink:title="/home/yuhw/GitHub/SeaQuest\l/e1039&#45;core/simulation/g4detectors\l/DPDigitizer.cc">
<polygon fill="none" stroke="black" points="-0.5,-78.5 -0.5,-119.5 168.5,-119.5 168.5,-78.5 -0.5,-78.5"/>
<text text-anchor="start" x="7.5" y="-107.5" font-family="FreeSans" font-size="10.00">/home/yuhw/GitHub/SeaQuest</text>
<text text-anchor="start" x="7.5" y="-96.5" font-family="FreeSans" font-size="10.00">/e1039&#45;core/simulation/g4detectors</text>
<text text-anchor="middle" x="84" y="-85.5" font-family="FreeSans" font-size="10.00">/DPDigitizer.cc</text>
</a>
</g>
</g>
<!-- Node1&#45;&gt;Node2 -->
<g id="edge1" class="edge"><title>Node1&#45;&gt;Node2</title>
<path fill="none" stroke="midnightblue" d="M1441.87,-174.34C1185.64,-169.048 424.151,-151.071 178,-120 174.938,-119.613 171.827,-119.178 168.691,-118.704"/>
<polygon fill="midnightblue" stroke="midnightblue" points="1442.16,-177.847 1452.23,-174.553 1442.31,-170.848 1442.16,-177.847"/>
</g>
<!-- Node3 -->
<g id="node3" class="node"><title>Node3</title>
<g id="a_node3"><a xlink:href="../../d8/de3/PHG4BlockSteppingAction_8cc.html" target="_top" xlink:title="/home/yuhw/GitHub/SeaQuest\l/e1039&#45;core/simulation/g4detectors\l/PHG4BlockSteppingAction.cc">
<polygon fill="none" stroke="black" points="186.5,-78.5 186.5,-119.5 355.5,-119.5 355.5,-78.5 186.5,-78.5"/>
<text text-anchor="start" x="194.5" y="-107.5" font-family="FreeSans" font-size="10.00">/home/yuhw/GitHub/SeaQuest</text>
<text text-anchor="start" x="194.5" y="-96.5" font-family="FreeSans" font-size="10.00">/e1039&#45;core/simulation/g4detectors</text>
<text text-anchor="middle" x="271" y="-85.5" font-family="FreeSans" font-size="10.00">/PHG4BlockSteppingAction.cc</text>
</a>
</g>
</g>
<!-- Node1&#45;&gt;Node3 -->
<g id="edge2" class="edge"><title>Node1&#45;&gt;Node3</title>
<path fill="none" stroke="midnightblue" d="M1442.15,-176.587C1249.71,-176.898 765.681,-171.935 365,-120 361.939,-119.603 358.829,-119.159 355.694,-118.677"/>
<polygon fill="midnightblue" stroke="midnightblue" points="1442.21,-180.087 1452.2,-176.565 1442.19,-173.087 1442.21,-180.087"/>
</g>
<!-- Node4 -->
<g id="node4" class="node"><title>Node4</title>
<g id="a_node4"><a xlink:href="../../d3/d6f/PHG4BNLTargetCoilSteppingAction_8cc.html" target="_top" xlink:title="/home/yuhw/GitHub/SeaQuest\l/e1039&#45;core/simulation/g4detectors\l/PHG4BNLTargetCoilSteppingAction.cc">
<polygon fill="none" stroke="black" points="374,-78.5 374,-119.5 564,-119.5 564,-78.5 374,-78.5"/>
<text text-anchor="start" x="382" y="-107.5" font-family="FreeSans" font-size="10.00">/home/yuhw/GitHub/SeaQuest</text>
<text text-anchor="start" x="382" y="-96.5" font-family="FreeSans" font-size="10.00">/e1039&#45;core/simulation/g4detectors</text>
<text text-anchor="middle" x="469" y="-85.5" font-family="FreeSans" font-size="10.00">/PHG4BNLTargetCoilSteppingAction.cc</text>
</a>
</g>
</g>
<!-- Node1&#45;&gt;Node4 -->
<g id="edge3" class="edge"><title>Node1&#45;&gt;Node4</title>
<path fill="none" stroke="midnightblue" d="M1442.06,-174.695C1275.12,-171.316 892.781,-159.557 574,-120 570.777,-119.6 567.504,-119.161 564.204,-118.691"/>
<polygon fill="midnightblue" stroke="midnightblue" points="1442.19,-178.198 1452.26,-174.896 1442.33,-171.199 1442.19,-178.198"/>
</g>
<!-- Node5 -->
<g id="node5" class="node"><title>Node5</title>
<g id="a_node5"><a xlink:href="../../d0/dfc/PHG4CollimatorSteppingAction_8cc.html" target="_top" xlink:title="/home/yuhw/GitHub/SeaQuest\l/e1039&#45;core/simulation/g4detectors\l/PHG4CollimatorSteppingAction.cc">
<polygon fill="none" stroke="black" points="582.5,-78.5 582.5,-119.5 751.5,-119.5 751.5,-78.5 582.5,-78.5"/>
<text text-anchor="start" x="590.5" y="-107.5" font-family="FreeSans" font-size="10.00">/home/yuhw/GitHub/SeaQuest</text>
<text text-anchor="start" x="590.5" y="-96.5" font-family="FreeSans" font-size="10.00">/e1039&#45;core/simulation/g4detectors</text>
<text text-anchor="middle" x="667" y="-85.5" font-family="FreeSans" font-size="10.00">/PHG4CollimatorSteppingAction.cc</text>
</a>
</g>
</g>
<!-- Node1&#45;&gt;Node5 -->
<g id="edge4" class="edge"><title>Node1&#45;&gt;Node5</title>
<path fill="none" stroke="midnightblue" d="M1441.95,-173.648C1300.01,-168.861 1006.11,-155.273 760,-120 757.221,-119.602 754.401,-119.168 751.557,-118.706"/>
<polygon fill="midnightblue" stroke="midnightblue" points="1442.21,-177.159 1452.32,-173.991 1442.44,-170.162 1442.21,-177.159"/>
</g>
<!-- Node6 -->
<g id="node6" class="node"><title>Node6</title>
<g id="a_node6"><a xlink:href="../../d3/d71/PHG4ConeRegionSteppingAction_8cc.html" target="_top" xlink:title="/home/yuhw/GitHub/SeaQuest\l/e1039&#45;core/simulation/g4detectors\l/PHG4ConeRegionSteppingAction.cc">
<polygon fill="none" stroke="black" points="769,-78.5 769,-119.5 947,-119.5 947,-78.5 769,-78.5"/>
<text text-anchor="start" x="777" y="-107.5" font-family="FreeSans" font-size="10.00">/home/yuhw/GitHub/SeaQuest</text>
<text text-anchor="start" x="777" y="-96.5" font-family="FreeSans" font-size="10.00">/e1039&#45;core/simulation/g4detectors</text>
<text text-anchor="middle" x="858" y="-85.5" font-family="FreeSans" font-size="10.00">/PHG4ConeRegionSteppingAction.cc</text>
</a>
</g>
</g>
<!-- Node1&#45;&gt;Node6 -->
<g id="edge5" class="edge"><title>Node1&#45;&gt;Node6</title>
<path fill="none" stroke="midnightblue" d="M1442.12,-170.434C1330.3,-162.471 1127.69,-145.867 956,-120 953.081,-119.56 950.117,-119.091 947.128,-118.597"/>
<polygon fill="midnightblue" stroke="midnightblue" points="1442.11,-173.941 1452.33,-171.155 1442.6,-166.959 1442.11,-173.941"/>
</g>
<!-- Node7 -->
<g id="node7" class="node"><title>Node7</title>
<g id="a_node7"><a xlink:href="../../d3/d4a/PHG4ConeSteppingAction_8cc.html" target="_top" xlink:title="/home/yuhw/GitHub/SeaQuest\l/e1039&#45;core/simulation/g4detectors\l/PHG4ConeSteppingAction.cc">
<polygon fill="none" stroke="black" points="964.5,-78.5 964.5,-119.5 1133.5,-119.5 1133.5,-78.5 964.5,-78.5"/>
<text text-anchor="start" x="972.5" y="-107.5" font-family="FreeSans" font-size="10.00">/home/yuhw/GitHub/SeaQuest</text>
<text text-anchor="start" x="972.5" y="-96.5" font-family="FreeSans" font-size="10.00">/e1039&#45;core/simulation/g4detectors</text>
<text text-anchor="middle" x="1049" y="-85.5" font-family="FreeSans" font-size="10.00">/PHG4ConeSteppingAction.cc</text>
</a>
</g>
</g>
<!-- Node1&#45;&gt;Node7 -->
<g id="edge6" class="edge"><title>Node1&#45;&gt;Node7</title>
<path fill="none" stroke="midnightblue" d="M1442.18,-165.237C1364.2,-154.962 1245.5,-138.358 1143,-120 1139.88,-119.441 1136.7,-118.855 1133.5,-118.249"/>
<polygon fill="midnightblue" stroke="midnightblue" points="1442.07,-168.752 1452.44,-166.583 1442.98,-161.811 1442.07,-168.752"/>
</g>
<!-- Node8 -->
<g id="node8" class="node"><title>Node8</title>
<g id="a_node8"><a xlink:href="../../dc/d5d/PHG4CylinderSteppingAction_8cc.html" target="_top" xlink:title="/home/yuhw/GitHub/SeaQuest\l/e1039&#45;core/simulation/g4detectors\l/PHG4CylinderSteppingAction.cc">
<polygon fill="none" stroke="black" points="1151.5,-78.5 1151.5,-119.5 1320.5,-119.5 1320.5,-78.5 1151.5,-78.5"/>
<text text-anchor="start" x="1159.5" y="-107.5" font-family="FreeSans" font-size="10.00">/home/yuhw/GitHub/SeaQuest</text>
<text text-anchor="start" x="1159.5" y="-96.5" font-family="FreeSans" font-size="10.00">/e1039&#45;core/simulation/g4detectors</text>
<text text-anchor="middle" x="1236" y="-85.5" font-family="FreeSans" font-size="10.00">/PHG4CylinderSteppingAction.cc</text>
</a>
</g>
</g>
<!-- Node1&#45;&gt;Node8 -->
<g id="edge7" class="edge"><title>Node1&#45;&gt;Node8</title>
<path fill="none" stroke="midnightblue" d="M1442.59,-153.955C1400.95,-143.079 1351.14,-130.072 1310.87,-119.555"/>
<polygon fill="midnightblue" stroke="midnightblue" points="1441.88,-157.386 1452.44,-156.527 1443.65,-150.613 1441.88,-157.386"/>
</g>
<!-- Node9 -->
<g id="node9" class="node"><title>Node9</title>
<g id="a_node9"><a xlink:href="../../d4/ddf/PHG4E1039InsensSteppingAction_8cc.html" target="_top" xlink:title="/home/yuhw/GitHub/SeaQuest\l/e1039&#45;core/simulation/g4detectors\l/PHG4E1039InsensSteppingAction.cc">
<polygon fill="none" stroke="black" points="1339,-78.5 1339,-119.5 1521,-119.5 1521,-78.5 1339,-78.5"/>
<text text-anchor="start" x="1347" y="-107.5" font-family="FreeSans" font-size="10.00">/home/yuhw/GitHub/SeaQuest</text>
<text text-anchor="start" x="1347" y="-96.5" font-family="FreeSans" font-size="10.00">/e1039&#45;core/simulation/g4detectors</text>
<text text-anchor="middle" x="1430" y="-85.5" font-family="FreeSans" font-size="10.00">/PHG4E1039InsensSteppingAction.cc</text>
</a>
</g>
</g>
<!-- Node1&#45;&gt;Node9 -->
<g id="edge8" class="edge"><title>Node1&#45;&gt;Node9</title>
<path fill="none" stroke="midnightblue" d="M1493.9,-150.065C1481.13,-140.057 1466.76,-128.804 1454.9,-119.506"/>
<polygon fill="midnightblue" stroke="midnightblue" points="1491.99,-153.016 1502.02,-156.428 1496.31,-147.506 1491.99,-153.016"/>
</g>
<!-- Node10 -->
<g id="node10" class="node"><title>Node10</title>
<g id="a_node10"><a xlink:href="../../de/d17/PHG4GenHit_8cc.html" target="_top" xlink:title="/home/yuhw/GitHub/SeaQuest\l/e1039&#45;core/simulation/g4detectors\l/PHG4GenHit.cc">
<polygon fill="none" stroke="black" points="1539.5,-78.5 1539.5,-119.5 1708.5,-119.5 1708.5,-78.5 1539.5,-78.5"/>
<text text-anchor="start" x="1547.5" y="-107.5" font-family="FreeSans" font-size="10.00">/home/yuhw/GitHub/SeaQuest</text>
<text text-anchor="start" x="1547.5" y="-96.5" font-family="FreeSans" font-size="10.00">/e1039&#45;core/simulation/g4detectors</text>
<text text-anchor="middle" x="1624" y="-85.5" font-family="FreeSans" font-size="10.00">/PHG4GenHit.cc</text>
</a>
</g>
</g>
<!-- Node1&#45;&gt;Node10 -->
<g id="edge9" class="edge"><title>Node1&#45;&gt;Node10</title>
<path fill="none" stroke="midnightblue" d="M1560.1,-150.065C1572.87,-140.057 1587.24,-128.804 1599.1,-119.506"/>
<polygon fill="midnightblue" stroke="midnightblue" points="1557.69,-147.506 1551.98,-156.428 1562.01,-153.016 1557.69,-147.506"/>
</g>
<!-- Node11 -->
<g id="node11" class="node"><title>Node11</title>
<g id="a_node11"><a xlink:href="../../d7/d88/PHG4PolyconSteppingAction_8cc.html" target="_top" xlink:title="/home/yuhw/GitHub/SeaQuest\l/e1039&#45;core/simulation/g4detectors\l/PHG4PolyconSteppingAction.cc">
<polygon fill="none" stroke="black" points="1726.5,-78.5 1726.5,-119.5 1895.5,-119.5 1895.5,-78.5 1726.5,-78.5"/>
<text text-anchor="start" x="1734.5" y="-107.5" font-family="FreeSans" font-size="10.00">/home/yuhw/GitHub/SeaQuest</text>
<text text-anchor="start" x="1734.5" y="-96.5" font-family="FreeSans" font-size="10.00">/e1039&#45;core/simulation/g4detectors</text>
<text text-anchor="middle" x="1811" y="-85.5" font-family="FreeSans" font-size="10.00">/PHG4PolyconSteppingAction.cc</text>
</a>
</g>
</g>
<!-- Node1&#45;&gt;Node11 -->
<g id="edge10" class="edge"><title>Node1&#45;&gt;Node11</title>
<path fill="none" stroke="midnightblue" d="M1610.01,-153.787C1650.58,-142.929 1698.98,-129.978 1738.11,-119.506"/>
<polygon fill="midnightblue" stroke="midnightblue" points="1608.89,-150.462 1600.14,-156.428 1610.7,-157.224 1608.89,-150.462"/>
</g>
<!-- Node12 -->
<g id="node12" class="node"><title>Node12</title>
<g id="a_node12"><a xlink:href="../../da/da0/PHG4SquareTubeSteppingAction_8cc.html" target="_top" xlink:title="/home/yuhw/GitHub/SeaQuest\l/e1039&#45;core/simulation/g4detectors\l/PHG4SquareTubeSteppingAction.cc">
<polygon fill="none" stroke="black" points="1913,-78.5 1913,-119.5 2091,-119.5 2091,-78.5 1913,-78.5"/>
<text text-anchor="start" x="1921" y="-107.5" font-family="FreeSans" font-size="10.00">/home/yuhw/GitHub/SeaQuest</text>
<text text-anchor="start" x="1921" y="-96.5" font-family="FreeSans" font-size="10.00">/e1039&#45;core/simulation/g4detectors</text>
<text text-anchor="middle" x="2002" y="-85.5" font-family="FreeSans" font-size="10.00">/PHG4SquareTubeSteppingAction.cc</text>
</a>
</g>
</g>
<!-- Node1&#45;&gt;Node12 -->
<g id="edge11" class="edge"><title>Node1&#45;&gt;Node12</title>
<path fill="none" stroke="midnightblue" d="M1611.65,-164.753C1688.2,-154.268 1803.9,-137.635 1904,-120 1906.91,-119.488 1909.86,-118.955 1912.84,-118.408"/>
<polygon fill="midnightblue" stroke="midnightblue" points="1611.02,-161.307 1601.58,-166.128 1611.97,-168.243 1611.02,-161.307"/>
</g>
<!-- Node13 -->
<g id="node13" class="node"><title>Node13</title>
<g id="a_node13"><a xlink:href="../../db/dbc/PHG4TargetCoilSteppingAction_8cc.html" target="_top" xlink:title="/home/yuhw/GitHub/SeaQuest\l/e1039&#45;core/simulation/g4detectors\l/PHG4TargetCoilSteppingAction.cc">
<polygon fill="none" stroke="black" points="2109,-78.5 2109,-119.5 2279,-119.5 2279,-78.5 2109,-78.5"/>
<text text-anchor="start" x="2117" y="-107.5" font-family="FreeSans" font-size="10.00">/home/yuhw/GitHub/SeaQuest</text>
<text text-anchor="start" x="2117" y="-96.5" font-family="FreeSans" font-size="10.00">/e1039&#45;core/simulation/g4detectors</text>
<text text-anchor="middle" x="2194" y="-85.5" font-family="FreeSans" font-size="10.00">/PHG4TargetCoilSteppingAction.cc</text>
</a>
</g>
</g>
<!-- Node1&#45;&gt;Node13 -->
<g id="edge12" class="edge"><title>Node1&#45;&gt;Node13</title>
<path fill="none" stroke="midnightblue" d="M1612.05,-170.606C1724.1,-162.829 1927.09,-146.428 2099,-120 2102.25,-119.501 2105.55,-118.961 2108.89,-118.391"/>
<polygon fill="midnightblue" stroke="midnightblue" points="1611.56,-167.131 1601.83,-171.309 1612.04,-174.114 1611.56,-167.131"/>
</g>
<!-- Node14 -->
<g id="node14" class="node"><title>Node14</title>
<g id="a_node14"><a xlink:href="../../da/d59/PHG4TargetCoilV2SteppingAction_8cc.html" target="_top" xlink:title="/home/yuhw/GitHub/SeaQuest\l/e1039&#45;core/simulation/g4detectors\l/PHG4TargetCoilV2SteppingAction.cc">
<polygon fill="none" stroke="black" points="2297,-78.5 2297,-119.5 2479,-119.5 2479,-78.5 2297,-78.5"/>
<text text-anchor="start" x="2305" y="-107.5" font-family="FreeSans" font-size="10.00">/home/yuhw/GitHub/SeaQuest</text>
<text text-anchor="start" x="2305" y="-96.5" font-family="FreeSans" font-size="10.00">/e1039&#45;core/simulation/g4detectors</text>
<text text-anchor="middle" x="2388" y="-85.5" font-family="FreeSans" font-size="10.00">/PHG4TargetCoilV2SteppingAction.cc</text>
</a>
</g>
</g>
<!-- Node1&#45;&gt;Node14 -->
<g id="edge13" class="edge"><title>Node1&#45;&gt;Node14</title>
<path fill="none" stroke="midnightblue" d="M1611.88,-173.188C1752.85,-167.751 2043.89,-153.262 2288,-120 2290.89,-119.606 2293.83,-119.179 2296.79,-118.726"/>
<polygon fill="midnightblue" stroke="midnightblue" points="1611.44,-169.702 1601.58,-173.58 1611.71,-176.697 1611.44,-169.702"/>
</g>
<!-- Node15 -->
<g id="node15" class="node"><title>Node15</title>
<g id="a_node15"><a xlink:href="../../d5/d4c/PHG4HitContainer_8cc.html" target="_top" xlink:title="/home/yuhw/GitHub/SeaQuest\l/e1039&#45;core/simulation/g4main\l/PHG4HitContainer.cc">
<polygon fill="none" stroke="black" points="2497.5,-78.5 2497.5,-119.5 2646.5,-119.5 2646.5,-78.5 2497.5,-78.5"/>
<text text-anchor="start" x="2505.5" y="-107.5" font-family="FreeSans" font-size="10.00">/home/yuhw/GitHub/SeaQuest</text>
<text text-anchor="start" x="2505.5" y="-96.5" font-family="FreeSans" font-size="10.00">/e1039&#45;core/simulation/g4main</text>
<text text-anchor="middle" x="2572" y="-85.5" font-family="FreeSans" font-size="10.00">/PHG4HitContainer.cc</text>
</a>
</g>
</g>
<!-- Node1&#45;&gt;Node15 -->
<g id="edge14" class="edge"><title>Node1&#45;&gt;Node15</title>
<path fill="none" stroke="midnightblue" d="M1611.62,-176.04C1779.62,-175.025 2166.76,-167.228 2488,-120 2491.11,-119.542 2494.28,-119.025 2497.48,-118.461"/>
<polygon fill="midnightblue" stroke="midnightblue" points="1611.59,-172.54 1601.6,-176.094 1611.62,-179.54 1611.59,-172.54"/>
</g>
<!-- Node16 -->
<g id="node16" class="node"><title>Node16</title>
<g id="a_node16"><a xlink:href="../../d3/d5b/PHG4HitEval_8h.html" target="_top" xlink:title="/home/yuhw/GitHub/SeaQuest\l/e1039&#45;core/simulation/g4main\l/PHG4HitEval.h">
<polygon fill="none" stroke="black" points="2664.5,-78.5 2664.5,-119.5 2813.5,-119.5 2813.5,-78.5 2664.5,-78.5"/>
<text text-anchor="start" x="2672.5" y="-107.5" font-family="FreeSans" font-size="10.00">/home/yuhw/GitHub/SeaQuest</text>
<text text-anchor="start" x="2672.5" y="-96.5" font-family="FreeSans" font-size="10.00">/e1039&#45;core/simulation/g4main</text>
<text text-anchor="middle" x="2739" y="-85.5" font-family="FreeSans" font-size="10.00">/PHG4HitEval.h</text>
</a>
</g>
</g>
<!-- Node1&#45;&gt;Node16 -->
<g id="edge15" class="edge"><title>Node1&#45;&gt;Node16</title>
<path fill="none" stroke="midnightblue" d="M1612.04,-173.808C1838.72,-167.641 2453.79,-148.698 2655,-120 2658.12,-119.555 2661.29,-119.049 2664.48,-118.495"/>
<polygon fill="midnightblue" stroke="midnightblue" points="1611.77,-170.314 1601.87,-174.083 1611.96,-177.311 1611.77,-170.314"/>
</g>
<!-- Node19 -->
<g id="node19" class="node"><title>Node19</title>
<g id="a_node19"><a xlink:href="../../df/d37/PHG4Hitv1_8cc.html" target="_top" xlink:title="/home/yuhw/GitHub/SeaQuest\l/e1039&#45;core/simulation/g4main\l/PHG4Hitv1.cc">
<polygon fill="none" stroke="black" points="2831.5,-78.5 2831.5,-119.5 2980.5,-119.5 2980.5,-78.5 2831.5,-78.5"/>
<text text-anchor="start" x="2839.5" y="-107.5" font-family="FreeSans" font-size="10.00">/home/yuhw/GitHub/SeaQuest</text>
<text text-anchor="start" x="2839.5" y="-96.5" font-family="FreeSans" font-size="10.00">/e1039&#45;core/simulation/g4main</text>
<text text-anchor="middle" x="2906" y="-85.5" font-family="FreeSans" font-size="10.00">/PHG4Hitv1.cc</text>
</a>
</g>
</g>
<!-- Node1&#45;&gt;Node19 -->
<g id="edge18" class="edge"><title>Node1&#45;&gt;Node19</title>
<path fill="none" stroke="midnightblue" d="M1611.79,-174.443C1860.78,-169.537 2587.05,-152.745 2822,-120 2825.12,-119.565 2828.29,-119.068 2831.49,-118.52"/>
<polygon fill="midnightblue" stroke="midnightblue" points="1611.64,-170.945 1601.71,-174.64 1611.78,-177.944 1611.64,-170.945"/>
</g>
<!-- Node17 -->
<g id="node17" class="node"><title>Node17</title>
<g id="a_node17"><a xlink:href="../../d8/d06/PHG4DSTReader_8cc.html" target="_top" xlink:title="/home/yuhw/GitHub/SeaQuest\l/e1039&#45;core/simulation/g4eval\l/PHG4DSTReader.cc">
<polygon fill="none" stroke="black" points="2580.5,-0.5 2580.5,-41.5 2729.5,-41.5 2729.5,-0.5 2580.5,-0.5"/>
<text text-anchor="start" x="2588.5" y="-29.5" font-family="FreeSans" font-size="10.00">/home/yuhw/GitHub/SeaQuest</text>
<text text-anchor="start" x="2588.5" y="-18.5" font-family="FreeSans" font-size="10.00">/e1039&#45;core/simulation/g4eval</text>
<text text-anchor="middle" x="2655" y="-7.5" font-family="FreeSans" font-size="10.00">/PHG4DSTReader.cc</text>
</a>
</g>
</g>
<!-- Node16&#45;&gt;Node17 -->
<g id="edge16" class="edge"><title>Node16&#45;&gt;Node17</title>
<path fill="none" stroke="midnightblue" d="M2709.7,-71.4916C2698.8,-61.6294 2686.64,-50.6273 2676.56,-41.5056"/>
<polygon fill="midnightblue" stroke="midnightblue" points="2707.6,-74.3143 2717.37,-78.4281 2712.3,-69.1236 2707.6,-74.3143"/>
</g>
<!-- Node18 -->
<g id="node18" class="node"><title>Node18</title>
<g id="a_node18"><a xlink:href="../../d6/d41/PHG4HitEval_8cc.html" target="_top" xlink:title="/home/yuhw/GitHub/SeaQuest\l/e1039&#45;core/simulation/g4main\l/PHG4HitEval.cc">
<polygon fill="none" stroke="black" points="2747.5,-0.5 2747.5,-41.5 2896.5,-41.5 2896.5,-0.5 2747.5,-0.5"/>
<text text-anchor="start" x="2755.5" y="-29.5" font-family="FreeSans" font-size="10.00">/home/yuhw/GitHub/SeaQuest</text>
<text text-anchor="start" x="2755.5" y="-18.5" font-family="FreeSans" font-size="10.00">/e1039&#45;core/simulation/g4main</text>
<text text-anchor="middle" x="2822" y="-7.5" font-family="FreeSans" font-size="10.00">/PHG4HitEval.cc</text>
</a>
</g>
</g>
<!-- Node16&#45;&gt;Node18 -->
<g id="edge17" class="edge"><title>Node16&#45;&gt;Node18</title>
<path fill="none" stroke="midnightblue" d="M2767.95,-71.4916C2778.72,-61.6294 2790.74,-50.6273 2800.7,-41.5056"/>
<polygon fill="midnightblue" stroke="midnightblue" points="2765.39,-69.0935 2760.37,-78.4281 2770.11,-74.2562 2765.39,-69.0935"/>
</g>
</g>
</svg>
