<?xml version="1.0" encoding="UTF-8" standalone="no"?>
<!DOCTYPE svg PUBLIC "-//W3C//DTD SVG 1.1//EN"
 "http://www.w3.org/Graphics/SVG/1.1/DTD/svg11.dtd">
<!-- Generated by graphviz version 2.36.0 (20140111.2315)
 -->
<!-- Title: ana Pages: 1 -->
<svg width="190pt" height="180pt"
 viewBox="0.00 0.00 190.00 180.00" xmlns="http://www.w3.org/2000/svg" xmlns:xlink="http://www.w3.org/1999/xlink">
<g id="graph0" class="graph" transform="scale(1 1) rotate(0) translate(4 176)">
<title>ana</title>
<!-- Node1 -->
<g id="node1" class="node"><title>Node1</title>
<polygon fill="#bfbfbf" stroke="black" points="0,-76.5 0,-95.5 32,-95.5 32,-76.5 0,-76.5"/>
<text text-anchor="middle" x="16" y="-83.5" font-family="FreeSans" font-size="10.00">ana</text>
</g>
<!-- Node2 -->
<g id="node2" class="node"><title>Node2</title>
<g id="a_node2"><a xlink:href="../../de/dc9/classPHG4Particle.html#ac4a56068140437bf45a67dae571cae48" target="_top" xlink:title="PHG4Particle::get_e">
<polygon fill="none" stroke="black" points="72.5,-152.5 72.5,-171.5 177.5,-171.5 177.5,-152.5 72.5,-152.5"/>
<text text-anchor="middle" x="125" y="-159.5" font-family="FreeSans" font-size="10.00">PHG4Particle::get_e</text>
</a>
</g>
</g>
<!-- Node1&#45;&gt;Node2 -->
<g id="edge1" class="edge"><title>Node1&#45;&gt;Node2</title>
<path fill="none" stroke="midnightblue" d="M23.4126,-95.877C32.0908,-108.506 48.7244,-130.261 68,-143 70.959,-144.956 74.1391,-146.729 77.4269,-148.335"/>
<polygon fill="midnightblue" stroke="midnightblue" points="76.3155,-151.667 86.8832,-152.425 79.0943,-145.243 76.3155,-151.667"/>
</g>
<!-- Node3 -->
<g id="node3" class="node"><title>Node3</title>
<g id="a_node3"><a xlink:href="../../de/dc9/classPHG4Particle.html#a474033dbd058eea155c71fc4d17aaf4d" target="_top" xlink:title="PHG4Particle::get_pid">
<polygon fill="none" stroke="black" points="68.5,-114.5 68.5,-133.5 181.5,-133.5 181.5,-114.5 68.5,-114.5"/>
<text text-anchor="middle" x="125" y="-121.5" font-family="FreeSans" font-size="10.00">PHG4Particle::get_pid</text>
</a>
</g>
</g>
<!-- Node1&#45;&gt;Node3 -->
<g id="edge2" class="edge"><title>Node1&#45;&gt;Node3</title>
<path fill="none" stroke="midnightblue" d="M32.1321,-91.7709C42.2565,-95.5991 55.8934,-100.692 68,-105 73.7007,-107.028 79.7447,-109.13 85.6718,-111.163"/>
<polygon fill="midnightblue" stroke="midnightblue" points="84.8606,-114.585 95.455,-114.496 87.1179,-107.959 84.8606,-114.585"/>
</g>
<!-- Node4 -->
<g id="node4" class="node"><title>Node4</title>
<g id="a_node4"><a xlink:href="../../de/dc9/classPHG4Particle.html#a44b98bfd72a04825791d1e4c4cb150a1" target="_top" xlink:title="PHG4Particle::get_px">
<polygon fill="none" stroke="black" points="70,-76.5 70,-95.5 180,-95.5 180,-76.5 70,-76.5"/>
<text text-anchor="middle" x="125" y="-83.5" font-family="FreeSans" font-size="10.00">PHG4Particle::get_px</text>
</a>
</g>
</g>
<!-- Node1&#45;&gt;Node4 -->
<g id="edge3" class="edge"><title>Node1&#45;&gt;Node4</title>
<path fill="none" stroke="midnightblue" d="M32.3305,-86C39.7849,-86 49.3022,-86 59.3697,-86"/>
<polygon fill="midnightblue" stroke="midnightblue" points="59.5645,-89.5001 69.5645,-86 59.5645,-82.5001 59.5645,-89.5001"/>
</g>
<!-- Node5 -->
<g id="node5" class="node"><title>Node5</title>
<g id="a_node5"><a xlink:href="../../de/dc9/classPHG4Particle.html#a3df4379f9e46224a8cca7f86c11e99e5" target="_top" xlink:title="PHG4Particle::get_py">
<polygon fill="none" stroke="black" points="70,-38.5 70,-57.5 180,-57.5 180,-38.5 70,-38.5"/>
<text text-anchor="middle" x="125" y="-45.5" font-family="FreeSans" font-size="10.00">PHG4Particle::get_py</text>
</a>
</g>
</g>
<!-- Node1&#45;&gt;Node5 -->
<g id="edge4" class="edge"><title>Node1&#45;&gt;Node5</title>
<path fill="none" stroke="midnightblue" d="M32.1321,-80.2291C42.2565,-76.4009 55.8934,-71.3079 68,-67 73.7007,-64.9715 79.7447,-62.87 85.6718,-60.8365"/>
<polygon fill="midnightblue" stroke="midnightblue" points="87.1179,-64.0415 95.455,-57.5036 84.8606,-57.4154 87.1179,-64.0415"/>
</g>
<!-- Node6 -->
<g id="node6" class="node"><title>Node6</title>
<g id="a_node6"><a xlink:href="../../de/dc9/classPHG4Particle.html#a533e9bda40b15f62802b187e6a743e74" target="_top" xlink:title="PHG4Particle::get_pz">
<polygon fill="none" stroke="black" points="70,-0.5 70,-19.5 180,-19.5 180,-0.5 70,-0.5"/>
<text text-anchor="middle" x="125" y="-7.5" font-family="FreeSans" font-size="10.00">PHG4Particle::get_pz</text>
</a>
</g>
</g>
<!-- Node1&#45;&gt;Node6 -->
<g id="edge5" class="edge"><title>Node1&#45;&gt;Node6</title>
<path fill="none" stroke="midnightblue" d="M23.4126,-76.123C32.0908,-63.4936 48.7244,-41.7392 68,-29 70.959,-27.0444 74.1391,-25.2707 77.4269,-23.6652"/>
<polygon fill="midnightblue" stroke="midnightblue" points="79.0943,-26.7575 86.8832,-19.5753 76.3155,-20.3326 79.0943,-26.7575"/>
</g>
</g>
</svg>
