<?xml version="1.0" encoding="UTF-8" standalone="no"?>
<!DOCTYPE svg PUBLIC "-//W3C//DTD SVG 1.1//EN"
 "http://www.w3.org/Graphics/SVG/1.1/DTD/svg11.dtd">
<!-- Generated by graphviz version 2.30.1 (20180413.0232)
 -->
<!-- Title: matscan Pages: 1 -->
<svg width="1046pt" height="1186pt"
 viewBox="0.00 0.00 1046.00 1186.00" xmlns="http://www.w3.org/2000/svg" xmlns:xlink="http://www.w3.org/1999/xlink">
<g id="graph0" class="graph" transform="scale(1 1) rotate(0) translate(4 1182)">
<title>matscan</title>
<!-- Node1 -->
<g id="node1" class="node"><title>Node1</title>
<polygon fill="#bfbfbf" stroke="black" points="0.5,-1044.5 0.5,-1063.5 53.5,-1063.5 53.5,-1044.5 0.5,-1044.5"/>
<text text-anchor="middle" x="27" y="-1051.5" font-family="FreeSans" font-size="10.00">matscan</text>
</g>
<!-- Node2 -->
<g id="node2" class="node"><title>Node2</title>
<g id="a_node2"><a xlink:href="../../d0/d78/classPHG4Reco.html#a83fd9e9472f94d9a29be65df65e400ef" target="_top" xlink:title="interface to G4 cmd interpreter ">
<polygon fill="none" stroke="black" points="96,-1120.5 96,-1139.5 234,-1139.5 234,-1120.5 96,-1120.5"/>
<text text-anchor="middle" x="165" y="-1127.5" font-family="FreeSans" font-size="10.00">PHG4Reco::ApplyCommand</text>
</a>
</g>
</g>
<!-- Node1&#45;&gt;Node2 -->
<g id="edge1" class="edge"><title>Node1&#45;&gt;Node2</title>
<path fill="none" stroke="midnightblue" d="M35.7541,-1063.62C46.5603,-1076.38 67.384,-1098.72 90,-1111 94.222,-1113.29 98.7305,-1115.32 103.36,-1117.1"/>
<polygon fill="midnightblue" stroke="midnightblue" points="102.385,-1120.47 112.98,-1120.44 104.681,-1113.86 102.385,-1120.47"/>
</g>
<!-- Node4 -->
<g id="node4" class="node"><title>Node4</title>
<g id="a_node4"><a xlink:href="../../da/d29/classFun4AllServer.html#ac6d47a2b3bc98933a03fd63bb75d624a" target="_top" xlink:title="Fun4AllServer::getSubsysReco">
<polygon fill="none" stroke="black" points="90.5,-1082.5 90.5,-1101.5 239.5,-1101.5 239.5,-1082.5 90.5,-1082.5"/>
<text text-anchor="middle" x="165" y="-1089.5" font-family="FreeSans" font-size="10.00">Fun4AllServer::getSubsysReco</text>
</a>
</g>
</g>
<!-- Node1&#45;&gt;Node4 -->
<g id="edge3" class="edge"><title>Node1&#45;&gt;Node4</title>
<path fill="none" stroke="midnightblue" d="M53.5806,-1061.15C72.2638,-1066.37 98.0603,-1073.58 120.021,-1079.71"/>
<polygon fill="midnightblue" stroke="midnightblue" points="119.229,-1083.12 129.802,-1082.44 121.113,-1076.38 119.229,-1083.12"/>
</g>
<!-- Node5 -->
<g id="node5" class="node"><title>Node5</title>
<g id="a_node5"><a xlink:href="../../d0/d78/classPHG4Reco.html#a9d8228ce8682c19cd6be2f6b44ec847b" target="_top" xlink:title="PHG4Reco::InitRun">
<polygon fill="none" stroke="black" points="114.5,-540.5 114.5,-559.5 215.5,-559.5 215.5,-540.5 114.5,-540.5"/>
<text text-anchor="middle" x="165" y="-547.5" font-family="FreeSans" font-size="10.00">PHG4Reco::InitRun</text>
</a>
</g>
</g>
<!-- Node1&#45;&gt;Node5 -->
<g id="edge4" class="edge"><title>Node1&#45;&gt;Node5</title>
<path fill="none" stroke="midnightblue" d="M30.5953,-1044.38C46.9728,-983.689 136.037,-653.629 158.734,-569.515"/>
<polygon fill="midnightblue" stroke="midnightblue" points="162.151,-570.286 161.377,-559.719 155.393,-568.462 162.151,-570.286"/>
</g>
<!-- Node10 -->
<g id="node10" class="node"><title>Node10</title>
<g id="a_node10"><a xlink:href="../../da/d29/classFun4AllServer.html#a3e55156f91b2c94bb6c4ef33ffce587a" target="_top" xlink:title="Fun4AllServer::instance">
<polygon fill="none" stroke="black" points="707,-1006.5 707,-1025.5 825,-1025.5 825,-1006.5 707,-1006.5"/>
<text text-anchor="middle" x="766" y="-1013.5" font-family="FreeSans" font-size="10.00">Fun4AllServer::instance</text>
</a>
</g>
</g>
<!-- Node1&#45;&gt;Node10 -->
<g id="edge57" class="edge"><title>Node1&#45;&gt;Node10</title>
<path fill="none" stroke="midnightblue" d="M53.7665,-1054.41C138.826,-1055.51 418.334,-1057.07 648,-1035 666.753,-1033.2 687.055,-1030.25 705.401,-1027.22"/>
<polygon fill="midnightblue" stroke="midnightblue" points="706.096,-1030.65 715.37,-1025.53 704.926,-1023.75 706.096,-1030.65"/>
</g>
<!-- Node11 -->
<g id="node11" class="node"><title>Node11</title>
<g id="a_node11"><a xlink:href="../../da/d29/classFun4AllServer.html#abcaf6825367e5db292ff795237bdcf62" target="_top" xlink:title="Fun4AllServer::topNode">
<polygon fill="none" stroke="black" points="707,-968.5 707,-987.5 825,-987.5 825,-968.5 707,-968.5"/>
<text text-anchor="middle" x="766" y="-975.5" font-family="FreeSans" font-size="10.00">Fun4AllServer::topNode</text>
</a>
</g>
</g>
<!-- Node1&#45;&gt;Node11 -->
<g id="edge58" class="edge"><title>Node1&#45;&gt;Node11</title>
<path fill="none" stroke="midnightblue" d="M53.7425,-1050.33C123.705,-1040.46 323.277,-1013.03 490,-997 560.408,-990.229 641.182,-984.943 696.883,-981.685"/>
<polygon fill="midnightblue" stroke="midnightblue" points="697.203,-985.172 706.984,-981.1 696.798,-978.184 697.203,-985.172"/>
</g>
<!-- Node3 -->
<g id="node3" class="node"><title>Node3</title>
<g id="a_node3"><a xlink:href="../../d0/d78/classPHG4Reco.html#ad0f5beaf012e51404b712277818c6b36" target="_top" xlink:title="PHG4Reco::InitUImanager">
<polygon fill="none" stroke="black" points="299.5,-1120.5 299.5,-1139.5 430.5,-1139.5 430.5,-1120.5 299.5,-1120.5"/>
<text text-anchor="middle" x="365" y="-1127.5" font-family="FreeSans" font-size="10.00">PHG4Reco::InitUImanager</text>
</a>
</g>
</g>
<!-- Node2&#45;&gt;Node3 -->
<g id="edge2" class="edge"><title>Node2&#45;&gt;Node3</title>
<path fill="none" stroke="midnightblue" d="M234.14,-1130C251.897,-1130 271.124,-1130 289.205,-1130"/>
<polygon fill="midnightblue" stroke="midnightblue" points="289.405,-1133.5 299.405,-1130 289.405,-1126.5 289.405,-1133.5"/>
</g>
<!-- Node6 -->
<g id="node6" class="node"><title>Node6</title>
<g id="a_node6"><a xlink:href="../../d8/d14/classrecoConsts.html#ae69a5c29a7199ba16d0e537158618802" target="_top" xlink:title="recoConsts::instance">
<polygon fill="none" stroke="black" points="312.5,-732.5 312.5,-751.5 417.5,-751.5 417.5,-732.5 312.5,-732.5"/>
<text text-anchor="middle" x="365" y="-739.5" font-family="FreeSans" font-size="10.00">recoConsts::instance</text>
</a>
</g>
</g>
<!-- Node5&#45;&gt;Node6 -->
<g id="edge5" class="edge"><title>Node5&#45;&gt;Node6</title>
<path fill="none" stroke="midnightblue" d="M169.183,-559.667C179.43,-589.19 214.522,-678.789 276,-722 283.896,-727.55 293.088,-731.587 302.494,-734.518"/>
<polygon fill="midnightblue" stroke="midnightblue" points="301.761,-737.945 312.329,-737.189 303.595,-731.19 301.761,-737.945"/>
</g>
<!-- Node8 -->
<g id="node8" class="node"><title>Node8</title>
<g id="a_node8"><a xlink:href="../../d0/d78/classPHG4Reco.html#a66fc50f0871fbaf83b21edfa8ae98259" target="_top" xlink:title="PHG4Reco::InitField">
<polygon fill="none" stroke="black" points="313,-606.5 313,-625.5 417,-625.5 417,-606.5 313,-606.5"/>
<text text-anchor="middle" x="365" y="-613.5" font-family="FreeSans" font-size="10.00">PHG4Reco::InitField</text>
</a>
</g>
</g>
<!-- Node5&#45;&gt;Node8 -->
<g id="edge7" class="edge"><title>Node5&#45;&gt;Node8</title>
<path fill="none" stroke="midnightblue" d="M185.882,-559.543C207.617,-569.683 243.668,-585.651 276,-596 285.401,-599.009 295.504,-601.748 305.395,-604.168"/>
<polygon fill="midnightblue" stroke="midnightblue" points="304.644,-607.587 315.18,-606.48 306.253,-600.775 304.644,-607.587"/>
</g>
<!-- Node16 -->
<g id="node16" class="node"><title>Node16</title>
<g id="a_node16"><a xlink:href="../../d1/d13/classPHG4PhenixDetector.html#a4014e13daccb40325629fbcfbc9b2536" target="_top" xlink:title="PHG4PhenixDetector\l::Verbosity">
<polygon fill="none" stroke="black" points="310.5,-431 310.5,-461 419.5,-461 419.5,-431 310.5,-431"/>
<text text-anchor="start" x="318.5" y="-449" font-family="FreeSans" font-size="10.00">PHG4PhenixDetector</text>
<text text-anchor="middle" x="365" y="-438" font-family="FreeSans" font-size="10.00">::Verbosity</text>
</a>
</g>
</g>
<!-- Node5&#45;&gt;Node16 -->
<g id="edge16" class="edge"><title>Node5&#45;&gt;Node16</title>
<path fill="none" stroke="midnightblue" d="M177.887,-540.447C197.395,-525.139 237.853,-494.918 276,-476 284.479,-471.795 293.69,-467.943 302.853,-464.502"/>
<polygon fill="midnightblue" stroke="midnightblue" points="304.138,-467.759 312.352,-461.068 301.758,-461.176 304.138,-467.759"/>
</g>
<!-- Node17 -->
<g id="node17" class="node"><title>Node17</title>
<g id="a_node17"><a xlink:href="../../d1/d13/classPHG4PhenixDetector.html#a375bd9d82edcae5f21f39e319f3044b2" target="_top" xlink:title="PHG4PhenixDetector\l::SetWorldSizeX">
<polygon fill="none" stroke="black" points="310.5,-382 310.5,-412 419.5,-412 419.5,-382 310.5,-382"/>
<text text-anchor="start" x="318.5" y="-400" font-family="FreeSans" font-size="10.00">PHG4PhenixDetector</text>
<text text-anchor="middle" x="365" y="-389" font-family="FreeSans" font-size="10.00">::SetWorldSizeX</text>
</a>
</g>
</g>
<!-- Node5&#45;&gt;Node17 -->
<g id="edge17" class="edge"><title>Node5&#45;&gt;Node17</title>
<path fill="none" stroke="midnightblue" d="M171.497,-540.177C185.554,-515.986 225.305,-453.173 276,-421 283.48,-416.253 291.894,-412.434 300.475,-409.365"/>
<polygon fill="midnightblue" stroke="midnightblue" points="301.765,-412.627 310.195,-406.209 299.603,-405.969 301.765,-412.627"/>
</g>
<!-- Node18 -->
<g id="node18" class="node"><title>Node18</title>
<g id="a_node18"><a xlink:href="../../d1/d13/classPHG4PhenixDetector.html#a74db49898240516c4136bbbdedcff188" target="_top" xlink:title="PHG4PhenixDetector\l::SetWorldSizeY">
<polygon fill="none" stroke="black" points="310.5,-333 310.5,-363 419.5,-363 419.5,-333 310.5,-333"/>
<text text-anchor="start" x="318.5" y="-351" font-family="FreeSans" font-size="10.00">PHG4PhenixDetector</text>
<text text-anchor="middle" x="365" y="-340" font-family="FreeSans" font-size="10.00">::SetWorldSizeY</text>
</a>
</g>
</g>
<!-- Node5&#45;&gt;Node18 -->
<g id="edge18" class="edge"><title>Node5&#45;&gt;Node18</title>
<path fill="none" stroke="midnightblue" d="M169.164,-540.118C179.356,-509.918 214.308,-418.101 276,-372 283.359,-366.5 291.903,-362.261 300.715,-358.993"/>
<polygon fill="midnightblue" stroke="midnightblue" points="301.942,-362.274 310.34,-355.814 299.747,-355.627 301.942,-362.274"/>
</g>
<!-- Node19 -->
<g id="node19" class="node"><title>Node19</title>
<g id="a_node19"><a xlink:href="../../d1/d13/classPHG4PhenixDetector.html#a7de4106257c7435e45acb3579177c3c4" target="_top" xlink:title="PHG4PhenixDetector\l::SetWorldSizeZ">
<polygon fill="none" stroke="black" points="310.5,-284 310.5,-314 419.5,-314 419.5,-284 310.5,-284"/>
<text text-anchor="start" x="318.5" y="-302" font-family="FreeSans" font-size="10.00">PHG4PhenixDetector</text>
<text text-anchor="middle" x="365" y="-291" font-family="FreeSans" font-size="10.00">::SetWorldSizeZ</text>
</a>
</g>
</g>
<!-- Node5&#45;&gt;Node19 -->
<g id="edge19" class="edge"><title>Node5&#45;&gt;Node19</title>
<path fill="none" stroke="midnightblue" d="M167.79,-540.027C174.685,-504.6 202.884,-383.703 276,-323 283.158,-317.057 291.665,-312.578 300.526,-309.204"/>
<polygon fill="midnightblue" stroke="midnightblue" points="301.857,-312.449 310.231,-305.959 299.638,-305.81 301.857,-312.449"/>
</g>
<!-- Node20 -->
<g id="node20" class="node"><title>Node20</title>
<g id="a_node20"><a xlink:href="../../d1/d13/classPHG4PhenixDetector.html#a570bf81e75c124d0d3d80040fc69ca8b" target="_top" xlink:title="PHG4PhenixDetector\l::SetWorldShape">
<polygon fill="none" stroke="black" points="310.5,-235 310.5,-265 419.5,-265 419.5,-235 310.5,-235"/>
<text text-anchor="start" x="318.5" y="-253" font-family="FreeSans" font-size="10.00">PHG4PhenixDetector</text>
<text text-anchor="middle" x="365" y="-242" font-family="FreeSans" font-size="10.00">::SetWorldShape</text>
</a>
</g>
</g>
<!-- Node5&#45;&gt;Node20 -->
<g id="edge20" class="edge"><title>Node5&#45;&gt;Node20</title>
<path fill="none" stroke="midnightblue" d="M166.811,-540.459C170.68,-501.133 190.777,-350.099 276,-274 283.101,-267.659 291.72,-262.973 300.752,-259.514"/>
<polygon fill="midnightblue" stroke="midnightblue" points="301.892,-262.823 310.268,-256.335 299.674,-256.184 301.892,-262.823"/>
</g>
<!-- Node21 -->
<g id="node21" class="node"><title>Node21</title>
<g id="a_node21"><a xlink:href="../../d1/d13/classPHG4PhenixDetector.html#acdba581a56ceb2717c1553449802b153" target="_top" xlink:title="PHG4PhenixDetector\l::SetWorldMaterial">
<polygon fill="none" stroke="black" points="310.5,-186 310.5,-216 419.5,-216 419.5,-186 310.5,-186"/>
<text text-anchor="start" x="318.5" y="-204" font-family="FreeSans" font-size="10.00">PHG4PhenixDetector</text>
<text text-anchor="middle" x="365" y="-193" font-family="FreeSans" font-size="10.00">::SetWorldMaterial</text>
</a>
</g>
</g>
<!-- Node5&#45;&gt;Node21 -->
<g id="edge21" class="edge"><title>Node5&#45;&gt;Node21</title>
<path fill="none" stroke="midnightblue" d="M166.173,-540.323C167.495,-496.696 178.857,-316.473 276,-225 283.016,-218.393 291.67,-213.571 300.786,-210.059"/>
<polygon fill="midnightblue" stroke="midnightblue" points="302.025,-213.336 310.405,-206.853 299.811,-206.695 302.025,-213.336"/>
</g>
<!-- Node22 -->
<g id="node22" class="node"><title>Node22</title>
<g id="a_node22"><a xlink:href="../../d1/d13/classPHG4PhenixDetector.html#ae4ca0baeb25ef55124a30f7751331be2" target="_top" xlink:title="PHG4PhenixDetector\l::SetZeroFieldStartZ">
<polygon fill="none" stroke="black" points="310.5,-137 310.5,-167 419.5,-167 419.5,-137 310.5,-137"/>
<text text-anchor="start" x="318.5" y="-155" font-family="FreeSans" font-size="10.00">PHG4PhenixDetector</text>
<text text-anchor="middle" x="365" y="-144" font-family="FreeSans" font-size="10.00">::SetZeroFieldStartZ</text>
</a>
</g>
</g>
<!-- Node5&#45;&gt;Node22 -->
<g id="edge22" class="edge"><title>Node5&#45;&gt;Node22</title>
<path fill="none" stroke="midnightblue" d="M165.678,-540.207C164.671,-492.577 166.777,-283.082 276,-176 282.882,-169.253 291.465,-164.358 300.552,-160.815"/>
<polygon fill="midnightblue" stroke="midnightblue" points="301.787,-164.092 310.153,-157.591 299.559,-157.456 301.787,-164.092"/>
</g>
<!-- Node23 -->
<g id="node23" class="node"><title>Node23</title>
<g id="a_node23"><a xlink:href="../../d1/d13/classPHG4PhenixDetector.html#a8d0f753e838a21aa606cbebe5461af9f" target="_top" xlink:title="PHG4PhenixDetector\l::SetZeroFieldManager">
<polygon fill="none" stroke="black" points="308,-88 308,-118 422,-118 422,-88 308,-88"/>
<text text-anchor="start" x="316" y="-106" font-family="FreeSans" font-size="10.00">PHG4PhenixDetector</text>
<text text-anchor="middle" x="365" y="-95" font-family="FreeSans" font-size="10.00">::SetZeroFieldManager</text>
</a>
</g>
</g>
<!-- Node5&#45;&gt;Node23 -->
<g id="edge23" class="edge"><title>Node5&#45;&gt;Node23</title>
<path fill="none" stroke="midnightblue" d="M167.18,-540.469C174.403,-483.592 214.396,-189.338 276,-127 282.227,-120.699 289.936,-116.005 298.18,-112.518"/>
<polygon fill="midnightblue" stroke="midnightblue" points="299.462,-115.776 307.666,-109.071 297.072,-109.197 299.462,-115.776"/>
</g>
<!-- Node24 -->
<g id="node24" class="node"><title>Node24</title>
<g id="a_node24"><a xlink:href="../../d4/d2e/classG4TBMagneticFieldSetup.html#a1021020549f50b4b02ae436df63a1d2f" target="_top" xlink:title="G4TBMagneticFieldSetup\l::GetDummyFieldManager">
<polygon fill="none" stroke="black" points="301,-39 301,-69 429,-69 429,-39 301,-39"/>
<text text-anchor="start" x="309" y="-57" font-family="FreeSans" font-size="10.00">G4TBMagneticFieldSetup</text>
<text text-anchor="middle" x="365" y="-46" font-family="FreeSans" font-size="10.00">::GetDummyFieldManager</text>
</a>
</g>
</g>
<!-- Node5&#45;&gt;Node24 -->
<g id="edge24" class="edge"><title>Node5&#45;&gt;Node24</title>
<path fill="none" stroke="midnightblue" d="M166.934,-540.186C172.961,-478.828 208.283,-148.29 276,-78 280.47,-73.3598 285.743,-69.5884 291.449,-66.5268"/>
<polygon fill="midnightblue" stroke="midnightblue" points="293.088,-69.6255 300.72,-62.277 290.172,-63.2621 293.088,-69.6255"/>
</g>
<!-- Node25 -->
<g id="node25" class="node"><title>Node25</title>
<g id="a_node25"><a xlink:href="../../d1/da8/classPHFlag.html#a88212f810275c61464d51caa3cd4d1e1" target="_top" xlink:title="PHFlag::set_FloatFlag">
<polygon fill="none" stroke="black" points="309,-0.5 309,-19.5 421,-19.5 421,-0.5 309,-0.5"/>
<text text-anchor="middle" x="365" y="-7.5" font-family="FreeSans" font-size="10.00">PHFlag::set_FloatFlag</text>
</a>
</g>
</g>
<!-- Node5&#45;&gt;Node25 -->
<g id="edge25" class="edge"><title>Node5&#45;&gt;Node25</title>
<path fill="none" stroke="midnightblue" d="M166.635,-540.406C171.102,-475.888 199.856,-105.492 276,-29 282.478,-22.4922 290.618,-17.9707 299.315,-14.8665"/>
<polygon fill="midnightblue" stroke="midnightblue" points="300.321,-18.2189 308.919,-12.0276 298.337,-11.506 300.321,-18.2189"/>
</g>
<!-- Node26 -->
<g id="node26" class="node"><title>Node26</title>
<g id="a_node26"><a xlink:href="../../d1/d13/classPHG4PhenixDetector.html#a2eff5105a7370631a71a821ebfbaeef5" target="_top" xlink:title="register a detector. This is called in PHG4Reco::Init based on which detectors are found on the tree ...">
<polygon fill="none" stroke="black" points="310.5,-957 310.5,-987 419.5,-987 419.5,-957 310.5,-957"/>
<text text-anchor="start" x="318.5" y="-975" font-family="FreeSans" font-size="10.00">PHG4PhenixDetector</text>
<text text-anchor="middle" x="365" y="-964" font-family="FreeSans" font-size="10.00">::AddDetector</text>
</a>
</g>
</g>
<!-- Node5&#45;&gt;Node26 -->
<g id="edge26" class="edge"><title>Node5&#45;&gt;Node26</title>
<path fill="none" stroke="midnightblue" d="M165.51,-559.696C163.586,-608.757 161.574,-831.828 276,-947 282.896,-953.941 291.568,-958.989 300.763,-962.653"/>
<polygon fill="midnightblue" stroke="midnightblue" points="299.887,-966.053 310.482,-965.992 302.162,-959.432 299.887,-966.053"/>
</g>
<!-- Node27 -->
<g id="node27" class="node"><title>Node27</title>
<g id="a_node27"><a xlink:href="../../d0/d78/classPHG4Reco.html#af0c0ba5027360ea57d9ee31bc949e4dd" target="_top" xlink:title="PHG4Reco::setupInputEvent\lNodeReader">
<polygon fill="none" stroke="black" points="499.5,-516 499.5,-546 638.5,-546 638.5,-516 499.5,-516"/>
<text text-anchor="start" x="507.5" y="-534" font-family="FreeSans" font-size="10.00">PHG4Reco::setupInputEvent</text>
<text text-anchor="middle" x="569" y="-523" font-family="FreeSans" font-size="10.00">NodeReader</text>
</a>
</g>
</g>
<!-- Node5&#45;&gt;Node27 -->
<g id="edge27" class="edge"><title>Node5&#45;&gt;Node27</title>
<path fill="none" stroke="midnightblue" d="M185.271,-540.403C206.776,-530.274 242.906,-514.967 276,-509 353.856,-494.962 375.248,-501.471 454,-509 466.27,-510.173 479.184,-512.041 491.732,-514.205"/>
<polygon fill="midnightblue" stroke="midnightblue" points="491.238,-517.672 501.699,-515.997 492.476,-510.783 491.238,-517.672"/>
</g>
<!-- Node31 -->
<g id="node31" class="node"><title>Node31</title>
<g id="a_node31"><a xlink:href="../../d9/d7a/classPHG4PhenixEventAction.html#a715e0072dfcc8b3cf9434e77ee0858f6" target="_top" xlink:title="register an action. This is called in PHG4Reco::Init based on which actions are found on the tree ...">
<polygon fill="none" stroke="black" points="303,-869 303,-899 427,-899 427,-869 303,-869"/>
<text text-anchor="start" x="311" y="-887" font-family="FreeSans" font-size="10.00">PHG4PhenixEventAction</text>
<text text-anchor="middle" x="365" y="-876" font-family="FreeSans" font-size="10.00">::AddAction</text>
</a>
</g>
</g>
<!-- Node5&#45;&gt;Node31 -->
<g id="edge33" class="edge"><title>Node5&#45;&gt;Node31</title>
<path fill="none" stroke="midnightblue" d="M166.393,-559.752C168.64,-602.147 183.33,-772.183 276,-859 281.062,-863.742 286.958,-867.594 293.256,-870.721"/>
<polygon fill="midnightblue" stroke="midnightblue" points="292.152,-874.056 302.72,-874.803 294.924,-867.629 292.152,-874.056"/>
</g>
<!-- Node32 -->
<g id="node32" class="node"><title>Node32</title>
<g id="a_node32"><a xlink:href="../../d1/d53/classPHG4PhenixSteppingAction.html#afad86a579b69a694956d226e349f4d21" target="_top" xlink:title="PHG4PhenixSteppingAction\l::set_energy_threshold">
<polygon fill="none" stroke="black" points="296,-820 296,-850 434,-850 434,-820 296,-820"/>
<text text-anchor="start" x="304" y="-838" font-family="FreeSans" font-size="10.00">PHG4PhenixSteppingAction</text>
<text text-anchor="middle" x="365" y="-827" font-family="FreeSans" font-size="10.00">::set_energy_threshold</text>
</a>
</g>
</g>
<!-- Node5&#45;&gt;Node32 -->
<g id="edge34" class="edge"><title>Node5&#45;&gt;Node32</title>
<path fill="none" stroke="midnightblue" d="M167.12,-559.743C172.036,-597.903 195.197,-738.603 276,-810 279.28,-812.899 282.875,-815.463 286.677,-817.731"/>
<polygon fill="midnightblue" stroke="midnightblue" points="285.389,-821.006 295.877,-822.505 288.613,-814.792 285.389,-821.006"/>
</g>
<!-- Node33 -->
<g id="node33" class="node"><title>Node33</title>
<g id="a_node33"><a xlink:href="../../d1/d53/classPHG4PhenixSteppingAction.html#afead1d30da1e7c68616987bdf711a25b" target="_top" xlink:title="register an action. This is called in PHG4Reco::Init based on which actions are found on the tree ...">
<polygon fill="none" stroke="black" points="296,-771 296,-801 434,-801 434,-771 296,-771"/>
<text text-anchor="start" x="304" y="-789" font-family="FreeSans" font-size="10.00">PHG4PhenixSteppingAction</text>
<text text-anchor="middle" x="365" y="-778" font-family="FreeSans" font-size="10.00">::AddAction</text>
</a>
</g>
</g>
<!-- Node5&#45;&gt;Node33 -->
<g id="edge35" class="edge"><title>Node5&#45;&gt;Node33</title>
<path fill="none" stroke="midnightblue" d="M168.15,-559.717C176.069,-593.176 206.813,-704.648 276,-761 279.325,-763.708 282.927,-766.123 286.712,-768.277"/>
<polygon fill="midnightblue" stroke="midnightblue" points="285.319,-771.493 295.828,-772.842 288.454,-765.234 285.319,-771.493"/>
</g>
<!-- Node34 -->
<g id="node34" class="node"><title>Node34</title>
<g id="a_node34"><a xlink:href="../../d0/ddf/classPHG4PhenixTrackingAction.html#a300a79aafe903fda71e3683cc873f1a8" target="_top" xlink:title="register an action. This is called in PHG4Reco::Init based on which actions are found on the tree ...">
<polygon fill="none" stroke="black" points="296.5,-683 296.5,-713 433.5,-713 433.5,-683 296.5,-683"/>
<text text-anchor="start" x="304.5" y="-701" font-family="FreeSans" font-size="10.00">PHG4PhenixTrackingAction</text>
<text text-anchor="middle" x="365" y="-690" font-family="FreeSans" font-size="10.00">::AddAction</text>
</a>
</g>
</g>
<!-- Node5&#45;&gt;Node34 -->
<g id="edge36" class="edge"><title>Node5&#45;&gt;Node34</title>
<path fill="none" stroke="midnightblue" d="M171.852,-559.667C186.417,-582.888 226.696,-642.16 276,-673 279.56,-675.227 283.323,-677.26 287.209,-679.116"/>
<polygon fill="midnightblue" stroke="midnightblue" points="285.897,-682.362 296.464,-683.134 288.685,-675.941 285.897,-682.362"/>
</g>
<!-- Node35 -->
<g id="node35" class="node"><title>Node35</title>
<g id="a_node35"><a xlink:href="../../d3/d64/classPHG4UIsession.html#a6c62aa280017bbed8399feaa21c1b342" target="_top" xlink:title="PHG4UIsession::Verbosity">
<polygon fill="none" stroke="black" points="301,-644.5 301,-663.5 429,-663.5 429,-644.5 301,-644.5"/>
<text text-anchor="middle" x="365" y="-651.5" font-family="FreeSans" font-size="10.00">PHG4UIsession::Verbosity</text>
</a>
</g>
</g>
<!-- Node5&#45;&gt;Node35 -->
<g id="edge37" class="edge"><title>Node5&#45;&gt;Node35</title>
<path fill="none" stroke="midnightblue" d="M175.309,-559.618C193.116,-577.418 233.983,-615.461 276,-635 281.357,-637.491 287.05,-639.661 292.864,-641.549"/>
<polygon fill="midnightblue" stroke="midnightblue" points="292.141,-644.985 302.723,-644.47 294.129,-638.274 292.141,-644.985"/>
</g>
<!-- Node36 -->
<g id="node36" class="node"><title>Node36</title>
<g id="a_node36"><a xlink:href="../../d2/da1/classPHGeomUtility.html#a3130e3b42131e3f048aa7586829192c5" target="_top" xlink:title="PHGeomUtility::GenerateGeometry\lFileName">
<polygon fill="none" stroke="black" points="281.5,-557 281.5,-587 448.5,-587 448.5,-557 281.5,-557"/>
<text text-anchor="start" x="289.5" y="-575" font-family="FreeSans" font-size="10.00">PHGeomUtility::GenerateGeometry</text>
<text text-anchor="middle" x="365" y="-564" font-family="FreeSans" font-size="10.00">FileName</text>
</a>
</g>
</g>
<!-- Node5&#45;&gt;Node36 -->
<g id="edge38" class="edge"><title>Node5&#45;&gt;Node36</title>
<path fill="none" stroke="midnightblue" d="M215.708,-555.523C232.584,-557.398 252.026,-559.558 271.16,-561.684"/>
<polygon fill="midnightblue" stroke="midnightblue" points="270.797,-565.166 281.122,-562.791 271.57,-558.208 270.797,-565.166"/>
</g>
<!-- Node37 -->
<g id="node37" class="node"><title>Node37</title>
<g id="a_node37"><a xlink:href="../../d0/d78/classPHG4Reco.html#a490f5037508d384c5b60855ef0f7e227" target="_top" xlink:title="PHG4Reco::Dump_GDML">
<polygon fill="none" stroke="black" points="301,-918.5 301,-937.5 429,-937.5 429,-918.5 301,-918.5"/>
<text text-anchor="middle" x="365" y="-925.5" font-family="FreeSans" font-size="10.00">PHG4Reco::Dump_GDML</text>
</a>
</g>
</g>
<!-- Node5&#45;&gt;Node37 -->
<g id="edge39" class="edge"><title>Node5&#45;&gt;Node37</title>
<path fill="none" stroke="midnightblue" d="M165.736,-559.787C165.041,-606.458 168.527,-808.263 276,-908 280.488,-912.165 285.656,-915.524 291.192,-918.227"/>
<polygon fill="midnightblue" stroke="midnightblue" points="290.222,-921.612 300.802,-922.182 292.887,-915.139 290.222,-921.612"/>
</g>
<!-- Node45 -->
<g id="node45" class="node"><title>Node45</title>
<g id="a_node45"><a xlink:href="../../d2/da1/classPHGeomUtility.html#a4a80252bedb22198d011065e41aa669e" target="_top" xlink:title="TGeo ROOT/GDML/Macro file &#45;&gt; DST node with automatic file type discrimination based on file names...">
<polygon fill="none" stroke="black" points="287.5,-1082.5 287.5,-1101.5 442.5,-1101.5 442.5,-1082.5 287.5,-1082.5"/>
<text text-anchor="middle" x="365" y="-1089.5" font-family="FreeSans" font-size="10.00">PHGeomUtility::ImportGeomFile</text>
</a>
</g>
</g>
<!-- Node5&#45;&gt;Node45 -->
<g id="edge49" class="edge"><title>Node5&#45;&gt;Node45</title>
<path fill="none" stroke="midnightblue" d="M166.623,-559.73C170.139,-609.17 190.501,-836.428 276,-996 293.362,-1028.4 324.17,-1058.37 344.339,-1075.93"/>
<polygon fill="midnightblue" stroke="midnightblue" points="342.122,-1078.64 352.006,-1082.45 346.657,-1073.31 342.122,-1078.64"/>
</g>
<!-- Node50 -->
<g id="node50" class="node"><title>Node50</title>
<g id="a_node50"><a xlink:href="../../d2/da1/classPHGeomUtility.html#af9c141256e014a36b8af77075894b41f" target="_top" xlink:title="delete the geometry file after use ">
<polygon fill="none" stroke="black" points="276,-518.5 276,-537.5 454,-537.5 454,-518.5 276,-518.5"/>
<text text-anchor="middle" x="365" y="-525.5" font-family="FreeSans" font-size="10.00">PHGeomUtility::RemoveGeometryFile</text>
</a>
</g>
</g>
<!-- Node5&#45;&gt;Node50 -->
<g id="edge56" class="edge"><title>Node5&#45;&gt;Node50</title>
<path fill="none" stroke="midnightblue" d="M215.708,-544.477C231.753,-542.694 250.117,-540.654 268.33,-538.63"/>
<polygon fill="midnightblue" stroke="midnightblue" points="268.865,-542.092 278.417,-537.509 268.092,-535.135 268.865,-542.092"/>
</g>
<!-- Node7 -->
<g id="node7" class="node"><title>Node7</title>
<g id="a_node7"><a xlink:href="../../d8/d14/classrecoConsts.html#ae882d6adc62f783ec78114fe3dee3c24" target="_top" xlink:title="recoConsts::recoConsts">
<polygon fill="none" stroke="black" points="510.5,-732.5 510.5,-751.5 627.5,-751.5 627.5,-732.5 510.5,-732.5"/>
<text text-anchor="middle" x="569" y="-739.5" font-family="FreeSans" font-size="10.00">recoConsts::recoConsts</text>
</a>
</g>
</g>
<!-- Node6&#45;&gt;Node7 -->
<g id="edge6" class="edge"><title>Node6&#45;&gt;Node7</title>
<path fill="none" stroke="midnightblue" d="M417.758,-742C442.842,-742 473.29,-742 500.201,-742"/>
<polygon fill="midnightblue" stroke="midnightblue" points="500.323,-745.5 510.323,-742 500.323,-738.5 500.323,-745.5"/>
</g>
<!-- Node9 -->
<g id="node9" class="node"><title>Node9</title>
<g id="a_node9"><a xlink:href="../../df/d4d/classPHFieldUtility.html#a3afdd4e878d02b30b6f2c396e52b8e48" target="_top" xlink:title="Get transient PHField from DST nodes. If not found, make a new one based on default_config. ">
<polygon fill="none" stroke="black" points="511,-664 511,-694 627,-694 627,-664 511,-664"/>
<text text-anchor="start" x="519" y="-682" font-family="FreeSans" font-size="10.00">PHFieldUtility::GetField</text>
<text text-anchor="middle" x="569" y="-671" font-family="FreeSans" font-size="10.00">MapNode</text>
</a>
</g>
</g>
<!-- Node8&#45;&gt;Node9 -->
<g id="edge8" class="edge"><title>Node8&#45;&gt;Node9</title>
<path fill="none" stroke="midnightblue" d="M416.603,-625.515C428.934,-628.22 442.02,-631.419 454,-635 477.531,-642.035 503.093,-651.705 524.037,-660.189"/>
<polygon fill="midnightblue" stroke="midnightblue" points="522.731,-663.436 533.311,-663.99 525.386,-656.959 522.731,-663.436"/>
</g>
<!-- Node15 -->
<g id="node15" class="node"><title>Node15</title>
<g id="a_node15"><a xlink:href="../../d5/dec/classFun4AllBase.html#a8a5c77a92bdac6bc043476e132379a40" target="_top" xlink:title="Gets the verbosity of this module. ">
<polygon fill="none" stroke="black" points="511.5,-606.5 511.5,-625.5 626.5,-625.5 626.5,-606.5 511.5,-606.5"/>
<text text-anchor="middle" x="569" y="-613.5" font-family="FreeSans" font-size="10.00">Fun4AllBase::Verbosity</text>
</a>
</g>
</g>
<!-- Node8&#45;&gt;Node15 -->
<g id="edge15" class="edge"><title>Node8&#45;&gt;Node15</title>
<path fill="none" stroke="midnightblue" d="M417.234,-616C442.73,-616 473.867,-616 501.211,-616"/>
<polygon fill="midnightblue" stroke="midnightblue" points="501.485,-619.5 511.485,-616 501.485,-612.5 501.485,-619.5"/>
</g>
<!-- Node9&#45;&gt;Node10 -->
<g id="edge9" class="edge"><title>Node9&#45;&gt;Node10</title>
<path fill="none" stroke="midnightblue" d="M612.716,-694.163C626.044,-700.965 639.473,-710.372 648,-723 716.734,-824.791 601.589,-905.928 684,-997 687.816,-1001.22 692.374,-1004.59 697.357,-1007.27"/>
<polygon fill="midnightblue" stroke="midnightblue" points="696.151,-1010.56 706.713,-1011.39 698.973,-1004.16 696.151,-1010.56"/>
</g>
<!-- Node9&#45;&gt;Node11 -->
<g id="edge10" class="edge"><title>Node9&#45;&gt;Node11</title>
<path fill="none" stroke="midnightblue" d="M607.464,-694.123C621.552,-701.242 636.843,-710.871 648,-723 714.716,-795.528 749.056,-912.686 760.524,-958.632"/>
<polygon fill="midnightblue" stroke="midnightblue" points="757.152,-959.579 762.9,-968.479 763.957,-957.937 757.152,-959.579"/>
</g>
<!-- Node12 -->
<g id="node12" class="node"><title>Node12</title>
<g id="a_node12"><a xlink:href="../../d5/d07/classPHNodeIterator.html#aea98bf8619af59b1212a94fb32106baa" target="_top" xlink:title="PHNodeIterator::findFirst">
<polygon fill="none" stroke="black" points="705,-578.5 705,-597.5 827,-597.5 827,-578.5 705,-578.5"/>
<text text-anchor="middle" x="766" y="-585.5" font-family="FreeSans" font-size="10.00">PHNodeIterator::findFirst</text>
</a>
</g>
</g>
<!-- Node9&#45;&gt;Node12 -->
<g id="edge11" class="edge"><title>Node9&#45;&gt;Node12</title>
<path fill="none" stroke="midnightblue" d="M602.2,-663.973C639.082,-646.762 699.035,-618.784 734.978,-602.01"/>
<polygon fill="midnightblue" stroke="midnightblue" points="736.858,-604.995 744.44,-597.595 733.898,-598.652 736.858,-604.995"/>
</g>
<!-- Node13 -->
<g id="node13" class="node"><title>Node13</title>
<g id="a_node13"><a xlink:href="../../dc/d82/classPHNode.html#a4ab1f90aed955a652813bfe377087bda" target="_top" xlink:title="PHNode::getType">
<polygon fill="none" stroke="black" points="915,-597.5 915,-616.5 1007,-616.5 1007,-597.5 915,-597.5"/>
<text text-anchor="middle" x="961" y="-604.5" font-family="FreeSans" font-size="10.00">PHNode::getType</text>
</a>
</g>
</g>
<!-- Node12&#45;&gt;Node13 -->
<g id="edge12" class="edge"><title>Node12&#45;&gt;Node13</title>
<path fill="none" stroke="midnightblue" d="M827.008,-593.908C851.795,-596.348 880.349,-599.159 904.629,-601.549"/>
<polygon fill="midnightblue" stroke="midnightblue" points="904.455,-605.049 914.75,-602.545 905.141,-598.082 904.455,-605.049"/>
</g>
<!-- Node14 -->
<g id="node14" class="node"><title>Node14</title>
<g id="a_node14"><a xlink:href="../../dc/d82/classPHNode.html#aca3576f926a4401eddc3d88bf0ce0de3" target="_top" xlink:title="PHNode::getName">
<polygon fill="none" stroke="black" points="913,-559.5 913,-578.5 1009,-578.5 1009,-559.5 913,-559.5"/>
<text text-anchor="middle" x="961" y="-566.5" font-family="FreeSans" font-size="10.00">PHNode::getName</text>
</a>
</g>
</g>
<!-- Node12&#45;&gt;Node14 -->
<g id="edge13" class="edge"><title>Node12&#45;&gt;Node14</title>
<path fill="none" stroke="midnightblue" d="M827.008,-582.092C851.214,-579.709 879.013,-576.973 902.915,-574.62"/>
<polygon fill="midnightblue" stroke="midnightblue" points="903.29,-578.1 912.899,-573.637 902.604,-571.134 903.29,-578.1"/>
</g>
<!-- Node12&#45;&gt;Node12 -->
<g id="edge14" class="edge"><title>Node12&#45;&gt;Node12</title>
<path fill="none" stroke="midnightblue" d="M736.099,-597.757C721.553,-606.565 731.52,-616 766,-616 790.244,-616 802.369,-611.336 802.375,-605.504"/>
<polygon fill="midnightblue" stroke="midnightblue" points="804.999,-603.186 795.901,-597.757 799.628,-607.675 804.999,-603.186"/>
</g>
<!-- Node27&#45;&gt;Node12 -->
<g id="edge28" class="edge"><title>Node27&#45;&gt;Node12</title>
<path fill="none" stroke="midnightblue" d="M621.489,-546.051C653.017,-555.267 692.874,-566.917 722.58,-575.6"/>
<polygon fill="midnightblue" stroke="midnightblue" points="721.658,-578.977 732.238,-578.423 723.622,-572.258 721.658,-578.977"/>
</g>
<!-- Node28 -->
<g id="node28" class="node"><title>Node28</title>
<g id="a_node28"><a xlink:href="../../d5/dca/classPHCompositeNode.html#ac7dbf017614c324e218a001d729607bf" target="_top" xlink:title="PHCompositeNode::addNode">
<polygon fill="none" stroke="black" points="695.5,-521.5 695.5,-540.5 836.5,-540.5 836.5,-521.5 695.5,-521.5"/>
<text text-anchor="middle" x="766" y="-528.5" font-family="FreeSans" font-size="10.00">PHCompositeNode::addNode</text>
</a>
</g>
</g>
<!-- Node27&#45;&gt;Node28 -->
<g id="edge29" class="edge"><title>Node27&#45;&gt;Node28</title>
<path fill="none" stroke="midnightblue" d="M638.75,-531C653.771,-531 669.792,-531 685.203,-531"/>
<polygon fill="midnightblue" stroke="midnightblue" points="685.226,-534.5 695.225,-531 685.225,-527.5 685.226,-534.5"/>
</g>
<!-- Node28&#45;&gt;Node14 -->
<g id="edge30" class="edge"><title>Node28&#45;&gt;Node14</title>
<path fill="none" stroke="midnightblue" d="M815.702,-540.589C842.257,-545.817 875.272,-552.318 903.018,-557.781"/>
<polygon fill="midnightblue" stroke="midnightblue" points="902.492,-561.244 912.98,-559.742 903.844,-554.376 902.492,-561.244"/>
</g>
<!-- Node29 -->
<g id="node29" class="node"><title>Node29</title>
<g id="a_node29"><a xlink:href="../../dc/d82/classPHNode.html#adda2bd6cef2d5067bbe3016a990b7198" target="_top" xlink:title="PHNode::setParent">
<polygon fill="none" stroke="black" points="912,-521.5 912,-540.5 1010,-540.5 1010,-521.5 912,-521.5"/>
<text text-anchor="middle" x="961" y="-528.5" font-family="FreeSans" font-size="10.00">PHNode::setParent</text>
</a>
</g>
</g>
<!-- Node28&#45;&gt;Node29 -->
<g id="edge31" class="edge"><title>Node28&#45;&gt;Node29</title>
<path fill="none" stroke="midnightblue" d="M836.677,-531C858.014,-531 881.252,-531 901.744,-531"/>
<polygon fill="midnightblue" stroke="midnightblue" points="901.873,-534.5 911.873,-531 901.873,-527.5 901.873,-534.5"/>
</g>
<!-- Node30 -->
<g id="node30" class="node"><title>Node30</title>
<g id="a_node30"><a xlink:href="../../d6/d86/classPHPointerList.html#af5fc4e6958b5b90c57bfb497566f503c" target="_top" xlink:title="PHPointerList::append">
<polygon fill="none" stroke="black" points="905,-483.5 905,-502.5 1017,-502.5 1017,-483.5 905,-483.5"/>
<text text-anchor="middle" x="961" y="-490.5" font-family="FreeSans" font-size="10.00">PHPointerList::append</text>
</a>
</g>
</g>
<!-- Node28&#45;&gt;Node30 -->
<g id="edge32" class="edge"><title>Node28&#45;&gt;Node30</title>
<path fill="none" stroke="midnightblue" d="M815.702,-521.411C841.859,-516.261 874.284,-509.877 901.767,-504.466"/>
<polygon fill="midnightblue" stroke="midnightblue" points="902.513,-507.886 911.648,-502.52 901.16,-501.018 902.513,-507.886"/>
</g>
<!-- Node38 -->
<g id="node38" class="node"><title>Node38</title>
<g id="a_node38"><a xlink:href="../../d9/df8/classPHG4GDMLUtility.html#adb03ec38807279cb5abaf38987c5a73f" target="_top" xlink:title="save the current Geant4 geometry to GDML file. Reading PHG4GDMLConfig from topNode ...">
<polygon fill="none" stroke="black" points="490,-1006.5 490,-1025.5 648,-1025.5 648,-1006.5 490,-1006.5"/>
<text text-anchor="middle" x="569" y="-1013.5" font-family="FreeSans" font-size="10.00">PHG4GDMLUtility::Dump_GDML</text>
</a>
</g>
</g>
<!-- Node37&#45;&gt;Node38 -->
<g id="edge40" class="edge"><title>Node37&#45;&gt;Node38</title>
<path fill="none" stroke="midnightblue" d="M420.336,-937.535C431.663,-940.299 443.381,-943.751 454,-948 488.413,-961.771 524.584,-985.08 546.72,-1000.51"/>
<polygon fill="midnightblue" stroke="midnightblue" points="544.844,-1003.47 555.029,-1006.39 548.889,-997.753 544.844,-1003.47"/>
</g>
<!-- Node44 -->
<g id="node44" class="node"><title>Node44</title>
<g id="a_node44"><a xlink:href="../../d1/d13/classPHG4PhenixDetector.html#a08f9f09748e767ac536249ac56995fd2" target="_top" xlink:title="PHG4PhenixDetector\l::GetPhysicalVolume">
<polygon fill="none" stroke="black" points="514.5,-913 514.5,-943 623.5,-943 623.5,-913 514.5,-913"/>
<text text-anchor="start" x="522.5" y="-931" font-family="FreeSans" font-size="10.00">PHG4PhenixDetector</text>
<text text-anchor="middle" x="569" y="-920" font-family="FreeSans" font-size="10.00">::GetPhysicalVolume</text>
</a>
</g>
</g>
<!-- Node37&#45;&gt;Node44 -->
<g id="edge48" class="edge"><title>Node37&#45;&gt;Node44</title>
<path fill="none" stroke="midnightblue" d="M429.083,-928C452.988,-928 480.207,-928 504.179,-928"/>
<polygon fill="midnightblue" stroke="midnightblue" points="504.235,-931.5 514.235,-928 504.235,-924.5 504.235,-931.5"/>
</g>
<!-- Node38&#45;&gt;Node10 -->
<g id="edge41" class="edge"><title>Node38&#45;&gt;Node10</title>
<path fill="none" stroke="midnightblue" d="M648.19,-1016C664.27,-1016 681.08,-1016 696.775,-1016"/>
<polygon fill="midnightblue" stroke="midnightblue" points="696.908,-1019.5 706.908,-1016 696.908,-1012.5 696.908,-1019.5"/>
</g>
<!-- Node38&#45;&gt;Node11 -->
<g id="edge42" class="edge"><title>Node38&#45;&gt;Node11</title>
<path fill="none" stroke="midnightblue" d="M618.955,-1006.46C645.381,-1001.31 678.194,-994.916 706.02,-989.494"/>
<polygon fill="midnightblue" stroke="midnightblue" points="706.879,-992.892 716.025,-987.544 705.54,-986.021 706.879,-992.892"/>
</g>
<!-- Node39 -->
<g id="node39" class="node"><title>Node39</title>
<g id="a_node39"><a xlink:href="../../dd/db5/classPHG4GDMLWrite.html#af4241e53bb71408c9bf11117053f9810" target="_top" xlink:title="PHG4GDMLWrite::Write">
<polygon fill="none" stroke="red" points="706,-1044.5 706,-1063.5 826,-1063.5 826,-1044.5 706,-1044.5"/>
<text text-anchor="middle" x="766" y="-1051.5" font-family="FreeSans" font-size="10.00">PHG4GDMLWrite::Write</text>
</a>
</g>
</g>
<!-- Node38&#45;&gt;Node39 -->
<g id="edge43" class="edge"><title>Node38&#45;&gt;Node39</title>
<path fill="none" stroke="midnightblue" d="M618.955,-1025.54C645.381,-1030.69 678.194,-1037.08 706.02,-1042.51"/>
<polygon fill="midnightblue" stroke="midnightblue" points="705.54,-1045.98 716.025,-1044.46 706.879,-1039.11 705.54,-1045.98"/>
</g>
<!-- Node40 -->
<g id="node40" class="node"><title>Node40</title>
<g id="a_node40"><a xlink:href="../../dd/db5/classPHG4GDMLWrite.html#abac8d16ed8e19e2292a85cdf072b4c70" target="_top" xlink:title="PHG4GDMLWrite::FileExists">
<polygon fill="none" stroke="black" points="892,-1101.5 892,-1120.5 1030,-1120.5 1030,-1101.5 892,-1101.5"/>
<text text-anchor="middle" x="961" y="-1108.5" font-family="FreeSans" font-size="10.00">PHG4GDMLWrite::FileExists</text>
</a>
</g>
</g>
<!-- Node39&#45;&gt;Node40 -->
<g id="edge44" class="edge"><title>Node39&#45;&gt;Node40</title>
<path fill="none" stroke="midnightblue" d="M794.729,-1063.6C818.331,-1071.63 853.208,-1083.16 884,-1092 892.268,-1094.37 901.09,-1096.73 909.688,-1098.94"/>
<polygon fill="midnightblue" stroke="midnightblue" points="909.077,-1102.4 919.63,-1101.46 910.794,-1095.61 909.077,-1102.4"/>
</g>
<!-- Node41 -->
<g id="node41" class="node"><title>Node41</title>
<g id="a_node41"><a xlink:href="../../dd/db5/classPHG4GDMLWrite.html#a2e03286e47cae3a6bb779696e865a801" target="_top" xlink:title="PHG4GDMLWrite::VolumeMap">
<polygon fill="none" stroke="black" points="886.5,-1063.5 886.5,-1082.5 1035.5,-1082.5 1035.5,-1063.5 886.5,-1063.5"/>
<text text-anchor="middle" x="961" y="-1070.5" font-family="FreeSans" font-size="10.00">PHG4GDMLWrite::VolumeMap</text>
</a>
</g>
</g>
<!-- Node39&#45;&gt;Node41 -->
<g id="edge45" class="edge"><title>Node39&#45;&gt;Node41</title>
<path fill="none" stroke="midnightblue" d="M826.218,-1059.83C841.909,-1061.37 859.155,-1063.07 875.894,-1064.72"/>
<polygon fill="midnightblue" stroke="midnightblue" points="875.938,-1068.24 886.233,-1065.74 876.624,-1061.28 875.938,-1068.24"/>
</g>
<!-- Node42 -->
<g id="node42" class="node"><title>Node42</title>
<g id="a_node42"><a xlink:href="../../dd/db5/classPHG4GDMLWrite.html#afe96dc9fdc7c1a0a1a96b59dc15dffa2" target="_top" xlink:title="PHG4GDMLWrite::NewAttribute">
<polygon fill="none" stroke="black" points="884.5,-1025.5 884.5,-1044.5 1037.5,-1044.5 1037.5,-1025.5 884.5,-1025.5"/>
<text text-anchor="middle" x="961" y="-1032.5" font-family="FreeSans" font-size="10.00">PHG4GDMLWrite::NewAttribute</text>
</a>
</g>
</g>
<!-- Node39&#45;&gt;Node42 -->
<g id="edge46" class="edge"><title>Node39&#45;&gt;Node42</title>
<path fill="none" stroke="midnightblue" d="M826.218,-1048.17C841.45,-1046.67 858.148,-1045.03 874.425,-1043.42"/>
<polygon fill="midnightblue" stroke="midnightblue" points="874.879,-1046.9 884.488,-1042.43 874.193,-1039.93 874.879,-1046.9"/>
</g>
<!-- Node43 -->
<g id="node43" class="node"><title>Node43</title>
<g id="a_node43"><a xlink:href="../../dd/db5/classPHG4GDMLWrite.html#a4940da7fd3385b169dcca73885d29060" target="_top" xlink:title="PHG4GDMLWrite::Extension\lWrite">
<polygon fill="none" stroke="black" points="891.5,-976 891.5,-1006 1030.5,-1006 1030.5,-976 891.5,-976"/>
<text text-anchor="start" x="899.5" y="-994" font-family="FreeSans" font-size="10.00">PHG4GDMLWrite::Extension</text>
<text text-anchor="middle" x="961" y="-983" font-family="FreeSans" font-size="10.00">Write</text>
</a>
</g>
</g>
<!-- Node39&#45;&gt;Node43 -->
<g id="edge47" class="edge"><title>Node39&#45;&gt;Node43</title>
<path fill="none" stroke="midnightblue" d="M816.858,-1044.42C827.294,-1041.83 838.124,-1038.69 848,-1035 864.945,-1028.66 867.349,-1023.07 884,-1016 889.323,-1013.74 894.926,-1011.55 900.576,-1009.47"/>
<polygon fill="midnightblue" stroke="midnightblue" points="901.84,-1012.74 910.088,-1006.09 899.493,-1006.14 901.84,-1012.74"/>
</g>
<!-- Node46 -->
<g id="node46" class="node"><title>Node46</title>
<g id="a_node46"><a xlink:href="../../d7/d6d/classPHGeomTGeo.html#af0772491188524c7674c1ef004d49ad5" target="_top" xlink:title="Clear Event. ">
<polygon fill="none" stroke="black" points="514,-1082.5 514,-1101.5 624,-1101.5 624,-1082.5 514,-1082.5"/>
<text text-anchor="middle" x="569" y="-1089.5" font-family="FreeSans" font-size="10.00">PHGeomTGeo::Reset</text>
</a>
</g>
</g>
<!-- Node45&#45;&gt;Node46 -->
<g id="edge50" class="edge"><title>Node45&#45;&gt;Node46</title>
<path fill="none" stroke="midnightblue" d="M442.656,-1092C462.712,-1092 484.131,-1092 503.485,-1092"/>
<polygon fill="midnightblue" stroke="midnightblue" points="503.7,-1095.5 513.7,-1092 503.7,-1088.5 503.7,-1095.5"/>
</g>
<!-- Node48 -->
<g id="node48" class="node"><title>Node48</title>
<g id="a_node48"><a xlink:href="../../d7/d6d/classPHGeomTGeo.html#a8b2df41583e27a653458c6aae76a2926" target="_top" xlink:title="PHGeomTGeo::SetGeometry">
<polygon fill="none" stroke="black" points="498,-1158.5 498,-1177.5 640,-1177.5 640,-1158.5 498,-1158.5"/>
<text text-anchor="middle" x="569" y="-1165.5" font-family="FreeSans" font-size="10.00">PHGeomTGeo::SetGeometry</text>
</a>
</g>
</g>
<!-- Node45&#45;&gt;Node48 -->
<g id="edge52" class="edge"><title>Node45&#45;&gt;Node48</title>
<path fill="none" stroke="midnightblue" d="M431.55,-1101.52C439.381,-1103.99 447.053,-1107.09 454,-1111 474.275,-1122.41 469.877,-1137.33 490,-1149 493.73,-1151.16 497.697,-1153.08 501.79,-1154.78"/>
<polygon fill="midnightblue" stroke="midnightblue" points="500.923,-1158.19 511.517,-1158.37 503.345,-1151.63 500.923,-1158.19"/>
</g>
<!-- Node49 -->
<g id="node49" class="node"><title>Node49</title>
<g id="a_node49"><a xlink:href="../../d7/d6d/classPHGeomTGeo.html#a3e111f6229f7ce6392b14a98fdf5bea9" target="_top" xlink:title="PHGeomTGeo::GetGeometry">
<polygon fill="none" stroke="black" points="497.5,-1120.5 497.5,-1139.5 640.5,-1139.5 640.5,-1120.5 497.5,-1120.5"/>
<text text-anchor="middle" x="569" y="-1127.5" font-family="FreeSans" font-size="10.00">PHGeomTGeo::GetGeometry</text>
</a>
</g>
</g>
<!-- Node45&#45;&gt;Node49 -->
<g id="edge54" class="edge"><title>Node45&#45;&gt;Node49</title>
<path fill="none" stroke="midnightblue" d="M416.712,-1101.54C444.207,-1106.71 478.376,-1113.14 507.282,-1118.58"/>
<polygon fill="midnightblue" stroke="midnightblue" points="506.792,-1122.05 517.267,-1120.46 508.086,-1115.17 506.792,-1122.05"/>
</g>
<!-- Node47 -->
<g id="node47" class="node"><title>Node47</title>
<g id="a_node47"><a xlink:href="../../d7/d6d/classPHGeomTGeo.html#af37739b87530fe2bbd5d8d03098c1821" target="_top" xlink:title="PHGeomTGeo::ConsistencyCheck">
<polygon fill="none" stroke="black" points="684,-1120.5 684,-1139.5 848,-1139.5 848,-1120.5 684,-1120.5"/>
<text text-anchor="middle" x="766" y="-1127.5" font-family="FreeSans" font-size="10.00">PHGeomTGeo::ConsistencyCheck</text>
</a>
</g>
</g>
<!-- Node46&#45;&gt;Node47 -->
<g id="edge51" class="edge"><title>Node46&#45;&gt;Node47</title>
<path fill="none" stroke="midnightblue" d="M618.955,-1101.54C645.381,-1106.69 678.194,-1113.08 706.02,-1118.51"/>
<polygon fill="midnightblue" stroke="midnightblue" points="705.54,-1121.98 716.025,-1120.46 706.879,-1115.11 705.54,-1121.98"/>
</g>
<!-- Node48&#45;&gt;Node47 -->
<g id="edge53" class="edge"><title>Node48&#45;&gt;Node47</title>
<path fill="none" stroke="midnightblue" d="M618.955,-1158.46C645.381,-1153.31 678.194,-1146.92 706.02,-1141.49"/>
<polygon fill="midnightblue" stroke="midnightblue" points="706.879,-1144.89 716.025,-1139.54 705.54,-1138.02 706.879,-1144.89"/>
</g>
<!-- Node49&#45;&gt;Node47 -->
<g id="edge55" class="edge"><title>Node49&#45;&gt;Node47</title>
<path fill="none" stroke="midnightblue" d="M640.675,-1130C651.44,-1130 662.678,-1130 673.806,-1130"/>
<polygon fill="midnightblue" stroke="midnightblue" points="673.978,-1133.5 683.978,-1130 673.978,-1126.5 673.978,-1133.5"/>
</g>
</g>
</svg>
