<?xml version="1.0" encoding="UTF-8" standalone="no"?>
<!DOCTYPE svg PUBLIC "-//W3C//DTD SVG 1.1//EN"
 "http://www.w3.org/Graphics/SVG/1.1/DTD/svg11.dtd">
<!-- Generated by graphviz version 2.30.1 (20200930.0103)
 -->
<!-- Title: SQReco::set_enable_eval Pages: 1 -->
<svg width="262pt" height="256pt"
 viewBox="0.00 0.00 262.00 256.00" xmlns="http://www.w3.org/2000/svg" xmlns:xlink="http://www.w3.org/1999/xlink">
<g id="graph0" class="graph" transform="scale(1 1) rotate(0) translate(4 252)">
<title>SQReco::set_enable_eval</title>
<!-- Node1 -->
<g id="node1" class="node"><title>Node1</title>
<polygon fill="#bfbfbf" stroke="black" points="0.5,-114.5 0.5,-133.5 127.5,-133.5 127.5,-114.5 0.5,-114.5"/>
<text text-anchor="middle" x="64" y="-121.5" font-family="FreeSans" font-size="10.00">SQReco::set_enable_eval</text>
</g>
<!-- Node2 -->
<g id="node2" class="node"><title>Node2</title>
<g id="a_node2"><a xlink:href="../../de/de6/Fun4AllReco_8C.html#a43d2d478ac0bc12be4a621bacb613bdd" target="_top" xlink:title="Fun4AllReco.C: Fun4all macro to run the reconstruction. ">
<polygon fill="none" stroke="black" points="173,-228.5 173,-247.5 245,-247.5 245,-228.5 173,-228.5"/>
<text text-anchor="middle" x="209" y="-235.5" font-family="FreeSans" font-size="10.00">Fun4AllReco</text>
</a>
</g>
</g>
<!-- Node1&#45;&gt;Node2 -->
<g id="edge1" class="edge"><title>Node1&#45;&gt;Node2</title>
<path fill="none" stroke="midnightblue" d="M79.4282,-141.191C97.4831,-161.849 130.165,-196.531 164,-219 169.407,-222.59 175.603,-225.757 181.607,-228.424"/>
<polygon fill="midnightblue" stroke="midnightblue" points="82.0066,-138.821 72.8337,-133.519 76.6982,-143.384 82.0066,-138.821"/>
</g>
<!-- Node3 -->
<g id="node3" class="node"><title>Node3</title>
<g id="a_node3"><a xlink:href="../../d5/d7f/SimChainDev_2Fun4Sim_8C.html#a05d19d59f1955a51d54ae22957bbcf86" target="_top" xlink:title="Fun4Sim">
<polygon fill="none" stroke="black" points="181,-190.5 181,-209.5 237,-209.5 237,-190.5 181,-190.5"/>
<text text-anchor="middle" x="209" y="-197.5" font-family="FreeSans" font-size="10.00">Fun4Sim</text>
</a>
</g>
</g>
<!-- Node1&#45;&gt;Node3 -->
<g id="edge2" class="edge"><title>Node1&#45;&gt;Node3</title>
<path fill="none" stroke="midnightblue" d="M89.1369,-138.939C108.923,-150.93 137.832,-167.871 164,-181 170.545,-184.284 177.789,-187.555 184.479,-190.434"/>
<polygon fill="midnightblue" stroke="midnightblue" points="90.8287,-135.871 80.4695,-133.649 87.182,-141.846 90.8287,-135.871"/>
</g>
<!-- Node4 -->
<g id="node4" class="node"><title>Node4</title>
<g id="a_node4"><a xlink:href="../../d0/d81/Fun4Sim__pileup_8C.html#a40cad4c0a6a6feeaac7beb8451e154e8" target="_top" xlink:title="Fun4Sim_pileup">
<polygon fill="none" stroke="black" points="166,-152.5 166,-171.5 252,-171.5 252,-152.5 166,-152.5"/>
<text text-anchor="middle" x="209" y="-159.5" font-family="FreeSans" font-size="10.00">Fun4Sim_pileup</text>
</a>
</g>
</g>
<!-- Node1&#45;&gt;Node4 -->
<g id="edge3" class="edge"><title>Node1&#45;&gt;Node4</title>
<path fill="none" stroke="midnightblue" d="M110.813,-136.174C130.587,-141.429 153.384,-147.487 171.927,-152.414"/>
<polygon fill="midnightblue" stroke="midnightblue" points="111.648,-132.775 101.085,-133.589 109.851,-139.54 111.648,-132.775"/>
</g>
<!-- Node5 -->
<g id="node5" class="node"><title>Node5</title>
<g id="a_node5"><a xlink:href="../../d3/da6/Fun4Sim__TrkQA_8C.html#a20f55f3330ca74980c4c35261d0761f8" target="_top" xlink:title="Fun4Sim_TrkQA">
<polygon fill="none" stroke="black" points="164.5,-114.5 164.5,-133.5 253.5,-133.5 253.5,-114.5 164.5,-114.5"/>
<text text-anchor="middle" x="209" y="-121.5" font-family="FreeSans" font-size="10.00">Fun4Sim_TrkQA</text>
</a>
</g>
</g>
<!-- Node1&#45;&gt;Node5 -->
<g id="edge4" class="edge"><title>Node1&#45;&gt;Node5</title>
<path fill="none" stroke="midnightblue" d="M137.866,-124C146.867,-124 155.839,-124 164.212,-124"/>
<polygon fill="midnightblue" stroke="midnightblue" points="137.722,-120.5 127.722,-124 137.722,-127.5 137.722,-120.5"/>
</g>
<!-- Node6 -->
<g id="node6" class="node"><title>Node6</title>
<g id="a_node6"><a xlink:href="../../db/dea/RecoE1039Data_8C.html#a619388c470b52b98a611cb6f18ba24c1" target="_top" xlink:title="RecoE1039Data">
<polygon fill="none" stroke="black" points="166,-76.5 166,-95.5 252,-95.5 252,-76.5 166,-76.5"/>
<text text-anchor="middle" x="209" y="-83.5" font-family="FreeSans" font-size="10.00">RecoE1039Data</text>
</a>
</g>
</g>
<!-- Node1&#45;&gt;Node6 -->
<g id="edge5" class="edge"><title>Node1&#45;&gt;Node6</title>
<path fill="none" stroke="midnightblue" d="M110.813,-111.826C130.587,-106.571 153.384,-100.513 171.927,-95.5859"/>
<polygon fill="midnightblue" stroke="midnightblue" points="109.851,-108.46 101.085,-114.411 111.648,-115.225 109.851,-108.46"/>
</g>
<!-- Node7 -->
<g id="node7" class="node"><title>Node7</title>
<g id="a_node7"><a xlink:href="../../d0/d9c/RecoE1039Sim_8C.html#a7505ed22de28394b320e370de5caa6c3" target="_top" xlink:title="RecoE1039Sim">
<polygon fill="none" stroke="black" points="167.5,-38.5 167.5,-57.5 250.5,-57.5 250.5,-38.5 167.5,-38.5"/>
<text text-anchor="middle" x="209" y="-45.5" font-family="FreeSans" font-size="10.00">RecoE1039Sim</text>
</a>
</g>
</g>
<!-- Node1&#45;&gt;Node7 -->
<g id="edge6" class="edge"><title>Node1&#45;&gt;Node7</title>
<path fill="none" stroke="midnightblue" d="M89.1369,-109.061C108.923,-97.0701 137.832,-80.1291 164,-67 170.545,-63.7165 177.789,-60.4452 184.479,-57.5658"/>
<polygon fill="midnightblue" stroke="midnightblue" points="87.182,-106.154 80.4695,-114.351 90.8287,-112.129 87.182,-106.154"/>
</g>
<!-- Node8 -->
<g id="node8" class="node"><title>Node8</title>
<g id="a_node8"><a xlink:href="../../df/d0c/RecoE906Data_8C.html#ad032525ca693000ba382d14d82bf9f2b" target="_top" xlink:title="RecoE906Data">
<polygon fill="none" stroke="black" points="168.5,-0.5 168.5,-19.5 249.5,-19.5 249.5,-0.5 168.5,-0.5"/>
<text text-anchor="middle" x="209" y="-7.5" font-family="FreeSans" font-size="10.00">RecoE906Data</text>
</a>
</g>
</g>
<!-- Node1&#45;&gt;Node8 -->
<g id="edge7" class="edge"><title>Node1&#45;&gt;Node8</title>
<path fill="none" stroke="midnightblue" d="M79.4282,-106.809C97.4831,-86.151 130.165,-51.4692 164,-29 169.407,-25.4096 175.603,-22.2433 181.607,-19.5759"/>
<polygon fill="midnightblue" stroke="midnightblue" points="76.6982,-104.616 72.8337,-114.481 82.0066,-109.179 76.6982,-104.616"/>
</g>
</g>
</svg>
