<?xml version="1.0" encoding="UTF-8" standalone="no"?>
<!DOCTYPE svg PUBLIC "-//W3C//DTD SVG 1.1//EN"
 "http://www.w3.org/Graphics/SVG/1.1/DTD/svg11.dtd">
<!-- Generated by graphviz version 2.30.1 (20200930.0103)
 -->
<!-- Title: SQReco::process_event Pages: 1 -->
<svg width="852pt" height="1084pt"
 viewBox="0.00 0.00 852.00 1084.00" xmlns="http://www.w3.org/2000/svg" xmlns:xlink="http://www.w3.org/1999/xlink">
<g id="graph0" class="graph" transform="scale(1 1) rotate(0) translate(4 1080)">
<title>SQReco::process_event</title>
<!-- Node1 -->
<g id="node1" class="node"><title>Node1</title>
<polygon fill="#bfbfbf" stroke="black" points="0.5,-771.5 0.5,-790.5 119.5,-790.5 119.5,-771.5 0.5,-771.5"/>
<text text-anchor="middle" x="60" y="-778.5" font-family="FreeSans" font-size="10.00">SQReco::process_event</text>
</g>
<!-- Node2 -->
<g id="node2" class="node"><title>Node2</title>
<g id="a_node2"><a xlink:href="../../d3/d46/classKalmanFastTracking.html#a5b5e33499e87762f2f4b3617c035eb73" target="_top" xlink:title="Final output. ">
<polygon fill="none" stroke="black" points="170,-1035 170,-1065 276,-1065 276,-1035 170,-1035"/>
<text text-anchor="start" x="178" y="-1053" font-family="FreeSans" font-size="10.00">KalmanFastTracking</text>
<text text-anchor="middle" x="223" y="-1042" font-family="FreeSans" font-size="10.00">::getFinalTracklets</text>
</a>
</g>
</g>
<!-- Node1&#45;&gt;Node2 -->
<g id="edge1" class="edge"><title>Node1&#45;&gt;Node2</title>
<path fill="none" stroke="midnightblue" d="M62.005,-790.922C66.2112,-827.354 85.6043,-955.249 156,-1025 157.627,-1026.61 159.367,-1028.12 161.197,-1029.53"/>
<polygon fill="midnightblue" stroke="midnightblue" points="159.433,-1032.56 169.71,-1035.14 163.282,-1026.72 159.433,-1032.56"/>
</g>
<!-- Node3 -->
<g id="node3" class="node"><title>Node3</title>
<g id="a_node3"><a xlink:href="../../d3/d46/classKalmanFastTracking.html#a45752f6ef79a4e7449eff0c78d4e8c6f" target="_top" xlink:title="KalmanFastTracking\l::getTrackletList">
<polygon fill="none" stroke="black" points="170,-986 170,-1016 276,-1016 276,-986 170,-986"/>
<text text-anchor="start" x="178" y="-1004" font-family="FreeSans" font-size="10.00">KalmanFastTracking</text>
<text text-anchor="middle" x="223" y="-993" font-family="FreeSans" font-size="10.00">::getTrackletList</text>
</a>
</g>
</g>
<!-- Node1&#45;&gt;Node3 -->
<g id="edge2" class="edge"><title>Node1&#45;&gt;Node3</title>
<path fill="none" stroke="midnightblue" d="M63.0256,-790.637C70.0834,-821.91 96.4758,-921.674 156,-976 157.728,-977.577 159.565,-979.058 161.486,-980.448"/>
<polygon fill="midnightblue" stroke="midnightblue" points="160.025,-983.661 170.362,-985.981 163.727,-977.721 160.025,-983.661"/>
</g>
<!-- Node4 -->
<g id="node4" class="node"><title>Node4</title>
<g id="a_node4"><a xlink:href="../../d5/d83/classSRawEvent.html#af07729980c2ffa12b0d6b47d48cc91bc" target="_top" xlink:title="PHObject virtual overloads. ">
<polygon fill="none" stroke="black" points="172.5,-947.5 172.5,-966.5 273.5,-966.5 273.5,-947.5 172.5,-947.5"/>
<text text-anchor="middle" x="223" y="-954.5" font-family="FreeSans" font-size="10.00">SRawEvent::identify</text>
</a>
</g>
</g>
<!-- Node1&#45;&gt;Node4 -->
<g id="edge3" class="edge"><title>Node1&#45;&gt;Node4</title>
<path fill="none" stroke="midnightblue" d="M64.1324,-790.74C73.4416,-818.122 103.604,-896.418 156,-937 158.967,-939.298 162.197,-941.333 165.58,-943.135"/>
<polygon fill="midnightblue" stroke="midnightblue" points="164.275,-946.387 174.823,-947.382 167.197,-940.026 164.275,-946.387"/>
</g>
<!-- Node6 -->
<g id="node6" class="node"><title>Node6</title>
<g id="a_node6"><a xlink:href="../../df/df2/classSQReco.html#a15fc6a2a728034bc592cff3e0811d714" target="_top" xlink:title="SQReco::is_eval_dst\l_enabled">
<polygon fill="none" stroke="black" points="170.5,-898 170.5,-928 275.5,-928 275.5,-898 170.5,-898"/>
<text text-anchor="start" x="178.5" y="-916" font-family="FreeSans" font-size="10.00">SQReco::is_eval_dst</text>
<text text-anchor="middle" x="223" y="-905" font-family="FreeSans" font-size="10.00">_enabled</text>
</a>
</g>
</g>
<!-- Node1&#45;&gt;Node6 -->
<g id="edge5" class="edge"><title>Node1&#45;&gt;Node6</title>
<path fill="none" stroke="midnightblue" d="M67.1829,-790.69C80.8188,-811.345 115.5,-860.089 156,-888 158.724,-889.877 161.608,-891.637 164.587,-893.282"/>
<polygon fill="midnightblue" stroke="midnightblue" points="163.24,-896.522 173.747,-897.881 166.381,-890.266 163.24,-896.522"/>
</g>
<!-- Node7 -->
<g id="node7" class="node"><title>Node7</title>
<g id="a_node7"><a xlink:href="../../df/df2/classSQReco.html#a33a09ece97da972b0501c86e55c54c6b" target="_top" xlink:title="SQReco::is_eval_enabled">
<polygon fill="none" stroke="black" points="160,-859.5 160,-878.5 286,-878.5 286,-859.5 160,-859.5"/>
<text text-anchor="middle" x="223" y="-866.5" font-family="FreeSans" font-size="10.00">SQReco::is_eval_enabled</text>
</a>
</g>
</g>
<!-- Node1&#45;&gt;Node7 -->
<g id="edge6" class="edge"><title>Node1&#45;&gt;Node7</title>
<path fill="none" stroke="midnightblue" d="M71.9238,-790.672C88.8396,-805.199 122.886,-832.687 156,-849 161.367,-851.644 167.153,-854.018 172.991,-856.126"/>
<polygon fill="midnightblue" stroke="midnightblue" points="172.204,-859.554 182.798,-859.424 174.435,-852.919 172.204,-859.554"/>
</g>
<!-- Node8 -->
<g id="node8" class="node"><title>Node8</title>
<g id="a_node8"><a xlink:href="../../d3/d46/classKalmanFastTracking.html#a1a257ebca4e6139b8d762da69ece51fe" target="_top" xlink:title="KalmanFastTracking\l::printTimers">
<polygon fill="none" stroke="black" points="170,-810 170,-840 276,-840 276,-810 170,-810"/>
<text text-anchor="start" x="178" y="-828" font-family="FreeSans" font-size="10.00">KalmanFastTracking</text>
<text text-anchor="middle" x="223" y="-817" font-family="FreeSans" font-size="10.00">::printTimers</text>
</a>
</g>
</g>
<!-- Node1&#45;&gt;Node8 -->
<g id="edge7" class="edge"><title>Node1&#45;&gt;Node8</title>
<path fill="none" stroke="midnightblue" d="M95.9346,-790.547C114.621,-795.654 138.192,-802.096 159.882,-808.024"/>
<polygon fill="midnightblue" stroke="midnightblue" points="159.122,-811.444 169.691,-810.704 160.968,-804.692 159.122,-811.444"/>
</g>
<!-- Node9 -->
<g id="node9" class="node"><title>Node9</title>
<g id="a_node9"><a xlink:href="../../d5/dba/classTrackletVector.html#ae5cfaede448884011ecfffbc4887ae8c" target="_top" xlink:title="TrackletVector::push_back">
<polygon fill="none" stroke="black" points="157.5,-771.5 157.5,-790.5 288.5,-790.5 288.5,-771.5 157.5,-771.5"/>
<text text-anchor="middle" x="223" y="-778.5" font-family="FreeSans" font-size="10.00">TrackletVector::push_back</text>
</a>
</g>
</g>
<!-- Node1&#45;&gt;Node9 -->
<g id="edge8" class="edge"><title>Node1&#45;&gt;Node9</title>
<path fill="none" stroke="midnightblue" d="M119.58,-781C128.626,-781 138.071,-781 147.41,-781"/>
<polygon fill="midnightblue" stroke="midnightblue" points="147.478,-784.5 157.478,-781 147.478,-777.5 147.478,-784.5"/>
</g>
<!-- Node12 -->
<g id="node12" class="node"><title>Node12</title>
<g id="a_node12"><a xlink:href="../../d5/dda/classEventReducer.html#af72954cea31bb7b3b3f122c3067b632c" target="_top" xlink:title="EventReducer::reduceEvent">
<polygon fill="none" stroke="black" points="156,-733.5 156,-752.5 290,-752.5 290,-733.5 156,-733.5"/>
<text text-anchor="middle" x="223" y="-740.5" font-family="FreeSans" font-size="10.00">EventReducer::reduceEvent</text>
</a>
</g>
</g>
<!-- Node1&#45;&gt;Node12 -->
<g id="edge11" class="edge"><title>Node1&#45;&gt;Node12</title>
<path fill="none" stroke="midnightblue" d="M101.627,-771.411C122.968,-766.374 149.312,-760.156 171.908,-754.823"/>
<polygon fill="midnightblue" stroke="midnightblue" points="172.736,-758.224 181.665,-752.52 171.128,-751.411 172.736,-758.224"/>
</g>
<!-- Node33 -->
<g id="node33" class="node"><title>Node33</title>
<g id="a_node33"><a xlink:href="../../d6/db1/classSRecTrack.html#aee3ab88e74dec6985c2bedefd698f594" target="_top" xlink:title="SRecTrack::setKalmanStatus">
<polygon fill="none" stroke="black" points="700.5,-261.5 700.5,-280.5 843.5,-280.5 843.5,-261.5 700.5,-261.5"/>
<text text-anchor="middle" x="772" y="-268.5" font-family="FreeSans" font-size="10.00">SRecTrack::setKalmanStatus</text>
</a>
</g>
</g>
<!-- Node1&#45;&gt;Node33 -->
<g id="edge34" class="edge"><title>Node1&#45;&gt;Node33</title>
<path fill="none" stroke="midnightblue" d="M61.3119,-771.258C64.0718,-703.987 90.2592,-307.788 326,-196 473.053,-126.268 674.462,-219.086 745.187,-256.568"/>
<polygon fill="midnightblue" stroke="midnightblue" points="743.817,-259.805 754.28,-261.467 747.137,-253.643 743.817,-259.805"/>
</g>
<!-- Node34 -->
<g id="node34" class="node"><title>Node34</title>
<g id="a_node34"><a xlink:href="../../d3/d46/classKalmanFastTracking.html#ada493cf8d995c42b9e78a53b891ce72b" target="_top" xlink:title="KalmanFastTracking\l::setRawEvent">
<polygon fill="none" stroke="black" points="170,-414 170,-444 276,-444 276,-414 170,-414"/>
<text text-anchor="start" x="178" y="-432" font-family="FreeSans" font-size="10.00">KalmanFastTracking</text>
<text text-anchor="middle" x="223" y="-421" font-family="FreeSans" font-size="10.00">::setRawEvent</text>
</a>
</g>
</g>
<!-- Node1&#45;&gt;Node34 -->
<g id="edge35" class="edge"><title>Node1&#45;&gt;Node34</title>
<path fill="none" stroke="midnightblue" d="M65.4741,-771.218C86.8211,-724.546 178.611,-523.862 210.796,-453.495"/>
<polygon fill="midnightblue" stroke="midnightblue" points="214.12,-454.642 215.097,-444.092 207.755,-451.731 214.12,-454.642"/>
</g>
<!-- Node44 -->
<g id="node44" class="node"><title>Node44</title>
<g id="a_node44"><a xlink:href="../../d5/d2f/classSRecEvent.html#a79c7950118ac5e00c6a7e2e1ef4301ff" target="_top" xlink:title="directly setup everything by raw event ">
<polygon fill="none" stroke="black" points="160.5,-114.5 160.5,-133.5 285.5,-133.5 285.5,-114.5 160.5,-114.5"/>
<text text-anchor="middle" x="223" y="-121.5" font-family="FreeSans" font-size="10.00">SRecEvent::setRawEvent</text>
</a>
</g>
</g>
<!-- Node1&#45;&gt;Node44 -->
<g id="edge50" class="edge"><title>Node1&#45;&gt;Node44</title>
<path fill="none" stroke="midnightblue" d="M61.1364,-771.421C62.3389,-699.903 73.1635,-249.293 156,-148 159.071,-144.245 162.78,-141.078 166.857,-138.406"/>
<polygon fill="midnightblue" stroke="midnightblue" points="168.563,-141.462 175.652,-133.589 165.2,-135.323 168.563,-141.462"/>
</g>
<!-- Node49 -->
<g id="node49" class="node"><title>Node49</title>
<g id="a_node49"><a xlink:href="../../d5/d2f/classSRecEvent.html#a019729051374bee85e8778951606082a" target="_top" xlink:title="SRecEvent::setRecStatus">
<polygon fill="none" stroke="black" points="159.5,-76.5 159.5,-95.5 286.5,-95.5 286.5,-76.5 159.5,-76.5"/>
<text text-anchor="middle" x="223" y="-83.5" font-family="FreeSans" font-size="10.00">SRecEvent::setRecStatus</text>
</a>
</g>
</g>
<!-- Node1&#45;&gt;Node49 -->
<g id="edge55" class="edge"><title>Node1&#45;&gt;Node49</title>
<path fill="none" stroke="midnightblue" d="M60.97,-771.2C60.937,-696 64.3078,-210.592 156,-105 157.156,-103.669 158.398,-102.429 159.713,-101.273"/>
<polygon fill="midnightblue" stroke="midnightblue" points="161.743,-104.124 167.942,-95.5319 157.738,-98.3826 161.743,-104.124"/>
</g>
<!-- Node50 -->
<g id="node50" class="node"><title>Node50</title>
<g id="a_node50"><a xlink:href="../../d5/dec/classFun4AllBase.html#a8a5c77a92bdac6bc043476e132379a40" target="_top" xlink:title="Gets the verbosity of this module. ">
<polygon fill="none" stroke="black" points="165.5,-38.5 165.5,-57.5 280.5,-57.5 280.5,-38.5 165.5,-38.5"/>
<text text-anchor="middle" x="223" y="-45.5" font-family="FreeSans" font-size="10.00">Fun4AllBase::Verbosity</text>
</a>
</g>
</g>
<!-- Node1&#45;&gt;Node50 -->
<g id="edge56" class="edge"><title>Node1&#45;&gt;Node50</title>
<path fill="none" stroke="midnightblue" d="M60.8892,-771.153C60.2136,-693.433 59.4563,-179.007 156,-67 157.151,-65.665 158.389,-64.4208 159.7,-63.2614"/>
<polygon fill="midnightblue" stroke="midnightblue" points="161.732,-66.1113 167.913,-57.5063 157.715,-60.3786 161.732,-66.1113"/>
</g>
<!-- Node5 -->
<g id="node5" class="node"><title>Node5</title>
<g id="a_node5"><a xlink:href="../../d5/d83/classSRawEvent.html#a84632c33dd2e086fe07a3f2c8bc3acb5" target="_top" xlink:title="Print for debugging purposes. ">
<polygon fill="none" stroke="black" points="360.5,-1056.5 360.5,-1075.5 449.5,-1075.5 449.5,-1056.5 360.5,-1056.5"/>
<text text-anchor="middle" x="405" y="-1063.5" font-family="FreeSans" font-size="10.00">SRawEvent::print</text>
</a>
</g>
</g>
<!-- Node4&#45;&gt;Node5 -->
<g id="edge4" class="edge"><title>Node4&#45;&gt;Node5</title>
<path fill="none" stroke="midnightblue" d="M272.139,-966.544C278.579,-969.214 284.758,-972.63 290,-977 316.87,-999.404 298.521,-1025.35 326,-1047 333.079,-1052.58 341.559,-1056.55 350.279,-1059.37"/>
<polygon fill="midnightblue" stroke="midnightblue" points="349.596,-1062.81 360.166,-1062.09 351.454,-1056.07 349.596,-1062.81"/>
</g>
<!-- Node10 -->
<g id="node10" class="node"><title>Node10</title>
<g id="a_node10"><a xlink:href="../../d2/d26/classTracklet.html#a62a3fd6fb62c97247e1da8fbcb9f6eda" target="_top" xlink:title="Tracklet::Clone">
<polygon fill="none" stroke="black" points="364.5,-1018.5 364.5,-1037.5 445.5,-1037.5 445.5,-1018.5 364.5,-1018.5"/>
<text text-anchor="middle" x="405" y="-1025.5" font-family="FreeSans" font-size="10.00">Tracklet::Clone</text>
</a>
</g>
</g>
<!-- Node9&#45;&gt;Node10 -->
<g id="edge9" class="edge"><title>Node9&#45;&gt;Node10</title>
<path fill="none" stroke="midnightblue" d="M276.37,-790.627C281.494,-793.3 286.193,-796.694 290,-801 352.142,-871.287 261.938,-940.457 326,-1009 333.505,-1017.03 343.788,-1021.92 354.425,-1024.83"/>
<polygon fill="midnightblue" stroke="midnightblue" points="353.705,-1028.26 364.224,-1026.99 355.211,-1021.42 353.705,-1028.26"/>
</g>
<!-- Node11 -->
<g id="node11" class="node"><title>Node11</title>
<g id="a_node11"><a xlink:href="../../d2/d26/classTracklet.html#ab64903158530bc2b8d9fc82e7784689f" target="_top" xlink:title="Tracklet::Tracklet">
<polygon fill="none" stroke="black" points="546,-1018.5 546,-1037.5 638,-1037.5 638,-1018.5 546,-1018.5"/>
<text text-anchor="middle" x="592" y="-1025.5" font-family="FreeSans" font-size="10.00">Tracklet::Tracklet</text>
</a>
</g>
</g>
<!-- Node10&#45;&gt;Node11 -->
<g id="edge10" class="edge"><title>Node10&#45;&gt;Node11</title>
<path fill="none" stroke="midnightblue" d="M445.687,-1028C471.88,-1028 506.568,-1028 535.485,-1028"/>
<polygon fill="midnightblue" stroke="midnightblue" points="535.85,-1031.5 545.85,-1028 535.85,-1024.5 535.85,-1031.5"/>
</g>
<!-- Node13 -->
<g id="node13" class="node"><title>Node13</title>
<g id="a_node13"><a xlink:href="../../d5/dda/classEventReducer.html#a6aa4f5546837d8b2e47367b131332e7e" target="_top" xlink:title="EventReducer::deClusterize">
<polygon fill="none" stroke="black" points="338,-904.5 338,-923.5 472,-923.5 472,-904.5 338,-904.5"/>
<text text-anchor="middle" x="405" y="-911.5" font-family="FreeSans" font-size="10.00">EventReducer::deClusterize</text>
</a>
</g>
</g>
<!-- Node12&#45;&gt;Node13 -->
<g id="edge12" class="edge"><title>Node12&#45;&gt;Node13</title>
<path fill="none" stroke="midnightblue" d="M276.567,-752.527C281.526,-755.004 286.134,-758.11 290,-762 331.659,-803.915 284.724,-847.707 326,-890 329.739,-893.831 334.073,-897.054 338.745,-899.765"/>
<polygon fill="midnightblue" stroke="midnightblue" points="337.563,-903.084 348.079,-904.372 340.662,-896.807 337.563,-903.084"/>
</g>
<!-- Node15 -->
<g id="node15" class="node"><title>Node15</title>
<g id="a_node15"><a xlink:href="../../d1/da8/classPHFlag.html#afc9529a56d670d320212520c3c5c5110" target="_top" xlink:title="PHFlag::get_BoolFlag">
<polygon fill="none" stroke="black" points="350,-980.5 350,-999.5 460,-999.5 460,-980.5 350,-980.5"/>
<text text-anchor="middle" x="405" y="-987.5" font-family="FreeSans" font-size="10.00">PHFlag::get_BoolFlag</text>
</a>
</g>
</g>
<!-- Node12&#45;&gt;Node15 -->
<g id="edge14" class="edge"><title>Node12&#45;&gt;Node15</title>
<path fill="none" stroke="midnightblue" d="M277.934,-752.641C282.445,-755.109 286.579,-758.181 290,-762 352.895,-832.204 261.667,-902.112 326,-971 330.083,-975.372 334.99,-978.812 340.329,-981.51"/>
<polygon fill="midnightblue" stroke="midnightblue" points="339.076,-984.78 349.654,-985.383 341.761,-978.315 339.076,-984.78"/>
</g>
<!-- Node16 -->
<g id="node16" class="node"><title>Node16</title>
<g id="a_node16"><a xlink:href="../../d0/da0/classGeomSvc.html#a11846ccd95c54f825b0c5b8dc327923f" target="_top" xlink:title="GeomSvc::getDriftDistance">
<polygon fill="none" stroke="black" points="338.5,-942.5 338.5,-961.5 471.5,-961.5 471.5,-942.5 338.5,-942.5"/>
<text text-anchor="middle" x="405" y="-949.5" font-family="FreeSans" font-size="10.00">GeomSvc::getDriftDistance</text>
</a>
</g>
</g>
<!-- Node12&#45;&gt;Node16 -->
<g id="edge15" class="edge"><title>Node12&#45;&gt;Node16</title>
<path fill="none" stroke="midnightblue" d="M277.472,-752.604C282.134,-755.075 286.428,-758.158 290,-762 342.883,-818.88 271.952,-877.225 326,-933 327.267,-934.307 328.608,-935.531 330.011,-936.676"/>
<polygon fill="midnightblue" stroke="midnightblue" points="328.394,-939.802 338.664,-942.406 332.259,-933.966 328.394,-939.802"/>
</g>
<!-- Node17 -->
<g id="node17" class="node"><title>Node17</title>
<g id="a_node17"><a xlink:href="../../d0/da0/classGeomSvc.html#a5a50feb4de0351f6d3d739dbc66d6247" target="_top" xlink:title="Convert the detectorID and elementID to the actual hit position. ">
<polygon fill="none" stroke="black" points="524,-942.5 524,-961.5 660,-961.5 660,-942.5 524,-942.5"/>
<text text-anchor="middle" x="592" y="-949.5" font-family="FreeSans" font-size="10.00">GeomSvc::getMeasurement</text>
</a>
</g>
</g>
<!-- Node12&#45;&gt;Node17 -->
<g id="edge16" class="edge"><title>Node12&#45;&gt;Node17</title>
<path fill="none" stroke="midnightblue" d="M275.573,-752.567C280.839,-755.03 285.791,-758.122 290,-762 323.208,-792.593 292.123,-827.149 326,-857 380.189,-904.748 421.474,-858.849 484,-895 504.14,-906.645 500.009,-921.1 520,-933 523.639,-935.166 527.527,-937.09 531.54,-938.798"/>
<polygon fill="midnightblue" stroke="midnightblue" points="530.476,-942.138 541.068,-942.404 532.954,-935.591 530.476,-942.138"/>
</g>
<!-- Node18 -->
<g id="node18" class="node"><title>Node18</title>
<g id="a_node18"><a xlink:href="../../d5/d83/classSRawEvent.html#adcd73c16459e35e34c2e746b5b8568c1" target="_top" xlink:title="SRawEvent::getNChamberHitsAll">
<polygon fill="none" stroke="black" points="326,-828.5 326,-847.5 484,-847.5 484,-828.5 326,-828.5"/>
<text text-anchor="middle" x="405" y="-835.5" font-family="FreeSans" font-size="10.00">SRawEvent::getNChamberHitsAll</text>
</a>
</g>
</g>
<!-- Node12&#45;&gt;Node18 -->
<g id="edge17" class="edge"><title>Node12&#45;&gt;Node18</title>
<path fill="none" stroke="midnightblue" d="M272.81,-752.601C278.937,-755.055 284.85,-758.135 290,-762 313.963,-779.987 301.67,-801.512 326,-819 328.716,-820.952 331.609,-822.706 334.62,-824.28"/>
<polygon fill="midnightblue" stroke="midnightblue" points="333.402,-827.57 343.957,-828.486 336.277,-821.187 333.402,-827.57"/>
</g>
<!-- Node19 -->
<g id="node19" class="node"><title>Node19</title>
<g id="a_node19"><a xlink:href="../../d0/da0/classGeomSvc.html#ac22b1c50a84423eb7aa7792595c2fca1" target="_top" xlink:title="GeomSvc::getPlaneType">
<polygon fill="none" stroke="black" points="530.5,-593.5 530.5,-612.5 653.5,-612.5 653.5,-593.5 530.5,-593.5"/>
<text text-anchor="middle" x="592" y="-600.5" font-family="FreeSans" font-size="10.00">GeomSvc::getPlaneType</text>
</a>
</g>
</g>
<!-- Node12&#45;&gt;Node19 -->
<g id="edge18" class="edge"><title>Node12&#45;&gt;Node19</title>
<path fill="none" stroke="midnightblue" d="M290.026,-751.674C356.868,-758.961 454.465,-765.027 484,-743 528.976,-709.457 479.78,-661.121 520,-622 521.475,-620.565 523.046,-619.236 524.695,-618.005"/>
<polygon fill="midnightblue" stroke="midnightblue" points="526.793,-620.824 533.505,-612.627 523.146,-614.849 526.793,-620.824"/>
</g>
<!-- Node20 -->
<g id="node20" class="node"><title>Node20</title>
<g id="a_node20"><a xlink:href="../../d5/dda/classEventReducer.html#af69506f70efff619964ac0aa0a7b2c66" target="_top" xlink:title="EventReducer::hodoscopeMask">
<polygon fill="none" stroke="black" points="329.5,-714.5 329.5,-733.5 480.5,-733.5 480.5,-714.5 329.5,-714.5"/>
<text text-anchor="middle" x="405" y="-721.5" font-family="FreeSans" font-size="10.00">EventReducer::hodoscopeMask</text>
</a>
</g>
</g>
<!-- Node12&#45;&gt;Node20 -->
<g id="edge19" class="edge"><title>Node12&#45;&gt;Node20</title>
<path fill="none" stroke="midnightblue" d="M290.003,-736.033C299.535,-735.027 309.454,-733.98 319.289,-732.942"/>
<polygon fill="midnightblue" stroke="midnightblue" points="319.91,-736.396 329.488,-731.865 319.176,-729.434 319.91,-736.396"/>
</g>
<!-- Node21 -->
<g id="node21" class="node"><title>Node21</title>
<g id="a_node21"><a xlink:href="../../d5/d83/classSRawEvent.html#aa5f45fc48942fadce059c3a7f29d577c" target="_top" xlink:title="SRawEvent::isFPGATriggered">
<polygon fill="none" stroke="black" points="332.5,-550.5 332.5,-569.5 477.5,-569.5 477.5,-550.5 332.5,-550.5"/>
<text text-anchor="middle" x="405" y="-557.5" font-family="FreeSans" font-size="10.00">SRawEvent::isFPGATriggered</text>
</a>
</g>
</g>
<!-- Node12&#45;&gt;Node21 -->
<g id="edge20" class="edge"><title>Node12&#45;&gt;Node21</title>
<path fill="none" stroke="midnightblue" d="M227.035,-733.425C236.561,-704.997 268.695,-620.49 326,-579 328.653,-577.079 331.476,-575.351 334.416,-573.796"/>
<polygon fill="midnightblue" stroke="midnightblue" points="335.89,-576.971 343.532,-569.632 332.981,-570.604 335.89,-576.971"/>
</g>
<!-- Node23 -->
<g id="node23" class="node"><title>Node23</title>
<g id="a_node23"><a xlink:href="../../d5/d83/classSRawEvent.html#a08b2b0404bdf1ea48284bc80020c8e51" target="_top" xlink:title="Reset the number hits on each plane. ">
<polygon fill="none" stroke="black" points="354,-676.5 354,-695.5 456,-695.5 456,-676.5 354,-676.5"/>
<text text-anchor="middle" x="405" y="-683.5" font-family="FreeSans" font-size="10.00">SRawEvent::reIndex</text>
</a>
</g>
</g>
<!-- Node12&#45;&gt;Node23 -->
<g id="edge22" class="edge"><title>Node12&#45;&gt;Node23</title>
<path fill="none" stroke="midnightblue" d="M247.229,-733.454C267.73,-725.244 298.54,-713.428 326,-705 334.045,-702.531 342.633,-700.17 351.061,-698.003"/>
<polygon fill="midnightblue" stroke="midnightblue" points="351.99,-701.379 360.84,-695.554 350.289,-694.588 351.99,-701.379"/>
</g>
<!-- Node24 -->
<g id="node24" class="node"><title>Node24</title>
<g id="a_node24"><a xlink:href="../../d5/dda/classEventReducer.html#a3fe6db13e06a16f8145307b110c15225" target="_top" xlink:title="EventReducer::sagittaReducer">
<polygon fill="none" stroke="black" points="332,-638.5 332,-657.5 478,-657.5 478,-638.5 332,-638.5"/>
<text text-anchor="middle" x="405" y="-645.5" font-family="FreeSans" font-size="10.00">EventReducer::sagittaReducer</text>
</a>
</g>
</g>
<!-- Node12&#45;&gt;Node24 -->
<g id="edge23" class="edge"><title>Node12&#45;&gt;Node24</title>
<path fill="none" stroke="midnightblue" d="M234.091,-733.243C251.43,-717.027 288.631,-684.576 326,-667 331.252,-664.53 336.859,-662.361 342.567,-660.46"/>
<polygon fill="midnightblue" stroke="midnightblue" points="343.682,-663.779 352.222,-657.508 341.636,-657.084 343.682,-663.779"/>
</g>
<!-- Node26 -->
<g id="node26" class="node"><title>Node26</title>
<g id="a_node26"><a xlink:href="../../d6/deb/classTriggerAnalyzer.html#a95f1cd767179e609427ece340612d01e" target="_top" xlink:title="TriggerAnalyzer::trimEvent">
<polygon fill="none" stroke="red" points="341,-790.5 341,-809.5 469,-809.5 469,-790.5 341,-790.5"/>
<text text-anchor="middle" x="405" y="-797.5" font-family="FreeSans" font-size="10.00">TriggerAnalyzer::trimEvent</text>
</a>
</g>
</g>
<!-- Node12&#45;&gt;Node26 -->
<g id="edge26" class="edge"><title>Node12&#45;&gt;Node26</title>
<path fill="none" stroke="midnightblue" d="M259.463,-752.57C269.401,-755.425 280.171,-758.682 290,-762 306.265,-767.491 309.785,-770.361 326,-776 337.385,-779.96 349.818,-783.938 361.344,-787.486"/>
<polygon fill="midnightblue" stroke="midnightblue" points="360.605,-790.919 371.191,-790.481 362.643,-784.222 360.605,-790.919"/>
</g>
<!-- Node14 -->
<g id="node14" class="node"><title>Node14</title>
<g id="a_node14"><a xlink:href="../../d5/dda/classEventReducer.html#a9c486840a3471f51f208897a1c3c4b99" target="_top" xlink:title="EventReducer::processCluster">
<polygon fill="none" stroke="black" points="520,-980.5 520,-999.5 664,-999.5 664,-980.5 520,-980.5"/>
<text text-anchor="middle" x="592" y="-987.5" font-family="FreeSans" font-size="10.00">EventReducer::processCluster</text>
</a>
</g>
</g>
<!-- Node13&#45;&gt;Node14 -->
<g id="edge13" class="edge"><title>Node13&#45;&gt;Node14</title>
<path fill="none" stroke="midnightblue" d="M462.483,-923.632C469.987,-926.083 477.369,-929.153 484,-933 504.123,-944.674 500.009,-959.1 520,-971 523.639,-973.166 527.527,-975.09 531.54,-976.798"/>
<polygon fill="midnightblue" stroke="midnightblue" points="530.476,-980.138 541.068,-980.404 532.954,-973.591 530.476,-980.138"/>
</g>
<!-- Node22 -->
<g id="node22" class="node"><title>Node22</title>
<g id="a_node22"><a xlink:href="../../d5/d83/classSRawEvent.html#af76e9de8f920d84b8f368603c7b1743b" target="_top" xlink:title="SRawEvent::isTriggeredBy">
<polygon fill="none" stroke="black" points="527.5,-550.5 527.5,-569.5 656.5,-569.5 656.5,-550.5 527.5,-550.5"/>
<text text-anchor="middle" x="592" y="-557.5" font-family="FreeSans" font-size="10.00">SRawEvent::isTriggeredBy</text>
</a>
</g>
</g>
<!-- Node21&#45;&gt;Node22 -->
<g id="edge21" class="edge"><title>Node21&#45;&gt;Node22</title>
<path fill="none" stroke="midnightblue" d="M477.526,-560C490.443,-560 503.936,-560 516.924,-560"/>
<polygon fill="midnightblue" stroke="midnightblue" points="517.211,-563.5 527.211,-560 517.211,-556.5 517.211,-563.5"/>
</g>
<!-- Node25 -->
<g id="node25" class="node"><title>Node25</title>
<g id="a_node25"><a xlink:href="../../d0/da0/classGeomSvc.html#a58a3d25847e956be5173e1c0241d8cc3" target="_top" xlink:title="GeomSvc::getPlanePosition">
<polygon fill="none" stroke="black" points="523.5,-631.5 523.5,-650.5 660.5,-650.5 660.5,-631.5 523.5,-631.5"/>
<text text-anchor="middle" x="592" y="-638.5" font-family="FreeSans" font-size="10.00">GeomSvc::getPlanePosition</text>
</a>
</g>
</g>
<!-- Node24&#45;&gt;Node25 -->
<g id="edge24" class="edge"><title>Node24&#45;&gt;Node25</title>
<path fill="none" stroke="midnightblue" d="M478.056,-645.274C489.591,-644.837 501.572,-644.384 513.233,-643.943"/>
<polygon fill="midnightblue" stroke="midnightblue" points="513.518,-647.434 523.378,-643.559 513.253,-640.439 513.518,-647.434"/>
</g>
<!-- Node24&#45;&gt;Node19 -->
<g id="edge25" class="edge"><title>Node24&#45;&gt;Node19</title>
<path fill="none" stroke="midnightblue" d="M445.234,-638.457C473.44,-631.596 511.671,-622.296 541.903,-614.943"/>
<polygon fill="midnightblue" stroke="midnightblue" points="542.933,-618.294 551.823,-612.53 541.279,-611.492 542.933,-618.294"/>
</g>
<!-- Node27 -->
<g id="node27" class="node"><title>Node27</title>
<g id="a_node27"><a xlink:href="../../d5/d83/classSRawEvent.html#a35713143af2898c9b3347d9a2090ddcd" target="_top" xlink:title="SRawEvent::setTriggerEmu">
<polygon fill="none" stroke="black" points="525.5,-904.5 525.5,-923.5 658.5,-923.5 658.5,-904.5 525.5,-904.5"/>
<text text-anchor="middle" x="592" y="-911.5" font-family="FreeSans" font-size="10.00">SRawEvent::setTriggerEmu</text>
</a>
</g>
</g>
<!-- Node26&#45;&gt;Node27 -->
<g id="edge27" class="edge"><title>Node26&#45;&gt;Node27</title>
<path fill="none" stroke="midnightblue" d="M468.098,-809.54C473.822,-812.023 479.246,-815.126 484,-819 512.976,-842.608 491.292,-871.067 520,-895 522.015,-896.68 524.165,-898.213 526.414,-899.611"/>
<polygon fill="midnightblue" stroke="midnightblue" points="525.028,-902.836 535.512,-904.365 528.27,-896.632 525.028,-902.836"/>
</g>
<!-- Node28 -->
<g id="node28" class="node"><title>Node28</title>
<g id="a_node28"><a xlink:href="../../d6/deb/classTriggerAnalyzer.html#ad9cfc03722fb7065da7c30e9ff6a62e1" target="_top" xlink:title="TriggerAnalyzer::acceptEvent">
<polygon fill="none" stroke="red" points="521.5,-866.5 521.5,-885.5 662.5,-885.5 662.5,-866.5 521.5,-866.5"/>
<text text-anchor="middle" x="592" y="-873.5" font-family="FreeSans" font-size="10.00">TriggerAnalyzer::acceptEvent</text>
</a>
</g>
</g>
<!-- Node26&#45;&gt;Node28 -->
<g id="edge28" class="edge"><title>Node26&#45;&gt;Node28</title>
<path fill="none" stroke="midnightblue" d="M462.026,-809.581C469.678,-812.042 477.223,-815.128 484,-819 503.922,-830.381 500.284,-844.266 520,-856 524.426,-858.634 529.214,-860.934 534.14,-862.94"/>
<polygon fill="midnightblue" stroke="midnightblue" points="533.133,-866.298 543.727,-866.446 535.537,-859.724 533.133,-866.298"/>
</g>
<!-- Node29 -->
<g id="node29" class="node"><title>Node29</title>
<g id="a_node29"><a xlink:href="../../d6/deb/classTriggerAnalyzer.html#ab689aa54f443aad962ba28b071bfebb1" target="_top" xlink:title="TriggerAnalyzer::getNRoads\lPosTop">
<polygon fill="none" stroke="black" points="524.5,-817 524.5,-847 659.5,-847 659.5,-817 524.5,-817"/>
<text text-anchor="start" x="532.5" y="-835" font-family="FreeSans" font-size="10.00">TriggerAnalyzer::getNRoads</text>
<text text-anchor="middle" x="592" y="-824" font-family="FreeSans" font-size="10.00">PosTop</text>
</a>
</g>
</g>
<!-- Node26&#45;&gt;Node29 -->
<g id="edge29" class="edge"><title>Node26&#45;&gt;Node29</title>
<path fill="none" stroke="midnightblue" d="M461.005,-809.514C477.81,-812.421 496.603,-815.672 514.563,-818.778"/>
<polygon fill="midnightblue" stroke="midnightblue" points="513.986,-822.231 524.436,-820.486 515.179,-815.333 513.986,-822.231"/>
</g>
<!-- Node30 -->
<g id="node30" class="node"><title>Node30</title>
<g id="a_node30"><a xlink:href="../../d6/deb/classTriggerAnalyzer.html#a5ee1effdec559c713e59a68baaa735b7" target="_top" xlink:title="TriggerAnalyzer::getNRoads\lPosBot">
<polygon fill="none" stroke="black" points="524.5,-768 524.5,-798 659.5,-798 659.5,-768 524.5,-768"/>
<text text-anchor="start" x="532.5" y="-786" font-family="FreeSans" font-size="10.00">TriggerAnalyzer::getNRoads</text>
<text text-anchor="middle" x="592" y="-775" font-family="FreeSans" font-size="10.00">PosBot</text>
</a>
</g>
</g>
<!-- Node26&#45;&gt;Node30 -->
<g id="edge30" class="edge"><title>Node26&#45;&gt;Node30</title>
<path fill="none" stroke="midnightblue" d="M469.149,-794.197C483.607,-792.869 499.133,-791.442 514.097,-790.067"/>
<polygon fill="midnightblue" stroke="midnightblue" points="514.71,-793.525 524.348,-789.125 514.069,-786.555 514.71,-793.525"/>
</g>
<!-- Node31 -->
<g id="node31" class="node"><title>Node31</title>
<g id="a_node31"><a xlink:href="../../d6/deb/classTriggerAnalyzer.html#a3862bedaf3afdb2fbd3a152b1b59033b" target="_top" xlink:title="TriggerAnalyzer::getNRoads\lNegTop">
<polygon fill="none" stroke="black" points="524.5,-719 524.5,-749 659.5,-749 659.5,-719 524.5,-719"/>
<text text-anchor="start" x="532.5" y="-737" font-family="FreeSans" font-size="10.00">TriggerAnalyzer::getNRoads</text>
<text text-anchor="middle" x="592" y="-726" font-family="FreeSans" font-size="10.00">NegTop</text>
</a>
</g>
</g>
<!-- Node26&#45;&gt;Node31 -->
<g id="edge31" class="edge"><title>Node26&#45;&gt;Node31</title>
<path fill="none" stroke="midnightblue" d="M441.374,-790.46C454.884,-786.469 470.322,-781.48 484,-776 500.605,-769.347 503.488,-764.881 520,-758 524.421,-756.158 529.039,-754.349 533.706,-752.602"/>
<polygon fill="midnightblue" stroke="midnightblue" points="535.103,-755.819 543.306,-749.113 532.711,-749.24 535.103,-755.819"/>
</g>
<!-- Node32 -->
<g id="node32" class="node"><title>Node32</title>
<g id="a_node32"><a xlink:href="../../d6/deb/classTriggerAnalyzer.html#a41633691ed466ce8f5eec57d3fbba875" target="_top" xlink:title="TriggerAnalyzer::getNRoads\lNegBot">
<polygon fill="none" stroke="black" points="524.5,-670 524.5,-700 659.5,-700 659.5,-670 524.5,-670"/>
<text text-anchor="start" x="532.5" y="-688" font-family="FreeSans" font-size="10.00">TriggerAnalyzer::getNRoads</text>
<text text-anchor="middle" x="592" y="-677" font-family="FreeSans" font-size="10.00">NegBot</text>
</a>
</g>
</g>
<!-- Node26&#45;&gt;Node32 -->
<g id="edge32" class="edge"><title>Node26&#45;&gt;Node32</title>
<path fill="none" stroke="midnightblue" d="M457.561,-790.377C467.036,-786.947 476.339,-782.299 484,-776 510.112,-754.531 494.186,-730.825 520,-709 521.528,-707.708 523.128,-706.485 524.787,-705.327"/>
<polygon fill="midnightblue" stroke="midnightblue" points="526.752,-708.229 533.5,-700.062 523.131,-702.238 526.752,-708.229"/>
</g>
<!-- Node26&#45;&gt;Node17 -->
<g id="edge33" class="edge"><title>Node26&#45;&gt;Node17</title>
<path fill="none" stroke="midnightblue" d="M469.046,-809.07C474.515,-811.652 479.623,-814.906 484,-819 522.807,-855.292 481.605,-896.273 520,-933 521.648,-934.577 523.412,-936.026 525.268,-937.357"/>
<polygon fill="midnightblue" stroke="midnightblue" points="523.53,-940.395 533.918,-942.475 527.094,-934.371 523.53,-940.395"/>
</g>
<!-- Node35 -->
<g id="node35" class="node"><title>Node35</title>
<g id="a_node35"><a xlink:href="../../d3/d46/classKalmanFastTracking.html#a0190d9515c79f0b717d538205912920a" target="_top" xlink:title="KalmanFastTracking\l::acceptEvent">
<polygon fill="none" stroke="red" points="352,-463 352,-493 458,-493 458,-463 352,-463"/>
<text text-anchor="start" x="360" y="-481" font-family="FreeSans" font-size="10.00">KalmanFastTracking</text>
<text text-anchor="middle" x="405" y="-470" font-family="FreeSans" font-size="10.00">::acceptEvent</text>
</a>
</g>
</g>
<!-- Node34&#45;&gt;Node35 -->
<g id="edge36" class="edge"><title>Node34&#45;&gt;Node35</title>
<path fill="none" stroke="midnightblue" d="M276.063,-443.173C296.683,-448.786 320.553,-455.284 342.052,-461.136"/>
<polygon fill="midnightblue" stroke="midnightblue" points="341.174,-464.525 351.742,-463.774 343.012,-457.77 341.174,-464.525"/>
</g>
<!-- Node36 -->
<g id="node36" class="node"><title>Node36</title>
<g id="a_node36"><a xlink:href="../../d3/d46/classKalmanFastTracking.html#a53e313d5cd40faa789fbe1dbe716f192" target="_top" xlink:title="KalmanFastTracking\l::buildBackPartialTracks">
<polygon fill="none" stroke="red" points="344.5,-589 344.5,-619 465.5,-619 465.5,-589 344.5,-589"/>
<text text-anchor="start" x="352.5" y="-607" font-family="FreeSans" font-size="10.00">KalmanFastTracking</text>
<text text-anchor="middle" x="405" y="-596" font-family="FreeSans" font-size="10.00">::buildBackPartialTracks</text>
</a>
</g>
</g>
<!-- Node34&#45;&gt;Node36 -->
<g id="edge37" class="edge"><title>Node34&#45;&gt;Node36</title>
<path fill="none" stroke="midnightblue" d="M230.236,-444.229C243.377,-474.446 276.813,-542.233 326,-579 328.965,-581.216 332.133,-583.24 335.433,-585.088"/>
<polygon fill="midnightblue" stroke="midnightblue" points="333.916,-588.243 344.426,-589.58 337.044,-581.98 333.916,-588.243"/>
</g>
<!-- Node37 -->
<g id="node37" class="node"><title>Node37</title>
<g id="a_node37"><a xlink:href="../../d3/d46/classKalmanFastTracking.html#a53c93bc5e58b3560d1cfb42e84bbe95c" target="_top" xlink:title="KalmanFastTracking\l::buildGlobalTracks">
<polygon fill="none" stroke="red" points="352,-365 352,-395 458,-395 458,-365 352,-365"/>
<text text-anchor="start" x="360" y="-383" font-family="FreeSans" font-size="10.00">KalmanFastTracking</text>
<text text-anchor="middle" x="405" y="-372" font-family="FreeSans" font-size="10.00">::buildGlobalTracks</text>
</a>
</g>
</g>
<!-- Node34&#45;&gt;Node37 -->
<g id="edge39" class="edge"><title>Node34&#45;&gt;Node37</title>
<path fill="none" stroke="midnightblue" d="M276.063,-414.827C296.683,-409.214 320.553,-402.716 342.052,-396.864"/>
<polygon fill="midnightblue" stroke="midnightblue" points="343.012,-400.23 351.742,-394.226 341.174,-393.475 343.012,-400.23"/>
</g>
<!-- Node40 -->
<g id="node40" class="node"><title>Node40</title>
<g id="a_node40"><a xlink:href="../../d3/d46/classKalmanFastTracking.html#aa85f2e38eff0fe4a53d365feedb112d1" target="_top" xlink:title="KalmanFastTracking\l::buildPropSegments">
<polygon fill="none" stroke="red" points="352,-267 352,-297 458,-297 458,-267 352,-267"/>
<text text-anchor="start" x="360" y="-285" font-family="FreeSans" font-size="10.00">KalmanFastTracking</text>
<text text-anchor="middle" x="405" y="-274" font-family="FreeSans" font-size="10.00">::buildPropSegments</text>
</a>
</g>
</g>
<!-- Node34&#45;&gt;Node40 -->
<g id="edge43" class="edge"><title>Node34&#45;&gt;Node40</title>
<path fill="none" stroke="midnightblue" d="M232.585,-413.703C247.945,-387.715 282.619,-334.95 326,-306 330.983,-302.675 336.447,-299.793 342.099,-297.299"/>
<polygon fill="midnightblue" stroke="midnightblue" points="343.74,-300.413 351.734,-293.459 341.148,-293.911 343.74,-300.413"/>
</g>
<!-- Node38 -->
<g id="node38" class="node"><title>Node38</title>
<g id="a_node38"><a xlink:href="../../d3/d46/classKalmanFastTracking.html#a4aab1bd454f44de3a3ed2569efeca4b7" target="_top" xlink:title="Tracklet finding stuff. ">
<polygon fill="none" stroke="red" points="532,-254 532,-284 652,-284 652,-254 532,-254"/>
<text text-anchor="start" x="540" y="-272" font-family="FreeSans" font-size="10.00">KalmanFastTracking</text>
<text text-anchor="middle" x="592" y="-261" font-family="FreeSans" font-size="10.00">::buildTrackletsInStation</text>
</a>
</g>
</g>
<!-- Node34&#45;&gt;Node38 -->
<g id="edge44" class="edge"><title>Node34&#45;&gt;Node38</title>
<path fill="none" stroke="midnightblue" d="M225.964,-413.757C232.086,-373.345 254.885,-263.518 326,-219 399.188,-173.184 504.46,-219.331 557.603,-248.717"/>
<polygon fill="midnightblue" stroke="midnightblue" points="556.166,-251.925 566.593,-253.805 559.614,-245.833 556.166,-251.925"/>
</g>
<!-- Node41 -->
<g id="node41" class="node"><title>Node41</title>
<g id="a_node41"><a xlink:href="../../d5/d83/classSRawEvent.html#abd6f13b04ed7155aa744111e9324aa41" target="_top" xlink:title="SRawEvent::getAllHits">
<polygon fill="none" stroke="black" points="349,-228.5 349,-247.5 461,-247.5 461,-228.5 349,-228.5"/>
<text text-anchor="middle" x="405" y="-235.5" font-family="FreeSans" font-size="10.00">SRawEvent::getAllHits</text>
</a>
</g>
</g>
<!-- Node34&#45;&gt;Node41 -->
<g id="edge45" class="edge"><title>Node34&#45;&gt;Node41</title>
<path fill="none" stroke="midnightblue" d="M228.496,-413.84C239.328,-380.054 270.193,-298.311 326,-257 330.096,-253.968 334.613,-251.415 339.347,-249.265"/>
<polygon fill="midnightblue" stroke="midnightblue" points="340.635,-252.519 348.665,-245.609 338.078,-246.003 340.635,-252.519"/>
</g>
<!-- Node42 -->
<g id="node42" class="node"><title>Node42</title>
<g id="a_node42"><a xlink:href="../../d5/d83/classSRawEvent.html#acf9e10bcf22a77325de8cfc82dc772e0" target="_top" xlink:title="Gets. ">
<polygon fill="none" stroke="black" points="339,-414 339,-444 471,-444 471,-414 339,-414"/>
<text text-anchor="start" x="347" y="-432" font-family="FreeSans" font-size="10.00">SRawEvent::getHitsIndexIn</text>
<text text-anchor="middle" x="405" y="-421" font-family="FreeSans" font-size="10.00">Detector</text>
</a>
</g>
</g>
<!-- Node34&#45;&gt;Node42 -->
<g id="edge46" class="edge"><title>Node34&#45;&gt;Node42</title>
<path fill="none" stroke="midnightblue" d="M276.063,-429C292.468,-429 310.93,-429 328.619,-429"/>
<polygon fill="midnightblue" stroke="midnightblue" points="328.922,-432.5 338.922,-429 328.922,-425.5 328.922,-432.5"/>
</g>
<!-- Node43 -->
<g id="node43" class="node"><title>Node43</title>
<g id="a_node43"><a xlink:href="../../d5/d83/classSRawEvent.html#a31f6d565298d411c79bc0ddf21d7fd4c" target="_top" xlink:title="SRawEvent::getHitsIndexIn\lDetectors">
<polygon fill="none" stroke="black" points="339,-316 339,-346 471,-346 471,-316 339,-316"/>
<text text-anchor="start" x="347" y="-334" font-family="FreeSans" font-size="10.00">SRawEvent::getHitsIndexIn</text>
<text text-anchor="middle" x="405" y="-323" font-family="FreeSans" font-size="10.00">Detectors</text>
</a>
</g>
</g>
<!-- Node34&#45;&gt;Node43 -->
<g id="edge47" class="edge"><title>Node34&#45;&gt;Node43</title>
<path fill="none" stroke="midnightblue" d="M241.26,-413.709C260.666,-397.205 293.703,-371.125 326,-355 329.779,-353.113 333.736,-351.34 337.777,-349.681"/>
<polygon fill="midnightblue" stroke="midnightblue" points="339.241,-352.868 347.319,-346.012 336.729,-346.334 339.241,-352.868"/>
</g>
<!-- Node34&#45;&gt;Node21 -->
<g id="edge48" class="edge"><title>Node34&#45;&gt;Node21</title>
<path fill="none" stroke="midnightblue" d="M234.408,-444.113C251.098,-467.233 286.057,-511.295 326,-536 333.188,-540.446 341.262,-544.123 349.419,-547.148"/>
<polygon fill="midnightblue" stroke="midnightblue" points="348.389,-550.495 358.983,-550.407 350.646,-543.869 348.389,-550.495"/>
</g>
<!-- Node39 -->
<g id="node39" class="node"><title>Node39</title>
<g id="a_node39"><a xlink:href="../../d3/d46/classKalmanFastTracking.html#ac0b6441647d023db04c618a35fd2a8cd" target="_top" xlink:title="Track fitting stuff. ">
<polygon fill="none" stroke="red" points="538.5,-365 538.5,-395 645.5,-395 645.5,-365 538.5,-365"/>
<text text-anchor="start" x="546.5" y="-383" font-family="FreeSans" font-size="10.00">KalmanFastTracking</text>
<text text-anchor="middle" x="592" y="-372" font-family="FreeSans" font-size="10.00">::processOneTracklet</text>
</a>
</g>
</g>
<!-- Node34&#45;&gt;Node39 -->
<g id="edge49" class="edge"><title>Node34&#45;&gt;Node39</title>
<path fill="none" stroke="midnightblue" d="M238.541,-444.035C256.945,-461.871 290.544,-490.62 326,-502 392.862,-523.461 420.037,-530.98 484,-502 528.227,-481.962 561.401,-433.609 578.359,-404.148"/>
<polygon fill="midnightblue" stroke="midnightblue" points="581.475,-405.745 583.288,-395.307 575.361,-402.336 581.475,-405.745"/>
</g>
<!-- Node36&#45;&gt;Node19 -->
<g id="edge38" class="edge"><title>Node36&#45;&gt;Node19</title>
<path fill="none" stroke="midnightblue" d="M465.553,-603.678C482.941,-603.584 502.115,-603.48 520.129,-603.383"/>
<polygon fill="midnightblue" stroke="midnightblue" points="520.307,-606.882 530.288,-603.328 520.269,-599.882 520.307,-606.882"/>
</g>
<!-- Node37&#45;&gt;Node38 -->
<g id="edge40" class="edge"><title>Node37&#45;&gt;Node38</title>
<path fill="none" stroke="midnightblue" d="M458.288,-366.183C467.103,-363.03 475.985,-359.312 484,-355 516.196,-337.678 548.228,-310.235 568.731,-291.021"/>
<polygon fill="midnightblue" stroke="midnightblue" points="571.173,-293.529 576.001,-284.098 566.345,-288.46 571.173,-293.529"/>
</g>
<!-- Node37&#45;&gt;Node39 -->
<g id="edge41" class="edge"><title>Node37&#45;&gt;Node39</title>
<path fill="none" stroke="midnightblue" d="M458.025,-380C479.804,-380 505.313,-380 528.131,-380"/>
<polygon fill="midnightblue" stroke="midnightblue" points="528.403,-383.5 538.403,-380 528.403,-376.5 528.403,-383.5"/>
</g>
<!-- Node39&#45;&gt;Node33 -->
<g id="edge42" class="edge"><title>Node39&#45;&gt;Node33</title>
<path fill="none" stroke="midnightblue" d="M617.75,-364.844C651.804,-343.991 712.729,-306.683 746.598,-285.943"/>
<polygon fill="midnightblue" stroke="midnightblue" points="748.689,-288.767 755.389,-280.56 745.033,-282.797 748.689,-288.767"/>
</g>
<!-- Node45 -->
<g id="node45" class="node"><title>Node45</title>
<g id="a_node45"><a xlink:href="../../d5/d2f/classSRecEvent.html#acde10eea5441bdbc7c1bb6625627fd9f" target="_top" xlink:title="Clear everything. ">
<polygon fill="none" stroke="black" points="360,-76.5 360,-95.5 450,-95.5 450,-76.5 360,-76.5"/>
<text text-anchor="middle" x="405" y="-83.5" font-family="FreeSans" font-size="10.00">SRecEvent::clear</text>
</a>
</g>
</g>
<!-- Node44&#45;&gt;Node45 -->
<g id="edge51" class="edge"><title>Node44&#45;&gt;Node45</title>
<path fill="none" stroke="midnightblue" d="M269.422,-114.411C293.878,-109.248 324.211,-102.844 349.884,-97.4244"/>
<polygon fill="midnightblue" stroke="midnightblue" points="350.776,-100.813 359.837,-95.3232 349.33,-93.9644 350.776,-100.813"/>
</g>
<!-- Node46 -->
<g id="node46" class="node"><title>Node46</title>
<g id="a_node46"><a xlink:href="../../d5/d2f/classSRecEvent.html#ac5d74e36a889c49679ab6549c09c8bf7" target="_top" xlink:title="Set/Get event info. ">
<polygon fill="none" stroke="red" points="344,-38.5 344,-57.5 466,-57.5 466,-38.5 344,-38.5"/>
<text text-anchor="middle" x="405" y="-45.5" font-family="FreeSans" font-size="10.00">SRecEvent::setEventInfo</text>
</a>
</g>
</g>
<!-- Node44&#45;&gt;Node46 -->
<g id="edge52" class="edge"><title>Node44&#45;&gt;Node46</title>
<path fill="none" stroke="midnightblue" d="M269.379,-114.421C276.555,-111.936 283.684,-108.841 290,-105 309.878,-92.9123 305.877,-78.6741 326,-67 329.73,-64.8363 333.697,-62.918 337.79,-61.2175"/>
<polygon fill="midnightblue" stroke="midnightblue" points="339.345,-64.3748 347.517,-57.6318 336.923,-57.8069 339.345,-64.3748"/>
</g>
<!-- Node47 -->
<g id="node47" class="node"><title>Node47</title>
<g id="a_node47"><a xlink:href="../../d5/d83/classSRawEvent.html#a565e2bbd3b852d7e203c35130b066719" target="_top" xlink:title="SRawEvent::getNHitsAll">
<polygon fill="none" stroke="black" points="345.5,-0.5 345.5,-19.5 464.5,-19.5 464.5,-0.5 345.5,-0.5"/>
<text text-anchor="middle" x="405" y="-7.5" font-family="FreeSans" font-size="10.00">SRawEvent::getNHitsAll</text>
</a>
</g>
</g>
<!-- Node44&#45;&gt;Node47 -->
<g id="edge53" class="edge"><title>Node44&#45;&gt;Node47</title>
<path fill="none" stroke="midnightblue" d="M274.605,-114.391C280.171,-111.938 285.457,-108.861 290,-105 318.481,-80.7975 297.024,-52.6083 326,-29 329.132,-26.4483 332.554,-24.2309 336.162,-22.3047"/>
<polygon fill="midnightblue" stroke="midnightblue" points="337.787,-25.4106 345.448,-18.0922 334.896,-19.0357 337.787,-25.4106"/>
</g>
<!-- Node48 -->
<g id="node48" class="node"><title>Node48</title>
<g id="a_node48"><a xlink:href="../../d5/d83/classSRawEvent.html#a659ce19883485b43f7e4a100e8ca6ccf" target="_top" xlink:title="SRawEvent::getHit">
<polygon fill="none" stroke="black" points="357,-114.5 357,-133.5 453,-133.5 453,-114.5 357,-114.5"/>
<text text-anchor="middle" x="405" y="-121.5" font-family="FreeSans" font-size="10.00">SRawEvent::getHit</text>
</a>
</g>
</g>
<!-- Node44&#45;&gt;Node48 -->
<g id="edge54" class="edge"><title>Node44&#45;&gt;Node48</title>
<path fill="none" stroke="midnightblue" d="M285.694,-124C305.449,-124 327.23,-124 346.66,-124"/>
<polygon fill="midnightblue" stroke="midnightblue" points="346.884,-127.5 356.884,-124 346.884,-120.5 346.884,-127.5"/>
</g>
</g>
</svg>
