<?xml version="1.0" encoding="UTF-8" standalone="no"?>
<!DOCTYPE svg PUBLIC "-//W3C//DTD SVG 1.1//EN"
 "http://www.w3.org/Graphics/SVG/1.1/DTD/svg11.dtd">
<!-- Generated by graphviz version 2.36.0 (20140111.2315)
 -->
<!-- Title: PHG4Shower::end_g4hit_id Pages: 1 -->
<svg width="456pt" height="87pt"
 viewBox="0.00 0.00 456.00 87.00" xmlns="http://www.w3.org/2000/svg" xmlns:xlink="http://www.w3.org/1999/xlink">
<g id="graph0" class="graph" transform="scale(1 1) rotate(0) translate(4 83)">
<title>PHG4Shower::end_g4hit_id</title>
<!-- Node1 -->
<g id="node1" class="node"><title>Node1</title>
<polygon fill="#bfbfbf" stroke="black" points="0,-29.5 0,-48.5 136,-48.5 136,-29.5 0,-29.5"/>
<text text-anchor="middle" x="68" y="-36.5" font-family="FreeSans" font-size="10.00">PHG4Shower::end_g4hit_id</text>
</g>
<!-- Node2 -->
<g id="node2" class="node"><title>Node2</title>
<g id="a_node2"><a xlink:href="../../dd/d9d/classPHG4TruthEventAction.html#ae3f2e6fb721a5bf18566688160ccc273" target="_top" xlink:title="PHG4TruthEventAction\l::ProcessShowers">
<polygon fill="none" stroke="black" points="172.5,-49 172.5,-79 291.5,-79 291.5,-49 172.5,-49"/>
<text text-anchor="start" x="180.5" y="-67" font-family="FreeSans" font-size="10.00">PHG4TruthEventAction</text>
<text text-anchor="middle" x="232" y="-56" font-family="FreeSans" font-size="10.00">::ProcessShowers</text>
</a>
</g>
</g>
<!-- Node1&#45;&gt;Node2 -->
<g id="edge1" class="edge"><title>Node1&#45;&gt;Node2</title>
<path fill="none" stroke="midnightblue" d="M140.76,-50.0741C151.339,-51.7066 162.131,-53.372 172.401,-54.9569"/>
<polygon fill="midnightblue" stroke="midnightblue" points="141.124,-46.5889 130.707,-48.5227 140.057,-53.507 141.124,-46.5889"/>
</g>
<!-- Node4 -->
<g id="node4" class="node"><title>Node4</title>
<g id="a_node4"><a xlink:href="../../dd/d9d/classPHG4TruthEventAction.html#a44d3d244e86dfc0f12e1c418ecf018c0" target="_top" xlink:title="PHG4TruthEventAction\l::PruneShowers">
<polygon fill="none" stroke="black" points="172.5,-0 172.5,-30 291.5,-30 291.5,-0 172.5,-0"/>
<text text-anchor="start" x="180.5" y="-18" font-family="FreeSans" font-size="10.00">PHG4TruthEventAction</text>
<text text-anchor="middle" x="232" y="-7" font-family="FreeSans" font-size="10.00">::PruneShowers</text>
</a>
</g>
</g>
<!-- Node1&#45;&gt;Node4 -->
<g id="edge3" class="edge"><title>Node1&#45;&gt;Node4</title>
<path fill="none" stroke="midnightblue" d="M143.479,-27.9661C153.128,-26.5367 162.9,-25.0888 172.245,-23.7045"/>
<polygon fill="midnightblue" stroke="midnightblue" points="142.871,-24.5178 133.492,-29.4456 143.897,-31.4422 142.871,-24.5178"/>
</g>
<!-- Node3 -->
<g id="node3" class="node"><title>Node3</title>
<g id="a_node3"><a xlink:href="../../dd/d9d/classPHG4TruthEventAction.html#aadf84e52ab9bcf0b8fb892c626b53c27" target="_top" xlink:title="PHG4TruthEventAction\l::EndOfEventAction">
<polygon fill="none" stroke="black" points="328.5,-24 328.5,-54 447.5,-54 447.5,-24 328.5,-24"/>
<text text-anchor="start" x="336.5" y="-42" font-family="FreeSans" font-size="10.00">PHG4TruthEventAction</text>
<text text-anchor="middle" x="388" y="-31" font-family="FreeSans" font-size="10.00">::EndOfEventAction</text>
</a>
</g>
</g>
<!-- Node2&#45;&gt;Node3 -->
<g id="edge2" class="edge"><title>Node2&#45;&gt;Node3</title>
<path fill="none" stroke="midnightblue" d="M301.607,-52.8625C310.497,-51.4193 319.538,-49.9517 328.248,-48.5377"/>
<polygon fill="midnightblue" stroke="midnightblue" points="300.97,-49.42 291.66,-54.4773 302.092,-56.3295 300.97,-49.42"/>
</g>
<!-- Node4&#45;&gt;Node3 -->
<g id="edge4" class="edge"><title>Node4&#45;&gt;Node3</title>
<path fill="none" stroke="midnightblue" d="M301.607,-25.692C310.497,-27.0774 319.538,-28.4864 328.248,-29.8438"/>
<polygon fill="midnightblue" stroke="midnightblue" points="302.08,-22.2235 291.66,-24.1418 301.002,-29.14 302.08,-22.2235"/>
</g>
</g>
</svg>
