<?xml version="1.0" encoding="UTF-8" standalone="no"?>
<!DOCTYPE svg PUBLIC "-//W3C//DTD SVG 1.1//EN"
 "http://www.w3.org/Graphics/SVG/1.1/DTD/svg11.dtd">
<!-- Generated by graphviz version 2.36.0 (20140111.2315)
 -->
<!-- Title: ReadEICFiles Pages: 1 -->
<svg width="348pt" height="450pt"
 viewBox="0.00 0.00 348.00 450.00" xmlns="http://www.w3.org/2000/svg" xmlns:xlink="http://www.w3.org/1999/xlink">
<g id="graph0" class="graph" transform="scale(1 1) rotate(0) translate(4 446)">
<title>ReadEICFiles</title>
<!-- Node1 -->
<g id="node1" class="node"><title>Node1</title>
<polygon fill="#bfbfbf" stroke="black" points="48,-0.5 48,-19.5 124,-19.5 124,-0.5 48,-0.5"/>
<text text-anchor="middle" x="86" y="-7.5" font-family="FreeSans" font-size="10.00">ReadEICFiles</text>
</g>
<!-- Node2 -->
<g id="node2" class="node"><title>Node2</title>
<g id="a_node2"><a xlink:href="../../d0/d32/classSubsysReco.html" target="_top" xlink:title="SubsysReco">
<polygon fill="none" stroke="black" points="50.5,-68.5 50.5,-87.5 121.5,-87.5 121.5,-68.5 50.5,-68.5"/>
<text text-anchor="middle" x="86" y="-75.5" font-family="FreeSans" font-size="10.00">SubsysReco</text>
</a>
</g>
</g>
<!-- Node2&#45;&gt;Node1 -->
<g id="edge1" class="edge"><title>Node2&#45;&gt;Node1</title>
<path fill="none" stroke="midnightblue" d="M86,-58.0413C86,-45.4724 86,-29.5631 86,-19.8411"/>
<polygon fill="midnightblue" stroke="midnightblue" points="82.5001,-58.3716 86,-68.3717 89.5001,-58.3717 82.5001,-58.3716"/>
</g>
<!-- Node3 -->
<g id="node3" class="node"><title>Node3</title>
<g id="a_node3"><a xlink:href="../../d5/dec/classFun4AllBase.html" target="_top" xlink:title="Fun4AllBase">
<polygon fill="none" stroke="black" points="42,-146.5 42,-165.5 114,-165.5 114,-146.5 42,-146.5"/>
<text text-anchor="middle" x="78" y="-153.5" font-family="FreeSans" font-size="10.00">Fun4AllBase</text>
</a>
</g>
</g>
<!-- Node3&#45;&gt;Node2 -->
<g id="edge2" class="edge"><title>Node3&#45;&gt;Node2</title>
<path fill="none" stroke="midnightblue" d="M79.9764,-136.224C81.6108,-120.697 83.857,-99.3582 85.093,-87.6165"/>
<polygon fill="midnightblue" stroke="midnightblue" points="76.4839,-135.97 78.9177,-146.282 83.4454,-136.703 76.4839,-135.97"/>
</g>
<!-- Node4 -->
<g id="node4" class="node"><title>Node4</title>
<g id="a_node4"><a xlink:title="STL class. ">
<polygon fill="none" stroke="#bfbfbf" points="16.5,-220.5 16.5,-239.5 75.5,-239.5 75.5,-220.5 16.5,-220.5"/>
<text text-anchor="middle" x="46" y="-227.5" font-family="FreeSans" font-size="10.00">std::string</text>
</a>
</g>
</g>
<!-- Node4&#45;&gt;Node1 -->
<g id="edge12" class="edge"><title>Node4&#45;&gt;Node1</title>
<path fill="none" stroke="#9a32cd" stroke-dasharray="5,2" d="M36.99,-210.996C26.1291,-186.928 10.4554,-143.004 20,-106 29.4799,-69.2466 60.936,-34.9813 76.752,-19.563"/>
<polygon fill="#9a32cd" stroke="#9a32cd" points="33.9502,-212.754 41.3981,-220.29 40.2749,-209.754 33.9502,-212.754"/>
<text text-anchor="middle" x="49" y="-120" font-family="FreeSans" font-size="10.00"> _node_name</text>
<text text-anchor="middle" x="49" y="-109" font-family="FreeSans" font-size="10.00">filename</text>
</g>
<!-- Node4&#45;&gt;Node3 -->
<g id="edge3" class="edge"><title>Node4&#45;&gt;Node3</title>
<path fill="none" stroke="#9a32cd" stroke-dasharray="5,2" d="M53.9962,-211.008C60.4542,-196.478 69.2552,-176.676 74.2085,-165.531"/>
<polygon fill="#9a32cd" stroke="#9a32cd" points="50.6596,-209.898 49.7965,-220.458 57.0563,-212.741 50.6596,-209.898"/>
<text text-anchor="middle" x="90" y="-187.5" font-family="FreeSans" font-size="10.00"> ThisName</text>
</g>
<!-- Node5 -->
<g id="node5" class="node"><title>Node5</title>
<g id="a_node5"><a xlink:title="STL class. ">
<polygon fill="none" stroke="#bfbfbf" points="-0.5,-295 -0.5,-325 92.5,-325 92.5,-295 -0.5,-295"/>
<text text-anchor="start" x="7.5" y="-313" font-family="FreeSans" font-size="10.00">std::basic_string&lt;</text>
<text text-anchor="middle" x="46" y="-302" font-family="FreeSans" font-size="10.00"> char &gt;</text>
</a>
</g>
</g>
<!-- Node5&#45;&gt;Node4 -->
<g id="edge4" class="edge"><title>Node5&#45;&gt;Node4</title>
<path fill="none" stroke="midnightblue" d="M46,-284.394C46,-269.208 46,-250.635 46,-239.876"/>
<polygon fill="midnightblue" stroke="midnightblue" points="42.5001,-284.694 46,-294.694 49.5001,-284.694 42.5001,-284.694"/>
</g>
<!-- Node6 -->
<g id="node6" class="node"><title>Node6</title>
<g id="a_node6"><a xlink:href="../../dd/d2a/classPHHepMCGenHelper.html" target="_top" xlink:title="PHHepMCGenHelper provides service of DST upload of HepMC subevent, vertex assignment and random gener...">
<polygon fill="none" stroke="black" points="140,-68.5 140,-87.5 250,-87.5 250,-68.5 140,-68.5"/>
<text text-anchor="middle" x="195" y="-75.5" font-family="FreeSans" font-size="10.00">PHHepMCGenHelper</text>
</a>
</g>
</g>
<!-- Node6&#45;&gt;Node1 -->
<g id="edge5" class="edge"><title>Node6&#45;&gt;Node1</title>
<path fill="none" stroke="#9a32cd" stroke-dasharray="5,2" d="M172.151,-63.1646C150.46,-50.0309 118.534,-30.6993 100.253,-19.6305"/>
<polygon fill="#9a32cd" stroke="#9a32cd" points="170.383,-66.186 180.75,-68.3717 174.009,-60.1981 170.383,-66.186"/>
<text text-anchor="middle" x="183" y="-41.5" font-family="FreeSans" font-size="10.00"> hepmc_helper</text>
</g>
<!-- Node7 -->
<g id="node7" class="node"><title>Node7</title>
<g id="a_node7"><a xlink:href="../../d5/d41/classPHHepMCGenEventMap.html" target="_top" xlink:title="PHHepMCGenEventMap is collection of HEPMC events input into this simulation map of embedding ID &#45;&gt; PH...">
<polygon fill="none" stroke="black" points="132.5,-146.5 132.5,-165.5 257.5,-165.5 257.5,-146.5 132.5,-146.5"/>
<text text-anchor="middle" x="195" y="-153.5" font-family="FreeSans" font-size="10.00">PHHepMCGenEventMap</text>
</a>
</g>
</g>
<!-- Node7&#45;&gt;Node6 -->
<g id="edge6" class="edge"><title>Node7&#45;&gt;Node6</title>
<path fill="none" stroke="#9a32cd" stroke-dasharray="5,2" d="M195,-136.224C195,-120.697 195,-99.3582 195,-87.6165"/>
<polygon fill="#9a32cd" stroke="#9a32cd" points="191.5,-136.282 195,-146.282 198.5,-136.282 191.5,-136.282"/>
<text text-anchor="middle" x="228.5" y="-114.5" font-family="FreeSans" font-size="10.00"> _geneventmap</text>
</g>
<!-- Node8 -->
<g id="node8" class="node"><title>Node8</title>
<g id="a_node8"><a xlink:href="../../d9/d24/classPHObject.html" target="_top" xlink:title="PHObject">
<polygon fill="none" stroke="black" points="151.5,-364.5 151.5,-383.5 210.5,-383.5 210.5,-364.5 151.5,-364.5"/>
<text text-anchor="middle" x="181" y="-371.5" font-family="FreeSans" font-size="10.00">PHObject</text>
</a>
</g>
</g>
<!-- Node8&#45;&gt;Node7 -->
<g id="edge7" class="edge"><title>Node8&#45;&gt;Node7</title>
<path fill="none" stroke="midnightblue" d="M181.352,-354.184C182.017,-324.395 183.789,-264.562 188,-214 189.423,-196.91 192.094,-177.054 193.693,-165.864"/>
<polygon fill="midnightblue" stroke="midnightblue" points="177.849,-354.297 181.143,-364.367 184.848,-354.441 177.849,-354.297"/>
</g>
<!-- Node11 -->
<g id="node11" class="node"><title>Node11</title>
<g id="a_node11"><a xlink:href="../../d7/d7b/classPHHepMCGenEvent.html" target="_top" xlink:title="PHHepMCGenEvent">
<polygon fill="none" stroke="black" points="206.5,-300.5 206.5,-319.5 313.5,-319.5 313.5,-300.5 206.5,-300.5"/>
<text text-anchor="middle" x="260" y="-307.5" font-family="FreeSans" font-size="10.00">PHHepMCGenEvent</text>
</a>
</g>
</g>
<!-- Node8&#45;&gt;Node11 -->
<g id="edge11" class="edge"><title>Node8&#45;&gt;Node11</title>
<path fill="none" stroke="midnightblue" d="M200.268,-357.878C215.611,-345.837 236.533,-329.417 249.109,-319.548"/>
<polygon fill="midnightblue" stroke="midnightblue" points="197.69,-355.452 191.985,-364.379 202.012,-360.959 197.69,-355.452"/>
</g>
<!-- Node9 -->
<g id="node9" class="node"><title>Node9</title>
<polygon fill="none" stroke="#bfbfbf" points="155.5,-422.5 155.5,-441.5 206.5,-441.5 206.5,-422.5 155.5,-422.5"/>
<text text-anchor="middle" x="181" y="-429.5" font-family="FreeSans" font-size="10.00">TObject</text>
</g>
<!-- Node9&#45;&gt;Node8 -->
<g id="edge8" class="edge"><title>Node9&#45;&gt;Node8</title>
<path fill="none" stroke="midnightblue" d="M181,-411.953C181,-402.287 181,-391.031 181,-383.505"/>
<polygon fill="midnightblue" stroke="midnightblue" points="177.5,-412.25 181,-422.25 184.5,-412.25 177.5,-412.25"/>
</g>
<!-- Node10 -->
<g id="node10" class="node"><title>Node10</title>
<polygon fill="none" stroke="#bfbfbf" points="197.5,-215 197.5,-245 340.5,-245 340.5,-215 197.5,-215"/>
<text text-anchor="start" x="205.5" y="-233" font-family="FreeSans" font-size="10.00">std::map&lt; int, PHHepMCGen</text>
<text text-anchor="middle" x="269" y="-222" font-family="FreeSans" font-size="10.00">Event * &gt;</text>
</g>
<!-- Node10&#45;&gt;Node7 -->
<g id="edge9" class="edge"><title>Node10&#45;&gt;Node7</title>
<path fill="none" stroke="#9a32cd" stroke-dasharray="5,2" d="M246.845,-207.444C232.496,-193.483 214.576,-176.047 204.002,-165.759"/>
<polygon fill="#9a32cd" stroke="#9a32cd" points="244.772,-210.31 254.38,-214.775 249.653,-205.293 244.772,-210.31"/>
<text text-anchor="middle" x="247.5" y="-187.5" font-family="FreeSans" font-size="10.00"> _map</text>
</g>
<!-- Node11&#45;&gt;Node10 -->
<g id="edge10" class="edge"><title>Node11&#45;&gt;Node10</title>
<path fill="none" stroke="#9a32cd" stroke-dasharray="5,2" d="M262.185,-290.062C263.78,-276.242 265.907,-257.802 267.358,-245.227"/>
<polygon fill="#9a32cd" stroke="#9a32cd" points="258.667,-290.019 260.998,-300.355 265.621,-290.822 258.667,-290.019"/>
<text text-anchor="middle" x="286.5" y="-267.5" font-family="FreeSans" font-size="10.00"> elements</text>
</g>
</g>
</svg>
