<?xml version="1.0" encoding="UTF-8" standalone="no"?>
<!DOCTYPE svg PUBLIC "-//W3C//DTD SVG 1.1//EN"
 "http://www.w3.org/Graphics/SVG/1.1/DTD/svg11.dtd">
<!-- Generated by graphviz version 2.36.0 (20140111.2315)
 -->
<!-- Title: PHHepMCGenEventMap::operator= Pages: 1 -->
<svg width="316pt" height="126pt"
 viewBox="0.00 0.00 316.00 126.00" xmlns="http://www.w3.org/2000/svg" xmlns:xlink="http://www.w3.org/1999/xlink">
<g id="graph0" class="graph" transform="scale(1 1) rotate(0) translate(4 122)">
<title>PHHepMCGenEventMap::operator=</title>
<!-- Node1 -->
<g id="node1" class="node"><title>Node1</title>
<polygon fill="#bfbfbf" stroke="black" points="0.5,-44 0.5,-74 125.5,-74 125.5,-44 0.5,-44"/>
<text text-anchor="start" x="8.5" y="-62" font-family="FreeSans" font-size="10.00">PHHepMCGenEventMap</text>
<text text-anchor="middle" x="63" y="-51" font-family="FreeSans" font-size="10.00">::operator=</text>
</g>
<!-- Node2 -->
<g id="node2" class="node"><title>Node2</title>
<g id="a_node2"><a xlink:href="../../d5/d41/classPHHepMCGenEventMap.html#a4d8fb4d75f0ceefd149e5caf412cb6c7" target="_top" xlink:title="iterator from lowest ID to highest, i.e. background to signal ">
<polygon fill="none" stroke="black" points="172.5,-88 172.5,-118 297.5,-118 297.5,-88 172.5,-88"/>
<text text-anchor="start" x="180.5" y="-106" font-family="FreeSans" font-size="10.00">PHHepMCGenEventMap</text>
<text text-anchor="middle" x="235" y="-95" font-family="FreeSans" font-size="10.00">::begin</text>
</a>
</g>
</g>
<!-- Node1&#45;&gt;Node2 -->
<g id="edge1" class="edge"><title>Node1&#45;&gt;Node2</title>
<path fill="none" stroke="midnightblue" d="M122.029,-74.0192C136.174,-77.6804 151.432,-81.6294 165.995,-85.3987"/>
<polygon fill="midnightblue" stroke="midnightblue" points="165.386,-88.8564 175.944,-87.9738 167.14,-82.0797 165.386,-88.8564"/>
</g>
<!-- Node3 -->
<g id="node3" class="node"><title>Node3</title>
<g id="a_node3"><a xlink:href="../../d5/d41/classPHHepMCGenEventMap.html#a208ae12476d3349858e3c56e6ee6fc26" target="_top" xlink:title="PHHepMCGenEventMap::end">
<polygon fill="none" stroke="black" points="162,-49.5 162,-68.5 308,-68.5 308,-49.5 162,-49.5"/>
<text text-anchor="middle" x="235" y="-56.5" font-family="FreeSans" font-size="10.00">PHHepMCGenEventMap::end</text>
</a>
</g>
</g>
<!-- Node1&#45;&gt;Node3 -->
<g id="edge2" class="edge"><title>Node1&#45;&gt;Node3</title>
<path fill="none" stroke="midnightblue" d="M125.855,-59C134.248,-59 142.967,-59 151.649,-59"/>
<polygon fill="midnightblue" stroke="midnightblue" points="151.802,-62.5001 161.802,-59 151.802,-55.5001 151.802,-62.5001"/>
</g>
<!-- Node4 -->
<g id="node4" class="node"><title>Node4</title>
<g id="a_node4"><a xlink:href="../../d5/d41/classPHHepMCGenEventMap.html#a5fea7d0e043e833d13416272c5cb7d9d" target="_top" xlink:title="Clear Event. ">
<polygon fill="none" stroke="black" points="172.5,-0 172.5,-30 297.5,-30 297.5,-0 172.5,-0"/>
<text text-anchor="start" x="180.5" y="-18" font-family="FreeSans" font-size="10.00">PHHepMCGenEventMap</text>
<text text-anchor="middle" x="235" y="-7" font-family="FreeSans" font-size="10.00">::Reset</text>
</a>
</g>
</g>
<!-- Node1&#45;&gt;Node4 -->
<g id="edge3" class="edge"><title>Node1&#45;&gt;Node4</title>
<path fill="none" stroke="midnightblue" d="M122.029,-43.9808C136.174,-40.3196 151.432,-36.3706 165.995,-32.6013"/>
<polygon fill="midnightblue" stroke="midnightblue" points="167.14,-35.9203 175.944,-30.0262 165.386,-29.1436 167.14,-35.9203"/>
</g>
</g>
</svg>
