<?xml version="1.0" encoding="UTF-8" standalone="no"?>
<!DOCTYPE svg PUBLIC "-//W3C//DTD SVG 1.1//EN"
 "http://www.w3.org/Graphics/SVG/1.1/DTD/svg11.dtd">
<!-- Generated by graphviz version 2.36.0 (20140111.2315)
 -->
<!-- Title: PHG4TrackUserInfoV1 Pages: 1 -->
<svg width="233pt" height="212pt"
 viewBox="0.00 0.00 233.00 212.00" xmlns="http://www.w3.org/2000/svg" xmlns:xlink="http://www.w3.org/1999/xlink">
<g id="graph0" class="graph" transform="scale(1 1) rotate(0) translate(4 208)">
<title>PHG4TrackUserInfoV1</title>
<!-- Node1 -->
<g id="node1" class="node"><title>Node1</title>
<polygon fill="#bfbfbf" stroke="black" points="44,-0.5 44,-19.5 162,-19.5 162,-0.5 44,-0.5"/>
<text text-anchor="middle" x="103" y="-7.5" font-family="FreeSans" font-size="10.00">PHG4TrackUserInfoV1</text>
</g>
<!-- Node2 -->
<g id="node2" class="node"><title>Node2</title>
<polygon fill="none" stroke="#bfbfbf" points="-0.5,-68.5 -0.5,-87.5 130.5,-87.5 130.5,-68.5 -0.5,-68.5"/>
<text text-anchor="middle" x="65" y="-75.5" font-family="FreeSans" font-size="10.00">G4VUserTrackInformation</text>
</g>
<!-- Node2&#45;&gt;Node1 -->
<g id="edge1" class="edge"><title>Node2&#45;&gt;Node1</title>
<path fill="none" stroke="midnightblue" d="M75.0395,-59.563C82.3985,-46.7815 92.0837,-29.9599 97.9097,-19.8411"/>
<polygon fill="midnightblue" stroke="midnightblue" points="71.9243,-57.959 69.9678,-68.3717 77.9907,-61.4518 71.9243,-57.959"/>
</g>
<!-- Node3 -->
<g id="node3" class="node"><title>Node3</title>
<g id="a_node3"><a xlink:href="../../db/d88/classPHG4Shower.html" target="_top" xlink:title="PHG4Shower">
<polygon fill="none" stroke="black" points="148.5,-68.5 148.5,-87.5 225.5,-87.5 225.5,-68.5 148.5,-68.5"/>
<text text-anchor="middle" x="187" y="-75.5" font-family="FreeSans" font-size="10.00">PHG4Shower</text>
</a>
</g>
</g>
<!-- Node3&#45;&gt;Node1 -->
<g id="edge2" class="edge"><title>Node3&#45;&gt;Node1</title>
<path fill="none" stroke="#9a32cd" stroke-dasharray="5,2" d="M168.031,-62.0961C151.365,-49.0012 127.694,-30.4028 113.984,-19.6305"/>
<polygon fill="#9a32cd" stroke="#9a32cd" points="165.993,-64.9455 176.018,-68.3717 170.318,-59.4413 165.993,-64.9455"/>
<text text-anchor="middle" x="169" y="-41.5" font-family="FreeSans" font-size="10.00"> shower</text>
</g>
<!-- Node4 -->
<g id="node4" class="node"><title>Node4</title>
<g id="a_node4"><a xlink:href="../../d9/d24/classPHObject.html" target="_top" xlink:title="PHObject">
<polygon fill="none" stroke="black" points="157.5,-126.5 157.5,-145.5 216.5,-145.5 216.5,-126.5 157.5,-126.5"/>
<text text-anchor="middle" x="187" y="-133.5" font-family="FreeSans" font-size="10.00">PHObject</text>
</a>
</g>
</g>
<!-- Node4&#45;&gt;Node3 -->
<g id="edge3" class="edge"><title>Node4&#45;&gt;Node3</title>
<path fill="none" stroke="midnightblue" d="M187,-115.953C187,-106.287 187,-95.0312 187,-87.5052"/>
<polygon fill="midnightblue" stroke="midnightblue" points="183.5,-116.25 187,-126.25 190.5,-116.25 183.5,-116.25"/>
</g>
<!-- Node5 -->
<g id="node5" class="node"><title>Node5</title>
<polygon fill="none" stroke="#bfbfbf" points="161.5,-184.5 161.5,-203.5 212.5,-203.5 212.5,-184.5 161.5,-184.5"/>
<text text-anchor="middle" x="187" y="-191.5" font-family="FreeSans" font-size="10.00">TObject</text>
</g>
<!-- Node5&#45;&gt;Node4 -->
<g id="edge4" class="edge"><title>Node5&#45;&gt;Node4</title>
<path fill="none" stroke="midnightblue" d="M187,-173.953C187,-164.287 187,-153.031 187,-145.505"/>
<polygon fill="midnightblue" stroke="midnightblue" points="183.5,-174.25 187,-184.25 190.5,-174.25 183.5,-174.25"/>
</g>
</g>
</svg>
