<?xml version="1.0" encoding="UTF-8" standalone="no"?>
<!DOCTYPE svg PUBLIC "-//W3C//DTD SVG 1.1//EN"
 "http://www.w3.org/Graphics/SVG/1.1/DTD/svg11.dtd">
<!-- Generated by graphviz version 2.40.1 (20161225.0304)
 -->
<!-- Title: PHG4PhenixDetector::Construct Pages: 1 -->
<svg width="428pt" height="135pt"
 viewBox="0.00 0.00 428.00 134.50" xmlns="http://www.w3.org/2000/svg" xmlns:xlink="http://www.w3.org/1999/xlink">
<g id="graph0" class="graph" transform="scale(1 1) rotate(0) translate(4 130.5)">
<title>PHG4PhenixDetector::Construct</title>
<!-- Node13 -->
<g id="node1" class="node">
<title>Node13</title>
<polygon fill="#bfbfbf" stroke="#000000" points="0,-44.5 0,-74.5 109,-74.5 109,-44.5 0,-44.5"/>
<text text-anchor="start" x="8" y="-62.5" font-family="FreeSans" font-size="10.00" fill="#000000">PHG4PhenixDetector</text>
<text text-anchor="middle" x="54.5" y="-51.5" font-family="FreeSans" font-size="10.00" fill="#000000">::Construct</text>
</g>
<!-- Node14 -->
<g id="node2" class="node">
<title>Node14</title>
<g id="a_node2"><a xlink:href="../../d8/d14/classrecoConsts.html#ae69a5c29a7199ba16d0e537158618802" target="_top" xlink:title="recoConsts::instance">
<polygon fill="none" stroke="#000000" points="153.5,-88 153.5,-107 258.5,-107 258.5,-88 153.5,-88"/>
<text text-anchor="middle" x="206" y="-95" font-family="FreeSans" font-size="10.00" fill="#000000">recoConsts::instance</text>
</a>
</g>
</g>
<!-- Node13&#45;&gt;Node14 -->
<g id="edge1" class="edge">
<title>Node13&#45;&gt;Node14</title>
<path fill="none" stroke="#191970" d="M109.195,-73.2189C125.1862,-77.2299 142.5372,-81.5819 158.0744,-85.4791"/>
<polygon fill="#191970" stroke="#191970" points="157.439,-88.928 167.9901,-87.9662 159.1421,-82.1384 157.439,-88.928"/>
</g>
<!-- Node17 -->
<g id="node5" class="node">
<title>Node17</title>
<g id="a_node5"><a xlink:href="../../d1/da8/classPHFlag.html#a716bb770db79859a16e6b7bc45e03bbd" target="_top" xlink:title="PHFlag::set_CharFlag">
<polygon fill="none" stroke="#000000" points="151,-50 151,-69 261,-69 261,-50 151,-50"/>
<text text-anchor="middle" x="206" y="-57" font-family="FreeSans" font-size="10.00" fill="#000000">PHFlag::set_CharFlag</text>
</a>
</g>
</g>
<!-- Node13&#45;&gt;Node17 -->
<g id="edge4" class="edge">
<title>Node13&#45;&gt;Node17</title>
<path fill="none" stroke="#191970" d="M109.195,-59.5C119.4717,-59.5 130.3101,-59.5 140.8677,-59.5"/>
<polygon fill="#191970" stroke="#191970" points="140.8765,-63.0001 150.8765,-59.5 140.8764,-56.0001 140.8765,-63.0001"/>
</g>
<!-- Node18 -->
<g id="node6" class="node">
<title>Node18</title>
<g id="a_node6"><a xlink:href="../../da/d3d/classPHG4RegionInformation.html#a6d36090161954b121e02cb737d2ba547" target="_top" xlink:title="PHG4RegionInformation\l::SetWorld">
<polygon fill="none" stroke="#000000" points="145,-.5 145,-30.5 267,-30.5 267,-.5 145,-.5"/>
<text text-anchor="start" x="153" y="-18.5" font-family="FreeSans" font-size="10.00" fill="#000000">PHG4RegionInformation</text>
<text text-anchor="middle" x="206" y="-7.5" font-family="FreeSans" font-size="10.00" fill="#000000">::SetWorld</text>
</a>
</g>
</g>
<!-- Node13&#45;&gt;Node18 -->
<g id="edge5" class="edge">
<title>Node13&#45;&gt;Node18</title>
<path fill="none" stroke="#191970" d="M106.214,-44.4808C118.5777,-40.89 131.8944,-37.0224 144.6461,-33.319"/>
<polygon fill="#191970" stroke="#191970" points="145.635,-36.6764 154.262,-30.5262 143.6827,-29.9542 145.635,-36.6764"/>
</g>
<!-- Node15 -->
<g id="node3" class="node">
<title>Node15</title>
<g id="a_node3"><a xlink:href="../../d8/d14/classrecoConsts.html#ae882d6adc62f783ec78114fe3dee3c24" target="_top" xlink:title="recoConsts::recoConsts">
<polygon fill="none" stroke="#000000" points="303,-107 303,-126 420,-126 420,-107 303,-107"/>
<text text-anchor="middle" x="361.5" y="-114" font-family="FreeSans" font-size="10.00" fill="#000000">recoConsts::recoConsts</text>
</a>
</g>
</g>
<!-- Node14&#45;&gt;Node15 -->
<g id="edge2" class="edge">
<title>Node14&#45;&gt;Node15</title>
<path fill="none" stroke="#191970" d="M258.6452,-103.9325C269.6168,-105.2731 281.3356,-106.705 292.7891,-108.1045"/>
<polygon fill="#191970" stroke="#191970" points="292.4099,-111.5841 302.7606,-109.3228 293.2589,-104.6357 292.4099,-111.5841"/>
</g>
<!-- Node16 -->
<g id="node4" class="node">
<title>Node16</title>
<g id="a_node4"><a xlink:href="../../d8/d14/classrecoConsts.html#a0ecdde23324ae75e97c089aad93bb3c8" target="_top" xlink:title="recoConsts::Print">
<polygon fill="none" stroke="#000000" points="317,-69 317,-88 406,-88 406,-69 317,-69"/>
<text text-anchor="middle" x="361.5" y="-76" font-family="FreeSans" font-size="10.00" fill="#000000">recoConsts::Print</text>
</a>
</g>
</g>
<!-- Node14&#45;&gt;Node16 -->
<g id="edge3" class="edge">
<title>Node14&#45;&gt;Node16</title>
<path fill="none" stroke="#191970" d="M258.6452,-91.0675C274.1847,-89.1687 291.223,-87.0869 306.8837,-85.1734"/>
<polygon fill="#191970" stroke="#191970" points="307.4448,-88.6309 316.9464,-83.9438 306.5957,-81.6826 307.4448,-88.6309"/>
</g>
</g>
</svg>
