<?xml version="1.0" encoding="UTF-8" standalone="no"?>
<!DOCTYPE svg PUBLIC "-//W3C//DTD SVG 1.1//EN"
 "http://www.w3.org/Graphics/SVG/1.1/DTD/svg11.dtd">
<!-- Generated by graphviz version 2.30.1 (20180413.0232)
 -->
<!-- Title: TriggerRoad Pages: 1 -->
<svg width="286pt" height="106pt"
 viewBox="0.00 0.00 286.00 106.00" xmlns="http://www.w3.org/2000/svg" xmlns:xlink="http://www.w3.org/1999/xlink">
<g id="graph0" class="graph" transform="scale(1 1) rotate(0) translate(4 102)">
<title>TriggerRoad</title>
<!-- Node1 -->
<g id="node1" class="node"><title>Node1</title>
<polygon fill="#bfbfbf" stroke="black" points="77.5,-0.5 77.5,-19.5 146.5,-19.5 146.5,-0.5 77.5,-0.5"/>
<text text-anchor="middle" x="112" y="-7.5" font-family="FreeSans" font-size="10.00">TriggerRoad</text>
</g>
<!-- Node2 -->
<g id="node2" class="node"><title>Node2</title>
<polygon fill="none" stroke="#bfbfbf" points="-0.5,-78.5 -0.5,-97.5 50.5,-97.5 50.5,-78.5 -0.5,-78.5"/>
<text text-anchor="middle" x="25" y="-85.5" font-family="FreeSans" font-size="10.00">TObject</text>
</g>
<!-- Node2&#45;&gt;Node1 -->
<g id="edge1" class="edge"><title>Node2&#45;&gt;Node1</title>
<path fill="none" stroke="midnightblue" d="M42.9677,-71.3041C60.8964,-55.6422 87.7818,-32.1562 102.136,-19.6165"/>
<polygon fill="midnightblue" stroke="midnightblue" points="40.2085,-69.067 34.98,-78.2818 44.8138,-74.3388 40.2085,-69.067"/>
</g>
<!-- Node3 -->
<g id="node3" class="node"><title>Node3</title>
<polygon fill="none" stroke="#bfbfbf" points="68.5,-78.5 68.5,-97.5 155.5,-97.5 155.5,-78.5 68.5,-78.5"/>
<text text-anchor="middle" x="112" y="-85.5" font-family="FreeSans" font-size="10.00">std::vector&lt; int &gt;</text>
</g>
<!-- Node3&#45;&gt;Node1 -->
<g id="edge2" class="edge"><title>Node3&#45;&gt;Node1</title>
<path fill="none" stroke="#9a32cd" stroke-dasharray="5,2" d="M112,-68.2239C112,-52.6974 112,-31.3582 112,-19.6165"/>
<polygon fill="#9a32cd" stroke="#9a32cd" points="108.5,-68.2818 112,-78.2818 115.5,-68.2819 108.5,-68.2818"/>
<text text-anchor="middle" x="138" y="-52" font-family="FreeSans" font-size="10.00"> elementIDs</text>
<text text-anchor="middle" x="138" y="-41" font-family="FreeSans" font-size="10.00">detectorIDs</text>
</g>
<!-- Node4 -->
<g id="node4" class="node"><title>Node4</title>
<polygon fill="none" stroke="#bfbfbf" points="173.5,-78.5 173.5,-97.5 278.5,-97.5 278.5,-78.5 173.5,-78.5"/>
<text text-anchor="middle" x="226" y="-85.5" font-family="FreeSans" font-size="10.00">std::vector&lt; double &gt;</text>
</g>
<!-- Node4&#45;&gt;Node1 -->
<g id="edge3" class="edge"><title>Node4&#45;&gt;Node1</title>
<path fill="none" stroke="#9a32cd" stroke-dasharray="5,2" d="M209.826,-71.4041C198.651,-61.1296 183.129,-47.8123 168,-38 156.952,-30.8348 143.716,-24.3669 132.887,-19.559"/>
<polygon fill="#9a32cd" stroke="#9a32cd" points="207.439,-73.9643 217.127,-78.2542 212.229,-68.8594 207.439,-73.9643"/>
<text text-anchor="middle" x="205.5" y="-46.5" font-family="FreeSans" font-size="10.00"> pXs</text>
</g>
</g>
</svg>
