<?xml version="1.0" encoding="UTF-8" standalone="no"?>
<!DOCTYPE svg PUBLIC "-//W3C//DTD SVG 1.1//EN"
 "http://www.w3.org/Graphics/SVG/1.1/DTD/svg11.dtd">
<!-- Generated by graphviz version 2.30.1 (20180413.0232)
 -->
<!-- Title: PHG4GenHit::process_event Pages: 1 -->
<svg width="646pt" height="423pt"
 viewBox="0.00 0.00 646.00 423.00" xmlns="http://www.w3.org/2000/svg" xmlns:xlink="http://www.w3.org/1999/xlink">
<g id="graph0" class="graph" transform="scale(1 1) rotate(0) translate(4 419)">
<title>PHG4GenHit::process_event</title>
<!-- Node1 -->
<g id="node1" class="node"><title>Node1</title>
<polygon fill="#bfbfbf" stroke="black" points="0,-166 0,-196 110,-196 110,-166 0,-166"/>
<text text-anchor="start" x="8" y="-184" font-family="FreeSans" font-size="10.00">PHG4GenHit::process</text>
<text text-anchor="middle" x="55" y="-173" font-family="FreeSans" font-size="10.00">_event</text>
</g>
<!-- Node2 -->
<g id="node2" class="node"><title>Node2</title>
<g id="a_node2"><a xlink:href="../../d4/d30/classPHG4HitContainer.html#a4df3ca68ecff69c9d7976b84fcc82e93" target="_top" xlink:title="PHG4HitContainer::AddHit">
<polygon fill="none" stroke="black" points="154,-376.5 154,-395.5 284,-395.5 284,-376.5 154,-376.5"/>
<text text-anchor="middle" x="219" y="-383.5" font-family="FreeSans" font-size="10.00">PHG4HitContainer::AddHit</text>
</a>
</g>
</g>
<!-- Node1&#45;&gt;Node2 -->
<g id="edge1" class="edge"><title>Node1&#45;&gt;Node2</title>
<path fill="none" stroke="midnightblue" d="M58.9241,-196.058C66.5764,-231.336 90.5622,-319.826 146,-366 148.592,-368.159 151.4,-370.085 154.353,-371.804"/>
<polygon fill="midnightblue" stroke="midnightblue" points="153.065,-375.072 163.58,-376.365 156.166,-368.796 153.065,-375.072"/>
</g>
<!-- Node6 -->
<g id="node6" class="node"><title>Node6</title>
<g id="a_node6"><a xlink:href="../../dc/d30/classPHG4CylinderGeom.html#ad978ad904b4a70184d716c095a75874d" target="_top" xlink:title="PHG4CylinderGeom::get\l_radius">
<polygon fill="none" stroke="black" points="158,-327 158,-357 280,-357 280,-327 158,-327"/>
<text text-anchor="start" x="166" y="-345" font-family="FreeSans" font-size="10.00">PHG4CylinderGeom::get</text>
<text text-anchor="middle" x="219" y="-334" font-family="FreeSans" font-size="10.00">_radius</text>
</a>
</g>
</g>
<!-- Node1&#45;&gt;Node6 -->
<g id="edge6" class="edge"><title>Node1&#45;&gt;Node6</title>
<path fill="none" stroke="midnightblue" d="M62.1988,-196.437C74.21,-224.453 103.285,-283.836 146,-317 148.303,-318.788 150.742,-320.453 153.278,-322.004"/>
<polygon fill="midnightblue" stroke="midnightblue" points="151.752,-325.158 162.212,-326.845 155.087,-319.003 151.752,-325.158"/>
</g>
<!-- Node7 -->
<g id="node7" class="node"><title>Node7</title>
<g id="a_node7"><a xlink:href="../../dc/d30/classPHG4CylinderGeom.html#a5e628ced545e46cdcdb65944fd63e524" target="_top" xlink:title="PHG4CylinderGeom::get\l_thickness">
<polygon fill="none" stroke="black" points="158,-278 158,-308 280,-308 280,-278 158,-278"/>
<text text-anchor="start" x="166" y="-296" font-family="FreeSans" font-size="10.00">PHG4CylinderGeom::get</text>
<text text-anchor="middle" x="219" y="-285" font-family="FreeSans" font-size="10.00">_thickness</text>
</a>
</g>
</g>
<!-- Node1&#45;&gt;Node7 -->
<g id="edge7" class="edge"><title>Node1&#45;&gt;Node7</title>
<path fill="none" stroke="midnightblue" d="M68.1478,-196.295C84.1321,-215.499 113.974,-248.307 146,-268 149.329,-270.047 152.847,-271.954 156.468,-273.727"/>
<polygon fill="midnightblue" stroke="midnightblue" points="155.074,-276.937 165.628,-277.859 157.952,-270.557 155.074,-276.937"/>
</g>
<!-- Node8 -->
<g id="node8" class="node"><title>Node8</title>
<g id="a_node8"><a xlink:href="../../d4/de7/classPHG4CylinderGeomContainer.html#a08321019aaff5f57cd416b64d0f536bf" target="_top" xlink:title="PHG4CylinderGeomContainer\l::GetLayerGeom">
<polygon fill="none" stroke="black" points="146.5,-229 146.5,-259 291.5,-259 291.5,-229 146.5,-229"/>
<text text-anchor="start" x="154.5" y="-247" font-family="FreeSans" font-size="10.00">PHG4CylinderGeomContainer</text>
<text text-anchor="middle" x="219" y="-236" font-family="FreeSans" font-size="10.00">::GetLayerGeom</text>
</a>
</g>
</g>
<!-- Node1&#45;&gt;Node8 -->
<g id="edge8" class="edge"><title>Node1&#45;&gt;Node8</title>
<path fill="none" stroke="midnightblue" d="M90.4034,-196.148C107.086,-203.333 127.476,-211.882 146,-219 151.755,-221.211 157.8,-223.446 163.84,-225.622"/>
<polygon fill="midnightblue" stroke="midnightblue" points="162.687,-228.927 173.282,-228.982 165.034,-222.332 162.687,-228.927"/>
</g>
<!-- Node9 -->
<g id="node9" class="node"><title>Node9</title>
<g id="a_node9"><a xlink:href="../../d3/d9e/classPHG4Hit.html#ad97bbe7fcf81822a93654afe0e540143" target="_top" xlink:title="PHG4Hit::set_edep">
<polygon fill="none" stroke="black" points="170,-190.5 170,-209.5 268,-209.5 268,-190.5 170,-190.5"/>
<text text-anchor="middle" x="219" y="-197.5" font-family="FreeSans" font-size="10.00">PHG4Hit::set_edep</text>
</a>
</g>
</g>
<!-- Node1&#45;&gt;Node9 -->
<g id="edge9" class="edge"><title>Node1&#45;&gt;Node9</title>
<path fill="none" stroke="midnightblue" d="M110.394,-187.38C126.229,-189.237 143.589,-191.273 159.657,-193.157"/>
<polygon fill="midnightblue" stroke="midnightblue" points="159.66,-196.682 169.999,-194.37 160.475,-189.729 159.66,-196.682"/>
</g>
<!-- Node10 -->
<g id="node10" class="node"><title>Node10</title>
<g id="a_node10"><a xlink:href="../../d3/d9e/classPHG4Hit.html#a164f860f2c74482d5d26c220f19be1f1" target="_top" xlink:title="PHG4Hit::set_layer">
<polygon fill="none" stroke="black" points="170,-152.5 170,-171.5 268,-171.5 268,-152.5 170,-152.5"/>
<text text-anchor="middle" x="219" y="-159.5" font-family="FreeSans" font-size="10.00">PHG4Hit::set_layer</text>
</a>
</g>
</g>
<!-- Node1&#45;&gt;Node10 -->
<g id="edge10" class="edge"><title>Node1&#45;&gt;Node10</title>
<path fill="none" stroke="midnightblue" d="M110.394,-174.62C126.229,-172.763 143.589,-170.727 159.657,-168.843"/>
<polygon fill="midnightblue" stroke="midnightblue" points="160.475,-172.271 169.999,-167.63 159.66,-165.318 160.475,-172.271"/>
</g>
<!-- Node11 -->
<g id="node11" class="node"><title>Node11</title>
<g id="a_node11"><a xlink:href="../../d3/d9e/classPHG4Hit.html#ac4e7f18a0d54ec275128651928e69531" target="_top" xlink:title="PHG4Hit::set_trkid">
<polygon fill="none" stroke="black" points="171,-114.5 171,-133.5 267,-133.5 267,-114.5 171,-114.5"/>
<text text-anchor="middle" x="219" y="-121.5" font-family="FreeSans" font-size="10.00">PHG4Hit::set_trkid</text>
</a>
</g>
</g>
<!-- Node1&#45;&gt;Node11 -->
<g id="edge11" class="edge"><title>Node1&#45;&gt;Node11</title>
<path fill="none" stroke="midnightblue" d="M88.4834,-165.971C105.408,-158.478 126.577,-149.626 146,-143 153.061,-140.591 160.598,-138.303 168.037,-136.203"/>
<polygon fill="midnightblue" stroke="midnightblue" points="168.989,-139.571 177.711,-133.557 167.142,-132.819 168.989,-139.571"/>
</g>
<!-- Node12 -->
<g id="node12" class="node"><title>Node12</title>
<g id="a_node12"><a xlink:href="../../d3/d9e/classPHG4Hit.html#aa91398b4546e9d099443217e1577f79b" target="_top" xlink:title="PHG4Hit::set_x">
<polygon fill="none" stroke="black" points="178,-76.5 178,-95.5 260,-95.5 260,-76.5 178,-76.5"/>
<text text-anchor="middle" x="219" y="-83.5" font-family="FreeSans" font-size="10.00">PHG4Hit::set_x</text>
</a>
</g>
</g>
<!-- Node1&#45;&gt;Node12 -->
<g id="edge12" class="edge"><title>Node1&#45;&gt;Node12</title>
<path fill="none" stroke="midnightblue" d="M69.7878,-165.853C86.2849,-148.63 115.519,-120.854 146,-105 152.935,-101.393 160.611,-98.4294 168.291,-96.0072"/>
<polygon fill="midnightblue" stroke="midnightblue" points="169.325,-99.3518 177.966,-93.2207 167.388,-92.6252 169.325,-99.3518"/>
</g>
<!-- Node13 -->
<g id="node13" class="node"><title>Node13</title>
<g id="a_node13"><a xlink:href="../../d3/d9e/classPHG4Hit.html#a3ab7971f354374b005f9a11fd761b53e" target="_top" xlink:title="PHG4Hit::set_y">
<polygon fill="none" stroke="black" points="178,-38.5 178,-57.5 260,-57.5 260,-38.5 178,-38.5"/>
<text text-anchor="middle" x="219" y="-45.5" font-family="FreeSans" font-size="10.00">PHG4Hit::set_y</text>
</a>
</g>
</g>
<!-- Node1&#45;&gt;Node13 -->
<g id="edge13" class="edge"><title>Node1&#45;&gt;Node13</title>
<path fill="none" stroke="midnightblue" d="M63.709,-165.858C77.0384,-141.242 106.775,-92.7135 146,-67 152.69,-62.6146 160.352,-59.2391 168.126,-56.6415"/>
<polygon fill="midnightblue" stroke="midnightblue" points="169.359,-59.9271 177.967,-53.7499 167.386,-53.211 169.359,-59.9271"/>
</g>
<!-- Node14 -->
<g id="node14" class="node"><title>Node14</title>
<g id="a_node14"><a xlink:href="../../d3/d9e/classPHG4Hit.html#a896d7a45139f9cbc2e429127baa61715" target="_top" xlink:title="PHG4Hit::set_z">
<polygon fill="none" stroke="black" points="178,-0.5 178,-19.5 260,-19.5 260,-0.5 178,-0.5"/>
<text text-anchor="middle" x="219" y="-7.5" font-family="FreeSans" font-size="10.00">PHG4Hit::set_z</text>
</a>
</g>
</g>
<!-- Node1&#45;&gt;Node14 -->
<g id="edge14" class="edge"><title>Node1&#45;&gt;Node14</title>
<path fill="none" stroke="midnightblue" d="M60.6111,-165.837C70.7639,-135.086 98.0432,-65.2384 146,-29 152.526,-24.0685 160.225,-20.4141 168.117,-17.7067"/>
<polygon fill="midnightblue" stroke="midnightblue" points="169.178,-21.043 177.775,-14.8517 167.193,-14.3302 169.178,-21.043"/>
</g>
<!-- Node3 -->
<g id="node3" class="node"><title>Node3</title>
<g id="a_node3"><a xlink:href="../../d3/d9e/classPHG4Hit.html#acea6b2f3763d899e4de3765b9b5c6e51" target="_top" xlink:title="PHG4Hit::get_hit_id">
<polygon fill="none" stroke="black" points="516.5,-395.5 516.5,-414.5 617.5,-414.5 617.5,-395.5 516.5,-395.5"/>
<text text-anchor="middle" x="567" y="-402.5" font-family="FreeSans" font-size="10.00">PHG4Hit::get_hit_id</text>
</a>
</g>
</g>
<!-- Node2&#45;&gt;Node3 -->
<g id="edge2" class="edge"><title>Node2&#45;&gt;Node3</title>
<path fill="none" stroke="midnightblue" d="M284.269,-389.529C347.859,-393.021 444.411,-398.323 506.345,-401.724"/>
<polygon fill="midnightblue" stroke="midnightblue" points="506.179,-405.22 516.355,-402.274 506.562,-398.231 506.179,-405.22"/>
</g>
<!-- Node4 -->
<g id="node4" class="node"><title>Node4</title>
<g id="a_node4"><a xlink:href="../../d4/d30/classPHG4HitContainer.html#a87c40b780333324fe53c5f003d34799b" target="_top" xlink:title="PHG4HitContainer::register\lHitOnLayer">
<polygon fill="none" stroke="black" points="328,-349 328,-379 460,-379 460,-349 328,-349"/>
<text text-anchor="start" x="336" y="-367" font-family="FreeSans" font-size="10.00">PHG4HitContainer::register</text>
<text text-anchor="middle" x="394" y="-356" font-family="FreeSans" font-size="10.00">HitOnLayer</text>
</a>
</g>
</g>
<!-- Node2&#45;&gt;Node4 -->
<g id="edge3" class="edge"><title>Node2&#45;&gt;Node4</title>
<path fill="none" stroke="midnightblue" d="M284.419,-377.808C295.304,-376.424 306.69,-374.976 317.821,-373.56"/>
<polygon fill="midnightblue" stroke="midnightblue" points="318.472,-377.006 327.95,-372.272 317.589,-370.062 318.472,-377.006"/>
</g>
<!-- Node4&#45;&gt;Node3 -->
<g id="edge4" class="edge"><title>Node4&#45;&gt;Node3</title>
<path fill="none" stroke="midnightblue" d="M457.703,-379.034C477.005,-383.662 497.98,-388.691 516.284,-393.08"/>
<polygon fill="midnightblue" stroke="midnightblue" points="515.61,-396.517 526.151,-395.446 517.243,-389.71 515.61,-396.517"/>
</g>
<!-- Node5 -->
<g id="node5" class="node"><title>Node5</title>
<g id="a_node5"><a xlink:href="../../d4/d30/classPHG4HitContainer.html#ab6b839bb51d6eb2f878651f6c3a52ca9" target="_top" xlink:title="PHG4HitContainer::AddLayer">
<polygon fill="none" stroke="black" points="496.5,-354.5 496.5,-373.5 637.5,-373.5 637.5,-354.5 496.5,-354.5"/>
<text text-anchor="middle" x="567" y="-361.5" font-family="FreeSans" font-size="10.00">PHG4HitContainer::AddLayer</text>
</a>
</g>
</g>
<!-- Node4&#45;&gt;Node5 -->
<g id="edge5" class="edge"><title>Node4&#45;&gt;Node5</title>
<path fill="none" stroke="midnightblue" d="M460.136,-364C468.683,-364 477.519,-364 486.274,-364"/>
<polygon fill="midnightblue" stroke="midnightblue" points="486.492,-367.5 496.492,-364 486.492,-360.5 486.492,-367.5"/>
</g>
</g>
</svg>
