<?xml version="1.0" encoding="UTF-8" standalone="no"?>
<!DOCTYPE svg PUBLIC "-//W3C//DTD SVG 1.1//EN"
 "http://www.w3.org/Graphics/SVG/1.1/DTD/svg11.dtd">
<!-- Generated by graphviz version 2.36.0 (20140111.2315)
 -->
<!-- Title: SQEvent::set_run_id Pages: 1 -->
<svg width="442pt" height="71pt"
 viewBox="0.00 0.00 442.00 71.00" xmlns="http://www.w3.org/2000/svg" xmlns:xlink="http://www.w3.org/1999/xlink">
<g id="graph0" class="graph" transform="scale(1 1) rotate(0) translate(4 67)">
<title>SQEvent::set_run_id</title>
<!-- Node1 -->
<g id="node1" class="node"><title>Node1</title>
<polygon fill="#bfbfbf" stroke="black" points="0.5,-19.5 0.5,-38.5 105.5,-38.5 105.5,-19.5 0.5,-19.5"/>
<text text-anchor="middle" x="53" y="-26.5" font-family="FreeSans" font-size="10.00">SQEvent::set_run_id</text>
</g>
<!-- Node2 -->
<g id="node2" class="node"><title>Node2</title>
<g id="a_node2"><a xlink:href="../../db/dda/classReadMySql.html#a404aa7b14dbb98abc5f3115182a8ec56" target="_top" xlink:title="ReadMySql::FillSQEvent">
<polygon fill="none" stroke="black" points="156,-38.5 156,-57.5 278,-57.5 278,-38.5 156,-38.5"/>
<text text-anchor="middle" x="217" y="-45.5" font-family="FreeSans" font-size="10.00">ReadMySql::FillSQEvent</text>
</a>
</g>
</g>
<!-- Node1&#45;&gt;Node2 -->
<g id="edge1" class="edge"><title>Node1&#45;&gt;Node2</title>
<path fill="none" stroke="midnightblue" d="M115.987,-36.2701C129.032,-37.8 142.773,-39.4117 155.753,-40.934"/>
<polygon fill="midnightblue" stroke="midnightblue" points="116.043,-32.7527 105.703,-35.064 115.227,-39.7051 116.043,-32.7527"/>
</g>
<!-- Node4 -->
<g id="node4" class="node"><title>Node4</title>
<g id="a_node4"><a xlink:href="../../d3/d97/classFun4AllEVIOInputManager.html#af61a28facba084aad29bf788ef2d28e7" target="_top" xlink:title="Fun4AllEVIOInputManager::run">
<polygon fill="none" stroke="black" points="142,-0.5 142,-19.5 292,-19.5 292,-0.5 142,-0.5"/>
<text text-anchor="middle" x="217" y="-7.5" font-family="FreeSans" font-size="10.00">Fun4AllEVIOInputManager::run</text>
</a>
</g>
</g>
<!-- Node1&#45;&gt;Node4 -->
<g id="edge3" class="edge"><title>Node1&#45;&gt;Node4</title>
<path fill="none" stroke="midnightblue" d="M115.861,-21.7447C124.331,-20.7513 133.097,-19.7231 141.76,-18.7072"/>
<polygon fill="midnightblue" stroke="midnightblue" points="115.227,-18.2949 105.703,-22.936 116.043,-25.2473 115.227,-18.2949"/>
</g>
<!-- Node3 -->
<g id="node3" class="node"><title>Node3</title>
<g id="a_node3"><a xlink:href="../../db/dda/classReadMySql.html#aef5367b1b70eb7b88d513750e78fc872" target="_top" xlink:title="ReadMySql::process\l_event">
<polygon fill="none" stroke="black" points="328.5,-33 328.5,-63 433.5,-63 433.5,-33 328.5,-33"/>
<text text-anchor="start" x="336.5" y="-51" font-family="FreeSans" font-size="10.00">ReadMySql::process</text>
<text text-anchor="middle" x="381" y="-40" font-family="FreeSans" font-size="10.00">_event</text>
</a>
</g>
</g>
<!-- Node2&#45;&gt;Node3 -->
<g id="edge2" class="edge"><title>Node2&#45;&gt;Node3</title>
<path fill="none" stroke="midnightblue" d="M288.481,-48C301.897,-48 315.704,-48 328.398,-48"/>
<polygon fill="midnightblue" stroke="midnightblue" points="288.323,-44.5001 278.323,-48 288.323,-51.5001 288.323,-44.5001"/>
</g>
</g>
</svg>
