<?xml version="1.0" encoding="UTF-8" standalone="no"?>
<!DOCTYPE svg PUBLIC "-//W3C//DTD SVG 1.1//EN"
 "http://www.w3.org/Graphics/SVG/1.1/DTD/svg11.dtd">
<!-- Generated by graphviz version 2.44.0 (0)
 -->
<!-- Title: DecoStatusDb::DecoStatusDb Pages: 1 -->
<svg width="376pt" height="66pt"
 viewBox="0.00 0.00 376.00 66.00" xmlns="http://www.w3.org/2000/svg" xmlns:xlink="http://www.w3.org/1999/xlink">
<g id="graph0" class="graph" transform="scale(1 1) rotate(0) translate(4 62)">
<title>DecoStatusDb::DecoStatusDb</title>
<!-- Node1 -->
<g id="node1" class="node">
<title>Node1</title>
<g id="a_node1"><a xlink:title=" ">
<polygon fill="#bfbfbf" stroke="black" points="0,-19.5 0,-38.5 161,-38.5 161,-19.5 0,-19.5"/>
<text text-anchor="middle" x="80.5" y="-26.5" font-family="FreeSans" font-size="10.00">DecoStatusDb::DecoStatusDb</text>
</a>
</g>
</g>
<!-- Node2 -->
<g id="node2" class="node">
<title>Node2</title>
<g id="a_node2"><a xlink:href="../../df/da2/classUtilOnline.html#a00d1fcb82a573b7108b27d67e4320b63" target="_top" xlink:title=" ">
<polygon fill="none" stroke="black" points="197,-38.5 197,-57.5 368,-57.5 368,-38.5 197,-38.5"/>
<text text-anchor="middle" x="282.5" y="-45.5" font-family="FreeSans" font-size="10.00">UtilOnline::GetSchemaMainDaq</text>
</a>
</g>
</g>
<!-- Node1&#45;&gt;Node2 -->
<g id="edge1" class="edge">
<title>Node1&#45;&gt;Node2</title>
<path fill="none" stroke="midnightblue" d="M161.12,-36.56C169.58,-37.37 178.23,-38.19 186.84,-39.01"/>
<polygon fill="midnightblue" stroke="midnightblue" points="186.62,-42.5 196.9,-39.96 187.28,-35.53 186.62,-42.5"/>
</g>
<!-- Node3 -->
<g id="node3" class="node">
<title>Node3</title>
<g id="a_node3"><a xlink:href="../../d2/da4/classDbSvc.html#a7e4cc05e20e0a21eef9c185c34c51044" target="_top" xlink:title=" ">
<polygon fill="none" stroke="black" points="227,-0.5 227,-19.5 338,-19.5 338,-0.5 227,-0.5"/>
<text text-anchor="middle" x="282.5" y="-7.5" font-family="FreeSans" font-size="10.00">DbSvc::UseSchema</text>
</a>
</g>
</g>
<!-- Node1&#45;&gt;Node3 -->
<g id="edge2" class="edge">
<title>Node1&#45;&gt;Node3</title>
<path fill="none" stroke="midnightblue" d="M161.12,-21.44C179.51,-19.69 198.87,-17.85 216.55,-16.17"/>
<polygon fill="midnightblue" stroke="midnightblue" points="217.12,-19.63 226.75,-15.2 216.46,-12.66 217.12,-19.63"/>
</g>
</g>
</svg>
