<?xml version="1.0" encoding="UTF-8" standalone="no"?>
<!DOCTYPE svg PUBLIC "-//W3C//DTD SVG 1.1//EN"
 "http://www.w3.org/Graphics/SVG/1.1/DTD/svg11.dtd">
<!-- Generated by graphviz version 2.30.1 (20180413.0232)
 -->
<!-- Title: SignedHit::pos Pages: 1 -->
<svg width="1608pt" height="328pt"
 viewBox="0.00 0.00 1608.00 328.31" xmlns="http://www.w3.org/2000/svg" xmlns:xlink="http://www.w3.org/1999/xlink">
<g id="graph0" class="graph" transform="scale(1 1) rotate(0) translate(4 324.313)">
<title>SignedHit::pos</title>
<!-- Node1 -->
<g id="node1" class="node"><title>Node1</title>
<polygon fill="#bfbfbf" stroke="black" points="0,-183.5 0,-202.5 78,-202.5 78,-183.5 0,-183.5"/>
<text text-anchor="middle" x="39" y="-190.5" font-family="FreeSans" font-size="10.00">SignedHit::pos</text>
</g>
<!-- Node2 -->
<g id="node2" class="node"><title>Node2</title>
<g id="a_node2"><a xlink:href="../../d0/d1e/classPropSegment.html#a067c6fdcf39b89aad070673feb429266" target="_top" xlink:title="PropSegment::linearFit\l_iterative">
<polygon fill="none" stroke="black" points="114.5,-203 114.5,-233 229.5,-233 229.5,-203 114.5,-203"/>
<text text-anchor="start" x="122.5" y="-221" font-family="FreeSans" font-size="10.00">PropSegment::linearFit</text>
<text text-anchor="middle" x="172" y="-210" font-family="FreeSans" font-size="10.00">_iterative</text>
</a>
</g>
</g>
<!-- Node1&#45;&gt;Node2 -->
<g id="edge1" class="edge"><title>Node1&#45;&gt;Node2</title>
<path fill="none" stroke="midnightblue" d="M88.0761,-202.175C96.654,-203.812 105.662,-205.531 114.451,-207.208"/>
<polygon fill="midnightblue" stroke="midnightblue" points="88.7216,-198.735 78.2428,-200.298 87.4094,-205.611 88.7216,-198.735"/>
</g>
<!-- Node3 -->
<g id="node3" class="node"><title>Node3</title>
<g id="a_node3"><a xlink:href="../../d0/d1e/classPropSegment.html#aff06825f6828f0eb58be0ea6ae8ec805" target="_top" xlink:title="PropSegment::linearFit\l_simple">
<polygon fill="none" stroke="black" points="114.5,-154 114.5,-184 229.5,-184 229.5,-154 114.5,-154"/>
<text text-anchor="start" x="122.5" y="-172" font-family="FreeSans" font-size="10.00">PropSegment::linearFit</text>
<text text-anchor="middle" x="172" y="-161" font-family="FreeSans" font-size="10.00">_simple</text>
</a>
</g>
</g>
<!-- Node1&#45;&gt;Node3 -->
<g id="edge2" class="edge"><title>Node1&#45;&gt;Node3</title>
<path fill="none" stroke="midnightblue" d="M88.356,-184.141C96.8498,-182.585 105.757,-180.953 114.451,-179.36"/>
<polygon fill="midnightblue" stroke="midnightblue" points="87.4483,-180.749 78.2428,-185.994 88.7098,-187.634 87.4483,-180.749"/>
</g>
<!-- Node4 -->
<g id="node4" class="node"><title>Node4</title>
<g id="a_node4"><a xlink:href="../../d0/d1e/classPropSegment.html#aca28cdf1a12ff0d4a0c58a5fbd595dff" target="_top" xlink:title="PropSegment::fit_34hits">
<polygon fill="none" stroke="black" points="266.5,-159.5 266.5,-178.5 385.5,-178.5 385.5,-159.5 266.5,-159.5"/>
<text text-anchor="middle" x="326" y="-166.5" font-family="FreeSans" font-size="10.00">PropSegment::fit_34hits</text>
</a>
</g>
</g>
<!-- Node3&#45;&gt;Node4 -->
<g id="edge3" class="edge"><title>Node3&#45;&gt;Node4</title>
<path fill="none" stroke="midnightblue" d="M239.847,-169C248.666,-169 257.652,-169 266.321,-169"/>
<polygon fill="midnightblue" stroke="midnightblue" points="239.599,-165.5 229.599,-169 239.599,-172.5 239.599,-165.5"/>
</g>
<!-- Node5 -->
<g id="node5" class="node"><title>Node5</title>
<g id="a_node5"><a xlink:href="../../d0/d1e/classPropSegment.html#a50efd15badce32c007c6e1178b2ce977" target="_top" xlink:title="PropSegment::fit">
<polygon fill="none" stroke="black" points="422,-159.5 422,-178.5 510,-178.5 510,-159.5 422,-159.5"/>
<text text-anchor="middle" x="466" y="-166.5" font-family="FreeSans" font-size="10.00">PropSegment::fit</text>
</a>
</g>
</g>
<!-- Node4&#45;&gt;Node5 -->
<g id="edge4" class="edge"><title>Node4&#45;&gt;Node5</title>
<path fill="none" stroke="midnightblue" d="M395.596,-169C404.548,-169 413.509,-169 421.877,-169"/>
<polygon fill="midnightblue" stroke="midnightblue" points="395.524,-165.5 385.524,-169 395.524,-172.5 395.524,-165.5"/>
</g>
<!-- Node6 -->
<g id="node6" class="node"><title>Node6</title>
<g id="a_node6"><a xlink:href="../../d3/d46/classKalmanFastTracking.html#aa85f2e38eff0fe4a53d365feedb112d1" target="_top" xlink:title="KalmanFastTracking\l::buildPropSegments">
<polygon fill="none" stroke="black" points="768,-287 768,-317 874,-317 874,-287 768,-287"/>
<text text-anchor="start" x="776" y="-305" font-family="FreeSans" font-size="10.00">KalmanFastTracking</text>
<text text-anchor="middle" x="821" y="-294" font-family="FreeSans" font-size="10.00">::buildPropSegments</text>
</a>
</g>
</g>
<!-- Node5&#45;&gt;Node6 -->
<g id="edge5" class="edge"><title>Node5&#45;&gt;Node6</title>
<path fill="none" stroke="midnightblue" d="M482.586,-186.169C497.433,-201.484 521.149,-223.38 546,-236 617.876,-272.5 710.72,-289.355 767.776,-296.734"/>
<polygon fill="midnightblue" stroke="midnightblue" points="485.081,-183.713 475.671,-178.844 479.991,-188.518 485.081,-183.713"/>
</g>
<!-- Node10 -->
<g id="node10" class="node"><title>Node10</title>
<g id="a_node10"><a xlink:href="../../db/daa/classKalmanDSTrk.html#ac715ce9ee791825f2f65dfd77e6909ba" target="_top" xlink:title="KalmanDSTrk::buildPropSegments">
<polygon fill="none" stroke="black" points="546,-137.5 546,-156.5 712,-156.5 712,-137.5 546,-137.5"/>
<text text-anchor="middle" x="629" y="-144.5" font-family="FreeSans" font-size="10.00">KalmanDSTrk::buildPropSegments</text>
</a>
</g>
</g>
<!-- Node5&#45;&gt;Node10 -->
<g id="edge9" class="edge"><title>Node5&#45;&gt;Node10</title>
<path fill="none" stroke="midnightblue" d="M520.146,-161.738C532.354,-160.07 545.514,-158.271 558.303,-156.524"/>
<polygon fill="midnightblue" stroke="midnightblue" points="519.579,-158.283 510.145,-163.104 520.527,-165.218 519.579,-158.283"/>
</g>
<!-- Node13 -->
<g id="node13" class="node"><title>Node13</title>
<g id="a_node13"><a xlink:href="../../d3/d46/classKalmanFastTracking.html#ae2301f2d29aa4ca6c8af4d91a43ba909" target="_top" xlink:title="KalmanFastTracking\l::muonID_search">
<polygon fill="none" stroke="black" points="576,-197 576,-227 682,-227 682,-197 576,-197"/>
<text text-anchor="start" x="584" y="-215" font-family="FreeSans" font-size="10.00">KalmanFastTracking</text>
<text text-anchor="middle" x="629" y="-204" font-family="FreeSans" font-size="10.00">::muonID_search</text>
</a>
</g>
</g>
<!-- Node5&#45;&gt;Node13 -->
<g id="edge12" class="edge"><title>Node5&#45;&gt;Node13</title>
<path fill="none" stroke="midnightblue" d="M512.411,-181.128C532.161,-186.403 555.415,-192.614 575.867,-198.076"/>
<polygon fill="midnightblue" stroke="midnightblue" points="513.296,-177.742 502.731,-178.543 511.489,-184.505 513.296,-177.742"/>
</g>
<!-- Node18 -->
<g id="node18" class="node"><title>Node18</title>
<g id="a_node18"><a xlink:href="../../db/daa/classKalmanDSTrk.html#ad5e83ecd7c597cedf5dab19a73aeb1f5" target="_top" xlink:title="KalmanDSTrk::muonID\l_search">
<polygon fill="none" stroke="black" points="571,-66 571,-96 687,-96 687,-66 571,-66"/>
<text text-anchor="start" x="579" y="-84" font-family="FreeSans" font-size="10.00">KalmanDSTrk::muonID</text>
<text text-anchor="middle" x="629" y="-73" font-family="FreeSans" font-size="10.00">_search</text>
</a>
</g>
</g>
<!-- Node5&#45;&gt;Node18 -->
<g id="edge21" class="edge"><title>Node5&#45;&gt;Node18</title>
<path fill="none" stroke="midnightblue" d="M493.423,-154.557C522.878,-138.458 570.3,-112.538 600.273,-96.1551"/>
<polygon fill="midnightblue" stroke="midnightblue" points="491.632,-151.548 484.536,-159.415 494.99,-157.69 491.632,-151.548"/>
</g>
<!-- Node7 -->
<g id="node7" class="node"><title>Node7</title>
<g id="a_node7"><a xlink:href="../../d3/d46/classKalmanFastTracking.html#ada493cf8d995c42b9e78a53b891ce72b" target="_top" xlink:title="KalmanFastTracking\l::setRawEvent">
<polygon fill="none" stroke="black" points="1300,-242 1300,-272 1406,-272 1406,-242 1300,-242"/>
<text text-anchor="start" x="1308" y="-260" font-family="FreeSans" font-size="10.00">KalmanFastTracking</text>
<text text-anchor="middle" x="1353" y="-249" font-family="FreeSans" font-size="10.00">::setRawEvent</text>
</a>
</g>
</g>
<!-- Node6&#45;&gt;Node7 -->
<g id="edge6" class="edge"><title>Node6&#45;&gt;Node7</title>
<path fill="none" stroke="midnightblue" d="M884.302,-310.204C968.041,-319.412 1121.05,-329.821 1248,-303 1276.01,-297.082 1305.65,-283.111 1326.1,-272.107"/>
<polygon fill="midnightblue" stroke="midnightblue" points="884.523,-306.707 874.193,-309.061 883.736,-313.663 884.523,-306.707"/>
</g>
<!-- Node8 -->
<g id="node8" class="node"><title>Node8</title>
<g id="a_node8"><a xlink:href="../../df/df2/classSQReco.html#a4d308ea90b8cd7c24a235f32debd6ddb" target="_top" xlink:title="SQReco::process_event">
<polygon fill="none" stroke="black" points="1469.5,-225.5 1469.5,-244.5 1588.5,-244.5 1588.5,-225.5 1469.5,-225.5"/>
<text text-anchor="middle" x="1529" y="-232.5" font-family="FreeSans" font-size="10.00">SQReco::process_event</text>
</a>
</g>
</g>
<!-- Node7&#45;&gt;Node8 -->
<g id="edge7" class="edge"><title>Node7&#45;&gt;Node8</title>
<path fill="none" stroke="midnightblue" d="M1416.22,-249.133C1433.56,-246.941 1452.32,-244.569 1469.43,-242.405"/>
<polygon fill="midnightblue" stroke="midnightblue" points="1415.69,-245.672 1406.21,-250.399 1416.57,-252.617 1415.69,-245.672"/>
</g>
<!-- Node9 -->
<g id="node9" class="node"><title>Node9</title>
<g id="a_node9"><a xlink:href="../../d4/dff/classKalmanFastTrackingWrapper.html#a5edc61b3b9a06f6486b1f22e44f7d63e" target="_top" xlink:title="KalmanFastTrackingWrapper\l::process_event">
<polygon fill="none" stroke="black" points="1458,-264 1458,-294 1600,-294 1600,-264 1458,-264"/>
<text text-anchor="start" x="1466" y="-282" font-family="FreeSans" font-size="10.00">KalmanFastTrackingWrapper</text>
<text text-anchor="middle" x="1529" y="-271" font-family="FreeSans" font-size="10.00">::process_event</text>
</a>
</g>
</g>
<!-- Node7&#45;&gt;Node9 -->
<g id="edge8" class="edge"><title>Node7&#45;&gt;Node9</title>
<path fill="none" stroke="midnightblue" d="M1416.3,-264.877C1429.76,-266.579 1444.07,-268.388 1457.8,-270.125"/>
<polygon fill="midnightblue" stroke="midnightblue" points="1416.57,-261.383 1406.21,-263.601 1415.69,-268.328 1416.57,-261.383"/>
</g>
<!-- Node11 -->
<g id="node11" class="node"><title>Node11</title>
<g id="a_node11"><a xlink:href="../../db/daa/classKalmanDSTrk.html#a58ceb0cdcf685588b2a543d7a9c2bf9d" target="_top" xlink:title="KalmanDSTrk::setRawEvent\lWorker">
<polygon fill="none" stroke="black" points="1284.5,-66 1284.5,-96 1421.5,-96 1421.5,-66 1284.5,-66"/>
<text text-anchor="start" x="1292.5" y="-84" font-family="FreeSans" font-size="10.00">KalmanDSTrk::setRawEvent</text>
<text text-anchor="middle" x="1353" y="-73" font-family="FreeSans" font-size="10.00">Worker</text>
</a>
</g>
</g>
<!-- Node10&#45;&gt;Node11 -->
<g id="edge10" class="edge"><title>Node10&#45;&gt;Node11</title>
<path fill="none" stroke="midnightblue" d="M722.221,-147.44C843.716,-146.53 1063.59,-139.724 1248,-106 1263.16,-103.227 1279.42,-99.6247 1294.48,-96.0216"/>
<polygon fill="midnightblue" stroke="midnightblue" points="722.189,-143.94 712.211,-147.503 722.233,-150.94 722.189,-143.94"/>
</g>
<!-- Node12 -->
<g id="node12" class="node"><title>Node12</title>
<g id="a_node12"><a xlink:href="../../db/daa/classKalmanDSTrk.html#a67f1b61fbc3fbba52e10f4b06d4f8794" target="_top" xlink:title="KalmanDSTrk::setRawEvent">
<polygon fill="none" stroke="black" points="1460.5,-71.5 1460.5,-90.5 1597.5,-90.5 1597.5,-71.5 1460.5,-71.5"/>
<text text-anchor="middle" x="1529" y="-78.5" font-family="FreeSans" font-size="10.00">KalmanDSTrk::setRawEvent</text>
</a>
</g>
</g>
<!-- Node11&#45;&gt;Node12 -->
<g id="edge11" class="edge"><title>Node11&#45;&gt;Node12</title>
<path fill="none" stroke="midnightblue" d="M1431.98,-81C1441.47,-81 1451.1,-81 1460.41,-81"/>
<polygon fill="midnightblue" stroke="midnightblue" points="1431.77,-77.5001 1421.77,-81 1431.77,-84.5001 1431.77,-77.5001"/>
</g>
<!-- Node14 -->
<g id="node14" class="node"><title>Node14</title>
<g id="a_node14"><a xlink:href="../../d3/d46/classKalmanFastTracking.html#a3e34ec4cc289246ef9842e3482e0b1cc" target="_top" xlink:title="KalmanFastTracking\l::acceptTracklet">
<polygon fill="none" stroke="black" points="768,-197 768,-227 874,-227 874,-197 768,-197"/>
<text text-anchor="start" x="776" y="-215" font-family="FreeSans" font-size="10.00">KalmanFastTracking</text>
<text text-anchor="middle" x="821" y="-204" font-family="FreeSans" font-size="10.00">::acceptTracklet</text>
</a>
</g>
</g>
<!-- Node13&#45;&gt;Node14 -->
<g id="edge13" class="edge"><title>Node13&#45;&gt;Node14</title>
<path fill="none" stroke="midnightblue" d="M692.426,-212C716.876,-212 744.603,-212 767.947,-212"/>
<polygon fill="midnightblue" stroke="midnightblue" points="692.17,-208.5 682.17,-212 692.17,-215.5 692.17,-208.5"/>
</g>
<!-- Node15 -->
<g id="node15" class="node"><title>Node15</title>
<g id="a_node15"><a xlink:href="../../d3/d46/classKalmanFastTracking.html#a53e313d5cd40faa789fbe1dbe716f192" target="_top" xlink:title="KalmanFastTracking\l::buildBackPartialTracks">
<polygon fill="none" stroke="black" points="1122.5,-176 1122.5,-206 1243.5,-206 1243.5,-176 1122.5,-176"/>
<text text-anchor="start" x="1130.5" y="-194" font-family="FreeSans" font-size="10.00">KalmanFastTracking</text>
<text text-anchor="middle" x="1183" y="-183" font-family="FreeSans" font-size="10.00">::buildBackPartialTracks</text>
</a>
</g>
</g>
<!-- Node14&#45;&gt;Node15 -->
<g id="edge14" class="edge"><title>Node14&#45;&gt;Node15</title>
<path fill="none" stroke="midnightblue" d="M884.741,-208.34C951.62,-204.439 1056.74,-198.307 1122.39,-194.477"/>
<polygon fill="midnightblue" stroke="midnightblue" points="884.126,-204.87 874.347,-208.946 884.534,-211.858 884.126,-204.87"/>
</g>
<!-- Node16 -->
<g id="node16" class="node"><title>Node16</title>
<g id="a_node16"><a xlink:href="../../d3/d46/classKalmanFastTracking.html#a53c93bc5e58b3560d1cfb42e84bbe95c" target="_top" xlink:title="KalmanFastTracking\l::buildGlobalTracks">
<polygon fill="none" stroke="black" points="1130,-264 1130,-294 1236,-294 1236,-264 1130,-264"/>
<text text-anchor="start" x="1138" y="-282" font-family="FreeSans" font-size="10.00">KalmanFastTracking</text>
<text text-anchor="middle" x="1183" y="-271" font-family="FreeSans" font-size="10.00">::buildGlobalTracks</text>
</a>
</g>
</g>
<!-- Node14&#45;&gt;Node16 -->
<g id="edge16" class="edge"><title>Node14&#45;&gt;Node16</title>
<path fill="none" stroke="midnightblue" d="M858.479,-231.489C878.924,-241.476 905.226,-252.81 930,-259 997.487,-275.861 1078.01,-279.51 1129.55,-279.844"/>
<polygon fill="midnightblue" stroke="midnightblue" points="860.034,-228.353 849.524,-227.018 856.907,-234.616 860.034,-228.353"/>
</g>
<!-- Node17 -->
<g id="node17" class="node"><title>Node17</title>
<g id="a_node17"><a xlink:href="../../d3/d46/classKalmanFastTracking.html#a4aab1bd454f44de3a3ed2569efeca4b7" target="_top" xlink:title="Tracklet finding stuff. ">
<polygon fill="none" stroke="black" points="946,-220 946,-250 1066,-250 1066,-220 946,-220"/>
<text text-anchor="start" x="954" y="-238" font-family="FreeSans" font-size="10.00">KalmanFastTracking</text>
<text text-anchor="middle" x="1006" y="-227" font-family="FreeSans" font-size="10.00">::buildTrackletsInStation</text>
</a>
</g>
</g>
<!-- Node14&#45;&gt;Node17 -->
<g id="edge18" class="edge"><title>Node14&#45;&gt;Node17</title>
<path fill="none" stroke="midnightblue" d="M884.593,-219.867C904.403,-222.357 926.227,-225.1 945.791,-227.558"/>
<polygon fill="midnightblue" stroke="midnightblue" points="884.799,-216.365 874.44,-218.591 883.926,-223.311 884.799,-216.365"/>
</g>
<!-- Node15&#45;&gt;Node7 -->
<g id="edge15" class="edge"><title>Node15&#45;&gt;Node7</title>
<path fill="none" stroke="midnightblue" d="M1232.15,-209.917C1258.01,-220.076 1289.45,-232.426 1313.64,-241.929"/>
<polygon fill="midnightblue" stroke="midnightblue" points="1233.13,-206.541 1222.54,-206.142 1230.57,-213.056 1233.13,-206.541"/>
</g>
<!-- Node16&#45;&gt;Node7 -->
<g id="edge17" class="edge"><title>Node16&#45;&gt;Node7</title>
<path fill="none" stroke="midnightblue" d="M1246.4,-270.829C1263.97,-268.528 1282.89,-266.05 1299.8,-263.836"/>
<polygon fill="midnightblue" stroke="midnightblue" points="1245.7,-267.391 1236.24,-272.16 1246.61,-274.332 1245.7,-267.391"/>
</g>
<!-- Node17&#45;&gt;Node16 -->
<g id="edge19" class="edge"><title>Node17&#45;&gt;Node16</title>
<path fill="none" stroke="midnightblue" d="M1076.07,-252.365C1093.98,-256.869 1112.97,-261.644 1129.85,-265.888"/>
<polygon fill="midnightblue" stroke="midnightblue" points="1076.8,-248.941 1066.25,-249.896 1075.09,-255.729 1076.8,-248.941"/>
</g>
<!-- Node17&#45;&gt;Node7 -->
<g id="edge20" class="edge"><title>Node17&#45;&gt;Node7</title>
<path fill="none" stroke="midnightblue" d="M1076.62,-239.44C1142.67,-243.651 1240.41,-249.884 1299.94,-253.68"/>
<polygon fill="midnightblue" stroke="midnightblue" points="1076.51,-235.926 1066.31,-238.782 1076.06,-242.911 1076.51,-235.926"/>
</g>
<!-- Node19 -->
<g id="node19" class="node"><title>Node19</title>
<g id="a_node19"><a xlink:href="../../db/daa/classKalmanDSTrk.html#ac07dbe14e15a8c5fbbca52c118865d33" target="_top" xlink:title="KalmanDSTrk::acceptTracklet">
<polygon fill="none" stroke="black" points="748,-60.5 748,-79.5 894,-79.5 894,-60.5 748,-60.5"/>
<text text-anchor="middle" x="821" y="-67.5" font-family="FreeSans" font-size="10.00">KalmanDSTrk::acceptTracklet</text>
</a>
</g>
</g>
<!-- Node18&#45;&gt;Node19 -->
<g id="edge22" class="edge"><title>Node18&#45;&gt;Node19</title>
<path fill="none" stroke="midnightblue" d="M697.068,-77.1171C713.514,-76.165 731.185,-75.1419 747.858,-74.1766"/>
<polygon fill="midnightblue" stroke="midnightblue" points="696.787,-73.6274 687.006,-77.6996 697.192,-80.6157 696.787,-73.6274"/>
</g>
<!-- Node20 -->
<g id="node20" class="node"><title>Node20</title>
<g id="a_node20"><a xlink:href="../../db/daa/classKalmanDSTrk.html#a1d246a6aacb8828783f887e82bb74cd1" target="_top" xlink:title="KalmanDSTrk::buildBackPartial\lTracks">
<polygon fill="none" stroke="black" points="930,-88 930,-118 1082,-118 1082,-88 930,-88"/>
<text text-anchor="start" x="938" y="-106" font-family="FreeSans" font-size="10.00">KalmanDSTrk::buildBackPartial</text>
<text text-anchor="middle" x="1006" y="-95" font-family="FreeSans" font-size="10.00">Tracks</text>
</a>
</g>
</g>
<!-- Node19&#45;&gt;Node20 -->
<g id="edge23" class="edge"><title>Node19&#45;&gt;Node20</title>
<path fill="none" stroke="midnightblue" d="M885.18,-81.3931C899.537,-83.982 914.926,-86.7571 929.729,-89.4266"/>
<polygon fill="midnightblue" stroke="midnightblue" points="885.394,-77.8753 874.931,-79.545 884.151,-84.7641 885.394,-77.8753"/>
</g>
<!-- Node21 -->
<g id="node21" class="node"><title>Node21</title>
<g id="a_node21"><a xlink:href="../../db/daa/classKalmanDSTrk.html#adf4981f081f2606bf3412851eaa62eb0" target="_top" xlink:title="KalmanDSTrk::buildGlobal\lTracks">
<polygon fill="none" stroke="black" points="1118,-44 1118,-74 1248,-74 1248,-44 1118,-44"/>
<text text-anchor="start" x="1126" y="-62" font-family="FreeSans" font-size="10.00">KalmanDSTrk::buildGlobal</text>
<text text-anchor="middle" x="1183" y="-51" font-family="FreeSans" font-size="10.00">Tracks</text>
</a>
</g>
</g>
<!-- Node19&#45;&gt;Node21 -->
<g id="edge25" class="edge"><title>Node19&#45;&gt;Node21</title>
<path fill="none" stroke="midnightblue" d="M904.604,-67.476C969.411,-65.4958 1058.32,-62.7792 1117.84,-60.9604"/>
<polygon fill="midnightblue" stroke="midnightblue" points="904.307,-63.9833 894.418,-67.7872 904.521,-70.9801 904.307,-63.9833"/>
</g>
<!-- Node22 -->
<g id="node22" class="node"><title>Node22</title>
<g id="a_node22"><a xlink:href="../../db/daa/classKalmanDSTrk.html#ab77ac8dc274c5df2658d12c96494d29e" target="_top" xlink:title="Tracklet finding stuff. ">
<polygon fill="none" stroke="black" points="935,-0 935,-30 1077,-30 1077,-0 935,-0"/>
<text text-anchor="start" x="943" y="-18" font-family="FreeSans" font-size="10.00">KalmanDSTrk::buildTracklets</text>
<text text-anchor="middle" x="1006" y="-7" font-family="FreeSans" font-size="10.00">InStation</text>
</a>
</g>
</g>
<!-- Node19&#45;&gt;Node22 -->
<g id="edge27" class="edge"><title>Node19&#45;&gt;Node22</title>
<path fill="none" stroke="midnightblue" d="M863.456,-57.5406C890.575,-49.3899 926.166,-38.6933 954.873,-30.0654"/>
<polygon fill="midnightblue" stroke="midnightblue" points="862.446,-54.1895 853.876,-60.4197 864.46,-60.8933 862.446,-54.1895"/>
</g>
<!-- Node20&#45;&gt;Node11 -->
<g id="edge24" class="edge"><title>Node20&#45;&gt;Node11</title>
<path fill="none" stroke="midnightblue" d="M1092.38,-97.5557C1151.65,-93.7762 1229.52,-88.8103 1284.47,-85.3063"/>
<polygon fill="midnightblue" stroke="midnightblue" points="1092.04,-94.0698 1082.29,-98.1992 1092.49,-101.056 1092.04,-94.0698"/>
</g>
<!-- Node21&#45;&gt;Node11 -->
<g id="edge26" class="edge"><title>Node21&#45;&gt;Node11</title>
<path fill="none" stroke="midnightblue" d="M1258.49,-68.7552C1267.1,-69.8825 1275.85,-71.0275 1284.36,-72.1419"/>
<polygon fill="midnightblue" stroke="midnightblue" points="1258.84,-65.271 1248.47,-67.4429 1257.93,-72.2118 1258.84,-65.271"/>
</g>
<!-- Node22&#45;&gt;Node21 -->
<g id="edge28" class="edge"><title>Node22&#45;&gt;Node21</title>
<path fill="none" stroke="midnightblue" d="M1076.54,-32.4855C1091.67,-36.2873 1107.53,-40.277 1122.24,-43.9738"/>
<polygon fill="midnightblue" stroke="midnightblue" points="1077.29,-29.0634 1066.74,-30.0192 1075.58,-35.8521 1077.29,-29.0634"/>
</g>
<!-- Node22&#45;&gt;Node11 -->
<g id="edge29" class="edge"><title>Node22&#45;&gt;Node11</title>
<path fill="none" stroke="midnightblue" d="M1087.34,-14.4374C1134.75,-15.8016 1195.55,-20.5198 1248,-34 1275.63,-41.1021 1305.09,-55.0854 1325.57,-65.9615"/>
<polygon fill="midnightblue" stroke="midnightblue" points="1087.21,-10.9333 1077.13,-14.1891 1087.04,-17.9312 1087.21,-10.9333"/>
</g>
</g>
</svg>
