<?xml version="1.0" encoding="UTF-8" standalone="no"?>
<!DOCTYPE svg PUBLIC "-//W3C//DTD SVG 1.1//EN"
 "http://www.w3.org/Graphics/SVG/1.1/DTD/svg11.dtd">
<!-- Generated by graphviz version 2.36.0 (20140111.2315)
 -->
<!-- Title: PHNodeOperation::Verbosity Pages: 1 -->
<svg width="810pt" height="712pt"
 viewBox="0.00 0.00 810.00 712.00" xmlns="http://www.w3.org/2000/svg" xmlns:xlink="http://www.w3.org/1999/xlink">
<g id="graph0" class="graph" transform="scale(1 1) rotate(0) translate(4 708)">
<title>PHNodeOperation::Verbosity</title>
<!-- Node1 -->
<g id="node1" class="node"><title>Node1</title>
<polygon fill="#bfbfbf" stroke="black" points="0.5,-364.5 0.5,-383.5 141.5,-383.5 141.5,-364.5 0.5,-364.5"/>
<text text-anchor="middle" x="71" y="-371.5" font-family="FreeSans" font-size="10.00">PHNodeOperation::Verbosity</text>
</g>
<!-- Node2 -->
<g id="node2" class="node"><title>Node2</title>
<g id="a_node2"><a xlink:href="../../da/d29/classFun4AllServer.html#ab2479a9a3e45d51118e308597acd5228" target="_top" xlink:title="Fun4AllServer::ResetNodeTree">
<polygon fill="none" stroke="black" points="178.5,-364.5 178.5,-383.5 329.5,-383.5 329.5,-364.5 178.5,-364.5"/>
<text text-anchor="middle" x="254" y="-371.5" font-family="FreeSans" font-size="10.00">Fun4AllServer::ResetNodeTree</text>
</a>
</g>
</g>
<!-- Node1&#45;&gt;Node2 -->
<g id="edge1" class="edge"><title>Node1&#45;&gt;Node2</title>
<path fill="none" stroke="midnightblue" d="M151.905,-374C160.65,-374 169.529,-374 178.209,-374"/>
<polygon fill="midnightblue" stroke="midnightblue" points="151.72,-370.5 141.72,-374 151.72,-377.5 151.72,-370.5"/>
</g>
<!-- Node3 -->
<g id="node3" class="node"><title>Node3</title>
<g id="a_node3"><a xlink:href="../../da/d29/classFun4AllServer.html#a6a65a944dfb40966ace97d35ab1f7942" target="_top" xlink:title="Fun4AllServer::process\l_event">
<polygon fill="none" stroke="black" points="366.5,-381 366.5,-411 483.5,-411 483.5,-381 366.5,-381"/>
<text text-anchor="start" x="374.5" y="-399" font-family="FreeSans" font-size="10.00">Fun4AllServer::process</text>
<text text-anchor="middle" x="425" y="-388" font-family="FreeSans" font-size="10.00">_event</text>
</a>
</g>
</g>
<!-- Node2&#45;&gt;Node3 -->
<g id="edge2" class="edge"><title>Node2&#45;&gt;Node3</title>
<path fill="none" stroke="midnightblue" d="M338.361,-384.852C347.804,-386.081 357.267,-387.313 366.276,-388.486"/>
<polygon fill="midnightblue" stroke="midnightblue" points="338.511,-381.342 328.143,-383.522 337.607,-388.283 338.511,-381.342"/>
</g>
<!-- Node5 -->
<g id="node5" class="node"><title>Node5</title>
<g id="a_node5"><a xlink:href="../../da/d29/classFun4AllServer.html#a11bbc8b2f53bc06e0b05ee202dd6372a" target="_top" xlink:title="run n events (0 means up to end of file) ">
<polygon fill="none" stroke="black" points="531,-342.5 531,-361.5 627,-361.5 627,-342.5 531,-342.5"/>
<text text-anchor="middle" x="579" y="-349.5" font-family="FreeSans" font-size="10.00">Fun4AllServer::run</text>
</a>
</g>
</g>
<!-- Node2&#45;&gt;Node5 -->
<g id="edge24" class="edge"><title>Node2&#45;&gt;Node5</title>
<path fill="none" stroke="midnightblue" d="M339.518,-368.243C400.574,-364.085 480.79,-358.621 530.869,-355.21"/>
<polygon fill="midnightblue" stroke="midnightblue" points="339.247,-364.754 329.508,-368.925 339.723,-371.737 339.247,-364.754"/>
</g>
<!-- Node4 -->
<g id="node4" class="node"><title>Node4</title>
<g id="a_node4"><a xlink:href="../../da/d29/classFun4AllServer.html#a94738b092fa009fcea45737d8ea41224" target="_top" xlink:title="Fun4AllServer::process\l_event">
<polygon fill="none" stroke="black" points="520.5,-381 520.5,-411 637.5,-411 637.5,-381 520.5,-381"/>
<text text-anchor="start" x="528.5" y="-399" font-family="FreeSans" font-size="10.00">Fun4AllServer::process</text>
<text text-anchor="middle" x="579" y="-388" font-family="FreeSans" font-size="10.00">_event</text>
</a>
</g>
</g>
<!-- Node3&#45;&gt;Node4 -->
<g id="edge3" class="edge"><title>Node3&#45;&gt;Node4</title>
<path fill="none" stroke="midnightblue" d="M494.072,-396C502.817,-396 511.704,-396 520.263,-396"/>
<polygon fill="midnightblue" stroke="midnightblue" points="493.898,-392.5 483.898,-396 493.898,-399.5 493.898,-392.5"/>
</g>
<!-- Node3&#45;&gt;Node5 -->
<g id="edge4" class="edge"><title>Node3&#45;&gt;Node5</title>
<path fill="none" stroke="midnightblue" d="M487.671,-378.148C507.253,-372.479 528.153,-366.429 544.911,-361.578"/>
<polygon fill="midnightblue" stroke="midnightblue" points="486.517,-374.838 477.885,-380.981 488.464,-381.562 486.517,-374.838"/>
</g>
<!-- Node6 -->
<g id="node6" class="node"><title>Node6</title>
<g id="a_node6"><a xlink:href="../../df/d51/Fun4All__ExportGeom_8C.html#a582925c51bad38d562cf19e71211adfd" target="_top" xlink:title="get geometry from DST file and output TGeoManager ROOT files or other formats of geometry files ...">
<polygon fill="none" stroke="black" points="684,-684.5 684,-703.5 792,-703.5 792,-684.5 684,-684.5"/>
<text text-anchor="middle" x="738" y="-691.5" font-family="FreeSans" font-size="10.00">Fun4All_ExportGeom</text>
</a>
</g>
</g>
<!-- Node5&#45;&gt;Node6 -->
<g id="edge5" class="edge"><title>Node5&#45;&gt;Node6</title>
<path fill="none" stroke="midnightblue" d="M634.821,-367.61C635.95,-368.667 637.014,-369.796 638,-371 724.189,-476.273 586.572,-570.754 674,-675 677.23,-678.851 681.211,-681.94 685.589,-684.415"/>
<polygon fill="midnightblue" stroke="midnightblue" points="636.695,-364.645 626.545,-361.609 632.586,-370.312 636.695,-364.645"/>
</g>
<!-- Node7 -->
<g id="node7" class="node"><title>Node7</title>
<g id="a_node7"><a xlink:href="../../d9/de0/Fun4All__G4__BNL_8C.html#a62a558c2bb73d1be82a65b16f52ce2e0" target="_top" xlink:title="Fun4All_G4_BNL">
<polygon fill="none" stroke="black" points="691.5,-646.5 691.5,-665.5 784.5,-665.5 784.5,-646.5 691.5,-646.5"/>
<text text-anchor="middle" x="738" y="-653.5" font-family="FreeSans" font-size="10.00">Fun4All_G4_BNL</text>
</a>
</g>
</g>
<!-- Node5&#45;&gt;Node7 -->
<g id="edge6" class="edge"><title>Node5&#45;&gt;Node7</title>
<path fill="none" stroke="midnightblue" d="M634.722,-367.565C635.886,-368.635 636.983,-369.779 638,-371 714.341,-462.677 596.58,-546.233 674,-637 678.596,-642.389 684.662,-646.282 691.215,-649.088"/>
<polygon fill="midnightblue" stroke="midnightblue" points="636.38,-364.449 626.202,-361.506 632.323,-370.154 636.38,-364.449"/>
</g>
<!-- Node8 -->
<g id="node8" class="node"><title>Node8</title>
<g id="a_node8"><a xlink:href="../../de/dad/Fun4All__G4__BNL__R1_8C.html#a361be596f3554cfa3d0fc26346c50c31" target="_top" xlink:title="Fun4All_G4_BNL_R1">
<polygon fill="none" stroke="black" points="683,-608.5 683,-627.5 793,-627.5 793,-608.5 683,-608.5"/>
<text text-anchor="middle" x="738" y="-615.5" font-family="FreeSans" font-size="10.00">Fun4All_G4_BNL_R1</text>
</a>
</g>
</g>
<!-- Node5&#45;&gt;Node8 -->
<g id="edge7" class="edge"><title>Node5&#45;&gt;Node8</title>
<path fill="none" stroke="midnightblue" d="M634.686,-367.595C635.861,-368.656 636.97,-369.79 638,-371 704.513,-449.105 606.567,-521.687 674,-599 677.379,-602.874 681.517,-605.974 686.042,-608.451"/>
<polygon fill="midnightblue" stroke="midnightblue" points="636.312,-364.46 626.117,-361.578 632.29,-370.189 636.312,-364.46"/>
</g>
<!-- Node9 -->
<g id="node9" class="node"><title>Node9</title>
<g id="a_node9"><a xlink:href="../../d1/d24/Fun4All__G4__E1039_8C.html#ad81863c21df83a735c57713bc9ec59b1" target="_top" xlink:title="Fun4All_G4_E1039">
<polygon fill="none" stroke="black" points="688,-570.5 688,-589.5 788,-589.5 788,-570.5 688,-570.5"/>
<text text-anchor="middle" x="738" y="-577.5" font-family="FreeSans" font-size="10.00">Fun4All_G4_E1039</text>
</a>
</g>
</g>
<!-- Node5&#45;&gt;Node9 -->
<g id="edge8" class="edge"><title>Node5&#45;&gt;Node9</title>
<path fill="none" stroke="midnightblue" d="M634.196,-367.253C635.548,-368.412 636.822,-369.659 638,-371 694.72,-435.573 616.52,-497.102 674,-561 677.82,-565.247 682.551,-568.559 687.692,-571.141"/>
<polygon fill="midnightblue" stroke="midnightblue" points="635.964,-364.224 625.718,-361.527 632.046,-370.024 635.964,-364.224"/>
</g>
<!-- Node10 -->
<g id="node10" class="node"><title>Node10</title>
<g id="a_node10"><a xlink:href="../../de/d10/Fun4All__G4__E1039__R1_8C.html#aa484b834b55e3114dfd4cd82dcd11831" target="_top" xlink:title="Fun4All_G4_E1039_R1">
<polygon fill="none" stroke="black" points="679.5,-532.5 679.5,-551.5 796.5,-551.5 796.5,-532.5 679.5,-532.5"/>
<text text-anchor="middle" x="738" y="-539.5" font-family="FreeSans" font-size="10.00">Fun4All_G4_E1039_R1</text>
</a>
</g>
</g>
<!-- Node5&#45;&gt;Node10 -->
<g id="edge9" class="edge"><title>Node5&#45;&gt;Node10</title>
<path fill="none" stroke="midnightblue" d="M634.033,-367.254C635.439,-368.413 636.767,-369.659 638,-371 684.986,-422.109 626.413,-472.451 674,-523 677.602,-526.826 681.944,-529.891 686.643,-532.344"/>
<polygon fill="midnightblue" stroke="midnightblue" points="635.549,-364.065 625.261,-361.532 631.725,-369.927 635.549,-364.065"/>
</g>
<!-- Node11 -->
<g id="node11" class="node"><title>Node11</title>
<g id="a_node11"><a xlink:href="../../df/d98/Fun4All__G4__E1039__R2_8C.html#a0cc5938b98723b2d5216049aad7edb01" target="_top" xlink:title="Fun4All_G4_E1039_R2">
<polygon fill="none" stroke="black" points="679.5,-494.5 679.5,-513.5 796.5,-513.5 796.5,-494.5 679.5,-494.5"/>
<text text-anchor="middle" x="738" y="-501.5" font-family="FreeSans" font-size="10.00">Fun4All_G4_E1039_R2</text>
</a>
</g>
</g>
<!-- Node5&#45;&gt;Node11 -->
<g id="edge10" class="edge"><title>Node5&#45;&gt;Node11</title>
<path fill="none" stroke="midnightblue" d="M633.321,-366.925C634.978,-368.176 636.547,-369.531 638,-371 675.369,-408.771 636.187,-447.674 674,-485 677.903,-488.852 682.556,-491.928 687.543,-494.383"/>
<polygon fill="midnightblue" stroke="midnightblue" points="634.773,-363.712 624.411,-361.505 631.135,-369.692 634.773,-363.712"/>
</g>
<!-- Node12 -->
<g id="node12" class="node"><title>Node12</title>
<g id="a_node12"><a xlink:href="../../d9/d0f/Fun4All__ImportGeom_8C.html#a3388968a8dae60e9eb62b1126f747b6a" target="_top" xlink:title="Read in a Geometry file, and output DST and ROOT TGeo files. ">
<polygon fill="none" stroke="black" points="683.5,-456.5 683.5,-475.5 792.5,-475.5 792.5,-456.5 683.5,-456.5"/>
<text text-anchor="middle" x="738" y="-463.5" font-family="FreeSans" font-size="10.00">Fun4All_ImportGeom</text>
</a>
</g>
</g>
<!-- Node5&#45;&gt;Node12 -->
<g id="edge11" class="edge"><title>Node5&#45;&gt;Node12</title>
<path fill="none" stroke="midnightblue" d="M631.849,-366.376C634.022,-367.777 636.087,-369.314 638,-371 666.038,-395.715 645.672,-422.618 674,-447 678.502,-450.875 683.775,-453.96 689.319,-456.416"/>
<polygon fill="midnightblue" stroke="midnightblue" points="633.496,-363.288 623.034,-361.619 630.172,-369.448 633.496,-363.288"/>
</g>
<!-- Node13 -->
<g id="node13" class="node"><title>Node13</title>
<g id="a_node13"><a xlink:href="../../d5/db4/Fun4All__Test_8C.html#ae69a57ea66fbed58544200f95796a66f" target="_top" xlink:title="Fun4All_Test">
<polygon fill="none" stroke="black" points="701,-418.5 701,-437.5 775,-437.5 775,-418.5 701,-418.5"/>
<text text-anchor="middle" x="738" y="-425.5" font-family="FreeSans" font-size="10.00">Fun4All_Test</text>
</a>
</g>
</g>
<!-- Node5&#45;&gt;Node13 -->
<g id="edge12" class="edge"><title>Node5&#45;&gt;Node13</title>
<path fill="none" stroke="midnightblue" d="M627.862,-365.513C631.392,-367.158 634.814,-368.982 638,-371 657.655,-383.446 654.199,-396.787 674,-409 682.168,-414.038 691.758,-417.815 700.959,-420.617"/>
<polygon fill="midnightblue" stroke="midnightblue" points="628.931,-362.168 618.353,-361.566 626.248,-368.633 628.931,-362.168"/>
</g>
<!-- Node14 -->
<g id="node14" class="node"><title>Node14</title>
<g id="a_node14"><a xlink:href="../../d2/d24/Fun4E1039Shielding_8C.html#a42592782dd55d6e219305ff678a00dc2" target="_top" xlink:title="Fun4E1039Shielding">
<polygon fill="none" stroke="black" points="685.5,-380.5 685.5,-399.5 790.5,-399.5 790.5,-380.5 685.5,-380.5"/>
<text text-anchor="middle" x="738" y="-387.5" font-family="FreeSans" font-size="10.00">Fun4E1039Shielding</text>
</a>
</g>
</g>
<!-- Node5&#45;&gt;Node14 -->
<g id="edge13" class="edge"><title>Node5&#45;&gt;Node14</title>
<path fill="none" stroke="midnightblue" d="M629.447,-363.968C651.448,-369.293 676.994,-375.476 697.667,-380.48"/>
<polygon fill="midnightblue" stroke="midnightblue" points="630.16,-360.54 619.618,-361.589 628.514,-367.343 630.16,-360.54"/>
</g>
<!-- Node15 -->
<g id="node15" class="node"><title>Node15</title>
<g id="a_node15"><a xlink:href="../../d6/d6a/Fun4HodoAccGap_8C.html#a7aaa0687f144d5e7b417d7e9ac5f36da" target="_top" xlink:title="Fun4HodoAccGap">
<polygon fill="none" stroke="black" points="689.5,-342.5 689.5,-361.5 786.5,-361.5 786.5,-342.5 689.5,-342.5"/>
<text text-anchor="middle" x="738" y="-349.5" font-family="FreeSans" font-size="10.00">Fun4HodoAccGap</text>
</a>
</g>
</g>
<!-- Node5&#45;&gt;Node15 -->
<g id="edge14" class="edge"><title>Node5&#45;&gt;Node15</title>
<path fill="none" stroke="midnightblue" d="M637.506,-352C654.557,-352 673.035,-352 689.385,-352"/>
<polygon fill="midnightblue" stroke="midnightblue" points="637.105,-348.5 627.105,-352 637.105,-355.5 637.105,-348.5"/>
</g>
<!-- Node16 -->
<g id="node16" class="node"><title>Node16</title>
<g id="a_node16"><a xlink:href="../../db/d7c/Fun4DumpGeom_8C.html#ac063d1f79534ea7be7f5e9a08e247c30" target="_top" xlink:title="Fun4kDumpGeom">
<polygon fill="none" stroke="black" points="690.5,-304.5 690.5,-323.5 785.5,-323.5 785.5,-304.5 690.5,-304.5"/>
<text text-anchor="middle" x="738" y="-311.5" font-family="FreeSans" font-size="10.00">Fun4kDumpGeom</text>
</a>
</g>
</g>
<!-- Node5&#45;&gt;Node16 -->
<g id="edge15" class="edge"><title>Node5&#45;&gt;Node16</title>
<path fill="none" stroke="midnightblue" d="M629.447,-340.032C651.448,-334.707 676.994,-328.524 697.667,-323.52"/>
<polygon fill="midnightblue" stroke="midnightblue" points="628.514,-336.657 619.618,-342.411 630.16,-343.46 628.514,-336.657"/>
</g>
<!-- Node17 -->
<g id="node17" class="node"><title>Node17</title>
<g id="a_node17"><a xlink:href="../../dd/d7d/Fun4kTracker_8C.html#abe7052288e4678d0346333383ad821ff" target="_top" xlink:title="Fun4kTracker">
<polygon fill="none" stroke="black" points="699.5,-266.5 699.5,-285.5 776.5,-285.5 776.5,-266.5 699.5,-266.5"/>
<text text-anchor="middle" x="738" y="-273.5" font-family="FreeSans" font-size="10.00">Fun4kTracker</text>
</a>
</g>
</g>
<!-- Node5&#45;&gt;Node17 -->
<g id="edge16" class="edge"><title>Node5&#45;&gt;Node17</title>
<path fill="none" stroke="midnightblue" d="M601.725,-336.648C620.244,-324.105 647.93,-306.611 674,-295 682.14,-291.375 691.168,-288.195 699.788,-285.525"/>
<polygon fill="midnightblue" stroke="midnightblue" points="599.674,-333.811 593.417,-342.361 603.641,-339.579 599.674,-333.811"/>
</g>
<!-- Node18 -->
<g id="node18" class="node"><title>Node18</title>
<g id="a_node18"><a xlink:href="../../d9/dfb/Fun4PrgTrkDev_8C.html#a5f65e7394cb50b6f7d7e12ba4815b2c6" target="_top" xlink:title="Fun4PrgTrkDev">
<polygon fill="none" stroke="black" points="695.5,-228.5 695.5,-247.5 780.5,-247.5 780.5,-228.5 695.5,-228.5"/>
<text text-anchor="middle" x="738" y="-235.5" font-family="FreeSans" font-size="10.00">Fun4PrgTrkDev</text>
</a>
</g>
</g>
<!-- Node5&#45;&gt;Node18 -->
<g id="edge17" class="edge"><title>Node5&#45;&gt;Node18</title>
<path fill="none" stroke="midnightblue" d="M593.073,-334.161C609.619,-312.818 640.081,-277.415 674,-257 680.558,-253.053 687.998,-249.87 695.41,-247.323"/>
<polygon fill="midnightblue" stroke="midnightblue" points="590.11,-332.277 586.865,-342.363 595.691,-336.502 590.11,-332.277"/>
</g>
<!-- Node19 -->
<g id="node19" class="node"><title>Node19</title>
<g id="a_node19"><a xlink:href="../../d9/d8c/Fun4ReadMySql_8C.html#a82110168fa15d41b073c27eeadfc0ff3" target="_top" xlink:title="Fun4ReadMySql">
<polygon fill="none" stroke="black" points="694,-190.5 694,-209.5 782,-209.5 782,-190.5 694,-190.5"/>
<text text-anchor="middle" x="738" y="-197.5" font-family="FreeSans" font-size="10.00">Fun4ReadMySql</text>
</a>
</g>
</g>
<!-- Node5&#45;&gt;Node19 -->
<g id="edge18" class="edge"><title>Node5&#45;&gt;Node19</title>
<path fill="none" stroke="midnightblue" d="M588.424,-332.901C602.159,-303.958 632.111,-249.173 674,-219 679.933,-214.727 686.836,-211.403 693.855,-208.82"/>
<polygon fill="midnightblue" stroke="midnightblue" points="585.1,-331.753 584.106,-342.301 591.461,-334.675 585.1,-331.753"/>
</g>
<!-- Node20 -->
<g id="node20" class="node"><title>Node20</title>
<g id="a_node20"><a xlink:href="../../d6/d4c/Fun4SeaQuest_8C.html#a81bffd149f5c71602cb40eb0f45019c3" target="_top" xlink:title="Fun4SeaQuest">
<polygon fill="none" stroke="black" points="697,-152.5 697,-171.5 779,-171.5 779,-152.5 697,-152.5"/>
<text text-anchor="middle" x="738" y="-159.5" font-family="FreeSans" font-size="10.00">Fun4SeaQuest</text>
</a>
</g>
</g>
<!-- Node5&#45;&gt;Node20 -->
<g id="edge19" class="edge"><title>Node5&#45;&gt;Node20</title>
<path fill="none" stroke="midnightblue" d="M585.339,-332.522C596.073,-297.035 623.651,-221.761 674,-181 680.571,-175.681 688.607,-171.849 696.712,-169.089"/>
<polygon fill="midnightblue" stroke="midnightblue" points="581.964,-331.597 582.542,-342.176 588.687,-333.545 581.964,-331.597"/>
</g>
<!-- Node21 -->
<g id="node21" class="node"><title>Node21</title>
<g id="a_node21"><a xlink:href="../../d7/d65/e1039-core_2macros_2Fun4Sim_8C.html#a5e9276116ae0064f58b288a1e0e4e3db" target="_top" xlink:title="Fun4Sim">
<polygon fill="none" stroke="black" points="710,-114.5 710,-133.5 766,-133.5 766,-114.5 710,-114.5"/>
<text text-anchor="middle" x="738" y="-121.5" font-family="FreeSans" font-size="10.00">Fun4Sim</text>
</a>
</g>
</g>
<!-- Node5&#45;&gt;Node21 -->
<g id="edge20" class="edge"><title>Node5&#45;&gt;Node21</title>
<path fill="none" stroke="midnightblue" d="M583.19,-332.593C590.979,-291.439 614.845,-194.938 674,-143 683.872,-134.332 697.588,-129.618 709.702,-127.054"/>
<polygon fill="midnightblue" stroke="midnightblue" points="579.744,-331.981 581.438,-342.44 586.635,-333.207 579.744,-331.981"/>
</g>
<!-- Node22 -->
<g id="node22" class="node"><title>Node22</title>
<g id="a_node22"><a xlink:href="../../de/d48/Fun4TestAnalyzer_8C.html#af993f3ce438e5ebcb52b97e41124a3db" target="_top" xlink:title="Fun4TestAnalyzer">
<polygon fill="none" stroke="black" points="690.5,-76.5 690.5,-95.5 785.5,-95.5 785.5,-76.5 690.5,-76.5"/>
<text text-anchor="middle" x="738" y="-83.5" font-family="FreeSans" font-size="10.00">Fun4TestAnalyzer</text>
</a>
</g>
</g>
<!-- Node5&#45;&gt;Node22 -->
<g id="edge21" class="edge"><title>Node5&#45;&gt;Node22</title>
<path fill="none" stroke="midnightblue" d="M581.707,-332.319C586.805,-285.81 606.081,-168.278 674,-105 678.681,-100.639 684.328,-97.2769 690.296,-94.6851"/>
<polygon fill="midnightblue" stroke="midnightblue" points="578.221,-332.008 580.716,-342.305 585.187,-332.7 578.221,-332.008"/>
</g>
<!-- Node23 -->
<g id="node23" class="node"><title>Node23</title>
<g id="a_node23"><a xlink:href="../../d1/da2/E1039Shielding_2int__run_8C.html#a088590a1a5b93b904ba076de8ca1ef82" target="_top" xlink:title="int_run">
<polygon fill="none" stroke="black" points="715,-38.5 715,-57.5 761,-57.5 761,-38.5 715,-38.5"/>
<text text-anchor="middle" x="738" y="-45.5" font-family="FreeSans" font-size="10.00">int_run</text>
</a>
</g>
</g>
<!-- Node5&#45;&gt;Node23 -->
<g id="edge22" class="edge"><title>Node5&#45;&gt;Node23</title>
<path fill="none" stroke="midnightblue" d="M580.564,-332.149C583.119,-280.706 597.167,-141.885 674,-67 684.881,-56.395 701.46,-51.6809 714.88,-49.5992"/>
<polygon fill="midnightblue" stroke="midnightblue" points="577.062,-332.123 580.159,-342.256 584.056,-332.404 577.062,-332.123"/>
</g>
<!-- Node24 -->
<g id="node24" class="node"><title>Node24</title>
<g id="a_node24"><a xlink:href="../../d6/deb/PHGeom__DSTInspection_8C.html#a8a06a40e2950cd31dda512c040049cd0" target="_top" xlink:title="PHGeom_DSTInspection">
<polygon fill="none" stroke="black" points="674.5,-0.5 674.5,-19.5 801.5,-19.5 801.5,-0.5 674.5,-0.5"/>
<text text-anchor="middle" x="738" y="-7.5" font-family="FreeSans" font-size="10.00">PHGeom_DSTInspection</text>
</a>
</g>
</g>
<!-- Node5&#45;&gt;Node24 -->
<g id="edge23" class="edge"><title>Node5&#45;&gt;Node24</title>
<path fill="none" stroke="midnightblue" d="M579.656,-332.206C579.799,-276.323 588.058,-115.781 674,-29 677.859,-25.1038 682.485,-22.0006 687.456,-19.5302"/>
<polygon fill="midnightblue" stroke="midnightblue" points="576.158,-332.502 579.724,-342.478 583.158,-332.455 576.158,-332.502"/>
</g>
</g>
</svg>
