<?xml version="1.0" encoding="UTF-8" standalone="no"?>
<!DOCTYPE svg PUBLIC "-//W3C//DTD SVG 1.1//EN"
 "http://www.w3.org/Graphics/SVG/1.1/DTD/svg11.dtd">
<!-- Generated by graphviz version 2.44.0 (0)
 -->
<!-- Title: PHG4HitContainer::getLayers Pages: 1 -->
<svg width="349pt" height="137pt"
 viewBox="0.00 0.00 349.00 137.00" xmlns="http://www.w3.org/2000/svg" xmlns:xlink="http://www.w3.org/1999/xlink">
<g id="graph0" class="graph" transform="scale(1 1) rotate(0) translate(4 133)">
<title>PHG4HitContainer::getLayers</title>
<!-- Node1 -->
<g id="node1" class="node">
<title>Node1</title>
<g id="a_node1"><a xlink:title=" ">
<polygon fill="#bfbfbf" stroke="black" points="182,-55 182,-74 341,-74 341,-55 182,-55"/>
<text text-anchor="middle" x="261.5" y="-62" font-family="FreeSans" font-size="10.00">PHG4HitContainer::getLayers</text>
</a>
</g>
</g>
<!-- Node2 -->
<g id="node2" class="node">
<title>Node2</title>
<g id="a_node2"><a xlink:href="../../df/d5e/classPHG4BlockCellReco.html#a8031ff9bacb684d523acc71c14054cdb" target="_top" xlink:title="event processing">
<polygon fill="none" stroke="black" points="13.5,-98.5 13.5,-128.5 132.5,-128.5 132.5,-98.5 13.5,-98.5"/>
<text text-anchor="start" x="21.5" y="-116.5" font-family="FreeSans" font-size="10.00">PHG4BlockCellReco::</text>
<text text-anchor="middle" x="73" y="-105.5" font-family="FreeSans" font-size="10.00">process_event</text>
</a>
</g>
</g>
<!-- Node1&#45;&gt;Node2 -->
<g id="edge1" class="edge">
<title>Node1&#45;&gt;Node2</title>
<path fill="none" stroke="midnightblue" d="M214.1,-76.69C189.02,-83.28 157.82,-91.48 131.23,-98.46"/>
<polygon fill="midnightblue" stroke="midnightblue" points="215.32,-79.99 224.1,-74.06 213.54,-73.22 215.32,-79.99"/>
</g>
<!-- Node3 -->
<g id="node3" class="node">
<title>Node3</title>
<g id="a_node3"><a xlink:href="../../d5/dd0/classPHG4CylinderCellReco.html#acd9297cbac172c726c8da55f875a824a" target="_top" xlink:title="event processing">
<polygon fill="none" stroke="black" points="9.5,-49.5 9.5,-79.5 136.5,-79.5 136.5,-49.5 9.5,-49.5"/>
<text text-anchor="start" x="17.5" y="-67.5" font-family="FreeSans" font-size="10.00">PHG4CylinderCellReco</text>
<text text-anchor="middle" x="73" y="-56.5" font-family="FreeSans" font-size="10.00">::process_event</text>
</a>
</g>
</g>
<!-- Node1&#45;&gt;Node3 -->
<g id="edge2" class="edge">
<title>Node1&#45;&gt;Node3</title>
<path fill="none" stroke="midnightblue" d="M171.6,-64.5C159.78,-64.5 147.86,-64.5 136.61,-64.5"/>
<polygon fill="midnightblue" stroke="midnightblue" points="171.95,-68 181.95,-64.5 171.95,-61 171.95,-68"/>
</g>
<!-- Node4 -->
<g id="node4" class="node">
<title>Node4</title>
<g id="a_node4"><a xlink:href="../../dc/d94/classPHG4CylinderCellTPCReco.html#a75c377807a2b0585b5bad470cb2cf9f5" target="_top" xlink:title="event processing">
<polygon fill="none" stroke="black" points="0,-0.5 0,-30.5 146,-30.5 146,-0.5 0,-0.5"/>
<text text-anchor="start" x="8" y="-18.5" font-family="FreeSans" font-size="10.00">PHG4CylinderCellTPCReco</text>
<text text-anchor="middle" x="73" y="-7.5" font-family="FreeSans" font-size="10.00">::process_event</text>
</a>
</g>
</g>
<!-- Node1&#45;&gt;Node4 -->
<g id="edge3" class="edge">
<title>Node1&#45;&gt;Node4</title>
<path fill="none" stroke="midnightblue" d="M214.1,-52.31C189.02,-45.72 157.82,-37.52 131.23,-30.54"/>
<polygon fill="midnightblue" stroke="midnightblue" points="213.54,-55.78 224.1,-54.94 215.32,-49.01 213.54,-55.78"/>
</g>
</g>
</svg>
