<?xml version="1.0" encoding="UTF-8" standalone="no"?>
<!DOCTYPE svg PUBLIC "-//W3C//DTD SVG 1.1//EN"
 "http://www.w3.org/Graphics/SVG/1.1/DTD/svg11.dtd">
<!-- Generated by graphviz version 2.30.1 (20180413.0232)
 -->
<!-- Title: DbUpRun::UploadRun Pages: 1 -->
<svg width="308pt" height="610pt"
 viewBox="0.00 0.00 308.00 610.00" xmlns="http://www.w3.org/2000/svg" xmlns:xlink="http://www.w3.org/1999/xlink">
<g id="graph0" class="graph" transform="scale(1 1) rotate(0) translate(4 606)">
<title>DbUpRun::UploadRun</title>
<!-- Node1 -->
<g id="node1" class="node"><title>Node1</title>
<polygon fill="#bfbfbf" stroke="black" points="0,-297.5 0,-316.5 110,-316.5 110,-297.5 0,-297.5"/>
<text text-anchor="middle" x="55" y="-304.5" font-family="FreeSans" font-size="10.00">DbUpRun::UploadRun</text>
</g>
<!-- Node2 -->
<g id="node2" class="node"><title>Node2</title>
<g id="a_node2"><a xlink:href="../../da/dfa/classDbSvc_1_1VarList.html#a8835fc0ecc4041873b5e15dbb35a5218" target="_top" xlink:title="DbSvc::VarList::Add">
<polygon fill="none" stroke="black" points="172.5,-582.5 172.5,-601.5 273.5,-601.5 273.5,-582.5 172.5,-582.5"/>
<text text-anchor="middle" x="223" y="-589.5" font-family="FreeSans" font-size="10.00">DbSvc::VarList::Add</text>
</a>
</g>
</g>
<!-- Node1&#45;&gt;Node2 -->
<g id="edge1" class="edge"><title>Node1&#45;&gt;Node2</title>
<path fill="none" stroke="midnightblue" d="M56.1524,-316.723C57.3094,-355.45 66.9615,-500.138 146,-573 150.791,-577.416 156.45,-580.845 162.484,-583.501"/>
<polygon fill="midnightblue" stroke="midnightblue" points="161.612,-586.909 172.206,-587.07 164.025,-580.338 161.612,-586.909"/>
</g>
<!-- Node3 -->
<g id="node3" class="node"><title>Node3</title>
<g id="a_node3"><a xlink:href="../../d2/da4/classDbSvc.html#af342c238c151003ac35ca3e96f60d02e" target="_top" xlink:title="DbSvc::Con">
<polygon fill="none" stroke="black" points="189.5,-544.5 189.5,-563.5 256.5,-563.5 256.5,-544.5 189.5,-544.5"/>
<text text-anchor="middle" x="223" y="-551.5" font-family="FreeSans" font-size="10.00">DbSvc::Con</text>
</a>
</g>
</g>
<!-- Node1&#45;&gt;Node3 -->
<g id="edge2" class="edge"><title>Node1&#45;&gt;Node3</title>
<path fill="none" stroke="midnightblue" d="M56.7497,-316.537C60.0282,-351.505 76.2484,-473.835 146,-535 155.267,-543.126 167.497,-547.88 179.431,-550.631"/>
<polygon fill="midnightblue" stroke="midnightblue" points="178.838,-554.081 189.315,-552.501 180.139,-547.203 178.838,-554.081"/>
</g>
<!-- Node4 -->
<g id="node4" class="node"><title>Node4</title>
<g id="a_node4"><a xlink:href="../../d2/da4/classDbSvc.html#abc037dbd5084422aacdfa76bd0e8d2b7" target="_top" xlink:title="DbSvc::CreateTable">
<polygon fill="none" stroke="black" points="172,-506.5 172,-525.5 274,-525.5 274,-506.5 172,-506.5"/>
<text text-anchor="middle" x="223" y="-513.5" font-family="FreeSans" font-size="10.00">DbSvc::CreateTable</text>
</a>
</g>
</g>
<!-- Node1&#45;&gt;Node4 -->
<g id="edge3" class="edge"><title>Node1&#45;&gt;Node4</title>
<path fill="none" stroke="midnightblue" d="M57.5949,-316.666C63.2883,-347.981 85.5948,-447.48 146,-497 150.901,-501.018 156.535,-504.202 162.474,-506.724"/>
<polygon fill="midnightblue" stroke="midnightblue" points="161.4,-510.057 171.995,-510.165 163.78,-503.474 161.4,-510.057"/>
</g>
<!-- Node5 -->
<g id="node5" class="node"><title>Node5</title>
<g id="a_node5"><a xlink:href="../../d7/db7/classSQRun.html#ae83d74ca885e77505a549171dcc3e95f" target="_top" xlink:title="SQRun::get_fpga_enabled">
<polygon fill="none" stroke="black" points="158.5,-468.5 158.5,-487.5 287.5,-487.5 287.5,-468.5 158.5,-468.5"/>
<text text-anchor="middle" x="223" y="-475.5" font-family="FreeSans" font-size="10.00">SQRun::get_fpga_enabled</text>
</a>
</g>
</g>
<!-- Node1&#45;&gt;Node5 -->
<g id="edge4" class="edge"><title>Node1&#45;&gt;Node5</title>
<path fill="none" stroke="midnightblue" d="M58.7905,-316.615C67.1441,-343.623 94.6117,-420.692 146,-459 148.535,-460.89 151.237,-462.593 154.054,-464.128"/>
<polygon fill="midnightblue" stroke="midnightblue" points="152.837,-467.423 163.379,-468.481 155.798,-461.08 152.837,-467.423"/>
</g>
<!-- Node6 -->
<g id="node6" class="node"><title>Node6</title>
<g id="a_node6"><a xlink:href="../../d7/db7/classSQRun.html#afa2b768b44219c834ef0d22a968c0536" target="_top" xlink:title="SQRun::get_fpga_prescale">
<polygon fill="none" stroke="black" points="157.5,-430.5 157.5,-449.5 288.5,-449.5 288.5,-430.5 157.5,-430.5"/>
<text text-anchor="middle" x="223" y="-437.5" font-family="FreeSans" font-size="10.00">SQRun::get_fpga_prescale</text>
</a>
</g>
</g>
<!-- Node1&#45;&gt;Node6 -->
<g id="edge5" class="edge"><title>Node1&#45;&gt;Node6</title>
<path fill="none" stroke="midnightblue" d="M60.783,-316.716C72.2265,-338.902 103.431,-393.49 146,-421 149.311,-423.14 152.846,-425.038 156.513,-426.723"/>
<polygon fill="midnightblue" stroke="midnightblue" points="155.261,-429.992 165.844,-430.486 157.879,-423.5 155.261,-429.992"/>
</g>
<!-- Node7 -->
<g id="node7" class="node"><title>Node7</title>
<g id="a_node7"><a xlink:href="../../d7/db7/classSQRun.html#af4311adcc7271be0ccde700d50150ed6" target="_top" xlink:title="SQRun::get_n_evt_all">
<polygon fill="none" stroke="black" points="168,-392.5 168,-411.5 278,-411.5 278,-392.5 168,-392.5"/>
<text text-anchor="middle" x="223" y="-399.5" font-family="FreeSans" font-size="10.00">SQRun::get_n_evt_all</text>
</a>
</g>
</g>
<!-- Node1&#45;&gt;Node7 -->
<g id="edge6" class="edge"><title>Node1&#45;&gt;Node7</title>
<path fill="none" stroke="midnightblue" d="M64.4326,-316.53C79.2809,-332.706 111.776,-365.481 146,-383 150.574,-385.341 155.453,-387.406 160.448,-389.223"/>
<polygon fill="midnightblue" stroke="midnightblue" points="159.553,-392.613 170.146,-392.423 161.746,-385.966 159.553,-392.613"/>
</g>
<!-- Node8 -->
<g id="node8" class="node"><title>Node8</title>
<g id="a_node8"><a xlink:href="../../d7/db7/classSQRun.html#af8af494d17ec14a3a7773beadca02231" target="_top" xlink:title="SQRun::get_n_evt_dec">
<polygon fill="none" stroke="black" points="165,-354.5 165,-373.5 281,-373.5 281,-354.5 165,-354.5"/>
<text text-anchor="middle" x="223" y="-361.5" font-family="FreeSans" font-size="10.00">SQRun::get_n_evt_dec</text>
</a>
</g>
</g>
<!-- Node1&#45;&gt;Node8 -->
<g id="edge7" class="edge"><title>Node1&#45;&gt;Node8</title>
<path fill="none" stroke="midnightblue" d="M76.0304,-316.513C94.046,-324.814 121.386,-336.782 146,-345 153.438,-347.483 161.381,-349.812 169.223,-351.929"/>
<polygon fill="midnightblue" stroke="midnightblue" points="168.499,-355.357 179.058,-354.494 170.265,-348.584 168.499,-355.357"/>
</g>
<!-- Node9 -->
<g id="node9" class="node"><title>Node9</title>
<g id="a_node9"><a xlink:href="../../d7/db7/classSQRun.html#a1801d7cae6cae837b9e3ba0224da5ba9" target="_top" xlink:title="SQRun::get_n_spill">
<polygon fill="none" stroke="black" points="174,-316.5 174,-335.5 272,-335.5 272,-316.5 174,-316.5"/>
<text text-anchor="middle" x="223" y="-323.5" font-family="FreeSans" font-size="10.00">SQRun::get_n_spill</text>
</a>
</g>
</g>
<!-- Node1&#45;&gt;Node9 -->
<g id="edge8" class="edge"><title>Node1&#45;&gt;Node9</title>
<path fill="none" stroke="midnightblue" d="M110.355,-313.221C127.507,-315.185 146.519,-317.361 163.921,-319.352"/>
<polygon fill="midnightblue" stroke="midnightblue" points="163.621,-322.841 173.955,-320.501 164.417,-315.886 163.621,-322.841"/>
</g>
<!-- Node10 -->
<g id="node10" class="node"><title>Node10</title>
<g id="a_node10"><a xlink:href="../../d7/db7/classSQRun.html#a5d6343f4e6ab60d612b28a5edb2ee2e3" target="_top" xlink:title="SQRun::get_nim_enabled">
<polygon fill="none" stroke="black" points="160,-278.5 160,-297.5 286,-297.5 286,-278.5 160,-278.5"/>
<text text-anchor="middle" x="223" y="-285.5" font-family="FreeSans" font-size="10.00">SQRun::get_nim_enabled</text>
</a>
</g>
</g>
<!-- Node1&#45;&gt;Node10 -->
<g id="edge9" class="edge"><title>Node1&#45;&gt;Node10</title>
<path fill="none" stroke="midnightblue" d="M110.355,-300.779C122.938,-299.338 136.522,-297.784 149.738,-296.271"/>
<polygon fill="midnightblue" stroke="midnightblue" points="150.212,-299.74 159.749,-295.125 149.416,-292.785 150.212,-299.74"/>
</g>
<!-- Node11 -->
<g id="node11" class="node"><title>Node11</title>
<g id="a_node11"><a xlink:href="../../d7/db7/classSQRun.html#a2c1a18d5f0531b1b923093f2e2e46785" target="_top" xlink:title="SQRun::get_nim_prescale">
<polygon fill="none" stroke="black" points="159,-240.5 159,-259.5 287,-259.5 287,-240.5 159,-240.5"/>
<text text-anchor="middle" x="223" y="-247.5" font-family="FreeSans" font-size="10.00">SQRun::get_nim_prescale</text>
</a>
</g>
</g>
<!-- Node1&#45;&gt;Node11 -->
<g id="edge10" class="edge"><title>Node1&#45;&gt;Node11</title>
<path fill="none" stroke="midnightblue" d="M76.0304,-297.487C94.046,-289.186 121.386,-277.218 146,-269 153.438,-266.517 161.381,-264.188 169.223,-262.071"/>
<polygon fill="midnightblue" stroke="midnightblue" points="170.265,-265.416 179.058,-259.506 168.499,-258.643 170.265,-265.416"/>
</g>
<!-- Node12 -->
<g id="node12" class="node"><title>Node12</title>
<g id="a_node12"><a xlink:href="../../d7/db7/classSQRun.html#a531e051f0da88b4930023c4725853dd9" target="_top" xlink:title="SQRun::get_run_id">
<polygon fill="none" stroke="black" points="174,-202.5 174,-221.5 272,-221.5 272,-202.5 174,-202.5"/>
<text text-anchor="middle" x="223" y="-209.5" font-family="FreeSans" font-size="10.00">SQRun::get_run_id</text>
</a>
</g>
</g>
<!-- Node1&#45;&gt;Node12 -->
<g id="edge11" class="edge"><title>Node1&#45;&gt;Node12</title>
<path fill="none" stroke="midnightblue" d="M64.4326,-297.47C79.2809,-281.294 111.776,-248.519 146,-231 151.641,-228.112 157.746,-225.647 163.96,-223.545"/>
<polygon fill="midnightblue" stroke="midnightblue" points="165.231,-226.816 173.762,-220.533 163.175,-220.124 165.231,-226.816"/>
</g>
<!-- Node13 -->
<g id="node13" class="node"><title>Node13</title>
<g id="a_node13"><a xlink:href="../../d7/db7/classSQRun.html#aac7f209aa17fe470c433a72bda370f3f" target="_top" xlink:title="SQRun::get_unix_time\l_begin">
<polygon fill="none" stroke="black" points="166.5,-153 166.5,-183 279.5,-183 279.5,-153 166.5,-153"/>
<text text-anchor="start" x="174.5" y="-171" font-family="FreeSans" font-size="10.00">SQRun::get_unix_time</text>
<text text-anchor="middle" x="223" y="-160" font-family="FreeSans" font-size="10.00">_begin</text>
</a>
</g>
</g>
<!-- Node1&#45;&gt;Node13 -->
<g id="edge12" class="edge"><title>Node1&#45;&gt;Node13</title>
<path fill="none" stroke="midnightblue" d="M60.9256,-297.497C72.6689,-275.756 104.461,-222.042 146,-193 149.458,-190.582 153.165,-188.387 157.014,-186.394"/>
<polygon fill="midnightblue" stroke="midnightblue" points="158.62,-189.507 166.2,-182.105 155.659,-183.164 158.62,-189.507"/>
</g>
<!-- Node14 -->
<g id="node14" class="node"><title>Node14</title>
<g id="a_node14"><a xlink:href="../../d7/db7/classSQRun.html#a66cecc9754f2a8fd458cafdbf215b7a7" target="_top" xlink:title="SQRun::get_unix_time_end">
<polygon fill="none" stroke="black" points="156,-114.5 156,-133.5 290,-133.5 290,-114.5 156,-114.5"/>
<text text-anchor="middle" x="223" y="-121.5" font-family="FreeSans" font-size="10.00">SQRun::get_unix_time_end</text>
</a>
</g>
</g>
<!-- Node1&#45;&gt;Node14 -->
<g id="edge13" class="edge"><title>Node1&#45;&gt;Node14</title>
<path fill="none" stroke="midnightblue" d="M58.4861,-297.144C66.1925,-268.677 92.4478,-185.718 146,-144 148.973,-141.684 152.19,-139.634 155.563,-137.822"/>
<polygon fill="midnightblue" stroke="midnightblue" points="157.187,-140.927 164.796,-133.554 154.25,-134.573 157.187,-140.927"/>
</g>
<!-- Node15 -->
<g id="node15" class="node"><title>Node15</title>
<g id="a_node15"><a xlink:href="../../df/da2/classUtilOnline.html#a00d1fcb82a573b7108b27d67e4320b63" target="_top" xlink:title="UtilOnline::GetSchemaMainDaq">
<polygon fill="none" stroke="black" points="146.5,-76.5 146.5,-95.5 299.5,-95.5 299.5,-76.5 146.5,-76.5"/>
<text text-anchor="middle" x="223" y="-83.5" font-family="FreeSans" font-size="10.00">UtilOnline::GetSchemaMainDaq</text>
</a>
</g>
</g>
<!-- Node1&#45;&gt;Node15 -->
<g id="edge14" class="edge"><title>Node1&#45;&gt;Node15</title>
<path fill="none" stroke="midnightblue" d="M57.3211,-297.199C62.2685,-264.477 82.777,-158.07 146,-105 148.005,-103.317 150.139,-101.779 152.37,-100.375"/>
<polygon fill="midnightblue" stroke="midnightblue" points="154.196,-103.368 161.394,-95.5935 150.919,-97.1829 154.196,-103.368"/>
</g>
<!-- Node16 -->
<g id="node16" class="node"><title>Node16</title>
<g id="a_node16"><a xlink:href="../../d2/da4/classDbSvc.html#af7e30673551b9cbc6d0ad9e37e4ec35b" target="_top" xlink:title="DbSvc::HasTable">
<polygon fill="none" stroke="black" points="178,-38.5 178,-57.5 268,-57.5 268,-38.5 178,-38.5"/>
<text text-anchor="middle" x="223" y="-45.5" font-family="FreeSans" font-size="10.00">DbSvc::HasTable</text>
</a>
</g>
</g>
<!-- Node1&#45;&gt;Node16 -->
<g id="edge15" class="edge"><title>Node1&#45;&gt;Node16</title>
<path fill="none" stroke="midnightblue" d="M56.5396,-297.475C59.1155,-261.393 73.2817,-131.881 146,-67 152.346,-61.3381 160.126,-57.3085 168.261,-54.4517"/>
<polygon fill="midnightblue" stroke="midnightblue" points="169.307,-57.7925 177.91,-51.6092 167.328,-51.0779 169.307,-57.7925"/>
</g>
<!-- Node17 -->
<g id="node17" class="node"><title>Node17</title>
<g id="a_node17"><a xlink:href="../../d2/da4/classDbSvc.html#a7e4cc05e20e0a21eef9c185c34c51044" target="_top" xlink:title="DbSvc::UseSchema">
<polygon fill="none" stroke="black" points="172,-0.5 172,-19.5 274,-19.5 274,-0.5 172,-0.5"/>
<text text-anchor="middle" x="223" y="-7.5" font-family="FreeSans" font-size="10.00">DbSvc::UseSchema</text>
</a>
</g>
</g>
<!-- Node1&#45;&gt;Node17 -->
<g id="edge16" class="edge"><title>Node1&#45;&gt;Node17</title>
<path fill="none" stroke="midnightblue" d="M55.9891,-297.393C56.4907,-257.793 63.885,-105.704 146,-29 150.696,-24.6133 156.248,-21.1987 162.179,-18.5467"/>
<polygon fill="midnightblue" stroke="midnightblue" points="163.599,-21.7527 171.744,-14.977 161.151,-15.1945 163.599,-21.7527"/>
</g>
</g>
</svg>
