<?xml version="1.0" encoding="UTF-8" standalone="no"?>
<!DOCTYPE svg PUBLIC "-//W3C//DTD SVG 1.1//EN"
 "http://www.w3.org/Graphics/SVG/1.1/DTD/svg11.dtd">
<!-- Generated by graphviz version 2.40.1 (20161225.0304)
 -->
<!-- Title: TrkPar::get_z Pages: 1 -->
<svg width="282pt" height="66pt"
 viewBox="0.00 0.00 282.00 66.00" xmlns="http://www.w3.org/2000/svg" xmlns:xlink="http://www.w3.org/1999/xlink">
<g id="graph0" class="graph" transform="scale(1 1) rotate(0) translate(4 62)">
<title>TrkPar::get_z</title>
<!-- Node117 -->
<g id="node1" class="node">
<title>Node117</title>
<polygon fill="#bfbfbf" stroke="#000000" points="0,-19.5 0,-38.5 74,-38.5 74,-19.5 0,-19.5"/>
<text text-anchor="middle" x="37" y="-26.5" font-family="FreeSans" font-size="10.00" fill="#000000">TrkPar::get_z</text>
</g>
<!-- Node118 -->
<g id="node2" class="node">
<title>Node118</title>
<g id="a_node2"><a xlink:href="../../d9/dc3/classKalmanTrack.html#ae0ad1dd4a835dde92f944196df9e4c31" target="_top" xlink:title="KalmanTrack::getExpPosErrorFast">
<polygon fill="none" stroke="#000000" points="110,-38.5 110,-57.5 274,-57.5 274,-38.5 110,-38.5"/>
<text text-anchor="middle" x="192" y="-45.5" font-family="FreeSans" font-size="10.00" fill="#000000">KalmanTrack::getExpPosErrorFast</text>
</a>
</g>
</g>
<!-- Node117&#45;&gt;Node118 -->
<g id="edge1" class="edge">
<title>Node117&#45;&gt;Node118</title>
<path fill="none" stroke="#191970" d="M84.1888,-34.7844C93.7586,-35.9575 104.0603,-37.2203 114.3652,-38.4835"/>
<polygon fill="#191970" stroke="#191970" points="84.4779,-31.2938 74.1264,-33.551 83.6262,-38.2418 84.4779,-31.2938"/>
</g>
<!-- Node119 -->
<g id="node3" class="node">
<title>Node119</title>
<g id="a_node3"><a xlink:href="../../d9/dc3/classKalmanTrack.html#a289f9e2af2106f88f8c0e068705d2714" target="_top" xlink:title="KalmanTrack::getExpPositionFast">
<polygon fill="none" stroke="#000000" points="111.5,-.5 111.5,-19.5 272.5,-19.5 272.5,-.5 111.5,-.5"/>
<text text-anchor="middle" x="192" y="-7.5" font-family="FreeSans" font-size="10.00" fill="#000000">KalmanTrack::getExpPositionFast</text>
</a>
</g>
</g>
<!-- Node117&#45;&gt;Node119 -->
<g id="edge2" class="edge">
<title>Node117&#45;&gt;Node119</title>
<path fill="none" stroke="#191970" d="M84.1888,-23.2156C93.7586,-22.0425 104.0603,-20.7797 114.3652,-19.5165"/>
<polygon fill="#191970" stroke="#191970" points="83.6262,-19.7582 74.1264,-24.449 84.4779,-26.7062 83.6262,-19.7582"/>
</g>
</g>
</svg>
