<?xml version="1.0" encoding="UTF-8" standalone="no"?>
<!DOCTYPE svg PUBLIC "-//W3C//DTD SVG 1.1//EN"
 "http://www.w3.org/Graphics/SVG/1.1/DTD/svg11.dtd">
<!-- Generated by graphviz version 2.40.1 (20161225.0304)
 -->
<!-- Title: HepMCCompress::Init Pages: 1 -->
<svg width="443pt" height="164pt"
 viewBox="0.00 0.00 443.00 164.00" xmlns="http://www.w3.org/2000/svg" xmlns:xlink="http://www.w3.org/1999/xlink">
<g id="graph0" class="graph" transform="scale(1 1) rotate(0) translate(4 160)">
<title>HepMCCompress::Init</title>
<!-- Node20 -->
<g id="node1" class="node">
<title>Node20</title>
<polygon fill="#bfbfbf" stroke="#000000" points="0,-62.5 0,-81.5 110,-81.5 110,-62.5 0,-62.5"/>
<text text-anchor="middle" x="55" y="-69.5" font-family="FreeSans" font-size="10.00" fill="#000000">HepMCCompress::Init</text>
</g>
<!-- Node21 -->
<g id="node2" class="node">
<title>Node21</title>
<g id="a_node2"><a xlink:href="../../d5/dca/classPHCompositeNode.html#ac7dbf017614c324e218a001d729607bf" target="_top" xlink:title="PHCompositeNode::addNode">
<polygon fill="none" stroke="#000000" points="146,-106.5 146,-125.5 287,-125.5 287,-106.5 146,-106.5"/>
<text text-anchor="middle" x="216.5" y="-113.5" font-family="FreeSans" font-size="10.00" fill="#000000">PHCompositeNode::addNode</text>
</a>
</g>
</g>
<!-- Node20&#45;&gt;Node21 -->
<g id="edge1" class="edge">
<title>Node20&#45;&gt;Node21</title>
<path fill="none" stroke="#191970" d="M90.0431,-81.5473C113.9576,-88.0627 145.8469,-96.7508 171.6186,-103.7722"/>
<polygon fill="#191970" stroke="#191970" points="170.9569,-107.2195 181.5253,-106.4713 172.797,-100.4657 170.9569,-107.2195"/>
</g>
<!-- Node25 -->
<g id="node6" class="node">
<title>Node25</title>
<g id="a_node6"><a xlink:href="../../d3/dc5/classVariableArrayContainer.html#a4d0bc5581cf9c5f7947700b6b663801d" target="_top" xlink:title="VariableArrayContainer\l::AddVarArray">
<polygon fill="none" stroke="#000000" points="159,-57 159,-87 274,-87 274,-57 159,-57"/>
<text text-anchor="start" x="167" y="-75" font-family="FreeSans" font-size="10.00" fill="#000000">VariableArrayContainer</text>
<text text-anchor="middle" x="216.5" y="-64" font-family="FreeSans" font-size="10.00" fill="#000000">::AddVarArray</text>
</a>
</g>
</g>
<!-- Node20&#45;&gt;Node25 -->
<g id="edge5" class="edge">
<title>Node20&#45;&gt;Node25</title>
<path fill="none" stroke="#191970" d="M110.1274,-72C122.5291,-72 135.8303,-72 148.6827,-72"/>
<polygon fill="#191970" stroke="#191970" points="148.8681,-75.5001 158.8681,-72 148.8681,-68.5001 148.8681,-75.5001"/>
</g>
<!-- Node26 -->
<g id="node7" class="node">
<title>Node26</title>
<g id="a_node7"><a xlink:href="../../d5/d07/classPHNodeIterator.html#aea98bf8619af59b1212a94fb32106baa" target="_top" xlink:title="PHNodeIterator::findFirst">
<polygon fill="none" stroke="#000000" points="155.5,-.5 155.5,-19.5 277.5,-19.5 277.5,-.5 155.5,-.5"/>
<text text-anchor="middle" x="216.5" y="-7.5" font-family="FreeSans" font-size="10.00" fill="#000000">PHNodeIterator::findFirst</text>
</a>
</g>
</g>
<!-- Node20&#45;&gt;Node26 -->
<g id="edge6" class="edge">
<title>Node20&#45;&gt;Node26</title>
<path fill="none" stroke="#191970" d="M79.8804,-62.4484C107.2655,-51.9352 151.4656,-34.9668 182.1442,-23.1892"/>
<polygon fill="#191970" stroke="#191970" points="183.51,-26.414 191.5913,-19.5625 181.0012,-19.879 183.51,-26.414"/>
</g>
<!-- Node22 -->
<g id="node3" class="node">
<title>Node22</title>
<g id="a_node3"><a xlink:href="../../dc/d82/classPHNode.html#aa9c780cb75e143c50861c4a75ba8aeb6" target="_top" xlink:title="PHNode::getName">
<polygon fill="none" stroke="#000000" points="331,-53.5 331,-72.5 427,-72.5 427,-53.5 331,-53.5"/>
<text text-anchor="middle" x="379" y="-60.5" font-family="FreeSans" font-size="10.00" fill="#000000">PHNode::getName</text>
</a>
</g>
</g>
<!-- Node21&#45;&gt;Node22 -->
<g id="edge2" class="edge">
<title>Node21&#45;&gt;Node22</title>
<path fill="none" stroke="#191970" d="M251.784,-106.4978C263.0822,-103.3198 275.6123,-99.653 287,-96 306.0446,-89.8908 327.0549,-82.4117 344.1836,-76.1192"/>
<polygon fill="#191970" stroke="#191970" points="345.6115,-79.3228 353.776,-72.5707 343.1828,-72.7576 345.6115,-79.3228"/>
</g>
<!-- Node23 -->
<g id="node4" class="node">
<title>Node23</title>
<g id="a_node4"><a xlink:href="../../dc/d82/classPHNode.html#adda2bd6cef2d5067bbe3016a990b7198" target="_top" xlink:title="PHNode::setParent">
<polygon fill="none" stroke="#000000" points="330,-136.5 330,-155.5 428,-155.5 428,-136.5 330,-136.5"/>
<text text-anchor="middle" x="379" y="-143.5" font-family="FreeSans" font-size="10.00" fill="#000000">PHNode::setParent</text>
</a>
</g>
</g>
<!-- Node21&#45;&gt;Node23 -->
<g id="edge3" class="edge">
<title>Node21&#45;&gt;Node23</title>
<path fill="none" stroke="#191970" d="M268.3628,-125.5747C284.6698,-128.5852 302.802,-131.9327 319.5904,-135.0321"/>
<polygon fill="#191970" stroke="#191970" points="319.3723,-138.5509 329.8416,-136.9246 320.6432,-131.6672 319.3723,-138.5509"/>
</g>
<!-- Node24 -->
<g id="node5" class="node">
<title>Node24</title>
<g id="a_node5"><a xlink:href="../../d6/d86/classPHPointerList.html#af5fc4e6958b5b90c57bfb497566f503c" target="_top" xlink:title="PHPointerList::append">
<polygon fill="none" stroke="#000000" points="323,-98.5 323,-117.5 435,-117.5 435,-98.5 323,-98.5"/>
<text text-anchor="middle" x="379" y="-105.5" font-family="FreeSans" font-size="10.00" fill="#000000">PHPointerList::append</text>
</a>
</g>
</g>
<!-- Node21&#45;&gt;Node24 -->
<g id="edge4" class="edge">
<title>Node21&#45;&gt;Node24</title>
<path fill="none" stroke="#191970" d="M287.3022,-112.5144C295.6933,-112.1013 304.2355,-111.6807 312.563,-111.2707"/>
<polygon fill="#191970" stroke="#191970" points="312.7736,-114.7647 322.5894,-110.7771 312.4294,-107.7732 312.7736,-114.7647"/>
</g>
<!-- Node26&#45;&gt;Node22 -->
<g id="edge8" class="edge">
<title>Node26&#45;&gt;Node22</title>
<path fill="none" stroke="#191970" d="M245.9275,-19.5979C272.2719,-28.1902 311.0912,-40.8513 340.0115,-50.2837"/>
<polygon fill="#191970" stroke="#191970" points="339.199,-53.7001 349.7914,-53.4735 341.3696,-47.0452 339.199,-53.7001"/>
</g>
<!-- Node26&#45;&gt;Node26 -->
<g id="edge9" class="edge">
<title>Node26&#45;&gt;Node26</title>
<path fill="none" stroke="#191970" d="M191.8394,-19.7571C179.8423,-28.5653 188.0625,-38 216.5,-38 235.6064,-38 245.5865,-33.741 246.4401,-28.2746"/>
<polygon fill="#191970" stroke="#191970" points="249.404,-26.4128 241.1606,-19.7571 243.4542,-30.1007 249.404,-26.4128"/>
</g>
<!-- Node27 -->
<g id="node8" class="node">
<title>Node27</title>
<g id="a_node8"><a xlink:href="../../dc/d82/classPHNode.html#a2ad5efd9aead81422462224b33f5c0a9" target="_top" xlink:title="PHNode::getType">
<polygon fill="none" stroke="#000000" points="333,-.5 333,-19.5 425,-19.5 425,-.5 333,-.5"/>
<text text-anchor="middle" x="379" y="-7.5" font-family="FreeSans" font-size="10.00" fill="#000000">PHNode::getType</text>
</a>
</g>
</g>
<!-- Node26&#45;&gt;Node27 -->
<g id="edge7" class="edge">
<title>Node26&#45;&gt;Node27</title>
<path fill="none" stroke="#191970" d="M277.9343,-10C292.6159,-10 308.2168,-10 322.6559,-10"/>
<polygon fill="#191970" stroke="#191970" points="322.9348,-13.5001 332.9348,-10 322.9348,-6.5001 322.9348,-13.5001"/>
</g>
</g>
</svg>
