<?xml version="1.0" encoding="UTF-8" standalone="no"?>
<!DOCTYPE svg PUBLIC "-//W3C//DTD SVG 1.1//EN"
 "http://www.w3.org/Graphics/SVG/1.1/DTD/svg11.dtd">
<!-- Generated by graphviz version 2.40.1 (20161225.0304)
 -->
<!-- Title: PHG4DetectorGroupSubsystem::set_int_param Pages: 1 -->
<svg width="927pt" height="220pt"
 viewBox="0.00 0.00 927.00 220.00" xmlns="http://www.w3.org/2000/svg" xmlns:xlink="http://www.w3.org/1999/xlink">
<g id="graph0" class="graph" transform="scale(1 1) rotate(0) translate(4 216)">
<title>PHG4DetectorGroupSubsystem::set_int_param</title>
<!-- Node282 -->
<g id="node1" class="node">
<title>Node282</title>
<polygon fill="#bfbfbf" stroke="#000000" points="0,-88.5 0,-118.5 153,-118.5 153,-88.5 0,-88.5"/>
<text text-anchor="start" x="8" y="-106.5" font-family="FreeSans" font-size="10.00" fill="#000000">PHG4DetectorGroupSubsystem</text>
<text text-anchor="middle" x="76.5" y="-95.5" font-family="FreeSans" font-size="10.00" fill="#000000">::set_int_param</text>
</g>
<!-- Node283 -->
<g id="node2" class="node">
<title>Node283</title>
<g id="a_node2"><a xlink:href="../../d7/d7f/classPHG4DetectorGroupSubsystem.html#a56cbe5f15efc38960c8c9694e1e4b7c8" target="_top" xlink:title="PHG4DetectorGroupSubsystem\l::BlackHole">
<polygon fill="none" stroke="#000000" points="378,-132.5 378,-162.5 531,-162.5 531,-132.5 378,-132.5"/>
<text text-anchor="start" x="386" y="-150.5" font-family="FreeSans" font-size="10.00" fill="#000000">PHG4DetectorGroupSubsystem</text>
<text text-anchor="middle" x="454.5" y="-139.5" font-family="FreeSans" font-size="10.00" fill="#000000">::BlackHole</text>
</a>
</g>
</g>
<!-- Node282&#45;&gt;Node283 -->
<g id="edge1" class="edge">
<title>Node282&#45;&gt;Node283</title>
<path fill="none" stroke="#191970" d="M146.414,-120.7076C160.4475,-123.6884 175.1402,-126.4753 189,-128.5 252.2166,-137.7348 324.5854,-142.5365 377.7846,-144.9999"/>
<polygon fill="#191970" stroke="#191970" points="146.8492,-117.2203 136.3332,-118.5109 145.3587,-124.0598 146.8492,-117.2203"/>
</g>
<!-- Node285 -->
<g id="node4" class="node">
<title>Node285</title>
<g id="a_node4"><a xlink:href="../../d7/d7f/classPHG4DetectorGroupSubsystem.html#a93eb9a18aecf29852626dbe9288f35bb" target="_top" xlink:title="PHG4DetectorGroupSubsystem\l::GetParamsContainer">
<polygon fill="none" stroke="#000000" points="189,-178.5 189,-208.5 342,-208.5 342,-178.5 189,-178.5"/>
<text text-anchor="start" x="197" y="-196.5" font-family="FreeSans" font-size="10.00" fill="#000000">PHG4DetectorGroupSubsystem</text>
<text text-anchor="middle" x="265.5" y="-185.5" font-family="FreeSans" font-size="10.00" fill="#000000">::GetParamsContainer</text>
</a>
</g>
</g>
<!-- Node282&#45;&gt;Node285 -->
<g id="edge3" class="edge">
<title>Node282&#45;&gt;Node285</title>
<path fill="none" stroke="#191970" d="M113.311,-123.4206C135.1059,-134.9773 163.3811,-149.561 189,-161.5 201.527,-167.3379 215.4166,-173.2973 227.8852,-178.4663"/>
<polygon fill="#191970" stroke="#191970" points="114.8651,-120.2828 104.3938,-118.6695 111.5735,-126.4607 114.8651,-120.2828"/>
</g>
<!-- Node289 -->
<g id="node8" class="node">
<title>Node289</title>
<g id="a_node8"><a xlink:href="../../d7/d7f/classPHG4DetectorGroupSubsystem.html#a647213a2db245e8c859370ca0897ed23" target="_top" xlink:title="PHG4DetectorGroupSubsystem\l::SetAbsorberActive">
<polygon fill="none" stroke="#000000" points="378,-44.5 378,-74.5 531,-74.5 531,-44.5 378,-44.5"/>
<text text-anchor="start" x="386" y="-62.5" font-family="FreeSans" font-size="10.00" fill="#000000">PHG4DetectorGroupSubsystem</text>
<text text-anchor="middle" x="454.5" y="-51.5" font-family="FreeSans" font-size="10.00" fill="#000000">::SetAbsorberActive</text>
</a>
</g>
</g>
<!-- Node282&#45;&gt;Node289 -->
<g id="edge8" class="edge">
<title>Node282&#45;&gt;Node289</title>
<path fill="none" stroke="#191970" d="M149.5005,-86.432C162.5969,-83.7976 176.1617,-81.3444 189,-79.5 252.2557,-70.4126 324.6213,-65.3075 377.8094,-62.5337"/>
<polygon fill="#191970" stroke="#191970" points="148.6834,-83.0267 139.5966,-88.4748 150.0975,-89.8824 148.6834,-83.0267"/>
</g>
<!-- Node290 -->
<g id="node9" class="node">
<title>Node290</title>
<g id="a_node9"><a xlink:href="../../d7/d7f/classPHG4DetectorGroupSubsystem.html#a5bf08c640a7ccb29c6230e009d144a11" target="_top" xlink:title="PHG4DetectorGroupSubsystem\l::SetAbsorberTruth">
<polygon fill="none" stroke="#000000" points="189,-.5 189,-30.5 342,-30.5 342,-.5 189,-.5"/>
<text text-anchor="start" x="197" y="-18.5" font-family="FreeSans" font-size="10.00" fill="#000000">PHG4DetectorGroupSubsystem</text>
<text text-anchor="middle" x="265.5" y="-7.5" font-family="FreeSans" font-size="10.00" fill="#000000">::SetAbsorberTruth</text>
</a>
</g>
</g>
<!-- Node282&#45;&gt;Node290 -->
<g id="edge10" class="edge">
<title>Node282&#45;&gt;Node290</title>
<path fill="none" stroke="#191970" d="M112.7695,-83.6022C134.5893,-71.9342 163.0735,-57.2299 189,-45.5 200.4379,-40.3252 213.0518,-35.1631 224.6817,-30.6165"/>
<polygon fill="#191970" stroke="#191970" points="111.0011,-80.5791 103.853,-88.3993 114.3177,-86.7436 111.0011,-80.5791"/>
</g>
<!-- Node291 -->
<g id="node10" class="node">
<title>Node291</title>
<g id="a_node10"><a xlink:href="../../d7/d7f/classPHG4DetectorGroupSubsystem.html#ac6d2c4fb6ba110085d0ca90a8f039e66" target="_top" xlink:title="PHG4DetectorGroupSubsystem\l::SetActive">
<polygon fill="none" stroke="#000000" points="189,-88.5 189,-118.5 342,-118.5 342,-88.5 189,-88.5"/>
<text text-anchor="start" x="197" y="-106.5" font-family="FreeSans" font-size="10.00" fill="#000000">PHG4DetectorGroupSubsystem</text>
<text text-anchor="middle" x="265.5" y="-95.5" font-family="FreeSans" font-size="10.00" fill="#000000">::SetActive</text>
</a>
</g>
</g>
<!-- Node282&#45;&gt;Node291 -->
<g id="edge12" class="edge">
<title>Node282&#45;&gt;Node291</title>
<path fill="none" stroke="#191970" d="M163.1039,-103.5C171.6735,-103.5 180.3304,-103.5 188.7899,-103.5"/>
<polygon fill="#191970" stroke="#191970" points="163.1011,-100.0001 153.1011,-103.5 163.101,-107.0001 163.1011,-100.0001"/>
</g>
<!-- Node284 -->
<g id="node3" class="node">
<title>Node284</title>
<g id="a_node3"><a xlink:href="../../d7/d7f/classPHG4DetectorGroupSubsystem.html#a0dd2543b0f1bc2073c5596cf3aaffdbd" target="_top" xlink:title="PHG4DetectorGroupSubsystem\l::SetCalibrationFileDir">
<polygon fill="none" stroke="#000000" points="567,-88.5 567,-118.5 720,-118.5 720,-88.5 567,-88.5"/>
<text text-anchor="start" x="575" y="-106.5" font-family="FreeSans" font-size="10.00" fill="#000000">PHG4DetectorGroupSubsystem</text>
<text text-anchor="middle" x="643.5" y="-95.5" font-family="FreeSans" font-size="10.00" fill="#000000">::SetCalibrationFileDir</text>
</a>
</g>
</g>
<!-- Node283&#45;&gt;Node284 -->
<g id="edge2" class="edge">
<title>Node283&#45;&gt;Node284</title>
<path fill="none" stroke="#191970" d="M529.1416,-130.1231C545.612,-126.2888 562.9251,-122.2582 578.9556,-118.5262"/>
<polygon fill="#191970" stroke="#191970" points="527.9604,-126.8044 519.0145,-132.4808 529.5476,-133.6221 527.9604,-126.8044"/>
</g>
<!-- Node286 -->
<g id="node5" class="node">
<title>Node286</title>
<g id="a_node5"><a xlink:href="../../d7/d7f/classPHG4DetectorGroupSubsystem.html#a388dbfc8434dc9dce81adcce6b031bd8" target="_top" xlink:title="PHG4DetectorGroupSubsystem\l::UpdateParametersWithMacro">
<polygon fill="none" stroke="#000000" points="378,-181.5 378,-211.5 531,-211.5 531,-181.5 378,-181.5"/>
<text text-anchor="start" x="386" y="-199.5" font-family="FreeSans" font-size="10.00" fill="#000000">PHG4DetectorGroupSubsystem</text>
<text text-anchor="middle" x="454.5" y="-188.5" font-family="FreeSans" font-size="10.00" fill="#000000">::UpdateParametersWithMacro</text>
</a>
</g>
</g>
<!-- Node285&#45;&gt;Node286 -->
<g id="edge4" class="edge">
<title>Node285&#45;&gt;Node286</title>
<path fill="none" stroke="#191970" d="M352.1039,-194.8747C360.6735,-195.0107 369.3304,-195.1481 377.7899,-195.2824"/>
<polygon fill="#191970" stroke="#191970" points="352.1554,-191.3751 342.1011,-194.7159 352.0442,-198.3743 352.1554,-191.3751"/>
</g>
<!-- Node286&#45;&gt;Node284 -->
<g id="edge7" class="edge">
<title>Node286&#45;&gt;Node284</title>
<path fill="none" stroke="#191970" d="M517.6555,-178.056C522.2212,-176.3062 526.7123,-174.4513 531,-172.5 564.5753,-157.22 600.4155,-133.8683 622.392,-118.6412"/>
<polygon fill="#191970" stroke="#191970" points="516.4156,-174.7826 508.2202,-181.4973 518.8142,-181.3588 516.4156,-174.7826"/>
</g>
<!-- Node287 -->
<g id="node6" class="node">
<title>Node287</title>
<g id="a_node6"><a xlink:href="../../d7/d7f/classPHG4DetectorGroupSubsystem.html#a9c1bbc352e506b9b598fcd4d34ea279e" target="_top" xlink:title="PHG4DetectorGroupSubsystem\l::InitRun">
<polygon fill="none" stroke="#000000" points="567,-181.5 567,-211.5 720,-211.5 720,-181.5 567,-181.5"/>
<text text-anchor="start" x="575" y="-199.5" font-family="FreeSans" font-size="10.00" fill="#000000">PHG4DetectorGroupSubsystem</text>
<text text-anchor="middle" x="643.5" y="-188.5" font-family="FreeSans" font-size="10.00" fill="#000000">::InitRun</text>
</a>
</g>
</g>
<!-- Node286&#45;&gt;Node287 -->
<g id="edge5" class="edge">
<title>Node286&#45;&gt;Node287</title>
<path fill="none" stroke="#191970" d="M541.1039,-196.5C549.6735,-196.5 558.3304,-196.5 566.7899,-196.5"/>
<polygon fill="#191970" stroke="#191970" points="541.1011,-193.0001 531.1011,-196.5 541.101,-200.0001 541.1011,-193.0001"/>
</g>
<!-- Node288 -->
<g id="node7" class="node">
<title>Node288</title>
<g id="a_node7"><a xlink:href="../../d7/d7f/classPHG4DetectorGroupSubsystem.html#a89dbb6c5e0e38a3602360ac00839bbf4" target="_top" xlink:title="PHG4DetectorGroupSubsystem\l::~PHG4DetectorGroupSubsystem">
<polygon fill="none" stroke="#000000" points="756,-181.5 756,-211.5 919,-211.5 919,-181.5 756,-181.5"/>
<text text-anchor="start" x="764" y="-199.5" font-family="FreeSans" font-size="10.00" fill="#000000">PHG4DetectorGroupSubsystem</text>
<text text-anchor="middle" x="837.5" y="-188.5" font-family="FreeSans" font-size="10.00" fill="#000000">::~PHG4DetectorGroupSubsystem</text>
</a>
</g>
</g>
<!-- Node287&#45;&gt;Node288 -->
<g id="edge6" class="edge">
<title>Node287&#45;&gt;Node288</title>
<path fill="none" stroke="#191970" d="M730.1758,-196.5C738.7524,-196.5 747.4379,-196.5 755.96,-196.5"/>
<polygon fill="#191970" stroke="#191970" points="730.174,-193.0001 720.1739,-196.5 730.1739,-200.0001 730.174,-193.0001"/>
</g>
<!-- Node289&#45;&gt;Node284 -->
<g id="edge9" class="edge">
<title>Node289&#45;&gt;Node284</title>
<path fill="none" stroke="#191970" d="M529.1416,-76.8769C545.612,-80.7112 562.9251,-84.7418 578.9556,-88.4738"/>
<polygon fill="#191970" stroke="#191970" points="529.5476,-73.3779 519.0145,-74.5192 527.9604,-80.1956 529.5476,-73.3779"/>
</g>
<!-- Node290&#45;&gt;Node284 -->
<g id="edge11" class="edge">
<title>Node290&#45;&gt;Node284</title>
<path fill="none" stroke="#191970" d="M352.2644,-11.9589C405.0952,-12.2513 473.2984,-17.0526 531,-35.5 567.0851,-47.0366 603.6754,-72.2037 624.9429,-88.4734"/>
<polygon fill="#191970" stroke="#191970" points="352.2492,-8.459 342.2482,-11.9561 352.2472,-15.459 352.2492,-8.459"/>
</g>
<!-- Node291&#45;&gt;Node284 -->
<g id="edge13" class="edge">
<title>Node291&#45;&gt;Node284</title>
<path fill="none" stroke="#191970" d="M352.6404,-103.5C417.4,-103.5 504.9117,-103.5 566.9816,-103.5"/>
<polygon fill="#191970" stroke="#191970" points="352.4496,-100.0001 342.4496,-103.5 352.4495,-107.0001 352.4496,-100.0001"/>
</g>
</g>
</svg>
