<?xml version="1.0" encoding="UTF-8" standalone="no"?>
<!DOCTYPE svg PUBLIC "-//W3C//DTD SVG 1.1//EN"
 "http://www.w3.org/Graphics/SVG/1.1/DTD/svg11.dtd">
<!-- Generated by graphviz version 2.36.0 (20140111.2315)
 -->
<!-- Title: PHG4DetectorGroupSubsystem::InitializeParameters Pages: 1 -->
<svg width="356pt" height="371pt"
 viewBox="0.00 0.00 356.00 371.00" xmlns="http://www.w3.org/2000/svg" xmlns:xlink="http://www.w3.org/1999/xlink">
<g id="graph0" class="graph" transform="scale(1 1) rotate(0) translate(4 367)">
<title>PHG4DetectorGroupSubsystem::InitializeParameters</title>
<!-- Node1 -->
<g id="node1" class="node"><title>Node1</title>
<polygon fill="#bfbfbf" stroke="black" points="0.5,-171 0.5,-201 155.5,-201 155.5,-171 0.5,-171"/>
<text text-anchor="start" x="8.5" y="-189" font-family="FreeSans" font-size="10.00">PHG4DetectorGroupSubsystem</text>
<text text-anchor="middle" x="78" y="-178" font-family="FreeSans" font-size="10.00">::InitializeParameters</text>
</g>
<!-- Node2 -->
<g id="node2" class="node"><title>Node2</title>
<g id="a_node2"><a xlink:href="../../d5/d5f/classPHG4ParametersContainer.html#a4a75fbc12b4219993210c82c1fb4f165" target="_top" xlink:title="PHG4ParametersContainer\l::AddPHG4Parameters">
<polygon fill="none" stroke="black" points="202.5,-333 202.5,-363 337.5,-363 337.5,-333 202.5,-333"/>
<text text-anchor="start" x="210.5" y="-351" font-family="FreeSans" font-size="10.00">PHG4ParametersContainer</text>
<text text-anchor="middle" x="270" y="-340" font-family="FreeSans" font-size="10.00">::AddPHG4Parameters</text>
</a>
</g>
</g>
<!-- Node1&#45;&gt;Node2 -->
<g id="edge1" class="edge"><title>Node1&#45;&gt;Node2</title>
<path fill="none" stroke="midnightblue" d="M87.4801,-201.162C103.968,-229.286 143.06,-289.696 192,-323 194.936,-324.998 198.042,-326.845 201.257,-328.551"/>
<polygon fill="midnightblue" stroke="midnightblue" points="200.02,-331.839 210.551,-332.997 203.04,-325.525 200.02,-331.839"/>
</g>
<!-- Node3 -->
<g id="node3" class="node"><title>Node3</title>
<g id="a_node3"><a xlink:href="../../d5/d5f/classPHG4ParametersContainer.html#ad8e3be7b9f2dfbeda9b7fa524e6e637d" target="_top" xlink:title="PHG4ParametersContainer\l::GetParametersToModify">
<polygon fill="none" stroke="black" points="202.5,-284 202.5,-314 337.5,-314 337.5,-284 202.5,-284"/>
<text text-anchor="start" x="210.5" y="-302" font-family="FreeSans" font-size="10.00">PHG4ParametersContainer</text>
<text text-anchor="middle" x="270" y="-291" font-family="FreeSans" font-size="10.00">::GetParametersToModify</text>
</a>
</g>
</g>
<!-- Node1&#45;&gt;Node3 -->
<g id="edge2" class="edge"><title>Node1&#45;&gt;Node3</title>
<path fill="none" stroke="midnightblue" d="M94.5902,-201.061C115.313,-220.356 153.781,-253.722 192,-274 196.202,-276.229 200.639,-278.306 205.175,-280.232"/>
<polygon fill="midnightblue" stroke="midnightblue" points="203.996,-283.53 214.581,-283.973 206.582,-277.025 203.996,-283.53"/>
</g>
<!-- Node4 -->
<g id="node4" class="node"><title>Node4</title>
<g id="a_node4"><a xlink:href="../../d5/dec/classFun4AllBase.html#a41f9ac377743d046f590617fd6f4f0ed" target="_top" xlink:title="Returns the name of this module. ">
<polygon fill="none" stroke="black" points="218.5,-245.5 218.5,-264.5 321.5,-264.5 321.5,-245.5 218.5,-245.5"/>
<text text-anchor="middle" x="270" y="-252.5" font-family="FreeSans" font-size="10.00">Fun4AllBase::Name</text>
</a>
</g>
</g>
<!-- Node1&#45;&gt;Node4 -->
<g id="edge3" class="edge"><title>Node1&#45;&gt;Node4</title>
<path fill="none" stroke="midnightblue" d="M110.143,-201.061C132.553,-211.512 163.695,-225.253 192,-235 200.255,-237.843 209.128,-240.501 217.81,-242.892"/>
<polygon fill="midnightblue" stroke="midnightblue" points="216.924,-246.278 227.489,-245.475 218.729,-239.515 216.924,-246.278"/>
</g>
<!-- Node5 -->
<g id="node5" class="node"><title>Node5</title>
<g id="a_node5"><a xlink:href="../../d7/d7f/classPHG4DetectorGroupSubsystem.html#ab9097e7e005eb194daa206f2be1855c6" target="_top" xlink:title="PHG4DetectorGroupSubsystem\l::set_default_int_param">
<polygon fill="none" stroke="black" points="192.5,-196 192.5,-226 347.5,-226 347.5,-196 192.5,-196"/>
<text text-anchor="start" x="200.5" y="-214" font-family="FreeSans" font-size="10.00">PHG4DetectorGroupSubsystem</text>
<text text-anchor="middle" x="270" y="-203" font-family="FreeSans" font-size="10.00">::set_default_int_param</text>
</a>
</g>
</g>
<!-- Node1&#45;&gt;Node5 -->
<g id="edge4" class="edge"><title>Node1&#45;&gt;Node5</title>
<path fill="none" stroke="midnightblue" d="M155.733,-196.096C164.488,-197.248 173.458,-198.429 182.331,-199.596"/>
<polygon fill="midnightblue" stroke="midnightblue" points="181.919,-203.072 192.29,-200.907 182.832,-196.132 181.919,-203.072"/>
</g>
<!-- Node6 -->
<g id="node6" class="node"><title>Node6</title>
<g id="a_node6"><a xlink:href="../../da/d29/classPHG4Parameters.html#a40d8acd8a8c5475928d5b5dacf38f583" target="_top" xlink:title="PHG4Parameters::set\l_double_param">
<polygon fill="none" stroke="black" points="214,-147 214,-177 326,-177 326,-147 214,-147"/>
<text text-anchor="start" x="222" y="-165" font-family="FreeSans" font-size="10.00">PHG4Parameters::set</text>
<text text-anchor="middle" x="270" y="-154" font-family="FreeSans" font-size="10.00">_double_param</text>
</a>
</g>
</g>
<!-- Node1&#45;&gt;Node6 -->
<g id="edge5" class="edge"><title>Node1&#45;&gt;Node6</title>
<path fill="none" stroke="midnightblue" d="M155.733,-176.307C171.7,-174.29 188.384,-172.183 203.885,-170.225"/>
<polygon fill="midnightblue" stroke="midnightblue" points="204.399,-173.688 213.882,-168.962 203.522,-166.743 204.399,-173.688"/>
</g>
<!-- Node7 -->
<g id="node7" class="node"><title>Node7</title>
<g id="a_node7"><a xlink:href="../../da/d29/classPHG4Parameters.html#a6d831f6d8c5f18dcbbf66236e973dd1f" target="_top" xlink:title="PHG4Parameters::set\l_int_param">
<polygon fill="none" stroke="black" points="214,-98 214,-128 326,-128 326,-98 214,-98"/>
<text text-anchor="start" x="222" y="-116" font-family="FreeSans" font-size="10.00">PHG4Parameters::set</text>
<text text-anchor="middle" x="270" y="-105" font-family="FreeSans" font-size="10.00">_int_param</text>
</a>
</g>
</g>
<!-- Node1&#45;&gt;Node7 -->
<g id="edge6" class="edge"><title>Node1&#45;&gt;Node7</title>
<path fill="none" stroke="midnightblue" d="M112.312,-170.939C134.653,-161.065 164.848,-148.152 192,-138 197.961,-135.771 204.223,-133.548 210.492,-131.4"/>
<polygon fill="midnightblue" stroke="midnightblue" points="211.947,-134.603 220.307,-128.094 209.713,-127.969 211.947,-134.603"/>
</g>
<!-- Node8 -->
<g id="node8" class="node"><title>Node8</title>
<g id="a_node8"><a xlink:href="../../da/d29/classPHG4Parameters.html#ac0ae53e353d265af89ecb5ef10d9da3e" target="_top" xlink:title="PHG4Parameters::set\l_string_param">
<polygon fill="none" stroke="black" points="214,-49 214,-79 326,-79 326,-49 214,-49"/>
<text text-anchor="start" x="222" y="-67" font-family="FreeSans" font-size="10.00">PHG4Parameters::set</text>
<text text-anchor="middle" x="270" y="-56" font-family="FreeSans" font-size="10.00">_string_param</text>
</a>
</g>
</g>
<!-- Node1&#45;&gt;Node8 -->
<g id="edge7" class="edge"><title>Node1&#45;&gt;Node8</title>
<path fill="none" stroke="midnightblue" d="M92.9026,-170.748C112.916,-149.626 151.872,-111.533 192,-89 195.897,-86.8119 200.013,-84.7817 204.235,-82.9038"/>
<polygon fill="midnightblue" stroke="midnightblue" points="205.695,-86.0877 213.601,-79.0343 203.022,-79.6181 205.695,-86.0877"/>
</g>
<!-- Node9 -->
<g id="node9" class="node"><title>Node9</title>
<g id="a_node9"><a xlink:href="../../d7/d7f/classPHG4DetectorGroupSubsystem.html#a7aa94c0ddb8f6d69b4dc5a87aa16fd35" target="_top" xlink:title="PHG4DetectorGroupSubsystem\l::SetDefaultParameters">
<polygon fill="none" stroke="black" points="192.5,-0 192.5,-30 347.5,-30 347.5,-0 192.5,-0"/>
<text text-anchor="start" x="200.5" y="-18" font-family="FreeSans" font-size="10.00">PHG4DetectorGroupSubsystem</text>
<text text-anchor="middle" x="270" y="-7" font-family="FreeSans" font-size="10.00">::SetDefaultParameters</text>
</a>
</g>
</g>
<!-- Node1&#45;&gt;Node9 -->
<g id="edge8" class="edge"><title>Node1&#45;&gt;Node9</title>
<path fill="none" stroke="midnightblue" d="M86.7242,-170.753C102.472,-141.174 141.141,-75.7762 192,-40 194.845,-37.9986 197.86,-36.1505 200.985,-34.4448"/>
<polygon fill="midnightblue" stroke="midnightblue" points="202.598,-37.5521 210.034,-30.0056 199.515,-31.2676 202.598,-37.5521"/>
</g>
</g>
</svg>
