<?xml version="1.0" encoding="UTF-8" standalone="no"?>
<!DOCTYPE svg PUBLIC "-//W3C//DTD SVG 1.1//EN"
 "http://www.w3.org/Graphics/SVG/1.1/DTD/svg11.dtd">
<!-- Generated by graphviz version 2.36.0 (20140111.2315)
 -->
<!-- Title: PHG4DetectorGroupSubsystem::SaveParamsToFile Pages: 1 -->
<svg width="724pt" height="115pt"
 viewBox="0.00 0.00 724.00 115.00" xmlns="http://www.w3.org/2000/svg" xmlns:xlink="http://www.w3.org/1999/xlink">
<g id="graph0" class="graph" transform="scale(1 1) rotate(0) translate(4 111)">
<title>PHG4DetectorGroupSubsystem::SaveParamsToFile</title>
<!-- Node1 -->
<g id="node1" class="node"><title>Node1</title>
<polygon fill="#bfbfbf" stroke="black" points="0.5,-44 0.5,-74 155.5,-74 155.5,-44 0.5,-44"/>
<text text-anchor="start" x="8.5" y="-62" font-family="FreeSans" font-size="10.00">PHG4DetectorGroupSubsystem</text>
<text text-anchor="middle" x="78" y="-51" font-family="FreeSans" font-size="10.00">::SaveParamsToFile</text>
</g>
<!-- Node2 -->
<g id="node2" class="node"><title>Node2</title>
<g id="a_node2"><a xlink:href="../../d5/d5f/classPHG4ParametersContainer.html#a235a17ce09ecf159908e0bf70981294b" target="_top" xlink:title="PHG4ParametersContainer\l::WriteToFile">
<polygon fill="none" stroke="black" points="192.5,-44 192.5,-74 327.5,-74 327.5,-44 192.5,-44"/>
<text text-anchor="start" x="200.5" y="-62" font-family="FreeSans" font-size="10.00">PHG4ParametersContainer</text>
<text text-anchor="middle" x="260" y="-51" font-family="FreeSans" font-size="10.00">::WriteToFile</text>
</a>
</g>
</g>
<!-- Node1&#45;&gt;Node2 -->
<g id="edge1" class="edge"><title>Node1&#45;&gt;Node2</title>
<path fill="none" stroke="midnightblue" d="M155.597,-59C164.4,-59 173.379,-59 182.185,-59"/>
<polygon fill="midnightblue" stroke="midnightblue" points="182.422,-62.5001 192.422,-59 182.422,-55.5001 182.422,-62.5001"/>
</g>
<!-- Node3 -->
<g id="node3" class="node"><title>Node3</title>
<g id="a_node3"><a xlink:href="../../dc/d80/classPdbBankID.html#a26db21ac8e324b200456e462d5f389dc" target="_top" xlink:title="PdbBankID::getInternalValue">
<polygon fill="none" stroke="black" points="381.5,-87.5 381.5,-106.5 522.5,-106.5 522.5,-87.5 381.5,-87.5"/>
<text text-anchor="middle" x="452" y="-94.5" font-family="FreeSans" font-size="10.00">PdbBankID::getInternalValue</text>
</a>
</g>
</g>
<!-- Node2&#45;&gt;Node3 -->
<g id="edge2" class="edge"><title>Node2&#45;&gt;Node3</title>
<path fill="none" stroke="midnightblue" d="M327.72,-72.3439C349.13,-76.626 372.649,-81.3299 393.353,-85.4706"/>
<polygon fill="midnightblue" stroke="midnightblue" points="392.777,-88.9246 403.269,-87.4538 394.15,-82.0605 392.777,-88.9246"/>
</g>
<!-- Node4 -->
<g id="node4" class="node"><title>Node4</title>
<g id="a_node4"><a xlink:href="../../da/dc2/classPHTimeStamp.html#aaf398dcc8d0066c674cc30dbbef5efcb" target="_top" xlink:title="PHTimeStamp::getTics">
<polygon fill="none" stroke="black" points="393,-49.5 393,-68.5 511,-68.5 511,-49.5 393,-49.5"/>
<text text-anchor="middle" x="452" y="-56.5" font-family="FreeSans" font-size="10.00">PHTimeStamp::getTics</text>
</a>
</g>
</g>
<!-- Node2&#45;&gt;Node4 -->
<g id="edge3" class="edge"><title>Node2&#45;&gt;Node4</title>
<path fill="none" stroke="midnightblue" d="M327.72,-59C345.59,-59 364.93,-59 382.875,-59"/>
<polygon fill="midnightblue" stroke="midnightblue" points="382.97,-62.5001 392.97,-59 382.97,-55.5001 382.97,-62.5001"/>
</g>
<!-- Node5 -->
<g id="node5" class="node"><title>Node5</title>
<g id="a_node5"><a xlink:href="../../d5/d5f/classPHG4ParametersContainer.html#a5f6540b720e3e6b9d11358bdbcb396de" target="_top" xlink:title="PHG4ParametersContainer\l::CopyToPdbParameterMapContainer">
<polygon fill="none" stroke="black" points="364,-0 364,-30 540,-30 540,-0 364,-0"/>
<text text-anchor="start" x="372" y="-18" font-family="FreeSans" font-size="10.00">PHG4ParametersContainer</text>
<text text-anchor="middle" x="452" y="-7" font-family="FreeSans" font-size="10.00">::CopyToPdbParameterMapContainer</text>
</a>
</g>
</g>
<!-- Node2&#45;&gt;Node5 -->
<g id="edge4" class="edge"><title>Node2&#45;&gt;Node5</title>
<path fill="none" stroke="midnightblue" d="M325.856,-43.9808C341.97,-40.2492 359.374,-36.2186 375.933,-32.384"/>
<polygon fill="midnightblue" stroke="midnightblue" points="377.162,-35.6921 386.114,-30.0262 375.582,-28.8726 377.162,-35.6921"/>
</g>
<!-- Node6 -->
<g id="node6" class="node"><title>Node6</title>
<g id="a_node6"><a xlink:href="../../d4/d7d/classPdbParameterMapContainer.html#a0e5436b10b4e13f2575b80553dc8beba" target="_top" xlink:title="PdbParameterMapContainer\l::AddPdbParameterMap">
<polygon fill="none" stroke="black" points="576.5,-0 576.5,-30 715.5,-30 715.5,-0 576.5,-0"/>
<text text-anchor="start" x="584.5" y="-18" font-family="FreeSans" font-size="10.00">PdbParameterMapContainer</text>
<text text-anchor="middle" x="646" y="-7" font-family="FreeSans" font-size="10.00">::AddPdbParameterMap</text>
</a>
</g>
</g>
<!-- Node5&#45;&gt;Node6 -->
<g id="edge5" class="edge"><title>Node5&#45;&gt;Node6</title>
<path fill="none" stroke="midnightblue" d="M540.012,-15C548.783,-15 557.656,-15 566.333,-15"/>
<polygon fill="midnightblue" stroke="midnightblue" points="566.412,-18.5001 576.412,-15 566.412,-11.5001 566.412,-18.5001"/>
</g>
</g>
</svg>
