<?xml version="1.0" encoding="UTF-8" standalone="no"?>
<!DOCTYPE svg PUBLIC "-//W3C//DTD SVG 1.1//EN"
 "http://www.w3.org/Graphics/SVG/1.1/DTD/svg11.dtd">
<!-- Generated by graphviz version 2.36.0 (20140111.2315)
 -->
<!-- Title: /home/yuhw/GitHub/SeaQuest/seaquest&#45;offline/simulation/g4detectors/PHG4EnvelopeDetector.h Pages: 1 -->
<svg width="656pt" height="128pt"
 viewBox="0.00 0.00 656.00 128.00" xmlns="http://www.w3.org/2000/svg" xmlns:xlink="http://www.w3.org/1999/xlink">
<g id="graph0" class="graph" transform="scale(1 1) rotate(0) translate(4 124)">
<title>/home/yuhw/GitHub/SeaQuest/seaquest&#45;offline/simulation/g4detectors/PHG4EnvelopeDetector.h</title>
<!-- Node1 -->
<g id="node1" class="node"><title>Node1</title>
<polygon fill="#bfbfbf" stroke="black" points="225.5,-78.5 225.5,-119.5 410.5,-119.5 410.5,-78.5 225.5,-78.5"/>
<text text-anchor="start" x="233.5" y="-107.5" font-family="FreeSans" font-size="10.00">/home/yuhw/GitHub/SeaQuest</text>
<text text-anchor="start" x="233.5" y="-96.5" font-family="FreeSans" font-size="10.00">/seaquest&#45;offline/simulation</text>
<text text-anchor="middle" x="318" y="-85.5" font-family="FreeSans" font-size="10.00">/g4detectors/PHG4EnvelopeDetector.h</text>
</g>
<!-- Node2 -->
<g id="node2" class="node"><title>Node2</title>
<g id="a_node2"><a xlink:href="../../d3/d5c/PHG4EnvelopeDetector_8cc.html" target="_top" xlink:title="/home/yuhw/GitHub/SeaQuest\l/seaquest&#45;offline/simulation\l/g4detectors/PHG4EnvelopeDetector.cc">
<polygon fill="none" stroke="black" points="0,-0.5 0,-41.5 190,-41.5 190,-0.5 0,-0.5"/>
<text text-anchor="start" x="8" y="-29.5" font-family="FreeSans" font-size="10.00">/home/yuhw/GitHub/SeaQuest</text>
<text text-anchor="start" x="8" y="-18.5" font-family="FreeSans" font-size="10.00">/seaquest&#45;offline/simulation</text>
<text text-anchor="middle" x="95" y="-7.5" font-family="FreeSans" font-size="10.00">/g4detectors/PHG4EnvelopeDetector.cc</text>
</a>
</g>
</g>
<!-- Node1&#45;&gt;Node2 -->
<g id="edge1" class="edge"><title>Node1&#45;&gt;Node2</title>
<path fill="none" stroke="midnightblue" d="M250.998,-75.1652C219.518,-64.4366 182.377,-51.7786 152.233,-41.5056"/>
<polygon fill="midnightblue" stroke="midnightblue" points="249.977,-78.5151 260.572,-78.4281 252.236,-71.8893 249.977,-78.5151"/>
</g>
<!-- Node3 -->
<g id="node3" class="node"><title>Node3</title>
<g id="a_node3"><a xlink:href="../../dd/d7e/PHG4EnvelopeSteppingAction_8cc.html" target="_top" xlink:title="/home/yuhw/GitHub/SeaQuest\l/seaquest&#45;offline/simulation\l/g4detectors/PHG4EnvelopeSteppingAction.cc">
<polygon fill="none" stroke="black" points="208.5,-0.5 208.5,-41.5 427.5,-41.5 427.5,-0.5 208.5,-0.5"/>
<text text-anchor="start" x="216.5" y="-29.5" font-family="FreeSans" font-size="10.00">/home/yuhw/GitHub/SeaQuest</text>
<text text-anchor="start" x="216.5" y="-18.5" font-family="FreeSans" font-size="10.00">/seaquest&#45;offline/simulation</text>
<text text-anchor="middle" x="318" y="-7.5" font-family="FreeSans" font-size="10.00">/g4detectors/PHG4EnvelopeSteppingAction.cc</text>
</a>
</g>
</g>
<!-- Node1&#45;&gt;Node3 -->
<g id="edge2" class="edge"><title>Node1&#45;&gt;Node3</title>
<path fill="none" stroke="midnightblue" d="M318,-68.2965C318,-59.3009 318,-49.6532 318,-41.5056"/>
<polygon fill="midnightblue" stroke="midnightblue" points="314.5,-68.4281 318,-78.4281 321.5,-68.4281 314.5,-68.4281"/>
</g>
<!-- Node4 -->
<g id="node4" class="node"><title>Node4</title>
<g id="a_node4"><a xlink:href="../../dc/dc7/PHG4EnvelopeSubsystem_8cc.html" target="_top" xlink:title="/home/yuhw/GitHub/SeaQuest\l/seaquest&#45;offline/simulation\l/g4detectors/PHG4EnvelopeSubsystem.cc">
<polygon fill="none" stroke="black" points="446,-0.5 446,-41.5 648,-41.5 648,-0.5 446,-0.5"/>
<text text-anchor="start" x="454" y="-29.5" font-family="FreeSans" font-size="10.00">/home/yuhw/GitHub/SeaQuest</text>
<text text-anchor="start" x="454" y="-18.5" font-family="FreeSans" font-size="10.00">/seaquest&#45;offline/simulation</text>
<text text-anchor="middle" x="547" y="-7.5" font-family="FreeSans" font-size="10.00">/g4detectors/PHG4EnvelopeSubsystem.cc</text>
</a>
</g>
</g>
<!-- Node1&#45;&gt;Node4 -->
<g id="edge3" class="edge"><title>Node1&#45;&gt;Node4</title>
<path fill="none" stroke="midnightblue" d="M386.805,-75.1652C419.132,-64.4366 457.272,-51.7786 488.227,-41.5056"/>
<polygon fill="midnightblue" stroke="midnightblue" points="385.362,-71.9564 376.973,-78.4281 387.567,-78.6 385.362,-71.9564"/>
</g>
</g>
</svg>
