<?xml version="1.0" encoding="UTF-8" standalone="no"?>
<!DOCTYPE svg PUBLIC "-//W3C//DTD SVG 1.1//EN"
 "http://www.w3.org/Graphics/SVG/1.1/DTD/svg11.dtd">
<!-- Generated by graphviz version 2.36.0 (20140111.2315)
 -->
<!-- Title: SRecEvent::Clone Pages: 1 -->
<svg width="388pt" height="28pt"
 viewBox="0.00 0.00 388.00 28.00" xmlns="http://www.w3.org/2000/svg" xmlns:xlink="http://www.w3.org/1999/xlink">
<g id="graph0" class="graph" transform="scale(1 1) rotate(0) translate(4 24)">
<title>SRecEvent::Clone</title>
<!-- Node1 -->
<g id="node1" class="node"><title>Node1</title>
<polygon fill="#bfbfbf" stroke="black" points="0.5,-0.5 0.5,-19.5 95.5,-19.5 95.5,-0.5 0.5,-0.5"/>
<text text-anchor="middle" x="48" y="-7.5" font-family="FreeSans" font-size="10.00">SRecEvent::Clone</text>
</g>
<!-- Node2 -->
<g id="node2" class="node"><title>Node2</title>
<g id="a_node2"><a xlink:href="../../d5/d2f/classSRecEvent.html#a701a201dd1837f1e1110c0a785bf310c" target="_top" xlink:title="SRecEvent::SRecEvent">
<polygon fill="none" stroke="black" points="132.5,-0.5 132.5,-19.5 251.5,-19.5 251.5,-0.5 132.5,-0.5"/>
<text text-anchor="middle" x="192" y="-7.5" font-family="FreeSans" font-size="10.00">SRecEvent::SRecEvent</text>
</a>
</g>
</g>
<!-- Node1&#45;&gt;Node2 -->
<g id="edge1" class="edge"><title>Node1&#45;&gt;Node2</title>
<path fill="none" stroke="midnightblue" d="M95.8897,-10C104.342,-10 113.311,-10 122.233,-10"/>
<polygon fill="midnightblue" stroke="midnightblue" points="122.257,-13.5001 132.257,-10 122.257,-6.5001 122.257,-13.5001"/>
</g>
<!-- Node3 -->
<g id="node3" class="node"><title>Node3</title>
<g id="a_node3"><a xlink:href="../../d5/d2f/classSRecEvent.html#acde10eea5441bdbc7c1bb6625627fd9f" target="_top" xlink:title="Clear everything. ">
<polygon fill="none" stroke="black" points="288.5,-0.5 288.5,-19.5 379.5,-19.5 379.5,-0.5 288.5,-0.5"/>
<text text-anchor="middle" x="334" y="-7.5" font-family="FreeSans" font-size="10.00">SRecEvent::clear</text>
</a>
</g>
</g>
<!-- Node2&#45;&gt;Node3 -->
<g id="edge2" class="edge"><title>Node2&#45;&gt;Node3</title>
<path fill="none" stroke="midnightblue" d="M251.561,-10C260.394,-10 269.476,-10 278.224,-10"/>
<polygon fill="midnightblue" stroke="midnightblue" points="278.306,-13.5001 288.306,-10 278.306,-6.5001 278.306,-13.5001"/>
</g>
</g>
</svg>
