<?xml version="1.0" encoding="UTF-8" standalone="no"?>
<!DOCTYPE svg PUBLIC "-//W3C//DTD SVG 1.1//EN"
 "http://www.w3.org/Graphics/SVG/1.1/DTD/svg11.dtd">
<!-- Generated by graphviz version 2.30.1 (20200930.0103)
 -->
<!-- Title: /dev/shm/kenichi/update&#45;github&#45;e1039&#45;doc/e1039&#45;analysis/CalibChamXT/src/FilterByTrigger.cc Pages: 1 -->
<svg width="1024pt" height="566pt"
 viewBox="0.00 0.00 1024.00 566.00" xmlns="http://www.w3.org/2000/svg" xmlns:xlink="http://www.w3.org/1999/xlink">
<g id="graph0" class="graph" transform="scale(1 1) rotate(0) translate(4 562)">
<title>/dev/shm/kenichi/update&#45;github&#45;e1039&#45;doc/e1039&#45;analysis/CalibChamXT/src/FilterByTrigger.cc</title>
<!-- Node1 -->
<g id="node1" class="node"><title>Node1</title>
<polygon fill="#bfbfbf" stroke="black" points="331,-505 331,-557 463,-557 463,-505 331,-505"/>
<text text-anchor="start" x="339" y="-545" font-family="FreeSans" font-size="10.00">/dev/shm/kenichi/update</text>
<text text-anchor="start" x="339" y="-534" font-family="FreeSans" font-size="10.00">&#45;github&#45;e1039&#45;doc/e1039</text>
<text text-anchor="start" x="339" y="-523" font-family="FreeSans" font-size="10.00">&#45;analysis/CalibChamXT/src</text>
<text text-anchor="middle" x="397" y="-512" font-family="FreeSans" font-size="10.00">/FilterByTrigger.cc</text>
</g>
<!-- Node2 -->
<g id="node2" class="node"><title>Node2</title>
<g id="a_node2"><a xlink:href="../../da/dc1/Fun4AllReturnCodes_8h.html" target="_top" xlink:title="fun4all/Fun4AllReturnCodes.h">
<polygon fill="none" stroke="black" points="0,-448.5 0,-467.5 144,-467.5 144,-448.5 0,-448.5"/>
<text text-anchor="middle" x="72" y="-455.5" font-family="FreeSans" font-size="10.00">fun4all/Fun4AllReturnCodes.h</text>
</a>
</g>
</g>
<!-- Node1&#45;&gt;Node2 -->
<g id="edge1" class="edge"><title>Node1&#45;&gt;Node2</title>
<path fill="none" stroke="midnightblue" d="M330.84,-515.547C268.639,-501.958 176.964,-481.931 121.052,-469.716"/>
<polygon fill="midnightblue" stroke="midnightblue" points="121.56,-466.245 111.044,-467.53 120.066,-473.083 121.56,-466.245"/>
</g>
<!-- Node3 -->
<g id="node3" class="node"><title>Node3</title>
<g id="a_node3"><a xlink:href="../../dd/dd4/getClass_8h.html" target="_top" xlink:title="phool/getClass.h">
<polygon fill="none" stroke="black" points="317.5,-448.5 317.5,-467.5 404.5,-467.5 404.5,-448.5 317.5,-448.5"/>
<text text-anchor="middle" x="361" y="-455.5" font-family="FreeSans" font-size="10.00">phool/getClass.h</text>
</a>
</g>
</g>
<!-- Node1&#45;&gt;Node3 -->
<g id="edge2" class="edge"><title>Node1&#45;&gt;Node3</title>
<path fill="none" stroke="midnightblue" d="M384.206,-504.768C379.5,-495.486 374.274,-485.179 369.975,-476.7"/>
<polygon fill="midnightblue" stroke="midnightblue" points="373.084,-475.093 365.44,-467.757 366.841,-478.259 373.084,-475.093"/>
</g>
<!-- Node21 -->
<g id="node21" class="node"><title>Node21</title>
<g id="a_node21"><a xlink:href="../../d0/db5/SQEvent_8h.html" target="_top" xlink:title="interface_main/SQEvent.h">
<polygon fill="none" stroke="black" points="162.5,-448.5 162.5,-467.5 291.5,-467.5 291.5,-448.5 162.5,-448.5"/>
<text text-anchor="middle" x="227" y="-455.5" font-family="FreeSans" font-size="10.00">interface_main/SQEvent.h</text>
</a>
</g>
</g>
<!-- Node1&#45;&gt;Node21 -->
<g id="edge39" class="edge"><title>Node1&#45;&gt;Node21</title>
<path fill="none" stroke="midnightblue" d="M337.064,-504.968C310.04,-493.681 279.303,-480.844 257.192,-471.61"/>
<polygon fill="midnightblue" stroke="midnightblue" points="258.261,-468.263 247.685,-467.639 255.563,-474.722 258.261,-468.263"/>
</g>
<!-- Node23 -->
<g id="node23" class="node"><title>Node23</title>
<polygon fill="none" stroke="#bfbfbf" points="461,-448.5 461,-467.5 507,-467.5 507,-448.5 461,-448.5"/>
<text text-anchor="middle" x="484" y="-455.5" font-family="FreeSans" font-size="10.00">TFile.h</text>
</g>
<!-- Node1&#45;&gt;Node23 -->
<g id="edge45" class="edge"><title>Node1&#45;&gt;Node23</title>
<path fill="none" stroke="midnightblue" d="M427.918,-504.768C440.404,-494.578 454.404,-483.153 465.292,-474.267"/>
<polygon fill="midnightblue" stroke="midnightblue" points="467.735,-476.791 473.269,-467.757 463.309,-471.368 467.735,-476.791"/>
</g>
<!-- Node24 -->
<g id="node24" class="node"><title>Node24</title>
<polygon fill="none" stroke="#bfbfbf" points="525.5,-448.5 525.5,-467.5 574.5,-467.5 574.5,-448.5 525.5,-448.5"/>
<text text-anchor="middle" x="550" y="-455.5" font-family="FreeSans" font-size="10.00">TH1D.h</text>
</g>
<!-- Node1&#45;&gt;Node24 -->
<g id="edge46" class="edge"><title>Node1&#45;&gt;Node24</title>
<path fill="none" stroke="midnightblue" d="M450.942,-504.968C475.045,-493.783 502.429,-481.075 522.287,-471.86"/>
<polygon fill="midnightblue" stroke="midnightblue" points="523.786,-475.023 531.384,-467.639 520.84,-468.673 523.786,-475.023"/>
</g>
<!-- Node25 -->
<g id="node25" class="node"><title>Node25</title>
<g id="a_node25"><a xlink:href="../../d4/ddd/e1039-analysis_2CalibChamXT_2src_2FilterByTrigger_8h.html" target="_top" xlink:title="FilterByTrigger.h">
<polygon fill="none" stroke="black" points="902.5,-392.5 902.5,-411.5 989.5,-411.5 989.5,-392.5 902.5,-392.5"/>
<text text-anchor="middle" x="946" y="-399.5" font-family="FreeSans" font-size="10.00">FilterByTrigger.h</text>
</a>
</g>
</g>
<!-- Node1&#45;&gt;Node25 -->
<g id="edge47" class="edge"><title>Node1&#45;&gt;Node25</title>
<path fill="none" stroke="midnightblue" d="M406.787,-504.617C415.57,-485.571 430.425,-460.684 452,-448 535.236,-399.066 789.08,-423.052 885,-412 887.378,-411.726 889.806,-411.431 892.257,-411.121"/>
<polygon fill="midnightblue" stroke="midnightblue" points="892.94,-414.561 902.393,-409.777 892.02,-407.622 892.94,-414.561"/>
</g>
<!-- Node4 -->
<g id="node4" class="node"><title>Node4</title>
<g id="a_node4"><a xlink:href="../../d8/dfd/PHNodeIterator_8h.html" target="_top" xlink:title="PHNodeIterator.h">
<polygon fill="none" stroke="black" points="473.5,-280.5 473.5,-299.5 564.5,-299.5 564.5,-280.5 473.5,-280.5"/>
<text text-anchor="middle" x="519" y="-287.5" font-family="FreeSans" font-size="10.00">PHNodeIterator.h</text>
</a>
</g>
</g>
<!-- Node3&#45;&gt;Node4 -->
<g id="edge3" class="edge"><title>Node3&#45;&gt;Node4</title>
<path fill="none" stroke="midnightblue" d="M369.079,-448.484C387.838,-428.713 435.813,-378.17 476,-336 485.152,-326.397 495.415,-315.655 503.619,-307.076"/>
<polygon fill="midnightblue" stroke="midnightblue" points="506.367,-309.266 510.75,-299.62 501.308,-304.428 506.367,-309.266"/>
</g>
<!-- Node12 -->
<g id="node12" class="node"><title>Node12</title>
<g id="a_node12"><a xlink:href="../../d3/d79/PHIODataNode_8h.html" target="_top" xlink:title="PHIODataNode.h">
<polygon fill="none" stroke="black" points="558.5,-392.5 558.5,-411.5 649.5,-411.5 649.5,-392.5 558.5,-392.5"/>
<text text-anchor="middle" x="604" y="-399.5" font-family="FreeSans" font-size="10.00">PHIODataNode.h</text>
</a>
</g>
</g>
<!-- Node3&#45;&gt;Node12 -->
<g id="edge17" class="edge"><title>Node3&#45;&gt;Node12</title>
<path fill="none" stroke="midnightblue" d="M399.504,-448.444C441.806,-439.043 509.819,-423.929 555.673,-413.739"/>
<polygon fill="midnightblue" stroke="midnightblue" points="556.673,-417.102 565.676,-411.516 555.155,-410.269 556.673,-417.102"/>
</g>
<!-- Node13 -->
<g id="node13" class="node"><title>Node13</title>
<g id="a_node13"><a xlink:href="../../dd/d9b/PHDataNode_8h.html" target="_top" xlink:title="PHDataNode.h">
<polygon fill="none" stroke="black" points="229,-224.5 229,-243.5 309,-243.5 309,-224.5 229,-224.5"/>
<text text-anchor="middle" x="269" y="-231.5" font-family="FreeSans" font-size="10.00">PHDataNode.h</text>
</a>
</g>
</g>
<!-- Node3&#45;&gt;Node13 -->
<g id="edge35" class="edge"><title>Node3&#45;&gt;Node13</title>
<path fill="none" stroke="midnightblue" d="M336.825,-448.409C320.505,-441.28 300.003,-429.459 289,-412 257.446,-361.934 261.891,-287.812 266.147,-253.576"/>
<polygon fill="midnightblue" stroke="midnightblue" points="269.625,-253.973 267.531,-243.587 262.692,-253.012 269.625,-253.973"/>
</g>
<!-- Node8 -->
<g id="node8" class="node"><title>Node8</title>
<g id="a_node8"><a xlink:href="../../d3/d62/PHNode_8h.html" target="_top" xlink:title="PHNode.h">
<polygon fill="none" stroke="black" points="350,-112.5 350,-131.5 410,-131.5 410,-112.5 350,-112.5"/>
<text text-anchor="middle" x="380" y="-119.5" font-family="FreeSans" font-size="10.00">PHNode.h</text>
</a>
</g>
</g>
<!-- Node3&#45;&gt;Node8 -->
<g id="edge36" class="edge"><title>Node3&#45;&gt;Node8</title>
<path fill="none" stroke="midnightblue" d="M356.421,-448.405C347.633,-431.366 328.681,-391.848 322,-356 306.857,-274.744 349.966,-179.581 370.175,-140.8"/>
<polygon fill="midnightblue" stroke="midnightblue" points="373.356,-142.273 374.986,-131.805 367.184,-138.972 373.356,-142.273"/>
</g>
<!-- Node20 -->
<g id="node20" class="node"><title>Node20</title>
<polygon fill="none" stroke="#bfbfbf" points="331.5,-336.5 331.5,-355.5 390.5,-355.5 390.5,-336.5 331.5,-336.5"/>
<text text-anchor="middle" x="361" y="-343.5" font-family="FreeSans" font-size="10.00">TObject.h</text>
</g>
<!-- Node3&#45;&gt;Node20 -->
<g id="edge37" class="edge"><title>Node3&#45;&gt;Node20</title>
<path fill="none" stroke="midnightblue" d="M361,-448.368C361,-430.617 361,-389.666 361,-365.597"/>
<polygon fill="midnightblue" stroke="midnightblue" points="364.5,-365.591 361,-355.591 357.5,-365.591 364.5,-365.591"/>
</g>
<!-- Node10 -->
<g id="node10" class="node"><title>Node10</title>
<polygon fill="none" stroke="#bfbfbf" points="782,-56.5 782,-75.5 822,-75.5 822,-56.5 782,-56.5"/>
<text text-anchor="middle" x="802" y="-63.5" font-family="FreeSans" font-size="10.00">string</text>
</g>
<!-- Node3&#45;&gt;Node10 -->
<g id="edge38" class="edge"><title>Node3&#45;&gt;Node10</title>
<path fill="none" stroke="midnightblue" d="M404.623,-450.75C481.144,-439.733 633.78,-417.5 658,-412 754.52,-390.084 871,-445.976 871,-347 871,-347 871,-347 871,-177 871,-138.391 840.118,-102.209 819.674,-82.4863"/>
<polygon fill="midnightblue" stroke="midnightblue" points="821.893,-79.7704 812.181,-75.5352 817.132,-84.9022 821.893,-79.7704"/>
</g>
<!-- Node5 -->
<g id="node5" class="node"><title>Node5</title>
<g id="a_node5"><a xlink:href="../../d5/d6f/phool_8h.html" target="_top" xlink:title="phool.h">
<polygon fill="none" stroke="black" points="481.5,-56.5 481.5,-75.5 528.5,-75.5 528.5,-56.5 481.5,-56.5"/>
<text text-anchor="middle" x="505" y="-63.5" font-family="FreeSans" font-size="10.00">phool.h</text>
</a>
</g>
</g>
<!-- Node4&#45;&gt;Node5 -->
<g id="edge4" class="edge"><title>Node4&#45;&gt;Node5</title>
<path fill="none" stroke="midnightblue" d="M520.739,-280.398C525.659,-254.554 538.468,-175.463 525,-112 523.003,-102.591 518.899,-92.7618 514.925,-84.6981"/>
<polygon fill="midnightblue" stroke="midnightblue" points="517.887,-82.8101 510.13,-75.5932 511.693,-86.0721 517.887,-82.8101"/>
</g>
<!-- Node7 -->
<g id="node7" class="node"><title>Node7</title>
<g id="a_node7"><a xlink:href="../../d8/d30/PHCompositeNode_8h.html" target="_top" xlink:title="PHCompositeNode.h">
<polygon fill="none" stroke="black" points="385,-224.5 385,-243.5 491,-243.5 491,-224.5 385,-224.5"/>
<text text-anchor="middle" x="438" y="-231.5" font-family="FreeSans" font-size="10.00">PHCompositeNode.h</text>
</a>
</g>
</g>
<!-- Node4&#45;&gt;Node7 -->
<g id="edge6" class="edge"><title>Node4&#45;&gt;Node7</title>
<path fill="none" stroke="midnightblue" d="M505.986,-280.324C493.468,-271.979 474.318,-259.212 459.529,-249.352"/>
<polygon fill="midnightblue" stroke="midnightblue" points="461.244,-246.289 450.982,-243.655 457.361,-252.114 461.244,-246.289"/>
</g>
<!-- Node11 -->
<g id="node11" class="node"><title>Node11</title>
<g id="a_node11"><a xlink:href="../../db/dd5/PHPointerList_8h.html" target="_top" xlink:title="PHPointerList.h">
<polygon fill="none" stroke="black" points="407.5,-168.5 407.5,-187.5 490.5,-187.5 490.5,-168.5 407.5,-168.5"/>
<text text-anchor="middle" x="449" y="-175.5" font-family="FreeSans" font-size="10.00">PHPointerList.h</text>
</a>
</g>
</g>
<!-- Node4&#45;&gt;Node11 -->
<g id="edge16" class="edge"><title>Node4&#45;&gt;Node11</title>
<path fill="none" stroke="midnightblue" d="M518.032,-280.373C516.238,-267.294 511.477,-242.06 500,-224 492.479,-212.165 480.962,-201.627 470.774,-193.73"/>
<polygon fill="midnightblue" stroke="midnightblue" points="472.774,-190.856 462.646,-187.746 468.624,-196.493 472.774,-190.856"/>
</g>
<!-- Node6 -->
<g id="node6" class="node"><title>Node6</title>
<polygon fill="none" stroke="#bfbfbf" points="238.5,-0.5 238.5,-19.5 291.5,-19.5 291.5,-0.5 238.5,-0.5"/>
<text text-anchor="middle" x="265" y="-7.5" font-family="FreeSans" font-size="10.00">iostream</text>
</g>
<!-- Node5&#45;&gt;Node6 -->
<g id="edge5" class="edge"><title>Node5&#45;&gt;Node6</title>
<path fill="none" stroke="midnightblue" d="M481.11,-59.6249C439.048,-50.1607 351.518,-30.4666 301.725,-19.2631"/>
<polygon fill="midnightblue" stroke="midnightblue" points="302.227,-15.7886 291.702,-17.008 300.69,-22.6178 302.227,-15.7886"/>
</g>
<!-- Node7&#45;&gt;Node5 -->
<g id="edge7" class="edge"><title>Node7&#45;&gt;Node5</title>
<path fill="none" stroke="midnightblue" d="M457.372,-224.44C471.608,-217.019 489.979,-204.815 499,-188 516.503,-155.372 512.771,-110.401 508.732,-85.4906"/>
<polygon fill="midnightblue" stroke="midnightblue" points="512.162,-84.7865 506.93,-75.5734 505.275,-86.0381 512.162,-84.7865"/>
</g>
<!-- Node7&#45;&gt;Node8 -->
<g id="edge8" class="edge"><title>Node7&#45;&gt;Node8</title>
<path fill="none" stroke="midnightblue" d="M428.331,-224.247C419.514,-215.772 406.721,-202.159 399,-188 391.085,-173.485 386.132,-155.303 383.276,-141.862"/>
<polygon fill="midnightblue" stroke="midnightblue" points="386.68,-141.029 381.351,-131.872 379.806,-142.354 386.68,-141.029"/>
</g>
<!-- Node7&#45;&gt;Node11 -->
<g id="edge12" class="edge"><title>Node7&#45;&gt;Node11</title>
<path fill="none" stroke="midnightblue" d="M439.816,-224.083C441.274,-216.927 443.371,-206.635 445.193,-197.691"/>
<polygon fill="midnightblue" stroke="midnightblue" points="448.651,-198.248 447.217,-187.751 441.792,-196.851 448.651,-198.248"/>
</g>
<!-- Node8&#45;&gt;Node5 -->
<g id="edge9" class="edge"><title>Node8&#45;&gt;Node5</title>
<path fill="none" stroke="midnightblue" d="M399.807,-112.444C420.287,-103.596 452.483,-89.6875 475.865,-79.5865"/>
<polygon fill="midnightblue" stroke="midnightblue" points="477.494,-82.6953 485.286,-75.5164 474.718,-76.2692 477.494,-82.6953"/>
</g>
<!-- Node9 -->
<g id="node9" class="node"><title>Node9</title>
<polygon fill="none" stroke="#bfbfbf" points="358,-56.5 358,-75.5 402,-75.5 402,-56.5 358,-56.5"/>
<text text-anchor="middle" x="380" y="-63.5" font-family="FreeSans" font-size="10.00">iosfwd</text>
</g>
<!-- Node8&#45;&gt;Node9 -->
<g id="edge10" class="edge"><title>Node8&#45;&gt;Node9</title>
<path fill="none" stroke="midnightblue" d="M380,-112.083C380,-105.006 380,-94.8611 380,-85.9865"/>
<polygon fill="midnightblue" stroke="midnightblue" points="383.5,-85.751 380,-75.7511 376.5,-85.7511 383.5,-85.751"/>
</g>
<!-- Node8&#45;&gt;Node10 -->
<g id="edge11" class="edge"><title>Node8&#45;&gt;Node10</title>
<path fill="none" stroke="midnightblue" d="M410.011,-117.16C487.523,-107.241 693.775,-80.8487 771.655,-70.883"/>
<polygon fill="midnightblue" stroke="midnightblue" points="772.291,-74.3303 781.765,-69.5892 771.402,-67.3869 772.291,-74.3303"/>
</g>
<!-- Node11&#45;&gt;Node5 -->
<g id="edge13" class="edge"><title>Node11&#45;&gt;Node5</title>
<path fill="none" stroke="midnightblue" d="M453.394,-168.368C462.554,-150.376 483.847,-108.55 496.026,-84.6267"/>
<polygon fill="midnightblue" stroke="midnightblue" points="499.208,-86.091 500.626,-75.5914 492.97,-82.9152 499.208,-86.091"/>
</g>
<!-- Node11&#45;&gt;Node8 -->
<g id="edge14" class="edge"><title>Node11&#45;&gt;Node8</title>
<path fill="none" stroke="midnightblue" d="M437.914,-168.324C427.514,-160.185 411.739,-147.839 399.278,-138.087"/>
<polygon fill="midnightblue" stroke="midnightblue" points="401.32,-135.241 391.288,-131.834 397.006,-140.753 401.32,-135.241"/>
</g>
<!-- Node11&#45;&gt;Node6 -->
<g id="edge15" class="edge"><title>Node11&#45;&gt;Node6</title>
<path fill="none" stroke="midnightblue" d="M448.887,-168.297C448.118,-146.275 443.002,-87.8324 411,-56 381.899,-27.0532 334.63,-16.6591 301.792,-12.9653"/>
<polygon fill="midnightblue" stroke="midnightblue" points="301.969,-9.46625 291.678,-11.9865 301.295,-16.4337 301.969,-9.46625"/>
</g>
<!-- Node12&#45;&gt;Node13 -->
<g id="edge18" class="edge"><title>Node12&#45;&gt;Node13</title>
<path fill="none" stroke="midnightblue" d="M574.653,-392.44C548.296,-384.342 508.813,-371.189 476,-356 404.957,-323.115 326.583,-273.246 289.988,-249.094"/>
<polygon fill="midnightblue" stroke="midnightblue" points="291.881,-246.15 281.614,-243.534 288.008,-251.981 291.881,-246.15"/>
</g>
<!-- Node14 -->
<g id="node14" class="node"><title>Node14</title>
<g id="a_node14"><a xlink:href="../../d9/d53/PHIOManager_8h.html" target="_top" xlink:title="PHIOManager.h">
<polygon fill="none" stroke="black" points="585,-168.5 585,-187.5 671,-187.5 671,-168.5 585,-168.5"/>
<text text-anchor="middle" x="628" y="-175.5" font-family="FreeSans" font-size="10.00">PHIOManager.h</text>
</a>
</g>
</g>
<!-- Node12&#45;&gt;Node14 -->
<g id="edge21" class="edge"><title>Node12&#45;&gt;Node14</title>
<path fill="none" stroke="midnightblue" d="M649.745,-398.488C679.783,-394.191 717.077,-383.256 737,-356 756.934,-328.728 751.59,-310.927 738,-280 720.647,-240.508 679.385,-209.686 652.623,-192.947"/>
<polygon fill="midnightblue" stroke="midnightblue" points="654.192,-189.806 643.824,-187.622 650.567,-195.794 654.192,-189.806"/>
</g>
<!-- Node15 -->
<g id="node15" class="node"><title>Node15</title>
<g id="a_node15"><a xlink:href="../../dd/de7/PHNodeIOManager_8h.html" target="_top" xlink:title="PHNodeIOManager.h">
<polygon fill="none" stroke="black" points="485,-336.5 485,-355.5 593,-355.5 593,-336.5 485,-336.5"/>
<text text-anchor="middle" x="539" y="-343.5" font-family="FreeSans" font-size="10.00">PHNodeIOManager.h</text>
</a>
</g>
</g>
<!-- Node12&#45;&gt;Node15 -->
<g id="edge24" class="edge"><title>Node12&#45;&gt;Node15</title>
<path fill="none" stroke="midnightblue" d="M593.557,-392.324C583.854,-384.263 569.185,-372.077 557.5,-362.369"/>
<polygon fill="midnightblue" stroke="midnightblue" points="559.562,-359.532 549.633,-355.834 555.089,-364.916 559.562,-359.532"/>
</g>
<!-- Node17 -->
<g id="node17" class="node"><title>Node17</title>
<g id="a_node17"><a xlink:href="../../db/d17/PHTypedNodeIterator_8h.html" target="_top" xlink:title="PHTypedNodeIterator.h">
<polygon fill="none" stroke="black" points="611.5,-336.5 611.5,-355.5 728.5,-355.5 728.5,-336.5 611.5,-336.5"/>
<text text-anchor="middle" x="670" y="-343.5" font-family="FreeSans" font-size="10.00">PHTypedNodeIterator.h</text>
</a>
</g>
</g>
<!-- Node12&#45;&gt;Node17 -->
<g id="edge28" class="edge"><title>Node12&#45;&gt;Node17</title>
<path fill="none" stroke="midnightblue" d="M614.604,-392.324C624.456,-384.263 639.351,-372.077 651.215,-362.369"/>
<polygon fill="midnightblue" stroke="midnightblue" points="653.68,-364.875 659.203,-355.834 649.247,-359.457 653.68,-364.875"/>
</g>
<!-- Node19 -->
<g id="node19" class="node"><title>Node19</title>
<g id="a_node19"><a xlink:href="../../de/da7/phooldefs_8h.html" target="_top" xlink:title="phooldefs.h">
<polygon fill="none" stroke="black" points="739.5,-112.5 739.5,-131.5 804.5,-131.5 804.5,-112.5 739.5,-112.5"/>
<text text-anchor="middle" x="772" y="-119.5" font-family="FreeSans" font-size="10.00">phooldefs.h</text>
</a>
</g>
</g>
<!-- Node12&#45;&gt;Node19 -->
<g id="edge31" class="edge"><title>Node12&#45;&gt;Node19</title>
<path fill="none" stroke="midnightblue" d="M649.749,-394.955C706.255,-384.626 795,-357.774 795,-291 795,-291 795,-291 795,-233 795,-200.12 785.032,-162.86 778.221,-141.235"/>
<polygon fill="midnightblue" stroke="midnightblue" points="781.54,-140.125 775.102,-131.711 774.888,-142.303 781.54,-140.125"/>
</g>
<!-- Node12&#45;&gt;Node20 -->
<g id="edge33" class="edge"><title>Node12&#45;&gt;Node20</title>
<path fill="none" stroke="midnightblue" d="M565.496,-392.444C520.332,-382.407 445.862,-365.858 400.34,-355.742"/>
<polygon fill="midnightblue" stroke="midnightblue" points="401.055,-352.316 390.534,-353.563 399.536,-359.149 401.055,-352.316"/>
</g>
<!-- Node12&#45;&gt;Node10 -->
<g id="edge34" class="edge"><title>Node12&#45;&gt;Node10</title>
<path fill="none" stroke="midnightblue" d="M649.517,-398.933C716.3,-393.183 833,-371.603 833,-291 833,-291 833,-291 833,-177 833,-143.41 819.442,-106.14 810.259,-84.7473"/>
<polygon fill="midnightblue" stroke="midnightblue" points="813.452,-83.3128 806.181,-75.6067 807.059,-86.1651 813.452,-83.3128"/>
</g>
<!-- Node13&#45;&gt;Node8 -->
<g id="edge19" class="edge"><title>Node13&#45;&gt;Node8</title>
<path fill="none" stroke="midnightblue" d="M276.148,-224.242C286.756,-211.423 307.515,-187.012 327,-168 337.799,-157.463 350.689,-146.487 361.052,-138.013"/>
<polygon fill="midnightblue" stroke="midnightblue" points="363.479,-140.553 369.062,-131.548 359.082,-135.105 363.479,-140.553"/>
</g>
<!-- Node13&#45;&gt;Node6 -->
<g id="edge20" class="edge"><title>Node13&#45;&gt;Node6</title>
<path fill="none" stroke="midnightblue" d="M268.843,-224.297C268.255,-191.633 266.169,-75.8661 265.342,-29.9573"/>
<polygon fill="midnightblue" stroke="midnightblue" points="268.84,-29.819 265.16,-19.8837 261.841,-29.9452 268.84,-29.819"/>
</g>
<!-- Node14&#45;&gt;Node5 -->
<g id="edge22" class="edge"><title>Node14&#45;&gt;Node5</title>
<path fill="none" stroke="midnightblue" d="M621.592,-168.385C611.634,-155.321 591.453,-130.107 571,-112 557.882,-100.386 541.637,-89.2757 528.547,-81.0004"/>
<polygon fill="midnightblue" stroke="midnightblue" points="530.009,-77.7895 519.663,-75.509 526.329,-83.7439 530.009,-77.7895"/>
</g>
<!-- Node14&#45;&gt;Node10 -->
<g id="edge23" class="edge"><title>Node14&#45;&gt;Node10</title>
<path fill="none" stroke="midnightblue" d="M633.615,-168.216C642.812,-154.466 662.349,-127.799 685,-112 711.708,-93.3717 747.164,-81.1465 772.019,-74.2031"/>
<polygon fill="midnightblue" stroke="midnightblue" points="773.206,-77.5087 781.965,-71.5475 771.4,-70.7456 773.206,-77.5087"/>
</g>
<!-- Node15&#45;&gt;Node14 -->
<g id="edge25" class="edge"><title>Node15&#45;&gt;Node14</title>
<path fill="none" stroke="midnightblue" d="M546.378,-336.441C553.71,-327.675 564.988,-313.463 573,-300 593.672,-265.265 611.806,-221.411 621.196,-197.182"/>
<polygon fill="midnightblue" stroke="midnightblue" points="624.582,-198.124 624.873,-187.534 618.041,-195.632 624.582,-198.124"/>
</g>
<!-- Node15&#45;&gt;Node10 -->
<g id="edge26" class="edge"><title>Node15&#45;&gt;Node10</title>
<path fill="none" stroke="midnightblue" d="M550.539,-336.306C561.684,-327.661 578.773,-313.739 592,-300 635.905,-254.395 642.781,-239.208 680,-188 703.916,-155.095 701.863,-140.386 731,-112 744.034,-99.3023 761.214,-88.2985 775.41,-80.3507"/>
<polygon fill="midnightblue" stroke="midnightblue" points="777.101,-83.4156 784.234,-75.5821 773.773,-77.2573 777.101,-83.4156"/>
</g>
<!-- Node16 -->
<g id="node16" class="node"><title>Node16</title>
<polygon fill="none" stroke="#bfbfbf" points="395.5,-280.5 395.5,-299.5 430.5,-299.5 430.5,-280.5 395.5,-280.5"/>
<text text-anchor="middle" x="413" y="-287.5" font-family="FreeSans" font-size="10.00">map</text>
</g>
<!-- Node15&#45;&gt;Node16 -->
<g id="edge27" class="edge"><title>Node15&#45;&gt;Node16</title>
<path fill="none" stroke="midnightblue" d="M519.035,-336.444C497.784,-327.336 464.018,-312.865 440.312,-302.705"/>
<polygon fill="midnightblue" stroke="midnightblue" points="441.405,-299.366 430.834,-298.643 438.647,-305.8 441.405,-299.366"/>
</g>
<!-- Node17&#45;&gt;Node4 -->
<g id="edge29" class="edge"><title>Node17&#45;&gt;Node4</title>
<path fill="none" stroke="midnightblue" d="M646.074,-336.444C620.781,-327.399 580.698,-313.064 552.32,-302.916"/>
<polygon fill="midnightblue" stroke="midnightblue" points="553.409,-299.588 542.814,-299.516 551.052,-306.179 553.409,-299.588"/>
</g>
<!-- Node18 -->
<g id="node18" class="node"><title>Node18</title>
<polygon fill="none" stroke="#bfbfbf" points="681,-280.5 681,-299.5 729,-299.5 729,-280.5 681,-280.5"/>
<text text-anchor="middle" x="705" y="-287.5" font-family="FreeSans" font-size="10.00">cstddef</text>
</g>
<!-- Node17&#45;&gt;Node18 -->
<g id="edge30" class="edge"><title>Node17&#45;&gt;Node18</title>
<path fill="none" stroke="midnightblue" d="M675.78,-336.083C680.672,-328.534 687.827,-317.495 693.833,-308.23"/>
<polygon fill="midnightblue" stroke="midnightblue" points="696.826,-310.046 699.328,-299.751 690.952,-306.239 696.826,-310.046"/>
</g>
<!-- Node19&#45;&gt;Node10 -->
<g id="edge32" class="edge"><title>Node19&#45;&gt;Node10</title>
<path fill="none" stroke="midnightblue" d="M776.954,-112.083C781.104,-104.613 787.153,-93.7244 792.267,-84.5199"/>
<polygon fill="midnightblue" stroke="midnightblue" points="795.341,-86.1924 797.138,-75.7511 789.222,-82.7929 795.341,-86.1924"/>
</g>
<!-- Node22 -->
<g id="node22" class="node"><title>Node22</title>
<g id="a_node22"><a xlink:href="../../df/d32/PHObject_8h.html" target="_top" xlink:title="phool/PHObject.h">
<polygon fill="none" stroke="black" points="107,-392.5 107,-411.5 199,-411.5 199,-392.5 107,-392.5"/>
<text text-anchor="middle" x="153" y="-399.5" font-family="FreeSans" font-size="10.00">phool/PHObject.h</text>
</a>
</g>
</g>
<!-- Node21&#45;&gt;Node22 -->
<g id="edge40" class="edge"><title>Node21&#45;&gt;Node22</title>
<path fill="none" stroke="midnightblue" d="M215.111,-448.324C203.85,-440.107 186.713,-427.602 173.291,-417.807"/>
<polygon fill="midnightblue" stroke="midnightblue" points="175.247,-414.901 165.106,-411.834 171.12,-420.556 175.247,-414.901"/>
</g>
<!-- Node21&#45;&gt;Node16 -->
<g id="edge43" class="edge"><title>Node21&#45;&gt;Node16</title>
<path fill="none" stroke="midnightblue" d="M231.932,-448.303C244.494,-426.792 279.711,-370.353 322,-336 341.221,-320.386 366.756,-308.356 385.884,-300.679"/>
<polygon fill="midnightblue" stroke="midnightblue" points="387.169,-303.934 395.235,-297.065 384.646,-297.405 387.169,-303.934"/>
</g>
<!-- Node21&#45;&gt;Node6 -->
<g id="edge44" class="edge"><title>Node21&#45;&gt;Node6</title>
<path fill="none" stroke="midnightblue" d="M167.179,-448.415C142.795,-442.083 116.134,-431.088 98,-412 77.27,-390.179 79,-377.098 79,-347 79,-347 79,-347 79,-121 79,-52.273 174.247,-25.579 228.424,-15.9542"/>
<polygon fill="midnightblue" stroke="midnightblue" points="229.062,-19.3962 238.351,-14.2993 227.911,-12.4915 229.062,-19.3962"/>
</g>
<!-- Node22&#45;&gt;Node20 -->
<g id="edge41" class="edge"><title>Node22&#45;&gt;Node20</title>
<path fill="none" stroke="midnightblue" d="M185.958,-392.444C222.735,-382.896 282.216,-367.454 321.467,-357.263"/>
<polygon fill="midnightblue" stroke="midnightblue" points="322.429,-360.63 331.229,-354.729 320.67,-353.854 322.429,-360.63"/>
</g>
<!-- Node22&#45;&gt;Node6 -->
<g id="edge42" class="edge"><title>Node22&#45;&gt;Node6</title>
<path fill="none" stroke="midnightblue" d="M155.428,-392.24C160.341,-373.711 171,-329.122 171,-291 171,-291 171,-291 171,-121 171,-77.9325 213.16,-43.2143 241.01,-24.9784"/>
<polygon fill="midnightblue" stroke="midnightblue" points="242.88,-27.9369 249.478,-19.6471 239.151,-22.0132 242.88,-27.9369"/>
</g>
<!-- Node26 -->
<g id="node26" class="node"><title>Node26</title>
<g id="a_node26"><a xlink:href="../../d5/dc2/SubsysReco_8h.html" target="_top" xlink:title="fun4all/SubsysReco.h">
<polygon fill="none" stroke="black" points="899.5,-168.5 899.5,-187.5 1008.5,-187.5 1008.5,-168.5 899.5,-168.5"/>
<text text-anchor="middle" x="954" y="-175.5" font-family="FreeSans" font-size="10.00">fun4all/SubsysReco.h</text>
</a>
</g>
</g>
<!-- Node25&#45;&gt;Node26 -->
<g id="edge48" class="edge"><title>Node25&#45;&gt;Node26</title>
<path fill="none" stroke="midnightblue" d="M946.314,-392.297C947.491,-359.633 951.662,-243.866 953.317,-197.957"/>
<polygon fill="midnightblue" stroke="midnightblue" points="956.817,-198.003 953.68,-187.884 949.822,-197.751 956.817,-198.003"/>
</g>
<!-- Node27 -->
<g id="node27" class="node"><title>Node27</title>
<g id="a_node27"><a xlink:href="../../d2/de7/Fun4AllBase_8h.html" target="_top" xlink:title="Fun4AllBase.h">
<polygon fill="none" stroke="black" points="937.5,-112.5 937.5,-131.5 1016.5,-131.5 1016.5,-112.5 937.5,-112.5"/>
<text text-anchor="middle" x="977" y="-119.5" font-family="FreeSans" font-size="10.00">Fun4AllBase.h</text>
</a>
</g>
</g>
<!-- Node26&#45;&gt;Node27 -->
<g id="edge49" class="edge"><title>Node26&#45;&gt;Node27</title>
<path fill="none" stroke="midnightblue" d="M957.798,-168.083C960.913,-160.77 965.423,-150.181 969.289,-141.103"/>
<polygon fill="midnightblue" stroke="midnightblue" points="972.574,-142.323 973.273,-131.751 966.134,-139.58 972.574,-142.323"/>
</g>
<!-- Node26&#45;&gt;Node10 -->
<g id="edge52" class="edge"><title>Node26&#45;&gt;Node10</title>
<path fill="none" stroke="midnightblue" d="M946.121,-168.247C933.906,-155.001 909.27,-129.554 885,-112 867.791,-99.5532 846.74,-88.1781 830.145,-79.9785"/>
<polygon fill="midnightblue" stroke="midnightblue" points="831.477,-76.7353 820.951,-75.5335 828.43,-83.0374 831.477,-76.7353"/>
</g>
<!-- Node27&#45;&gt;Node10 -->
<g id="edge50" class="edge"><title>Node27&#45;&gt;Node10</title>
<path fill="none" stroke="midnightblue" d="M949.271,-112.444C917.354,-102.595 865.115,-86.4754 832.194,-76.3169"/>
<polygon fill="midnightblue" stroke="midnightblue" points="832.822,-72.8479 822.234,-73.2437 830.758,-79.5367 832.822,-72.8479"/>
</g>
<!-- Node28 -->
<g id="node28" class="node"><title>Node28</title>
<polygon fill="none" stroke="#bfbfbf" points="955,-56.5 955,-75.5 999,-75.5 999,-56.5 955,-56.5"/>
<text text-anchor="middle" x="977" y="-63.5" font-family="FreeSans" font-size="10.00">climits</text>
</g>
<!-- Node27&#45;&gt;Node28 -->
<g id="edge51" class="edge"><title>Node27&#45;&gt;Node28</title>
<path fill="none" stroke="midnightblue" d="M977,-112.083C977,-105.006 977,-94.8611 977,-85.9865"/>
<polygon fill="midnightblue" stroke="midnightblue" points="980.5,-85.751 977,-75.7511 973.5,-85.7511 980.5,-85.751"/>
</g>
</g>
</svg>
