<?xml version="1.0" encoding="UTF-8" standalone="no"?>
<!DOCTYPE svg PUBLIC "-//W3C//DTD SVG 1.1//EN"
 "http://www.w3.org/Graphics/SVG/1.1/DTD/svg11.dtd">
<!-- Generated by graphviz version 2.30.1 (20200930.0103)
 -->
<!-- Title: /dev/shm/kenichi/update&#45;github&#45;e1039&#45;doc/e1039&#45;core/interface_main/SQSpill.h Pages: 1 -->
<svg width="2063pt" height="398pt"
 viewBox="0.00 0.00 2063.00 398.00" xmlns="http://www.w3.org/2000/svg" xmlns:xlink="http://www.w3.org/1999/xlink">
<g id="graph0" class="graph" transform="scale(1 1) rotate(0) translate(4 394)">
<title>/dev/shm/kenichi/update&#45;github&#45;e1039&#45;doc/e1039&#45;core/interface_main/SQSpill.h</title>
<!-- Node1 -->
<g id="node1" class="node"><title>Node1</title>
<polygon fill="#bfbfbf" stroke="black" points="974.5,-348.5 974.5,-389.5 1123.5,-389.5 1123.5,-348.5 974.5,-348.5"/>
<text text-anchor="start" x="982.5" y="-377.5" font-family="FreeSans" font-size="10.00">/dev/shm/kenichi/update</text>
<text text-anchor="start" x="982.5" y="-366.5" font-family="FreeSans" font-size="10.00">&#45;github&#45;e1039&#45;doc/e1039</text>
<text text-anchor="middle" x="1049" y="-355.5" font-family="FreeSans" font-size="10.00">&#45;core/interface_main/SQSpill.h</text>
</g>
<!-- Node2 -->
<g id="node2" class="node"><title>Node2</title>
<g id="a_node2"><a xlink:href="../../d1/d95/SQSpill_8cxx.html" target="_top" target="_top" target="_top" xlink:title="/dev/shm/kenichi/update\l&#45;github&#45;e1039&#45;doc/e1039\l&#45;core/interface_main/SQSpill.cxx">
<polygon fill="none" stroke="black" points="374,-270.5 374,-311.5 532,-311.5 532,-270.5 374,-270.5"/>
<text text-anchor="start" x="382" y="-299.5" font-family="FreeSans" font-size="10.00">/dev/shm/kenichi/update</text>
<text text-anchor="start" x="382" y="-288.5" font-family="FreeSans" font-size="10.00">&#45;github&#45;e1039&#45;doc/e1039</text>
<text text-anchor="middle" x="453" y="-277.5" font-family="FreeSans" font-size="10.00">&#45;core/interface_main/SQSpill.cxx</text>
</a>
</g>
</g>
<!-- Node1&#45;&gt;Node2 -->
<g id="edge1" class="edge"><title>Node1&#45;&gt;Node2</title>
<path fill="none" stroke="midnightblue" d="M964.033,-361.176C863.737,-352.513 692.1,-335.78 546,-312 541.436,-311.257 536.758,-310.437 532.045,-309.567"/>
<polygon fill="midnightblue" stroke="midnightblue" points="963.847,-364.673 974.11,-362.04 964.445,-357.699 963.847,-364.673"/>
</g>
<!-- Node3 -->
<g id="node3" class="node"><title>Node3</title>
<g id="a_node3"><a xlink:href="../../dd/df4/SQSpill__v1_8h.html" target="_top" target="_top" target="_top" xlink:title="/dev/shm/kenichi/update\l&#45;github&#45;e1039&#45;doc/e1039\l&#45;core/interface_main/SQSpill_v1.h">
<polygon fill="none" stroke="black" points="1091,-186.5 1091,-227.5 1255,-227.5 1255,-186.5 1091,-186.5"/>
<text text-anchor="start" x="1099" y="-215.5" font-family="FreeSans" font-size="10.00">/dev/shm/kenichi/update</text>
<text text-anchor="start" x="1099" y="-204.5" font-family="FreeSans" font-size="10.00">&#45;github&#45;e1039&#45;doc/e1039</text>
<text text-anchor="middle" x="1173" y="-193.5" font-family="FreeSans" font-size="10.00">&#45;core/interface_main/SQSpill_v1.h</text>
</a>
</g>
</g>
<!-- Node1&#45;&gt;Node3 -->
<g id="edge2" class="edge"><title>Node1&#45;&gt;Node3</title>
<path fill="none" stroke="midnightblue" d="M1070.48,-340.282C1095.37,-308.169 1135.75,-256.059 1157.67,-227.78"/>
<polygon fill="midnightblue" stroke="midnightblue" points="1067.56,-338.333 1064.2,-348.381 1073.1,-342.621 1067.56,-338.333"/>
</g>
<!-- Node13 -->
<g id="node13" class="node"><title>Node13</title>
<g id="a_node13"><a xlink:href="../../d6/d9f/SQSpill__v2_8h.html" target="_top" target="_top" target="_top" xlink:title="/dev/shm/kenichi/update\l&#45;github&#45;e1039&#45;doc/e1039\l&#45;core/interface_main/SQSpill_v2.h">
<polygon fill="none" stroke="black" points="588,-186.5 588,-227.5 752,-227.5 752,-186.5 588,-186.5"/>
<text text-anchor="start" x="596" y="-215.5" font-family="FreeSans" font-size="10.00">/dev/shm/kenichi/update</text>
<text text-anchor="start" x="596" y="-204.5" font-family="FreeSans" font-size="10.00">&#45;github&#45;e1039&#45;doc/e1039</text>
<text text-anchor="middle" x="670" y="-193.5" font-family="FreeSans" font-size="10.00">&#45;core/interface_main/SQSpill_v2.h</text>
</a>
</g>
</g>
<!-- Node1&#45;&gt;Node13 -->
<g id="edge12" class="edge"><title>Node1&#45;&gt;Node13</title>
<path fill="none" stroke="midnightblue" d="M993.221,-344.452C918.176,-312.771 786.079,-257.004 716.26,-227.529"/>
<polygon fill="midnightblue" stroke="midnightblue" points="991.953,-347.716 1002.53,-348.381 994.676,-341.267 991.953,-347.716"/>
</g>
<!-- Node17 -->
<g id="node17" class="node"><title>Node17</title>
<g id="a_node17"><a xlink:href="../../db/d81/SQSpillMap_8h.html" target="_top" target="_top" target="_top" xlink:title="/dev/shm/kenichi/update\l&#45;github&#45;e1039&#45;doc/e1039\l&#45;core/interface_main/SQSpillMap.h">
<polygon fill="none" stroke="black" points="1376.5,-270.5 1376.5,-311.5 1543.5,-311.5 1543.5,-270.5 1376.5,-270.5"/>
<text text-anchor="start" x="1384.5" y="-299.5" font-family="FreeSans" font-size="10.00">/dev/shm/kenichi/update</text>
<text text-anchor="start" x="1384.5" y="-288.5" font-family="FreeSans" font-size="10.00">&#45;github&#45;e1039&#45;doc/e1039</text>
<text text-anchor="middle" x="1460" y="-277.5" font-family="FreeSans" font-size="10.00">&#45;core/interface_main/SQSpillMap.h</text>
</a>
</g>
</g>
<!-- Node1&#45;&gt;Node17 -->
<g id="edge16" class="edge"><title>Node1&#45;&gt;Node17</title>
<path fill="none" stroke="midnightblue" d="M1134.16,-352.252C1205.19,-339.118 1305.83,-320.508 1376.41,-307.456"/>
<polygon fill="midnightblue" stroke="midnightblue" points="1133.1,-348.889 1123.91,-354.149 1134.38,-355.772 1133.1,-348.889"/>
</g>
<!-- Node18 -->
<g id="node18" class="node"><title>Node18</title>
<g id="a_node18"><a xlink:href="../../d9/d9e/SQSpillMap_8cxx.html" target="_top" target="_top" target="_top" xlink:title="/dev/shm/kenichi/update\l&#45;github&#45;e1039&#45;doc/e1039\l&#45;core/interface_main/SQSpillMap.cxx">
<polygon fill="none" stroke="black" points="1273,-186.5 1273,-227.5 1449,-227.5 1449,-186.5 1273,-186.5"/>
<text text-anchor="start" x="1281" y="-215.5" font-family="FreeSans" font-size="10.00">/dev/shm/kenichi/update</text>
<text text-anchor="start" x="1281" y="-204.5" font-family="FreeSans" font-size="10.00">&#45;github&#45;e1039&#45;doc/e1039</text>
<text text-anchor="middle" x="1361" y="-193.5" font-family="FreeSans" font-size="10.00">&#45;core/interface_main/SQSpillMap.cxx</text>
</a>
</g>
</g>
<!-- Node1&#45;&gt;Node18 -->
<g id="edge32" class="edge"><title>Node1&#45;&gt;Node18</title>
<path fill="none" stroke="midnightblue" d="M1096.44,-343.673C1158.47,-311.864 1265.91,-256.764 1322.92,-227.529"/>
<polygon fill="midnightblue" stroke="midnightblue" points="1094.56,-340.703 1087.26,-348.381 1097.75,-346.932 1094.56,-340.703"/>
</g>
<!-- Node19 -->
<g id="node19" class="node"><title>Node19</title>
<g id="a_node19"><a xlink:href="../../da/d0e/SQSpillMap__v1_8h.html" target="_top" target="_top" target="_top" xlink:title="/dev/shm/kenichi/update\l&#45;github&#45;e1039&#45;doc/e1039\l&#45;core/interface_main/SQSpillMap_v1.h">
<polygon fill="none" stroke="black" points="891,-186.5 891,-227.5 1073,-227.5 1073,-186.5 891,-186.5"/>
<text text-anchor="start" x="899" y="-215.5" font-family="FreeSans" font-size="10.00">/dev/shm/kenichi/update</text>
<text text-anchor="start" x="899" y="-204.5" font-family="FreeSans" font-size="10.00">&#45;github&#45;e1039&#45;doc/e1039</text>
<text text-anchor="middle" x="982" y="-193.5" font-family="FreeSans" font-size="10.00">&#45;core/interface_main/SQSpillMap_v1.h</text>
</a>
</g>
</g>
<!-- Node1&#45;&gt;Node19 -->
<g id="edge33" class="edge"><title>Node1&#45;&gt;Node19</title>
<path fill="none" stroke="midnightblue" d="M1036.87,-339.043C1023.39,-306.842 1001.97,-255.698 990.283,-227.78"/>
<polygon fill="midnightblue" stroke="midnightblue" points="1033.69,-340.509 1040.78,-348.381 1040.15,-337.805 1033.69,-340.509"/>
</g>
<!-- Node20 -->
<g id="node20" class="node"><title>Node20</title>
<g id="a_node20"><a xlink:href="../../d2/d32/SQSpillMap__v1_8cxx.html" target="_top" target="_top" target="_top" xlink:title="/dev/shm/kenichi/update\l&#45;github&#45;e1039&#45;doc/e1039\l&#45;core/interface_main/SQSpillMap_v1.cxx">
<polygon fill="none" stroke="black" points="190.5,-96.5 190.5,-137.5 381.5,-137.5 381.5,-96.5 190.5,-96.5"/>
<text text-anchor="start" x="198.5" y="-125.5" font-family="FreeSans" font-size="10.00">/dev/shm/kenichi/update</text>
<text text-anchor="start" x="198.5" y="-114.5" font-family="FreeSans" font-size="10.00">&#45;github&#45;e1039&#45;doc/e1039</text>
<text text-anchor="middle" x="286" y="-103.5" font-family="FreeSans" font-size="10.00">&#45;core/interface_main/SQSpillMap_v1.cxx</text>
</a>
</g>
</g>
<!-- Node1&#45;&gt;Node20 -->
<g id="edge34" class="edge"><title>Node1&#45;&gt;Node20</title>
<path fill="none" stroke="midnightblue" d="M964.454,-348.603C921.59,-338.4 868.828,-325.275 822,-312 712.873,-281.065 685.79,-272.231 579,-234 491.05,-202.514 390.074,-161.424 332.576,-137.549"/>
<polygon fill="midnightblue" stroke="midnightblue" points="963.746,-352.032 974.283,-350.933 965.36,-345.221 963.746,-352.032"/>
</g>
<!-- Node21 -->
<g id="node21" class="node"><title>Node21</title>
<g id="a_node21"><a xlink:href="../../df/d04/DbUpSpill_8cc.html" target="_top" target="_top" target="_top" xlink:title="/dev/shm/kenichi/update\l&#45;github&#45;e1039&#45;doc/e1039\l&#45;core/online/decoder_maindaq\l/DbUpSpill.cc">
<polygon fill="none" stroke="black" points="1832,-181 1832,-233 1978,-233 1978,-181 1832,-181"/>
<text text-anchor="start" x="1840" y="-221" font-family="FreeSans" font-size="10.00">/dev/shm/kenichi/update</text>
<text text-anchor="start" x="1840" y="-210" font-family="FreeSans" font-size="10.00">&#45;github&#45;e1039&#45;doc/e1039</text>
<text text-anchor="start" x="1840" y="-199" font-family="FreeSans" font-size="10.00">&#45;core/online/decoder_maindaq</text>
<text text-anchor="middle" x="1905" y="-188" font-family="FreeSans" font-size="10.00">/DbUpSpill.cc</text>
</a>
</g>
</g>
<!-- Node1&#45;&gt;Node21 -->
<g id="edge35" class="edge"><title>Node1&#45;&gt;Node21</title>
<path fill="none" stroke="midnightblue" d="M1133.86,-362.979C1234.39,-356.013 1406.6,-340.876 1552,-312 1674.51,-287.668 1702.39,-270.005 1822,-234 1825.18,-233.042 1828.43,-232.057 1831.71,-231.057"/>
<polygon fill="midnightblue" stroke="midnightblue" points="1133.49,-359.496 1123.75,-363.668 1133.97,-366.479 1133.49,-359.496"/>
</g>
<!-- Node4 -->
<g id="node4" class="node"><title>Node4</title>
<g id="a_node4"><a xlink:href="../../d7/d08/SQSpill__v1_8cxx.html" target="_top" target="_top" target="_top" xlink:title="/dev/shm/kenichi/update\l&#45;github&#45;e1039&#45;doc/e1039\l&#45;core/interface_main/SQSpill_v1.cxx">
<polygon fill="none" stroke="black" points="1882.5,-96.5 1882.5,-137.5 2055.5,-137.5 2055.5,-96.5 1882.5,-96.5"/>
<text text-anchor="start" x="1890.5" y="-125.5" font-family="FreeSans" font-size="10.00">/dev/shm/kenichi/update</text>
<text text-anchor="start" x="1890.5" y="-114.5" font-family="FreeSans" font-size="10.00">&#45;github&#45;e1039&#45;doc/e1039</text>
<text text-anchor="middle" x="1969" y="-103.5" font-family="FreeSans" font-size="10.00">&#45;core/interface_main/SQSpill_v1.cxx</text>
</a>
</g>
</g>
<!-- Node3&#45;&gt;Node4 -->
<g id="edge3" class="edge"><title>Node3&#45;&gt;Node4</title>
<path fill="none" stroke="midnightblue" d="M1244.83,-183.912C1251.27,-182.408 1257.73,-181.068 1264,-180 1531.29,-134.483 1605.4,-187.67 1873,-144 1883.14,-142.345 1893.75,-140.055 1904.07,-137.515"/>
<polygon fill="midnightblue" stroke="midnightblue" points="1243.62,-180.606 1234.75,-186.398 1245.3,-187.402 1243.62,-180.606"/>
</g>
<!-- Node5 -->
<g id="node5" class="node"><title>Node5</title>
<g id="a_node5"><a xlink:href="../../d0/d82/RndmEmbed_8cxx.html" target="_top" target="_top" target="_top" xlink:title="/dev/shm/kenichi/update\l&#45;github&#45;e1039&#45;doc/e1039\l&#45;core/packages/embedding\l/RndmEmbed.cxx">
<polygon fill="none" stroke="black" points="1439.5,-91 1439.5,-143 1572.5,-143 1572.5,-91 1439.5,-91"/>
<text text-anchor="start" x="1447.5" y="-131" font-family="FreeSans" font-size="10.00">/dev/shm/kenichi/update</text>
<text text-anchor="start" x="1447.5" y="-120" font-family="FreeSans" font-size="10.00">&#45;github&#45;e1039&#45;doc/e1039</text>
<text text-anchor="start" x="1447.5" y="-109" font-family="FreeSans" font-size="10.00">&#45;core/packages/embedding</text>
<text text-anchor="middle" x="1506" y="-98" font-family="FreeSans" font-size="10.00">/RndmEmbed.cxx</text>
</a>
</g>
</g>
<!-- Node3&#45;&gt;Node5 -->
<g id="edge4" class="edge"><title>Node3&#45;&gt;Node5</title>
<path fill="none" stroke="midnightblue" d="M1249.13,-183.855C1254.16,-182.516 1259.14,-181.219 1264,-180 1337.22,-161.621 1357.27,-164.252 1430,-144 1433.09,-143.14 1436.24,-142.224 1439.41,-141.27"/>
<polygon fill="midnightblue" stroke="midnightblue" points="1248.2,-180.482 1239.46,-186.473 1250.03,-187.238 1248.2,-180.482"/>
</g>
<!-- Node6 -->
<g id="node6" class="node"><title>Node6</title>
<g id="a_node6"><a xlink:href="../../d7/d67/SRawEventEmbed_8cxx.html" target="_top" target="_top" target="_top" xlink:title="/dev/shm/kenichi/update\l&#45;github&#45;e1039&#45;doc/e1039\l&#45;core/packages/embedding\l/SRawEventEmbed.cxx">
<polygon fill="none" stroke="black" points="1590.5,-91 1590.5,-143 1723.5,-143 1723.5,-91 1590.5,-91"/>
<text text-anchor="start" x="1598.5" y="-131" font-family="FreeSans" font-size="10.00">/dev/shm/kenichi/update</text>
<text text-anchor="start" x="1598.5" y="-120" font-family="FreeSans" font-size="10.00">&#45;github&#45;e1039&#45;doc/e1039</text>
<text text-anchor="start" x="1598.5" y="-109" font-family="FreeSans" font-size="10.00">&#45;core/packages/embedding</text>
<text text-anchor="middle" x="1657" y="-98" font-family="FreeSans" font-size="10.00">/SRawEventEmbed.cxx</text>
</a>
</g>
</g>
<!-- Node3&#45;&gt;Node6 -->
<g id="edge5" class="edge"><title>Node3&#45;&gt;Node6</title>
<path fill="none" stroke="midnightblue" d="M1246.31,-183.931C1252.27,-182.482 1258.22,-181.146 1264,-180 1403.09,-152.429 1442.67,-175.131 1581,-144 1583.99,-143.326 1587.03,-142.577 1590.09,-141.769"/>
<polygon fill="midnightblue" stroke="midnightblue" points="1245.15,-180.615 1236.32,-186.464 1246.87,-187.401 1245.15,-180.615"/>
</g>
<!-- Node7 -->
<g id="node7" class="node"><title>Node7</title>
<g id="a_node7"><a xlink:href="../../d2/dce/EvtFilter_8cxx.html" target="_top" target="_top" target="_top" xlink:title="/dev/shm/kenichi/update\l&#45;github&#45;e1039&#45;doc/e1039\l&#45;core/packages/evt_filter\l/EvtFilter.cxx">
<polygon fill="none" stroke="black" points="1741.5,-91 1741.5,-143 1864.5,-143 1864.5,-91 1741.5,-91"/>
<text text-anchor="start" x="1749.5" y="-131" font-family="FreeSans" font-size="10.00">/dev/shm/kenichi/update</text>
<text text-anchor="start" x="1749.5" y="-120" font-family="FreeSans" font-size="10.00">&#45;github&#45;e1039&#45;doc/e1039</text>
<text text-anchor="start" x="1749.5" y="-109" font-family="FreeSans" font-size="10.00">&#45;core/packages/evt_filter</text>
<text text-anchor="middle" x="1803" y="-98" font-family="FreeSans" font-size="10.00">/EvtFilter.cxx</text>
</a>
</g>
</g>
<!-- Node3&#45;&gt;Node7 -->
<g id="edge6" class="edge"><title>Node3&#45;&gt;Node7</title>
<path fill="none" stroke="midnightblue" d="M1245.18,-183.955C1251.51,-182.455 1257.84,-181.104 1264,-180 1469.34,-143.158 1528.14,-188.283 1732,-144 1735.08,-143.331 1738.2,-142.559 1741.34,-141.71"/>
<polygon fill="midnightblue" stroke="midnightblue" points="1244.13,-180.609 1235.27,-186.419 1245.82,-187.402 1244.13,-180.609"/>
</g>
<!-- Node8 -->
<g id="node8" class="node"><title>Node8</title>
<g id="a_node8"><a xlink:href="../../d5/dda/KScheduler_8h.html" target="_top" target="_top" target="_top" xlink:title="/dev/shm/kenichi/update\l&#45;github&#45;e1039&#45;doc/e1039\l&#45;core/packages/kTThreads\l/KScheduler.h">
<polygon fill="none" stroke="black" points="761.5,-91 761.5,-143 892.5,-143 892.5,-91 761.5,-91"/>
<text text-anchor="start" x="769.5" y="-131" font-family="FreeSans" font-size="10.00">/dev/shm/kenichi/update</text>
<text text-anchor="start" x="769.5" y="-120" font-family="FreeSans" font-size="10.00">&#45;github&#45;e1039&#45;doc/e1039</text>
<text text-anchor="start" x="769.5" y="-109" font-family="FreeSans" font-size="10.00">&#45;core/packages/kTThreads</text>
<text text-anchor="middle" x="827" y="-98" font-family="FreeSans" font-size="10.00">/KScheduler.h</text>
</a>
</g>
</g>
<!-- Node3&#45;&gt;Node8 -->
<g id="edge7" class="edge"><title>Node3&#45;&gt;Node8</title>
<path fill="none" stroke="midnightblue" d="M1097.19,-183.837C1092.06,-182.493 1086.96,-181.2 1082,-180 1002.28,-160.717 980.112,-165.648 901,-144 898.242,-143.245 895.438,-142.439 892.615,-141.596"/>
<polygon fill="midnightblue" stroke="midnightblue" points="1096.5,-187.274 1107.06,-186.474 1098.31,-180.512 1096.5,-187.274"/>
</g>
<!-- Node10 -->
<g id="node10" class="node"><title>Node10</title>
<g id="a_node10"><a xlink:href="../../d0/d98/SQReco_8cxx.html" target="_top" target="_top" target="_top" xlink:title="/dev/shm/kenichi/update\l&#45;github&#45;e1039&#45;doc/e1039\l&#45;core/packages/reco/ktracker\l/SQReco.cxx">
<polygon fill="none" stroke="black" points="910.5,-91 910.5,-143 1053.5,-143 1053.5,-91 910.5,-91"/>
<text text-anchor="start" x="918.5" y="-131" font-family="FreeSans" font-size="10.00">/dev/shm/kenichi/update</text>
<text text-anchor="start" x="918.5" y="-120" font-family="FreeSans" font-size="10.00">&#45;github&#45;e1039&#45;doc/e1039</text>
<text text-anchor="start" x="918.5" y="-109" font-family="FreeSans" font-size="10.00">&#45;core/packages/reco/ktracker</text>
<text text-anchor="middle" x="982" y="-98" font-family="FreeSans" font-size="10.00">/SQReco.cxx</text>
</a>
</g>
</g>
<!-- Node3&#45;&gt;Node10 -->
<g id="edge9" class="edge"><title>Node3&#45;&gt;Node10</title>
<path fill="none" stroke="midnightblue" d="M1121.19,-182.13C1094.88,-170.006 1062.92,-155.282 1036.27,-143.002"/>
<polygon fill="midnightblue" stroke="midnightblue" points="1120.06,-185.464 1130.61,-186.47 1122.99,-179.107 1120.06,-185.464"/>
</g>
<!-- Node11 -->
<g id="node11" class="node"><title>Node11</title>
<g id="a_node11"><a xlink:href="../../d4/da7/PatternDBGen_8cxx.html" target="_top" target="_top" target="_top" xlink:title="/dev/shm/kenichi/update\l&#45;github&#45;e1039&#45;doc/e1039\l&#45;core/packages/reco/patterndb\l/PatternDBGen.cxx">
<polygon fill="none" stroke="black" points="1072,-91 1072,-143 1220,-143 1220,-91 1072,-91"/>
<text text-anchor="start" x="1080" y="-131" font-family="FreeSans" font-size="10.00">/dev/shm/kenichi/update</text>
<text text-anchor="start" x="1080" y="-120" font-family="FreeSans" font-size="10.00">&#45;github&#45;e1039&#45;doc/e1039</text>
<text text-anchor="start" x="1080" y="-109" font-family="FreeSans" font-size="10.00">&#45;core/packages/reco/patterndb</text>
<text text-anchor="middle" x="1146" y="-98" font-family="FreeSans" font-size="10.00">/PatternDBGen.cxx</text>
</a>
</g>
</g>
<!-- Node3&#45;&gt;Node11 -->
<g id="edge10" class="edge"><title>Node3&#45;&gt;Node11</title>
<path fill="none" stroke="midnightblue" d="M1163.98,-176.591C1160.65,-165.757 1156.92,-153.592 1153.72,-143.166"/>
<polygon fill="midnightblue" stroke="midnightblue" points="1160.73,-177.936 1167.01,-186.47 1167.42,-175.883 1160.73,-177.936"/>
</g>
<!-- Node12 -->
<g id="node12" class="node"><title>Node12</title>
<g id="a_node12"><a xlink:href="../../db/d7f/AnaTrkQA_8cxx.html" target="_top" target="_top" target="_top" xlink:title="/dev/shm/kenichi/update\l&#45;github&#45;e1039&#45;doc/e1039\l&#45;analysis/AnaTrkQA/src/AnaTrkQA.cxx">
<polygon fill="none" stroke="black" points="1238.5,-96.5 1238.5,-137.5 1421.5,-137.5 1421.5,-96.5 1238.5,-96.5"/>
<text text-anchor="start" x="1246.5" y="-125.5" font-family="FreeSans" font-size="10.00">/dev/shm/kenichi/update</text>
<text text-anchor="start" x="1246.5" y="-114.5" font-family="FreeSans" font-size="10.00">&#45;github&#45;e1039&#45;doc/e1039</text>
<text text-anchor="middle" x="1330" y="-103.5" font-family="FreeSans" font-size="10.00">&#45;analysis/AnaTrkQA/src/AnaTrkQA.cxx</text>
</a>
</g>
</g>
<!-- Node3&#45;&gt;Node12 -->
<g id="edge11" class="edge"><title>Node3&#45;&gt;Node12</title>
<path fill="none" stroke="midnightblue" d="M1216.66,-181.528C1241.37,-167.678 1271.85,-150.591 1294.98,-137.627"/>
<polygon fill="midnightblue" stroke="midnightblue" points="1214.86,-178.527 1207.84,-186.47 1218.28,-184.634 1214.86,-178.527"/>
</g>
<!-- Node9 -->
<g id="node9" class="node"><title>Node9</title>
<g id="a_node9"><a xlink:href="../../d4/d30/KScheduler_8cxx.html" target="_top" target="_top" target="_top" xlink:title="/dev/shm/kenichi/update\l&#45;github&#45;e1039&#45;doc/e1039\l&#45;core/packages/kTThreads\l/KScheduler.cxx">
<polygon fill="none" stroke="black" points="761.5,-1 761.5,-53 892.5,-53 892.5,-1 761.5,-1"/>
<text text-anchor="start" x="769.5" y="-41" font-family="FreeSans" font-size="10.00">/dev/shm/kenichi/update</text>
<text text-anchor="start" x="769.5" y="-30" font-family="FreeSans" font-size="10.00">&#45;github&#45;e1039&#45;doc/e1039</text>
<text text-anchor="start" x="769.5" y="-19" font-family="FreeSans" font-size="10.00">&#45;core/packages/kTThreads</text>
<text text-anchor="middle" x="827" y="-8" font-family="FreeSans" font-size="10.00">/KScheduler.cxx</text>
</a>
</g>
</g>
<!-- Node8&#45;&gt;Node9 -->
<g id="edge8" class="edge"><title>Node8&#45;&gt;Node9</title>
<path fill="none" stroke="midnightblue" d="M827,-80.4892C827,-71.3088 827,-61.616 827,-53.0921"/>
<polygon fill="midnightblue" stroke="midnightblue" points="823.5,-80.5467 827,-90.5468 830.5,-80.5468 823.5,-80.5467"/>
</g>
<!-- Node14 -->
<g id="node14" class="node"><title>Node14</title>
<g id="a_node14"><a xlink:href="../../d1/d9a/SQSpill__v2_8cxx.html" target="_top" target="_top" target="_top" xlink:title="/dev/shm/kenichi/update\l&#45;github&#45;e1039&#45;doc/e1039\l&#45;core/interface_main/SQSpill_v2.cxx">
<polygon fill="none" stroke="black" points="-0.5,-96.5 -0.5,-137.5 172.5,-137.5 172.5,-96.5 -0.5,-96.5"/>
<text text-anchor="start" x="7.5" y="-125.5" font-family="FreeSans" font-size="10.00">/dev/shm/kenichi/update</text>
<text text-anchor="start" x="7.5" y="-114.5" font-family="FreeSans" font-size="10.00">&#45;github&#45;e1039&#45;doc/e1039</text>
<text text-anchor="middle" x="86" y="-103.5" font-family="FreeSans" font-size="10.00">&#45;core/interface_main/SQSpill_v2.cxx</text>
</a>
</g>
</g>
<!-- Node13&#45;&gt;Node14 -->
<g id="edge13" class="edge"><title>Node13&#45;&gt;Node14</title>
<path fill="none" stroke="midnightblue" d="M577.413,-198.184C478.605,-188.931 317.785,-171.248 181,-144 171.776,-142.163 162.131,-139.915 152.671,-137.517"/>
<polygon fill="midnightblue" stroke="midnightblue" points="577.386,-201.697 587.667,-199.135 578.033,-194.726 577.386,-201.697"/>
</g>
<!-- Node15 -->
<g id="node15" class="node"><title>Node15</title>
<g id="a_node15"><a xlink:href="../../de/d00/Fun4AllEVIOInputManager_8cc.html" target="_top" target="_top" target="_top" xlink:title="/dev/shm/kenichi/update\l&#45;github&#45;e1039&#45;doc/e1039\l&#45;core/online/decoder_maindaq\l/Fun4AllEVIOInputManager.cc">
<polygon fill="none" stroke="black" points="596.5,-91 596.5,-143 743.5,-143 743.5,-91 596.5,-91"/>
<text text-anchor="start" x="604.5" y="-131" font-family="FreeSans" font-size="10.00">/dev/shm/kenichi/update</text>
<text text-anchor="start" x="604.5" y="-120" font-family="FreeSans" font-size="10.00">&#45;github&#45;e1039&#45;doc/e1039</text>
<text text-anchor="start" x="604.5" y="-109" font-family="FreeSans" font-size="10.00">&#45;core/online/decoder_maindaq</text>
<text text-anchor="middle" x="670" y="-98" font-family="FreeSans" font-size="10.00">/Fun4AllEVIOInputManager.cc</text>
</a>
</g>
</g>
<!-- Node13&#45;&gt;Node15 -->
<g id="edge14" class="edge"><title>Node13&#45;&gt;Node15</title>
<path fill="none" stroke="midnightblue" d="M670,-176.255C670,-165.506 670,-153.484 670,-143.166"/>
<polygon fill="midnightblue" stroke="midnightblue" points="666.5,-176.47 670,-186.47 673.5,-176.47 666.5,-176.47"/>
</g>
<!-- Node16 -->
<g id="node16" class="node"><title>Node16</title>
<g id="a_node16"><a xlink:href="../../d5/dc7/Fun4AllSRawEventInputManager_8cxx.html" target="_top" target="_top" target="_top" xlink:title="/dev/shm/kenichi/update\l&#45;github&#45;e1039&#45;doc/e1039\l&#45;core/packages/reco/ktracker\l/Fun4AllSRawEventInputManager.cxx">
<polygon fill="none" stroke="black" points="400,-91 400,-143 578,-143 578,-91 400,-91"/>
<text text-anchor="start" x="408" y="-131" font-family="FreeSans" font-size="10.00">/dev/shm/kenichi/update</text>
<text text-anchor="start" x="408" y="-120" font-family="FreeSans" font-size="10.00">&#45;github&#45;e1039&#45;doc/e1039</text>
<text text-anchor="start" x="408" y="-109" font-family="FreeSans" font-size="10.00">&#45;core/packages/reco/ktracker</text>
<text text-anchor="middle" x="489" y="-98" font-family="FreeSans" font-size="10.00">/Fun4AllSRawEventInputManager.cxx</text>
</a>
</g>
</g>
<!-- Node13&#45;&gt;Node16 -->
<g id="edge15" class="edge"><title>Node13&#45;&gt;Node16</title>
<path fill="none" stroke="midnightblue" d="M620.576,-181.97C595.701,-169.877 565.572,-155.228 540.425,-143.002"/>
<polygon fill="midnightblue" stroke="midnightblue" points="619.306,-185.245 629.83,-186.47 622.367,-178.95 619.306,-185.245"/>
</g>
<!-- Node17&#45;&gt;Node18 -->
<g id="edge17" class="edge"><title>Node17&#45;&gt;Node18</title>
<path fill="none" stroke="midnightblue" d="M1428.29,-263.735C1414.2,-252.065 1397.89,-238.559 1384.86,-227.765"/>
<polygon fill="midnightblue" stroke="midnightblue" points="1426.35,-266.676 1436.29,-270.359 1430.82,-261.285 1426.35,-266.676"/>
</g>
<!-- Node17&#45;&gt;Node19 -->
<g id="edge18" class="edge"><title>Node17&#45;&gt;Node19</title>
<path fill="none" stroke="midnightblue" d="M1366.09,-278.934C1289.31,-269.205 1178.12,-253.558 1082,-234 1072.68,-232.104 1062.94,-229.879 1053.34,-227.542"/>
<polygon fill="midnightblue" stroke="midnightblue" points="1365.86,-282.433 1376.22,-280.209 1366.74,-275.487 1365.86,-282.433"/>
</g>
<!-- Node17&#45;&gt;Node21 -->
<g id="edge29" class="edge"><title>Node17&#45;&gt;Node21</title>
<path fill="none" stroke="midnightblue" d="M1553.87,-279.406C1627.39,-270.167 1731.93,-254.949 1822,-234 1825.24,-233.247 1828.53,-232.432 1831.84,-231.571"/>
<polygon fill="midnightblue" stroke="midnightblue" points="1553.2,-275.962 1543.71,-280.67 1554.07,-282.909 1553.2,-275.962"/>
</g>
<!-- Node22 -->
<g id="node22" class="node"><title>Node22</title>
<g id="a_node22"><a xlink:href="../../df/d39/Fun4AllSRawEventOutputManager_8cxx.html" target="_top" target="_top" target="_top" xlink:title="/dev/shm/kenichi/update\l&#45;github&#45;e1039&#45;doc/e1039\l&#45;core/packages/reco/ktracker\l/Fun4AllSRawEventOutputManager.cxx">
<polygon fill="none" stroke="black" points="1467.5,-181 1467.5,-233 1652.5,-233 1652.5,-181 1467.5,-181"/>
<text text-anchor="start" x="1475.5" y="-221" font-family="FreeSans" font-size="10.00">/dev/shm/kenichi/update</text>
<text text-anchor="start" x="1475.5" y="-210" font-family="FreeSans" font-size="10.00">&#45;github&#45;e1039&#45;doc/e1039</text>
<text text-anchor="start" x="1475.5" y="-199" font-family="FreeSans" font-size="10.00">&#45;core/packages/reco/ktracker</text>
<text text-anchor="middle" x="1560" y="-188" font-family="FreeSans" font-size="10.00">/Fun4AllSRawEventOutputManager.cxx</text>
</a>
</g>
</g>
<!-- Node17&#45;&gt;Node22 -->
<g id="edge30" class="edge"><title>Node17&#45;&gt;Node22</title>
<path fill="none" stroke="midnightblue" d="M1491.96,-263.793C1503.96,-253.957 1517.55,-242.809 1529.42,-233.078"/>
<polygon fill="midnightblue" stroke="midnightblue" points="1489.47,-261.312 1483.95,-270.359 1493.9,-266.725 1489.47,-261.312"/>
</g>
<!-- Node23 -->
<g id="node23" class="node"><title>Node23</title>
<g id="a_node23"><a xlink:href="../../dd/d0b/UtilSRawEvent_8cxx.html" target="_top" target="_top" target="_top" xlink:title="/dev/shm/kenichi/update\l&#45;github&#45;e1039&#45;doc/e1039\l&#45;core/packages/reco/ktracker\l/UtilSRawEvent.cxx">
<polygon fill="none" stroke="black" points="1670.5,-181 1670.5,-233 1813.5,-233 1813.5,-181 1670.5,-181"/>
<text text-anchor="start" x="1678.5" y="-221" font-family="FreeSans" font-size="10.00">/dev/shm/kenichi/update</text>
<text text-anchor="start" x="1678.5" y="-210" font-family="FreeSans" font-size="10.00">&#45;github&#45;e1039&#45;doc/e1039</text>
<text text-anchor="start" x="1678.5" y="-199" font-family="FreeSans" font-size="10.00">&#45;core/packages/reco/ktracker</text>
<text text-anchor="middle" x="1742" y="-188" font-family="FreeSans" font-size="10.00">/UtilSRawEvent.cxx</text>
</a>
</g>
</g>
<!-- Node17&#45;&gt;Node23 -->
<g id="edge31" class="edge"><title>Node17&#45;&gt;Node23</title>
<path fill="none" stroke="midnightblue" d="M1542.83,-267.703C1579.18,-257.716 1622.3,-245.596 1661,-234 1664.11,-233.067 1667.29,-232.103 1670.49,-231.119"/>
<polygon fill="midnightblue" stroke="midnightblue" points="1541.48,-264.442 1532.76,-270.46 1543.33,-271.193 1541.48,-264.442"/>
</g>
<!-- Node19&#45;&gt;Node20 -->
<g id="edge19" class="edge"><title>Node19&#45;&gt;Node20</title>
<path fill="none" stroke="midnightblue" d="M880.967,-193.681C843.327,-189.205 800.227,-184.215 761,-180 596.725,-162.347 553.843,-171.93 391,-144 380.635,-142.222 369.78,-139.978 359.146,-137.557"/>
<polygon fill="midnightblue" stroke="midnightblue" points="880.576,-197.159 890.92,-194.867 881.405,-190.208 880.576,-197.159"/>
</g>
<!-- Node19&#45;&gt;Node15 -->
<g id="edge20" class="edge"><title>Node19&#45;&gt;Node15</title>
<path fill="none" stroke="midnightblue" d="M896.204,-183.826C852.849,-172.379 799.495,-157.924 752,-144 749.277,-143.202 746.507,-142.379 743.711,-141.539"/>
<polygon fill="midnightblue" stroke="midnightblue" points="895.584,-187.282 906.146,-186.444 897.367,-180.513 895.584,-187.282"/>
</g>
<!-- Node19&#45;&gt;Node5 -->
<g id="edge21" class="edge"><title>Node19&#45;&gt;Node5</title>
<path fill="none" stroke="midnightblue" d="M1061.66,-184.139C1068.51,-182.609 1075.36,-181.2 1082,-180 1235.02,-152.357 1278.13,-177.379 1430,-144 1433,-143.341 1436.04,-142.604 1439.1,-141.806"/>
<polygon fill="midnightblue" stroke="midnightblue" points="1060.59,-180.793 1051.64,-186.458 1062.17,-187.613 1060.59,-180.793"/>
</g>
<!-- Node19&#45;&gt;Node6 -->
<g id="edge22" class="edge"><title>Node19&#45;&gt;Node6</title>
<path fill="none" stroke="midnightblue" d="M1060.2,-184.222C1067.53,-182.618 1074.88,-181.172 1082,-180 1301.4,-143.874 1363.11,-188.354 1581,-144 1584.01,-143.388 1587.06,-142.689 1590.12,-141.923"/>
<polygon fill="midnightblue" stroke="midnightblue" points="1059.2,-180.859 1050.23,-186.497 1060.76,-187.684 1059.2,-180.859"/>
</g>
<!-- Node19&#45;&gt;Node7 -->
<g id="edge23" class="edge"><title>Node19&#45;&gt;Node7</title>
<path fill="none" stroke="midnightblue" d="M1059.55,-184.231C1067.09,-182.598 1074.67,-181.145 1082,-180 1367.87,-135.376 1448.62,-202.383 1732,-144 1735.09,-143.364 1738.22,-142.619 1741.36,-141.791"/>
<polygon fill="midnightblue" stroke="midnightblue" points="1058.64,-180.847 1049.67,-186.47 1060.19,-187.674 1058.64,-180.847"/>
</g>
<!-- Node19&#45;&gt;Node8 -->
<g id="edge24" class="edge"><title>Node19&#45;&gt;Node8</title>
<path fill="none" stroke="midnightblue" d="M938.828,-181.49C917.693,-169.49 892.288,-155.067 871.038,-143.002"/>
<polygon fill="midnightblue" stroke="midnightblue" points="937.176,-184.576 947.6,-186.47 940.632,-178.489 937.176,-184.576"/>
</g>
<!-- Node19&#45;&gt;Node16 -->
<g id="edge25" class="edge"><title>Node19&#45;&gt;Node16</title>
<path fill="none" stroke="midnightblue" d="M880.826,-193.063C800.712,-182.111 686.177,-164.881 587,-144 584.072,-143.383 581.1,-142.734 578.104,-142.059"/>
<polygon fill="midnightblue" stroke="midnightblue" points="880.532,-196.555 890.912,-194.433 881.475,-189.618 880.532,-196.555"/>
</g>
<!-- Node19&#45;&gt;Node10 -->
<g id="edge26" class="edge"><title>Node19&#45;&gt;Node10</title>
<path fill="none" stroke="midnightblue" d="M982,-176.255C982,-165.506 982,-153.484 982,-143.166"/>
<polygon fill="midnightblue" stroke="midnightblue" points="978.5,-176.47 982,-186.47 985.5,-176.47 978.5,-176.47"/>
</g>
<!-- Node19&#45;&gt;Node11 -->
<g id="edge27" class="edge"><title>Node19&#45;&gt;Node11</title>
<path fill="none" stroke="midnightblue" d="M1027.38,-181.65C1049.8,-169.619 1076.82,-155.121 1099.41,-143.002"/>
<polygon fill="midnightblue" stroke="midnightblue" points="1025.55,-178.658 1018.4,-186.47 1028.86,-184.826 1025.55,-178.658"/>
</g>
<!-- Node19&#45;&gt;Node12 -->
<g id="edge28" class="edge"><title>Node19&#45;&gt;Node12</title>
<path fill="none" stroke="midnightblue" d="M1066.74,-183.879C1071.9,-182.559 1077.02,-181.257 1082,-180 1147.22,-163.537 1163.76,-160.385 1229,-144 1237.25,-141.927 1245.88,-139.739 1254.47,-137.548"/>
<polygon fill="midnightblue" stroke="midnightblue" points="1065.6,-180.558 1056.78,-186.434 1067.34,-187.339 1065.6,-180.558"/>
</g>
</g>
</svg>
