<?xml version="1.0" encoding="UTF-8" standalone="no"?>
<!DOCTYPE svg PUBLIC "-//W3C//DTD SVG 1.1//EN"
 "http://www.w3.org/Graphics/SVG/1.1/DTD/svg11.dtd">
<!-- Generated by graphviz version 2.44.0 (0)
 -->
<!-- Title: /dev/shm/kenichi/update&#45;github&#45;e1039&#45;doc/e1039&#45;core/simulation/g4main/PHG4Showerv1.cc Pages: 1 -->
<svg width="487pt" height="285pt"
 viewBox="0.00 0.00 487.34 285.00" xmlns="http://www.w3.org/2000/svg" xmlns:xlink="http://www.w3.org/1999/xlink">
<g id="graph0" class="graph" transform="scale(1 1) rotate(0) translate(4 281)">
<title>/dev/shm/kenichi/update&#45;github&#45;e1039&#45;doc/e1039&#45;core/simulation/g4main/PHG4Showerv1.cc</title>
<!-- Node1 -->
<g id="node1" class="node">
<title>Node1</title>
<g id="a_node1"><a xlink:title=" ">
<polygon fill="#bfbfbf" stroke="black" points="52.34,-224.5 52.34,-276.5 191.34,-276.5 191.34,-224.5 52.34,-224.5"/>
<text text-anchor="start" x="60.34" y="-264.5" font-family="FreeSans" font-size="10.00">/dev/shm/kenichi/update</text>
<text text-anchor="start" x="60.34" y="-253.5" font-family="FreeSans" font-size="10.00">&#45;github&#45;e1039&#45;doc/e1039</text>
<text text-anchor="start" x="60.34" y="-242.5" font-family="FreeSans" font-size="10.00">&#45;core/simulation/g4main</text>
<text text-anchor="middle" x="121.84" y="-231.5" font-family="FreeSans" font-size="10.00">/PHG4Showerv1.cc</text>
</a>
</g>
</g>
<!-- Node2 -->
<g id="node2" class="node">
<title>Node2</title>
<g id="a_node2"><a xlink:href="../../dc/d1d/PHG4Showerv1_8h.html" target="_top" xlink:title=" ">
<polygon fill="none" stroke="black" points="128.34,-168.5 128.34,-187.5 229.34,-187.5 229.34,-168.5 128.34,-168.5"/>
<text text-anchor="middle" x="178.84" y="-175.5" font-family="FreeSans" font-size="10.00">PHG4Showerv1.h</text>
</a>
</g>
</g>
<!-- Node1&#45;&gt;Node2 -->
<g id="edge1" class="edge">
<title>Node1&#45;&gt;Node2</title>
<path fill="none" stroke="midnightblue" d="M142.1,-224.45C149.87,-214.83 158.55,-204.1 165.51,-195.49"/>
<polygon fill="midnightblue" stroke="midnightblue" points="168.25,-197.67 171.81,-187.7 162.8,-193.27 168.25,-197.67"/>
</g>
<!-- Node4 -->
<g id="node4" class="node">
<title>Node4</title>
<g id="a_node4"><a xlink:href="../../d2/d92/PHG4HitDefs_8h.html" target="_top" xlink:title=" ">
<polygon fill="none" stroke="black" points="23.34,-56.5 23.34,-75.5 112.34,-75.5 112.34,-56.5 23.34,-56.5"/>
<text text-anchor="middle" x="67.84" y="-63.5" font-family="FreeSans" font-size="10.00">PHG4HitDefs.h</text>
</a>
</g>
</g>
<!-- Node1&#45;&gt;Node4 -->
<g id="edge17" class="edge">
<title>Node1&#45;&gt;Node4</title>
<path fill="none" stroke="midnightblue" d="M114.33,-224.12C103.29,-186.81 82.95,-118.04 73.25,-85.28"/>
<polygon fill="midnightblue" stroke="midnightblue" points="76.59,-84.24 70.4,-75.65 69.88,-86.23 76.59,-84.24"/>
</g>
<!-- Node8 -->
<g id="node8" class="node">
<title>Node8</title>
<g id="a_node8"><a xlink:title=" ">
<polygon fill="none" stroke="#bfbfbf" points="181.84,-0.5 181.84,-19.5 241.84,-19.5 241.84,-0.5 181.84,-0.5"/>
<text text-anchor="middle" x="211.84" y="-7.5" font-family="FreeSans" font-size="10.00">iostream</text>
</a>
</g>
</g>
<!-- Node1&#45;&gt;Node8 -->
<g id="edge19" class="edge">
<title>Node1&#45;&gt;Node8</title>
<path fill="none" stroke="midnightblue" d="M89.41,-224.38C43.58,-185.85 -29.96,-110.87 13.84,-56 33.18,-31.77 119.41,-19.59 171.48,-14.34"/>
<polygon fill="midnightblue" stroke="midnightblue" points="172.11,-17.8 181.73,-13.36 171.44,-10.83 172.11,-17.8"/>
</g>
<!-- Node9 -->
<g id="node9" class="node">
<title>Node9</title>
<g id="a_node9"><a xlink:title=" ">
<polygon fill="none" stroke="#bfbfbf" points="432.34,-56.5 432.34,-75.5 479.34,-75.5 479.34,-56.5 432.34,-56.5"/>
<text text-anchor="middle" x="455.84" y="-63.5" font-family="FreeSans" font-size="10.00">cmath</text>
</a>
</g>
</g>
<!-- Node1&#45;&gt;Node9 -->
<g id="edge18" class="edge">
<title>Node1&#45;&gt;Node9</title>
<path fill="none" stroke="midnightblue" d="M179.34,-224.29C228.76,-201.94 301.4,-167.42 361.84,-132 388.61,-116.31 417.76,-95.53 436.39,-81.73"/>
<polygon fill="midnightblue" stroke="midnightblue" points="438.71,-84.37 444.63,-75.58 434.52,-78.76 438.71,-84.37"/>
</g>
<!-- Node3 -->
<g id="node3" class="node">
<title>Node3</title>
<g id="a_node3"><a xlink:href="../../d1/dc0/PHG4Shower_8h.html" target="_top" xlink:title=" ">
<polygon fill="none" stroke="black" points="244.84,-112.5 244.84,-131.5 332.84,-131.5 332.84,-112.5 244.84,-112.5"/>
<text text-anchor="middle" x="288.84" y="-119.5" font-family="FreeSans" font-size="10.00">PHG4Shower.h</text>
</a>
</g>
</g>
<!-- Node2&#45;&gt;Node3 -->
<g id="edge2" class="edge">
<title>Node2&#45;&gt;Node3</title>
<path fill="none" stroke="midnightblue" d="M196.52,-168.32C214.24,-159.62 241.74,-146.12 262.13,-136.11"/>
<polygon fill="midnightblue" stroke="midnightblue" points="263.78,-139.2 271.21,-131.65 260.69,-132.92 263.78,-139.2"/>
</g>
<!-- Node2&#45;&gt;Node4 -->
<g id="edge12" class="edge">
<title>Node2&#45;&gt;Node4</title>
<path fill="none" stroke="midnightblue" d="M168.15,-168.39C157.4,-159.59 140.51,-145.35 126.84,-132 110.74,-116.28 93.59,-97.07 81.95,-83.62"/>
<polygon fill="midnightblue" stroke="midnightblue" points="84.33,-81.03 75.16,-75.72 79.02,-85.59 84.33,-81.03"/>
</g>
<!-- Node6 -->
<g id="node6" class="node">
<title>Node6</title>
<g id="a_node6"><a xlink:href="../../df/d32/PHObject_8h.html" target="_top" xlink:title=" ">
<polygon fill="none" stroke="black" points="313.34,-56.5 313.34,-75.5 414.34,-75.5 414.34,-56.5 313.34,-56.5"/>
<text text-anchor="middle" x="363.84" y="-63.5" font-family="FreeSans" font-size="10.00">phool/PHObject.h</text>
</a>
</g>
</g>
<!-- Node2&#45;&gt;Node6 -->
<g id="edge13" class="edge">
<title>Node2&#45;&gt;Node6</title>
<path fill="none" stroke="midnightblue" d="M229.37,-175.17C265.03,-171.26 311.64,-160.52 341.84,-132 354.55,-119.99 359.92,-100.39 362.19,-85.85"/>
<polygon fill="midnightblue" stroke="midnightblue" points="365.71,-85.85 363.42,-75.51 358.76,-85.02 365.71,-85.85"/>
</g>
<!-- Node2&#45;&gt;Node8 -->
<g id="edge16" class="edge">
<title>Node2&#45;&gt;Node8</title>
<path fill="none" stroke="midnightblue" d="M174.28,-168.33C164.14,-147.82 141.99,-95.07 159.84,-56 165.62,-43.36 176.89,-32.91 187.47,-25.27"/>
<polygon fill="midnightblue" stroke="midnightblue" points="189.69,-28 196.06,-19.53 185.8,-22.18 189.69,-28"/>
</g>
<!-- Node10 -->
<g id="node10" class="node">
<title>Node10</title>
<g id="a_node10"><a xlink:title=" ">
<polygon fill="none" stroke="#bfbfbf" points="168.84,-56.5 168.84,-75.5 200.84,-75.5 200.84,-56.5 168.84,-56.5"/>
<text text-anchor="middle" x="184.84" y="-63.5" font-family="FreeSans" font-size="10.00">set</text>
</a>
</g>
</g>
<!-- Node2&#45;&gt;Node10 -->
<g id="edge15" class="edge">
<title>Node2&#45;&gt;Node10</title>
<path fill="none" stroke="midnightblue" d="M179.31,-168.37C180.28,-150.62 182.51,-109.67 183.83,-85.6"/>
<polygon fill="midnightblue" stroke="midnightblue" points="187.32,-85.77 184.37,-75.59 180.33,-85.39 187.32,-85.77"/>
</g>
<!-- Node11 -->
<g id="node11" class="node">
<title>Node11</title>
<g id="a_node11"><a xlink:title=" ">
<polygon fill="none" stroke="#bfbfbf" points="218.84,-56.5 218.84,-75.5 256.84,-75.5 256.84,-56.5 218.84,-56.5"/>
<text text-anchor="middle" x="237.84" y="-63.5" font-family="FreeSans" font-size="10.00">map</text>
</a>
</g>
</g>
<!-- Node2&#45;&gt;Node11 -->
<g id="edge14" class="edge">
<title>Node2&#45;&gt;Node11</title>
<path fill="none" stroke="midnightblue" d="M183.47,-168.37C193.12,-150.38 215.56,-108.55 228.39,-84.63"/>
<polygon fill="midnightblue" stroke="midnightblue" points="231.59,-86.06 233.23,-75.59 225.42,-82.75 231.59,-86.06"/>
</g>
<!-- Node3&#45;&gt;Node4 -->
<g id="edge3" class="edge">
<title>Node3&#45;&gt;Node4</title>
<path fill="none" stroke="midnightblue" d="M253.82,-112.44C215.59,-103.1 154.27,-88.12 112.58,-77.93"/>
<polygon fill="midnightblue" stroke="midnightblue" points="113.24,-74.49 102.7,-75.52 111.58,-81.29 113.24,-74.49"/>
</g>
<!-- Node3&#45;&gt;Node6 -->
<g id="edge5" class="edge">
<title>Node3&#45;&gt;Node6</title>
<path fill="none" stroke="midnightblue" d="M300.89,-112.32C312.3,-104.11 329.67,-91.6 343.28,-81.81"/>
<polygon fill="midnightblue" stroke="midnightblue" points="345.5,-84.52 351.57,-75.83 341.41,-78.84 345.5,-84.52"/>
</g>
<!-- Node3&#45;&gt;Node8 -->
<g id="edge11" class="edge">
<title>Node3&#45;&gt;Node8</title>
<path fill="none" stroke="midnightblue" d="M287.31,-112.33C284.66,-99.19 278.29,-73.88 265.84,-56 257.48,-43.99 245.1,-33.35 234.3,-25.44"/>
<polygon fill="midnightblue" stroke="midnightblue" points="236.29,-22.56 226.09,-19.71 232.29,-28.3 236.29,-22.56"/>
</g>
<!-- Node3&#45;&gt;Node9 -->
<g id="edge8" class="edge">
<title>Node3&#45;&gt;Node9</title>
<path fill="none" stroke="midnightblue" d="M315.3,-112.44C344.35,-103.05 391.04,-87.96 422.55,-77.77"/>
<polygon fill="midnightblue" stroke="midnightblue" points="423.77,-81.05 432.2,-74.64 421.61,-74.39 423.77,-81.05"/>
</g>
<!-- Node3&#45;&gt;Node10 -->
<g id="edge9" class="edge">
<title>Node3&#45;&gt;Node10</title>
<path fill="none" stroke="midnightblue" d="M272.13,-112.32C255.43,-103.65 229.54,-90.21 210.28,-80.21"/>
<polygon fill="midnightblue" stroke="midnightblue" points="211.65,-76.98 201.17,-75.48 208.43,-83.19 211.65,-76.98"/>
</g>
<!-- Node3&#45;&gt;Node11 -->
<g id="edge10" class="edge">
<title>Node3&#45;&gt;Node11</title>
<path fill="none" stroke="midnightblue" d="M280.42,-112.08C272.99,-104.22 261.99,-92.57 253.03,-83.08"/>
<polygon fill="midnightblue" stroke="midnightblue" points="255.52,-80.62 246.11,-75.75 250.43,-85.42 255.52,-80.62"/>
</g>
<!-- Node5 -->
<g id="node5" class="node">
<title>Node5</title>
<g id="a_node5"><a xlink:title=" ">
<polygon fill="none" stroke="#bfbfbf" points="45.84,-0.5 45.84,-19.5 89.84,-19.5 89.84,-0.5 45.84,-0.5"/>
<text text-anchor="middle" x="67.84" y="-7.5" font-family="FreeSans" font-size="10.00">string</text>
</a>
</g>
</g>
<!-- Node4&#45;&gt;Node5 -->
<g id="edge4" class="edge">
<title>Node4&#45;&gt;Node5</title>
<path fill="none" stroke="midnightblue" d="M67.84,-56.08C67.84,-49.01 67.84,-38.86 67.84,-29.99"/>
<polygon fill="midnightblue" stroke="midnightblue" points="71.34,-29.75 67.84,-19.75 64.34,-29.75 71.34,-29.75"/>
</g>
<!-- Node7 -->
<g id="node7" class="node">
<title>Node7</title>
<g id="a_node7"><a xlink:title=" ">
<polygon fill="none" stroke="#bfbfbf" points="332.34,-0.5 332.34,-19.5 395.34,-19.5 395.34,-0.5 332.34,-0.5"/>
<text text-anchor="middle" x="363.84" y="-7.5" font-family="FreeSans" font-size="10.00">TObject.h</text>
</a>
</g>
</g>
<!-- Node6&#45;&gt;Node7 -->
<g id="edge6" class="edge">
<title>Node6&#45;&gt;Node7</title>
<path fill="none" stroke="midnightblue" d="M363.84,-56.08C363.84,-49.01 363.84,-38.86 363.84,-29.99"/>
<polygon fill="midnightblue" stroke="midnightblue" points="367.34,-29.75 363.84,-19.75 360.34,-29.75 367.34,-29.75"/>
</g>
<!-- Node6&#45;&gt;Node8 -->
<g id="edge7" class="edge">
<title>Node6&#45;&gt;Node8</title>
<path fill="none" stroke="midnightblue" d="M339.76,-56.44C314.3,-47.4 273.95,-33.06 245.38,-22.92"/>
<polygon fill="midnightblue" stroke="midnightblue" points="246.41,-19.57 235.81,-19.52 244.07,-26.16 246.41,-19.57"/>
</g>
</g>
</svg>
