<?xml version="1.0" encoding="UTF-8" standalone="no"?>
<!DOCTYPE svg PUBLIC "-//W3C//DTD SVG 1.1//EN"
 "http://www.w3.org/Graphics/SVG/1.1/DTD/svg11.dtd">
<!-- Generated by graphviz version 2.44.0 (0)
 -->
<!-- Title: SQField3DCartesian::GetFieldValue Pages: 1 -->
<svg width="482pt" height="39pt"
 viewBox="0.00 0.00 482.00 39.00" xmlns="http://www.w3.org/2000/svg" xmlns:xlink="http://www.w3.org/1999/xlink">
<g id="graph0" class="graph" transform="scale(1 1) rotate(0) translate(4 35)">
<title>SQField3DCartesian::GetFieldValue</title>
<!-- Node1 -->
<g id="node1" class="node">
<title>Node1</title>
<g id="a_node1"><a xlink:title=" ">
<polygon fill="#bfbfbf" stroke="black" points="361,-0.5 361,-30.5 474,-30.5 474,-0.5 361,-0.5"/>
<text text-anchor="start" x="369" y="-18.5" font-family="FreeSans" font-size="10.00">SQField3DCartesian</text>
<text text-anchor="middle" x="417.5" y="-7.5" font-family="FreeSans" font-size="10.00">::GetFieldValue</text>
</a>
</g>
</g>
<!-- Node2 -->
<g id="node2" class="node">
<title>Node2</title>
<g id="a_node2"><a xlink:href="../../d9/da8/classPHFieldSeaQuest.html#a0c90c4214b996487820776ba8f6af265" target="_top" xlink:title=" ">
<polygon fill="none" stroke="black" points="179,-0.5 179,-30.5 325,-30.5 325,-0.5 179,-0.5"/>
<text text-anchor="start" x="187" y="-18.5" font-family="FreeSans" font-size="10.00">PHFieldSeaQuest::GetField</text>
<text text-anchor="middle" x="252" y="-7.5" font-family="FreeSans" font-size="10.00">Value</text>
</a>
</g>
</g>
<!-- Node1&#45;&gt;Node2 -->
<g id="edge1" class="edge">
<title>Node1&#45;&gt;Node2</title>
<path fill="none" stroke="midnightblue" d="M350.58,-15.5C342.17,-15.5 333.53,-15.5 325.04,-15.5"/>
<polygon fill="midnightblue" stroke="midnightblue" points="350.69,-19 360.69,-15.5 350.69,-12 350.69,-19"/>
</g>
<!-- Node3 -->
<g id="node3" class="node">
<title>Node3</title>
<g id="a_node3"><a xlink:href="../../d9/da8/classPHFieldSeaQuest.html#a2981c461e03d74904c09c7e4978a6306" target="_top" xlink:title=" ">
<polygon fill="none" stroke="black" points="0,-6 0,-25 143,-25 143,-6 0,-6"/>
<text text-anchor="middle" x="71.5" y="-13" font-family="FreeSans" font-size="10.00">PHFieldSeaQuest::identify</text>
</a>
</g>
</g>
<!-- Node2&#45;&gt;Node3 -->
<g id="edge2" class="edge">
<title>Node2&#45;&gt;Node3</title>
<path fill="none" stroke="midnightblue" d="M168.87,-15.5C160.27,-15.5 151.58,-15.5 143.12,-15.5"/>
<polygon fill="midnightblue" stroke="midnightblue" points="168.91,-19 178.91,-15.5 168.91,-12 168.91,-19"/>
</g>
</g>
</svg>
