<?xml version="1.0" encoding="UTF-8" standalone="no"?>
<!DOCTYPE svg PUBLIC "-//W3C//DTD SVG 1.1//EN"
 "http://www.w3.org/Graphics/SVG/1.1/DTD/svg11.dtd">
<!-- Generated by graphviz version 2.36.0 (20140111.2315)
 -->
<!-- Title: Fun4AllInputManager::ResetEvent Pages: 1 -->
<svg width="814pt" height="294pt"
 viewBox="0.00 0.00 814.00 294.00" xmlns="http://www.w3.org/2000/svg" xmlns:xlink="http://www.w3.org/1999/xlink">
<g id="graph0" class="graph" transform="scale(1 1) rotate(0) translate(4 290)">
<title>Fun4AllInputManager::ResetEvent</title>
<!-- Node1 -->
<g id="node1" class="node"><title>Node1</title>
<polygon fill="#bfbfbf" stroke="black" points="0.5,-106 0.5,-136 109.5,-136 109.5,-106 0.5,-106"/>
<text text-anchor="start" x="8.5" y="-124" font-family="FreeSans" font-size="10.00">Fun4AllInputManager</text>
<text text-anchor="middle" x="55" y="-113" font-family="FreeSans" font-size="10.00">::ResetEvent</text>
</g>
<!-- Node2 -->
<g id="node2" class="node"><title>Node2</title>
<g id="a_node2"><a xlink:href="../../dd/ded/classFun4AllSyncManager.html#ad15c8f6f6b17662d06c4c927bc3e3ba6" target="_top" xlink:title="Fun4AllSyncManager\l::ResetEvent">
<polygon fill="none" stroke="black" points="185.5,-150 185.5,-180 294.5,-180 294.5,-150 185.5,-150"/>
<text text-anchor="start" x="193.5" y="-168" font-family="FreeSans" font-size="10.00">Fun4AllSyncManager</text>
<text text-anchor="middle" x="240" y="-157" font-family="FreeSans" font-size="10.00">::ResetEvent</text>
</a>
</g>
</g>
<!-- Node1&#45;&gt;Node2 -->
<g id="edge1" class="edge"><title>Node1&#45;&gt;Node2</title>
<path fill="none" stroke="midnightblue" d="M119.899,-136.364C141.306,-141.511 164.938,-147.193 185.469,-152.129"/>
<polygon fill="midnightblue" stroke="midnightblue" points="120.457,-132.898 109.916,-133.963 118.821,-139.704 120.457,-132.898"/>
</g>
<!-- Node14 -->
<g id="node14" class="node"><title>Node14</title>
<g id="a_node14"><a xlink:href="../../de/d99/classFun4AllHepMCPileupInputManager.html#a81bf2b69c3c4d3aae0aadebafe1c2c2e" target="_top" xlink:title="Fun4AllHepMCPileupInputManager::run">
<polygon fill="none" stroke="black" points="146.5,-111.5 146.5,-130.5 333.5,-130.5 333.5,-111.5 146.5,-111.5"/>
<text text-anchor="middle" x="240" y="-118.5" font-family="FreeSans" font-size="10.00">Fun4AllHepMCPileupInputManager::run</text>
</a>
</g>
</g>
<!-- Node1&#45;&gt;Node14 -->
<g id="edge13" class="edge"><title>Node1&#45;&gt;Node14</title>
<path fill="none" stroke="midnightblue" d="M120.099,-121C128.608,-121 137.464,-121 146.336,-121"/>
<polygon fill="midnightblue" stroke="midnightblue" points="119.916,-117.5 109.916,-121 119.916,-124.5 119.916,-117.5"/>
</g>
<!-- Node15 -->
<g id="node15" class="node"><title>Node15</title>
<g id="a_node15"><a xlink:href="../../d6/d6f/classFun4AllHepMCInputManager.html#ab6c80a8ee0701bfff5eee3ec3623015c" target="_top" xlink:title="Fun4AllHepMCInputManager::run">
<polygon fill="none" stroke="black" points="160,-73.5 160,-92.5 320,-92.5 320,-73.5 160,-73.5"/>
<text text-anchor="middle" x="240" y="-80.5" font-family="FreeSans" font-size="10.00">Fun4AllHepMCInputManager::run</text>
</a>
</g>
</g>
<!-- Node1&#45;&gt;Node15 -->
<g id="edge14" class="edge"><title>Node1&#45;&gt;Node15</title>
<path fill="none" stroke="midnightblue" d="M119.665,-107.506C128.509,-105.647 137.48,-103.77 146,-102 161.006,-98.8833 177.382,-95.5236 192.153,-92.5087"/>
<polygon fill="midnightblue" stroke="midnightblue" points="118.83,-104.105 109.766,-109.59 120.272,-110.954 118.83,-104.105"/>
</g>
<!-- Node3 -->
<g id="node3" class="node"><title>Node3</title>
<g id="a_node3"><a xlink:href="../../da/d29/classFun4AllServer.html#a6a65a944dfb40966ace97d35ab1f7942" target="_top" xlink:title="Fun4AllServer::process\l_event">
<polygon fill="none" stroke="black" points="370.5,-150 370.5,-180 487.5,-180 487.5,-150 370.5,-150"/>
<text text-anchor="start" x="378.5" y="-168" font-family="FreeSans" font-size="10.00">Fun4AllServer::process</text>
<text text-anchor="middle" x="429" y="-157" font-family="FreeSans" font-size="10.00">_event</text>
</a>
</g>
</g>
<!-- Node2&#45;&gt;Node3 -->
<g id="edge2" class="edge"><title>Node2&#45;&gt;Node3</title>
<path fill="none" stroke="midnightblue" d="M304.832,-165C326.122,-165 349.702,-165 370.484,-165"/>
<polygon fill="midnightblue" stroke="midnightblue" points="304.587,-161.5 294.587,-165 304.587,-168.5 304.587,-161.5"/>
</g>
<!-- Node4 -->
<g id="node4" class="node"><title>Node4</title>
<g id="a_node4"><a xlink:href="../../da/d29/classFun4AllServer.html#a94738b092fa009fcea45737d8ea41224" target="_top" xlink:title="Fun4AllServer::process\l_event">
<polygon fill="none" stroke="black" points="524.5,-172 524.5,-202 641.5,-202 641.5,-172 524.5,-172"/>
<text text-anchor="start" x="532.5" y="-190" font-family="FreeSans" font-size="10.00">Fun4AllServer::process</text>
<text text-anchor="middle" x="583" y="-179" font-family="FreeSans" font-size="10.00">_event</text>
</a>
</g>
</g>
<!-- Node3&#45;&gt;Node4 -->
<g id="edge3" class="edge"><title>Node3&#45;&gt;Node4</title>
<path fill="none" stroke="midnightblue" d="M498.072,-174.852C506.817,-176.118 515.704,-177.405 524.263,-178.643"/>
<polygon fill="midnightblue" stroke="midnightblue" points="498.297,-171.349 487.898,-173.38 497.294,-178.276 498.297,-171.349"/>
</g>
<!-- Node5 -->
<g id="node5" class="node"><title>Node5</title>
<g id="a_node5"><a xlink:href="../../da/d29/classFun4AllServer.html#a11bbc8b2f53bc06e0b05ee202dd6372a" target="_top" xlink:title="run n events (0 means up to end of file) ">
<polygon fill="none" stroke="black" points="535,-133.5 535,-152.5 631,-152.5 631,-133.5 535,-133.5"/>
<text text-anchor="middle" x="583" y="-140.5" font-family="FreeSans" font-size="10.00">Fun4AllServer::run</text>
</a>
</g>
</g>
<!-- Node3&#45;&gt;Node5 -->
<g id="edge4" class="edge"><title>Node3&#45;&gt;Node5</title>
<path fill="none" stroke="midnightblue" d="M498.152,-155.136C510.471,-153.353 523.067,-151.53 534.629,-149.856"/>
<polygon fill="midnightblue" stroke="midnightblue" points="497.294,-151.724 487.898,-156.62 498.297,-158.651 497.294,-151.724"/>
</g>
<!-- Node6 -->
<g id="node6" class="node"><title>Node6</title>
<g id="a_node6"><a xlink:href="../../db/d7c/Fun4DumpGeom_8C.html#ac063d1f79534ea7be7f5e9a08e247c30" target="_top" xlink:title="Fun4kDumpGeom">
<polygon fill="none" stroke="black" points="694.5,-266.5 694.5,-285.5 789.5,-285.5 789.5,-266.5 694.5,-266.5"/>
<text text-anchor="middle" x="742" y="-273.5" font-family="FreeSans" font-size="10.00">Fun4kDumpGeom</text>
</a>
</g>
</g>
<!-- Node5&#45;&gt;Node6 -->
<g id="edge5" class="edge"><title>Node5&#45;&gt;Node6</title>
<path fill="none" stroke="midnightblue" d="M635.061,-157.463C637.545,-159.114 639.882,-160.952 642,-163 674.162,-194.096 645.236,-226.539 678,-257 682.685,-261.356 688.336,-264.715 694.304,-267.306"/>
<polygon fill="midnightblue" stroke="midnightblue" points="636.598,-154.313 626.152,-152.543 633.213,-160.441 636.598,-154.313"/>
</g>
<!-- Node7 -->
<g id="node7" class="node"><title>Node7</title>
<g id="a_node7"><a xlink:href="../../dd/d7d/Fun4kTracker_8C.html#abe7052288e4678d0346333383ad821ff" target="_top" xlink:title="Fun4kTracker">
<polygon fill="none" stroke="black" points="703.5,-228.5 703.5,-247.5 780.5,-247.5 780.5,-228.5 703.5,-228.5"/>
<text text-anchor="middle" x="742" y="-235.5" font-family="FreeSans" font-size="10.00">Fun4kTracker</text>
</a>
</g>
</g>
<!-- Node5&#45;&gt;Node7 -->
<g id="edge6" class="edge"><title>Node5&#45;&gt;Node7</title>
<path fill="none" stroke="midnightblue" d="M632.471,-156.823C635.842,-158.643 639.063,-160.693 642,-163 665.27,-181.275 654.377,-201.184 678,-219 685.388,-224.572 694.408,-228.52 703.287,-231.314"/>
<polygon fill="midnightblue" stroke="midnightblue" points="633.827,-153.593 623.286,-152.522 630.858,-159.933 633.827,-153.593"/>
</g>
<!-- Node8 -->
<g id="node8" class="node"><title>Node8</title>
<g id="a_node8"><a xlink:href="../../d9/d8c/Fun4ReadMySql_8C.html#ab4da1ea0915fd586cbcf2cfc72ec8a16" target="_top" xlink:title="Fun4ReadMySql">
<polygon fill="none" stroke="black" points="698,-190.5 698,-209.5 786,-209.5 786,-190.5 698,-190.5"/>
<text text-anchor="middle" x="742" y="-197.5" font-family="FreeSans" font-size="10.00">Fun4ReadMySql</text>
</a>
</g>
</g>
<!-- Node5&#45;&gt;Node8 -->
<g id="edge7" class="edge"><title>Node5&#45;&gt;Node8</title>
<path fill="none" stroke="midnightblue" d="M623.662,-155.896C629.852,-158.133 636.136,-160.536 642,-163 658.491,-169.931 661.376,-174.393 678,-181 686.812,-184.502 696.532,-187.73 705.645,-190.494"/>
<polygon fill="midnightblue" stroke="midnightblue" points="624.683,-152.545 614.088,-152.535 622.364,-159.15 624.683,-152.545"/>
</g>
<!-- Node9 -->
<g id="node9" class="node"><title>Node9</title>
<g id="a_node9"><a xlink:href="../../d6/d4c/Fun4SeaQuest_8C.html#a81bffd149f5c71602cb40eb0f45019c3" target="_top" xlink:title="Fun4SeaQuest">
<polygon fill="none" stroke="black" points="701,-152.5 701,-171.5 783,-171.5 783,-152.5 701,-152.5"/>
<text text-anchor="middle" x="742" y="-159.5" font-family="FreeSans" font-size="10.00">Fun4SeaQuest</text>
</a>
</g>
</g>
<!-- Node5&#45;&gt;Node9 -->
<g id="edge8" class="edge"><title>Node5&#45;&gt;Node9</title>
<path fill="none" stroke="midnightblue" d="M641.236,-149.927C661.004,-152.319 682.718,-154.947 700.827,-157.138"/>
<polygon fill="midnightblue" stroke="midnightblue" points="641.453,-146.427 631.105,-148.701 640.612,-153.377 641.453,-146.427"/>
</g>
<!-- Node10 -->
<g id="node10" class="node"><title>Node10</title>
<g id="a_node10"><a xlink:href="../../de/d48/Fun4TestAnalyzer_8C.html#af993f3ce438e5ebcb52b97e41124a3db" target="_top" xlink:title="Fun4TestAnalyzer">
<polygon fill="none" stroke="black" points="694.5,-114.5 694.5,-133.5 789.5,-133.5 789.5,-114.5 694.5,-114.5"/>
<text text-anchor="middle" x="742" y="-121.5" font-family="FreeSans" font-size="10.00">Fun4TestAnalyzer</text>
</a>
</g>
</g>
<!-- Node5&#45;&gt;Node10 -->
<g id="edge9" class="edge"><title>Node5&#45;&gt;Node10</title>
<path fill="none" stroke="midnightblue" d="M641.209,-136.077C658.72,-133.957 677.76,-131.653 694.469,-129.631"/>
<polygon fill="midnightblue" stroke="midnightblue" points="640.612,-132.623 631.105,-137.299 641.453,-139.573 640.612,-132.623"/>
</g>
<!-- Node11 -->
<g id="node11" class="node"><title>Node11</title>
<g id="a_node11"><a xlink:href="../../df/d51/Fun4All__ExportGeom_8C.html#a582925c51bad38d562cf19e71211adfd" target="_top" xlink:title="get geometry from DST file and output TGeoManager ROOT files or other formats of geometry files ...">
<polygon fill="none" stroke="black" points="688,-76.5 688,-95.5 796,-95.5 796,-76.5 688,-76.5"/>
<text text-anchor="middle" x="742" y="-83.5" font-family="FreeSans" font-size="10.00">Fun4All_ExportGeom</text>
</a>
</g>
</g>
<!-- Node5&#45;&gt;Node11 -->
<g id="edge10" class="edge"><title>Node5&#45;&gt;Node11</title>
<path fill="none" stroke="midnightblue" d="M615.676,-129.354C633.775,-121.77 656.986,-112.399 678,-105 687.375,-101.699 697.654,-98.4475 707.14,-95.5928"/>
<polygon fill="midnightblue" stroke="midnightblue" points="614.042,-126.245 606.192,-133.36 616.766,-132.693 614.042,-126.245"/>
</g>
<!-- Node12 -->
<g id="node12" class="node"><title>Node12</title>
<g id="a_node12"><a xlink:href="../../d9/d0f/Fun4All__ImportGeom_8C.html#a3388968a8dae60e9eb62b1126f747b6a" target="_top" xlink:title="Read in a Geometry file, and output DST and ROOT TGeo files. ">
<polygon fill="none" stroke="black" points="687.5,-38.5 687.5,-57.5 796.5,-57.5 796.5,-38.5 687.5,-38.5"/>
<text text-anchor="middle" x="742" y="-45.5" font-family="FreeSans" font-size="10.00">Fun4All_ImportGeom</text>
</a>
</g>
</g>
<!-- Node5&#45;&gt;Node12 -->
<g id="edge11" class="edge"><title>Node5&#45;&gt;Node12</title>
<path fill="none" stroke="midnightblue" d="M600.504,-126.265C618.226,-109.158 647.915,-82.9084 678,-67 685.069,-63.2618 692.983,-60.1474 700.751,-57.595"/>
<polygon fill="midnightblue" stroke="midnightblue" points="597.915,-123.901 593.244,-133.411 602.826,-128.89 597.915,-123.901"/>
</g>
<!-- Node13 -->
<g id="node13" class="node"><title>Node13</title>
<g id="a_node13"><a xlink:href="../../d6/deb/PHGeom__DSTInspection_8C.html#a8a06a40e2950cd31dda512c040049cd0" target="_top" xlink:title="PHGeom_DSTInspection">
<polygon fill="none" stroke="black" points="678.5,-0.5 678.5,-19.5 805.5,-19.5 805.5,-0.5 678.5,-0.5"/>
<text text-anchor="middle" x="742" y="-7.5" font-family="FreeSans" font-size="10.00">PHGeom_DSTInspection</text>
</a>
</g>
</g>
<!-- Node5&#45;&gt;Node13 -->
<g id="edge12" class="edge"><title>Node5&#45;&gt;Node13</title>
<path fill="none" stroke="midnightblue" d="M594.416,-124.508C609.58,-99.2457 640.103,-54.2144 678,-29 683.802,-25.1398 690.416,-22.0404 697.125,-19.5585"/>
<polygon fill="midnightblue" stroke="midnightblue" points="591.226,-123.029 589.208,-133.43 597.272,-126.558 591.226,-123.029"/>
</g>
</g>
</svg>
