<?xml version="1.0" encoding="UTF-8" standalone="no"?>
<!DOCTYPE svg PUBLIC "-//W3C//DTD SVG 1.1//EN"
 "http://www.w3.org/Graphics/SVG/1.1/DTD/svg11.dtd">
<!-- Generated by graphviz version 2.30.1 (20180413.0232)
 -->
<!-- Title: /dev/shm/kenichi/update&#45;github&#45;e1039&#45;doc/e1039&#45;core/packages/jobopts_svc/JobOptsSvc.cxx Pages: 1 -->
<svg width="818pt" height="174pt"
 viewBox="0.00 0.00 818.00 174.00" xmlns="http://www.w3.org/2000/svg" xmlns:xlink="http://www.w3.org/1999/xlink">
<g id="graph0" class="graph" transform="scale(1 1) rotate(0) translate(4 170)">
<title>/dev/shm/kenichi/update&#45;github&#45;e1039&#45;doc/e1039&#45;core/packages/jobopts_svc/JobOptsSvc.cxx</title>
<!-- Node1 -->
<g id="node1" class="node"><title>Node1</title>
<polygon fill="#bfbfbf" stroke="black" points="221,-113 221,-165 357,-165 357,-113 221,-113"/>
<text text-anchor="start" x="229" y="-153" font-family="FreeSans" font-size="10.00">/dev/shm/kenichi/update</text>
<text text-anchor="start" x="229" y="-142" font-family="FreeSans" font-size="10.00">&#45;github&#45;e1039&#45;doc/e1039</text>
<text text-anchor="start" x="229" y="-131" font-family="FreeSans" font-size="10.00">&#45;core/packages/jobopts_svc</text>
<text text-anchor="middle" x="289" y="-120" font-family="FreeSans" font-size="10.00">/JobOptsSvc.cxx</text>
</g>
<!-- Node2 -->
<g id="node2" class="node"><title>Node2</title>
<polygon fill="none" stroke="#bfbfbf" points="-0.5,-56.5 -0.5,-75.5 34.5,-75.5 34.5,-56.5 -0.5,-56.5"/>
<text text-anchor="middle" x="17" y="-63.5" font-family="FreeSans" font-size="10.00">map</text>
</g>
<!-- Node1&#45;&gt;Node2 -->
<g id="edge1" class="edge"><title>Node1&#45;&gt;Node2</title>
<path fill="none" stroke="midnightblue" d="M220.779,-122.167C173.737,-110.918 109.615,-94.9348 44.3029,-75.9214"/>
<polygon fill="midnightblue" stroke="midnightblue" points="45.2407,-72.5491 34.6599,-73.0944 43.2713,-79.2664 45.2407,-72.5491"/>
</g>
<!-- Node3 -->
<g id="node3" class="node"><title>Node3</title>
<polygon fill="none" stroke="#bfbfbf" points="52.5,-56.5 52.5,-75.5 105.5,-75.5 105.5,-56.5 52.5,-56.5"/>
<text text-anchor="middle" x="79" y="-63.5" font-family="FreeSans" font-size="10.00">iostream</text>
</g>
<!-- Node1&#45;&gt;Node3 -->
<g id="edge2" class="edge"><title>Node1&#45;&gt;Node3</title>
<path fill="none" stroke="midnightblue" d="M220.819,-114.948C185.144,-102.887 142.977,-88.6302 113.947,-78.8153"/>
<polygon fill="midnightblue" stroke="midnightblue" points="114.853,-75.427 104.258,-75.5397 112.611,-82.0583 114.853,-75.427"/>
</g>
<!-- Node4 -->
<g id="node4" class="node"><title>Node4</title>
<polygon fill="none" stroke="#bfbfbf" points="123.5,-56.5 123.5,-75.5 172.5,-75.5 172.5,-56.5 123.5,-56.5"/>
<text text-anchor="middle" x="148" y="-63.5" font-family="FreeSans" font-size="10.00">fstream</text>
</g>
<!-- Node1&#45;&gt;Node4 -->
<g id="edge3" class="edge"><title>Node1&#45;&gt;Node4</title>
<path fill="none" stroke="midnightblue" d="M239.289,-112.968C217.379,-101.935 192.527,-89.4216 174.292,-80.2391"/>
<polygon fill="midnightblue" stroke="midnightblue" points="175.662,-77.0103 165.156,-75.6389 172.514,-83.2624 175.662,-77.0103"/>
</g>
<!-- Node5 -->
<g id="node5" class="node"><title>Node5</title>
<polygon fill="none" stroke="#bfbfbf" points="191,-56.5 191,-75.5 241,-75.5 241,-56.5 191,-56.5"/>
<text text-anchor="middle" x="216" y="-63.5" font-family="FreeSans" font-size="10.00">sstream</text>
</g>
<!-- Node1&#45;&gt;Node5 -->
<g id="edge4" class="edge"><title>Node1&#45;&gt;Node5</title>
<path fill="none" stroke="midnightblue" d="M263.057,-112.768C252.788,-102.78 241.298,-91.6051 232.243,-82.798"/>
<polygon fill="midnightblue" stroke="midnightblue" points="234.613,-80.2204 225.004,-75.7572 229.732,-85.2384 234.613,-80.2204"/>
</g>
<!-- Node6 -->
<g id="node6" class="node"><title>Node6</title>
<polygon fill="none" stroke="#bfbfbf" points="259.5,-56.5 259.5,-75.5 318.5,-75.5 318.5,-56.5 259.5,-56.5"/>
<text text-anchor="middle" x="289" y="-63.5" font-family="FreeSans" font-size="10.00">wordexp.h</text>
</g>
<!-- Node1&#45;&gt;Node6 -->
<g id="edge5" class="edge"><title>Node1&#45;&gt;Node6</title>
<path fill="none" stroke="midnightblue" d="M289,-112.768C289,-103.89 289,-94.0737 289,-85.8165"/>
<polygon fill="midnightblue" stroke="midnightblue" points="292.5,-85.7571 289,-75.7572 285.5,-85.7572 292.5,-85.7571"/>
</g>
<!-- Node7 -->
<g id="node7" class="node"><title>Node7</title>
<polygon fill="none" stroke="#bfbfbf" points="336.5,-56.5 336.5,-75.5 463.5,-75.5 463.5,-56.5 336.5,-56.5"/>
<text text-anchor="middle" x="400" y="-63.5" font-family="FreeSans" font-size="10.00">boost/algorithm/string.hpp</text>
</g>
<!-- Node1&#45;&gt;Node7 -->
<g id="edge6" class="edge"><title>Node1&#45;&gt;Node7</title>
<path fill="none" stroke="midnightblue" d="M328.134,-112.968C344.826,-102.291 363.687,-90.2274 377.897,-81.1379"/>
<polygon fill="midnightblue" stroke="midnightblue" points="379.956,-83.9758 386.494,-75.6389 376.184,-78.0789 379.956,-83.9758"/>
</g>
<!-- Node8 -->
<g id="node8" class="node"><title>Node8</title>
<polygon fill="none" stroke="#bfbfbf" points="481.5,-56.5 481.5,-75.5 592.5,-75.5 592.5,-56.5 481.5,-56.5"/>
<text text-anchor="middle" x="537" y="-63.5" font-family="FreeSans" font-size="10.00">boost/lexical_cast.hpp</text>
</g>
<!-- Node1&#45;&gt;Node8 -->
<g id="edge7" class="edge"><title>Node1&#45;&gt;Node8</title>
<path fill="none" stroke="midnightblue" d="M357.095,-118.505C402.053,-105.634 459.41,-89.2132 497.123,-78.4163"/>
<polygon fill="midnightblue" stroke="midnightblue" points="498.563,-81.645 507.213,-75.5277 496.636,-74.9153 498.563,-81.645"/>
</g>
<!-- Node9 -->
<g id="node9" class="node"><title>Node9</title>
<g id="a_node9"><a xlink:href="../../da/d12/JobOptsSvc_8h.html" target="_top" xlink:title="JobOptsSvc.h">
<polygon fill="none" stroke="black" points="610.5,-56.5 610.5,-75.5 687.5,-75.5 687.5,-56.5 610.5,-56.5"/>
<text text-anchor="middle" x="649" y="-63.5" font-family="FreeSans" font-size="10.00">JobOptsSvc.h</text>
</a>
</g>
</g>
<!-- Node1&#45;&gt;Node9 -->
<g id="edge8" class="edge"><title>Node1&#45;&gt;Node9</title>
<path fill="none" stroke="midnightblue" d="M357.136,-124.562C428.002,-110.586 537.192,-89.051 599.991,-76.6656"/>
<polygon fill="midnightblue" stroke="midnightblue" points="600.899,-80.054 610.033,-74.6851 599.545,-73.1863 600.899,-80.054"/>
</g>
<!-- Node14 -->
<g id="node14" class="node"><title>Node14</title>
<polygon fill="none" stroke="#bfbfbf" points="706,-56.5 706,-75.5 756,-75.5 756,-56.5 706,-56.5"/>
<text text-anchor="middle" x="731" y="-63.5" font-family="FreeSans" font-size="10.00">TTree.h</text>
</g>
<!-- Node1&#45;&gt;Node14 -->
<g id="edge13" class="edge"><title>Node1&#45;&gt;Node14</title>
<path fill="none" stroke="midnightblue" d="M357.062,-129.759C438.186,-119.446 577.65,-100.167 696,-76 696.1,-75.9796 696.2,-75.9591 696.3,-75.9385"/>
<polygon fill="midnightblue" stroke="midnightblue" points="696.847,-79.403 705.835,-73.7934 695.311,-72.5737 696.847,-79.403"/>
</g>
<!-- Node10 -->
<g id="node10" class="node"><title>Node10</title>
<polygon fill="none" stroke="#bfbfbf" points="533,-0.5 533,-19.5 573,-19.5 573,-0.5 533,-0.5"/>
<text text-anchor="middle" x="553" y="-7.5" font-family="FreeSans" font-size="10.00">string</text>
</g>
<!-- Node9&#45;&gt;Node10 -->
<g id="edge9" class="edge"><title>Node9&#45;&gt;Node10</title>
<path fill="none" stroke="midnightblue" d="M633.576,-56.324C618.46,-47.8215 595.185,-34.7288 577.529,-24.7975"/>
<polygon fill="midnightblue" stroke="midnightblue" points="578.817,-21.5066 568.386,-19.6545 575.386,-27.6077 578.817,-21.5066"/>
</g>
<!-- Node11 -->
<g id="node11" class="node"><title>Node11</title>
<polygon fill="none" stroke="#bfbfbf" points="591,-0.5 591,-19.5 637,-19.5 637,-0.5 591,-0.5"/>
<text text-anchor="middle" x="614" y="-7.5" font-family="FreeSans" font-size="10.00">TFile.h</text>
</g>
<!-- Node9&#45;&gt;Node11 -->
<g id="edge10" class="edge"><title>Node9&#45;&gt;Node11</title>
<path fill="none" stroke="midnightblue" d="M643.22,-56.083C638.328,-48.5341 631.173,-37.4948 625.167,-28.2298"/>
<polygon fill="midnightblue" stroke="midnightblue" points="628.048,-26.239 619.672,-19.7511 622.174,-30.0463 628.048,-26.239"/>
</g>
<!-- Node12 -->
<g id="node12" class="node"><title>Node12</title>
<polygon fill="none" stroke="#bfbfbf" points="655,-0.5 655,-19.5 711,-19.5 711,-0.5 655,-0.5"/>
<text text-anchor="middle" x="683" y="-7.5" font-family="FreeSans" font-size="10.00">TString.h</text>
</g>
<!-- Node9&#45;&gt;Node12 -->
<g id="edge11" class="edge"><title>Node9&#45;&gt;Node12</title>
<path fill="none" stroke="midnightblue" d="M654.614,-56.083C659.367,-48.5341 666.318,-37.4948 672.152,-28.2298"/>
<polygon fill="midnightblue" stroke="midnightblue" points="675.124,-30.0783 677.49,-19.7511 669.2,-26.3486 675.124,-30.0783"/>
</g>
<!-- Node13 -->
<g id="node13" class="node"><title>Node13</title>
<g id="a_node13"><a xlink:href="../../dd/de2/GlobalConsts_8h.html" target="_top" xlink:title="GlobalConsts.h">
<polygon fill="none" stroke="black" points="729.5,-0.5 729.5,-19.5 810.5,-19.5 810.5,-0.5 729.5,-0.5"/>
<text text-anchor="middle" x="770" y="-7.5" font-family="FreeSans" font-size="10.00">GlobalConsts.h</text>
</a>
</g>
</g>
<!-- Node9&#45;&gt;Node13 -->
<g id="edge12" class="edge"><title>Node9&#45;&gt;Node13</title>
<path fill="none" stroke="midnightblue" d="M668.173,-56.4435C687.909,-47.6356 718.885,-33.8116 741.493,-23.722"/>
<polygon fill="midnightblue" stroke="midnightblue" points="743.211,-26.788 750.917,-19.5164 740.359,-20.3957 743.211,-26.788"/>
</g>
</g>
</svg>
