<?xml version="1.0" encoding="UTF-8" standalone="no"?>
<!DOCTYPE svg PUBLIC "-//W3C//DTD SVG 1.1//EN"
 "http://www.w3.org/Graphics/SVG/1.1/DTD/svg11.dtd">
<!-- Generated by graphviz version 2.36.0 (20140111.2315)
 -->
<!-- Title: /home/yuhw/GitHub/SeaQuest/seaquest&#45;offline/fun4all/fun4all/Fun4AllEventOutStream.h Pages: 1 -->
<svg width="541pt" height="284pt"
 viewBox="0.00 0.00 541.00 284.00" xmlns="http://www.w3.org/2000/svg" xmlns:xlink="http://www.w3.org/1999/xlink">
<g id="graph0" class="graph" transform="scale(1 1) rotate(0) translate(4 280)">
<title>/home/yuhw/GitHub/SeaQuest/seaquest&#45;offline/fun4all/fun4all/Fun4AllEventOutStream.h</title>
<!-- Node1 -->
<g id="node1" class="node"><title>Node1</title>
<polygon fill="#bfbfbf" stroke="black" points="124,-234.5 124,-275.5 288,-275.5 288,-234.5 124,-234.5"/>
<text text-anchor="start" x="132" y="-263.5" font-family="FreeSans" font-size="10.00">/home/yuhw/GitHub/SeaQuest</text>
<text text-anchor="start" x="132" y="-252.5" font-family="FreeSans" font-size="10.00">/seaquest&#45;offline/fun4all</text>
<text text-anchor="middle" x="206" y="-241.5" font-family="FreeSans" font-size="10.00">/fun4all/Fun4AllEventOutStream.h</text>
</g>
<!-- Node2 -->
<g id="node2" class="node"><title>Node2</title>
<g id="a_node2"><a xlink:href="../../d6/dbe/Fun4AllEventOutputManager_8cc.html" target="_top" xlink:title="/home/yuhw/GitHub/SeaQuest\l/seaquest&#45;offline/fun4all\l/fun4all/Fun4AllEventOutputManager.cc">
<polygon fill="none" stroke="black" points="0,-0.5 0,-41.5 188,-41.5 188,-0.5 0,-0.5"/>
<text text-anchor="start" x="8" y="-29.5" font-family="FreeSans" font-size="10.00">/home/yuhw/GitHub/SeaQuest</text>
<text text-anchor="start" x="8" y="-18.5" font-family="FreeSans" font-size="10.00">/seaquest&#45;offline/fun4all</text>
<text text-anchor="middle" x="94" y="-7.5" font-family="FreeSans" font-size="10.00">/fun4all/Fun4AllEventOutputManager.cc</text>
</a>
</g>
</g>
<!-- Node1&#45;&gt;Node2 -->
<g id="edge1" class="edge"><title>Node1&#45;&gt;Node2</title>
<path fill="none" stroke="midnightblue" d="M145.206,-229.043C132.301,-220.99 120.133,-210.753 112,-198 80.7029,-148.926 85.8771,-76.0657 90.6772,-41.5241"/>
<polygon fill="midnightblue" stroke="midnightblue" points="143.812,-232.281 154.218,-234.273 147.326,-226.226 143.812,-232.281"/>
</g>
<!-- Node3 -->
<g id="node3" class="node"><title>Node3</title>
<g id="a_node3"><a xlink:href="../../da/d10/Fun4AllEventOutStream_8cc.html" target="_top" xlink:title="/home/yuhw/GitHub/SeaQuest\l/seaquest&#45;offline/fun4all\l/fun4all/Fun4AllEventOutStream.cc">
<polygon fill="none" stroke="black" points="121.5,-156.5 121.5,-197.5 290.5,-197.5 290.5,-156.5 121.5,-156.5"/>
<text text-anchor="start" x="129.5" y="-185.5" font-family="FreeSans" font-size="10.00">/home/yuhw/GitHub/SeaQuest</text>
<text text-anchor="start" x="129.5" y="-174.5" font-family="FreeSans" font-size="10.00">/seaquest&#45;offline/fun4all</text>
<text text-anchor="middle" x="206" y="-163.5" font-family="FreeSans" font-size="10.00">/fun4all/Fun4AllEventOutStream.cc</text>
</a>
</g>
</g>
<!-- Node1&#45;&gt;Node3 -->
<g id="edge2" class="edge"><title>Node1&#45;&gt;Node3</title>
<path fill="none" stroke="midnightblue" d="M206,-224.297C206,-215.301 206,-205.653 206,-197.506"/>
<polygon fill="midnightblue" stroke="midnightblue" points="202.5,-224.428 206,-234.428 209.5,-224.428 202.5,-224.428"/>
</g>
<!-- Node4 -->
<g id="node4" class="node"><title>Node4</title>
<g id="a_node4"><a xlink:href="../../df/d18/Fun4AllFileOutStream_8h.html" target="_top" xlink:title="/home/yuhw/GitHub/SeaQuest\l/seaquest&#45;offline/fun4all\l/fun4all/Fun4AllFileOutStream.h">
<polygon fill="none" stroke="black" points="308.5,-156.5 308.5,-197.5 463.5,-197.5 463.5,-156.5 308.5,-156.5"/>
<text text-anchor="start" x="316.5" y="-185.5" font-family="FreeSans" font-size="10.00">/home/yuhw/GitHub/SeaQuest</text>
<text text-anchor="start" x="316.5" y="-174.5" font-family="FreeSans" font-size="10.00">/seaquest&#45;offline/fun4all</text>
<text text-anchor="middle" x="386" y="-163.5" font-family="FreeSans" font-size="10.00">/fun4all/Fun4AllFileOutStream.h</text>
</a>
</g>
</g>
<!-- Node1&#45;&gt;Node4 -->
<g id="edge3" class="edge"><title>Node1&#45;&gt;Node4</title>
<path fill="none" stroke="midnightblue" d="M261.731,-230.469C286.782,-219.892 315.996,-207.557 339.803,-197.506"/>
<polygon fill="midnightblue" stroke="midnightblue" points="260.206,-227.314 252.354,-234.428 262.928,-233.763 260.206,-227.314"/>
</g>
<!-- Node5 -->
<g id="node5" class="node"><title>Node5</title>
<g id="a_node5"><a xlink:href="../../d8/d07/Fun4AllRolloverFileOutStream_8h.html" target="_top" xlink:title="/home/yuhw/GitHub/SeaQuest\l/seaquest&#45;offline/fun4all\l/fun4all/Fun4AllRolloverFileOutStream.h">
<polygon fill="none" stroke="black" points="165,-78.5 165,-119.5 355,-119.5 355,-78.5 165,-78.5"/>
<text text-anchor="start" x="173" y="-107.5" font-family="FreeSans" font-size="10.00">/home/yuhw/GitHub/SeaQuest</text>
<text text-anchor="start" x="173" y="-96.5" font-family="FreeSans" font-size="10.00">/seaquest&#45;offline/fun4all</text>
<text text-anchor="middle" x="260" y="-85.5" font-family="FreeSans" font-size="10.00">/fun4all/Fun4AllRolloverFileOutStream.h</text>
</a>
</g>
</g>
<!-- Node4&#45;&gt;Node5 -->
<g id="edge4" class="edge"><title>Node4&#45;&gt;Node5</title>
<path fill="none" stroke="midnightblue" d="M344.889,-151.203C327.837,-140.918 308.342,-129.159 292.338,-119.506"/>
<polygon fill="midnightblue" stroke="midnightblue" points="343.181,-154.26 353.552,-156.428 346.797,-148.266 343.181,-154.26"/>
</g>
<!-- Node7 -->
<g id="node7" class="node"><title>Node7</title>
<g id="a_node7"><a xlink:href="../../d2/d3e/Fun4AllFileOutStream_8cc.html" target="_top" xlink:title="/home/yuhw/GitHub/SeaQuest\l/seaquest&#45;offline/fun4all\l/fun4all/Fun4AllFileOutStream.cc">
<polygon fill="none" stroke="black" points="373,-78.5 373,-119.5 533,-119.5 533,-78.5 373,-78.5"/>
<text text-anchor="start" x="381" y="-107.5" font-family="FreeSans" font-size="10.00">/home/yuhw/GitHub/SeaQuest</text>
<text text-anchor="start" x="381" y="-96.5" font-family="FreeSans" font-size="10.00">/seaquest&#45;offline/fun4all</text>
<text text-anchor="middle" x="453" y="-85.5" font-family="FreeSans" font-size="10.00">/fun4all/Fun4AllFileOutStream.cc</text>
</a>
</g>
</g>
<!-- Node4&#45;&gt;Node7 -->
<g id="edge7" class="edge"><title>Node4&#45;&gt;Node7</title>
<path fill="none" stroke="midnightblue" d="M409.877,-148.916C418.44,-139.203 427.919,-128.45 435.804,-119.506"/>
<polygon fill="midnightblue" stroke="midnightblue" points="407.242,-146.612 403.254,-156.428 412.493,-151.241 407.242,-146.612"/>
</g>
<!-- Node5&#45;&gt;Node2 -->
<g id="edge5" class="edge"><title>Node5&#45;&gt;Node2</title>
<path fill="none" stroke="midnightblue" d="M207.992,-74.189C185.027,-63.6749 158.366,-51.4687 136.604,-41.5056"/>
<polygon fill="midnightblue" stroke="midnightblue" points="206.701,-77.4476 217.251,-78.4281 209.615,-71.0829 206.701,-77.4476"/>
</g>
<!-- Node6 -->
<g id="node6" class="node"><title>Node6</title>
<g id="a_node6"><a xlink:href="../../db/d70/Fun4AllRolloverFileOutStream_8cc.html" target="_top" xlink:title="/home/yuhw/GitHub/SeaQuest\l/seaquest&#45;offline/fun4all\l/fun4all/Fun4AllRolloverFileOutStream.cc">
<polygon fill="none" stroke="black" points="206.5,-0.5 206.5,-41.5 401.5,-41.5 401.5,-0.5 206.5,-0.5"/>
<text text-anchor="start" x="214.5" y="-29.5" font-family="FreeSans" font-size="10.00">/home/yuhw/GitHub/SeaQuest</text>
<text text-anchor="start" x="214.5" y="-18.5" font-family="FreeSans" font-size="10.00">/seaquest&#45;offline/fun4all</text>
<text text-anchor="middle" x="304" y="-7.5" font-family="FreeSans" font-size="10.00">/fun4all/Fun4AllRolloverFileOutStream.cc</text>
</a>
</g>
</g>
<!-- Node5&#45;&gt;Node6 -->
<g id="edge6" class="edge"><title>Node5&#45;&gt;Node6</title>
<path fill="none" stroke="midnightblue" d="M276.351,-69.7571C281.795,-60.354 287.734,-50.096 292.707,-41.5056"/>
<polygon fill="midnightblue" stroke="midnightblue" points="273.313,-68.0202 271.331,-78.4281 279.371,-71.5275 273.313,-68.0202"/>
</g>
</g>
</svg>
