<?xml version="1.0" encoding="UTF-8" standalone="no"?>
<!DOCTYPE svg PUBLIC "-//W3C//DTD SVG 1.1//EN"
 "http://www.w3.org/Graphics/SVG/1.1/DTD/svg11.dtd">
<!-- Generated by graphviz version 2.36.0 (20140111.2315)
 -->
<!-- Title: PHG4GDMLWrite::MaterialsWrite Pages: 1 -->
<svg width="988pt" height="77pt"
 viewBox="0.00 0.00 988.00 77.00" xmlns="http://www.w3.org/2000/svg" xmlns:xlink="http://www.w3.org/1999/xlink">
<g id="graph0" class="graph" transform="scale(1 1) rotate(0) translate(4 73)">
<title>PHG4GDMLWrite::MaterialsWrite</title>
<!-- Node1 -->
<g id="node1" class="node"><title>Node1</title>
<polygon fill="#bfbfbf" stroke="black" points="0.5,-22 0.5,-52 139.5,-52 139.5,-22 0.5,-22"/>
<text text-anchor="start" x="8.5" y="-40" font-family="FreeSans" font-size="10.00">PHG4GDMLWrite::Materials</text>
<text text-anchor="middle" x="70" y="-29" font-family="FreeSans" font-size="10.00">Write</text>
</g>
<!-- Node2 -->
<g id="node2" class="node"><title>Node2</title>
<g id="a_node2"><a xlink:href="../../dd/db5/classPHG4GDMLWrite.html#af4241e53bb71408c9bf11117053f9810" target="_top" xlink:title="PHG4GDMLWrite::Write">
<polygon fill="none" stroke="black" points="176,-27.5 176,-46.5 298,-46.5 298,-27.5 176,-27.5"/>
<text text-anchor="middle" x="237" y="-34.5" font-family="FreeSans" font-size="10.00">PHG4GDMLWrite::Write</text>
</a>
</g>
</g>
<!-- Node1&#45;&gt;Node2 -->
<g id="edge1" class="edge"><title>Node1&#45;&gt;Node2</title>
<path fill="none" stroke="midnightblue" d="M149.775,-37C158.534,-37 167.35,-37 175.826,-37"/>
<polygon fill="midnightblue" stroke="midnightblue" points="149.541,-33.5001 139.541,-37 149.541,-40.5001 149.541,-33.5001"/>
</g>
<!-- Node3 -->
<g id="node3" class="node"><title>Node3</title>
<g id="a_node3"><a xlink:href="../../d9/df8/classPHG4GDMLUtility.html#adb03ec38807279cb5abaf38987c5a73f" target="_top" xlink:title="save the current Geant4 geometry to GDML file. Reading PHG4GDMLConfig from topNode ...">
<polygon fill="none" stroke="black" points="334.5,-49.5 334.5,-68.5 495.5,-68.5 495.5,-49.5 334.5,-49.5"/>
<text text-anchor="middle" x="415" y="-56.5" font-family="FreeSans" font-size="10.00">PHG4GDMLUtility::Dump_GDML</text>
</a>
</g>
</g>
<!-- Node2&#45;&gt;Node3 -->
<g id="edge2" class="edge"><title>Node2&#45;&gt;Node3</title>
<path fill="none" stroke="midnightblue" d="M308.088,-45.761C317.821,-46.9777 327.86,-48.2325 337.7,-49.4624"/>
<polygon fill="midnightblue" stroke="midnightblue" points="308.434,-42.2771 298.077,-44.5096 307.566,-49.223 308.434,-42.2771"/>
</g>
<!-- Node8 -->
<g id="node8" class="node"><title>Node8</title>
<g id="a_node8"><a xlink:href="../../d2/d72/classPHG4GDMLWriteStructure.html#a957c6f2d283732660e3eb9c41b982048" target="_top" xlink:title="PHG4GDMLWriteStructure\l::TraverseVolumeTree">
<polygon fill="none" stroke="black" points="348,-0 348,-30 482,-30 482,-0 348,-0"/>
<text text-anchor="start" x="356" y="-18" font-family="FreeSans" font-size="10.00">PHG4GDMLWriteStructure</text>
<text text-anchor="middle" x="415" y="-7" font-family="FreeSans" font-size="10.00">::TraverseVolumeTree</text>
</a>
</g>
</g>
<!-- Node2&#45;&gt;Node8 -->
<g id="edge7" class="edge"><title>Node2&#45;&gt;Node8</title>
<path fill="none" stroke="midnightblue" d="M308.384,-28.202C321.408,-26.574 334.968,-24.879 347.861,-23.2674"/>
<polygon fill="midnightblue" stroke="midnightblue" points="307.566,-24.777 298.077,-29.4904 308.434,-31.7229 307.566,-24.777"/>
</g>
<!-- Node4 -->
<g id="node4" class="node"><title>Node4</title>
<g id="a_node4"><a xlink:href="../../d0/d78/classPHG4Reco.html#a490f5037508d384c5b60855ef0f7e227" target="_top" xlink:title="PHG4Reco::Dump_GDML">
<polygon fill="none" stroke="black" points="532,-49.5 532,-68.5 662,-68.5 662,-49.5 532,-49.5"/>
<text text-anchor="middle" x="597" y="-56.5" font-family="FreeSans" font-size="10.00">PHG4Reco::Dump_GDML</text>
</a>
</g>
</g>
<!-- Node3&#45;&gt;Node4 -->
<g id="edge3" class="edge"><title>Node3&#45;&gt;Node4</title>
<path fill="none" stroke="midnightblue" d="M506.012,-59C514.782,-59 523.551,-59 531.988,-59"/>
<polygon fill="midnightblue" stroke="midnightblue" points="505.737,-55.5001 495.737,-59 505.737,-62.5001 505.737,-55.5001"/>
</g>
<!-- Node5 -->
<g id="node5" class="node"><title>Node5</title>
<g id="a_node5"><a xlink:href="../../d0/d78/classPHG4Reco.html#a9d8228ce8682c19cd6be2f6b44ec847b" target="_top" xlink:title="PHG4Reco::InitRun">
<polygon fill="none" stroke="black" points="698.5,-49.5 698.5,-68.5 799.5,-68.5 799.5,-49.5 698.5,-49.5"/>
<text text-anchor="middle" x="749" y="-56.5" font-family="FreeSans" font-size="10.00">PHG4Reco::InitRun</text>
</a>
</g>
</g>
<!-- Node4&#45;&gt;Node5 -->
<g id="edge4" class="edge"><title>Node4&#45;&gt;Node5</title>
<path fill="none" stroke="midnightblue" d="M672.324,-59C681.107,-59 689.902,-59 698.228,-59"/>
<polygon fill="midnightblue" stroke="midnightblue" points="672.049,-55.5001 662.049,-59 672.049,-62.5001 672.049,-55.5001"/>
</g>
<!-- Node6 -->
<g id="node6" class="node"><title>Node6</title>
<g id="a_node6"><a xlink:href="../../d6/dc9/DisplayOn_8C.html#a8ac4d6fb78f920957b354f88d6195f54" target="_top" xlink:title="DisplayOn">
<polygon fill="none" stroke="black" points="836.5,-49.5 836.5,-68.5 897.5,-68.5 897.5,-49.5 836.5,-49.5"/>
<text text-anchor="middle" x="867" y="-56.5" font-family="FreeSans" font-size="10.00">DisplayOn</text>
</a>
</g>
</g>
<!-- Node5&#45;&gt;Node6 -->
<g id="edge5" class="edge"><title>Node5&#45;&gt;Node6</title>
<path fill="none" stroke="midnightblue" d="M809.611,-59C818.921,-59 828.177,-59 836.416,-59"/>
<polygon fill="midnightblue" stroke="midnightblue" points="809.531,-55.5001 799.531,-59 809.531,-62.5001 809.531,-55.5001"/>
</g>
<!-- Node7 -->
<g id="node7" class="node"><title>Node7</title>
<g id="a_node7"><a xlink:href="../../d4/d87/int__run_8C.html#a088590a1a5b93b904ba076de8ca1ef82" target="_top" xlink:title="int_run">
<polygon fill="none" stroke="black" points="934,-49.5 934,-68.5 980,-68.5 980,-49.5 934,-49.5"/>
<text text-anchor="middle" x="957" y="-56.5" font-family="FreeSans" font-size="10.00">int_run</text>
</a>
</g>
</g>
<!-- Node6&#45;&gt;Node7 -->
<g id="edge6" class="edge"><title>Node6&#45;&gt;Node7</title>
<path fill="none" stroke="midnightblue" d="M907.995,-59C916.845,-59 925.913,-59 933.751,-59"/>
<polygon fill="midnightblue" stroke="midnightblue" points="907.793,-55.5001 897.793,-59 907.793,-62.5001 907.793,-55.5001"/>
</g>
</g>
</svg>
