<?xml version="1.0" encoding="UTF-8" standalone="no"?>
<!DOCTYPE svg PUBLIC "-//W3C//DTD SVG 1.1//EN"
 "http://www.w3.org/Graphics/SVG/1.1/DTD/svg11.dtd">
<!-- Generated by graphviz version 2.44.0 (0)
 -->
<!-- Title: KalmanFastTracking::fitTrack Pages: 1 -->
<svg width="1037pt" height="948pt"
 viewBox="0.00 0.00 1037.00 947.50" xmlns="http://www.w3.org/2000/svg" xmlns:xlink="http://www.w3.org/1999/xlink">
<g id="graph0" class="graph" transform="scale(1 1) rotate(0) translate(4 943.5)">
<title>KalmanFastTracking::fitTrack</title>
<!-- Node1 -->
<g id="node1" class="node">
<title>Node1</title>
<g id="a_node1"><a xlink:title=" ">
<polygon fill="#bfbfbf" stroke="black" points="0,-268.5 0,-298.5 114,-298.5 114,-268.5 0,-268.5"/>
<text text-anchor="start" x="8" y="-286.5" font-family="FreeSans" font-size="10.00">KalmanFastTracking</text>
<text text-anchor="middle" x="57" y="-275.5" font-family="FreeSans" font-size="10.00">::fitTrack</text>
</a>
</g>
</g>
<!-- Node2 -->
<g id="node2" class="node">
<title>Node2</title>
<g id="a_node2"><a xlink:href="../../d9/dc3/classKalmanTrack.html#a5131a89f46b93d34ece2b08c442845cc" target="_top" xlink:title=" ">
<polygon fill="none" stroke="black" points="540,-236 540,-255 684,-255 684,-236 540,-236"/>
<text text-anchor="middle" x="612" y="-243" font-family="FreeSans" font-size="10.00">KalmanTrack::getNodeList</text>
</a>
</g>
</g>
<!-- Node1&#45;&gt;Node2 -->
<g id="edge1" class="edge">
<title>Node1&#45;&gt;Node2</title>
<path fill="none" stroke="midnightblue" d="M114.07,-279.65C212.29,-272.9 415.82,-258.91 529.57,-251.1"/>
<polygon fill="midnightblue" stroke="midnightblue" points="529.88,-254.58 539.62,-250.4 529.4,-247.6 529.88,-254.58"/>
</g>
<!-- Node3 -->
<g id="node3" class="node">
<title>Node3</title>
<g id="a_node3"><a xlink:href="../../d3/dc9/classKalmanFitter.html#a36692b492f189bfdcf521fb4e7ed491d" target="_top" xlink:title=" ">
<polygon fill="none" stroke="black" points="151,-496.5 151,-526.5 294,-526.5 294,-496.5 151,-496.5"/>
<text text-anchor="start" x="159" y="-514.5" font-family="FreeSans" font-size="10.00">KalmanFitter::processOne</text>
<text text-anchor="middle" x="222.5" y="-503.5" font-family="FreeSans" font-size="10.00">Track</text>
</a>
</g>
</g>
<!-- Node1&#45;&gt;Node3 -->
<g id="edge2" class="edge">
<title>Node1&#45;&gt;Node3</title>
<path fill="none" stroke="midnightblue" d="M68.98,-298.81C96.96,-337.83 171.09,-441.2 204.61,-487.95"/>
<polygon fill="midnightblue" stroke="midnightblue" points="201.89,-490.17 210.57,-496.25 207.58,-486.09 201.89,-490.17"/>
</g>
<!-- Node43 -->
<g id="node43" class="node">
<title>Node43</title>
<g id="a_node43"><a xlink:href="../../d3/dc9/classKalmanFitter.html#a87c3f1aaaae5bd73d76b7383cbf72b5c" target="_top" xlink:title=" ">
<polygon fill="none" stroke="black" points="150,-217 150,-236 295,-236 295,-217 150,-217"/>
<text text-anchor="middle" x="222.5" y="-224" font-family="FreeSans" font-size="10.00">KalmanFitter::updateTrack</text>
</a>
</g>
</g>
<!-- Node1&#45;&gt;Node43 -->
<g id="edge59" class="edge">
<title>Node1&#45;&gt;Node43</title>
<path fill="none" stroke="midnightblue" d="M101.39,-268.37C127.16,-259.39 159.52,-248.11 184.15,-239.52"/>
<polygon fill="midnightblue" stroke="midnightblue" points="185.57,-242.73 193.86,-236.14 183.26,-236.12 185.57,-242.73"/>
</g>
<!-- Node4 -->
<g id="node4" class="node">
<title>Node4</title>
<g id="a_node4"><a xlink:href="../../d6/d2a/classKalmanFilter.html#a9c77cbaf604c1adc5e0e12ef3463d37c" target="_top" xlink:title="Fit one node.">
<polygon fill="none" stroke="black" points="354,-464 354,-483 478,-483 478,-464 354,-464"/>
<text text-anchor="middle" x="416" y="-471" font-family="FreeSans" font-size="10.00">KalmanFilter::fit_node</text>
</a>
</g>
</g>
<!-- Node3&#45;&gt;Node4 -->
<g id="edge3" class="edge">
<title>Node3&#45;&gt;Node4</title>
<path fill="none" stroke="midnightblue" d="M294.26,-497.46C314.86,-493.37 337.11,-488.96 356.84,-485.04"/>
<polygon fill="midnightblue" stroke="midnightblue" points="357.77,-488.42 366.9,-483.04 356.41,-481.56 357.77,-488.42"/>
</g>
<!-- Node32 -->
<g id="node32" class="node">
<title>Node32</title>
<g id="a_node32"><a xlink:href="../../d3/dc9/classKalmanFitter.html#ae9587c1f1ad0cda46b37cc803ea8513b" target="_top" xlink:title="Initialize the kalman filter.">
<polygon fill="none" stroke="black" points="365.5,-616 365.5,-635 466.5,-635 466.5,-616 365.5,-616"/>
<text text-anchor="middle" x="416" y="-623" font-family="FreeSans" font-size="10.00">KalmanFitter::init</text>
</a>
</g>
</g>
<!-- Node3&#45;&gt;Node32 -->
<g id="edge33" class="edge">
<title>Node3&#45;&gt;Node32</title>
<path fill="none" stroke="midnightblue" d="M237.67,-526.83C256.95,-546.81 293.37,-581.54 331,-601.5 339.55,-606.04 349.06,-609.8 358.52,-612.9"/>
<polygon fill="midnightblue" stroke="midnightblue" points="357.73,-616.32 368.31,-615.89 359.77,-609.62 357.73,-616.32"/>
</g>
<!-- Node33 -->
<g id="node33" class="node">
<title>Node33</title>
<g id="a_node33"><a xlink:href="../../d3/dc9/classKalmanFitter.html#a6c4dc9c69d998ffb8897d4eabe692e29" target="_top" xlink:title="Initialize the node list.">
<polygon fill="none" stroke="black" points="344,-363 344,-382 488,-382 488,-363 344,-363"/>
<text text-anchor="middle" x="416" y="-370" font-family="FreeSans" font-size="10.00">KalmanFitter::initNodeList</text>
</a>
</g>
</g>
<!-- Node3&#45;&gt;Node33 -->
<g id="edge34" class="edge">
<title>Node3&#45;&gt;Node33</title>
<path fill="none" stroke="midnightblue" d="M235.53,-496.19C253.95,-473.64 291.22,-431.35 331,-405.5 343.58,-397.32 358.5,-390.65 372.25,-385.49"/>
<polygon fill="midnightblue" stroke="midnightblue" points="373.77,-388.67 382.01,-382.01 371.41,-382.07 373.77,-388.67"/>
</g>
<!-- Node34 -->
<g id="node34" class="node">
<title>Node34</title>
<g id="a_node34"><a xlink:href="../../d3/dc9/classKalmanFitter.html#a6afa98e802038d1ef394de55bbe013b5" target="_top" xlink:title="Initialize the smoother.">
<polygon fill="none" stroke="black" points="537.5,-806 537.5,-825 686.5,-825 686.5,-806 537.5,-806"/>
<text text-anchor="middle" x="612" y="-813" font-family="FreeSans" font-size="10.00">KalmanFitter::initSmoother</text>
</a>
</g>
</g>
<!-- Node3&#45;&gt;Node34 -->
<g id="edge36" class="edge">
<title>Node3&#45;&gt;Node34</title>
<path fill="none" stroke="midnightblue" d="M233.34,-526.88C250.72,-553.23 289.02,-607.71 331,-644.5 412.26,-715.72 526.83,-775.28 580.73,-801.36"/>
<polygon fill="midnightblue" stroke="midnightblue" points="579.54,-804.67 590.07,-805.84 582.56,-798.36 579.54,-804.67"/>
</g>
<!-- Node38 -->
<g id="node38" class="node">
<title>Node38</title>
<g id="a_node38"><a xlink:href="../../d6/d2a/classKalmanFilter.html#a8d8429d9087367301473581d099091f6" target="_top" xlink:title="set the current track parameter using the current node">
<polygon fill="none" stroke="black" points="537,-540 537,-559 687,-559 687,-540 537,-540"/>
<text text-anchor="middle" x="612" y="-547" font-family="FreeSans" font-size="10.00">KalmanFilter::setCurrTrkpar</text>
</a>
</g>
</g>
<!-- Node3&#45;&gt;Node38 -->
<g id="edge42" class="edge">
<title>Node3&#45;&gt;Node38</title>
<path fill="none" stroke="midnightblue" d="M294.17,-525.1C306.42,-527.14 319.05,-529.04 331,-530.5 396.45,-538.48 470.95,-543.33 526.64,-546.14"/>
<polygon fill="midnightblue" stroke="midnightblue" points="526.65,-549.64 536.81,-546.63 526.99,-542.65 526.65,-549.64"/>
</g>
<!-- Node39 -->
<g id="node39" class="node">
<title>Node39</title>
<g id="a_node39"><a xlink:href="../../d3/dc9/classKalmanFitter.html#a3d139ee72b694541612a4d76023589f8" target="_top" xlink:title="Set the starting parameters.">
<polygon fill="none" stroke="black" points="346.5,-414.5 346.5,-444.5 485.5,-444.5 485.5,-414.5 346.5,-414.5"/>
<text text-anchor="start" x="354.5" y="-432.5" font-family="FreeSans" font-size="10.00">KalmanFitter::setStarting</text>
<text text-anchor="middle" x="416" y="-421.5" font-family="FreeSans" font-size="10.00">Parameter</text>
</a>
</g>
</g>
<!-- Node3&#45;&gt;Node39 -->
<g id="edge44" class="edge">
<title>Node3&#45;&gt;Node39</title>
<path fill="none" stroke="midnightblue" d="M248.45,-496.45C269.81,-484.01 301.67,-466.5 331,-454.5 336.82,-452.12 342.95,-449.85 349.15,-447.73"/>
<polygon fill="midnightblue" stroke="midnightblue" points="350.49,-450.97 358.89,-444.51 348.29,-444.33 350.49,-450.97"/>
</g>
<!-- Node40 -->
<g id="node40" class="node">
<title>Node40</title>
<g id="a_node40"><a xlink:href="../../d6/d2a/classKalmanFilter.html#a511c8165e9c3ad5ee16b6c48ec9ae306" target="_top" xlink:title=" ">
<polygon fill="none" stroke="black" points="551,-730 551,-749 673,-749 673,-730 551,-730"/>
<text text-anchor="middle" x="612" y="-737" font-family="FreeSans" font-size="10.00">KalmanFilter::smooth</text>
</a>
</g>
</g>
<!-- Node3&#45;&gt;Node40 -->
<g id="edge47" class="edge">
<title>Node3&#45;&gt;Node40</title>
<path fill="none" stroke="midnightblue" d="M262.67,-526.54C282.98,-534.22 308.24,-543.59 331,-551.5 406.01,-577.58 435.3,-561.9 501,-606.5 546.46,-637.36 583.24,-692.25 600.44,-720.91"/>
<polygon fill="midnightblue" stroke="midnightblue" points="597.62,-723.02 605.69,-729.88 603.66,-719.48 597.62,-723.02"/>
</g>
<!-- Node42 -->
<g id="node42" class="node">
<title>Node42</title>
<g id="a_node42"><a xlink:href="../../d3/dc9/classKalmanFitter.html#ae154e58fd85842a26842f707dd98a326" target="_top" xlink:title="Update the actual z position of each node according to current fit results.">
<polygon fill="none" stroke="black" points="331,-502 331,-521 501,-521 501,-502 331,-502"/>
<text text-anchor="middle" x="416" y="-509" font-family="FreeSans" font-size="10.00">KalmanFitter::updateAlignment</text>
</a>
</g>
</g>
<!-- Node3&#45;&gt;Node42 -->
<g id="edge58" class="edge">
<title>Node3&#45;&gt;Node42</title>
<path fill="none" stroke="midnightblue" d="M294.26,-511.5C302.93,-511.5 311.9,-511.5 320.84,-511.5"/>
<polygon fill="midnightblue" stroke="midnightblue" points="320.92,-515 330.92,-511.5 320.92,-508 320.92,-515"/>
</g>
<!-- Node5 -->
<g id="node5" class="node">
<title>Node5</title>
<g id="a_node5"><a xlink:href="../../d6/d2a/classKalmanFilter.html#a06b2c6aa660f89c5f30e164b0a29512c" target="_top" xlink:title=" ">
<polygon fill="none" stroke="black" points="558.5,-483 558.5,-502 665.5,-502 665.5,-483 558.5,-483"/>
<text text-anchor="middle" x="612" y="-490" font-family="FreeSans" font-size="10.00">KalmanFilter::filter</text>
</a>
</g>
</g>
<!-- Node4&#45;&gt;Node5 -->
<g id="edge4" class="edge">
<title>Node4&#45;&gt;Node5</title>
<path fill="none" stroke="midnightblue" d="M478.12,-479.49C500.46,-481.67 525.76,-484.15 548.25,-486.35"/>
<polygon fill="midnightblue" stroke="midnightblue" points="548.07,-489.85 558.36,-487.34 548.75,-482.89 548.07,-489.85"/>
</g>
<!-- Node19 -->
<g id="node19" class="node">
<title>Node19</title>
<g id="a_node19"><a xlink:href="../../d6/d2a/classKalmanFilter.html#adfaf7ddeefb43919df6aee3f1e2638ae" target="_top" xlink:title="Kalman filter steps.">
<polygon fill="none" stroke="black" points="552.5,-274 552.5,-293 671.5,-293 671.5,-274 552.5,-274"/>
<text text-anchor="middle" x="612" y="-281" font-family="FreeSans" font-size="10.00">KalmanFilter::predict</text>
</a>
</g>
</g>
<!-- Node4&#45;&gt;Node19 -->
<g id="edge18" class="edge">
<title>Node4&#45;&gt;Node19</title>
<path fill="none" stroke="midnightblue" d="M478.14,-465.62C486.26,-462.91 494.14,-459.3 501,-454.5 556.56,-415.6 590.68,-338.78 604.25,-302.86"/>
<polygon fill="midnightblue" stroke="midnightblue" points="607.67,-303.71 607.8,-293.11 601.09,-301.31 607.67,-303.71"/>
</g>
<!-- Node6 -->
<g id="node6" class="node">
<title>Node6</title>
<g id="a_node6"><a xlink:href="../../d9/db7/classSMatrix.html#a5b825aefb91608b827fbb652501eaecc" target="_top" xlink:title=" ">
<polygon fill="none" stroke="black" points="748,-692 748,-711 848,-711 848,-692 748,-692"/>
<text text-anchor="middle" x="798" y="-699" font-family="FreeSans" font-size="10.00">SMatrix::getABCt</text>
</a>
</g>
</g>
<!-- Node5&#45;&gt;Node6 -->
<g id="edge5" class="edge">
<title>Node5&#45;&gt;Node6</title>
<path fill="none" stroke="midnightblue" d="M645.17,-502.03C659.95,-507.96 676.49,-517.08 687,-530.5 729.81,-585.15 674.37,-632.95 723,-682.5 727.29,-686.87 732.43,-690.28 737.98,-692.93"/>
<polygon fill="midnightblue" stroke="midnightblue" points="737.05,-696.33 747.63,-696.73 739.61,-689.81 737.05,-696.33"/>
</g>
<!-- Node7 -->
<g id="node7" class="node">
<title>Node7</title>
<g id="a_node7"><a xlink:href="../../d9/db7/classSMatrix.html#a03a7887eb40e088b798124c6cc6fe526" target="_top" xlink:title=" ">
<polygon fill="none" stroke="black" points="748,-388 748,-407 848,-407 848,-388 748,-388"/>
<text text-anchor="middle" x="798" y="-395" font-family="FreeSans" font-size="10.00">SMatrix::getABtC</text>
</a>
</g>
</g>
<!-- Node5&#45;&gt;Node7 -->
<g id="edge6" class="edge">
<title>Node5&#45;&gt;Node7</title>
<path fill="none" stroke="midnightblue" d="M625.57,-482.83C645.36,-467.96 685.43,-439.34 723,-421.5 731.96,-417.24 741.88,-413.45 751.46,-410.21"/>
<polygon fill="midnightblue" stroke="midnightblue" points="752.83,-413.45 761.27,-407.04 750.68,-406.79 752.83,-413.45"/>
</g>
<!-- Node8 -->
<g id="node8" class="node">
<title>Node8</title>
<g id="a_node8"><a xlink:href="../../d9/db7/classSMatrix.html#a92895b3c0152de2335f0c60b6ccdc60e" target="_top" xlink:title=" ">
<polygon fill="none" stroke="black" points="748,-350 748,-369 848,-369 848,-350 748,-350"/>
<text text-anchor="middle" x="798" y="-357" font-family="FreeSans" font-size="10.00">SMatrix::getAtBC</text>
</a>
</g>
</g>
<!-- Node5&#45;&gt;Node8 -->
<g id="edge7" class="edge">
<title>Node5&#45;&gt;Node8</title>
<path fill="none" stroke="midnightblue" d="M619.44,-482.83C634.66,-460.73 675.23,-406.32 723,-378.5 727.73,-375.75 732.85,-373.39 738.13,-371.37"/>
<polygon fill="midnightblue" stroke="midnightblue" points="739.39,-374.63 747.72,-368.08 737.13,-368.01 739.39,-374.63"/>
</g>
<!-- Node9 -->
<g id="node9" class="node">
<title>Node9</title>
<g id="a_node9"><a xlink:href="../../df/dd0/classNode.html#ab483dc1ccfa5a0dc9ba876ee9a2134c9" target="_top" xlink:title=" ">
<polygon fill="none" stroke="black" points="747.5,-730 747.5,-749 848.5,-749 848.5,-730 747.5,-730"/>
<text text-anchor="middle" x="798" y="-737" font-family="FreeSans" font-size="10.00">Node::getFiltered</text>
</a>
</g>
</g>
<!-- Node5&#45;&gt;Node9 -->
<g id="edge8" class="edge">
<title>Node5&#45;&gt;Node9</title>
<path fill="none" stroke="midnightblue" d="M646.19,-502.12C660.84,-508.02 676.97,-517.08 687,-530.5 738.45,-599.34 664.2,-657.81 723,-720.5 727.19,-724.96 732.26,-728.43 737.78,-731.13"/>
<polygon fill="midnightblue" stroke="midnightblue" points="736.81,-734.51 747.39,-734.96 739.4,-728 736.81,-734.51"/>
</g>
<!-- Node10 -->
<g id="node10" class="node">
<title>Node10</title>
<g id="a_node10"><a xlink:href="../../df/dd0/classNode.html#a4e6f7c1350b1445ca9b9221cb709dbcb" target="_top" xlink:title=" ">
<polygon fill="none" stroke="black" points="732.5,-654 732.5,-673 863.5,-673 863.5,-654 732.5,-654"/>
<text text-anchor="middle" x="798" y="-661" font-family="FreeSans" font-size="10.00">Node::getMeasurement</text>
</a>
</g>
</g>
<!-- Node5&#45;&gt;Node10 -->
<g id="edge9" class="edge">
<title>Node5&#45;&gt;Node10</title>
<path fill="none" stroke="midnightblue" d="M644,-502.07C658.86,-508.08 675.82,-517.26 687,-530.5 721.28,-571.1 684.42,-607.97 723,-644.5 724.52,-645.94 726.13,-647.27 727.81,-648.5"/>
<polygon fill="midnightblue" stroke="midnightblue" points="726.43,-651.75 736.8,-653.9 730.03,-645.75 726.43,-651.75"/>
</g>
<!-- Node11 -->
<g id="node11" class="node">
<title>Node11</title>
<g id="a_node11"><a xlink:href="../../df/dd0/classNode.html#aba6dd9d4c392f430d1c93d4af381dbaa" target="_top" xlink:title=" ">
<polygon fill="none" stroke="black" points="723,-616 723,-635 873,-635 873,-616 723,-616"/>
<text text-anchor="middle" x="798" y="-623" font-family="FreeSans" font-size="10.00">Node::getMeasurementCov</text>
</a>
</g>
</g>
<!-- Node5&#45;&gt;Node11 -->
<g id="edge10" class="edge">
<title>Node5&#45;&gt;Node11</title>
<path fill="none" stroke="midnightblue" d="M641.8,-502.13C656.79,-508.32 674.54,-517.64 687,-530.5 713,-557.35 694.17,-582.71 723,-606.5 725.06,-608.2 727.25,-609.75 729.54,-611.16"/>
<polygon fill="midnightblue" stroke="midnightblue" points="728.32,-614.47 738.81,-615.96 731.54,-608.25 728.32,-614.47"/>
</g>
<!-- Node12 -->
<g id="node12" class="node">
<title>Node12</title>
<g id="a_node12"><a xlink:href="../../df/dd0/classNode.html#a49001f3ff76ccd0091837d333f8698f8" target="_top" xlink:title="Gets.">
<polygon fill="none" stroke="black" points="743,-312 743,-331 853,-331 853,-312 743,-312"/>
<text text-anchor="middle" x="798" y="-319" font-family="FreeSans" font-size="10.00">Node::getPredicted</text>
</a>
</g>
</g>
<!-- Node5&#45;&gt;Node12 -->
<g id="edge11" class="edge">
<title>Node5&#45;&gt;Node12</title>
<path fill="none" stroke="midnightblue" d="M617.07,-482.89C629.02,-455.88 666.73,-378.82 723,-340.5 726.3,-338.25 729.84,-336.27 733.53,-334.53"/>
<polygon fill="midnightblue" stroke="midnightblue" points="735.02,-337.7 742.93,-330.65 732.35,-331.23 735.02,-337.7"/>
</g>
<!-- Node13 -->
<g id="node13" class="node">
<title>Node13</title>
<g id="a_node13"><a xlink:href="../../df/dd0/classNode.html#ab276ce7246c8434b058236346dc121fd" target="_top" xlink:title=" ">
<polygon fill="none" stroke="black" points="744.5,-540 744.5,-559 851.5,-559 851.5,-540 744.5,-540"/>
<text text-anchor="middle" x="798" y="-547" font-family="FreeSans" font-size="10.00">Node::getProjector</text>
</a>
</g>
</g>
<!-- Node5&#45;&gt;Node13 -->
<g id="edge12" class="edge">
<title>Node5&#45;&gt;Node13</title>
<path fill="none" stroke="midnightblue" d="M638.59,-502C660.76,-510.08 693.78,-521.72 723,-530.5 730.86,-532.86 739.24,-535.19 747.43,-537.37"/>
<polygon fill="midnightblue" stroke="midnightblue" points="746.72,-540.8 757.28,-539.93 748.49,-534.02 746.72,-540.8"/>
</g>
<!-- Node14 -->
<g id="node14" class="node">
<title>Node14</title>
<g id="a_node14"><a xlink:href="../../d9/db7/classSMatrix.html#ac07d7810681bd4683b433c29187d7a5a" target="_top" xlink:title=" ">
<polygon fill="none" stroke="black" points="909,-616 909,-635 1029,-635 1029,-616 909,-616"/>
<text text-anchor="middle" x="969" y="-623" font-family="FreeSans" font-size="10.00">SMatrix::invertMatrix</text>
</a>
</g>
</g>
<!-- Node5&#45;&gt;Node14 -->
<g id="edge13" class="edge">
<title>Node5&#45;&gt;Node14</title>
<path fill="none" stroke="midnightblue" d="M630.25,-482.93C674.16,-459.97 792.4,-407.07 873,-454.5 929.5,-487.75 954.81,-568.08 963.84,-605.59"/>
<polygon fill="midnightblue" stroke="midnightblue" points="960.52,-606.77 966.14,-615.75 967.35,-605.23 960.52,-606.77"/>
</g>
<!-- Node15 -->
<g id="node15" class="node">
<title>Node15</title>
<g id="a_node15"><a xlink:href="../../df/dd0/classNode.html#a35fb6b17a2553e4ff684f9cbd1e9a72c" target="_top" xlink:title=" ">
<polygon fill="none" stroke="black" points="744.5,-768 744.5,-787 851.5,-787 851.5,-768 744.5,-768"/>
<text text-anchor="middle" x="798" y="-775" font-family="FreeSans" font-size="10.00">Node::isFilterDone</text>
</a>
</g>
</g>
<!-- Node5&#45;&gt;Node15 -->
<g id="edge14" class="edge">
<title>Node5&#45;&gt;Node15</title>
<path fill="none" stroke="midnightblue" d="M646.76,-502.14C661.34,-508.01 677.26,-517.05 687,-530.5 747.15,-613.61 653.97,-682.61 723,-758.5 726.39,-762.23 730.41,-765.27 734.79,-767.74"/>
<polygon fill="midnightblue" stroke="midnightblue" points="733.65,-771.07 744.2,-772.07 736.57,-764.71 733.65,-771.07"/>
</g>
<!-- Node16 -->
<g id="node16" class="node">
<title>Node16</title>
<g id="a_node16"><a xlink:href="../../df/dd0/classNode.html#a85c7247d8b700b6e836479d7666467e4" target="_top" xlink:title=" ">
<polygon fill="none" stroke="black" points="732.5,-274 732.5,-293 863.5,-293 863.5,-274 732.5,-274"/>
<text text-anchor="middle" x="798" y="-281" font-family="FreeSans" font-size="10.00">Node::isPredictionDone</text>
</a>
</g>
</g>
<!-- Node5&#45;&gt;Node16 -->
<g id="edge15" class="edge">
<title>Node5&#45;&gt;Node16</title>
<path fill="none" stroke="midnightblue" d="M615.66,-482.81C624.8,-451.44 658,-351.78 723,-302.5 725.46,-300.64 728.08,-298.96 730.81,-297.44"/>
<polygon fill="midnightblue" stroke="midnightblue" points="732.35,-300.58 739.88,-293.13 729.34,-294.26 732.35,-300.58"/>
</g>
<!-- Node17 -->
<g id="node17" class="node">
<title>Node17</title>
<g id="a_node17"><a xlink:href="../../df/dd0/classNode.html#a84513468a161f558e0722ad6585e7d2e" target="_top" xlink:title=" ">
<polygon fill="none" stroke="black" points="753,-502 753,-521 843,-521 843,-502 753,-502"/>
<text text-anchor="middle" x="798" y="-509" font-family="FreeSans" font-size="10.00">Node::setChisq</text>
</a>
</g>
</g>
<!-- Node5&#45;&gt;Node17 -->
<g id="edge16" class="edge">
<title>Node5&#45;&gt;Node17</title>
<path fill="none" stroke="midnightblue" d="M665.73,-497.94C689.89,-500.44 718.49,-503.39 742.83,-505.91"/>
<polygon fill="midnightblue" stroke="midnightblue" points="742.66,-509.41 752.97,-506.95 743.38,-502.44 742.66,-509.41"/>
</g>
<!-- Node18 -->
<g id="node18" class="node">
<title>Node18</title>
<g id="a_node18"><a xlink:href="../../df/dd0/classNode.html#a4beaaa953c5b36787c115a33b8b22b08" target="_top" xlink:title=" ">
<polygon fill="none" stroke="black" points="741.5,-464 741.5,-483 854.5,-483 854.5,-464 741.5,-464"/>
<text text-anchor="middle" x="798" y="-471" font-family="FreeSans" font-size="10.00">Node::setFilterDone</text>
</a>
</g>
</g>
<!-- Node5&#45;&gt;Node18 -->
<g id="edge17" class="edge">
<title>Node5&#45;&gt;Node18</title>
<path fill="none" stroke="midnightblue" d="M665.73,-487.06C686.17,-484.94 709.8,-482.5 731.33,-480.28"/>
<polygon fill="midnightblue" stroke="midnightblue" points="731.79,-483.75 741.38,-479.24 731.07,-476.79 731.79,-483.75"/>
</g>
<!-- Node19&#45;&gt;Node12 -->
<g id="edge23" class="edge">
<title>Node19&#45;&gt;Node12</title>
<path fill="none" stroke="midnightblue" d="M659.43,-293.09C684.15,-298.19 714.74,-304.51 740.79,-309.89"/>
<polygon fill="midnightblue" stroke="midnightblue" points="740.4,-313.39 750.9,-311.98 741.82,-306.53 740.4,-313.39"/>
</g>
<!-- Node19&#45;&gt;Node16 -->
<g id="edge27" class="edge">
<title>Node19&#45;&gt;Node16</title>
<path fill="none" stroke="midnightblue" d="M671.72,-283.5C687.75,-283.5 705.33,-283.5 722.13,-283.5"/>
<polygon fill="midnightblue" stroke="midnightblue" points="722.46,-287 732.46,-283.5 722.46,-280 722.46,-287"/>
</g>
<!-- Node20 -->
<g id="node20" class="node">
<title>Node20</title>
<g id="a_node20"><a xlink:href="../../d1/d3d/classGenFitExtrapolator.html#a7b1a68079d56beae96151d18c5166526" target="_top" xlink:title=" ">
<polygon fill="none" stroke="black" points="744,-49.5 744,-79.5 852,-79.5 852,-49.5 744,-49.5"/>
<text text-anchor="start" x="752" y="-67.5" font-family="FreeSans" font-size="10.00">GenFitExtrapolator</text>
<text text-anchor="middle" x="798" y="-56.5" font-family="FreeSans" font-size="10.00">::extrapolateTo</text>
</a>
</g>
</g>
<!-- Node19&#45;&gt;Node20 -->
<g id="edge19" class="edge">
<title>Node19&#45;&gt;Node20</title>
<path fill="none" stroke="midnightblue" d="M671.83,-275.21C677.48,-272.51 682.7,-269.01 687,-264.5 741.77,-207.01 670.41,-148.99 723,-89.5 726.45,-85.6 730.53,-82.31 734.97,-79.53"/>
<polygon fill="midnightblue" stroke="midnightblue" points="736.7,-82.57 743.89,-74.79 733.41,-76.39 736.7,-82.57"/>
</g>
<!-- Node21 -->
<g id="node21" class="node">
<title>Node21</title>
<g id="a_node21"><a xlink:href="../../d1/d3d/classGenFitExtrapolator.html#af0f921bf2fe387759c642a9b7c348109" target="_top" xlink:title="Get the final state parameters and covariance.">
<polygon fill="none" stroke="black" points="734,-186.5 734,-216.5 862,-216.5 862,-186.5 734,-186.5"/>
<text text-anchor="start" x="742" y="-204.5" font-family="FreeSans" font-size="10.00">GenFitExtrapolator</text>
<text text-anchor="middle" x="798" y="-193.5" font-family="FreeSans" font-size="10.00">::getFinalStateWithCov</text>
</a>
</g>
</g>
<!-- Node19&#45;&gt;Node21 -->
<g id="edge20" class="edge">
<title>Node19&#45;&gt;Node21</title>
<path fill="none" stroke="midnightblue" d="M665.43,-273.99C672.95,-271.51 680.37,-268.4 687,-264.5 707.05,-252.7 703.4,-239.04 723,-226.5 726.16,-224.48 729.49,-222.61 732.93,-220.87"/>
<polygon fill="midnightblue" stroke="midnightblue" points="734.62,-223.95 742.24,-216.59 731.69,-217.59 734.62,-223.95"/>
</g>
<!-- Node24 -->
<g id="node24" class="node">
<title>Node24</title>
<g id="a_node24"><a xlink:href="../../df/dd0/classNode.html#aea3d844fd090737d8981ac1f6bbca3a7" target="_top" xlink:title=" ">
<polygon fill="none" stroke="black" points="739.5,-578 739.5,-597 856.5,-597 856.5,-578 739.5,-578"/>
<text text-anchor="middle" x="798" y="-585" font-family="FreeSans" font-size="10.00">Node::getPropagator</text>
</a>
</g>
</g>
<!-- Node19&#45;&gt;Node24 -->
<g id="edge24" class="edge">
<title>Node19&#45;&gt;Node24</title>
<path fill="none" stroke="midnightblue" d="M616.88,-293.38C627.93,-321.5 660.47,-404.44 687,-473.5 703.19,-515.65 689.35,-538.39 723,-568.5 725.22,-570.49 727.63,-572.28 730.17,-573.88"/>
<polygon fill="midnightblue" stroke="midnightblue" points="728.75,-577.09 739.23,-578.66 732.01,-570.9 728.75,-577.09"/>
</g>
<!-- Node25 -->
<g id="node25" class="node">
<title>Node25</title>
<g id="a_node25"><a xlink:href="../../d1/d3d/classGenFitExtrapolator.html#ac013889a915dded109c6b9fd236b31dd" target="_top" xlink:title="Get the propagator.">
<polygon fill="none" stroke="black" points="744,-0.5 744,-30.5 852,-30.5 852,-0.5 744,-0.5"/>
<text text-anchor="start" x="752" y="-18.5" font-family="FreeSans" font-size="10.00">GenFitExtrapolator</text>
<text text-anchor="middle" x="798" y="-7.5" font-family="FreeSans" font-size="10.00">::getPropagator</text>
</a>
</g>
</g>
<!-- Node19&#45;&gt;Node25 -->
<g id="edge25" class="edge">
<title>Node19&#45;&gt;Node25</title>
<path fill="none" stroke="midnightblue" d="M671.68,-275.57C677.43,-272.81 682.71,-269.21 687,-264.5 755.22,-189.65 657.15,-116.44 723,-39.5 726.37,-35.56 730.4,-32.26 734.8,-29.5"/>
<polygon fill="midnightblue" stroke="midnightblue" points="736.46,-32.59 743.67,-24.83 733.19,-26.39 736.46,-32.59"/>
</g>
<!-- Node26 -->
<g id="node26" class="node">
<title>Node26</title>
<g id="a_node26"><a xlink:href="../../df/dd0/classNode.html#ab26d80e97604621eab868ebacda71304" target="_top" xlink:title=" ">
<polygon fill="none" stroke="black" points="762.5,-236 762.5,-255 833.5,-255 833.5,-236 762.5,-236"/>
<text text-anchor="middle" x="798" y="-243" font-family="FreeSans" font-size="10.00">Node::getZ</text>
</a>
</g>
</g>
<!-- Node19&#45;&gt;Node26 -->
<g id="edge26" class="edge">
<title>Node19&#45;&gt;Node26</title>
<path fill="none" stroke="midnightblue" d="M659.43,-273.91C687.97,-268.02 724.34,-260.51 752.51,-254.69"/>
<polygon fill="midnightblue" stroke="midnightblue" points="753.41,-258.08 762.49,-252.63 751.99,-251.22 753.41,-258.08"/>
</g>
<!-- Node27 -->
<g id="node27" class="node">
<title>Node27</title>
<g id="a_node27"><a xlink:href="../../d1/d3d/classGenFitExtrapolator.html#af4266f5d426d735721763e75e530cd48" target="_top" xlink:title="Set input initial state parameters.">
<polygon fill="none" stroke="black" points="732,-137.5 732,-167.5 864,-167.5 864,-137.5 732,-137.5"/>
<text text-anchor="start" x="740" y="-155.5" font-family="FreeSans" font-size="10.00">GenFitExtrapolator</text>
<text text-anchor="middle" x="798" y="-144.5" font-family="FreeSans" font-size="10.00">::setInitialStateWithCov</text>
</a>
</g>
</g>
<!-- Node19&#45;&gt;Node27 -->
<g id="edge28" class="edge">
<title>Node19&#45;&gt;Node27</title>
<path fill="none" stroke="midnightblue" d="M671.77,-274.05C677.3,-271.55 682.5,-268.42 687,-264.5 718.86,-236.73 692.02,-205.24 723,-176.5 724.14,-175.44 725.34,-174.42 726.57,-173.45"/>
<polygon fill="midnightblue" stroke="midnightblue" points="728.85,-176.14 735.23,-167.68 724.97,-170.31 728.85,-176.14"/>
</g>
<!-- Node31 -->
<g id="node31" class="node">
<title>Node31</title>
<g id="a_node31"><a xlink:href="../../df/dd0/classNode.html#a10e8167a975add910020702519aaadb0" target="_top" xlink:title=" ">
<polygon fill="none" stroke="black" points="729.5,-99 729.5,-118 866.5,-118 866.5,-99 729.5,-99"/>
<text text-anchor="middle" x="798" y="-106" font-family="FreeSans" font-size="10.00">Node::setPredictionDone</text>
</a>
</g>
</g>
<!-- Node19&#45;&gt;Node31 -->
<g id="edge32" class="edge">
<title>Node19&#45;&gt;Node31</title>
<path fill="none" stroke="midnightblue" d="M671.59,-274.98C677.29,-272.32 682.58,-268.9 687,-264.5 731.64,-220.11 678.36,-171.89 723,-127.5 724.45,-126.06 725.99,-124.73 727.6,-123.49"/>
<polygon fill="midnightblue" stroke="midnightblue" points="729.63,-126.35 736.25,-118.08 725.91,-120.42 729.63,-126.35"/>
</g>
<!-- Node22 -->
<g id="node22" class="node">
<title>Node22</title>
<g id="a_node22"><a xlink:href="../../d1/d3d/classGenFitExtrapolator.html#a555c962eb4a305b009e3a37069a57c63" target="_top" xlink:title=" ">
<polygon fill="none" stroke="black" points="915,-186.5 915,-216.5 1023,-216.5 1023,-186.5 915,-186.5"/>
<text text-anchor="start" x="923" y="-204.5" font-family="FreeSans" font-size="10.00">GenFitExtrapolator</text>
<text text-anchor="middle" x="969" y="-193.5" font-family="FreeSans" font-size="10.00">::convertMPtoSV</text>
</a>
</g>
</g>
<!-- Node21&#45;&gt;Node22 -->
<g id="edge21" class="edge">
<title>Node21&#45;&gt;Node22</title>
<path fill="none" stroke="midnightblue" d="M862.41,-201.5C876.14,-201.5 890.67,-201.5 904.41,-201.5"/>
<polygon fill="midnightblue" stroke="midnightblue" points="904.74,-205 914.74,-201.5 904.74,-198 904.74,-205"/>
</g>
<!-- Node23 -->
<g id="node23" class="node">
<title>Node23</title>
<g id="a_node23"><a xlink:href="../../d1/d3d/classGenFitExtrapolator.html#ad9e40b6808684418add1000bcf45b1c1" target="_top" xlink:title="Tranformation between GenFit and Legacy plane; Abi.">
<polygon fill="none" stroke="black" points="911,-235.5 911,-265.5 1027,-265.5 1027,-235.5 911,-235.5"/>
<text text-anchor="start" x="919" y="-253.5" font-family="FreeSans" font-size="10.00">GenFitExtrapolator</text>
<text text-anchor="middle" x="969" y="-242.5" font-family="FreeSans" font-size="10.00">::TRGENFIT2LEGACY</text>
</a>
</g>
</g>
<!-- Node21&#45;&gt;Node23 -->
<g id="edge22" class="edge">
<title>Node21&#45;&gt;Node23</title>
<path fill="none" stroke="midnightblue" d="M851.08,-216.6C868.6,-221.68 888.29,-227.39 906.46,-232.66"/>
<polygon fill="midnightblue" stroke="midnightblue" points="905.51,-236.03 916.09,-235.45 907.46,-229.3 905.51,-236.03"/>
</g>
<!-- Node28 -->
<g id="node28" class="node">
<title>Node28</title>
<g id="a_node28"><a xlink:href="../../d1/d3d/classGenFitExtrapolator.html#a665990fee41ea5f21f14b8b8be2123e7" target="_top" xlink:title="Transformation between the state vector and the mom/pos.">
<polygon fill="none" stroke="black" points="915,-137.5 915,-167.5 1023,-167.5 1023,-137.5 915,-137.5"/>
<text text-anchor="start" x="923" y="-155.5" font-family="FreeSans" font-size="10.00">GenFitExtrapolator</text>
<text text-anchor="middle" x="969" y="-144.5" font-family="FreeSans" font-size="10.00">::convertSVtoMP</text>
</a>
</g>
</g>
<!-- Node27&#45;&gt;Node28 -->
<g id="edge29" class="edge">
<title>Node27&#45;&gt;Node28</title>
<path fill="none" stroke="midnightblue" d="M864.34,-152.5C877.53,-152.5 891.38,-152.5 904.51,-152.5"/>
<polygon fill="midnightblue" stroke="midnightblue" points="904.86,-156 914.86,-152.5 904.86,-149 904.86,-156"/>
</g>
<!-- Node29 -->
<g id="node29" class="node">
<title>Node29</title>
<g id="a_node29"><a xlink:href="../../d1/d3d/classGenFitExtrapolator.html#a9dac444d8a4c8632bf60968fa5b929c3" target="_top" xlink:title="Set particle type.">
<polygon fill="none" stroke="black" points="915,-39.5 915,-69.5 1023,-69.5 1023,-39.5 915,-39.5"/>
<text text-anchor="start" x="923" y="-57.5" font-family="FreeSans" font-size="10.00">GenFitExtrapolator</text>
<text text-anchor="middle" x="969" y="-46.5" font-family="FreeSans" font-size="10.00">::setParticleType</text>
</a>
</g>
</g>
<!-- Node27&#45;&gt;Node29 -->
<g id="edge30" class="edge">
<title>Node27&#45;&gt;Node29</title>
<path fill="none" stroke="midnightblue" d="M855.77,-137.42C861.86,-134.62 867.75,-131.34 873,-127.5 894.81,-111.55 887.68,-95.11 909,-78.5 910.77,-77.12 912.63,-75.81 914.56,-74.56"/>
<polygon fill="midnightblue" stroke="midnightblue" points="916.42,-77.53 923.35,-69.51 912.93,-71.46 916.42,-77.53"/>
</g>
<!-- Node30 -->
<g id="node30" class="node">
<title>Node30</title>
<g id="a_node30"><a xlink:href="../../d1/d3d/classGenFitExtrapolator.html#ab0965ff56ad1562173d50ab1cc150952" target="_top" xlink:title=" ">
<polygon fill="none" stroke="black" points="911,-88.5 911,-118.5 1027,-118.5 1027,-88.5 911,-88.5"/>
<text text-anchor="start" x="919" y="-106.5" font-family="FreeSans" font-size="10.00">GenFitExtrapolator</text>
<text text-anchor="middle" x="969" y="-95.5" font-family="FreeSans" font-size="10.00">::TRLEGACY2GENFIT</text>
</a>
</g>
</g>
<!-- Node27&#45;&gt;Node30 -->
<g id="edge31" class="edge">
<title>Node27&#45;&gt;Node30</title>
<path fill="none" stroke="midnightblue" d="M851.08,-137.4C868.6,-132.32 888.29,-126.61 906.46,-121.34"/>
<polygon fill="midnightblue" stroke="midnightblue" points="907.46,-124.7 916.09,-118.55 905.51,-117.97 907.46,-124.7"/>
</g>
<!-- Node33&#45;&gt;Node2 -->
<g id="edge35" class="edge">
<title>Node33&#45;&gt;Node2</title>
<path fill="none" stroke="midnightblue" d="M427.91,-362.84C443.98,-348.6 474.9,-321.11 501,-297.5 517.1,-282.94 517.92,-274.84 537,-264.5 541.22,-262.21 545.73,-260.19 550.36,-258.41"/>
<polygon fill="midnightblue" stroke="midnightblue" points="551.68,-261.65 559.98,-255.07 549.39,-255.04 551.68,-261.65"/>
</g>
<!-- Node34&#45;&gt;Node9 -->
<g id="edge37" class="edge">
<title>Node34&#45;&gt;Node9</title>
<path fill="none" stroke="midnightblue" d="M628.87,-805.81C649.78,-793.38 688.04,-771.85 723,-758.5 729.41,-756.05 736.25,-753.82 743.09,-751.81"/>
<polygon fill="midnightblue" stroke="midnightblue" points="744.36,-755.09 753.05,-749.03 742.48,-748.35 744.36,-755.09"/>
</g>
<!-- Node34&#45;&gt;Node15 -->
<g id="edge39" class="edge">
<title>Node34&#45;&gt;Node15</title>
<path fill="none" stroke="midnightblue" d="M659.43,-805.91C684.15,-800.81 714.74,-794.49 740.79,-789.11"/>
<polygon fill="midnightblue" stroke="midnightblue" points="741.82,-792.47 750.9,-787.02 740.4,-785.61 741.82,-792.47"/>
</g>
<!-- Node35 -->
<g id="node35" class="node">
<title>Node35</title>
<g id="a_node35"><a xlink:href="../../df/dd0/classNode.html#a385cbcf82382c3ff0e7d347d6e6d6a77" target="_top" xlink:title=" ">
<polygon fill="none" stroke="black" points="741.5,-844 741.5,-863 854.5,-863 854.5,-844 741.5,-844"/>
<text text-anchor="middle" x="798" y="-851" font-family="FreeSans" font-size="10.00">Node::getSmoothed</text>
</a>
</g>
</g>
<!-- Node34&#45;&gt;Node35 -->
<g id="edge38" class="edge">
<title>Node34&#45;&gt;Node35</title>
<path fill="none" stroke="midnightblue" d="M659.43,-825.09C684.15,-830.19 714.74,-836.51 740.79,-841.89"/>
<polygon fill="midnightblue" stroke="midnightblue" points="740.4,-845.39 750.9,-843.98 741.82,-838.53 740.4,-845.39"/>
</g>
<!-- Node36 -->
<g id="node36" class="node">
<title>Node36</title>
<g id="a_node36"><a xlink:href="../../df/dd0/classNode.html#a71252a4e306e228893a72484837ac8d1" target="_top" xlink:title=" ">
<polygon fill="none" stroke="black" points="738.5,-920 738.5,-939 857.5,-939 857.5,-920 738.5,-920"/>
<text text-anchor="middle" x="798" y="-927" font-family="FreeSans" font-size="10.00">Node::isSmoothDone</text>
</a>
</g>
</g>
<!-- Node34&#45;&gt;Node36 -->
<g id="edge40" class="edge">
<title>Node34&#45;&gt;Node36</title>
<path fill="none" stroke="midnightblue" d="M621.33,-825.23C638.4,-844.51 679.4,-887.7 723,-910.5 727.51,-912.86 732.34,-914.94 737.27,-916.77"/>
<polygon fill="midnightblue" stroke="midnightblue" points="736.27,-920.12 746.87,-919.99 738.5,-913.49 736.27,-920.12"/>
</g>
<!-- Node37 -->
<g id="node37" class="node">
<title>Node37</title>
<g id="a_node37"><a xlink:href="../../df/dd0/classNode.html#acd87507e822cf12e56a26c23064af5fe" target="_top" xlink:title=" ">
<polygon fill="none" stroke="black" points="735,-882 735,-901 861,-901 861,-882 735,-882"/>
<text text-anchor="middle" x="798" y="-889" font-family="FreeSans" font-size="10.00">Node::setSmoothDone</text>
</a>
</g>
</g>
<!-- Node34&#45;&gt;Node37 -->
<g id="edge41" class="edge">
<title>Node34&#45;&gt;Node37</title>
<path fill="none" stroke="midnightblue" d="M628.87,-825.19C649.78,-837.62 688.04,-859.15 723,-872.5 729.41,-874.95 736.25,-877.18 743.09,-879.19"/>
<polygon fill="midnightblue" stroke="midnightblue" points="742.48,-882.65 753.05,-881.97 744.36,-875.91 742.48,-882.65"/>
</g>
<!-- Node38&#45;&gt;Node9 -->
<g id="edge43" class="edge">
<title>Node38&#45;&gt;Node9</title>
<path fill="none" stroke="midnightblue" d="M616.25,-559.04C626.71,-588.17 662.32,-676.7 723,-720.5 727.5,-723.75 732.51,-726.45 737.74,-728.68"/>
<polygon fill="midnightblue" stroke="midnightblue" points="736.74,-732.04 747.34,-732.23 739.17,-725.48 736.74,-732.04"/>
</g>
<!-- Node39&#45;&gt;Node2 -->
<g id="edge45" class="edge">
<title>Node39&#45;&gt;Node2</title>
<path fill="none" stroke="midnightblue" d="M468.79,-414.48C480.74,-408.92 492.43,-401.44 501,-391.5 539.29,-347.05 495,-305.47 537,-264.5 538.46,-263.08 540.01,-261.75 541.64,-260.53"/>
<polygon fill="midnightblue" stroke="midnightblue" points="543.66,-263.39 550.32,-255.16 539.98,-257.44 543.66,-263.39"/>
</g>
<!-- Node39&#45;&gt;Node38 -->
<g id="edge46" class="edge">
<title>Node39&#45;&gt;Node38</title>
<path fill="none" stroke="midnightblue" d="M484.28,-444.61C490.22,-447.38 495.91,-450.64 501,-454.5 524.88,-472.59 514.89,-491.28 537,-511.5 547.98,-521.54 562.1,-529.65 575.06,-535.76"/>
<polygon fill="midnightblue" stroke="midnightblue" points="573.67,-538.98 584.23,-539.86 576.53,-532.59 573.67,-538.98"/>
</g>
<!-- Node40&#45;&gt;Node6 -->
<g id="edge48" class="edge">
<title>Node40&#45;&gt;Node6</title>
<path fill="none" stroke="midnightblue" d="M659.43,-729.91C684.15,-724.81 714.74,-718.49 740.79,-713.11"/>
<polygon fill="midnightblue" stroke="midnightblue" points="741.82,-716.47 750.9,-711.02 740.4,-709.61 741.82,-716.47"/>
</g>
<!-- Node40&#45;&gt;Node9 -->
<g id="edge51" class="edge">
<title>Node40&#45;&gt;Node9</title>
<path fill="none" stroke="midnightblue" d="M673.25,-739.5C693.78,-739.5 716.72,-739.5 737.21,-739.5"/>
<polygon fill="midnightblue" stroke="midnightblue" points="737.37,-743 747.37,-739.5 737.37,-736 737.37,-743"/>
</g>
<!-- Node40&#45;&gt;Node12 -->
<g id="edge52" class="edge">
<title>Node40&#45;&gt;Node12</title>
<path fill="none" stroke="midnightblue" d="M618.24,-729.8C631.83,-704.22 668.42,-632.5 687,-568.5 715.6,-469.98 653.97,-416.39 723,-340.5 726.1,-337.1 729.71,-334.27 733.65,-331.92"/>
<polygon fill="midnightblue" stroke="midnightblue" points="735.25,-335.03 742.71,-327.5 732.18,-328.74 735.25,-335.03"/>
</g>
<!-- Node40&#45;&gt;Node15 -->
<g id="edge55" class="edge">
<title>Node40&#45;&gt;Node15</title>
<path fill="none" stroke="midnightblue" d="M659.43,-749.09C684.15,-754.19 714.74,-760.51 740.79,-765.89"/>
<polygon fill="midnightblue" stroke="midnightblue" points="740.4,-769.39 750.9,-767.98 741.82,-762.53 740.4,-769.39"/>
</g>
<!-- Node40&#45;&gt;Node24 -->
<g id="edge53" class="edge">
<title>Node40&#45;&gt;Node24</title>
<path fill="none" stroke="midnightblue" d="M618.18,-729.69C631.8,-704.9 671.14,-639.42 723,-606.5 726.37,-604.36 729.97,-602.46 733.69,-600.78"/>
<polygon fill="midnightblue" stroke="midnightblue" points="735.17,-603.96 743.17,-597.02 732.58,-597.45 735.17,-603.96"/>
</g>
<!-- Node40&#45;&gt;Node35 -->
<g id="edge54" class="edge">
<title>Node40&#45;&gt;Node35</title>
<path fill="none" stroke="midnightblue" d="M626.88,-749.19C642.14,-760.07 667.14,-778.57 687,-796.5 704.27,-812.09 702.95,-822.7 723,-834.5 726.83,-836.76 730.93,-838.75 735.16,-840.5"/>
<polygon fill="midnightblue" stroke="midnightblue" points="733.98,-843.8 744.57,-843.99 736.41,-837.23 733.98,-843.8"/>
</g>
<!-- Node40&#45;&gt;Node36 -->
<g id="edge56" class="edge">
<title>Node40&#45;&gt;Node36</title>
<path fill="none" stroke="midnightblue" d="M631.1,-749.12C647.88,-758.92 672.41,-775.63 687,-796.5 717.45,-840.05 684.42,-873.97 723,-910.5 724.94,-912.34 727.03,-914 729.24,-915.51"/>
<polygon fill="midnightblue" stroke="midnightblue" points="727.82,-918.73 738.25,-920.59 731.26,-912.63 727.82,-918.73"/>
</g>
<!-- Node40&#45;&gt;Node37 -->
<g id="edge57" class="edge">
<title>Node40&#45;&gt;Node37</title>
<path fill="none" stroke="midnightblue" d="M629.54,-749.01C645.88,-759.08 670.72,-776.3 687,-796.5 710.46,-825.6 694.17,-848.71 723,-872.5 725.06,-874.2 727.25,-875.75 729.54,-877.16"/>
<polygon fill="midnightblue" stroke="midnightblue" points="728.32,-880.47 738.81,-881.96 731.54,-874.25 728.32,-880.47"/>
</g>
<!-- Node41 -->
<g id="node41" class="node">
<title>Node41</title>
<g id="a_node41"><a xlink:href="../../d9/db7/classSMatrix.html#a0209d8bd6c377b460a9cda4bc134b37d" target="_top" xlink:title=" ">
<polygon fill="none" stroke="black" points="740.5,-806 740.5,-825 855.5,-825 855.5,-806 740.5,-806"/>
<text text-anchor="middle" x="798" y="-813" font-family="FreeSans" font-size="10.00">SMatrix::getABtCinv</text>
</a>
</g>
</g>
<!-- Node40&#45;&gt;Node41 -->
<g id="edge49" class="edge">
<title>Node40&#45;&gt;Node41</title>
<path fill="none" stroke="midnightblue" d="M628.87,-749.19C649.78,-761.62 688.04,-783.15 723,-796.5 729.41,-798.95 736.25,-801.18 743.09,-803.19"/>
<polygon fill="midnightblue" stroke="midnightblue" points="742.48,-806.65 753.05,-805.97 744.36,-799.91 742.48,-806.65"/>
</g>
<!-- Node41&#45;&gt;Node14 -->
<g id="edge50" class="edge">
<title>Node41&#45;&gt;Node14</title>
<path fill="none" stroke="midnightblue" d="M855.81,-806.11C861.97,-803.62 867.86,-800.47 873,-796.5 924.64,-756.62 952.28,-680.29 962.85,-644.68"/>
<polygon fill="midnightblue" stroke="midnightblue" points="966.23,-645.59 965.6,-635.02 959.5,-643.68 966.23,-645.59"/>
</g>
<!-- Node43&#45;&gt;Node2 -->
<g id="edge60" class="edge">
<title>Node43&#45;&gt;Node2</title>
<path fill="none" stroke="midnightblue" d="M295.03,-230.01C361.52,-233.27 460.46,-238.12 529.87,-241.52"/>
<polygon fill="midnightblue" stroke="midnightblue" points="529.73,-245.02 539.89,-242.01 530.08,-238.03 529.73,-245.02"/>
</g>
<!-- Node44 -->
<g id="node44" class="node">
<title>Node44</title>
<g id="a_node44"><a xlink:href="../../d9/dc3/classKalmanTrack.html#a864c3756a797ab658515bbc1c8206633" target="_top" xlink:title="set the current track parameter">
<polygon fill="none" stroke="black" points="340.5,-198 340.5,-217 491.5,-217 491.5,-198 340.5,-198"/>
<text text-anchor="middle" x="416" y="-205" font-family="FreeSans" font-size="10.00">KalmanTrack::setCurrTrkpar</text>
</a>
</g>
</g>
<!-- Node43&#45;&gt;Node44 -->
<g id="edge61" class="edge">
<title>Node43&#45;&gt;Node44</title>
<path fill="none" stroke="midnightblue" d="M295.08,-219.4C306.5,-218.26 318.41,-217.08 330.11,-215.92"/>
<polygon fill="midnightblue" stroke="midnightblue" points="330.7,-219.38 340.31,-214.91 330.01,-212.42 330.7,-219.38"/>
</g>
<!-- Node45 -->
<g id="node45" class="node">
<title>Node45</title>
<g id="a_node45"><a xlink:href="../../d9/dc3/classKalmanTrack.html#aaddc487a3a842187cd421c3cff2f665e" target="_top" xlink:title="Update the track status.">
<polygon fill="none" stroke="black" points="356.5,-160 356.5,-179 475.5,-179 475.5,-160 356.5,-160"/>
<text text-anchor="middle" x="416" y="-167" font-family="FreeSans" font-size="10.00">KalmanTrack::update</text>
</a>
</g>
</g>
<!-- Node43&#45;&gt;Node45 -->
<g id="edge62" class="edge">
<title>Node43&#45;&gt;Node45</title>
<path fill="none" stroke="midnightblue" d="M248,-216.91C269.61,-208.68 302.09,-196.85 331,-188.5 339.76,-185.97 349.1,-183.57 358.27,-181.38"/>
<polygon fill="midnightblue" stroke="midnightblue" points="359.15,-184.77 368.1,-179.09 357.57,-177.95 359.15,-184.77"/>
</g>
</g>
</svg>
