<?xml version="1.0" encoding="UTF-8" standalone="no"?>
<!DOCTYPE svg PUBLIC "-//W3C//DTD SVG 1.1//EN"
 "http://www.w3.org/Graphics/SVG/1.1/DTD/svg11.dtd">
<!-- Generated by graphviz version 2.40.1 (20161225.0304)
 -->
<!-- Title: KalmanFastTracking::fitTrack Pages: 1 -->
<svg width="683pt" height="203pt"
 viewBox="0.00 0.00 683.00 203.00" xmlns="http://www.w3.org/2000/svg" xmlns:xlink="http://www.w3.org/1999/xlink">
<g id="graph0" class="graph" transform="scale(1 1) rotate(0) translate(4 199)">
<title>KalmanFastTracking::fitTrack</title>
<!-- Node425 -->
<g id="node1" class="node">
<title>Node425</title>
<polygon fill="#bfbfbf" stroke="#000000" points="0,-44.5 0,-74.5 106,-74.5 106,-44.5 0,-44.5"/>
<text text-anchor="start" x="8" y="-62.5" font-family="FreeSans" font-size="10.00" fill="#000000">KalmanFastTracking</text>
<text text-anchor="middle" x="53" y="-51.5" font-family="FreeSans" font-size="10.00" fill="#000000">::fitTrack</text>
</g>
<!-- Node426 -->
<g id="node2" class="node">
<title>Node426</title>
<g id="a_node2"><a xlink:href="../../d3/d46/classKalmanFastTracking.html#ac0b6441647d023db04c618a35fd2a8cd" target="_top" xlink:title="Track fitting stuff. ">
<polygon fill="none" stroke="#000000" points="142,-104.5 142,-134.5 249,-134.5 249,-104.5 142,-104.5"/>
<text text-anchor="start" x="150" y="-122.5" font-family="FreeSans" font-size="10.00" fill="#000000">KalmanFastTracking</text>
<text text-anchor="middle" x="195.5" y="-111.5" font-family="FreeSans" font-size="10.00" fill="#000000">::processOneTracklet</text>
</a>
</g>
</g>
<!-- Node425&#45;&gt;Node426 -->
<g id="edge1" class="edge">
<title>Node425&#45;&gt;Node426</title>
<path fill="none" stroke="#191970" d="M98.3834,-78.6088C118.1502,-86.9317 140.9903,-96.5486 159.5527,-104.3643"/>
<polygon fill="#191970" stroke="#191970" points="99.5333,-75.2954 88.9588,-74.6405 96.8169,-81.7469 99.5333,-75.2954"/>
</g>
<!-- Node428 -->
<g id="node4" class="node">
<title>Node428</title>
<g id="a_node4"><a xlink:href="../../d3/d46/classKalmanFastTracking.html#a781b1f748675c43dd56967604c461e59" target="_top" xlink:title="KalmanFastTracking\l::Verbosity">
<polygon fill="none" stroke="#000000" points="569,-104.5 569,-134.5 675,-134.5 675,-104.5 569,-104.5"/>
<text text-anchor="start" x="577" y="-122.5" font-family="FreeSans" font-size="10.00" fill="#000000">KalmanFastTracking</text>
<text text-anchor="middle" x="622" y="-111.5" font-family="FreeSans" font-size="10.00" fill="#000000">::Verbosity</text>
</a>
</g>
</g>
<!-- Node425&#45;&gt;Node428 -->
<g id="edge9" class="edge">
<title>Node425&#45;&gt;Node428</title>
<path fill="none" stroke="#191970" d="M116.2368,-66.1682C229.2102,-78.081 463.7071,-102.8083 568.9081,-113.9016"/>
<polygon fill="#191970" stroke="#191970" points="116.3311,-62.6588 106.0192,-65.0908 115.597,-69.6202 116.3311,-62.6588"/>
</g>
<!-- Node430 -->
<g id="node6" class="node">
<title>Node430</title>
<g id="a_node6"><a xlink:href="../../d3/d46/classKalmanFastTracking.html#a3d3ef7a6aeb00056e003e98564e45b65" target="_top" xlink:title="KalmanFastTracking\l::resolveLeftRight">
<polygon fill="none" stroke="#000000" points="142.5,-.5 142.5,-30.5 248.5,-30.5 248.5,-.5 142.5,-.5"/>
<text text-anchor="start" x="150.5" y="-18.5" font-family="FreeSans" font-size="10.00" fill="#000000">KalmanFastTracking</text>
<text text-anchor="middle" x="195.5" y="-7.5" font-family="FreeSans" font-size="10.00" fill="#000000">::resolveLeftRight</text>
</a>
</g>
</g>
<!-- Node425&#45;&gt;Node430 -->
<g id="edge8" class="edge">
<title>Node425&#45;&gt;Node430</title>
<path fill="none" stroke="#191970" d="M111.3373,-41.4871C123.049,-37.8708 135.2422,-34.1059 146.5936,-30.6009"/>
<polygon fill="#191970" stroke="#191970" points="110.1641,-38.1862 101.6419,-44.4808 112.2294,-44.8746 110.1641,-38.1862"/>
</g>
<!-- Node427 -->
<g id="node3" class="node">
<title>Node427</title>
<g id="a_node3"><a xlink:href="../../d3/d46/classKalmanFastTracking.html#ada493cf8d995c42b9e78a53b891ce72b" target="_top" xlink:title="KalmanFastTracking\l::setRawEvent">
<polygon fill="none" stroke="#000000" points="427,-126.5 427,-156.5 533,-156.5 533,-126.5 427,-126.5"/>
<text text-anchor="start" x="435" y="-144.5" font-family="FreeSans" font-size="10.00" fill="#000000">KalmanFastTracking</text>
<text text-anchor="middle" x="480" y="-133.5" font-family="FreeSans" font-size="10.00" fill="#000000">::setRawEvent</text>
</a>
</g>
</g>
<!-- Node426&#45;&gt;Node427 -->
<g id="edge2" class="edge">
<title>Node426&#45;&gt;Node427</title>
<path fill="none" stroke="#191970" d="M259.1479,-124.4218C309.5768,-128.3214 379.2163,-133.7065 426.7277,-137.3805"/>
<polygon fill="#191970" stroke="#191970" points="259.2524,-120.9195 249.0123,-123.638 258.7126,-127.8987 259.2524,-120.9195"/>
</g>
<!-- Node426&#45;&gt;Node428 -->
<g id="edge7" class="edge">
<title>Node426&#45;&gt;Node428</title>
<path fill="none" stroke="#191970" d="M259.3887,-117.9537C327.2634,-116.5401 437.7068,-114.8944 533,-116.5 544.5935,-116.6953 557.0328,-117.0337 568.8274,-117.4145"/>
<polygon fill="#191970" stroke="#191970" points="259.2031,-114.4568 249.28,-118.1691 259.3523,-121.4552 259.2031,-114.4568"/>
</g>
<!-- Node429 -->
<g id="node5" class="node">
<title>Node429</title>
<g id="a_node5"><a xlink:href="../../d3/d46/classKalmanFastTracking.html#a53c93bc5e58b3560d1cfb42e84bbe95c" target="_top" xlink:title="KalmanFastTracking\l::buildGlobalTracks">
<polygon fill="none" stroke="#000000" points="285,-164.5 285,-194.5 391,-194.5 391,-164.5 285,-164.5"/>
<text text-anchor="start" x="293" y="-182.5" font-family="FreeSans" font-size="10.00" fill="#000000">KalmanFastTracking</text>
<text text-anchor="middle" x="338" y="-171.5" font-family="FreeSans" font-size="10.00" fill="#000000">::buildGlobalTracks</text>
</a>
</g>
</g>
<!-- Node426&#45;&gt;Node429 -->
<g id="edge4" class="edge">
<title>Node426&#45;&gt;Node429</title>
<path fill="none" stroke="#191970" d="M240.8834,-138.6088C260.6502,-146.9317 283.4903,-156.5486 302.0527,-164.3643"/>
<polygon fill="#191970" stroke="#191970" points="242.0333,-135.2954 231.4588,-134.6405 239.3169,-141.7469 242.0333,-135.2954"/>
</g>
<!-- Node427&#45;&gt;Node428 -->
<g id="edge3" class="edge">
<title>Node427&#45;&gt;Node428</title>
<path fill="none" stroke="#191970" d="M543.2378,-131.7026C551.8064,-130.3751 560.5275,-129.0239 568.8941,-127.7277"/>
<polygon fill="#191970" stroke="#191970" points="542.6258,-128.2556 533.2796,-133.2454 543.6976,-135.173 542.6258,-128.2556"/>
</g>
<!-- Node429&#45;&gt;Node427 -->
<g id="edge5" class="edge">
<title>Node429&#45;&gt;Node427</title>
<path fill="none" stroke="#191970" d="M400.9584,-162.652C409.6167,-160.335 418.4366,-157.9747 426.8941,-155.7114"/>
<polygon fill="#191970" stroke="#191970" points="400.0348,-159.2759 391.2796,-165.2421 401.8445,-166.038 400.0348,-159.2759"/>
</g>
<!-- Node429&#45;&gt;Node428 -->
<g id="edge6" class="edge">
<title>Node429&#45;&gt;Node428</title>
<path fill="none" stroke="#191970" d="M401.248,-181.8995C439.9717,-181.7544 490.1494,-178.6466 533,-166.5 557.2082,-159.6379 582.3423,-145.6245 599.7011,-134.6763"/>
<polygon fill="#191970" stroke="#191970" points="401.1642,-178.3993 391.1546,-181.8717 401.1449,-185.3993 401.1642,-178.3993"/>
</g>
</g>
</svg>
