<?xml version="1.0" encoding="UTF-8" standalone="no"?>
<!DOCTYPE svg PUBLIC "-//W3C//DTD SVG 1.1//EN"
 "http://www.w3.org/Graphics/SVG/1.1/DTD/svg11.dtd">
<!-- Generated by graphviz version 2.36.0 (20140111.2315)
 -->
<!-- Title: KalmanFastTracking::getExtrapoWindowsInSt1 Pages: 1 -->
<svg width="458pt" height="218pt"
 viewBox="0.00 0.00 458.00 218.00" xmlns="http://www.w3.org/2000/svg" xmlns:xlink="http://www.w3.org/1999/xlink">
<g id="graph0" class="graph" transform="scale(1 1) rotate(0) translate(4 214)">
<title>KalmanFastTracking::getExtrapoWindowsInSt1</title>
<!-- Node1 -->
<g id="node1" class="node"><title>Node1</title>
<polygon fill="#bfbfbf" stroke="black" points="0,-90 0,-120 130,-120 130,-90 0,-90"/>
<text text-anchor="start" x="8" y="-108" font-family="FreeSans" font-size="10.00">KalmanFastTracking</text>
<text text-anchor="middle" x="65" y="-97" font-family="FreeSans" font-size="10.00">::getExtrapoWindowsInSt1</text>
</g>
<!-- Node2 -->
<g id="node2" class="node"><title>Node2</title>
<g id="a_node2"><a xlink:href="../../d2/d26/classTracklet.html#ad25a91b7c2a619e3b9a59358626b181b" target="_top" xlink:title="Tracklet::getExpPosErrorX">
<polygon fill="none" stroke="black" points="174,-190.5 174,-209.5 304,-209.5 304,-190.5 174,-190.5"/>
<text text-anchor="middle" x="239" y="-197.5" font-family="FreeSans" font-size="10.00">Tracklet::getExpPosErrorX</text>
</a>
</g>
</g>
<!-- Node1&#45;&gt;Node2 -->
<g id="edge1" class="edge"><title>Node1&#45;&gt;Node2</title>
<path fill="none" stroke="midnightblue" d="M81.6541,-120.073C100.298,-137.225 133.076,-164.936 166,-181 170.865,-183.374 176.065,-185.48 181.361,-187.341"/>
<polygon fill="midnightblue" stroke="midnightblue" points="180.351,-190.693 190.943,-190.434 182.501,-184.031 180.351,-190.693"/>
</g>
<!-- Node3 -->
<g id="node3" class="node"><title>Node3</title>
<g id="a_node3"><a xlink:href="../../d2/d26/classTracklet.html#ae1ac06ed407411fa5aedd42e5ca1d710" target="_top" xlink:title="Tracklet::getExpPosErrorY">
<polygon fill="none" stroke="black" points="174,-152.5 174,-171.5 304,-171.5 304,-152.5 174,-152.5"/>
<text text-anchor="middle" x="239" y="-159.5" font-family="FreeSans" font-size="10.00">Tracklet::getExpPosErrorY</text>
</a>
</g>
</g>
<!-- Node1&#45;&gt;Node3 -->
<g id="edge2" class="edge"><title>Node1&#45;&gt;Node3</title>
<path fill="none" stroke="midnightblue" d="M102.714,-120.012C121.481,-127.414 144.779,-136.189 166,-143 173.443,-145.389 181.387,-147.71 189.181,-149.861"/>
<polygon fill="midnightblue" stroke="midnightblue" points="188.356,-153.263 198.922,-152.487 190.178,-146.504 188.356,-153.263"/>
</g>
<!-- Node4 -->
<g id="node4" class="node"><title>Node4</title>
<g id="a_node4"><a xlink:href="../../d2/d26/classTracklet.html#a34dc65d53a8d13dd4f2cf35ee7f24573" target="_top" xlink:title="Tracklet::getExpPositionX">
<polygon fill="none" stroke="black" points="175,-114.5 175,-133.5 303,-133.5 303,-114.5 175,-114.5"/>
<text text-anchor="middle" x="239" y="-121.5" font-family="FreeSans" font-size="10.00">Tracklet::getExpPositionX</text>
</a>
</g>
</g>
<!-- Node1&#45;&gt;Node4 -->
<g id="edge3" class="edge"><title>Node1&#45;&gt;Node4</title>
<path fill="none" stroke="midnightblue" d="M130.046,-112.075C141.349,-113.323 153.194,-114.632 164.726,-115.906"/>
<polygon fill="midnightblue" stroke="midnightblue" points="164.435,-119.395 174.759,-117.014 165.204,-112.437 164.435,-119.395"/>
</g>
<!-- Node6 -->
<g id="node6" class="node"><title>Node6</title>
<g id="a_node6"><a xlink:href="../../d2/d26/classTracklet.html#acfa229de89a95c51f515f9fec5763108" target="_top" xlink:title="Tracklet::getExpPositionY">
<polygon fill="none" stroke="black" points="175,-76.5 175,-95.5 303,-95.5 303,-76.5 175,-76.5"/>
<text text-anchor="middle" x="239" y="-83.5" font-family="FreeSans" font-size="10.00">Tracklet::getExpPositionY</text>
</a>
</g>
</g>
<!-- Node1&#45;&gt;Node6 -->
<g id="edge5" class="edge"><title>Node1&#45;&gt;Node6</title>
<path fill="none" stroke="midnightblue" d="M130.046,-97.9251C141.349,-96.6766 153.194,-95.3682 164.726,-94.0942"/>
<polygon fill="midnightblue" stroke="midnightblue" points="165.204,-97.5629 174.759,-92.986 164.435,-90.6052 165.204,-97.5629"/>
</g>
<!-- Node7 -->
<g id="node7" class="node"><title>Node7</title>
<g id="a_node7"><a xlink:href="../../d0/da0/classGeomSvc.html#ac22b1c50a84423eb7aa7792595c2fca1" target="_top" xlink:title="GeomSvc::getPlaneType">
<polygon fill="none" stroke="black" points="177,-38.5 177,-57.5 301,-57.5 301,-38.5 177,-38.5"/>
<text text-anchor="middle" x="239" y="-45.5" font-family="FreeSans" font-size="10.00">GeomSvc::getPlaneType</text>
</a>
</g>
</g>
<!-- Node1&#45;&gt;Node7 -->
<g id="edge6" class="edge"><title>Node1&#45;&gt;Node7</title>
<path fill="none" stroke="midnightblue" d="M102.714,-89.9878C121.481,-82.5863 144.779,-73.811 166,-67 173.443,-64.611 181.387,-62.2905 189.181,-60.1394"/>
<polygon fill="midnightblue" stroke="midnightblue" points="190.178,-63.4956 198.922,-57.513 188.356,-56.7369 190.178,-63.4956"/>
</g>
<!-- Node8 -->
<g id="node8" class="node"><title>Node8</title>
<g id="a_node8"><a xlink:href="../../d0/da0/classGeomSvc.html#ad3634b2f30bd7d95b2c1e4b7061fbfd0" target="_top" xlink:title="GeomSvc::getUinStereoPlane">
<polygon fill="none" stroke="black" points="166,-0.5 166,-19.5 312,-19.5 312,-0.5 166,-0.5"/>
<text text-anchor="middle" x="239" y="-7.5" font-family="FreeSans" font-size="10.00">GeomSvc::getUinStereoPlane</text>
</a>
</g>
</g>
<!-- Node1&#45;&gt;Node8 -->
<g id="edge7" class="edge"><title>Node1&#45;&gt;Node8</title>
<path fill="none" stroke="midnightblue" d="M81.6541,-89.9274C100.298,-72.7747 133.076,-45.0644 166,-29 170.865,-26.6261 176.065,-24.5205 181.361,-22.6588"/>
<polygon fill="midnightblue" stroke="midnightblue" points="182.501,-25.9685 190.943,-19.5661 180.351,-19.3069 182.501,-25.9685"/>
</g>
<!-- Node5 -->
<g id="node5" class="node"><title>Node5</title>
<g id="a_node5"><a xlink:href="../../d2/d26/classTracklet.html#a1f2be06375c110356dabc35f1033ea73" target="_top" xlink:title="Tracklet::getCharge">
<polygon fill="none" stroke="black" points="348.5,-114.5 348.5,-133.5 449.5,-133.5 449.5,-114.5 348.5,-114.5"/>
<text text-anchor="middle" x="399" y="-121.5" font-family="FreeSans" font-size="10.00">Tracklet::getCharge</text>
</a>
</g>
</g>
<!-- Node4&#45;&gt;Node5 -->
<g id="edge4" class="edge"><title>Node4&#45;&gt;Node5</title>
<path fill="none" stroke="midnightblue" d="M303.354,-124C314.792,-124 326.685,-124 338.022,-124"/>
<polygon fill="midnightblue" stroke="midnightblue" points="338.248,-127.5 348.248,-124 338.248,-120.5 338.248,-127.5"/>
</g>
<!-- Node9 -->
<g id="node9" class="node"><title>Node9</title>
<g id="a_node9"><a xlink:href="../../dc/d90/classPlane.html#a48ab3a309bee8c386464b36a7593df16" target="_top" xlink:title="Plane::getW">
<polygon fill="none" stroke="black" points="365,-0.5 365,-19.5 433,-19.5 433,-0.5 365,-0.5"/>
<text text-anchor="middle" x="399" y="-7.5" font-family="FreeSans" font-size="10.00">Plane::getW</text>
</a>
</g>
</g>
<!-- Node8&#45;&gt;Node9 -->
<g id="edge8" class="edge"><title>Node8&#45;&gt;Node9</title>
<path fill="none" stroke="midnightblue" d="M312.065,-10C326.578,-10 341.407,-10 354.57,-10"/>
<polygon fill="midnightblue" stroke="midnightblue" points="354.732,-13.5001 364.732,-10 354.732,-6.5001 354.732,-13.5001"/>
</g>
</g>
</svg>
