<?xml version="1.0" encoding="UTF-8" standalone="no"?>
<!DOCTYPE svg PUBLIC "-//W3C//DTD SVG 1.1//EN"
 "http://www.w3.org/Graphics/SVG/1.1/DTD/svg11.dtd">
<!-- Generated by graphviz version 2.30.1 (20200930.0103)
 -->
<!-- Title: /dev/shm/kenichi/update&#45;github&#45;e1039&#45;doc/e1039&#45;core/framework/fun4all/Fun4AllOutputManager.h Pages: 1 -->
<svg width="1509pt" height="332pt"
 viewBox="0.00 0.00 1509.00 332.00" xmlns="http://www.w3.org/2000/svg" xmlns:xlink="http://www.w3.org/1999/xlink">
<g id="graph0" class="graph" transform="scale(1 1) rotate(0) translate(4 328)">
<title>/dev/shm/kenichi/update&#45;github&#45;e1039&#45;doc/e1039&#45;core/framework/fun4all/Fun4AllOutputManager.h</title>
<!-- Node1 -->
<g id="node1" class="node"><title>Node1</title>
<polygon fill="#bfbfbf" stroke="black" points="764.5,-271 764.5,-323 891.5,-323 891.5,-271 764.5,-271"/>
<text text-anchor="start" x="772.5" y="-311" font-family="FreeSans" font-size="10.00">/dev/shm/kenichi/update</text>
<text text-anchor="start" x="772.5" y="-300" font-family="FreeSans" font-size="10.00">&#45;github&#45;e1039&#45;doc/e1039</text>
<text text-anchor="start" x="772.5" y="-289" font-family="FreeSans" font-size="10.00">&#45;core/framework/fun4all</text>
<text text-anchor="middle" x="828" y="-278" font-family="FreeSans" font-size="10.00">/Fun4AllOutputManager.h</text>
</g>
<!-- Node2 -->
<g id="node2" class="node"><title>Node2</title>
<g id="a_node2"><a xlink:href="../../db/d22/Fun4AllDstOutputManager_8h.html" target="_top" xlink:title="/dev/shm/kenichi/update\l&#45;github&#45;e1039&#45;doc/e1039\l&#45;core/framework/fun4all\l/Fun4AllDstOutputManager.h">
<polygon fill="none" stroke="black" points="210.5,-181 210.5,-233 351.5,-233 351.5,-181 210.5,-181"/>
<text text-anchor="start" x="218.5" y="-221" font-family="FreeSans" font-size="10.00">/dev/shm/kenichi/update</text>
<text text-anchor="start" x="218.5" y="-210" font-family="FreeSans" font-size="10.00">&#45;github&#45;e1039&#45;doc/e1039</text>
<text text-anchor="start" x="218.5" y="-199" font-family="FreeSans" font-size="10.00">&#45;core/framework/fun4all</text>
<text text-anchor="middle" x="281" y="-188" font-family="FreeSans" font-size="10.00">/Fun4AllDstOutputManager.h</text>
</a>
</g>
</g>
<!-- Node1&#45;&gt;Node2 -->
<g id="edge1" class="edge"><title>Node1&#45;&gt;Node2</title>
<path fill="none" stroke="midnightblue" d="M754.22,-284.416C675.777,-272.066 548.101,-251.868 438,-234 409.774,-229.419 378.709,-224.293 351.714,-219.81"/>
<polygon fill="midnightblue" stroke="midnightblue" points="754.059,-287.934 764.482,-286.031 755.148,-281.019 754.059,-287.934"/>
</g>
<!-- Node7 -->
<g id="node7" class="node"><title>Node7</title>
<g id="a_node7"><a xlink:href="../../da/d34/Fun4AllEventOutputManager_8h.html" target="_top" xlink:title="/dev/shm/kenichi/update\l&#45;github&#45;e1039&#45;doc/e1039\l&#45;core/framework/fun4all\l/Fun4AllEventOutputManager.h">
<polygon fill="none" stroke="black" points="514.5,-181 514.5,-233 665.5,-233 665.5,-181 514.5,-181"/>
<text text-anchor="start" x="522.5" y="-221" font-family="FreeSans" font-size="10.00">/dev/shm/kenichi/update</text>
<text text-anchor="start" x="522.5" y="-210" font-family="FreeSans" font-size="10.00">&#45;github&#45;e1039&#45;doc/e1039</text>
<text text-anchor="start" x="522.5" y="-199" font-family="FreeSans" font-size="10.00">&#45;core/framework/fun4all</text>
<text text-anchor="middle" x="590" y="-188" font-family="FreeSans" font-size="10.00">/Fun4AllEventOutputManager.h</text>
</a>
</g>
</g>
<!-- Node1&#45;&gt;Node7 -->
<g id="edge6" class="edge"><title>Node1&#45;&gt;Node7</title>
<path fill="none" stroke="midnightblue" d="M754.785,-268.929C723.843,-257.488 688.027,-244.245 657.706,-233.034"/>
<polygon fill="midnightblue" stroke="midnightblue" points="753.627,-272.232 764.22,-272.418 756.055,-265.667 753.627,-272.232"/>
</g>
<!-- Node10 -->
<g id="node10" class="node"><title>Node10</title>
<g id="a_node10"><a xlink:href="../../db/dfa/Fun4AllOutputManager_8cc.html" target="_top" xlink:title="/dev/shm/kenichi/update\l&#45;github&#45;e1039&#45;doc/e1039\l&#45;core/framework/fun4all\l/Fun4AllOutputManager.cc">
<polygon fill="none" stroke="black" points="684,-181 684,-233 816,-233 816,-181 684,-181"/>
<text text-anchor="start" x="692" y="-221" font-family="FreeSans" font-size="10.00">/dev/shm/kenichi/update</text>
<text text-anchor="start" x="692" y="-210" font-family="FreeSans" font-size="10.00">&#45;github&#45;e1039&#45;doc/e1039</text>
<text text-anchor="start" x="692" y="-199" font-family="FreeSans" font-size="10.00">&#45;core/framework/fun4all</text>
<text text-anchor="middle" x="750" y="-188" font-family="FreeSans" font-size="10.00">/Fun4AllOutputManager.cc</text>
</a>
</g>
</g>
<!-- Node1&#45;&gt;Node10 -->
<g id="edge9" class="edge"><title>Node1&#45;&gt;Node10</title>
<path fill="none" stroke="midnightblue" d="M798.613,-262.846C789.873,-252.985 780.446,-242.349 772.241,-233.092"/>
<polygon fill="midnightblue" stroke="midnightblue" points="796.187,-265.385 805.439,-270.547 801.425,-260.742 796.187,-265.385"/>
</g>
<!-- Node11 -->
<g id="node11" class="node"><title>Node11</title>
<g id="a_node11"><a xlink:href="../../d0/d7a/Fun4AllPrdfOutputManager_8h.html" target="_top" xlink:title="/dev/shm/kenichi/update\l&#45;github&#45;e1039&#45;doc/e1039\l&#45;core/framework/fun4all\l/Fun4AllPrdfOutputManager.h">
<polygon fill="none" stroke="black" points="834.5,-181 834.5,-233 979.5,-233 979.5,-181 834.5,-181"/>
<text text-anchor="start" x="842.5" y="-221" font-family="FreeSans" font-size="10.00">/dev/shm/kenichi/update</text>
<text text-anchor="start" x="842.5" y="-210" font-family="FreeSans" font-size="10.00">&#45;github&#45;e1039&#45;doc/e1039</text>
<text text-anchor="start" x="842.5" y="-199" font-family="FreeSans" font-size="10.00">&#45;core/framework/fun4all</text>
<text text-anchor="middle" x="907" y="-188" font-family="FreeSans" font-size="10.00">/Fun4AllPrdfOutputManager.h</text>
</a>
</g>
</g>
<!-- Node1&#45;&gt;Node11 -->
<g id="edge10" class="edge"><title>Node1&#45;&gt;Node11</title>
<path fill="none" stroke="midnightblue" d="M857.763,-262.846C866.616,-252.985 876.164,-242.349 884.474,-233.092"/>
<polygon fill="midnightblue" stroke="midnightblue" points="854.926,-260.767 850.85,-270.547 860.135,-265.443 854.926,-260.767"/>
</g>
<!-- Node13 -->
<g id="node13" class="node"><title>Node13</title>
<g id="a_node13"><a xlink:href="../../d8/d7a/Fun4AllServer_8cc.html" target="_top" xlink:title="/dev/shm/kenichi/update\l&#45;github&#45;e1039&#45;doc/e1039\l&#45;core/framework/fun4all\l/Fun4AllServer.cc">
<polygon fill="none" stroke="black" points="997.5,-181 997.5,-233 1120.5,-233 1120.5,-181 997.5,-181"/>
<text text-anchor="start" x="1005.5" y="-221" font-family="FreeSans" font-size="10.00">/dev/shm/kenichi/update</text>
<text text-anchor="start" x="1005.5" y="-210" font-family="FreeSans" font-size="10.00">&#45;github&#45;e1039&#45;doc/e1039</text>
<text text-anchor="start" x="1005.5" y="-199" font-family="FreeSans" font-size="10.00">&#45;core/framework/fun4all</text>
<text text-anchor="middle" x="1059" y="-188" font-family="FreeSans" font-size="10.00">/Fun4AllServer.cc</text>
</a>
</g>
</g>
<!-- Node1&#45;&gt;Node13 -->
<g id="edge12" class="edge"><title>Node1&#45;&gt;Node13</title>
<path fill="none" stroke="midnightblue" d="M901.186,-268.12C932.17,-256.316 967.868,-242.717 997.467,-231.441"/>
<polygon fill="midnightblue" stroke="midnightblue" points="899.832,-264.89 891.733,-271.721 902.324,-271.431 899.832,-264.89"/>
</g>
<!-- Node14 -->
<g id="node14" class="node"><title>Node14</title>
<g id="a_node14"><a xlink:href="../../d6/d66/Fun4AllHepMCOutputManager_8h.html" target="_top" xlink:title="/dev/shm/kenichi/update\l&#45;github&#45;e1039&#45;doc/e1039\l&#45;core/generators/phhepmc\l/Fun4AllHepMCOutputManager.h">
<polygon fill="none" stroke="black" points="1138.5,-181 1138.5,-233 1297.5,-233 1297.5,-181 1138.5,-181"/>
<text text-anchor="start" x="1146.5" y="-221" font-family="FreeSans" font-size="10.00">/dev/shm/kenichi/update</text>
<text text-anchor="start" x="1146.5" y="-210" font-family="FreeSans" font-size="10.00">&#45;github&#45;e1039&#45;doc/e1039</text>
<text text-anchor="start" x="1146.5" y="-199" font-family="FreeSans" font-size="10.00">&#45;core/generators/phhepmc</text>
<text text-anchor="middle" x="1218" y="-188" font-family="FreeSans" font-size="10.00">/Fun4AllHepMCOutputManager.h</text>
</a>
</g>
</g>
<!-- Node1&#45;&gt;Node14 -->
<g id="edge13" class="edge"><title>Node1&#45;&gt;Node14</title>
<path fill="none" stroke="midnightblue" d="M901.706,-282.548C962.876,-270.97 1052,-253.145 1129,-234 1131.97,-233.262 1134.99,-232.49 1138.03,-231.694"/>
<polygon fill="midnightblue" stroke="midnightblue" points="900.936,-279.131 891.757,-284.423 902.232,-286.01 900.936,-279.131"/>
</g>
<!-- Node16 -->
<g id="node16" class="node"><title>Node16</title>
<g id="a_node16"><a xlink:href="../../d0/de0/Fun4AllSRawEventOutputManager_8h.html" target="_top" xlink:title="/dev/shm/kenichi/update\l&#45;github&#45;e1039&#45;doc/e1039\l&#45;core/packages/reco/ktracker\l/Fun4AllSRawEventOutputManager.h">
<polygon fill="none" stroke="black" points="1319,-181 1319,-233 1495,-233 1495,-181 1319,-181"/>
<text text-anchor="start" x="1327" y="-221" font-family="FreeSans" font-size="10.00">/dev/shm/kenichi/update</text>
<text text-anchor="start" x="1327" y="-210" font-family="FreeSans" font-size="10.00">&#45;github&#45;e1039&#45;doc/e1039</text>
<text text-anchor="start" x="1327" y="-199" font-family="FreeSans" font-size="10.00">&#45;core/packages/reco/ktracker</text>
<text text-anchor="middle" x="1407" y="-188" font-family="FreeSans" font-size="10.00">/Fun4AllSRawEventOutputManager.h</text>
</a>
</g>
</g>
<!-- Node1&#45;&gt;Node16 -->
<g id="edge15" class="edge"><title>Node1&#45;&gt;Node16</title>
<path fill="none" stroke="midnightblue" d="M901.809,-289.27C996.101,-280.023 1164.09,-261.361 1306,-234 1310.18,-233.194 1314.44,-232.318 1318.74,-231.39"/>
<polygon fill="midnightblue" stroke="midnightblue" points="901.414,-285.792 891.8,-290.244 902.092,-292.759 901.414,-285.792"/>
</g>
<!-- Node6 -->
<g id="node6" class="node"><title>Node6</title>
<g id="a_node6"><a xlink:href="../../d2/d3a/Fun4TrkDev_8C.html" target="_top" xlink:title="/dev/shm/kenichi/update\l&#45;github&#45;e1039&#45;doc/e1039\l&#45;analysis/TrkDev/Fun4TrkDev.C">
<polygon fill="none" stroke="black" points="342,-96.5 342,-137.5 494,-137.5 494,-96.5 342,-96.5"/>
<text text-anchor="start" x="350" y="-125.5" font-family="FreeSans" font-size="10.00">/dev/shm/kenichi/update</text>
<text text-anchor="start" x="350" y="-114.5" font-family="FreeSans" font-size="10.00">&#45;github&#45;e1039&#45;doc/e1039</text>
<text text-anchor="middle" x="418" y="-103.5" font-family="FreeSans" font-size="10.00">&#45;analysis/TrkDev/Fun4TrkDev.C</text>
</a>
</g>
</g>
<!-- Node1&#45;&gt;Node6 -->
<g id="edge17" class="edge"><title>Node1&#45;&gt;Node6</title>
<path fill="none" stroke="midnightblue" d="M754.148,-288.067C672.059,-278.173 545.675,-259.415 505,-234 467.212,-210.39 440.088,-163.975 426.946,-137.577"/>
<polygon fill="midnightblue" stroke="midnightblue" points="753.836,-291.554 764.179,-289.258 754.662,-284.603 753.836,-291.554"/>
</g>
<!-- Node3 -->
<g id="node3" class="node"><title>Node3</title>
<g id="a_node3"><a xlink:href="../../d9/d74/Fun4AllDstOutputManager_8cc.html" target="_top" xlink:title="/dev/shm/kenichi/update\l&#45;github&#45;e1039&#45;doc/e1039\l&#45;core/framework/fun4all\l/Fun4AllDstOutputManager.cc">
<polygon fill="none" stroke="black" points="0,-91 0,-143 146,-143 146,-91 0,-91"/>
<text text-anchor="start" x="8" y="-131" font-family="FreeSans" font-size="10.00">/dev/shm/kenichi/update</text>
<text text-anchor="start" x="8" y="-120" font-family="FreeSans" font-size="10.00">&#45;github&#45;e1039&#45;doc/e1039</text>
<text text-anchor="start" x="8" y="-109" font-family="FreeSans" font-size="10.00">&#45;core/framework/fun4all</text>
<text text-anchor="middle" x="73" y="-98" font-family="FreeSans" font-size="10.00">/Fun4AllDstOutputManager.cc</text>
</a>
</g>
</g>
<!-- Node2&#45;&gt;Node3 -->
<g id="edge2" class="edge"><title>Node2&#45;&gt;Node3</title>
<path fill="none" stroke="midnightblue" d="M212.316,-176.942C186.475,-166.008 157.332,-153.679 132.405,-143.133"/>
<polygon fill="midnightblue" stroke="midnightblue" points="211.1,-180.227 221.674,-180.901 213.828,-173.781 211.1,-180.227"/>
</g>
<!-- Node4 -->
<g id="node4" class="node"><title>Node4</title>
<g id="a_node4"><a xlink:href="../../de/d9b/Fun4AllSpillDstOutputManager_8h.html" target="_top" xlink:title="/dev/shm/kenichi/update\l&#45;github&#45;e1039&#45;doc/e1039\l&#45;core/online/decoder_maindaq\l/Fun4AllSpillDstOutputManager.h">
<polygon fill="none" stroke="black" points="164,-91 164,-143 324,-143 324,-91 164,-91"/>
<text text-anchor="start" x="172" y="-131" font-family="FreeSans" font-size="10.00">/dev/shm/kenichi/update</text>
<text text-anchor="start" x="172" y="-120" font-family="FreeSans" font-size="10.00">&#45;github&#45;e1039&#45;doc/e1039</text>
<text text-anchor="start" x="172" y="-109" font-family="FreeSans" font-size="10.00">&#45;core/online/decoder_maindaq</text>
<text text-anchor="middle" x="244" y="-98" font-family="FreeSans" font-size="10.00">/Fun4AllSpillDstOutputManager.h</text>
</a>
</g>
</g>
<!-- Node2&#45;&gt;Node4 -->
<g id="edge3" class="edge"><title>Node2&#45;&gt;Node4</title>
<path fill="none" stroke="midnightblue" d="M266.318,-171.081C262.385,-161.726 258.211,-151.799 254.55,-143.092"/>
<polygon fill="midnightblue" stroke="midnightblue" points="263.196,-172.685 270.298,-180.547 269.649,-169.972 263.196,-172.685"/>
</g>
<!-- Node2&#45;&gt;Node6 -->
<g id="edge5" class="edge"><title>Node2&#45;&gt;Node6</title>
<path fill="none" stroke="midnightblue" d="M328.724,-175.345C348.211,-162.828 370.176,-148.719 387.442,-137.628"/>
<polygon fill="midnightblue" stroke="midnightblue" points="326.781,-172.433 320.259,-180.783 330.564,-178.323 326.781,-172.433"/>
</g>
<!-- Node5 -->
<g id="node5" class="node"><title>Node5</title>
<g id="a_node5"><a xlink:href="../../d1/d53/Fun4AllSpillDstOutputManager_8cc.html" target="_top" xlink:title="/dev/shm/kenichi/update\l&#45;github&#45;e1039&#45;doc/e1039\l&#45;core/online/decoder_maindaq\l/Fun4AllSpillDstOutputManager.cc">
<polygon fill="none" stroke="black" points="161.5,-1 161.5,-53 326.5,-53 326.5,-1 161.5,-1"/>
<text text-anchor="start" x="169.5" y="-41" font-family="FreeSans" font-size="10.00">/dev/shm/kenichi/update</text>
<text text-anchor="start" x="169.5" y="-30" font-family="FreeSans" font-size="10.00">&#45;github&#45;e1039&#45;doc/e1039</text>
<text text-anchor="start" x="169.5" y="-19" font-family="FreeSans" font-size="10.00">&#45;core/online/decoder_maindaq</text>
<text text-anchor="middle" x="244" y="-8" font-family="FreeSans" font-size="10.00">/Fun4AllSpillDstOutputManager.cc</text>
</a>
</g>
</g>
<!-- Node4&#45;&gt;Node5 -->
<g id="edge4" class="edge"><title>Node4&#45;&gt;Node5</title>
<path fill="none" stroke="midnightblue" d="M244,-80.4892C244,-71.3088 244,-61.616 244,-53.0921"/>
<polygon fill="midnightblue" stroke="midnightblue" points="240.5,-80.5467 244,-90.5468 247.5,-80.5468 240.5,-80.5467"/>
</g>
<!-- Node8 -->
<g id="node8" class="node"><title>Node8</title>
<g id="a_node8"><a xlink:href="../../d6/dbe/Fun4AllEventOutputManager_8cc.html" target="_top" xlink:title="/dev/shm/kenichi/update\l&#45;github&#45;e1039&#45;doc/e1039\l&#45;core/framework/fun4all\l/Fun4AllEventOutputManager.cc">
<polygon fill="none" stroke="black" points="512,-91 512,-143 668,-143 668,-91 512,-91"/>
<text text-anchor="start" x="520" y="-131" font-family="FreeSans" font-size="10.00">/dev/shm/kenichi/update</text>
<text text-anchor="start" x="520" y="-120" font-family="FreeSans" font-size="10.00">&#45;github&#45;e1039&#45;doc/e1039</text>
<text text-anchor="start" x="520" y="-109" font-family="FreeSans" font-size="10.00">&#45;core/framework/fun4all</text>
<text text-anchor="middle" x="590" y="-98" font-family="FreeSans" font-size="10.00">/Fun4AllEventOutputManager.cc</text>
</a>
</g>
</g>
<!-- Node7&#45;&gt;Node8 -->
<g id="edge7" class="edge"><title>Node7&#45;&gt;Node8</title>
<path fill="none" stroke="midnightblue" d="M590,-170.489C590,-161.309 590,-151.616 590,-143.092"/>
<polygon fill="midnightblue" stroke="midnightblue" points="586.5,-170.547 590,-180.547 593.5,-170.547 586.5,-170.547"/>
</g>
<!-- Node9 -->
<g id="node9" class="node"><title>Node9</title>
<g id="a_node9"><a xlink:href="../../db/d70/Fun4AllRolloverFileOutStream_8cc.html" target="_top" xlink:title="/dev/shm/kenichi/update\l&#45;github&#45;e1039&#45;doc/e1039\l&#45;core/framework/fun4all\l/Fun4AllRolloverFileOutStream.cc">
<polygon fill="none" stroke="black" points="686.5,-91 686.5,-143 849.5,-143 849.5,-91 686.5,-91"/>
<text text-anchor="start" x="694.5" y="-131" font-family="FreeSans" font-size="10.00">/dev/shm/kenichi/update</text>
<text text-anchor="start" x="694.5" y="-120" font-family="FreeSans" font-size="10.00">&#45;github&#45;e1039&#45;doc/e1039</text>
<text text-anchor="start" x="694.5" y="-109" font-family="FreeSans" font-size="10.00">&#45;core/framework/fun4all</text>
<text text-anchor="middle" x="768" y="-98" font-family="FreeSans" font-size="10.00">/Fun4AllRolloverFileOutStream.cc</text>
</a>
</g>
</g>
<!-- Node7&#45;&gt;Node9 -->
<g id="edge8" class="edge"><title>Node7&#45;&gt;Node9</title>
<path fill="none" stroke="midnightblue" d="M650.178,-176.249C671.986,-165.468 696.382,-153.407 717.293,-143.069"/>
<polygon fill="midnightblue" stroke="midnightblue" points="648.421,-173.213 641.008,-180.783 651.523,-179.488 648.421,-173.213"/>
</g>
<!-- Node12 -->
<g id="node12" class="node"><title>Node12</title>
<g id="a_node12"><a xlink:href="../../d8/d3b/Fun4AllPrdfOutputManager_8cc.html" target="_top" xlink:title="/dev/shm/kenichi/update\l&#45;github&#45;e1039&#45;doc/e1039\l&#45;core/framework/fun4all\l/Fun4AllPrdfOutputManager.cc">
<polygon fill="none" stroke="black" points="868,-91 868,-143 1018,-143 1018,-91 868,-91"/>
<text text-anchor="start" x="876" y="-131" font-family="FreeSans" font-size="10.00">/dev/shm/kenichi/update</text>
<text text-anchor="start" x="876" y="-120" font-family="FreeSans" font-size="10.00">&#45;github&#45;e1039&#45;doc/e1039</text>
<text text-anchor="start" x="876" y="-109" font-family="FreeSans" font-size="10.00">&#45;core/framework/fun4all</text>
<text text-anchor="middle" x="943" y="-98" font-family="FreeSans" font-size="10.00">/Fun4AllPrdfOutputManager.cc</text>
</a>
</g>
</g>
<!-- Node11&#45;&gt;Node12 -->
<g id="edge11" class="edge"><title>Node11&#45;&gt;Node12</title>
<path fill="none" stroke="midnightblue" d="M921.285,-171.081C925.112,-161.726 929.173,-151.799 932.735,-143.092"/>
<polygon fill="midnightblue" stroke="midnightblue" points="917.96,-169.966 917.413,-180.547 924.438,-172.617 917.96,-169.966"/>
</g>
<!-- Node15 -->
<g id="node15" class="node"><title>Node15</title>
<g id="a_node15"><a xlink:href="../../d6/d39/Fun4AllHepMCOutputManager_8cc.html" target="_top" xlink:title="/dev/shm/kenichi/update\l&#45;github&#45;e1039&#45;doc/e1039\l&#45;core/generators/phhepmc\l/Fun4AllHepMCOutputManager.cc">
<polygon fill="none" stroke="black" points="1134,-91 1134,-143 1298,-143 1298,-91 1134,-91"/>
<text text-anchor="start" x="1142" y="-131" font-family="FreeSans" font-size="10.00">/dev/shm/kenichi/update</text>
<text text-anchor="start" x="1142" y="-120" font-family="FreeSans" font-size="10.00">&#45;github&#45;e1039&#45;doc/e1039</text>
<text text-anchor="start" x="1142" y="-109" font-family="FreeSans" font-size="10.00">&#45;core/generators/phhepmc</text>
<text text-anchor="middle" x="1216" y="-98" font-family="FreeSans" font-size="10.00">/Fun4AllHepMCOutputManager.cc</text>
</a>
</g>
</g>
<!-- Node14&#45;&gt;Node15 -->
<g id="edge14" class="edge"><title>Node14&#45;&gt;Node15</title>
<path fill="none" stroke="midnightblue" d="M1217.19,-170.489C1216.98,-161.309 1216.76,-151.616 1216.57,-143.092"/>
<polygon fill="midnightblue" stroke="midnightblue" points="1213.7,-170.629 1217.42,-180.547 1220.69,-170.47 1213.7,-170.629"/>
</g>
<!-- Node17 -->
<g id="node17" class="node"><title>Node17</title>
<g id="a_node17"><a xlink:href="../../df/d39/Fun4AllSRawEventOutputManager_8cxx.html" target="_top" xlink:title="/dev/shm/kenichi/update\l&#45;github&#45;e1039&#45;doc/e1039\l&#45;core/packages/reco/ktracker\l/Fun4AllSRawEventOutputManager.cxx">
<polygon fill="none" stroke="black" points="1316.5,-91 1316.5,-143 1501.5,-143 1501.5,-91 1316.5,-91"/>
<text text-anchor="start" x="1324.5" y="-131" font-family="FreeSans" font-size="10.00">/dev/shm/kenichi/update</text>
<text text-anchor="start" x="1324.5" y="-120" font-family="FreeSans" font-size="10.00">&#45;github&#45;e1039&#45;doc/e1039</text>
<text text-anchor="start" x="1324.5" y="-109" font-family="FreeSans" font-size="10.00">&#45;core/packages/reco/ktracker</text>
<text text-anchor="middle" x="1409" y="-98" font-family="FreeSans" font-size="10.00">/Fun4AllSRawEventOutputManager.cxx</text>
</a>
</g>
</g>
<!-- Node16&#45;&gt;Node17 -->
<g id="edge16" class="edge"><title>Node16&#45;&gt;Node17</title>
<path fill="none" stroke="midnightblue" d="M1407.81,-170.489C1408.02,-161.309 1408.24,-151.616 1408.43,-143.092"/>
<polygon fill="midnightblue" stroke="midnightblue" points="1404.31,-170.47 1407.58,-180.547 1411.3,-170.629 1404.31,-170.47"/>
</g>
</g>
</svg>
