<?xml version="1.0" encoding="UTF-8" standalone="no"?>
<!DOCTYPE svg PUBLIC "-//W3C//DTD SVG 1.1//EN"
 "http://www.w3.org/Graphics/SVG/1.1/DTD/svg11.dtd">
<!-- Generated by graphviz version 2.36.0 (20140111.2315)
 -->
<!-- Title: PHG4ScintillatorSlatv1::identify Pages: 1 -->
<svg width="280pt" height="234pt"
 viewBox="0.00 0.00 280.00 234.00" xmlns="http://www.w3.org/2000/svg" xmlns:xlink="http://www.w3.org/1999/xlink">
<g id="graph0" class="graph" transform="scale(1 1) rotate(0) translate(4 230)">
<title>PHG4ScintillatorSlatv1::identify</title>
<!-- Node1 -->
<g id="node1" class="node"><title>Node1</title>
<polygon fill="#bfbfbf" stroke="black" points="0.5,-98 0.5,-128 117.5,-128 117.5,-98 0.5,-98"/>
<text text-anchor="start" x="8.5" y="-116" font-family="FreeSans" font-size="10.00">PHG4ScintillatorSlatv1</text>
<text text-anchor="middle" x="59" y="-105" font-family="FreeSans" font-size="10.00">::identify</text>
</g>
<!-- Node2 -->
<g id="node2" class="node"><title>Node2</title>
<g id="a_node2"><a xlink:href="../../db/dd4/classPHG4ScintillatorSlatv1.html#a8d50c15b26da9fb8bb96015aeb079af5" target="_top" xlink:title="PHG4ScintillatorSlatv1\l::get_column">
<polygon fill="none" stroke="black" points="154.5,-196 154.5,-226 271.5,-226 271.5,-196 154.5,-196"/>
<text text-anchor="start" x="162.5" y="-214" font-family="FreeSans" font-size="10.00">PHG4ScintillatorSlatv1</text>
<text text-anchor="middle" x="213" y="-203" font-family="FreeSans" font-size="10.00">::get_column</text>
</a>
</g>
</g>
<!-- Node1&#45;&gt;Node2 -->
<g id="edge1" class="edge"><title>Node1&#45;&gt;Node2</title>
<path fill="none" stroke="midnightblue" d="M76.7225,-128.119C94.823,-143.958 125.003,-168.868 154,-186 157.21,-187.896 160.59,-189.73 164.039,-191.484"/>
<polygon fill="midnightblue" stroke="midnightblue" points="162.731,-194.739 173.258,-195.93 165.771,-188.434 162.731,-194.739"/>
</g>
<!-- Node3 -->
<g id="node3" class="node"><title>Node3</title>
<g id="a_node3"><a xlink:href="../../db/dd4/classPHG4ScintillatorSlatv1.html#adab845e7877c4a37a5ec364cf4992e95" target="_top" xlink:title="PHG4ScintillatorSlatv1\l::get_edep">
<polygon fill="none" stroke="black" points="154.5,-147 154.5,-177 271.5,-177 271.5,-147 154.5,-147"/>
<text text-anchor="start" x="162.5" y="-165" font-family="FreeSans" font-size="10.00">PHG4ScintillatorSlatv1</text>
<text text-anchor="middle" x="213" y="-154" font-family="FreeSans" font-size="10.00">::get_edep</text>
</a>
</g>
</g>
<!-- Node1&#45;&gt;Node3 -->
<g id="edge2" class="edge"><title>Node1&#45;&gt;Node3</title>
<path fill="none" stroke="midnightblue" d="M106.845,-128.101C122.232,-133.062 139.497,-138.627 155.521,-143.793"/>
<polygon fill="midnightblue" stroke="midnightblue" points="154.718,-147.211 165.309,-146.948 156.866,-140.549 154.718,-147.211"/>
</g>
<!-- Node4 -->
<g id="node4" class="node"><title>Node4</title>
<g id="a_node4"><a xlink:href="../../db/dd4/classPHG4ScintillatorSlatv1.html#a4ca4d9dcd1d153b7a999b8bf750d965c" target="_top" xlink:title="PHG4ScintillatorSlatv1\l::get_eion">
<polygon fill="none" stroke="black" points="154.5,-98 154.5,-128 271.5,-128 271.5,-98 154.5,-98"/>
<text text-anchor="start" x="162.5" y="-116" font-family="FreeSans" font-size="10.00">PHG4ScintillatorSlatv1</text>
<text text-anchor="middle" x="213" y="-105" font-family="FreeSans" font-size="10.00">::get_eion</text>
</a>
</g>
</g>
<!-- Node1&#45;&gt;Node4 -->
<g id="edge3" class="edge"><title>Node1&#45;&gt;Node4</title>
<path fill="none" stroke="midnightblue" d="M117.898,-113C126.461,-113 135.349,-113 144.093,-113"/>
<polygon fill="midnightblue" stroke="midnightblue" points="144.263,-116.5 154.263,-113 144.263,-109.5 144.263,-116.5"/>
</g>
<!-- Node5 -->
<g id="node5" class="node"><title>Node5</title>
<g id="a_node5"><a xlink:href="../../db/dd4/classPHG4ScintillatorSlatv1.html#a17c4c90ca0d851611ce5958b4f30d8ee" target="_top" xlink:title="PHG4ScintillatorSlatv1\l::get_light_yield">
<polygon fill="none" stroke="black" points="154.5,-49 154.5,-79 271.5,-79 271.5,-49 154.5,-49"/>
<text text-anchor="start" x="162.5" y="-67" font-family="FreeSans" font-size="10.00">PHG4ScintillatorSlatv1</text>
<text text-anchor="middle" x="213" y="-56" font-family="FreeSans" font-size="10.00">::get_light_yield</text>
</a>
</g>
</g>
<!-- Node1&#45;&gt;Node5 -->
<g id="edge4" class="edge"><title>Node1&#45;&gt;Node5</title>
<path fill="none" stroke="midnightblue" d="M106.845,-97.8986C122.232,-92.9385 139.497,-87.3726 155.521,-82.2071"/>
<polygon fill="midnightblue" stroke="midnightblue" points="156.866,-85.451 165.309,-79.0516 154.718,-78.7887 156.866,-85.451"/>
</g>
<!-- Node6 -->
<g id="node6" class="node"><title>Node6</title>
<g id="a_node6"><a xlink:href="../../db/dd4/classPHG4ScintillatorSlatv1.html#a58873066cde1c305c6dc9dafbd2dfa98" target="_top" xlink:title="PHG4ScintillatorSlatv1\l::get_row">
<polygon fill="none" stroke="black" points="154.5,-0 154.5,-30 271.5,-30 271.5,-0 154.5,-0"/>
<text text-anchor="start" x="162.5" y="-18" font-family="FreeSans" font-size="10.00">PHG4ScintillatorSlatv1</text>
<text text-anchor="middle" x="213" y="-7" font-family="FreeSans" font-size="10.00">::get_row</text>
</a>
</g>
</g>
<!-- Node1&#45;&gt;Node6 -->
<g id="edge5" class="edge"><title>Node1&#45;&gt;Node6</title>
<path fill="none" stroke="midnightblue" d="M76.7225,-97.8805C94.823,-82.0425 125.003,-57.132 154,-40 157.21,-38.1036 160.59,-36.27 164.039,-34.5159"/>
<polygon fill="midnightblue" stroke="midnightblue" points="165.771,-37.5663 173.258,-30.07 162.731,-31.2611 165.771,-37.5663"/>
</g>
</g>
</svg>
