<?xml version="1.0" encoding="UTF-8" standalone="no"?>
<!DOCTYPE svg PUBLIC "-//W3C//DTD SVG 1.1//EN"
 "http://www.w3.org/Graphics/SVG/1.1/DTD/svg11.dtd">
<!-- Generated by graphviz version 2.44.0 (0)
 -->
<!-- Title: /dev/shm/kenichi/update&#45;github&#45;e1039&#45;doc/e1039&#45;core/simulation/g4gdml/PHG4GDMLConfig.cc Pages: 1 -->
<svg width="191pt" height="229pt"
 viewBox="0.00 0.00 191.00 229.00" xmlns="http://www.w3.org/2000/svg" xmlns:xlink="http://www.w3.org/1999/xlink">
<g id="graph0" class="graph" transform="scale(1 1) rotate(0) translate(4 225)">
<title>/dev/shm/kenichi/update&#45;github&#45;e1039&#45;doc/e1039&#45;core/simulation/g4gdml/PHG4GDMLConfig.cc</title>
<!-- Node1 -->
<g id="node1" class="node">
<title>Node1</title>
<g id="a_node1"><a xlink:title=" ">
<polygon fill="#bfbfbf" stroke="black" points="44,-168.5 44,-220.5 183,-220.5 183,-168.5 44,-168.5"/>
<text text-anchor="start" x="52" y="-208.5" font-family="FreeSans" font-size="10.00">/dev/shm/kenichi/update</text>
<text text-anchor="start" x="52" y="-197.5" font-family="FreeSans" font-size="10.00">&#45;github&#45;e1039&#45;doc/e1039</text>
<text text-anchor="start" x="52" y="-186.5" font-family="FreeSans" font-size="10.00">&#45;core/simulation/g4gdml</text>
<text text-anchor="middle" x="113.5" y="-175.5" font-family="FreeSans" font-size="10.00">/PHG4GDMLConfig.cc</text>
</a>
</g>
</g>
<!-- Node2 -->
<g id="node2" class="node">
<title>Node2</title>
<g id="a_node2"><a xlink:href="../../d7/df8/PHG4GDMLConfig_8hh.html" target="_top" xlink:title=" ">
<polygon fill="none" stroke="black" points="54,-112.5 54,-131.5 173,-131.5 173,-112.5 54,-112.5"/>
<text text-anchor="middle" x="113.5" y="-119.5" font-family="FreeSans" font-size="10.00">PHG4GDMLConfig.hh</text>
</a>
</g>
</g>
<!-- Node1&#45;&gt;Node2 -->
<g id="edge1" class="edge">
<title>Node1&#45;&gt;Node2</title>
<path fill="none" stroke="midnightblue" d="M113.5,-168.45C113.5,-159.73 113.5,-150.1 113.5,-141.96"/>
<polygon fill="midnightblue" stroke="midnightblue" points="117,-141.7 113.5,-131.7 110,-141.7 117,-141.7"/>
</g>
<!-- Node3 -->
<g id="node3" class="node">
<title>Node3</title>
<g id="a_node3"><a xlink:href="../../df/d32/PHObject_8h.html" target="_top" xlink:title=" ">
<polygon fill="none" stroke="black" points="21,-56.5 21,-75.5 122,-75.5 122,-56.5 21,-56.5"/>
<text text-anchor="middle" x="71.5" y="-63.5" font-family="FreeSans" font-size="10.00">phool/PHObject.h</text>
</a>
</g>
</g>
<!-- Node2&#45;&gt;Node3 -->
<g id="edge2" class="edge">
<title>Node2&#45;&gt;Node3</title>
<path fill="none" stroke="midnightblue" d="M106.56,-112.08C100.57,-104.38 91.75,-93.03 84.45,-83.65"/>
<polygon fill="midnightblue" stroke="midnightblue" points="87.21,-81.5 78.31,-75.75 81.68,-85.79 87.21,-81.5"/>
</g>
<!-- Node6 -->
<g id="node6" class="node">
<title>Node6</title>
<g id="a_node6"><a xlink:title=" ">
<polygon fill="none" stroke="#bfbfbf" points="140.5,-56.5 140.5,-75.5 172.5,-75.5 172.5,-56.5 140.5,-56.5"/>
<text text-anchor="middle" x="156.5" y="-63.5" font-family="FreeSans" font-size="10.00">set</text>
</a>
</g>
</g>
<!-- Node2&#45;&gt;Node6 -->
<g id="edge5" class="edge">
<title>Node2&#45;&gt;Node6</title>
<path fill="none" stroke="midnightblue" d="M120.6,-112.08C126.74,-104.38 135.77,-93.03 143.24,-83.65"/>
<polygon fill="midnightblue" stroke="midnightblue" points="146.04,-85.75 149.53,-75.75 140.56,-81.39 146.04,-85.75"/>
</g>
<!-- Node4 -->
<g id="node4" class="node">
<title>Node4</title>
<g id="a_node4"><a xlink:title=" ">
<polygon fill="none" stroke="#bfbfbf" points="0,-0.5 0,-19.5 63,-19.5 63,-0.5 0,-0.5"/>
<text text-anchor="middle" x="31.5" y="-7.5" font-family="FreeSans" font-size="10.00">TObject.h</text>
</a>
</g>
</g>
<!-- Node3&#45;&gt;Node4 -->
<g id="edge3" class="edge">
<title>Node3&#45;&gt;Node4</title>
<path fill="none" stroke="midnightblue" d="M64.89,-56.08C59.24,-48.46 50.96,-37.26 44.05,-27.94"/>
<polygon fill="midnightblue" stroke="midnightblue" points="46.75,-25.7 37.98,-19.75 41.12,-29.87 46.75,-25.7"/>
</g>
<!-- Node5 -->
<g id="node5" class="node">
<title>Node5</title>
<g id="a_node5"><a xlink:title=" ">
<polygon fill="none" stroke="#bfbfbf" points="81.5,-0.5 81.5,-19.5 141.5,-19.5 141.5,-0.5 81.5,-0.5"/>
<text text-anchor="middle" x="111.5" y="-7.5" font-family="FreeSans" font-size="10.00">iostream</text>
</a>
</g>
</g>
<!-- Node3&#45;&gt;Node5 -->
<g id="edge4" class="edge">
<title>Node3&#45;&gt;Node5</title>
<path fill="none" stroke="midnightblue" d="M78.11,-56.08C83.76,-48.46 92.04,-37.26 98.95,-27.94"/>
<polygon fill="midnightblue" stroke="midnightblue" points="101.88,-29.87 105.02,-19.75 96.25,-25.7 101.88,-29.87"/>
</g>
</g>
</svg>
