<?xml version="1.0" encoding="UTF-8" standalone="no"?>
<!DOCTYPE svg PUBLIC "-//W3C//DTD SVG 1.1//EN"
 "http://www.w3.org/Graphics/SVG/1.1/DTD/svg11.dtd">
<!-- Generated by graphviz version 2.30.1 (20200930.0103)
 -->
<!-- Title: /dev/shm/kenichi/update&#45;github&#45;e1039&#45;doc/e1039&#45;core/generators/E906LegacyVtxGen/SQPrimaryVertexGen.h Pages: 1 -->
<svg width="1189pt" height="152pt"
 viewBox="0.00 0.00 1189.00 152.00" xmlns="http://www.w3.org/2000/svg" xmlns:xlink="http://www.w3.org/1999/xlink">
<g id="graph0" class="graph" transform="scale(1 1) rotate(0) translate(4 148)">
<title>/dev/shm/kenichi/update&#45;github&#45;e1039&#45;doc/e1039&#45;core/generators/E906LegacyVtxGen/SQPrimaryVertexGen.h</title>
<!-- Node1 -->
<g id="node1" class="node"><title>Node1</title>
<polygon fill="#bfbfbf" stroke="black" points="547.5,-91 547.5,-143 720.5,-143 720.5,-91 547.5,-91"/>
<text text-anchor="start" x="555.5" y="-131" font-family="FreeSans" font-size="10.00">/dev/shm/kenichi/update</text>
<text text-anchor="start" x="555.5" y="-120" font-family="FreeSans" font-size="10.00">&#45;github&#45;e1039&#45;doc/e1039</text>
<text text-anchor="start" x="555.5" y="-109" font-family="FreeSans" font-size="10.00">&#45;core/generators/E906LegacyVtxGen</text>
<text text-anchor="middle" x="634" y="-98" font-family="FreeSans" font-size="10.00">/SQPrimaryVertexGen.h</text>
</g>
<!-- Node2 -->
<g id="node2" class="node"><title>Node2</title>
<g id="a_node2"><a xlink:href="../../d5/dc5/SQPileupGen_8C.html" target="_top" target="_top" target="_top" xlink:title="/dev/shm/kenichi/update\l&#45;github&#45;e1039&#45;doc/e1039\l&#45;core/generators/E906LegacyGen\l/SQPileupGen.C">
<polygon fill="none" stroke="black" points="0,-1 0,-53 160,-53 160,-1 0,-1"/>
<text text-anchor="start" x="8" y="-41" font-family="FreeSans" font-size="10.00">/dev/shm/kenichi/update</text>
<text text-anchor="start" x="8" y="-30" font-family="FreeSans" font-size="10.00">&#45;github&#45;e1039&#45;doc/e1039</text>
<text text-anchor="start" x="8" y="-19" font-family="FreeSans" font-size="10.00">&#45;core/generators/E906LegacyGen</text>
<text text-anchor="middle" x="80" y="-8" font-family="FreeSans" font-size="10.00">/SQPileupGen.C</text>
</a>
</g>
</g>
<!-- Node1&#45;&gt;Node2 -->
<g id="edge1" class="edge"><title>Node1&#45;&gt;Node2</title>
<path fill="none" stroke="midnightblue" d="M537.078,-107.402C442.505,-97.998 294.892,-80.6208 169,-54 166.165,-53.4006 163.289,-52.7569 160.391,-52.0781"/>
<polygon fill="midnightblue" stroke="midnightblue" points="536.907,-110.902 547.201,-108.398 537.592,-103.935 536.907,-110.902"/>
</g>
<!-- Node3 -->
<g id="node3" class="node"><title>Node3</title>
<g id="a_node3"><a xlink:href="../../d5/d5f/SQPrimaryParticleGen_8C.html" target="_top" target="_top" target="_top" xlink:title="/dev/shm/kenichi/update\l&#45;github&#45;e1039&#45;doc/e1039\l&#45;core/generators/E906LegacyGen\l/SQPrimaryParticleGen.C">
<polygon fill="none" stroke="black" points="178,-1 178,-53 338,-53 338,-1 178,-1"/>
<text text-anchor="start" x="186" y="-41" font-family="FreeSans" font-size="10.00">/dev/shm/kenichi/update</text>
<text text-anchor="start" x="186" y="-30" font-family="FreeSans" font-size="10.00">&#45;github&#45;e1039&#45;doc/e1039</text>
<text text-anchor="start" x="186" y="-19" font-family="FreeSans" font-size="10.00">&#45;core/generators/E906LegacyGen</text>
<text text-anchor="middle" x="258" y="-8" font-family="FreeSans" font-size="10.00">/SQPrimaryParticleGen.C</text>
</a>
</g>
</g>
<!-- Node1&#45;&gt;Node3 -->
<g id="edge2" class="edge"><title>Node1&#45;&gt;Node3</title>
<path fill="none" stroke="midnightblue" d="M537.395,-96.9249C481.535,-85.448 410.042,-69.996 347,-54 344.191,-53.2874 341.338,-52.5464 338.46,-51.7847"/>
<polygon fill="midnightblue" stroke="midnightblue" points="536.784,-100.372 547.282,-98.9485 538.187,-93.5145 536.784,-100.372"/>
</g>
<!-- Node4 -->
<g id="node4" class="node"><title>Node4</title>
<g id="a_node4"><a xlink:href="../../d1/d30/SQPrimaryVertexGen_8C.html" target="_top" target="_top" target="_top" xlink:title="/dev/shm/kenichi/update\l&#45;github&#45;e1039&#45;doc/e1039\l&#45;core/generators/E906LegacyVtxGen\l/SQPrimaryVertexGen.C">
<polygon fill="none" stroke="black" points="356.5,-1 356.5,-53 529.5,-53 529.5,-1 356.5,-1"/>
<text text-anchor="start" x="364.5" y="-41" font-family="FreeSans" font-size="10.00">/dev/shm/kenichi/update</text>
<text text-anchor="start" x="364.5" y="-30" font-family="FreeSans" font-size="10.00">&#45;github&#45;e1039&#45;doc/e1039</text>
<text text-anchor="start" x="364.5" y="-19" font-family="FreeSans" font-size="10.00">&#45;core/generators/E906LegacyVtxGen</text>
<text text-anchor="middle" x="443" y="-8" font-family="FreeSans" font-size="10.00">/SQPrimaryVertexGen.C</text>
</a>
</g>
</g>
<!-- Node1&#45;&gt;Node4 -->
<g id="edge3" class="edge"><title>Node1&#45;&gt;Node4</title>
<path fill="none" stroke="midnightblue" d="M570.305,-86.6536C546.731,-75.7923 520.238,-63.5862 497.55,-53.1328"/>
<polygon fill="midnightblue" stroke="midnightblue" points="568.976,-89.8947 579.523,-90.9005 571.905,-83.5371 568.976,-89.8947"/>
</g>
<!-- Node5 -->
<g id="node5" class="node"><title>Node5</title>
<g id="a_node5"><a xlink:href="../../dc/de0/test__vtx_8C.html" target="_top" target="_top" target="_top" xlink:title="/dev/shm/kenichi/update\l&#45;github&#45;e1039&#45;doc/e1039\l&#45;core/generators/E906LegacyVtxGen\l/test/test_vtx.C">
<polygon fill="none" stroke="black" points="547.5,-1 547.5,-53 720.5,-53 720.5,-1 547.5,-1"/>
<text text-anchor="start" x="555.5" y="-41" font-family="FreeSans" font-size="10.00">/dev/shm/kenichi/update</text>
<text text-anchor="start" x="555.5" y="-30" font-family="FreeSans" font-size="10.00">&#45;github&#45;e1039&#45;doc/e1039</text>
<text text-anchor="start" x="555.5" y="-19" font-family="FreeSans" font-size="10.00">&#45;core/generators/E906LegacyVtxGen</text>
<text text-anchor="middle" x="634" y="-8" font-family="FreeSans" font-size="10.00">/test/test_vtx.C</text>
</a>
</g>
</g>
<!-- Node1&#45;&gt;Node5 -->
<g id="edge4" class="edge"><title>Node1&#45;&gt;Node5</title>
<path fill="none" stroke="midnightblue" d="M634,-80.4892C634,-71.3088 634,-61.616 634,-53.0921"/>
<polygon fill="midnightblue" stroke="midnightblue" points="630.5,-80.5467 634,-90.5468 637.5,-80.5468 630.5,-80.5467"/>
</g>
<!-- Node6 -->
<g id="node6" class="node"><title>Node6</title>
<g id="a_node6"><a xlink:href="../../d8/ddf/PHHepMCGenHelper_8cc.html" target="_top" target="_top" target="_top" xlink:title="/dev/shm/kenichi/update\l&#45;github&#45;e1039&#45;doc/e1039\l&#45;core/generators/phhepmc\l/PHHepMCGenHelper.cc">
<polygon fill="none" stroke="black" points="738.5,-1 738.5,-53 867.5,-53 867.5,-1 738.5,-1"/>
<text text-anchor="start" x="746.5" y="-41" font-family="FreeSans" font-size="10.00">/dev/shm/kenichi/update</text>
<text text-anchor="start" x="746.5" y="-30" font-family="FreeSans" font-size="10.00">&#45;github&#45;e1039&#45;doc/e1039</text>
<text text-anchor="start" x="746.5" y="-19" font-family="FreeSans" font-size="10.00">&#45;core/generators/phhepmc</text>
<text text-anchor="middle" x="803" y="-8" font-family="FreeSans" font-size="10.00">/PHHepMCGenHelper.cc</text>
</a>
</g>
</g>
<!-- Node1&#45;&gt;Node6 -->
<g id="edge5" class="edge"><title>Node1&#45;&gt;Node6</title>
<path fill="none" stroke="midnightblue" d="M691.412,-86.1047C712.047,-75.3602 735.091,-63.3607 754.857,-53.0687"/>
<polygon fill="midnightblue" stroke="midnightblue" points="689.682,-83.0598 682.429,-90.7827 692.915,-89.2686 689.682,-83.0598"/>
</g>
<!-- Node7 -->
<g id="node7" class="node"><title>Node7</title>
<g id="a_node7"><a xlink:href="../../db/ddd/PHG4ParticleGun_8cc.html" target="_top" target="_top" target="_top" xlink:title="/dev/shm/kenichi/update\l&#45;github&#45;e1039&#45;doc/e1039\l&#45;core/simulation/g4main\l/PHG4ParticleGun.cc">
<polygon fill="none" stroke="black" points="885.5,-1 885.5,-53 1008.5,-53 1008.5,-1 885.5,-1"/>
<text text-anchor="start" x="893.5" y="-41" font-family="FreeSans" font-size="10.00">/dev/shm/kenichi/update</text>
<text text-anchor="start" x="893.5" y="-30" font-family="FreeSans" font-size="10.00">&#45;github&#45;e1039&#45;doc/e1039</text>
<text text-anchor="start" x="893.5" y="-19" font-family="FreeSans" font-size="10.00">&#45;core/simulation/g4main</text>
<text text-anchor="middle" x="947" y="-8" font-family="FreeSans" font-size="10.00">/PHG4ParticleGun.cc</text>
</a>
</g>
</g>
<!-- Node1&#45;&gt;Node7 -->
<g id="edge6" class="edge"><title>Node1&#45;&gt;Node7</title>
<path fill="none" stroke="midnightblue" d="M730.504,-93.6285C775.08,-82.6947 828.537,-68.7297 876,-54 879.009,-53.0662 882.078,-52.079 885.169,-51.0566"/>
<polygon fill="midnightblue" stroke="midnightblue" points="729.434,-90.2866 720.548,-96.0563 731.093,-97.0873 729.434,-90.2866"/>
</g>
<!-- Node8 -->
<g id="node8" class="node"><title>Node8</title>
<g id="a_node8"><a xlink:href="../../d3/d3e/PHG4SimpleEventGenerator_8cc.html" target="_top" target="_top" target="_top" xlink:title="/dev/shm/kenichi/update\l&#45;github&#45;e1039&#45;doc/e1039\l&#45;core/simulation/g4main\l/PHG4SimpleEventGenerator.cc">
<polygon fill="none" stroke="black" points="1026.5,-1 1026.5,-53 1181.5,-53 1181.5,-1 1026.5,-1"/>
<text text-anchor="start" x="1034.5" y="-41" font-family="FreeSans" font-size="10.00">/dev/shm/kenichi/update</text>
<text text-anchor="start" x="1034.5" y="-30" font-family="FreeSans" font-size="10.00">&#45;github&#45;e1039&#45;doc/e1039</text>
<text text-anchor="start" x="1034.5" y="-19" font-family="FreeSans" font-size="10.00">&#45;core/simulation/g4main</text>
<text text-anchor="middle" x="1104" y="-8" font-family="FreeSans" font-size="10.00">/PHG4SimpleEventGenerator.cc</text>
</a>
</g>
</g>
<!-- Node1&#45;&gt;Node8 -->
<g id="edge7" class="edge"><title>Node1&#45;&gt;Node8</title>
<path fill="none" stroke="midnightblue" d="M730.837,-103.869C808.675,-93.2695 920.551,-76.1199 1017,-54 1020.07,-53.2952 1023.2,-52.5419 1026.35,-51.7518"/>
<polygon fill="midnightblue" stroke="midnightblue" points="730.004,-100.45 720.563,-105.257 730.942,-107.387 730.004,-100.45"/>
</g>
</g>
</svg>
