<?xml version="1.0" encoding="UTF-8" standalone="no"?>
<!DOCTYPE svg PUBLIC "-//W3C//DTD SVG 1.1//EN"
 "http://www.w3.org/Graphics/SVG/1.1/DTD/svg11.dtd">
<!-- Generated by graphviz version 2.30.1 (20180413.0232)
 -->
<!-- Title: Daemon4MainDaq Pages: 1 -->
<svg width="1142pt" height="1052pt"
 viewBox="0.00 0.00 1142.00 1052.00" xmlns="http://www.w3.org/2000/svg" xmlns:xlink="http://www.w3.org/1999/xlink">
<g id="graph0" class="graph" transform="scale(1 1) rotate(0) translate(4 1048)">
<title>Daemon4MainDaq</title>
<!-- Node1 -->
<g id="node1" class="node"><title>Node1</title>
<polygon fill="#bfbfbf" stroke="black" points="0,-316.5 0,-335.5 96,-335.5 96,-316.5 0,-316.5"/>
<text text-anchor="middle" x="48" y="-323.5" font-family="FreeSans" font-size="10.00">Daemon4MainDaq</text>
</g>
<!-- Node2 -->
<g id="node2" class="node"><title>Node2</title>
<g id="a_node2"><a xlink:href="../../dd/d6a/Daemon4MainDaq_8C.html#aa863a64441cd412156a8340eabb322a4" target="_top" xlink:title="Daemon4MainDaq.C. ">
<polygon fill="none" stroke="black" points="132,-354.5 132,-373.5 222,-373.5 222,-354.5 132,-354.5"/>
<text text-anchor="middle" x="177" y="-361.5" font-family="FreeSans" font-size="10.00">FindExistingRuns</text>
</a>
</g>
</g>
<!-- Node1&#45;&gt;Node2 -->
<g id="edge1" class="edge"><title>Node1&#45;&gt;Node2</title>
<path fill="none" stroke="midnightblue" d="M81.0475,-335.589C97.1411,-340.404 116.841,-346.299 134.117,-351.468"/>
<polygon fill="midnightblue" stroke="midnightblue" points="133.379,-354.901 143.963,-354.414 135.386,-348.194 133.379,-354.901"/>
</g>
<!-- Node4 -->
<g id="node4" class="node"><title>Node4</title>
<g id="a_node4"><a xlink:href="../../df/dbc/run_8C.html#a078d38b1d96e7c0e4f35d93363cc8325" target="_top" xlink:title="run">
<polygon fill="none" stroke="black" points="315,-316.5 315,-335.5 345,-335.5 345,-316.5 315,-316.5"/>
<text text-anchor="middle" x="330" y="-323.5" font-family="FreeSans" font-size="10.00">run</text>
</a>
</g>
</g>
<!-- Node1&#45;&gt;Node4 -->
<g id="edge64" class="edge"><title>Node1&#45;&gt;Node4</title>
<path fill="none" stroke="midnightblue" d="M96.1816,-326C156.494,-326 258.635,-326 304.922,-326"/>
<polygon fill="midnightblue" stroke="midnightblue" points="304.927,-329.5 314.927,-326 304.927,-322.5 304.927,-329.5"/>
</g>
<!-- Node50 -->
<g id="node50" class="node"><title>Node50</title>
<g id="a_node50"><a xlink:href="../../dd/d6a/Daemon4MainDaq_8C.html#adecd55eca8834ca390c1122f91d09888" target="_top" xlink:title="StartDecoder">
<polygon fill="none" stroke="black" points="140,-278.5 140,-297.5 214,-297.5 214,-278.5 140,-278.5"/>
<text text-anchor="middle" x="177" y="-285.5" font-family="FreeSans" font-size="10.00">StartDecoder</text>
</a>
</g>
</g>
<!-- Node1&#45;&gt;Node50 -->
<g id="edge65" class="edge"><title>Node1&#45;&gt;Node50</title>
<path fill="none" stroke="midnightblue" d="M81.0475,-316.411C97.1411,-311.596 116.841,-305.701 134.117,-300.532"/>
<polygon fill="midnightblue" stroke="midnightblue" points="135.386,-303.806 143.963,-297.586 133.379,-297.099 135.386,-303.806"/>
</g>
<!-- Node3 -->
<g id="node3" class="node"><title>Node3</title>
<g id="a_node3"><a xlink:href="../../df/da2/classUtilOnline.html#a4cf9e0ff905fd4ededb1a1ab43ad8fb7" target="_top" xlink:title="UtilOnline::GetCodaFileDir">
<polygon fill="none" stroke="black" points="265.5,-392.5 265.5,-411.5 394.5,-411.5 394.5,-392.5 265.5,-392.5"/>
<text text-anchor="middle" x="330" y="-399.5" font-family="FreeSans" font-size="10.00">UtilOnline::GetCodaFileDir</text>
</a>
</g>
</g>
<!-- Node2&#45;&gt;Node3 -->
<g id="edge2" class="edge"><title>Node2&#45;&gt;Node3</title>
<path fill="none" stroke="midnightblue" d="M216.104,-373.589C235.94,-378.581 260.384,-384.732 281.448,-390.033"/>
<polygon fill="midnightblue" stroke="midnightblue" points="280.618,-393.434 291.17,-392.48 282.327,-386.645 280.618,-393.434"/>
</g>
<!-- Node2&#45;&gt;Node4 -->
<g id="edge3" class="edge"><title>Node2&#45;&gt;Node4</title>
<path fill="none" stroke="midnightblue" d="M216.104,-354.411C243.985,-347.394 280.969,-338.087 304.877,-332.071"/>
<polygon fill="midnightblue" stroke="midnightblue" points="306.019,-335.393 314.862,-329.558 304.31,-328.604 306.019,-335.393"/>
</g>
<!-- Node49 -->
<g id="node49" class="node"><title>Node49</title>
<g id="a_node49"><a xlink:href="../../df/da2/classUtilOnline.html#a3a5c3dd313ba7872494d6ec35b1615f3" target="_top" xlink:title="Convert the name of a Coda file to its run number. ">
<polygon fill="none" stroke="black" points="258,-354.5 258,-373.5 402,-373.5 402,-354.5 258,-354.5"/>
<text text-anchor="middle" x="330" y="-361.5" font-family="FreeSans" font-size="10.00">UtilOnline::CodaFile2RunNum</text>
</a>
</g>
</g>
<!-- Node2&#45;&gt;Node49 -->
<g id="edge63" class="edge"><title>Node2&#45;&gt;Node49</title>
<path fill="none" stroke="midnightblue" d="M222.081,-364C230.24,-364 238.995,-364 247.854,-364"/>
<polygon fill="midnightblue" stroke="midnightblue" points="247.874,-367.5 257.874,-364 247.874,-360.5 247.874,-367.5"/>
</g>
<!-- Node5 -->
<g id="node5" class="node"><title>Node5</title>
<g id="a_node5"><a xlink:href="../../d5/de9/E1039Shielding_2ana_8C.html#a24b637aefa84c667b63905e9be5a8f69" target="_top" xlink:title="ana">
<polygon fill="none" stroke="black" points="503,-1024.5 503,-1043.5 535,-1043.5 535,-1024.5 503,-1024.5"/>
<text text-anchor="middle" x="519" y="-1031.5" font-family="FreeSans" font-size="10.00">ana</text>
</a>
</g>
</g>
<!-- Node4&#45;&gt;Node5 -->
<g id="edge4" class="edge"><title>Node4&#45;&gt;Node5</title>
<path fill="none" stroke="midnightblue" d="M345.027,-325.289C361.507,-325.304 388.331,-328.156 402,-345 495.253,-459.918 346.48,-893.697 438,-1010 450.893,-1026.38 474.539,-1031.93 492.792,-1033.65"/>
<polygon fill="midnightblue" stroke="midnightblue" points="492.597,-1037.15 502.794,-1034.27 493.031,-1030.16 492.597,-1037.15"/>
</g>
<!-- Node8 -->
<g id="node8" class="node"><title>Node8</title>
<g id="a_node8"><a xlink:href="../../da/d29/classFun4AllServer.html#ab7263450319ca1d5029209fde26a7af8" target="_top" xlink:title="Fun4AllServer::End">
<polygon fill="none" stroke="black" points="470,-613.5 470,-632.5 568,-632.5 568,-613.5 470,-613.5"/>
<text text-anchor="middle" x="519" y="-620.5" font-family="FreeSans" font-size="10.00">Fun4AllServer::End</text>
</a>
</g>
</g>
<!-- Node4&#45;&gt;Node8 -->
<g id="edge7" class="edge"><title>Node4&#45;&gt;Node8</title>
<path fill="none" stroke="midnightblue" d="M345.214,-325.638C361.363,-326.047 387.368,-329.333 402,-345 458.877,-405.899 401.818,-453.937 438,-529 452.914,-559.941 480.513,-588.985 499.066,-606.38"/>
<polygon fill="midnightblue" stroke="midnightblue" points="496.897,-609.139 506.638,-613.305 501.621,-603.973 496.897,-609.139"/>
</g>
<!-- Node18 -->
<g id="node18" class="node"><title>Node18</title>
<g id="a_node18"><a xlink:href="../../d4/da9/classFun4AllInputManager.html#a8ad787f847a175450ec5beddeaa33ca6" target="_top" xlink:title="Fun4AllInputManager\l::fileopen">
<polygon fill="none" stroke="black" points="464.5,-355 464.5,-385 573.5,-385 573.5,-355 464.5,-355"/>
<text text-anchor="start" x="472.5" y="-373" font-family="FreeSans" font-size="10.00">Fun4AllInputManager</text>
<text text-anchor="middle" x="519" y="-362" font-family="FreeSans" font-size="10.00">::fileopen</text>
</a>
</g>
</g>
<!-- Node4&#45;&gt;Node18 -->
<g id="edge18" class="edge"><title>Node4&#45;&gt;Node18</title>
<path fill="none" stroke="midnightblue" d="M345.055,-329.307C368.077,-334.724 415.187,-345.809 454.433,-355.043"/>
<polygon fill="midnightblue" stroke="midnightblue" points="453.686,-358.463 464.221,-357.346 455.289,-351.649 453.686,-358.463"/>
</g>
<!-- Node9 -->
<g id="node9" class="node"><title>Node9</title>
<g id="a_node9"><a xlink:href="../../d8/d14/classrecoConsts.html#ae69a5c29a7199ba16d0e537158618802" target="_top" xlink:title="recoConsts::instance">
<polygon fill="none" stroke="black" points="824.5,-910.5 824.5,-929.5 929.5,-929.5 929.5,-910.5 824.5,-910.5"/>
<text text-anchor="middle" x="877" y="-917.5" font-family="FreeSans" font-size="10.00">recoConsts::instance</text>
</a>
</g>
</g>
<!-- Node4&#45;&gt;Node9 -->
<g id="edge19" class="edge"><title>Node4&#45;&gt;Node9</title>
<path fill="none" stroke="midnightblue" d="M345.253,-325.344C361.694,-325.444 388.223,-328.41 402,-345 468.64,-425.244 390.027,-720.379 438,-813 490.554,-914.464 528.501,-938.261 636,-977 690.356,-996.588 709.865,-990.68 766,-977 798.913,-968.979 832.964,-949.252 854.295,-935.259"/>
<polygon fill="midnightblue" stroke="midnightblue" points="856.271,-938.148 862.617,-929.664 852.366,-932.339 856.271,-938.148"/>
</g>
<!-- Node19 -->
<g id="node19" class="node"><title>Node19</title>
<g id="a_node19"><a xlink:href="../../da/d29/classFun4AllServer.html#a3e55156f91b2c94bb6c4ef33ffce587a" target="_top" xlink:title="Fun4AllServer::instance">
<polygon fill="none" stroke="black" points="642,-518.5 642,-537.5 760,-537.5 760,-518.5 642,-518.5"/>
<text text-anchor="middle" x="701" y="-525.5" font-family="FreeSans" font-size="10.00">Fun4AllServer::instance</text>
</a>
</g>
</g>
<!-- Node4&#45;&gt;Node19 -->
<g id="edge20" class="edge"><title>Node4&#45;&gt;Node19</title>
<path fill="none" stroke="midnightblue" d="M345.04,-325.806C361.025,-326.373 386.876,-329.808 402,-345 446.416,-389.617 391.671,-439.372 438,-482 489.857,-529.714 572.977,-536.891 631.668,-534.903"/>
<polygon fill="midnightblue" stroke="midnightblue" points="632.126,-538.387 641.964,-534.453 631.82,-531.393 632.126,-538.387"/>
</g>
<!-- Node20 -->
<g id="node20" class="node"><title>Node20</title>
<g id="a_node20"><a xlink:href="../../d0/da0/classGeomSvc.html#a2b7ecf5467120206b9479654c48ad7c4" target="_top" xlink:title="singlton instance ">
<polygon fill="none" stroke="black" points="469,-278.5 469,-297.5 569,-297.5 569,-278.5 469,-278.5"/>
<text text-anchor="middle" x="519" y="-285.5" font-family="FreeSans" font-size="10.00">GeomSvc::instance</text>
</a>
</g>
</g>
<!-- Node4&#45;&gt;Node20 -->
<g id="edge21" class="edge"><title>Node4&#45;&gt;Node20</title>
<path fill="none" stroke="midnightblue" d="M345.055,-323.144C369.408,-318.195 420.716,-307.769 461.156,-299.551"/>
<polygon fill="midnightblue" stroke="midnightblue" points="462.077,-302.936 471.18,-297.514 460.683,-296.076 462.077,-302.936"/>
</g>
<!-- Node29 -->
<g id="node29" class="node"><title>Node29</title>
<g id="a_node29"><a xlink:href="../../d8/d14/classrecoConsts.html#a5502a14fdb8433de15c2e71351f281d6" target="_top" xlink:title="recoConsts::Print">
<polygon fill="none" stroke="black" points="474.5,-240.5 474.5,-259.5 563.5,-259.5 563.5,-240.5 474.5,-240.5"/>
<text text-anchor="middle" x="519" y="-247.5" font-family="FreeSans" font-size="10.00">recoConsts::Print</text>
</a>
</g>
</g>
<!-- Node4&#45;&gt;Node29 -->
<g id="edge33" class="edge"><title>Node4&#45;&gt;Node29</title>
<path fill="none" stroke="midnightblue" d="M345.324,-316.828C365.341,-304.377 403.151,-282.17 438,-269 446.344,-265.847 455.381,-263.101 464.275,-260.751"/>
<polygon fill="midnightblue" stroke="midnightblue" points="465.359,-264.088 474.212,-258.266 463.661,-257.297 465.359,-264.088"/>
</g>
<!-- Node30 -->
<g id="node30" class="node"><title>Node30</title>
<g id="a_node30"><a xlink:href="../../da/d29/classFun4AllServer.html#ae3fe7393e52376b515c60dd927670f2e" target="_top" xlink:title="Fun4AllServer::PrintTimer">
<polygon fill="none" stroke="black" points="455.5,-202.5 455.5,-221.5 582.5,-221.5 582.5,-202.5 455.5,-202.5"/>
<text text-anchor="middle" x="519" y="-209.5" font-family="FreeSans" font-size="10.00">Fun4AllServer::PrintTimer</text>
</a>
</g>
</g>
<!-- Node4&#45;&gt;Node30 -->
<g id="edge34" class="edge"><title>Node4&#45;&gt;Node30</title>
<path fill="none" stroke="midnightblue" d="M338.759,-316.493C355.031,-297.219 394.804,-253.467 438,-231 442.553,-228.632 447.406,-226.554 452.383,-224.732"/>
<polygon fill="midnightblue" stroke="midnightblue" points="453.666,-227.994 462.064,-221.533 451.47,-221.347 453.666,-227.994"/>
</g>
<!-- Node31 -->
<g id="node31" class="node"><title>Node31</title>
<g id="a_node31"><a xlink:href="../../dc/da8/classAnaModule.html#aae26c89fb67266a27325b364ba48cc38" target="_top" xlink:title="AnaModule::registerDetector">
<polygon fill="none" stroke="black" points="450,-164.5 450,-183.5 588,-183.5 588,-164.5 450,-164.5"/>
<text text-anchor="middle" x="519" y="-171.5" font-family="FreeSans" font-size="10.00">AnaModule::registerDetector</text>
</a>
</g>
</g>
<!-- Node4&#45;&gt;Node31 -->
<g id="edge35" class="edge"><title>Node4&#45;&gt;Node31</title>
<path fill="none" stroke="midnightblue" d="M335.744,-316.492C348.552,-291.853 386.382,-225.596 438,-193 441.366,-190.874 444.949,-188.986 448.66,-187.309"/>
<polygon fill="midnightblue" stroke="midnightblue" points="450.1,-190.503 458.102,-183.56 447.516,-183.997 450.1,-190.503"/>
</g>
<!-- Node33 -->
<g id="node33" class="node"><title>Node33</title>
<g id="a_node33"><a xlink:href="../../da/d29/classFun4AllServer.html#ab2cb490790d15b865ae79eb3094caabe" target="_top" xlink:title="Fun4AllServer::registerInput\lManager">
<polygon fill="none" stroke="black" points="451.5,-404 451.5,-434 586.5,-434 586.5,-404 451.5,-404"/>
<text text-anchor="start" x="459.5" y="-422" font-family="FreeSans" font-size="10.00">Fun4AllServer::registerInput</text>
<text text-anchor="middle" x="519" y="-411" font-family="FreeSans" font-size="10.00">Manager</text>
</a>
</g>
</g>
<!-- Node4&#45;&gt;Node33 -->
<g id="edge37" class="edge"><title>Node4&#45;&gt;Node33</title>
<path fill="none" stroke="midnightblue" d="M345.223,-327.024C360.442,-328.718 384.721,-333.196 402,-345 424.314,-360.243 416.007,-378.298 438,-394 440.724,-395.945 443.604,-397.742 446.59,-399.402"/>
<polygon fill="midnightblue" stroke="midnightblue" points="445.305,-402.671 455.818,-403.983 448.418,-396.401 445.305,-402.671"/>
</g>
<!-- Node36 -->
<g id="node36" class="node"><title>Node36</title>
<g id="a_node36"><a xlink:href="../../da/d29/classFun4AllServer.html#a0a9947db0ede1e55622001eb7515f8c0" target="_top" xlink:title="Fun4AllServer::registerSubsystem">
<polygon fill="none" stroke="black" points="438.5,-453.5 438.5,-472.5 599.5,-472.5 599.5,-453.5 438.5,-453.5"/>
<text text-anchor="middle" x="519" y="-460.5" font-family="FreeSans" font-size="10.00">Fun4AllServer::registerSubsystem</text>
</a>
</g>
</g>
<!-- Node4&#45;&gt;Node36 -->
<g id="edge41" class="edge"><title>Node4&#45;&gt;Node36</title>
<path fill="none" stroke="midnightblue" d="M345.072,-326.082C360.845,-326.923 386.265,-330.63 402,-345 436.262,-376.292 403.481,-411.992 438,-443 440.321,-445.085 442.828,-446.961 445.47,-448.646"/>
<polygon fill="midnightblue" stroke="midnightblue" points="443.85,-451.749 454.314,-453.411 447.17,-445.587 443.85,-451.749"/>
</g>
<!-- Node39 -->
<g id="node39" class="node"><title>Node39</title>
<g id="a_node39"><a xlink:href="../../da/d29/classFun4AllServer.html#a11bbc8b2f53bc06e0b05ee202dd6372a" target="_top" xlink:title="run n events (0 means up to end of file) ">
<polygon fill="none" stroke="black" points="471.5,-784.5 471.5,-803.5 566.5,-803.5 566.5,-784.5 471.5,-784.5"/>
<text text-anchor="middle" x="519" y="-791.5" font-family="FreeSans" font-size="10.00">Fun4AllServer::run</text>
</a>
</g>
</g>
<!-- Node4&#45;&gt;Node39 -->
<g id="edge46" class="edge"><title>Node4&#45;&gt;Node39</title>
<path fill="none" stroke="midnightblue" d="M345.128,-325.45C361.449,-325.652 387.862,-328.716 402,-345 445.586,-395.202 418.191,-578.537 438,-642 454.055,-693.437 487.303,-747.99 505.473,-775.633"/>
<polygon fill="midnightblue" stroke="midnightblue" points="502.755,-777.866 511.219,-784.239 508.577,-773.979 502.755,-777.866"/>
</g>
<!-- Node45 -->
<g id="node45" class="node"><title>Node45</title>
<g id="a_node45"><a xlink:href="../../d1/da8/classPHFlag.html#a64f8c67e9313e5cecdbed51f747026da" target="_top" xlink:title="PHFlag::set_DoubleFlag">
<polygon fill="none" stroke="black" points="459,-126.5 459,-145.5 579,-145.5 579,-126.5 459,-126.5"/>
<text text-anchor="middle" x="519" y="-133.5" font-family="FreeSans" font-size="10.00">PHFlag::set_DoubleFlag</text>
</a>
</g>
</g>
<!-- Node4&#45;&gt;Node45 -->
<g id="edge59" class="edge"><title>Node4&#45;&gt;Node45</title>
<path fill="none" stroke="midnightblue" d="M334.05,-316.418C343.885,-287.149 377.68,-198.284 438,-155 441.523,-152.472 445.336,-150.276 449.321,-148.37"/>
<polygon fill="midnightblue" stroke="midnightblue" points="450.968,-151.477 458.875,-144.426 448.296,-145.007 450.968,-151.477"/>
</g>
<!-- Node46 -->
<g id="node46" class="node"><title>Node46</title>
<g id="a_node46"><a xlink:href="../../dc/da8/classAnaModule.html#a815e50856d90a0bc816ad165bcf8d8f4" target="_top" xlink:title="AnaModule::set_output\l_filename">
<polygon fill="none" stroke="black" points="461.5,-77 461.5,-107 576.5,-107 576.5,-77 461.5,-77"/>
<text text-anchor="start" x="469.5" y="-95" font-family="FreeSans" font-size="10.00">AnaModule::set_output</text>
<text text-anchor="middle" x="519" y="-84" font-family="FreeSans" font-size="10.00">_filename</text>
</a>
</g>
</g>
<!-- Node4&#45;&gt;Node46 -->
<g id="edge60" class="edge"><title>Node4&#45;&gt;Node46</title>
<path fill="none" stroke="midnightblue" d="M333.089,-316.443C340.785,-283.521 370.671,-173.74 438,-117 442.242,-113.425 446.995,-110.36 452.013,-107.733"/>
<polygon fill="midnightblue" stroke="midnightblue" points="453.661,-110.827 461.277,-103.462 450.73,-104.471 453.661,-110.827"/>
</g>
<!-- Node47 -->
<g id="node47" class="node"><title>Node47</title>
<g id="a_node47"><a xlink:href="../../d0/da0/classGeomSvc.html#a5c51613529dae6339bb35eb99e81f758" target="_top" xlink:title="GeomSvc::UseDbSvc">
<polygon fill="none" stroke="black" points="464.5,-38.5 464.5,-57.5 573.5,-57.5 573.5,-38.5 464.5,-38.5"/>
<text text-anchor="middle" x="519" y="-45.5" font-family="FreeSans" font-size="10.00">GeomSvc::UseDbSvc</text>
</a>
</g>
</g>
<!-- Node4&#45;&gt;Node47 -->
<g id="edge61" class="edge"><title>Node4&#45;&gt;Node47</title>
<path fill="none" stroke="midnightblue" d="M331.893,-316.455C335.98,-278.454 356.374,-136.609 438,-67 442.918,-62.8057 448.6,-59.5007 454.62,-56.9017"/>
<polygon fill="midnightblue" stroke="midnightblue" points="456.104,-60.0863 464.3,-53.3722 453.706,-53.5098 456.104,-60.0863"/>
</g>
<!-- Node48 -->
<g id="node48" class="node"><title>Node48</title>
<g id="a_node48"><a xlink:href="../../d5/dec/classFun4AllBase.html#a05da2261577843028cf78e99171343b9" target="_top" xlink:title="Sets the verbosity of this module (0 by default=quiet). ">
<polygon fill="none" stroke="black" points="461.5,-0.5 461.5,-19.5 576.5,-19.5 576.5,-0.5 461.5,-0.5"/>
<text text-anchor="middle" x="519" y="-7.5" font-family="FreeSans" font-size="10.00">Fun4AllBase::Verbosity</text>
</a>
</g>
</g>
<!-- Node4&#45;&gt;Node48 -->
<g id="edge62" class="edge"><title>Node4&#45;&gt;Node48</title>
<path fill="none" stroke="midnightblue" d="M331.345,-316.247C333.37,-274.617 347.056,-110.239 438,-29 442.125,-25.3149 446.835,-22.31 451.857,-19.8639"/>
<polygon fill="midnightblue" stroke="midnightblue" points="453.254,-23.0738 461.176,-16.0382 450.596,-16.5982 453.254,-23.0738"/>
</g>
<!-- Node6 -->
<g id="node6" class="node"><title>Node6</title>
<g id="a_node6"><a xlink:href="../../d5/de9/E1039Shielding_2ana_8C.html#a4770f9752bd2f6c264c3a5f0e5f07bf3" target="_top" xlink:title="drawSnglAccPz">
<polygon fill="none" stroke="black" points="658.5,-1024.5 658.5,-1043.5 743.5,-1043.5 743.5,-1024.5 658.5,-1024.5"/>
<text text-anchor="middle" x="701" y="-1031.5" font-family="FreeSans" font-size="10.00">drawSnglAccPz</text>
</a>
</g>
</g>
<!-- Node5&#45;&gt;Node6 -->
<g id="edge5" class="edge"><title>Node5&#45;&gt;Node6</title>
<path fill="none" stroke="midnightblue" d="M535.037,-1034C559.702,-1034 609.866,-1034 648.434,-1034"/>
<polygon fill="midnightblue" stroke="midnightblue" points="648.47,-1037.5 658.47,-1034 648.469,-1030.5 648.47,-1037.5"/>
</g>
<!-- Node7 -->
<g id="node7" class="node"><title>Node7</title>
<g id="a_node7"><a xlink:href="../../d5/de9/E1039Shielding_2ana_8C.html#a68f99920be96fd675894490fd64e9a37" target="_top" xlink:title="getEffHist">
<polygon fill="none" stroke="red" points="848.5,-1024.5 848.5,-1043.5 905.5,-1043.5 905.5,-1024.5 848.5,-1024.5"/>
<text text-anchor="middle" x="877" y="-1031.5" font-family="FreeSans" font-size="10.00">getEffHist</text>
</a>
</g>
</g>
<!-- Node6&#45;&gt;Node7 -->
<g id="edge6" class="edge"><title>Node6&#45;&gt;Node7</title>
<path fill="none" stroke="midnightblue" d="M743.677,-1034C772.473,-1034 810.459,-1034 838.343,-1034"/>
<polygon fill="midnightblue" stroke="midnightblue" points="838.494,-1037.5 848.494,-1034 838.494,-1030.5 838.494,-1037.5"/>
</g>
<!-- Node8&#45;&gt;Node9 -->
<g id="edge8" class="edge"><title>Node8&#45;&gt;Node9</title>
<path fill="none" stroke="midnightblue" d="M568.055,-623.937C631.624,-626.231 738.816,-634.098 766,-661 835.799,-730.077 745.402,-798.75 802,-879 810.447,-890.976 823.551,-899.845 836.399,-906.21"/>
<polygon fill="midnightblue" stroke="midnightblue" points="835.086,-909.458 845.638,-910.41 837.983,-903.086 835.086,-909.458"/>
</g>
<!-- Node11 -->
<g id="node11" class="node"><title>Node11</title>
<g id="a_node11"><a xlink:href="../../da/d29/classFun4AllServer.html#a53b1b6b338aa36891f2690a188920980" target="_top" xlink:title="Fun4AllServer::EndRun">
<polygon fill="none" stroke="black" points="643,-670.5 643,-689.5 759,-689.5 759,-670.5 643,-670.5"/>
<text text-anchor="middle" x="701" y="-677.5" font-family="FreeSans" font-size="10.00">Fun4AllServer::EndRun</text>
</a>
</g>
</g>
<!-- Node8&#45;&gt;Node11 -->
<g id="edge10" class="edge"><title>Node8&#45;&gt;Node11</title>
<path fill="none" stroke="midnightblue" d="M550.128,-632.541C580.24,-642.076 626.717,-656.794 659.926,-667.31"/>
<polygon fill="midnightblue" stroke="midnightblue" points="659.184,-670.746 669.774,-670.428 661.297,-664.073 659.184,-670.746"/>
</g>
<!-- Node12 -->
<g id="node12" class="node"><title>Node12</title>
<g id="a_node12"><a xlink:href="../../d1/da8/classPHFlag.html#a07899067141a5f12333cc37183caddc8" target="_top" xlink:title="PHFlag::get_IntFlag">
<polygon fill="none" stroke="black" points="650,-708.5 650,-727.5 752,-727.5 752,-708.5 650,-708.5"/>
<text text-anchor="middle" x="701" y="-715.5" font-family="FreeSans" font-size="10.00">PHFlag::get_IntFlag</text>
</a>
</g>
</g>
<!-- Node8&#45;&gt;Node12 -->
<g id="edge11" class="edge"><title>Node8&#45;&gt;Node12</title>
<path fill="none" stroke="midnightblue" d="M532.164,-632.713C552.548,-648.575 595.375,-680.157 636,-699 640.929,-701.286 646.198,-703.372 651.518,-705.254"/>
<polygon fill="midnightblue" stroke="midnightblue" points="650.494,-708.602 661.087,-708.422 652.694,-701.957 650.494,-708.602"/>
</g>
<!-- Node13 -->
<g id="node13" class="node"><title>Node13</title>
<g id="a_node13"><a xlink:href="../../d5/d07/classPHNodeIterator.html#aea98bf8619af59b1212a94fb32106baa" target="_top" xlink:title="PHNodeIterator::findFirst">
<polygon fill="none" stroke="black" points="816,-683.5 816,-702.5 938,-702.5 938,-683.5 816,-683.5"/>
<text text-anchor="middle" x="877" y="-690.5" font-family="FreeSans" font-size="10.00">PHNodeIterator::findFirst</text>
</a>
</g>
</g>
<!-- Node8&#45;&gt;Node13 -->
<g id="edge12" class="edge"><title>Node8&#45;&gt;Node13</title>
<path fill="none" stroke="midnightblue" d="M568.221,-616.872C618.606,-612.099 699.436,-609.074 766,-628 800.538,-637.82 835.38,-661.21 856.331,-677.083"/>
<polygon fill="midnightblue" stroke="midnightblue" points="854.374,-679.994 864.418,-683.364 858.667,-674.466 854.374,-679.994"/>
</g>
<!-- Node16 -->
<g id="node16" class="node"><title>Node16</title>
<g id="a_node16"><a xlink:href="../../da/d29/classFun4AllServer.html#a6f2074f451d0c0c1b4a802edde5ffb94" target="_top" xlink:title="Fun4AllServer::outfileclose">
<polygon fill="none" stroke="black" points="636,-556.5 636,-575.5 766,-575.5 766,-556.5 636,-556.5"/>
<text text-anchor="middle" x="701" y="-563.5" font-family="FreeSans" font-size="10.00">Fun4AllServer::outfileclose</text>
</a>
</g>
</g>
<!-- Node8&#45;&gt;Node16 -->
<g id="edge16" class="edge"><title>Node8&#45;&gt;Node16</title>
<path fill="none" stroke="midnightblue" d="M550.128,-613.459C580.24,-603.924 626.717,-589.206 659.926,-578.69"/>
<polygon fill="midnightblue" stroke="midnightblue" points="661.297,-581.927 669.774,-575.572 659.184,-575.254 661.297,-581.927"/>
</g>
<!-- Node10 -->
<g id="node10" class="node"><title>Node10</title>
<g id="a_node10"><a xlink:href="../../d8/d14/classrecoConsts.html#ae882d6adc62f783ec78114fe3dee3c24" target="_top" xlink:title="recoConsts::recoConsts">
<polygon fill="none" stroke="black" points="1002.5,-910.5 1002.5,-929.5 1119.5,-929.5 1119.5,-910.5 1002.5,-910.5"/>
<text text-anchor="middle" x="1061" y="-917.5" font-family="FreeSans" font-size="10.00">recoConsts::recoConsts</text>
</a>
</g>
</g>
<!-- Node9&#45;&gt;Node10 -->
<g id="edge9" class="edge"><title>Node9&#45;&gt;Node10</title>
<path fill="none" stroke="midnightblue" d="M929.667,-920C949.175,-920 971.669,-920 992.419,-920"/>
<polygon fill="midnightblue" stroke="midnightblue" points="992.445,-923.5 1002.45,-920 992.445,-916.5 992.445,-923.5"/>
</g>
<!-- Node14 -->
<g id="node14" class="node"><title>Node14</title>
<g id="a_node14"><a xlink:href="../../dc/d82/classPHNode.html#a4ab1f90aed955a652813bfe377087bda" target="_top" xlink:title="PHNode::getType">
<polygon fill="none" stroke="black" points="1015,-702.5 1015,-721.5 1107,-721.5 1107,-702.5 1015,-702.5"/>
<text text-anchor="middle" x="1061" y="-709.5" font-family="FreeSans" font-size="10.00">PHNode::getType</text>
</a>
</g>
</g>
<!-- Node13&#45;&gt;Node14 -->
<g id="edge13" class="edge"><title>Node13&#45;&gt;Node14</title>
<path fill="none" stroke="midnightblue" d="M938.098,-699.274C959.631,-701.522 983.784,-704.043 1004.88,-706.245"/>
<polygon fill="midnightblue" stroke="midnightblue" points="1004.65,-709.741 1014.96,-707.298 1005.38,-702.778 1004.65,-709.741"/>
</g>
<!-- Node15 -->
<g id="node15" class="node"><title>Node15</title>
<g id="a_node15"><a xlink:href="../../dc/d82/classPHNode.html#aca3576f926a4401eddc3d88bf0ce0de3" target="_top" xlink:title="PHNode::getName">
<polygon fill="none" stroke="black" points="1013,-664.5 1013,-683.5 1109,-683.5 1109,-664.5 1013,-664.5"/>
<text text-anchor="middle" x="1061" y="-671.5" font-family="FreeSans" font-size="10.00">PHNode::getName</text>
</a>
</g>
</g>
<!-- Node13&#45;&gt;Node15 -->
<g id="edge14" class="edge"><title>Node13&#45;&gt;Node15</title>
<path fill="none" stroke="midnightblue" d="M938.098,-686.726C958.913,-684.553 982.176,-682.124 1002.76,-679.976"/>
<polygon fill="midnightblue" stroke="midnightblue" points="1003.35,-683.433 1012.93,-678.914 1002.62,-676.471 1003.35,-683.433"/>
</g>
<!-- Node13&#45;&gt;Node13 -->
<g id="edge15" class="edge"><title>Node13&#45;&gt;Node13</title>
<path fill="none" stroke="midnightblue" d="M849.873,-702.757C836.677,-711.565 845.719,-721 877,-721 898.506,-721 909.5,-716.541 909.983,-710.891"/>
<polygon fill="midnightblue" stroke="midnightblue" points="912.81,-708.827 904.127,-702.757 907.129,-712.917 912.81,-708.827"/>
</g>
<!-- Node17 -->
<g id="node17" class="node"><title>Node17</title>
<g id="a_node17"><a xlink:href="../../d5/dec/classFun4AllBase.html#a41f9ac377743d046f590617fd6f4f0ed" target="_top" xlink:title="Returns the name of this module. ">
<polygon fill="none" stroke="black" points="826.5,-518.5 826.5,-537.5 927.5,-537.5 927.5,-518.5 826.5,-518.5"/>
<text text-anchor="middle" x="877" y="-525.5" font-family="FreeSans" font-size="10.00">Fun4AllBase::Name</text>
</a>
</g>
</g>
<!-- Node16&#45;&gt;Node17 -->
<g id="edge17" class="edge"><title>Node16&#45;&gt;Node17</title>
<path fill="none" stroke="midnightblue" d="M745.908,-556.411C769.179,-551.329 797.954,-545.045 822.519,-539.68"/>
<polygon fill="midnightblue" stroke="midnightblue" points="823.385,-543.073 832.408,-537.52 821.892,-536.234 823.385,-543.073"/>
</g>
<!-- Node21 -->
<g id="node21" class="node"><title>Node21</title>
<g id="a_node21"><a xlink:href="../../d0/da0/classGeomSvc.html#a96ec4efc82cbaed0b5623e4dd69385b6" target="_top" xlink:title="Initialization, either from MySQL or from ascii file. ">
<polygon fill="none" stroke="black" points="662.5,-221.5 662.5,-240.5 739.5,-240.5 739.5,-221.5 662.5,-221.5"/>
<text text-anchor="middle" x="701" y="-228.5" font-family="FreeSans" font-size="10.00">GeomSvc::init</text>
</a>
</g>
</g>
<!-- Node20&#45;&gt;Node21 -->
<g id="edge22" class="edge"><title>Node20&#45;&gt;Node21</title>
<path fill="none" stroke="midnightblue" d="M564.708,-278.465C576.283,-275.702 588.674,-272.481 600,-269 623.084,-261.906 648.518,-252.214 667.958,-244.395"/>
<polygon fill="midnightblue" stroke="midnightblue" points="669.313,-247.622 677.258,-240.613 666.676,-241.138 669.313,-247.622"/>
</g>
<!-- Node22 -->
<g id="node22" class="node"><title>Node22</title>
<g id="a_node22"><a xlink:href="../../d0/da0/classGeomSvc.html#adbe1473f9b3a8ff942da8d7d8ee28322" target="_top" xlink:title="GeomSvc::initPlaneDbSvc">
<polygon fill="none" stroke="red" points="812,-316.5 812,-335.5 942,-335.5 942,-316.5 812,-316.5"/>
<text text-anchor="middle" x="877" y="-323.5" font-family="FreeSans" font-size="10.00">GeomSvc::initPlaneDbSvc</text>
</a>
</g>
</g>
<!-- Node21&#45;&gt;Node22 -->
<g id="edge23" class="edge"><title>Node21&#45;&gt;Node22</title>
<path fill="none" stroke="midnightblue" d="M712.973,-240.516C730.648,-255.429 766.992,-284.414 802,-302 810.599,-306.32 820.144,-310.094 829.442,-313.292"/>
<polygon fill="midnightblue" stroke="midnightblue" points="828.399,-316.633 838.992,-316.414 830.574,-309.98 828.399,-316.633"/>
</g>
<!-- Node23 -->
<g id="node23" class="node"><title>Node23</title>
<g id="a_node23"><a xlink:href="../../d0/da0/classGeomSvc.html#a0d550b9f787318d57cdae9db2d04d6fb" target="_top" xlink:title="GeomSvc::initPlaneDirect">
<polygon fill="none" stroke="red" points="813.5,-126.5 813.5,-145.5 940.5,-145.5 940.5,-126.5 813.5,-126.5"/>
<text text-anchor="middle" x="877" y="-133.5" font-family="FreeSans" font-size="10.00">GeomSvc::initPlaneDirect</text>
</a>
</g>
</g>
<!-- Node21&#45;&gt;Node23 -->
<g id="edge25" class="edge"><title>Node21&#45;&gt;Node23</title>
<path fill="none" stroke="midnightblue" d="M721.092,-221.469C734.305,-214.451 751.967,-204.212 766,-193 784.176,-178.478 781.949,-166.799 802,-155 805.833,-152.744 809.932,-150.754 814.16,-148.997"/>
<polygon fill="midnightblue" stroke="midnightblue" points="815.409,-152.267 823.573,-145.514 812.98,-145.702 815.409,-152.267"/>
</g>
<!-- Node24 -->
<g id="node24" class="node"><title>Node24</title>
<g id="a_node24"><a xlink:href="../../d8/d62/classJobOptsSvc.html#aeb0d694dc08274aa90b0d6b1ee8384cb" target="_top" xlink:title="singlton instance ">
<polygon fill="none" stroke="red" points="1006,-107.5 1006,-126.5 1116,-126.5 1116,-107.5 1006,-107.5"/>
<text text-anchor="middle" x="1061" y="-114.5" font-family="FreeSans" font-size="10.00">JobOptsSvc::instance</text>
</a>
</g>
</g>
<!-- Node21&#45;&gt;Node24 -->
<g id="edge28" class="edge"><title>Node21&#45;&gt;Node24</title>
<path fill="none" stroke="midnightblue" d="M725.03,-221.472C738.362,-215.025 754.689,-205.42 766,-193 791.165,-165.366 770.417,-136.987 802,-117 868.849,-74.6961 966.26,-90.764 1020.24,-104.797"/>
<polygon fill="midnightblue" stroke="midnightblue" points="1019.55,-108.236 1030.12,-107.468 1021.38,-101.479 1019.55,-108.236"/>
</g>
<!-- Node26 -->
<g id="node26" class="node"><title>Node26</title>
<g id="a_node26"><a xlink:href="../../d0/da0/classGeomSvc.html#ab6c810e39b86ce66a4be6a596b4d54b8" target="_top" xlink:title="GeomSvc::loadAlignment">
<polygon fill="none" stroke="black" points="814.5,-240.5 814.5,-259.5 939.5,-259.5 939.5,-240.5 814.5,-240.5"/>
<text text-anchor="middle" x="877" y="-247.5" font-family="FreeSans" font-size="10.00">GeomSvc::loadAlignment</text>
</a>
</g>
</g>
<!-- Node21&#45;&gt;Node26 -->
<g id="edge29" class="edge"><title>Node21&#45;&gt;Node26</title>
<path fill="none" stroke="midnightblue" d="M739.755,-235.123C758.651,-237.186 782.167,-239.754 804.316,-242.172"/>
<polygon fill="midnightblue" stroke="midnightblue" points="804.054,-245.665 814.375,-243.271 804.814,-238.706 804.054,-245.665"/>
</g>
<!-- Node25 -->
<g id="node25" class="node"><title>Node25</title>
<g id="a_node25"><a xlink:href="../../d0/da0/classGeomSvc.html#a418543d7b33fc95092b2cd4a7496f1b8" target="_top" xlink:title="GeomSvc::loadMilleAlignment">
<polygon fill="none" stroke="black" points="988,-221.5 988,-240.5 1134,-240.5 1134,-221.5 988,-221.5"/>
<text text-anchor="middle" x="1061" y="-228.5" font-family="FreeSans" font-size="10.00">GeomSvc::loadMilleAlignment</text>
</a>
</g>
</g>
<!-- Node21&#45;&gt;Node25 -->
<g id="edge30" class="edge"><title>Node21&#45;&gt;Node25</title>
<path fill="none" stroke="midnightblue" d="M720.942,-240.584C740.62,-249.963 772.59,-263.6 802,-269 867.571,-281.038 886.285,-280.224 952,-269 979.232,-264.349 1008.73,-253.547 1030,-244.644"/>
<polygon fill="midnightblue" stroke="midnightblue" points="1031.64,-247.75 1039.45,-240.589 1028.88,-241.317 1031.64,-247.75"/>
</g>
<!-- Node27 -->
<g id="node27" class="node"><title>Node27</title>
<g id="a_node27"><a xlink:href="../../d0/da0/classGeomSvc.html#abc60088ed5985a796f5df18ae4299661" target="_top" xlink:title="GeomSvc::loadCalibration">
<polygon fill="none" stroke="red" points="813,-202.5 813,-221.5 941,-221.5 941,-202.5 813,-202.5"/>
<text text-anchor="middle" x="877" y="-209.5" font-family="FreeSans" font-size="10.00">GeomSvc::loadCalibration</text>
</a>
</g>
</g>
<!-- Node21&#45;&gt;Node27 -->
<g id="edge31" class="edge"><title>Node21&#45;&gt;Node27</title>
<path fill="none" stroke="midnightblue" d="M739.755,-226.877C758.134,-224.87 780.885,-222.386 802.497,-220.026"/>
<polygon fill="midnightblue" stroke="midnightblue" points="803.096,-223.482 812.657,-218.917 802.336,-216.523 803.096,-223.482"/>
</g>
<!-- Node28 -->
<g id="node28" class="node"><title>Node28</title>
<g id="a_node28"><a xlink:href="../../d0/da0/classGeomSvc.html#a0c78d3ac904cfbb367e96c73f176630d" target="_top" xlink:title="GeomSvc::initWireLUT">
<polygon fill="none" stroke="black" points="820,-164.5 820,-183.5 934,-183.5 934,-164.5 820,-164.5"/>
<text text-anchor="middle" x="877" y="-171.5" font-family="FreeSans" font-size="10.00">GeomSvc::initWireLUT</text>
</a>
</g>
</g>
<!-- Node21&#45;&gt;Node28 -->
<g id="edge32" class="edge"><title>Node21&#45;&gt;Node28</title>
<path fill="none" stroke="midnightblue" d="M725.178,-221.346C745.281,-213.178 775.269,-201.481 802,-193 809.556,-190.603 817.617,-188.289 825.536,-186.151"/>
<polygon fill="midnightblue" stroke="midnightblue" points="826.662,-189.474 835.441,-183.543 824.88,-182.704 826.662,-189.474"/>
</g>
<!-- Node22&#45;&gt;Node4 -->
<g id="edge24" class="edge"><title>Node22&#45;&gt;Node4</title>
<path fill="none" stroke="midnightblue" d="M811.965,-326C691.158,-326 434.599,-326 355.039,-326"/>
<polygon fill="midnightblue" stroke="midnightblue" points="355.02,-322.5 345.02,-326 355.02,-329.5 355.02,-322.5"/>
</g>
<!-- Node23&#45;&gt;Node24 -->
<g id="edge26" class="edge"><title>Node23&#45;&gt;Node24</title>
<path fill="none" stroke="midnightblue" d="M940.634,-129.461C958.341,-127.613 977.639,-125.598 995.456,-123.738"/>
<polygon fill="midnightblue" stroke="midnightblue" points="996.17,-127.183 1005.75,-122.663 995.443,-120.221 996.17,-127.183"/>
</g>
<!-- Node23&#45;&gt;Node25 -->
<g id="edge27" class="edge"><title>Node23&#45;&gt;Node25</title>
<path fill="none" stroke="midnightblue" d="M925.86,-145.577C934.75,-148.11 943.81,-151.221 952,-155 986.216,-170.786 1021.01,-197.628 1041.54,-214.823"/>
<polygon fill="midnightblue" stroke="midnightblue" points="1039.29,-217.506 1049.18,-221.327 1043.83,-212.178 1039.29,-217.506"/>
</g>
<!-- Node32 -->
<g id="node32" class="node"><title>Node32</title>
<g id="a_node32"><a xlink:href="../../d0/da0/classGeomSvc.html#a3e4f40789e9b2a98477ab8e8191d5ff2" target="_top" xlink:title="Get the plane position. ">
<polygon fill="none" stroke="black" points="639,-164.5 639,-183.5 763,-183.5 763,-164.5 639,-164.5"/>
<text text-anchor="middle" x="701" y="-171.5" font-family="FreeSans" font-size="10.00">GeomSvc::getDetectorID</text>
</a>
</g>
</g>
<!-- Node31&#45;&gt;Node32 -->
<g id="edge36" class="edge"><title>Node31&#45;&gt;Node32</title>
<path fill="none" stroke="midnightblue" d="M588.05,-174C601.378,-174 615.39,-174 628.818,-174"/>
<polygon fill="midnightblue" stroke="midnightblue" points="628.95,-177.5 638.95,-174 628.95,-170.5 628.95,-177.5"/>
</g>
<!-- Node34 -->
<g id="node34" class="node"><title>Node34</title>
<g id="a_node34"><a xlink:href="../../dd/ded/classFun4AllSyncManager.html#a2a284bc4ed777ec7f39d6e5c7090067c" target="_top" xlink:title="Fun4AllSyncManager\l::registerInputManager">
<polygon fill="none" stroke="black" points="645,-355 645,-385 757,-385 757,-355 645,-355"/>
<text text-anchor="start" x="653" y="-373" font-family="FreeSans" font-size="10.00">Fun4AllSyncManager</text>
<text text-anchor="middle" x="701" y="-362" font-family="FreeSans" font-size="10.00">::registerInputManager</text>
</a>
</g>
</g>
<!-- Node33&#45;&gt;Node34 -->
<g id="edge38" class="edge"><title>Node33&#45;&gt;Node34</title>
<path fill="none" stroke="midnightblue" d="M575.475,-403.899C594.297,-398.775 615.494,-393.004 634.991,-387.697"/>
<polygon fill="midnightblue" stroke="midnightblue" points="635.979,-391.055 644.708,-385.052 634.14,-384.301 635.979,-391.055"/>
</g>
<!-- Node34&#45;&gt;Node17 -->
<g id="edge39" class="edge"><title>Node34&#45;&gt;Node17</title>
<path fill="none" stroke="midnightblue" d="M748.909,-385.082C754.915,-387.931 760.78,-391.225 766,-395 810.309,-427.041 847.342,-480.983 864.958,-509.322"/>
<polygon fill="midnightblue" stroke="midnightblue" points="862.172,-511.476 870.359,-518.2 868.152,-507.838 862.172,-511.476"/>
</g>
<!-- Node35 -->
<g id="node35" class="node"><title>Node35</title>
<g id="a_node35"><a xlink:href="../../d4/da9/classFun4AllInputManager.html#a5b0cdb689482c4143b7b22ca8a780c51" target="_top" xlink:title="Fun4AllInputManager\l::setSyncManager">
<polygon fill="none" stroke="black" points="822.5,-355 822.5,-385 931.5,-385 931.5,-355 822.5,-355"/>
<text text-anchor="start" x="830.5" y="-373" font-family="FreeSans" font-size="10.00">Fun4AllInputManager</text>
<text text-anchor="middle" x="877" y="-362" font-family="FreeSans" font-size="10.00">::setSyncManager</text>
</a>
</g>
</g>
<!-- Node34&#45;&gt;Node35 -->
<g id="edge40" class="edge"><title>Node34&#45;&gt;Node35</title>
<path fill="none" stroke="midnightblue" d="M757.055,-370C774.614,-370 794.19,-370 812.31,-370"/>
<polygon fill="midnightblue" stroke="midnightblue" points="812.493,-373.5 822.493,-370 812.493,-366.5 812.493,-373.5"/>
</g>
<!-- Node36&#45;&gt;Node19 -->
<g id="edge42" class="edge"><title>Node36&#45;&gt;Node19</title>
<path fill="none" stroke="midnightblue" d="M546.56,-472.591C577.623,-483.808 629.202,-502.434 663.884,-514.958"/>
<polygon fill="midnightblue" stroke="midnightblue" points="663.03,-518.371 673.625,-518.476 665.408,-511.787 663.03,-518.371"/>
</g>
<!-- Node36&#45;&gt;Node17 -->
<g id="edge43" class="edge"><title>Node36&#45;&gt;Node17</title>
<path fill="none" stroke="midnightblue" d="M572.147,-472.521C637.085,-484.378 747.776,-504.588 816.12,-517.067"/>
<polygon fill="midnightblue" stroke="midnightblue" points="815.833,-520.572 826.299,-518.925 817.09,-513.686 815.833,-520.572"/>
</g>
<!-- Node37 -->
<g id="node37" class="node"><title>Node37</title>
<g id="a_node37"><a xlink:href="../../da/d29/classFun4AllServer.html#abcaf6825367e5db292ff795237bdcf62" target="_top" xlink:title="Fun4AllServer::topNode">
<polygon fill="none" stroke="black" points="642,-442.5 642,-461.5 760,-461.5 760,-442.5 642,-442.5"/>
<text text-anchor="middle" x="701" y="-449.5" font-family="FreeSans" font-size="10.00">Fun4AllServer::topNode</text>
</a>
</g>
</g>
<!-- Node36&#45;&gt;Node37 -->
<g id="edge44" class="edge"><title>Node36&#45;&gt;Node37</title>
<path fill="none" stroke="midnightblue" d="M599.737,-458.127C610.386,-457.476 621.23,-456.814 631.661,-456.176"/>
<polygon fill="midnightblue" stroke="midnightblue" points="632.165,-459.652 641.932,-455.549 631.738,-452.665 632.165,-459.652"/>
</g>
<!-- Node38 -->
<g id="node38" class="node"><title>Node38</title>
<g id="a_node38"><a xlink:href="../../d0/d32/classSubsysReco.html#a6670c0a093dd2c2bdd44f8fc6f9ba8e8" target="_top" xlink:title="SubsysReco::Init">
<polygon fill="none" stroke="black" points="657,-404.5 657,-423.5 745,-423.5 745,-404.5 657,-404.5"/>
<text text-anchor="middle" x="701" y="-411.5" font-family="FreeSans" font-size="10.00">SubsysReco::Init</text>
</a>
</g>
</g>
<!-- Node36&#45;&gt;Node38 -->
<g id="edge45" class="edge"><title>Node36&#45;&gt;Node38</title>
<path fill="none" stroke="midnightblue" d="M559.546,-453.424C572.467,-450.212 586.869,-446.544 600,-443 619.29,-437.794 640.564,-431.677 658.514,-426.407"/>
<polygon fill="midnightblue" stroke="midnightblue" points="659.508,-429.762 668.11,-423.577 657.528,-423.048 659.508,-429.762"/>
</g>
<!-- Node39&#45;&gt;Node9 -->
<g id="edge47" class="edge"><title>Node39&#45;&gt;Node9</title>
<path fill="none" stroke="midnightblue" d="M529.178,-803.6C547.533,-822.147 590.889,-862.767 636,-882 693.362,-906.456 764.497,-915.339 814.376,-918.479"/>
<polygon fill="midnightblue" stroke="midnightblue" points="814.187,-921.974 824.371,-919.05 814.586,-914.986 814.187,-921.974"/>
</g>
<!-- Node40 -->
<g id="node40" class="node"><title>Node40</title>
<g id="a_node40"><a xlink:href="../../d1/da8/classPHFlag.html#a4b73a422f0076568904d71f40e849da5" target="_top" xlink:title="PHFlag::FlagExist">
<polygon fill="none" stroke="black" points="655,-746.5 655,-765.5 747,-765.5 747,-746.5 655,-746.5"/>
<text text-anchor="middle" x="701" y="-753.5" font-family="FreeSans" font-size="10.00">PHFlag::FlagExist</text>
</a>
</g>
</g>
<!-- Node39&#45;&gt;Node40 -->
<g id="edge48" class="edge"><title>Node39&#45;&gt;Node40</title>
<path fill="none" stroke="midnightblue" d="M565.422,-784.411C589.603,-779.306 619.527,-772.989 645.014,-767.608"/>
<polygon fill="midnightblue" stroke="midnightblue" points="645.844,-771.01 654.905,-765.52 644.398,-764.161 645.844,-771.01"/>
</g>
<!-- Node39&#45;&gt;Node12 -->
<g id="edge49" class="edge"><title>Node39&#45;&gt;Node12</title>
<path fill="none" stroke="midnightblue" d="M537.273,-784.367C559.581,-772.196 599.845,-751.134 636,-737 641.88,-734.701 648.155,-732.521 654.391,-730.512"/>
<polygon fill="midnightblue" stroke="midnightblue" points="655.58,-733.808 664.095,-727.505 653.508,-727.122 655.58,-733.808"/>
</g>
<!-- Node41 -->
<g id="node41" class="node"><title>Node41</title>
<g id="a_node41"><a xlink:href="../../da/d29/classFun4AllServer.html#ab2479a9a3e45d51118e308597acd5228" target="_top" xlink:title="Fun4AllServer::ResetNodeTree">
<polygon fill="none" stroke="red" points="802.5,-850.5 802.5,-869.5 951.5,-869.5 951.5,-850.5 802.5,-850.5"/>
<text text-anchor="middle" x="877" y="-857.5" font-family="FreeSans" font-size="10.00">Fun4AllServer::ResetNodeTree</text>
</a>
</g>
</g>
<!-- Node39&#45;&gt;Node41 -->
<g id="edge50" class="edge"><title>Node39&#45;&gt;Node41</title>
<path fill="none" stroke="midnightblue" d="M531.557,-803.664C551.394,-819.551 593.872,-850.562 636,-862 691.187,-876.983 756.177,-875.327 804.6,-870.566"/>
<polygon fill="midnightblue" stroke="midnightblue" points="805.092,-874.033 814.672,-869.507 804.361,-867.072 805.092,-874.033"/>
</g>
<!-- Node42 -->
<g id="node42" class="node"><title>Node42</title>
<g id="a_node42"><a xlink:href="../../da/d29/classFun4AllServer.html#af1002b9170308da078c0e14a5ac4b514" target="_top" xlink:title="Fun4AllServer::setRun">
<polygon fill="none" stroke="red" points="645,-948.5 645,-967.5 757,-967.5 757,-948.5 645,-948.5"/>
<text text-anchor="middle" x="701" y="-955.5" font-family="FreeSans" font-size="10.00">Fun4AllServer::setRun</text>
</a>
</g>
</g>
<!-- Node39&#45;&gt;Node42 -->
<g id="edge51" class="edge"><title>Node39&#45;&gt;Node42</title>
<path fill="none" stroke="midnightblue" d="M525.485,-803.619C540.198,-828.613 583.034,-896.281 636,-934 641.715,-938.07 648.204,-941.54 654.805,-944.47"/>
<polygon fill="midnightblue" stroke="midnightblue" points="653.895,-947.878 664.478,-948.384 656.521,-941.389 653.895,-947.878"/>
</g>
<!-- Node43 -->
<g id="node43" class="node"><title>Node43</title>
<g id="a_node43"><a xlink:href="../../da/d29/classFun4AllServer.html#afcfc5583204cac58b4e66a2406187a18" target="_top" xlink:title="Fun4AllServer::BeginRun">
<polygon fill="none" stroke="red" points="639,-784.5 639,-803.5 763,-803.5 763,-784.5 639,-784.5"/>
<text text-anchor="middle" x="701" y="-791.5" font-family="FreeSans" font-size="10.00">Fun4AllServer::BeginRun</text>
</a>
</g>
</g>
<!-- Node39&#45;&gt;Node43 -->
<g id="edge53" class="edge"><title>Node39&#45;&gt;Node43</title>
<path fill="none" stroke="midnightblue" d="M566.823,-794C585.711,-794 607.925,-794 628.739,-794"/>
<polygon fill="midnightblue" stroke="midnightblue" points="628.824,-797.5 638.824,-794 628.824,-790.5 628.824,-797.5"/>
</g>
<!-- Node39&#45;&gt;Node11 -->
<g id="edge54" class="edge"><title>Node39&#45;&gt;Node11</title>
<path fill="none" stroke="midnightblue" d="M528.981,-784.438C547.322,-765.449 591.151,-722.772 636,-699 640.196,-696.776 644.687,-694.778 649.273,-692.989"/>
<polygon fill="midnightblue" stroke="midnightblue" points="650.51,-696.264 658.753,-689.608 648.158,-689.671 650.51,-696.264"/>
</g>
<!-- Node44 -->
<g id="node44" class="node"><title>Node44</title>
<g id="a_node44"><a xlink:href="../../da/d29/classFun4AllServer.html#a6a65a944dfb40966ace97d35ab1f7942" target="_top" xlink:title="Fun4AllServer::process\l_event">
<polygon fill="none" stroke="red" points="643.5,-823 643.5,-853 758.5,-853 758.5,-823 643.5,-823"/>
<text text-anchor="start" x="651.5" y="-841" font-family="FreeSans" font-size="10.00">Fun4AllServer::process</text>
<text text-anchor="middle" x="701" y="-830" font-family="FreeSans" font-size="10.00">_event</text>
</a>
</g>
</g>
<!-- Node39&#45;&gt;Node44 -->
<g id="edge55" class="edge"><title>Node39&#45;&gt;Node44</title>
<path fill="none" stroke="midnightblue" d="M559.057,-803.547C580.782,-808.858 608.412,-815.612 633.441,-821.73"/>
<polygon fill="midnightblue" stroke="midnightblue" points="632.706,-825.153 643.251,-824.128 634.369,-818.354 632.706,-825.153"/>
</g>
<!-- Node42&#45;&gt;Node9 -->
<g id="edge52" class="edge"><title>Node42&#45;&gt;Node9</title>
<path fill="none" stroke="midnightblue" d="M745.908,-948.411C769.179,-943.329 797.954,-937.045 822.519,-931.68"/>
<polygon fill="midnightblue" stroke="midnightblue" points="823.385,-935.073 832.408,-929.52 821.892,-928.234 823.385,-935.073"/>
</g>
<!-- Node44&#45;&gt;Node13 -->
<g id="edge56" class="edge"><title>Node44&#45;&gt;Node13</title>
<path fill="none" stroke="midnightblue" d="M748.061,-822.978C754.327,-820.095 760.489,-816.775 766,-813 807.738,-784.407 844.892,-737.124 863.464,-711.272"/>
<polygon fill="midnightblue" stroke="midnightblue" points="866.54,-712.982 869.439,-702.791 860.818,-708.95 866.54,-712.982"/>
</g>
<!-- Node44&#45;&gt;Node17 -->
<g id="edge57" class="edge"><title>Node44&#45;&gt;Node17</title>
<path fill="none" stroke="midnightblue" d="M754.118,-822.846C758.528,-820.089 762.595,-816.836 766,-813 808.362,-765.272 779.444,-733.697 802,-674 820.07,-626.176 849.289,-573.464 865.062,-546.354"/>
<polygon fill="midnightblue" stroke="midnightblue" points="868.169,-547.975 870.22,-537.58 862.135,-544.427 868.169,-547.975"/>
</g>
<!-- Node44&#45;&gt;Node41 -->
<g id="edge58" class="edge"><title>Node44&#45;&gt;Node41</title>
<path fill="none" stroke="midnightblue" d="M758.974,-845.204C769.706,-846.561 781.133,-848.005 792.481,-849.44"/>
<polygon fill="midnightblue" stroke="midnightblue" points="792.053,-852.914 802.413,-850.696 792.931,-845.969 792.053,-852.914"/>
</g>
</g>
</svg>
