<?xml version="1.0" encoding="UTF-8" standalone="no"?>
<!DOCTYPE svg PUBLIC "-//W3C//DTD SVG 1.1//EN"
 "http://www.w3.org/Graphics/SVG/1.1/DTD/svg11.dtd">
<!-- Generated by graphviz version 2.30.1 (20200930.0103)
 -->
<!-- Title: PHNodeIOManager::print Pages: 1 -->
<svg width="790pt" height="110pt"
 viewBox="0.00 0.00 790.00 110.00" xmlns="http://www.w3.org/2000/svg" xmlns:xlink="http://www.w3.org/1999/xlink">
<g id="graph0" class="graph" transform="scale(1 1) rotate(0) translate(4 106)">
<title>PHNodeIOManager::print</title>
<!-- Node1 -->
<g id="node1" class="node"><title>Node1</title>
<polygon fill="#bfbfbf" stroke="black" points="0,-30.5 0,-49.5 124,-49.5 124,-30.5 0,-30.5"/>
<text text-anchor="middle" x="62" y="-37.5" font-family="FreeSans" font-size="10.00">PHNodeIOManager::print</text>
</g>
<!-- Node2 -->
<g id="node2" class="node"><title>Node2</title>
<g id="a_node2"><a xlink:href="../../d7/d0b/classFun4AllDstInputManager.html#a4d32eadb9f77d41387656b87377ef14f" target="_top" xlink:title="Fun4AllDstInputManager\l::fileopen">
<polygon fill="none" stroke="black" points="160.5,-50 160.5,-80 283.5,-80 283.5,-50 160.5,-50"/>
<text text-anchor="start" x="168.5" y="-68" font-family="FreeSans" font-size="10.00">Fun4AllDstInputManager</text>
<text text-anchor="middle" x="222" y="-57" font-family="FreeSans" font-size="10.00">::fileopen</text>
</a>
</g>
</g>
<!-- Node1&#45;&gt;Node2 -->
<g id="edge1" class="edge"><title>Node1&#45;&gt;Node2</title>
<path fill="none" stroke="midnightblue" d="M133.316,-51.126C142.371,-52.5588 151.581,-54.0159 160.46,-55.4209"/>
<polygon fill="midnightblue" stroke="midnightblue" points="133.608,-47.6287 123.184,-49.5227 132.514,-54.5427 133.608,-47.6287"/>
</g>
<!-- Node7 -->
<g id="node7" class="node"><title>Node7</title>
<g id="a_node7"><a xlink:href="../../d7/d0b/classFun4AllDstInputManager.html#ac24c4362dbe7ec37d4d7127227e540fa" target="_top" xlink:title="Fun4AllDstInputManager\l::Print">
<polygon fill="none" stroke="black" points="160.5,-1 160.5,-31 283.5,-31 283.5,-1 160.5,-1"/>
<text text-anchor="start" x="168.5" y="-19" font-family="FreeSans" font-size="10.00">Fun4AllDstInputManager</text>
<text text-anchor="middle" x="222" y="-8" font-family="FreeSans" font-size="10.00">::Print</text>
</a>
</g>
</g>
<!-- Node1&#45;&gt;Node7 -->
<g id="edge6" class="edge"><title>Node1&#45;&gt;Node7</title>
<path fill="none" stroke="midnightblue" d="M134.235,-29.1795C142.951,-27.8555 151.795,-26.5122 160.336,-25.2148"/>
<polygon fill="midnightblue" stroke="midnightblue" points="133.448,-25.7588 124.087,-30.721 134.499,-32.6794 133.448,-25.7588"/>
</g>
<!-- Node3 -->
<g id="node3" class="node"><title>Node3</title>
<g id="a_node3"><a xlink:href="../../d7/d0b/classFun4AllDstInputManager.html#ae4e92b95ae50ab72856d06c99b043496" target="_top" xlink:title="Fun4AllDstInputManager\l::OpenNextFile">
<polygon fill="none" stroke="black" points="320.5,-50 320.5,-80 443.5,-80 443.5,-50 320.5,-50"/>
<text text-anchor="start" x="328.5" y="-68" font-family="FreeSans" font-size="10.00">Fun4AllDstInputManager</text>
<text text-anchor="middle" x="382" y="-57" font-family="FreeSans" font-size="10.00">::OpenNextFile</text>
</a>
</g>
</g>
<!-- Node2&#45;&gt;Node3 -->
<g id="edge2" class="edge"><title>Node2&#45;&gt;Node3</title>
<path fill="none" stroke="midnightblue" d="M293.884,-65C302.69,-65 311.632,-65 320.266,-65"/>
<polygon fill="midnightblue" stroke="midnightblue" points="293.635,-61.5001 283.635,-65 293.635,-68.5001 293.635,-61.5001"/>
</g>
<!-- Node4 -->
<g id="node4" class="node"><title>Node4</title>
<g id="a_node4"><a xlink:href="../../d7/d0b/classFun4AllDstInputManager.html#ade26017b627e0e1f1ec0dec62ac7fd52" target="_top" xlink:title="Fun4AllDstInputManager\l::ReadNextEventSyncObject">
<polygon fill="none" stroke="black" points="482.5,-72 482.5,-102 619.5,-102 619.5,-72 482.5,-72"/>
<text text-anchor="start" x="490.5" y="-90" font-family="FreeSans" font-size="10.00">Fun4AllDstInputManager</text>
<text text-anchor="middle" x="551" y="-79" font-family="FreeSans" font-size="10.00">::ReadNextEventSyncObject</text>
</a>
</g>
</g>
<!-- Node3&#45;&gt;Node4 -->
<g id="edge3" class="edge"><title>Node3&#45;&gt;Node4</title>
<path fill="none" stroke="midnightblue" d="M453.854,-74.3341C463.254,-75.5724 472.873,-76.8396 482.22,-78.0708"/>
<polygon fill="midnightblue" stroke="midnightblue" points="454.135,-70.8409 443.763,-73.0047 453.22,-77.7809 454.135,-70.8409"/>
</g>
<!-- Node6 -->
<g id="node6" class="node"><title>Node6</title>
<g id="a_node6"><a xlink:href="../../d7/d0b/classFun4AllDstInputManager.html#aeafa0248f9050c13fdae1bcb93336d7a" target="_top" xlink:title="Fun4AllDstInputManager::run">
<polygon fill="none" stroke="black" points="480.5,-33.5 480.5,-52.5 621.5,-52.5 621.5,-33.5 480.5,-33.5"/>
<text text-anchor="middle" x="551" y="-40.5" font-family="FreeSans" font-size="10.00">Fun4AllDstInputManager::run</text>
</a>
</g>
</g>
<!-- Node3&#45;&gt;Node6 -->
<g id="edge5" class="edge"><title>Node3&#45;&gt;Node6</title>
<path fill="none" stroke="midnightblue" d="M453.89,-55.6612C462.61,-54.5125 471.518,-53.339 480.221,-52.1924"/>
<polygon fill="midnightblue" stroke="midnightblue" points="453.22,-52.2191 443.763,-56.9953 454.135,-59.1591 453.22,-52.2191"/>
</g>
<!-- Node5 -->
<g id="node5" class="node"><title>Node5</title>
<g id="a_node5"><a xlink:href="../../d7/d0b/classFun4AllDstInputManager.html#a0244c2edbaa2350038304b09f352c2d0" target="_top" xlink:title="Fun4AllDstInputManager\l::SyncIt">
<polygon fill="none" stroke="black" points="658.5,-72 658.5,-102 781.5,-102 781.5,-72 658.5,-72"/>
<text text-anchor="start" x="666.5" y="-90" font-family="FreeSans" font-size="10.00">Fun4AllDstInputManager</text>
<text text-anchor="middle" x="720" y="-79" font-family="FreeSans" font-size="10.00">::SyncIt</text>
</a>
</g>
</g>
<!-- Node4&#45;&gt;Node5 -->
<g id="edge4" class="edge"><title>Node4&#45;&gt;Node5</title>
<path fill="none" stroke="midnightblue" d="M630.154,-87C639.636,-87 649.21,-87 658.384,-87"/>
<polygon fill="midnightblue" stroke="midnightblue" points="629.925,-83.5001 619.925,-87 629.925,-90.5001 629.925,-83.5001"/>
</g>
</g>
</svg>
