<?xml version="1.0" encoding="UTF-8" standalone="no"?>
<!DOCTYPE svg PUBLIC "-//W3C//DTD SVG 1.1//EN"
 "http://www.w3.org/Graphics/SVG/1.1/DTD/svg11.dtd">
<!-- Generated by graphviz version 2.30.1 (20200930.0103)
 -->
<!-- Title: /dev/shm/kenichi/update&#45;github&#45;e1039&#45;doc/e1039&#45;core/interface_main/SQHitVector.h Pages: 1 -->
<svg width="4782pt" height="230pt"
 viewBox="0.00 0.00 4782.00 230.00" xmlns="http://www.w3.org/2000/svg" xmlns:xlink="http://www.w3.org/1999/xlink">
<g id="graph0" class="graph" transform="scale(1 1) rotate(0) translate(4 226)">
<title>/dev/shm/kenichi/update&#45;github&#45;e1039&#45;doc/e1039&#45;core/interface_main/SQHitVector.h</title>
<!-- Node1 -->
<g id="node1" class="node"><title>Node1</title>
<polygon fill="#bfbfbf" stroke="black" points="2686,-180.5 2686,-221.5 2856,-221.5 2856,-180.5 2686,-180.5"/>
<text text-anchor="start" x="2694" y="-209.5" font-family="FreeSans" font-size="10.00">/dev/shm/kenichi/update</text>
<text text-anchor="start" x="2694" y="-198.5" font-family="FreeSans" font-size="10.00">&#45;github&#45;e1039&#45;doc/e1039</text>
<text text-anchor="middle" x="2771" y="-187.5" font-family="FreeSans" font-size="10.00">&#45;core/interface_main/SQHitVector.h</text>
</g>
<!-- Node2 -->
<g id="node2" class="node"><title>Node2</title>
<g id="a_node2"><a xlink:href="../../d7/d63/SQHitVector_8cxx.html" target="_top" xlink:title="/dev/shm/kenichi/update\l&#45;github&#45;e1039&#45;doc/e1039\l&#45;core/interface_main/SQHitVector.cxx">
<polygon fill="none" stroke="black" points="799.5,-96.5 799.5,-137.5 978.5,-137.5 978.5,-96.5 799.5,-96.5"/>
<text text-anchor="start" x="807.5" y="-125.5" font-family="FreeSans" font-size="10.00">/dev/shm/kenichi/update</text>
<text text-anchor="start" x="807.5" y="-114.5" font-family="FreeSans" font-size="10.00">&#45;github&#45;e1039&#45;doc/e1039</text>
<text text-anchor="middle" x="889" y="-103.5" font-family="FreeSans" font-size="10.00">&#45;core/interface_main/SQHitVector.cxx</text>
</a>
</g>
</g>
<!-- Node1&#45;&gt;Node2 -->
<g id="edge1" class="edge"><title>Node1&#45;&gt;Node2</title>
<path fill="none" stroke="midnightblue" d="M2675.64,-199.836C2355.11,-198.841 1318.11,-191.904 988,-144 977.185,-142.43 965.852,-140.115 954.875,-137.501"/>
<polygon fill="midnightblue" stroke="midnightblue" points="2675.82,-203.336 2685.83,-199.866 2675.84,-196.336 2675.82,-203.336"/>
</g>
<!-- Node3 -->
<g id="node3" class="node"><title>Node3</title>
<g id="a_node3"><a xlink:href="../../d2/dec/SQHitVector__v1_8h.html" target="_top" xlink:title="/dev/shm/kenichi/update\l&#45;github&#45;e1039&#45;doc/e1039\l&#45;core/interface_main/SQHitVector_v1.h">
<polygon fill="none" stroke="black" points="996.5,-96.5 996.5,-137.5 1181.5,-137.5 1181.5,-96.5 996.5,-96.5"/>
<text text-anchor="start" x="1004.5" y="-125.5" font-family="FreeSans" font-size="10.00">/dev/shm/kenichi/update</text>
<text text-anchor="start" x="1004.5" y="-114.5" font-family="FreeSans" font-size="10.00">&#45;github&#45;e1039&#45;doc/e1039</text>
<text text-anchor="middle" x="1089" y="-103.5" font-family="FreeSans" font-size="10.00">&#45;core/interface_main/SQHitVector_v1.h</text>
</a>
</g>
</g>
<!-- Node1&#45;&gt;Node3 -->
<g id="edge2" class="edge"><title>Node1&#45;&gt;Node3</title>
<path fill="none" stroke="midnightblue" d="M2675.6,-199.295C2379.7,-196.686 1479.99,-185.464 1191,-144 1179.97,-142.417 1168.4,-140.112 1157.18,-137.519"/>
<polygon fill="midnightblue" stroke="midnightblue" points="2675.84,-202.797 2685.87,-199.384 2675.9,-195.797 2675.84,-202.797"/>
</g>
<!-- Node17 -->
<g id="node17" class="node"><title>Node17</title>
<g id="a_node17"><a xlink:href="../../dc/d86/CalibInTime_8cc.html" target="_top" xlink:title="/dev/shm/kenichi/update\l&#45;github&#45;e1039&#45;doc/e1039\l&#45;core/online/decoder_maindaq\l/CalibInTime.cc">
<polygon fill="none" stroke="black" points="1200,-91 1200,-143 1346,-143 1346,-91 1200,-91"/>
<text text-anchor="start" x="1208" y="-131" font-family="FreeSans" font-size="10.00">/dev/shm/kenichi/update</text>
<text text-anchor="start" x="1208" y="-120" font-family="FreeSans" font-size="10.00">&#45;github&#45;e1039&#45;doc/e1039</text>
<text text-anchor="start" x="1208" y="-109" font-family="FreeSans" font-size="10.00">&#45;core/online/decoder_maindaq</text>
<text text-anchor="middle" x="1273" y="-98" font-family="FreeSans" font-size="10.00">/CalibInTime.cc</text>
</a>
</g>
</g>
<!-- Node1&#45;&gt;Node17 -->
<g id="edge16" class="edge"><title>Node1&#45;&gt;Node17</title>
<path fill="none" stroke="midnightblue" d="M2675.6,-199.544C2400.59,-197.705 1609.67,-188.577 1355,-144 1352.06,-143.485 1349.07,-142.892 1346.08,-142.236"/>
<polygon fill="midnightblue" stroke="midnightblue" points="2675.93,-203.046 2685.95,-199.612 2675.97,-196.047 2675.93,-203.046"/>
</g>
<!-- Node18 -->
<g id="node18" class="node"><title>Node18</title>
<g id="a_node18"><a xlink:href="../../d6/dfe/CalibMergeH4_8cc.html" target="_top" xlink:title="/dev/shm/kenichi/update\l&#45;github&#45;e1039&#45;doc/e1039\l&#45;core/online/decoder_maindaq\l/CalibMergeH4.cc">
<polygon fill="none" stroke="black" points="1364,-91 1364,-143 1510,-143 1510,-91 1364,-91"/>
<text text-anchor="start" x="1372" y="-131" font-family="FreeSans" font-size="10.00">/dev/shm/kenichi/update</text>
<text text-anchor="start" x="1372" y="-120" font-family="FreeSans" font-size="10.00">&#45;github&#45;e1039&#45;doc/e1039</text>
<text text-anchor="start" x="1372" y="-109" font-family="FreeSans" font-size="10.00">&#45;core/online/decoder_maindaq</text>
<text text-anchor="middle" x="1437" y="-98" font-family="FreeSans" font-size="10.00">/CalibMergeH4.cc</text>
</a>
</g>
</g>
<!-- Node1&#45;&gt;Node18 -->
<g id="edge17" class="edge"><title>Node1&#45;&gt;Node18</title>
<path fill="none" stroke="midnightblue" d="M2675.34,-198.961C2422.5,-195.698 1740.73,-183.403 1519,-144 1516.06,-143.477 1513.08,-142.878 1510.08,-142.216"/>
<polygon fill="midnightblue" stroke="midnightblue" points="2675.56,-202.464 2685.61,-199.092 2675.65,-195.465 2675.56,-202.464"/>
</g>
<!-- Node19 -->
<g id="node19" class="node"><title>Node19</title>
<g id="a_node19"><a xlink:href="../../df/d30/CalibXT_8cc.html" target="_top" xlink:title="/dev/shm/kenichi/update\l&#45;github&#45;e1039&#45;doc/e1039\l&#45;core/online/decoder_maindaq\l/CalibXT.cc">
<polygon fill="none" stroke="black" points="1528,-91 1528,-143 1674,-143 1674,-91 1528,-91"/>
<text text-anchor="start" x="1536" y="-131" font-family="FreeSans" font-size="10.00">/dev/shm/kenichi/update</text>
<text text-anchor="start" x="1536" y="-120" font-family="FreeSans" font-size="10.00">&#45;github&#45;e1039&#45;doc/e1039</text>
<text text-anchor="start" x="1536" y="-109" font-family="FreeSans" font-size="10.00">&#45;core/online/decoder_maindaq</text>
<text text-anchor="middle" x="1601" y="-98" font-family="FreeSans" font-size="10.00">/CalibXT.cc</text>
</a>
</g>
</g>
<!-- Node1&#45;&gt;Node19 -->
<g id="edge18" class="edge"><title>Node1&#45;&gt;Node19</title>
<path fill="none" stroke="midnightblue" d="M2675.64,-198.166C2447.09,-193.275 1873.02,-177.912 1684,-144 1680.73,-143.413 1677.41,-142.736 1674.07,-141.987"/>
<polygon fill="midnightblue" stroke="midnightblue" points="2675.86,-201.672 2685.93,-198.385 2676.01,-194.673 2675.86,-201.672"/>
</g>
<!-- Node20 -->
<g id="node20" class="node"><title>Node20</title>
<g id="a_node20"><a xlink:href="../../df/d4b/OnlMonCham_8cc.html" target="_top" xlink:title="/dev/shm/kenichi/update\l&#45;github&#45;e1039&#45;doc/e1039\l&#45;core/online/onlmonserver\l/OnlMonCham.cc">
<polygon fill="none" stroke="black" points="1692.5,-91 1692.5,-143 1819.5,-143 1819.5,-91 1692.5,-91"/>
<text text-anchor="start" x="1700.5" y="-131" font-family="FreeSans" font-size="10.00">/dev/shm/kenichi/update</text>
<text text-anchor="start" x="1700.5" y="-120" font-family="FreeSans" font-size="10.00">&#45;github&#45;e1039&#45;doc/e1039</text>
<text text-anchor="start" x="1700.5" y="-109" font-family="FreeSans" font-size="10.00">&#45;core/online/onlmonserver</text>
<text text-anchor="middle" x="1756" y="-98" font-family="FreeSans" font-size="10.00">/OnlMonCham.cc</text>
</a>
</g>
</g>
<!-- Node1&#45;&gt;Node20 -->
<g id="edge19" class="edge"><title>Node1&#45;&gt;Node20</title>
<path fill="none" stroke="midnightblue" d="M2675.5,-197.744C2469.42,-192.317 1988.75,-176.51 1829,-144 1825.97,-143.383 1822.89,-142.667 1819.8,-141.875"/>
<polygon fill="midnightblue" stroke="midnightblue" points="2675.61,-201.248 2685.7,-198.01 2675.79,-194.25 2675.61,-201.248"/>
</g>
<!-- Node21 -->
<g id="node21" class="node"><title>Node21</title>
<g id="a_node21"><a xlink:href="../../d7/d04/OnlMonH4_8cc.html" target="_top" xlink:title="/dev/shm/kenichi/update\l&#45;github&#45;e1039&#45;doc/e1039\l&#45;core/online/onlmonserver\l/OnlMonH4.cc">
<polygon fill="none" stroke="black" points="1837.5,-91 1837.5,-143 1964.5,-143 1964.5,-91 1837.5,-91"/>
<text text-anchor="start" x="1845.5" y="-131" font-family="FreeSans" font-size="10.00">/dev/shm/kenichi/update</text>
<text text-anchor="start" x="1845.5" y="-120" font-family="FreeSans" font-size="10.00">&#45;github&#45;e1039&#45;doc/e1039</text>
<text text-anchor="start" x="1845.5" y="-109" font-family="FreeSans" font-size="10.00">&#45;core/online/onlmonserver</text>
<text text-anchor="middle" x="1901" y="-98" font-family="FreeSans" font-size="10.00">/OnlMonH4.cc</text>
</a>
</g>
</g>
<!-- Node1&#45;&gt;Node21 -->
<g id="edge20" class="edge"><title>Node1&#45;&gt;Node21</title>
<path fill="none" stroke="midnightblue" d="M2675.77,-196.552C2494.34,-189.447 2105.5,-171.501 1974,-144 1970.97,-143.367 1967.9,-142.637 1964.81,-141.834"/>
<polygon fill="midnightblue" stroke="midnightblue" points="2675.7,-200.052 2685.83,-196.943 2675.98,-193.057 2675.7,-200.052"/>
</g>
<!-- Node22 -->
<g id="node22" class="node"><title>Node22</title>
<g id="a_node22"><a xlink:href="../../d3/dcf/OnlMonHodo_8cc.html" target="_top" xlink:title="/dev/shm/kenichi/update\l&#45;github&#45;e1039&#45;doc/e1039\l&#45;core/online/onlmonserver\l/OnlMonHodo.cc">
<polygon fill="none" stroke="black" points="1982.5,-91 1982.5,-143 2109.5,-143 2109.5,-91 1982.5,-91"/>
<text text-anchor="start" x="1990.5" y="-131" font-family="FreeSans" font-size="10.00">/dev/shm/kenichi/update</text>
<text text-anchor="start" x="1990.5" y="-120" font-family="FreeSans" font-size="10.00">&#45;github&#45;e1039&#45;doc/e1039</text>
<text text-anchor="start" x="1990.5" y="-109" font-family="FreeSans" font-size="10.00">&#45;core/online/onlmonserver</text>
<text text-anchor="middle" x="2046" y="-98" font-family="FreeSans" font-size="10.00">/OnlMonHodo.cc</text>
</a>
</g>
</g>
<!-- Node1&#45;&gt;Node22 -->
<g id="edge21" class="edge"><title>Node1&#45;&gt;Node22</title>
<path fill="none" stroke="midnightblue" d="M2675.66,-199.421C2547.63,-196.924 2313.7,-186.298 2119,-144 2115.98,-143.343 2112.91,-142.594 2109.82,-141.776"/>
<polygon fill="midnightblue" stroke="midnightblue" points="2675.77,-202.924 2685.83,-199.607 2675.89,-195.925 2675.77,-202.924"/>
</g>
<!-- Node23 -->
<g id="node23" class="node"><title>Node23</title>
<g id="a_node23"><a xlink:href="../../dd/da1/OnlMonProp_8cc.html" target="_top" xlink:title="/dev/shm/kenichi/update\l&#45;github&#45;e1039&#45;doc/e1039\l&#45;core/online/onlmonserver\l/OnlMonProp.cc">
<polygon fill="none" stroke="black" points="2127.5,-91 2127.5,-143 2254.5,-143 2254.5,-91 2127.5,-91"/>
<text text-anchor="start" x="2135.5" y="-131" font-family="FreeSans" font-size="10.00">/dev/shm/kenichi/update</text>
<text text-anchor="start" x="2135.5" y="-120" font-family="FreeSans" font-size="10.00">&#45;github&#45;e1039&#45;doc/e1039</text>
<text text-anchor="start" x="2135.5" y="-109" font-family="FreeSans" font-size="10.00">&#45;core/online/onlmonserver</text>
<text text-anchor="middle" x="2191" y="-98" font-family="FreeSans" font-size="10.00">/OnlMonProp.cc</text>
</a>
</g>
</g>
<!-- Node1&#45;&gt;Node23 -->
<g id="edge22" class="edge"><title>Node1&#45;&gt;Node23</title>
<path fill="none" stroke="midnightblue" d="M2675.62,-196.068C2572.89,-190.306 2405.15,-176.467 2264,-144 2260.98,-143.306 2257.92,-142.528 2254.84,-141.684"/>
<polygon fill="midnightblue" stroke="midnightblue" points="2675.49,-199.566 2685.67,-196.617 2675.87,-192.576 2675.49,-199.566"/>
</g>
<!-- Node24 -->
<g id="node24" class="node"><title>Node24</title>
<g id="a_node24"><a xlink:href="../../de/d94/OnlMonReco_8cc.html" target="_top" xlink:title="/dev/shm/kenichi/update\l&#45;github&#45;e1039&#45;doc/e1039\l&#45;core/online/onlmonserver\l/OnlMonReco.cc">
<polygon fill="none" stroke="black" points="2272.5,-91 2272.5,-143 2399.5,-143 2399.5,-91 2272.5,-91"/>
<text text-anchor="start" x="2280.5" y="-131" font-family="FreeSans" font-size="10.00">/dev/shm/kenichi/update</text>
<text text-anchor="start" x="2280.5" y="-120" font-family="FreeSans" font-size="10.00">&#45;github&#45;e1039&#45;doc/e1039</text>
<text text-anchor="start" x="2280.5" y="-109" font-family="FreeSans" font-size="10.00">&#45;core/online/onlmonserver</text>
<text text-anchor="middle" x="2336" y="-98" font-family="FreeSans" font-size="10.00">/OnlMonReco.cc</text>
</a>
</g>
</g>
<!-- Node1&#45;&gt;Node24 -->
<g id="edge23" class="edge"><title>Node1&#45;&gt;Node24</title>
<path fill="none" stroke="midnightblue" d="M2675.8,-190.247C2602.22,-181.517 2498.21,-166.571 2409,-144 2406,-143.241 2402.95,-142.409 2399.88,-141.522"/>
<polygon fill="midnightblue" stroke="midnightblue" points="2675.64,-193.752 2685.98,-191.438 2676.45,-186.799 2675.64,-193.752"/>
</g>
<!-- Node25 -->
<g id="node25" class="node"><title>Node25</title>
<g id="a_node25"><a xlink:href="../../da/d84/OnlMonTrigNim_8cc.html" target="_top" xlink:title="/dev/shm/kenichi/update\l&#45;github&#45;e1039&#45;doc/e1039\l&#45;core/online/onlmonserver\l/OnlMonTrigNim.cc">
<polygon fill="none" stroke="black" points="2417.5,-91 2417.5,-143 2544.5,-143 2544.5,-91 2417.5,-91"/>
<text text-anchor="start" x="2425.5" y="-131" font-family="FreeSans" font-size="10.00">/dev/shm/kenichi/update</text>
<text text-anchor="start" x="2425.5" y="-120" font-family="FreeSans" font-size="10.00">&#45;github&#45;e1039&#45;doc/e1039</text>
<text text-anchor="start" x="2425.5" y="-109" font-family="FreeSans" font-size="10.00">&#45;core/online/onlmonserver</text>
<text text-anchor="middle" x="2481" y="-98" font-family="FreeSans" font-size="10.00">/OnlMonTrigNim.cc</text>
</a>
</g>
</g>
<!-- Node1&#45;&gt;Node25 -->
<g id="edge24" class="edge"><title>Node1&#45;&gt;Node25</title>
<path fill="none" stroke="midnightblue" d="M2677.9,-177.921C2639.34,-168.273 2594.3,-156.348 2554,-144 2550.91,-143.054 2547.76,-142.057 2544.59,-141.026"/>
<polygon fill="midnightblue" stroke="midnightblue" points="2677.53,-181.435 2688.08,-180.452 2679.22,-174.642 2677.53,-181.435"/>
</g>
<!-- Node26 -->
<g id="node26" class="node"><title>Node26</title>
<g id="a_node26"><a xlink:href="../../d0/d26/OnlMonTrigSig_8cc.html" target="_top" xlink:title="/dev/shm/kenichi/update\l&#45;github&#45;e1039&#45;doc/e1039\l&#45;core/online/onlmonserver\l/OnlMonTrigSig.cc">
<polygon fill="none" stroke="black" points="2562.5,-91 2562.5,-143 2689.5,-143 2689.5,-91 2562.5,-91"/>
<text text-anchor="start" x="2570.5" y="-131" font-family="FreeSans" font-size="10.00">/dev/shm/kenichi/update</text>
<text text-anchor="start" x="2570.5" y="-120" font-family="FreeSans" font-size="10.00">&#45;github&#45;e1039&#45;doc/e1039</text>
<text text-anchor="start" x="2570.5" y="-109" font-family="FreeSans" font-size="10.00">&#45;core/online/onlmonserver</text>
<text text-anchor="middle" x="2626" y="-98" font-family="FreeSans" font-size="10.00">/OnlMonTrigSig.cc</text>
</a>
</g>
</g>
<!-- Node1&#45;&gt;Node26 -->
<g id="edge25" class="edge"><title>Node1&#45;&gt;Node26</title>
<path fill="none" stroke="midnightblue" d="M2727.15,-175.202C2709.17,-165.032 2688.38,-153.277 2670.35,-143.078"/>
<polygon fill="midnightblue" stroke="midnightblue" points="2725.84,-178.483 2736.27,-180.359 2729.29,-172.39 2725.84,-178.483"/>
</g>
<!-- Node27 -->
<g id="node27" class="node"><title>Node27</title>
<g id="a_node27"><a xlink:href="../../da/dc5/OnlMonV1495_8cc.html" target="_top" xlink:title="/dev/shm/kenichi/update\l&#45;github&#45;e1039&#45;doc/e1039\l&#45;core/online/onlmonserver\l/OnlMonV1495.cc">
<polygon fill="none" stroke="black" points="2707.5,-91 2707.5,-143 2834.5,-143 2834.5,-91 2707.5,-91"/>
<text text-anchor="start" x="2715.5" y="-131" font-family="FreeSans" font-size="10.00">/dev/shm/kenichi/update</text>
<text text-anchor="start" x="2715.5" y="-120" font-family="FreeSans" font-size="10.00">&#45;github&#45;e1039&#45;doc/e1039</text>
<text text-anchor="start" x="2715.5" y="-109" font-family="FreeSans" font-size="10.00">&#45;core/online/onlmonserver</text>
<text text-anchor="middle" x="2771" y="-98" font-family="FreeSans" font-size="10.00">/OnlMonV1495.cc</text>
</a>
</g>
</g>
<!-- Node1&#45;&gt;Node27 -->
<g id="edge26" class="edge"><title>Node1&#45;&gt;Node27</title>
<path fill="none" stroke="midnightblue" d="M2771,-169.938C2771,-161.176 2771,-151.695 2771,-143.261"/>
<polygon fill="midnightblue" stroke="midnightblue" points="2767.5,-170.15 2771,-180.15 2774.5,-170.15 2767.5,-170.15"/>
</g>
<!-- Node28 -->
<g id="node28" class="node"><title>Node28</title>
<g id="a_node28"><a xlink:href="../../d0/d7e/EvtDispFilter_8cxx.html" target="_top" xlink:title="/dev/shm/kenichi/update\l&#45;github&#45;e1039&#45;doc/e1039\l&#45;core/packages/Display/modules\l/EvtDispFilter.cxx">
<polygon fill="none" stroke="black" points="2852.5,-91 2852.5,-143 3007.5,-143 3007.5,-91 2852.5,-91"/>
<text text-anchor="start" x="2860.5" y="-131" font-family="FreeSans" font-size="10.00">/dev/shm/kenichi/update</text>
<text text-anchor="start" x="2860.5" y="-120" font-family="FreeSans" font-size="10.00">&#45;github&#45;e1039&#45;doc/e1039</text>
<text text-anchor="start" x="2860.5" y="-109" font-family="FreeSans" font-size="10.00">&#45;core/packages/Display/modules</text>
<text text-anchor="middle" x="2930" y="-98" font-family="FreeSans" font-size="10.00">/EvtDispFilter.cxx</text>
</a>
</g>
</g>
<!-- Node1&#45;&gt;Node28 -->
<g id="edge27" class="edge"><title>Node1&#45;&gt;Node28</title>
<path fill="none" stroke="midnightblue" d="M2818,-175.76C2837.97,-165.464 2861.23,-153.464 2881.37,-143.078"/>
<polygon fill="midnightblue" stroke="midnightblue" points="2816.37,-172.665 2809.08,-180.359 2819.58,-178.886 2816.37,-172.665"/>
</g>
<!-- Node29 -->
<g id="node29" class="node"><title>Node29</title>
<g id="a_node29"><a xlink:href="../../d7/d9e/mTrkEveDisplay_8cxx.html" target="_top" xlink:title="reconstructed charged tracks and their clusters ">
<polygon fill="none" stroke="black" points="3025.5,-91 3025.5,-143 3180.5,-143 3180.5,-91 3025.5,-91"/>
<text text-anchor="start" x="3033.5" y="-131" font-family="FreeSans" font-size="10.00">/dev/shm/kenichi/update</text>
<text text-anchor="start" x="3033.5" y="-120" font-family="FreeSans" font-size="10.00">&#45;github&#45;e1039&#45;doc/e1039</text>
<text text-anchor="start" x="3033.5" y="-109" font-family="FreeSans" font-size="10.00">&#45;core/packages/Display/modules</text>
<text text-anchor="middle" x="3103" y="-98" font-family="FreeSans" font-size="10.00">/mTrkEveDisplay.cxx</text>
</a>
</g>
</g>
<!-- Node1&#45;&gt;Node29 -->
<g id="edge28" class="edge"><title>Node1&#45;&gt;Node29</title>
<path fill="none" stroke="midnightblue" d="M2865.96,-179.819C2911.51,-169.749 2966.77,-156.968 3016,-144 3019.05,-143.197 3022.15,-142.361 3025.28,-141.501"/>
<polygon fill="midnightblue" stroke="midnightblue" points="2865.1,-176.423 2856.09,-181.991 2866.61,-183.259 2865.1,-176.423"/>
</g>
<!-- Node30 -->
<g id="node30" class="node"><title>Node30</title>
<g id="a_node30"><a xlink:href="../../d6/d76/DPTriggerAnalyzer_8cxx.html" target="_top" xlink:title="/dev/shm/kenichi/update\l&#45;github&#45;e1039&#45;doc/e1039\l&#45;core/packages/dptrigger\l/DPTriggerAnalyzer.cxx">
<polygon fill="none" stroke="black" points="3198.5,-91 3198.5,-143 3321.5,-143 3321.5,-91 3198.5,-91"/>
<text text-anchor="start" x="3206.5" y="-131" font-family="FreeSans" font-size="10.00">/dev/shm/kenichi/update</text>
<text text-anchor="start" x="3206.5" y="-120" font-family="FreeSans" font-size="10.00">&#45;github&#45;e1039&#45;doc/e1039</text>
<text text-anchor="start" x="3206.5" y="-109" font-family="FreeSans" font-size="10.00">&#45;core/packages/dptrigger</text>
<text text-anchor="middle" x="3260" y="-98" font-family="FreeSans" font-size="10.00">/DPTriggerAnalyzer.cxx</text>
</a>
</g>
</g>
<!-- Node1&#45;&gt;Node30 -->
<g id="edge29" class="edge"><title>Node1&#45;&gt;Node30</title>
<path fill="none" stroke="midnightblue" d="M2866.28,-193.181C2951.73,-185.666 3080.05,-170.904 3189,-144 3192.06,-143.245 3195.17,-142.402 3198.29,-141.496"/>
<polygon fill="midnightblue" stroke="midnightblue" points="2865.74,-189.715 2856.08,-194.062 2866.34,-196.689 2865.74,-189.715"/>
</g>
<!-- Node31 -->
<g id="node31" class="node"><title>Node31</title>
<g id="a_node31"><a xlink:href="../../d6/d24/e1039-core_2packages_2UtilAna_2UtilSQHit_8cc.html" target="_top" xlink:title="/dev/shm/kenichi/update\l&#45;github&#45;e1039&#45;doc/e1039\l&#45;core/packages/UtilAna/UtilSQHit.cc">
<polygon fill="none" stroke="black" points="3339.5,-96.5 3339.5,-137.5 3512.5,-137.5 3512.5,-96.5 3339.5,-96.5"/>
<text text-anchor="start" x="3347.5" y="-125.5" font-family="FreeSans" font-size="10.00">/dev/shm/kenichi/update</text>
<text text-anchor="start" x="3347.5" y="-114.5" font-family="FreeSans" font-size="10.00">&#45;github&#45;e1039&#45;doc/e1039</text>
<text text-anchor="middle" x="3426" y="-103.5" font-family="FreeSans" font-size="10.00">&#45;core/packages/UtilAna/UtilSQHit.cc</text>
</a>
</g>
</g>
<!-- Node1&#45;&gt;Node31 -->
<g id="edge30" class="edge"><title>Node1&#45;&gt;Node31</title>
<path fill="none" stroke="midnightblue" d="M2866.61,-195.221C2978.46,-188.526 3168.85,-173.686 3330,-144 3339.59,-142.233 3349.63,-139.979 3359.44,-137.54"/>
<polygon fill="midnightblue" stroke="midnightblue" points="2866.15,-191.743 2856.37,-195.825 2866.56,-198.73 2866.15,-191.743"/>
</g>
<!-- Node32 -->
<g id="node32" class="node"><title>Node32</title>
<g id="a_node32"><a xlink:href="../../d5/dd0/UtilTrack_8cc.html" target="_top" xlink:title="/dev/shm/kenichi/update\l&#45;github&#45;e1039&#45;doc/e1039\l&#45;core/packages/UtilAna/UtilTrack.cc">
<polygon fill="none" stroke="black" points="3531,-96.5 3531,-137.5 3703,-137.5 3703,-96.5 3531,-96.5"/>
<text text-anchor="start" x="3539" y="-125.5" font-family="FreeSans" font-size="10.00">/dev/shm/kenichi/update</text>
<text text-anchor="start" x="3539" y="-114.5" font-family="FreeSans" font-size="10.00">&#45;github&#45;e1039&#45;doc/e1039</text>
<text text-anchor="middle" x="3617" y="-103.5" font-family="FreeSans" font-size="10.00">&#45;core/packages/UtilAna/UtilTrack.cc</text>
</a>
</g>
</g>
<!-- Node1&#45;&gt;Node32 -->
<g id="edge31" class="edge"><title>Node1&#45;&gt;Node32</title>
<path fill="none" stroke="midnightblue" d="M2866.35,-198.664C3009.5,-195.359 3288.02,-183.876 3521,-144 3530.96,-142.296 3541.38,-140.013 3551.53,-137.505"/>
<polygon fill="midnightblue" stroke="midnightblue" points="2866.2,-195.167 2856.28,-198.889 2866.35,-202.165 2866.2,-195.167"/>
</g>
<!-- Node33 -->
<g id="node33" class="node"><title>Node33</title>
<g id="a_node33"><a xlink:href="../../d9/d5e/UtilTrigger_8cc.html" target="_top" xlink:title="/dev/shm/kenichi/update\l&#45;github&#45;e1039&#45;doc/e1039\l&#45;core/packages/UtilAna/UtilTrigger.cc">
<polygon fill="none" stroke="black" points="3721.5,-96.5 3721.5,-137.5 3898.5,-137.5 3898.5,-96.5 3721.5,-96.5"/>
<text text-anchor="start" x="3729.5" y="-125.5" font-family="FreeSans" font-size="10.00">/dev/shm/kenichi/update</text>
<text text-anchor="start" x="3729.5" y="-114.5" font-family="FreeSans" font-size="10.00">&#45;github&#45;e1039&#45;doc/e1039</text>
<text text-anchor="middle" x="3810" y="-103.5" font-family="FreeSans" font-size="10.00">&#45;core/packages/UtilAna/UtilTrigger.cc</text>
</a>
</g>
</g>
<!-- Node1&#45;&gt;Node33 -->
<g id="edge32" class="edge"><title>Node1&#45;&gt;Node33</title>
<path fill="none" stroke="midnightblue" d="M2866.51,-200.591C3037.29,-200.257 3405.79,-193.222 3712,-144 3722.34,-142.338 3733.17,-140.044 3743.7,-137.501"/>
<polygon fill="midnightblue" stroke="midnightblue" points="2866.29,-197.091 2856.29,-200.603 2866.29,-204.091 2866.29,-197.091"/>
</g>
<!-- Node34 -->
<g id="node34" class="node"><title>Node34</title>
<g id="a_node34"><a xlink:href="../../d9/d2b/AnaEffCham_8cc.html" target="_top" xlink:title="/dev/shm/kenichi/update\l&#45;github&#45;e1039&#45;doc/e1039\l&#45;analysis/AnaRealDst/src\l/AnaEffCham.cc">
<polygon fill="none" stroke="black" points="3916.5,-91 3916.5,-143 4039.5,-143 4039.5,-91 3916.5,-91"/>
<text text-anchor="start" x="3924.5" y="-131" font-family="FreeSans" font-size="10.00">/dev/shm/kenichi/update</text>
<text text-anchor="start" x="3924.5" y="-120" font-family="FreeSans" font-size="10.00">&#45;github&#45;e1039&#45;doc/e1039</text>
<text text-anchor="start" x="3924.5" y="-109" font-family="FreeSans" font-size="10.00">&#45;analysis/AnaRealDst/src</text>
<text text-anchor="middle" x="3978" y="-98" font-family="FreeSans" font-size="10.00">/AnaEffCham.cc</text>
</a>
</g>
</g>
<!-- Node1&#45;&gt;Node34 -->
<g id="edge33" class="edge"><title>Node1&#45;&gt;Node34</title>
<path fill="none" stroke="midnightblue" d="M2866.54,-198.985C3102.71,-195.881 3709.16,-184.133 3907,-144 3910.09,-143.374 3913.22,-142.636 3916.36,-141.814"/>
<polygon fill="midnightblue" stroke="midnightblue" points="2866.21,-195.488 2856.25,-199.117 2866.3,-202.488 2866.21,-195.488"/>
</g>
<!-- Node35 -->
<g id="node35" class="node"><title>Node35</title>
<g id="a_node35"><a xlink:href="../../d6/d1e/AnaEffHodo_8cc.html" target="_top" xlink:title="/dev/shm/kenichi/update\l&#45;github&#45;e1039&#45;doc/e1039\l&#45;analysis/AnaRealDst/src\l/AnaEffHodo.cc">
<polygon fill="none" stroke="black" points="4057.5,-91 4057.5,-143 4180.5,-143 4180.5,-91 4057.5,-91"/>
<text text-anchor="start" x="4065.5" y="-131" font-family="FreeSans" font-size="10.00">/dev/shm/kenichi/update</text>
<text text-anchor="start" x="4065.5" y="-120" font-family="FreeSans" font-size="10.00">&#45;github&#45;e1039&#45;doc/e1039</text>
<text text-anchor="start" x="4065.5" y="-109" font-family="FreeSans" font-size="10.00">&#45;analysis/AnaRealDst/src</text>
<text text-anchor="middle" x="4119" y="-98" font-family="FreeSans" font-size="10.00">/AnaEffHodo.cc</text>
</a>
</g>
</g>
<!-- Node1&#45;&gt;Node35 -->
<g id="edge34" class="edge"><title>Node1&#45;&gt;Node35</title>
<path fill="none" stroke="midnightblue" d="M2866.45,-199.597C3122.8,-197.911 3822.13,-189.182 4048,-144 4051.09,-143.382 4054.22,-142.651 4057.37,-141.835"/>
<polygon fill="midnightblue" stroke="midnightblue" points="2866.39,-196.097 2856.42,-199.661 2866.44,-203.097 2866.39,-196.097"/>
</g>
<!-- Node36 -->
<g id="node36" class="node"><title>Node36</title>
<g id="a_node36"><a xlink:href="../../dd/d33/AnaRealDst_8cc.html" target="_top" xlink:title="/dev/shm/kenichi/update\l&#45;github&#45;e1039&#45;doc/e1039\l&#45;analysis/AnaRealDst/src\l/AnaRealDst.cc">
<polygon fill="none" stroke="black" points="4198.5,-91 4198.5,-143 4321.5,-143 4321.5,-91 4198.5,-91"/>
<text text-anchor="start" x="4206.5" y="-131" font-family="FreeSans" font-size="10.00">/dev/shm/kenichi/update</text>
<text text-anchor="start" x="4206.5" y="-120" font-family="FreeSans" font-size="10.00">&#45;github&#45;e1039&#45;doc/e1039</text>
<text text-anchor="start" x="4206.5" y="-109" font-family="FreeSans" font-size="10.00">&#45;analysis/AnaRealDst/src</text>
<text text-anchor="middle" x="4260" y="-98" font-family="FreeSans" font-size="10.00">/AnaRealDst.cc</text>
</a>
</g>
</g>
<!-- Node1&#45;&gt;Node36 -->
<g id="edge35" class="edge"><title>Node1&#45;&gt;Node36</title>
<path fill="none" stroke="midnightblue" d="M2866.64,-200.088C3142.31,-199.729 3935.02,-194.231 4189,-144 4192.09,-143.389 4195.23,-142.664 4198.37,-141.851"/>
<polygon fill="midnightblue" stroke="midnightblue" points="2866.26,-196.588 2856.26,-200.099 2866.27,-203.588 2866.26,-196.588"/>
</g>
<!-- Node37 -->
<g id="node37" class="node"><title>Node37</title>
<g id="a_node37"><a xlink:href="../../d3/d26/e1039-analysis_2AnaRealDst_2src_2UtilSQHit_8cc.html" target="_top" xlink:title="/dev/shm/kenichi/update\l&#45;github&#45;e1039&#45;doc/e1039\l&#45;analysis/AnaRealDst/src\l/UtilSQHit.cc">
<polygon fill="none" stroke="black" points="4339.5,-91 4339.5,-143 4462.5,-143 4462.5,-91 4339.5,-91"/>
<text text-anchor="start" x="4347.5" y="-131" font-family="FreeSans" font-size="10.00">/dev/shm/kenichi/update</text>
<text text-anchor="start" x="4347.5" y="-120" font-family="FreeSans" font-size="10.00">&#45;github&#45;e1039&#45;doc/e1039</text>
<text text-anchor="start" x="4347.5" y="-109" font-family="FreeSans" font-size="10.00">&#45;analysis/AnaRealDst/src</text>
<text text-anchor="middle" x="4401" y="-98" font-family="FreeSans" font-size="10.00">/UtilSQHit.cc</text>
</a>
</g>
</g>
<!-- Node1&#45;&gt;Node37 -->
<g id="edge36" class="edge"><title>Node1&#45;&gt;Node37</title>
<path fill="none" stroke="midnightblue" d="M2866.36,-200.491C3160,-201.387 4047.63,-199.321 4330,-144 4333.09,-143.394 4336.23,-142.674 4339.37,-141.865"/>
<polygon fill="midnightblue" stroke="midnightblue" points="2866.18,-196.991 2856.17,-200.458 2866.16,-203.991 2866.18,-196.991"/>
</g>
<!-- Node38 -->
<g id="node38" class="node"><title>Node38</title>
<g id="a_node38"><a xlink:href="../../df/d0d/EMCalDev_2AnaModule_2AnaModule_8cxx.html" target="_top" xlink:title="/dev/shm/kenichi/update\l&#45;github&#45;e1039&#45;doc/e1039\l&#45;analysis/EMCalDev/AnaModule\l/AnaModule.cxx">
<polygon fill="none" stroke="black" points="4480.5,-91 4480.5,-143 4633.5,-143 4633.5,-91 4480.5,-91"/>
<text text-anchor="start" x="4488.5" y="-131" font-family="FreeSans" font-size="10.00">/dev/shm/kenichi/update</text>
<text text-anchor="start" x="4488.5" y="-120" font-family="FreeSans" font-size="10.00">&#45;github&#45;e1039&#45;doc/e1039</text>
<text text-anchor="start" x="4488.5" y="-109" font-family="FreeSans" font-size="10.00">&#45;analysis/EMCalDev/AnaModule</text>
<text text-anchor="middle" x="4557" y="-98" font-family="FreeSans" font-size="10.00">/AnaModule.cxx</text>
</a>
</g>
</g>
<!-- Node1&#45;&gt;Node38 -->
<g id="edge37" class="edge"><title>Node1&#45;&gt;Node38</title>
<path fill="none" stroke="midnightblue" d="M2866.44,-200.12C3177.3,-200 4158.68,-195.447 4471,-144 4474.08,-143.493 4477.2,-142.906 4480.34,-142.256"/>
<polygon fill="midnightblue" stroke="midnightblue" points="2866.1,-196.62 2856.1,-200.123 2866.11,-203.62 2866.1,-196.62"/>
</g>
<!-- Node39 -->
<g id="node39" class="node"><title>Node39</title>
<g id="a_node39"><a xlink:href="../../de/d63/SimpleTree_8cc.html" target="_top" xlink:title="/dev/shm/kenichi/update\l&#45;github&#45;e1039&#45;doc/e1039\l&#45;analysis/TriggerAna/src\l/SimpleTree.cc">
<polygon fill="none" stroke="black" points="4651.5,-91 4651.5,-143 4774.5,-143 4774.5,-91 4651.5,-91"/>
<text text-anchor="start" x="4659.5" y="-131" font-family="FreeSans" font-size="10.00">/dev/shm/kenichi/update</text>
<text text-anchor="start" x="4659.5" y="-120" font-family="FreeSans" font-size="10.00">&#45;github&#45;e1039&#45;doc/e1039</text>
<text text-anchor="start" x="4659.5" y="-109" font-family="FreeSans" font-size="10.00">&#45;analysis/TriggerAna/src</text>
<text text-anchor="middle" x="4713" y="-98" font-family="FreeSans" font-size="10.00">/SimpleTree.cc</text>
</a>
</g>
</g>
<!-- Node1&#45;&gt;Node39 -->
<g id="edge38" class="edge"><title>Node1&#45;&gt;Node39</title>
<path fill="none" stroke="midnightblue" d="M2866.21,-198.937C3222.73,-194.713 4467.33,-177.679 4642,-144 4645.09,-143.404 4648.23,-142.69 4651.38,-141.888"/>
<polygon fill="midnightblue" stroke="midnightblue" points="2866.14,-195.438 2856.18,-199.056 2866.22,-202.437 2866.14,-195.438"/>
</g>
<!-- Node4 -->
<g id="node4" class="node"><title>Node4</title>
<g id="a_node4"><a xlink:href="../../dc/dbb/SQHitVector__v1_8cxx.html" target="_top" xlink:title="/dev/shm/kenichi/update\l&#45;github&#45;e1039&#45;doc/e1039\l&#45;core/interface_main/SQHitVector_v1.cxx">
<polygon fill="none" stroke="black" points="0,-6.5 0,-47.5 194,-47.5 194,-6.5 0,-6.5"/>
<text text-anchor="start" x="8" y="-35.5" font-family="FreeSans" font-size="10.00">/dev/shm/kenichi/update</text>
<text text-anchor="start" x="8" y="-24.5" font-family="FreeSans" font-size="10.00">&#45;github&#45;e1039&#45;doc/e1039</text>
<text text-anchor="middle" x="97" y="-13.5" font-family="FreeSans" font-size="10.00">&#45;core/interface_main/SQHitVector_v1.cxx</text>
</a>
</g>
</g>
<!-- Node3&#45;&gt;Node4 -->
<g id="edge3" class="edge"><title>Node3&#45;&gt;Node4</title>
<path fill="none" stroke="midnightblue" d="M1010.36,-94.2605C1002.51,-92.6018 994.626,-91.1348 987,-90 641.988,-38.655 548.241,-103.783 203,-54 191.747,-52.3774 179.947,-50.0872 168.473,-47.5314"/>
<polygon fill="midnightblue" stroke="midnightblue" points="1009.73,-97.7077 1020.25,-96.4535 1011.25,-90.8734 1009.73,-97.7077"/>
</g>
<!-- Node5 -->
<g id="node5" class="node"><title>Node5</title>
<g id="a_node5"><a xlink:href="../../de/d00/Fun4AllEVIOInputManager_8cc.html" target="_top" xlink:title="/dev/shm/kenichi/update\l&#45;github&#45;e1039&#45;doc/e1039\l&#45;core/online/decoder_maindaq\l/Fun4AllEVIOInputManager.cc">
<polygon fill="none" stroke="black" points="212.5,-1 212.5,-53 359.5,-53 359.5,-1 212.5,-1"/>
<text text-anchor="start" x="220.5" y="-41" font-family="FreeSans" font-size="10.00">/dev/shm/kenichi/update</text>
<text text-anchor="start" x="220.5" y="-30" font-family="FreeSans" font-size="10.00">&#45;github&#45;e1039&#45;doc/e1039</text>
<text text-anchor="start" x="220.5" y="-19" font-family="FreeSans" font-size="10.00">&#45;core/online/decoder_maindaq</text>
<text text-anchor="middle" x="286" y="-8" font-family="FreeSans" font-size="10.00">/Fun4AllEVIOInputManager.cc</text>
</a>
</g>
</g>
<!-- Node3&#45;&gt;Node5 -->
<g id="edge4" class="edge"><title>Node3&#45;&gt;Node5</title>
<path fill="none" stroke="midnightblue" d="M1009.69,-94.2193C1002.06,-92.597 994.408,-91.1488 987,-90 714.679,-47.7724 638.996,-104.033 368,-54 365.21,-53.4848 362.382,-52.9029 359.537,-52.267"/>
<polygon fill="midnightblue" stroke="midnightblue" points="1009.16,-97.6873 1019.68,-96.4416 1010.68,-90.8542 1009.16,-97.6873"/>
</g>
<!-- Node6 -->
<g id="node6" class="node"><title>Node6</title>
<g id="a_node6"><a xlink:href="../../d0/d82/RndmEmbed_8cxx.html" target="_top" xlink:title="/dev/shm/kenichi/update\l&#45;github&#45;e1039&#45;doc/e1039\l&#45;core/packages/embedding\l/RndmEmbed.cxx">
<polygon fill="none" stroke="black" points="377.5,-1 377.5,-53 510.5,-53 510.5,-1 377.5,-1"/>
<text text-anchor="start" x="385.5" y="-41" font-family="FreeSans" font-size="10.00">/dev/shm/kenichi/update</text>
<text text-anchor="start" x="385.5" y="-30" font-family="FreeSans" font-size="10.00">&#45;github&#45;e1039&#45;doc/e1039</text>
<text text-anchor="start" x="385.5" y="-19" font-family="FreeSans" font-size="10.00">&#45;core/packages/embedding</text>
<text text-anchor="middle" x="444" y="-8" font-family="FreeSans" font-size="10.00">/RndmEmbed.cxx</text>
</a>
</g>
</g>
<!-- Node3&#45;&gt;Node6 -->
<g id="edge5" class="edge"><title>Node3&#45;&gt;Node6</title>
<path fill="none" stroke="midnightblue" d="M1009.28,-94.2817C1001.78,-92.6625 994.272,-91.1973 987,-90 781.157,-56.1093 723.236,-96.5155 519,-54 516.302,-53.4383 513.567,-52.8056 510.819,-52.1166"/>
<polygon fill="midnightblue" stroke="midnightblue" points="1008.58,-97.7115 1019.1,-96.4892 1010.11,-90.8818 1008.58,-97.7115"/>
</g>
<!-- Node7 -->
<g id="node7" class="node"><title>Node7</title>
<g id="a_node7"><a xlink:href="../../d7/d67/SRawEventEmbed_8cxx.html" target="_top" xlink:title="/dev/shm/kenichi/update\l&#45;github&#45;e1039&#45;doc/e1039\l&#45;core/packages/embedding\l/SRawEventEmbed.cxx">
<polygon fill="none" stroke="black" points="528.5,-1 528.5,-53 661.5,-53 661.5,-1 528.5,-1"/>
<text text-anchor="start" x="536.5" y="-41" font-family="FreeSans" font-size="10.00">/dev/shm/kenichi/update</text>
<text text-anchor="start" x="536.5" y="-30" font-family="FreeSans" font-size="10.00">&#45;github&#45;e1039&#45;doc/e1039</text>
<text text-anchor="start" x="536.5" y="-19" font-family="FreeSans" font-size="10.00">&#45;core/packages/embedding</text>
<text text-anchor="middle" x="595" y="-8" font-family="FreeSans" font-size="10.00">/SRawEventEmbed.cxx</text>
</a>
</g>
</g>
<!-- Node3&#45;&gt;Node7 -->
<g id="edge6" class="edge"><title>Node3&#45;&gt;Node7</title>
<path fill="none" stroke="midnightblue" d="M1007.35,-94.1438C1000.49,-92.6259 993.642,-91.2179 987,-90 847.53,-64.4286 808.271,-85.4128 670,-54 667.312,-53.3894 664.587,-52.7155 661.846,-51.9919"/>
<polygon fill="midnightblue" stroke="midnightblue" points="1006.86,-97.6208 1017.38,-96.4369 1008.42,-90.7967 1006.86,-97.6208"/>
</g>
<!-- Node8 -->
<g id="node8" class="node"><title>Node8</title>
<g id="a_node8"><a xlink:href="../../d2/dce/EvtFilter_8cxx.html" target="_top" xlink:title="/dev/shm/kenichi/update\l&#45;github&#45;e1039&#45;doc/e1039\l&#45;core/packages/evt_filter\l/EvtFilter.cxx">
<polygon fill="none" stroke="black" points="679.5,-1 679.5,-53 802.5,-53 802.5,-1 679.5,-1"/>
<text text-anchor="start" x="687.5" y="-41" font-family="FreeSans" font-size="10.00">/dev/shm/kenichi/update</text>
<text text-anchor="start" x="687.5" y="-30" font-family="FreeSans" font-size="10.00">&#45;github&#45;e1039&#45;doc/e1039</text>
<text text-anchor="start" x="687.5" y="-19" font-family="FreeSans" font-size="10.00">&#45;core/packages/evt_filter</text>
<text text-anchor="middle" x="741" y="-8" font-family="FreeSans" font-size="10.00">/EvtFilter.cxx</text>
</a>
</g>
</g>
<!-- Node3&#45;&gt;Node8 -->
<g id="edge7" class="edge"><title>Node3&#45;&gt;Node8</title>
<path fill="none" stroke="midnightblue" d="M1004.14,-94.0485C998.343,-92.6489 992.59,-91.2868 987,-90 909.617,-72.1883 888.38,-75.7121 812,-54 808.97,-53.1386 805.883,-52.2101 802.778,-51.2349"/>
<polygon fill="midnightblue" stroke="midnightblue" points="1003.35,-97.46 1013.9,-96.4328 1005.01,-90.6599 1003.35,-97.46"/>
</g>
<!-- Node9 -->
<g id="node9" class="node"><title>Node9</title>
<g id="a_node9"><a xlink:href="../../d5/dc7/Fun4AllSRawEventInputManager_8cxx.html" target="_top" xlink:title="/dev/shm/kenichi/update\l&#45;github&#45;e1039&#45;doc/e1039\l&#45;core/packages/reco/ktracker\l/Fun4AllSRawEventInputManager.cxx">
<polygon fill="none" stroke="black" points="821,-1 821,-53 999,-53 999,-1 821,-1"/>
<text text-anchor="start" x="829" y="-41" font-family="FreeSans" font-size="10.00">/dev/shm/kenichi/update</text>
<text text-anchor="start" x="829" y="-30" font-family="FreeSans" font-size="10.00">&#45;github&#45;e1039&#45;doc/e1039</text>
<text text-anchor="start" x="829" y="-19" font-family="FreeSans" font-size="10.00">&#45;core/packages/reco/ktracker</text>
<text text-anchor="middle" x="910" y="-8" font-family="FreeSans" font-size="10.00">/Fun4AllSRawEventInputManager.cxx</text>
</a>
</g>
</g>
<!-- Node3&#45;&gt;Node9 -->
<g id="edge8" class="edge"><title>Node3&#45;&gt;Node9</title>
<path fill="none" stroke="midnightblue" d="M1040.12,-91.9704C1015.52,-79.8768 985.726,-65.2284 960.857,-53.0021"/>
<polygon fill="midnightblue" stroke="midnightblue" points="1038.76,-95.199 1049.27,-96.4699 1041.84,-88.9171 1038.76,-95.199"/>
</g>
<!-- Node10 -->
<g id="node10" class="node"><title>Node10</title>
<g id="a_node10"><a xlink:href="../../d0/d98/SQReco_8cxx.html" target="_top" xlink:title="/dev/shm/kenichi/update\l&#45;github&#45;e1039&#45;doc/e1039\l&#45;core/packages/reco/ktracker\l/SQReco.cxx">
<polygon fill="none" stroke="black" points="1017.5,-1 1017.5,-53 1160.5,-53 1160.5,-1 1017.5,-1"/>
<text text-anchor="start" x="1025.5" y="-41" font-family="FreeSans" font-size="10.00">/dev/shm/kenichi/update</text>
<text text-anchor="start" x="1025.5" y="-30" font-family="FreeSans" font-size="10.00">&#45;github&#45;e1039&#45;doc/e1039</text>
<text text-anchor="start" x="1025.5" y="-19" font-family="FreeSans" font-size="10.00">&#45;core/packages/reco/ktracker</text>
<text text-anchor="middle" x="1089" y="-8" font-family="FreeSans" font-size="10.00">/SQReco.cxx</text>
</a>
</g>
</g>
<!-- Node3&#45;&gt;Node10 -->
<g id="edge9" class="edge"><title>Node3&#45;&gt;Node10</title>
<path fill="none" stroke="midnightblue" d="M1089,-86.2552C1089,-75.5059 1089,-63.4841 1089,-53.1657"/>
<polygon fill="midnightblue" stroke="midnightblue" points="1085.5,-86.4699 1089,-96.4699 1092.5,-86.47 1085.5,-86.4699"/>
</g>
<!-- Node11 -->
<g id="node11" class="node"><title>Node11</title>
<g id="a_node11"><a xlink:href="../../d4/da7/PatternDBGen_8cxx.html" target="_top" xlink:title="/dev/shm/kenichi/update\l&#45;github&#45;e1039&#45;doc/e1039\l&#45;core/packages/reco/patterndb\l/PatternDBGen.cxx">
<polygon fill="none" stroke="black" points="1179,-1 1179,-53 1327,-53 1327,-1 1179,-1"/>
<text text-anchor="start" x="1187" y="-41" font-family="FreeSans" font-size="10.00">/dev/shm/kenichi/update</text>
<text text-anchor="start" x="1187" y="-30" font-family="FreeSans" font-size="10.00">&#45;github&#45;e1039&#45;doc/e1039</text>
<text text-anchor="start" x="1187" y="-19" font-family="FreeSans" font-size="10.00">&#45;core/packages/reco/patterndb</text>
<text text-anchor="middle" x="1253" y="-8" font-family="FreeSans" font-size="10.00">/PatternDBGen.cxx</text>
</a>
</g>
</g>
<!-- Node3&#45;&gt;Node11 -->
<g id="edge10" class="edge"><title>Node3&#45;&gt;Node11</title>
<path fill="none" stroke="midnightblue" d="M1134.38,-91.6502C1156.8,-79.6189 1183.82,-65.1207 1206.41,-53.0021"/>
<polygon fill="midnightblue" stroke="midnightblue" points="1132.55,-88.6577 1125.4,-96.4699 1135.86,-94.8258 1132.55,-88.6577"/>
</g>
<!-- Node12 -->
<g id="node12" class="node"><title>Node12</title>
<g id="a_node12"><a xlink:href="../../d2/d4d/SQDigitizer_8cc.html" target="_top" xlink:title="/dev/shm/kenichi/update\l&#45;github&#45;e1039&#45;doc/e1039\l&#45;core/simulation/g4detectors\l/SQDigitizer.cc">
<polygon fill="none" stroke="black" points="1345,-1 1345,-53 1483,-53 1483,-1 1345,-1"/>
<text text-anchor="start" x="1353" y="-41" font-family="FreeSans" font-size="10.00">/dev/shm/kenichi/update</text>
<text text-anchor="start" x="1353" y="-30" font-family="FreeSans" font-size="10.00">&#45;github&#45;e1039&#45;doc/e1039</text>
<text text-anchor="start" x="1353" y="-19" font-family="FreeSans" font-size="10.00">&#45;core/simulation/g4detectors</text>
<text text-anchor="middle" x="1414" y="-8" font-family="FreeSans" font-size="10.00">/SQDigitizer.cc</text>
</a>
</g>
</g>
<!-- Node3&#45;&gt;Node12 -->
<g id="edge11" class="edge"><title>Node3&#45;&gt;Node12</title>
<path fill="none" stroke="midnightblue" d="M1175.04,-94.0277C1180.44,-92.6612 1185.79,-91.3097 1191,-90 1255.39,-73.7993 1272.23,-72.5131 1336,-54 1338.88,-53.1643 1341.81,-52.2907 1344.77,-51.3911"/>
<polygon fill="midnightblue" stroke="midnightblue" points="1174.13,-90.6484 1165.29,-96.4976 1175.85,-97.4339 1174.13,-90.6484"/>
</g>
<!-- Node13 -->
<g id="node13" class="node"><title>Node13</title>
<g id="a_node13"><a xlink:href="../../df/da0/TruthNodeMaker_8cc.html" target="_top" xlink:title="/dev/shm/kenichi/update\l&#45;github&#45;e1039&#45;doc/e1039\l&#45;core/simulation/g4dst/TruthNode\lMaker.cc">
<polygon fill="none" stroke="black" points="1501.5,-1 1501.5,-53 1660.5,-53 1660.5,-1 1501.5,-1"/>
<text text-anchor="start" x="1509.5" y="-41" font-family="FreeSans" font-size="10.00">/dev/shm/kenichi/update</text>
<text text-anchor="start" x="1509.5" y="-30" font-family="FreeSans" font-size="10.00">&#45;github&#45;e1039&#45;doc/e1039</text>
<text text-anchor="start" x="1509.5" y="-19" font-family="FreeSans" font-size="10.00">&#45;core/simulation/g4dst/TruthNode</text>
<text text-anchor="middle" x="1581" y="-8" font-family="FreeSans" font-size="10.00">Maker.cc</text>
</a>
</g>
</g>
<!-- Node3&#45;&gt;Node13 -->
<g id="edge12" class="edge"><title>Node3&#45;&gt;Node13</title>
<path fill="none" stroke="midnightblue" d="M1170.66,-94.1872C1177.51,-92.6597 1184.36,-91.2376 1191,-90 1323.45,-65.3079 1360,-80.9822 1492,-54 1495,-53.3875 1498.04,-52.7227 1501.1,-52.0167"/>
<polygon fill="midnightblue" stroke="midnightblue" points="1169.59,-90.8414 1160.63,-96.4913 1171.15,-97.6638 1169.59,-90.8414"/>
</g>
<!-- Node14 -->
<g id="node14" class="node"><title>Node14</title>
<g id="a_node14"><a xlink:href="../../db/d7f/AnaTrkQA_8cxx.html" target="_top" xlink:title="/dev/shm/kenichi/update\l&#45;github&#45;e1039&#45;doc/e1039\l&#45;analysis/AnaTrkQA/src/AnaTrkQA.cxx">
<polygon fill="none" stroke="black" points="1678.5,-6.5 1678.5,-47.5 1861.5,-47.5 1861.5,-6.5 1678.5,-6.5"/>
<text text-anchor="start" x="1686.5" y="-35.5" font-family="FreeSans" font-size="10.00">/dev/shm/kenichi/update</text>
<text text-anchor="start" x="1686.5" y="-24.5" font-family="FreeSans" font-size="10.00">&#45;github&#45;e1039&#45;doc/e1039</text>
<text text-anchor="middle" x="1770" y="-13.5" font-family="FreeSans" font-size="10.00">&#45;analysis/AnaTrkQA/src/AnaTrkQA.cxx</text>
</a>
</g>
</g>
<!-- Node3&#45;&gt;Node14 -->
<g id="edge13" class="edge"><title>Node3&#45;&gt;Node14</title>
<path fill="none" stroke="midnightblue" d="M1168.72,-94.2693C1176.21,-92.6527 1183.73,-91.1915 1191,-90 1401.24,-55.5575 1458.8,-88.6914 1669,-54 1679.36,-52.29 1690.21,-50.0202 1700.8,-47.5321"/>
<polygon fill="midnightblue" stroke="midnightblue" points="1167.88,-90.8692 1158.89,-96.4742 1169.42,-97.6992 1167.88,-90.8692"/>
</g>
<!-- Node15 -->
<g id="node15" class="node"><title>Node15</title>
<g id="a_node15"><a xlink:href="../../d5/d2f/Efficiency_2AnaModule_2AnaModule_8cxx.html" target="_top" xlink:title="/dev/shm/kenichi/update\l&#45;github&#45;e1039&#45;doc/e1039\l&#45;analysis/Efficiency/AnaModule\l/AnaModule.cxx">
<polygon fill="none" stroke="black" points="1880,-1 1880,-53 2028,-53 2028,-1 1880,-1"/>
<text text-anchor="start" x="1888" y="-41" font-family="FreeSans" font-size="10.00">/dev/shm/kenichi/update</text>
<text text-anchor="start" x="1888" y="-30" font-family="FreeSans" font-size="10.00">&#45;github&#45;e1039&#45;doc/e1039</text>
<text text-anchor="start" x="1888" y="-19" font-family="FreeSans" font-size="10.00">&#45;analysis/Efficiency/AnaModule</text>
<text text-anchor="middle" x="1954" y="-8" font-family="FreeSans" font-size="10.00">/AnaModule.cxx</text>
</a>
</g>
</g>
<!-- Node3&#45;&gt;Node15 -->
<g id="edge14" class="edge"><title>Node3&#45;&gt;Node15</title>
<path fill="none" stroke="midnightblue" d="M1167.85,-94.2752C1175.63,-92.6221 1183.44,-91.1522 1191,-90 1489.75,-44.4576 1572.5,-107.083 1870,-54 1873.16,-53.4369 1876.36,-52.7912 1879.58,-52.0803"/>
<polygon fill="midnightblue" stroke="midnightblue" points="1167.03,-90.8709 1158.03,-96.457 1168.55,-97.7042 1167.03,-90.8709"/>
</g>
<!-- Node16 -->
<g id="node16" class="node"><title>Node16</title>
<g id="a_node16"><a xlink:href="../../da/d8d/RecoDev_2AnaModule_2AnaModule_8cxx.html" target="_top" xlink:title="/dev/shm/kenichi/update\l&#45;github&#45;e1039&#45;doc/e1039\l&#45;analysis/RecoDev/AnaModule\l/AnaModule.cxx">
<polygon fill="none" stroke="black" points="2046.5,-1 2046.5,-53 2193.5,-53 2193.5,-1 2046.5,-1"/>
<text text-anchor="start" x="2054.5" y="-41" font-family="FreeSans" font-size="10.00">/dev/shm/kenichi/update</text>
<text text-anchor="start" x="2054.5" y="-30" font-family="FreeSans" font-size="10.00">&#45;github&#45;e1039&#45;doc/e1039</text>
<text text-anchor="start" x="2054.5" y="-19" font-family="FreeSans" font-size="10.00">&#45;analysis/RecoDev/AnaModule</text>
<text text-anchor="middle" x="2120" y="-8" font-family="FreeSans" font-size="10.00">/AnaModule.cxx</text>
</a>
</g>
</g>
<!-- Node3&#45;&gt;Node16 -->
<g id="edge15" class="edge"><title>Node3&#45;&gt;Node16</title>
<path fill="none" stroke="midnightblue" d="M1167.44,-94.275C1175.36,-92.6047 1183.31,-91.1314 1191,-90 1563.33,-35.228 1666.28,-118.801 2037,-54 2040.12,-53.454 2043.29,-52.8226 2046.48,-52.1235"/>
<polygon fill="midnightblue" stroke="midnightblue" points="1166.47,-90.9057 1157.46,-96.4853 1167.98,-97.7401 1166.47,-90.9057"/>
</g>
</g>
</svg>
