<?xml version="1.0" encoding="UTF-8" standalone="no"?>
<!DOCTYPE svg PUBLIC "-//W3C//DTD SVG 1.1//EN"
 "http://www.w3.org/Graphics/SVG/1.1/DTD/svg11.dtd">
<!-- Generated by graphviz version 2.36.0 (20140111.2315)
 -->
<!-- Title: PHG4SteppingAction::Init Pages: 1 -->
<svg width="292pt" height="87pt"
 viewBox="0.00 0.00 292.00 87.00" xmlns="http://www.w3.org/2000/svg" xmlns:xlink="http://www.w3.org/1999/xlink">
<g id="graph0" class="graph" transform="scale(1 1) rotate(0) translate(4 83)">
<title>PHG4SteppingAction::Init</title>
<!-- Node1 -->
<g id="node1" class="node"><title>Node1</title>
<polygon fill="#bfbfbf" stroke="black" points="0,-24 0,-54 110,-54 110,-24 0,-24"/>
<text text-anchor="start" x="8" y="-42" font-family="FreeSans" font-size="10.00">PHG4SteppingAction</text>
<text text-anchor="middle" x="55" y="-31" font-family="FreeSans" font-size="10.00">::Init</text>
</g>
<!-- Node2 -->
<g id="node2" class="node"><title>Node2</title>
<g id="a_node2"><a xlink:href="../../da/d01/classPHG4OuterHcalSubsystem.html#a051c0a929dacf42d7d5647ecfb2d4a62" target="_top" xlink:title="PHG4OuterHcalSubsystem\l::InitRunSubsystem">
<polygon fill="none" stroke="black" points="146.5,-49 146.5,-79 283.5,-79 283.5,-49 146.5,-49"/>
<text text-anchor="start" x="154.5" y="-67" font-family="FreeSans" font-size="10.00">PHG4OuterHcalSubsystem</text>
<text text-anchor="middle" x="215" y="-56" font-family="FreeSans" font-size="10.00">::InitRunSubsystem</text>
</a>
</g>
</g>
<!-- Node1&#45;&gt;Node2 -->
<g id="edge1" class="edge"><title>Node1&#45;&gt;Node2</title>
<path fill="none" stroke="midnightblue" d="M120.327,-49.1784C128.921,-50.5382 137.755,-51.9359 146.403,-53.3043"/>
<polygon fill="midnightblue" stroke="midnightblue" points="120.799,-45.7095 110.375,-47.6036 119.705,-52.6235 120.799,-45.7095"/>
</g>
<!-- Node3 -->
<g id="node3" class="node"><title>Node3</title>
<g id="a_node3"><a xlink:href="../../dd/d21/classPHG4PSTOFSubsystem.html#a487e12c6abedca9fabf406aaeab10011" target="_top" xlink:title="PHG4PSTOFSubsystem\l::InitRunSubsystem">
<polygon fill="none" stroke="black" points="152.5,-0 152.5,-30 277.5,-30 277.5,-0 152.5,-0"/>
<text text-anchor="start" x="160.5" y="-18" font-family="FreeSans" font-size="10.00">PHG4PSTOFSubsystem</text>
<text text-anchor="middle" x="215" y="-7" font-family="FreeSans" font-size="10.00">::InitRunSubsystem</text>
</a>
</g>
</g>
<!-- Node1&#45;&gt;Node3 -->
<g id="edge2" class="edge"><title>Node1&#45;&gt;Node3</title>
<path fill="none" stroke="midnightblue" d="M120.396,-29.2183C130.992,-27.6088 141.951,-25.9441 152.475,-24.3456"/>
<polygon fill="midnightblue" stroke="midnightblue" points="119.736,-25.7784 110.375,-30.7406 120.787,-32.699 119.736,-25.7784"/>
</g>
</g>
</svg>
