<?xml version="1.0" encoding="UTF-8" standalone="no"?>
<!DOCTYPE svg PUBLIC "-//W3C//DTD SVG 1.1//EN"
 "http://www.w3.org/Graphics/SVG/1.1/DTD/svg11.dtd">
<!-- Generated by graphviz version 2.30.1 (20180413.0232)
 -->
<!-- Title: /dev/shm/kenichi/update&#45;github&#45;e1039&#45;doc/e1039&#45;core/interface_main/SQTrackVector.h Pages: 1 -->
<svg width="878pt" height="230pt"
 viewBox="0.00 0.00 878.00 230.00" xmlns="http://www.w3.org/2000/svg" xmlns:xlink="http://www.w3.org/1999/xlink">
<g id="graph0" class="graph" transform="scale(1 1) rotate(0) translate(4 226)">
<title>/dev/shm/kenichi/update&#45;github&#45;e1039&#45;doc/e1039&#45;core/interface_main/SQTrackVector.h</title>
<!-- Node1 -->
<g id="node1" class="node"><title>Node1</title>
<polygon fill="#bfbfbf" stroke="black" points="366,-180.5 366,-221.5 548,-221.5 548,-180.5 366,-180.5"/>
<text text-anchor="start" x="374" y="-209.5" font-family="FreeSans" font-size="10.00">/dev/shm/kenichi/update</text>
<text text-anchor="start" x="374" y="-198.5" font-family="FreeSans" font-size="10.00">&#45;github&#45;e1039&#45;doc/e1039</text>
<text text-anchor="middle" x="457" y="-187.5" font-family="FreeSans" font-size="10.00">&#45;core/interface_main/SQTrackVector.h</text>
</g>
<!-- Node2 -->
<g id="node2" class="node"><title>Node2</title>
<g id="a_node2"><a xlink:href="../../df/da6/SQTrackVector_8cxx.html" target="_top" xlink:title="/dev/shm/kenichi/update\l&#45;github&#45;e1039&#45;doc/e1039\l&#45;core/interface_main/SQTrackVector.cxx">
<polygon fill="none" stroke="black" points="149.5,-96.5 149.5,-137.5 340.5,-137.5 340.5,-96.5 149.5,-96.5"/>
<text text-anchor="start" x="157.5" y="-125.5" font-family="FreeSans" font-size="10.00">/dev/shm/kenichi/update</text>
<text text-anchor="start" x="157.5" y="-114.5" font-family="FreeSans" font-size="10.00">&#45;github&#45;e1039&#45;doc/e1039</text>
<text text-anchor="middle" x="245" y="-103.5" font-family="FreeSans" font-size="10.00">&#45;core/interface_main/SQTrackVector.cxx</text>
</a>
</g>
</g>
<!-- Node1&#45;&gt;Node2 -->
<g id="edge1" class="edge"><title>Node1&#45;&gt;Node2</title>
<path fill="none" stroke="midnightblue" d="M396.797,-176.714C364.794,-164.336 325.897,-149.29 295.49,-137.529"/>
<polygon fill="midnightblue" stroke="midnightblue" points="395.901,-180.12 406.49,-180.463 398.426,-173.591 395.901,-180.12"/>
</g>
<!-- Node3 -->
<g id="node3" class="node"><title>Node3</title>
<g id="a_node3"><a xlink:href="../../d1/d59/SQTrackVector__v1_8h.html" target="_top" xlink:title="/dev/shm/kenichi/update\l&#45;github&#45;e1039&#45;doc/e1039\l&#45;core/interface_main/SQTrackVector_v1.h">
<polygon fill="none" stroke="black" points="358.5,-96.5 358.5,-137.5 555.5,-137.5 555.5,-96.5 358.5,-96.5"/>
<text text-anchor="start" x="366.5" y="-125.5" font-family="FreeSans" font-size="10.00">/dev/shm/kenichi/update</text>
<text text-anchor="start" x="366.5" y="-114.5" font-family="FreeSans" font-size="10.00">&#45;github&#45;e1039&#45;doc/e1039</text>
<text text-anchor="middle" x="457" y="-103.5" font-family="FreeSans" font-size="10.00">&#45;core/interface_main/SQTrackVector_v1.h</text>
</a>
</g>
</g>
<!-- Node1&#45;&gt;Node3 -->
<g id="edge2" class="edge"><title>Node1&#45;&gt;Node3</title>
<path fill="none" stroke="midnightblue" d="M457,-169.881C457,-159.133 457,-147.309 457,-137.667"/>
<polygon fill="midnightblue" stroke="midnightblue" points="453.5,-170.15 457,-180.15 460.5,-170.15 453.5,-170.15"/>
</g>
<!-- Node9 -->
<g id="node9" class="node"><title>Node9</title>
<g id="a_node9"><a xlink:href="../../d4/db3/AnaSimDst_8cc.html" target="_top" xlink:title="/dev/shm/kenichi/update\l&#45;github&#45;e1039&#45;doc/e1039\l&#45;analysis/AnaSimDst/src\l/AnaSimDst.cc">
<polygon fill="none" stroke="black" points="573.5,-91 573.5,-143 696.5,-143 696.5,-91 573.5,-91"/>
<text text-anchor="start" x="581.5" y="-131" font-family="FreeSans" font-size="10.00">/dev/shm/kenichi/update</text>
<text text-anchor="start" x="581.5" y="-120" font-family="FreeSans" font-size="10.00">&#45;github&#45;e1039&#45;doc/e1039</text>
<text text-anchor="start" x="581.5" y="-109" font-family="FreeSans" font-size="10.00">&#45;analysis/AnaSimDst/src</text>
<text text-anchor="middle" x="635" y="-98" font-family="FreeSans" font-size="10.00">/AnaSimDst.cc</text>
</a>
</g>
</g>
<!-- Node1&#45;&gt;Node9 -->
<g id="edge8" class="edge"><title>Node1&#45;&gt;Node9</title>
<path fill="none" stroke="midnightblue" d="M509.015,-176.038C531.5,-165.68 557.814,-153.557 580.563,-143.078"/>
<polygon fill="midnightblue" stroke="midnightblue" points="507.254,-172.996 499.635,-180.359 510.182,-179.354 507.254,-172.996"/>
</g>
<!-- Node4 -->
<g id="node4" class="node"><title>Node4</title>
<g id="a_node4"><a xlink:href="../../d1/d80/SQTrackVector__v1_8cxx.html" target="_top" xlink:title="/dev/shm/kenichi/update\l&#45;github&#45;e1039&#45;doc/e1039\l&#45;core/interface_main/SQTrackVector_v1.cxx">
<polygon fill="none" stroke="black" points="0,-6.5 0,-47.5 206,-47.5 206,-6.5 0,-6.5"/>
<text text-anchor="start" x="8" y="-35.5" font-family="FreeSans" font-size="10.00">/dev/shm/kenichi/update</text>
<text text-anchor="start" x="8" y="-24.5" font-family="FreeSans" font-size="10.00">&#45;github&#45;e1039&#45;doc/e1039</text>
<text text-anchor="middle" x="103" y="-13.5" font-family="FreeSans" font-size="10.00">&#45;core/interface_main/SQTrackVector_v1.cxx</text>
</a>
</g>
</g>
<!-- Node3&#45;&gt;Node4 -->
<g id="edge3" class="edge"><title>Node3&#45;&gt;Node4</title>
<path fill="none" stroke="midnightblue" d="M368.646,-94.0363C311.226,-79.7624 237.029,-61.3179 181.65,-47.5514"/>
<polygon fill="midnightblue" stroke="midnightblue" points="367.887,-97.454 378.436,-96.4699 369.576,-90.6608 367.887,-97.454"/>
</g>
<!-- Node5 -->
<g id="node5" class="node"><title>Node5</title>
<g id="a_node5"><a xlink:href="../../d0/d98/SQReco_8cxx.html" target="_top" xlink:title="/dev/shm/kenichi/update\l&#45;github&#45;e1039&#45;doc/e1039\l&#45;core/packages/reco/ktracker\l/SQReco.cxx">
<polygon fill="none" stroke="black" points="224.5,-1 224.5,-53 367.5,-53 367.5,-1 224.5,-1"/>
<text text-anchor="start" x="232.5" y="-41" font-family="FreeSans" font-size="10.00">/dev/shm/kenichi/update</text>
<text text-anchor="start" x="232.5" y="-30" font-family="FreeSans" font-size="10.00">&#45;github&#45;e1039&#45;doc/e1039</text>
<text text-anchor="start" x="232.5" y="-19" font-family="FreeSans" font-size="10.00">&#45;core/packages/reco/ktracker</text>
<text text-anchor="middle" x="296" y="-8" font-family="FreeSans" font-size="10.00">/SQReco.cxx</text>
</a>
</g>
</g>
<!-- Node3&#45;&gt;Node5 -->
<g id="edge4" class="edge"><title>Node3&#45;&gt;Node5</title>
<path fill="none" stroke="midnightblue" d="M412.451,-91.6502C390.439,-79.6189 363.914,-65.1207 341.742,-53.0021"/>
<polygon fill="midnightblue" stroke="midnightblue" points="410.815,-94.7449 421.269,-96.4699 414.173,-88.6026 410.815,-94.7449"/>
</g>
<!-- Node6 -->
<g id="node6" class="node"><title>Node6</title>
<g id="a_node6"><a xlink:href="../../da/da7/SQTruthVertexing_8cxx.html" target="_top" xlink:title="/dev/shm/kenichi/update\l&#45;github&#45;e1039&#45;doc/e1039\l&#45;core/packages/reco/ktracker\l/SQTruthVertexing.cxx">
<polygon fill="none" stroke="black" points="385.5,-1 385.5,-53 528.5,-53 528.5,-1 385.5,-1"/>
<text text-anchor="start" x="393.5" y="-41" font-family="FreeSans" font-size="10.00">/dev/shm/kenichi/update</text>
<text text-anchor="start" x="393.5" y="-30" font-family="FreeSans" font-size="10.00">&#45;github&#45;e1039&#45;doc/e1039</text>
<text text-anchor="start" x="393.5" y="-19" font-family="FreeSans" font-size="10.00">&#45;core/packages/reco/ktracker</text>
<text text-anchor="middle" x="457" y="-8" font-family="FreeSans" font-size="10.00">/SQTruthVertexing.cxx</text>
</a>
</g>
</g>
<!-- Node3&#45;&gt;Node6 -->
<g id="edge5" class="edge"><title>Node3&#45;&gt;Node6</title>
<path fill="none" stroke="midnightblue" d="M457,-86.2552C457,-75.5059 457,-63.4841 457,-53.1657"/>
<polygon fill="midnightblue" stroke="midnightblue" points="453.5,-86.4699 457,-96.4699 460.5,-86.47 453.5,-86.4699"/>
</g>
<!-- Node7 -->
<g id="node7" class="node"><title>Node7</title>
<g id="a_node7"><a xlink:href="../../df/da0/TruthNodeMaker_8cc.html" target="_top" xlink:title="/dev/shm/kenichi/update\l&#45;github&#45;e1039&#45;doc/e1039\l&#45;core/simulation/g4dst/TruthNode\lMaker.cc">
<polygon fill="none" stroke="black" points="546.5,-1 546.5,-53 705.5,-53 705.5,-1 546.5,-1"/>
<text text-anchor="start" x="554.5" y="-41" font-family="FreeSans" font-size="10.00">/dev/shm/kenichi/update</text>
<text text-anchor="start" x="554.5" y="-30" font-family="FreeSans" font-size="10.00">&#45;github&#45;e1039&#45;doc/e1039</text>
<text text-anchor="start" x="554.5" y="-19" font-family="FreeSans" font-size="10.00">&#45;core/simulation/g4dst/TruthNode</text>
<text text-anchor="middle" x="626" y="-8" font-family="FreeSans" font-size="10.00">Maker.cc</text>
</a>
</g>
</g>
<!-- Node3&#45;&gt;Node7 -->
<g id="edge6" class="edge"><title>Node3&#45;&gt;Node7</title>
<path fill="none" stroke="midnightblue" d="M503.455,-91.8104C526.621,-79.7478 554.608,-65.1745 577.985,-53.0021"/>
<polygon fill="midnightblue" stroke="midnightblue" points="501.76,-88.7471 494.507,-96.4699 504.993,-94.9558 501.76,-88.7471"/>
</g>
<!-- Node8 -->
<g id="node8" class="node"><title>Node8</title>
<g id="a_node8"><a xlink:href="../../da/d8d/RecoDev_2AnaModule_2AnaModule_8cxx.html" target="_top" xlink:title="/dev/shm/kenichi/update\l&#45;github&#45;e1039&#45;doc/e1039\l&#45;analysis/RecoDev/AnaModule\l/AnaModule.cxx">
<polygon fill="none" stroke="black" points="723.5,-1 723.5,-53 870.5,-53 870.5,-1 723.5,-1"/>
<text text-anchor="start" x="731.5" y="-41" font-family="FreeSans" font-size="10.00">/dev/shm/kenichi/update</text>
<text text-anchor="start" x="731.5" y="-30" font-family="FreeSans" font-size="10.00">&#45;github&#45;e1039&#45;doc/e1039</text>
<text text-anchor="start" x="731.5" y="-19" font-family="FreeSans" font-size="10.00">&#45;analysis/RecoDev/AnaModule</text>
<text text-anchor="middle" x="797" y="-8" font-family="FreeSans" font-size="10.00">/AnaModule.cxx</text>
</a>
</g>
</g>
<!-- Node3&#45;&gt;Node8 -->
<g id="edge7" class="edge"><title>Node3&#45;&gt;Node8</title>
<path fill="none" stroke="midnightblue" d="M547.813,-94.1287C620.921,-76.5155 711.89,-54.5843 714,-54 717.056,-53.1537 720.169,-52.2714 723.31,-51.3645"/>
<polygon fill="midnightblue" stroke="midnightblue" points="546.985,-90.7278 538.083,-96.4726 548.625,-97.5331 546.985,-90.7278"/>
</g>
</g>
</svg>
