<?xml version="1.0" encoding="UTF-8" standalone="no"?>
<!DOCTYPE svg PUBLIC "-//W3C//DTD SVG 1.1//EN"
 "http://www.w3.org/Graphics/SVG/1.1/DTD/svg11.dtd">
<!-- Generated by graphviz version 2.30.1 (20180413.0232)
 -->
<!-- Title: Fun4AllServer::ResetNodeTree Pages: 1 -->
<svg width="1262pt" height="1396pt"
 viewBox="0.00 0.00 1262.00 1396.00" xmlns="http://www.w3.org/2000/svg" xmlns:xlink="http://www.w3.org/1999/xlink">
<g id="graph0" class="graph" transform="scale(1 1) rotate(0) translate(4 1392)">
<title>Fun4AllServer::ResetNodeTree</title>
<!-- Node1 -->
<g id="node1" class="node"><title>Node1</title>
<polygon fill="#bfbfbf" stroke="black" points="0.5,-706.5 0.5,-725.5 149.5,-725.5 149.5,-706.5 0.5,-706.5"/>
<text text-anchor="middle" x="75" y="-713.5" font-family="FreeSans" font-size="10.00">Fun4AllServer::ResetNodeTree</text>
</g>
<!-- Node2 -->
<g id="node2" class="node"><title>Node2</title>
<g id="a_node2"><a xlink:href="../../da/d29/classFun4AllServer.html#a6a65a944dfb40966ace97d35ab1f7942" target="_top" xlink:title="Fun4AllServer::process\l_event">
<polygon fill="none" stroke="black" points="186.5,-723 186.5,-753 301.5,-753 301.5,-723 186.5,-723"/>
<text text-anchor="start" x="194.5" y="-741" font-family="FreeSans" font-size="10.00">Fun4AllServer::process</text>
<text text-anchor="middle" x="244" y="-730" font-family="FreeSans" font-size="10.00">_event</text>
</a>
</g>
</g>
<!-- Node1&#45;&gt;Node2 -->
<g id="edge1" class="edge"><title>Node1&#45;&gt;Node2</title>
<path fill="none" stroke="midnightblue" d="M158.214,-726.831C167.776,-728.09 177.362,-729.353 186.468,-730.553"/>
<polygon fill="midnightblue" stroke="midnightblue" points="158.649,-723.358 148.277,-725.522 157.735,-730.298 158.649,-723.358"/>
</g>
<!-- Node4 -->
<g id="node4" class="node"><title>Node4</title>
<g id="a_node4"><a xlink:href="../../da/d29/classFun4AllServer.html#a11bbc8b2f53bc06e0b05ee202dd6372a" target="_top" xlink:title="run n events (0 means up to end of file) ">
<polygon fill="none" stroke="black" points="348.5,-684.5 348.5,-703.5 443.5,-703.5 443.5,-684.5 348.5,-684.5"/>
<text text-anchor="middle" x="396" y="-691.5" font-family="FreeSans" font-size="10.00">Fun4AllServer::run</text>
</a>
</g>
</g>
<!-- Node1&#45;&gt;Node4 -->
<g id="edge46" class="edge"><title>Node1&#45;&gt;Node4</title>
<path fill="none" stroke="midnightblue" d="M159.845,-710.218C220.097,-706.062 299.096,-700.614 348.453,-697.21"/>
<polygon fill="midnightblue" stroke="midnightblue" points="159.321,-706.745 149.586,-710.925 159.803,-713.729 159.321,-706.745"/>
</g>
<!-- Node3 -->
<g id="node3" class="node"><title>Node3</title>
<g id="a_node3"><a xlink:href="../../da/d29/classFun4AllServer.html#a94738b092fa009fcea45737d8ea41224" target="_top" xlink:title="Fun4AllServer::process\l_event">
<polygon fill="none" stroke="black" points="338.5,-723 338.5,-753 453.5,-753 453.5,-723 338.5,-723"/>
<text text-anchor="start" x="346.5" y="-741" font-family="FreeSans" font-size="10.00">Fun4AllServer::process</text>
<text text-anchor="middle" x="396" y="-730" font-family="FreeSans" font-size="10.00">_event</text>
</a>
</g>
</g>
<!-- Node2&#45;&gt;Node3 -->
<g id="edge2" class="edge"><title>Node2&#45;&gt;Node3</title>
<path fill="none" stroke="midnightblue" d="M311.916,-738C320.694,-738 329.622,-738 338.211,-738"/>
<polygon fill="midnightblue" stroke="midnightblue" points="311.709,-734.5 301.709,-738 311.709,-741.5 311.709,-734.5"/>
</g>
<!-- Node2&#45;&gt;Node4 -->
<g id="edge3" class="edge"><title>Node2&#45;&gt;Node4</title>
<path fill="none" stroke="midnightblue" d="M305.859,-720.148C325.184,-714.479 345.809,-708.429 362.347,-703.578"/>
<polygon fill="midnightblue" stroke="midnightblue" points="304.812,-716.807 296.202,-722.981 306.783,-723.524 304.812,-716.807"/>
</g>
<!-- Node5 -->
<g id="node5" class="node"><title>Node5</title>
<g id="a_node5"><a xlink:href="../../da/daa/Fun4RealDst_8C.html#af2bc551d71266cd8c5a6daeea6a861d8" target="_top" xlink:title="Fun4MainDaq.C: Fun4all macro to decode the MainDAQ data. ">
<polygon fill="none" stroke="black" points="521,-1368.5 521,-1387.5 593,-1387.5 593,-1368.5 521,-1368.5"/>
<text text-anchor="middle" x="557" y="-1375.5" font-family="FreeSans" font-size="10.00">Fun4RealDst</text>
</a>
</g>
</g>
<!-- Node4&#45;&gt;Node5 -->
<g id="edge4" class="edge"><title>Node4&#45;&gt;Node5</title>
<path fill="none" stroke="midnightblue" d="M450.979,-709.574C452.059,-710.642 453.07,-711.783 454,-713 541.282,-827.254 400.369,-1246.58 490,-1359 497.508,-1368.42 509.364,-1373.36 520.97,-1375.89"/>
<polygon fill="midnightblue" stroke="midnightblue" points="453.075,-706.771 442.991,-703.524 448.849,-712.351 453.075,-706.771"/>
</g>
<!-- Node6 -->
<g id="node6" class="node"><title>Node6</title>
<g id="a_node6"><a xlink:href="../../da/daa/Fun4RealDst_8C.html#aa80eadb6952b5d52a756d7cf52d05770" target="_top" xlink:title="Function to analyze multiple DST files. ">
<polygon fill="none" stroke="black" points="510.5,-1330.5 510.5,-1349.5 603.5,-1349.5 603.5,-1330.5 510.5,-1330.5"/>
<text text-anchor="middle" x="557" y="-1337.5" font-family="FreeSans" font-size="10.00">Fun4MultiRealDst</text>
</a>
</g>
</g>
<!-- Node4&#45;&gt;Node6 -->
<g id="edge5" class="edge"><title>Node4&#45;&gt;Node6</title>
<path fill="none" stroke="midnightblue" d="M450.974,-709.579C452.055,-710.645 453.068,-711.784 454,-713 536.351,-820.412 405.441,-1215.32 490,-1321 495.215,-1327.52 502.512,-1331.89 510.364,-1334.81"/>
<polygon fill="midnightblue" stroke="midnightblue" points="453.065,-706.772 442.977,-703.534 448.844,-712.356 453.065,-706.772"/>
</g>
<!-- Node7 -->
<g id="node7" class="node"><title>Node7</title>
<g id="a_node7"><a xlink:href="../../db/dba/Fun4SimDst_8C.html#abf0708efff889232b6c0a7359cfb70ae" target="_top" xlink:title="Fun4SimDst.C: Fun4all macro to analyze the E1039 simulated DST files. ">
<polygon fill="none" stroke="black" points="522,-1292.5 522,-1311.5 592,-1311.5 592,-1292.5 522,-1292.5"/>
<text text-anchor="middle" x="557" y="-1299.5" font-family="FreeSans" font-size="10.00">Fun4SimDst</text>
</a>
</g>
</g>
<!-- Node4&#45;&gt;Node7 -->
<g id="edge6" class="edge"><title>Node4&#45;&gt;Node7</title>
<path fill="none" stroke="midnightblue" d="M450.967,-709.583C452.05,-710.649 453.065,-711.786 454,-713 531.421,-813.571 410.512,-1184.06 490,-1283 497.692,-1292.57 509.878,-1297.52 521.697,-1300.01"/>
<polygon fill="midnightblue" stroke="midnightblue" points="453.053,-706.773 442.962,-703.546 448.838,-712.362 453.053,-706.773"/>
</g>
<!-- Node8 -->
<g id="node8" class="node"><title>Node8</title>
<g id="a_node8"><a xlink:href="../../d6/dac/Fun4SimMicroDst_8C.html#ab980c780491ded824d61247fc1fa6127" target="_top" xlink:title="Fun4SimMicroDst.C: Fun4all macro to analyze you uDST. ">
<polygon fill="none" stroke="black" points="510,-1254.5 510,-1273.5 604,-1273.5 604,-1254.5 510,-1254.5"/>
<text text-anchor="middle" x="557" y="-1261.5" font-family="FreeSans" font-size="10.00">Fun4SimMicroDst</text>
</a>
</g>
</g>
<!-- Node4&#45;&gt;Node8 -->
<g id="edge7" class="edge"><title>Node4&#45;&gt;Node8</title>
<path fill="none" stroke="midnightblue" d="M450.96,-709.589C452.045,-710.653 453.063,-711.788 454,-713 526.491,-806.731 415.582,-1152.79 490,-1245 495.092,-1251.31 502.136,-1255.61 509.735,-1258.52"/>
<polygon fill="midnightblue" stroke="midnightblue" points="453.04,-706.774 442.944,-703.559 448.832,-712.368 453.04,-706.774"/>
</g>
<!-- Node9 -->
<g id="node9" class="node"><title>Node9</title>
<g id="a_node9"><a xlink:href="../../db/dbe/Fun4CODA_8C.html#a1bbee777074605aa2a59ddf9b2b52742" target="_top" xlink:title="Fun4CODA">
<polygon fill="none" stroke="black" points="524,-1216.5 524,-1235.5 590,-1235.5 590,-1216.5 524,-1216.5"/>
<text text-anchor="middle" x="557" y="-1223.5" font-family="FreeSans" font-size="10.00">Fun4CODA</text>
</a>
</g>
</g>
<!-- Node4&#45;&gt;Node9 -->
<g id="edge8" class="edge"><title>Node4&#45;&gt;Node9</title>
<path fill="none" stroke="midnightblue" d="M450.952,-709.596C452.039,-710.657 453.06,-711.791 454,-713 521.563,-799.893 420.651,-1121.53 490,-1207 498.189,-1217.09 511.369,-1222.04 523.806,-1224.38"/>
<polygon fill="midnightblue" stroke="midnightblue" points="453.024,-706.775 442.924,-703.575 448.824,-712.375 453.024,-706.775"/>
</g>
<!-- Node10 -->
<g id="node10" class="node"><title>Node10</title>
<g id="a_node10"><a xlink:href="../../de/daf/Fun4DST_8C.html#a6a43c5ad028285b022976fa872e60cbc" target="_top" xlink:title="Fun4DST">
<polygon fill="none" stroke="black" points="528,-1178.5 528,-1197.5 586,-1197.5 586,-1178.5 528,-1178.5"/>
<text text-anchor="middle" x="557" y="-1185.5" font-family="FreeSans" font-size="10.00">Fun4DST</text>
</a>
</g>
</g>
<!-- Node4&#45;&gt;Node10 -->
<g id="edge9" class="edge"><title>Node4&#45;&gt;Node10</title>
<path fill="none" stroke="midnightblue" d="M450.942,-709.603C452.033,-710.663 453.056,-711.793 454,-713 516.636,-793.057 425.718,-1090.26 490,-1169 499.124,-1180.18 514.368,-1185.03 527.908,-1187.05"/>
<polygon fill="midnightblue" stroke="midnightblue" points="453.006,-706.776 442.901,-703.593 448.816,-712.383 453.006,-706.776"/>
</g>
<!-- Node11 -->
<g id="node11" class="node"><title>Node11</title>
<g id="a_node11"><a xlink:href="../../d2/d24/Fun4E1039Shielding_8C.html#a42592782dd55d6e219305ff678a00dc2" target="_top" xlink:title="Fun4E1039Shielding">
<polygon fill="none" stroke="black" points="504.5,-1140.5 504.5,-1159.5 609.5,-1159.5 609.5,-1140.5 504.5,-1140.5"/>
<text text-anchor="middle" x="557" y="-1147.5" font-family="FreeSans" font-size="10.00">Fun4E1039Shielding</text>
</a>
</g>
</g>
<!-- Node4&#45;&gt;Node11 -->
<g id="edge10" class="edge"><title>Node4&#45;&gt;Node11</title>
<path fill="none" stroke="midnightblue" d="M450.931,-709.612C452.024,-710.669 453.052,-711.797 454,-713 511.712,-786.224 430.783,-1058.99 490,-1131 493.862,-1135.7 498.805,-1139.28 504.245,-1142"/>
<polygon fill="midnightblue" stroke="midnightblue" points="452.985,-706.778 442.873,-703.615 448.805,-712.393 452.985,-706.778"/>
</g>
<!-- Node12 -->
<g id="node12" class="node"><title>Node12</title>
<g id="a_node12"><a xlink:href="../../d1/da2/E1039Shielding_2int__run_8C.html#a088590a1a5b93b904ba076de8ca1ef82" target="_top" xlink:title="int_run">
<polygon fill="none" stroke="black" points="534,-1102.5 534,-1121.5 580,-1121.5 580,-1102.5 534,-1102.5"/>
<text text-anchor="middle" x="557" y="-1109.5" font-family="FreeSans" font-size="10.00">int_run</text>
</a>
</g>
</g>
<!-- Node4&#45;&gt;Node12 -->
<g id="edge11" class="edge"><title>Node4&#45;&gt;Node12</title>
<path fill="none" stroke="midnightblue" d="M450.917,-709.623C452.015,-710.677 453.047,-711.801 454,-713 506.79,-779.393 435.845,-1027.71 490,-1093 500.582,-1105.76 519.13,-1110.26 533.874,-1111.72"/>
<polygon fill="midnightblue" stroke="midnightblue" points="452.96,-706.78 442.841,-703.641 448.793,-712.405 452.96,-706.78"/>
</g>
<!-- Node13 -->
<g id="node13" class="node"><title>Node13</title>
<g id="a_node13"><a xlink:href="../../d6/d6a/Fun4HodoAccGap_8C.html#a7aaa0687f144d5e7b417d7e9ac5f36da" target="_top" xlink:title="Fun4HodoAccGap">
<polygon fill="none" stroke="black" points="509,-1064.5 509,-1083.5 605,-1083.5 605,-1064.5 509,-1064.5"/>
<text text-anchor="middle" x="557" y="-1071.5" font-family="FreeSans" font-size="10.00">Fun4HodoAccGap</text>
</a>
</g>
</g>
<!-- Node4&#45;&gt;Node13 -->
<g id="edge12" class="edge"><title>Node4&#45;&gt;Node13</title>
<path fill="none" stroke="midnightblue" d="M450.83,-709.569C451.959,-710.638 453.02,-711.78 454,-713 549.743,-832.136 391.809,-937.874 490,-1055 494.979,-1060.94 501.685,-1065.09 508.919,-1067.97"/>
<polygon fill="midnightblue" stroke="midnightblue" points="452.671,-706.58 442.528,-703.517 448.547,-712.236 452.671,-706.58"/>
</g>
<!-- Node14 -->
<g id="node14" class="node"><title>Node14</title>
<g id="a_node14"><a xlink:href="../../de/d66/Fun4Pythia8Demo_8C.html#a6a06be36766511c5ad76013c9cbfe5b5" target="_top" xlink:title="Fun4Pythia8Demo">
<polygon fill="none" stroke="black" points="509,-1026.5 509,-1045.5 605,-1045.5 605,-1026.5 509,-1026.5"/>
<text text-anchor="middle" x="557" y="-1033.5" font-family="FreeSans" font-size="10.00">Fun4Pythia8Demo</text>
</a>
</g>
</g>
<!-- Node4&#45;&gt;Node14 -->
<g id="edge13" class="edge"><title>Node4&#45;&gt;Node14</title>
<path fill="none" stroke="midnightblue" d="M450.809,-709.586C451.944,-710.65 453.012,-711.787 454,-713 539.916,-818.496 401.916,-913.307 490,-1017 495.018,-1022.91 501.742,-1027.04 508.983,-1029.92"/>
<polygon fill="midnightblue" stroke="midnightblue" points="452.631,-706.585 442.478,-703.558 448.527,-712.256 452.631,-706.585"/>
</g>
<!-- Node15 -->
<g id="node15" class="node"><title>Node15</title>
<g id="a_node15"><a xlink:href="../../db/dea/RecoE1039Data_8C.html#a619388c470b52b98a611cb6f18ba24c1" target="_top" xlink:title="RecoE1039Data">
<polygon fill="none" stroke="black" points="514,-988.5 514,-1007.5 600,-1007.5 600,-988.5 514,-988.5"/>
<text text-anchor="middle" x="557" y="-995.5" font-family="FreeSans" font-size="10.00">RecoE1039Data</text>
</a>
</g>
</g>
<!-- Node4&#45;&gt;Node15 -->
<g id="edge14" class="edge"><title>Node4&#45;&gt;Node15</title>
<path fill="none" stroke="midnightblue" d="M450.782,-709.608C451.925,-710.666 453.002,-711.795 454,-713 530.103,-804.874 412.009,-888.723 490,-979 496.158,-986.128 504.801,-990.666 513.808,-993.534"/>
<polygon fill="midnightblue" stroke="midnightblue" points="452.581,-706.591 442.414,-703.61 448.503,-712.281 452.581,-706.591"/>
</g>
<!-- Node16 -->
<g id="node16" class="node"><title>Node16</title>
<g id="a_node16"><a xlink:href="../../d0/d9c/RecoE1039Sim_8C.html#a07edfd7b51752cb53ea50911050a8511" target="_top" xlink:title="RecoE1039Sim">
<polygon fill="none" stroke="black" points="515.5,-950.5 515.5,-969.5 598.5,-969.5 598.5,-950.5 515.5,-950.5"/>
<text text-anchor="middle" x="557" y="-957.5" font-family="FreeSans" font-size="10.00">RecoE1039Sim</text>
</a>
</g>
</g>
<!-- Node4&#45;&gt;Node16 -->
<g id="edge15" class="edge"><title>Node4&#45;&gt;Node16</title>
<path fill="none" stroke="midnightblue" d="M450.319,-709.254C451.631,-710.413 452.864,-711.659 454,-713 520.311,-791.277 422.081,-864.114 490,-941 496.552,-948.417 505.793,-953.022 515.291,-955.858"/>
<polygon fill="midnightblue" stroke="midnightblue" points="452.268,-706.346 442.054,-703.528 448.281,-712.1 452.268,-706.346"/>
</g>
<!-- Node17 -->
<g id="node17" class="node"><title>Node17</title>
<g id="a_node17"><a xlink:href="../../df/d0c/RecoE906Data_8C.html#ad032525ca693000ba382d14d82bf9f2b" target="_top" xlink:title="RecoE906Data">
<polygon fill="none" stroke="black" points="516.5,-912.5 516.5,-931.5 597.5,-931.5 597.5,-912.5 516.5,-912.5"/>
<text text-anchor="middle" x="557" y="-919.5" font-family="FreeSans" font-size="10.00">RecoE906Data</text>
</a>
</g>
</g>
<!-- Node4&#45;&gt;Node17 -->
<g id="edge16" class="edge"><title>Node4&#45;&gt;Node17</title>
<path fill="none" stroke="midnightblue" d="M450.265,-709.3C451.593,-710.446 452.844,-711.677 454,-713 510.552,-777.72 432.118,-839.466 490,-903 496.906,-910.58 506.62,-915.212 516.477,-918.02"/>
<polygon fill="midnightblue" stroke="midnightblue" points="452.173,-706.365 441.938,-703.629 448.233,-712.151 452.173,-706.365"/>
</g>
<!-- Node18 -->
<g id="node18" class="node"><title>Node18</title>
<g id="a_node18"><a xlink:href="../../d8/de7/Fun4SRawEvent_8C.html#aaa9bb2e956ce860a8cb6e7845bcc4ed5" target="_top" xlink:title="Fun4SRawEvent">
<polygon fill="none" stroke="black" points="513,-874.5 513,-893.5 601,-893.5 601,-874.5 513,-874.5"/>
<text text-anchor="middle" x="557" y="-881.5" font-family="FreeSans" font-size="10.00">Fun4SRawEvent</text>
</a>
</g>
</g>
<!-- Node4&#45;&gt;Node18 -->
<g id="edge17" class="edge"><title>Node4&#45;&gt;Node18</title>
<path fill="none" stroke="midnightblue" d="M450.105,-709.301C451.486,-710.446 452.79,-711.677 454,-713 500.853,-764.23 442.095,-814.752 490,-865 496.171,-871.473 504.391,-875.783 512.929,-878.644"/>
<polygon fill="midnightblue" stroke="midnightblue" points="451.767,-706.204 441.489,-703.632 447.919,-712.052 451.767,-706.204"/>
</g>
<!-- Node19 -->
<g id="node19" class="node"><title>Node19</title>
<g id="a_node19"><a xlink:href="../../d9/de0/Fun4All__G4__BNL_8C.html#a62a558c2bb73d1be82a65b16f52ce2e0" target="_top" xlink:title="Fun4All_G4_BNL">
<polygon fill="none" stroke="black" points="511,-836.5 511,-855.5 603,-855.5 603,-836.5 511,-836.5"/>
<text text-anchor="middle" x="557" y="-843.5" font-family="FreeSans" font-size="10.00">Fun4All_G4_BNL</text>
</a>
</g>
</g>
<!-- Node4&#45;&gt;Node19 -->
<g id="edge18" class="edge"><title>Node4&#45;&gt;Node19</title>
<path fill="none" stroke="midnightblue" d="M449.405,-708.974C451.033,-710.211 452.573,-711.55 454,-713 491.271,-750.868 451.952,-789.913 490,-827 495.806,-832.66 503.185,-836.653 510.89,-839.466"/>
<polygon fill="midnightblue" stroke="midnightblue" points="451.005,-705.85 440.652,-703.602 447.344,-711.816 451.005,-705.85"/>
</g>
<!-- Node20 -->
<g id="node20" class="node"><title>Node20</title>
<g id="a_node20"><a xlink:href="../../de/dad/Fun4All__G4__BNL__R1_8C.html#a361be596f3554cfa3d0fc26346c50c31" target="_top" xlink:title="Fun4All_G4_BNL_R1">
<polygon fill="none" stroke="black" points="502.5,-798.5 502.5,-817.5 611.5,-817.5 611.5,-798.5 502.5,-798.5"/>
<text text-anchor="middle" x="557" y="-805.5" font-family="FreeSans" font-size="10.00">Fun4All_G4_BNL_R1</text>
</a>
</g>
</g>
<!-- Node4&#45;&gt;Node20 -->
<g id="edge19" class="edge"><title>Node4&#45;&gt;Node20</title>
<path fill="none" stroke="midnightblue" d="M447.841,-708.353C450.019,-709.761 452.087,-711.305 454,-713 481.974,-737.788 461.519,-764.798 490,-789 494.543,-792.861 499.829,-795.938 505.395,-798.391"/>
<polygon fill="midnightblue" stroke="midnightblue" points="449.467,-705.253 439.005,-703.577 446.138,-711.411 449.467,-705.253"/>
</g>
<!-- Node21 -->
<g id="node21" class="node"><title>Node21</title>
<g id="a_node21"><a xlink:href="../../d1/d24/Fun4All__G4__E1039_8C.html#ad81863c21df83a735c57713bc9ec59b1" target="_top" xlink:title="Fun4All_G4_E1039">
<polygon fill="none" stroke="black" points="507,-760.5 507,-779.5 607,-779.5 607,-760.5 507,-760.5"/>
<text text-anchor="middle" x="557" y="-767.5" font-family="FreeSans" font-size="10.00">Fun4All_G4_E1039</text>
</a>
</g>
</g>
<!-- Node4&#45;&gt;Node21 -->
<g id="edge20" class="edge"><title>Node4&#45;&gt;Node21</title>
<path fill="none" stroke="midnightblue" d="M443.881,-707.492C447.405,-709.145 450.822,-710.976 454,-713 473.623,-725.497 470.122,-738.912 490,-751 496.316,-754.841 503.445,-757.936 510.621,-760.421"/>
<polygon fill="midnightblue" stroke="midnightblue" points="444.968,-704.153 434.392,-703.526 442.268,-710.611 444.968,-704.153"/>
</g>
<!-- Node22 -->
<g id="node22" class="node"><title>Node22</title>
<g id="a_node22"><a xlink:href="../../de/d10/Fun4All__G4__E1039__R1_8C.html#aa484b834b55e3114dfd4cd82dcd11831" target="_top" xlink:title="Fun4All_G4_E1039_R1">
<polygon fill="none" stroke="black" points="498.5,-722.5 498.5,-741.5 615.5,-741.5 615.5,-722.5 498.5,-722.5"/>
<text text-anchor="middle" x="557" y="-729.5" font-family="FreeSans" font-size="10.00">Fun4All_G4_E1039_R1</text>
</a>
</g>
</g>
<!-- Node4&#45;&gt;Node22 -->
<g id="edge21" class="edge"><title>Node4&#45;&gt;Node22</title>
<path fill="none" stroke="midnightblue" d="M447.077,-705.968C469.358,-711.293 495.229,-717.476 516.166,-722.48"/>
<polygon fill="midnightblue" stroke="midnightblue" points="447.662,-702.509 437.122,-703.589 446.035,-709.318 447.662,-702.509"/>
</g>
<!-- Node23 -->
<g id="node23" class="node"><title>Node23</title>
<g id="a_node23"><a xlink:href="../../df/d98/Fun4All__G4__E1039__R2_8C.html#a0cc5938b98723b2d5216049aad7edb01" target="_top" xlink:title="Fun4All_G4_E1039_R2">
<polygon fill="none" stroke="black" points="498.5,-684.5 498.5,-703.5 615.5,-703.5 615.5,-684.5 498.5,-684.5"/>
<text text-anchor="middle" x="557" y="-691.5" font-family="FreeSans" font-size="10.00">Fun4All_G4_E1039_R2</text>
</a>
</g>
</g>
<!-- Node4&#45;&gt;Node23 -->
<g id="edge22" class="edge"><title>Node4&#45;&gt;Node23</title>
<path fill="none" stroke="midnightblue" d="M454.076,-694C468.425,-694 483.835,-694 498.218,-694"/>
<polygon fill="midnightblue" stroke="midnightblue" points="453.845,-690.5 443.845,-694 453.845,-697.5 453.845,-690.5"/>
</g>
<!-- Node24 -->
<g id="node24" class="node"><title>Node24</title>
<g id="a_node24"><a xlink:href="../../d1/d91/Fun4All__G4__E1039__R2__V2_8C.html#a89f8b08cddafb17f4ba14e509a0ca1db" target="_top" xlink:title="Fun4All_G4_E1039_R2_V2">
<polygon fill="none" stroke="black" points="490,-646.5 490,-665.5 624,-665.5 624,-646.5 490,-646.5"/>
<text text-anchor="middle" x="557" y="-653.5" font-family="FreeSans" font-size="10.00">Fun4All_G4_E1039_R2_V2</text>
</a>
</g>
</g>
<!-- Node4&#45;&gt;Node24 -->
<g id="edge23" class="edge"><title>Node4&#45;&gt;Node24</title>
<path fill="none" stroke="midnightblue" d="M447.077,-682.032C469.358,-676.707 495.229,-670.524 516.166,-665.52"/>
<polygon fill="midnightblue" stroke="midnightblue" points="446.035,-678.682 437.122,-684.411 447.662,-685.491 446.035,-678.682"/>
</g>
<!-- Node25 -->
<g id="node25" class="node"><title>Node25</title>
<g id="a_node25"><a xlink:href="../../d5/db4/Fun4All__Test_8C.html#ae69a57ea66fbed58544200f95796a66f" target="_top" xlink:title="Fun4All_Test">
<polygon fill="none" stroke="black" points="520,-608.5 520,-627.5 594,-627.5 594,-608.5 520,-608.5"/>
<text text-anchor="middle" x="557" y="-615.5" font-family="FreeSans" font-size="10.00">Fun4All_Test</text>
</a>
</g>
</g>
<!-- Node4&#45;&gt;Node25 -->
<g id="edge24" class="edge"><title>Node4&#45;&gt;Node25</title>
<path fill="none" stroke="midnightblue" d="M418.432,-678.549C436.717,-665.946 464.088,-648.419 490,-637 499.384,-632.865 509.911,-629.364 519.755,-626.537"/>
<polygon fill="midnightblue" stroke="midnightblue" points="416.415,-675.688 410.232,-684.292 420.43,-681.422 416.415,-675.688"/>
</g>
<!-- Node26 -->
<g id="node26" class="node"><title>Node26</title>
<g id="a_node26"><a xlink:href="../../d7/d66/Fun4PatternDB_8C.html#a9e68afec0dfdd12961d550386529d5eb" target="_top" xlink:title="Fun4PatternDB">
<polygon fill="none" stroke="black" points="515.5,-570.5 515.5,-589.5 598.5,-589.5 598.5,-570.5 515.5,-570.5"/>
<text text-anchor="middle" x="557" y="-577.5" font-family="FreeSans" font-size="10.00">Fun4PatternDB</text>
</a>
</g>
</g>
<!-- Node4&#45;&gt;Node26 -->
<g id="edge25" class="edge"><title>Node4&#45;&gt;Node26</title>
<path fill="none" stroke="midnightblue" d="M409.849,-676.085C426.133,-654.665 456.185,-619.185 490,-599 497.679,-594.416 506.523,-590.888 515.191,-588.189"/>
<polygon fill="midnightblue" stroke="midnightblue" points="406.888,-674.201 403.742,-684.318 412.51,-678.371 406.888,-674.201"/>
</g>
<!-- Node27 -->
<g id="node27" class="node"><title>Node27</title>
<g id="a_node27"><a xlink:href="../../d2/d3a/Fun4TrkDev_8C.html#abd98cf50196a6ad7cb2289d1f0442b73" target="_top" xlink:title="Fun4TrkDev">
<polygon fill="none" stroke="black" points="522.5,-532.5 522.5,-551.5 591.5,-551.5 591.5,-532.5 522.5,-532.5"/>
<text text-anchor="middle" x="557" y="-539.5" font-family="FreeSans" font-size="10.00">Fun4TrkDev</text>
</a>
</g>
</g>
<!-- Node4&#45;&gt;Node27 -->
<g id="edge26" class="edge"><title>Node4&#45;&gt;Node27</title>
<path fill="none" stroke="midnightblue" d="M405.233,-674.835C418.688,-645.806 448.146,-590.908 490,-561 499.507,-554.206 511.408,-549.83 522.476,-547.015"/>
<polygon fill="midnightblue" stroke="midnightblue" points="401.903,-673.709 401.007,-684.266 408.29,-676.572 401.903,-673.709"/>
</g>
<!-- Node28 -->
<g id="node28" class="node"><title>Node28</title>
<g id="a_node28"><a xlink:href="../../db/d7c/Fun4DumpGeom_8C.html#ac8b66de3cf15072c6969f76f6b8f7f4c" target="_top" xlink:title="Fun4Geom">
<polygon fill="none" stroke="black" points="524.5,-494.5 524.5,-513.5 589.5,-513.5 589.5,-494.5 524.5,-494.5"/>
<text text-anchor="middle" x="557" y="-501.5" font-family="FreeSans" font-size="10.00">Fun4Geom</text>
</a>
</g>
</g>
<!-- Node4&#45;&gt;Node28 -->
<g id="edge27" class="edge"><title>Node4&#45;&gt;Node28</title>
<path fill="none" stroke="midnightblue" d="M402.172,-674.464C412.61,-638.881 439.611,-563.456 490,-523 499.763,-515.162 512.62,-510.557 524.391,-507.852"/>
<polygon fill="midnightblue" stroke="midnightblue" points="398.787,-673.571 399.456,-684.144 405.527,-675.461 398.787,-673.571"/>
</g>
<!-- Node29 -->
<g id="node29" class="node"><title>Node29</title>
<g id="a_node29"><a xlink:href="../../dd/d7d/Fun4kTracker_8C.html#abe7052288e4678d0346333383ad821ff" target="_top" xlink:title="Fun4kTracker">
<polygon fill="none" stroke="black" points="518.5,-456.5 518.5,-475.5 595.5,-475.5 595.5,-456.5 518.5,-456.5"/>
<text text-anchor="middle" x="557" y="-463.5" font-family="FreeSans" font-size="10.00">Fun4kTracker</text>
</a>
</g>
</g>
<!-- Node4&#45;&gt;Node29 -->
<g id="edge28" class="edge"><title>Node4&#45;&gt;Node29</title>
<path fill="none" stroke="midnightblue" d="M400.04,-674.539C407.523,-633.281 430.728,-536.59 490,-485 497.915,-478.111 508.187,-473.713 518.261,-470.908"/>
<polygon fill="midnightblue" stroke="midnightblue" points="396.587,-673.967 398.363,-684.412 403.488,-675.139 396.587,-673.967"/>
</g>
<!-- Node30 -->
<g id="node30" class="node"><title>Node30</title>
<g id="a_node30"><a xlink:href="../../d9/d8c/Fun4ReadMySql_8C.html#a82110168fa15d41b073c27eeadfc0ff3" target="_top" xlink:title="Fun4ReadMySql">
<polygon fill="none" stroke="black" points="513,-418.5 513,-437.5 601,-437.5 601,-418.5 513,-418.5"/>
<text text-anchor="middle" x="557" y="-425.5" font-family="FreeSans" font-size="10.00">Fun4ReadMySql</text>
</a>
</g>
</g>
<!-- Node4&#45;&gt;Node30 -->
<g id="edge29" class="edge"><title>Node4&#45;&gt;Node30</title>
<path fill="none" stroke="midnightblue" d="M398.568,-674.267C403.347,-627.645 421.886,-509.885 490,-447 496.395,-441.096 504.51,-437.014 512.844,-434.195"/>
<polygon fill="midnightblue" stroke="midnightblue" points="395.078,-673.999 397.646,-684.278 402.048,-674.641 395.078,-673.999"/>
</g>
<!-- Node31 -->
<g id="node31" class="node"><title>Node31</title>
<g id="a_node31"><a xlink:href="../../d6/d4c/Fun4SeaQuest_8C.html#a81bffd149f5c71602cb40eb0f45019c3" target="_top" xlink:title="Fun4SeaQuest">
<polygon fill="none" stroke="black" points="516.5,-380.5 516.5,-399.5 597.5,-399.5 597.5,-380.5 516.5,-380.5"/>
<text text-anchor="middle" x="557" y="-387.5" font-family="FreeSans" font-size="10.00">Fun4SeaQuest</text>
</a>
</g>
</g>
<!-- Node4&#45;&gt;Node31 -->
<g id="edge30" class="edge"><title>Node4&#45;&gt;Node31</title>
<path fill="none" stroke="midnightblue" d="M397.432,-674.098C399.66,-622.534 412.895,-483.444 490,-409 497.206,-402.043 506.788,-397.606 516.413,-394.784"/>
<polygon fill="midnightblue" stroke="midnightblue" points="393.93,-674.118 397.093,-684.23 400.926,-674.352 393.93,-674.118"/>
</g>
<!-- Node32 -->
<g id="node32" class="node"><title>Node32</title>
<g id="a_node32"><a xlink:href="../../d7/d65/e1039-core_2macros_2Fun4Sim_8C.html#a5e9276116ae0064f58b288a1e0e4e3db" target="_top" xlink:title="Fun4Sim">
<polygon fill="none" stroke="black" points="529,-342.5 529,-361.5 585,-361.5 585,-342.5 529,-342.5"/>
<text text-anchor="middle" x="557" y="-349.5" font-family="FreeSans" font-size="10.00">Fun4Sim</text>
</a>
</g>
</g>
<!-- Node4&#45;&gt;Node32 -->
<g id="edge31" class="edge"><title>Node4&#45;&gt;Node32</title>
<path fill="none" stroke="midnightblue" d="M396.533,-674.157C396.338,-618.143 403.707,-457.289 490,-371 500.202,-360.798 515.505,-355.996 528.807,-353.768"/>
<polygon fill="midnightblue" stroke="midnightblue" points="393.037,-674.499 396.663,-684.454 400.036,-674.41 393.037,-674.499"/>
</g>
<!-- Node33 -->
<g id="node33" class="node"><title>Node33</title>
<g id="a_node33"><a xlink:href="../../de/d48/Fun4TestAnalyzer_8C.html#af993f3ce438e5ebcb52b97e41124a3db" target="_top" xlink:title="Fun4TestAnalyzer">
<polygon fill="none" stroke="black" points="510,-304.5 510,-323.5 604,-323.5 604,-304.5 510,-304.5"/>
<text text-anchor="middle" x="557" y="-311.5" font-family="FreeSans" font-size="10.00">Fun4TestAnalyzer</text>
</a>
</g>
</g>
<!-- Node4&#45;&gt;Node33 -->
<g id="edge32" class="edge"><title>Node4&#45;&gt;Node33</title>
<path fill="none" stroke="midnightblue" d="M399.533,-673.988C408.565,-605.67 441.275,-383.117 490,-333 495.486,-327.358 502.53,-323.362 509.964,-320.538"/>
<polygon fill="midnightblue" stroke="midnightblue" points="396.019,-673.866 398.205,-684.233 402.961,-674.766 396.019,-673.866"/>
</g>
<!-- Node34 -->
<g id="node34" class="node"><title>Node34</title>
<g id="a_node34"><a xlink:href="../../df/d6a/e1039-core_2online_2macros_2Fun4MainDaq_8C.html#ab9151bcfc5d35e7a25c9cf86fddd2bd2" target="_top" xlink:title="Fun4MainDaq.C: Fun4all macro to decode the MainDAQ data. ">
<polygon fill="none" stroke="black" points="518.5,-266.5 518.5,-285.5 595.5,-285.5 595.5,-266.5 518.5,-266.5"/>
<text text-anchor="middle" x="557" y="-273.5" font-family="FreeSans" font-size="10.00">Fun4MainDaq</text>
</a>
</g>
</g>
<!-- Node4&#45;&gt;Node34 -->
<g id="edge33" class="edge"><title>Node4&#45;&gt;Node34</title>
<path fill="none" stroke="midnightblue" d="M398.976,-674.271C406.62,-601.76 436.524,-351.292 490,-295 497.473,-287.133 507.973,-282.458 518.403,-279.7"/>
<polygon fill="midnightblue" stroke="midnightblue" points="395.483,-674.018 397.94,-684.324 402.446,-674.736 395.483,-674.018"/>
</g>
<!-- Node35 -->
<g id="node35" class="node"><title>Node35</title>
<g id="a_node35"><a xlink:href="../../d1/d6b/Fun4MainDaqE906_8C.html#a3617355b5c033a5635408b1cd8c29c35" target="_top" xlink:title="Fun4MainDaq.C: Fun4all macro to decode the MainDAQ data. ">
<polygon fill="none" stroke="black" points="508,-228.5 508,-247.5 606,-247.5 606,-228.5 508,-228.5"/>
<text text-anchor="middle" x="557" y="-235.5" font-family="FreeSans" font-size="10.00">Fun4MainDaqE906</text>
</a>
</g>
</g>
<!-- Node4&#45;&gt;Node35 -->
<g id="edge34" class="edge"><title>Node4&#45;&gt;Node35</title>
<path fill="none" stroke="midnightblue" d="M398.574,-673.915C405.026,-596.587 431.908,-319.346 490,-257 494.877,-251.766 501.093,-247.941 507.754,-245.154"/>
<polygon fill="midnightblue" stroke="midnightblue" points="395.061,-673.936 397.74,-684.187 402.038,-674.503 395.061,-673.936"/>
</g>
<!-- Node36 -->
<g id="node36" class="node"><title>Node36</title>
<g id="a_node36"><a xlink:href="../../d8/d6d/classEventDispUI.html#a93421e77c003c06c1aff15cd2adb1c9a" target="_top" xlink:title="EventDispUI::NextEvent">
<polygon fill="none" stroke="black" points="498.5,-190.5 498.5,-209.5 615.5,-209.5 615.5,-190.5 498.5,-190.5"/>
<text text-anchor="middle" x="557" y="-197.5" font-family="FreeSans" font-size="10.00">EventDispUI::NextEvent</text>
</a>
</g>
</g>
<!-- Node4&#45;&gt;Node36 -->
<g id="edge35" class="edge"><title>Node4&#45;&gt;Node36</title>
<path fill="none" stroke="midnightblue" d="M398.212,-673.769C403.508,-592.057 427.222,-287.488 490,-219 493.545,-215.132 497.821,-212.033 502.472,-209.552"/>
<polygon fill="midnightblue" stroke="midnightblue" points="394.694,-673.954 397.562,-684.153 401.68,-674.391 394.694,-673.954"/>
</g>
<!-- Node37 -->
<g id="node37" class="node"><title>Node37</title>
<g id="a_node37"><a xlink:href="../../d8/d6d/classEventDispUI.html#ae9dafaeb3aef27cf0a38037faf17562d" target="_top" xlink:title="EventDispUI::PrevEvent">
<polygon fill="none" stroke="black" points="498.5,-152.5 498.5,-171.5 615.5,-171.5 615.5,-152.5 498.5,-152.5"/>
<text text-anchor="middle" x="557" y="-159.5" font-family="FreeSans" font-size="10.00">EventDispUI::PrevEvent</text>
</a>
</g>
</g>
<!-- Node4&#45;&gt;Node37 -->
<g id="edge36" class="edge"><title>Node4&#45;&gt;Node37</title>
<path fill="none" stroke="midnightblue" d="M397.878,-674.083C402.028,-588.854 422.401,-255.793 490,-181 493.518,-177.108 497.776,-173.992 502.416,-171.501"/>
<polygon fill="midnightblue" stroke="midnightblue" points="394.375,-674.064 397.405,-684.216 401.367,-674.39 394.375,-674.064"/>
</g>
<!-- Node38 -->
<g id="node38" class="node"><title>Node38</title>
<g id="a_node38"><a xlink:href="../../d8/d6d/classEventDispUI.html#a56a1055e13ce1e361c85c1820e44a9b3" target="_top" xlink:title="EventDispUI::MoveEvent">
<polygon fill="none" stroke="black" points="496.5,-114.5 496.5,-133.5 617.5,-133.5 617.5,-114.5 496.5,-114.5"/>
<text text-anchor="middle" x="557" y="-121.5" font-family="FreeSans" font-size="10.00">EventDispUI::MoveEvent</text>
</a>
</g>
</g>
<!-- Node4&#45;&gt;Node38 -->
<g id="edge37" class="edge"><title>Node4&#45;&gt;Node38</title>
<path fill="none" stroke="midnightblue" d="M397.597,-674.33C400.679,-585.682 417.579,-224.112 490,-143 493.415,-139.175 497.544,-136.1 502.053,-133.629"/>
<polygon fill="midnightblue" stroke="midnightblue" points="394.097,-674.258 397.268,-684.367 401.094,-674.488 394.097,-674.258"/>
</g>
<!-- Node43 -->
<g id="node43" class="node"><title>Node43</title>
<g id="a_node43"><a xlink:href="../../df/d51/Fun4All__ExportGeom_8C.html#a582925c51bad38d562cf19e71211adfd" target="_top" xlink:title="get geometry from DST file and output TGeoManager ROOT files or other formats of geometry files ...">
<polygon fill="none" stroke="black" points="503,-76.5 503,-95.5 611,-95.5 611,-76.5 503,-76.5"/>
<text text-anchor="middle" x="557" y="-83.5" font-family="FreeSans" font-size="10.00">Fun4All_ExportGeom</text>
</a>
</g>
</g>
<!-- Node4&#45;&gt;Node43 -->
<g id="edge43" class="edge"><title>Node4&#45;&gt;Node43</title>
<path fill="none" stroke="midnightblue" d="M397.366,-674.158C399.473,-581.511 412.857,-192.328 490,-105 493.631,-100.889 498.089,-97.6424 502.958,-95.0816"/>
<polygon fill="midnightblue" stroke="midnightblue" points="393.867,-674.089 397.157,-684.159 400.865,-674.235 393.867,-674.089"/>
</g>
<!-- Node44 -->
<g id="node44" class="node"><title>Node44</title>
<g id="a_node44"><a xlink:href="../../d9/d0f/Fun4All__ImportGeom_8C.html#a3388968a8dae60e9eb62b1126f747b6a" target="_top" xlink:title="Read in a Geometry file, and output DST and ROOT TGeo files. ">
<polygon fill="none" stroke="black" points="502.5,-38.5 502.5,-57.5 611.5,-57.5 611.5,-38.5 502.5,-38.5"/>
<text text-anchor="middle" x="557" y="-45.5" font-family="FreeSans" font-size="10.00">Fun4All_ImportGeom</text>
</a>
</g>
</g>
<!-- Node4&#45;&gt;Node44 -->
<g id="edge44" class="edge"><title>Node4&#45;&gt;Node44</title>
<path fill="none" stroke="midnightblue" d="M397.154,-674.425C398.301,-578.701 408.001,-160.705 490,-67 493.455,-63.0518 497.672,-59.8995 502.287,-57.3862"/>
<polygon fill="midnightblue" stroke="midnightblue" points="393.654,-674.423 397.052,-684.458 400.653,-674.494 393.654,-674.423"/>
</g>
<!-- Node45 -->
<g id="node45" class="node"><title>Node45</title>
<g id="a_node45"><a xlink:href="../../d6/deb/PHGeom__DSTInspection_8C.html#a8a06a40e2950cd31dda512c040049cd0" target="_top" xlink:title="PHGeom_DSTInspection">
<polygon fill="none" stroke="black" points="494.5,-0.5 494.5,-19.5 619.5,-19.5 619.5,-0.5 494.5,-0.5"/>
<text text-anchor="middle" x="557" y="-7.5" font-family="FreeSans" font-size="10.00">PHGeom_DSTInspection</text>
</a>
</g>
</g>
<!-- Node4&#45;&gt;Node45 -->
<g id="edge45" class="edge"><title>Node4&#45;&gt;Node45</title>
<path fill="none" stroke="midnightblue" d="M396.971,-674.195C397.229,-574.557 403.277,-128.938 490,-29 493.36,-25.1276 497.454,-22.02 501.94,-19.5295"/>
<polygon fill="midnightblue" stroke="midnightblue" points="393.471,-674.357 396.963,-684.36 400.471,-674.363 393.471,-674.357"/>
</g>
<!-- Node39 -->
<g id="node39" class="node"><title>Node39</title>
<g id="a_node39"><a xlink:href="../../d8/d6d/classEventDispUI.html#a981ae05d65de438d952e0de96e5c5668" target="_top" xlink:title="EventDispUI::ExecNewEvent\lCheck">
<polygon fill="none" stroke="black" points="660.5,-131 660.5,-161 797.5,-161 797.5,-131 660.5,-131"/>
<text text-anchor="start" x="668.5" y="-149" font-family="FreeSans" font-size="10.00">EventDispUI::ExecNewEvent</text>
<text text-anchor="middle" x="729" y="-138" font-family="FreeSans" font-size="10.00">Check</text>
</a>
</g>
</g>
<!-- Node38&#45;&gt;Node39 -->
<g id="edge38" class="edge"><title>Node38&#45;&gt;Node39</title>
<path fill="none" stroke="midnightblue" d="M628.083,-133.07C638.796,-134.456 649.835,-135.885 660.491,-137.264"/>
<polygon fill="midnightblue" stroke="midnightblue" points="628.302,-129.569 617.936,-131.756 627.404,-136.511 628.302,-129.569"/>
</g>
<!-- Node41 -->
<g id="node41" class="node"><title>Node41</title>
<g id="a_node41"><a xlink:href="../../d8/d6d/classEventDispUI.html#a7f8c09eb13c68412e90040c07ce9ee84" target="_top" xlink:title="EventDispUI::Run">
<polygon fill="none" stroke="black" points="1008.5,-114.5 1008.5,-133.5 1099.5,-133.5 1099.5,-114.5 1008.5,-114.5"/>
<text text-anchor="middle" x="1054" y="-121.5" font-family="FreeSans" font-size="10.00">EventDispUI::Run</text>
</a>
</g>
</g>
<!-- Node38&#45;&gt;Node41 -->
<g id="edge42" class="edge"><title>Node38&#45;&gt;Node41</title>
<path fill="none" stroke="midnightblue" d="M627.825,-121.674C638.598,-121.394 649.596,-121.153 660,-121 798.652,-118.961 833.357,-118.433 972,-121 983.819,-121.219 996.602,-121.617 1008.45,-122.053"/>
<polygon fill="midnightblue" stroke="midnightblue" points="627.493,-118.181 617.592,-121.953 627.684,-125.179 627.493,-118.181"/>
</g>
<!-- Node40 -->
<g id="node40" class="node"><title>Node40</title>
<g id="a_node40"><a xlink:href="../../d8/d6d/classEventDispUI.html#a134e46147eb8dd92bf6557a609984a00" target="_top" xlink:title="EventDispUI::FuncNewEvent\lCheck">
<polygon fill="none" stroke="black" points="834,-131 834,-161 972,-161 972,-131 834,-131"/>
<text text-anchor="start" x="842" y="-149" font-family="FreeSans" font-size="10.00">EventDispUI::FuncNewEvent</text>
<text text-anchor="middle" x="903" y="-138" font-family="FreeSans" font-size="10.00">Check</text>
</a>
</g>
</g>
<!-- Node39&#45;&gt;Node40 -->
<g id="edge39" class="edge"><title>Node39&#45;&gt;Node40</title>
<path fill="none" stroke="midnightblue" d="M808.054,-146C816.696,-146 825.446,-146 833.952,-146"/>
<polygon fill="midnightblue" stroke="midnightblue" points="807.979,-142.5 797.979,-146 807.979,-149.5 807.979,-142.5"/>
</g>
<!-- Node40&#45;&gt;Node41 -->
<g id="edge40" class="edge"><title>Node40&#45;&gt;Node41</title>
<path fill="none" stroke="midnightblue" d="M982.458,-134.416C991.367,-133.1 1000.2,-131.796 1008.45,-130.578"/>
<polygon fill="midnightblue" stroke="midnightblue" points="981.776,-130.978 972.395,-135.901 982.799,-137.903 981.776,-130.978"/>
</g>
<!-- Node42 -->
<g id="node42" class="node"><title>Node42</title>
<g id="a_node42"><a xlink:href="../../d6/d9e/EventDisp4MainDaqDst_8C.html#a52e0269749883c6976db81717ead7d9b" target="_top" xlink:title="EventDisp4MainDaqDst">
<polygon fill="none" stroke="black" points="1136.5,-114.5 1136.5,-133.5 1253.5,-133.5 1253.5,-114.5 1136.5,-114.5"/>
<text text-anchor="middle" x="1195" y="-121.5" font-family="FreeSans" font-size="10.00">EventDisp4MainDaqDst</text>
</a>
</g>
</g>
<!-- Node41&#45;&gt;Node42 -->
<g id="edge41" class="edge"><title>Node41&#45;&gt;Node42</title>
<path fill="none" stroke="midnightblue" d="M1110.02,-124C1118.6,-124 1127.49,-124 1136.13,-124"/>
<polygon fill="midnightblue" stroke="midnightblue" points="1109.75,-120.5 1099.75,-124 1109.75,-127.5 1109.75,-120.5"/>
</g>
</g>
</svg>
