<?xml version="1.0" encoding="UTF-8" standalone="no"?>
<!DOCTYPE svg PUBLIC "-//W3C//DTD SVG 1.1//EN"
 "http://www.w3.org/Graphics/SVG/1.1/DTD/svg11.dtd">
<!-- Generated by graphviz version 2.30.1 (20180413.0232)
 -->
<!-- Title: Fun4AllServer::registerInputManager Pages: 1 -->
<svg width="468pt" height="1434pt"
 viewBox="0.00 0.00 468.00 1434.00" xmlns="http://www.w3.org/2000/svg" xmlns:xlink="http://www.w3.org/1999/xlink">
<g id="graph0" class="graph" transform="scale(1 1) rotate(0) translate(4 1430)">
<title>Fun4AllServer::registerInputManager</title>
<!-- Node1 -->
<g id="node1" class="node"><title>Node1</title>
<polygon fill="#bfbfbf" stroke="black" points="0.5,-698 0.5,-728 135.5,-728 135.5,-698 0.5,-698"/>
<text text-anchor="start" x="8.5" y="-716" font-family="FreeSans" font-size="10.00">Fun4AllServer::registerInput</text>
<text text-anchor="middle" x="68" y="-705" font-family="FreeSans" font-size="10.00">Manager</text>
</g>
<!-- Node2 -->
<g id="node2" class="node"><title>Node2</title>
<g id="a_node2"><a xlink:href="../../d1/dd6/EventDisplay4Sim_8C.html#af86696dcebf4f8619d2417d0865bbf66" target="_top" xlink:title="EventDisplay4Sim">
<polygon fill="none" stroke="black" points="192,-1406.5 192,-1425.5 286,-1425.5 286,-1406.5 192,-1406.5"/>
<text text-anchor="middle" x="239" y="-1413.5" font-family="FreeSans" font-size="10.00">EventDisplay4Sim</text>
</a>
</g>
</g>
<!-- Node1&#45;&gt;Node2 -->
<g id="edge1" class="edge"><title>Node1&#45;&gt;Node2</title>
<path fill="none" stroke="midnightblue" d="M69.2786,-738.287C71.0169,-849.744 83.4847,-1296.07 172,-1397 177.268,-1403.01 184.299,-1407.17 191.809,-1410.04"/>
<polygon fill="midnightblue" stroke="midnightblue" points="72.7745,-737.967 69.1348,-728.017 65.7752,-738.065 72.7745,-737.967"/>
</g>
<!-- Node3 -->
<g id="node3" class="node"><title>Node3</title>
<g id="a_node3"><a xlink:href="../../df/d27/Fun4All__EventDisplay_8C.html#a1882962483c970b18963752d848a9f60" target="_top" xlink:title="Fun4All_EventDisplay">
<polygon fill="none" stroke="black" points="184,-1368.5 184,-1387.5 294,-1387.5 294,-1368.5 184,-1368.5"/>
<text text-anchor="middle" x="239" y="-1375.5" font-family="FreeSans" font-size="10.00">Fun4All_EventDisplay</text>
</a>
</g>
</g>
<!-- Node1&#45;&gt;Node3 -->
<g id="edge2" class="edge"><title>Node1&#45;&gt;Node3</title>
<path fill="none" stroke="midnightblue" d="M69.5244,-738.254C72.265,-845.785 88.2356,-1264.32 172,-1359 175.397,-1362.84 179.515,-1365.93 184.016,-1368.4"/>
<polygon fill="midnightblue" stroke="midnightblue" points="73.0182,-737.948 69.2807,-728.034 66.0202,-738.115 73.0182,-737.948"/>
</g>
<!-- Node4 -->
<g id="node4" class="node"><title>Node4</title>
<g id="a_node4"><a xlink:href="../../df/d51/Fun4All__ExportGeom_8C.html#a582925c51bad38d562cf19e71211adfd" target="_top" xlink:title="get geometry from DST file and output TGeoManager ROOT files or other formats of geometry files ...">
<polygon fill="none" stroke="black" points="185,-1330.5 185,-1349.5 293,-1349.5 293,-1330.5 185,-1330.5"/>
<text text-anchor="middle" x="239" y="-1337.5" font-family="FreeSans" font-size="10.00">Fun4All_ExportGeom</text>
</a>
</g>
</g>
<!-- Node1&#45;&gt;Node4 -->
<g id="edge3" class="edge"><title>Node1&#45;&gt;Node4</title>
<path fill="none" stroke="midnightblue" d="M69.8072,-738.429C73.6114,-842.242 93.0293,-1232.61 172,-1321 175.575,-1325 179.932,-1328.18 184.687,-1330.71"/>
<polygon fill="midnightblue" stroke="midnightblue" points="73.2988,-738.123 69.4515,-728.251 66.303,-738.367 73.2988,-738.123"/>
</g>
<!-- Node5 -->
<g id="node5" class="node"><title>Node5</title>
<g id="a_node5"><a xlink:href="../../d9/de0/Fun4All__G4__BNL_8C.html#a62a558c2bb73d1be82a65b16f52ce2e0" target="_top" xlink:title="Fun4All_G4_BNL">
<polygon fill="none" stroke="black" points="193,-1292.5 193,-1311.5 285,-1311.5 285,-1292.5 193,-1292.5"/>
<text text-anchor="middle" x="239" y="-1299.5" font-family="FreeSans" font-size="10.00">Fun4All_G4_BNL</text>
</a>
</g>
</g>
<!-- Node1&#45;&gt;Node5 -->
<g id="edge4" class="edge"><title>Node1&#45;&gt;Node5</title>
<path fill="none" stroke="midnightblue" d="M70.1064,-738.118C74.9776,-837.358 97.6882,-1200.73 172,-1283 177.595,-1289.19 185.065,-1293.42 192.966,-1296.29"/>
<polygon fill="midnightblue" stroke="midnightblue" points="73.6012,-737.922 69.632,-728.099 66.609,-738.254 73.6012,-737.922"/>
</g>
<!-- Node6 -->
<g id="node6" class="node"><title>Node6</title>
<g id="a_node6"><a xlink:href="../../de/dad/Fun4All__G4__BNL__R1_8C.html#a361be596f3554cfa3d0fc26346c50c31" target="_top" xlink:title="Fun4All_G4_BNL_R1">
<polygon fill="none" stroke="black" points="184.5,-1254.5 184.5,-1273.5 293.5,-1273.5 293.5,-1254.5 184.5,-1254.5"/>
<text text-anchor="middle" x="239" y="-1261.5" font-family="FreeSans" font-size="10.00">Fun4All_G4_BNL_R1</text>
</a>
</g>
</g>
<!-- Node1&#45;&gt;Node6 -->
<g id="edge5" class="edge"><title>Node1&#45;&gt;Node6</title>
<path fill="none" stroke="midnightblue" d="M70.4695,-738.264C76.5062,-833.463 102.449,-1168.96 172,-1245 175.541,-1248.87 179.814,-1251.97 184.464,-1254.46"/>
<polygon fill="midnightblue" stroke="midnightblue" points="73.9527,-737.883 69.8445,-728.118 66.966,-738.314 73.9527,-737.883"/>
</g>
<!-- Node7 -->
<g id="node7" class="node"><title>Node7</title>
<g id="a_node7"><a xlink:href="../../d1/d24/Fun4All__G4__E1039_8C.html#ad81863c21df83a735c57713bc9ec59b1" target="_top" xlink:title="Fun4All_G4_E1039">
<polygon fill="none" stroke="black" points="189,-1216.5 189,-1235.5 289,-1235.5 289,-1216.5 189,-1216.5"/>
<text text-anchor="middle" x="239" y="-1223.5" font-family="FreeSans" font-size="10.00">Fun4All_G4_E1039</text>
</a>
</g>
</g>
<!-- Node1&#45;&gt;Node7 -->
<g id="edge6" class="edge"><title>Node1&#45;&gt;Node7</title>
<path fill="none" stroke="midnightblue" d="M70.8978,-738.506C78.1772,-829.602 107.216,-1137.18 172,-1207 176.623,-1211.98 182.459,-1215.69 188.739,-1218.44"/>
<polygon fill="midnightblue" stroke="midnightblue" points="74.3666,-737.968 70.0995,-728.27 67.3878,-738.512 74.3666,-737.968"/>
</g>
<!-- Node8 -->
<g id="node8" class="node"><title>Node8</title>
<g id="a_node8"><a xlink:href="../../de/d10/Fun4All__G4__E1039__R1_8C.html#aa484b834b55e3114dfd4cd82dcd11831" target="_top" xlink:title="Fun4All_G4_E1039_R1">
<polygon fill="none" stroke="black" points="180.5,-1178.5 180.5,-1197.5 297.5,-1197.5 297.5,-1178.5 180.5,-1178.5"/>
<text text-anchor="middle" x="239" y="-1185.5" font-family="FreeSans" font-size="10.00">Fun4All_G4_E1039_R1</text>
</a>
</g>
</g>
<!-- Node1&#45;&gt;Node8 -->
<g id="edge7" class="edge"><title>Node1&#45;&gt;Node8</title>
<path fill="none" stroke="midnightblue" d="M71.3488,-738.213C79.866,-824.363 111.839,-1105.23 172,-1169 175.6,-1172.82 179.913,-1175.88 184.586,-1178.34"/>
<polygon fill="midnightblue" stroke="midnightblue" points="74.8114,-737.657 70.3636,-728.041 67.844,-738.332 74.8114,-737.657"/>
</g>
<!-- Node9 -->
<g id="node9" class="node"><title>Node9</title>
<g id="a_node9"><a xlink:href="../../df/d98/Fun4All__G4__E1039__R2_8C.html#a0cc5938b98723b2d5216049aad7edb01" target="_top" xlink:title="Fun4All_G4_E1039_R2">
<polygon fill="none" stroke="black" points="180.5,-1140.5 180.5,-1159.5 297.5,-1159.5 297.5,-1140.5 180.5,-1140.5"/>
<text text-anchor="middle" x="239" y="-1147.5" font-family="FreeSans" font-size="10.00">Fun4All_G4_E1039_R2</text>
</a>
</g>
</g>
<!-- Node1&#45;&gt;Node9 -->
<g id="edge8" class="edge"><title>Node1&#45;&gt;Node9</title>
<path fill="none" stroke="midnightblue" d="M71.9391,-738.479C81.8522,-820.143 116.572,-1073.38 172,-1131 175.72,-1134.87 180.171,-1137.96 184.982,-1140.44"/>
<polygon fill="midnightblue" stroke="midnightblue" points="75.3649,-737.648 70.7054,-728.133 68.4142,-738.477 75.3649,-737.648"/>
</g>
<!-- Node10 -->
<g id="node10" class="node"><title>Node10</title>
<g id="a_node10"><a xlink:href="../../d1/d91/Fun4All__G4__E1039__R2__V2_8C.html#a89f8b08cddafb17f4ba14e509a0ca1db" target="_top" xlink:title="Fun4All_G4_E1039_R2_V2">
<polygon fill="none" stroke="black" points="172,-1102.5 172,-1121.5 306,-1121.5 306,-1102.5 172,-1102.5"/>
<text text-anchor="middle" x="239" y="-1109.5" font-family="FreeSans" font-size="10.00">Fun4All_G4_E1039_R2_V2</text>
</a>
</g>
</g>
<!-- Node1&#45;&gt;Node10 -->
<g id="edge9" class="edge"><title>Node1&#45;&gt;Node10</title>
<path fill="none" stroke="midnightblue" d="M72.5662,-738.166C83.8655,-814.501 121.152,-1041.35 172,-1093 175.764,-1096.82 180.245,-1099.89 185.073,-1102.35"/>
<polygon fill="midnightblue" stroke="midnightblue" points="75.9952,-737.425 71.0891,-728.035 69.0684,-738.435 75.9952,-737.425"/>
</g>
<!-- Node11 -->
<g id="node11" class="node"><title>Node11</title>
<g id="a_node11"><a xlink:href="../../d9/d0f/Fun4All__ImportGeom_8C.html#a3388968a8dae60e9eb62b1126f747b6a" target="_top" xlink:title="Read in a Geometry file, and output DST and ROOT TGeo files. ">
<polygon fill="none" stroke="black" points="184.5,-1064.5 184.5,-1083.5 293.5,-1083.5 293.5,-1064.5 184.5,-1064.5"/>
<text text-anchor="middle" x="239" y="-1071.5" font-family="FreeSans" font-size="10.00">Fun4All_ImportGeom</text>
</a>
</g>
</g>
<!-- Node1&#45;&gt;Node11 -->
<g id="edge10" class="edge"><title>Node1&#45;&gt;Node11</title>
<path fill="none" stroke="midnightblue" d="M68.8795,-738.376C70.0064,-801.329 81.9017,-965.997 172,-1055 175.902,-1058.85 180.533,-1061.94 185.504,-1064.4"/>
<polygon fill="midnightblue" stroke="midnightblue" points="72.3774,-738.14 68.7784,-728.175 65.3778,-738.21 72.3774,-738.14"/>
</g>
<!-- Node12 -->
<g id="node12" class="node"><title>Node12</title>
<g id="a_node12"><a xlink:href="../../d5/db4/Fun4All__Test_8C.html#ae69a57ea66fbed58544200f95796a66f" target="_top" xlink:title="Fun4All_Test">
<polygon fill="none" stroke="black" points="202,-1026.5 202,-1045.5 276,-1045.5 276,-1026.5 202,-1026.5"/>
<text text-anchor="middle" x="239" y="-1033.5" font-family="FreeSans" font-size="10.00">Fun4All_Test</text>
</a>
</g>
</g>
<!-- Node1&#45;&gt;Node12 -->
<g id="edge11" class="edge"><title>Node1&#45;&gt;Node12</title>
<path fill="none" stroke="midnightblue" d="M69.999,-738.319C73.6846,-796.298 90.9667,-939.64 172,-1017 180.107,-1024.74 191.159,-1029.36 201.9,-1032.1"/>
<polygon fill="midnightblue" stroke="midnightblue" points="73.4871,-738.006 69.4424,-728.214 66.4977,-738.391 73.4871,-738.006"/>
</g>
<!-- Node13 -->
<g id="node13" class="node"><title>Node13</title>
<g id="a_node13"><a xlink:href="../../db/dbe/Fun4CODA_8C.html#a1bbee777074605aa2a59ddf9b2b52742" target="_top" xlink:title="Fun4CODA">
<polygon fill="none" stroke="black" points="206,-988.5 206,-1007.5 272,-1007.5 272,-988.5 206,-988.5"/>
<text text-anchor="middle" x="239" y="-995.5" font-family="FreeSans" font-size="10.00">Fun4CODA</text>
</a>
</g>
</g>
<!-- Node1&#45;&gt;Node13 -->
<g id="edge12" class="edge"><title>Node1&#45;&gt;Node13</title>
<path fill="none" stroke="midnightblue" d="M71.4209,-738.392C77.8259,-791.146 100.015,-913.162 172,-979 181.239,-987.45 194.002,-992.164 205.844,-994.786"/>
<polygon fill="midnightblue" stroke="midnightblue" points="74.8742,-737.778 70.2815,-728.231 67.9178,-738.559 74.8742,-737.778"/>
</g>
<!-- Node14 -->
<g id="node14" class="node"><title>Node14</title>
<g id="a_node14"><a xlink:href="../../d4/d6b/Fun4DQ_8C.html#ade50123660c824c610022429d0847486" target="_top" xlink:title="Fun4DQ">
<polygon fill="none" stroke="black" points="212.5,-950.5 212.5,-969.5 265.5,-969.5 265.5,-950.5 212.5,-950.5"/>
<text text-anchor="middle" x="239" y="-957.5" font-family="FreeSans" font-size="10.00">Fun4DQ</text>
</a>
</g>
</g>
<!-- Node1&#45;&gt;Node14 -->
<g id="edge13" class="edge"><title>Node1&#45;&gt;Node14</title>
<path fill="none" stroke="midnightblue" d="M73.1975,-738.022C82.3943,-784.932 108.775,-886.282 172,-941 183.18,-950.676 199.014,-955.436 212.371,-957.772"/>
<polygon fill="midnightblue" stroke="midnightblue" points="76.6214,-737.29 71.3518,-728.099 69.7395,-738.57 76.6214,-737.29"/>
</g>
<!-- Node15 -->
<g id="node15" class="node"><title>Node15</title>
<g id="a_node15"><a xlink:href="../../de/daf/Fun4DST_8C.html#a6a43c5ad028285b022976fa872e60cbc" target="_top" xlink:title="Fun4DST">
<polygon fill="none" stroke="black" points="210,-912.5 210,-931.5 268,-931.5 268,-912.5 210,-912.5"/>
<text text-anchor="middle" x="239" y="-919.5" font-family="FreeSans" font-size="10.00">Fun4DST</text>
</a>
</g>
</g>
<!-- Node1&#45;&gt;Node15 -->
<g id="edge14" class="edge"><title>Node1&#45;&gt;Node15</title>
<path fill="none" stroke="midnightblue" d="M75.636,-737.854C87.7914,-778.54 117.526,-859.204 172,-903 182.687,-911.592 197.091,-916.299 209.716,-918.877"/>
<polygon fill="midnightblue" stroke="midnightblue" points="78.9839,-736.831 72.8566,-728.188 72.2566,-738.766 78.9839,-736.831"/>
</g>
<!-- Node16 -->
<g id="node16" class="node"><title>Node16</title>
<g id="a_node16"><a xlink:href="../../d2/d24/Fun4E1039Shielding_8C.html#a42592782dd55d6e219305ff678a00dc2" target="_top" xlink:title="Fun4E1039Shielding">
<polygon fill="none" stroke="black" points="186.5,-874.5 186.5,-893.5 291.5,-893.5 291.5,-874.5 186.5,-874.5"/>
<text text-anchor="middle" x="239" y="-881.5" font-family="FreeSans" font-size="10.00">Fun4E1039Shielding</text>
</a>
</g>
</g>
<!-- Node1&#45;&gt;Node16 -->
<g id="edge15" class="edge"><title>Node1&#45;&gt;Node16</title>
<path fill="none" stroke="midnightblue" d="M79.1654,-737.666C94.3539,-771.461 126.174,-831.744 172,-865 177.308,-868.852 183.381,-871.926 189.646,-874.378"/>
<polygon fill="midnightblue" stroke="midnightblue" points="82.1941,-735.855 74.9886,-728.088 75.7776,-738.653 82.1941,-735.855"/>
</g>
<!-- Node17 -->
<g id="node17" class="node"><title>Node17</title>
<g id="a_node17"><a xlink:href="../../db/d2f/Fun4EMCal_8C.html#a7559861c26cbabfa3e4349440d5af51b" target="_top" xlink:title="Fun4EMCal">
<polygon fill="none" stroke="black" points="205.5,-836.5 205.5,-855.5 272.5,-855.5 272.5,-836.5 205.5,-836.5"/>
<text text-anchor="middle" x="239" y="-843.5" font-family="FreeSans" font-size="10.00">Fun4EMCal</text>
</a>
</g>
</g>
<!-- Node1&#45;&gt;Node17 -->
<g id="edge16" class="edge"><title>Node1&#45;&gt;Node17</title>
<path fill="none" stroke="midnightblue" d="M84.1901,-736.488C102.135,-762.388 134.356,-803.495 172,-827 182.013,-833.252 194.152,-837.51 205.275,-840.381"/>
<polygon fill="midnightblue" stroke="midnightblue" points="86.9576,-734.333 78.4525,-728.015 81.1615,-738.258 86.9576,-734.333"/>
</g>
<!-- Node18 -->
<g id="node18" class="node"><title>Node18</title>
<g id="a_node18"><a xlink:href="../../db/d7c/Fun4DumpGeom_8C.html#ac8b66de3cf15072c6969f76f6b8f7f4c" target="_top" xlink:title="Fun4Geom">
<polygon fill="none" stroke="black" points="206.5,-798.5 206.5,-817.5 271.5,-817.5 271.5,-798.5 206.5,-798.5"/>
<text text-anchor="middle" x="239" y="-805.5" font-family="FreeSans" font-size="10.00">Fun4Geom</text>
</a>
</g>
</g>
<!-- Node1&#45;&gt;Node18 -->
<g id="edge17" class="edge"><title>Node1&#45;&gt;Node18</title>
<path fill="none" stroke="midnightblue" d="M93.272,-734.822C113.176,-751.71 142.743,-774.578 172,-789 182.695,-794.272 195.105,-798.324 206.259,-801.306"/>
<polygon fill="midnightblue" stroke="midnightblue" points="95.4789,-732.104 85.6214,-728.22 90.9057,-737.403 95.4789,-732.104"/>
</g>
<!-- Node19 -->
<g id="node19" class="node"><title>Node19</title>
<g id="a_node19"><a xlink:href="../../d6/d6a/Fun4HodoAccGap_8C.html#a7aaa0687f144d5e7b417d7e9ac5f36da" target="_top" xlink:title="Fun4HodoAccGap">
<polygon fill="none" stroke="black" points="191,-760.5 191,-779.5 287,-779.5 287,-760.5 191,-760.5"/>
<text text-anchor="middle" x="239" y="-767.5" font-family="FreeSans" font-size="10.00">Fun4HodoAccGap</text>
</a>
</g>
</g>
<!-- Node1&#45;&gt;Node19 -->
<g id="edge18" class="edge"><title>Node1&#45;&gt;Node19</title>
<path fill="none" stroke="midnightblue" d="M117.658,-731.782C134.745,-738.156 154.135,-745.142 172,-751 181.97,-754.27 192.885,-757.536 202.917,-760.416"/>
<polygon fill="midnightblue" stroke="midnightblue" points="118.484,-728.354 107.892,-728.113 116.022,-734.906 118.484,-728.354"/>
</g>
<!-- Node20 -->
<g id="node20" class="node"><title>Node20</title>
<g id="a_node20"><a xlink:href="../../dd/d7d/Fun4kTracker_8C.html#abe7052288e4678d0346333383ad821ff" target="_top" xlink:title="Fun4kTracker">
<polygon fill="none" stroke="black" points="200.5,-722.5 200.5,-741.5 277.5,-741.5 277.5,-722.5 200.5,-722.5"/>
<text text-anchor="middle" x="239" y="-729.5" font-family="FreeSans" font-size="10.00">Fun4kTracker</text>
</a>
</g>
</g>
<!-- Node1&#45;&gt;Node20 -->
<g id="edge19" class="edge"><title>Node1&#45;&gt;Node20</title>
<path fill="none" stroke="midnightblue" d="M145.923,-721.648C164.844,-723.775 184.275,-725.96 200.382,-727.771"/>
<polygon fill="midnightblue" stroke="midnightblue" points="146.122,-718.149 135.793,-720.509 145.34,-725.105 146.122,-718.149"/>
</g>
<!-- Node21 -->
<g id="node21" class="node"><title>Node21</title>
<g id="a_node21"><a xlink:href="../../df/d6a/e1039-core_2online_2macros_2Fun4MainDaq_8C.html#ab9151bcfc5d35e7a25c9cf86fddd2bd2" target="_top" xlink:title="Fun4MainDaq.C: Fun4all macro to decode the MainDAQ data. ">
<polygon fill="none" stroke="black" points="200.5,-684.5 200.5,-703.5 277.5,-703.5 277.5,-684.5 200.5,-684.5"/>
<text text-anchor="middle" x="239" y="-691.5" font-family="FreeSans" font-size="10.00">Fun4MainDaq</text>
</a>
</g>
</g>
<!-- Node1&#45;&gt;Node21 -->
<g id="edge20" class="edge"><title>Node1&#45;&gt;Node21</title>
<path fill="none" stroke="midnightblue" d="M145.923,-704.352C164.844,-702.225 184.275,-700.04 200.382,-698.229"/>
<polygon fill="midnightblue" stroke="midnightblue" points="145.34,-700.895 135.793,-705.491 146.122,-707.851 145.34,-700.895"/>
</g>
<!-- Node22 -->
<g id="node22" class="node"><title>Node22</title>
<g id="a_node22"><a xlink:href="../../d1/d6b/Fun4MainDaqE906_8C.html#a3617355b5c033a5635408b1cd8c29c35" target="_top" xlink:title="Fun4MainDaq.C: Fun4all macro to decode the MainDAQ data. ">
<polygon fill="none" stroke="black" points="190,-646.5 190,-665.5 288,-665.5 288,-646.5 190,-646.5"/>
<text text-anchor="middle" x="239" y="-653.5" font-family="FreeSans" font-size="10.00">Fun4MainDaqE906</text>
</a>
</g>
</g>
<!-- Node1&#45;&gt;Node22 -->
<g id="edge21" class="edge"><title>Node1&#45;&gt;Node22</title>
<path fill="none" stroke="midnightblue" d="M117.658,-694.218C134.745,-687.844 154.135,-680.858 172,-675 181.97,-671.73 192.885,-668.464 202.917,-665.584"/>
<polygon fill="midnightblue" stroke="midnightblue" points="116.022,-691.094 107.892,-697.887 118.484,-697.646 116.022,-691.094"/>
</g>
<!-- Node23 -->
<g id="node23" class="node"><title>Node23</title>
<g id="a_node23"><a xlink:href="../../da/daa/Fun4RealDst_8C.html#aa80eadb6952b5d52a756d7cf52d05770" target="_top" xlink:title="Function to analyze multiple DST files. ">
<polygon fill="none" stroke="black" points="192.5,-608.5 192.5,-627.5 285.5,-627.5 285.5,-608.5 192.5,-608.5"/>
<text text-anchor="middle" x="239" y="-615.5" font-family="FreeSans" font-size="10.00">Fun4MultiRealDst</text>
</a>
</g>
</g>
<!-- Node1&#45;&gt;Node23 -->
<g id="edge22" class="edge"><title>Node1&#45;&gt;Node23</title>
<path fill="none" stroke="midnightblue" d="M93.272,-691.178C113.176,-674.29 142.743,-651.422 172,-637 179.593,-633.257 188.051,-630.128 196.311,-627.562"/>
<polygon fill="midnightblue" stroke="midnightblue" points="90.9057,-688.597 85.6214,-697.78 95.4789,-693.896 90.9057,-688.597"/>
</g>
<!-- Node24 -->
<g id="node24" class="node"><title>Node24</title>
<g id="a_node24"><a xlink:href="../../d7/d66/Fun4PatternDB_8C.html#a9e68afec0dfdd12961d550386529d5eb" target="_top" xlink:title="Fun4PatternDB">
<polygon fill="none" stroke="black" points="197.5,-570.5 197.5,-589.5 280.5,-589.5 280.5,-570.5 197.5,-570.5"/>
<text text-anchor="middle" x="239" y="-577.5" font-family="FreeSans" font-size="10.00">Fun4PatternDB</text>
</a>
</g>
</g>
<!-- Node1&#45;&gt;Node24 -->
<g id="edge23" class="edge"><title>Node1&#45;&gt;Node24</title>
<path fill="none" stroke="midnightblue" d="M84.1901,-689.512C102.135,-663.612 134.356,-622.505 172,-599 179.687,-594.2 188.626,-590.576 197.397,-587.852"/>
<polygon fill="midnightblue" stroke="midnightblue" points="81.1615,-687.742 78.4525,-697.985 86.9576,-691.667 81.1615,-687.742"/>
</g>
<!-- Node25 -->
<g id="node25" class="node"><title>Node25</title>
<g id="a_node25"><a xlink:href="../../de/d66/Fun4Pythia8Demo_8C.html#a6a06be36766511c5ad76013c9cbfe5b5" target="_top" xlink:title="Fun4Pythia8Demo">
<polygon fill="none" stroke="black" points="191,-532.5 191,-551.5 287,-551.5 287,-532.5 191,-532.5"/>
<text text-anchor="middle" x="239" y="-539.5" font-family="FreeSans" font-size="10.00">Fun4Pythia8Demo</text>
</a>
</g>
</g>
<!-- Node1&#45;&gt;Node25 -->
<g id="edge24" class="edge"><title>Node1&#45;&gt;Node25</title>
<path fill="none" stroke="midnightblue" d="M79.1654,-688.334C94.3539,-654.539 126.174,-594.256 172,-561 177.597,-556.938 184.046,-553.741 190.673,-551.227"/>
<polygon fill="midnightblue" stroke="midnightblue" points="75.7776,-687.347 74.9886,-697.912 82.1941,-690.145 75.7776,-687.347"/>
</g>
<!-- Node26 -->
<g id="node26" class="node"><title>Node26</title>
<g id="a_node26"><a xlink:href="../../d9/d8c/Fun4ReadMySql_8C.html#a82110168fa15d41b073c27eeadfc0ff3" target="_top" xlink:title="Fun4ReadMySql">
<polygon fill="none" stroke="black" points="195,-494.5 195,-513.5 283,-513.5 283,-494.5 195,-494.5"/>
<text text-anchor="middle" x="239" y="-501.5" font-family="FreeSans" font-size="10.00">Fun4ReadMySql</text>
</a>
</g>
</g>
<!-- Node1&#45;&gt;Node26 -->
<g id="edge25" class="edge"><title>Node1&#45;&gt;Node26</title>
<path fill="none" stroke="midnightblue" d="M75.636,-688.146C87.7914,-647.46 117.526,-566.796 172,-523 178.598,-517.695 186.613,-513.872 194.751,-511.116"/>
<polygon fill="midnightblue" stroke="midnightblue" points="72.2566,-687.234 72.8566,-697.812 78.9839,-689.169 72.2566,-687.234"/>
</g>
<!-- Node27 -->
<g id="node27" class="node"><title>Node27</title>
<g id="a_node27"><a xlink:href="../../da/daa/Fun4RealDst_8C.html#af2bc551d71266cd8c5a6daeea6a861d8" target="_top" xlink:title="Fun4MainDaq.C: Fun4all macro to decode the MainDAQ data. ">
<polygon fill="none" stroke="black" points="203,-456.5 203,-475.5 275,-475.5 275,-456.5 203,-456.5"/>
<text text-anchor="middle" x="239" y="-463.5" font-family="FreeSans" font-size="10.00">Fun4RealDst</text>
</a>
</g>
</g>
<!-- Node1&#45;&gt;Node27 -->
<g id="edge26" class="edge"><title>Node1&#45;&gt;Node27</title>
<path fill="none" stroke="midnightblue" d="M73.1975,-687.978C82.3943,-641.068 108.775,-539.718 172,-485 180.565,-477.587 191.862,-473.06 202.684,-470.297"/>
<polygon fill="midnightblue" stroke="midnightblue" points="69.7395,-687.43 71.3518,-697.901 76.6214,-688.71 69.7395,-687.43"/>
</g>
<!-- Node28 -->
<g id="node28" class="node"><title>Node28</title>
<g id="a_node28"><a xlink:href="../../d6/d4c/Fun4SeaQuest_8C.html#a81bffd149f5c71602cb40eb0f45019c3" target="_top" xlink:title="Fun4SeaQuest">
<polygon fill="none" stroke="black" points="198.5,-418.5 198.5,-437.5 279.5,-437.5 279.5,-418.5 198.5,-418.5"/>
<text text-anchor="middle" x="239" y="-425.5" font-family="FreeSans" font-size="10.00">Fun4SeaQuest</text>
</a>
</g>
</g>
<!-- Node1&#45;&gt;Node28 -->
<g id="edge27" class="edge"><title>Node1&#45;&gt;Node28</title>
<path fill="none" stroke="midnightblue" d="M71.4209,-687.608C77.8259,-634.854 100.015,-512.838 172,-447 179.303,-440.321 188.808,-435.975 198.32,-433.153"/>
<polygon fill="midnightblue" stroke="midnightblue" points="67.9178,-687.441 70.2815,-697.769 74.8742,-688.222 67.9178,-687.441"/>
</g>
<!-- Node29 -->
<g id="node29" class="node"><title>Node29</title>
<g id="a_node29"><a xlink:href="../../d7/d65/e1039-core_2macros_2Fun4Sim_8C.html#a5e9276116ae0064f58b288a1e0e4e3db" target="_top" xlink:title="Fun4Sim">
<polygon fill="none" stroke="black" points="211,-380.5 211,-399.5 267,-399.5 267,-380.5 211,-380.5"/>
<text text-anchor="middle" x="239" y="-387.5" font-family="FreeSans" font-size="10.00">Fun4Sim</text>
</a>
</g>
</g>
<!-- Node1&#45;&gt;Node29 -->
<g id="edge28" class="edge"><title>Node1&#45;&gt;Node29</title>
<path fill="none" stroke="midnightblue" d="M69.999,-687.681C73.6846,-629.702 90.9667,-486.36 172,-409 182.349,-399.12 197.498,-394.327 210.673,-392.024"/>
<polygon fill="midnightblue" stroke="midnightblue" points="66.4977,-687.609 69.4424,-697.786 73.4871,-687.994 66.4977,-687.609"/>
</g>
<!-- Node30 -->
<g id="node30" class="node"><title>Node30</title>
<g id="a_node30"><a xlink:href="../../db/dba/Fun4SimDst_8C.html#abf0708efff889232b6c0a7359cfb70ae" target="_top" xlink:title="Fun4SimDst.C: Fun4all macro to analyze the E1039 simulated DST files. ">
<polygon fill="none" stroke="black" points="204,-342.5 204,-361.5 274,-361.5 274,-342.5 204,-342.5"/>
<text text-anchor="middle" x="239" y="-349.5" font-family="FreeSans" font-size="10.00">Fun4SimDst</text>
</a>
</g>
</g>
<!-- Node1&#45;&gt;Node30 -->
<g id="edge29" class="edge"><title>Node1&#45;&gt;Node30</title>
<path fill="none" stroke="midnightblue" d="M68.8795,-687.624C70.0064,-624.671 81.9017,-460.003 172,-371 180.483,-362.62 192.409,-357.888 203.794,-355.232"/>
<polygon fill="midnightblue" stroke="midnightblue" points="65.3778,-687.79 68.7784,-697.825 72.3774,-687.86 65.3778,-687.79"/>
</g>
<!-- Node31 -->
<g id="node31" class="node"><title>Node31</title>
<g id="a_node31"><a xlink:href="../../d6/dac/Fun4SimMicroDst_8C.html#ab980c780491ded824d61247fc1fa6127" target="_top" xlink:title="Fun4SimMicroDst.C: Fun4all macro to analyze you uDST. ">
<polygon fill="none" stroke="black" points="192,-304.5 192,-323.5 286,-323.5 286,-304.5 192,-304.5"/>
<text text-anchor="middle" x="239" y="-311.5" font-family="FreeSans" font-size="10.00">Fun4SimMicroDst</text>
</a>
</g>
</g>
<!-- Node1&#45;&gt;Node31 -->
<g id="edge30" class="edge"><title>Node1&#45;&gt;Node31</title>
<path fill="none" stroke="midnightblue" d="M72.5662,-687.834C83.8655,-611.499 121.152,-384.648 172,-333 177.437,-327.477 184.369,-323.534 191.684,-320.724"/>
<polygon fill="midnightblue" stroke="midnightblue" points="69.0684,-687.565 71.0891,-697.965 75.9952,-688.575 69.0684,-687.565"/>
</g>
<!-- Node32 -->
<g id="node32" class="node"><title>Node32</title>
<g id="a_node32"><a xlink:href="../../d8/de7/Fun4SRawEvent_8C.html#aaa9bb2e956ce860a8cb6e7845bcc4ed5" target="_top" xlink:title="Fun4SRawEvent">
<polygon fill="none" stroke="black" points="195,-266.5 195,-285.5 283,-285.5 283,-266.5 195,-266.5"/>
<text text-anchor="middle" x="239" y="-273.5" font-family="FreeSans" font-size="10.00">Fun4SRawEvent</text>
</a>
</g>
</g>
<!-- Node1&#45;&gt;Node32 -->
<g id="edge31" class="edge"><title>Node1&#45;&gt;Node32</title>
<path fill="none" stroke="midnightblue" d="M71.9391,-687.521C81.8522,-605.857 116.572,-352.615 172,-295 178.2,-288.555 186.432,-284.256 194.973,-281.398"/>
<polygon fill="midnightblue" stroke="midnightblue" points="68.4142,-687.523 70.7054,-697.867 75.3649,-688.352 68.4142,-687.523"/>
</g>
<!-- Node33 -->
<g id="node33" class="node"><title>Node33</title>
<g id="a_node33"><a xlink:href="../../de/d48/Fun4TestAnalyzer_8C.html#af993f3ce438e5ebcb52b97e41124a3db" target="_top" xlink:title="Fun4TestAnalyzer">
<polygon fill="none" stroke="black" points="192,-228.5 192,-247.5 286,-247.5 286,-228.5 192,-228.5"/>
<text text-anchor="middle" x="239" y="-235.5" font-family="FreeSans" font-size="10.00">Fun4TestAnalyzer</text>
</a>
</g>
</g>
<!-- Node1&#45;&gt;Node33 -->
<g id="edge32" class="edge"><title>Node1&#45;&gt;Node33</title>
<path fill="none" stroke="midnightblue" d="M71.3488,-687.787C79.866,-601.637 111.839,-320.765 172,-257 177.401,-251.276 184.403,-247.24 191.823,-244.403"/>
<polygon fill="midnightblue" stroke="midnightblue" points="67.844,-687.668 70.3636,-697.959 74.8114,-688.343 67.844,-687.668"/>
</g>
<!-- Node34 -->
<g id="node34" class="node"><title>Node34</title>
<g id="a_node34"><a xlink:href="../../d2/d3a/Fun4TrkDev_8C.html#abd98cf50196a6ad7cb2289d1f0442b73" target="_top" xlink:title="Fun4TrkDev">
<polygon fill="none" stroke="black" points="204.5,-190.5 204.5,-209.5 273.5,-209.5 273.5,-190.5 204.5,-190.5"/>
<text text-anchor="middle" x="239" y="-197.5" font-family="FreeSans" font-size="10.00">Fun4TrkDev</text>
</a>
</g>
</g>
<!-- Node1&#45;&gt;Node34 -->
<g id="edge33" class="edge"><title>Node1&#45;&gt;Node34</title>
<path fill="none" stroke="midnightblue" d="M70.8978,-687.494C78.1772,-596.398 107.216,-288.817 172,-219 180.354,-209.997 192.669,-205.163 204.407,-202.601"/>
<polygon fill="midnightblue" stroke="midnightblue" points="67.3878,-687.488 70.0995,-697.73 74.3666,-688.032 67.3878,-687.488"/>
</g>
<!-- Node35 -->
<g id="node35" class="node"><title>Node35</title>
<g id="a_node35"><a xlink:href="../../d6/d9e/EventDisp4MainDaqDst_8C.html#a9d62acc9c2150e00b509d9d553d7d6c1" target="_top" xlink:title="InitInput">
<polygon fill="none" stroke="black" points="213,-152.5 213,-171.5 265,-171.5 265,-152.5 213,-152.5"/>
<text text-anchor="middle" x="239" y="-159.5" font-family="FreeSans" font-size="10.00">InitInput</text>
</a>
</g>
</g>
<!-- Node1&#45;&gt;Node35 -->
<g id="edge34" class="edge"><title>Node1&#45;&gt;Node35</title>
<path fill="none" stroke="midnightblue" d="M70.4695,-687.736C76.5062,-592.537 102.449,-257.038 172,-181 182.301,-169.738 198.801,-164.988 212.726,-163.054"/>
<polygon fill="midnightblue" stroke="midnightblue" points="66.966,-687.686 69.8445,-697.882 73.9527,-688.117 66.966,-687.686"/>
</g>
<!-- Node37 -->
<g id="node37" class="node"><title>Node37</title>
<g id="a_node37"><a xlink:href="../../d6/deb/PHGeom__DSTInspection_8C.html#a8a06a40e2950cd31dda512c040049cd0" target="_top" xlink:title="PHGeom_DSTInspection">
<polygon fill="none" stroke="black" points="176.5,-114.5 176.5,-133.5 301.5,-133.5 301.5,-114.5 176.5,-114.5"/>
<text text-anchor="middle" x="239" y="-121.5" font-family="FreeSans" font-size="10.00">PHGeom_DSTInspection</text>
</a>
</g>
</g>
<!-- Node1&#45;&gt;Node37 -->
<g id="edge36" class="edge"><title>Node1&#45;&gt;Node37</title>
<path fill="none" stroke="midnightblue" d="M70.1064,-687.882C74.9776,-588.642 97.6882,-225.267 172,-143 175.437,-139.195 179.581,-136.133 184.098,-133.67"/>
<polygon fill="midnightblue" stroke="midnightblue" points="66.609,-687.746 69.632,-697.901 73.6012,-688.078 66.609,-687.746"/>
</g>
<!-- Node38 -->
<g id="node38" class="node"><title>Node38</title>
<g id="a_node38"><a xlink:href="../../db/dea/RecoE1039Data_8C.html#a619388c470b52b98a611cb6f18ba24c1" target="_top" xlink:title="RecoE1039Data">
<polygon fill="none" stroke="black" points="196,-76.5 196,-95.5 282,-95.5 282,-76.5 196,-76.5"/>
<text text-anchor="middle" x="239" y="-83.5" font-family="FreeSans" font-size="10.00">RecoE1039Data</text>
</a>
</g>
</g>
<!-- Node1&#45;&gt;Node38 -->
<g id="edge37" class="edge"><title>Node1&#45;&gt;Node38</title>
<path fill="none" stroke="midnightblue" d="M69.8072,-687.571C73.6114,-583.758 93.0293,-193.394 172,-105 178.276,-97.9754 186.963,-93.4769 195.977,-90.6144"/>
<polygon fill="midnightblue" stroke="midnightblue" points="66.303,-687.633 69.4515,-697.749 73.2988,-687.877 66.303,-687.633"/>
</g>
<!-- Node39 -->
<g id="node39" class="node"><title>Node39</title>
<g id="a_node39"><a xlink:href="../../d0/d9c/RecoE1039Sim_8C.html#a07edfd7b51752cb53ea50911050a8511" target="_top" xlink:title="RecoE1039Sim">
<polygon fill="none" stroke="black" points="197.5,-38.5 197.5,-57.5 280.5,-57.5 280.5,-38.5 197.5,-38.5"/>
<text text-anchor="middle" x="239" y="-45.5" font-family="FreeSans" font-size="10.00">RecoE1039Sim</text>
</a>
</g>
</g>
<!-- Node1&#45;&gt;Node39 -->
<g id="edge38" class="edge"><title>Node1&#45;&gt;Node39</title>
<path fill="none" stroke="midnightblue" d="M69.5244,-687.746C72.265,-580.215 88.2356,-161.68 172,-67 178.558,-59.5878 187.801,-54.9847 197.299,-52.1483"/>
<polygon fill="midnightblue" stroke="midnightblue" points="66.0202,-687.885 69.2807,-697.966 73.0182,-688.052 66.0202,-687.885"/>
</g>
<!-- Node40 -->
<g id="node40" class="node"><title>Node40</title>
<g id="a_node40"><a xlink:href="../../df/d0c/RecoE906Data_8C.html#ad032525ca693000ba382d14d82bf9f2b" target="_top" xlink:title="RecoE906Data">
<polygon fill="none" stroke="black" points="198.5,-0.5 198.5,-19.5 279.5,-19.5 279.5,-0.5 198.5,-0.5"/>
<text text-anchor="middle" x="239" y="-7.5" font-family="FreeSans" font-size="10.00">RecoE906Data</text>
</a>
</g>
</g>
<!-- Node1&#45;&gt;Node40 -->
<g id="edge39" class="edge"><title>Node1&#45;&gt;Node40</title>
<path fill="none" stroke="midnightblue" d="M69.2786,-687.713C71.0169,-576.256 83.4847,-129.926 172,-29 178.761,-21.2906 188.428,-16.6167 198.286,-13.8089"/>
<polygon fill="midnightblue" stroke="midnightblue" points="65.7752,-687.935 69.1348,-697.983 72.7745,-688.033 65.7752,-687.935"/>
</g>
<!-- Node36 -->
<g id="node36" class="node"><title>Node36</title>
<g id="a_node36"><a xlink:href="../../d6/d9e/EventDisp4MainDaqDst_8C.html#a52e0269749883c6976db81717ead7d9b" target="_top" xlink:title="EventDisp4MainDaqDst">
<polygon fill="none" stroke="black" points="342.5,-152.5 342.5,-171.5 459.5,-171.5 459.5,-152.5 342.5,-152.5"/>
<text text-anchor="middle" x="401" y="-159.5" font-family="FreeSans" font-size="10.00">EventDisp4MainDaqDst</text>
</a>
</g>
</g>
<!-- Node35&#45;&gt;Node36 -->
<g id="edge35" class="edge"><title>Node35&#45;&gt;Node36</title>
<path fill="none" stroke="midnightblue" d="M275.377,-162C294.999,-162 319.888,-162 342.256,-162"/>
<polygon fill="midnightblue" stroke="midnightblue" points="275.353,-158.5 265.352,-162 275.352,-165.5 275.353,-158.5"/>
</g>
</g>
</svg>
