<?xml version="1.0" encoding="UTF-8" standalone="no"?>
<!DOCTYPE svg PUBLIC "-//W3C//DTD SVG 1.1//EN"
 "http://www.w3.org/Graphics/SVG/1.1/DTD/svg11.dtd">
<!-- Generated by graphviz version 2.44.0 (0)
 -->
<!-- Title: GeomParamPlane::ReadDbTable Pages: 1 -->
<svg width="389pt" height="104pt"
 viewBox="0.00 0.00 389.00 104.00" xmlns="http://www.w3.org/2000/svg" xmlns:xlink="http://www.w3.org/1999/xlink">
<g id="graph0" class="graph" transform="scale(1 1) rotate(0) translate(4 100)">
<title>GeomParamPlane::ReadDbTable</title>
<!-- Node1 -->
<g id="node1" class="node">
<title>Node1</title>
<g id="a_node1"><a xlink:title=" ">
<polygon fill="#bfbfbf" stroke="black" points="0,-38.5 0,-57.5 173,-57.5 173,-38.5 0,-38.5"/>
<text text-anchor="middle" x="86.5" y="-45.5" font-family="FreeSans" font-size="10.00">GeomParamPlane::ReadDbTable</text>
</a>
</g>
</g>
<!-- Node2 -->
<g id="node2" class="node">
<title>Node2</title>
<g id="a_node2"><a xlink:href="../../d1/d3b/classGeomParamPlane.html#a34f092673f8d5d73747fc99574cafc31" target="_top" xlink:title=" ">
<polygon fill="none" stroke="black" points="231,-76.5 231,-95.5 359,-95.5 359,-76.5 231,-76.5"/>
<text text-anchor="middle" x="295" y="-83.5" font-family="FreeSans" font-size="10.00">GeomParamPlane::Add</text>
</a>
</g>
</g>
<!-- Node1&#45;&gt;Node2 -->
<g id="edge1" class="edge">
<title>Node1&#45;&gt;Node2</title>
<path fill="none" stroke="midnightblue" d="M139.34,-57.54C167.45,-62.71 202.38,-69.14 231.93,-74.58"/>
<polygon fill="midnightblue" stroke="midnightblue" points="231.67,-78.09 242.14,-76.46 232.94,-71.2 231.67,-78.09"/>
</g>
<!-- Node3 -->
<g id="node3" class="node">
<title>Node3</title>
<g id="a_node3"><a xlink:href="../../db/d8a/classRunParamBase.html#ad9f709752d29d2a439deafc2663e78e4" target="_top" xlink:title=" ">
<polygon fill="none" stroke="black" points="209,-38.5 209,-57.5 381,-57.5 381,-38.5 209,-38.5"/>
<text text-anchor="middle" x="295" y="-45.5" font-family="FreeSans" font-size="10.00">RunParamBase::MapTableName</text>
</a>
</g>
</g>
<!-- Node1&#45;&gt;Node3 -->
<g id="edge2" class="edge">
<title>Node1&#45;&gt;Node3</title>
<path fill="none" stroke="midnightblue" d="M173.28,-48C181.63,-48 190.14,-48 198.58,-48"/>
<polygon fill="midnightblue" stroke="midnightblue" points="198.82,-51.5 208.82,-48 198.82,-44.5 198.82,-51.5"/>
</g>
<!-- Node4 -->
<g id="node4" class="node">
<title>Node4</title>
<g id="a_node4"><a xlink:href="../../d2/da4/classDbSvc.html#a5a73427afe9c0bd72d41b45e211ae187" target="_top" xlink:title=" ">
<polygon fill="none" stroke="black" points="249.5,-0.5 249.5,-19.5 340.5,-19.5 340.5,-0.5 249.5,-0.5"/>
<text text-anchor="middle" x="295" y="-7.5" font-family="FreeSans" font-size="10.00">DbSvc::Process</text>
</a>
</g>
</g>
<!-- Node1&#45;&gt;Node4 -->
<g id="edge3" class="edge">
<title>Node1&#45;&gt;Node4</title>
<path fill="none" stroke="midnightblue" d="M139.34,-38.46C169.83,-32.85 208.34,-25.76 239.3,-20.07"/>
<polygon fill="midnightblue" stroke="midnightblue" points="240.29,-23.44 249.49,-18.19 239.02,-16.56 240.29,-23.44"/>
</g>
</g>
</svg>
