<?xml version="1.0" encoding="UTF-8" standalone="no"?>
<!DOCTYPE svg PUBLIC "-//W3C//DTD SVG 1.1//EN"
 "http://www.w3.org/Graphics/SVG/1.1/DTD/svg11.dtd">
<!-- Generated by graphviz version 2.44.0 (0)
 -->
<!-- Title: Fun4AllRUSInputManager::VectToE1039 Pages: 1 -->
<svg width="329pt" height="762pt"
 viewBox="0.00 0.00 329.00 762.00" xmlns="http://www.w3.org/2000/svg" xmlns:xlink="http://www.w3.org/1999/xlink">
<g id="graph0" class="graph" transform="scale(1 1) rotate(0) translate(4 758)">
<title>Fun4AllRUSInputManager::VectToE1039</title>
<!-- Node1 -->
<g id="node1" class="node">
<title>Node1</title>
<g id="a_node1"><a xlink:title=" ">
<polygon fill="#bfbfbf" stroke="black" points="0,-368 0,-398 140,-398 140,-368 0,-368"/>
<text text-anchor="start" x="8" y="-386" font-family="FreeSans" font-size="10.00">Fun4AllRUSInputManager</text>
<text text-anchor="middle" x="70" y="-375" font-family="FreeSans" font-size="10.00">::VectToE1039</text>
</a>
</g>
</g>
<!-- Node2 -->
<g id="node2" class="node">
<title>Node2</title>
<g id="a_node2"><a xlink:href="../../d7/d87/classSQSpillMap.html#a8351dcdc82a11b3c52f71830bc7e2a0f" target="_top" xlink:title="Return the SQSpill entry having spill ID = &#39;idkey&#39;. Return &#39;0&#39; if no entry exists.">
<polygon fill="none" stroke="black" points="201.5,-734.5 201.5,-753.5 295.5,-753.5 295.5,-734.5 201.5,-734.5"/>
<text text-anchor="middle" x="248.5" y="-741.5" font-family="FreeSans" font-size="10.00">SQSpillMap::get</text>
</a>
</g>
</g>
<!-- Node1&#45;&gt;Node2 -->
<g id="edge1" class="edge">
<title>Node1&#45;&gt;Node2</title>
<path fill="none" stroke="midnightblue" d="M70.81,-398.25C71.01,-451.62 79.12,-631.75 176,-725 180.55,-729.38 186,-732.78 191.83,-735.42"/>
<polygon fill="midnightblue" stroke="midnightblue" points="190.63,-738.71 201.22,-738.96 193.1,-732.16 190.63,-738.71"/>
</g>
<!-- Node3 -->
<g id="node3" class="node">
<title>Node3</title>
<g id="a_node3"><a xlink:href="../../d7/d87/classSQSpillMap.html#ab5c7b26a3807941f36d12dce0de37ad7" target="_top" xlink:title="Insert the given SQSpill object.">
<polygon fill="none" stroke="black" points="195.5,-696.5 195.5,-715.5 301.5,-715.5 301.5,-696.5 195.5,-696.5"/>
<text text-anchor="middle" x="248.5" y="-703.5" font-family="FreeSans" font-size="10.00">SQSpillMap::insert</text>
</a>
</g>
</g>
<!-- Node1&#45;&gt;Node3 -->
<g id="edge2" class="edge">
<title>Node1&#45;&gt;Node3</title>
<path fill="none" stroke="midnightblue" d="M71.48,-398.29C73.91,-447.87 88.49,-605.64 176,-687 178.98,-689.77 182.33,-692.15 185.89,-694.19"/>
<polygon fill="midnightblue" stroke="midnightblue" points="184.6,-697.45 195.14,-698.59 187.61,-691.13 184.6,-697.45"/>
</g>
<!-- Node4 -->
<g id="node4" class="node">
<title>Node4</title>
<g id="a_node4"><a xlink:href="../../d9/dbc/classSQHitVector.html#ae19e25eb6c51cbdd56d80cb865ffb6ef" target="_top" xlink:title=" ">
<polygon fill="none" stroke="black" points="182,-658.5 182,-677.5 315,-677.5 315,-658.5 182,-658.5"/>
<text text-anchor="middle" x="248.5" y="-665.5" font-family="FreeSans" font-size="10.00">SQHitVector::push_back</text>
</a>
</g>
</g>
<!-- Node1&#45;&gt;Node4 -->
<g id="edge3" class="edge">
<title>Node1&#45;&gt;Node4</title>
<path fill="none" stroke="midnightblue" d="M72.34,-398.31C77.16,-443.81 97.75,-579.35 176,-649 177.75,-650.56 179.62,-652 181.58,-653.32"/>
<polygon fill="midnightblue" stroke="midnightblue" points="180.21,-656.56 190.65,-658.39 183.63,-650.45 180.21,-656.56"/>
</g>
<!-- Node5 -->
<g id="node5" class="node">
<title>Node5</title>
<g id="a_node5"><a xlink:href="../../d9/dd7/classSQEvent.html#a4769df8c215f9f549a53ff3971f611fa" target="_top" xlink:title=" ">
<polygon fill="none" stroke="black" points="176,-620.5 176,-639.5 321,-639.5 321,-620.5 176,-620.5"/>
<text text-anchor="middle" x="248.5" y="-627.5" font-family="FreeSans" font-size="10.00">SQEvent::set_data_quality</text>
</a>
</g>
</g>
<!-- Node1&#45;&gt;Node5 -->
<g id="edge4" class="edge">
<title>Node1&#45;&gt;Node5</title>
<path fill="none" stroke="midnightblue" d="M73.43,-398.18C80.8,-439.15 106.81,-552.78 176,-611 178.02,-612.7 180.18,-614.25 182.44,-615.66"/>
<polygon fill="midnightblue" stroke="midnightblue" points="181.1,-618.91 191.58,-620.46 184.35,-612.71 181.1,-618.91"/>
</g>
<!-- Node6 -->
<g id="node6" class="node">
<title>Node6</title>
<g id="a_node6"><a xlink:href="../../de/d79/classSQHit.html#a9497f045fe7b60f98f6d62c75aa58c36" target="_top" xlink:title=" ">
<polygon fill="none" stroke="black" points="186,-582.5 186,-601.5 311,-601.5 311,-582.5 186,-582.5"/>
<text text-anchor="middle" x="248.5" y="-589.5" font-family="FreeSans" font-size="10.00">SQHit::set_detector_id</text>
</a>
</g>
</g>
<!-- Node1&#45;&gt;Node6 -->
<g id="edge5" class="edge">
<title>Node1&#45;&gt;Node6</title>
<path fill="none" stroke="midnightblue" d="M74.88,-398.01C85.01,-434.03 115.69,-525.92 176,-573 178.33,-574.82 180.81,-576.46 183.4,-577.94"/>
<polygon fill="midnightblue" stroke="midnightblue" points="182.06,-581.18 192.59,-582.42 185.13,-574.89 182.06,-581.18"/>
</g>
<!-- Node7 -->
<g id="node7" class="node">
<title>Node7</title>
<g id="a_node7"><a xlink:href="../../de/d79/classSQHit.html#ac4a04a2324c69db1a38fa0b19040b361" target="_top" xlink:title=" ">
<polygon fill="none" stroke="black" points="180,-544.5 180,-563.5 317,-563.5 317,-544.5 180,-544.5"/>
<text text-anchor="middle" x="248.5" y="-551.5" font-family="FreeSans" font-size="10.00">SQHit::set_drift_distance</text>
</a>
</g>
</g>
<!-- Node1&#45;&gt;Node7 -->
<g id="edge6" class="edge">
<title>Node1&#45;&gt;Node7</title>
<path fill="none" stroke="midnightblue" d="M77.13,-398.17C90.35,-428.95 124.58,-498.83 176,-535 178.87,-537.02 181.94,-538.82 185.14,-540.44"/>
<polygon fill="midnightblue" stroke="midnightblue" points="183.86,-543.7 194.43,-544.49 186.67,-537.28 183.86,-543.7"/>
</g>
<!-- Node8 -->
<g id="node8" class="node">
<title>Node8</title>
<g id="a_node8"><a xlink:href="../../de/d79/classSQHit.html#a3ba426998ce6bd9061e3d821dbf8d80e" target="_top" xlink:title=" ">
<polygon fill="none" stroke="black" points="186,-506.5 186,-525.5 311,-525.5 311,-506.5 186,-506.5"/>
<text text-anchor="middle" x="248.5" y="-513.5" font-family="FreeSans" font-size="10.00">SQHit::set_element_id</text>
</a>
</g>
</g>
<!-- Node1&#45;&gt;Node8 -->
<g id="edge7" class="edge">
<title>Node1&#45;&gt;Node8</title>
<path fill="none" stroke="midnightblue" d="M80.65,-398.11C97.14,-422.68 133.15,-471.14 176,-497 179.59,-499.17 183.42,-501.09 187.38,-502.79"/>
<polygon fill="midnightblue" stroke="midnightblue" points="186.2,-506.09 196.79,-506.39 188.7,-499.55 186.2,-506.09"/>
</g>
<!-- Node9 -->
<g id="node9" class="node">
<title>Node9</title>
<g id="a_node9"><a xlink:href="../../d9/dd7/classSQEvent.html#a838679aeba51973a3d3252491706430a" target="_top" xlink:title=" ">
<polygon fill="none" stroke="black" points="185.5,-468.5 185.5,-487.5 311.5,-487.5 311.5,-468.5 185.5,-468.5"/>
<text text-anchor="middle" x="248.5" y="-475.5" font-family="FreeSans" font-size="10.00">SQEvent::set_event_id</text>
</a>
</g>
</g>
<!-- Node1&#45;&gt;Node9 -->
<g id="edge8" class="edge">
<title>Node1&#45;&gt;Node9</title>
<path fill="none" stroke="midnightblue" d="M87.58,-398.02C107.3,-415.13 141.85,-442.79 176,-459 181,-461.37 186.35,-463.49 191.78,-465.36"/>
<polygon fill="midnightblue" stroke="midnightblue" points="191.01,-468.79 201.6,-468.48 193.13,-462.12 191.01,-468.79"/>
</g>
<!-- Node10 -->
<g id="node10" class="node">
<title>Node10</title>
<g id="a_node10"><a xlink:href="../../de/d79/classSQHit.html#a51f264b3d3a56f8d897e7e00f05ad6d6" target="_top" xlink:title=" ">
<polygon fill="none" stroke="black" points="199.5,-430.5 199.5,-449.5 297.5,-449.5 297.5,-430.5 199.5,-430.5"/>
<text text-anchor="middle" x="248.5" y="-437.5" font-family="FreeSans" font-size="10.00">SQHit::set_hit_id</text>
</a>
</g>
</g>
<!-- Node1&#45;&gt;Node10 -->
<g id="edge9" class="edge">
<title>Node1&#45;&gt;Node10</title>
<path fill="none" stroke="midnightblue" d="M110.11,-398.08C129.75,-405.41 153.98,-414.11 176,-421 183.5,-423.35 191.49,-425.66 199.32,-427.82"/>
<polygon fill="midnightblue" stroke="midnightblue" points="198.54,-431.23 209.1,-430.46 200.36,-424.47 198.54,-431.23"/>
</g>
<!-- Node11 -->
<g id="node11" class="node">
<title>Node11</title>
<g id="a_node11"><a xlink:href="../../d7/db7/classSQRun.html#a1b78a3cb4f8702ba7de4e198043275d9" target="_top" xlink:title=" ">
<polygon fill="none" stroke="black" points="195,-392.5 195,-411.5 302,-411.5 302,-392.5 195,-392.5"/>
<text text-anchor="middle" x="248.5" y="-399.5" font-family="FreeSans" font-size="10.00">SQRun::set_n_spill</text>
</a>
</g>
</g>
<!-- Node1&#45;&gt;Node11 -->
<g id="edge10" class="edge">
<title>Node1&#45;&gt;Node11</title>
<path fill="none" stroke="midnightblue" d="M140.25,-390.45C154.86,-392.03 170.2,-393.68 184.56,-395.22"/>
<polygon fill="midnightblue" stroke="midnightblue" points="184.51,-398.74 194.82,-396.33 185.26,-391.78 184.51,-398.74"/>
</g>
<!-- Node12 -->
<g id="node12" class="node">
<title>Node12</title>
<g id="a_node12"><a xlink:href="../../d9/dd7/classSQEvent.html#a94dd2b4b9838ea5c658290e5409d35ef" target="_top" xlink:title=" ">
<polygon fill="none" stroke="black" points="185.5,-354.5 185.5,-373.5 311.5,-373.5 311.5,-354.5 185.5,-354.5"/>
<text text-anchor="middle" x="248.5" y="-361.5" font-family="FreeSans" font-size="10.00">SQEvent::set_qie_rf_id</text>
</a>
</g>
</g>
<!-- Node1&#45;&gt;Node12 -->
<g id="edge11" class="edge">
<title>Node1&#45;&gt;Node12</title>
<path fill="none" stroke="midnightblue" d="M140.25,-375.55C151.75,-374.31 163.71,-373.02 175.28,-371.77"/>
<polygon fill="midnightblue" stroke="midnightblue" points="175.77,-375.24 185.34,-370.69 175.02,-368.28 175.77,-375.24"/>
</g>
<!-- Node13 -->
<g id="node13" class="node">
<title>Node13</title>
<g id="a_node13"><a xlink:href="../../d9/dd7/classSQEvent.html#a96d83f66ff4f35d5296337bc14a26284" target="_top" xlink:title=" ">
<polygon fill="none" stroke="black" points="192.5,-305 192.5,-335 304.5,-335 304.5,-305 192.5,-305"/>
<text text-anchor="start" x="200.5" y="-323" font-family="FreeSans" font-size="10.00">SQEvent::set_qie_rf</text>
<text text-anchor="middle" x="248.5" y="-312" font-family="FreeSans" font-size="10.00">_intensity</text>
</a>
</g>
</g>
<!-- Node1&#45;&gt;Node13 -->
<g id="edge12" class="edge">
<title>Node1&#45;&gt;Node13</title>
<path fill="none" stroke="midnightblue" d="M112.35,-367.92C131.67,-360.9 155,-352.47 176,-345 181.94,-342.89 188.15,-340.69 194.34,-338.52"/>
<polygon fill="midnightblue" stroke="midnightblue" points="195.71,-341.74 203.99,-335.13 193.4,-335.14 195.71,-341.74"/>
</g>
<!-- Node14 -->
<g id="node14" class="node">
<title>Node14</title>
<g id="a_node14"><a xlink:href="../../d9/dd7/classSQEvent.html#a5f919b9b26e01879a687e1e299ca16c3" target="_top" xlink:title=" ">
<polygon fill="none" stroke="black" points="179.5,-266.5 179.5,-285.5 317.5,-285.5 317.5,-266.5 179.5,-266.5"/>
<text text-anchor="middle" x="248.5" y="-273.5" font-family="FreeSans" font-size="10.00">SQEvent::set_qie_turn_id</text>
</a>
</g>
</g>
<!-- Node1&#45;&gt;Node14 -->
<g id="edge13" class="edge">
<title>Node1&#45;&gt;Node14</title>
<path fill="none" stroke="midnightblue" d="M85.19,-367.82C104.11,-348.43 139.51,-315.11 176,-296 181.19,-293.28 186.8,-290.9 192.51,-288.81"/>
<polygon fill="midnightblue" stroke="midnightblue" points="193.78,-292.08 202.15,-285.59 191.56,-285.44 193.78,-292.08"/>
</g>
<!-- Node15 -->
<g id="node15" class="node">
<title>Node15</title>
<g id="a_node15"><a xlink:href="../../d0/d78/classSQSpill.html#a5c48e33821c80b63afdaa45a4b541a26" target="_top" xlink:title=" ">
<polygon fill="none" stroke="black" points="195,-228.5 195,-247.5 302,-247.5 302,-228.5 195,-228.5"/>
<text text-anchor="middle" x="248.5" y="-235.5" font-family="FreeSans" font-size="10.00">SQSpill::set_run_id</text>
</a>
</g>
</g>
<!-- Node1&#45;&gt;Node15 -->
<g id="edge14" class="edge">
<title>Node1&#45;&gt;Node15</title>
<path fill="none" stroke="midnightblue" d="M79.24,-368C94.64,-341.41 130.39,-286.1 176,-257 179.32,-254.88 182.86,-253 186.54,-251.33"/>
<polygon fill="midnightblue" stroke="midnightblue" points="187.89,-254.56 195.87,-247.59 185.29,-248.06 187.89,-254.56"/>
</g>
<!-- Node16 -->
<g id="node16" class="node">
<title>Node16</title>
<g id="a_node16"><a xlink:href="../../d9/dd7/classSQEvent.html#a9b019f1f9d2c475c9046fa4f112c6d36" target="_top" xlink:title=" ">
<polygon fill="none" stroke="black" points="191.5,-190.5 191.5,-209.5 305.5,-209.5 305.5,-190.5 191.5,-190.5"/>
<text text-anchor="middle" x="248.5" y="-197.5" font-family="FreeSans" font-size="10.00">SQEvent::set_run_id</text>
</a>
</g>
</g>
<!-- Node1&#45;&gt;Node16 -->
<g id="edge15" class="edge">
<title>Node1&#45;&gt;Node16</title>
<path fill="none" stroke="midnightblue" d="M76.4,-367.64C88.69,-334.99 121.93,-258.47 176,-219 178.65,-217.07 181.47,-215.33 184.42,-213.78"/>
<polygon fill="midnightblue" stroke="midnightblue" points="185.91,-216.94 193.56,-209.61 183.01,-210.57 185.91,-216.94"/>
</g>
<!-- Node17 -->
<g id="node17" class="node">
<title>Node17</title>
<g id="a_node17"><a xlink:href="../../d0/d78/classSQSpill.html#a278e5160a41fd21dac5864d3b4c6c6e3" target="_top" xlink:title=" ">
<polygon fill="none" stroke="black" points="192.5,-152.5 192.5,-171.5 304.5,-171.5 304.5,-152.5 192.5,-152.5"/>
<text text-anchor="middle" x="248.5" y="-159.5" font-family="FreeSans" font-size="10.00">SQSpill::set_spill_id</text>
</a>
</g>
</g>
<!-- Node1&#45;&gt;Node17 -->
<g id="edge16" class="edge">
<title>Node1&#45;&gt;Node17</title>
<path fill="none" stroke="midnightblue" d="M74.38,-367.9C83.62,-330.24 112.93,-231.55 176,-181 178.3,-179.16 180.77,-177.49 183.35,-175.98"/>
<polygon fill="midnightblue" stroke="midnightblue" points="185.08,-179.03 192.49,-171.46 181.97,-172.76 185.08,-179.03"/>
</g>
<!-- Node18 -->
<g id="node18" class="node">
<title>Node18</title>
<g id="a_node18"><a xlink:href="../../d9/dd7/classSQEvent.html#a7e592d3355b5300948ccc3966ae59025" target="_top" xlink:title=" ">
<polygon fill="none" stroke="black" points="189,-114.5 189,-133.5 308,-133.5 308,-114.5 189,-114.5"/>
<text text-anchor="middle" x="248.5" y="-121.5" font-family="FreeSans" font-size="10.00">SQEvent::set_spill_id</text>
</a>
</g>
</g>
<!-- Node1&#45;&gt;Node18 -->
<g id="edge17" class="edge">
<title>Node1&#45;&gt;Node18</title>
<path fill="none" stroke="midnightblue" d="M73.02,-367.96C79.53,-325.69 103.86,-204.89 176,-143 177.96,-141.32 180.06,-139.78 182.25,-138.38"/>
<polygon fill="midnightblue" stroke="midnightblue" points="183.99,-141.42 191.15,-133.61 180.68,-135.25 183.99,-141.42"/>
</g>
<!-- Node19 -->
<g id="node19" class="node">
<title>Node19</title>
<g id="a_node19"><a xlink:href="../../de/d79/classSQHit.html#a9b0e74b024716ff77dcec3f480f2434b" target="_top" xlink:title=" ">
<polygon fill="none" stroke="black" points="192,-76.5 192,-95.5 305,-95.5 305,-76.5 192,-76.5"/>
<text text-anchor="middle" x="248.5" y="-83.5" font-family="FreeSans" font-size="10.00">SQHit::set_tdc_time</text>
</a>
</g>
</g>
<!-- Node1&#45;&gt;Node19 -->
<g id="edge18" class="edge">
<title>Node1&#45;&gt;Node19</title>
<path fill="none" stroke="midnightblue" d="M72.05,-367.68C76.09,-320.85 94.84,-178.32 176,-105 178,-103.19 180.16,-101.55 182.42,-100.07"/>
<polygon fill="midnightblue" stroke="midnightblue" points="184.53,-102.9 191.66,-95.06 181.2,-96.75 184.53,-102.9"/>
</g>
<!-- Node20 -->
<g id="node20" class="node">
<title>Node20</title>
<g id="a_node20"><a xlink:href="../../d9/dd7/classSQEvent.html#abb5b1e5eb1b6492822c2236a78b6b3e9" target="_top" xlink:title=" ">
<polygon fill="none" stroke="black" points="190.5,-38.5 190.5,-57.5 306.5,-57.5 306.5,-38.5 190.5,-38.5"/>
<text text-anchor="middle" x="248.5" y="-45.5" font-family="FreeSans" font-size="10.00">SQEvent::set_trigger</text>
</a>
</g>
</g>
<!-- Node1&#45;&gt;Node20 -->
<g id="edge19" class="edge">
<title>Node1&#45;&gt;Node20</title>
<path fill="none" stroke="midnightblue" d="M71.25,-367.83C72.94,-317.17 85.47,-152.16 176,-67 177.71,-65.39 179.54,-63.92 181.47,-62.56"/>
<polygon fill="midnightblue" stroke="midnightblue" points="183.53,-65.41 190.43,-57.37 180.02,-59.35 183.53,-65.41"/>
</g>
<!-- Node21 -->
<g id="node21" class="node">
<title>Node21</title>
<g id="a_node21"><a xlink:href="../../d7/d87/classSQSpillMap.html#af334c43d9b487c42950cb54510921751" target="_top" xlink:title="Return the number of spills held.">
<polygon fill="none" stroke="black" points="199.5,-0.5 199.5,-19.5 297.5,-19.5 297.5,-0.5 199.5,-0.5"/>
<text text-anchor="middle" x="248.5" y="-7.5" font-family="FreeSans" font-size="10.00">SQSpillMap::size</text>
</a>
</g>
</g>
<!-- Node1&#45;&gt;Node21 -->
<g id="edge20" class="edge">
<title>Node1&#45;&gt;Node21</title>
<path fill="none" stroke="midnightblue" d="M70.63,-367.98C70.13,-313.76 76.01,-126.17 176,-29 180.03,-25.08 184.77,-21.95 189.86,-19.45"/>
<polygon fill="midnightblue" stroke="midnightblue" points="191.39,-22.61 199.33,-15.59 188.74,-16.12 191.39,-22.61"/>
</g>
</g>
</svg>
