<?xml version="1.0" encoding="UTF-8" standalone="no"?>
<!DOCTYPE svg PUBLIC "-//W3C//DTD SVG 1.1//EN"
 "http://www.w3.org/Graphics/SVG/1.1/DTD/svg11.dtd">
<!-- Generated by graphviz version 2.36.0 (20140111.2315)
 -->
<!-- Title: /home/yuhw/GitHub/SeaQuest/seaquest&#45;offline/simulation/g4detectors/PHG4TargetCoilDetector.h Pages: 1 -->
<svg width="628pt" height="140pt"
 viewBox="0.00 0.00 628.00 140.00" xmlns="http://www.w3.org/2000/svg" xmlns:xlink="http://www.w3.org/1999/xlink">
<g id="graph0" class="graph" transform="scale(1 1) rotate(0) translate(4 136)">
<title>/home/yuhw/GitHub/SeaQuest/seaquest&#45;offline/simulation/g4detectors/PHG4TargetCoilDetector.h</title>
<!-- Node1 -->
<g id="node1" class="node"><title>Node1</title>
<polygon fill="#bfbfbf" stroke="black" points="209.5,-90.5 209.5,-131.5 398.5,-131.5 398.5,-90.5 209.5,-90.5"/>
<text text-anchor="start" x="217.5" y="-119.5" font-family="FreeSans" font-size="10.00">/home/yuhw/GitHub/SeaQuest</text>
<text text-anchor="start" x="217.5" y="-108.5" font-family="FreeSans" font-size="10.00">/seaquest&#45;offline/simulation</text>
<text text-anchor="middle" x="304" y="-97.5" font-family="FreeSans" font-size="10.00">/g4detectors/PHG4TargetCoilDetector.h</text>
</g>
<!-- Node2 -->
<g id="node2" class="node"><title>Node2</title>
<g id="a_node2"><a xlink:href="../../d7/d4a/PHG4TargetCoilDetector_8cc.html" target="_top" xlink:title="/home/yuhw/GitHub/SeaQuest\l/seaquest&#45;offline/simulation\l/g4detectors/PHG4TargetCoilDetector.cc">
<polygon fill="none" stroke="black" points="0,-6.5 0,-47.5 194,-47.5 194,-6.5 0,-6.5"/>
<text text-anchor="start" x="8" y="-35.5" font-family="FreeSans" font-size="10.00">/home/yuhw/GitHub/SeaQuest</text>
<text text-anchor="start" x="8" y="-24.5" font-family="FreeSans" font-size="10.00">/seaquest&#45;offline/simulation</text>
<text text-anchor="middle" x="97" y="-13.5" font-family="FreeSans" font-size="10.00">/g4detectors/PHG4TargetCoilDetector.cc</text>
</a>
</g>
</g>
<!-- Node1&#45;&gt;Node2 -->
<g id="edge1" class="edge"><title>Node1&#45;&gt;Node2</title>
<path fill="none" stroke="midnightblue" d="M245.217,-86.7138C213.969,-74.3356 175.989,-59.2905 146.299,-47.5291"/>
<polygon fill="midnightblue" stroke="midnightblue" points="244.095,-90.0342 254.681,-90.4631 246.673,-83.5262 244.095,-90.0342"/>
</g>
<!-- Node3 -->
<g id="node3" class="node"><title>Node3</title>
<g id="a_node3"><a xlink:href="../../db/dbc/PHG4TargetCoilSteppingAction_8cc.html" target="_top" xlink:title="/home/yuhw/GitHub/SeaQuest\l/seaquest&#45;offline/simulation\l/g4detectors/PHG4TargetCoilStepping\lAction.cc">
<polygon fill="none" stroke="black" points="212.5,-1 212.5,-53 395.5,-53 395.5,-1 212.5,-1"/>
<text text-anchor="start" x="220.5" y="-41" font-family="FreeSans" font-size="10.00">/home/yuhw/GitHub/SeaQuest</text>
<text text-anchor="start" x="220.5" y="-30" font-family="FreeSans" font-size="10.00">/seaquest&#45;offline/simulation</text>
<text text-anchor="start" x="220.5" y="-19" font-family="FreeSans" font-size="10.00">/g4detectors/PHG4TargetCoilStepping</text>
<text text-anchor="middle" x="304" y="-8" font-family="FreeSans" font-size="10.00">Action.cc</text>
</a>
</g>
</g>
<!-- Node1&#45;&gt;Node3 -->
<g id="edge2" class="edge"><title>Node1&#45;&gt;Node3</title>
<path fill="none" stroke="midnightblue" d="M304,-79.9378C304,-71.1758 304,-61.6949 304,-53.2613"/>
<polygon fill="midnightblue" stroke="midnightblue" points="300.5,-80.1501 304,-90.1501 307.5,-80.1501 300.5,-80.1501"/>
</g>
<!-- Node4 -->
<g id="node4" class="node"><title>Node4</title>
<g id="a_node4"><a xlink:href="../../df/de1/PHG4TargetCoilSubsystem_8cc.html" target="_top" xlink:title="/home/yuhw/GitHub/SeaQuest\l/seaquest&#45;offline/simulation\l/g4detectors/PHG4TargetCoilSubsystem.cc">
<polygon fill="none" stroke="black" points="414,-6.5 414,-47.5 620,-47.5 620,-6.5 414,-6.5"/>
<text text-anchor="start" x="422" y="-35.5" font-family="FreeSans" font-size="10.00">/home/yuhw/GitHub/SeaQuest</text>
<text text-anchor="start" x="422" y="-24.5" font-family="FreeSans" font-size="10.00">/seaquest&#45;offline/simulation</text>
<text text-anchor="middle" x="517" y="-13.5" font-family="FreeSans" font-size="10.00">/g4detectors/PHG4TargetCoilSubsystem.cc</text>
</a>
</g>
</g>
<!-- Node1&#45;&gt;Node4 -->
<g id="edge3" class="edge"><title>Node1&#45;&gt;Node4</title>
<path fill="none" stroke="midnightblue" d="M364.487,-86.7138C396.64,-74.3356 435.721,-59.2905 466.272,-47.5291"/>
<polygon fill="midnightblue" stroke="midnightblue" points="362.823,-83.604 354.748,-90.4631 365.338,-90.1367 362.823,-83.604"/>
</g>
</g>
</svg>
