<?xml version="1.0" encoding="UTF-8" standalone="no"?>
<!DOCTYPE svg PUBLIC "-//W3C//DTD SVG 1.1//EN"
 "http://www.w3.org/Graphics/SVG/1.1/DTD/svg11.dtd">
<!-- Generated by graphviz version 2.40.1 (20161225.0304)
 -->
<!-- Title: TruthEval::InitEvalTree Pages: 1 -->
<svg width="443pt" height="218pt"
 viewBox="0.00 0.00 443.00 218.00" xmlns="http://www.w3.org/2000/svg" xmlns:xlink="http://www.w3.org/1999/xlink">
<g id="graph0" class="graph" transform="scale(1 1) rotate(0) translate(4 214)">
<title>TruthEval::InitEvalTree</title>
<!-- Node70 -->
<g id="node1" class="node">
<title>Node70</title>
<polygon fill="#bfbfbf" stroke="#000000" points="0,-38.5 0,-57.5 113,-57.5 113,-38.5 0,-38.5"/>
<text text-anchor="middle" x="56.5" y="-45.5" font-family="FreeSans" font-size="10.00" fill="#000000">TruthEval::InitEvalTree</text>
</g>
<!-- Node71 -->
<g id="node2" class="node">
<title>Node71</title>
<g id="a_node2"><a xlink:href="../../d3/d2b/classPHTFileServer.html#a5a3ed7a2a70cc2e38dbe1cb33afe9c2f" target="_top" xlink:title="return reference to class singleton ">
<polygon fill="none" stroke="#000000" points="149,-76.5 149,-95.5 247,-95.5 247,-76.5 149,-76.5"/>
<text text-anchor="middle" x="198" y="-83.5" font-family="FreeSans" font-size="10.00" fill="#000000">PHTFileServer::get</text>
</a>
</g>
</g>
<!-- Node70&#45;&gt;Node71 -->
<g id="edge1" class="edge">
<title>Node70&#45;&gt;Node71</title>
<path fill="none" stroke="#191970" d="M92.2064,-57.589C110.4727,-62.4944 132.9084,-68.5196 152.4112,-73.7571"/>
<polygon fill="#191970" stroke="#191970" points="151.7394,-77.2006 162.305,-76.4141 153.555,-70.4401 151.7394,-77.2006"/>
</g>
<!-- Node75 -->
<g id="node6" class="node">
<title>Node75</title>
<g id="a_node6"><a xlink:href="../../d3/d2b/classPHTFileServer.html#aaae99c6748eb17d5f8d7df375bc6d615" target="_top" xlink:title="open a SafeTFile. If filename is not found in the map, create a new TFile and append to the map; incr...">
<polygon fill="none" stroke="#000000" points="306.5,-.5 306.5,-19.5 411.5,-19.5 411.5,-.5 306.5,-.5"/>
<text text-anchor="middle" x="359" y="-7.5" font-family="FreeSans" font-size="10.00" fill="#000000">PHTFileServer::open</text>
</a>
</g>
</g>
<!-- Node70&#45;&gt;Node75 -->
<g id="edge8" class="edge">
<title>Node70&#45;&gt;Node75</title>
<path fill="none" stroke="#191970" d="M113.0431,-40.8971C165.094,-34.3584 242.1846,-24.6743 296.1465,-17.8956"/>
<polygon fill="#191970" stroke="#191970" points="296.7931,-21.342 306.2788,-16.6228 295.9205,-14.3966 296.7931,-21.342"/>
</g>
<!-- Node72 -->
<g id="node3" class="node">
<title>Node72</title>
<g id="a_node3"><a xlink:href="../../d3/d2b/classPHTFileServer.html#ac4e4f66af63e11c709628712c43c5dc9" target="_top" xlink:title="change to directory of TFile matching filename ">
<polygon fill="none" stroke="#000000" points="311.5,-190.5 311.5,-209.5 406.5,-209.5 406.5,-190.5 311.5,-190.5"/>
<text text-anchor="middle" x="359" y="-197.5" font-family="FreeSans" font-size="10.00" fill="#000000">PHTFileServer::cd</text>
</a>
</g>
</g>
<!-- Node71&#45;&gt;Node72 -->
<g id="edge2" class="edge">
<title>Node71&#45;&gt;Node72</title>
<path fill="none" stroke="#191970" d="M203.6985,-95.5161C215.7656,-114.8076 245.8608,-158.5891 283,-181 288.7896,-184.4936 295.197,-187.3469 301.7639,-189.6767"/>
<polygon fill="#191970" stroke="#191970" points="300.8561,-193.0603 311.4458,-192.7294 302.9611,-186.3843 300.8561,-193.0603"/>
</g>
<!-- Node73 -->
<g id="node4" class="node">
<title>Node73</title>
<g id="a_node4"><a xlink:href="../../d3/d2b/classPHTFileServer.html#a97e4129d0cae6dbf8545e729dcb10982" target="_top" xlink:title="close all TFiles ">
<polygon fill="none" stroke="#000000" points="305.5,-152.5 305.5,-171.5 412.5,-171.5 412.5,-152.5 305.5,-152.5"/>
<text text-anchor="middle" x="359" y="-159.5" font-family="FreeSans" font-size="10.00" fill="#000000">PHTFileServer::close</text>
</a>
</g>
</g>
<!-- Node71&#45;&gt;Node73 -->
<g id="edge3" class="edge">
<title>Node71&#45;&gt;Node73</title>
<path fill="none" stroke="#191970" d="M209.341,-95.5025C224.9611,-108.1275 254.4191,-130.3103 283,-143 288.4946,-145.4396 294.3577,-147.6031 300.298,-149.5133"/>
<polygon fill="#191970" stroke="#191970" points="299.7341,-152.997 310.3169,-152.4927 301.7294,-146.2874 299.7341,-152.997"/>
</g>
<!-- Node74 -->
<g id="node5" class="node">
<title>Node74</title>
<g id="a_node5"><a xlink:href="../../d3/d2b/classPHTFileServer.html#a7f6bcc2c1d273dcd3f84f8d235dde7e2" target="_top" xlink:title="flush TFile matching filename ">
<polygon fill="none" stroke="#000000" points="307,-114.5 307,-133.5 411,-133.5 411,-114.5 307,-114.5"/>
<text text-anchor="middle" x="359" y="-121.5" font-family="FreeSans" font-size="10.00" fill="#000000">PHTFileServer::flush</text>
</a>
</g>
</g>
<!-- Node71&#45;&gt;Node74 -->
<g id="edge4" class="edge">
<title>Node71&#45;&gt;Node74</title>
<path fill="none" stroke="#191970" d="M238.6271,-95.589C259.9685,-100.6261 286.3119,-106.8438 308.9081,-112.1771"/>
<polygon fill="#191970" stroke="#191970" points="308.1284,-115.5891 318.665,-114.4799 309.7365,-108.7763 308.1284,-115.5891"/>
</g>
<!-- Node71&#45;&gt;Node75 -->
<g id="edge5" class="edge">
<title>Node71&#45;&gt;Node75</title>
<path fill="none" stroke="#191970" d="M209.341,-76.4975C224.9611,-63.8725 254.4191,-41.6897 283,-29 288.4946,-26.5604 294.3577,-24.3969 300.298,-22.4867"/>
<polygon fill="#191970" stroke="#191970" points="301.7294,-25.7126 310.3169,-19.5073 299.7341,-19.003 301.7294,-25.7126"/>
</g>
<!-- Node76 -->
<g id="node7" class="node">
<title>Node76</title>
<g id="a_node7"><a xlink:href="../../d3/d2b/classPHTFileServer.html#a081621118101b14bf7eba52e5f8ed3a5" target="_top" xlink:title="if TFile is found in map and counter is 0, close the TFile, decrement counter otherwise ...">
<polygon fill="none" stroke="#000000" points="307,-76.5 307,-95.5 411,-95.5 411,-76.5 307,-76.5"/>
<text text-anchor="middle" x="359" y="-83.5" font-family="FreeSans" font-size="10.00" fill="#000000">PHTFileServer::write</text>
</a>
</g>
</g>
<!-- Node71&#45;&gt;Node76 -->
<g id="edge6" class="edge">
<title>Node71&#45;&gt;Node76</title>
<path fill="none" stroke="#191970" d="M247.1801,-86C262.8026,-86 280.2896,-86 296.7098,-86"/>
<polygon fill="#191970" stroke="#191970" points="296.7697,-89.5001 306.7696,-86 296.7696,-82.5001 296.7697,-89.5001"/>
</g>
<!-- Node77 -->
<g id="node8" class="node">
<title>Node77</title>
<g id="a_node8"><a xlink:href="../../d3/d2b/classPHTFileServer.html#adfad981fb056e34d6fe6bc34c8bc3e3d" target="_top" xlink:title="destructor. All non close TFiles are closed, with a warning. ">
<polygon fill="none" stroke="#000000" points="283,-38.5 283,-57.5 435,-57.5 435,-38.5 283,-38.5"/>
<text text-anchor="middle" x="359" y="-45.5" font-family="FreeSans" font-size="10.00" fill="#000000">PHTFileServer::~PHTFileServer</text>
</a>
</g>
</g>
<!-- Node71&#45;&gt;Node77 -->
<g id="edge7" class="edge">
<title>Node71&#45;&gt;Node77</title>
<path fill="none" stroke="#191970" d="M238.6271,-76.411C259.9685,-71.3739 286.3119,-65.1562 308.9081,-59.8229"/>
<polygon fill="#191970" stroke="#191970" points="309.7365,-63.2237 318.665,-57.5201 308.1284,-56.4109 309.7365,-63.2237"/>
</g>
</g>
</svg>
