<?xml version="1.0" encoding="UTF-8" standalone="no"?>
<!DOCTYPE svg PUBLIC "-//W3C//DTD SVG 1.1//EN"
 "http://www.w3.org/Graphics/SVG/1.1/DTD/svg11.dtd">
<!-- Generated by graphviz version 2.30.1 (20180413.0232)
 -->
<!-- Title: OnlMonClient::DrawMonitor Pages: 1 -->
<svg width="640pt" height="66pt"
 viewBox="0.00 0.00 640.00 66.00" xmlns="http://www.w3.org/2000/svg" xmlns:xlink="http://www.w3.org/1999/xlink">
<g id="graph0" class="graph" transform="scale(1 1) rotate(0) translate(4 62)">
<title>OnlMonClient::DrawMonitor</title>
<!-- Node1 -->
<g id="node1" class="node"><title>Node1</title>
<polygon fill="#bfbfbf" stroke="black" points="0,-19.5 0,-38.5 134,-38.5 134,-19.5 0,-19.5"/>
<text text-anchor="middle" x="67" y="-26.5" font-family="FreeSans" font-size="10.00">OnlMonClient::DrawMonitor</text>
</g>
<!-- Node2 -->
<g id="node2" class="node"><title>Node2</title>
<g id="a_node2"><a xlink:href="../../d9/d62/classOnlMonClient.html#ac43168b63e4026d2c2eb9c65fc12da16" target="_top" xlink:title="OnlMonClient::DrawCanvas">
<polygon fill="none" stroke="black" points="170.5,-19.5 170.5,-38.5 303.5,-38.5 303.5,-19.5 170.5,-19.5"/>
<text text-anchor="middle" x="237" y="-26.5" font-family="FreeSans" font-size="10.00">OnlMonClient::DrawCanvas</text>
</a>
</g>
</g>
<!-- Node1&#45;&gt;Node2 -->
<g id="edge1" class="edge"><title>Node1&#45;&gt;Node2</title>
<path fill="none" stroke="midnightblue" d="M144.474,-29C153.119,-29 161.87,-29 170.359,-29"/>
<polygon fill="midnightblue" stroke="midnightblue" points="144.398,-25.5001 134.398,-29 144.398,-32.5001 144.398,-25.5001"/>
</g>
<!-- Node3 -->
<g id="node3" class="node"><title>Node3</title>
<g id="a_node3"><a xlink:href="../../d9/d62/classOnlMonClient.html#a8e707fd7f6a89c8af8d716bdd06eed5d" target="_top" xlink:title="Called at the end of all processing. ">
<polygon fill="none" stroke="black" points="359,-38.5 359,-57.5 455,-57.5 455,-38.5 359,-38.5"/>
<text text-anchor="middle" x="407" y="-45.5" font-family="FreeSans" font-size="10.00">OnlMonClient::End</text>
</a>
</g>
</g>
<!-- Node2&#45;&gt;Node3 -->
<g id="edge2" class="edge"><title>Node2&#45;&gt;Node3</title>
<path fill="none" stroke="midnightblue" d="M313.922,-37.5865C329.262,-39.3213 344.965,-41.0972 358.958,-42.6798"/>
<polygon fill="midnightblue" stroke="midnightblue" points="314.246,-34.1008 303.916,-36.4548 313.459,-41.0565 314.246,-34.1008"/>
</g>
<!-- Node4 -->
<g id="node4" class="node"><title>Node4</title>
<g id="a_node4"><a xlink:href="../../d9/d62/classOnlMonClient.html#a68fab899fe1e1e3071ba0588a0853930" target="_top" xlink:title="OnlMonClient::StartMonitor">
<polygon fill="none" stroke="black" points="340.5,-0.5 340.5,-19.5 473.5,-19.5 473.5,-0.5 340.5,-0.5"/>
<text text-anchor="middle" x="407" y="-7.5" font-family="FreeSans" font-size="10.00">OnlMonClient::StartMonitor</text>
</a>
</g>
</g>
<!-- Node2&#45;&gt;Node4 -->
<g id="edge3" class="edge"><title>Node2&#45;&gt;Node4</title>
<path fill="none" stroke="midnightblue" d="M314.098,-20.3937C322.836,-19.4055 331.689,-18.4042 340.274,-17.4333"/>
<polygon fill="midnightblue" stroke="midnightblue" points="313.459,-16.9435 303.916,-21.5452 314.246,-23.8992 313.459,-16.9435"/>
</g>
<!-- Node5 -->
<g id="node5" class="node"><title>Node5</title>
<g id="a_node5"><a xlink:href="../../d4/d81/e1039-core_2online_2macros_2OnlMon4MainDaq_8C.html#aa66c466516c320b5bd7d690e3637b51e" target="_top" xlink:title="OnlMon4MainDaqSingle">
<polygon fill="none" stroke="black" points="510.5,-0.5 510.5,-19.5 631.5,-19.5 631.5,-0.5 510.5,-0.5"/>
<text text-anchor="middle" x="571" y="-7.5" font-family="FreeSans" font-size="10.00">OnlMon4MainDaqSingle</text>
</a>
</g>
</g>
<!-- Node4&#45;&gt;Node5 -->
<g id="edge4" class="edge"><title>Node4&#45;&gt;Node5</title>
<path fill="none" stroke="midnightblue" d="M484.177,-10C492.989,-10 501.879,-10 510.425,-10"/>
<polygon fill="midnightblue" stroke="midnightblue" points="483.892,-6.5001 473.892,-10 483.892,-13.5001 483.892,-6.5001"/>
</g>
</g>
</svg>
