<?xml version="1.0" encoding="UTF-8" standalone="no"?>
<!DOCTYPE svg PUBLIC "-//W3C//DTD SVG 1.1//EN"
 "http://www.w3.org/Graphics/SVG/1.1/DTD/svg11.dtd">
<!-- Generated by graphviz version 2.44.0 (0)
 -->
<!-- Title: KalmanFitter::processOneTrack Pages: 1 -->
<svg width="885pt" height="948pt"
 viewBox="0.00 0.00 885.00 948.00" xmlns="http://www.w3.org/2000/svg" xmlns:xlink="http://www.w3.org/1999/xlink">
<g id="graph0" class="graph" transform="scale(1 1) rotate(0) translate(4 944)">
<title>KalmanFitter::processOneTrack</title>
<!-- Node1 -->
<g id="node1" class="node">
<title>Node1</title>
<g id="a_node1"><a xlink:title=" ">
<polygon fill="#bfbfbf" stroke="black" points="0,-207 0,-237 143,-237 143,-207 0,-207"/>
<text text-anchor="start" x="8" y="-225" font-family="FreeSans" font-size="10.00">KalmanFitter::processOne</text>
<text text-anchor="middle" x="71.5" y="-214" font-family="FreeSans" font-size="10.00">Track</text>
</a>
</g>
</g>
<!-- Node2 -->
<g id="node2" class="node">
<title>Node2</title>
<g id="a_node2"><a xlink:href="../../d6/d2a/classKalmanFilter.html#a9c77cbaf604c1adc5e0e12ef3463d37c" target="_top" xlink:title="Fit one node.">
<polygon fill="none" stroke="black" points="202,-430.5 202,-449.5 326,-449.5 326,-430.5 202,-430.5"/>
<text text-anchor="middle" x="264" y="-437.5" font-family="FreeSans" font-size="10.00">KalmanFilter::fit_node</text>
</a>
</g>
</g>
<!-- Node1&#45;&gt;Node2 -->
<g id="edge1" class="edge">
<title>Node1&#45;&gt;Node2</title>
<path fill="none" stroke="midnightblue" d="M85.57,-237.19C105.6,-260.46 145.15,-306.31 179,-345 202.87,-372.28 230.78,-403.76 247.66,-422.76"/>
<polygon fill="midnightblue" stroke="midnightblue" points="245.12,-425.17 254.38,-430.32 250.35,-420.52 245.12,-425.17"/>
</g>
<!-- Node30 -->
<g id="node30" class="node">
<title>Node30</title>
<g id="a_node30"><a xlink:href="../../d3/dc9/classKalmanFitter.html#ae9587c1f1ad0cda46b37cc803ea8513b" target="_top" xlink:title="Initialize the kalman filter.">
<polygon fill="none" stroke="black" points="213.5,-316.5 213.5,-335.5 314.5,-335.5 314.5,-316.5 213.5,-316.5"/>
<text text-anchor="middle" x="264" y="-323.5" font-family="FreeSans" font-size="10.00">KalmanFitter::init</text>
</a>
</g>
</g>
<!-- Node1&#45;&gt;Node30 -->
<g id="edge31" class="edge">
<title>Node1&#45;&gt;Node30</title>
<path fill="none" stroke="midnightblue" d="M86.86,-237.09C106.03,-256.31 141.9,-289.17 179,-307 186.65,-310.68 195.04,-313.66 203.47,-316.07"/>
<polygon fill="midnightblue" stroke="midnightblue" points="202.77,-319.51 213.33,-318.65 204.54,-312.73 202.77,-319.51"/>
</g>
<!-- Node31 -->
<g id="node31" class="node">
<title>Node31</title>
<g id="a_node31"><a xlink:href="../../d3/dc9/classKalmanFitter.html#a6c4dc9c69d998ffb8897d4eabe692e29" target="_top" xlink:title="Initialize the node list.">
<polygon fill="none" stroke="black" points="192,-278.5 192,-297.5 336,-297.5 336,-278.5 192,-278.5"/>
<text text-anchor="middle" x="264" y="-285.5" font-family="FreeSans" font-size="10.00">KalmanFitter::initNodeList</text>
</a>
</g>
</g>
<!-- Node1&#45;&gt;Node31 -->
<g id="edge32" class="edge">
<title>Node1&#45;&gt;Node31</title>
<path fill="none" stroke="midnightblue" d="M102.64,-237.18C123.64,-247.28 152.52,-260.25 179,-269 186.77,-271.57 195.06,-273.91 203.29,-275.99"/>
<polygon fill="midnightblue" stroke="midnightblue" points="202.72,-279.46 213.26,-278.42 204.37,-272.66 202.72,-279.46"/>
</g>
<!-- Node33 -->
<g id="node33" class="node">
<title>Node33</title>
<g id="a_node33"><a xlink:href="../../d3/dc9/classKalmanFitter.html#a6afa98e802038d1ef394de55bbe013b5" target="_top" xlink:title="Initialize the smoother.">
<polygon fill="none" stroke="black" points="385.5,-95.5 385.5,-114.5 534.5,-114.5 534.5,-95.5 385.5,-95.5"/>
<text text-anchor="middle" x="460" y="-102.5" font-family="FreeSans" font-size="10.00">KalmanFitter::initSmoother</text>
</a>
</g>
</g>
<!-- Node1&#45;&gt;Node33 -->
<g id="edge34" class="edge">
<title>Node1&#45;&gt;Node33</title>
<path fill="none" stroke="midnightblue" d="M102.21,-206.85C123.25,-196.56 152.35,-183.2 179,-174 253.11,-148.41 341.32,-128.31 398.66,-116.55"/>
<polygon fill="midnightblue" stroke="midnightblue" points="399.54,-119.95 408.64,-114.53 398.14,-113.09 399.54,-119.95"/>
</g>
<!-- Node37 -->
<g id="node37" class="node">
<title>Node37</title>
<g id="a_node37"><a xlink:href="../../d6/d2a/classKalmanFilter.html#a8d8429d9087367301473581d099091f6" target="_top" xlink:title="set the current track parameter using the current node">
<polygon fill="none" stroke="black" points="385,-190.5 385,-209.5 535,-209.5 535,-190.5 385,-190.5"/>
<text text-anchor="middle" x="460" y="-197.5" font-family="FreeSans" font-size="10.00">KalmanFilter::setCurrTrkpar</text>
</a>
</g>
</g>
<!-- Node1&#45;&gt;Node37 -->
<g id="edge40" class="edge">
<title>Node1&#45;&gt;Node37</title>
<path fill="none" stroke="midnightblue" d="M143.39,-217.96C208.72,-214.25 305.73,-208.72 374.94,-204.78"/>
<polygon fill="midnightblue" stroke="midnightblue" points="375.15,-208.28 384.94,-204.22 374.76,-201.29 375.15,-208.28"/>
</g>
<!-- Node38 -->
<g id="node38" class="node">
<title>Node38</title>
<g id="a_node38"><a xlink:href="../../d3/dc9/classKalmanFitter.html#a3d139ee72b694541612a4d76023589f8" target="_top" xlink:title="Set the starting parameters.">
<polygon fill="none" stroke="black" points="194.5,-229 194.5,-259 333.5,-259 333.5,-229 194.5,-229"/>
<text text-anchor="start" x="202.5" y="-247" font-family="FreeSans" font-size="10.00">KalmanFitter::setStarting</text>
<text text-anchor="middle" x="264" y="-236" font-family="FreeSans" font-size="10.00">Parameter</text>
</a>
</g>
</g>
<!-- Node1&#45;&gt;Node38 -->
<g id="edge42" class="edge">
<title>Node1&#45;&gt;Node38</title>
<path fill="none" stroke="midnightblue" d="M143.16,-230.16C156.5,-231.7 170.52,-233.32 184.08,-234.89"/>
<polygon fill="midnightblue" stroke="midnightblue" points="184.01,-238.4 194.35,-236.07 184.82,-231.45 184.01,-238.4"/>
</g>
<!-- Node39 -->
<g id="node39" class="node">
<title>Node39</title>
<g id="a_node39"><a xlink:href="../../d6/d2a/classKalmanFilter.html#a511c8165e9c3ad5ee16b6c48ec9ae306" target="_top" xlink:title=" ">
<polygon fill="none" stroke="black" points="399,-152.5 399,-171.5 521,-171.5 521,-152.5 399,-152.5"/>
<text text-anchor="middle" x="460" y="-159.5" font-family="FreeSans" font-size="10.00">KalmanFilter::smooth</text>
</a>
</g>
</g>
<!-- Node1&#45;&gt;Node39 -->
<g id="edge45" class="edge">
<title>Node1&#45;&gt;Node39</title>
<path fill="none" stroke="midnightblue" d="M143.2,-209.07C155.14,-206.98 167.41,-204.88 179,-203 250.37,-191.41 332.21,-179.6 388.9,-171.65"/>
<polygon fill="midnightblue" stroke="midnightblue" points="389.42,-175.11 398.84,-170.26 388.45,-168.18 389.42,-175.11"/>
</g>
<!-- Node41 -->
<g id="node41" class="node">
<title>Node41</title>
<g id="a_node41"><a xlink:href="../../d3/dc9/classKalmanFitter.html#ae154e58fd85842a26842f707dd98a326" target="_top" xlink:title="Update the actual z position of each node according to current fit results.">
<polygon fill="none" stroke="black" points="179,-76.5 179,-95.5 349,-95.5 349,-76.5 179,-76.5"/>
<text text-anchor="middle" x="264" y="-83.5" font-family="FreeSans" font-size="10.00">KalmanFitter::updateAlignment</text>
</a>
</g>
</g>
<!-- Node1&#45;&gt;Node41 -->
<g id="edge56" class="edge">
<title>Node1&#45;&gt;Node41</title>
<path fill="none" stroke="midnightblue" d="M82.73,-206.87C99.83,-182.75 136.54,-135.71 179,-110 186.54,-105.43 194.99,-101.7 203.54,-98.67"/>
<polygon fill="midnightblue" stroke="midnightblue" points="204.77,-101.95 213.2,-95.52 202.61,-95.29 204.77,-101.95"/>
</g>
<!-- Node3 -->
<g id="node3" class="node">
<title>Node3</title>
<g id="a_node3"><a xlink:href="../../d6/d2a/classKalmanFilter.html#a06b2c6aa660f89c5f30e164b0a29512c" target="_top" xlink:title=" ">
<polygon fill="none" stroke="black" points="406.5,-673.5 406.5,-692.5 513.5,-692.5 513.5,-673.5 406.5,-673.5"/>
<text text-anchor="middle" x="460" y="-680.5" font-family="FreeSans" font-size="10.00">KalmanFilter::filter</text>
</a>
</g>
</g>
<!-- Node2&#45;&gt;Node3 -->
<g id="edge2" class="edge">
<title>Node2&#45;&gt;Node3</title>
<path fill="none" stroke="midnightblue" d="M272.61,-449.53C301.75,-486.04 406.63,-617.41 444.9,-665.34"/>
<polygon fill="midnightblue" stroke="midnightblue" points="442.26,-667.64 451.24,-673.28 447.73,-663.28 442.26,-667.64"/>
</g>
<!-- Node17 -->
<g id="node17" class="node">
<title>Node17</title>
<g id="a_node17"><a xlink:href="../../d6/d2a/classKalmanFilter.html#adfaf7ddeefb43919df6aee3f1e2638ae" target="_top" xlink:title="Kalman filter steps.">
<polygon fill="none" stroke="black" points="400.5,-430.5 400.5,-449.5 519.5,-449.5 519.5,-430.5 400.5,-430.5"/>
<text text-anchor="middle" x="460" y="-437.5" font-family="FreeSans" font-size="10.00">KalmanFilter::predict</text>
</a>
</g>
</g>
<!-- Node2&#45;&gt;Node17 -->
<g id="edge16" class="edge">
<title>Node2&#45;&gt;Node17</title>
<path fill="none" stroke="midnightblue" d="M326.12,-440C346.45,-440 369.22,-440 390.1,-440"/>
<polygon fill="midnightblue" stroke="midnightblue" points="390.18,-443.5 400.18,-440 390.18,-436.5 390.18,-443.5"/>
</g>
<!-- Node4 -->
<g id="node4" class="node">
<title>Node4</title>
<g id="a_node4"><a xlink:href="../../d9/db7/classSMatrix.html#a5b825aefb91608b827fbb652501eaecc" target="_top" xlink:title=" ">
<polygon fill="none" stroke="black" points="596,-266.5 596,-285.5 696,-285.5 696,-266.5 596,-266.5"/>
<text text-anchor="middle" x="646" y="-273.5" font-family="FreeSans" font-size="10.00">SMatrix::getABCt</text>
</a>
</g>
</g>
<!-- Node3&#45;&gt;Node4 -->
<g id="edge3" class="edge">
<title>Node3&#45;&gt;Node4</title>
<path fill="none" stroke="midnightblue" d="M464.61,-673.28C476.01,-642.33 511.88,-543.12 535,-459 554.66,-387.46 519.78,-349.67 571,-296 575.4,-291.39 580.75,-287.8 586.53,-285.02"/>
<polygon fill="midnightblue" stroke="midnightblue" points="587.91,-288.23 595.9,-281.28 585.32,-281.73 587.91,-288.23"/>
</g>
<!-- Node5 -->
<g id="node5" class="node">
<title>Node5</title>
<g id="a_node5"><a xlink:href="../../d9/db7/classSMatrix.html#a03a7887eb40e088b798124c6cc6fe526" target="_top" xlink:title=" ">
<polygon fill="none" stroke="black" points="596,-920.5 596,-939.5 696,-939.5 696,-920.5 596,-920.5"/>
<text text-anchor="middle" x="646" y="-927.5" font-family="FreeSans" font-size="10.00">SMatrix::getABtC</text>
</a>
</g>
</g>
<!-- Node3&#45;&gt;Node5 -->
<g id="edge4" class="edge">
<title>Node3&#45;&gt;Node5</title>
<path fill="none" stroke="midnightblue" d="M462.65,-692.57C469.23,-727.64 496.88,-850.29 571,-911 575.6,-914.77 580.86,-917.8 586.41,-920.24"/>
<polygon fill="midnightblue" stroke="midnightblue" points="585.36,-923.58 595.95,-923.8 587.81,-917.02 585.36,-923.58"/>
</g>
<!-- Node6 -->
<g id="node6" class="node">
<title>Node6</title>
<g id="a_node6"><a xlink:href="../../d9/db7/classSMatrix.html#a92895b3c0152de2335f0c60b6ccdc60e" target="_top" xlink:title=" ">
<polygon fill="none" stroke="black" points="596,-882.5 596,-901.5 696,-901.5 696,-882.5 596,-882.5"/>
<text text-anchor="middle" x="646" y="-889.5" font-family="FreeSans" font-size="10.00">SMatrix::getAtBC</text>
</a>
</g>
</g>
<!-- Node3&#45;&gt;Node6 -->
<g id="edge5" class="edge">
<title>Node3&#45;&gt;Node6</title>
<path fill="none" stroke="midnightblue" d="M463.66,-692.69C472.8,-724.06 506,-823.72 571,-873 575.67,-876.54 580.94,-879.43 586.45,-881.78"/>
<polygon fill="midnightblue" stroke="midnightblue" points="585.31,-885.09 595.9,-885.25 587.72,-878.52 585.31,-885.09"/>
</g>
<!-- Node7 -->
<g id="node7" class="node">
<title>Node7</title>
<g id="a_node7"><a xlink:href="../../df/dd0/classNode.html#ab483dc1ccfa5a0dc9ba876ee9a2134c9" target="_top" xlink:title=" ">
<polygon fill="none" stroke="black" points="595.5,-190.5 595.5,-209.5 696.5,-209.5 696.5,-190.5 595.5,-190.5"/>
<text text-anchor="middle" x="646" y="-197.5" font-family="FreeSans" font-size="10.00">Node::getFiltered</text>
</a>
</g>
</g>
<!-- Node3&#45;&gt;Node7 -->
<g id="edge6" class="edge">
<title>Node3&#45;&gt;Node7</title>
<path fill="none" stroke="midnightblue" d="M464.85,-673.35C476.98,-642.58 514.77,-543.86 535,-459 547.5,-406.54 534.87,-259.04 571,-219 575.1,-214.46 580.12,-210.94 585.61,-208.21"/>
<polygon fill="midnightblue" stroke="midnightblue" points="587.22,-211.34 595.18,-204.35 584.6,-204.85 587.22,-211.34"/>
</g>
<!-- Node8 -->
<g id="node8" class="node">
<title>Node8</title>
<g id="a_node8"><a xlink:href="../../df/dd0/classNode.html#a4e6f7c1350b1445ca9b9221cb709dbcb" target="_top" xlink:title=" ">
<polygon fill="none" stroke="black" points="580.5,-844.5 580.5,-863.5 711.5,-863.5 711.5,-844.5 580.5,-844.5"/>
<text text-anchor="middle" x="646" y="-851.5" font-family="FreeSans" font-size="10.00">Node::getMeasurement</text>
</a>
</g>
</g>
<!-- Node3&#45;&gt;Node8 -->
<g id="edge7" class="edge">
<title>Node3&#45;&gt;Node8</title>
<path fill="none" stroke="midnightblue" d="M465.07,-692.61C477.02,-719.62 514.73,-796.68 571,-835 573.94,-837 577.08,-838.79 580.33,-840.39"/>
<polygon fill="midnightblue" stroke="midnightblue" points="579.21,-843.72 589.78,-844.43 581.96,-837.28 579.21,-843.72"/>
</g>
<!-- Node9 -->
<g id="node9" class="node">
<title>Node9</title>
<g id="a_node9"><a xlink:href="../../df/dd0/classNode.html#aba6dd9d4c392f430d1c93d4af381dbaa" target="_top" xlink:title=" ">
<polygon fill="none" stroke="black" points="571,-806.5 571,-825.5 721,-825.5 721,-806.5 571,-806.5"/>
<text text-anchor="middle" x="646" y="-813.5" font-family="FreeSans" font-size="10.00">Node::getMeasurementCov</text>
</a>
</g>
</g>
<!-- Node3&#45;&gt;Node9 -->
<g id="edge8" class="edge">
<title>Node3&#45;&gt;Node9</title>
<path fill="none" stroke="midnightblue" d="M467.44,-692.67C482.66,-714.77 523.23,-769.18 571,-797 574.84,-799.24 578.95,-801.22 583.18,-802.96"/>
<polygon fill="midnightblue" stroke="midnightblue" points="582.01,-806.26 592.61,-806.43 584.43,-799.69 582.01,-806.26"/>
</g>
<!-- Node10 -->
<g id="node10" class="node">
<title>Node10</title>
<g id="a_node10"><a xlink:href="../../df/dd0/classNode.html#a49001f3ff76ccd0091837d333f8698f8" target="_top" xlink:title="Gets.">
<polygon fill="none" stroke="black" points="591,-430.5 591,-449.5 701,-449.5 701,-430.5 591,-430.5"/>
<text text-anchor="middle" x="646" y="-437.5" font-family="FreeSans" font-size="10.00">Node::getPredicted</text>
</a>
</g>
</g>
<!-- Node3&#45;&gt;Node10 -->
<g id="edge9" class="edge">
<title>Node3&#45;&gt;Node10</title>
<path fill="none" stroke="midnightblue" d="M463,-673.49C470.62,-639.68 500.95,-524.15 571,-464 575.84,-459.84 581.42,-456.4 587.29,-453.56"/>
<polygon fill="midnightblue" stroke="midnightblue" points="588.87,-456.69 596.7,-449.55 586.13,-450.25 588.87,-456.69"/>
</g>
<!-- Node11 -->
<g id="node11" class="node">
<title>Node11</title>
<g id="a_node11"><a xlink:href="../../df/dd0/classNode.html#ab276ce7246c8434b058236346dc121fd" target="_top" xlink:title=" ">
<polygon fill="none" stroke="black" points="592.5,-768.5 592.5,-787.5 699.5,-787.5 699.5,-768.5 592.5,-768.5"/>
<text text-anchor="middle" x="646" y="-775.5" font-family="FreeSans" font-size="10.00">Node::getProjector</text>
</a>
</g>
</g>
<!-- Node3&#45;&gt;Node11 -->
<g id="edge10" class="edge">
<title>Node3&#45;&gt;Node11</title>
<path fill="none" stroke="midnightblue" d="M472.06,-692.66C491.02,-708.74 531.51,-740.99 571,-759 576.33,-761.43 582.03,-763.59 587.81,-765.5"/>
<polygon fill="midnightblue" stroke="midnightblue" points="586.97,-768.9 597.56,-768.48 589.02,-762.21 586.97,-768.9"/>
</g>
<!-- Node12 -->
<g id="node12" class="node">
<title>Node12</title>
<g id="a_node12"><a xlink:href="../../d9/db7/classSMatrix.html#ac07d7810681bd4683b433c29187d7a5a" target="_top" xlink:title=" ">
<polygon fill="none" stroke="black" points="757,-267.5 757,-286.5 877,-286.5 877,-267.5 757,-267.5"/>
<text text-anchor="middle" x="817" y="-274.5" font-family="FreeSans" font-size="10.00">SMatrix::invertMatrix</text>
</a>
</g>
</g>
<!-- Node3&#45;&gt;Node12 -->
<g id="edge11" class="edge">
<title>Node3&#45;&gt;Node12</title>
<path fill="none" stroke="midnightblue" d="M463.88,-673.14C473.47,-642.13 507.37,-545.81 571,-498 626.07,-456.62 667.1,-501.89 721,-459 774.84,-416.16 801.5,-334.45 811.36,-296.84"/>
<polygon fill="midnightblue" stroke="midnightblue" points="814.87,-297.23 813.89,-286.68 808.08,-295.54 814.87,-297.23"/>
</g>
<!-- Node13 -->
<g id="node13" class="node">
<title>Node13</title>
<g id="a_node13"><a xlink:href="../../df/dd0/classNode.html#a35fb6b17a2553e4ff684f9cbd1e9a72c" target="_top" xlink:title=" ">
<polygon fill="none" stroke="black" points="592.5,-152.5 592.5,-171.5 699.5,-171.5 699.5,-152.5 592.5,-152.5"/>
<text text-anchor="middle" x="646" y="-159.5" font-family="FreeSans" font-size="10.00">Node::isFilterDone</text>
</a>
</g>
</g>
<!-- Node3&#45;&gt;Node13 -->
<g id="edge12" class="edge">
<title>Node3&#45;&gt;Node13</title>
<path fill="none" stroke="midnightblue" d="M464.92,-673.36C477.26,-642.64 515.63,-544.06 535,-459 548.83,-398.26 529.73,-227.66 571,-181 574.48,-177.06 578.66,-173.89 583.23,-171.34"/>
<polygon fill="midnightblue" stroke="midnightblue" points="584.77,-174.48 592.43,-167.16 581.88,-168.11 584.77,-174.48"/>
</g>
<!-- Node14 -->
<g id="node14" class="node">
<title>Node14</title>
<g id="a_node14"><a xlink:href="../../df/dd0/classNode.html#a85c7247d8b700b6e836479d7666467e4" target="_top" xlink:title=" ">
<polygon fill="none" stroke="black" points="580.5,-654.5 580.5,-673.5 711.5,-673.5 711.5,-654.5 580.5,-654.5"/>
<text text-anchor="middle" x="646" y="-661.5" font-family="FreeSans" font-size="10.00">Node::isPredictionDone</text>
</a>
</g>
</g>
<!-- Node3&#45;&gt;Node14 -->
<g id="edge13" class="edge">
<title>Node3&#45;&gt;Node14</title>
<path fill="none" stroke="midnightblue" d="M513.73,-677.56C531.37,-675.73 551.39,-673.67 570.38,-671.71"/>
<polygon fill="midnightblue" stroke="midnightblue" points="570.91,-675.17 580.5,-670.66 570.19,-668.21 570.91,-675.17"/>
</g>
<!-- Node15 -->
<g id="node15" class="node">
<title>Node15</title>
<g id="a_node15"><a xlink:href="../../df/dd0/classNode.html#a84513468a161f558e0722ad6585e7d2e" target="_top" xlink:title=" ">
<polygon fill="none" stroke="black" points="601,-730.5 601,-749.5 691,-749.5 691,-730.5 601,-730.5"/>
<text text-anchor="middle" x="646" y="-737.5" font-family="FreeSans" font-size="10.00">Node::setChisq</text>
</a>
</g>
</g>
<!-- Node3&#45;&gt;Node15 -->
<g id="edge14" class="edge">
<title>Node3&#45;&gt;Node15</title>
<path fill="none" stroke="midnightblue" d="M486.59,-692.5C508.76,-700.58 541.78,-712.22 571,-721 578.86,-723.36 587.24,-725.69 595.43,-727.87"/>
<polygon fill="midnightblue" stroke="midnightblue" points="594.72,-731.3 605.28,-730.43 596.49,-724.52 594.72,-731.3"/>
</g>
<!-- Node16 -->
<g id="node16" class="node">
<title>Node16</title>
<g id="a_node16"><a xlink:href="../../df/dd0/classNode.html#a4beaaa953c5b36787c115a33b8b22b08" target="_top" xlink:title=" ">
<polygon fill="none" stroke="black" points="589.5,-692.5 589.5,-711.5 702.5,-711.5 702.5,-692.5 589.5,-692.5"/>
<text text-anchor="middle" x="646" y="-699.5" font-family="FreeSans" font-size="10.00">Node::setFilterDone</text>
</a>
</g>
</g>
<!-- Node3&#45;&gt;Node16 -->
<g id="edge15" class="edge">
<title>Node3&#45;&gt;Node16</title>
<path fill="none" stroke="midnightblue" d="M513.73,-688.44C534.17,-690.56 557.8,-693 579.33,-695.22"/>
<polygon fill="midnightblue" stroke="midnightblue" points="579.07,-698.71 589.38,-696.26 579.79,-691.75 579.07,-698.71"/>
</g>
<!-- Node17&#45;&gt;Node10 -->
<g id="edge21" class="edge">
<title>Node17&#45;&gt;Node10</title>
<path fill="none" stroke="midnightblue" d="M519.72,-440C539.16,-440 560.88,-440 580.71,-440"/>
<polygon fill="midnightblue" stroke="midnightblue" points="580.89,-443.5 590.89,-440 580.89,-436.5 580.89,-443.5"/>
</g>
<!-- Node17&#45;&gt;Node14 -->
<g id="edge25" class="edge">
<title>Node17&#45;&gt;Node14</title>
<path fill="none" stroke="midnightblue" d="M463.19,-449.51C471.23,-482.24 502.34,-591.18 571,-645 573.3,-646.8 575.75,-648.44 578.31,-649.92"/>
<polygon fill="midnightblue" stroke="midnightblue" points="576.86,-653.1 587.38,-654.38 579.95,-646.82 576.86,-653.1"/>
</g>
<!-- Node18 -->
<g id="node18" class="node">
<title>Node18</title>
<g id="a_node18"><a xlink:href="../../d1/d3d/classGenFitExtrapolator.html#a7b1a68079d56beae96151d18c5166526" target="_top" xlink:title=" ">
<polygon fill="none" stroke="black" points="592,-305 592,-335 700,-335 700,-305 592,-305"/>
<text text-anchor="start" x="600" y="-323" font-family="FreeSans" font-size="10.00">GenFitExtrapolator</text>
<text text-anchor="middle" x="646" y="-312" font-family="FreeSans" font-size="10.00">::extrapolateTo</text>
</a>
</g>
</g>
<!-- Node17&#45;&gt;Node18 -->
<g id="edge17" class="edge">
<title>Node17&#45;&gt;Node18</title>
<path fill="none" stroke="midnightblue" d="M469.75,-430.26C487.24,-411.32 528.5,-369.28 571,-345 574.71,-342.88 578.63,-340.9 582.64,-339.07"/>
<polygon fill="midnightblue" stroke="midnightblue" points="584.31,-342.16 592.15,-335.04 581.57,-335.72 584.31,-342.16"/>
</g>
<!-- Node19 -->
<g id="node19" class="node">
<title>Node19</title>
<g id="a_node19"><a xlink:href="../../d1/d3d/classGenFitExtrapolator.html#af0f921bf2fe387759c642a9b7c348109" target="_top" xlink:title="Get the final state parameters and covariance.">
<polygon fill="none" stroke="black" points="582,-507 582,-537 710,-537 710,-507 582,-507"/>
<text text-anchor="start" x="590" y="-525" font-family="FreeSans" font-size="10.00">GenFitExtrapolator</text>
<text text-anchor="middle" x="646" y="-514" font-family="FreeSans" font-size="10.00">::getFinalStateWithCov</text>
</a>
</g>
</g>
<!-- Node17&#45;&gt;Node19 -->
<g id="edge18" class="edge">
<title>Node17&#45;&gt;Node19</title>
<path fill="none" stroke="midnightblue" d="M482.47,-449.57C511.66,-462.58 564.52,-486.13 602.03,-502.85"/>
<polygon fill="midnightblue" stroke="midnightblue" points="600.65,-506.07 611.21,-506.94 603.5,-499.67 600.65,-506.07"/>
</g>
<!-- Node22 -->
<g id="node22" class="node">
<title>Node22</title>
<g id="a_node22"><a xlink:href="../../df/dd0/classNode.html#aea3d844fd090737d8981ac1f6bbca3a7" target="_top" xlink:title=" ">
<polygon fill="none" stroke="black" points="587.5,-228.5 587.5,-247.5 704.5,-247.5 704.5,-228.5 587.5,-228.5"/>
<text text-anchor="middle" x="646" y="-235.5" font-family="FreeSans" font-size="10.00">Node::getPropagator</text>
</a>
</g>
</g>
<!-- Node17&#45;&gt;Node22 -->
<g id="edge22" class="edge">
<title>Node17&#45;&gt;Node22</title>
<path fill="none" stroke="midnightblue" d="M463.91,-430.24C473.58,-399.54 507.69,-304.18 571,-257 573.52,-255.12 576.22,-253.42 579.02,-251.89"/>
<polygon fill="midnightblue" stroke="midnightblue" points="580.73,-254.96 588.32,-247.56 577.78,-248.62 580.73,-254.96"/>
</g>
<!-- Node23 -->
<g id="node23" class="node">
<title>Node23</title>
<g id="a_node23"><a xlink:href="../../d1/d3d/classGenFitExtrapolator.html#ac013889a915dded109c6b9fd236b31dd" target="_top" xlink:title="Get the propagator.">
<polygon fill="none" stroke="black" points="592,-556 592,-586 700,-586 700,-556 592,-556"/>
<text text-anchor="start" x="600" y="-574" font-family="FreeSans" font-size="10.00">GenFitExtrapolator</text>
<text text-anchor="middle" x="646" y="-563" font-family="FreeSans" font-size="10.00">::getPropagator</text>
</a>
</g>
</g>
<!-- Node17&#45;&gt;Node23 -->
<g id="edge23" class="edge">
<title>Node17&#45;&gt;Node23</title>
<path fill="none" stroke="midnightblue" d="M468.42,-449.79C484.73,-470.65 525.83,-519.76 571,-547 574.64,-549.2 578.51,-551.22 582.49,-553.07"/>
<polygon fill="midnightblue" stroke="midnightblue" points="581.36,-556.39 591.93,-557.09 584.11,-549.95 581.36,-556.39"/>
</g>
<!-- Node24 -->
<g id="node24" class="node">
<title>Node24</title>
<g id="a_node24"><a xlink:href="../../df/dd0/classNode.html#ab26d80e97604621eab868ebacda71304" target="_top" xlink:title=" ">
<polygon fill="none" stroke="black" points="610.5,-392.5 610.5,-411.5 681.5,-411.5 681.5,-392.5 610.5,-392.5"/>
<text text-anchor="middle" x="646" y="-399.5" font-family="FreeSans" font-size="10.00">Node::getZ</text>
</a>
</g>
</g>
<!-- Node17&#45;&gt;Node24 -->
<g id="edge24" class="edge">
<title>Node17&#45;&gt;Node24</title>
<path fill="none" stroke="midnightblue" d="M507.43,-430.41C535.97,-424.52 572.34,-417.01 600.51,-411.19"/>
<polygon fill="midnightblue" stroke="midnightblue" points="601.41,-414.58 610.49,-409.13 599.99,-407.72 601.41,-414.58"/>
</g>
<!-- Node25 -->
<g id="node25" class="node">
<title>Node25</title>
<g id="a_node25"><a xlink:href="../../d1/d3d/classGenFitExtrapolator.html#af4266f5d426d735721763e75e530cd48" target="_top" xlink:title="Set input initial state parameters.">
<polygon fill="none" stroke="black" points="580,-605 580,-635 712,-635 712,-605 580,-605"/>
<text text-anchor="start" x="588" y="-623" font-family="FreeSans" font-size="10.00">GenFitExtrapolator</text>
<text text-anchor="middle" x="646" y="-612" font-family="FreeSans" font-size="10.00">::setInitialStateWithCov</text>
</a>
</g>
</g>
<!-- Node17&#45;&gt;Node25 -->
<g id="edge26" class="edge">
<title>Node17&#45;&gt;Node25</title>
<path fill="none" stroke="midnightblue" d="M465.12,-449.69C477.21,-476.93 515.25,-554.91 571,-596 573.05,-597.51 575.19,-598.92 577.41,-600.25"/>
<polygon fill="midnightblue" stroke="midnightblue" points="575.8,-603.36 586.27,-604.96 579.08,-597.18 575.8,-603.36"/>
</g>
<!-- Node29 -->
<g id="node29" class="node">
<title>Node29</title>
<g id="a_node29"><a xlink:href="../../df/dd0/classNode.html#a10e8167a975add910020702519aaadb0" target="_top" xlink:title=" ">
<polygon fill="none" stroke="black" points="577.5,-354.5 577.5,-373.5 714.5,-373.5 714.5,-354.5 577.5,-354.5"/>
<text text-anchor="middle" x="646" y="-361.5" font-family="FreeSans" font-size="10.00">Node::setPredictionDone</text>
</a>
</g>
</g>
<!-- Node17&#45;&gt;Node29 -->
<g id="edge30" class="edge">
<title>Node17&#45;&gt;Node29</title>
<path fill="none" stroke="midnightblue" d="M476.87,-430.31C497.78,-417.88 536.04,-396.35 571,-383 577.41,-380.55 584.25,-378.32 591.09,-376.31"/>
<polygon fill="midnightblue" stroke="midnightblue" points="592.36,-379.59 601.05,-373.53 590.48,-372.85 592.36,-379.59"/>
</g>
<!-- Node20 -->
<g id="node20" class="node">
<title>Node20</title>
<g id="a_node20"><a xlink:href="../../d1/d3d/classGenFitExtrapolator.html#a555c962eb4a305b009e3a37069a57c63" target="_top" xlink:title=" ">
<polygon fill="none" stroke="black" points="763,-458 763,-488 871,-488 871,-458 763,-458"/>
<text text-anchor="start" x="771" y="-476" font-family="FreeSans" font-size="10.00">GenFitExtrapolator</text>
<text text-anchor="middle" x="817" y="-465" font-family="FreeSans" font-size="10.00">::convertMPtoSV</text>
</a>
</g>
</g>
<!-- Node19&#45;&gt;Node20 -->
<g id="edge19" class="edge">
<title>Node19&#45;&gt;Node20</title>
<path fill="none" stroke="midnightblue" d="M699.08,-506.9C716.6,-501.82 736.29,-496.11 754.46,-490.84"/>
<polygon fill="midnightblue" stroke="midnightblue" points="755.46,-494.2 764.09,-488.05 753.51,-487.47 755.46,-494.2"/>
</g>
<!-- Node21 -->
<g id="node21" class="node">
<title>Node21</title>
<g id="a_node21"><a xlink:href="../../d1/d3d/classGenFitExtrapolator.html#ad9e40b6808684418add1000bcf45b1c1" target="_top" xlink:title="Tranformation between GenFit and Legacy plane; Abi.">
<polygon fill="none" stroke="black" points="759,-507 759,-537 875,-537 875,-507 759,-507"/>
<text text-anchor="start" x="767" y="-525" font-family="FreeSans" font-size="10.00">GenFitExtrapolator</text>
<text text-anchor="middle" x="817" y="-514" font-family="FreeSans" font-size="10.00">::TRGENFIT2LEGACY</text>
</a>
</g>
</g>
<!-- Node19&#45;&gt;Node21 -->
<g id="edge20" class="edge">
<title>Node19&#45;&gt;Node21</title>
<path fill="none" stroke="midnightblue" d="M710.41,-522C722.97,-522 736.2,-522 748.88,-522"/>
<polygon fill="midnightblue" stroke="midnightblue" points="748.92,-525.5 758.92,-522 748.91,-518.5 748.92,-525.5"/>
</g>
<!-- Node26 -->
<g id="node26" class="node">
<title>Node26</title>
<g id="a_node26"><a xlink:href="../../d1/d3d/classGenFitExtrapolator.html#a665990fee41ea5f21f14b8b8be2123e7" target="_top" xlink:title="Transformation between the state vector and the mom/pos.">
<polygon fill="none" stroke="black" points="763,-654 763,-684 871,-684 871,-654 763,-654"/>
<text text-anchor="start" x="771" y="-672" font-family="FreeSans" font-size="10.00">GenFitExtrapolator</text>
<text text-anchor="middle" x="817" y="-661" font-family="FreeSans" font-size="10.00">::convertSVtoMP</text>
</a>
</g>
</g>
<!-- Node25&#45;&gt;Node26 -->
<g id="edge27" class="edge">
<title>Node25&#45;&gt;Node26</title>
<path fill="none" stroke="midnightblue" d="M699.08,-635.1C716.6,-640.18 736.29,-645.89 754.46,-651.16"/>
<polygon fill="midnightblue" stroke="midnightblue" points="753.51,-654.53 764.09,-653.95 755.46,-647.8 753.51,-654.53"/>
</g>
<!-- Node27 -->
<g id="node27" class="node">
<title>Node27</title>
<g id="a_node27"><a xlink:href="../../d1/d3d/classGenFitExtrapolator.html#a9dac444d8a4c8632bf60968fa5b929c3" target="_top" xlink:title="Set particle type.">
<polygon fill="none" stroke="black" points="763,-605 763,-635 871,-635 871,-605 763,-605"/>
<text text-anchor="start" x="771" y="-623" font-family="FreeSans" font-size="10.00">GenFitExtrapolator</text>
<text text-anchor="middle" x="817" y="-612" font-family="FreeSans" font-size="10.00">::setParticleType</text>
</a>
</g>
</g>
<!-- Node25&#45;&gt;Node27 -->
<g id="edge28" class="edge">
<title>Node25&#45;&gt;Node27</title>
<path fill="none" stroke="midnightblue" d="M712.34,-620C725.53,-620 739.38,-620 752.51,-620"/>
<polygon fill="midnightblue" stroke="midnightblue" points="752.86,-623.5 762.86,-620 752.86,-616.5 752.86,-623.5"/>
</g>
<!-- Node28 -->
<g id="node28" class="node">
<title>Node28</title>
<g id="a_node28"><a xlink:href="../../d1/d3d/classGenFitExtrapolator.html#ab0965ff56ad1562173d50ab1cc150952" target="_top" xlink:title=" ">
<polygon fill="none" stroke="black" points="759,-556 759,-586 875,-586 875,-556 759,-556"/>
<text text-anchor="start" x="767" y="-574" font-family="FreeSans" font-size="10.00">GenFitExtrapolator</text>
<text text-anchor="middle" x="817" y="-563" font-family="FreeSans" font-size="10.00">::TRLEGACY2GENFIT</text>
</a>
</g>
</g>
<!-- Node25&#45;&gt;Node28 -->
<g id="edge29" class="edge">
<title>Node25&#45;&gt;Node28</title>
<path fill="none" stroke="midnightblue" d="M699.08,-604.9C716.6,-599.82 736.29,-594.11 754.46,-588.84"/>
<polygon fill="midnightblue" stroke="midnightblue" points="755.46,-592.2 764.09,-586.05 753.51,-585.47 755.46,-592.2"/>
</g>
<!-- Node32 -->
<g id="node32" class="node">
<title>Node32</title>
<g id="a_node32"><a xlink:href="../../d9/dc3/classKalmanTrack.html#a5131a89f46b93d34ece2b08c442845cc" target="_top" xlink:title=" ">
<polygon fill="none" stroke="black" points="388,-256.5 388,-275.5 532,-275.5 532,-256.5 388,-256.5"/>
<text text-anchor="middle" x="460" y="-263.5" font-family="FreeSans" font-size="10.00">KalmanTrack::getNodeList</text>
</a>
</g>
</g>
<!-- Node31&#45;&gt;Node32 -->
<g id="edge33" class="edge">
<title>Node31&#45;&gt;Node32</title>
<path fill="none" stroke="midnightblue" d="M336.14,-279.93C349.71,-278.39 364.02,-276.77 377.88,-275.2"/>
<polygon fill="midnightblue" stroke="midnightblue" points="378.33,-278.67 387.87,-274.07 377.54,-271.72 378.33,-278.67"/>
</g>
<!-- Node33&#45;&gt;Node7 -->
<g id="edge35" class="edge">
<title>Node33&#45;&gt;Node7</title>
<path fill="none" stroke="midnightblue" d="M484.51,-114.6C499.68,-121.38 519.4,-131.3 535,-143 553.61,-156.96 550.95,-169.2 571,-181 575.53,-183.66 580.43,-185.96 585.47,-187.93"/>
<polygon fill="midnightblue" stroke="midnightblue" points="584.7,-191.37 595.3,-191.35 587,-184.76 584.7,-191.37"/>
</g>
<!-- Node33&#45;&gt;Node13 -->
<g id="edge37" class="edge">
<title>Node33&#45;&gt;Node13</title>
<path fill="none" stroke="midnightblue" d="M486.59,-114.5C508.76,-122.58 541.78,-134.22 571,-143 578.86,-145.36 587.24,-147.69 595.43,-149.87"/>
<polygon fill="midnightblue" stroke="midnightblue" points="594.72,-153.3 605.28,-152.43 596.49,-146.52 594.72,-153.3"/>
</g>
<!-- Node34 -->
<g id="node34" class="node">
<title>Node34</title>
<g id="a_node34"><a xlink:href="../../df/dd0/classNode.html#a385cbcf82382c3ff0e7d347d6e6d6a77" target="_top" xlink:title=" ">
<polygon fill="none" stroke="black" points="589.5,-76.5 589.5,-95.5 702.5,-95.5 702.5,-76.5 589.5,-76.5"/>
<text text-anchor="middle" x="646" y="-83.5" font-family="FreeSans" font-size="10.00">Node::getSmoothed</text>
</a>
</g>
</g>
<!-- Node33&#45;&gt;Node34 -->
<g id="edge36" class="edge">
<title>Node33&#45;&gt;Node34</title>
<path fill="none" stroke="midnightblue" d="M534.51,-97.41C549.26,-95.89 564.66,-94.3 579.12,-92.8"/>
<polygon fill="midnightblue" stroke="midnightblue" points="579.87,-96.24 589.46,-91.74 579.15,-89.28 579.87,-96.24"/>
</g>
<!-- Node35 -->
<g id="node35" class="node">
<title>Node35</title>
<g id="a_node35"><a xlink:href="../../df/dd0/classNode.html#a71252a4e306e228893a72484837ac8d1" target="_top" xlink:title=" ">
<polygon fill="none" stroke="black" points="586.5,-38.5 586.5,-57.5 705.5,-57.5 705.5,-38.5 586.5,-38.5"/>
<text text-anchor="middle" x="646" y="-45.5" font-family="FreeSans" font-size="10.00">Node::isSmoothDone</text>
</a>
</g>
</g>
<!-- Node33&#45;&gt;Node35 -->
<g id="edge38" class="edge">
<title>Node33&#45;&gt;Node35</title>
<path fill="none" stroke="midnightblue" d="M486.59,-95.5C508.76,-87.42 541.78,-75.78 571,-67 578.86,-64.64 587.24,-62.31 595.43,-60.13"/>
<polygon fill="midnightblue" stroke="midnightblue" points="596.49,-63.48 605.28,-57.57 594.72,-56.7 596.49,-63.48"/>
</g>
<!-- Node36 -->
<g id="node36" class="node">
<title>Node36</title>
<g id="a_node36"><a xlink:href="../../df/dd0/classNode.html#acd87507e822cf12e56a26c23064af5fe" target="_top" xlink:title=" ">
<polygon fill="none" stroke="black" points="583,-0.5 583,-19.5 709,-19.5 709,-0.5 583,-0.5"/>
<text text-anchor="middle" x="646" y="-7.5" font-family="FreeSans" font-size="10.00">Node::setSmoothDone</text>
</a>
</g>
</g>
<!-- Node33&#45;&gt;Node36 -->
<g id="edge39" class="edge">
<title>Node33&#45;&gt;Node36</title>
<path fill="none" stroke="midnightblue" d="M472.06,-95.34C491.02,-79.26 531.51,-47.01 571,-29 576.33,-26.57 582.03,-24.41 587.81,-22.5"/>
<polygon fill="midnightblue" stroke="midnightblue" points="589.02,-25.79 597.56,-19.52 586.97,-19.1 589.02,-25.79"/>
</g>
<!-- Node37&#45;&gt;Node7 -->
<g id="edge41" class="edge">
<title>Node37&#45;&gt;Node7</title>
<path fill="none" stroke="midnightblue" d="M535.04,-200C551.67,-200 569.12,-200 585.09,-200"/>
<polygon fill="midnightblue" stroke="midnightblue" points="585.34,-203.5 595.34,-200 585.34,-196.5 585.34,-203.5"/>
</g>
<!-- Node38&#45;&gt;Node32 -->
<g id="edge43" class="edge">
<title>Node38&#45;&gt;Node32</title>
<path fill="none" stroke="midnightblue" d="M333.67,-251.79C347.93,-253.4 363.08,-255.12 377.74,-256.79"/>
<polygon fill="midnightblue" stroke="midnightblue" points="377.47,-260.28 387.8,-257.93 378.26,-253.32 377.47,-260.28"/>
</g>
<!-- Node38&#45;&gt;Node37 -->
<g id="edge44" class="edge">
<title>Node38&#45;&gt;Node37</title>
<path fill="none" stroke="midnightblue" d="M331.22,-228.98C355.99,-223.36 383.74,-217.07 407.03,-211.79"/>
<polygon fill="midnightblue" stroke="midnightblue" points="408.08,-215.14 417.06,-209.51 406.53,-208.31 408.08,-215.14"/>
</g>
<!-- Node39&#45;&gt;Node4 -->
<g id="edge46" class="edge">
<title>Node39&#45;&gt;Node4</title>
<path fill="none" stroke="midnightblue" d="M519.19,-171.54C524.89,-174.02 530.29,-177.12 535,-181 563.83,-204.79 542.17,-233.21 571,-257 575.59,-260.79 580.84,-263.83 586.38,-266.27"/>
<polygon fill="midnightblue" stroke="midnightblue" points="585.32,-269.61 595.91,-269.84 587.78,-263.06 585.32,-269.61"/>
</g>
<!-- Node39&#45;&gt;Node7 -->
<g id="edge49" class="edge">
<title>Node39&#45;&gt;Node7</title>
<path fill="none" stroke="midnightblue" d="M507.43,-171.59C532.15,-176.69 562.74,-183.01 588.79,-188.39"/>
<polygon fill="midnightblue" stroke="midnightblue" points="588.4,-191.89 598.9,-190.48 589.82,-185.03 588.4,-191.89"/>
</g>
<!-- Node39&#45;&gt;Node10 -->
<g id="edge50" class="edge">
<title>Node39&#45;&gt;Node10</title>
<path fill="none" stroke="midnightblue" d="M521.15,-170.6C526.34,-173.26 531.09,-176.67 535,-181 607.26,-261.07 498.74,-340.93 571,-421 574.08,-424.42 577.69,-427.25 581.62,-429.61"/>
<polygon fill="midnightblue" stroke="midnightblue" points="580.14,-432.79 590.67,-434.03 583.22,-426.5 580.14,-432.79"/>
</g>
<!-- Node39&#45;&gt;Node13 -->
<g id="edge53" class="edge">
<title>Node39&#45;&gt;Node13</title>
<path fill="none" stroke="midnightblue" d="M521.25,-162C540.79,-162 562.52,-162 582.24,-162"/>
<polygon fill="midnightblue" stroke="midnightblue" points="582.35,-165.5 592.35,-162 582.35,-158.5 582.35,-165.5"/>
</g>
<!-- Node39&#45;&gt;Node22 -->
<g id="edge51" class="edge">
<title>Node39&#45;&gt;Node22</title>
<path fill="none" stroke="midnightblue" d="M513.43,-171.51C520.95,-173.99 528.37,-177.1 535,-181 555.05,-192.8 550.95,-207.2 571,-219 574.83,-221.26 578.93,-223.25 583.16,-225"/>
<polygon fill="midnightblue" stroke="midnightblue" points="581.98,-228.3 592.57,-228.49 584.41,-221.73 581.98,-228.3"/>
</g>
<!-- Node39&#45;&gt;Node34 -->
<g id="edge52" class="edge">
<title>Node39&#45;&gt;Node34</title>
<path fill="none" stroke="midnightblue" d="M479.89,-152.37C494.86,-144.73 516.3,-133.74 535,-124 551.05,-115.65 554.12,-111.52 571,-105 577.32,-102.56 584.06,-100.34 590.81,-98.34"/>
<polygon fill="midnightblue" stroke="midnightblue" points="591.96,-101.66 600.64,-95.59 590.07,-94.92 591.96,-101.66"/>
</g>
<!-- Node39&#45;&gt;Node35 -->
<g id="edge54" class="edge">
<title>Node39&#45;&gt;Node35</title>
<path fill="none" stroke="midnightblue" d="M487.77,-152.36C502.86,-145.98 521.36,-136.48 535,-124 557.11,-103.78 546.78,-84.64 571,-67 573.68,-65.05 576.54,-63.3 579.53,-61.72"/>
<polygon fill="midnightblue" stroke="midnightblue" points="581.12,-64.84 588.78,-57.52 578.23,-58.47 581.12,-64.84"/>
</g>
<!-- Node39&#45;&gt;Node36 -->
<g id="edge55" class="edge">
<title>Node39&#45;&gt;Node36</title>
<path fill="none" stroke="midnightblue" d="M490.95,-152.46C505.9,-146.38 523.26,-137.14 535,-124 565.09,-90.33 537.35,-59.11 571,-29 572.77,-27.42 574.65,-25.97 576.62,-24.63"/>
<polygon fill="midnightblue" stroke="midnightblue" points="578.75,-27.45 585.75,-19.5 575.32,-21.35 578.75,-27.45"/>
</g>
<!-- Node40 -->
<g id="node40" class="node">
<title>Node40</title>
<g id="a_node40"><a xlink:href="../../d9/db7/classSMatrix.html#a0209d8bd6c377b460a9cda4bc134b37d" target="_top" xlink:title=" ">
<polygon fill="none" stroke="black" points="588.5,-114.5 588.5,-133.5 703.5,-133.5 703.5,-114.5 588.5,-114.5"/>
<text text-anchor="middle" x="646" y="-121.5" font-family="FreeSans" font-size="10.00">SMatrix::getABtCinv</text>
</a>
</g>
</g>
<!-- Node39&#45;&gt;Node40 -->
<g id="edge47" class="edge">
<title>Node39&#45;&gt;Node40</title>
<path fill="none" stroke="midnightblue" d="M507.43,-152.41C532.15,-147.31 562.74,-140.99 588.79,-135.61"/>
<polygon fill="midnightblue" stroke="midnightblue" points="589.82,-138.97 598.9,-133.52 588.4,-132.11 589.82,-138.97"/>
</g>
<!-- Node40&#45;&gt;Node12 -->
<g id="edge48" class="edge">
<title>Node40&#45;&gt;Node12</title>
<path fill="none" stroke="midnightblue" d="M702.26,-133.52C708.89,-135.98 715.32,-139.09 721,-143 764.1,-172.66 794.22,-228.63 807.82,-257.97"/>
<polygon fill="midnightblue" stroke="midnightblue" points="804.8,-259.78 812.08,-267.47 811.19,-256.92 804.8,-259.78"/>
</g>
</g>
</svg>
