<?xml version="1.0" encoding="UTF-8" standalone="no"?>
<!DOCTYPE svg PUBLIC "-//W3C//DTD SVG 1.1//EN"
 "http://www.w3.org/Graphics/SVG/1.1/DTD/svg11.dtd">
<!-- Generated by graphviz version 2.44.0 (0)
 -->
<!-- Title: PHGeomFileImport Pages: 1 -->
<svg width="168pt" height="287pt"
 viewBox="0.00 0.00 168.00 287.00" xmlns="http://www.w3.org/2000/svg" xmlns:xlink="http://www.w3.org/1999/xlink">
<g id="graph0" class="graph" transform="scale(1 1) rotate(0) translate(4 283)">
<title>PHGeomFileImport</title>
<!-- Node1 -->
<g id="node1" class="node">
<title>Node1</title>
<g id="a_node1"><a xlink:title="Fun4All module to import TGeo ROOT Geometry at run time.">
<polygon fill="#bfbfbf" stroke="black" points="0,-0.5 0,-19.5 109,-19.5 109,-0.5 0,-0.5"/>
<text text-anchor="middle" x="54.5" y="-7.5" font-family="FreeSans" font-size="10.00">PHGeomFileImport</text>
</a>
</g>
</g>
<!-- Node2 -->
<g id="node2" class="node">
<title>Node2</title>
<g id="a_node2"><a xlink:href="../../d0/d32/classSubsysReco.html" target="_top" xlink:title=" ">
<polygon fill="none" stroke="black" points="83,-57.5 83,-76.5 158,-76.5 158,-57.5 83,-57.5"/>
<text text-anchor="middle" x="120.5" y="-64.5" font-family="FreeSans" font-size="10.00">SubsysReco</text>
</a>
</g>
</g>
<!-- Node2&#45;&gt;Node1 -->
<g id="edge1" class="edge">
<title>Node2&#45;&gt;Node1</title>
<path fill="none" stroke="midnightblue" d="M102.5,-51C90.45,-40.96 75.03,-28.1 64.96,-19.71"/>
<polygon fill="midnightblue" stroke="midnightblue" points="100.26,-53.69 110.19,-57.41 104.75,-48.32 100.26,-53.69"/>
</g>
<!-- Node3 -->
<g id="node3" class="node">
<title>Node3</title>
<g id="a_node3"><a xlink:href="../../d5/dec/classFun4AllBase.html" target="_top" xlink:title=" ">
<polygon fill="none" stroke="black" points="83,-124.5 83,-143.5 160,-143.5 160,-124.5 83,-124.5"/>
<text text-anchor="middle" x="121.5" y="-131.5" font-family="FreeSans" font-size="10.00">Fun4AllBase</text>
</a>
</g>
</g>
<!-- Node3&#45;&gt;Node2 -->
<g id="edge2" class="edge">
<title>Node3&#45;&gt;Node2</title>
<path fill="none" stroke="midnightblue" d="M121.21,-114.04C121.02,-101.67 120.78,-86.12 120.63,-76.63"/>
<polygon fill="midnightblue" stroke="midnightblue" points="117.71,-114.29 121.37,-124.23 124.71,-114.18 117.71,-114.29"/>
</g>
<!-- Node4 -->
<g id="node4" class="node">
<title>Node4</title>
<g id="a_node4"><a xlink:title=" ">
<polygon fill="none" stroke="#bfbfbf" points="26,-191.5 26,-210.5 91,-210.5 91,-191.5 26,-191.5"/>
<text text-anchor="middle" x="58.5" y="-198.5" font-family="FreeSans" font-size="10.00">std::string</text>
</a>
</g>
</g>
<!-- Node4&#45;&gt;Node1 -->
<g id="edge5" class="edge">
<title>Node4&#45;&gt;Node1</title>
<path fill="none" stroke="#9a32cd" stroke-dasharray="5,2" d="M52.47,-181.59C46.3,-160.72 37.97,-125.62 40.5,-95 42.79,-67.3 49.27,-34.98 52.55,-19.77"/>
<polygon fill="#9a32cd" stroke="#9a32cd" points="49.19,-182.84 55.5,-191.35 55.88,-180.77 49.19,-182.84"/>
<text text-anchor="middle" x="78.5" y="-98" font-family="FreeSans" font-size="10.00"> _geometry_file</text>
</g>
<!-- Node4&#45;&gt;Node3 -->
<g id="edge3" class="edge">
<title>Node4&#45;&gt;Node3</title>
<path fill="none" stroke="#9a32cd" stroke-dasharray="5,2" d="M74.01,-184C86.37,-171.25 103.19,-153.89 113.14,-143.63"/>
<polygon fill="#9a32cd" stroke="#9a32cd" points="71.44,-181.62 67,-191.23 76.47,-186.49 71.44,-181.62"/>
<text text-anchor="middle" x="120" y="-165" font-family="FreeSans" font-size="10.00"> ThisName</text>
</g>
<!-- Node5 -->
<g id="node5" class="node">
<title>Node5</title>
<g id="a_node5"><a xlink:title=" ">
<polygon fill="none" stroke="#bfbfbf" points="6.5,-248.5 6.5,-278.5 110.5,-278.5 110.5,-248.5 6.5,-248.5"/>
<text text-anchor="start" x="14.5" y="-266.5" font-family="FreeSans" font-size="10.00">std::basic_string&lt;</text>
<text text-anchor="middle" x="58.5" y="-255.5" font-family="FreeSans" font-size="10.00"> Char &gt;</text>
</a>
</g>
</g>
<!-- Node5&#45;&gt;Node4 -->
<g id="edge4" class="edge">
<title>Node5&#45;&gt;Node4</title>
<path fill="none" stroke="midnightblue" d="M58.5,-238.35C58.5,-228.51 58.5,-217.78 58.5,-210.54"/>
<polygon fill="midnightblue" stroke="midnightblue" points="55,-238.47 58.5,-248.47 62,-238.47 55,-238.47"/>
</g>
</g>
</svg>
