<?xml version="1.0" encoding="UTF-8" standalone="no"?>
<!DOCTYPE svg PUBLIC "-//W3C//DTD SVG 1.1//EN"
 "http://www.w3.org/Graphics/SVG/1.1/DTD/svg11.dtd">
<!-- Generated by graphviz version 2.36.0 (20140111.2315)
 -->
<!-- Title: Fun4AllOutputManager::EventSelector Pages: 1 -->
<svg width="968pt" height="712pt"
 viewBox="0.00 0.00 968.00 712.00" xmlns="http://www.w3.org/2000/svg" xmlns:xlink="http://www.w3.org/1999/xlink">
<g id="graph0" class="graph" transform="scale(1 1) rotate(0) translate(4 708)">
<title>Fun4AllOutputManager::EventSelector</title>
<!-- Node1 -->
<g id="node1" class="node"><title>Node1</title>
<polygon fill="#bfbfbf" stroke="black" points="0,-245 0,-275 116,-275 116,-245 0,-245"/>
<text text-anchor="start" x="8" y="-263" font-family="FreeSans" font-size="10.00">Fun4AllOutputManager</text>
<text text-anchor="middle" x="58" y="-252" font-family="FreeSans" font-size="10.00">::EventSelector</text>
</g>
<!-- Node2 -->
<g id="node2" class="node"><title>Node2</title>
<g id="a_node2"><a xlink:href="../../da/d29/classFun4AllServer.html#a596005b9bc46ff6f5167378423248271" target="_top" xlink:title="Fun4AllServer::UpdateEvent\lSelector">
<polygon fill="none" stroke="black" points="152.5,-245 152.5,-275 291.5,-275 291.5,-245 152.5,-245"/>
<text text-anchor="start" x="160.5" y="-263" font-family="FreeSans" font-size="10.00">Fun4AllServer::UpdateEvent</text>
<text text-anchor="middle" x="222" y="-252" font-family="FreeSans" font-size="10.00">Selector</text>
</a>
</g>
</g>
<!-- Node1&#45;&gt;Node2 -->
<g id="edge1" class="edge"><title>Node1&#45;&gt;Node2</title>
<path fill="none" stroke="midnightblue" d="M126.18,-260C134.861,-260 143.759,-260 152.462,-260"/>
<polygon fill="midnightblue" stroke="midnightblue" points="126.115,-256.5 116.115,-260 126.115,-263.5 126.115,-256.5"/>
</g>
<!-- Node3 -->
<g id="node3" class="node"><title>Node3</title>
<g id="a_node3"><a xlink:href="../../da/d29/classFun4AllServer.html#a3a4e3f448388cb2e68b085e9038feaf8" target="_top" xlink:title="Fun4AllServer::unregister\lSubsystemsNow">
<polygon fill="none" stroke="black" points="328.5,-274 328.5,-304 453.5,-304 453.5,-274 328.5,-274"/>
<text text-anchor="start" x="336.5" y="-292" font-family="FreeSans" font-size="10.00">Fun4AllServer::unregister</text>
<text text-anchor="middle" x="391" y="-281" font-family="FreeSans" font-size="10.00">SubsystemsNow</text>
</a>
</g>
</g>
<!-- Node2&#45;&gt;Node3 -->
<g id="edge2" class="edge"><title>Node2&#45;&gt;Node3</title>
<path fill="none" stroke="midnightblue" d="M301.913,-273.703C310.836,-275.253 319.83,-276.815 328.484,-278.318"/>
<polygon fill="midnightblue" stroke="midnightblue" points="302.341,-270.225 291.889,-271.963 301.143,-277.122 302.341,-270.225"/>
</g>
<!-- Node27 -->
<g id="node27" class="node"><title>Node27</title>
<g id="a_node27"><a xlink:href="../../da/d29/classFun4AllServer.html#a9e7cd54536d1edb6e5c5cc153c0a036a" target="_top" xlink:title="Fun4AllServer::registerOutput\lManager">
<polygon fill="none" stroke="black" points="652,-185 652,-215 796,-215 796,-185 652,-185"/>
<text text-anchor="start" x="660" y="-203" font-family="FreeSans" font-size="10.00">Fun4AllServer::registerOutput</text>
<text text-anchor="middle" x="724" y="-192" font-family="FreeSans" font-size="10.00">Manager</text>
</a>
</g>
</g>
<!-- Node2&#45;&gt;Node27 -->
<g id="edge27" class="edge"><title>Node2&#45;&gt;Node27</title>
<path fill="none" stroke="midnightblue" d="M301.695,-250.557C397.864,-239.016 559.18,-219.658 651.804,-208.543"/>
<polygon fill="midnightblue" stroke="midnightblue" points="301.248,-247.085 291.736,-251.752 302.082,-254.035 301.248,-247.085"/>
</g>
<!-- Node4 -->
<g id="node4" class="node"><title>Node4</title>
<g id="a_node4"><a xlink:href="../../da/d29/classFun4AllServer.html#a6a65a944dfb40966ace97d35ab1f7942" target="_top" xlink:title="Fun4AllServer::process\l_event">
<polygon fill="none" stroke="black" points="494.5,-274 494.5,-304 611.5,-304 611.5,-274 494.5,-274"/>
<text text-anchor="start" x="502.5" y="-292" font-family="FreeSans" font-size="10.00">Fun4AllServer::process</text>
<text text-anchor="middle" x="553" y="-281" font-family="FreeSans" font-size="10.00">_event</text>
</a>
</g>
</g>
<!-- Node3&#45;&gt;Node4 -->
<g id="edge3" class="edge"><title>Node3&#45;&gt;Node4</title>
<path fill="none" stroke="midnightblue" d="M463.994,-289C474.211,-289 484.604,-289 494.498,-289"/>
<polygon fill="midnightblue" stroke="midnightblue" points="463.86,-285.5 453.86,-289 463.86,-292.5 463.86,-285.5"/>
</g>
<!-- Node26 -->
<g id="node26" class="node"><title>Node26</title>
<g id="a_node26"><a xlink:href="../../da/d29/classFun4AllServer.html#afcfc5583204cac58b4e66a2406187a18" target="_top" xlink:title="Fun4AllServer::BeginRun">
<polygon fill="none" stroke="black" points="490.5,-323.5 490.5,-342.5 615.5,-342.5 615.5,-323.5 490.5,-323.5"/>
<text text-anchor="middle" x="553" y="-330.5" font-family="FreeSans" font-size="10.00">Fun4AllServer::BeginRun</text>
</a>
</g>
</g>
<!-- Node3&#45;&gt;Node26 -->
<g id="edge25" class="edge"><title>Node3&#45;&gt;Node26</title>
<path fill="none" stroke="midnightblue" d="M456.352,-306.697C477.128,-312.41 499.368,-318.526 517.17,-323.422"/>
<polygon fill="midnightblue" stroke="midnightblue" points="457.186,-303.296 446.615,-304.019 455.329,-310.046 457.186,-303.296"/>
</g>
<!-- Node5 -->
<g id="node5" class="node"><title>Node5</title>
<g id="a_node5"><a xlink:href="../../da/d29/classFun4AllServer.html#a94738b092fa009fcea45737d8ea41224" target="_top" xlink:title="Fun4AllServer::process\l_event">
<polygon fill="none" stroke="black" points="665.5,-274 665.5,-304 782.5,-304 782.5,-274 665.5,-274"/>
<text text-anchor="start" x="673.5" y="-292" font-family="FreeSans" font-size="10.00">Fun4AllServer::process</text>
<text text-anchor="middle" x="724" y="-281" font-family="FreeSans" font-size="10.00">_event</text>
</a>
</g>
</g>
<!-- Node4&#45;&gt;Node5 -->
<g id="edge4" class="edge"><title>Node4&#45;&gt;Node5</title>
<path fill="none" stroke="midnightblue" d="M621.995,-289C636.346,-289 651.357,-289 665.286,-289"/>
<polygon fill="midnightblue" stroke="midnightblue" points="621.688,-285.5 611.688,-289 621.688,-292.5 621.688,-285.5"/>
</g>
<!-- Node6 -->
<g id="node6" class="node"><title>Node6</title>
<g id="a_node6"><a xlink:href="../../da/d29/classFun4AllServer.html#a11bbc8b2f53bc06e0b05ee202dd6372a" target="_top" xlink:title="run n events (0 means up to end of file) ">
<polygon fill="none" stroke="black" points="676,-323.5 676,-342.5 772,-342.5 772,-323.5 676,-323.5"/>
<text text-anchor="middle" x="724" y="-330.5" font-family="FreeSans" font-size="10.00">Fun4AllServer::run</text>
</a>
</g>
</g>
<!-- Node4&#45;&gt;Node6 -->
<g id="edge5" class="edge"><title>Node4&#45;&gt;Node6</title>
<path fill="none" stroke="midnightblue" d="M621.415,-306.552C643.616,-312.332 667.46,-318.54 686.464,-323.488"/>
<polygon fill="midnightblue" stroke="midnightblue" points="622.247,-303.152 611.688,-304.019 620.483,-309.926 622.247,-303.152"/>
</g>
<!-- Node7 -->
<g id="node7" class="node"><title>Node7</title>
<g id="a_node7"><a xlink:href="../../d2/d24/Fun4E1039Shielding_8C.html#a42592782dd55d6e219305ff678a00dc2" target="_top" xlink:title="Fun4E1039Shielding">
<polygon fill="none" stroke="black" points="843.5,-570.5 843.5,-589.5 948.5,-589.5 948.5,-570.5 843.5,-570.5"/>
<text text-anchor="middle" x="896" y="-577.5" font-family="FreeSans" font-size="10.00">Fun4E1039Shielding</text>
</a>
</g>
</g>
<!-- Node6&#45;&gt;Node7 -->
<g id="edge6" class="edge"><title>Node6&#45;&gt;Node7</title>
<path fill="none" stroke="midnightblue" d="M728.672,-353.001C737.845,-397.233 765.946,-503.941 832,-561 836.496,-564.883 841.764,-567.973 847.306,-570.431"/>
<polygon fill="midnightblue" stroke="midnightblue" points="732.058,-352.08 726.694,-342.944 725.189,-353.431 732.058,-352.08"/>
</g>
<!-- Node8 -->
<g id="node8" class="node"><title>Node8</title>
<g id="a_node8"><a xlink:href="../../d1/da2/E1039Shielding_2int__run_8C.html#a088590a1a5b93b904ba076de8ca1ef82" target="_top" xlink:title="int_run">
<polygon fill="none" stroke="black" points="873,-532.5 873,-551.5 919,-551.5 919,-532.5 873,-532.5"/>
<text text-anchor="middle" x="896" y="-539.5" font-family="FreeSans" font-size="10.00">int_run</text>
</a>
</g>
</g>
<!-- Node6&#45;&gt;Node8 -->
<g id="edge7" class="edge"><title>Node6&#45;&gt;Node8</title>
<path fill="none" stroke="midnightblue" d="M730.559,-352.495C742.534,-390.964 774.453,-476.899 832,-523 843.68,-532.357 859.903,-537.113 872.961,-539.526"/>
<polygon fill="midnightblue" stroke="midnightblue" points="733.81,-351.151 727.59,-342.574 727.104,-353.158 733.81,-351.151"/>
</g>
<!-- Node9 -->
<g id="node9" class="node"><title>Node9</title>
<g id="a_node9"><a xlink:href="../../d6/d6a/Fun4HodoAccGap_8C.html#a7aaa0687f144d5e7b417d7e9ac5f36da" target="_top" xlink:title="Fun4HodoAccGap">
<polygon fill="none" stroke="black" points="847.5,-494.5 847.5,-513.5 944.5,-513.5 944.5,-494.5 847.5,-494.5"/>
<text text-anchor="middle" x="896" y="-501.5" font-family="FreeSans" font-size="10.00">Fun4HodoAccGap</text>
</a>
</g>
</g>
<!-- Node6&#45;&gt;Node9 -->
<g id="edge8" class="edge"><title>Node6&#45;&gt;Node9</title>
<path fill="none" stroke="midnightblue" d="M733.299,-352.122C748.274,-384.38 782.886,-449.552 832,-485 837.373,-488.878 843.545,-491.974 849.878,-494.443"/>
<polygon fill="midnightblue" stroke="midnightblue" points="736.435,-350.561 729.134,-342.884 730.054,-353.439 736.435,-350.561"/>
</g>
<!-- Node10 -->
<g id="node10" class="node"><title>Node10</title>
<g id="a_node10"><a xlink:href="../../d9/dfb/Fun4PrgTrkDev_8C.html#a5f65e7394cb50b6f7d7e12ba4815b2c6" target="_top" xlink:title="Fun4PrgTrkDev">
<polygon fill="none" stroke="black" points="853.5,-456.5 853.5,-475.5 938.5,-475.5 938.5,-456.5 853.5,-456.5"/>
<text text-anchor="middle" x="896" y="-463.5" font-family="FreeSans" font-size="10.00">Fun4PrgTrkDev</text>
</a>
</g>
</g>
<!-- Node6&#45;&gt;Node10 -->
<g id="edge9" class="edge"><title>Node6&#45;&gt;Node10</title>
<path fill="none" stroke="midnightblue" d="M737.005,-350.781C754.839,-375.855 790.701,-421.395 832,-447 838.505,-451.033 845.921,-454.257 853.324,-456.818"/>
<polygon fill="midnightblue" stroke="midnightblue" points="739.858,-348.753 731.273,-342.544 734.112,-352.751 739.858,-348.753"/>
</g>
<!-- Node11 -->
<g id="node11" class="node"><title>Node11</title>
<g id="a_node11"><a xlink:href="../../d9/de0/Fun4All__G4__BNL_8C.html#a62a558c2bb73d1be82a65b16f52ce2e0" target="_top" xlink:title="Fun4All_G4_BNL">
<polygon fill="none" stroke="black" points="849.5,-190.5 849.5,-209.5 942.5,-209.5 942.5,-190.5 849.5,-190.5"/>
<text text-anchor="middle" x="896" y="-197.5" font-family="FreeSans" font-size="10.00">Fun4All_G4_BNL</text>
</a>
</g>
</g>
<!-- Node6&#45;&gt;Node11 -->
<g id="edge10" class="edge"><title>Node6&#45;&gt;Node11</title>
<path fill="none" stroke="midnightblue" d="M781.735,-322.448C786.927,-319.935 791.803,-316.831 796,-313 829.042,-282.841 799.236,-249.461 832,-219 836.936,-214.411 842.944,-210.927 849.266,-208.284"/>
<polygon fill="midnightblue" stroke="midnightblue" points="780.064,-319.35 772.124,-326.365 782.706,-325.832 780.064,-319.35"/>
</g>
<!-- Node12 -->
<g id="node12" class="node"><title>Node12</title>
<g id="a_node12"><a xlink:href="../../de/dad/Fun4All__G4__BNL__R1_8C.html#a361be596f3554cfa3d0fc26346c50c31" target="_top" xlink:title="Fun4All_G4_BNL_R1">
<polygon fill="none" stroke="black" points="841,-152.5 841,-171.5 951,-171.5 951,-152.5 841,-152.5"/>
<text text-anchor="middle" x="896" y="-159.5" font-family="FreeSans" font-size="10.00">Fun4All_G4_BNL_R1</text>
</a>
</g>
</g>
<!-- Node6&#45;&gt;Node12 -->
<g id="edge11" class="edge"><title>Node6&#45;&gt;Node12</title>
<path fill="none" stroke="midnightblue" d="M781.529,-323.171C786.875,-320.526 791.841,-317.194 796,-313 838.819,-269.823 789.578,-224.568 832,-181 835.746,-177.153 840.24,-174.078 845.081,-171.622"/>
<polygon fill="midnightblue" stroke="midnightblue" points="780.156,-319.951 772.248,-327.003 782.827,-326.421 780.156,-319.951"/>
</g>
<!-- Node13 -->
<g id="node13" class="node"><title>Node13</title>
<g id="a_node13"><a xlink:href="../../d1/d24/Fun4All__G4__E1039_8C.html#ad81863c21df83a735c57713bc9ec59b1" target="_top" xlink:title="Fun4All_G4_E1039">
<polygon fill="none" stroke="black" points="846,-114.5 846,-133.5 946,-133.5 946,-114.5 846,-114.5"/>
<text text-anchor="middle" x="896" y="-121.5" font-family="FreeSans" font-size="10.00">Fun4All_G4_E1039</text>
</a>
</g>
</g>
<!-- Node6&#45;&gt;Node13 -->
<g id="edge12" class="edge"><title>Node6&#45;&gt;Node13</title>
<path fill="none" stroke="midnightblue" d="M781.555,-323.52C786.94,-320.814 791.907,-317.372 796,-313 848.782,-256.62 779.737,-199.861 832,-143 835.865,-138.795 840.624,-135.507 845.78,-132.939"/>
<polygon fill="midnightblue" stroke="midnightblue" points="780.072,-320.346 772.178,-327.413 782.756,-326.811 780.072,-320.346"/>
</g>
<!-- Node14 -->
<g id="node14" class="node"><title>Node14</title>
<g id="a_node14"><a xlink:href="../../de/d10/Fun4All__G4__E1039__R1_8C.html#aa484b834b55e3114dfd4cd82dcd11831" target="_top" xlink:title="Fun4All_G4_E1039_R1">
<polygon fill="none" stroke="black" points="837.5,-76.5 837.5,-95.5 954.5,-95.5 954.5,-76.5 837.5,-76.5"/>
<text text-anchor="middle" x="896" y="-83.5" font-family="FreeSans" font-size="10.00">Fun4All_G4_E1039_R1</text>
</a>
</g>
</g>
<!-- Node6&#45;&gt;Node14 -->
<g id="edge13" class="edge"><title>Node6&#45;&gt;Node14</title>
<path fill="none" stroke="midnightblue" d="M781.5,-323.783C786.94,-321.033 791.934,-317.508 796,-313 858.83,-243.327 769.811,-175.246 832,-105 835.408,-101.151 839.564,-98.0678 844.1,-95.6005"/>
<polygon fill="midnightblue" stroke="midnightblue" points="779.906,-320.655 772.009,-327.718 782.587,-327.121 779.906,-320.655"/>
</g>
<!-- Node15 -->
<g id="node15" class="node"><title>Node15</title>
<g id="a_node15"><a xlink:href="../../df/d98/Fun4All__G4__E1039__R2_8C.html#a0cc5938b98723b2d5216049aad7edb01" target="_top" xlink:title="Fun4All_G4_E1039_R2">
<polygon fill="none" stroke="black" points="837.5,-38.5 837.5,-57.5 954.5,-57.5 954.5,-38.5 837.5,-38.5"/>
<text text-anchor="middle" x="896" y="-45.5" font-family="FreeSans" font-size="10.00">Fun4All_G4_E1039_R2</text>
</a>
</g>
</g>
<!-- Node6&#45;&gt;Node15 -->
<g id="edge14" class="edge"><title>Node6&#45;&gt;Node15</title>
<path fill="none" stroke="midnightblue" d="M781.617,-323.888C787.036,-321.119 791.993,-317.561 796,-313 868.924,-229.983 759.84,-150.682 832,-67 835.357,-63.1067 839.481,-59.9951 843.998,-57.5106"/>
<polygon fill="midnightblue" stroke="midnightblue" points="780.028,-320.759 772.149,-327.843 782.725,-327.218 780.028,-320.759"/>
</g>
<!-- Node16 -->
<g id="node16" class="node"><title>Node16</title>
<g id="a_node16"><a xlink:href="../../d5/db4/Fun4All__Test_8C.html#ae69a57ea66fbed58544200f95796a66f" target="_top" xlink:title="Fun4All_Test">
<polygon fill="none" stroke="black" points="859,-0.5 859,-19.5 933,-19.5 933,-0.5 859,-0.5"/>
<text text-anchor="middle" x="896" y="-7.5" font-family="FreeSans" font-size="10.00">Fun4All_Test</text>
</a>
</g>
</g>
<!-- Node6&#45;&gt;Node16 -->
<g id="edge15" class="edge"><title>Node6&#45;&gt;Node16</title>
<path fill="none" stroke="midnightblue" d="M781.705,-323.964C787.108,-321.181 792.037,-317.599 796,-313 879.046,-216.608 749.842,-126.15 832,-29 838.787,-20.9748 848.832,-16.2639 858.917,-13.5216"/>
<polygon fill="midnightblue" stroke="midnightblue" points="780.118,-320.835 772.253,-327.934 782.828,-327.289 780.118,-320.835"/>
</g>
<!-- Node17 -->
<g id="node17" class="node"><title>Node17</title>
<g id="a_node17"><a xlink:href="../../db/d7c/Fun4DumpGeom_8C.html#ac063d1f79534ea7be7f5e9a08e247c30" target="_top" xlink:title="Fun4kDumpGeom">
<polygon fill="none" stroke="black" points="848.5,-418.5 848.5,-437.5 943.5,-437.5 943.5,-418.5 848.5,-418.5"/>
<text text-anchor="middle" x="896" y="-425.5" font-family="FreeSans" font-size="10.00">Fun4kDumpGeom</text>
</a>
</g>
</g>
<!-- Node6&#45;&gt;Node17 -->
<g id="edge16" class="edge"><title>Node6&#45;&gt;Node17</title>
<path fill="none" stroke="midnightblue" d="M743.662,-349.142C764.122,-366.122 798.515,-392.607 832,-409 839.593,-412.717 848.06,-415.873 856.262,-418.481"/>
<polygon fill="midnightblue" stroke="midnightblue" points="745.69,-346.275 735.789,-342.504 741.178,-351.626 745.69,-346.275"/>
</g>
<!-- Node18 -->
<g id="node18" class="node"><title>Node18</title>
<g id="a_node18"><a xlink:href="../../dd/d7d/Fun4kTracker_8C.html#abe7052288e4678d0346333383ad821ff" target="_top" xlink:title="Fun4kTracker">
<polygon fill="none" stroke="black" points="857.5,-380.5 857.5,-399.5 934.5,-399.5 934.5,-380.5 857.5,-380.5"/>
<text text-anchor="middle" x="896" y="-387.5" font-family="FreeSans" font-size="10.00">Fun4kTracker</text>
</a>
</g>
</g>
<!-- Node6&#45;&gt;Node18 -->
<g id="edge17" class="edge"><title>Node6&#45;&gt;Node18</title>
<path fill="none" stroke="midnightblue" d="M760.496,-346.091C781.256,-353.626 808.016,-363.13 832,-371 841.769,-374.206 852.456,-377.506 862.208,-380.438"/>
<polygon fill="midnightblue" stroke="midnightblue" points="761.42,-342.703 750.826,-342.566 759.022,-349.279 761.42,-342.703"/>
</g>
<!-- Node19 -->
<g id="node19" class="node"><title>Node19</title>
<g id="a_node19"><a xlink:href="../../d9/d8c/Fun4ReadMySql_8C.html#a82110168fa15d41b073c27eeadfc0ff3" target="_top" xlink:title="Fun4ReadMySql">
<polygon fill="none" stroke="black" points="852,-342.5 852,-361.5 940,-361.5 940,-342.5 852,-342.5"/>
<text text-anchor="middle" x="896" y="-349.5" font-family="FreeSans" font-size="10.00">Fun4ReadMySql</text>
</a>
</g>
</g>
<!-- Node6&#45;&gt;Node19 -->
<g id="edge18" class="edge"><title>Node6&#45;&gt;Node19</title>
<path fill="none" stroke="midnightblue" d="M782.557,-339.433C805.271,-341.971 830.913,-344.837 851.968,-347.191"/>
<polygon fill="midnightblue" stroke="midnightblue" points="782.681,-335.925 772.354,-338.293 781.904,-342.882 782.681,-335.925"/>
</g>
<!-- Node20 -->
<g id="node20" class="node"><title>Node20</title>
<g id="a_node20"><a xlink:href="../../d6/d4c/Fun4SeaQuest_8C.html#a81bffd149f5c71602cb40eb0f45019c3" target="_top" xlink:title="Fun4SeaQuest">
<polygon fill="none" stroke="black" points="855,-304.5 855,-323.5 937,-323.5 937,-304.5 855,-304.5"/>
<text text-anchor="middle" x="896" y="-311.5" font-family="FreeSans" font-size="10.00">Fun4SeaQuest</text>
</a>
</g>
</g>
<!-- Node6&#45;&gt;Node20 -->
<g id="edge19" class="edge"><title>Node6&#45;&gt;Node20</title>
<path fill="none" stroke="midnightblue" d="M782.33,-326.593C806.13,-323.933 833.178,-320.909 854.807,-318.492"/>
<polygon fill="midnightblue" stroke="midnightblue" points="781.904,-323.118 772.354,-327.707 782.681,-330.075 781.904,-323.118"/>
</g>
<!-- Node21 -->
<g id="node21" class="node"><title>Node21</title>
<g id="a_node21"><a xlink:href="../../d7/d65/e1039-core_2macros_2Fun4Sim_8C.html#a5e9276116ae0064f58b288a1e0e4e3db" target="_top" xlink:title="Fun4Sim">
<polygon fill="none" stroke="black" points="868,-266.5 868,-285.5 924,-285.5 924,-266.5 868,-266.5"/>
<text text-anchor="middle" x="896" y="-273.5" font-family="FreeSans" font-size="10.00">Fun4Sim</text>
</a>
</g>
</g>
<!-- Node6&#45;&gt;Node21 -->
<g id="edge20" class="edge"><title>Node6&#45;&gt;Node21</title>
<path fill="none" stroke="midnightblue" d="M773.867,-320.552C781.357,-318.266 788.941,-315.731 796,-313 812.684,-306.546 815.376,-301.607 832,-295 843.572,-290.401 856.711,-286.274 867.985,-283.051"/>
<polygon fill="midnightblue" stroke="midnightblue" points="772.738,-317.235 764.127,-323.407 774.708,-323.953 772.738,-317.235"/>
</g>
<!-- Node22 -->
<g id="node22" class="node"><title>Node22</title>
<g id="a_node22"><a xlink:href="../../de/d48/Fun4TestAnalyzer_8C.html#af993f3ce438e5ebcb52b97e41124a3db" target="_top" xlink:title="Fun4TestAnalyzer">
<polygon fill="none" stroke="black" points="848.5,-684.5 848.5,-703.5 943.5,-703.5 943.5,-684.5 848.5,-684.5"/>
<text text-anchor="middle" x="896" y="-691.5" font-family="FreeSans" font-size="10.00">Fun4TestAnalyzer</text>
</a>
</g>
</g>
<!-- Node6&#45;&gt;Node22 -->
<g id="edge21" class="edge"><title>Node6&#45;&gt;Node22</title>
<path fill="none" stroke="midnightblue" d="M725.119,-352.866C726.573,-411.071 738.936,-582.89 832,-675 836.628,-679.581 842.319,-683.063 848.369,-685.71"/>
<polygon fill="midnightblue" stroke="midnightblue" points="728.617,-352.738 724.953,-342.797 721.618,-352.854 728.617,-352.738"/>
</g>
<!-- Node23 -->
<g id="node23" class="node"><title>Node23</title>
<g id="a_node23"><a xlink:href="../../df/d51/Fun4All__ExportGeom_8C.html#a582925c51bad38d562cf19e71211adfd" target="_top" xlink:title="get geometry from DST file and output TGeoManager ROOT files or other formats of geometry files ...">
<polygon fill="none" stroke="black" points="842,-646.5 842,-665.5 950,-665.5 950,-646.5 842,-646.5"/>
<text text-anchor="middle" x="896" y="-653.5" font-family="FreeSans" font-size="10.00">Fun4All_ExportGeom</text>
</a>
</g>
</g>
<!-- Node6&#45;&gt;Node23 -->
<g id="edge22" class="edge"><title>Node6&#45;&gt;Node23</title>
<path fill="none" stroke="midnightblue" d="M726.013,-352.764C729.852,-406.516 747.955,-556.696 832,-637 836.047,-640.867 840.853,-643.95 845.979,-646.407"/>
<polygon fill="midnightblue" stroke="midnightblue" points="729.493,-352.319 725.378,-342.555 722.506,-352.753 729.493,-352.319"/>
</g>
<!-- Node24 -->
<g id="node24" class="node"><title>Node24</title>
<g id="a_node24"><a xlink:href="../../d9/d0f/Fun4All__ImportGeom_8C.html#a3388968a8dae60e9eb62b1126f747b6a" target="_top" xlink:title="Read in a Geometry file, and output DST and ROOT TGeo files. ">
<polygon fill="none" stroke="black" points="841.5,-228.5 841.5,-247.5 950.5,-247.5 950.5,-228.5 841.5,-228.5"/>
<text text-anchor="middle" x="896" y="-235.5" font-family="FreeSans" font-size="10.00">Fun4All_ImportGeom</text>
</a>
</g>
</g>
<!-- Node6&#45;&gt;Node24 -->
<g id="edge23" class="edge"><title>Node6&#45;&gt;Node24</title>
<path fill="none" stroke="midnightblue" d="M781.65,-321.225C786.746,-318.951 791.625,-316.237 796,-313 819.785,-295.401 808.377,-274.816 832,-257 837.108,-253.148 842.995,-250.072 849.077,-247.617"/>
<polygon fill="midnightblue" stroke="midnightblue" points="780.355,-317.974 772.307,-324.864 782.895,-324.496 780.355,-317.974"/>
</g>
<!-- Node25 -->
<g id="node25" class="node"><title>Node25</title>
<g id="a_node25"><a xlink:href="../../d6/deb/PHGeom__DSTInspection_8C.html#a8a06a40e2950cd31dda512c040049cd0" target="_top" xlink:title="PHGeom_DSTInspection">
<polygon fill="none" stroke="black" points="832.5,-608.5 832.5,-627.5 959.5,-627.5 959.5,-608.5 832.5,-608.5"/>
<text text-anchor="middle" x="896" y="-615.5" font-family="FreeSans" font-size="10.00">PHGeom_DSTInspection</text>
</a>
</g>
</g>
<!-- Node6&#45;&gt;Node25 -->
<g id="edge24" class="edge"><title>Node6&#45;&gt;Node25</title>
<path fill="none" stroke="midnightblue" d="M727.162,-352.888C733.577,-402.083 757.006,-530.437 832,-599 836.216,-602.854 841.188,-605.928 846.46,-608.378"/>
<polygon fill="midnightblue" stroke="midnightblue" points="730.6,-352.164 725.929,-342.654 723.65,-353.001 730.6,-352.164"/>
</g>
<!-- Node26&#45;&gt;Node6 -->
<g id="edge26" class="edge"><title>Node26&#45;&gt;Node6</title>
<path fill="none" stroke="midnightblue" d="M626.303,-333C643.075,-333 660.501,-333 675.864,-333"/>
<polygon fill="midnightblue" stroke="midnightblue" points="625.97,-329.5 615.97,-333 625.97,-336.5 625.97,-329.5"/>
</g>
<!-- Node27&#45;&gt;Node11 -->
<g id="edge28" class="edge"><title>Node27&#45;&gt;Node11</title>
<path fill="none" stroke="midnightblue" d="M806.312,-200C821.114,-200 836.065,-200 849.366,-200"/>
<polygon fill="midnightblue" stroke="midnightblue" points="806.11,-196.5 796.11,-200 806.11,-203.5 806.11,-196.5"/>
</g>
<!-- Node27&#45;&gt;Node12 -->
<g id="edge29" class="edge"><title>Node27&#45;&gt;Node12</title>
<path fill="none" stroke="midnightblue" d="M802.239,-182.735C819.429,-178.892 837.046,-174.954 852.246,-171.557"/>
<polygon fill="midnightblue" stroke="midnightblue" points="801.184,-179.384 792.189,-184.981 802.711,-186.216 801.184,-179.384"/>
</g>
<!-- Node27&#45;&gt;Node13 -->
<g id="edge30" class="edge"><title>Node27&#45;&gt;Node13</title>
<path fill="none" stroke="midnightblue" d="M758.547,-179.93C779.23,-168.117 806.576,-153.486 832,-143 840.554,-139.472 850.003,-136.274 858.923,-133.551"/>
<polygon fill="midnightblue" stroke="midnightblue" points="756.738,-176.933 749.831,-184.967 760.24,-182.994 756.738,-176.933"/>
</g>
<!-- Node27&#45;&gt;Node14 -->
<g id="edge31" class="edge"><title>Node27&#45;&gt;Node14</title>
<path fill="none" stroke="midnightblue" d="M744.77,-177.526C764.788,-156.057 797.62,-124.208 832,-105 838.782,-101.211 846.406,-98.0945 853.946,-95.5604"/>
<polygon fill="midnightblue" stroke="midnightblue" points="742.169,-175.184 737.996,-184.923 747.331,-179.912 742.169,-175.184"/>
</g>
<!-- Node27&#45;&gt;Node15 -->
<g id="edge32" class="edge"><title>Node27&#45;&gt;Node15</title>
<path fill="none" stroke="midnightblue" d="M738.242,-175.822C755.824,-145.939 789.648,-95.5483 832,-67 837.684,-63.1687 844.164,-60.0897 850.755,-57.6207"/>
<polygon fill="midnightblue" stroke="midnightblue" points="735.06,-174.336 733.114,-184.75 741.13,-177.822 735.06,-174.336"/>
</g>
<!-- Node27&#45;&gt;Node16 -->
<g id="edge33" class="edge"><title>Node27&#45;&gt;Node16</title>
<path fill="none" stroke="midnightblue" d="M733.87,-175.312C748.508,-138.07 781.249,-67.7646 832,-29 839.808,-23.0363 849.479,-18.9352 858.882,-16.1184"/>
<polygon fill="midnightblue" stroke="midnightblue" points="730.512,-174.295 730.222,-184.886 737.054,-176.788 730.512,-174.295"/>
</g>
<!-- Node27&#45;&gt;Node19 -->
<g id="edge34" class="edge"><title>Node27&#45;&gt;Node19</title>
<path fill="none" stroke="midnightblue" d="M753.368,-221.558C767.34,-233.116 783.767,-248.207 796,-264 817.181,-291.346 805.354,-310.945 832,-333 837.72,-337.735 844.597,-341.29 851.675,-343.96"/>
<polygon fill="midnightblue" stroke="midnightblue" points="755.454,-218.744 745.476,-215.183 751.055,-224.189 755.454,-218.744"/>
</g>
<!-- Node27&#45;&gt;Node20 -->
<g id="edge35" class="edge"><title>Node27&#45;&gt;Node20</title>
<path fill="none" stroke="midnightblue" d="M749.956,-222.394C780.826,-250.061 829.636,-293.679 832,-295 839.081,-298.956 847.08,-302.179 854.944,-304.772"/>
<polygon fill="midnightblue" stroke="midnightblue" points="751.937,-219.47 742.155,-215.4 747.265,-224.682 751.937,-219.47"/>
</g>
<!-- Node27&#45;&gt;Node21 -->
<g id="edge36" class="edge"><title>Node27&#45;&gt;Node21</title>
<path fill="none" stroke="midnightblue" d="M758.547,-220.07C779.23,-231.883 806.576,-246.514 832,-257 843.512,-261.748 856.642,-265.897 867.925,-269.097"/>
<polygon fill="midnightblue" stroke="midnightblue" points="760.24,-217.006 749.831,-215.033 756.738,-223.067 760.24,-217.006"/>
</g>
<!-- Node27&#45;&gt;Node24 -->
<g id="edge37" class="edge"><title>Node27&#45;&gt;Node24</title>
<path fill="none" stroke="midnightblue" d="M802.239,-217.265C819.429,-221.108 837.046,-225.046 852.246,-228.443"/>
<polygon fill="midnightblue" stroke="midnightblue" points="802.711,-213.784 792.189,-215.019 801.184,-220.616 802.711,-213.784"/>
</g>
</g>
</svg>
