<?xml version="1.0" encoding="UTF-8" standalone="no"?>
<!DOCTYPE svg PUBLIC "-//W3C//DTD SVG 1.1//EN"
 "http://www.w3.org/Graphics/SVG/1.1/DTD/svg11.dtd">
<!-- Generated by graphviz version 2.30.1 (20180413.0232)
 -->
<!-- Title: Fun4MainDaq Pages: 1 -->
<svg width="856pt" height="1534pt"
 viewBox="0.00 0.00 856.00 1534.00" xmlns="http://www.w3.org/2000/svg" xmlns:xlink="http://www.w3.org/1999/xlink">
<g id="graph0" class="graph" transform="scale(1 1) rotate(0) translate(4 1530)">
<title>Fun4MainDaq</title>
<!-- Node1 -->
<g id="node1" class="node"><title>Node1</title>
<polygon fill="#bfbfbf" stroke="black" points="0.5,-555.5 0.5,-574.5 77.5,-574.5 77.5,-555.5 0.5,-555.5"/>
<text text-anchor="middle" x="39" y="-562.5" font-family="FreeSans" font-size="10.00">Fun4MainDaq</text>
</g>
<!-- Node2 -->
<g id="node2" class="node"><title>Node2</title>
<g id="a_node2"><a xlink:href="../../d3/d97/classFun4AllEVIOInputManager.html#ab323cb4e28ce2307e8d693db1b18caec" target="_top" xlink:title="Fun4AllEVIOInputManager\l::DirParam">
<polygon fill="none" stroke="black" points="129.5,-1496 129.5,-1526 260.5,-1526 260.5,-1496 129.5,-1496"/>
<text text-anchor="start" x="137.5" y="-1514" font-family="FreeSans" font-size="10.00">Fun4AllEVIOInputManager</text>
<text text-anchor="middle" x="195" y="-1503" font-family="FreeSans" font-size="10.00">::DirParam</text>
</a>
</g>
</g>
<!-- Node1&#45;&gt;Node2 -->
<g id="edge1" class="edge"><title>Node1&#45;&gt;Node2</title>
<path fill="none" stroke="midnightblue" d="M40.1605,-574.681C41.7849,-667.907 56.408,-1404.66 114,-1481 116.613,-1484.46 119.673,-1487.53 123.045,-1490.24"/>
<polygon fill="midnightblue" stroke="midnightblue" points="121.177,-1493.2 131.411,-1495.94 125.12,-1487.42 121.177,-1493.2"/>
</g>
<!-- Node3 -->
<g id="node3" class="node"><title>Node3</title>
<g id="a_node3"><a xlink:href="../../d8/d38/classOnlMonServer.html#afa6a2749217b65d3de3f6fb3623c05b5" target="_top" xlink:title="OnlMonServer::End">
<polygon fill="none" stroke="black" points="145.5,-1153.5 145.5,-1172.5 244.5,-1172.5 244.5,-1153.5 145.5,-1153.5"/>
<text text-anchor="middle" x="195" y="-1160.5" font-family="FreeSans" font-size="10.00">OnlMonServer::End</text>
</a>
</g>
</g>
<!-- Node1&#45;&gt;Node3 -->
<g id="edge2" class="edge"><title>Node1&#45;&gt;Node3</title>
<path fill="none" stroke="midnightblue" d="M40.4223,-574.769C43.3325,-638.912 61.8703,-1000.14 114,-1095 126.449,-1117.65 149.651,-1136.07 167.875,-1148"/>
<polygon fill="midnightblue" stroke="midnightblue" points="166.022,-1150.97 176.352,-1153.32 169.745,-1145.04 166.022,-1150.97"/>
</g>
<!-- Node9 -->
<g id="node9" class="node"><title>Node9</title>
<g id="a_node9"><a xlink:href="../../d3/d97/classFun4AllEVIOInputManager.html#adda812ea7b7e95eeebffaf793809d757" target="_top" xlink:title="Fun4AllEVIOInputManager\l::EventSamplingFactor">
<polygon fill="none" stroke="black" points="129.5,-1056 129.5,-1086 260.5,-1086 260.5,-1056 129.5,-1056"/>
<text text-anchor="start" x="137.5" y="-1074" font-family="FreeSans" font-size="10.00">Fun4AllEVIOInputManager</text>
<text text-anchor="middle" x="195" y="-1063" font-family="FreeSans" font-size="10.00">::EventSamplingFactor</text>
</a>
</g>
</g>
<!-- Node1&#45;&gt;Node9 -->
<g id="edge8" class="edge"><title>Node1&#45;&gt;Node9</title>
<path fill="none" stroke="midnightblue" d="M40.1372,-574.533C41.2044,-635.584 49.9567,-971.532 114,-1046 116.001,-1048.33 118.216,-1050.44 120.595,-1052.36"/>
<polygon fill="midnightblue" stroke="midnightblue" points="118.994,-1055.5 129.248,-1058.16 122.893,-1049.69 118.994,-1055.5"/>
</g>
<!-- Node10 -->
<g id="node10" class="node"><title>Node10</title>
<g id="a_node10"><a xlink:href="../../d3/d97/classFun4AllEVIOInputManager.html#a7bb0e143543d8a1754c9b7d4451f9e3b" target="_top" xlink:title="Fun4AllEVIOInputManager\l::fileopen">
<polygon fill="none" stroke="black" points="129.5,-958 129.5,-988 260.5,-988 260.5,-958 129.5,-958"/>
<text text-anchor="start" x="137.5" y="-976" font-family="FreeSans" font-size="10.00">Fun4AllEVIOInputManager</text>
<text text-anchor="middle" x="195" y="-965" font-family="FreeSans" font-size="10.00">::fileopen</text>
</a>
</g>
</g>
<!-- Node1&#45;&gt;Node10 -->
<g id="edge9" class="edge"><title>Node1&#45;&gt;Node10</title>
<path fill="none" stroke="midnightblue" d="M40.7153,-574.606C44.7958,-627.103 66.6381,-879.085 114,-938 118.702,-943.849 124.576,-948.744 130.994,-952.836"/>
<polygon fill="midnightblue" stroke="midnightblue" points="129.595,-956.065 140.024,-957.933 133.035,-949.969 129.595,-956.065"/>
</g>
<!-- Node16 -->
<g id="node16" class="node"><title>Node16</title>
<g id="a_node16"><a xlink:href="../../d8/d62/classJobOptsSvc.html#ab1a24bb7210869b6309896e120361d20" target="_top" xlink:title="Initialization with defaults. ">
<polygon fill="none" stroke="black" points="666,-574.5 666,-593.5 752,-593.5 752,-574.5 666,-574.5"/>
<text text-anchor="middle" x="709" y="-581.5" font-family="FreeSans" font-size="10.00">JobOptsSvc::init</text>
</a>
</g>
</g>
<!-- Node1&#45;&gt;Node16 -->
<g id="edge15" class="edge"><title>Node1&#45;&gt;Node16</title>
<path fill="none" stroke="midnightblue" d="M69.9113,-574.505C83.2552,-578.269 99.2615,-582.138 114,-584 312.571,-609.085 551.471,-596.134 655.415,-588.402"/>
<polygon fill="midnightblue" stroke="midnightblue" points="655.934,-591.873 665.64,-587.626 655.404,-584.893 655.934,-591.873"/>
</g>
<!-- Node5 -->
<g id="node5" class="node"><title>Node5</title>
<g id="a_node5"><a xlink:href="../../d8/d14/classrecoConsts.html#ae69a5c29a7199ba16d0e537158618802" target="_top" xlink:title="recoConsts::instance">
<polygon fill="none" stroke="black" points="503.5,-1381.5 503.5,-1400.5 608.5,-1400.5 608.5,-1381.5 503.5,-1381.5"/>
<text text-anchor="middle" x="556" y="-1388.5" font-family="FreeSans" font-size="10.00">recoConsts::instance</text>
</a>
</g>
</g>
<!-- Node1&#45;&gt;Node5 -->
<g id="edge17" class="edge"><title>Node1&#45;&gt;Node5</title>
<path fill="none" stroke="midnightblue" d="M39.8476,-574.582C38.7673,-652.443 34.4413,-1181.92 114,-1315 168.397,-1405.99 210.592,-1417.1 312,-1448 375.772,-1467.43 397.837,-1466.1 462,-1448 490.193,-1440.05 518.271,-1420.89 536.079,-1406.98"/>
<polygon fill="midnightblue" stroke="midnightblue" points="538.357,-1409.64 543.951,-1400.64 533.967,-1404.19 538.357,-1409.64"/>
</g>
<!-- Node18 -->
<g id="node18" class="node"><title>Node18</title>
<g id="a_node18"><a xlink:href="../../d8/d62/classJobOptsSvc.html#aeb0d694dc08274aa90b0d6b1ee8384cb" target="_top" xlink:title="singlton instance ">
<polygon fill="none" stroke="black" points="654,-612.5 654,-631.5 764,-631.5 764,-612.5 654,-612.5"/>
<text text-anchor="middle" x="709" y="-619.5" font-family="FreeSans" font-size="10.00">JobOptsSvc::instance</text>
</a>
</g>
</g>
<!-- Node1&#45;&gt;Node18 -->
<g id="edge18" class="edge"><title>Node1&#45;&gt;Node18</title>
<path fill="none" stroke="midnightblue" d="M43.947,-574.621C52.8802,-594.936 76.8082,-641.827 114,-660 178.69,-691.61 206.112,-677.311 276,-660 293.561,-655.65 294.548,-645.769 312,-641 425.421,-610.002 563.807,-611.914 643.333,-616.617"/>
<polygon fill="midnightblue" stroke="midnightblue" points="643.482,-620.133 653.681,-617.264 643.919,-613.146 643.482,-620.133"/>
</g>
<!-- Node19 -->
<g id="node19" class="node"><title>Node19</title>
<g id="a_node19"><a xlink:href="../../d8/d38/classOnlMonServer.html#a051f5d14c8aee2413bb6f69cb92dc096" target="_top" xlink:title="OnlMonServer::instance">
<polygon fill="none" stroke="black" points="135.5,-479.5 135.5,-498.5 254.5,-498.5 254.5,-479.5 135.5,-479.5"/>
<text text-anchor="middle" x="195" y="-486.5" font-family="FreeSans" font-size="10.00">OnlMonServer::instance</text>
</a>
</g>
</g>
<!-- Node1&#45;&gt;Node19 -->
<g id="edge20" class="edge"><title>Node1&#45;&gt;Node19</title>
<path fill="none" stroke="midnightblue" d="M51.3128,-555.285C65.234,-543.764 89.9873,-524.659 114,-513 123.196,-508.535 133.394,-504.709 143.346,-501.509"/>
<polygon fill="midnightblue" stroke="midnightblue" points="144.622,-504.779 153.168,-498.517 142.582,-498.083 144.622,-504.779"/>
</g>
<!-- Node20 -->
<g id="node20" class="node"><title>Node20</title>
<g id="a_node20"><a xlink:href="../../d0/da0/classGeomSvc.html#a2b7ecf5467120206b9479654c48ad7c4" target="_top" xlink:title="singlton instance ">
<polygon fill="none" stroke="black" points="337,-650.5 337,-669.5 437,-669.5 437,-650.5 337,-650.5"/>
<text text-anchor="middle" x="387" y="-657.5" font-family="FreeSans" font-size="10.00">GeomSvc::instance</text>
</a>
</g>
</g>
<!-- Node1&#45;&gt;Node20 -->
<g id="edge21" class="edge"><title>Node1&#45;&gt;Node20</title>
<path fill="none" stroke="midnightblue" d="M42.1245,-574.717C48.1924,-599.795 68.1992,-666.575 114,-693 176.364,-728.982 204.763,-703.455 276,-693 289.95,-690.953 322.06,-681.095 348.007,-672.682"/>
<polygon fill="midnightblue" stroke="midnightblue" points="349.181,-675.981 357.599,-669.548 347.007,-669.327 349.181,-675.981"/>
</g>
<!-- Node22 -->
<g id="node22" class="node"><title>Node22</title>
<g id="a_node22"><a xlink:href="../../d8/d14/classrecoConsts.html#a5502a14fdb8433de15c2e71351f281d6" target="_top" xlink:title="recoConsts::Print">
<polygon fill="none" stroke="black" points="150.5,-441.5 150.5,-460.5 239.5,-460.5 239.5,-441.5 150.5,-441.5"/>
<text text-anchor="middle" x="195" y="-448.5" font-family="FreeSans" font-size="10.00">recoConsts::Print</text>
</a>
</g>
</g>
<!-- Node1&#45;&gt;Node22 -->
<g id="edge24" class="edge"><title>Node1&#45;&gt;Node22</title>
<path fill="none" stroke="midnightblue" d="M44.6083,-555.441C54.4631,-536.07 79.5264,-492.15 114,-470 122.022,-464.846 131.305,-461.087 140.643,-458.348"/>
<polygon fill="midnightblue" stroke="midnightblue" points="141.536,-461.732 150.345,-455.846 139.788,-454.954 141.536,-461.732"/>
</g>
<!-- Node23 -->
<g id="node23" class="node"><title>Node23</title>
<g id="a_node23"><a xlink:href="../../da/d29/classFun4AllServer.html#ab2cb490790d15b865ae79eb3094caabe" target="_top" xlink:title="Fun4AllServer::registerInput\lManager">
<polygon fill="none" stroke="black" points="127.5,-1007 127.5,-1037 262.5,-1037 262.5,-1007 127.5,-1007"/>
<text text-anchor="start" x="135.5" y="-1025" font-family="FreeSans" font-size="10.00">Fun4AllServer::registerInput</text>
<text text-anchor="middle" x="195" y="-1014" font-family="FreeSans" font-size="10.00">Manager</text>
</a>
</g>
</g>
<!-- Node1&#45;&gt;Node23 -->
<g id="edge25" class="edge"><title>Node1&#45;&gt;Node23</title>
<path fill="none" stroke="midnightblue" d="M40.3236,-574.663C42.4446,-632.336 56.1295,-930.856 114,-997 115.557,-998.78 117.239,-1000.43 119.023,-1001.97"/>
<polygon fill="midnightblue" stroke="midnightblue" points="117.267,-1005.02 127.434,-1008 121.342,-999.328 117.267,-1005.02"/>
</g>
<!-- Node25 -->
<g id="node25" class="node"><title>Node25</title>
<g id="a_node25"><a xlink:href="../../da/d29/classFun4AllServer.html#a9e7cd54536d1edb6e5c5cc153c0a036a" target="_top" xlink:title="Fun4AllServer::registerOutput\lManager">
<polygon fill="none" stroke="black" points="123.5,-841 123.5,-871 266.5,-871 266.5,-841 123.5,-841"/>
<text text-anchor="start" x="131.5" y="-859" font-family="FreeSans" font-size="10.00">Fun4AllServer::registerOutput</text>
<text text-anchor="middle" x="195" y="-848" font-family="FreeSans" font-size="10.00">Manager</text>
</a>
</g>
</g>
<!-- Node1&#45;&gt;Node25 -->
<g id="edge28" class="edge"><title>Node1&#45;&gt;Node25</title>
<path fill="none" stroke="midnightblue" d="M41.8954,-574.817C48.2189,-605.93 70.6805,-704.391 114,-774 128.398,-797.136 150.301,-818.996 167.55,-834.319"/>
<polygon fill="midnightblue" stroke="midnightblue" points="165.259,-836.965 175.105,-840.88 169.85,-831.68 165.259,-836.965"/>
</g>
<!-- Node27 -->
<g id="node27" class="node"><title>Node27</title>
<g id="a_node27"><a xlink:href="../../da/d29/classFun4AllServer.html#a0a9947db0ede1e55622001eb7515f8c0" target="_top" xlink:title="Fun4AllServer::registerSubsystem">
<polygon fill="none" stroke="black" points="114.5,-745.5 114.5,-764.5 275.5,-764.5 275.5,-745.5 114.5,-745.5"/>
<text text-anchor="middle" x="195" y="-752.5" font-family="FreeSans" font-size="10.00">Fun4AllServer::registerSubsystem</text>
</a>
</g>
</g>
<!-- Node1&#45;&gt;Node27 -->
<g id="edge31" class="edge"><title>Node1&#45;&gt;Node27</title>
<path fill="none" stroke="midnightblue" d="M41.4219,-574.508C46.1547,-602.771 64.0106,-687.027 114,-731 118.716,-735.148 124.126,-738.58 129.86,-741.418"/>
<polygon fill="midnightblue" stroke="midnightblue" points="128.517,-744.651 139.085,-745.409 131.297,-738.226 128.517,-744.651"/>
</g>
<!-- Node31 -->
<g id="node31" class="node"><title>Node31</title>
<g id="a_node31"><a xlink:href="../../d0/d78/classPHG4Reco.html#abc0956c0994a72d5a817b69511e1456b" target="_top" xlink:title="register subsystem ">
<polygon fill="none" stroke="black" points="312.5,-536.5 312.5,-555.5 461.5,-555.5 461.5,-536.5 312.5,-536.5"/>
<text text-anchor="middle" x="387" y="-543.5" font-family="FreeSans" font-size="10.00">PHG4Reco::registerSubsystem</text>
</a>
</g>
</g>
<!-- Node1&#45;&gt;Node31 -->
<g id="edge36" class="edge"><title>Node1&#45;&gt;Node31</title>
<path fill="none" stroke="midnightblue" d="M69.9113,-555.495C83.2552,-551.731 99.2615,-547.862 114,-546 176.719,-538.077 248.224,-538.44 302.174,-540.59"/>
<polygon fill="midnightblue" stroke="midnightblue" points="302.239,-544.096 312.38,-541.027 302.538,-537.103 302.239,-544.096"/>
</g>
<!-- Node32 -->
<g id="node32" class="node"><title>Node32</title>
<g id="a_node32"><a xlink:href="../../da/d29/classFun4AllServer.html#a11bbc8b2f53bc06e0b05ee202dd6372a" target="_top" xlink:title="run n events (0 means up to end of file) ">
<polygon fill="none" stroke="red" points="147.5,-1286.5 147.5,-1305.5 242.5,-1305.5 242.5,-1286.5 147.5,-1286.5"/>
<text text-anchor="middle" x="195" y="-1293.5" font-family="FreeSans" font-size="10.00">Fun4AllServer::run</text>
</a>
</g>
</g>
<!-- Node1&#45;&gt;Node32 -->
<g id="edge37" class="edge"><title>Node1&#45;&gt;Node32</title>
<path fill="none" stroke="midnightblue" d="M40.5212,-574.825C44.3109,-644.442 68.7725,-1063.87 114,-1182 128.653,-1220.27 158.973,-1257.84 177.79,-1278.86"/>
<polygon fill="midnightblue" stroke="midnightblue" points="175.28,-1281.3 184.612,-1286.32 180.445,-1276.58 175.28,-1281.3"/>
</g>
<!-- Node37 -->
<g id="node37" class="node"><title>Node37</title>
<g id="a_node37"><a xlink:href="../../d1/da8/classPHFlag.html#a64f8c67e9313e5cecdbed51f747026da" target="_top" xlink:title="PHFlag::set_DoubleFlag">
<polygon fill="none" stroke="black" points="135,-403.5 135,-422.5 255,-422.5 255,-403.5 135,-403.5"/>
<text text-anchor="middle" x="195" y="-410.5" font-family="FreeSans" font-size="10.00">PHFlag::set_DoubleFlag</text>
</a>
</g>
</g>
<!-- Node1&#45;&gt;Node37 -->
<g id="edge46" class="edge"><title>Node1&#45;&gt;Node37</title>
<path fill="none" stroke="midnightblue" d="M42.4989,-555.161C49.3412,-530.316 70.8157,-464.701 114,-432 117.457,-429.382 121.22,-427.118 125.167,-425.161"/>
<polygon fill="midnightblue" stroke="midnightblue" points="126.822,-428.261 134.656,-421.128 124.084,-421.819 126.822,-428.261"/>
</g>
<!-- Node38 -->
<g id="node38" class="node"><title>Node38</title>
<g id="a_node38"><a xlink:href="../../d4/dff/classKalmanFastTrackingWrapper.html#a05f76e0f15362bd0cba55d725d057b91" target="_top" xlink:title="KalmanFastTrackingWrapper\l::set_DS_level">
<polygon fill="none" stroke="black" points="124,-354 124,-384 266,-384 266,-354 124,-354"/>
<text text-anchor="start" x="132" y="-372" font-family="FreeSans" font-size="10.00">KalmanFastTrackingWrapper</text>
<text text-anchor="middle" x="195" y="-361" font-family="FreeSans" font-size="10.00">::set_DS_level</text>
</a>
</g>
</g>
<!-- Node1&#45;&gt;Node38 -->
<g id="edge47" class="edge"><title>Node1&#45;&gt;Node38</title>
<path fill="none" stroke="midnightblue" d="M41.3521,-555.238C45.8903,-526.216 63.2585,-439.651 114,-394 115.758,-392.418 117.615,-390.937 119.551,-389.549"/>
<polygon fill="midnightblue" stroke="midnightblue" points="121.81,-392.269 128.491,-384.045 118.14,-386.308 121.81,-392.269"/>
</g>
<!-- Node39 -->
<g id="node39" class="node"><title>Node39</title>
<g id="a_node39"><a xlink:href="../../d4/dff/classKalmanFastTrackingWrapper.html#a46ff3f180842976abcebef6ae4927e65" target="_top" xlink:title="KalmanFastTrackingWrapper\l::set_enable_event_reducer">
<polygon fill="none" stroke="black" points="124,-305 124,-335 266,-335 266,-305 124,-305"/>
<text text-anchor="start" x="132" y="-323" font-family="FreeSans" font-size="10.00">KalmanFastTrackingWrapper</text>
<text text-anchor="middle" x="195" y="-312" font-family="FreeSans" font-size="10.00">::set_enable_event_reducer</text>
</a>
</g>
</g>
<!-- Node1&#45;&gt;Node39 -->
<g id="edge48" class="edge"><title>Node1&#45;&gt;Node39</title>
<path fill="none" stroke="midnightblue" d="M40.2384,-555.429C41.6158,-521.408 50.9398,-405.095 114,-344 115.107,-342.928 116.259,-341.904 117.452,-340.925"/>
<polygon fill="midnightblue" stroke="midnightblue" points="119.624,-343.678 125.847,-335.103 115.635,-337.925 119.624,-343.678"/>
</g>
<!-- Node40 -->
<g id="node40" class="node"><title>Node40</title>
<g id="a_node40"><a xlink:href="../../d0/d78/classPHG4Reco.html#a2b127807e9bccb2480da1e0493cc2bd1" target="_top" xlink:title="PHG4Reco::set_field_map">
<polygon fill="none" stroke="black" points="130.5,-266.5 130.5,-285.5 259.5,-285.5 259.5,-266.5 130.5,-266.5"/>
<text text-anchor="middle" x="195" y="-273.5" font-family="FreeSans" font-size="10.00">PHG4Reco::set_field_map</text>
</a>
</g>
</g>
<!-- Node1&#45;&gt;Node40 -->
<g id="edge49" class="edge"><title>Node1&#45;&gt;Node40</title>
<path fill="none" stroke="midnightblue" d="M41.3034,-555.464C47.4352,-511.972 74.7655,-332.91 114,-295 116.287,-292.79 118.783,-290.82 121.432,-289.067"/>
<polygon fill="midnightblue" stroke="midnightblue" points="123.272,-292.049 130.354,-284.169 119.904,-285.913 123.272,-292.049"/>
</g>
<!-- Node41 -->
<g id="node41" class="node"><title>Node41</title>
<g id="a_node41"><a xlink:href="../../d0/d78/classPHG4Reco.html#ae3a89b790e2508e68657bd0059675ef5" target="_top" xlink:title="PHG4Reco::SetPhysicsList">
<polygon fill="none" stroke="black" points="128.5,-228.5 128.5,-247.5 261.5,-247.5 261.5,-228.5 128.5,-228.5"/>
<text text-anchor="middle" x="195" y="-235.5" font-family="FreeSans" font-size="10.00">PHG4Reco::SetPhysicsList</text>
</a>
</g>
</g>
<!-- Node1&#45;&gt;Node41 -->
<g id="edge50" class="edge"><title>Node1&#45;&gt;Node41</title>
<path fill="none" stroke="midnightblue" d="M40.9648,-555.425C45.9092,-508.242 69.9035,-300.982 114,-257 115.683,-255.321 117.487,-253.78 119.387,-252.366"/>
<polygon fill="midnightblue" stroke="midnightblue" points="121.553,-255.144 128.267,-246.948 117.908,-249.168 121.553,-255.144"/>
</g>
<!-- Node42 -->
<g id="node42" class="node"><title>Node42</title>
<g id="a_node42"><a xlink:href="../../d9/d72/e1039-core_2macros_2G4__SensitiveDetectors_8C.html#af71e50cde83a891cd25129c49f742314" target="_top" xlink:title="SetupSensitiveDetectors">
<polygon fill="none" stroke="red" points="134,-631.5 134,-650.5 256,-650.5 256,-631.5 134,-631.5"/>
<text text-anchor="middle" x="195" y="-638.5" font-family="FreeSans" font-size="10.00">SetupSensitiveDetectors</text>
</a>
</g>
</g>
<!-- Node1&#45;&gt;Node42 -->
<g id="edge51" class="edge"><title>Node1&#45;&gt;Node42</title>
<path fill="none" stroke="midnightblue" d="M51.3128,-574.715C65.234,-586.236 89.9873,-605.341 114,-617 123.196,-621.465 133.394,-625.291 143.346,-628.491"/>
<polygon fill="midnightblue" stroke="midnightblue" points="142.582,-631.917 153.168,-631.483 144.622,-625.221 142.582,-631.917"/>
</g>
<!-- Node43 -->
<g id="node43" class="node"><title>Node43</title>
<g id="a_node43"><a xlink:href="../../d8/df3/e1039-core_2macros_2G4__Target_8C.html#aea642c3fb5b533f8c1ee3bd826eecccf" target="_top" xlink:title="SetupTarget">
<polygon fill="none" stroke="red" points="160,-555.5 160,-574.5 230,-574.5 230,-555.5 160,-555.5"/>
<text text-anchor="middle" x="195" y="-562.5" font-family="FreeSans" font-size="10.00">SetupTarget</text>
</a>
</g>
</g>
<!-- Node1&#45;&gt;Node43 -->
<g id="edge54" class="edge"><title>Node1&#45;&gt;Node43</title>
<path fill="none" stroke="midnightblue" d="M77.6726,-565C99.4485,-565 126.961,-565 149.762,-565"/>
<polygon fill="midnightblue" stroke="midnightblue" points="149.869,-568.5 159.869,-565 149.869,-561.5 149.869,-568.5"/>
</g>
<!-- Node44 -->
<g id="node44" class="node"><title>Node44</title>
<g id="a_node44"><a xlink:href="../../d0/d78/classPHG4Reco.html#a898e7e2c3a79651a474ae9a01fa7f6ea" target="_top" xlink:title="PHG4Reco::SetWorldMaterial">
<polygon fill="none" stroke="black" points="123,-190.5 123,-209.5 267,-209.5 267,-190.5 123,-190.5"/>
<text text-anchor="middle" x="195" y="-197.5" font-family="FreeSans" font-size="10.00">PHG4Reco::SetWorldMaterial</text>
</a>
</g>
</g>
<!-- Node1&#45;&gt;Node44 -->
<g id="edge56" class="edge"><title>Node1&#45;&gt;Node44</title>
<path fill="none" stroke="midnightblue" d="M40.7051,-555.285C44.5928,-504.405 65.0426,-269.071 114,-219 115.269,-217.702 116.61,-216.486 118.012,-215.347"/>
<polygon fill="midnightblue" stroke="midnightblue" points="120.234,-218.073 126.637,-209.633 116.368,-212.238 120.234,-218.073"/>
</g>
<!-- Node45 -->
<g id="node45" class="node"><title>Node45</title>
<g id="a_node45"><a xlink:href="../../d0/d78/classPHG4Reco.html#ad2d08ddcb55a811e64f1ecf1763849dc" target="_top" xlink:title="PHG4Reco::SetWorldShape">
<polygon fill="none" stroke="black" points="126.5,-152.5 126.5,-171.5 263.5,-171.5 263.5,-152.5 126.5,-152.5"/>
<text text-anchor="middle" x="195" y="-159.5" font-family="FreeSans" font-size="10.00">PHG4Reco::SetWorldShape</text>
</a>
</g>
</g>
<!-- Node1&#45;&gt;Node45 -->
<g id="edge57" class="edge"><title>Node1&#45;&gt;Node45</title>
<path fill="none" stroke="midnightblue" d="M40.4821,-555.316C43.3689,-501.261 60.1026,-237.255 114,-181 115.256,-179.689 116.585,-178.461 117.976,-177.312"/>
<polygon fill="midnightblue" stroke="midnightblue" points="120.203,-180.032 126.553,-171.551 116.3,-174.221 120.203,-180.032"/>
</g>
<!-- Node46 -->
<g id="node46" class="node"><title>Node46</title>
<g id="a_node46"><a xlink:href="../../d0/d78/classPHG4Reco.html#a4b72190c41f51067bce7433768d5eb57" target="_top" xlink:title="PHG4Reco::SetWorldSizeX">
<polygon fill="none" stroke="black" points="127.5,-114.5 127.5,-133.5 262.5,-133.5 262.5,-114.5 127.5,-114.5"/>
<text text-anchor="middle" x="195" y="-121.5" font-family="FreeSans" font-size="10.00">PHG4Reco::SetWorldSizeX</text>
</a>
</g>
</g>
<!-- Node1&#45;&gt;Node46 -->
<g id="edge58" class="edge"><title>Node1&#45;&gt;Node46</title>
<path fill="none" stroke="midnightblue" d="M40.3066,-555.13C42.2971,-497.547 55.216,-205.396 114,-143 115.432,-141.48 116.961,-140.072 118.572,-138.768"/>
<polygon fill="midnightblue" stroke="midnightblue" points="120.798,-141.493 127.234,-133.077 116.954,-135.643 120.798,-141.493"/>
</g>
<!-- Node47 -->
<g id="node47" class="node"><title>Node47</title>
<g id="a_node47"><a xlink:href="../../d0/d78/classPHG4Reco.html#a5435e55d77e217cbaf9dcf81b85eb0c9" target="_top" xlink:title="PHG4Reco::SetWorldSizeY">
<polygon fill="none" stroke="black" points="127.5,-76.5 127.5,-95.5 262.5,-95.5 262.5,-76.5 127.5,-76.5"/>
<text text-anchor="middle" x="195" y="-83.5" font-family="FreeSans" font-size="10.00">PHG4Reco::SetWorldSizeY</text>
</a>
</g>
</g>
<!-- Node1&#45;&gt;Node47 -->
<g id="edge59" class="edge"><title>Node1&#45;&gt;Node47</title>
<path fill="none" stroke="midnightblue" d="M40.1454,-555.442C41.251,-495.683 50.1408,-173.746 114,-105 115.421,-103.47 116.941,-102.053 118.543,-100.741"/>
<polygon fill="midnightblue" stroke="midnightblue" points="120.772,-103.463 127.172,-95.0189 116.904,-97.629 120.772,-103.463"/>
</g>
<!-- Node48 -->
<g id="node48" class="node"><title>Node48</title>
<g id="a_node48"><a xlink:href="../../d0/d78/classPHG4Reco.html#aba08aa99a753272d63a4728c24b2e1c3" target="_top" xlink:title="PHG4Reco::SetWorldSizeZ">
<polygon fill="none" stroke="black" points="128,-38.5 128,-57.5 262,-57.5 262,-38.5 128,-38.5"/>
<text text-anchor="middle" x="195" y="-45.5" font-family="FreeSans" font-size="10.00">PHG4Reco::SetWorldSizeZ</text>
</a>
</g>
</g>
<!-- Node1&#45;&gt;Node48 -->
<g id="edge60" class="edge"><title>Node1&#45;&gt;Node48</title>
<path fill="none" stroke="midnightblue" d="M40.0172,-555.48C40.3271,-493.016 45.1446,-142.022 114,-67 115.608,-65.2482 117.345,-63.644 119.188,-62.1755"/>
<polygon fill="midnightblue" stroke="midnightblue" points="121.369,-64.9335 127.873,-56.5698 117.573,-59.0522 121.369,-64.9335"/>
</g>
<!-- Node49 -->
<g id="node49" class="node"><title>Node49</title>
<g id="a_node49"><a xlink:href="../../d8/d38/classOnlMonServer.html#a1faba47a8f98c19d258624675f820705" target="_top" xlink:title="OnlMonServer::StartServer">
<polygon fill="none" stroke="red" points="129.5,-909.5 129.5,-928.5 260.5,-928.5 260.5,-909.5 129.5,-909.5"/>
<text text-anchor="middle" x="195" y="-916.5" font-family="FreeSans" font-size="10.00">OnlMonServer::StartServer</text>
</a>
</g>
</g>
<!-- Node1&#45;&gt;Node49 -->
<g id="edge61" class="edge"><title>Node1&#45;&gt;Node49</title>
<path fill="none" stroke="midnightblue" d="M41.1398,-574.604C46.9214,-621.958 74.2956,-830.291 114,-880 123.079,-891.367 136.3,-899.647 149.389,-905.575"/>
<polygon fill="midnightblue" stroke="midnightblue" points="148.257,-908.894 158.835,-909.486 150.934,-902.427 148.257,-908.894"/>
</g>
<!-- Node50 -->
<g id="node50" class="node"><title>Node50</title>
<g id="a_node50"><a xlink:href="../../d5/dec/classFun4AllBase.html#a05da2261577843028cf78e99171343b9" target="_top" xlink:title="Sets the verbosity of this module (0 by default=quiet). ">
<polygon fill="none" stroke="black" points="137.5,-0.5 137.5,-19.5 252.5,-19.5 252.5,-0.5 137.5,-0.5"/>
<text text-anchor="middle" x="195" y="-7.5" font-family="FreeSans" font-size="10.00">Fun4AllBase::Verbosity</text>
</a>
</g>
</g>
<!-- Node1&#45;&gt;Node50 -->
<g id="edge63" class="edge"><title>Node1&#45;&gt;Node50</title>
<path fill="none" stroke="midnightblue" d="M39.9055,-555.188C39.474,-489.192 40.2594,-110.182 114,-29 117.997,-24.5999 122.81,-21.1286 128.068,-18.4003"/>
<polygon fill="midnightblue" stroke="midnightblue" points="129.445,-21.6181 137.272,-14.4773 126.7,-15.1786 129.445,-21.6181"/>
</g>
<!-- Node4 -->
<g id="node4" class="node"><title>Node4</title>
<g id="a_node4"><a xlink:href="../../da/d29/classFun4AllServer.html#ab7263450319ca1d5029209fde26a7af8" target="_top" xlink:title="Fun4AllServer::End">
<polygon fill="none" stroke="red" points="338,-1191.5 338,-1210.5 436,-1210.5 436,-1191.5 338,-1191.5"/>
<text text-anchor="middle" x="387" y="-1198.5" font-family="FreeSans" font-size="10.00">Fun4AllServer::End</text>
</a>
</g>
</g>
<!-- Node3&#45;&gt;Node4 -->
<g id="edge3" class="edge"><title>Node3&#45;&gt;Node4</title>
<path fill="none" stroke="midnightblue" d="M243.945,-1172.59C269.582,-1177.72 301.336,-1184.07 328.316,-1189.46"/>
<polygon fill="midnightblue" stroke="midnightblue" points="327.908,-1192.95 338.4,-1191.48 329.28,-1186.09 327.908,-1192.95"/>
</g>
<!-- Node4&#45;&gt;Node5 -->
<g id="edge4" class="edge"><title>Node4&#45;&gt;Node5</title>
<path fill="none" stroke="midnightblue" d="M436.058,-1207.24C445.318,-1210.06 454.467,-1214.13 462,-1220 475.387,-1230.43 525.035,-1329.8 545.789,-1372.09"/>
<polygon fill="midnightblue" stroke="midnightblue" points="542.651,-1373.64 550.189,-1381.09 548.939,-1370.57 542.651,-1373.64"/>
</g>
<!-- Node7 -->
<g id="node7" class="node"><title>Node7</title>
<g id="a_node7"><a xlink:href="../../da/d29/classFun4AllServer.html#a53b1b6b338aa36891f2690a188920980" target="_top" xlink:title="Fun4AllServer::EndRun">
<polygon fill="none" stroke="black" points="498,-1248.5 498,-1267.5 614,-1267.5 614,-1248.5 498,-1248.5"/>
<text text-anchor="middle" x="556" y="-1255.5" font-family="FreeSans" font-size="10.00">Fun4AllServer::EndRun</text>
</a>
</g>
</g>
<!-- Node4&#45;&gt;Node7 -->
<g id="edge6" class="edge"><title>Node4&#45;&gt;Node7</title>
<path fill="none" stroke="midnightblue" d="M429.389,-1210.56C440.095,-1213.33 451.548,-1216.54 462,-1220 483.236,-1227.03 506.536,-1236.55 524.501,-1244.31"/>
<polygon fill="midnightblue" stroke="midnightblue" points="523.321,-1247.61 533.886,-1248.41 526.123,-1241.2 523.321,-1247.61"/>
</g>
<!-- Node8 -->
<g id="node8" class="node"><title>Node8</title>
<g id="a_node8"><a xlink:href="../../d1/da8/classPHFlag.html#a07899067141a5f12333cc37183caddc8" target="_top" xlink:title="PHFlag::get_IntFlag">
<polygon fill="none" stroke="black" points="505,-1172.5 505,-1191.5 607,-1191.5 607,-1172.5 505,-1172.5"/>
<text text-anchor="middle" x="556" y="-1179.5" font-family="FreeSans" font-size="10.00">PHFlag::get_IntFlag</text>
</a>
</g>
</g>
<!-- Node4&#45;&gt;Node8 -->
<g id="edge7" class="edge"><title>Node4&#45;&gt;Node8</title>
<path fill="none" stroke="midnightblue" d="M436.303,-1195.5C454.513,-1193.43 475.455,-1191.05 494.631,-1188.87"/>
<polygon fill="midnightblue" stroke="midnightblue" points="495.232,-1192.32 504.772,-1187.71 494.441,-1185.37 495.232,-1192.32"/>
</g>
<!-- Node6 -->
<g id="node6" class="node"><title>Node6</title>
<g id="a_node6"><a xlink:href="../../d8/d14/classrecoConsts.html#ae882d6adc62f783ec78114fe3dee3c24" target="_top" xlink:title="recoConsts::recoConsts">
<polygon fill="none" stroke="black" points="650.5,-1381.5 650.5,-1400.5 767.5,-1400.5 767.5,-1381.5 650.5,-1381.5"/>
<text text-anchor="middle" x="709" y="-1388.5" font-family="FreeSans" font-size="10.00">recoConsts::recoConsts</text>
</a>
</g>
</g>
<!-- Node5&#45;&gt;Node6 -->
<g id="edge5" class="edge"><title>Node5&#45;&gt;Node6</title>
<path fill="none" stroke="midnightblue" d="M608.543,-1391C618.773,-1391 629.657,-1391 640.331,-1391"/>
<polygon fill="midnightblue" stroke="midnightblue" points="640.471,-1394.5 650.471,-1391 640.471,-1387.5 640.471,-1394.5"/>
</g>
<!-- Node11 -->
<g id="node11" class="node"><title>Node11</title>
<g id="a_node11"><a xlink:href="../../d3/d97/classFun4AllEVIOInputManager.html#aca6fa35ad65d77d32c361bdf4f2b6759" target="_top" xlink:title="Fun4AllEVIOInputManager\l::fileclose">
<polygon fill="none" stroke="red" points="321.5,-1055 321.5,-1085 452.5,-1085 452.5,-1055 321.5,-1055"/>
<text text-anchor="start" x="329.5" y="-1073" font-family="FreeSans" font-size="10.00">Fun4AllEVIOInputManager</text>
<text text-anchor="middle" x="387" y="-1062" font-family="FreeSans" font-size="10.00">::fileclose</text>
</a>
</g>
</g>
<!-- Node10&#45;&gt;Node11 -->
<g id="edge10" class="edge"><title>Node10&#45;&gt;Node11</title>
<path fill="none" stroke="midnightblue" d="M258.104,-988.127C264.416,-990.902 270.514,-994.165 276,-998 297.567,-1013.07 290.608,-1029.68 312,-1045 314.701,-1046.93 317.563,-1048.73 320.53,-1050.39"/>
<polygon fill="midnightblue" stroke="midnightblue" points="319.184,-1053.63 329.692,-1054.99 322.323,-1047.37 319.184,-1053.63"/>
</g>
<!-- Node13 -->
<g id="node13" class="node"><title>Node13</title>
<g id="a_node13"><a xlink:href="../../d5/dec/classFun4AllBase.html#a8a5c77a92bdac6bc043476e132379a40" target="_top" xlink:title="Gets the verbosity of this module. ">
<polygon fill="none" stroke="black" points="329.5,-928.5 329.5,-947.5 444.5,-947.5 444.5,-928.5 329.5,-928.5"/>
<text text-anchor="middle" x="387" y="-935.5" font-family="FreeSans" font-size="10.00">Fun4AllBase::Verbosity</text>
</a>
</g>
</g>
<!-- Node10&#45;&gt;Node13 -->
<g id="edge12" class="edge"><title>Node10&#45;&gt;Node13</title>
<path fill="none" stroke="midnightblue" d="M260.59,-961.102C281.114,-957.321 303.753,-953.151 324.083,-949.406"/>
<polygon fill="midnightblue" stroke="midnightblue" points="324.968,-952.802 334.168,-947.548 323.7,-945.918 324.968,-952.802"/>
</g>
<!-- Node14 -->
<g id="node14" class="node"><title>Node14</title>
<g id="a_node14"><a xlink:href="../../df/dcd/classMainDaqParser.html#afc604e499880357a56d30951e7a2124e" target="_top" xlink:title="MainDaqParser::OpenCodaFile">
<polygon fill="none" stroke="red" points="312.5,-1016.5 312.5,-1035.5 461.5,-1035.5 461.5,-1016.5 312.5,-1016.5"/>
<text text-anchor="middle" x="387" y="-1023.5" font-family="FreeSans" font-size="10.00">MainDaqParser::OpenCodaFile</text>
</a>
</g>
</g>
<!-- Node10&#45;&gt;Node14 -->
<g id="edge13" class="edge"><title>Node10&#45;&gt;Node14</title>
<path fill="none" stroke="midnightblue" d="M248.218,-988.013C268.16,-993.705 291.118,-1000.21 312,-1006 321.135,-1008.53 330.916,-1011.21 340.276,-1013.74"/>
<polygon fill="midnightblue" stroke="midnightblue" points="339.65,-1017.2 350.217,-1016.43 341.477,-1010.44 339.65,-1017.2"/>
</g>
<!-- Node15 -->
<g id="node15" class="node"><title>Node15</title>
<g id="a_node15"><a xlink:href="../../d4/da9/classFun4AllInputManager.html#a98ac3fb04956625a423ef41a3909ba27" target="_top" xlink:title="Fun4AllInputManager\l::AddToFileOpened">
<polygon fill="none" stroke="black" points="332.5,-967 332.5,-997 441.5,-997 441.5,-967 332.5,-967"/>
<text text-anchor="start" x="340.5" y="-985" font-family="FreeSans" font-size="10.00">Fun4AllInputManager</text>
<text text-anchor="middle" x="387" y="-974" font-family="FreeSans" font-size="10.00">::AddToFileOpened</text>
</a>
</g>
</g>
<!-- Node10&#45;&gt;Node15 -->
<g id="edge14" class="edge"><title>Node10&#45;&gt;Node15</title>
<path fill="none" stroke="midnightblue" d="M260.59,-976.06C280.47,-977.001 302.336,-978.037 322.165,-978.976"/>
<polygon fill="midnightblue" stroke="midnightblue" points="322.172,-982.48 332.327,-979.458 322.504,-975.488 322.172,-982.48"/>
</g>
<!-- Node12 -->
<g id="node12" class="node"><title>Node12</title>
<g id="a_node12"><a xlink:href="../../d5/dec/classFun4AllBase.html#a41f9ac377743d046f590617fd6f4f0ed" target="_top" xlink:title="Returns the name of this module. ">
<polygon fill="none" stroke="black" points="505.5,-975.5 505.5,-994.5 606.5,-994.5 606.5,-975.5 505.5,-975.5"/>
<text text-anchor="middle" x="556" y="-982.5" font-family="FreeSans" font-size="10.00">Fun4AllBase::Name</text>
</a>
</g>
</g>
<!-- Node11&#45;&gt;Node12 -->
<g id="edge11" class="edge"><title>Node11&#45;&gt;Node12</title>
<path fill="none" stroke="midnightblue" d="M438.034,-1054.98C446.182,-1052 454.427,-1048.65 462,-1045 488.176,-1032.38 515.885,-1013.72 534.178,-1000.57"/>
<polygon fill="midnightblue" stroke="midnightblue" points="536.337,-1003.33 542.354,-994.612 532.212,-997.677 536.337,-1003.33"/>
</g>
<!-- Node17 -->
<g id="node17" class="node"><title>Node17</title>
<g id="a_node17"><a xlink:href="../../dd/d23/JobOptsSvc_8cxx.html#a71e70a8ecc08c35494b083076d2ace7b" target="_top" xlink:title="debug">
<polygon fill="none" stroke="black" points="804.5,-593.5 804.5,-612.5 847.5,-612.5 847.5,-593.5 804.5,-593.5"/>
<text text-anchor="middle" x="826" y="-600.5" font-family="FreeSans" font-size="10.00">debug</text>
</a>
</g>
</g>
<!-- Node16&#45;&gt;Node17 -->
<g id="edge16" class="edge"><title>Node16&#45;&gt;Node17</title>
<path fill="none" stroke="midnightblue" d="M752.169,-590.967C766.091,-593.267 781.307,-595.781 794.214,-597.914"/>
<polygon fill="midnightblue" stroke="midnightblue" points="793.997,-601.425 804.434,-599.602 795.138,-594.519 793.997,-601.425"/>
</g>
<!-- Node18&#45;&gt;Node17 -->
<g id="edge19" class="edge"><title>Node18&#45;&gt;Node17</title>
<path fill="none" stroke="midnightblue" d="M764.133,-613.056C774.545,-611.336 785.105,-609.591 794.441,-608.049"/>
<polygon fill="midnightblue" stroke="midnightblue" points="795.093,-611.489 804.388,-606.405 793.952,-604.582 795.093,-611.489"/>
</g>
<!-- Node21 -->
<g id="node21" class="node"><title>Node21</title>
<g id="a_node21"><a xlink:href="../../d0/da0/classGeomSvc.html#a96ec4efc82cbaed0b5623e4dd69385b6" target="_top" xlink:title="Initialization, either from MySQL or from ascii file. ">
<polygon fill="none" stroke="red" points="517.5,-650.5 517.5,-669.5 594.5,-669.5 594.5,-650.5 517.5,-650.5"/>
<text text-anchor="middle" x="556" y="-657.5" font-family="FreeSans" font-size="10.00">GeomSvc::init</text>
</a>
</g>
</g>
<!-- Node20&#45;&gt;Node21 -->
<g id="edge22" class="edge"><title>Node20&#45;&gt;Node21</title>
<path fill="none" stroke="midnightblue" d="M437.202,-660C459.296,-660 485.267,-660 507.193,-660"/>
<polygon fill="midnightblue" stroke="midnightblue" points="507.275,-663.5 517.275,-660 507.275,-656.5 507.275,-663.5"/>
</g>
<!-- Node21&#45;&gt;Node18 -->
<g id="edge23" class="edge"><title>Node21&#45;&gt;Node18</title>
<path fill="none" stroke="midnightblue" d="M594.714,-650.509C614.623,-645.499 639.254,-639.3 660.459,-633.964"/>
<polygon fill="midnightblue" stroke="midnightblue" points="661.4,-637.336 670.243,-631.502 659.691,-630.548 661.4,-637.336"/>
</g>
<!-- Node24 -->
<g id="node24" class="node"><title>Node24</title>
<g id="a_node24"><a xlink:href="../../dd/ded/classFun4AllSyncManager.html#a2a284bc4ed777ec7f39d6e5c7090067c" target="_top" xlink:title="Fun4AllSyncManager\l::registerInputManager">
<polygon fill="none" stroke="red" points="331,-1104 331,-1134 443,-1134 443,-1104 331,-1104"/>
<text text-anchor="start" x="339" y="-1122" font-family="FreeSans" font-size="10.00">Fun4AllSyncManager</text>
<text text-anchor="middle" x="387" y="-1111" font-family="FreeSans" font-size="10.00">::registerInputManager</text>
</a>
</g>
</g>
<!-- Node23&#45;&gt;Node24 -->
<g id="edge26" class="edge"><title>Node23&#45;&gt;Node24</title>
<path fill="none" stroke="midnightblue" d="M258.104,-1037.13C264.416,-1039.9 270.514,-1043.17 276,-1047 297.567,-1062.07 290.608,-1078.68 312,-1094 315.046,-1096.18 318.296,-1098.18 321.671,-1100.02"/>
<polygon fill="midnightblue" stroke="midnightblue" points="320.319,-1103.25 330.841,-1104.5 323.391,-1096.96 320.319,-1103.25"/>
</g>
<!-- Node24&#45;&gt;Node12 -->
<g id="edge27" class="edge"><title>Node24&#45;&gt;Node12</title>
<path fill="none" stroke="midnightblue" d="M443.342,-1104.04C449.891,-1101.2 456.273,-1097.88 462,-1094 498.188,-1069.5 528.505,-1027.29 543.967,-1003.22"/>
<polygon fill="midnightblue" stroke="midnightblue" points="546.977,-1005.01 549.318,-994.678 541.044,-1001.29 546.977,-1005.01"/>
</g>
<!-- Node25&#45;&gt;Node12 -->
<g id="edge29" class="edge"><title>Node25&#45;&gt;Node12</title>
<path fill="none" stroke="midnightblue" d="M265.518,-871.019C338.179,-886.947 444.11,-910.906 462,-919 490.213,-931.764 518.666,-953.568 536.535,-968.601"/>
<polygon fill="midnightblue" stroke="midnightblue" points="534.544,-971.504 544.41,-975.367 539.106,-966.195 534.544,-971.504"/>
</g>
<!-- Node26 -->
<g id="node26" class="node"><title>Node26</title>
<g id="a_node26"><a xlink:href="../../da/d29/classFun4AllServer.html#a596005b9bc46ff6f5167378423248271" target="_top" xlink:title="Fun4AllServer::UpdateEvent\lSelector">
<polygon fill="none" stroke="red" points="318.5,-841 318.5,-871 455.5,-871 455.5,-841 318.5,-841"/>
<text text-anchor="start" x="326.5" y="-859" font-family="FreeSans" font-size="10.00">Fun4AllServer::UpdateEvent</text>
<text text-anchor="middle" x="387" y="-848" font-family="FreeSans" font-size="10.00">Selector</text>
</a>
</g>
</g>
<!-- Node25&#45;&gt;Node26 -->
<g id="edge30" class="edge"><title>Node25&#45;&gt;Node26</title>
<path fill="none" stroke="midnightblue" d="M266.749,-856C280.201,-856 294.349,-856 308.011,-856"/>
<polygon fill="midnightblue" stroke="midnightblue" points="308.344,-859.5 318.344,-856 308.344,-852.5 308.344,-859.5"/>
</g>
<!-- Node28 -->
<g id="node28" class="node"><title>Node28</title>
<g id="a_node28"><a xlink:href="../../da/d29/classFun4AllServer.html#a3e55156f91b2c94bb6c4ef33ffce587a" target="_top" xlink:title="Fun4AllServer::instance">
<polygon fill="none" stroke="black" points="328,-802.5 328,-821.5 446,-821.5 446,-802.5 328,-802.5"/>
<text text-anchor="middle" x="387" y="-809.5" font-family="FreeSans" font-size="10.00">Fun4AllServer::instance</text>
</a>
</g>
</g>
<!-- Node27&#45;&gt;Node28 -->
<g id="edge32" class="edge"><title>Node27&#45;&gt;Node28</title>
<path fill="none" stroke="midnightblue" d="M223.499,-764.569C246.904,-772.579 281.485,-784.095 312,-793 320.053,-795.35 328.645,-797.699 337.016,-799.904"/>
<polygon fill="midnightblue" stroke="midnightblue" points="336.139,-803.292 346.697,-802.417 337.898,-796.516 336.139,-803.292"/>
</g>
<!-- Node27&#45;&gt;Node12 -->
<g id="edge33" class="edge"><title>Node27&#45;&gt;Node12</title>
<path fill="none" stroke="midnightblue" d="M218.148,-745.407C241.113,-736.021 278.307,-722.378 312,-717 377.833,-706.492 407.679,-678.352 462,-717 544.823,-775.927 554.548,-914.033 555.207,-965.347"/>
<polygon fill="midnightblue" stroke="midnightblue" points="551.707,-965.435 555.229,-975.428 558.707,-965.42 551.707,-965.435"/>
</g>
<!-- Node29 -->
<g id="node29" class="node"><title>Node29</title>
<g id="a_node29"><a xlink:href="../../da/d29/classFun4AllServer.html#abcaf6825367e5db292ff795237bdcf62" target="_top" xlink:title="Fun4AllServer::topNode">
<polygon fill="none" stroke="black" points="328,-764.5 328,-783.5 446,-783.5 446,-764.5 328,-764.5"/>
<text text-anchor="middle" x="387" y="-771.5" font-family="FreeSans" font-size="10.00">Fun4AllServer::topNode</text>
</a>
</g>
</g>
<!-- Node27&#45;&gt;Node29 -->
<g id="edge34" class="edge"><title>Node27&#45;&gt;Node29</title>
<path fill="none" stroke="midnightblue" d="M275.751,-762.975C289.67,-764.367 304.038,-765.804 317.617,-767.162"/>
<polygon fill="midnightblue" stroke="midnightblue" points="317.527,-770.67 327.826,-768.183 318.224,-763.705 317.527,-770.67"/>
</g>
<!-- Node30 -->
<g id="node30" class="node"><title>Node30</title>
<g id="a_node30"><a xlink:href="../../d0/d32/classSubsysReco.html#a6670c0a093dd2c2bdd44f8fc6f9ba8e8" target="_top" xlink:title="SubsysReco::Init">
<polygon fill="none" stroke="black" points="343,-726.5 343,-745.5 431,-745.5 431,-726.5 343,-726.5"/>
<text text-anchor="middle" x="387" y="-733.5" font-family="FreeSans" font-size="10.00">SubsysReco::Init</text>
</a>
</g>
</g>
<!-- Node27&#45;&gt;Node30 -->
<g id="edge35" class="edge"><title>Node27&#45;&gt;Node30</title>
<path fill="none" stroke="midnightblue" d="M275.751,-747.025C295.022,-745.098 315.152,-743.085 332.858,-741.314"/>
<polygon fill="midnightblue" stroke="midnightblue" points="333.375,-744.78 342.977,-740.302 332.679,-737.815 333.375,-744.78"/>
</g>
<!-- Node32&#45;&gt;Node5 -->
<g id="edge38" class="edge"><title>Node32&#45;&gt;Node5</title>
<path fill="none" stroke="midnightblue" d="M232.066,-1305.54C297.786,-1322.94 436.915,-1359.75 509.214,-1378.88"/>
<polygon fill="midnightblue" stroke="midnightblue" points="508.395,-1382.29 518.958,-1381.46 510.186,-1375.52 508.395,-1382.29"/>
</g>
<!-- Node33 -->
<g id="node33" class="node"><title>Node33</title>
<g id="a_node33"><a xlink:href="../../d1/da8/classPHFlag.html#a4b73a422f0076568904d71f40e849da5" target="_top" xlink:title="PHFlag::FlagExist">
<polygon fill="none" stroke="black" points="341,-1267.5 341,-1286.5 433,-1286.5 433,-1267.5 341,-1267.5"/>
<text text-anchor="middle" x="387" y="-1274.5" font-family="FreeSans" font-size="10.00">PHFlag::FlagExist</text>
</a>
</g>
</g>
<!-- Node32&#45;&gt;Node33 -->
<g id="edge39" class="edge"><title>Node32&#45;&gt;Node33</title>
<path fill="none" stroke="midnightblue" d="M242.966,-1291.3C269.588,-1288.64 303.038,-1285.3 330.895,-1282.51"/>
<polygon fill="midnightblue" stroke="midnightblue" points="331.28,-1285.99 340.882,-1281.51 330.584,-1279.02 331.28,-1285.99"/>
</g>
<!-- Node32&#45;&gt;Node8 -->
<g id="edge40" class="edge"><title>Node32&#45;&gt;Node8</title>
<path fill="none" stroke="midnightblue" d="M201.815,-1286.5C216.681,-1263.25 258.687,-1203.81 312,-1182 373.369,-1156.89 450.979,-1162.61 501.755,-1170.77"/>
<polygon fill="midnightblue" stroke="midnightblue" points="501.409,-1174.27 511.853,-1172.49 502.579,-1167.36 501.409,-1174.27"/>
</g>
<!-- Node34 -->
<g id="node34" class="node"><title>Node34</title>
<g id="a_node34"><a xlink:href="../../da/d29/classFun4AllServer.html#ab2479a9a3e45d51118e308597acd5228" target="_top" xlink:title="Fun4AllServer::ResetNodeTree">
<polygon fill="none" stroke="red" points="312.5,-1229.5 312.5,-1248.5 461.5,-1248.5 461.5,-1229.5 312.5,-1229.5"/>
<text text-anchor="middle" x="387" y="-1236.5" font-family="FreeSans" font-size="10.00">Fun4AllServer::ResetNodeTree</text>
</a>
</g>
</g>
<!-- Node32&#45;&gt;Node34 -->
<g id="edge41" class="edge"><title>Node32&#45;&gt;Node34</title>
<path fill="none" stroke="midnightblue" d="M223.499,-1286.43C246.904,-1278.42 281.485,-1266.91 312,-1258 320.053,-1255.65 328.645,-1253.3 337.016,-1251.1"/>
<polygon fill="midnightblue" stroke="midnightblue" points="337.898,-1254.48 346.697,-1248.58 336.139,-1247.71 337.898,-1254.48"/>
</g>
<!-- Node35 -->
<g id="node35" class="node"><title>Node35</title>
<g id="a_node35"><a xlink:href="../../da/d29/classFun4AllServer.html#af1002b9170308da078c0e14a5ac4b514" target="_top" xlink:title="Fun4AllServer::setRun">
<polygon fill="none" stroke="red" points="331,-1419.5 331,-1438.5 443,-1438.5 443,-1419.5 331,-1419.5"/>
<text text-anchor="middle" x="387" y="-1426.5" font-family="FreeSans" font-size="10.00">Fun4AllServer::setRun</text>
</a>
</g>
</g>
<!-- Node32&#45;&gt;Node35 -->
<g id="edge42" class="edge"><title>Node32&#45;&gt;Node35</title>
<path fill="none" stroke="midnightblue" d="M202.919,-1305.66C219.254,-1327.73 262.579,-1382.09 312,-1410 315.94,-1412.22 320.143,-1414.19 324.47,-1415.94"/>
<polygon fill="midnightblue" stroke="midnightblue" points="323.492,-1419.3 334.086,-1419.4 325.863,-1412.72 323.492,-1419.3"/>
</g>
<!-- Node36 -->
<g id="node36" class="node"><title>Node36</title>
<g id="a_node36"><a xlink:href="../../da/d29/classFun4AllServer.html#afcfc5583204cac58b4e66a2406187a18" target="_top" xlink:title="Fun4AllServer::BeginRun">
<polygon fill="none" stroke="red" points="325,-1381.5 325,-1400.5 449,-1400.5 449,-1381.5 325,-1381.5"/>
<text text-anchor="middle" x="387" y="-1388.5" font-family="FreeSans" font-size="10.00">Fun4AllServer::BeginRun</text>
</a>
</g>
</g>
<!-- Node32&#45;&gt;Node36 -->
<g id="edge44" class="edge"><title>Node32&#45;&gt;Node36</title>
<path fill="none" stroke="midnightblue" d="M209.343,-1305.62C230.339,-1320.41 272.75,-1348.93 312,-1367 321.201,-1371.24 331.363,-1375.05 341.132,-1378.33"/>
<polygon fill="midnightblue" stroke="midnightblue" points="340.129,-1381.68 350.72,-1381.42 342.277,-1375.02 340.129,-1381.68"/>
</g>
<!-- Node32&#45;&gt;Node7 -->
<g id="edge45" class="edge"><title>Node32&#45;&gt;Node7</title>
<path fill="none" stroke="midnightblue" d="M242.656,-1301.39C296.185,-1306.34 386.324,-1310.86 462,-1296 485.249,-1291.43 510.011,-1281.01 528.134,-1272.24"/>
<polygon fill="midnightblue" stroke="midnightblue" points="530.083,-1275.18 537.468,-1267.58 526.957,-1268.91 530.083,-1275.18"/>
</g>
<!-- Node35&#45;&gt;Node5 -->
<g id="edge43" class="edge"><title>Node35&#45;&gt;Node5</title>
<path fill="none" stroke="midnightblue" d="M430.141,-1419.41C452.377,-1414.35 479.848,-1408.1 503.356,-1402.75"/>
<polygon fill="midnightblue" stroke="midnightblue" points="504.188,-1406.15 513.162,-1400.52 502.635,-1399.33 504.188,-1406.15"/>
</g>
<!-- Node42&#45;&gt;Node20 -->
<g id="edge52" class="edge"><title>Node42&#45;&gt;Node20</title>
<path fill="none" stroke="midnightblue" d="M256.117,-647.012C278.65,-649.265 304.223,-651.822 326.683,-654.068"/>
<polygon fill="midnightblue" stroke="midnightblue" points="326.463,-657.564 336.761,-655.076 327.159,-650.598 326.463,-657.564"/>
</g>
<!-- Node42&#45;&gt;Node31 -->
<g id="edge53" class="edge"><title>Node42&#45;&gt;Node31</title>
<path fill="none" stroke="midnightblue" d="M215.264,-631.368C248.922,-614.539 318.573,-579.713 357.714,-560.143"/>
<polygon fill="midnightblue" stroke="midnightblue" points="359.589,-563.119 366.968,-555.516 356.458,-556.858 359.589,-563.119"/>
</g>
<!-- Node43&#45;&gt;Node31 -->
<g id="edge55" class="edge"><title>Node43&#45;&gt;Node31</title>
<path fill="none" stroke="midnightblue" d="M230.408,-561.559C250.611,-559.539 277.089,-556.891 302.46,-554.354"/>
<polygon fill="midnightblue" stroke="midnightblue" points="302.886,-557.829 312.488,-553.351 302.189,-550.864 302.886,-557.829"/>
</g>
<!-- Node49&#45;&gt;Node13 -->
<g id="edge62" class="edge"><title>Node49&#45;&gt;Node13</title>
<path fill="none" stroke="midnightblue" d="M260.59,-925.459C279.467,-927.347 300.134,-929.413 319.148,-931.315"/>
<polygon fill="midnightblue" stroke="midnightblue" points="318.921,-934.809 329.219,-932.322 319.617,-927.844 318.921,-934.809"/>
</g>
</g>
</svg>
