<?xml version="1.0" encoding="UTF-8" standalone="no"?>
<!DOCTYPE svg PUBLIC "-//W3C//DTD SVG 1.1//EN"
 "http://www.w3.org/Graphics/SVG/1.1/DTD/svg11.dtd">
<!-- Generated by graphviz version 2.40.1 (20161225.0304)
 -->
<!-- Title: /home/yuhw/GitHub/SeaQuest/e1039&#45;core/packages/db2g4/MCHit.cc Pages: 1 -->
<svg width="809pt" height="162pt"
 viewBox="0.00 0.00 809.00 162.00" xmlns="http://www.w3.org/2000/svg" xmlns:xlink="http://www.w3.org/1999/xlink">
<g id="graph0" class="graph" transform="scale(1 1) rotate(0) translate(4 158)">
<title>/home/yuhw/GitHub/SeaQuest/e1039&#45;core/packages/db2g4/MCHit.cc</title>
<!-- Node0 -->
<g id="node1" class="node">
<title>Node0</title>
<polygon fill="#bfbfbf" stroke="#000000" points="311,-112.5 311,-153.5 458,-153.5 458,-112.5 311,-112.5"/>
<text text-anchor="start" x="319" y="-141.5" font-family="FreeSans" font-size="10.00" fill="#000000">/home/yuhw/GitHub/SeaQuest</text>
<text text-anchor="start" x="319" y="-130.5" font-family="FreeSans" font-size="10.00" fill="#000000">/e1039&#45;core/packages/db2g4</text>
<text text-anchor="middle" x="384.5" y="-119.5" font-family="FreeSans" font-size="10.00" fill="#000000">/MCHit.cc</text>
</g>
<!-- Node1 -->
<g id="node2" class="node">
<title>Node1</title>
<g id="a_node2"><a xlink:href="../../d3/d13/MCHit_8hh.html" target="_top" xlink:title="MCHit.hh">
<polygon fill="none" stroke="#000000" points="356.5,-56.5 356.5,-75.5 412.5,-75.5 412.5,-56.5 356.5,-56.5"/>
<text text-anchor="middle" x="384.5" y="-63.5" font-family="FreeSans" font-size="10.00" fill="#000000">MCHit.hh</text>
</a>
</g>
</g>
<!-- Node0&#45;&gt;Node1 -->
<g id="edge1" class="edge">
<title>Node0&#45;&gt;Node1</title>
<path fill="none" stroke="#191970" d="M384.5,-112.168C384.5,-103.8226 384.5,-94.2471 384.5,-85.9879"/>
<polygon fill="#191970" stroke="#191970" points="388.0001,-85.7804 384.5,-75.7805 381.0001,-85.7805 388.0001,-85.7804"/>
</g>
<!-- Node2 -->
<g id="node3" class="node">
<title>Node2</title>
<polygon fill="none" stroke="#bfbfbf" points="0,-.5 0,-19.5 67,-19.5 67,-.5 0,-.5"/>
<text text-anchor="middle" x="33.5" y="-7.5" font-family="FreeSans" font-size="10.00" fill="#000000">G4Circle.hh</text>
</g>
<!-- Node1&#45;&gt;Node2 -->
<g id="edge2" class="edge">
<title>Node1&#45;&gt;Node2</title>
<path fill="none" stroke="#191970" d="M356.3443,-62.5638C303.6005,-55.9619 186.1487,-40.4827 77.0958,-19.9871"/>
<polygon fill="#191970" stroke="#191970" points="77.724,-16.5439 67.2467,-18.1177 76.4187,-23.4211 77.724,-16.5439"/>
</g>
<!-- Node3 -->
<g id="node4" class="node">
<title>Node3</title>
<polygon fill="none" stroke="#bfbfbf" points="85.5,-.5 85.5,-19.5 181.5,-19.5 181.5,-.5 85.5,-.5"/>
<text text-anchor="middle" x="133.5" y="-7.5" font-family="FreeSans" font-size="10.00" fill="#000000">G4VisAttributes.hh</text>
</g>
<!-- Node1&#45;&gt;Node3 -->
<g id="edge3" class="edge">
<title>Node1&#45;&gt;Node3</title>
<path fill="none" stroke="#191970" d="M356.195,-59.6849C315.0881,-50.5137 238.1348,-33.3448 186.3508,-21.7914"/>
<polygon fill="#191970" stroke="#191970" points="186.8699,-18.3212 176.3477,-19.5596 185.3455,-25.1533 186.8699,-18.3212"/>
</g>
<!-- Node4 -->
<g id="node5" class="node">
<title>Node4</title>
<polygon fill="none" stroke="#bfbfbf" points="199.5,-.5 199.5,-19.5 269.5,-19.5 269.5,-.5 199.5,-.5"/>
<text text-anchor="middle" x="234.5" y="-7.5" font-family="FreeSans" font-size="10.00" fill="#000000">G4Colour.hh</text>
</g>
<!-- Node1&#45;&gt;Node4 -->
<g id="edge4" class="edge">
<title>Node1&#45;&gt;Node4</title>
<path fill="none" stroke="#191970" d="M358.7141,-56.3733C334.0953,-47.1822 296.81,-33.2624 269.5125,-23.0713"/>
<polygon fill="#191970" stroke="#191970" points="270.542,-19.7198 259.9494,-19.5011 268.0937,-26.2777 270.542,-19.7198"/>
</g>
<!-- Node5 -->
<g id="node6" class="node">
<title>Node5</title>
<polygon fill="none" stroke="#bfbfbf" points="287.5,-.5 287.5,-19.5 385.5,-19.5 385.5,-.5 287.5,-.5"/>
<text text-anchor="middle" x="336.5" y="-7.5" font-family="FreeSans" font-size="10.00" fill="#000000">G4VVisManager.hh</text>
</g>
<!-- Node1&#45;&gt;Node5 -->
<g id="edge5" class="edge">
<title>Node1&#45;&gt;Node5</title>
<path fill="none" stroke="#191970" d="M376.139,-56.2455C369.325,-48.2958 359.5319,-36.8706 351.3848,-27.3656"/>
<polygon fill="#191970" stroke="#191970" points="353.9305,-24.9575 344.7651,-19.6427 348.6157,-29.513 353.9305,-24.9575"/>
</g>
<!-- Node6 -->
<g id="node7" class="node">
<title>Node6</title>
<polygon fill="none" stroke="#bfbfbf" points="403.5,-.5 403.5,-19.5 463.5,-19.5 463.5,-.5 403.5,-.5"/>
<text text-anchor="middle" x="433.5" y="-7.5" font-family="FreeSans" font-size="10.00" fill="#000000">G4VHit.hh</text>
</g>
<!-- Node1&#45;&gt;Node6 -->
<g id="edge6" class="edge">
<title>Node1&#45;&gt;Node6</title>
<path fill="none" stroke="#191970" d="M393.0351,-56.2455C399.9912,-48.2958 409.9883,-36.8706 418.3051,-27.3656"/>
<polygon fill="#191970" stroke="#191970" points="421.1116,-29.4732 425.0627,-19.6427 415.8436,-24.8637 421.1116,-29.4732"/>
</g>
<!-- Node7 -->
<g id="node8" class="node">
<title>Node7</title>
<polygon fill="none" stroke="#bfbfbf" points="482,-.5 482,-19.5 589,-19.5 589,-.5 482,-.5"/>
<text text-anchor="middle" x="535.5" y="-7.5" font-family="FreeSans" font-size="10.00" fill="#000000">G4THitsCollection.hh</text>
</g>
<!-- Node1&#45;&gt;Node7 -->
<g id="edge7" class="edge">
<title>Node1&#45;&gt;Node7</title>
<path fill="none" stroke="#191970" d="M410.4578,-56.3733C435.2407,-47.1822 472.7746,-33.2624 500.254,-23.0713"/>
<polygon fill="#191970" stroke="#191970" points="501.7219,-26.26 509.8809,-19.5011 499.2879,-19.6968 501.7219,-26.26"/>
</g>
<!-- Node8 -->
<g id="node9" class="node">
<title>Node8</title>
<polygon fill="none" stroke="#bfbfbf" points="607.5,-.5 607.5,-19.5 687.5,-19.5 687.5,-.5 607.5,-.5"/>
<text text-anchor="middle" x="647.5" y="-7.5" font-family="FreeSans" font-size="10.00" fill="#000000">G4Allocator.hh</text>
</g>
<!-- Node1&#45;&gt;Node8 -->
<g id="edge8" class="edge">
<title>Node1&#45;&gt;Node8</title>
<path fill="none" stroke="#191970" d="M412.6456,-60.007C456.682,-50.6305 542.4921,-32.3591 597.2976,-20.6895"/>
<polygon fill="#191970" stroke="#191970" points="598.1013,-24.0969 607.1531,-18.591 596.6435,-17.2504 598.1013,-24.0969"/>
</g>
<!-- Node9 -->
<g id="node10" class="node">
<title>Node9</title>
<polygon fill="none" stroke="#bfbfbf" points="706,-.5 706,-19.5 801,-19.5 801,-.5 706,-.5"/>
<text text-anchor="middle" x="753.5" y="-7.5" font-family="FreeSans" font-size="10.00" fill="#000000">G4ThreeVector.hh</text>
</g>
<!-- Node1&#45;&gt;Node9 -->
<g id="edge9" class="edge">
<title>Node1&#45;&gt;Node9</title>
<path fill="none" stroke="#191970" d="M412.5071,-62.132C465.5752,-54.7468 584.6598,-37.9069 695.8836,-20.0636"/>
<polygon fill="#191970" stroke="#191970" points="696.6144,-23.4911 705.9306,-18.4455 695.5013,-16.5801 696.6144,-23.4911"/>
</g>
</g>
</svg>
