<?xml version="1.0" encoding="UTF-8" standalone="no"?>
<!DOCTYPE svg PUBLIC "-//W3C//DTD SVG 1.1//EN"
 "http://www.w3.org/Graphics/SVG/1.1/DTD/svg11.dtd">
<!-- Generated by graphviz version 2.30.1 (20200930.0103)
 -->
<!-- Title: GeomSvc::getPlaneNElements Pages: 1 -->
<svg width="666pt" height="558pt"
 viewBox="0.00 0.00 666.00 558.00" xmlns="http://www.w3.org/2000/svg" xmlns:xlink="http://www.w3.org/1999/xlink">
<g id="graph0" class="graph" transform="scale(1 1) rotate(0) translate(4 554)">
<title>GeomSvc::getPlaneNElements</title>
<!-- Node1 -->
<g id="node1" class="node"><title>Node1</title>
<polygon fill="#bfbfbf" stroke="black" points="0.5,-270.5 0.5,-289.5 149.5,-289.5 149.5,-270.5 0.5,-270.5"/>
<text text-anchor="middle" x="75" y="-277.5" font-family="FreeSans" font-size="10.00">GeomSvc::getPlaneNElements</text>
</g>
<!-- Node2 -->
<g id="node2" class="node"><title>Node2</title>
<g id="a_node2"><a xlink:href="../../df/d36/classSQDigitizer.html#a6888088bc0f09a34957d84e24ba7926b" target="_top" xlink:title="main external call, fill the digi hit vector ">
<polygon fill="none" stroke="black" points="202.5,-522.5 202.5,-541.5 327.5,-541.5 327.5,-522.5 202.5,-522.5"/>
<text text-anchor="middle" x="265" y="-529.5" font-family="FreeSans" font-size="10.00">SQDigitizer::digitizePlane</text>
</a>
</g>
</g>
<!-- Node1&#45;&gt;Node2 -->
<g id="edge1" class="edge"><title>Node1&#45;&gt;Node2</title>
<path fill="none" stroke="midnightblue" d="M79.9735,-299.983C89.8071,-344.179 119.46,-450.82 186,-508 193.414,-514.372 202.499,-519.052 211.814,-522.49"/>
<polygon fill="midnightblue" stroke="midnightblue" points="83.3414,-298.992 77.8448,-289.935 76.4934,-300.443 83.3414,-298.992"/>
</g>
<!-- Node4 -->
<g id="node4" class="node"><title>Node4</title>
<g id="a_node4"><a xlink:href="../../d9/d7c/namespaceUtilHodo.html#aa969bb67fd62bb607c12ca68a992c69a" target="_top" xlink:title="UtilHodo::GetElementPos">
<polygon fill="none" stroke="black" points="202.5,-479.5 202.5,-498.5 327.5,-498.5 327.5,-479.5 202.5,-479.5"/>
<text text-anchor="middle" x="265" y="-486.5" font-family="FreeSans" font-size="10.00">UtilHodo::GetElementPos</text>
</a>
</g>
</g>
<!-- Node1&#45;&gt;Node4 -->
<g id="edge3" class="edge"><title>Node1&#45;&gt;Node4</title>
<path fill="none" stroke="midnightblue" d="M81.667,-299.773C93.8939,-338.738 126.563,-425.518 186,-470 191.133,-473.841 196.94,-476.916 203.012,-479.375"/>
<polygon fill="midnightblue" stroke="midnightblue" points="84.8737,-298.283 78.6377,-289.718 78.1713,-300.302 84.8737,-298.283"/>
</g>
<!-- Node7 -->
<g id="node7" class="node"><title>Node7</title>
<g id="a_node7"><a xlink:href="../../d5/d72/classTriggerRoad.html#a427d8d8c38db73607327ca6ae3b389b4" target="_top" xlink:title="TriggerRoad::getLR">
<polygon fill="none" stroke="black" points="215.5,-441.5 215.5,-460.5 314.5,-460.5 314.5,-441.5 215.5,-441.5"/>
<text text-anchor="middle" x="265" y="-448.5" font-family="FreeSans" font-size="10.00">TriggerRoad::getLR</text>
</a>
</g>
</g>
<!-- Node1&#45;&gt;Node7 -->
<g id="edge6" class="edge"><title>Node1&#45;&gt;Node7</title>
<path fill="none" stroke="midnightblue" d="M84.2582,-298.941C99.4501,-331.466 135.01,-397.738 186,-432 194.676,-437.83 204.964,-441.875 215.174,-444.68"/>
<polygon fill="midnightblue" stroke="midnightblue" points="87.3633,-297.313 80.0477,-289.649 80.9874,-300.203 87.3633,-297.313"/>
</g>
<!-- Node8 -->
<g id="node8" class="node"><title>Node8</title>
<g id="a_node8"><a xlink:href="../../db/d63/classAnaEffCham.html#a021930645fd4860443e719041e2c1604" target="_top" xlink:title="AnaEffCham::Init">
<polygon fill="none" stroke="black" points="221,-403.5 221,-422.5 309,-422.5 309,-403.5 221,-403.5"/>
<text text-anchor="middle" x="265" y="-410.5" font-family="FreeSans" font-size="10.00">AnaEffCham::Init</text>
</a>
</g>
</g>
<!-- Node1&#45;&gt;Node8 -->
<g id="edge7" class="edge"><title>Node1&#45;&gt;Node8</title>
<path fill="none" stroke="midnightblue" d="M88.2755,-298.078C106.529,-323.513 143.3,-369.49 186,-394 196.516,-400.037 208.893,-404.165 220.652,-406.984"/>
<polygon fill="midnightblue" stroke="midnightblue" points="91.0181,-295.893 82.4115,-289.714 85.2865,-299.911 91.0181,-295.893"/>
</g>
<!-- Node9 -->
<g id="node9" class="node"><title>Node9</title>
<g id="a_node9"><a xlink:href="../../d5/dda/classEventReducer.html#ae3e92e9415e867a14780af5c1d2ad78c" target="_top" xlink:title="EventReducer::initHodoMaskLUT">
<polygon fill="none" stroke="black" points="186,-365.5 186,-384.5 344,-384.5 344,-365.5 186,-365.5"/>
<text text-anchor="middle" x="265" y="-372.5" font-family="FreeSans" font-size="10.00">EventReducer::initHodoMaskLUT</text>
</a>
</g>
</g>
<!-- Node1&#45;&gt;Node9 -->
<g id="edge8" class="edge"><title>Node1&#45;&gt;Node9</title>
<path fill="none" stroke="midnightblue" d="M94.8159,-296.241C115.739,-313.492 151.193,-340.382 186,-356 194.52,-359.823 203.923,-362.946 213.163,-365.474"/>
<polygon fill="midnightblue" stroke="midnightblue" points="96.9456,-293.46 87.0348,-289.715 92.4471,-298.823 96.9456,-293.46"/>
</g>
<!-- Node11 -->
<g id="node11" class="node"><title>Node11</title>
<g id="a_node11"><a xlink:href="../../d0/d63/classAnaRealDst.html#a0e3d58e69746659214a73bb9460ae7d7" target="_top" xlink:title="AnaRealDst::InitRun">
<polygon fill="none" stroke="black" points="213.5,-327.5 213.5,-346.5 316.5,-346.5 316.5,-327.5 213.5,-327.5"/>
<text text-anchor="middle" x="265" y="-334.5" font-family="FreeSans" font-size="10.00">AnaRealDst::InitRun</text>
</a>
</g>
</g>
<!-- Node1&#45;&gt;Node11 -->
<g id="edge10" class="edge"><title>Node1&#45;&gt;Node11</title>
<path fill="none" stroke="midnightblue" d="M111.221,-293.11C132.674,-300.859 160.73,-310.575 186,-318 197.5,-321.379 210.076,-324.632 221.708,-327.462"/>
<polygon fill="midnightblue" stroke="midnightblue" points="112.156,-289.726 101.562,-289.593 109.761,-296.304 112.156,-289.726"/>
</g>
<!-- Node12 -->
<g id="node12" class="node"><title>Node12</title>
<g id="a_node12"><a xlink:href="../../d7/dac/classOnlMonProp.html#aeb8c4230a23173cc8d3d27db00d98be0" target="_top" xlink:title="OnlMonProp::InitRunOnlMon">
<polygon fill="none" stroke="black" points="195,-289.5 195,-308.5 335,-308.5 335,-289.5 195,-289.5"/>
<text text-anchor="middle" x="265" y="-296.5" font-family="FreeSans" font-size="10.00">OnlMonProp::InitRunOnlMon</text>
</a>
</g>
</g>
<!-- Node1&#45;&gt;Node12 -->
<g id="edge11" class="edge"><title>Node1&#45;&gt;Node12</title>
<path fill="none" stroke="midnightblue" d="M159.922,-288.481C171.563,-289.658 183.413,-290.856 194.747,-292.001"/>
<polygon fill="midnightblue" stroke="midnightblue" points="160.064,-284.978 149.763,-287.455 159.36,-291.943 160.064,-284.978"/>
</g>
<!-- Node13 -->
<g id="node13" class="node"><title>Node13</title>
<g id="a_node13"><a xlink:href="../../db/d15/classOnlMonCham.html#aaf9e68b3b806ed449fb7d5e3e54b03cd" target="_top" xlink:title="OnlMonCham::InitRunOnlMon">
<polygon fill="none" stroke="black" points="192.5,-251.5 192.5,-270.5 337.5,-270.5 337.5,-251.5 192.5,-251.5"/>
<text text-anchor="middle" x="265" y="-258.5" font-family="FreeSans" font-size="10.00">OnlMonCham::InitRunOnlMon</text>
</a>
</g>
</g>
<!-- Node1&#45;&gt;Node13 -->
<g id="edge12" class="edge"><title>Node1&#45;&gt;Node13</title>
<path fill="none" stroke="midnightblue" d="M160.02,-271.509C170.793,-270.42 181.744,-269.313 192.297,-268.247"/>
<polygon fill="midnightblue" stroke="midnightblue" points="159.36,-268.057 149.763,-272.545 160.064,-275.022 159.36,-268.057"/>
</g>
<!-- Node14 -->
<g id="node14" class="node"><title>Node14</title>
<g id="a_node14"><a xlink:href="../../d8/dc8/classOnlMonHodo.html#a7722572b5da3befd0a1d4ccbae0f903d" target="_top" xlink:title="OnlMonHodo::InitRunOnlMon">
<polygon fill="none" stroke="black" points="194,-213.5 194,-232.5 336,-232.5 336,-213.5 194,-213.5"/>
<text text-anchor="middle" x="265" y="-220.5" font-family="FreeSans" font-size="10.00">OnlMonHodo::InitRunOnlMon</text>
</a>
</g>
</g>
<!-- Node1&#45;&gt;Node14 -->
<g id="edge13" class="edge"><title>Node1&#45;&gt;Node14</title>
<path fill="none" stroke="midnightblue" d="M111.221,-266.89C132.674,-259.141 160.73,-249.425 186,-242 197.5,-238.621 210.076,-235.368 221.708,-232.538"/>
<polygon fill="midnightblue" stroke="midnightblue" points="109.761,-263.696 101.562,-270.407 112.156,-270.274 109.761,-263.696"/>
</g>
<!-- Node15 -->
<g id="node15" class="node"><title>Node15</title>
<g id="a_node15"><a xlink:href="../../d2/d02/classOnlMonH4.html#a4903332f47864785a12cf8f4938dd0c3" target="_top" xlink:title="OnlMonH4::InitRunOnlMon">
<polygon fill="none" stroke="black" points="199.5,-175.5 199.5,-194.5 330.5,-194.5 330.5,-175.5 199.5,-175.5"/>
<text text-anchor="middle" x="265" y="-182.5" font-family="FreeSans" font-size="10.00">OnlMonH4::InitRunOnlMon</text>
</a>
</g>
</g>
<!-- Node1&#45;&gt;Node15 -->
<g id="edge14" class="edge"><title>Node1&#45;&gt;Node15</title>
<path fill="none" stroke="midnightblue" d="M94.8159,-263.759C115.739,-246.508 151.193,-219.618 186,-204 194.52,-200.177 203.923,-197.054 213.163,-194.526"/>
<polygon fill="midnightblue" stroke="midnightblue" points="92.4471,-261.177 87.0348,-270.285 96.9456,-266.54 92.4471,-261.177"/>
</g>
<!-- Node16 -->
<g id="node16" class="node"><title>Node16</title>
<g id="a_node16"><a xlink:href="../../d6/d41/classOnlMonV1495.html#a89a01d9a67e3993664c0ebaa343bdf77" target="_top" xlink:title="OnlMonV1495::InitRunOnlMon">
<polygon fill="none" stroke="black" points="192,-137.5 192,-156.5 338,-156.5 338,-137.5 192,-137.5"/>
<text text-anchor="middle" x="265" y="-144.5" font-family="FreeSans" font-size="10.00">OnlMonV1495::InitRunOnlMon</text>
</a>
</g>
</g>
<!-- Node1&#45;&gt;Node16 -->
<g id="edge15" class="edge"><title>Node1&#45;&gt;Node16</title>
<path fill="none" stroke="midnightblue" d="M88.2755,-261.922C106.529,-236.487 143.3,-190.51 186,-166 192.769,-162.114 200.309,-159.02 207.959,-156.555"/>
<polygon fill="midnightblue" stroke="midnightblue" points="85.2865,-260.089 82.4115,-270.286 91.0181,-264.107 85.2865,-260.089"/>
</g>
<!-- Node17 -->
<g id="node17" class="node"><title>Node17</title>
<g id="a_node17"><a xlink:href="../../dc/da8/classAnaModule.html#ae3ca49406af66b8b7dd5724f48802c59" target="_top" xlink:title="AnaModule::process\l_event">
<polygon fill="none" stroke="black" points="213.5,-88 213.5,-118 316.5,-118 316.5,-88 213.5,-88"/>
<text text-anchor="start" x="221.5" y="-106" font-family="FreeSans" font-size="10.00">AnaModule::process</text>
<text text-anchor="middle" x="265" y="-95" font-family="FreeSans" font-size="10.00">_event</text>
</a>
</g>
</g>
<!-- Node1&#45;&gt;Node17 -->
<g id="edge16" class="edge"><title>Node1&#45;&gt;Node17</title>
<path fill="none" stroke="midnightblue" d="M84.7439,-260.972C100.456,-228.853 136.501,-163.883 186,-128 194.174,-122.074 203.814,-117.512 213.478,-114.014"/>
<polygon fill="midnightblue" stroke="midnightblue" points="81.5046,-259.633 80.3657,-270.167 87.8248,-262.643 81.5046,-259.633"/>
</g>
<!-- Node18 -->
<g id="node18" class="node"><title>Node18</title>
<g id="a_node18"><a xlink:href="../../d8/d3e/classSimpleTree.html#a5b31087274e5e810e670395c811fd358" target="_top" xlink:title="SimpleTree::process\l_event">
<polygon fill="none" stroke="black" points="213,-39 213,-69 317,-69 317,-39 213,-39"/>
<text text-anchor="start" x="221" y="-57" font-family="FreeSans" font-size="10.00">SimpleTree::process</text>
<text text-anchor="middle" x="265" y="-46" font-family="FreeSans" font-size="10.00">_event</text>
</a>
</g>
</g>
<!-- Node1&#45;&gt;Node18 -->
<g id="edge17" class="edge"><title>Node1&#45;&gt;Node18</title>
<path fill="none" stroke="midnightblue" d="M81.2911,-260.552C93.1619,-220.578 125.712,-128.769 186,-79 193.786,-72.5724 203.253,-67.7871 212.87,-64.2276"/>
<polygon fill="midnightblue" stroke="midnightblue" points="77.8667,-259.797 78.4854,-270.374 84.5975,-261.72 77.8667,-259.797"/>
</g>
<!-- Node19 -->
<g id="node19" class="node"><title>Node19</title>
<g id="a_node19"><a xlink:href="../../d5/d72/classTriggerRoad.html#a71ff7e1e5775fd38a6f14bc72948ed89" target="_top" xlink:title="TriggerRoad::reflectLR">
<polygon fill="none" stroke="black" points="209,-0.5 209,-19.5 321,-19.5 321,-0.5 209,-0.5"/>
<text text-anchor="middle" x="265" y="-7.5" font-family="FreeSans" font-size="10.00">TriggerRoad::reflectLR</text>
</a>
</g>
</g>
<!-- Node1&#45;&gt;Node19 -->
<g id="edge18" class="edge"><title>Node1&#45;&gt;Node19</title>
<path fill="none" stroke="midnightblue" d="M78.7795,-260.145C86.498,-212.726 112.683,-92.2126 186,-30 192.609,-24.3922 200.592,-20.3275 208.895,-17.3875"/>
<polygon fill="midnightblue" stroke="midnightblue" points="75.277,-259.897 77.2308,-270.31 82.1971,-260.951 75.277,-259.897"/>
</g>
<!-- Node3 -->
<g id="node3" class="node"><title>Node3</title>
<g id="a_node3"><a xlink:href="../../df/d36/classSQDigitizer.html#a6fd850ed7dfbdeaeac53ef644c9f9eda" target="_top" xlink:title="event processing ">
<polygon fill="none" stroke="black" points="399.5,-520 399.5,-550 502.5,-550 502.5,-520 399.5,-520"/>
<text text-anchor="start" x="407.5" y="-538" font-family="FreeSans" font-size="10.00">SQDigitizer::process</text>
<text text-anchor="middle" x="451" y="-527" font-family="FreeSans" font-size="10.00">_event</text>
</a>
</g>
</g>
<!-- Node2&#45;&gt;Node3 -->
<g id="edge2" class="edge"><title>Node2&#45;&gt;Node3</title>
<path fill="none" stroke="midnightblue" d="M337.79,-533.17C358.322,-533.505 380.267,-533.863 399.256,-534.173"/>
<polygon fill="midnightblue" stroke="midnightblue" points="337.581,-529.667 327.525,-533.003 337.467,-536.666 337.581,-529.667"/>
</g>
<!-- Node5 -->
<g id="node5" class="node"><title>Node5</title>
<g id="a_node5"><a xlink:href="../../d3/d4a/structUtilHodo_1_1Track1D.html#abd7234340c4ee7dc5c111cdcbe9f7ead" target="_top" xlink:title="UtilHodo::Track1D::\lDoTracking">
<polygon fill="none" stroke="black" points="401.5,-471 401.5,-501 500.5,-501 500.5,-471 401.5,-471"/>
<text text-anchor="start" x="409.5" y="-489" font-family="FreeSans" font-size="10.00">UtilHodo::Track1D::</text>
<text text-anchor="middle" x="451" y="-478" font-family="FreeSans" font-size="10.00">DoTracking</text>
</a>
</g>
</g>
<!-- Node4&#45;&gt;Node5 -->
<g id="edge4" class="edge"><title>Node4&#45;&gt;Node5</title>
<path fill="none" stroke="midnightblue" d="M337.536,-487.834C358.895,-487.485 381.803,-487.112 401.334,-486.793"/>
<polygon fill="midnightblue" stroke="midnightblue" points="337.467,-484.334 327.525,-487.997 337.581,-491.333 337.467,-484.334"/>
</g>
<!-- Node6 -->
<g id="node6" class="node"><title>Node6</title>
<g id="a_node6"><a xlink:href="../../dd/df6/structUtilHodo_1_1Track2D.html#ac5b5097bfb0520a4c6c3511b00d6180b" target="_top" xlink:title="UtilHodo::Track2D::\lDoTracking">
<polygon fill="none" stroke="black" points="558.5,-471 558.5,-501 657.5,-501 657.5,-471 558.5,-471"/>
<text text-anchor="start" x="566.5" y="-489" font-family="FreeSans" font-size="10.00">UtilHodo::Track2D::</text>
<text text-anchor="middle" x="608" y="-478" font-family="FreeSans" font-size="10.00">DoTracking</text>
</a>
</g>
</g>
<!-- Node5&#45;&gt;Node6 -->
<g id="edge5" class="edge"><title>Node5&#45;&gt;Node6</title>
<path fill="none" stroke="midnightblue" d="M510.74,-486C526.427,-486 543.206,-486 558.289,-486"/>
<polygon fill="midnightblue" stroke="midnightblue" points="510.618,-482.5 500.618,-486 510.618,-489.5 510.618,-482.5"/>
</g>
<!-- Node10 -->
<g id="node10" class="node"><title>Node10</title>
<g id="a_node10"><a xlink:href="../../d5/dda/classEventReducer.html#a561a06dc56cee12696d12ba18d207433" target="_top" xlink:title="EventReducer::EventReducer">
<polygon fill="none" stroke="black" points="380.5,-365.5 380.5,-384.5 521.5,-384.5 521.5,-365.5 380.5,-365.5"/>
<text text-anchor="middle" x="451" y="-372.5" font-family="FreeSans" font-size="10.00">EventReducer::EventReducer</text>
</a>
</g>
</g>
<!-- Node9&#45;&gt;Node10 -->
<g id="edge9" class="edge"><title>Node9&#45;&gt;Node10</title>
<path fill="none" stroke="midnightblue" d="M354.256,-375C362.999,-375 371.788,-375 380.304,-375"/>
<polygon fill="midnightblue" stroke="midnightblue" points="354.033,-371.5 344.033,-375 354.033,-378.5 354.033,-371.5"/>
</g>
</g>
</svg>
