<?xml version="1.0" encoding="UTF-8" standalone="no"?>
<!DOCTYPE svg PUBLIC "-//W3C//DTD SVG 1.1//EN"
 "http://www.w3.org/Graphics/SVG/1.1/DTD/svg11.dtd">
<!-- Generated by graphviz version 2.44.0 (0)
 -->
<!-- Title: GeomSvc::getMeasurement Pages: 1 -->
<svg width="887pt" height="596pt"
 viewBox="0.00 0.00 887.00 596.00" xmlns="http://www.w3.org/2000/svg" xmlns:xlink="http://www.w3.org/1999/xlink">
<g id="graph0" class="graph" transform="scale(1 1) rotate(0) translate(4 592)">
<title>GeomSvc::getMeasurement</title>
<!-- Node1 -->
<g id="node1" class="node">
<title>Node1</title>
<g id="a_node1"><a xlink:title="Convert the detectorID and elementID to the actual hit position.">
<polygon fill="#bfbfbf" stroke="black" points="727,-317 727,-336 879,-336 879,-317 727,-317"/>
<text text-anchor="middle" x="803" y="-324" font-family="FreeSans" font-size="10.00">GeomSvc::getMeasurement</text>
</a>
</g>
</g>
<!-- Node2 -->
<g id="node2" class="node">
<title>Node2</title>
<g id="a_node2"><a xlink:href="../../df/d36/classSQDigitizer.html#a6888088bc0f09a34957d84e24ba7926b" target="_top" xlink:title="main external call, fill the digi hit vector">
<polygon fill="none" stroke="black" points="546.5,-563 546.5,-582 686.5,-582 686.5,-563 546.5,-563"/>
<text text-anchor="middle" x="616.5" y="-570" font-family="FreeSans" font-size="10.00">SQDigitizer::digitizePlane</text>
</a>
</g>
</g>
<!-- Node1&#45;&gt;Node2 -->
<g id="edge1" class="edge">
<title>Node1&#45;&gt;Node2</title>
<path fill="none" stroke="midnightblue" d="M798.23,-346.01C788.65,-390.1 759.16,-497.88 691,-553.5 686.3,-557.33 680.92,-560.4 675.25,-562.86"/>
<polygon fill="midnightblue" stroke="midnightblue" points="801.69,-346.52 800.29,-336.02 794.84,-345.11 801.69,-346.52"/>
</g>
<!-- Node4 -->
<g id="node4" class="node">
<title>Node4</title>
<g id="a_node4"><a xlink:href="../../d2/dc4/classGetRoad.html#a78ede3599a3814162be690704d27cc94" target="_top" xlink:title=" ">
<polygon fill="none" stroke="black" points="550,-525 550,-544 683,-544 683,-525 550,-525"/>
<text text-anchor="middle" x="616.5" y="-532" font-family="FreeSans" font-size="10.00">GetRoad::get_mc_roads</text>
</a>
</g>
</g>
<!-- Node1&#45;&gt;Node4 -->
<g id="edge3" class="edge">
<title>Node1&#45;&gt;Node4</title>
<path fill="none" stroke="midnightblue" d="M796.14,-346.1C783.56,-384.74 750.17,-470.86 691,-515.5 685.84,-519.39 679.97,-522.49 673.84,-524.95"/>
<polygon fill="midnightblue" stroke="midnightblue" points="799.62,-346.72 799.27,-336.13 792.94,-344.63 799.62,-346.72"/>
</g>
<!-- Node6 -->
<g id="node6" class="node">
<title>Node6</title>
<g id="a_node6"><a xlink:href="../../d2/dc4/classGetRoad.html#a13029c3c4e4a3b94f1b196b50ada696c" target="_top" xlink:title=" ">
<polygon fill="none" stroke="black" points="550,-487 550,-506 683,-506 683,-487 550,-487"/>
<text text-anchor="middle" x="616.5" y="-494" font-family="FreeSans" font-size="10.00">GetRoad::get_old_roads</text>
</a>
</g>
</g>
<!-- Node1&#45;&gt;Node6 -->
<g id="edge5" class="edge">
<title>Node1&#45;&gt;Node6</title>
<path fill="none" stroke="midnightblue" d="M793.53,-345.24C778,-377.44 741.82,-443.11 691,-477.5 685.21,-481.41 678.67,-484.52 671.94,-486.99"/>
<polygon fill="midnightblue" stroke="midnightblue" points="796.77,-346.59 797.84,-336.05 790.43,-343.62 796.77,-346.59"/>
</g>
<!-- Node7 -->
<g id="node7" class="node">
<title>Node7</title>
<g id="a_node7"><a xlink:href="../../d3/de7/classmTrkEveDisplay.html#a2d81773e8944852045fb20a235565ad8" target="_top" xlink:title=" ">
<polygon fill="none" stroke="black" points="560,-437.5 560,-467.5 673,-467.5 673,-437.5 560,-437.5"/>
<text text-anchor="start" x="568" y="-455.5" font-family="FreeSans" font-size="10.00">mTrkEveDisplay::hit</text>
<text text-anchor="middle" x="616.5" y="-444.5" font-family="FreeSans" font-size="10.00">_to_wire</text>
</a>
</g>
</g>
<!-- Node1&#45;&gt;Node7 -->
<g id="edge7" class="edge">
<title>Node1&#45;&gt;Node7</title>
<path fill="none" stroke="midnightblue" d="M787.08,-343.94C767.21,-366.17 730,-404.49 691,-427.5 684.62,-431.27 677.58,-434.57 670.47,-437.43"/>
<polygon fill="midnightblue" stroke="midnightblue" points="789.84,-346.09 793.81,-336.27 784.59,-341.47 789.84,-346.09"/>
</g>
<!-- Node10 -->
<g id="node10" class="node">
<title>Node10</title>
<g id="a_node10"><a xlink:href="../../d9/dc3/classKalmanTrack.html#a392fa7ce5fc124148eb469689fbb5398" target="_top" xlink:title=" ">
<polygon fill="none" stroke="black" points="542,-399 542,-418 691,-418 691,-399 542,-399"/>
<text text-anchor="middle" x="616.5" y="-406" font-family="FreeSans" font-size="10.00">KalmanTrack::KalmanTrack</text>
</a>
</g>
</g>
<!-- Node1&#45;&gt;Node10 -->
<g id="edge10" class="edge">
<title>Node1&#45;&gt;Node10</title>
<path fill="none" stroke="midnightblue" d="M779.35,-341.72C757.53,-355.81 723.17,-376.48 691,-389.5 681.84,-393.21 671.73,-396.38 662.03,-399"/>
<polygon fill="midnightblue" stroke="midnightblue" points="781.44,-344.54 787.89,-336.13 777.61,-338.68 781.44,-344.54"/>
</g>
<!-- Node11 -->
<g id="node11" class="node">
<title>Node11</title>
<g id="a_node11"><a xlink:href="../../db/d86/test__minimum_8cxx.html#a0ddf1224851353fc92bfbff6f499fa97" target="_top" xlink:title=" ">
<polygon fill="none" stroke="black" points="596,-361 596,-380 637,-380 637,-361 596,-361"/>
<text text-anchor="middle" x="616.5" y="-368" font-family="FreeSans" font-size="10.00">main</text>
</a>
</g>
</g>
<!-- Node1&#45;&gt;Node11 -->
<g id="edge11" class="edge">
<title>Node1&#45;&gt;Node11</title>
<path fill="none" stroke="midnightblue" d="M752.13,-338.39C714.26,-347.42 664.22,-359.36 637.06,-365.83"/>
<polygon fill="midnightblue" stroke="midnightblue" points="753.05,-341.77 761.97,-336.05 751.43,-334.96 753.05,-341.77"/>
</g>
<!-- Node12 -->
<g id="node12" class="node">
<title>Node12</title>
<g id="a_node12"><a xlink:href="../../d7/d94/classCalibHitPos.html#a975f1d3dbed30c75e314c1d5983c44e7" target="_top" xlink:title=" ">
<polygon fill="none" stroke="black" points="558.5,-311.5 558.5,-341.5 674.5,-341.5 674.5,-311.5 558.5,-311.5"/>
<text text-anchor="start" x="566.5" y="-329.5" font-family="FreeSans" font-size="10.00">CalibHitPos::process</text>
<text text-anchor="middle" x="616.5" y="-318.5" font-family="FreeSans" font-size="10.00">_event</text>
</a>
</g>
</g>
<!-- Node1&#45;&gt;Node12 -->
<g id="edge12" class="edge">
<title>Node1&#45;&gt;Node12</title>
<path fill="none" stroke="midnightblue" d="M716.65,-326.5C702.41,-326.5 687.96,-326.5 674.64,-326.5"/>
<polygon fill="midnightblue" stroke="midnightblue" points="716.96,-330 726.96,-326.5 716.96,-323 716.96,-330"/>
</g>
<!-- Node13 -->
<g id="node13" class="node">
<title>Node13</title>
<g id="a_node13"><a xlink:href="../../dd/def/classCalibDriftDistMod.html#a8cc51b4283e0e730ad4ddb0d29aaa0fd" target="_top" xlink:title=" ">
<polygon fill="none" stroke="black" points="562,-262.5 562,-292.5 671,-292.5 671,-262.5 562,-262.5"/>
<text text-anchor="start" x="570" y="-280.5" font-family="FreeSans" font-size="10.00">CalibDriftDistMod::</text>
<text text-anchor="middle" x="616.5" y="-269.5" font-family="FreeSans" font-size="10.00">process_event</text>
</a>
</g>
</g>
<!-- Node1&#45;&gt;Node13 -->
<g id="edge13" class="edge">
<title>Node1&#45;&gt;Node13</title>
<path fill="none" stroke="midnightblue" d="M756.11,-314.31C730.39,-307.48 698.16,-298.92 671.25,-291.78"/>
<polygon fill="midnightblue" stroke="midnightblue" points="755.43,-317.75 765.99,-316.94 757.22,-310.99 755.43,-317.75"/>
</g>
<!-- Node14 -->
<g id="node14" class="node">
<title>Node14</title>
<g id="a_node14"><a xlink:href="../../d4/d73/classCalibDriftDist.html#ae4814127cc445b6b5af87e2311750146" target="_top" xlink:title=" ">
<polygon fill="none" stroke="black" points="554,-213.5 554,-243.5 679,-243.5 679,-213.5 554,-213.5"/>
<text text-anchor="start" x="562" y="-231.5" font-family="FreeSans" font-size="10.00">CalibDriftDist::process</text>
<text text-anchor="middle" x="616.5" y="-220.5" font-family="FreeSans" font-size="10.00">_event</text>
</a>
</g>
</g>
<!-- Node1&#45;&gt;Node14 -->
<g id="edge14" class="edge">
<title>Node1&#45;&gt;Node14</title>
<path fill="none" stroke="midnightblue" d="M781.56,-310.76C759.98,-294.7 724.51,-269.89 691,-253.5 683.61,-249.89 675.57,-246.58 667.61,-243.63"/>
<polygon fill="midnightblue" stroke="midnightblue" points="779.55,-313.63 789.65,-316.85 783.76,-308.04 779.55,-313.63"/>
</g>
<!-- Node15 -->
<g id="node15" class="node">
<title>Node15</title>
<g id="a_node15"><a xlink:href="../../d0/de5/classCalibHitElementPos.html#a0b3a48a10da4c9182d62f49e1cbc56e2" target="_top" xlink:title=" ">
<polygon fill="none" stroke="black" points="560,-164.5 560,-194.5 673,-194.5 673,-164.5 560,-164.5"/>
<text text-anchor="start" x="568" y="-182.5" font-family="FreeSans" font-size="10.00">CalibHitElementPos</text>
<text text-anchor="middle" x="616.5" y="-171.5" font-family="FreeSans" font-size="10.00">::process_event</text>
</a>
</g>
</g>
<!-- Node1&#45;&gt;Node15 -->
<g id="edge15" class="edge">
<title>Node1&#45;&gt;Node15</title>
<path fill="none" stroke="midnightblue" d="M790.07,-308.4C771.76,-281.97 734.27,-232.87 691,-204.5 685.14,-200.66 678.63,-197.34 671.97,-194.5"/>
<polygon fill="midnightblue" stroke="midnightblue" points="787.21,-310.43 795.72,-316.74 793.01,-306.5 787.21,-310.43"/>
</g>
<!-- Node16 -->
<g id="node16" class="node">
<title>Node16</title>
<g id="a_node16"><a xlink:href="../../d9/d0c/classRndmEmbed.html#aab52cc2c180db26dd572a3556c8d6d9e" target="_top" xlink:title=" ">
<polygon fill="none" stroke="black" points="555.5,-115.5 555.5,-145.5 677.5,-145.5 677.5,-115.5 555.5,-115.5"/>
<text text-anchor="start" x="563.5" y="-133.5" font-family="FreeSans" font-size="10.00">RndmEmbed::process</text>
<text text-anchor="middle" x="616.5" y="-122.5" font-family="FreeSans" font-size="10.00">_event</text>
</a>
</g>
</g>
<!-- Node1&#45;&gt;Node16 -->
<g id="edge16" class="edge">
<title>Node1&#45;&gt;Node16</title>
<path fill="none" stroke="midnightblue" d="M794.53,-307.18C779.96,-271.95 744.41,-197.07 691,-155.5 686,-151.61 680.36,-148.3 674.48,-145.5"/>
<polygon fill="midnightblue" stroke="midnightblue" points="791.41,-308.78 798.38,-316.76 797.9,-306.17 791.41,-308.78"/>
</g>
<!-- Node17 -->
<g id="node17" class="node">
<title>Node17</title>
<g id="a_node17"><a xlink:href="../../d4/d36/classSRawEventEmbed.html#a0041b344c23d0d679125dbb74aa1652b" target="_top" xlink:title=" ">
<polygon fill="none" stroke="black" points="542,-66.5 542,-96.5 691,-96.5 691,-66.5 542,-66.5"/>
<text text-anchor="start" x="550" y="-84.5" font-family="FreeSans" font-size="10.00">SRawEventEmbed::process</text>
<text text-anchor="middle" x="616.5" y="-73.5" font-family="FreeSans" font-size="10.00">_event</text>
</a>
</g>
</g>
<!-- Node1&#45;&gt;Node17 -->
<g id="edge17" class="edge">
<title>Node1&#45;&gt;Node17</title>
<path fill="none" stroke="midnightblue" d="M797.53,-307.07C786.75,-264.52 755.31,-162.42 691,-106.5 686.52,-102.61 681.42,-99.32 676.03,-96.53"/>
<polygon fill="midnightblue" stroke="midnightblue" points="794.17,-308.09 799.93,-316.98 800.98,-306.44 794.17,-308.09"/>
</g>
<!-- Node18 -->
<g id="node18" class="node">
<title>Node18</title>
<g id="a_node18"><a xlink:href="../../d6/deb/classTriggerAnalyzer.html#a95f1cd767179e609427ece340612d01e" target="_top" xlink:title=" ">
<polygon fill="none" stroke="black" points="543.5,-28 543.5,-47 689.5,-47 689.5,-28 543.5,-28"/>
<text text-anchor="middle" x="616.5" y="-35" font-family="FreeSans" font-size="10.00">TriggerAnalyzer::trimEvent</text>
</a>
</g>
</g>
<!-- Node1&#45;&gt;Node18 -->
<g id="edge18" class="edge">
<title>Node1&#45;&gt;Node18</title>
<path fill="none" stroke="midnightblue" d="M799.79,-306.9C793.14,-257.32 768.7,-126 691,-57.5 686.04,-53.13 680.21,-49.7 674.05,-47.01"/>
<polygon fill="midnightblue" stroke="midnightblue" points="796.33,-307.44 801.04,-316.93 803.28,-306.58 796.33,-307.44"/>
</g>
<!-- Node3 -->
<g id="node3" class="node">
<title>Node3</title>
<g id="a_node3"><a xlink:href="../../df/d36/classSQDigitizer.html#a6fd850ed7dfbdeaeac53ef644c9f9eda" target="_top" xlink:title="event processing">
<polygon fill="none" stroke="black" points="373,-557.5 373,-587.5 488,-587.5 488,-557.5 373,-557.5"/>
<text text-anchor="start" x="381" y="-575.5" font-family="FreeSans" font-size="10.00">SQDigitizer::process</text>
<text text-anchor="middle" x="430.5" y="-564.5" font-family="FreeSans" font-size="10.00">_event</text>
</a>
</g>
</g>
<!-- Node2&#45;&gt;Node3 -->
<g id="edge2" class="edge">
<title>Node2&#45;&gt;Node3</title>
<path fill="none" stroke="midnightblue" d="M536.42,-572.5C520.14,-572.5 503.31,-572.5 488.02,-572.5"/>
<polygon fill="midnightblue" stroke="midnightblue" points="536.46,-576 546.46,-572.5 536.46,-569 536.46,-576"/>
</g>
<!-- Node5 -->
<g id="node5" class="node">
<title>Node5</title>
<g id="a_node5"><a xlink:href="../../d2/dc4/classGetRoad.html#a7c59356dfb86e567a7eb931fd2ac8fe3" target="_top" xlink:title=" ">
<polygon fill="none" stroke="black" points="377,-503 377,-522 484,-522 484,-503 377,-503"/>
<text text-anchor="middle" x="430.5" y="-510" font-family="FreeSans" font-size="10.00">GetRoad::GetRoad</text>
</a>
</g>
</g>
<!-- Node4&#45;&gt;Node5 -->
<g id="edge4" class="edge">
<title>Node4&#45;&gt;Node5</title>
<path fill="none" stroke="midnightblue" d="M539.86,-525.46C521.14,-523.22 501.48,-520.87 484.13,-518.79"/>
<polygon fill="midnightblue" stroke="midnightblue" points="539.51,-528.94 549.85,-526.65 540.34,-521.99 539.51,-528.94"/>
</g>
<!-- Node6&#45;&gt;Node5 -->
<g id="edge6" class="edge">
<title>Node6&#45;&gt;Node5</title>
<path fill="none" stroke="midnightblue" d="M539.86,-503.08C521.14,-504.71 501.48,-506.41 484.13,-507.92"/>
<polygon fill="midnightblue" stroke="midnightblue" points="540.19,-506.56 549.85,-502.21 539.59,-499.59 540.19,-506.56"/>
</g>
<!-- Node8 -->
<g id="node8" class="node">
<title>Node8</title>
<g id="a_node8"><a xlink:href="../../d3/de7/classmTrkEveDisplay.html#a364f4ae0f30bf1fa50f30d6b6a222647" target="_top" xlink:title=" ">
<polygon fill="none" stroke="black" points="356.5,-443 356.5,-462 504.5,-462 504.5,-443 356.5,-443"/>
<text text-anchor="middle" x="430.5" y="-450" font-family="FreeSans" font-size="10.00">mTrkEveDisplay::draw_hits</text>
</a>
</g>
</g>
<!-- Node7&#45;&gt;Node8 -->
<g id="edge8" class="edge">
<title>Node7&#45;&gt;Node8</title>
<path fill="none" stroke="midnightblue" d="M549.42,-452.5C534.91,-452.5 519.47,-452.5 504.7,-452.5"/>
<polygon fill="midnightblue" stroke="midnightblue" points="549.79,-456 559.79,-452.5 549.79,-449 549.79,-456"/>
</g>
<!-- Node9 -->
<g id="node9" class="node">
<title>Node9</title>
<g id="a_node9"><a xlink:href="../../d3/de7/classmTrkEveDisplay.html#aa3ce5d6c62c7c75bcb098cf992b788e1" target="_top" xlink:title=" ">
<polygon fill="none" stroke="black" points="181.5,-443 181.5,-462 309.5,-462 309.5,-443 181.5,-443"/>
<text text-anchor="middle" x="245.5" y="-450" font-family="FreeSans" font-size="10.00">mTrkEveDisplay::event</text>
</a>
</g>
</g>
<!-- Node8&#45;&gt;Node9 -->
<g id="edge9" class="edge">
<title>Node8&#45;&gt;Node9</title>
<path fill="none" stroke="midnightblue" d="M346.17,-452.5C333.94,-452.5 321.51,-452.5 309.76,-452.5"/>
<polygon fill="midnightblue" stroke="midnightblue" points="346.38,-456 356.38,-452.5 346.38,-449 346.38,-456"/>
</g>
<!-- Node19 -->
<g id="node19" class="node">
<title>Node19</title>
<g id="a_node19"><a xlink:href="../../d5/dda/classEventReducer.html#af72954cea31bb7b3b3f122c3067b632c" target="_top" xlink:title=" ">
<polygon fill="none" stroke="black" points="355,-28 355,-47 506,-47 506,-28 355,-28"/>
<text text-anchor="middle" x="430.5" y="-35" font-family="FreeSans" font-size="10.00">EventReducer::reduceEvent</text>
</a>
</g>
</g>
<!-- Node18&#45;&gt;Node19 -->
<g id="edge19" class="edge">
<title>Node18&#45;&gt;Node19</title>
<path fill="none" stroke="midnightblue" d="M533.22,-37.5C524.23,-37.5 515.11,-37.5 506.21,-37.5"/>
<polygon fill="midnightblue" stroke="midnightblue" points="533.31,-41 543.31,-37.5 533.31,-34 533.31,-41"/>
</g>
<!-- Node20 -->
<g id="node20" class="node">
<title>Node20</title>
<g id="a_node20"><a xlink:href="../../df/df2/classSQReco.html#a4b0d94299406e4c437ecd4e1f598fcda" target="_top" xlink:title=" ">
<polygon fill="none" stroke="black" points="172,-28 172,-47 319,-47 319,-28 172,-28"/>
<text text-anchor="middle" x="245.5" y="-35" font-family="FreeSans" font-size="10.00">SQReco::ProcessEventPrep</text>
</a>
</g>
</g>
<!-- Node19&#45;&gt;Node20 -->
<g id="edge20" class="edge">
<title>Node19&#45;&gt;Node20</title>
<path fill="none" stroke="midnightblue" d="M344.53,-37.5C336.06,-37.5 327.51,-37.5 319.18,-37.5"/>
<polygon fill="midnightblue" stroke="midnightblue" points="344.8,-41 354.8,-37.5 344.8,-34 344.8,-41"/>
</g>
<!-- Node21 -->
<g id="node21" class="node">
<title>Node21</title>
<g id="a_node21"><a xlink:href="../../df/df2/classSQReco.html#a4d308ea90b8cd7c24a235f32debd6ddb" target="_top" xlink:title=" ">
<polygon fill="none" stroke="black" points="2.5,-50 2.5,-69 133.5,-69 133.5,-50 2.5,-50"/>
<text text-anchor="middle" x="68" y="-57" font-family="FreeSans" font-size="10.00">SQReco::process_event</text>
</a>
</g>
</g>
<!-- Node20&#45;&gt;Node21 -->
<g id="edge21" class="edge">
<title>Node20&#45;&gt;Node21</title>
<path fill="none" stroke="midnightblue" d="M161.71,-47.88C152.32,-49.06 142.85,-50.24 133.74,-51.38"/>
<polygon fill="midnightblue" stroke="midnightblue" points="162.36,-51.32 171.85,-46.61 161.49,-44.38 162.36,-51.32"/>
</g>
<!-- Node22 -->
<g id="node22" class="node">
<title>Node22</title>
<g id="a_node22"><a xlink:href="../../dd/d62/classSQTrackletReco.html#a8da2377e83fb17bc8189b89175833872" target="_top" xlink:title=" ">
<polygon fill="none" stroke="black" points="0,-0.5 0,-30.5 136,-30.5 136,-0.5 0,-0.5"/>
<text text-anchor="start" x="8" y="-18.5" font-family="FreeSans" font-size="10.00">SQTrackletReco::process</text>
<text text-anchor="middle" x="68" y="-7.5" font-family="FreeSans" font-size="10.00">_event</text>
</a>
</g>
</g>
<!-- Node20&#45;&gt;Node22 -->
<g id="edge22" class="edge">
<title>Node20&#45;&gt;Node22</title>
<path fill="none" stroke="midnightblue" d="M161.84,-27.14C153.26,-26.06 144.62,-24.98 136.25,-23.93"/>
<polygon fill="midnightblue" stroke="midnightblue" points="161.49,-30.62 171.85,-28.39 162.36,-23.68 161.49,-30.62"/>
</g>
</g>
</svg>
