<?xml version="1.0" encoding="UTF-8" standalone="no"?>
<!DOCTYPE svg PUBLIC "-//W3C//DTD SVG 1.1//EN"
 "http://www.w3.org/Graphics/SVG/1.1/DTD/svg11.dtd">
<!-- Generated by graphviz version 2.30.1 (20200930.0103)
 -->
<!-- Title: GeomSvc::getPlaneNElements Pages: 1 -->
<svg width="666pt" height="710pt"
 viewBox="0.00 0.00 666.00 710.00" xmlns="http://www.w3.org/2000/svg" xmlns:xlink="http://www.w3.org/1999/xlink">
<g id="graph0" class="graph" transform="scale(1 1) rotate(0) translate(4 706)">
<title>GeomSvc::getPlaneNElements</title>
<!-- Node1 -->
<g id="node1" class="node"><title>Node1</title>
<polygon fill="#bfbfbf" stroke="black" points="0.5,-346.5 0.5,-365.5 149.5,-365.5 149.5,-346.5 0.5,-346.5"/>
<text text-anchor="middle" x="75" y="-353.5" font-family="FreeSans" font-size="10.00">GeomSvc::getPlaneNElements</text>
</g>
<!-- Node2 -->
<g id="node2" class="node"><title>Node2</title>
<g id="a_node2"><a xlink:href="../../df/d36/classSQDigitizer.html#a6888088bc0f09a34957d84e24ba7926b" target="_top" xlink:title="main external call, fill the digi hit vector ">
<polygon fill="none" stroke="black" points="202.5,-674.5 202.5,-693.5 327.5,-693.5 327.5,-674.5 202.5,-674.5"/>
<text text-anchor="middle" x="265" y="-681.5" font-family="FreeSans" font-size="10.00">SQDigitizer::digitizePlane</text>
</a>
</g>
</g>
<!-- Node1&#45;&gt;Node2 -->
<g id="edge1" class="edge"><title>Node1&#45;&gt;Node2</title>
<path fill="none" stroke="midnightblue" d="M77.2513,-375.752C81.7288,-429.472 101.564,-579.578 186,-660 192.669,-666.352 200.979,-671.025 209.668,-674.463"/>
<polygon fill="midnightblue" stroke="midnightblue" points="80.7247,-375.263 76.4943,-365.549 73.7439,-375.781 80.7247,-375.263"/>
</g>
<!-- Node4 -->
<g id="node4" class="node"><title>Node4</title>
<g id="a_node4"><a xlink:href="../../d9/d7c/namespaceUtilHodo.html#aa969bb67fd62bb607c12ca68a992c69a" target="_top" xlink:title="UtilHodo::GetElementPos">
<polygon fill="none" stroke="black" points="202.5,-631.5 202.5,-650.5 327.5,-650.5 327.5,-631.5 202.5,-631.5"/>
<text text-anchor="middle" x="265" y="-638.5" font-family="FreeSans" font-size="10.00">UtilHodo::GetElementPos</text>
</a>
</g>
</g>
<!-- Node1&#45;&gt;Node4 -->
<g id="edge3" class="edge"><title>Node1&#45;&gt;Node4</title>
<path fill="none" stroke="midnightblue" d="M78.0952,-375.504C84.469,-424.82 108.218,-555.306 186,-622 190.867,-626.173 196.503,-629.46 202.476,-632.045"/>
<polygon fill="midnightblue" stroke="midnightblue" points="81.5648,-375.04 76.9047,-365.525 74.6141,-375.87 81.5648,-375.04"/>
</g>
<!-- Node7 -->
<g id="node7" class="node"><title>Node7</title>
<g id="a_node7"><a xlink:href="../../d5/d72/classTriggerRoad.html#a427d8d8c38db73607327ca6ae3b389b4" target="_top" xlink:title="TriggerRoad::getLR">
<polygon fill="none" stroke="black" points="215.5,-593.5 215.5,-612.5 314.5,-612.5 314.5,-593.5 215.5,-593.5"/>
<text text-anchor="middle" x="265" y="-600.5" font-family="FreeSans" font-size="10.00">TriggerRoad::getLR</text>
</a>
</g>
</g>
<!-- Node1&#45;&gt;Node7 -->
<g id="edge6" class="edge"><title>Node1&#45;&gt;Node7</title>
<path fill="none" stroke="midnightblue" d="M79.6022,-375.66C88.8064,-420.069 117.473,-528.572 186,-584 194.344,-590.749 204.725,-595.157 215.163,-598.022"/>
<polygon fill="midnightblue" stroke="midnightblue" points="82.9877,-374.736 77.6276,-365.597 76.1187,-376.084 82.9877,-374.736"/>
</g>
<!-- Node8 -->
<g id="node8" class="node"><title>Node8</title>
<g id="a_node8"><a xlink:href="../../db/d63/classAnaEffCham.html#a021930645fd4860443e719041e2c1604" target="_top" xlink:title="AnaEffCham::Init">
<polygon fill="none" stroke="black" points="221,-555.5 221,-574.5 309,-574.5 309,-555.5 221,-555.5"/>
<text text-anchor="middle" x="265" y="-562.5" font-family="FreeSans" font-size="10.00">AnaEffCham::Init</text>
</a>
</g>
</g>
<!-- Node1&#45;&gt;Node8 -->
<g id="edge7" class="edge"><title>Node1&#45;&gt;Node8</title>
<path fill="none" stroke="midnightblue" d="M81.667,-375.773C93.8939,-414.738 126.563,-501.518 186,-546 196.043,-553.516 208.665,-558.096 220.811,-560.875"/>
<polygon fill="midnightblue" stroke="midnightblue" points="84.8737,-374.283 78.6377,-365.718 78.1713,-376.302 84.8737,-374.283"/>
</g>
<!-- Node9 -->
<g id="node9" class="node"><title>Node9</title>
<g id="a_node9"><a xlink:href="../../dd/d3d/classExtractTdcDist.html#ae82ba31fe907f1026464bb540dae0d39" target="_top" xlink:title="ExtractTdcDist::Init">
<polygon fill="none" stroke="black" points="216,-517.5 216,-536.5 314,-536.5 314,-517.5 216,-517.5"/>
<text text-anchor="middle" x="265" y="-524.5" font-family="FreeSans" font-size="10.00">ExtractTdcDist::Init</text>
</a>
</g>
</g>
<!-- Node1&#45;&gt;Node9 -->
<g id="edge8" class="edge"><title>Node1&#45;&gt;Node9</title>
<path fill="none" stroke="midnightblue" d="M84.2582,-374.941C99.4501,-407.466 135.01,-473.738 186,-508 194.908,-513.986 205.514,-518.089 215.99,-520.902"/>
<polygon fill="midnightblue" stroke="midnightblue" points="87.3633,-373.313 80.0477,-365.649 80.9874,-376.203 87.3633,-373.313"/>
</g>
<!-- Node10 -->
<g id="node10" class="node"><title>Node10</title>
<g id="a_node10"><a xlink:href="../../d5/dda/classEventReducer.html#ae3e92e9415e867a14780af5c1d2ad78c" target="_top" xlink:title="EventReducer::initHodoMaskLUT">
<polygon fill="none" stroke="black" points="186,-479.5 186,-498.5 344,-498.5 344,-479.5 186,-479.5"/>
<text text-anchor="middle" x="265" y="-486.5" font-family="FreeSans" font-size="10.00">EventReducer::initHodoMaskLUT</text>
</a>
</g>
</g>
<!-- Node1&#45;&gt;Node10 -->
<g id="edge9" class="edge"><title>Node1&#45;&gt;Node10</title>
<path fill="none" stroke="midnightblue" d="M88.2755,-374.078C106.529,-399.513 143.3,-445.49 186,-470 192.769,-473.886 200.309,-476.98 207.959,-479.445"/>
<polygon fill="midnightblue" stroke="midnightblue" points="91.0181,-371.893 82.4115,-365.714 85.2865,-375.911 91.0181,-371.893"/>
</g>
<!-- Node12 -->
<g id="node12" class="node"><title>Node12</title>
<g id="a_node12"><a xlink:href="../../d3/d28/classAnaChamPlane.html#a0bdc3c60b938e9edb752acb420fa793e" target="_top" xlink:title="AnaChamPlane::InitRun">
<polygon fill="none" stroke="black" points="205.5,-441.5 205.5,-460.5 324.5,-460.5 324.5,-441.5 205.5,-441.5"/>
<text text-anchor="middle" x="265" y="-448.5" font-family="FreeSans" font-size="10.00">AnaChamPlane::InitRun</text>
</a>
</g>
</g>
<!-- Node1&#45;&gt;Node12 -->
<g id="edge11" class="edge"><title>Node1&#45;&gt;Node12</title>
<path fill="none" stroke="midnightblue" d="M94.8159,-372.241C115.739,-389.492 151.193,-416.382 186,-432 194.52,-435.823 203.923,-438.946 213.163,-441.474"/>
<polygon fill="midnightblue" stroke="midnightblue" points="96.9456,-369.46 87.0348,-365.715 92.4471,-374.823 96.9456,-369.46"/>
</g>
<!-- Node13 -->
<g id="node13" class="node"><title>Node13</title>
<g id="a_node13"><a xlink:href="../../d4/dc4/classAnaHodoHit.html#ad07bb0e1a898e4288da0c7321ee09bda" target="_top" xlink:title="AnaHodoHit::InitRun">
<polygon fill="none" stroke="black" points="213,-403.5 213,-422.5 317,-422.5 317,-403.5 213,-403.5"/>
<text text-anchor="middle" x="265" y="-410.5" font-family="FreeSans" font-size="10.00">AnaHodoHit::InitRun</text>
</a>
</g>
</g>
<!-- Node1&#45;&gt;Node13 -->
<g id="edge12" class="edge"><title>Node1&#45;&gt;Node13</title>
<path fill="none" stroke="midnightblue" d="M111.221,-369.11C132.674,-376.859 160.73,-386.575 186,-394 197.5,-397.379 210.076,-400.632 221.708,-403.462"/>
<polygon fill="midnightblue" stroke="midnightblue" points="112.156,-365.726 101.562,-365.593 109.761,-372.304 112.156,-365.726"/>
</g>
<!-- Node14 -->
<g id="node14" class="node"><title>Node14</title>
<g id="a_node14"><a xlink:href="../../d2/db9/classAnaTriggerHit.html#a67e9ff133ffe5638c8e4b2e04a8e49e9" target="_top" xlink:title="AnaTriggerHit::InitRun">
<polygon fill="none" stroke="black" points="209.5,-365.5 209.5,-384.5 320.5,-384.5 320.5,-365.5 209.5,-365.5"/>
<text text-anchor="middle" x="265" y="-372.5" font-family="FreeSans" font-size="10.00">AnaTriggerHit::InitRun</text>
</a>
</g>
</g>
<!-- Node1&#45;&gt;Node14 -->
<g id="edge13" class="edge"><title>Node1&#45;&gt;Node14</title>
<path fill="none" stroke="midnightblue" d="M160.093,-364.499C176.802,-366.187 193.933,-367.919 209.343,-369.476"/>
<polygon fill="midnightblue" stroke="midnightblue" points="160.064,-360.978 149.763,-363.455 159.36,-367.943 160.064,-360.978"/>
</g>
<!-- Node15 -->
<g id="node15" class="node"><title>Node15</title>
<g id="a_node15"><a xlink:href="../../de/d8a/classAnaTrack.html#a23d8877924630f6a8c23809773624d94" target="_top" xlink:title="AnaTrack::InitRun">
<polygon fill="none" stroke="black" points="218,-327.5 218,-346.5 312,-346.5 312,-327.5 218,-327.5"/>
<text text-anchor="middle" x="265" y="-334.5" font-family="FreeSans" font-size="10.00">AnaTrack::InitRun</text>
</a>
</g>
</g>
<!-- Node1&#45;&gt;Node15 -->
<g id="edge14" class="edge"><title>Node1&#45;&gt;Node15</title>
<path fill="none" stroke="midnightblue" d="M159.798,-347.531C179.736,-345.516 200.293,-343.438 217.825,-341.667"/>
<polygon fill="midnightblue" stroke="midnightblue" points="159.36,-344.057 149.763,-348.545 160.064,-351.022 159.36,-344.057"/>
</g>
<!-- Node16 -->
<g id="node16" class="node"><title>Node16</title>
<g id="a_node16"><a xlink:href="../../d7/dac/classOnlMonProp.html#aeb8c4230a23173cc8d3d27db00d98be0" target="_top" xlink:title="OnlMonProp::InitRunOnlMon">
<polygon fill="none" stroke="black" points="195,-289.5 195,-308.5 335,-308.5 335,-289.5 195,-289.5"/>
<text text-anchor="middle" x="265" y="-296.5" font-family="FreeSans" font-size="10.00">OnlMonProp::InitRunOnlMon</text>
</a>
</g>
</g>
<!-- Node1&#45;&gt;Node16 -->
<g id="edge15" class="edge"><title>Node1&#45;&gt;Node16</title>
<path fill="none" stroke="midnightblue" d="M111.221,-342.89C132.674,-335.141 160.73,-325.425 186,-318 197.5,-314.621 210.076,-311.368 221.708,-308.538"/>
<polygon fill="midnightblue" stroke="midnightblue" points="109.761,-339.696 101.562,-346.407 112.156,-346.274 109.761,-339.696"/>
</g>
<!-- Node17 -->
<g id="node17" class="node"><title>Node17</title>
<g id="a_node17"><a xlink:href="../../db/d15/classOnlMonCham.html#aaf9e68b3b806ed449fb7d5e3e54b03cd" target="_top" xlink:title="OnlMonCham::InitRunOnlMon">
<polygon fill="none" stroke="black" points="192.5,-251.5 192.5,-270.5 337.5,-270.5 337.5,-251.5 192.5,-251.5"/>
<text text-anchor="middle" x="265" y="-258.5" font-family="FreeSans" font-size="10.00">OnlMonCham::InitRunOnlMon</text>
</a>
</g>
</g>
<!-- Node1&#45;&gt;Node17 -->
<g id="edge16" class="edge"><title>Node1&#45;&gt;Node17</title>
<path fill="none" stroke="midnightblue" d="M94.8159,-339.759C115.739,-322.508 151.193,-295.618 186,-280 194.52,-276.177 203.923,-273.054 213.163,-270.526"/>
<polygon fill="midnightblue" stroke="midnightblue" points="92.4471,-337.177 87.0348,-346.285 96.9456,-342.54 92.4471,-337.177"/>
</g>
<!-- Node18 -->
<g id="node18" class="node"><title>Node18</title>
<g id="a_node18"><a xlink:href="../../d2/d02/classOnlMonH4.html#a4903332f47864785a12cf8f4938dd0c3" target="_top" xlink:title="OnlMonH4::InitRunOnlMon">
<polygon fill="none" stroke="black" points="199.5,-213.5 199.5,-232.5 330.5,-232.5 330.5,-213.5 199.5,-213.5"/>
<text text-anchor="middle" x="265" y="-220.5" font-family="FreeSans" font-size="10.00">OnlMonH4::InitRunOnlMon</text>
</a>
</g>
</g>
<!-- Node1&#45;&gt;Node18 -->
<g id="edge17" class="edge"><title>Node1&#45;&gt;Node18</title>
<path fill="none" stroke="midnightblue" d="M88.2755,-337.922C106.529,-312.487 143.3,-266.51 186,-242 192.769,-238.114 200.309,-235.02 207.959,-232.555"/>
<polygon fill="midnightblue" stroke="midnightblue" points="85.2865,-336.089 82.4115,-346.286 91.0181,-340.107 85.2865,-336.089"/>
</g>
<!-- Node19 -->
<g id="node19" class="node"><title>Node19</title>
<g id="a_node19"><a xlink:href="../../d8/dc8/classOnlMonHodo.html#a7722572b5da3befd0a1d4ccbae0f903d" target="_top" xlink:title="OnlMonHodo::InitRunOnlMon">
<polygon fill="none" stroke="black" points="194,-175.5 194,-194.5 336,-194.5 336,-175.5 194,-175.5"/>
<text text-anchor="middle" x="265" y="-182.5" font-family="FreeSans" font-size="10.00">OnlMonHodo::InitRunOnlMon</text>
</a>
</g>
</g>
<!-- Node1&#45;&gt;Node19 -->
<g id="edge18" class="edge"><title>Node1&#45;&gt;Node19</title>
<path fill="none" stroke="midnightblue" d="M84.2582,-337.059C99.4501,-304.534 135.01,-238.262 186,-204 191.784,-200.113 198.285,-197.02 205,-194.559"/>
<polygon fill="midnightblue" stroke="midnightblue" points="80.9874,-335.797 80.0477,-346.351 87.3633,-338.687 80.9874,-335.797"/>
</g>
<!-- Node20 -->
<g id="node20" class="node"><title>Node20</title>
<g id="a_node20"><a xlink:href="../../d6/d41/classOnlMonV1495.html#a89a01d9a67e3993664c0ebaa343bdf77" target="_top" xlink:title="OnlMonV1495::InitRunOnlMon">
<polygon fill="none" stroke="black" points="192,-137.5 192,-156.5 338,-156.5 338,-137.5 192,-137.5"/>
<text text-anchor="middle" x="265" y="-144.5" font-family="FreeSans" font-size="10.00">OnlMonV1495::InitRunOnlMon</text>
</a>
</g>
</g>
<!-- Node1&#45;&gt;Node20 -->
<g id="edge19" class="edge"><title>Node1&#45;&gt;Node20</title>
<path fill="none" stroke="midnightblue" d="M81.667,-336.227C93.8939,-297.262 126.563,-210.482 186,-166 191.133,-162.159 196.94,-159.084 203.012,-156.625"/>
<polygon fill="midnightblue" stroke="midnightblue" points="78.1713,-335.698 78.6377,-346.282 84.8737,-337.717 78.1713,-335.698"/>
</g>
<!-- Node21 -->
<g id="node21" class="node"><title>Node21</title>
<g id="a_node21"><a xlink:href="../../dc/da8/classAnaModule.html#ae3ca49406af66b8b7dd5724f48802c59" target="_top" xlink:title="AnaModule::process\l_event">
<polygon fill="none" stroke="black" points="213.5,-88 213.5,-118 316.5,-118 316.5,-88 213.5,-88"/>
<text text-anchor="start" x="221.5" y="-106" font-family="FreeSans" font-size="10.00">AnaModule::process</text>
<text text-anchor="middle" x="265" y="-95" font-family="FreeSans" font-size="10.00">_event</text>
</a>
</g>
</g>
<!-- Node1&#45;&gt;Node21 -->
<g id="edge20" class="edge"><title>Node1&#45;&gt;Node21</title>
<path fill="none" stroke="midnightblue" d="M80.0222,-336.073C89.9546,-291.991 119.795,-185.567 186,-128 193.834,-121.189 203.542,-116.229 213.419,-112.619"/>
<polygon fill="midnightblue" stroke="midnightblue" points="76.5479,-335.583 77.8702,-346.095 83.3919,-337.052 76.5479,-335.583"/>
</g>
<!-- Node22 -->
<g id="node22" class="node"><title>Node22</title>
<g id="a_node22"><a xlink:href="../../d8/d3e/classSimpleTree.html#a5b31087274e5e810e670395c811fd358" target="_top" xlink:title="SimpleTree::process\l_event">
<polygon fill="none" stroke="black" points="213,-39 213,-69 317,-69 317,-39 213,-39"/>
<text text-anchor="start" x="221" y="-57" font-family="FreeSans" font-size="10.00">SimpleTree::process</text>
<text text-anchor="middle" x="265" y="-46" font-family="FreeSans" font-size="10.00">_event</text>
</a>
</g>
</g>
<!-- Node1&#45;&gt;Node22 -->
<g id="edge21" class="edge"><title>Node1&#45;&gt;Node22</title>
<path fill="none" stroke="midnightblue" d="M78.1266,-336.044C84.5741,-285.519 108.483,-151.429 186,-79 193.481,-72.01 202.924,-66.9743 212.633,-63.3465"/>
<polygon fill="midnightblue" stroke="midnightblue" points="74.6171,-335.919 76.9207,-346.261 81.5688,-336.74 74.6171,-335.919"/>
</g>
<!-- Node23 -->
<g id="node23" class="node"><title>Node23</title>
<g id="a_node23"><a xlink:href="../../d5/d72/classTriggerRoad.html#a71ff7e1e5775fd38a6f14bc72948ed89" target="_top" xlink:title="TriggerRoad::reflectLR">
<polygon fill="none" stroke="black" points="209,-0.5 209,-19.5 321,-19.5 321,-0.5 209,-0.5"/>
<text text-anchor="middle" x="265" y="-7.5" font-family="FreeSans" font-size="10.00">TriggerRoad::reflectLR</text>
</a>
</g>
</g>
<!-- Node1&#45;&gt;Node23 -->
<g id="edge22" class="edge"><title>Node1&#45;&gt;Node23</title>
<path fill="none" stroke="midnightblue" d="M76.4889,-336.117C79.0033,-279.351 94.2551,-115.159 186,-30 192.455,-24.0083 200.457,-19.7545 208.853,-16.7459"/>
<polygon fill="midnightblue" stroke="midnightblue" points="72.9859,-336.141 76.1297,-346.259 79.9816,-336.389 72.9859,-336.141"/>
</g>
<!-- Node3 -->
<g id="node3" class="node"><title>Node3</title>
<g id="a_node3"><a xlink:href="../../df/d36/classSQDigitizer.html#a6fd850ed7dfbdeaeac53ef644c9f9eda" target="_top" xlink:title="event processing ">
<polygon fill="none" stroke="black" points="399.5,-672 399.5,-702 502.5,-702 502.5,-672 399.5,-672"/>
<text text-anchor="start" x="407.5" y="-690" font-family="FreeSans" font-size="10.00">SQDigitizer::process</text>
<text text-anchor="middle" x="451" y="-679" font-family="FreeSans" font-size="10.00">_event</text>
</a>
</g>
</g>
<!-- Node2&#45;&gt;Node3 -->
<g id="edge2" class="edge"><title>Node2&#45;&gt;Node3</title>
<path fill="none" stroke="midnightblue" d="M337.79,-685.17C358.322,-685.505 380.267,-685.863 399.256,-686.173"/>
<polygon fill="midnightblue" stroke="midnightblue" points="337.581,-681.667 327.525,-685.003 337.467,-688.666 337.581,-681.667"/>
</g>
<!-- Node5 -->
<g id="node5" class="node"><title>Node5</title>
<g id="a_node5"><a xlink:href="../../d3/d4a/structUtilHodo_1_1Track1D.html#abd7234340c4ee7dc5c111cdcbe9f7ead" target="_top" xlink:title="UtilHodo::Track1D::\lDoTracking">
<polygon fill="none" stroke="black" points="401.5,-623 401.5,-653 500.5,-653 500.5,-623 401.5,-623"/>
<text text-anchor="start" x="409.5" y="-641" font-family="FreeSans" font-size="10.00">UtilHodo::Track1D::</text>
<text text-anchor="middle" x="451" y="-630" font-family="FreeSans" font-size="10.00">DoTracking</text>
</a>
</g>
</g>
<!-- Node4&#45;&gt;Node5 -->
<g id="edge4" class="edge"><title>Node4&#45;&gt;Node5</title>
<path fill="none" stroke="midnightblue" d="M337.536,-639.834C358.895,-639.485 381.803,-639.112 401.334,-638.793"/>
<polygon fill="midnightblue" stroke="midnightblue" points="337.467,-636.334 327.525,-639.997 337.581,-643.333 337.467,-636.334"/>
</g>
<!-- Node6 -->
<g id="node6" class="node"><title>Node6</title>
<g id="a_node6"><a xlink:href="../../dd/df6/structUtilHodo_1_1Track2D.html#ac5b5097bfb0520a4c6c3511b00d6180b" target="_top" xlink:title="UtilHodo::Track2D::\lDoTracking">
<polygon fill="none" stroke="black" points="558.5,-623 558.5,-653 657.5,-653 657.5,-623 558.5,-623"/>
<text text-anchor="start" x="566.5" y="-641" font-family="FreeSans" font-size="10.00">UtilHodo::Track2D::</text>
<text text-anchor="middle" x="608" y="-630" font-family="FreeSans" font-size="10.00">DoTracking</text>
</a>
</g>
</g>
<!-- Node5&#45;&gt;Node6 -->
<g id="edge5" class="edge"><title>Node5&#45;&gt;Node6</title>
<path fill="none" stroke="midnightblue" d="M510.74,-638C526.427,-638 543.206,-638 558.289,-638"/>
<polygon fill="midnightblue" stroke="midnightblue" points="510.618,-634.5 500.618,-638 510.618,-641.5 510.618,-634.5"/>
</g>
<!-- Node11 -->
<g id="node11" class="node"><title>Node11</title>
<g id="a_node11"><a xlink:href="../../d5/dda/classEventReducer.html#a561a06dc56cee12696d12ba18d207433" target="_top" xlink:title="EventReducer::EventReducer">
<polygon fill="none" stroke="black" points="380.5,-479.5 380.5,-498.5 521.5,-498.5 521.5,-479.5 380.5,-479.5"/>
<text text-anchor="middle" x="451" y="-486.5" font-family="FreeSans" font-size="10.00">EventReducer::EventReducer</text>
</a>
</g>
</g>
<!-- Node10&#45;&gt;Node11 -->
<g id="edge10" class="edge"><title>Node10&#45;&gt;Node11</title>
<path fill="none" stroke="midnightblue" d="M354.256,-489C362.999,-489 371.788,-489 380.304,-489"/>
<polygon fill="midnightblue" stroke="midnightblue" points="354.033,-485.5 344.033,-489 354.033,-492.5 354.033,-485.5"/>
</g>
</g>
</svg>
