<?xml version="1.0" encoding="UTF-8" standalone="no"?>
<!DOCTYPE svg PUBLIC "-//W3C//DTD SVG 1.1//EN"
 "http://www.w3.org/Graphics/SVG/1.1/DTD/svg11.dtd">
<!-- Generated by graphviz version 2.30.1 (20180413.0232)
 -->
<!-- Title: GeomSvc::getPlaneCenterX Pages: 1 -->
<svg width="804pt" height="565pt"
 viewBox="0.00 0.00 804.00 565.00" xmlns="http://www.w3.org/2000/svg" xmlns:xlink="http://www.w3.org/1999/xlink">
<g id="graph0" class="graph" transform="scale(1 1) rotate(0) translate(4 561)">
<title>GeomSvc::getPlaneCenterX</title>
<!-- Node1 -->
<g id="node1" class="node"><title>Node1</title>
<polygon fill="#bfbfbf" stroke="black" points="0.5,-396.5 0.5,-415.5 137.5,-415.5 137.5,-396.5 0.5,-396.5"/>
<text text-anchor="middle" x="69" y="-403.5" font-family="FreeSans" font-size="10.00">GeomSvc::getPlaneCenterX</text>
</g>
<!-- Node2 -->
<g id="node2" class="node"><title>Node2</title>
<g id="a_node2"><a xlink:href="../../d9/d7c/namespaceUtilHodo.html#a1b46f5fa340d48eb176f18d4f87bf7d2" target="_top" xlink:title="UtilHodo::GetPlanePos">
<polygon fill="none" stroke="black" points="201.5,-497.5 201.5,-516.5 316.5,-516.5 316.5,-497.5 201.5,-497.5"/>
<text text-anchor="middle" x="259" y="-504.5" font-family="FreeSans" font-size="10.00">UtilHodo::GetPlanePos</text>
</a>
</g>
</g>
<!-- Node1&#45;&gt;Node2 -->
<g id="edge1" class="edge"><title>Node1&#45;&gt;Node2</title>
<path fill="none" stroke="midnightblue" d="M96.8651,-420.433C135.869,-441.387 207.122,-479.667 240.223,-497.45"/>
<polygon fill="midnightblue" stroke="midnightblue" points="98.1522,-417.151 87.6866,-415.502 94.8394,-423.318 98.1522,-417.151"/>
</g>
<!-- Node6 -->
<g id="node6" class="node"><title>Node6</title>
<g id="a_node6"><a xlink:href="../../d3/d46/classKalmanFastTracking.html#ada315a710df996c08316934282df9060" target="_top" xlink:title="KalmanFastTracking\l::printAtDetectorBack">
<polygon fill="none" stroke="black" points="204.5,-413 204.5,-443 313.5,-443 313.5,-413 204.5,-413"/>
<text text-anchor="start" x="212.5" y="-431" font-family="FreeSans" font-size="10.00">KalmanFastTracking</text>
<text text-anchor="middle" x="259" y="-420" font-family="FreeSans" font-size="10.00">::printAtDetectorBack</text>
</a>
</g>
</g>
<!-- Node1&#45;&gt;Node6 -->
<g id="edge5" class="edge"><title>Node1&#45;&gt;Node6</title>
<path fill="none" stroke="midnightblue" d="M147.74,-415.097C166.733,-417.32 186.639,-419.649 204.229,-421.708"/>
<polygon fill="midnightblue" stroke="midnightblue" points="147.946,-411.598 137.607,-413.911 147.132,-418.55 147.946,-411.598"/>
</g>
<!-- Node7 -->
<g id="node7" class="node"><title>Node7</title>
<g id="a_node7"><a xlink:href="../../db/daa/classKalmanDSTrk.html#a46cba45326519aa81709e0021111cc2b" target="_top" xlink:title="KalmanDSTrk::printAtDetectorBack">
<polygon fill="none" stroke="black" points="174,-374.5 174,-393.5 344,-393.5 344,-374.5 174,-374.5"/>
<text text-anchor="middle" x="259" y="-381.5" font-family="FreeSans" font-size="10.00">KalmanDSTrk::printAtDetectorBack</text>
</a>
</g>
</g>
<!-- Node1&#45;&gt;Node7 -->
<g id="edge6" class="edge"><title>Node1&#45;&gt;Node7</title>
<path fill="none" stroke="midnightblue" d="M147.8,-396.896C157.295,-395.785 167.016,-394.647 176.561,-393.53"/>
<polygon fill="midnightblue" stroke="midnightblue" points="147.132,-393.45 137.607,-398.089 147.946,-400.402 147.132,-393.45"/>
</g>
<!-- Node8 -->
<g id="node8" class="node"><title>Node8</title>
<g id="a_node8"><a xlink:href="../../d9/d72/e1039-core_2macros_2G4__SensitiveDetectors_8C.html#ab928346dfa48282adc4488ea6c1e160a" target="_top" xlink:title="SetupSensitiveDetectors">
<polygon fill="none" stroke="black" points="198,-266.5 198,-285.5 320,-285.5 320,-266.5 198,-266.5"/>
<text text-anchor="middle" x="259" y="-273.5" font-family="FreeSans" font-size="10.00">SetupSensitiveDetectors</text>
</a>
</g>
</g>
<!-- Node1&#45;&gt;Node8 -->
<g id="edge7" class="edge"><title>Node1&#45;&gt;Node8</title>
<path fill="none" stroke="midnightblue" d="M92.4449,-390.48C131.757,-363.296 211.949,-307.844 244.156,-285.573"/>
<polygon fill="midnightblue" stroke="midnightblue" points="90.0585,-387.874 83.8241,-396.441 94.0398,-393.632 90.0585,-387.874"/>
</g>
<!-- Node3 -->
<g id="node3" class="node"><title>Node3</title>
<g id="a_node3"><a xlink:href="../../d9/d7c/namespaceUtilHodo.html#aa969bb67fd62bb607c12ca68a992c69a" target="_top" xlink:title="UtilHodo::GetElementPos">
<polygon fill="none" stroke="black" points="380.5,-532.5 380.5,-551.5 505.5,-551.5 505.5,-532.5 380.5,-532.5"/>
<text text-anchor="middle" x="443" y="-539.5" font-family="FreeSans" font-size="10.00">UtilHodo::GetElementPos</text>
</a>
</g>
</g>
<!-- Node2&#45;&gt;Node3 -->
<g id="edge2" class="edge"><title>Node2&#45;&gt;Node3</title>
<path fill="none" stroke="midnightblue" d="M319.601,-518.462C343.137,-522.988 369.865,-528.128 392.328,-532.448"/>
<polygon fill="midnightblue" stroke="midnightblue" points="320.213,-515.015 309.732,-516.564 318.891,-521.889 320.213,-515.015"/>
</g>
<!-- Node4 -->
<g id="node4" class="node"><title>Node4</title>
<g id="a_node4"><a xlink:href="../../d3/d4a/structUtilHodo_1_1Track1D.html#abd7234340c4ee7dc5c111cdcbe9f7ead" target="_top" xlink:title="UtilHodo::Track1D::\lDoTracking">
<polygon fill="none" stroke="black" points="551.5,-527 551.5,-557 650.5,-557 650.5,-527 551.5,-527"/>
<text text-anchor="start" x="559.5" y="-545" font-family="FreeSans" font-size="10.00">UtilHodo::Track1D::</text>
<text text-anchor="middle" x="601" y="-534" font-family="FreeSans" font-size="10.00">DoTracking</text>
</a>
</g>
</g>
<!-- Node3&#45;&gt;Node4 -->
<g id="edge3" class="edge"><title>Node3&#45;&gt;Node4</title>
<path fill="none" stroke="midnightblue" d="M515.702,-542C527.749,-542 539.998,-542 551.289,-542"/>
<polygon fill="midnightblue" stroke="midnightblue" points="515.655,-538.5 505.655,-542 515.655,-545.5 515.655,-538.5"/>
</g>
<!-- Node5 -->
<g id="node5" class="node"><title>Node5</title>
<g id="a_node5"><a xlink:href="../../dd/df6/structUtilHodo_1_1Track2D.html#ac5b5097bfb0520a4c6c3511b00d6180b" target="_top" xlink:title="UtilHodo::Track2D::\lDoTracking">
<polygon fill="none" stroke="black" points="696.5,-527 696.5,-557 795.5,-557 795.5,-527 696.5,-527"/>
<text text-anchor="start" x="704.5" y="-545" font-family="FreeSans" font-size="10.00">UtilHodo::Track2D::</text>
<text text-anchor="middle" x="746" y="-534" font-family="FreeSans" font-size="10.00">DoTracking</text>
</a>
</g>
</g>
<!-- Node4&#45;&gt;Node5 -->
<g id="edge4" class="edge"><title>Node4&#45;&gt;Node5</title>
<path fill="none" stroke="midnightblue" d="M661.008,-542C672.786,-542 685.029,-542 696.407,-542"/>
<polygon fill="midnightblue" stroke="midnightblue" points="660.813,-538.5 650.813,-542 660.812,-545.5 660.813,-538.5"/>
</g>
<!-- Node9 -->
<g id="node9" class="node"><title>Node9</title>
<g id="a_node9"><a xlink:href="../../d1/dd6/EventDisplay4Sim_8C.html#af86696dcebf4f8619d2417d0865bbf66" target="_top" xlink:title="EventDisplay4Sim">
<polygon fill="none" stroke="black" points="396,-494.5 396,-513.5 490,-513.5 490,-494.5 396,-494.5"/>
<text text-anchor="middle" x="443" y="-501.5" font-family="FreeSans" font-size="10.00">EventDisplay4Sim</text>
</a>
</g>
</g>
<!-- Node8&#45;&gt;Node9 -->
<g id="edge8" class="edge"><title>Node8&#45;&gt;Node9</title>
<path fill="none" stroke="midnightblue" d="M279.926,-292.195C298.952,-308.66 327.147,-335.835 344,-365 371.859,-413.211 340.744,-445.511 380,-485 384.445,-489.471 389.912,-492.895 395.741,-495.517"/>
<polygon fill="midnightblue" stroke="midnightblue" points="282.045,-289.403 272.149,-285.618 277.524,-294.748 282.045,-289.403"/>
</g>
<!-- Node10 -->
<g id="node10" class="node"><title>Node10</title>
<g id="a_node10"><a xlink:href="../../db/dbe/Fun4CODA_8C.html#a1bbee777074605aa2a59ddf9b2b52742" target="_top" xlink:title="Fun4CODA">
<polygon fill="none" stroke="black" points="410,-456.5 410,-475.5 476,-475.5 476,-456.5 410,-456.5"/>
<text text-anchor="middle" x="443" y="-463.5" font-family="FreeSans" font-size="10.00">Fun4CODA</text>
</a>
</g>
</g>
<!-- Node8&#45;&gt;Node10 -->
<g id="edge9" class="edge"><title>Node8&#45;&gt;Node10</title>
<path fill="none" stroke="midnightblue" d="M278.862,-292.39C297.314,-309.184 325.295,-336.765 344,-365 365.982,-398.181 350.267,-420.539 380,-447 388.242,-454.335 399.259,-458.838 409.719,-461.603"/>
<polygon fill="midnightblue" stroke="midnightblue" points="281.144,-289.735 271.357,-285.676 276.477,-294.952 281.144,-289.735"/>
</g>
<!-- Node11 -->
<g id="node11" class="node"><title>Node11</title>
<g id="a_node11"><a xlink:href="../../d4/d6b/Fun4DQ_8C.html#ade50123660c824c610022429d0847486" target="_top" xlink:title="Fun4DQ">
<polygon fill="none" stroke="black" points="416.5,-418.5 416.5,-437.5 469.5,-437.5 469.5,-418.5 416.5,-418.5"/>
<text text-anchor="middle" x="443" y="-425.5" font-family="FreeSans" font-size="10.00">Fun4DQ</text>
</a>
</g>
</g>
<!-- Node8&#45;&gt;Node11 -->
<g id="edge10" class="edge"><title>Node8&#45;&gt;Node11</title>
<path fill="none" stroke="midnightblue" d="M276.692,-292.961C293.913,-310.625 321.374,-339.261 344,-365 360.682,-383.977 359.022,-394.917 380,-409 390.843,-416.279 404.589,-420.862 416.382,-423.699"/>
<polygon fill="midnightblue" stroke="midnightblue" points="279.05,-290.366 269.555,-285.666 274.047,-295.262 279.05,-290.366"/>
</g>
<!-- Node12 -->
<g id="node12" class="node"><title>Node12</title>
<g id="a_node12"><a xlink:href="../../de/daf/Fun4DST_8C.html#a6a43c5ad028285b022976fa872e60cbc" target="_top" xlink:title="Fun4DST">
<polygon fill="none" stroke="black" points="414,-380.5 414,-399.5 472,-399.5 472,-380.5 414,-380.5"/>
<text text-anchor="middle" x="443" y="-387.5" font-family="FreeSans" font-size="10.00">Fun4DST</text>
</a>
</g>
</g>
<!-- Node8&#45;&gt;Node12 -->
<g id="edge11" class="edge"><title>Node8&#45;&gt;Node12</title>
<path fill="none" stroke="midnightblue" d="M276.573,-292.5C298.493,-313.479 339.142,-349.547 380,-371 390.566,-376.548 403.011,-380.759 413.969,-383.789"/>
<polygon fill="midnightblue" stroke="midnightblue" points="278.99,-289.968 269.379,-285.508 274.111,-294.988 278.99,-289.968"/>
</g>
<!-- Node13 -->
<g id="node13" class="node"><title>Node13</title>
<g id="a_node13"><a xlink:href="../../db/d7c/Fun4DumpGeom_8C.html#a18cc63f0a92bfc9f708a373bfc0534f6" target="_top" xlink:title="Fun4DumpGeom">
<polygon fill="none" stroke="black" points="398,-342.5 398,-361.5 488,-361.5 488,-342.5 398,-342.5"/>
<text text-anchor="middle" x="443" y="-349.5" font-family="FreeSans" font-size="10.00">Fun4DumpGeom</text>
</a>
</g>
</g>
<!-- Node8&#45;&gt;Node13 -->
<g id="edge12" class="edge"><title>Node8&#45;&gt;Node13</title>
<path fill="none" stroke="midnightblue" d="M287.118,-290.283C311.119,-302.582 347.309,-320.305 380,-333 388.815,-336.423 398.521,-339.646 407.583,-342.43"/>
<polygon fill="midnightblue" stroke="midnightblue" points="288.424,-287.018 277.933,-285.535 285.21,-293.236 288.424,-287.018"/>
</g>
<!-- Node14 -->
<g id="node14" class="node"><title>Node14</title>
<g id="a_node14"><a xlink:href="../../d2/d24/Fun4E1039Shielding_8C.html#a42592782dd55d6e219305ff678a00dc2" target="_top" xlink:title="Fun4E1039Shielding">
<polygon fill="none" stroke="black" points="390.5,-304.5 390.5,-323.5 495.5,-323.5 495.5,-304.5 390.5,-304.5"/>
<text text-anchor="middle" x="443" y="-311.5" font-family="FreeSans" font-size="10.00">Fun4E1039Shielding</text>
</a>
</g>
</g>
<!-- Node8&#45;&gt;Node14 -->
<g id="edge13" class="edge"><title>Node8&#45;&gt;Node14</title>
<path fill="none" stroke="midnightblue" d="M315.946,-287.681C341.756,-293.07 372.007,-299.386 396.404,-304.48"/>
<polygon fill="midnightblue" stroke="midnightblue" points="316.431,-284.207 305.926,-285.589 315,-291.059 316.431,-284.207"/>
</g>
<!-- Node15 -->
<g id="node15" class="node"><title>Node15</title>
<g id="a_node15"><a xlink:href="../../d6/d6a/Fun4HodoAccGap_8C.html#a7aaa0687f144d5e7b417d7e9ac5f36da" target="_top" xlink:title="Fun4HodoAccGap">
<polygon fill="none" stroke="black" points="395,-266.5 395,-285.5 491,-285.5 491,-266.5 395,-266.5"/>
<text text-anchor="middle" x="443" y="-273.5" font-family="FreeSans" font-size="10.00">Fun4HodoAccGap</text>
</a>
</g>
</g>
<!-- Node8&#45;&gt;Node15 -->
<g id="edge14" class="edge"><title>Node8&#45;&gt;Node15</title>
<path fill="none" stroke="midnightblue" d="M330.245,-276C351.907,-276 375.227,-276 394.932,-276"/>
<polygon fill="midnightblue" stroke="midnightblue" points="330.098,-272.5 320.098,-276 330.098,-279.5 330.098,-272.5"/>
</g>
<!-- Node16 -->
<g id="node16" class="node"><title>Node16</title>
<g id="a_node16"><a xlink:href="../../de/d00/e1039-analysis_2OnlMonDev_2Fun4MainDaq_8C.html#ac28bfcc626ab9a3b0aea03bad954a5e5" target="_top" xlink:title="Fun4MainDaq">
<polygon fill="none" stroke="black" points="404.5,-228.5 404.5,-247.5 481.5,-247.5 481.5,-228.5 404.5,-228.5"/>
<text text-anchor="middle" x="443" y="-235.5" font-family="FreeSans" font-size="10.00">Fun4MainDaq</text>
</a>
</g>
</g>
<!-- Node8&#45;&gt;Node16 -->
<g id="edge15" class="edge"><title>Node8&#45;&gt;Node16</title>
<path fill="none" stroke="midnightblue" d="M315.832,-264.343C344.556,-258.345 378.804,-251.195 404.365,-245.858"/>
<polygon fill="midnightblue" stroke="midnightblue" points="315,-260.941 305.926,-266.411 316.431,-267.793 315,-260.941"/>
</g>
<!-- Node17 -->
<g id="node17" class="node"><title>Node17</title>
<g id="a_node17"><a xlink:href="../../d7/d66/Fun4PatternDB_8C.html#a9e68afec0dfdd12961d550386529d5eb" target="_top" xlink:title="Fun4PatternDB">
<polygon fill="none" stroke="black" points="401.5,-190.5 401.5,-209.5 484.5,-209.5 484.5,-190.5 401.5,-190.5"/>
<text text-anchor="middle" x="443" y="-197.5" font-family="FreeSans" font-size="10.00">Fun4PatternDB</text>
</a>
</g>
</g>
<!-- Node8&#45;&gt;Node17 -->
<g id="edge16" class="edge"><title>Node8&#45;&gt;Node17</title>
<path fill="none" stroke="midnightblue" d="M287.118,-261.717C311.119,-249.418 347.309,-231.695 380,-219 388.815,-215.577 398.521,-212.354 407.583,-209.57"/>
<polygon fill="midnightblue" stroke="midnightblue" points="285.21,-258.764 277.933,-266.465 288.424,-264.982 285.21,-258.764"/>
</g>
<!-- Node18 -->
<g id="node18" class="node"><title>Node18</title>
<g id="a_node18"><a xlink:href="../../d5/d7f/SimChainDev_2Fun4Sim_8C.html#a05d19d59f1955a51d54ae22957bbcf86" target="_top" xlink:title="Fun4Sim">
<polygon fill="none" stroke="black" points="415,-152.5 415,-171.5 471,-171.5 471,-152.5 415,-152.5"/>
<text text-anchor="middle" x="443" y="-159.5" font-family="FreeSans" font-size="10.00">Fun4Sim</text>
</a>
</g>
</g>
<!-- Node8&#45;&gt;Node18 -->
<g id="edge17" class="edge"><title>Node8&#45;&gt;Node18</title>
<path fill="none" stroke="midnightblue" d="M276.573,-259.5C298.493,-238.521 339.142,-202.453 380,-181 390.865,-175.295 403.717,-171.004 414.895,-167.957"/>
<polygon fill="midnightblue" stroke="midnightblue" points="274.111,-257.012 269.379,-266.492 278.99,-262.032 274.111,-257.012"/>
</g>
<!-- Node19 -->
<g id="node19" class="node"><title>Node19</title>
<g id="a_node19"><a xlink:href="../../d8/de7/Fun4SRawEvent_8C.html#aaa9bb2e956ce860a8cb6e7845bcc4ed5" target="_top" xlink:title="Fun4SRawEvent">
<polygon fill="none" stroke="black" points="399,-114.5 399,-133.5 487,-133.5 487,-114.5 399,-114.5"/>
<text text-anchor="middle" x="443" y="-121.5" font-family="FreeSans" font-size="10.00">Fun4SRawEvent</text>
</a>
</g>
</g>
<!-- Node8&#45;&gt;Node19 -->
<g id="edge18" class="edge"><title>Node8&#45;&gt;Node19</title>
<path fill="none" stroke="midnightblue" d="M271.627,-257.734C290.778,-229.106 331.686,-173.767 380,-143 386.077,-139.13 392.991,-136.007 399.943,-133.5"/>
<polygon fill="midnightblue" stroke="midnightblue" points="268.538,-256.062 265.987,-266.345 274.394,-259.897 268.538,-256.062"/>
</g>
<!-- Node20 -->
<g id="node20" class="node"><title>Node20</title>
<g id="a_node20"><a xlink:href="../../d2/d3a/Fun4TrkDev_8C.html#abd98cf50196a6ad7cb2289d1f0442b73" target="_top" xlink:title="Fun4TrkDev">
<polygon fill="none" stroke="black" points="408.5,-76.5 408.5,-95.5 477.5,-95.5 477.5,-76.5 408.5,-76.5"/>
<text text-anchor="middle" x="443" y="-83.5" font-family="FreeSans" font-size="10.00">Fun4TrkDev</text>
</a>
</g>
</g>
<!-- Node8&#45;&gt;Node20 -->
<g id="edge19" class="edge"><title>Node8&#45;&gt;Node20</title>
<path fill="none" stroke="midnightblue" d="M268.175,-256.977C284.311,-221.681 323.644,-145.929 380,-105 388.289,-98.9798 398.52,-94.8388 408.264,-92.0017"/>
<polygon fill="midnightblue" stroke="midnightblue" points="264.95,-255.616 264.08,-266.175 271.345,-258.463 264.95,-255.616"/>
</g>
<!-- Node21 -->
<g id="node21" class="node"><title>Node21</title>
<g id="a_node21"><a xlink:href="../../d6/d9e/EventDisp4MainDaqDst_8C.html#a9d62acc9c2150e00b509d9d553d7d6c1" target="_top" xlink:title="InitInput">
<polygon fill="none" stroke="black" points="417,-38.5 417,-57.5 469,-57.5 469,-38.5 417,-38.5"/>
<text text-anchor="middle" x="443" y="-45.5" font-family="FreeSans" font-size="10.00">InitInput</text>
</a>
</g>
</g>
<!-- Node8&#45;&gt;Node21 -->
<g id="edge20" class="edge"><title>Node8&#45;&gt;Node21</title>
<path fill="none" stroke="midnightblue" d="M265.66,-256.809C278.77,-215.713 315.153,-118.744 380,-67 390.472,-58.6442 404.605,-53.9511 416.733,-51.3212"/>
<polygon fill="midnightblue" stroke="midnightblue" points="262.3,-255.828 262.7,-266.415 268.99,-257.89 262.3,-255.828"/>
</g>
<!-- Node23 -->
<g id="node23" class="node"><title>Node23</title>
<g id="a_node23"><a xlink:href="../../d0/d9c/RecoE1039Sim_8C.html#a7505ed22de28394b320e370de5caa6c3" target="_top" xlink:title="RecoE1039Sim">
<polygon fill="none" stroke="black" points="401.5,-0.5 401.5,-19.5 484.5,-19.5 484.5,-0.5 401.5,-0.5"/>
<text text-anchor="middle" x="443" y="-7.5" font-family="FreeSans" font-size="10.00">RecoE1039Sim</text>
</a>
</g>
</g>
<!-- Node8&#45;&gt;Node23 -->
<g id="edge22" class="edge"><title>Node8&#45;&gt;Node23</title>
<path fill="none" stroke="midnightblue" d="M263.951,-256.246C274.319,-209.577 306.724,-91.723 380,-29 386.158,-23.729 393.756,-19.92 401.498,-17.1675"/>
<polygon fill="midnightblue" stroke="midnightblue" points="260.476,-255.759 261.825,-266.267 267.324,-257.211 260.476,-255.759"/>
</g>
<!-- Node22 -->
<g id="node22" class="node"><title>Node22</title>
<g id="a_node22"><a xlink:href="../../d6/d9e/EventDisp4MainDaqDst_8C.html#a52e0269749883c6976db81717ead7d9b" target="_top" xlink:title="EventDisp4MainDaqDst">
<polygon fill="none" stroke="black" points="542.5,-38.5 542.5,-57.5 659.5,-57.5 659.5,-38.5 542.5,-38.5"/>
<text text-anchor="middle" x="601" y="-45.5" font-family="FreeSans" font-size="10.00">EventDisp4MainDaqDst</text>
</a>
</g>
</g>
<!-- Node21&#45;&gt;Node22 -->
<g id="edge21" class="edge"><title>Node21&#45;&gt;Node22</title>
<path fill="none" stroke="midnightblue" d="M479.151,-48C497.766,-48 521.102,-48 542.291,-48"/>
<polygon fill="midnightblue" stroke="midnightblue" points="479.064,-44.5001 469.064,-48 479.064,-51.5001 479.064,-44.5001"/>
</g>
</g>
</svg>
