<?xml version="1.0" encoding="UTF-8" standalone="no"?>
<!DOCTYPE svg PUBLIC "-//W3C//DTD SVG 1.1//EN"
 "http://www.w3.org/Graphics/SVG/1.1/DTD/svg11.dtd">
<!-- Generated by graphviz version 2.36.0 (20140111.2315)
 -->
<!-- Title: PHG4Hit::set_layer Pages: 1 -->
<svg width="310pt" height="479pt"
 viewBox="0.00 0.00 310.00 479.00" xmlns="http://www.w3.org/2000/svg" xmlns:xlink="http://www.w3.org/1999/xlink">
<g id="graph0" class="graph" transform="scale(1 1) rotate(0) translate(4 475)">
<title>PHG4Hit::set_layer</title>
<!-- Node1 -->
<g id="node1" class="node"><title>Node1</title>
<polygon fill="#bfbfbf" stroke="black" points="0,-225.5 0,-244.5 100,-244.5 100,-225.5 0,-225.5"/>
<text text-anchor="middle" x="50" y="-232.5" font-family="FreeSans" font-size="10.00">PHG4Hit::set_layer</text>
</g>
<!-- Node2 -->
<g id="node2" class="node"><title>Node2</title>
<g id="a_node2"><a xlink:href="../../d7/da4/classPHG4GenHit.html#ac94e3d486c5184596fff96b0b6070fb1" target="_top" xlink:title="PHG4GenHit::process\l_event">
<polygon fill="none" stroke="black" points="162.5,-441 162.5,-471 275.5,-471 275.5,-441 162.5,-441"/>
<text text-anchor="start" x="170.5" y="-459" font-family="FreeSans" font-size="10.00">PHG4GenHit::process</text>
<text text-anchor="middle" x="219" y="-448" font-family="FreeSans" font-size="10.00">_event</text>
</a>
</g>
</g>
<!-- Node1&#45;&gt;Node2 -->
<g id="edge1" class="edge"><title>Node1&#45;&gt;Node2</title>
<path fill="none" stroke="midnightblue" d="M53.9676,-254.762C60.9277,-294.15 81.9926,-382.788 136,-431 143.55,-437.74 152.874,-442.663 162.498,-446.259"/>
<polygon fill="midnightblue" stroke="midnightblue" points="57.4101,-254.126 52.3317,-244.828 50.5032,-255.263 57.4101,-254.126"/>
</g>
<!-- Node3 -->
<g id="node3" class="node"><title>Node3</title>
<g id="a_node3"><a xlink:href="../../d9/d14/classPHG4E1039InsensSteppingAction.html#a96517d619844a56a49d337482f09d5dd" target="_top" xlink:title="stepping action ">
<polygon fill="none" stroke="black" points="136,-392 136,-422 302,-422 302,-392 136,-392"/>
<text text-anchor="start" x="144" y="-410" font-family="FreeSans" font-size="10.00">PHG4E1039InsensSteppingAction</text>
<text text-anchor="middle" x="219" y="-399" font-family="FreeSans" font-size="10.00">::UserSteppingAction</text>
</a>
</g>
</g>
<!-- Node1&#45;&gt;Node3 -->
<g id="edge2" class="edge"><title>Node1&#45;&gt;Node3</title>
<path fill="none" stroke="midnightblue" d="M56.9485,-254.281C67.6306,-285.708 93.0482,-347.885 136,-382 140.895,-385.888 146.391,-389.173 152.159,-391.948"/>
<polygon fill="midnightblue" stroke="midnightblue" points="60.2026,-252.97 53.78,-244.544 53.5462,-255.136 60.2026,-252.97"/>
</g>
<!-- Node4 -->
<g id="node4" class="node"><title>Node4</title>
<g id="a_node4"><a xlink:href="../../dc/d4f/classPHG4SquareTubeSteppingAction.html#a92220e4fe55c670cc2a51162184abb11" target="_top" xlink:title="stepping action ">
<polygon fill="none" stroke="black" points="138,-343 138,-373 300,-373 300,-343 138,-343"/>
<text text-anchor="start" x="146" y="-361" font-family="FreeSans" font-size="10.00">PHG4SquareTubeSteppingAction</text>
<text text-anchor="middle" x="219" y="-350" font-family="FreeSans" font-size="10.00">::UserSteppingAction</text>
</a>
</g>
</g>
<!-- Node1&#45;&gt;Node4 -->
<g id="edge3" class="edge"><title>Node1&#45;&gt;Node4</title>
<path fill="none" stroke="midnightblue" d="M62.0821,-253.105C76.4697,-275.127 103.61,-311.958 136,-333 141.866,-336.811 148.342,-340.065 155.006,-342.838"/>
<polygon fill="midnightblue" stroke="midnightblue" points="65.0354,-251.227 56.7186,-244.663 59.127,-254.981 65.0354,-251.227"/>
</g>
<!-- Node5 -->
<g id="node5" class="node"><title>Node5</title>
<g id="a_node5"><a xlink:href="../../d1/da2/classPHG4BlockSteppingAction.html#ae7baa1eb4f42a8a23888709986dd6881" target="_top" xlink:title="stepping action ">
<polygon fill="none" stroke="black" points="152,-294 152,-324 286,-324 286,-294 152,-294"/>
<text text-anchor="start" x="160" y="-312" font-family="FreeSans" font-size="10.00">PHG4BlockSteppingAction</text>
<text text-anchor="middle" x="219" y="-301" font-family="FreeSans" font-size="10.00">::UserSteppingAction</text>
</a>
</g>
</g>
<!-- Node1&#45;&gt;Node5 -->
<g id="edge4" class="edge"><title>Node1&#45;&gt;Node5</title>
<path fill="none" stroke="midnightblue" d="M73.743,-250.013C90.4514,-260.564 113.983,-274.445 136,-284 144.328,-287.614 153.343,-290.925 162.245,-293.873"/>
<polygon fill="midnightblue" stroke="midnightblue" points="75.5224,-246.997 65.2155,-244.543 71.7428,-252.889 75.5224,-246.997"/>
</g>
<!-- Node6 -->
<g id="node6" class="node"><title>Node6</title>
<g id="a_node6"><a xlink:href="../../d2/dc6/classPHG4CollimatorSteppingAction.html#a615dc42ea59ff8790f73255c56a8c654" target="_top" xlink:title="stepping action ">
<polygon fill="none" stroke="black" points="142.5,-245 142.5,-275 295.5,-275 295.5,-245 142.5,-245"/>
<text text-anchor="start" x="150.5" y="-263" font-family="FreeSans" font-size="10.00">PHG4CollimatorSteppingAction</text>
<text text-anchor="middle" x="219" y="-252" font-family="FreeSans" font-size="10.00">::UserSteppingAction</text>
</a>
</g>
</g>
<!-- Node1&#45;&gt;Node6 -->
<g id="edge5" class="edge"><title>Node1&#45;&gt;Node6</title>
<path fill="none" stroke="midnightblue" d="M110.321,-243.88C120.645,-245.426 131.509,-247.052 142.204,-248.653"/>
<polygon fill="midnightblue" stroke="midnightblue" points="110.61,-240.385 100.202,-242.366 109.574,-247.308 110.61,-240.385"/>
</g>
<!-- Node7 -->
<g id="node7" class="node"><title>Node7</title>
<g id="a_node7"><a xlink:href="../../da/d58/classPHG4CylinderSteppingAction.html#a617bc1e8c57c83679e482a27a7d5a8b5" target="_top" xlink:title="stepping action ">
<polygon fill="none" stroke="black" points="147,-196 147,-226 291,-226 291,-196 147,-196"/>
<text text-anchor="start" x="155" y="-214" font-family="FreeSans" font-size="10.00">PHG4CylinderSteppingAction</text>
<text text-anchor="middle" x="219" y="-203" font-family="FreeSans" font-size="10.00">::UserSteppingAction</text>
</a>
</g>
</g>
<!-- Node1&#45;&gt;Node7 -->
<g id="edge6" class="edge"><title>Node1&#45;&gt;Node7</title>
<path fill="none" stroke="midnightblue" d="M110.377,-226.467C122.192,-224.769 134.712,-222.969 146.874,-221.222"/>
<polygon fill="midnightblue" stroke="midnightblue" points="109.603,-223.042 100.202,-227.929 110.598,-229.971 109.603,-223.042"/>
</g>
<!-- Node8 -->
<g id="node8" class="node"><title>Node8</title>
<g id="a_node8"><a xlink:href="../../d2/db5/classPHG4BNLTargetCoilSteppingAction.html#a0e62c4546b2a6fceca0f410e1fe4d222" target="_top" xlink:title="stepping action ">
<polygon fill="none" stroke="black" points="146,-147 146,-177 292,-177 292,-147 146,-147"/>
<text text-anchor="start" x="154" y="-165" font-family="FreeSans" font-size="10.00">PHG4BNLTargetCoilStepping</text>
<text text-anchor="middle" x="219" y="-154" font-family="FreeSans" font-size="10.00">Action::UserSteppingAction</text>
</a>
</g>
</g>
<!-- Node1&#45;&gt;Node8 -->
<g id="edge7" class="edge"><title>Node1&#45;&gt;Node8</title>
<path fill="none" stroke="midnightblue" d="M74.0862,-220.137C90.7955,-209.84 114.183,-196.353 136,-187 144.481,-183.364 153.664,-180.023 162.711,-177.047"/>
<polygon fill="midnightblue" stroke="midnightblue" points="72.1632,-217.212 65.5428,-225.484 75.8765,-223.146 72.1632,-217.212"/>
</g>
<!-- Node9 -->
<g id="node9" class="node"><title>Node9</title>
<g id="a_node9"><a xlink:href="../../d0/dc8/classPHG4TargetCoilV2SteppingAction.html#a751aa8a428c0b81f6afc2b0d53005e48" target="_top" xlink:title="stepping action ">
<polygon fill="none" stroke="black" points="150,-98 150,-128 288,-128 288,-98 150,-98"/>
<text text-anchor="start" x="158" y="-116" font-family="FreeSans" font-size="10.00">PHG4TargetCoilV2Stepping</text>
<text text-anchor="middle" x="219" y="-105" font-family="FreeSans" font-size="10.00">Action::UserSteppingAction</text>
</a>
</g>
</g>
<!-- Node1&#45;&gt;Node9 -->
<g id="edge8" class="edge"><title>Node1&#45;&gt;Node9</title>
<path fill="none" stroke="midnightblue" d="M62.3203,-216.79C76.8017,-194.964 103.889,-158.745 136,-138 142.001,-134.123 148.634,-130.822 155.451,-128.015"/>
<polygon fill="midnightblue" stroke="midnightblue" points="59.2222,-215.136 56.744,-225.437 65.1051,-218.93 59.2222,-215.136"/>
</g>
<!-- Node10 -->
<g id="node10" class="node"><title>Node10</title>
<g id="a_node10"><a xlink:href="../../d3/d3d/classPHG4PolyconSteppingAction.html#a3c87e656ab7fe0670495941e0c545bfd" target="_top" xlink:title="stepping action ">
<polygon fill="none" stroke="black" points="147,-49 147,-79 291,-79 291,-49 147,-49"/>
<text text-anchor="start" x="155" y="-67" font-family="FreeSans" font-size="10.00">PHG4PolyconSteppingAction</text>
<text text-anchor="middle" x="219" y="-56" font-family="FreeSans" font-size="10.00">::UserSteppingAction</text>
</a>
</g>
</g>
<!-- Node1&#45;&gt;Node10 -->
<g id="edge9" class="edge"><title>Node1&#45;&gt;Node10</title>
<path fill="none" stroke="midnightblue" d="M57.1421,-215.397C67.9682,-184.041 93.4224,-122.715 136,-89 140.901,-85.1195 146.4,-81.8394 152.171,-79.0671"/>
<polygon fill="midnightblue" stroke="midnightblue" points="53.7358,-214.55 53.9187,-225.143 60.3817,-216.748 53.7358,-214.55"/>
</g>
<!-- Node11 -->
<g id="node11" class="node"><title>Node11</title>
<g id="a_node11"><a xlink:href="../../db/d00/classPHG4TargetCoilSteppingAction.html#a782a5cc75c50dcb78cff48729fe8922f" target="_top" xlink:title="stepping action ">
<polygon fill="none" stroke="black" points="142,-0 142,-30 296,-30 296,-0 142,-0"/>
<text text-anchor="start" x="150" y="-18" font-family="FreeSans" font-size="10.00">PHG4TargetCoilSteppingAction</text>
<text text-anchor="middle" x="219" y="-7" font-family="FreeSans" font-size="10.00">::UserSteppingAction</text>
</a>
</g>
</g>
<!-- Node1&#45;&gt;Node11 -->
<g id="edge10" class="edge"><title>Node1&#45;&gt;Node11</title>
<path fill="none" stroke="midnightblue" d="M53.9993,-215.337C61.0165,-176.146 82.1795,-87.9548 136,-40 140.334,-36.1386 145.25,-32.8736 150.471,-30.1127"/>
<polygon fill="midnightblue" stroke="midnightblue" points="50.5437,-214.782 52.3482,-225.222 57.448,-215.935 50.5437,-214.782"/>
</g>
</g>
</svg>
