<?xml version="1.0" encoding="UTF-8" standalone="no"?>
<!DOCTYPE svg PUBLIC "-//W3C//DTD SVG 1.1//EN"
 "http://www.w3.org/Graphics/SVG/1.1/DTD/svg11.dtd">
<!-- Generated by graphviz version 2.36.0 (20140111.2315)
 -->
<!-- Title: /home/yuhw/GitHub/SeaQuest/e1039&#45;core/online/chan_map/CalibParamInTimeTaiwan.cc Pages: 1 -->
<svg width="969pt" height="274pt"
 viewBox="0.00 0.00 969.00 274.00" xmlns="http://www.w3.org/2000/svg" xmlns:xlink="http://www.w3.org/1999/xlink">
<g id="graph0" class="graph" transform="scale(1 1) rotate(0) translate(4 270)">
<title>/home/yuhw/GitHub/SeaQuest/e1039&#45;core/online/chan_map/CalibParamInTimeTaiwan.cc</title>
<!-- Node1 -->
<g id="node1" class="node"><title>Node1</title>
<polygon fill="#bfbfbf" stroke="black" points="409,-224.5 409,-265.5 577,-265.5 577,-224.5 409,-224.5"/>
<text text-anchor="start" x="417" y="-253.5" font-family="FreeSans" font-size="10.00">/home/yuhw/GitHub/SeaQuest</text>
<text text-anchor="start" x="417" y="-242.5" font-family="FreeSans" font-size="10.00">/e1039&#45;core/online/chan</text>
<text text-anchor="middle" x="493" y="-231.5" font-family="FreeSans" font-size="10.00">_map/CalibParamInTimeTaiwan.cc</text>
</g>
<!-- Node2 -->
<g id="node2" class="node"><title>Node2</title>
<polygon fill="none" stroke="#bfbfbf" points="0,-0.5 0,-19.5 54,-19.5 54,-0.5 0,-0.5"/>
<text text-anchor="middle" x="27" y="-7.5" font-family="FreeSans" font-size="10.00">iostream</text>
</g>
<!-- Node1&#45;&gt;Node2 -->
<g id="edge1" class="edge"><title>Node1&#45;&gt;Node2</title>
<path fill="none" stroke="midnightblue" d="M408.844,-238.853C310.552,-231.643 154.902,-216.15 104,-188 46.8799,-156.411 31.4878,-137.277 9,-76 3.21353,-60.2326 9.56232,-41.7281 16.2641,-28.5039"/>
<polygon fill="midnightblue" stroke="midnightblue" points="19.4427,-29.9905 21.2627,-19.5532 13.3311,-26.5774 19.4427,-29.9905"/>
</g>
<!-- Node3 -->
<g id="node3" class="node"><title>Node3</title>
<polygon fill="none" stroke="#bfbfbf" points="468,-168.5 468,-187.5 518,-187.5 518,-168.5 468,-168.5"/>
<text text-anchor="middle" x="493" y="-175.5" font-family="FreeSans" font-size="10.00">iomanip</text>
</g>
<!-- Node1&#45;&gt;Node3 -->
<g id="edge2" class="edge"><title>Node1&#45;&gt;Node3</title>
<path fill="none" stroke="midnightblue" d="M493,-224.498C493,-216.065 493,-206.235 493,-197.874"/>
<polygon fill="midnightblue" stroke="midnightblue" points="496.5,-197.652 493,-187.652 489.5,-197.653 496.5,-197.652"/>
</g>
<!-- Node4 -->
<g id="node4" class="node"><title>Node4</title>
<polygon fill="none" stroke="#bfbfbf" points="376,-112.5 376,-131.5 428,-131.5 428,-112.5 376,-112.5"/>
<text text-anchor="middle" x="402" y="-119.5" font-family="FreeSans" font-size="10.00">sstream</text>
</g>
<!-- Node1&#45;&gt;Node4 -->
<g id="edge3" class="edge"><title>Node1&#45;&gt;Node4</title>
<path fill="none" stroke="midnightblue" d="M477.785,-224.372C469.518,-213.66 459.143,-200.142 450,-188 437.795,-171.793 424.061,-153.153 414.42,-140.001"/>
<polygon fill="midnightblue" stroke="midnightblue" points="417.2,-137.873 408.469,-131.87 411.551,-142.007 417.2,-137.873"/>
</g>
<!-- Node5 -->
<g id="node5" class="node"><title>Node5</title>
<polygon fill="none" stroke="#bfbfbf" points="536.5,-168.5 536.5,-187.5 581.5,-187.5 581.5,-168.5 536.5,-168.5"/>
<text text-anchor="middle" x="559" y="-175.5" font-family="FreeSans" font-size="10.00">cstdlib</text>
</g>
<!-- Node1&#45;&gt;Node5 -->
<g id="edge4" class="edge"><title>Node1&#45;&gt;Node5</title>
<path fill="none" stroke="midnightblue" d="M512.802,-224.498C522.435,-215.011 533.863,-203.756 542.944,-194.813"/>
<polygon fill="midnightblue" stroke="midnightblue" points="545.545,-197.163 550.214,-187.652 540.634,-192.176 545.545,-197.163"/>
</g>
<!-- Node6 -->
<g id="node6" class="node"><title>Node6</title>
<polygon fill="none" stroke="#bfbfbf" points="600,-168.5 600,-187.5 650,-187.5 650,-168.5 600,-168.5"/>
<text text-anchor="middle" x="625" y="-175.5" font-family="FreeSans" font-size="10.00">fstream</text>
</g>
<!-- Node1&#45;&gt;Node6 -->
<g id="edge5" class="edge"><title>Node1&#45;&gt;Node6</title>
<path fill="none" stroke="midnightblue" d="M532.604,-224.498C553.815,-214.053 579.381,-201.464 598.238,-192.178"/>
<polygon fill="midnightblue" stroke="midnightblue" points="600.004,-195.21 607.429,-187.652 596.911,-188.93 600.004,-195.21"/>
</g>
<!-- Node7 -->
<g id="node7" class="node"><title>Node7</title>
<polygon fill="none" stroke="#bfbfbf" points="668.5,-168.5 668.5,-187.5 747.5,-187.5 747.5,-168.5 668.5,-168.5"/>
<text text-anchor="middle" x="708" y="-175.5" font-family="FreeSans" font-size="10.00">TSQLServer.h</text>
</g>
<!-- Node1&#45;&gt;Node7 -->
<g id="edge6" class="edge"><title>Node1&#45;&gt;Node7</title>
<path fill="none" stroke="midnightblue" d="M557.507,-224.498C594.227,-213.396 638.96,-199.872 670.069,-190.468"/>
<polygon fill="midnightblue" stroke="midnightblue" points="671.104,-193.811 679.663,-187.567 669.078,-187.111 671.104,-193.811"/>
</g>
<!-- Node8 -->
<g id="node8" class="node"><title>Node8</title>
<polygon fill="none" stroke="#bfbfbf" points="765.5,-168.5 765.5,-187.5 860.5,-187.5 860.5,-168.5 765.5,-168.5"/>
<text text-anchor="middle" x="813" y="-175.5" font-family="FreeSans" font-size="10.00">TSQLStatement.h</text>
</g>
<!-- Node1&#45;&gt;Node8 -->
<g id="edge7" class="edge"><title>Node1&#45;&gt;Node8</title>
<path fill="none" stroke="midnightblue" d="M577.076,-226.922C635.459,-215.063 711.398,-199.638 761.135,-189.535"/>
<polygon fill="midnightblue" stroke="midnightblue" points="761.924,-192.946 771.027,-187.526 760.53,-186.087 761.924,-192.946"/>
</g>
<!-- Node9 -->
<g id="node9" class="node"><title>Node9</title>
<polygon fill="none" stroke="#bfbfbf" points="879,-168.5 879,-187.5 961,-187.5 961,-168.5 879,-168.5"/>
<text text-anchor="middle" x="920" y="-175.5" font-family="FreeSans" font-size="10.00">TGraphErrors.h</text>
</g>
<!-- Node1&#45;&gt;Node9 -->
<g id="edge8" class="edge"><title>Node1&#45;&gt;Node9</title>
<path fill="none" stroke="midnightblue" d="M577.101,-232.133C651.06,-221.545 761.889,-205.312 868.818,-187.99"/>
<polygon fill="midnightblue" stroke="midnightblue" points="869.511,-191.423 878.82,-186.365 868.388,-184.514 869.511,-191.423"/>
</g>
<!-- Node10 -->
<g id="node10" class="node"><title>Node10</title>
<g id="a_node10"><a xlink:href="../../d6/d19/GeomSvc_8h.html" target="_top" xlink:title="geom_svc/GeomSvc.h">
<polygon fill="none" stroke="black" points="486,-112.5 486,-131.5 602,-131.5 602,-112.5 486,-112.5"/>
<text text-anchor="middle" x="544" y="-119.5" font-family="FreeSans" font-size="10.00">geom_svc/GeomSvc.h</text>
</a>
</g>
</g>
<!-- Node1&#45;&gt;Node10 -->
<g id="edge9" class="edge"><title>Node1&#45;&gt;Node10</title>
<path fill="none" stroke="midnightblue" d="M473.797,-224.299C460.878,-208.561 448.04,-186.204 459,-168 468.287,-152.574 484.833,-142.16 500.874,-135.271"/>
<polygon fill="midnightblue" stroke="midnightblue" points="502.17,-138.522 510.201,-131.612 499.614,-132.006 502.17,-138.522"/>
</g>
<!-- Node20 -->
<g id="node20" class="node"><title>Node20</title>
<g id="a_node20"><a xlink:href="../../d7/d8f/DbSvc_8h.html" target="_top" xlink:title="db_svc/DbSvc.h">
<polygon fill="none" stroke="black" points="286,-168.5 286,-187.5 374,-187.5 374,-168.5 286,-168.5"/>
<text text-anchor="middle" x="330" y="-175.5" font-family="FreeSans" font-size="10.00">db_svc/DbSvc.h</text>
</a>
</g>
</g>
<!-- Node1&#45;&gt;Node20 -->
<g id="edge22" class="edge"><title>Node1&#45;&gt;Node20</title>
<path fill="none" stroke="midnightblue" d="M444.095,-224.498C417.181,-213.766 384.59,-200.769 361.143,-191.419"/>
<polygon fill="midnightblue" stroke="midnightblue" points="362.283,-188.106 351.698,-187.652 359.69,-194.608 362.283,-188.106"/>
</g>
<!-- Node21 -->
<g id="node21" class="node"><title>Node21</title>
<g id="a_node21"><a xlink:href="../../d7/d78/CalibParamInTimeTaiwan_8h.html" target="_top" xlink:title="CalibParamInTimeTaiwan.h">
<polygon fill="none" stroke="black" points="113,-168.5 113,-187.5 249,-187.5 249,-168.5 113,-168.5"/>
<text text-anchor="middle" x="181" y="-175.5" font-family="FreeSans" font-size="10.00">CalibParamInTimeTaiwan.h</text>
</a>
</g>
</g>
<!-- Node1&#45;&gt;Node21 -->
<g id="edge26" class="edge"><title>Node1&#45;&gt;Node21</title>
<path fill="none" stroke="midnightblue" d="M408.979,-226.496C352.531,-214.736 279.978,-199.62 232.059,-189.637"/>
<polygon fill="midnightblue" stroke="midnightblue" points="232.725,-186.201 222.222,-187.588 231.298,-193.054 232.725,-186.201"/>
</g>
<!-- Node10&#45;&gt;Node2 -->
<g id="edge10" class="edge"><title>Node10&#45;&gt;Node2</title>
<path fill="none" stroke="midnightblue" d="M544.158,-112.18C543.887,-97.8768 541.058,-69.8309 524,-56 519.524,-52.3705 178.898,-23.6666 64.2107,-14.0944"/>
<polygon fill="midnightblue" stroke="midnightblue" points="64.4036,-10.5985 54.1473,-13.2552 63.8218,-17.5743 64.4036,-10.5985"/>
</g>
<!-- Node11 -->
<g id="node11" class="node"><title>Node11</title>
<polygon fill="none" stroke="#bfbfbf" points="148,-0.5 148,-19.5 192,-19.5 192,-0.5 148,-0.5"/>
<text text-anchor="middle" x="170" y="-7.5" font-family="FreeSans" font-size="10.00">vector</text>
</g>
<!-- Node10&#45;&gt;Node11 -->
<g id="edge11" class="edge"><title>Node10&#45;&gt;Node11</title>
<path fill="none" stroke="midnightblue" d="M550.052,-112.231C558.714,-98.5007 572.127,-71.8606 558,-56 546.164,-42.7116 292.805,-20.9549 202.015,-13.5557"/>
<polygon fill="midnightblue" stroke="midnightblue" points="202.27,-10.065 192.02,-12.7458 201.705,-17.0422 202.27,-10.065"/>
</g>
<!-- Node12 -->
<g id="node12" class="node"><title>Node12</title>
<polygon fill="none" stroke="#bfbfbf" points="327.5,-0.5 327.5,-19.5 368.5,-19.5 368.5,-0.5 327.5,-0.5"/>
<text text-anchor="middle" x="348" y="-7.5" font-family="FreeSans" font-size="10.00">string</text>
</g>
<!-- Node10&#45;&gt;Node12 -->
<g id="edge12" class="edge"><title>Node10&#45;&gt;Node12</title>
<path fill="none" stroke="midnightblue" d="M559.436,-112.495C580.19,-99.9912 612.671,-75.9683 596,-56 568.618,-23.2027 438.71,-14.2571 378.62,-11.8586"/>
<polygon fill="midnightblue" stroke="midnightblue" points="378.71,-8.35965 368.589,-11.4936 378.455,-15.355 378.71,-8.35965"/>
</g>
<!-- Node13 -->
<g id="node13" class="node"><title>Node13</title>
<polygon fill="none" stroke="#bfbfbf" points="284.5,-56.5 284.5,-75.5 319.5,-75.5 319.5,-56.5 284.5,-56.5"/>
<text text-anchor="middle" x="302" y="-63.5" font-family="FreeSans" font-size="10.00">map</text>
</g>
<!-- Node10&#45;&gt;Node13 -->
<g id="edge13" class="edge"><title>Node10&#45;&gt;Node13</title>
<path fill="none" stroke="midnightblue" d="M505.654,-112.444C456.528,-101.481 372.581,-82.7496 329.414,-73.1172"/>
<polygon fill="midnightblue" stroke="midnightblue" points="330.133,-69.6915 319.61,-70.9296 328.608,-76.5235 330.133,-69.6915"/>
</g>
<!-- Node14 -->
<g id="node14" class="node"><title>Node14</title>
<polygon fill="none" stroke="#bfbfbf" points="376,-56.5 376,-75.5 440,-75.5 440,-56.5 376,-56.5"/>
<text text-anchor="middle" x="408" y="-63.5" font-family="FreeSans" font-size="10.00">TVector3.h</text>
</g>
<!-- Node10&#45;&gt;Node14 -->
<g id="edge14" class="edge"><title>Node10&#45;&gt;Node14</title>
<path fill="none" stroke="midnightblue" d="M522.45,-112.444C499.969,-103.517 464.512,-89.4387 439.02,-79.3168"/>
<polygon fill="midnightblue" stroke="midnightblue" points="440.035,-75.9539 429.449,-75.5164 437.451,-82.4598 440.035,-75.9539"/>
</g>
<!-- Node15 -->
<g id="node15" class="node"><title>Node15</title>
<polygon fill="none" stroke="#bfbfbf" points="458.5,-56.5 458.5,-75.5 515.5,-75.5 515.5,-56.5 458.5,-56.5"/>
<text text-anchor="middle" x="487" y="-63.5" font-family="FreeSans" font-size="10.00">TSpline.h</text>
</g>
<!-- Node10&#45;&gt;Node15 -->
<g id="edge15" class="edge"><title>Node10&#45;&gt;Node15</title>
<path fill="none" stroke="midnightblue" d="M534.842,-112.324C526.499,-104.42 513.968,-92.5482 503.823,-82.9377"/>
<polygon fill="midnightblue" stroke="midnightblue" points="505.991,-80.1705 496.325,-75.8339 501.177,-85.2522 505.991,-80.1705"/>
</g>
<!-- Node16 -->
<g id="node16" class="node"><title>Node16</title>
<g id="a_node16"><a xlink:href="../../da/d12/JobOptsSvc_8h.html" target="_top" xlink:title="jobopts_svc/JobOptsSvc.h">
<polygon fill="none" stroke="black" points="648,-56.5 648,-75.5 782,-75.5 782,-56.5 648,-56.5"/>
<text text-anchor="middle" x="715" y="-63.5" font-family="FreeSans" font-size="10.00">jobopts_svc/JobOptsSvc.h</text>
</a>
</g>
</g>
<!-- Node10&#45;&gt;Node16 -->
<g id="edge16" class="edge"><title>Node10&#45;&gt;Node16</title>
<path fill="none" stroke="midnightblue" d="M571.095,-112.444C599.988,-103.32 645.925,-88.8133 678.105,-78.6509"/>
<polygon fill="midnightblue" stroke="midnightblue" points="679.549,-81.8654 688.031,-75.5164 677.441,-75.1903 679.549,-81.8654"/>
</g>
<!-- Node19 -->
<g id="node19" class="node"><title>Node19</title>
<g id="a_node19"><a xlink:href="../../dd/de2/GlobalConsts_8h.html" target="_top" xlink:title="GlobalConsts.h">
<polygon fill="none" stroke="black" points="766.5,-0.5 766.5,-19.5 849.5,-19.5 849.5,-0.5 766.5,-0.5"/>
<text text-anchor="middle" x="808" y="-7.5" font-family="FreeSans" font-size="10.00">GlobalConsts.h</text>
</a>
</g>
</g>
<!-- Node10&#45;&gt;Node19 -->
<g id="edge21" class="edge"><title>Node10&#45;&gt;Node19</title>
<path fill="none" stroke="midnightblue" d="M602.263,-117.505C666.458,-112.459 764.19,-100.856 791,-76 803.678,-64.2458 807.374,-44.3133 808.239,-29.6129"/>
<polygon fill="midnightblue" stroke="midnightblue" points="811.738,-29.6852 808.451,-19.6134 804.74,-29.5372 811.738,-29.6852"/>
</g>
<!-- Node16&#45;&gt;Node12 -->
<g id="edge17" class="edge"><title>Node16&#45;&gt;Node12</title>
<path fill="none" stroke="midnightblue" d="M656.848,-56.4435C578.101,-44.8569 440.362,-24.59 379.009,-15.5626"/>
<polygon fill="midnightblue" stroke="midnightblue" points="379.216,-12.0555 368.813,-14.0624 378.197,-18.9809 379.216,-12.0555"/>
</g>
<!-- Node17 -->
<g id="node17" class="node"><title>Node17</title>
<polygon fill="none" stroke="#bfbfbf" points="625,-0.5 625,-19.5 671,-19.5 671,-0.5 625,-0.5"/>
<text text-anchor="middle" x="648" y="-7.5" font-family="FreeSans" font-size="10.00">TFile.h</text>
</g>
<!-- Node16&#45;&gt;Node17 -->
<g id="edge18" class="edge"><title>Node16&#45;&gt;Node17</title>
<path fill="none" stroke="midnightblue" d="M704.235,-56.324C694.234,-48.2631 679.113,-36.0765 667.07,-26.3695"/>
<polygon fill="midnightblue" stroke="midnightblue" points="668.943,-23.3841 658.961,-19.8339 664.55,-28.8343 668.943,-23.3841"/>
</g>
<!-- Node18 -->
<g id="node18" class="node"><title>Node18</title>
<polygon fill="none" stroke="#bfbfbf" points="689,-0.5 689,-19.5 745,-19.5 745,-0.5 689,-0.5"/>
<text text-anchor="middle" x="717" y="-7.5" font-family="FreeSans" font-size="10.00">TString.h</text>
</g>
<!-- Node16&#45;&gt;Node18 -->
<g id="edge19" class="edge"><title>Node16&#45;&gt;Node18</title>
<path fill="none" stroke="midnightblue" d="M715.33,-56.083C715.592,-49.0059 715.968,-38.8611 716.297,-29.9865"/>
<polygon fill="midnightblue" stroke="midnightblue" points="719.803,-29.8738 716.676,-19.7511 712.808,-29.6147 719.803,-29.8738"/>
</g>
<!-- Node16&#45;&gt;Node19 -->
<g id="edge20" class="edge"><title>Node16&#45;&gt;Node19</title>
<path fill="none" stroke="midnightblue" d="M729.942,-56.324C744.585,-47.8215 767.134,-34.7288 784.238,-24.7975"/>
<polygon fill="midnightblue" stroke="midnightblue" points="786.205,-27.7027 793.095,-19.6545 782.69,-21.6491 786.205,-27.7027"/>
</g>
<!-- Node20&#45;&gt;Node4 -->
<g id="edge25" class="edge"><title>Node20&#45;&gt;Node4</title>
<path fill="none" stroke="midnightblue" d="M341.568,-168.324C352.42,-160.185 368.881,-147.839 381.883,-138.087"/>
<polygon fill="midnightblue" stroke="midnightblue" points="384.321,-140.634 390.221,-131.834 380.121,-135.034 384.321,-140.634"/>
</g>
<!-- Node20&#45;&gt;Node11 -->
<g id="edge23" class="edge"><title>Node20&#45;&gt;Node11</title>
<path fill="none" stroke="midnightblue" d="M324.736,-168.32C311.72,-147.321 276.226,-92.798 237,-56 224.13,-43.9268 207.708,-32.8419 194.344,-24.6947"/>
<polygon fill="midnightblue" stroke="midnightblue" points="196.048,-21.6363 185.661,-19.5477 192.478,-27.6578 196.048,-21.6363"/>
</g>
<!-- Node20&#45;&gt;Node12 -->
<g id="edge24" class="edge"><title>Node20&#45;&gt;Node12</title>
<path fill="none" stroke="midnightblue" d="M330.968,-168.075C333.801,-141.945 342.122,-65.2106 345.986,-29.577"/>
<polygon fill="midnightblue" stroke="midnightblue" points="349.472,-29.8872 347.071,-19.5681 342.513,-29.1325 349.472,-29.8872"/>
</g>
<!-- Node22 -->
<g id="node22" class="node"><title>Node22</title>
<g id="a_node22"><a xlink:href="../../d4/d28/RunParamBase_8h.html" target="_top" xlink:title="RunParamBase.h">
<polygon fill="none" stroke="black" points="116,-112.5 116,-131.5 208,-131.5 208,-112.5 116,-112.5"/>
<text text-anchor="middle" x="162" y="-119.5" font-family="FreeSans" font-size="10.00">RunParamBase.h</text>
</a>
</g>
</g>
<!-- Node21&#45;&gt;Node22 -->
<g id="edge27" class="edge"><title>Node21&#45;&gt;Node22</title>
<path fill="none" stroke="midnightblue" d="M177.863,-168.083C175.317,-160.849 171.644,-150.409 168.473,-141.397"/>
<polygon fill="midnightblue" stroke="midnightblue" points="171.7,-140.023 165.079,-131.751 165.097,-142.346 171.7,-140.023"/>
</g>
<!-- Node22&#45;&gt;Node2 -->
<g id="edge28" class="edge"><title>Node22&#45;&gt;Node2</title>
<path fill="none" stroke="midnightblue" d="M115.913,-120.111C82.8142,-116.755 40.2635,-106.283 18,-76 8.00856,-62.4097 12.5852,-42.7966 18.2207,-28.6737"/>
<polygon fill="midnightblue" stroke="midnightblue" points="21.4249,-30.082 22.3182,-19.5248 15.0364,-27.2207 21.4249,-30.082"/>
</g>
<!-- Node22&#45;&gt;Node11 -->
<g id="edge30" class="edge"><title>Node22&#45;&gt;Node11</title>
<path fill="none" stroke="midnightblue" d="M115.947,-115.729C67.3672,-108.218 1.14913,-91.2355 27,-56 52.2143,-21.6322 103.694,-12.8204 137.512,-10.9317"/>
<polygon fill="midnightblue" stroke="midnightblue" points="137.957,-14.4174 147.816,-10.5382 137.69,-7.42247 137.957,-14.4174"/>
</g>
<!-- Node22&#45;&gt;Node12 -->
<g id="edge31" class="edge"><title>Node22&#45;&gt;Node12</title>
<path fill="none" stroke="midnightblue" d="M161.995,-112.059C162.49,-98.0919 165.542,-71.1339 181,-56 217.713,-20.056 279.956,-12.0578 317.199,-10.7057"/>
<polygon fill="midnightblue" stroke="midnightblue" points="317.529,-14.1994 327.449,-10.4791 317.374,-7.20108 317.529,-14.1994"/>
</g>
<!-- Node22&#45;&gt;Node13 -->
<g id="edge29" class="edge"><title>Node22&#45;&gt;Node13</title>
<path fill="none" stroke="midnightblue" d="M184.183,-112.444C208.796,-102.95 248.515,-87.6297 274.937,-77.4385"/>
<polygon fill="midnightblue" stroke="midnightblue" points="276.283,-80.6709 284.353,-73.8067 273.764,-74.1399 276.283,-80.6709"/>
</g>
<!-- Node23 -->
<g id="node23" class="node"><title>Node23</title>
<polygon fill="none" stroke="#bfbfbf" points="190,-56.5 190,-75.5 228,-75.5 228,-56.5 190,-56.5"/>
<text text-anchor="middle" x="209" y="-63.5" font-family="FreeSans" font-size="10.00">tuple</text>
</g>
<!-- Node22&#45;&gt;Node23 -->
<g id="edge32" class="edge"><title>Node22&#45;&gt;Node23</title>
<path fill="none" stroke="midnightblue" d="M169.761,-112.083C176.537,-104.298 186.543,-92.8015 194.755,-83.3665"/>
<polygon fill="midnightblue" stroke="midnightblue" points="197.458,-85.592 201.383,-75.7511 192.178,-80.9963 197.458,-85.592"/>
</g>
<!-- Node24 -->
<g id="node24" class="node"><title>Node24</title>
<g id="a_node24"><a xlink:href="../../d0/dc7/ParamRunRange_8h.html" target="_top" xlink:title="ParamRunRange.h">
<polygon fill="none" stroke="black" points="36,-56.5 36,-75.5 134,-75.5 134,-56.5 36,-56.5"/>
<text text-anchor="middle" x="85" y="-63.5" font-family="FreeSans" font-size="10.00">ParamRunRange.h</text>
</a>
</g>
</g>
<!-- Node22&#45;&gt;Node24 -->
<g id="edge33" class="edge"><title>Node22&#45;&gt;Node24</title>
<path fill="none" stroke="midnightblue" d="M149.629,-112.324C137.842,-104.058 119.868,-91.4527 105.864,-81.6322"/>
<polygon fill="midnightblue" stroke="midnightblue" points="107.538,-78.5307 97.3407,-75.6545 103.518,-84.2619 107.538,-78.5307"/>
</g>
<!-- Node24&#45;&gt;Node2 -->
<g id="edge34" class="edge"><title>Node24&#45;&gt;Node2</title>
<path fill="none" stroke="midnightblue" d="M75.6813,-56.324C67.1074,-48.3414 54.1878,-36.3128 43.8124,-26.6529"/>
<polygon fill="midnightblue" stroke="midnightblue" points="46.1922,-24.0865 36.4883,-19.8339 41.4223,-29.2098 46.1922,-24.0865"/>
</g>
<!-- Node24&#45;&gt;Node11 -->
<g id="edge35" class="edge"><title>Node24&#45;&gt;Node11</title>
<path fill="none" stroke="midnightblue" d="M98.6567,-56.324C111.916,-47.9002 132.268,-34.9709 147.846,-25.0741"/>
<polygon fill="midnightblue" stroke="midnightblue" points="149.813,-27.9711 156.377,-19.6545 146.06,-22.0626 149.813,-27.9711"/>
</g>
<!-- Node24&#45;&gt;Node12 -->
<g id="edge36" class="edge"><title>Node24&#45;&gt;Node12</title>
<path fill="none" stroke="midnightblue" d="M126.673,-56.4435C179.728,-45.5501 270.151,-26.9841 317.32,-17.2994"/>
<polygon fill="midnightblue" stroke="midnightblue" points="318.153,-20.7014 327.244,-15.2616 316.745,-13.8445 318.153,-20.7014"/>
</g>
</g>
</svg>
