<?xml version="1.0" encoding="UTF-8" standalone="no"?>
<!DOCTYPE svg PUBLIC "-//W3C//DTD SVG 1.1//EN"
 "http://www.w3.org/Graphics/SVG/1.1/DTD/svg11.dtd">
<!-- Generated by graphviz version 2.40.1 (20161225.0304)
 -->
<!-- Title: SimpleReadMySql::process_event Pages: 1 -->
<svg width="495pt" height="458pt"
 viewBox="0.00 0.00 495.00 458.00" xmlns="http://www.w3.org/2000/svg" xmlns:xlink="http://www.w3.org/1999/xlink">
<g id="graph0" class="graph" transform="scale(1 1) rotate(0) translate(4 454)">
<title>SimpleReadMySql::process_event</title>
<!-- Node90 -->
<g id="node1" class="node">
<title>Node90</title>
<polygon fill="#bfbfbf" stroke="#000000" points="0,-207 0,-237 134,-237 134,-207 0,-207"/>
<text text-anchor="start" x="8" y="-225" font-family="FreeSans" font-size="10.00" fill="#000000">SimpleReadMySql::process</text>
<text text-anchor="middle" x="67" y="-214" font-family="FreeSans" font-size="10.00" fill="#000000">_event</text>
</g>
<!-- Node91 -->
<g id="node2" class="node">
<title>Node91</title>
<g id="a_node2"><a xlink:href="../../d0/d68/classSimpleReadMySql.html#a44db8f81a3a5a64362283ef74cb2b227" target="_top" xlink:title="SimpleReadMySql::getFloat">
<polygon fill="none" stroke="#000000" points="177,-430.5 177,-449.5 313,-449.5 313,-430.5 177,-430.5"/>
<text text-anchor="middle" x="245" y="-437.5" font-family="FreeSans" font-size="10.00" fill="#000000">SimpleReadMySql::getFloat</text>
</a>
</g>
</g>
<!-- Node90&#45;&gt;Node91 -->
<g id="edge1" class="edge">
<title>Node90&#45;&gt;Node91</title>
<path fill="none" stroke="#191970" d="M70.3271,-237.1915C79.3364,-274.5961 107.8276,-371.6783 170,-421 172.269,-422.8 174.6879,-424.4316 177.2153,-425.9104"/>
<polygon fill="#191970" stroke="#191970" points="175.6551,-429.0434 186.1663,-430.372 178.7779,-422.7785 175.6551,-429.0434"/>
</g>
<!-- Node92 -->
<g id="node3" class="node">
<title>Node92</title>
<g id="a_node3"><a xlink:href="../../d0/d68/classSimpleReadMySql.html#a3e12b15174d064199a227eeb4ebc1266" target="_top" xlink:title="SimpleReadMySql::getInt">
<polygon fill="none" stroke="#000000" points="182.5,-392.5 182.5,-411.5 307.5,-411.5 307.5,-392.5 182.5,-392.5"/>
<text text-anchor="middle" x="245" y="-399.5" font-family="FreeSans" font-size="10.00" fill="#000000">SimpleReadMySql::getInt</text>
</a>
</g>
</g>
<!-- Node90&#45;&gt;Node92 -->
<g id="edge2" class="edge">
<title>Node90&#45;&gt;Node92</title>
<path fill="none" stroke="#191970" d="M72.26,-237.1293C84.2401,-269.273 116.7151,-344.565 170,-383 172.669,-384.9252 175.5141,-386.6559 178.4771,-388.2117"/>
<polygon fill="#191970" stroke="#191970" points="177.1086,-391.4342 187.6617,-392.3742 179.9981,-385.0584 177.1086,-391.4342"/>
</g>
<!-- Node93 -->
<g id="node4" class="node">
<title>Node93</title>
<g id="a_node4"><a xlink:href="../../d0/d68/classSimpleReadMySql.html#a7d5aeec56556a7be866fc2e246f5117b" target="_top" xlink:title="SimpleReadMySql::GetNodes">
<polygon fill="none" stroke="#000000" points="173.5,-354.5 173.5,-373.5 316.5,-373.5 316.5,-354.5 173.5,-354.5"/>
<text text-anchor="middle" x="245" y="-361.5" font-family="FreeSans" font-size="10.00" fill="#000000">SimpleReadMySql::GetNodes</text>
</a>
</g>
</g>
<!-- Node90&#45;&gt;Node93 -->
<g id="edge3" class="edge">
<title>Node90&#45;&gt;Node93</title>
<path fill="none" stroke="#191970" d="M75.3127,-237.1111C90.5263,-263.3004 125.4242,-316.998 170,-345 173.3589,-347.11 176.9409,-348.9861 180.6499,-350.6541"/>
<polygon fill="#191970" stroke="#191970" points="179.4897,-353.959 190.0759,-354.3864 182.0668,-347.4507 179.4897,-353.959"/>
</g>
<!-- Node94 -->
<g id="node5" class="node">
<title>Node94</title>
<g id="a_node5"><a xlink:href="../../de/d79/classSQHit.html#a2128d5fb43343c39102ab437768a32ec" target="_top" xlink:title="SQHit::identify">
<polygon fill="none" stroke="#000000" points="206,-316.5 206,-335.5 284,-335.5 284,-316.5 206,-316.5"/>
<text text-anchor="middle" x="245" y="-323.5" font-family="FreeSans" font-size="10.00" fill="#000000">SQHit::identify</text>
</a>
</g>
</g>
<!-- Node90&#45;&gt;Node94 -->
<g id="edge4" class="edge">
<title>Node90&#45;&gt;Node94</title>
<path fill="none" stroke="#191970" d="M81.178,-237.2938C99.7621,-256.4258 134.222,-288.8697 170,-307 178.0089,-311.0585 186.9488,-314.2929 195.7874,-316.857"/>
<polygon fill="#191970" stroke="#191970" points="195.1055,-320.297 205.6684,-319.4752 196.8985,-313.5305 195.1055,-320.297"/>
</g>
<!-- Node95 -->
<g id="node6" class="node">
<title>Node95</title>
<g id="a_node6"><a xlink:href="../../d0/dac/classSQHitMap.html#a2c7dab0e24b5e6df33552abbf5146b63" target="_top" xlink:title="SQHitMap::insert">
<polygon fill="none" stroke="#000000" points="200.5,-278.5 200.5,-297.5 289.5,-297.5 289.5,-278.5 200.5,-278.5"/>
<text text-anchor="middle" x="245" y="-285.5" font-family="FreeSans" font-size="10.00" fill="#000000">SQHitMap::insert</text>
</a>
</g>
</g>
<!-- Node90&#45;&gt;Node95 -->
<g id="edge5" class="edge">
<title>Node90&#45;&gt;Node95</title>
<path fill="none" stroke="#191970" d="M96.1668,-237.017C116.4794,-247.048 144.4108,-260.0028 170,-269 177.0486,-271.4783 184.5751,-273.7767 192.039,-275.8563"/>
<polygon fill="#191970" stroke="#191970" points="191.2045,-279.2561 201.7695,-278.4608 193.0146,-272.4941 191.2045,-279.2561"/>
</g>
<!-- Node96 -->
<g id="node7" class="node">
<title>Node96</title>
<g id="a_node7"><a xlink:href="../../d0/d68/classSimpleReadMySql.html#a866d18a61731bd885c745e5aaff2b4e6" target="_top" xlink:title="SimpleReadMySql::makeQuery\lInput">
<polygon fill="none" stroke="#000000" points="170,-229 170,-259 320,-259 320,-229 170,-229"/>
<text text-anchor="start" x="178" y="-247" font-family="FreeSans" font-size="10.00" fill="#000000">SimpleReadMySql::makeQuery</text>
<text text-anchor="middle" x="245" y="-236" font-family="FreeSans" font-size="10.00" fill="#000000">Input</text>
</a>
</g>
</g>
<!-- Node90&#45;&gt;Node96 -->
<g id="edge6" class="edge">
<title>Node90&#45;&gt;Node96</title>
<path fill="none" stroke="#191970" d="M134.0405,-230.2859C142.4696,-231.3277 151.179,-232.4042 159.8399,-233.4746"/>
<polygon fill="#191970" stroke="#191970" points="159.6111,-236.9729 169.9649,-234.726 160.4698,-230.0257 159.6111,-236.9729"/>
</g>
<!-- Node97 -->
<g id="node8" class="node">
<title>Node97</title>
<g id="a_node8"><a xlink:href="../../d0/d68/classSimpleReadMySql.html#ad8c384caab5203a7bfedfefd1a356b0b" target="_top" xlink:title="SimpleReadMySql::nextEntry">
<polygon fill="none" stroke="#000000" points="175,-190.5 175,-209.5 315,-209.5 315,-190.5 175,-190.5"/>
<text text-anchor="middle" x="245" y="-197.5" font-family="FreeSans" font-size="10.00" fill="#000000">SimpleReadMySql::nextEntry</text>
</a>
</g>
</g>
<!-- Node90&#45;&gt;Node97 -->
<g id="edge7" class="edge">
<title>Node90&#45;&gt;Node97</title>
<path fill="none" stroke="#191970" d="M134.0405,-213.7141C144.0187,-212.4808 154.3897,-211.199 164.6079,-209.9361"/>
<polygon fill="#191970" stroke="#191970" points="165.2599,-213.3822 174.755,-208.682 164.4012,-206.4351 165.2599,-213.3822"/>
</g>
<!-- Node98 -->
<g id="node9" class="node">
<title>Node98</title>
<g id="a_node9"><a xlink:href="../../de/d79/classSQHit.html#a9497f045fe7b60f98f6d62c75aa58c36" target="_top" xlink:title="SQHit::set_detector_id">
<polygon fill="none" stroke="#000000" points="188.5,-152.5 188.5,-171.5 301.5,-171.5 301.5,-152.5 188.5,-152.5"/>
<text text-anchor="middle" x="245" y="-159.5" font-family="FreeSans" font-size="10.00" fill="#000000">SQHit::set_detector_id</text>
</a>
</g>
</g>
<!-- Node90&#45;&gt;Node98 -->
<g id="edge8" class="edge">
<title>Node90&#45;&gt;Node98</title>
<path fill="none" stroke="#191970" d="M101.8603,-206.8047C121.619,-198.5271 146.9311,-188.478 170,-181 177.4569,-178.5828 185.4116,-176.2802 193.2497,-174.1657"/>
<polygon fill="#191970" stroke="#191970" points="194.2825,-177.5133 203.0692,-171.5934 192.5086,-170.7418 194.2825,-177.5133"/>
</g>
<!-- Node99 -->
<g id="node10" class="node">
<title>Node99</title>
<g id="a_node10"><a xlink:href="../../de/d79/classSQHit.html#ac4a04a2324c69db1a38fa0b19040b361" target="_top" xlink:title="SQHit::set_drift_distance">
<polygon fill="none" stroke="#000000" points="183.5,-114.5 183.5,-133.5 306.5,-133.5 306.5,-114.5 183.5,-114.5"/>
<text text-anchor="middle" x="245" y="-121.5" font-family="FreeSans" font-size="10.00" fill="#000000">SQHit::set_drift_distance</text>
</a>
</g>
</g>
<!-- Node90&#45;&gt;Node99 -->
<g id="edge9" class="edge">
<title>Node90&#45;&gt;Node99</title>
<path fill="none" stroke="#191970" d="M82.3894,-206.8995C101.4148,-189.0613 135.5228,-159.7055 170,-143 174.9107,-140.6206 180.1516,-138.5179 185.4941,-136.664"/>
<polygon fill="#191970" stroke="#191970" points="186.7004,-139.9532 195.1712,-133.5896 184.5809,-133.2818 186.7004,-139.9532"/>
</g>
<!-- Node100 -->
<g id="node11" class="node">
<title>Node100</title>
<g id="a_node11"><a xlink:href="../../de/d79/classSQHit.html#a3ba426998ce6bd9061e3d821dbf8d80e" target="_top" xlink:title="SQHit::set_element_id">
<polygon fill="none" stroke="#000000" points="188.5,-76.5 188.5,-95.5 301.5,-95.5 301.5,-76.5 188.5,-76.5"/>
<text text-anchor="middle" x="245" y="-83.5" font-family="FreeSans" font-size="10.00" fill="#000000">SQHit::set_element_id</text>
</a>
</g>
</g>
<!-- Node90&#45;&gt;Node100 -->
<g id="edge10" class="edge">
<title>Node90&#45;&gt;Node100</title>
<path fill="none" stroke="#191970" d="M76.0032,-206.8337C91.763,-181.6541 126.8181,-131.3879 170,-105 173.4474,-102.8933 177.1201,-101.0194 180.9175,-99.3526"/>
<polygon fill="#191970" stroke="#191970" points="182.4942,-102.4955 190.5564,-95.6215 179.9672,-95.9674 182.4942,-102.4955"/>
</g>
<!-- Node101 -->
<g id="node12" class="node">
<title>Node101</title>
<g id="a_node12"><a xlink:href="../../de/d79/classSQHit.html#a51f264b3d3a56f8d897e7e00f05ad6d6" target="_top" xlink:title="SQHit::set_hit_id">
<polygon fill="none" stroke="#000000" points="200.5,-38.5 200.5,-57.5 289.5,-57.5 289.5,-38.5 200.5,-38.5"/>
<text text-anchor="middle" x="245" y="-45.5" font-family="FreeSans" font-size="10.00" fill="#000000">SQHit::set_hit_id</text>
</a>
</g>
</g>
<!-- Node90&#45;&gt;Node101 -->
<g id="edge11" class="edge">
<title>Node90&#45;&gt;Node101</title>
<path fill="none" stroke="#191970" d="M72.614,-206.9577C85.0631,-175.7434 118.0568,-103.7854 170,-67 176.1043,-62.677 183.1018,-59.3357 190.3151,-56.7536"/>
<polygon fill="#191970" stroke="#191970" points="191.7065,-59.9866 200.2214,-53.6821 189.6335,-53.3006 191.7065,-59.9866"/>
</g>
<!-- Node102 -->
<g id="node13" class="node">
<title>Node102</title>
<g id="a_node13"><a xlink:href="../../d5/dec/classFun4AllBase.html#ad0a0fa887b36a995eca4815d2b7f5afb" target="_top" xlink:title="Gets the verbosity of this module. ">
<polygon fill="none" stroke="#000000" points="187.5,-.5 187.5,-19.5 302.5,-19.5 302.5,-.5 187.5,-.5"/>
<text text-anchor="middle" x="245" y="-7.5" font-family="FreeSans" font-size="10.00" fill="#000000">Fun4AllBase::Verbosity</text>
</a>
</g>
</g>
<!-- Node90&#45;&gt;Node102 -->
<g id="edge12" class="edge">
<title>Node90&#45;&gt;Node102</title>
<path fill="none" stroke="#191970" d="M70.5412,-206.9905C79.9556,-170.5016 109.1484,-76.652 170,-29 172.591,-26.971 175.373,-25.1564 178.2857,-23.5337"/>
<polygon fill="#191970" stroke="#191970" points="179.8291,-26.6754 187.3556,-19.2187 176.8218,-20.3542 179.8291,-26.6754"/>
</g>
<!-- Node103 -->
<g id="node14" class="node">
<title>Node103</title>
<g id="a_node14"><a xlink:href="../../d5/dec/classFun4AllBase.html#abb5c44adbf26aa0a45b2d44c2692fdb7" target="_top" xlink:title="Fun4AllBase::Fun4AllBase">
<polygon fill="none" stroke="#000000" points="356,-.5 356,-19.5 487,-19.5 487,-.5 356,-.5"/>
<text text-anchor="middle" x="421.5" y="-7.5" font-family="FreeSans" font-size="10.00" fill="#000000">Fun4AllBase::Fun4AllBase</text>
</a>
</g>
</g>
<!-- Node102&#45;&gt;Node103 -->
<g id="edge13" class="edge">
<title>Node102&#45;&gt;Node103</title>
<path fill="none" stroke="#191970" d="M302.7927,-10C316.4649,-10 331.2488,-10 345.5893,-10"/>
<polygon fill="#191970" stroke="#191970" points="345.9308,-13.5001 355.9308,-10 345.9307,-6.5001 345.9308,-13.5001"/>
</g>
</g>
</svg>
