<?xml version="1.0" encoding="UTF-8" standalone="no"?>
<!DOCTYPE svg PUBLIC "-//W3C//DTD SVG 1.1//EN"
 "http://www.w3.org/Graphics/SVG/1.1/DTD/svg11.dtd">
<!-- Generated by graphviz version 2.36.0 (20140111.2315)
 -->
<!-- Title: PHG4ParameterContainerInterface::ExistDetid Pages: 1 -->
<svg width="330pt" height="87pt"
 viewBox="0.00 0.00 330.00 87.00" xmlns="http://www.w3.org/2000/svg" xmlns:xlink="http://www.w3.org/1999/xlink">
<g id="graph0" class="graph" transform="scale(1 1) rotate(0) translate(4 83)">
<title>PHG4ParameterContainerInterface::ExistDetid</title>
<!-- Node1 -->
<g id="node1" class="node"><title>Node1</title>
<polygon fill="#bfbfbf" stroke="black" points="0,-24 0,-54 168,-54 168,-24 0,-24"/>
<text text-anchor="start" x="8" y="-42" font-family="FreeSans" font-size="10.00">PHG4ParameterContainerInterface</text>
<text text-anchor="middle" x="84" y="-31" font-family="FreeSans" font-size="10.00">::ExistDetid</text>
</g>
<!-- Node2 -->
<g id="node2" class="node"><title>Node2</title>
<g id="a_node2"><a xlink:href="../../df/d5e/classPHG4BlockCellReco.html#aa62bbe31407e5e4c80f541dbd5c18aa4" target="_top" xlink:title="module initialization ">
<polygon fill="none" stroke="black" points="207,-49 207,-79 319,-79 319,-49 207,-49"/>
<text text-anchor="start" x="215" y="-67" font-family="FreeSans" font-size="10.00">PHG4BlockCellReco::</text>
<text text-anchor="middle" x="263" y="-56" font-family="FreeSans" font-size="10.00">InitRun</text>
</a>
</g>
</g>
<!-- Node1&#45;&gt;Node2 -->
<g id="edge1" class="edge"><title>Node1&#45;&gt;Node2</title>
<path fill="none" stroke="midnightblue" d="M177.973,-52.1317C187.881,-53.5312 197.714,-54.92 206.973,-56.2279"/>
<polygon fill="midnightblue" stroke="midnightblue" points="178.449,-48.6644 168.058,-50.7314 177.47,-55.5956 178.449,-48.6644"/>
</g>
<!-- Node3 -->
<g id="node3" class="node"><title>Node3</title>
<g id="a_node3"><a xlink:href="../../d5/dd0/classPHG4CylinderCellReco.html#ada869396a39d11561fcbb85572446310" target="_top" xlink:title="module initialization ">
<polygon fill="none" stroke="black" points="204.5,-0 204.5,-30 321.5,-30 321.5,-0 204.5,-0"/>
<text text-anchor="start" x="212.5" y="-18" font-family="FreeSans" font-size="10.00">PHG4CylinderCellReco</text>
<text text-anchor="middle" x="263" y="-7" font-family="FreeSans" font-size="10.00">::InitRun</text>
</a>
</g>
</g>
<!-- Node1&#45;&gt;Node3 -->
<g id="edge2" class="edge"><title>Node1&#45;&gt;Node3</title>
<path fill="none" stroke="midnightblue" d="M178.164,-26.3675C187.109,-25.1547 195.99,-23.9505 204.44,-22.8047"/>
<polygon fill="midnightblue" stroke="midnightblue" points="177.497,-22.9259 168.058,-27.7379 178.438,-29.8624 177.497,-22.9259"/>
</g>
</g>
</svg>
