<?xml version="1.0" encoding="UTF-8" standalone="no"?>
<!DOCTYPE svg PUBLIC "-//W3C//DTD SVG 1.1//EN"
 "http://www.w3.org/Graphics/SVG/1.1/DTD/svg11.dtd">
<!-- Generated by graphviz version 2.30.1 (20200930.0103)
 -->
<!-- Title: PropSegment::print Pages: 1 -->
<svg width="288pt" height="104pt"
 viewBox="0.00 0.00 288.00 104.00" xmlns="http://www.w3.org/2000/svg" xmlns:xlink="http://www.w3.org/1999/xlink">
<g id="graph0" class="graph" transform="scale(1 1) rotate(0) translate(4 100)">
<title>PropSegment::print</title>
<!-- Node1 -->
<g id="node1" class="node"><title>Node1</title>
<polygon fill="#bfbfbf" stroke="black" points="0.5,-38.5 0.5,-57.5 99.5,-57.5 99.5,-38.5 0.5,-38.5"/>
<text text-anchor="middle" x="50" y="-45.5" font-family="FreeSans" font-size="10.00">PropSegment::print</text>
</g>
<!-- Node2 -->
<g id="node2" class="node"><title>Node2</title>
<g id="a_node2"><a xlink:href="../../d0/d1e/classPropSegment.html#a33d7789b109a4815fc5c76d391003df9" target="_top" xlink:title="PropSegment::getExpPosition">
<polygon fill="none" stroke="black" points="136,-76.5 136,-95.5 280,-95.5 280,-76.5 136,-76.5"/>
<text text-anchor="middle" x="208" y="-83.5" font-family="FreeSans" font-size="10.00">PropSegment::getExpPosition</text>
</a>
</g>
</g>
<!-- Node1&#45;&gt;Node2 -->
<g id="edge1" class="edge"><title>Node1&#45;&gt;Node2</title>
<path fill="none" stroke="midnightblue" d="M90.3654,-57.589C110.951,-62.6035 136.34,-68.7881 158.169,-74.1053"/>
<polygon fill="midnightblue" stroke="midnightblue" points="157.373,-77.5137 167.918,-76.4799 159.03,-70.7126 157.373,-77.5137"/>
</g>
<!-- Node3 -->
<g id="node3" class="node"><title>Node3</title>
<g id="a_node3"><a xlink:href="../../d0/d1e/classPropSegment.html#a9642b31a718683d585cc9f92e0e372c5" target="_top" xlink:title="PropSegment::getNHits">
<polygon fill="none" stroke="black" points="149.5,-38.5 149.5,-57.5 266.5,-57.5 266.5,-38.5 149.5,-38.5"/>
<text text-anchor="middle" x="208" y="-45.5" font-family="FreeSans" font-size="10.00">PropSegment::getNHits</text>
</a>
</g>
</g>
<!-- Node1&#45;&gt;Node3 -->
<g id="edge2" class="edge"><title>Node1&#45;&gt;Node3</title>
<path fill="none" stroke="midnightblue" d="M99.5042,-48C112.12,-48 125.942,-48 139.35,-48"/>
<polygon fill="midnightblue" stroke="midnightblue" points="139.495,-51.5001 149.495,-48 139.495,-44.5001 139.495,-51.5001"/>
</g>
<!-- Node4 -->
<g id="node4" class="node"><title>Node4</title>
<g id="a_node4"><a xlink:href="../../d0/d1e/classPropSegment.html#ac9d12f6f1989c4165c36e82622932a12" target="_top" xlink:title="PropSegment::getNPlanes">
<polygon fill="none" stroke="black" points="143,-0.5 143,-19.5 273,-19.5 273,-0.5 143,-0.5"/>
<text text-anchor="middle" x="208" y="-7.5" font-family="FreeSans" font-size="10.00">PropSegment::getNPlanes</text>
</a>
</g>
</g>
<!-- Node1&#45;&gt;Node4 -->
<g id="edge3" class="edge"><title>Node1&#45;&gt;Node4</title>
<path fill="none" stroke="midnightblue" d="M90.3654,-38.411C110.951,-33.3965 136.34,-27.2119 158.169,-21.8947"/>
<polygon fill="midnightblue" stroke="midnightblue" points="159.03,-25.2874 167.918,-19.5201 157.373,-18.4863 159.03,-25.2874"/>
</g>
</g>
</svg>
