<?xml version="1.0" encoding="UTF-8" standalone="no"?>
<!DOCTYPE svg PUBLIC "-//W3C//DTD SVG 1.1//EN"
 "http://www.w3.org/Graphics/SVG/1.1/DTD/svg11.dtd">
<!-- Generated by graphviz version 2.30.1 (20180413.0232)
 -->
<!-- Title: /dev/shm/kenichi/update&#45;github&#45;e1039&#45;doc/e1039&#45;core/framework/phool/PHTimeStamp.h Pages: 1 -->
<svg width="1616pt" height="410pt"
 viewBox="0.00 0.00 1616.00 410.00" xmlns="http://www.w3.org/2000/svg" xmlns:xlink="http://www.w3.org/1999/xlink">
<g id="graph0" class="graph" transform="scale(1 1) rotate(0) translate(4 406)">
<title>/dev/shm/kenichi/update&#45;github&#45;e1039&#45;doc/e1039&#45;core/framework/phool/PHTimeStamp.h</title>
<!-- Node1 -->
<g id="node1" class="node"><title>Node1</title>
<polygon fill="#bfbfbf" stroke="black" points="851.5,-360.5 851.5,-401.5 1038.5,-401.5 1038.5,-360.5 851.5,-360.5"/>
<text text-anchor="start" x="859.5" y="-389.5" font-family="FreeSans" font-size="10.00">/dev/shm/kenichi/update</text>
<text text-anchor="start" x="859.5" y="-378.5" font-family="FreeSans" font-size="10.00">&#45;github&#45;e1039&#45;doc/e1039</text>
<text text-anchor="middle" x="945" y="-367.5" font-family="FreeSans" font-size="10.00">&#45;core/framework/phool/PHTimeStamp.h</text>
</g>
<!-- Node2 -->
<g id="node2" class="node"><title>Node2</title>
<g id="a_node2"><a xlink:href="../../d7/d33/PdbCalBank_8h.html" target="_top" xlink:title="/dev/shm/kenichi/update\l&#45;github&#45;e1039&#45;doc/e1039\l&#45;core/database/pdbcal/base\l/PdbCalBank.h">
<polygon fill="none" stroke="black" points="200.5,-271 200.5,-323 335.5,-323 335.5,-271 200.5,-271"/>
<text text-anchor="start" x="208.5" y="-311" font-family="FreeSans" font-size="10.00">/dev/shm/kenichi/update</text>
<text text-anchor="start" x="208.5" y="-300" font-family="FreeSans" font-size="10.00">&#45;github&#45;e1039&#45;doc/e1039</text>
<text text-anchor="start" x="208.5" y="-289" font-family="FreeSans" font-size="10.00">&#45;core/database/pdbcal/base</text>
<text text-anchor="middle" x="268" y="-278" font-family="FreeSans" font-size="10.00">/PdbCalBank.h</text>
</a>
</g>
</g>
<!-- Node1&#45;&gt;Node2 -->
<g id="edge1" class="edge"><title>Node1&#45;&gt;Node2</title>
<path fill="none" stroke="midnightblue" d="M841.437,-368.164C744.986,-357.059 597.212,-339.834 469,-324 424.65,-318.523 374.836,-312.081 335.893,-306.98"/>
<polygon fill="midnightblue" stroke="midnightblue" points="841.146,-371.654 851.481,-369.32 841.946,-364.7 841.146,-371.654"/>
</g>
<!-- Node8 -->
<g id="node8" class="node"><title>Node8</title>
<g id="a_node8"><a xlink:href="../../d3/dd9/PdbBankManager_8h.html" target="_top" xlink:title="/dev/shm/kenichi/update\l&#45;github&#45;e1039&#45;doc/e1039\l&#45;core/database/pdbcal/base\l/PdbBankManager.h">
<polygon fill="none" stroke="black" points="478.5,-271 478.5,-323 613.5,-323 613.5,-271 478.5,-271"/>
<text text-anchor="start" x="486.5" y="-311" font-family="FreeSans" font-size="10.00">/dev/shm/kenichi/update</text>
<text text-anchor="start" x="486.5" y="-300" font-family="FreeSans" font-size="10.00">&#45;github&#45;e1039&#45;doc/e1039</text>
<text text-anchor="start" x="486.5" y="-289" font-family="FreeSans" font-size="10.00">&#45;core/database/pdbcal/base</text>
<text text-anchor="middle" x="546" y="-278" font-family="FreeSans" font-size="10.00">/PdbBankManager.h</text>
</a>
</g>
</g>
<!-- Node1&#45;&gt;Node8 -->
<g id="edge8" class="edge"><title>Node1&#45;&gt;Node8</title>
<path fill="none" stroke="midnightblue" d="M841.172,-366.261C777.403,-356.772 694.353,-342.525 622,-324 619.298,-323.308 616.555,-322.566 613.792,-321.785"/>
<polygon fill="midnightblue" stroke="midnightblue" points="840.833,-369.748 851.236,-367.742 841.852,-362.823 840.833,-369.748"/>
</g>
<!-- Node12 -->
<g id="node12" class="node"><title>Node12</title>
<g id="a_node12"><a xlink:href="../../da/d00/PdbCalBankIterator_8h.html" target="_top" xlink:title="/dev/shm/kenichi/update\l&#45;github&#45;e1039&#45;doc/e1039\l&#45;core/database/pdbcal/base\l/PdbCalBankIterator.h">
<polygon fill="none" stroke="black" points="631.5,-271 631.5,-323 766.5,-323 766.5,-271 631.5,-271"/>
<text text-anchor="start" x="639.5" y="-311" font-family="FreeSans" font-size="10.00">/dev/shm/kenichi/update</text>
<text text-anchor="start" x="639.5" y="-300" font-family="FreeSans" font-size="10.00">&#45;github&#45;e1039&#45;doc/e1039</text>
<text text-anchor="start" x="639.5" y="-289" font-family="FreeSans" font-size="10.00">&#45;core/database/pdbcal/base</text>
<text text-anchor="middle" x="699" y="-278" font-family="FreeSans" font-size="10.00">/PdbCalBankIterator.h</text>
</a>
</g>
</g>
<!-- Node1&#45;&gt;Node12 -->
<g id="edge12" class="edge"><title>Node1&#45;&gt;Node12</title>
<path fill="none" stroke="midnightblue" d="M875.812,-357.172C845.21,-347.05 808.798,-334.971 776,-324 772.922,-322.971 769.776,-321.916 766.599,-320.85"/>
<polygon fill="midnightblue" stroke="midnightblue" points="874.938,-360.569 885.531,-360.386 877.136,-353.923 874.938,-360.569"/>
</g>
<!-- Node14 -->
<g id="node14" class="node"><title>Node14</title>
<g id="a_node14"><a xlink:href="../../dc/d86/PdbParameterMapContainer_8cc.html" target="_top" xlink:title="/dev/shm/kenichi/update\l&#45;github&#45;e1039&#45;doc/e1039\l&#45;core/database/pdbcal/base\l/PdbParameterMapContainer.cc">
<polygon fill="none" stroke="black" points="784.5,-271 784.5,-323 939.5,-323 939.5,-271 784.5,-271"/>
<text text-anchor="start" x="792.5" y="-311" font-family="FreeSans" font-size="10.00">/dev/shm/kenichi/update</text>
<text text-anchor="start" x="792.5" y="-300" font-family="FreeSans" font-size="10.00">&#45;github&#45;e1039&#45;doc/e1039</text>
<text text-anchor="start" x="792.5" y="-289" font-family="FreeSans" font-size="10.00">&#45;core/database/pdbcal/base</text>
<text text-anchor="middle" x="862" y="-278" font-family="FreeSans" font-size="10.00">/PdbParameterMapContainer.cc</text>
</a>
</g>
</g>
<!-- Node1&#45;&gt;Node14 -->
<g id="edge14" class="edge"><title>Node1&#45;&gt;Node14</title>
<path fill="none" stroke="midnightblue" d="M917.752,-353.081C908.038,-343.483 897.138,-332.714 887.569,-323.261"/>
<polygon fill="midnightblue" stroke="midnightblue" points="915.334,-355.612 924.908,-360.15 920.254,-350.632 915.334,-355.612"/>
</g>
<!-- Node15 -->
<g id="node15" class="node"><title>Node15</title>
<g id="a_node15"><a xlink:href="../../dc/d1c/PHParameters_8cc.html" target="_top" xlink:title="/dev/shm/kenichi/update\l&#45;github&#45;e1039&#45;doc/e1039\l&#45;core/database/PHParameter\l/PHParameters.cc">
<polygon fill="none" stroke="black" points="958,-271 958,-323 1100,-323 1100,-271 958,-271"/>
<text text-anchor="start" x="966" y="-311" font-family="FreeSans" font-size="10.00">/dev/shm/kenichi/update</text>
<text text-anchor="start" x="966" y="-300" font-family="FreeSans" font-size="10.00">&#45;github&#45;e1039&#45;doc/e1039</text>
<text text-anchor="start" x="966" y="-289" font-family="FreeSans" font-size="10.00">&#45;core/database/PHParameter</text>
<text text-anchor="middle" x="1029" y="-278" font-family="FreeSans" font-size="10.00">/PHParameters.cc</text>
</a>
</g>
</g>
<!-- Node1&#45;&gt;Node15 -->
<g id="edge15" class="edge"><title>Node1&#45;&gt;Node15</title>
<path fill="none" stroke="midnightblue" d="M972.576,-353.081C982.407,-343.483 993.439,-332.714 1003.12,-323.261"/>
<polygon fill="midnightblue" stroke="midnightblue" points="970.045,-350.66 965.334,-360.15 974.935,-355.669 970.045,-350.66"/>
</g>
<!-- Node16 -->
<g id="node16" class="node"><title>Node16</title>
<g id="a_node16"><a xlink:href="../../d8/d7a/Fun4AllServer_8cc.html" target="_top" xlink:title="/dev/shm/kenichi/update\l&#45;github&#45;e1039&#45;doc/e1039\l&#45;core/framework/fun4all\l/Fun4AllServer.cc">
<polygon fill="none" stroke="black" points="1118.5,-271 1118.5,-323 1241.5,-323 1241.5,-271 1118.5,-271"/>
<text text-anchor="start" x="1126.5" y="-311" font-family="FreeSans" font-size="10.00">/dev/shm/kenichi/update</text>
<text text-anchor="start" x="1126.5" y="-300" font-family="FreeSans" font-size="10.00">&#45;github&#45;e1039&#45;doc/e1039</text>
<text text-anchor="start" x="1126.5" y="-289" font-family="FreeSans" font-size="10.00">&#45;core/framework/fun4all</text>
<text text-anchor="middle" x="1180" y="-278" font-family="FreeSans" font-size="10.00">/Fun4AllServer.cc</text>
</a>
</g>
</g>
<!-- Node1&#45;&gt;Node16 -->
<g id="edge16" class="edge"><title>Node1&#45;&gt;Node16</title>
<path fill="none" stroke="midnightblue" d="M1012.97,-357.163C1042.53,-347.137 1077.53,-335.134 1109,-324 1112.09,-322.905 1115.26,-321.777 1118.46,-320.631"/>
<polygon fill="midnightblue" stroke="midnightblue" points="1011.52,-353.96 1003.17,-360.484 1013.77,-360.59 1011.52,-353.96"/>
</g>
<!-- Node17 -->
<g id="node17" class="node"><title>Node17</title>
<g id="a_node17"><a xlink:href="../../d0/d61/PHTimeStamp_8cc.html" target="_top" xlink:title="/dev/shm/kenichi/update\l&#45;github&#45;e1039&#45;doc/e1039\l&#45;core/framework/phool/PHTimeStamp.cc">
<polygon fill="none" stroke="black" points="1260,-276.5 1260,-317.5 1452,-317.5 1452,-276.5 1260,-276.5"/>
<text text-anchor="start" x="1268" y="-305.5" font-family="FreeSans" font-size="10.00">/dev/shm/kenichi/update</text>
<text text-anchor="start" x="1268" y="-294.5" font-family="FreeSans" font-size="10.00">&#45;github&#45;e1039&#45;doc/e1039</text>
<text text-anchor="middle" x="1356" y="-283.5" font-family="FreeSans" font-size="10.00">&#45;core/framework/phool/PHTimeStamp.cc</text>
</a>
</g>
</g>
<!-- Node1&#45;&gt;Node17 -->
<g id="edge17" class="edge"><title>Node1&#45;&gt;Node17</title>
<path fill="none" stroke="midnightblue" d="M1048.82,-362.503C1107.95,-352.146 1183.32,-338.287 1250,-324 1259.26,-322.015 1268.95,-319.814 1278.55,-317.556"/>
<polygon fill="midnightblue" stroke="midnightblue" points="1047.97,-359.097 1038.72,-364.264 1049.18,-365.993 1047.97,-359.097"/>
</g>
<!-- Node18 -->
<g id="node18" class="node"><title>Node18</title>
<g id="a_node18"><a xlink:href="../../db/dab/PHG4Parameters_8cc.html" target="_top" xlink:title="/dev/shm/kenichi/update\l&#45;github&#45;e1039&#45;doc/e1039\l&#45;core/simulation/g4detectors\l/PHG4Parameters.cc">
<polygon fill="none" stroke="black" points="1470,-271 1470,-323 1608,-323 1608,-271 1470,-271"/>
<text text-anchor="start" x="1478" y="-311" font-family="FreeSans" font-size="10.00">/dev/shm/kenichi/update</text>
<text text-anchor="start" x="1478" y="-300" font-family="FreeSans" font-size="10.00">&#45;github&#45;e1039&#45;doc/e1039</text>
<text text-anchor="start" x="1478" y="-289" font-family="FreeSans" font-size="10.00">&#45;core/simulation/g4detectors</text>
<text text-anchor="middle" x="1539" y="-278" font-family="FreeSans" font-size="10.00">/PHG4Parameters.cc</text>
</a>
</g>
</g>
<!-- Node1&#45;&gt;Node18 -->
<g id="edge18" class="edge"><title>Node1&#45;&gt;Node18</title>
<path fill="none" stroke="midnightblue" d="M1048.99,-375.245C1153.95,-368.923 1320.21,-354.735 1461,-324 1463.93,-323.361 1466.9,-322.651 1469.89,-321.888"/>
<polygon fill="midnightblue" stroke="midnightblue" points="1048.49,-371.768 1038.71,-375.85 1048.9,-378.756 1048.49,-371.768"/>
</g>
<!-- Node3 -->
<g id="node3" class="node"><title>Node3</title>
<g id="a_node3"><a xlink:href="../../df/d1d/PdbBankList_8h.html" target="_top" xlink:title="/dev/shm/kenichi/update\l&#45;github&#45;e1039&#45;doc/e1039\l&#45;core/database/pdbcal/base\l/PdbBankList.h">
<polygon fill="none" stroke="black" points="56.5,-181 56.5,-233 191.5,-233 191.5,-181 56.5,-181"/>
<text text-anchor="start" x="64.5" y="-221" font-family="FreeSans" font-size="10.00">/dev/shm/kenichi/update</text>
<text text-anchor="start" x="64.5" y="-210" font-family="FreeSans" font-size="10.00">&#45;github&#45;e1039&#45;doc/e1039</text>
<text text-anchor="start" x="64.5" y="-199" font-family="FreeSans" font-size="10.00">&#45;core/database/pdbcal/base</text>
<text text-anchor="middle" x="124" y="-188" font-family="FreeSans" font-size="10.00">/PdbBankList.h</text>
</a>
</g>
</g>
<!-- Node2&#45;&gt;Node3 -->
<g id="edge2" class="edge"><title>Node2&#45;&gt;Node3</title>
<path fill="none" stroke="midnightblue" d="M217.934,-265.404C200.735,-254.894 181.69,-243.255 165.271,-233.221"/>
<polygon fill="midnightblue" stroke="midnightblue" points="216.377,-268.555 226.735,-270.783 220.028,-262.582 216.377,-268.555"/>
</g>
<!-- Node5 -->
<g id="node5" class="node"><title>Node5</title>
<g id="a_node5"><a xlink:href="../../df/dd7/PdbBankListIterator_8h.html" target="_top" xlink:title="/dev/shm/kenichi/update\l&#45;github&#45;e1039&#45;doc/e1039\l&#45;core/database/pdbcal/base\l/PdbBankListIterator.h">
<polygon fill="none" stroke="black" points="152.5,-91 152.5,-143 287.5,-143 287.5,-91 152.5,-91"/>
<text text-anchor="start" x="160.5" y="-131" font-family="FreeSans" font-size="10.00">/dev/shm/kenichi/update</text>
<text text-anchor="start" x="160.5" y="-120" font-family="FreeSans" font-size="10.00">&#45;github&#45;e1039&#45;doc/e1039</text>
<text text-anchor="start" x="160.5" y="-109" font-family="FreeSans" font-size="10.00">&#45;core/database/pdbcal/base</text>
<text text-anchor="middle" x="220" y="-98" font-family="FreeSans" font-size="10.00">/PdbBankListIterator.h</text>
</a>
</g>
</g>
<!-- Node2&#45;&gt;Node5 -->
<g id="edge6" class="edge"><title>Node2&#45;&gt;Node5</title>
<path fill="none" stroke="midnightblue" d="M249.937,-261.753C245.842,-252.901 241.862,-243.254 239,-234 229.594,-203.586 224.596,-167.164 222.127,-143.35"/>
<polygon fill="midnightblue" stroke="midnightblue" points="246.891,-263.494 254.379,-270.989 253.199,-260.46 246.891,-263.494"/>
</g>
<!-- Node7 -->
<g id="node7" class="node"><title>Node7</title>
<g id="a_node7"><a xlink:href="../../d4/d27/PdbCalBank_8cc.html" target="_top" xlink:title="/dev/shm/kenichi/update\l&#45;github&#45;e1039&#45;doc/e1039\l&#45;core/database/pdbcal/base\l/PdbCalBank.cc">
<polygon fill="none" stroke="black" points="248.5,-181 248.5,-233 383.5,-233 383.5,-181 248.5,-181"/>
<text text-anchor="start" x="256.5" y="-221" font-family="FreeSans" font-size="10.00">/dev/shm/kenichi/update</text>
<text text-anchor="start" x="256.5" y="-210" font-family="FreeSans" font-size="10.00">&#45;github&#45;e1039&#45;doc/e1039</text>
<text text-anchor="start" x="256.5" y="-199" font-family="FreeSans" font-size="10.00">&#45;core/database/pdbcal/base</text>
<text text-anchor="middle" x="316" y="-188" font-family="FreeSans" font-size="10.00">/PdbCalBank.cc</text>
</a>
</g>
</g>
<!-- Node2&#45;&gt;Node7 -->
<g id="edge7" class="edge"><title>Node2&#45;&gt;Node7</title>
<path fill="none" stroke="midnightblue" d="M286.725,-261.671C291.921,-252.145 297.464,-241.983 302.313,-233.092"/>
<polygon fill="midnightblue" stroke="midnightblue" points="283.6,-260.092 281.884,-270.547 289.745,-263.444 283.6,-260.092"/>
</g>
<!-- Node4 -->
<g id="node4" class="node"><title>Node4</title>
<g id="a_node4"><a xlink:href="../../d6/d79/PdbBankList_8cc.html" target="_top" xlink:title="/dev/shm/kenichi/update\l&#45;github&#45;e1039&#45;doc/e1039\l&#45;core/database/pdbcal/base\l/PdbBankList.cc">
<polygon fill="none" stroke="black" points="-0.5,-91 -0.5,-143 134.5,-143 134.5,-91 -0.5,-91"/>
<text text-anchor="start" x="7.5" y="-131" font-family="FreeSans" font-size="10.00">/dev/shm/kenichi/update</text>
<text text-anchor="start" x="7.5" y="-120" font-family="FreeSans" font-size="10.00">&#45;github&#45;e1039&#45;doc/e1039</text>
<text text-anchor="start" x="7.5" y="-109" font-family="FreeSans" font-size="10.00">&#45;core/database/pdbcal/base</text>
<text text-anchor="middle" x="67" y="-98" font-family="FreeSans" font-size="10.00">/PdbBankList.cc</text>
</a>
</g>
</g>
<!-- Node3&#45;&gt;Node4 -->
<g id="edge3" class="edge"><title>Node3&#45;&gt;Node4</title>
<path fill="none" stroke="midnightblue" d="M101.955,-171.965C95.7296,-162.354 89.0708,-152.074 83.2529,-143.092"/>
<polygon fill="midnightblue" stroke="midnightblue" points="99.1391,-174.056 107.513,-180.547 105.014,-170.251 99.1391,-174.056"/>
</g>
<!-- Node3&#45;&gt;Node5 -->
<g id="edge4" class="edge"><title>Node3&#45;&gt;Node5</title>
<path fill="none" stroke="midnightblue" d="M158.963,-173.951C170.004,-163.829 182.042,-152.795 192.486,-143.221"/>
<polygon fill="midnightblue" stroke="midnightblue" points="156.516,-171.445 151.51,-180.783 161.246,-176.606 156.516,-171.445"/>
</g>
<!-- Node6 -->
<g id="node6" class="node"><title>Node6</title>
<g id="a_node6"><a xlink:href="../../d6/d54/PdbBankListIterator_8cc.html" target="_top" xlink:title="/dev/shm/kenichi/update\l&#45;github&#45;e1039&#45;doc/e1039\l&#45;core/database/pdbcal/base\l/PdbBankListIterator.cc">
<polygon fill="none" stroke="black" points="152.5,-1 152.5,-53 287.5,-53 287.5,-1 152.5,-1"/>
<text text-anchor="start" x="160.5" y="-41" font-family="FreeSans" font-size="10.00">/dev/shm/kenichi/update</text>
<text text-anchor="start" x="160.5" y="-30" font-family="FreeSans" font-size="10.00">&#45;github&#45;e1039&#45;doc/e1039</text>
<text text-anchor="start" x="160.5" y="-19" font-family="FreeSans" font-size="10.00">&#45;core/database/pdbcal/base</text>
<text text-anchor="middle" x="220" y="-8" font-family="FreeSans" font-size="10.00">/PdbBankListIterator.cc</text>
</a>
</g>
</g>
<!-- Node5&#45;&gt;Node6 -->
<g id="edge5" class="edge"><title>Node5&#45;&gt;Node6</title>
<path fill="none" stroke="midnightblue" d="M220,-80.4892C220,-71.3088 220,-61.616 220,-53.0921"/>
<polygon fill="midnightblue" stroke="midnightblue" points="216.5,-80.5467 220,-90.5468 223.5,-80.5468 216.5,-80.5467"/>
</g>
<!-- Node9 -->
<g id="node9" class="node"><title>Node9</title>
<g id="a_node9"><a xlink:href="../../dc/d4f/PdbBankManager_8cc.html" target="_top" xlink:title="/dev/shm/kenichi/update\l&#45;github&#45;e1039&#45;doc/e1039\l&#45;core/database/pdbcal/base\l/PdbBankManager.cc">
<polygon fill="none" stroke="black" points="401.5,-181 401.5,-233 536.5,-233 536.5,-181 401.5,-181"/>
<text text-anchor="start" x="409.5" y="-221" font-family="FreeSans" font-size="10.00">/dev/shm/kenichi/update</text>
<text text-anchor="start" x="409.5" y="-210" font-family="FreeSans" font-size="10.00">&#45;github&#45;e1039&#45;doc/e1039</text>
<text text-anchor="start" x="409.5" y="-199" font-family="FreeSans" font-size="10.00">&#45;core/database/pdbcal/base</text>
<text text-anchor="middle" x="469" y="-188" font-family="FreeSans" font-size="10.00">/PdbBankManager.cc</text>
</a>
</g>
</g>
<!-- Node8&#45;&gt;Node9 -->
<g id="edge9" class="edge"><title>Node8&#45;&gt;Node9</title>
<path fill="none" stroke="midnightblue" d="M516.99,-262.846C508.362,-252.985 499.056,-242.349 490.956,-233.092"/>
<polygon fill="midnightblue" stroke="midnightblue" points="514.509,-265.326 523.728,-270.547 519.777,-260.716 514.509,-265.326"/>
</g>
<!-- Node10 -->
<g id="node10" class="node"><title>Node10</title>
<g id="a_node10"><a xlink:href="../../dd/d6b/PdbBankManagerFactory_8h.html" target="_top" xlink:title="/dev/shm/kenichi/update\l&#45;github&#45;e1039&#45;doc/e1039\l&#45;core/database/pdbcal/base\l/PdbBankManagerFactory.h">
<polygon fill="none" stroke="black" points="554.5,-181 554.5,-233 691.5,-233 691.5,-181 554.5,-181"/>
<text text-anchor="start" x="562.5" y="-221" font-family="FreeSans" font-size="10.00">/dev/shm/kenichi/update</text>
<text text-anchor="start" x="562.5" y="-210" font-family="FreeSans" font-size="10.00">&#45;github&#45;e1039&#45;doc/e1039</text>
<text text-anchor="start" x="562.5" y="-199" font-family="FreeSans" font-size="10.00">&#45;core/database/pdbcal/base</text>
<text text-anchor="middle" x="623" y="-188" font-family="FreeSans" font-size="10.00">/PdbBankManagerFactory.h</text>
</a>
</g>
</g>
<!-- Node8&#45;&gt;Node10 -->
<g id="edge10" class="edge"><title>Node8&#45;&gt;Node10</title>
<path fill="none" stroke="midnightblue" d="M575.01,-262.846C583.638,-252.985 592.944,-242.349 601.044,-233.092"/>
<polygon fill="midnightblue" stroke="midnightblue" points="572.223,-260.716 568.272,-270.547 577.491,-265.326 572.223,-260.716"/>
</g>
<!-- Node11 -->
<g id="node11" class="node"><title>Node11</title>
<g id="a_node11"><a xlink:href="../../d9/dc8/PdbBankManagerFactory_8cc.html" target="_top" xlink:title="/dev/shm/kenichi/update\l&#45;github&#45;e1039&#45;doc/e1039\l&#45;core/database/pdbcal/base\l/PdbBankManagerFactory.cc">
<polygon fill="none" stroke="black" points="552,-91 552,-143 694,-143 694,-91 552,-91"/>
<text text-anchor="start" x="560" y="-131" font-family="FreeSans" font-size="10.00">/dev/shm/kenichi/update</text>
<text text-anchor="start" x="560" y="-120" font-family="FreeSans" font-size="10.00">&#45;github&#45;e1039&#45;doc/e1039</text>
<text text-anchor="start" x="560" y="-109" font-family="FreeSans" font-size="10.00">&#45;core/database/pdbcal/base</text>
<text text-anchor="middle" x="623" y="-98" font-family="FreeSans" font-size="10.00">/PdbBankManagerFactory.cc</text>
</a>
</g>
</g>
<!-- Node10&#45;&gt;Node11 -->
<g id="edge11" class="edge"><title>Node10&#45;&gt;Node11</title>
<path fill="none" stroke="midnightblue" d="M623,-170.489C623,-161.309 623,-151.616 623,-143.092"/>
<polygon fill="midnightblue" stroke="midnightblue" points="619.5,-170.547 623,-180.547 626.5,-170.547 619.5,-170.547"/>
</g>
<!-- Node13 -->
<g id="node13" class="node"><title>Node13</title>
<g id="a_node13"><a xlink:href="../../d2/dea/PdbCalBankIterator_8cc.html" target="_top" xlink:title="/dev/shm/kenichi/update\l&#45;github&#45;e1039&#45;doc/e1039\l&#45;core/database/pdbcal/base\l/PdbCalBankIterator.cc">
<polygon fill="none" stroke="black" points="709.5,-181 709.5,-233 844.5,-233 844.5,-181 709.5,-181"/>
<text text-anchor="start" x="717.5" y="-221" font-family="FreeSans" font-size="10.00">/dev/shm/kenichi/update</text>
<text text-anchor="start" x="717.5" y="-210" font-family="FreeSans" font-size="10.00">&#45;github&#45;e1039&#45;doc/e1039</text>
<text text-anchor="start" x="717.5" y="-199" font-family="FreeSans" font-size="10.00">&#45;core/database/pdbcal/base</text>
<text text-anchor="middle" x="777" y="-188" font-family="FreeSans" font-size="10.00">/PdbCalBankIterator.cc</text>
</a>
</g>
</g>
<!-- Node12&#45;&gt;Node13 -->
<g id="edge13" class="edge"><title>Node12&#45;&gt;Node13</title>
<path fill="none" stroke="midnightblue" d="M728.387,-262.846C737.127,-252.985 746.554,-242.349 754.759,-233.092"/>
<polygon fill="midnightblue" stroke="midnightblue" points="725.575,-260.742 721.561,-270.547 730.813,-265.385 725.575,-260.742"/>
</g>
</g>
</svg>
