<?xml version="1.0" encoding="UTF-8" standalone="no"?>
<!DOCTYPE svg PUBLIC "-//W3C//DTD SVG 1.1//EN"
 "http://www.w3.org/Graphics/SVG/1.1/DTD/svg11.dtd">
<!-- Generated by graphviz version 2.30.1 (20180413.0232)
 -->
<!-- Title: GeomSvc::getPlaneSpacing Pages: 1 -->
<svg width="600pt" height="158pt"
 viewBox="0.00 0.00 600.00 158.00" xmlns="http://www.w3.org/2000/svg" xmlns:xlink="http://www.w3.org/1999/xlink">
<g id="graph0" class="graph" transform="scale(1 1) rotate(0) translate(4 154)">
<title>GeomSvc::getPlaneSpacing</title>
<!-- Node1 -->
<g id="node1" class="node"><title>Node1</title>
<polygon fill="#bfbfbf" stroke="black" points="0.5,-68.5 0.5,-87.5 137.5,-87.5 137.5,-68.5 0.5,-68.5"/>
<text text-anchor="middle" x="69" y="-75.5" font-family="FreeSans" font-size="10.00">GeomSvc::getPlaneSpacing</text>
</g>
<!-- Node2 -->
<g id="node2" class="node"><title>Node2</title>
<g id="a_node2"><a xlink:href="../../d9/d7c/namespaceUtilHodo.html#aa969bb67fd62bb607c12ca68a992c69a" target="_top" xlink:title="UtilHodo::GetElementPos">
<polygon fill="none" stroke="black" points="184.5,-125.5 184.5,-144.5 309.5,-144.5 309.5,-125.5 184.5,-125.5"/>
<text text-anchor="middle" x="247" y="-132.5" font-family="FreeSans" font-size="10.00">UtilHodo::GetElementPos</text>
</a>
</g>
</g>
<!-- Node1&#45;&gt;Node2 -->
<g id="edge1" class="edge"><title>Node1&#45;&gt;Node2</title>
<path fill="none" stroke="midnightblue" d="M103.563,-91.1573C123.806,-98.8683 150.2,-108.529 174,-116 184.731,-119.368 196.484,-122.642 207.325,-125.496"/>
<polygon fill="midnightblue" stroke="midnightblue" points="104.748,-87.8633 94.1583,-87.5466 102.239,-94.3982 104.748,-87.8633"/>
</g>
<!-- Node5 -->
<g id="node5" class="node"><title>Node5</title>
<g id="a_node5"><a xlink:href="../../d9/dc3/classKalmanTrack.html#abfa2e153a77c41a07e0821aaed4ec834" target="_top" xlink:title="KalmanTrack::getExpPosError">
<polygon fill="none" stroke="black" points="174.5,-87.5 174.5,-106.5 319.5,-106.5 319.5,-87.5 174.5,-87.5"/>
<text text-anchor="middle" x="247" y="-94.5" font-family="FreeSans" font-size="10.00">KalmanTrack::getExpPosError</text>
</a>
</g>
</g>
<!-- Node1&#45;&gt;Node5 -->
<g id="edge4" class="edge"><title>Node1&#45;&gt;Node5</title>
<path fill="none" stroke="midnightblue" d="M147.505,-86.367C156.4,-87.3273 165.44,-88.3032 174.255,-89.2548"/>
<polygon fill="midnightblue" stroke="midnightblue" points="147.861,-82.8852 137.543,-85.2916 147.109,-89.8447 147.861,-82.8852"/>
</g>
<!-- Node6 -->
<g id="node6" class="node"><title>Node6</title>
<g id="a_node6"><a xlink:href="../../db/daa/classKalmanDSTrk.html#a2fb58f43f56bcfd897927d4b4464e390" target="_top" xlink:title="KalmanDSTrk::KalmanDSTrk">
<polygon fill="none" stroke="black" points="175.5,-49.5 175.5,-68.5 318.5,-68.5 318.5,-49.5 175.5,-49.5"/>
<text text-anchor="middle" x="247" y="-56.5" font-family="FreeSans" font-size="10.00">KalmanDSTrk::KalmanDSTrk</text>
</a>
</g>
</g>
<!-- Node1&#45;&gt;Node6 -->
<g id="edge5" class="edge"><title>Node1&#45;&gt;Node6</title>
<path fill="none" stroke="midnightblue" d="M147.532,-69.63C156.814,-68.6281 166.253,-67.6091 175.428,-66.6185"/>
<polygon fill="midnightblue" stroke="midnightblue" points="147.109,-66.1553 137.543,-70.7084 147.861,-73.1148 147.109,-66.1553"/>
</g>
<!-- Node7 -->
<g id="node7" class="node"><title>Node7</title>
<g id="a_node7"><a xlink:href="../../d3/d46/classKalmanFastTracking.html#a1f0655a7ab5073c08fe0bfa15930dc8c" target="_top" xlink:title="KalmanFastTracking\l::KalmanFastTracking">
<polygon fill="none" stroke="black" points="192,-0 192,-30 302,-30 302,-0 192,-0"/>
<text text-anchor="start" x="200" y="-18" font-family="FreeSans" font-size="10.00">KalmanFastTracking</text>
<text text-anchor="middle" x="247" y="-7" font-family="FreeSans" font-size="10.00">::KalmanFastTracking</text>
</a>
</g>
</g>
<!-- Node1&#45;&gt;Node7 -->
<g id="edge6" class="edge"><title>Node1&#45;&gt;Node7</title>
<path fill="none" stroke="midnightblue" d="M105.685,-64.8001C125.733,-57.4249 151.228,-48.113 174,-40 183.099,-36.7582 192.864,-33.3323 202.174,-30.0911"/>
<polygon fill="midnightblue" stroke="midnightblue" points="104.203,-61.6161 96.0297,-68.3573 106.623,-68.1845 104.203,-61.6161"/>
</g>
<!-- Node3 -->
<g id="node3" class="node"><title>Node3</title>
<g id="a_node3"><a xlink:href="../../d3/d4a/structUtilHodo_1_1Track1D.html#abd7234340c4ee7dc5c111cdcbe9f7ead" target="_top" xlink:title="UtilHodo::Track1D::\lDoTracking">
<polygon fill="none" stroke="black" points="356.5,-120 356.5,-150 455.5,-150 455.5,-120 356.5,-120"/>
<text text-anchor="start" x="364.5" y="-138" font-family="FreeSans" font-size="10.00">UtilHodo::Track1D::</text>
<text text-anchor="middle" x="406" y="-127" font-family="FreeSans" font-size="10.00">DoTracking</text>
</a>
</g>
</g>
<!-- Node2&#45;&gt;Node3 -->
<g id="edge2" class="edge"><title>Node2&#45;&gt;Node3</title>
<path fill="none" stroke="midnightblue" d="M319.853,-135C332.152,-135 344.67,-135 356.188,-135"/>
<polygon fill="midnightblue" stroke="midnightblue" points="319.6,-131.5 309.6,-135 319.6,-138.5 319.6,-131.5"/>
</g>
<!-- Node4 -->
<g id="node4" class="node"><title>Node4</title>
<g id="a_node4"><a xlink:href="../../dd/df6/structUtilHodo_1_1Track2D.html#ac5b5097bfb0520a4c6c3511b00d6180b" target="_top" xlink:title="UtilHodo::Track2D::\lDoTracking">
<polygon fill="none" stroke="black" points="492.5,-120 492.5,-150 591.5,-150 591.5,-120 492.5,-120"/>
<text text-anchor="start" x="500.5" y="-138" font-family="FreeSans" font-size="10.00">UtilHodo::Track2D::</text>
<text text-anchor="middle" x="542" y="-127" font-family="FreeSans" font-size="10.00">DoTracking</text>
</a>
</g>
</g>
<!-- Node3&#45;&gt;Node4 -->
<g id="edge3" class="edge"><title>Node3&#45;&gt;Node4</title>
<path fill="none" stroke="midnightblue" d="M465.891,-135C474.628,-135 483.551,-135 492.056,-135"/>
<polygon fill="midnightblue" stroke="midnightblue" points="465.756,-131.5 455.756,-135 465.756,-138.5 465.756,-131.5"/>
</g>
</g>
</svg>
