<?xml version="1.0" encoding="UTF-8" standalone="no"?>
<!DOCTYPE svg PUBLIC "-//W3C//DTD SVG 1.1//EN"
 "http://www.w3.org/Graphics/SVG/1.1/DTD/svg11.dtd">
<!-- Generated by graphviz version 2.36.0 (20140111.2315)
 -->
<!-- Title: SRecTrack::getMomentumVecSt1 Pages: 1 -->
<svg width="1422pt" height="148pt"
 viewBox="0.00 0.00 1422.00 148.00" xmlns="http://www.w3.org/2000/svg" xmlns:xlink="http://www.w3.org/1999/xlink">
<g id="graph0" class="graph" transform="scale(1 1) rotate(0) translate(4 144)">
<title>SRecTrack::getMomentumVecSt1</title>
<!-- Node1 -->
<g id="node1" class="node"><title>Node1</title>
<polygon fill="#bfbfbf" stroke="black" points="0,-71.5 0,-90.5 164,-90.5 164,-71.5 0,-71.5"/>
<text text-anchor="middle" x="82" y="-78.5" font-family="FreeSans" font-size="10.00">SRecTrack::getMomentumVecSt1</text>
</g>
<!-- Node2 -->
<g id="node2" class="node"><title>Node2</title>
<g id="a_node2"><a xlink:href="../../d6/db1/classSRecTrack.html#a3c5ab5d580eec34aa4c31156dc3ec66b" target="_top" xlink:title="Simple swim to vertex. ">
<polygon fill="none" stroke="black" points="200,-71.5 200,-90.5 332,-90.5 332,-71.5 200,-71.5"/>
<text text-anchor="middle" x="266" y="-78.5" font-family="FreeSans" font-size="10.00">SRecTrack::swimToVertex</text>
</a>
</g>
</g>
<!-- Node1&#45;&gt;Node2 -->
<g id="edge1" class="edge"><title>Node1&#45;&gt;Node2</title>
<path fill="none" stroke="midnightblue" d="M174.266,-81C182.896,-81 191.522,-81 199.835,-81"/>
<polygon fill="midnightblue" stroke="midnightblue" points="174.153,-77.5001 164.153,-81 174.153,-84.5001 174.153,-77.5001"/>
</g>
<!-- Node3 -->
<g id="node3" class="node"><title>Node3</title>
<g id="a_node3"><a xlink:href="../../d2/d26/classTracklet.html#a1eb7549294ffda15dd00f8671cb17096" target="_top" xlink:title="Tracklet::getSRecTrack">
<polygon fill="none" stroke="black" points="379.5,-90.5 379.5,-109.5 498.5,-109.5 498.5,-90.5 379.5,-90.5"/>
<text text-anchor="middle" x="439" y="-97.5" font-family="FreeSans" font-size="10.00">Tracklet::getSRecTrack</text>
</a>
</g>
</g>
<!-- Node2&#45;&gt;Node3 -->
<g id="edge2" class="edge"><title>Node2&#45;&gt;Node3</title>
<path fill="none" stroke="midnightblue" d="M342.097,-89.3442C354.626,-90.7362 367.457,-92.1619 379.493,-93.4992"/>
<polygon fill="midnightblue" stroke="midnightblue" points="342.461,-85.8631 332.136,-88.2373 341.688,-92.8203 342.461,-85.8631"/>
</g>
<!-- Node12 -->
<g id="node12" class="node"><title>Node12</title>
<g id="a_node12"><a xlink:href="../../d9/dc3/classKalmanTrack.html#a38e275864291b276a96abd8c50de4282" target="_top" xlink:title="Output to SRecTrack. ">
<polygon fill="none" stroke="black" points="368.5,-52.5 368.5,-71.5 509.5,-71.5 509.5,-52.5 368.5,-52.5"/>
<text text-anchor="middle" x="439" y="-59.5" font-family="FreeSans" font-size="10.00">KalmanTrack::getSRecTrack</text>
</a>
</g>
</g>
<!-- Node2&#45;&gt;Node12 -->
<g id="edge13" class="edge"><title>Node2&#45;&gt;Node12</title>
<path fill="none" stroke="midnightblue" d="M342.28,-72.6355C350.997,-71.667 359.857,-70.6825 368.492,-69.7231"/>
<polygon fill="midnightblue" stroke="midnightblue" points="341.688,-69.1797 332.136,-73.7627 342.461,-76.1369 341.688,-69.1797"/>
</g>
<!-- Node4 -->
<g id="node4" class="node"><title>Node4</title>
<g id="a_node4"><a xlink:href="../../db/daa/classKalmanDSTrk.html#ace95cba717e2c3b24dfb46e8d458f61a" target="_top" xlink:title="Track fitting stuff. ">
<polygon fill="none" stroke="black" points="546,-93.5 546,-112.5 716,-112.5 716,-93.5 546,-93.5"/>
<text text-anchor="middle" x="631" y="-100.5" font-family="FreeSans" font-size="10.00">KalmanDSTrk::processOneTracklet</text>
</a>
</g>
</g>
<!-- Node3&#45;&gt;Node4 -->
<g id="edge3" class="edge"><title>Node3&#45;&gt;Node4</title>
<path fill="none" stroke="midnightblue" d="M508.907,-101.088C520.884,-101.277 533.462,-101.476 545.794,-101.67"/>
<polygon fill="midnightblue" stroke="midnightblue" points="508.611,-97.583 498.557,-100.925 508.5,-104.582 508.611,-97.583"/>
</g>
<!-- Node9 -->
<g id="node9" class="node"><title>Node9</title>
<g id="a_node9"><a xlink:href="../../d3/d46/classKalmanFastTracking.html#ac0b6441647d023db04c618a35fd2a8cd" target="_top" xlink:title="Track fitting stuff. ">
<polygon fill="none" stroke="black" points="576.5,-44 576.5,-74 685.5,-74 685.5,-44 576.5,-44"/>
<text text-anchor="start" x="584.5" y="-62" font-family="FreeSans" font-size="10.00">KalmanFastTracking</text>
<text text-anchor="middle" x="631" y="-51" font-family="FreeSans" font-size="10.00">::processOneTracklet</text>
</a>
</g>
</g>
<!-- Node3&#45;&gt;Node9 -->
<g id="edge9" class="edge"><title>Node3&#45;&gt;Node9</title>
<path fill="none" stroke="midnightblue" d="M494.051,-88.3364C519.841,-82.7713 550.609,-76.1317 576.347,-70.5777"/>
<polygon fill="midnightblue" stroke="midnightblue" points="493.104,-84.9601 484.067,-90.4907 494.581,-91.8026 493.104,-84.9601"/>
</g>
<!-- Node5 -->
<g id="node5" class="node"><title>Node5</title>
<g id="a_node5"><a xlink:href="../../db/daa/classKalmanDSTrk.html#adf4981f081f2606bf3412851eaa62eb0" target="_top" xlink:title="KalmanDSTrk::buildGlobal\lTracks">
<polygon fill="none" stroke="black" points="752,-88 752,-118 882,-118 882,-88 752,-88"/>
<text text-anchor="start" x="760" y="-106" font-family="FreeSans" font-size="10.00">KalmanDSTrk::buildGlobal</text>
<text text-anchor="middle" x="817" y="-95" font-family="FreeSans" font-size="10.00">Tracks</text>
</a>
</g>
</g>
<!-- Node4&#45;&gt;Node5 -->
<g id="edge4" class="edge"><title>Node4&#45;&gt;Node5</title>
<path fill="none" stroke="midnightblue" d="M726.356,-103C735.019,-103 743.654,-103 751.954,-103"/>
<polygon fill="midnightblue" stroke="midnightblue" points="726.192,-99.5001 716.192,-103 726.192,-106.5 726.192,-99.5001"/>
</g>
<!-- Node6 -->
<g id="node6" class="node"><title>Node6</title>
<g id="a_node6"><a xlink:href="../../db/daa/classKalmanDSTrk.html#a58ceb0cdcf685588b2a543d7a9c2bf9d" target="_top" xlink:title="KalmanDSTrk::setRawEvent\lWorker">
<polygon fill="none" stroke="black" points="918,-110 918,-140 1058,-140 1058,-110 918,-110"/>
<text text-anchor="start" x="926" y="-128" font-family="FreeSans" font-size="10.00">KalmanDSTrk::setRawEvent</text>
<text text-anchor="middle" x="988" y="-117" font-family="FreeSans" font-size="10.00">Worker</text>
</a>
</g>
</g>
<!-- Node4&#45;&gt;Node6 -->
<g id="edge8" class="edge"><title>Node4&#45;&gt;Node6</title>
<path fill="none" stroke="midnightblue" d="M679.833,-114.819C701.687,-119.635 727.999,-124.623 752,-127 809.497,-132.693 824.225,-127.55 882,-127 893.577,-126.89 905.871,-126.711 917.814,-126.505"/>
<polygon fill="midnightblue" stroke="midnightblue" points="680.338,-111.345 669.813,-112.555 678.795,-118.173 680.338,-111.345"/>
</g>
<!-- Node5&#45;&gt;Node6 -->
<g id="edge5" class="edge"><title>Node5&#45;&gt;Node6</title>
<path fill="none" stroke="midnightblue" d="M892.516,-112.7C900.903,-113.792 909.423,-114.901 917.739,-115.984"/>
<polygon fill="midnightblue" stroke="midnightblue" points="892.742,-109.2 882.374,-111.38 891.838,-116.142 892.742,-109.2"/>
</g>
<!-- Node7 -->
<g id="node7" class="node"><title>Node7</title>
<g id="a_node7"><a xlink:href="../../db/daa/classKalmanDSTrk.html#a67f1b61fbc3fbba52e10f4b06d4f8794" target="_top" xlink:title="KalmanDSTrk::setRawEvent">
<polygon fill="none" stroke="black" points="1094,-115.5 1094,-134.5 1234,-134.5 1234,-115.5 1094,-115.5"/>
<text text-anchor="middle" x="1164" y="-122.5" font-family="FreeSans" font-size="10.00">KalmanDSTrk::setRawEvent</text>
</a>
</g>
</g>
<!-- Node6&#45;&gt;Node7 -->
<g id="edge6" class="edge"><title>Node6&#45;&gt;Node7</title>
<path fill="none" stroke="midnightblue" d="M1068.03,-125C1076.62,-125 1085.32,-125 1093.78,-125"/>
<polygon fill="midnightblue" stroke="midnightblue" points="1068.02,-121.5 1058.02,-125 1068.02,-128.5 1068.02,-121.5"/>
</g>
<!-- Node8 -->
<g id="node8" class="node"><title>Node8</title>
<g id="a_node8"><a xlink:href="../../d4/dff/classKalmanFastTrackingWrapper.html#a5edc61b3b9a06f6486b1f22e44f7d63e" target="_top" xlink:title="KalmanFastTrackingWrapper\l::process_event">
<polygon fill="none" stroke="black" points="1270.5,-110 1270.5,-140 1413.5,-140 1413.5,-110 1270.5,-110"/>
<text text-anchor="start" x="1278.5" y="-128" font-family="FreeSans" font-size="10.00">KalmanFastTrackingWrapper</text>
<text text-anchor="middle" x="1342" y="-117" font-family="FreeSans" font-size="10.00">::process_event</text>
</a>
</g>
</g>
<!-- Node7&#45;&gt;Node8 -->
<g id="edge7" class="edge"><title>Node7&#45;&gt;Node8</title>
<path fill="none" stroke="midnightblue" d="M1244.23,-125C1252.95,-125 1261.8,-125 1270.41,-125"/>
<polygon fill="midnightblue" stroke="midnightblue" points="1244.05,-121.5 1234.05,-125 1244.05,-128.5 1244.05,-121.5"/>
</g>
<!-- Node10 -->
<g id="node10" class="node"><title>Node10</title>
<g id="a_node10"><a xlink:href="../../d3/d46/classKalmanFastTracking.html#a53c93bc5e58b3560d1cfb42e84bbe95c" target="_top" xlink:title="KalmanFastTracking\l::buildGlobalTracks">
<polygon fill="none" stroke="black" points="763.5,-0 763.5,-30 870.5,-30 870.5,-0 763.5,-0"/>
<text text-anchor="start" x="771.5" y="-18" font-family="FreeSans" font-size="10.00">KalmanFastTracking</text>
<text text-anchor="middle" x="817" y="-7" font-family="FreeSans" font-size="10.00">::buildGlobalTracks</text>
</a>
</g>
</g>
<!-- Node9&#45;&gt;Node10 -->
<g id="edge10" class="edge"><title>Node9&#45;&gt;Node10</title>
<path fill="none" stroke="midnightblue" d="M695.69,-43.7697C717.818,-38.4783 742.366,-32.6081 763.488,-27.5573"/>
<polygon fill="midnightblue" stroke="midnightblue" points="694.627,-40.4253 685.715,-46.1551 696.255,-47.2333 694.627,-40.4253"/>
</g>
<!-- Node11 -->
<g id="node11" class="node"><title>Node11</title>
<g id="a_node11"><a xlink:href="../../d3/d46/classKalmanFastTracking.html#ada493cf8d995c42b9e78a53b891ce72b" target="_top" xlink:title="KalmanFastTracking\l::setRawEvent">
<polygon fill="none" stroke="black" points="934.5,-22 934.5,-52 1041.5,-52 1041.5,-22 934.5,-22"/>
<text text-anchor="start" x="942.5" y="-40" font-family="FreeSans" font-size="10.00">KalmanFastTracking</text>
<text text-anchor="middle" x="988" y="-29" font-family="FreeSans" font-size="10.00">::setRawEvent</text>
</a>
</g>
</g>
<!-- Node9&#45;&gt;Node11 -->
<g id="edge12" class="edge"><title>Node9&#45;&gt;Node11</title>
<path fill="none" stroke="midnightblue" d="M695.72,-55.0512C763.939,-50.8235 870.917,-44.1939 934.482,-40.2546"/>
<polygon fill="midnightblue" stroke="midnightblue" points="695.296,-51.5706 685.531,-55.6826 695.729,-58.5572 695.296,-51.5706"/>
</g>
<!-- Node10&#45;&gt;Node11 -->
<g id="edge11" class="edge"><title>Node10&#45;&gt;Node11</title>
<path fill="none" stroke="midnightblue" d="M880.77,-23.1712C898.444,-25.472 917.479,-27.95 934.486,-30.1639"/>
<polygon fill="midnightblue" stroke="midnightblue" points="880.914,-19.6606 870.546,-21.8403 880.011,-26.602 880.914,-19.6606"/>
</g>
<!-- Node12&#45;&gt;Node4 -->
<g id="edge15" class="edge"><title>Node12&#45;&gt;Node4</title>
<path fill="none" stroke="midnightblue" d="M494.055,-73.6645C523.103,-79.9327 558.466,-87.5637 585.843,-93.4714"/>
<polygon fill="midnightblue" stroke="midnightblue" points="494.581,-70.1974 484.067,-71.5093 493.104,-77.0399 494.581,-70.1974"/>
</g>
<!-- Node12&#45;&gt;Node9 -->
<g id="edge14" class="edge"><title>Node12&#45;&gt;Node9</title>
<path fill="none" stroke="midnightblue" d="M519.856,-60.7391C538.933,-60.4379 558.846,-60.1235 576.411,-59.8461"/>
<polygon fill="midnightblue" stroke="midnightblue" points="519.614,-57.2424 509.67,-60.8999 519.724,-64.2415 519.614,-57.2424"/>
</g>
</g>
</svg>
