<?xml version="1.0" encoding="UTF-8" standalone="no"?>
<!DOCTYPE svg PUBLIC "-//W3C//DTD SVG 1.1//EN"
 "http://www.w3.org/Graphics/SVG/1.1/DTD/svg11.dtd">
<!-- Generated by graphviz version 2.36.0 (20140111.2315)
 -->
<!-- Title: SRecTrack::setPTSlope Pages: 1 -->
<svg width="1190pt" height="142pt"
 viewBox="0.00 0.00 1190.00 141.62" xmlns="http://www.w3.org/2000/svg" xmlns:xlink="http://www.w3.org/1999/xlink">
<g id="graph0" class="graph" transform="scale(1 1) rotate(0) translate(4 137.62)">
<title>SRecTrack::setPTSlope</title>
<!-- Node1 -->
<g id="node1" class="node"><title>Node1</title>
<polygon fill="#bfbfbf" stroke="black" points="0.5,-39.1204 0.5,-58.1204 121.5,-58.1204 121.5,-39.1204 0.5,-39.1204"/>
<text text-anchor="middle" x="61" y="-46.1204" font-family="FreeSans" font-size="10.00">SRecTrack::setPTSlope</text>
</g>
<!-- Node2 -->
<g id="node2" class="node"><title>Node2</title>
<g id="a_node2"><a xlink:href="../../d2/d26/classTracklet.html#a1eb7549294ffda15dd00f8671cb17096" target="_top" xlink:title="Tracklet::getSRecTrack">
<polygon fill="none" stroke="black" points="158.5,-39.1204 158.5,-58.1204 277.5,-58.1204 277.5,-39.1204 158.5,-39.1204"/>
<text text-anchor="middle" x="218" y="-46.1204" font-family="FreeSans" font-size="10.00">Tracklet::getSRecTrack</text>
</a>
</g>
</g>
<!-- Node1&#45;&gt;Node2 -->
<g id="edge1" class="edge"><title>Node1&#45;&gt;Node2</title>
<path fill="none" stroke="midnightblue" d="M132.102,-48.6204C140.842,-48.6204 149.709,-48.6204 158.253,-48.6204"/>
<polygon fill="midnightblue" stroke="midnightblue" points="131.927,-45.1204 121.927,-48.6204 131.927,-52.1204 131.927,-45.1204"/>
</g>
<!-- Node3 -->
<g id="node3" class="node"><title>Node3</title>
<g id="a_node3"><a xlink:href="../../db/daa/classKalmanDSTrk.html#ace95cba717e2c3b24dfb46e8d458f61a" target="_top" xlink:title="Track fitting stuff. ">
<polygon fill="none" stroke="black" points="314,-69.1204 314,-88.1204 484,-88.1204 484,-69.1204 314,-69.1204"/>
<text text-anchor="middle" x="399" y="-76.1204" font-family="FreeSans" font-size="10.00">KalmanDSTrk::processOneTracklet</text>
</a>
</g>
</g>
<!-- Node1&#45;&gt;Node3 -->
<g id="edge13" class="edge"><title>Node1&#45;&gt;Node3</title>
<path fill="none" stroke="midnightblue" d="M113.537,-60.2928C127.864,-63.1351 143.478,-65.8605 158,-67.6204 209.552,-73.8677 267.726,-76.6402 313.887,-77.8401"/>
<polygon fill="midnightblue" stroke="midnightblue" points="113.864,-56.7873 103.365,-58.2146 112.462,-63.6456 113.864,-56.7873"/>
</g>
<!-- Node8 -->
<g id="node8" class="node"><title>Node8</title>
<g id="a_node8"><a xlink:href="../../d3/d46/classKalmanFastTracking.html#ac0b6441647d023db04c618a35fd2a8cd" target="_top" xlink:title="Track fitting stuff. ">
<polygon fill="none" stroke="black" points="344.5,-11.6204 344.5,-41.6204 453.5,-41.6204 453.5,-11.6204 344.5,-11.6204"/>
<text text-anchor="start" x="352.5" y="-29.6204" font-family="FreeSans" font-size="10.00">KalmanFastTracking</text>
<text text-anchor="middle" x="399" y="-18.6204" font-family="FreeSans" font-size="10.00">::processOneTracklet</text>
</a>
</g>
</g>
<!-- Node1&#45;&gt;Node8 -->
<g id="edge12" class="edge"><title>Node1&#45;&gt;Node8</title>
<path fill="none" stroke="midnightblue" d="M111.872,-36.9532C126.639,-33.9872 142.897,-31.1959 158,-29.6204 221.825,-22.962 295.711,-23.2288 344.457,-24.4985"/>
<polygon fill="midnightblue" stroke="midnightblue" points="110.999,-33.5599 101.921,-39.0218 112.424,-40.4134 110.999,-33.5599"/>
</g>
<!-- Node2&#45;&gt;Node3 -->
<g id="edge2" class="edge"><title>Node2&#45;&gt;Node3</title>
<path fill="none" stroke="midnightblue" d="M286.041,-59.8563C304.163,-62.8936 323.599,-66.1509 341.107,-69.0852"/>
<polygon fill="midnightblue" stroke="midnightblue" points="286.57,-56.3962 276.129,-58.195 285.413,-63.2999 286.57,-56.3962"/>
</g>
<!-- Node2&#45;&gt;Node8 -->
<g id="edge8" class="edge"><title>Node2&#45;&gt;Node8</title>
<path fill="none" stroke="midnightblue" d="M287.612,-40.1876C306.433,-37.8744 326.56,-35.4007 344.404,-33.2076"/>
<polygon fill="midnightblue" stroke="midnightblue" points="287.11,-36.7229 277.611,-41.4167 287.964,-43.6706 287.11,-36.7229"/>
</g>
<!-- Node4 -->
<g id="node4" class="node"><title>Node4</title>
<g id="a_node4"><a xlink:href="../../db/daa/classKalmanDSTrk.html#adf4981f081f2606bf3412851eaa62eb0" target="_top" xlink:title="KalmanDSTrk::buildGlobal\lTracks">
<polygon fill="none" stroke="black" points="520,-103.62 520,-133.62 650,-133.62 650,-103.62 520,-103.62"/>
<text text-anchor="start" x="528" y="-121.62" font-family="FreeSans" font-size="10.00">KalmanDSTrk::buildGlobal</text>
<text text-anchor="middle" x="585" y="-110.62" font-family="FreeSans" font-size="10.00">Tracks</text>
</a>
</g>
</g>
<!-- Node3&#45;&gt;Node4 -->
<g id="edge3" class="edge"><title>Node3&#45;&gt;Node4</title>
<path fill="none" stroke="midnightblue" d="M453.922,-90.3425C474.54,-94.8246 498.255,-99.9802 519.744,-104.652"/>
<polygon fill="midnightblue" stroke="midnightblue" points="454.588,-86.9056 444.073,-88.2013 453.101,-93.7458 454.588,-86.9056"/>
</g>
<!-- Node5 -->
<g id="node5" class="node"><title>Node5</title>
<g id="a_node5"><a xlink:href="../../db/daa/classKalmanDSTrk.html#a58ceb0cdcf685588b2a543d7a9c2bf9d" target="_top" xlink:title="KalmanDSTrk::setRawEvent\lWorker">
<polygon fill="none" stroke="black" points="686,-70.6204 686,-100.62 826,-100.62 826,-70.6204 686,-70.6204"/>
<text text-anchor="start" x="694" y="-88.6204" font-family="FreeSans" font-size="10.00">KalmanDSTrk::setRawEvent</text>
<text text-anchor="middle" x="756" y="-77.6204" font-family="FreeSans" font-size="10.00">Worker</text>
</a>
</g>
</g>
<!-- Node3&#45;&gt;Node5 -->
<g id="edge7" class="edge"><title>Node3&#45;&gt;Node5</title>
<path fill="none" stroke="midnightblue" d="M494.402,-80.4818C554.582,-81.6684 631.221,-83.1796 685.776,-84.2554"/>
<polygon fill="midnightblue" stroke="midnightblue" points="494.197,-76.9772 484.13,-80.2793 494.059,-83.9758 494.197,-76.9772"/>
</g>
<!-- Node4&#45;&gt;Node5 -->
<g id="edge4" class="edge"><title>Node4&#45;&gt;Node5</title>
<path fill="none" stroke="midnightblue" d="M660.239,-104.124C668.715,-102.469 677.331,-100.786 685.739,-99.1446"/>
<polygon fill="midnightblue" stroke="midnightblue" points="659.518,-100.699 650.374,-106.05 660.859,-107.569 659.518,-100.699"/>
</g>
<!-- Node6 -->
<g id="node6" class="node"><title>Node6</title>
<g id="a_node6"><a xlink:href="../../db/daa/classKalmanDSTrk.html#a67f1b61fbc3fbba52e10f4b06d4f8794" target="_top" xlink:title="KalmanDSTrk::setRawEvent">
<polygon fill="none" stroke="black" points="862,-76.1204 862,-95.1204 1002,-95.1204 1002,-76.1204 862,-76.1204"/>
<text text-anchor="middle" x="932" y="-83.1204" font-family="FreeSans" font-size="10.00">KalmanDSTrk::setRawEvent</text>
</a>
</g>
</g>
<!-- Node5&#45;&gt;Node6 -->
<g id="edge5" class="edge"><title>Node5&#45;&gt;Node6</title>
<path fill="none" stroke="midnightblue" d="M836.035,-85.6204C844.625,-85.6204 853.319,-85.6204 861.779,-85.6204"/>
<polygon fill="midnightblue" stroke="midnightblue" points="836.019,-82.1204 826.019,-85.6204 836.019,-89.1204 836.019,-82.1204"/>
</g>
<!-- Node7 -->
<g id="node7" class="node"><title>Node7</title>
<g id="a_node7"><a xlink:href="../../d4/dff/classKalmanFastTrackingWrapper.html#a5edc61b3b9a06f6486b1f22e44f7d63e" target="_top" xlink:title="KalmanFastTrackingWrapper\l::process_event">
<polygon fill="none" stroke="black" points="1038.5,-70.6204 1038.5,-100.62 1181.5,-100.62 1181.5,-70.6204 1038.5,-70.6204"/>
<text text-anchor="start" x="1046.5" y="-88.6204" font-family="FreeSans" font-size="10.00">KalmanFastTrackingWrapper</text>
<text text-anchor="middle" x="1110" y="-77.6204" font-family="FreeSans" font-size="10.00">::process_event</text>
</a>
</g>
</g>
<!-- Node6&#45;&gt;Node7 -->
<g id="edge6" class="edge"><title>Node6&#45;&gt;Node7</title>
<path fill="none" stroke="midnightblue" d="M1012.23,-85.6204C1020.95,-85.6204 1029.8,-85.6204 1038.41,-85.6204"/>
<polygon fill="midnightblue" stroke="midnightblue" points="1012.05,-82.1204 1002.05,-85.6204 1012.05,-89.1204 1012.05,-82.1204"/>
</g>
<!-- Node9 -->
<g id="node9" class="node"><title>Node9</title>
<g id="a_node9"><a xlink:href="../../d3/d46/classKalmanFastTracking.html#a53c93bc5e58b3560d1cfb42e84bbe95c" target="_top" xlink:title="KalmanFastTracking\l::buildGlobalTracks">
<polygon fill="none" stroke="black" points="531.5,-13.6204 531.5,-43.6204 638.5,-43.6204 638.5,-13.6204 531.5,-13.6204"/>
<text text-anchor="start" x="539.5" y="-31.6204" font-family="FreeSans" font-size="10.00">KalmanFastTracking</text>
<text text-anchor="middle" x="585" y="-20.6204" font-family="FreeSans" font-size="10.00">::buildGlobalTracks</text>
</a>
</g>
</g>
<!-- Node8&#45;&gt;Node9 -->
<g id="edge9" class="edge"><title>Node8&#45;&gt;Node9</title>
<path fill="none" stroke="midnightblue" d="M463.99,-27.3159C486.039,-27.5556 510.461,-27.821 531.488,-28.0496"/>
<polygon fill="midnightblue" stroke="midnightblue" points="463.753,-23.8132 453.715,-27.2042 463.676,-30.8128 463.753,-23.8132"/>
</g>
<!-- Node10 -->
<g id="node10" class="node"><title>Node10</title>
<g id="a_node10"><a xlink:href="../../d3/d46/classKalmanFastTracking.html#ada493cf8d995c42b9e78a53b891ce72b" target="_top" xlink:title="KalmanFastTracking\l::setRawEvent">
<polygon fill="none" stroke="black" points="702.5,-1.62035 702.5,-31.6204 809.5,-31.6204 809.5,-1.62035 702.5,-1.62035"/>
<text text-anchor="start" x="710.5" y="-19.6204" font-family="FreeSans" font-size="10.00">KalmanFastTracking</text>
<text text-anchor="middle" x="756" y="-8.62035" font-family="FreeSans" font-size="10.00">::setRawEvent</text>
</a>
</g>
</g>
<!-- Node8&#45;&gt;Node10 -->
<g id="edge11" class="edge"><title>Node8&#45;&gt;Node10</title>
<path fill="none" stroke="midnightblue" d="M463.618,-12.1045C481.735,-8.60465 501.558,-5.37173 520,-3.62035 577.519,1.84217 592.332,-0.0639893 650,-3.62035 667.05,-4.67182 685.57,-6.67499 702.24,-8.79961"/>
<polygon fill="midnightblue" stroke="midnightblue" points="462.872,-8.68414 453.748,-14.0687 464.239,-15.5495 462.872,-8.68414"/>
</g>
<!-- Node9&#45;&gt;Node10 -->
<g id="edge10" class="edge"><title>Node9&#45;&gt;Node10</title>
<path fill="none" stroke="midnightblue" d="M648.77,-24.1633C666.444,-22.9083 685.479,-21.5567 702.486,-20.3491"/>
<polygon fill="midnightblue" stroke="midnightblue" points="648.273,-20.6897 638.546,-24.8893 648.769,-27.6721 648.273,-20.6897"/>
</g>
</g>
</svg>
