<?xml version="1.0" encoding="UTF-8" standalone="no"?>
<!DOCTYPE svg PUBLIC "-//W3C//DTD SVG 1.1//EN"
 "http://www.w3.org/Graphics/SVG/1.1/DTD/svg11.dtd">
<!-- Generated by graphviz version 2.44.0 (0)
 -->
<!-- Title: /dev/shm/kenichi/update&#45;github&#45;e1039&#45;doc/e1039&#45;analysis/GenRoadset/src/TreeData.h Pages: 1 -->
<svg width="1175pt" height="328pt"
 viewBox="0.00 0.00 1175.00 328.00" xmlns="http://www.w3.org/2000/svg" xmlns:xlink="http://www.w3.org/1999/xlink">
<g id="graph0" class="graph" transform="scale(1 1) rotate(0) translate(4 324)">
<title>/dev/shm/kenichi/update&#45;github&#45;e1039&#45;doc/e1039&#45;analysis/GenRoadset/src/TreeData.h</title>
<!-- Node1 -->
<g id="node1" class="node">
<title>Node1</title>
<g id="a_node1"><a xlink:title=" ">
<polygon fill="#bfbfbf" stroke="black" points="711,-267.5 711,-319.5 851,-319.5 851,-267.5 711,-267.5"/>
<text text-anchor="start" x="719" y="-307.5" font-family="FreeSans" font-size="10.00">/dev/shm/kenichi/update</text>
<text text-anchor="start" x="719" y="-296.5" font-family="FreeSans" font-size="10.00">&#45;github&#45;e1039&#45;doc/e1039</text>
<text text-anchor="start" x="719" y="-285.5" font-family="FreeSans" font-size="10.00">&#45;analysis/GenRoadset/src</text>
<text text-anchor="middle" x="781" y="-274.5" font-family="FreeSans" font-size="10.00">/TreeData.h</text>
</a>
</g>
</g>
<!-- Node2 -->
<g id="node2" class="node">
<title>Node2</title>
<g id="a_node2"><a xlink:href="../../d5/d0f/AnaBG_8h.html" target="_top" xlink:title=" ">
<polygon fill="none" stroke="black" points="158,-178.5 158,-230.5 298,-230.5 298,-178.5 158,-178.5"/>
<text text-anchor="start" x="166" y="-218.5" font-family="FreeSans" font-size="10.00">/dev/shm/kenichi/update</text>
<text text-anchor="start" x="166" y="-207.5" font-family="FreeSans" font-size="10.00">&#45;github&#45;e1039&#45;doc/e1039</text>
<text text-anchor="start" x="166" y="-196.5" font-family="FreeSans" font-size="10.00">&#45;analysis/GenRoadset/src</text>
<text text-anchor="middle" x="228" y="-185.5" font-family="FreeSans" font-size="10.00">/AnaBG.h</text>
</a>
</g>
</g>
<!-- Node1&#45;&gt;Node2 -->
<g id="edge1" class="edge">
<title>Node1&#45;&gt;Node2</title>
<path fill="none" stroke="midnightblue" d="M701.07,-279.93C592.84,-262.9 401.38,-232.78 298.34,-216.57"/>
<polygon fill="midnightblue" stroke="midnightblue" points="700.54,-283.38 710.96,-281.48 701.63,-276.47 700.54,-283.38"/>
</g>
<!-- Node6 -->
<g id="node6" class="node">
<title>Node6</title>
<g id="a_node6"><a xlink:href="../../d4/d1a/AnaSignal_8h.html" target="_top" xlink:title=" ">
<polygon fill="none" stroke="black" points="474,-178.5 474,-230.5 614,-230.5 614,-178.5 474,-178.5"/>
<text text-anchor="start" x="482" y="-218.5" font-family="FreeSans" font-size="10.00">/dev/shm/kenichi/update</text>
<text text-anchor="start" x="482" y="-207.5" font-family="FreeSans" font-size="10.00">&#45;github&#45;e1039&#45;doc/e1039</text>
<text text-anchor="start" x="482" y="-196.5" font-family="FreeSans" font-size="10.00">&#45;analysis/GenRoadset/src</text>
<text text-anchor="middle" x="544" y="-185.5" font-family="FreeSans" font-size="10.00">/AnaSignal.h</text>
</a>
</g>
</g>
<!-- Node1&#45;&gt;Node6 -->
<g id="edge5" class="edge">
<title>Node1&#45;&gt;Node6</title>
<path fill="none" stroke="midnightblue" d="M703.36,-264C673.92,-253.19 640.66,-240.98 612.16,-230.52"/>
<polygon fill="midnightblue" stroke="midnightblue" points="702.17,-267.29 712.77,-267.45 704.59,-260.72 702.17,-267.29"/>
</g>
<!-- Node11 -->
<g id="node11" class="node">
<title>Node11</title>
<g id="a_node11"><a xlink:href="../../d4/d52/SubsysRecoBG_8h.html" target="_top" xlink:title=" ">
<polygon fill="none" stroke="black" points="711,-178.5 711,-230.5 851,-230.5 851,-178.5 711,-178.5"/>
<text text-anchor="start" x="719" y="-218.5" font-family="FreeSans" font-size="10.00">/dev/shm/kenichi/update</text>
<text text-anchor="start" x="719" y="-207.5" font-family="FreeSans" font-size="10.00">&#45;github&#45;e1039&#45;doc/e1039</text>
<text text-anchor="start" x="719" y="-196.5" font-family="FreeSans" font-size="10.00">&#45;analysis/GenRoadset/src</text>
<text text-anchor="middle" x="781" y="-185.5" font-family="FreeSans" font-size="10.00">/SubsysRecoBG.h</text>
</a>
</g>
</g>
<!-- Node1&#45;&gt;Node11 -->
<g id="edge11" class="edge">
<title>Node1&#45;&gt;Node11</title>
<path fill="none" stroke="midnightblue" d="M781,-257.19C781,-248.28 781,-238.9 781,-230.61"/>
<polygon fill="midnightblue" stroke="midnightblue" points="777.5,-257.34 781,-267.34 784.5,-257.34 777.5,-257.34"/>
</g>
<!-- Node13 -->
<g id="node13" class="node">
<title>Node13</title>
<g id="a_node13"><a xlink:href="../../d2/d9c/SubsysRecoSignal_8h.html" target="_top" xlink:title=" ">
<polygon fill="none" stroke="black" points="869,-178.5 869,-230.5 1009,-230.5 1009,-178.5 869,-178.5"/>
<text text-anchor="start" x="877" y="-218.5" font-family="FreeSans" font-size="10.00">/dev/shm/kenichi/update</text>
<text text-anchor="start" x="877" y="-207.5" font-family="FreeSans" font-size="10.00">&#45;github&#45;e1039&#45;doc/e1039</text>
<text text-anchor="start" x="877" y="-196.5" font-family="FreeSans" font-size="10.00">&#45;analysis/GenRoadset/src</text>
<text text-anchor="middle" x="939" y="-185.5" font-family="FreeSans" font-size="10.00">/SubsysRecoSignal.h</text>
</a>
</g>
</g>
<!-- Node1&#45;&gt;Node13 -->
<g id="edge13" class="edge">
<title>Node1&#45;&gt;Node13</title>
<path fill="none" stroke="midnightblue" d="M835.49,-262.49C854.37,-252.1 875.32,-240.57 893.4,-230.61"/>
<polygon fill="midnightblue" stroke="midnightblue" points="833.77,-259.45 826.7,-267.34 837.15,-265.58 833.77,-259.45"/>
</g>
<!-- Node15 -->
<g id="node15" class="node">
<title>Node15</title>
<g id="a_node15"><a xlink:href="../../d5/d07/GenRoadset_2src_2TreeData_8cc.html" target="_top" xlink:title=" ">
<polygon fill="none" stroke="black" points="1027,-178.5 1027,-230.5 1167,-230.5 1167,-178.5 1027,-178.5"/>
<text text-anchor="start" x="1035" y="-218.5" font-family="FreeSans" font-size="10.00">/dev/shm/kenichi/update</text>
<text text-anchor="start" x="1035" y="-207.5" font-family="FreeSans" font-size="10.00">&#45;github&#45;e1039&#45;doc/e1039</text>
<text text-anchor="start" x="1035" y="-196.5" font-family="FreeSans" font-size="10.00">&#45;analysis/GenRoadset/src</text>
<text text-anchor="middle" x="1097" y="-185.5" font-family="FreeSans" font-size="10.00">/TreeData.cc</text>
</a>
</g>
</g>
<!-- Node1&#45;&gt;Node15 -->
<g id="edge15" class="edge">
<title>Node1&#45;&gt;Node15</title>
<path fill="none" stroke="midnightblue" d="M860.96,-272.99C907.06,-261.43 966,-246.13 1018,-231 1020.91,-230.15 1023.87,-229.28 1026.85,-228.38"/>
<polygon fill="midnightblue" stroke="midnightblue" points="859.89,-269.65 851.03,-275.47 861.58,-276.44 859.89,-269.65"/>
</g>
<!-- Node3 -->
<g id="node3" class="node">
<title>Node3</title>
<g id="a_node3"><a xlink:href="../../db/dfe/AnaBG_8cc.html" target="_top" xlink:title=" ">
<polygon fill="none" stroke="black" points="158,-89.5 158,-141.5 298,-141.5 298,-89.5 158,-89.5"/>
<text text-anchor="start" x="166" y="-129.5" font-family="FreeSans" font-size="10.00">/dev/shm/kenichi/update</text>
<text text-anchor="start" x="166" y="-118.5" font-family="FreeSans" font-size="10.00">&#45;github&#45;e1039&#45;doc/e1039</text>
<text text-anchor="start" x="166" y="-107.5" font-family="FreeSans" font-size="10.00">&#45;analysis/GenRoadset/src</text>
<text text-anchor="middle" x="228" y="-96.5" font-family="FreeSans" font-size="10.00">/AnaBG.cc</text>
</a>
</g>
</g>
<!-- Node2&#45;&gt;Node3 -->
<g id="edge2" class="edge">
<title>Node2&#45;&gt;Node3</title>
<path fill="none" stroke="midnightblue" d="M228,-168.19C228,-159.28 228,-149.9 228,-141.61"/>
<polygon fill="midnightblue" stroke="midnightblue" points="224.5,-168.34 228,-178.34 231.5,-168.34 224.5,-168.34"/>
</g>
<!-- Node4 -->
<g id="node4" class="node">
<title>Node4</title>
<g id="a_node4"><a xlink:href="../../dd/d28/ReAnaBG_8h.html" target="_top" xlink:title=" ">
<polygon fill="none" stroke="black" points="0,-89.5 0,-141.5 140,-141.5 140,-89.5 0,-89.5"/>
<text text-anchor="start" x="8" y="-129.5" font-family="FreeSans" font-size="10.00">/dev/shm/kenichi/update</text>
<text text-anchor="start" x="8" y="-118.5" font-family="FreeSans" font-size="10.00">&#45;github&#45;e1039&#45;doc/e1039</text>
<text text-anchor="start" x="8" y="-107.5" font-family="FreeSans" font-size="10.00">&#45;analysis/GenRoadset/src</text>
<text text-anchor="middle" x="70" y="-96.5" font-family="FreeSans" font-size="10.00">/ReAnaBG.h</text>
</a>
</g>
</g>
<!-- Node2&#45;&gt;Node4 -->
<g id="edge3" class="edge">
<title>Node2&#45;&gt;Node4</title>
<path fill="none" stroke="midnightblue" d="M173.51,-173.49C154.63,-163.1 133.68,-151.57 115.6,-141.61"/>
<polygon fill="midnightblue" stroke="midnightblue" points="171.85,-176.58 182.3,-178.34 175.23,-170.45 171.85,-176.58"/>
</g>
<!-- Node5 -->
<g id="node5" class="node">
<title>Node5</title>
<g id="a_node5"><a xlink:href="../../da/d45/ReAnaBG_8cc.html" target="_top" xlink:title=" ">
<polygon fill="none" stroke="black" points="0,-0.5 0,-52.5 140,-52.5 140,-0.5 0,-0.5"/>
<text text-anchor="start" x="8" y="-40.5" font-family="FreeSans" font-size="10.00">/dev/shm/kenichi/update</text>
<text text-anchor="start" x="8" y="-29.5" font-family="FreeSans" font-size="10.00">&#45;github&#45;e1039&#45;doc/e1039</text>
<text text-anchor="start" x="8" y="-18.5" font-family="FreeSans" font-size="10.00">&#45;analysis/GenRoadset/src</text>
<text text-anchor="middle" x="70" y="-7.5" font-family="FreeSans" font-size="10.00">/ReAnaBG.cc</text>
</a>
</g>
</g>
<!-- Node4&#45;&gt;Node5 -->
<g id="edge4" class="edge">
<title>Node4&#45;&gt;Node5</title>
<path fill="none" stroke="midnightblue" d="M70,-79.19C70,-70.28 70,-60.9 70,-52.61"/>
<polygon fill="midnightblue" stroke="midnightblue" points="66.5,-79.34 70,-89.34 73.5,-79.34 66.5,-79.34"/>
</g>
<!-- Node6&#45;&gt;Node3 -->
<g id="edge6" class="edge">
<title>Node6&#45;&gt;Node3</title>
<path fill="none" stroke="midnightblue" d="M464.04,-183.99C417.94,-172.43 359,-157.13 307,-142 304.09,-141.15 301.13,-140.28 298.15,-139.38"/>
<polygon fill="midnightblue" stroke="midnightblue" points="463.42,-187.44 473.97,-186.47 465.11,-180.65 463.42,-187.44"/>
</g>
<!-- Node7 -->
<g id="node7" class="node">
<title>Node7</title>
<g id="a_node7"><a xlink:href="../../d0/d15/AnaSignal_8cc.html" target="_top" xlink:title=" ">
<polygon fill="none" stroke="black" points="316,-89.5 316,-141.5 456,-141.5 456,-89.5 316,-89.5"/>
<text text-anchor="start" x="324" y="-129.5" font-family="FreeSans" font-size="10.00">/dev/shm/kenichi/update</text>
<text text-anchor="start" x="324" y="-118.5" font-family="FreeSans" font-size="10.00">&#45;github&#45;e1039&#45;doc/e1039</text>
<text text-anchor="start" x="324" y="-107.5" font-family="FreeSans" font-size="10.00">&#45;analysis/GenRoadset/src</text>
<text text-anchor="middle" x="386" y="-96.5" font-family="FreeSans" font-size="10.00">/AnaSignal.cc</text>
</a>
</g>
</g>
<!-- Node6&#45;&gt;Node7 -->
<g id="edge7" class="edge">
<title>Node6&#45;&gt;Node7</title>
<path fill="none" stroke="midnightblue" d="M489.51,-173.49C470.63,-163.1 449.68,-151.57 431.6,-141.61"/>
<polygon fill="midnightblue" stroke="midnightblue" points="487.85,-176.58 498.3,-178.34 491.23,-170.45 487.85,-176.58"/>
</g>
<!-- Node8 -->
<g id="node8" class="node">
<title>Node8</title>
<g id="a_node8"><a xlink:href="../../d0/d04/GenRoadset_8cc.html" target="_top" xlink:title=" ">
<polygon fill="none" stroke="black" points="474,-89.5 474,-141.5 614,-141.5 614,-89.5 474,-89.5"/>
<text text-anchor="start" x="482" y="-129.5" font-family="FreeSans" font-size="10.00">/dev/shm/kenichi/update</text>
<text text-anchor="start" x="482" y="-118.5" font-family="FreeSans" font-size="10.00">&#45;github&#45;e1039&#45;doc/e1039</text>
<text text-anchor="start" x="482" y="-107.5" font-family="FreeSans" font-size="10.00">&#45;analysis/GenRoadset/src</text>
<text text-anchor="middle" x="544" y="-96.5" font-family="FreeSans" font-size="10.00">/GenRoadset.cc</text>
</a>
</g>
</g>
<!-- Node6&#45;&gt;Node8 -->
<g id="edge8" class="edge">
<title>Node6&#45;&gt;Node8</title>
<path fill="none" stroke="midnightblue" d="M544,-168.19C544,-159.28 544,-149.9 544,-141.61"/>
<polygon fill="midnightblue" stroke="midnightblue" points="540.5,-168.34 544,-178.34 547.5,-168.34 540.5,-168.34"/>
</g>
<!-- Node9 -->
<g id="node9" class="node">
<title>Node9</title>
<g id="a_node9"><a xlink:href="../../df/d15/ReAnaSignal_8h.html" target="_top" xlink:title=" ">
<polygon fill="none" stroke="black" points="632,-89.5 632,-141.5 772,-141.5 772,-89.5 632,-89.5"/>
<text text-anchor="start" x="640" y="-129.5" font-family="FreeSans" font-size="10.00">/dev/shm/kenichi/update</text>
<text text-anchor="start" x="640" y="-118.5" font-family="FreeSans" font-size="10.00">&#45;github&#45;e1039&#45;doc/e1039</text>
<text text-anchor="start" x="640" y="-107.5" font-family="FreeSans" font-size="10.00">&#45;analysis/GenRoadset/src</text>
<text text-anchor="middle" x="702" y="-96.5" font-family="FreeSans" font-size="10.00">/ReAnaSignal.h</text>
</a>
</g>
</g>
<!-- Node6&#45;&gt;Node9 -->
<g id="edge9" class="edge">
<title>Node6&#45;&gt;Node9</title>
<path fill="none" stroke="midnightblue" d="M598.49,-173.49C617.37,-163.1 638.32,-151.57 656.4,-141.61"/>
<polygon fill="midnightblue" stroke="midnightblue" points="596.77,-170.45 589.7,-178.34 600.15,-176.58 596.77,-170.45"/>
</g>
<!-- Node10 -->
<g id="node10" class="node">
<title>Node10</title>
<g id="a_node10"><a xlink:href="../../d2/d5c/ReAnaSignal_8cc.html" target="_top" xlink:title=" ">
<polygon fill="none" stroke="black" points="632,-0.5 632,-52.5 772,-52.5 772,-0.5 632,-0.5"/>
<text text-anchor="start" x="640" y="-40.5" font-family="FreeSans" font-size="10.00">/dev/shm/kenichi/update</text>
<text text-anchor="start" x="640" y="-29.5" font-family="FreeSans" font-size="10.00">&#45;github&#45;e1039&#45;doc/e1039</text>
<text text-anchor="start" x="640" y="-18.5" font-family="FreeSans" font-size="10.00">&#45;analysis/GenRoadset/src</text>
<text text-anchor="middle" x="702" y="-7.5" font-family="FreeSans" font-size="10.00">/ReAnaSignal.cc</text>
</a>
</g>
</g>
<!-- Node9&#45;&gt;Node10 -->
<g id="edge10" class="edge">
<title>Node9&#45;&gt;Node10</title>
<path fill="none" stroke="midnightblue" d="M702,-79.19C702,-70.28 702,-60.9 702,-52.61"/>
<polygon fill="midnightblue" stroke="midnightblue" points="698.5,-79.34 702,-89.34 705.5,-79.34 698.5,-79.34"/>
</g>
<!-- Node12 -->
<g id="node12" class="node">
<title>Node12</title>
<g id="a_node12"><a xlink:href="../../df/df6/SubsysRecoBG_8cc.html" target="_top" xlink:title=" ">
<polygon fill="none" stroke="black" points="790,-89.5 790,-141.5 930,-141.5 930,-89.5 790,-89.5"/>
<text text-anchor="start" x="798" y="-129.5" font-family="FreeSans" font-size="10.00">/dev/shm/kenichi/update</text>
<text text-anchor="start" x="798" y="-118.5" font-family="FreeSans" font-size="10.00">&#45;github&#45;e1039&#45;doc/e1039</text>
<text text-anchor="start" x="798" y="-107.5" font-family="FreeSans" font-size="10.00">&#45;analysis/GenRoadset/src</text>
<text text-anchor="middle" x="860" y="-96.5" font-family="FreeSans" font-size="10.00">/SubsysRecoBG.cc</text>
</a>
</g>
</g>
<!-- Node11&#45;&gt;Node12 -->
<g id="edge12" class="edge">
<title>Node11&#45;&gt;Node12</title>
<path fill="none" stroke="midnightblue" d="M810.7,-170.79C819.47,-161.13 828.94,-150.71 837.2,-141.61"/>
<polygon fill="midnightblue" stroke="midnightblue" points="807.98,-168.58 803.85,-178.34 813.16,-173.29 807.98,-168.58"/>
</g>
<!-- Node14 -->
<g id="node14" class="node">
<title>Node14</title>
<g id="a_node14"><a xlink:href="../../d9/dc9/SubsysRecoSignal_8cc.html" target="_top" xlink:title=" ">
<polygon fill="none" stroke="black" points="948,-89.5 948,-141.5 1088,-141.5 1088,-89.5 948,-89.5"/>
<text text-anchor="start" x="956" y="-129.5" font-family="FreeSans" font-size="10.00">/dev/shm/kenichi/update</text>
<text text-anchor="start" x="956" y="-118.5" font-family="FreeSans" font-size="10.00">&#45;github&#45;e1039&#45;doc/e1039</text>
<text text-anchor="start" x="956" y="-107.5" font-family="FreeSans" font-size="10.00">&#45;analysis/GenRoadset/src</text>
<text text-anchor="middle" x="1018" y="-96.5" font-family="FreeSans" font-size="10.00">/SubsysRecoSignal.cc</text>
</a>
</g>
</g>
<!-- Node13&#45;&gt;Node14 -->
<g id="edge14" class="edge">
<title>Node13&#45;&gt;Node14</title>
<path fill="none" stroke="midnightblue" d="M968.7,-170.79C977.47,-161.13 986.94,-150.71 995.2,-141.61"/>
<polygon fill="midnightblue" stroke="midnightblue" points="965.98,-168.58 961.85,-178.34 971.16,-173.29 965.98,-168.58"/>
</g>
</g>
</svg>
