<?xml version="1.0" encoding="UTF-8" standalone="no"?>
<!DOCTYPE svg PUBLIC "-//W3C//DTD SVG 1.1//EN"
 "http://www.w3.org/Graphics/SVG/1.1/DTD/svg11.dtd">
<!-- Generated by graphviz version 2.44.0 (0)
 -->
<!-- Title: CalibParamXT::ReadDbTable Pages: 1 -->
<svg width="1637pt" height="712pt"
 viewBox="0.00 0.00 1637.00 712.00" xmlns="http://www.w3.org/2000/svg" xmlns:xlink="http://www.w3.org/1999/xlink">
<g id="graph0" class="graph" transform="scale(1 1) rotate(0) translate(4 708)">
<title>CalibParamXT::ReadDbTable</title>
<!-- Node1 -->
<g id="node1" class="node">
<title>Node1</title>
<g id="a_node1"><a xlink:title=" ">
<polygon fill="#bfbfbf" stroke="black" points="0,-180.5 0,-199.5 154,-199.5 154,-180.5 0,-180.5"/>
<text text-anchor="middle" x="77" y="-187.5" font-family="FreeSans" font-size="10.00">CalibParamXT::ReadDbTable</text>
</a>
</g>
</g>
<!-- Node2 -->
<g id="node2" class="node">
<title>Node2</title>
<g id="a_node2"><a xlink:href="../../da/d44/classCalibParamXT.html#a5483b9b9bd60b5b43611c1dec536dc46" target="_top" xlink:title=" ">
<polygon fill="none" stroke="black" points="190,-180.5 190,-199.5 299,-199.5 299,-180.5 190,-180.5"/>
<text text-anchor="middle" x="244.5" y="-187.5" font-family="FreeSans" font-size="10.00">CalibParamXT::Add</text>
</a>
</g>
</g>
<!-- Node1&#45;&gt;Node2 -->
<g id="edge1" class="edge">
<title>Node1&#45;&gt;Node2</title>
<path fill="none" stroke="midnightblue" d="M154.45,-190C162.79,-190 171.21,-190 179.38,-190"/>
<polygon fill="midnightblue" stroke="midnightblue" points="179.56,-193.5 189.56,-190 179.56,-186.5 179.56,-193.5"/>
</g>
<!-- Node23 -->
<g id="node23" class="node">
<title>Node23</title>
<g id="a_node23"><a xlink:href="../../db/d8a/classRunParamBase.html#ad9f709752d29d2a439deafc2663e78e4" target="_top" xlink:title=" ">
<polygon fill="none" stroke="black" points="1055.5,-684.5 1055.5,-703.5 1227.5,-703.5 1227.5,-684.5 1055.5,-684.5"/>
<text text-anchor="middle" x="1141.5" y="-691.5" font-family="FreeSans" font-size="10.00">RunParamBase::MapTableName</text>
</a>
</g>
</g>
<!-- Node1&#45;&gt;Node23 -->
<g id="edge46" class="edge">
<title>Node1&#45;&gt;Node23</title>
<path fill="none" stroke="midnightblue" d="M79.67,-199.73C91.73,-266.65 171.81,-656 402.5,-656 402.5,-656 402.5,-656 716,-656 838.47,-656 980.03,-671.89 1064.8,-683.12"/>
<polygon fill="midnightblue" stroke="midnightblue" points="1064.47,-686.6 1074.85,-684.46 1065.4,-679.66 1064.47,-686.6"/>
</g>
<!-- Node32 -->
<g id="node32" class="node">
<title>Node32</title>
<g id="a_node32"><a xlink:href="../../d2/da4/classDbSvc.html#a5a73427afe9c0bd72d41b45e211ae187" target="_top" xlink:title=" ">
<polygon fill="none" stroke="black" points="1288.5,-399.5 1288.5,-418.5 1379.5,-418.5 1379.5,-399.5 1288.5,-399.5"/>
<text text-anchor="middle" x="1334" y="-406.5" font-family="FreeSans" font-size="10.00">DbSvc::Process</text>
</a>
</g>
</g>
<!-- Node1&#45;&gt;Node32 -->
<g id="edge47" class="edge">
<title>Node1&#45;&gt;Node32</title>
<path fill="none" stroke="midnightblue" d="M94.97,-180.4C142.13,-154.66 279.45,-86 402.5,-86 402.5,-86 402.5,-86 929,-86 1064.28,-86 1128.78,-51.04 1228,-143 1272.92,-184.63 1241.77,-218.94 1264,-276 1280.59,-318.58 1306.9,-365.36 1321.78,-390.51"/>
<polygon fill="midnightblue" stroke="midnightblue" points="1318.92,-392.54 1327.06,-399.33 1324.93,-388.95 1318.92,-392.54"/>
</g>
<!-- Node3 -->
<g id="node3" class="node">
<title>Node3</title>
<g id="a_node3"><a xlink:href="../../d0/da0/classGeomSvc.html#a126b64707cebd1ad3b2f00ebd6c178c4" target="_top" xlink:title="Get the plane position.">
<polygon fill="none" stroke="black" points="335,-180.5 335,-199.5 472,-199.5 472,-180.5 335,-180.5"/>
<text text-anchor="middle" x="403.5" y="-187.5" font-family="FreeSans" font-size="10.00">GeomSvc::getDetectorID</text>
</a>
</g>
</g>
<!-- Node2&#45;&gt;Node3 -->
<g id="edge2" class="edge">
<title>Node2&#45;&gt;Node3</title>
<path fill="none" stroke="midnightblue" d="M299.09,-190C307.39,-190 316.11,-190 324.81,-190"/>
<polygon fill="midnightblue" stroke="midnightblue" points="324.99,-193.5 334.99,-190 324.99,-186.5 324.99,-193.5"/>
</g>
<!-- Node4 -->
<g id="node4" class="node">
<title>Node4</title>
<g id="a_node4"><a xlink:href="../../d0/da0/classGeomSvc.html#a2b7ecf5467120206b9479654c48ad7c4" target="_top" xlink:title="singlton instance">
<polygon fill="none" stroke="black" points="348.5,-247.5 348.5,-266.5 458.5,-266.5 458.5,-247.5 348.5,-247.5"/>
<text text-anchor="middle" x="403.5" y="-254.5" font-family="FreeSans" font-size="10.00">GeomSvc::instance</text>
</a>
</g>
</g>
<!-- Node2&#45;&gt;Node4 -->
<g id="edge3" class="edge">
<title>Node2&#45;&gt;Node4</title>
<path fill="none" stroke="midnightblue" d="M267.99,-199.6C294.93,-211.09 340.21,-230.42 370.71,-243.43"/>
<polygon fill="midnightblue" stroke="midnightblue" points="369.48,-246.71 380.05,-247.42 372.22,-240.27 369.48,-246.71"/>
</g>
<!-- Node33 -->
<g id="node33" class="node">
<title>Node33</title>
<g id="a_node33"><a xlink:href="../../d0/da0/classGeomSvc.html#a315e886f05db8254ed7d320706e268e6" target="_top" xlink:title="Convert the official detectorName to local detectorName.">
<polygon fill="none" stroke="black" points="840,-114.5 840,-133.5 1016,-133.5 1016,-114.5 840,-114.5"/>
<text text-anchor="middle" x="928" y="-121.5" font-family="FreeSans" font-size="10.00">GeomSvc::toLocalDetectorName</text>
</a>
</g>
</g>
<!-- Node2&#45;&gt;Node33 -->
<g id="edge45" class="edge">
<title>Node2&#45;&gt;Node33</title>
<path fill="none" stroke="midnightblue" d="M284.95,-180.47C300.47,-177.02 318.49,-173.4 335,-171 508.25,-145.84 712.12,-133.38 829.77,-127.84"/>
<polygon fill="midnightblue" stroke="midnightblue" points="830.01,-131.33 839.83,-127.37 829.68,-124.34 830.01,-131.33"/>
</g>
<!-- Node5 -->
<g id="node5" class="node">
<title>Node5</title>
<g id="a_node5"><a xlink:href="../../d0/da0/classGeomSvc.html#a96ec4efc82cbaed0b5623e4dd69385b6" target="_top" xlink:title="Initialization, either from MySQL or from ascii file.">
<polygon fill="none" stroke="black" points="508,-304.5 508,-323.5 593,-323.5 593,-304.5 508,-304.5"/>
<text text-anchor="middle" x="550.5" y="-311.5" font-family="FreeSans" font-size="10.00">GeomSvc::init</text>
</a>
</g>
</g>
<!-- Node4&#45;&gt;Node5 -->
<g id="edge4" class="edge">
<title>Node4&#45;&gt;Node5</title>
<path fill="none" stroke="midnightblue" d="M428.77,-266.54C452.61,-275.91 489.18,-290.29 515.83,-300.76"/>
<polygon fill="midnightblue" stroke="midnightblue" points="514.56,-304.03 525.15,-304.43 517.12,-297.51 514.56,-304.03"/>
</g>
<!-- Node6 -->
<g id="node6" class="node">
<title>Node6</title>
<g id="a_node6"><a xlink:href="../../d0/da0/classGeomSvc.html#adbe1473f9b3a8ff942da8d7d8ee28322" target="_top" xlink:title=" ">
<polygon fill="none" stroke="black" points="643.5,-342.5 643.5,-361.5 786.5,-361.5 786.5,-342.5 643.5,-342.5"/>
<text text-anchor="middle" x="715" y="-349.5" font-family="FreeSans" font-size="10.00">GeomSvc::initPlaneDbSvc</text>
</a>
</g>
</g>
<!-- Node5&#45;&gt;Node6 -->
<g id="edge5" class="edge">
<title>Node5&#45;&gt;Node6</title>
<path fill="none" stroke="midnightblue" d="M589.7,-323.53C602.21,-326.61 616.19,-330 629,-333 639.15,-335.38 650,-337.85 660.44,-340.2"/>
<polygon fill="midnightblue" stroke="midnightblue" points="659.76,-343.64 670.28,-342.41 661.29,-336.81 659.76,-343.64"/>
</g>
<!-- Node13 -->
<g id="node13" class="node">
<title>Node13</title>
<g id="a_node13"><a xlink:href="../../d8/d14/classrecoConsts.html#aea8535068aa74d8acf1f98e938a1ff85" target="_top" xlink:title=" ">
<polygon fill="none" stroke="black" points="869,-152.5 869,-171.5 987,-171.5 987,-152.5 869,-152.5"/>
<text text-anchor="middle" x="928" y="-159.5" font-family="FreeSans" font-size="10.00">recoConsts::instance</text>
</a>
</g>
</g>
<!-- Node5&#45;&gt;Node13 -->
<g id="edge38" class="edge">
<title>Node5&#45;&gt;Node13</title>
<path fill="none" stroke="midnightblue" d="M556.37,-304.31C566.78,-284.7 593.17,-240.37 629,-219 699.6,-176.89 794.87,-164.94 858.49,-162.03"/>
<polygon fill="midnightblue" stroke="midnightblue" points="858.96,-165.51 868.81,-161.62 858.68,-158.52 858.96,-165.51"/>
</g>
<!-- Node34 -->
<g id="node34" class="node">
<title>Node34</title>
<g id="a_node34"><a xlink:href="../../d0/da0/classGeomSvc.html#a0d550b9f787318d57cdae9db2d04d6fb" target="_top" xlink:title=" ">
<polygon fill="none" stroke="black" points="644.5,-304.5 644.5,-323.5 785.5,-323.5 785.5,-304.5 644.5,-304.5"/>
<text text-anchor="middle" x="715" y="-311.5" font-family="FreeSans" font-size="10.00">GeomSvc::initPlaneDirect</text>
</a>
</g>
</g>
<!-- Node5&#45;&gt;Node34 -->
<g id="edge36" class="edge">
<title>Node5&#45;&gt;Node34</title>
<path fill="none" stroke="midnightblue" d="M593.35,-314C605.83,-314 619.96,-314 634.03,-314"/>
<polygon fill="midnightblue" stroke="midnightblue" points="634.24,-317.5 644.24,-314 634.24,-310.5 634.24,-317.5"/>
</g>
<!-- Node35 -->
<g id="node35" class="node">
<title>Node35</title>
<g id="a_node35"><a xlink:href="../../d0/da0/classGeomSvc.html#a0c78d3ac904cfbb367e96c73f176630d" target="_top" xlink:title=" ">
<polygon fill="none" stroke="black" points="652,-266.5 652,-285.5 778,-285.5 778,-266.5 652,-266.5"/>
<text text-anchor="middle" x="715" y="-273.5" font-family="FreeSans" font-size="10.00">GeomSvc::initWireLUT</text>
</a>
</g>
</g>
<!-- Node5&#45;&gt;Node35 -->
<g id="edge37" class="edge">
<title>Node5&#45;&gt;Node35</title>
<path fill="none" stroke="midnightblue" d="M589.7,-304.47C602.21,-301.39 616.19,-298 629,-295 639.15,-292.62 650,-290.15 660.44,-287.8"/>
<polygon fill="midnightblue" stroke="midnightblue" points="661.29,-291.19 670.28,-285.59 659.76,-284.36 661.29,-291.19"/>
</g>
<!-- Node36 -->
<g id="node36" class="node">
<title>Node36</title>
<g id="a_node36"><a xlink:href="../../d0/da0/classGeomSvc.html#ab6c810e39b86ce66a4be6a596b4d54b8" target="_top" xlink:title=" ">
<polygon fill="none" stroke="black" points="645,-228.5 645,-247.5 785,-247.5 785,-228.5 645,-228.5"/>
<text text-anchor="middle" x="715" y="-235.5" font-family="FreeSans" font-size="10.00">GeomSvc::loadAlignment</text>
</a>
</g>
</g>
<!-- Node5&#45;&gt;Node36 -->
<g id="edge39" class="edge">
<title>Node5&#45;&gt;Node36</title>
<path fill="none" stroke="midnightblue" d="M561.64,-304.35C575.65,-291.55 602.24,-269.17 629,-257 634.47,-254.51 640.28,-252.34 646.21,-250.44"/>
<polygon fill="midnightblue" stroke="midnightblue" points="647.63,-253.67 656.24,-247.51 645.66,-246.96 647.63,-253.67"/>
</g>
<!-- Node37 -->
<g id="node37" class="node">
<title>Node37</title>
<g id="a_node37"><a xlink:href="../../d0/da0/classGeomSvc.html#abc60088ed5985a796f5df18ae4299661" target="_top" xlink:title=" ">
<polygon fill="none" stroke="black" points="643.5,-570.5 643.5,-589.5 786.5,-589.5 786.5,-570.5 643.5,-570.5"/>
<text text-anchor="middle" x="715" y="-577.5" font-family="FreeSans" font-size="10.00">GeomSvc::loadCalibration</text>
</a>
</g>
</g>
<!-- Node5&#45;&gt;Node37 -->
<g id="edge40" class="edge">
<title>Node5&#45;&gt;Node37</title>
<path fill="none" stroke="midnightblue" d="M552.93,-323.78C558.02,-355.61 577.73,-457.96 629,-523 643.52,-541.42 665.66,-556 683.71,-565.8"/>
<polygon fill="midnightblue" stroke="midnightblue" points="682.22,-568.97 692.71,-570.48 685.46,-562.76 682.22,-568.97"/>
</g>
<!-- Node39 -->
<g id="node39" class="node">
<title>Node39</title>
<g id="a_node39"><a xlink:href="../../d0/da0/classGeomSvc.html#a418543d7b33fc95092b2cd4a7496f1b8" target="_top" xlink:title=" ">
<polygon fill="none" stroke="black" points="846,-570.5 846,-589.5 1010,-589.5 1010,-570.5 846,-570.5"/>
<text text-anchor="middle" x="928" y="-577.5" font-family="FreeSans" font-size="10.00">GeomSvc::loadMilleAlignment</text>
</a>
</g>
</g>
<!-- Node5&#45;&gt;Node39 -->
<g id="edge42" class="edge">
<title>Node5&#45;&gt;Node39</title>
<path fill="none" stroke="midnightblue" d="M564.25,-323.67C579.5,-335.17 605.86,-354.84 629,-371 704.18,-423.52 740.95,-415.69 801,-485 825.47,-513.25 807.66,-537.84 837,-561 839.08,-562.64 841.28,-564.16 843.56,-565.54"/>
<polygon fill="midnightblue" stroke="midnightblue" points="842.24,-568.8 852.72,-570.31 845.46,-562.59 842.24,-568.8"/>
</g>
<!-- Node40 -->
<g id="node40" class="node">
<title>Node40</title>
<g id="a_node40"><a xlink:href="../../d0/da0/classGeomSvc.html#a6234a9e4de78f5667104d23c8828b79f" target="_top" xlink:title="Load parameters used in the online&#45;alignment mode.">
<polygon fill="none" stroke="black" points="629,-494.5 629,-513.5 801,-513.5 801,-494.5 629,-494.5"/>
<text text-anchor="middle" x="715" y="-501.5" font-family="FreeSans" font-size="10.00">GeomSvc::loadOnlineAlignment</text>
</a>
</g>
</g>
<!-- Node5&#45;&gt;Node40 -->
<g id="edge43" class="edge">
<title>Node5&#45;&gt;Node40</title>
<path fill="none" stroke="midnightblue" d="M555.65,-323.52C565.78,-345.99 593.52,-403.34 629,-442 646.35,-460.91 670.26,-477.74 688.31,-489.07"/>
<polygon fill="midnightblue" stroke="midnightblue" points="686.78,-492.25 697.14,-494.48 690.44,-486.28 686.78,-492.25"/>
</g>
<!-- Node7 -->
<g id="node7" class="node">
<title>Node7</title>
<g id="a_node7"><a xlink:href="../../d1/da8/classPHFlag.html#a30692a93daeb85f72aa55375d41d4d1a" target="_top" xlink:title=" ">
<polygon fill="none" stroke="black" points="877,-380.5 877,-399.5 979,-399.5 979,-380.5 877,-380.5"/>
<text text-anchor="middle" x="928" y="-387.5" font-family="FreeSans" font-size="10.00">PHFlag::FlagExist</text>
</a>
</g>
</g>
<!-- Node6&#45;&gt;Node7 -->
<g id="edge6" class="edge">
<title>Node6&#45;&gt;Node7</title>
<path fill="none" stroke="midnightblue" d="M768.97,-361.54C798.69,-366.89 835.88,-373.59 866.72,-379.14"/>
<polygon fill="midnightblue" stroke="midnightblue" points="866.45,-382.65 876.91,-380.98 867.69,-375.76 866.45,-382.65"/>
</g>
<!-- Node8 -->
<g id="node8" class="node">
<title>Node8</title>
<g id="a_node8"><a xlink:href="../../d1/da8/classPHFlag.html#a90dd6fab732973226112ede509be5743" target="_top" xlink:title=" ">
<polygon fill="none" stroke="black" points="867,-342.5 867,-361.5 989,-361.5 989,-342.5 867,-342.5"/>
<text text-anchor="middle" x="928" y="-349.5" font-family="FreeSans" font-size="10.00">PHFlag::get_CharFlag</text>
</a>
</g>
</g>
<!-- Node6&#45;&gt;Node8 -->
<g id="edge7" class="edge">
<title>Node6&#45;&gt;Node8</title>
<path fill="none" stroke="midnightblue" d="M786.55,-352C809.1,-352 834.04,-352 856.58,-352"/>
<polygon fill="midnightblue" stroke="midnightblue" points="856.74,-355.5 866.74,-352 856.74,-348.5 856.74,-355.5"/>
</g>
<!-- Node9 -->
<g id="node9" class="node">
<title>Node9</title>
<g id="a_node9"><a xlink:href="../../d1/da8/classPHFlag.html#a9002aa5e5ee1ef0e76d65201d6056adf" target="_top" xlink:title=" ">
<polygon fill="none" stroke="black" points="872,-304.5 872,-323.5 984,-323.5 984,-304.5 872,-304.5"/>
<text text-anchor="middle" x="928" y="-311.5" font-family="FreeSans" font-size="10.00">PHFlag::get_IntFlag</text>
</a>
</g>
</g>
<!-- Node6&#45;&gt;Node9 -->
<g id="edge8" class="edge">
<title>Node6&#45;&gt;Node9</title>
<path fill="none" stroke="midnightblue" d="M768.97,-342.46C797.82,-337.27 833.7,-330.8 863.97,-325.35"/>
<polygon fill="midnightblue" stroke="midnightblue" points="864.79,-328.76 874.01,-323.54 863.54,-321.87 864.79,-328.76"/>
</g>
<!-- Node10 -->
<g id="node10" class="node">
<title>Node10</title>
<g id="a_node10"><a xlink:href="../../db/d8a/classRunParamBase.html#ac014950f30700976f97c094cd54feb27" target="_top" xlink:title=" ">
<polygon fill="none" stroke="black" points="855.5,-266.5 855.5,-285.5 1000.5,-285.5 1000.5,-266.5 855.5,-266.5"/>
<text text-anchor="middle" x="928" y="-273.5" font-family="FreeSans" font-size="10.00">RunParamBase::GetMapID</text>
</a>
</g>
</g>
<!-- Node6&#45;&gt;Node10 -->
<g id="edge9" class="edge">
<title>Node6&#45;&gt;Node10</title>
<path fill="none" stroke="midnightblue" d="M778.88,-342.43C786.59,-339.97 794.16,-336.88 801,-333 821.23,-321.52 816.7,-306.36 837,-295 841.14,-292.68 845.52,-290.65 850.05,-288.86"/>
<polygon fill="midnightblue" stroke="midnightblue" points="851.23,-292.16 859.49,-285.53 848.9,-285.56 851.23,-292.16"/>
</g>
<!-- Node11 -->
<g id="node11" class="node">
<title>Node11</title>
<g id="a_node11"><a xlink:href="../../d1/d3b/classGeomParamPlane.html#a692de0076f1dbe125d7ba8cfc013b2bd" target="_top" xlink:title=" ">
<polygon fill="none" stroke="black" points="837,-228.5 837,-247.5 1019,-247.5 1019,-228.5 837,-228.5"/>
<text text-anchor="middle" x="928" y="-235.5" font-family="FreeSans" font-size="10.00">GeomParamPlane::GetNumPlanes</text>
</a>
</g>
</g>
<!-- Node6&#45;&gt;Node11 -->
<g id="edge10" class="edge">
<title>Node6&#45;&gt;Node11</title>
<path fill="none" stroke="midnightblue" d="M784.91,-342.5C790.68,-339.99 796.16,-336.87 801,-333 830.2,-309.67 807.66,-280.16 837,-257 839.08,-255.36 841.28,-253.84 843.56,-252.46"/>
<polygon fill="midnightblue" stroke="midnightblue" points="845.46,-255.41 852.72,-247.69 842.24,-249.2 845.46,-255.41"/>
</g>
<!-- Node12 -->
<g id="node12" class="node">
<title>Node12</title>
<g id="a_node12"><a xlink:href="../../d1/d3b/classGeomParamPlane.html#a8c176df7c57af3b0e4f35edee8ee0898" target="_top" xlink:title=" ">
<polygon fill="none" stroke="black" points="851,-190.5 851,-209.5 1005,-209.5 1005,-190.5 851,-190.5"/>
<text text-anchor="middle" x="928" y="-197.5" font-family="FreeSans" font-size="10.00">GeomParamPlane::GetPlane</text>
</a>
</g>
</g>
<!-- Node6&#45;&gt;Node12 -->
<g id="edge11" class="edge">
<title>Node6&#45;&gt;Node12</title>
<path fill="none" stroke="midnightblue" d="M786.73,-342.58C791.92,-340.03 796.77,-336.88 801,-333 840.15,-297.08 797.64,-254.69 837,-219 838.55,-217.59 840.18,-216.28 841.88,-215.05"/>
<polygon fill="midnightblue" stroke="midnightblue" points="844.09,-217.8 850.84,-209.64 840.48,-211.81 844.09,-217.8"/>
</g>
<!-- Node6&#45;&gt;Node13 -->
<g id="edge12" class="edge">
<title>Node6&#45;&gt;Node13</title>
<path fill="none" stroke="midnightblue" d="M786.64,-343.12C791.91,-340.47 796.8,-337.14 801,-333 850.4,-284.22 787.31,-229.49 837,-181 843.31,-174.84 851.09,-170.46 859.4,-167.36"/>
<polygon fill="midnightblue" stroke="midnightblue" points="860.45,-170.7 868.97,-164.4 858.38,-164.02 860.45,-170.7"/>
</g>
<!-- Node17 -->
<g id="node17" class="node">
<title>Node17</title>
<g id="a_node17"><a xlink:href="../../d8/d14/classrecoConsts.html#aec7c7c885b190f7dbb57ac99af4587e6" target="_top" xlink:title="overide the virtual function to expand the environmental variables">
<polygon fill="none" stroke="black" points="1264,-247.5 1264,-266.5 1404,-266.5 1404,-247.5 1264,-247.5"/>
<text text-anchor="middle" x="1334" y="-254.5" font-family="FreeSans" font-size="10.00">recoConsts::set_CharFlag</text>
</a>
</g>
</g>
<!-- Node6&#45;&gt;Node17 -->
<g id="edge26" class="edge">
<title>Node6&#45;&gt;Node17</title>
<path fill="none" stroke="midnightblue" d="M786.92,-360.58C791.83,-362.36 796.57,-364.48 801,-367 822.35,-379.18 814.66,-398.73 837,-409 910.49,-442.8 940.16,-427.08 1019,-409 1136.54,-382.05 1261.19,-305.07 1310.78,-272.19"/>
<polygon fill="midnightblue" stroke="midnightblue" points="1312.79,-275.06 1319.15,-266.59 1308.9,-269.24 1312.79,-275.06"/>
</g>
<!-- Node21 -->
<g id="node21" class="node">
<title>Node21</title>
<g id="a_node21"><a xlink:href="../../db/d8a/classRunParamBase.html#a1a747ac4d6e1c3665d66f9a1d5118f32" target="_top" xlink:title=" ">
<polygon fill="none" stroke="black" points="848,-532.5 848,-551.5 1008,-551.5 1008,-532.5 848,-532.5"/>
<text text-anchor="middle" x="928" y="-539.5" font-family="FreeSans" font-size="10.00">RunParamBase::ReadFromDB</text>
</a>
</g>
</g>
<!-- Node6&#45;&gt;Node21 -->
<g id="edge20" class="edge">
<title>Node6&#45;&gt;Node21</title>
<path fill="none" stroke="midnightblue" d="M735.63,-361.65C754.89,-372.07 783.79,-390.38 801,-414 831.05,-455.23 798.98,-488.98 837,-523 838.56,-524.4 840.2,-525.7 841.9,-526.92"/>
<polygon fill="midnightblue" stroke="midnightblue" points="840.52,-530.17 850.9,-532.3 844.11,-524.16 840.52,-530.17"/>
</g>
<!-- Node27 -->
<g id="node27" class="node">
<title>Node27</title>
<g id="a_node27"><a xlink:href="../../db/d8a/classRunParamBase.html#a0db5424bf8320bf32d14563a6ad8d28e" target="_top" xlink:title=" ">
<polygon fill="none" stroke="black" points="856.5,-456.5 856.5,-475.5 999.5,-475.5 999.5,-456.5 856.5,-456.5"/>
<text text-anchor="middle" x="928" y="-463.5" font-family="FreeSans" font-size="10.00">RunParamBase::SetMapID</text>
</a>
</g>
</g>
<!-- Node6&#45;&gt;Node27 -->
<g id="edge27" class="edge">
<title>Node6&#45;&gt;Node27</title>
<path fill="none" stroke="midnightblue" d="M729.34,-361.54C746.16,-373.61 775.91,-395.1 801,-414 817.19,-426.2 818.84,-432.99 837,-442 846.44,-446.69 856.91,-450.54 867.26,-453.69"/>
<polygon fill="midnightblue" stroke="midnightblue" points="866.55,-457.12 877.13,-456.49 868.46,-450.39 866.55,-457.12"/>
</g>
<!-- Node28 -->
<g id="node28" class="node">
<title>Node28</title>
<g id="a_node28"><a xlink:href="../../db/d8a/classRunParamBase.html#a9b35f11ddb755a62b5d25f7773e0f1ce" target="_top" xlink:title=" ">
<polygon fill="none" stroke="black" points="843,-494.5 843,-513.5 1013,-513.5 1013,-494.5 843,-494.5"/>
<text text-anchor="middle" x="928" y="-501.5" font-family="FreeSans" font-size="10.00">RunParamBase::SetMapIDbyDB</text>
</a>
</g>
</g>
<!-- Node6&#45;&gt;Node28 -->
<g id="edge28" class="edge">
<title>Node6&#45;&gt;Node28</title>
<path fill="none" stroke="midnightblue" d="M733.86,-361.62C752.52,-372.39 781.71,-391.32 801,-414 823.93,-440.95 808.94,-463.45 837,-485 839.32,-486.78 841.76,-488.4 844.3,-489.88"/>
<polygon fill="midnightblue" stroke="midnightblue" points="842.77,-493.02 853.28,-494.36 845.9,-486.76 842.77,-493.02"/>
</g>
<!-- Node6&#45;&gt;Node33 -->
<g id="edge35" class="edge">
<title>Node6&#45;&gt;Node33</title>
<path fill="none" stroke="midnightblue" d="M786.84,-343.32C792.07,-340.62 796.9,-337.24 801,-333 860.77,-271.24 776.86,-204.4 837,-143 838.27,-141.71 839.6,-140.49 840.99,-139.35"/>
<polygon fill="midnightblue" stroke="midnightblue" points="843.19,-142.08 849.5,-133.56 839.26,-136.29 843.19,-142.08"/>
</g>
<!-- Node14 -->
<g id="node14" class="node">
<title>Node14</title>
<g id="a_node14"><a xlink:href="../../d8/d14/classrecoConsts.html#ae882d6adc62f783ec78114fe3dee3c24" target="_top" xlink:title=" ">
<polygon fill="none" stroke="black" points="1076,-152.5 1076,-171.5 1207,-171.5 1207,-152.5 1076,-152.5"/>
<text text-anchor="middle" x="1141.5" y="-159.5" font-family="FreeSans" font-size="10.00">recoConsts::recoConsts</text>
</a>
</g>
</g>
<!-- Node13&#45;&gt;Node14 -->
<g id="edge13" class="edge">
<title>Node13&#45;&gt;Node14</title>
<path fill="none" stroke="midnightblue" d="M987.07,-162C1011.36,-162 1039.9,-162 1065.73,-162"/>
<polygon fill="midnightblue" stroke="midnightblue" points="1065.86,-165.5 1075.86,-162 1065.86,-158.5 1065.86,-165.5"/>
</g>
<!-- Node15 -->
<g id="node15" class="node">
<title>Node15</title>
<g id="a_node15"><a xlink:href="../../d8/d14/classrecoConsts.html#a864b1da9614924988d09542c268c42dc" target="_top" xlink:title="set the default value for all the constants needed &#45; user is supposed to add a default value here to ...">
<polygon fill="none" stroke="black" points="1073,-38.5 1073,-57.5 1210,-57.5 1210,-38.5 1073,-38.5"/>
<text text-anchor="middle" x="1141.5" y="-45.5" font-family="FreeSans" font-size="10.00">recoConsts::set_defaults</text>
</a>
</g>
</g>
<!-- Node13&#45;&gt;Node15 -->
<g id="edge14" class="edge">
<title>Node13&#45;&gt;Node15</title>
<path fill="none" stroke="midnightblue" d="M987.4,-153.73C998.19,-151.07 1009.16,-147.58 1019,-143 1061.37,-123.27 1102.45,-86.27 1124.3,-64.73"/>
<polygon fill="midnightblue" stroke="midnightblue" points="1126.87,-67.11 1131.45,-57.56 1121.91,-62.17 1126.87,-67.11"/>
</g>
<!-- Node16 -->
<g id="node16" class="node">
<title>Node16</title>
<g id="a_node16"><a xlink:href="../../d1/da8/classPHFlag.html#a5aaf1fedd8907f4b2b0c9535a4491f42" target="_top" xlink:title=" ">
<polygon fill="none" stroke="black" points="1274,-76.5 1274,-95.5 1394,-95.5 1394,-76.5 1274,-76.5"/>
<text text-anchor="middle" x="1334" y="-83.5" font-family="FreeSans" font-size="10.00">PHFlag::set_BoolFlag</text>
</a>
</g>
</g>
<!-- Node15&#45;&gt;Node16 -->
<g id="edge15" class="edge">
<title>Node15&#45;&gt;Node16</title>
<path fill="none" stroke="midnightblue" d="M1190.57,-57.59C1216.28,-62.72 1248.11,-69.07 1275.16,-74.46"/>
<polygon fill="midnightblue" stroke="midnightblue" points="1274.78,-77.96 1285.27,-76.48 1276.15,-71.09 1274.78,-77.96"/>
</g>
<!-- Node15&#45;&gt;Node17 -->
<g id="edge16" class="edge">
<title>Node15&#45;&gt;Node17</title>
<path fill="none" stroke="midnightblue" d="M1200.2,-57.52C1210.13,-60.96 1219.87,-65.63 1228,-72 1284.38,-116.13 1315.58,-199.51 1327.41,-237.39"/>
<polygon fill="midnightblue" stroke="midnightblue" points="1324.13,-238.63 1330.35,-247.2 1330.83,-236.61 1324.13,-238.63"/>
</g>
<!-- Node19 -->
<g id="node19" class="node">
<title>Node19</title>
<g id="a_node19"><a xlink:href="../../d1/da8/classPHFlag.html#a64f8c67e9313e5cecdbed51f747026da" target="_top" xlink:title=" ">
<polygon fill="none" stroke="black" points="1267.5,-38.5 1267.5,-57.5 1400.5,-57.5 1400.5,-38.5 1267.5,-38.5"/>
<text text-anchor="middle" x="1334" y="-45.5" font-family="FreeSans" font-size="10.00">PHFlag::set_DoubleFlag</text>
</a>
</g>
</g>
<!-- Node15&#45;&gt;Node19 -->
<g id="edge18" class="edge">
<title>Node15&#45;&gt;Node19</title>
<path fill="none" stroke="midnightblue" d="M1210.2,-48C1225.46,-48 1241.76,-48 1257.33,-48"/>
<polygon fill="midnightblue" stroke="midnightblue" points="1257.44,-51.5 1267.44,-48 1257.44,-44.5 1257.44,-51.5"/>
</g>
<!-- Node20 -->
<g id="node20" class="node">
<title>Node20</title>
<g id="a_node20"><a xlink:href="../../d1/da8/classPHFlag.html#a3ef5c3f1eff2daaaf18e5129858a9ef8" target="_top" xlink:title=" ">
<polygon fill="none" stroke="black" points="1278.5,-0.5 1278.5,-19.5 1389.5,-19.5 1389.5,-0.5 1278.5,-0.5"/>
<text text-anchor="middle" x="1334" y="-7.5" font-family="FreeSans" font-size="10.00">PHFlag::set_IntFlag</text>
</a>
</g>
</g>
<!-- Node15&#45;&gt;Node20 -->
<g id="edge19" class="edge">
<title>Node15&#45;&gt;Node20</title>
<path fill="none" stroke="midnightblue" d="M1190.57,-38.41C1216.28,-33.28 1248.11,-26.93 1275.16,-21.54"/>
<polygon fill="midnightblue" stroke="midnightblue" points="1276.15,-24.91 1285.27,-19.52 1274.78,-18.04 1276.15,-24.91"/>
</g>
<!-- Node18 -->
<g id="node18" class="node">
<title>Node18</title>
<g id="a_node18"><a xlink:href="../../d8/d14/classrecoConsts.html#ad45c452d9a71b5410c472614d72442ec" target="_top" xlink:title=" ">
<polygon fill="none" stroke="black" points="1440,-247.5 1440,-266.5 1629,-266.5 1629,-247.5 1440,-247.5"/>
<text text-anchor="middle" x="1534.5" y="-254.5" font-family="FreeSans" font-size="10.00">recoConsts::ExpandEnvironmentals</text>
</a>
</g>
</g>
<!-- Node17&#45;&gt;Node18 -->
<g id="edge17" class="edge">
<title>Node17&#45;&gt;Node18</title>
<path fill="none" stroke="midnightblue" d="M1404.15,-257C1412.43,-257 1421.02,-257 1429.66,-257"/>
<polygon fill="midnightblue" stroke="midnightblue" points="1429.81,-260.5 1439.81,-257 1429.81,-253.5 1429.81,-260.5"/>
</g>
<!-- Node22 -->
<g id="node22" class="node">
<title>Node22</title>
<g id="a_node22"><a xlink:href="../../d2/da4/classDbSvc.html#af7e30673551b9cbc6d0ad9e37e4ec35b" target="_top" xlink:title=" ">
<polygon fill="none" stroke="black" points="1285,-617.5 1285,-636.5 1383,-636.5 1383,-617.5 1285,-617.5"/>
<text text-anchor="middle" x="1334" y="-624.5" font-family="FreeSans" font-size="10.00">DbSvc::HasTable</text>
</a>
</g>
</g>
<!-- Node21&#45;&gt;Node22 -->
<g id="edge21" class="edge">
<title>Node21&#45;&gt;Node22</title>
<path fill="none" stroke="midnightblue" d="M1001.56,-551.61C1007.76,-554.1 1013.68,-557.18 1019,-561 1044.57,-579.36 1027.8,-606.15 1055,-622 1127.58,-664.31 1229.97,-651.4 1288.09,-638.8"/>
<polygon fill="midnightblue" stroke="midnightblue" points="1289.08,-642.16 1298.06,-636.54 1287.54,-635.34 1289.08,-642.16"/>
</g>
<!-- Node21&#45;&gt;Node23 -->
<g id="edge22" class="edge">
<title>Node21&#45;&gt;Node23</title>
<path fill="none" stroke="midnightblue" d="M1005.1,-551.7C1010.13,-554.21 1014.83,-557.27 1019,-561 1057.02,-595.02 1018.12,-634.75 1055,-670 1059.11,-673.93 1063.81,-677.22 1068.84,-679.98"/>
<polygon fill="midnightblue" stroke="midnightblue" points="1067.68,-683.3 1078.21,-684.4 1070.66,-676.97 1067.68,-683.3"/>
</g>
<!-- Node24 -->
<g id="node24" class="node">
<title>Node24</title>
<g id="a_node24"><a xlink:href="../../db/d8a/classRunParamBase.html#abad1d51250d48280d4a72a64d6f57866" target="_top" xlink:title=" ">
<polygon fill="none" stroke="black" points="1061.5,-570.5 1061.5,-589.5 1221.5,-589.5 1221.5,-570.5 1061.5,-570.5"/>
<text text-anchor="middle" x="1141.5" y="-577.5" font-family="FreeSans" font-size="10.00">RunParamBase::ReadDbTable</text>
</a>
</g>
</g>
<!-- Node21&#45;&gt;Node24 -->
<g id="edge23" class="edge">
<title>Node21&#45;&gt;Node24</title>
<path fill="none" stroke="midnightblue" d="M982.1,-551.54C1011.01,-556.73 1046.97,-563.2 1077.32,-568.65"/>
<polygon fill="midnightblue" stroke="midnightblue" points="1076.92,-572.13 1087.38,-570.46 1078.16,-565.24 1076.92,-572.13"/>
</g>
<!-- Node25 -->
<g id="node25" class="node">
<title>Node25</title>
<g id="a_node25"><a xlink:href="../../db/d8a/classRunParamBase.html#aa5d08eb3156c795dd3d09085a90d8629" target="_top" xlink:title=" ">
<polygon fill="none" stroke="black" points="1059.5,-532.5 1059.5,-551.5 1223.5,-551.5 1223.5,-532.5 1059.5,-532.5"/>
<text text-anchor="middle" x="1141.5" y="-539.5" font-family="FreeSans" font-size="10.00">RunParamBase::SchemaName</text>
</a>
</g>
</g>
<!-- Node21&#45;&gt;Node25 -->
<g id="edge24" class="edge">
<title>Node21&#45;&gt;Node25</title>
<path fill="none" stroke="midnightblue" d="M1008.06,-542C1021.43,-542 1035.41,-542 1049.06,-542"/>
<polygon fill="midnightblue" stroke="midnightblue" points="1049.42,-545.5 1059.42,-542 1049.42,-538.5 1049.42,-545.5"/>
</g>
<!-- Node26 -->
<g id="node26" class="node">
<title>Node26</title>
<g id="a_node26"><a xlink:href="../../d2/da4/classDbSvc.html#a7e4cc05e20e0a21eef9c185c34c51044" target="_top" xlink:title=" ">
<polygon fill="none" stroke="black" points="1278.5,-522.5 1278.5,-541.5 1389.5,-541.5 1389.5,-522.5 1278.5,-522.5"/>
<text text-anchor="middle" x="1334" y="-529.5" font-family="FreeSans" font-size="10.00">DbSvc::UseSchema</text>
</a>
</g>
</g>
<!-- Node21&#45;&gt;Node26 -->
<g id="edge25" class="edge">
<title>Node21&#45;&gt;Node26</title>
<path fill="none" stroke="midnightblue" d="M996.51,-551.53C1004.35,-554 1012.03,-557.1 1019,-561 1039.3,-572.36 1033.63,-589.81 1055,-599 1125.63,-629.38 1154.19,-620.54 1228,-599 1261.81,-589.13 1295.11,-564.69 1314.85,-548.22"/>
<polygon fill="midnightblue" stroke="midnightblue" points="1317.37,-550.67 1322.69,-541.51 1312.82,-545.36 1317.37,-550.67"/>
</g>
<!-- Node29 -->
<g id="node29" class="node">
<title>Node29</title>
<g id="a_node29"><a xlink:href="../../d0/d0d/classParamRunRange.html#a6a2dad9dc6c5fe19ef4e07109f2de6c6" target="_top" xlink:title=" ">
<polygon fill="none" stroke="black" points="1080,-456.5 1080,-475.5 1203,-475.5 1203,-456.5 1080,-456.5"/>
<text text-anchor="middle" x="1141.5" y="-463.5" font-family="FreeSans" font-size="10.00">ParamRunRange::Find</text>
</a>
</g>
</g>
<!-- Node28&#45;&gt;Node29 -->
<g id="edge29" class="edge">
<title>Node28&#45;&gt;Node29</title>
<path fill="none" stroke="midnightblue" d="M982.1,-494.46C1011.01,-489.27 1046.97,-482.8 1077.32,-477.35"/>
<polygon fill="midnightblue" stroke="midnightblue" points="1078.16,-480.76 1087.38,-475.54 1076.92,-473.87 1078.16,-480.76"/>
</g>
<!-- Node30 -->
<g id="node30" class="node">
<title>Node30</title>
<g id="a_node30"><a xlink:href="../../db/d8a/classRunParamBase.html#aebc390d29c3083e39a226cce4293ac63" target="_top" xlink:title=" ">
<polygon fill="none" stroke="black" points="1055,-418.5 1055,-437.5 1228,-437.5 1228,-418.5 1055,-418.5"/>
<text text-anchor="middle" x="1141.5" y="-425.5" font-family="FreeSans" font-size="10.00">RunParamBase::RangeFileName</text>
</a>
</g>
</g>
<!-- Node28&#45;&gt;Node30 -->
<g id="edge30" class="edge">
<title>Node28&#45;&gt;Node30</title>
<path fill="none" stroke="midnightblue" d="M996.51,-494.47C1004.35,-492 1012.03,-488.9 1019,-485 1039.3,-473.64 1034.76,-458.47 1055,-447 1058.98,-444.75 1063.2,-442.76 1067.55,-441.01"/>
<polygon fill="midnightblue" stroke="midnightblue" points="1069.02,-444.2 1077.26,-437.54 1066.66,-437.61 1069.02,-444.2"/>
</g>
<!-- Node31 -->
<g id="node31" class="node">
<title>Node31</title>
<g id="a_node31"><a xlink:href="../../d0/d0d/classParamRunRange.html#a2ed6cb68949441b6a3a929fddd6c3910" target="_top" xlink:title=" ">
<polygon fill="none" stroke="black" points="1058,-494.5 1058,-513.5 1225,-513.5 1225,-494.5 1058,-494.5"/>
<text text-anchor="middle" x="1141.5" y="-501.5" font-family="FreeSans" font-size="10.00">ParamRunRange::ReadFromDB</text>
</a>
</g>
</g>
<!-- Node28&#45;&gt;Node31 -->
<g id="edge31" class="edge">
<title>Node28&#45;&gt;Node31</title>
<path fill="none" stroke="midnightblue" d="M1013.2,-504C1024.6,-504 1036.36,-504 1047.9,-504"/>
<polygon fill="midnightblue" stroke="midnightblue" points="1047.97,-507.5 1057.97,-504 1047.97,-500.5 1047.97,-507.5"/>
</g>
<!-- Node31&#45;&gt;Node22 -->
<g id="edge32" class="edge">
<title>Node31&#45;&gt;Node22</title>
<path fill="none" stroke="midnightblue" d="M1205.18,-513.61C1213.12,-516.06 1220.93,-519.14 1228,-523 1248.73,-534.31 1293.94,-583.13 1317.7,-609.67"/>
<polygon fill="midnightblue" stroke="midnightblue" points="1315.34,-612.28 1324.61,-617.42 1320.57,-607.63 1315.34,-612.28"/>
</g>
<!-- Node31&#45;&gt;Node26 -->
<g id="edge34" class="edge">
<title>Node31&#45;&gt;Node26</title>
<path fill="none" stroke="midnightblue" d="M1207.26,-513.52C1226.92,-516.41 1248.51,-519.58 1268.17,-522.47"/>
<polygon fill="midnightblue" stroke="midnightblue" points="1267.85,-525.96 1278.26,-523.95 1268.87,-519.04 1267.85,-525.96"/>
</g>
<!-- Node31&#45;&gt;Node32 -->
<g id="edge33" class="edge">
<title>Node31&#45;&gt;Node32</title>
<path fill="none" stroke="midnightblue" d="M1200.57,-494.46C1209.95,-491.97 1219.4,-488.87 1228,-485 1261.76,-469.82 1295.49,-442.77 1315.29,-425.37"/>
<polygon fill="midnightblue" stroke="midnightblue" points="1317.77,-427.85 1322.88,-418.57 1313.09,-422.63 1317.77,-427.85"/>
</g>
<!-- Node38 -->
<g id="node38" class="node">
<title>Node38</title>
<g id="a_node38"><a xlink:href="../../d0/da0/classGeomSvc.html#ac4edd9b5679db2ac9b6f6bea59929447" target="_top" xlink:title=" ">
<polygon fill="none" stroke="black" points="850,-608.5 850,-627.5 1006,-627.5 1006,-608.5 850,-608.5"/>
<text text-anchor="middle" x="928" y="-615.5" font-family="FreeSans" font-size="10.00">GeomSvc::getDetectorName</text>
</a>
</g>
</g>
<!-- Node37&#45;&gt;Node38 -->
<g id="edge41" class="edge">
<title>Node37&#45;&gt;Node38</title>
<path fill="none" stroke="midnightblue" d="M768.97,-589.54C797.82,-594.73 833.7,-601.2 863.97,-606.65"/>
<polygon fill="midnightblue" stroke="midnightblue" points="863.54,-610.13 874.01,-608.46 864.79,-603.24 863.54,-610.13"/>
</g>
<!-- Node40&#45;&gt;Node39 -->
<g id="edge44" class="edge">
<title>Node40&#45;&gt;Node39</title>
<path fill="none" stroke="midnightblue" d="M733.11,-513.62C756.08,-526.17 798.48,-548.06 837,-561 844.94,-563.67 853.41,-566.04 861.85,-568.13"/>
<polygon fill="midnightblue" stroke="midnightblue" points="861.19,-571.57 871.72,-570.45 862.79,-564.75 861.19,-571.57"/>
</g>
</g>
</svg>
