<?xml version="1.0" encoding="UTF-8" standalone="no"?>
<!DOCTYPE svg PUBLIC "-//W3C//DTD SVG 1.1//EN"
 "http://www.w3.org/Graphics/SVG/1.1/DTD/svg11.dtd">
<!-- Generated by graphviz version 2.36.0 (20140111.2315)
 -->
<!-- Title: PHFieldConfig::get_magfield_rescale1 Pages: 1 -->
<svg width="362pt" height="38pt"
 viewBox="0.00 0.00 362.00 38.00" xmlns="http://www.w3.org/2000/svg" xmlns:xlink="http://www.w3.org/1999/xlink">
<g id="graph0" class="graph" transform="scale(1 1) rotate(0) translate(4 34)">
<title>PHFieldConfig::get_magfield_rescale1</title>
<!-- Node1 -->
<g id="node1" class="node"><title>Node1</title>
<polygon fill="#bfbfbf" stroke="black" points="0,-0 0,-30 100,-30 100,-0 0,-0"/>
<text text-anchor="start" x="8" y="-18" font-family="FreeSans" font-size="10.00">PHFieldConfig::get</text>
<text text-anchor="middle" x="50" y="-7" font-family="FreeSans" font-size="10.00">_magfield_rescale1</text>
</g>
<!-- Node2 -->
<g id="node2" class="node"><title>Node2</title>
<g id="a_node2"><a xlink:href="../../df/d4d/classPHFieldUtility.html#af731a02ce323b6a94e98279f2b93c124" target="_top" xlink:title="Build or build field map with a configuration object. ">
<polygon fill="none" stroke="black" points="136.5,-5.5 136.5,-24.5 279.5,-24.5 279.5,-5.5 136.5,-5.5"/>
<text text-anchor="middle" x="208" y="-12.5" font-family="FreeSans" font-size="10.00">PHFieldUtility::BuildFieldMap</text>
</a>
</g>
</g>
<!-- Node1&#45;&gt;Node2 -->
<g id="edge1" class="edge"><title>Node1&#45;&gt;Node2</title>
<path fill="none" stroke="midnightblue" d="M110.478,-15C118.921,-15 127.672,-15 136.303,-15"/>
<polygon fill="midnightblue" stroke="midnightblue" points="110.359,-11.5001 100.359,-15 110.359,-18.5001 110.359,-11.5001"/>
</g>
<!-- Node3 -->
<g id="node3" class="node"><title>Node3</title>
<g id="a_node3"><a xlink:href="../../d2/d38/minimumTestPHGenFit_8cc.html#a3c04138a5bfe5d72780bb7e82a18e627" target="_top" xlink:title="main">
<polygon fill="none" stroke="black" points="316,-5.5 316,-24.5 354,-24.5 354,-5.5 316,-5.5"/>
<text text-anchor="middle" x="335" y="-12.5" font-family="FreeSans" font-size="10.00">main</text>
</a>
</g>
</g>
<!-- Node2&#45;&gt;Node3 -->
<g id="edge2" class="edge"><title>Node2&#45;&gt;Node3</title>
<path fill="none" stroke="midnightblue" d="M289.842,-15C299.548,-15 308.607,-15 315.962,-15"/>
<polygon fill="midnightblue" stroke="midnightblue" points="289.537,-11.5001 279.537,-15 289.537,-18.5001 289.537,-11.5001"/>
</g>
</g>
</svg>
