<?xml version="1.0" encoding="UTF-8" standalone="no"?>
<!DOCTYPE svg PUBLIC "-//W3C//DTD SVG 1.1//EN"
 "http://www.w3.org/Graphics/SVG/1.1/DTD/svg11.dtd">
<!-- Generated by graphviz version 2.30.1 (20180413.0232)
 -->
<!-- Title: /dev/shm/kenichi/update&#45;github&#45;e1039&#45;doc/e1039&#45;core/simulation/g4main/PHG4VtxPoint.h Pages: 1 -->
<svg width="2587pt" height="242pt"
 viewBox="0.00 0.00 2587.00 242.00" xmlns="http://www.w3.org/2000/svg" xmlns:xlink="http://www.w3.org/1999/xlink">
<g id="graph0" class="graph" transform="scale(1 1) rotate(0) translate(4 238)">
<title>/dev/shm/kenichi/update&#45;github&#45;e1039&#45;doc/e1039&#45;core/simulation/g4main/PHG4VtxPoint.h</title>
<!-- Node1 -->
<g id="node1" class="node"><title>Node1</title>
<polygon fill="#bfbfbf" stroke="black" points="1222.5,-181 1222.5,-233 1345.5,-233 1345.5,-181 1222.5,-181"/>
<text text-anchor="start" x="1230.5" y="-221" font-family="FreeSans" font-size="10.00">/dev/shm/kenichi/update</text>
<text text-anchor="start" x="1230.5" y="-210" font-family="FreeSans" font-size="10.00">&#45;github&#45;e1039&#45;doc/e1039</text>
<text text-anchor="start" x="1230.5" y="-199" font-family="FreeSans" font-size="10.00">&#45;core/simulation/g4main</text>
<text text-anchor="middle" x="1284" y="-188" font-family="FreeSans" font-size="10.00">/PHG4VtxPoint.h</text>
</g>
<!-- Node2 -->
<g id="node2" class="node"><title>Node2</title>
<g id="a_node2"><a xlink:href="../../d5/d5f/SQPrimaryParticleGen_8C.html" target="_top" xlink:title="/dev/shm/kenichi/update\l&#45;github&#45;e1039&#45;doc/e1039\l&#45;core/generators/E906LegacyGen\l/SQPrimaryParticleGen.C">
<polygon fill="none" stroke="black" points="0,-91 0,-143 160,-143 160,-91 0,-91"/>
<text text-anchor="start" x="8" y="-131" font-family="FreeSans" font-size="10.00">/dev/shm/kenichi/update</text>
<text text-anchor="start" x="8" y="-120" font-family="FreeSans" font-size="10.00">&#45;github&#45;e1039&#45;doc/e1039</text>
<text text-anchor="start" x="8" y="-109" font-family="FreeSans" font-size="10.00">&#45;core/generators/E906LegacyGen</text>
<text text-anchor="middle" x="80" y="-98" font-family="FreeSans" font-size="10.00">/SQPrimaryParticleGen.C</text>
</a>
</g>
</g>
<!-- Node1&#45;&gt;Node2 -->
<g id="edge1" class="edge"><title>Node1&#45;&gt;Node2</title>
<path fill="none" stroke="midnightblue" d="M1212.02,-204.116C998.598,-198.193 371.624,-178.281 170,-144 166.793,-143.455 163.538,-142.836 160.262,-142.159"/>
<polygon fill="midnightblue" stroke="midnightblue" points="1212.07,-207.618 1222.17,-204.395 1212.27,-200.621 1212.07,-207.618"/>
</g>
<!-- Node3 -->
<g id="node3" class="node"><title>Node3</title>
<g id="a_node3"><a xlink:href="../../d0/d82/RndmEmbed_8cxx.html" target="_top" xlink:title="/dev/shm/kenichi/update\l&#45;github&#45;e1039&#45;doc/e1039\l&#45;core/packages/embedding\l/RndmEmbed.cxx">
<polygon fill="none" stroke="black" points="178.5,-91 178.5,-143 311.5,-143 311.5,-91 178.5,-91"/>
<text text-anchor="start" x="186.5" y="-131" font-family="FreeSans" font-size="10.00">/dev/shm/kenichi/update</text>
<text text-anchor="start" x="186.5" y="-120" font-family="FreeSans" font-size="10.00">&#45;github&#45;e1039&#45;doc/e1039</text>
<text text-anchor="start" x="186.5" y="-109" font-family="FreeSans" font-size="10.00">&#45;core/packages/embedding</text>
<text text-anchor="middle" x="245" y="-98" font-family="FreeSans" font-size="10.00">/RndmEmbed.cxx</text>
</a>
</g>
</g>
<!-- Node1&#45;&gt;Node3 -->
<g id="edge2" class="edge"><title>Node1&#45;&gt;Node3</title>
<path fill="none" stroke="midnightblue" d="M1212.2,-203.844C1019.07,-197.651 491.587,-178.04 321,-144 317.991,-143.4 314.939,-142.71 311.871,-141.952"/>
<polygon fill="midnightblue" stroke="midnightblue" points="1212.14,-207.344 1222.24,-204.164 1212.36,-200.347 1212.14,-207.344"/>
</g>
<!-- Node4 -->
<g id="node4" class="node"><title>Node4</title>
<g id="a_node4"><a xlink:href="../../d7/d67/SRawEventEmbed_8cxx.html" target="_top" xlink:title="/dev/shm/kenichi/update\l&#45;github&#45;e1039&#45;doc/e1039\l&#45;core/packages/embedding\l/SRawEventEmbed.cxx">
<polygon fill="none" stroke="black" points="329.5,-91 329.5,-143 462.5,-143 462.5,-91 329.5,-91"/>
<text text-anchor="start" x="337.5" y="-131" font-family="FreeSans" font-size="10.00">/dev/shm/kenichi/update</text>
<text text-anchor="start" x="337.5" y="-120" font-family="FreeSans" font-size="10.00">&#45;github&#45;e1039&#45;doc/e1039</text>
<text text-anchor="start" x="337.5" y="-109" font-family="FreeSans" font-size="10.00">&#45;core/packages/embedding</text>
<text text-anchor="middle" x="396" y="-98" font-family="FreeSans" font-size="10.00">/SRawEventEmbed.cxx</text>
</a>
</g>
</g>
<!-- Node1&#45;&gt;Node4 -->
<g id="edge3" class="edge"><title>Node1&#45;&gt;Node4</title>
<path fill="none" stroke="midnightblue" d="M1212.04,-206.579C1069.34,-206.398 741.02,-199.35 472,-144 468.995,-143.382 465.945,-142.678 462.881,-141.907"/>
<polygon fill="midnightblue" stroke="midnightblue" points="1212.4,-210.079 1222.4,-206.58 1212.4,-203.079 1212.4,-210.079"/>
</g>
<!-- Node5 -->
<g id="node5" class="node"><title>Node5</title>
<g id="a_node5"><a xlink:href="../../d4/da7/PatternDBGen_8cxx.html" target="_top" xlink:title="/dev/shm/kenichi/update\l&#45;github&#45;e1039&#45;doc/e1039\l&#45;core/packages/reco/patterndb\l/PatternDBGen.cxx">
<polygon fill="none" stroke="black" points="481,-91 481,-143 629,-143 629,-91 481,-91"/>
<text text-anchor="start" x="489" y="-131" font-family="FreeSans" font-size="10.00">/dev/shm/kenichi/update</text>
<text text-anchor="start" x="489" y="-120" font-family="FreeSans" font-size="10.00">&#45;github&#45;e1039&#45;doc/e1039</text>
<text text-anchor="start" x="489" y="-109" font-family="FreeSans" font-size="10.00">&#45;core/packages/reco/patterndb</text>
<text text-anchor="middle" x="555" y="-98" font-family="FreeSans" font-size="10.00">/PatternDBGen.cxx</text>
</a>
</g>
</g>
<!-- Node1&#45;&gt;Node5 -->
<g id="edge4" class="edge"><title>Node1&#45;&gt;Node5</title>
<path fill="none" stroke="midnightblue" d="M1212.33,-203.884C1092.53,-199.287 844.506,-185.23 639,-144 635.857,-143.369 632.664,-142.667 629.451,-141.91"/>
<polygon fill="midnightblue" stroke="midnightblue" points="1212.35,-207.387 1222.47,-204.263 1212.61,-200.392 1212.35,-207.387"/>
</g>
<!-- Node6 -->
<g id="node6" class="node"><title>Node6</title>
<g id="a_node6"><a xlink:href="../../df/da0/TruthNodeMaker_8cc.html" target="_top" xlink:title="/dev/shm/kenichi/update\l&#45;github&#45;e1039&#45;doc/e1039\l&#45;core/simulation/g4dst/TruthNode\lMaker.cc">
<polygon fill="none" stroke="black" points="647.5,-91 647.5,-143 806.5,-143 806.5,-91 647.5,-91"/>
<text text-anchor="start" x="655.5" y="-131" font-family="FreeSans" font-size="10.00">/dev/shm/kenichi/update</text>
<text text-anchor="start" x="655.5" y="-120" font-family="FreeSans" font-size="10.00">&#45;github&#45;e1039&#45;doc/e1039</text>
<text text-anchor="start" x="655.5" y="-109" font-family="FreeSans" font-size="10.00">&#45;core/simulation/g4dst/TruthNode</text>
<text text-anchor="middle" x="727" y="-98" font-family="FreeSans" font-size="10.00">Maker.cc</text>
</a>
</g>
</g>
<!-- Node1&#45;&gt;Node6 -->
<g id="edge5" class="edge"><title>Node1&#45;&gt;Node6</title>
<path fill="none" stroke="midnightblue" d="M1212.09,-199.909C1119.71,-191.301 954.747,-173.278 816,-144 813.007,-143.369 809.969,-142.688 806.907,-141.968"/>
<polygon fill="midnightblue" stroke="midnightblue" points="1211.89,-203.405 1222.17,-200.837 1212.53,-196.434 1211.89,-203.405"/>
</g>
<!-- Node7 -->
<g id="node7" class="node"><title>Node7</title>
<g id="a_node7"><a xlink:href="../../db/d72/PHG4VtxPointv1_8h.html" target="_top" xlink:title="/dev/shm/kenichi/update\l&#45;github&#45;e1039&#45;doc/e1039\l&#45;core/simulation/g4main\l/PHG4VtxPointv1.h">
<polygon fill="none" stroke="black" points="824.5,-91 824.5,-143 947.5,-143 947.5,-91 824.5,-91"/>
<text text-anchor="start" x="832.5" y="-131" font-family="FreeSans" font-size="10.00">/dev/shm/kenichi/update</text>
<text text-anchor="start" x="832.5" y="-120" font-family="FreeSans" font-size="10.00">&#45;github&#45;e1039&#45;doc/e1039</text>
<text text-anchor="start" x="832.5" y="-109" font-family="FreeSans" font-size="10.00">&#45;core/simulation/g4main</text>
<text text-anchor="middle" x="886" y="-98" font-family="FreeSans" font-size="10.00">/PHG4VtxPointv1.h</text>
</a>
</g>
</g>
<!-- Node1&#45;&gt;Node7 -->
<g id="edge6" class="edge"><title>Node1&#45;&gt;Node7</title>
<path fill="none" stroke="midnightblue" d="M1212.45,-195.889C1145.68,-185.643 1043.62,-167.9 957,-144 953.963,-143.162 950.871,-142.253 947.762,-141.293"/>
<polygon fill="midnightblue" stroke="midnightblue" points="1212.03,-199.366 1222.44,-197.407 1213.08,-192.445 1212.03,-199.366"/>
</g>
<!-- Node15 -->
<g id="node15" class="node"><title>Node15</title>
<g id="a_node15"><a xlink:href="../../d1/d2d/PHG4InEventCompress_8cc.html" target="_top" xlink:title="/dev/shm/kenichi/update\l&#45;github&#45;e1039&#45;doc/e1039\l&#45;core/simulation/g4main\l/PHG4InEventCompress.cc">
<polygon fill="none" stroke="black" points="966,-91 966,-143 1100,-143 1100,-91 966,-91"/>
<text text-anchor="start" x="974" y="-131" font-family="FreeSans" font-size="10.00">/dev/shm/kenichi/update</text>
<text text-anchor="start" x="974" y="-120" font-family="FreeSans" font-size="10.00">&#45;github&#45;e1039&#45;doc/e1039</text>
<text text-anchor="start" x="974" y="-109" font-family="FreeSans" font-size="10.00">&#45;core/simulation/g4main</text>
<text text-anchor="middle" x="1033" y="-98" font-family="FreeSans" font-size="10.00">/PHG4InEventCompress.cc</text>
</a>
</g>
</g>
<!-- Node1&#45;&gt;Node15 -->
<g id="edge14" class="edge"><title>Node1&#45;&gt;Node15</title>
<path fill="none" stroke="midnightblue" d="M1212.52,-180.94C1177.24,-168.569 1134.91,-153.728 1100.22,-141.565"/>
<polygon fill="midnightblue" stroke="midnightblue" points="1211.68,-184.354 1222.28,-184.36 1214,-177.749 1211.68,-184.354"/>
</g>
<!-- Node16 -->
<g id="node16" class="node"><title>Node16</title>
<g id="a_node16"><a xlink:href="../../d4/d94/PHG4ParticleGeneratorBase_8cc.html" target="_top" xlink:title="/dev/shm/kenichi/update\l&#45;github&#45;e1039&#45;doc/e1039\l&#45;core/simulation/g4main\l/PHG4ParticleGeneratorBase.cc">
<polygon fill="none" stroke="black" points="1118,-91 1118,-143 1274,-143 1274,-91 1118,-91"/>
<text text-anchor="start" x="1126" y="-131" font-family="FreeSans" font-size="10.00">/dev/shm/kenichi/update</text>
<text text-anchor="start" x="1126" y="-120" font-family="FreeSans" font-size="10.00">&#45;github&#45;e1039&#45;doc/e1039</text>
<text text-anchor="start" x="1126" y="-109" font-family="FreeSans" font-size="10.00">&#45;core/simulation/g4main</text>
<text text-anchor="middle" x="1196" y="-98" font-family="FreeSans" font-size="10.00">/PHG4ParticleGeneratorBase.cc</text>
</a>
</g>
</g>
<!-- Node1&#45;&gt;Node16 -->
<g id="edge15" class="edge"><title>Node1&#45;&gt;Node16</title>
<path fill="none" stroke="midnightblue" d="M1251.43,-173.431C1241.41,-163.407 1230.53,-152.533 1221.09,-143.092"/>
<polygon fill="midnightblue" stroke="midnightblue" points="1249,-175.951 1258.55,-180.547 1253.95,-171.001 1249,-175.951"/>
</g>
<!-- Node17 -->
<g id="node17" class="node"><title>Node17</title>
<g id="a_node17"><a xlink:href="../../d6/de5/PHG4PrimaryGeneratorAction_8cc.html" target="_top" xlink:title="/dev/shm/kenichi/update\l&#45;github&#45;e1039&#45;doc/e1039\l&#45;core/simulation/g4main\l/PHG4PrimaryGeneratorAction.cc">
<polygon fill="none" stroke="black" points="1292,-91 1292,-143 1454,-143 1454,-91 1292,-91"/>
<text text-anchor="start" x="1300" y="-131" font-family="FreeSans" font-size="10.00">/dev/shm/kenichi/update</text>
<text text-anchor="start" x="1300" y="-120" font-family="FreeSans" font-size="10.00">&#45;github&#45;e1039&#45;doc/e1039</text>
<text text-anchor="start" x="1300" y="-109" font-family="FreeSans" font-size="10.00">&#45;core/simulation/g4main</text>
<text text-anchor="middle" x="1373" y="-98" font-family="FreeSans" font-size="10.00">/PHG4PrimaryGeneratorAction.cc</text>
</a>
</g>
</g>
<!-- Node1&#45;&gt;Node17 -->
<g id="edge16" class="edge"><title>Node1&#45;&gt;Node17</title>
<path fill="none" stroke="midnightblue" d="M1316.94,-173.431C1327.08,-163.407 1338.08,-152.533 1347.62,-143.092"/>
<polygon fill="midnightblue" stroke="midnightblue" points="1314.39,-171.027 1309.74,-180.547 1319.31,-176.005 1314.39,-171.027"/>
</g>
<!-- Node18 -->
<g id="node18" class="node"><title>Node18</title>
<g id="a_node18"><a xlink:href="../../d7/d6c/PHG4PSScanGenerator_8cc.html" target="_top" xlink:title="/dev/shm/kenichi/update\l&#45;github&#45;e1039&#45;doc/e1039\l&#45;core/simulation/g4main\l/PHG4PSScanGenerator.cc">
<polygon fill="none" stroke="black" points="1472.5,-91 1472.5,-143 1609.5,-143 1609.5,-91 1472.5,-91"/>
<text text-anchor="start" x="1480.5" y="-131" font-family="FreeSans" font-size="10.00">/dev/shm/kenichi/update</text>
<text text-anchor="start" x="1480.5" y="-120" font-family="FreeSans" font-size="10.00">&#45;github&#45;e1039&#45;doc/e1039</text>
<text text-anchor="start" x="1480.5" y="-109" font-family="FreeSans" font-size="10.00">&#45;core/simulation/g4main</text>
<text text-anchor="middle" x="1541" y="-98" font-family="FreeSans" font-size="10.00">/PHG4PSScanGenerator.cc</text>
</a>
</g>
</g>
<!-- Node1&#45;&gt;Node18 -->
<g id="edge17" class="edge"><title>Node1&#45;&gt;Node18</title>
<path fill="none" stroke="midnightblue" d="M1355.16,-181.634C1391.71,-169.118 1436.05,-153.936 1472.25,-141.54"/>
<polygon fill="midnightblue" stroke="midnightblue" points="1353.88,-178.371 1345.56,-184.922 1356.15,-184.994 1353.88,-178.371"/>
</g>
<!-- Node19 -->
<g id="node19" class="node"><title>Node19</title>
<g id="a_node19"><a xlink:href="../../d3/d3e/PHG4SimpleEventGenerator_8cc.html" target="_top" xlink:title="/dev/shm/kenichi/update\l&#45;github&#45;e1039&#45;doc/e1039\l&#45;core/simulation/g4main\l/PHG4SimpleEventGenerator.cc">
<polygon fill="none" stroke="black" points="1627.5,-91 1627.5,-143 1782.5,-143 1782.5,-91 1627.5,-91"/>
<text text-anchor="start" x="1635.5" y="-131" font-family="FreeSans" font-size="10.00">/dev/shm/kenichi/update</text>
<text text-anchor="start" x="1635.5" y="-120" font-family="FreeSans" font-size="10.00">&#45;github&#45;e1039&#45;doc/e1039</text>
<text text-anchor="start" x="1635.5" y="-109" font-family="FreeSans" font-size="10.00">&#45;core/simulation/g4main</text>
<text text-anchor="middle" x="1705" y="-98" font-family="FreeSans" font-size="10.00">/PHG4SimpleEventGenerator.cc</text>
</a>
</g>
</g>
<!-- Node1&#45;&gt;Node19 -->
<g id="edge18" class="edge"><title>Node1&#45;&gt;Node19</title>
<path fill="none" stroke="midnightblue" d="M1355.84,-194.945C1423.8,-183.951 1528.44,-165.631 1618,-144 1621.06,-143.26 1624.18,-142.477 1627.32,-141.662"/>
<polygon fill="midnightblue" stroke="midnightblue" points="1354.99,-191.537 1345.67,-196.58 1356.1,-198.448 1354.99,-191.537"/>
</g>
<!-- Node20 -->
<g id="node20" class="node"><title>Node20</title>
<g id="a_node20"><a xlink:href="../../d8/d59/PHG4TruthEventAction_8cc.html" target="_top" xlink:title="/dev/shm/kenichi/update\l&#45;github&#45;e1039&#45;doc/e1039\l&#45;core/simulation/g4main\l/PHG4TruthEventAction.cc">
<polygon fill="none" stroke="black" points="1800.5,-91 1800.5,-143 1933.5,-143 1933.5,-91 1800.5,-91"/>
<text text-anchor="start" x="1808.5" y="-131" font-family="FreeSans" font-size="10.00">/dev/shm/kenichi/update</text>
<text text-anchor="start" x="1808.5" y="-120" font-family="FreeSans" font-size="10.00">&#45;github&#45;e1039&#45;doc/e1039</text>
<text text-anchor="start" x="1808.5" y="-109" font-family="FreeSans" font-size="10.00">&#45;core/simulation/g4main</text>
<text text-anchor="middle" x="1867" y="-98" font-family="FreeSans" font-size="10.00">/PHG4TruthEventAction.cc</text>
</a>
</g>
</g>
<!-- Node1&#45;&gt;Node20 -->
<g id="edge19" class="edge"><title>Node1&#45;&gt;Node20</title>
<path fill="none" stroke="midnightblue" d="M1355.77,-201.935C1454.75,-195.267 1638.24,-179.068 1791,-144 1794.13,-143.282 1797.3,-142.484 1800.5,-141.625"/>
<polygon fill="midnightblue" stroke="midnightblue" points="1355.33,-198.457 1345.58,-202.608 1355.79,-205.441 1355.33,-198.457"/>
</g>
<!-- Node21 -->
<g id="node21" class="node"><title>Node21</title>
<g id="a_node21"><a xlink:href="../../d0/d61/PHG4VtxPoint_8cc.html" target="_top" xlink:title="/dev/shm/kenichi/update\l&#45;github&#45;e1039&#45;doc/e1039\l&#45;core/simulation/g4main\l/PHG4VtxPoint.cc">
<polygon fill="none" stroke="black" points="1951.5,-91 1951.5,-143 2074.5,-143 2074.5,-91 1951.5,-91"/>
<text text-anchor="start" x="1959.5" y="-131" font-family="FreeSans" font-size="10.00">/dev/shm/kenichi/update</text>
<text text-anchor="start" x="1959.5" y="-120" font-family="FreeSans" font-size="10.00">&#45;github&#45;e1039&#45;doc/e1039</text>
<text text-anchor="start" x="1959.5" y="-109" font-family="FreeSans" font-size="10.00">&#45;core/simulation/g4main</text>
<text text-anchor="middle" x="2013" y="-98" font-family="FreeSans" font-size="10.00">/PHG4VtxPoint.cc</text>
</a>
</g>
</g>
<!-- Node1&#45;&gt;Node21 -->
<g id="edge20" class="edge"><title>Node1&#45;&gt;Node21</title>
<path fill="none" stroke="midnightblue" d="M1355.93,-205.236C1477.96,-202.611 1732.67,-191.358 1942,-144 1945.07,-143.305 1948.19,-142.511 1951.33,-141.644"/>
<polygon fill="midnightblue" stroke="midnightblue" points="1355.53,-201.744 1345.61,-205.445 1355.67,-208.742 1355.53,-201.744"/>
</g>
<!-- Node22 -->
<g id="node22" class="node"><title>Node22</title>
<g id="a_node22"><a xlink:href="../../d9/d39/SQCosmicGen_8cc.html" target="_top" xlink:title="/dev/shm/kenichi/update\l&#45;github&#45;e1039&#45;doc/e1039\l&#45;core/simulation/g4main\l/SQCosmicGen.cc">
<polygon fill="none" stroke="black" points="2092.5,-91 2092.5,-143 2215.5,-143 2215.5,-91 2092.5,-91"/>
<text text-anchor="start" x="2100.5" y="-131" font-family="FreeSans" font-size="10.00">/dev/shm/kenichi/update</text>
<text text-anchor="start" x="2100.5" y="-120" font-family="FreeSans" font-size="10.00">&#45;github&#45;e1039&#45;doc/e1039</text>
<text text-anchor="start" x="2100.5" y="-109" font-family="FreeSans" font-size="10.00">&#45;core/simulation/g4main</text>
<text text-anchor="middle" x="2154" y="-98" font-family="FreeSans" font-size="10.00">/SQCosmicGen.cc</text>
</a>
</g>
</g>
<!-- Node1&#45;&gt;Node22 -->
<g id="edge21" class="edge"><title>Node1&#45;&gt;Node22</title>
<path fill="none" stroke="midnightblue" d="M1355.97,-206.951C1497.14,-207.387 1819.56,-201.318 2083,-144 2086.08,-143.33 2089.2,-142.557 2092.34,-141.707"/>
<polygon fill="midnightblue" stroke="midnightblue" points="1355.74,-203.45 1345.72,-206.907 1355.71,-210.45 1355.74,-203.45"/>
</g>
<!-- Node23 -->
<g id="node23" class="node"><title>Node23</title>
<g id="a_node23"><a xlink:href="../../db/d7f/AnaTrkQA_8cxx.html" target="_top" xlink:title="/dev/shm/kenichi/update\l&#45;github&#45;e1039&#45;doc/e1039\l&#45;analysis/AnaTrkQA/src/AnaTrkQA.cxx">
<polygon fill="none" stroke="black" points="2233.5,-96.5 2233.5,-137.5 2416.5,-137.5 2416.5,-96.5 2233.5,-96.5"/>
<text text-anchor="start" x="2241.5" y="-125.5" font-family="FreeSans" font-size="10.00">/dev/shm/kenichi/update</text>
<text text-anchor="start" x="2241.5" y="-114.5" font-family="FreeSans" font-size="10.00">&#45;github&#45;e1039&#45;doc/e1039</text>
<text text-anchor="middle" x="2325" y="-103.5" font-family="FreeSans" font-size="10.00">&#45;analysis/AnaTrkQA/src/AnaTrkQA.cxx</text>
</a>
</g>
</g>
<!-- Node1&#45;&gt;Node23 -->
<g id="edge22" class="edge"><title>Node1&#45;&gt;Node23</title>
<path fill="none" stroke="midnightblue" d="M1355.83,-205.802C1513.82,-204.377 1903.02,-195.44 2224,-144 2234.46,-142.324 2245.41,-140.056 2256.09,-137.555"/>
<polygon fill="midnightblue" stroke="midnightblue" points="1355.73,-202.303 1345.76,-205.886 1355.78,-209.303 1355.73,-202.303"/>
</g>
<!-- Node24 -->
<g id="node24" class="node"><title>Node24</title>
<g id="a_node24"><a xlink:href="../../d0/db6/TruthEval_8cxx.html" target="_top" xlink:title="/dev/shm/kenichi/update\l&#45;github&#45;e1039&#45;doc/e1039\l&#45;analysis/TargetSim/TruthEval\l/TruthEval.cxx">
<polygon fill="none" stroke="black" points="2434.5,-91 2434.5,-143 2579.5,-143 2579.5,-91 2434.5,-91"/>
<text text-anchor="start" x="2442.5" y="-131" font-family="FreeSans" font-size="10.00">/dev/shm/kenichi/update</text>
<text text-anchor="start" x="2442.5" y="-120" font-family="FreeSans" font-size="10.00">&#45;github&#45;e1039&#45;doc/e1039</text>
<text text-anchor="start" x="2442.5" y="-109" font-family="FreeSans" font-size="10.00">&#45;analysis/TargetSim/TruthEval</text>
<text text-anchor="middle" x="2507" y="-98" font-family="FreeSans" font-size="10.00">/TruthEval.cxx</text>
</a>
</g>
</g>
<!-- Node1&#45;&gt;Node24 -->
<g id="edge23" class="edge"><title>Node1&#45;&gt;Node24</title>
<path fill="none" stroke="midnightblue" d="M1355.87,-204.468C1572.74,-199.471 2218.35,-181.746 2425,-144 2428.09,-143.436 2431.22,-142.79 2434.36,-142.079"/>
<polygon fill="midnightblue" stroke="midnightblue" points="1355.48,-200.976 1345.56,-204.703 1355.64,-207.974 1355.48,-200.976"/>
</g>
<!-- Node8 -->
<g id="node8" class="node"><title>Node8</title>
<g id="a_node8"><a xlink:href="../../d8/d06/PHG4DSTReader_8cc.html" target="_top" xlink:title="/dev/shm/kenichi/update\l&#45;github&#45;e1039&#45;doc/e1039\l&#45;core/simulation/g4eval\l/PHG4DSTReader.cc">
<polygon fill="none" stroke="black" points="379.5,-1 379.5,-53 502.5,-53 502.5,-1 379.5,-1"/>
<text text-anchor="start" x="387.5" y="-41" font-family="FreeSans" font-size="10.00">/dev/shm/kenichi/update</text>
<text text-anchor="start" x="387.5" y="-30" font-family="FreeSans" font-size="10.00">&#45;github&#45;e1039&#45;doc/e1039</text>
<text text-anchor="start" x="387.5" y="-19" font-family="FreeSans" font-size="10.00">&#45;core/simulation/g4eval</text>
<text text-anchor="middle" x="441" y="-8" font-family="FreeSans" font-size="10.00">/PHG4DSTReader.cc</text>
</a>
</g>
</g>
<!-- Node7&#45;&gt;Node8 -->
<g id="edge7" class="edge"><title>Node7&#45;&gt;Node8</title>
<path fill="none" stroke="midnightblue" d="M814.542,-90.1574C681.214,-59.7064 640.806,-84.7908 512,-54 508.936,-53.2675 505.822,-52.4439 502.695,-51.5526"/>
<polygon fill="midnightblue" stroke="midnightblue" points="813.77,-93.5712 824.305,-92.4474 815.368,-86.7562 813.77,-93.5712"/>
</g>
<!-- Node9 -->
<g id="node9" class="node"><title>Node9</title>
<g id="a_node9"><a xlink:href="../../dd/d67/PHG4InEvent_8cc.html" target="_top" xlink:title="/dev/shm/kenichi/update\l&#45;github&#45;e1039&#45;doc/e1039\l&#45;core/simulation/g4main\l/PHG4InEvent.cc">
<polygon fill="none" stroke="black" points="520.5,-1 520.5,-53 643.5,-53 643.5,-1 520.5,-1"/>
<text text-anchor="start" x="528.5" y="-41" font-family="FreeSans" font-size="10.00">/dev/shm/kenichi/update</text>
<text text-anchor="start" x="528.5" y="-30" font-family="FreeSans" font-size="10.00">&#45;github&#45;e1039&#45;doc/e1039</text>
<text text-anchor="start" x="528.5" y="-19" font-family="FreeSans" font-size="10.00">&#45;core/simulation/g4main</text>
<text text-anchor="middle" x="582" y="-8" font-family="FreeSans" font-size="10.00">/PHG4InEvent.cc</text>
</a>
</g>
</g>
<!-- Node7&#45;&gt;Node9 -->
<g id="edge8" class="edge"><title>Node7&#45;&gt;Node9</title>
<path fill="none" stroke="midnightblue" d="M814.215,-89.9445C742.367,-69.6938 720.743,-73.8359 653,-54 649.976,-53.1147 646.896,-52.1668 643.795,-51.176"/>
<polygon fill="midnightblue" stroke="midnightblue" points="813.626,-93.4173 824.205,-92.824 815.565,-86.6912 813.626,-93.4173"/>
</g>
<!-- Node10 -->
<g id="node10" class="node"><title>Node10</title>
<g id="a_node10"><a xlink:href="../../dd/d2d/PHG4InEventReadBack_8cc.html" target="_top" xlink:title="/dev/shm/kenichi/update\l&#45;github&#45;e1039&#45;doc/e1039\l&#45;core/simulation/g4main\l/PHG4InEventReadBack.cc">
<polygon fill="none" stroke="black" points="662,-1 662,-53 798,-53 798,-1 662,-1"/>
<text text-anchor="start" x="670" y="-41" font-family="FreeSans" font-size="10.00">/dev/shm/kenichi/update</text>
<text text-anchor="start" x="670" y="-30" font-family="FreeSans" font-size="10.00">&#45;github&#45;e1039&#45;doc/e1039</text>
<text text-anchor="start" x="670" y="-19" font-family="FreeSans" font-size="10.00">&#45;core/simulation/g4main</text>
<text text-anchor="middle" x="730" y="-8" font-family="FreeSans" font-size="10.00">/PHG4InEventReadBack.cc</text>
</a>
</g>
</g>
<!-- Node7&#45;&gt;Node10 -->
<g id="edge9" class="edge"><title>Node7&#45;&gt;Node10</title>
<path fill="none" stroke="midnightblue" d="M832.491,-85.8154C813.575,-75.1451 792.521,-63.2684 774.44,-53.0687"/>
<polygon fill="midnightblue" stroke="midnightblue" points="830.867,-88.9179 841.297,-90.7827 834.307,-82.821 830.867,-88.9179"/>
</g>
<!-- Node11 -->
<g id="node11" class="node"><title>Node11</title>
<g id="a_node11"><a xlink:href="../../d7/d02/PHG4TruthInfoContainer_8cc.html" target="_top" xlink:title="/dev/shm/kenichi/update\l&#45;github&#45;e1039&#45;doc/e1039\l&#45;core/simulation/g4main\l/PHG4TruthInfoContainer.cc">
<polygon fill="none" stroke="black" points="816.5,-1 816.5,-53 955.5,-53 955.5,-1 816.5,-1"/>
<text text-anchor="start" x="824.5" y="-41" font-family="FreeSans" font-size="10.00">/dev/shm/kenichi/update</text>
<text text-anchor="start" x="824.5" y="-30" font-family="FreeSans" font-size="10.00">&#45;github&#45;e1039&#45;doc/e1039</text>
<text text-anchor="start" x="824.5" y="-19" font-family="FreeSans" font-size="10.00">&#45;core/simulation/g4main</text>
<text text-anchor="middle" x="886" y="-8" font-family="FreeSans" font-size="10.00">/PHG4TruthInfoContainer.cc</text>
</a>
</g>
</g>
<!-- Node7&#45;&gt;Node11 -->
<g id="edge10" class="edge"><title>Node7&#45;&gt;Node11</title>
<path fill="none" stroke="midnightblue" d="M886,-80.4892C886,-71.3088 886,-61.616 886,-53.0921"/>
<polygon fill="midnightblue" stroke="midnightblue" points="882.5,-80.5467 886,-90.5468 889.5,-80.5468 882.5,-80.5467"/>
</g>
<!-- Node12 -->
<g id="node12" class="node"><title>Node12</title>
<g id="a_node12"><a xlink:href="../../d3/d11/PHG4TruthSubsystem_8cc.html" target="_top" xlink:title="/dev/shm/kenichi/update\l&#45;github&#45;e1039&#45;doc/e1039\l&#45;core/simulation/g4main\l/PHG4TruthSubsystem.cc">
<polygon fill="none" stroke="black" points="974,-1 974,-53 1102,-53 1102,-1 974,-1"/>
<text text-anchor="start" x="982" y="-41" font-family="FreeSans" font-size="10.00">/dev/shm/kenichi/update</text>
<text text-anchor="start" x="982" y="-30" font-family="FreeSans" font-size="10.00">&#45;github&#45;e1039&#45;doc/e1039</text>
<text text-anchor="start" x="982" y="-19" font-family="FreeSans" font-size="10.00">&#45;core/simulation/g4main</text>
<text text-anchor="middle" x="1038" y="-8" font-family="FreeSans" font-size="10.00">/PHG4TruthSubsystem.cc</text>
</a>
</g>
</g>
<!-- Node7&#45;&gt;Node12 -->
<g id="edge11" class="edge"><title>Node7&#45;&gt;Node12</title>
<path fill="none" stroke="midnightblue" d="M938.387,-85.6704C956.753,-75.0376 977.162,-63.2222 994.7,-53.0687"/>
<polygon fill="midnightblue" stroke="midnightblue" points="936.458,-82.7433 929.557,-90.7827 939.965,-88.8013 936.458,-82.7433"/>
</g>
<!-- Node13 -->
<g id="node13" class="node"><title>Node13</title>
<g id="a_node13"><a xlink:href="../../d2/d1e/PHG4TruthTrackingAction_8cc.html" target="_top" xlink:title="/dev/shm/kenichi/update\l&#45;github&#45;e1039&#45;doc/e1039\l&#45;core/simulation/g4main\l/PHG4TruthTrackingAction.cc">
<polygon fill="none" stroke="black" points="1120,-1 1120,-53 1266,-53 1266,-1 1120,-1"/>
<text text-anchor="start" x="1128" y="-41" font-family="FreeSans" font-size="10.00">/dev/shm/kenichi/update</text>
<text text-anchor="start" x="1128" y="-30" font-family="FreeSans" font-size="10.00">&#45;github&#45;e1039&#45;doc/e1039</text>
<text text-anchor="start" x="1128" y="-19" font-family="FreeSans" font-size="10.00">&#45;core/simulation/g4main</text>
<text text-anchor="middle" x="1193" y="-8" font-family="FreeSans" font-size="10.00">/PHG4TruthTrackingAction.cc</text>
</a>
</g>
</g>
<!-- Node7&#45;&gt;Node13 -->
<g id="edge12" class="edge"><title>Node7&#45;&gt;Node13</title>
<path fill="none" stroke="midnightblue" d="M957.783,-89.9186C1026.14,-70.0825 1046.27,-71.7991 1111,-54 1113.88,-53.2081 1116.81,-52.3812 1119.77,-51.5296"/>
<polygon fill="midnightblue" stroke="midnightblue" points="956.407,-86.6756 947.808,-92.8648 958.389,-93.3889 956.407,-86.6756"/>
</g>
<!-- Node14 -->
<g id="node14" class="node"><title>Node14</title>
<g id="a_node14"><a xlink:href="../../d8/d62/PHG4VtxPointv1_8cc.html" target="_top" xlink:title="/dev/shm/kenichi/update\l&#45;github&#45;e1039&#45;doc/e1039\l&#45;core/simulation/g4main\l/PHG4VtxPointv1.cc">
<polygon fill="none" stroke="black" points="1284.5,-1 1284.5,-53 1407.5,-53 1407.5,-1 1284.5,-1"/>
<text text-anchor="start" x="1292.5" y="-41" font-family="FreeSans" font-size="10.00">/dev/shm/kenichi/update</text>
<text text-anchor="start" x="1292.5" y="-30" font-family="FreeSans" font-size="10.00">&#45;github&#45;e1039&#45;doc/e1039</text>
<text text-anchor="start" x="1292.5" y="-19" font-family="FreeSans" font-size="10.00">&#45;core/simulation/g4main</text>
<text text-anchor="middle" x="1346" y="-8" font-family="FreeSans" font-size="10.00">/PHG4VtxPointv1.cc</text>
</a>
</g>
</g>
<!-- Node7&#45;&gt;Node14 -->
<g id="edge13" class="edge"><title>Node7&#45;&gt;Node14</title>
<path fill="none" stroke="midnightblue" d="M957.486,-90.1567C1097.33,-58.6014 1139.68,-85.9527 1275,-54 1278.07,-53.276 1281.18,-52.4592 1284.31,-51.5735"/>
<polygon fill="midnightblue" stroke="midnightblue" points="956.642,-86.7595 947.69,-92.4265 958.222,-93.5788 956.642,-86.7595"/>
</g>
</g>
</svg>
