<?xml version="1.0" encoding="UTF-8" standalone="no"?>
<!DOCTYPE svg PUBLIC "-//W3C//DTD SVG 1.1//EN"
 "http://www.w3.org/Graphics/SVG/1.1/DTD/svg11.dtd">
<!-- Generated by graphviz version 2.36.0 (20140111.2315)
 -->
<!-- Title: setup_server Pages: 1 -->
<svg width="366pt" height="28pt"
 viewBox="0.00 0.00 366.00 28.00" xmlns="http://www.w3.org/2000/svg" xmlns:xlink="http://www.w3.org/1999/xlink">
<g id="graph0" class="graph" transform="scale(1 1) rotate(0) translate(4 24)">
<title>setup_server</title>
<!-- Node1 -->
<g id="node1" class="node"><title>Node1</title>
<polygon fill="#bfbfbf" stroke="black" points="0.5,-0.5 0.5,-19.5 73.5,-19.5 73.5,-0.5 0.5,-0.5"/>
<text text-anchor="middle" x="37" y="-7.5" font-family="FreeSans" font-size="10.00">setup_server</text>
</g>
<!-- Node2 -->
<g id="node2" class="node"><title>Node2</title>
<g id="a_node2"><a xlink:href="../../d8/d38/classOnlMonServer.html#a1faba47a8f98c19d258624675f820705" target="_top" xlink:title="OnlMonServer::StartServer">
<polygon fill="none" stroke="black" points="110.5,-0.5 110.5,-19.5 243.5,-19.5 243.5,-0.5 110.5,-0.5"/>
<text text-anchor="middle" x="177" y="-7.5" font-family="FreeSans" font-size="10.00">OnlMonServer::StartServer</text>
</a>
</g>
</g>
<!-- Node1&#45;&gt;Node2 -->
<g id="edge1" class="edge"><title>Node1&#45;&gt;Node2</title>
<path fill="none" stroke="midnightblue" d="M83.6549,-10C92.203,-10 101.293,-10 110.307,-10"/>
<polygon fill="midnightblue" stroke="midnightblue" points="83.5385,-6.5001 73.5384,-10 83.5384,-13.5001 83.5385,-6.5001"/>
</g>
<!-- Node3 -->
<g id="node3" class="node"><title>Node3</title>
<g id="a_node3"><a xlink:href="../../da/dda/Fun4MainDaq_8C.html#ad48acfc4b2d865af5dda6f6e96770799" target="_top" xlink:title="Fun4MainDaq">
<polygon fill="none" stroke="black" points="280.5,-0.5 280.5,-19.5 357.5,-19.5 357.5,-0.5 280.5,-0.5"/>
<text text-anchor="middle" x="319" y="-7.5" font-family="FreeSans" font-size="10.00">Fun4MainDaq</text>
</a>
</g>
</g>
<!-- Node2&#45;&gt;Node3 -->
<g id="edge2" class="edge"><title>Node2&#45;&gt;Node3</title>
<path fill="none" stroke="midnightblue" d="M254.146,-10C263.198,-10 272.112,-10 280.275,-10"/>
<polygon fill="midnightblue" stroke="midnightblue" points="253.901,-6.5001 243.901,-10 253.9,-13.5001 253.901,-6.5001"/>
</g>
</g>
</svg>
