<?xml version="1.0" encoding="UTF-8" standalone="no"?>
<!DOCTYPE svg PUBLIC "-//W3C//DTD SVG 1.1//EN"
 "http://www.w3.org/Graphics/SVG/1.1/DTD/svg11.dtd">
<!-- Generated by graphviz version 2.36.0 (20140111.2315)
 -->
<!-- Title: TrackExtrapolator::init Pages: 1 -->
<svg width="1686pt" height="306pt"
 viewBox="0.00 0.00 1686.00 306.00" xmlns="http://www.w3.org/2000/svg" xmlns:xlink="http://www.w3.org/1999/xlink">
<g id="graph0" class="graph" transform="scale(1 1) rotate(0) translate(4 302)">
<title>TrackExtrapolator::init</title>
<!-- Node1 -->
<g id="node1" class="node"><title>Node1</title>
<polygon fill="#bfbfbf" stroke="black" points="0,-109.5 0,-128.5 110,-128.5 110,-109.5 0,-109.5"/>
<text text-anchor="middle" x="55" y="-116.5" font-family="FreeSans" font-size="10.00">TrackExtrapolator::init</text>
</g>
<!-- Node2 -->
<g id="node2" class="node"><title>Node2</title>
<g id="a_node2"><a xlink:href="../../d6/d2a/classKalmanFilter.html#ae44df2d206d9c7a7083b1a0313f20a73" target="_top" xlink:title="Real constructor. ">
<polygon fill="none" stroke="black" points="146.5,-133.5 146.5,-152.5 277.5,-152.5 277.5,-133.5 146.5,-133.5"/>
<text text-anchor="middle" x="212" y="-140.5" font-family="FreeSans" font-size="10.00">KalmanFilter::KalmanFilter</text>
</a>
</g>
</g>
<!-- Node1&#45;&gt;Node2 -->
<g id="edge1" class="edge"><title>Node1&#45;&gt;Node2</title>
<path fill="none" stroke="midnightblue" d="M120.158,-128.934C129.827,-130.431 139.782,-131.973 149.395,-133.461"/>
<polygon fill="midnightblue" stroke="midnightblue" points="120.629,-125.465 110.211,-127.394 119.558,-132.383 120.629,-125.465"/>
</g>
<!-- Node20 -->
<g id="node20" class="node"><title>Node20</title>
<g id="a_node20"><a xlink:href="../../d1/d13/classVertexFit.html#a9bc1c9e97887df5a5cc6e94e33f260d4" target="_top" xlink:title="VertexFit::VertexFit">
<polygon fill="none" stroke="black" points="485.5,-76.5 485.5,-95.5 584.5,-95.5 584.5,-76.5 485.5,-76.5"/>
<text text-anchor="middle" x="535" y="-83.5" font-family="FreeSans" font-size="10.00">VertexFit::VertexFit</text>
</a>
</g>
</g>
<!-- Node1&#45;&gt;Node20 -->
<g id="edge24" class="edge"><title>Node1&#45;&gt;Node20</title>
<path fill="none" stroke="midnightblue" d="M120.63,-114.538C217.656,-107.84 398.798,-95.334 485.425,-89.3535"/>
<polygon fill="midnightblue" stroke="midnightblue" points="120.102,-111.066 110.367,-115.247 120.585,-118.049 120.102,-111.066"/>
</g>
<!-- Node3 -->
<g id="node3" class="node"><title>Node3</title>
<g id="a_node3"><a xlink:href="../../d6/d2a/classKalmanFilter.html#a6f0a34958ea81f4f3843ad3c03bfa366" target="_top" xlink:title="singlton instance ">
<polygon fill="none" stroke="black" points="314.5,-152.5 314.5,-171.5 427.5,-171.5 427.5,-152.5 314.5,-152.5"/>
<text text-anchor="middle" x="371" y="-159.5" font-family="FreeSans" font-size="10.00">KalmanFilter::instance</text>
</a>
</g>
</g>
<!-- Node2&#45;&gt;Node3 -->
<g id="edge2" class="edge"><title>Node2&#45;&gt;Node3</title>
<path fill="none" stroke="midnightblue" d="M287.819,-152.055C296.771,-153.138 305.786,-154.229 314.399,-155.271"/>
<polygon fill="midnightblue" stroke="midnightblue" points="288.112,-148.565 277.764,-150.838 287.271,-155.514 288.112,-148.565"/>
</g>
<!-- Node4 -->
<g id="node4" class="node"><title>Node4</title>
<g id="a_node4"><a xlink:href="../../d9/dc3/classKalmanTrack.html#a659fdf3a875fa693371de5b2559f9aa0" target="_top" xlink:title="KalmanTrack::addHit">
<polygon fill="none" stroke="black" points="481.5,-278.5 481.5,-297.5 588.5,-297.5 588.5,-278.5 481.5,-278.5"/>
<text text-anchor="middle" x="535" y="-285.5" font-family="FreeSans" font-size="10.00">KalmanTrack::addHit</text>
</a>
</g>
</g>
<!-- Node3&#45;&gt;Node4 -->
<g id="edge3" class="edge"><title>Node3&#45;&gt;Node4</title>
<path fill="none" stroke="midnightblue" d="M383.026,-180.28C398.281,-204.015 428.053,-245.104 464,-268 470.823,-272.346 478.609,-275.768 486.451,-278.458"/>
<polygon fill="midnightblue" stroke="midnightblue" points="385.838,-178.175 377.569,-171.551 379.902,-181.885 385.838,-178.175"/>
</g>
<!-- Node5 -->
<g id="node5" class="node"><title>Node5</title>
<g id="a_node5"><a xlink:href="../../d9/dc3/classKalmanTrack.html#a142008cf7b877085eefefd71119fcb15" target="_top" xlink:title="Get the rough vertex momentum. ">
<polygon fill="none" stroke="black" points="464.5,-229 464.5,-259 605.5,-259 605.5,-229 464.5,-229"/>
<text text-anchor="start" x="472.5" y="-247" font-family="FreeSans" font-size="10.00">KalmanTrack::getMomentum</text>
<text text-anchor="middle" x="535" y="-236" font-family="FreeSans" font-size="10.00">Vertex</text>
</a>
</g>
</g>
<!-- Node3&#45;&gt;Node5 -->
<g id="edge4" class="edge"><title>Node3&#45;&gt;Node5</title>
<path fill="none" stroke="midnightblue" d="M394.18,-177.602C412.358,-189.925 439.061,-206.989 464,-219 471.441,-222.584 479.536,-225.938 487.494,-228.954"/>
<polygon fill="midnightblue" stroke="midnightblue" points="395.73,-174.42 385.506,-171.642 391.766,-180.19 395.73,-174.42"/>
</g>
<!-- Node6 -->
<g id="node6" class="node"><title>Node6</title>
<g id="a_node6"><a xlink:href="../../d3/dc9/classKalmanFitter.html#acc2379b49691ffa0476bd56bb7587f62" target="_top" xlink:title="KalmanFitter::KalmanFitter">
<polygon fill="none" stroke="black" points="469,-190.5 469,-209.5 601,-209.5 601,-190.5 469,-190.5"/>
<text text-anchor="middle" x="535" y="-197.5" font-family="FreeSans" font-size="10.00">KalmanFitter::KalmanFitter</text>
</a>
</g>
</g>
<!-- Node3&#45;&gt;Node6 -->
<g id="edge5" class="edge"><title>Node3&#45;&gt;Node6</title>
<path fill="none" stroke="midnightblue" d="M422.715,-173.896C445.486,-179.237 471.987,-185.454 493.415,-190.48"/>
<polygon fill="midnightblue" stroke="midnightblue" points="423.415,-170.465 412.879,-171.589 421.816,-177.28 423.415,-170.465"/>
</g>
<!-- Node7 -->
<g id="node7" class="node"><title>Node7</title>
<g id="a_node7"><a xlink:href="../../d9/dc3/classKalmanTrack.html#a9fb8d93bf5fe086a495e801421f605db" target="_top" xlink:title="Propagate the track to a designated position. ">
<polygon fill="none" stroke="black" points="468.5,-152.5 468.5,-171.5 601.5,-171.5 601.5,-152.5 468.5,-152.5"/>
<text text-anchor="middle" x="535" y="-159.5" font-family="FreeSans" font-size="10.00">KalmanTrack::propagateTo</text>
</a>
</g>
</g>
<!-- Node3&#45;&gt;Node7 -->
<g id="edge6" class="edge"><title>Node3&#45;&gt;Node7</title>
<path fill="none" stroke="midnightblue" d="M438.042,-162C448.053,-162 458.379,-162 468.38,-162"/>
<polygon fill="midnightblue" stroke="midnightblue" points="437.751,-158.5 427.751,-162 437.751,-165.5 437.751,-158.5"/>
</g>
<!-- Node8 -->
<g id="node8" class="node"><title>Node8</title>
<g id="a_node8"><a xlink:href="../../d6/db1/classSRecTrack.html#a4e6933a5892c3e5fd593046ac3ee94a5" target="_top" xlink:title="SRecTrack::setZVertex">
<polygon fill="none" stroke="black" points="476.5,-114.5 476.5,-133.5 593.5,-133.5 593.5,-114.5 476.5,-114.5"/>
<text text-anchor="middle" x="535" y="-121.5" font-family="FreeSans" font-size="10.00">SRecTrack::setZVertex</text>
</a>
</g>
</g>
<!-- Node3&#45;&gt;Node8 -->
<g id="edge7" class="edge"><title>Node3&#45;&gt;Node8</title>
<path fill="none" stroke="midnightblue" d="M422.715,-150.104C445.486,-144.763 471.987,-138.546 493.415,-133.52"/>
<polygon fill="midnightblue" stroke="midnightblue" points="421.816,-146.72 412.879,-152.411 423.415,-153.535 421.816,-146.72"/>
</g>
<!-- Node3&#45;&gt;Node20 -->
<g id="edge23" class="edge"><title>Node3&#45;&gt;Node20</title>
<path fill="none" stroke="midnightblue" d="M393.315,-146.303C411.361,-133.641 438.319,-116.158 464,-105 472.547,-101.287 482.001,-98.1326 491.125,-95.5247"/>
<polygon fill="midnightblue" stroke="midnightblue" points="390.847,-143.766 384.745,-152.427 394.916,-149.461 390.847,-143.766"/>
</g>
<!-- Node9 -->
<g id="node9" class="node"><title>Node9</title>
<g id="a_node9"><a xlink:href="../../de/d69/trackMixer_8cxx.html#a0ddf1224851353fc92bfbff6f499fa97" target="_top" xlink:title="main">
<polygon fill="none" stroke="black" points="1387,-134.5 1387,-153.5 1425,-153.5 1425,-134.5 1387,-134.5"/>
<text text-anchor="middle" x="1406" y="-141.5" font-family="FreeSans" font-size="10.00">main</text>
</a>
</g>
</g>
<!-- Node8&#45;&gt;Node9 -->
<g id="edge8" class="edge"><title>Node8&#45;&gt;Node9</title>
<path fill="none" stroke="midnightblue" d="M603.104,-135.091C676.889,-146.307 799.052,-162 905,-162 905,-162 905,-162 1087,-162 1201.19,-162 1338.07,-150.288 1386.74,-145.759"/>
<polygon fill="midnightblue" stroke="midnightblue" points="603.436,-131.601 593.02,-133.54 602.372,-138.52 603.436,-131.601"/>
</g>
<!-- Node10 -->
<g id="node10" class="node"><title>Node10</title>
<g id="a_node10"><a xlink:href="../../d1/d13/classVertexFit.html#a080d08ef76e4108261aaf89373c07211" target="_top" xlink:title="Set the SRecEvent, main external call the use vertex fit. ">
<polygon fill="none" stroke="black" points="1200,-114.5 1200,-133.5 1316,-133.5 1316,-114.5 1200,-114.5"/>
<text text-anchor="middle" x="1258" y="-121.5" font-family="FreeSans" font-size="10.00">VertexFit::setRecEvent</text>
</a>
</g>
</g>
<!-- Node8&#45;&gt;Node10 -->
<g id="edge9" class="edge"><title>Node8&#45;&gt;Node10</title>
<path fill="none" stroke="midnightblue" d="M604.049,-124C745.415,-124 1068.61,-124 1199.94,-124"/>
<polygon fill="midnightblue" stroke="midnightblue" points="603.784,-120.5 593.784,-124 603.784,-127.5 603.784,-120.5"/>
</g>
<!-- Node11 -->
<g id="node11" class="node"><title>Node11</title>
<g id="a_node11"><a xlink:href="../../d6/db1/classSRecTrack.html#ad6b6be2adfcd60d2442306cda12cdc0c" target="_top" xlink:title="SRecTrack::updateVtxHypothesis">
<polygon fill="none" stroke="black" points="642,-57.5 642,-76.5 804,-76.5 804,-57.5 642,-57.5"/>
<text text-anchor="middle" x="723" y="-64.5" font-family="FreeSans" font-size="10.00">SRecTrack::updateVtxHypothesis</text>
</a>
</g>
</g>
<!-- Node8&#45;&gt;Node11 -->
<g id="edge11" class="edge"><title>Node8&#45;&gt;Node11</title>
<path fill="none" stroke="midnightblue" d="M582.304,-111.794C590.229,-109.601 598.366,-107.285 606,-105 636.25,-95.9464 670.583,-84.5589 693.999,-76.6212"/>
<polygon fill="midnightblue" stroke="midnightblue" points="581.155,-108.479 572.432,-114.493 583.001,-115.231 581.155,-108.479"/>
</g>
<!-- Node10&#45;&gt;Node9 -->
<g id="edge10" class="edge"><title>Node10&#45;&gt;Node9</title>
<path fill="none" stroke="midnightblue" d="M1326.39,-133.231C1348.55,-136.267 1371.4,-139.397 1386.71,-141.495"/>
<polygon fill="midnightblue" stroke="midnightblue" points="1326.67,-129.737 1316.28,-131.847 1325.72,-136.672 1326.67,-129.737"/>
</g>
<!-- Node12 -->
<g id="node12" class="node"><title>Node12</title>
<g id="a_node12"><a xlink:href="../../d6/db1/classSRecTrack.html#a3c5ab5d580eec34aa4c31156dc3ec66b" target="_top" xlink:title="Simple swim to vertex. ">
<polygon fill="none" stroke="black" points="840,-47.5 840,-66.5 972,-66.5 972,-47.5 840,-47.5"/>
<text text-anchor="middle" x="906" y="-54.5" font-family="FreeSans" font-size="10.00">SRecTrack::swimToVertex</text>
</a>
</g>
</g>
<!-- Node11&#45;&gt;Node12 -->
<g id="edge12" class="edge"><title>Node11&#45;&gt;Node12</title>
<path fill="none" stroke="midnightblue" d="M814.271,-62.0126C822.885,-61.5368 831.501,-61.0607 839.808,-60.6018"/>
<polygon fill="midnightblue" stroke="midnightblue" points="813.971,-58.5238 804.18,-62.5702 814.358,-65.5131 813.971,-58.5238"/>
</g>
<!-- Node13 -->
<g id="node13" class="node"><title>Node13</title>
<g id="a_node13"><a xlink:href="../../d1/d13/classVertexFit.html#a19eb69c177fa675e1e63e8a054a5c645" target="_top" xlink:title="VertexFit::findDimuonVertexFast">
<polygon fill="none" stroke="black" points="1008.5,-76.5 1008.5,-95.5 1163.5,-95.5 1163.5,-76.5 1008.5,-76.5"/>
<text text-anchor="middle" x="1086" y="-83.5" font-family="FreeSans" font-size="10.00">VertexFit::findDimuonVertexFast</text>
</a>
</g>
</g>
<!-- Node12&#45;&gt;Node13 -->
<g id="edge13" class="edge"><title>Node12&#45;&gt;Node13</title>
<path fill="none" stroke="midnightblue" d="M976.028,-68.2461C992.732,-70.9676 1010.43,-73.8503 1026.59,-76.4835"/>
<polygon fill="midnightblue" stroke="midnightblue" points="976.21,-64.7297 965.777,-66.5761 975.084,-71.6386 976.21,-64.7297"/>
</g>
<!-- Node14 -->
<g id="node14" class="node"><title>Node14</title>
<g id="a_node14"><a xlink:href="../../d9/dc3/classKalmanTrack.html#a38e275864291b276a96abd8c50de4282" target="_top" xlink:title="Output to SRecTrack. ">
<polygon fill="none" stroke="black" points="1015.5,-38.5 1015.5,-57.5 1156.5,-57.5 1156.5,-38.5 1015.5,-38.5"/>
<text text-anchor="middle" x="1086" y="-45.5" font-family="FreeSans" font-size="10.00">KalmanTrack::getSRecTrack</text>
</a>
</g>
</g>
<!-- Node12&#45;&gt;Node14 -->
<g id="edge15" class="edge"><title>Node12&#45;&gt;Node14</title>
<path fill="none" stroke="midnightblue" d="M982.056,-53.205C993.099,-52.6467 1004.44,-52.0735 1015.36,-51.521"/>
<polygon fill="midnightblue" stroke="midnightblue" points="981.828,-49.712 972.018,-53.7126 982.182,-56.7031 981.828,-49.712"/>
</g>
<!-- Node19 -->
<g id="node19" class="node"><title>Node19</title>
<g id="a_node19"><a xlink:href="../../d2/d26/classTracklet.html#a1eb7549294ffda15dd00f8671cb17096" target="_top" xlink:title="Tracklet::getSRecTrack">
<polygon fill="none" stroke="black" points="1026.5,-0.5 1026.5,-19.5 1145.5,-19.5 1145.5,-0.5 1026.5,-0.5"/>
<text text-anchor="middle" x="1086" y="-7.5" font-family="FreeSans" font-size="10.00">Tracklet::getSRecTrack</text>
</a>
</g>
</g>
<!-- Node12&#45;&gt;Node19 -->
<g id="edge21" class="edge"><title>Node12&#45;&gt;Node19</title>
<path fill="none" stroke="midnightblue" d="M950.675,-44.5993C968.431,-39.6343 989.166,-33.9334 1008,-29 1020.12,-25.8251 1033.35,-22.5066 1045.38,-19.5477"/>
<polygon fill="midnightblue" stroke="midnightblue" points="949.284,-41.3544 940.602,-47.4262 951.176,-48.094 949.284,-41.3544"/>
</g>
<!-- Node13&#45;&gt;Node10 -->
<g id="edge14" class="edge"><title>Node13&#45;&gt;Node10</title>
<path fill="none" stroke="midnightblue" d="M1139.9,-97.8243C1163.87,-103.182 1191.82,-109.431 1214.41,-114.48"/>
<polygon fill="midnightblue" stroke="midnightblue" points="1140.42,-94.3548 1129.9,-95.589 1138.89,-101.186 1140.42,-94.3548"/>
</g>
<!-- Node15 -->
<g id="node15" class="node"><title>Node15</title>
<g id="a_node15"><a xlink:href="../../d3/d46/classKalmanFastTracking.html#ac0b6441647d023db04c618a35fd2a8cd" target="_top" xlink:title="Track fitting stuff. ">
<polygon fill="none" stroke="black" points="1203.5,-27 1203.5,-57 1312.5,-57 1312.5,-27 1203.5,-27"/>
<text text-anchor="start" x="1211.5" y="-45" font-family="FreeSans" font-size="10.00">KalmanFastTracking</text>
<text text-anchor="middle" x="1258" y="-34" font-family="FreeSans" font-size="10.00">::processOneTracklet</text>
</a>
</g>
</g>
<!-- Node14&#45;&gt;Node15 -->
<g id="edge16" class="edge"><title>Node14&#45;&gt;Node15</title>
<path fill="none" stroke="midnightblue" d="M1166.95,-45.1784C1179.29,-44.7429 1191.77,-44.3023 1203.35,-43.8936"/>
<polygon fill="midnightblue" stroke="midnightblue" points="1166.51,-41.6916 1156.64,-45.5423 1166.75,-48.6873 1166.51,-41.6916"/>
</g>
<!-- Node16 -->
<g id="node16" class="node"><title>Node16</title>
<g id="a_node16"><a xlink:href="../../d3/d46/classKalmanFastTracking.html#a53c93bc5e58b3560d1cfb42e84bbe95c" target="_top" xlink:title="KalmanFastTracking\l::buildGlobalTracks">
<polygon fill="none" stroke="black" points="1352.5,-68 1352.5,-98 1459.5,-98 1459.5,-68 1352.5,-68"/>
<text text-anchor="start" x="1360.5" y="-86" font-family="FreeSans" font-size="10.00">KalmanFastTracking</text>
<text text-anchor="middle" x="1406" y="-75" font-family="FreeSans" font-size="10.00">::buildGlobalTracks</text>
</a>
</g>
</g>
<!-- Node15&#45;&gt;Node16 -->
<g id="edge17" class="edge"><title>Node15&#45;&gt;Node16</title>
<path fill="none" stroke="midnightblue" d="M1322.44,-59.8155C1332.46,-62.6278 1342.71,-65.5087 1352.45,-68.2415"/>
<polygon fill="midnightblue" stroke="midnightblue" points="1323.11,-56.3681 1312.54,-57.0341 1321.22,-63.1074 1323.11,-56.3681"/>
</g>
<!-- Node17 -->
<g id="node17" class="node"><title>Node17</title>
<g id="a_node17"><a xlink:href="../../d3/d46/classKalmanFastTracking.html#ada493cf8d995c42b9e78a53b891ce72b" target="_top" xlink:title="KalmanFastTracking\l::setRawEvent">
<polygon fill="none" stroke="black" points="1496.5,-46 1496.5,-76 1603.5,-76 1603.5,-46 1496.5,-46"/>
<text text-anchor="start" x="1504.5" y="-64" font-family="FreeSans" font-size="10.00">KalmanFastTracking</text>
<text text-anchor="middle" x="1550" y="-53" font-family="FreeSans" font-size="10.00">::setRawEvent</text>
</a>
</g>
</g>
<!-- Node15&#45;&gt;Node17 -->
<g id="edge20" class="edge"><title>Node15&#45;&gt;Node17</title>
<path fill="none" stroke="midnightblue" d="M1322.65,-46.1702C1374.7,-49.5806 1447.43,-54.3457 1496.27,-57.5455"/>
<polygon fill="midnightblue" stroke="midnightblue" points="1322.74,-42.6684 1312.53,-45.507 1322.28,-49.6534 1322.74,-42.6684"/>
</g>
<!-- Node16&#45;&gt;Node17 -->
<g id="edge18" class="edge"><title>Node16&#45;&gt;Node17</title>
<path fill="none" stroke="midnightblue" d="M1469.99,-73.2404C1478.7,-71.8909 1487.58,-70.5161 1496.08,-69.1988"/>
<polygon fill="midnightblue" stroke="midnightblue" points="1469.22,-69.8182 1459.88,-74.808 1470.29,-76.7356 1469.22,-69.8182"/>
</g>
<!-- Node18 -->
<g id="node18" class="node"><title>Node18</title>
<g id="a_node18"><a xlink:href="../../d9/da4/kFastTracking_8cxx.html#a0ddf1224851353fc92bfbff6f499fa97" target="_top" xlink:title="main">
<polygon fill="none" stroke="black" points="1640,-51.5 1640,-70.5 1678,-70.5 1678,-51.5 1640,-51.5"/>
<text text-anchor="middle" x="1659" y="-58.5" font-family="FreeSans" font-size="10.00">main</text>
</a>
</g>
</g>
<!-- Node17&#45;&gt;Node18 -->
<g id="edge19" class="edge"><title>Node17&#45;&gt;Node18</title>
<path fill="none" stroke="midnightblue" d="M1613.66,-61C1623.26,-61 1632.46,-61 1639.96,-61"/>
<polygon fill="midnightblue" stroke="midnightblue" points="1613.56,-57.5001 1603.56,-61 1613.56,-64.5001 1613.56,-57.5001"/>
</g>
<!-- Node19&#45;&gt;Node15 -->
<g id="edge22" class="edge"><title>Node19&#45;&gt;Node15</title>
<path fill="none" stroke="midnightblue" d="M1147.49,-21.3862C1165.74,-24.8209 1185.63,-28.5658 1203.4,-31.91"/>
<polygon fill="midnightblue" stroke="midnightblue" points="1148.02,-17.9248 1137.55,-19.5144 1146.73,-24.804 1148.02,-17.9248"/>
</g>
</g>
</svg>
