<?xml version="1.0" encoding="UTF-8" standalone="no"?>
<!DOCTYPE svg PUBLIC "-//W3C//DTD SVG 1.1//EN"
 "http://www.w3.org/Graphics/SVG/1.1/DTD/svg11.dtd">
<!-- Generated by graphviz version 2.44.0 (0)
 -->
<!-- Title: /dev/shm/kenichi/update&#45;github&#45;e1039&#45;doc/e1039&#45;analysis/HitEmbedding/src/TreeData.h Pages: 1 -->
<svg width="497pt" height="239pt"
 viewBox="0.00 0.00 496.50 239.00" xmlns="http://www.w3.org/2000/svg" xmlns:xlink="http://www.w3.org/1999/xlink">
<g id="graph0" class="graph" transform="scale(1 1) rotate(0) translate(4 235)">
<title>/dev/shm/kenichi/update&#45;github&#45;e1039&#45;doc/e1039&#45;analysis/HitEmbedding/src/TreeData.h</title>
<!-- Node1 -->
<g id="node1" class="node">
<title>Node1</title>
<g id="a_node1"><a xlink:title=" ">
<polygon fill="#bfbfbf" stroke="black" points="170.5,-178.5 170.5,-230.5 320.5,-230.5 320.5,-178.5 170.5,-178.5"/>
<text text-anchor="start" x="178.5" y="-218.5" font-family="FreeSans" font-size="10.00">/dev/shm/kenichi/update</text>
<text text-anchor="start" x="178.5" y="-207.5" font-family="FreeSans" font-size="10.00">&#45;github&#45;e1039&#45;doc/e1039</text>
<text text-anchor="start" x="178.5" y="-196.5" font-family="FreeSans" font-size="10.00">&#45;analysis/HitEmbedding/src</text>
<text text-anchor="middle" x="245.5" y="-185.5" font-family="FreeSans" font-size="10.00">/TreeData.h</text>
</a>
</g>
</g>
<!-- Node2 -->
<g id="node2" class="node">
<title>Node2</title>
<g id="a_node2"><a xlink:href="../../dd/dc0/AnaCleanAndMessyData_8h.html" target="_top" xlink:title=" ">
<polygon fill="none" stroke="black" points="2.5,-89.5 2.5,-141.5 152.5,-141.5 152.5,-89.5 2.5,-89.5"/>
<text text-anchor="start" x="10.5" y="-129.5" font-family="FreeSans" font-size="10.00">/dev/shm/kenichi/update</text>
<text text-anchor="start" x="10.5" y="-118.5" font-family="FreeSans" font-size="10.00">&#45;github&#45;e1039&#45;doc/e1039</text>
<text text-anchor="start" x="10.5" y="-107.5" font-family="FreeSans" font-size="10.00">&#45;analysis/HitEmbedding/src</text>
<text text-anchor="middle" x="77.5" y="-96.5" font-family="FreeSans" font-size="10.00">/AnaCleanAndMessyData.h</text>
</a>
</g>
</g>
<!-- Node1&#45;&gt;Node2 -->
<g id="edge1" class="edge">
<title>Node1&#45;&gt;Node2</title>
<path fill="none" stroke="midnightblue" d="M187.83,-173.64C167.69,-163.2 145.3,-151.61 125.98,-141.61"/>
<polygon fill="midnightblue" stroke="midnightblue" points="186.42,-176.85 196.91,-178.34 189.64,-170.63 186.42,-176.85"/>
</g>
<!-- Node4 -->
<g id="node4" class="node">
<title>Node4</title>
<g id="a_node4"><a xlink:href="../../df/d58/AnaEmbeddedData_8h.html" target="_top" xlink:title=" ">
<polygon fill="none" stroke="black" points="170.5,-89.5 170.5,-141.5 320.5,-141.5 320.5,-89.5 170.5,-89.5"/>
<text text-anchor="start" x="178.5" y="-129.5" font-family="FreeSans" font-size="10.00">/dev/shm/kenichi/update</text>
<text text-anchor="start" x="178.5" y="-118.5" font-family="FreeSans" font-size="10.00">&#45;github&#45;e1039&#45;doc/e1039</text>
<text text-anchor="start" x="178.5" y="-107.5" font-family="FreeSans" font-size="10.00">&#45;analysis/HitEmbedding/src</text>
<text text-anchor="middle" x="245.5" y="-96.5" font-family="FreeSans" font-size="10.00">/AnaEmbeddedData.h</text>
</a>
</g>
</g>
<!-- Node1&#45;&gt;Node4 -->
<g id="edge3" class="edge">
<title>Node1&#45;&gt;Node4</title>
<path fill="none" stroke="midnightblue" d="M245.5,-168.19C245.5,-159.28 245.5,-149.9 245.5,-141.61"/>
<polygon fill="midnightblue" stroke="midnightblue" points="242,-168.34 245.5,-178.34 249,-168.34 242,-168.34"/>
</g>
<!-- Node6 -->
<g id="node6" class="node">
<title>Node6</title>
<g id="a_node6"><a xlink:href="../../df/dd5/HitEmbedding_2src_2TreeData_8cc.html" target="_top" xlink:title=" ">
<polygon fill="none" stroke="black" points="338.5,-89.5 338.5,-141.5 488.5,-141.5 488.5,-89.5 338.5,-89.5"/>
<text text-anchor="start" x="346.5" y="-129.5" font-family="FreeSans" font-size="10.00">/dev/shm/kenichi/update</text>
<text text-anchor="start" x="346.5" y="-118.5" font-family="FreeSans" font-size="10.00">&#45;github&#45;e1039&#45;doc/e1039</text>
<text text-anchor="start" x="346.5" y="-107.5" font-family="FreeSans" font-size="10.00">&#45;analysis/HitEmbedding/src</text>
<text text-anchor="middle" x="413.5" y="-96.5" font-family="FreeSans" font-size="10.00">/TreeData.cc</text>
</a>
</g>
</g>
<!-- Node1&#45;&gt;Node6 -->
<g id="edge5" class="edge">
<title>Node1&#45;&gt;Node6</title>
<path fill="none" stroke="midnightblue" d="M303.17,-173.64C323.31,-163.2 345.7,-151.61 365.02,-141.61"/>
<polygon fill="midnightblue" stroke="midnightblue" points="301.36,-170.63 294.09,-178.34 304.58,-176.85 301.36,-170.63"/>
</g>
<!-- Node3 -->
<g id="node3" class="node">
<title>Node3</title>
<g id="a_node3"><a xlink:href="../../d6/dfe/AnaCleanAndMessyData_8cc.html" target="_top" xlink:title=" ">
<polygon fill="none" stroke="black" points="0,-0.5 0,-52.5 153,-52.5 153,-0.5 0,-0.5"/>
<text text-anchor="start" x="8" y="-40.5" font-family="FreeSans" font-size="10.00">/dev/shm/kenichi/update</text>
<text text-anchor="start" x="8" y="-29.5" font-family="FreeSans" font-size="10.00">&#45;github&#45;e1039&#45;doc/e1039</text>
<text text-anchor="start" x="8" y="-18.5" font-family="FreeSans" font-size="10.00">&#45;analysis/HitEmbedding/src</text>
<text text-anchor="middle" x="76.5" y="-7.5" font-family="FreeSans" font-size="10.00">/AnaCleanAndMessyData.cc</text>
</a>
</g>
</g>
<!-- Node2&#45;&gt;Node3 -->
<g id="edge2" class="edge">
<title>Node2&#45;&gt;Node3</title>
<path fill="none" stroke="midnightblue" d="M77.09,-79.19C76.99,-70.28 76.88,-60.9 76.79,-52.61"/>
<polygon fill="midnightblue" stroke="midnightblue" points="73.6,-79.38 77.21,-89.34 80.6,-79.3 73.6,-79.38"/>
</g>
<!-- Node5 -->
<g id="node5" class="node">
<title>Node5</title>
<g id="a_node5"><a xlink:href="../../db/d39/AnaEmbeddedData_8cc.html" target="_top" xlink:title=" ">
<polygon fill="none" stroke="black" points="171.5,-0.5 171.5,-52.5 321.5,-52.5 321.5,-0.5 171.5,-0.5"/>
<text text-anchor="start" x="179.5" y="-40.5" font-family="FreeSans" font-size="10.00">/dev/shm/kenichi/update</text>
<text text-anchor="start" x="179.5" y="-29.5" font-family="FreeSans" font-size="10.00">&#45;github&#45;e1039&#45;doc/e1039</text>
<text text-anchor="start" x="179.5" y="-18.5" font-family="FreeSans" font-size="10.00">&#45;analysis/HitEmbedding/src</text>
<text text-anchor="middle" x="246.5" y="-7.5" font-family="FreeSans" font-size="10.00">/AnaEmbeddedData.cc</text>
</a>
</g>
</g>
<!-- Node4&#45;&gt;Node5 -->
<g id="edge4" class="edge">
<title>Node4&#45;&gt;Node5</title>
<path fill="none" stroke="midnightblue" d="M245.91,-79.19C246.01,-70.28 246.12,-60.9 246.21,-52.61"/>
<polygon fill="midnightblue" stroke="midnightblue" points="242.4,-79.3 245.79,-89.34 249.4,-79.38 242.4,-79.3"/>
</g>
</g>
</svg>
