<?xml version="1.0" encoding="UTF-8" standalone="no"?>
<!DOCTYPE svg PUBLIC "-//W3C//DTD SVG 1.1//EN"
 "http://www.w3.org/Graphics/SVG/1.1/DTD/svg11.dtd">
<!-- Generated by graphviz version 2.36.0 (20140111.2315)
 -->
<!-- Title: PHPointerList::clear Pages: 1 -->
<svg width="1094pt" height="294pt"
 viewBox="0.00 0.00 1094.00 294.00" xmlns="http://www.w3.org/2000/svg" xmlns:xlink="http://www.w3.org/1999/xlink">
<g id="graph0" class="graph" transform="scale(1 1) rotate(0) translate(4 290)">
<title>PHPointerList::clear</title>
<!-- Node1 -->
<g id="node1" class="node"><title>Node1</title>
<polygon fill="#bfbfbf" stroke="black" points="0,-156.5 0,-175.5 104,-175.5 104,-156.5 0,-156.5"/>
<text text-anchor="middle" x="52" y="-163.5" font-family="FreeSans" font-size="10.00">PHPointerList::clear</text>
</g>
<!-- Node2 -->
<g id="node2" class="node"><title>Node2</title>
<g id="a_node2"><a xlink:href="../../d5/d07/classPHNodeIterator.html#a110a5b87a02a22deecae334f32387ffa" target="_top" xlink:title="PHNodeIterator::ls">
<polygon fill="none" stroke="black" points="140.5,-156.5 140.5,-175.5 237.5,-175.5 237.5,-156.5 140.5,-156.5"/>
<text text-anchor="middle" x="189" y="-163.5" font-family="FreeSans" font-size="10.00">PHNodeIterator::ls</text>
</a>
</g>
</g>
<!-- Node1&#45;&gt;Node2 -->
<g id="edge1" class="edge"><title>Node1&#45;&gt;Node2</title>
<path fill="none" stroke="midnightblue" d="M114.256,-166C123.046,-166 131.979,-166 140.452,-166"/>
<polygon fill="midnightblue" stroke="midnightblue" points="114.038,-162.5 104.038,-166 114.038,-169.5 114.038,-162.5"/>
</g>
<!-- Node3 -->
<g id="node3" class="node"><title>Node3</title>
<g id="a_node3"><a xlink:href="../../da/d29/classFun4AllServer.html#a3654ebdcb099bcc5c820df6d4952663c" target="_top" xlink:title="Fun4AllServer::CountOutNodes\lRecursive">
<polygon fill="none" stroke="black" points="274,-200 274,-230 426,-230 426,-200 274,-200"/>
<text text-anchor="start" x="282" y="-218" font-family="FreeSans" font-size="10.00">Fun4AllServer::CountOutNodes</text>
<text text-anchor="middle" x="350" y="-207" font-family="FreeSans" font-size="10.00">Recursive</text>
</a>
</g>
</g>
<!-- Node2&#45;&gt;Node3 -->
<g id="edge2" class="edge"><title>Node2&#45;&gt;Node3</title>
<path fill="none" stroke="midnightblue" d="M230.7,-178.543C251.886,-185.072 277.944,-193.102 300.207,-199.963"/>
<polygon fill="midnightblue" stroke="midnightblue" points="231.622,-175.164 221.034,-175.564 229.56,-181.854 231.622,-175.164"/>
</g>
<!-- Node16 -->
<g id="node16" class="node"><title>Node16</title>
<g id="a_node16"><a xlink:href="../../da/d29/classFun4AllServer.html#ac9e5b55796d46d41f6f0ec9e3422959a" target="_top" xlink:title="Fun4AllServer::MakeNodes\lPersistent">
<polygon fill="none" stroke="black" points="282.5,-151 282.5,-181 417.5,-181 417.5,-151 282.5,-151"/>
<text text-anchor="start" x="290.5" y="-169" font-family="FreeSans" font-size="10.00">Fun4AllServer::MakeNodes</text>
<text text-anchor="middle" x="350" y="-158" font-family="FreeSans" font-size="10.00">Persistent</text>
</a>
</g>
</g>
<!-- Node2&#45;&gt;Node16 -->
<g id="edge15" class="edge"><title>Node2&#45;&gt;Node16</title>
<path fill="none" stroke="midnightblue" d="M247.777,-166C258.965,-166 270.775,-166 282.223,-166"/>
<polygon fill="midnightblue" stroke="midnightblue" points="247.705,-162.5 237.705,-166 247.705,-169.5 247.705,-162.5"/>
</g>
<!-- Node18 -->
<g id="node18" class="node"><title>Node18</title>
<g id="a_node18"><a xlink:href="../../da/d29/classFun4AllServer.html#a92c6fe0e0c19c48d2b1f9d0f63c12bbe" target="_top" xlink:title="Fun4AllServer::MakeNodes\lTransient">
<polygon fill="none" stroke="black" points="282.5,-102 282.5,-132 417.5,-132 417.5,-102 282.5,-102"/>
<text text-anchor="start" x="290.5" y="-120" font-family="FreeSans" font-size="10.00">Fun4AllServer::MakeNodes</text>
<text text-anchor="middle" x="350" y="-109" font-family="FreeSans" font-size="10.00">Transient</text>
</a>
</g>
</g>
<!-- Node2&#45;&gt;Node18 -->
<g id="edge17" class="edge"><title>Node2&#45;&gt;Node18</title>
<path fill="none" stroke="midnightblue" d="M230.7,-153.457C251.886,-146.928 277.944,-138.898 300.207,-132.037"/>
<polygon fill="midnightblue" stroke="midnightblue" points="229.56,-150.146 221.034,-156.436 231.622,-156.836 229.56,-150.146"/>
</g>
<!-- Node4 -->
<g id="node4" class="node"><title>Node4</title>
<g id="a_node4"><a xlink:href="../../da/d29/classFun4AllServer.html#a6f3f13c3a8b5c29457e694ba910296aa" target="_top" xlink:title="Fun4AllServer::CountOutNodes">
<polygon fill="none" stroke="black" points="462,-203.5 462,-222.5 614,-222.5 614,-203.5 462,-203.5"/>
<text text-anchor="middle" x="538" y="-210.5" font-family="FreeSans" font-size="10.00">Fun4AllServer::CountOutNodes</text>
</a>
</g>
</g>
<!-- Node3&#45;&gt;Node4 -->
<g id="edge3" class="edge"><title>Node3&#45;&gt;Node4</title>
<path fill="none" stroke="midnightblue" d="M436.147,-214.084C444.742,-213.992 453.426,-213.899 461.905,-213.807"/>
<polygon fill="midnightblue" stroke="midnightblue" points="436.079,-210.585 426.117,-214.192 436.154,-217.584 436.079,-210.585"/>
</g>
<!-- Node5 -->
<g id="node5" class="node"><title>Node5</title>
<g id="a_node5"><a xlink:href="../../da/d29/classFun4AllServer.html#a6a65a944dfb40966ace97d35ab1f7942" target="_top" xlink:title="Fun4AllServer::process\l_event">
<polygon fill="none" stroke="black" points="650.5,-150 650.5,-180 767.5,-180 767.5,-150 650.5,-150"/>
<text text-anchor="start" x="658.5" y="-168" font-family="FreeSans" font-size="10.00">Fun4AllServer::process</text>
<text text-anchor="middle" x="709" y="-157" font-family="FreeSans" font-size="10.00">_event</text>
</a>
</g>
</g>
<!-- Node4&#45;&gt;Node5 -->
<g id="edge4" class="edge"><title>Node4&#45;&gt;Node5</title>
<path fill="none" stroke="midnightblue" d="M582.567,-200.626C604.659,-194.351 631.673,-186.679 654.966,-180.063"/>
<polygon fill="midnightblue" stroke="midnightblue" points="581.457,-197.303 572.793,-203.402 583.369,-204.036 581.457,-197.303"/>
</g>
<!-- Node6 -->
<g id="node6" class="node"><title>Node6</title>
<g id="a_node6"><a xlink:href="../../da/d29/classFun4AllServer.html#a94738b092fa009fcea45737d8ea41224" target="_top" xlink:title="Fun4AllServer::process\l_event">
<polygon fill="none" stroke="black" points="804.5,-172 804.5,-202 921.5,-202 921.5,-172 804.5,-172"/>
<text text-anchor="start" x="812.5" y="-190" font-family="FreeSans" font-size="10.00">Fun4AllServer::process</text>
<text text-anchor="middle" x="863" y="-179" font-family="FreeSans" font-size="10.00">_event</text>
</a>
</g>
</g>
<!-- Node5&#45;&gt;Node6 -->
<g id="edge5" class="edge"><title>Node5&#45;&gt;Node6</title>
<path fill="none" stroke="midnightblue" d="M778.072,-174.852C786.817,-176.118 795.704,-177.405 804.263,-178.643"/>
<polygon fill="midnightblue" stroke="midnightblue" points="778.297,-171.349 767.898,-173.38 777.294,-178.276 778.297,-171.349"/>
</g>
<!-- Node7 -->
<g id="node7" class="node"><title>Node7</title>
<g id="a_node7"><a xlink:href="../../da/d29/classFun4AllServer.html#a11bbc8b2f53bc06e0b05ee202dd6372a" target="_top" xlink:title="run n events (0 means up to end of file) ">
<polygon fill="none" stroke="black" points="815,-133.5 815,-152.5 911,-152.5 911,-133.5 815,-133.5"/>
<text text-anchor="middle" x="863" y="-140.5" font-family="FreeSans" font-size="10.00">Fun4AllServer::run</text>
</a>
</g>
</g>
<!-- Node5&#45;&gt;Node7 -->
<g id="edge6" class="edge"><title>Node5&#45;&gt;Node7</title>
<path fill="none" stroke="midnightblue" d="M778.152,-155.136C790.471,-153.353 803.067,-151.53 814.629,-149.856"/>
<polygon fill="midnightblue" stroke="midnightblue" points="777.294,-151.724 767.898,-156.62 778.297,-158.651 777.294,-151.724"/>
</g>
<!-- Node8 -->
<g id="node8" class="node"><title>Node8</title>
<g id="a_node8"><a xlink:href="../../df/d51/Fun4All__ExportGeom_8C.html#a582925c51bad38d562cf19e71211adfd" target="_top" xlink:title="get geometry from DST file and output TGeoManager ROOT files or other formats of geometry files ...">
<polygon fill="none" stroke="black" points="968,-266.5 968,-285.5 1076,-285.5 1076,-266.5 968,-266.5"/>
<text text-anchor="middle" x="1022" y="-273.5" font-family="FreeSans" font-size="10.00">Fun4All_ExportGeom</text>
</a>
</g>
</g>
<!-- Node7&#45;&gt;Node8 -->
<g id="edge7" class="edge"><title>Node7&#45;&gt;Node8</title>
<path fill="none" stroke="midnightblue" d="M916.687,-157.653C918.568,-158.979 920.35,-160.424 922,-162 954.648,-193.19 924.985,-226.198 958,-257 962.177,-260.897 967.125,-263.996 972.384,-266.461"/>
<polygon fill="midnightblue" stroke="midnightblue" points="918.32,-154.555 907.911,-152.576 914.814,-160.614 918.32,-154.555"/>
</g>
<!-- Node9 -->
<g id="node9" class="node"><title>Node9</title>
<g id="a_node9"><a xlink:href="../../d9/d0f/Fun4All__ImportGeom_8C.html#a3388968a8dae60e9eb62b1126f747b6a" target="_top" xlink:title="Read in a Geometry file, and output DST and ROOT TGeo files. ">
<polygon fill="none" stroke="black" points="967.5,-228.5 967.5,-247.5 1076.5,-247.5 1076.5,-228.5 967.5,-228.5"/>
<text text-anchor="middle" x="1022" y="-235.5" font-family="FreeSans" font-size="10.00">Fun4All_ImportGeom</text>
</a>
</g>
</g>
<!-- Node7&#45;&gt;Node9 -->
<g id="edge8" class="edge"><title>Node7&#45;&gt;Node9</title>
<path fill="none" stroke="midnightblue" d="M914.599,-157.083C917.2,-158.565 919.689,-160.199 922,-162 945.633,-180.419 934.151,-200.862 958,-219 963.092,-222.873 968.971,-225.96 975.049,-228.421"/>
<polygon fill="midnightblue" stroke="midnightblue" points="915.941,-153.844 905.418,-152.61 912.875,-160.137 915.941,-153.844"/>
</g>
<!-- Node10 -->
<g id="node10" class="node"><title>Node10</title>
<g id="a_node10"><a xlink:href="../../db/d7c/Fun4DumpGeom_8C.html#ac063d1f79534ea7be7f5e9a08e247c30" target="_top" xlink:title="Fun4kDumpGeom">
<polygon fill="none" stroke="black" points="974.5,-190.5 974.5,-209.5 1069.5,-209.5 1069.5,-190.5 974.5,-190.5"/>
<text text-anchor="middle" x="1022" y="-197.5" font-family="FreeSans" font-size="10.00">Fun4kDumpGeom</text>
</a>
</g>
</g>
<!-- Node7&#45;&gt;Node10 -->
<g id="edge9" class="edge"><title>Node7&#45;&gt;Node10</title>
<path fill="none" stroke="midnightblue" d="M906.168,-155.882C911.548,-157.797 916.94,-159.854 922,-162 938.656,-169.063 941.262,-174.134 958,-181 966.561,-184.512 976.012,-187.703 984.932,-190.426"/>
<polygon fill="midnightblue" stroke="midnightblue" points="907.165,-152.524 896.57,-152.599 904.899,-159.147 907.165,-152.524"/>
</g>
<!-- Node11 -->
<g id="node11" class="node"><title>Node11</title>
<g id="a_node11"><a xlink:href="../../dd/d7d/Fun4kTracker_8C.html#aeb65da5049f8451b3e942cdfa70e3321" target="_top" xlink:title="Fun4kTracker">
<polygon fill="none" stroke="black" points="983.5,-152.5 983.5,-171.5 1060.5,-171.5 1060.5,-152.5 983.5,-152.5"/>
<text text-anchor="middle" x="1022" y="-159.5" font-family="FreeSans" font-size="10.00">Fun4kTracker</text>
</a>
</g>
</g>
<!-- Node7&#45;&gt;Node11 -->
<g id="edge10" class="edge"><title>Node7&#45;&gt;Node11</title>
<path fill="none" stroke="midnightblue" d="M921.09,-149.909C941.841,-152.42 964.752,-155.193 983.395,-157.449"/>
<polygon fill="midnightblue" stroke="midnightblue" points="921.453,-146.427 911.105,-148.701 920.612,-153.377 921.453,-146.427"/>
</g>
<!-- Node12 -->
<g id="node12" class="node"><title>Node12</title>
<g id="a_node12"><a xlink:href="../../d9/d8c/Fun4ReadMySql_8C.html#a82110168fa15d41b073c27eeadfc0ff3" target="_top" xlink:title="Fun4ReadMySql">
<polygon fill="none" stroke="black" points="978,-114.5 978,-133.5 1066,-133.5 1066,-114.5 978,-114.5"/>
<text text-anchor="middle" x="1022" y="-121.5" font-family="FreeSans" font-size="10.00">Fun4ReadMySql</text>
</a>
</g>
</g>
<!-- Node7&#45;&gt;Node12 -->
<g id="edge11" class="edge"><title>Node7&#45;&gt;Node12</title>
<path fill="none" stroke="midnightblue" d="M921.034,-136.098C939.819,-133.824 960.38,-131.336 977.945,-129.21"/>
<polygon fill="midnightblue" stroke="midnightblue" points="920.612,-132.623 911.105,-137.299 921.453,-139.573 920.612,-132.623"/>
</g>
<!-- Node13 -->
<g id="node13" class="node"><title>Node13</title>
<g id="a_node13"><a xlink:href="../../d6/d4c/Fun4SeaQuest_8C.html#a81bffd149f5c71602cb40eb0f45019c3" target="_top" xlink:title="Fun4SeaQuest">
<polygon fill="none" stroke="black" points="981,-76.5 981,-95.5 1063,-95.5 1063,-76.5 981,-76.5"/>
<text text-anchor="middle" x="1022" y="-83.5" font-family="FreeSans" font-size="10.00">Fun4SeaQuest</text>
</a>
</g>
</g>
<!-- Node7&#45;&gt;Node13 -->
<g id="edge12" class="edge"><title>Node7&#45;&gt;Node13</title>
<path fill="none" stroke="midnightblue" d="M895.676,-129.354C913.775,-121.77 936.986,-112.399 958,-105 967.375,-101.699 977.654,-98.4475 987.14,-95.5928"/>
<polygon fill="midnightblue" stroke="midnightblue" points="894.042,-126.245 886.192,-133.36 896.766,-132.693 894.042,-126.245"/>
</g>
<!-- Node14 -->
<g id="node14" class="node"><title>Node14</title>
<g id="a_node14"><a xlink:href="../../de/d48/Fun4TestAnalyzer_8C.html#af993f3ce438e5ebcb52b97e41124a3db" target="_top" xlink:title="Fun4TestAnalyzer">
<polygon fill="none" stroke="black" points="974.5,-38.5 974.5,-57.5 1069.5,-57.5 1069.5,-38.5 974.5,-38.5"/>
<text text-anchor="middle" x="1022" y="-45.5" font-family="FreeSans" font-size="10.00">Fun4TestAnalyzer</text>
</a>
</g>
</g>
<!-- Node7&#45;&gt;Node14 -->
<g id="edge13" class="edge"><title>Node7&#45;&gt;Node14</title>
<path fill="none" stroke="midnightblue" d="M880.504,-126.265C898.226,-109.158 927.915,-82.9084 958,-67 965.069,-63.2618 972.983,-60.1474 980.751,-57.595"/>
<polygon fill="midnightblue" stroke="midnightblue" points="877.915,-123.901 873.244,-133.411 882.826,-128.89 877.915,-123.901"/>
</g>
<!-- Node15 -->
<g id="node15" class="node"><title>Node15</title>
<g id="a_node15"><a xlink:href="../../d6/deb/PHGeom__DSTInspection_8C.html#a8a06a40e2950cd31dda512c040049cd0" target="_top" xlink:title="PHGeom_DSTInspection">
<polygon fill="none" stroke="black" points="958.5,-0.5 958.5,-19.5 1085.5,-19.5 1085.5,-0.5 958.5,-0.5"/>
<text text-anchor="middle" x="1022" y="-7.5" font-family="FreeSans" font-size="10.00">PHGeom_DSTInspection</text>
</a>
</g>
</g>
<!-- Node7&#45;&gt;Node15 -->
<g id="edge14" class="edge"><title>Node7&#45;&gt;Node15</title>
<path fill="none" stroke="midnightblue" d="M874.416,-124.508C889.58,-99.2457 920.103,-54.2144 958,-29 963.802,-25.1398 970.416,-22.0404 977.125,-19.5585"/>
<polygon fill="midnightblue" stroke="midnightblue" points="871.226,-123.029 869.208,-133.43 877.272,-126.558 871.226,-123.029"/>
</g>
<!-- Node17 -->
<g id="node17" class="node"><title>Node17</title>
<g id="a_node17"><a xlink:href="../../da/daa/classFun4AllDstOutputManager.html#aa4b5b519c6db1540d03007c8c21436fc" target="_top" xlink:title="write starting from given node ">
<polygon fill="none" stroke="black" points="472.5,-149 472.5,-179 603.5,-179 603.5,-149 472.5,-149"/>
<text text-anchor="start" x="480.5" y="-167" font-family="FreeSans" font-size="10.00">Fun4AllDstOutputManager</text>
<text text-anchor="middle" x="538" y="-156" font-family="FreeSans" font-size="10.00">::Write</text>
</a>
</g>
</g>
<!-- Node16&#45;&gt;Node17 -->
<g id="edge16" class="edge"><title>Node16&#45;&gt;Node17</title>
<path fill="none" stroke="midnightblue" d="M427.781,-165.174C442.609,-165.015 458.005,-164.849 472.398,-164.695"/>
<polygon fill="midnightblue" stroke="midnightblue" points="427.587,-161.676 417.625,-165.284 427.662,-168.676 427.587,-161.676"/>
</g>
<!-- Node18&#45;&gt;Node5 -->
<g id="edge18" class="edge"><title>Node18&#45;&gt;Node5</title>
<path fill="none" stroke="midnightblue" d="M427.93,-119.656C480.629,-122.397 551.944,-127.922 614,-139 629.169,-141.708 645.431,-145.776 660.093,-149.895"/>
<polygon fill="midnightblue" stroke="midnightblue" points="427.809,-116.146 417.647,-119.144 427.46,-123.137 427.809,-116.146"/>
</g>
<!-- Node18&#45;&gt;Node17 -->
<g id="edge19" class="edge"><title>Node18&#45;&gt;Node17</title>
<path fill="none" stroke="midnightblue" d="M420.091,-134.459C438.975,-139.23 459.269,-144.358 477.563,-148.981"/>
<polygon fill="midnightblue" stroke="midnightblue" points="420.916,-131.057 410.363,-132 419.201,-137.844 420.916,-131.057"/>
</g>
</g>
</svg>
