<?xml version="1.0" encoding="UTF-8" standalone="no"?>
<!DOCTYPE svg PUBLIC "-//W3C//DTD SVG 1.1//EN"
 "http://www.w3.org/Graphics/SVG/1.1/DTD/svg11.dtd">
<!-- Generated by graphviz version 2.44.0 (0)
 -->
<!-- Title: SRecEvent::setEventInfo Pages: 1 -->
<svg width="490pt" height="78pt"
 viewBox="0.00 0.00 490.00 77.50" xmlns="http://www.w3.org/2000/svg" xmlns:xlink="http://www.w3.org/1999/xlink">
<g id="graph0" class="graph" transform="scale(1 1) rotate(0) translate(4 73.5)">
<title>SRecEvent::setEventInfo</title>
<!-- Node1 -->
<g id="node1" class="node">
<title>Node1</title>
<g id="a_node1"><a xlink:title="Set/Get event info.">
<polygon fill="#bfbfbf" stroke="black" points="346,-28 346,-47 482,-47 482,-28 346,-28"/>
<text text-anchor="middle" x="414" y="-35" font-family="FreeSans" font-size="10.00">SRecEvent::setEventInfo</text>
</a>
</g>
</g>
<!-- Node2 -->
<g id="node2" class="node">
<title>Node2</title>
<g id="a_node2"><a xlink:href="../../d5/d2f/classSRecEvent.html#a79c7950118ac5e00c6a7e2e1ef4301ff" target="_top" xlink:title="directly setup everything by raw event">
<polygon fill="none" stroke="black" points="172,-28 172,-47 310,-47 310,-28 172,-28"/>
<text text-anchor="middle" x="241" y="-35" font-family="FreeSans" font-size="10.00">SRecEvent::setRawEvent</text>
</a>
</g>
</g>
<!-- Node1&#45;&gt;Node2 -->
<g id="edge1" class="edge">
<title>Node1&#45;&gt;Node2</title>
<path fill="none" stroke="midnightblue" d="M335.86,-37.5C327.25,-37.5 318.51,-37.5 310.02,-37.5"/>
<polygon fill="midnightblue" stroke="midnightblue" points="335.91,-41 345.91,-37.5 335.91,-34 335.91,-41"/>
</g>
<!-- Node3 -->
<g id="node3" class="node">
<title>Node3</title>
<g id="a_node3"><a xlink:href="../../df/df2/classSQReco.html#a4d308ea90b8cd7c24a235f32debd6ddb" target="_top" xlink:title=" ">
<polygon fill="none" stroke="black" points="2.5,-50 2.5,-69 133.5,-69 133.5,-50 2.5,-50"/>
<text text-anchor="middle" x="68" y="-57" font-family="FreeSans" font-size="10.00">SQReco::process_event</text>
</a>
</g>
</g>
<!-- Node2&#45;&gt;Node3 -->
<g id="edge2" class="edge">
<title>Node2&#45;&gt;Node3</title>
<path fill="none" stroke="midnightblue" d="M161.74,-47.57C152.29,-48.78 142.72,-50.02 133.5,-51.2"/>
<polygon fill="midnightblue" stroke="midnightblue" points="162.45,-51.01 171.92,-46.26 161.56,-44.06 162.45,-51.01"/>
</g>
<!-- Node4 -->
<g id="node4" class="node">
<title>Node4</title>
<g id="a_node4"><a xlink:href="../../dd/d62/classSQTrackletReco.html#a8da2377e83fb17bc8189b89175833872" target="_top" xlink:title=" ">
<polygon fill="none" stroke="black" points="0,-0.5 0,-30.5 136,-30.5 136,-0.5 0,-0.5"/>
<text text-anchor="start" x="8" y="-18.5" font-family="FreeSans" font-size="10.00">SQTrackletReco::process</text>
<text text-anchor="middle" x="68" y="-7.5" font-family="FreeSans" font-size="10.00">_event</text>
</a>
</g>
</g>
<!-- Node2&#45;&gt;Node4 -->
<g id="edge3" class="edge">
<title>Node2&#45;&gt;Node4</title>
<path fill="none" stroke="midnightblue" d="M161.86,-27.45C153.22,-26.34 144.48,-25.21 136,-24.12"/>
<polygon fill="midnightblue" stroke="midnightblue" points="161.56,-30.94 171.92,-28.74 162.45,-23.99 161.56,-30.94"/>
</g>
</g>
</svg>
