<?xml version="1.0" encoding="UTF-8" standalone="no"?>
<!DOCTYPE svg PUBLIC "-//W3C//DTD SVG 1.1//EN"
 "http://www.w3.org/Graphics/SVG/1.1/DTD/svg11.dtd">
<!-- Generated by graphviz version 2.36.0 (20140111.2315)
 -->
<!-- Title: /home/yuhw/GitHub/SeaQuest/seaquest&#45;offline/simulation/g4detectors/PHG4DetectorSubsystem.h Pages: 1 -->
<svg width="3489pt" height="230pt"
 viewBox="0.00 0.00 3489.00 230.00" xmlns="http://www.w3.org/2000/svg" xmlns:xlink="http://www.w3.org/1999/xlink">
<g id="graph0" class="graph" transform="scale(1 1) rotate(0) translate(4 226)">
<title>/home/yuhw/GitHub/SeaQuest/seaquest&#45;offline/simulation/g4detectors/PHG4DetectorSubsystem.h</title>
<!-- Node1 -->
<g id="node1" class="node"><title>Node1</title>
<polygon fill="#bfbfbf" stroke="black" points="1656,-180.5 1656,-221.5 1850,-221.5 1850,-180.5 1656,-180.5"/>
<text text-anchor="start" x="1664" y="-209.5" font-family="FreeSans" font-size="10.00">/home/yuhw/GitHub/SeaQuest</text>
<text text-anchor="start" x="1664" y="-198.5" font-family="FreeSans" font-size="10.00">/seaquest&#45;offline/simulation</text>
<text text-anchor="middle" x="1753" y="-187.5" font-family="FreeSans" font-size="10.00">/g4detectors/PHG4DetectorSubsystem.h</text>
</g>
<!-- Node2 -->
<g id="node2" class="node"><title>Node2</title>
<g id="a_node2"><a xlink:href="../../dd/d87/PHG4BeamlineMagnetSubsystem_8h.html" target="_top" xlink:title="/home/yuhw/GitHub/SeaQuest\l/seaquest&#45;offline/simulation\l/g4detectors/PHG4BeamlineMagnetSubsystem.h">
<polygon fill="none" stroke="black" points="7,-96.5 7,-137.5 237,-137.5 237,-96.5 7,-96.5"/>
<text text-anchor="start" x="15" y="-125.5" font-family="FreeSans" font-size="10.00">/home/yuhw/GitHub/SeaQuest</text>
<text text-anchor="start" x="15" y="-114.5" font-family="FreeSans" font-size="10.00">/seaquest&#45;offline/simulation</text>
<text text-anchor="middle" x="122" y="-103.5" font-family="FreeSans" font-size="10.00">/g4detectors/PHG4BeamlineMagnetSubsystem.h</text>
</a>
</g>
</g>
<!-- Node1&#45;&gt;Node2 -->
<g id="edge1" class="edge"><title>Node1&#45;&gt;Node2</title>
<path fill="none" stroke="midnightblue" d="M1645.65,-198.327C1348.43,-193.324 518.882,-176.757 248,-144 234.695,-142.391 220.706,-140.108 207.084,-137.556"/>
<polygon fill="midnightblue" stroke="midnightblue" points="1645.94,-201.832 1655.99,-198.5 1646.05,-194.833 1645.94,-201.832"/>
</g>
<!-- Node4 -->
<g id="node4" class="node"><title>Node4</title>
<g id="a_node4"><a xlink:href="../../de/d16/PHG4BlockSubsystem_8h.html" target="_top" xlink:title="/home/yuhw/GitHub/SeaQuest\l/seaquest&#45;offline/simulation\l/g4detectors/PHG4BlockSubsystem.h">
<polygon fill="none" stroke="black" points="257,-96.5 257,-137.5 439,-137.5 439,-96.5 257,-96.5"/>
<text text-anchor="start" x="265" y="-125.5" font-family="FreeSans" font-size="10.00">/home/yuhw/GitHub/SeaQuest</text>
<text text-anchor="start" x="265" y="-114.5" font-family="FreeSans" font-size="10.00">/seaquest&#45;offline/simulation</text>
<text text-anchor="middle" x="348" y="-103.5" font-family="FreeSans" font-size="10.00">/g4detectors/PHG4BlockSubsystem.h</text>
</a>
</g>
</g>
<!-- Node1&#45;&gt;Node4 -->
<g id="edge3" class="edge"><title>Node1&#45;&gt;Node4</title>
<path fill="none" stroke="midnightblue" d="M1645.85,-198.21C1377.26,-193.271 680.457,-177.535 451,-144 439.959,-142.386 428.384,-140.083 417.145,-137.507"/>
<polygon fill="midnightblue" stroke="midnightblue" points="1645.93,-201.712 1655.99,-198.395 1646.06,-194.713 1645.93,-201.712"/>
</g>
<!-- Node6 -->
<g id="node6" class="node"><title>Node6</title>
<g id="a_node6"><a xlink:href="../../d3/df3/PHG4BNLTargetCoilSubsystem_8h.html" target="_top" xlink:title="/home/yuhw/GitHub/SeaQuest\l/seaquest&#45;offline/simulation\l/g4detectors/PHG4BNLTargetCoilSubsystem.h">
<polygon fill="none" stroke="black" points="460.5,-96.5 460.5,-137.5 681.5,-137.5 681.5,-96.5 460.5,-96.5"/>
<text text-anchor="start" x="468.5" y="-125.5" font-family="FreeSans" font-size="10.00">/home/yuhw/GitHub/SeaQuest</text>
<text text-anchor="start" x="468.5" y="-114.5" font-family="FreeSans" font-size="10.00">/seaquest&#45;offline/simulation</text>
<text text-anchor="middle" x="571" y="-103.5" font-family="FreeSans" font-size="10.00">/g4detectors/PHG4BNLTargetCoilSubsystem.h</text>
</a>
</g>
</g>
<!-- Node1&#45;&gt;Node6 -->
<g id="edge5" class="edge"><title>Node1&#45;&gt;Node6</title>
<path fill="none" stroke="midnightblue" d="M1645.77,-200.023C1453.56,-198.803 1037.98,-190.432 691,-144 678.534,-142.332 665.441,-140.052 652.67,-137.53"/>
<polygon fill="midnightblue" stroke="midnightblue" points="1645.85,-203.523 1655.87,-200.082 1645.9,-196.524 1645.85,-203.523"/>
</g>
<!-- Node8 -->
<g id="node8" class="node"><title>Node8</title>
<g id="a_node8"><a xlink:href="../../d4/dab/PHG4CollimatorSubsystem_8h.html" target="_top" xlink:title="/home/yuhw/GitHub/SeaQuest\l/seaquest&#45;offline/simulation\l/g4detectors/PHG4CollimatorSubsystem.h">
<polygon fill="none" stroke="black" points="700,-96.5 700,-137.5 900,-137.5 900,-96.5 700,-96.5"/>
<text text-anchor="start" x="708" y="-125.5" font-family="FreeSans" font-size="10.00">/home/yuhw/GitHub/SeaQuest</text>
<text text-anchor="start" x="708" y="-114.5" font-family="FreeSans" font-size="10.00">/seaquest&#45;offline/simulation</text>
<text text-anchor="middle" x="800" y="-103.5" font-family="FreeSans" font-size="10.00">/g4detectors/PHG4CollimatorSubsystem.h</text>
</a>
</g>
</g>
<!-- Node1&#45;&gt;Node8 -->
<g id="edge7" class="edge"><title>Node1&#45;&gt;Node8</title>
<path fill="none" stroke="midnightblue" d="M1645.53,-198.633C1484.56,-195.287 1171.66,-183.753 909,-144 897.747,-142.297 885.945,-140.015 874.433,-137.507"/>
<polygon fill="midnightblue" stroke="midnightblue" points="1645.85,-202.14 1655.92,-198.842 1645.99,-195.141 1645.85,-202.14"/>
</g>
<!-- Node10 -->
<g id="node10" class="node"><title>Node10</title>
<g id="a_node10"><a xlink:href="../../dc/dc6/PHG4CylinderSubsystem_8h.html" target="_top" xlink:title="/home/yuhw/GitHub/SeaQuest\l/seaquest&#45;offline/simulation\l/g4detectors/PHG4CylinderSubsystem.h">
<polygon fill="none" stroke="black" points="918.5,-96.5 918.5,-137.5 1109.5,-137.5 1109.5,-96.5 918.5,-96.5"/>
<text text-anchor="start" x="926.5" y="-125.5" font-family="FreeSans" font-size="10.00">/home/yuhw/GitHub/SeaQuest</text>
<text text-anchor="start" x="926.5" y="-114.5" font-family="FreeSans" font-size="10.00">/seaquest&#45;offline/simulation</text>
<text text-anchor="middle" x="1014" y="-103.5" font-family="FreeSans" font-size="10.00">/g4detectors/PHG4CylinderSubsystem.h</text>
</a>
</g>
</g>
<!-- Node1&#45;&gt;Node10 -->
<g id="edge9" class="edge"><title>Node1&#45;&gt;Node10</title>
<path fill="none" stroke="midnightblue" d="M1645.75,-195.682C1518.97,-189.395 1301.97,-174.911 1118,-144 1107.54,-142.242 1096.58,-139.978 1085.86,-137.52"/>
<polygon fill="midnightblue" stroke="midnightblue" points="1645.69,-199.183 1655.85,-196.175 1646.03,-192.192 1645.69,-199.183"/>
</g>
<!-- Node12 -->
<g id="node12" class="node"><title>Node12</title>
<g id="a_node12"><a xlink:href="../../d8/de4/PHG4DetectorSubsystem_8cc.html" target="_top" xlink:title="/home/yuhw/GitHub/SeaQuest\l/seaquest&#45;offline/simulation\l/g4detectors/PHG4DetectorSubsystem.cc">
<polygon fill="none" stroke="black" points="1127.5,-96.5 1127.5,-137.5 1326.5,-137.5 1326.5,-96.5 1127.5,-96.5"/>
<text text-anchor="start" x="1135.5" y="-125.5" font-family="FreeSans" font-size="10.00">/home/yuhw/GitHub/SeaQuest</text>
<text text-anchor="start" x="1135.5" y="-114.5" font-family="FreeSans" font-size="10.00">/seaquest&#45;offline/simulation</text>
<text text-anchor="middle" x="1227" y="-103.5" font-family="FreeSans" font-size="10.00">/g4detectors/PHG4DetectorSubsystem.cc</text>
</a>
</g>
</g>
<!-- Node1&#45;&gt;Node12 -->
<g id="edge11" class="edge"><title>Node1&#45;&gt;Node12</title>
<path fill="none" stroke="midnightblue" d="M1645.69,-188.707C1560.96,-179.049 1439.95,-163.609 1335,-144 1324.86,-142.105 1314.24,-139.867 1303.78,-137.511"/>
<polygon fill="midnightblue" stroke="midnightblue" points="1645.51,-192.208 1655.84,-189.856 1646.29,-185.253 1645.51,-192.208"/>
</g>
<!-- Node13 -->
<g id="node13" class="node"><title>Node13</title>
<g id="a_node13"><a xlink:href="../../d8/d7f/PHG4InnerHcalSubsystem_8h.html" target="_top" xlink:title="/home/yuhw/GitHub/SeaQuest\l/seaquest&#45;offline/simulation\l/g4detectors/PHG4InnerHcalSubsystem.h">
<polygon fill="none" stroke="black" points="1344.5,-96.5 1344.5,-137.5 1543.5,-137.5 1543.5,-96.5 1344.5,-96.5"/>
<text text-anchor="start" x="1352.5" y="-125.5" font-family="FreeSans" font-size="10.00">/home/yuhw/GitHub/SeaQuest</text>
<text text-anchor="start" x="1352.5" y="-114.5" font-family="FreeSans" font-size="10.00">/seaquest&#45;offline/simulation</text>
<text text-anchor="middle" x="1444" y="-103.5" font-family="FreeSans" font-size="10.00">/g4detectors/PHG4InnerHcalSubsystem.h</text>
</a>
</g>
</g>
<!-- Node1&#45;&gt;Node13 -->
<g id="edge12" class="edge"><title>Node1&#45;&gt;Node13</title>
<path fill="none" stroke="midnightblue" d="M1669.44,-177.827C1622.04,-165.246 1563.25,-149.645 1517.59,-137.529"/>
<polygon fill="midnightblue" stroke="midnightblue" points="1668.82,-181.281 1679.38,-180.463 1670.61,-174.515 1668.82,-181.281"/>
</g>
<!-- Node15 -->
<g id="node15" class="node"><title>Node15</title>
<g id="a_node15"><a xlink:href="../../d5/d88/PHG4MapsSubsystem_8h.html" target="_top" xlink:title="/home/yuhw/GitHub/SeaQuest\l/seaquest&#45;offline/simulation\l/g4detectors/PHG4MapsSubsystem.h">
<polygon fill="none" stroke="black" points="1561.5,-96.5 1561.5,-137.5 1742.5,-137.5 1742.5,-96.5 1561.5,-96.5"/>
<text text-anchor="start" x="1569.5" y="-125.5" font-family="FreeSans" font-size="10.00">/home/yuhw/GitHub/SeaQuest</text>
<text text-anchor="start" x="1569.5" y="-114.5" font-family="FreeSans" font-size="10.00">/seaquest&#45;offline/simulation</text>
<text text-anchor="middle" x="1652" y="-103.5" font-family="FreeSans" font-size="10.00">/g4detectors/PHG4MapsSubsystem.h</text>
</a>
</g>
</g>
<!-- Node1&#45;&gt;Node15 -->
<g id="edge14" class="edge"><title>Node1&#45;&gt;Node15</title>
<path fill="none" stroke="midnightblue" d="M1720.65,-173.735C1706.28,-162.065 1689.64,-148.559 1676.34,-137.765"/>
<polygon fill="midnightblue" stroke="midnightblue" points="1718.84,-176.773 1728.81,-180.359 1723.25,-171.339 1718.84,-176.773"/>
</g>
<!-- Node17 -->
<g id="node17" class="node"><title>Node17</title>
<g id="a_node17"><a xlink:href="../../db/dfe/PHG4mRICHSubsystem_8h.html" target="_top" xlink:title="/home/yuhw/GitHub/SeaQuest\l/seaquest&#45;offline/simulation\l/g4detectors/PHG4mRICHSubsystem.h">
<polygon fill="none" stroke="black" points="1760.5,-96.5 1760.5,-137.5 1949.5,-137.5 1949.5,-96.5 1760.5,-96.5"/>
<text text-anchor="start" x="1768.5" y="-125.5" font-family="FreeSans" font-size="10.00">/home/yuhw/GitHub/SeaQuest</text>
<text text-anchor="start" x="1768.5" y="-114.5" font-family="FreeSans" font-size="10.00">/seaquest&#45;offline/simulation</text>
<text text-anchor="middle" x="1855" y="-103.5" font-family="FreeSans" font-size="10.00">/g4detectors/PHG4mRICHSubsystem.h</text>
</a>
</g>
</g>
<!-- Node1&#45;&gt;Node17 -->
<g id="edge16" class="edge"><title>Node1&#45;&gt;Node17</title>
<path fill="none" stroke="midnightblue" d="M1785.26,-174.062C1799.87,-162.318 1816.86,-148.66 1830.41,-137.765"/>
<polygon fill="midnightblue" stroke="midnightblue" points="1783.03,-171.366 1777.43,-180.359 1787.42,-176.821 1783.03,-171.366"/>
</g>
<!-- Node19 -->
<g id="node19" class="node"><title>Node19</title>
<g id="a_node19"><a xlink:href="../../d3/d50/PHG4OuterHcalSubsystem_8h.html" target="_top" xlink:title="/home/yuhw/GitHub/SeaQuest\l/seaquest&#45;offline/simulation\l/g4detectors/PHG4OuterHcalSubsystem.h">
<polygon fill="none" stroke="black" points="1967.5,-96.5 1967.5,-137.5 2168.5,-137.5 2168.5,-96.5 1967.5,-96.5"/>
<text text-anchor="start" x="1975.5" y="-125.5" font-family="FreeSans" font-size="10.00">/home/yuhw/GitHub/SeaQuest</text>
<text text-anchor="start" x="1975.5" y="-114.5" font-family="FreeSans" font-size="10.00">/seaquest&#45;offline/simulation</text>
<text text-anchor="middle" x="2068" y="-103.5" font-family="FreeSans" font-size="10.00">/g4detectors/PHG4OuterHcalSubsystem.h</text>
</a>
</g>
</g>
<!-- Node1&#45;&gt;Node19 -->
<g id="edge18" class="edge"><title>Node1&#45;&gt;Node19</title>
<path fill="none" stroke="midnightblue" d="M1837.87,-177.906C1886.25,-165.312 1946.34,-149.671 1992.98,-137.529"/>
<polygon fill="midnightblue" stroke="midnightblue" points="1836.85,-174.557 1828.05,-180.463 1838.61,-181.331 1836.85,-174.557"/>
</g>
<!-- Node21 -->
<g id="node21" class="node"><title>Node21</title>
<g id="a_node21"><a xlink:href="../../db/d48/PHG4PolyconSubsystem_8h.html" target="_top" xlink:title="/home/yuhw/GitHub/SeaQuest\l/seaquest&#45;offline/simulation\l/g4detectors/PHG4PolyconSubsystem.h">
<polygon fill="none" stroke="black" points="2186.5,-96.5 2186.5,-137.5 2377.5,-137.5 2377.5,-96.5 2186.5,-96.5"/>
<text text-anchor="start" x="2194.5" y="-125.5" font-family="FreeSans" font-size="10.00">/home/yuhw/GitHub/SeaQuest</text>
<text text-anchor="start" x="2194.5" y="-114.5" font-family="FreeSans" font-size="10.00">/seaquest&#45;offline/simulation</text>
<text text-anchor="middle" x="2282" y="-103.5" font-family="FreeSans" font-size="10.00">/g4detectors/PHG4PolyconSubsystem.h</text>
</a>
</g>
</g>
<!-- Node1&#45;&gt;Node21 -->
<g id="edge20" class="edge"><title>Node1&#45;&gt;Node21</title>
<path fill="none" stroke="midnightblue" d="M1860.36,-189.167C1946.39,-179.682 2069.98,-164.252 2177,-144 2186.87,-142.132 2197.2,-139.909 2207.37,-137.561"/>
<polygon fill="midnightblue" stroke="midnightblue" points="1859.88,-185.698 1850.32,-190.265 1860.64,-192.656 1859.88,-185.698"/>
</g>
<!-- Node23 -->
<g id="node23" class="node"><title>Node23</title>
<g id="a_node23"><a xlink:href="../../d5/d06/PHG4Prototype2InnerHcalSubsystem_8h.html" target="_top" xlink:title="/home/yuhw/GitHub/SeaQuest\l/seaquest&#45;offline/simulation\l/g4detectors/PHG4Prototype2InnerHcal\lSubsystem.h">
<polygon fill="none" stroke="black" points="2396.5,-91 2396.5,-143 2585.5,-143 2585.5,-91 2396.5,-91"/>
<text text-anchor="start" x="2404.5" y="-131" font-family="FreeSans" font-size="10.00">/home/yuhw/GitHub/SeaQuest</text>
<text text-anchor="start" x="2404.5" y="-120" font-family="FreeSans" font-size="10.00">/seaquest&#45;offline/simulation</text>
<text text-anchor="start" x="2404.5" y="-109" font-family="FreeSans" font-size="10.00">/g4detectors/PHG4Prototype2InnerHcal</text>
<text text-anchor="middle" x="2491" y="-98" font-family="FreeSans" font-size="10.00">Subsystem.h</text>
</a>
</g>
</g>
<!-- Node1&#45;&gt;Node23 -->
<g id="edge22" class="edge"><title>Node1&#45;&gt;Node23</title>
<path fill="none" stroke="midnightblue" d="M1860.17,-195.571C1986.58,-189.184 2202.71,-174.612 2386,-144 2389.43,-143.428 2392.91,-142.802 2396.41,-142.135"/>
<polygon fill="midnightblue" stroke="midnightblue" points="1859.92,-192.08 1850.11,-196.072 1860.27,-199.071 1859.92,-192.08"/>
</g>
<!-- Node25 -->
<g id="node25" class="node"><title>Node25</title>
<g id="a_node25"><a xlink:href="../../d7/d23/PHG4Prototype2OuterHcalSubsystem_8h.html" target="_top" xlink:title="/home/yuhw/GitHub/SeaQuest\l/seaquest&#45;offline/simulation\l/g4detectors/PHG4Prototype2OuterHcal\lSubsystem.h">
<polygon fill="none" stroke="black" points="2604.5,-91 2604.5,-143 2795.5,-143 2795.5,-91 2604.5,-91"/>
<text text-anchor="start" x="2612.5" y="-131" font-family="FreeSans" font-size="10.00">/home/yuhw/GitHub/SeaQuest</text>
<text text-anchor="start" x="2612.5" y="-120" font-family="FreeSans" font-size="10.00">/seaquest&#45;offline/simulation</text>
<text text-anchor="start" x="2612.5" y="-109" font-family="FreeSans" font-size="10.00">/g4detectors/PHG4Prototype2OuterHcal</text>
<text text-anchor="middle" x="2700" y="-98" font-family="FreeSans" font-size="10.00">Subsystem.h</text>
</a>
</g>
</g>
<!-- Node1&#45;&gt;Node25 -->
<g id="edge24" class="edge"><title>Node1&#45;&gt;Node25</title>
<path fill="none" stroke="midnightblue" d="M1860.44,-198.814C2020.98,-195.697 2332.57,-184.45 2594,-144 2597.37,-143.478 2600.79,-142.902 2604.24,-142.28"/>
<polygon fill="midnightblue" stroke="midnightblue" points="1860.02,-195.321 1850.09,-199.007 1860.15,-202.32 1860.02,-195.321"/>
</g>
<!-- Node27 -->
<g id="node27" class="node"><title>Node27</title>
<g id="a_node27"><a xlink:href="../../d9/d84/PHG4SpacalPrototypeSubsystem_8h.html" target="_top" xlink:title="/home/yuhw/GitHub/SeaQuest\l/seaquest&#45;offline/simulation\l/g4detectors/PHG4SpacalPrototypeSubsystem.h">
<polygon fill="none" stroke="black" points="2815,-96.5 2815,-137.5 3043,-137.5 3043,-96.5 2815,-96.5"/>
<text text-anchor="start" x="2823" y="-125.5" font-family="FreeSans" font-size="10.00">/home/yuhw/GitHub/SeaQuest</text>
<text text-anchor="start" x="2823" y="-114.5" font-family="FreeSans" font-size="10.00">/seaquest&#45;offline/simulation</text>
<text text-anchor="middle" x="2929" y="-103.5" font-family="FreeSans" font-size="10.00">/g4detectors/PHG4SpacalPrototypeSubsystem.h</text>
</a>
</g>
</g>
<!-- Node1&#45;&gt;Node27 -->
<g id="edge26" class="edge"><title>Node1&#45;&gt;Node27</title>
<path fill="none" stroke="midnightblue" d="M1860.19,-199.647C2050.84,-197.829 2461.09,-188.536 2804,-144 2816.97,-142.316 2830.6,-140.027 2843.9,-137.501"/>
<polygon fill="midnightblue" stroke="midnightblue" points="1860.14,-196.148 1850.17,-199.738 1860.2,-203.147 1860.14,-196.148"/>
</g>
<!-- Node29 -->
<g id="node29" class="node"><title>Node29</title>
<g id="a_node29"><a xlink:href="../../d1/d1f/PHG4SpacalSubsystem_8h.html" target="_top" xlink:title="/home/yuhw/GitHub/SeaQuest\l/seaquest&#45;offline/simulation\l/g4detectors/PHG4SpacalSubsystem.h">
<polygon fill="none" stroke="black" points="3064.5,-96.5 3064.5,-137.5 3251.5,-137.5 3251.5,-96.5 3064.5,-96.5"/>
<text text-anchor="start" x="3072.5" y="-125.5" font-family="FreeSans" font-size="10.00">/home/yuhw/GitHub/SeaQuest</text>
<text text-anchor="start" x="3072.5" y="-114.5" font-family="FreeSans" font-size="10.00">/seaquest&#45;offline/simulation</text>
<text text-anchor="middle" x="3158" y="-103.5" font-family="FreeSans" font-size="10.00">/g4detectors/PHG4SpacalSubsystem.h</text>
</a>
</g>
</g>
<!-- Node1&#45;&gt;Node29 -->
<g id="edge28" class="edge"><title>Node1&#45;&gt;Node29</title>
<path fill="none" stroke="midnightblue" d="M1860.38,-198.101C2128.66,-192.918 2823.1,-176.68 3052,-144 3063.25,-142.393 3075.06,-140.111 3086.53,-137.559"/>
<polygon fill="midnightblue" stroke="midnightblue" points="1860.17,-194.604 1850.24,-198.296 1860.31,-201.603 1860.17,-194.604"/>
</g>
<!-- Node31 -->
<g id="node31" class="node"><title>Node31</title>
<g id="a_node31"><a xlink:href="../../da/dbd/PHG4TargetCoilSubsystem_8h.html" target="_top" xlink:title="/home/yuhw/GitHub/SeaQuest\l/seaquest&#45;offline/simulation\l/g4detectors/PHG4TargetCoilSubsystem.h">
<polygon fill="none" stroke="black" points="3271.5,-96.5 3271.5,-137.5 3472.5,-137.5 3472.5,-96.5 3271.5,-96.5"/>
<text text-anchor="start" x="3279.5" y="-125.5" font-family="FreeSans" font-size="10.00">/home/yuhw/GitHub/SeaQuest</text>
<text text-anchor="start" x="3279.5" y="-114.5" font-family="FreeSans" font-size="10.00">/seaquest&#45;offline/simulation</text>
<text text-anchor="middle" x="3372" y="-103.5" font-family="FreeSans" font-size="10.00">/g4detectors/PHG4TargetCoilSubsystem.h</text>
</a>
</g>
</g>
<!-- Node1&#45;&gt;Node31 -->
<g id="edge30" class="edge"><title>Node1&#45;&gt;Node31</title>
<path fill="none" stroke="midnightblue" d="M1860.54,-198.672C2158.27,-194.57 2989.18,-180.129 3260,-144 3271.97,-142.403 3284.54,-140.109 3296.75,-137.536"/>
<polygon fill="midnightblue" stroke="midnightblue" points="1860.13,-195.177 1850.18,-198.813 1860.22,-202.176 1860.13,-195.177"/>
</g>
<!-- Node3 -->
<g id="node3" class="node"><title>Node3</title>
<g id="a_node3"><a xlink:href="../../d6/d8f/PHG4BeamlineMagnetSubsystem_8cc.html" target="_top" xlink:title="/home/yuhw/GitHub/SeaQuest\l/seaquest&#45;offline/simulation\l/g4detectors/PHG4BeamlineMagnetSubsystem.cc">
<polygon fill="none" stroke="black" points="-0.5,-6.5 -0.5,-47.5 234.5,-47.5 234.5,-6.5 -0.5,-6.5"/>
<text text-anchor="start" x="7.5" y="-35.5" font-family="FreeSans" font-size="10.00">/home/yuhw/GitHub/SeaQuest</text>
<text text-anchor="start" x="7.5" y="-24.5" font-family="FreeSans" font-size="10.00">/seaquest&#45;offline/simulation</text>
<text text-anchor="middle" x="117" y="-13.5" font-family="FreeSans" font-size="10.00">/g4detectors/PHG4BeamlineMagnetSubsystem.cc</text>
</a>
</g>
</g>
<!-- Node2&#45;&gt;Node3 -->
<g id="edge2" class="edge"><title>Node2&#45;&gt;Node3</title>
<path fill="none" stroke="midnightblue" d="M120.314,-86.3298C119.593,-73.6289 118.769,-59.1399 118.124,-47.7798"/>
<polygon fill="midnightblue" stroke="midnightblue" points="116.829,-86.6846 120.89,-96.4699 123.817,-86.2875 116.829,-86.6846"/>
</g>
<!-- Node5 -->
<g id="node5" class="node"><title>Node5</title>
<g id="a_node5"><a xlink:href="../../d6/dfe/PHG4BlockSubsystem_8cc.html" target="_top" xlink:title="/home/yuhw/GitHub/SeaQuest\l/seaquest&#45;offline/simulation\l/g4detectors/PHG4BlockSubsystem.cc">
<polygon fill="none" stroke="black" points="252.5,-6.5 252.5,-47.5 439.5,-47.5 439.5,-6.5 252.5,-6.5"/>
<text text-anchor="start" x="260.5" y="-35.5" font-family="FreeSans" font-size="10.00">/home/yuhw/GitHub/SeaQuest</text>
<text text-anchor="start" x="260.5" y="-24.5" font-family="FreeSans" font-size="10.00">/seaquest&#45;offline/simulation</text>
<text text-anchor="middle" x="346" y="-13.5" font-family="FreeSans" font-size="10.00">/g4detectors/PHG4BlockSubsystem.cc</text>
</a>
</g>
</g>
<!-- Node4&#45;&gt;Node5 -->
<g id="edge4" class="edge"><title>Node4&#45;&gt;Node5</title>
<path fill="none" stroke="midnightblue" d="M347.326,-86.3298C347.037,-73.6289 346.708,-59.1399 346.45,-47.7798"/>
<polygon fill="midnightblue" stroke="midnightblue" points="343.83,-86.5521 347.556,-96.4699 350.828,-86.393 343.83,-86.5521"/>
</g>
<!-- Node7 -->
<g id="node7" class="node"><title>Node7</title>
<g id="a_node7"><a xlink:href="../../d1/de4/PHG4BNLTargetCoilSubsystem_8cc.html" target="_top" xlink:title="/home/yuhw/GitHub/SeaQuest\l/seaquest&#45;offline/simulation\l/g4detectors/PHG4BNLTargetCoilSubsystem.cc">
<polygon fill="none" stroke="black" points="457.5,-6.5 457.5,-47.5 684.5,-47.5 684.5,-6.5 457.5,-6.5"/>
<text text-anchor="start" x="465.5" y="-35.5" font-family="FreeSans" font-size="10.00">/home/yuhw/GitHub/SeaQuest</text>
<text text-anchor="start" x="465.5" y="-24.5" font-family="FreeSans" font-size="10.00">/seaquest&#45;offline/simulation</text>
<text text-anchor="middle" x="571" y="-13.5" font-family="FreeSans" font-size="10.00">/g4detectors/PHG4BNLTargetCoilSubsystem.cc</text>
</a>
</g>
</g>
<!-- Node6&#45;&gt;Node7 -->
<g id="edge6" class="edge"><title>Node6&#45;&gt;Node7</title>
<path fill="none" stroke="midnightblue" d="M571,-86.3298C571,-73.6289 571,-59.1399 571,-47.7798"/>
<polygon fill="midnightblue" stroke="midnightblue" points="567.5,-86.4699 571,-96.4699 574.5,-86.47 567.5,-86.4699"/>
</g>
<!-- Node9 -->
<g id="node9" class="node"><title>Node9</title>
<g id="a_node9"><a xlink:href="../../de/db1/PHG4CollimatorSubsystem_8cc.html" target="_top" xlink:title="/home/yuhw/GitHub/SeaQuest\l/seaquest&#45;offline/simulation\l/g4detectors/PHG4CollimatorSubsystem.cc">
<polygon fill="none" stroke="black" points="703,-6.5 703,-47.5 909,-47.5 909,-6.5 703,-6.5"/>
<text text-anchor="start" x="711" y="-35.5" font-family="FreeSans" font-size="10.00">/home/yuhw/GitHub/SeaQuest</text>
<text text-anchor="start" x="711" y="-24.5" font-family="FreeSans" font-size="10.00">/seaquest&#45;offline/simulation</text>
<text text-anchor="middle" x="806" y="-13.5" font-family="FreeSans" font-size="10.00">/g4detectors/PHG4CollimatorSubsystem.cc</text>
</a>
</g>
</g>
<!-- Node8&#45;&gt;Node9 -->
<g id="edge8" class="edge"><title>Node8&#45;&gt;Node9</title>
<path fill="none" stroke="midnightblue" d="M802.023,-86.3298C802.889,-73.6289 803.877,-59.1399 804.651,-47.7798"/>
<polygon fill="midnightblue" stroke="midnightblue" points="798.52,-86.255 801.332,-96.4699 805.504,-86.7312 798.52,-86.255"/>
</g>
<!-- Node11 -->
<g id="node11" class="node"><title>Node11</title>
<g id="a_node11"><a xlink:href="../../df/df1/PHG4CylinderSubsystem_8cc.html" target="_top" xlink:title="/home/yuhw/GitHub/SeaQuest\l/seaquest&#45;offline/simulation\l/g4detectors/PHG4CylinderSubsystem.cc">
<polygon fill="none" stroke="black" points="927.5,-6.5 927.5,-47.5 1124.5,-47.5 1124.5,-6.5 927.5,-6.5"/>
<text text-anchor="start" x="935.5" y="-35.5" font-family="FreeSans" font-size="10.00">/home/yuhw/GitHub/SeaQuest</text>
<text text-anchor="start" x="935.5" y="-24.5" font-family="FreeSans" font-size="10.00">/seaquest&#45;offline/simulation</text>
<text text-anchor="middle" x="1026" y="-13.5" font-family="FreeSans" font-size="10.00">/g4detectors/PHG4CylinderSubsystem.cc</text>
</a>
</g>
</g>
<!-- Node10&#45;&gt;Node11 -->
<g id="edge10" class="edge"><title>Node10&#45;&gt;Node11</title>
<path fill="none" stroke="midnightblue" d="M1018.05,-86.3298C1019.78,-73.6289 1021.75,-59.1399 1023.3,-47.7798"/>
<polygon fill="midnightblue" stroke="midnightblue" points="1014.55,-86.0887 1016.66,-96.4699 1021.48,-87.0346 1014.55,-86.0887"/>
</g>
<!-- Node14 -->
<g id="node14" class="node"><title>Node14</title>
<g id="a_node14"><a xlink:href="../../d0/df9/PHG4InnerHcalSubsystem_8cc.html" target="_top" xlink:title="/home/yuhw/GitHub/SeaQuest\l/seaquest&#45;offline/simulation\l/g4detectors/PHG4InnerHcalSubsystem.cc">
<polygon fill="none" stroke="black" points="1320,-6.5 1320,-47.5 1524,-47.5 1524,-6.5 1320,-6.5"/>
<text text-anchor="start" x="1328" y="-35.5" font-family="FreeSans" font-size="10.00">/home/yuhw/GitHub/SeaQuest</text>
<text text-anchor="start" x="1328" y="-24.5" font-family="FreeSans" font-size="10.00">/seaquest&#45;offline/simulation</text>
<text text-anchor="middle" x="1422" y="-13.5" font-family="FreeSans" font-size="10.00">/g4detectors/PHG4InnerHcalSubsystem.cc</text>
</a>
</g>
</g>
<!-- Node13&#45;&gt;Node14 -->
<g id="edge13" class="edge"><title>Node13&#45;&gt;Node14</title>
<path fill="none" stroke="midnightblue" d="M1436.68,-86.7103C1433.48,-73.919 1429.81,-59.2535 1426.94,-47.7798"/>
<polygon fill="midnightblue" stroke="midnightblue" points="1433.3,-87.6174 1439.12,-96.4699 1440.09,-85.9196 1433.3,-87.6174"/>
</g>
<!-- Node16 -->
<g id="node16" class="node"><title>Node16</title>
<g id="a_node16"><a xlink:href="../../db/d65/PHG4MapsSubsystem_8cc.html" target="_top" xlink:title="/home/yuhw/GitHub/SeaQuest\l/seaquest&#45;offline/simulation\l/g4detectors/PHG4MapsSubsystem.cc">
<polygon fill="none" stroke="black" points="1542,-6.5 1542,-47.5 1728,-47.5 1728,-6.5 1542,-6.5"/>
<text text-anchor="start" x="1550" y="-35.5" font-family="FreeSans" font-size="10.00">/home/yuhw/GitHub/SeaQuest</text>
<text text-anchor="start" x="1550" y="-24.5" font-family="FreeSans" font-size="10.00">/seaquest&#45;offline/simulation</text>
<text text-anchor="middle" x="1635" y="-13.5" font-family="FreeSans" font-size="10.00">/g4detectors/PHG4MapsSubsystem.cc</text>
</a>
</g>
</g>
<!-- Node15&#45;&gt;Node16 -->
<g id="edge15" class="edge"><title>Node15&#45;&gt;Node16</title>
<path fill="none" stroke="midnightblue" d="M1646.27,-86.3298C1643.81,-73.6289 1641.02,-59.1399 1638.82,-47.7798"/>
<polygon fill="midnightblue" stroke="midnightblue" points="1642.89,-87.3154 1648.23,-96.4699 1649.77,-85.9876 1642.89,-87.3154"/>
</g>
<!-- Node18 -->
<g id="node18" class="node"><title>Node18</title>
<g id="a_node18"><a xlink:href="../../dc/d41/PHG4mRICHSubsystem_8cc.html" target="_top" xlink:title="/home/yuhw/GitHub/SeaQuest\l/seaquest&#45;offline/simulation\l/g4detectors/PHG4mRICHSubsystem.cc">
<polygon fill="none" stroke="black" points="1746,-6.5 1746,-47.5 1940,-47.5 1940,-6.5 1746,-6.5"/>
<text text-anchor="start" x="1754" y="-35.5" font-family="FreeSans" font-size="10.00">/home/yuhw/GitHub/SeaQuest</text>
<text text-anchor="start" x="1754" y="-24.5" font-family="FreeSans" font-size="10.00">/seaquest&#45;offline/simulation</text>
<text text-anchor="middle" x="1843" y="-13.5" font-family="FreeSans" font-size="10.00">/g4detectors/PHG4mRICHSubsystem.cc</text>
</a>
</g>
</g>
<!-- Node17&#45;&gt;Node18 -->
<g id="edge17" class="edge"><title>Node17&#45;&gt;Node18</title>
<path fill="none" stroke="midnightblue" d="M1850.95,-86.3298C1849.22,-73.6289 1847.25,-59.1399 1845.7,-47.7798"/>
<polygon fill="midnightblue" stroke="midnightblue" points="1847.52,-87.0346 1852.34,-96.4699 1854.45,-86.0887 1847.52,-87.0346"/>
</g>
<!-- Node20 -->
<g id="node20" class="node"><title>Node20</title>
<g id="a_node20"><a xlink:href="../../d8/d21/PHG4OuterHcalSubsystem_8cc.html" target="_top" xlink:title="/home/yuhw/GitHub/SeaQuest\l/seaquest&#45;offline/simulation\l/g4detectors/PHG4OuterHcalSubsystem.cc">
<polygon fill="none" stroke="black" points="1958,-6.5 1958,-47.5 2164,-47.5 2164,-6.5 1958,-6.5"/>
<text text-anchor="start" x="1966" y="-35.5" font-family="FreeSans" font-size="10.00">/home/yuhw/GitHub/SeaQuest</text>
<text text-anchor="start" x="1966" y="-24.5" font-family="FreeSans" font-size="10.00">/seaquest&#45;offline/simulation</text>
<text text-anchor="middle" x="2061" y="-13.5" font-family="FreeSans" font-size="10.00">/g4detectors/PHG4OuterHcalSubsystem.cc</text>
</a>
</g>
</g>
<!-- Node19&#45;&gt;Node20 -->
<g id="edge19" class="edge"><title>Node19&#45;&gt;Node20</title>
<path fill="none" stroke="midnightblue" d="M2065.64,-86.3298C2064.63,-73.6289 2063.48,-59.1399 2062.57,-47.7798"/>
<polygon fill="midnightblue" stroke="midnightblue" points="2062.16,-86.779 2066.45,-96.4699 2069.14,-86.2239 2062.16,-86.779"/>
</g>
<!-- Node22 -->
<g id="node22" class="node"><title>Node22</title>
<g id="a_node22"><a xlink:href="../../dd/dc9/PHG4PolyconSubsystem_8cc.html" target="_top" xlink:title="/home/yuhw/GitHub/SeaQuest\l/seaquest&#45;offline/simulation\l/g4detectors/PHG4PolyconSubsystem.cc">
<polygon fill="none" stroke="black" points="2182.5,-6.5 2182.5,-47.5 2379.5,-47.5 2379.5,-6.5 2182.5,-6.5"/>
<text text-anchor="start" x="2190.5" y="-35.5" font-family="FreeSans" font-size="10.00">/home/yuhw/GitHub/SeaQuest</text>
<text text-anchor="start" x="2190.5" y="-24.5" font-family="FreeSans" font-size="10.00">/seaquest&#45;offline/simulation</text>
<text text-anchor="middle" x="2281" y="-13.5" font-family="FreeSans" font-size="10.00">/g4detectors/PHG4PolyconSubsystem.cc</text>
</a>
</g>
</g>
<!-- Node21&#45;&gt;Node22 -->
<g id="edge21" class="edge"><title>Node21&#45;&gt;Node22</title>
<path fill="none" stroke="midnightblue" d="M2281.66,-86.3298C2281.52,-73.6289 2281.35,-59.1399 2281.22,-47.7798"/>
<polygon fill="midnightblue" stroke="midnightblue" points="2278.16,-86.5104 2281.78,-96.4699 2285.16,-86.4308 2278.16,-86.5104"/>
</g>
<!-- Node24 -->
<g id="node24" class="node"><title>Node24</title>
<g id="a_node24"><a xlink:href="../../d1/d16/PHG4Prototype2InnerHcalSubsystem_8cc.html" target="_top" xlink:title="/home/yuhw/GitHub/SeaQuest\l/seaquest&#45;offline/simulation\l/g4detectors/PHG4Prototype2InnerHcal\lSubsystem.cc">
<polygon fill="none" stroke="black" points="2397.5,-1 2397.5,-53 2586.5,-53 2586.5,-1 2397.5,-1"/>
<text text-anchor="start" x="2405.5" y="-41" font-family="FreeSans" font-size="10.00">/home/yuhw/GitHub/SeaQuest</text>
<text text-anchor="start" x="2405.5" y="-30" font-family="FreeSans" font-size="10.00">/seaquest&#45;offline/simulation</text>
<text text-anchor="start" x="2405.5" y="-19" font-family="FreeSans" font-size="10.00">/g4detectors/PHG4Prototype2InnerHcal</text>
<text text-anchor="middle" x="2492" y="-8" font-family="FreeSans" font-size="10.00">Subsystem.cc</text>
</a>
</g>
</g>
<!-- Node23&#45;&gt;Node24 -->
<g id="edge23" class="edge"><title>Node23&#45;&gt;Node24</title>
<path fill="none" stroke="midnightblue" d="M2491.4,-80.4892C2491.51,-71.3088 2491.62,-61.616 2491.71,-53.0921"/>
<polygon fill="midnightblue" stroke="midnightblue" points="2487.9,-80.5076 2491.29,-90.5468 2494.9,-80.5872 2487.9,-80.5076"/>
</g>
<!-- Node26 -->
<g id="node26" class="node"><title>Node26</title>
<g id="a_node26"><a xlink:href="../../d6/d39/PHG4Prototype2OuterHcalSubsystem_8cc.html" target="_top" xlink:title="/home/yuhw/GitHub/SeaQuest\l/seaquest&#45;offline/simulation\l/g4detectors/PHG4Prototype2OuterHcal\lSubsystem.cc">
<polygon fill="none" stroke="black" points="2604.5,-1 2604.5,-53 2795.5,-53 2795.5,-1 2604.5,-1"/>
<text text-anchor="start" x="2612.5" y="-41" font-family="FreeSans" font-size="10.00">/home/yuhw/GitHub/SeaQuest</text>
<text text-anchor="start" x="2612.5" y="-30" font-family="FreeSans" font-size="10.00">/seaquest&#45;offline/simulation</text>
<text text-anchor="start" x="2612.5" y="-19" font-family="FreeSans" font-size="10.00">/g4detectors/PHG4Prototype2OuterHcal</text>
<text text-anchor="middle" x="2700" y="-8" font-family="FreeSans" font-size="10.00">Subsystem.cc</text>
</a>
</g>
</g>
<!-- Node25&#45;&gt;Node26 -->
<g id="edge25" class="edge"><title>Node25&#45;&gt;Node26</title>
<path fill="none" stroke="midnightblue" d="M2700,-80.4892C2700,-71.3088 2700,-61.616 2700,-53.0921"/>
<polygon fill="midnightblue" stroke="midnightblue" points="2696.5,-80.5467 2700,-90.5468 2703.5,-80.5468 2696.5,-80.5467"/>
</g>
<!-- Node28 -->
<g id="node28" class="node"><title>Node28</title>
<g id="a_node28"><a xlink:href="../../d7/d11/PHG4SpacalPrototypeSubsystem_8cc.html" target="_top" xlink:title="/home/yuhw/GitHub/SeaQuest\l/seaquest&#45;offline/simulation\l/g4detectors/PHG4SpacalPrototypeSubsystem.cc">
<polygon fill="none" stroke="black" points="2813.5,-6.5 2813.5,-47.5 3046.5,-47.5 3046.5,-6.5 2813.5,-6.5"/>
<text text-anchor="start" x="2821.5" y="-35.5" font-family="FreeSans" font-size="10.00">/home/yuhw/GitHub/SeaQuest</text>
<text text-anchor="start" x="2821.5" y="-24.5" font-family="FreeSans" font-size="10.00">/seaquest&#45;offline/simulation</text>
<text text-anchor="middle" x="2930" y="-13.5" font-family="FreeSans" font-size="10.00">/g4detectors/PHG4SpacalPrototypeSubsystem.cc</text>
</a>
</g>
</g>
<!-- Node27&#45;&gt;Node28 -->
<g id="edge27" class="edge"><title>Node27&#45;&gt;Node28</title>
<path fill="none" stroke="midnightblue" d="M2929.34,-86.3298C2929.48,-73.6289 2929.65,-59.1399 2929.78,-47.7798"/>
<polygon fill="midnightblue" stroke="midnightblue" points="2925.84,-86.4308 2929.22,-96.4699 2932.84,-86.5104 2925.84,-86.4308"/>
</g>
<!-- Node30 -->
<g id="node30" class="node"><title>Node30</title>
<g id="a_node30"><a xlink:href="../../dc/d4c/PHG4SpacalSubsystem_8cc.html" target="_top" xlink:title="/home/yuhw/GitHub/SeaQuest\l/seaquest&#45;offline/simulation\l/g4detectors/PHG4SpacalSubsystem.cc">
<polygon fill="none" stroke="black" points="3065,-6.5 3065,-47.5 3257,-47.5 3257,-6.5 3065,-6.5"/>
<text text-anchor="start" x="3073" y="-35.5" font-family="FreeSans" font-size="10.00">/home/yuhw/GitHub/SeaQuest</text>
<text text-anchor="start" x="3073" y="-24.5" font-family="FreeSans" font-size="10.00">/seaquest&#45;offline/simulation</text>
<text text-anchor="middle" x="3161" y="-13.5" font-family="FreeSans" font-size="10.00">/g4detectors/PHG4SpacalSubsystem.cc</text>
</a>
</g>
</g>
<!-- Node29&#45;&gt;Node30 -->
<g id="edge29" class="edge"><title>Node29&#45;&gt;Node30</title>
<path fill="none" stroke="midnightblue" d="M3159.01,-86.3298C3159.44,-73.6289 3159.94,-59.1399 3160.33,-47.7798"/>
<polygon fill="midnightblue" stroke="midnightblue" points="3155.51,-86.3565 3158.67,-96.4699 3162.5,-86.595 3155.51,-86.3565"/>
</g>
<!-- Node32 -->
<g id="node32" class="node"><title>Node32</title>
<g id="a_node32"><a xlink:href="../../df/de1/PHG4TargetCoilSubsystem_8cc.html" target="_top" xlink:title="/home/yuhw/GitHub/SeaQuest\l/seaquest&#45;offline/simulation\l/g4detectors/PHG4TargetCoilSubsystem.cc">
<polygon fill="none" stroke="black" points="3275,-6.5 3275,-47.5 3481,-47.5 3481,-6.5 3275,-6.5"/>
<text text-anchor="start" x="3283" y="-35.5" font-family="FreeSans" font-size="10.00">/home/yuhw/GitHub/SeaQuest</text>
<text text-anchor="start" x="3283" y="-24.5" font-family="FreeSans" font-size="10.00">/seaquest&#45;offline/simulation</text>
<text text-anchor="middle" x="3378" y="-13.5" font-family="FreeSans" font-size="10.00">/g4detectors/PHG4TargetCoilSubsystem.cc</text>
</a>
</g>
</g>
<!-- Node31&#45;&gt;Node32 -->
<g id="edge31" class="edge"><title>Node31&#45;&gt;Node32</title>
<path fill="none" stroke="midnightblue" d="M3374.02,-86.3298C3374.89,-73.6289 3375.88,-59.1399 3376.65,-47.7798"/>
<polygon fill="midnightblue" stroke="midnightblue" points="3370.52,-86.255 3373.33,-96.4699 3377.5,-86.7312 3370.52,-86.255"/>
</g>
</g>
</svg>
