<?xml version="1.0" encoding="UTF-8" standalone="no"?>
<!DOCTYPE svg PUBLIC "-//W3C//DTD SVG 1.1//EN"
 "http://www.w3.org/Graphics/SVG/1.1/DTD/svg11.dtd">
<!-- Generated by graphviz version 2.36.0 (20140111.2315)
 -->
<!-- Title: SubsysReco Pages: 1 -->
<svg width="368pt" height="218pt"
 viewBox="0.00 0.00 368.00 218.00" xmlns="http://www.w3.org/2000/svg" xmlns:xlink="http://www.w3.org/1999/xlink">
<g id="graph0" class="graph" transform="scale(1 1) rotate(0) translate(4 214)">
<title>SubsysReco</title>
<!-- Node1 -->
<g id="node1" class="node"><title>Node1</title>
<polygon fill="#bfbfbf" stroke="black" points="108.5,-95.5 108.5,-114.5 179.5,-114.5 179.5,-95.5 108.5,-95.5"/>
<text text-anchor="middle" x="144" y="-102.5" font-family="FreeSans" font-size="10.00">SubsysReco</text>
</g>
<!-- Node3 -->
<g id="node3" class="node"><title>Node3</title>
<g id="a_node3"><a xlink:href="../../d0/dbd/classDetectorConstructionWrapper.html" target="_top" xlink:title="DetectorConstructionWrapper">
<polygon fill="none" stroke="black" points="216,-190.5 216,-209.5 360,-209.5 360,-190.5 216,-190.5"/>
<text text-anchor="middle" x="288" y="-197.5" font-family="FreeSans" font-size="10.00">DetectorConstructionWrapper</text>
</a>
</g>
</g>
<!-- Node1&#45;&gt;Node3 -->
<g id="edge2" class="edge"><title>Node1&#45;&gt;Node3</title>
<path fill="none" stroke="midnightblue" d="M156.992,-122.745C169.661,-140.134 191.213,-166.127 216,-181 222.456,-184.873 229.707,-187.971 237.044,-190.444"/>
<polygon fill="midnightblue" stroke="midnightblue" points="159.829,-120.696 151.206,-114.541 154.109,-124.731 159.829,-120.696"/>
</g>
<!-- Node4 -->
<g id="node4" class="node"><title>Node4</title>
<g id="a_node4"><a xlink:href="../../d4/dff/classKalmanFastTrackingWrapper.html" target="_top" xlink:title="KalmanFastTrackingWrapper">
<polygon fill="none" stroke="black" points="216.5,-152.5 216.5,-171.5 359.5,-171.5 359.5,-152.5 216.5,-152.5"/>
<text text-anchor="middle" x="288" y="-159.5" font-family="FreeSans" font-size="10.00">KalmanFastTrackingWrapper</text>
</a>
</g>
</g>
<!-- Node1&#45;&gt;Node4 -->
<g id="edge3" class="edge"><title>Node1&#45;&gt;Node4</title>
<path fill="none" stroke="midnightblue" d="M168.94,-119.598C182.404,-127.347 199.731,-136.569 216,-143 225.137,-146.612 235.201,-149.77 244.808,-152.42"/>
<polygon fill="midnightblue" stroke="midnightblue" points="170.692,-116.567 160.296,-114.521 167.147,-122.603 170.692,-116.567"/>
</g>
<!-- Node5 -->
<g id="node5" class="node"><title>Node5</title>
<g id="a_node5"><a xlink:href="../../de/d0f/classPHGeomFileImport.html" target="_top" xlink:title="Fun4All module to import TGeo ROOT Geometry at run time. ">
<polygon fill="none" stroke="black" points="237.5,-114.5 237.5,-133.5 338.5,-133.5 338.5,-114.5 237.5,-114.5"/>
<text text-anchor="middle" x="288" y="-121.5" font-family="FreeSans" font-size="10.00">PHGeomFileImport</text>
</a>
</g>
</g>
<!-- Node1&#45;&gt;Node5 -->
<g id="edge4" class="edge"><title>Node1&#45;&gt;Node5</title>
<path fill="none" stroke="midnightblue" d="M189.857,-111.002C204.956,-113.022 221.889,-115.288 237.336,-117.355"/>
<polygon fill="midnightblue" stroke="midnightblue" points="190.113,-107.505 179.737,-109.648 189.185,-114.443 190.113,-107.505"/>
</g>
<!-- Node6 -->
<g id="node6" class="node"><title>Node6</title>
<g id="a_node6"><a xlink:href="../../db/dda/classReadMySql.html" target="_top" xlink:title="ReadMySql">
<polygon fill="none" stroke="black" points="255,-76.5 255,-95.5 321,-95.5 321,-76.5 255,-76.5"/>
<text text-anchor="middle" x="288" y="-83.5" font-family="FreeSans" font-size="10.00">ReadMySql</text>
</a>
</g>
</g>
<!-- Node1&#45;&gt;Node6 -->
<g id="edge5" class="edge"><title>Node1&#45;&gt;Node6</title>
<path fill="none" stroke="midnightblue" d="M189.733,-99.0146C210.76,-96.2011 235.366,-92.9087 254.568,-90.3394"/>
<polygon fill="midnightblue" stroke="midnightblue" points="189.185,-95.5567 179.737,-100.352 190.113,-102.495 189.185,-95.5567"/>
</g>
<!-- Node7 -->
<g id="node7" class="node"><title>Node7</title>
<g id="a_node7"><a xlink:href="../../d0/d68/classSimpleReadMySql.html" target="_top" xlink:title="SimpleReadMySql">
<polygon fill="none" stroke="black" points="240,-38.5 240,-57.5 336,-57.5 336,-38.5 240,-38.5"/>
<text text-anchor="middle" x="288" y="-45.5" font-family="FreeSans" font-size="10.00">SimpleReadMySql</text>
</a>
</g>
</g>
<!-- Node1&#45;&gt;Node7 -->
<g id="edge6" class="edge"><title>Node1&#45;&gt;Node7</title>
<path fill="none" stroke="midnightblue" d="M168.94,-90.4023C182.404,-82.6534 199.731,-73.431 216,-67 225.137,-63.388 235.201,-60.23 244.808,-57.5795"/>
<polygon fill="midnightblue" stroke="midnightblue" points="167.147,-87.3966 160.296,-95.479 170.692,-93.4326 167.147,-87.3966"/>
</g>
<!-- Node8 -->
<g id="node8" class="node"><title>Node8</title>
<g id="a_node8"><a xlink:href="../../da/da5/classTestAnalyzer.html" target="_top" xlink:title="TestAnalyzer">
<polygon fill="none" stroke="black" points="251.5,-0.5 251.5,-19.5 324.5,-19.5 324.5,-0.5 251.5,-0.5"/>
<text text-anchor="middle" x="288" y="-7.5" font-family="FreeSans" font-size="10.00">TestAnalyzer</text>
</a>
</g>
</g>
<!-- Node1&#45;&gt;Node8 -->
<g id="edge7" class="edge"><title>Node1&#45;&gt;Node8</title>
<path fill="none" stroke="midnightblue" d="M156.992,-87.2546C169.661,-69.8662 191.213,-43.8731 216,-29 226.613,-22.6317 239.377,-18.3616 251.138,-15.5139"/>
<polygon fill="midnightblue" stroke="midnightblue" points="154.109,-85.2693 151.206,-95.4588 159.829,-89.3035 154.109,-85.2693"/>
</g>
<!-- Node2 -->
<g id="node2" class="node"><title>Node2</title>
<g id="a_node2"><a xlink:href="../../d5/dec/classFun4AllBase.html" target="_top" xlink:title="Fun4AllBase">
<polygon fill="none" stroke="black" points="0,-95.5 0,-114.5 72,-114.5 72,-95.5 0,-95.5"/>
<text text-anchor="middle" x="36" y="-102.5" font-family="FreeSans" font-size="10.00">Fun4AllBase</text>
</a>
</g>
</g>
<!-- Node2&#45;&gt;Node1 -->
<g id="edge1" class="edge"><title>Node2&#45;&gt;Node1</title>
<path fill="none" stroke="midnightblue" d="M82.1284,-105C90.921,-105 100.009,-105 108.396,-105"/>
<polygon fill="midnightblue" stroke="midnightblue" points="82.0022,-101.5 72.0021,-105 82.0021,-108.5 82.0022,-101.5"/>
</g>
</g>
</svg>
