<?xml version="1.0" encoding="UTF-8" standalone="no"?>
<!DOCTYPE svg PUBLIC "-//W3C//DTD SVG 1.1//EN"
 "http://www.w3.org/Graphics/SVG/1.1/DTD/svg11.dtd">
<!-- Generated by graphviz version 2.36.0 (20140111.2315)
 -->
<!-- Title: EventReducer::EventReducer Pages: 1 -->
<svg width="1022pt" height="711pt"
 viewBox="0.00 0.00 1022.00 711.33" xmlns="http://www.w3.org/2000/svg" xmlns:xlink="http://www.w3.org/1999/xlink">
<g id="graph0" class="graph" transform="scale(1 1) rotate(0) translate(4 707.332)">
<title>EventReducer::EventReducer</title>
<!-- Node1 -->
<g id="node1" class="node"><title>Node1</title>
<polygon fill="#bfbfbf" stroke="black" points="0.5,-481.832 0.5,-500.832 143.5,-500.832 143.5,-481.832 0.5,-481.832"/>
<text text-anchor="middle" x="72" y="-488.832" font-family="FreeSans" font-size="10.00">EventReducer::EventReducer</text>
</g>
<!-- Node2 -->
<g id="node2" class="node"><title>Node2</title>
<g id="a_node2"><a xlink:href="../../d6/deb/classTriggerAnalyzer.html#adbe21c345df4405cea2e4e1d334e8253" target="_top" xlink:title="TriggerAnalyzer::buildTriggerTree">
<polygon fill="none" stroke="black" points="182,-639.832 182,-658.832 340,-658.832 340,-639.832 182,-639.832"/>
<text text-anchor="middle" x="261" y="-646.832" font-family="FreeSans" font-size="10.00">TriggerAnalyzer::buildTriggerTree</text>
</a>
</g>
</g>
<!-- Node1&#45;&gt;Node2 -->
<g id="edge1" class="edge"><title>Node1&#45;&gt;Node2</title>
<path fill="none" stroke="midnightblue" d="M83.4497,-500.981C102.392,-518.387 143.796,-556.049 180,-586.332 199.679,-602.792 222.756,-620.836 239.054,-633.378"/>
<polygon fill="midnightblue" stroke="midnightblue" points="237.28,-636.429 247.346,-639.735 241.539,-630.874 237.28,-636.429"/>
</g>
<!-- Node4 -->
<g id="node4" class="node"><title>Node4</title>
<g id="a_node4"><a xlink:href="../../d6/deb/classTriggerAnalyzer.html#a4212359548aef2d1346a73687c623ac8" target="_top" xlink:title="TriggerAnalyzer::init">
<polygon fill="none" stroke="black" points="210.5,-557.832 210.5,-576.832 311.5,-576.832 311.5,-557.832 210.5,-557.832"/>
<text text-anchor="middle" x="261" y="-564.832" font-family="FreeSans" font-size="10.00">TriggerAnalyzer::init</text>
</a>
</g>
</g>
<!-- Node1&#45;&gt;Node4 -->
<g id="edge3" class="edge"><title>Node1&#45;&gt;Node4</title>
<path fill="none" stroke="midnightblue" d="M96.6837,-500.957C129.703,-514.377 189.712,-538.765 227.071,-553.949"/>
<polygon fill="midnightblue" stroke="midnightblue" points="225.927,-557.262 236.509,-557.784 228.562,-550.777 225.927,-557.262"/>
</g>
<!-- Node10 -->
<g id="node10" class="node"><title>Node10</title>
<g id="a_node10"><a xlink:href="../../d5/dda/classEventReducer.html#ae3e92e9415e867a14780af5c1d2ad78c" target="_top" xlink:title="EventReducer::initHodoMaskLUT">
<polygon fill="none" stroke="black" points="180.5,-329.832 180.5,-348.832 341.5,-348.832 341.5,-329.832 180.5,-329.832"/>
<text text-anchor="middle" x="261" y="-336.832" font-family="FreeSans" font-size="10.00">EventReducer::initHodoMaskLUT</text>
</a>
</g>
</g>
<!-- Node1&#45;&gt;Node10 -->
<g id="edge10" class="edge"><title>Node1&#45;&gt;Node10</title>
<path fill="none" stroke="midnightblue" d="M84.6977,-481.823C115.919,-456.446 201.477,-386.901 240.335,-355.316"/>
<polygon fill="midnightblue" stroke="midnightblue" points="242.754,-357.86 248.307,-348.836 238.339,-352.428 242.754,-357.86"/>
</g>
<!-- Node20 -->
<g id="node20" class="node"><title>Node20</title>
<g id="a_node20"><a xlink:href="../../d8/d62/classJobOptsSvc.html#aeb0d694dc08274aa90b0d6b1ee8384cb" target="_top" xlink:title="singlton instance ">
<polygon fill="none" stroke="black" points="593,-405.832 593,-424.832 705,-424.832 705,-405.832 593,-405.832"/>
<text text-anchor="middle" x="649" y="-412.832" font-family="FreeSans" font-size="10.00">JobOptsSvc::instance</text>
</a>
</g>
</g>
<!-- Node1&#45;&gt;Node20 -->
<g id="edge20" class="edge"><title>Node1&#45;&gt;Node20</title>
<path fill="none" stroke="midnightblue" d="M143.552,-497.152C234.426,-502.674 396.558,-505.805 530,-472.332 564.717,-463.623 601.329,-444.091 624.394,-430.327"/>
<polygon fill="midnightblue" stroke="midnightblue" points="626.4,-433.204 633.117,-425.011 622.756,-427.227 626.4,-433.204"/>
</g>
<!-- Node22 -->
<g id="node22" class="node"><title>Node22</title>
<g id="a_node22"><a xlink:href="../../d0/da0/classGeomSvc.html#a2b7ecf5467120206b9479654c48ad7c4" target="_top" xlink:title="singlton instance ">
<polygon fill="none" stroke="black" points="210.5,-215.832 210.5,-234.832 311.5,-234.832 311.5,-215.832 210.5,-215.832"/>
<text text-anchor="middle" x="261" y="-222.832" font-family="FreeSans" font-size="10.00">GeomSvc::instance</text>
</a>
</g>
</g>
<!-- Node1&#45;&gt;Node22 -->
<g id="edge22" class="edge"><title>Node1&#45;&gt;Node22</title>
<path fill="none" stroke="midnightblue" d="M78.3514,-481.761C93.2811,-455.298 137.114,-379.211 180,-320.332 200.696,-291.917 227.477,-261.165 244.199,-242.576"/>
<polygon fill="midnightblue" stroke="midnightblue" points="246.995,-244.704 251.117,-234.944 241.808,-240.003 246.995,-244.704"/>
</g>
<!-- Node3 -->
<g id="node3" class="node"><title>Node3</title>
<g id="a_node3"><a xlink:href="../../d9/dcd/classTNode.html#ad1856d6d984edc157d0ce2020ba73c10" target="_top" xlink:title="TNode::add">
<polygon fill="none" stroke="black" points="421,-683.832 421,-702.832 487,-702.832 487,-683.832 421,-683.832"/>
<text text-anchor="middle" x="454" y="-690.832" font-family="FreeSans" font-size="10.00">TNode::add</text>
</a>
</g>
</g>
<!-- Node2&#45;&gt;Node3 -->
<g id="edge2" class="edge"><title>Node2&#45;&gt;Node3</title>
<path fill="none" stroke="midnightblue" d="M303.444,-658.879C335.224,-666.2 378.911,-676.264 410.862,-683.624"/>
<polygon fill="midnightblue" stroke="midnightblue" points="410.263,-687.078 420.794,-685.912 411.834,-680.257 410.263,-687.078"/>
</g>
<!-- Node5 -->
<g id="node5" class="node"><title>Node5</title>
<g id="a_node5"><a xlink:href="../../d5/d72/classTriggerRoad.html#ad1799daa1cd4a7c7f8d0b39c97b7a802" target="_top" xlink:title="TriggerRoad::clear">
<polygon fill="none" stroke="black" points="406.5,-595.832 406.5,-614.832 501.5,-614.832 501.5,-595.832 406.5,-595.832"/>
<text text-anchor="middle" x="454" y="-602.832" font-family="FreeSans" font-size="10.00">TriggerRoad::clear</text>
</a>
</g>
</g>
<!-- Node4&#45;&gt;Node5 -->
<g id="edge4" class="edge"><title>Node4&#45;&gt;Node5</title>
<path fill="none" stroke="midnightblue" d="M310.197,-576.921C336.477,-582.149 369.15,-588.649 396.608,-594.112"/>
<polygon fill="midnightblue" stroke="midnightblue" points="395.976,-597.555 406.467,-596.074 397.342,-590.69 395.976,-597.555"/>
</g>
<!-- Node6 -->
<g id="node6" class="node"><title>Node6</title>
<g id="a_node6"><a xlink:href="../../d5/d72/classTriggerRoad.html#a7325e31db4452eba53e7a536d720ade3" target="_top" xlink:title="TriggerRoad::isValid">
<polygon fill="none" stroke="black" points="402.5,-519.832 402.5,-538.832 505.5,-538.832 505.5,-519.832 402.5,-519.832"/>
<text text-anchor="middle" x="454" y="-526.832" font-family="FreeSans" font-size="10.00">TriggerRoad::isValid</text>
</a>
</g>
</g>
<!-- Node4&#45;&gt;Node6 -->
<g id="edge5" class="edge"><title>Node4&#45;&gt;Node6</title>
<path fill="none" stroke="midnightblue" d="M310.197,-557.743C335.97,-552.615 367.891,-546.264 395.012,-540.868"/>
<polygon fill="midnightblue" stroke="midnightblue" points="396.024,-544.236 405.149,-538.852 394.658,-537.37 396.024,-544.236"/>
</g>
<!-- Node8 -->
<g id="node8" class="node"><title>Node8</title>
<g id="a_node8"><a xlink:href="../../d5/d72/classTriggerRoad.html#affb1214bf3dda5cbeb9ff171ab681641" target="_top" xlink:title="TriggerRoad::getRoadID">
<polygon fill="none" stroke="black" points="394.5,-557.832 394.5,-576.832 513.5,-576.832 513.5,-557.832 394.5,-557.832"/>
<text text-anchor="middle" x="454" y="-564.832" font-family="FreeSans" font-size="10.00">TriggerRoad::getRoadID</text>
</a>
</g>
</g>
<!-- Node4&#45;&gt;Node8 -->
<g id="edge7" class="edge"><title>Node4&#45;&gt;Node8</title>
<path fill="none" stroke="midnightblue" d="M311.684,-567.332C333.832,-567.332 360.289,-567.332 384.289,-567.332"/>
<polygon fill="midnightblue" stroke="midnightblue" points="384.405,-570.832 394.405,-567.332 384.405,-563.832 384.405,-570.832"/>
</g>
<!-- Node9 -->
<g id="node9" class="node"><title>Node9</title>
<g id="a_node9"><a xlink:href="../../d6/deb/classTriggerAnalyzer.html#a229c582ae4a6de49bfbfef24f9642561" target="_top" xlink:title="TriggerAnalyzer::makeRoad\lPairs">
<polygon fill="none" stroke="black" points="387,-634.332 387,-664.332 521,-664.332 521,-634.332 387,-634.332"/>
<text text-anchor="start" x="395" y="-652.332" font-family="FreeSans" font-size="10.00">TriggerAnalyzer::makeRoad</text>
<text text-anchor="middle" x="454" y="-641.332" font-family="FreeSans" font-size="10.00">Pairs</text>
</a>
</g>
</g>
<!-- Node4&#45;&gt;Node9 -->
<g id="edge9" class="edge"><title>Node4&#45;&gt;Node9</title>
<path fill="none" stroke="midnightblue" d="M279.738,-576.984C302.202,-588.989 342.292,-609.685 378,-624.332 383.45,-626.567 389.182,-628.756 394.946,-630.851"/>
<polygon fill="midnightblue" stroke="midnightblue" points="394.04,-634.243 404.635,-634.279 396.375,-627.644 394.04,-634.243"/>
</g>
<!-- Node7 -->
<g id="node7" class="node"><title>Node7</title>
<g id="a_node7"><a xlink:href="../../d5/d72/classTriggerRoad.html#a54f9154ab88c8742e9ed4d8df493c9db" target="_top" xlink:title="TriggerRoad::getTB">
<polygon fill="none" stroke="black" points="599,-538.832 599,-557.832 699,-557.832 699,-538.832 599,-538.832"/>
<text text-anchor="middle" x="649" y="-545.832" font-family="FreeSans" font-size="10.00">TriggerRoad::getTB</text>
</a>
</g>
</g>
<!-- Node6&#45;&gt;Node7 -->
<g id="edge6" class="edge"><title>Node6&#45;&gt;Node7</title>
<path fill="none" stroke="midnightblue" d="M505.708,-534.324C531.259,-536.839 562.385,-539.903 589.003,-542.524"/>
<polygon fill="midnightblue" stroke="midnightblue" points="588.668,-546.007 598.963,-543.504 589.354,-539.041 588.668,-546.007"/>
</g>
<!-- Node8&#45;&gt;Node7 -->
<g id="edge8" class="edge"><title>Node8&#45;&gt;Node7</title>
<path fill="none" stroke="midnightblue" d="M513.692,-561.554C537.467,-559.213 564.878,-556.515 588.713,-554.168"/>
<polygon fill="midnightblue" stroke="midnightblue" points="589.079,-557.649 598.688,-553.186 588.393,-550.683 589.079,-557.649"/>
</g>
<!-- Node11 -->
<g id="node11" class="node"><title>Node11</title>
<g id="a_node11"><a xlink:href="../../d0/da0/classGeomSvc.html#a3e4f40789e9b2a98477ab8e8191d5ff2" target="_top" xlink:title="Get the plane position. ">
<polygon fill="none" stroke="black" points="391.5,-291.832 391.5,-310.832 516.5,-310.832 516.5,-291.832 391.5,-291.832"/>
<text text-anchor="middle" x="454" y="-298.832" font-family="FreeSans" font-size="10.00">GeomSvc::getDetectorID</text>
</a>
</g>
</g>
<!-- Node10&#45;&gt;Node11 -->
<g id="edge11" class="edge"><title>Node10&#45;&gt;Node11</title>
<path fill="none" stroke="midnightblue" d="M310.197,-329.743C335.97,-324.615 367.891,-318.264 395.012,-312.868"/>
<polygon fill="midnightblue" stroke="midnightblue" points="396.024,-316.236 405.149,-310.852 394.658,-309.37 396.024,-316.236"/>
</g>
<!-- Node12 -->
<g id="node12" class="node"><title>Node12</title>
<g id="a_node12"><a xlink:href="../../d0/da0/classGeomSvc.html#ab5c7737b3c015da421b6ac756a35213c" target="_top" xlink:title="GeomSvc::getPlaneNElements">
<polygon fill="none" stroke="black" points="378.5,-215.832 378.5,-234.832 529.5,-234.832 529.5,-215.832 378.5,-215.832"/>
<text text-anchor="middle" x="454" y="-222.832" font-family="FreeSans" font-size="10.00">GeomSvc::getPlaneNElements</text>
</a>
</g>
</g>
<!-- Node10&#45;&gt;Node12 -->
<g id="edge12" class="edge"><title>Node10&#45;&gt;Node12</title>
<path fill="none" stroke="midnightblue" d="M271.71,-329.828C290.645,-311.769 334.473,-272.257 378,-249.332 386.261,-244.98 395.453,-241.243 404.49,-238.101"/>
<polygon fill="midnightblue" stroke="midnightblue" points="405.771,-241.364 414.184,-234.925 403.592,-234.712 405.771,-241.364"/>
</g>
<!-- Node13 -->
<g id="node13" class="node"><title>Node13</title>
<g id="a_node13"><a xlink:href="../../d0/da0/classGeomSvc.html#a58a3d25847e956be5173e1c0241d8cc3" target="_top" xlink:title="GeomSvc::getPlanePosition">
<polygon fill="none" stroke="black" points="385,-177.832 385,-196.832 523,-196.832 523,-177.832 385,-177.832"/>
<text text-anchor="middle" x="454" y="-184.832" font-family="FreeSans" font-size="10.00">GeomSvc::getPlanePosition</text>
</a>
</g>
</g>
<!-- Node10&#45;&gt;Node13 -->
<g id="edge13" class="edge"><title>Node10&#45;&gt;Node13</title>
<path fill="none" stroke="midnightblue" d="M270.131,-329.696C295.361,-299.839 371.049,-210.601 378,-206.332 381.443,-204.217 385.111,-202.337 388.906,-200.666"/>
<polygon fill="midnightblue" stroke="midnightblue" points="390.484,-203.808 398.54,-196.926 387.951,-197.282 390.484,-203.808"/>
</g>
<!-- Node14 -->
<g id="node14" class="node"><title>Node14</title>
<g id="a_node14"><a xlink:href="../../d0/da0/classGeomSvc.html#af4a7c6010841138de3cbcabe33ec8e03" target="_top" xlink:title="GeomSvc::get2DBoxSize">
<polygon fill="none" stroke="black" points="586.5,-291.832 586.5,-310.832 711.5,-310.832 711.5,-291.832 586.5,-291.832"/>
<text text-anchor="middle" x="649" y="-298.832" font-family="FreeSans" font-size="10.00">GeomSvc::get2DBoxSize</text>
</a>
</g>
</g>
<!-- Node10&#45;&gt;Node14 -->
<g id="edge14" class="edge"><title>Node10&#45;&gt;Node14</title>
<path fill="none" stroke="midnightblue" d="M276.199,-329.661C297.292,-315.941 338.659,-291.475 378,-282.332 454.324,-264.592 545.776,-278.025 600.264,-289.546"/>
<polygon fill="midnightblue" stroke="midnightblue" points="599.808,-293.029 610.324,-291.741 601.3,-286.19 599.808,-293.029"/>
</g>
<!-- Node16 -->
<g id="node16" class="node"><title>Node16</title>
<g id="a_node16"><a xlink:href="../../d0/da0/classGeomSvc.html#ac22b1c50a84423eb7aa7792595c2fca1" target="_top" xlink:title="GeomSvc::getPlaneType">
<polygon fill="none" stroke="black" points="392,-443.832 392,-462.832 516,-462.832 516,-443.832 392,-443.832"/>
<text text-anchor="middle" x="454" y="-450.832" font-family="FreeSans" font-size="10.00">GeomSvc::getPlaneType</text>
</a>
</g>
</g>
<!-- Node10&#45;&gt;Node16 -->
<g id="edge16" class="edge"><title>Node10&#45;&gt;Node16</title>
<path fill="none" stroke="midnightblue" d="M270.9,-349.049C289.097,-368.317 332.679,-411.472 378,-434.332 382.604,-436.654 387.514,-438.707 392.535,-440.519"/>
<polygon fill="midnightblue" stroke="midnightblue" points="391.681,-443.923 402.274,-443.715 393.864,-437.272 391.681,-443.923"/>
</g>
<!-- Node17 -->
<g id="node17" class="node"><title>Node17</title>
<g id="a_node17"><a xlink:href="../../d0/da0/classGeomSvc.html#aa473fe84216b361eab68967a0d41e30f" target="_top" xlink:title="GeomSvc::getExpElementID">
<polygon fill="none" stroke="black" points="384.5,-405.832 384.5,-424.832 523.5,-424.832 523.5,-405.832 384.5,-405.832"/>
<text text-anchor="middle" x="454" y="-412.832" font-family="FreeSans" font-size="10.00">GeomSvc::getExpElementID</text>
</a>
</g>
</g>
<!-- Node10&#45;&gt;Node17 -->
<g id="edge17" class="edge"><title>Node10&#45;&gt;Node17</title>
<path fill="none" stroke="midnightblue" d="M278.801,-348.982C300.936,-361.366 341.356,-382.855 378,-396.332 384.76,-398.818 391.979,-401.096 399.168,-403.145"/>
<polygon fill="midnightblue" stroke="midnightblue" points="398.339,-406.546 408.907,-405.793 400.176,-399.792 398.339,-406.546"/>
</g>
<!-- Node18 -->
<g id="node18" class="node"><title>Node18</title>
<g id="a_node18"><a xlink:href="../../d0/da0/classGeomSvc.html#a247234ec614ff09436ae5da46c2af983" target="_top" xlink:title="GeomSvc::getWireEndPoints">
<polygon fill="none" stroke="black" points="383,-367.832 383,-386.832 525,-386.832 525,-367.832 383,-367.832"/>
<text text-anchor="middle" x="454" y="-374.832" font-family="FreeSans" font-size="10.00">GeomSvc::getWireEndPoints</text>
</a>
</g>
</g>
<!-- Node10&#45;&gt;Node18 -->
<g id="edge18" class="edge"><title>Node10&#45;&gt;Node18</title>
<path fill="none" stroke="midnightblue" d="M310.197,-348.921C335.97,-354.048 367.891,-360.399 395.012,-365.795"/>
<polygon fill="midnightblue" stroke="midnightblue" points="394.658,-369.293 405.149,-367.812 396.024,-362.427 394.658,-369.293"/>
</g>
<!-- Node19 -->
<g id="node19" class="node"><title>Node19</title>
<g id="a_node19"><a xlink:href="../../d5/dda/classEventReducer.html#a683856e4721e710f3a21597bffbc2da6" target="_top" xlink:title="EventReducer::lineCrossing">
<polygon fill="none" stroke="black" points="386.5,-329.832 386.5,-348.832 521.5,-348.832 521.5,-329.832 386.5,-329.832"/>
<text text-anchor="middle" x="454" y="-336.832" font-family="FreeSans" font-size="10.00">EventReducer::lineCrossing</text>
</a>
</g>
</g>
<!-- Node10&#45;&gt;Node19 -->
<g id="edge19" class="edge"><title>Node10&#45;&gt;Node19</title>
<path fill="none" stroke="midnightblue" d="M341.618,-339.332C352.982,-339.332 364.654,-339.332 375.967,-339.332"/>
<polygon fill="midnightblue" stroke="midnightblue" points="376.236,-342.832 386.236,-339.332 376.236,-335.832 376.236,-342.832"/>
</g>
<!-- Node15 -->
<g id="node15" class="node"><title>Node15</title>
<g id="a_node15"><a xlink:href="../../d0/da0/classGeomSvc.html#a64fde7dce7f3df7cf534796d7da4ecdb" target="_top" xlink:title="GeomSvc::getDetectorName">
<polygon fill="none" stroke="black" points="768.5,-272.832 768.5,-291.832 909.5,-291.832 909.5,-272.832 768.5,-272.832"/>
<text text-anchor="middle" x="839" y="-279.832" font-family="FreeSans" font-size="10.00">GeomSvc::getDetectorName</text>
</a>
</g>
</g>
<!-- Node14&#45;&gt;Node15 -->
<g id="edge15" class="edge"><title>Node14&#45;&gt;Node15</title>
<path fill="none" stroke="midnightblue" d="M711.558,-295.11C726.492,-293.601 742.671,-291.966 758.309,-290.386"/>
<polygon fill="midnightblue" stroke="midnightblue" points="758.891,-293.845 768.488,-289.357 758.187,-286.88 758.891,-293.845"/>
</g>
<!-- Node21 -->
<g id="node21" class="node"><title>Node21</title>
<g id="a_node21"><a xlink:href="../../dd/d23/JobOptsSvc_8cxx.html#a71e70a8ecc08c35494b083076d2ace7b" target="_top" xlink:title="debug">
<polygon fill="none" stroke="black" points="817.5,-405.832 817.5,-424.832 860.5,-424.832 860.5,-405.832 817.5,-405.832"/>
<text text-anchor="middle" x="839" y="-412.832" font-family="FreeSans" font-size="10.00">debug</text>
</a>
</g>
</g>
<!-- Node20&#45;&gt;Node21 -->
<g id="edge21" class="edge"><title>Node20&#45;&gt;Node21</title>
<path fill="none" stroke="midnightblue" d="M705.136,-415.332C738.422,-415.332 779.599,-415.332 807.213,-415.332"/>
<polygon fill="midnightblue" stroke="midnightblue" points="807.443,-418.832 817.443,-415.332 807.443,-411.832 807.443,-418.832"/>
</g>
<!-- Node23 -->
<g id="node23" class="node"><title>Node23</title>
<g id="a_node23"><a xlink:href="../../d0/da0/classGeomSvc.html#a96ec4efc82cbaed0b5623e4dd69385b6" target="_top" xlink:title="Initialization, either from MySQL or from ascii file. ">
<polygon fill="none" stroke="black" points="415.5,-139.832 415.5,-158.832 492.5,-158.832 492.5,-139.832 415.5,-139.832"/>
<text text-anchor="middle" x="454" y="-146.832" font-family="FreeSans" font-size="10.00">GeomSvc::init</text>
</a>
</g>
</g>
<!-- Node22&#45;&gt;Node23 -->
<g id="edge23" class="edge"><title>Node22&#45;&gt;Node23</title>
<path fill="none" stroke="midnightblue" d="M278.801,-215.682C300.936,-203.298 341.356,-181.808 378,-168.332 386.703,-165.131 396.165,-162.275 405.345,-159.81"/>
<polygon fill="midnightblue" stroke="midnightblue" points="406.332,-163.171 415.146,-157.292 404.59,-156.391 406.332,-163.171"/>
</g>
<!-- Node23&#45;&gt;Node20 -->
<g id="edge24" class="edge"><title>Node23&#45;&gt;Node20</title>
<path fill="none" stroke="midnightblue" d="M492.558,-150.944C505.984,-153.375 520.199,-158.377 530,-168.332 578.707,-217.802 534.415,-258.508 566,-320.332 582.045,-351.739 610.585,-381.411 629.403,-398.985"/>
<polygon fill="midnightblue" stroke="midnightblue" points="627.063,-401.588 636.808,-405.746 631.783,-396.418 627.063,-401.588"/>
</g>
<!-- Node24 -->
<g id="node24" class="node"><title>Node24</title>
<g id="a_node24"><a xlink:href="../../d8/d62/classJobOptsSvc.html#a69dc60468eadf965122fcb5d82be8d18" target="_top" xlink:title="Return the URL for the input MySQL server. ">
<polygon fill="none" stroke="black" points="566,-177.832 566,-196.832 732,-196.832 732,-177.832 566,-177.832"/>
<text text-anchor="middle" x="649" y="-184.832" font-family="FreeSans" font-size="10.00">JobOptsSvc::GetInputMySQLURL</text>
</a>
</g>
</g>
<!-- Node23&#45;&gt;Node24 -->
<g id="edge25" class="edge"><title>Node23&#45;&gt;Node24</title>
<path fill="none" stroke="midnightblue" d="M492.671,-156.749C520.189,-162.167 558.029,-169.617 589.47,-175.808"/>
<polygon fill="midnightblue" stroke="midnightblue" points="588.944,-179.271 599.432,-177.769 590.297,-172.403 588.944,-179.271"/>
</g>
<!-- Node25 -->
<g id="node25" class="node"><title>Node25</title>
<g id="a_node25"><a xlink:href="../../d0/da0/classGeomSvc.html#a315e886f05db8254ed7d320706e268e6" target="_top" xlink:title="Convert the official detectorName to local detectorName. ">
<polygon fill="none" stroke="black" points="569,-101.832 569,-120.832 729,-120.832 729,-101.832 569,-101.832"/>
<text text-anchor="middle" x="649" y="-108.832" font-family="FreeSans" font-size="10.00">GeomSvc::toLocalDetectorName</text>
</a>
</g>
</g>
<!-- Node23&#45;&gt;Node25 -->
<g id="edge26" class="edge"><title>Node23&#45;&gt;Node25</title>
<path fill="none" stroke="midnightblue" d="M492.671,-141.915C520.189,-136.496 558.029,-129.046 589.47,-122.856"/>
<polygon fill="midnightblue" stroke="midnightblue" points="590.297,-126.26 599.432,-120.894 588.944,-119.392 590.297,-126.26"/>
</g>
<!-- Node26 -->
<g id="node26" class="node"><title>Node26</title>
<g id="a_node26"><a xlink:href="../../dc/d90/classPlane.html#a7fbb07f76503fe057772e01f542afc32" target="_top" xlink:title="Plane::update">
<polygon fill="none" stroke="black" points="801.5,-44.8316 801.5,-63.8316 876.5,-63.8316 876.5,-44.8316 801.5,-44.8316"/>
<text text-anchor="middle" x="839" y="-51.8316" font-family="FreeSans" font-size="10.00">Plane::update</text>
</a>
</g>
</g>
<!-- Node23&#45;&gt;Node26 -->
<g id="edge27" class="edge"><title>Node23&#45;&gt;Node26</title>
<path fill="none" stroke="midnightblue" d="M459.446,-139.479C471.839,-113.391 509.612,-42.717 566,-16.3316 648.158,22.1122 758.416,-17.5657 809.64,-40.4871"/>
<polygon fill="midnightblue" stroke="midnightblue" points="808.237,-43.6941 818.785,-44.6847 811.157,-37.3322 808.237,-43.6941"/>
</g>
<!-- Node27 -->
<g id="node27" class="node"><title>Node27</title>
<g id="a_node27"><a xlink:href="../../dc/d90/classPlane.html#a48ab3a309bee8c386464b36a7593df16" target="_top" xlink:title="Plane::getW">
<polygon fill="none" stroke="black" points="946,-101.832 946,-120.832 1014,-120.832 1014,-101.832 946,-101.832"/>
<text text-anchor="middle" x="980" y="-108.832" font-family="FreeSans" font-size="10.00">Plane::getW</text>
</a>
</g>
</g>
<!-- Node23&#45;&gt;Node27 -->
<g id="edge31" class="edge"><title>Node23&#45;&gt;Node27</title>
<path fill="none" stroke="midnightblue" d="M492.642,-146.849C545.934,-143.311 646.424,-136.558 732,-130.332 803.483,-125.131 886.568,-118.65 935.858,-114.759"/>
<polygon fill="midnightblue" stroke="midnightblue" points="936.154,-118.247 945.847,-113.97 935.602,-111.268 936.154,-118.247"/>
</g>
<!-- Node28 -->
<g id="node28" class="node"><title>Node28</title>
<g id="a_node28"><a xlink:href="../../d0/da0/classGeomSvc.html#a418543d7b33fc95092b2cd4a7496f1b8" target="_top" xlink:title="GeomSvc::loadMilleAlignment">
<polygon fill="none" stroke="black" points="576,-63.8316 576,-82.8316 722,-82.8316 722,-63.8316 576,-63.8316"/>
<text text-anchor="middle" x="649" y="-70.8316" font-family="FreeSans" font-size="10.00">GeomSvc::loadMilleAlignment</text>
</a>
</g>
</g>
<!-- Node23&#45;&gt;Node28 -->
<g id="edge29" class="edge"><title>Node23&#45;&gt;Node28</title>
<path fill="none" stroke="midnightblue" d="M470.614,-139.739C491.602,-127.217 530.401,-105.368 566,-92.3316 573.06,-89.746 580.595,-87.4322 588.129,-85.3854"/>
<polygon fill="midnightblue" stroke="midnightblue" points="589.178,-88.7294 597.991,-82.8481 587.434,-81.9501 589.178,-88.7294"/>
</g>
<!-- Node29 -->
<g id="node29" class="node"><title>Node29</title>
<g id="a_node29"><a xlink:href="../../d0/da0/classGeomSvc.html#ab6c810e39b86ce66a4be6a596b4d54b8" target="_top" xlink:title="GeomSvc::loadAlignment">
<polygon fill="none" stroke="black" points="586,-25.8316 586,-44.8316 712,-44.8316 712,-25.8316 586,-25.8316"/>
<text text-anchor="middle" x="649" y="-32.8316" font-family="FreeSans" font-size="10.00">GeomSvc::loadAlignment</text>
</a>
</g>
</g>
<!-- Node23&#45;&gt;Node29 -->
<g id="edge32" class="edge"><title>Node23&#45;&gt;Node29</title>
<path fill="none" stroke="midnightblue" d="M463.121,-139.817C480.133,-120.527 521.626,-76.7489 566,-54.3316 570.81,-51.9018 575.935,-49.7778 581.186,-47.9218"/>
<polygon fill="midnightblue" stroke="midnightblue" points="582.276,-51.2479 590.73,-44.8626 580.139,-44.5819 582.276,-51.2479"/>
</g>
<!-- Node30 -->
<g id="node30" class="node"><title>Node30</title>
<g id="a_node30"><a xlink:href="../../d0/da0/classGeomSvc.html#abc60088ed5985a796f5df18ae4299661" target="_top" xlink:title="GeomSvc::loadCalibration">
<polygon fill="none" stroke="black" points="585,-253.832 585,-272.832 713,-272.832 713,-253.832 585,-253.832"/>
<text text-anchor="middle" x="649" y="-260.832" font-family="FreeSans" font-size="10.00">GeomSvc::loadCalibration</text>
</a>
</g>
</g>
<!-- Node23&#45;&gt;Node30 -->
<g id="edge34" class="edge"><title>Node23&#45;&gt;Node30</title>
<path fill="none" stroke="midnightblue" d="M492.666,-152.316C505.638,-154.939 519.522,-159.714 530,-168.332 558.867,-192.073 536.892,-220.887 566,-244.332 568.963,-246.718 572.17,-248.815 575.543,-250.658"/>
<polygon fill="midnightblue" stroke="midnightblue" points="574.257,-253.92 584.801,-254.964 577.21,-247.573 574.257,-253.92"/>
</g>
<!-- Node31 -->
<g id="node31" class="node"><title>Node31</title>
<g id="a_node31"><a xlink:href="../../d0/da0/classGeomSvc.html#a0c78d3ac904cfbb367e96c73f176630d" target="_top" xlink:title="GeomSvc::initWireLUT">
<polygon fill="none" stroke="black" points="591,-215.832 591,-234.832 707,-234.832 707,-215.832 591,-215.832"/>
<text text-anchor="middle" x="649" y="-222.832" font-family="FreeSans" font-size="10.00">GeomSvc::initWireLUT</text>
</a>
</g>
</g>
<!-- Node23&#45;&gt;Node31 -->
<g id="edge36" class="edge"><title>Node23&#45;&gt;Node31</title>
<path fill="none" stroke="midnightblue" d="M492.849,-154.589C505.27,-157.418 518.76,-161.742 530,-168.332 550.07,-180.098 545.811,-194.771 566,-206.332 570.755,-209.055 575.877,-211.388 581.156,-213.387"/>
<polygon fill="midnightblue" stroke="midnightblue" points="580.188,-216.754 590.782,-216.636 582.427,-210.121 580.188,-216.754"/>
</g>
<!-- Node26&#45;&gt;Node27 -->
<g id="edge28" class="edge"><title>Node26&#45;&gt;Node27</title>
<path fill="none" stroke="midnightblue" d="M863.265,-63.8721C886.017,-73.2021 920.868,-87.4932 946.382,-97.9558"/>
<polygon fill="midnightblue" stroke="midnightblue" points="945.078,-101.204 955.659,-101.76 947.734,-94.7275 945.078,-101.204"/>
</g>
<!-- Node28&#45;&gt;Node26 -->
<g id="edge30" class="edge"><title>Node28&#45;&gt;Node26</title>
<path fill="none" stroke="midnightblue" d="M722.148,-66.0401C745.268,-63.7034 770.255,-61.1781 791.084,-59.0731"/>
<polygon fill="midnightblue" stroke="midnightblue" points="791.659,-62.5329 801.256,-58.0451 790.955,-55.5684 791.659,-62.5329"/>
</g>
<!-- Node29&#45;&gt;Node26 -->
<g id="edge33" class="edge"><title>Node29&#45;&gt;Node26</title>
<path fill="none" stroke="midnightblue" d="M712.079,-41.6056C737.886,-44.2137 767.336,-47.19 791.263,-49.6082"/>
<polygon fill="midnightblue" stroke="midnightblue" points="791.192,-53.1187 801.493,-50.6421 791.896,-46.1542 791.192,-53.1187"/>
</g>
<!-- Node30&#45;&gt;Node15 -->
<g id="edge35" class="edge"><title>Node30&#45;&gt;Node15</title>
<path fill="none" stroke="midnightblue" d="M713.124,-269.711C727.512,-271.165 742.985,-272.729 757.973,-274.244"/>
<polygon fill="midnightblue" stroke="midnightblue" points="757.951,-277.759 768.252,-275.283 758.655,-270.795 757.951,-277.759"/>
</g>
</g>
</svg>
