<?xml version="1.0" encoding="UTF-8" standalone="no"?>
<!DOCTYPE svg PUBLIC "-//W3C//DTD SVG 1.1//EN"
 "http://www.w3.org/Graphics/SVG/1.1/DTD/svg11.dtd">
<!-- Generated by graphviz version 2.40.1 (20161225.0304)
 -->
<!-- Title: SQRun_v1 Pages: 1 -->
<svg width="176pt" height="220pt"
 viewBox="0.00 0.00 176.00 220.00" xmlns="http://www.w3.org/2000/svg" xmlns:xlink="http://www.w3.org/1999/xlink">
<g id="graph0" class="graph" transform="scale(1 1) rotate(0) translate(4 216)">
<title>SQRun_v1</title>
<!-- Node4 -->
<g id="node1" class="node">
<title>Node4</title>
<polygon fill="#bfbfbf" stroke="#000000" points="47,-.5 47,-19.5 110,-19.5 110,-.5 47,-.5"/>
<text text-anchor="middle" x="78.5" y="-7.5" font-family="FreeSans" font-size="10.00" fill="#000000">SQRun_v1</text>
</g>
<!-- Node5 -->
<g id="node2" class="node">
<title>Node5</title>
<g id="a_node2"><a xlink:href="../../d7/db7/classSQRun.html" target="_top" xlink:title="SQRun">
<polygon fill="none" stroke="#000000" points="19.5,-67.5 19.5,-86.5 67.5,-86.5 67.5,-67.5 19.5,-67.5"/>
<text text-anchor="middle" x="43.5" y="-74.5" font-family="FreeSans" font-size="10.00" fill="#000000">SQRun</text>
</a>
</g>
</g>
<!-- Node5&#45;&gt;Node4 -->
<g id="edge1" class="edge">
<title>Node5&#45;&gt;Node4</title>
<path fill="none" stroke="#191970" d="M53.3014,-58.2374C59.8709,-45.6614 68.2483,-29.6246 73.4947,-19.5817"/>
<polygon fill="#191970" stroke="#191970" points="50.0427,-56.9165 48.5146,-67.4005 56.2471,-60.1576 50.0427,-56.9165"/>
</g>
<!-- Node6 -->
<g id="node3" class="node">
<title>Node6</title>
<g id="a_node3"><a xlink:href="../../d9/d24/classPHObject.html" target="_top" xlink:title="PHObject">
<polygon fill="none" stroke="#000000" points="0,-130 0,-149 59,-149 59,-130 0,-130"/>
<text text-anchor="middle" x="29.5" y="-137" font-family="FreeSans" font-size="10.00" fill="#000000">PHObject</text>
</a>
</g>
</g>
<!-- Node6&#45;&gt;Node5 -->
<g id="edge2" class="edge">
<title>Node6&#45;&gt;Node5</title>
<path fill="none" stroke="#191970" d="M33.9201,-119.7675C36.3701,-108.8298 39.3104,-95.7035 41.2817,-86.9033"/>
<polygon fill="#191970" stroke="#191970" points="30.458,-119.2111 31.6875,-129.7344 37.2888,-120.7413 30.458,-119.2111"/>
</g>
<!-- Node7 -->
<g id="node4" class="node">
<title>Node7</title>
<polygon fill="none" stroke="#bfbfbf" points="4,-192.5 4,-211.5 55,-211.5 55,-192.5 4,-192.5"/>
<text text-anchor="middle" x="29.5" y="-199.5" font-family="FreeSans" font-size="10.00" fill="#000000">TObject</text>
</g>
<!-- Node7&#45;&gt;Node6 -->
<g id="edge3" class="edge">
<title>Node7&#45;&gt;Node6</title>
<path fill="none" stroke="#191970" d="M29.5,-181.925C29.5,-171.0568 29.5,-158.1118 29.5,-149.4033"/>
<polygon fill="#191970" stroke="#191970" points="26.0001,-182.2343 29.5,-192.2344 33.0001,-182.2344 26.0001,-182.2343"/>
</g>
<!-- Node8 -->
<g id="node5" class="node">
<title>Node8</title>
<g id="a_node5"><a xlink:title="STL class. ">
<polygon fill="none" stroke="#bfbfbf" points="91,-67.5 91,-86.5 148,-86.5 148,-67.5 91,-67.5"/>
<text text-anchor="middle" x="119.5" y="-74.5" font-family="FreeSans" font-size="10.00" fill="#000000">std::string</text>
</a>
</g>
</g>
<!-- Node8&#45;&gt;Node4 -->
<g id="edge4" class="edge">
<title>Node8&#45;&gt;Node4</title>
<path fill="none" stroke="#9a32cd" stroke-dasharray="5,2" d="M108.2464,-58.6099C100.5173,-45.9795 90.5699,-29.7241 84.3634,-19.5817"/>
<polygon fill="#9a32cd" stroke="#9a32cd" points="105.4206,-60.6977 113.6257,-67.4005 111.3914,-57.044 105.4206,-60.6977"/>
<text text-anchor="middle" x="125" y="-41" font-family="FreeSans" font-size="10.00" fill="#000000"> _run_desc</text>
</g>
<!-- Node9 -->
<g id="node6" class="node">
<title>Node9</title>
<g id="a_node6"><a xlink:title="STL class. ">
<polygon fill="none" stroke="#bfbfbf" points="77,-124.5 77,-154.5 168,-154.5 168,-124.5 77,-124.5"/>
<text text-anchor="start" x="85" y="-142.5" font-family="FreeSans" font-size="10.00" fill="#000000">std::basic_string&lt;</text>
<text text-anchor="middle" x="122.5" y="-131.5" font-family="FreeSans" font-size="10.00" fill="#000000"> char &gt;</text>
</a>
</g>
</g>
<!-- Node9&#45;&gt;Node8 -->
<g id="edge5" class="edge">
<title>Node9&#45;&gt;Node8</title>
<path fill="none" stroke="#191970" d="M121.2928,-114.3498C120.8271,-104.6481 120.3223,-94.1303 119.9673,-86.7356"/>
<polygon fill="#191970" stroke="#191970" points="117.7983,-114.5498 121.7738,-124.3705 124.7902,-114.2142 117.7983,-114.5498"/>
</g>
</g>
</svg>
