<?xml version="1.0" encoding="UTF-8" standalone="no"?>
<!DOCTYPE svg PUBLIC "-//W3C//DTD SVG 1.1//EN"
 "http://www.w3.org/Graphics/SVG/1.1/DTD/svg11.dtd">
<!-- Generated by graphviz version 2.30.1 (20200930.0103)
 -->
<!-- Title: PHPythia8::process_event Pages: 1 -->
<svg width="1046pt" height="350pt"
 viewBox="0.00 0.00 1046.00 350.00" xmlns="http://www.w3.org/2000/svg" xmlns:xlink="http://www.w3.org/1999/xlink">
<g id="graph0" class="graph" transform="scale(1 1) rotate(0) translate(4 346)">
<title>PHPythia8::process_event</title>
<!-- Node1 -->
<g id="node1" class="node"><title>Node1</title>
<polygon fill="#bfbfbf" stroke="black" points="0,-189 0,-219 100,-219 100,-189 0,-189"/>
<text text-anchor="start" x="8" y="-207" font-family="FreeSans" font-size="10.00">PHPythia8::process</text>
<text text-anchor="middle" x="50" y="-196" font-family="FreeSans" font-size="10.00">_event</text>
</g>
<!-- Node2 -->
<g id="node2" class="node"><title>Node2</title>
<g id="a_node2"><a xlink:href="../../dd/d2a/classPHHepMCGenHelper.html#a0cf16159882a28151fc1e20b083a32e7" target="_top" xlink:title="PHHepMCGenHelper::get\l_LegacyPARatio">
<polygon fill="none" stroke="black" points="149,-312 149,-342 275,-342 275,-312 149,-312"/>
<text text-anchor="start" x="157" y="-330" font-family="FreeSans" font-size="10.00">PHHepMCGenHelper::get</text>
<text text-anchor="middle" x="212" y="-319" font-family="FreeSans" font-size="10.00">_LegacyPARatio</text>
</a>
</g>
</g>
<!-- Node1&#45;&gt;Node2 -->
<g id="edge1" class="edge"><title>Node1&#45;&gt;Node2</title>
<path fill="none" stroke="midnightblue" d="M60.346,-219.186C74.2782,-240.614 102.48,-279.603 136,-302 138.942,-303.966 142.052,-305.789 145.267,-307.479"/>
<polygon fill="midnightblue" stroke="midnightblue" points="144.016,-310.76 154.55,-311.895 147.023,-304.438 144.016,-310.76"/>
</g>
<!-- Node3 -->
<g id="node3" class="node"><title>Node3</title>
<g id="a_node3"><a xlink:href="../../dd/d2a/classPHHepMCGenHelper.html#ab0c755f6e53c0bf57ccd314a0017d227" target="_top" xlink:title="send HepMC::GenEvent to DST tree. This function takes ownership of evt ">
<polygon fill="none" stroke="black" points="144,-263 144,-293 280,-293 280,-263 144,-263"/>
<text text-anchor="start" x="152" y="-281" font-family="FreeSans" font-size="10.00">PHHepMCGenHelper::insert</text>
<text text-anchor="middle" x="212" y="-270" font-family="FreeSans" font-size="10.00">_event</text>
</a>
</g>
</g>
<!-- Node1&#45;&gt;Node3 -->
<g id="edge2" class="edge"><title>Node1&#45;&gt;Node3</title>
<path fill="none" stroke="midnightblue" d="M74.1429,-219.044C90.8667,-229.487 114.249,-243.225 136,-253 141.008,-255.25 146.281,-257.408 151.616,-259.447"/>
<polygon fill="midnightblue" stroke="midnightblue" points="150.646,-262.819 161.239,-262.982 153.06,-256.248 150.646,-262.819"/>
</g>
<!-- Node20 -->
<g id="node20" class="node"><title>Node20</title>
<g id="a_node20"><a xlink:href="../../d8/d0e/classPHGenIntegral.html#a16c344a9ff51e404647871950bf75037" target="_top" xlink:title="Integrated luminosity in pb^&#45;1. ">
<polygon fill="none" stroke="black" points="163,-214 163,-244 261,-244 261,-214 163,-214"/>
<text text-anchor="start" x="171" y="-232" font-family="FreeSans" font-size="10.00">PHGenIntegral::set</text>
<text text-anchor="middle" x="212" y="-221" font-family="FreeSans" font-size="10.00">_Integrated_Lumi</text>
</a>
</g>
</g>
<!-- Node1&#45;&gt;Node20 -->
<g id="edge20" class="edge"><title>Node1&#45;&gt;Node20</title>
<path fill="none" stroke="midnightblue" d="M100.311,-211.705C116.967,-214.307 135.715,-217.237 152.982,-219.935"/>
<polygon fill="midnightblue" stroke="midnightblue" points="152.529,-223.406 162.95,-221.492 153.61,-216.49 152.529,-223.406"/>
</g>
<!-- Node21 -->
<g id="node21" class="node"><title>Node21</title>
<g id="a_node21"><a xlink:href="../../d8/d0e/classPHGenIntegral.html#a1a118b6282fc57664f98797fc2ab199d" target="_top" xlink:title="Number of accepted events in the event generator. This can be higher than fNProcessedEvent depending ...">
<polygon fill="none" stroke="black" points="136,-165 136,-195 288,-195 288,-165 136,-165"/>
<text text-anchor="start" x="144" y="-183" font-family="FreeSans" font-size="10.00">PHGenIntegral::set</text>
<text text-anchor="middle" x="212" y="-172" font-family="FreeSans" font-size="10.00">_N_Generator_Accepted_Event</text>
</a>
</g>
</g>
<!-- Node1&#45;&gt;Node21 -->
<g id="edge21" class="edge"><title>Node1&#45;&gt;Node21</title>
<path fill="none" stroke="midnightblue" d="M100.311,-196.603C108.517,-195.373 117.23,-194.066 126.024,-192.746"/>
<polygon fill="midnightblue" stroke="midnightblue" points="126.594,-196.2 135.964,-191.255 125.555,-189.278 126.594,-196.2"/>
</g>
<!-- Node22 -->
<g id="node22" class="node"><title>Node22</title>
<g id="a_node22"><a xlink:href="../../d8/d0e/classPHGenIntegral.html#ae0e2bea949283d9350110312f73673dd" target="_top" xlink:title="Number of processed events in the Fun4All cycles. ">
<polygon fill="none" stroke="black" points="158,-116 158,-146 266,-146 266,-116 158,-116"/>
<text text-anchor="start" x="166" y="-134" font-family="FreeSans" font-size="10.00">PHGenIntegral::set</text>
<text text-anchor="middle" x="212" y="-123" font-family="FreeSans" font-size="10.00">_N_Processed_Event</text>
</a>
</g>
</g>
<!-- Node1&#45;&gt;Node22 -->
<g id="edge22" class="edge"><title>Node1&#45;&gt;Node22</title>
<path fill="none" stroke="midnightblue" d="M74.9057,-188.857C91.5953,-178.698 114.625,-165.492 136,-156 141.018,-153.772 146.298,-151.63 151.637,-149.601"/>
<polygon fill="midnightblue" stroke="midnightblue" points="153.078,-152.801 161.266,-146.078 150.672,-146.227 153.078,-152.801"/>
</g>
<!-- Node23 -->
<g id="node23" class="node"><title>Node23</title>
<g id="a_node23"><a xlink:href="../../d8/d0e/classPHGenIntegral.html#ad07b6fe2f35d05ec2892dce02a375b06" target="_top" xlink:title="PHGenIntegral::set\l_Sum_Of_Weight">
<polygon fill="none" stroke="black" points="163,-67 163,-97 261,-97 261,-67 163,-67"/>
<text text-anchor="start" x="171" y="-85" font-family="FreeSans" font-size="10.00">PHGenIntegral::set</text>
<text text-anchor="middle" x="212" y="-74" font-family="FreeSans" font-size="10.00">_Sum_Of_Weight</text>
</a>
</g>
</g>
<!-- Node1&#45;&gt;Node23 -->
<g id="edge23" class="edge"><title>Node1&#45;&gt;Node23</title>
<path fill="none" stroke="midnightblue" d="M60.3835,-188.973C74.3615,-167.768 102.618,-129.182 136,-107 141.326,-103.461 147.198,-100.382 153.241,-97.7124"/>
<polygon fill="midnightblue" stroke="midnightblue" points="154.858,-100.834 162.823,-93.8481 152.239,-94.3424 154.858,-100.834"/>
</g>
<!-- Node4 -->
<g id="node4" class="node"><title>Node4</title>
<g id="a_node4"><a xlink:href="../../d7/d7b/classPHHepMCGenEvent.html#a34a8f753178a4d74085b90e3a5264907" target="_top" xlink:title="host an HepMC event ">
<polygon fill="none" stroke="black" points="324.5,-312.5 324.5,-331.5 473.5,-331.5 473.5,-312.5 324.5,-312.5"/>
<text text-anchor="middle" x="399" y="-319.5" font-family="FreeSans" font-size="10.00">PHHepMCGenEvent::addEvent</text>
</a>
</g>
</g>
<!-- Node3&#45;&gt;Node4 -->
<g id="edge3" class="edge"><title>Node3&#45;&gt;Node4</title>
<path fill="none" stroke="midnightblue" d="M276.149,-293.019C299.659,-298.611 325.991,-304.874 348.145,-310.143"/>
<polygon fill="midnightblue" stroke="midnightblue" points="347.466,-313.579 358.005,-312.488 349.086,-306.769 347.466,-313.579"/>
</g>
<!-- Node5 -->
<g id="node5" class="node"><title>Node5</title>
<g id="a_node5"><a xlink:href="../../d5/d41/classPHHepMCGenEventMap.html#ace1292e973fe2429bee746acb6aaddb9" target="_top" xlink:title="insert a event with specific embedding ID ">
<polygon fill="none" stroke="black" points="337.5,-263 337.5,-293 460.5,-293 460.5,-263 337.5,-263"/>
<text text-anchor="start" x="345.5" y="-281" font-family="FreeSans" font-size="10.00">PHHepMCGenEventMap</text>
<text text-anchor="middle" x="399" y="-270" font-family="FreeSans" font-size="10.00">::insert_event</text>
</a>
</g>
</g>
<!-- Node3&#45;&gt;Node5 -->
<g id="edge4" class="edge"><title>Node3&#45;&gt;Node5</title>
<path fill="none" stroke="midnightblue" d="M280.051,-278C295.404,-278 311.772,-278 327.274,-278"/>
<polygon fill="midnightblue" stroke="midnightblue" points="327.318,-281.5 337.318,-278 327.317,-274.5 327.318,-281.5"/>
</g>
<!-- Node9 -->
<g id="node9" class="node"><title>Node9</title>
<g id="a_node9"><a xlink:href="../../dd/d2a/classPHHepMCGenHelper.html#af1c2525b75067fcdd4c28de6007c5963" target="_top" xlink:title="move vertex according to vertex settings ">
<polygon fill="none" stroke="black" points="331,-148 331,-178 467,-178 467,-148 331,-148"/>
<text text-anchor="start" x="339" y="-166" font-family="FreeSans" font-size="10.00">PHHepMCGenHelper::move</text>
<text text-anchor="middle" x="399" y="-155" font-family="FreeSans" font-size="10.00">_vertex</text>
</a>
</g>
</g>
<!-- Node3&#45;&gt;Node9 -->
<g id="edge8" class="edge"><title>Node3&#45;&gt;Node9</title>
<path fill="none" stroke="midnightblue" d="M266.478,-262.859C273.893,-259.993 281.269,-256.71 288,-253 321.533,-234.518 354.83,-205.373 375.857,-185.284"/>
<polygon fill="midnightblue" stroke="midnightblue" points="378.552,-187.545 383.289,-178.069 373.676,-182.523 378.552,-187.545"/>
</g>
<!-- Node6 -->
<g id="node6" class="node"><title>Node6</title>
<g id="a_node6"><a xlink:href="../../d7/d7b/classPHHepMCGenEvent.html#a16b40df377cd06bfc6dc779d25740107" target="_top" xlink:title="PHHepMCGenEvent::Clone">
<polygon fill="none" stroke="black" points="523,-313.5 523,-332.5 657,-332.5 657,-313.5 523,-313.5"/>
<text text-anchor="middle" x="590" y="-320.5" font-family="FreeSans" font-size="10.00">PHHepMCGenEvent::Clone</text>
</a>
</g>
</g>
<!-- Node5&#45;&gt;Node6 -->
<g id="edge5" class="edge"><title>Node5&#45;&gt;Node6</title>
<path fill="none" stroke="midnightblue" d="M460.581,-292.424C485.9,-298.452 514.965,-305.373 539.034,-311.103"/>
<polygon fill="midnightblue" stroke="midnightblue" points="538.478,-314.569 549.017,-313.48 540.1,-307.759 538.478,-314.569"/>
</g>
<!-- Node8 -->
<g id="node8" class="node"><title>Node8</title>
<g id="a_node8"><a xlink:href="../../d5/d41/classPHHepMCGenEventMap.html#a9808332ce5629be39dc62c9c3d50a0e2" target="_top" xlink:title="PHHepMCGenEventMap\l::identify">
<polygon fill="none" stroke="black" points="528.5,-263 528.5,-293 651.5,-293 651.5,-263 528.5,-263"/>
<text text-anchor="start" x="536.5" y="-281" font-family="FreeSans" font-size="10.00">PHHepMCGenEventMap</text>
<text text-anchor="middle" x="590" y="-270" font-family="FreeSans" font-size="10.00">::identify</text>
</a>
</g>
</g>
<!-- Node5&#45;&gt;Node8 -->
<g id="edge7" class="edge"><title>Node5&#45;&gt;Node8</title>
<path fill="none" stroke="midnightblue" d="M460.581,-278C478.977,-278 499.35,-278 518.348,-278"/>
<polygon fill="midnightblue" stroke="midnightblue" points="518.438,-281.5 528.438,-278 518.438,-274.5 518.438,-281.5"/>
</g>
<!-- Node7 -->
<g id="node7" class="node"><title>Node7</title>
<g id="a_node7"><a xlink:href="../../d7/d7b/classPHHepMCGenEvent.html#a51bb6b2ee662beeefd54171ab480dccd" target="_top" xlink:title="PHHepMCGenEvent::PHHepMCGen\lEvent">
<polygon fill="none" stroke="black" points="706.5,-310 706.5,-340 879.5,-340 879.5,-310 706.5,-310"/>
<text text-anchor="start" x="714.5" y="-328" font-family="FreeSans" font-size="10.00">PHHepMCGenEvent::PHHepMCGen</text>
<text text-anchor="middle" x="793" y="-317" font-family="FreeSans" font-size="10.00">Event</text>
</a>
</g>
</g>
<!-- Node6&#45;&gt;Node7 -->
<g id="edge6" class="edge"><title>Node6&#45;&gt;Node7</title>
<path fill="none" stroke="midnightblue" d="M657.093,-323.658C669.676,-323.783 683.077,-323.916 696.365,-324.048"/>
<polygon fill="midnightblue" stroke="midnightblue" points="696.454,-327.549 706.488,-324.149 696.523,-320.55 696.454,-327.549"/>
</g>
<!-- Node10 -->
<g id="node10" class="node"><title>Node10</title>
<g id="a_node10"><a xlink:href="../../d8/dc4/classSQPrimaryVertexGen.html#acf0116c5e4797e4f14e22c701520d75d" target="_top" xlink:title="generate 3&#45;D vertex position ">
<polygon fill="none" stroke="black" points="535.5,-214 535.5,-244 644.5,-244 644.5,-214 535.5,-214"/>
<text text-anchor="start" x="543.5" y="-232" font-family="FreeSans" font-size="10.00">SQPrimaryVertexGen</text>
<text text-anchor="middle" x="590" y="-221" font-family="FreeSans" font-size="10.00">::generateVertex</text>
</a>
</g>
</g>
<!-- Node9&#45;&gt;Node10 -->
<g id="edge9" class="edge"><title>Node9&#45;&gt;Node10</title>
<path fill="none" stroke="midnightblue" d="M439.028,-178.092C459.978,-186.054 486.298,-195.838 510,-204 516.488,-206.234 523.302,-208.504 530.094,-210.718"/>
<polygon fill="midnightblue" stroke="midnightblue" points="529.398,-214.171 539.989,-213.912 531.548,-207.51 529.398,-214.171"/>
</g>
<!-- Node15 -->
<g id="node15" class="node"><title>Node15</title>
<g id="a_node15"><a xlink:href="../../d5/d41/classPHHepMCGenEventMap.html#aeee51cbc5dbbd18af41e66c03e955319" target="_top" xlink:title="fetch event ">
<polygon fill="none" stroke="black" points="519.5,-175.5 519.5,-194.5 660.5,-194.5 660.5,-175.5 519.5,-175.5"/>
<text text-anchor="middle" x="590" y="-182.5" font-family="FreeSans" font-size="10.00">PHHepMCGenEventMap::get</text>
</a>
</g>
</g>
<!-- Node9&#45;&gt;Node15 -->
<g id="edge14" class="edge"><title>Node9&#45;&gt;Node15</title>
<path fill="none" stroke="midnightblue" d="M467.166,-170.818C480.827,-172.408 495.321,-174.096 509.366,-175.73"/>
<polygon fill="midnightblue" stroke="midnightblue" points="509.158,-179.23 519.496,-176.91 509.967,-172.277 509.158,-179.23"/>
</g>
<!-- Node16 -->
<g id="node16" class="node"><title>Node16</title>
<g id="a_node16"><a xlink:href="../../d7/d7b/classPHHepMCGenEvent.html#aeb1f4b1ca526d968a3b025a3063c61c4" target="_top" xlink:title="collision vertex position in the Hall coordinate system, use PHENIX units of cm, ns ...">
<polygon fill="none" stroke="black" points="529,-126 529,-156 651,-156 651,-126 529,-126"/>
<text text-anchor="start" x="537" y="-144" font-family="FreeSans" font-size="10.00">PHHepMCGenEvent::get</text>
<text text-anchor="middle" x="590" y="-133" font-family="FreeSans" font-size="10.00">_collision_vertex</text>
</a>
</g>
</g>
<!-- Node9&#45;&gt;Node16 -->
<g id="edge15" class="edge"><title>Node9&#45;&gt;Node16</title>
<path fill="none" stroke="midnightblue" d="M467.166,-155.182C483.861,-153.238 501.801,-151.15 518.644,-149.19"/>
<polygon fill="midnightblue" stroke="midnightblue" points="519.44,-152.621 528.968,-147.988 518.63,-145.668 519.44,-152.621"/>
</g>
<!-- Node17 -->
<g id="node17" class="node"><title>Node17</title>
<g id="a_node17"><a xlink:href="../../d8/dc4/classSQPrimaryVertexGen.html#a27408c6d8e8747b9c45ada8b9efcd548" target="_top" xlink:title="get the proton/neutron ratio of the piece, must be called after generateVertex ">
<polygon fill="none" stroke="black" points="535.5,-77 535.5,-107 644.5,-107 644.5,-77 535.5,-77"/>
<text text-anchor="start" x="543.5" y="-95" font-family="FreeSans" font-size="10.00">SQPrimaryVertexGen</text>
<text text-anchor="middle" x="590" y="-84" font-family="FreeSans" font-size="10.00">::getPARatio</text>
</a>
</g>
</g>
<!-- Node9&#45;&gt;Node17 -->
<g id="edge16" class="edge"><title>Node9&#45;&gt;Node17</title>
<path fill="none" stroke="midnightblue" d="M433.877,-147.908C455.47,-138.519 484.151,-126.473 510,-117 516.262,-114.705 522.846,-112.422 529.432,-110.221"/>
<polygon fill="midnightblue" stroke="midnightblue" points="530.635,-113.509 539.043,-107.063 528.45,-106.859 530.635,-113.509"/>
</g>
<!-- Node9&#45;&gt;Node8 -->
<g id="edge17" class="edge"><title>Node9&#45;&gt;Node8</title>
<path fill="none" stroke="midnightblue" d="M414.663,-178.155C434.566,-197.936 472.025,-232.446 510,-253 514.023,-255.177 518.265,-257.199 522.61,-259.071"/>
<polygon fill="midnightblue" stroke="midnightblue" points="521.657,-262.46 532.241,-262.931 524.261,-255.962 521.657,-262.46"/>
</g>
<!-- Node18 -->
<g id="node18" class="node"><title>Node18</title>
<g id="a_node18"><a xlink:href="../../d7/d7b/classPHHepMCGenEvent.html#a4cd34cc37b99ec3a4a1301dfed8eab6c" target="_top" xlink:title="move the collision vertex position in the Hall coordinate system, use PHENIX units of cm...">
<polygon fill="none" stroke="black" points="510.5,-38.5 510.5,-57.5 669.5,-57.5 669.5,-38.5 510.5,-38.5"/>
<text text-anchor="middle" x="590" y="-45.5" font-family="FreeSans" font-size="10.00">PHHepMCGenEvent::moveVertex</text>
</a>
</g>
</g>
<!-- Node9&#45;&gt;Node18 -->
<g id="edge18" class="edge"><title>Node9&#45;&gt;Node18</title>
<path fill="none" stroke="midnightblue" d="M413.318,-147.695C432.544,-126.572 470.163,-88.7472 510,-68 515.306,-65.2368 521.013,-62.8408 526.846,-60.7661"/>
<polygon fill="midnightblue" stroke="midnightblue" points="528.293,-63.9768 536.731,-57.5697 526.139,-57.3163 528.293,-63.9768"/>
</g>
<!-- Node19 -->
<g id="node19" class="node"><title>Node19</title>
<g id="a_node19"><a xlink:href="../../dd/d2a/classPHHepMCGenHelper.html#a030e43db2086d86155f32e8c6cf5958b" target="_top" xlink:title="PHHepMCGenHelper::smear">
<polygon fill="none" stroke="black" points="520.5,-0.5 520.5,-19.5 659.5,-19.5 659.5,-0.5 520.5,-0.5"/>
<text text-anchor="middle" x="590" y="-7.5" font-family="FreeSans" font-size="10.00">PHHepMCGenHelper::smear</text>
</a>
</g>
</g>
<!-- Node9&#45;&gt;Node19 -->
<g id="edge19" class="edge"><title>Node9&#45;&gt;Node19</title>
<path fill="none" stroke="midnightblue" d="M408.006,-147.816C423.64,-119.717 461.03,-59.6836 510,-29 513.399,-26.8701 517.018,-24.9789 520.766,-23.2997"/>
<polygon fill="midnightblue" stroke="midnightblue" points="522.274,-26.4676 530.296,-19.547 519.709,-19.9544 522.274,-26.4676"/>
</g>
<!-- Node11 -->
<g id="node11" class="node"><title>Node11</title>
<g id="a_node11"><a xlink:href="../../d8/dc4/classSQPrimaryVertexGen.html#a747f021860226c5d7457c224d9661f44" target="_top" xlink:title="use the beam profile to generate vertex in X&#45;Y plane ">
<polygon fill="none" stroke="black" points="738.5,-261 738.5,-291 847.5,-291 847.5,-261 738.5,-261"/>
<text text-anchor="start" x="746.5" y="-279" font-family="FreeSans" font-size="10.00">SQPrimaryVertexGen</text>
<text text-anchor="middle" x="793" y="-268" font-family="FreeSans" font-size="10.00">::generateVtxPerp</text>
</a>
</g>
</g>
<!-- Node10&#45;&gt;Node11 -->
<g id="edge10" class="edge"><title>Node10&#45;&gt;Node11</title>
<path fill="none" stroke="midnightblue" d="M644.6,-241.533C670.278,-247.538 701.22,-254.773 728.112,-261.061"/>
<polygon fill="midnightblue" stroke="midnightblue" points="727.666,-264.551 738.2,-263.42 729.26,-257.735 727.666,-264.551"/>
</g>
<!-- Node12 -->
<g id="node12" class="node"><title>Node12</title>
<g id="a_node12"><a xlink:href="../../d8/dc4/classSQPrimaryVertexGen.html#a90d9890e48202ae68f36de2878ad2c11" target="_top" xlink:title="fill material profile using initial x/y position ">
<polygon fill="none" stroke="black" points="738.5,-212 738.5,-242 847.5,-242 847.5,-212 738.5,-212"/>
<text text-anchor="start" x="746.5" y="-230" font-family="FreeSans" font-size="10.00">SQPrimaryVertexGen</text>
<text text-anchor="middle" x="793" y="-219" font-family="FreeSans" font-size="10.00">::fillMaterialProfile</text>
</a>
</g>
</g>
<!-- Node10&#45;&gt;Node12 -->
<g id="edge11" class="edge"><title>Node10&#45;&gt;Node12</title>
<path fill="none" stroke="midnightblue" d="M644.6,-228.467C670.278,-228.211 701.22,-227.903 728.112,-227.636"/>
<polygon fill="midnightblue" stroke="midnightblue" points="728.236,-231.135 738.2,-227.535 728.166,-224.135 728.236,-231.135"/>
</g>
<!-- Node14 -->
<g id="node14" class="node"><title>Node14</title>
<g id="a_node14"><a xlink:href="../../d3/d10/classMaterialProfile.html#a03bdad4bc97bb6c8070ca809fd22f757" target="_top" xlink:title="MaterialProfile::findInteracting\lPiece">
<polygon fill="none" stroke="black" points="721.5,-163 721.5,-193 864.5,-193 864.5,-163 721.5,-163"/>
<text text-anchor="start" x="729.5" y="-181" font-family="FreeSans" font-size="10.00">MaterialProfile::findInteracting</text>
<text text-anchor="middle" x="793" y="-170" font-family="FreeSans" font-size="10.00">Piece</text>
</a>
</g>
</g>
<!-- Node10&#45;&gt;Node14 -->
<g id="edge13" class="edge"><title>Node10&#45;&gt;Node14</title>
<path fill="none" stroke="midnightblue" d="M644.6,-215.4C668.522,-209.33 697.013,-202.101 722.541,-195.624"/>
<polygon fill="midnightblue" stroke="midnightblue" points="723.701,-198.941 732.533,-193.089 721.979,-192.156 723.701,-198.941"/>
</g>
<!-- Node13 -->
<g id="node13" class="node"><title>Node13</title>
<g id="a_node13"><a xlink:href="../../d3/d10/classMaterialProfile.html#a9522494d6d40d47ebc8c72f9fc16d867" target="_top" xlink:title="MaterialProfile::calcProb">
<polygon fill="none" stroke="black" points="916.5,-217.5 916.5,-236.5 1037.5,-236.5 1037.5,-217.5 916.5,-217.5"/>
<text text-anchor="middle" x="977" y="-224.5" font-family="FreeSans" font-size="10.00">MaterialProfile::calcProb</text>
</a>
</g>
</g>
<!-- Node12&#45;&gt;Node13 -->
<g id="edge12" class="edge"><title>Node12&#45;&gt;Node13</title>
<path fill="none" stroke="midnightblue" d="M847.622,-227C866.015,-227 886.875,-227 906.352,-227"/>
<polygon fill="midnightblue" stroke="midnightblue" points="906.391,-230.5 916.391,-227 906.391,-223.5 906.391,-230.5"/>
</g>
</g>
</svg>
