<?xml version="1.0" encoding="UTF-8" standalone="no"?>
<!DOCTYPE svg PUBLIC "-//W3C//DTD SVG 1.1//EN"
 "http://www.w3.org/Graphics/SVG/1.1/DTD/svg11.dtd">
<!-- Generated by graphviz version 2.44.0 (0)
 -->
<!-- Title: /dev/shm/kenichi/update&#45;github&#45;e1039&#45;doc/e1039&#45;core/online Pages: 1 -->
<svg width="304pt" height="319pt"
 viewBox="0.00 0.00 304.00 319.00" xmlns="http://www.w3.org/2000/svg" xmlns:xlink="http://www.w3.org/1999/xlink">
<g id="graph0" class="graph" transform="scale(1 1) rotate(0) translate(4 315)">
<title>/dev/shm/kenichi/update&#45;github&#45;e1039&#45;doc/e1039&#45;core/online</title>
<g id="clust1" class="cluster">
<title>clusterdir_c252d373c2dfd5bf2b63283e19448f22</title>
<g id="a_clust1"><a xlink:href="dir_c252d373c2dfd5bf2b63283e19448f22.html" target="_top" xlink:title="e1039&#45;core">
<polygon fill="#ddddee" stroke="black" points="8,-8 8,-303 288,-303 288,-8 8,-8"/>
<text text-anchor="middle" x="148" y="-291" font-family="FreeSans" font-size="10.00">e1039&#45;core</text>
</a>
</g>
</g>
<g id="clust2" class="cluster">
<title>clusterdir_d21ece685a52aedf8cca0ce069439da4</title>
<g id="a_clust2"><a xlink:href="dir_d21ece685a52aedf8cca0ce069439da4.html" target="_top">
<polygon fill="#eeeeff" stroke="black" points="16,-224 16,-276 280,-276 280,-224 16,-224"/>
</a>
</g>
</g>
<!-- dir_580285352ad11749b46c2981d6aa0acd -->
<g id="node1" class="node">
<title>dir_580285352ad11749b46c2981d6aa0acd</title>
<g id="a_node1"><a xlink:href="dir_580285352ad11749b46c2981d6aa0acd.html" target="_top" xlink:title="packages">
<polygon fill="none" stroke="red" points="179,-196 117,-196 117,-160 179,-160 179,-196"/>
<text text-anchor="middle" x="148" y="-175.5" font-family="FreeSans" font-size="10.00">packages</text>
</a>
</g>
</g>
<!-- dir_68ea5daf33bc8f64eb000f9043862517 -->
<g id="node2" class="node">
<title>dir_68ea5daf33bc8f64eb000f9043862517</title>
<g id="a_node2"><a xlink:href="dir_68ea5daf33bc8f64eb000f9043862517.html" target="_top" xlink:title="framework">
<polygon fill="none" stroke="red" points="153,-52 83,-52 83,-16 153,-16 153,-52"/>
<text text-anchor="middle" x="118" y="-31.5" font-family="FreeSans" font-size="10.00">framework</text>
</a>
</g>
</g>
<!-- dir_580285352ad11749b46c2981d6aa0acd&#45;&gt;dir_68ea5daf33bc8f64eb000f9043862517 -->
<g id="edge1" class="edge">
<title>dir_580285352ad11749b46c2981d6aa0acd&#45;&gt;dir_68ea5daf33bc8f64eb000f9043862517</title>
<path fill="none" stroke="black" d="M140.21,-159.68C135.95,-149.49 130.95,-136.24 128,-124 123.12,-103.72 120.6,-80.25 119.32,-62.51"/>
<polygon fill="black" stroke="black" points="122.8,-62.04 118.67,-52.28 115.81,-62.48 122.8,-62.04"/>
<g id="a_edge1&#45;headlabel"><a xlink:href="dir_000069_000055.html" target="_top" xlink:title="200">
<text text-anchor="middle" x="125.86" y="-62.95" font-family="FreeSans" font-size="10.00">200</text>
</a>
</g>
</g>
<!-- dir_a191a2f8ef855d264776f547e73bbeb4 -->
<g id="node3" class="node">
<title>dir_a191a2f8ef855d264776f547e73bbeb4</title>
<g id="a_node3"><a xlink:href="dir_a191a2f8ef855d264776f547e73bbeb4.html" target="_top" xlink:title="interface_main">
<polygon fill="none" stroke="black" points="227,-124 137,-124 137,-88 227,-88 227,-124"/>
<text text-anchor="middle" x="182" y="-103.5" font-family="FreeSans" font-size="10.00">interface_main</text>
</a>
</g>
</g>
<!-- dir_580285352ad11749b46c2981d6aa0acd&#45;&gt;dir_a191a2f8ef855d264776f547e73bbeb4 -->
<g id="edge2" class="edge">
<title>dir_580285352ad11749b46c2981d6aa0acd&#45;&gt;dir_a191a2f8ef855d264776f547e73bbeb4</title>
<path fill="none" stroke="black" d="M150.49,-159.7C153.57,-151.64 158.09,-141.89 162.83,-132.98"/>
<polygon fill="black" stroke="black" points="165.97,-134.54 167.8,-124.1 159.86,-131.12 165.97,-134.54"/>
<g id="a_edge2&#45;headlabel"><a xlink:href="dir_000069_000065.html" target="_top" xlink:title="107">
<text text-anchor="middle" x="166.7" y="-136.56" font-family="FreeSans" font-size="10.00">107</text>
</a>
</g>
</g>
<!-- dir_a191a2f8ef855d264776f547e73bbeb4&#45;&gt;dir_580285352ad11749b46c2981d6aa0acd -->
<g id="edge6" class="edge">
<title>dir_a191a2f8ef855d264776f547e73bbeb4&#45;&gt;dir_580285352ad11749b46c2981d6aa0acd</title>
<path fill="none" stroke="black" d="M179.59,-124.1C176.53,-132.13 172.02,-141.87 167.28,-150.8"/>
<polygon fill="black" stroke="black" points="164.13,-149.26 162.32,-159.7 170.25,-152.67 164.13,-149.26"/>
<g id="a_edge6&#45;headlabel"><a xlink:href="dir_000065_000069.html" target="_top" xlink:title="1">
<text text-anchor="middle" x="163.41" y="-142.24" font-family="FreeSans" font-size="10.00">1</text>
</a>
</g>
</g>
<!-- dir_a191a2f8ef855d264776f547e73bbeb4&#45;&gt;dir_68ea5daf33bc8f64eb000f9043862517 -->
<g id="edge7" class="edge">
<title>dir_a191a2f8ef855d264776f547e73bbeb4&#45;&gt;dir_68ea5daf33bc8f64eb000f9043862517</title>
<path fill="none" stroke="black" d="M166.18,-87.7C158.43,-79.22 148.96,-68.86 140.48,-59.58"/>
<polygon fill="black" stroke="black" points="142.97,-57.12 133.64,-52.1 137.8,-61.85 142.97,-57.12"/>
<g id="a_edge7&#45;headlabel"><a xlink:href="dir_000065_000055.html" target="_top" xlink:title="34">
<text text-anchor="middle" x="147.49" y="-55.36" font-family="FreeSans" font-size="10.00">34</text>
</a>
</g>
</g>
<!-- dir_d21ece685a52aedf8cca0ce069439da4 -->
<g id="node4" class="node">
<title>dir_d21ece685a52aedf8cca0ce069439da4</title>
<text text-anchor="middle" x="245" y="-247.5" font-family="FreeSans" font-size="10.00">online</text>
</g>
<!-- dir_c0b4c4499abbbde7d0cdb113d55c4a74 -->
<g id="node5" class="node">
<title>dir_c0b4c4499abbbde7d0cdb113d55c4a74</title>
<g id="a_node5"><a xlink:href="dir_c0b4c4499abbbde7d0cdb113d55c4a74.html" target="_top" xlink:title="decoder_maindaq">
<polygon fill="white" stroke="black" points="200,-268 96,-268 96,-232 200,-232 200,-268"/>
<text text-anchor="middle" x="148" y="-247.5" font-family="FreeSans" font-size="10.00">decoder_maindaq</text>
</a>
</g>
</g>
<!-- dir_c0b4c4499abbbde7d0cdb113d55c4a74&#45;&gt;dir_580285352ad11749b46c2981d6aa0acd -->
<g id="edge3" class="edge">
<title>dir_c0b4c4499abbbde7d0cdb113d55c4a74&#45;&gt;dir_580285352ad11749b46c2981d6aa0acd</title>
<path fill="none" stroke="black" d="M148,-231.7C148,-223.98 148,-214.71 148,-206.11"/>
<polygon fill="black" stroke="black" points="151.5,-206.1 148,-196.1 144.5,-206.1 151.5,-206.1"/>
<g id="a_edge3&#45;headlabel"><a xlink:href="dir_000067_000069.html" target="_top" xlink:title="15">
<text text-anchor="middle" x="154.34" y="-207.2" font-family="FreeSans" font-size="10.00">15</text>
</a>
</g>
</g>
<!-- dir_c0b4c4499abbbde7d0cdb113d55c4a74&#45;&gt;dir_68ea5daf33bc8f64eb000f9043862517 -->
<g id="edge4" class="edge">
<title>dir_c0b4c4499abbbde7d0cdb113d55c4a74&#45;&gt;dir_68ea5daf33bc8f64eb000f9043862517</title>
<path fill="none" stroke="black" d="M130.27,-231.6C121.76,-222 112.47,-209.34 108,-196 92.91,-150.95 102.21,-94.91 110.2,-62.22"/>
<polygon fill="black" stroke="black" points="113.61,-63.03 112.72,-52.48 106.83,-61.28 113.61,-63.03"/>
<g id="a_edge4&#45;headlabel"><a xlink:href="dir_000067_000055.html" target="_top" xlink:title="42">
<text text-anchor="middle" x="115.46" y="-64.72" font-family="FreeSans" font-size="10.00">42</text>
</a>
</g>
</g>
<!-- dir_c0b4c4499abbbde7d0cdb113d55c4a74&#45;&gt;dir_a191a2f8ef855d264776f547e73bbeb4 -->
<g id="edge5" class="edge">
<title>dir_c0b4c4499abbbde7d0cdb113d55c4a74&#45;&gt;dir_a191a2f8ef855d264776f547e73bbeb4</title>
<path fill="none" stroke="black" d="M165.73,-231.6C174.24,-222 183.53,-209.34 188,-196 194.7,-175.99 192.57,-152.07 189.11,-134.07"/>
<polygon fill="black" stroke="black" points="192.52,-133.26 186.97,-124.23 185.67,-134.74 192.52,-133.26"/>
<g id="a_edge5&#45;headlabel"><a xlink:href="dir_000067_000065.html" target="_top" xlink:title="30">
<text text-anchor="middle" x="196.05" y="-133.67" font-family="FreeSans" font-size="10.00">30</text>
</a>
</g>
</g>
<!-- dir_ef3c0a44fce151112ad4ceefca10ed04 -->
<g id="node6" class="node">
<title>dir_ef3c0a44fce151112ad4ceefca10ed04</title>
<g id="a_node6"><a xlink:href="dir_ef3c0a44fce151112ad4ceefca10ed04.html" target="_top" xlink:title="event">
<polygon fill="white" stroke="black" points="78,-268 24,-268 24,-232 78,-232 78,-268"/>
<text text-anchor="middle" x="51" y="-247.5" font-family="FreeSans" font-size="10.00">event</text>
</a>
</g>
</g>
</g>
</svg>
