<?xml version="1.0" encoding="UTF-8" standalone="no"?>
<!DOCTYPE svg PUBLIC "-//W3C//DTD SVG 1.1//EN"
 "http://www.w3.org/Graphics/SVG/1.1/DTD/svg11.dtd">
<!-- Generated by graphviz version 2.30.1 (20200930.0103)
 -->
<!-- Title: /dev/shm/kenichi/update&#45;github&#45;e1039&#45;doc/e1039&#45;core/packages Pages: 1 -->
<svg width="829pt" height="375pt"
 viewBox="0.00 0.00 829.40 375.00" xmlns="http://www.w3.org/2000/svg" xmlns:xlink="http://www.w3.org/1999/xlink">
<g id="graph0" class="graph" transform="scale(1 1) rotate(0) translate(4 371)">
<title>/dev/shm/kenichi/update&#45;github&#45;e1039&#45;doc/e1039&#45;core/packages</title>
<g id="clust1" class="cluster"><title>clusterdir_7035d53134d2db8ceacffe687127f7fc</title>
<g id="a_clust1"><a xlink:href="dir_7035d53134d2db8ceacffe687127f7fc.html" target="_top" xlink:title="e1039&#45;core">
<polygon fill="#ddddee" stroke="black" points="8,-56 8,-359 486,-359 486,-56 8,-56"/>
<text text-anchor="middle" x="247" y="-347" font-family="FreeSans" font-size="10.00">e1039&#45;core</text>
</a>
</g>
</g>
<g id="clust2" class="cluster"><title>clusterdir_5e295cd396ed00d01dcf10a6f0e423f9</title>
<g id="a_clust2"><a xlink:href="dir_5e295cd396ed00d01dcf10a6f0e423f9.html" target="_top">
<polygon fill="#eeeeff" stroke="black" points="16,-64 16,-332 478,-332 478,-64 16,-64"/>
</a>
</g>
</g>
<!-- dir_5e295cd396ed00d01dcf10a6f0e423f9 -->
<g id="node1" class="node"><title>dir_5e295cd396ed00d01dcf10a6f0e423f9</title>
<text text-anchor="middle" x="135" y="-303.5" font-family="FreeSans" font-size="10.00">packages</text>
</g>
<!-- dir_0c41d7ff0db28d6f6dd9ed1c9ae17936 -->
<g id="node2" class="node"><title>dir_0c41d7ff0db28d6f6dd9ed1c9ae17936</title>
<g id="a_node2"><a xlink:href="dir_0c41d7ff0db28d6f6dd9ed1c9ae17936.html" target="_top" xlink:title="calibrator">
<polygon fill="white" stroke="black" points="172,-252 116,-252 116,-216 172,-216 172,-252"/>
<text text-anchor="middle" x="144" y="-231.5" font-family="FreeSans" font-size="10.00">calibrator</text>
</a>
</g>
</g>
<!-- dir_21fa564a88be47a3879b0c5d4f9e77d5 -->
<g id="node18" class="node"><title>dir_21fa564a88be47a3879b0c5d4f9e77d5</title>
<g id="a_node18"><a xlink:href="dir_21fa564a88be47a3879b0c5d4f9e77d5.html" target="_top" xlink:title="interface_main">
<polygon fill="none" stroke="black" points="574,-180 494,-180 494,-144 574,-144 574,-180"/>
<text text-anchor="middle" x="534" y="-159.5" font-family="FreeSans" font-size="10.00">interface_main</text>
</a>
</g>
</g>
<!-- dir_0c41d7ff0db28d6f6dd9ed1c9ae17936&#45;&gt;dir_21fa564a88be47a3879b0c5d4f9e77d5 -->
<g id="edge12" class="edge"><title>dir_0c41d7ff0db28d6f6dd9ed1c9ae17936&#45;&gt;dir_21fa564a88be47a3879b0c5d4f9e77d5</title>
<path fill="none" stroke="black" d="M172.348,-218.912C175.227,-217.805 178.142,-216.806 181,-216 310.674,-179.432 350.443,-209.074 482,-180 482.73,-179.839 483.465,-179.671 484.203,-179.498"/>
<polygon fill="black" stroke="black" points="485.109,-182.879 493.905,-176.973 483.346,-176.104 485.109,-182.879"/>
<g id="a_edge12&#45;headlabel"><a xlink:href="dir_000083_000074.html" target="_top" xlink:title="7">
<text text-anchor="middle" x="482.346" y="-184.032" font-family="FreeSans" font-size="10.00">7</text>
</a>
</g>
</g>
<!-- dir_ec5b6dea0f546bb9c4903c2bcb98e114 -->
<g id="node19" class="node"><title>dir_ec5b6dea0f546bb9c4903c2bcb98e114</title>
<g id="a_node19"><a xlink:href="dir_ec5b6dea0f546bb9c4903c2bcb98e114.html" target="_top" xlink:title="framework">
<polygon fill="none" stroke="red" points="399,-36 337,-36 337,-0 399,-0 399,-36"/>
<text text-anchor="middle" x="368" y="-15.5" font-family="FreeSans" font-size="10.00">framework</text>
</a>
</g>
</g>
<!-- dir_0c41d7ff0db28d6f6dd9ed1c9ae17936&#45;&gt;dir_ec5b6dea0f546bb9c4903c2bcb98e114 -->
<g id="edge13" class="edge"><title>dir_0c41d7ff0db28d6f6dd9ed1c9ae17936&#45;&gt;dir_ec5b6dea0f546bb9c4903c2bcb98e114</title>
<path fill="none" stroke="black" d="M138.776,-215.81C129.323,-180.863 113.86,-101.033 154,-56 176.331,-30.9464 271.095,-22.8448 326.75,-20.2339"/>
<polygon fill="black" stroke="black" points="327.152,-23.7199 336.993,-19.7944 326.852,-16.7263 327.152,-23.7199"/>
<g id="a_edge13&#45;headlabel"><a xlink:href="dir_000083_000063.html" target="_top" xlink:title="17">
<text text-anchor="middle" x="323.683" y="-24.2105" font-family="FreeSans" font-size="10.00">17</text>
</a>
</g>
</g>
<!-- dir_1e3a55bacfbd23a6aba299383b6b7742 -->
<g id="node9" class="node"><title>dir_1e3a55bacfbd23a6aba299383b6b7742</title>
<g id="a_node9"><a xlink:href="dir_1e3a55bacfbd23a6aba299383b6b7742.html" target="_top" xlink:title="geom_svc">
<polygon fill="white" stroke="red" points="378,-180 318,-180 318,-144 378,-144 378,-180"/>
<text text-anchor="middle" x="348" y="-159.5" font-family="FreeSans" font-size="10.00">geom_svc</text>
</a>
</g>
</g>
<!-- dir_0c41d7ff0db28d6f6dd9ed1c9ae17936&#45;&gt;dir_1e3a55bacfbd23a6aba299383b6b7742 -->
<g id="edge14" class="edge"><title>dir_0c41d7ff0db28d6f6dd9ed1c9ae17936&#45;&gt;dir_1e3a55bacfbd23a6aba299383b6b7742</title>
<path fill="none" stroke="black" d="M172.091,-219.543C175.072,-218.28 178.081,-217.074 181,-216 233.647,-196.637 251.525,-199.485 308.448,-179.93"/>
<polygon fill="black" stroke="black" points="309.659,-183.214 317.93,-176.593 307.335,-176.611 309.659,-183.214"/>
<g id="a_edge14&#45;headlabel"><a xlink:href="dir_000083_000097.html" target="_top" xlink:title="7">
<text text-anchor="middle" x="307.211" y="-184.586" font-family="FreeSans" font-size="10.00">7</text>
</a>
</g>
</g>
<!-- dir_435d7c20f5a8ee8295eeab7d1dd4de97 -->
<g id="node3" class="node"><title>dir_435d7c20f5a8ee8295eeab7d1dd4de97</title>
<g id="a_node3"><a xlink:href="dir_435d7c20f5a8ee8295eeab7d1dd4de97.html" target="_top" xlink:title="db2g4">
<polygon fill="white" stroke="black" points="300,-180 246,-180 246,-144 300,-144 300,-180"/>
<text text-anchor="middle" x="273" y="-159.5" font-family="FreeSans" font-size="10.00">db2g4</text>
</a>
</g>
</g>
<!-- dir_7e11a274c96f548414dddfb7e7fddd7d -->
<g id="node10" class="node"><title>dir_7e11a274c96f548414dddfb7e7fddd7d</title>
<g id="a_node10"><a xlink:href="dir_7e11a274c96f548414dddfb7e7fddd7d.html" target="_top" xlink:title="global_consts">
<polygon fill="white" stroke="black" points="397.25,-108 322.75,-108 322.75,-72 397.25,-72 397.25,-108"/>
<text text-anchor="middle" x="360" y="-87.5" font-family="FreeSans" font-size="10.00">global_consts</text>
</a>
</g>
</g>
<!-- dir_435d7c20f5a8ee8295eeab7d1dd4de97&#45;&gt;dir_7e11a274c96f548414dddfb7e7fddd7d -->
<g id="edge2" class="edge"><title>dir_435d7c20f5a8ee8295eeab7d1dd4de97&#45;&gt;dir_7e11a274c96f548414dddfb7e7fddd7d</title>
<path fill="none" stroke="black" d="M294.506,-143.697C305.463,-134.881 318.946,-124.032 330.825,-114.474"/>
<polygon fill="black" stroke="black" points="333.145,-117.1 338.742,-108.104 328.756,-111.646 333.145,-117.1"/>
<g id="a_edge2&#45;headlabel"><a xlink:href="dir_000088_000099.html" target="_top" xlink:title="4">
<text text-anchor="middle" x="332.124" y="-119.066" font-family="FreeSans" font-size="10.00">4</text>
</a>
</g>
</g>
<!-- dir_435d7c20f5a8ee8295eeab7d1dd4de97&#45;&gt;dir_ec5b6dea0f546bb9c4903c2bcb98e114 -->
<g id="edge3" class="edge"><title>dir_435d7c20f5a8ee8295eeab7d1dd4de97&#45;&gt;dir_ec5b6dea0f546bb9c4903c2bcb98e114</title>
<path fill="none" stroke="black" d="M273.955,-143.953C276.012,-121.578 282.506,-82.0915 303,-56 309.625,-47.5651 318.742,-40.7213 328.053,-35.32"/>
<polygon fill="black" stroke="black" points="329.781,-38.3657 336.965,-30.5787 326.493,-32.1859 329.781,-38.3657"/>
<g id="a_edge3&#45;headlabel"><a xlink:href="dir_000088_000063.html" target="_top" xlink:title="6">
<text text-anchor="middle" x="327.941" y="-40.0606" font-family="FreeSans" font-size="10.00">6</text>
</a>
</g>
</g>
<!-- dir_a20ba7afb7409ef346e4211b1bc3468e -->
<g id="node4" class="node"><title>dir_a20ba7afb7409ef346e4211b1bc3468e</title>
<g id="a_node4"><a xlink:href="dir_a20ba7afb7409ef346e4211b1bc3468e.html" target="_top" xlink:title="db_svc">
<polygon fill="white" stroke="black" points="470,-108 416,-108 416,-72 470,-72 470,-108"/>
<text text-anchor="middle" x="443" y="-87.5" font-family="FreeSans" font-size="10.00">db_svc</text>
</a>
</g>
</g>
<!-- dir_a20ba7afb7409ef346e4211b1bc3468e&#45;&gt;dir_ec5b6dea0f546bb9c4903c2bcb98e114 -->
<g id="edge11" class="edge"><title>dir_a20ba7afb7409ef346e4211b1bc3468e&#45;&gt;dir_ec5b6dea0f546bb9c4903c2bcb98e114</title>
<path fill="none" stroke="black" d="M424.461,-71.6966C415.197,-63.0503 403.838,-52.4486 393.743,-43.027"/>
<polygon fill="black" stroke="black" points="396.025,-40.3688 386.326,-36.1043 391.249,-45.4863 396.025,-40.3688"/>
<g id="a_edge11&#45;headlabel"><a xlink:href="dir_000084_000063.html" target="_top" xlink:title="1">
<text text-anchor="middle" x="400.59" y="-38.2458" font-family="FreeSans" font-size="10.00">1</text>
</a>
</g>
</g>
<!-- dir_7f0851f3eb1a856f692bc300b62d4726 -->
<g id="node5" class="node"><title>dir_7f0851f3eb1a856f692bc300b62d4726</title>
<g id="a_node5"><a xlink:href="dir_7f0851f3eb1a856f692bc300b62d4726.html" target="_top" xlink:title="Display">
<polygon fill="white" stroke="red" points="88,-324 34,-324 34,-288 88,-288 88,-324"/>
<text text-anchor="middle" x="61" y="-303.5" font-family="FreeSans" font-size="10.00">Display</text>
</a>
</g>
</g>
<!-- dir_332b62e3ec36b5c91071d17bc452bf6a -->
<g id="node8" class="node"><title>dir_332b62e3ec36b5c91071d17bc452bf6a</title>
<g id="a_node8"><a xlink:href="dir_332b62e3ec36b5c91071d17bc452bf6a.html" target="_top" xlink:title="evt_filter">
<polygon fill="white" stroke="black" points="470,-252 416,-252 416,-216 470,-216 470,-252"/>
<text text-anchor="middle" x="443" y="-231.5" font-family="FreeSans" font-size="10.00">evt_filter</text>
</a>
</g>
</g>
<!-- dir_7f0851f3eb1a856f692bc300b62d4726&#45;&gt;dir_332b62e3ec36b5c91071d17bc452bf6a -->
<g id="edge41" class="edge"><title>dir_7f0851f3eb1a856f692bc300b62d4726&#45;&gt;dir_332b62e3ec36b5c91071d17bc452bf6a</title>
<path fill="none" stroke="black" d="M88.1592,-291.053C91.0935,-289.886 94.0759,-288.836 97,-288 227.238,-250.776 271.559,-288.275 406.003,-251.709"/>
<polygon fill="black" stroke="black" points="407.16,-255.02 415.841,-248.947 405.267,-248.281 407.16,-255.02"/>
<g id="a_edge41&#45;headlabel"><a xlink:href="dir_000089_000096.html" target="_top" xlink:title="1">
<text text-anchor="middle" x="404.466" y="-256.225" font-family="FreeSans" font-size="10.00">1</text>
</a>
</g>
</g>
<!-- dir_564b6959276516c8dfa5a8a6d9fbe0fa -->
<g id="node15" class="node"><title>dir_564b6959276516c8dfa5a8a6d9fbe0fa</title>
<g id="a_node15"><a xlink:href="dir_564b6959276516c8dfa5a8a6d9fbe0fa.html" target="_top" xlink:title="UtilAna">
<polygon fill="white" stroke="black" points="316,-252 262,-252 262,-216 316,-216 316,-252"/>
<text text-anchor="middle" x="289" y="-231.5" font-family="FreeSans" font-size="10.00">UtilAna</text>
</a>
</g>
</g>
<!-- dir_7f0851f3eb1a856f692bc300b62d4726&#45;&gt;dir_564b6959276516c8dfa5a8a6d9fbe0fa -->
<g id="edge42" class="edge"><title>dir_7f0851f3eb1a856f692bc300b62d4726&#45;&gt;dir_564b6959276516c8dfa5a8a6d9fbe0fa</title>
<path fill="none" stroke="black" d="M88.264,-291.385C91.1779,-290.153 94.1269,-288.997 97,-288 161.335,-265.676 183.84,-274.473 252.238,-251.857"/>
<polygon fill="black" stroke="black" points="253.403,-255.158 261.736,-248.615 251.141,-248.533 253.403,-255.158"/>
<g id="a_edge42&#45;headlabel"><a xlink:href="dir_000089_000085.html" target="_top" xlink:title="1">
<text text-anchor="middle" x="250.918" y="-256.506" font-family="FreeSans" font-size="10.00">1</text>
</a>
</g>
</g>
<!-- dir_7f0851f3eb1a856f692bc300b62d4726&#45;&gt;dir_21fa564a88be47a3879b0c5d4f9e77d5 -->
<g id="edge43" class="edge"><title>dir_7f0851f3eb1a856f692bc300b62d4726&#45;&gt;dir_21fa564a88be47a3879b0c5d4f9e77d5</title>
<path fill="none" stroke="black" d="M88.1409,-290.988C91.0788,-289.834 94.067,-288.804 97,-288 179.231,-265.457 406.561,-296.974 479,-252 491.071,-244.506 508.929,-212.933 520.993,-189.51"/>
<polygon fill="black" stroke="black" points="524.222,-190.88 525.619,-180.377 517.978,-187.717 524.222,-190.88"/>
<g id="a_edge43&#45;headlabel"><a xlink:href="dir_000089_000074.html" target="_top" xlink:title="5">
<text text-anchor="middle" x="525.131" y="-192.869" font-family="FreeSans" font-size="10.00">5</text>
</a>
</g>
</g>
<!-- dir_7f0851f3eb1a856f692bc300b62d4726&#45;&gt;dir_ec5b6dea0f546bb9c4903c2bcb98e114 -->
<g id="edge44" class="edge"><title>dir_7f0851f3eb1a856f692bc300b62d4726&#45;&gt;dir_ec5b6dea0f546bb9c4903c2bcb98e114</title>
<path fill="none" stroke="black" d="M88.1357,-290.969C91.0745,-289.818 94.0645,-288.795 97,-288 273.568,-240.2 332.429,-306.645 507,-252 568.553,-232.732 600.627,-235.785 633,-180 654.189,-143.488 607.979,-61.7569 601,-56 572.461,-32.4575 468.171,-23.7166 409.254,-20.6106"/>
<polygon fill="black" stroke="black" points="409.319,-17.1097 399.158,-20.1101 408.973,-24.1011 409.319,-17.1097"/>
<g id="a_edge44&#45;headlabel"><a xlink:href="dir_000089_000063.html" target="_top" xlink:title="24">
<text text-anchor="middle" x="413.05" y="-11.9518" font-family="FreeSans" font-size="10.00">24</text>
</a>
</g>
</g>
<!-- dir_7f0851f3eb1a856f692bc300b62d4726&#45;&gt;dir_1e3a55bacfbd23a6aba299383b6b7742 -->
<g id="edge45" class="edge"><title>dir_7f0851f3eb1a856f692bc300b62d4726&#45;&gt;dir_1e3a55bacfbd23a6aba299383b6b7742</title>
<path fill="none" stroke="black" d="M47.5735,-287.887C33.9367,-268.306 17.1664,-236.33 35,-216 73.6787,-171.907 234.434,-194.188 307.877,-179.522"/>
<polygon fill="black" stroke="black" points="308.722,-182.918 317.639,-177.196 307.1,-176.109 308.722,-182.918"/>
<g id="a_edge45&#45;headlabel"><a xlink:href="dir_000089_000097.html" target="_top" xlink:title="1">
<text text-anchor="middle" x="305.883" y="-184.013" font-family="FreeSans" font-size="10.00">1</text>
</a>
</g>
</g>
<!-- dir_649327444067f074c28c0b0d6c830adb -->
<g id="node6" class="node"><title>dir_649327444067f074c28c0b0d6c830adb</title>
<g id="a_node6"><a xlink:href="dir_649327444067f074c28c0b0d6c830adb.html" target="_top" xlink:title="dptrigger">
<polygon fill="white" stroke="black" points="98,-252 44,-252 44,-216 98,-216 98,-252"/>
<text text-anchor="middle" x="71" y="-231.5" font-family="FreeSans" font-size="10.00">dptrigger</text>
</a>
</g>
</g>
<!-- dir_649327444067f074c28c0b0d6c830adb&#45;&gt;dir_21fa564a88be47a3879b0c5d4f9e77d5 -->
<g id="edge15" class="edge"><title>dir_649327444067f074c28c0b0d6c830adb&#45;&gt;dir_21fa564a88be47a3879b0c5d4f9e77d5</title>
<path fill="none" stroke="black" d="M98.1423,-218.993C101.08,-217.838 104.068,-216.807 107,-216 268.436,-171.592 318.102,-214.221 482,-180 482.732,-179.847 483.469,-179.688 484.208,-179.522"/>
<polygon fill="black" stroke="black" points="485.087,-182.91 493.926,-177.068 483.373,-176.123 485.087,-182.91"/>
<g id="a_edge15&#45;headlabel"><a xlink:href="dir_000094_000074.html" target="_top" xlink:title="3">
<text text-anchor="middle" x="482.297" y="-184.043" font-family="FreeSans" font-size="10.00">3</text>
</a>
</g>
</g>
<!-- dir_649327444067f074c28c0b0d6c830adb&#45;&gt;dir_ec5b6dea0f546bb9c4903c2bcb98e114 -->
<g id="edge16" class="edge"><title>dir_649327444067f074c28c0b0d6c830adb&#45;&gt;dir_ec5b6dea0f546bb9c4903c2bcb98e114</title>
<path fill="none" stroke="black" d="M70.8632,-215.983C71.5758,-180.275 78.6582,-97.4132 127,-56 156.249,-30.9427 265.689,-22.813 326.536,-20.2066"/>
<polygon fill="black" stroke="black" points="326.73,-23.7017 336.583,-19.8075 326.452,-16.7072 326.73,-23.7017"/>
<g id="a_edge16&#45;headlabel"><a xlink:href="dir_000094_000063.html" target="_top" xlink:title="8">
<text text-anchor="middle" x="323.251" y="-24.1813" font-family="FreeSans" font-size="10.00">8</text>
</a>
</g>
</g>
<!-- dir_649327444067f074c28c0b0d6c830adb&#45;&gt;dir_1e3a55bacfbd23a6aba299383b6b7742 -->
<g id="edge17" class="edge"><title>dir_649327444067f074c28c0b0d6c830adb&#45;&gt;dir_1e3a55bacfbd23a6aba299383b6b7742</title>
<path fill="none" stroke="black" d="M98.2142,-219.235C101.138,-218.033 104.103,-216.924 107,-216 190.91,-189.235 219.741,-205.216 308,-179.904"/>
<polygon fill="black" stroke="black" points="309.006,-183.256 317.599,-177.058 307.016,-176.545 309.006,-183.256"/>
<g id="a_edge17&#45;headlabel"><a xlink:href="dir_000094_000097.html" target="_top" xlink:title="1">
<text text-anchor="middle" x="306.367" y="-184.5" font-family="FreeSans" font-size="10.00">1</text>
</a>
</g>
</g>
<!-- dir_57aa6816b71db998cf2dd50cc9ec5921 -->
<g id="node7" class="node"><title>dir_57aa6816b71db998cf2dd50cc9ec5921</title>
<g id="a_node7"><a xlink:href="dir_57aa6816b71db998cf2dd50cc9ec5921.html" target="_top" xlink:title="embedding">
<polygon fill="white" stroke="black" points="398,-252 334,-252 334,-216 398,-216 398,-252"/>
<text text-anchor="middle" x="366" y="-231.5" font-family="FreeSans" font-size="10.00">embedding</text>
</a>
</g>
</g>
<!-- dir_0a538a087021ce8adf1d4849fdeba031 -->
<g id="node17" class="node"><title>dir_0a538a087021ce8adf1d4849fdeba031</title>
<g id="a_node17"><a xlink:href="dir_0a538a087021ce8adf1d4849fdeba031.html" target="_top" xlink:title="simulation">
<polygon fill="none" stroke="red" points="592,-108 532,-108 532,-72 592,-72 592,-108"/>
<text text-anchor="middle" x="562" y="-87.5" font-family="FreeSans" font-size="10.00">simulation</text>
</a>
</g>
</g>
<!-- dir_57aa6816b71db998cf2dd50cc9ec5921&#45;&gt;dir_0a538a087021ce8adf1d4849fdeba031 -->
<g id="edge28" class="edge"><title>dir_57aa6816b71db998cf2dd50cc9ec5921&#45;&gt;dir_0a538a087021ce8adf1d4849fdeba031</title>
<path fill="none" stroke="black" d="M398.016,-219.045C401.026,-217.939 404.053,-216.903 407,-216 483.337,-192.603 532.516,-241.855 583,-180 597.406,-162.349 589.06,-136.517 578.944,-117.225"/>
<polygon fill="black" stroke="black" points="581.894,-115.33 573.928,-108.344 575.799,-118.772 581.894,-115.33"/>
<g id="a_edge28&#45;headlabel"><a xlink:href="dir_000095_000086.html" target="_top" xlink:title="12">
<text text-anchor="middle" x="586.134" y="-114.563" font-family="FreeSans" font-size="10.00">12</text>
</a>
</g>
</g>
<!-- dir_57aa6816b71db998cf2dd50cc9ec5921&#45;&gt;dir_21fa564a88be47a3879b0c5d4f9e77d5 -->
<g id="edge29" class="edge"><title>dir_57aa6816b71db998cf2dd50cc9ec5921&#45;&gt;dir_21fa564a88be47a3879b0c5d4f9e77d5</title>
<path fill="none" stroke="black" d="M398.392,-219.503C422.786,-209.339 456.66,-195.225 484.45,-183.646"/>
<polygon fill="black" stroke="black" points="486.115,-186.744 494,-179.667 483.423,-180.282 486.115,-186.744"/>
<g id="a_edge29&#45;headlabel"><a xlink:href="dir_000095_000074.html" target="_top" xlink:title="18">
<text text-anchor="middle" x="483.889" y="-188.247" font-family="FreeSans" font-size="10.00">18</text>
</a>
</g>
</g>
<!-- dir_57aa6816b71db998cf2dd50cc9ec5921&#45;&gt;dir_ec5b6dea0f546bb9c4903c2bcb98e114 -->
<g id="edge30" class="edge"><title>dir_57aa6816b71db998cf2dd50cc9ec5921&#45;&gt;dir_ec5b6dea0f546bb9c4903c2bcb98e114</title>
<path fill="none" stroke="black" d="M333.894,-219.318C330.903,-218.155 327.905,-217.031 325,-216 272.125,-197.23 237.543,-224.976 204,-180 171.052,-135.822 169.585,-99.0445 204,-56 219.102,-37.1109 283.373,-27.1725 326.828,-22.5118"/>
<polygon fill="black" stroke="black" points="327.249,-25.9872 336.842,-21.4908 326.538,-19.0233 327.249,-25.9872"/>
<g id="a_edge30&#45;headlabel"><a xlink:href="dir_000095_000063.html" target="_top" xlink:title="14">
<text text-anchor="middle" x="323.96" y="-26.6764" font-family="FreeSans" font-size="10.00">14</text>
</a>
</g>
</g>
<!-- dir_57aa6816b71db998cf2dd50cc9ec5921&#45;&gt;dir_1e3a55bacfbd23a6aba299383b6b7742 -->
<g id="edge31" class="edge"><title>dir_57aa6816b71db998cf2dd50cc9ec5921&#45;&gt;dir_1e3a55bacfbd23a6aba299383b6b7742</title>
<path fill="none" stroke="black" d="M361.551,-215.697C359.545,-207.898 357.131,-198.509 354.899,-189.829"/>
<polygon fill="black" stroke="black" points="358.278,-188.918 352.398,-180.104 351.499,-190.661 358.278,-188.918"/>
<g id="a_edge31&#45;headlabel"><a xlink:href="dir_000095_000097.html" target="_top" xlink:title="2">
<text text-anchor="middle" x="361.923" y="-189.192" font-family="FreeSans" font-size="10.00">2</text>
</a>
</g>
</g>
<!-- dir_332b62e3ec36b5c91071d17bc452bf6a&#45;&gt;dir_0a538a087021ce8adf1d4849fdeba031 -->
<g id="edge19" class="edge"><title>dir_332b62e3ec36b5c91071d17bc452bf6a&#45;&gt;dir_0a538a087021ce8adf1d4849fdeba031</title>
<path fill="none" stroke="black" d="M470.141,-233.789C509.71,-233.28 582.193,-225.714 616,-180 631.532,-158.997 612.312,-133.341 592.631,-114.98"/>
<polygon fill="black" stroke="black" points="594.938,-112.348 585.137,-108.325 590.29,-117.582 594.938,-112.348"/>
<g id="a_edge19&#45;headlabel"><a xlink:href="dir_000096_000086.html" target="_top" xlink:title="1">
<text text-anchor="middle" x="599.511" y="-110.112" font-family="FreeSans" font-size="10.00">1</text>
</a>
</g>
</g>
<!-- dir_332b62e3ec36b5c91071d17bc452bf6a&#45;&gt;dir_21fa564a88be47a3879b0c5d4f9e77d5 -->
<g id="edge20" class="edge"><title>dir_332b62e3ec36b5c91071d17bc452bf6a&#45;&gt;dir_21fa564a88be47a3879b0c5d4f9e77d5</title>
<path fill="none" stroke="black" d="M465.494,-215.697C476.955,-206.881 491.058,-196.032 503.484,-186.474"/>
<polygon fill="black" stroke="black" points="505.972,-188.976 511.764,-180.104 501.704,-183.427 505.972,-188.976"/>
<g id="a_edge20&#45;headlabel"><a xlink:href="dir_000096_000074.html" target="_top" xlink:title="10">
<text text-anchor="middle" x="504.854" y="-190.918" font-family="FreeSans" font-size="10.00">10</text>
</a>
</g>
</g>
<!-- dir_332b62e3ec36b5c91071d17bc452bf6a&#45;&gt;dir_ec5b6dea0f546bb9c4903c2bcb98e114 -->
<g id="edge21" class="edge"><title>dir_332b62e3ec36b5c91071d17bc452bf6a&#45;&gt;dir_ec5b6dea0f546bb9c4903c2bcb98e114</title>
<path fill="none" stroke="black" d="M415.754,-219.331C412.837,-218.11 409.882,-216.971 407,-216 333.81,-191.345 285.626,-240.001 237,-180 208.16,-144.414 259.516,-72.7906 277,-56 290.779,-42.7675 309.922,-34.0311 327.098,-28.3896"/>
<polygon fill="black" stroke="black" points="328.37,-31.6614 336.927,-25.415 326.342,-24.9615 328.37,-31.6614"/>
<g id="a_edge21&#45;headlabel"><a xlink:href="dir_000096_000063.html" target="_top" xlink:title="20">
<text text-anchor="middle" x="325.752" y="-32.9201" font-family="FreeSans" font-size="10.00">20</text>
</a>
</g>
</g>
<!-- dir_1e3a55bacfbd23a6aba299383b6b7742&#45;&gt;dir_a20ba7afb7409ef346e4211b1bc3468e -->
<g id="edge38" class="edge"><title>dir_1e3a55bacfbd23a6aba299383b6b7742&#45;&gt;dir_a20ba7afb7409ef346e4211b1bc3468e</title>
<path fill="none" stroke="black" d="M371.483,-143.697C383.563,-134.796 398.454,-123.823 411.516,-114.199"/>
<polygon fill="black" stroke="black" points="413.813,-116.854 419.787,-108.104 409.66,-111.219 413.813,-116.854"/>
<g id="a_edge38&#45;headlabel"><a xlink:href="dir_000097_000084.html" target="_top" xlink:title="9">
<text text-anchor="middle" x="412.603" y="-118.772" font-family="FreeSans" font-size="10.00">9</text>
</a>
</g>
</g>
<!-- dir_1e3a55bacfbd23a6aba299383b6b7742&#45;&gt;dir_7e11a274c96f548414dddfb7e7fddd7d -->
<g id="edge39" class="edge"><title>dir_1e3a55bacfbd23a6aba299383b6b7742&#45;&gt;dir_7e11a274c96f548414dddfb7e7fddd7d</title>
<path fill="none" stroke="black" d="M350.966,-143.697C352.289,-135.983 353.878,-126.712 355.352,-118.112"/>
<polygon fill="black" stroke="black" points="358.828,-118.552 357.068,-108.104 351.928,-117.369 358.828,-118.552"/>
<g id="a_edge39&#45;headlabel"><a xlink:href="dir_000097_000099.html" target="_top" xlink:title="1">
<text text-anchor="middle" x="361.019" y="-120.075" font-family="FreeSans" font-size="10.00">1</text>
</a>
</g>
</g>
<!-- dir_1e3a55bacfbd23a6aba299383b6b7742&#45;&gt;dir_ec5b6dea0f546bb9c4903c2bcb98e114 -->
<g id="edge40" class="edge"><title>dir_1e3a55bacfbd23a6aba299383b6b7742&#45;&gt;dir_ec5b6dea0f546bb9c4903c2bcb98e114</title>
<path fill="none" stroke="black" d="M332.817,-143.703C325.268,-133.939 316.934,-121.095 313,-108 306.351,-85.866 302.137,-76.3992 313,-56 316.607,-49.226 322.067,-43.4704 328.17,-38.6624"/>
<polygon fill="black" stroke="black" points="330.559,-41.2648 336.777,-32.6866 326.567,-35.5148 330.559,-41.2648"/>
<g id="a_edge40&#45;headlabel"><a xlink:href="dir_000097_000063.html" target="_top" xlink:title="2">
<text text-anchor="middle" x="329.225" y="-43.1471" font-family="FreeSans" font-size="10.00">2</text>
</a>
</g>
</g>
<!-- dir_84bccd959b4ea29af4286ddf16796a15 -->
<g id="node11" class="node"><title>dir_84bccd959b4ea29af4286ddf16796a15</title>
<g id="a_node11"><a xlink:href="dir_84bccd959b4ea29af4286ddf16796a15.html" target="_top" xlink:title="Half">
<polygon fill="white" stroke="black" points="308,-324 254,-324 254,-288 308,-288 308,-324"/>
<text text-anchor="middle" x="281" y="-303.5" font-family="FreeSans" font-size="10.00">Half</text>
</a>
</g>
</g>
<!-- dir_7cf5f668fc8ace05967f051e594e3592 -->
<g id="node12" class="node"><title>dir_7cf5f668fc8ace05967f051e594e3592</title>
<g id="a_node12"><a xlink:href="dir_7cf5f668fc8ace05967f051e594e3592.html" target="_top" xlink:title="PHField">
<polygon fill="white" stroke="red" points="380,-324 326,-324 326,-288 380,-288 380,-324"/>
<text text-anchor="middle" x="353" y="-303.5" font-family="FreeSans" font-size="10.00">PHField</text>
</a>
</g>
</g>
<!-- dir_7cf5f668fc8ace05967f051e594e3592&#45;&gt;dir_ec5b6dea0f546bb9c4903c2bcb98e114 -->
<g id="edge18" class="edge"><title>dir_7cf5f668fc8ace05967f051e594e3592&#45;&gt;dir_ec5b6dea0f546bb9c4903c2bcb98e114</title>
<path fill="none" stroke="black" d="M380.142,-290.99C383.079,-289.836 386.067,-288.805 389,-288 470.583,-265.602 711.076,-314.587 768,-252 826.612,-187.557 826.692,-120.371 768,-56 744.142,-29.833 506.373,-21.8972 409.126,-19.7348"/>
<polygon fill="black" stroke="black" points="409.145,-16.2345 399.072,-19.5208 408.996,-23.2329 409.145,-16.2345"/>
<g id="a_edge18&#45;headlabel"><a xlink:href="dir_000101_000063.html" target="_top" xlink:title="10">
<text text-anchor="middle" x="412.799" y="-10.9722" font-family="FreeSans" font-size="10.00">10</text>
</a>
</g>
</g>
<!-- dir_d813f0cb9f44c96d9d14694ed5cb9cef -->
<g id="node13" class="node"><title>dir_d813f0cb9f44c96d9d14694ed5cb9cef</title>
<g id="a_node13"><a xlink:href="dir_d813f0cb9f44c96d9d14694ed5cb9cef.html" target="_top" xlink:title="PHGeometry">
<polygon fill="white" stroke="red" points="470,-324 398,-324 398,-288 470,-288 470,-324"/>
<text text-anchor="middle" x="434" y="-303.5" font-family="FreeSans" font-size="10.00">PHGeometry</text>
</a>
</g>
</g>
<!-- dir_d813f0cb9f44c96d9d14694ed5cb9cef&#45;&gt;dir_ec5b6dea0f546bb9c4903c2bcb98e114 -->
<g id="edge1" class="edge"><title>dir_d813f0cb9f44c96d9d14694ed5cb9cef&#45;&gt;dir_ec5b6dea0f546bb9c4903c2bcb98e114</title>
<path fill="none" stroke="black" d="M470.044,-304.444C551.386,-302.46 745.861,-293.395 794,-252 831.142,-220.062 820.667,-192.763 816,-144 812.205,-104.347 828.609,-82.6473 799,-56 770.425,-30.2831 511.844,-22.0347 409.463,-19.7628"/>
<polygon fill="black" stroke="black" points="409.27,-16.258 399.198,-19.5436 409.121,-23.2564 409.27,-16.258"/>
<g id="a_edge1&#45;headlabel"><a xlink:href="dir_000103_000063.html" target="_top" xlink:title="16">
<text text-anchor="middle" x="412.925" y="-10.996" font-family="FreeSans" font-size="10.00">16</text>
</a>
</g>
</g>
<!-- dir_8dd800435d9fa50a0a309cbf892633ea -->
<g id="node14" class="node"><title>dir_8dd800435d9fa50a0a309cbf892633ea</title>
<g id="a_node14"><a xlink:href="dir_8dd800435d9fa50a0a309cbf892633ea.html" target="_top" xlink:title="reco">
<polygon fill="white" stroke="red" points="244,-252 190,-252 190,-216 244,-216 244,-252"/>
<text text-anchor="middle" x="217" y="-231.5" font-family="FreeSans" font-size="10.00">reco</text>
</a>
</g>
</g>
<!-- dir_8dd800435d9fa50a0a309cbf892633ea&#45;&gt;dir_0a538a087021ce8adf1d4849fdeba031 -->
<g id="edge32" class="edge"><title>dir_8dd800435d9fa50a0a309cbf892633ea&#45;&gt;dir_0a538a087021ce8adf1d4849fdeba031</title>
<path fill="none" stroke="black" d="M244.256,-219.361C247.171,-218.134 250.123,-216.985 253,-216 322.778,-192.105 346.547,-207.463 415,-180 437.654,-170.911 491.406,-137.079 527.246,-113.848"/>
<polygon fill="black" stroke="black" points="529.468,-116.579 535.942,-108.192 525.651,-110.711 529.468,-116.579"/>
<g id="a_edge32&#45;headlabel"><a xlink:href="dir_000105_000086.html" target="_top" xlink:title="6">
<text text-anchor="middle" x="528.003" y="-118.419" font-family="FreeSans" font-size="10.00">6</text>
</a>
</g>
</g>
<!-- dir_8dd800435d9fa50a0a309cbf892633ea&#45;&gt;dir_a20ba7afb7409ef346e4211b1bc3468e -->
<g id="edge33" class="edge"><title>dir_8dd800435d9fa50a0a309cbf892633ea&#45;&gt;dir_a20ba7afb7409ef346e4211b1bc3468e</title>
<path fill="none" stroke="black" d="M244.285,-219.444C247.194,-218.2 250.137,-217.025 253,-216 314.701,-193.903 344.458,-220.481 396,-180 415.985,-164.304 428.431,-137.719 435.455,-117.683"/>
<polygon fill="black" stroke="black" points="438.783,-118.764 438.561,-108.172 432.129,-116.591 438.783,-118.764"/>
<g id="a_edge33&#45;headlabel"><a xlink:href="dir_000105_000084.html" target="_top" xlink:title="1">
<text text-anchor="middle" x="440.367" y="-120.563" font-family="FreeSans" font-size="10.00">1</text>
</a>
</g>
</g>
<!-- dir_8dd800435d9fa50a0a309cbf892633ea&#45;&gt;dir_7e11a274c96f548414dddfb7e7fddd7d -->
<g id="edge34" class="edge"><title>dir_8dd800435d9fa50a0a309cbf892633ea&#45;&gt;dir_7e11a274c96f548414dddfb7e7fddd7d</title>
<path fill="none" stroke="black" d="M244.302,-219.49C247.208,-218.238 250.145,-217.048 253,-216 310.89,-194.749 349.475,-228.936 387,-180 401.165,-161.527 390.813,-135.635 379.065,-116.538"/>
<polygon fill="black" stroke="black" points="381.89,-114.464 373.471,-108.033 376.042,-118.311 381.89,-114.464"/>
<g id="a_edge34&#45;headlabel"><a xlink:href="dir_000105_000099.html" target="_top" xlink:title="12">
<text text-anchor="middle" x="386.238" y="-113.407" font-family="FreeSans" font-size="10.00">12</text>
</a>
</g>
</g>
<!-- dir_8dd800435d9fa50a0a309cbf892633ea&#45;&gt;dir_21fa564a88be47a3879b0c5d4f9e77d5 -->
<g id="edge35" class="edge"><title>dir_8dd800435d9fa50a0a309cbf892633ea&#45;&gt;dir_21fa564a88be47a3879b0c5d4f9e77d5</title>
<path fill="none" stroke="black" d="M244.195,-219.174C247.122,-217.984 250.093,-216.895 253,-216 351.47,-185.696 381.827,-204.084 482,-180 482.727,-179.825 483.459,-179.645 484.194,-179.46"/>
<polygon fill="black" stroke="black" points="485.143,-182.829 493.871,-176.822 483.302,-176.075 485.143,-182.829"/>
<g id="a_edge35&#45;headlabel"><a xlink:href="dir_000105_000074.html" target="_top" xlink:title="39">
<text text-anchor="middle" x="482.422" y="-184.014" font-family="FreeSans" font-size="10.00">39</text>
</a>
</g>
</g>
<!-- dir_8dd800435d9fa50a0a309cbf892633ea&#45;&gt;dir_ec5b6dea0f546bb9c4903c2bcb98e114 -->
<g id="edge36" class="edge"><title>dir_8dd800435d9fa50a0a309cbf892633ea&#45;&gt;dir_ec5b6dea0f546bb9c4903c2bcb98e114</title>
<path fill="none" stroke="black" d="M201.753,-215.655C194.096,-205.877 185.509,-193.035 181,-180 162.971,-127.874 140.882,-98.5314 176,-56 194.755,-33.286 276.316,-24.3643 326.912,-20.9735"/>
<polygon fill="black" stroke="black" points="327.135,-24.4665 336.897,-20.3488 326.698,-17.4801 327.135,-24.4665"/>
<g id="a_edge36&#45;headlabel"><a xlink:href="dir_000105_000063.html" target="_top" xlink:title="62">
<text text-anchor="middle" x="323.725" y="-25.0246" font-family="FreeSans" font-size="10.00">62</text>
</a>
</g>
</g>
<!-- dir_8dd800435d9fa50a0a309cbf892633ea&#45;&gt;dir_1e3a55bacfbd23a6aba299383b6b7742 -->
<g id="edge37" class="edge"><title>dir_8dd800435d9fa50a0a309cbf892633ea&#45;&gt;dir_1e3a55bacfbd23a6aba299383b6b7742</title>
<path fill="none" stroke="black" d="M244.143,-218.496C262.814,-208.519 287.905,-195.112 308.747,-183.975"/>
<polygon fill="black" stroke="black" points="310.516,-186.998 317.686,-179.198 307.217,-180.824 310.516,-186.998"/>
<g id="a_edge37&#45;headlabel"><a xlink:href="dir_000105_000097.html" target="_top" xlink:title="12">
<text text-anchor="middle" x="308.684" y="-188.696" font-family="FreeSans" font-size="10.00">12</text>
</a>
</g>
</g>
<!-- dir_564b6959276516c8dfa5a8a6d9fbe0fa&#45;&gt;dir_21fa564a88be47a3879b0c5d4f9e77d5 -->
<g id="edge22" class="edge"><title>dir_564b6959276516c8dfa5a8a6d9fbe0fa&#45;&gt;dir_21fa564a88be47a3879b0c5d4f9e77d5</title>
<path fill="none" stroke="black" d="M316.263,-219.381C319.177,-218.15 322.126,-216.995 325,-216 392.649,-192.579 413.018,-199.142 482,-180 482.721,-179.8 483.446,-179.596 484.176,-179.389"/>
<polygon fill="black" stroke="black" points="485.202,-182.735 493.798,-176.541 483.216,-176.023 485.202,-182.735"/>
<g id="a_edge22&#45;headlabel"><a xlink:href="dir_000085_000074.html" target="_top" xlink:title="6">
<text text-anchor="middle" x="482.561" y="-183.978" font-family="FreeSans" font-size="10.00">6</text>
</a>
</g>
</g>
<!-- dir_564b6959276516c8dfa5a8a6d9fbe0fa&#45;&gt;dir_1e3a55bacfbd23a6aba299383b6b7742 -->
<g id="edge23" class="edge"><title>dir_564b6959276516c8dfa5a8a6d9fbe0fa&#45;&gt;dir_1e3a55bacfbd23a6aba299383b6b7742</title>
<path fill="none" stroke="black" d="M303.584,-215.697C310.658,-207.305 319.283,-197.07 327.045,-187.861"/>
<polygon fill="black" stroke="black" points="329.815,-190.006 333.583,-180.104 324.463,-185.495 329.815,-190.006"/>
<g id="a_edge23&#45;headlabel"><a xlink:href="dir_000085_000097.html" target="_top" xlink:title="4">
<text text-anchor="middle" x="329.669" y="-192.085" font-family="FreeSans" font-size="10.00">4</text>
</a>
</g>
</g>
<!-- dir_4abcc61d2f2c3c094f00235be0841909 -->
<g id="node16" class="node"><title>dir_4abcc61d2f2c3c094f00235be0841909</title>
<g id="a_node16"><a xlink:href="dir_4abcc61d2f2c3c094f00235be0841909.html" target="_top" xlink:title="vararray">
<polygon fill="white" stroke="black" points="236,-324 182,-324 182,-288 236,-288 236,-324"/>
<text text-anchor="middle" x="209" y="-303.5" font-family="FreeSans" font-size="10.00">vararray</text>
</a>
</g>
</g>
<!-- dir_4abcc61d2f2c3c094f00235be0841909&#45;&gt;dir_ec5b6dea0f546bb9c4903c2bcb98e114 -->
<g id="edge4" class="edge"><title>dir_4abcc61d2f2c3c094f00235be0841909&#45;&gt;dir_ec5b6dea0f546bb9c4903c2bcb98e114</title>
<path fill="none" stroke="black" d="M236.15,-291.022C239.086,-289.861 242.072,-288.821 245,-288 391.747,-246.884 450.451,-321.652 586,-252 656.684,-215.679 671.26,-184.716 692,-108 698.032,-85.6898 707.387,-73.2442 692,-56 673.474,-35.2383 492.33,-24.544 409.254,-20.6986"/>
<polygon fill="black" stroke="black" points="409.301,-17.1973 399.153,-20.2426 408.985,-24.1902 409.301,-17.1973"/>
<g id="a_edge4&#45;headlabel"><a xlink:href="dir_000112_000063.html" target="_top" xlink:title="2">
<text text-anchor="middle" x="413.02" y="-12.0229" font-family="FreeSans" font-size="10.00">2</text>
</a>
</g>
</g>
<!-- dir_0a538a087021ce8adf1d4849fdeba031&#45;&gt;dir_4abcc61d2f2c3c094f00235be0841909 -->
<g id="edge5" class="edge"><title>dir_0a538a087021ce8adf1d4849fdeba031&#45;&gt;dir_4abcc61d2f2c3c094f00235be0841909</title>
<path fill="none" stroke="black" d="M592.345,-105.142C607.526,-113.982 624.451,-126.95 633,-144 640.172,-158.303 640.191,-165.707 633,-180 608.87,-227.962 585.843,-232.045 536,-252 417.97,-299.254 372.402,-254.039 245.823,-288.348"/>
<polygon fill="black" stroke="black" points="244.838,-284.989 236.166,-291.076 246.741,-291.726 244.838,-284.989"/>
<g id="a_edge5&#45;headlabel"><a xlink:href="dir_000086_000112.html" target="_top" xlink:title="9">
<text text-anchor="middle" x="247.525" y="-278.78" font-family="FreeSans" font-size="10.00">9</text>
</a>
</g>
</g>
<!-- dir_0a538a087021ce8adf1d4849fdeba031&#45;&gt;dir_a20ba7afb7409ef346e4211b1bc3468e -->
<g id="edge6" class="edge"><title>dir_0a538a087021ce8adf1d4849fdeba031&#45;&gt;dir_a20ba7afb7409ef346e4211b1bc3468e</title>
<path fill="none" stroke="black" d="M531.952,-90C514.808,-90 497.664,-90 480.52,-90"/>
<polygon fill="black" stroke="black" points="480.426,-86.5001 470.426,-90 480.426,-93.5001 480.426,-86.5001"/>
<g id="a_edge6&#45;headlabel"><a xlink:href="dir_000086_000084.html" target="_top" xlink:title="1">
<text text-anchor="middle" x="484.02" y="-81.1607" font-family="FreeSans" font-size="10.00">1</text>
</a>
</g>
</g>
<!-- dir_0a538a087021ce8adf1d4849fdeba031&#45;&gt;dir_7e11a274c96f548414dddfb7e7fddd7d -->
<g id="edge7" class="edge"><title>dir_0a538a087021ce8adf1d4849fdeba031&#45;&gt;dir_7e11a274c96f548414dddfb7e7fddd7d</title>
<path fill="none" stroke="black" d="M541.61,-108.072C532.333,-115.121 520.801,-122.371 509,-126 469.492,-138.149 455.658,-137.648 416,-126 407.057,-123.373 398.19,-118.829 390.24,-113.835"/>
<polygon fill="black" stroke="black" points="391.948,-110.766 381.698,-108.085 388.039,-116.573 391.948,-110.766"/>
<g id="a_edge7&#45;headlabel"><a xlink:href="dir_000086_000099.html" target="_top" xlink:title="1">
<text text-anchor="middle" x="396.516" y="-107.918" font-family="FreeSans" font-size="10.00">1</text>
</a>
</g>
</g>
<!-- dir_0a538a087021ce8adf1d4849fdeba031&#45;&gt;dir_21fa564a88be47a3879b0c5d4f9e77d5 -->
<g id="edge8" class="edge"><title>dir_0a538a087021ce8adf1d4849fdeba031&#45;&gt;dir_21fa564a88be47a3879b0c5d4f9e77d5</title>
<path fill="none" stroke="black" d="M561.053,-108.104C558.709,-116.045 555.085,-125.666 551.163,-134.515"/>
<polygon fill="black" stroke="black" points="547.933,-133.159 546.837,-143.697 554.266,-136.142 547.933,-133.159"/>
<g id="a_edge8&#45;headlabel"><a xlink:href="dir_000086_000074.html" target="_top" xlink:title="17">
<text text-anchor="middle" x="546.897" y="-126.197" font-family="FreeSans" font-size="10.00">17</text>
</a>
</g>
</g>
<!-- dir_0a538a087021ce8adf1d4849fdeba031&#45;&gt;dir_ec5b6dea0f546bb9c4903c2bcb98e114 -->
<g id="edge9" class="edge"><title>dir_0a538a087021ce8adf1d4849fdeba031&#45;&gt;dir_ec5b6dea0f546bb9c4903c2bcb98e114</title>
<path fill="none" stroke="black" d="M542.508,-71.7288C535.23,-66.0203 526.628,-60.0902 518,-56 483.16,-39.484 440.15,-29.8498 409.132,-24.5765"/>
<polygon fill="black" stroke="black" points="409.532,-21.0958 399.101,-22.9517 408.413,-28.0058 409.532,-21.0958"/>
<g id="a_edge9&#45;headlabel"><a xlink:href="dir_000086_000063.html" target="_top" xlink:title="283">
<text text-anchor="middle" x="413.534" y="-16.3678" font-family="FreeSans" font-size="10.00">283</text>
</a>
</g>
</g>
<!-- dir_0a538a087021ce8adf1d4849fdeba031&#45;&gt;dir_1e3a55bacfbd23a6aba299383b6b7742 -->
<g id="edge10" class="edge"><title>dir_0a538a087021ce8adf1d4849fdeba031&#45;&gt;dir_1e3a55bacfbd23a6aba299383b6b7742</title>
<path fill="none" stroke="black" d="M531.947,-100.831C494.261,-113.157 429.543,-134.327 387.782,-147.987"/>
<polygon fill="black" stroke="black" points="386.623,-144.684 378.207,-151.119 388.8,-151.337 386.623,-144.684"/>
<g id="a_edge10&#45;headlabel"><a xlink:href="dir_000086_000097.html" target="_top" xlink:title="7">
<text text-anchor="middle" x="389.157" y="-138.368" font-family="FreeSans" font-size="10.00">7</text>
</a>
</g>
</g>
<!-- dir_21fa564a88be47a3879b0c5d4f9e77d5&#45;&gt;dir_0a538a087021ce8adf1d4849fdeba031 -->
<g id="edge24" class="edge"><title>dir_21fa564a88be47a3879b0c5d4f9e77d5&#45;&gt;dir_0a538a087021ce8adf1d4849fdeba031</title>
<path fill="none" stroke="black" d="M535.006,-143.697C537.371,-135.728 541.008,-126.1 544.935,-117.264"/>
<polygon fill="black" stroke="black" points="548.155,-118.641 549.263,-108.104 541.826,-115.65 548.155,-118.641"/>
<g id="a_edge24&#45;headlabel"><a xlink:href="dir_000074_000086.html" target="_top" xlink:title="1">
<text text-anchor="middle" x="549.187" y="-120.604" font-family="FreeSans" font-size="10.00">1</text>
</a>
</g>
</g>
<!-- dir_21fa564a88be47a3879b0c5d4f9e77d5&#45;&gt;dir_5e295cd396ed00d01dcf10a6f0e423f9 -->
<g id="edge25" class="edge"><title>dir_21fa564a88be47a3879b0c5d4f9e77d5&#45;&gt;dir_5e295cd396ed00d01dcf10a6f0e423f9</title>
<path fill="none" stroke="black" d="M535.119,-180.004C535.438,-200.411 532.513,-234.112 512,-252 457.077,-299.893 261.829,-270.719 174.031,-288.534"/>
<polygon fill="black" stroke="black" points="173.048,-285.169 164.123,-290.878 174.66,-291.981 173.048,-285.169"/>
<g id="a_edge25&#45;headlabel"><a xlink:href="dir_000074_000082.html" target="_top" xlink:title="1">
<text text-anchor="middle" x="175.892" y="-279.079" font-family="FreeSans" font-size="10.00">1</text>
</a>
</g>
</g>
<!-- dir_21fa564a88be47a3879b0c5d4f9e77d5&#45;&gt;dir_7e11a274c96f548414dddfb7e7fddd7d -->
<g id="edge26" class="edge"><title>dir_21fa564a88be47a3879b0c5d4f9e77d5&#45;&gt;dir_7e11a274c96f548414dddfb7e7fddd7d</title>
<path fill="none" stroke="black" d="M493.644,-144.765C467.69,-134.324 433.874,-120.719 406.751,-109.808"/>
<polygon fill="black" stroke="black" points="408.045,-106.556 397.461,-106.071 405.432,-113.05 408.045,-106.556"/>
<g id="a_edge26&#45;headlabel"><a xlink:href="dir_000074_000099.html" target="_top" xlink:title="1">
<text text-anchor="middle" x="412.439" y="-102.763" font-family="FreeSans" font-size="10.00">1</text>
</a>
</g>
</g>
<!-- dir_21fa564a88be47a3879b0c5d4f9e77d5&#45;&gt;dir_ec5b6dea0f546bb9c4903c2bcb98e114 -->
<g id="edge27" class="edge"><title>dir_21fa564a88be47a3879b0c5d4f9e77d5&#45;&gt;dir_ec5b6dea0f546bb9c4903c2bcb98e114</title>
<path fill="none" stroke="black" d="M529.985,-143.898C523.676,-120.72 509.249,-79.5351 482,-56 461.63,-38.4058 432.738,-29.1452 409.138,-24.2885"/>
<polygon fill="black" stroke="black" points="409.525,-20.8005 399.053,-22.409 408.242,-27.682 409.525,-20.8005"/>
<g id="a_edge27&#45;headlabel"><a xlink:href="dir_000074_000063.html" target="_top" xlink:title="31">
<text text-anchor="middle" x="413.579" y="-16.1678" font-family="FreeSans" font-size="10.00">31</text>
</a>
</g>
</g>
</g>
</svg>
