<?xml version="1.0" encoding="UTF-8" standalone="no"?>
<!DOCTYPE svg PUBLIC "-//W3C//DTD SVG 1.1//EN"
 "http://www.w3.org/Graphics/SVG/1.1/DTD/svg11.dtd">
<!-- Generated by graphviz version 2.40.1 (20161225.0304)
 -->
<!-- Title: /home/yuhw/GitHub/SeaQuest/e1039&#45;core/simulation/g4detectors/PHG4BlockGeom.cc Pages: 1 -->
<svg width="277pt" height="218pt"
 viewBox="0.00 0.00 276.50 218.00" xmlns="http://www.w3.org/2000/svg" xmlns:xlink="http://www.w3.org/1999/xlink">
<g id="graph0" class="graph" transform="scale(1 1) rotate(0) translate(4 214)">
<title>/home/yuhw/GitHub/SeaQuest/e1039&#45;core/simulation/g4detectors/PHG4BlockGeom.cc</title>
<!-- Node0 -->
<g id="node1" class="node">
<title>Node0</title>
<polygon fill="#bfbfbf" stroke="#000000" points="101.5,-168.5 101.5,-209.5 268.5,-209.5 268.5,-168.5 101.5,-168.5"/>
<text text-anchor="start" x="109.5" y="-197.5" font-family="FreeSans" font-size="10.00" fill="#000000">/home/yuhw/GitHub/SeaQuest</text>
<text text-anchor="start" x="109.5" y="-186.5" font-family="FreeSans" font-size="10.00" fill="#000000">/e1039&#45;core/simulation/g4detectors</text>
<text text-anchor="middle" x="185" y="-175.5" font-family="FreeSans" font-size="10.00" fill="#000000">/PHG4BlockGeom.cc</text>
</g>
<!-- Node1 -->
<g id="node2" class="node">
<title>Node1</title>
<g id="a_node2"><a xlink:href="../../dd/d10/PHG4BlockGeom_8h.html" target="_top" xlink:title="PHG4BlockGeom.h">
<polygon fill="none" stroke="#000000" points="95.5,-112.5 95.5,-131.5 196.5,-131.5 196.5,-112.5 95.5,-112.5"/>
<text text-anchor="middle" x="146" y="-119.5" font-family="FreeSans" font-size="10.00" fill="#000000">PHG4BlockGeom.h</text>
</a>
</g>
</g>
<!-- Node0&#45;&gt;Node1 -->
<g id="edge1" class="edge">
<title>Node0&#45;&gt;Node1</title>
<path fill="none" stroke="#191970" d="M172.8739,-168.168C167.7401,-159.3484 161.8066,-149.155 156.823,-140.5933"/>
<polygon fill="#191970" stroke="#191970" points="159.7487,-138.6622 151.6931,-131.7805 153.699,-142.1837 159.7487,-138.6622"/>
</g>
<!-- Node6 -->
<g id="node7" class="node">
<title>Node6</title>
<polygon fill="none" stroke="#bfbfbf" points="203,-56.5 203,-75.5 247,-75.5 247,-56.5 203,-56.5"/>
<text text-anchor="middle" x="225" y="-63.5" font-family="FreeSans" font-size="10.00" fill="#000000">cmath</text>
</g>
<!-- Node0&#45;&gt;Node6 -->
<g id="edge8" class="edge">
<title>Node0&#45;&gt;Node6</title>
<path fill="none" stroke="#191970" d="M192.4359,-168.4939C196.2972,-157.6771 201.0258,-144.1616 205,-132 210.0555,-116.5295 215.3814,-98.879 219.265,-85.7259"/>
<polygon fill="#191970" stroke="#191970" points="222.6963,-86.4624 222.1504,-75.8816 215.9789,-84.4934 222.6963,-86.4624"/>
</g>
<!-- Node2 -->
<g id="node3" class="node">
<title>Node2</title>
<g id="a_node3"><a xlink:href="../../df/d32/PHObject_8h.html" target="_top" xlink:title="phool/PHObject.h">
<polygon fill="none" stroke="#000000" points="0,-56.5 0,-75.5 92,-75.5 92,-56.5 0,-56.5"/>
<text text-anchor="middle" x="46" y="-63.5" font-family="FreeSans" font-size="10.00" fill="#000000">phool/PHObject.h</text>
</a>
</g>
</g>
<!-- Node1&#45;&gt;Node2 -->
<g id="edge2" class="edge">
<title>Node1&#45;&gt;Node2</title>
<path fill="none" stroke="#191970" d="M128.5813,-112.2455C112.9515,-103.4928 89.7981,-90.527 71.9815,-80.5496"/>
<polygon fill="#191970" stroke="#191970" points="73.6543,-77.475 63.2191,-75.6427 70.234,-83.5825 73.6543,-77.475"/>
</g>
<!-- Node5 -->
<g id="node6" class="node">
<title>Node5</title>
<g id="a_node6"><a xlink:href="../../d5/d6f/phool_8h.html" target="_top" xlink:title="phool/phool.h">
<polygon fill="none" stroke="#000000" points="110,-56.5 110,-75.5 184,-75.5 184,-56.5 110,-56.5"/>
<text text-anchor="middle" x="147" y="-63.5" font-family="FreeSans" font-size="10.00" fill="#000000">phool/phool.h</text>
</a>
</g>
</g>
<!-- Node1&#45;&gt;Node5 -->
<g id="edge5" class="edge">
<title>Node1&#45;&gt;Node5</title>
<path fill="none" stroke="#191970" d="M146.1742,-112.2455C146.3047,-104.9382 146.4876,-94.6944 146.6481,-85.7046"/>
<polygon fill="#191970" stroke="#191970" points="150.1486,-85.7036 146.8278,-75.6427 143.1497,-85.5786 150.1486,-85.7036"/>
</g>
<!-- Node1&#45;&gt;Node6 -->
<g id="edge7" class="edge">
<title>Node1&#45;&gt;Node6</title>
<path fill="none" stroke="#191970" d="M159.7607,-112.2455C171.6552,-103.814 189.065,-91.4729 202.9085,-81.6598"/>
<polygon fill="#191970" stroke="#191970" points="205.2628,-84.2811 211.3969,-75.6427 201.2146,-78.5704 205.2628,-84.2811"/>
</g>
<!-- Node3 -->
<g id="node4" class="node">
<title>Node3</title>
<polygon fill="none" stroke="#bfbfbf" points="16.5,-.5 16.5,-19.5 75.5,-19.5 75.5,-.5 16.5,-.5"/>
<text text-anchor="middle" x="46" y="-7.5" font-family="FreeSans" font-size="10.00" fill="#000000">TObject.h</text>
</g>
<!-- Node2&#45;&gt;Node3 -->
<g id="edge3" class="edge">
<title>Node2&#45;&gt;Node3</title>
<path fill="none" stroke="#191970" d="M46,-56.2455C46,-48.9382 46,-38.6944 46,-29.7046"/>
<polygon fill="#191970" stroke="#191970" points="49.5001,-29.6426 46,-19.6427 42.5001,-29.6427 49.5001,-29.6426"/>
</g>
<!-- Node4 -->
<g id="node5" class="node">
<title>Node4</title>
<polygon fill="none" stroke="#bfbfbf" points="106.5,-.5 106.5,-19.5 159.5,-19.5 159.5,-.5 106.5,-.5"/>
<text text-anchor="middle" x="133" y="-7.5" font-family="FreeSans" font-size="10.00" fill="#000000">iostream</text>
</g>
<!-- Node2&#45;&gt;Node4 -->
<g id="edge4" class="edge">
<title>Node2&#45;&gt;Node4</title>
<path fill="none" stroke="#191970" d="M61.1542,-56.2455C74.5027,-47.6534 94.1586,-35.0014 109.5383,-25.1018"/>
<polygon fill="#191970" stroke="#191970" points="111.5051,-27.9982 118.0194,-19.6427 107.7164,-22.1121 111.5051,-27.9982"/>
</g>
<!-- Node5&#45;&gt;Node4 -->
<g id="edge6" class="edge">
<title>Node5&#45;&gt;Node4</title>
<path fill="none" stroke="#191970" d="M144.5614,-56.2455C142.7145,-48.8579 140.1172,-38.4689 137.8522,-29.4087"/>
<polygon fill="#191970" stroke="#191970" points="141.2316,-28.4952 135.4107,-19.6427 134.4406,-30.193 141.2316,-28.4952"/>
</g>
</g>
</svg>
