<?xml version="1.0" encoding="UTF-8" standalone="no"?>
<!DOCTYPE svg PUBLIC "-//W3C//DTD SVG 1.1//EN"
 "http://www.w3.org/Graphics/SVG/1.1/DTD/svg11.dtd">
<!-- Generated by graphviz version 2.40.1 (20161225.0304)
 -->
<!-- Title: /home/yuhw/GitHub/SeaQuest/e1039&#45;core/packages/db_svc/DbSvc.h Pages: 1 -->
<svg width="178pt" height="106pt"
 viewBox="0.00 0.00 177.50 106.00" xmlns="http://www.w3.org/2000/svg" xmlns:xlink="http://www.w3.org/1999/xlink">
<g id="graph0" class="graph" transform="scale(1 1) rotate(0) translate(4 102)">
<title>/home/yuhw/GitHub/SeaQuest/e1039&#45;core/packages/db_svc/DbSvc.h</title>
<!-- Node0 -->
<g id="node1" class="node">
<title>Node0</title>
<polygon fill="#bfbfbf" stroke="#000000" points="8,-56.5 8,-97.5 155,-97.5 155,-56.5 8,-56.5"/>
<text text-anchor="start" x="16" y="-85.5" font-family="FreeSans" font-size="10.00" fill="#000000">/home/yuhw/GitHub/SeaQuest</text>
<text text-anchor="start" x="16" y="-74.5" font-family="FreeSans" font-size="10.00" fill="#000000">/e1039&#45;core/packages/db</text>
<text text-anchor="middle" x="81.5" y="-63.5" font-family="FreeSans" font-size="10.00" fill="#000000">_svc/DbSvc.h</text>
</g>
<!-- Node1 -->
<g id="node2" class="node">
<title>Node1</title>
<polygon fill="none" stroke="#bfbfbf" points="0,-.5 0,-19.5 43,-19.5 43,-.5 0,-.5"/>
<text text-anchor="middle" x="21.5" y="-7.5" font-family="FreeSans" font-size="10.00" fill="#000000">vector</text>
</g>
<!-- Node0&#45;&gt;Node1 -->
<g id="edge1" class="edge">
<title>Node0&#45;&gt;Node1</title>
<path fill="none" stroke="#191970" d="M62.8445,-56.168C54.6066,-46.9691 45.0304,-36.2756 37.1697,-27.4979"/>
<polygon fill="#191970" stroke="#191970" points="39.5372,-24.8951 30.2586,-19.7805 34.3225,-29.5649 39.5372,-24.8951"/>
</g>
<!-- Node2 -->
<g id="node3" class="node">
<title>Node2</title>
<polygon fill="none" stroke="#bfbfbf" points="61.5,-.5 61.5,-19.5 101.5,-19.5 101.5,-.5 61.5,-.5"/>
<text text-anchor="middle" x="81.5" y="-7.5" font-family="FreeSans" font-size="10.00" fill="#000000">string</text>
</g>
<!-- Node0&#45;&gt;Node2 -->
<g id="edge2" class="edge">
<title>Node0&#45;&gt;Node2</title>
<path fill="none" stroke="#191970" d="M81.5,-56.168C81.5,-47.8226 81.5,-38.2471 81.5,-29.9879"/>
<polygon fill="#191970" stroke="#191970" points="85.0001,-29.7804 81.5,-19.7805 78.0001,-29.7805 85.0001,-29.7804"/>
</g>
<!-- Node3 -->
<g id="node4" class="node">
<title>Node3</title>
<polygon fill="none" stroke="#bfbfbf" points="119.5,-.5 119.5,-19.5 169.5,-19.5 169.5,-.5 119.5,-.5"/>
<text text-anchor="middle" x="144.5" y="-7.5" font-family="FreeSans" font-size="10.00" fill="#000000">sstream</text>
</g>
<!-- Node0&#45;&gt;Node3 -->
<g id="edge3" class="edge">
<title>Node0&#45;&gt;Node3</title>
<path fill="none" stroke="#191970" d="M101.0883,-56.168C109.8272,-46.8742 120.0006,-36.0549 128.3015,-27.227"/>
<polygon fill="#191970" stroke="#191970" points="131.003,-29.4633 135.3034,-19.7805 125.9033,-24.6681 131.003,-29.4633"/>
</g>
</g>
</svg>
