<?xml version="1.0" encoding="UTF-8" standalone="no"?>
<!DOCTYPE svg PUBLIC "-//W3C//DTD SVG 1.1//EN"
 "http://www.w3.org/Graphics/SVG/1.1/DTD/svg11.dtd">
<!-- Generated by graphviz version 2.40.1 (20161225.0304)
 -->
<!-- Title: Fun4AllSyncManager::CurrentRun Pages: 1 -->
<svg width="695pt" height="137pt"
 viewBox="0.00 0.00 695.00 137.00" xmlns="http://www.w3.org/2000/svg" xmlns:xlink="http://www.w3.org/1999/xlink">
<g id="graph0" class="graph" transform="scale(1 1) rotate(0) translate(4 133)">
<title>Fun4AllSyncManager::CurrentRun</title>
<!-- Node29 -->
<g id="node1" class="node">
<title>Node29</title>
<polygon fill="#bfbfbf" stroke="#000000" points="0,-49.5 0,-79.5 109,-79.5 109,-49.5 0,-49.5"/>
<text text-anchor="start" x="8" y="-67.5" font-family="FreeSans" font-size="10.00" fill="#000000">Fun4AllSyncManager</text>
<text text-anchor="middle" x="54.5" y="-56.5" font-family="FreeSans" font-size="10.00" fill="#000000">::CurrentRun</text>
</g>
<!-- Node30 -->
<g id="node2" class="node">
<title>Node30</title>
<g id="a_node2"><a xlink:href="../../db/d1f/classFun4AllOscarInputManager.html#a6fbe420ea4972e895f4061bb94ab9d77" target="_top" xlink:title="Fun4AllOscarInputManager\l::fileopen">
<polygon fill="none" stroke="#000000" points="149,-98.5 149,-128.5 283,-128.5 283,-98.5 149,-98.5"/>
<text text-anchor="start" x="157" y="-116.5" font-family="FreeSans" font-size="10.00" fill="#000000">Fun4AllOscarInputManager</text>
<text text-anchor="middle" x="216" y="-105.5" font-family="FreeSans" font-size="10.00" fill="#000000">::fileopen</text>
</a>
</g>
</g>
<!-- Node29&#45;&gt;Node30 -->
<g id="edge1" class="edge">
<title>Node29&#45;&gt;Node30</title>
<path fill="none" stroke="#191970" d="M114.1987,-82.6129C131.3681,-87.8222 149.9025,-93.4457 166.3912,-98.4484"/>
<polygon fill="#191970" stroke="#191970" points="114.8586,-79.1556 104.2731,-79.6014 112.8262,-85.8541 114.8586,-79.1556"/>
</g>
<!-- Node33 -->
<g id="node5" class="node">
<title>Node33</title>
<g id="a_node5"><a xlink:href="../../d6/d6f/classFun4AllHepMCInputManager.html#aaf891596a876957d656c23ea03b39f1a" target="_top" xlink:title="Fun4AllHepMCInputManager\l::fileopen">
<polygon fill="none" stroke="#000000" points="145.5,-49.5 145.5,-79.5 286.5,-79.5 286.5,-49.5 145.5,-49.5"/>
<text text-anchor="start" x="153.5" y="-67.5" font-family="FreeSans" font-size="10.00" fill="#000000">Fun4AllHepMCInputManager</text>
<text text-anchor="middle" x="216" y="-56.5" font-family="FreeSans" font-size="10.00" fill="#000000">::fileopen</text>
</a>
</g>
</g>
<!-- Node29&#45;&gt;Node33 -->
<g id="edge4" class="edge">
<title>Node29&#45;&gt;Node33</title>
<path fill="none" stroke="#191970" d="M119.43,-64.5C127.9577,-64.5 136.7304,-64.5 145.3473,-64.5"/>
<polygon fill="#191970" stroke="#191970" points="119.1766,-61.0001 109.1765,-64.5 119.1765,-68.0001 119.1766,-61.0001"/>
</g>
<!-- Node37 -->
<g id="node9" class="node">
<title>Node37</title>
<g id="a_node9"><a xlink:href="../../df/d43/classFun4AllDummyInputManager.html#a3863cb07576f56e8e514ae272b322679" target="_top" xlink:title="Fun4AllDummyInputManager\l::setSyncManager">
<polygon fill="none" stroke="#000000" points="145,-.5 145,-30.5 287,-30.5 287,-.5 145,-.5"/>
<text text-anchor="start" x="153" y="-18.5" font-family="FreeSans" font-size="10.00" fill="#000000">Fun4AllDummyInputManager</text>
<text text-anchor="middle" x="216" y="-7.5" font-family="FreeSans" font-size="10.00" fill="#000000">::setSyncManager</text>
</a>
</g>
</g>
<!-- Node29&#45;&gt;Node37 -->
<g id="edge8" class="edge">
<title>Node29&#45;&gt;Node37</title>
<path fill="none" stroke="#191970" d="M114.1987,-46.3871C131.3681,-41.1778 149.9025,-35.5543 166.3912,-30.5516"/>
<polygon fill="#191970" stroke="#191970" points="112.8262,-43.1459 104.2731,-49.3986 114.8586,-49.8444 112.8262,-43.1459"/>
</g>
<!-- Node31 -->
<g id="node3" class="node">
<title>Node31</title>
<g id="a_node3"><a xlink:href="../../db/d1f/classFun4AllOscarInputManager.html#ab9a8e0287bd958f964a5dbd00d8be9f4" target="_top" xlink:title="Fun4AllOscarInputManager\l::OpenNextFile">
<polygon fill="none" stroke="#000000" points="327,-98.5 327,-128.5 461,-128.5 461,-98.5 327,-98.5"/>
<text text-anchor="start" x="335" y="-116.5" font-family="FreeSans" font-size="10.00" fill="#000000">Fun4AllOscarInputManager</text>
<text text-anchor="middle" x="394" y="-105.5" font-family="FreeSans" font-size="10.00" fill="#000000">::OpenNextFile</text>
</a>
</g>
</g>
<!-- Node30&#45;&gt;Node31 -->
<g id="edge2" class="edge">
<title>Node30&#45;&gt;Node31</title>
<path fill="none" stroke="#191970" d="M293.2001,-113.5C304.3625,-113.5 315.7768,-113.5 326.7242,-113.5"/>
<polygon fill="#191970" stroke="#191970" points="293.0406,-110.0001 283.0405,-113.5 293.0405,-117.0001 293.0406,-110.0001"/>
</g>
<!-- Node32 -->
<g id="node4" class="node">
<title>Node32</title>
<g id="a_node4"><a xlink:href="../../db/d1f/classFun4AllOscarInputManager.html#a4be602bd8c9fe73f9dcc81c8871784a6" target="_top" xlink:title="Fun4AllOscarInputManager::run">
<polygon fill="none" stroke="#000000" points="518,-104 518,-123 670,-123 670,-104 518,-104"/>
<text text-anchor="middle" x="594" y="-111" font-family="FreeSans" font-size="10.00" fill="#000000">Fun4AllOscarInputManager::run</text>
</a>
</g>
</g>
<!-- Node31&#45;&gt;Node32 -->
<g id="edge3" class="edge">
<title>Node31&#45;&gt;Node32</title>
<path fill="none" stroke="#191970" d="M471.5198,-113.5C486.6878,-113.5 502.5835,-113.5 517.711,-113.5"/>
<polygon fill="#191970" stroke="#191970" points="471.1535,-110.0001 461.1535,-113.5 471.1534,-117.0001 471.1535,-110.0001"/>
</g>
<!-- Node34 -->
<g id="node6" class="node">
<title>Node34</title>
<g id="a_node6"><a xlink:href="../../d6/d6f/classFun4AllHepMCInputManager.html#a0eee823ea0302273e9e2d3459bcc3508" target="_top" xlink:title="Fun4AllHepMCInputManager\l::OpenNextFile">
<polygon fill="none" stroke="#000000" points="323.5,-49.5 323.5,-79.5 464.5,-79.5 464.5,-49.5 323.5,-49.5"/>
<text text-anchor="start" x="331.5" y="-67.5" font-family="FreeSans" font-size="10.00" fill="#000000">Fun4AllHepMCInputManager</text>
<text text-anchor="middle" x="394" y="-56.5" font-family="FreeSans" font-size="10.00" fill="#000000">::OpenNextFile</text>
</a>
</g>
</g>
<!-- Node33&#45;&gt;Node34 -->
<g id="edge5" class="edge">
<title>Node33&#45;&gt;Node34</title>
<path fill="none" stroke="#191970" d="M296.6462,-64.5C305.5991,-64.5 314.6657,-64.5 323.4794,-64.5"/>
<polygon fill="#191970" stroke="#191970" points="296.606,-61.0001 286.606,-64.5 296.6059,-68.0001 296.606,-61.0001"/>
</g>
<!-- Node35 -->
<g id="node7" class="node">
<title>Node35</title>
<g id="a_node7"><a xlink:href="../../de/d99/classFun4AllHepMCPileupInputManager.html#a81bf2b69c3c4d3aae0aadebafe1c2c2e" target="_top" xlink:title="Fun4AllHepMCPileupInputManager::run">
<polygon fill="none" stroke="#000000" points="501,-61 501,-80 687,-80 687,-61 501,-61"/>
<text text-anchor="middle" x="594" y="-68" font-family="FreeSans" font-size="10.00" fill="#000000">Fun4AllHepMCPileupInputManager::run</text>
</a>
</g>
</g>
<!-- Node34&#45;&gt;Node35 -->
<g id="edge6" class="edge">
<title>Node34&#45;&gt;Node35</title>
<path fill="none" stroke="#191970" d="M474.786,-66.9236C483.3013,-67.179 492.0097,-67.4403 500.6515,-67.6995"/>
<polygon fill="#191970" stroke="#191970" points="474.613,-63.4169 464.5125,-66.6154 474.403,-70.4138 474.613,-63.4169"/>
</g>
<!-- Node36 -->
<g id="node8" class="node">
<title>Node36</title>
<g id="a_node8"><a xlink:href="../../d6/d6f/classFun4AllHepMCInputManager.html#ab6c80a8ee0701bfff5eee3ec3623015c" target="_top" xlink:title="Fun4AllHepMCInputManager::run">
<polygon fill="none" stroke="#000000" points="514.5,-23 514.5,-42 673.5,-42 673.5,-23 514.5,-23"/>
<text text-anchor="middle" x="594" y="-30" font-family="FreeSans" font-size="10.00" fill="#000000">Fun4AllHepMCInputManager::run</text>
</a>
</g>
</g>
<!-- Node34&#45;&gt;Node36 -->
<g id="edge7" class="edge">
<title>Node34&#45;&gt;Node36</title>
<path fill="none" stroke="#191970" d="M474.5364,-51.6142C494.5276,-48.4156 515.5983,-45.0443 534.3838,-42.0386"/>
<polygon fill="#191970" stroke="#191970" points="473.8339,-48.182 464.5125,-53.218 474.9399,-55.0941 473.8339,-48.182"/>
</g>
<!-- Node38 -->
<g id="node10" class="node">
<title>Node38</title>
<g id="a_node10"><a xlink:href="../../df/d43/classFun4AllDummyInputManager.html#a9ae5e17634cfd4b1bd946b25c97499d2" target="_top" xlink:title="Fun4AllDummyInputManager\l::SyncIt">
<polygon fill="none" stroke="#000000" points="323,-.5 323,-30.5 465,-30.5 465,-.5 323,-.5"/>
<text text-anchor="start" x="331" y="-18.5" font-family="FreeSans" font-size="10.00" fill="#000000">Fun4AllDummyInputManager</text>
<text text-anchor="middle" x="394" y="-7.5" font-family="FreeSans" font-size="10.00" fill="#000000">::SyncIt</text>
</a>
</g>
</g>
<!-- Node37&#45;&gt;Node38 -->
<g id="edge9" class="edge">
<title>Node37&#45;&gt;Node38</title>
<path fill="none" stroke="#191970" d="M297.1702,-15.5C305.7888,-15.5 314.506,-15.5 322.9953,-15.5"/>
<polygon fill="#191970" stroke="#191970" points="297.1177,-12.0001 287.1177,-15.5 297.1177,-19.0001 297.1177,-12.0001"/>
</g>
</g>
</svg>
