<?xml version="1.0" encoding="UTF-8" standalone="no"?>
<!DOCTYPE svg PUBLIC "-//W3C//DTD SVG 1.1//EN"
 "http://www.w3.org/Graphics/SVG/1.1/DTD/svg11.dtd">
<!-- Generated by graphviz version 2.40.1 (20161225.0304)
 -->
<!-- Title: Fun4AllSyncManager::SegmentNumber Pages: 1 -->
<svg width="1574pt" height="763pt"
 viewBox="0.00 0.00 1574.00 762.75" xmlns="http://www.w3.org/2000/svg" xmlns:xlink="http://www.w3.org/1999/xlink">
<g id="graph0" class="graph" transform="scale(1 1) rotate(0) translate(4 758.7488)">
<title>Fun4AllSyncManager::SegmentNumber</title>
<!-- Node311 -->
<g id="node1" class="node">
<title>Node311</title>
<polygon fill="#bfbfbf" stroke="#000000" points="0,-672.7488 0,-702.7488 109,-702.7488 109,-672.7488 0,-672.7488"/>
<text text-anchor="start" x="8" y="-690.7488" font-family="FreeSans" font-size="10.00" fill="#000000">Fun4AllSyncManager</text>
<text text-anchor="middle" x="54.5" y="-679.7488" font-family="FreeSans" font-size="10.00" fill="#000000">::SegmentNumber</text>
</g>
<!-- Node312 -->
<g id="node2" class="node">
<title>Node312</title>
<g id="a_node2"><a xlink:href="../../d3/d97/classFun4AllEVIOInputManager.html#af61a28facba084aad29bf788ef2d28e7" target="_top" xlink:title="Fun4AllEVIOInputManager::run">
<polygon fill="none" stroke="#000000" points="707.5,-735.2488 707.5,-754.2488 856.5,-754.2488 856.5,-735.2488 707.5,-735.2488"/>
<text text-anchor="middle" x="782" y="-742.2488" font-family="FreeSans" font-size="10.00" fill="#000000">Fun4AllEVIOInputManager::run</text>
</a>
</g>
</g>
<!-- Node311&#45;&gt;Node312 -->
<g id="edge1" class="edge">
<title>Node311&#45;&gt;Node312</title>
<path fill="none" stroke="#191970" d="M119.3217,-702.5593C127.923,-704.1711 136.6512,-705.6296 145,-706.7488 347.0405,-733.8336 587.723,-741.6149 707.1252,-743.8494"/>
<polygon fill="#191970" stroke="#191970" points="119.7981,-699.0863 109.3131,-700.6079 118.4585,-705.957 119.7981,-699.0863"/>
</g>
<!-- Node313 -->
<g id="node3" class="node">
<title>Node313</title>
<g id="a_node3"><a xlink:href="../../da/dd8/classFun4AllPrdfInputManager.html#ac3f313ef5571ce32cd40799791e2ea56" target="_top" xlink:title="Fun4AllPrdfInputManager::run">
<polygon fill="none" stroke="#000000" points="709.5,-697.2488 709.5,-716.2488 854.5,-716.2488 854.5,-697.2488 709.5,-697.2488"/>
<text text-anchor="middle" x="782" y="-704.2488" font-family="FreeSans" font-size="10.00" fill="#000000">Fun4AllPrdfInputManager::run</text>
</a>
</g>
</g>
<!-- Node311&#45;&gt;Node313 -->
<g id="edge2" class="edge">
<title>Node311&#45;&gt;Node313</title>
<path fill="none" stroke="#191970" d="M119.4071,-689.444C254.9345,-692.9836 567.1655,-701.138 709.2364,-704.8485"/>
<polygon fill="#191970" stroke="#191970" points="119.2687,-685.9393 109.1807,-689.1769 119.0859,-692.9369 119.2687,-685.9393"/>
</g>
<!-- Node314 -->
<g id="node4" class="node">
<title>Node314</title>
<g id="a_node4"><a xlink:href="../../d5/dd4/classFun4AllSRawEventInputManager.html#a6fb883458d575781c7ae1da38ecf30dd" target="_top" xlink:title="Fun4AllSRawEventInputManager::run">
<polygon fill="none" stroke="#000000" points="694,-659.2488 694,-678.2488 870,-678.2488 870,-659.2488 694,-659.2488"/>
<text text-anchor="middle" x="782" y="-666.2488" font-family="FreeSans" font-size="10.00" fill="#000000">Fun4AllSRawEventInputManager::run</text>
</a>
</g>
</g>
<!-- Node311&#45;&gt;Node314 -->
<g id="edge3" class="edge">
<title>Node311&#45;&gt;Node314</title>
<path fill="none" stroke="#191970" d="M119.4423,-686.0528C250.2811,-682.6357 545.7069,-674.9201 693.8347,-671.0514"/>
<polygon fill="#191970" stroke="#191970" points="119.0859,-682.5608 109.1807,-686.3208 119.2687,-689.5584 119.0859,-682.5608"/>
</g>
<!-- Node315 -->
<g id="node5" class="node">
<title>Node315</title>
<g id="a_node5"><a xlink:href="../../da/d29/classFun4AllServer.html#a93e4cbf9cae3a4e5fa33ffc9dcc28eda" target="_top" xlink:title="Fun4AllServer::SegmentNumber">
<polygon fill="none" stroke="#000000" points="145,-492.2488 145,-511.2488 300,-511.2488 300,-492.2488 145,-492.2488"/>
<text text-anchor="middle" x="222.5" y="-499.2488" font-family="FreeSans" font-size="10.00" fill="#000000">Fun4AllServer::SegmentNumber</text>
</a>
</g>
</g>
<!-- Node311&#45;&gt;Node315 -->
<g id="edge4" class="edge">
<title>Node311&#45;&gt;Node315</title>
<path fill="none" stroke="#191970" d="M75.0815,-664.9621C111.9858,-624.1038 187.9656,-539.9833 213.7317,-511.4566"/>
<polygon fill="#191970" stroke="#191970" points="72.3537,-662.7606 68.2481,-672.5277 77.5484,-667.4526 72.3537,-662.7606"/>
</g>
<!-- Node316 -->
<g id="node6" class="node">
<title>Node316</title>
<g id="a_node6"><a xlink:href="../../da/d29/classFun4AllServer.html#a6d16c322884bdb48e0e36b0c2b92dd00" target="_top" xlink:title="Fun4AllServer::topNode">
<polygon fill="none" stroke="#000000" points="336,-325.2488 336,-344.2488 454,-344.2488 454,-325.2488 336,-325.2488"/>
<text text-anchor="middle" x="395" y="-332.2488" font-family="FreeSans" font-size="10.00" fill="#000000">Fun4AllServer::topNode</text>
</a>
</g>
</g>
<!-- Node315&#45;&gt;Node316 -->
<g id="edge5" class="edge">
<title>Node315&#45;&gt;Node316</title>
<path fill="none" stroke="#191970" d="M239.8124,-484.9885C275.5628,-450.3779 356.5738,-371.9498 384.9524,-344.4761"/>
<polygon fill="#191970" stroke="#191970" points="237.2702,-482.5781 232.5199,-492.0484 242.1391,-487.6074 237.2702,-482.5781"/>
</g>
<!-- Node352 -->
<g id="node42" class="node">
<title>Node352</title>
<g id="a_node42"><a xlink:href="../../de/d50/classFun4AllFileOutStream.html#ae507d564a712c0e99c2fa80b9c239385" target="_top" xlink:title="Fun4AllFileOutStream\l::WriteEventOut">
<polygon fill="none" stroke="#000000" points="338.5,-486.7488 338.5,-516.7488 451.5,-516.7488 451.5,-486.7488 338.5,-486.7488"/>
<text text-anchor="start" x="346.5" y="-504.7488" font-family="FreeSans" font-size="10.00" fill="#000000">Fun4AllFileOutStream</text>
<text text-anchor="middle" x="395" y="-493.7488" font-family="FreeSans" font-size="10.00" fill="#000000">::WriteEventOut</text>
</a>
</g>
</g>
<!-- Node315&#45;&gt;Node352 -->
<g id="edge54" class="edge">
<title>Node315&#45;&gt;Node352</title>
<path fill="none" stroke="#191970" d="M310.4656,-501.7488C319.9626,-501.7488 329.4319,-501.7488 338.4125,-501.7488"/>
<polygon fill="#191970" stroke="#191970" points="310.1714,-498.2489 300.1713,-501.7488 310.1713,-505.2489 310.1714,-498.2489"/>
</g>
<!-- Node317 -->
<g id="node7" class="node">
<title>Node317</title>
<g id="a_node7"><a xlink:href="../../d9/df8/classPHG4GDMLUtility.html#adb03ec38807279cb5abaf38987c5a73f" target="_top" xlink:title="save the current Geant4 geometry to GDML file. Reading PHG4GDMLConfig from topNode ...">
<polygon fill="none" stroke="#000000" points="492.5,-451.2488 492.5,-470.2488 650.5,-470.2488 650.5,-451.2488 492.5,-451.2488"/>
<text text-anchor="middle" x="571.5" y="-458.2488" font-family="FreeSans" font-size="10.00" fill="#000000">PHG4GDMLUtility::Dump_GDML</text>
</a>
</g>
</g>
<!-- Node316&#45;&gt;Node317 -->
<g id="edge6" class="edge">
<title>Node316&#45;&gt;Node317</title>
<path fill="none" stroke="#191970" d="M406.1928,-352.9093C421.8999,-376.8149 452.7714,-418.4149 490,-440.7488 497.2462,-445.0959 505.3924,-448.4998 513.6588,-451.1648"/>
<polygon fill="#191970" stroke="#191970" points="409.0952,-350.9514 400.7599,-344.4112 403.1974,-354.7219 409.0952,-350.9514"/>
</g>
<!-- Node321 -->
<g id="node11" class="node">
<title>Node321</title>
<g id="a_node11"><a xlink:href="../../d3/d97/classFun4AllEVIOInputManager.html#af15bc51c0267a3e6f959339b512f491e" target="_top" xlink:title="Fun4AllEVIOInputManager\l::Fun4AllEVIOInputManager">
<polygon fill="none" stroke="#000000" points="503.5,-401.7488 503.5,-431.7488 639.5,-431.7488 639.5,-401.7488 503.5,-401.7488"/>
<text text-anchor="start" x="511.5" y="-419.7488" font-family="FreeSans" font-size="10.00" fill="#000000">Fun4AllEVIOInputManager</text>
<text text-anchor="middle" x="571.5" y="-408.7488" font-family="FreeSans" font-size="10.00" fill="#000000">::Fun4AllEVIOInputManager</text>
</a>
</g>
</g>
<!-- Node316&#45;&gt;Node321 -->
<g id="edge10" class="edge">
<title>Node316&#45;&gt;Node321</title>
<path fill="none" stroke="#191970" d="M419.5983,-349.5285C438.4809,-360.5483 465.4014,-375.5636 490,-386.7488 501.8036,-392.1161 514.8743,-397.2628 527.0286,-401.7315"/>
<polygon fill="#191970" stroke="#191970" points="421.1581,-346.3853 410.7659,-344.3231 417.6039,-352.4158 421.1581,-346.3853"/>
</g>
<!-- Node322 -->
<g id="node12" class="node">
<title>Node322</title>
<g id="a_node12"><a xlink:href="../../d6/d6f/classFun4AllHepMCInputManager.html#ab49f9d3e9950f49dfe1323ac466e2021" target="_top" xlink:title="Fun4AllHepMCInputManager\l::Fun4AllHepMCInputManager">
<polygon fill="none" stroke="#000000" points="709,-319.7488 709,-349.7488 855,-349.7488 855,-319.7488 709,-319.7488"/>
<text text-anchor="start" x="717" y="-337.7488" font-family="FreeSans" font-size="10.00" fill="#000000">Fun4AllHepMCInputManager</text>
<text text-anchor="middle" x="782" y="-326.7488" font-family="FreeSans" font-size="10.00" fill="#000000">::Fun4AllHepMCInputManager</text>
</a>
</g>
</g>
<!-- Node316&#45;&gt;Node322 -->
<g id="edge11" class="edge">
<title>Node316&#45;&gt;Node322</title>
<path fill="none" stroke="#191970" d="M443.5397,-346.3736C458.3617,-349.4039 474.7686,-352.2406 490,-353.7488 562.0919,-360.8873 580.7491,-359.0411 653,-353.7488 671.1745,-352.4176 690.6745,-350.0448 708.8694,-347.4172"/>
<polygon fill="#191970" stroke="#191970" points="444.074,-342.9092 433.5655,-344.2588 442.622,-349.7569 444.074,-342.9092"/>
</g>
<!-- Node323 -->
<g id="node13" class="node">
<title>Node323</title>
<g id="a_node13"><a xlink:href="../../db/d1f/classFun4AllOscarInputManager.html#a6eba24090795ccb027a1dedc87db1a85" target="_top" xlink:title="Fun4AllOscarInputManager\l::Fun4AllOscarInputManager">
<polygon fill="none" stroke="#000000" points="712.5,-221.7488 712.5,-251.7488 851.5,-251.7488 851.5,-221.7488 712.5,-221.7488"/>
<text text-anchor="start" x="720.5" y="-239.7488" font-family="FreeSans" font-size="10.00" fill="#000000">Fun4AllOscarInputManager</text>
<text text-anchor="middle" x="782" y="-228.7488" font-family="FreeSans" font-size="10.00" fill="#000000">::Fun4AllOscarInputManager</text>
</a>
</g>
</g>
<!-- Node316&#45;&gt;Node323 -->
<g id="edge12" class="edge">
<title>Node316&#45;&gt;Node323</title>
<path fill="none" stroke="#191970" d="M399.3133,-315.2835C408.6064,-278.6232 434.342,-200.1205 490,-167.7488 552.6227,-131.3264 587.5342,-136.7259 653,-167.7488 675.833,-178.5689 667.7802,-198.0324 689,-211.7488 696.1609,-216.3776 704.1597,-220.1544 712.3782,-223.2348"/>
<polygon fill="#191970" stroke="#191970" points="395.8589,-314.6808 396.9422,-325.2201 402.6677,-316.3056 395.8589,-314.6808"/>
</g>
<!-- Node324 -->
<g id="node14" class="node">
<title>Node324</title>
<g id="a_node14"><a xlink:href="../../da/dd8/classFun4AllPrdfInputManager.html#a36fdaca3254cbb07a00af64b10488385" target="_top" xlink:title="Fun4AllPrdfInputManager\l::Fun4AllPrdfInputManager">
<polygon fill="none" stroke="#000000" points="506,-275.7488 506,-305.7488 637,-305.7488 637,-275.7488 506,-275.7488"/>
<text text-anchor="start" x="514" y="-293.7488" font-family="FreeSans" font-size="10.00" fill="#000000">Fun4AllPrdfInputManager</text>
<text text-anchor="middle" x="571.5" y="-282.7488" font-family="FreeSans" font-size="10.00" fill="#000000">::Fun4AllPrdfInputManager</text>
</a>
</g>
</g>
<!-- Node316&#45;&gt;Node324 -->
<g id="edge13" class="edge">
<title>Node316&#45;&gt;Node324</title>
<path fill="none" stroke="#191970" d="M443.2412,-322.7227C464.1771,-317.5036 488.9236,-311.3344 511.0673,-305.8142"/>
<polygon fill="#191970" stroke="#191970" points="442.1543,-319.3865 433.2979,-325.2015 443.8476,-326.1786 442.1543,-319.3865"/>
</g>
<!-- Node325 -->
<g id="node15" class="node">
<title>Node325</title>
<g id="a_node15"><a xlink:href="../../d5/dd4/classFun4AllSRawEventInputManager.html#a72fc8aee367810a4f5104178ab58850d" target="_top" xlink:title="Fun4AllSRawEventInputManager\l::Fun4AllSRawEventInputManager">
<polygon fill="none" stroke="#000000" points="490,-226.7488 490,-256.7488 653,-256.7488 653,-226.7488 490,-226.7488"/>
<text text-anchor="start" x="498" y="-244.7488" font-family="FreeSans" font-size="10.00" fill="#000000">Fun4AllSRawEventInputManager</text>
<text text-anchor="middle" x="571.5" y="-233.7488" font-family="FreeSans" font-size="10.00" fill="#000000">::Fun4AllSRawEventInputManager</text>
</a>
</g>
</g>
<!-- Node316&#45;&gt;Node325 -->
<g id="edge14" class="edge">
<title>Node316&#45;&gt;Node325</title>
<path fill="none" stroke="#191970" d="M413.6575,-318.1907C431.9608,-302.7062 461.2361,-279.9025 490,-265.7488 496.7496,-262.4276 504.0446,-259.4771 511.3996,-256.8816"/>
<polygon fill="#191970" stroke="#191970" points="410.8923,-315.9536 405.604,-325.1343 415.4632,-321.2552 410.8923,-315.9536"/>
</g>
<!-- Node326 -->
<g id="node16" class="node">
<title>Node326</title>
<g id="a_node16"><a xlink:href="../../df/d4d/classPHFieldUtility.html#a822dcd7d1978f7a23a5f6f26b13f2468" target="_top" xlink:title="Get persistent PHGeomIOTGeo from DST nodes. If not found, make a new one. ">
<polygon fill="none" stroke="#000000" points="513.5,-177.7488 513.5,-207.7488 629.5,-207.7488 629.5,-177.7488 513.5,-177.7488"/>
<text text-anchor="start" x="521.5" y="-195.7488" font-family="FreeSans" font-size="10.00" fill="#000000">PHFieldUtility::GetField</text>
<text text-anchor="middle" x="571.5" y="-184.7488" font-family="FreeSans" font-size="10.00" fill="#000000">ConfigNode</text>
</a>
</g>
</g>
<!-- Node316&#45;&gt;Node326 -->
<g id="edge15" class="edge">
<title>Node316&#45;&gt;Node326</title>
<path fill="none" stroke="#191970" d="M404.9647,-316.301C419.9761,-290.2502 450.8473,-242.9452 490,-216.7488 497.1103,-211.9915 505.1822,-208.1579 513.4149,-205.0736"/>
<polygon fill="#191970" stroke="#191970" points="401.8379,-314.7214 400.0038,-325.1563 407.9448,-318.1427 401.8379,-314.7214"/>
</g>
<!-- Node327 -->
<g id="node17" class="node">
<title>Node327</title>
<g id="a_node17"><a xlink:href="../../df/d4d/classPHFieldUtility.html#a3afdd4e878d02b30b6f2c396e52b8e48" target="_top" xlink:title="Get transient PHField from DST nodes. If not found, make a new one based on default_config. ">
<polygon fill="none" stroke="#000000" points="513.5,-89.7488 513.5,-119.7488 629.5,-119.7488 629.5,-89.7488 513.5,-89.7488"/>
<text text-anchor="start" x="521.5" y="-107.7488" font-family="FreeSans" font-size="10.00" fill="#000000">PHFieldUtility::GetField</text>
<text text-anchor="middle" x="571.5" y="-96.7488" font-family="FreeSans" font-size="10.00" fill="#000000">MapNode</text>
</a>
</g>
</g>
<!-- Node316&#45;&gt;Node327 -->
<g id="edge16" class="edge">
<title>Node316&#45;&gt;Node327</title>
<path fill="none" stroke="#191970" d="M399.0958,-315.0751C408.3372,-275.4401 434.4739,-185.4519 490,-134.7488 496.7917,-128.5471 504.9741,-123.5975 513.4989,-119.6555"/>
<polygon fill="#191970" stroke="#191970" points="395.6775,-314.3236 396.9269,-324.8445 402.5111,-315.8408 395.6775,-314.3236"/>
</g>
<!-- Node335 -->
<g id="node25" class="node">
<title>Node335</title>
<g id="a_node25"><a xlink:href="../../da/d29/classFun4AllServer.html#ac42fd391b795d9605811abb9394c2011" target="_top" xlink:title="Fun4AllServer::getNode">
<polygon fill="none" stroke="#000000" points="512.5,-325.2488 512.5,-344.2488 630.5,-344.2488 630.5,-325.2488 512.5,-325.2488"/>
<text text-anchor="middle" x="571.5" y="-332.2488" font-family="FreeSans" font-size="10.00" fill="#000000">Fun4AllServer::getNode</text>
</a>
</g>
</g>
<!-- Node316&#45;&gt;Node335 -->
<g id="edge26" class="edge">
<title>Node316&#45;&gt;Node335</title>
<path fill="none" stroke="#191970" d="M464.5252,-328.1357C480.361,-327.901 497.0401,-327.9681 512.3935,-328.3372"/>
<polygon fill="#191970" stroke="#191970" points="464.1936,-324.6414 454.2629,-328.3335 464.3285,-331.6401 464.1936,-324.6414"/>
</g>
<!-- Node342 -->
<g id="node32" class="node">
<title>Node342</title>
<g id="a_node32"><a xlink:href="../../da/d29/classFun4AllServer.html#a248740a0e8d771bcabbe44cc08a5a1b6" target="_top" xlink:title="Fun4AllServer::makeHisto">
<polygon fill="none" stroke="#000000" points="718,-13.2488 718,-32.2488 846,-32.2488 846,-13.2488 718,-13.2488"/>
<text text-anchor="middle" x="782" y="-20.2488" font-family="FreeSans" font-size="10.00" fill="#000000">Fun4AllServer::makeHisto</text>
</a>
</g>
</g>
<!-- Node316&#45;&gt;Node342 -->
<g id="edge38" class="edge">
<title>Node316&#45;&gt;Node342</title>
<path fill="none" stroke="#191970" d="M398.4404,-315.1107C409.3634,-255.1813 445.1925,-76.6045 490,-41.7488 564.5824,16.2686 684.932,.0094 745.1718,-13.2202"/>
<polygon fill="#191970" stroke="#191970" points="394.9604,-314.6889 396.6431,-325.1492 401.8508,-315.9226 394.9604,-314.6889"/>
</g>
<!-- Node343 -->
<g id="node33" class="node">
<title>Node343</title>
<g id="a_node33"><a xlink:href="../../d4/da9/classFun4AllInputManager.html#ac1910d048e912d51287df1e4f8579888" target="_top" xlink:title="Fun4AllInputManager\l::registerSubsystem">
<polygon fill="none" stroke="#000000" points="517,-609.7488 517,-639.7488 626,-639.7488 626,-609.7488 517,-609.7488"/>
<text text-anchor="start" x="525" y="-627.7488" font-family="FreeSans" font-size="10.00" fill="#000000">Fun4AllInputManager</text>
<text text-anchor="middle" x="571.5" y="-616.7488" font-family="FreeSans" font-size="10.00" fill="#000000">::registerSubsystem</text>
</a>
</g>
</g>
<!-- Node316&#45;&gt;Node343 -->
<g id="edge39" class="edge">
<title>Node316&#45;&gt;Node343</title>
<path fill="none" stroke="#191970" d="M403.6227,-353.6343C415.7569,-380.6026 438.157,-431.8558 454,-476.7488 472.9557,-530.4622 449.9839,-559.213 490,-599.7488 497.3822,-607.2269 506.9385,-612.48 516.8952,-616.167"/>
<polygon fill="#191970" stroke="#191970" points="406.6865,-351.9154 399.3725,-344.2501 400.31,-354.8034 406.6865,-351.9154"/>
</g>
<!-- Node345 -->
<g id="node35" class="node">
<title>Node345</title>
<g id="a_node35"><a xlink:href="../../da/d29/classFun4AllServer.html#a0a9947db0ede1e55622001eb7515f8c0" target="_top" xlink:title="Fun4AllServer::registerSubsystem">
<polygon fill="none" stroke="#000000" points="491,-51.2488 491,-70.2488 652,-70.2488 652,-51.2488 491,-51.2488"/>
<text text-anchor="middle" x="571.5" y="-58.2488" font-family="FreeSans" font-size="10.00" fill="#000000">Fun4AllServer::registerSubsystem</text>
</a>
</g>
</g>
<!-- Node316&#45;&gt;Node345 -->
<g id="edge41" class="edge">
<title>Node316&#45;&gt;Node345</title>
<path fill="none" stroke="#191970" d="M396.2305,-315.1086C400.3363,-267.1413 417.7624,-143.3118 490,-79.7488 494.3629,-75.9098 499.3522,-72.8066 504.6656,-70.303"/>
<polygon fill="#191970" stroke="#191970" points="392.738,-314.8779 395.4785,-325.1122 399.7183,-315.4027 392.738,-314.8779"/>
</g>
<!-- Node346 -->
<g id="node36" class="node">
<title>Node346</title>
<g id="a_node36"><a xlink:href="../../d4/da9/classFun4AllInputManager.html#a08fc36a2da8759e20f8e035afe5ef6e5" target="_top" xlink:title="Fun4AllInputManager\l::RejectEvent">
<polygon fill="none" stroke="#000000" points="517,-560.7488 517,-590.7488 626,-590.7488 626,-560.7488 517,-560.7488"/>
<text text-anchor="start" x="525" y="-578.7488" font-family="FreeSans" font-size="10.00" fill="#000000">Fun4AllInputManager</text>
<text text-anchor="middle" x="571.5" y="-567.7488" font-family="FreeSans" font-size="10.00" fill="#000000">::RejectEvent</text>
</a>
</g>
</g>
<!-- Node316&#45;&gt;Node346 -->
<g id="edge43" class="edge">
<title>Node316&#45;&gt;Node346</title>
<path fill="none" stroke="#191970" d="M402.6037,-353.6971C420.2059,-396.9129 464.2167,-501.1571 490,-528.7488 502.4901,-542.1149 519.6509,-552.7818 535.005,-560.5529"/>
<polygon fill="#191970" stroke="#191970" points="405.8087,-352.2864 398.8134,-344.3292 399.3197,-354.912 405.8087,-352.2864"/>
</g>
<!-- Node350 -->
<g id="node40" class="node">
<title>Node350</title>
<g id="a_node40"><a xlink:href="../../d2/d4a/classFun4AllEventOutputManager.html#a07d37e34714c5e9cc5dab9c2898ad8a4" target="_top" xlink:title="write starting from given node ">
<polygon fill="none" stroke="#000000" points="501.5,-489.7488 501.5,-519.7488 641.5,-519.7488 641.5,-489.7488 501.5,-489.7488"/>
<text text-anchor="start" x="509.5" y="-507.7488" font-family="FreeSans" font-size="10.00" fill="#000000">Fun4AllEventOutputManager</text>
<text text-anchor="middle" x="571.5" y="-496.7488" font-family="FreeSans" font-size="10.00" fill="#000000">::Write</text>
</a>
</g>
</g>
<!-- Node316&#45;&gt;Node350 -->
<g id="edge52" class="edge">
<title>Node316&#45;&gt;Node350</title>
<path fill="none" stroke="#191970" d="M402.39,-353.8151C415.3807,-384.8347 445.2477,-446.1347 490,-479.7488 495.0885,-483.5709 500.767,-486.8143 506.6936,-489.5656"/>
<polygon fill="#191970" stroke="#191970" points="405.6317,-352.4952 398.6343,-344.5399 399.1434,-355.1225 405.6317,-352.4952"/>
</g>
<!-- Node318 -->
<g id="node8" class="node">
<title>Node318</title>
<g id="a_node8"><a xlink:href="../../d0/d78/classPHG4Reco.html#a490f5037508d384c5b60855ef0f7e227" target="_top" xlink:title="PHG4Reco::Dump_GDML">
<polygon fill="none" stroke="#000000" points="718,-369.2488 718,-388.2488 846,-388.2488 846,-369.2488 718,-369.2488"/>
<text text-anchor="middle" x="782" y="-376.2488" font-family="FreeSans" font-size="10.00" fill="#000000">PHG4Reco::Dump_GDML</text>
</a>
</g>
</g>
<!-- Node317&#45;&gt;Node318 -->
<g id="edge7" class="edge">
<title>Node317&#45;&gt;Node318</title>
<path fill="none" stroke="#191970" d="M639.2803,-447.751C644.0751,-445.743 648.705,-443.4249 653,-440.7488 674.1543,-427.5682 667.5919,-410.5132 689,-397.7488 697.7757,-392.5164 707.7555,-388.704 717.8416,-385.9307"/>
<polygon fill="#191970" stroke="#191970" points="638.0515,-444.4737 629.901,-451.2428 640.4938,-451.0338 638.0515,-444.4737"/>
</g>
<!-- Node319 -->
<g id="node9" class="node">
<title>Node319</title>
<g id="a_node9"><a xlink:href="../../d0/d78/classPHG4Reco.html#a9d8228ce8682c19cd6be2f6b44ec847b" target="_top" xlink:title="PHG4Reco::InitRun">
<polygon fill="none" stroke="#000000" points="935,-328.2488 935,-347.2488 1036,-347.2488 1036,-328.2488 935,-328.2488"/>
<text text-anchor="middle" x="985.5" y="-335.2488" font-family="FreeSans" font-size="10.00" fill="#000000">PHG4Reco::InitRun</text>
</a>
</g>
</g>
<!-- Node318&#45;&gt;Node319 -->
<g id="edge8" class="edge">
<title>Node318&#45;&gt;Node319</title>
<path fill="none" stroke="#191970" d="M839.0822,-367.2482C870.3451,-360.9496 908.6271,-353.2367 938.2054,-347.2775"/>
<polygon fill="#191970" stroke="#191970" points="838.3102,-363.8334 829.1985,-369.2396 839.6928,-370.6955 838.3102,-363.8334"/>
</g>
<!-- Node320 -->
<g id="node10" class="node">
<title>Node320</title>
<g id="a_node10"><a xlink:href="../../d0/d78/classPHG4Reco.html#ae3a89b790e2508e68657bd0059675ef5" target="_top" xlink:title="PHG4Reco::SetPhysicsList">
<polygon fill="none" stroke="#000000" points="919,-369.2488 919,-388.2488 1052,-388.2488 1052,-369.2488 919,-369.2488"/>
<text text-anchor="middle" x="985.5" y="-376.2488" font-family="FreeSans" font-size="10.00" fill="#000000">PHG4Reco::SetPhysicsList</text>
</a>
</g>
</g>
<!-- Node318&#45;&gt;Node320 -->
<g id="edge9" class="edge">
<title>Node318&#45;&gt;Node320</title>
<path fill="none" stroke="#191970" d="M856.3344,-378.7488C876.8135,-378.7488 898.8938,-378.7488 918.9056,-378.7488"/>
<polygon fill="#191970" stroke="#191970" points="856.1094,-375.2489 846.1094,-378.7488 856.1093,-382.2489 856.1094,-375.2489"/>
</g>
<!-- Node328 -->
<g id="node18" class="node">
<title>Node328</title>
<g id="a_node18"><a xlink:href="../../d1/dce/classPHEventDisplay.html#a41be51990798d21514cd311258511f42" target="_top" xlink:title="Run initialization. ">
<polygon fill="none" stroke="#000000" points="722,-51.2488 722,-70.2488 842,-70.2488 842,-51.2488 722,-51.2488"/>
<text text-anchor="middle" x="782" y="-58.2488" font-family="FreeSans" font-size="10.00" fill="#000000">PHEventDisplay::InitRun</text>
</a>
</g>
</g>
<!-- Node327&#45;&gt;Node328 -->
<g id="edge17" class="edge">
<title>Node327&#45;&gt;Node328</title>
<path fill="none" stroke="#191970" d="M639.6658,-90.1476C655.8329,-86.7117 673.0223,-83.0807 689,-79.7488 703.8417,-76.6539 720.027,-73.3296 734.6732,-70.3405"/>
<polygon fill="#191970" stroke="#191970" points="638.804,-86.7525 629.7515,-92.2573 640.261,-93.5992 638.804,-86.7525"/>
</g>
<!-- Node329 -->
<g id="node19" class="node">
<title>Node329</title>
<g id="a_node19"><a xlink:href="../../d4/dff/classKalmanFastTrackingWrapper.html#a3bb9169cefe8ea8969f0ec5661baca2b" target="_top" xlink:title="KalmanFastTrackingWrapper\l::InitRun">
<polygon fill="none" stroke="#000000" points="914.5,-133.7488 914.5,-163.7488 1056.5,-163.7488 1056.5,-133.7488 914.5,-133.7488"/>
<text text-anchor="start" x="922.5" y="-151.7488" font-family="FreeSans" font-size="10.00" fill="#000000">KalmanFastTrackingWrapper</text>
<text text-anchor="middle" x="985.5" y="-140.7488" font-family="FreeSans" font-size="10.00" fill="#000000">::InitRun</text>
</a>
</g>
</g>
<!-- Node327&#45;&gt;Node329 -->
<g id="edge18" class="edge">
<title>Node327&#45;&gt;Node329</title>
<path fill="none" stroke="#191970" d="M639.4214,-120.2339C655.5983,-123.4739 672.8533,-126.5653 689,-128.7488 765.5631,-139.1027 854.0095,-144.1869 914.2384,-146.6237"/>
<polygon fill="#191970" stroke="#191970" points="640.0067,-116.7812 629.5079,-118.2041 638.6025,-123.6389 640.0067,-116.7812"/>
</g>
<!-- Node331 -->
<g id="node21" class="node">
<title>Node331</title>
<g id="a_node21"><a xlink:href="../../d4/dff/classKalmanFastTrackingWrapper.html#a73a592ff928c69486ab8835049ae9366" target="_top" xlink:title="KalmanFastTrackingWrapper\l::InitField">
<polygon fill="none" stroke="#000000" points="711,-89.7488 711,-119.7488 853,-119.7488 853,-89.7488 711,-89.7488"/>
<text text-anchor="start" x="719" y="-107.7488" font-family="FreeSans" font-size="10.00" fill="#000000">KalmanFastTrackingWrapper</text>
<text text-anchor="middle" x="782" y="-96.7488" font-family="FreeSans" font-size="10.00" fill="#000000">::InitField</text>
</a>
</g>
</g>
<!-- Node327&#45;&gt;Node331 -->
<g id="edge20" class="edge">
<title>Node327&#45;&gt;Node331</title>
<path fill="none" stroke="#191970" d="M639.8364,-104.7488C662.609,-104.7488 688.0217,-104.7488 710.9922,-104.7488"/>
<polygon fill="#191970" stroke="#191970" points="639.5773,-101.2489 629.5773,-104.7488 639.5772,-108.2489 639.5773,-101.2489"/>
</g>
<!-- Node333 -->
<g id="node23" class="node">
<title>Node333</title>
<g id="a_node23"><a xlink:href="../../d0/d78/classPHG4Reco.html#a66fc50f0871fbaf83b21edfa8ae98259" target="_top" xlink:title="PHG4Reco::InitField">
<polygon fill="none" stroke="#000000" points="730,-183.2488 730,-202.2488 834,-202.2488 834,-183.2488 730,-183.2488"/>
<text text-anchor="middle" x="782" y="-190.2488" font-family="FreeSans" font-size="10.00" fill="#000000">PHG4Reco::InitField</text>
</a>
</g>
</g>
<!-- Node327&#45;&gt;Node333 -->
<g id="edge23" class="edge">
<title>Node327&#45;&gt;Node333</title>
<path fill="none" stroke="#191970" d="M629.4631,-123.5539C637.5481,-126.9005 645.61,-130.6455 653,-134.7488 670.7212,-144.5887 671.0824,-153.2712 689,-162.7488 705.496,-171.4745 724.9865,-178.2405 741.8524,-183.1199"/>
<polygon fill="#191970" stroke="#191970" points="630.5865,-120.2345 620.0001,-119.8106 628.0115,-126.7437 630.5865,-120.2345"/>
</g>
<!-- Node330 -->
<g id="node20" class="node">
<title>Node330</title>
<g id="a_node20"><a xlink:href="../../d4/dff/classKalmanFastTrackingWrapper.html#a0cae88e6dbda7195c5980e36f5c8ee82" target="_top" xlink:title="KalmanFastTrackingWrapper\l::~KalmanFastTrackingWrapper">
<polygon fill="none" stroke="#000000" points="1096,-133.7488 1096,-163.7488 1248,-163.7488 1248,-133.7488 1096,-133.7488"/>
<text text-anchor="start" x="1104" y="-151.7488" font-family="FreeSans" font-size="10.00" fill="#000000">KalmanFastTrackingWrapper</text>
<text text-anchor="middle" x="1172" y="-140.7488" font-family="FreeSans" font-size="10.00" fill="#000000">::~KalmanFastTrackingWrapper</text>
</a>
</g>
</g>
<!-- Node329&#45;&gt;Node330 -->
<g id="edge19" class="edge">
<title>Node329&#45;&gt;Node330</title>
<path fill="none" stroke="#191970" d="M1066.5931,-148.7488C1076.3201,-148.7488 1086.2266,-148.7488 1095.8796,-148.7488"/>
<polygon fill="#191970" stroke="#191970" points="1066.5397,-145.2489 1056.5397,-148.7488 1066.5396,-152.2489 1066.5397,-145.2489"/>
</g>
<!-- Node331&#45;&gt;Node329 -->
<g id="edge21" class="edge">
<title>Node331&#45;&gt;Node329</title>
<path fill="none" stroke="#191970" d="M861.3653,-121.9089C879.3981,-125.8079 898.4178,-129.9203 916.0038,-133.7226"/>
<polygon fill="#191970" stroke="#191970" points="861.9778,-118.4605 851.464,-119.7681 860.4984,-125.3024 861.9778,-118.4605"/>
</g>
<!-- Node332 -->
<g id="node22" class="node">
<title>Node332</title>
<g id="a_node22"><a xlink:href="../../d4/dff/classKalmanFastTrackingWrapper.html#a46ff3f180842976abcebef6ae4927e65" target="_top" xlink:title="KalmanFastTrackingWrapper\l::set_enable_event_reducer">
<polygon fill="none" stroke="#000000" points="914.5,-84.7488 914.5,-114.7488 1056.5,-114.7488 1056.5,-84.7488 914.5,-84.7488"/>
<text text-anchor="start" x="922.5" y="-102.7488" font-family="FreeSans" font-size="10.00" fill="#000000">KalmanFastTrackingWrapper</text>
<text text-anchor="middle" x="985.5" y="-91.7488" font-family="FreeSans" font-size="10.00" fill="#000000">::set_enable_event_reducer</text>
</a>
</g>
</g>
<!-- Node331&#45;&gt;Node332 -->
<g id="edge22" class="edge">
<title>Node331&#45;&gt;Node332</title>
<path fill="none" stroke="#191970" d="M863.5325,-102.7456C880.3557,-102.3322 897.9471,-101.9 914.3658,-101.4966"/>
<polygon fill="#191970" stroke="#191970" points="863.0854,-99.2554 853.1744,-103.0001 863.2574,-106.2533 863.0854,-99.2554"/>
</g>
<!-- Node333&#45;&gt;Node319 -->
<g id="edge24" class="edge">
<title>Node333&#45;&gt;Node319</title>
<path fill="none" stroke="#191970" d="M843.9999,-196.1949C855.3036,-199.2469 866.2651,-204.118 875,-211.7488 911.5202,-243.6531 876.0849,-281.0956 911,-314.7488 917.6274,-321.1367 925.9904,-325.7538 934.6995,-329.0902"/>
<polygon fill="#191970" stroke="#191970" points="844.5494,-192.7312 834.0258,-193.9574 843.0172,-199.5615 844.5494,-192.7312"/>
</g>
<!-- Node334 -->
<g id="node24" class="node">
<title>Node334</title>
<g id="a_node24"><a xlink:href="../../d0/d78/classPHG4Reco.html#abc0956c0994a72d5a817b69511e1456b" target="_top" xlink:title="register subsystem ">
<polygon fill="none" stroke="#000000" points="911,-183.2488 911,-202.2488 1060,-202.2488 1060,-183.2488 911,-183.2488"/>
<text text-anchor="middle" x="985.5" y="-190.2488" font-family="FreeSans" font-size="10.00" fill="#000000">PHG4Reco::registerSubsystem</text>
</a>
</g>
</g>
<!-- Node333&#45;&gt;Node334 -->
<g id="edge25" class="edge">
<title>Node333&#45;&gt;Node334</title>
<path fill="none" stroke="#191970" d="M844.2323,-192.7488C865.2627,-192.7488 888.9597,-192.7488 910.8515,-192.7488"/>
<polygon fill="#191970" stroke="#191970" points="844.1421,-189.2489 834.142,-192.7488 844.142,-196.2489 844.1421,-189.2489"/>
</g>
<!-- Node335&#45;&gt;Node316 -->
<g id="edge37" class="edge">
<title>Node335&#45;&gt;Node316</title>
<path fill="none" stroke="#191970" d="M502.1361,-341.3595C486.306,-341.5963 469.6253,-341.5312 454.2629,-341.1642"/>
<polygon fill="#191970" stroke="#191970" points="502.4633,-344.8539 512.3935,-341.1605 502.3274,-337.8553 502.4633,-344.8539"/>
</g>
<!-- Node335&#45;&gt;Node322 -->
<g id="edge35" class="edge">
<title>Node335&#45;&gt;Node322</title>
<path fill="none" stroke="#191970" d="M640.831,-334.7488C662.5669,-334.7488 686.625,-334.7488 708.6301,-334.7488"/>
<polygon fill="#191970" stroke="#191970" points="640.6962,-331.2489 630.6962,-334.7488 640.6961,-338.2489 640.6962,-331.2489"/>
</g>
<!-- Node335&#45;&gt;Node323 -->
<g id="edge36" class="edge">
<title>Node335&#45;&gt;Node323</title>
<path fill="none" stroke="#191970" d="M640.225,-321.992C644.7237,-319.9274 649.0342,-317.5308 653,-314.7488 676.6138,-298.1842 665.4852,-277.4538 689,-260.7488 696.0688,-255.7272 704.103,-251.7553 712.4188,-248.614"/>
<polygon fill="#191970" stroke="#191970" points="638.7557,-318.8102 630.7765,-325.7803 641.3608,-325.3074 638.7557,-318.8102"/>
</g>
<!-- Node336 -->
<g id="node26" class="node">
<title>Node336</title>
<g id="a_node26"><a xlink:href="../../d7/d0b/classFun4AllDstInputManager.html#a4d32eadb9f77d41387656b87377ef14f" target="_top" xlink:title="Fun4AllDstInputManager\l::fileopen">
<polygon fill="none" stroke="#000000" points="720.5,-270.7488 720.5,-300.7488 843.5,-300.7488 843.5,-270.7488 720.5,-270.7488"/>
<text text-anchor="start" x="728.5" y="-288.7488" font-family="FreeSans" font-size="10.00" fill="#000000">Fun4AllDstInputManager</text>
<text text-anchor="middle" x="782" y="-277.7488" font-family="FreeSans" font-size="10.00" fill="#000000">::fileopen</text>
</a>
</g>
</g>
<!-- Node335&#45;&gt;Node336 -->
<g id="edge27" class="edge">
<title>Node335&#45;&gt;Node336</title>
<path fill="none" stroke="#191970" d="M622.3917,-322.9023C651.8054,-316.0554 689.0259,-307.3913 720.1235,-300.1524"/>
<polygon fill="#191970" stroke="#191970" points="621.2822,-319.5669 612.3361,-325.243 622.8693,-326.3847 621.2822,-319.5669"/>
</g>
<!-- Node337 -->
<g id="node27" class="node">
<title>Node337</title>
<g id="a_node27"><a xlink:href="../../d7/d0b/classFun4AllDstInputManager.html#ae4e92b95ae50ab72856d06c99b043496" target="_top" xlink:title="Fun4AllDstInputManager\l::OpenNextFile">
<polygon fill="none" stroke="#000000" points="924,-275.7488 924,-305.7488 1047,-305.7488 1047,-275.7488 924,-275.7488"/>
<text text-anchor="start" x="932" y="-293.7488" font-family="FreeSans" font-size="10.00" fill="#000000">Fun4AllDstInputManager</text>
<text text-anchor="middle" x="985.5" y="-282.7488" font-family="FreeSans" font-size="10.00" fill="#000000">::OpenNextFile</text>
</a>
</g>
</g>
<!-- Node336&#45;&gt;Node337 -->
<g id="edge28" class="edge">
<title>Node336&#45;&gt;Node337</title>
<path fill="none" stroke="#191970" d="M853.6069,-287.5082C876.4967,-288.0706 901.6237,-288.688 923.7495,-289.2316"/>
<polygon fill="#191970" stroke="#191970" points="853.6919,-284.0094 843.609,-287.2626 853.5199,-291.0072 853.6919,-284.0094"/>
</g>
<!-- Node338 -->
<g id="node28" class="node">
<title>Node338</title>
<g id="a_node28"><a xlink:href="../../d7/d0b/classFun4AllDstInputManager.html#a33ba8ba9d1dac601d13b03a5f19dead7" target="_top" xlink:title="Fun4AllDstInputManager\l::isOpen">
<polygon fill="none" stroke="#000000" points="1443,-291.7488 1443,-321.7488 1566,-321.7488 1566,-291.7488 1443,-291.7488"/>
<text text-anchor="start" x="1451" y="-309.7488" font-family="FreeSans" font-size="10.00" fill="#000000">Fun4AllDstInputManager</text>
<text text-anchor="middle" x="1504.5" y="-298.7488" font-family="FreeSans" font-size="10.00" fill="#000000">::isOpen</text>
</a>
</g>
</g>
<!-- Node337&#45;&gt;Node338 -->
<g id="edge29" class="edge">
<title>Node337&#45;&gt;Node338</title>
<path fill="none" stroke="#191970" d="M1057.3587,-288.515C1070.2242,-288.1957 1083.5082,-287.9184 1096,-287.7488 1163.5493,-286.832 1180.4906,-285.2519 1248,-287.7488 1314.711,-290.2162 1390.9818,-296.2815 1442.8959,-300.901"/>
<polygon fill="#191970" stroke="#191970" points="1057.0599,-285.0214 1047.1537,-288.7788 1057.2409,-292.0191 1057.0599,-285.0214"/>
</g>
<!-- Node339 -->
<g id="node29" class="node">
<title>Node339</title>
<g id="a_node29"><a xlink:href="../../d7/d0b/classFun4AllDstInputManager.html#ade26017b627e0e1f1ec0dec62ac7fd52" target="_top" xlink:title="Fun4AllDstInputManager\l::ReadNextEventSyncObject">
<polygon fill="none" stroke="#000000" points="1103.5,-297.7488 1103.5,-327.7488 1240.5,-327.7488 1240.5,-297.7488 1103.5,-297.7488"/>
<text text-anchor="start" x="1111.5" y="-315.7488" font-family="FreeSans" font-size="10.00" fill="#000000">Fun4AllDstInputManager</text>
<text text-anchor="middle" x="1172" y="-304.7488" font-family="FreeSans" font-size="10.00" fill="#000000">::ReadNextEventSyncObject</text>
</a>
</g>
</g>
<!-- Node337&#45;&gt;Node339 -->
<g id="edge30" class="edge">
<title>Node337&#45;&gt;Node339</title>
<path fill="none" stroke="#191970" d="M1057.398,-299.2301C1072.5088,-301.0126 1088.41,-302.8884 1103.3964,-304.6562"/>
<polygon fill="#191970" stroke="#191970" points="1057.4251,-295.7091 1047.0839,-298.0134 1056.605,-302.6609 1057.4251,-295.7091"/>
</g>
<!-- Node341 -->
<g id="node31" class="node">
<title>Node341</title>
<g id="a_node31"><a xlink:href="../../d7/d0b/classFun4AllDstInputManager.html#aeafa0248f9050c13fdae1bcb93336d7a" target="_top" xlink:title="Fun4AllDstInputManager::run">
<polygon fill="none" stroke="#000000" points="1101.5,-432.2488 1101.5,-451.2488 1242.5,-451.2488 1242.5,-432.2488 1101.5,-432.2488"/>
<text text-anchor="middle" x="1172" y="-439.2488" font-family="FreeSans" font-size="10.00" fill="#000000">Fun4AllDstInputManager::run</text>
</a>
</g>
</g>
<!-- Node337&#45;&gt;Node341 -->
<g id="edge34" class="edge">
<title>Node337&#45;&gt;Node341</title>
<path fill="none" stroke="#191970" d="M1045.1017,-310.1681C1050.3064,-312.7431 1055.354,-315.5986 1060,-318.7488 1108.2857,-351.4887 1150.1039,-409.1432 1165.5975,-432.0094"/>
<polygon fill="#191970" stroke="#191970" points="1046.1664,-306.8065 1035.6164,-305.833 1043.2566,-313.1731 1046.1664,-306.8065"/>
</g>
<!-- Node339&#45;&gt;Node338 -->
<g id="edge31" class="edge">
<title>Node339&#45;&gt;Node338</title>
<path fill="none" stroke="#191970" d="M1251.2488,-311.3188C1310.0007,-310.2586 1388.9355,-308.8342 1442.9723,-307.8591"/>
<polygon fill="#191970" stroke="#191970" points="1250.8294,-307.8257 1240.8942,-311.5056 1250.9558,-314.8245 1250.8294,-307.8257"/>
</g>
<!-- Node340 -->
<g id="node30" class="node">
<title>Node340</title>
<g id="a_node30"><a xlink:href="../../d7/d0b/classFun4AllDstInputManager.html#a0244c2edbaa2350038304b09f352c2d0" target="_top" xlink:title="Fun4AllDstInputManager\l::SyncIt">
<polygon fill="none" stroke="#000000" points="1284,-335.7488 1284,-365.7488 1407,-365.7488 1407,-335.7488 1284,-335.7488"/>
<text text-anchor="start" x="1292" y="-353.7488" font-family="FreeSans" font-size="10.00" fill="#000000">Fun4AllDstInputManager</text>
<text text-anchor="middle" x="1345.5" y="-342.7488" font-family="FreeSans" font-size="10.00" fill="#000000">::SyncIt</text>
</a>
</g>
</g>
<!-- Node339&#45;&gt;Node340 -->
<g id="edge32" class="edge">
<title>Node339&#45;&gt;Node340</title>
<path fill="none" stroke="#191970" d="M1250.3802,-329.9157C1261.6187,-332.3771 1273.0463,-334.88 1283.8992,-337.257"/>
<polygon fill="#191970" stroke="#191970" points="1251.0891,-326.4881 1240.5718,-327.7674 1249.5914,-333.326 1251.0891,-326.4881"/>
</g>
<!-- Node340&#45;&gt;Node338 -->
<g id="edge33" class="edge">
<title>Node340&#45;&gt;Node338</title>
<path fill="none" stroke="#191970" d="M1409.4719,-333.0459C1422.9733,-329.3097 1437.0965,-325.4014 1450.2008,-321.775"/>
<polygon fill="#191970" stroke="#191970" points="1408.4784,-329.6892 1399.7741,-335.7296 1410.3454,-336.4357 1408.4784,-329.6892"/>
</g>
<!-- Node344 -->
<g id="node34" class="node">
<title>Node344</title>
<g id="a_node34"><a xlink:href="../../d4/da9/classFun4AllInputManager.html#ad1ae90af23e619b5130e963815e01f98" target="_top" xlink:title="Fun4AllInputManager\l::NoSyncPushBackEvents">
<polygon fill="none" stroke="#000000" points="718,-609.7488 718,-639.7488 846,-639.7488 846,-609.7488 718,-609.7488"/>
<text text-anchor="start" x="726" y="-627.7488" font-family="FreeSans" font-size="10.00" fill="#000000">Fun4AllInputManager</text>
<text text-anchor="middle" x="782" y="-616.7488" font-family="FreeSans" font-size="10.00" fill="#000000">::NoSyncPushBackEvents</text>
</a>
</g>
</g>
<!-- Node343&#45;&gt;Node344 -->
<g id="edge40" class="edge">
<title>Node343&#45;&gt;Node344</title>
<path fill="none" stroke="#191970" d="M636.3465,-624.7488C662.2388,-624.7488 691.9773,-624.7488 717.8045,-624.7488"/>
<polygon fill="#191970" stroke="#191970" points="636.2569,-621.2489 626.2569,-624.7488 636.2569,-628.2489 636.2569,-621.2489"/>
</g>
<!-- Node345&#45;&gt;Node342 -->
<g id="edge42" class="edge">
<title>Node345&#45;&gt;Node342</title>
<path fill="none" stroke="#191970" d="M634.3561,-49.4019C664.558,-43.9498 700.3518,-37.4882 729.1319,-32.2927"/>
<polygon fill="#191970" stroke="#191970" points="633.5655,-45.988 624.3463,-51.2089 634.8091,-52.8766 633.5655,-45.988"/>
</g>
<!-- Node346&#45;&gt;Node312 -->
<g id="edge46" class="edge">
<title>Node346&#45;&gt;Node312</title>
<path fill="none" stroke="#191970" d="M635.7233,-587.6378C642.1064,-590.7863 648.0448,-594.7534 653,-599.7488 694.0157,-641.0975 646.2674,-686.1771 689,-725.7488 694.3202,-730.6755 700.5588,-734.4698 707.2431,-737.3756"/>
<polygon fill="#191970" stroke="#191970" points="636.69,-584.247 626.1158,-583.5861 633.9699,-590.6969 636.69,-584.247"/>
</g>
<!-- Node346&#45;&gt;Node313 -->
<g id="edge47" class="edge">
<title>Node346&#45;&gt;Node313</title>
<path fill="none" stroke="#191970" d="M635.7393,-588.4533C642.0149,-591.4563 647.9247,-595.1662 653,-599.7488 684.3639,-628.0682 656.4632,-660.7853 689,-687.7488 694.9636,-692.691 701.8722,-696.4588 709.1778,-699.317"/>
<polygon fill="#191970" stroke="#191970" points="636.9147,-585.1515 626.3375,-584.54 634.2247,-591.614 636.9147,-585.1515"/>
</g>
<!-- Node346&#45;&gt;Node314 -->
<g id="edge48" class="edge">
<title>Node346&#45;&gt;Node314</title>
<path fill="none" stroke="#191970" d="M635.9608,-590.3225C641.9769,-592.9652 647.7701,-596.0797 653,-599.7488 675.1223,-615.269 666.3146,-634.0639 689,-648.7488 695.6546,-653.0566 703.0833,-656.452 710.7618,-659.1259"/>
<polygon fill="#191970" stroke="#191970" points="636.9593,-586.9542 626.3723,-586.5464 634.3943,-593.4673 636.9593,-586.9542"/>
</g>
<!-- Node346&#45;&gt;Node341 -->
<g id="edge45" class="edge">
<title>Node346&#45;&gt;Node341</title>
<path fill="none" stroke="#191970" d="M609.414,-556.0821C631.9963,-545.1068 661.5247,-532.0199 689,-523.7488 765.3535,-500.7637 988.9624,-467.46 1103.1614,-451.283"/>
<polygon fill="#191970" stroke="#191970" points="607.6053,-553.0717 600.1873,-560.6364 610.7036,-559.3486 607.6053,-553.0717"/>
</g>
<!-- Node346&#45;&gt;Node344 -->
<g id="edge44" class="edge">
<title>Node346&#45;&gt;Node344</title>
<path fill="none" stroke="#191970" d="M636.003,-590.7638C661.9756,-596.8097 691.863,-603.7668 717.8045,-609.8055"/>
<polygon fill="#191970" stroke="#191970" points="636.79,-587.3535 626.2569,-588.4951 635.203,-594.1712 636.79,-587.3535"/>
</g>
<!-- Node347 -->
<g id="node37" class="node">
<title>Node347</title>
<g id="a_node37"><a xlink:href="../../db/d1f/classFun4AllOscarInputManager.html#a4be602bd8c9fe73f9dcc81c8871784a6" target="_top" xlink:title="Fun4AllOscarInputManager::run">
<polygon fill="none" stroke="#000000" points="706,-457.2488 706,-476.2488 858,-476.2488 858,-457.2488 706,-457.2488"/>
<text text-anchor="middle" x="782" y="-464.2488" font-family="FreeSans" font-size="10.00" fill="#000000">Fun4AllOscarInputManager::run</text>
</a>
</g>
</g>
<!-- Node346&#45;&gt;Node347 -->
<g id="edge49" class="edge">
<title>Node346&#45;&gt;Node347</title>
<path fill="none" stroke="#191970" d="M611.0879,-555.9462C624.9095,-548.2618 640.1647,-538.8709 653,-528.7488 671.2675,-514.3428 668.9566,-502.5597 689,-490.7488 699.7746,-484.3998 712.2182,-479.7109 724.4281,-476.2545"/>
<polygon fill="#191970" stroke="#191970" points="609.3726,-552.8949 602.2521,-560.7401 612.7109,-559.0476 609.3726,-552.8949"/>
</g>
<!-- Node348 -->
<g id="node38" class="node">
<title>Node348</title>
<g id="a_node38"><a xlink:href="../../de/d99/classFun4AllHepMCPileupInputManager.html#a81bf2b69c3c4d3aae0aadebafe1c2c2e" target="_top" xlink:title="Fun4AllHepMCPileupInputManager::run">
<polygon fill="none" stroke="#000000" points="689,-571.2488 689,-590.2488 875,-590.2488 875,-571.2488 689,-571.2488"/>
<text text-anchor="middle" x="782" y="-578.2488" font-family="FreeSans" font-size="10.00" fill="#000000">Fun4AllHepMCPileupInputManager::run</text>
</a>
</g>
</g>
<!-- Node346&#45;&gt;Node348 -->
<g id="edge50" class="edge">
<title>Node346&#45;&gt;Node348</title>
<path fill="none" stroke="#191970" d="M636.3585,-577.2894C652.9387,-577.6832 671.0954,-578.1145 688.7919,-578.5349"/>
<polygon fill="#191970" stroke="#191970" points="636.3372,-573.788 626.2569,-577.0495 636.1709,-580.786 636.3372,-573.788"/>
</g>
<!-- Node349 -->
<g id="node39" class="node">
<title>Node349</title>
<g id="a_node39"><a xlink:href="../../d6/d6f/classFun4AllHepMCInputManager.html#ab6c80a8ee0701bfff5eee3ec3623015c" target="_top" xlink:title="Fun4AllHepMCInputManager::run">
<polygon fill="none" stroke="#000000" points="702.5,-533.2488 702.5,-552.2488 861.5,-552.2488 861.5,-533.2488 702.5,-533.2488"/>
<text text-anchor="middle" x="782" y="-540.2488" font-family="FreeSans" font-size="10.00" fill="#000000">Fun4AllHepMCInputManager::run</text>
</a>
</g>
</g>
<!-- Node346&#45;&gt;Node349 -->
<g id="edge51" class="edge">
<title>Node346&#45;&gt;Node349</title>
<path fill="none" stroke="#191970" d="M636.3929,-565.5756C663.4222,-561.3382 694.6363,-556.4448 721.2151,-552.2781"/>
<polygon fill="#191970" stroke="#191970" points="635.5941,-562.158 626.2569,-567.1646 636.6783,-569.0735 635.5941,-562.158"/>
</g>
<!-- Node351 -->
<g id="node41" class="node">
<title>Node351</title>
<g id="a_node41"><a xlink:href="../../d2/d4a/classFun4AllEventOutputManager.html#a2d2fe4f3aa9c7e9f3257921fb5dc00a4" target="_top" xlink:title="opens output file ">
<polygon fill="none" stroke="#000000" points="712,-407.7488 712,-437.7488 852,-437.7488 852,-407.7488 712,-407.7488"/>
<text text-anchor="start" x="720" y="-425.7488" font-family="FreeSans" font-size="10.00" fill="#000000">Fun4AllEventOutputManager</text>
<text text-anchor="middle" x="782" y="-414.7488" font-family="FreeSans" font-size="10.00" fill="#000000">::outfileopen</text>
</a>
</g>
</g>
<!-- Node350&#45;&gt;Node351 -->
<g id="edge53" class="edge">
<title>Node350&#45;&gt;Node351</title>
<path fill="none" stroke="#191970" d="M640.8293,-485.7971C645.0302,-483.9422 649.1216,-481.9292 653,-479.7488 671.6607,-469.2583 670.1585,-457.9109 689,-447.7488 696.0633,-443.9393 703.7474,-440.6794 711.5712,-437.897"/>
<polygon fill="#191970" stroke="#191970" points="639.4318,-482.5871 631.498,-489.6089 642.079,-489.0673 639.4318,-482.5871"/>
</g>
</g>
</svg>
