<?xml version="1.0" encoding="UTF-8" standalone="no"?>
<!DOCTYPE svg PUBLIC "-//W3C//DTD SVG 1.1//EN"
 "http://www.w3.org/Graphics/SVG/1.1/DTD/svg11.dtd">
<!-- Generated by graphviz version 2.30.1 (20180413.0232)
 -->
<!-- Title: PHG4ParticleGeneratorBase::set_seed Pages: 1 -->
<svg width="268pt" height="66pt"
 viewBox="0.00 0.00 268.00 66.00" xmlns="http://www.w3.org/2000/svg" xmlns:xlink="http://www.w3.org/1999/xlink">
<g id="graph0" class="graph" transform="scale(1 1) rotate(0) translate(4 62)">
<title>PHG4ParticleGeneratorBase::set_seed</title>
<!-- Node1 -->
<g id="node1" class="node"><title>Node1</title>
<polygon fill="#bfbfbf" stroke="black" points="0,-14 0,-44 140,-44 140,-14 0,-14"/>
<text text-anchor="start" x="8" y="-32" font-family="FreeSans" font-size="10.00">PHG4ParticleGeneratorBase</text>
<text text-anchor="middle" x="70" y="-21" font-family="FreeSans" font-size="10.00">::set_seed</text>
</g>
<!-- Node2 -->
<g id="node2" class="node"><title>Node2</title>
<g id="a_node2"><a xlink:href="../../d4/d6b/Fun4DQ_8C.html#ade50123660c824c610022429d0847486" target="_top" xlink:title="Fun4DQ">
<polygon fill="none" stroke="black" points="191.5,-38.5 191.5,-57.5 244.5,-57.5 244.5,-38.5 191.5,-38.5"/>
<text text-anchor="middle" x="218" y="-45.5" font-family="FreeSans" font-size="10.00">Fun4DQ</text>
</a>
</g>
</g>
<!-- Node1&#45;&gt;Node2 -->
<g id="edge1" class="edge"><title>Node1&#45;&gt;Node2</title>
<path fill="none" stroke="midnightblue" d="M150.437,-39.3377C165.256,-41.2661 179.717,-43.1481 191.355,-44.6626"/>
<polygon fill="midnightblue" stroke="midnightblue" points="150.52,-35.8191 140.152,-37.9992 149.617,-42.7605 150.52,-35.8191"/>
</g>
<!-- Node3 -->
<g id="node3" class="node"><title>Node3</title>
<g id="a_node3"><a xlink:href="../../d0/d9c/RecoE1039Sim_8C.html#a07edfd7b51752cb53ea50911050a8511" target="_top" xlink:title="RecoE1039Sim">
<polygon fill="none" stroke="black" points="176.5,-0.5 176.5,-19.5 259.5,-19.5 259.5,-0.5 176.5,-0.5"/>
<text text-anchor="middle" x="218" y="-7.5" font-family="FreeSans" font-size="10.00">RecoE1039Sim</text>
</a>
</g>
</g>
<!-- Node1&#45;&gt;Node3 -->
<g id="edge2" class="edge"><title>Node1&#45;&gt;Node3</title>
<path fill="none" stroke="midnightblue" d="M150.313,-18.6784C159.291,-17.5101 168.14,-16.3585 176.313,-15.2949"/>
<polygon fill="midnightblue" stroke="midnightblue" points="149.617,-15.2395 140.152,-20.0008 150.52,-22.1809 149.617,-15.2395"/>
</g>
</g>
</svg>
