<?xml version="1.0" encoding="UTF-8" standalone="no"?>
<!DOCTYPE svg PUBLIC "-//W3C//DTD SVG 1.1//EN"
 "http://www.w3.org/Graphics/SVG/1.1/DTD/svg11.dtd">
<!-- Generated by graphviz version 2.44.0 (0)
 -->
<!-- Title: PHG4TruthTrackingAction::PreUserTrackingAction Pages: 1 -->
<svg width="911pt" height="1413pt"
 viewBox="0.00 0.00 911.00 1412.50" xmlns="http://www.w3.org/2000/svg" xmlns:xlink="http://www.w3.org/1999/xlink">
<g id="graph0" class="graph" transform="scale(1 1) rotate(0) translate(4 1408.5)">
<title>PHG4TruthTrackingAction::PreUserTrackingAction</title>
<!-- Node1 -->
<g id="node1" class="node">
<title>Node1</title>
<g id="a_node1"><a xlink:title="tracking action">
<polygon fill="#bfbfbf" stroke="black" points="0,-595.5 0,-625.5 139,-625.5 139,-595.5 0,-595.5"/>
<text text-anchor="start" x="8" y="-613.5" font-family="FreeSans" font-size="10.00">PHG4TruthTrackingAction</text>
<text text-anchor="middle" x="69.5" y="-602.5" font-family="FreeSans" font-size="10.00">::PreUserTrackingAction</text>
</a>
</g>
</g>
<!-- Node2 -->
<g id="node2" class="node">
<title>Node2</title>
<g id="a_node2"><a xlink:href="../../da/d6c/classPHG4TruthInfoContainer.html#a2d296833e72596ba63cc1ec8bae8618e" target="_top" xlink:title="Add a particle that the user has created.">
<polygon fill="none" stroke="black" points="206.5,-1265.5 206.5,-1295.5 340.5,-1295.5 340.5,-1265.5 206.5,-1265.5"/>
<text text-anchor="start" x="214.5" y="-1283.5" font-family="FreeSans" font-size="10.00">PHG4TruthInfoContainer</text>
<text text-anchor="middle" x="273.5" y="-1272.5" font-family="FreeSans" font-size="10.00">::AddParticle</text>
</a>
</g>
</g>
<!-- Node1&#45;&gt;Node2 -->
<g id="edge1" class="edge">
<title>Node1&#45;&gt;Node2</title>
<path fill="none" stroke="midnightblue" d="M71.9,-625.62C79.59,-706.6 118.41,-1088.99 175,-1191.5 190.45,-1219.49 218.01,-1243.4 239.9,-1259.37"/>
<polygon fill="midnightblue" stroke="midnightblue" points="238.09,-1262.37 248.27,-1265.3 242.13,-1256.66 238.09,-1262.37"/>
</g>
<!-- Node9 -->
<g id="node9" class="node">
<title>Node9</title>
<g id="a_node9"><a xlink:href="../../da/d6c/classPHG4TruthInfoContainer.html#a6413d92f20399d8bf2c6d8d19092e236" target="_top" xlink:title="Add a shower that the user has created.">
<polygon fill="none" stroke="black" points="206.5,-1151.5 206.5,-1181.5 340.5,-1181.5 340.5,-1151.5 206.5,-1151.5"/>
<text text-anchor="start" x="214.5" y="-1169.5" font-family="FreeSans" font-size="10.00">PHG4TruthInfoContainer</text>
<text text-anchor="middle" x="273.5" y="-1158.5" font-family="FreeSans" font-size="10.00">::AddShower</text>
</a>
</g>
</g>
<!-- Node1&#45;&gt;Node9 -->
<g id="edge8" class="edge">
<title>Node1&#45;&gt;Node9</title>
<path fill="none" stroke="midnightblue" d="M71.33,-625.67C75.96,-704.32 101.03,-1064.93 175,-1142.5 181.16,-1148.96 188.76,-1153.8 196.98,-1157.4"/>
<polygon fill="midnightblue" stroke="midnightblue" points="195.88,-1160.73 206.47,-1160.97 198.34,-1154.17 195.88,-1160.73"/>
</g>
<!-- Node15 -->
<g id="node15" class="node">
<title>Node15</title>
<g id="a_node15"><a xlink:href="../../da/d6c/classPHG4TruthInfoContainer.html#ac3800b9c5d96062db80120f2dfcfb44a" target="_top" xlink:title="Add a vertex and return an iterator to the user.">
<polygon fill="none" stroke="black" points="206.5,-1102.5 206.5,-1132.5 340.5,-1132.5 340.5,-1102.5 206.5,-1102.5"/>
<text text-anchor="start" x="214.5" y="-1120.5" font-family="FreeSans" font-size="10.00">PHG4TruthInfoContainer</text>
<text text-anchor="middle" x="273.5" y="-1109.5" font-family="FreeSans" font-size="10.00">::AddVertex</text>
</a>
</g>
</g>
<!-- Node1&#45;&gt;Node15 -->
<g id="edge14" class="edge">
<title>Node1&#45;&gt;Node15</title>
<path fill="none" stroke="midnightblue" d="M71.68,-625.98C77.72,-700.78 107.42,-1023.99 175,-1093.5 181.18,-1099.86 188.75,-1104.64 196.92,-1108.21"/>
<polygon fill="midnightblue" stroke="midnightblue" points="195.76,-1111.52 206.35,-1111.76 198.23,-1104.96 195.76,-1111.52"/>
</g>
<!-- Node17 -->
<g id="node17" class="node">
<title>Node17</title>
<g id="a_node17"><a xlink:href="../../dd/d9e/classPHG4UserPrimaryParticleInformation.html#a3558253bb3b74b1ecb73546b8d8d0ac1" target="_top" xlink:title=" ">
<polygon fill="none" stroke="black" points="175,-1053.5 175,-1083.5 372,-1083.5 372,-1053.5 175,-1053.5"/>
<text text-anchor="start" x="183" y="-1071.5" font-family="FreeSans" font-size="10.00">PHG4UserPrimaryParticleInformation</text>
<text text-anchor="middle" x="273.5" y="-1060.5" font-family="FreeSans" font-size="10.00">::get_user_barcode</text>
</a>
</g>
</g>
<!-- Node1&#45;&gt;Node17 -->
<g id="edge17" class="edge">
<title>Node1&#45;&gt;Node17</title>
<path fill="none" stroke="midnightblue" d="M72.07,-625.79C79.53,-695.56 113.64,-982.83 175,-1044.5 175.93,-1045.44 176.9,-1046.34 177.89,-1047.21"/>
<polygon fill="midnightblue" stroke="midnightblue" points="175.88,-1050.08 185.99,-1053.25 180.07,-1044.47 175.88,-1050.08"/>
</g>
<!-- Node18 -->
<g id="node18" class="node">
<title>Node18</title>
<g id="a_node18"><a xlink:href="../../da/d6c/classPHG4TruthInfoContainer.html#a8456d49f2b0f0a0e3aa0bbe091c7da7b" target="_top" xlink:title=" ">
<polygon fill="none" stroke="black" points="206.5,-1004.5 206.5,-1034.5 340.5,-1034.5 340.5,-1004.5 206.5,-1004.5"/>
<text text-anchor="start" x="214.5" y="-1022.5" font-family="FreeSans" font-size="10.00">PHG4TruthInfoContainer</text>
<text text-anchor="middle" x="273.5" y="-1011.5" font-family="FreeSans" font-size="10.00">::maxtrkindex</text>
</a>
</g>
</g>
<!-- Node1&#45;&gt;Node18 -->
<g id="edge18" class="edge">
<title>Node1&#45;&gt;Node18</title>
<path fill="none" stroke="midnightblue" d="M72.57,-625.79C81.63,-690.58 119.88,-941.67 175,-995.5 181.3,-1001.65 188.9,-1006.31 197.06,-1009.82"/>
<polygon fill="midnightblue" stroke="midnightblue" points="195.86,-1013.11 206.46,-1013.32 198.31,-1006.55 195.86,-1013.11"/>
</g>
<!-- Node19 -->
<g id="node19" class="node">
<title>Node19</title>
<g id="a_node19"><a xlink:href="../../da/d6c/classPHG4TruthInfoContainer.html#a1ff8e3ccc44f74e6d5734cac72f18a56" target="_top" xlink:title=" ">
<polygon fill="none" stroke="black" points="206.5,-955.5 206.5,-985.5 340.5,-985.5 340.5,-955.5 206.5,-955.5"/>
<text text-anchor="start" x="214.5" y="-973.5" font-family="FreeSans" font-size="10.00">PHG4TruthInfoContainer</text>
<text text-anchor="middle" x="273.5" y="-962.5" font-family="FreeSans" font-size="10.00">::maxvtxindex</text>
</a>
</g>
</g>
<!-- Node1&#45;&gt;Node19 -->
<g id="edge19" class="edge">
<title>Node1&#45;&gt;Node19</title>
<path fill="none" stroke="midnightblue" d="M70.32,-625.55C70.55,-678.21 78.71,-855.83 175,-946.5 181.29,-952.43 188.81,-956.96 196.84,-960.41"/>
<polygon fill="midnightblue" stroke="midnightblue" points="195.86,-963.78 206.45,-963.99 198.3,-957.22 195.86,-963.78"/>
</g>
<!-- Node20 -->
<g id="node20" class="node">
<title>Node20</title>
<g id="a_node20"><a xlink:href="../../da/d6c/classPHG4TruthInfoContainer.html#ae7951abf33f918c2abbe1aa4e26000f3" target="_top" xlink:title=" ">
<polygon fill="none" stroke="black" points="206.5,-906.5 206.5,-936.5 340.5,-936.5 340.5,-906.5 206.5,-906.5"/>
<text text-anchor="start" x="214.5" y="-924.5" font-family="FreeSans" font-size="10.00">PHG4TruthInfoContainer</text>
<text text-anchor="middle" x="273.5" y="-913.5" font-family="FreeSans" font-size="10.00">::mintrkindex</text>
</a>
</g>
</g>
<!-- Node1&#45;&gt;Node20 -->
<g id="edge20" class="edge">
<title>Node1&#45;&gt;Node20</title>
<path fill="none" stroke="midnightblue" d="M71.24,-625.69C74.42,-673.47 90.95,-822.05 175,-897.5 181.34,-903.19 188.81,-907.58 196.76,-910.97"/>
<polygon fill="midnightblue" stroke="midnightblue" points="195.66,-914.29 206.26,-914.49 198.1,-907.73 195.66,-914.29"/>
</g>
<!-- Node21 -->
<g id="node21" class="node">
<title>Node21</title>
<g id="a_node21"><a xlink:href="../../da/d6c/classPHG4TruthInfoContainer.html#a9315ff1168ea6becaf72264682818c14" target="_top" xlink:title=" ">
<polygon fill="none" stroke="black" points="206.5,-857.5 206.5,-887.5 340.5,-887.5 340.5,-857.5 206.5,-857.5"/>
<text text-anchor="start" x="214.5" y="-875.5" font-family="FreeSans" font-size="10.00">PHG4TruthInfoContainer</text>
<text text-anchor="middle" x="273.5" y="-864.5" font-family="FreeSans" font-size="10.00">::minvtxindex</text>
</a>
</g>
</g>
<!-- Node1&#45;&gt;Node21 -->
<g id="edge21" class="edge">
<title>Node1&#45;&gt;Node21</title>
<path fill="none" stroke="midnightblue" d="M72.52,-625.79C78.96,-668.15 102.99,-787.94 175,-848.5 181.47,-853.94 188.99,-858.19 196.93,-861.49"/>
<polygon fill="midnightblue" stroke="midnightblue" points="195.82,-864.8 206.41,-864.94 198.21,-858.23 195.82,-864.8"/>
</g>
<!-- Node22 -->
<g id="node22" class="node">
<title>Node22</title>
<g id="a_node22"><a xlink:href="../../d1/d42/classPHG4Particlev1.html#ab71c63a21b88e7e6280e1733240f90de" target="_top" xlink:title=" ">
<polygon fill="none" stroke="black" points="217,-808.5 217,-838.5 330,-838.5 330,-808.5 217,-808.5"/>
<text text-anchor="start" x="225" y="-826.5" font-family="FreeSans" font-size="10.00">PHG4Particlev1::set</text>
<text text-anchor="middle" x="273.5" y="-815.5" font-family="FreeSans" font-size="10.00">_barcode</text>
</a>
</g>
</g>
<!-- Node1&#45;&gt;Node22 -->
<g id="edge22" class="edge">
<title>Node1&#45;&gt;Node22</title>
<path fill="none" stroke="midnightblue" d="M74.44,-625.65C84.59,-661.56 115.13,-752.3 175,-798.5 184.4,-805.76 195.69,-810.92 207.19,-814.6"/>
<polygon fill="midnightblue" stroke="midnightblue" points="206.29,-817.98 216.86,-817.34 208.2,-811.24 206.29,-817.98"/>
</g>
<!-- Node23 -->
<g id="node23" class="node">
<title>Node23</title>
<g id="a_node23"><a xlink:href="../../d1/db9/classPHG4Particlev2.html#a8ad25e8ee0a77defc29463ae47a11739" target="_top" xlink:title=" ">
<polygon fill="none" stroke="black" points="211.5,-770 211.5,-789 335.5,-789 335.5,-770 211.5,-770"/>
<text text-anchor="middle" x="273.5" y="-777" font-family="FreeSans" font-size="10.00">PHG4Particlev2::set_e</text>
</a>
</g>
</g>
<!-- Node1&#45;&gt;Node23 -->
<g id="edge23" class="edge">
<title>Node1&#45;&gt;Node23</title>
<path fill="none" stroke="midnightblue" d="M76.44,-625.76C89.31,-656.66 122.88,-726.55 175,-760.5 183.04,-765.74 192.2,-769.6 201.6,-772.43"/>
<polygon fill="midnightblue" stroke="midnightblue" points="200.89,-775.86 211.45,-775.02 202.68,-769.09 200.89,-775.86"/>
</g>
<!-- Node24 -->
<g id="node24" class="node">
<title>Node24</title>
<g id="a_node24"><a xlink:href="../../db/dfa/classPHG4Showerv1.html#a11a4f7bec96066ce2bc7a6d62004d265" target="_top" xlink:title=" ">
<polygon fill="none" stroke="black" points="210,-732 210,-751 337,-751 337,-732 210,-732"/>
<text text-anchor="middle" x="273.5" y="-739" font-family="FreeSans" font-size="10.00">PHG4Showerv1::set_id</text>
</a>
</g>
</g>
<!-- Node1&#45;&gt;Node24 -->
<g id="edge24" class="edge">
<title>Node1&#45;&gt;Node24</title>
<path fill="none" stroke="midnightblue" d="M79.96,-625.66C96.18,-650.26 131.74,-698.51 175,-722.5 182.73,-726.78 191.26,-730.11 199.98,-732.7"/>
<polygon fill="midnightblue" stroke="midnightblue" points="199.3,-736.14 209.86,-735.32 201.09,-729.37 199.3,-736.14"/>
</g>
<!-- Node25 -->
<g id="node25" class="node">
<title>Node25</title>
<g id="a_node25"><a xlink:href="../../d1/d42/classPHG4Particlev1.html#aa3497c5d525870090b3c44caaacc5286" target="_top" xlink:title=" ">
<polygon fill="none" stroke="black" points="200.5,-694 200.5,-713 346.5,-713 346.5,-694 200.5,-694"/>
<text text-anchor="middle" x="273.5" y="-701" font-family="FreeSans" font-size="10.00">PHG4Particlev1::set_name</text>
</a>
</g>
</g>
<!-- Node1&#45;&gt;Node25 -->
<g id="edge25" class="edge">
<title>Node1&#45;&gt;Node25</title>
<path fill="none" stroke="midnightblue" d="M86.88,-625.51C106.39,-642.53 140.66,-669.81 175,-684.5 181.13,-687.12 187.62,-689.38 194.24,-691.34"/>
<polygon fill="midnightblue" stroke="midnightblue" points="193.42,-694.74 203.99,-693.98 195.26,-687.99 193.42,-694.74"/>
</g>
<!-- Node26 -->
<g id="node26" class="node">
<title>Node26</title>
<g id="a_node26"><a xlink:href="../../d1/db9/classPHG4Particlev2.html#a3f84bfc6904c61ab40290953040ecc63" target="_top" xlink:title=" ">
<polygon fill="none" stroke="black" points="217,-644.5 217,-674.5 330,-674.5 330,-644.5 217,-644.5"/>
<text text-anchor="start" x="225" y="-662.5" font-family="FreeSans" font-size="10.00">PHG4Particlev2::set</text>
<text text-anchor="middle" x="273.5" y="-651.5" font-family="FreeSans" font-size="10.00">_parent_id</text>
</a>
</g>
</g>
<!-- Node1&#45;&gt;Node26 -->
<g id="edge26" class="edge">
<title>Node1&#45;&gt;Node26</title>
<path fill="none" stroke="midnightblue" d="M132.48,-625.53C156.02,-631.25 182.91,-637.77 206.78,-643.56"/>
<polygon fill="midnightblue" stroke="midnightblue" points="206.27,-647.04 216.81,-645.99 207.92,-640.23 206.27,-647.04"/>
</g>
<!-- Node27 -->
<g id="node27" class="node">
<title>Node27</title>
<g id="a_node27"><a xlink:href="../../db/dfa/classPHG4Showerv1.html#ad54dac95d469163119ef9e60b0430a3e" target="_top" xlink:title=" ">
<polygon fill="none" stroke="black" points="199,-595.5 199,-625.5 348,-625.5 348,-595.5 199,-595.5"/>
<text text-anchor="start" x="207" y="-613.5" font-family="FreeSans" font-size="10.00">PHG4Showerv1::set_parent</text>
<text text-anchor="middle" x="273.5" y="-602.5" font-family="FreeSans" font-size="10.00">_particle_id</text>
</a>
</g>
</g>
<!-- Node1&#45;&gt;Node27 -->
<g id="edge27" class="edge">
<title>Node1&#45;&gt;Node27</title>
<path fill="none" stroke="midnightblue" d="M139.17,-610.5C155.08,-610.5 172.19,-610.5 188.67,-610.5"/>
<polygon fill="midnightblue" stroke="midnightblue" points="188.84,-614 198.84,-610.5 188.84,-607 188.84,-614"/>
</g>
<!-- Node28 -->
<g id="node28" class="node">
<title>Node28</title>
<g id="a_node28"><a xlink:href="../../db/dfa/classPHG4Showerv1.html#a80cfcaa01c5054d941527b46d87d64e3" target="_top" xlink:title=" ">
<polygon fill="none" stroke="black" points="199,-546.5 199,-576.5 348,-576.5 348,-546.5 199,-546.5"/>
<text text-anchor="start" x="207" y="-564.5" font-family="FreeSans" font-size="10.00">PHG4Showerv1::set_parent</text>
<text text-anchor="middle" x="273.5" y="-553.5" font-family="FreeSans" font-size="10.00">_shower_id</text>
</a>
</g>
</g>
<!-- Node1&#45;&gt;Node28 -->
<g id="edge28" class="edge">
<title>Node1&#45;&gt;Node28</title>
<path fill="none" stroke="midnightblue" d="M132.48,-595.47C154.1,-590.22 178.54,-584.29 200.87,-578.87"/>
<polygon fill="midnightblue" stroke="midnightblue" points="201.74,-582.26 210.64,-576.51 200.09,-575.46 201.74,-582.26"/>
</g>
<!-- Node29 -->
<g id="node29" class="node">
<title>Node29</title>
<g id="a_node29"><a xlink:href="../../d1/d42/classPHG4Particlev1.html#a7d464a9092cef5d06e2added6d587bad" target="_top" xlink:title=" ">
<polygon fill="none" stroke="black" points="207,-508 207,-527 340,-527 340,-508 207,-508"/>
<text text-anchor="middle" x="273.5" y="-515" font-family="FreeSans" font-size="10.00">PHG4Particlev1::set_pid</text>
</a>
</g>
</g>
<!-- Node1&#45;&gt;Node29 -->
<g id="edge29" class="edge">
<title>Node1&#45;&gt;Node29</title>
<path fill="none" stroke="midnightblue" d="M87.3,-595.46C106.92,-578.72 141.05,-552.1 175,-537.5 182.14,-534.43 189.79,-531.82 197.54,-529.6"/>
<polygon fill="midnightblue" stroke="midnightblue" points="198.6,-532.94 207.38,-527 196.82,-526.17 198.6,-532.94"/>
</g>
<!-- Node30 -->
<g id="node30" class="node">
<title>Node30</title>
<g id="a_node30"><a xlink:href="../../d1/db9/classPHG4Particlev2.html#a0f401ff086803054fda56b8cedc12a61" target="_top" xlink:title=" ">
<polygon fill="none" stroke="black" points="217,-458.5 217,-488.5 330,-488.5 330,-458.5 217,-458.5"/>
<text text-anchor="start" x="225" y="-476.5" font-family="FreeSans" font-size="10.00">PHG4Particlev2::set</text>
<text text-anchor="middle" x="273.5" y="-465.5" font-family="FreeSans" font-size="10.00">_primary_id</text>
</a>
</g>
</g>
<!-- Node1&#45;&gt;Node30 -->
<g id="edge30" class="edge">
<title>Node1&#45;&gt;Node30</title>
<path fill="none" stroke="midnightblue" d="M80.39,-595.23C96.96,-570.92 132.69,-523.61 175,-498.5 184.82,-492.67 195.98,-488.19 207.16,-484.75"/>
<polygon fill="midnightblue" stroke="midnightblue" points="208.28,-488.07 216.95,-481.98 206.38,-481.33 208.28,-488.07"/>
</g>
<!-- Node31 -->
<g id="node31" class="node">
<title>Node31</title>
<g id="a_node31"><a xlink:href="../../d1/d42/classPHG4Particlev1.html#aa07b8c93df3398457b73ed567e2ae881" target="_top" xlink:title=" ">
<polygon fill="none" stroke="black" points="208.5,-420 208.5,-439 338.5,-439 338.5,-420 208.5,-420"/>
<text text-anchor="middle" x="273.5" y="-427" font-family="FreeSans" font-size="10.00">PHG4Particlev1::set_px</text>
</a>
</g>
</g>
<!-- Node1&#45;&gt;Node31 -->
<g id="edge31" class="edge">
<title>Node1&#45;&gt;Node31</title>
<path fill="none" stroke="midnightblue" d="M75.77,-595.18C87.79,-562.66 120.5,-486.68 175,-449.5 182.21,-444.58 190.37,-440.83 198.82,-437.97"/>
<polygon fill="midnightblue" stroke="midnightblue" points="199.86,-441.31 208.45,-435.1 197.87,-434.6 199.86,-441.31"/>
</g>
<!-- Node32 -->
<g id="node32" class="node">
<title>Node32</title>
<g id="a_node32"><a xlink:href="../../d1/d42/classPHG4Particlev1.html#ab246ba478bfb4904a3f879001cdde566" target="_top" xlink:title=" ">
<polygon fill="none" stroke="black" points="208.5,-382 208.5,-401 338.5,-401 338.5,-382 208.5,-382"/>
<text text-anchor="middle" x="273.5" y="-389" font-family="FreeSans" font-size="10.00">PHG4Particlev1::set_py</text>
</a>
</g>
</g>
<!-- Node1&#45;&gt;Node32 -->
<g id="edge32" class="edge">
<title>Node1&#45;&gt;Node32</title>
<path fill="none" stroke="midnightblue" d="M73.69,-595.29C82.48,-557.4 110.78,-458.4 175,-410.5 182.08,-405.22 190.23,-401.29 198.74,-398.38"/>
<polygon fill="midnightblue" stroke="midnightblue" points="199.86,-401.7 208.46,-395.52 197.88,-394.99 199.86,-401.7"/>
</g>
<!-- Node33 -->
<g id="node33" class="node">
<title>Node33</title>
<g id="a_node33"><a xlink:href="../../d1/d42/classPHG4Particlev1.html#a7e38e4443363909f61a9314512788d3e" target="_top" xlink:title=" ">
<polygon fill="none" stroke="black" points="209,-344 209,-363 338,-363 338,-344 209,-344"/>
<text text-anchor="middle" x="273.5" y="-351" font-family="FreeSans" font-size="10.00">PHG4Particlev1::set_pz</text>
</a>
</g>
</g>
<!-- Node1&#45;&gt;Node33 -->
<g id="edge33" class="edge">
<title>Node1&#45;&gt;Node33</title>
<path fill="none" stroke="midnightblue" d="M72.33,-595.34C78.31,-552.77 101.35,-431.42 175,-372.5 182.12,-366.8 190.46,-362.65 199.21,-359.64"/>
<polygon fill="midnightblue" stroke="midnightblue" points="200.22,-362.99 208.83,-356.81 198.24,-356.28 200.22,-362.99"/>
</g>
<!-- Node34 -->
<g id="node34" class="node">
<title>Node34</title>
<g id="a_node34"><a xlink:href="../../d1/db9/classPHG4Particlev2.html#ad9de4ee1af6bb6af121ab82ba35d33c2" target="_top" xlink:title=" ">
<polygon fill="none" stroke="black" points="217,-294.5 217,-324.5 330,-324.5 330,-294.5 217,-294.5"/>
<text text-anchor="start" x="225" y="-312.5" font-family="FreeSans" font-size="10.00">PHG4Particlev2::set</text>
<text text-anchor="middle" x="273.5" y="-301.5" font-family="FreeSans" font-size="10.00">_track_id</text>
</a>
</g>
</g>
<!-- Node1&#45;&gt;Node34 -->
<g id="edge34" class="edge">
<title>Node1&#45;&gt;Node34</title>
<path fill="none" stroke="midnightblue" d="M71.53,-595.26C75.51,-548.68 94.05,-406.93 175,-334.5 184.05,-326.4 195.38,-320.85 207.08,-317.07"/>
<polygon fill="midnightblue" stroke="midnightblue" points="208.28,-320.37 216.96,-314.3 206.38,-313.63 208.28,-320.37"/>
</g>
<!-- Node35 -->
<g id="node35" class="node">
<title>Node35</title>
<g id="a_node35"><a xlink:href="../../dd/d9e/classPHG4UserPrimaryParticleInformation.html#abf796dff20b709000ff3fffe4b3b66a0" target="_top" xlink:title=" ">
<polygon fill="none" stroke="black" points="175,-245.5 175,-275.5 372,-275.5 372,-245.5 175,-245.5"/>
<text text-anchor="start" x="183" y="-263.5" font-family="FreeSans" font-size="10.00">PHG4UserPrimaryParticleInformation</text>
<text text-anchor="middle" x="273.5" y="-252.5" font-family="FreeSans" font-size="10.00">::set_user_track_id</text>
</a>
</g>
</g>
<!-- Node1&#45;&gt;Node35 -->
<g id="edge35" class="edge">
<title>Node1&#45;&gt;Node35</title>
<path fill="none" stroke="midnightblue" d="M70.54,-595.25C71.53,-543.51 82.01,-373.06 175,-285.5 176.53,-284.06 178.12,-282.7 179.78,-281.42"/>
<polygon fill="midnightblue" stroke="midnightblue" points="182.14,-284.06 188.54,-275.62 178.27,-278.23 182.14,-284.06"/>
</g>
<!-- Node36 -->
<g id="node36" class="node">
<title>Node36</title>
<g id="a_node36"><a xlink:href="../../dd/d9e/classPHG4UserPrimaryParticleInformation.html#a53d5ba12c7ec9eca7db286d6244eb359" target="_top" xlink:title=" ">
<polygon fill="none" stroke="black" points="175,-196.5 175,-226.5 372,-226.5 372,-196.5 175,-196.5"/>
<text text-anchor="start" x="183" y="-214.5" font-family="FreeSans" font-size="10.00">PHG4UserPrimaryParticleInformation</text>
<text text-anchor="middle" x="273.5" y="-203.5" font-family="FreeSans" font-size="10.00">::set_user_vtx_id</text>
</a>
</g>
</g>
<!-- Node1&#45;&gt;Node36 -->
<g id="edge36" class="edge">
<title>Node1&#45;&gt;Node36</title>
<path fill="none" stroke="midnightblue" d="M72.71,-595.23C82.21,-531.66 121.52,-288.84 175,-236.5 176.45,-235.08 177.97,-233.74 179.55,-232.47"/>
<polygon fill="midnightblue" stroke="midnightblue" points="181.66,-235.26 187.91,-226.71 177.69,-229.5 181.66,-235.26"/>
</g>
<!-- Node37 -->
<g id="node37" class="node">
<title>Node37</title>
<g id="a_node37"><a xlink:href="../../d1/db9/classPHG4Particlev2.html#ae2f926420efce0ff9aeed655aceef898" target="_top" xlink:title=" ">
<polygon fill="none" stroke="black" points="217,-147.5 217,-177.5 330,-177.5 330,-147.5 217,-147.5"/>
<text text-anchor="start" x="225" y="-165.5" font-family="FreeSans" font-size="10.00">PHG4Particlev2::set</text>
<text text-anchor="middle" x="273.5" y="-154.5" font-family="FreeSans" font-size="10.00">_vtx_id</text>
</a>
</g>
</g>
<!-- Node1&#45;&gt;Node37 -->
<g id="edge37" class="edge">
<title>Node1&#45;&gt;Node37</title>
<path fill="none" stroke="midnightblue" d="M72.19,-595.14C80.08,-526.4 115.36,-247.67 175,-187.5 183.78,-178.64 195.26,-172.77 207.23,-168.93"/>
<polygon fill="midnightblue" stroke="midnightblue" points="208.19,-172.29 216.9,-166.25 206.33,-165.54 208.19,-172.29"/>
</g>
<!-- Node38 -->
<g id="node38" class="node">
<title>Node38</title>
<g id="a_node38"><a xlink:href="../../d2/d7f/namespacePHG4TrackUserInfo.html#a6c51cc021b583d69a7aa7fa7b6ebc29b" target="_top" xlink:title=" ">
<polygon fill="none" stroke="black" points="215.5,-98.5 215.5,-128.5 331.5,-128.5 331.5,-98.5 215.5,-98.5"/>
<text text-anchor="start" x="223.5" y="-116.5" font-family="FreeSans" font-size="10.00">PHG4TrackUserInfo::</text>
<text text-anchor="middle" x="273.5" y="-105.5" font-family="FreeSans" font-size="10.00">SetShower</text>
</a>
</g>
</g>
<!-- Node1&#45;&gt;Node38 -->
<g id="edge38" class="edge">
<title>Node1&#45;&gt;Node38</title>
<path fill="none" stroke="midnightblue" d="M71.75,-595.38C78.1,-522.33 109.06,-206.66 175,-138.5 183.35,-129.87 194.25,-124.07 205.73,-120.2"/>
<polygon fill="midnightblue" stroke="midnightblue" points="206.82,-123.53 215.46,-117.39 204.88,-116.8 206.82,-123.53"/>
</g>
<!-- Node40 -->
<g id="node40" class="node">
<title>Node40</title>
<g id="a_node40"><a xlink:href="../../d2/d7f/namespacePHG4TrackUserInfo.html#a03caebd1436815efcb5a30b94004efe9" target="_top" xlink:title=" ">
<polygon fill="none" stroke="black" points="215.5,-49.5 215.5,-79.5 331.5,-79.5 331.5,-49.5 215.5,-49.5"/>
<text text-anchor="start" x="223.5" y="-67.5" font-family="FreeSans" font-size="10.00">PHG4TrackUserInfo::</text>
<text text-anchor="middle" x="273.5" y="-56.5" font-family="FreeSans" font-size="10.00">SetUserPrimaryId</text>
</a>
</g>
</g>
<!-- Node1&#45;&gt;Node40 -->
<g id="edge40" class="edge">
<title>Node1&#45;&gt;Node40</title>
<path fill="none" stroke="midnightblue" d="M71.41,-595.4C76.39,-517.91 102.79,-165.64 175,-89.5 183.27,-80.78 194.13,-74.94 205.59,-71.07"/>
<polygon fill="midnightblue" stroke="midnightblue" points="206.68,-74.39 215.31,-68.25 204.73,-67.67 206.68,-74.39"/>
</g>
<!-- Node42 -->
<g id="node42" class="node">
<title>Node42</title>
<g id="a_node42"><a xlink:href="../../d2/d7f/namespacePHG4TrackUserInfo.html#a82757358cfcf216d0cda4ab0eb084ae4" target="_top" xlink:title=" ">
<polygon fill="none" stroke="black" points="215.5,-0.5 215.5,-30.5 331.5,-30.5 331.5,-0.5 215.5,-0.5"/>
<text text-anchor="start" x="223.5" y="-18.5" font-family="FreeSans" font-size="10.00">PHG4TrackUserInfo::</text>
<text text-anchor="middle" x="273.5" y="-7.5" font-family="FreeSans" font-size="10.00">SetUserTrackId</text>
</a>
</g>
</g>
<!-- Node1&#45;&gt;Node42 -->
<g id="edge42" class="edge">
<title>Node1&#45;&gt;Node42</title>
<path fill="none" stroke="midnightblue" d="M71.11,-595.32C74.74,-513.28 95.99,-123.43 175,-39.5 183.26,-30.72 194.17,-24.94 205.7,-21.17"/>
<polygon fill="midnightblue" stroke="midnightblue" points="206.78,-24.5 215.48,-18.45 204.91,-17.75 206.78,-24.5"/>
</g>
<!-- Node3 -->
<g id="node3" class="node">
<title>Node3</title>
<g id="a_node3"><a xlink:href="../../de/dc9/classPHG4Particle.html#a989cb35b280a19d82722f012c890cafc" target="_top" xlink:title=" ">
<polygon fill="none" stroke="black" points="417,-1385 417,-1404 551,-1404 551,-1385 417,-1385"/>
<text text-anchor="middle" x="484" y="-1392" font-family="FreeSans" font-size="10.00">PHG4Particle::get_name</text>
</a>
</g>
</g>
<!-- Node2&#45;&gt;Node3 -->
<g id="edge2" class="edge">
<title>Node2&#45;&gt;Node3</title>
<path fill="none" stroke="midnightblue" d="M291.33,-1295.66C315.45,-1316.62 362.04,-1354.24 408,-1375.5 413.23,-1377.92 418.82,-1380.06 424.49,-1381.95"/>
<polygon fill="midnightblue" stroke="midnightblue" points="423.49,-1385.31 434.08,-1384.9 425.55,-1378.62 423.49,-1385.31"/>
</g>
<!-- Node4 -->
<g id="node4" class="node">
<title>Node4</title>
<g id="a_node4"><a xlink:href="../../de/dc9/classPHG4Particle.html#a3ba86cf63e50dd6c0705dc91004fe51d" target="_top" xlink:title=" ">
<polygon fill="none" stroke="black" points="408,-1347 408,-1366 560,-1366 560,-1347 408,-1347"/>
<text text-anchor="middle" x="484" y="-1354" font-family="FreeSans" font-size="10.00">PHG4Particle::get_parent_id</text>
</a>
</g>
</g>
<!-- Node2&#45;&gt;Node4 -->
<g id="edge3" class="edge">
<title>Node2&#45;&gt;Node4</title>
<path fill="none" stroke="midnightblue" d="M305.79,-1295.5C332.51,-1307.91 372.19,-1325.4 408,-1337.5 415.34,-1339.98 423.17,-1342.31 430.91,-1344.42"/>
<polygon fill="midnightblue" stroke="midnightblue" points="430.06,-1347.81 440.62,-1346.99 431.84,-1341.05 430.06,-1347.81"/>
</g>
<!-- Node5 -->
<g id="node5" class="node">
<title>Node5</title>
<g id="a_node5"><a xlink:href="../../de/dc9/classPHG4Particle.html#a551c7bed3f04438cf0fa5647999a4864" target="_top" xlink:title=" ">
<polygon fill="none" stroke="black" points="424.5,-1309 424.5,-1328 543.5,-1328 543.5,-1309 424.5,-1309"/>
<text text-anchor="middle" x="484" y="-1316" font-family="FreeSans" font-size="10.00">PHG4Particle::get_px</text>
</a>
</g>
</g>
<!-- Node2&#45;&gt;Node5 -->
<g id="edge4" class="edge">
<title>Node2&#45;&gt;Node5</title>
<path fill="none" stroke="midnightblue" d="M340.76,-1292.58C366.33,-1297.24 395.43,-1302.54 420.63,-1307.13"/>
<polygon fill="midnightblue" stroke="midnightblue" points="420.33,-1310.64 430.8,-1308.99 421.59,-1303.75 420.33,-1310.64"/>
</g>
<!-- Node6 -->
<g id="node6" class="node">
<title>Node6</title>
<g id="a_node6"><a xlink:href="../../de/dc9/classPHG4Particle.html#ad6e122a3aa0d72af0390435253a052a7" target="_top" xlink:title=" ">
<polygon fill="none" stroke="black" points="424.5,-1271 424.5,-1290 543.5,-1290 543.5,-1271 424.5,-1271"/>
<text text-anchor="middle" x="484" y="-1278" font-family="FreeSans" font-size="10.00">PHG4Particle::get_py</text>
</a>
</g>
</g>
<!-- Node2&#45;&gt;Node6 -->
<g id="edge5" class="edge">
<title>Node2&#45;&gt;Node6</title>
<path fill="none" stroke="midnightblue" d="M340.76,-1280.5C364.13,-1280.5 390.45,-1280.5 414.04,-1280.5"/>
<polygon fill="midnightblue" stroke="midnightblue" points="414.31,-1284 424.31,-1280.5 414.31,-1277 414.31,-1284"/>
</g>
<!-- Node7 -->
<g id="node7" class="node">
<title>Node7</title>
<g id="a_node7"><a xlink:href="../../de/dc9/classPHG4Particle.html#ae527e6d26fc23746f001b9d32d17f065" target="_top" xlink:title=" ">
<polygon fill="none" stroke="black" points="425,-1233 425,-1252 543,-1252 543,-1233 425,-1233"/>
<text text-anchor="middle" x="484" y="-1240" font-family="FreeSans" font-size="10.00">PHG4Particle::get_pz</text>
</a>
</g>
</g>
<!-- Node2&#45;&gt;Node7 -->
<g id="edge6" class="edge">
<title>Node2&#45;&gt;Node7</title>
<path fill="none" stroke="midnightblue" d="M340.76,-1268.42C366.33,-1263.76 395.43,-1258.46 420.63,-1253.87"/>
<polygon fill="midnightblue" stroke="midnightblue" points="421.59,-1257.25 430.8,-1252.01 420.33,-1250.36 421.59,-1257.25"/>
</g>
<!-- Node8 -->
<g id="node8" class="node">
<title>Node8</title>
<g id="a_node8"><a xlink:href="../../de/dc9/classPHG4Particle.html#a23b7432f9b345b67a00e5c005fa5ba52" target="_top" xlink:title=" ">
<polygon fill="none" stroke="black" points="411,-1195 411,-1214 557,-1214 557,-1195 411,-1195"/>
<text text-anchor="middle" x="484" y="-1202" font-family="FreeSans" font-size="10.00">PHG4Particle::get_track_id</text>
</a>
</g>
</g>
<!-- Node2&#45;&gt;Node8 -->
<g id="edge7" class="edge">
<title>Node2&#45;&gt;Node8</title>
<path fill="none" stroke="midnightblue" d="M305.79,-1265.5C332.51,-1253.09 372.19,-1235.6 408,-1223.5 415.34,-1221.02 423.17,-1218.69 430.91,-1216.58"/>
<polygon fill="midnightblue" stroke="midnightblue" points="431.84,-1219.95 440.62,-1214.01 430.06,-1213.19 431.84,-1219.95"/>
</g>
<!-- Node10 -->
<g id="node10" class="node">
<title>Node10</title>
<g id="a_node10"><a xlink:href="../../da/d6c/classPHG4TruthInfoContainer.html#a5ef8bc598d50d93cd86a5826d802d3a1" target="_top" xlink:title=" ">
<polygon fill="none" stroke="black" points="417,-1107.5 417,-1137.5 551,-1137.5 551,-1107.5 417,-1107.5"/>
<text text-anchor="start" x="425" y="-1125.5" font-family="FreeSans" font-size="10.00">PHG4TruthInfoContainer</text>
<text text-anchor="middle" x="484" y="-1114.5" font-family="FreeSans" font-size="10.00">::identify</text>
</a>
</g>
</g>
<!-- Node9&#45;&gt;Node10 -->
<g id="edge9" class="edge">
<title>Node9&#45;&gt;Node10</title>
<path fill="none" stroke="midnightblue" d="M340.76,-1152.52C361.85,-1148.07 385.35,-1143.11 407.07,-1138.52"/>
<polygon fill="midnightblue" stroke="midnightblue" points="407.85,-1141.94 416.92,-1136.45 406.41,-1135.09 407.85,-1141.94"/>
</g>
<!-- Node14 -->
<g id="node14" class="node">
<title>Node14</title>
<g id="a_node14"><a xlink:href="../../db/d88/classPHG4Shower.html#a381e15145a06e9f33c3764c7bc4e678d" target="_top" xlink:title=" ">
<polygon fill="none" stroke="black" points="426.5,-1157 426.5,-1176 541.5,-1176 541.5,-1157 426.5,-1157"/>
<text text-anchor="middle" x="484" y="-1164" font-family="FreeSans" font-size="10.00">PHG4Shower::set_id</text>
</a>
</g>
</g>
<!-- Node9&#45;&gt;Node14 -->
<g id="edge13" class="edge">
<title>Node9&#45;&gt;Node14</title>
<path fill="none" stroke="midnightblue" d="M340.76,-1166.5C364.86,-1166.5 392.1,-1166.5 416.24,-1166.5"/>
<polygon fill="midnightblue" stroke="midnightblue" points="416.38,-1170 426.38,-1166.5 416.38,-1163 416.38,-1170"/>
</g>
<!-- Node11 -->
<g id="node11" class="node">
<title>Node11</title>
<g id="a_node11"><a xlink:href="../../da/d6c/classPHG4TruthInfoContainer.html#ad3a7147134687db5b6ea5af66ffd1326" target="_top" xlink:title=" ">
<polygon fill="none" stroke="black" points="596,-1107.5 596,-1137.5 733,-1137.5 733,-1107.5 596,-1107.5"/>
<text text-anchor="start" x="604" y="-1125.5" font-family="FreeSans" font-size="10.00">PHG4TruthInfoContainer</text>
<text text-anchor="middle" x="664.5" y="-1114.5" font-family="FreeSans" font-size="10.00">::GetPrimaryVertexIndex</text>
</a>
</g>
</g>
<!-- Node10&#45;&gt;Node11 -->
<g id="edge10" class="edge">
<title>Node10&#45;&gt;Node11</title>
<path fill="none" stroke="midnightblue" d="M551.21,-1122.5C562.49,-1122.5 574.3,-1122.5 585.85,-1122.5"/>
<polygon fill="midnightblue" stroke="midnightblue" points="585.9,-1126 595.9,-1122.5 585.9,-1119 585.9,-1126"/>
</g>
<!-- Node12 -->
<g id="node12" class="node">
<title>Node12</title>
<g id="a_node12"><a xlink:href="../../da/d6c/classPHG4TruthInfoContainer.html#a53587ae22361008bcee4c51cc1d8d242" target="_top" xlink:title=" ">
<polygon fill="none" stroke="black" points="769,-1132.5 769,-1162.5 903,-1162.5 903,-1132.5 769,-1132.5"/>
<text text-anchor="start" x="777" y="-1150.5" font-family="FreeSans" font-size="10.00">PHG4TruthInfoContainer</text>
<text text-anchor="middle" x="836" y="-1139.5" font-family="FreeSans" font-size="10.00">::GetPrimaryVtxRange</text>
</a>
</g>
</g>
<!-- Node11&#45;&gt;Node12 -->
<g id="edge11" class="edge">
<title>Node11&#45;&gt;Node12</title>
<path fill="none" stroke="midnightblue" d="M733.47,-1132.52C741.87,-1133.76 750.51,-1135.04 759.03,-1136.29"/>
<polygon fill="midnightblue" stroke="midnightblue" points="758.55,-1139.76 768.95,-1137.76 759.57,-1132.84 758.55,-1139.76"/>
</g>
<!-- Node13 -->
<g id="node13" class="node">
<title>Node13</title>
<g id="a_node13"><a xlink:href="../../da/d6c/classPHG4TruthInfoContainer.html#a88f175ebf34c4c7b1de705bf272f821b" target="_top" xlink:title=" ">
<polygon fill="none" stroke="black" points="769,-1083.5 769,-1113.5 903,-1113.5 903,-1083.5 769,-1083.5"/>
<text text-anchor="start" x="777" y="-1101.5" font-family="FreeSans" font-size="10.00">PHG4TruthInfoContainer</text>
<text text-anchor="middle" x="836" y="-1090.5" font-family="FreeSans" font-size="10.00">::isEmbededVtx</text>
</a>
</g>
</g>
<!-- Node11&#45;&gt;Node13 -->
<g id="edge12" class="edge">
<title>Node11&#45;&gt;Node13</title>
<path fill="none" stroke="midnightblue" d="M733.47,-1112.88C741.87,-1111.69 750.51,-1110.46 759.03,-1109.26"/>
<polygon fill="midnightblue" stroke="midnightblue" points="759.54,-1112.72 768.95,-1107.85 758.56,-1105.79 759.54,-1112.72"/>
</g>
<!-- Node15&#45;&gt;Node10 -->
<g id="edge15" class="edge">
<title>Node15&#45;&gt;Node10</title>
<path fill="none" stroke="midnightblue" d="M340.76,-1119.09C361.76,-1119.59 385.14,-1120.15 406.78,-1120.67"/>
<polygon fill="midnightblue" stroke="midnightblue" points="406.83,-1124.17 416.92,-1120.92 407,-1117.18 406.83,-1124.17"/>
</g>
<!-- Node16 -->
<g id="node16" class="node">
<title>Node16</title>
<g id="a_node16"><a xlink:href="../../d6/d81/classPHG4VtxPoint.html#ad983bcfed092a74ea0a229f18c576dac" target="_top" xlink:title=" ">
<polygon fill="none" stroke="black" points="424,-1069 424,-1088 544,-1088 544,-1069 424,-1069"/>
<text text-anchor="middle" x="484" y="-1076" font-family="FreeSans" font-size="10.00">PHG4VtxPoint::set_id</text>
</a>
</g>
</g>
<!-- Node15&#45;&gt;Node16 -->
<g id="edge16" class="edge">
<title>Node15&#45;&gt;Node16</title>
<path fill="none" stroke="midnightblue" d="M340.76,-1105.11C366.86,-1100.22 396.65,-1094.65 422.2,-1089.87"/>
<polygon fill="midnightblue" stroke="midnightblue" points="422.95,-1093.29 432.13,-1088.01 421.66,-1086.41 422.95,-1093.29"/>
</g>
<!-- Node39 -->
<g id="node39" class="node">
<title>Node39</title>
<g id="a_node39"><a xlink:href="../../da/da8/classPHG4TrackUserInfoV1.html#a90dded524fae4df2473ea8105052cbb9" target="_top" xlink:title=" ">
<polygon fill="none" stroke="black" points="422.5,-98.5 422.5,-128.5 545.5,-128.5 545.5,-98.5 422.5,-98.5"/>
<text text-anchor="start" x="430.5" y="-116.5" font-family="FreeSans" font-size="10.00">PHG4TrackUserInfoV1</text>
<text text-anchor="middle" x="484" y="-105.5" font-family="FreeSans" font-size="10.00">::SetShower</text>
</a>
</g>
</g>
<!-- Node38&#45;&gt;Node39 -->
<g id="edge39" class="edge">
<title>Node38&#45;&gt;Node39</title>
<path fill="none" stroke="midnightblue" d="M331.75,-113.5C356.55,-113.5 385.83,-113.5 412,-113.5"/>
<polygon fill="midnightblue" stroke="midnightblue" points="412.23,-117 422.23,-113.5 412.23,-110 412.23,-117"/>
</g>
<!-- Node41 -->
<g id="node41" class="node">
<title>Node41</title>
<g id="a_node41"><a xlink:href="../../da/da8/classPHG4TrackUserInfoV1.html#aa698373693814f05582c80e7da59aefa" target="_top" xlink:title=" ">
<polygon fill="none" stroke="black" points="422.5,-49.5 422.5,-79.5 545.5,-79.5 545.5,-49.5 422.5,-49.5"/>
<text text-anchor="start" x="430.5" y="-67.5" font-family="FreeSans" font-size="10.00">PHG4TrackUserInfoV1</text>
<text text-anchor="middle" x="484" y="-56.5" font-family="FreeSans" font-size="10.00">::SetUserPrimaryId</text>
</a>
</g>
</g>
<!-- Node40&#45;&gt;Node41 -->
<g id="edge41" class="edge">
<title>Node40&#45;&gt;Node41</title>
<path fill="none" stroke="midnightblue" d="M331.75,-64.5C356.55,-64.5 385.83,-64.5 412,-64.5"/>
<polygon fill="midnightblue" stroke="midnightblue" points="412.23,-68 422.23,-64.5 412.23,-61 412.23,-68"/>
</g>
<!-- Node43 -->
<g id="node43" class="node">
<title>Node43</title>
<g id="a_node43"><a xlink:href="../../da/da8/classPHG4TrackUserInfoV1.html#a90c958f79ba16dcd742b81babd628571" target="_top" xlink:title=" ">
<polygon fill="none" stroke="black" points="422.5,-0.5 422.5,-30.5 545.5,-30.5 545.5,-0.5 422.5,-0.5"/>
<text text-anchor="start" x="430.5" y="-18.5" font-family="FreeSans" font-size="10.00">PHG4TrackUserInfoV1</text>
<text text-anchor="middle" x="484" y="-7.5" font-family="FreeSans" font-size="10.00">::SetUserTrackId</text>
</a>
</g>
</g>
<!-- Node42&#45;&gt;Node43 -->
<g id="edge43" class="edge">
<title>Node42&#45;&gt;Node43</title>
<path fill="none" stroke="midnightblue" d="M331.75,-15.5C356.55,-15.5 385.83,-15.5 412,-15.5"/>
<polygon fill="midnightblue" stroke="midnightblue" points="412.23,-19 422.23,-15.5 412.23,-12 412.23,-19"/>
</g>
</g>
</svg>
