<?xml version="1.0" encoding="UTF-8" standalone="no"?>
<!DOCTYPE svg PUBLIC "-//W3C//DTD SVG 1.1//EN"
 "http://www.w3.org/Graphics/SVG/1.1/DTD/svg11.dtd">
<!-- Generated by graphviz version 2.30.1 (20200930.0103)
 -->
<!-- Title: KalmanTrack::getExpPosError Pages: 1 -->
<svg width="1510pt" height="937pt"
 viewBox="0.00 0.00 1510.00 937.47" xmlns="http://www.w3.org/2000/svg" xmlns:xlink="http://www.w3.org/1999/xlink">
<g id="graph0" class="graph" transform="scale(1 1) rotate(0) translate(4 933.473)">
<title>KalmanTrack::getExpPosError</title>
<!-- Node1 -->
<g id="node1" class="node"><title>Node1</title>
<polygon fill="#bfbfbf" stroke="black" points="0.5,-366.973 0.5,-385.973 145.5,-385.973 145.5,-366.973 0.5,-366.973"/>
<text text-anchor="middle" x="73" y="-373.973" font-family="FreeSans" font-size="10.00">KalmanTrack::getExpPosError</text>
</g>
<!-- Node2 -->
<g id="node2" class="node"><title>Node2</title>
<g id="a_node2"><a xlink:href="../../d9/db7/classSMatrix.html#a5b825aefb91608b827fbb652501eaecc" target="_top" target="_top" target="_top" xlink:title="SMatrix::getABCt">
<polygon fill="none" stroke="black" points="205.5,-461.973 205.5,-480.973 296.5,-480.973 296.5,-461.973 205.5,-461.973"/>
<text text-anchor="middle" x="251" y="-468.973" font-family="FreeSans" font-size="10.00">SMatrix::getABCt</text>
</a>
</g>
</g>
<!-- Node1&#45;&gt;Node2 -->
<g id="edge1" class="edge"><title>Node1&#45;&gt;Node2</title>
<path fill="none" stroke="midnightblue" d="M84.8656,-386.057C103.491,-402.017 143.262,-434.102 182,-452.473 186.915,-454.804 192.169,-456.898 197.497,-458.766"/>
<polygon fill="midnightblue" stroke="midnightblue" points="196.518,-462.128 207.11,-461.89 198.681,-455.471 196.518,-462.128"/>
</g>
<!-- Node3 -->
<g id="node3" class="node"><title>Node3</title>
<g id="a_node3"><a xlink:href="../../df/dd0/classNode.html#ada31df00776ea238180f40cdcb874803" target="_top" target="_top" target="_top" xlink:title="Node::getHit">
<polygon fill="none" stroke="black" points="216.5,-423.973 216.5,-442.973 285.5,-442.973 285.5,-423.973 216.5,-423.973"/>
<text text-anchor="middle" x="251" y="-430.973" font-family="FreeSans" font-size="10.00">Node::getHit</text>
</a>
</g>
</g>
<!-- Node1&#45;&gt;Node3 -->
<g id="edge2" class="edge"><title>Node1&#45;&gt;Node3</title>
<path fill="none" stroke="midnightblue" d="M99.5896,-386.012C121.373,-394.003 153.564,-405.509 182,-414.473 189.896,-416.962 198.358,-419.461 206.539,-421.79"/>
<polygon fill="midnightblue" stroke="midnightblue" points="205.747,-425.203 216.321,-424.535 207.639,-418.463 205.747,-425.203"/>
</g>
<!-- Node4 -->
<g id="node4" class="node"><title>Node4</title>
<g id="a_node4"><a xlink:href="../../d0/da0/classGeomSvc.html#a1284823fe2bb9b927568ff82dde606fa" target="_top" target="_top" target="_top" xlink:title="GeomSvc::getPlaneSpacing">
<polygon fill="none" stroke="black" points="182.5,-385.973 182.5,-404.973 319.5,-404.973 319.5,-385.973 182.5,-385.973"/>
<text text-anchor="middle" x="251" y="-392.973" font-family="FreeSans" font-size="10.00">GeomSvc::getPlaneSpacing</text>
</a>
</g>
</g>
<!-- Node1&#45;&gt;Node4 -->
<g id="edge3" class="edge"><title>Node1&#45;&gt;Node4</title>
<path fill="none" stroke="midnightblue" d="M145.586,-384.201C154.437,-385.157 163.517,-386.137 172.452,-387.102"/>
<polygon fill="midnightblue" stroke="midnightblue" points="172.139,-390.588 182.457,-388.182 172.891,-383.629 172.139,-390.588"/>
</g>
<!-- Node5 -->
<g id="node5" class="node"><title>Node5</title>
<g id="a_node5"><a xlink:href="../../df/dd0/classNode.html#a49001f3ff76ccd0091837d333f8698f8" target="_top" target="_top" target="_top" xlink:title="Gets. ">
<polygon fill="none" stroke="black" points="202,-347.973 202,-366.973 300,-366.973 300,-347.973 202,-347.973"/>
<text text-anchor="middle" x="251" y="-354.973" font-family="FreeSans" font-size="10.00">Node::getPredicted</text>
</a>
</g>
</g>
<!-- Node1&#45;&gt;Node5 -->
<g id="edge4" class="edge"><title>Node1&#45;&gt;Node5</title>
<path fill="none" stroke="midnightblue" d="M145.586,-368.745C160.974,-367.084 177.055,-365.348 191.858,-363.75"/>
<polygon fill="midnightblue" stroke="midnightblue" points="192.312,-367.221 201.878,-362.668 191.56,-360.262 192.312,-367.221"/>
</g>
<!-- Node6 -->
<g id="node6" class="node"><title>Node6</title>
<g id="a_node6"><a xlink:href="../../df/dd0/classNode.html#ab276ce7246c8434b058236346dc121fd" target="_top" target="_top" target="_top" xlink:title="Node::getProjector">
<polygon fill="none" stroke="black" points="203,-309.973 203,-328.973 299,-328.973 299,-309.973 203,-309.973"/>
<text text-anchor="middle" x="251" y="-316.973" font-family="FreeSans" font-size="10.00">Node::getProjector</text>
</a>
</g>
</g>
<!-- Node1&#45;&gt;Node6 -->
<g id="edge5" class="edge"><title>Node1&#45;&gt;Node6</title>
<path fill="none" stroke="midnightblue" d="M99.5896,-366.934C121.373,-358.943 153.564,-347.438 182,-338.473 189.234,-336.193 196.945,-333.904 204.478,-331.745"/>
<polygon fill="midnightblue" stroke="midnightblue" points="205.552,-335.079 214.225,-328.993 203.65,-328.342 205.552,-335.079"/>
</g>
<!-- Node7 -->
<g id="node7" class="node"><title>Node7</title>
<g id="a_node7"><a xlink:href="../../d0/da0/classGeomSvc.html#a2b7ecf5467120206b9479654c48ad7c4" target="_top" target="_top" target="_top" xlink:title="singlton instance ">
<polygon fill="none" stroke="black" points="201,-271.973 201,-290.973 301,-290.973 301,-271.973 201,-271.973"/>
<text text-anchor="middle" x="251" y="-278.973" font-family="FreeSans" font-size="10.00">GeomSvc::instance</text>
</a>
</g>
</g>
<!-- Node1&#45;&gt;Node7 -->
<g id="edge6" class="edge"><title>Node1&#45;&gt;Node7</title>
<path fill="none" stroke="midnightblue" d="M84.8656,-366.89C103.491,-350.929 143.262,-318.845 182,-300.473 186.915,-298.142 192.169,-296.049 197.497,-294.18"/>
<polygon fill="midnightblue" stroke="midnightblue" points="198.681,-297.476 207.11,-291.057 196.518,-290.818 198.681,-297.476"/>
</g>
<!-- Node8 -->
<g id="node8" class="node"><title>Node8</title>
<g id="a_node8"><a xlink:href="../../d0/da0/classGeomSvc.html#a96ec4efc82cbaed0b5623e4dd69385b6" target="_top" target="_top" target="_top" xlink:title="Initialization, either from MySQL or from ascii file. ">
<polygon fill="none" stroke="black" points="356.5,-164.973 356.5,-183.973 433.5,-183.973 433.5,-164.973 356.5,-164.973"/>
<text text-anchor="middle" x="395" y="-171.973" font-family="FreeSans" font-size="10.00">GeomSvc::init</text>
</a>
</g>
</g>
<!-- Node7&#45;&gt;Node8 -->
<g id="edge7" class="edge"><title>Node7&#45;&gt;Node8</title>
<path fill="none" stroke="midnightblue" d="M265.104,-271.599C289.851,-252.952 343.63,-212.428 373.304,-190.068"/>
<polygon fill="midnightblue" stroke="midnightblue" points="375.456,-192.829 381.336,-184.016 371.243,-187.239 375.456,-192.829"/>
</g>
<!-- Node9 -->
<g id="node9" class="node"><title>Node9</title>
<g id="a_node9"><a xlink:href="../../d0/da0/classGeomSvc.html#adbe1473f9b3a8ff942da8d7d8ee28322" target="_top" target="_top" target="_top" xlink:title="GeomSvc::initPlaneDbSvc">
<polygon fill="none" stroke="black" points="482,-126.973 482,-145.973 612,-145.973 612,-126.973 482,-126.973"/>
<text text-anchor="middle" x="547" y="-133.973" font-family="FreeSans" font-size="10.00">GeomSvc::initPlaneDbSvc</text>
</a>
</g>
</g>
<!-- Node8&#45;&gt;Node9 -->
<g id="edge8" class="edge"><title>Node8&#45;&gt;Node9</title>
<path fill="none" stroke="midnightblue" d="M432.876,-164.956C444.726,-161.911 457.914,-158.536 470,-155.473 479.004,-153.192 488.613,-150.775 497.864,-148.458"/>
<polygon fill="midnightblue" stroke="midnightblue" points="498.863,-151.816 507.715,-145.994 497.164,-145.025 498.863,-151.816"/>
</g>
<!-- Node44 -->
<g id="node44" class="node"><title>Node44</title>
<g id="a_node44"><a xlink:href="../../d0/da0/classGeomSvc.html#a0d550b9f787318d57cdae9db2d04d6fb" target="_top" target="_top" target="_top" xlink:title="GeomSvc::initPlaneDirect">
<polygon fill="none" stroke="black" points="483.5,-278.973 483.5,-297.973 610.5,-297.973 610.5,-278.973 483.5,-278.973"/>
<text text-anchor="middle" x="547" y="-285.973" font-family="FreeSans" font-size="10.00">GeomSvc::initPlaneDirect</text>
</a>
</g>
</g>
<!-- Node8&#45;&gt;Node44 -->
<g id="edge54" class="edge"><title>Node8&#45;&gt;Node44</title>
<path fill="none" stroke="midnightblue" d="M400.63,-183.999C410.525,-203.308 435.658,-247.12 470,-269.473 473.149,-271.523 476.503,-273.351 479.982,-274.983"/>
<polygon fill="midnightblue" stroke="midnightblue" points="478.845,-278.299 489.425,-278.856 481.501,-271.823 478.845,-278.299"/>
</g>
<!-- Node45 -->
<g id="node45" class="node"><title>Node45</title>
<g id="a_node45"><a xlink:href="../../d0/da0/classGeomSvc.html#a0c78d3ac904cfbb367e96c73f176630d" target="_top" target="_top" target="_top" xlink:title="GeomSvc::initWireLUT">
<polygon fill="none" stroke="black" points="490,-240.973 490,-259.973 604,-259.973 604,-240.973 490,-240.973"/>
<text text-anchor="middle" x="547" y="-247.973" font-family="FreeSans" font-size="10.00">GeomSvc::initWireLUT</text>
</a>
</g>
</g>
<!-- Node8&#45;&gt;Node45 -->
<g id="edge55" class="edge"><title>Node8&#45;&gt;Node45</title>
<path fill="none" stroke="midnightblue" d="M405.636,-184.051C418.966,-196.762 444.308,-219.042 470,-231.473 474.974,-233.88 480.283,-236.001 485.695,-237.867"/>
<polygon fill="midnightblue" stroke="midnightblue" points="484.91,-241.289 495.5,-240.956 487.014,-234.613 484.91,-241.289"/>
</g>
<!-- Node10 -->
<g id="node10" class="node"><title>Node10</title>
<g id="a_node10"><a xlink:href="../../d8/d14/classrecoConsts.html#aea8535068aa74d8acf1f98e938a1ff85" target="_top" target="_top" target="_top" xlink:title="recoConsts::instance">
<polygon fill="none" stroke="black" points="1064.5,-262.973 1064.5,-281.973 1169.5,-281.973 1169.5,-262.973 1064.5,-262.973"/>
<text text-anchor="middle" x="1117" y="-269.973" font-family="FreeSans" font-size="10.00">recoConsts::instance</text>
</a>
</g>
</g>
<!-- Node8&#45;&gt;Node10 -->
<g id="edge56" class="edge"><title>Node8&#45;&gt;Node10</title>
<path fill="none" stroke="midnightblue" d="M398.098,-164.652C404.101,-139.297 423.965,-71.7279 470,-44.4733 603.095,34.325 666.496,-10.3278 818,-41.4733 911.805,-60.7572 942.012,-65.6714 1016,-126.473 1060.14,-162.75 1092.93,-223.372 1107.56,-253.821"/>
<polygon fill="midnightblue" stroke="midnightblue" points="1104.4,-255.339 1111.81,-262.912 1110.74,-252.371 1104.4,-255.339"/>
</g>
<!-- Node46 -->
<g id="node46" class="node"><title>Node46</title>
<g id="a_node46"><a xlink:href="../../d0/da0/classGeomSvc.html#ab6c810e39b86ce66a4be6a596b4d54b8" target="_top" target="_top" target="_top" xlink:title="GeomSvc::loadAlignment">
<polygon fill="none" stroke="black" points="484.5,-202.973 484.5,-221.973 609.5,-221.973 609.5,-202.973 484.5,-202.973"/>
<text text-anchor="middle" x="547" y="-209.973" font-family="FreeSans" font-size="10.00">GeomSvc::loadAlignment</text>
</a>
</g>
</g>
<!-- Node8&#45;&gt;Node46 -->
<g id="edge57" class="edge"><title>Node8&#45;&gt;Node46</title>
<path fill="none" stroke="midnightblue" d="M432.876,-183.99C444.726,-187.036 457.914,-190.411 470,-193.473 479.004,-195.755 488.613,-198.171 497.864,-200.488"/>
<polygon fill="midnightblue" stroke="midnightblue" points="497.164,-203.921 507.715,-202.952 498.863,-197.13 497.164,-203.921"/>
</g>
<!-- Node47 -->
<g id="node47" class="node"><title>Node47</title>
<g id="a_node47"><a xlink:href="../../d0/da0/classGeomSvc.html#abc60088ed5985a796f5df18ae4299661" target="_top" target="_top" target="_top" xlink:title="GeomSvc::loadCalibration">
<polygon fill="none" stroke="black" points="483,-164.973 483,-183.973 611,-183.973 611,-164.973 483,-164.973"/>
<text text-anchor="middle" x="547" y="-171.973" font-family="FreeSans" font-size="10.00">GeomSvc::loadCalibration</text>
</a>
</g>
</g>
<!-- Node8&#45;&gt;Node47 -->
<g id="edge58" class="edge"><title>Node8&#45;&gt;Node47</title>
<path fill="none" stroke="midnightblue" d="M433.851,-174.473C445.678,-174.473 459.153,-174.473 472.561,-174.473"/>
<polygon fill="midnightblue" stroke="midnightblue" points="472.774,-177.973 482.774,-174.473 472.774,-170.973 472.774,-177.973"/>
</g>
<!-- Node49 -->
<g id="node49" class="node"><title>Node49</title>
<g id="a_node49"><a xlink:href="../../d0/da0/classGeomSvc.html#a418543d7b33fc95092b2cd4a7496f1b8" target="_top" target="_top" target="_top" xlink:title="GeomSvc::loadMilleAlignment">
<polygon fill="none" stroke="black" points="666,-50.9733 666,-69.9733 812,-69.9733 812,-50.9733 666,-50.9733"/>
<text text-anchor="middle" x="739" y="-57.9733" font-family="FreeSans" font-size="10.00">GeomSvc::loadMilleAlignment</text>
</a>
</g>
</g>
<!-- Node8&#45;&gt;Node49 -->
<g id="edge60" class="edge"><title>Node8&#45;&gt;Node49</title>
<path fill="none" stroke="midnightblue" d="M400.189,-164.749C409.428,-144.663 433.659,-98.8526 470,-79.4733 529.476,-47.757 607.2,-45.7929 663.62,-50.098"/>
<polygon fill="midnightblue" stroke="midnightblue" points="663.638,-53.6119 673.898,-50.969 664.229,-46.6369 663.638,-53.6119"/>
</g>
<!-- Node50 -->
<g id="node50" class="node"><title>Node50</title>
<g id="a_node50"><a xlink:href="../../d0/da0/classGeomSvc.html#a6234a9e4de78f5667104d23c8828b79f" target="_top" target="_top" target="_top" xlink:title="Load parameters used in the online&#45;alignment mode. ">
<polygon fill="none" stroke="black" points="470.5,-88.9733 470.5,-107.973 623.5,-107.973 623.5,-88.9733 470.5,-88.9733"/>
<text text-anchor="middle" x="547" y="-95.9733" font-family="FreeSans" font-size="10.00">GeomSvc::loadOnlineAlignment</text>
</a>
</g>
</g>
<!-- Node8&#45;&gt;Node50 -->
<g id="edge61" class="edge"><title>Node8&#45;&gt;Node50</title>
<path fill="none" stroke="midnightblue" d="M405.636,-164.895C418.966,-152.184 444.308,-129.905 470,-117.473 474.974,-115.067 480.283,-112.945 485.695,-111.08"/>
<polygon fill="midnightblue" stroke="midnightblue" points="487.014,-114.334 495.5,-107.99 484.91,-107.657 487.014,-114.334"/>
</g>
<!-- Node9&#45;&gt;Node10 -->
<g id="edge9" class="edge"><title>Node9&#45;&gt;Node10</title>
<path fill="none" stroke="midnightblue" d="M612.302,-132.84C723.553,-127.576 946.692,-121.816 1016,-155.473 1059.67,-176.681 1091.72,-226.718 1106.65,-253.981"/>
<polygon fill="midnightblue" stroke="midnightblue" points="1103.6,-255.695 1111.37,-262.9 1109.79,-252.423 1103.6,-255.695"/>
</g>
<!-- Node17 -->
<g id="node17" class="node"><title>Node17</title>
<g id="a_node17"><a xlink:href="../../df/dbc/run_8C.html#a078d38b1d96e7c0e4f35d93363cc8325" target="_top" target="_top" target="_top" xlink:title="run">
<polygon fill="none" stroke="black" points="724,-442.973 724,-461.973 754,-461.973 754,-442.973 724,-442.973"/>
<text text-anchor="middle" x="739" y="-449.973" font-family="FreeSans" font-size="10.00">run</text>
</a>
</g>
</g>
<!-- Node9&#45;&gt;Node17 -->
<g id="edge16" class="edge"><title>Node9&#45;&gt;Node17</title>
<path fill="none" stroke="midnightblue" d="M609.194,-145.994C614.569,-148.486 619.621,-151.597 624,-155.473 709.721,-231.363 731.366,-379.083 736.499,-432.55"/>
<polygon fill="midnightblue" stroke="midnightblue" points="733.031,-433.071 737.381,-442.731 740.005,-432.467 733.031,-433.071"/>
</g>
<!-- Node43 -->
<g id="node43" class="node"><title>Node43</title>
<g id="a_node43"><a xlink:href="../../d0/da0/classGeomSvc.html#a315e886f05db8254ed7d320706e268e6" target="_top" target="_top" target="_top" xlink:title="Convert the official detectorName to local detectorName. ">
<polygon fill="none" stroke="black" points="660,-88.9733 660,-107.973 818,-107.973 818,-88.9733 660,-88.9733"/>
<text text-anchor="middle" x="739" y="-95.9733" font-family="FreeSans" font-size="10.00">GeomSvc::toLocalDetectorName</text>
</a>
</g>
</g>
<!-- Node9&#45;&gt;Node43 -->
<g id="edge53" class="edge"><title>Node9&#45;&gt;Node43</title>
<path fill="none" stroke="midnightblue" d="M595.945,-126.884C621.582,-121.757 653.336,-115.406 680.316,-110.01"/>
<polygon fill="midnightblue" stroke="midnightblue" points="681.28,-113.387 690.4,-107.993 679.908,-106.523 681.28,-113.387"/>
</g>
<!-- Node11 -->
<g id="node11" class="node"><title>Node11</title>
<g id="a_node11"><a xlink:href="../../d8/d14/classrecoConsts.html#ae882d6adc62f783ec78114fe3dee3c24" target="_top" target="_top" target="_top" xlink:title="recoConsts::recoConsts">
<polygon fill="none" stroke="black" points="1220.5,-262.973 1220.5,-281.973 1337.5,-281.973 1337.5,-262.973 1220.5,-262.973"/>
<text text-anchor="middle" x="1279" y="-269.973" font-family="FreeSans" font-size="10.00">recoConsts::recoConsts</text>
</a>
</g>
</g>
<!-- Node10&#45;&gt;Node11 -->
<g id="edge10" class="edge"><title>Node10&#45;&gt;Node11</title>
<path fill="none" stroke="midnightblue" d="M1169.51,-272.473C1182.46,-272.473 1196.57,-272.473 1210.19,-272.473"/>
<polygon fill="midnightblue" stroke="midnightblue" points="1210.49,-275.973 1220.49,-272.473 1210.49,-268.973 1210.49,-275.973"/>
</g>
<!-- Node12 -->
<g id="node12" class="node"><title>Node12</title>
<g id="a_node12"><a xlink:href="../../d8/d14/classrecoConsts.html#a864b1da9614924988d09542c268c42dc" target="_top" target="_top" target="_top" xlink:title="set the default value for all the constants needed &#45; user is supposed to add a default value here to ...">
<polygon fill="none" stroke="black" points="1218.5,-575.973 1218.5,-594.973 1339.5,-594.973 1339.5,-575.973 1218.5,-575.973"/>
<text text-anchor="middle" x="1279" y="-582.973" font-family="FreeSans" font-size="10.00">recoConsts::set_defaults</text>
</a>
</g>
</g>
<!-- Node10&#45;&gt;Node12 -->
<g id="edge11" class="edge"><title>Node10&#45;&gt;Node12</title>
<path fill="none" stroke="midnightblue" d="M1152.21,-281.986C1162.95,-286.413 1174.06,-292.701 1182,-301.473 1253.61,-380.587 1272.09,-515.144 1276.61,-565.59"/>
<polygon fill="midnightblue" stroke="midnightblue" points="1273.14,-566.095 1277.44,-575.781 1280.12,-565.532 1273.14,-566.095"/>
</g>
<!-- Node13 -->
<g id="node13" class="node"><title>Node13</title>
<g id="a_node13"><a xlink:href="../../d1/da8/classPHFlag.html#a64f8c67e9313e5cecdbed51f747026da" target="_top" target="_top" target="_top" xlink:title="PHFlag::set_DoubleFlag">
<polygon fill="none" stroke="black" points="1379,-537.973 1379,-556.973 1499,-556.973 1499,-537.973 1379,-537.973"/>
<text text-anchor="middle" x="1439" y="-544.973" font-family="FreeSans" font-size="10.00">PHFlag::set_DoubleFlag</text>
</a>
</g>
</g>
<!-- Node12&#45;&gt;Node13 -->
<g id="edge12" class="edge"><title>Node12&#45;&gt;Node13</title>
<path fill="none" stroke="midnightblue" d="M1319.87,-575.884C1340.72,-570.87 1366.43,-564.685 1388.54,-559.368"/>
<polygon fill="midnightblue" stroke="midnightblue" points="1389.51,-562.735 1398.42,-556.993 1387.88,-555.929 1389.51,-562.735"/>
</g>
<!-- Node14 -->
<g id="node14" class="node"><title>Node14</title>
<g id="a_node14"><a xlink:href="../../d1/da8/classPHFlag.html#a3ef5c3f1eff2daaaf18e5129858a9ef8" target="_top" target="_top" target="_top" xlink:title="PHFlag::set_IntFlag">
<polygon fill="none" stroke="black" points="1388.5,-708.973 1388.5,-727.973 1489.5,-727.973 1489.5,-708.973 1388.5,-708.973"/>
<text text-anchor="middle" x="1439" y="-715.973" font-family="FreeSans" font-size="10.00">PHFlag::set_IntFlag</text>
</a>
</g>
</g>
<!-- Node12&#45;&gt;Node14 -->
<g id="edge13" class="edge"><title>Node12&#45;&gt;Node14</title>
<path fill="none" stroke="midnightblue" d="M1291.36,-595.038C1318.11,-617.551 1385.28,-674.093 1418.61,-702.154"/>
<polygon fill="midnightblue" stroke="midnightblue" points="1416.41,-704.874 1426.31,-708.636 1420.92,-699.519 1416.41,-704.874"/>
</g>
<!-- Node15 -->
<g id="node15" class="node"><title>Node15</title>
<g id="a_node15"><a xlink:href="../../d1/da8/classPHFlag.html#a5aaf1fedd8907f4b2b0c9535a4491f42" target="_top" target="_top" target="_top" xlink:title="PHFlag::set_BoolFlag">
<polygon fill="none" stroke="black" points="1384,-613.973 1384,-632.973 1494,-632.973 1494,-613.973 1384,-613.973"/>
<text text-anchor="middle" x="1439" y="-620.973" font-family="FreeSans" font-size="10.00">PHFlag::set_BoolFlag</text>
</a>
</g>
</g>
<!-- Node12&#45;&gt;Node15 -->
<g id="edge14" class="edge"><title>Node12&#45;&gt;Node15</title>
<path fill="none" stroke="midnightblue" d="M1319.87,-595.062C1340.72,-600.077 1366.43,-606.261 1388.54,-611.579"/>
<polygon fill="midnightblue" stroke="midnightblue" points="1387.88,-615.018 1398.42,-613.953 1389.51,-608.212 1387.88,-615.018"/>
</g>
<!-- Node16 -->
<g id="node16" class="node"><title>Node16</title>
<g id="a_node16"><a xlink:href="../../d8/d14/classrecoConsts.html#aec7c7c885b190f7dbb57ac99af4587e6" target="_top" target="_top" target="_top" xlink:title="overide the virtual function to expand the environmental variables ">
<polygon fill="none" stroke="red" points="1376,-575.973 1376,-594.973 1502,-594.973 1502,-575.973 1376,-575.973"/>
<text text-anchor="middle" x="1439" y="-582.973" font-family="FreeSans" font-size="10.00">recoConsts::set_CharFlag</text>
</a>
</g>
</g>
<!-- Node12&#45;&gt;Node16 -->
<g id="edge15" class="edge"><title>Node12&#45;&gt;Node16</title>
<path fill="none" stroke="midnightblue" d="M1339.73,-585.473C1348.21,-585.473 1357.01,-585.473 1365.69,-585.473"/>
<polygon fill="midnightblue" stroke="midnightblue" points="1365.81,-588.973 1375.81,-585.473 1365.81,-581.973 1365.81,-588.973"/>
</g>
<!-- Node18 -->
<g id="node18" class="node"><title>Node18</title>
<g id="a_node18"><a xlink:href="../../d5/de9/E1039Shielding_2ana_8C.html#a24b637aefa84c667b63905e9be5a8f69" target="_top" target="_top" target="_top" xlink:title="ana">
<polygon fill="none" stroke="black" points="919,-518.973 919,-537.973 951,-537.973 951,-518.973 919,-518.973"/>
<text text-anchor="middle" x="935" y="-525.973" font-family="FreeSans" font-size="10.00">ana</text>
</a>
</g>
</g>
<!-- Node17&#45;&gt;Node18 -->
<g id="edge17" class="edge"><title>Node17&#45;&gt;Node18</title>
<path fill="none" stroke="midnightblue" d="M754.131,-459.679C775.418,-470.358 817.146,-490.614 854,-504.473 872.148,-511.298 893.163,-517.541 909.099,-521.948"/>
<polygon fill="midnightblue" stroke="midnightblue" points="908.189,-525.327 918.756,-524.566 910.021,-518.571 908.189,-525.327"/>
</g>
<!-- Node20 -->
<g id="node20" class="node"><title>Node20</title>
<g id="a_node20"><a xlink:href="../../da/d29/classFun4AllServer.html#ab7263450319ca1d5029209fde26a7af8" target="_top" target="_top" target="_top" xlink:title="Fun4AllServer::End">
<polygon fill="none" stroke="black" points="886,-404.973 886,-423.973 984,-423.973 984,-404.973 886,-404.973"/>
<text text-anchor="middle" x="935" y="-411.973" font-family="FreeSans" font-size="10.00">Fun4AllServer::End</text>
</a>
</g>
</g>
<!-- Node17&#45;&gt;Node20 -->
<g id="edge19" class="edge"><title>Node17&#45;&gt;Node20</title>
<path fill="none" stroke="midnightblue" d="M754.265,-449.679C779.54,-444.728 833.5,-434.159 875.736,-425.886"/>
<polygon fill="midnightblue" stroke="midnightblue" points="876.507,-429.301 885.648,-423.944 875.161,-422.432 876.507,-429.301"/>
</g>
<!-- Node25 -->
<g id="node25" class="node"><title>Node25</title>
<g id="a_node25"><a xlink:href="../../d4/da9/classFun4AllInputManager.html#a8ad787f847a175450ec5beddeaa33ca6" target="_top" target="_top" target="_top" xlink:title="Fun4AllInputManager\l::fileopen">
<polygon fill="none" stroke="black" points="880.5,-203.473 880.5,-233.473 989.5,-233.473 989.5,-203.473 880.5,-203.473"/>
<text text-anchor="start" x="888.5" y="-221.473" font-family="FreeSans" font-size="10.00">Fun4AllInputManager</text>
<text text-anchor="middle" x="935" y="-210.473" font-family="FreeSans" font-size="10.00">::fileopen</text>
</a>
</g>
</g>
<!-- Node17&#45;&gt;Node25 -->
<g id="edge26" class="edge"><title>Node17&#45;&gt;Node25</title>
<path fill="none" stroke="midnightblue" d="M742.745,-442.827C752.402,-410.574 787.848,-305.331 854,-248.473 859.139,-244.056 864.993,-240.26 871.141,-237.004"/>
<polygon fill="midnightblue" stroke="midnightblue" points="872.805,-240.087 880.311,-232.61 869.78,-233.774 872.805,-240.087"/>
</g>
<!-- Node26 -->
<g id="node26" class="node"><title>Node26</title>
<g id="a_node26"><a xlink:href="../../d8/d14/classrecoConsts.html#a7c0a1405f7f0f8c2acca26831984b28d" target="_top" target="_top" target="_top" xlink:title="initialize the constants by the runNo &#45; not implemented yet ">
<polygon fill="none" stroke="black" points="1238,-822.973 1238,-841.973 1320,-841.973 1320,-822.973 1238,-822.973"/>
<text text-anchor="middle" x="1279" y="-829.973" font-family="FreeSans" font-size="10.00">recoConsts::init</text>
</a>
</g>
</g>
<!-- Node17&#45;&gt;Node26 -->
<g id="edge27" class="edge"><title>Node17&#45;&gt;Node26</title>
<path fill="none" stroke="midnightblue" d="M740.31,-462.008C742.253,-505.816 756.167,-689.78 854,-786.473 954.933,-886.23 1142.39,-862.4 1230.24,-844.12"/>
<polygon fill="midnightblue" stroke="midnightblue" points="1231.16,-847.504 1240.2,-841.983 1229.69,-840.66 1231.16,-847.504"/>
</g>
<!-- Node17&#45;&gt;Node10 -->
<g id="edge29" class="edge"><title>Node17&#45;&gt;Node10</title>
<path fill="none" stroke="midnightblue" d="M742.95,-442.753C752.781,-412.284 787.62,-318.479 854,-281.473 919.492,-244.963 1009.2,-251.717 1064.83,-261.171"/>
<polygon fill="midnightblue" stroke="midnightblue" points="1064.34,-264.64 1074.8,-262.958 1065.58,-257.75 1064.34,-264.64"/>
</g>
<!-- Node27 -->
<g id="node27" class="node"><title>Node27</title>
<g id="a_node27"><a xlink:href="../../da/d29/classFun4AllServer.html#a3e55156f91b2c94bb6c4ef33ffce587a" target="_top" target="_top" target="_top" xlink:title="Fun4AllServer::instance">
<polygon fill="none" stroke="black" points="1058,-480.973 1058,-499.973 1176,-499.973 1176,-480.973 1058,-480.973"/>
<text text-anchor="middle" x="1117" y="-487.973" font-family="FreeSans" font-size="10.00">Fun4AllServer::instance</text>
</a>
</g>
</g>
<!-- Node17&#45;&gt;Node27 -->
<g id="edge30" class="edge"><title>Node17&#45;&gt;Node27</title>
<path fill="none" stroke="midnightblue" d="M754.335,-455.302C775.883,-459.454 817.939,-467.17 854,-471.473 919.485,-479.288 994.589,-484.336 1047.55,-487.251"/>
<polygon fill="midnightblue" stroke="midnightblue" points="1047.66,-490.762 1057.84,-487.805 1048.04,-483.772 1047.66,-490.762"/>
</g>
<!-- Node17&#45;&gt;Node7 -->
<g id="edge31" class="edge"><title>Node17&#45;&gt;Node7</title>
<path fill="none" stroke="midnightblue" d="M723.699,-446.821C670.7,-425.972 480.281,-351.925 320,-300.473 312.859,-298.181 305.246,-295.899 297.796,-293.753"/>
<polygon fill="midnightblue" stroke="midnightblue" points="298.724,-290.378 288.149,-291.022 296.817,-297.114 298.724,-290.378"/>
</g>
<!-- Node28 -->
<g id="node28" class="node"><title>Node28</title>
<g id="a_node28"><a xlink:href="../../d8/d14/classrecoConsts.html#a5502a14fdb8433de15c2e71351f281d6" target="_top" target="_top" target="_top" xlink:title="print all the parameters ">
<polygon fill="none" stroke="black" points="890.5,-708.973 890.5,-727.973 979.5,-727.973 979.5,-708.973 890.5,-708.973"/>
<text text-anchor="middle" x="935" y="-715.973" font-family="FreeSans" font-size="10.00">recoConsts::Print</text>
</a>
</g>
</g>
<!-- Node17&#45;&gt;Node28 -->
<g id="edge32" class="edge"><title>Node17&#45;&gt;Node28</title>
<path fill="none" stroke="midnightblue" d="M743.459,-462.161C755.08,-493.713 795.31,-595.301 854,-661.473 869.181,-678.59 890.421,-693.42 907.2,-703.66"/>
<polygon fill="midnightblue" stroke="midnightblue" points="905.607,-706.784 915.997,-708.862 909.171,-700.759 905.607,-706.784"/>
</g>
<!-- Node34 -->
<g id="node34" class="node"><title>Node34</title>
<g id="a_node34"><a xlink:href="../../da/d29/classFun4AllServer.html#ae3fe7393e52376b515c60dd927670f2e" target="_top" target="_top" target="_top" xlink:title="Fun4AllServer::PrintTimer">
<polygon fill="none" stroke="black" points="871.5,-164.973 871.5,-183.973 998.5,-183.973 998.5,-164.973 871.5,-164.973"/>
<text text-anchor="middle" x="935" y="-171.973" font-family="FreeSans" font-size="10.00">Fun4AllServer::PrintTimer</text>
</a>
</g>
</g>
<!-- Node17&#45;&gt;Node34 -->
<g id="edge38" class="edge"><title>Node17&#45;&gt;Node34</title>
<path fill="none" stroke="midnightblue" d="M741.167,-442.913C746.343,-404.854 770.776,-262.817 854,-193.473 856.577,-191.326 859.356,-189.413 862.276,-187.709"/>
<polygon fill="midnightblue" stroke="midnightblue" points="863.99,-190.766 871.406,-183.199 860.89,-184.489 863.99,-190.766"/>
</g>
<!-- Node35 -->
<g id="node35" class="node"><title>Node35</title>
<g id="a_node35"><a xlink:href="../../dc/da8/classAnaModule.html#aae26c89fb67266a27325b364ba48cc38" target="_top" target="_top" target="_top" xlink:title="AnaModule::registerDetector">
<polygon fill="none" stroke="black" points="866,-632.973 866,-651.973 1004,-651.973 1004,-632.973 866,-632.973"/>
<text text-anchor="middle" x="935" y="-639.973" font-family="FreeSans" font-size="10.00">AnaModule::registerDetector</text>
</a>
</g>
</g>
<!-- Node17&#45;&gt;Node35 -->
<g id="edge39" class="edge"><title>Node17&#45;&gt;Node35</title>
<path fill="none" stroke="midnightblue" d="M743.805,-462.028C755.604,-490.42 794.404,-574.999 854,-618.473 859.96,-622.821 866.71,-626.388 873.702,-629.314"/>
<polygon fill="midnightblue" stroke="midnightblue" points="872.741,-632.692 883.334,-632.919 875.195,-626.136 872.741,-632.692"/>
</g>
<!-- Node37 -->
<g id="node37" class="node"><title>Node37</title>
<g id="a_node37"><a xlink:href="../../da/d29/classFun4AllServer.html#ab2cb490790d15b865ae79eb3094caabe" target="_top" target="_top" target="_top" xlink:title="Fun4AllServer::registerInput\lManager">
<polygon fill="none" stroke="red" points="867.5,-899.473 867.5,-929.473 1002.5,-929.473 1002.5,-899.473 867.5,-899.473"/>
<text text-anchor="start" x="875.5" y="-917.473" font-family="FreeSans" font-size="10.00">Fun4AllServer::registerInput</text>
<text text-anchor="middle" x="935" y="-906.473" font-family="FreeSans" font-size="10.00">Manager</text>
</a>
</g>
</g>
<!-- Node17&#45;&gt;Node37 -->
<g id="edge41" class="edge"><title>Node17&#45;&gt;Node37</title>
<path fill="none" stroke="midnightblue" d="M739.537,-462.138C737.63,-513.107 735.402,-753.28 854,-884.473 857.307,-888.132 861.105,-891.346 865.21,-894.17"/>
<polygon fill="midnightblue" stroke="midnightblue" points="863.631,-897.304 874.009,-899.435 867.225,-891.297 863.631,-897.304"/>
</g>
<!-- Node38 -->
<g id="node38" class="node"><title>Node38</title>
<g id="a_node38"><a xlink:href="../../da/d29/classFun4AllServer.html#a0a9947db0ede1e55622001eb7515f8c0" target="_top" target="_top" target="_top" xlink:title="Fun4AllServer::registerSubsystem">
<polygon fill="none" stroke="red" points="854.5,-442.973 854.5,-461.973 1015.5,-461.973 1015.5,-442.973 854.5,-442.973"/>
<text text-anchor="middle" x="935" y="-449.973" font-family="FreeSans" font-size="10.00">Fun4AllServer::registerSubsystem</text>
</a>
</g>
</g>
<!-- Node17&#45;&gt;Node38 -->
<g id="edge42" class="edge"><title>Node17&#45;&gt;Node38</title>
<path fill="none" stroke="midnightblue" d="M754.265,-452.473C773.539,-452.473 809.492,-452.473 844.207,-452.473"/>
<polygon fill="midnightblue" stroke="midnightblue" points="844.435,-455.973 854.435,-452.473 844.435,-448.973 844.435,-455.973"/>
</g>
<!-- Node39 -->
<g id="node39" class="node"><title>Node39</title>
<g id="a_node39"><a xlink:href="../../da/d29/classFun4AllServer.html#a11bbc8b2f53bc06e0b05ee202dd6372a" target="_top" target="_top" target="_top" xlink:title="run n events (0 means up to end of file) ">
<polygon fill="none" stroke="red" points="887.5,-366.973 887.5,-385.973 982.5,-385.973 982.5,-366.973 887.5,-366.973"/>
<text text-anchor="middle" x="935" y="-373.973" font-family="FreeSans" font-size="10.00">Fun4AllServer::run</text>
</a>
</g>
</g>
<!-- Node17&#45;&gt;Node39 -->
<g id="edge44" class="edge"><title>Node17&#45;&gt;Node39</title>
<path fill="none" stroke="midnightblue" d="M754.278,-443.98C775.412,-431.727 816.563,-409.072 854,-395.473 861.536,-392.736 869.616,-390.285 877.638,-388.127"/>
<polygon fill="midnightblue" stroke="midnightblue" points="878.535,-391.511 887.355,-385.64 876.799,-384.729 878.535,-391.511"/>
</g>
<!-- Node17&#45;&gt;Node15 -->
<g id="edge48" class="edge"><title>Node17&#45;&gt;Node15</title>
<path fill="none" stroke="midnightblue" d="M745.691,-462.075C760.245,-485.623 801.411,-546.159 854,-571.473 944.303,-614.943 1241.22,-622.305 1373.47,-623.389"/>
<polygon fill="midnightblue" stroke="midnightblue" points="1373.82,-626.891 1383.84,-623.463 1373.87,-619.891 1373.82,-626.891"/>
</g>
<!-- Node17&#45;&gt;Node13 -->
<g id="edge49" class="edge"><title>Node17&#45;&gt;Node13</title>
<path fill="none" stroke="midnightblue" d="M747.517,-462.219C764.071,-482.775 806.036,-530.108 854,-547.473 946.564,-580.986 1234.74,-563.656 1368.5,-553.334"/>
<polygon fill="midnightblue" stroke="midnightblue" points="1368.93,-556.811 1378.63,-552.543 1368.39,-549.832 1368.93,-556.811"/>
</g>
<!-- Node40 -->
<g id="node40" class="node"><title>Node40</title>
<g id="a_node40"><a xlink:href="../../dc/da8/classAnaModule.html#a815e50856d90a0bc816ad165bcf8d8f4" target="_top" target="_top" target="_top" xlink:title="AnaModule::set_output\l_filename">
<polygon fill="none" stroke="black" points="877.5,-747.473 877.5,-777.473 992.5,-777.473 992.5,-747.473 877.5,-747.473"/>
<text text-anchor="start" x="885.5" y="-765.473" font-family="FreeSans" font-size="10.00">AnaModule::set_output</text>
<text text-anchor="middle" x="935" y="-754.473" font-family="FreeSans" font-size="10.00">_filename</text>
</a>
</g>
</g>
<!-- Node17&#45;&gt;Node40 -->
<g id="edge50" class="edge"><title>Node17&#45;&gt;Node40</title>
<path fill="none" stroke="midnightblue" d="M740.933,-462.239C745.303,-502.507 767.358,-657.309 854,-737.473 858.139,-741.303 862.858,-744.546 867.886,-747.292"/>
<polygon fill="midnightblue" stroke="midnightblue" points="866.678,-750.593 877.213,-751.718 869.679,-744.269 866.678,-750.593"/>
</g>
<!-- Node41 -->
<g id="node41" class="node"><title>Node41</title>
<g id="a_node41"><a xlink:href="../../d0/da0/classGeomSvc.html#a5c51613529dae6339bb35eb99e81f758" target="_top" target="_top" target="_top" xlink:title="GeomSvc::UseDbSvc">
<polygon fill="none" stroke="black" points="880.5,-328.973 880.5,-347.973 989.5,-347.973 989.5,-328.973 880.5,-328.973"/>
<text text-anchor="middle" x="935" y="-335.973" font-family="FreeSans" font-size="10.00">GeomSvc::UseDbSvc</text>
</a>
</g>
</g>
<!-- Node17&#45;&gt;Node41 -->
<g id="edge51" class="edge"><title>Node17&#45;&gt;Node41</title>
<path fill="none" stroke="midnightblue" d="M748.681,-442.691C766.445,-423.307 809.073,-379.954 854,-357.473 859.234,-354.854 864.844,-352.587 870.574,-350.625"/>
<polygon fill="midnightblue" stroke="midnightblue" points="871.777,-353.917 880.287,-347.605 869.699,-347.232 871.777,-353.917"/>
</g>
<!-- Node42 -->
<g id="node42" class="node"><title>Node42</title>
<g id="a_node42"><a xlink:href="../../d5/dec/classFun4AllBase.html#a05da2261577843028cf78e99171343b9" target="_top" target="_top" target="_top" xlink:title="Sets the verbosity of this module (0 by default=quiet). ">
<polygon fill="none" stroke="black" points="877.5,-290.973 877.5,-309.973 992.5,-309.973 992.5,-290.973 877.5,-290.973"/>
<text text-anchor="middle" x="935" y="-297.973" font-family="FreeSans" font-size="10.00">Fun4AllBase::Verbosity</text>
</a>
</g>
</g>
<!-- Node17&#45;&gt;Node42 -->
<g id="edge52" class="edge"><title>Node17&#45;&gt;Node42</title>
<path fill="none" stroke="midnightblue" d="M745.227,-442.968C759.29,-418.336 800.515,-352.094 854,-319.473 858.197,-316.913 862.713,-314.699 867.385,-312.782"/>
<polygon fill="midnightblue" stroke="midnightblue" points="868.931,-315.945 877.144,-309.252 866.55,-309.362 868.931,-315.945"/>
</g>
<!-- Node19 -->
<g id="node19" class="node"><title>Node19</title>
<g id="a_node19"><a xlink:href="../../d5/de9/E1039Shielding_2ana_8C.html#a4770f9752bd2f6c264c3a5f0e5f07bf3" target="_top" target="_top" target="_top" xlink:title="drawSnglAccPz">
<polygon fill="none" stroke="red" points="1074.5,-518.973 1074.5,-537.973 1159.5,-537.973 1159.5,-518.973 1074.5,-518.973"/>
<text text-anchor="middle" x="1117" y="-525.973" font-family="FreeSans" font-size="10.00">drawSnglAccPz</text>
</a>
</g>
</g>
<!-- Node18&#45;&gt;Node19 -->
<g id="edge18" class="edge"><title>Node18&#45;&gt;Node19</title>
<path fill="none" stroke="midnightblue" d="M951.037,-528.473C975.702,-528.473 1025.87,-528.473 1064.43,-528.473"/>
<polygon fill="midnightblue" stroke="midnightblue" points="1064.47,-531.973 1074.47,-528.473 1064.47,-524.973 1064.47,-531.973"/>
</g>
<!-- Node21 -->
<g id="node21" class="node"><title>Node21</title>
<g id="a_node21"><a xlink:href="../../da/d29/classFun4AllServer.html#a53b1b6b338aa36891f2690a188920980" target="_top" target="_top" target="_top" xlink:title="Fun4AllServer::EndRun">
<polygon fill="none" stroke="black" points="1059,-310.973 1059,-329.973 1175,-329.973 1175,-310.973 1059,-310.973"/>
<text text-anchor="middle" x="1117" y="-317.973" font-family="FreeSans" font-size="10.00">Fun4AllServer::EndRun</text>
</a>
</g>
</g>
<!-- Node20&#45;&gt;Node21 -->
<g id="edge20" class="edge"><title>Node20&#45;&gt;Node21</title>
<path fill="none" stroke="midnightblue" d="M984.231,-409.24C995.374,-406.405 1006.68,-402.075 1016,-395.473 1040.14,-378.37 1028.34,-357.238 1052,-339.473 1054.51,-337.586 1057.21,-335.885 1060.03,-334.352"/>
<polygon fill="midnightblue" stroke="midnightblue" points="1061.77,-337.405 1069.35,-330.008 1058.81,-331.061 1061.77,-337.405"/>
</g>
<!-- Node22 -->
<g id="node22" class="node"><title>Node22</title>
<g id="a_node22"><a xlink:href="../../d5/d07/classPHNodeIterator.html#aea98bf8619af59b1212a94fb32106baa" target="_top" target="_top" target="_top" xlink:title="PHNodeIterator::findFirst">
<polygon fill="none" stroke="red" points="1056,-424.973 1056,-443.973 1178,-443.973 1178,-424.973 1056,-424.973"/>
<text text-anchor="middle" x="1117" y="-431.973" font-family="FreeSans" font-size="10.00">PHNodeIterator::findFirst</text>
</a>
</g>
</g>
<!-- Node20&#45;&gt;Node22 -->
<g id="edge21" class="edge"><title>Node20&#45;&gt;Node22</title>
<path fill="none" stroke="midnightblue" d="M984.237,-419.833C1003.12,-421.931 1025.15,-424.379 1045.74,-426.667"/>
<polygon fill="midnightblue" stroke="midnightblue" points="1045.38,-430.148 1055.71,-427.774 1046.16,-423.191 1045.38,-430.148"/>
</g>
<!-- Node23 -->
<g id="node23" class="node"><title>Node23</title>
<g id="a_node23"><a xlink:href="../../d1/da8/classPHFlag.html#a07899067141a5f12333cc37183caddc8" target="_top" target="_top" target="_top" xlink:title="PHFlag::get_IntFlag">
<polygon fill="none" stroke="black" points="1066,-348.973 1066,-367.973 1168,-367.973 1168,-348.973 1066,-348.973"/>
<text text-anchor="middle" x="1117" y="-355.973" font-family="FreeSans" font-size="10.00">PHFlag::get_IntFlag</text>
</a>
</g>
</g>
<!-- Node20&#45;&gt;Node23 -->
<g id="edge23" class="edge"><title>Node20&#45;&gt;Node23</title>
<path fill="none" stroke="midnightblue" d="M984.332,-404.892C994.904,-402.273 1005.94,-399.129 1016,-395.473 1032.81,-389.366 1035.36,-384.044 1052,-377.473 1057.8,-375.182 1063.99,-373.015 1070.15,-371.02"/>
<polygon fill="midnightblue" stroke="midnightblue" points="1071.24,-374.349 1079.74,-368.036 1069.16,-367.665 1071.24,-374.349"/>
</g>
<!-- Node20&#45;&gt;Node10 -->
<g id="edge24" class="edge"><title>Node20&#45;&gt;Node10</title>
<path fill="none" stroke="midnightblue" d="M984.011,-410.863C995.542,-408.019 1007.09,-403.278 1016,-395.473 1049.66,-366.004 1021.32,-334.037 1052,-301.473 1057.89,-295.219 1065.39,-290.211 1073.16,-286.237"/>
<polygon fill="midnightblue" stroke="midnightblue" points="1074.69,-289.383 1082.32,-282.034 1071.77,-283.02 1074.69,-289.383"/>
</g>
<!-- Node24 -->
<g id="node24" class="node"><title>Node24</title>
<g id="a_node24"><a xlink:href="../../da/d29/classFun4AllServer.html#a6f2074f451d0c0c1b4a802edde5ffb94" target="_top" target="_top" target="_top" xlink:title="Fun4AllServer::outfileclose">
<polygon fill="none" stroke="red" points="1052,-386.973 1052,-405.973 1182,-405.973 1182,-386.973 1052,-386.973"/>
<text text-anchor="middle" x="1117" y="-393.973" font-family="FreeSans" font-size="10.00">Fun4AllServer::outfileclose</text>
</a>
</g>
</g>
<!-- Node20&#45;&gt;Node24 -->
<g id="edge25" class="edge"><title>Node20&#45;&gt;Node24</title>
<path fill="none" stroke="midnightblue" d="M984.237,-409.65C1001.88,-407.885 1022.28,-405.845 1041.68,-403.905"/>
<polygon fill="midnightblue" stroke="midnightblue" points="1042.11,-407.38 1051.71,-402.902 1041.41,-400.414 1042.11,-407.38"/>
</g>
<!-- Node22&#45;&gt;Node22 -->
<g id="edge22" class="edge"><title>Node22&#45;&gt;Node22</title>
<path fill="none" stroke="midnightblue" d="M1092.03,-444.23C1079.88,-453.039 1088.21,-462.473 1117,-462.473 1136.35,-462.473 1146.45,-458.214 1147.31,-452.748"/>
<polygon fill="midnightblue" stroke="midnightblue" points="1150.25,-450.84 1141.97,-444.23 1144.32,-454.561 1150.25,-450.84"/>
</g>
<!-- Node26&#45;&gt;Node14 -->
<g id="edge28" class="edge"><title>Node26&#45;&gt;Node14</title>
<path fill="none" stroke="midnightblue" d="M1293.2,-822.95C1320.43,-803.3 1383.08,-758.1 1416.34,-734.103"/>
<polygon fill="midnightblue" stroke="midnightblue" points="1418.44,-736.901 1424.5,-728.211 1414.35,-731.224 1418.44,-736.901"/>
</g>
<!-- Node29 -->
<g id="node29" class="node"><title>Node29</title>
<g id="a_node29"><a xlink:href="../../d1/da8/classPHFlag.html#a22faecd438ab5934d1634d1dec80bbbc" target="_top" target="_top" target="_top" xlink:title="PHFlag::PrintCharFlags">
<polygon fill="none" stroke="black" points="1058.5,-708.973 1058.5,-727.973 1175.5,-727.973 1175.5,-708.973 1058.5,-708.973"/>
<text text-anchor="middle" x="1117" y="-715.973" font-family="FreeSans" font-size="10.00">PHFlag::PrintCharFlags</text>
</a>
</g>
</g>
<!-- Node28&#45;&gt;Node29 -->
<g id="edge33" class="edge"><title>Node28&#45;&gt;Node29</title>
<path fill="none" stroke="midnightblue" d="M979.573,-718.473C1000.15,-718.473 1025.18,-718.473 1048.16,-718.473"/>
<polygon fill="midnightblue" stroke="midnightblue" points="1048.2,-721.973 1058.2,-718.473 1048.2,-714.973 1048.2,-721.973"/>
</g>
<!-- Node30 -->
<g id="node30" class="node"><title>Node30</title>
<g id="a_node30"><a xlink:href="../../d1/da8/classPHFlag.html#ac342a6f0241b1db3bbf5cbb82635a572" target="_top" target="_top" target="_top" xlink:title="PHFlag::PrintFloatFlags">
<polygon fill="none" stroke="black" points="1057.5,-670.973 1057.5,-689.973 1176.5,-689.973 1176.5,-670.973 1057.5,-670.973"/>
<text text-anchor="middle" x="1117" y="-677.973" font-family="FreeSans" font-size="10.00">PHFlag::PrintFloatFlags</text>
</a>
</g>
</g>
<!-- Node28&#45;&gt;Node30 -->
<g id="edge34" class="edge"><title>Node28&#45;&gt;Node30</title>
<path fill="none" stroke="midnightblue" d="M979.573,-709.275C1004.01,-704.116 1034.73,-697.631 1060.82,-692.121"/>
<polygon fill="midnightblue" stroke="midnightblue" points="1061.89,-695.474 1070.95,-689.984 1060.44,-688.625 1061.89,-695.474"/>
</g>
<!-- Node31 -->
<g id="node31" class="node"><title>Node31</title>
<g id="a_node31"><a xlink:href="../../d1/da8/classPHFlag.html#a1ff4c6fb4381385006ee1a1a98127db5" target="_top" target="_top" target="_top" xlink:title="PHFlag::PrintDoubleFlags">
<polygon fill="none" stroke="black" points="1053.5,-822.973 1053.5,-841.973 1180.5,-841.973 1180.5,-822.973 1053.5,-822.973"/>
<text text-anchor="middle" x="1117" y="-829.973" font-family="FreeSans" font-size="10.00">PHFlag::PrintDoubleFlags</text>
</a>
</g>
</g>
<!-- Node28&#45;&gt;Node31 -->
<g id="edge35" class="edge"><title>Node28&#45;&gt;Node31</title>
<path fill="none" stroke="midnightblue" d="M979.863,-722.332C992.59,-725.225 1005.79,-730.149 1016,-738.473 1044.65,-761.841 1023.86,-789.486 1052,-813.473 1054.01,-815.184 1056.16,-816.741 1058.42,-818.157"/>
<polygon fill="midnightblue" stroke="midnightblue" points="1057.1,-821.417 1067.59,-822.955 1060.35,-815.216 1057.1,-821.417"/>
</g>
<!-- Node32 -->
<g id="node32" class="node"><title>Node32</title>
<g id="a_node32"><a xlink:href="../../d1/da8/classPHFlag.html#ad1b9a7480bf5f4c89b9d3c7a8bc0a80a" target="_top" target="_top" target="_top" xlink:title="PHFlag::PrintIntFlags">
<polygon fill="none" stroke="black" points="1063,-784.973 1063,-803.973 1171,-803.973 1171,-784.973 1063,-784.973"/>
<text text-anchor="middle" x="1117" y="-791.973" font-family="FreeSans" font-size="10.00">PHFlag::PrintIntFlags</text>
</a>
</g>
</g>
<!-- Node28&#45;&gt;Node32 -->
<g id="edge36" class="edge"><title>Node28&#45;&gt;Node32</title>
<path fill="none" stroke="midnightblue" d="M979.616,-724.791C991.921,-727.767 1004.96,-732.12 1016,-738.473 1035.89,-749.914 1032.37,-763.602 1052,-775.473 1055.57,-777.632 1059.4,-779.56 1063.35,-781.278"/>
<polygon fill="midnightblue" stroke="midnightblue" points="1062.12,-784.556 1072.71,-784.919 1064.66,-778.032 1062.12,-784.556"/>
</g>
<!-- Node33 -->
<g id="node33" class="node"><title>Node33</title>
<g id="a_node33"><a xlink:href="../../d1/da8/classPHFlag.html#a982354b034569d3d6bc464acc3ec1359" target="_top" target="_top" target="_top" xlink:title="PHFlag::PrintBoolFlags">
<polygon fill="none" stroke="black" points="1059,-746.973 1059,-765.973 1175,-765.973 1175,-746.973 1059,-746.973"/>
<text text-anchor="middle" x="1117" y="-753.973" font-family="FreeSans" font-size="10.00">PHFlag::PrintBoolFlags</text>
</a>
</g>
</g>
<!-- Node28&#45;&gt;Node33 -->
<g id="edge37" class="edge"><title>Node28&#45;&gt;Node33</title>
<path fill="none" stroke="midnightblue" d="M979.573,-727.672C1004.01,-732.83 1034.73,-739.315 1060.82,-744.825"/>
<polygon fill="midnightblue" stroke="midnightblue" points="1060.44,-748.321 1070.95,-746.962 1061.89,-741.472 1060.44,-748.321"/>
</g>
<!-- Node36 -->
<g id="node36" class="node"><title>Node36</title>
<g id="a_node36"><a xlink:href="../../d0/da0/classGeomSvc.html#a3e4f40789e9b2a98477ab8e8191d5ff2" target="_top" target="_top" target="_top" xlink:title="Get the plane position. ">
<polygon fill="none" stroke="black" points="1055,-632.973 1055,-651.973 1179,-651.973 1179,-632.973 1055,-632.973"/>
<text text-anchor="middle" x="1117" y="-639.973" font-family="FreeSans" font-size="10.00">GeomSvc::getDetectorID</text>
</a>
</g>
</g>
<!-- Node35&#45;&gt;Node36 -->
<g id="edge40" class="edge"><title>Node35&#45;&gt;Node36</title>
<path fill="none" stroke="midnightblue" d="M1004.05,-642.473C1017.38,-642.473 1031.39,-642.473 1044.82,-642.473"/>
<polygon fill="midnightblue" stroke="midnightblue" points="1044.95,-645.973 1054.95,-642.473 1044.95,-638.973 1044.95,-645.973"/>
</g>
<!-- Node38&#45;&gt;Node27 -->
<g id="edge43" class="edge"><title>Node38&#45;&gt;Node27</title>
<path fill="none" stroke="midnightblue" d="M981.422,-462.062C1005.6,-467.167 1035.53,-473.485 1061.01,-478.865"/>
<polygon fill="midnightblue" stroke="midnightblue" points="1060.4,-482.312 1070.91,-480.953 1061.84,-475.463 1060.4,-482.312"/>
</g>
<!-- Node39&#45;&gt;Node21 -->
<g id="edge45" class="edge"><title>Node39&#45;&gt;Node21</title>
<path fill="none" stroke="midnightblue" d="M982.645,-367.306C993.724,-364.607 1005.4,-361.323 1016,-357.473 1032.81,-351.366 1035.36,-346.044 1052,-339.473 1057.8,-337.182 1063.99,-335.015 1070.15,-333.02"/>
<polygon fill="midnightblue" stroke="midnightblue" points="1071.24,-336.349 1079.74,-330.036 1069.16,-329.665 1071.24,-336.349"/>
</g>
<!-- Node39&#45;&gt;Node23 -->
<g id="edge46" class="edge"><title>Node39&#45;&gt;Node23</title>
<path fill="none" stroke="midnightblue" d="M982.823,-371.791C1005.15,-369.558 1032.13,-366.86 1055.95,-364.478"/>
<polygon fill="midnightblue" stroke="midnightblue" points="1056.34,-367.957 1065.94,-363.479 1055.64,-360.991 1056.34,-367.957"/>
</g>
<!-- Node39&#45;&gt;Node10 -->
<g id="edge47" class="edge"><title>Node39&#45;&gt;Node10</title>
<path fill="none" stroke="midnightblue" d="M982.561,-371.655C994.238,-368.833 1006.22,-364.405 1016,-357.473 1040.14,-340.37 1029.61,-320.815 1052,-301.473 1059.12,-295.324 1067.75,-290.249 1076.35,-286.158"/>
<polygon fill="midnightblue" stroke="midnightblue" points="1077.84,-289.327 1085.58,-282.1 1075.02,-282.918 1077.84,-289.327"/>
</g>
<!-- Node48 -->
<g id="node48" class="node"><title>Node48</title>
<g id="a_node48"><a xlink:href="../../d0/da0/classGeomSvc.html#a64fde7dce7f3df7cf534796d7da4ecdb" target="_top" target="_top" target="_top" xlink:title="GeomSvc::getDetectorName">
<polygon fill="none" stroke="black" points="669,-164.973 669,-183.973 809,-183.973 809,-164.973 669,-164.973"/>
<text text-anchor="middle" x="739" y="-171.973" font-family="FreeSans" font-size="10.00">GeomSvc::getDetectorName</text>
</a>
</g>
</g>
<!-- Node47&#45;&gt;Node48 -->
<g id="edge59" class="edge"><title>Node47&#45;&gt;Node48</title>
<path fill="none" stroke="midnightblue" d="M611.003,-174.473C626.245,-174.473 642.73,-174.473 658.616,-174.473"/>
<polygon fill="midnightblue" stroke="midnightblue" points="658.95,-177.973 668.95,-174.473 658.95,-170.973 658.95,-177.973"/>
</g>
<!-- Node50&#45;&gt;Node49 -->
<g id="edge62" class="edge"><title>Node50&#45;&gt;Node49</title>
<path fill="none" stroke="midnightblue" d="M595.945,-88.8843C621.582,-83.7568 653.336,-77.406 680.316,-72.0101"/>
<polygon fill="midnightblue" stroke="midnightblue" points="681.28,-75.3866 690.4,-69.9933 679.908,-68.5225 681.28,-75.3866"/>
</g>
</g>
</svg>
