<?xml version="1.0" encoding="UTF-8" standalone="no"?>
<!DOCTYPE svg PUBLIC "-//W3C//DTD SVG 1.1//EN"
 "http://www.w3.org/Graphics/SVG/1.1/DTD/svg11.dtd">
<!-- Generated by graphviz version 2.30.1 (20180413.0232)
 -->
<!-- Title: EvtDispFilter Pages: 1 -->
<svg width="250pt" height="292pt"
 viewBox="0.00 0.00 250.00 292.00" xmlns="http://www.w3.org/2000/svg" xmlns:xlink="http://www.w3.org/1999/xlink">
<g id="graph0" class="graph" transform="scale(1 1) rotate(0) translate(4 288)">
<title>EvtDispFilter</title>
<!-- Node1 -->
<g id="node1" class="node"><title>Node1</title>
<polygon fill="#bfbfbf" stroke="black" points="90.5,-0.5 90.5,-19.5 161.5,-19.5 161.5,-0.5 90.5,-0.5"/>
<text text-anchor="middle" x="126" y="-7.5" font-family="FreeSans" font-size="10.00">EvtDispFilter</text>
</g>
<!-- Node2 -->
<g id="node2" class="node"><title>Node2</title>
<g id="a_node2"><a xlink:href="../../d0/d32/classSubsysReco.html" target="_top" xlink:title="SubsysReco">
<polygon fill="none" stroke="black" points="10,-68.5 10,-87.5 80,-87.5 80,-68.5 10,-68.5"/>
<text text-anchor="middle" x="45" y="-75.5" font-family="FreeSans" font-size="10.00">SubsysReco</text>
</a>
</g>
</g>
<!-- Node2&#45;&gt;Node1 -->
<g id="edge1" class="edge"><title>Node2&#45;&gt;Node1</title>
<path fill="none" stroke="midnightblue" d="M63.7352,-61.7343C79.7802,-48.6606 102.309,-30.3039 115.408,-19.6305"/>
<polygon fill="midnightblue" stroke="midnightblue" points="61.1308,-59.3416 55.5893,-68.3717 65.5526,-64.7682 61.1308,-59.3416"/>
</g>
<!-- Node3 -->
<g id="node3" class="node"><title>Node3</title>
<g id="a_node3"><a xlink:href="../../d5/dec/classFun4AllBase.html" target="_top" xlink:title="Fun4AllBase">
<polygon fill="none" stroke="black" points="9.5,-126.5 9.5,-145.5 80.5,-145.5 80.5,-126.5 9.5,-126.5"/>
<text text-anchor="middle" x="45" y="-133.5" font-family="FreeSans" font-size="10.00">Fun4AllBase</text>
</a>
</g>
</g>
<!-- Node3&#45;&gt;Node2 -->
<g id="edge2" class="edge"><title>Node3&#45;&gt;Node2</title>
<path fill="none" stroke="midnightblue" d="M45,-115.953C45,-106.287 45,-95.0312 45,-87.5052"/>
<polygon fill="midnightblue" stroke="midnightblue" points="41.5001,-116.25 45,-126.25 48.5001,-116.25 41.5001,-116.25"/>
</g>
<!-- Node4 -->
<g id="node4" class="node"><title>Node4</title>
<g id="a_node4"><a xlink:title="STL class. ">
<polygon fill="none" stroke="#bfbfbf" points="16.5,-194.5 16.5,-213.5 73.5,-213.5 73.5,-194.5 16.5,-194.5"/>
<text text-anchor="middle" x="45" y="-201.5" font-family="FreeSans" font-size="10.00">std::string</text>
</a>
</g>
</g>
<!-- Node4&#45;&gt;Node3 -->
<g id="edge3" class="edge"><title>Node4&#45;&gt;Node3</title>
<path fill="none" stroke="#9a32cd" stroke-dasharray="5,2" d="M45,-184.041C45,-171.472 45,-155.563 45,-145.841"/>
<polygon fill="#9a32cd" stroke="#9a32cd" points="41.5001,-184.372 45,-194.372 48.5001,-184.372 41.5001,-184.372"/>
<text text-anchor="middle" x="68" y="-167.5" font-family="FreeSans" font-size="10.00"> ThisName</text>
</g>
<!-- Node5 -->
<g id="node5" class="node"><title>Node5</title>
<g id="a_node5"><a xlink:title="STL class. ">
<polygon fill="none" stroke="#bfbfbf" points="-0.5,-253 -0.5,-283 90.5,-283 90.5,-253 -0.5,-253"/>
<text text-anchor="start" x="7.5" y="-271" font-family="FreeSans" font-size="10.00">std::basic_string&lt;</text>
<text text-anchor="middle" x="45" y="-260" font-family="FreeSans" font-size="10.00"> char &gt;</text>
</a>
</g>
</g>
<!-- Node5&#45;&gt;Node4 -->
<g id="edge4" class="edge"><title>Node5&#45;&gt;Node4</title>
<path fill="none" stroke="midnightblue" d="M45,-242.871C45,-232.663 45,-221.408 45,-213.842"/>
<polygon fill="midnightblue" stroke="midnightblue" points="41.5001,-242.931 45,-252.931 48.5001,-242.931 41.5001,-242.931"/>
</g>
<!-- Node6 -->
<g id="node6" class="node"><title>Node6</title>
<g id="a_node6"><a xlink:href="../../d9/dd7/classSQEvent.html" target="_top" xlink:title="SQEvent">
<polygon fill="none" stroke="black" points="98.5,-68.5 98.5,-87.5 153.5,-87.5 153.5,-68.5 98.5,-68.5"/>
<text text-anchor="middle" x="126" y="-75.5" font-family="FreeSans" font-size="10.00">SQEvent</text>
</a>
</g>
</g>
<!-- Node6&#45;&gt;Node1 -->
<g id="edge5" class="edge"><title>Node6&#45;&gt;Node1</title>
<path fill="none" stroke="#9a32cd" stroke-dasharray="5,2" d="M126,-58.0413C126,-45.4724 126,-29.5631 126,-19.8411"/>
<polygon fill="#9a32cd" stroke="#9a32cd" points="122.5,-58.3716 126,-68.3717 129.5,-58.3717 122.5,-58.3716"/>
<text text-anchor="middle" x="148" y="-41.5" font-family="FreeSans" font-size="10.00"> m_sq_evt</text>
</g>
<!-- Node7 -->
<g id="node7" class="node"><title>Node7</title>
<g id="a_node7"><a xlink:href="../../d9/d24/classPHObject.html" target="_top" xlink:title="PHObject">
<polygon fill="none" stroke="black" points="109.5,-126.5 109.5,-145.5 168.5,-145.5 168.5,-126.5 109.5,-126.5"/>
<text text-anchor="middle" x="139" y="-133.5" font-family="FreeSans" font-size="10.00">PHObject</text>
</a>
</g>
</g>
<!-- Node7&#45;&gt;Node6 -->
<g id="edge6" class="edge"><title>Node7&#45;&gt;Node6</title>
<path fill="none" stroke="midnightblue" d="M134.651,-116.268C132.392,-106.533 129.741,-95.113 127.974,-87.5052"/>
<polygon fill="midnightblue" stroke="midnightblue" points="131.298,-117.301 136.969,-126.25 138.117,-115.718 131.298,-117.301"/>
</g>
<!-- Node9 -->
<g id="node9" class="node"><title>Node9</title>
<g id="a_node9"><a xlink:href="../../d9/dbc/classSQHitVector.html" target="_top" xlink:title="SQHitVector">
<polygon fill="none" stroke="black" points="171.5,-68.5 171.5,-87.5 242.5,-87.5 242.5,-68.5 171.5,-68.5"/>
<text text-anchor="middle" x="207" y="-75.5" font-family="FreeSans" font-size="10.00">SQHitVector</text>
</a>
</g>
</g>
<!-- Node7&#45;&gt;Node9 -->
<g id="edge9" class="edge"><title>Node7&#45;&gt;Node9</title>
<path fill="none" stroke="midnightblue" d="M157.335,-119.901C169.914,-109.541 186.154,-96.1671 196.575,-87.5852"/>
<polygon fill="midnightblue" stroke="midnightblue" points="154.822,-117.436 149.328,-126.495 159.272,-122.839 154.822,-117.436"/>
</g>
<!-- Node8 -->
<g id="node8" class="node"><title>Node8</title>
<polygon fill="none" stroke="#bfbfbf" points="113.5,-194.5 113.5,-213.5 164.5,-213.5 164.5,-194.5 113.5,-194.5"/>
<text text-anchor="middle" x="139" y="-201.5" font-family="FreeSans" font-size="10.00">TObject</text>
</g>
<!-- Node8&#45;&gt;Node7 -->
<g id="edge7" class="edge"><title>Node8&#45;&gt;Node7</title>
<path fill="none" stroke="midnightblue" d="M139,-184.041C139,-171.472 139,-155.563 139,-145.841"/>
<polygon fill="midnightblue" stroke="midnightblue" points="135.5,-184.372 139,-194.372 142.5,-184.372 135.5,-184.372"/>
</g>
<!-- Node9&#45;&gt;Node1 -->
<g id="edge8" class="edge"><title>Node9&#45;&gt;Node1</title>
<path fill="none" stroke="#9a32cd" stroke-dasharray="5,2" d="M195.151,-60.4516C189.322,-53.0261 181.864,-44.4963 174,-38 165.155,-30.6926 154.055,-24.3033 144.758,-19.5769"/>
<polygon fill="#9a32cd" stroke="#9a32cd" points="192.371,-62.5778 201.174,-68.4732 197.969,-58.3748 192.371,-62.5778"/>
<text text-anchor="middle" x="206.5" y="-41.5" font-family="FreeSans" font-size="10.00"> m_sq_hv</text>
</g>
</g>
</svg>
