<?xml version="1.0" encoding="UTF-8" standalone="no"?>
<!DOCTYPE svg PUBLIC "-//W3C//DTD SVG 1.1//EN"
 "http://www.w3.org/Graphics/SVG/1.1/DTD/svg11.dtd">
<!-- Generated by graphviz version 2.36.0 (20140111.2315)
 -->
<!-- Title: PHG4Hitv1::set_strip_y_index Pages: 1 -->
<svg width="432pt" height="38pt"
 viewBox="0.00 0.00 432.00 38.00" xmlns="http://www.w3.org/2000/svg" xmlns:xlink="http://www.w3.org/1999/xlink">
<g id="graph0" class="graph" transform="scale(1 1) rotate(0) translate(4 34)">
<title>PHG4Hitv1::set_strip_y_index</title>
<!-- Node1 -->
<g id="node1" class="node"><title>Node1</title>
<polygon fill="#bfbfbf" stroke="black" points="0.5,-0 0.5,-30 109.5,-30 109.5,-0 0.5,-0"/>
<text text-anchor="start" x="8.5" y="-18" font-family="FreeSans" font-size="10.00">PHG4Hitv1::set_strip</text>
<text text-anchor="middle" x="55" y="-7" font-family="FreeSans" font-size="10.00">_y_index</text>
</g>
<!-- Node2 -->
<g id="node2" class="node"><title>Node2</title>
<g id="a_node2"><a xlink:href="../../d9/d35/classPHG4Hitv1.html#a2e368cbc62c536203702a7f9835be77b" target="_top" xlink:title="PHG4Hitv1::set_property">
<polygon fill="none" stroke="black" points="146.5,-5.5 146.5,-24.5 271.5,-24.5 271.5,-5.5 146.5,-5.5"/>
<text text-anchor="middle" x="209" y="-12.5" font-family="FreeSans" font-size="10.00">PHG4Hitv1::set_property</text>
</a>
</g>
</g>
<!-- Node1&#45;&gt;Node2 -->
<g id="edge1" class="edge"><title>Node1&#45;&gt;Node2</title>
<path fill="none" stroke="midnightblue" d="M109.59,-15C118.222,-15 127.277,-15 136.253,-15"/>
<polygon fill="midnightblue" stroke="midnightblue" points="136.327,-18.5001 146.327,-15 136.327,-11.5001 136.327,-18.5001"/>
</g>
<!-- Node3 -->
<g id="node3" class="node"><title>Node3</title>
<g id="a_node3"><a xlink:href="../../d5/d0a/unionPHG4Hitv1_1_1u__property.html#ac456fc086e69bed874ad779a59ccab9b" target="_top" xlink:title="PHG4Hitv1::u_property\l::get_storage">
<polygon fill="none" stroke="black" points="308,-0 308,-30 424,-30 424,-0 308,-0"/>
<text text-anchor="start" x="316" y="-18" font-family="FreeSans" font-size="10.00">PHG4Hitv1::u_property</text>
<text text-anchor="middle" x="366" y="-7" font-family="FreeSans" font-size="10.00">::get_storage</text>
</a>
</g>
</g>
<!-- Node2&#45;&gt;Node3 -->
<g id="edge2" class="edge"><title>Node2&#45;&gt;Node3</title>
<path fill="none" stroke="midnightblue" d="M271.705,-15C280.261,-15 289.085,-15 297.736,-15"/>
<polygon fill="midnightblue" stroke="midnightblue" points="297.785,-18.5001 307.785,-15 297.785,-11.5001 297.785,-18.5001"/>
</g>
</g>
</svg>
