<?xml version="1.0" encoding="UTF-8" standalone="no"?>
<!DOCTYPE svg PUBLIC "-//W3C//DTD SVG 1.1//EN"
 "http://www.w3.org/Graphics/SVG/1.1/DTD/svg11.dtd">
<!-- Generated by graphviz version 2.44.0 (0)
 -->
<!-- Title: UtilSQHit::FindTriggerHitsFast Pages: 1 -->
<svg width="1530pt" height="636pt"
 viewBox="0.00 0.00 1530.00 636.00" xmlns="http://www.w3.org/2000/svg" xmlns:xlink="http://www.w3.org/1999/xlink">
<g id="graph0" class="graph" transform="scale(1 1) rotate(0) translate(4 632)">
<title>UtilSQHit::FindTriggerHitsFast</title>
<!-- Node1 -->
<g id="node1" class="node">
<title>Node1</title>
<g id="a_node1"><a xlink:title="Fast&#45;extract a set of trigger hits that are of the given detector (det_name).">
<polygon fill="#bfbfbf" stroke="black" points="0,-152.5 0,-171.5 160,-171.5 160,-152.5 0,-152.5"/>
<text text-anchor="middle" x="80" y="-159.5" font-family="FreeSans" font-size="10.00">UtilSQHit::FindTriggerHitsFast</text>
</a>
</g>
</g>
<!-- Node2 -->
<g id="node2" class="node">
<title>Node2</title>
<g id="a_node2"><a xlink:href="../../d0/da0/classGeomSvc.html#a126b64707cebd1ad3b2f00ebd6c178c4" target="_top" xlink:title="Get the plane position.">
<polygon fill="none" stroke="black" points="196,-171.5 196,-190.5 333,-190.5 333,-171.5 196,-171.5"/>
<text text-anchor="middle" x="264.5" y="-178.5" font-family="FreeSans" font-size="10.00">GeomSvc::getDetectorID</text>
</a>
</g>
</g>
<!-- Node1&#45;&gt;Node2 -->
<g id="edge1" class="edge">
<title>Node1&#45;&gt;Node2</title>
<path fill="none" stroke="midnightblue" d="M160.25,-170.25C168.66,-171.13 177.21,-172.02 185.61,-172.89"/>
<polygon fill="midnightblue" stroke="midnightblue" points="185.45,-176.39 195.75,-173.95 186.17,-169.43 185.45,-176.39"/>
</g>
<!-- Node3 -->
<g id="node3" class="node">
<title>Node3</title>
<g id="a_node3"><a xlink:href="../../d0/da0/classGeomSvc.html#a2b7ecf5467120206b9479654c48ad7c4" target="_top" xlink:title="singlton instance">
<polygon fill="none" stroke="black" points="209.5,-133.5 209.5,-152.5 319.5,-152.5 319.5,-133.5 209.5,-133.5"/>
<text text-anchor="middle" x="264.5" y="-140.5" font-family="FreeSans" font-size="10.00">GeomSvc::instance</text>
</a>
</g>
</g>
<!-- Node1&#45;&gt;Node3 -->
<g id="edge2" class="edge">
<title>Node1&#45;&gt;Node3</title>
<path fill="none" stroke="midnightblue" d="M160.25,-153.75C173.18,-152.4 186.43,-151.02 198.95,-149.72"/>
<polygon fill="midnightblue" stroke="midnightblue" points="199.68,-153.16 209.27,-148.65 198.96,-146.2 199.68,-153.16"/>
</g>
<!-- Node4 -->
<g id="node4" class="node">
<title>Node4</title>
<g id="a_node4"><a xlink:href="../../d0/da0/classGeomSvc.html#a96ec4efc82cbaed0b5623e4dd69385b6" target="_top" xlink:title="Initialization, either from MySQL or from ascii file.">
<polygon fill="none" stroke="black" points="369,-133.5 369,-152.5 454,-152.5 454,-133.5 369,-133.5"/>
<text text-anchor="middle" x="411.5" y="-140.5" font-family="FreeSans" font-size="10.00">GeomSvc::init</text>
</a>
</g>
</g>
<!-- Node3&#45;&gt;Node4 -->
<g id="edge3" class="edge">
<title>Node3&#45;&gt;Node4</title>
<path fill="none" stroke="midnightblue" d="M319.91,-143C332.59,-143 346.06,-143 358.63,-143"/>
<polygon fill="midnightblue" stroke="midnightblue" points="358.94,-146.5 368.94,-143 358.94,-139.5 358.94,-146.5"/>
</g>
<!-- Node5 -->
<g id="node5" class="node">
<title>Node5</title>
<g id="a_node5"><a xlink:href="../../d0/da0/classGeomSvc.html#adbe1473f9b3a8ff942da8d7d8ee28322" target="_top" xlink:title=" ">
<polygon fill="none" stroke="black" points="504.5,-361.5 504.5,-380.5 647.5,-380.5 647.5,-361.5 504.5,-361.5"/>
<text text-anchor="middle" x="576" y="-368.5" font-family="FreeSans" font-size="10.00">GeomSvc::initPlaneDbSvc</text>
</a>
</g>
</g>
<!-- Node4&#45;&gt;Node5 -->
<g id="edge4" class="edge">
<title>Node4&#45;&gt;Node5</title>
<path fill="none" stroke="midnightblue" d="M419.34,-152.63C432.83,-171.63 463.86,-215.32 490,-252 515.63,-287.96 545.66,-329.98 562.29,-353.23"/>
<polygon fill="midnightblue" stroke="midnightblue" points="559.5,-355.34 568.16,-361.44 565.19,-351.27 559.5,-355.34"/>
</g>
<!-- Node12 -->
<g id="node12" class="node">
<title>Node12</title>
<g id="a_node12"><a xlink:href="../../d8/d14/classrecoConsts.html#aea8535068aa74d8acf1f98e938a1ff85" target="_top" xlink:title=" ">
<polygon fill="none" stroke="black" points="730,-171.5 730,-190.5 848,-190.5 848,-171.5 730,-171.5"/>
<text text-anchor="middle" x="789" y="-178.5" font-family="FreeSans" font-size="10.00">recoConsts::instance</text>
</a>
</g>
</g>
<!-- Node4&#45;&gt;Node12 -->
<g id="edge37" class="edge">
<title>Node4&#45;&gt;Node12</title>
<path fill="none" stroke="midnightblue" d="M418.51,-152.58C429.94,-169.78 456.68,-205.39 490,-219 560.77,-247.91 586.87,-233.1 662,-219 678.87,-215.83 681.68,-210.33 698,-205 710.98,-200.76 725.2,-196.7 738.42,-193.17"/>
<polygon fill="midnightblue" stroke="midnightblue" points="739.51,-196.5 748.29,-190.58 737.73,-189.73 739.51,-196.5"/>
</g>
<!-- Node33 -->
<g id="node33" class="node">
<title>Node33</title>
<g id="a_node33"><a xlink:href="../../d0/da0/classGeomSvc.html#a0d550b9f787318d57cdae9db2d04d6fb" target="_top" xlink:title=" ">
<polygon fill="none" stroke="black" points="505.5,-190.5 505.5,-209.5 646.5,-209.5 646.5,-190.5 505.5,-190.5"/>
<text text-anchor="middle" x="576" y="-197.5" font-family="FreeSans" font-size="10.00">GeomSvc::initPlaneDirect</text>
</a>
</g>
</g>
<!-- Node4&#45;&gt;Node33 -->
<g id="edge35" class="edge">
<title>Node4&#45;&gt;Node33</title>
<path fill="none" stroke="midnightblue" d="M429.24,-152.65C444.6,-161.15 468.23,-173.35 490,-181 497.42,-183.61 505.34,-185.94 513.24,-188"/>
<polygon fill="midnightblue" stroke="midnightblue" points="512.66,-191.46 523.21,-190.47 514.34,-184.67 512.66,-191.46"/>
</g>
<!-- Node34 -->
<g id="node34" class="node">
<title>Node34</title>
<g id="a_node34"><a xlink:href="../../d0/da0/classGeomSvc.html#a0c78d3ac904cfbb367e96c73f176630d" target="_top" xlink:title=" ">
<polygon fill="none" stroke="black" points="513,-152.5 513,-171.5 639,-171.5 639,-152.5 513,-152.5"/>
<text text-anchor="middle" x="576" y="-159.5" font-family="FreeSans" font-size="10.00">GeomSvc::initWireLUT</text>
</a>
</g>
</g>
<!-- Node4&#45;&gt;Node34 -->
<g id="edge36" class="edge">
<title>Node4&#45;&gt;Node34</title>
<path fill="none" stroke="midnightblue" d="M454.35,-147.89C469.07,-149.61 486.06,-151.6 502.56,-153.53"/>
<polygon fill="midnightblue" stroke="midnightblue" points="502.41,-157.04 512.75,-154.72 503.23,-150.08 502.41,-157.04"/>
</g>
<!-- Node35 -->
<g id="node35" class="node">
<title>Node35</title>
<g id="a_node35"><a xlink:href="../../d0/da0/classGeomSvc.html#ab6c810e39b86ce66a4be6a596b4d54b8" target="_top" xlink:title=" ">
<polygon fill="none" stroke="black" points="506,-114.5 506,-133.5 646,-133.5 646,-114.5 506,-114.5"/>
<text text-anchor="middle" x="576" y="-121.5" font-family="FreeSans" font-size="10.00">GeomSvc::loadAlignment</text>
</a>
</g>
</g>
<!-- Node4&#45;&gt;Node35 -->
<g id="edge38" class="edge">
<title>Node4&#45;&gt;Node35</title>
<path fill="none" stroke="midnightblue" d="M454.35,-138.11C466.98,-136.63 481.3,-134.96 495.54,-133.29"/>
<polygon fill="midnightblue" stroke="midnightblue" points="496.35,-136.72 505.87,-132.08 495.53,-129.77 496.35,-136.72"/>
</g>
<!-- Node36 -->
<g id="node36" class="node">
<title>Node36</title>
<g id="a_node36"><a xlink:href="../../d0/da0/classGeomSvc.html#abc60088ed5985a796f5df18ae4299661" target="_top" xlink:title=" ">
<polygon fill="none" stroke="black" points="504.5,-76.5 504.5,-95.5 647.5,-95.5 647.5,-76.5 504.5,-76.5"/>
<text text-anchor="middle" x="576" y="-83.5" font-family="FreeSans" font-size="10.00">GeomSvc::loadCalibration</text>
</a>
</g>
</g>
<!-- Node4&#45;&gt;Node36 -->
<g id="edge39" class="edge">
<title>Node4&#45;&gt;Node36</title>
<path fill="none" stroke="midnightblue" d="M429.24,-133.35C444.6,-124.85 468.23,-112.65 490,-105 497.42,-102.39 505.34,-100.06 513.24,-98"/>
<polygon fill="midnightblue" stroke="midnightblue" points="514.34,-101.33 523.21,-95.53 512.66,-94.54 514.34,-101.33"/>
</g>
<!-- Node38 -->
<g id="node38" class="node">
<title>Node38</title>
<g id="a_node38"><a xlink:href="../../d0/da0/classGeomSvc.html#a418543d7b33fc95092b2cd4a7496f1b8" target="_top" xlink:title=" ">
<polygon fill="none" stroke="black" points="707,-19.5 707,-38.5 871,-38.5 871,-19.5 707,-19.5"/>
<text text-anchor="middle" x="789" y="-26.5" font-family="FreeSans" font-size="10.00">GeomSvc::loadMilleAlignment</text>
</a>
</g>
</g>
<!-- Node4&#45;&gt;Node38 -->
<g id="edge41" class="edge">
<title>Node4&#45;&gt;Node38</title>
<path fill="none" stroke="midnightblue" d="M419.06,-133.3C430.98,-116.55 457.95,-82.53 490,-67 525.41,-49.84 622.62,-39.71 696.47,-34.28"/>
<polygon fill="midnightblue" stroke="midnightblue" points="697,-37.75 706.72,-33.54 696.5,-30.77 697,-37.75"/>
</g>
<!-- Node39 -->
<g id="node39" class="node">
<title>Node39</title>
<g id="a_node39"><a xlink:href="../../d0/da0/classGeomSvc.html#a6234a9e4de78f5667104d23c8828b79f" target="_top" xlink:title="Load parameters used in the online&#45;alignment mode.">
<polygon fill="none" stroke="black" points="490,-0.5 490,-19.5 662,-19.5 662,-0.5 490,-0.5"/>
<text text-anchor="middle" x="576" y="-7.5" font-family="FreeSans" font-size="10.00">GeomSvc::loadOnlineAlignment</text>
</a>
</g>
</g>
<!-- Node4&#45;&gt;Node39 -->
<g id="edge42" class="edge">
<title>Node4&#45;&gt;Node39</title>
<path fill="none" stroke="midnightblue" d="M416.55,-133.48C426.09,-112.23 452.04,-60.75 490,-34 496.35,-29.53 503.5,-25.89 510.91,-22.92"/>
<polygon fill="midnightblue" stroke="midnightblue" points="512.15,-26.19 520.37,-19.52 509.78,-19.61 512.15,-26.19"/>
</g>
<!-- Node6 -->
<g id="node6" class="node">
<title>Node6</title>
<g id="a_node6"><a xlink:href="../../d1/da8/classPHFlag.html#a30692a93daeb85f72aa55375d41d4d1a" target="_top" xlink:title=" ">
<polygon fill="none" stroke="black" points="738,-475.5 738,-494.5 840,-494.5 840,-475.5 738,-475.5"/>
<text text-anchor="middle" x="789" y="-482.5" font-family="FreeSans" font-size="10.00">PHFlag::FlagExist</text>
</a>
</g>
</g>
<!-- Node5&#45;&gt;Node6 -->
<g id="edge5" class="edge">
<title>Node5&#45;&gt;Node6</title>
<path fill="none" stroke="midnightblue" d="M586.01,-380.56C604.84,-399.93 650.57,-443.85 698,-466 707.32,-470.35 717.65,-473.72 727.89,-476.32"/>
<polygon fill="midnightblue" stroke="midnightblue" points="727.11,-479.73 737.64,-478.58 728.69,-472.91 727.11,-479.73"/>
</g>
<!-- Node7 -->
<g id="node7" class="node">
<title>Node7</title>
<g id="a_node7"><a xlink:href="../../d1/da8/classPHFlag.html#a90dd6fab732973226112ede509be5743" target="_top" xlink:title=" ">
<polygon fill="none" stroke="black" points="728,-437.5 728,-456.5 850,-456.5 850,-437.5 728,-437.5"/>
<text text-anchor="middle" x="789" y="-444.5" font-family="FreeSans" font-size="10.00">PHFlag::get_CharFlag</text>
</a>
</g>
</g>
<!-- Node5&#45;&gt;Node7 -->
<g id="edge6" class="edge">
<title>Node5&#45;&gt;Node7</title>
<path fill="none" stroke="midnightblue" d="M594.11,-380.62C617.08,-393.17 659.48,-415.06 698,-428 705.94,-430.67 714.41,-433.04 722.85,-435.13"/>
<polygon fill="midnightblue" stroke="midnightblue" points="722.19,-438.57 732.72,-437.45 723.79,-431.75 722.19,-438.57"/>
</g>
<!-- Node8 -->
<g id="node8" class="node">
<title>Node8</title>
<g id="a_node8"><a xlink:href="../../d1/da8/classPHFlag.html#a9002aa5e5ee1ef0e76d65201d6056adf" target="_top" xlink:title=" ">
<polygon fill="none" stroke="black" points="733,-399.5 733,-418.5 845,-418.5 845,-399.5 733,-399.5"/>
<text text-anchor="middle" x="789" y="-406.5" font-family="FreeSans" font-size="10.00">PHFlag::get_IntFlag</text>
</a>
</g>
</g>
<!-- Node5&#45;&gt;Node8 -->
<g id="edge7" class="edge">
<title>Node5&#45;&gt;Node8</title>
<path fill="none" stroke="midnightblue" d="M629.97,-380.54C658.82,-385.73 694.7,-392.2 724.97,-397.65"/>
<polygon fill="midnightblue" stroke="midnightblue" points="724.54,-401.13 735.01,-399.46 725.79,-394.24 724.54,-401.13"/>
</g>
<!-- Node9 -->
<g id="node9" class="node">
<title>Node9</title>
<g id="a_node9"><a xlink:href="../../db/d8a/classRunParamBase.html#ac014950f30700976f97c094cd54feb27" target="_top" xlink:title=" ">
<polygon fill="none" stroke="black" points="716.5,-361.5 716.5,-380.5 861.5,-380.5 861.5,-361.5 716.5,-361.5"/>
<text text-anchor="middle" x="789" y="-368.5" font-family="FreeSans" font-size="10.00">RunParamBase::GetMapID</text>
</a>
</g>
</g>
<!-- Node5&#45;&gt;Node9 -->
<g id="edge8" class="edge">
<title>Node5&#45;&gt;Node9</title>
<path fill="none" stroke="midnightblue" d="M647.55,-371C666.43,-371 686.98,-371 706.4,-371"/>
<polygon fill="midnightblue" stroke="midnightblue" points="706.43,-374.5 716.43,-371 706.43,-367.5 706.43,-374.5"/>
</g>
<!-- Node10 -->
<g id="node10" class="node">
<title>Node10</title>
<g id="a_node10"><a xlink:href="../../d1/d3b/classGeomParamPlane.html#a692de0076f1dbe125d7ba8cfc013b2bd" target="_top" xlink:title=" ">
<polygon fill="none" stroke="black" points="698,-323.5 698,-342.5 880,-342.5 880,-323.5 698,-323.5"/>
<text text-anchor="middle" x="789" y="-330.5" font-family="FreeSans" font-size="10.00">GeomParamPlane::GetNumPlanes</text>
</a>
</g>
</g>
<!-- Node5&#45;&gt;Node10 -->
<g id="edge9" class="edge">
<title>Node5&#45;&gt;Node10</title>
<path fill="none" stroke="midnightblue" d="M629.97,-361.46C658.82,-356.27 694.7,-349.8 724.97,-344.35"/>
<polygon fill="midnightblue" stroke="midnightblue" points="725.79,-347.76 735.01,-342.54 724.54,-340.87 725.79,-347.76"/>
</g>
<!-- Node11 -->
<g id="node11" class="node">
<title>Node11</title>
<g id="a_node11"><a xlink:href="../../d1/d3b/classGeomParamPlane.html#a8c176df7c57af3b0e4f35edee8ee0898" target="_top" xlink:title=" ">
<polygon fill="none" stroke="black" points="712,-285.5 712,-304.5 866,-304.5 866,-285.5 712,-285.5"/>
<text text-anchor="middle" x="789" y="-292.5" font-family="FreeSans" font-size="10.00">GeomParamPlane::GetPlane</text>
</a>
</g>
</g>
<!-- Node5&#45;&gt;Node11 -->
<g id="edge10" class="edge">
<title>Node5&#45;&gt;Node11</title>
<path fill="none" stroke="midnightblue" d="M594.11,-361.38C617.08,-348.83 659.48,-326.94 698,-314 705.94,-311.33 714.41,-308.96 722.85,-306.87"/>
<polygon fill="midnightblue" stroke="midnightblue" points="723.79,-310.25 732.72,-304.55 722.19,-303.43 723.79,-310.25"/>
</g>
<!-- Node5&#45;&gt;Node12 -->
<g id="edge11" class="edge">
<title>Node5&#45;&gt;Node12</title>
<path fill="none" stroke="midnightblue" d="M583.94,-361.29C609.07,-326.19 693.99,-207.75 698,-205 704.73,-200.39 712.31,-196.66 720.14,-193.65"/>
<polygon fill="midnightblue" stroke="midnightblue" points="721.46,-196.89 729.77,-190.32 719.17,-190.28 721.46,-196.89"/>
</g>
<!-- Node16 -->
<g id="node16" class="node">
<title>Node16</title>
<g id="a_node16"><a xlink:href="../../d8/d14/classrecoConsts.html#aec7c7c885b190f7dbb57ac99af4587e6" target="_top" xlink:title="overide the virtual function to expand the environmental variables">
<polygon fill="none" stroke="black" points="1141,-209.5 1141,-228.5 1281,-228.5 1281,-209.5 1141,-209.5"/>
<text text-anchor="middle" x="1211" y="-216.5" font-family="FreeSans" font-size="10.00">recoConsts::set_CharFlag</text>
</a>
</g>
</g>
<!-- Node5&#45;&gt;Node16 -->
<g id="edge25" class="edge">
<title>Node5&#45;&gt;Node16</title>
<path fill="none" stroke="midnightblue" d="M582.81,-361.23C598.04,-336.67 641.85,-272.49 698,-247 772.9,-213 1006.48,-213.5 1130.61,-216.4"/>
<polygon fill="midnightblue" stroke="midnightblue" points="1130.73,-219.91 1140.81,-216.65 1130.9,-212.91 1130.73,-219.91"/>
</g>
<!-- Node20 -->
<g id="node20" class="node">
<title>Node20</title>
<g id="a_node20"><a xlink:href="../../db/d8a/classRunParamBase.html#a1a747ac4d6e1c3665d66f9a1d5118f32" target="_top" xlink:title=" ">
<polygon fill="none" stroke="black" points="922.5,-456.5 922.5,-475.5 1082.5,-475.5 1082.5,-456.5 922.5,-456.5"/>
<text text-anchor="middle" x="1002.5" y="-463.5" font-family="FreeSans" font-size="10.00">RunParamBase::ReadFromDB</text>
</a>
</g>
</g>
<!-- Node5&#45;&gt;Node20 -->
<g id="edge19" class="edge">
<title>Node5&#45;&gt;Node20</title>
<path fill="none" stroke="midnightblue" d="M585.12,-361.24C602.97,-340.66 648.02,-293.28 698,-276 774.45,-249.57 809.05,-237.15 880,-276 947.64,-313.03 983.11,-405.53 995.88,-446.24"/>
<polygon fill="midnightblue" stroke="midnightblue" points="992.6,-447.48 998.83,-456.05 999.31,-445.47 992.6,-447.48"/>
</g>
<!-- Node26 -->
<g id="node26" class="node">
<title>Node26</title>
<g id="a_node26"><a xlink:href="../../db/d8a/classRunParamBase.html#a0db5424bf8320bf32d14563a6ad8d28e" target="_top" xlink:title=" ">
<polygon fill="none" stroke="black" points="717.5,-551.5 717.5,-570.5 860.5,-570.5 860.5,-551.5 717.5,-551.5"/>
<text text-anchor="middle" x="789" y="-558.5" font-family="FreeSans" font-size="10.00">RunParamBase::SetMapID</text>
</a>
</g>
</g>
<!-- Node5&#45;&gt;Node26 -->
<g id="edge26" class="edge">
<title>Node5&#45;&gt;Node26</title>
<path fill="none" stroke="midnightblue" d="M580.78,-380.66C592.87,-410.17 633.57,-499.65 698,-542 701.12,-544.05 704.42,-545.88 707.84,-547.53"/>
<polygon fill="midnightblue" stroke="midnightblue" points="706.57,-550.79 717.14,-551.43 709.28,-544.33 706.57,-550.79"/>
</g>
<!-- Node27 -->
<g id="node27" class="node">
<title>Node27</title>
<g id="a_node27"><a xlink:href="../../db/d8a/classRunParamBase.html#a9b35f11ddb755a62b5d25f7773e0f1ce" target="_top" xlink:title=" ">
<polygon fill="none" stroke="black" points="704,-589.5 704,-608.5 874,-608.5 874,-589.5 704,-589.5"/>
<text text-anchor="middle" x="789" y="-596.5" font-family="FreeSans" font-size="10.00">RunParamBase::SetMapIDbyDB</text>
</a>
</g>
</g>
<!-- Node5&#45;&gt;Node27 -->
<g id="edge27" class="edge">
<title>Node5&#45;&gt;Node27</title>
<path fill="none" stroke="midnightblue" d="M579.57,-380.82C588.94,-414.6 624.66,-526.86 698,-580 700.57,-581.86 703.28,-583.55 706.1,-585.08"/>
<polygon fill="midnightblue" stroke="midnightblue" points="704.86,-588.36 715.41,-589.43 707.83,-582.02 704.86,-588.36"/>
</g>
<!-- Node32 -->
<g id="node32" class="node">
<title>Node32</title>
<g id="a_node32"><a xlink:href="../../d0/da0/classGeomSvc.html#a315e886f05db8254ed7d320706e268e6" target="_top" xlink:title="Convert the official detectorName to local detectorName.">
<polygon fill="none" stroke="black" points="701,-513.5 701,-532.5 877,-532.5 877,-513.5 701,-513.5"/>
<text text-anchor="middle" x="789" y="-520.5" font-family="FreeSans" font-size="10.00">GeomSvc::toLocalDetectorName</text>
</a>
</g>
</g>
<!-- Node5&#45;&gt;Node32 -->
<g id="edge34" class="edge">
<title>Node5&#45;&gt;Node32</title>
<path fill="none" stroke="midnightblue" d="M582.66,-380.58C597.85,-405.39 642.21,-472.03 698,-504 701.93,-506.25 706.08,-508.23 710.38,-509.98"/>
<polygon fill="midnightblue" stroke="midnightblue" points="709.35,-513.34 719.95,-513.45 711.74,-506.75 709.35,-513.34"/>
</g>
<!-- Node13 -->
<g id="node13" class="node">
<title>Node13</title>
<g id="a_node13"><a xlink:href="../../d8/d14/classrecoConsts.html#ae882d6adc62f783ec78114fe3dee3c24" target="_top" xlink:title=" ">
<polygon fill="none" stroke="black" points="937,-171.5 937,-190.5 1068,-190.5 1068,-171.5 937,-171.5"/>
<text text-anchor="middle" x="1002.5" y="-178.5" font-family="FreeSans" font-size="10.00">recoConsts::recoConsts</text>
</a>
</g>
</g>
<!-- Node12&#45;&gt;Node13 -->
<g id="edge12" class="edge">
<title>Node12&#45;&gt;Node13</title>
<path fill="none" stroke="midnightblue" d="M848.07,-181C872.36,-181 900.9,-181 926.73,-181"/>
<polygon fill="midnightblue" stroke="midnightblue" points="926.86,-184.5 936.86,-181 926.86,-177.5 926.86,-184.5"/>
</g>
<!-- Node14 -->
<g id="node14" class="node">
<title>Node14</title>
<g id="a_node14"><a xlink:href="../../d8/d14/classrecoConsts.html#a864b1da9614924988d09542c268c42dc" target="_top" xlink:title="set the default value for all the constants needed &#45; user is supposed to add a default value here to ...">
<polygon fill="none" stroke="black" points="934,-133.5 934,-152.5 1071,-152.5 1071,-133.5 934,-133.5"/>
<text text-anchor="middle" x="1002.5" y="-140.5" font-family="FreeSans" font-size="10.00">recoConsts::set_defaults</text>
</a>
</g>
</g>
<!-- Node12&#45;&gt;Node14 -->
<g id="edge13" class="edge">
<title>Node12&#45;&gt;Node14</title>
<path fill="none" stroke="midnightblue" d="M843.1,-171.46C872.01,-166.27 907.97,-159.8 938.32,-154.35"/>
<polygon fill="midnightblue" stroke="midnightblue" points="939.16,-157.76 948.38,-152.54 937.92,-150.87 939.16,-157.76"/>
</g>
<!-- Node15 -->
<g id="node15" class="node">
<title>Node15</title>
<g id="a_node15"><a xlink:href="../../d1/da8/classPHFlag.html#a5aaf1fedd8907f4b2b0c9535a4491f42" target="_top" xlink:title=" ">
<polygon fill="none" stroke="black" points="1151,-171.5 1151,-190.5 1271,-190.5 1271,-171.5 1151,-171.5"/>
<text text-anchor="middle" x="1211" y="-178.5" font-family="FreeSans" font-size="10.00">PHFlag::set_BoolFlag</text>
</a>
</g>
</g>
<!-- Node14&#45;&gt;Node15 -->
<g id="edge14" class="edge">
<title>Node14&#45;&gt;Node15</title>
<path fill="none" stroke="midnightblue" d="M1055.34,-152.54C1083.45,-157.71 1118.38,-164.14 1147.93,-169.58"/>
<polygon fill="midnightblue" stroke="midnightblue" points="1147.67,-173.09 1158.14,-171.46 1148.94,-166.2 1147.67,-173.09"/>
</g>
<!-- Node14&#45;&gt;Node16 -->
<g id="edge15" class="edge">
<title>Node14&#45;&gt;Node16</title>
<path fill="none" stroke="midnightblue" d="M1066.74,-152.54C1074.51,-155 1082.12,-158.1 1089,-162 1109.24,-173.47 1104.77,-188.52 1125,-200 1128.95,-202.24 1133.15,-204.22 1137.48,-205.97"/>
<polygon fill="midnightblue" stroke="midnightblue" points="1136.53,-209.34 1147.12,-209.43 1138.89,-202.76 1136.53,-209.34"/>
</g>
<!-- Node18 -->
<g id="node18" class="node">
<title>Node18</title>
<g id="a_node18"><a xlink:href="../../d1/da8/classPHFlag.html#a64f8c67e9313e5cecdbed51f747026da" target="_top" xlink:title=" ">
<polygon fill="none" stroke="black" points="1144.5,-133.5 1144.5,-152.5 1277.5,-152.5 1277.5,-133.5 1144.5,-133.5"/>
<text text-anchor="middle" x="1211" y="-140.5" font-family="FreeSans" font-size="10.00">PHFlag::set_DoubleFlag</text>
</a>
</g>
</g>
<!-- Node14&#45;&gt;Node18 -->
<g id="edge17" class="edge">
<title>Node14&#45;&gt;Node18</title>
<path fill="none" stroke="midnightblue" d="M1071.12,-143C1091.33,-143 1113.63,-143 1134.33,-143"/>
<polygon fill="midnightblue" stroke="midnightblue" points="1134.34,-146.5 1144.34,-143 1134.34,-139.5 1134.34,-146.5"/>
</g>
<!-- Node19 -->
<g id="node19" class="node">
<title>Node19</title>
<g id="a_node19"><a xlink:href="../../d1/da8/classPHFlag.html#a3ef5c3f1eff2daaaf18e5129858a9ef8" target="_top" xlink:title=" ">
<polygon fill="none" stroke="black" points="1155.5,-95.5 1155.5,-114.5 1266.5,-114.5 1266.5,-95.5 1155.5,-95.5"/>
<text text-anchor="middle" x="1211" y="-102.5" font-family="FreeSans" font-size="10.00">PHFlag::set_IntFlag</text>
</a>
</g>
</g>
<!-- Node14&#45;&gt;Node19 -->
<g id="edge18" class="edge">
<title>Node14&#45;&gt;Node19</title>
<path fill="none" stroke="midnightblue" d="M1055.34,-133.46C1083.45,-128.29 1118.38,-121.86 1147.93,-116.42"/>
<polygon fill="midnightblue" stroke="midnightblue" points="1148.94,-119.8 1158.14,-114.54 1147.67,-112.91 1148.94,-119.8"/>
</g>
<!-- Node17 -->
<g id="node17" class="node">
<title>Node17</title>
<g id="a_node17"><a xlink:href="../../d8/d14/classrecoConsts.html#ad45c452d9a71b5410c472614d72442ec" target="_top" xlink:title=" ">
<polygon fill="none" stroke="black" points="1333,-209.5 1333,-228.5 1522,-228.5 1522,-209.5 1333,-209.5"/>
<text text-anchor="middle" x="1427.5" y="-216.5" font-family="FreeSans" font-size="10.00">recoConsts::ExpandEnvironmentals</text>
</a>
</g>
</g>
<!-- Node16&#45;&gt;Node17 -->
<g id="edge16" class="edge">
<title>Node16&#45;&gt;Node17</title>
<path fill="none" stroke="midnightblue" d="M1281.05,-219C1294.35,-219 1308.56,-219 1322.69,-219"/>
<polygon fill="midnightblue" stroke="midnightblue" points="1322.95,-222.5 1332.95,-219 1322.95,-215.5 1322.95,-222.5"/>
</g>
<!-- Node21 -->
<g id="node21" class="node">
<title>Node21</title>
<g id="a_node21"><a xlink:href="../../d2/da4/classDbSvc.html#af7e30673551b9cbc6d0ad9e37e4ec35b" target="_top" xlink:title=" ">
<polygon fill="none" stroke="black" points="1162,-551.5 1162,-570.5 1260,-570.5 1260,-551.5 1162,-551.5"/>
<text text-anchor="middle" x="1211" y="-558.5" font-family="FreeSans" font-size="10.00">DbSvc::HasTable</text>
</a>
</g>
</g>
<!-- Node20&#45;&gt;Node21 -->
<g id="edge20" class="edge">
<title>Node20&#45;&gt;Node21</title>
<path fill="none" stroke="midnightblue" d="M1017.5,-475.6C1044.41,-493.92 1102.67,-532.84 1125,-542 1133.53,-545.5 1142.81,-548.41 1152.01,-550.81"/>
<polygon fill="midnightblue" stroke="midnightblue" points="1151.37,-554.26 1161.92,-553.22 1153.03,-547.46 1151.37,-554.26"/>
</g>
<!-- Node22 -->
<g id="node22" class="node">
<title>Node22</title>
<g id="a_node22"><a xlink:href="../../db/d8a/classRunParamBase.html#ad9f709752d29d2a439deafc2663e78e4" target="_top" xlink:title=" ">
<polygon fill="none" stroke="black" points="1125,-437.5 1125,-456.5 1297,-456.5 1297,-437.5 1125,-437.5"/>
<text text-anchor="middle" x="1211" y="-444.5" font-family="FreeSans" font-size="10.00">RunParamBase::MapTableName</text>
</a>
</g>
</g>
<!-- Node20&#45;&gt;Node22 -->
<g id="edge21" class="edge">
<title>Node20&#45;&gt;Node22</title>
<path fill="none" stroke="midnightblue" d="M1082.75,-458.71C1093.18,-457.75 1103.95,-456.76 1114.61,-455.78"/>
<polygon fill="midnightblue" stroke="midnightblue" points="1115.15,-459.24 1124.79,-454.84 1114.51,-452.27 1115.15,-459.24"/>
</g>
<!-- Node23 -->
<g id="node23" class="node">
<title>Node23</title>
<g id="a_node23"><a xlink:href="../../db/d8a/classRunParamBase.html#abad1d51250d48280d4a72a64d6f57866" target="_top" xlink:title=" ">
<polygon fill="none" stroke="black" points="1131,-399.5 1131,-418.5 1291,-418.5 1291,-399.5 1131,-399.5"/>
<text text-anchor="middle" x="1211" y="-406.5" font-family="FreeSans" font-size="10.00">RunParamBase::ReadDbTable</text>
</a>
</g>
</g>
<!-- Node20&#45;&gt;Node23 -->
<g id="edge22" class="edge">
<title>Node20&#45;&gt;Node23</title>
<path fill="none" stroke="midnightblue" d="M1031.78,-456.42C1056.28,-448.3 1092.76,-436.63 1125,-428 1134.32,-425.5 1144.28,-423.07 1153.98,-420.83"/>
<polygon fill="midnightblue" stroke="midnightblue" points="1154.98,-424.19 1163.95,-418.56 1153.42,-417.36 1154.98,-424.19"/>
</g>
<!-- Node24 -->
<g id="node24" class="node">
<title>Node24</title>
<g id="a_node24"><a xlink:href="../../db/d8a/classRunParamBase.html#aa5d08eb3156c795dd3d09085a90d8629" target="_top" xlink:title=" ">
<polygon fill="none" stroke="black" points="1129,-475.5 1129,-494.5 1293,-494.5 1293,-475.5 1129,-475.5"/>
<text text-anchor="middle" x="1211" y="-482.5" font-family="FreeSans" font-size="10.00">RunParamBase::SchemaName</text>
</a>
</g>
</g>
<!-- Node20&#45;&gt;Node24 -->
<g id="edge23" class="edge">
<title>Node20&#45;&gt;Node24</title>
<path fill="none" stroke="midnightblue" d="M1082.75,-473.29C1094.57,-474.38 1106.83,-475.51 1118.87,-476.61"/>
<polygon fill="midnightblue" stroke="midnightblue" points="1118.63,-480.11 1128.91,-477.54 1119.28,-473.14 1118.63,-480.11"/>
</g>
<!-- Node25 -->
<g id="node25" class="node">
<title>Node25</title>
<g id="a_node25"><a xlink:href="../../d2/da4/classDbSvc.html#a7e4cc05e20e0a21eef9c185c34c51044" target="_top" xlink:title=" ">
<polygon fill="none" stroke="black" points="1155.5,-513.5 1155.5,-532.5 1266.5,-532.5 1266.5,-513.5 1155.5,-513.5"/>
<text text-anchor="middle" x="1211" y="-520.5" font-family="FreeSans" font-size="10.00">DbSvc::UseSchema</text>
</a>
</g>
</g>
<!-- Node20&#45;&gt;Node25 -->
<g id="edge24" class="edge">
<title>Node20&#45;&gt;Node25</title>
<path fill="none" stroke="midnightblue" d="M1031.78,-475.58C1056.28,-483.7 1092.76,-495.37 1125,-504 1134.32,-506.5 1144.28,-508.93 1153.98,-511.17"/>
<polygon fill="midnightblue" stroke="midnightblue" points="1153.42,-514.64 1163.95,-513.44 1154.98,-507.81 1153.42,-514.64"/>
</g>
<!-- Node28 -->
<g id="node28" class="node">
<title>Node28</title>
<g id="a_node28"><a xlink:href="../../d0/d0d/classParamRunRange.html#a6a2dad9dc6c5fe19ef4e07109f2de6c6" target="_top" xlink:title=" ">
<polygon fill="none" stroke="black" points="941,-532.5 941,-551.5 1064,-551.5 1064,-532.5 941,-532.5"/>
<text text-anchor="middle" x="1002.5" y="-539.5" font-family="FreeSans" font-size="10.00">ParamRunRange::Find</text>
</a>
</g>
</g>
<!-- Node27&#45;&gt;Node28 -->
<g id="edge28" class="edge">
<title>Node27&#45;&gt;Node28</title>
<path fill="none" stroke="midnightblue" d="M847.32,-589.39C858.32,-586.85 869.64,-583.75 880,-580 897.01,-573.85 899.02,-567.24 916,-561 923.05,-558.41 930.55,-556.11 938.08,-554.09"/>
<polygon fill="midnightblue" stroke="midnightblue" points="939.12,-557.44 947.96,-551.59 937.41,-550.65 939.12,-557.44"/>
</g>
<!-- Node29 -->
<g id="node29" class="node">
<title>Node29</title>
<g id="a_node29"><a xlink:href="../../db/d8a/classRunParamBase.html#aebc390d29c3083e39a226cce4293ac63" target="_top" xlink:title=" ">
<polygon fill="none" stroke="black" points="916,-608.5 916,-627.5 1089,-627.5 1089,-608.5 916,-608.5"/>
<text text-anchor="middle" x="1002.5" y="-615.5" font-family="FreeSans" font-size="10.00">RunParamBase::RangeFileName</text>
</a>
</g>
</g>
<!-- Node27&#45;&gt;Node29 -->
<g id="edge29" class="edge">
<title>Node27&#45;&gt;Node29</title>
<path fill="none" stroke="midnightblue" d="M874.2,-606.56C884.59,-607.5 895.26,-608.46 905.81,-609.4"/>
<polygon fill="midnightblue" stroke="midnightblue" points="905.59,-612.9 915.86,-610.31 906.22,-605.93 905.59,-612.9"/>
</g>
<!-- Node30 -->
<g id="node30" class="node">
<title>Node30</title>
<g id="a_node30"><a xlink:href="../../d0/d0d/classParamRunRange.html#a2ed6cb68949441b6a3a929fddd6c3910" target="_top" xlink:title=" ">
<polygon fill="none" stroke="black" points="919,-570.5 919,-589.5 1086,-589.5 1086,-570.5 919,-570.5"/>
<text text-anchor="middle" x="1002.5" y="-577.5" font-family="FreeSans" font-size="10.00">ParamRunRange::ReadFromDB</text>
</a>
</g>
</g>
<!-- Node27&#45;&gt;Node30 -->
<g id="edge30" class="edge">
<title>Node27&#45;&gt;Node30</title>
<path fill="none" stroke="midnightblue" d="M874.2,-591.44C885.6,-590.41 897.36,-589.36 908.9,-588.32"/>
<polygon fill="midnightblue" stroke="midnightblue" points="909.32,-591.79 918.97,-587.41 908.7,-584.82 909.32,-591.79"/>
</g>
<!-- Node30&#45;&gt;Node21 -->
<g id="edge31" class="edge">
<title>Node30&#45;&gt;Node21</title>
<path fill="none" stroke="midnightblue" d="M1086,-572.41C1108.01,-570.38 1131.33,-568.24 1151.74,-566.36"/>
<polygon fill="midnightblue" stroke="midnightblue" points="1152.17,-569.84 1161.81,-565.43 1151.53,-562.87 1152.17,-569.84"/>
</g>
<!-- Node30&#45;&gt;Node25 -->
<g id="edge33" class="edge">
<title>Node30&#45;&gt;Node25</title>
<path fill="none" stroke="midnightblue" d="M1057.04,-570.41C1067.78,-567.84 1078.87,-564.72 1089,-561 1105.98,-554.76 1108.02,-548.25 1125,-542 1132.18,-539.36 1139.85,-537.01 1147.53,-534.96"/>
<polygon fill="midnightblue" stroke="midnightblue" points="1148.39,-538.35 1157.22,-532.51 1146.67,-531.57 1148.39,-538.35"/>
</g>
<!-- Node31 -->
<g id="node31" class="node">
<title>Node31</title>
<g id="a_node31"><a xlink:href="../../d2/da4/classDbSvc.html#a5a73427afe9c0bd72d41b45e211ae187" target="_top" xlink:title=" ">
<polygon fill="none" stroke="black" points="1165.5,-589.5 1165.5,-608.5 1256.5,-608.5 1256.5,-589.5 1165.5,-589.5"/>
<text text-anchor="middle" x="1211" y="-596.5" font-family="FreeSans" font-size="10.00">DbSvc::Process</text>
</a>
</g>
</g>
<!-- Node30&#45;&gt;Node31 -->
<g id="edge32" class="edge">
<title>Node30&#45;&gt;Node31</title>
<path fill="none" stroke="midnightblue" d="M1086,-587.59C1109.27,-589.73 1134,-592.01 1155.21,-593.96"/>
<polygon fill="midnightblue" stroke="midnightblue" points="1155.04,-597.46 1165.31,-594.89 1155.68,-590.49 1155.04,-597.46"/>
</g>
<!-- Node37 -->
<g id="node37" class="node">
<title>Node37</title>
<g id="a_node37"><a xlink:href="../../d0/da0/classGeomSvc.html#ac4edd9b5679db2ac9b6f6bea59929447" target="_top" xlink:title=" ">
<polygon fill="none" stroke="black" points="711,-76.5 711,-95.5 867,-95.5 867,-76.5 711,-76.5"/>
<text text-anchor="middle" x="789" y="-83.5" font-family="FreeSans" font-size="10.00">GeomSvc::getDetectorName</text>
</a>
</g>
</g>
<!-- Node36&#45;&gt;Node37 -->
<g id="edge40" class="edge">
<title>Node36&#45;&gt;Node37</title>
<path fill="none" stroke="midnightblue" d="M647.55,-86C664.58,-86 682.97,-86 700.66,-86"/>
<polygon fill="midnightblue" stroke="midnightblue" points="700.98,-89.5 710.98,-86 700.98,-82.5 700.98,-89.5"/>
</g>
<!-- Node39&#45;&gt;Node38 -->
<g id="edge43" class="edge">
<title>Node39&#45;&gt;Node38</title>
<path fill="none" stroke="midnightblue" d="M662.21,-17.67C673.63,-18.7 685.37,-19.76 696.87,-20.79"/>
<polygon fill="midnightblue" stroke="midnightblue" points="696.64,-24.29 706.91,-21.7 697.27,-17.32 696.64,-24.29"/>
</g>
</g>
</svg>
