<?xml version="1.0" encoding="UTF-8" standalone="no"?>
<!DOCTYPE svg PUBLIC "-//W3C//DTD SVG 1.1//EN"
 "http://www.w3.org/Graphics/SVG/1.1/DTD/svg11.dtd">
<!-- Generated by graphviz version 2.44.0 (0)
 -->
<!-- Title: DbSvc::HasTable Pages: 1 -->
<svg width="1207pt" height="1007pt"
 viewBox="0.00 0.00 1207.00 1007.21" xmlns="http://www.w3.org/2000/svg" xmlns:xlink="http://www.w3.org/1999/xlink">
<g id="graph0" class="graph" transform="scale(1 1) rotate(0) translate(4 1003.21)">
<title>DbSvc::HasTable</title>
<!-- Node1 -->
<g id="node1" class="node">
<title>Node1</title>
<g id="a_node1"><a xlink:title=" ">
<polygon fill="#bfbfbf" stroke="black" points="1101,-467.71 1101,-486.71 1199,-486.71 1199,-467.71 1101,-467.71"/>
<text text-anchor="middle" x="1150" y="-474.71" font-family="FreeSans" font-size="10.00">DbSvc::HasTable</text>
</a>
</g>
</g>
<!-- Node2 -->
<g id="node2" class="node">
<title>Node2</title>
<g id="a_node2"><a xlink:href="../../d2/da4/classDbSvc.html#abc037dbd5084422aacdfa76bd0e8d2b7" target="_top" xlink:title=" ">
<polygon fill="none" stroke="black" points="926,-448.71 926,-467.71 1037,-467.71 1037,-448.71 926,-448.71"/>
<text text-anchor="middle" x="981.5" y="-455.71" font-family="FreeSans" font-size="10.00">DbSvc::CreateTable</text>
</a>
</g>
</g>
<!-- Node1&#45;&gt;Node2 -->
<g id="edge1" class="edge">
<title>Node1&#45;&gt;Node2</title>
<path fill="none" stroke="midnightblue" d="M1090.82,-470.57C1073.44,-468.59 1054.44,-466.42 1037.29,-464.46"/>
<polygon fill="midnightblue" stroke="midnightblue" points="1090.51,-474.06 1100.84,-471.72 1091.3,-467.11 1090.51,-474.06"/>
</g>
<!-- Node4 -->
<g id="node4" class="node">
<title>Node4</title>
<g id="a_node4"><a xlink:href="../../df/d00/classFun4AllSpillDstOutputManager.html#a268b34b19ed0375e00c552d88c780b4d" target="_top" xlink:title=" ">
<polygon fill="none" stroke="black" points="691.5,-650.21 691.5,-680.21 857.5,-680.21 857.5,-650.21 691.5,-650.21"/>
<text text-anchor="start" x="699.5" y="-668.21" font-family="FreeSans" font-size="10.00">Fun4AllSpillDstOutputManager</text>
<text text-anchor="middle" x="774.5" y="-657.21" font-family="FreeSans" font-size="10.00">::EnableDB</text>
</a>
</g>
</g>
<!-- Node1&#45;&gt;Node4 -->
<g id="edge16" class="edge">
<title>Node1&#45;&gt;Node4</title>
<path fill="none" stroke="midnightblue" d="M1138.37,-495.3C1124.32,-517.69 1097.5,-555.51 1065,-577.21 1002.31,-619.07 918.94,-641.66 857.77,-653.42"/>
<polygon fill="midnightblue" stroke="midnightblue" points="1141.37,-497.11 1143.59,-486.75 1135.4,-493.46 1141.37,-497.11"/>
</g>
<!-- Node5 -->
<g id="node5" class="node">
<title>Node5</title>
<g id="a_node5"><a xlink:href="../../d1/db1/classFun4AllSpillSRawEventOutputManager.html#a9e7321f6fafe1993077f3bcbac1d61e3" target="_top" xlink:title=" ">
<polygon fill="none" stroke="black" points="694,-601.21 694,-631.21 855,-631.21 855,-601.21 694,-601.21"/>
<text text-anchor="start" x="702" y="-619.21" font-family="FreeSans" font-size="10.00">Fun4AllSpillSRawEventOutput</text>
<text text-anchor="middle" x="774.5" y="-608.21" font-family="FreeSans" font-size="10.00">Manager::EnableDB</text>
</a>
</g>
</g>
<!-- Node1&#45;&gt;Node5 -->
<g id="edge17" class="edge">
<title>Node1&#45;&gt;Node5</title>
<path fill="none" stroke="midnightblue" d="M1129.94,-493.49C1113.64,-506.67 1089.07,-524.85 1065,-536.21 997.45,-568.09 914.85,-589.34 855.19,-601.88"/>
<polygon fill="midnightblue" stroke="midnightblue" points="1132.61,-495.82 1138.09,-486.75 1128.15,-490.43 1132.61,-495.82"/>
</g>
<!-- Node6 -->
<g id="node6" class="node">
<title>Node6</title>
<g id="a_node6"><a xlink:href="../../d7/d48/classDecoStatusDb.html#aaba24471944a89239a3f5e7742cc856c" target="_top" xlink:title=" ">
<polygon fill="none" stroke="black" points="708,-562.71 708,-581.71 841,-581.71 841,-562.71 708,-562.71"/>
<text text-anchor="middle" x="774.5" y="-569.71" font-family="FreeSans" font-size="10.00">DecoStatusDb::InitTable</text>
</a>
</g>
</g>
<!-- Node1&#45;&gt;Node6 -->
<g id="edge18" class="edge">
<title>Node1&#45;&gt;Node6</title>
<path fill="none" stroke="midnightblue" d="M1104.68,-489.58C1048.43,-505.13 948.3,-532.32 862,-553.21 848.7,-556.43 834.19,-559.71 820.93,-562.62"/>
<polygon fill="midnightblue" stroke="midnightblue" points="1105.96,-492.85 1114.66,-486.81 1104.09,-486.11 1105.96,-492.85"/>
</g>
<!-- Node17 -->
<g id="node17" class="node">
<title>Node17</title>
<g id="a_node17"><a xlink:href="../../db/d8a/classRunParamBase.html#a1a747ac4d6e1c3665d66f9a1d5118f32" target="_top" xlink:title=" ">
<polygon fill="none" stroke="black" points="694.5,-121.71 694.5,-140.71 854.5,-140.71 854.5,-121.71 694.5,-121.71"/>
<text text-anchor="middle" x="774.5" y="-128.71" font-family="FreeSans" font-size="10.00">RunParamBase::ReadFromDB</text>
</a>
</g>
</g>
<!-- Node1&#45;&gt;Node17 -->
<g id="edge19" class="edge">
<title>Node1&#45;&gt;Node17</title>
<path fill="none" stroke="midnightblue" d="M1139.85,-458.51C1125.81,-430.76 1097.2,-377.73 1065,-338.21 987.33,-242.88 970.98,-207.18 862,-150.21 854.51,-146.29 846.24,-143.18 837.88,-140.71"/>
<polygon fill="midnightblue" stroke="midnightblue" points="1136.74,-460.12 1144.34,-467.51 1143.01,-457 1136.74,-460.12"/>
</g>
<!-- Node159 -->
<g id="node49" class="node">
<title>Node159</title>
<g id="a_node49"><a xlink:href="../../d0/d0d/classParamRunRange.html#a2ed6cb68949441b6a3a929fddd6c3910" target="_top" xlink:title=" ">
<polygon fill="none" stroke="black" points="898,-347.71 898,-366.71 1065,-366.71 1065,-347.71 898,-347.71"/>
<text text-anchor="middle" x="981.5" y="-354.71" font-family="FreeSans" font-size="10.00">ParamRunRange::ReadFromDB</text>
</a>
</g>
</g>
<!-- Node1&#45;&gt;Node159 -->
<g id="edge53" class="edge">
<title>Node1&#45;&gt;Node159</title>
<path fill="none" stroke="midnightblue" d="M1127.1,-461.43C1092.1,-436.21 1024.58,-387.54 995.91,-366.88"/>
<polygon fill="midnightblue" stroke="midnightblue" points="1125.5,-464.59 1135.66,-467.59 1129.59,-458.91 1125.5,-464.59"/>
</g>
<!-- Node3 -->
<g id="node3" class="node">
<title>Node3</title>
<g id="a_node3"><a xlink:href="../../d2/da4/classDbSvc.html#a5a26d12329fddebe42e563baaecc0b20" target="_top" xlink:title=" ">
<polygon fill="none" stroke="black" points="719,-296.71 719,-315.71 830,-315.71 830,-296.71 719,-296.71"/>
<text text-anchor="middle" x="774.5" y="-303.71" font-family="FreeSans" font-size="10.00">DbSvc::CreateTable</text>
</a>
</g>
</g>
<!-- Node2&#45;&gt;Node3 -->
<g id="edge2" class="edge">
<title>Node2&#45;&gt;Node3</title>
<path fill="none" stroke="midnightblue" d="M962.01,-441.59C944.66,-425.59 918.39,-400.34 898,-376.21 880.09,-355.02 885.11,-340.56 862,-325.21 852.52,-318.92 841.3,-314.68 830.12,-311.82"/>
<polygon fill="midnightblue" stroke="midnightblue" points="960.01,-444.5 969.75,-448.66 964.73,-439.33 960.01,-444.5"/>
</g>
<!-- Node2&#45;&gt;Node4 -->
<g id="edge3" class="edge">
<title>Node2&#45;&gt;Node4</title>
<path fill="none" stroke="midnightblue" d="M973.4,-477.65C958.67,-515.18 921.14,-597.78 862,-641.21 857.35,-644.63 852.24,-647.55 846.9,-650.06"/>
<polygon fill="midnightblue" stroke="midnightblue" points="976.81,-478.52 977.09,-467.93 970.27,-476.03 976.81,-478.52"/>
</g>
<!-- Node2&#45;&gt;Node5 -->
<g id="edge4" class="edge">
<title>Node2&#45;&gt;Node5</title>
<path fill="none" stroke="midnightblue" d="M969.13,-476.57C950.38,-505.33 910.19,-560.85 862,-591.21 855.92,-595.04 849.23,-598.31 842.34,-601.08"/>
<polygon fill="midnightblue" stroke="midnightblue" points="972.22,-478.23 974.65,-467.92 966.32,-474.47 972.22,-478.23"/>
</g>
<!-- Node2&#45;&gt;Node6 -->
<g id="edge5" class="edge">
<title>Node2&#45;&gt;Node6</title>
<path fill="none" stroke="midnightblue" d="M958.61,-473.77C941.72,-485.98 917.95,-503.64 898,-520.21 881.3,-534.08 881.26,-543.21 862,-553.21 854.5,-557.11 846.22,-560.21 837.86,-562.68"/>
<polygon fill="midnightblue" stroke="midnightblue" points="960.68,-476.59 966.76,-467.91 956.59,-470.91 960.68,-476.59"/>
</g>
<!-- Node8 -->
<g id="node8" class="node">
<title>Node8</title>
<g id="a_node8"><a xlink:href="../../d7/dec/classCalibParamInTimeTaiwan.html#acce4f1753797043879e33f83b58df7c6" target="_top" xlink:title=" ">
<polygon fill="none" stroke="black" points="704.5,-247.21 704.5,-277.21 844.5,-277.21 844.5,-247.21 704.5,-247.21"/>
<text text-anchor="start" x="712.5" y="-265.21" font-family="FreeSans" font-size="10.00">CalibParamInTimeTaiwan</text>
<text text-anchor="middle" x="774.5" y="-254.21" font-family="FreeSans" font-size="10.00">::WriteDbTable</text>
</a>
</g>
</g>
<!-- Node2&#45;&gt;Node8 -->
<g id="edge7" class="edge">
<title>Node2&#45;&gt;Node8</title>
<path fill="none" stroke="midnightblue" d="M960.28,-442.23C941.99,-426.92 915.35,-402.32 898,-376.21 874.39,-340.67 893.69,-315.79 862,-287.21 856.89,-282.61 850.99,-278.84 844.7,-275.77"/>
<polygon fill="midnightblue" stroke="midnightblue" points="958.08,-444.96 968.03,-448.59 962.52,-439.54 958.08,-444.96"/>
</g>
<!-- Node9 -->
<g id="node9" class="node">
<title>Node9</title>
<g id="a_node9"><a xlink:href="../../d0/dd2/classCalibParamInTimeV1495.html#ad9bce0f46b3b106040d5acf204835629" target="_top" xlink:title=" ">
<polygon fill="none" stroke="black" points="706,-198.21 706,-228.21 843,-228.21 843,-198.21 706,-198.21"/>
<text text-anchor="start" x="714" y="-216.21" font-family="FreeSans" font-size="10.00">CalibParamInTimeV1495</text>
<text text-anchor="middle" x="774.5" y="-205.21" font-family="FreeSans" font-size="10.00">::WriteDbTable</text>
</a>
</g>
</g>
<!-- Node2&#45;&gt;Node9 -->
<g id="edge8" class="edge">
<title>Node2&#45;&gt;Node9</title>
<path fill="none" stroke="midnightblue" d="M959.16,-442.48C940.33,-427.48 913.54,-403.24 898,-376.21 866.41,-321.26 906.23,-283.62 862,-238.21 856.66,-232.73 850.19,-228.42 843.22,-225.05"/>
<polygon fill="midnightblue" stroke="midnightblue" points="957.13,-445.33 967.18,-448.69 961.42,-439.8 957.13,-445.33"/>
</g>
<!-- Node10 -->
<g id="node10" class="node">
<title>Node10</title>
<g id="a_node10"><a xlink:href="../../da/d44/classCalibParamXT.html#a8838f1076ea075c6f8617175b305d9c3" target="_top" xlink:title=" ">
<polygon fill="none" stroke="black" points="697,-524.71 697,-543.71 852,-543.71 852,-524.71 697,-524.71"/>
<text text-anchor="middle" x="774.5" y="-531.71" font-family="FreeSans" font-size="10.00">CalibParamXT::WriteDbTable</text>
</a>
</g>
</g>
<!-- Node2&#45;&gt;Node10 -->
<g id="edge9" class="edge">
<title>Node2&#45;&gt;Node10</title>
<path fill="none" stroke="midnightblue" d="M954.79,-472.73C931.28,-485.49 895.19,-503.76 862,-515.21 851.24,-518.92 839.48,-522.08 828.19,-524.68"/>
<polygon fill="midnightblue" stroke="midnightblue" points="956.68,-475.69 963.76,-467.81 953.31,-469.56 956.68,-475.69"/>
</g>
<!-- Node11 -->
<g id="node11" class="node">
<title>Node11</title>
<g id="a_node11"><a xlink:href="../../d9/d1d/classChanMapScaler.html#a68c9fa7e09cb3f34138b2a38e1c55269" target="_top" xlink:title=" ">
<polygon fill="none" stroke="black" points="692.5,-486.71 692.5,-505.71 856.5,-505.71 856.5,-486.71 692.5,-486.71"/>
<text text-anchor="middle" x="774.5" y="-493.71" font-family="FreeSans" font-size="10.00">ChanMapScaler::WriteDbTable</text>
</a>
</g>
</g>
<!-- Node2&#45;&gt;Node11 -->
<g id="edge10" class="edge">
<title>Node2&#45;&gt;Node11</title>
<path fill="none" stroke="midnightblue" d="M918.9,-469.63C889.57,-475.07 854.89,-481.5 826.99,-486.67"/>
<polygon fill="midnightblue" stroke="midnightblue" points="919.84,-473.02 929.03,-467.75 918.56,-466.13 919.84,-473.02"/>
</g>
<!-- Node12 -->
<g id="node12" class="node">
<title>Node12</title>
<g id="a_node12"><a xlink:href="../../d3/d21/classChanMapTaiwan.html#a06b6d7f47fba11f8ef947f4a98e5afa4" target="_top" xlink:title=" ">
<polygon fill="none" stroke="black" points="691,-448.71 691,-467.71 858,-467.71 858,-448.71 691,-448.71"/>
<text text-anchor="middle" x="774.5" y="-455.71" font-family="FreeSans" font-size="10.00">ChanMapTaiwan::WriteDbTable</text>
</a>
</g>
</g>
<!-- Node2&#45;&gt;Node12 -->
<g id="edge11" class="edge">
<title>Node2&#45;&gt;Node12</title>
<path fill="none" stroke="midnightblue" d="M915.62,-458.21C897.38,-458.21 877.3,-458.21 858.17,-458.21"/>
<polygon fill="midnightblue" stroke="midnightblue" points="915.83,-461.71 925.83,-458.21 915.83,-454.71 915.83,-461.71"/>
</g>
<!-- Node13 -->
<g id="node13" class="node">
<title>Node13</title>
<g id="a_node13"><a xlink:href="../../d2/d4f/classChanMapV1495.html#a4e6577adc1f1029328875fe3e5e715f8" target="_top" xlink:title=" ">
<polygon fill="none" stroke="black" points="692.5,-410.71 692.5,-429.71 856.5,-429.71 856.5,-410.71 692.5,-410.71"/>
<text text-anchor="middle" x="774.5" y="-417.71" font-family="FreeSans" font-size="10.00">ChanMapV1495::WriteDbTable</text>
</a>
</g>
</g>
<!-- Node2&#45;&gt;Node13 -->
<g id="edge12" class="edge">
<title>Node2&#45;&gt;Node13</title>
<path fill="none" stroke="midnightblue" d="M918.9,-446.79C889.57,-441.36 854.89,-434.93 826.99,-429.76"/>
<polygon fill="midnightblue" stroke="midnightblue" points="918.56,-450.29 929.03,-448.67 919.84,-443.41 918.56,-450.29"/>
</g>
<!-- Node14 -->
<g id="node14" class="node">
<title>Node14</title>
<g id="a_node14"><a xlink:href="../../d1/d3b/classGeomParamPlane.html#af68b72e8a573356bd51f80e2b564ef20" target="_top" xlink:title=" ">
<polygon fill="none" stroke="black" points="687,-372.71 687,-391.71 862,-391.71 862,-372.71 687,-372.71"/>
<text text-anchor="middle" x="774.5" y="-379.71" font-family="FreeSans" font-size="10.00">GeomParamPlane::WriteDbTable</text>
</a>
</g>
</g>
<!-- Node2&#45;&gt;Node14 -->
<g id="edge13" class="edge">
<title>Node2&#45;&gt;Node14</title>
<path fill="none" stroke="midnightblue" d="M954.79,-443.69C931.28,-430.93 895.19,-412.67 862,-401.21 851.24,-397.5 839.48,-394.35 828.19,-391.74"/>
<polygon fill="midnightblue" stroke="midnightblue" points="953.31,-446.87 963.76,-448.62 956.68,-440.73 953.31,-446.87"/>
</g>
<!-- Node15 -->
<g id="node15" class="node">
<title>Node15</title>
<g id="a_node15"><a xlink:href="../../d0/d0d/classParamRunRange.html#a4a8a8a199cec5e1fe2f4d1c2835b47b5" target="_top" xlink:title=" ">
<polygon fill="none" stroke="black" points="697.5,-334.71 697.5,-353.71 851.5,-353.71 851.5,-334.71 697.5,-334.71"/>
<text text-anchor="middle" x="774.5" y="-341.71" font-family="FreeSans" font-size="10.00">ParamRunRange::WriteToDB</text>
</a>
</g>
</g>
<!-- Node2&#45;&gt;Node15 -->
<g id="edge14" class="edge">
<title>Node2&#45;&gt;Node15</title>
<path fill="none" stroke="midnightblue" d="M964.48,-441.23C943.17,-419.69 903.34,-382.98 862,-363.21 853.95,-359.37 845.11,-356.29 836.25,-353.82"/>
<polygon fill="midnightblue" stroke="midnightblue" points="962.23,-443.94 971.71,-448.68 967.25,-439.06 962.23,-443.94"/>
</g>
<!-- Node7 -->
<g id="node7" class="node">
<title>Node7</title>
<g id="a_node7"><a xlink:href="../../d7/d48/classDecoStatusDb.html#af00f1b7b4b93e5de7871330cea526584" target="_top" xlink:title=" ">
<polygon fill="none" stroke="black" points="489,-562.71 489,-581.71 635,-581.71 635,-562.71 489,-562.71"/>
<text text-anchor="middle" x="562" y="-569.71" font-family="FreeSans" font-size="10.00">DecoStatusDb::RunStarted</text>
</a>
</g>
</g>
<!-- Node6&#45;&gt;Node7 -->
<g id="edge6" class="edge">
<title>Node6&#45;&gt;Node7</title>
<path fill="none" stroke="midnightblue" d="M697.6,-572.21C677.26,-572.21 655.32,-572.21 635.19,-572.21"/>
<polygon fill="midnightblue" stroke="midnightblue" points="697.76,-575.71 707.76,-572.21 697.76,-568.71 697.76,-575.71"/>
</g>
<!-- Node16 -->
<g id="node16" class="node">
<title>Node16</title>
<g id="a_node16"><a xlink:href="../../db/d8a/classRunParamBase.html#a15b5bce0a44515a4d6e55698a1f5f2b0" target="_top" xlink:title=" ">
<polygon fill="none" stroke="black" points="473,-334.71 473,-353.71 651,-353.71 651,-334.71 473,-334.71"/>
<text text-anchor="middle" x="562" y="-341.71" font-family="FreeSans" font-size="10.00">RunParamBase::WriteRangeToDB</text>
</a>
</g>
</g>
<!-- Node15&#45;&gt;Node16 -->
<g id="edge15" class="edge">
<title>Node15&#45;&gt;Node16</title>
<path fill="none" stroke="midnightblue" d="M686.94,-344.21C675.14,-344.21 663.01,-344.21 651.18,-344.21"/>
<polygon fill="midnightblue" stroke="midnightblue" points="687.21,-347.71 697.21,-344.21 687.21,-340.71 687.21,-347.71"/>
</g>
<!-- Node18 -->
<g id="node18" class="node">
<title>Node18</title>
<g id="a_node18"><a xlink:href="../../d3/df0/structDecoParam.html#a5aa4569842470e27e4ed9480437e8047" target="_top" xlink:title=" ">
<polygon fill="none" stroke="black" points="496.5,-121.71 496.5,-140.71 627.5,-140.71 627.5,-121.71 496.5,-121.71"/>
<text text-anchor="middle" x="562" y="-128.71" font-family="FreeSans" font-size="10.00">DecoParam::InitMapper</text>
</a>
</g>
</g>
<!-- Node17&#45;&gt;Node18 -->
<g id="edge20" class="edge">
<title>Node17&#45;&gt;Node18</title>
<path fill="none" stroke="midnightblue" d="M684.11,-131.21C665.2,-131.21 645.6,-131.21 627.81,-131.21"/>
<polygon fill="midnightblue" stroke="midnightblue" points="684.22,-134.71 694.22,-131.21 684.22,-127.71 684.22,-134.71"/>
</g>
<!-- Node19 -->
<g id="node19" class="node">
<title>Node19</title>
<g id="a_node19"><a xlink:href="../../d0/da0/classGeomSvc.html#adbe1473f9b3a8ff942da8d7d8ee28322" target="_top" xlink:title=" ">
<polygon fill="none" stroke="black" points="490.5,-159.71 490.5,-178.71 633.5,-178.71 633.5,-159.71 490.5,-159.71"/>
<text text-anchor="middle" x="562" y="-166.71" font-family="FreeSans" font-size="10.00">GeomSvc::initPlaneDbSvc</text>
</a>
</g>
</g>
<!-- Node17&#45;&gt;Node19 -->
<g id="edge21" class="edge">
<title>Node17&#45;&gt;Node19</title>
<path fill="none" stroke="midnightblue" d="M710.64,-142.56C680.44,-148.01 644.65,-154.47 615.87,-159.67"/>
<polygon fill="midnightblue" stroke="midnightblue" points="711.43,-145.97 720.65,-140.75 710.19,-139.08 711.43,-145.97"/>
</g>
<!-- Node105 -->
<g id="node45" class="node">
<title>Node105</title>
<g id="a_node45"><a xlink:href="../../dd/def/classCalibDriftDistMod.html#a7752167df8cf9a3766bce767b47617d6" target="_top" xlink:title=" ">
<polygon fill="none" stroke="black" points="30.5,-46.21 30.5,-76.21 139.5,-76.21 139.5,-46.21 30.5,-46.21"/>
<text text-anchor="start" x="38.5" y="-64.21" font-family="FreeSans" font-size="10.00">CalibDriftDistMod::</text>
<text text-anchor="middle" x="85" y="-53.21" font-family="FreeSans" font-size="10.00">InitRun</text>
</a>
</g>
</g>
<!-- Node17&#45;&gt;Node105 -->
<g id="edge49" class="edge">
<title>Node17&#45;&gt;Node105</title>
<path fill="none" stroke="midnightblue" d="M749.67,-116.49C725.73,-102.6 687.3,-82.68 651,-74.21 467.55,-31.4 241.46,-45.49 139.88,-55.22"/>
<polygon fill="midnightblue" stroke="midnightblue" points="748.01,-119.57 758.39,-121.66 751.57,-113.55 748.01,-119.57"/>
</g>
<!-- Node106 -->
<g id="node46" class="node">
<title>Node106</title>
<g id="a_node46"><a xlink:href="../../d4/d73/classCalibDriftDist.html#ab8f98ba3b01859d64f958f280d0fe22f" target="_top" xlink:title=" ">
<polygon fill="none" stroke="black" points="24,-7.71 24,-26.71 146,-26.71 146,-7.71 24,-7.71"/>
<text text-anchor="middle" x="85" y="-14.71" font-family="FreeSans" font-size="10.00">CalibDriftDist::InitRun</text>
</a>
</g>
</g>
<!-- Node17&#45;&gt;Node106 -->
<g id="edge50" class="edge">
<title>Node17&#45;&gt;Node106</title>
<path fill="none" stroke="midnightblue" d="M756.21,-114.42C733.96,-94.03 693.14,-60.6 651,-46.21 475.55,13.68 251.68,1.02 146.16,-9.77"/>
<polygon fill="midnightblue" stroke="midnightblue" points="754.1,-117.24 763.79,-121.52 758.89,-112.13 754.1,-117.24"/>
</g>
<!-- Node157 -->
<g id="node47" class="node">
<title>Node157</title>
<g id="a_node47"><a xlink:href="../../d4/d41/classCalibHodoInTime.html#aa02bceb910335dc4ed67613212bf1eec" target="_top" xlink:title=" ">
<polygon fill="none" stroke="black" points="491.5,-83.71 491.5,-102.71 632.5,-102.71 632.5,-83.71 491.5,-83.71"/>
<text text-anchor="middle" x="562" y="-90.71" font-family="FreeSans" font-size="10.00">CalibHodoInTime::InitRun</text>
</a>
</g>
</g>
<!-- Node17&#45;&gt;Node157 -->
<g id="edge51" class="edge">
<title>Node17&#45;&gt;Node157</title>
<path fill="none" stroke="midnightblue" d="M710.64,-119.87C680.44,-114.41 644.65,-107.95 615.87,-102.76"/>
<polygon fill="midnightblue" stroke="midnightblue" points="710.19,-123.34 720.65,-121.67 711.43,-116.45 710.19,-123.34"/>
</g>
<!-- Node158 -->
<g id="node48" class="node">
<title>Node158</title>
<g id="a_node48"><a xlink:href="../../dc/dcd/classSQChamberRealization.html#a69eb66408dc5f9cb20f92dcc12c89d14" target="_top" xlink:title=" ">
<polygon fill="none" stroke="black" points="497.5,-198.21 497.5,-228.21 626.5,-228.21 626.5,-198.21 497.5,-198.21"/>
<text text-anchor="start" x="505.5" y="-216.21" font-family="FreeSans" font-size="10.00">SQChamberRealization</text>
<text text-anchor="middle" x="562" y="-205.21" font-family="FreeSans" font-size="10.00">::InitRun</text>
</a>
</g>
</g>
<!-- Node17&#45;&gt;Node158 -->
<g id="edge52" class="edge">
<title>Node17&#45;&gt;Node158</title>
<path fill="none" stroke="midnightblue" d="M699.45,-144.28C695.13,-146.01 690.95,-147.98 687,-150.21 666.75,-161.66 670.9,-176.16 651,-188.21 643.53,-192.74 635.21,-196.47 626.74,-199.55"/>
<polygon fill="midnightblue" stroke="midnightblue" points="700.83,-147.5 709.06,-140.83 698.47,-140.91 700.83,-147.5"/>
</g>
<!-- Node20 -->
<g id="node20" class="node">
<title>Node20</title>
<g id="a_node20"><a xlink:href="../../d0/da0/classGeomSvc.html#a96ec4efc82cbaed0b5623e4dd69385b6" target="_top" xlink:title="Initialization, either from MySQL or from ascii file.">
<polygon fill="none" stroke="black" points="352,-392.71 352,-411.71 437,-411.71 437,-392.71 352,-392.71"/>
<text text-anchor="middle" x="394.5" y="-399.71" font-family="FreeSans" font-size="10.00">GeomSvc::init</text>
</a>
</g>
</g>
<!-- Node19&#45;&gt;Node20 -->
<g id="edge22" class="edge">
<title>Node19&#45;&gt;Node20</title>
<path fill="none" stroke="midnightblue" d="M481.13,-182.27C478.26,-184.03 475.53,-186 473,-188.21 408.72,-244.36 397.74,-358.11 395.88,-392.28"/>
<polygon fill="midnightblue" stroke="midnightblue" points="482.86,-185.31 490.13,-177.6 479.64,-179.1 482.86,-185.31"/>
</g>
<!-- Node21 -->
<g id="node21" class="node">
<title>Node21</title>
<g id="a_node21"><a xlink:href="../../d0/da0/classGeomSvc.html#a2b7ecf5467120206b9479654c48ad7c4" target="_top" xlink:title="singlton instance">
<polygon fill="none" stroke="red" points="206,-480.71 206,-499.71 316,-499.71 316,-480.71 206,-480.71"/>
<text text-anchor="middle" x="261" y="-487.71" font-family="FreeSans" font-size="10.00">GeomSvc::instance</text>
</a>
</g>
</g>
<!-- Node20&#45;&gt;Node21 -->
<g id="edge23" class="edge">
<title>Node20&#45;&gt;Node21</title>
<path fill="none" stroke="midnightblue" d="M370.69,-417.48C343.54,-435.65 299.02,-465.44 276.31,-480.64"/>
<polygon fill="midnightblue" stroke="midnightblue" points="372.81,-420.27 379.18,-411.8 368.92,-414.45 372.81,-420.27"/>
</g>
<!-- Node22 -->
<g id="node22" class="node">
<title>Node22</title>
<g id="a_node22"><a xlink:href="../../d2/d4f/classChanMapV1495.html#afc196432d35a86c60b6136d4c4fcde89" target="_top" xlink:title=" ">
<polygon fill="none" stroke="red" points="26,-979.71 26,-998.71 144,-998.71 144,-979.71 26,-979.71"/>
<text text-anchor="middle" x="85" y="-986.71" font-family="FreeSans" font-size="10.00">ChanMapV1495::Add</text>
</a>
</g>
</g>
<!-- Node21&#45;&gt;Node22 -->
<g id="edge24" class="edge">
<title>Node21&#45;&gt;Node22</title>
<path fill="none" stroke="midnightblue" d="M259.09,-510.22C254.96,-592.36 235.18,-902.56 170,-970.21 163.05,-977.43 153.98,-982.16 144.38,-985.23"/>
<polygon fill="midnightblue" stroke="midnightblue" points="262.61,-509.97 259.59,-499.81 255.62,-509.63 262.61,-509.97"/>
</g>
<!-- Node25 -->
<g id="node23" class="node">
<title>Node25</title>
<g id="a_node23"><a xlink:href="../../d3/d21/classChanMapTaiwan.html#a935b6903c5a4e4476f295f6a74185ec1" target="_top" xlink:title=" ">
<polygon fill="none" stroke="red" points="24.5,-941.71 24.5,-960.71 145.5,-960.71 145.5,-941.71 24.5,-941.71"/>
<text text-anchor="middle" x="85" y="-948.71" font-family="FreeSans" font-size="10.00">ChanMapTaiwan::Add</text>
</a>
</g>
</g>
<!-- Node21&#45;&gt;Node25 -->
<g id="edge25" class="edge">
<title>Node21&#45;&gt;Node25</title>
<path fill="none" stroke="midnightblue" d="M258.75,-510.11C253.45,-587.96 230.3,-870.59 170,-932.21 163.31,-939.05 154.71,-943.66 145.58,-946.72"/>
<polygon fill="midnightblue" stroke="midnightblue" points="262.26,-510.01 259.43,-499.8 255.28,-509.55 262.26,-510.01"/>
</g>
<!-- Node28 -->
<g id="node24" class="node">
<title>Node28</title>
<g id="a_node24"><a xlink:href="../../da/d44/classCalibParamXT.html#a5483b9b9bd60b5b43611c1dec536dc46" target="_top" xlink:title=" ">
<polygon fill="none" stroke="red" points="30.5,-903.71 30.5,-922.71 139.5,-922.71 139.5,-903.71 30.5,-903.71"/>
<text text-anchor="middle" x="85" y="-910.71" font-family="FreeSans" font-size="10.00">CalibParamXT::Add</text>
</a>
</g>
</g>
<!-- Node21&#45;&gt;Node28 -->
<g id="edge26" class="edge">
<title>Node21&#45;&gt;Node28</title>
<path fill="none" stroke="midnightblue" d="M258.32,-510.28C251.76,-584.03 225.38,-838.66 170,-894.21 161.87,-902.37 151.03,-907.33 139.85,-910.29"/>
<polygon fill="midnightblue" stroke="midnightblue" points="261.83,-510.32 259.21,-500.06 254.86,-509.72 261.83,-510.32"/>
</g>
<!-- Node31 -->
<g id="node25" class="node">
<title>Node31</title>
<g id="a_node25"><a xlink:href="../../d7/dec/classCalibParamInTimeTaiwan.html#a1864ffda0e47eb50d37155b015ab41e3" target="_top" xlink:title=" ">
<polygon fill="none" stroke="red" points="3,-865.71 3,-884.71 167,-884.71 167,-865.71 3,-865.71"/>
<text text-anchor="middle" x="85" y="-872.71" font-family="FreeSans" font-size="10.00">CalibParamInTimeTaiwan::Add</text>
</a>
</g>
</g>
<!-- Node21&#45;&gt;Node31 -->
<g id="edge27" class="edge">
<title>Node21&#45;&gt;Node31</title>
<path fill="none" stroke="midnightblue" d="M257.84,-510.14C249.96,-579.18 220.55,-806.6 170,-856.21 166.16,-859.98 161.74,-863.07 156.97,-865.59"/>
<polygon fill="midnightblue" stroke="midnightblue" points="261.36,-510.14 258.99,-499.82 254.41,-509.37 261.36,-510.14"/>
</g>
<!-- Node34 -->
<g id="node26" class="node">
<title>Node34</title>
<g id="a_node26"><a xlink:href="../../d0/dd2/classCalibParamInTimeV1495.html#ac884b85f75be97c5e9739672aad4daa5" target="_top" xlink:title=" ">
<polygon fill="none" stroke="red" points="4.5,-827.71 4.5,-846.71 165.5,-846.71 165.5,-827.71 4.5,-827.71"/>
<text text-anchor="middle" x="85" y="-834.71" font-family="FreeSans" font-size="10.00">CalibParamInTimeV1495::Add</text>
</a>
</g>
</g>
<!-- Node21&#45;&gt;Node34 -->
<g id="edge28" class="edge">
<title>Node21&#45;&gt;Node34</title>
<path fill="none" stroke="midnightblue" d="M257.3,-509.72C248.06,-573.54 215.81,-774.43 170,-818.21 166,-822.03 161.4,-825.15 156.46,-827.68"/>
<polygon fill="midnightblue" stroke="midnightblue" points="260.77,-510.17 258.71,-499.78 253.84,-509.19 260.77,-510.17"/>
</g>
<!-- Node37 -->
<g id="node27" class="node">
<title>Node37</title>
<g id="a_node27"><a xlink:href="../../d7/d73/classAnaChamHit.html#ad777528649781df9b04d0477b2908ed6" target="_top" xlink:title=" ">
<polygon fill="none" stroke="black" points="13.5,-789.71 13.5,-808.71 156.5,-808.71 156.5,-789.71 13.5,-789.71"/>
<text text-anchor="middle" x="85" y="-796.71" font-family="FreeSans" font-size="10.00">AnaChamHit::AnalyzeTree</text>
</a>
</g>
</g>
<!-- Node21&#45;&gt;Node37 -->
<g id="edge29" class="edge">
<title>Node21&#45;&gt;Node37</title>
<path fill="none" stroke="midnightblue" d="M260.18,-509.99C259.51,-562.45 250.07,-706.19 170,-780.21 165.94,-783.97 161.3,-787.03 156.32,-789.53"/>
<polygon fill="midnightblue" stroke="midnightblue" points="263.68,-509.73 260.2,-499.72 256.68,-509.71 263.68,-509.73"/>
</g>
<!-- Node38 -->
<g id="node28" class="node">
<title>Node38</title>
<g id="a_node28"><a xlink:href="../../d6/deb/classTriggerAnalyzer.html#a095d42811ed0348e26a4e42b1cc12d49" target="_top" xlink:title=" ">
<polygon fill="none" stroke="red" points="12,-751.71 12,-770.71 158,-770.71 158,-751.71 12,-751.71"/>
<text text-anchor="middle" x="85" y="-758.71" font-family="FreeSans" font-size="10.00">TriggerAnalyzer::buildData</text>
</a>
</g>
</g>
<!-- Node21&#45;&gt;Node38 -->
<g id="edge30" class="edge">
<title>Node21&#45;&gt;Node38</title>
<path fill="none" stroke="midnightblue" d="M259.11,-509.93C255.85,-557.57 240.67,-679.59 170,-742.21 165.75,-745.98 160.91,-749.05 155.75,-751.54"/>
<polygon fill="midnightblue" stroke="midnightblue" points="262.62,-509.92 259.7,-499.74 255.63,-509.52 262.62,-509.92"/>
</g>
<!-- Node40 -->
<g id="node29" class="node">
<title>Node40</title>
<g id="a_node29"><a xlink:href="../../d0/d06/FastTracklet_8cxx.html#af9f19d05dd700160d8e2a2c05dd87c61" target="_top" xlink:title=" ">
<polygon fill="none" stroke="black" points="54,-713.71 54,-732.71 116,-732.71 116,-713.71 54,-713.71"/>
<text text-anchor="middle" x="85" y="-720.71" font-family="FreeSans" font-size="10.00">ClassImp</text>
</a>
</g>
</g>
<!-- Node21&#45;&gt;Node40 -->
<g id="edge31" class="edge">
<title>Node21&#45;&gt;Node40</title>
<path fill="none" stroke="midnightblue" d="M257.68,-510.11C251.61,-552.68 231.25,-652.88 170,-704.21 155.1,-716.7 133.67,-721.4 116.19,-723.01"/>
<polygon fill="midnightblue" stroke="midnightblue" points="261.15,-510.53 258.98,-500.16 254.21,-509.62 261.15,-510.53"/>
</g>
<!-- Node41 -->
<g id="node30" class="node">
<title>Node41</title>
<g id="a_node30"><a xlink:href="../../d3/de7/classmTrkEveDisplay.html#a9dccd02ff8c77a1e34236d4575644100" target="_top" xlink:title=" ">
<polygon fill="none" stroke="red" points="22.5,-664.21 22.5,-694.21 147.5,-694.21 147.5,-664.21 22.5,-664.21"/>
<text text-anchor="start" x="30.5" y="-682.21" font-family="FreeSans" font-size="10.00">mTrkEveDisplay::draw</text>
<text text-anchor="middle" x="85" y="-671.21" font-family="FreeSans" font-size="10.00">_tracks</text>
</a>
</g>
</g>
<!-- Node21&#45;&gt;Node41 -->
<g id="edge32" class="edge">
<title>Node21&#45;&gt;Node41</title>
<path fill="none" stroke="midnightblue" d="M254.63,-509.84C244.19,-544.27 217.89,-615.56 170,-654.21 163.37,-659.56 155.62,-663.77 147.56,-667.08"/>
<polygon fill="midnightblue" stroke="midnightblue" points="258.05,-510.62 257.47,-500.05 251.32,-508.68 258.05,-510.62"/>
</g>
<!-- Node43 -->
<g id="node31" class="node">
<title>Node43</title>
<g id="a_node31"><a xlink:href="../../de/d72/classMakeRTCurve.html#ab4ada927ad5286b66dabc0346194ee4f" target="_top" xlink:title=" ">
<polygon fill="none" stroke="black" points="0,-625.71 0,-644.71 170,-644.71 170,-625.71 0,-625.71"/>
<text text-anchor="middle" x="85" y="-632.71" font-family="FreeSans" font-size="10.00">MakeRTCurve::DrawCalibResult</text>
</a>
</g>
</g>
<!-- Node21&#45;&gt;Node43 -->
<g id="edge33" class="edge">
<title>Node21&#45;&gt;Node43</title>
<path fill="none" stroke="midnightblue" d="M251.94,-509.07C238.95,-537.05 210.68,-589.18 170,-616.21 164.15,-620.1 157.61,-623.2 150.84,-625.67"/>
<polygon fill="midnightblue" stroke="midnightblue" points="255.13,-510.5 256.02,-499.94 248.74,-507.64 255.13,-510.5"/>
</g>
<!-- Node44 -->
<g id="node32" class="node">
<title>Node44</title>
<g id="a_node32"><a xlink:href="../../d8/de3/classSRMakeRTCurve.html#a3eeaeaebde2b5d201f440b902aed02b8" target="_top" xlink:title=" ">
<polygon fill="none" stroke="red" points="9,-576.21 9,-606.21 161,-606.21 161,-576.21 9,-576.21"/>
<text text-anchor="start" x="17" y="-594.21" font-family="FreeSans" font-size="10.00">SRMakeRTCurve::DrawCalib</text>
<text text-anchor="middle" x="85" y="-583.21" font-family="FreeSans" font-size="10.00">Result</text>
</a>
</g>
</g>
<!-- Node21&#45;&gt;Node44 -->
<g id="edge34" class="edge">
<title>Node21&#45;&gt;Node44</title>
<path fill="none" stroke="midnightblue" d="M243.89,-507.47C226.99,-524.63 198.92,-550.59 170,-566.21 163.04,-569.97 155.44,-573.24 147.75,-576.05"/>
<polygon fill="midnightblue" stroke="midnightblue" points="246.83,-509.47 251.24,-499.84 241.79,-504.61 246.83,-509.47"/>
</g>
<!-- Node46 -->
<g id="node33" class="node">
<title>Node46</title>
<g id="a_node33"><a xlink:href="../../de/d52/classCalibData.html#a57ff174a2221479087a1522cc41a146d" target="_top" xlink:title=" ">
<polygon fill="none" stroke="red" points="20,-537.71 20,-556.71 150,-556.71 150,-537.71 20,-537.71"/>
<text text-anchor="middle" x="85" y="-544.71" font-family="FreeSans" font-size="10.00">CalibData::DrawHistHit</text>
</a>
</g>
</g>
<!-- Node21&#45;&gt;Node46 -->
<g id="edge35" class="edge">
<title>Node21&#45;&gt;Node46</title>
<path fill="none" stroke="midnightblue" d="M230.46,-504.25C213.13,-512.08 190.65,-521.57 170,-528.21 158.75,-531.83 146.45,-535.02 134.81,-537.71"/>
<polygon fill="midnightblue" stroke="midnightblue" points="232.39,-507.21 240.01,-499.86 229.47,-500.85 232.39,-507.21"/>
</g>
<!-- Node49 -->
<g id="node34" class="node">
<title>Node49</title>
<g id="a_node34"><a xlink:href="../../d5/dda/classEventReducer.html#a561a06dc56cee12696d12ba18d207433" target="_top" xlink:title=" ">
<polygon fill="none" stroke="black" points="6,-499.71 6,-518.71 164,-518.71 164,-499.71 6,-499.71"/>
<text text-anchor="middle" x="85" y="-506.71" font-family="FreeSans" font-size="10.00">EventReducer::EventReducer</text>
</a>
</g>
</g>
<!-- Node21&#45;&gt;Node49 -->
<g id="edge36" class="edge">
<title>Node21&#45;&gt;Node49</title>
<path fill="none" stroke="midnightblue" d="M195.75,-497.23C185.42,-498.36 174.63,-499.53 164.02,-500.69"/>
<polygon fill="midnightblue" stroke="midnightblue" points="196.34,-500.68 205.9,-496.12 195.58,-493.73 196.34,-500.68"/>
</g>
<!-- Node50 -->
<g id="node35" class="node">
<title>Node50</title>
<g id="a_node35"><a xlink:href="../../df/d60/namespaceUtilTrigger.html#afdd030c4cb67c41d7abc754c205b0626" target="_top" xlink:title="Find a unique road in the given list of SQHits.">
<polygon fill="none" stroke="red" points="13.5,-461.71 13.5,-480.71 156.5,-480.71 156.5,-461.71 13.5,-461.71"/>
<text text-anchor="middle" x="85" y="-468.71" font-family="FreeSans" font-size="10.00">UtilTrigger::ExtractRoadID</text>
</a>
</g>
</g>
<!-- Node21&#45;&gt;Node50 -->
<g id="edge37" class="edge">
<title>Node21&#45;&gt;Node50</title>
<path fill="none" stroke="midnightblue" d="M195.85,-483.21C183.11,-481.82 169.67,-480.35 156.72,-478.93"/>
<polygon fill="midnightblue" stroke="midnightblue" points="195.58,-486.7 205.9,-484.3 196.34,-479.74 195.58,-486.7"/>
</g>
<!-- Node52 -->
<g id="node36" class="node">
<title>Node52</title>
<g id="a_node36"><a xlink:href="../../d2/d1e/namespaceUtilTrack.html#a066646acae0efd8b9e0429ee5b46c6ef" target="_top" xlink:title="Find track&#45;associated hits whose detector name starts with &#39;det_name&#39;.">
<polygon fill="none" stroke="red" points="11.5,-412.21 11.5,-442.21 158.5,-442.21 158.5,-412.21 11.5,-412.21"/>
<text text-anchor="start" x="19.5" y="-430.21" font-family="FreeSans" font-size="10.00">UtilTrack::FindDetectorHits</text>
<text text-anchor="middle" x="85" y="-419.21" font-family="FreeSans" font-size="10.00">OfTrack</text>
</a>
</g>
</g>
<!-- Node21&#45;&gt;Node52 -->
<g id="edge38" class="edge">
<title>Node21&#45;&gt;Node52</title>
<path fill="none" stroke="midnightblue" d="M229.6,-476.39C212.31,-468.78 190.15,-459.44 170,-452.21 160.4,-448.77 150.08,-445.42 140.06,-442.34"/>
<polygon fill="midnightblue" stroke="midnightblue" points="228.61,-479.78 239.16,-480.64 231.45,-473.38 228.61,-479.78"/>
</g>
<!-- Node55 -->
<g id="node37" class="node">
<title>Node55</title>
<g id="a_node37"><a xlink:href="../../d0/dc5/namespaceUtilSQHit.html#a5fb03b8a409fe9772bfae09b0d316aba" target="_top" xlink:title="Extract a set of first hits that are of the given detector (det_name), where &quot;first&quot; means the earlie...">
<polygon fill="none" stroke="red" points="21,-373.71 21,-392.71 149,-392.71 149,-373.71 21,-373.71"/>
<text text-anchor="middle" x="85" y="-380.71" font-family="FreeSans" font-size="10.00">UtilSQHit::FindFirstHits</text>
</a>
</g>
</g>
<!-- Node21&#45;&gt;Node55 -->
<g id="edge39" class="edge">
<title>Node21&#45;&gt;Node55</title>
<path fill="none" stroke="midnightblue" d="M246.79,-472.7C230.82,-452.78 202.04,-420.76 170,-403.21 162.11,-398.89 153.31,-395.5 144.45,-392.83"/>
<polygon fill="midnightblue" stroke="midnightblue" points="244.1,-474.94 253.01,-480.66 249.61,-470.63 244.1,-474.94"/>
</g>
<!-- Node60 -->
<g id="node38" class="node">
<title>Node60</title>
<g id="a_node38"><a xlink:href="../../d0/dc5/namespaceUtilSQHit.html#ad5349065a009f07069307079980f975b" target="_top" xlink:title="Extract a set of hits that are of the given detector (det_name).">
<polygon fill="none" stroke="red" points="31.5,-335.71 31.5,-354.71 138.5,-354.71 138.5,-335.71 31.5,-335.71"/>
<text text-anchor="middle" x="85" y="-342.71" font-family="FreeSans" font-size="10.00">UtilSQHit::FindHits</text>
</a>
</g>
</g>
<!-- Node21&#45;&gt;Node60 -->
<g id="edge40" class="edge">
<title>Node21&#45;&gt;Node60</title>
<path fill="none" stroke="midnightblue" d="M251.94,-471.36C238.95,-443.37 210.68,-391.24 170,-364.21 160.66,-358.01 149.58,-353.81 138.59,-350.97"/>
<polygon fill="midnightblue" stroke="midnightblue" points="248.74,-472.79 256.02,-480.48 255.13,-469.93 248.74,-472.79"/>
</g>
<!-- Node67 -->
<g id="node39" class="node">
<title>Node67</title>
<g id="a_node39"><a xlink:href="../../d0/dc5/namespaceUtilSQHit.html#a3a9e581499adf80e352222d24efc20ec" target="_top" xlink:title="Fast&#45;extract a set of hits that are of the given detector (det_name).">
<polygon fill="none" stroke="red" points="21.5,-297.71 21.5,-316.71 148.5,-316.71 148.5,-297.71 21.5,-297.71"/>
<text text-anchor="middle" x="85" y="-304.71" font-family="FreeSans" font-size="10.00">UtilSQHit::FindHitsFast</text>
</a>
</g>
</g>
<!-- Node21&#45;&gt;Node67 -->
<g id="edge41" class="edge">
<title>Node21&#45;&gt;Node67</title>
<path fill="none" stroke="midnightblue" d="M255.03,-470.75C245.1,-436 219.39,-363.42 170,-326.21 163.67,-321.44 156.36,-317.84 148.75,-315.11"/>
<polygon fill="midnightblue" stroke="midnightblue" points="251.71,-471.88 257.71,-480.61 258.46,-470.05 251.71,-471.88"/>
</g>
<!-- Node75 -->
<g id="node40" class="node">
<title>Node75</title>
<g id="a_node40"><a xlink:href="../../d0/dc5/namespaceUtilSQHit.html#a77bf0d74fb4b1e05bbb748a60d6db0a0" target="_top" xlink:title="Fast&#45;extract a set of trigger hits that are of the given detector (det_name).">
<polygon fill="none" stroke="red" points="5,-259.71 5,-278.71 165,-278.71 165,-259.71 5,-259.71"/>
<text text-anchor="middle" x="85" y="-266.71" font-family="FreeSans" font-size="10.00">UtilSQHit::FindTriggerHitsFast</text>
</a>
</g>
</g>
<!-- Node21&#45;&gt;Node75 -->
<g id="edge42" class="edge">
<title>Node21&#45;&gt;Node75</title>
<path fill="none" stroke="midnightblue" d="M257.13,-470.32C250.14,-429.49 228.33,-336.07 170,-288.21 165.38,-284.42 160.15,-281.35 154.61,-278.86"/>
<polygon fill="midnightblue" stroke="midnightblue" points="253.7,-471.03 258.72,-480.36 260.61,-469.93 253.7,-471.03"/>
</g>
<!-- Node78 -->
<g id="node41" class="node">
<title>Node78</title>
<g id="a_node41"><a xlink:href="../../dc/dcd/classSQChamberRealization.html#ac5156a0914d0055571c857829c6e2f1f" target="_top" xlink:title="Set the single&#45;plane resolution of the chamber planes to the given values.">
<polygon fill="none" stroke="black" points="20.5,-210.21 20.5,-240.21 149.5,-240.21 149.5,-210.21 20.5,-210.21"/>
<text text-anchor="start" x="28.5" y="-228.21" font-family="FreeSans" font-size="10.00">SQChamberRealization</text>
<text text-anchor="middle" x="85" y="-217.21" font-family="FreeSans" font-size="10.00">::FixChamReso</text>
</a>
</g>
</g>
<!-- Node21&#45;&gt;Node78 -->
<g id="edge43" class="edge">
<title>Node21&#45;&gt;Node78</title>
<path fill="none" stroke="midnightblue" d="M255.13,-470.87C241.84,-419.54 203.73,-281.67 170,-250.21 164.1,-244.71 157.05,-240.42 149.57,-237.06"/>
<polygon fill="midnightblue" stroke="midnightblue" points="251.77,-471.87 257.64,-480.69 258.55,-470.14 251.77,-471.87"/>
</g>
<!-- Node79 -->
<g id="node42" class="node">
<title>Node79</title>
<g id="a_node42"><a xlink:href="../../d9/dc3/classKalmanTrack.html#a130df9a64175b4854a25f0de3120cf91" target="_top" xlink:title=" ">
<polygon fill="none" stroke="black" points="9,-171.71 9,-190.71 161,-190.71 161,-171.71 9,-171.71"/>
<text text-anchor="middle" x="85" y="-178.71" font-family="FreeSans" font-size="10.00">KalmanTrack::getAlignment</text>
</a>
</g>
</g>
<!-- Node21&#45;&gt;Node79 -->
<g id="edge44" class="edge">
<title>Node21&#45;&gt;Node79</title>
<path fill="none" stroke="midnightblue" d="M254.23,-470.7C235.18,-406.41 175.2,-205.02 170,-200.21 165.94,-196.46 161.3,-193.39 156.32,-190.89"/>
<polygon fill="midnightblue" stroke="midnightblue" points="250.91,-471.82 257.11,-480.42 257.62,-469.84 250.91,-471.82"/>
</g>
<!-- Node80 -->
<g id="node43" class="node">
<title>Node80</title>
<g id="a_node43"><a xlink:href="../../d9/d7c/namespaceUtilHodo.html#aa969bb67fd62bb607c12ca68a992c69a" target="_top" xlink:title=" ">
<polygon fill="none" stroke="red" points="15,-133.71 15,-152.71 155,-152.71 155,-133.71 15,-133.71"/>
<text text-anchor="middle" x="85" y="-140.71" font-family="FreeSans" font-size="10.00">UtilHodo::GetElementPos</text>
</a>
</g>
</g>
<!-- Node21&#45;&gt;Node80 -->
<g id="edge45" class="edge">
<title>Node21&#45;&gt;Node80</title>
<path fill="none" stroke="midnightblue" d="M253.83,-470.68C243.44,-437.6 222.05,-368.35 206,-309.21 188.38,-244.3 217.98,-209.35 170,-162.21 165.73,-158.02 160.75,-154.68 155.38,-152.01"/>
<polygon fill="midnightblue" stroke="midnightblue" points="250.56,-471.96 256.9,-480.45 257.24,-469.86 250.56,-471.96"/>
</g>
<!-- Node83 -->
<g id="node44" class="node">
<title>Node83</title>
<g id="a_node44"><a xlink:href="../../d9/dc3/classKalmanTrack.html#abfa2e153a77c41a07e0821aaed4ec834" target="_top" xlink:title=" ">
<polygon fill="none" stroke="black" points="5,-95.71 5,-114.71 165,-114.71 165,-95.71 5,-95.71"/>
<text text-anchor="middle" x="85" y="-102.71" font-family="FreeSans" font-size="10.00">KalmanTrack::getExpPosError</text>
</a>
</g>
</g>
<!-- Node21&#45;&gt;Node83 -->
<g id="edge46" class="edge">
<title>Node21&#45;&gt;Node83</title>
<path fill="none" stroke="midnightblue" d="M253.51,-470.76C242.68,-437.8 220.63,-368.72 206,-309.21 186,-227.87 228.33,-184.33 170,-124.21 166.36,-120.46 162.14,-117.37 157.57,-114.85"/>
<polygon fill="midnightblue" stroke="midnightblue" points="250.27,-472.1 256.73,-480.49 256.92,-469.9 250.27,-472.1"/>
</g>
<!-- Node21&#45;&gt;Node105 -->
<g id="edge47" class="edge">
<title>Node21&#45;&gt;Node105</title>
<path fill="none" stroke="midnightblue" d="M253.31,-470.81C242.16,-437.92 219.67,-368.95 206,-309.21 183.6,-211.35 236.26,-161.64 170,-86.21 162.07,-77.18 151.03,-71.34 139.56,-67.59"/>
<polygon fill="midnightblue" stroke="midnightblue" points="250.08,-472.19 256.62,-480.52 256.7,-469.93 250.08,-472.19"/>
</g>
<!-- Node21&#45;&gt;Node106 -->
<g id="edge48" class="edge">
<title>Node21&#45;&gt;Node106</title>
<path fill="none" stroke="midnightblue" d="M254.62,-470.93C244.18,-432.94 220.85,-345.66 206,-271.21 195.67,-219.4 206.02,-74.86 170,-36.21 163.58,-29.32 155.23,-24.67 146.29,-21.58"/>
<polygon fill="midnightblue" stroke="midnightblue" points="251.28,-471.97 257.32,-480.67 258.03,-470.1 251.28,-471.97"/>
</g>
<!-- Node160 -->
<g id="node50" class="node">
<title>Node160</title>
<g id="a_node50"><a xlink:href="../../db/d8a/classRunParamBase.html#a9b35f11ddb755a62b5d25f7773e0f1ce" target="_top" xlink:title=" ">
<polygon fill="none" stroke="black" points="689.5,-159.71 689.5,-178.71 859.5,-178.71 859.5,-159.71 689.5,-159.71"/>
<text text-anchor="middle" x="774.5" y="-166.71" font-family="FreeSans" font-size="10.00">RunParamBase::SetMapIDbyDB</text>
</a>
</g>
</g>
<!-- Node159&#45;&gt;Node160 -->
<g id="edge54" class="edge">
<title>Node159&#45;&gt;Node160</title>
<path fill="none" stroke="midnightblue" d="M972.75,-338.03C957.33,-302.45 919.29,-226.39 862,-188.21 856.24,-184.38 849.84,-181.3 843.19,-178.84"/>
<polygon fill="midnightblue" stroke="midnightblue" points="969.71,-339.82 976.8,-347.68 976.16,-337.11 969.71,-339.82"/>
</g>
<!-- Node160&#45;&gt;Node18 -->
<g id="edge55" class="edge">
<title>Node160&#45;&gt;Node18</title>
<path fill="none" stroke="midnightblue" d="M710.64,-157.87C680.44,-152.41 644.65,-145.95 615.87,-140.76"/>
<polygon fill="midnightblue" stroke="midnightblue" points="710.19,-161.34 720.65,-159.67 711.43,-154.45 710.19,-161.34"/>
</g>
<!-- Node160&#45;&gt;Node19 -->
<g id="edge56" class="edge">
<title>Node160&#45;&gt;Node19</title>
<path fill="none" stroke="midnightblue" d="M679.38,-169.21C664.06,-169.21 648.41,-169.21 633.77,-169.21"/>
<polygon fill="midnightblue" stroke="midnightblue" points="679.4,-172.71 689.4,-169.21 679.4,-165.71 679.4,-172.71"/>
</g>
<!-- Node160&#45;&gt;Node105 -->
<g id="edge57" class="edge">
<title>Node160&#45;&gt;Node105</title>
<path fill="none" stroke="midnightblue" d="M693.39,-183.61C691.16,-185.01 689.03,-186.54 687,-188.21 655.96,-213.77 684.62,-249.15 651,-271.21 568.33,-325.47 282.31,-334.11 206,-271.21 141.36,-217.94 226.29,-148.25 170,-86.21 162.03,-77.42 151.11,-71.67 139.79,-67.92"/>
<polygon fill="midnightblue" stroke="midnightblue" points="695.22,-186.61 702.39,-178.81 691.92,-180.43 695.22,-186.61"/>
</g>
<!-- Node160&#45;&gt;Node106 -->
<g id="edge58" class="edge">
<title>Node160&#45;&gt;Node106</title>
<path fill="none" stroke="midnightblue" d="M696.92,-182.66C693.47,-184.31 690.14,-186.15 687,-188.21 664.12,-203.25 675.37,-225.73 651,-238.21 580.59,-274.28 548.72,-261.14 473,-238.21 318.1,-191.31 318.74,-100.02 170,-36.21 161.07,-32.38 151.26,-29.27 141.59,-26.76"/>
<polygon fill="midnightblue" stroke="midnightblue" points="698.42,-185.83 706.31,-178.75 695.73,-179.36 698.42,-185.83"/>
</g>
<!-- Node160&#45;&gt;Node157 -->
<g id="edge59" class="edge">
<title>Node160&#45;&gt;Node157</title>
<path fill="none" stroke="midnightblue" d="M699.45,-156.15C695.13,-154.41 690.95,-152.44 687,-150.21 666.75,-138.77 671.28,-123.62 651,-112.21 644.05,-108.3 636.38,-105.2 628.55,-102.73"/>
<polygon fill="midnightblue" stroke="midnightblue" points="698.47,-159.52 709.06,-159.59 700.83,-152.93 698.47,-159.52"/>
</g>
<!-- Node160&#45;&gt;Node158 -->
<g id="edge60" class="edge">
<title>Node160&#45;&gt;Node158</title>
<path fill="none" stroke="midnightblue" d="M717.79,-180.86C689.74,-186.72 655.62,-193.85 626.55,-199.93"/>
<polygon fill="midnightblue" stroke="midnightblue" points="718.75,-184.23 727.82,-178.76 717.32,-177.38 718.75,-184.23"/>
</g>
</g>
</svg>
