<?xml version="1.0" encoding="UTF-8" standalone="no"?>
<!DOCTYPE svg PUBLIC "-//W3C//DTD SVG 1.1//EN"
 "http://www.w3.org/Graphics/SVG/1.1/DTD/svg11.dtd">
<!-- Generated by graphviz version 2.44.0 (0)
 -->
<!-- Title: /dev/shm/kenichi/update&#45;github&#45;e1039&#45;doc/e1039&#45;core/framework/fun4all/Fun4AllServer.h Pages: 1 -->
<svg width="5266pt" height="161pt"
 viewBox="0.00 0.00 5266.00 161.00" xmlns="http://www.w3.org/2000/svg" xmlns:xlink="http://www.w3.org/1999/xlink">
<g id="graph0" class="graph" transform="scale(1 1) rotate(0) translate(4 157)">
<title>/dev/shm/kenichi/update&#45;github&#45;e1039&#45;doc/e1039&#45;core/framework/fun4all/Fun4AllServer.h</title>
<!-- Node1 -->
<g id="node1" class="node">
<title>Node1</title>
<g id="a_node1"><a xlink:title=" ">
<polygon fill="#bfbfbf" stroke="black" points="2410.5,-100.5 2410.5,-152.5 2549.5,-152.5 2549.5,-100.5 2410.5,-100.5"/>
<text text-anchor="start" x="2418.5" y="-140.5" font-family="FreeSans" font-size="10.00">/dev/shm/kenichi/update</text>
<text text-anchor="start" x="2418.5" y="-129.5" font-family="FreeSans" font-size="10.00">&#45;github&#45;e1039&#45;doc/e1039</text>
<text text-anchor="start" x="2418.5" y="-118.5" font-family="FreeSans" font-size="10.00">&#45;core/framework/fun4all</text>
<text text-anchor="middle" x="2480" y="-107.5" font-family="FreeSans" font-size="10.00">/Fun4AllServer.h</text>
</a>
</g>
</g>
<!-- Node2 -->
<g id="node2" class="node">
<title>Node2</title>
<g id="a_node2"><a xlink:href="../../d3/d53/Fun4AllDstInputManager_8cc.html" target="_top" xlink:title=" ">
<polygon fill="none" stroke="black" points="0,-6 0,-58 152,-58 152,-6 0,-6"/>
<text text-anchor="start" x="8" y="-46" font-family="FreeSans" font-size="10.00">/dev/shm/kenichi/update</text>
<text text-anchor="start" x="8" y="-35" font-family="FreeSans" font-size="10.00">&#45;github&#45;e1039&#45;doc/e1039</text>
<text text-anchor="start" x="8" y="-24" font-family="FreeSans" font-size="10.00">&#45;core/framework/fun4all</text>
<text text-anchor="middle" x="76" y="-13" font-family="FreeSans" font-size="10.00">/Fun4AllDstInputManager.cc</text>
</a>
</g>
</g>
<!-- Node1&#45;&gt;Node2 -->
<g id="edge1" class="edge">
<title>Node1&#45;&gt;Node2</title>
<path fill="none" stroke="midnightblue" d="M2400.2,-124.91C2018.07,-121.88 384.36,-106.52 161,-64 153.28,-62.53 145.34,-60.45 137.55,-58.06"/>
<polygon fill="midnightblue" stroke="midnightblue" points="2400.31,-128.41 2410.34,-124.99 2400.37,-121.41 2400.31,-128.41"/>
</g>
<!-- Node3 -->
<g id="node3" class="node">
<title>Node3</title>
<g id="a_node3"><a xlink:href="../../d9/d74/Fun4AllDstOutputManager_8cc.html" target="_top" xlink:title=" ">
<polygon fill="none" stroke="black" points="170.5,-6 170.5,-58 331.5,-58 331.5,-6 170.5,-6"/>
<text text-anchor="start" x="178.5" y="-46" font-family="FreeSans" font-size="10.00">/dev/shm/kenichi/update</text>
<text text-anchor="start" x="178.5" y="-35" font-family="FreeSans" font-size="10.00">&#45;github&#45;e1039&#45;doc/e1039</text>
<text text-anchor="start" x="178.5" y="-24" font-family="FreeSans" font-size="10.00">&#45;core/framework/fun4all</text>
<text text-anchor="middle" x="251" y="-13" font-family="FreeSans" font-size="10.00">/Fun4AllDstOutputManager.cc</text>
</a>
</g>
</g>
<!-- Node1&#45;&gt;Node3 -->
<g id="edge2" class="edge">
<title>Node1&#45;&gt;Node3</title>
<path fill="none" stroke="midnightblue" d="M2400.27,-124.64C2036.86,-120.5 546.16,-101.38 341,-64 332.87,-62.52 324.48,-60.43 316.25,-58.04"/>
<polygon fill="midnightblue" stroke="midnightblue" points="2400.4,-128.14 2410.44,-124.75 2400.48,-121.14 2400.4,-128.14"/>
</g>
<!-- Node4 -->
<g id="node4" class="node">
<title>Node4</title>
<g id="a_node4"><a xlink:href="../../d6/dbe/Fun4AllEventOutputManager_8cc.html" target="_top" xlink:title=" ">
<polygon fill="none" stroke="black" points="350,-6 350,-58 522,-58 522,-6 350,-6"/>
<text text-anchor="start" x="358" y="-46" font-family="FreeSans" font-size="10.00">/dev/shm/kenichi/update</text>
<text text-anchor="start" x="358" y="-35" font-family="FreeSans" font-size="10.00">&#45;github&#45;e1039&#45;doc/e1039</text>
<text text-anchor="start" x="358" y="-24" font-family="FreeSans" font-size="10.00">&#45;core/framework/fun4all</text>
<text text-anchor="middle" x="436" y="-13" font-family="FreeSans" font-size="10.00">/Fun4AllEventOutputManager.cc</text>
</a>
</g>
</g>
<!-- Node1&#45;&gt;Node4 -->
<g id="edge3" class="edge">
<title>Node1&#45;&gt;Node4</title>
<path fill="none" stroke="midnightblue" d="M2400.43,-125.99C2082,-127.49 899.12,-128.51 531,-64 522.46,-62.5 513.63,-60.41 504.95,-58.01"/>
<polygon fill="midnightblue" stroke="midnightblue" points="2400.51,-129.49 2410.49,-125.94 2400.47,-122.49 2400.51,-129.49"/>
</g>
<!-- Node5 -->
<g id="node5" class="node">
<title>Node5</title>
<g id="a_node5"><a xlink:href="../../d2/d3e/Fun4AllFileOutStream_8cc.html" target="_top" xlink:title=" ">
<polygon fill="none" stroke="black" points="540.5,-6 540.5,-58 679.5,-58 679.5,-6 540.5,-6"/>
<text text-anchor="start" x="548.5" y="-46" font-family="FreeSans" font-size="10.00">/dev/shm/kenichi/update</text>
<text text-anchor="start" x="548.5" y="-35" font-family="FreeSans" font-size="10.00">&#45;github&#45;e1039&#45;doc/e1039</text>
<text text-anchor="start" x="548.5" y="-24" font-family="FreeSans" font-size="10.00">&#45;core/framework/fun4all</text>
<text text-anchor="middle" x="610" y="-13" font-family="FreeSans" font-size="10.00">/Fun4AllFileOutStream.cc</text>
</a>
</g>
</g>
<!-- Node1&#45;&gt;Node5 -->
<g id="edge4" class="edge">
<title>Node1&#45;&gt;Node5</title>
<path fill="none" stroke="midnightblue" d="M2400.2,-124.37C2074.69,-119.55 856.7,-99.31 688,-64 680.87,-62.51 673.55,-60.42 666.38,-58.02"/>
<polygon fill="midnightblue" stroke="midnightblue" points="2400.43,-127.88 2410.48,-124.52 2400.53,-120.88 2400.43,-127.88"/>
</g>
<!-- Node6 -->
<g id="node6" class="node">
<title>Node6</title>
<g id="a_node6"><a xlink:href="../../d0/d56/Fun4AllInputManager_8cc.html" target="_top" xlink:title=" ">
<polygon fill="none" stroke="black" points="697.5,-6 697.5,-58 836.5,-58 836.5,-6 697.5,-6"/>
<text text-anchor="start" x="705.5" y="-46" font-family="FreeSans" font-size="10.00">/dev/shm/kenichi/update</text>
<text text-anchor="start" x="705.5" y="-35" font-family="FreeSans" font-size="10.00">&#45;github&#45;e1039&#45;doc/e1039</text>
<text text-anchor="start" x="705.5" y="-24" font-family="FreeSans" font-size="10.00">&#45;core/framework/fun4all</text>
<text text-anchor="middle" x="767" y="-13" font-family="FreeSans" font-size="10.00">/Fun4AllInputManager.cc</text>
</a>
</g>
</g>
<!-- Node1&#45;&gt;Node6 -->
<g id="edge5" class="edge">
<title>Node1&#45;&gt;Node6</title>
<path fill="none" stroke="midnightblue" d="M2400.02,-126.03C2114.73,-127.37 1147.95,-127.03 846,-64 838.93,-62.52 831.68,-60.48 824.56,-58.13"/>
<polygon fill="midnightblue" stroke="midnightblue" points="2400.3,-129.53 2410.28,-125.98 2400.27,-122.53 2400.3,-129.53"/>
</g>
<!-- Node7 -->
<g id="node7" class="node">
<title>Node7</title>
<g id="a_node7"><a xlink:href="../../db/dfa/Fun4AllOutputManager_8cc.html" target="_top" xlink:title=" ">
<polygon fill="none" stroke="black" points="855,-6 855,-58 999,-58 999,-6 855,-6"/>
<text text-anchor="start" x="863" y="-46" font-family="FreeSans" font-size="10.00">/dev/shm/kenichi/update</text>
<text text-anchor="start" x="863" y="-35" font-family="FreeSans" font-size="10.00">&#45;github&#45;e1039&#45;doc/e1039</text>
<text text-anchor="start" x="863" y="-24" font-family="FreeSans" font-size="10.00">&#45;core/framework/fun4all</text>
<text text-anchor="middle" x="927" y="-13" font-family="FreeSans" font-size="10.00">/Fun4AllOutputManager.cc</text>
</a>
</g>
</g>
<!-- Node1&#45;&gt;Node7 -->
<g id="edge6" class="edge">
<title>Node1&#45;&gt;Node7</title>
<path fill="none" stroke="midnightblue" d="M2400.01,-125.55C2133.51,-125.2 1277.44,-119.64 1008,-64 1000.77,-62.51 993.35,-60.45 986.06,-58.1"/>
<polygon fill="midnightblue" stroke="midnightblue" points="2400.37,-129.05 2410.38,-125.56 2400.38,-122.05 2400.37,-129.05"/>
</g>
<!-- Node8 -->
<g id="node8" class="node">
<title>Node8</title>
<g id="a_node8"><a xlink:href="../../da/d7b/Fun4AllPrdfInputManager_8cc.html" target="_top" xlink:title=" ">
<polygon fill="none" stroke="black" points="1017.5,-6 1017.5,-58 1172.5,-58 1172.5,-6 1017.5,-6"/>
<text text-anchor="start" x="1025.5" y="-46" font-family="FreeSans" font-size="10.00">/dev/shm/kenichi/update</text>
<text text-anchor="start" x="1025.5" y="-35" font-family="FreeSans" font-size="10.00">&#45;github&#45;e1039&#45;doc/e1039</text>
<text text-anchor="start" x="1025.5" y="-24" font-family="FreeSans" font-size="10.00">&#45;core/framework/fun4all</text>
<text text-anchor="middle" x="1095" y="-13" font-family="FreeSans" font-size="10.00">/Fun4AllPrdfInputManager.cc</text>
</a>
</g>
</g>
<!-- Node1&#45;&gt;Node8 -->
<g id="edge7" class="edge">
<title>Node1&#45;&gt;Node8</title>
<path fill="none" stroke="midnightblue" d="M2400,-124.83C2154.79,-122.28 1416.07,-110.83 1181,-64 1173.37,-62.48 1165.52,-60.41 1157.79,-58.05"/>
<polygon fill="midnightblue" stroke="midnightblue" points="2400.22,-128.33 2410.26,-124.93 2400.29,-121.33 2400.22,-128.33"/>
</g>
<!-- Node9 -->
<g id="node9" class="node">
<title>Node9</title>
<g id="a_node9"><a xlink:href="../../db/d70/Fun4AllRolloverFileOutStream_8cc.html" target="_top" xlink:title=" ">
<polygon fill="none" stroke="black" points="1190.5,-6 1190.5,-58 1369.5,-58 1369.5,-6 1190.5,-6"/>
<text text-anchor="start" x="1198.5" y="-46" font-family="FreeSans" font-size="10.00">/dev/shm/kenichi/update</text>
<text text-anchor="start" x="1198.5" y="-35" font-family="FreeSans" font-size="10.00">&#45;github&#45;e1039&#45;doc/e1039</text>
<text text-anchor="start" x="1198.5" y="-24" font-family="FreeSans" font-size="10.00">&#45;core/framework/fun4all</text>
<text text-anchor="middle" x="1280" y="-13" font-family="FreeSans" font-size="10.00">/Fun4AllRolloverFileOutStream.cc</text>
</a>
</g>
</g>
<!-- Node1&#45;&gt;Node9 -->
<g id="edge8" class="edge">
<title>Node1&#45;&gt;Node9</title>
<path fill="none" stroke="midnightblue" d="M2400.37,-123.64C2181.57,-118.13 1574.44,-99.96 1378,-64 1369.49,-62.44 1360.68,-60.36 1352,-58.01"/>
<polygon fill="midnightblue" stroke="midnightblue" points="2400.41,-127.15 2410.49,-123.9 2400.58,-120.15 2400.41,-127.15"/>
</g>
<!-- Node10 -->
<g id="node10" class="node">
<title>Node10</title>
<g id="a_node10"><a xlink:href="../../d8/d7a/Fun4AllServer_8cc.html" target="_top" xlink:title=" ">
<polygon fill="none" stroke="black" points="1387.5,-6 1387.5,-58 1526.5,-58 1526.5,-6 1387.5,-6"/>
<text text-anchor="start" x="1395.5" y="-46" font-family="FreeSans" font-size="10.00">/dev/shm/kenichi/update</text>
<text text-anchor="start" x="1395.5" y="-35" font-family="FreeSans" font-size="10.00">&#45;github&#45;e1039&#45;doc/e1039</text>
<text text-anchor="start" x="1395.5" y="-24" font-family="FreeSans" font-size="10.00">&#45;core/framework/fun4all</text>
<text text-anchor="middle" x="1457" y="-13" font-family="FreeSans" font-size="10.00">/Fun4AllServer.cc</text>
</a>
</g>
</g>
<!-- Node1&#45;&gt;Node10 -->
<g id="edge9" class="edge">
<title>Node1&#45;&gt;Node10</title>
<path fill="none" stroke="midnightblue" d="M2400.11,-123.51C2203.24,-118.09 1698.87,-100.93 1535,-64 1528.18,-62.46 1521.17,-60.41 1514.29,-58.09"/>
<polygon fill="midnightblue" stroke="midnightblue" points="2400.29,-127.02 2410.38,-123.79 2400.48,-120.02 2400.29,-127.02"/>
</g>
<!-- Node11 -->
<g id="node11" class="node">
<title>Node11</title>
<g id="a_node11"><a xlink:href="../../df/d03/Fun4AllSyncManager_8cc.html" target="_top" xlink:title=" ">
<polygon fill="none" stroke="black" points="1544.5,-6 1544.5,-58 1683.5,-58 1683.5,-6 1544.5,-6"/>
<text text-anchor="start" x="1552.5" y="-46" font-family="FreeSans" font-size="10.00">/dev/shm/kenichi/update</text>
<text text-anchor="start" x="1552.5" y="-35" font-family="FreeSans" font-size="10.00">&#45;github&#45;e1039&#45;doc/e1039</text>
<text text-anchor="start" x="1552.5" y="-24" font-family="FreeSans" font-size="10.00">&#45;core/framework/fun4all</text>
<text text-anchor="middle" x="1614" y="-13" font-family="FreeSans" font-size="10.00">/Fun4AllSyncManager.cc</text>
</a>
</g>
</g>
<!-- Node1&#45;&gt;Node11 -->
<g id="edge10" class="edge">
<title>Node1&#45;&gt;Node11</title>
<path fill="none" stroke="midnightblue" d="M2400.39,-122.32C2228.02,-114.94 1825.1,-94.9 1692,-64 1685.19,-62.42 1678.19,-60.34 1671.31,-58.01"/>
<polygon fill="midnightblue" stroke="midnightblue" points="2400.27,-125.82 2410.41,-122.75 2400.57,-118.82 2400.27,-125.82"/>
</g>
<!-- Node12 -->
<g id="node12" class="node">
<title>Node12</title>
<g id="a_node12"><a xlink:href="../../d4/d0c/Fun4AllHepMCInputManager_8cc.html" target="_top" xlink:title=" ">
<polygon fill="none" stroke="black" points="1701.5,-6 1701.5,-58 1872.5,-58 1872.5,-6 1701.5,-6"/>
<text text-anchor="start" x="1709.5" y="-46" font-family="FreeSans" font-size="10.00">/dev/shm/kenichi/update</text>
<text text-anchor="start" x="1709.5" y="-35" font-family="FreeSans" font-size="10.00">&#45;github&#45;e1039&#45;doc/e1039</text>
<text text-anchor="start" x="1709.5" y="-24" font-family="FreeSans" font-size="10.00">&#45;core/generators/phhepmc</text>
<text text-anchor="middle" x="1787" y="-13" font-family="FreeSans" font-size="10.00">/Fun4AllHepMCInputManager.cc</text>
</a>
</g>
</g>
<!-- Node1&#45;&gt;Node12 -->
<g id="edge11" class="edge">
<title>Node1&#45;&gt;Node12</title>
<path fill="none" stroke="midnightblue" d="M2399.88,-122.77C2284.17,-117.6 2064.1,-103.11 1881,-64 1873.27,-62.35 1865.28,-60.29 1857.38,-58.02"/>
<polygon fill="midnightblue" stroke="midnightblue" points="2399.92,-126.28 2410.06,-123.22 2400.23,-119.28 2399.92,-126.28"/>
</g>
<!-- Node13 -->
<g id="node13" class="node">
<title>Node13</title>
<g id="a_node13"><a xlink:href="../../d6/d39/Fun4AllHepMCOutputManager_8cc.html" target="_top" xlink:title=" ">
<polygon fill="none" stroke="black" points="1890.5,-6 1890.5,-58 2069.5,-58 2069.5,-6 1890.5,-6"/>
<text text-anchor="start" x="1898.5" y="-46" font-family="FreeSans" font-size="10.00">/dev/shm/kenichi/update</text>
<text text-anchor="start" x="1898.5" y="-35" font-family="FreeSans" font-size="10.00">&#45;github&#45;e1039&#45;doc/e1039</text>
<text text-anchor="start" x="1898.5" y="-24" font-family="FreeSans" font-size="10.00">&#45;core/generators/phhepmc</text>
<text text-anchor="middle" x="1980" y="-13" font-family="FreeSans" font-size="10.00">/Fun4AllHepMCOutputManager.cc</text>
</a>
</g>
</g>
<!-- Node1&#45;&gt;Node13 -->
<g id="edge12" class="edge">
<title>Node1&#45;&gt;Node13</title>
<path fill="none" stroke="midnightblue" d="M2400.18,-116.98C2318.56,-107.4 2188.45,-89.75 2078,-64 2070.53,-62.26 2062.8,-60.23 2055.11,-58.05"/>
<polygon fill="midnightblue" stroke="midnightblue" points="2400.04,-120.48 2410.38,-118.16 2400.85,-113.53 2400.04,-120.48"/>
</g>
<!-- Node14 -->
<g id="node14" class="node">
<title>Node14</title>
<g id="a_node14"><a xlink:href="../../d6/dde/Fun4AllHepMCPileupInputManager_8cc.html" target="_top" xlink:title=" ">
<polygon fill="none" stroke="black" points="2087.5,-6 2087.5,-58 2288.5,-58 2288.5,-6 2087.5,-6"/>
<text text-anchor="start" x="2095.5" y="-46" font-family="FreeSans" font-size="10.00">/dev/shm/kenichi/update</text>
<text text-anchor="start" x="2095.5" y="-35" font-family="FreeSans" font-size="10.00">&#45;github&#45;e1039&#45;doc/e1039</text>
<text text-anchor="start" x="2095.5" y="-24" font-family="FreeSans" font-size="10.00">&#45;core/generators/phhepmc</text>
<text text-anchor="middle" x="2188" y="-13" font-family="FreeSans" font-size="10.00">/Fun4AllHepMCPileupInputManager.cc</text>
</a>
</g>
</g>
<!-- Node1&#45;&gt;Node14 -->
<g id="edge13" class="edge">
<title>Node1&#45;&gt;Node14</title>
<path fill="none" stroke="midnightblue" d="M2400.64,-100.36C2359.15,-87.22 2308.53,-71.18 2267.09,-58.05"/>
<polygon fill="midnightblue" stroke="midnightblue" points="2399.84,-103.78 2410.43,-103.46 2401.95,-97.1 2399.84,-103.78"/>
</g>
<!-- Node15 -->
<g id="node15" class="node">
<title>Node15</title>
<g id="a_node15"><a xlink:href="../../db/dbe/Fun4AllOscarInputManager_8cc.html" target="_top" xlink:title=" ">
<polygon fill="none" stroke="black" points="2307,-6 2307,-58 2471,-58 2471,-6 2307,-6"/>
<text text-anchor="start" x="2315" y="-46" font-family="FreeSans" font-size="10.00">/dev/shm/kenichi/update</text>
<text text-anchor="start" x="2315" y="-35" font-family="FreeSans" font-size="10.00">&#45;github&#45;e1039&#45;doc/e1039</text>
<text text-anchor="start" x="2315" y="-24" font-family="FreeSans" font-size="10.00">&#45;core/generators/phhepmc</text>
<text text-anchor="middle" x="2389" y="-13" font-family="FreeSans" font-size="10.00">/Fun4AllOscarInputManager.cc</text>
</a>
</g>
</g>
<!-- Node1&#45;&gt;Node15 -->
<g id="edge14" class="edge">
<title>Node1&#45;&gt;Node15</title>
<path fill="none" stroke="midnightblue" d="M2447.98,-92.95C2436.77,-81.56 2424.37,-68.95 2413.84,-58.25"/>
<polygon fill="midnightblue" stroke="midnightblue" points="2445.63,-95.55 2455.13,-100.22 2450.62,-90.64 2445.63,-95.55"/>
</g>
<!-- Node16 -->
<g id="node16" class="node">
<title>Node16</title>
<g id="a_node16"><a xlink:href="../../de/d00/Fun4AllEVIOInputManager_8cc.html" target="_top" xlink:title=" ">
<polygon fill="none" stroke="black" points="2489,-6 2489,-58 2653,-58 2653,-6 2489,-6"/>
<text text-anchor="start" x="2497" y="-46" font-family="FreeSans" font-size="10.00">/dev/shm/kenichi/update</text>
<text text-anchor="start" x="2497" y="-35" font-family="FreeSans" font-size="10.00">&#45;github&#45;e1039&#45;doc/e1039</text>
<text text-anchor="start" x="2497" y="-24" font-family="FreeSans" font-size="10.00">&#45;core/online/decoder_maindaq</text>
<text text-anchor="middle" x="2571" y="-13" font-family="FreeSans" font-size="10.00">/Fun4AllEVIOInputManager.cc</text>
</a>
</g>
</g>
<!-- Node1&#45;&gt;Node16 -->
<g id="edge15" class="edge">
<title>Node1&#45;&gt;Node16</title>
<path fill="none" stroke="midnightblue" d="M2512.02,-92.95C2523.23,-81.56 2535.63,-68.95 2546.16,-58.25"/>
<polygon fill="midnightblue" stroke="midnightblue" points="2509.38,-90.64 2504.87,-100.22 2514.37,-95.55 2509.38,-90.64"/>
</g>
<!-- Node17 -->
<g id="node17" class="node">
<title>Node17</title>
<g id="a_node17"><a xlink:href="../../d1/d53/Fun4AllSpillDstOutputManager_8cc.html" target="_top" xlink:title=" ">
<polygon fill="none" stroke="black" points="2671,-6 2671,-58 2853,-58 2853,-6 2671,-6"/>
<text text-anchor="start" x="2679" y="-46" font-family="FreeSans" font-size="10.00">/dev/shm/kenichi/update</text>
<text text-anchor="start" x="2679" y="-35" font-family="FreeSans" font-size="10.00">&#45;github&#45;e1039&#45;doc/e1039</text>
<text text-anchor="start" x="2679" y="-24" font-family="FreeSans" font-size="10.00">&#45;core/online/decoder_maindaq</text>
<text text-anchor="middle" x="2762" y="-13" font-family="FreeSans" font-size="10.00">/Fun4AllSpillDstOutputManager.cc</text>
</a>
</g>
</g>
<!-- Node1&#45;&gt;Node17 -->
<g id="edge16" class="edge">
<title>Node1&#45;&gt;Node17</title>
<path fill="none" stroke="midnightblue" d="M2559.32,-99.48C2598.89,-86.5 2646.52,-70.88 2685.67,-58.04"/>
<polygon fill="midnightblue" stroke="midnightblue" points="2558.12,-96.19 2549.71,-102.63 2560.3,-102.84 2558.12,-96.19"/>
</g>
<!-- Node18 -->
<g id="node18" class="node">
<title>Node18</title>
<g id="a_node18"><a xlink:href="../../df/d97/Fun4AllTriggerDstOutputManager_8cc.html" target="_top" xlink:title=" ">
<polygon fill="none" stroke="black" points="2871,-6 2871,-58 3065,-58 3065,-6 2871,-6"/>
<text text-anchor="start" x="2879" y="-46" font-family="FreeSans" font-size="10.00">/dev/shm/kenichi/update</text>
<text text-anchor="start" x="2879" y="-35" font-family="FreeSans" font-size="10.00">&#45;github&#45;e1039&#45;doc/e1039</text>
<text text-anchor="start" x="2879" y="-24" font-family="FreeSans" font-size="10.00">&#45;core/online/decoder_maindaq</text>
<text text-anchor="middle" x="2968" y="-13" font-family="FreeSans" font-size="10.00">/Fun4AllTriggerDstOutputManager.cc</text>
</a>
</g>
</g>
<!-- Node1&#45;&gt;Node18 -->
<g id="edge17" class="edge">
<title>Node1&#45;&gt;Node18</title>
<path fill="none" stroke="midnightblue" d="M2559.7,-115.62C2637.36,-105.3 2758.53,-87.36 2862,-64 2869.86,-62.23 2877.99,-60.2 2886.09,-58.05"/>
<polygon fill="midnightblue" stroke="midnightblue" points="2558.96,-112.19 2549.51,-116.97 2559.88,-119.13 2558.96,-112.19"/>
</g>
<!-- Node19 -->
<g id="node19" class="node">
<title>Node19</title>
<g id="a_node19"><a xlink:href="../../d1/d51/PHFieldUtility_8cc.html" target="_top" xlink:title=" ">
<polygon fill="none" stroke="black" points="3083,-11.5 3083,-52.5 3295,-52.5 3295,-11.5 3083,-11.5"/>
<text text-anchor="start" x="3091" y="-40.5" font-family="FreeSans" font-size="10.00">/dev/shm/kenichi/update</text>
<text text-anchor="start" x="3091" y="-29.5" font-family="FreeSans" font-size="10.00">&#45;github&#45;e1039&#45;doc/e1039</text>
<text text-anchor="middle" x="3189" y="-18.5" font-family="FreeSans" font-size="10.00">&#45;core/packages/PHField/PHFieldUtility.cc</text>
</a>
</g>
</g>
<!-- Node1&#45;&gt;Node19 -->
<g id="edge18" class="edge">
<title>Node1&#45;&gt;Node19</title>
<path fill="none" stroke="midnightblue" d="M2559.65,-121.32C2674.18,-114.38 2891.68,-97.79 3074,-64 3090.27,-60.99 3107.6,-56.83 3123.74,-52.54"/>
<polygon fill="midnightblue" stroke="midnightblue" points="2559.34,-117.83 2549.56,-121.92 2559.75,-124.82 2559.34,-117.83"/>
</g>
<!-- Node20 -->
<g id="node20" class="node">
<title>Node20</title>
<g id="a_node20"><a xlink:href="../../d5/dc7/Fun4AllSRawEventInputManager_8cxx.html" target="_top" xlink:title=" ">
<polygon fill="none" stroke="black" points="3313.5,-6 3313.5,-58 3510.5,-58 3510.5,-6 3313.5,-6"/>
<text text-anchor="start" x="3321.5" y="-46" font-family="FreeSans" font-size="10.00">/dev/shm/kenichi/update</text>
<text text-anchor="start" x="3321.5" y="-35" font-family="FreeSans" font-size="10.00">&#45;github&#45;e1039&#45;doc/e1039</text>
<text text-anchor="start" x="3321.5" y="-24" font-family="FreeSans" font-size="10.00">&#45;core/packages/reco/ktracker</text>
<text text-anchor="middle" x="3412" y="-13" font-family="FreeSans" font-size="10.00">/Fun4AllSRawEventInputManager.cxx</text>
</a>
</g>
</g>
<!-- Node1&#45;&gt;Node20 -->
<g id="edge19" class="edge">
<title>Node1&#45;&gt;Node20</title>
<path fill="none" stroke="midnightblue" d="M2559.85,-124.96C2707.8,-122.75 3034.06,-112.29 3304,-64 3313.03,-62.39 3322.38,-60.32 3331.63,-58.02"/>
<polygon fill="midnightblue" stroke="midnightblue" points="2559.46,-121.46 2549.51,-125.1 2559.56,-128.46 2559.46,-121.46"/>
</g>
<!-- Node21 -->
<g id="node21" class="node">
<title>Node21</title>
<g id="a_node21"><a xlink:href="../../d3/d1e/Fun4AllRUSInputManager_8cc.html" target="_top" xlink:title=" ">
<polygon fill="none" stroke="black" points="3528.5,-6 3528.5,-58 3725.5,-58 3725.5,-6 3528.5,-6"/>
<text text-anchor="start" x="3536.5" y="-46" font-family="FreeSans" font-size="10.00">/dev/shm/kenichi/update</text>
<text text-anchor="start" x="3536.5" y="-35" font-family="FreeSans" font-size="10.00">&#45;github&#45;e1039&#45;doc/e1039</text>
<text text-anchor="start" x="3536.5" y="-24" font-family="FreeSans" font-size="10.00">&#45;core/packages/RUS/Fun4AllRUSInput</text>
<text text-anchor="middle" x="3627" y="-13" font-family="FreeSans" font-size="10.00">Manager.cc</text>
</a>
</g>
</g>
<!-- Node1&#45;&gt;Node21 -->
<g id="edge20" class="edge">
<title>Node1&#45;&gt;Node21</title>
<path fill="none" stroke="midnightblue" d="M2559.86,-123.08C2770.15,-116.34 3335.64,-95.75 3520,-64 3529.15,-62.42 3538.63,-60.35 3547.99,-58.02"/>
<polygon fill="midnightblue" stroke="midnightblue" points="2559.7,-119.58 2549.82,-123.4 2559.93,-126.58 2559.7,-119.58"/>
</g>
<!-- Node22 -->
<g id="node22" class="node">
<title>Node22</title>
<g id="a_node22"><a xlink:href="../../dc/d32/PHG4BlockCellReco_8cc.html" target="_top" xlink:title=" ">
<polygon fill="none" stroke="black" points="3743.5,-6 3743.5,-58 3900.5,-58 3900.5,-6 3743.5,-6"/>
<text text-anchor="start" x="3751.5" y="-46" font-family="FreeSans" font-size="10.00">/dev/shm/kenichi/update</text>
<text text-anchor="start" x="3751.5" y="-35" font-family="FreeSans" font-size="10.00">&#45;github&#45;e1039&#45;doc/e1039</text>
<text text-anchor="start" x="3751.5" y="-24" font-family="FreeSans" font-size="10.00">&#45;core/simulation/g4detectors</text>
<text text-anchor="middle" x="3822" y="-13" font-family="FreeSans" font-size="10.00">/PHG4BlockCellReco.cc</text>
</a>
</g>
</g>
<!-- Node1&#45;&gt;Node22 -->
<g id="edge21" class="edge">
<title>Node1&#45;&gt;Node22</title>
<path fill="none" stroke="midnightblue" d="M2559.78,-124.64C2799.14,-121.58 3508.62,-108.86 3735,-64 3742.71,-62.47 3750.65,-60.39 3758.46,-58.03"/>
<polygon fill="midnightblue" stroke="midnightblue" points="2559.71,-121.14 2549.76,-124.77 2559.8,-128.14 2559.71,-121.14"/>
</g>
<!-- Node23 -->
<g id="node23" class="node">
<title>Node23</title>
<g id="a_node23"><a xlink:href="../../dd/da5/PHG4CylinderCellReco_8cc.html" target="_top" xlink:title=" ">
<polygon fill="none" stroke="black" points="3918.5,-6 3918.5,-58 4075.5,-58 4075.5,-6 3918.5,-6"/>
<text text-anchor="start" x="3926.5" y="-46" font-family="FreeSans" font-size="10.00">/dev/shm/kenichi/update</text>
<text text-anchor="start" x="3926.5" y="-35" font-family="FreeSans" font-size="10.00">&#45;github&#45;e1039&#45;doc/e1039</text>
<text text-anchor="start" x="3926.5" y="-24" font-family="FreeSans" font-size="10.00">&#45;core/simulation/g4detectors</text>
<text text-anchor="middle" x="3997" y="-13" font-family="FreeSans" font-size="10.00">/PHG4CylinderCellReco.cc</text>
</a>
</g>
</g>
<!-- Node1&#45;&gt;Node23 -->
<g id="edge22" class="edge">
<title>Node1&#45;&gt;Node23</title>
<path fill="none" stroke="midnightblue" d="M2559.9,-125.2C2821.17,-123.72 3648.41,-115.03 3910,-64 3917.71,-62.5 3925.66,-60.43 3933.47,-58.08"/>
<polygon fill="midnightblue" stroke="midnightblue" points="2559.71,-121.7 2549.73,-125.25 2559.75,-128.7 2559.71,-121.7"/>
</g>
<!-- Node24 -->
<g id="node24" class="node">
<title>Node24</title>
<g id="a_node24"><a xlink:href="../../da/d12/PHG4CylinderCellTPCReco_8cc.html" target="_top" xlink:title=" ">
<polygon fill="none" stroke="black" points="4094,-6 4094,-58 4256,-58 4256,-6 4094,-6"/>
<text text-anchor="start" x="4102" y="-46" font-family="FreeSans" font-size="10.00">/dev/shm/kenichi/update</text>
<text text-anchor="start" x="4102" y="-35" font-family="FreeSans" font-size="10.00">&#45;github&#45;e1039&#45;doc/e1039</text>
<text text-anchor="start" x="4102" y="-24" font-family="FreeSans" font-size="10.00">&#45;core/simulation/g4detectors</text>
<text text-anchor="middle" x="4175" y="-13" font-family="FreeSans" font-size="10.00">/PHG4CylinderCellTPCReco.cc</text>
</a>
</g>
</g>
<!-- Node1&#45;&gt;Node24 -->
<g id="edge23" class="edge">
<title>Node1&#45;&gt;Node24</title>
<path fill="none" stroke="midnightblue" d="M2559.91,-125.53C2841.65,-125.14 3787.69,-119.64 4085,-64 4092.96,-62.51 4101.17,-60.46 4109.24,-58.11"/>
<polygon fill="midnightblue" stroke="midnightblue" points="2559.77,-122.03 2549.77,-125.54 2559.78,-129.03 2559.77,-122.03"/>
</g>
<!-- Node25 -->
<g id="node25" class="node">
<title>Node25</title>
<g id="a_node25"><a xlink:href="../../d7/d54/PHG4GDMLUtility_8cc.html" target="_top" xlink:title=" ">
<polygon fill="none" stroke="black" points="4274.5,-6 4274.5,-58 4413.5,-58 4413.5,-6 4274.5,-6"/>
<text text-anchor="start" x="4282.5" y="-46" font-family="FreeSans" font-size="10.00">/dev/shm/kenichi/update</text>
<text text-anchor="start" x="4282.5" y="-35" font-family="FreeSans" font-size="10.00">&#45;github&#45;e1039&#45;doc/e1039</text>
<text text-anchor="start" x="4282.5" y="-24" font-family="FreeSans" font-size="10.00">&#45;core/simulation/g4gdml</text>
<text text-anchor="middle" x="4344" y="-13" font-family="FreeSans" font-size="10.00">/PHG4GDMLUtility.cc</text>
</a>
</g>
</g>
<!-- Node1&#45;&gt;Node25 -->
<g id="edge24" class="edge">
<title>Node1&#45;&gt;Node25</title>
<path fill="none" stroke="midnightblue" d="M2559.76,-124.34C2884.38,-119.41 4096.93,-98.8 4265,-64 4272.21,-62.51 4279.62,-60.41 4286.88,-58.01"/>
<polygon fill="midnightblue" stroke="midnightblue" points="2559.45,-120.85 2549.5,-124.5 2559.55,-127.84 2559.45,-120.85"/>
</g>
<!-- Node26 -->
<g id="node26" class="node">
<title>Node26</title>
<g id="a_node26"><a xlink:href="../../de/d4e/G4TBMagneticFieldSetup_8cc.html" target="_top" xlink:title=" ">
<polygon fill="none" stroke="black" points="4431.5,-6 4431.5,-58 4586.5,-58 4586.5,-6 4431.5,-6"/>
<text text-anchor="start" x="4439.5" y="-46" font-family="FreeSans" font-size="10.00">/dev/shm/kenichi/update</text>
<text text-anchor="start" x="4439.5" y="-35" font-family="FreeSans" font-size="10.00">&#45;github&#45;e1039&#45;doc/e1039</text>
<text text-anchor="start" x="4439.5" y="-24" font-family="FreeSans" font-size="10.00">&#45;core/simulation/g4main</text>
<text text-anchor="middle" x="4509" y="-13" font-family="FreeSans" font-size="10.00">/G4TBMagneticFieldSetup.cc</text>
</a>
</g>
</g>
<!-- Node1&#45;&gt;Node26 -->
<g id="edge25" class="edge">
<title>Node1&#45;&gt;Node26</title>
<path fill="none" stroke="midnightblue" d="M2559.63,-124.45C2901.8,-119.76 4238.25,-99.3 4423,-64 4430.79,-62.51 4438.82,-60.42 4446.7,-58.02"/>
<polygon fill="midnightblue" stroke="midnightblue" points="2559.51,-120.96 2549.56,-124.59 2559.6,-127.95 2559.51,-120.96"/>
</g>
<!-- Node27 -->
<g id="node27" class="node">
<title>Node27</title>
<g id="a_node27"><a xlink:href="../../df/d5d/Fun4AllHitMatrixInputManager_8cc.html" target="_top" xlink:title=" ">
<polygon fill="none" stroke="black" points="4604.5,-6 4604.5,-58 4803.5,-58 4803.5,-6 4604.5,-6"/>
<text text-anchor="start" x="4612.5" y="-46" font-family="FreeSans" font-size="10.00">/dev/shm/kenichi/update</text>
<text text-anchor="start" x="4612.5" y="-35" font-family="FreeSans" font-size="10.00">&#45;github&#45;e1039&#45;doc/e1039</text>
<text text-anchor="start" x="4612.5" y="-24" font-family="FreeSans" font-size="10.00">&#45;analysis/AnaCustomFile</text>
<text text-anchor="middle" x="4704" y="-13" font-family="FreeSans" font-size="10.00">/src/Fun4AllHitMatrixInputManager.cc</text>
</a>
</g>
</g>
<!-- Node1&#45;&gt;Node27 -->
<g id="edge26" class="edge">
<title>Node1&#45;&gt;Node27</title>
<path fill="none" stroke="midnightblue" d="M2559.83,-125.85C2895.35,-126.9 4192.54,-126.75 4596,-64 4605.64,-62.5 4615.63,-60.41 4625.47,-58"/>
<polygon fill="midnightblue" stroke="midnightblue" points="2559.72,-122.35 2549.71,-125.82 2559.7,-129.35 2559.72,-122.35"/>
</g>
<!-- Node28 -->
<g id="node28" class="node">
<title>Node28</title>
<g id="a_node28"><a xlink:href="../../da/d95/Fun4AllTrackQAv1InputManager_8cc.html" target="_top" xlink:title=" ">
<polygon fill="none" stroke="black" points="4822,-6 4822,-58 5026,-58 5026,-6 4822,-6"/>
<text text-anchor="start" x="4830" y="-46" font-family="FreeSans" font-size="10.00">/dev/shm/kenichi/update</text>
<text text-anchor="start" x="4830" y="-35" font-family="FreeSans" font-size="10.00">&#45;github&#45;e1039&#45;doc/e1039</text>
<text text-anchor="start" x="4830" y="-24" font-family="FreeSans" font-size="10.00">&#45;analysis/AnaCustomFile</text>
<text text-anchor="middle" x="4924" y="-13" font-family="FreeSans" font-size="10.00">/src/Fun4AllTrackQAv1InputManager.cc</text>
</a>
</g>
</g>
<!-- Node1&#45;&gt;Node28 -->
<g id="edge27" class="edge">
<title>Node1&#45;&gt;Node28</title>
<path fill="none" stroke="midnightblue" d="M2559.9,-124.56C2943.47,-119.89 4586.75,-98.04 4813,-64 4822.89,-62.51 4833.16,-60.42 4843.27,-58.02"/>
<polygon fill="midnightblue" stroke="midnightblue" points="2559.68,-121.06 2549.73,-124.68 2559.77,-128.06 2559.68,-121.06"/>
</g>
<!-- Node29 -->
<g id="node29" class="node">
<title>Node29</title>
<g id="a_node29"><a xlink:href="../../d4/dfa/Fun4AllVectEventInputManager_8cc.html" target="_top" xlink:title=" ">
<polygon fill="none" stroke="black" points="5044,-0.5 5044,-63.5 5258,-63.5 5258,-0.5 5044,-0.5"/>
<text text-anchor="start" x="5052" y="-51.5" font-family="FreeSans" font-size="10.00">/dev/shm/kenichi/update</text>
<text text-anchor="start" x="5052" y="-40.5" font-family="FreeSans" font-size="10.00">&#45;github&#45;e1039&#45;doc/e1039</text>
<text text-anchor="start" x="5052" y="-29.5" font-family="FreeSans" font-size="10.00">&#45;analysis/Fun4AllVectFileManager</text>
<text text-anchor="start" x="5052" y="-18.5" font-family="FreeSans" font-size="10.00">/Fun4AllVectFileManager/src/Fun4AllVect</text>
<text text-anchor="middle" x="5151" y="-7.5" font-family="FreeSans" font-size="10.00">EventInputManager.cc</text>
</a>
</g>
</g>
<!-- Node1&#45;&gt;Node29 -->
<g id="edge28" class="edge">
<title>Node1&#45;&gt;Node29</title>
<path fill="none" stroke="midnightblue" d="M2559.77,-124.71C2964.95,-120.52 4785.43,-99.83 5035,-64 5037.89,-63.59 5040.81,-63.12 5043.75,-62.62"/>
<polygon fill="midnightblue" stroke="midnightblue" points="2559.58,-121.21 2549.62,-124.81 2559.65,-128.21 2559.58,-121.21"/>
</g>
</g>
</svg>
