<?xml version="1.0" encoding="UTF-8" standalone="no"?>
<!DOCTYPE svg PUBLIC "-//W3C//DTD SVG 1.1//EN"
 "http://www.w3.org/Graphics/SVG/1.1/DTD/svg11.dtd">
<!-- Generated by graphviz version 2.30.1 (20180413.0232)
 -->
<!-- Title: EventReducer::sagittaReducer Pages: 1 -->
<svg width="502pt" height="77pt"
 viewBox="0.00 0.00 502.00 77.00" xmlns="http://www.w3.org/2000/svg" xmlns:xlink="http://www.w3.org/1999/xlink">
<g id="graph0" class="graph" transform="scale(1 1) rotate(0) translate(4 73)">
<title>EventReducer::sagittaReducer</title>
<!-- Node1 -->
<g id="node1" class="node"><title>Node1</title>
<polygon fill="#bfbfbf" stroke="black" points="0,-27.5 0,-46.5 146,-46.5 146,-27.5 0,-27.5"/>
<text text-anchor="middle" x="73" y="-34.5" font-family="FreeSans" font-size="10.00">EventReducer::sagittaReducer</text>
</g>
<!-- Node2 -->
<g id="node2" class="node"><title>Node2</title>
<g id="a_node2"><a xlink:href="../../d5/dda/classEventReducer.html#af72954cea31bb7b3b3f122c3067b632c" target="_top" xlink:title="EventReducer::reduceEvent">
<polygon fill="none" stroke="black" points="182,-27.5 182,-46.5 316,-46.5 316,-27.5 182,-27.5"/>
<text text-anchor="middle" x="249" y="-34.5" font-family="FreeSans" font-size="10.00">EventReducer::reduceEvent</text>
</a>
</g>
</g>
<!-- Node1&#45;&gt;Node2 -->
<g id="edge1" class="edge"><title>Node1&#45;&gt;Node2</title>
<path fill="none" stroke="midnightblue" d="M156.117,-37C164.754,-37 173.456,-37 181.879,-37"/>
<polygon fill="midnightblue" stroke="midnightblue" points="156.029,-33.5001 146.028,-37 156.028,-40.5001 156.029,-33.5001"/>
</g>
<!-- Node3 -->
<g id="node3" class="node"><title>Node3</title>
<g id="a_node3"><a xlink:href="../../df/df2/classSQReco.html#a4d308ea90b8cd7c24a235f32debd6ddb" target="_top" xlink:title="SQReco::process_event">
<polygon fill="none" stroke="black" points="363.5,-49.5 363.5,-68.5 482.5,-68.5 482.5,-49.5 363.5,-49.5"/>
<text text-anchor="middle" x="423" y="-56.5" font-family="FreeSans" font-size="10.00">SQReco::process_event</text>
</a>
</g>
</g>
<!-- Node2&#45;&gt;Node3 -->
<g id="edge2" class="edge"><title>Node2&#45;&gt;Node3</title>
<path fill="none" stroke="midnightblue" d="M326.003,-46.7213C338.57,-48.3287 351.425,-49.973 363.476,-51.5144"/>
<polygon fill="midnightblue" stroke="midnightblue" points="326.371,-43.24 316.008,-45.4429 325.483,-50.1834 326.371,-43.24"/>
</g>
<!-- Node4 -->
<g id="node4" class="node"><title>Node4</title>
<g id="a_node4"><a xlink:href="../../d4/dff/classKalmanFastTrackingWrapper.html#a5edc61b3b9a06f6486b1f22e44f7d63e" target="_top" xlink:title="KalmanFastTrackingWrapper\l::process_event">
<polygon fill="none" stroke="black" points="352,-0 352,-30 494,-30 494,-0 352,-0"/>
<text text-anchor="start" x="360" y="-18" font-family="FreeSans" font-size="10.00">KalmanFastTrackingWrapper</text>
<text text-anchor="middle" x="423" y="-7" font-family="FreeSans" font-size="10.00">::process_event</text>
</a>
</g>
</g>
<!-- Node2&#45;&gt;Node4 -->
<g id="edge3" class="edge"><title>Node2&#45;&gt;Node4</title>
<path fill="none" stroke="midnightblue" d="M326.024,-27.2761C334.626,-26.1757 343.364,-25.0581 351.886,-23.9681"/>
<polygon fill="midnightblue" stroke="midnightblue" points="325.483,-23.8166 316.008,-28.5571 326.371,-30.76 325.483,-23.8166"/>
</g>
</g>
</svg>
