<?xml version="1.0" encoding="UTF-8" standalone="no"?>
<!DOCTYPE svg PUBLIC "-//W3C//DTD SVG 1.1//EN"
 "http://www.w3.org/Graphics/SVG/1.1/DTD/svg11.dtd">
<!-- Generated by graphviz version 2.40.1 (20161225.0304)
 -->
<!-- Title: KalmanFastTrackingWrapper::InitEvalTree Pages: 1 -->
<svg width="516pt" height="61pt"
 viewBox="0.00 0.00 516.00 61.00" xmlns="http://www.w3.org/2000/svg" xmlns:xlink="http://www.w3.org/1999/xlink">
<g id="graph0" class="graph" transform="scale(1 1) rotate(0) translate(4 57)">
<title>KalmanFastTrackingWrapper::InitEvalTree</title>
<!-- Node417 -->
<g id="node1" class="node">
<title>Node417</title>
<polygon fill="#bfbfbf" stroke="#000000" points="0,-.5 0,-30.5 142,-30.5 142,-.5 0,-.5"/>
<text text-anchor="start" x="8" y="-18.5" font-family="FreeSans" font-size="10.00" fill="#000000">KalmanFastTrackingWrapper</text>
<text text-anchor="middle" x="71" y="-7.5" font-family="FreeSans" font-size="10.00" fill="#000000">::InitEvalTree</text>
</g>
<!-- Node418 -->
<g id="node2" class="node">
<title>Node418</title>
<g id="a_node2"><a xlink:href="../../d4/dff/classKalmanFastTrackingWrapper.html#a3bb9169cefe8ea8969f0ec5661baca2b" target="_top" xlink:title="KalmanFastTrackingWrapper\l::InitRun">
<polygon fill="none" stroke="#000000" points="178,-22.5 178,-52.5 320,-52.5 320,-22.5 178,-22.5"/>
<text text-anchor="start" x="186" y="-40.5" font-family="FreeSans" font-size="10.00" fill="#000000">KalmanFastTrackingWrapper</text>
<text text-anchor="middle" x="249" y="-29.5" font-family="FreeSans" font-size="10.00" fill="#000000">::InitRun</text>
</a>
</g>
</g>
<!-- Node417&#45;&gt;Node418 -->
<g id="edge1" class="edge">
<title>Node417&#45;&gt;Node418</title>
<path fill="none" stroke="#191970" d="M152.1702,-25.5323C160.7888,-26.5975 169.506,-27.6749 177.9953,-28.7241"/>
<polygon fill="#191970" stroke="#191970" points="152.4715,-22.043 142.1177,-24.2898 151.6128,-28.9901 152.4715,-22.043"/>
</g>
<!-- Node419 -->
<g id="node3" class="node">
<title>Node419</title>
<g id="a_node3"><a xlink:href="../../d4/dff/classKalmanFastTrackingWrapper.html#a0cae88e6dbda7195c5980e36f5c8ee82" target="_top" xlink:title="KalmanFastTrackingWrapper\l::~KalmanFastTrackingWrapper">
<polygon fill="none" stroke="#000000" points="356,-.5 356,-30.5 508,-30.5 508,-.5 356,-.5"/>
<text text-anchor="start" x="364" y="-18.5" font-family="FreeSans" font-size="10.00" fill="#000000">KalmanFastTrackingWrapper</text>
<text text-anchor="middle" x="432" y="-7.5" font-family="FreeSans" font-size="10.00" fill="#000000">::~KalmanFastTrackingWrapper</text>
</a>
</g>
</g>
<!-- Node417&#45;&gt;Node419 -->
<g id="edge3" class="edge">
<title>Node417&#45;&gt;Node419</title>
<path fill="none" stroke="#191970" d="M152.2504,-13.8222C160.9424,-13.6902 169.654,-13.578 178,-13.5 241.1084,-12.9103 256.8914,-12.9366 320,-13.5 331.5708,-13.6033 343.8133,-13.7666 355.7901,-13.9565"/>
<polygon fill="#191970" stroke="#191970" points="152.0213,-10.3253 142.0788,-13.9854 152.1337,-17.3244 152.0213,-10.3253"/>
</g>
<!-- Node418&#45;&gt;Node419 -->
<g id="edge2" class="edge">
<title>Node418&#45;&gt;Node419</title>
<path fill="none" stroke="#191970" d="M330.027,-27.759C338.6208,-26.7259 347.3394,-25.6778 355.8743,-24.6517"/>
<polygon fill="#191970" stroke="#191970" points="329.5252,-24.2941 320.0145,-28.9627 330.3608,-31.244 329.5252,-24.2941"/>
</g>
</g>
</svg>
