<?xml version="1.0" encoding="UTF-8" standalone="no"?>
<!DOCTYPE svg PUBLIC "-//W3C//DTD SVG 1.1//EN"
 "http://www.w3.org/Graphics/SVG/1.1/DTD/svg11.dtd">
<!-- Generated by graphviz version 2.36.0 (20140111.2315)
 -->
<!-- Title: PHG4FullProjSpacalDetector::PHG4FullProjSpacalDetector Pages: 1 -->
<svg width="1212pt" height="678pt"
 viewBox="0.00 0.00 1212.00 678.00" xmlns="http://www.w3.org/2000/svg" xmlns:xlink="http://www.w3.org/1999/xlink">
<g id="graph0" class="graph" transform="scale(1 1) rotate(0) translate(4 674)">
<title>PHG4FullProjSpacalDetector::PHG4FullProjSpacalDetector</title>
<!-- Node1 -->
<g id="node1" class="node"><title>Node1</title>
<polygon fill="#bfbfbf" stroke="black" points="0,-211 0,-241 148,-241 148,-211 0,-211"/>
<text text-anchor="start" x="8" y="-229" font-family="FreeSans" font-size="10.00">PHG4FullProjSpacalDetector</text>
<text text-anchor="middle" x="74" y="-218" font-family="FreeSans" font-size="10.00">::PHG4FullProjSpacalDetector</text>
</g>
<!-- Node2 -->
<g id="node2" class="node"><title>Node2</title>
<g id="a_node2"><a xlink:href="../../d1/d05/classPHG4FullProjSpacalDetector.html#ae56250077cd2b8eaa62829541a3ff6f3" target="_top" xlink:title="get the v3 cast of the geometry object ">
<polygon fill="none" stroke="black" points="187.5,-236 187.5,-266 330.5,-266 330.5,-236 187.5,-236"/>
<text text-anchor="start" x="195.5" y="-254" font-family="FreeSans" font-size="10.00">PHG4FullProjSpacalDetector</text>
<text text-anchor="middle" x="259" y="-243" font-family="FreeSans" font-size="10.00">::get_geom_v3</text>
</a>
</g>
</g>
<!-- Node1&#45;&gt;Node2 -->
<g id="edge1" class="edge"><title>Node1&#45;&gt;Node2</title>
<path fill="none" stroke="midnightblue" d="M148.115,-235.988C157.721,-237.301 167.609,-238.651 177.331,-239.98"/>
<polygon fill="midnightblue" stroke="midnightblue" points="177.002,-243.467 187.383,-241.353 177.949,-236.532 177.002,-243.467"/>
</g>
<!-- Node3 -->
<g id="node3" class="node"><title>Node3</title>
<g id="a_node3"><a xlink:href="../../de/d61/classPHG4CylinderGeom__Spacalv3.html#a101400277a0fbe0c0c9c32c02a39fb40" target="_top" xlink:title="load parameters from PHParameters, which interface to Database/XML/ROOT files ">
<polygon fill="none" stroke="black" points="184,-187 184,-217 334,-217 334,-187 184,-187"/>
<text text-anchor="start" x="192" y="-205" font-family="FreeSans" font-size="10.00">PHG4CylinderGeom_Spacalv3</text>
<text text-anchor="middle" x="259" y="-194" font-family="FreeSans" font-size="10.00">::ImportParameters</text>
</a>
</g>
</g>
<!-- Node1&#45;&gt;Node3 -->
<g id="edge2" class="edge"><title>Node1&#45;&gt;Node3</title>
<path fill="none" stroke="midnightblue" d="M148.115,-216.411C156.559,-215.304 165.22,-214.168 173.796,-213.043"/>
<polygon fill="midnightblue" stroke="midnightblue" points="174.345,-216.501 183.805,-211.73 173.435,-209.561 174.345,-216.501"/>
</g>
<!-- Node4 -->
<g id="node4" class="node"><title>Node4</title>
<g id="a_node4"><a xlink:href="../../dd/dae/classPHParameters.html#a5dc8e713d09897d2654015b008364d18" target="_top" xlink:title="PHParameters::exist\l_double_param">
<polygon fill="none" stroke="black" points="1082,-565 1082,-595 1188,-595 1188,-565 1082,-565"/>
<text text-anchor="start" x="1090" y="-583" font-family="FreeSans" font-size="10.00">PHParameters::exist</text>
<text text-anchor="middle" x="1135" y="-572" font-family="FreeSans" font-size="10.00">_double_param</text>
</a>
</g>
</g>
<!-- Node3&#45;&gt;Node4 -->
<g id="edge3" class="edge"><title>Node3&#45;&gt;Node4</title>
<path fill="none" stroke="midnightblue" d="M323.522,-217.123C327.383,-219.642 330.938,-222.578 334,-226 386.956,-285.17 332.668,-330.917 370,-401 448.755,-548.846 466.487,-670 634,-670 634,-670 634,-670 815,-670 918.295,-670 1033.58,-625.749 1093.24,-599.304"/>
<polygon fill="midnightblue" stroke="midnightblue" points="1094.99,-602.355 1102.68,-595.064 1092.13,-595.97 1094.99,-602.355"/>
</g>
<!-- Node5 -->
<g id="node5" class="node"><title>Node5</title>
<g id="a_node5"><a xlink:href="../../dd/dae/classPHParameters.html#adda37970cd2dffb257d6884e59c8d069" target="_top" xlink:title="PHParameters::exist\l_int_param">
<polygon fill="none" stroke="black" points="1082,-465 1082,-495 1188,-495 1188,-465 1082,-465"/>
<text text-anchor="start" x="1090" y="-483" font-family="FreeSans" font-size="10.00">PHParameters::exist</text>
<text text-anchor="middle" x="1135" y="-472" font-family="FreeSans" font-size="10.00">_int_param</text>
</a>
</g>
</g>
<!-- Node3&#45;&gt;Node5 -->
<g id="edge4" class="edge"><title>Node3&#45;&gt;Node5</title>
<path fill="none" stroke="midnightblue" d="M322.33,-217.167C326.57,-219.674 330.528,-222.596 334,-226 368.924,-260.246 337.977,-293.027 370,-330 490.315,-468.91 570.575,-453.27 750,-493 871.725,-519.953 906.554,-527.449 1030,-510 1047.26,-507.561 1065.66,-502.951 1082.12,-498.064"/>
<polygon fill="midnightblue" stroke="midnightblue" points="1083.55,-501.284 1092.08,-495.002 1081.5,-494.593 1083.55,-501.284"/>
</g>
<!-- Node6 -->
<g id="node6" class="node"><title>Node6</title>
<g id="a_node6"><a xlink:href="../../dd/dae/classPHParameters.html#ab8a3f391c75a3357e37d825117f09e19" target="_top" xlink:title="PHParameters::exist\l_string_param">
<polygon fill="none" stroke="black" points="761,-269 761,-299 867,-299 867,-269 761,-269"/>
<text text-anchor="start" x="769" y="-287" font-family="FreeSans" font-size="10.00">PHParameters::exist</text>
<text text-anchor="middle" x="814" y="-276" font-family="FreeSans" font-size="10.00">_string_param</text>
</a>
</g>
</g>
<!-- Node3&#45;&gt;Node6 -->
<g id="edge5" class="edge"><title>Node3&#45;&gt;Node6</title>
<path fill="none" stroke="midnightblue" d="M334.006,-212.974C443.949,-229.276 648.445,-259.599 750.993,-274.806"/>
<polygon fill="midnightblue" stroke="midnightblue" points="750.486,-278.269 760.891,-276.273 751.513,-271.344 750.486,-278.269"/>
</g>
<!-- Node7 -->
<g id="node7" class="node"><title>Node7</title>
<g id="a_node7"><a xlink:href="../../dd/dae/classPHParameters.html#aa61ce249b94375d9af4482c36a1308cf" target="_top" xlink:title="PHParameters::get_double\l_param">
<polygon fill="none" stroke="black" points="1068.5,-187 1068.5,-217 1201.5,-217 1201.5,-187 1068.5,-187"/>
<text text-anchor="start" x="1076.5" y="-205" font-family="FreeSans" font-size="10.00">PHParameters::get_double</text>
<text text-anchor="middle" x="1135" y="-194" font-family="FreeSans" font-size="10.00">_param</text>
</a>
</g>
</g>
<!-- Node3&#45;&gt;Node7 -->
<g id="edge6" class="edge"><title>Node3&#45;&gt;Node7</title>
<path fill="none" stroke="midnightblue" d="M268.382,-186.716C284.372,-159.034 321.958,-100.632 370,-70 472.352,-4.73836 512.612,-0 634,-0 634,-0 634,-0 815,-0 867.638,-0 1004.04,-65.2238 1030,-84 1066.61,-110.486 1099.35,-152.039 1117.92,-178.111"/>
<polygon fill="midnightblue" stroke="midnightblue" points="1115.29,-180.448 1123.88,-186.638 1121.02,-176.437 1115.29,-180.448"/>
</g>
<!-- Node8 -->
<g id="node8" class="node"><title>Node8</title>
<g id="a_node8"><a xlink:href="../../dd/dae/classPHParameters.html#a0241ca27a369ab4865ac3d79620ac27c" target="_top" xlink:title="PHParameters::get_int\l_param">
<polygon fill="none" stroke="black" points="1077.5,-282 1077.5,-312 1192.5,-312 1192.5,-282 1077.5,-282"/>
<text text-anchor="start" x="1085.5" y="-300" font-family="FreeSans" font-size="10.00">PHParameters::get_int</text>
<text text-anchor="middle" x="1135" y="-289" font-family="FreeSans" font-size="10.00">_param</text>
</a>
</g>
</g>
<!-- Node3&#45;&gt;Node8 -->
<g id="edge7" class="edge"><title>Node3&#45;&gt;Node8</title>
<path fill="none" stroke="midnightblue" d="M334.282,-189.977C409.588,-178.844 529.576,-164 634,-164 634,-164 634,-164 815,-164 929.814,-164 1051.21,-238.305 1105.21,-275.836"/>
<polygon fill="midnightblue" stroke="midnightblue" points="1103.4,-278.841 1113.59,-281.743 1107.43,-273.12 1103.4,-278.841"/>
</g>
<!-- Node9 -->
<g id="node9" class="node"><title>Node9</title>
<g id="a_node9"><a xlink:href="../../dd/dae/classPHParameters.html#ab1c503fe2e3136bdd3e5a75bc55ead13" target="_top" xlink:title="PHParameters::get_string\l_param">
<polygon fill="none" stroke="black" points="750,-29 750,-59 878,-59 878,-29 750,-29"/>
<text text-anchor="start" x="758" y="-47" font-family="FreeSans" font-size="10.00">PHParameters::get_string</text>
<text text-anchor="middle" x="814" y="-36" font-family="FreeSans" font-size="10.00">_param</text>
</a>
</g>
</g>
<!-- Node3&#45;&gt;Node9 -->
<g id="edge8" class="edge"><title>Node3&#45;&gt;Node9</title>
<path fill="none" stroke="midnightblue" d="M274.819,-186.782C294.606,-167.454 331.636,-134.621 370,-118 492.458,-64.9441 649.187,-49.7544 739.625,-45.5138"/>
<polygon fill="midnightblue" stroke="midnightblue" points="739.943,-49.0033 749.78,-45.0707 739.637,-42.01 739.943,-49.0033"/>
</g>
<!-- Node10 -->
<g id="node10" class="node"><title>Node10</title>
<g id="a_node10"><a xlink:href="../../db/d5f/classPHG4CylinderGeom__Spacalv2.html#a1695b189ac570c48a72e3a10339209c0" target="_top" xlink:title="load parameters from PHParameters, which interface to Database/XML/ROOT files ">
<polygon fill="none" stroke="black" points="370,-291 370,-321 520,-321 520,-291 370,-291"/>
<text text-anchor="start" x="378" y="-309" font-family="FreeSans" font-size="10.00">PHG4CylinderGeom_Spacalv2</text>
<text text-anchor="middle" x="445" y="-298" font-family="FreeSans" font-size="10.00">::ImportParameters</text>
</a>
</g>
</g>
<!-- Node3&#45;&gt;Node10 -->
<g id="edge9" class="edge"><title>Node3&#45;&gt;Node10</title>
<path fill="none" stroke="midnightblue" d="M313.867,-217.017C320.797,-219.655 327.675,-222.648 334,-226 351.91,-235.492 353.703,-241.947 370,-254 384.084,-264.416 399.947,-275.629 413.362,-284.967"/>
<polygon fill="midnightblue" stroke="midnightblue" points="411.57,-287.983 421.782,-290.805 415.558,-282.23 411.57,-287.983"/>
</g>
<!-- Node15 -->
<g id="node15" class="node"><title>Node15</title>
<g id="a_node15"><a xlink:href="../../df/dec/classPHG4CylinderGeom__Spacalv3_1_1geom__tower.html#aad623c4f9a3a48d5d553cbf01ffe4bb1" target="_top" xlink:title="read via PHParameters ">
<polygon fill="none" stroke="black" points="556.5,-97 556.5,-127 713.5,-127 713.5,-97 556.5,-97"/>
<text text-anchor="start" x="564.5" y="-115" font-family="FreeSans" font-size="10.00">PHG4CylinderGeom_Spacalv3</text>
<text text-anchor="middle" x="635" y="-104" font-family="FreeSans" font-size="10.00">::geom_tower::ImportParameters</text>
</a>
</g>
</g>
<!-- Node3&#45;&gt;Node15 -->
<g id="edge30" class="edge"><title>Node3&#45;&gt;Node15</title>
<path fill="none" stroke="midnightblue" d="M286.23,-186.854C307.975,-174.98 340.063,-159.008 370,-150 427.367,-132.739 494.177,-123.219 546.233,-118.024"/>
<polygon fill="midnightblue" stroke="midnightblue" points="546.822,-121.484 556.44,-117.042 546.151,-114.516 546.822,-121.484"/>
</g>
<!-- Node10&#45;&gt;Node4 -->
<g id="edge10" class="edge"><title>Node10&#45;&gt;Node4</title>
<path fill="none" stroke="midnightblue" d="M456.036,-321.135C473.486,-346.341 511.813,-397.007 556,-426 721.026,-534.283 959.615,-566.666 1071.57,-576.164"/>
<polygon fill="midnightblue" stroke="midnightblue" points="1071.42,-579.664 1081.68,-576.989 1071.99,-572.687 1071.42,-579.664"/>
</g>
<!-- Node10&#45;&gt;Node5 -->
<g id="edge11" class="edge"><title>Node10&#45;&gt;Node5</title>
<path fill="none" stroke="midnightblue" d="M470.153,-321.012C492.233,-334.558 525.932,-354.787 556,-371 640.503,-416.566 658.637,-436.509 750,-466 820.368,-488.714 840.321,-487.755 914,-494 965.371,-498.354 978.56,-497.447 1030,-494 1043.47,-493.097 1057.86,-491.544 1071.5,-489.792"/>
<polygon fill="midnightblue" stroke="midnightblue" points="1072.32,-493.215 1081.76,-488.422 1071.39,-486.277 1072.32,-493.215"/>
</g>
<!-- Node10&#45;&gt;Node7 -->
<g id="edge12" class="edge"><title>Node10&#45;&gt;Node7</title>
<path fill="none" stroke="midnightblue" d="M474.065,-290.806C495.784,-279.785 526.959,-265.54 556,-258 731.771,-212.365 946.347,-203.225 1058.1,-201.816"/>
<polygon fill="midnightblue" stroke="midnightblue" points="1058.3,-205.314 1068.26,-201.705 1058.22,-198.314 1058.3,-205.314"/>
</g>
<!-- Node10&#45;&gt;Node8 -->
<g id="edge13" class="edge"><title>Node10&#45;&gt;Node8</title>
<path fill="none" stroke="midnightblue" d="M513.583,-290.98C598.501,-273.877 748.779,-249.462 878,-259 942.694,-263.775 1015.84,-275.251 1067.33,-284.35"/>
<polygon fill="midnightblue" stroke="midnightblue" points="1066.87,-287.823 1077.33,-286.135 1068.1,-280.932 1066.87,-287.823"/>
</g>
<!-- Node11 -->
<g id="node11" class="node"><title>Node11</title>
<g id="a_node11"><a xlink:href="../../d2/da2/classPHG4CylinderGeom__Spacalv1.html#a1323c080e451eb8df4b6c065f3a01e59" target="_top" xlink:title="load parameters from PHParameters, which interface to Database/XML/ROOT files ">
<polygon fill="none" stroke="black" points="560,-332 560,-362 710,-362 710,-332 560,-332"/>
<text text-anchor="start" x="568" y="-350" font-family="FreeSans" font-size="10.00">PHG4CylinderGeom_Spacalv1</text>
<text text-anchor="middle" x="635" y="-339" font-family="FreeSans" font-size="10.00">::ImportParameters</text>
</a>
</g>
</g>
<!-- Node10&#45;&gt;Node11 -->
<g id="edge14" class="edge"><title>Node10&#45;&gt;Node11</title>
<path fill="none" stroke="midnightblue" d="M514.937,-321.034C527.964,-323.875 541.684,-326.867 554.993,-329.77"/>
<polygon fill="midnightblue" stroke="midnightblue" points="554.555,-333.257 565.072,-331.968 556.047,-326.417 554.555,-333.257"/>
</g>
<!-- Node11&#45;&gt;Node4 -->
<g id="edge15" class="edge"><title>Node11&#45;&gt;Node4</title>
<path fill="none" stroke="midnightblue" d="M646.427,-362.203C664.55,-387.485 704.326,-438.14 750,-466 852.699,-528.644 991.939,-558.68 1071.45,-571.573"/>
<polygon fill="midnightblue" stroke="midnightblue" points="1071.36,-575.103 1081.78,-573.208 1072.45,-568.189 1071.36,-575.103"/>
</g>
<!-- Node11&#45;&gt;Node5 -->
<g id="edge16" class="edge"><title>Node11&#45;&gt;Node5</title>
<path fill="none" stroke="midnightblue" d="M650.624,-362.161C670.909,-382.175 709.668,-416.873 750,-434 856.463,-479.209 993.525,-484.404 1071.8,-482.966"/>
<polygon fill="midnightblue" stroke="midnightblue" points="1072.06,-486.461 1081.98,-482.735 1071.9,-479.463 1072.06,-486.461"/>
</g>
<!-- Node11&#45;&gt;Node6 -->
<g id="edge17" class="edge"><title>Node11&#45;&gt;Node6</title>
<path fill="none" stroke="midnightblue" d="M678.396,-331.91C703.263,-323.059 734.867,-311.81 761.202,-302.437"/>
<polygon fill="midnightblue" stroke="midnightblue" points="762.396,-305.727 770.644,-299.076 760.049,-299.132 762.396,-305.727"/>
</g>
<!-- Node11&#45;&gt;Node7 -->
<g id="edge18" class="edge"><title>Node11&#45;&gt;Node7</title>
<path fill="none" stroke="midnightblue" d="M710.039,-339.597C758.451,-333.654 822.727,-323.666 878,-308 957.566,-285.449 1045.72,-245.382 1095.04,-221.494"/>
<polygon fill="midnightblue" stroke="midnightblue" points="1096.63,-224.615 1104.08,-217.087 1093.56,-218.323 1096.63,-224.615"/>
</g>
<!-- Node11&#45;&gt;Node8 -->
<g id="edge19" class="edge"><title>Node11&#45;&gt;Node8</title>
<path fill="none" stroke="midnightblue" d="M710.155,-351.197C758.333,-352.521 822.306,-351.629 878,-342 894.619,-339.127 897.599,-333.932 914,-330 964.871,-317.803 1023.5,-309.275 1067.43,-303.947"/>
<polygon fill="midnightblue" stroke="midnightblue" points="1067.91,-307.416 1077.42,-302.76 1067.08,-300.465 1067.91,-307.416"/>
</g>
<!-- Node11&#45;&gt;Node9 -->
<g id="edge20" class="edge"><title>Node11&#45;&gt;Node9</title>
<path fill="none" stroke="midnightblue" d="M644.777,-331.974C673.382,-283.008 764.073,-127.756 799.052,-67.877"/>
<polygon fill="midnightblue" stroke="midnightblue" points="802.148,-69.5166 804.17,-59.1165 796.103,-65.9858 802.148,-69.5166"/>
</g>
<!-- Node12 -->
<g id="node12" class="node"><title>Node12</title>
<g id="a_node12"><a xlink:href="../../d1/df3/classPHG4CylinderGeomv2.html#ae660d920fd9c780b4cc92b92037aeb0e" target="_top" xlink:title="load parameters from PHParameters, which interface to Database/XML/ROOT files ">
<polygon fill="none" stroke="black" points="756.5,-395 756.5,-425 871.5,-425 871.5,-395 756.5,-395"/>
<text text-anchor="start" x="764.5" y="-413" font-family="FreeSans" font-size="10.00">PHG4CylinderGeomv2</text>
<text text-anchor="middle" x="814" y="-402" font-family="FreeSans" font-size="10.00">::ImportParameters</text>
</a>
</g>
</g>
<!-- Node11&#45;&gt;Node12 -->
<g id="edge21" class="edge"><title>Node11&#45;&gt;Node12</title>
<path fill="none" stroke="midnightblue" d="M678.396,-362.09C703.263,-370.941 734.867,-382.19 761.202,-391.563"/>
<polygon fill="midnightblue" stroke="midnightblue" points="760.049,-394.868 770.644,-394.924 762.396,-388.273 760.049,-394.868"/>
</g>
<!-- Node12&#45;&gt;Node5 -->
<g id="edge22" class="edge"><title>Node12&#45;&gt;Node5</title>
<path fill="none" stroke="midnightblue" d="M871.663,-422.434C927.938,-434.783 1013.99,-453.665 1072.04,-466.405"/>
<polygon fill="midnightblue" stroke="midnightblue" points="1071.31,-469.827 1081.83,-468.551 1072.81,-462.989 1071.31,-469.827"/>
</g>
<!-- Node12&#45;&gt;Node8 -->
<g id="edge23" class="edge"><title>Node12&#45;&gt;Node8</title>
<path fill="none" stroke="midnightblue" d="M854.897,-394.829C872.913,-388.046 894.489,-380.015 914,-373 970.329,-352.748 1035.13,-330.487 1079.74,-315.322"/>
<polygon fill="midnightblue" stroke="midnightblue" points="1080.88,-318.632 1089.22,-312.102 1078.63,-312.004 1080.88,-318.632"/>
</g>
<!-- Node13 -->
<g id="node13" class="node"><title>Node13</title>
<g id="a_node13"><a xlink:href="../../d3/d63/classPHG4CylinderGeomv1.html#accabd2d72bf6949d7e6daefbc93e8ab2" target="_top" xlink:title="load parameters from PHParameters, which interface to Database/XML/ROOT files ">
<polygon fill="none" stroke="black" points="914.5,-383 914.5,-413 1029.5,-413 1029.5,-383 914.5,-383"/>
<text text-anchor="start" x="922.5" y="-401" font-family="FreeSans" font-size="10.00">PHG4CylinderGeomv1</text>
<text text-anchor="middle" x="972" y="-390" font-family="FreeSans" font-size="10.00">::ImportParameters</text>
</a>
</g>
</g>
<!-- Node12&#45;&gt;Node13 -->
<g id="edge24" class="edge"><title>Node12&#45;&gt;Node13</title>
<path fill="none" stroke="midnightblue" d="M871.761,-405.634C882.258,-404.826 893.31,-403.976 904.076,-403.148"/>
<polygon fill="midnightblue" stroke="midnightblue" points="904.579,-406.62 914.281,-402.363 904.042,-399.64 904.579,-406.62"/>
</g>
<!-- Node13&#45;&gt;Node4 -->
<g id="edge25" class="edge"><title>Node13&#45;&gt;Node4</title>
<path fill="none" stroke="midnightblue" d="M986.199,-413.137C1004.18,-433.742 1037.43,-471.75 1066,-504 1081.85,-521.89 1099.89,-542.046 1113.41,-557.104"/>
<polygon fill="midnightblue" stroke="midnightblue" points="1111.12,-559.797 1120.41,-564.898 1116.33,-555.12 1111.12,-559.797"/>
</g>
<!-- Node13&#45;&gt;Node5 -->
<g id="edge26" class="edge"><title>Node13&#45;&gt;Node5</title>
<path fill="none" stroke="midnightblue" d="M1002.53,-413.04C1028.55,-426.291 1066.63,-445.689 1095.12,-460.199"/>
<polygon fill="midnightblue" stroke="midnightblue" points="1093.89,-463.497 1104.39,-464.917 1097.06,-457.259 1093.89,-463.497"/>
</g>
<!-- Node13&#45;&gt;Node7 -->
<g id="edge27" class="edge"><title>Node13&#45;&gt;Node7</title>
<path fill="none" stroke="midnightblue" d="M983.253,-382.76C999.755,-358.553 1033.64,-310.153 1066,-272 1080.11,-255.365 1097.22,-237.759 1110.75,-224.365"/>
<polygon fill="midnightblue" stroke="midnightblue" points="1113.57,-226.507 1118.25,-217.005 1108.66,-221.51 1113.57,-226.507"/>
</g>
<!-- Node13&#45;&gt;Node8 -->
<g id="edge28" class="edge"><title>Node13&#45;&gt;Node8</title>
<path fill="none" stroke="midnightblue" d="M1003.24,-382.908C1011.98,-378.322 1021.47,-373.132 1030,-368 1056.06,-352.317 1084.51,-332.71 1105.06,-318.077"/>
<polygon fill="midnightblue" stroke="midnightblue" points="1107.26,-320.805 1113.35,-312.136 1103.18,-315.115 1107.26,-320.805"/>
</g>
<!-- Node14 -->
<g id="node14" class="node"><title>Node14</title>
<g id="a_node14"><a xlink:href="../../dc/d30/classPHG4CylinderGeom.html#a14a3fe96cb31751568d492a2d30293d8" target="_top" xlink:title="load parameters from PHParameters, which interface to Database/XML/ROOT files ">
<polygon fill="none" stroke="black" points="1066.5,-383 1066.5,-413 1203.5,-413 1203.5,-383 1066.5,-383"/>
<text text-anchor="start" x="1074.5" y="-401" font-family="FreeSans" font-size="10.00">PHG4CylinderGeom::Import</text>
<text text-anchor="middle" x="1135" y="-390" font-family="FreeSans" font-size="10.00">Parameters</text>
</a>
</g>
</g>
<!-- Node13&#45;&gt;Node14 -->
<g id="edge29" class="edge"><title>Node13&#45;&gt;Node14</title>
<path fill="none" stroke="midnightblue" d="M1029.76,-398C1038.38,-398 1047.39,-398 1056.36,-398"/>
<polygon fill="midnightblue" stroke="midnightblue" points="1056.44,-401.5 1066.44,-398 1056.44,-394.5 1056.44,-401.5"/>
</g>
<!-- Node15&#45;&gt;Node7 -->
<g id="edge31" class="edge"><title>Node15&#45;&gt;Node7</title>
<path fill="none" stroke="midnightblue" d="M710.61,-96.9425C791.941,-83.9146 924.559,-72.7111 1030,-112 1065.71,-125.307 1097.32,-157.006 1116.06,-178.99"/>
<polygon fill="midnightblue" stroke="midnightblue" points="1113.52,-181.411 1122.59,-186.881 1118.91,-176.947 1113.52,-181.411"/>
</g>
<!-- Node15&#45;&gt;Node8 -->
<g id="edge32" class="edge"><title>Node15&#45;&gt;Node8</title>
<path fill="none" stroke="midnightblue" d="M713.737,-110.628C813.795,-110.344 980.653,-115.342 1030,-150 1060.59,-171.481 1044.8,-195.218 1066,-226 1078.42,-244.028 1095.46,-261.812 1109.37,-275.072"/>
<polygon fill="midnightblue" stroke="midnightblue" points="1107.04,-277.679 1116.74,-281.946 1111.82,-272.563 1107.04,-277.679"/>
</g>
<!-- Node15&#45;&gt;Node9 -->
<g id="edge33" class="edge"><title>Node15&#45;&gt;Node9</title>
<path fill="none" stroke="midnightblue" d="M675.282,-96.9086C701.52,-86.8283 736.222,-73.4967 764.226,-62.7379"/>
<polygon fill="midnightblue" stroke="midnightblue" points="765.748,-65.9027 773.828,-59.0492 763.238,-59.3683 765.748,-65.9027"/>
</g>
</g>
</svg>
