<?xml version="1.0" encoding="UTF-8" standalone="no"?>
<!DOCTYPE svg PUBLIC "-//W3C//DTD SVG 1.1//EN"
 "http://www.w3.org/Graphics/SVG/1.1/DTD/svg11.dtd">
<!-- Generated by graphviz version 2.44.0 (0)
 -->
<!-- Title: Node::getKalmanGain Pages: 1 -->
<svg width="288pt" height="104pt"
 viewBox="0.00 0.00 288.00 104.00" xmlns="http://www.w3.org/2000/svg" xmlns:xlink="http://www.w3.org/1999/xlink">
<g id="graph0" class="graph" transform="scale(1 1) rotate(0) translate(4 100)">
<title>Node::getKalmanGain</title>
<!-- Node1 -->
<g id="node1" class="node">
<title>Node1</title>
<g id="a_node1"><a xlink:title=" ">
<polygon fill="#bfbfbf" stroke="black" points="0,-38.5 0,-57.5 124,-57.5 124,-38.5 0,-38.5"/>
<text text-anchor="middle" x="62" y="-45.5" font-family="FreeSans" font-size="10.00">Node::getKalmanGain</text>
</a>
</g>
</g>
<!-- Node2 -->
<g id="node2" class="node">
<title>Node2</title>
<g id="a_node2"><a xlink:href="../../d9/db7/classSMatrix.html#a5b825aefb91608b827fbb652501eaecc" target="_top" xlink:title=" ">
<polygon fill="none" stroke="black" points="170,-76.5 170,-95.5 270,-95.5 270,-76.5 170,-76.5"/>
<text text-anchor="middle" x="220" y="-83.5" font-family="FreeSans" font-size="10.00">SMatrix::getABCt</text>
</a>
</g>
</g>
<!-- Node1&#45;&gt;Node2 -->
<g id="edge1" class="edge">
<title>Node1&#45;&gt;Node2</title>
<path fill="none" stroke="midnightblue" d="M102.37,-57.59C122.95,-62.6 148.34,-68.79 170.17,-74.11"/>
<polygon fill="midnightblue" stroke="midnightblue" points="169.37,-77.51 179.92,-76.48 171.03,-70.71 169.37,-77.51"/>
</g>
<!-- Node3 -->
<g id="node3" class="node">
<title>Node3</title>
<g id="a_node3"><a xlink:href="../../d9/db7/classSMatrix.html#a03a7887eb40e088b798124c6cc6fe526" target="_top" xlink:title=" ">
<polygon fill="none" stroke="black" points="170,-38.5 170,-57.5 270,-57.5 270,-38.5 170,-38.5"/>
<text text-anchor="middle" x="220" y="-45.5" font-family="FreeSans" font-size="10.00">SMatrix::getABtC</text>
</a>
</g>
</g>
<!-- Node1&#45;&gt;Node3 -->
<g id="edge2" class="edge">
<title>Node1&#45;&gt;Node3</title>
<path fill="none" stroke="midnightblue" d="M124.21,-48C135.71,-48 147.72,-48 159.18,-48"/>
<polygon fill="midnightblue" stroke="midnightblue" points="159.52,-51.5 169.52,-48 159.52,-44.5 159.52,-51.5"/>
</g>
<!-- Node4 -->
<g id="node4" class="node">
<title>Node4</title>
<g id="a_node4"><a xlink:href="../../d9/db7/classSMatrix.html#ac07d7810681bd4683b433c29187d7a5a" target="_top" xlink:title=" ">
<polygon fill="none" stroke="black" points="160,-0.5 160,-19.5 280,-19.5 280,-0.5 160,-0.5"/>
<text text-anchor="middle" x="220" y="-7.5" font-family="FreeSans" font-size="10.00">SMatrix::invertMatrix</text>
</a>
</g>
</g>
<!-- Node1&#45;&gt;Node4 -->
<g id="edge3" class="edge">
<title>Node1&#45;&gt;Node4</title>
<path fill="none" stroke="midnightblue" d="M102.37,-38.41C122.95,-33.4 148.34,-27.21 170.17,-21.89"/>
<polygon fill="midnightblue" stroke="midnightblue" points="171.03,-25.29 179.92,-19.52 169.37,-18.49 171.03,-25.29"/>
</g>
</g>
</svg>
