<?xml version="1.0" encoding="UTF-8" standalone="no"?>
<!DOCTYPE svg PUBLIC "-//W3C//DTD SVG 1.1//EN"
 "http://www.w3.org/Graphics/SVG/1.1/DTD/svg11.dtd">
<!-- Generated by graphviz version 2.44.0 (0)
 -->
<!-- Title: PatternDBGen::InitRun Pages: 1 -->
<svg width="1549pt" height="636pt"
 viewBox="0.00 0.00 1549.00 636.00" xmlns="http://www.w3.org/2000/svg" xmlns:xlink="http://www.w3.org/1999/xlink">
<g id="graph0" class="graph" transform="scale(1 1) rotate(0) translate(4 632)">
<title>PatternDBGen::InitRun</title>
<!-- Node1 -->
<g id="node1" class="node">
<title>Node1</title>
<g id="a_node1"><a xlink:title=" ">
<polygon fill="#bfbfbf" stroke="black" points="0,-133.5 0,-152.5 125,-152.5 125,-133.5 0,-133.5"/>
<text text-anchor="middle" x="62.5" y="-140.5" font-family="FreeSans" font-size="10.00">PatternDBGen::InitRun</text>
</a>
</g>
</g>
<!-- Node2 -->
<g id="node2" class="node">
<title>Node2</title>
<g id="a_node2"><a xlink:href="../../de/d1e/classPatternDBGen.html#a15d461379b04a14a53e31260f539e6c0" target="_top" xlink:title=" ">
<polygon fill="none" stroke="black" points="167.5,-171.5 167.5,-190.5 315.5,-190.5 315.5,-171.5 167.5,-171.5"/>
<text text-anchor="middle" x="241.5" y="-178.5" font-family="FreeSans" font-size="10.00">PatternDBGen::InitEvalTree</text>
</a>
</g>
</g>
<!-- Node1&#45;&gt;Node2 -->
<g id="edge1" class="edge">
<title>Node1&#45;&gt;Node2</title>
<path fill="none" stroke="midnightblue" d="M108.16,-152.59C131.84,-157.67 161.11,-163.96 186.1,-169.32"/>
<polygon fill="midnightblue" stroke="midnightblue" points="185.64,-172.8 196.16,-171.48 187.11,-165.96 185.64,-172.8"/>
</g>
<!-- Node5 -->
<g id="node5" class="node">
<title>Node5</title>
<g id="a_node5"><a xlink:href="../../d0/da0/classGeomSvc.html#a2b7ecf5467120206b9479654c48ad7c4" target="_top" xlink:title="singlton instance">
<polygon fill="none" stroke="black" points="186.5,-133.5 186.5,-152.5 296.5,-152.5 296.5,-133.5 186.5,-133.5"/>
<text text-anchor="middle" x="241.5" y="-140.5" font-family="FreeSans" font-size="10.00">GeomSvc::instance</text>
</a>
</g>
</g>
<!-- Node1&#45;&gt;Node5 -->
<g id="edge4" class="edge">
<title>Node1&#45;&gt;Node5</title>
<path fill="none" stroke="midnightblue" d="M125.41,-143C141.83,-143 159.61,-143 176.17,-143"/>
<polygon fill="midnightblue" stroke="midnightblue" points="176.29,-146.5 186.29,-143 176.29,-139.5 176.29,-146.5"/>
</g>
<!-- Node42 -->
<g id="node42" class="node">
<title>Node42</title>
<g id="a_node42"><a xlink:href="../../de/d1e/classPatternDBGen.html#a63d8df84864877457897ea2a0aa250ff" target="_top" xlink:title=" ">
<polygon fill="none" stroke="black" points="161,-95.5 161,-114.5 322,-114.5 322,-95.5 161,-95.5"/>
<text text-anchor="middle" x="241.5" y="-102.5" font-family="FreeSans" font-size="10.00">PatternDBGen::ResetEvalVars</text>
</a>
</g>
</g>
<!-- Node1&#45;&gt;Node42 -->
<g id="edge46" class="edge">
<title>Node1&#45;&gt;Node42</title>
<path fill="none" stroke="midnightblue" d="M108.16,-133.41C131.84,-128.33 161.11,-122.04 186.1,-116.68"/>
<polygon fill="midnightblue" stroke="midnightblue" points="187.11,-120.04 196.16,-114.52 185.64,-113.2 187.11,-120.04"/>
</g>
<!-- Node3 -->
<g id="node3" class="node">
<title>Node3</title>
<g id="a_node3"><a xlink:href="../../d3/d2b/classPHTFileServer.html#a5a3ed7a2a70cc2e38dbe1cb33afe9c2f" target="_top" xlink:title="return reference to class singleton">
<polygon fill="none" stroke="black" points="362,-171.5 362,-190.5 469,-190.5 469,-171.5 362,-171.5"/>
<text text-anchor="middle" x="415.5" y="-178.5" font-family="FreeSans" font-size="10.00">PHTFileServer::get</text>
</a>
</g>
</g>
<!-- Node2&#45;&gt;Node3 -->
<g id="edge2" class="edge">
<title>Node2&#45;&gt;Node3</title>
<path fill="none" stroke="midnightblue" d="M315.94,-181C327.88,-181 340.14,-181 351.79,-181"/>
<polygon fill="midnightblue" stroke="midnightblue" points="351.84,-184.5 361.84,-181 351.84,-177.5 351.84,-184.5"/>
</g>
<!-- Node4 -->
<g id="node4" class="node">
<title>Node4</title>
<g id="a_node4"><a xlink:href="../../d3/d2b/classPHTFileServer.html#aaae99c6748eb17d5f8d7df375bc6d615" target="_top" xlink:title="open a SafeTFile. If filename is not found in the map, create a new TFile and append to the map; incr...">
<polygon fill="none" stroke="black" points="358,-209.5 358,-228.5 473,-228.5 473,-209.5 358,-209.5"/>
<text text-anchor="middle" x="415.5" y="-216.5" font-family="FreeSans" font-size="10.00">PHTFileServer::open</text>
</a>
</g>
</g>
<!-- Node2&#45;&gt;Node4 -->
<g id="edge3" class="edge">
<title>Node2&#45;&gt;Node4</title>
<path fill="none" stroke="midnightblue" d="M285.9,-190.59C308.91,-195.67 337.35,-201.96 361.63,-207.32"/>
<polygon fill="midnightblue" stroke="midnightblue" points="360.89,-210.74 371.41,-209.48 362.4,-203.91 360.89,-210.74"/>
</g>
<!-- Node6 -->
<g id="node6" class="node">
<title>Node6</title>
<g id="a_node6"><a xlink:href="../../d0/da0/classGeomSvc.html#a96ec4efc82cbaed0b5623e4dd69385b6" target="_top" xlink:title="Initialization, either from MySQL or from ascii file.">
<polygon fill="none" stroke="black" points="373,-133.5 373,-152.5 458,-152.5 458,-133.5 373,-133.5"/>
<text text-anchor="middle" x="415.5" y="-140.5" font-family="FreeSans" font-size="10.00">GeomSvc::init</text>
</a>
</g>
</g>
<!-- Node5&#45;&gt;Node6 -->
<g id="edge5" class="edge">
<title>Node5&#45;&gt;Node6</title>
<path fill="none" stroke="midnightblue" d="M296.92,-143C317.97,-143 341.95,-143 362.74,-143"/>
<polygon fill="midnightblue" stroke="midnightblue" points="362.97,-146.5 372.97,-143 362.97,-139.5 362.97,-146.5"/>
</g>
<!-- Node7 -->
<g id="node7" class="node">
<title>Node7</title>
<g id="a_node7"><a xlink:href="../../d0/da0/classGeomSvc.html#adbe1473f9b3a8ff942da8d7d8ee28322" target="_top" xlink:title=" ">
<polygon fill="none" stroke="black" points="523.5,-361.5 523.5,-380.5 666.5,-380.5 666.5,-361.5 523.5,-361.5"/>
<text text-anchor="middle" x="595" y="-368.5" font-family="FreeSans" font-size="10.00">GeomSvc::initPlaneDbSvc</text>
</a>
</g>
</g>
<!-- Node6&#45;&gt;Node7 -->
<g id="edge6" class="edge">
<title>Node6&#45;&gt;Node7</title>
<path fill="none" stroke="midnightblue" d="M458.07,-152.25C463.53,-154.76 468.71,-157.95 473,-162 504.31,-191.6 488.33,-214.2 509,-252 529.97,-290.35 561.17,-330.93 579.36,-353.41"/>
<polygon fill="midnightblue" stroke="midnightblue" points="576.82,-355.83 585.87,-361.35 582.24,-351.39 576.82,-355.83"/>
</g>
<!-- Node14 -->
<g id="node14" class="node">
<title>Node14</title>
<g id="a_node14"><a xlink:href="../../d8/d14/classrecoConsts.html#aea8535068aa74d8acf1f98e938a1ff85" target="_top" xlink:title=" ">
<polygon fill="none" stroke="black" points="749,-171.5 749,-190.5 867,-190.5 867,-171.5 749,-171.5"/>
<text text-anchor="middle" x="808" y="-178.5" font-family="FreeSans" font-size="10.00">recoConsts::instance</text>
</a>
</g>
</g>
<!-- Node6&#45;&gt;Node14 -->
<g id="edge39" class="edge">
<title>Node6&#45;&gt;Node14</title>
<path fill="none" stroke="midnightblue" d="M456.56,-152.61C462.42,-155.08 468.12,-158.16 473,-162 496.56,-180.51 482.76,-204.54 509,-219 575.95,-255.9 605.87,-233.1 681,-219 697.87,-215.83 700.68,-210.33 717,-205 729.98,-200.76 744.2,-196.7 757.42,-193.17"/>
<polygon fill="midnightblue" stroke="midnightblue" points="758.51,-196.5 767.29,-190.58 756.73,-189.73 758.51,-196.5"/>
</g>
<!-- Node35 -->
<g id="node35" class="node">
<title>Node35</title>
<g id="a_node35"><a xlink:href="../../d0/da0/classGeomSvc.html#a0d550b9f787318d57cdae9db2d04d6fb" target="_top" xlink:title=" ">
<polygon fill="none" stroke="black" points="524.5,-190.5 524.5,-209.5 665.5,-209.5 665.5,-190.5 524.5,-190.5"/>
<text text-anchor="middle" x="595" y="-197.5" font-family="FreeSans" font-size="10.00">GeomSvc::initPlaneDirect</text>
</a>
</g>
</g>
<!-- Node6&#45;&gt;Node35 -->
<g id="edge37" class="edge">
<title>Node6&#45;&gt;Node35</title>
<path fill="none" stroke="midnightblue" d="M447.92,-152.57C456.18,-155.35 465.01,-158.57 473,-162 489.63,-169.13 492.02,-174.75 509,-181 516.18,-183.64 523.85,-185.99 531.53,-188.04"/>
<polygon fill="midnightblue" stroke="midnightblue" points="530.67,-191.43 541.22,-190.49 532.39,-184.65 530.67,-191.43"/>
</g>
<!-- Node36 -->
<g id="node36" class="node">
<title>Node36</title>
<g id="a_node36"><a xlink:href="../../d0/da0/classGeomSvc.html#a0c78d3ac904cfbb367e96c73f176630d" target="_top" xlink:title=" ">
<polygon fill="none" stroke="black" points="532,-152.5 532,-171.5 658,-171.5 658,-152.5 532,-152.5"/>
<text text-anchor="middle" x="595" y="-159.5" font-family="FreeSans" font-size="10.00">GeomSvc::initWireLUT</text>
</a>
</g>
</g>
<!-- Node6&#45;&gt;Node36 -->
<g id="edge38" class="edge">
<title>Node6&#45;&gt;Node36</title>
<path fill="none" stroke="midnightblue" d="M458.12,-147.45C477.05,-149.48 500.01,-151.94 521.62,-154.25"/>
<polygon fill="midnightblue" stroke="midnightblue" points="521.46,-157.75 531.77,-155.34 522.2,-150.79 521.46,-157.75"/>
</g>
<!-- Node37 -->
<g id="node37" class="node">
<title>Node37</title>
<g id="a_node37"><a xlink:href="../../d0/da0/classGeomSvc.html#ab6c810e39b86ce66a4be6a596b4d54b8" target="_top" xlink:title=" ">
<polygon fill="none" stroke="black" points="525,-114.5 525,-133.5 665,-133.5 665,-114.5 525,-114.5"/>
<text text-anchor="middle" x="595" y="-121.5" font-family="FreeSans" font-size="10.00">GeomSvc::loadAlignment</text>
</a>
</g>
</g>
<!-- Node6&#45;&gt;Node37 -->
<g id="edge40" class="edge">
<title>Node6&#45;&gt;Node37</title>
<path fill="none" stroke="midnightblue" d="M458.12,-138.55C475.04,-136.73 495.19,-134.58 514.73,-132.49"/>
<polygon fill="midnightblue" stroke="midnightblue" points="515.29,-135.95 524.86,-131.4 514.55,-128.98 515.29,-135.95"/>
</g>
<!-- Node38 -->
<g id="node38" class="node">
<title>Node38</title>
<g id="a_node38"><a xlink:href="../../d0/da0/classGeomSvc.html#abc60088ed5985a796f5df18ae4299661" target="_top" xlink:title=" ">
<polygon fill="none" stroke="black" points="523.5,-76.5 523.5,-95.5 666.5,-95.5 666.5,-76.5 523.5,-76.5"/>
<text text-anchor="middle" x="595" y="-83.5" font-family="FreeSans" font-size="10.00">GeomSvc::loadCalibration</text>
</a>
</g>
</g>
<!-- Node6&#45;&gt;Node38 -->
<g id="edge41" class="edge">
<title>Node6&#45;&gt;Node38</title>
<path fill="none" stroke="midnightblue" d="M437.07,-133.37C455.57,-124.99 483.66,-112.97 509,-105 517.28,-102.39 526.12,-100 534.85,-97.86"/>
<polygon fill="midnightblue" stroke="midnightblue" points="535.7,-101.25 544.63,-95.55 534.09,-94.44 535.7,-101.25"/>
</g>
<!-- Node40 -->
<g id="node40" class="node">
<title>Node40</title>
<g id="a_node40"><a xlink:href="../../d0/da0/classGeomSvc.html#a418543d7b33fc95092b2cd4a7496f1b8" target="_top" xlink:title=" ">
<polygon fill="none" stroke="black" points="726,-19.5 726,-38.5 890,-38.5 890,-19.5 726,-19.5"/>
<text text-anchor="middle" x="808" y="-26.5" font-family="FreeSans" font-size="10.00">GeomSvc::loadMilleAlignment</text>
</a>
</g>
</g>
<!-- Node6&#45;&gt;Node40 -->
<g id="edge43" class="edge">
<title>Node6&#45;&gt;Node40</title>
<path fill="none" stroke="midnightblue" d="M424.78,-133.31C439.7,-116.57 472.93,-82.56 509,-67 574.3,-38.83 654.59,-29.89 715.37,-27.68"/>
<polygon fill="midnightblue" stroke="midnightblue" points="715.82,-31.17 725.71,-27.36 715.61,-24.17 715.82,-31.17"/>
</g>
<!-- Node41 -->
<g id="node41" class="node">
<title>Node41</title>
<g id="a_node41"><a xlink:href="../../d0/da0/classGeomSvc.html#a6234a9e4de78f5667104d23c8828b79f" target="_top" xlink:title="Load parameters used in the online&#45;alignment mode.">
<polygon fill="none" stroke="black" points="509,-0.5 509,-19.5 681,-19.5 681,-0.5 509,-0.5"/>
<text text-anchor="middle" x="595" y="-7.5" font-family="FreeSans" font-size="10.00">GeomSvc::loadOnlineAlignment</text>
</a>
</g>
</g>
<!-- Node6&#45;&gt;Node41 -->
<g id="edge44" class="edge">
<title>Node6&#45;&gt;Node41</title>
<path fill="none" stroke="midnightblue" d="M421.85,-133.49C434.27,-112.27 467.24,-60.83 509,-34 516.05,-29.47 523.96,-25.78 532.04,-22.78"/>
<polygon fill="midnightblue" stroke="midnightblue" points="533.21,-26.08 541.57,-19.57 530.97,-19.45 533.21,-26.08"/>
</g>
<!-- Node8 -->
<g id="node8" class="node">
<title>Node8</title>
<g id="a_node8"><a xlink:href="../../d1/da8/classPHFlag.html#a30692a93daeb85f72aa55375d41d4d1a" target="_top" xlink:title=" ">
<polygon fill="none" stroke="black" points="757,-475.5 757,-494.5 859,-494.5 859,-475.5 757,-475.5"/>
<text text-anchor="middle" x="808" y="-482.5" font-family="FreeSans" font-size="10.00">PHFlag::FlagExist</text>
</a>
</g>
</g>
<!-- Node7&#45;&gt;Node8 -->
<g id="edge7" class="edge">
<title>Node7&#45;&gt;Node8</title>
<path fill="none" stroke="midnightblue" d="M605.01,-380.56C623.84,-399.93 669.57,-443.85 717,-466 726.32,-470.35 736.65,-473.72 746.89,-476.32"/>
<polygon fill="midnightblue" stroke="midnightblue" points="746.11,-479.73 756.64,-478.58 747.69,-472.91 746.11,-479.73"/>
</g>
<!-- Node9 -->
<g id="node9" class="node">
<title>Node9</title>
<g id="a_node9"><a xlink:href="../../d1/da8/classPHFlag.html#a90dd6fab732973226112ede509be5743" target="_top" xlink:title=" ">
<polygon fill="none" stroke="black" points="747,-437.5 747,-456.5 869,-456.5 869,-437.5 747,-437.5"/>
<text text-anchor="middle" x="808" y="-444.5" font-family="FreeSans" font-size="10.00">PHFlag::get_CharFlag</text>
</a>
</g>
</g>
<!-- Node7&#45;&gt;Node9 -->
<g id="edge8" class="edge">
<title>Node7&#45;&gt;Node9</title>
<path fill="none" stroke="midnightblue" d="M613.11,-380.62C636.08,-393.17 678.48,-415.06 717,-428 724.94,-430.67 733.41,-433.04 741.85,-435.13"/>
<polygon fill="midnightblue" stroke="midnightblue" points="741.19,-438.57 751.72,-437.45 742.79,-431.75 741.19,-438.57"/>
</g>
<!-- Node10 -->
<g id="node10" class="node">
<title>Node10</title>
<g id="a_node10"><a xlink:href="../../d1/da8/classPHFlag.html#a9002aa5e5ee1ef0e76d65201d6056adf" target="_top" xlink:title=" ">
<polygon fill="none" stroke="black" points="752,-399.5 752,-418.5 864,-418.5 864,-399.5 752,-399.5"/>
<text text-anchor="middle" x="808" y="-406.5" font-family="FreeSans" font-size="10.00">PHFlag::get_IntFlag</text>
</a>
</g>
</g>
<!-- Node7&#45;&gt;Node10 -->
<g id="edge9" class="edge">
<title>Node7&#45;&gt;Node10</title>
<path fill="none" stroke="midnightblue" d="M648.97,-380.54C677.82,-385.73 713.7,-392.2 743.97,-397.65"/>
<polygon fill="midnightblue" stroke="midnightblue" points="743.54,-401.13 754.01,-399.46 744.79,-394.24 743.54,-401.13"/>
</g>
<!-- Node11 -->
<g id="node11" class="node">
<title>Node11</title>
<g id="a_node11"><a xlink:href="../../db/d8a/classRunParamBase.html#ac014950f30700976f97c094cd54feb27" target="_top" xlink:title=" ">
<polygon fill="none" stroke="black" points="735.5,-361.5 735.5,-380.5 880.5,-380.5 880.5,-361.5 735.5,-361.5"/>
<text text-anchor="middle" x="808" y="-368.5" font-family="FreeSans" font-size="10.00">RunParamBase::GetMapID</text>
</a>
</g>
</g>
<!-- Node7&#45;&gt;Node11 -->
<g id="edge10" class="edge">
<title>Node7&#45;&gt;Node11</title>
<path fill="none" stroke="midnightblue" d="M666.55,-371C685.43,-371 705.98,-371 725.4,-371"/>
<polygon fill="midnightblue" stroke="midnightblue" points="725.43,-374.5 735.43,-371 725.43,-367.5 725.43,-374.5"/>
</g>
<!-- Node12 -->
<g id="node12" class="node">
<title>Node12</title>
<g id="a_node12"><a xlink:href="../../d1/d3b/classGeomParamPlane.html#a692de0076f1dbe125d7ba8cfc013b2bd" target="_top" xlink:title=" ">
<polygon fill="none" stroke="black" points="717,-323.5 717,-342.5 899,-342.5 899,-323.5 717,-323.5"/>
<text text-anchor="middle" x="808" y="-330.5" font-family="FreeSans" font-size="10.00">GeomParamPlane::GetNumPlanes</text>
</a>
</g>
</g>
<!-- Node7&#45;&gt;Node12 -->
<g id="edge11" class="edge">
<title>Node7&#45;&gt;Node12</title>
<path fill="none" stroke="midnightblue" d="M648.97,-361.46C677.82,-356.27 713.7,-349.8 743.97,-344.35"/>
<polygon fill="midnightblue" stroke="midnightblue" points="744.79,-347.76 754.01,-342.54 743.54,-340.87 744.79,-347.76"/>
</g>
<!-- Node13 -->
<g id="node13" class="node">
<title>Node13</title>
<g id="a_node13"><a xlink:href="../../d1/d3b/classGeomParamPlane.html#a8c176df7c57af3b0e4f35edee8ee0898" target="_top" xlink:title=" ">
<polygon fill="none" stroke="black" points="731,-285.5 731,-304.5 885,-304.5 885,-285.5 731,-285.5"/>
<text text-anchor="middle" x="808" y="-292.5" font-family="FreeSans" font-size="10.00">GeomParamPlane::GetPlane</text>
</a>
</g>
</g>
<!-- Node7&#45;&gt;Node13 -->
<g id="edge12" class="edge">
<title>Node7&#45;&gt;Node13</title>
<path fill="none" stroke="midnightblue" d="M613.11,-361.38C636.08,-348.83 678.48,-326.94 717,-314 724.94,-311.33 733.41,-308.96 741.85,-306.87"/>
<polygon fill="midnightblue" stroke="midnightblue" points="742.79,-310.25 751.72,-304.55 741.19,-303.43 742.79,-310.25"/>
</g>
<!-- Node7&#45;&gt;Node14 -->
<g id="edge13" class="edge">
<title>Node7&#45;&gt;Node14</title>
<path fill="none" stroke="midnightblue" d="M602.94,-361.29C628.07,-326.19 712.99,-207.75 717,-205 723.73,-200.39 731.31,-196.66 739.14,-193.65"/>
<polygon fill="midnightblue" stroke="midnightblue" points="740.46,-196.89 748.77,-190.32 738.17,-190.28 740.46,-196.89"/>
</g>
<!-- Node18 -->
<g id="node18" class="node">
<title>Node18</title>
<g id="a_node18"><a xlink:href="../../d8/d14/classrecoConsts.html#aec7c7c885b190f7dbb57ac99af4587e6" target="_top" xlink:title="overide the virtual function to expand the environmental variables">
<polygon fill="none" stroke="black" points="1160,-209.5 1160,-228.5 1300,-228.5 1300,-209.5 1160,-209.5"/>
<text text-anchor="middle" x="1230" y="-216.5" font-family="FreeSans" font-size="10.00">recoConsts::set_CharFlag</text>
</a>
</g>
</g>
<!-- Node7&#45;&gt;Node18 -->
<g id="edge27" class="edge">
<title>Node7&#45;&gt;Node18</title>
<path fill="none" stroke="midnightblue" d="M601.81,-361.23C617.04,-336.67 660.85,-272.49 717,-247 791.9,-213 1025.48,-213.5 1149.61,-216.4"/>
<polygon fill="midnightblue" stroke="midnightblue" points="1149.73,-219.91 1159.81,-216.65 1149.9,-212.91 1149.73,-219.91"/>
</g>
<!-- Node22 -->
<g id="node22" class="node">
<title>Node22</title>
<g id="a_node22"><a xlink:href="../../db/d8a/classRunParamBase.html#a1a747ac4d6e1c3665d66f9a1d5118f32" target="_top" xlink:title=" ">
<polygon fill="none" stroke="black" points="941.5,-456.5 941.5,-475.5 1101.5,-475.5 1101.5,-456.5 941.5,-456.5"/>
<text text-anchor="middle" x="1021.5" y="-463.5" font-family="FreeSans" font-size="10.00">RunParamBase::ReadFromDB</text>
</a>
</g>
</g>
<!-- Node7&#45;&gt;Node22 -->
<g id="edge21" class="edge">
<title>Node7&#45;&gt;Node22</title>
<path fill="none" stroke="midnightblue" d="M604.12,-361.24C621.97,-340.66 667.02,-293.28 717,-276 793.45,-249.57 828.05,-237.15 899,-276 966.64,-313.03 1002.11,-405.53 1014.88,-446.24"/>
<polygon fill="midnightblue" stroke="midnightblue" points="1011.6,-447.48 1017.83,-456.05 1018.31,-445.47 1011.6,-447.48"/>
</g>
<!-- Node28 -->
<g id="node28" class="node">
<title>Node28</title>
<g id="a_node28"><a xlink:href="../../db/d8a/classRunParamBase.html#a0db5424bf8320bf32d14563a6ad8d28e" target="_top" xlink:title=" ">
<polygon fill="none" stroke="black" points="736.5,-551.5 736.5,-570.5 879.5,-570.5 879.5,-551.5 736.5,-551.5"/>
<text text-anchor="middle" x="808" y="-558.5" font-family="FreeSans" font-size="10.00">RunParamBase::SetMapID</text>
</a>
</g>
</g>
<!-- Node7&#45;&gt;Node28 -->
<g id="edge28" class="edge">
<title>Node7&#45;&gt;Node28</title>
<path fill="none" stroke="midnightblue" d="M599.78,-380.66C611.87,-410.17 652.57,-499.65 717,-542 720.12,-544.05 723.42,-545.88 726.84,-547.53"/>
<polygon fill="midnightblue" stroke="midnightblue" points="725.57,-550.79 736.14,-551.43 728.28,-544.33 725.57,-550.79"/>
</g>
<!-- Node29 -->
<g id="node29" class="node">
<title>Node29</title>
<g id="a_node29"><a xlink:href="../../db/d8a/classRunParamBase.html#a9b35f11ddb755a62b5d25f7773e0f1ce" target="_top" xlink:title=" ">
<polygon fill="none" stroke="black" points="723,-589.5 723,-608.5 893,-608.5 893,-589.5 723,-589.5"/>
<text text-anchor="middle" x="808" y="-596.5" font-family="FreeSans" font-size="10.00">RunParamBase::SetMapIDbyDB</text>
</a>
</g>
</g>
<!-- Node7&#45;&gt;Node29 -->
<g id="edge29" class="edge">
<title>Node7&#45;&gt;Node29</title>
<path fill="none" stroke="midnightblue" d="M598.57,-380.82C607.94,-414.6 643.66,-526.86 717,-580 719.57,-581.86 722.28,-583.55 725.1,-585.08"/>
<polygon fill="midnightblue" stroke="midnightblue" points="723.86,-588.36 734.41,-589.43 726.83,-582.02 723.86,-588.36"/>
</g>
<!-- Node34 -->
<g id="node34" class="node">
<title>Node34</title>
<g id="a_node34"><a xlink:href="../../d0/da0/classGeomSvc.html#a315e886f05db8254ed7d320706e268e6" target="_top" xlink:title="Convert the official detectorName to local detectorName.">
<polygon fill="none" stroke="black" points="720,-513.5 720,-532.5 896,-532.5 896,-513.5 720,-513.5"/>
<text text-anchor="middle" x="808" y="-520.5" font-family="FreeSans" font-size="10.00">GeomSvc::toLocalDetectorName</text>
</a>
</g>
</g>
<!-- Node7&#45;&gt;Node34 -->
<g id="edge36" class="edge">
<title>Node7&#45;&gt;Node34</title>
<path fill="none" stroke="midnightblue" d="M601.66,-380.58C616.85,-405.39 661.21,-472.03 717,-504 720.93,-506.25 725.08,-508.23 729.38,-509.98"/>
<polygon fill="midnightblue" stroke="midnightblue" points="728.35,-513.34 738.95,-513.45 730.74,-506.75 728.35,-513.34"/>
</g>
<!-- Node15 -->
<g id="node15" class="node">
<title>Node15</title>
<g id="a_node15"><a xlink:href="../../d8/d14/classrecoConsts.html#ae882d6adc62f783ec78114fe3dee3c24" target="_top" xlink:title=" ">
<polygon fill="none" stroke="black" points="956,-171.5 956,-190.5 1087,-190.5 1087,-171.5 956,-171.5"/>
<text text-anchor="middle" x="1021.5" y="-178.5" font-family="FreeSans" font-size="10.00">recoConsts::recoConsts</text>
</a>
</g>
</g>
<!-- Node14&#45;&gt;Node15 -->
<g id="edge14" class="edge">
<title>Node14&#45;&gt;Node15</title>
<path fill="none" stroke="midnightblue" d="M867.07,-181C891.36,-181 919.9,-181 945.73,-181"/>
<polygon fill="midnightblue" stroke="midnightblue" points="945.86,-184.5 955.86,-181 945.86,-177.5 945.86,-184.5"/>
</g>
<!-- Node16 -->
<g id="node16" class="node">
<title>Node16</title>
<g id="a_node16"><a xlink:href="../../d8/d14/classrecoConsts.html#a864b1da9614924988d09542c268c42dc" target="_top" xlink:title="set the default value for all the constants needed &#45; user is supposed to add a default value here to ...">
<polygon fill="none" stroke="black" points="953,-133.5 953,-152.5 1090,-152.5 1090,-133.5 953,-133.5"/>
<text text-anchor="middle" x="1021.5" y="-140.5" font-family="FreeSans" font-size="10.00">recoConsts::set_defaults</text>
</a>
</g>
</g>
<!-- Node14&#45;&gt;Node16 -->
<g id="edge15" class="edge">
<title>Node14&#45;&gt;Node16</title>
<path fill="none" stroke="midnightblue" d="M862.1,-171.46C891.01,-166.27 926.97,-159.8 957.32,-154.35"/>
<polygon fill="midnightblue" stroke="midnightblue" points="958.16,-157.76 967.38,-152.54 956.92,-150.87 958.16,-157.76"/>
</g>
<!-- Node17 -->
<g id="node17" class="node">
<title>Node17</title>
<g id="a_node17"><a xlink:href="../../d1/da8/classPHFlag.html#a5aaf1fedd8907f4b2b0c9535a4491f42" target="_top" xlink:title=" ">
<polygon fill="none" stroke="black" points="1170,-171.5 1170,-190.5 1290,-190.5 1290,-171.5 1170,-171.5"/>
<text text-anchor="middle" x="1230" y="-178.5" font-family="FreeSans" font-size="10.00">PHFlag::set_BoolFlag</text>
</a>
</g>
</g>
<!-- Node16&#45;&gt;Node17 -->
<g id="edge16" class="edge">
<title>Node16&#45;&gt;Node17</title>
<path fill="none" stroke="midnightblue" d="M1074.34,-152.54C1102.45,-157.71 1137.38,-164.14 1166.93,-169.58"/>
<polygon fill="midnightblue" stroke="midnightblue" points="1166.67,-173.09 1177.14,-171.46 1167.94,-166.2 1166.67,-173.09"/>
</g>
<!-- Node16&#45;&gt;Node18 -->
<g id="edge17" class="edge">
<title>Node16&#45;&gt;Node18</title>
<path fill="none" stroke="midnightblue" d="M1085.74,-152.54C1093.51,-155 1101.12,-158.1 1108,-162 1128.24,-173.47 1123.77,-188.52 1144,-200 1147.95,-202.24 1152.15,-204.22 1156.48,-205.97"/>
<polygon fill="midnightblue" stroke="midnightblue" points="1155.53,-209.34 1166.12,-209.43 1157.89,-202.76 1155.53,-209.34"/>
</g>
<!-- Node20 -->
<g id="node20" class="node">
<title>Node20</title>
<g id="a_node20"><a xlink:href="../../d1/da8/classPHFlag.html#a64f8c67e9313e5cecdbed51f747026da" target="_top" xlink:title=" ">
<polygon fill="none" stroke="black" points="1163.5,-133.5 1163.5,-152.5 1296.5,-152.5 1296.5,-133.5 1163.5,-133.5"/>
<text text-anchor="middle" x="1230" y="-140.5" font-family="FreeSans" font-size="10.00">PHFlag::set_DoubleFlag</text>
</a>
</g>
</g>
<!-- Node16&#45;&gt;Node20 -->
<g id="edge19" class="edge">
<title>Node16&#45;&gt;Node20</title>
<path fill="none" stroke="midnightblue" d="M1090.12,-143C1110.33,-143 1132.63,-143 1153.33,-143"/>
<polygon fill="midnightblue" stroke="midnightblue" points="1153.34,-146.5 1163.34,-143 1153.34,-139.5 1153.34,-146.5"/>
</g>
<!-- Node21 -->
<g id="node21" class="node">
<title>Node21</title>
<g id="a_node21"><a xlink:href="../../d1/da8/classPHFlag.html#a3ef5c3f1eff2daaaf18e5129858a9ef8" target="_top" xlink:title=" ">
<polygon fill="none" stroke="black" points="1174.5,-95.5 1174.5,-114.5 1285.5,-114.5 1285.5,-95.5 1174.5,-95.5"/>
<text text-anchor="middle" x="1230" y="-102.5" font-family="FreeSans" font-size="10.00">PHFlag::set_IntFlag</text>
</a>
</g>
</g>
<!-- Node16&#45;&gt;Node21 -->
<g id="edge20" class="edge">
<title>Node16&#45;&gt;Node21</title>
<path fill="none" stroke="midnightblue" d="M1074.34,-133.46C1102.45,-128.29 1137.38,-121.86 1166.93,-116.42"/>
<polygon fill="midnightblue" stroke="midnightblue" points="1167.94,-119.8 1177.14,-114.54 1166.67,-112.91 1167.94,-119.8"/>
</g>
<!-- Node19 -->
<g id="node19" class="node">
<title>Node19</title>
<g id="a_node19"><a xlink:href="../../d8/d14/classrecoConsts.html#ad45c452d9a71b5410c472614d72442ec" target="_top" xlink:title=" ">
<polygon fill="none" stroke="black" points="1352,-209.5 1352,-228.5 1541,-228.5 1541,-209.5 1352,-209.5"/>
<text text-anchor="middle" x="1446.5" y="-216.5" font-family="FreeSans" font-size="10.00">recoConsts::ExpandEnvironmentals</text>
</a>
</g>
</g>
<!-- Node18&#45;&gt;Node19 -->
<g id="edge18" class="edge">
<title>Node18&#45;&gt;Node19</title>
<path fill="none" stroke="midnightblue" d="M1300.05,-219C1313.35,-219 1327.56,-219 1341.69,-219"/>
<polygon fill="midnightblue" stroke="midnightblue" points="1341.95,-222.5 1351.95,-219 1341.95,-215.5 1341.95,-222.5"/>
</g>
<!-- Node23 -->
<g id="node23" class="node">
<title>Node23</title>
<g id="a_node23"><a xlink:href="../../d2/da4/classDbSvc.html#af7e30673551b9cbc6d0ad9e37e4ec35b" target="_top" xlink:title=" ">
<polygon fill="none" stroke="black" points="1181,-551.5 1181,-570.5 1279,-570.5 1279,-551.5 1181,-551.5"/>
<text text-anchor="middle" x="1230" y="-558.5" font-family="FreeSans" font-size="10.00">DbSvc::HasTable</text>
</a>
</g>
</g>
<!-- Node22&#45;&gt;Node23 -->
<g id="edge22" class="edge">
<title>Node22&#45;&gt;Node23</title>
<path fill="none" stroke="midnightblue" d="M1036.5,-475.6C1063.41,-493.92 1121.67,-532.84 1144,-542 1152.53,-545.5 1161.81,-548.41 1171.01,-550.81"/>
<polygon fill="midnightblue" stroke="midnightblue" points="1170.37,-554.26 1180.92,-553.22 1172.03,-547.46 1170.37,-554.26"/>
</g>
<!-- Node24 -->
<g id="node24" class="node">
<title>Node24</title>
<g id="a_node24"><a xlink:href="../../db/d8a/classRunParamBase.html#ad9f709752d29d2a439deafc2663e78e4" target="_top" xlink:title=" ">
<polygon fill="none" stroke="black" points="1144,-437.5 1144,-456.5 1316,-456.5 1316,-437.5 1144,-437.5"/>
<text text-anchor="middle" x="1230" y="-444.5" font-family="FreeSans" font-size="10.00">RunParamBase::MapTableName</text>
</a>
</g>
</g>
<!-- Node22&#45;&gt;Node24 -->
<g id="edge23" class="edge">
<title>Node22&#45;&gt;Node24</title>
<path fill="none" stroke="midnightblue" d="M1101.75,-458.71C1112.18,-457.75 1122.95,-456.76 1133.61,-455.78"/>
<polygon fill="midnightblue" stroke="midnightblue" points="1134.15,-459.24 1143.79,-454.84 1133.51,-452.27 1134.15,-459.24"/>
</g>
<!-- Node25 -->
<g id="node25" class="node">
<title>Node25</title>
<g id="a_node25"><a xlink:href="../../db/d8a/classRunParamBase.html#abad1d51250d48280d4a72a64d6f57866" target="_top" xlink:title=" ">
<polygon fill="none" stroke="black" points="1150,-399.5 1150,-418.5 1310,-418.5 1310,-399.5 1150,-399.5"/>
<text text-anchor="middle" x="1230" y="-406.5" font-family="FreeSans" font-size="10.00">RunParamBase::ReadDbTable</text>
</a>
</g>
</g>
<!-- Node22&#45;&gt;Node25 -->
<g id="edge24" class="edge">
<title>Node22&#45;&gt;Node25</title>
<path fill="none" stroke="midnightblue" d="M1050.78,-456.42C1075.28,-448.3 1111.76,-436.63 1144,-428 1153.32,-425.5 1163.28,-423.07 1172.98,-420.83"/>
<polygon fill="midnightblue" stroke="midnightblue" points="1173.98,-424.19 1182.95,-418.56 1172.42,-417.36 1173.98,-424.19"/>
</g>
<!-- Node26 -->
<g id="node26" class="node">
<title>Node26</title>
<g id="a_node26"><a xlink:href="../../db/d8a/classRunParamBase.html#aa5d08eb3156c795dd3d09085a90d8629" target="_top" xlink:title=" ">
<polygon fill="none" stroke="black" points="1148,-475.5 1148,-494.5 1312,-494.5 1312,-475.5 1148,-475.5"/>
<text text-anchor="middle" x="1230" y="-482.5" font-family="FreeSans" font-size="10.00">RunParamBase::SchemaName</text>
</a>
</g>
</g>
<!-- Node22&#45;&gt;Node26 -->
<g id="edge25" class="edge">
<title>Node22&#45;&gt;Node26</title>
<path fill="none" stroke="midnightblue" d="M1101.75,-473.29C1113.57,-474.38 1125.83,-475.51 1137.87,-476.61"/>
<polygon fill="midnightblue" stroke="midnightblue" points="1137.63,-480.11 1147.91,-477.54 1138.28,-473.14 1137.63,-480.11"/>
</g>
<!-- Node27 -->
<g id="node27" class="node">
<title>Node27</title>
<g id="a_node27"><a xlink:href="../../d2/da4/classDbSvc.html#a7e4cc05e20e0a21eef9c185c34c51044" target="_top" xlink:title=" ">
<polygon fill="none" stroke="black" points="1174.5,-513.5 1174.5,-532.5 1285.5,-532.5 1285.5,-513.5 1174.5,-513.5"/>
<text text-anchor="middle" x="1230" y="-520.5" font-family="FreeSans" font-size="10.00">DbSvc::UseSchema</text>
</a>
</g>
</g>
<!-- Node22&#45;&gt;Node27 -->
<g id="edge26" class="edge">
<title>Node22&#45;&gt;Node27</title>
<path fill="none" stroke="midnightblue" d="M1050.78,-475.58C1075.28,-483.7 1111.76,-495.37 1144,-504 1153.32,-506.5 1163.28,-508.93 1172.98,-511.17"/>
<polygon fill="midnightblue" stroke="midnightblue" points="1172.42,-514.64 1182.95,-513.44 1173.98,-507.81 1172.42,-514.64"/>
</g>
<!-- Node30 -->
<g id="node30" class="node">
<title>Node30</title>
<g id="a_node30"><a xlink:href="../../d0/d0d/classParamRunRange.html#a6a2dad9dc6c5fe19ef4e07109f2de6c6" target="_top" xlink:title=" ">
<polygon fill="none" stroke="black" points="960,-532.5 960,-551.5 1083,-551.5 1083,-532.5 960,-532.5"/>
<text text-anchor="middle" x="1021.5" y="-539.5" font-family="FreeSans" font-size="10.00">ParamRunRange::Find</text>
</a>
</g>
</g>
<!-- Node29&#45;&gt;Node30 -->
<g id="edge30" class="edge">
<title>Node29&#45;&gt;Node30</title>
<path fill="none" stroke="midnightblue" d="M866.32,-589.39C877.32,-586.85 888.64,-583.75 899,-580 916.01,-573.85 918.02,-567.24 935,-561 942.05,-558.41 949.55,-556.11 957.08,-554.09"/>
<polygon fill="midnightblue" stroke="midnightblue" points="958.12,-557.44 966.96,-551.59 956.41,-550.65 958.12,-557.44"/>
</g>
<!-- Node31 -->
<g id="node31" class="node">
<title>Node31</title>
<g id="a_node31"><a xlink:href="../../db/d8a/classRunParamBase.html#aebc390d29c3083e39a226cce4293ac63" target="_top" xlink:title=" ">
<polygon fill="none" stroke="black" points="935,-608.5 935,-627.5 1108,-627.5 1108,-608.5 935,-608.5"/>
<text text-anchor="middle" x="1021.5" y="-615.5" font-family="FreeSans" font-size="10.00">RunParamBase::RangeFileName</text>
</a>
</g>
</g>
<!-- Node29&#45;&gt;Node31 -->
<g id="edge31" class="edge">
<title>Node29&#45;&gt;Node31</title>
<path fill="none" stroke="midnightblue" d="M893.2,-606.56C903.59,-607.5 914.26,-608.46 924.81,-609.4"/>
<polygon fill="midnightblue" stroke="midnightblue" points="924.59,-612.9 934.86,-610.31 925.22,-605.93 924.59,-612.9"/>
</g>
<!-- Node32 -->
<g id="node32" class="node">
<title>Node32</title>
<g id="a_node32"><a xlink:href="../../d0/d0d/classParamRunRange.html#a2ed6cb68949441b6a3a929fddd6c3910" target="_top" xlink:title=" ">
<polygon fill="none" stroke="black" points="938,-570.5 938,-589.5 1105,-589.5 1105,-570.5 938,-570.5"/>
<text text-anchor="middle" x="1021.5" y="-577.5" font-family="FreeSans" font-size="10.00">ParamRunRange::ReadFromDB</text>
</a>
</g>
</g>
<!-- Node29&#45;&gt;Node32 -->
<g id="edge32" class="edge">
<title>Node29&#45;&gt;Node32</title>
<path fill="none" stroke="midnightblue" d="M893.2,-591.44C904.6,-590.41 916.36,-589.36 927.9,-588.32"/>
<polygon fill="midnightblue" stroke="midnightblue" points="928.32,-591.79 937.97,-587.41 927.7,-584.82 928.32,-591.79"/>
</g>
<!-- Node32&#45;&gt;Node23 -->
<g id="edge33" class="edge">
<title>Node32&#45;&gt;Node23</title>
<path fill="none" stroke="midnightblue" d="M1105,-572.41C1127.01,-570.38 1150.33,-568.24 1170.74,-566.36"/>
<polygon fill="midnightblue" stroke="midnightblue" points="1171.17,-569.84 1180.81,-565.43 1170.53,-562.87 1171.17,-569.84"/>
</g>
<!-- Node32&#45;&gt;Node27 -->
<g id="edge35" class="edge">
<title>Node32&#45;&gt;Node27</title>
<path fill="none" stroke="midnightblue" d="M1076.04,-570.41C1086.78,-567.84 1097.87,-564.72 1108,-561 1124.98,-554.76 1127.02,-548.25 1144,-542 1151.18,-539.36 1158.85,-537.01 1166.53,-534.96"/>
<polygon fill="midnightblue" stroke="midnightblue" points="1167.39,-538.35 1176.22,-532.51 1165.67,-531.57 1167.39,-538.35"/>
</g>
<!-- Node33 -->
<g id="node33" class="node">
<title>Node33</title>
<g id="a_node33"><a xlink:href="../../d2/da4/classDbSvc.html#a5a73427afe9c0bd72d41b45e211ae187" target="_top" xlink:title=" ">
<polygon fill="none" stroke="black" points="1184.5,-589.5 1184.5,-608.5 1275.5,-608.5 1275.5,-589.5 1184.5,-589.5"/>
<text text-anchor="middle" x="1230" y="-596.5" font-family="FreeSans" font-size="10.00">DbSvc::Process</text>
</a>
</g>
</g>
<!-- Node32&#45;&gt;Node33 -->
<g id="edge34" class="edge">
<title>Node32&#45;&gt;Node33</title>
<path fill="none" stroke="midnightblue" d="M1105,-587.59C1128.27,-589.73 1153,-592.01 1174.21,-593.96"/>
<polygon fill="midnightblue" stroke="midnightblue" points="1174.04,-597.46 1184.31,-594.89 1174.68,-590.49 1174.04,-597.46"/>
</g>
<!-- Node39 -->
<g id="node39" class="node">
<title>Node39</title>
<g id="a_node39"><a xlink:href="../../d0/da0/classGeomSvc.html#ac4edd9b5679db2ac9b6f6bea59929447" target="_top" xlink:title=" ">
<polygon fill="none" stroke="black" points="730,-76.5 730,-95.5 886,-95.5 886,-76.5 730,-76.5"/>
<text text-anchor="middle" x="808" y="-83.5" font-family="FreeSans" font-size="10.00">GeomSvc::getDetectorName</text>
</a>
</g>
</g>
<!-- Node38&#45;&gt;Node39 -->
<g id="edge42" class="edge">
<title>Node38&#45;&gt;Node39</title>
<path fill="none" stroke="midnightblue" d="M666.55,-86C683.58,-86 701.97,-86 719.66,-86"/>
<polygon fill="midnightblue" stroke="midnightblue" points="719.98,-89.5 729.98,-86 719.98,-82.5 719.98,-89.5"/>
</g>
<!-- Node41&#45;&gt;Node40 -->
<g id="edge45" class="edge">
<title>Node41&#45;&gt;Node40</title>
<path fill="none" stroke="midnightblue" d="M681.21,-17.67C692.63,-18.7 704.37,-19.76 715.87,-20.79"/>
<polygon fill="midnightblue" stroke="midnightblue" points="715.64,-24.29 725.91,-21.7 716.27,-17.32 715.64,-24.29"/>
</g>
</g>
</svg>
