<?xml version="1.0" encoding="UTF-8" standalone="no"?>
<!DOCTYPE svg PUBLIC "-//W3C//DTD SVG 1.1//EN"
 "http://www.w3.org/Graphics/SVG/1.1/DTD/svg11.dtd">
<!-- Generated by graphviz version 2.30.1 (20200930.0103)
 -->
<!-- Title: PHG4BlockGeomContainer::AddLayerGeom Pages: 1 -->
<svg width="324pt" height="136pt"
 viewBox="0.00 0.00 324.00 136.00" xmlns="http://www.w3.org/2000/svg" xmlns:xlink="http://www.w3.org/1999/xlink">
<g id="graph0" class="graph" transform="scale(1 1) rotate(0) translate(4 132)">
<title>PHG4BlockGeomContainer::AddLayerGeom</title>
<!-- Node1 -->
<g id="node1" class="node"><title>Node1</title>
<polygon fill="#bfbfbf" stroke="black" points="0.5,-49 0.5,-79 135.5,-79 135.5,-49 0.5,-49"/>
<text text-anchor="start" x="8.5" y="-67" font-family="FreeSans" font-size="10.00">PHG4BlockGeomContainer</text>
<text text-anchor="middle" x="68" y="-56" font-family="FreeSans" font-size="10.00">::AddLayerGeom</text>
</g>
<!-- Node2 -->
<g id="node2" class="node"><title>Node2</title>
<g id="a_node2"><a xlink:href="../../df/d14/classPHG4BlockSubsystem.html#ac0d173351f388609274a5105753746c3" target="_top" xlink:title="InitRunSubsystem. ">
<polygon fill="none" stroke="black" points="186.5,-98 186.5,-128 301.5,-128 301.5,-98 186.5,-98"/>
<text text-anchor="start" x="194.5" y="-116" font-family="FreeSans" font-size="10.00">PHG4BlockSubsystem</text>
<text text-anchor="middle" x="244" y="-105" font-family="FreeSans" font-size="10.00">::InitRunSubsystem</text>
</a>
</g>
</g>
<!-- Node1&#45;&gt;Node2 -->
<g id="edge1" class="edge"><title>Node1&#45;&gt;Node2</title>
<path fill="none" stroke="midnightblue" d="M132.284,-81.8212C151.07,-87.1118 171.455,-92.8522 189.552,-97.9484"/>
<polygon fill="midnightblue" stroke="midnightblue" points="133.2,-78.4432 122.626,-79.1014 131.302,-85.1811 133.2,-78.4432"/>
</g>
<!-- Node3 -->
<g id="node3" class="node"><title>Node3</title>
<g id="a_node3"><a xlink:href="../../d4/d2d/classPHG4SquareTubeSubsystem.html#a5b92b85e8435b833679496938bc6c4d8" target="_top" xlink:title="InitRunSubsystem. ">
<polygon fill="none" stroke="black" points="172.5,-49 172.5,-79 315.5,-79 315.5,-49 172.5,-49"/>
<text text-anchor="start" x="180.5" y="-67" font-family="FreeSans" font-size="10.00">PHG4SquareTubeSubsystem</text>
<text text-anchor="middle" x="244" y="-56" font-family="FreeSans" font-size="10.00">::InitRunSubsystem</text>
</a>
</g>
</g>
<!-- Node1&#45;&gt;Node3 -->
<g id="edge2" class="edge"><title>Node1&#45;&gt;Node3</title>
<path fill="none" stroke="midnightblue" d="M145.99,-64C154.764,-64 163.675,-64 172.361,-64"/>
<polygon fill="midnightblue" stroke="midnightblue" points="145.775,-60.5001 135.775,-64 145.775,-67.5001 145.775,-60.5001"/>
</g>
<!-- Node4 -->
<g id="node4" class="node"><title>Node4</title>
<g id="a_node4"><a xlink:href="../../de/d78/classPHG4CollimatorSubsystem.html#a92f9e8f0d2891f34d9a638a76577a6b2" target="_top" xlink:title="InitRunSubsystem. ">
<polygon fill="none" stroke="black" points="177,-0 177,-30 311,-30 311,-0 177,-0"/>
<text text-anchor="start" x="185" y="-18" font-family="FreeSans" font-size="10.00">PHG4CollimatorSubsystem</text>
<text text-anchor="middle" x="244" y="-7" font-family="FreeSans" font-size="10.00">::InitRunSubsystem</text>
</a>
</g>
</g>
<!-- Node1&#45;&gt;Node4 -->
<g id="edge3" class="edge"><title>Node1&#45;&gt;Node4</title>
<path fill="none" stroke="midnightblue" d="M132.284,-46.1788C151.07,-40.8882 171.455,-35.1478 189.552,-30.0516"/>
<polygon fill="midnightblue" stroke="midnightblue" points="131.302,-42.8189 122.626,-48.8986 133.2,-49.5568 131.302,-42.8189"/>
</g>
</g>
</svg>
