<?xml version="1.0" encoding="UTF-8" standalone="no"?>
<!DOCTYPE svg PUBLIC "-//W3C//DTD SVG 1.1//EN"
 "http://www.w3.org/Graphics/SVG/1.1/DTD/svg11.dtd">
<!-- Generated by graphviz version 2.30.1 (20180413.0232)
 -->
<!-- Title: SQHit_v1::set_drift_distance Pages: 1 -->
<svg width="414pt" height="131pt"
 viewBox="0.00 0.00 414.00 131.00" xmlns="http://www.w3.org/2000/svg" xmlns:xlink="http://www.w3.org/1999/xlink">
<g id="graph0" class="graph" transform="scale(1 1) rotate(0) translate(4 127)">
<title>SQHit_v1::set_drift_distance</title>
<!-- Node1 -->
<g id="node1" class="node"><title>Node1</title>
<polygon fill="#bfbfbf" stroke="black" points="0.5,-49 0.5,-79 97.5,-79 97.5,-49 0.5,-49"/>
<text text-anchor="start" x="8.5" y="-67" font-family="FreeSans" font-size="10.00">SQHit_v1::set_drift</text>
<text text-anchor="middle" x="49" y="-56" font-family="FreeSans" font-size="10.00">_distance</text>
</g>
<!-- Node2 -->
<g id="node2" class="node"><title>Node2</title>
<g id="a_node2"><a xlink:href="../../d6/d98/classDPDigitizer.html#a9bf0122395ac7fcf5c832e78e52f4880" target="_top" xlink:title="main external call, fill the digi hit vector ">
<polygon fill="none" stroke="black" points="151.5,-98.5 151.5,-117.5 250.5,-117.5 250.5,-98.5 151.5,-98.5"/>
<text text-anchor="middle" x="201" y="-105.5" font-family="FreeSans" font-size="10.00">DPDigitizer::digitize</text>
</a>
</g>
</g>
<!-- Node1&#45;&gt;Node2 -->
<g id="edge1" class="edge"><title>Node1&#45;&gt;Node2</title>
<path fill="none" stroke="midnightblue" d="M107.621,-80.9021C127.825,-86.8286 149.809,-93.2774 167.261,-98.3967"/>
<polygon fill="midnightblue" stroke="midnightblue" points="108.454,-77.4992 97.8734,-78.0428 106.484,-84.2161 108.454,-77.4992"/>
</g>
<!-- Node4 -->
<g id="node4" class="node"><title>Node4</title>
<g id="a_node4"><a xlink:href="../../d9/d0c/classRndmEmbed.html#aab52cc2c180db26dd572a3556c8d6d9e" target="_top" xlink:title="RndmEmbed::process\l_event">
<polygon fill="none" stroke="black" points="146,-49 146,-79 256,-79 256,-49 146,-49"/>
<text text-anchor="start" x="154" y="-67" font-family="FreeSans" font-size="10.00">RndmEmbed::process</text>
<text text-anchor="middle" x="201" y="-56" font-family="FreeSans" font-size="10.00">_event</text>
</a>
</g>
</g>
<!-- Node1&#45;&gt;Node4 -->
<g id="edge3" class="edge"><title>Node1&#45;&gt;Node4</title>
<path fill="none" stroke="midnightblue" d="M108.105,-64C120.507,-64 133.558,-64 145.805,-64"/>
<polygon fill="midnightblue" stroke="midnightblue" points="107.873,-60.5001 97.8734,-64 107.873,-67.5001 107.873,-60.5001"/>
</g>
<!-- Node5 -->
<g id="node5" class="node"><title>Node5</title>
<g id="a_node5"><a xlink:href="../../d4/d36/classSRawEventEmbed.html#a0041b344c23d0d679125dbb74aa1652b" target="_top" xlink:title="SRawEventEmbed::process\l_event">
<polygon fill="none" stroke="black" points="134,-0 134,-30 268,-30 268,-0 134,-0"/>
<text text-anchor="start" x="142" y="-18" font-family="FreeSans" font-size="10.00">SRawEventEmbed::process</text>
<text text-anchor="middle" x="201" y="-7" font-family="FreeSans" font-size="10.00">_event</text>
</a>
</g>
</g>
<!-- Node1&#45;&gt;Node5 -->
<g id="edge4" class="edge"><title>Node1&#45;&gt;Node5</title>
<path fill="none" stroke="midnightblue" d="M105.895,-45.7409C121.716,-40.5727 138.752,-35.0076 153.924,-30.0516"/>
<polygon fill="midnightblue" stroke="midnightblue" points="104.648,-42.4663 96.2289,-48.8986 106.821,-49.1203 104.648,-42.4663"/>
</g>
<!-- Node3 -->
<g id="node3" class="node"><title>Node3</title>
<g id="a_node3"><a xlink:href="../../d6/d98/classDPDigitizer.html#a2d585e16710f9dc114334772f104869f" target="_top" xlink:title="event processing ">
<polygon fill="none" stroke="black" points="304,-93 304,-123 406,-123 406,-93 304,-93"/>
<text text-anchor="start" x="312" y="-111" font-family="FreeSans" font-size="10.00">DPDigitizer::process</text>
<text text-anchor="middle" x="355" y="-100" font-family="FreeSans" font-size="10.00">_event</text>
</a>
</g>
</g>
<!-- Node2&#45;&gt;Node3 -->
<g id="edge2" class="edge"><title>Node2&#45;&gt;Node3</title>
<path fill="none" stroke="midnightblue" d="M260.702,-108C274.948,-108 290.049,-108 303.858,-108"/>
<polygon fill="midnightblue" stroke="midnightblue" points="260.512,-104.5 250.512,-108 260.512,-111.5 260.512,-104.5"/>
</g>
</g>
</svg>
