<?xml version="1.0" encoding="UTF-8" standalone="no"?>
<!DOCTYPE svg PUBLIC "-//W3C//DTD SVG 1.1//EN"
 "http://www.w3.org/Graphics/SVG/1.1/DTD/svg11.dtd">
<!-- Generated by graphviz version 2.36.0 (20140111.2315)
 -->
<!-- Title: /home/yuhw/GitHub/SeaQuest/e1039&#45;core/interface_main/SQEvent_v1.h Pages: 1 -->
<svg width="380pt" height="218pt"
 viewBox="0.00 0.00 380.00 218.00" xmlns="http://www.w3.org/2000/svg" xmlns:xlink="http://www.w3.org/1999/xlink">
<g id="graph0" class="graph" transform="scale(1 1) rotate(0) translate(4 214)">
<title>/home/yuhw/GitHub/SeaQuest/e1039&#45;core/interface_main/SQEvent_v1.h</title>
<!-- Node1 -->
<g id="node1" class="node"><title>Node1</title>
<polygon fill="#bfbfbf" stroke="black" points="136.5,-168.5 136.5,-209.5 285.5,-209.5 285.5,-168.5 136.5,-168.5"/>
<text text-anchor="start" x="144.5" y="-197.5" font-family="FreeSans" font-size="10.00">/home/yuhw/GitHub/SeaQuest</text>
<text text-anchor="start" x="144.5" y="-186.5" font-family="FreeSans" font-size="10.00">/e1039&#45;core/interface_main</text>
<text text-anchor="middle" x="211" y="-175.5" font-family="FreeSans" font-size="10.00">/SQEvent_v1.h</text>
</g>
<!-- Node2 -->
<g id="node2" class="node"><title>Node2</title>
<g id="a_node2"><a xlink:href="../../df/d32/PHObject_8h.html" target="_top" xlink:title="phool/PHObject.h">
<polygon fill="none" stroke="black" points="-0.5,-56.5 -0.5,-75.5 92.5,-75.5 92.5,-56.5 -0.5,-56.5"/>
<text text-anchor="middle" x="46" y="-63.5" font-family="FreeSans" font-size="10.00">phool/PHObject.h</text>
</a>
</g>
</g>
<!-- Node1&#45;&gt;Node2 -->
<g id="edge1" class="edge"><title>Node1&#45;&gt;Node2</title>
<path fill="none" stroke="midnightblue" d="M167.353,-168.451C147.984,-158.803 125.451,-146.188 107,-132 88.5099,-117.782 70.6478,-97.7748 59.0834,-83.7239"/>
<polygon fill="midnightblue" stroke="midnightblue" points="61.7433,-81.4465 52.7474,-75.8498 56.2897,-85.8349 61.7433,-81.4465"/>
</g>
<!-- Node4 -->
<g id="node4" class="node"><title>Node4</title>
<polygon fill="none" stroke="#bfbfbf" points="94,-0.5 94,-19.5 148,-19.5 148,-0.5 94,-0.5"/>
<text text-anchor="middle" x="121" y="-7.5" font-family="FreeSans" font-size="10.00">iostream</text>
</g>
<!-- Node1&#45;&gt;Node4 -->
<g id="edge5" class="edge"><title>Node1&#45;&gt;Node4</title>
<path fill="none" stroke="midnightblue" d="M176.201,-168.422C162.795,-159.115 148.641,-146.77 140,-132 121.182,-99.8355 119.224,-55.0052 119.862,-29.9228"/>
<polygon fill="midnightblue" stroke="midnightblue" points="123.372,-29.7612 120.303,-19.6205 116.378,-29.4615 123.372,-29.7612"/>
</g>
<!-- Node5 -->
<g id="node5" class="node"><title>Node5</title>
<polygon fill="none" stroke="#bfbfbf" points="205.5,-56.5 205.5,-75.5 240.5,-75.5 240.5,-56.5 205.5,-56.5"/>
<text text-anchor="middle" x="223" y="-63.5" font-family="FreeSans" font-size="10.00">map</text>
</g>
<!-- Node1&#45;&gt;Node5 -->
<g id="edge4" class="edge"><title>Node1&#45;&gt;Node5</title>
<path fill="none" stroke="midnightblue" d="M215.223,-168.403C217.346,-157.7 219.732,-144.18 221,-132 222.609,-116.54 223.066,-98.9099 223.145,-85.9147"/>
<polygon fill="midnightblue" stroke="midnightblue" points="226.645,-85.8556 223.136,-75.8588 219.645,-85.862 226.645,-85.8556"/>
</g>
<!-- Node6 -->
<g id="node6" class="node"><title>Node6</title>
<polygon fill="none" stroke="#bfbfbf" points="269,-112.5 269,-131.5 309,-131.5 309,-112.5 269,-112.5"/>
<text text-anchor="middle" x="289" y="-119.5" font-family="FreeSans" font-size="10.00">limits</text>
</g>
<!-- Node1&#45;&gt;Node6 -->
<g id="edge6" class="edge"><title>Node1&#45;&gt;Node6</title>
<path fill="none" stroke="midnightblue" d="M234.403,-168.498C246.016,-158.82 259.84,-147.3 270.671,-138.274"/>
<polygon fill="midnightblue" stroke="midnightblue" points="273.175,-140.743 278.617,-131.652 268.694,-135.366 273.175,-140.743"/>
</g>
<!-- Node7 -->
<g id="node7" class="node"><title>Node7</title>
<polygon fill="none" stroke="#bfbfbf" points="327.5,-112.5 327.5,-131.5 372.5,-131.5 372.5,-112.5 327.5,-112.5"/>
<text text-anchor="middle" x="350" y="-119.5" font-family="FreeSans" font-size="10.00">climits</text>
</g>
<!-- Node1&#45;&gt;Node7 -->
<g id="edge7" class="edge"><title>Node1&#45;&gt;Node7</title>
<path fill="none" stroke="midnightblue" d="M252.705,-168.498C275.245,-157.957 302.456,-145.233 322.364,-135.923"/>
<polygon fill="midnightblue" stroke="midnightblue" points="323.921,-139.059 331.497,-131.652 320.956,-132.718 323.921,-139.059"/>
</g>
<!-- Node8 -->
<g id="node8" class="node"><title>Node8</title>
<g id="a_node8"><a xlink:href="../../d0/db5/SQEvent_8h.html" target="_top" xlink:title="SQEvent.h">
<polygon fill="none" stroke="black" points="149.5,-112.5 149.5,-131.5 212.5,-131.5 212.5,-112.5 149.5,-112.5"/>
<text text-anchor="middle" x="181" y="-119.5" font-family="FreeSans" font-size="10.00">SQEvent.h</text>
</a>
</g>
</g>
<!-- Node1&#45;&gt;Node8 -->
<g id="edge8" class="edge"><title>Node1&#45;&gt;Node8</title>
<path fill="none" stroke="midnightblue" d="M201.999,-168.498C197.93,-159.682 193.156,-149.339 189.189,-140.743"/>
<polygon fill="midnightblue" stroke="midnightblue" points="192.362,-139.265 184.993,-131.652 186.006,-142.199 192.362,-139.265"/>
</g>
<!-- Node3 -->
<g id="node3" class="node"><title>Node3</title>
<polygon fill="none" stroke="#bfbfbf" points="16.5,-0.5 16.5,-19.5 75.5,-19.5 75.5,-0.5 16.5,-0.5"/>
<text text-anchor="middle" x="46" y="-7.5" font-family="FreeSans" font-size="10.00">TObject.h</text>
</g>
<!-- Node2&#45;&gt;Node3 -->
<g id="edge2" class="edge"><title>Node2&#45;&gt;Node3</title>
<path fill="none" stroke="midnightblue" d="M46,-56.083C46,-49.0059 46,-38.8611 46,-29.9865"/>
<polygon fill="midnightblue" stroke="midnightblue" points="49.5001,-29.751 46,-19.7511 42.5001,-29.7511 49.5001,-29.751"/>
</g>
<!-- Node2&#45;&gt;Node4 -->
<g id="edge3" class="edge"><title>Node2&#45;&gt;Node4</title>
<path fill="none" stroke="midnightblue" d="M58.05,-56.324C69.4631,-48.1066 86.831,-35.6017 100.435,-25.8069"/>
<polygon fill="midnightblue" stroke="midnightblue" points="102.66,-28.5174 108.731,-19.8339 98.5703,-22.8366 102.66,-28.5174"/>
</g>
<!-- Node8&#45;&gt;Node2 -->
<g id="edge9" class="edge"><title>Node8&#45;&gt;Node2</title>
<path fill="none" stroke="midnightblue" d="M159.609,-112.444C137.293,-103.517 102.097,-89.4387 76.792,-79.3168"/>
<polygon fill="midnightblue" stroke="midnightblue" points="77.8757,-75.9807 67.2911,-75.5164 75.276,-82.4801 77.8757,-75.9807"/>
</g>
<!-- Node8&#45;&gt;Node4 -->
<g id="edge11" class="edge"><title>Node8&#45;&gt;Node4</title>
<path fill="none" stroke="midnightblue" d="M176.292,-112.368C166.478,-94.376 143.664,-52.5503 130.615,-28.6267"/>
<polygon fill="midnightblue" stroke="midnightblue" points="133.547,-26.6944 125.686,-19.5914 127.402,-30.0464 133.547,-26.6944"/>
</g>
<!-- Node8&#45;&gt;Node5 -->
<g id="edge10" class="edge"><title>Node8&#45;&gt;Node5</title>
<path fill="none" stroke="midnightblue" d="M187.935,-112.083C193.929,-104.377 202.752,-93.0333 210.048,-83.6531"/>
<polygon fill="midnightblue" stroke="midnightblue" points="212.817,-85.7934 216.194,-75.7511 207.291,-81.4958 212.817,-85.7934"/>
</g>
</g>
</svg>
