<?xml version="1.0" encoding="UTF-8" standalone="no"?>
<!DOCTYPE svg PUBLIC "-//W3C//DTD SVG 1.1//EN"
 "http://www.w3.org/Graphics/SVG/1.1/DTD/svg11.dtd">
<!-- Generated by graphviz version 2.30.1 (20200930.0103)
 -->
<!-- Title: SQGenFit::GFMeasurement::clone Pages: 1 -->
<svg width="1686pt" height="937pt"
 viewBox="0.00 0.00 1686.00 937.47" xmlns="http://www.w3.org/2000/svg" xmlns:xlink="http://www.w3.org/1999/xlink">
<g id="graph0" class="graph" transform="scale(1 1) rotate(0) translate(4 933.473)">
<title>SQGenFit::GFMeasurement::clone</title>
<!-- Node1 -->
<g id="node1" class="node"><title>Node1</title>
<polygon fill="#bfbfbf" stroke="black" points="0.5,-342.473 0.5,-372.473 137.5,-372.473 137.5,-342.473 0.5,-342.473"/>
<text text-anchor="start" x="8.5" y="-360.473" font-family="FreeSans" font-size="10.00">SQGenFit::GFMeasurement</text>
<text text-anchor="middle" x="69" y="-349.473" font-family="FreeSans" font-size="10.00">::clone</text>
</g>
<!-- Node2 -->
<g id="node2" class="node"><title>Node2</title>
<g id="a_node2"><a xlink:href="../../d4/d9d/classSQGenFit_1_1GFMeasurement.html#ae83ac0b6a0fe46329ba41826b3922ea4" target="_top" target="_top" target="_top" xlink:title="SQGenFit::GFMeasurement\l::GFMeasurement">
<polygon fill="none" stroke="black" points="174.5,-342.473 174.5,-372.473 311.5,-372.473 311.5,-342.473 174.5,-342.473"/>
<text text-anchor="start" x="182.5" y="-360.473" font-family="FreeSans" font-size="10.00">SQGenFit::GFMeasurement</text>
<text text-anchor="middle" x="243" y="-349.473" font-family="FreeSans" font-size="10.00">::GFMeasurement</text>
</a>
</g>
</g>
<!-- Node1&#45;&gt;Node2 -->
<g id="edge1" class="edge"><title>Node1&#45;&gt;Node2</title>
<path fill="none" stroke="midnightblue" d="M137.979,-357.473C146.55,-357.473 155.372,-357.473 164.082,-357.473"/>
<polygon fill="midnightblue" stroke="midnightblue" points="164.233,-360.973 174.233,-357.473 164.233,-353.973 164.233,-360.973"/>
</g>
<!-- Node3 -->
<g id="node3" class="node"><title>Node3</title>
<g id="a_node3"><a xlink:href="../../d0/da0/classGeomSvc.html#a62517e6e6692a7f4a7ee4f45acfbc1a3" target="_top" target="_top" target="_top" xlink:title="GeomSvc::getCellWidth">
<polygon fill="none" stroke="black" points="362.5,-423.973 362.5,-442.973 481.5,-442.973 481.5,-423.973 362.5,-423.973"/>
<text text-anchor="middle" x="422" y="-430.973" font-family="FreeSans" font-size="10.00">GeomSvc::getCellWidth</text>
</a>
</g>
</g>
<!-- Node2&#45;&gt;Node3 -->
<g id="edge2" class="edge"><title>Node2&#45;&gt;Node3</title>
<path fill="none" stroke="midnightblue" d="M267.552,-372.583C288.113,-385.23 319.105,-402.999 348,-414.473 354.215,-416.941 360.855,-419.181 367.503,-421.184"/>
<polygon fill="midnightblue" stroke="midnightblue" points="366.624,-424.573 377.201,-423.951 368.545,-417.842 366.624,-424.573"/>
</g>
<!-- Node4 -->
<g id="node4" class="node"><title>Node4</title>
<g id="a_node4"><a xlink:href="../../d0/da0/classGeomSvc.html#a631d2a6b362ac1c735920cb16f056945" target="_top" target="_top" target="_top" xlink:title="GeomSvc::getEndPoints">
<polygon fill="none" stroke="black" points="361.5,-385.973 361.5,-404.973 482.5,-404.973 482.5,-385.973 361.5,-385.973"/>
<text text-anchor="middle" x="422" y="-392.973" font-family="FreeSans" font-size="10.00">GeomSvc::getEndPoints</text>
</a>
</g>
</g>
<!-- Node2&#45;&gt;Node4 -->
<g id="edge3" class="edge"><title>Node2&#45;&gt;Node4</title>
<path fill="none" stroke="midnightblue" d="M311.674,-372.002C329.867,-375.908 349.304,-380.081 366.668,-383.809"/>
<polygon fill="midnightblue" stroke="midnightblue" points="366.116,-387.27 376.628,-385.947 367.585,-380.426 366.116,-387.27"/>
</g>
<!-- Node5 -->
<g id="node5" class="node"><title>Node5</title>
<g id="a_node5"><a xlink:href="../../d0/da0/classGeomSvc.html#a58a3d25847e956be5173e1c0241d8cc3" target="_top" target="_top" target="_top" xlink:title="GeomSvc::getPlanePosition">
<polygon fill="none" stroke="black" points="353.5,-347.973 353.5,-366.973 490.5,-366.973 490.5,-347.973 353.5,-347.973"/>
<text text-anchor="middle" x="422" y="-354.973" font-family="FreeSans" font-size="10.00">GeomSvc::getPlanePosition</text>
</a>
</g>
</g>
<!-- Node2&#45;&gt;Node5 -->
<g id="edge4" class="edge"><title>Node2&#45;&gt;Node5</title>
<path fill="none" stroke="midnightblue" d="M311.674,-357.473C322.028,-357.473 332.785,-357.473 343.334,-357.473"/>
<polygon fill="midnightblue" stroke="midnightblue" points="343.364,-360.973 353.364,-357.473 343.364,-353.973 343.364,-360.973"/>
</g>
<!-- Node6 -->
<g id="node6" class="node"><title>Node6</title>
<g id="a_node6"><a xlink:href="../../d0/da0/classGeomSvc.html#ab24b24f8545dab241ef926371741ac71" target="_top" target="_top" target="_top" xlink:title="GeomSvc::getPlaneResolution">
<polygon fill="none" stroke="black" points="348.5,-309.973 348.5,-328.973 495.5,-328.973 495.5,-309.973 348.5,-309.973"/>
<text text-anchor="middle" x="422" y="-316.973" font-family="FreeSans" font-size="10.00">GeomSvc::getPlaneResolution</text>
</a>
</g>
</g>
<!-- Node2&#45;&gt;Node6 -->
<g id="edge5" class="edge"><title>Node2&#45;&gt;Node6</title>
<path fill="none" stroke="midnightblue" d="M311.674,-342.944C329.867,-339.039 349.304,-334.866 366.668,-331.138"/>
<polygon fill="midnightblue" stroke="midnightblue" points="367.585,-334.521 376.628,-329 366.116,-327.677 367.585,-334.521"/>
</g>
<!-- Node7 -->
<g id="node7" class="node"><title>Node7</title>
<g id="a_node7"><a xlink:href="../../d0/da0/classGeomSvc.html#a2b7ecf5467120206b9479654c48ad7c4" target="_top" target="_top" target="_top" xlink:title="singlton instance ">
<polygon fill="none" stroke="black" points="372,-271.973 372,-290.973 472,-290.973 472,-271.973 372,-271.973"/>
<text text-anchor="middle" x="422" y="-278.973" font-family="FreeSans" font-size="10.00">GeomSvc::instance</text>
</a>
</g>
</g>
<!-- Node2&#45;&gt;Node7 -->
<g id="edge6" class="edge"><title>Node2&#45;&gt;Node7</title>
<path fill="none" stroke="midnightblue" d="M267.552,-342.363C288.113,-329.717 319.105,-311.947 348,-300.473 354.215,-298.005 360.855,-295.766 367.503,-293.762"/>
<polygon fill="midnightblue" stroke="midnightblue" points="368.545,-297.105 377.201,-290.996 366.624,-290.373 368.545,-297.105"/>
</g>
<!-- Node8 -->
<g id="node8" class="node"><title>Node8</title>
<g id="a_node8"><a xlink:href="../../d0/da0/classGeomSvc.html#a96ec4efc82cbaed0b5623e4dd69385b6" target="_top" target="_top" target="_top" xlink:title="Initialization, either from MySQL or from ascii file. ">
<polygon fill="none" stroke="black" points="532.5,-164.973 532.5,-183.973 609.5,-183.973 609.5,-164.973 532.5,-164.973"/>
<text text-anchor="middle" x="571" y="-171.973" font-family="FreeSans" font-size="10.00">GeomSvc::init</text>
</a>
</g>
</g>
<!-- Node7&#45;&gt;Node8 -->
<g id="edge7" class="edge"><title>Node7&#45;&gt;Node8</title>
<path fill="none" stroke="midnightblue" d="M436.305,-271.789C461.777,-253.248 517.639,-212.586 548.482,-190.136"/>
<polygon fill="midnightblue" stroke="midnightblue" points="550.806,-192.773 556.831,-184.059 546.687,-187.114 550.806,-192.773"/>
</g>
<!-- Node9 -->
<g id="node9" class="node"><title>Node9</title>
<g id="a_node9"><a xlink:href="../../d0/da0/classGeomSvc.html#adbe1473f9b3a8ff942da8d7d8ee28322" target="_top" target="_top" target="_top" xlink:title="GeomSvc::initPlaneDbSvc">
<polygon fill="none" stroke="black" points="658,-126.973 658,-145.973 788,-145.973 788,-126.973 658,-126.973"/>
<text text-anchor="middle" x="723" y="-133.973" font-family="FreeSans" font-size="10.00">GeomSvc::initPlaneDbSvc</text>
</a>
</g>
</g>
<!-- Node8&#45;&gt;Node9 -->
<g id="edge8" class="edge"><title>Node8&#45;&gt;Node9</title>
<path fill="none" stroke="midnightblue" d="M608.876,-164.956C620.726,-161.911 633.914,-158.536 646,-155.473 655.004,-153.192 664.613,-150.775 673.864,-148.458"/>
<polygon fill="midnightblue" stroke="midnightblue" points="674.863,-151.816 683.715,-145.994 673.164,-145.025 674.863,-151.816"/>
</g>
<!-- Node44 -->
<g id="node44" class="node"><title>Node44</title>
<g id="a_node44"><a xlink:href="../../d0/da0/classGeomSvc.html#a0d550b9f787318d57cdae9db2d04d6fb" target="_top" target="_top" target="_top" xlink:title="GeomSvc::initPlaneDirect">
<polygon fill="none" stroke="black" points="659.5,-278.973 659.5,-297.973 786.5,-297.973 786.5,-278.973 659.5,-278.973"/>
<text text-anchor="middle" x="723" y="-285.973" font-family="FreeSans" font-size="10.00">GeomSvc::initPlaneDirect</text>
</a>
</g>
</g>
<!-- Node8&#45;&gt;Node44 -->
<g id="edge54" class="edge"><title>Node8&#45;&gt;Node44</title>
<path fill="none" stroke="midnightblue" d="M576.63,-183.999C586.525,-203.308 611.658,-247.12 646,-269.473 649.149,-271.523 652.503,-273.351 655.982,-274.983"/>
<polygon fill="midnightblue" stroke="midnightblue" points="654.845,-278.299 665.425,-278.856 657.501,-271.823 654.845,-278.299"/>
</g>
<!-- Node45 -->
<g id="node45" class="node"><title>Node45</title>
<g id="a_node45"><a xlink:href="../../d0/da0/classGeomSvc.html#a0c78d3ac904cfbb367e96c73f176630d" target="_top" target="_top" target="_top" xlink:title="GeomSvc::initWireLUT">
<polygon fill="none" stroke="black" points="666,-240.973 666,-259.973 780,-259.973 780,-240.973 666,-240.973"/>
<text text-anchor="middle" x="723" y="-247.973" font-family="FreeSans" font-size="10.00">GeomSvc::initWireLUT</text>
</a>
</g>
</g>
<!-- Node8&#45;&gt;Node45 -->
<g id="edge55" class="edge"><title>Node8&#45;&gt;Node45</title>
<path fill="none" stroke="midnightblue" d="M581.636,-184.051C594.966,-196.762 620.308,-219.042 646,-231.473 650.974,-233.88 656.283,-236.001 661.695,-237.867"/>
<polygon fill="midnightblue" stroke="midnightblue" points="660.91,-241.289 671.5,-240.956 663.014,-234.613 660.91,-241.289"/>
</g>
<!-- Node10 -->
<g id="node10" class="node"><title>Node10</title>
<g id="a_node10"><a xlink:href="../../d8/d14/classrecoConsts.html#aea8535068aa74d8acf1f98e938a1ff85" target="_top" target="_top" target="_top" xlink:title="recoConsts::instance">
<polygon fill="none" stroke="black" points="1240.5,-262.973 1240.5,-281.973 1345.5,-281.973 1345.5,-262.973 1240.5,-262.973"/>
<text text-anchor="middle" x="1293" y="-269.973" font-family="FreeSans" font-size="10.00">recoConsts::instance</text>
</a>
</g>
</g>
<!-- Node8&#45;&gt;Node10 -->
<g id="edge56" class="edge"><title>Node8&#45;&gt;Node10</title>
<path fill="none" stroke="midnightblue" d="M574.098,-164.652C580.101,-139.297 599.965,-71.7279 646,-44.4733 779.095,34.325 842.496,-10.3278 994,-41.4733 1087.8,-60.7572 1118.01,-65.6714 1192,-126.473 1236.14,-162.75 1268.93,-223.372 1283.56,-253.821"/>
<polygon fill="midnightblue" stroke="midnightblue" points="1280.4,-255.339 1287.81,-262.912 1286.74,-252.371 1280.4,-255.339"/>
</g>
<!-- Node46 -->
<g id="node46" class="node"><title>Node46</title>
<g id="a_node46"><a xlink:href="../../d0/da0/classGeomSvc.html#ab6c810e39b86ce66a4be6a596b4d54b8" target="_top" target="_top" target="_top" xlink:title="GeomSvc::loadAlignment">
<polygon fill="none" stroke="black" points="660.5,-202.973 660.5,-221.973 785.5,-221.973 785.5,-202.973 660.5,-202.973"/>
<text text-anchor="middle" x="723" y="-209.973" font-family="FreeSans" font-size="10.00">GeomSvc::loadAlignment</text>
</a>
</g>
</g>
<!-- Node8&#45;&gt;Node46 -->
<g id="edge57" class="edge"><title>Node8&#45;&gt;Node46</title>
<path fill="none" stroke="midnightblue" d="M608.876,-183.99C620.726,-187.036 633.914,-190.411 646,-193.473 655.004,-195.755 664.613,-198.171 673.864,-200.488"/>
<polygon fill="midnightblue" stroke="midnightblue" points="673.164,-203.921 683.715,-202.952 674.863,-197.13 673.164,-203.921"/>
</g>
<!-- Node47 -->
<g id="node47" class="node"><title>Node47</title>
<g id="a_node47"><a xlink:href="../../d0/da0/classGeomSvc.html#abc60088ed5985a796f5df18ae4299661" target="_top" target="_top" target="_top" xlink:title="GeomSvc::loadCalibration">
<polygon fill="none" stroke="black" points="659,-164.973 659,-183.973 787,-183.973 787,-164.973 659,-164.973"/>
<text text-anchor="middle" x="723" y="-171.973" font-family="FreeSans" font-size="10.00">GeomSvc::loadCalibration</text>
</a>
</g>
</g>
<!-- Node8&#45;&gt;Node47 -->
<g id="edge58" class="edge"><title>Node8&#45;&gt;Node47</title>
<path fill="none" stroke="midnightblue" d="M609.851,-174.473C621.678,-174.473 635.153,-174.473 648.561,-174.473"/>
<polygon fill="midnightblue" stroke="midnightblue" points="648.774,-177.973 658.774,-174.473 648.774,-170.973 648.774,-177.973"/>
</g>
<!-- Node49 -->
<g id="node49" class="node"><title>Node49</title>
<g id="a_node49"><a xlink:href="../../d0/da0/classGeomSvc.html#a418543d7b33fc95092b2cd4a7496f1b8" target="_top" target="_top" target="_top" xlink:title="GeomSvc::loadMilleAlignment">
<polygon fill="none" stroke="black" points="842,-50.9733 842,-69.9733 988,-69.9733 988,-50.9733 842,-50.9733"/>
<text text-anchor="middle" x="915" y="-57.9733" font-family="FreeSans" font-size="10.00">GeomSvc::loadMilleAlignment</text>
</a>
</g>
</g>
<!-- Node8&#45;&gt;Node49 -->
<g id="edge60" class="edge"><title>Node8&#45;&gt;Node49</title>
<path fill="none" stroke="midnightblue" d="M576.189,-164.749C585.428,-144.663 609.659,-98.8526 646,-79.4733 705.476,-47.757 783.2,-45.7929 839.62,-50.098"/>
<polygon fill="midnightblue" stroke="midnightblue" points="839.638,-53.6119 849.898,-50.969 840.229,-46.6369 839.638,-53.6119"/>
</g>
<!-- Node50 -->
<g id="node50" class="node"><title>Node50</title>
<g id="a_node50"><a xlink:href="../../d0/da0/classGeomSvc.html#a6234a9e4de78f5667104d23c8828b79f" target="_top" target="_top" target="_top" xlink:title="Load parameters used in the online&#45;alignment mode. ">
<polygon fill="none" stroke="black" points="646.5,-88.9733 646.5,-107.973 799.5,-107.973 799.5,-88.9733 646.5,-88.9733"/>
<text text-anchor="middle" x="723" y="-95.9733" font-family="FreeSans" font-size="10.00">GeomSvc::loadOnlineAlignment</text>
</a>
</g>
</g>
<!-- Node8&#45;&gt;Node50 -->
<g id="edge61" class="edge"><title>Node8&#45;&gt;Node50</title>
<path fill="none" stroke="midnightblue" d="M581.636,-164.895C594.966,-152.184 620.308,-129.905 646,-117.473 650.974,-115.067 656.283,-112.945 661.695,-111.08"/>
<polygon fill="midnightblue" stroke="midnightblue" points="663.014,-114.334 671.5,-107.99 660.91,-107.657 663.014,-114.334"/>
</g>
<!-- Node9&#45;&gt;Node10 -->
<g id="edge9" class="edge"><title>Node9&#45;&gt;Node10</title>
<path fill="none" stroke="midnightblue" d="M788.302,-132.84C899.553,-127.576 1122.69,-121.816 1192,-155.473 1235.67,-176.681 1267.72,-226.718 1282.65,-253.981"/>
<polygon fill="midnightblue" stroke="midnightblue" points="1279.6,-255.695 1287.37,-262.9 1285.79,-252.423 1279.6,-255.695"/>
</g>
<!-- Node17 -->
<g id="node17" class="node"><title>Node17</title>
<g id="a_node17"><a xlink:href="../../df/dbc/run_8C.html#a078d38b1d96e7c0e4f35d93363cc8325" target="_top" target="_top" target="_top" xlink:title="run">
<polygon fill="none" stroke="black" points="900,-442.973 900,-461.973 930,-461.973 930,-442.973 900,-442.973"/>
<text text-anchor="middle" x="915" y="-449.973" font-family="FreeSans" font-size="10.00">run</text>
</a>
</g>
</g>
<!-- Node9&#45;&gt;Node17 -->
<g id="edge16" class="edge"><title>Node9&#45;&gt;Node17</title>
<path fill="none" stroke="midnightblue" d="M785.194,-145.994C790.569,-148.486 795.621,-151.597 800,-155.473 885.721,-231.363 907.366,-379.083 912.499,-432.55"/>
<polygon fill="midnightblue" stroke="midnightblue" points="909.031,-433.071 913.381,-442.731 916.005,-432.467 909.031,-433.071"/>
</g>
<!-- Node43 -->
<g id="node43" class="node"><title>Node43</title>
<g id="a_node43"><a xlink:href="../../d0/da0/classGeomSvc.html#a315e886f05db8254ed7d320706e268e6" target="_top" target="_top" target="_top" xlink:title="Convert the official detectorName to local detectorName. ">
<polygon fill="none" stroke="black" points="836,-88.9733 836,-107.973 994,-107.973 994,-88.9733 836,-88.9733"/>
<text text-anchor="middle" x="915" y="-95.9733" font-family="FreeSans" font-size="10.00">GeomSvc::toLocalDetectorName</text>
</a>
</g>
</g>
<!-- Node9&#45;&gt;Node43 -->
<g id="edge53" class="edge"><title>Node9&#45;&gt;Node43</title>
<path fill="none" stroke="midnightblue" d="M771.945,-126.884C797.582,-121.757 829.336,-115.406 856.316,-110.01"/>
<polygon fill="midnightblue" stroke="midnightblue" points="857.28,-113.387 866.4,-107.993 855.908,-106.523 857.28,-113.387"/>
</g>
<!-- Node11 -->
<g id="node11" class="node"><title>Node11</title>
<g id="a_node11"><a xlink:href="../../d8/d14/classrecoConsts.html#ae882d6adc62f783ec78114fe3dee3c24" target="_top" target="_top" target="_top" xlink:title="recoConsts::recoConsts">
<polygon fill="none" stroke="black" points="1396.5,-262.973 1396.5,-281.973 1513.5,-281.973 1513.5,-262.973 1396.5,-262.973"/>
<text text-anchor="middle" x="1455" y="-269.973" font-family="FreeSans" font-size="10.00">recoConsts::recoConsts</text>
</a>
</g>
</g>
<!-- Node10&#45;&gt;Node11 -->
<g id="edge10" class="edge"><title>Node10&#45;&gt;Node11</title>
<path fill="none" stroke="midnightblue" d="M1345.51,-272.473C1358.46,-272.473 1372.57,-272.473 1386.19,-272.473"/>
<polygon fill="midnightblue" stroke="midnightblue" points="1386.49,-275.973 1396.49,-272.473 1386.49,-268.973 1386.49,-275.973"/>
</g>
<!-- Node12 -->
<g id="node12" class="node"><title>Node12</title>
<g id="a_node12"><a xlink:href="../../d8/d14/classrecoConsts.html#a864b1da9614924988d09542c268c42dc" target="_top" target="_top" target="_top" xlink:title="set the default value for all the constants needed &#45; user is supposed to add a default value here to ...">
<polygon fill="none" stroke="black" points="1394.5,-575.973 1394.5,-594.973 1515.5,-594.973 1515.5,-575.973 1394.5,-575.973"/>
<text text-anchor="middle" x="1455" y="-582.973" font-family="FreeSans" font-size="10.00">recoConsts::set_defaults</text>
</a>
</g>
</g>
<!-- Node10&#45;&gt;Node12 -->
<g id="edge11" class="edge"><title>Node10&#45;&gt;Node12</title>
<path fill="none" stroke="midnightblue" d="M1328.21,-281.986C1338.95,-286.413 1350.06,-292.701 1358,-301.473 1429.61,-380.587 1448.09,-515.144 1452.61,-565.59"/>
<polygon fill="midnightblue" stroke="midnightblue" points="1449.14,-566.095 1453.44,-575.781 1456.12,-565.532 1449.14,-566.095"/>
</g>
<!-- Node13 -->
<g id="node13" class="node"><title>Node13</title>
<g id="a_node13"><a xlink:href="../../d1/da8/classPHFlag.html#a5aaf1fedd8907f4b2b0c9535a4491f42" target="_top" target="_top" target="_top" xlink:title="PHFlag::set_BoolFlag">
<polygon fill="none" stroke="black" points="1560,-537.973 1560,-556.973 1670,-556.973 1670,-537.973 1560,-537.973"/>
<text text-anchor="middle" x="1615" y="-544.973" font-family="FreeSans" font-size="10.00">PHFlag::set_BoolFlag</text>
</a>
</g>
</g>
<!-- Node12&#45;&gt;Node13 -->
<g id="edge12" class="edge"><title>Node12&#45;&gt;Node13</title>
<path fill="none" stroke="midnightblue" d="M1495.87,-575.884C1516.72,-570.87 1542.43,-564.685 1564.54,-559.368"/>
<polygon fill="midnightblue" stroke="midnightblue" points="1565.51,-562.735 1574.42,-556.993 1563.88,-555.929 1565.51,-562.735"/>
</g>
<!-- Node14 -->
<g id="node14" class="node"><title>Node14</title>
<g id="a_node14"><a xlink:href="../../d8/d14/classrecoConsts.html#aec7c7c885b190f7dbb57ac99af4587e6" target="_top" target="_top" target="_top" xlink:title="overide the virtual function to expand the environmental variables ">
<polygon fill="none" stroke="red" points="1552,-575.973 1552,-594.973 1678,-594.973 1678,-575.973 1552,-575.973"/>
<text text-anchor="middle" x="1615" y="-582.973" font-family="FreeSans" font-size="10.00">recoConsts::set_CharFlag</text>
</a>
</g>
</g>
<!-- Node12&#45;&gt;Node14 -->
<g id="edge13" class="edge"><title>Node12&#45;&gt;Node14</title>
<path fill="none" stroke="midnightblue" d="M1515.73,-585.473C1524.21,-585.473 1533.01,-585.473 1541.69,-585.473"/>
<polygon fill="midnightblue" stroke="midnightblue" points="1541.81,-588.973 1551.81,-585.473 1541.81,-581.973 1541.81,-588.973"/>
</g>
<!-- Node15 -->
<g id="node15" class="node"><title>Node15</title>
<g id="a_node15"><a xlink:href="../../d1/da8/classPHFlag.html#a64f8c67e9313e5cecdbed51f747026da" target="_top" target="_top" target="_top" xlink:title="PHFlag::set_DoubleFlag">
<polygon fill="none" stroke="black" points="1555,-613.973 1555,-632.973 1675,-632.973 1675,-613.973 1555,-613.973"/>
<text text-anchor="middle" x="1615" y="-620.973" font-family="FreeSans" font-size="10.00">PHFlag::set_DoubleFlag</text>
</a>
</g>
</g>
<!-- Node12&#45;&gt;Node15 -->
<g id="edge14" class="edge"><title>Node12&#45;&gt;Node15</title>
<path fill="none" stroke="midnightblue" d="M1495.87,-595.062C1516.72,-600.077 1542.43,-606.261 1564.54,-611.579"/>
<polygon fill="midnightblue" stroke="midnightblue" points="1563.88,-615.018 1574.42,-613.953 1565.51,-608.212 1563.88,-615.018"/>
</g>
<!-- Node16 -->
<g id="node16" class="node"><title>Node16</title>
<g id="a_node16"><a xlink:href="../../d1/da8/classPHFlag.html#a3ef5c3f1eff2daaaf18e5129858a9ef8" target="_top" target="_top" target="_top" xlink:title="PHFlag::set_IntFlag">
<polygon fill="none" stroke="black" points="1564.5,-708.973 1564.5,-727.973 1665.5,-727.973 1665.5,-708.973 1564.5,-708.973"/>
<text text-anchor="middle" x="1615" y="-715.973" font-family="FreeSans" font-size="10.00">PHFlag::set_IntFlag</text>
</a>
</g>
</g>
<!-- Node12&#45;&gt;Node16 -->
<g id="edge15" class="edge"><title>Node12&#45;&gt;Node16</title>
<path fill="none" stroke="midnightblue" d="M1467.36,-595.038C1494.11,-617.551 1561.28,-674.093 1594.61,-702.154"/>
<polygon fill="midnightblue" stroke="midnightblue" points="1592.41,-704.874 1602.31,-708.636 1596.92,-699.519 1592.41,-704.874"/>
</g>
<!-- Node18 -->
<g id="node18" class="node"><title>Node18</title>
<g id="a_node18"><a xlink:href="../../d5/de9/E1039Shielding_2ana_8C.html#a24b637aefa84c667b63905e9be5a8f69" target="_top" target="_top" target="_top" xlink:title="ana">
<polygon fill="none" stroke="black" points="1095,-518.973 1095,-537.973 1127,-537.973 1127,-518.973 1095,-518.973"/>
<text text-anchor="middle" x="1111" y="-525.973" font-family="FreeSans" font-size="10.00">ana</text>
</a>
</g>
</g>
<!-- Node17&#45;&gt;Node18 -->
<g id="edge17" class="edge"><title>Node17&#45;&gt;Node18</title>
<path fill="none" stroke="midnightblue" d="M930.131,-459.679C951.418,-470.358 993.146,-490.614 1030,-504.473 1048.15,-511.298 1069.16,-517.541 1085.1,-521.948"/>
<polygon fill="midnightblue" stroke="midnightblue" points="1084.19,-525.327 1094.76,-524.566 1086.02,-518.571 1084.19,-525.327"/>
</g>
<!-- Node20 -->
<g id="node20" class="node"><title>Node20</title>
<g id="a_node20"><a xlink:href="../../da/d29/classFun4AllServer.html#ab7263450319ca1d5029209fde26a7af8" target="_top" target="_top" target="_top" xlink:title="Fun4AllServer::End">
<polygon fill="none" stroke="black" points="1062,-404.973 1062,-423.973 1160,-423.973 1160,-404.973 1062,-404.973"/>
<text text-anchor="middle" x="1111" y="-411.973" font-family="FreeSans" font-size="10.00">Fun4AllServer::End</text>
</a>
</g>
</g>
<!-- Node17&#45;&gt;Node20 -->
<g id="edge19" class="edge"><title>Node17&#45;&gt;Node20</title>
<path fill="none" stroke="midnightblue" d="M930.265,-449.679C955.54,-444.728 1009.5,-434.159 1051.74,-425.886"/>
<polygon fill="midnightblue" stroke="midnightblue" points="1052.51,-429.301 1061.65,-423.944 1051.16,-422.432 1052.51,-429.301"/>
</g>
<!-- Node25 -->
<g id="node25" class="node"><title>Node25</title>
<g id="a_node25"><a xlink:href="../../d4/da9/classFun4AllInputManager.html#a8ad787f847a175450ec5beddeaa33ca6" target="_top" target="_top" target="_top" xlink:title="Fun4AllInputManager\l::fileopen">
<polygon fill="none" stroke="black" points="1056.5,-203.473 1056.5,-233.473 1165.5,-233.473 1165.5,-203.473 1056.5,-203.473"/>
<text text-anchor="start" x="1064.5" y="-221.473" font-family="FreeSans" font-size="10.00">Fun4AllInputManager</text>
<text text-anchor="middle" x="1111" y="-210.473" font-family="FreeSans" font-size="10.00">::fileopen</text>
</a>
</g>
</g>
<!-- Node17&#45;&gt;Node25 -->
<g id="edge26" class="edge"><title>Node17&#45;&gt;Node25</title>
<path fill="none" stroke="midnightblue" d="M918.745,-442.827C928.402,-410.574 963.848,-305.331 1030,-248.473 1035.14,-244.056 1040.99,-240.26 1047.14,-237.004"/>
<polygon fill="midnightblue" stroke="midnightblue" points="1048.8,-240.087 1056.31,-232.61 1045.78,-233.774 1048.8,-240.087"/>
</g>
<!-- Node26 -->
<g id="node26" class="node"><title>Node26</title>
<g id="a_node26"><a xlink:href="../../d8/d14/classrecoConsts.html#a7c0a1405f7f0f8c2acca26831984b28d" target="_top" target="_top" target="_top" xlink:title="initialize the constants by the runNo &#45; not implemented yet ">
<polygon fill="none" stroke="black" points="1414,-822.973 1414,-841.973 1496,-841.973 1496,-822.973 1414,-822.973"/>
<text text-anchor="middle" x="1455" y="-829.973" font-family="FreeSans" font-size="10.00">recoConsts::init</text>
</a>
</g>
</g>
<!-- Node17&#45;&gt;Node26 -->
<g id="edge27" class="edge"><title>Node17&#45;&gt;Node26</title>
<path fill="none" stroke="midnightblue" d="M916.31,-462.008C918.253,-505.816 932.167,-689.78 1030,-786.473 1130.93,-886.23 1318.39,-862.4 1406.24,-844.12"/>
<polygon fill="midnightblue" stroke="midnightblue" points="1407.16,-847.504 1416.2,-841.983 1405.69,-840.66 1407.16,-847.504"/>
</g>
<!-- Node17&#45;&gt;Node10 -->
<g id="edge29" class="edge"><title>Node17&#45;&gt;Node10</title>
<path fill="none" stroke="midnightblue" d="M918.95,-442.753C928.781,-412.284 963.62,-318.479 1030,-281.473 1095.49,-244.963 1185.2,-251.717 1240.83,-261.171"/>
<polygon fill="midnightblue" stroke="midnightblue" points="1240.34,-264.64 1250.8,-262.958 1241.58,-257.75 1240.34,-264.64"/>
</g>
<!-- Node27 -->
<g id="node27" class="node"><title>Node27</title>
<g id="a_node27"><a xlink:href="../../da/d29/classFun4AllServer.html#a3e55156f91b2c94bb6c4ef33ffce587a" target="_top" target="_top" target="_top" xlink:title="Fun4AllServer::instance">
<polygon fill="none" stroke="black" points="1234,-480.973 1234,-499.973 1352,-499.973 1352,-480.973 1234,-480.973"/>
<text text-anchor="middle" x="1293" y="-487.973" font-family="FreeSans" font-size="10.00">Fun4AllServer::instance</text>
</a>
</g>
</g>
<!-- Node17&#45;&gt;Node27 -->
<g id="edge30" class="edge"><title>Node17&#45;&gt;Node27</title>
<path fill="none" stroke="midnightblue" d="M930.335,-455.302C951.883,-459.454 993.939,-467.17 1030,-471.473 1095.49,-479.288 1170.59,-484.336 1223.55,-487.251"/>
<polygon fill="midnightblue" stroke="midnightblue" points="1223.66,-490.762 1233.84,-487.805 1224.04,-483.772 1223.66,-490.762"/>
</g>
<!-- Node17&#45;&gt;Node7 -->
<g id="edge31" class="edge"><title>Node17&#45;&gt;Node7</title>
<path fill="none" stroke="midnightblue" d="M899.729,-446.727C846.834,-425.547 656.733,-350.493 496,-300.473 488.439,-298.12 480.377,-295.819 472.472,-293.676"/>
<polygon fill="midnightblue" stroke="midnightblue" points="473.157,-290.236 462.594,-291.054 471.361,-297.002 473.157,-290.236"/>
</g>
<!-- Node28 -->
<g id="node28" class="node"><title>Node28</title>
<g id="a_node28"><a xlink:href="../../d8/d14/classrecoConsts.html#a5502a14fdb8433de15c2e71351f281d6" target="_top" target="_top" target="_top" xlink:title="print all the parameters ">
<polygon fill="none" stroke="black" points="1066.5,-708.973 1066.5,-727.973 1155.5,-727.973 1155.5,-708.973 1066.5,-708.973"/>
<text text-anchor="middle" x="1111" y="-715.973" font-family="FreeSans" font-size="10.00">recoConsts::Print</text>
</a>
</g>
</g>
<!-- Node17&#45;&gt;Node28 -->
<g id="edge32" class="edge"><title>Node17&#45;&gt;Node28</title>
<path fill="none" stroke="midnightblue" d="M919.459,-462.161C931.08,-493.713 971.31,-595.301 1030,-661.473 1045.18,-678.59 1066.42,-693.42 1083.2,-703.66"/>
<polygon fill="midnightblue" stroke="midnightblue" points="1081.61,-706.784 1092,-708.862 1085.17,-700.759 1081.61,-706.784"/>
</g>
<!-- Node34 -->
<g id="node34" class="node"><title>Node34</title>
<g id="a_node34"><a xlink:href="../../da/d29/classFun4AllServer.html#ae3fe7393e52376b515c60dd927670f2e" target="_top" target="_top" target="_top" xlink:title="Fun4AllServer::PrintTimer">
<polygon fill="none" stroke="black" points="1047.5,-164.973 1047.5,-183.973 1174.5,-183.973 1174.5,-164.973 1047.5,-164.973"/>
<text text-anchor="middle" x="1111" y="-171.973" font-family="FreeSans" font-size="10.00">Fun4AllServer::PrintTimer</text>
</a>
</g>
</g>
<!-- Node17&#45;&gt;Node34 -->
<g id="edge38" class="edge"><title>Node17&#45;&gt;Node34</title>
<path fill="none" stroke="midnightblue" d="M917.167,-442.913C922.343,-404.854 946.776,-262.817 1030,-193.473 1032.58,-191.326 1035.36,-189.413 1038.28,-187.709"/>
<polygon fill="midnightblue" stroke="midnightblue" points="1039.99,-190.766 1047.41,-183.199 1036.89,-184.489 1039.99,-190.766"/>
</g>
<!-- Node35 -->
<g id="node35" class="node"><title>Node35</title>
<g id="a_node35"><a xlink:href="../../dc/da8/classAnaModule.html#aae26c89fb67266a27325b364ba48cc38" target="_top" target="_top" target="_top" xlink:title="AnaModule::registerDetector">
<polygon fill="none" stroke="black" points="1042,-632.973 1042,-651.973 1180,-651.973 1180,-632.973 1042,-632.973"/>
<text text-anchor="middle" x="1111" y="-639.973" font-family="FreeSans" font-size="10.00">AnaModule::registerDetector</text>
</a>
</g>
</g>
<!-- Node17&#45;&gt;Node35 -->
<g id="edge39" class="edge"><title>Node17&#45;&gt;Node35</title>
<path fill="none" stroke="midnightblue" d="M919.805,-462.028C931.604,-490.42 970.404,-574.999 1030,-618.473 1035.96,-622.821 1042.71,-626.388 1049.7,-629.314"/>
<polygon fill="midnightblue" stroke="midnightblue" points="1048.74,-632.692 1059.33,-632.919 1051.2,-626.136 1048.74,-632.692"/>
</g>
<!-- Node37 -->
<g id="node37" class="node"><title>Node37</title>
<g id="a_node37"><a xlink:href="../../da/d29/classFun4AllServer.html#ab2cb490790d15b865ae79eb3094caabe" target="_top" target="_top" target="_top" xlink:title="Fun4AllServer::registerInput\lManager">
<polygon fill="none" stroke="red" points="1043.5,-899.473 1043.5,-929.473 1178.5,-929.473 1178.5,-899.473 1043.5,-899.473"/>
<text text-anchor="start" x="1051.5" y="-917.473" font-family="FreeSans" font-size="10.00">Fun4AllServer::registerInput</text>
<text text-anchor="middle" x="1111" y="-906.473" font-family="FreeSans" font-size="10.00">Manager</text>
</a>
</g>
</g>
<!-- Node17&#45;&gt;Node37 -->
<g id="edge41" class="edge"><title>Node17&#45;&gt;Node37</title>
<path fill="none" stroke="midnightblue" d="M915.537,-462.138C913.63,-513.107 911.402,-753.28 1030,-884.473 1033.31,-888.132 1037.11,-891.346 1041.21,-894.17"/>
<polygon fill="midnightblue" stroke="midnightblue" points="1039.63,-897.304 1050.01,-899.435 1043.23,-891.297 1039.63,-897.304"/>
</g>
<!-- Node38 -->
<g id="node38" class="node"><title>Node38</title>
<g id="a_node38"><a xlink:href="../../da/d29/classFun4AllServer.html#a0a9947db0ede1e55622001eb7515f8c0" target="_top" target="_top" target="_top" xlink:title="Fun4AllServer::registerSubsystem">
<polygon fill="none" stroke="red" points="1030.5,-442.973 1030.5,-461.973 1191.5,-461.973 1191.5,-442.973 1030.5,-442.973"/>
<text text-anchor="middle" x="1111" y="-449.973" font-family="FreeSans" font-size="10.00">Fun4AllServer::registerSubsystem</text>
</a>
</g>
</g>
<!-- Node17&#45;&gt;Node38 -->
<g id="edge42" class="edge"><title>Node17&#45;&gt;Node38</title>
<path fill="none" stroke="midnightblue" d="M930.265,-452.473C949.539,-452.473 985.492,-452.473 1020.21,-452.473"/>
<polygon fill="midnightblue" stroke="midnightblue" points="1020.43,-455.973 1030.43,-452.473 1020.43,-448.973 1020.43,-455.973"/>
</g>
<!-- Node39 -->
<g id="node39" class="node"><title>Node39</title>
<g id="a_node39"><a xlink:href="../../da/d29/classFun4AllServer.html#a11bbc8b2f53bc06e0b05ee202dd6372a" target="_top" target="_top" target="_top" xlink:title="run n events (0 means up to end of file) ">
<polygon fill="none" stroke="red" points="1063.5,-366.973 1063.5,-385.973 1158.5,-385.973 1158.5,-366.973 1063.5,-366.973"/>
<text text-anchor="middle" x="1111" y="-373.973" font-family="FreeSans" font-size="10.00">Fun4AllServer::run</text>
</a>
</g>
</g>
<!-- Node17&#45;&gt;Node39 -->
<g id="edge44" class="edge"><title>Node17&#45;&gt;Node39</title>
<path fill="none" stroke="midnightblue" d="M930.278,-443.98C951.412,-431.727 992.563,-409.072 1030,-395.473 1037.54,-392.736 1045.62,-390.285 1053.64,-388.127"/>
<polygon fill="midnightblue" stroke="midnightblue" points="1054.53,-391.511 1063.35,-385.64 1052.8,-384.729 1054.53,-391.511"/>
</g>
<!-- Node17&#45;&gt;Node13 -->
<g id="edge48" class="edge"><title>Node17&#45;&gt;Node13</title>
<path fill="none" stroke="midnightblue" d="M923.517,-462.219C940.071,-482.775 982.036,-530.108 1030,-547.473 1123.75,-581.415 1418.14,-563.205 1549.55,-552.942"/>
<polygon fill="midnightblue" stroke="midnightblue" points="1550.17,-556.404 1559.86,-552.127 1549.62,-549.426 1550.17,-556.404"/>
</g>
<!-- Node17&#45;&gt;Node15 -->
<g id="edge49" class="edge"><title>Node17&#45;&gt;Node15</title>
<path fill="none" stroke="midnightblue" d="M921.691,-462.075C936.245,-485.623 977.411,-546.159 1030,-571.473 1119.16,-614.395 1409.77,-622.114 1544.39,-623.345"/>
<polygon fill="midnightblue" stroke="midnightblue" points="1544.56,-626.846 1554.59,-623.428 1544.61,-619.846 1544.56,-626.846"/>
</g>
<!-- Node40 -->
<g id="node40" class="node"><title>Node40</title>
<g id="a_node40"><a xlink:href="../../dc/da8/classAnaModule.html#a815e50856d90a0bc816ad165bcf8d8f4" target="_top" target="_top" target="_top" xlink:title="AnaModule::set_output\l_filename">
<polygon fill="none" stroke="black" points="1053.5,-747.473 1053.5,-777.473 1168.5,-777.473 1168.5,-747.473 1053.5,-747.473"/>
<text text-anchor="start" x="1061.5" y="-765.473" font-family="FreeSans" font-size="10.00">AnaModule::set_output</text>
<text text-anchor="middle" x="1111" y="-754.473" font-family="FreeSans" font-size="10.00">_filename</text>
</a>
</g>
</g>
<!-- Node17&#45;&gt;Node40 -->
<g id="edge50" class="edge"><title>Node17&#45;&gt;Node40</title>
<path fill="none" stroke="midnightblue" d="M916.933,-462.239C921.303,-502.507 943.358,-657.309 1030,-737.473 1034.14,-741.303 1038.86,-744.546 1043.89,-747.292"/>
<polygon fill="midnightblue" stroke="midnightblue" points="1042.68,-750.593 1053.21,-751.718 1045.68,-744.269 1042.68,-750.593"/>
</g>
<!-- Node41 -->
<g id="node41" class="node"><title>Node41</title>
<g id="a_node41"><a xlink:href="../../d0/da0/classGeomSvc.html#a5c51613529dae6339bb35eb99e81f758" target="_top" target="_top" target="_top" xlink:title="GeomSvc::UseDbSvc">
<polygon fill="none" stroke="black" points="1056.5,-328.973 1056.5,-347.973 1165.5,-347.973 1165.5,-328.973 1056.5,-328.973"/>
<text text-anchor="middle" x="1111" y="-335.973" font-family="FreeSans" font-size="10.00">GeomSvc::UseDbSvc</text>
</a>
</g>
</g>
<!-- Node17&#45;&gt;Node41 -->
<g id="edge51" class="edge"><title>Node17&#45;&gt;Node41</title>
<path fill="none" stroke="midnightblue" d="M924.681,-442.691C942.445,-423.307 985.073,-379.954 1030,-357.473 1035.23,-354.854 1040.84,-352.587 1046.57,-350.625"/>
<polygon fill="midnightblue" stroke="midnightblue" points="1047.78,-353.917 1056.29,-347.605 1045.7,-347.232 1047.78,-353.917"/>
</g>
<!-- Node42 -->
<g id="node42" class="node"><title>Node42</title>
<g id="a_node42"><a xlink:href="../../d5/dec/classFun4AllBase.html#a05da2261577843028cf78e99171343b9" target="_top" target="_top" target="_top" xlink:title="Sets the verbosity of this module (0 by default=quiet). ">
<polygon fill="none" stroke="black" points="1053.5,-290.973 1053.5,-309.973 1168.5,-309.973 1168.5,-290.973 1053.5,-290.973"/>
<text text-anchor="middle" x="1111" y="-297.973" font-family="FreeSans" font-size="10.00">Fun4AllBase::Verbosity</text>
</a>
</g>
</g>
<!-- Node17&#45;&gt;Node42 -->
<g id="edge52" class="edge"><title>Node17&#45;&gt;Node42</title>
<path fill="none" stroke="midnightblue" d="M921.227,-442.968C935.29,-418.336 976.515,-352.094 1030,-319.473 1034.2,-316.913 1038.71,-314.699 1043.38,-312.782"/>
<polygon fill="midnightblue" stroke="midnightblue" points="1044.93,-315.945 1053.14,-309.252 1042.55,-309.362 1044.93,-315.945"/>
</g>
<!-- Node19 -->
<g id="node19" class="node"><title>Node19</title>
<g id="a_node19"><a xlink:href="../../d5/de9/E1039Shielding_2ana_8C.html#a4770f9752bd2f6c264c3a5f0e5f07bf3" target="_top" target="_top" target="_top" xlink:title="drawSnglAccPz">
<polygon fill="none" stroke="red" points="1250.5,-518.973 1250.5,-537.973 1335.5,-537.973 1335.5,-518.973 1250.5,-518.973"/>
<text text-anchor="middle" x="1293" y="-525.973" font-family="FreeSans" font-size="10.00">drawSnglAccPz</text>
</a>
</g>
</g>
<!-- Node18&#45;&gt;Node19 -->
<g id="edge18" class="edge"><title>Node18&#45;&gt;Node19</title>
<path fill="none" stroke="midnightblue" d="M1127.04,-528.473C1151.7,-528.473 1201.87,-528.473 1240.43,-528.473"/>
<polygon fill="midnightblue" stroke="midnightblue" points="1240.47,-531.973 1250.47,-528.473 1240.47,-524.973 1240.47,-531.973"/>
</g>
<!-- Node21 -->
<g id="node21" class="node"><title>Node21</title>
<g id="a_node21"><a xlink:href="../../da/d29/classFun4AllServer.html#a53b1b6b338aa36891f2690a188920980" target="_top" target="_top" target="_top" xlink:title="Fun4AllServer::EndRun">
<polygon fill="none" stroke="black" points="1235,-310.973 1235,-329.973 1351,-329.973 1351,-310.973 1235,-310.973"/>
<text text-anchor="middle" x="1293" y="-317.973" font-family="FreeSans" font-size="10.00">Fun4AllServer::EndRun</text>
</a>
</g>
</g>
<!-- Node20&#45;&gt;Node21 -->
<g id="edge20" class="edge"><title>Node20&#45;&gt;Node21</title>
<path fill="none" stroke="midnightblue" d="M1160.23,-409.24C1171.37,-406.405 1182.68,-402.075 1192,-395.473 1216.14,-378.37 1204.34,-357.238 1228,-339.473 1230.51,-337.586 1233.21,-335.885 1236.03,-334.352"/>
<polygon fill="midnightblue" stroke="midnightblue" points="1237.77,-337.405 1245.35,-330.008 1234.81,-331.061 1237.77,-337.405"/>
</g>
<!-- Node22 -->
<g id="node22" class="node"><title>Node22</title>
<g id="a_node22"><a xlink:href="../../d5/d07/classPHNodeIterator.html#aea98bf8619af59b1212a94fb32106baa" target="_top" target="_top" target="_top" xlink:title="PHNodeIterator::findFirst">
<polygon fill="none" stroke="red" points="1232,-424.973 1232,-443.973 1354,-443.973 1354,-424.973 1232,-424.973"/>
<text text-anchor="middle" x="1293" y="-431.973" font-family="FreeSans" font-size="10.00">PHNodeIterator::findFirst</text>
</a>
</g>
</g>
<!-- Node20&#45;&gt;Node22 -->
<g id="edge21" class="edge"><title>Node20&#45;&gt;Node22</title>
<path fill="none" stroke="midnightblue" d="M1160.24,-419.833C1179.12,-421.931 1201.15,-424.379 1221.74,-426.667"/>
<polygon fill="midnightblue" stroke="midnightblue" points="1221.38,-430.148 1231.71,-427.774 1222.16,-423.191 1221.38,-430.148"/>
</g>
<!-- Node23 -->
<g id="node23" class="node"><title>Node23</title>
<g id="a_node23"><a xlink:href="../../d1/da8/classPHFlag.html#a07899067141a5f12333cc37183caddc8" target="_top" target="_top" target="_top" xlink:title="PHFlag::get_IntFlag">
<polygon fill="none" stroke="black" points="1242,-348.973 1242,-367.973 1344,-367.973 1344,-348.973 1242,-348.973"/>
<text text-anchor="middle" x="1293" y="-355.973" font-family="FreeSans" font-size="10.00">PHFlag::get_IntFlag</text>
</a>
</g>
</g>
<!-- Node20&#45;&gt;Node23 -->
<g id="edge23" class="edge"><title>Node20&#45;&gt;Node23</title>
<path fill="none" stroke="midnightblue" d="M1160.33,-404.892C1170.9,-402.273 1181.94,-399.129 1192,-395.473 1208.81,-389.366 1211.36,-384.044 1228,-377.473 1233.8,-375.182 1239.99,-373.015 1246.15,-371.02"/>
<polygon fill="midnightblue" stroke="midnightblue" points="1247.24,-374.349 1255.74,-368.036 1245.16,-367.665 1247.24,-374.349"/>
</g>
<!-- Node20&#45;&gt;Node10 -->
<g id="edge24" class="edge"><title>Node20&#45;&gt;Node10</title>
<path fill="none" stroke="midnightblue" d="M1160.01,-410.863C1171.54,-408.019 1183.09,-403.278 1192,-395.473 1225.66,-366.004 1197.32,-334.037 1228,-301.473 1233.89,-295.219 1241.39,-290.211 1249.16,-286.237"/>
<polygon fill="midnightblue" stroke="midnightblue" points="1250.69,-289.383 1258.32,-282.034 1247.77,-283.02 1250.69,-289.383"/>
</g>
<!-- Node24 -->
<g id="node24" class="node"><title>Node24</title>
<g id="a_node24"><a xlink:href="../../da/d29/classFun4AllServer.html#a6f2074f451d0c0c1b4a802edde5ffb94" target="_top" target="_top" target="_top" xlink:title="Fun4AllServer::outfileclose">
<polygon fill="none" stroke="red" points="1228,-386.973 1228,-405.973 1358,-405.973 1358,-386.973 1228,-386.973"/>
<text text-anchor="middle" x="1293" y="-393.973" font-family="FreeSans" font-size="10.00">Fun4AllServer::outfileclose</text>
</a>
</g>
</g>
<!-- Node20&#45;&gt;Node24 -->
<g id="edge25" class="edge"><title>Node20&#45;&gt;Node24</title>
<path fill="none" stroke="midnightblue" d="M1160.24,-409.65C1177.88,-407.885 1198.28,-405.845 1217.68,-403.905"/>
<polygon fill="midnightblue" stroke="midnightblue" points="1218.11,-407.38 1227.71,-402.902 1217.41,-400.414 1218.11,-407.38"/>
</g>
<!-- Node22&#45;&gt;Node22 -->
<g id="edge22" class="edge"><title>Node22&#45;&gt;Node22</title>
<path fill="none" stroke="midnightblue" d="M1268.03,-444.23C1255.88,-453.039 1264.21,-462.473 1293,-462.473 1312.35,-462.473 1322.45,-458.214 1323.31,-452.748"/>
<polygon fill="midnightblue" stroke="midnightblue" points="1326.25,-450.84 1317.97,-444.23 1320.32,-454.561 1326.25,-450.84"/>
</g>
<!-- Node26&#45;&gt;Node16 -->
<g id="edge28" class="edge"><title>Node26&#45;&gt;Node16</title>
<path fill="none" stroke="midnightblue" d="M1469.2,-822.95C1496.43,-803.3 1559.08,-758.1 1592.34,-734.103"/>
<polygon fill="midnightblue" stroke="midnightblue" points="1594.44,-736.901 1600.5,-728.211 1590.35,-731.224 1594.44,-736.901"/>
</g>
<!-- Node29 -->
<g id="node29" class="node"><title>Node29</title>
<g id="a_node29"><a xlink:href="../../d1/da8/classPHFlag.html#a982354b034569d3d6bc464acc3ec1359" target="_top" target="_top" target="_top" xlink:title="PHFlag::PrintBoolFlags">
<polygon fill="none" stroke="black" points="1235,-708.973 1235,-727.973 1351,-727.973 1351,-708.973 1235,-708.973"/>
<text text-anchor="middle" x="1293" y="-715.973" font-family="FreeSans" font-size="10.00">PHFlag::PrintBoolFlags</text>
</a>
</g>
</g>
<!-- Node28&#45;&gt;Node29 -->
<g id="edge33" class="edge"><title>Node28&#45;&gt;Node29</title>
<path fill="none" stroke="midnightblue" d="M1155.57,-718.473C1176.33,-718.473 1201.62,-718.473 1224.76,-718.473"/>
<polygon fill="midnightblue" stroke="midnightblue" points="1224.87,-721.973 1234.87,-718.473 1224.87,-714.973 1224.87,-721.973"/>
</g>
<!-- Node30 -->
<g id="node30" class="node"><title>Node30</title>
<g id="a_node30"><a xlink:href="../../d1/da8/classPHFlag.html#a22faecd438ab5934d1634d1dec80bbbc" target="_top" target="_top" target="_top" xlink:title="PHFlag::PrintCharFlags">
<polygon fill="none" stroke="black" points="1234.5,-670.973 1234.5,-689.973 1351.5,-689.973 1351.5,-670.973 1234.5,-670.973"/>
<text text-anchor="middle" x="1293" y="-677.973" font-family="FreeSans" font-size="10.00">PHFlag::PrintCharFlags</text>
</a>
</g>
</g>
<!-- Node28&#45;&gt;Node30 -->
<g id="edge34" class="edge"><title>Node28&#45;&gt;Node30</title>
<path fill="none" stroke="midnightblue" d="M1155.57,-709.275C1180.01,-704.116 1210.73,-697.631 1236.82,-692.121"/>
<polygon fill="midnightblue" stroke="midnightblue" points="1237.89,-695.474 1246.95,-689.984 1236.44,-688.625 1237.89,-695.474"/>
</g>
<!-- Node31 -->
<g id="node31" class="node"><title>Node31</title>
<g id="a_node31"><a xlink:href="../../d1/da8/classPHFlag.html#a1ff4c6fb4381385006ee1a1a98127db5" target="_top" target="_top" target="_top" xlink:title="PHFlag::PrintDoubleFlags">
<polygon fill="none" stroke="black" points="1229.5,-822.973 1229.5,-841.973 1356.5,-841.973 1356.5,-822.973 1229.5,-822.973"/>
<text text-anchor="middle" x="1293" y="-829.973" font-family="FreeSans" font-size="10.00">PHFlag::PrintDoubleFlags</text>
</a>
</g>
</g>
<!-- Node28&#45;&gt;Node31 -->
<g id="edge35" class="edge"><title>Node28&#45;&gt;Node31</title>
<path fill="none" stroke="midnightblue" d="M1155.86,-722.332C1168.59,-725.225 1181.79,-730.149 1192,-738.473 1220.65,-761.841 1199.86,-789.486 1228,-813.473 1230.01,-815.184 1232.16,-816.741 1234.42,-818.157"/>
<polygon fill="midnightblue" stroke="midnightblue" points="1233.1,-821.417 1243.59,-822.955 1236.35,-815.216 1233.1,-821.417"/>
</g>
<!-- Node32 -->
<g id="node32" class="node"><title>Node32</title>
<g id="a_node32"><a xlink:href="../../d1/da8/classPHFlag.html#ac342a6f0241b1db3bbf5cbb82635a572" target="_top" target="_top" target="_top" xlink:title="PHFlag::PrintFloatFlags">
<polygon fill="none" stroke="black" points="1233.5,-784.973 1233.5,-803.973 1352.5,-803.973 1352.5,-784.973 1233.5,-784.973"/>
<text text-anchor="middle" x="1293" y="-791.973" font-family="FreeSans" font-size="10.00">PHFlag::PrintFloatFlags</text>
</a>
</g>
</g>
<!-- Node28&#45;&gt;Node32 -->
<g id="edge36" class="edge"><title>Node28&#45;&gt;Node32</title>
<path fill="none" stroke="midnightblue" d="M1155.62,-724.791C1167.92,-727.767 1180.96,-732.12 1192,-738.473 1211.89,-749.914 1208.37,-763.602 1228,-775.473 1231.57,-777.632 1235.4,-779.56 1239.35,-781.278"/>
<polygon fill="midnightblue" stroke="midnightblue" points="1238.12,-784.556 1248.71,-784.919 1240.66,-778.032 1238.12,-784.556"/>
</g>
<!-- Node33 -->
<g id="node33" class="node"><title>Node33</title>
<g id="a_node33"><a xlink:href="../../d1/da8/classPHFlag.html#ad1b9a7480bf5f4c89b9d3c7a8bc0a80a" target="_top" target="_top" target="_top" xlink:title="PHFlag::PrintIntFlags">
<polygon fill="none" stroke="black" points="1239,-746.973 1239,-765.973 1347,-765.973 1347,-746.973 1239,-746.973"/>
<text text-anchor="middle" x="1293" y="-753.973" font-family="FreeSans" font-size="10.00">PHFlag::PrintIntFlags</text>
</a>
</g>
</g>
<!-- Node28&#45;&gt;Node33 -->
<g id="edge37" class="edge"><title>Node28&#45;&gt;Node33</title>
<path fill="none" stroke="midnightblue" d="M1155.57,-727.672C1180.01,-732.83 1210.73,-739.315 1236.82,-744.825"/>
<polygon fill="midnightblue" stroke="midnightblue" points="1236.44,-748.321 1246.95,-746.962 1237.89,-741.472 1236.44,-748.321"/>
</g>
<!-- Node36 -->
<g id="node36" class="node"><title>Node36</title>
<g id="a_node36"><a xlink:href="../../d0/da0/classGeomSvc.html#a3e4f40789e9b2a98477ab8e8191d5ff2" target="_top" target="_top" target="_top" xlink:title="Get the plane position. ">
<polygon fill="none" stroke="black" points="1231,-632.973 1231,-651.973 1355,-651.973 1355,-632.973 1231,-632.973"/>
<text text-anchor="middle" x="1293" y="-639.973" font-family="FreeSans" font-size="10.00">GeomSvc::getDetectorID</text>
</a>
</g>
</g>
<!-- Node35&#45;&gt;Node36 -->
<g id="edge40" class="edge"><title>Node35&#45;&gt;Node36</title>
<path fill="none" stroke="midnightblue" d="M1180.05,-642.473C1193.38,-642.473 1207.39,-642.473 1220.82,-642.473"/>
<polygon fill="midnightblue" stroke="midnightblue" points="1220.95,-645.973 1230.95,-642.473 1220.95,-638.973 1220.95,-645.973"/>
</g>
<!-- Node38&#45;&gt;Node27 -->
<g id="edge43" class="edge"><title>Node38&#45;&gt;Node27</title>
<path fill="none" stroke="midnightblue" d="M1157.42,-462.062C1181.6,-467.167 1211.53,-473.485 1237.01,-478.865"/>
<polygon fill="midnightblue" stroke="midnightblue" points="1236.4,-482.312 1246.91,-480.953 1237.84,-475.463 1236.4,-482.312"/>
</g>
<!-- Node39&#45;&gt;Node21 -->
<g id="edge45" class="edge"><title>Node39&#45;&gt;Node21</title>
<path fill="none" stroke="midnightblue" d="M1158.65,-367.306C1169.72,-364.607 1181.4,-361.323 1192,-357.473 1208.81,-351.366 1211.36,-346.044 1228,-339.473 1233.8,-337.182 1239.99,-335.015 1246.15,-333.02"/>
<polygon fill="midnightblue" stroke="midnightblue" points="1247.24,-336.349 1255.74,-330.036 1245.16,-329.665 1247.24,-336.349"/>
</g>
<!-- Node39&#45;&gt;Node23 -->
<g id="edge46" class="edge"><title>Node39&#45;&gt;Node23</title>
<path fill="none" stroke="midnightblue" d="M1158.82,-371.791C1181.15,-369.558 1208.13,-366.86 1231.95,-364.478"/>
<polygon fill="midnightblue" stroke="midnightblue" points="1232.34,-367.957 1241.94,-363.479 1231.64,-360.991 1232.34,-367.957"/>
</g>
<!-- Node39&#45;&gt;Node10 -->
<g id="edge47" class="edge"><title>Node39&#45;&gt;Node10</title>
<path fill="none" stroke="midnightblue" d="M1158.56,-371.655C1170.24,-368.833 1182.22,-364.405 1192,-357.473 1216.14,-340.37 1205.61,-320.815 1228,-301.473 1235.12,-295.324 1243.75,-290.249 1252.35,-286.158"/>
<polygon fill="midnightblue" stroke="midnightblue" points="1253.84,-289.327 1261.58,-282.1 1251.02,-282.918 1253.84,-289.327"/>
</g>
<!-- Node48 -->
<g id="node48" class="node"><title>Node48</title>
<g id="a_node48"><a xlink:href="../../d0/da0/classGeomSvc.html#a64fde7dce7f3df7cf534796d7da4ecdb" target="_top" target="_top" target="_top" xlink:title="GeomSvc::getDetectorName">
<polygon fill="none" stroke="black" points="845,-164.973 845,-183.973 985,-183.973 985,-164.973 845,-164.973"/>
<text text-anchor="middle" x="915" y="-171.973" font-family="FreeSans" font-size="10.00">GeomSvc::getDetectorName</text>
</a>
</g>
</g>
<!-- Node47&#45;&gt;Node48 -->
<g id="edge59" class="edge"><title>Node47&#45;&gt;Node48</title>
<path fill="none" stroke="midnightblue" d="M787.003,-174.473C802.245,-174.473 818.73,-174.473 834.616,-174.473"/>
<polygon fill="midnightblue" stroke="midnightblue" points="834.95,-177.973 844.95,-174.473 834.95,-170.973 834.95,-177.973"/>
</g>
<!-- Node50&#45;&gt;Node49 -->
<g id="edge62" class="edge"><title>Node50&#45;&gt;Node49</title>
<path fill="none" stroke="midnightblue" d="M771.945,-88.8843C797.582,-83.7568 829.336,-77.406 856.316,-72.0101"/>
<polygon fill="midnightblue" stroke="midnightblue" points="857.28,-75.3866 866.4,-69.9933 855.908,-68.5225 857.28,-75.3866"/>
</g>
</g>
</svg>
