<?xml version="1.0" encoding="UTF-8" standalone="no"?>
<!DOCTYPE svg PUBLIC "-//W3C//DTD SVG 1.1//EN"
 "http://www.w3.org/Graphics/SVG/1.1/DTD/svg11.dtd">
<!-- Generated by graphviz version 2.44.0 (0)
 -->
<!-- Title: CalibData::FillTracklet Pages: 1 -->
<svg width="308pt" height="66pt"
 viewBox="0.00 0.00 308.00 66.00" xmlns="http://www.w3.org/2000/svg" xmlns:xlink="http://www.w3.org/1999/xlink">
<g id="graph0" class="graph" transform="scale(1 1) rotate(0) translate(4 62)">
<title>CalibData::FillTracklet</title>
<!-- Node1 -->
<g id="node1" class="node">
<title>Node1</title>
<g id="a_node1"><a xlink:title=" ">
<polygon fill="#bfbfbf" stroke="black" points="0,-19.5 0,-38.5 123,-38.5 123,-19.5 0,-19.5"/>
<text text-anchor="middle" x="61.5" y="-26.5" font-family="FreeSans" font-size="10.00">CalibData::FillTracklet</text>
</a>
</g>
</g>
<!-- Node2 -->
<g id="node2" class="node">
<title>Node2</title>
<g id="a_node2"><a xlink:href="../../d2/d26/classTracklet.html#a6531c652f61e2f7b094e24414699e49b" target="_top" xlink:title=" ">
<polygon fill="none" stroke="black" points="177.5,-38.5 177.5,-57.5 281.5,-57.5 281.5,-38.5 177.5,-38.5"/>
<text text-anchor="middle" x="229.5" y="-45.5" font-family="FreeSans" font-size="10.00">Tracklet::getNHits</text>
</a>
</g>
</g>
<!-- Node1&#45;&gt;Node2 -->
<g id="edge1" class="edge">
<title>Node1&#45;&gt;Node2</title>
<path fill="none" stroke="midnightblue" d="M123.37,-35.97C137.67,-37.6 152.91,-39.35 167.22,-40.99"/>
<polygon fill="midnightblue" stroke="midnightblue" points="167.12,-44.5 177.45,-42.16 167.92,-37.54 167.12,-44.5"/>
</g>
<!-- Node3 -->
<g id="node3" class="node">
<title>Node3</title>
<g id="a_node3"><a xlink:href="../../d6/db6/classCalibParam.html#aaa47b559cfcc9059eb2eede93b97b1d7" target="_top" xlink:title=" ">
<polygon fill="none" stroke="black" points="159,-0.5 159,-19.5 300,-19.5 300,-0.5 159,-0.5"/>
<text text-anchor="middle" x="229.5" y="-7.5" font-family="FreeSans" font-size="10.00">CalibParam::ZOfStationID</text>
</a>
</g>
</g>
<!-- Node1&#45;&gt;Node3 -->
<g id="edge2" class="edge">
<title>Node1&#45;&gt;Node3</title>
<path fill="none" stroke="midnightblue" d="M123.37,-22.03C131.68,-21.08 140.32,-20.09 148.9,-19.11"/>
<polygon fill="midnightblue" stroke="midnightblue" points="149.4,-22.58 158.93,-17.96 148.6,-15.62 149.4,-22.58"/>
</g>
</g>
</svg>
