<?xml version="1.0" encoding="UTF-8" standalone="no"?>
<!DOCTYPE svg PUBLIC "-//W3C//DTD SVG 1.1//EN"
 "http://www.w3.org/Graphics/SVG/1.1/DTD/svg11.dtd">
<!-- Generated by graphviz version 2.44.0 (0)
 -->
<!-- Title: CalibData::FillEventInfo Pages: 1 -->
<svg width="501pt" height="83pt"
 viewBox="0.00 0.00 501.00 83.00" xmlns="http://www.w3.org/2000/svg" xmlns:xlink="http://www.w3.org/1999/xlink">
<g id="graph0" class="graph" transform="scale(1 1) rotate(0) translate(4 79)">
<title>CalibData::FillEventInfo</title>
<!-- Node1 -->
<g id="node1" class="node">
<title>Node1</title>
<g id="a_node1"><a xlink:title=" ">
<polygon fill="#bfbfbf" stroke="black" points="362,-28 362,-47 493,-47 493,-28 362,-28"/>
<text text-anchor="middle" x="427.5" y="-35" font-family="FreeSans" font-size="10.00">CalibData::FillEventInfo</text>
</a>
</g>
</g>
<!-- Node2 -->
<g id="node2" class="node">
<title>Node2</title>
<g id="a_node2"><a xlink:href="../../de/d72/classMakeRTCurve.html#a94dcb23bfa67b4b64c2f7efa3d48a235" target="_top" xlink:title=" ">
<polygon fill="none" stroke="black" points="181,-50 181,-69 326,-69 326,-50 181,-50"/>
<text text-anchor="middle" x="253.5" y="-57" font-family="FreeSans" font-size="10.00">MakeRTCurve::AnalyzeFile</text>
</a>
</g>
</g>
<!-- Node1&#45;&gt;Node2 -->
<g id="edge1" class="edge">
<title>Node1&#45;&gt;Node2</title>
<path fill="none" stroke="midnightblue" d="M351.96,-47.03C343.35,-48.13 334.6,-49.26 326.03,-50.35"/>
<polygon fill="midnightblue" stroke="midnightblue" points="352.49,-50.5 361.96,-45.75 351.6,-43.55 352.49,-50.5"/>
</g>
<!-- Node4 -->
<g id="node4" class="node">
<title>Node4</title>
<g id="a_node4"><a xlink:href="../../d8/de3/classSRMakeRTCurve.html#a6759bcdcfef2a089739ce510c3e10759" target="_top" xlink:title=" ">
<polygon fill="none" stroke="black" points="184,-0.5 184,-30.5 323,-30.5 323,-0.5 184,-0.5"/>
<text text-anchor="start" x="192" y="-18.5" font-family="FreeSans" font-size="10.00">SRMakeRTCurve::process</text>
<text text-anchor="middle" x="253.5" y="-7.5" font-family="FreeSans" font-size="10.00">_event</text>
</a>
</g>
</g>
<!-- Node1&#45;&gt;Node4 -->
<g id="edge3" class="edge">
<title>Node1&#45;&gt;Node4</title>
<path fill="none" stroke="midnightblue" d="M351.74,-27.94C342.24,-26.72 332.54,-25.48 323.14,-24.28"/>
<polygon fill="midnightblue" stroke="midnightblue" points="351.6,-31.45 361.96,-29.25 352.49,-24.5 351.6,-31.45"/>
</g>
<!-- Node3 -->
<g id="node3" class="node">
<title>Node3</title>
<g id="a_node3"><a xlink:href="../../de/d72/classMakeRTCurve.html#ab93f9634739a05300ad5613619bda081" target="_top" xlink:title=" ">
<polygon fill="none" stroke="black" points="0,-44.5 0,-74.5 145,-74.5 145,-44.5 0,-44.5"/>
<text text-anchor="start" x="8" y="-62.5" font-family="FreeSans" font-size="10.00">MakeRTCurve::AnalyzeList</text>
<text text-anchor="middle" x="72.5" y="-51.5" font-family="FreeSans" font-size="10.00">OfFiles</text>
</a>
</g>
</g>
<!-- Node2&#45;&gt;Node3 -->
<g id="edge2" class="edge">
<title>Node2&#45;&gt;Node3</title>
<path fill="none" stroke="midnightblue" d="M170.96,-59.5C162.36,-59.5 153.67,-59.5 145.2,-59.5"/>
<polygon fill="midnightblue" stroke="midnightblue" points="170.98,-63 180.98,-59.5 170.98,-56 170.98,-63"/>
</g>
</g>
</svg>
