<?xml version="1.0" encoding="UTF-8" standalone="no"?>
<!DOCTYPE svg PUBLIC "-//W3C//DTD SVG 1.1//EN"
 "http://www.w3.org/Graphics/SVG/1.1/DTD/svg11.dtd">
<!-- Generated by graphviz version 2.30.1 (20200930.0103)
 -->
<!-- Title: CalibData::FillTracklet Pages: 1 -->
<svg width="284pt" height="66pt"
 viewBox="0.00 0.00 284.00 66.00" xmlns="http://www.w3.org/2000/svg" xmlns:xlink="http://www.w3.org/1999/xlink">
<g id="graph0" class="graph" transform="scale(1 1) rotate(0) translate(4 62)">
<title>CalibData::FillTracklet</title>
<!-- Node1 -->
<g id="node1" class="node"><title>Node1</title>
<polygon fill="#bfbfbf" stroke="black" points="0.5,-19.5 0.5,-38.5 111.5,-38.5 111.5,-19.5 0.5,-19.5"/>
<text text-anchor="middle" x="56" y="-26.5" font-family="FreeSans" font-size="10.00">CalibData::FillTracklet</text>
</g>
<!-- Node2 -->
<g id="node2" class="node"><title>Node2</title>
<g id="a_node2"><a xlink:href="../../d2/d26/classTracklet.html#a5328ac485c2eec2b1b3162cc20a1ccf8" target="_top" xlink:title="Tracklet::getNHits">
<polygon fill="none" stroke="black" points="165.5,-38.5 165.5,-57.5 258.5,-57.5 258.5,-38.5 165.5,-38.5"/>
<text text-anchor="middle" x="212" y="-45.5" font-family="FreeSans" font-size="10.00">Tracklet::getNHits</text>
</a>
</g>
</g>
<!-- Node1&#45;&gt;Node2 -->
<g id="edge1" class="edge"><title>Node1&#45;&gt;Node2</title>
<path fill="none" stroke="midnightblue" d="M111.728,-35.7522C125.781,-37.486 140.916,-39.3533 155.031,-41.0947"/>
<polygon fill="midnightblue" stroke="midnightblue" points="154.745,-44.5859 165.098,-42.3368 155.602,-37.6385 154.745,-44.5859"/>
</g>
<!-- Node3 -->
<g id="node3" class="node"><title>Node3</title>
<g id="a_node3"><a xlink:href="../../d6/db6/classCalibParam.html#aaa47b559cfcc9059eb2eede93b97b1d7" target="_top" xlink:title="CalibParam::ZOfStationID">
<polygon fill="none" stroke="black" points="148,-0.5 148,-19.5 276,-19.5 276,-0.5 148,-0.5"/>
<text text-anchor="middle" x="212" y="-7.5" font-family="FreeSans" font-size="10.00">CalibParam::ZOfStationID</text>
</a>
</g>
</g>
<!-- Node1&#45;&gt;Node3 -->
<g id="edge2" class="edge"><title>Node1&#45;&gt;Node3</title>
<path fill="none" stroke="midnightblue" d="M111.728,-22.2478C120.117,-21.2128 128.891,-20.1303 137.604,-19.0553"/>
<polygon fill="midnightblue" stroke="midnightblue" points="138.281,-22.4984 147.777,-17.8002 137.424,-15.5511 138.281,-22.4984"/>
</g>
</g>
</svg>
