<?xml version="1.0" encoding="UTF-8" standalone="no"?>
<!DOCTYPE svg PUBLIC "-//W3C//DTD SVG 1.1//EN"
 "http://www.w3.org/Graphics/SVG/1.1/DTD/svg11.dtd">
<!-- Generated by graphviz version 2.36.0 (20140111.2315)
 -->
<!-- Title: /home/yuhw/GitHub/SeaQuest/seaquest&#45;offline/interface_main/SQHitMap.cxx Pages: 1 -->
<svg width="392pt" height="274pt"
 viewBox="0.00 0.00 392.00 274.00" xmlns="http://www.w3.org/2000/svg" xmlns:xlink="http://www.w3.org/1999/xlink">
<g id="graph0" class="graph" transform="scale(1 1) rotate(0) translate(4 270)">
<title>/home/yuhw/GitHub/SeaQuest/seaquest&#45;offline/interface_main/SQHitMap.cxx</title>
<!-- Node1 -->
<g id="node1" class="node"><title>Node1</title>
<polygon fill="#bfbfbf" stroke="black" points="67.5,-224.5 67.5,-265.5 216.5,-265.5 216.5,-224.5 67.5,-224.5"/>
<text text-anchor="start" x="75.5" y="-253.5" font-family="FreeSans" font-size="10.00">/home/yuhw/GitHub/SeaQuest</text>
<text text-anchor="start" x="75.5" y="-242.5" font-family="FreeSans" font-size="10.00">/seaquest&#45;offline/interface</text>
<text text-anchor="middle" x="142" y="-231.5" font-family="FreeSans" font-size="10.00">_main/SQHitMap.cxx</text>
</g>
<!-- Node2 -->
<g id="node2" class="node"><title>Node2</title>
<g id="a_node2"><a xlink:href="../../df/d01/SQHitMap_8h.html" target="_top" xlink:title="SQHitMap.h">
<polygon fill="none" stroke="black" points="76,-168.5 76,-187.5 146,-187.5 146,-168.5 76,-168.5"/>
<text text-anchor="middle" x="111" y="-175.5" font-family="FreeSans" font-size="10.00">SQHitMap.h</text>
</a>
</g>
</g>
<!-- Node1&#45;&gt;Node2 -->
<g id="edge1" class="edge"><title>Node1&#45;&gt;Node2</title>
<path fill="none" stroke="midnightblue" d="M132.699,-224.498C128.495,-215.682 123.561,-205.339 119.462,-196.743"/>
<polygon fill="midnightblue" stroke="midnightblue" points="122.59,-195.172 115.127,-187.652 116.272,-198.185 122.59,-195.172"/>
</g>
<!-- Node7 -->
<g id="node7" class="node"><title>Node7</title>
<g id="a_node7"><a xlink:href="../../d1/ddf/SQHit_8h.html" target="_top" xlink:title="SQHit.h">
<polygon fill="none" stroke="black" points="148.5,-112.5 148.5,-131.5 199.5,-131.5 199.5,-112.5 148.5,-112.5"/>
<text text-anchor="middle" x="174" y="-119.5" font-family="FreeSans" font-size="10.00">SQHit.h</text>
</a>
</g>
</g>
<!-- Node1&#45;&gt;Node7 -->
<g id="edge14" class="edge"><title>Node1&#45;&gt;Node7</title>
<path fill="none" stroke="midnightblue" d="M147.213,-224.29C153.273,-201.375 163.198,-163.846 169.115,-141.473"/>
<polygon fill="midnightblue" stroke="midnightblue" points="172.559,-142.137 171.732,-131.575 165.792,-140.348 172.559,-142.137"/>
</g>
<!-- Node3 -->
<g id="node3" class="node"><title>Node3</title>
<g id="a_node3"><a xlink:href="../../df/d32/PHObject_8h.html" target="_top" xlink:title="phool/PHObject.h">
<polygon fill="none" stroke="black" points="19.5,-56.5 19.5,-75.5 112.5,-75.5 112.5,-56.5 19.5,-56.5"/>
<text text-anchor="middle" x="66" y="-63.5" font-family="FreeSans" font-size="10.00">phool/PHObject.h</text>
</a>
</g>
</g>
<!-- Node2&#45;&gt;Node3 -->
<g id="edge2" class="edge"><title>Node2&#45;&gt;Node3</title>
<path fill="none" stroke="midnightblue" d="M105.168,-168.361C99.414,-159.533 90.677,-145.273 85,-132 78.4985,-116.799 73.4065,-98.6845 70.1374,-85.4444"/>
<polygon fill="midnightblue" stroke="midnightblue" points="73.5277,-84.5719 67.8291,-75.6402 66.714,-86.1762 73.5277,-84.5719"/>
</g>
<!-- Node5 -->
<g id="node5" class="node"><title>Node5</title>
<polygon fill="none" stroke="#bfbfbf" points="77,-0.5 77,-19.5 131,-19.5 131,-0.5 77,-0.5"/>
<text text-anchor="middle" x="104" y="-7.5" font-family="FreeSans" font-size="10.00">iostream</text>
</g>
<!-- Node2&#45;&gt;Node5 -->
<g id="edge6" class="edge"><title>Node2&#45;&gt;Node5</title>
<path fill="none" stroke="midnightblue" d="M96.8108,-168.28C73.4581,-152.987 27.7458,-118.842 10,-76 6.59837,-67.7877 5.26211,-63.521 10,-56 16.908,-45.0343 45.5223,-32.2491 69.3852,-23.115"/>
<polygon fill="midnightblue" stroke="midnightblue" points="70.7631,-26.3366 78.9087,-19.5618 68.3161,-19.7782 70.7631,-26.3366"/>
</g>
<!-- Node6 -->
<g id="node6" class="node"><title>Node6</title>
<polygon fill="none" stroke="#bfbfbf" points="94.5,-112.5 94.5,-131.5 129.5,-131.5 129.5,-112.5 94.5,-112.5"/>
<text text-anchor="middle" x="112" y="-119.5" font-family="FreeSans" font-size="10.00">map</text>
</g>
<!-- Node2&#45;&gt;Node6 -->
<g id="edge5" class="edge"><title>Node2&#45;&gt;Node6</title>
<path fill="none" stroke="midnightblue" d="M111.165,-168.083C111.296,-161.006 111.484,-150.861 111.648,-141.986"/>
<polygon fill="midnightblue" stroke="midnightblue" points="115.152,-141.814 111.838,-131.751 108.153,-141.685 115.152,-141.814"/>
</g>
<!-- Node2&#45;&gt;Node7 -->
<g id="edge7" class="edge"><title>Node2&#45;&gt;Node7</title>
<path fill="none" stroke="midnightblue" d="M121.122,-168.324C130.526,-160.263 144.744,-148.077 156.069,-138.369"/>
<polygon fill="midnightblue" stroke="midnightblue" points="158.379,-140.999 163.694,-131.834 153.823,-135.684 158.379,-140.999"/>
</g>
<!-- Node4 -->
<g id="node4" class="node"><title>Node4</title>
<polygon fill="none" stroke="#bfbfbf" points="-0.5,-0.5 -0.5,-19.5 58.5,-19.5 58.5,-0.5 -0.5,-0.5"/>
<text text-anchor="middle" x="29" y="-7.5" font-family="FreeSans" font-size="10.00">TObject.h</text>
</g>
<!-- Node3&#45;&gt;Node4 -->
<g id="edge3" class="edge"><title>Node3&#45;&gt;Node4</title>
<path fill="none" stroke="midnightblue" d="M59.8902,-56.083C54.7178,-48.5341 47.1539,-37.4948 40.8056,-28.2298"/>
<polygon fill="midnightblue" stroke="midnightblue" points="43.5357,-26.0221 34.9961,-19.7511 37.7612,-29.9787 43.5357,-26.0221"/>
</g>
<!-- Node3&#45;&gt;Node5 -->
<g id="edge4" class="edge"><title>Node3&#45;&gt;Node5</title>
<path fill="none" stroke="midnightblue" d="M72.2749,-56.083C77.6425,-48.4554 85.5176,-37.2645 92.0787,-27.9408"/>
<polygon fill="midnightblue" stroke="midnightblue" points="94.9492,-29.9434 97.8418,-19.7511 89.2245,-25.9149 94.9492,-29.9434"/>
</g>
<!-- Node7&#45;&gt;Node3 -->
<g id="edge8" class="edge"><title>Node7&#45;&gt;Node3</title>
<path fill="none" stroke="midnightblue" d="M156.648,-112.324C139.328,-103.664 112.485,-90.2424 92.4981,-80.249"/>
<polygon fill="midnightblue" stroke="midnightblue" points="93.8186,-76.9962 83.309,-75.6545 90.688,-83.2572 93.8186,-76.9962"/>
</g>
<!-- Node7&#45;&gt;Node5 -->
<g id="edge11" class="edge"><title>Node7&#45;&gt;Node5</title>
<path fill="none" stroke="midnightblue" d="M168.507,-112.368C157.006,-94.2957 130.203,-52.1764 115.014,-28.3074"/>
<polygon fill="midnightblue" stroke="midnightblue" points="117.789,-26.149 109.467,-19.5914 111.883,-29.9071 117.789,-26.149"/>
</g>
<!-- Node8 -->
<g id="node8" class="node"><title>Node8</title>
<g id="a_node8"><a xlink:href="../../d2/d92/PHG4HitDefs_8h.html" target="_top" xlink:title="g4main/PHG4HitDefs.h">
<polygon fill="none" stroke="black" points="265.5,-56.5 265.5,-75.5 384.5,-75.5 384.5,-56.5 265.5,-56.5"/>
<text text-anchor="middle" x="325" y="-63.5" font-family="FreeSans" font-size="10.00">g4main/PHG4HitDefs.h</text>
</a>
</g>
</g>
<!-- Node7&#45;&gt;Node8 -->
<g id="edge9" class="edge"><title>Node7&#45;&gt;Node8</title>
<path fill="none" stroke="midnightblue" d="M197.926,-112.444C223.219,-103.399 263.302,-89.064 291.68,-78.9158"/>
<polygon fill="midnightblue" stroke="midnightblue" points="292.948,-82.1794 301.186,-75.5164 290.591,-75.5882 292.948,-82.1794"/>
</g>
<!-- Node9 -->
<g id="node9" class="node"><title>Node9</title>
<polygon fill="none" stroke="#bfbfbf" points="260.5,-0.5 260.5,-19.5 301.5,-19.5 301.5,-0.5 260.5,-0.5"/>
<text text-anchor="middle" x="281" y="-7.5" font-family="FreeSans" font-size="10.00">string</text>
</g>
<!-- Node7&#45;&gt;Node9 -->
<g id="edge13" class="edge"><title>Node7&#45;&gt;Node9</title>
<path fill="none" stroke="midnightblue" d="M182.446,-112.384C191.313,-103.335 205.653,-88.6834 218,-76 234.159,-59.401 252.597,-40.3667 265.332,-27.2051"/>
<polygon fill="midnightblue" stroke="midnightblue" points="268.016,-29.4644 272.453,-19.8433 262.984,-24.5976 268.016,-29.4644"/>
</g>
<!-- Node10 -->
<g id="node10" class="node"><title>Node10</title>
<polygon fill="none" stroke="#bfbfbf" points="169,-56.5 169,-75.5 209,-75.5 209,-56.5 169,-56.5"/>
<text text-anchor="middle" x="189" y="-63.5" font-family="FreeSans" font-size="10.00">limits</text>
</g>
<!-- Node7&#45;&gt;Node10 -->
<g id="edge12" class="edge"><title>Node7&#45;&gt;Node10</title>
<path fill="none" stroke="midnightblue" d="M176.477,-112.083C178.486,-104.849 181.386,-94.4087 183.89,-85.3968"/>
<polygon fill="midnightblue" stroke="midnightblue" points="187.265,-86.323 186.569,-75.7511 180.52,-84.4495 187.265,-86.323"/>
</g>
<!-- Node8&#45;&gt;Node9 -->
<g id="edge10" class="edge"><title>Node8&#45;&gt;Node9</title>
<path fill="none" stroke="midnightblue" d="M317.734,-56.083C311.455,-48.3768 302.212,-37.0333 294.569,-27.6531"/>
<polygon fill="midnightblue" stroke="midnightblue" points="297.161,-25.2926 288.131,-19.7511 291.734,-29.7143 297.161,-25.2926"/>
</g>
</g>
</svg>
