<?xml version="1.0" encoding="UTF-8" standalone="no"?>
<!DOCTYPE svg PUBLIC "-//W3C//DTD SVG 1.1//EN"
 "http://www.w3.org/Graphics/SVG/1.1/DTD/svg11.dtd">
<!-- Generated by graphviz version 2.36.0 (20140111.2315)
 -->
<!-- Title: /home/yuhw/GitHub/SeaQuest/seaquest&#45;offline/packages/db2g4/Settings.cc Pages: 1 -->
<svg width="1914pt" height="162pt"
 viewBox="0.00 0.00 1914.00 162.00" xmlns="http://www.w3.org/2000/svg" xmlns:xlink="http://www.w3.org/1999/xlink">
<g id="graph0" class="graph" transform="scale(1 1) rotate(0) translate(4 158)">
<title>/home/yuhw/GitHub/SeaQuest/seaquest&#45;offline/packages/db2g4/Settings.cc</title>
<!-- Node1 -->
<g id="node1" class="node"><title>Node1</title>
<polygon fill="#bfbfbf" stroke="black" points="1648.5,-112.5 1648.5,-153.5 1797.5,-153.5 1797.5,-112.5 1648.5,-112.5"/>
<text text-anchor="start" x="1656.5" y="-141.5" font-family="FreeSans" font-size="10.00">/home/yuhw/GitHub/SeaQuest</text>
<text text-anchor="start" x="1656.5" y="-130.5" font-family="FreeSans" font-size="10.00">/seaquest&#45;offline/packages</text>
<text text-anchor="middle" x="1723" y="-119.5" font-family="FreeSans" font-size="10.00">/db2g4/Settings.cc</text>
</g>
<!-- Node2 -->
<g id="node2" class="node"><title>Node2</title>
<g id="a_node2"><a xlink:href="../../d2/ddc/Settings_8hh.html" target="_top" xlink:title="Settings.hh">
<polygon fill="none" stroke="black" points="765.5,-56.5 765.5,-75.5 830.5,-75.5 830.5,-56.5 765.5,-56.5"/>
<text text-anchor="middle" x="798" y="-63.5" font-family="FreeSans" font-size="10.00">Settings.hh</text>
</a>
</g>
</g>
<!-- Node1&#45;&gt;Node2 -->
<g id="edge1" class="edge"><title>Node1&#45;&gt;Node2</title>
<path fill="none" stroke="midnightblue" d="M1648.48,-126.763C1463.31,-113.752 986.79,-80.2663 841.014,-70.0226"/>
<polygon fill="midnightblue" stroke="midnightblue" points="840.922,-66.5076 830.701,-69.2979 840.431,-73.4904 840.922,-66.5076"/>
</g>
<!-- Node18 -->
<g id="node18" class="node"><title>Node18</title>
<g id="a_node18"><a xlink:href="../../da/d12/JobOptsSvc_8h.html" target="_top" xlink:title="jobopts_svc/JobOptsSvc.h">
<polygon fill="none" stroke="black" points="1656,-56.5 1656,-75.5 1790,-75.5 1790,-56.5 1656,-56.5"/>
<text text-anchor="middle" x="1723" y="-63.5" font-family="FreeSans" font-size="10.00">jobopts_svc/JobOptsSvc.h</text>
</a>
</g>
</g>
<!-- Node1&#45;&gt;Node18 -->
<g id="edge17" class="edge"><title>Node1&#45;&gt;Node18</title>
<path fill="none" stroke="midnightblue" d="M1723,-112.498C1723,-104.065 1723,-94.2351 1723,-85.874"/>
<polygon fill="midnightblue" stroke="midnightblue" points="1726.5,-85.6525 1723,-75.6525 1719.5,-85.6525 1726.5,-85.6525"/>
</g>
<!-- Node22 -->
<g id="node22" class="node"><title>Node22</title>
<g id="a_node22"><a xlink:href="../../dd/de2/GlobalConsts_8h.html" target="_top" xlink:title="GlobalConsts.h">
<polygon fill="none" stroke="black" points="1823.5,-0.5 1823.5,-19.5 1906.5,-19.5 1906.5,-0.5 1823.5,-0.5"/>
<text text-anchor="middle" x="1865" y="-7.5" font-family="FreeSans" font-size="10.00">GlobalConsts.h</text>
</a>
</g>
</g>
<!-- Node1&#45;&gt;Node22 -->
<g id="edge22" class="edge"><title>Node1&#45;&gt;Node22</title>
<path fill="none" stroke="midnightblue" d="M1751.53,-112.445C1766.11,-102.087 1783.91,-88.8724 1799,-76 1817.24,-60.4395 1836.61,-40.9621 1849.62,-27.4049"/>
<polygon fill="midnightblue" stroke="midnightblue" points="1852.48,-29.4777 1856.83,-19.8167 1847.4,-24.6569 1852.48,-29.4777"/>
</g>
<!-- Node3 -->
<g id="node3" class="node"><title>Node3</title>
<polygon fill="none" stroke="#bfbfbf" points="0,-0.5 0,-19.5 68,-19.5 68,-0.5 0,-0.5"/>
<text text-anchor="middle" x="34" y="-7.5" font-family="FreeSans" font-size="10.00">G4String.hh</text>
</g>
<!-- Node2&#45;&gt;Node3 -->
<g id="edge2" class="edge"><title>Node2&#45;&gt;Node3</title>
<path fill="none" stroke="midnightblue" d="M765.499,-64.6353C664.791,-63.1545 348.95,-55.8733 78.2069,-19.964"/>
<polygon fill="midnightblue" stroke="midnightblue" points="78.5674,-16.4811 68.1906,-18.6195 77.6361,-23.4189 78.5674,-16.4811"/>
</g>
<!-- Node4 -->
<g id="node4" class="node"><title>Node4</title>
<polygon fill="none" stroke="#bfbfbf" points="86.5,-0.5 86.5,-19.5 153.5,-19.5 153.5,-0.5 86.5,-0.5"/>
<text text-anchor="middle" x="120" y="-7.5" font-family="FreeSans" font-size="10.00">G4Event.hh</text>
</g>
<!-- Node2&#45;&gt;Node4 -->
<g id="edge3" class="edge"><title>Node2&#45;&gt;Node4</title>
<path fill="none" stroke="midnightblue" d="M765.457,-64.25C672.904,-61.7879 400.192,-52.2493 163.885,-19.9171"/>
<polygon fill="midnightblue" stroke="midnightblue" points="164.111,-16.4151 153.725,-18.5097 163.15,-23.3489 164.111,-16.4151"/>
</g>
<!-- Node5 -->
<g id="node5" class="node"><title>Node5</title>
<polygon fill="none" stroke="#bfbfbf" points="172,-0.5 172,-19.5 290,-19.5 290,-0.5 172,-0.5"/>
<text text-anchor="middle" x="231" y="-7.5" font-family="FreeSans" font-size="10.00">G4SteppingManager.hh</text>
</g>
<!-- Node2&#45;&gt;Node5 -->
<g id="edge4" class="edge"><title>Node2&#45;&gt;Node5</title>
<path fill="none" stroke="midnightblue" d="M765.258,-62.522C686.879,-56.4887 482.074,-40.1238 300.328,-20.1076"/>
<polygon fill="midnightblue" stroke="midnightblue" points="300.645,-16.6214 290.32,-18.9991 299.874,-23.5789 300.645,-16.6214"/>
</g>
<!-- Node6 -->
<g id="node6" class="node"><title>Node6</title>
<polygon fill="none" stroke="#bfbfbf" points="308.5,-0.5 308.5,-19.5 375.5,-19.5 375.5,-0.5 308.5,-0.5"/>
<text text-anchor="middle" x="342" y="-7.5" font-family="FreeSans" font-size="10.00">G4Track.hh</text>
</g>
<!-- Node2&#45;&gt;Node6 -->
<g id="edge5" class="edge"><title>Node2&#45;&gt;Node6</title>
<path fill="none" stroke="midnightblue" d="M765.375,-62.6017C696.842,-57.3179 532.743,-43.378 385.959,-20.1838"/>
<polygon fill="midnightblue" stroke="midnightblue" points="386.297,-16.6935 375.87,-18.5704 385.191,-23.6057 386.297,-16.6935"/>
</g>
<!-- Node7 -->
<g id="node7" class="node"><title>Node7</title>
<polygon fill="none" stroke="#bfbfbf" points="393.5,-0.5 393.5,-19.5 478.5,-19.5 478.5,-0.5 393.5,-0.5"/>
<text text-anchor="middle" x="436" y="-7.5" font-family="FreeSans" font-size="10.00">G4Trajectory.hh</text>
</g>
<!-- Node2&#45;&gt;Node7 -->
<g id="edge6" class="edge"><title>Node2&#45;&gt;Node7</title>
<path fill="none" stroke="midnightblue" d="M765.263,-60.6029C710.24,-53.1388 595.49,-37.2575 488.551,-20.2118"/>
<polygon fill="midnightblue" stroke="midnightblue" points="488.988,-16.7373 478.56,-18.6122 487.881,-23.6492 488.988,-16.7373"/>
</g>
<!-- Node8 -->
<g id="node8" class="node"><title>Node8</title>
<polygon fill="none" stroke="#bfbfbf" points="496.5,-0.5 496.5,-19.5 603.5,-19.5 603.5,-0.5 496.5,-0.5"/>
<text text-anchor="middle" x="550" y="-7.5" font-family="FreeSans" font-size="10.00">G4TrajectoryPoint.hh</text>
</g>
<!-- Node2&#45;&gt;Node8 -->
<g id="edge7" class="edge"><title>Node2&#45;&gt;Node8</title>
<path fill="none" stroke="midnightblue" d="M765.323,-57.8849C722.871,-48.6412 648.372,-32.4198 599.102,-21.6916"/>
<polygon fill="midnightblue" stroke="midnightblue" points="599.813,-18.2644 589.297,-19.5566 598.323,-25.1041 599.813,-18.2644"/>
</g>
<!-- Node9 -->
<g id="node9" class="node"><title>Node9</title>
<polygon fill="none" stroke="#bfbfbf" points="621,-0.5 621,-19.5 683,-19.5 683,-0.5 621,-0.5"/>
<text text-anchor="middle" x="652" y="-7.5" font-family="FreeSans" font-size="10.00">G4Step.hh</text>
</g>
<!-- Node2&#45;&gt;Node9 -->
<g id="edge8" class="edge"><title>Node2&#45;&gt;Node9</title>
<path fill="none" stroke="midnightblue" d="M774.866,-56.4435C750.518,-47.4381 711.993,-33.1891 684.577,-23.049"/>
<polygon fill="midnightblue" stroke="midnightblue" points="685.619,-19.7028 675.026,-19.5164 683.191,-26.2681 685.619,-19.7028"/>
</g>
<!-- Node10 -->
<g id="node10" class="node"><title>Node10</title>
<polygon fill="none" stroke="#bfbfbf" points="701.5,-0.5 701.5,-19.5 786.5,-19.5 786.5,-0.5 701.5,-0.5"/>
<text text-anchor="middle" x="744" y="-7.5" font-family="FreeSans" font-size="10.00">G4StepPoint.hh</text>
</g>
<!-- Node2&#45;&gt;Node10 -->
<g id="edge9" class="edge"><title>Node2&#45;&gt;Node10</title>
<path fill="none" stroke="midnightblue" d="M789.083,-56.083C781.22,-48.2195 769.569,-36.5688 760.081,-27.0813"/>
<polygon fill="midnightblue" stroke="midnightblue" points="762.297,-24.3473 752.751,-19.7511 757.347,-29.2971 762.297,-24.3473"/>
</g>
<!-- Node11 -->
<g id="node11" class="node"><title>Node11</title>
<polygon fill="none" stroke="#bfbfbf" points="804.5,-0.5 804.5,-19.5 899.5,-19.5 899.5,-0.5 804.5,-0.5"/>
<text text-anchor="middle" x="852" y="-7.5" font-family="FreeSans" font-size="10.00">G4TrackStatus.hh</text>
</g>
<!-- Node2&#45;&gt;Node11 -->
<g id="edge10" class="edge"><title>Node2&#45;&gt;Node11</title>
<path fill="none" stroke="midnightblue" d="M806.917,-56.083C814.78,-48.2195 826.431,-36.5688 835.919,-27.0813"/>
<polygon fill="midnightblue" stroke="midnightblue" points="838.653,-29.2971 843.249,-19.7511 833.703,-24.3473 838.653,-29.2971"/>
</g>
<!-- Node12 -->
<g id="node12" class="node"><title>Node12</title>
<polygon fill="none" stroke="#bfbfbf" points="917.5,-0.5 917.5,-19.5 1036.5,-19.5 1036.5,-0.5 917.5,-0.5"/>
<text text-anchor="middle" x="977" y="-7.5" font-family="FreeSans" font-size="10.00">G4VPhysicalVolume.hh</text>
</g>
<!-- Node2&#45;&gt;Node12 -->
<g id="edge11" class="edge"><title>Node2&#45;&gt;Node12</title>
<path fill="none" stroke="midnightblue" d="M826.363,-56.4435C856.738,-47.2801 905.11,-32.6876 938.816,-22.5192"/>
<polygon fill="midnightblue" stroke="midnightblue" points="940.207,-25.7555 948.77,-19.5164 938.185,-19.0538 940.207,-25.7555"/>
</g>
<!-- Node13 -->
<g id="node13" class="node"><title>Node13</title>
<polygon fill="none" stroke="#bfbfbf" points="1054.5,-0.5 1054.5,-19.5 1169.5,-19.5 1169.5,-0.5 1054.5,-0.5"/>
<text text-anchor="middle" x="1112" y="-7.5" font-family="FreeSans" font-size="10.00">G4ParticleDefinition.hh</text>
</g>
<!-- Node2&#45;&gt;Node13 -->
<g id="edge12" class="edge"><title>Node2&#45;&gt;Node13</title>
<path fill="none" stroke="midnightblue" d="M830.715,-59.3739C883.049,-50.3737 986.383,-32.6028 1052.18,-21.2872"/>
<polygon fill="midnightblue" stroke="midnightblue" points="1053.14,-24.6732 1062.41,-19.5289 1051.96,-17.7745 1053.14,-24.6732"/>
</g>
<!-- Node14 -->
<g id="node14" class="node"><title>Node14</title>
<polygon fill="none" stroke="#bfbfbf" points="1187.5,-0.5 1187.5,-19.5 1288.5,-19.5 1288.5,-0.5 1187.5,-0.5"/>
<text text-anchor="middle" x="1238" y="-7.5" font-family="FreeSans" font-size="10.00">G4ParticleTypes.hh</text>
</g>
<!-- Node2&#45;&gt;Node14 -->
<g id="edge13" class="edge"><title>Node2&#45;&gt;Node14</title>
<path fill="none" stroke="midnightblue" d="M830.575,-61.487C894.725,-54.4947 1042.17,-38.0563 1177.17,-20.0743"/>
<polygon fill="midnightblue" stroke="midnightblue" points="1177.83,-23.5169 1187.28,-18.7215 1176.9,-16.5788 1177.83,-23.5169"/>
</g>
<!-- Node15 -->
<g id="node15" class="node"><title>Node15</title>
<polygon fill="none" stroke="#bfbfbf" points="1306.5,-0.5 1306.5,-19.5 1401.5,-19.5 1401.5,-0.5 1306.5,-0.5"/>
<text text-anchor="middle" x="1354" y="-7.5" font-family="FreeSans" font-size="10.00">G4ThreeVector.hh</text>
</g>
<!-- Node2&#45;&gt;Node15 -->
<g id="edge14" class="edge"><title>Node2&#45;&gt;Node15</title>
<path fill="none" stroke="midnightblue" d="M830.775,-62.8041C909.227,-57.3855 1114.18,-42.2709 1296.41,-19.9883"/>
<polygon fill="midnightblue" stroke="midnightblue" points="1296.95,-23.4485 1306.45,-18.7511 1296.09,-16.5011 1296.95,-23.4485"/>
</g>
<!-- Node16 -->
<g id="node16" class="node"><title>Node16</title>
<polygon fill="none" stroke="#bfbfbf" points="1420,-0.5 1420,-19.5 1480,-19.5 1480,-0.5 1420,-0.5"/>
<text text-anchor="middle" x="1450" y="-7.5" font-family="FreeSans" font-size="10.00">globals.hh</text>
</g>
<!-- Node2&#45;&gt;Node16 -->
<g id="edge15" class="edge"><title>Node2&#45;&gt;Node16</title>
<path fill="none" stroke="midnightblue" d="M830.697,-64.2956C922.502,-61.9528 1190.28,-52.6137 1410,-20 1410.1,-19.985 1410.2,-19.9698 1410.3,-19.9546"/>
<polygon fill="midnightblue" stroke="midnightblue" points="1410.7,-23.4379 1419.95,-18.2622 1409.49,-16.5433 1410.7,-23.4379"/>
</g>
<!-- Node17 -->
<g id="node17" class="node"><title>Node17</title>
<polygon fill="none" stroke="#bfbfbf" points="1498.5,-0.5 1498.5,-19.5 1607.5,-19.5 1607.5,-0.5 1498.5,-0.5"/>
<text text-anchor="middle" x="1553" y="-7.5" font-family="FreeSans" font-size="10.00">G4SystemOfUnits.hh</text>
</g>
<!-- Node2&#45;&gt;Node17 -->
<g id="edge16" class="edge"><title>Node2&#45;&gt;Node17</title>
<path fill="none" stroke="midnightblue" d="M830.753,-63.7078C929.941,-59.6135 1235.7,-45.6596 1488,-20 1488.11,-19.9892 1488.21,-19.9783 1488.32,-19.9675"/>
<polygon fill="midnightblue" stroke="midnightblue" points="1488.86,-23.4286 1498.42,-18.8496 1488.09,-16.4711 1488.86,-23.4286"/>
</g>
<!-- Node19 -->
<g id="node19" class="node"><title>Node19</title>
<polygon fill="none" stroke="#bfbfbf" points="1625.5,-0.5 1625.5,-19.5 1666.5,-19.5 1666.5,-0.5 1625.5,-0.5"/>
<text text-anchor="middle" x="1646" y="-7.5" font-family="FreeSans" font-size="10.00">string</text>
</g>
<!-- Node18&#45;&gt;Node19 -->
<g id="edge18" class="edge"><title>Node18&#45;&gt;Node19</title>
<path fill="none" stroke="midnightblue" d="M1710.63,-56.324C1698.84,-48.0577 1680.87,-35.4527 1666.86,-25.6322"/>
<polygon fill="midnightblue" stroke="midnightblue" points="1668.54,-22.5307 1658.34,-19.6545 1664.52,-28.2619 1668.54,-22.5307"/>
</g>
<!-- Node20 -->
<g id="node20" class="node"><title>Node20</title>
<polygon fill="none" stroke="#bfbfbf" points="1685,-0.5 1685,-19.5 1731,-19.5 1731,-0.5 1685,-0.5"/>
<text text-anchor="middle" x="1708" y="-7.5" font-family="FreeSans" font-size="10.00">TFile.h</text>
</g>
<!-- Node18&#45;&gt;Node20 -->
<g id="edge19" class="edge"><title>Node18&#45;&gt;Node20</title>
<path fill="none" stroke="midnightblue" d="M1720.52,-56.083C1718.51,-48.8486 1715.61,-38.4087 1713.11,-29.3968"/>
<polygon fill="midnightblue" stroke="midnightblue" points="1716.48,-28.4495 1710.43,-19.7511 1709.74,-30.323 1716.48,-28.4495"/>
</g>
<!-- Node21 -->
<g id="node21" class="node"><title>Node21</title>
<polygon fill="none" stroke="#bfbfbf" points="1749,-0.5 1749,-19.5 1805,-19.5 1805,-0.5 1749,-0.5"/>
<text text-anchor="middle" x="1777" y="-7.5" font-family="FreeSans" font-size="10.00">TString.h</text>
</g>
<!-- Node18&#45;&gt;Node21 -->
<g id="edge20" class="edge"><title>Node18&#45;&gt;Node21</title>
<path fill="none" stroke="midnightblue" d="M1731.92,-56.083C1739.78,-48.2195 1751.43,-36.5688 1760.92,-27.0813"/>
<polygon fill="midnightblue" stroke="midnightblue" points="1763.65,-29.2971 1768.25,-19.7511 1758.7,-24.3473 1763.65,-29.2971"/>
</g>
<!-- Node18&#45;&gt;Node22 -->
<g id="edge21" class="edge"><title>Node18&#45;&gt;Node22</title>
<path fill="none" stroke="midnightblue" d="M1745.5,-56.4435C1769.08,-47.4776 1806.32,-33.314 1832.96,-23.1827"/>
<polygon fill="midnightblue" stroke="midnightblue" points="1834.5,-26.3424 1842.6,-19.5164 1832.01,-19.7995 1834.5,-26.3424"/>
</g>
</g>
</svg>
