<?xml version="1.0" encoding="UTF-8" standalone="no"?>
<!DOCTYPE svg PUBLIC "-//W3C//DTD SVG 1.1//EN"
 "http://www.w3.org/Graphics/SVG/1.1/DTD/svg11.dtd">
<!-- Generated by graphviz version 2.36.0 (20140111.2315)
 -->
<!-- Title: /home/yuhw/GitHub/SeaQuest/e1039&#45;core/framework/ffaobjects/SyncObject.h Pages: 1 -->
<svg width="171pt" height="162pt"
 viewBox="0.00 0.00 171.00 162.00" xmlns="http://www.w3.org/2000/svg" xmlns:xlink="http://www.w3.org/1999/xlink">
<g id="graph0" class="graph" transform="scale(1 1) rotate(0) translate(4 158)">
<title>/home/yuhw/GitHub/SeaQuest/e1039&#45;core/framework/ffaobjects/SyncObject.h</title>
<!-- Node1 -->
<g id="node1" class="node"><title>Node1</title>
<polygon fill="#bfbfbf" stroke="black" points="2.5,-112.5 2.5,-153.5 163.5,-153.5 163.5,-112.5 2.5,-112.5"/>
<text text-anchor="start" x="10.5" y="-141.5" font-family="FreeSans" font-size="10.00">/home/yuhw/GitHub/SeaQuest</text>
<text text-anchor="start" x="10.5" y="-130.5" font-family="FreeSans" font-size="10.00">/e1039&#45;core/framework/ffaobjects</text>
<text text-anchor="middle" x="83" y="-119.5" font-family="FreeSans" font-size="10.00">/SyncObject.h</text>
</g>
<!-- Node2 -->
<g id="node2" class="node"><title>Node2</title>
<g id="a_node2"><a xlink:href="../../df/d32/PHObject_8h.html" target="_top" xlink:title="phool/PHObject.h">
<polygon fill="none" stroke="black" points="-0.5,-56.5 -0.5,-75.5 92.5,-75.5 92.5,-56.5 -0.5,-56.5"/>
<text text-anchor="middle" x="46" y="-63.5" font-family="FreeSans" font-size="10.00">phool/PHObject.h</text>
</a>
</g>
</g>
<!-- Node1&#45;&gt;Node2 -->
<g id="edge1" class="edge"><title>Node1&#45;&gt;Node2</title>
<path fill="none" stroke="midnightblue" d="M71.8988,-112.498C66.826,-103.586 60.8646,-93.1135 55.9408,-84.4636"/>
<polygon fill="midnightblue" stroke="midnightblue" points="58.914,-82.6117 50.9253,-75.6525 52.8306,-86.0746 58.914,-82.6117"/>
</g>
<!-- Node4 -->
<g id="node4" class="node"><title>Node4</title>
<polygon fill="none" stroke="#bfbfbf" points="94,-0.5 94,-19.5 148,-19.5 148,-0.5 94,-0.5"/>
<text text-anchor="middle" x="121" y="-7.5" font-family="FreeSans" font-size="10.00">iostream</text>
</g>
<!-- Node1&#45;&gt;Node4 -->
<g id="edge4" class="edge"><title>Node1&#45;&gt;Node4</title>
<path fill="none" stroke="midnightblue" d="M89.3912,-112.323C92.8585,-101.596 97.2004,-88.0795 101,-76 105.927,-60.3377 111.402,-42.5111 115.377,-29.4932"/>
<polygon fill="midnightblue" stroke="midnightblue" points="118.751,-30.4282 118.318,-19.8422 112.055,-28.3879 118.751,-30.4282"/>
</g>
<!-- Node3 -->
<g id="node3" class="node"><title>Node3</title>
<polygon fill="none" stroke="#bfbfbf" points="16.5,-0.5 16.5,-19.5 75.5,-19.5 75.5,-0.5 16.5,-0.5"/>
<text text-anchor="middle" x="46" y="-7.5" font-family="FreeSans" font-size="10.00">TObject.h</text>
</g>
<!-- Node2&#45;&gt;Node3 -->
<g id="edge2" class="edge"><title>Node2&#45;&gt;Node3</title>
<path fill="none" stroke="midnightblue" d="M46,-56.083C46,-49.0059 46,-38.8611 46,-29.9865"/>
<polygon fill="midnightblue" stroke="midnightblue" points="49.5001,-29.751 46,-19.7511 42.5001,-29.7511 49.5001,-29.751"/>
</g>
<!-- Node2&#45;&gt;Node4 -->
<g id="edge3" class="edge"><title>Node2&#45;&gt;Node4</title>
<path fill="none" stroke="midnightblue" d="M58.05,-56.324C69.4631,-48.1066 86.831,-35.6017 100.435,-25.8069"/>
<polygon fill="midnightblue" stroke="midnightblue" points="102.66,-28.5174 108.731,-19.8339 98.5703,-22.8366 102.66,-28.5174"/>
</g>
</g>
</svg>
