<?xml version="1.0" encoding="UTF-8" standalone="no"?>
<!DOCTYPE svg PUBLIC "-//W3C//DTD SVG 1.1//EN"
 "http://www.w3.org/Graphics/SVG/1.1/DTD/svg11.dtd">
<!-- Generated by graphviz version 2.30.1 (20180413.0232)
 -->
<!-- Title: PHG4Hit::get_trkid Pages: 1 -->
<svg width="428pt" height="325pt"
 viewBox="0.00 0.00 428.00 325.00" xmlns="http://www.w3.org/2000/svg" xmlns:xlink="http://www.w3.org/1999/xlink">
<g id="graph0" class="graph" transform="scale(1 1) rotate(0) translate(4 321)">
<title>PHG4Hit::get_trkid</title>
<!-- Node1 -->
<g id="node1" class="node"><title>Node1</title>
<polygon fill="#bfbfbf" stroke="black" points="0.5,-142.5 0.5,-161.5 97.5,-161.5 97.5,-142.5 0.5,-142.5"/>
<text text-anchor="middle" x="49" y="-149.5" font-family="FreeSans" font-size="10.00">PHG4Hit::get_trkid</text>
</g>
<!-- Node2 -->
<g id="node2" class="node"><title>Node2</title>
<g id="a_node2"><a xlink:href="../../d6/d98/classDPDigitizer.html#a9bf0122395ac7fcf5c832e78e52f4880" target="_top" xlink:title="main external call, fill the digi hit vector ">
<polygon fill="none" stroke="black" points="150.5,-224.5 150.5,-243.5 249.5,-243.5 249.5,-224.5 150.5,-224.5"/>
<text text-anchor="middle" x="200" y="-231.5" font-family="FreeSans" font-size="10.00">DPDigitizer::digitize</text>
</a>
</g>
</g>
<!-- Node1&#45;&gt;Node2 -->
<g id="edge1" class="edge"><title>Node1&#45;&gt;Node2</title>
<path fill="none" stroke="midnightblue" d="M67.9201,-168.486C84.1123,-182.603 109.151,-202.566 134,-215 141.465,-218.735 149.789,-221.86 157.921,-224.426"/>
<polygon fill="midnightblue" stroke="midnightblue" points="70.1028,-165.743 60.3068,-161.707 65.4478,-170.971 70.1028,-165.743"/>
</g>
<!-- Node4 -->
<g id="node4" class="node"><title>Node4</title>
<g id="a_node4"><a xlink:href="../../da/d73/classRequireParticlesInAcc.html#aeb622425c376cf8fb388e738491df2f5" target="_top" xlink:title="RequireParticlesInAcc\l::ExtractParticleID">
<polygon fill="none" stroke="black" points="143.5,-263 143.5,-293 256.5,-293 256.5,-263 143.5,-263"/>
<text text-anchor="start" x="151.5" y="-281" font-family="FreeSans" font-size="10.00">RequireParticlesInAcc</text>
<text text-anchor="middle" x="200" y="-270" font-family="FreeSans" font-size="10.00">::ExtractParticleID</text>
</a>
</g>
</g>
<!-- Node1&#45;&gt;Node4 -->
<g id="edge3" class="edge"><title>Node1&#45;&gt;Node4</title>
<path fill="none" stroke="midnightblue" d="M61.0248,-170.298C75.3177,-192.625 102.214,-230.207 134,-253 139.306,-256.805 145.265,-260.117 151.367,-262.974"/>
<polygon fill="midnightblue" stroke="midnightblue" points="63.9556,-168.383 55.6934,-161.751 58.0163,-172.088 63.9556,-168.383"/>
</g>
<!-- Node7 -->
<g id="node7" class="node"><title>Node7</title>
<g id="a_node7"><a xlink:href="../../d5/dc4/PHG4Hit_8cc.html#afbcbcb188457ac445ab8006d1f886cca" target="_top" xlink:title="operator\&lt;\&lt;">
<polygon fill="none" stroke="black" points="168,-186.5 168,-205.5 232,-205.5 232,-186.5 168,-186.5"/>
<text text-anchor="middle" x="200" y="-193.5" font-family="FreeSans" font-size="10.00">operator&lt;&lt;</text>
</a>
</g>
</g>
<!-- Node1&#45;&gt;Node7 -->
<g id="edge6" class="edge"><title>Node1&#45;&gt;Node7</title>
<path fill="none" stroke="midnightblue" d="M91.9262,-164.381C116.004,-171.491 145.735,-180.271 167.753,-186.773"/>
<polygon fill="midnightblue" stroke="midnightblue" points="92.9126,-161.023 82.3308,-161.547 90.9301,-167.736 92.9126,-161.023"/>
</g>
<!-- Node8 -->
<g id="node8" class="node"><title>Node8</title>
<g id="a_node8"><a xlink:href="../../df/d39/classTruthEval.html#a81f42e26bc57120814b56c5241c495e3" target="_top" xlink:title="TruthEval::process\l_event">
<polygon fill="none" stroke="black" points="152.5,-137 152.5,-167 247.5,-167 247.5,-137 152.5,-137"/>
<text text-anchor="start" x="160.5" y="-155" font-family="FreeSans" font-size="10.00">TruthEval::process</text>
<text text-anchor="middle" x="200" y="-144" font-family="FreeSans" font-size="10.00">_event</text>
</a>
</g>
</g>
<!-- Node1&#45;&gt;Node8 -->
<g id="edge7" class="edge"><title>Node1&#45;&gt;Node8</title>
<path fill="none" stroke="midnightblue" d="M107.635,-152C122.458,-152 138.221,-152 152.406,-152"/>
<polygon fill="midnightblue" stroke="midnightblue" points="107.554,-148.5 97.5542,-152 107.554,-155.5 107.554,-148.5"/>
</g>
<!-- Node9 -->
<g id="node9" class="node"><title>Node9</title>
<g id="a_node9"><a xlink:href="../../d4/dc9/classPHG4DSTReader.html#aa32c5027cd9c3e4d667a0e84d7243412" target="_top" xlink:title="event processing method ">
<polygon fill="none" stroke="black" points="134.5,-88 134.5,-118 265.5,-118 265.5,-88 134.5,-88"/>
<text text-anchor="start" x="142.5" y="-106" font-family="FreeSans" font-size="10.00">PHG4DSTReader::process</text>
<text text-anchor="middle" x="200" y="-95" font-family="FreeSans" font-size="10.00">_event</text>
</a>
</g>
</g>
<!-- Node1&#45;&gt;Node9 -->
<g id="edge8" class="edge"><title>Node1&#45;&gt;Node9</title>
<path fill="none" stroke="midnightblue" d="M88.6799,-139.28C108.436,-132.783 132.602,-124.836 153.275,-118.037"/>
<polygon fill="midnightblue" stroke="midnightblue" points="87.4885,-135.987 79.0824,-142.436 89.6753,-142.637 87.4885,-135.987"/>
</g>
<!-- Node3 -->
<g id="node3" class="node"><title>Node3</title>
<g id="a_node3"><a xlink:href="../../d6/d98/classDPDigitizer.html#a2d585e16710f9dc114334772f104869f" target="_top" xlink:title="event processing ">
<polygon fill="none" stroke="black" points="310,-131 310,-161 412,-161 412,-131 310,-131"/>
<text text-anchor="start" x="318" y="-149" font-family="FreeSans" font-size="10.00">DPDigitizer::process</text>
<text text-anchor="middle" x="361" y="-138" font-family="FreeSans" font-size="10.00">_event</text>
</a>
</g>
</g>
<!-- Node1&#45;&gt;Node3 -->
<g id="edge9" class="edge"><title>Node1&#45;&gt;Node3</title>
<path fill="none" stroke="midnightblue" d="M63.3919,-134.322C78.3233,-116.225 104.313,-89.2116 134,-78 188.883,-57.2731 210.186,-59.9284 266,-78 298.001,-88.3615 328.253,-114.142 345.419,-130.815"/>
<polygon fill="midnightblue" stroke="midnightblue" points="60.4675,-132.377 56.9825,-142.382 65.9462,-136.734 60.4675,-132.377"/>
</g>
<!-- Node10 -->
<g id="node10" class="node"><title>Node10</title>
<g id="a_node10"><a xlink:href="../../dd/d9d/classPHG4TruthEventAction.html#ae3f2e6fb721a5bf18566688160ccc273" target="_top" xlink:title="PHG4TruthEventAction\l::ProcessShowers">
<polygon fill="none" stroke="black" points="141.5,-0 141.5,-30 258.5,-30 258.5,-0 141.5,-0"/>
<text text-anchor="start" x="149.5" y="-18" font-family="FreeSans" font-size="10.00">PHG4TruthEventAction</text>
<text text-anchor="middle" x="200" y="-7" font-family="FreeSans" font-size="10.00">::ProcessShowers</text>
</a>
</g>
</g>
<!-- Node1&#45;&gt;Node10 -->
<g id="edge10" class="edge"><title>Node1&#45;&gt;Node10</title>
<path fill="none" stroke="midnightblue" d="M60.5941,-133.64C74.7752,-110.408 101.899,-70.3707 134,-45 141.313,-39.2201 149.92,-34.2519 158.435,-30.1159"/>
<polygon fill="midnightblue" stroke="midnightblue" points="57.4415,-132.094 55.3321,-142.477 63.4558,-135.675 57.4415,-132.094"/>
</g>
<!-- Node2&#45;&gt;Node3 -->
<g id="edge2" class="edge"><title>Node2&#45;&gt;Node3</title>
<path fill="none" stroke="midnightblue" d="M251.4,-221.189C256.426,-219.344 261.375,-217.284 266,-215 295.404,-200.476 325.236,-176.703 343.179,-161.202"/>
<polygon fill="midnightblue" stroke="midnightblue" points="250.053,-217.95 241.705,-224.473 252.299,-224.579 250.053,-217.95"/>
</g>
<!-- Node5 -->
<g id="node5" class="node"><title>Node5</title>
<g id="a_node5"><a xlink:href="../../da/d73/classRequireParticlesInAcc.html#a6d1809a67044211fe54ffa7bbab86619" target="_top" xlink:title="RequireParticlesInAcc\l::process_event">
<polygon fill="none" stroke="black" points="304.5,-287 304.5,-317 417.5,-317 417.5,-287 304.5,-287"/>
<text text-anchor="start" x="312.5" y="-305" font-family="FreeSans" font-size="10.00">RequireParticlesInAcc</text>
<text text-anchor="middle" x="361" y="-294" font-family="FreeSans" font-size="10.00">::process_event</text>
</a>
</g>
</g>
<!-- Node4&#45;&gt;Node5 -->
<g id="edge4" class="edge"><title>Node4&#45;&gt;Node5</title>
<path fill="none" stroke="midnightblue" d="M266.567,-287.897C279.143,-289.795 292.198,-291.766 304.421,-293.611"/>
<polygon fill="midnightblue" stroke="midnightblue" points="267.021,-284.426 256.61,-286.394 265.976,-291.347 267.021,-284.426"/>
</g>
<!-- Node6 -->
<g id="node6" class="node"><title>Node6</title>
<g id="a_node6"><a xlink:href="../../da/d73/classRequireParticlesInAcc.html#affe9bd90a139bb9a41536393fc5da4d0" target="_top" xlink:title="RequireParticlesInAcc\l::ExtractParticleID">
<polygon fill="none" stroke="black" points="304.5,-238 304.5,-268 417.5,-268 417.5,-238 304.5,-238"/>
<text text-anchor="start" x="312.5" y="-256" font-family="FreeSans" font-size="10.00">RequireParticlesInAcc</text>
<text text-anchor="middle" x="361" y="-245" font-family="FreeSans" font-size="10.00">::ExtractParticleID</text>
</a>
</g>
</g>
<!-- Node4&#45;&gt;Node6 -->
<g id="edge5" class="edge"><title>Node4&#45;&gt;Node6</title>
<path fill="none" stroke="midnightblue" d="M266.567,-267.691C279.143,-265.713 292.198,-263.661 304.421,-261.739"/>
<polygon fill="midnightblue" stroke="midnightblue" points="265.945,-264.245 256.61,-269.256 267.033,-271.16 265.945,-264.245"/>
</g>
<!-- Node11 -->
<g id="node11" class="node"><title>Node11</title>
<g id="a_node11"><a xlink:href="../../dd/d9d/classPHG4TruthEventAction.html#aadf84e52ab9bcf0b8fb892c626b53c27" target="_top" xlink:title="PHG4TruthEventAction\l::EndOfEventAction">
<polygon fill="none" stroke="black" points="302.5,-0 302.5,-30 419.5,-30 419.5,-0 302.5,-0"/>
<text text-anchor="start" x="310.5" y="-18" font-family="FreeSans" font-size="10.00">PHG4TruthEventAction</text>
<text text-anchor="middle" x="361" y="-7" font-family="FreeSans" font-size="10.00">::EndOfEventAction</text>
</a>
</g>
</g>
<!-- Node10&#45;&gt;Node11 -->
<g id="edge11" class="edge"><title>Node10&#45;&gt;Node11</title>
<path fill="none" stroke="midnightblue" d="M268.98,-15C280.131,-15 291.591,-15 302.457,-15"/>
<polygon fill="midnightblue" stroke="midnightblue" points="268.852,-11.5001 258.852,-15 268.852,-18.5001 268.852,-11.5001"/>
</g>
</g>
</svg>
