<?xml version="1.0" encoding="UTF-8" standalone="no"?>
<!DOCTYPE svg PUBLIC "-//W3C//DTD SVG 1.1//EN"
 "http://www.w3.org/Graphics/SVG/1.1/DTD/svg11.dtd">
<!-- Generated by graphviz version 2.36.0 (20140111.2315)
 -->
<!-- Title: PHG4mRICHDetector::mRichParameter::GetLensPar Pages: 1 -->
<svg width="462pt" height="38pt"
 viewBox="0.00 0.00 462.00 38.00" xmlns="http://www.w3.org/2000/svg" xmlns:xlink="http://www.w3.org/1999/xlink">
<g id="graph0" class="graph" transform="scale(1 1) rotate(0) translate(4 34)">
<title>PHG4mRICHDetector::mRichParameter::GetLensPar</title>
<!-- Node1 -->
<g id="node1" class="node"><title>Node1</title>
<polygon fill="#bfbfbf" stroke="black" points="0,-0 0,-30 146,-30 146,-0 0,-0"/>
<text text-anchor="start" x="8" y="-18" font-family="FreeSans" font-size="10.00">PHG4mRICHDetector::</text>
<text text-anchor="middle" x="73" y="-7" font-family="FreeSans" font-size="10.00">mRichParameter::GetLensPar</text>
</g>
<!-- Node2 -->
<g id="node2" class="node"><title>Node2</title>
<g id="a_node2"><a xlink:href="../../d9/deb/classPHG4mRICHDetector.html#a4d8d5a1cb76f341715d82d7f645b570c" target="_top" xlink:title="PHG4mRICHDetector::\lConstruct_a_mRICH">
<polygon fill="none" stroke="black" points="182.5,-0 182.5,-30 299.5,-30 299.5,-0 182.5,-0"/>
<text text-anchor="start" x="190.5" y="-18" font-family="FreeSans" font-size="10.00">PHG4mRICHDetector::</text>
<text text-anchor="middle" x="241" y="-7" font-family="FreeSans" font-size="10.00">Construct_a_mRICH</text>
</a>
</g>
</g>
<!-- Node1&#45;&gt;Node2 -->
<g id="edge1" class="edge"><title>Node1&#45;&gt;Node2</title>
<path fill="none" stroke="midnightblue" d="M156.55,-15C165.28,-15 174.017,-15 182.374,-15"/>
<polygon fill="midnightblue" stroke="midnightblue" points="156.327,-11.5001 146.327,-15 156.327,-18.5001 156.327,-11.5001"/>
</g>
<!-- Node3 -->
<g id="node3" class="node"><title>Node3</title>
<g id="a_node3"><a xlink:href="../../d9/deb/classPHG4mRICHDetector.html#a3a58a56bb50ff1333c2399367ebfd349" target="_top" xlink:title="construct ">
<polygon fill="none" stroke="black" points="336.5,-0 336.5,-30 453.5,-30 453.5,-0 336.5,-0"/>
<text text-anchor="start" x="344.5" y="-18" font-family="FreeSans" font-size="10.00">PHG4mRICHDetector::</text>
<text text-anchor="middle" x="395" y="-7" font-family="FreeSans" font-size="10.00">Construct</text>
</a>
</g>
</g>
<!-- Node2&#45;&gt;Node3 -->
<g id="edge2" class="edge"><title>Node2&#45;&gt;Node3</title>
<path fill="none" stroke="midnightblue" d="M310.072,-15C318.817,-15 327.704,-15 336.263,-15"/>
<polygon fill="midnightblue" stroke="midnightblue" points="309.898,-11.5001 299.898,-15 309.898,-18.5001 309.898,-11.5001"/>
</g>
</g>
</svg>
