<?xml version="1.0" encoding="UTF-8" standalone="no"?>
<!DOCTYPE svg PUBLIC "-//W3C//DTD SVG 1.1//EN"
 "http://www.w3.org/Graphics/SVG/1.1/DTD/svg11.dtd">
<!-- Generated by graphviz version 2.30.1 (20200930.0103)
 -->
<!-- Title: /dev/shm/kenichi/update&#45;github&#45;e1039&#45;doc/e1039&#45;core/packages/Display/modules/mTrkEveDisplay.h Pages: 1 -->
<svg width="407pt" height="230pt"
 viewBox="0.00 0.00 407.00 230.00" xmlns="http://www.w3.org/2000/svg" xmlns:xlink="http://www.w3.org/1999/xlink">
<g id="graph0" class="graph" transform="scale(1 1) rotate(0) translate(4 226)">
<title>/dev/shm/kenichi/update&#45;github&#45;e1039&#45;doc/e1039&#45;core/packages/Display/modules/mTrkEveDisplay.h</title>
<!-- Node1 -->
<g id="node1" class="node"><title>Node1</title>
<polygon fill="#bfbfbf" stroke="black" points="221.5,-169 221.5,-221 376.5,-221 376.5,-169 221.5,-169"/>
<text text-anchor="start" x="229.5" y="-209" font-family="FreeSans" font-size="10.00">/dev/shm/kenichi/update</text>
<text text-anchor="start" x="229.5" y="-198" font-family="FreeSans" font-size="10.00">&#45;github&#45;e1039&#45;doc/e1039</text>
<text text-anchor="start" x="229.5" y="-187" font-family="FreeSans" font-size="10.00">&#45;core/packages/Display/modules</text>
<text text-anchor="middle" x="299" y="-176" font-family="FreeSans" font-size="10.00">/mTrkEveDisplay.h</text>
</g>
<!-- Node2 -->
<g id="node2" class="node"><title>Node2</title>
<g id="a_node2"><a xlink:href="../../d4/d4b/mPHEveModuleBase_8h.html" target="_top" xlink:title="mPHEveModuleBase.h">
<polygon fill="none" stroke="black" points="112.5,-112.5 112.5,-131.5 227.5,-131.5 227.5,-112.5 112.5,-112.5"/>
<text text-anchor="middle" x="170" y="-119.5" font-family="FreeSans" font-size="10.00">mPHEveModuleBase.h</text>
</a>
</g>
</g>
<!-- Node1&#45;&gt;Node2 -->
<g id="edge1" class="edge"><title>Node1&#45;&gt;Node2</title>
<path fill="none" stroke="midnightblue" d="M253.519,-168.968C233.751,-158.088 211.366,-145.767 194.749,-136.622"/>
<polygon fill="midnightblue" stroke="midnightblue" points="196.144,-133.394 185.696,-131.639 192.769,-139.527 196.144,-133.394"/>
</g>
<!-- Node8 -->
<g id="node8" class="node"><title>Node8</title>
<polygon fill="none" stroke="#bfbfbf" points="246,-112.5 246,-131.5 352,-131.5 352,-112.5 246,-112.5"/>
<text text-anchor="middle" x="299" y="-119.5" font-family="FreeSans" font-size="10.00">boost/shared_ptr.hpp</text>
</g>
<!-- Node1&#45;&gt;Node8 -->
<g id="edge7" class="edge"><title>Node1&#45;&gt;Node8</title>
<path fill="none" stroke="midnightblue" d="M299,-168.768C299,-159.89 299,-150.074 299,-141.816"/>
<polygon fill="midnightblue" stroke="midnightblue" points="302.5,-141.757 299,-131.757 295.5,-141.757 302.5,-141.757"/>
</g>
<!-- Node9 -->
<g id="node9" class="node"><title>Node9</title>
<polygon fill="none" stroke="#bfbfbf" points="370.5,-112.5 370.5,-131.5 399.5,-131.5 399.5,-112.5 370.5,-112.5"/>
<text text-anchor="middle" x="385" y="-119.5" font-family="FreeSans" font-size="10.00">set</text>
</g>
<!-- Node1&#45;&gt;Node9 -->
<g id="edge8" class="edge"><title>Node1&#45;&gt;Node9</title>
<path fill="none" stroke="midnightblue" d="M329.563,-168.768C341.905,-158.578 355.744,-147.153 366.507,-138.267"/>
<polygon fill="midnightblue" stroke="midnightblue" points="368.909,-140.823 374.393,-131.757 364.453,-135.425 368.909,-140.823"/>
</g>
<!-- Node3 -->
<g id="node3" class="node"><title>Node3</title>
<polygon fill="none" stroke="#bfbfbf" points="-0.5,-56.5 -0.5,-75.5 78.5,-75.5 78.5,-56.5 -0.5,-56.5"/>
<text text-anchor="middle" x="39" y="-63.5" font-family="FreeSans" font-size="10.00">boost/bind.hpp</text>
</g>
<!-- Node2&#45;&gt;Node3 -->
<g id="edge2" class="edge"><title>Node2&#45;&gt;Node3</title>
<path fill="none" stroke="midnightblue" d="M149.243,-112.444C127.684,-103.557 93.7367,-89.5632 69.2062,-79.4514"/>
<polygon fill="midnightblue" stroke="midnightblue" points="70.2394,-76.0917 59.6602,-75.5164 67.5717,-82.5634 70.2394,-76.0917"/>
</g>
<!-- Node4 -->
<g id="node4" class="node"><title>Node4</title>
<g id="a_node4"><a xlink:href="../../d5/d6f/phool_8h.html" target="_top" xlink:title="phool/phool.h">
<polygon fill="none" stroke="black" points="97,-56.5 97,-75.5 171,-75.5 171,-56.5 97,-56.5"/>
<text text-anchor="middle" x="134" y="-63.5" font-family="FreeSans" font-size="10.00">phool/phool.h</text>
</a>
</g>
</g>
<!-- Node2&#45;&gt;Node4 -->
<g id="edge3" class="edge"><title>Node2&#45;&gt;Node4</title>
<path fill="none" stroke="midnightblue" d="M164.055,-112.083C159.023,-104.534 151.663,-93.4948 145.487,-84.2298"/>
<polygon fill="midnightblue" stroke="midnightblue" points="148.293,-82.1301 139.834,-75.7511 142.469,-86.0131 148.293,-82.1301"/>
</g>
<!-- Node6 -->
<g id="node6" class="node"><title>Node6</title>
<polygon fill="none" stroke="#bfbfbf" points="189.5,-56.5 189.5,-75.5 224.5,-75.5 224.5,-56.5 189.5,-56.5"/>
<text text-anchor="middle" x="207" y="-63.5" font-family="FreeSans" font-size="10.00">map</text>
</g>
<!-- Node2&#45;&gt;Node6 -->
<g id="edge5" class="edge"><title>Node2&#45;&gt;Node6</title>
<path fill="none" stroke="midnightblue" d="M176.11,-112.083C181.282,-104.534 188.846,-93.4948 195.194,-84.2298"/>
<polygon fill="midnightblue" stroke="midnightblue" points="198.239,-85.9787 201.004,-75.7511 192.464,-82.0221 198.239,-85.9787"/>
</g>
<!-- Node7 -->
<g id="node7" class="node"><title>Node7</title>
<polygon fill="none" stroke="#bfbfbf" points="242.5,-56.5 242.5,-75.5 325.5,-75.5 325.5,-56.5 242.5,-56.5"/>
<text text-anchor="middle" x="284" y="-63.5" font-family="FreeSans" font-size="10.00">TEveManager.h</text>
</g>
<!-- Node2&#45;&gt;Node7 -->
<g id="edge6" class="edge"><title>Node2&#45;&gt;Node7</title>
<path fill="none" stroke="midnightblue" d="M188.064,-112.444C206.575,-103.675 235.581,-89.9355 256.855,-79.8579"/>
<polygon fill="midnightblue" stroke="midnightblue" points="258.482,-82.9604 266.021,-75.5164 255.485,-76.6343 258.482,-82.9604"/>
</g>
<!-- Node5 -->
<g id="node5" class="node"><title>Node5</title>
<polygon fill="none" stroke="#bfbfbf" points="107.5,-0.5 107.5,-19.5 160.5,-19.5 160.5,-0.5 107.5,-0.5"/>
<text text-anchor="middle" x="134" y="-7.5" font-family="FreeSans" font-size="10.00">iostream</text>
</g>
<!-- Node4&#45;&gt;Node5 -->
<g id="edge4" class="edge"><title>Node4&#45;&gt;Node5</title>
<path fill="none" stroke="midnightblue" d="M134,-56.083C134,-49.0059 134,-38.8611 134,-29.9865"/>
<polygon fill="midnightblue" stroke="midnightblue" points="137.5,-29.751 134,-19.7511 130.5,-29.7511 137.5,-29.751"/>
</g>
</g>
</svg>
