<?xml version="1.0" encoding="UTF-8" standalone="no"?>
<!DOCTYPE svg PUBLIC "-//W3C//DTD SVG 1.1//EN"
 "http://www.w3.org/Graphics/SVG/1.1/DTD/svg11.dtd">
<!-- Generated by graphviz version 2.44.0 (0)
 -->
<!-- Title: PHFieldSeaQuest::identify Pages: 1 -->
<svg width="642pt" height="88pt"
 viewBox="0.00 0.00 642.00 88.00" xmlns="http://www.w3.org/2000/svg" xmlns:xlink="http://www.w3.org/1999/xlink">
<g id="graph0" class="graph" transform="scale(1 1) rotate(0) translate(4 84)">
<title>PHFieldSeaQuest::identify</title>
<!-- Node1 -->
<g id="node1" class="node">
<title>Node1</title>
<g id="a_node1"><a xlink:title=" ">
<polygon fill="#bfbfbf" stroke="black" points="0,-30 0,-49 143,-49 143,-30 0,-30"/>
<text text-anchor="middle" x="71.5" y="-37" font-family="FreeSans" font-size="10.00">PHFieldSeaQuest::identify</text>
</a>
</g>
</g>
<!-- Node2 -->
<g id="node2" class="node">
<title>Node2</title>
<g id="a_node2"><a xlink:href="../../d9/da8/classPHFieldSeaQuest.html#a0c90c4214b996487820776ba8f6af265" target="_top" xlink:title=" ">
<polygon fill="none" stroke="black" points="179,-24.5 179,-54.5 325,-54.5 325,-24.5 179,-24.5"/>
<text text-anchor="start" x="187" y="-42.5" font-family="FreeSans" font-size="10.00">PHFieldSeaQuest::GetField</text>
<text text-anchor="middle" x="252" y="-31.5" font-family="FreeSans" font-size="10.00">Value</text>
</a>
</g>
</g>
<!-- Node1&#45;&gt;Node2 -->
<g id="edge1" class="edge">
<title>Node1&#45;&gt;Node2</title>
<path fill="none" stroke="midnightblue" d="M143.05,-39.5C151.52,-39.5 160.23,-39.5 168.86,-39.5"/>
<polygon fill="midnightblue" stroke="midnightblue" points="168.92,-43 178.92,-39.5 168.92,-36 168.92,-43"/>
</g>
<!-- Node3 -->
<g id="node3" class="node">
<title>Node3</title>
<g id="a_node3"><a xlink:href="../../d8/d4f/classPHFieldRegionalConst.html#aad341f2307054d9aada249024b397336" target="_top" xlink:title=" ">
<polygon fill="none" stroke="black" points="361,-49.5 361,-79.5 485,-79.5 485,-49.5 361,-49.5"/>
<text text-anchor="start" x="369" y="-67.5" font-family="FreeSans" font-size="10.00">PHFieldRegionalConst</text>
<text text-anchor="middle" x="423" y="-56.5" font-family="FreeSans" font-size="10.00">::GetFieldValue</text>
</a>
</g>
</g>
<!-- Node2&#45;&gt;Node3 -->
<g id="edge2" class="edge">
<title>Node2&#45;&gt;Node3</title>
<path fill="none" stroke="midnightblue" d="M325.16,-50.17C333.74,-51.44 342.49,-52.74 351.05,-54"/>
<polygon fill="midnightblue" stroke="midnightblue" points="350.58,-57.47 360.98,-55.47 351.6,-50.55 350.58,-57.47"/>
</g>
<!-- Node4 -->
<g id="node4" class="node">
<title>Node4</title>
<g id="a_node4"><a xlink:href="../../d7/d58/classSQField3DCartesian.html#a2b46d279ab9bbfe8799aa20b45abbf7c" target="_top" xlink:title=" ">
<polygon fill="none" stroke="black" points="366.5,-0.5 366.5,-30.5 479.5,-30.5 479.5,-0.5 366.5,-0.5"/>
<text text-anchor="start" x="374.5" y="-18.5" font-family="FreeSans" font-size="10.00">SQField3DCartesian</text>
<text text-anchor="middle" x="423" y="-7.5" font-family="FreeSans" font-size="10.00">::GetFieldValue</text>
</a>
</g>
</g>
<!-- Node2&#45;&gt;Node4 -->
<g id="edge3" class="edge">
<title>Node2&#45;&gt;Node4</title>
<path fill="none" stroke="midnightblue" d="M325.16,-29.25C335.52,-27.78 346.14,-26.27 356.36,-24.82"/>
<polygon fill="midnightblue" stroke="midnightblue" points="357.03,-28.26 366.44,-23.39 356.05,-21.33 357.03,-28.26"/>
</g>
<!-- Node5 -->
<g id="node5" class="node">
<title>Node5</title>
<g id="a_node5"><a xlink:href="../../d7/d58/classSQField3DCartesian.html#a4899c61da31a03a10e5e616603a61548" target="_top" xlink:title="return the index of the global index based on the local index">
<polygon fill="none" stroke="black" points="521,-0.5 521,-30.5 634,-30.5 634,-0.5 521,-0.5"/>
<text text-anchor="start" x="529" y="-18.5" font-family="FreeSans" font-size="10.00">SQField3DCartesian</text>
<text text-anchor="middle" x="577.5" y="-7.5" font-family="FreeSans" font-size="10.00">::GetGlobalIndex</text>
</a>
</g>
</g>
<!-- Node4&#45;&gt;Node5 -->
<g id="edge4" class="edge">
<title>Node4&#45;&gt;Node5</title>
<path fill="none" stroke="midnightblue" d="M479.92,-15.5C489.93,-15.5 500.44,-15.5 510.7,-15.5"/>
<polygon fill="midnightblue" stroke="midnightblue" points="510.84,-19 520.84,-15.5 510.84,-12 510.84,-19"/>
</g>
</g>
</svg>
