<?xml version="1.0" encoding="UTF-8" standalone="no"?>
<!DOCTYPE svg PUBLIC "-//W3C//DTD SVG 1.1//EN"
 "http://www.w3.org/Graphics/SVG/1.1/DTD/svg11.dtd">
<!-- Generated by graphviz version 2.40.1 (20161225.0304)
 -->
<!-- Title: PHG4TruthEventAction::SetInterfacePointers Pages: 1 -->
<svg width="573pt" height="85pt"
 viewBox="0.00 0.00 573.00 85.00" xmlns="http://www.w3.org/2000/svg" xmlns:xlink="http://www.w3.org/1999/xlink">
<g id="graph0" class="graph" transform="scale(1 1) rotate(0) translate(4 81)">
<title>PHG4TruthEventAction::SetInterfacePointers</title>
<!-- Node215 -->
<g id="node1" class="node">
<title>Node215</title>
<polygon fill="#bfbfbf" stroke="#000000" points="0,-33 0,-63 117,-63 117,-33 0,-33"/>
<text text-anchor="start" x="8" y="-51" font-family="FreeSans" font-size="10.00" fill="#000000">PHG4TruthEventAction</text>
<text text-anchor="middle" x="58.5" y="-40" font-family="FreeSans" font-size="10.00" fill="#000000">::SetInterfacePointers</text>
</g>
<!-- Node216 -->
<g id="node2" class="node">
<title>Node216</title>
<g id="a_node2"><a xlink:href="../../dd/d9d/classPHG4TruthEventAction.html#a8140dbcb21650639a4d51d11cd23951b" target="_top" xlink:title="PHG4TruthEventAction\l::SearchNode">
<polygon fill="none" stroke="#000000" points="153,-33 153,-63 270,-63 270,-33 153,-33"/>
<text text-anchor="start" x="161" y="-51" font-family="FreeSans" font-size="10.00" fill="#000000">PHG4TruthEventAction</text>
<text text-anchor="middle" x="211.5" y="-40" font-family="FreeSans" font-size="10.00" fill="#000000">::SearchNode</text>
</a>
</g>
</g>
<!-- Node215&#45;&gt;Node216 -->
<g id="edge1" class="edge">
<title>Node215&#45;&gt;Node216</title>
<path fill="none" stroke="#191970" d="M117.2162,-48C125.5439,-48 134.1693,-48 142.6671,-48"/>
<polygon fill="#191970" stroke="#191970" points="142.9409,-51.5001 152.9409,-48 142.9409,-44.5001 142.9409,-51.5001"/>
</g>
<!-- Node217 -->
<g id="node3" class="node">
<title>Node217</title>
<g id="a_node3"><a xlink:href="../../d1/d3e/classPHDataNode.html#a1f3b856fd3ce165047be8aa97f4ab9f3" target="_top" xlink:title="PHDataNode::getData">
<polygon fill="none" stroke="#000000" points="306,-57.5 306,-76.5 417,-76.5 417,-57.5 306,-57.5"/>
<text text-anchor="middle" x="361.5" y="-64.5" font-family="FreeSans" font-size="10.00" fill="#000000">PHDataNode::getData</text>
</a>
</g>
</g>
<!-- Node216&#45;&gt;Node217 -->
<g id="edge2" class="edge">
<title>Node216&#45;&gt;Node217</title>
<path fill="none" stroke="#191970" d="M270.3535,-55.4548C278.6394,-56.5043 287.2013,-57.5888 295.6083,-58.6537"/>
<polygon fill="#191970" stroke="#191970" points="295.3966,-62.1548 305.7571,-59.9392 296.2762,-55.2103 295.3966,-62.1548"/>
</g>
<!-- Node218 -->
<g id="node4" class="node">
<title>Node218</title>
<g id="a_node4"><a xlink:href="../../d5/d07/classPHNodeIterator.html#a110a5b87a02a22deecae334f32387ffa" target="_top" xlink:title="PHNodeIterator::ls">
<polygon fill="none" stroke="#000000" points="314,-19.5 314,-38.5 409,-38.5 409,-19.5 314,-19.5"/>
<text text-anchor="middle" x="361.5" y="-26.5" font-family="FreeSans" font-size="10.00" fill="#000000">PHNodeIterator::ls</text>
</a>
</g>
</g>
<!-- Node216&#45;&gt;Node218 -->
<g id="edge3" class="edge">
<title>Node216&#45;&gt;Node218</title>
<path fill="none" stroke="#191970" d="M270.3535,-40.5452C281.4133,-39.1443 292.9649,-37.6811 303.9834,-36.2854"/>
<polygon fill="#191970" stroke="#191970" points="304.4423,-39.7554 313.9232,-35.0264 303.5626,-32.8109 304.4423,-39.7554"/>
</g>
<!-- Node219 -->
<g id="node5" class="node">
<title>Node219</title>
<g id="a_node5"><a xlink:href="../../d6/d86/classPHPointerList.html#a560c9339d74f28f604d07dcb10a2e0be" target="_top" xlink:title="PHPointerList::clear">
<polygon fill="none" stroke="#000000" points="458.5,-38.5 458.5,-57.5 559.5,-57.5 559.5,-38.5 458.5,-38.5"/>
<text text-anchor="middle" x="509" y="-45.5" font-family="FreeSans" font-size="10.00" fill="#000000">PHPointerList::clear</text>
</a>
</g>
</g>
<!-- Node218&#45;&gt;Node219 -->
<g id="edge4" class="edge">
<title>Node218&#45;&gt;Node219</title>
<path fill="none" stroke="#191970" d="M409.389,-35.1688C421.7348,-36.7591 435.1877,-38.492 448.0985,-40.1551"/>
<polygon fill="#191970" stroke="#191970" points="447.9397,-43.6634 458.305,-41.4698 448.8341,-36.7208 447.9397,-43.6634"/>
</g>
<!-- Node220 -->
<g id="node6" class="node">
<title>Node220</title>
<g id="a_node6"><a xlink:href="../../d6/d86/classPHPointerList.html#af5fc4e6958b5b90c57bfb497566f503c" target="_top" xlink:title="PHPointerList::append">
<polygon fill="none" stroke="#000000" points="453,-.5 453,-19.5 565,-19.5 565,-.5 453,-.5"/>
<text text-anchor="middle" x="509" y="-7.5" font-family="FreeSans" font-size="10.00" fill="#000000">PHPointerList::append</text>
</a>
</g>
</g>
<!-- Node218&#45;&gt;Node220 -->
<g id="edge5" class="edge">
<title>Node218&#45;&gt;Node220</title>
<path fill="none" stroke="#191970" d="M409.389,-22.8312C420.0156,-21.4624 431.4625,-19.9879 442.6778,-18.5432"/>
<polygon fill="#191970" stroke="#191970" points="443.4115,-21.9777 452.8824,-17.2287 442.5172,-15.0351 443.4115,-21.9777"/>
</g>
</g>
</svg>
