<?xml version="1.0" encoding="UTF-8" standalone="no"?>
<!DOCTYPE svg PUBLIC "-//W3C//DTD SVG 1.1//EN"
 "http://www.w3.org/Graphics/SVG/1.1/DTD/svg11.dtd">
<!-- Generated by graphviz version 2.30.1 (20200930.0103)
 -->
<!-- Title: boost::atomic_exchange_explicit Pages: 1 -->
<svg width="436pt" height="38pt"
 viewBox="0.00 0.00 436.00 38.00" xmlns="http://www.w3.org/2000/svg" xmlns:xlink="http://www.w3.org/1999/xlink">
<g id="graph0" class="graph" transform="scale(1 1) rotate(0) translate(4 34)">
<title>boost::atomic_exchange_explicit</title>
<!-- Node1 -->
<g id="node1" class="node"><title>Node1</title>
<polygon fill="#bfbfbf" stroke="black" points="0,-0 0,-30 120,-30 120,-0 0,-0"/>
<text text-anchor="start" x="8" y="-18" font-family="FreeSans" font-size="10.00">boost::atomic_exchange</text>
<text text-anchor="middle" x="60" y="-7" font-family="FreeSans" font-size="10.00">_explicit</text>
</g>
<!-- Node2 -->
<g id="node2" class="node"><title>Node2</title>
<g id="a_node2"><a xlink:href="../../d4/da9/namespaceboost.html#a6d367cd4931325d822c116faf5d8b6a5" target="_top" xlink:title="boost::atomic_exchange">
<polygon fill="none" stroke="black" points="156,-5.5 156,-24.5 276,-24.5 276,-5.5 156,-5.5"/>
<text text-anchor="middle" x="216" y="-12.5" font-family="FreeSans" font-size="10.00">boost::atomic_exchange</text>
</a>
</g>
</g>
<!-- Node1&#45;&gt;Node2 -->
<g id="edge1" class="edge"><title>Node1&#45;&gt;Node2</title>
<path fill="none" stroke="midnightblue" d="M120.1,-15C128.422,-15 137.039,-15 145.533,-15"/>
<polygon fill="midnightblue" stroke="midnightblue" points="145.804,-18.5001 155.804,-15 145.804,-11.5001 145.804,-18.5001"/>
</g>
<!-- Node3 -->
<g id="node3" class="node"><title>Node3</title>
<g id="a_node3"><a xlink:href="../../da/d18/classboost_1_1shared__ptr.html#a35e547e16fa205e5d727929789fd7ac9" target="_top" xlink:title="boost::shared_ptr::swap">
<polygon fill="none" stroke="black" points="312,-5.5 312,-24.5 428,-24.5 428,-5.5 312,-5.5"/>
<text text-anchor="middle" x="370" y="-12.5" font-family="FreeSans" font-size="10.00">boost::shared_ptr::swap</text>
</a>
</g>
</g>
<!-- Node2&#45;&gt;Node3 -->
<g id="edge2" class="edge"><title>Node2&#45;&gt;Node3</title>
<path fill="none" stroke="midnightblue" d="M276.202,-15C284.499,-15 293.077,-15 301.513,-15"/>
<polygon fill="midnightblue" stroke="midnightblue" points="301.705,-18.5001 311.705,-15 301.705,-11.5001 301.705,-18.5001"/>
</g>
</g>
</svg>
