<?xml version="1.0" encoding="UTF-8" standalone="no"?>
<!DOCTYPE svg PUBLIC "-//W3C//DTD SVG 1.1//EN"
 "http://www.w3.org/Graphics/SVG/1.1/DTD/svg11.dtd">
<!-- Generated by graphviz version 2.30.1 (20200930.0103)
 -->
<!-- Title: KalmanDSTrk::fitTracklet Pages: 1 -->
<svg width="1030pt" height="204pt"
 viewBox="0.00 0.00 1030.00 203.92" xmlns="http://www.w3.org/2000/svg" xmlns:xlink="http://www.w3.org/1999/xlink">
<g id="graph0" class="graph" transform="scale(1 1) rotate(0) translate(4 199.924)">
<title>KalmanDSTrk::fitTracklet</title>
<!-- Node1 -->
<g id="node1" class="node"><title>Node1</title>
<polygon fill="#bfbfbf" stroke="black" points="0.5,-95.4477 0.5,-114.448 125.5,-114.448 125.5,-95.4477 0.5,-95.4477"/>
<text text-anchor="middle" x="63" y="-102.448" font-family="FreeSans" font-size="10.00">KalmanDSTrk::fitTracklet</text>
</g>
<!-- Node2 -->
<g id="node2" class="node"><title>Node2</title>
<g id="a_node2"><a xlink:href="../../db/daa/classKalmanDSTrk.html#a1d246a6aacb8828783f887e82bb74cd1" target="_top" xlink:title="KalmanDSTrk::buildBackPartial\lTracks">
<polygon fill="none" stroke="black" points="522,-143.948 522,-173.948 674,-173.948 674,-143.948 522,-143.948"/>
<text text-anchor="start" x="530" y="-161.948" font-family="FreeSans" font-size="10.00">KalmanDSTrk::buildBackPartial</text>
<text text-anchor="middle" x="598" y="-150.948" font-family="FreeSans" font-size="10.00">Tracks</text>
</a>
</g>
</g>
<!-- Node1&#45;&gt;Node2 -->
<g id="edge1" class="edge"><title>Node1&#45;&gt;Node2</title>
<path fill="none" stroke="midnightblue" d="M81.3429,-121.418C99.7245,-137.686 130.412,-161.589 162,-171.948 288.714,-213.501 447.477,-191.577 533.863,-173.952"/>
<polygon fill="midnightblue" stroke="midnightblue" points="83.5557,-118.699 73.8042,-114.557 78.8441,-123.876 83.5557,-118.699"/>
</g>
<!-- Node5 -->
<g id="node5" class="node"><title>Node5</title>
<g id="a_node5"><a xlink:href="../../db/daa/classKalmanDSTrk.html#adf4981f081f2606bf3412851eaa62eb0" target="_top" xlink:title="KalmanDSTrk::buildGlobal\lTracks">
<polygon fill="none" stroke="black" points="533,-87.9477 533,-117.948 663,-117.948 663,-87.9477 533,-87.9477"/>
<text text-anchor="start" x="541" y="-105.948" font-family="FreeSans" font-size="10.00">KalmanDSTrk::buildGlobal</text>
<text text-anchor="middle" x="598" y="-94.9477" font-family="FreeSans" font-size="10.00">Tracks</text>
</a>
</g>
</g>
<!-- Node1&#45;&gt;Node5 -->
<g id="edge4" class="edge"><title>Node1&#45;&gt;Node5</title>
<path fill="none" stroke="midnightblue" d="M135.93,-102.494C144.711,-102.269 153.559,-102.077 162,-101.948 293.769,-99.9313 448.015,-101.128 532.872,-102.095"/>
<polygon fill="midnightblue" stroke="midnightblue" points="135.582,-99.0017 125.681,-102.772 135.772,-105.999 135.582,-99.0017"/>
</g>
<!-- Node6 -->
<g id="node6" class="node"><title>Node6</title>
<g id="a_node6"><a xlink:href="../../db/daa/classKalmanDSTrk.html#ab77ac8dc274c5df2658d12c96494d29e" target="_top" xlink:title="Tracklet finding stuff. ">
<polygon fill="none" stroke="black" points="341,-23.9477 341,-53.9477 483,-53.9477 483,-23.9477 341,-23.9477"/>
<text text-anchor="start" x="349" y="-41.9477" font-family="FreeSans" font-size="10.00">KalmanDSTrk::buildTracklets</text>
<text text-anchor="middle" x="412" y="-30.9477" font-family="FreeSans" font-size="10.00">InStation</text>
</a>
</g>
</g>
<!-- Node1&#45;&gt;Node6 -->
<g id="edge6" class="edge"><title>Node1&#45;&gt;Node6</title>
<path fill="none" stroke="midnightblue" d="M76.393,-87.1384C92.9491,-65.0866 124.581,-28.6416 162,-13.9477 231.557,13.3668 320.049,-7.30797 370.634,-23.8166"/>
<polygon fill="midnightblue" stroke="midnightblue" points="73.4808,-85.1921 70.4326,-95.339 79.1432,-89.3077 73.4808,-85.1921"/>
</g>
<!-- Node7 -->
<g id="node7" class="node"><title>Node7</title>
<g id="a_node7"><a xlink:href="../../db/daa/classKalmanDSTrk.html#a3f6e88dab44e27eebd46211c27a144ec" target="_top" xlink:title="KalmanDSTrk::removeBadHits">
<polygon fill="none" stroke="black" points="338.5,-149.448 338.5,-168.448 485.5,-168.448 485.5,-149.448 338.5,-149.448"/>
<text text-anchor="middle" x="412" y="-156.448" font-family="FreeSans" font-size="10.00">KalmanDSTrk::removeBadHits</text>
</a>
</g>
</g>
<!-- Node1&#45;&gt;Node7 -->
<g id="edge9" class="edge"><title>Node1&#45;&gt;Node7</title>
<path fill="none" stroke="midnightblue" d="M87.9154,-119.561C107.158,-130.466 135.3,-144.541 162,-150.948 220.145,-164.899 288.108,-166.115 338.327,-164.282"/>
<polygon fill="midnightblue" stroke="midnightblue" points="89.6334,-116.511 79.2294,-114.51 86.1145,-122.562 89.6334,-116.511"/>
</g>
<!-- Node8 -->
<g id="node8" class="node"><title>Node8</title>
<g id="a_node8"><a xlink:href="../../db/daa/classKalmanDSTrk.html#aaeca9d42cf00a9eec5c106f44bab986c" target="_top" xlink:title="KalmanDSTrk::resolveLeft\lRight">
<polygon fill="none" stroke="black" points="168,-23.9477 168,-53.9477 296,-53.9477 296,-23.9477 168,-23.9477"/>
<text text-anchor="start" x="176" y="-41.9477" font-family="FreeSans" font-size="10.00">KalmanDSTrk::resolveLeft</text>
<text text-anchor="middle" x="232" y="-30.9477" font-family="FreeSans" font-size="10.00">Right</text>
</a>
</g>
</g>
<!-- Node1&#45;&gt;Node8 -->
<g id="edge12" class="edge"><title>Node1&#45;&gt;Node8</title>
<path fill="none" stroke="midnightblue" d="M97.867,-91.5631C125.373,-80.6924 164.158,-65.3642 192.774,-54.0548"/>
<polygon fill="midnightblue" stroke="midnightblue" points="96.2969,-88.4201 88.2832,-95.3507 98.8697,-94.9302 96.2969,-88.4201"/>
</g>
<!-- Node9 -->
<g id="node9" class="node"><title>Node9</title>
<g id="a_node9"><a xlink:href="../../db/daa/classKalmanDSTrk.html#a21fe29527e13bd2493781fc87c8c3a61" target="_top" xlink:title="KalmanDSTrk::resolveSingle\lLeftRight">
<polygon fill="none" stroke="black" points="162.5,-111.948 162.5,-141.948 301.5,-141.948 301.5,-111.948 162.5,-111.948"/>
<text text-anchor="start" x="170.5" y="-129.948" font-family="FreeSans" font-size="10.00">KalmanDSTrk::resolveSingle</text>
<text text-anchor="middle" x="232" y="-118.948" font-family="FreeSans" font-size="10.00">LeftRight</text>
</a>
</g>
</g>
<!-- Node1&#45;&gt;Node9 -->
<g id="edge13" class="edge"><title>Node1&#45;&gt;Node9</title>
<path fill="none" stroke="midnightblue" d="M135.872,-114.416C144.616,-115.568 153.534,-116.743 162.231,-117.888"/>
<polygon fill="midnightblue" stroke="midnightblue" points="136.082,-110.913 125.71,-113.077 135.167,-117.853 136.082,-110.913"/>
</g>
<!-- Node3 -->
<g id="node3" class="node"><title>Node3</title>
<g id="a_node3"><a xlink:href="../../db/daa/classKalmanDSTrk.html#a58ceb0cdcf685588b2a543d7a9c2bf9d" target="_top" xlink:title="KalmanDSTrk::setRawEvent\lWorker">
<polygon fill="none" stroke="black" points="710.5,-87.9477 710.5,-117.948 847.5,-117.948 847.5,-87.9477 710.5,-87.9477"/>
<text text-anchor="start" x="718.5" y="-105.948" font-family="FreeSans" font-size="10.00">KalmanDSTrk::setRawEvent</text>
<text text-anchor="middle" x="779" y="-94.9477" font-family="FreeSans" font-size="10.00">Worker</text>
</a>
</g>
</g>
<!-- Node2&#45;&gt;Node3 -->
<g id="edge2" class="edge"><title>Node2&#45;&gt;Node3</title>
<path fill="none" stroke="midnightblue" d="M656.536,-140.948C680.205,-133.543 707.309,-125.063 729.899,-117.996"/>
<polygon fill="midnightblue" stroke="midnightblue" points="655.468,-137.614 646.969,-143.941 657.558,-144.295 655.468,-137.614"/>
</g>
<!-- Node4 -->
<g id="node4" class="node"><title>Node4</title>
<g id="a_node4"><a xlink:href="../../db/daa/classKalmanDSTrk.html#a67f1b61fbc3fbba52e10f4b06d4f8794" target="_top" xlink:title="KalmanDSTrk::setRawEvent">
<polygon fill="none" stroke="black" points="884.5,-93.4477 884.5,-112.448 1021.5,-112.448 1021.5,-93.4477 884.5,-93.4477"/>
<text text-anchor="middle" x="953" y="-100.448" font-family="FreeSans" font-size="10.00">KalmanDSTrk::setRawEvent</text>
</a>
</g>
</g>
<!-- Node3&#45;&gt;Node4 -->
<g id="edge3" class="edge"><title>Node3&#45;&gt;Node4</title>
<path fill="none" stroke="midnightblue" d="M858.134,-102.948C866.846,-102.948 875.666,-102.948 884.233,-102.948"/>
<polygon fill="midnightblue" stroke="midnightblue" points="857.979,-99.4478 847.979,-102.948 857.979,-106.448 857.979,-99.4478"/>
</g>
<!-- Node5&#45;&gt;Node3 -->
<g id="edge5" class="edge"><title>Node5&#45;&gt;Node3</title>
<path fill="none" stroke="midnightblue" d="M673.325,-102.948C685.611,-102.948 698.291,-102.948 710.401,-102.948"/>
<polygon fill="midnightblue" stroke="midnightblue" points="673.118,-99.4478 663.118,-102.948 673.117,-106.448 673.118,-99.4478"/>
</g>
<!-- Node6&#45;&gt;Node5 -->
<g id="edge7" class="edge"><title>Node6&#45;&gt;Node5</title>
<path fill="none" stroke="midnightblue" d="M465.741,-57.2923C493.646,-66.9985 527.483,-78.7678 553.812,-87.9258"/>
<polygon fill="midnightblue" stroke="midnightblue" points="466.735,-53.9323 456.14,-53.9528 464.435,-60.5438 466.735,-53.9323"/>
</g>
<!-- Node6&#45;&gt;Node3 -->
<g id="edge8" class="edge"><title>Node6&#45;&gt;Node3</title>
<path fill="none" stroke="midnightblue" d="M493.199,-49.081C544.987,-56.0799 613.709,-66.2199 674,-77.9477 688.765,-80.8197 704.598,-84.3771 719.345,-87.8986"/>
<polygon fill="midnightblue" stroke="midnightblue" points="493.451,-45.5835 483.075,-47.7235 492.521,-52.5215 493.451,-45.5835"/>
</g>
<!-- Node7&#45;&gt;Node2 -->
<g id="edge10" class="edge"><title>Node7&#45;&gt;Node2</title>
<path fill="none" stroke="midnightblue" d="M495.81,-158.948C504.463,-158.948 513.225,-158.948 521.787,-158.948"/>
<polygon fill="midnightblue" stroke="midnightblue" points="495.722,-155.448 485.722,-158.948 495.722,-162.448 495.722,-155.448"/>
</g>
<!-- Node7&#45;&gt;Node5 -->
<g id="edge11" class="edge"><title>Node7&#45;&gt;Node5</title>
<path fill="none" stroke="midnightblue" d="M454.361,-146.36C481.934,-137.968 518.323,-126.893 547.445,-118.03"/>
<polygon fill="midnightblue" stroke="midnightblue" points="453.178,-143.061 444.631,-149.321 455.217,-149.758 453.178,-143.061"/>
</g>
<!-- Node9&#45;&gt;Node5 -->
<g id="edge14" class="edge"><title>Node9&#45;&gt;Node5</title>
<path fill="none" stroke="midnightblue" d="M312.269,-121.721C378.411,-117.36 471.471,-111.224 532.964,-107.17"/>
<polygon fill="midnightblue" stroke="midnightblue" points="311.642,-118.255 301.894,-122.405 312.102,-125.24 311.642,-118.255"/>
</g>
<!-- Node9&#45;&gt;Node7 -->
<g id="edge15" class="edge"><title>Node9&#45;&gt;Node7</title>
<path fill="none" stroke="midnightblue" d="M311.751,-141.105C327.377,-143.914 343.43,-146.8 357.949,-149.41"/>
<polygon fill="midnightblue" stroke="midnightblue" points="312.026,-137.599 301.565,-139.274 310.788,-144.488 312.026,-137.599"/>
</g>
</g>
</svg>
