<?xml version="1.0" encoding="UTF-8" standalone="no"?>
<!DOCTYPE svg PUBLIC "-//W3C//DTD SVG 1.1//EN"
 "http://www.w3.org/Graphics/SVG/1.1/DTD/svg11.dtd">
<!-- Generated by graphviz version 2.44.0 (0)
 -->
<!-- Title: KalmanDSTrk::muonID_search Pages: 1 -->
<svg width="780pt" height="338pt"
 viewBox="0.00 0.00 780.00 338.00" xmlns="http://www.w3.org/2000/svg" xmlns:xlink="http://www.w3.org/1999/xlink">
<g id="graph0" class="graph" transform="scale(1 1) rotate(0) translate(4 334)">
<title>KalmanDSTrk::muonID_search</title>
<!-- Node1 -->
<g id="node1" class="node">
<title>Node1</title>
<g id="a_node1"><a xlink:title=" ">
<polygon fill="#bfbfbf" stroke="black" points="0,-115 0,-145 126,-145 126,-115 0,-115"/>
<text text-anchor="start" x="8" y="-133" font-family="FreeSans" font-size="10.00">KalmanDSTrk::muonID</text>
<text text-anchor="middle" x="63" y="-122" font-family="FreeSans" font-size="10.00">_search</text>
</a>
</g>
</g>
<!-- Node2 -->
<g id="node2" class="node">
<title>Node2</title>
<g id="a_node2"><a xlink:href="../../d0/d1e/classPropSegment.html#a50efd15badce32c007c6e1178b2ce977" target="_top" xlink:title=" ">
<polygon fill="none" stroke="black" points="181.5,-256.5 181.5,-275.5 279.5,-275.5 279.5,-256.5 181.5,-256.5"/>
<text text-anchor="middle" x="230.5" y="-263.5" font-family="FreeSans" font-size="10.00">PropSegment::fit</text>
</a>
</g>
</g>
<!-- Node1&#45;&gt;Node2 -->
<g id="edge1" class="edge">
<title>Node1&#45;&gt;Node2</title>
<path fill="none" stroke="midnightblue" d="M77.3,-145.12C95.29,-165.07 128.95,-200.61 162,-226 174.31,-235.46 189.04,-244.42 201.59,-251.45"/>
<polygon fill="midnightblue" stroke="midnightblue" points="200.23,-254.7 210.68,-256.44 203.59,-248.56 200.23,-254.7"/>
</g>
<!-- Node9 -->
<g id="node9" class="node">
<title>Node9</title>
<g id="a_node9"><a xlink:href="../../d2/d26/classTracklet.html#a9334731bb035e662e55c0d2c93f8fc50" target="_top" xlink:title=" ">
<polygon fill="none" stroke="black" points="336,-196.5 336,-215.5 476,-215.5 476,-196.5 336,-196.5"/>
<text text-anchor="middle" x="406" y="-203.5" font-family="FreeSans" font-size="10.00">Tracklet::getExpPositionX</text>
</a>
</g>
</g>
<!-- Node1&#45;&gt;Node9 -->
<g id="edge8" class="edge">
<title>Node1&#45;&gt;Node9</title>
<path fill="none" stroke="midnightblue" d="M91.91,-145.16C111.08,-154.91 137.42,-167.03 162,-174 215.5,-189.18 277.72,-197.2 325.8,-201.42"/>
<polygon fill="midnightblue" stroke="midnightblue" points="325.58,-204.91 335.84,-202.26 326.16,-197.94 325.58,-204.91"/>
</g>
<!-- Node11 -->
<g id="node11" class="node">
<title>Node11</title>
<g id="a_node11"><a xlink:href="../../d2/d26/classTracklet.html#a131913e324e5e645a4206910e7940415" target="_top" xlink:title=" ">
<polygon fill="none" stroke="black" points="336,-158.5 336,-177.5 476,-177.5 476,-158.5 336,-158.5"/>
<text text-anchor="middle" x="406" y="-165.5" font-family="FreeSans" font-size="10.00">Tracklet::getExpPositionY</text>
</a>
</g>
</g>
<!-- Node1&#45;&gt;Node11 -->
<g id="edge10" class="edge">
<title>Node1&#45;&gt;Node11</title>
<path fill="none" stroke="midnightblue" d="M114.98,-145.02C130,-148.9 146.55,-152.64 162,-155 216.18,-163.28 277.85,-166.5 325.51,-167.67"/>
<polygon fill="midnightblue" stroke="midnightblue" points="325.69,-171.18 335.76,-167.9 325.84,-164.18 325.69,-171.18"/>
</g>
<!-- Node12 -->
<g id="node12" class="node">
<title>Node12</title>
<g id="a_node12"><a xlink:href="../../d0/d1e/classPropSegment.html#ad8797756258f7ed1eabb98fe5c94f4a7" target="_top" xlink:title=" ">
<polygon fill="none" stroke="black" points="162,-76.5 162,-95.5 299,-95.5 299,-76.5 162,-76.5"/>
<text text-anchor="middle" x="230.5" y="-83.5" font-family="FreeSans" font-size="10.00">PropSegment::getPosRef</text>
</a>
</g>
</g>
<!-- Node1&#45;&gt;Node12 -->
<g id="edge11" class="edge">
<title>Node1&#45;&gt;Node12</title>
<path fill="none" stroke="midnightblue" d="M120.49,-114.98C141.07,-109.51 164.05,-103.4 183.6,-98.2"/>
<polygon fill="midnightblue" stroke="midnightblue" points="184.71,-101.53 193.47,-95.58 182.91,-94.77 184.71,-101.53"/>
</g>
<!-- Node13 -->
<g id="node13" class="node">
<title>Node13</title>
<g id="a_node13"><a xlink:href="../../d0/d1e/classPropSegment.html#aa982f265d5ce4efbe42e5dbaabd0a559" target="_top" xlink:title=" ">
<polygon fill="none" stroke="black" points="178.5,-38.5 178.5,-57.5 282.5,-57.5 282.5,-38.5 178.5,-38.5"/>
<text text-anchor="middle" x="230.5" y="-45.5" font-family="FreeSans" font-size="10.00">PropSegment::init</text>
</a>
</g>
</g>
<!-- Node1&#45;&gt;Node13 -->
<g id="edge12" class="edge">
<title>Node1&#45;&gt;Node13</title>
<path fill="none" stroke="midnightblue" d="M83.64,-114.87C102.74,-100.77 133.04,-80.03 162,-67 167.26,-64.63 172.89,-62.49 178.57,-60.57"/>
<polygon fill="midnightblue" stroke="midnightblue" points="179.64,-63.9 188.12,-57.55 177.53,-57.23 179.64,-63.9"/>
</g>
<!-- Node14 -->
<g id="node14" class="node">
<title>Node14</title>
<g id="a_node14"><a xlink:href="../../d0/da0/classGeomSvc.html#aeb39d8892e1abc38eaf32608b0db0a20" target="_top" xlink:title="See if a point is in a plane.">
<polygon fill="none" stroke="black" points="174,-0.5 174,-19.5 287,-19.5 287,-0.5 174,-0.5"/>
<text text-anchor="middle" x="230.5" y="-7.5" font-family="FreeSans" font-size="10.00">GeomSvc::isInPlane</text>
</a>
</g>
</g>
<!-- Node1&#45;&gt;Node14 -->
<g id="edge13" class="edge">
<title>Node1&#45;&gt;Node14</title>
<path fill="none" stroke="midnightblue" d="M74.52,-114.9C90.75,-92.75 124.01,-51.64 162,-29 165.65,-26.83 169.55,-24.89 173.58,-23.17"/>
<polygon fill="midnightblue" stroke="midnightblue" points="175.03,-26.37 183.13,-19.54 172.54,-19.82 175.03,-26.37"/>
</g>
<!-- Node15 -->
<g id="node15" class="node">
<title>Node15</title>
<g id="a_node15"><a xlink:href="../../db/daa/classKalmanDSTrk.html#a4b3c56c9abbdcc00ab0c79205b9aa82b" target="_top" xlink:title=" ">
<polygon fill="none" stroke="black" points="167.5,-115 167.5,-145 293.5,-145 293.5,-115 167.5,-115"/>
<text text-anchor="start" x="175.5" y="-133" font-family="FreeSans" font-size="10.00">KalmanDSTrk::muonID</text>
<text text-anchor="middle" x="230.5" y="-122" font-family="FreeSans" font-size="10.00">_hodoAid</text>
</a>
</g>
</g>
<!-- Node1&#45;&gt;Node15 -->
<g id="edge14" class="edge">
<title>Node1&#45;&gt;Node15</title>
<path fill="none" stroke="midnightblue" d="M126.1,-130C136.21,-130 146.76,-130 157.09,-130"/>
<polygon fill="midnightblue" stroke="midnightblue" points="157.33,-133.5 167.33,-130 157.33,-126.5 157.33,-133.5"/>
</g>
<!-- Node3 -->
<g id="node3" class="node">
<title>Node3</title>
<g id="a_node3"><a xlink:href="../../d0/d1e/classPropSegment.html#ad850340623d574dc60447e572794b798" target="_top" xlink:title=" ">
<polygon fill="none" stroke="black" points="342.5,-310.5 342.5,-329.5 469.5,-329.5 469.5,-310.5 342.5,-310.5"/>
<text text-anchor="middle" x="406" y="-317.5" font-family="FreeSans" font-size="10.00">PropSegment::fit_2hits</text>
</a>
</g>
</g>
<!-- Node2&#45;&gt;Node3 -->
<g id="edge2" class="edge">
<title>Node2&#45;&gt;Node3</title>
<path fill="none" stroke="midnightblue" d="M258.16,-275.52C278.98,-282.82 308.69,-292.99 335,-301 342.54,-303.3 350.57,-305.6 358.41,-307.78"/>
<polygon fill="midnightblue" stroke="midnightblue" points="357.62,-311.19 368.19,-310.46 359.47,-304.44 357.62,-311.19"/>
</g>
<!-- Node4 -->
<g id="node4" class="node">
<title>Node4</title>
<g id="a_node4"><a xlink:href="../../d0/d1e/classPropSegment.html#aca28cdf1a12ff0d4a0c58a5fbd595dff" target="_top" xlink:title=" ">
<polygon fill="none" stroke="black" points="339.5,-272.5 339.5,-291.5 472.5,-291.5 472.5,-272.5 339.5,-272.5"/>
<text text-anchor="middle" x="406" y="-279.5" font-family="FreeSans" font-size="10.00">PropSegment::fit_34hits</text>
</a>
</g>
</g>
<!-- Node2&#45;&gt;Node4 -->
<g id="edge3" class="edge">
<title>Node2&#45;&gt;Node4</title>
<path fill="none" stroke="midnightblue" d="M279.83,-270.46C295.11,-271.87 312.38,-273.46 329.1,-275"/>
<polygon fill="midnightblue" stroke="midnightblue" points="329.14,-278.52 339.42,-275.95 329.79,-271.55 329.14,-278.52"/>
</g>
<!-- Node8 -->
<g id="node8" class="node">
<title>Node8</title>
<g id="a_node8"><a xlink:href="../../d0/d1e/classPropSegment.html#a96a7957483b26109c869b04e574e1b34" target="_top" xlink:title=" ">
<polygon fill="none" stroke="black" points="340.5,-234.5 340.5,-253.5 471.5,-253.5 471.5,-234.5 340.5,-234.5"/>
<text text-anchor="middle" x="406" y="-241.5" font-family="FreeSans" font-size="10.00">PropSegment::getNHits</text>
</a>
</g>
</g>
<!-- Node2&#45;&gt;Node8 -->
<g id="edge7" class="edge">
<title>Node2&#45;&gt;Node8</title>
<path fill="none" stroke="midnightblue" d="M279.83,-259.87C295.5,-257.88 313.27,-255.63 330.4,-253.46"/>
<polygon fill="midnightblue" stroke="midnightblue" points="330.91,-256.92 340.39,-252.19 330.03,-249.98 330.91,-256.92"/>
</g>
<!-- Node5 -->
<g id="node5" class="node">
<title>Node5</title>
<g id="a_node5"><a xlink:href="../../d0/d1e/classPropSegment.html#aff06825f6828f0eb58be0ea6ae8ec805" target="_top" xlink:title=" ">
<polygon fill="none" stroke="black" points="517,-251 517,-281 645,-281 645,-251 517,-251"/>
<text text-anchor="start" x="525" y="-269" font-family="FreeSans" font-size="10.00">PropSegment::linearFit</text>
<text text-anchor="middle" x="581" y="-258" font-family="FreeSans" font-size="10.00">_simple</text>
</a>
</g>
</g>
<!-- Node4&#45;&gt;Node5 -->
<g id="edge4" class="edge">
<title>Node4&#45;&gt;Node5</title>
<path fill="none" stroke="midnightblue" d="M472.9,-275.91C483.94,-274.88 495.45,-273.82 506.66,-272.78"/>
<polygon fill="midnightblue" stroke="midnightblue" points="507.22,-276.25 516.85,-271.84 506.57,-269.28 507.22,-276.25"/>
</g>
<!-- Node7 -->
<g id="node7" class="node">
<title>Node7</title>
<g id="a_node7"><a xlink:href="../../d0/d1e/classPropSegment.html#a81e4f482e41368e5d21508ec8f4a765f" target="_top" xlink:title=" ">
<polygon fill="none" stroke="black" points="513,-300.5 513,-319.5 649,-319.5 649,-300.5 513,-300.5"/>
<text text-anchor="middle" x="581" y="-307.5" font-family="FreeSans" font-size="10.00">PropSegment::resolveLR</text>
</a>
</g>
</g>
<!-- Node4&#45;&gt;Node7 -->
<g id="edge6" class="edge">
<title>Node4&#45;&gt;Node7</title>
<path fill="none" stroke="midnightblue" d="M466.05,-291.56C480.53,-293.9 496.15,-296.43 511.04,-298.84"/>
<polygon fill="midnightblue" stroke="midnightblue" points="510.78,-302.34 521.21,-300.49 511.9,-295.43 510.78,-302.34"/>
</g>
<!-- Node6 -->
<g id="node6" class="node">
<title>Node6</title>
<g id="a_node6"><a xlink:href="../../de/d45/classSignedHit.html#aa752a613465f50fc640689c0b3eb99b5" target="_top" xlink:title=" ">
<polygon fill="none" stroke="black" points="685,-256.5 685,-275.5 772,-275.5 772,-256.5 685,-256.5"/>
<text text-anchor="middle" x="728.5" y="-263.5" font-family="FreeSans" font-size="10.00">SignedHit::pos</text>
</a>
</g>
</g>
<!-- Node5&#45;&gt;Node6 -->
<g id="edge5" class="edge">
<title>Node5&#45;&gt;Node6</title>
<path fill="none" stroke="midnightblue" d="M645.4,-266C655.18,-266 665.2,-266 674.72,-266"/>
<polygon fill="midnightblue" stroke="midnightblue" points="674.82,-269.5 684.82,-266 674.82,-262.5 674.82,-269.5"/>
</g>
<!-- Node10 -->
<g id="node10" class="node">
<title>Node10</title>
<g id="a_node10"><a xlink:href="../../d2/d26/classTracklet.html#af124b9fc16030623b9bd6f009666f75e" target="_top" xlink:title="Return the charge (+1 or &#45;1) of this tracklet.">
<polygon fill="none" stroke="black" points="525.5,-196.5 525.5,-215.5 636.5,-215.5 636.5,-196.5 525.5,-196.5"/>
<text text-anchor="middle" x="581" y="-203.5" font-family="FreeSans" font-size="10.00">Tracklet::getCharge</text>
</a>
</g>
</g>
<!-- Node9&#45;&gt;Node10 -->
<g id="edge9" class="edge">
<title>Node9&#45;&gt;Node10</title>
<path fill="none" stroke="midnightblue" d="M476.37,-206C489.2,-206 502.56,-206 515.25,-206"/>
<polygon fill="midnightblue" stroke="midnightblue" points="515.26,-209.5 525.26,-206 515.26,-202.5 515.26,-209.5"/>
</g>
<!-- Node15&#45;&gt;Node9 -->
<g id="edge17" class="edge">
<title>Node15&#45;&gt;Node9</title>
<path fill="none" stroke="midnightblue" d="M254.96,-145.04C275.43,-157.64 306.28,-175.39 335,-187 340.9,-189.39 347.2,-191.57 353.51,-193.54"/>
<polygon fill="midnightblue" stroke="midnightblue" points="352.79,-196.98 363.37,-196.45 354.78,-190.26 352.79,-196.98"/>
</g>
<!-- Node15&#45;&gt;Node11 -->
<g id="edge18" class="edge">
<title>Node15&#45;&gt;Node11</title>
<path fill="none" stroke="midnightblue" d="M293.65,-143.61C312.6,-147.76 333.26,-152.29 351.58,-156.3"/>
<polygon fill="midnightblue" stroke="midnightblue" points="350.97,-159.75 361.49,-158.47 352.47,-152.91 350.97,-159.75"/>
</g>
<!-- Node16 -->
<g id="node16" class="node">
<title>Node16</title>
<g id="a_node16"><a xlink:href="../../d2/d26/classTracklet.html#a672c114e05b44101e47908de910d836a" target="_top" xlink:title=" ">
<polygon fill="none" stroke="black" points="335,-82.5 335,-101.5 477,-101.5 477,-82.5 335,-82.5"/>
<text text-anchor="middle" x="406" y="-89.5" font-family="FreeSans" font-size="10.00">Tracklet::getExpPosErrorX</text>
</a>
</g>
</g>
<!-- Node15&#45;&gt;Node16 -->
<g id="edge15" class="edge">
<title>Node15&#45;&gt;Node16</title>
<path fill="none" stroke="midnightblue" d="M293.65,-116.39C312.6,-112.24 333.26,-107.71 351.58,-103.7"/>
<polygon fill="midnightblue" stroke="midnightblue" points="352.47,-107.09 361.49,-101.53 350.97,-100.25 352.47,-107.09"/>
</g>
<!-- Node17 -->
<g id="node17" class="node">
<title>Node17</title>
<g id="a_node17"><a xlink:href="../../d2/d26/classTracklet.html#a55d048e8a3aef698d8720f3f5d9f46d3" target="_top" xlink:title=" ">
<polygon fill="none" stroke="black" points="335.5,-120.5 335.5,-139.5 476.5,-139.5 476.5,-120.5 335.5,-120.5"/>
<text text-anchor="middle" x="406" y="-127.5" font-family="FreeSans" font-size="10.00">Tracklet::getExpPosErrorY</text>
</a>
</g>
</g>
<!-- Node15&#45;&gt;Node17 -->
<g id="edge16" class="edge">
<title>Node15&#45;&gt;Node17</title>
<path fill="none" stroke="midnightblue" d="M293.65,-130C303.89,-130 314.63,-130 325.23,-130"/>
<polygon fill="midnightblue" stroke="midnightblue" points="325.33,-133.5 335.33,-130 325.33,-126.5 325.33,-133.5"/>
</g>
</g>
</svg>
