<?xml version="1.0" encoding="UTF-8" standalone="no"?>
<!DOCTYPE svg PUBLIC "-//W3C//DTD SVG 1.1//EN"
 "http://www.w3.org/Graphics/SVG/1.1/DTD/svg11.dtd">
<!-- Generated by graphviz version 2.36.0 (20140111.2315)
 -->
<!-- Title: /home/yuhw/GitHub/SeaQuest/seaquest&#45;offline/simulation/g4main/PHG4Shower.cc Pages: 1 -->
<svg width="405pt" height="218pt"
 viewBox="0.00 0.00 405.00 218.00" xmlns="http://www.w3.org/2000/svg" xmlns:xlink="http://www.w3.org/1999/xlink">
<g id="graph0" class="graph" transform="scale(1 1) rotate(0) translate(4 214)">
<title>/home/yuhw/GitHub/SeaQuest/seaquest&#45;offline/simulation/g4main/PHG4Shower.cc</title>
<!-- Node1 -->
<g id="node1" class="node"><title>Node1</title>
<polygon fill="#bfbfbf" stroke="black" points="235.5,-168.5 235.5,-209.5 384.5,-209.5 384.5,-168.5 235.5,-168.5"/>
<text text-anchor="start" x="243.5" y="-197.5" font-family="FreeSans" font-size="10.00">/home/yuhw/GitHub/SeaQuest</text>
<text text-anchor="start" x="243.5" y="-186.5" font-family="FreeSans" font-size="10.00">/seaquest&#45;offline/simulation</text>
<text text-anchor="middle" x="310" y="-175.5" font-family="FreeSans" font-size="10.00">/g4main/PHG4Shower.cc</text>
</g>
<!-- Node2 -->
<g id="node2" class="node"><title>Node2</title>
<g id="a_node2"><a xlink:href="../../d1/dc0/PHG4Shower_8h.html" target="_top" xlink:title="PHG4Shower.h">
<polygon fill="none" stroke="black" points="224,-112.5 224,-131.5 308,-131.5 308,-112.5 224,-112.5"/>
<text text-anchor="middle" x="266" y="-119.5" font-family="FreeSans" font-size="10.00">PHG4Shower.h</text>
</a>
</g>
</g>
<!-- Node1&#45;&gt;Node2 -->
<g id="edge1" class="edge"><title>Node1&#45;&gt;Node2</title>
<path fill="none" stroke="midnightblue" d="M296.799,-168.498C290.701,-159.49 283.524,-148.888 277.633,-140.185"/>
<polygon fill="midnightblue" stroke="midnightblue" points="280.361,-137.972 271.857,-131.652 274.564,-141.896 280.361,-137.972"/>
</g>
<!-- Node8 -->
<g id="node8" class="node"><title>Node8</title>
<polygon fill="none" stroke="#bfbfbf" points="353,-56.5 353,-75.5 397,-75.5 397,-56.5 353,-56.5"/>
<text text-anchor="middle" x="375" y="-63.5" font-family="FreeSans" font-size="10.00">cmath</text>
</g>
<!-- Node1&#45;&gt;Node8 -->
<g id="edge11" class="edge"><title>Node1&#45;&gt;Node8</title>
<path fill="none" stroke="midnightblue" d="M320.588,-168.29C333.066,-145.061 353.612,-106.815 365.566,-84.5624"/>
<polygon fill="midnightblue" stroke="midnightblue" points="368.745,-86.0405 370.394,-75.5748 362.578,-82.7279 368.745,-86.0405"/>
</g>
<!-- Node3 -->
<g id="node3" class="node"><title>Node3</title>
<g id="a_node3"><a xlink:href="../../d2/d92/PHG4HitDefs_8h.html" target="_top" xlink:title="PHG4HitDefs.h">
<polygon fill="none" stroke="black" points="0,-56.5 0,-75.5 84,-75.5 84,-56.5 0,-56.5"/>
<text text-anchor="middle" x="42" y="-63.5" font-family="FreeSans" font-size="10.00">PHG4HitDefs.h</text>
</a>
</g>
</g>
<!-- Node2&#45;&gt;Node3 -->
<g id="edge2" class="edge"><title>Node2&#45;&gt;Node3</title>
<path fill="none" stroke="midnightblue" d="M230.507,-112.444C191.676,-103.083 129.344,-88.0561 87.0821,-77.868"/>
<polygon fill="midnightblue" stroke="midnightblue" points="87.8692,-74.4576 77.3274,-75.5164 86.2286,-81.2626 87.8692,-74.4576"/>
</g>
<!-- Node5 -->
<g id="node5" class="node"><title>Node5</title>
<g id="a_node5"><a xlink:href="../../df/d32/PHObject_8h.html" target="_top" xlink:title="phool/PHObject.h">
<polygon fill="none" stroke="black" points="101.5,-56.5 101.5,-75.5 194.5,-75.5 194.5,-56.5 101.5,-56.5"/>
<text text-anchor="middle" x="148" y="-63.5" font-family="FreeSans" font-size="10.00">phool/PHObject.h</text>
</a>
</g>
</g>
<!-- Node2&#45;&gt;Node5 -->
<g id="edge4" class="edge"><title>Node2&#45;&gt;Node5</title>
<path fill="none" stroke="midnightblue" d="M247.303,-112.444C228.056,-103.636 197.848,-89.8116 175.8,-79.722"/>
<polygon fill="midnightblue" stroke="midnightblue" points="177.16,-76.4951 166.61,-75.5164 174.247,-82.8603 177.16,-76.4951"/>
</g>
<!-- Node7 -->
<g id="node7" class="node"><title>Node7</title>
<polygon fill="none" stroke="#bfbfbf" points="196,-0.5 196,-19.5 250,-19.5 250,-0.5 196,-0.5"/>
<text text-anchor="middle" x="223" y="-7.5" font-family="FreeSans" font-size="10.00">iostream</text>
</g>
<!-- Node2&#45;&gt;Node7 -->
<g id="edge10" class="edge"><title>Node2&#45;&gt;Node7</title>
<path fill="none" stroke="midnightblue" d="M260.663,-112.296C255.387,-103.417 247.349,-89.1181 242,-76 235.758,-60.6906 230.64,-42.5869 227.295,-29.3785"/>
<polygon fill="midnightblue" stroke="midnightblue" points="230.682,-28.4925 224.917,-19.6035 223.88,-30.1476 230.682,-28.4925"/>
</g>
<!-- Node2&#45;&gt;Node8 -->
<g id="edge7" class="edge"><title>Node2&#45;&gt;Node8</title>
<path fill="none" stroke="midnightblue" d="M283.513,-112.324C301.072,-103.625 328.331,-90.1202 348.531,-80.113"/>
<polygon fill="midnightblue" stroke="midnightblue" points="350.124,-83.23 357.531,-75.6545 347.016,-76.9575 350.124,-83.23"/>
</g>
<!-- Node9 -->
<g id="node9" class="node"><title>Node9</title>
<polygon fill="none" stroke="#bfbfbf" points="251,-56.5 251,-75.5 281,-75.5 281,-56.5 251,-56.5"/>
<text text-anchor="middle" x="266" y="-63.5" font-family="FreeSans" font-size="10.00">set</text>
</g>
<!-- Node2&#45;&gt;Node9 -->
<g id="edge8" class="edge"><title>Node2&#45;&gt;Node9</title>
<path fill="none" stroke="midnightblue" d="M266,-112.083C266,-105.006 266,-94.8611 266,-85.9865"/>
<polygon fill="midnightblue" stroke="midnightblue" points="269.5,-85.751 266,-75.7511 262.5,-85.7511 269.5,-85.751"/>
</g>
<!-- Node10 -->
<g id="node10" class="node"><title>Node10</title>
<polygon fill="none" stroke="#bfbfbf" points="299.5,-56.5 299.5,-75.5 334.5,-75.5 334.5,-56.5 299.5,-56.5"/>
<text text-anchor="middle" x="317" y="-63.5" font-family="FreeSans" font-size="10.00">map</text>
</g>
<!-- Node2&#45;&gt;Node10 -->
<g id="edge9" class="edge"><title>Node2&#45;&gt;Node10</title>
<path fill="none" stroke="midnightblue" d="M274.422,-112.083C281.848,-104.22 292.852,-92.5688 301.812,-83.0813"/>
<polygon fill="midnightblue" stroke="midnightblue" points="304.413,-85.4244 308.735,-75.7511 299.324,-80.618 304.413,-85.4244"/>
</g>
<!-- Node4 -->
<g id="node4" class="node"><title>Node4</title>
<polygon fill="none" stroke="#bfbfbf" points="21.5,-0.5 21.5,-19.5 62.5,-19.5 62.5,-0.5 21.5,-0.5"/>
<text text-anchor="middle" x="42" y="-7.5" font-family="FreeSans" font-size="10.00">string</text>
</g>
<!-- Node3&#45;&gt;Node4 -->
<g id="edge3" class="edge"><title>Node3&#45;&gt;Node4</title>
<path fill="none" stroke="midnightblue" d="M42,-56.083C42,-49.0059 42,-38.8611 42,-29.9865"/>
<polygon fill="midnightblue" stroke="midnightblue" points="45.5001,-29.751 42,-19.7511 38.5001,-29.7511 45.5001,-29.751"/>
</g>
<!-- Node6 -->
<g id="node6" class="node"><title>Node6</title>
<polygon fill="none" stroke="#bfbfbf" points="118.5,-0.5 118.5,-19.5 177.5,-19.5 177.5,-0.5 118.5,-0.5"/>
<text text-anchor="middle" x="148" y="-7.5" font-family="FreeSans" font-size="10.00">TObject.h</text>
</g>
<!-- Node5&#45;&gt;Node6 -->
<g id="edge5" class="edge"><title>Node5&#45;&gt;Node6</title>
<path fill="none" stroke="midnightblue" d="M148,-56.083C148,-49.0059 148,-38.8611 148,-29.9865"/>
<polygon fill="midnightblue" stroke="midnightblue" points="151.5,-29.751 148,-19.7511 144.5,-29.7511 151.5,-29.751"/>
</g>
<!-- Node5&#45;&gt;Node7 -->
<g id="edge6" class="edge"><title>Node5&#45;&gt;Node7</title>
<path fill="none" stroke="midnightblue" d="M160.05,-56.324C171.463,-48.1066 188.831,-35.6017 202.435,-25.8069"/>
<polygon fill="midnightblue" stroke="midnightblue" points="204.66,-28.5174 210.731,-19.8339 200.57,-22.8366 204.66,-28.5174"/>
</g>
</g>
</svg>
