<?xml version="1.0" encoding="UTF-8" standalone="no"?>
<!DOCTYPE svg PUBLIC "-//W3C//DTD SVG 1.1//EN"
 "http://www.w3.org/Graphics/SVG/1.1/DTD/svg11.dtd">
<!-- Generated by graphviz version 2.44.0 (0)
 -->
<!-- Title: AnaPileup::InitEvalTree Pages: 1 -->
<svg width="287pt" height="66pt"
 viewBox="0.00 0.00 287.00 66.00" xmlns="http://www.w3.org/2000/svg" xmlns:xlink="http://www.w3.org/1999/xlink">
<g id="graph0" class="graph" transform="scale(1 1) rotate(0) translate(4 62)">
<title>AnaPileup::InitEvalTree</title>
<!-- Node1 -->
<g id="node1" class="node">
<title>Node1</title>
<g id="a_node1"><a xlink:title=" ">
<polygon fill="#bfbfbf" stroke="black" points="0,-19.5 0,-38.5 128,-38.5 128,-19.5 0,-19.5"/>
<text text-anchor="middle" x="64" y="-26.5" font-family="FreeSans" font-size="10.00">AnaPileup::InitEvalTree</text>
</a>
</g>
</g>
<!-- Node2 -->
<g id="node2" class="node">
<title>Node2</title>
<g id="a_node2"><a xlink:href="../../d3/d2b/classPHTFileServer.html#a5a3ed7a2a70cc2e38dbe1cb33afe9c2f" target="_top" xlink:title="return reference to class singleton">
<polygon fill="none" stroke="black" points="168,-38.5 168,-57.5 275,-57.5 275,-38.5 168,-38.5"/>
<text text-anchor="middle" x="221.5" y="-45.5" font-family="FreeSans" font-size="10.00">PHTFileServer::get</text>
</a>
</g>
</g>
<!-- Node1&#45;&gt;Node2 -->
<g id="edge1" class="edge">
<title>Node1&#45;&gt;Node2</title>
<path fill="none" stroke="midnightblue" d="M128.25,-36.73C137.98,-37.92 148.03,-39.15 157.76,-40.33"/>
<polygon fill="midnightblue" stroke="midnightblue" points="157.4,-43.82 167.75,-41.55 158.24,-36.87 157.4,-43.82"/>
</g>
<!-- Node3 -->
<g id="node3" class="node">
<title>Node3</title>
<g id="a_node3"><a xlink:href="../../d3/d2b/classPHTFileServer.html#aaae99c6748eb17d5f8d7df375bc6d615" target="_top" xlink:title="open a SafeTFile. If filename is not found in the map, create a new TFile and append to the map; incr...">
<polygon fill="none" stroke="black" points="164,-0.5 164,-19.5 279,-19.5 279,-0.5 164,-0.5"/>
<text text-anchor="middle" x="221.5" y="-7.5" font-family="FreeSans" font-size="10.00">PHTFileServer::open</text>
</a>
</g>
</g>
<!-- Node1&#45;&gt;Node3 -->
<g id="edge2" class="edge">
<title>Node1&#45;&gt;Node3</title>
<path fill="none" stroke="midnightblue" d="M128.25,-21.27C136.62,-20.25 145.22,-19.2 153.65,-18.17"/>
<polygon fill="midnightblue" stroke="midnightblue" points="154.31,-21.61 163.81,-16.93 153.46,-14.67 154.31,-21.61"/>
</g>
</g>
</svg>
