<?xml version="1.0" encoding="UTF-8" standalone="no"?>
<!DOCTYPE svg PUBLIC "-//W3C//DTD SVG 1.1//EN"
 "http://www.w3.org/Graphics/SVG/1.1/DTD/svg11.dtd">
<!-- Generated by graphviz version 2.30.1 (20180413.0232)
 -->
<!-- Title: PHGenEventv1::particles_size Pages: 1 -->
<svg width="304pt" height="66pt"
 viewBox="0.00 0.00 304.00 66.00" xmlns="http://www.w3.org/2000/svg" xmlns:xlink="http://www.w3.org/1999/xlink">
<g id="graph0" class="graph" transform="scale(1 1) rotate(0) translate(4 62)">
<title>PHGenEventv1::particles_size</title>
<!-- Node1 -->
<g id="node1" class="node"><title>Node1</title>
<polygon fill="#bfbfbf" stroke="black" points="0,-19.5 0,-38.5 144,-38.5 144,-19.5 0,-19.5"/>
<text text-anchor="middle" x="72" y="-26.5" font-family="FreeSans" font-size="10.00">PHGenEventv1::particles_size</text>
</g>
<!-- Node2 -->
<g id="node2" class="node"><title>Node2</title>
<g id="a_node2"><a xlink:href="../../da/d6b/classPHGenEventv1.html#af4a503c6947445916148bd68165f4efc" target="_top" xlink:title="PHGenEventv1::refresh">
<polygon fill="none" stroke="black" points="180,-38.5 180,-57.5 296,-57.5 296,-38.5 180,-38.5"/>
<text text-anchor="middle" x="238" y="-45.5" font-family="FreeSans" font-size="10.00">PHGenEventv1::refresh</text>
</a>
</g>
</g>
<!-- Node1&#45;&gt;Node2 -->
<g id="edge1" class="edge"><title>Node1&#45;&gt;Node2</title>
<path fill="none" stroke="midnightblue" d="M144.456,-37.2784C152.802,-38.2453 161.296,-39.2294 169.584,-40.1896"/>
<polygon fill="midnightblue" stroke="midnightblue" points="169.232,-43.6722 179.569,-41.3464 170.038,-36.7187 169.232,-43.6722"/>
</g>
<!-- Node3 -->
<g id="node3" class="node"><title>Node3</title>
<g id="a_node3"><a xlink:href="../../da/d6b/classPHGenEventv1.html#a5a1d747c83dfdb3cc7bcf4686590a448" target="_top" xlink:title="PHGenEventv1::stale">
<polygon fill="none" stroke="black" points="184.5,-0.5 184.5,-19.5 291.5,-19.5 291.5,-0.5 184.5,-0.5"/>
<text text-anchor="middle" x="238" y="-7.5" font-family="FreeSans" font-size="10.00">PHGenEventv1::stale</text>
</a>
</g>
</g>
<!-- Node1&#45;&gt;Node3 -->
<g id="edge2" class="edge"><title>Node1&#45;&gt;Node3</title>
<path fill="none" stroke="midnightblue" d="M144.456,-20.7216C154.322,-19.5786 164.394,-18.4116 174.09,-17.2883"/>
<polygon fill="midnightblue" stroke="midnightblue" points="174.503,-20.764 184.033,-16.1364 173.697,-13.8106 174.503,-20.764"/>
</g>
</g>
</svg>
