<?xml version="1.0" encoding="UTF-8" standalone="no"?>
<!DOCTYPE svg PUBLIC "-//W3C//DTD SVG 1.1//EN"
 "http://www.w3.org/Graphics/SVG/1.1/DTD/svg11.dtd">
<!-- Generated by graphviz version 2.30.1 (20200930.0103)
 -->
<!-- Title: /dev/shm/kenichi/update&#45;github&#45;e1039&#45;doc/e1039&#45;core/packages/Display/interface/EventDispUI.cxx Pages: 1 -->
<svg width="2054pt" height="286pt"
 viewBox="0.00 0.00 2054.00 286.00" xmlns="http://www.w3.org/2000/svg" xmlns:xlink="http://www.w3.org/1999/xlink">
<g id="graph0" class="graph" transform="scale(1 1) rotate(0) translate(4 282)">
<title>/dev/shm/kenichi/update&#45;github&#45;e1039&#45;doc/e1039&#45;core/packages/Display/interface/EventDispUI.cxx</title>
<!-- Node1 -->
<g id="node1" class="node"><title>Node1</title>
<polygon fill="#bfbfbf" stroke="black" points="1207.5,-225 1207.5,-277 1364.5,-277 1364.5,-225 1207.5,-225"/>
<text text-anchor="start" x="1215.5" y="-265" font-family="FreeSans" font-size="10.00">/dev/shm/kenichi/update</text>
<text text-anchor="start" x="1215.5" y="-254" font-family="FreeSans" font-size="10.00">&#45;github&#45;e1039&#45;doc/e1039</text>
<text text-anchor="start" x="1215.5" y="-243" font-family="FreeSans" font-size="10.00">&#45;core/packages/Display/interface</text>
<text text-anchor="middle" x="1286" y="-232" font-family="FreeSans" font-size="10.00">/EventDispUI.cxx</text>
</g>
<!-- Node2 -->
<g id="node2" class="node"><title>Node2</title>
<polygon fill="none" stroke="#bfbfbf" points="188.5,-56.5 188.5,-75.5 241.5,-75.5 241.5,-56.5 188.5,-56.5"/>
<text text-anchor="middle" x="215" y="-63.5" font-family="FreeSans" font-size="10.00">iostream</text>
</g>
<!-- Node1&#45;&gt;Node2 -->
<g id="edge1" class="edge"><title>Node1&#45;&gt;Node2</title>
<path fill="none" stroke="midnightblue" d="M1207.22,-249.024C1003.84,-245.877 465.14,-233.38 293,-188 238.029,-173.508 208.14,-180.201 178,-132 167.641,-115.434 182.242,-95.8862 196.04,-82.585"/>
<polygon fill="midnightblue" stroke="midnightblue" points="198.777,-84.8316 203.877,-75.545 194.099,-79.6242 198.777,-84.8316"/>
</g>
<!-- Node3 -->
<g id="node3" class="node"><title>Node3</title>
<polygon fill="none" stroke="#bfbfbf" points="1152,-168.5 1152,-187.5 1202,-187.5 1202,-168.5 1152,-168.5"/>
<text text-anchor="middle" x="1177" y="-175.5" font-family="FreeSans" font-size="10.00">sstream</text>
</g>
<!-- Node1&#45;&gt;Node3 -->
<g id="edge2" class="edge"><title>Node1&#45;&gt;Node3</title>
<path fill="none" stroke="midnightblue" d="M1247.57,-224.968C1231.18,-214.291 1212.66,-202.227 1198.7,-193.138"/>
<polygon fill="midnightblue" stroke="midnightblue" points="1200.55,-190.164 1190.26,-187.639 1196.73,-196.03 1200.55,-190.164"/>
</g>
<!-- Node4 -->
<g id="node4" class="node"><title>Node4</title>
<polygon fill="none" stroke="#bfbfbf" points="1220,-168.5 1220,-187.5 1276,-187.5 1276,-168.5 1220,-168.5"/>
<text text-anchor="middle" x="1248" y="-175.5" font-family="FreeSans" font-size="10.00">sys/stat.h</text>
</g>
<!-- Node1&#45;&gt;Node4 -->
<g id="edge3" class="edge"><title>Node1&#45;&gt;Node4</title>
<path fill="none" stroke="midnightblue" d="M1272.5,-224.768C1267.53,-215.486 1262.01,-205.179 1257.47,-196.7"/>
<polygon fill="midnightblue" stroke="midnightblue" points="1260.49,-194.922 1252.69,-187.757 1254.32,-198.225 1260.49,-194.922"/>
</g>
<!-- Node5 -->
<g id="node5" class="node"><title>Node5</title>
<polygon fill="none" stroke="#bfbfbf" points="1294,-168.5 1294,-187.5 1356,-187.5 1356,-168.5 1294,-168.5"/>
<text text-anchor="middle" x="1325" y="-175.5" font-family="FreeSans" font-size="10.00">TSystem.h</text>
</g>
<!-- Node1&#45;&gt;Node5 -->
<g id="edge4" class="edge"><title>Node1&#45;&gt;Node5</title>
<path fill="none" stroke="midnightblue" d="M1299.86,-224.768C1304.96,-215.486 1310.62,-205.179 1315.28,-196.7"/>
<polygon fill="midnightblue" stroke="midnightblue" points="1318.44,-198.207 1320.19,-187.757 1312.31,-194.837 1318.44,-198.207"/>
</g>
<!-- Node6 -->
<g id="node6" class="node"><title>Node6</title>
<polygon fill="none" stroke="#bfbfbf" points="1374,-168.5 1374,-187.5 1420,-187.5 1420,-168.5 1374,-168.5"/>
<text text-anchor="middle" x="1397" y="-175.5" font-family="FreeSans" font-size="10.00">TFile.h</text>
</g>
<!-- Node1&#45;&gt;Node6 -->
<g id="edge5" class="edge"><title>Node1&#45;&gt;Node6</title>
<path fill="none" stroke="midnightblue" d="M1325.13,-224.968C1341.83,-214.291 1360.69,-202.227 1374.9,-193.138"/>
<polygon fill="midnightblue" stroke="midnightblue" points="1376.96,-195.976 1383.49,-187.639 1373.18,-190.079 1376.96,-195.976"/>
</g>
<!-- Node7 -->
<g id="node7" class="node"><title>Node7</title>
<polygon fill="none" stroke="#bfbfbf" points="1438,-168.5 1438,-187.5 1488,-187.5 1488,-168.5 1438,-168.5"/>
<text text-anchor="middle" x="1463" y="-175.5" font-family="FreeSans" font-size="10.00">TTree.h</text>
</g>
<!-- Node1&#45;&gt;Node7 -->
<g id="edge6" class="edge"><title>Node1&#45;&gt;Node7</title>
<path fill="none" stroke="midnightblue" d="M1348.4,-224.968C1376.67,-213.63 1408.83,-200.728 1431.88,-191.485"/>
<polygon fill="midnightblue" stroke="midnightblue" points="1433.49,-194.61 1441.46,-187.639 1430.88,-188.113 1433.49,-194.61"/>
</g>
<!-- Node8 -->
<g id="node8" class="node"><title>Node8</title>
<polygon fill="none" stroke="#bfbfbf" points="1506.5,-168.5 1506.5,-187.5 1589.5,-187.5 1589.5,-168.5 1506.5,-168.5"/>
<text text-anchor="middle" x="1548" y="-175.5" font-family="FreeSans" font-size="10.00">TEveManager.h</text>
</g>
<!-- Node1&#45;&gt;Node8 -->
<g id="edge7" class="edge"><title>Node1&#45;&gt;Node8</title>
<path fill="none" stroke="midnightblue" d="M1364.61,-228.698C1411.38,-216.024 1468.81,-200.46 1506.81,-190.163"/>
<polygon fill="midnightblue" stroke="midnightblue" points="1507.77,-193.528 1516.51,-187.534 1505.94,-186.772 1507.77,-193.528"/>
</g>
<!-- Node9 -->
<g id="node9" class="node"><title>Node9</title>
<polygon fill="none" stroke="#bfbfbf" points="1608,-168.5 1608,-187.5 1688,-187.5 1688,-168.5 1608,-168.5"/>
<text text-anchor="middle" x="1648" y="-175.5" font-family="FreeSans" font-size="10.00">TEveBrowser.h</text>
</g>
<!-- Node1&#45;&gt;Node9 -->
<g id="edge8" class="edge"><title>Node1&#45;&gt;Node9</title>
<path fill="none" stroke="midnightblue" d="M1364.55,-234.594C1435.31,-220.715 1537.23,-200.725 1597.63,-188.879"/>
<polygon fill="midnightblue" stroke="midnightblue" points="1598.54,-192.267 1607.68,-186.908 1597.19,-185.398 1598.54,-192.267"/>
</g>
<!-- Node10 -->
<g id="node10" class="node"><title>Node10</title>
<polygon fill="none" stroke="#bfbfbf" points="1706.5,-168.5 1706.5,-187.5 1771.5,-187.5 1771.5,-168.5 1706.5,-168.5"/>
<text text-anchor="middle" x="1739" y="-175.5" font-family="FreeSans" font-size="10.00">TGFrame.h</text>
</g>
<!-- Node1&#45;&gt;Node10 -->
<g id="edge9" class="edge"><title>Node1&#45;&gt;Node10</title>
<path fill="none" stroke="midnightblue" d="M1364.65,-239.598C1445.36,-228.59 1574.77,-210.019 1696.6,-187.973"/>
<polygon fill="midnightblue" stroke="midnightblue" points="1697.27,-191.409 1706.48,-186.175 1696.01,-184.522 1697.27,-191.409"/>
</g>
<!-- Node11 -->
<g id="node11" class="node"><title>Node11</title>
<polygon fill="none" stroke="#bfbfbf" points="1790,-168.5 1790,-187.5 1856,-187.5 1856,-168.5 1790,-168.5"/>
<text text-anchor="middle" x="1823" y="-175.5" font-family="FreeSans" font-size="10.00">TGButton.h</text>
</g>
<!-- Node1&#45;&gt;Node11 -->
<g id="edge10" class="edge"><title>Node1&#45;&gt;Node11</title>
<path fill="none" stroke="midnightblue" d="M1364.57,-242.136C1460.18,-232.119 1626.66,-213.233 1779.66,-187.922"/>
<polygon fill="midnightblue" stroke="midnightblue" points="1780.43,-191.342 1789.72,-186.246 1779.28,-184.438 1780.43,-191.342"/>
</g>
<!-- Node12 -->
<g id="node12" class="node"><title>Node12</title>
<polygon fill="none" stroke="#bfbfbf" points="1874.5,-168.5 1874.5,-187.5 1935.5,-187.5 1935.5,-168.5 1874.5,-168.5"/>
<text text-anchor="middle" x="1905" y="-175.5" font-family="FreeSans" font-size="10.00">TGLabel.h</text>
</g>
<!-- Node1&#45;&gt;Node12 -->
<g id="edge11" class="edge"><title>Node1&#45;&gt;Node12</title>
<path fill="none" stroke="midnightblue" d="M1364.58,-244.458C1474.34,-236.079 1679.83,-218.068 1864.6,-187.874"/>
<polygon fill="midnightblue" stroke="midnightblue" points="1865.2,-191.323 1874.5,-186.242 1864.06,-184.416 1865.2,-191.323"/>
</g>
<!-- Node13 -->
<g id="node13" class="node"><title>Node13</title>
<polygon fill="none" stroke="#bfbfbf" points="1953.5,-168.5 1953.5,-187.5 2046.5,-187.5 2046.5,-168.5 1953.5,-168.5"/>
<text text-anchor="middle" x="2000" y="-175.5" font-family="FreeSans" font-size="10.00">TGNumberEntry.h</text>
</g>
<!-- Node1&#45;&gt;Node13 -->
<g id="edge12" class="edge"><title>Node1&#45;&gt;Node13</title>
<path fill="none" stroke="midnightblue" d="M1364.68,-244.259C1486.36,-235.01 1727.73,-215.191 1943.05,-188.041"/>
<polygon fill="midnightblue" stroke="midnightblue" points="1943.8,-191.473 1953.28,-186.743 1942.92,-184.529 1943.8,-191.473"/>
</g>
<!-- Node14 -->
<g id="node14" class="node"><title>Node14</title>
<g id="a_node14"><a xlink:href="../../db/d8e/UtilOnline_8h.html" target="_top" xlink:title="UtilAna/UtilOnline.h">
<polygon fill="none" stroke="black" points="-0.5,-56.5 -0.5,-75.5 100.5,-75.5 100.5,-56.5 -0.5,-56.5"/>
<text text-anchor="middle" x="50" y="-63.5" font-family="FreeSans" font-size="10.00">UtilAna/UtilOnline.h</text>
</a>
</g>
</g>
<!-- Node1&#45;&gt;Node14 -->
<g id="edge13" class="edge"><title>Node1&#45;&gt;Node14</title>
<path fill="none" stroke="midnightblue" d="M1207.32,-248.624C1004.19,-244.507 466.029,-229.864 293,-188 204.607,-166.614 111.402,-108.718 70.8638,-81.5043"/>
<polygon fill="midnightblue" stroke="midnightblue" points="72.6144,-78.4622 62.3765,-75.7352 68.6792,-84.2514 72.6144,-78.4622"/>
</g>
<!-- Node16 -->
<g id="node16" class="node"><title>Node16</title>
<g id="a_node16"><a xlink:href="../../dc/da2/Fun4AllServer_8h.html" target="_top" xlink:title="fun4all/Fun4AllServer.h">
<polygon fill="none" stroke="black" points="302,-168.5 302,-187.5 418,-187.5 418,-168.5 302,-168.5"/>
<text text-anchor="middle" x="360" y="-175.5" font-family="FreeSans" font-size="10.00">fun4all/Fun4AllServer.h</text>
</a>
</g>
</g>
<!-- Node1&#45;&gt;Node16 -->
<g id="edge15" class="edge"><title>Node1&#45;&gt;Node16</title>
<path fill="none" stroke="midnightblue" d="M1207.45,-243.977C1029.19,-230.309 596.497,-197.133 428.386,-184.243"/>
<polygon fill="midnightblue" stroke="midnightblue" points="428.418,-180.736 418.18,-183.461 427.883,-187.715 428.418,-180.736"/>
</g>
<!-- Node24 -->
<g id="node24" class="node"><title>Node24</title>
<g id="a_node24"><a xlink:href="../../d1/de7/Fun4AllInputManager_8h.html" target="_top" xlink:title="fun4all/Fun4AllInputManager.h">
<polygon fill="none" stroke="black" points="780,-168.5 780,-187.5 928,-187.5 928,-168.5 780,-168.5"/>
<text text-anchor="middle" x="854" y="-175.5" font-family="FreeSans" font-size="10.00">fun4all/Fun4AllInputManager.h</text>
</a>
</g>
</g>
<!-- Node1&#45;&gt;Node24 -->
<g id="edge32" class="edge"><title>Node1&#45;&gt;Node24</title>
<path fill="none" stroke="midnightblue" d="M1207.27,-237.06C1123.42,-223.28 992.453,-201.755 915.748,-189.148"/>
<polygon fill="midnightblue" stroke="midnightblue" points="916.189,-185.674 905.754,-187.506 915.054,-192.581 916.189,-185.674"/>
</g>
<!-- Node27 -->
<g id="node27" class="node"><title>Node27</title>
<g id="a_node27"><a xlink:href="../../de/d3f/EvtFilter_8h.html" target="_top" xlink:title="evt_filter/EvtFilter.h">
<polygon fill="none" stroke="black" points="658,-168.5 658,-187.5 756,-187.5 756,-168.5 658,-168.5"/>
<text text-anchor="middle" x="707" y="-175.5" font-family="FreeSans" font-size="10.00">evt_filter/EvtFilter.h</text>
</a>
</g>
</g>
<!-- Node1&#45;&gt;Node27 -->
<g id="edge38" class="edge"><title>Node1&#45;&gt;Node27</title>
<path fill="none" stroke="midnightblue" d="M1207.41,-241.031C1106.36,-229.386 925.486,-208.159 771,-188 769.505,-187.805 767.99,-187.605 766.463,-187.403"/>
<polygon fill="midnightblue" stroke="midnightblue" points="766.631,-183.894 756.254,-186.027 765.697,-190.831 766.631,-183.894"/>
</g>
<!-- Node31 -->
<g id="node31" class="node"><title>Node31</title>
<g id="a_node31"><a xlink:href="../../d7/d5f/PHEventDisplay_8h.html" target="_top" xlink:title="event display interface, set parameters/switches, call detector modules, control display. ">
<polygon fill="none" stroke="black" points="1042,-168.5 1042,-187.5 1134,-187.5 1134,-168.5 1042,-168.5"/>
<text text-anchor="middle" x="1088" y="-175.5" font-family="FreeSans" font-size="10.00">PHEventDisplay.h</text>
</a>
</g>
</g>
<!-- Node1&#45;&gt;Node31 -->
<g id="edge49" class="edge"><title>Node1&#45;&gt;Node31</title>
<path fill="none" stroke="midnightblue" d="M1216.19,-224.968C1184.15,-213.478 1147.63,-200.381 1121.78,-191.114"/>
<polygon fill="midnightblue" stroke="midnightblue" points="1122.69,-187.72 1112.09,-187.639 1120.32,-194.309 1122.69,-187.72"/>
</g>
<!-- Node35 -->
<g id="node35" class="node"><title>Node35</title>
<g id="a_node35"><a xlink:href="../../dc/d55/EventDispUI_8h.html" target="_top" xlink:title="EventDispUI.h">
<polygon fill="none" stroke="black" points="946.5,-168.5 946.5,-187.5 1023.5,-187.5 1023.5,-168.5 946.5,-168.5"/>
<text text-anchor="middle" x="985" y="-175.5" font-family="FreeSans" font-size="10.00">EventDispUI.h</text>
</a>
</g>
</g>
<!-- Node1&#45;&gt;Node35 -->
<g id="edge56" class="edge"><title>Node1&#45;&gt;Node35</title>
<path fill="none" stroke="midnightblue" d="M1207.31,-231.438C1151.32,-218.232 1078.02,-200.941 1031.2,-189.899"/>
<polygon fill="midnightblue" stroke="midnightblue" points="1031.88,-186.462 1021.34,-187.573 1030.27,-193.275 1031.88,-186.462"/>
</g>
<!-- Node15 -->
<g id="node15" class="node"><title>Node15</title>
<polygon fill="none" stroke="#bfbfbf" points="631,-0.5 631,-19.5 671,-19.5 671,-0.5 631,-0.5"/>
<text text-anchor="middle" x="651" y="-7.5" font-family="FreeSans" font-size="10.00">string</text>
</g>
<!-- Node14&#45;&gt;Node15 -->
<g id="edge14" class="edge"><title>Node14&#45;&gt;Node15</title>
<path fill="none" stroke="midnightblue" d="M100.709,-57.7102C105.535,-57.0974 110.358,-56.5159 115,-56 306.859,-34.6793 538.366,-18.4492 620.388,-12.9905"/>
<polygon fill="midnightblue" stroke="midnightblue" points="620.767,-16.4731 630.515,-12.3209 620.305,-9.48838 620.767,-16.4731"/>
</g>
<!-- Node17 -->
<g id="node17" class="node"><title>Node17</title>
<g id="a_node17"><a xlink:href="../../d2/de7/Fun4AllBase_8h.html" target="_top" xlink:title="Fun4AllBase.h">
<polygon fill="none" stroke="black" points="679.5,-56.5 679.5,-75.5 758.5,-75.5 758.5,-56.5 679.5,-56.5"/>
<text text-anchor="middle" x="719" y="-63.5" font-family="FreeSans" font-size="10.00">Fun4AllBase.h</text>
</a>
</g>
</g>
<!-- Node16&#45;&gt;Node17 -->
<g id="edge16" class="edge"><title>Node16&#45;&gt;Node17</title>
<path fill="none" stroke="midnightblue" d="M382.604,-168.487C405.035,-159.868 440.268,-145.867 470,-132 487.297,-123.933 490.054,-118.496 508,-112 561.473,-92.6443 625.736,-80.4191 669.182,-73.6747"/>
<polygon fill="midnightblue" stroke="midnightblue" points="669.849,-77.1137 679.213,-72.1575 668.802,-70.1924 669.849,-77.1137"/>
</g>
<!-- Node19 -->
<g id="node19" class="node"><title>Node19</title>
<g id="a_node19"><a xlink:href="../../d0/d59/Fun4AllHistoManager_8h.html" target="_top" xlink:title="Fun4AllHistoManager.h">
<polygon fill="none" stroke="black" points="345,-112.5 345,-131.5 461,-131.5 461,-112.5 345,-112.5"/>
<text text-anchor="middle" x="403" y="-119.5" font-family="FreeSans" font-size="10.00">Fun4AllHistoManager.h</text>
</a>
</g>
</g>
<!-- Node16&#45;&gt;Node19 -->
<g id="edge19" class="edge"><title>Node16&#45;&gt;Node19</title>
<path fill="none" stroke="midnightblue" d="M367.101,-168.083C373.237,-160.377 382.27,-149.033 389.739,-139.653"/>
<polygon fill="midnightblue" stroke="midnightblue" points="392.54,-141.754 396.032,-131.751 387.064,-137.394 392.54,-141.754"/>
</g>
<!-- Node21 -->
<g id="node21" class="node"><title>Node21</title>
<g id="a_node21"><a xlink:href="../../d4/d35/PHTimer2_8h.html" target="_top" xlink:title="phool/PHTimer2.h">
<polygon fill="none" stroke="black" points="195,-112.5 195,-131.5 289,-131.5 289,-112.5 195,-112.5"/>
<text text-anchor="middle" x="242" y="-119.5" font-family="FreeSans" font-size="10.00">phool/PHTimer2.h</text>
</a>
</g>
</g>
<!-- Node16&#45;&gt;Node21 -->
<g id="edge24" class="edge"><title>Node16&#45;&gt;Node21</title>
<path fill="none" stroke="midnightblue" d="M341.303,-168.444C322.056,-159.636 291.848,-145.812 269.8,-135.722"/>
<polygon fill="midnightblue" stroke="midnightblue" points="271.16,-132.495 260.61,-131.516 268.247,-138.86 271.16,-132.495"/>
</g>
<!-- Node16&#45;&gt;Node2 -->
<g id="edge28" class="edge"><title>Node16&#45;&gt;Node2</title>
<path fill="none" stroke="midnightblue" d="M301.677,-169.62C256.841,-162.609 200.231,-150.38 186,-132 174.49,-117.135 186.904,-96.9811 198.87,-83.0749"/>
<polygon fill="midnightblue" stroke="midnightblue" points="201.47,-85.4186 205.68,-75.6962 196.326,-80.6711 201.47,-85.4186"/>
</g>
<!-- Node20 -->
<g id="node20" class="node"><title>Node20</title>
<polygon fill="none" stroke="#bfbfbf" points="385.5,-56.5 385.5,-75.5 420.5,-75.5 420.5,-56.5 385.5,-56.5"/>
<text text-anchor="middle" x="403" y="-63.5" font-family="FreeSans" font-size="10.00">map</text>
</g>
<!-- Node16&#45;&gt;Node20 -->
<g id="edge29" class="edge"><title>Node16&#45;&gt;Node20</title>
<path fill="none" stroke="midnightblue" d="M352.217,-168.267C341.818,-155.481 325.816,-131.108 336,-112 344.488,-96.0747 361.393,-84.7838 376.097,-77.4948"/>
<polygon fill="midnightblue" stroke="midnightblue" points="377.692,-80.6143 385.332,-73.2743 374.782,-74.2477 377.692,-80.6143"/>
</g>
<!-- Node16&#45;&gt;Node15 -->
<g id="edge30" class="edge"><title>Node16&#45;&gt;Node15</title>
<path fill="none" stroke="midnightblue" d="M301.844,-170.398C254.552,-163.69 193.249,-151.478 178,-132 168.542,-119.919 154.005,-83.0025 179,-56 209.044,-23.5424 521.311,-13.8666 620.758,-11.597"/>
<polygon fill="midnightblue" stroke="midnightblue" points="620.836,-15.0963 630.757,-11.3777 620.683,-8.09795 620.836,-15.0963"/>
</g>
<!-- Node23 -->
<g id="node23" class="node"><title>Node23</title>
<polygon fill="none" stroke="#bfbfbf" points="839.5,-112.5 839.5,-131.5 882.5,-131.5 882.5,-112.5 839.5,-112.5"/>
<text text-anchor="middle" x="861" y="-119.5" font-family="FreeSans" font-size="10.00">vector</text>
</g>
<!-- Node16&#45;&gt;Node23 -->
<g id="edge31" class="edge"><title>Node16&#45;&gt;Node23</title>
<path fill="none" stroke="midnightblue" d="M418.258,-171.362C501.133,-163.241 657.797,-147.515 791,-132 803.519,-130.542 817.28,-128.802 829.263,-127.243"/>
<polygon fill="midnightblue" stroke="midnightblue" points="829.801,-130.703 839.26,-125.931 828.889,-123.762 829.801,-130.703"/>
</g>
<!-- Node17&#45;&gt;Node15 -->
<g id="edge17" class="edge"><title>Node17&#45;&gt;Node15</title>
<path fill="none" stroke="midnightblue" d="M708.075,-56.324C697.825,-48.1849 682.279,-35.8395 669.999,-26.0874"/>
<polygon fill="midnightblue" stroke="midnightblue" points="672.132,-23.3119 662.124,-19.8339 667.779,-28.7937 672.132,-23.3119"/>
</g>
<!-- Node18 -->
<g id="node18" class="node"><title>Node18</title>
<polygon fill="none" stroke="#bfbfbf" points="697,-0.5 697,-19.5 741,-19.5 741,-0.5 697,-0.5"/>
<text text-anchor="middle" x="719" y="-7.5" font-family="FreeSans" font-size="10.00">climits</text>
</g>
<!-- Node17&#45;&gt;Node18 -->
<g id="edge18" class="edge"><title>Node17&#45;&gt;Node18</title>
<path fill="none" stroke="midnightblue" d="M719,-56.083C719,-49.0059 719,-38.8611 719,-29.9865"/>
<polygon fill="midnightblue" stroke="midnightblue" points="722.5,-29.751 719,-19.7511 715.5,-29.7511 722.5,-29.751"/>
</g>
<!-- Node19&#45;&gt;Node17 -->
<g id="edge20" class="edge"><title>Node19&#45;&gt;Node17</title>
<path fill="none" stroke="midnightblue" d="M453.071,-112.444C512.173,-102.344 609.87,-85.6487 668.959,-75.5512"/>
<polygon fill="midnightblue" stroke="midnightblue" points="669.901,-78.9412 679.168,-73.8067 668.722,-72.0412 669.901,-78.9412"/>
</g>
<!-- Node19&#45;&gt;Node2 -->
<g id="edge21" class="edge"><title>Node19&#45;&gt;Node2</title>
<path fill="none" stroke="midnightblue" d="M373.211,-112.444C340.229,-102.97 287.044,-87.6935 251.563,-77.5022"/>
<polygon fill="midnightblue" stroke="midnightblue" points="252.188,-74.0401 241.61,-74.6433 250.255,-80.7681 252.188,-74.0401"/>
</g>
<!-- Node19&#45;&gt;Node20 -->
<g id="edge22" class="edge"><title>Node19&#45;&gt;Node20</title>
<path fill="none" stroke="midnightblue" d="M403,-112.083C403,-105.006 403,-94.8611 403,-85.9865"/>
<polygon fill="midnightblue" stroke="midnightblue" points="406.5,-85.751 403,-75.7511 399.5,-85.7511 406.5,-85.751"/>
</g>
<!-- Node19&#45;&gt;Node15 -->
<g id="edge23" class="edge"><title>Node19&#45;&gt;Node15</title>
<path fill="none" stroke="midnightblue" d="M422.46,-112.368C466.013,-93.0507 571.507,-46.2592 622.484,-23.6481"/>
<polygon fill="midnightblue" stroke="midnightblue" points="623.908,-26.8454 631.63,-19.5914 621.07,-20.4466 623.908,-26.8454"/>
</g>
<!-- Node21&#45;&gt;Node2 -->
<g id="edge25" class="edge"><title>Node21&#45;&gt;Node2</title>
<path fill="none" stroke="midnightblue" d="M237.541,-112.083C233.846,-104.691 228.477,-93.9533 223.906,-84.8111"/>
<polygon fill="midnightblue" stroke="midnightblue" points="226.978,-83.1301 219.376,-75.7511 220.717,-86.2606 226.978,-83.1301"/>
</g>
<!-- Node21&#45;&gt;Node15 -->
<g id="edge26" class="edge"><title>Node21&#45;&gt;Node15</title>
<path fill="none" stroke="midnightblue" d="M245.417,-112.499C251.682,-98.1365 266.467,-69.3301 289,-56 344.848,-22.9607 543.242,-13.9814 620.187,-11.7136"/>
<polygon fill="midnightblue" stroke="midnightblue" points="620.728,-15.2001 630.627,-11.4256 620.534,-8.20277 620.728,-15.2001"/>
</g>
<!-- Node22 -->
<g id="node22" class="node"><title>Node22</title>
<polygon fill="none" stroke="#bfbfbf" points="298.5,-56.5 298.5,-75.5 339.5,-75.5 339.5,-56.5 298.5,-56.5"/>
<text text-anchor="middle" x="319" y="-63.5" font-family="FreeSans" font-size="10.00">ctime</text>
</g>
<!-- Node21&#45;&gt;Node22 -->
<g id="edge27" class="edge"><title>Node21&#45;&gt;Node22</title>
<path fill="none" stroke="midnightblue" d="M254.371,-112.324C266.158,-104.058 284.132,-91.4527 298.136,-81.6322"/>
<polygon fill="midnightblue" stroke="midnightblue" points="300.482,-84.2619 306.659,-75.6545 296.462,-78.5307 300.482,-84.2619"/>
</g>
<!-- Node24&#45;&gt;Node17 -->
<g id="edge33" class="edge"><title>Node24&#45;&gt;Node17</title>
<path fill="none" stroke="midnightblue" d="M846.827,-168.353C835.702,-155.248 813.244,-129.981 791,-112 776.33,-100.142 758.335,-88.8942 744.005,-80.6101"/>
<polygon fill="midnightblue" stroke="midnightblue" points="745.616,-77.4999 735.19,-75.6176 742.166,-83.591 745.616,-77.4999"/>
</g>
<!-- Node25 -->
<g id="node25" class="node"><title>Node25</title>
<g id="a_node25"><a xlink:href="../../da/dc1/Fun4AllReturnCodes_8h.html" target="_top" xlink:title="Fun4AllReturnCodes.h">
<polygon fill="none" stroke="black" points="900.5,-112.5 900.5,-131.5 1013.5,-131.5 1013.5,-112.5 900.5,-112.5"/>
<text text-anchor="middle" x="957" y="-119.5" font-family="FreeSans" font-size="10.00">Fun4AllReturnCodes.h</text>
</a>
</g>
</g>
<!-- Node24&#45;&gt;Node25 -->
<g id="edge34" class="edge"><title>Node24&#45;&gt;Node25</title>
<path fill="none" stroke="midnightblue" d="M870.549,-168.324C886.992,-159.703 912.435,-146.364 931.468,-136.386"/>
<polygon fill="midnightblue" stroke="midnightblue" points="933.261,-139.398 940.492,-131.655 930.011,-133.198 933.261,-139.398"/>
</g>
<!-- Node26 -->
<g id="node26" class="node"><title>Node26</title>
<polygon fill="none" stroke="#bfbfbf" points="753.5,-112.5 753.5,-131.5 782.5,-131.5 782.5,-112.5 753.5,-112.5"/>
<text text-anchor="middle" x="768" y="-119.5" font-family="FreeSans" font-size="10.00">list</text>
</g>
<!-- Node24&#45;&gt;Node26 -->
<g id="edge35" class="edge"><title>Node24&#45;&gt;Node26</title>
<path fill="none" stroke="midnightblue" d="M840.183,-168.324C826.767,-159.9 806.176,-146.971 790.414,-137.074"/>
<polygon fill="midnightblue" stroke="midnightblue" points="792.113,-134.008 781.783,-131.655 788.391,-139.936 792.113,-134.008"/>
</g>
<!-- Node24&#45;&gt;Node15 -->
<g id="edge36" class="edge"><title>Node24&#45;&gt;Node15</title>
<path fill="none" stroke="midnightblue" d="M915.619,-168.448C957.976,-161.161 1008.86,-149.127 1022,-132 1027.41,-124.948 1027.4,-119.063 1022,-112 1016.66,-105.008 768.262,-40.973 680.957,-18.6404"/>
<polygon fill="midnightblue" stroke="midnightblue" points="681.691,-15.2156 671.136,-16.1303 679.958,-21.9976 681.691,-15.2156"/>
</g>
<!-- Node24&#45;&gt;Node23 -->
<g id="edge37" class="edge"><title>Node24&#45;&gt;Node23</title>
<path fill="none" stroke="midnightblue" d="M855.156,-168.083C856.084,-160.927 857.418,-150.635 858.577,-141.691"/>
<polygon fill="midnightblue" stroke="midnightblue" points="862.051,-142.118 859.866,-131.751 855.109,-141.218 862.051,-142.118"/>
</g>
<!-- Node28 -->
<g id="node28" class="node"><title>Node28</title>
<polygon fill="none" stroke="#bfbfbf" points="679,-112.5 679,-131.5 735,-131.5 735,-112.5 679,-112.5"/>
<text text-anchor="middle" x="707" y="-119.5" font-family="FreeSans" font-size="10.00">TString.h</text>
</g>
<!-- Node27&#45;&gt;Node28 -->
<g id="edge39" class="edge"><title>Node27&#45;&gt;Node28</title>
<path fill="none" stroke="midnightblue" d="M707,-168.083C707,-161.006 707,-150.861 707,-141.986"/>
<polygon fill="midnightblue" stroke="midnightblue" points="710.5,-141.751 707,-131.751 703.5,-141.751 710.5,-141.751"/>
</g>
<!-- Node29 -->
<g id="node29" class="node"><title>Node29</title>
<g id="a_node29"><a xlink:href="../../d5/dc2/SubsysReco_8h.html" target="_top" xlink:title="fun4all/SubsysReco.h">
<polygon fill="none" stroke="black" points="1070.5,-112.5 1070.5,-131.5 1179.5,-131.5 1179.5,-112.5 1070.5,-112.5"/>
<text text-anchor="middle" x="1125" y="-119.5" font-family="FreeSans" font-size="10.00">fun4all/SubsysReco.h</text>
</a>
</g>
</g>
<!-- Node27&#45;&gt;Node29 -->
<g id="edge40" class="edge"><title>Node27&#45;&gt;Node29</title>
<path fill="none" stroke="midnightblue" d="M756.258,-170.006C761.237,-169.319 766.218,-168.64 771,-168 871.959,-154.485 989.254,-139.768 1060.26,-130.968"/>
<polygon fill="midnightblue" stroke="midnightblue" points="1060.9,-134.416 1070.39,-129.714 1060.04,-127.469 1060.9,-134.416"/>
</g>
<!-- Node27&#45;&gt;Node23 -->
<g id="edge43" class="edge"><title>Node27&#45;&gt;Node23</title>
<path fill="none" stroke="midnightblue" d="M731.402,-168.444C757.955,-159.133 800.494,-144.216 829.54,-134.032"/>
<polygon fill="midnightblue" stroke="midnightblue" points="830.924,-137.255 839.202,-130.643 828.608,-130.65 830.924,-137.255"/>
</g>
<!-- Node27&#45;&gt;Node15 -->
<g id="edge44" class="edge"><title>Node27&#45;&gt;Node15</title>
<path fill="none" stroke="midnightblue" d="M697.431,-168.354C688.788,-159.956 676.462,-146.394 670,-132 654.814,-98.1709 651.501,-54.2842 650.932,-29.7391"/>
<polygon fill="midnightblue" stroke="midnightblue" points="654.431,-29.6142 650.831,-19.6495 647.431,-29.6837 654.431,-29.6142"/>
</g>
<!-- Node27&#45;&gt;Node2 -->
<g id="edge45" class="edge"><title>Node27&#45;&gt;Node2</title>
<path fill="none" stroke="midnightblue" d="M680.694,-168.388C656.427,-160.113 619.63,-146.722 589,-132 573.199,-124.405 571.576,-117.708 555,-112 540.763,-107.097 336.684,-81.8391 251.711,-71.4605"/>
<polygon fill="midnightblue" stroke="midnightblue" points="252.073,-67.9788 241.723,-70.2421 251.225,-74.9273 252.073,-67.9788"/>
</g>
<!-- Node30 -->
<g id="node30" class="node"><title>Node30</title>
<polygon fill="none" stroke="#bfbfbf" points="517.5,-112.5 517.5,-131.5 546.5,-131.5 546.5,-112.5 517.5,-112.5"/>
<text text-anchor="middle" x="532" y="-119.5" font-family="FreeSans" font-size="10.00">set</text>
</g>
<!-- Node27&#45;&gt;Node30 -->
<g id="edge46" class="edge"><title>Node27&#45;&gt;Node30</title>
<path fill="none" stroke="midnightblue" d="M679.277,-168.473C649.906,-159.434 602.177,-144.735 561,-132 559.552,-131.552 558.064,-131.091 556.562,-130.626"/>
<polygon fill="midnightblue" stroke="midnightblue" points="557.339,-127.203 546.751,-127.584 555.266,-133.889 557.339,-127.203"/>
</g>
<!-- Node27&#45;&gt;Node26 -->
<g id="edge47" class="edge"><title>Node27&#45;&gt;Node26</title>
<path fill="none" stroke="midnightblue" d="M716.801,-168.324C725.818,-160.341 739.406,-148.313 750.318,-138.653"/>
<polygon fill="midnightblue" stroke="midnightblue" points="752.853,-141.083 758.021,-131.834 748.213,-135.842 752.853,-141.083"/>
</g>
<!-- Node27&#45;&gt;Node20 -->
<g id="edge48" class="edge"><title>Node27&#45;&gt;Node20</title>
<path fill="none" stroke="midnightblue" d="M694.113,-168.389C672.996,-154.634 629.334,-127.664 589,-112 534.739,-90.9272 467.628,-77.6208 430.672,-71.3207"/>
<polygon fill="midnightblue" stroke="midnightblue" points="431.089,-67.842 420.651,-69.659 429.943,-74.7477 431.089,-67.842"/>
</g>
<!-- Node29&#45;&gt;Node17 -->
<g id="edge41" class="edge"><title>Node29&#45;&gt;Node17</title>
<path fill="none" stroke="midnightblue" d="M1070.25,-113.717C990.967,-103.173 845.362,-83.8067 768.899,-73.6368"/>
<polygon fill="midnightblue" stroke="midnightblue" points="768.957,-70.1138 758.583,-72.2647 768.034,-77.0527 768.957,-70.1138"/>
</g>
<!-- Node29&#45;&gt;Node15 -->
<g id="edge42" class="edge"><title>Node29&#45;&gt;Node15</title>
<path fill="none" stroke="midnightblue" d="M1118.94,-112.387C1108.18,-97.8552 1084.17,-68.8004 1056,-56 906.388,11.9892 850.021,-47.4889 688,-20 685.776,-19.6226 683.487,-19.186 681.191,-18.7125"/>
<polygon fill="midnightblue" stroke="midnightblue" points="681.774,-15.2562 671.249,-16.471 680.234,-22.0848 681.774,-15.2562"/>
</g>
<!-- Node31&#45;&gt;Node29 -->
<g id="edge50" class="edge"><title>Node31&#45;&gt;Node29</title>
<path fill="none" stroke="midnightblue" d="M1094.11,-168.083C1099.28,-160.534 1106.85,-149.495 1113.19,-140.23"/>
<polygon fill="midnightblue" stroke="midnightblue" points="1116.24,-141.979 1119,-131.751 1110.46,-138.022 1116.24,-141.979"/>
</g>
<!-- Node31&#45;&gt;Node15 -->
<g id="edge51" class="edge"><title>Node31&#45;&gt;Node15</title>
<path fill="none" stroke="midnightblue" d="M1132.52,-168.482C1181.65,-158.634 1254.9,-142.443 1263,-132 1268.45,-124.975 1268.27,-119.158 1263,-112 1195.11,-19.7844 794.203,-37.6568 688,-20 685.775,-19.63 683.485,-19.1987 681.188,-18.7291"/>
<polygon fill="midnightblue" stroke="midnightblue" points="681.769,-15.2724 671.245,-16.4955 680.235,-22.1022 681.769,-15.2724"/>
</g>
<!-- Node31&#45;&gt;Node23 -->
<g id="edge52" class="edge"><title>Node31&#45;&gt;Node23</title>
<path fill="none" stroke="midnightblue" d="M1047.67,-168.443C1010.03,-160.3 952.075,-147.366 892.584,-132.034"/>
<polygon fill="midnightblue" stroke="midnightblue" points="893.196,-128.577 882.637,-129.452 891.436,-135.353 893.196,-128.577"/>
</g>
<!-- Node32 -->
<g id="node32" class="node"><title>Node32</title>
<polygon fill="none" stroke="#bfbfbf" points="1310,-112.5 1310,-131.5 1416,-131.5 1416,-112.5 1310,-112.5"/>
<text text-anchor="middle" x="1363" y="-119.5" font-family="FreeSans" font-size="10.00">boost/shared_ptr.hpp</text>
</g>
<!-- Node31&#45;&gt;Node32 -->
<g id="edge53" class="edge"><title>Node31&#45;&gt;Node32</title>
<path fill="none" stroke="midnightblue" d="M1131.57,-168.444C1179.85,-158.964 1257.71,-143.675 1309.61,-133.483"/>
<polygon fill="midnightblue" stroke="midnightblue" points="1310.49,-136.878 1319.63,-131.516 1309.14,-130.009 1310.49,-136.878"/>
</g>
<!-- Node33 -->
<g id="node33" class="node"><title>Node33</title>
<polygon fill="none" stroke="#bfbfbf" points="1434,-112.5 1434,-131.5 1552,-131.5 1552,-112.5 1434,-112.5"/>
<text text-anchor="middle" x="1493" y="-119.5" font-family="FreeSans" font-size="10.00">boost/thread/thread.hpp</text>
</g>
<!-- Node31&#45;&gt;Node33 -->
<g id="edge54" class="edge"><title>Node31&#45;&gt;Node33</title>
<path fill="none" stroke="midnightblue" d="M1134.2,-169.32C1137.17,-168.862 1140.13,-168.418 1143,-168 1264.86,-150.257 1298.04,-148.376 1423.65,-132.166"/>
<polygon fill="midnightblue" stroke="midnightblue" points="1424.2,-135.625 1433.66,-130.87 1423.3,-128.683 1424.2,-135.625"/>
</g>
<!-- Node34 -->
<g id="node34" class="node"><title>Node34</title>
<polygon fill="none" stroke="#bfbfbf" points="1198,-112.5 1198,-131.5 1254,-131.5 1254,-112.5 1198,-112.5"/>
<text text-anchor="middle" x="1226" y="-119.5" font-family="FreeSans" font-size="10.00">pthread.h</text>
</g>
<!-- Node31&#45;&gt;Node34 -->
<g id="edge55" class="edge"><title>Node31&#45;&gt;Node34</title>
<path fill="none" stroke="midnightblue" d="M1109.87,-168.444C1132.78,-159.478 1168.98,-145.314 1194.87,-135.183"/>
<polygon fill="midnightblue" stroke="midnightblue" points="1196.2,-138.42 1204.24,-131.516 1193.65,-131.901 1196.2,-138.42"/>
</g>
<!-- Node35&#45;&gt;Node23 -->
<g id="edge57" class="edge"><title>Node35&#45;&gt;Node23</title>
<path fill="none" stroke="midnightblue" d="M965.352,-168.444C945.035,-159.596 913.097,-145.687 889.902,-135.586"/>
<polygon fill="midnightblue" stroke="midnightblue" points="891.122,-132.3 880.556,-131.516 888.327,-138.718 891.122,-132.3"/>
</g>
</g>
</svg>
