<?xml version="1.0" encoding="UTF-8" standalone="no"?>
<!DOCTYPE svg PUBLIC "-//W3C//DTD SVG 1.1//EN"
 "http://www.w3.org/Graphics/SVG/1.1/DTD/svg11.dtd">
<!-- Generated by graphviz version 2.30.1 (20200930.0103)
 -->
<!-- Title: /dev/shm/kenichi/update&#45;github&#45;e1039&#45;doc/e1039&#45;core/interface_main/SQDimuonVector.h Pages: 1 -->
<svg width="892pt" height="230pt"
 viewBox="0.00 0.00 892.00 230.00" xmlns="http://www.w3.org/2000/svg" xmlns:xlink="http://www.w3.org/1999/xlink">
<g id="graph0" class="graph" transform="scale(1 1) rotate(0) translate(4 226)">
<title>/dev/shm/kenichi/update&#45;github&#45;e1039&#45;doc/e1039&#45;core/interface_main/SQDimuonVector.h</title>
<!-- Node1 -->
<g id="node1" class="node"><title>Node1</title>
<polygon fill="#bfbfbf" stroke="black" points="377.5,-180.5 377.5,-221.5 568.5,-221.5 568.5,-180.5 377.5,-180.5"/>
<text text-anchor="start" x="385.5" y="-209.5" font-family="FreeSans" font-size="10.00">/dev/shm/kenichi/update</text>
<text text-anchor="start" x="385.5" y="-198.5" font-family="FreeSans" font-size="10.00">&#45;github&#45;e1039&#45;doc/e1039</text>
<text text-anchor="middle" x="473" y="-187.5" font-family="FreeSans" font-size="10.00">&#45;core/interface_main/SQDimuonVector.h</text>
</g>
<!-- Node2 -->
<g id="node2" class="node"><title>Node2</title>
<g id="a_node2"><a xlink:href="../../df/d2e/SQDimuonVector_8cxx.html" target="_top" xlink:title="/dev/shm/kenichi/update\l&#45;github&#45;e1039&#45;doc/e1039\l&#45;core/interface_main/SQDimuonVector.cxx">
<polygon fill="none" stroke="black" points="152,-96.5 152,-137.5 352,-137.5 352,-96.5 152,-96.5"/>
<text text-anchor="start" x="160" y="-125.5" font-family="FreeSans" font-size="10.00">/dev/shm/kenichi/update</text>
<text text-anchor="start" x="160" y="-114.5" font-family="FreeSans" font-size="10.00">&#45;github&#45;e1039&#45;doc/e1039</text>
<text text-anchor="middle" x="252" y="-103.5" font-family="FreeSans" font-size="10.00">&#45;core/interface_main/SQDimuonVector.cxx</text>
</a>
</g>
</g>
<!-- Node1&#45;&gt;Node2 -->
<g id="edge1" class="edge"><title>Node1&#45;&gt;Node2</title>
<path fill="none" stroke="midnightblue" d="M410.672,-176.874C377.23,-164.465 336.468,-149.341 304.633,-137.529"/>
<polygon fill="midnightblue" stroke="midnightblue" points="409.753,-180.266 420.346,-180.463 412.188,-173.703 409.753,-180.266"/>
</g>
<!-- Node3 -->
<g id="node3" class="node"><title>Node3</title>
<g id="a_node3"><a xlink:href="../../df/de0/SQDimuonVector__v1_8h.html" target="_top" xlink:title="/dev/shm/kenichi/update\l&#45;github&#45;e1039&#45;doc/e1039\l&#45;core/interface_main/SQDimuonVector_v1.h">
<polygon fill="none" stroke="black" points="370,-96.5 370,-137.5 576,-137.5 576,-96.5 370,-96.5"/>
<text text-anchor="start" x="378" y="-125.5" font-family="FreeSans" font-size="10.00">/dev/shm/kenichi/update</text>
<text text-anchor="start" x="378" y="-114.5" font-family="FreeSans" font-size="10.00">&#45;github&#45;e1039&#45;doc/e1039</text>
<text text-anchor="middle" x="473" y="-103.5" font-family="FreeSans" font-size="10.00">&#45;core/interface_main/SQDimuonVector_v1.h</text>
</a>
</g>
</g>
<!-- Node1&#45;&gt;Node3 -->
<g id="edge2" class="edge"><title>Node1&#45;&gt;Node3</title>
<path fill="none" stroke="midnightblue" d="M473,-169.881C473,-159.133 473,-147.309 473,-137.667"/>
<polygon fill="midnightblue" stroke="midnightblue" points="469.5,-170.15 473,-180.15 476.5,-170.15 469.5,-170.15"/>
</g>
<!-- Node9 -->
<g id="node9" class="node"><title>Node9</title>
<g id="a_node9"><a xlink:href="../../d4/db3/AnaSimDst_8cc.html" target="_top" xlink:title="/dev/shm/kenichi/update\l&#45;github&#45;e1039&#45;doc/e1039\l&#45;analysis/AnaSimDst/src\l/AnaSimDst.cc">
<polygon fill="none" stroke="black" points="594.5,-91 594.5,-143 717.5,-143 717.5,-91 594.5,-91"/>
<text text-anchor="start" x="602.5" y="-131" font-family="FreeSans" font-size="10.00">/dev/shm/kenichi/update</text>
<text text-anchor="start" x="602.5" y="-120" font-family="FreeSans" font-size="10.00">&#45;github&#45;e1039&#45;doc/e1039</text>
<text text-anchor="start" x="602.5" y="-109" font-family="FreeSans" font-size="10.00">&#45;analysis/AnaSimDst/src</text>
<text text-anchor="middle" x="656" y="-98" font-family="FreeSans" font-size="10.00">/AnaSimDst.cc</text>
</a>
</g>
</g>
<!-- Node1&#45;&gt;Node9 -->
<g id="edge8" class="edge"><title>Node1&#45;&gt;Node9</title>
<path fill="none" stroke="midnightblue" d="M526.167,-176.176C549.351,-165.788 576.542,-153.604 600.033,-143.078"/>
<polygon fill="midnightblue" stroke="midnightblue" points="524.528,-173.076 516.833,-180.359 527.39,-179.464 524.528,-173.076"/>
</g>
<!-- Node4 -->
<g id="node4" class="node"><title>Node4</title>
<g id="a_node4"><a xlink:href="../../da/d1b/SQDimuonVector__v1_8cxx.html" target="_top" xlink:title="/dev/shm/kenichi/update\l&#45;github&#45;e1039&#45;doc/e1039\l&#45;core/interface_main/SQDimuonVector_v1.cxx">
<polygon fill="none" stroke="black" points="-0.5,-6.5 -0.5,-47.5 214.5,-47.5 214.5,-6.5 -0.5,-6.5"/>
<text text-anchor="start" x="7.5" y="-35.5" font-family="FreeSans" font-size="10.00">/dev/shm/kenichi/update</text>
<text text-anchor="start" x="7.5" y="-24.5" font-family="FreeSans" font-size="10.00">&#45;github&#45;e1039&#45;doc/e1039</text>
<text text-anchor="middle" x="107" y="-13.5" font-family="FreeSans" font-size="10.00">&#45;core/interface_main/SQDimuonVector_v1.cxx</text>
</a>
</g>
</g>
<!-- Node3&#45;&gt;Node4 -->
<g id="edge3" class="edge"><title>Node3&#45;&gt;Node4</title>
<path fill="none" stroke="midnightblue" d="M382.019,-94.1247C322.602,-79.8387 245.69,-61.3463 188.316,-47.5514"/>
<polygon fill="midnightblue" stroke="midnightblue" points="381.232,-97.5351 391.773,-96.4699 382.868,-90.7291 381.232,-97.5351"/>
</g>
<!-- Node5 -->
<g id="node5" class="node"><title>Node5</title>
<g id="a_node5"><a xlink:href="../../da/da7/SQTruthVertexing_8cxx.html" target="_top" xlink:title="/dev/shm/kenichi/update\l&#45;github&#45;e1039&#45;doc/e1039\l&#45;core/packages/reco/ktracker\l/SQTruthVertexing.cxx">
<polygon fill="none" stroke="black" points="232.5,-1 232.5,-53 375.5,-53 375.5,-1 232.5,-1"/>
<text text-anchor="start" x="240.5" y="-41" font-family="FreeSans" font-size="10.00">/dev/shm/kenichi/update</text>
<text text-anchor="start" x="240.5" y="-30" font-family="FreeSans" font-size="10.00">&#45;github&#45;e1039&#45;doc/e1039</text>
<text text-anchor="start" x="240.5" y="-19" font-family="FreeSans" font-size="10.00">&#45;core/packages/reco/ktracker</text>
<text text-anchor="middle" x="304" y="-8" font-family="FreeSans" font-size="10.00">/SQTruthVertexing.cxx</text>
</a>
</g>
</g>
<!-- Node3&#45;&gt;Node5 -->
<g id="edge4" class="edge"><title>Node3&#45;&gt;Node5</title>
<path fill="none" stroke="midnightblue" d="M426.545,-91.8104C403.379,-79.7478 375.392,-65.1745 352.015,-53.0021"/>
<polygon fill="midnightblue" stroke="midnightblue" points="425.007,-94.9558 435.493,-96.4699 428.24,-88.7471 425.007,-94.9558"/>
</g>
<!-- Node6 -->
<g id="node6" class="node"><title>Node6</title>
<g id="a_node6"><a xlink:href="../../df/da0/TruthNodeMaker_8cc.html" target="_top" xlink:title="/dev/shm/kenichi/update\l&#45;github&#45;e1039&#45;doc/e1039\l&#45;core/simulation/g4dst/TruthNode\lMaker.cc">
<polygon fill="none" stroke="black" points="393.5,-1 393.5,-53 552.5,-53 552.5,-1 393.5,-1"/>
<text text-anchor="start" x="401.5" y="-41" font-family="FreeSans" font-size="10.00">/dev/shm/kenichi/update</text>
<text text-anchor="start" x="401.5" y="-30" font-family="FreeSans" font-size="10.00">&#45;github&#45;e1039&#45;doc/e1039</text>
<text text-anchor="start" x="401.5" y="-19" font-family="FreeSans" font-size="10.00">&#45;core/simulation/g4dst/TruthNode</text>
<text text-anchor="middle" x="473" y="-8" font-family="FreeSans" font-size="10.00">Maker.cc</text>
</a>
</g>
</g>
<!-- Node3&#45;&gt;Node6 -->
<g id="edge5" class="edge"><title>Node3&#45;&gt;Node6</title>
<path fill="none" stroke="midnightblue" d="M473,-86.2552C473,-75.5059 473,-63.4841 473,-53.1657"/>
<polygon fill="midnightblue" stroke="midnightblue" points="469.5,-86.4699 473,-96.4699 476.5,-86.47 469.5,-86.4699"/>
</g>
<!-- Node7 -->
<g id="node7" class="node"><title>Node7</title>
<g id="a_node7"><a xlink:href="../../d5/d2f/Efficiency_2AnaModule_2AnaModule_8cxx.html" target="_top" xlink:title="/dev/shm/kenichi/update\l&#45;github&#45;e1039&#45;doc/e1039\l&#45;analysis/Efficiency/AnaModule\l/AnaModule.cxx">
<polygon fill="none" stroke="black" points="571,-1 571,-53 719,-53 719,-1 571,-1"/>
<text text-anchor="start" x="579" y="-41" font-family="FreeSans" font-size="10.00">/dev/shm/kenichi/update</text>
<text text-anchor="start" x="579" y="-30" font-family="FreeSans" font-size="10.00">&#45;github&#45;e1039&#45;doc/e1039</text>
<text text-anchor="start" x="579" y="-19" font-family="FreeSans" font-size="10.00">&#45;analysis/Efficiency/AnaModule</text>
<text text-anchor="middle" x="645" y="-8" font-family="FreeSans" font-size="10.00">/AnaModule.cxx</text>
</a>
</g>
</g>
<!-- Node3&#45;&gt;Node7 -->
<g id="edge6" class="edge"><title>Node3&#45;&gt;Node7</title>
<path fill="none" stroke="midnightblue" d="M520.28,-91.8104C543.857,-79.7478 572.341,-65.1745 596.132,-53.0021"/>
<polygon fill="midnightblue" stroke="midnightblue" points="518.481,-88.7993 511.172,-96.4699 521.669,-95.031 518.481,-88.7993"/>
</g>
<!-- Node8 -->
<g id="node8" class="node"><title>Node8</title>
<g id="a_node8"><a xlink:href="../../da/d8d/RecoDev_2AnaModule_2AnaModule_8cxx.html" target="_top" xlink:title="/dev/shm/kenichi/update\l&#45;github&#45;e1039&#45;doc/e1039\l&#45;analysis/RecoDev/AnaModule\l/AnaModule.cxx">
<polygon fill="none" stroke="black" points="737.5,-1 737.5,-53 884.5,-53 884.5,-1 737.5,-1"/>
<text text-anchor="start" x="745.5" y="-41" font-family="FreeSans" font-size="10.00">/dev/shm/kenichi/update</text>
<text text-anchor="start" x="745.5" y="-30" font-family="FreeSans" font-size="10.00">&#45;github&#45;e1039&#45;doc/e1039</text>
<text text-anchor="start" x="745.5" y="-19" font-family="FreeSans" font-size="10.00">&#45;analysis/RecoDev/AnaModule</text>
<text text-anchor="middle" x="811" y="-8" font-family="FreeSans" font-size="10.00">/AnaModule.cxx</text>
</a>
</g>
</g>
<!-- Node3&#45;&gt;Node8 -->
<g id="edge7" class="edge"><title>Node3&#45;&gt;Node8</title>
<path fill="none" stroke="midnightblue" d="M565.893,-94.083C625.664,-79.8513 697.645,-62.435 728,-54 731.055,-53.151 734.168,-52.2663 737.308,-51.3576"/>
<polygon fill="midnightblue" stroke="midnightblue" points="564.952,-90.7091 556.033,-96.4282 566.572,-97.5191 564.952,-90.7091"/>
</g>
</g>
</svg>
