<?xml version="1.0" encoding="UTF-8" standalone="no"?>
<!DOCTYPE svg PUBLIC "-//W3C//DTD SVG 1.1//EN"
 "http://www.w3.org/Graphics/SVG/1.1/DTD/svg11.dtd">
<!-- Generated by graphviz version 2.44.0 (0)
 -->
<!-- Title: UtilOnline::GetDstFileDir Pages: 1 -->
<svg width="342pt" height="104pt"
 viewBox="0.00 0.00 342.00 104.00" xmlns="http://www.w3.org/2000/svg" xmlns:xlink="http://www.w3.org/1999/xlink">
<g id="graph0" class="graph" transform="scale(1 1) rotate(0) translate(4 100)">
<title>UtilOnline::GetDstFileDir</title>
<!-- Node1 -->
<g id="node1" class="node">
<title>Node1</title>
<g id="a_node1"><a xlink:title=" ">
<polygon fill="#bfbfbf" stroke="black" points="197,-38.5 197,-57.5 334,-57.5 334,-38.5 197,-38.5"/>
<text text-anchor="middle" x="265.5" y="-45.5" font-family="FreeSans" font-size="10.00">UtilOnline::GetDstFileDir</text>
</a>
</g>
</g>
<!-- Node2 -->
<g id="node2" class="node">
<title>Node2</title>
<g id="a_node2"><a xlink:href="../../de/dfb/namespaceUtilMine.html#a74f3562c707a308fdb3e27743cef0f3f" target="_top" xlink:title=" ">
<polygon fill="none" stroke="black" points="12.5,-76.5 12.5,-95.5 148.5,-95.5 148.5,-76.5 12.5,-76.5"/>
<text text-anchor="middle" x="80.5" y="-83.5" font-family="FreeSans" font-size="10.00">UtilMine::GetDstFilePath</text>
</a>
</g>
</g>
<!-- Node1&#45;&gt;Node2 -->
<g id="edge1" class="edge">
<title>Node1&#45;&gt;Node2</title>
<path fill="none" stroke="midnightblue" d="M208.25,-59.68C182.29,-65.07 151.88,-71.39 127.35,-76.48"/>
<polygon fill="midnightblue" stroke="midnightblue" points="209.24,-63.05 218.32,-57.59 207.82,-56.2 209.24,-63.05"/>
</g>
<!-- Node3 -->
<g id="node3" class="node">
<title>Node3</title>
<g id="a_node3"><a xlink:href="../../de/dfb/namespaceUtilMine.html#af73c7a53909d36dd94e04d1a1d0ffd70" target="_top" xlink:title=" ">
<polygon fill="none" stroke="black" points="3.5,-38.5 3.5,-57.5 157.5,-57.5 157.5,-38.5 3.5,-38.5"/>
<text text-anchor="middle" x="80.5" y="-45.5" font-family="FreeSans" font-size="10.00">UtilMine::GetListOfSpillDSTs</text>
</a>
</g>
</g>
<!-- Node1&#45;&gt;Node3 -->
<g id="edge2" class="edge">
<title>Node1&#45;&gt;Node3</title>
<path fill="none" stroke="midnightblue" d="M186.62,-48C177.07,-48 167.32,-48 157.79,-48"/>
<polygon fill="midnightblue" stroke="midnightblue" points="186.88,-51.5 196.88,-48 186.88,-44.5 186.88,-51.5"/>
</g>
<!-- Node4 -->
<g id="node4" class="node">
<title>Node4</title>
<g id="a_node4"><a xlink:href="../../df/da2/classUtilOnline.html#a80d5c9bebe21a409928194d1799bd798" target="_top" xlink:title=" ">
<polygon fill="none" stroke="black" points="0,-0.5 0,-19.5 161,-19.5 161,-0.5 0,-0.5"/>
<text text-anchor="middle" x="80.5" y="-7.5" font-family="FreeSans" font-size="10.00">UtilOnline::GetListOfSpillDSTs</text>
</a>
</g>
</g>
<!-- Node1&#45;&gt;Node4 -->
<g id="edge3" class="edge">
<title>Node1&#45;&gt;Node4</title>
<path fill="none" stroke="midnightblue" d="M208.25,-36.32C182.29,-30.93 151.88,-24.61 127.35,-19.52"/>
<polygon fill="midnightblue" stroke="midnightblue" points="207.82,-39.8 218.32,-38.41 209.24,-32.95 207.82,-39.8"/>
</g>
</g>
</svg>
