<?xml version="1.0" encoding="UTF-8" standalone="no"?>
<!DOCTYPE svg PUBLIC "-//W3C//DTD SVG 1.1//EN"
 "http://www.w3.org/Graphics/SVG/1.1/DTD/svg11.dtd">
<!-- Generated by graphviz version 2.36.0 (20140111.2315)
 -->
<!-- Title: TriggerRoad::reflectLR Pages: 1 -->
<svg width="908pt" height="294pt"
 viewBox="0.00 0.00 908.00 294.00" xmlns="http://www.w3.org/2000/svg" xmlns:xlink="http://www.w3.org/1999/xlink">
<g id="graph0" class="graph" transform="scale(1 1) rotate(0) translate(4 290)">
<title>TriggerRoad::reflectLR</title>
<!-- Node1 -->
<g id="node1" class="node"><title>Node1</title>
<polygon fill="#bfbfbf" stroke="black" points="0.5,-152.5 0.5,-171.5 113.5,-171.5 113.5,-152.5 0.5,-152.5"/>
<text text-anchor="middle" x="57" y="-159.5" font-family="FreeSans" font-size="10.00">TriggerRoad::reflectLR</text>
</g>
<!-- Node2 -->
<g id="node2" class="node"><title>Node2</title>
<g id="a_node2"><a xlink:href="../../d0/da0/classGeomSvc.html#ab5c7737b3c015da421b6ac756a35213c" target="_top" xlink:title="GeomSvc::getPlaneNElements">
<polygon fill="none" stroke="black" points="150.5,-171.5 150.5,-190.5 301.5,-190.5 301.5,-171.5 150.5,-171.5"/>
<text text-anchor="middle" x="226" y="-178.5" font-family="FreeSans" font-size="10.00">GeomSvc::getPlaneNElements</text>
</a>
</g>
</g>
<!-- Node1&#45;&gt;Node2 -->
<g id="edge1" class="edge"><title>Node1&#45;&gt;Node2</title>
<path fill="none" stroke="midnightblue" d="M113.609,-168.327C122.157,-169.299 131.146,-170.322 140.156,-171.347"/>
<polygon fill="midnightblue" stroke="midnightblue" points="139.983,-174.85 150.315,-172.503 140.775,-167.895 139.983,-174.85"/>
</g>
<!-- Node3 -->
<g id="node3" class="node"><title>Node3</title>
<g id="a_node3"><a xlink:href="../../d0/da0/classGeomSvc.html#a2b7ecf5467120206b9479654c48ad7c4" target="_top" xlink:title="singlton instance ">
<polygon fill="none" stroke="black" points="175.5,-133.5 175.5,-152.5 276.5,-152.5 276.5,-133.5 175.5,-133.5"/>
<text text-anchor="middle" x="226" y="-140.5" font-family="FreeSans" font-size="10.00">GeomSvc::instance</text>
</a>
</g>
</g>
<!-- Node1&#45;&gt;Node3 -->
<g id="edge2" class="edge"><title>Node1&#45;&gt;Node3</title>
<path fill="none" stroke="midnightblue" d="M113.609,-155.673C130.109,-153.796 148.252,-151.732 165.017,-149.824"/>
<polygon fill="midnightblue" stroke="midnightblue" points="165.711,-153.268 175.251,-148.66 164.92,-146.313 165.711,-153.268"/>
</g>
<!-- Node4 -->
<g id="node4" class="node"><title>Node4</title>
<g id="a_node4"><a xlink:href="../../d0/da0/classGeomSvc.html#a96ec4efc82cbaed0b5623e4dd69385b6" target="_top" xlink:title="Initialization, either from MySQL or from ascii file. ">
<polygon fill="none" stroke="black" points="338.5,-133.5 338.5,-152.5 415.5,-152.5 415.5,-133.5 338.5,-133.5"/>
<text text-anchor="middle" x="377" y="-140.5" font-family="FreeSans" font-size="10.00">GeomSvc::init</text>
</a>
</g>
</g>
<!-- Node3&#45;&gt;Node4 -->
<g id="edge3" class="edge"><title>Node3&#45;&gt;Node4</title>
<path fill="none" stroke="midnightblue" d="M276.615,-143C293.143,-143 311.517,-143 327.926,-143"/>
<polygon fill="midnightblue" stroke="midnightblue" points="328.386,-146.5 338.386,-143 328.386,-139.5 328.386,-146.5"/>
</g>
<!-- Node5 -->
<g id="node5" class="node"><title>Node5</title>
<g id="a_node5"><a xlink:href="../../d8/d62/classJobOptsSvc.html#a69dc60468eadf965122fcb5d82be8d18" target="_top" xlink:title="Return the URL for the input MySQL server. ">
<polygon fill="none" stroke="black" points="452,-266.5 452,-285.5 618,-285.5 618,-266.5 452,-266.5"/>
<text text-anchor="middle" x="535" y="-273.5" font-family="FreeSans" font-size="10.00">JobOptsSvc::GetInputMySQLURL</text>
</a>
</g>
</g>
<!-- Node4&#45;&gt;Node5 -->
<g id="edge4" class="edge"><title>Node4&#45;&gt;Node5</title>
<path fill="none" stroke="midnightblue" d="M381.9,-152.819C390.901,-174.201 415.209,-225.201 452,-252 457.935,-256.323 464.64,-259.872 471.597,-262.784"/>
<polygon fill="midnightblue" stroke="midnightblue" points="470.597,-266.146 481.189,-266.373 473.05,-259.59 470.597,-266.146"/>
</g>
<!-- Node6 -->
<g id="node6" class="node"><title>Node6</title>
<g id="a_node6"><a xlink:href="../../dc/d90/classPlane.html#a48ab3a309bee8c386464b36a7593df16" target="_top" xlink:title="Plane::getW">
<polygon fill="none" stroke="black" points="832,-190.5 832,-209.5 900,-209.5 900,-190.5 832,-190.5"/>
<text text-anchor="middle" x="866" y="-197.5" font-family="FreeSans" font-size="10.00">Plane::getW</text>
</a>
</g>
</g>
<!-- Node4&#45;&gt;Node6 -->
<g id="edge5" class="edge"><title>Node4&#45;&gt;Node6</title>
<path fill="none" stroke="midnightblue" d="M383.622,-152.566C394.351,-169.749 419.594,-205.323 452,-219 579.896,-272.978 750.266,-234.553 825.937,-212.534"/>
<polygon fill="midnightblue" stroke="midnightblue" points="827.386,-215.755 835.972,-209.548 825.389,-209.046 827.386,-215.755"/>
</g>
<!-- Node7 -->
<g id="node7" class="node"><title>Node7</title>
<g id="a_node7"><a xlink:href="../../d8/d62/classJobOptsSvc.html#aeb0d694dc08274aa90b0d6b1ee8384cb" target="_top" xlink:title="singlton instance ">
<polygon fill="none" stroke="black" points="479,-190.5 479,-209.5 591,-209.5 591,-190.5 479,-190.5"/>
<text text-anchor="middle" x="535" y="-197.5" font-family="FreeSans" font-size="10.00">JobOptsSvc::instance</text>
</a>
</g>
</g>
<!-- Node4&#45;&gt;Node7 -->
<g id="edge6" class="edge"><title>Node4&#45;&gt;Node7</title>
<path fill="none" stroke="midnightblue" d="M393.935,-152.648C408.579,-161.154 431.116,-173.352 452,-181 459.06,-183.586 466.595,-185.899 474.129,-187.946"/>
<polygon fill="midnightblue" stroke="midnightblue" points="473.434,-191.381 483.991,-190.484 475.178,-184.602 473.434,-191.381"/>
</g>
<!-- Node9 -->
<g id="node9" class="node"><title>Node9</title>
<g id="a_node9"><a xlink:href="../../d0/da0/classGeomSvc.html#ab6c810e39b86ce66a4be6a596b4d54b8" target="_top" xlink:title="GeomSvc::loadAlignment">
<polygon fill="none" stroke="black" points="472,-152.5 472,-171.5 598,-171.5 598,-152.5 472,-152.5"/>
<text text-anchor="middle" x="535" y="-159.5" font-family="FreeSans" font-size="10.00">GeomSvc::loadAlignment</text>
</a>
</g>
</g>
<!-- Node4&#45;&gt;Node9 -->
<g id="edge8" class="edge"><title>Node4&#45;&gt;Node9</title>
<path fill="none" stroke="midnightblue" d="M415.763,-147.599C429.596,-149.284 445.753,-151.252 461.6,-153.182"/>
<polygon fill="midnightblue" stroke="midnightblue" points="461.592,-156.707 471.942,-154.442 462.439,-149.758 461.592,-156.707"/>
</g>
<!-- Node10 -->
<g id="node10" class="node"><title>Node10</title>
<g id="a_node10"><a xlink:href="../../dc/d90/classPlane.html#a7fbb07f76503fe057772e01f542afc32" target="_top" xlink:title="Plane::update">
<polygon fill="none" stroke="black" points="687.5,-133.5 687.5,-152.5 762.5,-152.5 762.5,-133.5 687.5,-133.5"/>
<text text-anchor="middle" x="725" y="-140.5" font-family="FreeSans" font-size="10.00">Plane::update</text>
</a>
</g>
</g>
<!-- Node4&#45;&gt;Node10 -->
<g id="edge16" class="edge"><title>Node4&#45;&gt;Node10</title>
<path fill="none" stroke="midnightblue" d="M415.687,-143C479.326,-143 607.914,-143 677.217,-143"/>
<polygon fill="midnightblue" stroke="midnightblue" points="677.404,-146.5 687.404,-143 677.404,-139.5 677.404,-146.5"/>
</g>
<!-- Node11 -->
<g id="node11" class="node"><title>Node11</title>
<g id="a_node11"><a xlink:href="../../d0/da0/classGeomSvc.html#abc60088ed5985a796f5df18ae4299661" target="_top" xlink:title="GeomSvc::loadCalibration">
<polygon fill="none" stroke="black" points="471,-38.5 471,-57.5 599,-57.5 599,-38.5 471,-38.5"/>
<text text-anchor="middle" x="535" y="-45.5" font-family="FreeSans" font-size="10.00">GeomSvc::loadCalibration</text>
</a>
</g>
</g>
<!-- Node4&#45;&gt;Node11 -->
<g id="edge11" class="edge"><title>Node4&#45;&gt;Node11</title>
<path fill="none" stroke="midnightblue" d="M384.506,-133.36C396.068,-117.018 421.838,-83.9985 452,-67 455.974,-64.7601 460.199,-62.784 464.553,-61.0406"/>
<polygon fill="midnightblue" stroke="midnightblue" points="466.004,-64.2393 474.247,-57.5837 463.653,-57.646 466.004,-64.2393"/>
</g>
<!-- Node13 -->
<g id="node13" class="node"><title>Node13</title>
<g id="a_node13"><a xlink:href="../../d0/da0/classGeomSvc.html#a418543d7b33fc95092b2cd4a7496f1b8" target="_top" xlink:title="GeomSvc::loadMilleAlignment">
<polygon fill="none" stroke="black" points="462,-76.5 462,-95.5 608,-95.5 608,-76.5 462,-76.5"/>
<text text-anchor="middle" x="535" y="-83.5" font-family="FreeSans" font-size="10.00">GeomSvc::loadMilleAlignment</text>
</a>
</g>
</g>
<!-- Node4&#45;&gt;Node13 -->
<g id="edge13" class="edge"><title>Node4&#45;&gt;Node13</title>
<path fill="none" stroke="midnightblue" d="M397.489,-133.442C412.241,-126.421 433.119,-116.937 452,-110 463.421,-105.804 475.943,-101.832 487.687,-98.3726"/>
<polygon fill="midnightblue" stroke="midnightblue" points="488.688,-101.727 497.327,-95.5932 486.749,-95.0005 488.688,-101.727"/>
</g>
<!-- Node14 -->
<g id="node14" class="node"><title>Node14</title>
<g id="a_node14"><a xlink:href="../../d0/da0/classGeomSvc.html#a315e886f05db8254ed7d320706e268e6" target="_top" xlink:title="Convert the official detectorName to local detectorName. ">
<polygon fill="none" stroke="black" points="455,-0.5 455,-19.5 615,-19.5 615,-0.5 455,-0.5"/>
<text text-anchor="middle" x="535" y="-7.5" font-family="FreeSans" font-size="10.00">GeomSvc::toLocalDetectorName</text>
</a>
</g>
</g>
<!-- Node4&#45;&gt;Node14 -->
<g id="edge15" class="edge"><title>Node4&#45;&gt;Node14</title>
<path fill="none" stroke="midnightblue" d="M381.401,-133.245C389.694,-110.975 413.163,-56.2227 452,-29 454.752,-27.0708 457.672,-25.3349 460.707,-23.7731"/>
<polygon fill="midnightblue" stroke="midnightblue" points="462.39,-26.8547 470.103,-19.591 459.544,-20.4595 462.39,-26.8547"/>
</g>
<!-- Node8 -->
<g id="node8" class="node"><title>Node8</title>
<g id="a_node8"><a xlink:href="../../dd/d23/JobOptsSvc_8cxx.html#a71e70a8ecc08c35494b083076d2ace7b" target="_top" xlink:title="debug">
<polygon fill="none" stroke="black" points="703.5,-190.5 703.5,-209.5 746.5,-209.5 746.5,-190.5 703.5,-190.5"/>
<text text-anchor="middle" x="725" y="-197.5" font-family="FreeSans" font-size="10.00">debug</text>
</a>
</g>
</g>
<!-- Node7&#45;&gt;Node8 -->
<g id="edge7" class="edge"><title>Node7&#45;&gt;Node8</title>
<path fill="none" stroke="midnightblue" d="M591.136,-200C624.422,-200 665.599,-200 693.213,-200"/>
<polygon fill="midnightblue" stroke="midnightblue" points="693.443,-203.5 703.443,-200 693.443,-196.5 693.443,-203.5"/>
</g>
<!-- Node9&#45;&gt;Node10 -->
<g id="edge9" class="edge"><title>Node9&#45;&gt;Node10</title>
<path fill="none" stroke="midnightblue" d="M598.079,-155.726C623.886,-153.118 653.336,-150.142 677.263,-147.723"/>
<polygon fill="midnightblue" stroke="midnightblue" points="677.896,-151.177 687.493,-146.69 677.192,-144.213 677.896,-151.177"/>
</g>
<!-- Node10&#45;&gt;Node6 -->
<g id="edge10" class="edge"><title>Node10&#45;&gt;Node6</title>
<path fill="none" stroke="midnightblue" d="M749.265,-152.541C772.017,-161.87 806.868,-176.162 832.382,-186.624"/>
<polygon fill="midnightblue" stroke="midnightblue" points="831.078,-189.872 841.659,-190.428 833.734,-183.396 831.078,-189.872"/>
</g>
<!-- Node12 -->
<g id="node12" class="node"><title>Node12</title>
<g id="a_node12"><a xlink:href="../../d0/da0/classGeomSvc.html#aa696cb33234daafbf55cb6859b809949" target="_top" xlink:title="GeomSvc::getDetectorName">
<polygon fill="none" stroke="black" points="654.5,-38.5 654.5,-57.5 795.5,-57.5 795.5,-38.5 654.5,-38.5"/>
<text text-anchor="middle" x="725" y="-45.5" font-family="FreeSans" font-size="10.00">GeomSvc::getDetectorName</text>
</a>
</g>
</g>
<!-- Node11&#45;&gt;Node12 -->
<g id="edge12" class="edge"><title>Node11&#45;&gt;Node12</title>
<path fill="none" stroke="midnightblue" d="M599.124,-48C613.512,-48 628.985,-48 643.973,-48"/>
<polygon fill="midnightblue" stroke="midnightblue" points="644.253,-51.5001 654.252,-48 644.252,-44.5001 644.253,-51.5001"/>
</g>
<!-- Node13&#45;&gt;Node10 -->
<g id="edge14" class="edge"><title>Node13&#45;&gt;Node10</title>
<path fill="none" stroke="midnightblue" d="M569.154,-95.5639C584.097,-99.9105 601.954,-105.154 618,-110 639.94,-116.625 664.368,-124.216 684.239,-130.445"/>
<polygon fill="midnightblue" stroke="midnightblue" points="683.297,-133.818 693.886,-133.475 685.394,-127.139 683.297,-133.818"/>
</g>
</g>
</svg>
