<?xml version="1.0" encoding="UTF-8" standalone="no"?>
<!DOCTYPE svg PUBLIC "-//W3C//DTD SVG 1.1//EN"
 "http://www.w3.org/Graphics/SVG/1.1/DTD/svg11.dtd">
<!-- Generated by graphviz version 2.40.1 (20161225.0304)
 -->
<!-- Title: TriggerRoad::getpXMean Pages: 1 -->
<svg width="390pt" height="28pt"
 viewBox="0.00 0.00 390.00 28.00" xmlns="http://www.w3.org/2000/svg" xmlns:xlink="http://www.w3.org/1999/xlink">
<g id="graph0" class="graph" transform="scale(1 1) rotate(0) translate(4 24)">
<title>TriggerRoad::getpXMean</title>
<!-- Node90 -->
<g id="node1" class="node">
<title>Node90</title>
<polygon fill="#bfbfbf" stroke="#000000" points="0,-.5 0,-19.5 123,-19.5 123,-.5 0,-.5"/>
<text text-anchor="middle" x="61.5" y="-7.5" font-family="FreeSans" font-size="10.00" fill="#000000">TriggerRoad::getpXMean</text>
</g>
<!-- Node91 -->
<g id="node2" class="node">
<title>Node91</title>
<g id="a_node2"><a xlink:href="../../d5/d72/classTriggerRoad.html#a83f5595074bbeecf464a6d6c75ff12b2" target="_top" xlink:title="TriggerRoad::getNEntries">
<polygon fill="none" stroke="#000000" points="159,-.5 159,-19.5 282,-19.5 282,-.5 159,-.5"/>
<text text-anchor="middle" x="220.5" y="-7.5" font-family="FreeSans" font-size="10.00" fill="#000000">TriggerRoad::getNEntries</text>
</a>
</g>
</g>
<!-- Node90&#45;&gt;Node91 -->
<g id="edge1" class="edge">
<title>Node90&#45;&gt;Node91</title>
<path fill="none" stroke="#191970" d="M133.5919,-10C141.9898,-10 150.499,-10 158.7402,-10"/>
<polygon fill="#191970" stroke="#191970" points="133.4289,-6.5001 123.4288,-10 133.4288,-13.5001 133.4289,-6.5001"/>
</g>
<!-- Node92 -->
<g id="node3" class="node">
<title>Node92</title>
<g id="a_node3"><a xlink:href="../../de/d74/TriggerRoad_8cxx.html#a4cfb63a9ffcec14b116383b367eda140" target="_top" xlink:title="operator\&lt;\&lt;">
<polygon fill="none" stroke="#000000" points="318,-.5 318,-19.5 382,-19.5 382,-.5 318,-.5"/>
<text text-anchor="middle" x="350" y="-7.5" font-family="FreeSans" font-size="10.00" fill="#000000">operator&lt;&lt;</text>
</a>
</g>
</g>
<!-- Node91&#45;&gt;Node92 -->
<g id="edge2" class="edge">
<title>Node91&#45;&gt;Node92</title>
<path fill="none" stroke="#191970" d="M292.3654,-10C301.3187,-10 310.0884,-10 317.9784,-10"/>
<polygon fill="#191970" stroke="#191970" points="292.2159,-6.5001 282.2158,-10 292.2158,-13.5001 292.2159,-6.5001"/>
</g>
</g>
</svg>
