<?xml version="1.0" encoding="UTF-8" standalone="no"?>
<!DOCTYPE svg PUBLIC "-//W3C//DTD SVG 1.1//EN"
 "http://www.w3.org/Graphics/SVG/1.1/DTD/svg11.dtd">
<!-- Generated by graphviz version 2.36.0 (20140111.2315)
 -->
<!-- Title: TriggerRoad::getLR Pages: 1 -->
<svg width="894pt" height="294pt"
 viewBox="0.00 0.00 894.00 294.00" xmlns="http://www.w3.org/2000/svg" xmlns:xlink="http://www.w3.org/1999/xlink">
<g id="graph0" class="graph" transform="scale(1 1) rotate(0) translate(4 290)">
<title>TriggerRoad::getLR</title>
<!-- Node1 -->
<g id="node1" class="node"><title>Node1</title>
<polygon fill="#bfbfbf" stroke="black" points="0,-152.5 0,-171.5 100,-171.5 100,-152.5 0,-152.5"/>
<text text-anchor="middle" x="50" y="-159.5" font-family="FreeSans" font-size="10.00">TriggerRoad::getLR</text>
</g>
<!-- Node2 -->
<g id="node2" class="node"><title>Node2</title>
<g id="a_node2"><a xlink:href="../../d0/da0/classGeomSvc.html#ab5c7737b3c015da421b6ac756a35213c" target="_top" xlink:title="GeomSvc::getPlaneNElements">
<polygon fill="none" stroke="black" points="136.5,-171.5 136.5,-190.5 287.5,-190.5 287.5,-171.5 136.5,-171.5"/>
<text text-anchor="middle" x="212" y="-178.5" font-family="FreeSans" font-size="10.00">GeomSvc::getPlaneNElements</text>
</a>
</g>
</g>
<!-- Node1&#45;&gt;Node2 -->
<g id="edge1" class="edge"><title>Node1&#45;&gt;Node2</title>
<path fill="none" stroke="midnightblue" d="M100.311,-167.856C108.583,-168.838 117.372,-169.882 126.238,-170.935"/>
<polygon fill="midnightblue" stroke="midnightblue" points="125.916,-174.421 136.259,-172.125 126.742,-167.47 125.916,-174.421"/>
</g>
<!-- Node3 -->
<g id="node3" class="node"><title>Node3</title>
<g id="a_node3"><a xlink:href="../../d0/da0/classGeomSvc.html#a2b7ecf5467120206b9479654c48ad7c4" target="_top" xlink:title="singlton instance ">
<polygon fill="none" stroke="black" points="161.5,-133.5 161.5,-152.5 262.5,-152.5 262.5,-133.5 161.5,-133.5"/>
<text text-anchor="middle" x="212" y="-140.5" font-family="FreeSans" font-size="10.00">GeomSvc::instance</text>
</a>
</g>
</g>
<!-- Node1&#45;&gt;Node3 -->
<g id="edge2" class="edge"><title>Node1&#45;&gt;Node3</title>
<path fill="none" stroke="midnightblue" d="M100.311,-156.144C116.355,-154.239 134.34,-152.103 151.073,-150.116"/>
<polygon fill="midnightblue" stroke="midnightblue" points="151.783,-153.557 161.301,-148.902 150.958,-146.606 151.783,-153.557"/>
</g>
<!-- Node4 -->
<g id="node4" class="node"><title>Node4</title>
<g id="a_node4"><a xlink:href="../../d0/da0/classGeomSvc.html#a96ec4efc82cbaed0b5623e4dd69385b6" target="_top" xlink:title="Initialization, either from MySQL or from ascii file. ">
<polygon fill="none" stroke="black" points="324.5,-133.5 324.5,-152.5 401.5,-152.5 401.5,-133.5 324.5,-133.5"/>
<text text-anchor="middle" x="363" y="-140.5" font-family="FreeSans" font-size="10.00">GeomSvc::init</text>
</a>
</g>
</g>
<!-- Node3&#45;&gt;Node4 -->
<g id="edge3" class="edge"><title>Node3&#45;&gt;Node4</title>
<path fill="none" stroke="midnightblue" d="M262.615,-143C279.143,-143 297.517,-143 313.926,-143"/>
<polygon fill="midnightblue" stroke="midnightblue" points="314.386,-146.5 324.386,-143 314.386,-139.5 314.386,-146.5"/>
</g>
<!-- Node5 -->
<g id="node5" class="node"><title>Node5</title>
<g id="a_node5"><a xlink:href="../../d8/d62/classJobOptsSvc.html#a69dc60468eadf965122fcb5d82be8d18" target="_top" xlink:title="Return the URL for the input MySQL server. ">
<polygon fill="none" stroke="black" points="438,-266.5 438,-285.5 604,-285.5 604,-266.5 438,-266.5"/>
<text text-anchor="middle" x="521" y="-273.5" font-family="FreeSans" font-size="10.00">JobOptsSvc::GetInputMySQLURL</text>
</a>
</g>
</g>
<!-- Node4&#45;&gt;Node5 -->
<g id="edge4" class="edge"><title>Node4&#45;&gt;Node5</title>
<path fill="none" stroke="midnightblue" d="M367.9,-152.819C376.901,-174.201 401.209,-225.201 438,-252 443.935,-256.323 450.64,-259.872 457.597,-262.784"/>
<polygon fill="midnightblue" stroke="midnightblue" points="456.597,-266.146 467.189,-266.373 459.05,-259.59 456.597,-266.146"/>
</g>
<!-- Node6 -->
<g id="node6" class="node"><title>Node6</title>
<g id="a_node6"><a xlink:href="../../dc/d90/classPlane.html#a48ab3a309bee8c386464b36a7593df16" target="_top" xlink:title="Plane::getW">
<polygon fill="none" stroke="black" points="818,-190.5 818,-209.5 886,-209.5 886,-190.5 818,-190.5"/>
<text text-anchor="middle" x="852" y="-197.5" font-family="FreeSans" font-size="10.00">Plane::getW</text>
</a>
</g>
</g>
<!-- Node4&#45;&gt;Node6 -->
<g id="edge5" class="edge"><title>Node4&#45;&gt;Node6</title>
<path fill="none" stroke="midnightblue" d="M369.622,-152.566C380.351,-169.749 405.594,-205.323 438,-219 565.896,-272.978 736.266,-234.553 811.937,-212.534"/>
<polygon fill="midnightblue" stroke="midnightblue" points="813.386,-215.755 821.972,-209.548 811.389,-209.046 813.386,-215.755"/>
</g>
<!-- Node7 -->
<g id="node7" class="node"><title>Node7</title>
<g id="a_node7"><a xlink:href="../../d8/d62/classJobOptsSvc.html#aeb0d694dc08274aa90b0d6b1ee8384cb" target="_top" xlink:title="singlton instance ">
<polygon fill="none" stroke="black" points="465,-190.5 465,-209.5 577,-209.5 577,-190.5 465,-190.5"/>
<text text-anchor="middle" x="521" y="-197.5" font-family="FreeSans" font-size="10.00">JobOptsSvc::instance</text>
</a>
</g>
</g>
<!-- Node4&#45;&gt;Node7 -->
<g id="edge6" class="edge"><title>Node4&#45;&gt;Node7</title>
<path fill="none" stroke="midnightblue" d="M379.935,-152.648C394.579,-161.154 417.116,-173.352 438,-181 445.06,-183.586 452.595,-185.899 460.129,-187.946"/>
<polygon fill="midnightblue" stroke="midnightblue" points="459.434,-191.381 469.991,-190.484 461.178,-184.602 459.434,-191.381"/>
</g>
<!-- Node9 -->
<g id="node9" class="node"><title>Node9</title>
<g id="a_node9"><a xlink:href="../../d0/da0/classGeomSvc.html#ab6c810e39b86ce66a4be6a596b4d54b8" target="_top" xlink:title="GeomSvc::loadAlignment">
<polygon fill="none" stroke="black" points="458,-152.5 458,-171.5 584,-171.5 584,-152.5 458,-152.5"/>
<text text-anchor="middle" x="521" y="-159.5" font-family="FreeSans" font-size="10.00">GeomSvc::loadAlignment</text>
</a>
</g>
</g>
<!-- Node4&#45;&gt;Node9 -->
<g id="edge8" class="edge"><title>Node4&#45;&gt;Node9</title>
<path fill="none" stroke="midnightblue" d="M401.763,-147.599C415.596,-149.284 431.753,-151.252 447.6,-153.182"/>
<polygon fill="midnightblue" stroke="midnightblue" points="447.592,-156.707 457.942,-154.442 448.439,-149.758 447.592,-156.707"/>
</g>
<!-- Node10 -->
<g id="node10" class="node"><title>Node10</title>
<g id="a_node10"><a xlink:href="../../dc/d90/classPlane.html#a7fbb07f76503fe057772e01f542afc32" target="_top" xlink:title="Plane::update">
<polygon fill="none" stroke="black" points="673.5,-133.5 673.5,-152.5 748.5,-152.5 748.5,-133.5 673.5,-133.5"/>
<text text-anchor="middle" x="711" y="-140.5" font-family="FreeSans" font-size="10.00">Plane::update</text>
</a>
</g>
</g>
<!-- Node4&#45;&gt;Node10 -->
<g id="edge16" class="edge"><title>Node4&#45;&gt;Node10</title>
<path fill="none" stroke="midnightblue" d="M401.687,-143C465.326,-143 593.914,-143 663.217,-143"/>
<polygon fill="midnightblue" stroke="midnightblue" points="663.404,-146.5 673.404,-143 663.404,-139.5 663.404,-146.5"/>
</g>
<!-- Node11 -->
<g id="node11" class="node"><title>Node11</title>
<g id="a_node11"><a xlink:href="../../d0/da0/classGeomSvc.html#abc60088ed5985a796f5df18ae4299661" target="_top" xlink:title="GeomSvc::loadCalibration">
<polygon fill="none" stroke="black" points="457,-38.5 457,-57.5 585,-57.5 585,-38.5 457,-38.5"/>
<text text-anchor="middle" x="521" y="-45.5" font-family="FreeSans" font-size="10.00">GeomSvc::loadCalibration</text>
</a>
</g>
</g>
<!-- Node4&#45;&gt;Node11 -->
<g id="edge11" class="edge"><title>Node4&#45;&gt;Node11</title>
<path fill="none" stroke="midnightblue" d="M370.506,-133.36C382.068,-117.018 407.838,-83.9985 438,-67 441.974,-64.7601 446.199,-62.784 450.553,-61.0406"/>
<polygon fill="midnightblue" stroke="midnightblue" points="452.004,-64.2393 460.247,-57.5837 449.653,-57.646 452.004,-64.2393"/>
</g>
<!-- Node13 -->
<g id="node13" class="node"><title>Node13</title>
<g id="a_node13"><a xlink:href="../../d0/da0/classGeomSvc.html#a418543d7b33fc95092b2cd4a7496f1b8" target="_top" xlink:title="GeomSvc::loadMilleAlignment">
<polygon fill="none" stroke="black" points="448,-76.5 448,-95.5 594,-95.5 594,-76.5 448,-76.5"/>
<text text-anchor="middle" x="521" y="-83.5" font-family="FreeSans" font-size="10.00">GeomSvc::loadMilleAlignment</text>
</a>
</g>
</g>
<!-- Node4&#45;&gt;Node13 -->
<g id="edge13" class="edge"><title>Node4&#45;&gt;Node13</title>
<path fill="none" stroke="midnightblue" d="M383.489,-133.442C398.241,-126.421 419.119,-116.937 438,-110 449.421,-105.804 461.943,-101.832 473.687,-98.3726"/>
<polygon fill="midnightblue" stroke="midnightblue" points="474.688,-101.727 483.327,-95.5932 472.749,-95.0005 474.688,-101.727"/>
</g>
<!-- Node14 -->
<g id="node14" class="node"><title>Node14</title>
<g id="a_node14"><a xlink:href="../../d0/da0/classGeomSvc.html#a315e886f05db8254ed7d320706e268e6" target="_top" xlink:title="Convert the official detectorName to local detectorName. ">
<polygon fill="none" stroke="black" points="441,-0.5 441,-19.5 601,-19.5 601,-0.5 441,-0.5"/>
<text text-anchor="middle" x="521" y="-7.5" font-family="FreeSans" font-size="10.00">GeomSvc::toLocalDetectorName</text>
</a>
</g>
</g>
<!-- Node4&#45;&gt;Node14 -->
<g id="edge15" class="edge"><title>Node4&#45;&gt;Node14</title>
<path fill="none" stroke="midnightblue" d="M367.401,-133.245C375.694,-110.975 399.163,-56.2227 438,-29 440.752,-27.0708 443.672,-25.3349 446.707,-23.7731"/>
<polygon fill="midnightblue" stroke="midnightblue" points="448.39,-26.8547 456.103,-19.591 445.544,-20.4595 448.39,-26.8547"/>
</g>
<!-- Node8 -->
<g id="node8" class="node"><title>Node8</title>
<g id="a_node8"><a xlink:href="../../dd/d23/JobOptsSvc_8cxx.html#a71e70a8ecc08c35494b083076d2ace7b" target="_top" xlink:title="debug">
<polygon fill="none" stroke="black" points="689.5,-190.5 689.5,-209.5 732.5,-209.5 732.5,-190.5 689.5,-190.5"/>
<text text-anchor="middle" x="711" y="-197.5" font-family="FreeSans" font-size="10.00">debug</text>
</a>
</g>
</g>
<!-- Node7&#45;&gt;Node8 -->
<g id="edge7" class="edge"><title>Node7&#45;&gt;Node8</title>
<path fill="none" stroke="midnightblue" d="M577.136,-200C610.422,-200 651.599,-200 679.213,-200"/>
<polygon fill="midnightblue" stroke="midnightblue" points="679.443,-203.5 689.443,-200 679.443,-196.5 679.443,-203.5"/>
</g>
<!-- Node9&#45;&gt;Node10 -->
<g id="edge9" class="edge"><title>Node9&#45;&gt;Node10</title>
<path fill="none" stroke="midnightblue" d="M584.079,-155.726C609.886,-153.118 639.336,-150.142 663.263,-147.723"/>
<polygon fill="midnightblue" stroke="midnightblue" points="663.896,-151.177 673.493,-146.69 663.192,-144.213 663.896,-151.177"/>
</g>
<!-- Node10&#45;&gt;Node6 -->
<g id="edge10" class="edge"><title>Node10&#45;&gt;Node6</title>
<path fill="none" stroke="midnightblue" d="M735.265,-152.541C758.017,-161.87 792.868,-176.162 818.382,-186.624"/>
<polygon fill="midnightblue" stroke="midnightblue" points="817.078,-189.872 827.659,-190.428 819.734,-183.396 817.078,-189.872"/>
</g>
<!-- Node12 -->
<g id="node12" class="node"><title>Node12</title>
<g id="a_node12"><a xlink:href="../../d0/da0/classGeomSvc.html#aa696cb33234daafbf55cb6859b809949" target="_top" xlink:title="GeomSvc::getDetectorName">
<polygon fill="none" stroke="black" points="640.5,-38.5 640.5,-57.5 781.5,-57.5 781.5,-38.5 640.5,-38.5"/>
<text text-anchor="middle" x="711" y="-45.5" font-family="FreeSans" font-size="10.00">GeomSvc::getDetectorName</text>
</a>
</g>
</g>
<!-- Node11&#45;&gt;Node12 -->
<g id="edge12" class="edge"><title>Node11&#45;&gt;Node12</title>
<path fill="none" stroke="midnightblue" d="M585.124,-48C599.512,-48 614.985,-48 629.973,-48"/>
<polygon fill="midnightblue" stroke="midnightblue" points="630.253,-51.5001 640.252,-48 630.252,-44.5001 630.253,-51.5001"/>
</g>
<!-- Node13&#45;&gt;Node10 -->
<g id="edge14" class="edge"><title>Node13&#45;&gt;Node10</title>
<path fill="none" stroke="midnightblue" d="M555.154,-95.5639C570.097,-99.9105 587.954,-105.154 604,-110 625.94,-116.625 650.368,-124.216 670.239,-130.445"/>
<polygon fill="midnightblue" stroke="midnightblue" points="669.297,-133.818 679.886,-133.475 671.394,-127.139 669.297,-133.818"/>
</g>
</g>
</svg>
