<?xml version="1.0" encoding="UTF-8" standalone="no"?>
<!DOCTYPE svg PUBLIC "-//W3C//DTD SVG 1.1//EN"
 "http://www.w3.org/Graphics/SVG/1.1/DTD/svg11.dtd">
<!-- Generated by graphviz version 2.30.1 (20200930.0103)
 -->
<!-- Title: TrkPar::get_mom_vec Pages: 1 -->
<svg width="1542pt" height="270pt"
 viewBox="0.00 0.00 1542.00 270.00" xmlns="http://www.w3.org/2000/svg" xmlns:xlink="http://www.w3.org/1999/xlink">
<g id="graph0" class="graph" transform="scale(1 1) rotate(0) translate(4 266)">
<title>TrkPar::get_mom_vec</title>
<!-- Node1 -->
<g id="node1" class="node"><title>Node1</title>
<polygon fill="#bfbfbf" stroke="black" points="0.5,-209.5 0.5,-228.5 111.5,-228.5 111.5,-209.5 0.5,-209.5"/>
<text text-anchor="middle" x="56" y="-216.5" font-family="FreeSans" font-size="10.00">TrkPar::get_mom_vec</text>
</g>
<!-- Node2 -->
<g id="node2" class="node"><title>Node2</title>
<g id="a_node2"><a xlink:href="../../d6/db1/classSRecTrack.html#a4e6933a5892c3e5fd593046ac3ee94a5" target="_top" xlink:title="SRecTrack::setZVertex">
<polygon fill="none" stroke="black" points="148,-209.5 148,-228.5 264,-228.5 264,-209.5 148,-209.5"/>
<text text-anchor="middle" x="206" y="-216.5" font-family="FreeSans" font-size="10.00">SRecTrack::setZVertex</text>
</a>
</g>
</g>
<!-- Node1&#45;&gt;Node2 -->
<g id="edge1" class="edge"><title>Node1&#45;&gt;Node2</title>
<path fill="none" stroke="midnightblue" d="M121.691,-219C130.301,-219 139.083,-219 147.559,-219"/>
<polygon fill="midnightblue" stroke="midnightblue" points="121.689,-215.5 111.689,-219 121.689,-222.5 121.689,-215.5"/>
</g>
<!-- Node3 -->
<g id="node3" class="node"><title>Node3</title>
<g id="a_node3"><a xlink:href="../../d1/d13/classVertexFit.html#a080d08ef76e4108261aaf89373c07211" target="_top" xlink:title="Set the SRecEvent, main external call the use vertex fit. ">
<polygon fill="none" stroke="black" points="879.5,-236.5 879.5,-255.5 992.5,-255.5 992.5,-236.5 879.5,-236.5"/>
<text text-anchor="middle" x="936" y="-243.5" font-family="FreeSans" font-size="10.00">VertexFit::setRecEvent</text>
</a>
</g>
</g>
<!-- Node2&#45;&gt;Node3 -->
<g id="edge2" class="edge"><title>Node2&#45;&gt;Node3</title>
<path fill="none" stroke="midnightblue" d="M274.481,-221.503C417.195,-226.796 747.306,-239.039 879.14,-243.928"/>
<polygon fill="midnightblue" stroke="midnightblue" points="274.248,-217.992 264.125,-221.119 273.988,-224.987 274.248,-217.992"/>
</g>
<!-- Node5 -->
<g id="node5" class="node"><title>Node5</title>
<g id="a_node5"><a xlink:href="../../d6/db1/classSRecTrack.html#ad6b6be2adfcd60d2442306cda12cdc0c" target="_top" xlink:title="SRecTrack::updateVtxHypothesis">
<polygon fill="none" stroke="black" points="300.5,-179.5 300.5,-198.5 459.5,-198.5 459.5,-179.5 300.5,-179.5"/>
<text text-anchor="middle" x="380" y="-186.5" font-family="FreeSans" font-size="10.00">SRecTrack::updateVtxHypothesis</text>
</a>
</g>
</g>
<!-- Node2&#45;&gt;Node5 -->
<g id="edge4" class="edge"><title>Node2&#45;&gt;Node5</title>
<path fill="none" stroke="midnightblue" d="M271.903,-207.68C289.179,-204.666 307.665,-201.442 324.332,-198.535"/>
<polygon fill="midnightblue" stroke="midnightblue" points="271.145,-204.259 261.895,-209.425 272.347,-211.155 271.145,-204.259"/>
</g>
<!-- Node4 -->
<g id="node4" class="node"><title>Node4</title>
<g id="a_node4"><a xlink:href="../../d1/d13/classVertexFit.html#a056c9f1aa5805bfd6f92e833722dd25e" target="_top" xlink:title="VertexFit::process\l_event">
<polygon fill="none" stroke="black" points="1075,-231 1075,-261 1167,-261 1167,-231 1075,-231"/>
<text text-anchor="start" x="1083" y="-249" font-family="FreeSans" font-size="10.00">VertexFit::process</text>
<text text-anchor="middle" x="1121" y="-238" font-family="FreeSans" font-size="10.00">_event</text>
</a>
</g>
</g>
<!-- Node3&#45;&gt;Node4 -->
<g id="edge3" class="edge"><title>Node3&#45;&gt;Node4</title>
<path fill="none" stroke="midnightblue" d="M1002.95,-246C1026.81,-246 1053.19,-246 1074.86,-246"/>
<polygon fill="midnightblue" stroke="midnightblue" points="1002.9,-242.5 992.9,-246 1002.9,-249.5 1002.9,-242.5"/>
</g>
<!-- Node6 -->
<g id="node6" class="node"><title>Node6</title>
<g id="a_node6"><a xlink:href="../../d6/db1/classSRecTrack.html#ac4816a2258e2eb44694715d20b9127ab" target="_top" xlink:title="Simple swim to vertex. ">
<polygon fill="none" stroke="black" points="496,-157.5 496,-176.5 626,-176.5 626,-157.5 496,-157.5"/>
<text text-anchor="middle" x="561" y="-164.5" font-family="FreeSans" font-size="10.00">SRecTrack::swimToVertex</text>
</a>
</g>
</g>
<!-- Node5&#45;&gt;Node6 -->
<g id="edge5" class="edge"><title>Node5&#45;&gt;Node6</title>
<path fill="none" stroke="midnightblue" d="M468.458,-178.251C477.69,-177.116 486.951,-175.978 495.847,-174.885"/>
<polygon fill="midnightblue" stroke="midnightblue" points="467.969,-174.785 458.471,-179.478 468.823,-181.732 467.969,-174.785"/>
</g>
<!-- Node7 -->
<g id="node7" class="node"><title>Node7</title>
<g id="a_node7"><a xlink:href="../../d1/d13/classVertexFit.html#a19eb69c177fa675e1e63e8a054a5c645" target="_top" xlink:title="VertexFit::findDimuonVertexFast">
<polygon fill="none" stroke="black" points="662.5,-201.5 662.5,-220.5 815.5,-220.5 815.5,-201.5 662.5,-201.5"/>
<text text-anchor="middle" x="739" y="-208.5" font-family="FreeSans" font-size="10.00">VertexFit::findDimuonVertexFast</text>
</a>
</g>
</g>
<!-- Node6&#45;&gt;Node7 -->
<g id="edge6" class="edge"><title>Node6&#45;&gt;Node7</title>
<path fill="none" stroke="midnightblue" d="M610.247,-179.062C638.474,-186.118 673.61,-194.902 699.885,-201.471"/>
<polygon fill="midnightblue" stroke="midnightblue" points="610.74,-175.577 600.189,-176.547 609.042,-182.368 610.74,-175.577"/>
</g>
<!-- Node8 -->
<g id="node8" class="node"><title>Node8</title>
<g id="a_node8"><a xlink:href="../../d2/d6b/classSQGenFit_1_1GFTrack.html#a4c47a82cf378aae1787e2dc4d168b658" target="_top" xlink:title="SQGenFit::GFTrack::\lgetSRecTrack">
<polygon fill="none" stroke="black" points="685.5,-152 685.5,-182 792.5,-182 792.5,-152 685.5,-152"/>
<text text-anchor="start" x="693.5" y="-170" font-family="FreeSans" font-size="10.00">SQGenFit::GFTrack::</text>
<text text-anchor="middle" x="739" y="-159" font-family="FreeSans" font-size="10.00">getSRecTrack</text>
</a>
</g>
</g>
<!-- Node6&#45;&gt;Node8 -->
<g id="edge8" class="edge"><title>Node6&#45;&gt;Node8</title>
<path fill="none" stroke="midnightblue" d="M636.201,-167C652.695,-167 669.853,-167 685.278,-167"/>
<polygon fill="midnightblue" stroke="midnightblue" points="636.038,-163.5 626.038,-167 636.038,-170.5 636.038,-163.5"/>
</g>
<!-- Node10 -->
<g id="node10" class="node"><title>Node10</title>
<g id="a_node10"><a xlink:href="../../d9/dc3/classKalmanTrack.html#a38e275864291b276a96abd8c50de4282" target="_top" xlink:title="Output to SRecTrack. ">
<polygon fill="none" stroke="black" points="668.5,-113.5 668.5,-132.5 809.5,-132.5 809.5,-113.5 668.5,-113.5"/>
<text text-anchor="middle" x="739" y="-120.5" font-family="FreeSans" font-size="10.00">KalmanTrack::getSRecTrack</text>
</a>
</g>
</g>
<!-- Node6&#45;&gt;Node10 -->
<g id="edge10" class="edge"><title>Node6&#45;&gt;Node10</title>
<path fill="none" stroke="midnightblue" d="M610.247,-154.938C638.474,-147.882 673.61,-139.098 699.885,-132.529"/>
<polygon fill="midnightblue" stroke="midnightblue" points="609.042,-151.632 600.189,-157.453 610.74,-158.423 609.042,-151.632"/>
</g>
<!-- Node21 -->
<g id="node21" class="node"><title>Node21</title>
<g id="a_node21"><a xlink:href="../../d2/d26/classTracklet.html#aa0ca7e43f4d1359b0068c35299a70db5" target="_top" xlink:title="Tracklet::getSRecTrack">
<polygon fill="none" stroke="black" points="679.5,-75.5 679.5,-94.5 798.5,-94.5 798.5,-75.5 679.5,-75.5"/>
<text text-anchor="middle" x="739" y="-82.5" font-family="FreeSans" font-size="10.00">Tracklet::getSRecTrack</text>
</a>
</g>
</g>
<!-- Node6&#45;&gt;Node21 -->
<g id="edge24" class="edge"><title>Node6&#45;&gt;Node21</title>
<path fill="none" stroke="midnightblue" d="M582.345,-151.451C601.831,-137.24 632.544,-116.578 662,-104 670.755,-100.261 680.405,-97.1465 689.805,-94.5941"/>
<polygon fill="midnightblue" stroke="midnightblue" points="580.172,-148.705 574.226,-157.474 584.343,-154.327 580.172,-148.705"/>
</g>
<!-- Node7&#45;&gt;Node3 -->
<g id="edge7" class="edge"><title>Node7&#45;&gt;Node3</title>
<path fill="none" stroke="midnightblue" d="M802.971,-222.303C828.472,-226.88 857.592,-232.106 881.984,-236.484"/>
<polygon fill="midnightblue" stroke="midnightblue" points="803.488,-218.839 793.027,-220.518 802.251,-225.729 803.488,-218.839"/>
</g>
<!-- Node9 -->
<g id="node9" class="node"><title>Node9</title>
<g id="a_node9"><a xlink:href="../../df/df2/classSQReco.html#a32bb088e7896b2ecdb5b9aa4df1f6a50" target="_top" xlink:title="SQReco::fitTrackCand">
<polygon fill="none" stroke="black" points="879.5,-197.5 879.5,-216.5 992.5,-216.5 992.5,-197.5 879.5,-197.5"/>
<text text-anchor="middle" x="936" y="-204.5" font-family="FreeSans" font-size="10.00">SQReco::fitTrackCand</text>
</a>
</g>
</g>
<!-- Node8&#45;&gt;Node9 -->
<g id="edge9" class="edge"><title>Node8&#45;&gt;Node9</title>
<path fill="none" stroke="midnightblue" d="M802.561,-179.833C830.427,-185.549 862.682,-192.166 888.383,-197.438"/>
<polygon fill="midnightblue" stroke="midnightblue" points="803.012,-176.353 792.513,-177.772 801.606,-183.21 803.012,-176.353"/>
</g>
<!-- Node11 -->
<g id="node11" class="node"><title>Node11</title>
<g id="a_node11"><a xlink:href="../../df/df2/classSQReco.html#a2d24deb38cf514e80e9b53199f2c81a9" target="_top" xlink:title="SQReco::fitTrackCand">
<polygon fill="none" stroke="black" points="1234.5,-159.5 1234.5,-178.5 1347.5,-178.5 1347.5,-159.5 1234.5,-159.5"/>
<text text-anchor="middle" x="1291" y="-166.5" font-family="FreeSans" font-size="10.00">SQReco::fitTrackCand</text>
</a>
</g>
</g>
<!-- Node10&#45;&gt;Node11 -->
<g id="edge11" class="edge"><title>Node10&#45;&gt;Node11</title>
<path fill="none" stroke="midnightblue" d="M819.497,-133.449C830.408,-134.734 841.474,-135.958 852,-137 989.142,-150.572 1150.97,-160.931 1234.26,-165.849"/>
<polygon fill="midnightblue" stroke="midnightblue" points="819.886,-129.971 809.541,-132.256 819.054,-136.921 819.886,-129.971"/>
</g>
<!-- Node13 -->
<g id="node13" class="node"><title>Node13</title>
<g id="a_node13"><a xlink:href="../../d3/d46/classKalmanFastTracking.html#ac0b6441647d023db04c618a35fd2a8cd" target="_top" xlink:title="Track fitting stuff. ">
<polygon fill="none" stroke="black" points="882.5,-98 882.5,-128 989.5,-128 989.5,-98 882.5,-98"/>
<text text-anchor="start" x="890.5" y="-116" font-family="FreeSans" font-size="10.00">KalmanFastTracking</text>
<text text-anchor="middle" x="936" y="-105" font-family="FreeSans" font-size="10.00">::processOneTracklet</text>
</a>
</g>
</g>
<!-- Node10&#45;&gt;Node13 -->
<g id="edge13" class="edge"><title>Node10&#45;&gt;Node13</title>
<path fill="none" stroke="midnightblue" d="M819.807,-118.907C840.875,-117.827 863.084,-116.688 882.319,-115.702"/>
<polygon fill="midnightblue" stroke="midnightblue" points="819.381,-115.424 809.574,-119.432 819.74,-122.415 819.381,-115.424"/>
</g>
<!-- Node17 -->
<g id="node17" class="node"><title>Node17</title>
<g id="a_node17"><a xlink:href="../../db/daa/classKalmanDSTrk.html#ace95cba717e2c3b24dfb46e8d458f61a" target="_top" xlink:title="Track fitting stuff. ">
<polygon fill="none" stroke="black" points="852,-48.5 852,-67.5 1020,-67.5 1020,-48.5 852,-48.5"/>
<text text-anchor="middle" x="936" y="-55.5" font-family="FreeSans" font-size="10.00">KalmanDSTrk::processOneTracklet</text>
</a>
</g>
</g>
<!-- Node10&#45;&gt;Node17 -->
<g id="edge19" class="edge"><title>Node10&#45;&gt;Node17</title>
<path fill="none" stroke="midnightblue" d="M793.648,-110.828C801.214,-108.753 808.847,-106.463 816,-104 832.555,-98.2998 835.756,-94.5356 852,-88 870.195,-80.6794 890.945,-73.1794 907.146,-67.5095"/>
<polygon fill="midnightblue" stroke="midnightblue" points="792.562,-107.495 783.785,-113.429 794.347,-114.263 792.562,-107.495"/>
</g>
<!-- Node12 -->
<g id="node12" class="node"><title>Node12</title>
<g id="a_node12"><a xlink:href="../../df/df2/classSQReco.html#a4d308ea90b8cd7c24a235f32debd6ddb" target="_top" xlink:title="SQReco::process_event">
<polygon fill="none" stroke="black" points="1405.5,-159.5 1405.5,-178.5 1524.5,-178.5 1524.5,-159.5 1405.5,-159.5"/>
<text text-anchor="middle" x="1465" y="-166.5" font-family="FreeSans" font-size="10.00">SQReco::process_event</text>
</a>
</g>
</g>
<!-- Node11&#45;&gt;Node12 -->
<g id="edge12" class="edge"><title>Node11&#45;&gt;Node12</title>
<path fill="none" stroke="midnightblue" d="M1357.97,-169C1373.61,-169 1390.19,-169 1405.48,-169"/>
<polygon fill="midnightblue" stroke="midnightblue" points="1357.84,-165.5 1347.84,-169 1357.84,-172.5 1357.84,-165.5"/>
</g>
<!-- Node14 -->
<g id="node14" class="node"><title>Node14</title>
<g id="a_node14"><a xlink:href="../../d3/d46/classKalmanFastTracking.html#a53c93bc5e58b3560d1cfb42e84bbe95c" target="_top" xlink:title="KalmanFastTracking\l::buildGlobalTracks">
<polygon fill="none" stroke="black" points="1068,-110 1068,-140 1174,-140 1174,-110 1068,-110"/>
<text text-anchor="start" x="1076" y="-128" font-family="FreeSans" font-size="10.00">KalmanFastTracking</text>
<text text-anchor="middle" x="1121" y="-117" font-family="FreeSans" font-size="10.00">::buildGlobalTracks</text>
</a>
</g>
</g>
<!-- Node13&#45;&gt;Node14 -->
<g id="edge14" class="edge"><title>Node13&#45;&gt;Node14</title>
<path fill="none" stroke="midnightblue" d="M1000.21,-117.145C1022.27,-118.591 1046.76,-120.197 1067.82,-121.578"/>
<polygon fill="midnightblue" stroke="midnightblue" points="1000.14,-113.633 989.931,-116.471 999.681,-120.618 1000.14,-113.633"/>
</g>
<!-- Node15 -->
<g id="node15" class="node"><title>Node15</title>
<g id="a_node15"><a xlink:href="../../d3/d46/classKalmanFastTracking.html#ada493cf8d995c42b9e78a53b891ce72b" target="_top" xlink:title="KalmanFastTracking\l::setRawEvent">
<polygon fill="none" stroke="black" points="1238,-110 1238,-140 1344,-140 1344,-110 1238,-110"/>
<text text-anchor="start" x="1246" y="-128" font-family="FreeSans" font-size="10.00">KalmanFastTracking</text>
<text text-anchor="middle" x="1291" y="-117" font-family="FreeSans" font-size="10.00">::setRawEvent</text>
</a>
</g>
</g>
<!-- Node13&#45;&gt;Node15 -->
<g id="edge18" class="edge"><title>Node13&#45;&gt;Node15</title>
<path fill="none" stroke="midnightblue" d="M999.738,-103.849C1050.2,-97.9008 1122.86,-92.5176 1186,-100 1203.15,-102.032 1221.56,-105.887 1238.06,-109.973"/>
<polygon fill="midnightblue" stroke="midnightblue" points="999.136,-100.397 989.634,-105.083 999.984,-107.345 999.136,-100.397"/>
</g>
<!-- Node14&#45;&gt;Node15 -->
<g id="edge15" class="edge"><title>Node14&#45;&gt;Node15</title>
<path fill="none" stroke="midnightblue" d="M1184.4,-125C1201.97,-125 1220.89,-125 1237.8,-125"/>
<polygon fill="midnightblue" stroke="midnightblue" points="1184.24,-121.5 1174.24,-125 1184.24,-128.5 1184.24,-121.5"/>
</g>
<!-- Node16 -->
<g id="node16" class="node"><title>Node16</title>
<g id="a_node16"><a xlink:href="../../dd/d62/classSQTrackletReco.html#a8da2377e83fb17bc8189b89175833872" target="_top" xlink:title="SQTrackletReco::process\l_event">
<polygon fill="none" stroke="black" points="1402,-110 1402,-140 1528,-140 1528,-110 1402,-110"/>
<text text-anchor="start" x="1410" y="-128" font-family="FreeSans" font-size="10.00">SQTrackletReco::process</text>
<text text-anchor="middle" x="1465" y="-117" font-family="FreeSans" font-size="10.00">_event</text>
</a>
</g>
</g>
<!-- Node15&#45;&gt;Node16 -->
<g id="edge16" class="edge"><title>Node15&#45;&gt;Node16</title>
<path fill="none" stroke="midnightblue" d="M1354.09,-125C1369.62,-125 1386.27,-125 1401.81,-125"/>
<polygon fill="midnightblue" stroke="midnightblue" points="1354.07,-121.5 1344.07,-125 1354.07,-128.5 1354.07,-121.5"/>
</g>
<!-- Node15&#45;&gt;Node12 -->
<g id="edge17" class="edge"><title>Node15&#45;&gt;Node12</title>
<path fill="none" stroke="midnightblue" d="M1353.98,-140.854C1378.38,-147.097 1405.59,-154.057 1426.84,-159.495"/>
<polygon fill="midnightblue" stroke="midnightblue" points="1354.63,-137.408 1344.07,-138.321 1352.89,-144.19 1354.63,-137.408"/>
</g>
<!-- Node18 -->
<g id="node18" class="node"><title>Node18</title>
<g id="a_node18"><a xlink:href="../../db/daa/classKalmanDSTrk.html#adf4981f081f2606bf3412851eaa62eb0" target="_top" xlink:title="KalmanDSTrk::buildGlobal\lTracks">
<polygon fill="none" stroke="black" points="1056,-22 1056,-52 1186,-52 1186,-22 1056,-22"/>
<text text-anchor="start" x="1064" y="-40" font-family="FreeSans" font-size="10.00">KalmanDSTrk::buildGlobal</text>
<text text-anchor="middle" x="1121" y="-29" font-family="FreeSans" font-size="10.00">Tracks</text>
</a>
</g>
</g>
<!-- Node17&#45;&gt;Node18 -->
<g id="edge20" class="edge"><title>Node17&#45;&gt;Node18</title>
<path fill="none" stroke="midnightblue" d="M1029.89,-47.3404C1038.72,-46.3273 1047.53,-45.3162 1056,-44.3448"/>
<polygon fill="midnightblue" stroke="midnightblue" points="1029.47,-43.8658 1019.93,-48.4831 1030.27,-50.8201 1029.47,-43.8658"/>
</g>
<!-- Node19 -->
<g id="node19" class="node"><title>Node19</title>
<g id="a_node19"><a xlink:href="../../db/daa/classKalmanDSTrk.html#a58ceb0cdcf685588b2a543d7a9c2bf9d" target="_top" xlink:title="KalmanDSTrk::setRawEvent\lWorker">
<polygon fill="none" stroke="black" points="1222.5,-0 1222.5,-30 1359.5,-30 1359.5,-0 1222.5,-0"/>
<text text-anchor="start" x="1230.5" y="-18" font-family="FreeSans" font-size="10.00">KalmanDSTrk::setRawEvent</text>
<text text-anchor="middle" x="1291" y="-7" font-family="FreeSans" font-size="10.00">Worker</text>
</a>
</g>
</g>
<!-- Node17&#45;&gt;Node19 -->
<g id="edge23" class="edge"><title>Node17&#45;&gt;Node19</title>
<path fill="none" stroke="midnightblue" d="M964.374,-44.0705C987.96,-32.8962 1023.28,-18.1048 1056,-12 1111.32,-1.68075 1175.27,-3.40535 1222.32,-7.16239"/>
<polygon fill="midnightblue" stroke="midnightblue" points="962.805,-40.9416 955.331,-48.4511 965.857,-47.2414 962.805,-40.9416"/>
</g>
<!-- Node18&#45;&gt;Node19 -->
<g id="edge21" class="edge"><title>Node18&#45;&gt;Node19</title>
<path fill="none" stroke="midnightblue" d="M1196.49,-27.2448C1205.1,-26.1175 1213.85,-24.9725 1222.36,-23.8581"/>
<polygon fill="midnightblue" stroke="midnightblue" points="1195.93,-23.7882 1186.47,-28.5571 1196.84,-30.729 1195.93,-23.7882"/>
</g>
<!-- Node20 -->
<g id="node20" class="node"><title>Node20</title>
<g id="a_node20"><a xlink:href="../../db/daa/classKalmanDSTrk.html#a67f1b61fbc3fbba52e10f4b06d4f8794" target="_top" xlink:title="KalmanDSTrk::setRawEvent">
<polygon fill="none" stroke="black" points="1396.5,-5.5 1396.5,-24.5 1533.5,-24.5 1533.5,-5.5 1396.5,-5.5"/>
<text text-anchor="middle" x="1465" y="-12.5" font-family="FreeSans" font-size="10.00">KalmanDSTrk::setRawEvent</text>
</a>
</g>
</g>
<!-- Node19&#45;&gt;Node20 -->
<g id="edge22" class="edge"><title>Node19&#45;&gt;Node20</title>
<path fill="none" stroke="midnightblue" d="M1370.13,-15C1378.85,-15 1387.67,-15 1396.23,-15"/>
<polygon fill="midnightblue" stroke="midnightblue" points="1369.98,-11.5001 1359.98,-15 1369.98,-18.5001 1369.98,-11.5001"/>
</g>
<!-- Node21&#45;&gt;Node13 -->
<g id="edge25" class="edge"><title>Node21&#45;&gt;Node13</title>
<path fill="none" stroke="midnightblue" d="M808.674,-94.8609C832.815,-98.3273 859.547,-102.166 882.18,-105.416"/>
<polygon fill="midnightblue" stroke="midnightblue" points="808.902,-91.3579 798.506,-93.4009 807.907,-98.2868 808.902,-91.3579"/>
</g>
<!-- Node21&#45;&gt;Node17 -->
<g id="edge26" class="edge"><title>Node21&#45;&gt;Node17</title>
<path fill="none" stroke="midnightblue" d="M808.437,-75.5241C827.173,-72.9299 847.484,-70.1176 866.237,-67.521"/>
<polygon fill="midnightblue" stroke="midnightblue" points="807.932,-72.0606 798.506,-76.8991 808.892,-78.9944 807.932,-72.0606"/>
</g>
</g>
</svg>
