<?xml version="1.0" encoding="UTF-8" standalone="no"?>
<!DOCTYPE svg PUBLIC "-//W3C//DTD SVG 1.1//EN"
 "http://www.w3.org/Graphics/SVG/1.1/DTD/svg11.dtd">
<!-- Generated by graphviz version 2.30.1 (20180413.0232)
 -->
<!-- Title: KalmanTrack::getHitIndexList Pages: 1 -->
<svg width="870pt" height="153pt"
 viewBox="0.00 0.00 870.00 153.00" xmlns="http://www.w3.org/2000/svg" xmlns:xlink="http://www.w3.org/1999/xlink">
<g id="graph0" class="graph" transform="scale(1 1) rotate(0) translate(4 149)">
<title>KalmanTrack::getHitIndexList</title>
<!-- Node1 -->
<g id="node1" class="node"><title>Node1</title>
<polygon fill="#bfbfbf" stroke="black" points="0.5,-54.5 0.5,-73.5 143.5,-73.5 143.5,-54.5 0.5,-54.5"/>
<text text-anchor="middle" x="72" y="-61.5" font-family="FreeSans" font-size="10.00">KalmanTrack::getHitIndexList</text>
</g>
<!-- Node2 -->
<g id="node2" class="node"><title>Node2</title>
<g id="a_node2"><a xlink:href="../../db/daa/classKalmanDSTrk.html#ace95cba717e2c3b24dfb46e8d458f61a" target="_top" xlink:title="Track fitting stuff. ">
<polygon fill="none" stroke="black" points="180,-98.5 180,-117.5 348,-117.5 348,-98.5 180,-98.5"/>
<text text-anchor="middle" x="264" y="-105.5" font-family="FreeSans" font-size="10.00">KalmanDSTrk::processOneTracklet</text>
</a>
</g>
</g>
<!-- Node1&#45;&gt;Node2 -->
<g id="edge1" class="edge"><title>Node1&#45;&gt;Node2</title>
<path fill="none" stroke="midnightblue" d="M124.285,-75.8764C154.891,-82.9642 193.239,-91.8448 221.853,-98.4713"/>
<polygon fill="midnightblue" stroke="midnightblue" points="124.759,-72.3937 114.227,-73.5473 123.18,-79.2133 124.759,-72.3937"/>
</g>
<!-- Node6 -->
<g id="node6" class="node"><title>Node6</title>
<g id="a_node6"><a xlink:href="../../d3/d46/classKalmanFastTracking.html#a3d3ef7a6aeb00056e003e98564e45b65" target="_top" xlink:title="KalmanFastTracking\l::resolveLeftRight">
<polygon fill="none" stroke="black" points="211,-49 211,-79 317,-79 317,-49 211,-49"/>
<text text-anchor="start" x="219" y="-67" font-family="FreeSans" font-size="10.00">KalmanFastTracking</text>
<text text-anchor="middle" x="264" y="-56" font-family="FreeSans" font-size="10.00">::resolveLeftRight</text>
</a>
</g>
</g>
<!-- Node1&#45;&gt;Node6 -->
<g id="edge6" class="edge"><title>Node1&#45;&gt;Node6</title>
<path fill="none" stroke="midnightblue" d="M153.771,-64C173.109,-64 193.253,-64 210.897,-64"/>
<polygon fill="midnightblue" stroke="midnightblue" points="153.749,-60.5001 143.749,-64 153.749,-67.5001 153.749,-60.5001"/>
</g>
<!-- Node7 -->
<g id="node7" class="node"><title>Node7</title>
<g id="a_node7"><a xlink:href="../../db/daa/classKalmanDSTrk.html#a77b10b105994162ea3e6275b6ecd9b2f" target="_top" xlink:title="KalmanDSTrk::resolveLeft\lRight">
<polygon fill="none" stroke="black" points="200,-0 200,-30 328,-30 328,-0 200,-0"/>
<text text-anchor="start" x="208" y="-18" font-family="FreeSans" font-size="10.00">KalmanDSTrk::resolveLeft</text>
<text text-anchor="middle" x="264" y="-7" font-family="FreeSans" font-size="10.00">Right</text>
</a>
</g>
</g>
<!-- Node1&#45;&gt;Node7 -->
<g id="edge7" class="edge"><title>Node1&#45;&gt;Node7</title>
<path fill="none" stroke="midnightblue" d="M119.925,-51.8982C145.541,-45.292 177.489,-37.0529 204.693,-30.037"/>
<polygon fill="midnightblue" stroke="midnightblue" points="118.894,-48.5496 110.085,-54.436 120.642,-55.3278 118.894,-48.5496"/>
</g>
<!-- Node3 -->
<g id="node3" class="node"><title>Node3</title>
<g id="a_node3"><a xlink:href="../../db/daa/classKalmanDSTrk.html#adf4981f081f2606bf3412851eaa62eb0" target="_top" xlink:title="KalmanDSTrk::buildGlobal\lTracks">
<polygon fill="none" stroke="black" points="384,-115 384,-145 514,-145 514,-115 384,-115"/>
<text text-anchor="start" x="392" y="-133" font-family="FreeSans" font-size="10.00">KalmanDSTrk::buildGlobal</text>
<text text-anchor="middle" x="449" y="-122" font-family="FreeSans" font-size="10.00">Tracks</text>
</a>
</g>
</g>
<!-- Node2&#45;&gt;Node3 -->
<g id="edge2" class="edge"><title>Node2&#45;&gt;Node3</title>
<path fill="none" stroke="midnightblue" d="M354.175,-118.721C364.179,-119.923 374.219,-121.13 383.818,-122.284"/>
<polygon fill="midnightblue" stroke="midnightblue" points="354.548,-115.24 344.202,-117.522 353.713,-122.19 354.548,-115.24"/>
</g>
<!-- Node4 -->
<g id="node4" class="node"><title>Node4</title>
<g id="a_node4"><a xlink:href="../../db/daa/classKalmanDSTrk.html#a58ceb0cdcf685588b2a543d7a9c2bf9d" target="_top" xlink:title="KalmanDSTrk::setRawEvent\lWorker">
<polygon fill="none" stroke="black" points="550.5,-93 550.5,-123 687.5,-123 687.5,-93 550.5,-93"/>
<text text-anchor="start" x="558.5" y="-111" font-family="FreeSans" font-size="10.00">KalmanDSTrk::setRawEvent</text>
<text text-anchor="middle" x="619" y="-100" font-family="FreeSans" font-size="10.00">Worker</text>
</a>
</g>
</g>
<!-- Node2&#45;&gt;Node4 -->
<g id="edge5" class="edge"><title>Node2&#45;&gt;Node4</title>
<path fill="none" stroke="midnightblue" d="M358.379,-106.282C367.041,-106.167 375.684,-106.07 384,-106 441.776,-105.515 456.225,-105.445 514,-106 525.738,-106.113 538.22,-106.297 550.311,-106.51"/>
<polygon fill="midnightblue" stroke="midnightblue" points="358.172,-102.784 348.222,-106.423 358.27,-109.783 358.172,-102.784"/>
</g>
<!-- Node3&#45;&gt;Node4 -->
<g id="edge3" class="edge"><title>Node3&#45;&gt;Node4</title>
<path fill="none" stroke="midnightblue" d="M524.494,-120.245C533.103,-119.118 541.846,-117.973 550.356,-116.858"/>
<polygon fill="midnightblue" stroke="midnightblue" points="523.934,-116.788 514.473,-121.557 524.843,-123.729 523.934,-116.788"/>
</g>
<!-- Node5 -->
<g id="node5" class="node"><title>Node5</title>
<g id="a_node5"><a xlink:href="../../db/daa/classKalmanDSTrk.html#a67f1b61fbc3fbba52e10f4b06d4f8794" target="_top" xlink:title="KalmanDSTrk::setRawEvent">
<polygon fill="none" stroke="black" points="724.5,-98.5 724.5,-117.5 861.5,-117.5 861.5,-98.5 724.5,-98.5"/>
<text text-anchor="middle" x="793" y="-105.5" font-family="FreeSans" font-size="10.00">KalmanDSTrk::setRawEvent</text>
</a>
</g>
</g>
<!-- Node4&#45;&gt;Node5 -->
<g id="edge4" class="edge"><title>Node4&#45;&gt;Node5</title>
<path fill="none" stroke="midnightblue" d="M698.134,-108C706.846,-108 715.666,-108 724.233,-108"/>
<polygon fill="midnightblue" stroke="midnightblue" points="697.979,-104.5 687.979,-108 697.979,-111.5 697.979,-104.5"/>
</g>
</g>
</svg>
