<?xml version="1.0" encoding="UTF-8" standalone="no"?>
<!DOCTYPE svg PUBLIC "-//W3C//DTD SVG 1.1//EN"
 "http://www.w3.org/Graphics/SVG/1.1/DTD/svg11.dtd">
<!-- Generated by graphviz version 2.36.0 (20140111.2315)
 -->
<!-- Title: /home/yuhw/GitHub/SeaQuest/e1039&#45;core/generators/PHPythia8/PHPy8GenTrigger.h Pages: 1 -->
<svg width="726pt" height="206pt"
 viewBox="0.00 0.00 726.00 206.00" xmlns="http://www.w3.org/2000/svg" xmlns:xlink="http://www.w3.org/1999/xlink">
<g id="graph0" class="graph" transform="scale(1 1) rotate(0) translate(4 202)">
<title>/home/yuhw/GitHub/SeaQuest/e1039&#45;core/generators/PHPythia8/PHPy8GenTrigger.h</title>
<!-- Node1 -->
<g id="node1" class="node"><title>Node1</title>
<polygon fill="#bfbfbf" stroke="black" points="276,-156.5 276,-197.5 442,-197.5 442,-156.5 276,-156.5"/>
<text text-anchor="start" x="284" y="-185.5" font-family="FreeSans" font-size="10.00">/home/yuhw/GitHub/SeaQuest</text>
<text text-anchor="start" x="284" y="-174.5" font-family="FreeSans" font-size="10.00">/e1039&#45;core/generators/PHPythia8</text>
<text text-anchor="middle" x="359" y="-163.5" font-family="FreeSans" font-size="10.00">/PHPy8GenTrigger.h</text>
</g>
<!-- Node2 -->
<g id="node2" class="node"><title>Node2</title>
<g id="a_node2"><a xlink:href="../../d9/dbd/PHPy8GenTrigger_8C.html" target="_top" xlink:title="/home/yuhw/GitHub/SeaQuest\l/e1039&#45;core/generators/PHPythia8\l/PHPy8GenTrigger.C">
<polygon fill="none" stroke="black" points="0,-78.5 0,-119.5 166,-119.5 166,-78.5 0,-78.5"/>
<text text-anchor="start" x="8" y="-107.5" font-family="FreeSans" font-size="10.00">/home/yuhw/GitHub/SeaQuest</text>
<text text-anchor="start" x="8" y="-96.5" font-family="FreeSans" font-size="10.00">/e1039&#45;core/generators/PHPythia8</text>
<text text-anchor="middle" x="83" y="-85.5" font-family="FreeSans" font-size="10.00">/PHPy8GenTrigger.C</text>
</a>
</g>
</g>
<!-- Node1&#45;&gt;Node2 -->
<g id="edge1" class="edge"><title>Node1&#45;&gt;Node2</title>
<path fill="none" stroke="midnightblue" d="M278.083,-153.718C238.7,-142.874 191.787,-129.956 153.836,-119.506"/>
<polygon fill="midnightblue" stroke="midnightblue" points="277.353,-157.148 287.923,-156.428 279.211,-150.399 277.353,-157.148"/>
</g>
<!-- Node3 -->
<g id="node3" class="node"><title>Node3</title>
<g id="a_node3"><a xlink:href="../../da/d75/PHPy8JetTrigger_8h.html" target="_top" xlink:title="/home/yuhw/GitHub/SeaQuest\l/e1039&#45;core/generators/PHPythia8\l/PHPy8JetTrigger.h">
<polygon fill="none" stroke="black" points="184,-78.5 184,-119.5 350,-119.5 350,-78.5 184,-78.5"/>
<text text-anchor="start" x="192" y="-107.5" font-family="FreeSans" font-size="10.00">/home/yuhw/GitHub/SeaQuest</text>
<text text-anchor="start" x="192" y="-96.5" font-family="FreeSans" font-size="10.00">/e1039&#45;core/generators/PHPythia8</text>
<text text-anchor="middle" x="267" y="-85.5" font-family="FreeSans" font-size="10.00">/PHPy8JetTrigger.h</text>
</a>
</g>
</g>
<!-- Node1&#45;&gt;Node3 -->
<g id="edge2" class="edge"><title>Node1&#45;&gt;Node3</title>
<path fill="none" stroke="midnightblue" d="M327.258,-149.779C315.231,-139.843 301.761,-128.716 290.612,-119.506"/>
<polygon fill="midnightblue" stroke="midnightblue" points="325.369,-152.758 335.308,-156.428 329.827,-147.361 325.369,-152.758"/>
</g>
<!-- Node5 -->
<g id="node5" class="node"><title>Node5</title>
<g id="a_node5"><a xlink:href="../../d8/d02/PHPy8ParticleTrigger_8h.html" target="_top" xlink:title="/home/yuhw/GitHub/SeaQuest\l/e1039&#45;core/generators/PHPythia8\l/PHPy8ParticleTrigger.h">
<polygon fill="none" stroke="black" points="368,-78.5 368,-119.5 534,-119.5 534,-78.5 368,-78.5"/>
<text text-anchor="start" x="376" y="-107.5" font-family="FreeSans" font-size="10.00">/home/yuhw/GitHub/SeaQuest</text>
<text text-anchor="start" x="376" y="-96.5" font-family="FreeSans" font-size="10.00">/e1039&#45;core/generators/PHPythia8</text>
<text text-anchor="middle" x="451" y="-85.5" font-family="FreeSans" font-size="10.00">/PHPy8ParticleTrigger.h</text>
</a>
</g>
</g>
<!-- Node1&#45;&gt;Node5 -->
<g id="edge4" class="edge"><title>Node1&#45;&gt;Node5</title>
<path fill="none" stroke="midnightblue" d="M390.742,-149.779C402.769,-139.843 416.239,-128.716 427.388,-119.506"/>
<polygon fill="midnightblue" stroke="midnightblue" points="388.173,-147.361 382.692,-156.428 392.631,-152.758 388.173,-147.361"/>
</g>
<!-- Node7 -->
<g id="node7" class="node"><title>Node7</title>
<g id="a_node7"><a xlink:href="../../df/d49/PHPythia8_8C.html" target="_top" xlink:title="/home/yuhw/GitHub/SeaQuest\l/e1039&#45;core/generators/PHPythia8\l/PHPythia8.C">
<polygon fill="none" stroke="black" points="552,-78.5 552,-119.5 718,-119.5 718,-78.5 552,-78.5"/>
<text text-anchor="start" x="560" y="-107.5" font-family="FreeSans" font-size="10.00">/home/yuhw/GitHub/SeaQuest</text>
<text text-anchor="start" x="560" y="-96.5" font-family="FreeSans" font-size="10.00">/e1039&#45;core/generators/PHPythia8</text>
<text text-anchor="middle" x="635" y="-85.5" font-family="FreeSans" font-size="10.00">/PHPythia8.C</text>
</a>
</g>
</g>
<!-- Node1&#45;&gt;Node7 -->
<g id="edge6" class="edge"><title>Node1&#45;&gt;Node7</title>
<path fill="none" stroke="midnightblue" d="M439.917,-153.718C479.3,-142.874 526.213,-129.956 564.164,-119.506"/>
<polygon fill="midnightblue" stroke="midnightblue" points="438.789,-150.399 430.077,-156.428 440.647,-157.148 438.789,-150.399"/>
</g>
<!-- Node4 -->
<g id="node4" class="node"><title>Node4</title>
<g id="a_node4"><a xlink:href="../../d9/da0/PHPy8JetTrigger_8C.html" target="_top" xlink:title="/home/yuhw/GitHub/SeaQuest\l/e1039&#45;core/generators/PHPythia8\l/PHPy8JetTrigger.C">
<polygon fill="none" stroke="black" points="184,-0.5 184,-41.5 350,-41.5 350,-0.5 184,-0.5"/>
<text text-anchor="start" x="192" y="-29.5" font-family="FreeSans" font-size="10.00">/home/yuhw/GitHub/SeaQuest</text>
<text text-anchor="start" x="192" y="-18.5" font-family="FreeSans" font-size="10.00">/e1039&#45;core/generators/PHPythia8</text>
<text text-anchor="middle" x="267" y="-7.5" font-family="FreeSans" font-size="10.00">/PHPy8JetTrigger.C</text>
</a>
</g>
</g>
<!-- Node3&#45;&gt;Node4 -->
<g id="edge3" class="edge"><title>Node3&#45;&gt;Node4</title>
<path fill="none" stroke="midnightblue" d="M267,-68.2965C267,-59.3009 267,-49.6532 267,-41.5056"/>
<polygon fill="midnightblue" stroke="midnightblue" points="263.5,-68.4281 267,-78.4281 270.5,-68.4281 263.5,-68.4281"/>
</g>
<!-- Node6 -->
<g id="node6" class="node"><title>Node6</title>
<g id="a_node6"><a xlink:href="../../dd/d8f/PHPy8ParticleTrigger_8C.html" target="_top" xlink:title="/home/yuhw/GitHub/SeaQuest\l/e1039&#45;core/generators/PHPythia8\l/PHPy8ParticleTrigger.C">
<polygon fill="none" stroke="black" points="368,-0.5 368,-41.5 534,-41.5 534,-0.5 368,-0.5"/>
<text text-anchor="start" x="376" y="-29.5" font-family="FreeSans" font-size="10.00">/home/yuhw/GitHub/SeaQuest</text>
<text text-anchor="start" x="376" y="-18.5" font-family="FreeSans" font-size="10.00">/e1039&#45;core/generators/PHPythia8</text>
<text text-anchor="middle" x="451" y="-7.5" font-family="FreeSans" font-size="10.00">/PHPy8ParticleTrigger.C</text>
</a>
</g>
</g>
<!-- Node5&#45;&gt;Node6 -->
<g id="edge5" class="edge"><title>Node5&#45;&gt;Node6</title>
<path fill="none" stroke="midnightblue" d="M451,-68.2965C451,-59.3009 451,-49.6532 451,-41.5056"/>
<polygon fill="midnightblue" stroke="midnightblue" points="447.5,-68.4281 451,-78.4281 454.5,-68.4281 447.5,-68.4281"/>
</g>
</g>
</svg>
