<?xml version="1.0" encoding="UTF-8" standalone="no"?>
<!DOCTYPE svg PUBLIC "-//W3C//DTD SVG 1.1//EN"
 "http://www.w3.org/Graphics/SVG/1.1/DTD/svg11.dtd">
<!-- Generated by graphviz version 2.40.1 (20161225.0304)
 -->
<!-- Title: /home/yuhw/GitHub/SeaQuest/e1039&#45;core/simulation/g4main/PHG4PhenixTrackingAction.h Pages: 1 -->
<svg width="219pt" height="106pt"
 viewBox="0.00 0.00 219.00 106.00" xmlns="http://www.w3.org/2000/svg" xmlns:xlink="http://www.w3.org/1999/xlink">
<g id="graph0" class="graph" transform="scale(1 1) rotate(0) translate(4 102)">
<title>/home/yuhw/GitHub/SeaQuest/e1039&#45;core/simulation/g4main/PHG4PhenixTrackingAction.h</title>
<!-- Node0 -->
<g id="node1" class="node">
<title>Node0</title>
<polygon fill="#bfbfbf" stroke="#000000" points="62,-56.5 62,-97.5 211,-97.5 211,-56.5 62,-56.5"/>
<text text-anchor="start" x="70" y="-85.5" font-family="FreeSans" font-size="10.00" fill="#000000">/home/yuhw/GitHub/SeaQuest</text>
<text text-anchor="start" x="70" y="-74.5" font-family="FreeSans" font-size="10.00" fill="#000000">/e1039&#45;core/simulation/g4main</text>
<text text-anchor="middle" x="136.5" y="-63.5" font-family="FreeSans" font-size="10.00" fill="#000000">/PHG4PhenixTrackingAction.h</text>
</g>
<!-- Node1 -->
<g id="node2" class="node">
<title>Node1</title>
<polygon fill="none" stroke="#bfbfbf" points="0,-.5 0,-19.5 161,-19.5 161,-.5 0,-.5"/>
<text text-anchor="middle" x="80.5" y="-7.5" font-family="FreeSans" font-size="10.00" fill="#000000">Geant4/G4UserTrackingAction.hh</text>
</g>
<!-- Node0&#45;&gt;Node1 -->
<g id="edge1" class="edge">
<title>Node0&#45;&gt;Node1</title>
<path fill="none" stroke="#191970" d="M119.0882,-56.168C111.3995,-46.9691 102.4617,-36.2756 95.1251,-27.4979"/>
<polygon fill="#191970" stroke="#191970" points="97.7734,-25.2087 88.6747,-19.7805 92.4024,-29.6979 97.7734,-25.2087"/>
</g>
<!-- Node2 -->
<g id="node3" class="node">
<title>Node2</title>
<polygon fill="none" stroke="#bfbfbf" points="179,-.5 179,-19.5 208,-19.5 208,-.5 179,-.5"/>
<text text-anchor="middle" x="193.5" y="-7.5" font-family="FreeSans" font-size="10.00" fill="#000000">list</text>
</g>
<!-- Node0&#45;&gt;Node2 -->
<g id="edge2" class="edge">
<title>Node0&#45;&gt;Node2</title>
<path fill="none" stroke="#191970" d="M154.2227,-56.168C162.0487,-46.9691 171.1462,-36.2756 178.6138,-27.4979"/>
<polygon fill="#191970" stroke="#191970" points="181.3653,-29.665 185.1793,-19.7805 176.0337,-25.1291 181.3653,-29.665"/>
</g>
</g>
</svg>
