<?xml version="1.0" encoding="UTF-8" standalone="no"?>
<!DOCTYPE svg PUBLIC "-//W3C//DTD SVG 1.1//EN"
 "http://www.w3.org/Graphics/SVG/1.1/DTD/svg11.dtd">
<!-- Generated by graphviz version 2.30.1 (20180413.0232)
 -->
<!-- Title: TrackletVector::size Pages: 1 -->
<svg width="262pt" height="104pt"
 viewBox="0.00 0.00 262.00 104.00" xmlns="http://www.w3.org/2000/svg" xmlns:xlink="http://www.w3.org/1999/xlink">
<g id="graph0" class="graph" transform="scale(1 1) rotate(0) translate(4 100)">
<title>TrackletVector::size</title>
<!-- Node1 -->
<g id="node1" class="node"><title>Node1</title>
<polygon fill="#bfbfbf" stroke="black" points="0.5,-38.5 0.5,-57.5 101.5,-57.5 101.5,-38.5 0.5,-38.5"/>
<text text-anchor="middle" x="51" y="-45.5" font-family="FreeSans" font-size="10.00">TrackletVector::size</text>
</g>
<!-- Node2 -->
<g id="node2" class="node"><title>Node2</title>
<g id="a_node2"><a xlink:href="../../d5/dba/classTrackletVector.html#a75ea262649e91c4e19dd484ad3b5450c" target="_top" xlink:title="TrackletVector::at">
<polygon fill="none" stroke="black" points="150,-76.5 150,-95.5 242,-95.5 242,-76.5 150,-76.5"/>
<text text-anchor="middle" x="196" y="-83.5" font-family="FreeSans" font-size="10.00">TrackletVector::at</text>
</a>
</g>
</g>
<!-- Node1&#45;&gt;Node2 -->
<g id="edge1" class="edge"><title>Node1&#45;&gt;Node2</title>
<path fill="none" stroke="midnightblue" d="M97.8133,-60.1742C117.587,-65.4287 140.384,-71.4866 158.927,-76.4141"/>
<polygon fill="midnightblue" stroke="midnightblue" points="98.6484,-56.7747 88.0849,-57.589 96.8506,-63.5399 98.6484,-56.7747"/>
</g>
<!-- Node3 -->
<g id="node3" class="node"><title>Node3</title>
<g id="a_node3"><a xlink:href="../../d5/dba/classTrackletVector.html#aba726023f8edd2a549c3e8e42de243a9" target="_top" xlink:title="TrackletVector::erase">
<polygon fill="none" stroke="black" points="142.5,-38.5 142.5,-57.5 249.5,-57.5 249.5,-38.5 142.5,-38.5"/>
<text text-anchor="middle" x="196" y="-45.5" font-family="FreeSans" font-size="10.00">TrackletVector::erase</text>
</a>
</g>
</g>
<!-- Node1&#45;&gt;Node3 -->
<g id="edge2" class="edge"><title>Node1&#45;&gt;Node3</title>
<path fill="none" stroke="midnightblue" d="M111.902,-48C121.916,-48 132.241,-48 142.065,-48"/>
<polygon fill="midnightblue" stroke="midnightblue" points="111.613,-44.5001 101.613,-48 111.613,-51.5001 111.613,-44.5001"/>
</g>
<!-- Node4 -->
<g id="node4" class="node"><title>Node4</title>
<g id="a_node4"><a xlink:href="../../d5/dba/classTrackletVector.html#a78a8b2bb5528941b30cc4753aaa85dd3" target="_top" xlink:title="TrackletVector::identify">
<polygon fill="none" stroke="black" points="138.5,-0.5 138.5,-19.5 253.5,-19.5 253.5,-0.5 138.5,-0.5"/>
<text text-anchor="middle" x="196" y="-7.5" font-family="FreeSans" font-size="10.00">TrackletVector::identify</text>
</a>
</g>
</g>
<!-- Node1&#45;&gt;Node4 -->
<g id="edge3" class="edge"><title>Node1&#45;&gt;Node4</title>
<path fill="none" stroke="midnightblue" d="M97.8133,-35.8258C117.587,-30.5713 140.384,-24.5134 158.927,-19.5859"/>
<polygon fill="midnightblue" stroke="midnightblue" points="96.8506,-32.4601 88.0849,-38.411 98.6484,-39.2253 96.8506,-32.4601"/>
</g>
</g>
</svg>
