<?xml version="1.0" encoding="UTF-8" standalone="no"?>
<!DOCTYPE svg PUBLIC "-//W3C//DTD SVG 1.1//EN"
 "http://www.w3.org/Graphics/SVG/1.1/DTD/svg11.dtd">
<!-- Generated by graphviz version 2.30.1 (20200930.0103)
 -->
<!-- Title: PHHepMCGenHelper::set_vertex_distribution_width Pages: 1 -->
<svg width="504pt" height="234pt"
 viewBox="0.00 0.00 504.00 234.00" xmlns="http://www.w3.org/2000/svg" xmlns:xlink="http://www.w3.org/1999/xlink">
<g id="graph0" class="graph" transform="scale(1 1) rotate(0) translate(4 230)">
<title>PHHepMCGenHelper::set_vertex_distribution_width</title>
<!-- Node1 -->
<g id="node1" class="node"><title>Node1</title>
<polygon fill="#bfbfbf" stroke="black" points="0.5,-98 0.5,-128 127.5,-128 127.5,-98 0.5,-98"/>
<text text-anchor="start" x="8.5" y="-116" font-family="FreeSans" font-size="10.00">PHHepMCGenHelper::set</text>
<text text-anchor="middle" x="64" y="-105" font-family="FreeSans" font-size="10.00">_vertex_distribution_width</text>
</g>
<!-- Node2 -->
<g id="node2" class="node"><title>Node2</title>
<g id="a_node2"><a xlink:href="../../de/d99/classFun4AllHepMCPileupInputManager.html#a94b3b8e44e727ee4cfcad90d5f1933f7" target="_top" xlink:title="Fun4AllHepMCPileupInputManager\l::Fun4AllHepMCPileupInputManager">
<polygon fill="none" stroke="black" points="164.5,-196 164.5,-226 337.5,-226 337.5,-196 164.5,-196"/>
<text text-anchor="start" x="172.5" y="-214" font-family="FreeSans" font-size="10.00">Fun4AllHepMCPileupInputManager</text>
<text text-anchor="middle" x="251" y="-203" font-family="FreeSans" font-size="10.00">::Fun4AllHepMCPileupInputManager</text>
</a>
</g>
</g>
<!-- Node1&#45;&gt;Node2 -->
<g id="edge1" class="edge"><title>Node1&#45;&gt;Node2</title>
<path fill="none" stroke="midnightblue" d="M89.2888,-134.741C108.41,-150.866 136.362,-172.336 164,-186 171.666,-189.79 180.008,-193.105 188.381,-195.975"/>
<polygon fill="midnightblue" stroke="midnightblue" points="91.5295,-132.051 81.6613,-128.195 86.9709,-137.364 91.5295,-132.051"/>
</g>
<!-- Node3 -->
<g id="node3" class="node"><title>Node3</title>
<g id="a_node3"><a xlink:href="../../d3/d49/classReadEICFiles.html#a3a77caa1f1ead7251b85d7f54f7db0da" target="_top" xlink:title="set the width of the vertex distribution function about the mean, use PHENIX units of cm...">
<polygon fill="none" stroke="black" points="189.5,-147 189.5,-177 312.5,-177 312.5,-147 189.5,-147"/>
<text text-anchor="start" x="197.5" y="-165" font-family="FreeSans" font-size="10.00">ReadEICFiles::set_vertex</text>
<text text-anchor="middle" x="251" y="-154" font-family="FreeSans" font-size="10.00">_distribution_width</text>
</a>
</g>
</g>
<!-- Node1&#45;&gt;Node3 -->
<g id="edge2" class="edge"><title>Node1&#45;&gt;Node3</title>
<path fill="none" stroke="midnightblue" d="M131.535,-130.623C151.775,-135.984 173.82,-141.823 193.344,-146.994"/>
<polygon fill="midnightblue" stroke="midnightblue" points="132.326,-127.212 121.763,-128.035 130.534,-133.978 132.326,-127.212"/>
</g>
<!-- Node4 -->
<g id="node4" class="node"><title>Node4</title>
<g id="a_node4"><a xlink:href="../../db/d1f/classFun4AllOscarInputManager.html#a5f79f3b12535df02533d25a14aab26a6" target="_top" xlink:title="set the width of the vertex distribution function about the mean, use PHENIX units of cm...">
<polygon fill="none" stroke="black" points="179,-98 179,-128 323,-128 323,-98 179,-98"/>
<text text-anchor="start" x="187" y="-116" font-family="FreeSans" font-size="10.00">Fun4AllOscarInputManager</text>
<text text-anchor="middle" x="251" y="-105" font-family="FreeSans" font-size="10.00">::set_vertex_distribution_width</text>
</a>
</g>
</g>
<!-- Node1&#45;&gt;Node4 -->
<g id="edge3" class="edge"><title>Node1&#45;&gt;Node4</title>
<path fill="none" stroke="midnightblue" d="M137.816,-113C151.308,-113 165.387,-113 178.83,-113"/>
<polygon fill="midnightblue" stroke="midnightblue" points="137.633,-109.5 127.633,-113 137.633,-116.5 137.633,-109.5"/>
</g>
<!-- Node5 -->
<g id="node5" class="node"><title>Node5</title>
<g id="a_node5"><a xlink:href="../../d6/d6f/classFun4AllHepMCInputManager.html#a63272413d7dbd96e541618b734b609d0" target="_top" xlink:title="set the width of the vertex distribution function about the mean, use PHENIX units of cm...">
<polygon fill="none" stroke="black" points="179,-49 179,-79 323,-79 323,-49 179,-49"/>
<text text-anchor="start" x="187" y="-67" font-family="FreeSans" font-size="10.00">Fun4AllHepMCInputManager</text>
<text text-anchor="middle" x="251" y="-56" font-family="FreeSans" font-size="10.00">::set_vertex_distribution_width</text>
</a>
</g>
</g>
<!-- Node1&#45;&gt;Node5 -->
<g id="edge4" class="edge"><title>Node1&#45;&gt;Node5</title>
<path fill="none" stroke="midnightblue" d="M131.535,-95.3771C151.775,-90.0163 173.82,-84.1775 193.344,-79.0062"/>
<polygon fill="midnightblue" stroke="midnightblue" points="130.534,-92.0216 121.763,-97.9654 132.326,-98.7883 130.534,-92.0216"/>
</g>
<!-- Node6 -->
<g id="node6" class="node"><title>Node6</title>
<g id="a_node6"><a xlink:href="../../d9/d3a/classPHPythia8.html#ac16c7d96b92c346f7f562868e95c3a78" target="_top" xlink:title="set the width of the vertex distribution function about the mean, use PHENIX units of cm...">
<polygon fill="none" stroke="black" points="196,-0 196,-30 306,-30 306,-0 196,-0"/>
<text text-anchor="start" x="204" y="-18" font-family="FreeSans" font-size="10.00">PHPythia8::set_vertex</text>
<text text-anchor="middle" x="251" y="-7" font-family="FreeSans" font-size="10.00">_distribution_width</text>
</a>
</g>
</g>
<!-- Node1&#45;&gt;Node6 -->
<g id="edge5" class="edge"><title>Node1&#45;&gt;Node6</title>
<path fill="none" stroke="midnightblue" d="M89.2888,-91.2593C108.41,-75.1337 136.362,-53.6635 164,-40 173.896,-35.1076 184.918,-31.0059 195.68,-27.6327"/>
<polygon fill="midnightblue" stroke="midnightblue" points="86.9709,-88.6364 81.6613,-97.8048 91.5295,-93.9486 86.9709,-88.6364"/>
</g>
<!-- Node7 -->
<g id="node7" class="node"><title>Node7</title>
<g id="a_node7"><a xlink:href="../../d9/d3a/classPHPythia8.html#abb21b0537da59ea9e6a1a4b92827af18" target="_top" xlink:title="PHPythia8::beam_vertex\l_parameters">
<polygon fill="none" stroke="black" points="374,-0 374,-30 496,-30 496,-0 374,-0"/>
<text text-anchor="start" x="382" y="-18" font-family="FreeSans" font-size="10.00">PHPythia8::beam_vertex</text>
<text text-anchor="middle" x="435" y="-7" font-family="FreeSans" font-size="10.00">_parameters</text>
</a>
</g>
</g>
<!-- Node6&#45;&gt;Node7 -->
<g id="edge6" class="edge"><title>Node6&#45;&gt;Node7</title>
<path fill="none" stroke="midnightblue" d="M316.298,-15C334.977,-15 355.303,-15 373.725,-15"/>
<polygon fill="midnightblue" stroke="midnightblue" points="316.113,-11.5001 306.113,-15 316.113,-18.5001 316.113,-11.5001"/>
</g>
</g>
</svg>
