<?xml version="1.0" encoding="UTF-8" standalone="no"?>
<!DOCTYPE svg PUBLIC "-//W3C//DTD SVG 1.1//EN"
 "http://www.w3.org/Graphics/SVG/1.1/DTD/svg11.dtd">
<!-- Generated by graphviz version 2.44.0 (0)
 -->
<!-- Title: /dev/shm/kenichi/update&#45;github&#45;e1039&#45;doc/e1039&#45;core/online/decoder_maindaq/DecoError.cc Pages: 1 -->
<svg width="552pt" height="173pt"
 viewBox="0.00 0.00 551.50 173.00" xmlns="http://www.w3.org/2000/svg" xmlns:xlink="http://www.w3.org/1999/xlink">
<g id="graph0" class="graph" transform="scale(1 1) rotate(0) translate(4 169)">
<title>/dev/shm/kenichi/update&#45;github&#45;e1039&#45;doc/e1039&#45;core/online/decoder_maindaq/DecoError.cc</title>
<!-- Node1 -->
<g id="node1" class="node">
<title>Node1</title>
<g id="a_node1"><a xlink:title=" ">
<polygon fill="#bfbfbf" stroke="black" points="118,-112.5 118,-164.5 282,-164.5 282,-112.5 118,-112.5"/>
<text text-anchor="start" x="126" y="-152.5" font-family="FreeSans" font-size="10.00">/dev/shm/kenichi/update</text>
<text text-anchor="start" x="126" y="-141.5" font-family="FreeSans" font-size="10.00">&#45;github&#45;e1039&#45;doc/e1039</text>
<text text-anchor="start" x="126" y="-130.5" font-family="FreeSans" font-size="10.00">&#45;core/online/decoder_maindaq</text>
<text text-anchor="middle" x="200" y="-119.5" font-family="FreeSans" font-size="10.00">/DecoError.cc</text>
</a>
</g>
</g>
<!-- Node2 -->
<g id="node2" class="node">
<title>Node2</title>
<g id="a_node2"><a xlink:title=" ">
<polygon fill="none" stroke="#bfbfbf" points="0,-56.5 0,-75.5 60,-75.5 60,-56.5 0,-56.5"/>
<text text-anchor="middle" x="30" y="-63.5" font-family="FreeSans" font-size="10.00">iostream</text>
</a>
</g>
</g>
<!-- Node1&#45;&gt;Node2 -->
<g id="edge1" class="edge">
<title>Node1&#45;&gt;Node2</title>
<path fill="none" stroke="midnightblue" d="M139.59,-112.45C112.61,-101.26 82.01,-88.57 60.02,-79.45"/>
<polygon fill="midnightblue" stroke="midnightblue" points="61.14,-76.12 50.56,-75.53 58.46,-82.59 61.14,-76.12"/>
</g>
<!-- Node3 -->
<g id="node3" class="node">
<title>Node3</title>
<g id="a_node3"><a xlink:title=" ">
<polygon fill="none" stroke="#bfbfbf" points="78,-56.5 78,-75.5 134,-75.5 134,-56.5 78,-56.5"/>
<text text-anchor="middle" x="106" y="-63.5" font-family="FreeSans" font-size="10.00">iomanip</text>
</a>
</g>
</g>
<!-- Node1&#45;&gt;Node3 -->
<g id="edge2" class="edge">
<title>Node1&#45;&gt;Node3</title>
<path fill="none" stroke="midnightblue" d="M166.59,-112.45C152.97,-102.23 137.68,-90.76 125.86,-81.9"/>
<polygon fill="midnightblue" stroke="midnightblue" points="127.69,-78.9 117.59,-75.7 123.49,-84.5 127.69,-78.9"/>
</g>
<!-- Node4 -->
<g id="node4" class="node">
<title>Node4</title>
<g id="a_node4"><a xlink:title=" ">
<polygon fill="none" stroke="#bfbfbf" points="135,-0.5 135,-19.5 191,-19.5 191,-0.5 135,-0.5"/>
<text text-anchor="middle" x="163" y="-7.5" font-family="FreeSans" font-size="10.00">sstream</text>
</a>
</g>
</g>
<!-- Node1&#45;&gt;Node4 -->
<g id="edge3" class="edge">
<title>Node1&#45;&gt;Node4</title>
<path fill="none" stroke="midnightblue" d="M192.6,-112.2C185.42,-87.66 174.7,-51 168.32,-29.2"/>
<polygon fill="midnightblue" stroke="midnightblue" points="171.67,-28.17 165.5,-19.55 164.95,-30.13 171.67,-28.17"/>
</g>
<!-- Node5 -->
<g id="node5" class="node">
<title>Node5</title>
<g id="a_node5"><a xlink:title=" ">
<polygon fill="none" stroke="#bfbfbf" points="210.5,-0.5 210.5,-19.5 291.5,-19.5 291.5,-0.5 210.5,-0.5"/>
<text text-anchor="middle" x="251" y="-7.5" font-family="FreeSans" font-size="10.00">TSQLServer.h</text>
</a>
</g>
</g>
<!-- Node1&#45;&gt;Node5 -->
<g id="edge4" class="edge">
<title>Node1&#45;&gt;Node5</title>
<path fill="none" stroke="midnightblue" d="M203.26,-112.44C206.02,-95.89 210.88,-74.01 219,-56 223.57,-45.86 230.57,-35.67 236.86,-27.55"/>
<polygon fill="midnightblue" stroke="midnightblue" points="239.68,-29.64 243.26,-19.66 234.24,-25.23 239.68,-29.64"/>
</g>
<!-- Node6 -->
<g id="node6" class="node">
<title>Node6</title>
<g id="a_node6"><a xlink:href="../../d7/d8f/DbSvc_8h.html" target="_top" xlink:title=" ">
<polygon fill="none" stroke="black" points="228.5,-56.5 228.5,-75.5 321.5,-75.5 321.5,-56.5 228.5,-56.5"/>
<text text-anchor="middle" x="275" y="-63.5" font-family="FreeSans" font-size="10.00">db_svc/DbSvc.h</text>
</a>
</g>
</g>
<!-- Node1&#45;&gt;Node6 -->
<g id="edge5" class="edge">
<title>Node1&#45;&gt;Node6</title>
<path fill="none" stroke="midnightblue" d="M226.65,-112.45C237.2,-102.53 249.01,-91.43 258.31,-82.69"/>
<polygon fill="midnightblue" stroke="midnightblue" points="260.86,-85.09 265.75,-75.7 256.07,-79.99 260.86,-85.09"/>
</g>
<!-- Node9 -->
<g id="node9" class="node">
<title>Node9</title>
<g id="a_node9"><a xlink:href="../../db/d8e/UtilOnline_8h.html" target="_top" xlink:title=" ">
<polygon fill="none" stroke="black" points="339.5,-56.5 339.5,-75.5 452.5,-75.5 452.5,-56.5 339.5,-56.5"/>
<text text-anchor="middle" x="396" y="-63.5" font-family="FreeSans" font-size="10.00">UtilAna/UtilOnline.h</text>
</a>
</g>
</g>
<!-- Node1&#45;&gt;Node9 -->
<g id="edge10" class="edge">
<title>Node1&#45;&gt;Node9</title>
<path fill="none" stroke="midnightblue" d="M269.65,-112.45C301.32,-101.06 337.31,-88.11 362.75,-78.96"/>
<polygon fill="midnightblue" stroke="midnightblue" points="364.07,-82.21 372.29,-75.53 361.7,-75.62 364.07,-82.21"/>
</g>
<!-- Node10 -->
<g id="node10" class="node">
<title>Node10</title>
<g id="a_node10"><a xlink:href="../../d5/d82/DecoError_8h.html" target="_top" xlink:title=" ">
<polygon fill="none" stroke="black" points="470.5,-56.5 470.5,-75.5 543.5,-75.5 543.5,-56.5 470.5,-56.5"/>
<text text-anchor="middle" x="507" y="-63.5" font-family="FreeSans" font-size="10.00">DecoError.h</text>
</a>
</g>
</g>
<!-- Node1&#45;&gt;Node10 -->
<g id="edge13" class="edge">
<title>Node1&#45;&gt;Node10</title>
<path fill="none" stroke="midnightblue" d="M282.27,-118.61C339.36,-105.5 413.33,-88.51 460.5,-77.68"/>
<polygon fill="midnightblue" stroke="midnightblue" points="461.47,-81.05 470.43,-75.4 459.9,-74.23 461.47,-81.05"/>
</g>
<!-- Node6&#45;&gt;Node4 -->
<g id="edge8" class="edge">
<title>Node6&#45;&gt;Node4</title>
<path fill="none" stroke="midnightblue" d="M257.01,-56.32C238.96,-47.62 210.95,-34.12 190.2,-24.11"/>
<polygon fill="midnightblue" stroke="midnightblue" points="191.48,-20.84 180.95,-19.65 188.44,-27.15 191.48,-20.84"/>
</g>
<!-- Node6&#45;&gt;Node5 -->
<g id="edge9" class="edge">
<title>Node6&#45;&gt;Node5</title>
<path fill="none" stroke="midnightblue" d="M271.04,-56.08C267.79,-48.77 263.08,-38.18 259.05,-29.1"/>
<polygon fill="midnightblue" stroke="midnightblue" points="262.15,-27.47 254.89,-19.75 255.75,-30.31 262.15,-27.47"/>
</g>
<!-- Node7 -->
<g id="node7" class="node">
<title>Node7</title>
<g id="a_node7"><a xlink:title=" ">
<polygon fill="none" stroke="#bfbfbf" points="372.5,-0.5 372.5,-19.5 419.5,-19.5 419.5,-0.5 372.5,-0.5"/>
<text text-anchor="middle" x="396" y="-7.5" font-family="FreeSans" font-size="10.00">vector</text>
</a>
</g>
</g>
<!-- Node6&#45;&gt;Node7 -->
<g id="edge6" class="edge">
<title>Node6&#45;&gt;Node7</title>
<path fill="none" stroke="midnightblue" d="M294.17,-56.44C313.91,-47.64 344.89,-33.81 367.49,-23.72"/>
<polygon fill="midnightblue" stroke="midnightblue" points="369.21,-26.79 376.92,-19.52 366.36,-20.4 369.21,-26.79"/>
</g>
<!-- Node8 -->
<g id="node8" class="node">
<title>Node8</title>
<g id="a_node8"><a xlink:title=" ">
<polygon fill="none" stroke="#bfbfbf" points="310,-0.5 310,-19.5 354,-19.5 354,-0.5 310,-0.5"/>
<text text-anchor="middle" x="332" y="-7.5" font-family="FreeSans" font-size="10.00">string</text>
</a>
</g>
</g>
<!-- Node6&#45;&gt;Node8 -->
<g id="edge7" class="edge">
<title>Node6&#45;&gt;Node8</title>
<path fill="none" stroke="midnightblue" d="M284.16,-56.32C292.5,-48.42 305.03,-36.55 315.18,-26.94"/>
<polygon fill="midnightblue" stroke="midnightblue" points="317.82,-29.25 322.68,-19.83 313.01,-24.17 317.82,-29.25"/>
</g>
<!-- Node9&#45;&gt;Node7 -->
<g id="edge12" class="edge">
<title>Node9&#45;&gt;Node7</title>
<path fill="none" stroke="midnightblue" d="M396,-56.08C396,-49.01 396,-38.86 396,-29.99"/>
<polygon fill="midnightblue" stroke="midnightblue" points="399.5,-29.75 396,-19.75 392.5,-29.75 399.5,-29.75"/>
</g>
<!-- Node9&#45;&gt;Node8 -->
<g id="edge11" class="edge">
<title>Node9&#45;&gt;Node8</title>
<path fill="none" stroke="midnightblue" d="M385.72,-56.32C376.16,-48.26 361.72,-36.08 350.22,-26.37"/>
<polygon fill="midnightblue" stroke="midnightblue" points="352.37,-23.61 342.47,-19.83 347.86,-28.96 352.37,-23.61"/>
</g>
<!-- Node10&#45;&gt;Node7 -->
<g id="edge14" class="edge">
<title>Node10&#45;&gt;Node7</title>
<path fill="none" stroke="midnightblue" d="M489.17,-56.32C471.28,-47.62 443.52,-34.12 422.95,-24.11"/>
<polygon fill="midnightblue" stroke="midnightblue" points="424.31,-20.88 413.79,-19.65 421.25,-27.18 424.31,-20.88"/>
</g>
</g>
</svg>
