<?xml version="1.0" encoding="UTF-8" standalone="no"?>
<!DOCTYPE svg PUBLIC "-//W3C//DTD SVG 1.1//EN"
 "http://www.w3.org/Graphics/SVG/1.1/DTD/svg11.dtd">
<!-- Generated by graphviz version 2.40.1 (20161225.0304)
 -->
<!-- Title: PHGenEventListv1::print Pages: 1 -->
<svg width="282pt" height="28pt"
 viewBox="0.00 0.00 282.00 28.00" xmlns="http://www.w3.org/2000/svg" xmlns:xlink="http://www.w3.org/1999/xlink">
<g id="graph0" class="graph" transform="scale(1 1) rotate(0) translate(4 24)">
<title>PHGenEventListv1::print</title>
<!-- Node68 -->
<g id="node1" class="node">
<title>Node68</title>
<polygon fill="#bfbfbf" stroke="#000000" points="0,-.5 0,-19.5 120,-19.5 120,-.5 0,-.5"/>
<text text-anchor="middle" x="60" y="-7.5" font-family="FreeSans" font-size="10.00" fill="#000000">PHGenEventListv1::print</text>
</g>
<!-- Node69 -->
<g id="node2" class="node">
<title>Node69</title>
<g id="a_node2"><a xlink:href="../../d1/d57/classPHGenEventListv1.html#adb5b90723fc4e32441166809ebc2e659" target="_top" xlink:title="PHGenEventListv1::size">
<polygon fill="none" stroke="#000000" points="156,-.5 156,-19.5 274,-19.5 274,-.5 156,-.5"/>
<text text-anchor="middle" x="215" y="-7.5" font-family="FreeSans" font-size="10.00" fill="#000000">PHGenEventListv1::size</text>
</a>
</g>
</g>
<!-- Node68&#45;&gt;Node69 -->
<g id="edge1" class="edge">
<title>Node68&#45;&gt;Node69</title>
<path fill="none" stroke="#191970" d="M130.5786,-3.274C139.0142,-3.2154 147.56,-3.2642 155.812,-3.4203"/>
<polygon fill="#191970" stroke="#191970" points="130.3273,.2233 120.3709,-3.3987 130.4129,-6.7762 130.3273,.2233"/>
</g>
<!-- Node69&#45;&gt;Node68 -->
<g id="edge2" class="edge">
<title>Node69&#45;&gt;Node68</title>
<path fill="none" stroke="#191970" d="M145.6278,-16.7169C137.2037,-16.7857 128.65,-16.7472 120.3709,-16.6013"/>
<polygon fill="#191970" stroke="#191970" points="145.8601,-20.2142 155.812,-16.5797 145.7658,-13.2148 145.8601,-20.2142"/>
</g>
</g>
</svg>
