<?xml version="1.0" encoding="UTF-8" standalone="no"?>
<!DOCTYPE svg PUBLIC "-//W3C//DTD SVG 1.1//EN"
 "http://www.w3.org/Graphics/SVG/1.1/DTD/svg11.dtd">
<!-- Generated by graphviz version 2.36.0 (20140111.2315)
 -->
<!-- Title: /home/yuhw/GitHub/SeaQuest/seaquest&#45;ktracker/exe/kFastTracking.cxx Pages: 1 -->
<svg width="3056pt" height="488pt"
 viewBox="0.00 0.00 3056.04 488.00" xmlns="http://www.w3.org/2000/svg" xmlns:xlink="http://www.w3.org/1999/xlink">
<g id="graph0" class="graph" transform="scale(1 1) rotate(0) translate(4 484)">
<title>/home/yuhw/GitHub/SeaQuest/seaquest&#45;ktracker/exe/kFastTracking.cxx</title>
<!-- Node1 -->
<g id="node1" class="node"><title>Node1</title>
<polygon fill="#bfbfbf" stroke="black" points="519.537,-449 519.537,-479 716.537,-479 716.537,-449 519.537,-449"/>
<text text-anchor="start" x="527.537" y="-467" font-family="FreeSans" font-size="10.00">/home/yuhw/GitHub/SeaQuest</text>
<text text-anchor="middle" x="618.037" y="-456" font-family="FreeSans" font-size="10.00">/seaquest&#45;ktracker/exe/kFastTracking.cxx</text>
</g>
<!-- Node2 -->
<g id="node2" class="node"><title>Node2</title>
<polygon fill="none" stroke="#bfbfbf" points="672.037,-0.5 672.037,-19.5 726.037,-19.5 726.037,-0.5 672.037,-0.5"/>
<text text-anchor="middle" x="699.037" y="-7.5" font-family="FreeSans" font-size="10.00">iostream</text>
</g>
<!-- Node1&#45;&gt;Node2 -->
<g id="edge1" class="edge"><title>Node1&#45;&gt;Node2</title>
<path fill="none" stroke="midnightblue" d="M519.382,-462.883C386.62,-461.151 158.809,-452.174 87.037,-412 55.4681,-394.329 38.037,-383.178 38.037,-347 38.037,-347 38.037,-347 38.037,-121 38.037,-46.2989 120.421,-73.5276 193.037,-56 393.083,-7.71399 453.682,-51.403 661.643,-19.748"/>
<polygon fill="midnightblue" stroke="midnightblue" points="662.318,-23.185 671.658,-18.183 661.238,-16.2689 662.318,-23.185"/>
</g>
<!-- Node3 -->
<g id="node3" class="node"><title>Node3</title>
<polygon fill="none" stroke="#bfbfbf" points="589.037,-56.5 589.037,-75.5 633.037,-75.5 633.037,-56.5 589.037,-56.5"/>
<text text-anchor="middle" x="611.037" y="-63.5" font-family="FreeSans" font-size="10.00">cmath</text>
</g>
<!-- Node1&#45;&gt;Node3 -->
<g id="edge2" class="edge"><title>Node1&#45;&gt;Node3</title>
<path fill="none" stroke="midnightblue" d="M569.114,-448.946C539.571,-439.802 501.485,-426.839 469.037,-412 457.807,-406.864 379.187,-366.708 373.037,-356 338.176,-295.306 530.42,-132.19 592.321,-81.9417"/>
<polygon fill="midnightblue" stroke="midnightblue" points="594.567,-84.6261 600.153,-75.623 590.172,-79.178 594.567,-84.6261"/>
</g>
<!-- Node4 -->
<g id="node4" class="node"><title>Node4</title>
<polygon fill="none" stroke="#bfbfbf" points="209.037,-56.5 209.037,-75.5 265.037,-75.5 265.037,-56.5 209.037,-56.5"/>
<text text-anchor="middle" x="237.037" y="-63.5" font-family="FreeSans" font-size="10.00">algorithm</text>
</g>
<!-- Node1&#45;&gt;Node4 -->
<g id="edge3" class="edge"><title>Node1&#45;&gt;Node4</title>
<path fill="none" stroke="midnightblue" d="M519.387,-463.156C392.617,-461.644 181.111,-452.816 116.037,-412 87.3009,-393.976 76.037,-380.921 76.037,-347 76.037,-347 76.037,-347 76.037,-289 76.037,-194.794 172.22,-113.591 215.902,-81.57"/>
<polygon fill="midnightblue" stroke="midnightblue" points="218.049,-84.3372 224.134,-75.664 213.968,-78.6496 218.049,-84.3372"/>
</g>
<!-- Node5 -->
<g id="node5" class="node"><title>Node5</title>
<polygon fill="none" stroke="#bfbfbf" points="757.537,-0.5 757.537,-19.5 798.537,-19.5 798.537,-0.5 757.537,-0.5"/>
<text text-anchor="middle" x="778.037" y="-7.5" font-family="FreeSans" font-size="10.00">string</text>
</g>
<!-- Node1&#45;&gt;Node5 -->
<g id="edge4" class="edge"><title>Node1&#45;&gt;Node5</title>
<path fill="none" stroke="midnightblue" d="M547.576,-448.995C510.852,-440.504 465.663,-428.164 427.037,-412 410.864,-405.232 409.12,-398.978 393.037,-392 341.174,-369.5 310.233,-396.739 271.037,-356 176.04,-257.263 106.46,-156.085 200.037,-56 240.727,-12.4801 676.014,-28.1224 735.037,-20 739.004,-19.4541 743.152,-18.7536 747.24,-17.9849"/>
<polygon fill="midnightblue" stroke="midnightblue" points="748.035,-21.3952 757.143,-15.9826 746.647,-14.534 748.035,-21.3952"/>
</g>
<!-- Node6 -->
<g id="node6" class="node"><title>Node6</title>
<polygon fill="none" stroke="#bfbfbf" points="142.537,-392.5 142.537,-411.5 185.537,-411.5 185.537,-392.5 142.537,-392.5"/>
<text text-anchor="middle" x="164.037" y="-399.5" font-family="FreeSans" font-size="10.00">time.h</text>
</g>
<!-- Node1&#45;&gt;Node6 -->
<g id="edge5" class="edge"><title>Node1&#45;&gt;Node6</title>
<path fill="none" stroke="midnightblue" d="M519.121,-454.408C434.09,-446.194 308.403,-432.077 200.037,-412 198.572,-411.729 197.078,-411.433 195.572,-411.119"/>
<polygon fill="midnightblue" stroke="midnightblue" points="196.171,-407.666 185.644,-408.862 194.619,-414.492 196.171,-407.666"/>
</g>
<!-- Node7 -->
<g id="node7" class="node"><title>Node7</title>
<polygon fill="none" stroke="#bfbfbf" points="596.037,-0.5 596.037,-19.5 654.037,-19.5 654.037,-0.5 596.037,-0.5"/>
<text text-anchor="middle" x="625.037" y="-7.5" font-family="FreeSans" font-size="10.00">TROOT.h</text>
</g>
<!-- Node1&#45;&gt;Node7 -->
<g id="edge6" class="edge"><title>Node1&#45;&gt;Node7</title>
<path fill="none" stroke="midnightblue" d="M519.273,-460.244C360.531,-454.972 62.4408,-441.278 24.037,-412 -0.453036,-393.33 0.0369696,-377.795 0.0369696,-347 0.0369696,-347 0.0369696,-347 0.0369696,-121 0.0369696,-90.2048 -0.554544,-74.5365 24.037,-56 68.786,-22.2692 459.508,-13.4795 585.828,-11.5091"/>
<polygon fill="midnightblue" stroke="midnightblue" points="585.894,-15.0086 595.841,-11.3587 585.789,-8.00942 585.894,-15.0086"/>
</g>
<!-- Node8 -->
<g id="node8" class="node"><title>Node8</title>
<polygon fill="none" stroke="#bfbfbf" points="280.037,-336.5 280.037,-355.5 326.037,-355.5 326.037,-336.5 280.037,-336.5"/>
<text text-anchor="middle" x="303.037" y="-343.5" font-family="FreeSans" font-size="10.00">TFile.h</text>
</g>
<!-- Node1&#45;&gt;Node8 -->
<g id="edge7" class="edge"><title>Node1&#45;&gt;Node8</title>
<path fill="none" stroke="midnightblue" d="M519.311,-460.726C436.661,-456.489 327.876,-444.659 300.037,-412 289.292,-399.394 291.84,-379.905 295.978,-365.553"/>
<polygon fill="midnightblue" stroke="midnightblue" points="299.395,-366.373 299.259,-355.779 292.759,-364.145 299.395,-366.373"/>
</g>
<!-- Node9 -->
<g id="node9" class="node"><title>Node9</title>
<polygon fill="none" stroke="#bfbfbf" points="382.037,-336.5 382.037,-355.5 432.037,-355.5 432.037,-336.5 382.037,-336.5"/>
<text text-anchor="middle" x="407.037" y="-343.5" font-family="FreeSans" font-size="10.00">TTree.h</text>
</g>
<!-- Node1&#45;&gt;Node9 -->
<g id="edge8" class="edge"><title>Node1&#45;&gt;Node9</title>
<path fill="none" stroke="midnightblue" d="M519.323,-460.166C439.352,-455.541 335.728,-443.457 309.037,-412 286.942,-385.96 335.562,-366.198 371.919,-355.628"/>
<polygon fill="midnightblue" stroke="midnightblue" points="373.078,-358.938 381.779,-352.892 371.207,-352.193 373.078,-358.938"/>
</g>
<!-- Node10 -->
<g id="node10" class="node"><title>Node10</title>
<polygon fill="none" stroke="#bfbfbf" points="318.037,-392.5 318.037,-411.5 384.037,-411.5 384.037,-392.5 318.037,-392.5"/>
<text text-anchor="middle" x="351.037" y="-399.5" font-family="FreeSans" font-size="10.00">TRandom.h</text>
</g>
<!-- Node1&#45;&gt;Node10 -->
<g id="edge9" class="edge"><title>Node1&#45;&gt;Node10</title>
<path fill="none" stroke="midnightblue" d="M555.437,-448.933C505.922,-437.806 438.075,-422.559 394.393,-412.743"/>
<polygon fill="midnightblue" stroke="midnightblue" points="394.899,-409.269 384.375,-410.492 393.364,-416.099 394.899,-409.269"/>
</g>
<!-- Node11 -->
<g id="node11" class="node"><title>Node11</title>
<polygon fill="none" stroke="#bfbfbf" points="431.537,-56.5 431.537,-75.5 494.537,-75.5 494.537,-56.5 431.537,-56.5"/>
<text text-anchor="middle" x="463.037" y="-63.5" font-family="FreeSans" font-size="10.00">TMatrixD.h</text>
</g>
<!-- Node1&#45;&gt;Node11 -->
<g id="edge10" class="edge"><title>Node1&#45;&gt;Node11</title>
<path fill="none" stroke="midnightblue" d="M519.496,-458.954C435.429,-453.528 322.937,-440.949 289.037,-412 178.458,-317.569 379.899,-135.697 444.239,-82.1711"/>
<polygon fill="midnightblue" stroke="midnightblue" points="446.536,-84.8133 452.035,-75.7572 442.089,-79.4075 446.536,-84.8133"/>
</g>
<!-- Node12 -->
<g id="node12" class="node"><title>Node12</title>
<polygon fill="none" stroke="#bfbfbf" points="283.537,-56.5 283.537,-75.5 374.537,-75.5 374.537,-56.5 283.537,-56.5"/>
<text text-anchor="middle" x="329.037" y="-63.5" font-family="FreeSans" font-size="10.00">TLorentzVector.h</text>
</g>
<!-- Node1&#45;&gt;Node12 -->
<g id="edge11" class="edge"><title>Node1&#45;&gt;Node12</title>
<path fill="none" stroke="midnightblue" d="M519.398,-459.564C385.09,-453.853 158.37,-440.137 133.037,-412 33.5633,-301.518 241.095,-132.131 308.707,-81.67"/>
<polygon fill="midnightblue" stroke="midnightblue" points="310.956,-84.3603 316.927,-75.6085 306.802,-78.7263 310.956,-84.3603"/>
</g>
<!-- Node13 -->
<g id="node13" class="node"><title>Node13</title>
<polygon fill="none" stroke="#bfbfbf" points="478.537,-392.5 478.537,-411.5 561.537,-411.5 561.537,-392.5 478.537,-392.5"/>
<text text-anchor="middle" x="520.037" y="-399.5" font-family="FreeSans" font-size="10.00">TClonesArray.h</text>
</g>
<!-- Node1&#45;&gt;Node13 -->
<g id="edge12" class="edge"><title>Node1&#45;&gt;Node13</title>
<path fill="none" stroke="midnightblue" d="M594.812,-448.781C579.009,-439.105 558.205,-426.368 542.554,-416.786"/>
<polygon fill="midnightblue" stroke="midnightblue" points="544.367,-413.792 534.011,-411.556 540.712,-419.762 544.367,-413.792"/>
</g>
<!-- Node14 -->
<g id="node14" class="node"><title>Node14</title>
<polygon fill="none" stroke="#bfbfbf" points="579.537,-392.5 579.537,-411.5 656.537,-411.5 656.537,-392.5 579.537,-392.5"/>
<text text-anchor="middle" x="618.037" y="-399.5" font-family="FreeSans" font-size="10.00">TStopwatch.h</text>
</g>
<!-- Node1&#45;&gt;Node14 -->
<g id="edge13" class="edge"><title>Node1&#45;&gt;Node14</title>
<path fill="none" stroke="midnightblue" d="M618.037,-448.781C618.037,-440.781 618.037,-430.689 618.037,-422.017"/>
<polygon fill="midnightblue" stroke="midnightblue" points="621.537,-421.73 618.037,-411.731 614.537,-421.731 621.537,-421.73"/>
</g>
<!-- Node15 -->
<g id="node15" class="node"><title>Node15</title>
<polygon fill="none" stroke="#bfbfbf" points="675.037,-392.5 675.037,-411.5 755.037,-411.5 755.037,-392.5 675.037,-392.5"/>
<text text-anchor="middle" x="715.037" y="-399.5" font-family="FreeSans" font-size="10.00">TTimeStamp.h</text>
</g>
<!-- Node1&#45;&gt;Node15 -->
<g id="edge14" class="edge"><title>Node1&#45;&gt;Node15</title>
<path fill="none" stroke="midnightblue" d="M641.025,-448.781C656.52,-439.196 676.874,-426.606 692.314,-417.056"/>
<polygon fill="midnightblue" stroke="midnightblue" points="694.542,-419.793 701.205,-411.556 690.86,-413.84 694.542,-419.793"/>
</g>
<!-- Node16 -->
<g id="node16" class="node"><title>Node16</title>
<polygon fill="none" stroke="#bfbfbf" points="773.037,-392.5 773.037,-411.5 829.037,-411.5 829.037,-392.5 773.037,-392.5"/>
<text text-anchor="middle" x="801.037" y="-399.5" font-family="FreeSans" font-size="10.00">TString.h</text>
</g>
<!-- Node1&#45;&gt;Node16 -->
<g id="edge15" class="edge"><title>Node1&#45;&gt;Node16</title>
<path fill="none" stroke="midnightblue" d="M660.942,-448.933C692.738,-438.508 735.564,-424.467 765.463,-414.663"/>
<polygon fill="midnightblue" stroke="midnightblue" points="766.661,-417.954 775.073,-411.513 764.481,-411.302 766.661,-417.954"/>
</g>
<!-- Node17 -->
<g id="node17" class="node"><title>Node17</title>
<polygon fill="none" stroke="#bfbfbf" points="847.037,-392.5 847.037,-411.5 915.037,-411.5 915.037,-392.5 847.037,-392.5"/>
<text text-anchor="middle" x="881.037" y="-399.5" font-family="FreeSans" font-size="10.00">GeomSvc.h</text>
</g>
<!-- Node1&#45;&gt;Node17 -->
<g id="edge16" class="edge"><title>Node1&#45;&gt;Node17</title>
<path fill="none" stroke="midnightblue" d="M679.699,-448.933C727.91,-437.934 793.765,-422.91 836.833,-413.085"/>
<polygon fill="midnightblue" stroke="midnightblue" points="837.76,-416.463 846.731,-410.826 836.203,-409.638 837.76,-416.463"/>
</g>
<!-- Node18 -->
<g id="node18" class="node"><title>Node18</title>
<polygon fill="none" stroke="#bfbfbf" points="933.537,-392.5 933.537,-411.5 1008.54,-411.5 1008.54,-392.5 933.537,-392.5"/>
<text text-anchor="middle" x="971.037" y="-399.5" font-family="FreeSans" font-size="10.00">SRawEvent.h</text>
</g>
<!-- Node1&#45;&gt;Node18 -->
<g id="edge17" class="edge"><title>Node1&#45;&gt;Node18</title>
<path fill="none" stroke="midnightblue" d="M705.517,-448.993C764.255,-439.454 843.65,-426.302 923.143,-412.125"/>
<polygon fill="midnightblue" stroke="midnightblue" points="924.114,-415.507 933.342,-410.301 922.882,-408.617 924.114,-415.507"/>
</g>
<!-- Node19 -->
<g id="node19" class="node"><title>Node19</title>
<polygon fill="none" stroke="#bfbfbf" points="1026.54,-392.5 1026.54,-411.5 1099.54,-411.5 1099.54,-392.5 1026.54,-392.5"/>
<text text-anchor="middle" x="1063.04" y="-399.5" font-family="FreeSans" font-size="10.00">SRecEvent.h</text>
</g>
<!-- Node1&#45;&gt;Node19 -->
<g id="edge18" class="edge"><title>Node1&#45;&gt;Node19</title>
<path fill="none" stroke="midnightblue" d="M716.681,-452.229C795.141,-443.235 907.929,-429.355 1016.28,-412.024"/>
<polygon fill="midnightblue" stroke="midnightblue" points="1017.1,-415.438 1026.42,-410.391 1015.99,-408.527 1017.1,-415.438"/>
</g>
<!-- Node20 -->
<g id="node20" class="node"><title>Node20</title>
<polygon fill="none" stroke="#bfbfbf" points="1117.54,-392.5 1117.54,-411.5 1196.54,-411.5 1196.54,-392.5 1117.54,-392.5"/>
<text text-anchor="middle" x="1157.04" y="-399.5" font-family="FreeSans" font-size="10.00">FastTracklet.h</text>
</g>
<!-- Node1&#45;&gt;Node20 -->
<g id="edge19" class="edge"><title>Node1&#45;&gt;Node20</title>
<path fill="none" stroke="midnightblue" d="M716.861,-454.992C813.699,-446.623 965.678,-432.099 1107.32,-411.992"/>
<polygon fill="midnightblue" stroke="midnightblue" points="1108.1,-415.417 1117.5,-410.535 1107.1,-408.488 1108.1,-415.417"/>
</g>
<!-- Node21 -->
<g id="node21" class="node"><title>Node21</title>
<polygon fill="none" stroke="#bfbfbf" points="1215.04,-392.5 1215.04,-411.5 1329.04,-411.5 1329.04,-392.5 1215.04,-392.5"/>
<text text-anchor="middle" x="1272.04" y="-399.5" font-family="FreeSans" font-size="10.00">KalmanFastTracking.h</text>
</g>
<!-- Node1&#45;&gt;Node21 -->
<g id="edge20" class="edge"><title>Node1&#45;&gt;Node21</title>
<path fill="none" stroke="midnightblue" d="M716.584,-455.856C831.153,-447.228 1026.19,-431.548 1204.58,-411.998"/>
<polygon fill="midnightblue" stroke="midnightblue" points="1205.12,-415.459 1214.68,-410.885 1204.35,-408.501 1205.12,-415.459"/>
</g>
<!-- Node22 -->
<g id="node22" class="node"><title>Node22</title>
<polygon fill="none" stroke="#bfbfbf" points="1347.04,-392.5 1347.04,-411.5 1427.04,-411.5 1427.04,-392.5 1347.04,-392.5"/>
<text text-anchor="middle" x="1387.04" y="-399.5" font-family="FreeSans" font-size="10.00">KalmanFitter.h</text>
</g>
<!-- Node1&#45;&gt;Node22 -->
<g id="edge21" class="edge"><title>Node1&#45;&gt;Node22</title>
<path fill="none" stroke="midnightblue" d="M716.786,-459.475C853.799,-453.808 1109.44,-440.431 1336.86,-412.009"/>
<polygon fill="midnightblue" stroke="midnightblue" points="1337.5,-415.456 1346.98,-410.731 1336.62,-408.511 1337.5,-415.456"/>
</g>
<!-- Node23 -->
<g id="node23" class="node"><title>Node23</title>
<g id="a_node23"><a xlink:href="../../dc/df1/VertexFit_8h.html" target="_top" xlink:title="VertexFit.h">
<polygon fill="none" stroke="black" points="1445.54,-392.5 1445.54,-411.5 1508.54,-411.5 1508.54,-392.5 1445.54,-392.5"/>
<text text-anchor="middle" x="1477.04" y="-399.5" font-family="FreeSans" font-size="10.00">VertexFit.h</text>
</a>
</g>
</g>
<!-- Node1&#45;&gt;Node23 -->
<g id="edge22" class="edge"><title>Node1&#45;&gt;Node23</title>
<path fill="none" stroke="midnightblue" d="M716.742,-461.736C869.012,-458.702 1170.39,-448.39 1435.15,-411.884"/>
<polygon fill="midnightblue" stroke="midnightblue" points="1435.92,-415.31 1445.34,-410.463 1434.95,-408.377 1435.92,-415.31"/>
</g>
<!-- Node48 -->
<g id="node48" class="node"><title>Node48</title>
<polygon fill="none" stroke="#bfbfbf" points="1526.54,-392.5 1526.54,-411.5 1611.54,-411.5 1611.54,-392.5 1526.54,-392.5"/>
<text text-anchor="middle" x="1569.04" y="-399.5" font-family="FreeSans" font-size="10.00">EventReducer.h</text>
</g>
<!-- Node1&#45;&gt;Node48 -->
<g id="edge107" class="edge"><title>Node1&#45;&gt;Node48</title>
<path fill="none" stroke="midnightblue" d="M716.793,-461.099C880.769,-457.124 1219.66,-445.438 1516.43,-411.917"/>
<polygon fill="midnightblue" stroke="midnightblue" points="1516.99,-415.376 1526.53,-410.766 1516.2,-408.421 1516.99,-415.376"/>
</g>
<!-- Node49 -->
<g id="node49" class="node"><title>Node49</title>
<polygon fill="none" stroke="#bfbfbf" points="1630.04,-392.5 1630.04,-411.5 1708.04,-411.5 1708.04,-392.5 1630.04,-392.5"/>
<text text-anchor="middle" x="1669.04" y="-399.5" font-family="FreeSans" font-size="10.00">JobOptsSvc.h</text>
</g>
<!-- Node1&#45;&gt;Node49 -->
<g id="edge108" class="edge"><title>Node1&#45;&gt;Node49</title>
<path fill="none" stroke="midnightblue" d="M716.883,-462.247C895.289,-459.946 1283.01,-450.647 1619.84,-411.832"/>
<polygon fill="midnightblue" stroke="midnightblue" points="1620.26,-415.307 1629.79,-410.675 1619.45,-408.354 1620.26,-415.307"/>
</g>
<!-- Node50 -->
<g id="node50" class="node"><title>Node50</title>
<polygon fill="none" stroke="#bfbfbf" points="1726.54,-392.5 1726.54,-411.5 1809.54,-411.5 1809.54,-392.5 1726.54,-392.5"/>
<text text-anchor="middle" x="1768.04" y="-399.5" font-family="FreeSans" font-size="10.00">GlobalConsts.h</text>
</g>
<!-- Node1&#45;&gt;Node50 -->
<g id="edge109" class="edge"><title>Node1&#45;&gt;Node50</title>
<path fill="none" stroke="midnightblue" d="M716.883,-462.654C908.093,-461.057 1341.99,-452.91 1716.41,-411.904"/>
<polygon fill="midnightblue" stroke="midnightblue" points="1716.8,-415.382 1726.35,-410.805 1716.03,-408.424 1716.8,-415.382"/>
</g>
<!-- Node23&#45;&gt;Node2 -->
<g id="edge23" class="edge"><title>Node23&#45;&gt;Node2</title>
<path fill="none" stroke="midnightblue" d="M1445.35,-393.46C1442.22,-392.89 1439.07,-392.388 1436.04,-392 1331.37,-378.635 584.001,-397.624 487.037,-356 323.283,-285.705 269.248,-240.215 200.037,-76 196.585,-67.8089 194.001,-62.525 200.037,-56 233.432,-19.9019 578.081,-27.3172 661.657,-19.4039"/>
<polygon fill="midnightblue" stroke="midnightblue" points="662.157,-22.8689 671.658,-18.1794 661.306,-15.9208 662.157,-22.8689"/>
</g>
<!-- Node23&#45;&gt;Node8 -->
<g id="edge26" class="edge"><title>Node23&#45;&gt;Node8</title>
<path fill="none" stroke="midnightblue" d="M1445.35,-393.447C1442.22,-392.88 1439.07,-392.382 1436.04,-392 967.008,-333.079 844.208,-394.183 373.037,-356 361.068,-355.03 348.005,-353.484 336.439,-351.945"/>
<polygon fill="midnightblue" stroke="midnightblue" points="336.697,-348.447 326.313,-350.55 335.742,-355.382 336.697,-348.447"/>
</g>
<!-- Node23&#45;&gt;Node9 -->
<g id="edge27" class="edge"><title>Node23&#45;&gt;Node9</title>
<path fill="none" stroke="midnightblue" d="M1445.35,-393.455C1442.22,-392.886 1439.07,-392.385 1436.04,-392 999.249,-336.576 882.522,-413.763 446.037,-356 444.758,-355.831 443.46,-355.639 442.152,-355.428"/>
<polygon fill="midnightblue" stroke="midnightblue" points="442.561,-351.943 432.084,-353.52 441.257,-358.821 442.561,-351.943"/>
</g>
<!-- Node23&#45;&gt;Node11 -->
<g id="edge28" class="edge"><title>Node23&#45;&gt;Node11</title>
<path fill="none" stroke="midnightblue" d="M1445.35,-393.465C1442.22,-392.894 1439.07,-392.39 1436.04,-392 1335.23,-379.054 610.731,-405.627 522.037,-356 465.561,-324.4 441.037,-299.715 441.037,-235 441.037,-235 441.037,-235 441.037,-177 441.037,-144.328 450.484,-107.24 456.997,-85.5533"/>
<polygon fill="midnightblue" stroke="midnightblue" points="460.427,-86.3103 460.07,-75.7215 453.746,-84.2221 460.427,-86.3103"/>
</g>
<!-- Node24 -->
<g id="node24" class="node"><title>Node24</title>
<polygon fill="none" stroke="#bfbfbf" points="829.037,-0.5 829.037,-19.5 873.037,-19.5 873.037,-0.5 829.037,-0.5"/>
<text text-anchor="middle" x="851.037" y="-7.5" font-family="FreeSans" font-size="10.00">vector</text>
</g>
<!-- Node23&#45;&gt;Node24 -->
<g id="edge24" class="edge"><title>Node23&#45;&gt;Node24</title>
<path fill="none" stroke="midnightblue" d="M1445.34,-393.521C1442.21,-392.939 1439.07,-392.417 1436.04,-392 1297.56,-372.955 939.995,-402.117 808.037,-356 607.965,-286.079 513.174,-267.342 422.037,-76 384.859,2.05411 721.52,-32.706 807.037,-20 810.806,-19.4399 814.74,-18.7657 818.639,-18.0413"/>
<polygon fill="midnightblue" stroke="midnightblue" points="819.602,-21.4187 828.736,-16.0504 818.248,-14.5509 819.602,-21.4187"/>
</g>
<!-- Node25 -->
<g id="node25" class="node"><title>Node25</title>
<g id="a_node25"><a xlink:href="../../d2/dde/seaquest-ktracker_2inc_2GlobalConsts_8h.html" target="_top" xlink:title="GlobalConsts.h">
<polygon fill="none" stroke="black" points="2740.54,-0.5 2740.54,-19.5 2823.54,-19.5 2823.54,-0.5 2740.54,-0.5"/>
<text text-anchor="middle" x="2782.04" y="-7.5" font-family="FreeSans" font-size="10.00">GlobalConsts.h</text>
</a>
</g>
</g>
<!-- Node23&#45;&gt;Node25 -->
<g id="edge25" class="edge"><title>Node23&#45;&gt;Node25</title>
<path fill="none" stroke="midnightblue" d="M1508.82,-393.28C1511.59,-392.781 1514.35,-392.342 1517.04,-392 2008.43,-329.351 2138.2,-405.986 2631.04,-356 2801.07,-338.755 3010.04,-461.904 3010.04,-291 3010.04,-291 3010.04,-291 3010.04,-177 3010.04,-87.9301 2894.91,-41.6247 2828.27,-22.2826"/>
<polygon fill="midnightblue" stroke="midnightblue" points="2828.99,-18.8487 2818.42,-19.5149 2827.1,-25.588 2828.99,-18.8487"/>
</g>
<!-- Node26 -->
<g id="node26" class="node"><title>Node26</title>
<g id="a_node26"><a xlink:href="../../de/d9a/seaquest-ktracker_2inc_2KalmanUtil_8h.html" target="_top" xlink:title="KalmanUtil.h">
<polygon fill="none" stroke="black" points="852.037,-224.5 852.037,-243.5 924.037,-243.5 924.037,-224.5 852.037,-224.5"/>
<text text-anchor="middle" x="888.037" y="-231.5" font-family="FreeSans" font-size="10.00">KalmanUtil.h</text>
</a>
</g>
</g>
<!-- Node23&#45;&gt;Node26 -->
<g id="edge29" class="edge"><title>Node23&#45;&gt;Node26</title>
<path fill="none" stroke="midnightblue" d="M1445.34,-393.55C1442.21,-392.962 1439.07,-392.431 1436.04,-392 1316.53,-375.012 1005.2,-403.058 894.037,-356 853.894,-339.006 813.196,-319.31 832.037,-280 838.29,-266.954 850.373,-256.492 861.719,-248.951"/>
<polygon fill="midnightblue" stroke="midnightblue" points="863.846,-251.752 870.535,-243.535 860.183,-245.787 863.846,-251.752"/>
</g>
<!-- Node31 -->
<g id="node31" class="node"><title>Node31</title>
<g id="a_node31"><a xlink:href="../../d7/ddc/seaquest-ktracker_2inc_2FastTracklet_8h.html" target="_top" xlink:title="FastTracklet.h">
<polygon fill="none" stroke="black" points="2065.54,-168.5 2065.54,-187.5 2144.54,-187.5 2144.54,-168.5 2065.54,-168.5"/>
<text text-anchor="middle" x="2105.04" y="-175.5" font-family="FreeSans" font-size="10.00">FastTracklet.h</text>
</a>
</g>
</g>
<!-- Node23&#45;&gt;Node31 -->
<g id="edge105" class="edge"><title>Node23&#45;&gt;Node31</title>
<path fill="none" stroke="midnightblue" d="M1501.27,-392.433C1598.31,-358.129 1959.03,-230.615 2071.39,-190.893"/>
<polygon fill="midnightblue" stroke="midnightblue" points="2072.61,-194.174 2080.88,-187.541 2070.28,-187.574 2072.61,-194.174"/>
</g>
<!-- Node34 -->
<g id="node34" class="node"><title>Node34</title>
<g id="a_node34"><a xlink:href="../../d8/dab/seaquest-ktracker_2inc_2SRecEvent_8h.html" target="_top" xlink:title="SRecEvent.h">
<polygon fill="none" stroke="black" points="711.537,-112.5 711.537,-131.5 784.537,-131.5 784.537,-112.5 711.537,-112.5"/>
<text text-anchor="middle" x="748.037" y="-119.5" font-family="FreeSans" font-size="10.00">SRecEvent.h</text>
</a>
</g>
</g>
<!-- Node23&#45;&gt;Node34 -->
<g id="edge104" class="edge"><title>Node23&#45;&gt;Node34</title>
<path fill="none" stroke="midnightblue" d="M1445.34,-393.535C1442.21,-392.95 1439.07,-392.423 1436.04,-392 1307.04,-373.983 972.719,-402.448 851.037,-356 790.056,-332.722 774.752,-306.532 756.037,-244 746.269,-211.361 745.28,-202.061 746.037,-168 746.228,-159.391 746.625,-149.863 747.015,-141.799"/>
<polygon fill="midnightblue" stroke="midnightblue" points="750.52,-141.79 747.54,-131.623 743.529,-141.429 750.52,-141.79"/>
</g>
<!-- Node35 -->
<g id="node35" class="node"><title>Node35</title>
<g id="a_node35"><a xlink:href="../../d4/d21/seaquest-ktracker_2inc_2KalmanFilter_8h.html" target="_top" xlink:title="KalmanFilter.h">
<polygon fill="none" stroke="black" points="1227.54,-280.5 1227.54,-299.5 1306.54,-299.5 1306.54,-280.5 1227.54,-280.5"/>
<text text-anchor="middle" x="1267.04" y="-287.5" font-family="FreeSans" font-size="10.00">KalmanFilter.h</text>
</a>
</g>
</g>
<!-- Node23&#45;&gt;Node35 -->
<g id="edge74" class="edge"><title>Node23&#45;&gt;Node35</title>
<path fill="none" stroke="midnightblue" d="M1460.56,-392.368C1424.06,-373.251 1336.2,-327.229 1292.54,-304.361"/>
<polygon fill="midnightblue" stroke="midnightblue" points="1293.92,-301.131 1283.44,-299.591 1290.67,-307.332 1293.92,-301.131"/>
</g>
<!-- Node36 -->
<g id="node36" class="node"><title>Node36</title>
<g id="a_node36"><a xlink:href="../../d5/ddd/TrackExtrapolator_8hh.html" target="_top" xlink:title="TrackExtrapolator.hh">
<polygon fill="none" stroke="red" points="2075.54,-112.5 2075.54,-131.5 2180.54,-131.5 2180.54,-112.5 2075.54,-112.5"/>
<text text-anchor="middle" x="2128.04" y="-119.5" font-family="FreeSans" font-size="10.00">TrackExtrapolator.hh</text>
</a>
</g>
</g>
<!-- Node23&#45;&gt;Node36 -->
<g id="edge106" class="edge"><title>Node23&#45;&gt;Node36</title>
<path fill="none" stroke="midnightblue" d="M1508.83,-393.393C1511.6,-392.87 1514.36,-392.394 1517.04,-392 1595.12,-380.5 2934.04,-369.922 2934.04,-291 2934.04,-291 2934.04,-291 2934.04,-233 2934.04,-158.072 2380.14,-131.778 2190.69,-124.977"/>
<polygon fill="midnightblue" stroke="midnightblue" points="2190.73,-121.476 2180.61,-124.621 2190.48,-128.472 2190.73,-121.476"/>
</g>
<!-- Node46 -->
<g id="node46" class="node"><title>Node46</title>
<g id="a_node46"><a xlink:href="../../d7/d46/seaquest-ktracker_2inc_2KalmanTrack_8h.html" target="_top" xlink:title="KalmanTrack.h">
<polygon fill="none" stroke="black" points="903.037,-336.5 903.037,-355.5 985.037,-355.5 985.037,-336.5 903.037,-336.5"/>
<text text-anchor="middle" x="944.037" y="-343.5" font-family="FreeSans" font-size="10.00">KalmanTrack.h</text>
</a>
</g>
</g>
<!-- Node23&#45;&gt;Node46 -->
<g id="edge94" class="edge"><title>Node23&#45;&gt;Node46</title>
<path fill="none" stroke="midnightblue" d="M1445.33,-393.629C1442.2,-393.025 1439.06,-392.468 1436.04,-392 1276.23,-367.251 1084.96,-354.548 995.24,-349.572"/>
<polygon fill="midnightblue" stroke="midnightblue" points="995.245,-346.067 985.069,-349.017 994.864,-353.057 995.245,-346.067"/>
</g>
<!-- Node26&#45;&gt;Node2 -->
<g id="edge31" class="edge"><title>Node26&#45;&gt;Node2</title>
<path fill="none" stroke="midnightblue" d="M852.005,-230.239C808.556,-225.828 734.13,-214.767 676.037,-188 638.898,-170.888 629.508,-163.167 603.037,-132 579.529,-104.322 552.118,-85.6837 573.037,-56 578.411,-48.3747 626.655,-32.5997 661.851,-21.9056"/>
<polygon fill="midnightblue" stroke="midnightblue" points="663.271,-25.1333 671.838,-18.9 661.254,-18.4303 663.271,-25.1333"/>
</g>
<!-- Node26&#45;&gt;Node3 -->
<g id="edge32" class="edge"><title>Node26&#45;&gt;Node3</title>
<path fill="none" stroke="midnightblue" d="M870.712,-224.492C837.349,-207.913 762.166,-169.602 702.037,-132 676.432,-115.988 648.347,-95.4368 630.248,-81.7741"/>
<polygon fill="midnightblue" stroke="midnightblue" points="632.299,-78.9367 622.22,-75.6704 628.062,-84.509 632.299,-78.9367"/>
</g>
<!-- Node26&#45;&gt;Node5 -->
<g id="edge33" class="edge"><title>Node26&#45;&gt;Node5</title>
<path fill="none" stroke="midnightblue" d="M851.966,-227.674C783.419,-215.338 636.182,-177.662 580.037,-76 575.74,-68.2189 574.492,-62.9471 580.037,-56 582.671,-52.7 692.329,-29.121 747.292,-17.4753"/>
<polygon fill="midnightblue" stroke="midnightblue" points="748.135,-20.8746 757.195,-15.381 746.687,-14.0261 748.135,-20.8746"/>
</g>
<!-- Node26&#45;&gt;Node11 -->
<g id="edge34" class="edge"><title>Node26&#45;&gt;Node11</title>
<path fill="none" stroke="midnightblue" d="M851.769,-230.675C780.718,-225.642 626.028,-212.199 579.037,-188 531.13,-163.329 491.838,-111.043 473.762,-83.9977"/>
<polygon fill="midnightblue" stroke="midnightblue" points="476.664,-82.0403 468.273,-75.5708 470.798,-85.8605 476.664,-82.0403"/>
</g>
<!-- Node26&#45;&gt;Node25 -->
<g id="edge30" class="edge"><title>Node26&#45;&gt;Node25</title>
<path fill="none" stroke="midnightblue" d="M924.096,-232.869C1120.39,-232.009 2061.92,-225.94 2350.04,-188 2539.02,-163.114 2631.83,-213.314 2764.04,-76 2775.83,-63.7531 2780.03,-44.4906 2781.47,-30.1093"/>
<polygon fill="midnightblue" stroke="midnightblue" points="2784.98,-30.0496 2782.11,-19.8495 2777.99,-29.6099 2784.98,-30.0496"/>
</g>
<!-- Node27 -->
<g id="node27" class="node"><title>Node27</title>
<polygon fill="none" stroke="#bfbfbf" points="1123.04,-0.5 1123.04,-19.5 1187.04,-19.5 1187.04,-0.5 1123.04,-0.5"/>
<text text-anchor="middle" x="1155.04" y="-7.5" font-family="FreeSans" font-size="10.00">TVector3.h</text>
</g>
<!-- Node26&#45;&gt;Node27 -->
<g id="edge35" class="edge"><title>Node26&#45;&gt;Node27</title>
<path fill="none" stroke="midnightblue" d="M924.111,-233.281C1074.74,-234.125 1668.19,-234.169 2153.04,-188 2359.93,-168.299 2504.36,-256.69 2607.04,-76 2611.43,-68.2718 2613.24,-62.365 2607.04,-56 2553.85,-1.44018 1345.31,-27.8414 1197.35,-19.4817"/>
<polygon fill="midnightblue" stroke="midnightblue" points="1197.42,-15.976 1187.17,-18.6593 1196.85,-22.9532 1197.42,-15.976"/>
</g>
<!-- Node28 -->
<g id="node28" class="node"><title>Node28</title>
<g id="a_node28"><a xlink:href="../../df/d0e/seaquest-ktracker_2inc_2SRawEvent_8h.html" target="_top" xlink:title="SRawEvent.h">
<polygon fill="none" stroke="black" points="1117.54,-56.5 1117.54,-75.5 1192.54,-75.5 1192.54,-56.5 1117.54,-56.5"/>
<text text-anchor="middle" x="1155.04" y="-63.5" font-family="FreeSans" font-size="10.00">SRawEvent.h</text>
</a>
</g>
</g>
<!-- Node26&#45;&gt;Node28 -->
<g id="edge36" class="edge"><title>Node26&#45;&gt;Node28</title>
<path fill="none" stroke="midnightblue" d="M892.588,-224.432C904.842,-202.215 940.823,-142.374 988.037,-112 1007.73,-99.3287 1065.43,-85.391 1107.51,-76.4353"/>
<polygon fill="midnightblue" stroke="midnightblue" points="1108.23,-79.8599 1117.3,-74.3806 1106.8,-73.0092 1108.23,-79.8599"/>
</g>
<!-- Node26&#45;&gt;Node31 -->
<g id="edge45" class="edge"><title>Node26&#45;&gt;Node31</title>
<path fill="none" stroke="midnightblue" d="M924.129,-231.399C1098.52,-223.66 1853.73,-190.151 2055.38,-181.203"/>
<polygon fill="midnightblue" stroke="midnightblue" points="2055.56,-184.699 2065.39,-180.759 2055.25,-177.706 2055.56,-184.699"/>
</g>
<!-- Node28&#45;&gt;Node2 -->
<g id="edge38" class="edge"><title>Node28&#45;&gt;Node2</title>
<path fill="none" stroke="midnightblue" d="M1117.31,-60.9843C1023.39,-50.9665 784.084,-25.2962 748.037,-20 744.153,-19.4293 740.105,-18.778 736.075,-18.0927"/>
<polygon fill="midnightblue" stroke="midnightblue" points="736.65,-14.6402 726.194,-16.3455 735.432,-21.5333 736.65,-14.6402"/>
</g>
<!-- Node28&#45;&gt;Node5 -->
<g id="edge41" class="edge"><title>Node28&#45;&gt;Node5</title>
<path fill="none" stroke="midnightblue" d="M1117.46,-60.916C1055.34,-53.9487 927.425,-38.6895 820.037,-20 816.368,-19.3615 812.533,-18.6296 808.735,-17.8651"/>
<polygon fill="midnightblue" stroke="midnightblue" points="809.416,-14.4319 798.911,-15.8069 807.981,-21.2832 809.416,-14.4319"/>
</g>
<!-- Node28&#45;&gt;Node7 -->
<g id="edge43" class="edge"><title>Node28&#45;&gt;Node7</title>
<path fill="none" stroke="midnightblue" d="M1117.39,-60.8729C1102.63,-59.2916 1085.55,-57.5068 1070.04,-56 892.558,-38.7562 844.043,-48.6288 664.458,-20.0181"/>
<polygon fill="midnightblue" stroke="midnightblue" points="664.841,-16.5346 654.411,-18.3994 663.727,-23.4455 664.841,-16.5346"/>
</g>
<!-- Node28&#45;&gt;Node24 -->
<g id="edge39" class="edge"><title>Node28&#45;&gt;Node24</title>
<path fill="none" stroke="midnightblue" d="M1117.46,-58.3244C1057.19,-47.6188 939.954,-26.7944 883.268,-16.7252"/>
<polygon fill="midnightblue" stroke="midnightblue" points="883.873,-13.2781 873.415,-14.9751 882.649,-20.1702 883.873,-13.2781"/>
</g>
<!-- Node28&#45;&gt;Node25 -->
<g id="edge37" class="edge"><title>Node28&#45;&gt;Node25</title>
<path fill="none" stroke="midnightblue" d="M1192.65,-60.6429C1208.76,-58.931 1227.8,-57.1128 1245.04,-56 1827.07,-18.4249 2535.13,-12.2098 2730.18,-11.1951"/>
<polygon fill="midnightblue" stroke="midnightblue" points="2730.43,-14.694 2740.42,-11.1442 2730.4,-7.69407 2730.43,-14.694"/>
</g>
<!-- Node28&#45;&gt;Node27 -->
<g id="edge44" class="edge"><title>Node28&#45;&gt;Node27</title>
<path fill="none" stroke="midnightblue" d="M1155.04,-56.083C1155.04,-49.0059 1155.04,-38.8611 1155.04,-29.9865"/>
<polygon fill="midnightblue" stroke="midnightblue" points="1158.54,-29.751 1155.04,-19.7511 1151.54,-29.7511 1158.54,-29.751"/>
</g>
<!-- Node29 -->
<g id="node29" class="node"><title>Node29</title>
<polygon fill="none" stroke="#bfbfbf" points="2919.54,-0.5 2919.54,-19.5 2948.54,-19.5 2948.54,-0.5 2919.54,-0.5"/>
<text text-anchor="middle" x="2934.04" y="-7.5" font-family="FreeSans" font-size="10.00">list</text>
</g>
<!-- Node28&#45;&gt;Node29 -->
<g id="edge40" class="edge"><title>Node28&#45;&gt;Node29</title>
<path fill="none" stroke="midnightblue" d="M1192.82,-61.8759C1218.29,-59.8845 1252.66,-57.4201 1283.04,-56 1970.92,-23.8411 2144.47,-58.2832 2832.04,-20 2858.52,-18.5256 2888.77,-15.7131 2909.41,-13.6229"/>
<polygon fill="midnightblue" stroke="midnightblue" points="2909.94,-17.0868 2919.53,-12.5778 2909.23,-10.1238 2909.94,-17.0868"/>
</g>
<!-- Node30 -->
<g id="node30" class="node"><title>Node30</title>
<polygon fill="none" stroke="#bfbfbf" points="1205.54,-0.5 1205.54,-19.5 1264.54,-19.5 1264.54,-0.5 1205.54,-0.5"/>
<text text-anchor="middle" x="1235.04" y="-7.5" font-family="FreeSans" font-size="10.00">TObject.h</text>
</g>
<!-- Node28&#45;&gt;Node30 -->
<g id="edge42" class="edge"><title>Node28&#45;&gt;Node30</title>
<path fill="none" stroke="midnightblue" d="M1167.89,-56.324C1180.25,-47.979 1199.17,-35.2122 1213.77,-25.3524"/>
<polygon fill="midnightblue" stroke="midnightblue" points="1215.89,-28.1503 1222.22,-19.6545 1211.97,-22.3483 1215.89,-28.1503"/>
</g>
<!-- Node31&#45;&gt;Node24 -->
<g id="edge48" class="edge"><title>Node31&#45;&gt;Node24</title>
<path fill="none" stroke="midnightblue" d="M2065.51,-175.647C1891.45,-169.352 1192.67,-140.469 984.037,-76 943.142,-63.3632 899.166,-39.6577 873.426,-24.634"/>
<polygon fill="midnightblue" stroke="midnightblue" points="875.195,-21.614 864.807,-19.5284 871.627,-27.6366 875.195,-21.614"/>
</g>
<!-- Node31&#45;&gt;Node25 -->
<g id="edge46" class="edge"><title>Node31&#45;&gt;Node25</title>
<path fill="none" stroke="midnightblue" d="M2144.82,-175.69C2267.51,-171.402 2634.61,-156.63 2682.04,-132 2726.63,-108.844 2758.85,-56.2867 2773.4,-28.6841"/>
<polygon fill="midnightblue" stroke="midnightblue" points="2776.53,-30.2442 2777.95,-19.7444 2770.3,-27.0693 2776.53,-30.2442"/>
</g>
<!-- Node31&#45;&gt;Node27 -->
<g id="edge50" class="edge"><title>Node31&#45;&gt;Node27</title>
<path fill="none" stroke="midnightblue" d="M2144.71,-173.707C2271.49,-162.468 2654.92,-122.58 2590.04,-56 2537.5,-2.08893 1343.51,-27.782 1197.23,-19.4742"/>
<polygon fill="midnightblue" stroke="midnightblue" points="1197.42,-15.9777 1187.17,-18.6583 1196.85,-22.9548 1197.42,-15.9777"/>
</g>
<!-- Node31&#45;&gt;Node28 -->
<g id="edge58" class="edge"><title>Node31&#45;&gt;Node28</title>
<path fill="none" stroke="midnightblue" d="M2065.43,-172.413C1913.55,-154.828 1368.63,-91.732 1203.08,-72.5628"/>
<polygon fill="midnightblue" stroke="midnightblue" points="1203.07,-69.0381 1192.73,-71.3646 1202.26,-75.9917 1203.07,-69.0381"/>
</g>
<!-- Node31&#45;&gt;Node29 -->
<g id="edge47" class="edge"><title>Node31&#45;&gt;Node29</title>
<path fill="none" stroke="midnightblue" d="M2144.59,-176.198C2261.28,-173.494 2602.54,-163.072 2709.04,-132 2790.63,-108.193 2876.15,-52.2239 2913.99,-25.5852"/>
<polygon fill="midnightblue" stroke="midnightblue" points="2916.04,-28.4281 2922.15,-19.7757 2911.97,-22.7267 2916.04,-28.4281"/>
</g>
<!-- Node31&#45;&gt;Node30 -->
<g id="edge49" class="edge"><title>Node31&#45;&gt;Node30</title>
<path fill="none" stroke="midnightblue" d="M2144.77,-176.71C2263.63,-175.435 2610.38,-168.583 2644.04,-132 2666.91,-107.142 2667.54,-80.2627 2644.04,-56 2595.14,-5.51525 1499.27,-9.40107 1274.94,-10.7297"/>
<polygon fill="midnightblue" stroke="midnightblue" points="1274.6,-7.23154 1264.62,-10.7926 1274.65,-14.2314 1274.6,-7.23154"/>
</g>
<!-- Node32 -->
<g id="node32" class="node"><title>Node32</title>
<g id="a_node32"><a xlink:href="../../d9/dcb/seaquest-ktracker_2inc_2GeomSvc_8h.html" target="_top" xlink:title="GeomSvc.h">
<polygon fill="none" stroke="red" points="993.037,-56.5 993.037,-75.5 1061.04,-75.5 1061.04,-56.5 993.037,-56.5"/>
<text text-anchor="middle" x="1027.04" y="-63.5" font-family="FreeSans" font-size="10.00">GeomSvc.h</text>
</a>
</g>
</g>
<!-- Node31&#45;&gt;Node32 -->
<g id="edge51" class="edge"><title>Node31&#45;&gt;Node32</title>
<path fill="none" stroke="midnightblue" d="M2065.32,-174.464C1973.12,-168.439 1737.43,-152.242 1541.04,-132 1366.75,-114.037 1160.11,-85.7779 1071.25,-73.2907"/>
<polygon fill="midnightblue" stroke="midnightblue" points="1071.65,-69.8124 1061.26,-71.8832 1070.68,-76.744 1071.65,-69.8124"/>
</g>
<!-- Node31&#45;&gt;Node34 -->
<g id="edge59" class="edge"><title>Node31&#45;&gt;Node34</title>
<path fill="none" stroke="midnightblue" d="M2065.52,-175.428C1869.93,-167.644 1006.32,-133.278 794.879,-124.864"/>
<polygon fill="midnightblue" stroke="midnightblue" points="794.865,-121.361 784.734,-124.46 794.587,-128.355 794.865,-121.361"/>
</g>
<!-- Node32&#45;&gt;Node2 -->
<g id="edge53" class="edge"><title>Node32&#45;&gt;Node2</title>
<path fill="none" stroke="midnightblue" d="M992.635,-59.6978C939.926,-51.518 836.033,-35.176 748.037,-20 744.168,-19.3328 740.131,-18.6192 736.106,-17.8967"/>
<polygon fill="midnightblue" stroke="midnightblue" points="736.697,-14.4468 726.232,-16.1037 735.446,-21.3342 736.697,-14.4468"/>
</g>
<!-- Node32&#45;&gt;Node5 -->
<g id="edge55" class="edge"><title>Node32&#45;&gt;Node5</title>
<path fill="none" stroke="midnightblue" d="M992.937,-57.6048C944.148,-47.0242 855.176,-27.729 808.489,-17.604"/>
<polygon fill="midnightblue" stroke="midnightblue" points="809.172,-14.1708 798.657,-15.4718 807.688,-21.0118 809.172,-14.1708"/>
</g>
<!-- Node32&#45;&gt;Node24 -->
<g id="edge54" class="edge"><title>Node32&#45;&gt;Node24</title>
<path fill="none" stroke="midnightblue" d="M999.149,-56.4435C967.526,-46.7411 916.066,-30.952 882.889,-20.7727"/>
<polygon fill="midnightblue" stroke="midnightblue" points="883.808,-17.3939 873.222,-17.8067 881.755,-24.086 883.808,-17.3939"/>
</g>
<!-- Node32&#45;&gt;Node25 -->
<g id="edge52" class="edge"><title>Node32&#45;&gt;Node25</title>
<path fill="none" stroke="midnightblue" d="M1061.27,-60.5536C1075.68,-58.8486 1092.65,-57.0597 1108.04,-56 1746.27,-12.0416 2524.14,-10.4051 2730.03,-10.8124"/>
<polygon fill="midnightblue" stroke="midnightblue" points="2730.24,-14.3127 2740.25,-10.8352 2730.25,-7.31276 2730.24,-14.3127"/>
</g>
<!-- Node32&#45;&gt;Node27 -->
<g id="edge57" class="edge"><title>Node32&#45;&gt;Node27</title>
<path fill="none" stroke="midnightblue" d="M1047.32,-56.4435C1068.38,-47.5566 1101.55,-33.5632 1125.52,-23.4514"/>
<polygon fill="midnightblue" stroke="midnightblue" points="1127,-26.6283 1134.85,-19.5164 1124.28,-20.1787 1127,-26.6283"/>
</g>
<!-- Node33 -->
<g id="node33" class="node"><title>Node33</title>
<polygon fill="none" stroke="#bfbfbf" points="978.537,-0.5 978.537,-19.5 1013.54,-19.5 1013.54,-0.5 978.537,-0.5"/>
<text text-anchor="middle" x="996.037" y="-7.5" font-family="FreeSans" font-size="10.00">map</text>
</g>
<!-- Node32&#45;&gt;Node33 -->
<g id="edge56" class="edge"><title>Node32&#45;&gt;Node33</title>
<path fill="none" stroke="midnightblue" d="M1021.92,-56.083C1017.63,-48.6127 1011.38,-37.7244 1006.09,-28.5199"/>
<polygon fill="midnightblue" stroke="midnightblue" points="1009.07,-26.6811 1001.06,-19.7511 1003,-30.1662 1009.07,-26.6811"/>
</g>
<!-- Node34&#45;&gt;Node2 -->
<g id="edge61" class="edge"><title>Node34&#45;&gt;Node2</title>
<path fill="none" stroke="midnightblue" d="M744.192,-112.368C736.213,-94.4563 717.712,-52.9233 707.032,-28.9482"/>
<polygon fill="midnightblue" stroke="midnightblue" points="710.13,-27.3019 702.864,-19.5914 703.736,-30.1503 710.13,-27.3019"/>
</g>
<!-- Node34&#45;&gt;Node3 -->
<g id="edge67" class="edge"><title>Node34&#45;&gt;Node3</title>
<path fill="none" stroke="midnightblue" d="M726.329,-112.444C703.682,-103.517 667.965,-89.4387 642.285,-79.3168"/>
<polygon fill="midnightblue" stroke="midnightblue" points="643.23,-75.9273 632.643,-75.5164 640.663,-82.4397 643.23,-75.9273"/>
</g>
<!-- Node34&#45;&gt;Node4 -->
<g id="edge65" class="edge"><title>Node34&#45;&gt;Node4</title>
<path fill="none" stroke="midnightblue" d="M711.53,-119.328C633.268,-115.36 443.454,-103.683 275.257,-75.9761"/>
<polygon fill="midnightblue" stroke="midnightblue" points="275.672,-72.4971 265.232,-74.3012 274.519,-79.4014 275.672,-72.4971"/>
</g>
<!-- Node34&#45;&gt;Node5 -->
<g id="edge64" class="edge"><title>Node34&#45;&gt;Node5</title>
<path fill="none" stroke="midnightblue" d="M749.284,-112.48C751.219,-99.9578 755.326,-75.912 761.037,-56 763.598,-47.0691 767.144,-37.4021 770.335,-29.3254"/>
<polygon fill="midnightblue" stroke="midnightblue" points="773.676,-30.4008 774.212,-19.8195 767.194,-27.7569 773.676,-30.4008"/>
</g>
<!-- Node34&#45;&gt;Node7 -->
<g id="edge69" class="edge"><title>Node34&#45;&gt;Node7</title>
<path fill="none" stroke="midnightblue" d="M738.385,-112.368C717.638,-93.8137 668.549,-49.9129 642.299,-26.4376"/>
<polygon fill="midnightblue" stroke="midnightblue" points="644.431,-23.6487 634.644,-19.5914 639.765,-28.8665 644.431,-23.6487"/>
</g>
<!-- Node34&#45;&gt;Node11 -->
<g id="edge70" class="edge"><title>Node34&#45;&gt;Node11</title>
<path fill="none" stroke="midnightblue" d="M711.362,-114.051C658.288,-103.995 560.345,-85.4373 504.641,-74.8828"/>
<polygon fill="midnightblue" stroke="midnightblue" points="505.228,-71.4319 494.751,-73.009 503.925,-78.3095 505.228,-71.4319"/>
</g>
<!-- Node34&#45;&gt;Node12 -->
<g id="edge72" class="edge"><title>Node34&#45;&gt;Node12</title>
<path fill="none" stroke="midnightblue" d="M711.221,-116.255C637.555,-106.761 471.644,-85.3789 384.653,-74.1677"/>
<polygon fill="midnightblue" stroke="midnightblue" points="385.067,-70.6922 374.702,-72.8852 384.172,-77.6348 385.067,-70.6922"/>
</g>
<!-- Node34&#45;&gt;Node24 -->
<g id="edge62" class="edge"><title>Node34&#45;&gt;Node24</title>
<path fill="none" stroke="midnightblue" d="M754.143,-112.157C763.247,-99.2322 781.224,-74.69 799.037,-56 809.204,-45.3319 821.656,-34.4894 831.826,-26.1209"/>
<polygon fill="midnightblue" stroke="midnightblue" points="834.154,-28.7394 839.732,-19.7314 829.754,-23.2953 834.154,-28.7394"/>
</g>
<!-- Node34&#45;&gt;Node25 -->
<g id="edge60" class="edge"><title>Node34&#45;&gt;Node25</title>
<path fill="none" stroke="midnightblue" d="M784.6,-120.428C864.971,-118.545 1062.7,-110.479 1224.04,-76 1251.11,-70.2135 1255.79,-60.9139 1283.04,-56 1427.65,-29.921 2482.95,-14.8425 2730.27,-11.6438"/>
<polygon fill="midnightblue" stroke="midnightblue" points="2730.47,-15.1416 2740.43,-11.5133 2730.38,-8.14222 2730.47,-15.1416"/>
</g>
<!-- Node34&#45;&gt;Node27 -->
<g id="edge71" class="edge"><title>Node34&#45;&gt;Node27</title>
<path fill="none" stroke="midnightblue" d="M784.678,-118.235C857.774,-112.338 1019.06,-97.3026 1070.04,-76 1097.19,-64.6541 1123.28,-42.4655 1139.23,-27.1946"/>
<polygon fill="midnightblue" stroke="midnightblue" points="1141.93,-29.4454 1146.6,-19.9335 1137.02,-24.4595 1141.93,-29.4454"/>
</g>
<!-- Node34&#45;&gt;Node28 -->
<g id="edge73" class="edge"><title>Node34&#45;&gt;Node28</title>
<path fill="none" stroke="midnightblue" d="M784.652,-116.913C849.125,-109.592 987.07,-93.3764 1103.04,-76 1104.34,-75.8053 1105.65,-75.6041 1106.98,-75.3978"/>
<polygon fill="midnightblue" stroke="midnightblue" points="1107.98,-78.7827 1117.3,-73.7387 1106.87,-71.8715 1107.98,-78.7827"/>
</g>
<!-- Node34&#45;&gt;Node29 -->
<g id="edge63" class="edge"><title>Node34&#45;&gt;Node29</title>
<path fill="none" stroke="midnightblue" d="M784.594,-121.665C870.371,-122.401 1090.7,-119.501 1268.04,-76 1290.48,-70.4939 1293.43,-60.8012 1316.04,-56 1480.85,-20.997 2663.81,-29.4096 2832.04,-20 2858.52,-18.5189 2888.77,-15.7075 2909.41,-13.6194"/>
<polygon fill="midnightblue" stroke="midnightblue" points="2909.94,-17.0833 2919.53,-12.5755 2909.23,-10.1203 2909.94,-17.0833"/>
</g>
<!-- Node34&#45;&gt;Node30 -->
<g id="edge68" class="edge"><title>Node34&#45;&gt;Node30</title>
<path fill="none" stroke="midnightblue" d="M784.712,-121.725C880.131,-122.94 1133.41,-121.666 1201.04,-76 1216.83,-65.3329 1225.78,-44.9205 1230.49,-29.8043"/>
<polygon fill="midnightblue" stroke="midnightblue" points="1233.92,-30.5191 1233.2,-19.9486 1227.17,-28.6595 1233.92,-30.5191"/>
</g>
<!-- Node34&#45;&gt;Node33 -->
<g id="edge66" class="edge"><title>Node34&#45;&gt;Node33</title>
<path fill="none" stroke="midnightblue" d="M767.497,-112.368C811.495,-92.8534 918.704,-45.3008 969.066,-22.9631"/>
<polygon fill="midnightblue" stroke="midnightblue" points="970.622,-26.1015 978.344,-18.8475 967.784,-19.7027 970.622,-26.1015"/>
</g>
<!-- Node35&#45;&gt;Node24 -->
<g id="edge77" class="edge"><title>Node35&#45;&gt;Node24</title>
<path fill="none" stroke="midnightblue" d="M1252.28,-280.439C1204.71,-252.663 1051.52,-161.881 932.037,-76 909.801,-60.0175 885.44,-40.1213 869.301,-26.5802"/>
<polygon fill="midnightblue" stroke="midnightblue" points="871.145,-23.5559 861.247,-19.7764 866.628,-28.9033 871.145,-23.5559"/>
</g>
<!-- Node35&#45;&gt;Node25 -->
<g id="edge75" class="edge"><title>Node35&#45;&gt;Node25</title>
<path fill="none" stroke="midnightblue" d="M1306.76,-288.392C1552.77,-284.37 2858.04,-259.25 2858.04,-179 2858.04,-179 2858.04,-179 2858.04,-121 2858.04,-81.2757 2824.07,-45.5045 2801.55,-26.1536"/>
<polygon fill="midnightblue" stroke="midnightblue" points="2803.52,-23.2364 2793.58,-19.5672 2799.06,-28.6337 2803.52,-23.2364"/>
</g>
<!-- Node35&#45;&gt;Node26 -->
<g id="edge79" class="edge"><title>Node35&#45;&gt;Node26</title>
<path fill="none" stroke="midnightblue" d="M1227.19,-283.323C1156.49,-273.25 1009.49,-252.305 934.384,-241.603"/>
<polygon fill="midnightblue" stroke="midnightblue" points="934.672,-238.109 924.278,-240.164 933.685,-245.039 934.672,-238.109"/>
</g>
<!-- Node35&#45;&gt;Node29 -->
<g id="edge76" class="edge"><title>Node35&#45;&gt;Node29</title>
<path fill="none" stroke="midnightblue" d="M1306.83,-288.66C1501.4,-286.846 2353.83,-277.117 2617.04,-244 2731.73,-229.569 2784.35,-264.479 2871.04,-188 2918.49,-146.136 2930.2,-66.0716 2933.09,-29.7483"/>
<polygon fill="midnightblue" stroke="midnightblue" points="2936.59,-29.8025 2933.75,-19.5958 2929.61,-29.3467 2936.59,-29.8025"/>
</g>
<!-- Node35&#45;&gt;Node32 -->
<g id="edge78" class="edge"><title>Node35&#45;&gt;Node32</title>
<path fill="none" stroke="midnightblue" d="M1257.63,-280.297C1221.41,-246.796 1090.69,-125.88 1043.87,-82.5688"/>
<polygon fill="midnightblue" stroke="midnightblue" points="1046.1,-79.8636 1036.38,-75.6425 1041.34,-85.0023 1046.1,-79.8636"/>
</g>
<!-- Node35&#45;&gt;Node36 -->
<g id="edge80" class="edge"><title>Node35&#45;&gt;Node36</title>
<path fill="none" stroke="midnightblue" d="M1306.74,-287.521C1471.56,-280.981 2095.82,-252.105 2153.04,-188 2165.3,-174.255 2154.11,-153.844 2143.04,-139.572"/>
<polygon fill="midnightblue" stroke="midnightblue" points="2145.47,-137.023 2136.37,-131.594 2140.1,-141.512 2145.47,-137.023"/>
</g>
<!-- Node36&#45;&gt;Node5 -->
<g id="edge90" class="edge"><title>Node36&#45;&gt;Node5</title>
<path fill="none" stroke="midnightblue" d="M2075.36,-120.785C1880.1,-119.701 1197.97,-113.269 984.037,-76 919.665,-64.7857 847.493,-38.727 807.957,-23.2249"/>
<polygon fill="midnightblue" stroke="midnightblue" points="809.219,-19.9603 798.633,-19.5266 806.638,-26.4672 809.219,-19.9603"/>
</g>
<!-- Node36&#45;&gt;Node11 -->
<g id="edge91" class="edge"><title>Node36&#45;&gt;Node11</title>
<path fill="none" stroke="midnightblue" d="M2075.21,-120.378C1877.98,-117.86 1166.01,-107.037 580.037,-76 555.098,-74.6791 527.215,-72.5595 504.926,-70.7091"/>
<polygon fill="midnightblue" stroke="midnightblue" points="505.05,-67.2072 494.792,-69.8544 504.462,-74.1824 505.05,-67.2072"/>
</g>
<!-- Node36&#45;&gt;Node25 -->
<g id="edge93" class="edge"><title>Node36&#45;&gt;Node25</title>
<path fill="none" stroke="midnightblue" d="M2180.73,-120.488C2269.55,-118.64 2454.26,-110.55 2606.04,-76 2660.24,-63.662 2720.39,-38.8888 2754.47,-23.7422"/>
<polygon fill="midnightblue" stroke="midnightblue" points="2756.08,-26.8533 2763.77,-19.5593 2753.21,-20.4693 2756.08,-26.8533"/>
</g>
<!-- Node36&#45;&gt;Node27 -->
<g id="edge92" class="edge"><title>Node36&#45;&gt;Node27</title>
<path fill="none" stroke="midnightblue" d="M2180.63,-121.114C2309.93,-120.521 2628.88,-113.324 2573.04,-56 2521.2,-2.7912 1344.08,-27.6725 1197.56,-19.4915"/>
<polygon fill="midnightblue" stroke="midnightblue" points="1197.41,-15.9688 1187.17,-18.6573 1196.85,-22.9464 1197.41,-15.9688"/>
</g>
<!-- Node37 -->
<g id="node37" class="node"><title>Node37</title>
<polygon fill="none" stroke="#bfbfbf" points="2454.04,-56.5 2454.04,-75.5 2564.04,-75.5 2564.04,-56.5 2454.04,-56.5"/>
<text text-anchor="middle" x="2509.04" y="-63.5" font-family="FreeSans" font-size="10.00">G4ErrorPropagator.hh</text>
</g>
<!-- Node36&#45;&gt;Node37 -->
<g id="edge81" class="edge"><title>Node36&#45;&gt;Node37</title>
<path fill="none" stroke="midnightblue" d="M2180.61,-113.548C2249.24,-103.821 2369.34,-86.7991 2443.73,-76.2557"/>
<polygon fill="midnightblue" stroke="midnightblue" points="2444.51,-79.6811 2453.92,-74.8124 2443.52,-72.7504 2444.51,-79.6811"/>
</g>
<!-- Node38 -->
<g id="node38" class="node"><title>Node38</title>
<polygon fill="none" stroke="#bfbfbf" points="1325.04,-56.5 1325.04,-75.5 1455.04,-75.5 1455.04,-56.5 1325.04,-56.5"/>
<text text-anchor="middle" x="1390.04" y="-63.5" font-family="FreeSans" font-size="10.00">G4ErrorPropagatorData.hh</text>
</g>
<!-- Node36&#45;&gt;Node38 -->
<g id="edge82" class="edge"><title>Node36&#45;&gt;Node38</title>
<path fill="none" stroke="midnightblue" d="M2075.45,-118.392C1964.66,-112.691 1698.88,-97.9238 1465.43,-76.0851"/>
<polygon fill="midnightblue" stroke="midnightblue" points="1465.67,-72.5928 1455.39,-75.1397 1465.01,-79.5619 1465.67,-72.5928"/>
</g>
<!-- Node39 -->
<g id="node39" class="node"><title>Node39</title>
<polygon fill="none" stroke="#bfbfbf" points="1473.54,-56.5 1473.54,-75.5 1620.54,-75.5 1620.54,-56.5 1473.54,-56.5"/>
<text text-anchor="middle" x="1547.04" y="-63.5" font-family="FreeSans" font-size="10.00">G4ErrorPropagatorManager.hh</text>
</g>
<!-- Node36&#45;&gt;Node39 -->
<g id="edge83" class="edge"><title>Node36&#45;&gt;Node39</title>
<path fill="none" stroke="midnightblue" d="M2075.31,-116.547C1986.15,-108.951 1799.69,-92.7679 1630.86,-76.0659"/>
<polygon fill="midnightblue" stroke="midnightblue" points="1631.09,-72.5716 1620.8,-75.0672 1630.4,-79.5374 1631.09,-72.5716"/>
</g>
<!-- Node40 -->
<g id="node40" class="node"><title>Node40</title>
<polygon fill="none" stroke="#bfbfbf" points="1638.54,-56.5 1638.54,-75.5 1787.54,-75.5 1787.54,-56.5 1638.54,-56.5"/>
<text text-anchor="middle" x="1713.04" y="-63.5" font-family="FreeSans" font-size="10.00">G4ErrorPlaneSurfaceTarget.hh</text>
</g>
<!-- Node36&#45;&gt;Node40 -->
<g id="edge84" class="edge"><title>Node36&#45;&gt;Node40</title>
<path fill="none" stroke="midnightblue" d="M2075.48,-114.161C2002.93,-104.721 1871.67,-87.6418 1788.61,-76.8335"/>
<polygon fill="midnightblue" stroke="midnightblue" points="1788.84,-73.3345 1778.47,-75.5148 1787.94,-80.276 1788.84,-73.3345"/>
</g>
<!-- Node41 -->
<g id="node41" class="node"><title>Node41</title>
<polygon fill="none" stroke="#bfbfbf" points="1806.04,-56.5 1806.04,-75.5 1942.04,-75.5 1942.04,-56.5 1806.04,-56.5"/>
<text text-anchor="middle" x="1874.04" y="-63.5" font-family="FreeSans" font-size="10.00">G4ErrorSurfaceTrajState.hh</text>
</g>
<!-- Node36&#45;&gt;Node41 -->
<g id="edge85" class="edge"><title>Node36&#45;&gt;Node41</title>
<path fill="none" stroke="midnightblue" d="M2087.79,-112.444C2043.39,-103.004 1971.88,-87.802 1923.95,-77.6111"/>
<polygon fill="midnightblue" stroke="midnightblue" points="1924.6,-74.1725 1914.1,-75.5164 1923.15,-81.0195 1924.6,-74.1725"/>
</g>
<!-- Node42 -->
<g id="node42" class="node"><title>Node42</title>
<polygon fill="none" stroke="#bfbfbf" points="1960.54,-56.5 1960.54,-75.5 2051.54,-75.5 2051.54,-56.5 1960.54,-56.5"/>
<text text-anchor="middle" x="2006.04" y="-63.5" font-family="FreeSans" font-size="10.00">G4ErrorTrajErr.hh</text>
</g>
<!-- Node36&#45;&gt;Node42 -->
<g id="edge86" class="edge"><title>Node36&#45;&gt;Node42</title>
<path fill="none" stroke="midnightblue" d="M2108.71,-112.444C2088.72,-103.596 2057.29,-89.6875 2034.47,-79.5865"/>
<polygon fill="midnightblue" stroke="midnightblue" points="2035.84,-76.3635 2025.28,-75.5164 2033.01,-82.7645 2035.84,-76.3635"/>
</g>
<!-- Node43 -->
<g id="node43" class="node"><title>Node43</title>
<polygon fill="none" stroke="#bfbfbf" points="2070.04,-56.5 2070.04,-75.5 2186.04,-75.5 2186.04,-56.5 2070.04,-56.5"/>
<text text-anchor="middle" x="2128.04" y="-63.5" font-family="FreeSans" font-size="10.00">G4SteppingVerbose.hh</text>
</g>
<!-- Node36&#45;&gt;Node43 -->
<g id="edge87" class="edge"><title>Node36&#45;&gt;Node43</title>
<path fill="none" stroke="midnightblue" d="M2128.04,-112.083C2128.04,-105.006 2128.04,-94.8611 2128.04,-85.9865"/>
<polygon fill="midnightblue" stroke="midnightblue" points="2131.54,-85.751 2128.04,-75.7511 2124.54,-85.7511 2131.54,-85.751"/>
</g>
<!-- Node44 -->
<g id="node44" class="node"><title>Node44</title>
<polygon fill="none" stroke="#bfbfbf" points="2204.04,-56.5 2204.04,-75.5 2294.04,-75.5 2294.04,-56.5 2204.04,-56.5"/>
<text text-anchor="middle" x="2249.04" y="-63.5" font-family="FreeSans" font-size="10.00">G4UImanager.hh</text>
</g>
<!-- Node36&#45;&gt;Node44 -->
<g id="edge88" class="edge"><title>Node36&#45;&gt;Node44</title>
<path fill="none" stroke="midnightblue" d="M2147.21,-112.444C2166.95,-103.636 2197.92,-89.8116 2220.53,-79.722"/>
<polygon fill="midnightblue" stroke="midnightblue" points="2222.25,-82.788 2229.95,-75.5164 2219.4,-76.3957 2222.25,-82.788"/>
</g>
<!-- Node45 -->
<g id="node45" class="node"><title>Node45</title>
<polygon fill="none" stroke="#bfbfbf" points="2312.54,-56.5 2312.54,-75.5 2435.54,-75.5 2435.54,-56.5 2312.54,-56.5"/>
<text text-anchor="middle" x="2374.04" y="-63.5" font-family="FreeSans" font-size="10.00">G4VSteppingVerbose.hh</text>
</g>
<!-- Node36&#45;&gt;Node45 -->
<g id="edge89" class="edge"><title>Node36&#45;&gt;Node45</title>
<path fill="none" stroke="midnightblue" d="M2167.02,-112.444C2209.93,-103.023 2278.98,-87.8656 2325.41,-77.6752"/>
<polygon fill="midnightblue" stroke="midnightblue" points="2326.22,-81.0792 2335.24,-75.5164 2324.72,-74.242 2326.22,-81.0792"/>
</g>
<!-- Node46&#45;&gt;Node4 -->
<g id="edge98" class="edge"><title>Node46&#45;&gt;Node4</title>
<path fill="none" stroke="midnightblue" d="M908.165,-336.438C874.695,-328.148 823.529,-314.704 780.037,-300 575.943,-231 341.266,-118.398 263.546,-80.1728"/>
<polygon fill="midnightblue" stroke="midnightblue" points="264.966,-76.9709 254.45,-75.6856 261.869,-83.2486 264.966,-76.9709"/>
</g>
<!-- Node46&#45;&gt;Node24 -->
<g id="edge97" class="edge"><title>Node46&#45;&gt;Node24</title>
<path fill="none" stroke="midnightblue" d="M902.922,-337.765C879.153,-331.556 850.407,-320.258 832.037,-300 811.819,-277.704 813.037,-265.098 813.037,-235 813.037,-235 813.037,-235 813.037,-121 813.037,-86.8131 829.637,-49.7639 840.894,-28.5707"/>
<polygon fill="midnightblue" stroke="midnightblue" points="843.984,-30.2151 845.753,-19.769 837.856,-26.832 843.984,-30.2151"/>
</g>
<!-- Node46&#45;&gt;Node25 -->
<g id="edge95" class="edge"><title>Node46&#45;&gt;Node25</title>
<path fill="none" stroke="midnightblue" d="M985.339,-345.09C1254.09,-345.239 2747.28,-339.231 2871.04,-188 2908.62,-142.08 2888.15,-102.293 2851.04,-56 2840.35,-42.6733 2824.62,-31.9866 2810.87,-24.3773"/>
<polygon fill="midnightblue" stroke="midnightblue" points="2812.24,-21.1441 2801.76,-19.6064 2809,-27.3456 2812.24,-21.1441"/>
</g>
<!-- Node46&#45;&gt;Node26 -->
<g id="edge100" class="edge"><title>Node46&#45;&gt;Node26</title>
<path fill="none" stroke="midnightblue" d="M939.643,-336.368C930.483,-318.376 909.19,-276.55 897.011,-252.627"/>
<polygon fill="midnightblue" stroke="midnightblue" points="900.067,-250.915 892.411,-243.591 893.829,-254.091 900.067,-250.915"/>
</g>
<!-- Node46&#45;&gt;Node28 -->
<g id="edge103" class="edge"><title>Node46&#45;&gt;Node28</title>
<path fill="none" stroke="midnightblue" d="M950.583,-336.375C980.243,-297.297 1102.3,-136.477 1142.29,-83.7944"/>
<polygon fill="midnightblue" stroke="midnightblue" points="1145.31,-85.6058 1148.57,-75.5243 1139.73,-81.3737 1145.31,-85.6058"/>
</g>
<!-- Node46&#45;&gt;Node29 -->
<g id="edge96" class="edge"><title>Node46&#45;&gt;Node29</title>
<path fill="none" stroke="midnightblue" d="M985.267,-344.517C1196.14,-341.933 2155.66,-328.771 2452.04,-300 2721.07,-273.884 3048.04,-449.293 3048.04,-179 3048.04,-179 3048.04,-179 3048.04,-121 3048.04,-71.4366 2991.54,-37.1436 2958.1,-21.1826"/>
<polygon fill="midnightblue" stroke="midnightblue" points="2959.49,-17.9717 2948.94,-16.9948 2956.58,-24.3373 2959.49,-17.9717"/>
</g>
<!-- Node46&#45;&gt;Node34 -->
<g id="edge102" class="edge"><title>Node46&#45;&gt;Node34</title>
<path fill="none" stroke="midnightblue" d="M902.968,-342.608C870.536,-338.55 826.339,-327.864 799.037,-300 755.819,-255.892 748.782,-177.617 747.933,-141.816"/>
<polygon fill="midnightblue" stroke="midnightblue" points="751.433,-141.748 747.837,-131.782 744.433,-141.815 751.433,-141.748"/>
</g>
<!-- Node46&#45;&gt;Node35 -->
<g id="edge101" class="edge"><title>Node46&#45;&gt;Node35</title>
<path fill="none" stroke="midnightblue" d="M985.273,-338.106C1044.48,-328.208 1153.43,-309.993 1217.11,-299.346"/>
<polygon fill="midnightblue" stroke="midnightblue" points="1218.03,-302.743 1227.31,-297.641 1216.87,-295.838 1218.03,-302.743"/>
</g>
<!-- Node47 -->
<g id="node47" class="node"><title>Node47</title>
<polygon fill="none" stroke="#bfbfbf" points="841.037,-280.5 841.037,-299.5 897.037,-299.5 897.037,-280.5 841.037,-280.5"/>
<text text-anchor="middle" x="869.037" y="-287.5" font-family="FreeSans" font-size="10.00">TGraph.h</text>
</g>
<!-- Node46&#45;&gt;Node47 -->
<g id="edge99" class="edge"><title>Node46&#45;&gt;Node47</title>
<path fill="none" stroke="midnightblue" d="M931.987,-336.324C920.574,-328.107 903.206,-315.602 889.602,-305.807"/>
<polygon fill="midnightblue" stroke="midnightblue" points="891.467,-302.837 881.306,-299.834 887.377,-308.517 891.467,-302.837"/>
</g>
</g>
</svg>
