<?xml version="1.0" encoding="UTF-8" standalone="no"?>
<!DOCTYPE svg PUBLIC "-//W3C//DTD SVG 1.1//EN"
 "http://www.w3.org/Graphics/SVG/1.1/DTD/svg11.dtd">
<!-- Generated by graphviz version 2.44.0 (0)
 -->
<!-- Title: half::half Pages: 1 -->
<svg width="201pt" height="180pt"
 viewBox="0.00 0.00 201.00 180.00" xmlns="http://www.w3.org/2000/svg" xmlns:xlink="http://www.w3.org/1999/xlink">
<g id="graph0" class="graph" transform="scale(1 1) rotate(0) translate(4 176)">
<title>half::half</title>
<!-- Node1 -->
<g id="node1" class="node">
<title>Node1</title>
<g id="a_node1"><a xlink:title=" ">
<polygon fill="#bfbfbf" stroke="black" points="134,-76.5 134,-95.5 193,-95.5 193,-76.5 134,-76.5"/>
<text text-anchor="middle" x="163.5" y="-83.5" font-family="FreeSans" font-size="10.00">half::half</text>
</a>
</g>
</g>
<!-- Node2 -->
<g id="node2" class="node">
<title>Node2</title>
<g id="a_node2"><a xlink:href="../../d2/d29/classhalf.html#abd70746e0e734e1b0cf0532f95fe12d1" target="_top" xlink:title=" ">
<polygon fill="none" stroke="black" points="1.5,-152.5 1.5,-171.5 96.5,-171.5 96.5,-152.5 1.5,-152.5"/>
<text text-anchor="middle" x="49" y="-159.5" font-family="FreeSans" font-size="10.00">half::operator*=</text>
</a>
</g>
</g>
<!-- Node1&#45;&gt;Node2 -->
<g id="edge1" class="edge">
<title>Node1&#45;&gt;Node2</title>
<path fill="none" stroke="midnightblue" d="M146.47,-103.05C134.14,-115.41 116.18,-131.85 98,-143 92.12,-146.61 85.43,-149.77 78.96,-152.42"/>
<polygon fill="midnightblue" stroke="midnightblue" points="149.24,-105.22 153.71,-95.61 144.23,-100.34 149.24,-105.22"/>
</g>
<!-- Node3 -->
<g id="node3" class="node">
<title>Node3</title>
<g id="a_node3"><a xlink:href="../../d2/d29/classhalf.html#a075213467c54ef6b1af5b02b44c8fcd9" target="_top" xlink:title=" ">
<polygon fill="none" stroke="black" points="0,-114.5 0,-133.5 98,-133.5 98,-114.5 0,-114.5"/>
<text text-anchor="middle" x="49" y="-121.5" font-family="FreeSans" font-size="10.00">half::operator+=</text>
</a>
</g>
</g>
<!-- Node1&#45;&gt;Node3 -->
<g id="edge2" class="edge">
<title>Node1&#45;&gt;Node3</title>
<path fill="none" stroke="midnightblue" d="M124.53,-98.83C109.43,-103.92 92.37,-109.69 78.38,-114.41"/>
<polygon fill="midnightblue" stroke="midnightblue" points="125.76,-102.11 134.11,-95.59 123.52,-95.47 125.76,-102.11"/>
</g>
<!-- Node4 -->
<g id="node4" class="node">
<title>Node4</title>
<g id="a_node4"><a xlink:href="../../d2/d29/classhalf.html#a8de7289736af876dfe04455f01dd7f4b" target="_top" xlink:title=" ">
<polygon fill="none" stroke="black" points="2,-76.5 2,-95.5 96,-95.5 96,-76.5 2,-76.5"/>
<text text-anchor="middle" x="49" y="-83.5" font-family="FreeSans" font-size="10.00">half::operator&#45;=</text>
</a>
</g>
</g>
<!-- Node1&#45;&gt;Node4 -->
<g id="edge3" class="edge">
<title>Node1&#45;&gt;Node4</title>
<path fill="none" stroke="midnightblue" d="M123.73,-86C114.83,-86 105.29,-86 96.11,-86"/>
<polygon fill="midnightblue" stroke="midnightblue" points="123.82,-89.5 133.82,-86 123.82,-82.5 123.82,-89.5"/>
</g>
<!-- Node5 -->
<g id="node5" class="node">
<title>Node5</title>
<g id="a_node5"><a xlink:href="../../d2/d29/classhalf.html#a2b1be56e36094987cdd1f712dac53006" target="_top" xlink:title=" ">
<polygon fill="none" stroke="black" points="2.5,-38.5 2.5,-57.5 95.5,-57.5 95.5,-38.5 2.5,-38.5"/>
<text text-anchor="middle" x="49" y="-45.5" font-family="FreeSans" font-size="10.00">half::operator/=</text>
</a>
</g>
</g>
<!-- Node1&#45;&gt;Node5 -->
<g id="edge4" class="edge">
<title>Node1&#45;&gt;Node5</title>
<path fill="none" stroke="midnightblue" d="M124.53,-73.17C109.43,-68.08 92.37,-62.31 78.38,-57.59"/>
<polygon fill="midnightblue" stroke="midnightblue" points="123.52,-76.53 134.11,-76.41 125.76,-69.89 123.52,-76.53"/>
</g>
<!-- Node6 -->
<g id="node6" class="node">
<title>Node6</title>
<g id="a_node6"><a xlink:href="../../d2/d29/classhalf.html#a3ddfb47d9d9e66716c1030d5579652f1" target="_top" xlink:title=" ">
<polygon fill="none" stroke="black" points="4,-0.5 4,-19.5 94,-19.5 94,-0.5 4,-0.5"/>
<text text-anchor="middle" x="49" y="-7.5" font-family="FreeSans" font-size="10.00">half::operator=</text>
</a>
</g>
</g>
<!-- Node1&#45;&gt;Node6 -->
<g id="edge5" class="edge">
<title>Node1&#45;&gt;Node6</title>
<path fill="none" stroke="midnightblue" d="M146.47,-68.95C134.14,-56.59 116.18,-40.15 98,-29 92.12,-25.39 85.43,-22.23 78.96,-19.58"/>
<polygon fill="midnightblue" stroke="midnightblue" points="144.23,-71.66 153.71,-76.39 149.24,-66.78 144.23,-71.66"/>
</g>
</g>
</svg>
