<?xml version="1.0" encoding="UTF-8" standalone="no"?>
<!DOCTYPE svg PUBLIC "-//W3C//DTD SVG 1.1//EN"
 "http://www.w3.org/Graphics/SVG/1.1/DTD/svg11.dtd">
<!-- Generated by graphviz version 2.40.1 (20161225.0304)
 -->
<!-- Title: PHG4GDMLWriteDefine::~PHG4GDMLWriteDefine Pages: 1 -->
<svg width="3587pt" height="1345pt"
 viewBox="0.00 0.00 3587.00 1344.79" xmlns="http://www.w3.org/2000/svg" xmlns:xlink="http://www.w3.org/1999/xlink">
<g id="graph0" class="graph" transform="scale(1 1) rotate(0) translate(4 1340.79)">
<title>PHG4GDMLWriteDefine::~PHG4GDMLWriteDefine</title>
<!-- Node27 -->
<g id="node1" class="node">
<title>Node27</title>
<polygon fill="#bfbfbf" stroke="#000000" points="0,-56.4677 0,-86.4677 130,-86.4677 130,-56.4677 0,-56.4677"/>
<text text-anchor="start" x="8" y="-74.4677" font-family="FreeSans" font-size="10.00" fill="#000000">PHG4GDMLWriteDefine</text>
<text text-anchor="middle" x="65" y="-63.4677" font-family="FreeSans" font-size="10.00" fill="#000000">::~PHG4GDMLWriteDefine</text>
</g>
<!-- Node28 -->
<g id="node2" class="node">
<title>Node28</title>
<g id="a_node2"><a xlink:href="../../d9/def/classPHG4GDMLWriteDefine.html#a47548585df1a51dc655810d65d3b3802" target="_top" xlink:title="PHG4GDMLWriteDefine\l::AddPosition">
<polygon fill="none" stroke="#000000" points="166,-56.4677 166,-86.4677 286,-86.4677 286,-56.4677 166,-56.4677"/>
<text text-anchor="start" x="174" y="-74.4677" font-family="FreeSans" font-size="10.00" fill="#000000">PHG4GDMLWriteDefine</text>
<text text-anchor="middle" x="226" y="-63.4677" font-family="FreeSans" font-size="10.00" fill="#000000">::AddPosition</text>
</a>
</g>
</g>
<!-- Node27&#45;&gt;Node28 -->
<g id="edge1" class="edge">
<title>Node27&#45;&gt;Node28</title>
<path fill="none" stroke="#191970" d="M140.1219,-71.4677C148.7796,-71.4677 157.5208,-71.4677 165.9422,-71.4677"/>
<polygon fill="#191970" stroke="#191970" points="140.0208,-67.9678 130.0208,-71.4677 140.0208,-74.9678 140.0208,-67.9678"/>
</g>
<!-- Node29 -->
<g id="node3" class="node">
<title>Node29</title>
<g id="a_node3"><a xlink:href="../../d0/d94/classPHG4GDMLWriteSolids.html#a0f2faa6ed82bbf74fdde4ded9c9eba48" target="_top" xlink:title="PHG4GDMLWriteSolids\l::TessellatedWrite">
<polygon fill="none" stroke="#000000" points="477,-78.4677 477,-108.4677 596,-108.4677 596,-78.4677 477,-78.4677"/>
<text text-anchor="start" x="485" y="-96.4677" font-family="FreeSans" font-size="10.00" fill="#000000">PHG4GDMLWriteSolids</text>
<text text-anchor="middle" x="536.5" y="-85.4677" font-family="FreeSans" font-size="10.00" fill="#000000">::TessellatedWrite</text>
</a>
</g>
</g>
<!-- Node28&#45;&gt;Node29 -->
<g id="edge2" class="edge">
<title>Node28&#45;&gt;Node29</title>
<path fill="none" stroke="#191970" d="M296.5032,-76.4631C350.9596,-80.3215 425.4737,-85.6011 476.9597,-89.2491"/>
<polygon fill="#191970" stroke="#191970" points="296.4581,-72.9512 286.2357,-75.7356 295.9633,-79.9337 296.4581,-72.9512"/>
</g>
<!-- Node51 -->
<g id="node25" class="node">
<title>Node51</title>
<g id="a_node25"><a xlink:href="../../d0/d94/classPHG4GDMLWriteSolids.html#ac5a46e9304dc7ebcf40b4268fa26c9ea" target="_top" xlink:title="PHG4GDMLWriteSolids\l::TetWrite">
<polygon fill="none" stroke="#000000" points="322,-34.4677 322,-64.4677 441,-64.4677 441,-34.4677 322,-34.4677"/>
<text text-anchor="start" x="330" y="-52.4677" font-family="FreeSans" font-size="10.00" fill="#000000">PHG4GDMLWriteSolids</text>
<text text-anchor="middle" x="381.5" y="-41.4677" font-family="FreeSans" font-size="10.00" fill="#000000">::TetWrite</text>
</a>
</g>
</g>
<!-- Node28&#45;&gt;Node51 -->
<g id="edge60" class="edge">
<title>Node28&#45;&gt;Node51</title>
<path fill="none" stroke="#191970" d="M296.1078,-61.5489C304.6862,-60.3353 313.3899,-59.1039 321.7957,-57.9146"/>
<polygon fill="#191970" stroke="#191970" points="295.5314,-58.0955 286.1204,-62.9619 296.5121,-65.0265 295.5314,-58.0955"/>
</g>
<!-- Node30 -->
<g id="node4" class="node">
<title>Node30</title>
<g id="a_node4"><a xlink:href="../../d0/d94/classPHG4GDMLWriteSolids.html#a6e42ab8eadb2fde73103ced7c6515d43" target="_top" xlink:title="PHG4GDMLWriteSolids\l::SphereWrite">
<polygon fill="none" stroke="#000000" points="632,-154.4677 632,-184.4677 751,-184.4677 751,-154.4677 632,-154.4677"/>
<text text-anchor="start" x="640" y="-172.4677" font-family="FreeSans" font-size="10.00" fill="#000000">PHG4GDMLWriteSolids</text>
<text text-anchor="middle" x="691.5" y="-161.4677" font-family="FreeSans" font-size="10.00" fill="#000000">::SphereWrite</text>
</a>
</g>
</g>
<!-- Node29&#45;&gt;Node30 -->
<g id="edge3" class="edge">
<title>Node29&#45;&gt;Node30</title>
<path fill="none" stroke="#191970" d="M576.4176,-113.0402C602.6643,-125.9096 636.499,-142.4995 660.6757,-154.3539"/>
<polygon fill="#191970" stroke="#191970" points="577.6427,-109.7428 567.123,-108.4829 574.5609,-116.028 577.6427,-109.7428"/>
</g>
<!-- Node47 -->
<g id="node21" class="node">
<title>Node47</title>
<g id="a_node21"><a xlink:href="../../df/d36/classPHG4GDMLWriteSolids_1_1G4ThreeVectorCompare.html#a1e12ee90020497fe1c64592d14aee8ae" target="_top" xlink:title="PHG4GDMLWriteSolids\l::G4ThreeVectorCompare\l::operator()">
<polygon fill="none" stroke="#000000" points="3281,-951.9677 3281,-992.9677 3406,-992.9677 3406,-951.9677 3281,-951.9677"/>
<text text-anchor="start" x="3289" y="-980.9677" font-family="FreeSans" font-size="10.00" fill="#000000">PHG4GDMLWriteSolids</text>
<text text-anchor="start" x="3289" y="-969.9677" font-family="FreeSans" font-size="10.00" fill="#000000">::G4ThreeVectorCompare</text>
<text text-anchor="middle" x="3343.5" y="-958.9677" font-family="FreeSans" font-size="10.00" fill="#000000">::operator()</text>
</a>
</g>
</g>
<!-- Node29&#45;&gt;Node47 -->
<g id="edge59" class="edge">
<title>Node29&#45;&gt;Node47</title>
<path fill="none" stroke="#191970" d="M537.2063,-118.8518C542.7834,-295.4267 586.6217,-1333.4677 846.5,-1333.4677 846.5,-1333.4677 846.5,-1333.4677 3016.5,-1333.4677 3118.5329,-1333.4677 3165.1368,-1353.6989 3241,-1285.4677 3286.1713,-1244.8408 3326.9767,-1055.9946 3339.5399,-992.9895"/>
<polygon fill="#191970" stroke="#191970" points="540.7,-118.5879 536.8985,-108.6985 533.7032,-118.8 540.7,-118.5879"/>
</g>
<!-- Node48 -->
<g id="node22" class="node">
<title>Node48</title>
<g id="a_node22"><a xlink:href="../../d0/d94/classPHG4GDMLWriteSolids.html#ae96019d064cee9517bad4aea85bd94e9" target="_top" xlink:title="PHG4GDMLWriteSolids\l::AddSolid">
<polygon fill="none" stroke="#000000" points="3117,-414.4677 3117,-444.4677 3236,-444.4677 3236,-414.4677 3117,-414.4677"/>
<text text-anchor="start" x="3125" y="-432.4677" font-family="FreeSans" font-size="10.00" fill="#000000">PHG4GDMLWriteSolids</text>
<text text-anchor="middle" x="3176.5" y="-421.4677" font-family="FreeSans" font-size="10.00" fill="#000000">::AddSolid</text>
</a>
</g>
</g>
<!-- Node29&#45;&gt;Node48 -->
<g id="edge58" class="edge">
<title>Node29&#45;&gt;Node48</title>
<path fill="none" stroke="#191970" d="M606.3992,-91.3429C669.2243,-89.6171 764.0223,-87.4677 846.5,-87.4677 846.5,-87.4677 846.5,-87.4677 2861.5,-87.4677 2957.3798,-87.4677 3001.822,-49.7177 3076,-110.4677 3125.3026,-150.8454 3163.9438,-356.5016 3173.9603,-414.325"/>
<polygon fill="#191970" stroke="#191970" points="606.1102,-87.8495 596.2116,-91.6267 606.3052,-94.8468 606.1102,-87.8495"/>
</g>
<!-- Node31 -->
<g id="node5" class="node">
<title>Node31</title>
<g id="a_node5"><a xlink:href="../../d0/d94/classPHG4GDMLWriteSolids.html#ace99086533ca2af8366d439a3a08f9ae" target="_top" xlink:title="PHG4GDMLWriteSolids\l::PolyhedraWrite">
<polygon fill="none" stroke="#000000" points="787,-192.4677 787,-222.4677 906,-222.4677 906,-192.4677 787,-192.4677"/>
<text text-anchor="start" x="795" y="-210.4677" font-family="FreeSans" font-size="10.00" fill="#000000">PHG4GDMLWriteSolids</text>
<text text-anchor="middle" x="846.5" y="-199.4677" font-family="FreeSans" font-size="10.00" fill="#000000">::PolyhedraWrite</text>
</a>
</g>
</g>
<!-- Node30&#45;&gt;Node31 -->
<g id="edge4" class="edge">
<title>Node30&#45;&gt;Node31</title>
<path fill="none" stroke="#191970" d="M761.3823,-186.6002C769.9332,-188.6965 778.6089,-190.8234 786.9877,-192.8776"/>
<polygon fill="#191970" stroke="#191970" points="761.9728,-183.1414 751.427,-184.1595 760.306,-189.94 761.9728,-183.1414"/>
</g>
<!-- Node30&#45;&gt;Node47 -->
<g id="edge57" class="edge">
<title>Node30&#45;&gt;Node47</title>
<path fill="none" stroke="#191970" d="M692.8198,-194.7936C702.1787,-361.5611 765.1403,-1295.4677 1001.5,-1295.4677 1001.5,-1295.4677 1001.5,-1295.4677 3016.5,-1295.4677 3118.6268,-1295.4677 3163.8084,-1313.3358 3241,-1246.4677 3319.5042,-1178.4626 3337.9936,-1044.2596 3342.2557,-993.0161"/>
<polygon fill="#191970" stroke="#191970" points="696.2997,-194.3274 692.2582,-184.5337 689.3101,-194.7101 696.2997,-194.3274"/>
</g>
<!-- Node30&#45;&gt;Node48 -->
<g id="edge56" class="edge">
<title>Node30&#45;&gt;Node48</title>
<path fill="none" stroke="#191970" d="M761.2973,-153.827C823.8656,-141.1808 918.34,-125.4677 1001.5,-125.4677 1001.5,-125.4677 1001.5,-125.4677 2861.5,-125.4677 2957.4786,-125.4677 3000.802,-90.8258 3076,-150.4677 3119.7659,-185.1798 3161.5463,-361.5114 3173.2605,-414.4319"/>
<polygon fill="#191970" stroke="#191970" points="760.245,-150.4698 751.1518,-155.9072 761.6511,-157.3272 760.245,-150.4698"/>
</g>
<!-- Node32 -->
<g id="node6" class="node">
<title>Node32</title>
<g id="a_node6"><a xlink:href="../../d0/d94/classPHG4GDMLWriteSolids.html#ab179c3202cc083769c7c4b3a391f7bad" target="_top" xlink:title="PHG4GDMLWriteSolids\l::GenericPolyconeWrite">
<polygon fill="none" stroke="#000000" points="942,-230.4677 942,-260.4677 1061,-260.4677 1061,-230.4677 942,-230.4677"/>
<text text-anchor="start" x="950" y="-248.4677" font-family="FreeSans" font-size="10.00" fill="#000000">PHG4GDMLWriteSolids</text>
<text text-anchor="middle" x="1001.5" y="-237.4677" font-family="FreeSans" font-size="10.00" fill="#000000">::GenericPolyconeWrite</text>
</a>
</g>
</g>
<!-- Node31&#45;&gt;Node32 -->
<g id="edge5" class="edge">
<title>Node31&#45;&gt;Node32</title>
<path fill="none" stroke="#191970" d="M916.3823,-224.6002C924.9332,-226.6965 933.6089,-228.8234 941.9877,-230.8776"/>
<polygon fill="#191970" stroke="#191970" points="916.9728,-221.1414 906.427,-222.1595 915.306,-227.94 916.9728,-221.1414"/>
</g>
<!-- Node31&#45;&gt;Node47 -->
<g id="edge55" class="edge">
<title>Node31&#45;&gt;Node47</title>
<path fill="none" stroke="#191970" d="M848.3215,-233.0525C860.4445,-393.7924 935.8493,-1257.4677 1156.5,-1257.4677 1156.5,-1257.4677 1156.5,-1257.4677 3016.5,-1257.4677 3118.7225,-1257.4677 3162.1172,-1272.4826 3241,-1207.4677 3309.6957,-1150.849 3333.6154,-1039.2644 3340.7931,-993.1555"/>
<polygon fill="#191970" stroke="#191970" points="851.7851,-232.4301 847.5569,-222.7156 844.8042,-232.9466 851.7851,-232.4301"/>
</g>
<!-- Node31&#45;&gt;Node48 -->
<g id="edge54" class="edge">
<title>Node31&#45;&gt;Node48</title>
<path fill="none" stroke="#191970" d="M916.2973,-191.827C978.8656,-179.1808 1073.34,-163.4677 1156.5,-163.4677 1156.5,-163.4677 1156.5,-163.4677 2861.5,-163.4677 2957.5856,-163.4677 2999.4484,-132.3962 3076,-190.4677 3151.1295,-247.4605 3170.5992,-371.2333 3175.1934,-414.3173"/>
<polygon fill="#191970" stroke="#191970" points="915.245,-188.4698 906.1518,-193.9072 916.6511,-195.3272 915.245,-188.4698"/>
</g>
<!-- Node33 -->
<g id="node7" class="node">
<title>Node33</title>
<g id="a_node7"><a xlink:href="../../d0/d94/classPHG4GDMLWriteSolids.html#af6b5adff80e56fddc9767fae06af651a" target="_top" xlink:title="PHG4GDMLWriteSolids\l::PolyconeWrite">
<polygon fill="none" stroke="#000000" points="1097,-268.4677 1097,-298.4677 1216,-298.4677 1216,-268.4677 1097,-268.4677"/>
<text text-anchor="start" x="1105" y="-286.4677" font-family="FreeSans" font-size="10.00" fill="#000000">PHG4GDMLWriteSolids</text>
<text text-anchor="middle" x="1156.5" y="-275.4677" font-family="FreeSans" font-size="10.00" fill="#000000">::PolyconeWrite</text>
</a>
</g>
</g>
<!-- Node32&#45;&gt;Node33 -->
<g id="edge6" class="edge">
<title>Node32&#45;&gt;Node33</title>
<path fill="none" stroke="#191970" d="M1071.3823,-262.6002C1079.9332,-264.6965 1088.6089,-266.8234 1096.9877,-268.8776"/>
<polygon fill="#191970" stroke="#191970" points="1071.9728,-259.1414 1061.427,-260.1595 1070.306,-265.94 1071.9728,-259.1414"/>
</g>
<!-- Node32&#45;&gt;Node47 -->
<g id="edge53" class="edge">
<title>Node32&#45;&gt;Node47</title>
<path fill="none" stroke="#191970" d="M1003.8859,-271.0913C1018.8972,-424.9442 1106.3493,-1219.4677 1311.5,-1219.4677 1311.5,-1219.4677 1311.5,-1219.4677 3016.5,-1219.4677 3118.82,-1219.4677 3159.928,-1230.8914 3241,-1168.4677 3300.178,-1122.9019 3328.6007,-1033.435 3338.8416,-993.0786"/>
<polygon fill="#191970" stroke="#191970" points="1007.3344,-270.3865 1002.8944,-260.7669 1000.3665,-271.0558 1007.3344,-270.3865"/>
</g>
<!-- Node32&#45;&gt;Node48 -->
<g id="edge52" class="edge">
<title>Node32&#45;&gt;Node48</title>
<path fill="none" stroke="#191970" d="M1071.2973,-229.827C1133.8656,-217.1808 1228.34,-201.4677 1311.5,-201.4677 1311.5,-201.4677 1311.5,-201.4677 2861.5,-201.4677 2957.7612,-201.4677 2997.6569,-175.534 3076,-231.4677 3140.1597,-277.2751 3165.946,-376.247 3173.7243,-414.214"/>
<polygon fill="#191970" stroke="#191970" points="1070.245,-226.4698 1061.1518,-231.9072 1071.6511,-233.3272 1070.245,-226.4698"/>
</g>
<!-- Node34 -->
<g id="node8" class="node">
<title>Node34</title>
<g id="a_node8"><a xlink:href="../../d0/d94/classPHG4GDMLWriteSolids.html#a63fa8de3ebea6833999f0d15b0182330" target="_top" xlink:title="PHG4GDMLWriteSolids\l::ParaboloidWrite">
<polygon fill="none" stroke="#000000" points="1252,-306.4677 1252,-336.4677 1371,-336.4677 1371,-306.4677 1252,-306.4677"/>
<text text-anchor="start" x="1260" y="-324.4677" font-family="FreeSans" font-size="10.00" fill="#000000">PHG4GDMLWriteSolids</text>
<text text-anchor="middle" x="1311.5" y="-313.4677" font-family="FreeSans" font-size="10.00" fill="#000000">::ParaboloidWrite</text>
</a>
</g>
</g>
<!-- Node33&#45;&gt;Node34 -->
<g id="edge7" class="edge">
<title>Node33&#45;&gt;Node34</title>
<path fill="none" stroke="#191970" d="M1226.3823,-300.6002C1234.9332,-302.6965 1243.6089,-304.8234 1251.9877,-306.8776"/>
<polygon fill="#191970" stroke="#191970" points="1226.9728,-297.1414 1216.427,-298.1595 1225.306,-303.94 1226.9728,-297.1414"/>
</g>
<!-- Node33&#45;&gt;Node47 -->
<g id="edge51" class="edge">
<title>Node33&#45;&gt;Node47</title>
<path fill="none" stroke="#191970" d="M1159.5147,-308.8938C1177.5277,-455.0253 1276.6221,-1181.4677 1466.5,-1181.4677 1466.5,-1181.4677 1466.5,-1181.4677 3016.5,-1181.4677 3118.82,-1181.4677 3157.0953,-1189.0287 3241,-1130.4677 3291.1392,-1095.4733 3322.7206,-1027.2972 3336.1024,-993.0882"/>
<polygon fill="#191970" stroke="#191970" points="1162.954,-308.1815 1158.2718,-298.6774 1156.0052,-309.0269 1162.954,-308.1815"/>
</g>
<!-- Node33&#45;&gt;Node48 -->
<g id="edge50" class="edge">
<title>Node33&#45;&gt;Node48</title>
<path fill="none" stroke="#191970" d="M1226.2973,-267.827C1288.8656,-255.1808 1383.34,-239.4677 1466.5,-239.4677 1466.5,-239.4677 1466.5,-239.4677 2861.5,-239.4677 2957.9549,-239.4677 2995.1619,-219.8487 3076,-272.4677 3129.704,-307.4247 3160.4543,-382.2259 3171.6314,-414.3258"/>
<polygon fill="#191970" stroke="#191970" points="1225.245,-264.4698 1216.1518,-269.9072 1226.6511,-271.3272 1225.245,-264.4698"/>
</g>
<!-- Node35 -->
<g id="node9" class="node">
<title>Node35</title>
<g id="a_node9"><a xlink:href="../../d0/d94/classPHG4GDMLWriteSolids.html#a32bb2ff453c9bd44b295315d1fba4536" target="_top" xlink:title="PHG4GDMLWriteSolids\l::ParaWrite">
<polygon fill="none" stroke="#000000" points="1407,-344.4677 1407,-374.4677 1526,-374.4677 1526,-344.4677 1407,-344.4677"/>
<text text-anchor="start" x="1415" y="-362.4677" font-family="FreeSans" font-size="10.00" fill="#000000">PHG4GDMLWriteSolids</text>
<text text-anchor="middle" x="1466.5" y="-351.4677" font-family="FreeSans" font-size="10.00" fill="#000000">::ParaWrite</text>
</a>
</g>
</g>
<!-- Node34&#45;&gt;Node35 -->
<g id="edge8" class="edge">
<title>Node34&#45;&gt;Node35</title>
<path fill="none" stroke="#191970" d="M1381.3823,-338.6002C1389.9332,-340.6965 1398.6089,-342.8234 1406.9877,-344.8776"/>
<polygon fill="#191970" stroke="#191970" points="1381.9728,-335.1414 1371.427,-336.1595 1380.306,-341.94 1381.9728,-335.1414"/>
</g>
<!-- Node34&#45;&gt;Node47 -->
<g id="edge49" class="edge">
<title>Node34&#45;&gt;Node47</title>
<path fill="none" stroke="#191970" d="M1315.2767,-346.8843C1336.5599,-485.444 1446.8292,-1143.4677 1621.5,-1143.4677 1621.5,-1143.4677 1621.5,-1143.4677 3016.5,-1143.4677 3118.82,-1143.4677 3153.431,-1145.3927 3241,-1092.4677 3282.27,-1067.525 3315.241,-1020.1597 3331.8176,-992.9923"/>
<polygon fill="#191970" stroke="#191970" points="1318.7061,-346.1545 1313.7439,-336.7935 1311.7855,-347.2058 1318.7061,-346.1545"/>
</g>
<!-- Node34&#45;&gt;Node48 -->
<g id="edge48" class="edge">
<title>Node34&#45;&gt;Node48</title>
<path fill="none" stroke="#191970" d="M1381.2973,-305.827C1443.8656,-293.1808 1538.34,-277.4677 1621.5,-277.4677 1621.5,-277.4677 1621.5,-277.4677 2861.5,-277.4677 2958.2412,-277.4677 2991.6499,-267.0976 3076,-314.4677 3119.2321,-338.7464 3152.93,-388.9177 3167.9547,-414.1994"/>
<polygon fill="#191970" stroke="#191970" points="1380.245,-302.4698 1371.1518,-307.9072 1381.6511,-309.3272 1380.245,-302.4698"/>
</g>
<!-- Node36 -->
<g id="node10" class="node">
<title>Node36</title>
<g id="a_node10"><a xlink:href="../../d0/d94/classPHG4GDMLWriteSolids.html#a23f60faf33372b4ca39915d3db566a59" target="_top" xlink:title="PHG4GDMLWriteSolids\l::OrbWrite">
<polygon fill="none" stroke="#000000" points="1562,-382.4677 1562,-412.4677 1681,-412.4677 1681,-382.4677 1562,-382.4677"/>
<text text-anchor="start" x="1570" y="-400.4677" font-family="FreeSans" font-size="10.00" fill="#000000">PHG4GDMLWriteSolids</text>
<text text-anchor="middle" x="1621.5" y="-389.4677" font-family="FreeSans" font-size="10.00" fill="#000000">::OrbWrite</text>
</a>
</g>
</g>
<!-- Node35&#45;&gt;Node36 -->
<g id="edge9" class="edge">
<title>Node35&#45;&gt;Node36</title>
<path fill="none" stroke="#191970" d="M1536.3823,-376.6002C1544.9332,-378.6965 1553.6089,-380.8234 1561.9877,-382.8776"/>
<polygon fill="#191970" stroke="#191970" points="1536.9728,-373.1414 1526.427,-374.1595 1535.306,-379.94 1536.9728,-373.1414"/>
</g>
<!-- Node35&#45;&gt;Node47 -->
<g id="edge47" class="edge">
<title>Node35&#45;&gt;Node47</title>
<path fill="none" stroke="#191970" d="M1471.1264,-384.5536C1495.7937,-514.5366 1616.7226,-1105.4677 1776.5,-1105.4677 1776.5,-1105.4677 1776.5,-1105.4677 3016.5,-1105.4677 3118.5329,-1105.4677 3149.1908,-1101.985 3241,-1057.4677 3273.8663,-1041.5312 3305.2076,-1012.8881 3324.3869,-993.2936"/>
<polygon fill="#191970" stroke="#191970" points="1474.5628,-383.8886 1469.2756,-374.7074 1467.6833,-385.1819 1474.5628,-383.8886"/>
</g>
<!-- Node35&#45;&gt;Node48 -->
<g id="edge46" class="edge">
<title>Node35&#45;&gt;Node48</title>
<path fill="none" stroke="#191970" d="M1536.2973,-343.827C1598.8656,-331.1808 1693.34,-315.4677 1776.5,-315.4677 1776.5,-315.4677 1776.5,-315.4677 2861.5,-315.4677 2958.5592,-315.4677 2986.9283,-317.9095 3076,-356.4677 3109.0498,-370.7746 3141.748,-397.4808 3160.4888,-414.3208"/>
<polygon fill="#191970" stroke="#191970" points="1535.245,-340.4698 1526.1518,-345.9072 1536.6511,-347.3272 1535.245,-340.4698"/>
</g>
<!-- Node37 -->
<g id="node11" class="node">
<title>Node37</title>
<g id="a_node11"><a xlink:href="../../d0/d94/classPHG4GDMLWriteSolids.html#abd293d652e55c78e3cfb5cbc4580a565" target="_top" xlink:title="PHG4GDMLWriteSolids\l::HypeWrite">
<polygon fill="none" stroke="#000000" points="1717,-420.4677 1717,-450.4677 1836,-450.4677 1836,-420.4677 1717,-420.4677"/>
<text text-anchor="start" x="1725" y="-438.4677" font-family="FreeSans" font-size="10.00" fill="#000000">PHG4GDMLWriteSolids</text>
<text text-anchor="middle" x="1776.5" y="-427.4677" font-family="FreeSans" font-size="10.00" fill="#000000">::HypeWrite</text>
</a>
</g>
</g>
<!-- Node36&#45;&gt;Node37 -->
<g id="edge10" class="edge">
<title>Node36&#45;&gt;Node37</title>
<path fill="none" stroke="#191970" d="M1691.3823,-414.6002C1699.9332,-416.6965 1708.6089,-418.8234 1716.9877,-420.8776"/>
<polygon fill="#191970" stroke="#191970" points="1691.9728,-411.1414 1681.427,-412.1595 1690.306,-417.94 1691.9728,-411.1414"/>
</g>
<!-- Node36&#45;&gt;Node47 -->
<g id="edge45" class="edge">
<title>Node36&#45;&gt;Node47</title>
<path fill="none" stroke="#191970" d="M1627.2411,-422.6327C1655.7538,-544.4944 1786.56,-1067.4677 1931.5,-1067.4677 1931.5,-1067.4677 1931.5,-1067.4677 3016.5,-1067.4677 3118.0089,-1067.4677 3145.0039,-1058.4645 3241,-1025.4677 3265.0606,-1017.1974 3290.4747,-1004.089 3309.9779,-992.9782"/>
<polygon fill="#191970" stroke="#191970" points="1630.611,-421.6707 1624.9415,-412.7205 1623.7921,-423.2528 1630.611,-421.6707"/>
</g>
<!-- Node36&#45;&gt;Node48 -->
<g id="edge44" class="edge">
<title>Node36&#45;&gt;Node48</title>
<path fill="none" stroke="#191970" d="M1691.2973,-381.827C1753.8656,-369.1808 1848.34,-353.4677 1931.5,-353.4677 1931.5,-353.4677 1931.5,-353.4677 2861.5,-353.4677 2958.3178,-353.4677 2982.6491,-365.7913 3076,-391.4677 3098.1222,-397.5525 3122.1868,-406.5625 3141.2204,-414.2821"/>
<polygon fill="#191970" stroke="#191970" points="1690.245,-378.4698 1681.1518,-383.9072 1691.6511,-385.3272 1690.245,-378.4698"/>
</g>
<!-- Node38 -->
<g id="node12" class="node">
<title>Node38</title>
<g id="a_node12"><a xlink:href="../../d0/d94/classPHG4GDMLWriteSolids.html#a47008ee8616fcf6fe7bd245c0201eea2" target="_top" xlink:title="PHG4GDMLWriteSolids\l::XtruWrite">
<polygon fill="none" stroke="#000000" points="1872,-458.4677 1872,-488.4677 1991,-488.4677 1991,-458.4677 1872,-458.4677"/>
<text text-anchor="start" x="1880" y="-476.4677" font-family="FreeSans" font-size="10.00" fill="#000000">PHG4GDMLWriteSolids</text>
<text text-anchor="middle" x="1931.5" y="-465.4677" font-family="FreeSans" font-size="10.00" fill="#000000">::XtruWrite</text>
</a>
</g>
</g>
<!-- Node37&#45;&gt;Node38 -->
<g id="edge11" class="edge">
<title>Node37&#45;&gt;Node38</title>
<path fill="none" stroke="#191970" d="M1846.3823,-452.6002C1854.9332,-454.6965 1863.6089,-456.8234 1871.9877,-458.8776"/>
<polygon fill="#191970" stroke="#191970" points="1846.9728,-449.1414 1836.427,-450.1595 1845.306,-455.94 1846.9728,-449.1414"/>
</g>
<!-- Node37&#45;&gt;Node47 -->
<g id="edge43" class="edge">
<title>Node37&#45;&gt;Node47</title>
<path fill="none" stroke="#191970" d="M1777.6029,-460.931C1784,-574.5259 1825.888,-1029.4677 2086.5,-1029.4677 2086.5,-1029.4677 2086.5,-1029.4677 3016.5,-1029.4677 3109.5674,-1029.4677 3215.3505,-1006.7827 3280.7664,-990.0347"/>
<polygon fill="#191970" stroke="#191970" points="1781.0881,-460.5533 1777.0751,-450.7479 1774.0975,-460.9157 1781.0881,-460.5533"/>
</g>
<!-- Node37&#45;&gt;Node48 -->
<g id="edge42" class="edge">
<title>Node37&#45;&gt;Node48</title>
<path fill="none" stroke="#191970" d="M1846.2973,-419.827C1908.8656,-407.1808 2003.34,-391.4677 2086.5,-391.4677 2086.5,-391.4677 2086.5,-391.4677 2861.5,-391.4677 2951.0115,-391.4677 3053.8075,-406.779 3116.9562,-417.9633"/>
<polygon fill="#191970" stroke="#191970" points="1845.245,-416.4698 1836.1518,-421.9072 1846.6511,-423.3272 1845.245,-416.4698"/>
</g>
<!-- Node39 -->
<g id="node13" class="node">
<title>Node39</title>
<g id="a_node13"><a xlink:href="../../d0/d94/classPHG4GDMLWriteSolids.html#ab8adc5f1f99be44fbfbf7cb3c5e1e020" target="_top" xlink:title="PHG4GDMLWriteSolids\l::EltubeWrite">
<polygon fill="none" stroke="#000000" points="2027,-495.4677 2027,-525.4677 2146,-525.4677 2146,-495.4677 2027,-495.4677"/>
<text text-anchor="start" x="2035" y="-513.4677" font-family="FreeSans" font-size="10.00" fill="#000000">PHG4GDMLWriteSolids</text>
<text text-anchor="middle" x="2086.5" y="-502.4677" font-family="FreeSans" font-size="10.00" fill="#000000">::EltubeWrite</text>
</a>
</g>
</g>
<!-- Node38&#45;&gt;Node39 -->
<g id="edge12" class="edge">
<title>Node38&#45;&gt;Node39</title>
<path fill="none" stroke="#191970" d="M2001.3823,-490.1493C2009.9332,-492.1905 2018.6089,-494.2615 2026.9877,-496.2616"/>
<polygon fill="#191970" stroke="#191970" points="2001.9664,-486.6905 1991.427,-487.7729 2000.3411,-493.4992 2001.9664,-486.6905"/>
</g>
<!-- Node38&#45;&gt;Node47 -->
<g id="edge41" class="edge">
<title>Node38&#45;&gt;Node47</title>
<path fill="none" stroke="#191970" d="M1934.1951,-498.9112C1946.7574,-603.0716 2009.1763,-991.4677 2241.5,-991.4677 2241.5,-991.4677 2241.5,-991.4677 3016.5,-991.4677 3108.6239,-991.4677 3215.1012,-983.8591 3280.8747,-978.2716"/>
<polygon fill="#191970" stroke="#191970" points="1937.6389,-498.2223 1933.0147,-488.6899 1930.6851,-499.0255 1937.6389,-498.2223"/>
</g>
<!-- Node38&#45;&gt;Node48 -->
<g id="edge40" class="edge">
<title>Node38&#45;&gt;Node48</title>
<path fill="none" stroke="#191970" d="M2001.2973,-457.827C2063.8656,-445.1808 2158.34,-429.4677 2241.5,-429.4677 2241.5,-429.4677 2241.5,-429.4677 2861.5,-429.4677 2950.5039,-429.4677 3053.6537,-429.4677 3116.9906,-429.4677"/>
<polygon fill="#191970" stroke="#191970" points="2000.245,-454.4698 1991.1518,-459.9072 2001.6511,-461.3272 2000.245,-454.4698"/>
</g>
<!-- Node40 -->
<g id="node14" class="node">
<title>Node40</title>
<g id="a_node14"><a xlink:href="../../d0/d94/classPHG4GDMLWriteSolids.html#a0ecc7bc248265507e79a9fca71575014" target="_top" xlink:title="PHG4GDMLWriteSolids\l::EllipsoidWrite">
<polygon fill="none" stroke="#000000" points="2182,-532.4677 2182,-562.4677 2301,-562.4677 2301,-532.4677 2182,-532.4677"/>
<text text-anchor="start" x="2190" y="-550.4677" font-family="FreeSans" font-size="10.00" fill="#000000">PHG4GDMLWriteSolids</text>
<text text-anchor="middle" x="2241.5" y="-539.4677" font-family="FreeSans" font-size="10.00" fill="#000000">::EllipsoidWrite</text>
</a>
</g>
</g>
<!-- Node39&#45;&gt;Node40 -->
<g id="edge13" class="edge">
<title>Node39&#45;&gt;Node40</title>
<path fill="none" stroke="#191970" d="M2156.3823,-527.1493C2164.9332,-529.1905 2173.6089,-531.2615 2181.9877,-533.2616"/>
<polygon fill="#191970" stroke="#191970" points="2156.9664,-523.6905 2146.427,-524.7729 2155.3411,-530.4992 2156.9664,-523.6905"/>
</g>
<!-- Node39&#45;&gt;Node47 -->
<g id="edge39" class="edge">
<title>Node39&#45;&gt;Node47</title>
<path fill="none" stroke="#191970" d="M2091.2152,-535.7662C2110.3307,-629.7555 2191.0785,-953.4677 2396.5,-953.4677 2396.5,-953.4677 2396.5,-953.4677 3016.5,-953.4677 3108.6239,-953.4677 3215.1012,-961.0763 3280.8747,-966.6639"/>
<polygon fill="#191970" stroke="#191970" points="2094.6017,-534.8492 2089.2305,-525.7168 2087.7344,-536.2054 2094.6017,-534.8492"/>
</g>
<!-- Node39&#45;&gt;Node48 -->
<g id="edge38" class="edge">
<title>Node39&#45;&gt;Node48</title>
<path fill="none" stroke="#191970" d="M2156.3152,-495.1824C2218.8953,-482.8237 2313.3769,-467.4677 2396.5,-467.4677 2396.5,-467.4677 2396.5,-467.4677 2861.5,-467.4677 2951.0115,-467.4677 3053.8075,-452.1565 3116.9562,-440.9721"/>
<polygon fill="#191970" stroke="#191970" points="2155.2854,-491.8191 2146.1678,-497.2154 2156.6605,-498.6827 2155.2854,-491.8191"/>
</g>
<!-- Node41 -->
<g id="node15" class="node">
<title>Node41</title>
<g id="a_node15"><a xlink:href="../../d0/d94/classPHG4GDMLWriteSolids.html#a95a1f206d10ac25171774e465e42246c" target="_top" xlink:title="PHG4GDMLWriteSolids\l::ElconeWrite">
<polygon fill="none" stroke="#000000" points="2337,-568.4677 2337,-598.4677 2456,-598.4677 2456,-568.4677 2337,-568.4677"/>
<text text-anchor="start" x="2345" y="-586.4677" font-family="FreeSans" font-size="10.00" fill="#000000">PHG4GDMLWriteSolids</text>
<text text-anchor="middle" x="2396.5" y="-575.4677" font-family="FreeSans" font-size="10.00" fill="#000000">::ElconeWrite</text>
</a>
</g>
</g>
<!-- Node40&#45;&gt;Node41 -->
<g id="edge14" class="edge">
<title>Node40&#45;&gt;Node41</title>
<path fill="none" stroke="#191970" d="M2311.3823,-563.6985C2319.9332,-565.6845 2328.6089,-567.6995 2336.9877,-569.6455"/>
<polygon fill="#191970" stroke="#191970" points="2311.9596,-560.2394 2301.427,-561.3863 2310.3759,-567.058 2311.9596,-560.2394"/>
</g>
<!-- Node40&#45;&gt;Node47 -->
<g id="edge37" class="edge">
<title>Node40&#45;&gt;Node47</title>
<path fill="none" stroke="#191970" d="M2248.8802,-572.4241C2275.054,-655.198 2371.6529,-915.4677 2551.5,-915.4677 2551.5,-915.4677 2551.5,-915.4677 3016.5,-915.4677 3116.8463,-915.4677 3142.837,-918.6491 3241,-939.4677 3256.0875,-942.6675 3272.0958,-947.2322 3286.8645,-951.9497"/>
<polygon fill="#191970" stroke="#191970" points="2252.2058,-571.3311 2245.9073,-562.8117 2245.5183,-573.3994 2252.2058,-571.3311"/>
</g>
<!-- Node40&#45;&gt;Node48 -->
<g id="edge36" class="edge">
<title>Node40&#45;&gt;Node48</title>
<path fill="none" stroke="#191970" d="M2311.3327,-532.5379C2373.9243,-520.4666 2468.413,-505.4677 2551.5,-505.4677 2551.5,-505.4677 2551.5,-505.4677 2861.5,-505.4677 2957.4282,-505.4677 2984.2004,-509.3076 3076,-481.4677 3104.0114,-472.9727 3133.4612,-456.7509 3153.1859,-444.6745"/>
<polygon fill="#191970" stroke="#191970" points="2310.3252,-529.1686 2301.1833,-534.5236 2311.6693,-536.0383 2310.3252,-529.1686"/>
</g>
<!-- Node42 -->
<g id="node16" class="node">
<title>Node42</title>
<g id="a_node16"><a xlink:href="../../d0/d94/classPHG4GDMLWriteSolids.html#af0fa6864ad9bdd61795f81b23e0c05c9" target="_top" xlink:title="PHG4GDMLWriteSolids\l::ConeWrite">
<polygon fill="none" stroke="#000000" points="2492,-602.4677 2492,-632.4677 2611,-632.4677 2611,-602.4677 2492,-602.4677"/>
<text text-anchor="start" x="2500" y="-620.4677" font-family="FreeSans" font-size="10.00" fill="#000000">PHG4GDMLWriteSolids</text>
<text text-anchor="middle" x="2551.5" y="-609.4677" font-family="FreeSans" font-size="10.00" fill="#000000">::ConeWrite</text>
</a>
</g>
</g>
<!-- Node41&#45;&gt;Node42 -->
<g id="edge15" class="edge">
<title>Node41&#45;&gt;Node42</title>
<path fill="none" stroke="#191970" d="M2466.3823,-598.7967C2474.9332,-600.6724 2483.6089,-602.5755 2491.9877,-604.4134"/>
<polygon fill="#191970" stroke="#191970" points="2466.9448,-595.337 2456.427,-596.613 2465.4449,-602.1744 2466.9448,-595.337"/>
</g>
<!-- Node41&#45;&gt;Node47 -->
<g id="edge35" class="edge">
<title>Node41&#45;&gt;Node47</title>
<path fill="none" stroke="#191970" d="M2407.5548,-607.933C2441.3029,-678.5093 2550.2934,-877.4677 2706.5,-877.4677 2706.5,-877.4677 2706.5,-877.4677 3016.5,-877.4677 3116.8463,-877.4677 3146.9508,-866.4802 3241,-901.4677 3271.4333,-912.7893 3301.3932,-935.2193 3320.986,-951.8531"/>
<polygon fill="#191970" stroke="#191970" points="2410.7134,-606.4249 2403.2951,-598.8605 2404.377,-609.4 2410.7134,-606.4249"/>
</g>
<!-- Node41&#45;&gt;Node48 -->
<g id="edge34" class="edge">
<title>Node41&#45;&gt;Node48</title>
<path fill="none" stroke="#191970" d="M2466.3666,-569.2488C2528.9804,-557.7523 2623.4826,-543.4677 2706.5,-543.4677 2706.5,-543.4677 2706.5,-543.4677 2861.5,-543.4677 2957.4282,-543.4677 2988.4435,-558.6605 3076,-519.4677 3114.0521,-502.4345 3147.7757,-465.5768 3164.7934,-444.6978"/>
<polygon fill="#191970" stroke="#191970" points="2465.4034,-565.868 2456.2134,-571.14 2466.6852,-572.7496 2465.4034,-565.868"/>
</g>
<!-- Node43 -->
<g id="node17" class="node">
<title>Node43</title>
<g id="a_node17"><a xlink:href="../../d0/d94/classPHG4GDMLWriteSolids.html#adb86c05c10ce4fdade5108b9e32b4398" target="_top" xlink:title="PHG4GDMLWriteSolids\l::BoxWrite">
<polygon fill="none" stroke="#000000" points="2647,-631.4677 2647,-661.4677 2766,-661.4677 2766,-631.4677 2647,-631.4677"/>
<text text-anchor="start" x="2655" y="-649.4677" font-family="FreeSans" font-size="10.00" fill="#000000">PHG4GDMLWriteSolids</text>
<text text-anchor="middle" x="2706.5" y="-638.4677" font-family="FreeSans" font-size="10.00" fill="#000000">::BoxWrite</text>
</a>
</g>
</g>
<!-- Node42&#45;&gt;Node43 -->
<g id="edge16" class="edge">
<title>Node42&#45;&gt;Node43</title>
<path fill="none" stroke="#191970" d="M2621.3823,-630.5425C2629.9332,-632.1423 2638.6089,-633.7655 2646.9877,-635.3332"/>
<polygon fill="#191970" stroke="#191970" points="2621.9002,-627.0787 2611.427,-628.6799 2620.6128,-633.9593 2621.9002,-627.0787"/>
</g>
<!-- Node42&#45;&gt;Node47 -->
<g id="edge33" class="edge">
<title>Node42&#45;&gt;Node47</title>
<path fill="none" stroke="#191970" d="M2567.9097,-641.1566C2609.6927,-698.3822 2726.4046,-839.4677 2861.5,-839.4677 2861.5,-839.4677 2861.5,-839.4677 3016.5,-839.4677 3116.8463,-839.4677 3151.1429,-818.8014 3241,-863.4677 3281.2416,-883.4711 3313.9039,-926.2168 3330.8532,-951.832"/>
<polygon fill="#191970" stroke="#191970" points="2570.5319,-638.8076 2561.8558,-632.7267 2564.8461,-642.8908 2570.5319,-638.8076"/>
</g>
<!-- Node42&#45;&gt;Node48 -->
<g id="edge32" class="edge">
<title>Node42&#45;&gt;Node48</title>
<path fill="none" stroke="#191970" d="M2621.2189,-616.0784C2745.5416,-612.5325 2999.6366,-600.1357 3076,-557.4677 3123.3557,-531.0077 3156.2091,-472.2377 3169.6761,-444.5065"/>
<polygon fill="#191970" stroke="#191970" points="2620.9487,-612.5844 2611.0483,-616.357 2621.1404,-619.5818 2620.9487,-612.5844"/>
</g>
<!-- Node44 -->
<g id="node18" class="node">
<title>Node44</title>
<g id="a_node18"><a xlink:href="../../d0/d94/classPHG4GDMLWriteSolids.html#acaa5a680bf366ae99a07faf07f4cbf7c" target="_top" xlink:title="PHG4GDMLWriteSolids\l::BooleanWrite">
<polygon fill="none" stroke="#000000" points="2802,-651.4677 2802,-681.4677 2921,-681.4677 2921,-651.4677 2802,-651.4677"/>
<text text-anchor="start" x="2810" y="-669.4677" font-family="FreeSans" font-size="10.00" fill="#000000">PHG4GDMLWriteSolids</text>
<text text-anchor="middle" x="2861.5" y="-658.4677" font-family="FreeSans" font-size="10.00" fill="#000000">::BooleanWrite</text>
</a>
</g>
</g>
<!-- Node43&#45;&gt;Node44 -->
<g id="edge17" class="edge">
<title>Node43&#45;&gt;Node44</title>
<path fill="none" stroke="#191970" d="M2776.3823,-655.4848C2784.9332,-656.5881 2793.6089,-657.7076 2801.9877,-658.7887"/>
<polygon fill="#191970" stroke="#191970" points="2776.7928,-652.0088 2766.427,-654.2002 2775.8969,-658.9513 2776.7928,-652.0088"/>
</g>
<!-- Node43&#45;&gt;Node47 -->
<g id="edge31" class="edge">
<title>Node43&#45;&gt;Node47</title>
<path fill="none" stroke="#191970" d="M2741.1818,-666.6626C2788.4851,-693.393 2876.5661,-740.3013 2957,-767.4677 3079.0539,-808.6913 3133.3591,-754.6865 3241,-825.4677 3288.9621,-857.006 3321.0312,-919.4385 3335.2034,-951.8527"/>
<polygon fill="#191970" stroke="#191970" points="2742.7017,-663.5005 2732.2792,-661.5974 2739.2401,-669.5847 2742.7017,-663.5005"/>
</g>
<!-- Node43&#45;&gt;Node48 -->
<g id="edge30" class="edge">
<title>Node43&#45;&gt;Node48</title>
<path fill="none" stroke="#191970" d="M2776.3015,-640.0905C2876.4148,-630.4542 3051.4808,-611.5943 3076,-595.4677 3132.2944,-558.4421 3161.9691,-477.9506 3172.2581,-444.5074"/>
<polygon fill="#191970" stroke="#191970" points="2775.8827,-636.6145 2766.2612,-641.0502 2776.5489,-643.5827 2775.8827,-636.6145"/>
</g>
<!-- Node45 -->
<g id="node19" class="node">
<title>Node45</title>
<g id="a_node19"><a xlink:href="../../d0/d94/classPHG4GDMLWriteSolids.html#a0e1bf2f22e7d43045979c8f4d3b7268f" target="_top" xlink:title="PHG4GDMLWriteSolids\l::MultiUnionWrite">
<polygon fill="none" stroke="#000000" points="2957,-704.4677 2957,-734.4677 3076,-734.4677 3076,-704.4677 2957,-704.4677"/>
<text text-anchor="start" x="2965" y="-722.4677" font-family="FreeSans" font-size="10.00" fill="#000000">PHG4GDMLWriteSolids</text>
<text text-anchor="middle" x="3016.5" y="-711.4677" font-family="FreeSans" font-size="10.00" fill="#000000">::MultiUnionWrite</text>
</a>
</g>
</g>
<!-- Node44&#45;&gt;Node45 -->
<g id="edge18" class="edge">
<title>Node44&#45;&gt;Node45</title>
<path fill="none" stroke="#191970" d="M2915.0693,-684.785C2933.7742,-691.1808 2954.5412,-698.2818 2972.3878,-704.3842"/>
<polygon fill="#191970" stroke="#191970" points="2916.0967,-681.4374 2905.5022,-681.5136 2913.8319,-688.0609 2916.0967,-681.4374"/>
</g>
<!-- Node44&#45;&gt;Node47 -->
<g id="edge29" class="edge">
<title>Node44&#45;&gt;Node47</title>
<path fill="none" stroke="#191970" d="M2882.0985,-688.9499C2900.0445,-707.0271 2927.7216,-731.478 2957,-744.4677 3073.6918,-796.2394 3136.1847,-714.5909 3241,-787.4677 3299.1845,-827.9227 3327.8961,-912.5285 3338.5038,-951.7203"/>
<polygon fill="#191970" stroke="#191970" points="2884.497,-686.3954 2875.0269,-681.6448 2879.4675,-691.2642 2884.497,-686.3954"/>
</g>
<!-- Node44&#45;&gt;Node48 -->
<g id="edge28" class="edge">
<title>Node44&#45;&gt;Node48</title>
<path fill="none" stroke="#191970" d="M2931.2733,-663.8467C2976.5565,-662.2153 3034.621,-654.8187 3076,-624.4677 3138.716,-578.4663 3164.4221,-482.4596 3172.9398,-444.7512"/>
<polygon fill="#191970" stroke="#191970" points="2931.1301,-660.3492 2921.231,-664.1253 2931.3243,-667.3465 2931.1301,-660.3492"/>
</g>
<!-- Node46 -->
<g id="node20" class="node">
<title>Node46</title>
<g id="a_node20"><a xlink:href="../../d0/d94/classPHG4GDMLWriteSolids.html#ac80fc1d1a7f974734ade0cae24bafa34" target="_top" xlink:title="PHG4GDMLWriteSolids\l::~PHG4GDMLWriteSolids">
<polygon fill="none" stroke="#000000" points="3112,-666.4677 3112,-696.4677 3241,-696.4677 3241,-666.4677 3112,-666.4677"/>
<text text-anchor="start" x="3120" y="-684.4677" font-family="FreeSans" font-size="10.00" fill="#000000">PHG4GDMLWriteSolids</text>
<text text-anchor="middle" x="3176.5" y="-673.4677" font-family="FreeSans" font-size="10.00" fill="#000000">::~PHG4GDMLWriteSolids</text>
</a>
</g>
</g>
<!-- Node45&#45;&gt;Node46 -->
<g id="edge19" class="edge">
<title>Node45&#45;&gt;Node46</title>
<path fill="none" stroke="#191970" d="M3085.8254,-703.0029C3094.8965,-700.8486 3104.154,-698.6499 3113.1202,-696.5204"/>
<polygon fill="#191970" stroke="#191970" points="3084.9987,-699.6018 3076.0781,-705.3179 3086.6162,-706.4124 3084.9987,-699.6018"/>
</g>
<!-- Node45&#45;&gt;Node47 -->
<g id="edge27" class="edge">
<title>Node45&#45;&gt;Node47</title>
<path fill="none" stroke="#191970" d="M3086.1799,-712.1996C3134.1194,-710.8821 3196.861,-716.8507 3241,-749.4677 3309.1934,-799.86 3333.3044,-906.6587 3340.6605,-951.7193"/>
<polygon fill="#191970" stroke="#191970" points="3086.0447,-708.7022 3076.1868,-712.5844 3086.3141,-715.697 3086.0447,-708.7022"/>
</g>
<!-- Node45&#45;&gt;Node48 -->
<g id="edge21" class="edge">
<title>Node45&#45;&gt;Node48</title>
<path fill="none" stroke="#191970" d="M3048.8268,-699.8739C3058.5809,-694.8057 3068.6406,-688.5874 3076,-680.4677 3141.8116,-607.8572 3166.3906,-487.4353 3173.7896,-444.7284"/>
<polygon fill="#191970" stroke="#191970" points="3047.0781,-696.8341 3039.6668,-704.4053 3050.1819,-703.1083 3047.0781,-696.8341"/>
</g>
<!-- Node46&#45;&gt;Node47 -->
<g id="edge20" class="edge">
<title>Node46&#45;&gt;Node47</title>
<path fill="none" stroke="#191970" d="M3229.6076,-701.8613C3233.7563,-704.6984 3237.6338,-707.8892 3241,-711.4677 3308.21,-782.9177 3333.1197,-903.59 3340.6797,-951.7318"/>
<polygon fill="#191970" stroke="#191970" points="3231.1555,-698.707 3220.7881,-696.5234 3227.531,-704.6956 3231.1555,-698.707"/>
</g>
<!-- Node48&#45;&gt;Node44 -->
<g id="edge23" class="edge">
<title>Node48&#45;&gt;Node44</title>
<path fill="none" stroke="#191970" d="M3172.9045,-454.7387C3164.3512,-500.7241 3138.6296,-596.5297 3076,-642.4677 3031.4914,-675.1142 2967.6782,-681.2028 2921.231,-678.7519"/>
<polygon fill="#191970" stroke="#191970" points="3176.3868,-455.1408 3174.6407,-444.6908 3169.489,-453.9488 3176.3868,-455.1408"/>
</g>
<!-- Node48&#45;&gt;Node45 -->
<g id="edge22" class="edge">
<title>Node48&#45;&gt;Node45</title>
<path fill="none" stroke="#191970" d="M3173.6438,-454.8302C3166.0708,-506.992 3141.3857,-626.3271 3076,-698.4677 3074.1354,-700.5249 3072.0975,-702.4601 3069.9351,-704.2706"/>
<polygon fill="#191970" stroke="#191970" points="3177.1337,-455.1397 3175.0085,-444.7602 3170.1972,-454.1995 3177.1337,-455.1397"/>
</g>
<!-- Node48&#45;&gt;Node47 -->
<g id="edge24" class="edge">
<title>Node48&#45;&gt;Node47</title>
<path fill="none" stroke="#191970" d="M3184.0844,-454.1285C3212.3351,-545.9854 3311.1627,-867.3231 3337.1824,-951.9261"/>
<polygon fill="#191970" stroke="#191970" points="3187.4259,-453.0867 3181.1408,-444.5574 3180.7352,-455.1444 3187.4259,-453.0867"/>
</g>
<!-- Node49 -->
<g id="node23" class="node">
<title>Node49</title>
<g id="a_node23"><a xlink:href="../../d2/d72/classPHG4GDMLWriteStructure.html#a957c6f2d283732660e3eb9c41b982048" target="_top" xlink:title="PHG4GDMLWriteStructure\l::TraverseVolumeTree">
<polygon fill="none" stroke="#000000" points="3277,-414.4677 3277,-444.4677 3410,-444.4677 3410,-414.4677 3277,-414.4677"/>
<text text-anchor="start" x="3285" y="-432.4677" font-family="FreeSans" font-size="10.00" fill="#000000">PHG4GDMLWriteStructure</text>
<text text-anchor="middle" x="3343.5" y="-421.4677" font-family="FreeSans" font-size="10.00" fill="#000000">::TraverseVolumeTree</text>
</a>
</g>
</g>
<!-- Node48&#45;&gt;Node49 -->
<g id="edge25" class="edge">
<title>Node48&#45;&gt;Node49</title>
<path fill="none" stroke="#191970" d="M3246.5977,-429.4677C3256.5758,-429.4677 3266.8161,-429.4677 3276.7284,-429.4677"/>
<polygon fill="#191970" stroke="#191970" points="3246.3192,-425.9678 3236.3191,-429.4677 3246.3191,-432.9678 3246.3192,-425.9678"/>
</g>
<!-- Node50 -->
<g id="node24" class="node">
<title>Node50</title>
<g id="a_node24"><a xlink:href="../../d2/d72/classPHG4GDMLWriteStructure.html#a9bdddd6b732abd8fac9b6bf90cb84aad" target="_top" xlink:title="PHG4GDMLWriteStructure\l::StructureWrite">
<polygon fill="none" stroke="#000000" points="3446,-414.4677 3446,-444.4677 3579,-444.4677 3579,-414.4677 3446,-414.4677"/>
<text text-anchor="start" x="3454" y="-432.4677" font-family="FreeSans" font-size="10.00" fill="#000000">PHG4GDMLWriteStructure</text>
<text text-anchor="middle" x="3512.5" y="-421.4677" font-family="FreeSans" font-size="10.00" fill="#000000">::StructureWrite</text>
</a>
</g>
</g>
<!-- Node49&#45;&gt;Node50 -->
<g id="edge26" class="edge">
<title>Node49&#45;&gt;Node50</title>
<path fill="none" stroke="#191970" d="M3420.5505,-429.4677C3429.0194,-429.4677 3437.589,-429.4677 3445.9152,-429.4677"/>
<polygon fill="#191970" stroke="#191970" points="3420.2933,-425.9678 3410.2933,-429.4677 3420.2932,-432.9678 3420.2933,-425.9678"/>
</g>
<!-- Node51&#45;&gt;Node29 -->
<g id="edge61" class="edge">
<title>Node51&#45;&gt;Node29</title>
<path fill="none" stroke="#191970" d="M444.246,-67.2795C457.2915,-70.9827 470.9162,-74.8504 483.5668,-78.4415"/>
<polygon fill="#191970" stroke="#191970" points="444.9844,-63.8509 434.4087,-64.487 443.0728,-70.5848 444.9844,-63.8509"/>
</g>
<!-- Node51&#45;&gt;Node47 -->
<g id="edge63" class="edge">
<title>Node51&#45;&gt;Node47</title>
<path fill="none" stroke="#191970" d="M451.4066,-49.4677C514.2367,-49.4677 609.0377,-49.4677 691.5,-49.4677 691.5,-49.4677 691.5,-49.4677 2706.5,-49.4677 2871.0401,-49.4677 2938.954,18.5917 3076,-72.4677 3213.5723,-163.8769 3189.1301,-248.6516 3241,-405.4677 3309.3254,-612.0329 3335.5392,-876.8797 3341.8785,-951.8687"/>
<polygon fill="#191970" stroke="#191970" points="451.2183,-45.9678 441.2182,-49.4677 451.2182,-52.9678 451.2183,-45.9678"/>
</g>
<!-- Node51&#45;&gt;Node48 -->
<g id="edge62" class="edge">
<title>Node51&#45;&gt;Node48</title>
<path fill="none" stroke="#191970" d="M451.3988,-35.9598C514.0337,-25.0381 608.5489,-11.4677 691.5,-11.4677 691.5,-11.4677 691.5,-11.4677 2706.5,-11.4677 2872.945,-11.4677 2951.9693,38.5293 3076,-72.4677 3129.1384,-120.0221 3165.5598,-352.5462 3174.4115,-414.3551"/>
<polygon fill="#191970" stroke="#191970" points="450.4795,-32.568 441.242,-37.7564 451.6988,-39.461 450.4795,-32.568"/>
</g>
</g>
</svg>
