<?xml version="1.0" encoding="UTF-8" standalone="no"?>
<!DOCTYPE svg PUBLIC "-//W3C//DTD SVG 1.1//EN"
 "http://www.w3.org/Graphics/SVG/1.1/DTD/svg11.dtd">
<!-- Generated by graphviz version 2.36.0 (20140111.2315)
 -->
<!-- Title: PHG4GDMLWriteDefine::FirstrotationWrite Pages: 1 -->
<svg width="616pt" height="38pt"
 viewBox="0.00 0.00 616.00 38.00" xmlns="http://www.w3.org/2000/svg" xmlns:xlink="http://www.w3.org/1999/xlink">
<g id="graph0" class="graph" transform="scale(1 1) rotate(0) translate(4 34)">
<title>PHG4GDMLWriteDefine::FirstrotationWrite</title>
<!-- Node1 -->
<g id="node1" class="node"><title>Node1</title>
<polygon fill="#bfbfbf" stroke="black" points="0,-0 0,-30 122,-30 122,-0 0,-0"/>
<text text-anchor="start" x="8" y="-18" font-family="FreeSans" font-size="10.00">PHG4GDMLWriteDefine</text>
<text text-anchor="middle" x="61" y="-7" font-family="FreeSans" font-size="10.00">::FirstrotationWrite</text>
</g>
<!-- Node2 -->
<g id="node2" class="node"><title>Node2</title>
<g id="a_node2"><a xlink:href="../../d0/d94/classPHG4GDMLWriteSolids.html#acaa5a680bf366ae99a07faf07f4cbf7c" target="_top" xlink:title="PHG4GDMLWriteSolids\l::BooleanWrite">
<polygon fill="none" stroke="black" points="158,-0 158,-30 280,-30 280,-0 158,-0"/>
<text text-anchor="start" x="166" y="-18" font-family="FreeSans" font-size="10.00">PHG4GDMLWriteSolids</text>
<text text-anchor="middle" x="219" y="-7" font-family="FreeSans" font-size="10.00">::BooleanWrite</text>
</a>
</g>
</g>
<!-- Node1&#45;&gt;Node2 -->
<g id="edge1" class="edge"><title>Node1&#45;&gt;Node2</title>
<path fill="none" stroke="midnightblue" d="M132.538,-15C140.99,-15 149.56,-15 157.847,-15"/>
<polygon fill="midnightblue" stroke="midnightblue" points="132.314,-11.5001 122.314,-15 132.314,-18.5001 132.314,-11.5001"/>
</g>
<!-- Node3 -->
<g id="node3" class="node"><title>Node3</title>
<g id="a_node3"><a xlink:href="../../d0/d94/classPHG4GDMLWriteSolids.html#ae96019d064cee9517bad4aea85bd94e9" target="_top" xlink:title="PHG4GDMLWriteSolids\l::AddSolid">
<polygon fill="none" stroke="black" points="316,-0 316,-30 438,-30 438,-0 316,-0"/>
<text text-anchor="start" x="324" y="-18" font-family="FreeSans" font-size="10.00">PHG4GDMLWriteSolids</text>
<text text-anchor="middle" x="377" y="-7" font-family="FreeSans" font-size="10.00">::AddSolid</text>
</a>
</g>
</g>
<!-- Node2&#45;&gt;Node3 -->
<g id="edge2" class="edge"><title>Node2&#45;&gt;Node3</title>
<path fill="none" stroke="midnightblue" d="M290.538,-8.27753C298.99,-8.21499 307.56,-8.259 315.847,-8.40956"/>
<polygon fill="midnightblue" stroke="midnightblue" points="290.269,-4.78056 280.314,-8.40666 290.357,-11.78 290.269,-4.78056"/>
</g>
<!-- Node3&#45;&gt;Node2 -->
<g id="edge3" class="edge"><title>Node3&#45;&gt;Node2</title>
<path fill="none" stroke="midnightblue" d="M305.626,-21.7212C297.175,-21.7852 288.604,-21.7425 280.314,-21.5933"/>
<polygon fill="midnightblue" stroke="midnightblue" points="305.892,-25.2182 315.847,-21.5904 305.803,-18.2188 305.892,-25.2182"/>
</g>
<!-- Node4 -->
<g id="node4" class="node"><title>Node4</title>
<g id="a_node4"><a xlink:href="../../d2/d72/classPHG4GDMLWriteStructure.html#a957c6f2d283732660e3eb9c41b982048" target="_top" xlink:title="PHG4GDMLWriteStructure\l::TraverseVolumeTree">
<polygon fill="none" stroke="black" points="474,-0 474,-30 608,-30 608,-0 474,-0"/>
<text text-anchor="start" x="482" y="-18" font-family="FreeSans" font-size="10.00">PHG4GDMLWriteStructure</text>
<text text-anchor="middle" x="541" y="-7" font-family="FreeSans" font-size="10.00">::TraverseVolumeTree</text>
</a>
</g>
</g>
<!-- Node3&#45;&gt;Node4 -->
<g id="edge4" class="edge"><title>Node3&#45;&gt;Node4</title>
<path fill="none" stroke="midnightblue" d="M448.513,-15C456.951,-15 465.543,-15 473.915,-15"/>
<polygon fill="midnightblue" stroke="midnightblue" points="448.323,-11.5001 438.323,-15 448.323,-18.5001 448.323,-11.5001"/>
</g>
</g>
</svg>
