<?xml version="1.0" encoding="UTF-8" standalone="no"?>
<!DOCTYPE svg PUBLIC "-//W3C//DTD SVG 1.1//EN"
 "http://www.w3.org/Graphics/SVG/1.1/DTD/svg11.dtd">
<!-- Generated by graphviz version 2.40.1 (20161225.0304)
 -->
<!-- Title: PHG4GDMLWriteDefine::Rotation_vectorWrite Pages: 1 -->
<svg width="473pt" height="69pt"
 viewBox="0.00 0.00 473.00 69.00" xmlns="http://www.w3.org/2000/svg" xmlns:xlink="http://www.w3.org/1999/xlink">
<g id="graph0" class="graph" transform="scale(1 1) rotate(0) translate(4 65)">
<title>PHG4GDMLWriteDefine::Rotation_vectorWrite</title>
<!-- Node256 -->
<g id="node1" class="node">
<title>Node256</title>
<polygon fill="#bfbfbf" stroke="#000000" points="0,-16 0,-46 120,-46 120,-16 0,-16"/>
<text text-anchor="start" x="8" y="-34" font-family="FreeSans" font-size="10.00" fill="#000000">PHG4GDMLWriteDefine</text>
<text text-anchor="middle" x="60" y="-23" font-family="FreeSans" font-size="10.00" fill="#000000">::Rotation_vectorWrite</text>
</g>
<!-- Node257 -->
<g id="node2" class="node">
<title>Node257</title>
<g id="a_node2"><a xlink:href="../../dd/db5/classPHG4GDMLWrite.html#afe96dc9fdc7c1a0a1a96b59dc15dffa2" target="_top" xlink:title="PHG4GDMLWrite::NewAttribute">
<polygon fill="none" stroke="#000000" points="312,-41.5 312,-60.5 465,-60.5 465,-41.5 312,-41.5"/>
<text text-anchor="middle" x="388.5" y="-48.5" font-family="FreeSans" font-size="10.00" fill="#000000">PHG4GDMLWrite::NewAttribute</text>
</a>
</g>
</g>
<!-- Node256&#45;&gt;Node257 -->
<g id="edge1" class="edge">
<title>Node256&#45;&gt;Node257</title>
<path fill="none" stroke="#191970" d="M107.8743,-46.0245C123.0992,-50.1096 140.1128,-53.9653 156,-56 203.9271,-62.1382 257.8556,-61.4445 301.7,-58.9652"/>
<polygon fill="#191970" stroke="#191970" points="301.9847,-62.4544 311.7545,-58.3557 301.5611,-55.4673 301.9847,-62.4544"/>
</g>
<!-- Node258 -->
<g id="node3" class="node">
<title>Node258</title>
<g id="a_node3"><a xlink:href="../../dd/db5/classPHG4GDMLWrite.html#ada0a5579d406ec27f3150711ab83becc" target="_top" xlink:title="PHG4GDMLWrite::NewElement">
<polygon fill="none" stroke="#000000" points="312.5,-.5 312.5,-19.5 464.5,-19.5 464.5,-.5 312.5,-.5"/>
<text text-anchor="middle" x="388.5" y="-7.5" font-family="FreeSans" font-size="10.00" fill="#000000">PHG4GDMLWrite::NewElement</text>
</a>
</g>
</g>
<!-- Node256&#45;&gt;Node258 -->
<g id="edge2" class="edge">
<title>Node256&#45;&gt;Node258</title>
<path fill="none" stroke="#191970" d="M107.8743,-15.9755C123.0992,-11.8904 140.1128,-8.0347 156,-6 204.1089,.1614 258.2695,-.3413 302.206,-2.6102"/>
<polygon fill="#191970" stroke="#191970" points="302.1005,-6.1096 312.2794,-3.1702 302.4891,.8796 302.1005,-6.1096"/>
</g>
<!-- Node259 -->
<g id="node4" class="node">
<title>Node259</title>
<g id="a_node4"><a xlink:href="../../d9/def/classPHG4GDMLWriteDefine.html#a4afdc8b4e9e647a40da36e6c6896f56d" target="_top" xlink:title="PHG4GDMLWriteDefine\l::Position_vectorWrite">
<polygon fill="none" stroke="#000000" points="156,-16 156,-46 276,-46 276,-16 156,-16"/>
<text text-anchor="start" x="164" y="-34" font-family="FreeSans" font-size="10.00" fill="#000000">PHG4GDMLWriteDefine</text>
<text text-anchor="middle" x="216" y="-23" font-family="FreeSans" font-size="10.00" fill="#000000">::Position_vectorWrite</text>
</a>
</g>
</g>
<!-- Node256&#45;&gt;Node259 -->
<g id="edge3" class="edge">
<title>Node256&#45;&gt;Node259</title>
<path fill="none" stroke="#191970" d="M120.3137,-31C128.6036,-31 137.1748,-31 145.6255,-31"/>
<polygon fill="#191970" stroke="#191970" points="145.8468,-34.5001 155.8467,-31 145.8467,-27.5001 145.8468,-34.5001"/>
</g>
<!-- Node259&#45;&gt;Node257 -->
<g id="edge4" class="edge">
<title>Node259&#45;&gt;Node257</title>
<path fill="none" stroke="#191970" d="M276.3321,-37.995C284.5722,-38.9504 293.1602,-39.9461 301.7547,-40.9426"/>
<polygon fill="#191970" stroke="#191970" points="301.49,-44.4352 311.8266,-42.1103 302.2962,-37.4818 301.49,-44.4352"/>
</g>
<!-- Node259&#45;&gt;Node258 -->
<g id="edge5" class="edge">
<title>Node259&#45;&gt;Node258</title>
<path fill="none" stroke="#191970" d="M276.3321,-23.6552C284.8029,-22.624 293.6414,-21.548 302.4768,-20.4724"/>
<polygon fill="#191970" stroke="#191970" points="302.9273,-23.9435 312.431,-19.2606 302.0813,-16.9948 302.9273,-23.9435"/>
</g>
</g>
</svg>
