<?xml version="1.0" encoding="UTF-8" standalone="no"?>
<!DOCTYPE svg PUBLIC "-//W3C//DTD SVG 1.1//EN"
 "http://www.w3.org/Graphics/SVG/1.1/DTD/svg11.dtd">
<!-- Generated by graphviz version 2.30.1 (20180413.0232)
 -->
<!-- Title: /dev/shm/kenichi/update&#45;github&#45;e1039&#45;doc/e1039&#45;core/interface_main/SQRun_v1.h Pages: 1 -->
<svg width="1255pt" height="140pt"
 viewBox="0.00 0.00 1255.00 140.00" xmlns="http://www.w3.org/2000/svg" xmlns:xlink="http://www.w3.org/1999/xlink">
<g id="graph0" class="graph" transform="scale(1 1) rotate(0) translate(4 136)">
<title>/dev/shm/kenichi/update&#45;github&#45;e1039&#45;doc/e1039&#45;core/interface_main/SQRun_v1.h</title>
<!-- Node1 -->
<g id="node1" class="node"><title>Node1</title>
<polygon fill="#bfbfbf" stroke="black" points="555,-90.5 555,-131.5 717,-131.5 717,-90.5 555,-90.5"/>
<text text-anchor="start" x="563" y="-119.5" font-family="FreeSans" font-size="10.00">/dev/shm/kenichi/update</text>
<text text-anchor="start" x="563" y="-108.5" font-family="FreeSans" font-size="10.00">&#45;github&#45;e1039&#45;doc/e1039</text>
<text text-anchor="middle" x="636" y="-97.5" font-family="FreeSans" font-size="10.00">&#45;core/interface_main/SQRun_v1.h</text>
</g>
<!-- Node2 -->
<g id="node2" class="node"><title>Node2</title>
<g id="a_node2"><a xlink:href="../../da/dcf/SQRun__v1_8cxx.html" target="_top" xlink:title="/dev/shm/kenichi/update\l&#45;github&#45;e1039&#45;doc/e1039\l&#45;core/interface_main/SQRun_v1.cxx">
<polygon fill="none" stroke="black" points="-0.5,-6.5 -0.5,-47.5 170.5,-47.5 170.5,-6.5 -0.5,-6.5"/>
<text text-anchor="start" x="7.5" y="-35.5" font-family="FreeSans" font-size="10.00">/dev/shm/kenichi/update</text>
<text text-anchor="start" x="7.5" y="-24.5" font-family="FreeSans" font-size="10.00">&#45;github&#45;e1039&#45;doc/e1039</text>
<text text-anchor="middle" x="85" y="-13.5" font-family="FreeSans" font-size="10.00">&#45;core/interface_main/SQRun_v1.cxx</text>
</a>
</g>
</g>
<!-- Node1&#45;&gt;Node2 -->
<g id="edge1" class="edge"><title>Node1&#45;&gt;Node2</title>
<path fill="none" stroke="midnightblue" d="M544.748,-102.821C452.048,-94.5924 304.638,-78.931 179,-54 169.865,-52.1874 160.317,-49.9535 150.954,-47.5631"/>
<polygon fill="midnightblue" stroke="midnightblue" points="544.67,-106.327 554.938,-103.715 545.282,-99.3539 544.67,-106.327"/>
</g>
<!-- Node3 -->
<g id="node3" class="node"><title>Node3</title>
<g id="a_node3"><a xlink:href="../../de/d00/Fun4AllEVIOInputManager_8cc.html" target="_top" xlink:title="/dev/shm/kenichi/update\l&#45;github&#45;e1039&#45;doc/e1039\l&#45;core/online/decoder_maindaq\l/Fun4AllEVIOInputManager.cc">
<polygon fill="none" stroke="black" points="188.5,-1 188.5,-53 335.5,-53 335.5,-1 188.5,-1"/>
<text text-anchor="start" x="196.5" y="-41" font-family="FreeSans" font-size="10.00">/dev/shm/kenichi/update</text>
<text text-anchor="start" x="196.5" y="-30" font-family="FreeSans" font-size="10.00">&#45;github&#45;e1039&#45;doc/e1039</text>
<text text-anchor="start" x="196.5" y="-19" font-family="FreeSans" font-size="10.00">&#45;core/online/decoder_maindaq</text>
<text text-anchor="middle" x="262" y="-8" font-family="FreeSans" font-size="10.00">/Fun4AllEVIOInputManager.cc</text>
</a>
</g>
</g>
<!-- Node1&#45;&gt;Node3 -->
<g id="edge2" class="edge"><title>Node1&#45;&gt;Node3</title>
<path fill="none" stroke="midnightblue" d="M545.015,-95.3877C487.094,-85.3883 410.692,-70.906 344,-54 341.249,-53.3028 338.455,-52.5658 335.64,-51.7988"/>
<polygon fill="midnightblue" stroke="midnightblue" points="544.429,-98.8382 554.876,-97.0778 545.611,-91.9388 544.429,-98.8382"/>
</g>
<!-- Node4 -->
<g id="node4" class="node"><title>Node4</title>
<g id="a_node4"><a xlink:href="../../d6/d76/DPTriggerAnalyzer_8cxx.html" target="_top" xlink:title="/dev/shm/kenichi/update\l&#45;github&#45;e1039&#45;doc/e1039\l&#45;core/packages/dptrigger\l/DPTriggerAnalyzer.cxx">
<polygon fill="none" stroke="black" points="353.5,-1 353.5,-53 476.5,-53 476.5,-1 353.5,-1"/>
<text text-anchor="start" x="361.5" y="-41" font-family="FreeSans" font-size="10.00">/dev/shm/kenichi/update</text>
<text text-anchor="start" x="361.5" y="-30" font-family="FreeSans" font-size="10.00">&#45;github&#45;e1039&#45;doc/e1039</text>
<text text-anchor="start" x="361.5" y="-19" font-family="FreeSans" font-size="10.00">&#45;core/packages/dptrigger</text>
<text text-anchor="middle" x="415" y="-8" font-family="FreeSans" font-size="10.00">/DPTriggerAnalyzer.cxx</text>
</a>
</g>
</g>
<!-- Node1&#45;&gt;Node4 -->
<g id="edge3" class="edge"><title>Node1&#45;&gt;Node4</title>
<path fill="none" stroke="midnightblue" d="M573.822,-86.9486C546.564,-76.8409 514.193,-64.8348 485,-54 482.326,-53.0076 479.595,-51.9938 476.836,-50.9695"/>
<polygon fill="midnightblue" stroke="midnightblue" points="572.644,-90.2446 583.237,-90.4397 575.078,-83.6813 572.644,-90.2446"/>
</g>
<!-- Node5 -->
<g id="node5" class="node"><title>Node5</title>
<g id="a_node5"><a xlink:href="../../d0/d82/RndmEmbed_8cxx.html" target="_top" xlink:title="/dev/shm/kenichi/update\l&#45;github&#45;e1039&#45;doc/e1039\l&#45;core/packages/embedding\l/RndmEmbed.cxx">
<polygon fill="none" stroke="black" points="494.5,-1 494.5,-53 627.5,-53 627.5,-1 494.5,-1"/>
<text text-anchor="start" x="502.5" y="-41" font-family="FreeSans" font-size="10.00">/dev/shm/kenichi/update</text>
<text text-anchor="start" x="502.5" y="-30" font-family="FreeSans" font-size="10.00">&#45;github&#45;e1039&#45;doc/e1039</text>
<text text-anchor="start" x="502.5" y="-19" font-family="FreeSans" font-size="10.00">&#45;core/packages/embedding</text>
<text text-anchor="middle" x="561" y="-8" font-family="FreeSans" font-size="10.00">/RndmEmbed.cxx</text>
</a>
</g>
</g>
<!-- Node1&#45;&gt;Node5 -->
<g id="edge4" class="edge"><title>Node1&#45;&gt;Node5</title>
<path fill="none" stroke="midnightblue" d="M610.861,-82.5147C602.215,-73.0614 592.581,-62.5289 584.105,-53.2613"/>
<polygon fill="midnightblue" stroke="midnightblue" points="608.513,-85.1332 617.845,-90.1501 613.678,-80.4089 608.513,-85.1332"/>
</g>
<!-- Node6 -->
<g id="node6" class="node"><title>Node6</title>
<g id="a_node6"><a xlink:href="../../d7/d67/SRawEventEmbed_8cxx.html" target="_top" xlink:title="/dev/shm/kenichi/update\l&#45;github&#45;e1039&#45;doc/e1039\l&#45;core/packages/embedding\l/SRawEventEmbed.cxx">
<polygon fill="none" stroke="black" points="645.5,-1 645.5,-53 778.5,-53 778.5,-1 645.5,-1"/>
<text text-anchor="start" x="653.5" y="-41" font-family="FreeSans" font-size="10.00">/dev/shm/kenichi/update</text>
<text text-anchor="start" x="653.5" y="-30" font-family="FreeSans" font-size="10.00">&#45;github&#45;e1039&#45;doc/e1039</text>
<text text-anchor="start" x="653.5" y="-19" font-family="FreeSans" font-size="10.00">&#45;core/packages/embedding</text>
<text text-anchor="middle" x="712" y="-8" font-family="FreeSans" font-size="10.00">/SRawEventEmbed.cxx</text>
</a>
</g>
</g>
<!-- Node1&#45;&gt;Node6 -->
<g id="edge5" class="edge"><title>Node1&#45;&gt;Node6</title>
<path fill="none" stroke="midnightblue" d="M661.212,-82.7979C670.04,-73.2722 679.912,-62.6216 688.587,-53.2613"/>
<polygon fill="midnightblue" stroke="midnightblue" points="658.628,-80.4366 654.397,-90.1501 663.762,-85.1949 658.628,-80.4366"/>
</g>
<!-- Node7 -->
<g id="node7" class="node"><title>Node7</title>
<g id="a_node7"><a xlink:href="../../d2/dce/EvtFilter_8cxx.html" target="_top" xlink:title="/dev/shm/kenichi/update\l&#45;github&#45;e1039&#45;doc/e1039\l&#45;core/packages/evt_filter\l/EvtFilter.cxx">
<polygon fill="none" stroke="black" points="796.5,-1 796.5,-53 919.5,-53 919.5,-1 796.5,-1"/>
<text text-anchor="start" x="804.5" y="-41" font-family="FreeSans" font-size="10.00">/dev/shm/kenichi/update</text>
<text text-anchor="start" x="804.5" y="-30" font-family="FreeSans" font-size="10.00">&#45;github&#45;e1039&#45;doc/e1039</text>
<text text-anchor="start" x="804.5" y="-19" font-family="FreeSans" font-size="10.00">&#45;core/packages/evt_filter</text>
<text text-anchor="middle" x="858" y="-8" font-family="FreeSans" font-size="10.00">/EvtFilter.cxx</text>
</a>
</g>
</g>
<!-- Node1&#45;&gt;Node7 -->
<g id="edge6" class="edge"><title>Node1&#45;&gt;Node7</title>
<path fill="none" stroke="midnightblue" d="M698.607,-86.8749C729.238,-75.5609 765.981,-61.9889 796.467,-50.7284"/>
<polygon fill="midnightblue" stroke="midnightblue" points="697.06,-83.715 688.892,-90.4631 699.486,-90.2814 697.06,-83.715"/>
</g>
<!-- Node8 -->
<g id="node8" class="node"><title>Node8</title>
<g id="a_node8"><a xlink:href="../../d0/d98/SQReco_8cxx.html" target="_top" xlink:title="/dev/shm/kenichi/update\l&#45;github&#45;e1039&#45;doc/e1039\l&#45;core/packages/reco/ktracker\l/SQReco.cxx">
<polygon fill="none" stroke="black" points="937.5,-1 937.5,-53 1080.5,-53 1080.5,-1 937.5,-1"/>
<text text-anchor="start" x="945.5" y="-41" font-family="FreeSans" font-size="10.00">/dev/shm/kenichi/update</text>
<text text-anchor="start" x="945.5" y="-30" font-family="FreeSans" font-size="10.00">&#45;github&#45;e1039&#45;doc/e1039</text>
<text text-anchor="start" x="945.5" y="-19" font-family="FreeSans" font-size="10.00">&#45;core/packages/reco/ktracker</text>
<text text-anchor="middle" x="1009" y="-8" font-family="FreeSans" font-size="10.00">/SQReco.cxx</text>
</a>
</g>
</g>
<!-- Node1&#45;&gt;Node8 -->
<g id="edge7" class="edge"><title>Node1&#45;&gt;Node8</title>
<path fill="none" stroke="midnightblue" d="M727.006,-95.4694C784.935,-85.5018 861.338,-71.0244 928,-54 931.005,-53.2326 934.062,-52.4161 937.143,-51.5637"/>
<polygon fill="midnightblue" stroke="midnightblue" points="726.411,-92.0202 717.143,-97.1536 727.589,-98.9203 726.411,-92.0202"/>
</g>
<!-- Node9 -->
<g id="node9" class="node"><title>Node9</title>
<g id="a_node9"><a xlink:href="../../d4/da7/PatternDBGen_8cxx.html" target="_top" xlink:title="/dev/shm/kenichi/update\l&#45;github&#45;e1039&#45;doc/e1039\l&#45;core/packages/reco/patterndb\l/PatternDBGen.cxx">
<polygon fill="none" stroke="black" points="1099,-1 1099,-53 1247,-53 1247,-1 1099,-1"/>
<text text-anchor="start" x="1107" y="-41" font-family="FreeSans" font-size="10.00">/dev/shm/kenichi/update</text>
<text text-anchor="start" x="1107" y="-30" font-family="FreeSans" font-size="10.00">&#45;github&#45;e1039&#45;doc/e1039</text>
<text text-anchor="start" x="1107" y="-19" font-family="FreeSans" font-size="10.00">&#45;core/packages/reco/patterndb</text>
<text text-anchor="middle" x="1173" y="-8" font-family="FreeSans" font-size="10.00">/PatternDBGen.cxx</text>
</a>
</g>
</g>
<!-- Node1&#45;&gt;Node9 -->
<g id="edge8" class="edge"><title>Node1&#45;&gt;Node9</title>
<path fill="none" stroke="midnightblue" d="M727.448,-103.48C819.51,-95.7999 965.222,-80.5875 1089,-54 1092.28,-53.2947 1095.62,-52.5186 1098.98,-51.6891"/>
<polygon fill="midnightblue" stroke="midnightblue" points="727.004,-100.005 717.324,-104.312 727.577,-106.981 727.004,-100.005"/>
</g>
</g>
</svg>
