<?xml version="1.0" encoding="UTF-8" standalone="no"?>
<!DOCTYPE svg PUBLIC "-//W3C//DTD SVG 1.1//EN"
 "http://www.w3.org/Graphics/SVG/1.1/DTD/svg11.dtd">
<!-- Generated by graphviz version 2.36.0 (20140111.2315)
 -->
<!-- Title: TriggerAnalyzer::trimEvent Pages: 1 -->
<svg width="608pt" height="415pt"
 viewBox="0.00 0.00 608.00 415.00" xmlns="http://www.w3.org/2000/svg" xmlns:xlink="http://www.w3.org/1999/xlink">
<g id="graph0" class="graph" transform="scale(1 1) rotate(0) translate(4 411)">
<title>TriggerAnalyzer::trimEvent</title>
<!-- Node1 -->
<g id="node1" class="node"><title>Node1</title>
<polygon fill="#bfbfbf" stroke="black" points="0.5,-182.5 0.5,-201.5 129.5,-201.5 129.5,-182.5 0.5,-182.5"/>
<text text-anchor="middle" x="65" y="-189.5" font-family="FreeSans" font-size="10.00">TriggerAnalyzer::trimEvent</text>
</g>
<!-- Node2 -->
<g id="node2" class="node"><title>Node2</title>
<g id="a_node2"><a xlink:href="../../d6/deb/classTriggerAnalyzer.html#ad9cfc03722fb7065da7c30e9ff6a62e1" target="_top" xlink:title="TriggerAnalyzer::acceptEvent">
<polygon fill="none" stroke="black" points="166,-387.5 166,-406.5 308,-406.5 308,-387.5 166,-387.5"/>
<text text-anchor="middle" x="237" y="-394.5" font-family="FreeSans" font-size="10.00">TriggerAnalyzer::acceptEvent</text>
</a>
</g>
</g>
<!-- Node1&#45;&gt;Node2 -->
<g id="edge1" class="edge"><title>Node1&#45;&gt;Node2</title>
<path fill="none" stroke="midnightblue" d="M68.3406,-201.869C76.2304,-232.92 104.852,-329.428 166,-378 168.311,-379.836 170.786,-381.495 173.374,-382.993"/>
<polygon fill="midnightblue" stroke="midnightblue" points="172.026,-386.231 182.545,-387.499 175.113,-379.948 172.026,-386.231"/>
</g>
<!-- Node5 -->
<g id="node5" class="node"><title>Node5</title>
<g id="a_node5"><a xlink:href="../../d0/da0/classGeomSvc.html#a5a50feb4de0351f6d3d739dbc66d6247" target="_top" xlink:title="Convert the detectorID and elementID to the actual hit position. ">
<polygon fill="none" stroke="black" points="168.5,-349.5 168.5,-368.5 305.5,-368.5 305.5,-349.5 168.5,-349.5"/>
<text text-anchor="middle" x="237" y="-356.5" font-family="FreeSans" font-size="10.00">GeomSvc::getMeasurement</text>
</a>
</g>
</g>
<!-- Node1&#45;&gt;Node5 -->
<g id="edge4" class="edge"><title>Node1&#45;&gt;Node5</title>
<path fill="none" stroke="midnightblue" d="M69.7407,-201.599C80.4721,-227.854 113.967,-301.391 166,-339 169.4,-341.457 173.094,-343.613 176.95,-345.505"/>
<polygon fill="midnightblue" stroke="midnightblue" points="175.607,-348.738 186.177,-349.458 178.363,-342.303 175.607,-348.738"/>
</g>
<!-- Node6 -->
<g id="node6" class="node"><title>Node6</title>
<g id="a_node6"><a xlink:href="../../d6/deb/classTriggerAnalyzer.html#a41633691ed466ce8f5eec57d3fbba875" target="_top" xlink:title="TriggerAnalyzer::getNRoads\lNegBot">
<polygon fill="none" stroke="black" points="168.5,-300 168.5,-330 305.5,-330 305.5,-300 168.5,-300"/>
<text text-anchor="start" x="176.5" y="-318" font-family="FreeSans" font-size="10.00">TriggerAnalyzer::getNRoads</text>
<text text-anchor="middle" x="237" y="-307" font-family="FreeSans" font-size="10.00">NegBot</text>
</a>
</g>
</g>
<!-- Node1&#45;&gt;Node6 -->
<g id="edge5" class="edge"><title>Node1&#45;&gt;Node6</title>
<path fill="none" stroke="midnightblue" d="M73.4833,-201.758C88.8294,-221.156 125.818,-264.855 166,-290 169.196,-292 172.575,-293.869 176.052,-295.612"/>
<polygon fill="midnightblue" stroke="midnightblue" points="174.885,-298.927 185.432,-299.929 177.812,-292.568 174.885,-298.927"/>
</g>
<!-- Node7 -->
<g id="node7" class="node"><title>Node7</title>
<g id="a_node7"><a xlink:href="../../d6/deb/classTriggerAnalyzer.html#a3862bedaf3afdb2fbd3a152b1b59033b" target="_top" xlink:title="TriggerAnalyzer::getNRoads\lNegTop">
<polygon fill="none" stroke="black" points="168.5,-251 168.5,-281 305.5,-281 305.5,-251 168.5,-251"/>
<text text-anchor="start" x="176.5" y="-269" font-family="FreeSans" font-size="10.00">TriggerAnalyzer::getNRoads</text>
<text text-anchor="middle" x="237" y="-258" font-family="FreeSans" font-size="10.00">NegTop</text>
</a>
</g>
</g>
<!-- Node1&#45;&gt;Node7 -->
<g id="edge6" class="edge"><title>Node1&#45;&gt;Node7</title>
<path fill="none" stroke="midnightblue" d="M84.1442,-201.66C103.964,-212.03 136.788,-228.673 166,-241 171.053,-243.132 176.357,-245.246 181.691,-247.288"/>
<polygon fill="midnightblue" stroke="midnightblue" points="180.681,-250.647 191.274,-250.875 183.135,-244.091 180.681,-250.647"/>
</g>
<!-- Node8 -->
<g id="node8" class="node"><title>Node8</title>
<g id="a_node8"><a xlink:href="../../d6/deb/classTriggerAnalyzer.html#a5ee1effdec559c713e59a68baaa735b7" target="_top" xlink:title="TriggerAnalyzer::getNRoads\lPosBot">
<polygon fill="none" stroke="black" points="168.5,-202 168.5,-232 305.5,-232 305.5,-202 168.5,-202"/>
<text text-anchor="start" x="176.5" y="-220" font-family="FreeSans" font-size="10.00">TriggerAnalyzer::getNRoads</text>
<text text-anchor="middle" x="237" y="-209" font-family="FreeSans" font-size="10.00">PosBot</text>
</a>
</g>
</g>
<!-- Node1&#45;&gt;Node8 -->
<g id="edge7" class="edge"><title>Node1&#45;&gt;Node8</title>
<path fill="none" stroke="midnightblue" d="M129.785,-201.38C139.155,-202.758 148.893,-204.19 158.501,-205.603"/>
<polygon fill="midnightblue" stroke="midnightblue" points="158.044,-209.073 168.447,-207.066 159.063,-202.148 158.044,-209.073"/>
</g>
<!-- Node9 -->
<g id="node9" class="node"><title>Node9</title>
<g id="a_node9"><a xlink:href="../../d6/deb/classTriggerAnalyzer.html#ab689aa54f443aad962ba28b071bfebb1" target="_top" xlink:title="TriggerAnalyzer::getNRoads\lPosTop">
<polygon fill="none" stroke="black" points="168.5,-153 168.5,-183 305.5,-183 305.5,-153 168.5,-153"/>
<text text-anchor="start" x="176.5" y="-171" font-family="FreeSans" font-size="10.00">TriggerAnalyzer::getNRoads</text>
<text text-anchor="middle" x="237" y="-160" font-family="FreeSans" font-size="10.00">PosTop</text>
</a>
</g>
</g>
<!-- Node1&#45;&gt;Node9 -->
<g id="edge8" class="edge"><title>Node1&#45;&gt;Node9</title>
<path fill="none" stroke="midnightblue" d="M129.785,-182.995C139.155,-181.672 148.893,-180.297 158.501,-178.941"/>
<polygon fill="midnightblue" stroke="midnightblue" points="159.035,-182.401 168.447,-177.537 158.056,-175.469 159.035,-182.401"/>
</g>
<!-- Node10 -->
<g id="node10" class="node"><title>Node10</title>
<g id="a_node10"><a xlink:href="../../d0/d88/classHit.html#ad56973a505f8aee1cf1fc1b9b5cc8335" target="_top" xlink:title="Hit::setInTime">
<polygon fill="none" stroke="black" points="198.5,-114.5 198.5,-133.5 275.5,-133.5 275.5,-114.5 198.5,-114.5"/>
<text text-anchor="middle" x="237" y="-121.5" font-family="FreeSans" font-size="10.00">Hit::setInTime</text>
</a>
</g>
</g>
<!-- Node1&#45;&gt;Node10 -->
<g id="edge9" class="edge"><title>Node1&#45;&gt;Node10</title>
<path fill="none" stroke="midnightblue" d="M83.6636,-182.392C103.339,-171.96 136.295,-155.28 166,-144 173.148,-141.286 180.826,-138.738 188.385,-136.429"/>
<polygon fill="midnightblue" stroke="midnightblue" points="189.596,-139.721 198.199,-133.537 187.617,-133.006 189.596,-139.721"/>
</g>
<!-- Node11 -->
<g id="node11" class="node"><title>Node11</title>
<g id="a_node11"><a xlink:href="../../d5/d83/classSRawEvent.html#a5a500712ec89db44020d8ab8e7d7b607" target="_top" xlink:title="SRawEvent::setNRoads">
<polygon fill="none" stroke="black" points="176.5,-76.5 176.5,-95.5 297.5,-95.5 297.5,-76.5 176.5,-76.5"/>
<text text-anchor="middle" x="237" y="-83.5" font-family="FreeSans" font-size="10.00">SRawEvent::setNRoads</text>
</a>
</g>
</g>
<!-- Node1&#45;&gt;Node11 -->
<g id="edge10" class="edge"><title>Node1&#45;&gt;Node11</title>
<path fill="none" stroke="midnightblue" d="M74.3175,-182.309C90.2635,-164.344 127.027,-125.814 166,-105 170.287,-102.711 174.872,-100.68 179.568,-98.8812"/>
<polygon fill="midnightblue" stroke="midnightblue" points="181.001,-102.089 189.304,-95.5082 178.709,-95.4749 181.001,-102.089"/>
</g>
<!-- Node12 -->
<g id="node12" class="node"><title>Node12</title>
<g id="a_node12"><a xlink:href="../../d5/d83/classSRawEvent.html#a35713143af2898c9b3347d9a2090ddcd" target="_top" xlink:title="SRawEvent::setTriggerEmu">
<polygon fill="none" stroke="black" points="169.5,-38.5 169.5,-57.5 304.5,-57.5 304.5,-38.5 169.5,-38.5"/>
<text text-anchor="middle" x="237" y="-45.5" font-family="FreeSans" font-size="10.00">SRawEvent::setTriggerEmu</text>
</a>
</g>
</g>
<!-- Node1&#45;&gt;Node12 -->
<g id="edge11" class="edge"><title>Node1&#45;&gt;Node12</title>
<path fill="none" stroke="midnightblue" d="M70.8339,-182.472C83.2405,-159.009 118.594,-98.0959 166,-67 169.132,-64.9452 172.482,-63.1114 175.957,-61.475"/>
<polygon fill="midnightblue" stroke="midnightblue" points="177.47,-64.6368 185.38,-57.5881 174.801,-58.1657 177.47,-64.6368"/>
</g>
<!-- Node13 -->
<g id="node13" class="node"><title>Node13</title>
<g id="a_node13"><a xlink:href="../../d0/d88/classHit.html#ab0b03a327ed7af2ceec1f7130cf944ec" target="_top" xlink:title="Hit::setTriggerMask">
<polygon fill="none" stroke="black" points="186.5,-0.5 186.5,-19.5 287.5,-19.5 287.5,-0.5 186.5,-0.5"/>
<text text-anchor="middle" x="237" y="-7.5" font-family="FreeSans" font-size="10.00">Hit::setTriggerMask</text>
</a>
</g>
</g>
<!-- Node1&#45;&gt;Node13 -->
<g id="edge12" class="edge"><title>Node1&#45;&gt;Node13</title>
<path fill="none" stroke="midnightblue" d="M69.1204,-182.151C78.6535,-153.703 110.194,-70.7912 166,-29 169.402,-26.4525 173.123,-24.2464 177.021,-22.3361"/>
<polygon fill="midnightblue" stroke="midnightblue" points="178.514,-25.5049 186.368,-18.3938 175.794,-19.0551 178.514,-25.5049"/>
</g>
<!-- Node3 -->
<g id="node3" class="node"><title>Node3</title>
<g id="a_node3"><a xlink:href="../../d5/d72/classTriggerRoad.html#affb1214bf3dda5cbeb9ff171ab681641" target="_top" xlink:title="TriggerRoad::getRoadID">
<polygon fill="none" stroke="black" points="344.5,-387.5 344.5,-406.5 463.5,-406.5 463.5,-387.5 344.5,-387.5"/>
<text text-anchor="middle" x="404" y="-394.5" font-family="FreeSans" font-size="10.00">TriggerRoad::getRoadID</text>
</a>
</g>
</g>
<!-- Node2&#45;&gt;Node3 -->
<g id="edge2" class="edge"><title>Node2&#45;&gt;Node3</title>
<path fill="none" stroke="midnightblue" d="M308.453,-397C316.985,-397 325.692,-397 334.198,-397"/>
<polygon fill="midnightblue" stroke="midnightblue" points="334.451,-400.5 344.451,-397 334.451,-393.5 334.451,-400.5"/>
</g>
<!-- Node4 -->
<g id="node4" class="node"><title>Node4</title>
<g id="a_node4"><a xlink:href="../../d5/d72/classTriggerRoad.html#a54f9154ab88c8742e9ed4d8df493c9db" target="_top" xlink:title="TriggerRoad::getTB">
<polygon fill="none" stroke="black" points="500,-387.5 500,-406.5 600,-406.5 600,-387.5 500,-387.5"/>
<text text-anchor="middle" x="550" y="-394.5" font-family="FreeSans" font-size="10.00">TriggerRoad::getTB</text>
</a>
</g>
</g>
<!-- Node3&#45;&gt;Node4 -->
<g id="edge3" class="edge"><title>Node3&#45;&gt;Node4</title>
<path fill="none" stroke="midnightblue" d="M463.57,-397C472.095,-397 480.881,-397 489.426,-397"/>
<polygon fill="midnightblue" stroke="midnightblue" points="489.695,-400.5 499.695,-397 489.695,-393.5 489.695,-400.5"/>
</g>
</g>
</svg>
