<?xml version="1.0" encoding="UTF-8" standalone="no"?>
<!DOCTYPE svg PUBLIC "-//W3C//DTD SVG 1.1//EN"
 "http://www.w3.org/Graphics/SVG/1.1/DTD/svg11.dtd">
<!-- Generated by graphviz version 2.44.0 (0)
 -->
<!-- Title: GenRoadset::FlipRoadTopBottom Pages: 1 -->
<svg width="350pt" height="66pt"
 viewBox="0.00 0.00 350.00 66.00" xmlns="http://www.w3.org/2000/svg" xmlns:xlink="http://www.w3.org/1999/xlink">
<g id="graph0" class="graph" transform="scale(1 1) rotate(0) translate(4 62)">
<title>GenRoadset::FlipRoadTopBottom</title>
<!-- Node1 -->
<g id="node1" class="node">
<title>Node1</title>
<g id="a_node1"><a xlink:title=" ">
<polygon fill="#bfbfbf" stroke="black" points="0,-19.5 0,-38.5 177,-38.5 177,-19.5 0,-19.5"/>
<text text-anchor="middle" x="88.5" y="-26.5" font-family="FreeSans" font-size="10.00">GenRoadset::FlipRoadTopBottom</text>
</a>
</g>
</g>
<!-- Node2 -->
<g id="node2" class="node">
<title>Node2</title>
<g id="a_node2"><a xlink:href="../../df/d60/namespaceUtilTrigger.html#a36f02c79502113f6ce616ca486f2d8fe" target="_top" xlink:title="Convert a set of hodo IDs to a roadset ID.">
<polygon fill="none" stroke="black" points="213,-38.5 213,-57.5 342,-57.5 342,-38.5 213,-38.5"/>
<text text-anchor="middle" x="277.5" y="-45.5" font-family="FreeSans" font-size="10.00">UtilTrigger::Hodo2Road</text>
</a>
</g>
</g>
<!-- Node1&#45;&gt;Node2 -->
<g id="edge1" class="edge">
<title>Node1&#45;&gt;Node2</title>
<path fill="none" stroke="midnightblue" d="M177.25,-37.92C185.82,-38.79 194.45,-39.66 202.86,-40.52"/>
<polygon fill="midnightblue" stroke="midnightblue" points="202.68,-44.02 212.98,-41.55 203.39,-37.05 202.68,-44.02"/>
</g>
<!-- Node3 -->
<g id="node3" class="node">
<title>Node3</title>
<g id="a_node3"><a xlink:href="../../df/d60/namespaceUtilTrigger.html#a26c776dbd619458af7fa35b6faae6056" target="_top" xlink:title="Convert a roadset ID to a set of hodo IDs.">
<polygon fill="none" stroke="black" points="213,-0.5 213,-19.5 342,-19.5 342,-0.5 213,-0.5"/>
<text text-anchor="middle" x="277.5" y="-7.5" font-family="FreeSans" font-size="10.00">UtilTrigger::Road2Hodo</text>
</a>
</g>
</g>
<!-- Node1&#45;&gt;Node3 -->
<g id="edge2" class="edge">
<title>Node1&#45;&gt;Node3</title>
<path fill="none" stroke="midnightblue" d="M177.25,-20.08C185.82,-19.21 194.45,-18.34 202.86,-17.48"/>
<polygon fill="midnightblue" stroke="midnightblue" points="203.39,-20.95 212.98,-16.45 202.68,-13.98 203.39,-20.95"/>
</g>
</g>
</svg>
