<?xml version="1.0" encoding="UTF-8" standalone="no"?>
<!DOCTYPE svg PUBLIC "-//W3C//DTD SVG 1.1//EN"
 "http://www.w3.org/Graphics/SVG/1.1/DTD/svg11.dtd">
<!-- Generated by graphviz version 2.30.1 (20200930.0103)
 -->
<!-- Title: /dev/shm/kenichi/update&#45;github&#45;e1039&#45;doc/e1039&#45;core/framework/phool/PHFlag.h Pages: 1 -->
<svg width="4947pt" height="240pt"
 viewBox="0.00 0.00 4947.00 240.00" xmlns="http://www.w3.org/2000/svg" xmlns:xlink="http://www.w3.org/1999/xlink">
<g id="graph0" class="graph" transform="scale(1 1) rotate(0) translate(4 236)">
<title>/dev/shm/kenichi/update&#45;github&#45;e1039&#45;doc/e1039&#45;core/framework/phool/PHFlag.h</title>
<!-- Node1 -->
<g id="node1" class="node"><title>Node1</title>
<polygon fill="#bfbfbf" stroke="black" points="2263.5,-190.5 2263.5,-231.5 2418.5,-231.5 2418.5,-190.5 2263.5,-190.5"/>
<text text-anchor="start" x="2271.5" y="-219.5" font-family="FreeSans" font-size="10.00">/dev/shm/kenichi/update</text>
<text text-anchor="start" x="2271.5" y="-208.5" font-family="FreeSans" font-size="10.00">&#45;github&#45;e1039&#45;doc/e1039</text>
<text text-anchor="middle" x="2341" y="-197.5" font-family="FreeSans" font-size="10.00">&#45;core/framework/phool/PHFlag.h</text>
</g>
<!-- Node2 -->
<g id="node2" class="node"><title>Node2</title>
<g id="a_node2"><a xlink:href="../../d1/d32/FlagSavev1_8cc.html" target="_top" xlink:title="/dev/shm/kenichi/update\l&#45;github&#45;e1039&#45;doc/e1039\l&#45;core/framework/ffaobjects\l/FlagSavev1.cc">
<polygon fill="none" stroke="black" points="2112,-101 2112,-153 2242,-153 2242,-101 2112,-101"/>
<text text-anchor="start" x="2120" y="-141" font-family="FreeSans" font-size="10.00">/dev/shm/kenichi/update</text>
<text text-anchor="start" x="2120" y="-130" font-family="FreeSans" font-size="10.00">&#45;github&#45;e1039&#45;doc/e1039</text>
<text text-anchor="start" x="2120" y="-119" font-family="FreeSans" font-size="10.00">&#45;core/framework/ffaobjects</text>
<text text-anchor="middle" x="2177" y="-108" font-family="FreeSans" font-size="10.00">/FlagSavev1.cc</text>
</a>
</g>
</g>
<!-- Node1&#45;&gt;Node2 -->
<g id="edge1" class="edge"><title>Node1&#45;&gt;Node2</title>
<path fill="none" stroke="midnightblue" d="M2292.52,-185.76C2271.93,-175.464 2247.93,-163.464 2227.16,-153.078"/>
<polygon fill="midnightblue" stroke="midnightblue" points="2291.21,-189.017 2301.72,-190.359 2294.34,-182.756 2291.21,-189.017"/>
</g>
<!-- Node3 -->
<g id="node3" class="node"><title>Node3</title>
<g id="a_node3"><a xlink:href="../../d6/da7/PHFlag_8cc.html" target="_top" xlink:title="/dev/shm/kenichi/update\l&#45;github&#45;e1039&#45;doc/e1039\l&#45;core/framework/phool/PHFlag.cc">
<polygon fill="none" stroke="black" points="2260.5,-106.5 2260.5,-147.5 2421.5,-147.5 2421.5,-106.5 2260.5,-106.5"/>
<text text-anchor="start" x="2268.5" y="-135.5" font-family="FreeSans" font-size="10.00">/dev/shm/kenichi/update</text>
<text text-anchor="start" x="2268.5" y="-124.5" font-family="FreeSans" font-size="10.00">&#45;github&#45;e1039&#45;doc/e1039</text>
<text text-anchor="middle" x="2341" y="-113.5" font-family="FreeSans" font-size="10.00">&#45;core/framework/phool/PHFlag.cc</text>
</a>
</g>
</g>
<!-- Node1&#45;&gt;Node3 -->
<g id="edge2" class="edge"><title>Node1&#45;&gt;Node3</title>
<path fill="none" stroke="midnightblue" d="M2341,-179.881C2341,-169.133 2341,-157.309 2341,-147.667"/>
<polygon fill="midnightblue" stroke="midnightblue" points="2337.5,-180.15 2341,-190.15 2344.5,-180.15 2337.5,-180.15"/>
</g>
<!-- Node4 -->
<g id="node4" class="node"><title>Node4</title>
<g id="a_node4"><a xlink:href="../../d2/dcb/recoConsts_8h.html" target="_top" xlink:title="/dev/shm/kenichi/update\l&#45;github&#45;e1039&#45;doc/e1039\l&#45;core/framework/phool/recoConsts.h">
<polygon fill="none" stroke="black" points="2439.5,-106.5 2439.5,-147.5 2610.5,-147.5 2610.5,-106.5 2439.5,-106.5"/>
<text text-anchor="start" x="2447.5" y="-135.5" font-family="FreeSans" font-size="10.00">/dev/shm/kenichi/update</text>
<text text-anchor="start" x="2447.5" y="-124.5" font-family="FreeSans" font-size="10.00">&#45;github&#45;e1039&#45;doc/e1039</text>
<text text-anchor="middle" x="2525" y="-113.5" font-family="FreeSans" font-size="10.00">&#45;core/framework/phool/recoConsts.h</text>
</a>
</g>
</g>
<!-- Node1&#45;&gt;Node4 -->
<g id="edge3" class="edge"><title>Node1&#45;&gt;Node4</title>
<path fill="none" stroke="midnightblue" d="M2394.53,-186.144C2421.98,-173.909 2455.01,-159.19 2480.97,-147.623"/>
<polygon fill="midnightblue" stroke="midnightblue" points="2392.78,-183.091 2385.07,-190.359 2395.63,-189.485 2392.78,-183.091"/>
</g>
<!-- Node5 -->
<g id="node5" class="node"><title>Node5</title>
<g id="a_node5"><a xlink:href="../../d3/d53/Fun4AllDstInputManager_8cc.html" target="_top" xlink:title="/dev/shm/kenichi/update\l&#45;github&#45;e1039&#45;doc/e1039\l&#45;core/framework/fun4all\l/Fun4AllDstInputManager.cc">
<polygon fill="none" stroke="black" points="-0.5,-6 -0.5,-58 138.5,-58 138.5,-6 -0.5,-6"/>
<text text-anchor="start" x="7.5" y="-46" font-family="FreeSans" font-size="10.00">/dev/shm/kenichi/update</text>
<text text-anchor="start" x="7.5" y="-35" font-family="FreeSans" font-size="10.00">&#45;github&#45;e1039&#45;doc/e1039</text>
<text text-anchor="start" x="7.5" y="-24" font-family="FreeSans" font-size="10.00">&#45;core/framework/fun4all</text>
<text text-anchor="middle" x="69" y="-13" font-family="FreeSans" font-size="10.00">/Fun4AllDstInputManager.cc</text>
</a>
</g>
</g>
<!-- Node4&#45;&gt;Node5 -->
<g id="edge4" class="edge"><title>Node4&#45;&gt;Node5</title>
<path fill="none" stroke="midnightblue" d="M2452.5,-104.16C2444.95,-102.489 2437.36,-101.048 2430,-100 2178.95,-64.2475 396.788,-113.101 148,-64 140.628,-62.5451 133.058,-60.4395 125.662,-58.0003"/>
<polygon fill="midnightblue" stroke="midnightblue" points="2451.82,-107.597 2462.36,-106.475 2453.42,-100.782 2451.82,-107.597"/>
</g>
<!-- Node6 -->
<g id="node6" class="node"><title>Node6</title>
<g id="a_node6"><a xlink:href="../../dd/dec/Fun4AllDummyInputManager_8cc.html" target="_top" xlink:title="/dev/shm/kenichi/update\l&#45;github&#45;e1039&#45;doc/e1039\l&#45;core/framework/fun4all\l/Fun4AllDummyInputManager.cc">
<polygon fill="none" stroke="black" points="157,-6 157,-58 315,-58 315,-6 157,-6"/>
<text text-anchor="start" x="165" y="-46" font-family="FreeSans" font-size="10.00">/dev/shm/kenichi/update</text>
<text text-anchor="start" x="165" y="-35" font-family="FreeSans" font-size="10.00">&#45;github&#45;e1039&#45;doc/e1039</text>
<text text-anchor="start" x="165" y="-24" font-family="FreeSans" font-size="10.00">&#45;core/framework/fun4all</text>
<text text-anchor="middle" x="236" y="-13" font-family="FreeSans" font-size="10.00">/Fun4AllDummyInputManager.cc</text>
</a>
</g>
</g>
<!-- Node4&#45;&gt;Node6 -->
<g id="edge5" class="edge"><title>Node4&#45;&gt;Node6</title>
<path fill="none" stroke="midnightblue" d="M2452.5,-104.17C2444.95,-102.497 2437.36,-101.053 2430,-100 1966.65,-33.703 784.681,-146.829 324,-64 316.029,-62.5668 307.814,-60.5109 299.756,-58.1302"/>
<polygon fill="midnightblue" stroke="midnightblue" points="2451.82,-107.606 2462.36,-106.487 2453.42,-100.792 2451.82,-107.606"/>
</g>
<!-- Node7 -->
<g id="node7" class="node"><title>Node7</title>
<g id="a_node7"><a xlink:href="../../df/d24/Fun4AllHistoManager_8cc.html" target="_top" xlink:title="/dev/shm/kenichi/update\l&#45;github&#45;e1039&#45;doc/e1039\l&#45;core/framework/fun4all\l/Fun4AllHistoManager.cc">
<polygon fill="none" stroke="black" points="333.5,-6 333.5,-58 458.5,-58 458.5,-6 333.5,-6"/>
<text text-anchor="start" x="341.5" y="-46" font-family="FreeSans" font-size="10.00">/dev/shm/kenichi/update</text>
<text text-anchor="start" x="341.5" y="-35" font-family="FreeSans" font-size="10.00">&#45;github&#45;e1039&#45;doc/e1039</text>
<text text-anchor="start" x="341.5" y="-24" font-family="FreeSans" font-size="10.00">&#45;core/framework/fun4all</text>
<text text-anchor="middle" x="396" y="-13" font-family="FreeSans" font-size="10.00">/Fun4AllHistoManager.cc</text>
</a>
</g>
</g>
<!-- Node4&#45;&gt;Node7 -->
<g id="edge6" class="edge"><title>Node4&#45;&gt;Node7</title>
<path fill="none" stroke="midnightblue" d="M2452.49,-104.179C2444.95,-102.505 2437.36,-101.057 2430,-100 2214.07,-68.9672 680.125,-110.542 467,-64 460.43,-62.5652 453.718,-60.5083 447.17,-58.1271"/>
<polygon fill="midnightblue" stroke="midnightblue" points="2451.82,-107.616 2462.35,-106.498 2453.42,-100.802 2451.82,-107.616"/>
</g>
<!-- Node8 -->
<g id="node8" class="node"><title>Node8</title>
<g id="a_node8"><a xlink:href="../../da/d7b/Fun4AllPrdfInputManager_8cc.html" target="_top" xlink:title="/dev/shm/kenichi/update\l&#45;github&#45;e1039&#45;doc/e1039\l&#45;core/framework/fun4all\l/Fun4AllPrdfInputManager.cc">
<polygon fill="none" stroke="black" points="476.5,-6 476.5,-58 619.5,-58 619.5,-6 476.5,-6"/>
<text text-anchor="start" x="484.5" y="-46" font-family="FreeSans" font-size="10.00">/dev/shm/kenichi/update</text>
<text text-anchor="start" x="484.5" y="-35" font-family="FreeSans" font-size="10.00">&#45;github&#45;e1039&#45;doc/e1039</text>
<text text-anchor="start" x="484.5" y="-24" font-family="FreeSans" font-size="10.00">&#45;core/framework/fun4all</text>
<text text-anchor="middle" x="548" y="-13" font-family="FreeSans" font-size="10.00">/Fun4AllPrdfInputManager.cc</text>
</a>
</g>
</g>
<!-- Node4&#45;&gt;Node8 -->
<g id="edge7" class="edge"><title>Node4&#45;&gt;Node8</title>
<path fill="none" stroke="midnightblue" d="M2452.31,-104.152C2444.83,-102.491 2437.3,-101.055 2430,-100 2033.82,-42.7281 1021.89,-140.682 629,-64 621.611,-62.5578 614.018,-60.4964 606.583,-58.1127"/>
<polygon fill="midnightblue" stroke="midnightblue" points="2451.56,-107.57 2462.09,-106.45 2453.16,-100.756 2451.56,-107.57"/>
</g>
<!-- Node9 -->
<g id="node9" class="node"><title>Node9</title>
<g id="a_node9"><a xlink:href="../../d8/d3b/Fun4AllPrdfOutputManager_8cc.html" target="_top" xlink:title="/dev/shm/kenichi/update\l&#45;github&#45;e1039&#45;doc/e1039\l&#45;core/framework/fun4all\l/Fun4AllPrdfOutputManager.cc">
<polygon fill="none" stroke="black" points="638,-6 638,-58 788,-58 788,-6 638,-6"/>
<text text-anchor="start" x="646" y="-46" font-family="FreeSans" font-size="10.00">/dev/shm/kenichi/update</text>
<text text-anchor="start" x="646" y="-35" font-family="FreeSans" font-size="10.00">&#45;github&#45;e1039&#45;doc/e1039</text>
<text text-anchor="start" x="646" y="-24" font-family="FreeSans" font-size="10.00">&#45;core/framework/fun4all</text>
<text text-anchor="middle" x="713" y="-13" font-family="FreeSans" font-size="10.00">/Fun4AllPrdfOutputManager.cc</text>
</a>
</g>
</g>
<!-- Node4&#45;&gt;Node9 -->
<g id="edge8" class="edge"><title>Node4&#45;&gt;Node9</title>
<path fill="none" stroke="midnightblue" d="M2452.31,-104.167C2444.83,-102.504 2437.29,-101.062 2430,-100 2070.81,-47.6991 1153.6,-131.764 797,-64 789.364,-62.549 781.507,-60.4822 773.806,-58.0956"/>
<polygon fill="midnightblue" stroke="midnightblue" points="2451.56,-107.586 2462.09,-106.468 2453.16,-100.772 2451.56,-107.586"/>
</g>
<!-- Node10 -->
<g id="node10" class="node"><title>Node10</title>
<g id="a_node10"><a xlink:href="../../d8/d7a/Fun4AllServer_8cc.html" target="_top" xlink:title="/dev/shm/kenichi/update\l&#45;github&#45;e1039&#45;doc/e1039\l&#45;core/framework/fun4all\l/Fun4AllServer.cc">
<polygon fill="none" stroke="black" points="806.5,-6 806.5,-58 929.5,-58 929.5,-6 806.5,-6"/>
<text text-anchor="start" x="814.5" y="-46" font-family="FreeSans" font-size="10.00">/dev/shm/kenichi/update</text>
<text text-anchor="start" x="814.5" y="-35" font-family="FreeSans" font-size="10.00">&#45;github&#45;e1039&#45;doc/e1039</text>
<text text-anchor="start" x="814.5" y="-24" font-family="FreeSans" font-size="10.00">&#45;core/framework/fun4all</text>
<text text-anchor="middle" x="868" y="-13" font-family="FreeSans" font-size="10.00">/Fun4AllServer.cc</text>
</a>
</g>
</g>
<!-- Node4&#45;&gt;Node10 -->
<g id="edge9" class="edge"><title>Node4&#45;&gt;Node10</title>
<path fill="none" stroke="midnightblue" d="M2452.31,-104.183C2444.82,-102.517 2437.29,-101.07 2430,-100 2101.86,-51.871 1261.62,-136.542 938,-64 931.515,-62.5464 924.893,-60.4781 918.435,-58.0906"/>
<polygon fill="midnightblue" stroke="midnightblue" points="2451.55,-107.601 2462.09,-106.487 2453.16,-100.788 2451.55,-107.601"/>
</g>
<!-- Node11 -->
<g id="node11" class="node"><title>Node11</title>
<g id="a_node11"><a xlink:href="../../df/d03/Fun4AllSyncManager_8cc.html" target="_top" xlink:title="/dev/shm/kenichi/update\l&#45;github&#45;e1039&#45;doc/e1039\l&#45;core/framework/fun4all\l/Fun4AllSyncManager.cc">
<polygon fill="none" stroke="black" points="947.5,-6 947.5,-58 1072.5,-58 1072.5,-6 947.5,-6"/>
<text text-anchor="start" x="955.5" y="-46" font-family="FreeSans" font-size="10.00">/dev/shm/kenichi/update</text>
<text text-anchor="start" x="955.5" y="-35" font-family="FreeSans" font-size="10.00">&#45;github&#45;e1039&#45;doc/e1039</text>
<text text-anchor="start" x="955.5" y="-24" font-family="FreeSans" font-size="10.00">&#45;core/framework/fun4all</text>
<text text-anchor="middle" x="1010" y="-13" font-family="FreeSans" font-size="10.00">/Fun4AllSyncManager.cc</text>
</a>
</g>
</g>
<!-- Node4&#45;&gt;Node11 -->
<g id="edge10" class="edge"><title>Node4&#45;&gt;Node11</title>
<path fill="none" stroke="midnightblue" d="M2451.87,-104.106C2444.53,-102.476 2437.15,-101.058 2430,-100 2133.57,-56.1315 1374.66,-128.41 1082,-64 1075.35,-62.5374 1068.56,-60.4635 1061.92,-58.073"/>
<polygon fill="midnightblue" stroke="midnightblue" points="2451.29,-107.566 2461.83,-106.447 2452.9,-100.751 2451.29,-107.566"/>
</g>
<!-- Node12 -->
<g id="node12" class="node"><title>Node12</title>
<g id="a_node12"><a xlink:href="../../d4/d30/PHRandomSeed_8cc.html" target="_top" xlink:title="/dev/shm/kenichi/update\l&#45;github&#45;e1039&#45;doc/e1039\l&#45;core/framework/phool/PHRandomSeed.cc">
<polygon fill="none" stroke="black" points="1091,-11.5 1091,-52.5 1291,-52.5 1291,-11.5 1091,-11.5"/>
<text text-anchor="start" x="1099" y="-40.5" font-family="FreeSans" font-size="10.00">/dev/shm/kenichi/update</text>
<text text-anchor="start" x="1099" y="-29.5" font-family="FreeSans" font-size="10.00">&#45;github&#45;e1039&#45;doc/e1039</text>
<text text-anchor="middle" x="1191" y="-18.5" font-family="FreeSans" font-size="10.00">&#45;core/framework/phool/PHRandomSeed.cc</text>
</a>
</g>
</g>
<!-- Node4&#45;&gt;Node12 -->
<g id="edge11" class="edge"><title>Node4&#45;&gt;Node12</title>
<path fill="none" stroke="midnightblue" d="M2451.87,-104.145C2444.53,-102.507 2437.15,-101.077 2430,-100 1933.13,-25.1616 1796.49,-141.308 1300,-64 1283.48,-61.4271 1265.91,-57.1452 1249.81,-52.5728"/>
<polygon fill="midnightblue" stroke="midnightblue" points="2451.29,-107.604 2461.82,-106.493 2452.89,-100.791 2451.29,-107.604"/>
</g>
<!-- Node13 -->
<g id="node13" class="node"><title>Node13</title>
<g id="a_node13"><a xlink:href="../../d7/df1/recoConsts_8cc.html" target="_top" xlink:title="/dev/shm/kenichi/update\l&#45;github&#45;e1039&#45;doc/e1039\l&#45;core/framework/phool/recoConsts.cc">
<polygon fill="none" stroke="black" points="1309,-11.5 1309,-52.5 1485,-52.5 1485,-11.5 1309,-11.5"/>
<text text-anchor="start" x="1317" y="-40.5" font-family="FreeSans" font-size="10.00">/dev/shm/kenichi/update</text>
<text text-anchor="start" x="1317" y="-29.5" font-family="FreeSans" font-size="10.00">&#45;github&#45;e1039&#45;doc/e1039</text>
<text text-anchor="middle" x="1397" y="-18.5" font-family="FreeSans" font-size="10.00">&#45;core/framework/phool/recoConsts.cc</text>
</a>
</g>
</g>
<!-- Node4&#45;&gt;Node13 -->
<g id="edge12" class="edge"><title>Node4&#45;&gt;Node13</title>
<path fill="none" stroke="midnightblue" d="M2451.68,-104.154C2444.4,-102.523 2437.09,-101.091 2430,-100 2018.54,-36.6385 1904.03,-136.026 1494,-64 1479.2,-61.4001 1463.53,-57.1091 1449.21,-52.5366"/>
<polygon fill="midnightblue" stroke="midnightblue" points="2451.02,-107.594 2461.56,-106.489 2452.63,-100.782 2451.02,-107.594"/>
</g>
<!-- Node14 -->
<g id="node14" class="node"><title>Node14</title>
<g id="a_node14"><a xlink:href="../../d4/d0c/Fun4AllHepMCInputManager_8cc.html" target="_top" xlink:title="/dev/shm/kenichi/update\l&#45;github&#45;e1039&#45;doc/e1039\l&#45;core/generators/phhepmc\l/Fun4AllHepMCInputManager.cc">
<polygon fill="none" stroke="black" points="1503.5,-6 1503.5,-58 1660.5,-58 1660.5,-6 1503.5,-6"/>
<text text-anchor="start" x="1511.5" y="-46" font-family="FreeSans" font-size="10.00">/dev/shm/kenichi/update</text>
<text text-anchor="start" x="1511.5" y="-35" font-family="FreeSans" font-size="10.00">&#45;github&#45;e1039&#45;doc/e1039</text>
<text text-anchor="start" x="1511.5" y="-24" font-family="FreeSans" font-size="10.00">&#45;core/generators/phhepmc</text>
<text text-anchor="middle" x="1582" y="-13" font-family="FreeSans" font-size="10.00">/Fun4AllHepMCInputManager.cc</text>
</a>
</g>
</g>
<!-- Node4&#45;&gt;Node14 -->
<g id="edge13" class="edge"><title>Node4&#45;&gt;Node14</title>
<path fill="none" stroke="midnightblue" d="M2450.82,-104.03C2443.83,-102.464 2436.81,-101.079 2430,-100 2096.02,-47.0478 2001.88,-128.865 1670,-64 1662.21,-62.4775 1654.18,-60.4021 1646.28,-58.0413"/>
<polygon fill="midnightblue" stroke="midnightblue" points="2450.49,-107.548 2461.03,-106.44 2452.1,-100.735 2450.49,-107.548"/>
</g>
<!-- Node15 -->
<g id="node15" class="node"><title>Node15</title>
<g id="a_node15"><a xlink:href="../../d6/dde/Fun4AllHepMCPileupInputManager_8cc.html" target="_top" xlink:title="/dev/shm/kenichi/update\l&#45;github&#45;e1039&#45;doc/e1039\l&#45;core/generators/phhepmc\l/Fun4AllHepMCPileupInputManager.cc">
<polygon fill="none" stroke="black" points="1679,-6 1679,-58 1863,-58 1863,-6 1679,-6"/>
<text text-anchor="start" x="1687" y="-46" font-family="FreeSans" font-size="10.00">/dev/shm/kenichi/update</text>
<text text-anchor="start" x="1687" y="-35" font-family="FreeSans" font-size="10.00">&#45;github&#45;e1039&#45;doc/e1039</text>
<text text-anchor="start" x="1687" y="-24" font-family="FreeSans" font-size="10.00">&#45;core/generators/phhepmc</text>
<text text-anchor="middle" x="1771" y="-13" font-family="FreeSans" font-size="10.00">/Fun4AllHepMCPileupInputManager.cc</text>
</a>
</g>
</g>
<!-- Node4&#45;&gt;Node15 -->
<g id="edge14" class="edge"><title>Node4&#45;&gt;Node15</title>
<path fill="none" stroke="midnightblue" d="M2450.45,-104.074C2443.58,-102.514 2436.69,-101.119 2430,-100 2184.89,-58.9884 2116.45,-108.764 1872,-64 1863.43,-62.4307 1854.56,-60.3764 1845.8,-58.0713"/>
<polygon fill="midnightblue" stroke="midnightblue" points="2449.95,-107.552 2460.49,-106.464 2451.57,-100.743 2449.95,-107.552"/>
</g>
<!-- Node16 -->
<g id="node16" class="node"><title>Node16</title>
<g id="a_node16"><a xlink:href="../../db/dbe/Fun4AllOscarInputManager_8cc.html" target="_top" xlink:title="/dev/shm/kenichi/update\l&#45;github&#45;e1039&#45;doc/e1039\l&#45;core/generators/phhepmc\l/Fun4AllOscarInputManager.cc">
<polygon fill="none" stroke="black" points="1881,-6 1881,-58 2031,-58 2031,-6 1881,-6"/>
<text text-anchor="start" x="1889" y="-46" font-family="FreeSans" font-size="10.00">/dev/shm/kenichi/update</text>
<text text-anchor="start" x="1889" y="-35" font-family="FreeSans" font-size="10.00">&#45;github&#45;e1039&#45;doc/e1039</text>
<text text-anchor="start" x="1889" y="-24" font-family="FreeSans" font-size="10.00">&#45;core/generators/phhepmc</text>
<text text-anchor="middle" x="1956" y="-13" font-family="FreeSans" font-size="10.00">/Fun4AllOscarInputManager.cc</text>
</a>
</g>
</g>
<!-- Node4&#45;&gt;Node16 -->
<g id="edge15" class="edge"><title>Node4&#45;&gt;Node16</title>
<path fill="none" stroke="midnightblue" d="M2449.26,-104.002C2442.78,-102.506 2436.29,-101.143 2430,-100 2258.73,-68.9057 2209.77,-102.462 2040,-64 2032.87,-62.3857 2025.53,-60.3192 2018.3,-58.0211"/>
<polygon fill="midnightblue" stroke="midnightblue" points="2448.87,-107.51 2459.42,-106.449 2450.51,-100.705 2448.87,-107.51"/>
</g>
<!-- Node17 -->
<g id="node17" class="node"><title>Node17</title>
<g id="a_node17"><a xlink:href="../../d0/d16/PHHepMCParticleSelectorDecayProductChain_8cc.html" target="_top" xlink:title="/dev/shm/kenichi/update\l&#45;github&#45;e1039&#45;doc/e1039\l&#45;core/generators/phhepmc\l/PHHepMCParticleSelectorDecayProduct\lChain.cc">
<polygon fill="none" stroke="black" points="2049.5,-0.5 2049.5,-63.5 2244.5,-63.5 2244.5,-0.5 2049.5,-0.5"/>
<text text-anchor="start" x="2057.5" y="-51.5" font-family="FreeSans" font-size="10.00">/dev/shm/kenichi/update</text>
<text text-anchor="start" x="2057.5" y="-40.5" font-family="FreeSans" font-size="10.00">&#45;github&#45;e1039&#45;doc/e1039</text>
<text text-anchor="start" x="2057.5" y="-29.5" font-family="FreeSans" font-size="10.00">&#45;core/generators/phhepmc</text>
<text text-anchor="start" x="2057.5" y="-18.5" font-family="FreeSans" font-size="10.00">/PHHepMCParticleSelectorDecayProduct</text>
<text text-anchor="middle" x="2147" y="-7.5" font-family="FreeSans" font-size="10.00">Chain.cc</text>
</a>
</g>
</g>
<!-- Node4&#45;&gt;Node17 -->
<g id="edge16" class="edge"><title>Node4&#45;&gt;Node17</title>
<path fill="none" stroke="midnightblue" d="M2445.92,-103.938C2440.54,-102.567 2435.2,-101.241 2430,-100 2352.34,-81.4519 2331.52,-83.1244 2254,-64 2250.9,-63.2356 2247.76,-62.441 2244.59,-61.6232"/>
<polygon fill="midnightblue" stroke="midnightblue" points="2445.05,-107.329 2455.61,-106.446 2446.81,-100.552 2445.05,-107.329"/>
</g>
<!-- Node18 -->
<g id="node18" class="node"><title>Node18</title>
<g id="a_node18"><a xlink:href="../../de/d00/Fun4AllEVIOInputManager_8cc.html" target="_top" xlink:title="/dev/shm/kenichi/update\l&#45;github&#45;e1039&#45;doc/e1039\l&#45;core/online/decoder_maindaq\l/Fun4AllEVIOInputManager.cc">
<polygon fill="none" stroke="black" points="2262.5,-6 2262.5,-58 2409.5,-58 2409.5,-6 2262.5,-6"/>
<text text-anchor="start" x="2270.5" y="-46" font-family="FreeSans" font-size="10.00">/dev/shm/kenichi/update</text>
<text text-anchor="start" x="2270.5" y="-35" font-family="FreeSans" font-size="10.00">&#45;github&#45;e1039&#45;doc/e1039</text>
<text text-anchor="start" x="2270.5" y="-24" font-family="FreeSans" font-size="10.00">&#45;core/online/decoder_maindaq</text>
<text text-anchor="middle" x="2336" y="-13" font-family="FreeSans" font-size="10.00">/Fun4AllEVIOInputManager.cc</text>
</a>
</g>
</g>
<!-- Node4&#45;&gt;Node18 -->
<g id="edge17" class="edge"><title>Node4&#45;&gt;Node18</title>
<path fill="none" stroke="midnightblue" d="M2475.91,-101.844C2448.53,-88.3731 2414.49,-71.6205 2386.83,-58.014"/>
<polygon fill="midnightblue" stroke="midnightblue" points="2474.4,-105.002 2484.92,-106.277 2477.49,-98.7216 2474.4,-105.002"/>
</g>
<!-- Node19 -->
<g id="node19" class="node"><title>Node19</title>
<g id="a_node19"><a xlink:href="../../d1/d51/PHFieldUtility_8cc.html" target="_top" xlink:title="/dev/shm/kenichi/update\l&#45;github&#45;e1039&#45;doc/e1039\l&#45;core/packages/PHField/PHFieldUtility.cc">
<polygon fill="none" stroke="black" points="2428,-11.5 2428,-52.5 2622,-52.5 2622,-11.5 2428,-11.5"/>
<text text-anchor="start" x="2436" y="-40.5" font-family="FreeSans" font-size="10.00">/dev/shm/kenichi/update</text>
<text text-anchor="start" x="2436" y="-29.5" font-family="FreeSans" font-size="10.00">&#45;github&#45;e1039&#45;doc/e1039</text>
<text text-anchor="middle" x="2525" y="-18.5" font-family="FreeSans" font-size="10.00">&#45;core/packages/PHField/PHFieldUtility.cc</text>
</a>
</g>
</g>
<!-- Node4&#45;&gt;Node19 -->
<g id="edge18" class="edge"><title>Node4&#45;&gt;Node19</title>
<path fill="none" stroke="midnightblue" d="M2525,-95.9916C2525,-81.8048 2525,-65.2651 2525,-52.6945"/>
<polygon fill="midnightblue" stroke="midnightblue" points="2521.5,-96.2771 2525,-106.277 2528.5,-96.2771 2521.5,-96.2771"/>
</g>
<!-- Node20 -->
<g id="node20" class="node"><title>Node20</title>
<g id="a_node20"><a xlink:href="../../d6/d91/PHGeomUtility_8cc.html" target="_top" xlink:title="/dev/shm/kenichi/update\l&#45;github&#45;e1039&#45;doc/e1039\l&#45;core/packages/PHGeometry\l/PHGeomUtility.cc">
<polygon fill="none" stroke="black" points="2640.5,-6 2640.5,-58 2781.5,-58 2781.5,-6 2640.5,-6"/>
<text text-anchor="start" x="2648.5" y="-46" font-family="FreeSans" font-size="10.00">/dev/shm/kenichi/update</text>
<text text-anchor="start" x="2648.5" y="-35" font-family="FreeSans" font-size="10.00">&#45;github&#45;e1039&#45;doc/e1039</text>
<text text-anchor="start" x="2648.5" y="-24" font-family="FreeSans" font-size="10.00">&#45;core/packages/PHGeometry</text>
<text text-anchor="middle" x="2711" y="-13" font-family="FreeSans" font-size="10.00">/PHGeomUtility.cc</text>
</a>
</g>
</g>
<!-- Node4&#45;&gt;Node20 -->
<g id="edge19" class="edge"><title>Node4&#45;&gt;Node20</title>
<path fill="none" stroke="midnightblue" d="M2573.66,-101.668C2600.54,-88.2275 2633.88,-71.5614 2660.97,-58.014"/>
<polygon fill="midnightblue" stroke="midnightblue" points="2571.82,-98.6744 2564.45,-106.277 2574.96,-104.935 2571.82,-98.6744"/>
</g>
<!-- Node21 -->
<g id="node21" class="node"><title>Node21</title>
<g id="a_node21"><a xlink:href="../../d0/d06/FastTracklet_8cxx.html" target="_top" xlink:title="/dev/shm/kenichi/update\l&#45;github&#45;e1039&#45;doc/e1039\l&#45;core/packages/reco/interface\l/FastTracklet.cxx">
<polygon fill="none" stroke="black" points="2799.5,-6 2799.5,-58 2944.5,-58 2944.5,-6 2799.5,-6"/>
<text text-anchor="start" x="2807.5" y="-46" font-family="FreeSans" font-size="10.00">/dev/shm/kenichi/update</text>
<text text-anchor="start" x="2807.5" y="-35" font-family="FreeSans" font-size="10.00">&#45;github&#45;e1039&#45;doc/e1039</text>
<text text-anchor="start" x="2807.5" y="-24" font-family="FreeSans" font-size="10.00">&#45;core/packages/reco/interface</text>
<text text-anchor="middle" x="2872" y="-13" font-family="FreeSans" font-size="10.00">/FastTracklet.cxx</text>
</a>
</g>
</g>
<!-- Node4&#45;&gt;Node21 -->
<g id="edge20" class="edge"><title>Node4&#45;&gt;Node21</title>
<path fill="none" stroke="midnightblue" d="M2620.77,-106.782C2671.49,-95.8035 2734.6,-80.874 2790,-64 2795.97,-62.182 2802.13,-60.1512 2808.27,-58.0223"/>
<polygon fill="midnightblue" stroke="midnightblue" points="2619.83,-103.402 2610.79,-108.924 2621.3,-110.246 2619.83,-103.402"/>
</g>
<!-- Node22 -->
<g id="node22" class="node"><title>Node22</title>
<g id="a_node22"><a xlink:href="../../d7/d57/SRecEvent_8cxx.html" target="_top" xlink:title="/dev/shm/kenichi/update\l&#45;github&#45;e1039&#45;doc/e1039\l&#45;core/packages/reco/interface\l/SRecEvent.cxx">
<polygon fill="none" stroke="black" points="2962.5,-6 2962.5,-58 3107.5,-58 3107.5,-6 2962.5,-6"/>
<text text-anchor="start" x="2970.5" y="-46" font-family="FreeSans" font-size="10.00">/dev/shm/kenichi/update</text>
<text text-anchor="start" x="2970.5" y="-35" font-family="FreeSans" font-size="10.00">&#45;github&#45;e1039&#45;doc/e1039</text>
<text text-anchor="start" x="2970.5" y="-24" font-family="FreeSans" font-size="10.00">&#45;core/packages/reco/interface</text>
<text text-anchor="middle" x="3035" y="-13" font-family="FreeSans" font-size="10.00">/SRecEvent.cxx</text>
</a>
</g>
</g>
<!-- Node4&#45;&gt;Node22 -->
<g id="edge21" class="edge"><title>Node4&#45;&gt;Node22</title>
<path fill="none" stroke="midnightblue" d="M2620.72,-118.145C2708.24,-109.552 2840.76,-92.9755 2953,-64 2959.48,-62.3261 2966.16,-60.3118 2972.77,-58.1236"/>
<polygon fill="midnightblue" stroke="midnightblue" points="2620.15,-114.683 2610.53,-119.129 2620.83,-121.651 2620.15,-114.683"/>
</g>
<!-- Node23 -->
<g id="node23" class="node"><title>Node23</title>
<g id="a_node23"><a xlink:href="../../d5/dc7/Fun4AllSRawEventInputManager_8cxx.html" target="_top" xlink:title="/dev/shm/kenichi/update\l&#45;github&#45;e1039&#45;doc/e1039\l&#45;core/packages/reco/ktracker\l/Fun4AllSRawEventInputManager.cxx">
<polygon fill="none" stroke="black" points="3126,-6 3126,-58 3304,-58 3304,-6 3126,-6"/>
<text text-anchor="start" x="3134" y="-46" font-family="FreeSans" font-size="10.00">/dev/shm/kenichi/update</text>
<text text-anchor="start" x="3134" y="-35" font-family="FreeSans" font-size="10.00">&#45;github&#45;e1039&#45;doc/e1039</text>
<text text-anchor="start" x="3134" y="-24" font-family="FreeSans" font-size="10.00">&#45;core/packages/reco/ktracker</text>
<text text-anchor="middle" x="3215" y="-13" font-family="FreeSans" font-size="10.00">/Fun4AllSRawEventInputManager.cxx</text>
</a>
</g>
</g>
<!-- Node4&#45;&gt;Node23 -->
<g id="edge22" class="edge"><title>Node4&#45;&gt;Node23</title>
<path fill="none" stroke="midnightblue" d="M2621.03,-121.8C2738.71,-115.31 2943.72,-99.6401 3116,-64 3124.02,-62.3399 3132.32,-60.2906 3140.55,-58.043"/>
<polygon fill="midnightblue" stroke="midnightblue" points="2620.76,-118.309 2610.97,-122.344 2621.14,-125.299 2620.76,-118.309"/>
</g>
<!-- Node24 -->
<g id="node24" class="node"><title>Node24</title>
<g id="a_node24"><a xlink:href="../../d0/d98/SQReco_8cxx.html" target="_top" xlink:title="/dev/shm/kenichi/update\l&#45;github&#45;e1039&#45;doc/e1039\l&#45;core/packages/reco/ktracker\l/SQReco.cxx">
<polygon fill="none" stroke="black" points="3322.5,-6 3322.5,-58 3465.5,-58 3465.5,-6 3322.5,-6"/>
<text text-anchor="start" x="3330.5" y="-46" font-family="FreeSans" font-size="10.00">/dev/shm/kenichi/update</text>
<text text-anchor="start" x="3330.5" y="-35" font-family="FreeSans" font-size="10.00">&#45;github&#45;e1039&#45;doc/e1039</text>
<text text-anchor="start" x="3330.5" y="-24" font-family="FreeSans" font-size="10.00">&#45;core/packages/reco/ktracker</text>
<text text-anchor="middle" x="3394" y="-13" font-family="FreeSans" font-size="10.00">/SQReco.cxx</text>
</a>
</g>
</g>
<!-- Node4&#45;&gt;Node24 -->
<g id="edge23" class="edge"><title>Node4&#45;&gt;Node24</title>
<path fill="none" stroke="midnightblue" d="M2620.59,-121.91C2800.66,-113.638 3183.68,-93.1935 3313,-64 3319.9,-62.4417 3327,-60.4106 3333.99,-58.133"/>
<polygon fill="midnightblue" stroke="midnightblue" points="2620.43,-118.414 2610.6,-122.366 2620.75,-125.406 2620.43,-118.414"/>
</g>
<!-- Node25 -->
<g id="node25" class="node"><title>Node25</title>
<g id="a_node25"><a xlink:href="../../db/df0/VertexFit_8cxx.html" target="_top" xlink:title="/dev/shm/kenichi/update\l&#45;github&#45;e1039&#45;doc/e1039\l&#45;core/packages/reco/ktracker\l/VertexFit.cxx">
<polygon fill="none" stroke="black" points="3483.5,-6 3483.5,-58 3626.5,-58 3626.5,-6 3483.5,-6"/>
<text text-anchor="start" x="3491.5" y="-46" font-family="FreeSans" font-size="10.00">/dev/shm/kenichi/update</text>
<text text-anchor="start" x="3491.5" y="-35" font-family="FreeSans" font-size="10.00">&#45;github&#45;e1039&#45;doc/e1039</text>
<text text-anchor="start" x="3491.5" y="-24" font-family="FreeSans" font-size="10.00">&#45;core/packages/reco/ktracker</text>
<text text-anchor="middle" x="3555" y="-13" font-family="FreeSans" font-size="10.00">/VertexFit.cxx</text>
</a>
</g>
</g>
<!-- Node4&#45;&gt;Node25 -->
<g id="edge24" class="edge"><title>Node4&#45;&gt;Node25</title>
<path fill="none" stroke="midnightblue" d="M2620.89,-123.383C2828.41,-117.124 3313.4,-99.1344 3474,-64 3481.06,-62.4554 3488.32,-60.4001 3495.46,-58.0801"/>
<polygon fill="midnightblue" stroke="midnightblue" points="2620.51,-119.892 2610.62,-123.689 2620.72,-126.889 2620.51,-119.892"/>
</g>
<!-- Node26 -->
<g id="node26" class="node"><title>Node26</title>
<g id="a_node26"><a xlink:href="../../db/d86/test__minimum_8cxx.html" target="_top" xlink:title="/dev/shm/kenichi/update\l&#45;github&#45;e1039&#45;doc/e1039\l&#45;core/packages/reco/SQGenFit\l/test/test_minimum.cxx">
<polygon fill="none" stroke="black" points="3644.5,-6 3644.5,-58 3795.5,-58 3795.5,-6 3644.5,-6"/>
<text text-anchor="start" x="3652.5" y="-46" font-family="FreeSans" font-size="10.00">/dev/shm/kenichi/update</text>
<text text-anchor="start" x="3652.5" y="-35" font-family="FreeSans" font-size="10.00">&#45;github&#45;e1039&#45;doc/e1039</text>
<text text-anchor="start" x="3652.5" y="-24" font-family="FreeSans" font-size="10.00">&#45;core/packages/reco/SQGenFit</text>
<text text-anchor="middle" x="3720" y="-13" font-family="FreeSans" font-size="10.00">/test/test_minimum.cxx</text>
</a>
</g>
</g>
<!-- Node4&#45;&gt;Node26 -->
<g id="edge25" class="edge"><title>Node4&#45;&gt;Node26</title>
<path fill="none" stroke="midnightblue" d="M2620.87,-124.252C2853.41,-119.433 3442.43,-103.589 3635,-64 3642.39,-62.4817 3649.99,-60.443 3657.47,-58.1323"/>
<polygon fill="midnightblue" stroke="midnightblue" points="2620.67,-120.756 2610.74,-124.46 2620.81,-127.754 2620.67,-120.756"/>
</g>
<!-- Node27 -->
<g id="node27" class="node"><title>Node27</title>
<g id="a_node27"><a xlink:href="../../d2/d09/HepMCNodeReader_8cc.html" target="_top" xlink:title="/dev/shm/kenichi/update\l&#45;github&#45;e1039&#45;doc/e1039\l&#45;core/simulation/g4main\l/HepMCNodeReader.cc">
<polygon fill="none" stroke="black" points="3813.5,-6 3813.5,-58 3936.5,-58 3936.5,-6 3813.5,-6"/>
<text text-anchor="start" x="3821.5" y="-46" font-family="FreeSans" font-size="10.00">/dev/shm/kenichi/update</text>
<text text-anchor="start" x="3821.5" y="-35" font-family="FreeSans" font-size="10.00">&#45;github&#45;e1039&#45;doc/e1039</text>
<text text-anchor="start" x="3821.5" y="-24" font-family="FreeSans" font-size="10.00">&#45;core/simulation/g4main</text>
<text text-anchor="middle" x="3875" y="-13" font-family="FreeSans" font-size="10.00">/HepMCNodeReader.cc</text>
</a>
</g>
</g>
<!-- Node4&#45;&gt;Node27 -->
<g id="edge26" class="edge"><title>Node4&#45;&gt;Node27</title>
<path fill="none" stroke="midnightblue" d="M2620.77,-125.832C2877.94,-124.669 3579.32,-116.62 3804,-64 3810.42,-62.4972 3816.98,-60.4339 3823.39,-58.0798"/>
<polygon fill="midnightblue" stroke="midnightblue" points="2620.68,-122.332 2610.7,-125.875 2620.71,-129.332 2620.68,-122.332"/>
</g>
<!-- Node28 -->
<g id="node28" class="node"><title>Node28</title>
<g id="a_node28"><a xlink:href="../../d4/d94/PHG4ParticleGeneratorBase_8cc.html" target="_top" xlink:title="/dev/shm/kenichi/update\l&#45;github&#45;e1039&#45;doc/e1039\l&#45;core/simulation/g4main\l/PHG4ParticleGeneratorBase.cc">
<polygon fill="none" stroke="black" points="3955,-6 3955,-58 4111,-58 4111,-6 3955,-6"/>
<text text-anchor="start" x="3963" y="-46" font-family="FreeSans" font-size="10.00">/dev/shm/kenichi/update</text>
<text text-anchor="start" x="3963" y="-35" font-family="FreeSans" font-size="10.00">&#45;github&#45;e1039&#45;doc/e1039</text>
<text text-anchor="start" x="3963" y="-24" font-family="FreeSans" font-size="10.00">&#45;core/simulation/g4main</text>
<text text-anchor="middle" x="4033" y="-13" font-family="FreeSans" font-size="10.00">/PHG4ParticleGeneratorBase.cc</text>
</a>
</g>
</g>
<!-- Node4&#45;&gt;Node28 -->
<g id="edge27" class="edge"><title>Node4&#45;&gt;Node28</title>
<path fill="none" stroke="midnightblue" d="M2621.23,-125.484C2897.68,-123.417 3690.56,-113.242 3945,-64 3952.79,-62.4919 3960.83,-60.4254 3968.72,-58.0696"/>
<polygon fill="midnightblue" stroke="midnightblue" points="2620.8,-121.987 2610.83,-125.56 2620.85,-128.987 2620.8,-121.987"/>
</g>
<!-- Node29 -->
<g id="node29" class="node"><title>Node29</title>
<g id="a_node29"><a xlink:href="../../d1/de0/PHG4ParticleGeneratorD0_8cc.html" target="_top" xlink:title="/dev/shm/kenichi/update\l&#45;github&#45;e1039&#45;doc/e1039\l&#45;core/simulation/g4main\l/PHG4ParticleGeneratorD0.cc">
<polygon fill="none" stroke="black" points="4129,-6 4129,-58 4275,-58 4275,-6 4129,-6"/>
<text text-anchor="start" x="4137" y="-46" font-family="FreeSans" font-size="10.00">/dev/shm/kenichi/update</text>
<text text-anchor="start" x="4137" y="-35" font-family="FreeSans" font-size="10.00">&#45;github&#45;e1039&#45;doc/e1039</text>
<text text-anchor="start" x="4137" y="-24" font-family="FreeSans" font-size="10.00">&#45;core/simulation/g4main</text>
<text text-anchor="middle" x="4202" y="-13" font-family="FreeSans" font-size="10.00">/PHG4ParticleGeneratorD0.cc</text>
</a>
</g>
</g>
<!-- Node4&#45;&gt;Node29 -->
<g id="edge28" class="edge"><title>Node4&#45;&gt;Node29</title>
<path fill="none" stroke="midnightblue" d="M2621.03,-126.307C2919.93,-126.627 3830.96,-122.635 4120,-64 4127.31,-62.5173 4134.82,-60.4665 4142.2,-58.1194"/>
<polygon fill="midnightblue" stroke="midnightblue" points="2620.66,-122.807 2610.66,-126.294 2620.65,-129.807 2620.66,-122.807"/>
</g>
<!-- Node30 -->
<g id="node30" class="node"><title>Node30</title>
<g id="a_node30"><a xlink:href="../../dd/d77/PHG4ParticleGeneratorVectorMeson_8cc.html" target="_top" xlink:title="/dev/shm/kenichi/update\l&#45;github&#45;e1039&#45;doc/e1039\l&#45;core/simulation/g4main\l/PHG4ParticleGeneratorVectorMeson.cc">
<polygon fill="none" stroke="black" points="4293.5,-6 4293.5,-58 4484.5,-58 4484.5,-6 4293.5,-6"/>
<text text-anchor="start" x="4301.5" y="-46" font-family="FreeSans" font-size="10.00">/dev/shm/kenichi/update</text>
<text text-anchor="start" x="4301.5" y="-35" font-family="FreeSans" font-size="10.00">&#45;github&#45;e1039&#45;doc/e1039</text>
<text text-anchor="start" x="4301.5" y="-24" font-family="FreeSans" font-size="10.00">&#45;core/simulation/g4main</text>
<text text-anchor="middle" x="4389" y="-13" font-family="FreeSans" font-size="10.00">/PHG4ParticleGeneratorVectorMeson.cc</text>
</a>
</g>
</g>
<!-- Node4&#45;&gt;Node30 -->
<g id="edge29" class="edge"><title>Node4&#45;&gt;Node30</title>
<path fill="none" stroke="midnightblue" d="M2620.78,-125.795C2939.08,-124.617 3959.71,-116.719 4284,-64 4293.29,-62.4903 4302.91,-60.4054 4312.39,-58.0242"/>
<polygon fill="midnightblue" stroke="midnightblue" points="2620.64,-122.296 2610.66,-125.831 2620.67,-129.295 2620.64,-122.296"/>
</g>
<!-- Node31 -->
<g id="node31" class="node"><title>Node31</title>
<g id="a_node31"><a xlink:href="../../d9/d93/PHG4PhenixDetector_8cc.html" target="_top" xlink:title="/dev/shm/kenichi/update\l&#45;github&#45;e1039&#45;doc/e1039\l&#45;core/simulation/g4main\l/PHG4PhenixDetector.cc">
<polygon fill="none" stroke="black" points="4502.5,-6 4502.5,-58 4627.5,-58 4627.5,-6 4502.5,-6"/>
<text text-anchor="start" x="4510.5" y="-46" font-family="FreeSans" font-size="10.00">/dev/shm/kenichi/update</text>
<text text-anchor="start" x="4510.5" y="-35" font-family="FreeSans" font-size="10.00">&#45;github&#45;e1039&#45;doc/e1039</text>
<text text-anchor="start" x="4510.5" y="-24" font-family="FreeSans" font-size="10.00">&#45;core/simulation/g4main</text>
<text text-anchor="middle" x="4565" y="-13" font-family="FreeSans" font-size="10.00">/PHG4PhenixDetector.cc</text>
</a>
</g>
</g>
<!-- Node4&#45;&gt;Node31 -->
<g id="edge30" class="edge"><title>Node4&#45;&gt;Node31</title>
<path fill="none" stroke="midnightblue" d="M2620.84,-125.081C2990.17,-121.251 4309.63,-104.817 4493,-64 4499.64,-62.5215 4506.44,-60.4379 4513.07,-58.0421"/>
<polygon fill="midnightblue" stroke="midnightblue" points="2620.68,-121.582 2610.72,-125.185 2620.76,-128.582 2620.68,-121.582"/>
</g>
<!-- Node32 -->
<g id="node32" class="node"><title>Node32</title>
<g id="a_node32"><a xlink:href="../../d2/dcb/PHG4Reco_8cc.html" target="_top" xlink:title="/dev/shm/kenichi/update\l&#45;github&#45;e1039&#45;doc/e1039\l&#45;core/simulation/g4main\l/PHG4Reco.cc">
<polygon fill="none" stroke="black" points="4645.5,-6 4645.5,-58 4768.5,-58 4768.5,-6 4645.5,-6"/>
<text text-anchor="start" x="4653.5" y="-46" font-family="FreeSans" font-size="10.00">/dev/shm/kenichi/update</text>
<text text-anchor="start" x="4653.5" y="-35" font-family="FreeSans" font-size="10.00">&#45;github&#45;e1039&#45;doc/e1039</text>
<text text-anchor="start" x="4653.5" y="-24" font-family="FreeSans" font-size="10.00">&#45;core/simulation/g4main</text>
<text text-anchor="middle" x="4707" y="-13" font-family="FreeSans" font-size="10.00">/PHG4Reco.cc</text>
</a>
</g>
</g>
<!-- Node4&#45;&gt;Node32 -->
<g id="edge31" class="edge"><title>Node4&#45;&gt;Node32</title>
<path fill="none" stroke="midnightblue" d="M2620.64,-125.332C3006.6,-122.343 4438.18,-108.343 4636,-64 4642.56,-62.529 4649.27,-60.4501 4655.81,-58.0568"/>
<polygon fill="midnightblue" stroke="midnightblue" points="2620.6,-121.832 2610.62,-125.408 2620.65,-128.832 2620.6,-121.832"/>
</g>
<!-- Node33 -->
<g id="node33" class="node"><title>Node33</title>
<g id="a_node33"><a xlink:href="../../d2/d3a/Fun4TrkDev_8C.html" target="_top" xlink:title="/dev/shm/kenichi/update\l&#45;github&#45;e1039&#45;doc/e1039\l&#45;analysis/TrkDev/Fun4TrkDev.C">
<polygon fill="none" stroke="black" points="4787,-11.5 4787,-52.5 4939,-52.5 4939,-11.5 4787,-11.5"/>
<text text-anchor="start" x="4795" y="-40.5" font-family="FreeSans" font-size="10.00">/dev/shm/kenichi/update</text>
<text text-anchor="start" x="4795" y="-29.5" font-family="FreeSans" font-size="10.00">&#45;github&#45;e1039&#45;doc/e1039</text>
<text text-anchor="middle" x="4863" y="-18.5" font-family="FreeSans" font-size="10.00">&#45;analysis/TrkDev/Fun4TrkDev.C</text>
</a>
</g>
</g>
<!-- Node4&#45;&gt;Node33 -->
<g id="edge32" class="edge"><title>Node4&#45;&gt;Node33</title>
<path fill="none" stroke="midnightblue" d="M2620.85,-125.156C3023.04,-121.372 4563.44,-104.351 4777,-64 4790.41,-61.4659 4804.52,-57.1359 4817.34,-52.5027"/>
<polygon fill="midnightblue" stroke="midnightblue" points="2620.67,-121.658 2610.71,-125.251 2620.74,-128.657 2620.67,-121.658"/>
</g>
</g>
</svg>
