<?xml version="1.0" encoding="UTF-8" standalone="no"?>
<!DOCTYPE svg PUBLIC "-//W3C//DTD SVG 1.1//EN"
 "http://www.w3.org/Graphics/SVG/1.1/DTD/svg11.dtd">
<!-- Generated by graphviz version 2.36.0 (20140111.2315)
 -->
<!-- Title: Node::getFiltered Pages: 1 -->
<svg width="1896pt" height="381pt"
 viewBox="0.00 0.00 1896.00 381.11" xmlns="http://www.w3.org/2000/svg" xmlns:xlink="http://www.w3.org/1999/xlink">
<g id="graph0" class="graph" transform="scale(1 1) rotate(0) translate(4 377.105)">
<title>Node::getFiltered</title>
<!-- Node1 -->
<g id="node1" class="node"><title>Node1</title>
<polygon fill="#bfbfbf" stroke="black" points="0,-171.5 0,-190.5 90,-190.5 90,-171.5 0,-171.5"/>
<text text-anchor="middle" x="45" y="-178.5" font-family="FreeSans" font-size="10.00">Node::getFiltered</text>
</g>
<!-- Node2 -->
<g id="node2" class="node"><title>Node2</title>
<g id="a_node2"><a xlink:href="../../d9/dc3/classKalmanTrack.html#a659fdf3a875fa693371de5b2559f9aa0" target="_top" xlink:title="KalmanTrack::addHit">
<polygon fill="none" stroke="black" points="344.5,-304.5 344.5,-323.5 451.5,-323.5 451.5,-304.5 344.5,-304.5"/>
<text text-anchor="middle" x="398" y="-311.5" font-family="FreeSans" font-size="10.00">KalmanTrack::addHit</text>
</a>
</g>
</g>
<!-- Node1&#45;&gt;Node2 -->
<g id="edge1" class="edge"><title>Node1&#45;&gt;Node2</title>
<path fill="none" stroke="midnightblue" d="M53.0935,-199.863C64.165,-226.342 88.2776,-273.679 126,-295 193.748,-333.292 286.744,-330.116 344.297,-323.02"/>
<polygon fill="midnightblue" stroke="midnightblue" points="56.3273,-198.523 49.3726,-190.53 49.825,-201.115 56.3273,-198.523"/>
</g>
<!-- Node3 -->
<g id="node3" class="node"><title>Node3</title>
<g id="a_node3"><a xlink:href="../../d6/d2a/classKalmanFilter.html#a06b2c6aa660f89c5f30e164b0a29512c" target="_top" xlink:title="KalmanFilter::filter">
<polygon fill="none" stroke="black" points="162,-266.5 162,-285.5 256,-285.5 256,-266.5 162,-266.5"/>
<text text-anchor="middle" x="209" y="-273.5" font-family="FreeSans" font-size="10.00">KalmanFilter::filter</text>
</a>
</g>
</g>
<!-- Node1&#45;&gt;Node3 -->
<g id="edge2" class="edge"><title>Node1&#45;&gt;Node3</title>
<path fill="none" stroke="midnightblue" d="M61.2827,-198.406C76.2763,-214.474 100.54,-237.915 126,-252 137.162,-258.175 150.079,-262.91 162.312,-266.475"/>
<polygon fill="midnightblue" stroke="midnightblue" points="63.6484,-195.806 54.3297,-190.765 58.4709,-200.517 63.6484,-195.806"/>
</g>
<!-- Node5 -->
<g id="node5" class="node"><title>Node5</title>
<g id="a_node5"><a xlink:href="../../d9/dc3/classKalmanTrack.html#a142008cf7b877085eefefd71119fcb15" target="_top" xlink:title="Get the rough vertex momentum. ">
<polygon fill="none" stroke="black" points="504.5,-267 504.5,-297 645.5,-297 645.5,-267 504.5,-267"/>
<text text-anchor="start" x="512.5" y="-285" font-family="FreeSans" font-size="10.00">KalmanTrack::getMomentum</text>
<text text-anchor="middle" x="575" y="-274" font-family="FreeSans" font-size="10.00">Vertex</text>
</a>
</g>
</g>
<!-- Node1&#45;&gt;Node5 -->
<g id="edge33" class="edge"><title>Node1&#45;&gt;Node5</title>
<path fill="none" stroke="midnightblue" d="M50.3226,-200.815C58.6247,-233.496 80.1932,-297.876 126,-326 255.56,-405.547 319.774,-366.804 468,-333 498.065,-326.143 529.542,-309.632 550.305,-297.241"/>
<polygon fill="midnightblue" stroke="midnightblue" points="53.6343,-199.611 47.9213,-190.689 46.8232,-201.226 53.6343,-199.611"/>
</g>
<!-- Node18 -->
<g id="node18" class="node"><title>Node18</title>
<g id="a_node18"><a xlink:href="../../d6/db1/classSRecTrack.html#a4e6933a5892c3e5fd593046ac3ee94a5" target="_top" xlink:title="SRecTrack::setZVertex">
<polygon fill="none" stroke="black" points="516.5,-130.5 516.5,-149.5 633.5,-149.5 633.5,-130.5 516.5,-130.5"/>
<text text-anchor="middle" x="575" y="-137.5" font-family="FreeSans" font-size="10.00">SRecTrack::setZVertex</text>
</a>
</g>
</g>
<!-- Node1&#45;&gt;Node18 -->
<g id="edge43" class="edge"><title>Node1&#45;&gt;Node18</title>
<path fill="none" stroke="midnightblue" d="M99.9441,-169.532C108.634,-167.881 117.548,-166.303 126,-165 215.255,-151.242 237.856,-148.446 328,-143 392.377,-139.111 466.397,-138.766 516.286,-139.137"/>
<polygon fill="midnightblue" stroke="midnightblue" points="99.034,-166.144 89.8882,-171.492 100.373,-173.014 99.034,-166.144"/>
</g>
<!-- Node23 -->
<g id="node23" class="node"><title>Node23</title>
<g id="a_node23"><a xlink:href="../../d9/dc3/classKalmanTrack.html#ae0ad1dd4a835dde92f944196df9e4c31" target="_top" xlink:title="KalmanTrack::getExpPosErrorFast">
<polygon fill="none" stroke="black" points="126.5,-76.5 126.5,-95.5 291.5,-95.5 291.5,-76.5 126.5,-76.5"/>
<text text-anchor="middle" x="209" y="-83.5" font-family="FreeSans" font-size="10.00">KalmanTrack::getExpPosErrorFast</text>
</a>
</g>
</g>
<!-- Node1&#45;&gt;Node23 -->
<g id="edge29" class="edge"><title>Node1&#45;&gt;Node23</title>
<path fill="none" stroke="midnightblue" d="M61.2827,-163.594C76.2763,-147.526 100.54,-124.085 126,-110 137.162,-103.825 150.079,-99.0902 162.312,-95.525"/>
<polygon fill="midnightblue" stroke="midnightblue" points="58.4709,-161.483 54.3297,-171.235 63.6484,-166.194 58.4709,-161.483"/>
</g>
<!-- Node24 -->
<g id="node24" class="node"><title>Node24</title>
<g id="a_node24"><a xlink:href="../../d9/dc3/classKalmanTrack.html#a289f9e2af2106f88f8c0e068705d2714" target="_top" xlink:title="KalmanTrack::getExpPositionFast">
<polygon fill="none" stroke="black" points="127.5,-38.5 127.5,-57.5 290.5,-57.5 290.5,-38.5 127.5,-38.5"/>
<text text-anchor="middle" x="209" y="-45.5" font-family="FreeSans" font-size="10.00">KalmanTrack::getExpPositionFast</text>
</a>
</g>
</g>
<!-- Node1&#45;&gt;Node24 -->
<g id="edge30" class="edge"><title>Node1&#45;&gt;Node24</title>
<path fill="none" stroke="midnightblue" d="M54.0845,-161.819C65.9519,-136.09 90.5855,-90.8812 126,-67 131.694,-63.16 138.062,-60.0896 144.663,-57.6356"/>
<polygon fill="midnightblue" stroke="midnightblue" points="50.7625,-160.677 49.9116,-171.238 57.1624,-163.513 50.7625,-160.677"/>
</g>
<!-- Node27 -->
<g id="node27" class="node"><title>Node27</title>
<g id="a_node27"><a xlink:href="../../d3/dc9/classKalmanFitter.html#a6afa98e802038d1ef394de55bbe013b5" target="_top" xlink:title="Initialize the smoother. ">
<polygon fill="none" stroke="black" points="332.5,-228.5 332.5,-247.5 463.5,-247.5 463.5,-228.5 332.5,-228.5"/>
<text text-anchor="middle" x="398" y="-235.5" font-family="FreeSans" font-size="10.00">KalmanFitter::initSmoother</text>
</a>
</g>
</g>
<!-- Node1&#45;&gt;Node27 -->
<g id="edge34" class="edge"><title>Node1&#45;&gt;Node27</title>
<path fill="none" stroke="midnightblue" d="M70.423,-195.545C85.8153,-203.954 106.418,-213.859 126,-219 194.884,-237.083 276.791,-240.444 332.393,-240.159"/>
<polygon fill="midnightblue" stroke="midnightblue" points="71.9988,-192.416 61.568,-190.559 68.5642,-198.515 71.9988,-192.416"/>
</g>
<!-- Node28 -->
<g id="node28" class="node"><title>Node28</title>
<g id="a_node28"><a xlink:href="../../d9/dc3/classKalmanTrack.html#a392fa7ce5fc124148eb469689fbb5398" target="_top" xlink:title="KalmanTrack::KalmanTrack">
<polygon fill="none" stroke="black" points="140.5,-0.5 140.5,-19.5 277.5,-19.5 277.5,-0.5 140.5,-0.5"/>
<text text-anchor="middle" x="209" y="-7.5" font-family="FreeSans" font-size="10.00">KalmanTrack::KalmanTrack</text>
</a>
</g>
</g>
<!-- Node1&#45;&gt;Node28 -->
<g id="edge36" class="edge"><title>Node1&#45;&gt;Node28</title>
<path fill="none" stroke="midnightblue" d="M50.5701,-161.653C59.326,-129.006 81.6614,-63.199 126,-29 130.976,-25.1622 136.593,-22.0777 142.497,-19.6016"/>
<polygon fill="midnightblue" stroke="midnightblue" points="47.1741,-160.807 48.1091,-171.36 53.9594,-162.527 47.1741,-160.807"/>
</g>
<!-- Node29 -->
<g id="node29" class="node"><title>Node29</title>
<g id="a_node29"><a xlink:href="../../d6/d2a/classKalmanFilter.html#a8d8429d9087367301473581d099091f6" target="_top" xlink:title="set the current track parameter using the current node ">
<polygon fill="none" stroke="black" points="330.5,-152.5 330.5,-171.5 465.5,-171.5 465.5,-152.5 330.5,-152.5"/>
<text text-anchor="middle" x="398" y="-159.5" font-family="FreeSans" font-size="10.00">KalmanFilter::setCurrTrkpar</text>
</a>
</g>
</g>
<!-- Node1&#45;&gt;Node29 -->
<g id="edge37" class="edge"><title>Node1&#45;&gt;Node29</title>
<path fill="none" stroke="midnightblue" d="M100.445,-178.053C162.412,-174.698 263.647,-169.219 330.301,-165.61"/>
<polygon fill="midnightblue" stroke="midnightblue" points="99.8952,-174.577 90.099,-178.613 100.274,-181.567 99.8952,-174.577"/>
</g>
<!-- Node32 -->
<g id="node32" class="node"><title>Node32</title>
<g id="a_node32"><a xlink:href="../../d6/d2a/classKalmanFilter.html#a511c8165e9c3ad5ee16b6c48ec9ae306" target="_top" xlink:title="KalmanFilter::smooth">
<polygon fill="none" stroke="black" points="155,-190.5 155,-209.5 263,-209.5 263,-190.5 155,-190.5"/>
<text text-anchor="middle" x="209" y="-197.5" font-family="FreeSans" font-size="10.00">KalmanFilter::smooth</text>
</a>
</g>
</g>
<!-- Node1&#45;&gt;Node32 -->
<g id="edge44" class="edge"><title>Node1&#45;&gt;Node32</title>
<path fill="none" stroke="midnightblue" d="M100.364,-187.376C117.931,-189.436 137.379,-191.717 154.857,-193.767"/>
<polygon fill="midnightblue" stroke="midnightblue" points="100.607,-183.881 90.2672,-186.192 99.7914,-190.833 100.607,-183.881"/>
</g>
<!-- Node3&#45;&gt;Node2 -->
<g id="edge3" class="edge"><title>Node3&#45;&gt;Node2</title>
<path fill="none" stroke="midnightblue" d="M266.213,-287.423C292.955,-292.857 324.564,-299.28 350.008,-304.451"/>
<polygon fill="midnightblue" stroke="midnightblue" points="266.721,-283.955 256.225,-285.393 265.327,-290.815 266.721,-283.955"/>
</g>
<!-- Node4 -->
<g id="node4" class="node"><title>Node4</title>
<g id="a_node4"><a xlink:href="../../d6/d2a/classKalmanFilter.html#a9c77cbaf604c1adc5e0e12ef3463d37c" target="_top" xlink:title="Fit one node. ">
<polygon fill="none" stroke="black" points="343,-266.5 343,-285.5 453,-285.5 453,-266.5 343,-266.5"/>
<text text-anchor="middle" x="398" y="-273.5" font-family="FreeSans" font-size="10.00">KalmanFilter::fit_node</text>
</a>
</g>
</g>
<!-- Node3&#45;&gt;Node4 -->
<g id="edge4" class="edge"><title>Node3&#45;&gt;Node4</title>
<path fill="none" stroke="midnightblue" d="M266.331,-276C290.533,-276 318.705,-276 342.68,-276"/>
<polygon fill="midnightblue" stroke="midnightblue" points="266.225,-272.5 256.225,-276 266.225,-279.5 266.225,-272.5"/>
</g>
<!-- Node4&#45;&gt;Node5 -->
<g id="edge5" class="edge"><title>Node4&#45;&gt;Node5</title>
<path fill="none" stroke="midnightblue" d="M463.451,-278.21C476.806,-278.668 490.933,-279.152 504.46,-279.616"/>
<polygon fill="midnightblue" stroke="midnightblue" points="463.526,-274.71 453.412,-277.866 463.286,-281.706 463.526,-274.71"/>
</g>
<!-- Node6 -->
<g id="node6" class="node"><title>Node6</title>
<g id="a_node6"><a xlink:href="../../d3/dc9/classKalmanFitter.html#a36692b492f189bfdcf521fb4e7ed491d" target="_top" xlink:title="KalmanFitter::processOne\lTrack">
<polygon fill="none" stroke="black" points="510.5,-218 510.5,-248 639.5,-248 639.5,-218 510.5,-218"/>
<text text-anchor="start" x="518.5" y="-236" font-family="FreeSans" font-size="10.00">KalmanFitter::processOne</text>
<text text-anchor="middle" x="575" y="-225" font-family="FreeSans" font-size="10.00">Track</text>
</a>
</g>
</g>
<!-- Node4&#45;&gt;Node6 -->
<g id="edge6" class="edge"><title>Node4&#45;&gt;Node6</title>
<path fill="none" stroke="midnightblue" d="M447.751,-264.021C467.947,-259.059 491.594,-253.248 512.928,-248.006"/>
<polygon fill="midnightblue" stroke="midnightblue" points="446.714,-260.672 437.838,-266.457 448.384,-267.47 446.714,-260.672"/>
</g>
<!-- Node4&#45;&gt;Node18 -->
<g id="edge20" class="edge"><title>Node4&#45;&gt;Node18</title>
<path fill="none" stroke="midnightblue" d="M462.42,-261.428C464.385,-260.079 466.254,-258.606 468,-257 502.149,-225.585 469.793,-190.353 504,-159 508.177,-155.171 513.049,-152.101 518.242,-149.642"/>
<polygon fill="midnightblue" stroke="midnightblue" points="460.267,-258.625 453.283,-266.592 463.711,-264.719 460.267,-258.625"/>
</g>
<!-- Node7 -->
<g id="node7" class="node"><title>Node7</title>
<g id="a_node7"><a xlink:href="../../d3/d46/classKalmanFastTracking.html#adae298d8b0d2aa7ca771228cacd66974" target="_top" xlink:title="KalmanFastTracking\l::fitTrack">
<polygon fill="none" stroke="black" points="709.5,-218 709.5,-248 816.5,-248 816.5,-218 709.5,-218"/>
<text text-anchor="start" x="717.5" y="-236" font-family="FreeSans" font-size="10.00">KalmanFastTracking</text>
<text text-anchor="middle" x="763" y="-225" font-family="FreeSans" font-size="10.00">::fitTrack</text>
</a>
</g>
</g>
<!-- Node6&#45;&gt;Node7 -->
<g id="edge7" class="edge"><title>Node6&#45;&gt;Node7</title>
<path fill="none" stroke="midnightblue" d="M650.017,-233C669.898,-233 690.989,-233 709.442,-233"/>
<polygon fill="midnightblue" stroke="midnightblue" points="649.75,-229.5 639.75,-233 649.75,-236.5 649.75,-229.5"/>
</g>
<!-- Node12 -->
<g id="node12" class="node"><title>Node12</title>
<g id="a_node12"><a xlink:href="../../dc/d0c/classKalmanPrgTrk.html#a8ee9bcfea7e72f800a09fb32ef7e0fe2" target="_top" xlink:title="KalmanPrgTrk::fitTrack">
<polygon fill="none" stroke="black" points="705,-174.5 705,-193.5 821,-193.5 821,-174.5 705,-174.5"/>
<text text-anchor="middle" x="763" y="-181.5" font-family="FreeSans" font-size="10.00">KalmanPrgTrk::fitTrack</text>
</a>
</g>
</g>
<!-- Node6&#45;&gt;Node12 -->
<g id="edge13" class="edge"><title>Node6&#45;&gt;Node12</title>
<path fill="none" stroke="midnightblue" d="M642.813,-215.399C670.818,-208.021 702.272,-199.735 725.833,-193.528"/>
<polygon fill="midnightblue" stroke="midnightblue" points="641.849,-212.033 633.07,-217.965 643.632,-218.802 641.849,-212.033"/>
</g>
<!-- Node8 -->
<g id="node8" class="node"><title>Node8</title>
<g id="a_node8"><a xlink:href="../../d3/d46/classKalmanFastTracking.html#ac0b6441647d023db04c618a35fd2a8cd" target="_top" xlink:title="Track fitting stuff. ">
<polygon fill="none" stroke="black" points="1239.5,-168 1239.5,-198 1348.5,-198 1348.5,-168 1239.5,-168"/>
<text text-anchor="start" x="1247.5" y="-186" font-family="FreeSans" font-size="10.00">KalmanFastTracking</text>
<text text-anchor="middle" x="1294" y="-175" font-family="FreeSans" font-size="10.00">::processOneTracklet</text>
</a>
</g>
</g>
<!-- Node7&#45;&gt;Node8 -->
<g id="edge8" class="edge"><title>Node7&#45;&gt;Node8</title>
<path fill="none" stroke="midnightblue" d="M826.69,-248.403C843.864,-251.956 862.556,-255.214 880,-257 938.362,-262.974 953.819,-264.532 1012,-257 1098.05,-245.859 1195.32,-216.284 1249.89,-198.075"/>
<polygon fill="midnightblue" stroke="midnightblue" points="827.285,-244.952 816.774,-246.287 825.823,-251.797 827.285,-244.952"/>
</g>
<!-- Node11 -->
<g id="node11" class="node"><title>Node11</title>
<g id="a_node11"><a xlink:href="../../d3/d46/classKalmanFastTracking.html#a3d3ef7a6aeb00056e003e98564e45b65" target="_top" xlink:title="KalmanFastTracking\l::resolveLeftRight">
<polygon fill="none" stroke="black" points="892.5,-218 892.5,-248 999.5,-248 999.5,-218 892.5,-218"/>
<text text-anchor="start" x="900.5" y="-236" font-family="FreeSans" font-size="10.00">KalmanFastTracking</text>
<text text-anchor="middle" x="946" y="-225" font-family="FreeSans" font-size="10.00">::resolveLeftRight</text>
</a>
</g>
</g>
<!-- Node7&#45;&gt;Node11 -->
<g id="edge12" class="edge"><title>Node7&#45;&gt;Node11</title>
<path fill="none" stroke="midnightblue" d="M827.103,-233C848.425,-233 871.988,-233 892.408,-233"/>
<polygon fill="midnightblue" stroke="midnightblue" points="826.839,-229.5 816.839,-233 826.839,-236.5 826.839,-229.5"/>
</g>
<!-- Node9 -->
<g id="node9" class="node"><title>Node9</title>
<g id="a_node9"><a xlink:href="../../d3/d46/classKalmanFastTracking.html#a53c93bc5e58b3560d1cfb42e84bbe95c" target="_top" xlink:title="KalmanFastTracking\l::buildGlobalTracks">
<polygon fill="none" stroke="black" points="1410.5,-166 1410.5,-196 1517.5,-196 1517.5,-166 1410.5,-166"/>
<text text-anchor="start" x="1418.5" y="-184" font-family="FreeSans" font-size="10.00">KalmanFastTracking</text>
<text text-anchor="middle" x="1464" y="-173" font-family="FreeSans" font-size="10.00">::buildGlobalTracks</text>
</a>
</g>
</g>
<!-- Node8&#45;&gt;Node9 -->
<g id="edge9" class="edge"><title>Node8&#45;&gt;Node9</title>
<path fill="none" stroke="midnightblue" d="M1359.02,-182.238C1376.01,-182.036 1394.16,-181.819 1410.46,-181.625"/>
<polygon fill="midnightblue" stroke="midnightblue" points="1358.58,-178.743 1348.62,-182.362 1358.66,-185.742 1358.58,-178.743"/>
</g>
<!-- Node10 -->
<g id="node10" class="node"><title>Node10</title>
<g id="a_node10"><a xlink:href="../../d3/d46/classKalmanFastTracking.html#ada493cf8d995c42b9e78a53b891ce72b" target="_top" xlink:title="KalmanFastTracking\l::setRawEvent">
<polygon fill="none" stroke="black" points="1583.5,-177 1583.5,-207 1690.5,-207 1690.5,-177 1583.5,-177"/>
<text text-anchor="start" x="1591.5" y="-195" font-family="FreeSans" font-size="10.00">KalmanFastTracking</text>
<text text-anchor="middle" x="1637" y="-184" font-family="FreeSans" font-size="10.00">::setRawEvent</text>
</a>
</g>
</g>
<!-- Node8&#45;&gt;Node10 -->
<g id="edge11" class="edge"><title>Node8&#45;&gt;Node10</title>
<path fill="none" stroke="midnightblue" d="M1358.44,-198.734C1371.45,-201.342 1385.1,-203.638 1398,-205 1461.58,-211.714 1535.1,-205.589 1583.41,-199.677"/>
<polygon fill="midnightblue" stroke="midnightblue" points="1359.15,-195.307 1348.65,-196.69 1357.72,-202.16 1359.15,-195.307"/>
</g>
<!-- Node9&#45;&gt;Node10 -->
<g id="edge10" class="edge"><title>Node9&#45;&gt;Node10</title>
<path fill="none" stroke="midnightblue" d="M1527.7,-185.033C1546.02,-186.212 1565.85,-187.488 1583.47,-188.621"/>
<polygon fill="midnightblue" stroke="midnightblue" points="1527.91,-181.539 1517.7,-184.39 1527.46,-188.525 1527.91,-181.539"/>
</g>
<!-- Node13 -->
<g id="node13" class="node"><title>Node13</title>
<g id="a_node13"><a xlink:href="../../dc/d0c/classKalmanPrgTrk.html#a3248a6fabf2a32acaafaf75bc3e25808" target="_top" xlink:title="Track fitting stuff. ">
<polygon fill="none" stroke="black" points="1226,-119 1226,-149 1362,-149 1362,-119 1226,-119"/>
<text text-anchor="start" x="1234" y="-137" font-family="FreeSans" font-size="10.00">KalmanPrgTrk::processOne</text>
<text text-anchor="middle" x="1294" y="-126" font-family="FreeSans" font-size="10.00">Tracklet</text>
</a>
</g>
</g>
<!-- Node12&#45;&gt;Node13 -->
<g id="edge14" class="edge"><title>Node12&#45;&gt;Node13</title>
<path fill="none" stroke="midnightblue" d="M818.212,-171.206C827.178,-167.941 836.112,-163.92 844,-159 863.74,-146.689 858.629,-130.192 880,-121 1000.93,-68.9862 1160.69,-98.2184 1241.49,-118.947"/>
<polygon fill="midnightblue" stroke="midnightblue" points="816.885,-167.959 808.518,-174.458 819.112,-174.596 816.885,-167.959"/>
</g>
<!-- Node17 -->
<g id="node17" class="node"><title>Node17</title>
<g id="a_node17"><a xlink:href="../../dc/d0c/classKalmanPrgTrk.html#a09e38e04cc6c8c45648622fc74a02cc6" target="_top" xlink:title="KalmanPrgTrk::resolveLeft\lRight">
<polygon fill="none" stroke="black" points="880,-169 880,-199 1012,-199 1012,-169 880,-169"/>
<text text-anchor="start" x="888" y="-187" font-family="FreeSans" font-size="10.00">KalmanPrgTrk::resolveLeft</text>
<text text-anchor="middle" x="946" y="-176" font-family="FreeSans" font-size="10.00">Right</text>
</a>
</g>
</g>
<!-- Node12&#45;&gt;Node17 -->
<g id="edge19" class="edge"><title>Node12&#45;&gt;Node17</title>
<path fill="none" stroke="midnightblue" d="M831.508,-184C847.343,-184 864.184,-184 879.911,-184"/>
<polygon fill="midnightblue" stroke="midnightblue" points="831.27,-180.5 821.27,-184 831.269,-187.5 831.27,-180.5"/>
</g>
<!-- Node14 -->
<g id="node14" class="node"><title>Node14</title>
<g id="a_node14"><a xlink:href="../../dc/d0c/classKalmanPrgTrk.html#a01408b4a4733ae6cbfa9ba153adea137" target="_top" xlink:title="KalmanPrgTrk::buildGlobal\lTracks">
<polygon fill="none" stroke="black" points="1398.5,-78 1398.5,-108 1529.5,-108 1529.5,-78 1398.5,-78"/>
<text text-anchor="start" x="1406.5" y="-96" font-family="FreeSans" font-size="10.00">KalmanPrgTrk::buildGlobal</text>
<text text-anchor="middle" x="1464" y="-85" font-family="FreeSans" font-size="10.00">Tracks</text>
</a>
</g>
</g>
<!-- Node13&#45;&gt;Node14 -->
<g id="edge15" class="edge"><title>Node13&#45;&gt;Node14</title>
<path fill="none" stroke="midnightblue" d="M1366.66,-116.512C1378.22,-113.69 1390.11,-110.79 1401.4,-108.032"/>
<polygon fill="midnightblue" stroke="midnightblue" points="1365.49,-113.195 1356.6,-118.966 1367.15,-119.995 1365.49,-113.195"/>
</g>
<!-- Node15 -->
<g id="node15" class="node"><title>Node15</title>
<g id="a_node15"><a xlink:href="../../dc/d0c/classKalmanPrgTrk.html#a0803099b9372d07672c133f35d5d2d5e" target="_top" xlink:title="KalmanPrgTrk::setRawEvent">
<polygon fill="none" stroke="black" points="1566.5,-116.5 1566.5,-135.5 1707.5,-135.5 1707.5,-116.5 1566.5,-116.5"/>
<text text-anchor="middle" x="1637" y="-123.5" font-family="FreeSans" font-size="10.00">KalmanPrgTrk::setRawEvent</text>
</a>
</g>
</g>
<!-- Node13&#45;&gt;Node15 -->
<g id="edge18" class="edge"><title>Node13&#45;&gt;Node15</title>
<path fill="none" stroke="midnightblue" d="M1372.64,-132.178C1430.97,-130.81 1510.16,-128.952 1566.43,-127.632"/>
<polygon fill="midnightblue" stroke="midnightblue" points="1372.29,-128.686 1362.37,-132.419 1372.45,-135.684 1372.29,-128.686"/>
</g>
<!-- Node14&#45;&gt;Node15 -->
<g id="edge16" class="edge"><title>Node14&#45;&gt;Node15</title>
<path fill="none" stroke="midnightblue" d="M1539.51,-107.379C1555.49,-110.463 1571.99,-113.647 1586.73,-116.491"/>
<polygon fill="midnightblue" stroke="midnightblue" points="1540.13,-103.934 1529.65,-105.476 1538.8,-110.807 1540.13,-103.934"/>
</g>
<!-- Node16 -->
<g id="node16" class="node"><title>Node16</title>
<g id="a_node16"><a xlink:href="../../d4/dff/classKalmanFastTrackingWrapper.html#a5edc61b3b9a06f6486b1f22e44f7d63e" target="_top" xlink:title="KalmanFastTrackingWrapper\l::process_event">
<polygon fill="none" stroke="black" points="1744.5,-111 1744.5,-141 1887.5,-141 1887.5,-111 1744.5,-111"/>
<text text-anchor="start" x="1752.5" y="-129" font-family="FreeSans" font-size="10.00">KalmanFastTrackingWrapper</text>
<text text-anchor="middle" x="1816" y="-118" font-family="FreeSans" font-size="10.00">::process_event</text>
</a>
</g>
</g>
<!-- Node15&#45;&gt;Node16 -->
<g id="edge17" class="edge"><title>Node15&#45;&gt;Node16</title>
<path fill="none" stroke="midnightblue" d="M1717.71,-126C1726.64,-126 1735.69,-126 1744.49,-126"/>
<polygon fill="midnightblue" stroke="midnightblue" points="1717.7,-122.5 1707.7,-126 1717.7,-129.5 1717.7,-122.5"/>
</g>
<!-- Node19 -->
<g id="node19" class="node"><title>Node19</title>
<g id="a_node19"><a xlink:href="../../d6/db1/classSRecTrack.html#ad6b6be2adfcd60d2442306cda12cdc0c" target="_top" xlink:title="SRecTrack::updateVtxHypothesis">
<polygon fill="none" stroke="black" points="682,-130.5 682,-149.5 844,-149.5 844,-130.5 682,-130.5"/>
<text text-anchor="middle" x="763" y="-137.5" font-family="FreeSans" font-size="10.00">SRecTrack::updateVtxHypothesis</text>
</a>
</g>
</g>
<!-- Node18&#45;&gt;Node19 -->
<g id="edge21" class="edge"><title>Node18&#45;&gt;Node19</title>
<path fill="none" stroke="midnightblue" d="M643.784,-140C656.138,-140 669.136,-140 681.809,-140"/>
<polygon fill="midnightblue" stroke="midnightblue" points="643.578,-136.5 633.578,-140 643.578,-143.5 643.578,-136.5"/>
</g>
<!-- Node20 -->
<g id="node20" class="node"><title>Node20</title>
<g id="a_node20"><a xlink:href="../../d6/db1/classSRecTrack.html#a3c5ab5d580eec34aa4c31156dc3ec66b" target="_top" xlink:title="Simple swim to vertex. ">
<polygon fill="none" stroke="black" points="880,-130.5 880,-149.5 1012,-149.5 1012,-130.5 880,-130.5"/>
<text text-anchor="middle" x="946" y="-137.5" font-family="FreeSans" font-size="10.00">SRecTrack::swimToVertex</text>
</a>
</g>
</g>
<!-- Node19&#45;&gt;Node20 -->
<g id="edge22" class="edge"><title>Node19&#45;&gt;Node20</title>
<path fill="none" stroke="midnightblue" d="M854.271,-140C862.885,-140 871.501,-140 879.808,-140"/>
<polygon fill="midnightblue" stroke="midnightblue" points="854.18,-136.5 844.18,-140 854.18,-143.5 854.18,-136.5"/>
</g>
<!-- Node21 -->
<g id="node21" class="node"><title>Node21</title>
<g id="a_node21"><a xlink:href="../../d2/d26/classTracklet.html#a1eb7549294ffda15dd00f8671cb17096" target="_top" xlink:title="Tracklet::getSRecTrack">
<polygon fill="none" stroke="black" points="1059.5,-168.5 1059.5,-187.5 1178.5,-187.5 1178.5,-168.5 1059.5,-168.5"/>
<text text-anchor="middle" x="1119" y="-175.5" font-family="FreeSans" font-size="10.00">Tracklet::getSRecTrack</text>
</a>
</g>
</g>
<!-- Node20&#45;&gt;Node21 -->
<g id="edge23" class="edge"><title>Node20&#45;&gt;Node21</title>
<path fill="none" stroke="midnightblue" d="M1000.21,-151.824C1024.32,-157.182 1052.44,-163.431 1075.16,-168.48"/>
<polygon fill="midnightblue" stroke="midnightblue" points="1000.67,-148.342 990.151,-149.589 999.153,-155.175 1000.67,-148.342"/>
</g>
<!-- Node22 -->
<g id="node22" class="node"><title>Node22</title>
<g id="a_node22"><a xlink:href="../../d9/dc3/classKalmanTrack.html#a38e275864291b276a96abd8c50de4282" target="_top" xlink:title="Output to SRecTrack. ">
<polygon fill="none" stroke="black" points="1048.5,-130.5 1048.5,-149.5 1189.5,-149.5 1189.5,-130.5 1048.5,-130.5"/>
<text text-anchor="middle" x="1119" y="-137.5" font-family="FreeSans" font-size="10.00">KalmanTrack::getSRecTrack</text>
</a>
</g>
</g>
<!-- Node20&#45;&gt;Node22 -->
<g id="edge26" class="edge"><title>Node20&#45;&gt;Node22</title>
<path fill="none" stroke="midnightblue" d="M1022.28,-140C1031,-140 1039.86,-140 1048.49,-140"/>
<polygon fill="midnightblue" stroke="midnightblue" points="1022.14,-136.5 1012.14,-140 1022.14,-143.5 1022.14,-136.5"/>
</g>
<!-- Node21&#45;&gt;Node8 -->
<g id="edge24" class="edge"><title>Node21&#45;&gt;Node8</title>
<path fill="none" stroke="midnightblue" d="M1188.9,-179.991C1205.71,-180.477 1223.46,-180.99 1239.44,-181.452"/>
<polygon fill="midnightblue" stroke="midnightblue" points="1188.67,-176.483 1178.57,-179.693 1188.46,-183.48 1188.67,-176.483"/>
</g>
<!-- Node21&#45;&gt;Node13 -->
<g id="edge25" class="edge"><title>Node21&#45;&gt;Node13</title>
<path fill="none" stroke="midnightblue" d="M1167.28,-165.974C1187.81,-160.755 1212.06,-154.586 1233.77,-149.065"/>
<polygon fill="midnightblue" stroke="midnightblue" points="1166.37,-162.596 1157.54,-168.453 1168.09,-169.38 1166.37,-162.596"/>
</g>
<!-- Node22&#45;&gt;Node8 -->
<g id="edge27" class="edge"><title>Node22&#45;&gt;Node8</title>
<path fill="none" stroke="midnightblue" d="M1168.22,-151.986C1190.31,-157.477 1216.58,-164.004 1239.3,-169.651"/>
<polygon fill="midnightblue" stroke="midnightblue" points="1168.94,-148.559 1158.39,-149.543 1167.25,-155.352 1168.94,-148.559"/>
</g>
<!-- Node22&#45;&gt;Node13 -->
<g id="edge28" class="edge"><title>Node22&#45;&gt;Node13</title>
<path fill="none" stroke="midnightblue" d="M1200,-137.225C1208.68,-136.924 1217.45,-136.62 1225.96,-136.325"/>
<polygon fill="midnightblue" stroke="midnightblue" points="1199.74,-133.732 1189.87,-137.577 1199.98,-140.728 1199.74,-133.732"/>
</g>
<!-- Node25 -->
<g id="node25" class="node"><title>Node25</title>
<g id="a_node25"><a xlink:href="../../d9/dc3/classKalmanTrack.html#a5109b783a2a64bfcf59edd72a728abd5" target="_top" xlink:title="KalmanTrack::getMuIDAngle">
<polygon fill="none" stroke="black" points="328,-10.5 328,-29.5 468,-29.5 468,-10.5 328,-10.5"/>
<text text-anchor="middle" x="398" y="-17.5" font-family="FreeSans" font-size="10.00">KalmanTrack::getMuIDAngle</text>
</a>
</g>
</g>
<!-- Node24&#45;&gt;Node25 -->
<g id="edge31" class="edge"><title>Node24&#45;&gt;Node25</title>
<path fill="none" stroke="midnightblue" d="M283.656,-36.9713C300.061,-34.5149 317.322,-31.9305 333.288,-29.5398"/>
<polygon fill="midnightblue" stroke="midnightblue" points="282.942,-33.5391 273.571,-38.4814 283.979,-40.4619 282.942,-33.5391"/>
</g>
<!-- Node26 -->
<g id="node26" class="node"><title>Node26</title>
<g id="a_node26"><a xlink:href="../../d9/dc3/classKalmanTrack.html#ac73a7ff611d9b0a7cf77eb1775901036" target="_top" xlink:title="KalmanTrack::getSagittaIn\lSuperDetector">
<polygon fill="none" stroke="black" points="332.5,-49 332.5,-79 463.5,-79 463.5,-49 332.5,-49"/>
<text text-anchor="start" x="340.5" y="-67" font-family="FreeSans" font-size="10.00">KalmanTrack::getSagittaIn</text>
<text text-anchor="middle" x="398" y="-56" font-family="FreeSans" font-size="10.00">SuperDetector</text>
</a>
</g>
</g>
<!-- Node24&#45;&gt;Node26 -->
<g id="edge32" class="edge"><title>Node24&#45;&gt;Node26</title>
<path fill="none" stroke="midnightblue" d="M300.839,-55.7723C311.487,-56.6834 322.181,-57.5984 332.369,-58.47"/>
<polygon fill="midnightblue" stroke="midnightblue" points="300.924,-52.2669 290.662,-54.9015 300.327,-59.2414 300.924,-52.2669"/>
</g>
<!-- Node27&#45;&gt;Node6 -->
<g id="edge35" class="edge"><title>Node27&#45;&gt;Node6</title>
<path fill="none" stroke="midnightblue" d="M473.82,-235.862C486.028,-235.513 498.571,-235.155 510.474,-234.815"/>
<polygon fill="midnightblue" stroke="midnightblue" points="473.562,-232.368 463.666,-236.152 473.762,-239.365 473.562,-232.368"/>
</g>
<!-- Node29&#45;&gt;Node5 -->
<g id="edge38" class="edge"><title>Node29&#45;&gt;Node5</title>
<path fill="none" stroke="midnightblue" d="M419.641,-177.965C433.65,-189.06 452.392,-204.418 468,-219 485,-234.882 484.511,-244.295 504,-257 509.838,-260.806 516.327,-264.118 522.934,-266.976"/>
<polygon fill="midnightblue" stroke="midnightblue" points="421.627,-175.074 411.6,-171.652 417.304,-180.58 421.627,-175.074"/>
</g>
<!-- Node29&#45;&gt;Node6 -->
<g id="edge39" class="edge"><title>Node29&#45;&gt;Node6</title>
<path fill="none" stroke="midnightblue" d="M440.841,-174.942C449.941,-178.2 459.411,-181.939 468,-186 484.952,-194.015 487.081,-199.915 504,-208 511.452,-211.561 519.553,-214.904 527.512,-217.915"/>
<polygon fill="midnightblue" stroke="midnightblue" points="441.765,-171.558 431.17,-171.603 439.48,-178.175 441.765,-171.558"/>
</g>
<!-- Node29&#45;&gt;Node18 -->
<g id="edge42" class="edge"><title>Node29&#45;&gt;Node18</title>
<path fill="none" stroke="midnightblue" d="M475.953,-152.326C489.531,-150.619 503.453,-148.869 516.385,-147.243"/>
<polygon fill="midnightblue" stroke="midnightblue" points="475.145,-148.9 465.659,-153.62 476.018,-155.845 475.145,-148.9"/>
</g>
<!-- Node30 -->
<g id="node30" class="node"><title>Node30</title>
<g id="a_node30"><a xlink:href="../../d9/dc3/classKalmanTrack.html#a9fb8d93bf5fe086a495e801421f605db" target="_top" xlink:title="Propagate the track to a designated position. ">
<polygon fill="none" stroke="black" points="508.5,-92.5 508.5,-111.5 641.5,-111.5 641.5,-92.5 508.5,-92.5"/>
<text text-anchor="middle" x="575" y="-99.5" font-family="FreeSans" font-size="10.00">KalmanTrack::propagateTo</text>
</a>
</g>
</g>
<!-- Node29&#45;&gt;Node30 -->
<g id="edge40" class="edge"><title>Node29&#45;&gt;Node30</title>
<path fill="none" stroke="midnightblue" d="M430.534,-148.665C451.219,-140.173 478.972,-129.257 504,-121 514.284,-117.607 525.559,-114.35 535.997,-111.52"/>
<polygon fill="midnightblue" stroke="midnightblue" points="429.178,-145.438 421.277,-152.497 431.855,-151.906 429.178,-145.438"/>
</g>
<!-- Node31 -->
<g id="node31" class="node"><title>Node31</title>
<g id="a_node31"><a xlink:href="../../d3/dc9/classKalmanFitter.html#a6822d7a32f36020b468db116726cfbc7" target="_top" xlink:title="KalmanFitter::setStarting\lParameter">
<polygon fill="none" stroke="black" points="513,-169 513,-199 637,-199 637,-169 513,-169"/>
<text text-anchor="start" x="521" y="-187" font-family="FreeSans" font-size="10.00">KalmanFitter::setStarting</text>
<text text-anchor="middle" x="575" y="-176" font-family="FreeSans" font-size="10.00">Parameter</text>
</a>
</g>
</g>
<!-- Node29&#45;&gt;Node31 -->
<g id="edge41" class="edge"><title>Node29&#45;&gt;Node31</title>
<path fill="none" stroke="midnightblue" d="M475.605,-171.63C488.112,-173.203 500.92,-174.813 512.986,-176.33"/>
<polygon fill="midnightblue" stroke="midnightblue" points="476.018,-168.155 465.659,-170.38 475.145,-175.1 476.018,-168.155"/>
</g>
<!-- Node32&#45;&gt;Node6 -->
<g id="edge45" class="edge"><title>Node32&#45;&gt;Node6</title>
<path fill="none" stroke="midnightblue" d="M273.574,-203.655C325.85,-206.907 401.821,-212.199 468,-219 481.757,-220.414 496.484,-222.19 510.451,-223.999"/>
<polygon fill="midnightblue" stroke="midnightblue" points="273.641,-200.152 263.445,-203.032 273.211,-207.139 273.641,-200.152"/>
</g>
</g>
</svg>
