<?xml version="1.0" encoding="UTF-8" standalone="no"?>
<!DOCTYPE svg PUBLIC "-//W3C//DTD SVG 1.1//EN"
 "http://www.w3.org/Graphics/SVG/1.1/DTD/svg11.dtd">
<!-- Generated by graphviz version 2.30.1 (20200930.0103)
 -->
<!-- Title: /dev/shm/kenichi/update&#45;github&#45;e1039&#45;doc/e1039&#45;core/packages/Display/display/PHEveDisplay.cxx Pages: 1 -->
<svg width="2928pt" height="342pt"
 viewBox="0.00 0.00 2927.58 342.00" xmlns="http://www.w3.org/2000/svg" xmlns:xlink="http://www.w3.org/1999/xlink">
<g id="graph0" class="graph" transform="scale(1 1) rotate(0) translate(4 338)">
<title>/dev/shm/kenichi/update&#45;github&#45;e1039&#45;doc/e1039&#45;core/packages/Display/display/PHEveDisplay.cxx</title>
<!-- Node1 -->
<g id="node1" class="node"><title>Node1</title>
<polygon fill="#bfbfbf" stroke="black" points="1590.5,-281 1590.5,-333 1739.5,-333 1739.5,-281 1590.5,-281"/>
<text text-anchor="start" x="1598.5" y="-321" font-family="FreeSans" font-size="10.00">/dev/shm/kenichi/update</text>
<text text-anchor="start" x="1598.5" y="-310" font-family="FreeSans" font-size="10.00">&#45;github&#45;e1039&#45;doc/e1039</text>
<text text-anchor="start" x="1598.5" y="-299" font-family="FreeSans" font-size="10.00">&#45;core/packages/Display/display</text>
<text text-anchor="middle" x="1665" y="-288" font-family="FreeSans" font-size="10.00">/PHEveDisplay.cxx</text>
</g>
<!-- Node2 -->
<g id="node2" class="node"><title>Node2</title>
<polygon fill="none" stroke="#bfbfbf" points="185.5,-0.5 185.5,-19.5 238.5,-19.5 238.5,-0.5 185.5,-0.5"/>
<text text-anchor="middle" x="212" y="-7.5" font-family="FreeSans" font-size="10.00">iostream</text>
</g>
<!-- Node1&#45;&gt;Node2 -->
<g id="edge1" class="edge"><title>Node1&#45;&gt;Node2</title>
<path fill="none" stroke="midnightblue" d="M1590.42,-304.929C1336.1,-300.939 504.123,-284.995 240,-244 130.798,-227.05 0,-289.509 0,-179 0,-179 0,-179 0,-121 0,-42.9971 114.476,-20.2346 175.186,-13.6476"/>
<polygon fill="midnightblue" stroke="midnightblue" points="175.544,-17.1293 185.15,-12.6593 174.853,-10.1635 175.544,-17.1293"/>
</g>
<!-- Node3 -->
<g id="node3" class="node"><title>Node3</title>
<polygon fill="none" stroke="#bfbfbf" points="477,-56.5 477,-75.5 517,-75.5 517,-56.5 477,-56.5"/>
<text text-anchor="middle" x="497" y="-63.5" font-family="FreeSans" font-size="10.00">string</text>
</g>
<!-- Node1&#45;&gt;Node3 -->
<g id="edge2" class="edge"><title>Node1&#45;&gt;Node3</title>
<path fill="none" stroke="midnightblue" d="M1590.25,-304.761C1339.4,-300.248 541.127,-282.875 503,-244 497.529,-238.422 496.963,-130.074 496.963,-85.7035"/>
<polygon fill="midnightblue" stroke="midnightblue" points="500.462,-85.6842 496.972,-75.6807 493.462,-85.6773 500.462,-85.6842"/>
</g>
<!-- Node4 -->
<g id="node4" class="node"><title>Node4</title>
<polygon fill="none" stroke="#bfbfbf" points="398,-224.5 398,-243.5 456,-243.5 456,-224.5 398,-224.5"/>
<text text-anchor="middle" x="427" y="-231.5" font-family="FreeSans" font-size="10.00">stdexcept</text>
</g>
<!-- Node1&#45;&gt;Node4 -->
<g id="edge3" class="edge"><title>Node1&#45;&gt;Node4</title>
<path fill="none" stroke="midnightblue" d="M1590.18,-306.121C1401.45,-305.558 891.045,-298.652 470,-244 468.724,-243.834 467.429,-243.651 466.123,-243.454"/>
<polygon fill="midnightblue" stroke="midnightblue" points="466.49,-239.966 456.04,-241.713 465.299,-246.864 466.49,-239.966"/>
</g>
<!-- Node5 -->
<g id="node5" class="node"><title>Node5</title>
<g id="a_node5"><a xlink:href="../../dc/da2/Fun4AllServer_8h.html" target="_top" target="_top" target="_top" xlink:title="fun4all/Fun4AllServer.h">
<polygon fill="none" stroke="black" points="249,-224.5 249,-243.5 365,-243.5 365,-224.5 249,-224.5"/>
<text text-anchor="middle" x="307" y="-231.5" font-family="FreeSans" font-size="10.00">fun4all/Fun4AllServer.h</text>
</a>
</g>
</g>
<!-- Node1&#45;&gt;Node5 -->
<g id="edge4" class="edge"><title>Node1&#45;&gt;Node5</title>
<path fill="none" stroke="midnightblue" d="M1590.47,-303.962C1393.82,-298.241 844.739,-280.049 389,-244 384.543,-243.647 379.953,-243.247 375.33,-242.816"/>
<polygon fill="midnightblue" stroke="midnightblue" points="375.485,-239.314 365.193,-241.829 374.807,-246.281 375.485,-239.314"/>
</g>
<!-- Node14 -->
<g id="node14" class="node"><title>Node14</title>
<g id="a_node14"><a xlink:href="../../d8/d30/PHCompositeNode_8h.html" target="_top" target="_top" target="_top" xlink:title="phool/PHCompositeNode.h">
<polygon fill="none" stroke="black" points="614,-224.5 614,-243.5 746,-243.5 746,-224.5 614,-224.5"/>
<text text-anchor="middle" x="680" y="-231.5" font-family="FreeSans" font-size="10.00">phool/PHCompositeNode.h</text>
</a>
</g>
</g>
<!-- Node1&#45;&gt;Node14 -->
<g id="edge21" class="edge"><title>Node1&#45;&gt;Node14</title>
<path fill="none" stroke="midnightblue" d="M1590.29,-302.213C1436.36,-294.127 1072.53,-273.552 756.511,-244.098"/>
<polygon fill="midnightblue" stroke="midnightblue" points="756.516,-240.583 746.234,-243.135 755.864,-247.553 756.516,-240.583"/>
</g>
<!-- Node15 -->
<g id="node15" class="node"><title>Node15</title>
<g id="a_node15"><a xlink:href="../../d5/d6f/phool_8h.html" target="_top" target="_top" target="_top" xlink:title="phool.h">
<polygon fill="none" stroke="black" points="698.5,-56.5 698.5,-75.5 745.5,-75.5 745.5,-56.5 698.5,-56.5"/>
<text text-anchor="middle" x="722" y="-63.5" font-family="FreeSans" font-size="10.00">phool.h</text>
</a>
</g>
</g>
<!-- Node1&#45;&gt;Node15 -->
<g id="edge32" class="edge"><title>Node1&#45;&gt;Node15</title>
<path fill="none" stroke="midnightblue" d="M1739.91,-305.1C2003.47,-301.574 2874.35,-286.719 2915,-244 2921.13,-237.561 2921.06,-230.506 2915,-224 2761.24,-58.8385 1020.35,-64.8413 755.651,-66.7182"/>
<polygon fill="midnightblue" stroke="midnightblue" points="755.476,-63.2193 745.502,-66.7934 755.528,-70.2191 755.476,-63.2193"/>
</g>
<!-- Node19 -->
<g id="node19" class="node"><title>Node19</title>
<polygon fill="none" stroke="#bfbfbf" points="764.5,-224.5 764.5,-243.5 889.5,-243.5 889.5,-224.5 764.5,-224.5"/>
<text text-anchor="middle" x="827" y="-231.5" font-family="FreeSans" font-size="10.00">phgeom/PHGeomUtility.h</text>
</g>
<!-- Node1&#45;&gt;Node19 -->
<g id="edge33" class="edge"><title>Node1&#45;&gt;Node19</title>
<path fill="none" stroke="midnightblue" d="M1590.32,-301.095C1454.79,-291.945 1159.1,-270.841 899.691,-244.138"/>
<polygon fill="midnightblue" stroke="midnightblue" points="900.009,-240.652 889.702,-243.105 899.289,-247.615 900.009,-240.652"/>
</g>
<!-- Node20 -->
<g id="node20" class="node"><title>Node20</title>
<polygon fill="none" stroke="#bfbfbf" points="907.5,-224.5 907.5,-243.5 990.5,-243.5 990.5,-224.5 907.5,-224.5"/>
<text text-anchor="middle" x="949" y="-231.5" font-family="FreeSans" font-size="10.00">TEveManager.h</text>
</g>
<!-- Node1&#45;&gt;Node20 -->
<g id="edge34" class="edge"><title>Node1&#45;&gt;Node20</title>
<path fill="none" stroke="midnightblue" d="M1590.48,-301.048C1469.12,-292.543 1221.11,-273.329 1000.84,-244.005"/>
<polygon fill="midnightblue" stroke="midnightblue" points="1001.08,-240.506 990.705,-242.646 1000.15,-247.444 1001.08,-240.506"/>
</g>
<!-- Node21 -->
<g id="node21" class="node"><title>Node21</title>
<polygon fill="none" stroke="#bfbfbf" points="1009,-224.5 1009,-243.5 1105,-243.5 1105,-224.5 1009,-224.5"/>
<text text-anchor="middle" x="1057" y="-231.5" font-family="FreeSans" font-size="10.00">TEveVSDStructs.h</text>
</g>
<!-- Node1&#45;&gt;Node21 -->
<g id="edge35" class="edge"><title>Node1&#45;&gt;Node21</title>
<path fill="none" stroke="midnightblue" d="M1590.45,-298.676C1486.39,-288.215 1291.45,-267.757 1115.16,-244.107"/>
<polygon fill="midnightblue" stroke="midnightblue" points="1115.56,-240.629 1105.18,-242.762 1114.62,-247.566 1115.56,-240.629"/>
</g>
<!-- Node22 -->
<g id="node22" class="node"><title>Node22</title>
<polygon fill="none" stroke="#bfbfbf" points="1123,-224.5 1123,-243.5 1209,-243.5 1209,-224.5 1123,-224.5"/>
<text text-anchor="middle" x="1166" y="-231.5" font-family="FreeSans" font-size="10.00">TEveGeoNode.h</text>
</g>
<!-- Node1&#45;&gt;Node22 -->
<g id="edge36" class="edge"><title>Node1&#45;&gt;Node22</title>
<path fill="none" stroke="midnightblue" d="M1590.15,-296.398C1503.44,-285.1 1356.05,-265.352 1219.35,-244.169"/>
<polygon fill="midnightblue" stroke="midnightblue" points="1219.53,-240.655 1209.11,-242.576 1218.46,-247.572 1219.53,-240.655"/>
</g>
<!-- Node23 -->
<g id="node23" class="node"><title>Node23</title>
<polygon fill="none" stroke="#bfbfbf" points="1227,-224.5 1227,-243.5 1301,-243.5 1301,-224.5 1227,-224.5"/>
<text text-anchor="middle" x="1264" y="-231.5" font-family="FreeSans" font-size="10.00">TEveVector.h</text>
</g>
<!-- Node1&#45;&gt;Node23 -->
<g id="edge37" class="edge"><title>Node1&#45;&gt;Node23</title>
<path fill="none" stroke="midnightblue" d="M1590.35,-293.279C1520.91,-281.364 1414.27,-262.862 1311.16,-244.004"/>
<polygon fill="midnightblue" stroke="midnightblue" points="1311.66,-240.537 1301.19,-242.178 1310.4,-247.423 1311.66,-240.537"/>
</g>
<!-- Node24 -->
<g id="node24" class="node"><title>Node24</title>
<polygon fill="none" stroke="#bfbfbf" points="1319.5,-224.5 1319.5,-243.5 1390.5,-243.5 1390.5,-224.5 1319.5,-224.5"/>
<text text-anchor="middle" x="1355" y="-231.5" font-family="FreeSans" font-size="10.00">TEveTrack.h</text>
</g>
<!-- Node1&#45;&gt;Node24 -->
<g id="edge38" class="edge"><title>Node1&#45;&gt;Node24</title>
<path fill="none" stroke="midnightblue" d="M1590.35,-288.903C1531.19,-275.352 1450.43,-256.856 1400.55,-245.432"/>
<polygon fill="midnightblue" stroke="midnightblue" points="1401.23,-241.997 1390.7,-243.176 1399.66,-248.82 1401.23,-241.997"/>
</g>
<!-- Node25 -->
<g id="node25" class="node"><title>Node25</title>
<polygon fill="none" stroke="#bfbfbf" points="1069,-168.5 1069,-187.5 1187,-187.5 1187,-168.5 1069,-168.5"/>
<text text-anchor="middle" x="1128" y="-175.5" font-family="FreeSans" font-size="10.00">TEveTrackPropagator.h</text>
</g>
<!-- Node1&#45;&gt;Node25 -->
<g id="edge39" class="edge"><title>Node1&#45;&gt;Node25</title>
<path fill="none" stroke="midnightblue" d="M1590.29,-289.409C1545.68,-278.546 1488.3,-262.878 1439,-244 1420.44,-236.892 1417.9,-230.141 1399,-224 1332.28,-202.325 1252.76,-190.702 1197.18,-184.735"/>
<polygon fill="midnightblue" stroke="midnightblue" points="1197.4,-181.239 1187.09,-183.685 1196.67,-188.201 1197.4,-181.239"/>
</g>
<!-- Node26 -->
<g id="node26" class="node"><title>Node26</title>
<polygon fill="none" stroke="#bfbfbf" points="1447.5,-224.5 1447.5,-243.5 1530.5,-243.5 1530.5,-224.5 1447.5,-224.5"/>
<text text-anchor="middle" x="1489" y="-231.5" font-family="FreeSans" font-size="10.00">TEvePointSet.h</text>
</g>
<!-- Node1&#45;&gt;Node26 -->
<g id="edge40" class="edge"><title>Node1&#45;&gt;Node26</title>
<path fill="none" stroke="midnightblue" d="M1602.95,-280.968C1574.84,-269.63 1542.86,-256.728 1519.95,-247.485"/>
<polygon fill="midnightblue" stroke="midnightblue" points="1521,-244.134 1510.41,-243.639 1518.38,-250.626 1521,-244.134"/>
</g>
<!-- Node27 -->
<g id="node27" class="node"><title>Node27</title>
<polygon fill="none" stroke="#bfbfbf" points="1548.5,-224.5 1548.5,-243.5 1665.5,-243.5 1665.5,-224.5 1548.5,-224.5"/>
<text text-anchor="middle" x="1607" y="-231.5" font-family="FreeSans" font-size="10.00">TEveWindowManager.h</text>
</g>
<!-- Node1&#45;&gt;Node27 -->
<g id="edge41" class="edge"><title>Node1&#45;&gt;Node27</title>
<path fill="none" stroke="midnightblue" d="M1644.39,-280.768C1636.48,-271.083 1627.65,-260.281 1620.56,-251.605"/>
<polygon fill="midnightblue" stroke="midnightblue" points="1623.19,-249.287 1614.15,-243.757 1617.77,-253.716 1623.19,-249.287"/>
</g>
<!-- Node28 -->
<g id="node28" class="node"><title>Node28</title>
<polygon fill="none" stroke="#bfbfbf" points="1684,-224.5 1684,-243.5 1764,-243.5 1764,-224.5 1684,-224.5"/>
<text text-anchor="middle" x="1724" y="-231.5" font-family="FreeSans" font-size="10.00">TEveWindow.h</text>
</g>
<!-- Node1&#45;&gt;Node28 -->
<g id="edge42" class="edge"><title>Node1&#45;&gt;Node28</title>
<path fill="none" stroke="midnightblue" d="M1685.97,-280.768C1694.02,-271.083 1702.99,-260.281 1710.2,-251.605"/>
<polygon fill="midnightblue" stroke="midnightblue" points="1713.02,-253.685 1716.72,-243.757 1707.64,-249.211 1713.02,-253.685"/>
</g>
<!-- Node29 -->
<g id="node29" class="node"><title>Node29</title>
<polygon fill="none" stroke="#bfbfbf" points="1782,-224.5 1782,-243.5 1856,-243.5 1856,-224.5 1782,-224.5"/>
<text text-anchor="middle" x="1819" y="-231.5" font-family="FreeSans" font-size="10.00">TEveViewer.h</text>
</g>
<!-- Node1&#45;&gt;Node29 -->
<g id="edge43" class="edge"><title>Node1&#45;&gt;Node29</title>
<path fill="none" stroke="midnightblue" d="M1719.29,-280.968C1743.56,-269.783 1771.12,-257.075 1791.11,-247.86"/>
<polygon fill="midnightblue" stroke="midnightblue" points="1792.65,-251.004 1800.26,-243.639 1789.72,-244.647 1792.65,-251.004"/>
</g>
<!-- Node30 -->
<g id="node30" class="node"><title>Node30</title>
<polygon fill="none" stroke="#bfbfbf" points="1874,-224.5 1874,-243.5 1954,-243.5 1954,-224.5 1874,-224.5"/>
<text text-anchor="middle" x="1914" y="-231.5" font-family="FreeSans" font-size="10.00">TEveBrowser.h</text>
</g>
<!-- Node1&#45;&gt;Node30 -->
<g id="edge44" class="edge"><title>Node1&#45;&gt;Node30</title>
<path fill="none" stroke="midnightblue" d="M1739.71,-284.698C1783.97,-272.078 1838.27,-256.592 1874.39,-246.295"/>
<polygon fill="midnightblue" stroke="midnightblue" points="1875.41,-249.643 1884.07,-243.534 1873.49,-242.911 1875.41,-249.643"/>
</g>
<!-- Node31 -->
<g id="node31" class="node"><title>Node31</title>
<polygon fill="none" stroke="#bfbfbf" points="1972,-224.5 1972,-243.5 2058,-243.5 2058,-224.5 1972,-224.5"/>
<text text-anchor="middle" x="2015" y="-231.5" font-family="FreeSans" font-size="10.00">TGeoManager.h</text>
</g>
<!-- Node1&#45;&gt;Node31 -->
<g id="edge45" class="edge"><title>Node1&#45;&gt;Node31</title>
<path fill="none" stroke="midnightblue" d="M1739.65,-290.856C1806.84,-277.227 1903.82,-257.553 1962.95,-245.558"/>
<polygon fill="midnightblue" stroke="midnightblue" points="1963.72,-248.974 1972.82,-243.556 1962.33,-242.114 1963.72,-248.974"/>
</g>
<!-- Node32 -->
<g id="node32" class="node"><title>Node32</title>
<polygon fill="none" stroke="#bfbfbf" points="2076.5,-224.5 2076.5,-243.5 2147.5,-243.5 2147.5,-224.5 2076.5,-224.5"/>
<text text-anchor="middle" x="2112" y="-231.5" font-family="FreeSans" font-size="10.00">TGeoNode.h</text>
</g>
<!-- Node1&#45;&gt;Node32 -->
<g id="edge46" class="edge"><title>Node1&#45;&gt;Node32</title>
<path fill="none" stroke="midnightblue" d="M1739.62,-295.502C1818.25,-284.212 1945.92,-265.23 2066.05,-244.103"/>
<polygon fill="midnightblue" stroke="midnightblue" points="2066.93,-247.502 2076.17,-242.316 2065.71,-240.609 2066.93,-247.502"/>
</g>
<!-- Node33 -->
<g id="node33" class="node"><title>Node33</title>
<polygon fill="none" stroke="#bfbfbf" points="2166,-224.5 2166,-243.5 2246,-243.5 2246,-224.5 2166,-224.5"/>
<text text-anchor="middle" x="2206" y="-231.5" font-family="FreeSans" font-size="10.00">TGeoVolume.h</text>
</g>
<!-- Node1&#45;&gt;Node33 -->
<g id="edge47" class="edge"><title>Node1&#45;&gt;Node33</title>
<path fill="none" stroke="midnightblue" d="M1739.62,-297.812C1836,-286.953 2008.86,-266.517 2156,-244 2156.1,-243.985 2156.2,-243.969 2156.3,-243.954"/>
<polygon fill="midnightblue" stroke="midnightblue" points="2156.6,-247.451 2165.91,-242.407 2155.48,-240.54 2156.6,-247.451"/>
</g>
<!-- Node34 -->
<g id="node34" class="node"><title>Node34</title>
<polygon fill="none" stroke="#bfbfbf" points="2264.5,-224.5 2264.5,-243.5 2347.5,-243.5 2347.5,-224.5 2264.5,-224.5"/>
<text text-anchor="middle" x="2306" y="-231.5" font-family="FreeSans" font-size="10.00">TGeoMedium.h</text>
</g>
<!-- Node1&#45;&gt;Node34 -->
<g id="edge48" class="edge"><title>Node1&#45;&gt;Node34</title>
<path fill="none" stroke="midnightblue" d="M1739.71,-299.837C1849.98,-290.366 2062.96,-270.645 2254.33,-244.002"/>
<polygon fill="midnightblue" stroke="midnightblue" points="2254.87,-247.46 2264.29,-242.606 2253.9,-240.527 2254.87,-247.46"/>
</g>
<!-- Node35 -->
<g id="node35" class="node"><title>Node35</title>
<polygon fill="none" stroke="#bfbfbf" points="2365.5,-224.5 2365.5,-243.5 2436.5,-243.5 2436.5,-224.5 2365.5,-224.5"/>
<text text-anchor="middle" x="2401" y="-231.5" font-family="FreeSans" font-size="10.00">TGLViewer.h</text>
</g>
<!-- Node1&#45;&gt;Node35 -->
<g id="edge49" class="edge"><title>Node1&#45;&gt;Node35</title>
<path fill="none" stroke="midnightblue" d="M1739.7,-301.948C1864.91,-294.573 2125.16,-276.751 2354.97,-243.993"/>
<polygon fill="midnightblue" stroke="midnightblue" points="2355.8,-247.41 2365.2,-242.522 2354.8,-240.482 2355.8,-247.41"/>
</g>
<!-- Node36 -->
<g id="node36" class="node"><title>Node36</title>
<polygon fill="none" stroke="#bfbfbf" points="2455,-224.5 2455,-243.5 2515,-243.5 2515,-224.5 2455,-224.5"/>
<text text-anchor="middle" x="2485" y="-231.5" font-family="FreeSans" font-size="10.00">TGPack.h</text>
</g>
<!-- Node1&#45;&gt;Node36 -->
<g id="edge50" class="edge"><title>Node1&#45;&gt;Node36</title>
<path fill="none" stroke="midnightblue" d="M1739.61,-303.595C1878.92,-298.324 2187.79,-282.957 2445,-244 2445.1,-243.985 2445.2,-243.969 2445.3,-243.954"/>
<polygon fill="midnightblue" stroke="midnightblue" points="2445.71,-247.436 2454.95,-242.243 2444.49,-240.544 2445.71,-247.436"/>
</g>
<!-- Node37 -->
<g id="node37" class="node"><title>Node37</title>
<polygon fill="none" stroke="#bfbfbf" points="2533,-224.5 2533,-243.5 2595,-243.5 2595,-224.5 2533,-224.5"/>
<text text-anchor="middle" x="2564" y="-231.5" font-family="FreeSans" font-size="10.00">TSystem.h</text>
</g>
<!-- Node1&#45;&gt;Node37 -->
<g id="edge51" class="edge"><title>Node1&#45;&gt;Node37</title>
<path fill="none" stroke="midnightblue" d="M1739.52,-304.36C1887.35,-300.293 2228.17,-286.866 2522.63,-243.993"/>
<polygon fill="midnightblue" stroke="midnightblue" points="2523.26,-247.438 2532.64,-242.521 2522.24,-240.512 2523.26,-247.438"/>
</g>
<!-- Node38 -->
<g id="node38" class="node"><title>Node38</title>
<polygon fill="none" stroke="#bfbfbf" points="2613,-224.5 2613,-243.5 2665,-243.5 2665,-224.5 2613,-224.5"/>
<text text-anchor="middle" x="2639" y="-231.5" font-family="FreeSans" font-size="10.00">TStyle.h</text>
</g>
<!-- Node1&#45;&gt;Node38 -->
<g id="edge52" class="edge"><title>Node1&#45;&gt;Node38</title>
<path fill="none" stroke="midnightblue" d="M1739.78,-305.761C1897.87,-304.239 2277.5,-295.216 2602.65,-243.919"/>
<polygon fill="midnightblue" stroke="midnightblue" points="2603.41,-247.342 2612.74,-242.311 2602.31,-240.429 2603.41,-247.342"/>
</g>
<!-- Node39 -->
<g id="node39" class="node"><title>Node39</title>
<polygon fill="none" stroke="#bfbfbf" points="2683,-224.5 2683,-243.5 2729,-243.5 2729,-224.5 2683,-224.5"/>
<text text-anchor="middle" x="2706" y="-231.5" font-family="FreeSans" font-size="10.00">TFile.h</text>
</g>
<!-- Node1&#45;&gt;Node39 -->
<g id="edge53" class="edge"><title>Node1&#45;&gt;Node39</title>
<path fill="none" stroke="midnightblue" d="M1739.67,-306.814C1906.24,-307.466 2320.57,-302.63 2672.83,-243.834"/>
<polygon fill="midnightblue" stroke="midnightblue" points="2673.43,-247.282 2682.71,-242.168 2672.27,-240.38 2673.43,-247.282"/>
</g>
<!-- Node40 -->
<g id="node40" class="node"><title>Node40</title>
<polygon fill="none" stroke="#bfbfbf" points="2747,-224.5 2747,-243.5 2799,-243.5 2799,-224.5 2747,-224.5"/>
<text text-anchor="middle" x="2773" y="-231.5" font-family="FreeSans" font-size="10.00">TMath.h</text>
</g>
<!-- Node1&#45;&gt;Node40 -->
<g id="edge54" class="edge"><title>Node1&#45;&gt;Node40</title>
<path fill="none" stroke="midnightblue" d="M1739.67,-306.644C1913.51,-307.076 2358.59,-302.025 2736.7,-243.894"/>
<polygon fill="midnightblue" stroke="midnightblue" points="2737.4,-247.328 2746.74,-242.335 2736.32,-240.41 2737.4,-247.328"/>
</g>
<!-- Node41 -->
<g id="node41" class="node"><title>Node41</title>
<polygon fill="none" stroke="#bfbfbf" points="2817.5,-224.5 2817.5,-243.5 2906.5,-243.5 2906.5,-224.5 2817.5,-224.5"/>
<text text-anchor="middle" x="2862" y="-231.5" font-family="FreeSans" font-size="10.00">phfield/PHField.h</text>
</g>
<!-- Node1&#45;&gt;Node41 -->
<g id="edge55" class="edge"><title>Node1&#45;&gt;Node41</title>
<path fill="none" stroke="midnightblue" d="M1739.79,-304.812C1921.13,-301.314 2398.74,-288.398 2807.03,-243.971"/>
<polygon fill="midnightblue" stroke="midnightblue" points="2807.7,-247.418 2817.26,-242.849 2806.94,-240.459 2807.7,-247.418"/>
</g>
<!-- Node42 -->
<g id="node42" class="node"><title>Node42</title>
<g id="a_node42"><a xlink:href="../../dc/dbe/PHEveDisplay_8h.html" target="_top" target="_top" target="_top" xlink:title="PHEveDisplay.h">
<polygon fill="none" stroke="black" points="512,-224.5 512,-243.5 596,-243.5 596,-224.5 512,-224.5"/>
<text text-anchor="middle" x="554" y="-231.5" font-family="FreeSans" font-size="10.00">PHEveDisplay.h</text>
</a>
</g>
</g>
<!-- Node1&#45;&gt;Node42 -->
<g id="edge56" class="edge"><title>Node1&#45;&gt;Node42</title>
<path fill="none" stroke="midnightblue" d="M1590.2,-304.611C1418.12,-300.769 980.791,-287.326 606.195,-244.004"/>
<polygon fill="midnightblue" stroke="midnightblue" points="606.583,-240.526 596.245,-242.845 605.773,-247.479 606.583,-240.526"/>
</g>
<!-- Node6 -->
<g id="node6" class="node"><title>Node6</title>
<g id="a_node6"><a xlink:href="../../d2/de7/Fun4AllBase_8h.html" target="_top" target="_top" target="_top" xlink:title="Fun4AllBase.h">
<polygon fill="none" stroke="black" points="240.5,-112.5 240.5,-131.5 319.5,-131.5 319.5,-112.5 240.5,-112.5"/>
<text text-anchor="middle" x="280" y="-119.5" font-family="FreeSans" font-size="10.00">Fun4AllBase.h</text>
</a>
</g>
</g>
<!-- Node5&#45;&gt;Node6 -->
<g id="edge5" class="edge"><title>Node5&#45;&gt;Node6</title>
<path fill="none" stroke="midnightblue" d="M275.191,-224.385C257.054,-217.661 235.836,-206.306 225,-188 213.508,-168.584 235.268,-149.216 254.716,-136.739"/>
<polygon fill="midnightblue" stroke="midnightblue" points="256.612,-139.683 263.361,-131.516 252.992,-133.692 256.612,-139.683"/>
</g>
<!-- Node8 -->
<g id="node8" class="node"><title>Node8</title>
<g id="a_node8"><a xlink:href="../../d0/d59/Fun4AllHistoManager_8h.html" target="_top" target="_top" target="_top" xlink:title="Fun4AllHistoManager.h">
<polygon fill="none" stroke="black" points="234,-168.5 234,-187.5 350,-187.5 350,-168.5 234,-168.5"/>
<text text-anchor="middle" x="292" y="-175.5" font-family="FreeSans" font-size="10.00">Fun4AllHistoManager.h</text>
</a>
</g>
</g>
<!-- Node5&#45;&gt;Node8 -->
<g id="edge8" class="edge"><title>Node5&#45;&gt;Node8</title>
<path fill="none" stroke="midnightblue" d="M304.523,-224.083C302.514,-216.849 299.614,-206.409 297.11,-197.397"/>
<polygon fill="midnightblue" stroke="midnightblue" points="300.48,-196.449 294.431,-187.751 293.735,-198.323 300.48,-196.449"/>
</g>
<!-- Node10 -->
<g id="node10" class="node"><title>Node10</title>
<g id="a_node10"><a xlink:href="../../dc/d26/PHTimer_8h.html" target="_top" target="_top" target="_top" xlink:title="high precision timer ">
<polygon fill="none" stroke="black" points="86.5,-168.5 86.5,-187.5 175.5,-187.5 175.5,-168.5 86.5,-168.5"/>
<text text-anchor="middle" x="131" y="-175.5" font-family="FreeSans" font-size="10.00">phool/PHTimer.h</text>
</a>
</g>
</g>
<!-- Node5&#45;&gt;Node10 -->
<g id="edge13" class="edge"><title>Node5&#45;&gt;Node10</title>
<path fill="none" stroke="midnightblue" d="M279.112,-224.444C249.246,-215.28 201.685,-200.688 168.544,-190.519"/>
<polygon fill="midnightblue" stroke="midnightblue" points="169.344,-187.104 158.757,-187.516 167.291,-193.796 169.344,-187.104"/>
</g>
<!-- Node5&#45;&gt;Node2 -->
<g id="edge17" class="edge"><title>Node5&#45;&gt;Node2</title>
<path fill="none" stroke="midnightblue" d="M248.839,-229.829C187.986,-225.151 98.3679,-213.954 77,-188 38.0367,-140.675 73.195,-98.8829 117,-56 133.4,-39.9455 156.611,-28.8052 175.985,-21.625"/>
<polygon fill="midnightblue" stroke="midnightblue" points="177.143,-24.9281 185.425,-18.3203 174.83,-18.3212 177.143,-24.9281"/>
</g>
<!-- Node9 -->
<g id="node9" class="node"><title>Node9</title>
<polygon fill="none" stroke="#bfbfbf" points="414.5,-112.5 414.5,-131.5 449.5,-131.5 449.5,-112.5 414.5,-112.5"/>
<text text-anchor="middle" x="432" y="-119.5" font-family="FreeSans" font-size="10.00">map</text>
</g>
<!-- Node5&#45;&gt;Node9 -->
<g id="edge18" class="edge"><title>Node5&#45;&gt;Node9</title>
<path fill="none" stroke="midnightblue" d="M356.904,-224.499C379.377,-218.139 404.327,-207.099 420,-188 430.569,-175.121 433.01,-155.943 433.142,-141.754"/>
<polygon fill="midnightblue" stroke="midnightblue" points="436.638,-141.559 432.865,-131.659 429.641,-141.752 436.638,-141.559"/>
</g>
<!-- Node5&#45;&gt;Node3 -->
<g id="edge19" class="edge"><title>Node5&#45;&gt;Node3</title>
<path fill="none" stroke="midnightblue" d="M361.768,-224.488C387.672,-218.107 417.547,-207.051 439,-188 470.244,-160.253 486.179,-111.984 492.919,-85.5742"/>
<polygon fill="midnightblue" stroke="midnightblue" points="496.355,-86.2562 495.263,-75.7177 489.545,-84.6369 496.355,-86.2562"/>
</g>
<!-- Node13 -->
<g id="node13" class="node"><title>Node13</title>
<polygon fill="none" stroke="#bfbfbf" points="368.5,-168.5 368.5,-187.5 411.5,-187.5 411.5,-168.5 368.5,-168.5"/>
<text text-anchor="middle" x="390" y="-175.5" font-family="FreeSans" font-size="10.00">vector</text>
</g>
<!-- Node5&#45;&gt;Node13 -->
<g id="edge20" class="edge"><title>Node5&#45;&gt;Node13</title>
<path fill="none" stroke="midnightblue" d="M320.335,-224.324C333.162,-215.979 352.785,-203.212 367.94,-193.352"/>
<polygon fill="midnightblue" stroke="midnightblue" points="370.224,-196.042 376.698,-187.655 366.407,-190.174 370.224,-196.042"/>
</g>
<!-- Node6&#45;&gt;Node3 -->
<g id="edge6" class="edge"><title>Node6&#45;&gt;Node3</title>
<path fill="none" stroke="midnightblue" d="M314.384,-112.444C356.401,-101.988 426.823,-84.4634 466.827,-74.5085"/>
<polygon fill="midnightblue" stroke="midnightblue" points="467.922,-77.8428 476.781,-72.0315 466.232,-71.05 467.922,-77.8428"/>
</g>
<!-- Node7 -->
<g id="node7" class="node"><title>Node7</title>
<polygon fill="none" stroke="#bfbfbf" points="258,-56.5 258,-75.5 302,-75.5 302,-56.5 258,-56.5"/>
<text text-anchor="middle" x="280" y="-63.5" font-family="FreeSans" font-size="10.00">climits</text>
</g>
<!-- Node6&#45;&gt;Node7 -->
<g id="edge7" class="edge"><title>Node6&#45;&gt;Node7</title>
<path fill="none" stroke="midnightblue" d="M280,-112.083C280,-105.006 280,-94.8611 280,-85.9865"/>
<polygon fill="midnightblue" stroke="midnightblue" points="283.5,-85.751 280,-75.7511 276.5,-85.7511 283.5,-85.751"/>
</g>
<!-- Node8&#45;&gt;Node6 -->
<g id="edge9" class="edge"><title>Node8&#45;&gt;Node6</title>
<path fill="none" stroke="midnightblue" d="M290.018,-168.083C288.428,-160.927 286.141,-150.635 284.154,-141.691"/>
<polygon fill="midnightblue" stroke="midnightblue" points="287.531,-140.754 281.945,-131.751 280.697,-142.272 287.531,-140.754"/>
</g>
<!-- Node8&#45;&gt;Node2 -->
<g id="edge10" class="edge"><title>Node8&#45;&gt;Node2</title>
<path fill="none" stroke="midnightblue" d="M302.162,-168.185C310.908,-159.87 322.9,-146.539 328,-132 339.457,-99.3387 333.809,-82.0344 311,-56 294.782,-37.4885 269.411,-26.1613 248.414,-19.5017"/>
<polygon fill="midnightblue" stroke="midnightblue" points="249.402,-16.1441 238.821,-16.6788 247.426,-22.8594 249.402,-16.1441"/>
</g>
<!-- Node8&#45;&gt;Node9 -->
<g id="edge11" class="edge"><title>Node8&#45;&gt;Node9</title>
<path fill="none" stroke="midnightblue" d="M314.183,-168.444C338.796,-158.95 378.515,-143.63 404.937,-133.439"/>
<polygon fill="midnightblue" stroke="midnightblue" points="406.283,-136.671 414.353,-129.807 403.764,-130.14 406.283,-136.671"/>
</g>
<!-- Node8&#45;&gt;Node3 -->
<g id="edge12" class="edge"><title>Node8&#45;&gt;Node3</title>
<path fill="none" stroke="midnightblue" d="M306.099,-168.482C327.317,-155.757 368.826,-131.223 405,-112 426.295,-100.684 450.848,-88.7276 469.23,-79.9858"/>
<polygon fill="midnightblue" stroke="midnightblue" points="470.946,-83.0462 478.489,-75.6062 467.953,-76.7184 470.946,-83.0462"/>
</g>
<!-- Node10&#45;&gt;Node2 -->
<g id="edge14" class="edge"><title>Node10&#45;&gt;Node2</title>
<path fill="none" stroke="midnightblue" d="M120.348,-168.389C106.58,-156.147 85.4419,-132.878 95,-112 113.566,-71.4467 157.344,-40.9772 185.769,-24.5923"/>
<polygon fill="midnightblue" stroke="midnightblue" points="187.73,-27.5064 194.762,-19.5814 184.323,-21.3916 187.73,-27.5064"/>
</g>
<!-- Node11 -->
<g id="node11" class="node"><title>Node11</title>
<polygon fill="none" stroke="#bfbfbf" points="172,-112.5 172,-131.5 222,-131.5 222,-112.5 172,-112.5"/>
<text text-anchor="middle" x="197" y="-119.5" font-family="FreeSans" font-size="10.00">sstream</text>
</g>
<!-- Node10&#45;&gt;Node11 -->
<g id="edge15" class="edge"><title>Node10&#45;&gt;Node11</title>
<path fill="none" stroke="midnightblue" d="M141.604,-168.324C151.456,-160.263 166.351,-148.077 178.215,-138.369"/>
<polygon fill="midnightblue" stroke="midnightblue" points="180.68,-140.875 186.203,-131.834 176.247,-135.457 180.68,-140.875"/>
</g>
<!-- Node12 -->
<g id="node12" class="node"><title>Node12</title>
<polygon fill="none" stroke="#bfbfbf" points="104,-112.5 104,-131.5 154,-131.5 154,-112.5 104,-112.5"/>
<text text-anchor="middle" x="129" y="-119.5" font-family="FreeSans" font-size="10.00">unistd.h</text>
</g>
<!-- Node10&#45;&gt;Node12 -->
<g id="edge16" class="edge"><title>Node10&#45;&gt;Node12</title>
<path fill="none" stroke="midnightblue" d="M130.67,-168.083C130.408,-161.006 130.032,-150.861 129.703,-141.986"/>
<polygon fill="midnightblue" stroke="midnightblue" points="133.192,-141.615 129.324,-131.751 126.197,-141.874 133.192,-141.615"/>
</g>
<!-- Node14&#45;&gt;Node15 -->
<g id="edge22" class="edge"><title>Node14&#45;&gt;Node15</title>
<path fill="none" stroke="midnightblue" d="M694.661,-224.402C706.406,-216.585 722.031,-203.862 729,-188 743.827,-154.254 735.085,-110.036 728.087,-85.4776"/>
<polygon fill="midnightblue" stroke="midnightblue" points="731.362,-84.2208 725.085,-75.6857 724.67,-86.2724 731.362,-84.2208"/>
</g>
<!-- Node16 -->
<g id="node16" class="node"><title>Node16</title>
<g id="a_node16"><a xlink:href="../../d3/d62/PHNode_8h.html" target="_top" target="_top" target="_top" xlink:title="PHNode.h">
<polygon fill="none" stroke="black" points="582,-112.5 582,-131.5 642,-131.5 642,-112.5 582,-112.5"/>
<text text-anchor="middle" x="612" y="-119.5" font-family="FreeSans" font-size="10.00">PHNode.h</text>
</a>
</g>
</g>
<!-- Node14&#45;&gt;Node16 -->
<g id="edge24" class="edge"><title>Node14&#45;&gt;Node16</title>
<path fill="none" stroke="midnightblue" d="M665.918,-224.417C654.031,-216.439 637.476,-203.477 628,-188 619.371,-173.907 615.392,-155.417 613.559,-141.762"/>
<polygon fill="midnightblue" stroke="midnightblue" points="617.019,-141.2 612.469,-131.632 610.059,-141.949 617.019,-141.2"/>
</g>
<!-- Node18 -->
<g id="node18" class="node"><title>Node18</title>
<g id="a_node18"><a xlink:href="../../db/dd5/PHPointerList_8h.html" target="_top" target="_top" target="_top" xlink:title="PHPointerList.h">
<polygon fill="none" stroke="black" points="637.5,-168.5 637.5,-187.5 720.5,-187.5 720.5,-168.5 637.5,-168.5"/>
<text text-anchor="middle" x="679" y="-175.5" font-family="FreeSans" font-size="10.00">PHPointerList.h</text>
</a>
</g>
</g>
<!-- Node14&#45;&gt;Node18 -->
<g id="edge28" class="edge"><title>Node14&#45;&gt;Node18</title>
<path fill="none" stroke="midnightblue" d="M679.835,-224.083C679.704,-217.006 679.516,-206.861 679.352,-197.986"/>
<polygon fill="midnightblue" stroke="midnightblue" points="682.847,-197.685 679.162,-187.751 675.848,-197.814 682.847,-197.685"/>
</g>
<!-- Node15&#45;&gt;Node2 -->
<g id="edge23" class="edge"><title>Node15&#45;&gt;Node2</title>
<path fill="none" stroke="midnightblue" d="M698.385,-58.8764C693.645,-57.7975 688.682,-56.7739 684,-56 522.916,-29.3752 328.106,-16.9943 248.527,-12.768"/>
<polygon fill="midnightblue" stroke="midnightblue" points="248.687,-9.27166 238.519,-12.2475 248.324,-16.2622 248.687,-9.27166"/>
</g>
<!-- Node16&#45;&gt;Node15 -->
<g id="edge25" class="edge"><title>Node16&#45;&gt;Node15</title>
<path fill="none" stroke="midnightblue" d="M629.673,-112.324C647.394,-103.625 674.903,-90.1202 695.288,-80.113"/>
<polygon fill="midnightblue" stroke="midnightblue" points="696.936,-83.2031 704.37,-75.6545 693.851,-76.9195 696.936,-83.2031"/>
</g>
<!-- Node17 -->
<g id="node17" class="node"><title>Node17</title>
<polygon fill="none" stroke="#bfbfbf" points="590,-56.5 590,-75.5 634,-75.5 634,-56.5 590,-56.5"/>
<text text-anchor="middle" x="612" y="-63.5" font-family="FreeSans" font-size="10.00">iosfwd</text>
</g>
<!-- Node16&#45;&gt;Node17 -->
<g id="edge26" class="edge"><title>Node16&#45;&gt;Node17</title>
<path fill="none" stroke="midnightblue" d="M612,-112.083C612,-105.006 612,-94.8611 612,-85.9865"/>
<polygon fill="midnightblue" stroke="midnightblue" points="615.5,-85.751 612,-75.7511 608.5,-85.7511 615.5,-85.751"/>
</g>
<!-- Node16&#45;&gt;Node3 -->
<g id="edge27" class="edge"><title>Node16&#45;&gt;Node3</title>
<path fill="none" stroke="midnightblue" d="M593.778,-112.444C575.104,-103.675 545.844,-89.9355 524.383,-79.8579"/>
<polygon fill="midnightblue" stroke="midnightblue" points="525.676,-76.5988 515.137,-75.5164 522.701,-82.935 525.676,-76.5988"/>
</g>
<!-- Node18&#45;&gt;Node15 -->
<g id="edge29" class="edge"><title>Node18&#45;&gt;Node15</title>
<path fill="none" stroke="midnightblue" d="M682.374,-168.368C689.376,-150.456 705.612,-108.923 714.984,-84.9482"/>
<polygon fill="midnightblue" stroke="midnightblue" points="718.26,-86.1794 718.642,-75.5914 711.741,-83.6308 718.26,-86.1794"/>
</g>
<!-- Node18&#45;&gt;Node16 -->
<g id="edge30" class="edge"><title>Node18&#45;&gt;Node16</title>
<path fill="none" stroke="midnightblue" d="M668.235,-168.324C658.234,-160.263 643.113,-148.077 631.07,-138.369"/>
<polygon fill="midnightblue" stroke="midnightblue" points="632.943,-135.384 622.961,-131.834 628.55,-140.834 632.943,-135.384"/>
</g>
<!-- Node18&#45;&gt;Node2 -->
<g id="edge31" class="edge"><title>Node18&#45;&gt;Node2</title>
<path fill="none" stroke="midnightblue" d="M679.392,-168.256C679.881,-145.615 677.74,-84.8372 643,-56 612.909,-31.0219 347.379,-16.9331 248.708,-12.5223"/>
<polygon fill="midnightblue" stroke="midnightblue" points="248.751,-9.02088 238.607,-12.0786 248.443,-16.0141 248.751,-9.02088"/>
</g>
<!-- Node42&#45;&gt;Node3 -->
<g id="edge57" class="edge"><title>Node42&#45;&gt;Node3</title>
<path fill="none" stroke="midnightblue" d="M553.571,-224.406C552.289,-204.044 547.414,-151.601 530,-112 525.475,-101.71 518.273,-91.5031 511.75,-83.4182"/>
<polygon fill="midnightblue" stroke="midnightblue" points="514.234,-80.9367 505.097,-75.5744 508.896,-85.4646 514.234,-80.9367"/>
</g>
<!-- Node42&#45;&gt;Node25 -->
<g id="edge58" class="edge"><title>Node42&#45;&gt;Node25</title>
<path fill="none" stroke="midnightblue" d="M596.256,-225.245C599.211,-224.795 602.147,-224.374 605,-224 767.056,-202.772 958.728,-189.202 1058.99,-182.978"/>
<polygon fill="midnightblue" stroke="midnightblue" points="1059.22,-186.47 1068.99,-182.363 1058.79,-179.484 1059.22,-186.47"/>
</g>
</g>
</svg>
