<?xml version="1.0" encoding="UTF-8" standalone="no"?>
<!DOCTYPE svg PUBLIC "-//W3C//DTD SVG 1.1//EN"
 "http://www.w3.org/Graphics/SVG/1.1/DTD/svg11.dtd">
<!-- Generated by graphviz version 2.44.0 (0)
 -->
<!-- Title: OnlMonCanvas::AddMessage Pages: 1 -->
<svg width="369pt" height="218pt"
 viewBox="0.00 0.00 369.00 218.00" xmlns="http://www.w3.org/2000/svg" xmlns:xlink="http://www.w3.org/1999/xlink">
<g id="graph0" class="graph" transform="scale(1 1) rotate(0) translate(4 214)">
<title>OnlMonCanvas::AddMessage</title>
<!-- Node1 -->
<g id="node1" class="node">
<title>Node1</title>
<g id="a_node1"><a xlink:title=" ">
<polygon fill="#bfbfbf" stroke="black" points="203,-95.5 203,-114.5 361,-114.5 361,-95.5 203,-95.5"/>
<text text-anchor="middle" x="282" y="-102.5" font-family="FreeSans" font-size="10.00">OnlMonCanvas::AddMessage</text>
</a>
</g>
</g>
<!-- Node2 -->
<g id="node2" class="node">
<title>Node2</title>
<g id="a_node2"><a xlink:href="../../d2/d02/classOnlMonH4.html#a66abbc2af31a200e6eaf3b0d5fc63011" target="_top" xlink:title=" ">
<polygon fill="none" stroke="black" points="15,-190.5 15,-209.5 152,-209.5 152,-190.5 15,-190.5"/>
<text text-anchor="middle" x="83.5" y="-197.5" font-family="FreeSans" font-size="10.00">OnlMonH4::DrawMonitor</text>
</a>
</g>
</g>
<!-- Node1&#45;&gt;Node2 -->
<g id="edge1" class="edge">
<title>Node1&#45;&gt;Node2</title>
<path fill="none" stroke="midnightblue" d="M261.72,-121.06C240.02,-138.35 203.06,-165.45 167,-181 158.09,-184.84 148.29,-187.97 138.66,-190.49"/>
<polygon fill="midnightblue" stroke="midnightblue" points="263.95,-123.76 269.52,-114.75 259.55,-118.32 263.95,-123.76"/>
</g>
<!-- Node3 -->
<g id="node3" class="node">
<title>Node3</title>
<g id="a_node3"><a xlink:href="../../d8/dc8/classOnlMonHodo.html#a1f9f3e14154fcd51bd2b74601ad68682" target="_top" xlink:title=" ">
<polygon fill="none" stroke="black" points="9,-152.5 9,-171.5 158,-171.5 158,-152.5 9,-152.5"/>
<text text-anchor="middle" x="83.5" y="-159.5" font-family="FreeSans" font-size="10.00">OnlMonHodo::DrawMonitor</text>
</a>
</g>
</g>
<!-- Node1&#45;&gt;Node3 -->
<g id="edge2" class="edge">
<title>Node1&#45;&gt;Node3</title>
<path fill="none" stroke="midnightblue" d="M244.79,-118.05C222.52,-125.83 193.3,-135.61 167,-143 154.97,-146.38 141.84,-149.61 129.66,-152.42"/>
<polygon fill="midnightblue" stroke="midnightblue" points="246.23,-121.26 254.5,-114.63 243.91,-114.65 246.23,-121.26"/>
</g>
<!-- Node4 -->
<g id="node4" class="node">
<title>Node4</title>
<g id="a_node4"><a xlink:href="../../d8/d69/classOnlMonMainDaq.html#ad84a74b4b2b1986c7cc1d1a433594728" target="_top" xlink:title=" ">
<polygon fill="none" stroke="black" points="0,-114.5 0,-133.5 167,-133.5 167,-114.5 0,-114.5"/>
<text text-anchor="middle" x="83.5" y="-121.5" font-family="FreeSans" font-size="10.00">OnlMonMainDaq::DrawMonitor</text>
</a>
</g>
</g>
<!-- Node1&#45;&gt;Node4 -->
<g id="edge3" class="edge">
<title>Node1&#45;&gt;Node4</title>
<path fill="none" stroke="midnightblue" d="M192.58,-113.55C184.16,-114.36 175.65,-115.19 167.29,-115.99"/>
<polygon fill="midnightblue" stroke="midnightblue" points="193.16,-117.01 202.77,-112.56 192.48,-110.04 193.16,-117.01"/>
</g>
<!-- Node5 -->
<g id="node5" class="node">
<title>Node5</title>
<g id="a_node5"><a xlink:href="../../d7/df2/classOnlMonQie.html#a141affe1e7391e08454e60b24cf0f55e" target="_top" xlink:title=" ">
<polygon fill="none" stroke="black" points="13.5,-76.5 13.5,-95.5 153.5,-95.5 153.5,-76.5 13.5,-76.5"/>
<text text-anchor="middle" x="83.5" y="-83.5" font-family="FreeSans" font-size="10.00">OnlMonQie::DrawMonitor</text>
</a>
</g>
</g>
<!-- Node1&#45;&gt;Node5 -->
<g id="edge4" class="edge">
<title>Node1&#45;&gt;Node5</title>
<path fill="none" stroke="midnightblue" d="M192.78,-96.47C179.63,-95.2 166.24,-93.9 153.56,-92.68"/>
<polygon fill="midnightblue" stroke="midnightblue" points="192.48,-99.96 202.77,-97.44 193.16,-92.99 192.48,-99.96"/>
</g>
<!-- Node6 -->
<g id="node6" class="node">
<title>Node6</title>
<g id="a_node6"><a xlink:href="../../df/d73/classOnlMonReco.html#a083af37ec9b41ec9266ff157a8694d8f" target="_top" xlink:title=" ">
<polygon fill="none" stroke="black" points="10,-38.5 10,-57.5 157,-57.5 157,-38.5 10,-38.5"/>
<text text-anchor="middle" x="83.5" y="-45.5" font-family="FreeSans" font-size="10.00">OnlMonReco::DrawMonitor</text>
</a>
</g>
</g>
<!-- Node1&#45;&gt;Node6 -->
<g id="edge5" class="edge">
<title>Node1&#45;&gt;Node6</title>
<path fill="none" stroke="midnightblue" d="M244.79,-91.95C222.52,-84.17 193.3,-74.39 167,-67 154.97,-63.62 141.84,-60.39 129.66,-57.58"/>
<polygon fill="midnightblue" stroke="midnightblue" points="243.91,-95.35 254.5,-95.37 246.23,-88.74 243.91,-95.35"/>
</g>
<!-- Node7 -->
<g id="node7" class="node">
<title>Node7</title>
<g id="a_node7"><a xlink:href="../../d2/d9d/classOnlMonTrigNim.html#a0fa6c3217761493ca2a5f25e43b8fb70" target="_top" xlink:title=" ">
<polygon fill="none" stroke="black" points="3,-0.5 3,-19.5 164,-19.5 164,-0.5 3,-0.5"/>
<text text-anchor="middle" x="83.5" y="-7.5" font-family="FreeSans" font-size="10.00">OnlMonTrigNim::DrawMonitor</text>
</a>
</g>
</g>
<!-- Node1&#45;&gt;Node7 -->
<g id="edge6" class="edge">
<title>Node1&#45;&gt;Node7</title>
<path fill="none" stroke="midnightblue" d="M261.72,-88.94C240.02,-71.65 203.06,-44.55 167,-29 158.09,-25.16 148.29,-22.03 138.66,-19.51"/>
<polygon fill="midnightblue" stroke="midnightblue" points="259.55,-91.68 269.52,-95.25 263.95,-86.24 259.55,-91.68"/>
</g>
</g>
</svg>
