<?xml version="1.0" encoding="UTF-8" standalone="no"?>
<!DOCTYPE svg PUBLIC "-//W3C//DTD SVG 1.1//EN"
 "http://www.w3.org/Graphics/SVG/1.1/DTD/svg11.dtd">
<!-- Generated by graphviz version 2.30.1 (20200930.0103)
 -->
<!-- Title: Fun4AllServer::registerOutputManager Pages: 1 -->
<svg width="322pt" height="864pt"
 viewBox="0.00 0.00 322.00 864.00" xmlns="http://www.w3.org/2000/svg" xmlns:xlink="http://www.w3.org/1999/xlink">
<g id="graph0" class="graph" transform="scale(1 1) rotate(0) translate(4 860)">
<title>Fun4AllServer::registerOutputManager</title>
<!-- Node1 -->
<g id="node1" class="node"><title>Node1</title>
<polygon fill="#bfbfbf" stroke="black" points="0.5,-413 0.5,-443 143.5,-443 143.5,-413 0.5,-413"/>
<text text-anchor="start" x="8.5" y="-431" font-family="FreeSans" font-size="10.00">Fun4AllServer::registerOutput</text>
<text text-anchor="middle" x="72" y="-420" font-family="FreeSans" font-size="10.00">Manager</text>
</g>
<!-- Node2 -->
<g id="node2" class="node"><title>Node2</title>
<g id="a_node2"><a xlink:href="../../d9/de0/Fun4All__G4__BNL_8C.html#a62a558c2bb73d1be82a65b16f52ce2e0" target="_top" xlink:title="Fun4All_G4_BNL">
<polygon fill="none" stroke="black" points="201,-836.5 201,-855.5 293,-855.5 293,-836.5 201,-836.5"/>
<text text-anchor="middle" x="247" y="-843.5" font-family="FreeSans" font-size="10.00">Fun4All_G4_BNL</text>
</a>
</g>
</g>
<!-- Node1&#45;&gt;Node2 -->
<g id="edge1" class="edge"><title>Node1&#45;&gt;Node2</title>
<path fill="none" stroke="midnightblue" d="M76.5159,-453.396C87.9559,-532.513 126.492,-772.504 180,-827 185.681,-832.785 193,-836.838 200.687,-839.67"/>
<polygon fill="midnightblue" stroke="midnightblue" points="79.9582,-452.743 75.0827,-443.337 73.0282,-453.73 79.9582,-452.743"/>
</g>
<!-- Node3 -->
<g id="node3" class="node"><title>Node3</title>
<g id="a_node3"><a xlink:href="../../de/dad/Fun4All__G4__BNL__R1_8C.html#a361be596f3554cfa3d0fc26346c50c31" target="_top" xlink:title="Fun4All_G4_BNL_R1">
<polygon fill="none" stroke="black" points="192.5,-798.5 192.5,-817.5 301.5,-817.5 301.5,-798.5 192.5,-798.5"/>
<text text-anchor="middle" x="247" y="-805.5" font-family="FreeSans" font-size="10.00">Fun4All_G4_BNL_R1</text>
</a>
</g>
</g>
<!-- Node1&#45;&gt;Node3 -->
<g id="edge2" class="edge"><title>Node1&#45;&gt;Node3</title>
<path fill="none" stroke="midnightblue" d="M72.7151,-453.455C73.4172,-518.87 84.5914,-694.337 180,-789 183.894,-792.863 188.519,-795.951 193.487,-798.419"/>
<polygon fill="midnightblue" stroke="midnightblue" points="76.2145,-453.233 72.6841,-443.244 69.2146,-453.255 76.2145,-453.233"/>
</g>
<!-- Node4 -->
<g id="node4" class="node"><title>Node4</title>
<g id="a_node4"><a xlink:href="../../d1/d24/Fun4All__G4__E1039_8C.html#ad81863c21df83a735c57713bc9ec59b1" target="_top" xlink:title="Fun4All_G4_E1039">
<polygon fill="none" stroke="black" points="197,-760.5 197,-779.5 297,-779.5 297,-760.5 197,-760.5"/>
<text text-anchor="middle" x="247" y="-767.5" font-family="FreeSans" font-size="10.00">Fun4All_G4_E1039</text>
</a>
</g>
</g>
<!-- Node1&#45;&gt;Node4 -->
<g id="edge3" class="edge"><title>Node1&#45;&gt;Node4</title>
<path fill="none" stroke="midnightblue" d="M73.7485,-453.229C76.9406,-513.682 93.5969,-667.952 180,-751 184.814,-755.627 190.68,-759.139 196.908,-761.802"/>
<polygon fill="midnightblue" stroke="midnightblue" points="77.2376,-452.905 73.2954,-443.071 70.2446,-453.217 77.2376,-452.905"/>
</g>
<!-- Node5 -->
<g id="node5" class="node"><title>Node5</title>
<g id="a_node5"><a xlink:href="../../de/d10/Fun4All__G4__E1039__R1_8C.html#aa484b834b55e3114dfd4cd82dcd11831" target="_top" xlink:title="Fun4All_G4_E1039_R1">
<polygon fill="none" stroke="black" points="188.5,-722.5 188.5,-741.5 305.5,-741.5 305.5,-722.5 188.5,-722.5"/>
<text text-anchor="middle" x="247" y="-729.5" font-family="FreeSans" font-size="10.00">Fun4All_G4_E1039_R1</text>
</a>
</g>
</g>
<!-- Node1&#45;&gt;Node5 -->
<g id="edge4" class="edge"><title>Node1&#45;&gt;Node5</title>
<path fill="none" stroke="midnightblue" d="M75.0441,-453.296C80.8986,-508.707 102.672,-641.541 180,-713 184.203,-716.884 189.151,-719.98 194.416,-722.446"/>
<polygon fill="midnightblue" stroke="midnightblue" points="78.5225,-452.903 74.0737,-443.288 71.5552,-453.579 78.5225,-452.903"/>
</g>
<!-- Node6 -->
<g id="node6" class="node"><title>Node6</title>
<g id="a_node6"><a xlink:href="../../df/d98/Fun4All__G4__E1039__R2_8C.html#a0cc5938b98723b2d5216049aad7edb01" target="_top" xlink:title="Fun4All_G4_E1039_R2">
<polygon fill="none" stroke="black" points="188.5,-684.5 188.5,-703.5 305.5,-703.5 305.5,-684.5 188.5,-684.5"/>
<text text-anchor="middle" x="247" y="-691.5" font-family="FreeSans" font-size="10.00">Fun4All_G4_E1039_R2</text>
</a>
</g>
</g>
<!-- Node1&#45;&gt;Node6 -->
<g id="edge5" class="edge"><title>Node1&#45;&gt;Node6</title>
<path fill="none" stroke="midnightblue" d="M76.6488,-453.004C85.252,-502.808 111.495,-614.777 180,-675 184.388,-678.858 189.514,-681.935 194.935,-684.388"/>
<polygon fill="midnightblue" stroke="midnightblue" points="80.0959,-452.395 75.0303,-443.089 73.1873,-453.523 80.0959,-452.395"/>
</g>
<!-- Node7 -->
<g id="node7" class="node"><title>Node7</title>
<g id="a_node7"><a xlink:href="../../d1/d91/Fun4All__G4__E1039__R2__V2_8C.html#a89f8b08cddafb17f4ba14e509a0ca1db" target="_top" xlink:title="Fun4All_G4_E1039_R2_V2">
<polygon fill="none" stroke="black" points="180,-646.5 180,-665.5 314,-665.5 314,-646.5 180,-646.5"/>
<text text-anchor="middle" x="247" y="-653.5" font-family="FreeSans" font-size="10.00">Fun4All_G4_E1039_R2_V2</text>
</a>
</g>
</g>
<!-- Node1&#45;&gt;Node7 -->
<g id="edge6" class="edge"><title>Node1&#45;&gt;Node7</title>
<path fill="none" stroke="midnightblue" d="M78.8599,-453.121C90.4279,-497.076 120.409,-587.921 180,-637 184.694,-640.866 190.137,-643.946 195.845,-646.399"/>
<polygon fill="midnightblue" stroke="midnightblue" points="82.2101,-452.092 76.3677,-443.254 75.4233,-453.807 82.2101,-452.092"/>
</g>
<!-- Node8 -->
<g id="node8" class="node"><title>Node8</title>
<g id="a_node8"><a xlink:href="../../d9/d0f/Fun4All__ImportGeom_8C.html#a3388968a8dae60e9eb62b1126f747b6a" target="_top" xlink:title="Read in a Geometry file, and output DST and ROOT TGeo files. ">
<polygon fill="none" stroke="black" points="192.5,-608.5 192.5,-627.5 301.5,-627.5 301.5,-608.5 192.5,-608.5"/>
<text text-anchor="middle" x="247" y="-615.5" font-family="FreeSans" font-size="10.00">Fun4All_ImportGeom</text>
</a>
</g>
</g>
<!-- Node1&#45;&gt;Node8 -->
<g id="edge7" class="edge"><title>Node1&#45;&gt;Node8</title>
<path fill="none" stroke="midnightblue" d="M81.8099,-452.768C96.368,-490.115 129.006,-560.556 180,-599 185.141,-602.876 191.05,-605.962 197.174,-608.419"/>
<polygon fill="midnightblue" stroke="midnightblue" points="84.9908,-451.284 78.183,-443.166 78.4424,-453.757 84.9908,-451.284"/>
</g>
<!-- Node9 -->
<g id="node9" class="node"><title>Node9</title>
<g id="a_node9"><a xlink:href="../../d5/db4/Fun4All__Test_8C.html#ae69a57ea66fbed58544200f95796a66f" target="_top" xlink:title="Fun4All_Test">
<polygon fill="none" stroke="black" points="210,-570.5 210,-589.5 284,-589.5 284,-570.5 210,-570.5"/>
<text text-anchor="middle" x="247" y="-577.5" font-family="FreeSans" font-size="10.00">Fun4All_Test</text>
</a>
</g>
</g>
<!-- Node1&#45;&gt;Node9 -->
<g id="edge8" class="edge"><title>Node1&#45;&gt;Node9</title>
<path fill="none" stroke="midnightblue" d="M86.1846,-452.264C103.707,-482.236 137.469,-532.719 180,-561 188.837,-566.876 199.506,-570.963 209.666,-573.794"/>
<polygon fill="midnightblue" stroke="midnightblue" points="89.0705,-450.259 81.0754,-443.307 82.9902,-453.728 89.0705,-450.259"/>
</g>
<!-- Node10 -->
<g id="node10" class="node"><title>Node10</title>
<g id="a_node10"><a xlink:href="../../de/de6/Fun4AllReco_8C.html#a43d2d478ac0bc12be4a621bacb613bdd" target="_top" xlink:title="Fun4AllReco.C: Fun4all macro to run the reconstruction. ">
<polygon fill="none" stroke="black" points="211,-532.5 211,-551.5 283,-551.5 283,-532.5 211,-532.5"/>
<text text-anchor="middle" x="247" y="-539.5" font-family="FreeSans" font-size="10.00">Fun4AllReco</text>
</a>
</g>
</g>
<!-- Node1&#45;&gt;Node10 -->
<g id="edge9" class="edge"><title>Node1&#45;&gt;Node10</title>
<path fill="none" stroke="midnightblue" d="M92.7177,-450.569C112.696,-472.108 145.5,-504.01 180,-523 189.506,-528.232 200.593,-532.146 210.936,-535.016"/>
<polygon fill="midnightblue" stroke="midnightblue" points="95.2788,-448.183 85.9583,-443.145 90.1029,-452.896 95.2788,-448.183"/>
</g>
<!-- Node11 -->
<g id="node11" class="node"><title>Node11</title>
<g id="a_node11"><a xlink:href="../../db/dbe/Fun4CODA_8C.html#a1bbee777074605aa2a59ddf9b2b52742" target="_top" xlink:title="Fun4CODA">
<polygon fill="none" stroke="black" points="214,-494.5 214,-513.5 280,-513.5 280,-494.5 214,-494.5"/>
<text text-anchor="middle" x="247" y="-501.5" font-family="FreeSans" font-size="10.00">Fun4CODA</text>
</a>
</g>
</g>
<!-- Node1&#45;&gt;Node11 -->
<g id="edge10" class="edge"><title>Node1&#45;&gt;Node11</title>
<path fill="none" stroke="midnightblue" d="M106.5,-448.185C127.166,-460.04 154.51,-474.674 180,-485 190.83,-489.387 203.041,-493.2 213.987,-496.235"/>
<polygon fill="midnightblue" stroke="midnightblue" points="108.197,-445.123 97.7922,-443.128 104.682,-451.177 108.197,-445.123"/>
</g>
<!-- Node12 -->
<g id="node12" class="node"><title>Node12</title>
<g id="a_node12"><a xlink:href="../../d4/d6b/Fun4DQ_8C.html#ade50123660c824c610022429d0847486" target="_top" xlink:title="Fun4DQ">
<polygon fill="none" stroke="black" points="220.5,-456.5 220.5,-475.5 273.5,-475.5 273.5,-456.5 220.5,-456.5"/>
<text text-anchor="middle" x="247" y="-463.5" font-family="FreeSans" font-size="10.00">Fun4DQ</text>
</a>
</g>
</g>
<!-- Node1&#45;&gt;Node12 -->
<g id="edge11" class="edge"><title>Node1&#45;&gt;Node12</title>
<path fill="none" stroke="midnightblue" d="M151.224,-445.182C176.13,-450.653 201.959,-456.326 220.351,-460.366"/>
<polygon fill="midnightblue" stroke="midnightblue" points="151.892,-441.746 141.374,-443.019 150.39,-448.583 151.892,-441.746"/>
</g>
<!-- Node13 -->
<g id="node13" class="node"><title>Node13</title>
<g id="a_node13"><a xlink:href="../../db/d2f/Fun4EMCal_8C.html#a7559861c26cbabfa3e4349440d5af51b" target="_top" xlink:title="Fun4EMCal">
<polygon fill="none" stroke="black" points="213.5,-418.5 213.5,-437.5 280.5,-437.5 280.5,-418.5 213.5,-418.5"/>
<text text-anchor="middle" x="247" y="-425.5" font-family="FreeSans" font-size="10.00">Fun4EMCal</text>
</a>
</g>
</g>
<!-- Node1&#45;&gt;Node13 -->
<g id="edge12" class="edge"><title>Node1&#45;&gt;Node13</title>
<path fill="none" stroke="midnightblue" d="M154.099,-428C175.06,-428 196.445,-428 213.306,-428"/>
<polygon fill="midnightblue" stroke="midnightblue" points="153.865,-424.5 143.865,-428 153.865,-431.5 153.865,-424.5"/>
</g>
<!-- Node14 -->
<g id="node14" class="node"><title>Node14</title>
<g id="a_node14"><a xlink:href="../../df/d6a/e1039-core_2online_2macros_2Fun4MainDaq_8C.html#ab9151bcfc5d35e7a25c9cf86fddd2bd2" target="_top" xlink:title="Fun4MainDaq.C: Fun4all macro to decode the MainDAQ data. ">
<polygon fill="none" stroke="black" points="208.5,-380.5 208.5,-399.5 285.5,-399.5 285.5,-380.5 208.5,-380.5"/>
<text text-anchor="middle" x="247" y="-387.5" font-family="FreeSans" font-size="10.00">Fun4MainDaq</text>
</a>
</g>
</g>
<!-- Node1&#45;&gt;Node14 -->
<g id="edge13" class="edge"><title>Node1&#45;&gt;Node14</title>
<path fill="none" stroke="midnightblue" d="M151.375,-410.785C171.243,-406.421 191.689,-401.93 208.468,-398.244"/>
<polygon fill="midnightblue" stroke="midnightblue" points="150.39,-407.417 141.374,-412.981 151.892,-414.254 150.39,-407.417"/>
</g>
<!-- Node15 -->
<g id="node15" class="node"><title>Node15</title>
<g id="a_node15"><a xlink:href="../../d1/d6b/Fun4MainDaqE906_8C.html#a3617355b5c033a5635408b1cd8c29c35" target="_top" xlink:title="Fun4MainDaq.C: Fun4all macro to decode the MainDAQ data. ">
<polygon fill="none" stroke="black" points="198,-342.5 198,-361.5 296,-361.5 296,-342.5 198,-342.5"/>
<text text-anchor="middle" x="247" y="-349.5" font-family="FreeSans" font-size="10.00">Fun4MainDaqE906</text>
</a>
</g>
</g>
<!-- Node1&#45;&gt;Node15 -->
<g id="edge14" class="edge"><title>Node1&#45;&gt;Node15</title>
<path fill="none" stroke="midnightblue" d="M106.5,-407.815C127.166,-395.96 154.51,-381.326 180,-371 188.841,-367.419 198.602,-364.22 207.844,-361.515"/>
<polygon fill="midnightblue" stroke="midnightblue" points="104.682,-404.823 97.7922,-412.872 108.197,-410.877 104.682,-404.823"/>
</g>
<!-- Node16 -->
<g id="node16" class="node"><title>Node16</title>
<g id="a_node16"><a xlink:href="../../de/d66/Fun4Pythia8Demo_8C.html#a6a06be36766511c5ad76013c9cbfe5b5" target="_top" xlink:title="Fun4Pythia8Demo">
<polygon fill="none" stroke="black" points="199,-304.5 199,-323.5 295,-323.5 295,-304.5 199,-304.5"/>
<text text-anchor="middle" x="247" y="-311.5" font-family="FreeSans" font-size="10.00">Fun4Pythia8Demo</text>
</a>
</g>
</g>
<!-- Node1&#45;&gt;Node16 -->
<g id="edge15" class="edge"><title>Node1&#45;&gt;Node16</title>
<path fill="none" stroke="midnightblue" d="M92.7177,-405.431C112.696,-383.892 145.5,-351.99 180,-333 186.894,-329.205 194.62,-326.104 202.291,-323.591"/>
<polygon fill="midnightblue" stroke="midnightblue" points="90.1029,-403.104 85.9583,-412.855 95.2788,-407.817 90.1029,-403.104"/>
</g>
<!-- Node17 -->
<g id="node17" class="node"><title>Node17</title>
<g id="a_node17"><a xlink:href="../../d8/d19/HitEmbedding_2macro__embed_2Fun4Sim_8C.html#a023b21d2b27b8be1999a1cb7e43bbb23" target="_top" xlink:title="Fun4Sim">
<polygon fill="none" stroke="black" points="219,-266.5 219,-285.5 275,-285.5 275,-266.5 219,-266.5"/>
<text text-anchor="middle" x="247" y="-273.5" font-family="FreeSans" font-size="10.00">Fun4Sim</text>
</a>
</g>
</g>
<!-- Node1&#45;&gt;Node17 -->
<g id="edge16" class="edge"><title>Node1&#45;&gt;Node17</title>
<path fill="none" stroke="midnightblue" d="M86.1846,-403.736C103.707,-373.764 137.469,-323.281 180,-295 191.518,-287.341 206.149,-282.722 218.707,-279.961"/>
<polygon fill="midnightblue" stroke="midnightblue" points="82.9902,-402.272 81.0754,-412.693 89.0705,-405.741 82.9902,-402.272"/>
</g>
<!-- Node18 -->
<g id="node18" class="node"><title>Node18</title>
<g id="a_node18"><a xlink:href="../../d5/df8/AnaSimDst_2work_2Fun4SimDst_8C.html#abf0708efff889232b6c0a7359cfb70ae" target="_top" xlink:title="Fun4SimDst.C: Fun4all macro to analyze the E1039 simulated DST files. ">
<polygon fill="none" stroke="black" points="212,-228.5 212,-247.5 282,-247.5 282,-228.5 212,-228.5"/>
<text text-anchor="middle" x="247" y="-235.5" font-family="FreeSans" font-size="10.00">Fun4SimDst</text>
</a>
</g>
</g>
<!-- Node1&#45;&gt;Node18 -->
<g id="edge17" class="edge"><title>Node1&#45;&gt;Node18</title>
<path fill="none" stroke="midnightblue" d="M81.8099,-403.232C96.368,-365.885 129.006,-295.444 180,-257 189.236,-250.037 200.948,-245.623 211.934,-242.826"/>
<polygon fill="midnightblue" stroke="midnightblue" points="78.4424,-402.243 78.183,-412.834 84.9908,-404.716 78.4424,-402.243"/>
</g>
<!-- Node19 -->
<g id="node19" class="node"><title>Node19</title>
<g id="a_node19"><a xlink:href="../../d8/de7/Fun4SRawEvent_8C.html#aaa9bb2e956ce860a8cb6e7845bcc4ed5" target="_top" xlink:title="Fun4SRawEvent">
<polygon fill="none" stroke="black" points="203,-190.5 203,-209.5 291,-209.5 291,-190.5 203,-190.5"/>
<text text-anchor="middle" x="247" y="-197.5" font-family="FreeSans" font-size="10.00">Fun4SRawEvent</text>
</a>
</g>
</g>
<!-- Node1&#45;&gt;Node19 -->
<g id="edge18" class="edge"><title>Node1&#45;&gt;Node19</title>
<path fill="none" stroke="midnightblue" d="M78.8599,-402.879C90.4279,-358.924 120.409,-268.079 180,-219 186.627,-213.542 194.747,-209.651 202.996,-206.878"/>
<polygon fill="midnightblue" stroke="midnightblue" points="75.4233,-402.193 76.3677,-412.746 82.2101,-403.908 75.4233,-402.193"/>
</g>
<!-- Node20 -->
<g id="node20" class="node"><title>Node20</title>
<g id="a_node20"><a xlink:href="../../d2/d3a/Fun4TrkDev_8C.html#abd98cf50196a6ad7cb2289d1f0442b73" target="_top" xlink:title="Fun4TrkDev">
<polygon fill="none" stroke="black" points="212.5,-152.5 212.5,-171.5 281.5,-171.5 281.5,-152.5 212.5,-152.5"/>
<text text-anchor="middle" x="247" y="-159.5" font-family="FreeSans" font-size="10.00">Fun4TrkDev</text>
</a>
</g>
</g>
<!-- Node1&#45;&gt;Node20 -->
<g id="edge19" class="edge"><title>Node1&#45;&gt;Node20</title>
<path fill="none" stroke="midnightblue" d="M76.6488,-402.996C85.252,-353.192 111.495,-241.223 180,-181 188.955,-173.127 200.985,-168.506 212.321,-165.797"/>
<polygon fill="midnightblue" stroke="midnightblue" points="73.1873,-402.477 75.0303,-412.911 80.0959,-403.605 73.1873,-402.477"/>
</g>
<!-- Node21 -->
<g id="node21" class="node"><title>Node21</title>
<g id="a_node21"><a xlink:href="../../db/dea/RecoE1039Data_8C.html#a619388c470b52b98a611cb6f18ba24c1" target="_top" xlink:title="RecoE1039Data">
<polygon fill="none" stroke="black" points="204,-114.5 204,-133.5 290,-133.5 290,-114.5 204,-114.5"/>
<text text-anchor="middle" x="247" y="-121.5" font-family="FreeSans" font-size="10.00">RecoE1039Data</text>
</a>
</g>
</g>
<!-- Node1&#45;&gt;Node21 -->
<g id="edge20" class="edge"><title>Node1&#45;&gt;Node21</title>
<path fill="none" stroke="midnightblue" d="M75.0441,-402.704C80.8986,-347.293 102.672,-214.459 180,-143 186.655,-136.85 195.176,-132.677 203.868,-129.849"/>
<polygon fill="midnightblue" stroke="midnightblue" points="71.5552,-402.421 74.0737,-412.712 78.5225,-403.097 71.5552,-402.421"/>
</g>
<!-- Node22 -->
<g id="node22" class="node"><title>Node22</title>
<g id="a_node22"><a xlink:href="../../d0/d9c/RecoE1039Sim_8C.html#a7505ed22de28394b320e370de5caa6c3" target="_top" xlink:title="RecoE1039Sim">
<polygon fill="none" stroke="black" points="205.5,-76.5 205.5,-95.5 288.5,-95.5 288.5,-76.5 205.5,-76.5"/>
<text text-anchor="middle" x="247" y="-83.5" font-family="FreeSans" font-size="10.00">RecoE1039Sim</text>
</a>
</g>
</g>
<!-- Node1&#45;&gt;Node22 -->
<g id="edge21" class="edge"><title>Node1&#45;&gt;Node22</title>
<path fill="none" stroke="midnightblue" d="M73.7485,-402.771C76.9406,-342.318 93.5969,-188.048 180,-105 186.963,-98.3072 196.127,-93.9475 205.403,-91.1146"/>
<polygon fill="midnightblue" stroke="midnightblue" points="70.2446,-402.783 73.2954,-412.929 77.2376,-403.095 70.2446,-402.783"/>
</g>
<!-- Node23 -->
<g id="node23" class="node"><title>Node23</title>
<g id="a_node23"><a xlink:href="../../df/d0c/RecoE906Data_8C.html#ad032525ca693000ba382d14d82bf9f2b" target="_top" xlink:title="RecoE906Data">
<polygon fill="none" stroke="black" points="206.5,-38.5 206.5,-57.5 287.5,-57.5 287.5,-38.5 206.5,-38.5"/>
<text text-anchor="middle" x="247" y="-45.5" font-family="FreeSans" font-size="10.00">RecoE906Data</text>
</a>
</g>
</g>
<!-- Node1&#45;&gt;Node23 -->
<g id="edge22" class="edge"><title>Node1&#45;&gt;Node23</title>
<path fill="none" stroke="midnightblue" d="M72.7151,-402.545C73.4172,-337.13 84.5914,-161.663 180,-67 187.11,-59.9455 196.66,-55.4749 206.283,-52.652"/>
<polygon fill="midnightblue" stroke="midnightblue" points="69.2146,-402.745 72.6841,-412.756 76.2145,-402.767 69.2146,-402.745"/>
</g>
<!-- Node24 -->
<g id="node24" class="node"><title>Node24</title>
<g id="a_node24"><a xlink:href="../../d5/dcc/splitDST_8C.html#a4903aee6c2f9833d2e9903f991e084ec" target="_top" xlink:title="splitDST">
<polygon fill="none" stroke="black" points="220.5,-0.5 220.5,-19.5 273.5,-19.5 273.5,-0.5 220.5,-0.5"/>
<text text-anchor="middle" x="247" y="-7.5" font-family="FreeSans" font-size="10.00">splitDST</text>
</a>
</g>
</g>
<!-- Node1&#45;&gt;Node24 -->
<g id="edge23" class="edge"><title>Node1&#45;&gt;Node24</title>
<path fill="none" stroke="midnightblue" d="M76.5159,-402.604C87.9559,-323.487 126.492,-83.4961 180,-29 190.526,-18.2798 206.679,-13.5096 220.37,-11.4293"/>
<polygon fill="midnightblue" stroke="midnightblue" points="73.0282,-402.27 75.0827,-412.663 79.9582,-403.257 73.0282,-402.27"/>
</g>
</g>
</svg>
