<?xml version="1.0" encoding="UTF-8" standalone="no"?>
<!DOCTYPE svg PUBLIC "-//W3C//DTD SVG 1.1//EN"
 "http://www.w3.org/Graphics/SVG/1.1/DTD/svg11.dtd">
<!-- Generated by graphviz version 2.36.0 (20140111.2315)
 -->
<!-- Title: SMillepede::initMillepede Pages: 1 -->
<svg width="414pt" height="369pt"
 viewBox="0.00 0.00 414.00 368.98" xmlns="http://www.w3.org/2000/svg" xmlns:xlink="http://www.w3.org/1999/xlink">
<g id="graph0" class="graph" transform="scale(1 1) rotate(0) translate(4 364.979)">
<title>SMillepede::initMillepede</title>
<!-- Node1 -->
<g id="node1" class="node"><title>Node1</title>
<polygon fill="#bfbfbf" stroke="black" points="0.5,-182.5 0.5,-201.5 123.5,-201.5 123.5,-182.5 0.5,-182.5"/>
<text text-anchor="middle" x="62" y="-189.5" font-family="FreeSans" font-size="10.00">SMillepede::initMillepede</text>
</g>
<!-- Node2 -->
<g id="node2" class="node"><title>Node2</title>
<g id="a_node2"><a xlink:href="../../d8/d2f/SMillepede_8h.html#acb2ad97e65955a116e4cd3bcc3760acc" target="_top" xlink:title="constf_">
<polygon fill="none" stroke="black" points="356.5,-315.5 356.5,-334.5 405.5,-334.5 405.5,-315.5 356.5,-315.5"/>
<text text-anchor="middle" x="381" y="-322.5" font-family="FreeSans" font-size="10.00">constf_</text>
</a>
</g>
</g>
<!-- Node1&#45;&gt;Node2 -->
<g id="edge1" class="edge"><title>Node1&#45;&gt;Node2</title>
<path fill="none" stroke="midnightblue" d="M65.6863,-201.899C74.0104,-230.362 102.352,-312.402 160,-344 220.008,-376.891 303.292,-354.677 348.219,-338.213"/>
<polygon fill="midnightblue" stroke="midnightblue" points="349.621,-341.424 357.727,-334.602 347.136,-334.88 349.621,-341.424"/>
</g>
<!-- Node3 -->
<g id="node3" class="node"><title>Node3</title>
<g id="a_node3"><a xlink:href="../../d6/dd9/classSMillepede.html#afd900fd831d578464d2a0d99e4d83936" target="_top" xlink:title="SMillepede::constrainDetectors">
<polygon fill="none" stroke="black" points="164.5,-315.5 164.5,-334.5 315.5,-334.5 315.5,-315.5 164.5,-315.5"/>
<text text-anchor="middle" x="240" y="-322.5" font-family="FreeSans" font-size="10.00">SMillepede::constrainDetectors</text>
</a>
</g>
</g>
<!-- Node1&#45;&gt;Node3 -->
<g id="edge2" class="edge"><title>Node1&#45;&gt;Node3</title>
<path fill="none" stroke="midnightblue" d="M68.3453,-201.739C81.079,-223.974 115.495,-278.658 160,-306 163.583,-308.201 167.403,-310.148 171.356,-311.869"/>
<polygon fill="midnightblue" stroke="midnightblue" points="170.183,-315.167 180.773,-315.489 172.695,-308.633 170.183,-315.167"/>
</g>
<!-- Node4 -->
<g id="node4" class="node"><title>Node4</title>
<g id="a_node4"><a xlink:href="../../d6/dd9/classSMillepede.html#a4643b4d561cace574213ada5ac31f9d0" target="_top" xlink:title="SMillepede::fixDetectorParameter">
<polygon fill="none" stroke="black" points="160,-277.5 160,-296.5 320,-296.5 320,-277.5 160,-277.5"/>
<text text-anchor="middle" x="240" y="-284.5" font-family="FreeSans" font-size="10.00">SMillepede::fixDetectorParameter</text>
</a>
</g>
</g>
<!-- Node1&#45;&gt;Node4 -->
<g id="edge4" class="edge"><title>Node1&#45;&gt;Node4</title>
<path fill="none" stroke="midnightblue" d="M72.2314,-201.533C88.4504,-217.713 123.789,-250.494 160,-268 165.001,-270.418 170.332,-272.541 175.774,-274.403"/>
<polygon fill="midnightblue" stroke="midnightblue" points="175.053,-277.845 185.641,-277.481 177.137,-271.162 175.053,-277.845"/>
</g>
<!-- Node5 -->
<g id="node5" class="node"><title>Node5</title>
<g id="a_node5"><a xlink:href="../../d0/da0/classGeomSvc.html#a23e7d026a79544283e2b654f3d0d5c8e" target="_top" xlink:title="GeomSvc::getCostheta">
<polygon fill="none" stroke="black" points="181.5,-239.5 181.5,-258.5 298.5,-258.5 298.5,-239.5 181.5,-239.5"/>
<text text-anchor="middle" x="240" y="-246.5" font-family="FreeSans" font-size="10.00">GeomSvc::getCostheta</text>
</a>
</g>
</g>
<!-- Node1&#45;&gt;Node5 -->
<g id="edge6" class="edge"><title>Node1&#45;&gt;Node5</title>
<path fill="none" stroke="midnightblue" d="M85.0348,-201.635C104.496,-209.902 133.775,-221.752 160,-230 167.845,-232.467 176.213,-234.796 184.461,-236.921"/>
<polygon fill="midnightblue" stroke="midnightblue" points="183.866,-240.38 194.417,-239.409 185.563,-233.589 183.866,-240.38"/>
</g>
<!-- Node6 -->
<g id="node6" class="node"><title>Node6</title>
<g id="a_node6"><a xlink:href="../../d0/da0/classGeomSvc.html#acd3dd698e686fe825d8e9d73719da6d6" target="_top" xlink:title="Get the plane position. ">
<polygon fill="none" stroke="black" points="177.5,-201.5 177.5,-220.5 302.5,-220.5 302.5,-201.5 177.5,-201.5"/>
<text text-anchor="middle" x="240" y="-208.5" font-family="FreeSans" font-size="10.00">GeomSvc::getDetectorID</text>
</a>
</g>
</g>
<!-- Node1&#45;&gt;Node6 -->
<g id="edge7" class="edge"><title>Node1&#45;&gt;Node6</title>
<path fill="none" stroke="midnightblue" d="M123.569,-198.539C137.708,-200.065 152.896,-201.705 167.46,-203.277"/>
<polygon fill="midnightblue" stroke="midnightblue" points="167.105,-206.759 177.422,-204.352 167.856,-199.799 167.105,-206.759"/>
</g>
<!-- Node7 -->
<g id="node7" class="node"><title>Node7</title>
<g id="a_node7"><a xlink:href="../../d8/d2f/SMillepede_8h.html#a86a7d9ba0a4c4853e40b1fcdddd98956" target="_top" xlink:title="Interface for cross&#45;compilation with fortran millepede program. ">
<polygon fill="none" stroke="black" points="219,-163.5 219,-182.5 261,-182.5 261,-163.5 219,-163.5"/>
<text text-anchor="middle" x="240" y="-170.5" font-family="FreeSans" font-size="10.00">initgl_</text>
</a>
</g>
</g>
<!-- Node1&#45;&gt;Node7 -->
<g id="edge8" class="edge"><title>Node1&#45;&gt;Node7</title>
<path fill="none" stroke="midnightblue" d="M123.569,-185.461C152.37,-182.352 185.525,-178.773 208.892,-176.25"/>
<polygon fill="midnightblue" stroke="midnightblue" points="209.322,-179.724 218.888,-175.171 208.57,-172.765 209.322,-179.724"/>
</g>
<!-- Node8 -->
<g id="node8" class="node"><title>Node8</title>
<g id="a_node8"><a xlink:href="../../d8/d2f/SMillepede_8h.html#af2212c40fa3a84f568a591d472bb0e81" target="_top" xlink:title="initun_">
<polygon fill="none" stroke="black" points="217.5,-125.5 217.5,-144.5 262.5,-144.5 262.5,-125.5 217.5,-125.5"/>
<text text-anchor="middle" x="240" y="-132.5" font-family="FreeSans" font-size="10.00">initun_</text>
</a>
</g>
</g>
<!-- Node1&#45;&gt;Node8 -->
<g id="edge9" class="edge"><title>Node1&#45;&gt;Node8</title>
<path fill="none" stroke="midnightblue" d="M85.0348,-182.365C104.496,-174.098 133.775,-162.248 160,-154 175.376,-149.164 192.765,-144.86 207.307,-141.576"/>
<polygon fill="midnightblue" stroke="midnightblue" points="208.308,-144.94 217.322,-139.373 206.804,-138.103 208.308,-144.94"/>
</g>
<!-- Node9 -->
<g id="node9" class="node"><title>Node9</title>
<g id="a_node9"><a xlink:href="../../d8/d2f/SMillepede_8h.html#ad32ca451371dde7e3f2b0ad8c0cdce6c" target="_top" xlink:title="parglo_">
<polygon fill="none" stroke="black" points="216,-87.5 216,-106.5 264,-106.5 264,-87.5 216,-87.5"/>
<text text-anchor="middle" x="240" y="-94.5" font-family="FreeSans" font-size="10.00">parglo_</text>
</a>
</g>
</g>
<!-- Node1&#45;&gt;Node9 -->
<g id="edge10" class="edge"><title>Node1&#45;&gt;Node9</title>
<path fill="none" stroke="midnightblue" d="M72.2314,-182.467C88.4504,-166.287 123.789,-133.506 160,-116 174.307,-109.083 191.321,-104.575 205.889,-101.694"/>
<polygon fill="midnightblue" stroke="midnightblue" points="206.77,-105.092 215.99,-99.8733 205.528,-98.2029 206.77,-105.092"/>
</g>
<!-- Node10 -->
<g id="node10" class="node"><title>Node10</title>
<g id="a_node10"><a xlink:href="../../d8/d2f/SMillepede_8h.html#ae97e3b6d58476c2ac2d741ab91ac1d17" target="_top" xlink:title="parsig_">
<polygon fill="none" stroke="black" points="216,-49.5 216,-68.5 264,-68.5 264,-49.5 216,-49.5"/>
<text text-anchor="middle" x="240" y="-56.5" font-family="FreeSans" font-size="10.00">parsig_</text>
</a>
</g>
</g>
<!-- Node1&#45;&gt;Node10 -->
<g id="edge11" class="edge"><title>Node1&#45;&gt;Node10</title>
<path fill="none" stroke="midnightblue" d="M68.3453,-182.261C81.079,-160.026 115.495,-105.342 160,-78 173.637,-69.6219 190.704,-64.938 205.482,-62.3195"/>
<polygon fill="midnightblue" stroke="midnightblue" points="206.398,-65.7206 215.757,-60.7546 205.344,-58.8004 206.398,-65.7206"/>
</g>
<!-- Node11 -->
<g id="node11" class="node"><title>Node11</title>
<g id="a_node11"><a xlink:href="../../d6/dd9/classSMillepede.html#ab36822a779de1890c4bfd83212080f9a" target="_top" xlink:title="SMillepede::setDetectorPar\lError">
<polygon fill="none" stroke="black" points="173,-0 173,-30 307,-30 307,-0 173,-0"/>
<text text-anchor="start" x="181" y="-18" font-family="FreeSans" font-size="10.00">SMillepede::setDetectorPar</text>
<text text-anchor="middle" x="240" y="-7" font-family="FreeSans" font-size="10.00">Error</text>
</a>
</g>
</g>
<!-- Node1&#45;&gt;Node11 -->
<g id="edge12" class="edge"><title>Node1&#45;&gt;Node11</title>
<path fill="none" stroke="midnightblue" d="M66.504,-182.154C76.5952,-155.211 108.348,-79.6456 160,-40 162.432,-38.1332 165.007,-36.404 167.683,-34.8024"/>
<polygon fill="midnightblue" stroke="midnightblue" points="169.336,-37.8878 176.529,-30.1092 166.055,-31.7042 169.336,-37.8878"/>
</g>
<!-- Node3&#45;&gt;Node2 -->
<g id="edge3" class="edge"><title>Node3&#45;&gt;Node2</title>
<path fill="none" stroke="midnightblue" d="M315.789,-325C326.528,-325 337.096,-325 346.462,-325"/>
<polygon fill="midnightblue" stroke="midnightblue" points="346.471,-328.5 356.471,-325 346.471,-321.5 346.471,-328.5"/>
</g>
<!-- Node4&#45;&gt;Node2 -->
<g id="edge5" class="edge"><title>Node4&#45;&gt;Node2</title>
<path fill="none" stroke="midnightblue" d="M282.961,-296.509C294.968,-299.388 308.041,-302.673 320,-306 328.701,-308.421 338.038,-311.259 346.694,-313.993"/>
<polygon fill="midnightblue" stroke="midnightblue" points="345.871,-317.405 356.463,-317.123 348.007,-310.738 345.871,-317.405"/>
</g>
</g>
</svg>
