<?xml version="1.0" encoding="UTF-8" standalone="no"?>
<!DOCTYPE svg PUBLIC "-//W3C//DTD SVG 1.1//EN"
 "http://www.w3.org/Graphics/SVG/1.1/DTD/svg11.dtd">
<!-- Generated by graphviz version 2.30.1 (20200930.0103)
 -->
<!-- Title: /dev/shm/kenichi/update&#45;github&#45;e1039&#45;doc/e1039&#45;core/simulation/g4detectors/PHG4ConeDetector.cc Pages: 1 -->
<svg width="2227pt" height="566pt"
 viewBox="0.00 0.00 2227.00 566.00" xmlns="http://www.w3.org/2000/svg" xmlns:xlink="http://www.w3.org/1999/xlink">
<g id="graph0" class="graph" transform="scale(1 1) rotate(0) translate(4 562)">
<title>/dev/shm/kenichi/update&#45;github&#45;e1039&#45;doc/e1039&#45;core/simulation/g4detectors/PHG4ConeDetector.cc</title>
<!-- Node1 -->
<g id="node1" class="node"><title>Node1</title>
<polygon fill="#bfbfbf" stroke="black" points="1284,-505 1284,-557 1422,-557 1422,-505 1284,-505"/>
<text text-anchor="start" x="1292" y="-545" font-family="FreeSans" font-size="10.00">/dev/shm/kenichi/update</text>
<text text-anchor="start" x="1292" y="-534" font-family="FreeSans" font-size="10.00">&#45;github&#45;e1039&#45;doc/e1039</text>
<text text-anchor="start" x="1292" y="-523" font-family="FreeSans" font-size="10.00">&#45;core/simulation/g4detectors</text>
<text text-anchor="middle" x="1353" y="-512" font-family="FreeSans" font-size="10.00">/PHG4ConeDetector.cc</text>
</g>
<!-- Node2 -->
<g id="node2" class="node"><title>Node2</title>
<g id="a_node2"><a xlink:href="../../d6/dfd/PHG4ConeDetector_8h.html" target="_top" xlink:title="PHG4ConeDetector.h">
<polygon fill="none" stroke="black" points="359,-336.5 359,-355.5 469,-355.5 469,-336.5 359,-336.5"/>
<text text-anchor="middle" x="414" y="-343.5" font-family="FreeSans" font-size="10.00">PHG4ConeDetector.h</text>
</a>
</g>
</g>
<!-- Node1&#45;&gt;Node2 -->
<g id="edge1" class="edge"><title>Node1&#45;&gt;Node2</title>
<path fill="none" stroke="midnightblue" d="M1283.83,-527.872C1096.1,-521.677 586.559,-501.906 519,-468 473.171,-445 438.894,-392.374 423.299,-364.721"/>
<polygon fill="midnightblue" stroke="midnightblue" points="426.274,-362.866 418.412,-355.764 420.13,-366.218 426.274,-362.866"/>
</g>
<!-- Node11 -->
<g id="node11" class="node"><title>Node11</title>
<g id="a_node11"><a xlink:href="../../da/d89/PHG4ConeRegionSteppingAction_8h.html" target="_top" xlink:title="PHG4ConeRegionSteppingAction.h">
<polygon fill="none" stroke="black" points="528.5,-448.5 528.5,-467.5 697.5,-467.5 697.5,-448.5 528.5,-448.5"/>
<text text-anchor="middle" x="613" y="-455.5" font-family="FreeSans" font-size="10.00">PHG4ConeRegionSteppingAction.h</text>
</a>
</g>
</g>
<!-- Node1&#45;&gt;Node11 -->
<g id="edge10" class="edge"><title>Node1&#45;&gt;Node11</title>
<path fill="none" stroke="midnightblue" d="M1283.72,-523.352C1150.6,-510.581 858.939,-482.597 707.883,-468.104"/>
<polygon fill="midnightblue" stroke="midnightblue" points="707.985,-464.597 697.697,-467.126 707.316,-471.565 707.985,-464.597"/>
</g>
<!-- Node13 -->
<g id="node13" class="node"><title>Node13</title>
<g id="a_node13"><a xlink:href="../../da/d7e/PHG4RegionInformation_8h.html" target="_top" xlink:title="g4main/PHG4RegionInformation.h">
<polygon fill="none" stroke="black" points="563,-336.5 563,-355.5 727,-355.5 727,-336.5 563,-336.5"/>
<text text-anchor="middle" x="645" y="-343.5" font-family="FreeSans" font-size="10.00">g4main/PHG4RegionInformation.h</text>
</a>
</g>
</g>
<!-- Node1&#45;&gt;Node13 -->
<g id="edge12" class="edge"><title>Node1&#45;&gt;Node13</title>
<path fill="none" stroke="midnightblue" d="M1283.82,-530.404C1144.83,-530.02 837.453,-522.792 750,-468 716.345,-446.914 729.556,-421.531 703,-392 692.542,-380.37 678.782,-369.55 667.29,-361.435"/>
<polygon fill="midnightblue" stroke="midnightblue" points="669.265,-358.546 659.035,-355.788 665.313,-364.323 669.265,-358.546"/>
</g>
<!-- Node15 -->
<g id="node15" class="node"><title>Node15</title>
<g id="a_node15"><a xlink:href="../../d6/d5e/PHG4Utils_8h.html" target="_top" xlink:title="g4main/PHG4Utils.h">
<polygon fill="none" stroke="black" points="714,-224.5 714,-243.5 818,-243.5 818,-224.5 714,-224.5"/>
<text text-anchor="middle" x="766" y="-231.5" font-family="FreeSans" font-size="10.00">g4main/PHG4Utils.h</text>
</a>
</g>
</g>
<!-- Node1&#45;&gt;Node15 -->
<g id="edge15" class="edge"><title>Node1&#45;&gt;Node15</title>
<path fill="none" stroke="midnightblue" d="M1283.99,-529.507C1128.46,-526.533 764,-508.326 764,-403 764,-403 764,-403 764,-345 764,-312.943 764.86,-275.639 765.452,-253.747"/>
<polygon fill="midnightblue" stroke="midnightblue" points="768.956,-253.651 765.739,-243.557 761.959,-253.454 768.956,-253.651"/>
</g>
<!-- Node16 -->
<g id="node16" class="node"><title>Node16</title>
<g id="a_node16"><a xlink:href="../../d8/d30/PHCompositeNode_8h.html" target="_top" xlink:title="phool/PHCompositeNode.h">
<polygon fill="none" stroke="black" points="1175,-224.5 1175,-243.5 1307,-243.5 1307,-224.5 1175,-224.5"/>
<text text-anchor="middle" x="1241" y="-231.5" font-family="FreeSans" font-size="10.00">phool/PHCompositeNode.h</text>
</a>
</g>
</g>
<!-- Node1&#45;&gt;Node16 -->
<g id="edge17" class="edge"><title>Node1&#45;&gt;Node16</title>
<path fill="none" stroke="midnightblue" d="M1336.37,-504.817C1327.5,-487.977 1320.22,-465.74 1330,-448 1344.46,-421.759 1372.54,-438.241 1387,-412 1391.29,-404.215 1390.25,-400.273 1387,-392 1361.75,-327.766 1296.48,-274.214 1262.41,-249.57"/>
<polygon fill="midnightblue" stroke="midnightblue" points="1264.26,-246.591 1254.08,-243.669 1260.22,-252.304 1264.26,-246.591"/>
</g>
<!-- Node21 -->
<g id="node21" class="node"><title>Node21</title>
<g id="a_node21"><a xlink:href="../../d3/d79/PHIODataNode_8h.html" target="_top" xlink:title="phool/PHIODataNode.h">
<polygon fill="none" stroke="black" points="930.5,-392.5 930.5,-411.5 1047.5,-411.5 1047.5,-392.5 930.5,-392.5"/>
<text text-anchor="middle" x="989" y="-399.5" font-family="FreeSans" font-size="10.00">phool/PHIODataNode.h</text>
</a>
</g>
</g>
<!-- Node1&#45;&gt;Node21 -->
<g id="edge28" class="edge"><title>Node1&#45;&gt;Node21</title>
<path fill="none" stroke="midnightblue" d="M1283.68,-505.813C1205.88,-478.668 1082.78,-435.721 1023.35,-414.986"/>
<polygon fill="midnightblue" stroke="midnightblue" points="1024.29,-411.607 1013.7,-411.617 1021.99,-418.216 1024.29,-411.607"/>
</g>
<!-- Node30 -->
<g id="node30" class="node"><title>Node30</title>
<g id="a_node30"><a xlink:href="../../dd/dd4/getClass_8h.html" target="_top" xlink:title="phool/getClass.h">
<polygon fill="none" stroke="black" points="1195.5,-448.5 1195.5,-467.5 1282.5,-467.5 1282.5,-448.5 1195.5,-448.5"/>
<text text-anchor="middle" x="1239" y="-455.5" font-family="FreeSans" font-size="10.00">phool/getClass.h</text>
</a>
</g>
</g>
<!-- Node1&#45;&gt;Node30 -->
<g id="edge49" class="edge"><title>Node1&#45;&gt;Node30</title>
<path fill="none" stroke="midnightblue" d="M1312.81,-504.968C1295.67,-494.291 1276.29,-482.227 1261.7,-473.138"/>
<polygon fill="midnightblue" stroke="midnightblue" points="1263.21,-469.955 1252.87,-467.639 1259.51,-475.896 1263.21,-469.955"/>
</g>
<!-- Node31 -->
<g id="node31" class="node"><title>Node31</title>
<polygon fill="none" stroke="#bfbfbf" points="1339.5,-448.5 1339.5,-467.5 1450.5,-467.5 1450.5,-448.5 1339.5,-448.5"/>
<text text-anchor="middle" x="1395" y="-455.5" font-family="FreeSans" font-size="10.00">Geant4/G4Material.hh</text>
</g>
<!-- Node1&#45;&gt;Node31 -->
<g id="edge56" class="edge"><title>Node1&#45;&gt;Node31</title>
<path fill="none" stroke="midnightblue" d="M1367.93,-504.768C1373.48,-495.385 1379.65,-484.955 1384.69,-476.425"/>
<polygon fill="midnightblue" stroke="midnightblue" points="1387.74,-478.146 1389.82,-467.757 1381.72,-474.582 1387.74,-478.146"/>
</g>
<!-- Node32 -->
<g id="node32" class="node"><title>Node32</title>
<polygon fill="none" stroke="#bfbfbf" points="1469,-448.5 1469,-467.5 1567,-467.5 1567,-448.5 1469,-448.5"/>
<text text-anchor="middle" x="1518" y="-455.5" font-family="FreeSans" font-size="10.00">Geant4/G4Cons.hh</text>
</g>
<!-- Node1&#45;&gt;Node32 -->
<g id="edge57" class="edge"><title>Node1&#45;&gt;Node32</title>
<path fill="none" stroke="midnightblue" d="M1411.17,-504.968C1437.4,-493.681 1467.24,-480.844 1488.7,-471.61"/>
<polygon fill="midnightblue" stroke="midnightblue" points="1490.12,-474.807 1497.92,-467.639 1487.35,-468.377 1490.12,-474.807"/>
</g>
<!-- Node33 -->
<g id="node33" class="node"><title>Node33</title>
<polygon fill="none" stroke="#bfbfbf" points="1585,-448.5 1585,-467.5 1725,-467.5 1725,-448.5 1585,-448.5"/>
<text text-anchor="middle" x="1655" y="-455.5" font-family="FreeSans" font-size="10.00">Geant4/G4LogicalVolume.hh</text>
</g>
<!-- Node1&#45;&gt;Node33 -->
<g id="edge58" class="edge"><title>Node1&#45;&gt;Node33</title>
<path fill="none" stroke="midnightblue" d="M1422.28,-513.711C1479.47,-500.267 1559.03,-481.563 1608.74,-469.876"/>
<polygon fill="midnightblue" stroke="midnightblue" points="1609.64,-473.26 1618.57,-467.565 1608.03,-466.446 1609.64,-473.26"/>
</g>
<!-- Node34 -->
<g id="node34" class="node"><title>Node34</title>
<polygon fill="none" stroke="#bfbfbf" points="1743,-448.5 1743,-467.5 1879,-467.5 1879,-448.5 1743,-448.5"/>
<text text-anchor="middle" x="1811" y="-455.5" font-family="FreeSans" font-size="10.00">Geant4/G4PVPlacement.hh</text>
</g>
<!-- Node1&#45;&gt;Node34 -->
<g id="edge59" class="edge"><title>Node1&#45;&gt;Node34</title>
<path fill="none" stroke="midnightblue" d="M1422.06,-519.294C1509.83,-505.688 1660.21,-482.376 1745.99,-469.077"/>
<polygon fill="midnightblue" stroke="midnightblue" points="1746.78,-472.497 1756.13,-467.506 1745.71,-465.58 1746.78,-472.497"/>
</g>
<!-- Node35 -->
<g id="node35" class="node"><title>Node35</title>
<polygon fill="none" stroke="#bfbfbf" points="1897.5,-448.5 1897.5,-467.5 2028.5,-467.5 2028.5,-448.5 1897.5,-448.5"/>
<text text-anchor="middle" x="1963" y="-455.5" font-family="FreeSans" font-size="10.00">Geant4/G4VisAttributes.hh</text>
</g>
<!-- Node1&#45;&gt;Node35 -->
<g id="edge60" class="edge"><title>Node1&#45;&gt;Node35</title>
<path fill="none" stroke="midnightblue" d="M1422.27,-522.064C1522.32,-510.58 1713.4,-488.572 1887.06,-468.107"/>
<polygon fill="midnightblue" stroke="midnightblue" points="1887.63,-471.564 1897.15,-466.917 1886.81,-464.612 1887.63,-471.564"/>
</g>
<!-- Node36 -->
<g id="node36" class="node"><title>Node36</title>
<polygon fill="none" stroke="#bfbfbf" points="2047,-448.5 2047,-467.5 2151,-467.5 2151,-448.5 2047,-448.5"/>
<text text-anchor="middle" x="2099" y="-455.5" font-family="FreeSans" font-size="10.00">Geant4/G4Colour.hh</text>
</g>
<!-- Node1&#45;&gt;Node36 -->
<g id="edge61" class="edge"><title>Node1&#45;&gt;Node36</title>
<path fill="none" stroke="midnightblue" d="M1422.06,-524.975C1545.62,-515.708 1812.6,-494.438 2037,-468 2037.1,-467.988 2037.2,-467.976 2037.3,-467.964"/>
<polygon fill="midnightblue" stroke="midnightblue" points="2037.44,-471.474 2046.93,-466.766 2036.58,-464.528 2037.44,-471.474"/>
</g>
<!-- Node37 -->
<g id="node37" class="node"><title>Node37</title>
<polygon fill="none" stroke="#bfbfbf" points="2169,-448.5 2169,-467.5 2219,-467.5 2219,-448.5 2169,-448.5"/>
<text text-anchor="middle" x="2194" y="-455.5" font-family="FreeSans" font-size="10.00">sstream</text>
</g>
<!-- Node1&#45;&gt;Node37 -->
<g id="edge62" class="edge"><title>Node1&#45;&gt;Node37</title>
<path fill="none" stroke="midnightblue" d="M1422.07,-528.92C1560.47,-525.841 1881.53,-514.093 2158.61,-467.928"/>
<polygon fill="midnightblue" stroke="midnightblue" points="2159.58,-471.313 2168.86,-466.2 2158.42,-464.411 2159.58,-471.313"/>
</g>
<!-- Node3 -->
<g id="node3" class="node"><title>Node3</title>
<g id="a_node3"><a xlink:href="../../dd/dcc/PHG4Detector_8h.html" target="_top" xlink:title="g4main/PHG4Detector.h">
<polygon fill="none" stroke="black" points="647,-112.5 647,-131.5 769,-131.5 769,-112.5 647,-112.5"/>
<text text-anchor="middle" x="708" y="-119.5" font-family="FreeSans" font-size="10.00">g4main/PHG4Detector.h</text>
</a>
</g>
</g>
<!-- Node2&#45;&gt;Node3 -->
<g id="edge2" class="edge"><title>Node2&#45;&gt;Node3</title>
<path fill="none" stroke="midnightblue" d="M414.483,-336.497C415.645,-323.13 419.597,-296.98 433,-280 495.306,-201.067 608.973,-154.778 668.794,-134.781"/>
<polygon fill="midnightblue" stroke="midnightblue" points="670.196,-138.005 678.615,-131.574 668.023,-131.351 670.196,-138.005"/>
</g>
<!-- Node6 -->
<g id="node6" class="node"><title>Node6</title>
<polygon fill="none" stroke="#bfbfbf" points="442,-280.5 442,-299.5 536,-299.5 536,-280.5 442,-280.5"/>
<text text-anchor="middle" x="489" y="-287.5" font-family="FreeSans" font-size="10.00">Geant4/globals.hh</text>
</g>
<!-- Node2&#45;&gt;Node6 -->
<g id="edge5" class="edge"><title>Node2&#45;&gt;Node6</title>
<path fill="none" stroke="midnightblue" d="M426.05,-336.324C437.463,-328.107 454.831,-315.602 468.435,-305.807"/>
<polygon fill="midnightblue" stroke="midnightblue" points="470.66,-308.517 476.731,-299.834 466.57,-302.837 470.66,-308.517"/>
</g>
<!-- Node7 -->
<g id="node7" class="node"><title>Node7</title>
<polygon fill="none" stroke="#bfbfbf" points="-0.5,-280.5 -0.5,-299.5 106.5,-299.5 106.5,-280.5 -0.5,-280.5"/>
<text text-anchor="middle" x="53" y="-287.5" font-family="FreeSans" font-size="10.00">Geant4/G4Region.hh</text>
</g>
<!-- Node2&#45;&gt;Node7 -->
<g id="edge6" class="edge"><title>Node2&#45;&gt;Node7</title>
<path fill="none" stroke="midnightblue" d="M358.779,-336.74C293.682,-327.002 185.688,-310.848 116.998,-300.573"/>
<polygon fill="midnightblue" stroke="midnightblue" points="117.149,-297.057 106.741,-299.039 116.113,-303.98 117.149,-297.057"/>
</g>
<!-- Node8 -->
<g id="node8" class="node"><title>Node8</title>
<polygon fill="none" stroke="#bfbfbf" points="124.5,-280.5 124.5,-299.5 265.5,-299.5 265.5,-280.5 124.5,-280.5"/>
<text text-anchor="middle" x="195" y="-287.5" font-family="FreeSans" font-size="10.00">Geant4/G4SystemOfUnits.hh</text>
</g>
<!-- Node2&#45;&gt;Node8 -->
<g id="edge7" class="edge"><title>Node2&#45;&gt;Node8</title>
<path fill="none" stroke="midnightblue" d="M379.299,-336.444C341.415,-327.102 280.651,-312.119 239.338,-301.933"/>
<polygon fill="midnightblue" stroke="midnightblue" points="240.086,-298.512 229.539,-299.516 238.41,-305.309 240.086,-298.512"/>
</g>
<!-- Node9 -->
<g id="node9" class="node"><title>Node9</title>
<polygon fill="none" stroke="#bfbfbf" points="284,-280.5 284,-299.5 386,-299.5 386,-280.5 284,-280.5"/>
<text text-anchor="middle" x="335" y="-287.5" font-family="FreeSans" font-size="10.00">Geant4/G4Types.hh</text>
</g>
<!-- Node2&#45;&gt;Node9 -->
<g id="edge8" class="edge"><title>Node2&#45;&gt;Node9</title>
<path fill="none" stroke="midnightblue" d="M401.307,-336.324C389.099,-327.979 370.422,-315.212 355.997,-305.352"/>
<polygon fill="midnightblue" stroke="midnightblue" points="357.892,-302.408 347.661,-299.655 353.942,-308.187 357.892,-302.408"/>
</g>
<!-- Node10 -->
<g id="node10" class="node"><title>Node10</title>
<polygon fill="none" stroke="#bfbfbf" points="792.5,-280.5 792.5,-299.5 827.5,-299.5 827.5,-280.5 792.5,-280.5"/>
<text text-anchor="middle" x="810" y="-287.5" font-family="FreeSans" font-size="10.00">map</text>
</g>
<!-- Node2&#45;&gt;Node10 -->
<g id="edge9" class="edge"><title>Node2&#45;&gt;Node10</title>
<path fill="none" stroke="midnightblue" d="M469.062,-337.492C554.845,-325.794 717.275,-303.644 782.181,-294.793"/>
<polygon fill="midnightblue" stroke="midnightblue" points="782.998,-298.215 792.433,-293.395 782.052,-291.279 782.998,-298.215"/>
</g>
<!-- Node4 -->
<g id="node4" class="node"><title>Node4</title>
<polygon fill="none" stroke="#bfbfbf" points="1164.5,-0.5 1164.5,-19.5 1217.5,-19.5 1217.5,-0.5 1164.5,-0.5"/>
<text text-anchor="middle" x="1191" y="-7.5" font-family="FreeSans" font-size="10.00">iostream</text>
</g>
<!-- Node3&#45;&gt;Node4 -->
<g id="edge3" class="edge"><title>Node3&#45;&gt;Node4</title>
<path fill="none" stroke="midnightblue" d="M729.702,-112.492C765.492,-98.7597 839.371,-71.6703 904,-56 992.641,-34.5077 1099.27,-20.9242 1154.24,-14.8009"/>
<polygon fill="midnightblue" stroke="midnightblue" points="1154.64,-18.2775 1164.2,-13.7099 1153.88,-11.3191 1154.64,-18.2775"/>
</g>
<!-- Node5 -->
<g id="node5" class="node"><title>Node5</title>
<polygon fill="none" stroke="#bfbfbf" points="913,-56.5 913,-75.5 953,-75.5 953,-56.5 913,-56.5"/>
<text text-anchor="middle" x="933" y="-63.5" font-family="FreeSans" font-size="10.00">string</text>
</g>
<!-- Node3&#45;&gt;Node5 -->
<g id="edge4" class="edge"><title>Node3&#45;&gt;Node5</title>
<path fill="none" stroke="midnightblue" d="M743.652,-112.444C787.652,-101.883 861.696,-84.113 902.947,-74.2128"/>
<polygon fill="midnightblue" stroke="midnightblue" points="904.025,-77.5534 912.932,-71.8162 902.392,-70.7467 904.025,-77.5534"/>
</g>
<!-- Node12 -->
<g id="node12" class="node"><title>Node12</title>
<polygon fill="none" stroke="#bfbfbf" points="532,-392.5 532,-411.5 694,-411.5 694,-392.5 532,-392.5"/>
<text text-anchor="middle" x="613" y="-399.5" font-family="FreeSans" font-size="10.00">Geant4/G4UserSteppingAction.hh</text>
</g>
<!-- Node11&#45;&gt;Node12 -->
<g id="edge11" class="edge"><title>Node11&#45;&gt;Node12</title>
<path fill="none" stroke="midnightblue" d="M613,-448.083C613,-441.006 613,-430.861 613,-421.986"/>
<polygon fill="midnightblue" stroke="midnightblue" points="616.5,-421.751 613,-411.751 609.5,-421.751 616.5,-421.751"/>
</g>
<!-- Node13&#45;&gt;Node6 -->
<g id="edge13" class="edge"><title>Node13&#45;&gt;Node6</title>
<path fill="none" stroke="midnightblue" d="M620.281,-336.444C594.152,-327.399 552.741,-313.064 523.424,-302.916"/>
<polygon fill="midnightblue" stroke="midnightblue" points="524.198,-299.48 513.603,-299.516 521.908,-306.095 524.198,-299.48"/>
</g>
<!-- Node14 -->
<g id="node14" class="node"><title>Node14</title>
<polygon fill="none" stroke="#bfbfbf" points="554.5,-280.5 554.5,-299.5 735.5,-299.5 735.5,-280.5 554.5,-280.5"/>
<text text-anchor="middle" x="645" y="-287.5" font-family="FreeSans" font-size="10.00">Geant4/G4VUserRegionInformation.hh</text>
</g>
<!-- Node13&#45;&gt;Node14 -->
<g id="edge14" class="edge"><title>Node13&#45;&gt;Node14</title>
<path fill="none" stroke="midnightblue" d="M645,-336.083C645,-329.006 645,-318.861 645,-309.986"/>
<polygon fill="midnightblue" stroke="midnightblue" points="648.5,-309.751 645,-299.751 641.5,-309.751 648.5,-309.751"/>
</g>
<!-- Node15&#45;&gt;Node5 -->
<g id="edge16" class="edge"><title>Node15&#45;&gt;Node5</title>
<path fill="none" stroke="midnightblue" d="M767.608,-224.399C772.11,-202.618 786.814,-144.695 821,-112 843.659,-90.3289 878.091,-78.6177 902.794,-72.6269"/>
<polygon fill="midnightblue" stroke="midnightblue" points="903.732,-76.0035 912.722,-70.3973 902.198,-69.1736 903.732,-76.0035"/>
</g>
<!-- Node17 -->
<g id="node17" class="node"><title>Node17</title>
<g id="a_node17"><a xlink:href="../../d5/d6f/phool_8h.html" target="_top" xlink:title="phool.h">
<polygon fill="none" stroke="black" points="1135.5,-56.5 1135.5,-75.5 1182.5,-75.5 1182.5,-56.5 1135.5,-56.5"/>
<text text-anchor="middle" x="1159" y="-63.5" font-family="FreeSans" font-size="10.00">phool.h</text>
</a>
</g>
</g>
<!-- Node16&#45;&gt;Node17 -->
<g id="edge18" class="edge"><title>Node16&#45;&gt;Node17</title>
<path fill="none" stroke="midnightblue" d="M1214.43,-224.407C1197.49,-217.435 1176.77,-205.799 1166,-188 1146.83,-156.307 1150.71,-110.984 1155.01,-85.764"/>
<polygon fill="midnightblue" stroke="midnightblue" points="1158.49,-86.1914 1156.93,-75.712 1151.62,-84.8764 1158.49,-86.1914"/>
</g>
<!-- Node18 -->
<g id="node18" class="node"><title>Node18</title>
<g id="a_node18"><a xlink:href="../../d3/d62/PHNode_8h.html" target="_top" xlink:title="PHNode.h">
<polygon fill="none" stroke="black" points="1254,-112.5 1254,-131.5 1314,-131.5 1314,-112.5 1254,-112.5"/>
<text text-anchor="middle" x="1284" y="-119.5" font-family="FreeSans" font-size="10.00">PHNode.h</text>
</a>
</g>
</g>
<!-- Node16&#45;&gt;Node18 -->
<g id="edge20" class="edge"><title>Node16&#45;&gt;Node18</title>
<path fill="none" stroke="midnightblue" d="M1246.91,-224.395C1252.73,-215.593 1261.51,-201.353 1267,-188 1273.23,-172.828 1277.75,-154.711 1280.55,-141.462"/>
<polygon fill="midnightblue" stroke="midnightblue" points="1283.99,-142.141 1282.5,-131.65 1277.12,-140.775 1283.99,-142.141"/>
</g>
<!-- Node20 -->
<g id="node20" class="node"><title>Node20</title>
<g id="a_node20"><a xlink:href="../../db/dd5/PHPointerList_8h.html" target="_top" xlink:title="PHPointerList.h">
<polygon fill="none" stroke="black" points="1175.5,-168.5 1175.5,-187.5 1258.5,-187.5 1258.5,-168.5 1175.5,-168.5"/>
<text text-anchor="middle" x="1217" y="-175.5" font-family="FreeSans" font-size="10.00">PHPointerList.h</text>
</a>
</g>
</g>
<!-- Node16&#45;&gt;Node20 -->
<g id="edge24" class="edge"><title>Node16&#45;&gt;Node20</title>
<path fill="none" stroke="midnightblue" d="M1237.04,-224.083C1233.79,-216.77 1229.08,-206.181 1225.05,-197.103"/>
<polygon fill="midnightblue" stroke="midnightblue" points="1228.15,-195.468 1220.89,-187.751 1221.75,-198.311 1228.15,-195.468"/>
</g>
<!-- Node17&#45;&gt;Node4 -->
<g id="edge19" class="edge"><title>Node17&#45;&gt;Node4</title>
<path fill="none" stroke="midnightblue" d="M1164.28,-56.083C1168.71,-48.6127 1175.16,-37.7244 1180.62,-28.5199"/>
<polygon fill="midnightblue" stroke="midnightblue" points="1183.73,-30.1383 1185.81,-19.7511 1177.71,-26.5697 1183.73,-30.1383"/>
</g>
<!-- Node18&#45;&gt;Node17 -->
<g id="edge21" class="edge"><title>Node18&#45;&gt;Node17</title>
<path fill="none" stroke="midnightblue" d="M1264.19,-112.444C1243.71,-103.596 1211.52,-89.6875 1188.14,-79.5865"/>
<polygon fill="midnightblue" stroke="midnightblue" points="1189.28,-76.2692 1178.71,-75.5164 1186.51,-82.6953 1189.28,-76.2692"/>
</g>
<!-- Node19 -->
<g id="node19" class="node"><title>Node19</title>
<polygon fill="none" stroke="#bfbfbf" points="1262,-56.5 1262,-75.5 1306,-75.5 1306,-56.5 1262,-56.5"/>
<text text-anchor="middle" x="1284" y="-63.5" font-family="FreeSans" font-size="10.00">iosfwd</text>
</g>
<!-- Node18&#45;&gt;Node19 -->
<g id="edge22" class="edge"><title>Node18&#45;&gt;Node19</title>
<path fill="none" stroke="midnightblue" d="M1284,-112.083C1284,-105.006 1284,-94.8611 1284,-85.9865"/>
<polygon fill="midnightblue" stroke="midnightblue" points="1287.5,-85.751 1284,-75.7511 1280.5,-85.7511 1287.5,-85.751"/>
</g>
<!-- Node18&#45;&gt;Node5 -->
<g id="edge23" class="edge"><title>Node18&#45;&gt;Node5</title>
<path fill="none" stroke="midnightblue" d="M1253.77,-116.349C1187.45,-106.147 1029.84,-81.8981 963.382,-71.6742"/>
<polygon fill="midnightblue" stroke="midnightblue" points="963.578,-68.1633 953.162,-70.1019 962.514,-75.0819 963.578,-68.1633"/>
</g>
<!-- Node20&#45;&gt;Node17 -->
<g id="edge25" class="edge"><title>Node20&#45;&gt;Node17</title>
<path fill="none" stroke="midnightblue" d="M1212.45,-168.368C1202.96,-150.376 1180.91,-108.55 1168.29,-84.6267"/>
<polygon fill="midnightblue" stroke="midnightblue" points="1171.29,-82.8047 1163.53,-75.5914 1165.1,-86.0696 1171.29,-82.8047"/>
</g>
<!-- Node20&#45;&gt;Node18 -->
<g id="edge26" class="edge"><title>Node20&#45;&gt;Node18</title>
<path fill="none" stroke="midnightblue" d="M1227.76,-168.324C1237.77,-160.263 1252.89,-148.077 1264.93,-138.369"/>
<polygon fill="midnightblue" stroke="midnightblue" points="1267.45,-140.834 1273.04,-131.834 1263.06,-135.384 1267.45,-140.834"/>
</g>
<!-- Node20&#45;&gt;Node4 -->
<g id="edge27" class="edge"><title>Node20&#45;&gt;Node4</title>
<path fill="none" stroke="midnightblue" d="M1215.6,-168.075C1211.51,-141.945 1199.49,-65.2106 1193.91,-29.577"/>
<polygon fill="midnightblue" stroke="midnightblue" points="1197.35,-28.906 1192.34,-19.5681 1190.43,-29.9893 1197.35,-28.906"/>
</g>
<!-- Node22 -->
<g id="node22" class="node"><title>Node22</title>
<g id="a_node22"><a xlink:href="../../dd/d9b/PHDataNode_8h.html" target="_top" xlink:title="PHDataNode.h">
<polygon fill="none" stroke="black" points="1401,-168.5 1401,-187.5 1481,-187.5 1481,-168.5 1401,-168.5"/>
<text text-anchor="middle" x="1441" y="-175.5" font-family="FreeSans" font-size="10.00">PHDataNode.h</text>
</a>
</g>
</g>
<!-- Node21&#45;&gt;Node22 -->
<g id="edge29" class="edge"><title>Node21&#45;&gt;Node22</title>
<path fill="none" stroke="midnightblue" d="M1047.69,-396.392C1120.08,-389.929 1238.3,-376.602 1277,-356 1349.98,-317.144 1407.91,-232.997 1430.62,-196.489"/>
<polygon fill="midnightblue" stroke="midnightblue" points="1433.63,-198.269 1435.85,-187.909 1427.65,-194.626 1433.63,-198.269"/>
</g>
<!-- Node23 -->
<g id="node23" class="node"><title>Node23</title>
<g id="a_node23"><a xlink:href="../../d9/d53/PHIOManager_8h.html" target="_top" xlink:title="PHIOManager.h">
<polygon fill="none" stroke="black" points="919,-224.5 919,-243.5 1005,-243.5 1005,-224.5 919,-224.5"/>
<text text-anchor="middle" x="962" y="-231.5" font-family="FreeSans" font-size="10.00">PHIOManager.h</text>
</a>
</g>
</g>
<!-- Node21&#45;&gt;Node23 -->
<g id="edge32" class="edge"><title>Node21&#45;&gt;Node23</title>
<path fill="none" stroke="midnightblue" d="M987.548,-392.075C983.298,-365.945 970.817,-289.211 965.022,-253.577"/>
<polygon fill="midnightblue" stroke="midnightblue" points="968.454,-252.876 963.394,-243.568 961.544,-254 968.454,-252.876"/>
</g>
<!-- Node24 -->
<g id="node24" class="node"><title>Node24</title>
<g id="a_node24"><a xlink:href="../../dd/de7/PHNodeIOManager_8h.html" target="_top" xlink:title="PHNodeIOManager.h">
<polygon fill="none" stroke="black" points="796,-336.5 796,-355.5 904,-355.5 904,-336.5 796,-336.5"/>
<text text-anchor="middle" x="850" y="-343.5" font-family="FreeSans" font-size="10.00">PHNodeIOManager.h</text>
</a>
</g>
</g>
<!-- Node21&#45;&gt;Node24 -->
<g id="edge35" class="edge"><title>Node21&#45;&gt;Node24</title>
<path fill="none" stroke="midnightblue" d="M966.975,-392.444C943.896,-383.478 907.438,-369.314 881.359,-359.183"/>
<polygon fill="midnightblue" stroke="midnightblue" points="882.511,-355.875 871.922,-355.516 879.976,-362.4 882.511,-355.875"/>
</g>
<!-- Node25 -->
<g id="node25" class="node"><title>Node25</title>
<g id="a_node25"><a xlink:href="../../db/d17/PHTypedNodeIterator_8h.html" target="_top" xlink:title="PHTypedNodeIterator.h">
<polygon fill="none" stroke="black" points="1074.5,-336.5 1074.5,-355.5 1191.5,-355.5 1191.5,-336.5 1074.5,-336.5"/>
<text text-anchor="middle" x="1133" y="-343.5" font-family="FreeSans" font-size="10.00">PHTypedNodeIterator.h</text>
</a>
</g>
</g>
<!-- Node21&#45;&gt;Node25 -->
<g id="edge39" class="edge"><title>Node21&#45;&gt;Node25</title>
<path fill="none" stroke="midnightblue" d="M1011.82,-392.444C1035.83,-383.438 1073.83,-369.189 1100.87,-359.049"/>
<polygon fill="midnightblue" stroke="midnightblue" points="1102.16,-362.305 1110.29,-355.516 1099.7,-355.751 1102.16,-362.305"/>
</g>
<!-- Node28 -->
<g id="node28" class="node"><title>Node28</title>
<g id="a_node28"><a xlink:href="../../de/da7/phooldefs_8h.html" target="_top" xlink:title="phooldefs.h">
<polygon fill="none" stroke="black" points="863.5,-168.5 863.5,-187.5 928.5,-187.5 928.5,-168.5 863.5,-168.5"/>
<text text-anchor="middle" x="896" y="-175.5" font-family="FreeSans" font-size="10.00">phooldefs.h</text>
</a>
</g>
</g>
<!-- Node21&#45;&gt;Node28 -->
<g id="edge45" class="edge"><title>Node21&#45;&gt;Node28</title>
<path fill="none" stroke="midnightblue" d="M983.735,-392.493C969.697,-369.452 931.014,-303.564 910,-244 904.653,-228.845 900.981,-210.95 898.744,-197.777"/>
<polygon fill="midnightblue" stroke="midnightblue" points="902.155,-196.937 897.141,-187.604 895.24,-198.027 902.155,-196.937"/>
</g>
<!-- Node29 -->
<g id="node29" class="node"><title>Node29</title>
<polygon fill="none" stroke="#bfbfbf" points="1209.5,-336.5 1209.5,-355.5 1268.5,-355.5 1268.5,-336.5 1209.5,-336.5"/>
<text text-anchor="middle" x="1239" y="-343.5" font-family="FreeSans" font-size="10.00">TObject.h</text>
</g>
<!-- Node21&#45;&gt;Node29 -->
<g id="edge47" class="edge"><title>Node21&#45;&gt;Node29</title>
<path fill="none" stroke="midnightblue" d="M1029.89,-392.491C1070.35,-384.023 1134.32,-370.511 1199.2,-356.148"/>
<polygon fill="midnightblue" stroke="midnightblue" points="1200.2,-359.513 1209.2,-353.93 1198.68,-352.68 1200.2,-359.513"/>
</g>
<!-- Node21&#45;&gt;Node5 -->
<g id="edge48" class="edge"><title>Node21&#45;&gt;Node5</title>
<path fill="none" stroke="midnightblue" d="M992.461,-392.418C1002.39,-366.629 1029.27,-287.676 1014,-224 1000.76,-168.8 964.328,-111.355 945.158,-83.7631"/>
<polygon fill="midnightblue" stroke="midnightblue" points="948.011,-81.7362 939.376,-75.5965 942.298,-85.7807 948.011,-81.7362"/>
</g>
<!-- Node22&#45;&gt;Node18 -->
<g id="edge30" class="edge"><title>Node22&#45;&gt;Node18</title>
<path fill="none" stroke="midnightblue" d="M1416.12,-168.444C1389.71,-159.359 1347.78,-144.939 1318.26,-134.783"/>
<polygon fill="midnightblue" stroke="midnightblue" points="1319.36,-131.459 1308.76,-131.516 1317.08,-138.079 1319.36,-131.459"/>
</g>
<!-- Node22&#45;&gt;Node4 -->
<g id="edge31" class="edge"><title>Node22&#45;&gt;Node4</title>
<path fill="none" stroke="midnightblue" d="M1434.28,-168.418C1416.83,-146.679 1367.79,-88.8483 1315,-56 1287.71,-39.016 1253.06,-27.128 1227.34,-19.8538"/>
<polygon fill="midnightblue" stroke="midnightblue" points="1228.17,-16.4531 1217.6,-17.1997 1226.33,-23.2066 1228.17,-16.4531"/>
</g>
<!-- Node23&#45;&gt;Node17 -->
<g id="edge33" class="edge"><title>Node23&#45;&gt;Node17</title>
<path fill="none" stroke="midnightblue" d="M970.688,-224.383C991.432,-203.971 1045.79,-151.429 1095,-112 1108.65,-101.065 1124.76,-89.7469 1137.4,-81.1968"/>
<polygon fill="midnightblue" stroke="midnightblue" points="1139.54,-83.9748 1145.9,-75.5054 1135.65,-78.1566 1139.54,-83.9748"/>
</g>
<!-- Node23&#45;&gt;Node5 -->
<g id="edge34" class="edge"><title>Node23&#45;&gt;Node5</title>
<path fill="none" stroke="midnightblue" d="M960.441,-224.075C955.876,-197.945 942.471,-121.211 936.245,-85.577"/>
<polygon fill="midnightblue" stroke="midnightblue" points="939.666,-84.8166 934.497,-75.5681 932.77,-86.0213 939.666,-84.8166"/>
</g>
<!-- Node24&#45;&gt;Node23 -->
<g id="edge36" class="edge"><title>Node24&#45;&gt;Node23</title>
<path fill="none" stroke="midnightblue" d="M858.788,-336.368C877.599,-317.894 921.993,-274.293 945.97,-250.744"/>
<polygon fill="midnightblue" stroke="midnightblue" points="948.57,-253.096 953.252,-243.591 943.665,-248.101 948.57,-253.096"/>
</g>
<!-- Node24&#45;&gt;Node5 -->
<g id="edge37" class="edge"><title>Node24&#45;&gt;Node5</title>
<path fill="none" stroke="midnightblue" d="M848.304,-336.177C843.61,-309.714 832.177,-229.073 854,-168 866.453,-133.148 896.049,-100.967 915.271,-82.6867"/>
<polygon fill="midnightblue" stroke="midnightblue" points="917.824,-85.0931 922.793,-75.7358 913.073,-79.9519 917.824,-85.0931"/>
</g>
<!-- Node24&#45;&gt;Node10 -->
<g id="edge38" class="edge"><title>Node24&#45;&gt;Node10</title>
<path fill="none" stroke="midnightblue" d="M843.395,-336.083C837.745,-328.455 829.455,-317.264 822.549,-307.941"/>
<polygon fill="midnightblue" stroke="midnightblue" points="825.247,-305.703 816.482,-299.751 819.622,-309.87 825.247,-305.703"/>
</g>
<!-- Node26 -->
<g id="node26" class="node"><title>Node26</title>
<g id="a_node26"><a xlink:href="../../d8/dfd/PHNodeIterator_8h.html" target="_top" xlink:title="PHNodeIterator.h">
<polygon fill="none" stroke="black" points="1164.5,-280.5 1164.5,-299.5 1255.5,-299.5 1255.5,-280.5 1164.5,-280.5"/>
<text text-anchor="middle" x="1210" y="-287.5" font-family="FreeSans" font-size="10.00">PHNodeIterator.h</text>
</a>
</g>
</g>
<!-- Node25&#45;&gt;Node26 -->
<g id="edge40" class="edge"><title>Node25&#45;&gt;Node26</title>
<path fill="none" stroke="midnightblue" d="M1145.37,-336.324C1157.16,-328.058 1175.13,-315.453 1189.14,-305.632"/>
<polygon fill="midnightblue" stroke="midnightblue" points="1191.48,-308.262 1197.66,-299.655 1187.46,-302.531 1191.48,-308.262"/>
</g>
<!-- Node27 -->
<g id="node27" class="node"><title>Node27</title>
<polygon fill="none" stroke="#bfbfbf" points="1098,-280.5 1098,-299.5 1146,-299.5 1146,-280.5 1098,-280.5"/>
<text text-anchor="middle" x="1122" y="-287.5" font-family="FreeSans" font-size="10.00">cstddef</text>
</g>
<!-- Node25&#45;&gt;Node27 -->
<g id="edge44" class="edge"><title>Node25&#45;&gt;Node27</title>
<path fill="none" stroke="midnightblue" d="M1131.18,-336.083C1129.73,-328.927 1127.63,-318.635 1125.81,-309.691"/>
<polygon fill="midnightblue" stroke="midnightblue" points="1129.21,-308.851 1123.78,-299.751 1122.35,-310.248 1129.21,-308.851"/>
</g>
<!-- Node26&#45;&gt;Node17 -->
<g id="edge41" class="edge"><title>Node26&#45;&gt;Node17</title>
<path fill="none" stroke="midnightblue" d="M1195.48,-280.267C1183.77,-272.368 1167.97,-259.6 1160,-244 1133.2,-191.542 1140.96,-170.486 1148,-112 1149.07,-103.107 1151.29,-93.4344 1153.46,-85.344"/>
<polygon fill="midnightblue" stroke="midnightblue" points="1156.89,-86.0908 1156.27,-75.5139 1150.16,-84.1668 1156.89,-86.0908"/>
</g>
<!-- Node26&#45;&gt;Node16 -->
<g id="edge42" class="edge"><title>Node26&#45;&gt;Node16</title>
<path fill="none" stroke="midnightblue" d="M1215.12,-280.083C1219.41,-272.613 1225.66,-261.724 1230.94,-252.52"/>
<polygon fill="midnightblue" stroke="midnightblue" points="1234.03,-254.166 1235.98,-243.751 1227.96,-250.681 1234.03,-254.166"/>
</g>
<!-- Node26&#45;&gt;Node20 -->
<g id="edge43" class="edge"><title>Node26&#45;&gt;Node20</title>
<path fill="none" stroke="midnightblue" d="M1196.9,-280.329C1180.63,-268.386 1156.13,-245.861 1166,-224 1171.62,-211.555 1182.56,-201.172 1192.88,-193.527"/>
<polygon fill="midnightblue" stroke="midnightblue" points="1195.01,-196.312 1201.27,-187.764 1191.04,-190.543 1195.01,-196.312"/>
</g>
<!-- Node28&#45;&gt;Node5 -->
<g id="edge46" class="edge"><title>Node28&#45;&gt;Node5</title>
<path fill="none" stroke="midnightblue" d="M898.903,-168.368C904.901,-150.537 918.773,-109.295 926.854,-85.2717"/>
<polygon fill="midnightblue" stroke="midnightblue" points="930.239,-86.1855 930.11,-75.5914 923.605,-83.9537 930.239,-86.1855"/>
</g>
<!-- Node30&#45;&gt;Node26 -->
<g id="edge50" class="edge"><title>Node30&#45;&gt;Node26</title>
<path fill="none" stroke="midnightblue" d="M1246.15,-448.359C1262.17,-427.896 1297.92,-375.251 1277,-336 1269.45,-321.834 1255.24,-311.335 1241.84,-304.058"/>
<polygon fill="midnightblue" stroke="midnightblue" points="1243.3,-300.872 1232.79,-299.529 1240.17,-307.133 1243.3,-300.872"/>
</g>
<!-- Node30&#45;&gt;Node21 -->
<g id="edge51" class="edge"><title>Node30&#45;&gt;Node21</title>
<path fill="none" stroke="midnightblue" d="M1199.39,-448.444C1155.77,-439.023 1085.6,-423.866 1038.42,-413.675"/>
<polygon fill="midnightblue" stroke="midnightblue" points="1038.94,-410.207 1028.43,-411.516 1037.46,-417.049 1038.94,-410.207"/>
</g>
<!-- Node30&#45;&gt;Node22 -->
<g id="edge52" class="edge"><title>Node30&#45;&gt;Node22</title>
<path fill="none" stroke="midnightblue" d="M1282.66,-455.081C1315.85,-451.253 1360.22,-440.644 1387,-412 1444.26,-350.738 1444.79,-241.13 1442.45,-197.579"/>
<polygon fill="midnightblue" stroke="midnightblue" points="1445.94,-197.318 1441.8,-187.568 1438.96,-197.775 1445.94,-197.318"/>
</g>
<!-- Node30&#45;&gt;Node18 -->
<g id="edge53" class="edge"><title>Node30&#45;&gt;Node18</title>
<path fill="none" stroke="midnightblue" d="M1266.12,-448.471C1305.27,-434.267 1373,-401.779 1373,-347 1373,-347 1373,-347 1373,-233 1373,-190.846 1333.01,-155.779 1306.64,-137.239"/>
<polygon fill="midnightblue" stroke="midnightblue" points="1308.54,-134.3 1298.3,-131.599 1304.62,-140.099 1308.54,-134.3"/>
</g>
<!-- Node30&#45;&gt;Node29 -->
<g id="edge54" class="edge"><title>Node30&#45;&gt;Node29</title>
<path fill="none" stroke="midnightblue" d="M1239,-448.368C1239,-430.617 1239,-389.666 1239,-365.597"/>
<polygon fill="midnightblue" stroke="midnightblue" points="1242.5,-365.591 1239,-355.591 1235.5,-365.591 1242.5,-365.591"/>
</g>
<!-- Node30&#45;&gt;Node5 -->
<g id="edge55" class="edge"><title>Node30&#45;&gt;Node5</title>
<path fill="none" stroke="midnightblue" d="M1211.22,-448.461C1172.5,-435.11 1102.83,-405.557 1065,-356 1028.17,-307.757 1046.6,-282.381 1030,-224 1022.89,-198.981 1022.8,-192.094 1013,-168 1002.44,-142.037 1001.25,-134.093 984,-112 975.144,-100.656 963.162,-89.9142 953.036,-81.7721"/>
<polygon fill="midnightblue" stroke="midnightblue" points="955.122,-78.9599 945.077,-75.5881 950.827,-84.4875 955.122,-78.9599"/>
</g>
</g>
</svg>
