<?xml version="1.0" encoding="UTF-8" standalone="no"?>
<!DOCTYPE svg PUBLIC "-//W3C//DTD SVG 1.1//EN"
 "http://www.w3.org/Graphics/SVG/1.1/DTD/svg11.dtd">
<!-- Generated by graphviz version 2.36.0 (20140111.2315)
 -->
<!-- Title: /home/yuhw/GitHub/SeaQuest/e1039&#45;core/online Pages: 1 -->
<svg width="387pt" height="231pt"
 viewBox="0.00 0.00 387.00 231.00" xmlns="http://www.w3.org/2000/svg" xmlns:xlink="http://www.w3.org/1999/xlink">
<g id="graph0" class="graph" transform="scale(1 1) rotate(0) translate(4 227)">
<title>/home/yuhw/GitHub/SeaQuest/e1039&#45;core/online</title>
<g id="clust1" class="cluster"><title>clusterdir_810a5474308ccd455f294ee06809b0db</title>
<g id="a_clust1"><a xlink:href="dir_810a5474308ccd455f294ee06809b0db.html" target="_top" xlink:title="e1039&#45;core">
<polygon fill="#ddddee" stroke="black" points="8,-128 8,-215 371,-215 371,-128 8,-128"/>
<text text-anchor="middle" x="189.5" y="-203" font-family="FreeSans" font-size="10.00">e1039&#45;core</text>
</a>
</g>
</g>
<g id="clust2" class="cluster"><title>clusterdir_5c1848125bf9eaa552f55d3588cd4512</title>
<g id="a_clust2"><a xlink:href="dir_5c1848125bf9eaa552f55d3588cd4512.html" target="_top">
<polygon fill="#eeeeff" stroke="black" points="16,-136 16,-188 363,-188 363,-136 16,-136"/>
</a>
</g>
</g>
<!-- dir_5c1848125bf9eaa552f55d3588cd4512 -->
<g id="node1" class="node"><title>dir_5c1848125bf9eaa552f55d3588cd4512</title>
<text text-anchor="middle" x="328" y="-159.5" font-family="FreeSans" font-size="10.00">online</text>
</g>
<!-- dir_a94e624e13e4e88e36c3e4dfcec6444f -->
<g id="node2" class="node"><title>dir_a94e624e13e4e88e36c3e4dfcec6444f</title>
<g id="a_node2"><a xlink:href="dir_a94e624e13e4e88e36c3e4dfcec6444f.html" target="_top" xlink:title="decoder_maindaq">
<polygon fill="white" stroke="black" points="116.25,-180 23.75,-180 23.75,-144 116.25,-144 116.25,-180"/>
<text text-anchor="middle" x="70" y="-159.5" font-family="FreeSans" font-size="10.00">decoder_maindaq</text>
</a>
</g>
</g>
<!-- dir_2448c0bb113df70d47bcda56f851a548 -->
<g id="node5" class="node"><title>dir_2448c0bb113df70d47bcda56f851a548</title>
<g id="a_node5"><a xlink:href="dir_2448c0bb113df70d47bcda56f851a548.html" target="_top" xlink:title="interface_main">
<polygon fill="none" stroke="black" points="110,-108 30,-108 30,-72 110,-72 110,-108"/>
<text text-anchor="middle" x="70" y="-87.5" font-family="FreeSans" font-size="10.00">interface_main</text>
</a>
</g>
</g>
<!-- dir_a94e624e13e4e88e36c3e4dfcec6444f&#45;&gt;dir_2448c0bb113df70d47bcda56f851a548 -->
<g id="edge2" class="edge"><title>dir_a94e624e13e4e88e36c3e4dfcec6444f&#45;&gt;dir_2448c0bb113df70d47bcda56f851a548</title>
<path fill="none" stroke="black" d="M70,-143.697C70,-135.983 70,-126.712 70,-118.112"/>
<polygon fill="black" stroke="black" points="73.5001,-118.104 70,-108.104 66.5001,-118.104 73.5001,-118.104"/>
<g id="a_edge2&#45;headlabel"><a xlink:href="dir_000024_000020.html" target="_top" xlink:title="17">
<text text-anchor="middle" x="76.3393" y="-119.199" font-family="FreeSans" font-size="10.00">17</text>
</a>
</g>
</g>
<!-- dir_8846024b083f0188b5ed66bccaef8042 -->
<g id="node6" class="node"><title>dir_8846024b083f0188b5ed66bccaef8042</title>
<g id="a_node6"><a xlink:href="dir_8846024b083f0188b5ed66bccaef8042.html" target="_top" xlink:title="framework">
<polygon fill="none" stroke="red" points="168.5,-36 107.5,-36 107.5,-0 168.5,-0 168.5,-36"/>
<text text-anchor="middle" x="138" y="-15.5" font-family="FreeSans" font-size="10.00">framework</text>
</a>
</g>
</g>
<!-- dir_a94e624e13e4e88e36c3e4dfcec6444f&#45;&gt;dir_8846024b083f0188b5ed66bccaef8042 -->
<g id="edge3" class="edge"><title>dir_a94e624e13e4e88e36c3e4dfcec6444f&#45;&gt;dir_8846024b083f0188b5ed66bccaef8042</title>
<path fill="none" stroke="black" d="M90.4379,-143.794C100.505,-134.246 111.964,-121.573 119,-108 128.969,-88.7702 133.71,-64.6125 135.963,-46.3198"/>
<polygon fill="black" stroke="black" points="139.45,-46.6216 137.023,-36.3087 132.489,-45.8846 139.45,-46.6216"/>
<g id="a_edge3&#45;headlabel"><a xlink:href="dir_000024_000013.html" target="_top" xlink:title="16">
<text text-anchor="middle" x="141.895" y="-47.9952" font-family="FreeSans" font-size="10.00">16</text>
</a>
</g>
</g>
<!-- dir_72cd3c643a3d8c1df6df7e2c54e22818 -->
<g id="node3" class="node"><title>dir_72cd3c643a3d8c1df6df7e2c54e22818</title>
<g id="a_node3"><a xlink:href="dir_72cd3c643a3d8c1df6df7e2c54e22818.html" target="_top" xlink:title="event">
<polygon fill="white" stroke="black" points="189,-180 135,-180 135,-144 189,-144 189,-180"/>
<text text-anchor="middle" x="162" y="-159.5" font-family="FreeSans" font-size="10.00">event</text>
</a>
</g>
</g>
<!-- dir_0561564c13c5757ae327e83b16db1dae -->
<g id="node4" class="node"><title>dir_0561564c13c5757ae327e83b16db1dae</title>
<g id="a_node4"><a xlink:href="dir_0561564c13c5757ae327e83b16db1dae.html" target="_top" xlink:title="onlmonserver">
<polygon fill="white" stroke="black" points="282.25,-180 207.75,-180 207.75,-144 282.25,-144 282.25,-180"/>
<text text-anchor="middle" x="245" y="-159.5" font-family="FreeSans" font-size="10.00">onlmonserver</text>
</a>
</g>
</g>
<!-- dir_0561564c13c5757ae327e83b16db1dae&#45;&gt;dir_8846024b083f0188b5ed66bccaef8042 -->
<g id="edge4" class="edge"><title>dir_0561564c13c5757ae327e83b16db1dae&#45;&gt;dir_8846024b083f0188b5ed66bccaef8042</title>
<path fill="none" stroke="black" d="M232.093,-143.871C213.455,-119.137 178.873,-73.2424 157.224,-44.5121"/>
<polygon fill="black" stroke="black" points="159.766,-42.0695 150.952,-36.1893 154.175,-46.2821 159.766,-42.0695"/>
<g id="a_edge4&#45;headlabel"><a xlink:href="dir_000026_000013.html" target="_top" xlink:title="1">
<text text-anchor="middle" x="164.197" y="-40.7316" font-family="FreeSans" font-size="10.00">1</text>
</a>
</g>
</g>
<!-- dir_2448c0bb113df70d47bcda56f851a548&#45;&gt;dir_8846024b083f0188b5ed66bccaef8042 -->
<g id="edge1" class="edge"><title>dir_2448c0bb113df70d47bcda56f851a548&#45;&gt;dir_8846024b083f0188b5ed66bccaef8042</title>
<path fill="none" stroke="black" d="M86.809,-71.6966C95.126,-63.135 105.305,-52.6562 114.39,-43.3045"/>
<polygon fill="black" stroke="black" points="116.927,-45.7159 121.384,-36.1043 111.906,-40.8384 116.927,-45.7159"/>
<g id="a_edge1&#45;headlabel"><a xlink:href="dir_000020_000013.html" target="_top" xlink:title="22">
<text text-anchor="middle" x="116.459" y="-47.7726" font-family="FreeSans" font-size="10.00">22</text>
</a>
</g>
</g>
</g>
</svg>
