<?xml version="1.0" encoding="UTF-8" standalone="no"?>
<!DOCTYPE svg PUBLIC "-//W3C//DTD SVG 1.1//EN"
 "http://www.w3.org/Graphics/SVG/1.1/DTD/svg11.dtd">
<!-- Generated by graphviz version 2.36.0 (20140111.2315)
 -->
<!-- Title: KalmanTrack::printNodes Pages: 1 -->
<svg width="1038pt" height="140pt"
 viewBox="0.00 0.00 1038.00 139.85" xmlns="http://www.w3.org/2000/svg" xmlns:xlink="http://www.w3.org/1999/xlink">
<g id="graph0" class="graph" transform="scale(1 1) rotate(0) translate(4 135.851)">
<title>KalmanTrack::printNodes</title>
<!-- Node1 -->
<g id="node1" class="node"><title>Node1</title>
<polygon fill="#bfbfbf" stroke="black" points="0,-41.3507 0,-60.3507 126,-60.3507 126,-41.3507 0,-41.3507"/>
<text text-anchor="middle" x="63" y="-48.3507" font-family="FreeSans" font-size="10.00">KalmanTrack::printNodes</text>
</g>
<!-- Node2 -->
<g id="node2" class="node"><title>Node2</title>
<g id="a_node2"><a xlink:href="../../d3/d46/classKalmanFastTracking.html#ac0b6441647d023db04c618a35fd2a8cd" target="_top" xlink:title="Track fitting stuff. ">
<polygon fill="none" stroke="black" points="192.5,-57.8507 192.5,-87.8507 301.5,-87.8507 301.5,-57.8507 192.5,-57.8507"/>
<text text-anchor="start" x="200.5" y="-75.8507" font-family="FreeSans" font-size="10.00">KalmanFastTracking</text>
<text text-anchor="middle" x="247" y="-64.8507" font-family="FreeSans" font-size="10.00">::processOneTracklet</text>
</a>
</g>
</g>
<!-- Node1&#45;&gt;Node2 -->
<g id="edge1" class="edge"><title>Node1&#45;&gt;Node2</title>
<path fill="none" stroke="midnightblue" d="M136.109,-59.5672C154.864,-61.8343 174.739,-64.2367 192.354,-66.3661"/>
<polygon fill="midnightblue" stroke="midnightblue" points="136.473,-56.0858 126.125,-58.3603 135.633,-63.0352 136.473,-56.0858"/>
</g>
<!-- Node5 -->
<g id="node5" class="node"><title>Node5</title>
<g id="a_node5"><a xlink:href="../../db/daa/classKalmanDSTrk.html#ace95cba717e2c3b24dfb46e8d458f61a" target="_top" xlink:title="Track fitting stuff. ">
<polygon fill="none" stroke="black" points="162,-19.3507 162,-38.3507 332,-38.3507 332,-19.3507 162,-19.3507"/>
<text text-anchor="middle" x="247" y="-26.3507" font-family="FreeSans" font-size="10.00">KalmanDSTrk::processOneTracklet</text>
</a>
</g>
</g>
<!-- Node1&#45;&gt;Node5 -->
<g id="edge5" class="edge"><title>Node1&#45;&gt;Node5</title>
<path fill="none" stroke="midnightblue" d="M136.16,-42.1281C146.324,-40.8994 156.816,-39.6312 167.098,-38.3883"/>
<polygon fill="midnightblue" stroke="midnightblue" points="135.633,-38.6662 126.125,-43.3411 136.473,-45.6156 135.633,-38.6662"/>
</g>
<!-- Node3 -->
<g id="node3" class="node"><title>Node3</title>
<g id="a_node3"><a xlink:href="../../d3/d46/classKalmanFastTracking.html#a53c93bc5e58b3560d1cfb42e84bbe95c" target="_top" xlink:title="KalmanFastTracking\l::buildGlobalTracks">
<polygon fill="none" stroke="black" points="379.5,-101.851 379.5,-131.851 486.5,-131.851 486.5,-101.851 379.5,-101.851"/>
<text text-anchor="start" x="387.5" y="-119.851" font-family="FreeSans" font-size="10.00">KalmanFastTracking</text>
<text text-anchor="middle" x="433" y="-108.851" font-family="FreeSans" font-size="10.00">::buildGlobalTracks</text>
</a>
</g>
</g>
<!-- Node2&#45;&gt;Node3 -->
<g id="edge2" class="edge"><title>Node2&#45;&gt;Node3</title>
<path fill="none" stroke="midnightblue" d="M311.69,-88.081C333.818,-93.3724 358.366,-99.2426 379.488,-104.293"/>
<polygon fill="midnightblue" stroke="midnightblue" points="312.255,-84.6174 301.715,-85.6956 310.627,-91.4254 312.255,-84.6174"/>
</g>
<!-- Node4 -->
<g id="node4" class="node"><title>Node4</title>
<g id="a_node4"><a xlink:href="../../d3/d46/classKalmanFastTracking.html#ada493cf8d995c42b9e78a53b891ce72b" target="_top" xlink:title="KalmanFastTracking\l::setRawEvent">
<polygon fill="none" stroke="black" points="550.5,-69.8507 550.5,-99.8507 657.5,-99.8507 657.5,-69.8507 550.5,-69.8507"/>
<text text-anchor="start" x="558.5" y="-87.8507" font-family="FreeSans" font-size="10.00">KalmanFastTracking</text>
<text text-anchor="middle" x="604" y="-76.8507" font-family="FreeSans" font-size="10.00">::setRawEvent</text>
</a>
</g>
</g>
<!-- Node2&#45;&gt;Node4 -->
<g id="edge4" class="edge"><title>Node2&#45;&gt;Node4</title>
<path fill="none" stroke="midnightblue" d="M311.72,-75.0046C379.939,-77.3106 486.917,-80.9268 550.482,-83.0755"/>
<polygon fill="midnightblue" stroke="midnightblue" points="311.644,-71.5001 301.531,-74.6602 311.407,-78.4961 311.644,-71.5001"/>
</g>
<!-- Node3&#45;&gt;Node4 -->
<g id="edge3" class="edge"><title>Node3&#45;&gt;Node4</title>
<path fill="none" stroke="midnightblue" d="M496.77,-104.965C514.444,-101.619 533.479,-98.0144 550.486,-94.7941"/>
<polygon fill="midnightblue" stroke="midnightblue" points="495.721,-101.602 486.546,-106.901 497.023,-108.479 495.721,-101.602"/>
</g>
<!-- Node6 -->
<g id="node6" class="node"><title>Node6</title>
<g id="a_node6"><a xlink:href="../../db/daa/classKalmanDSTrk.html#adf4981f081f2606bf3412851eaa62eb0" target="_top" xlink:title="KalmanDSTrk::buildGlobal\lTracks">
<polygon fill="none" stroke="black" points="368,-13.8507 368,-43.8507 498,-43.8507 498,-13.8507 368,-13.8507"/>
<text text-anchor="start" x="376" y="-31.8507" font-family="FreeSans" font-size="10.00">KalmanDSTrk::buildGlobal</text>
<text text-anchor="middle" x="433" y="-20.8507" font-family="FreeSans" font-size="10.00">Tracks</text>
</a>
</g>
</g>
<!-- Node5&#45;&gt;Node6 -->
<g id="edge6" class="edge"><title>Node5&#45;&gt;Node6</title>
<path fill="none" stroke="midnightblue" d="M342.356,-28.8507C351.019,-28.8507 359.654,-28.8507 367.954,-28.8507"/>
<polygon fill="midnightblue" stroke="midnightblue" points="342.192,-25.3508 332.192,-28.8507 342.192,-32.3508 342.192,-25.3508"/>
</g>
<!-- Node7 -->
<g id="node7" class="node"><title>Node7</title>
<g id="a_node7"><a xlink:href="../../db/daa/classKalmanDSTrk.html#a58ceb0cdcf685588b2a543d7a9c2bf9d" target="_top" xlink:title="KalmanDSTrk::setRawEvent\lWorker">
<polygon fill="none" stroke="black" points="534,-1.8507 534,-31.8507 674,-31.8507 674,-1.8507 534,-1.8507"/>
<text text-anchor="start" x="542" y="-19.8507" font-family="FreeSans" font-size="10.00">KalmanDSTrk::setRawEvent</text>
<text text-anchor="middle" x="604" y="-8.8507" font-family="FreeSans" font-size="10.00">Worker</text>
</a>
</g>
</g>
<!-- Node5&#45;&gt;Node7 -->
<g id="edge10" class="edge"><title>Node5&#45;&gt;Node7</title>
<path fill="none" stroke="midnightblue" d="M293.77,-17.0102C316.006,-11.851 343.218,-6.40475 368,-3.8507 425.473,2.07252 440.332,-0.294339 498,-3.8507 509.642,-4.56864 521.969,-5.73027 533.924,-7.0713"/>
<polygon fill="midnightblue" stroke="midnightblue" points="292.85,-13.6314 283.93,-19.349 294.468,-20.4416 292.85,-13.6314"/>
</g>
<!-- Node6&#45;&gt;Node7 -->
<g id="edge7" class="edge"><title>Node6&#45;&gt;Node7</title>
<path fill="none" stroke="midnightblue" d="M508.516,-23.5597C516.903,-22.9641 525.423,-22.3591 533.739,-21.7686"/>
<polygon fill="midnightblue" stroke="midnightblue" points="508.101,-20.0802 498.374,-24.2798 508.597,-27.0626 508.101,-20.0802"/>
</g>
<!-- Node8 -->
<g id="node8" class="node"><title>Node8</title>
<g id="a_node8"><a xlink:href="../../db/daa/classKalmanDSTrk.html#a67f1b61fbc3fbba52e10f4b06d4f8794" target="_top" xlink:title="KalmanDSTrk::setRawEvent">
<polygon fill="none" stroke="black" points="710,-7.3507 710,-26.3507 850,-26.3507 850,-7.3507 710,-7.3507"/>
<text text-anchor="middle" x="780" y="-14.3507" font-family="FreeSans" font-size="10.00">KalmanDSTrk::setRawEvent</text>
</a>
</g>
</g>
<!-- Node7&#45;&gt;Node8 -->
<g id="edge8" class="edge"><title>Node7&#45;&gt;Node8</title>
<path fill="none" stroke="midnightblue" d="M684.035,-16.8507C692.625,-16.8507 701.319,-16.8507 709.779,-16.8507"/>
<polygon fill="midnightblue" stroke="midnightblue" points="684.019,-13.3508 674.019,-16.8507 684.019,-20.3508 684.019,-13.3508"/>
</g>
<!-- Node9 -->
<g id="node9" class="node"><title>Node9</title>
<g id="a_node9"><a xlink:href="../../d4/dff/classKalmanFastTrackingWrapper.html#a5edc61b3b9a06f6486b1f22e44f7d63e" target="_top" xlink:title="KalmanFastTrackingWrapper\l::process_event">
<polygon fill="none" stroke="black" points="886.5,-1.8507 886.5,-31.8507 1029.5,-31.8507 1029.5,-1.8507 886.5,-1.8507"/>
<text text-anchor="start" x="894.5" y="-19.8507" font-family="FreeSans" font-size="10.00">KalmanFastTrackingWrapper</text>
<text text-anchor="middle" x="958" y="-8.8507" font-family="FreeSans" font-size="10.00">::process_event</text>
</a>
</g>
</g>
<!-- Node8&#45;&gt;Node9 -->
<g id="edge9" class="edge"><title>Node8&#45;&gt;Node9</title>
<path fill="none" stroke="midnightblue" d="M860.226,-16.8507C868.953,-16.8507 877.796,-16.8507 886.408,-16.8507"/>
<polygon fill="midnightblue" stroke="midnightblue" points="860.055,-13.3508 850.055,-16.8507 860.055,-20.3508 860.055,-13.3508"/>
</g>
</g>
</svg>
