<?xml version="1.0" encoding="UTF-8" standalone="no"?>
<!DOCTYPE svg PUBLIC "-//W3C//DTD SVG 1.1//EN"
 "http://www.w3.org/Graphics/SVG/1.1/DTD/svg11.dtd">
<!-- Generated by graphviz version 2.40.1 (20161225.0304)
 -->
<!-- Title: KalmanTrack::getMomentumVertex Pages: 1 -->
<svg width="768pt" height="796pt"
 viewBox="0.00 0.00 768.00 795.76" xmlns="http://www.w3.org/2000/svg" xmlns:xlink="http://www.w3.org/1999/xlink">
<g id="graph0" class="graph" transform="scale(1 1) rotate(0) translate(4 791.7617)">
<title>KalmanTrack::getMomentumVertex</title>
<!-- Node194 -->
<g id="node1" class="node">
<title>Node194</title>
<polygon fill="#bfbfbf" stroke="#000000" points="0,-479.5 0,-509.5 141,-509.5 141,-479.5 0,-479.5"/>
<text text-anchor="start" x="8" y="-497.5" font-family="FreeSans" font-size="10.00" fill="#000000">KalmanTrack::getMomentum</text>
<text text-anchor="middle" x="70.5" y="-486.5" font-family="FreeSans" font-size="10.00" fill="#000000">Vertex</text>
</g>
<!-- Node195 -->
<g id="node2" class="node">
<title>Node195</title>
<g id="a_node2"><a xlink:href="../../d6/d2a/classKalmanFilter.html#a9c77cbaf604c1adc5e0e12ef3463d37c" target="_top" xlink:title="Fit one node. ">
<polygon fill="none" stroke="#000000" points="178,-390 178,-409 288,-409 288,-390 178,-390"/>
<text text-anchor="middle" x="233" y="-397" font-family="FreeSans" font-size="10.00" fill="#000000">KalmanFilter::fit_node</text>
</a>
</g>
</g>
<!-- Node194&#45;&gt;Node195 -->
<g id="edge1" class="edge">
<title>Node194&#45;&gt;Node195</title>
<path fill="none" stroke="#191970" d="M88.2906,-479.2996C108.6239,-462.5444 143.4413,-435.6927 177,-418.5 181.0675,-416.4162 185.4137,-414.4825 189.8187,-412.7099"/>
<polygon fill="#191970" stroke="#191970" points="191.3361,-415.8789 199.4705,-409.0905 188.8783,-409.3246 191.3361,-415.8789"/>
</g>
<!-- Node200 -->
<g id="node7" class="node">
<title>Node200</title>
<g id="a_node7"><a xlink:href="../../df/dd0/classNode.html#ab483dc1ccfa5a0dc9ba876ee9a2134c9" target="_top" xlink:title="Node::getFiltered">
<polygon fill="none" stroke="#000000" points="516.5,-730 516.5,-749 605.5,-749 605.5,-730 516.5,-730"/>
<text text-anchor="middle" x="561" y="-737" font-family="FreeSans" font-size="10.00" fill="#000000">Node::getFiltered</text>
</a>
</g>
</g>
<!-- Node194&#45;&gt;Node200 -->
<g id="edge34" class="edge">
<title>Node194&#45;&gt;Node200</title>
<path fill="none" stroke="#191970" d="M91.1441,-509.7601C112.1928,-525.004 146.0591,-548.672 177,-566.5 313.0636,-644.8993 348.3468,-664.3522 495,-720.5 500.9923,-722.7942 507.3816,-724.9634 513.7363,-726.9589"/>
<polygon fill="#191970" stroke="#191970" points="513.047,-730.4067 523.6317,-729.9445 515.069,-723.7051 513.047,-730.4067"/>
</g>
<!-- Node201 -->
<g id="node8" class="node">
<title>Node201</title>
<g id="a_node8"><a xlink:href="../../df/dd0/classNode.html#a4e6f7c1350b1445ca9b9221cb709dbcb" target="_top" xlink:title="Node::getMeasurement">
<polygon fill="none" stroke="#000000" points="503,-768 503,-787 619,-787 619,-768 503,-768"/>
<text text-anchor="middle" x="561" y="-775" font-family="FreeSans" font-size="10.00" fill="#000000">Node::getMeasurement</text>
</a>
</g>
</g>
<!-- Node194&#45;&gt;Node201 -->
<g id="edge35" class="edge">
<title>Node194&#45;&gt;Node201</title>
<path fill="none" stroke="#191970" d="M72.9427,-509.6067C80.3697,-550.327 106.6363,-662.9613 177,-717.5 268.3846,-788.3319 409.4752,-791.223 492.7879,-785.3908"/>
<polygon fill="#191970" stroke="#191970" points="493.1982,-788.8698 502.9032,-784.6199 492.6661,-781.8901 493.1982,-788.8698"/>
</g>
<!-- Node202 -->
<g id="node9" class="node">
<title>Node202</title>
<g id="a_node9"><a xlink:href="../../df/dd0/classNode.html#aba6dd9d4c392f430d1c93d4af381dbaa" target="_top" xlink:title="Node::getMeasurementCov">
<polygon fill="none" stroke="#000000" points="495,-692 495,-711 627,-711 627,-692 495,-692"/>
<text text-anchor="middle" x="561" y="-699" font-family="FreeSans" font-size="10.00" fill="#000000">Node::getMeasurementCov</text>
</a>
</g>
</g>
<!-- Node194&#45;&gt;Node202 -->
<g id="edge36" class="edge">
<title>Node194&#45;&gt;Node202</title>
<path fill="none" stroke="#191970" d="M115.7503,-509.5275C189.8633,-534.974 340.711,-590.2913 459,-656.5 476.2223,-666.1397 477.2532,-673.8639 495,-682.5 499.7041,-684.7891 504.7344,-686.8517 509.8409,-688.6982"/>
<polygon fill="#191970" stroke="#191970" points="509.0955,-692.1391 519.6893,-691.9853 511.3118,-685.4992 509.0955,-692.1391"/>
</g>
<!-- Node204 -->
<g id="node11" class="node">
<title>Node204</title>
<g id="a_node11"><a xlink:href="../../df/dd0/classNode.html#ab276ce7246c8434b058236346dc121fd" target="_top" xlink:title="Node::getProjector">
<polygon fill="none" stroke="#000000" points="513,-426 513,-445 609,-445 609,-426 513,-426"/>
<text text-anchor="middle" x="561" y="-433" font-family="FreeSans" font-size="10.00" fill="#000000">Node::getProjector</text>
</a>
</g>
</g>
<!-- Node194&#45;&gt;Node204 -->
<g id="edge37" class="edge">
<title>Node194&#45;&gt;Node204</title>
<path fill="none" stroke="#191970" d="M141.0613,-498.3047C183.9599,-499.674 239.7782,-499.777 289,-494.5 371.1477,-485.693 464.8976,-462.3315 518.1072,-447.7858"/>
<polygon fill="#191970" stroke="#191970" points="519.1676,-451.1241 527.8759,-445.0896 517.3051,-444.3764 519.1676,-451.1241"/>
</g>
<!-- Node223 -->
<g id="node30" class="node">
<title>Node223</title>
<g id="a_node30"><a xlink:href="../../d2/d70/classTrkPar.html#adcac7102fadcb8a0071dd8d77d3ed08c" target="_top" xlink:title="TrkPar::get_mom">
<polygon fill="none" stroke="#000000" points="187.5,-466 187.5,-485 278.5,-485 278.5,-466 187.5,-466"/>
<text text-anchor="middle" x="233" y="-473" font-family="FreeSans" font-size="10.00" fill="#000000">TrkPar::get_mom</text>
</a>
</g>
</g>
<!-- Node194&#45;&gt;Node223 -->
<g id="edge32" class="edge">
<title>Node194&#45;&gt;Node223</title>
<path fill="none" stroke="#191970" d="M141.3022,-486.2216C153.3416,-484.8139 165.6922,-483.3698 177.2729,-482.0158"/>
<polygon fill="#191970" stroke="#191970" points="177.6986,-485.4899 187.2244,-480.8522 176.8856,-478.5373 177.6986,-485.4899"/>
</g>
<!-- Node224 -->
<g id="node31" class="node">
<title>Node224</title>
<g id="a_node31"><a xlink:href="../../df/dd0/classNode.html#a47f85a076ff52d02b1bf5327348ad8dd" target="_top" xlink:title="Node::getChisq">
<polygon fill="none" stroke="#000000" points="192.5,-428 192.5,-447 273.5,-447 273.5,-428 192.5,-428"/>
<text text-anchor="middle" x="233" y="-435" font-family="FreeSans" font-size="10.00" fill="#000000">Node::getChisq</text>
</a>
</g>
</g>
<!-- Node194&#45;&gt;Node224 -->
<g id="edge33" class="edge">
<title>Node194&#45;&gt;Node224</title>
<path fill="none" stroke="#191970" d="M112.1747,-479.4602C131.8157,-472.4156 155.5856,-463.9527 177,-456.5 182.7147,-454.5112 188.7662,-452.431 194.6966,-450.407"/>
<polygon fill="#191970" stroke="#191970" points="196.1409,-453.6128 204.4818,-447.0798 193.8874,-446.9854 196.1409,-453.6128"/>
</g>
<!-- Node225 -->
<g id="node32" class="node">
<title>Node225</title>
<g id="a_node32"><a xlink:href="../../d6/d2a/classKalmanFilter.html#a6f0a34958ea81f4f3843ad3c03bfa366" target="_top" xlink:title="singlton instance ">
<polygon fill="none" stroke="#000000" points="177,-352 177,-371 289,-371 289,-352 177,-352"/>
<text text-anchor="middle" x="233" y="-359" font-family="FreeSans" font-size="10.00" fill="#000000">KalmanFilter::instance</text>
</a>
</g>
</g>
<!-- Node194&#45;&gt;Node225 -->
<g id="edge38" class="edge">
<title>Node194&#45;&gt;Node225</title>
<path fill="none" stroke="#191970" d="M80.8177,-479.3286C98.0318,-455.1086 134.9034,-407.676 177,-380.5 180.1159,-378.4885 183.4676,-376.6663 186.9264,-375.0201"/>
<polygon fill="#191970" stroke="#191970" points="188.4069,-378.194 196.244,-371.0644 185.6714,-371.7506 188.4069,-378.194"/>
</g>
<!-- Node227 -->
<g id="node34" class="node">
<title>Node227</title>
<g id="a_node34"><a xlink:href="../../d6/d2a/classKalmanFilter.html#a8d8429d9087367301473581d099091f6" target="_top" xlink:title="set the current track parameter using the current node ">
<polygon fill="none" stroke="#000000" points="325,-718 325,-737 459,-737 459,-718 325,-718"/>
<text text-anchor="middle" x="392" y="-725" font-family="FreeSans" font-size="10.00" fill="#000000">KalmanFilter::setCurrTrkpar</text>
</a>
</g>
</g>
<!-- Node194&#45;&gt;Node227 -->
<g id="edge40" class="edge">
<title>Node194&#45;&gt;Node227</title>
<path fill="none" stroke="#191970" d="M74.3206,-509.7547C84.3245,-546.3368 114.9118,-639.3587 177,-684.5 216.5602,-713.2623 270.5717,-723.9846 314.5617,-727.5302"/>
<polygon fill="#191970" stroke="#191970" points="314.4282,-731.0293 324.6475,-728.2333 314.9151,-724.0463 314.4282,-731.0293"/>
</g>
<!-- Node228 -->
<g id="node35" class="node">
<title>Node228</title>
<g id="a_node35"><a xlink:href="../../df/dd0/classNode.html#a3e34b0104817584060e987797eb5d18c" target="_top" xlink:title="Node::setZ">
<polygon fill="none" stroke="#000000" points="202,-314 202,-333 264,-333 264,-314 202,-314"/>
<text text-anchor="middle" x="233" y="-321" font-family="FreeSans" font-size="10.00" fill="#000000">Node::setZ</text>
</a>
</g>
</g>
<!-- Node194&#45;&gt;Node228 -->
<g id="edge42" class="edge">
<title>Node194&#45;&gt;Node228</title>
<path fill="none" stroke="#191970" d="M77.196,-479.1424C91.2498,-448.6556 126.729,-380.1925 177,-342.5 181.5691,-339.0742 186.7965,-336.24 192.1805,-333.9023"/>
<polygon fill="#191970" stroke="#191970" points="193.8197,-337.0241 201.9322,-330.2096 191.3407,-330.4777 193.8197,-337.0241"/>
</g>
<!-- Node196 -->
<g id="node3" class="node">
<title>Node196</title>
<g id="a_node3"><a xlink:href="../../d6/d2a/classKalmanFilter.html#a06b2c6aa660f89c5f30e164b0a29512c" target="_top" xlink:title="KalmanFilter::filter">
<polygon fill="none" stroke="#000000" points="345,-542 345,-561 439,-561 439,-542 345,-542"/>
<text text-anchor="middle" x="392" y="-549" font-family="FreeSans" font-size="10.00" fill="#000000">KalmanFilter::filter</text>
</a>
</g>
</g>
<!-- Node195&#45;&gt;Node196 -->
<g id="edge2" class="edge">
<title>Node195&#45;&gt;Node196</title>
<path fill="none" stroke="#191970" d="M271.2224,-409.0936C277.4754,-411.5901 283.6503,-414.6851 289,-418.5 332.6043,-449.5945 366.5903,-504.3865 382.3635,-532.9706"/>
<polygon fill="#191970" stroke="#191970" points="379.35,-534.7569 387.169,-541.9064 385.5151,-531.4414 379.35,-534.7569"/>
</g>
<!-- Node210 -->
<g id="node17" class="node">
<title>Node210</title>
<g id="a_node17"><a xlink:href="../../d6/d2a/classKalmanFilter.html#adfaf7ddeefb43919df6aee3f1e2638ae" target="_top" xlink:title="Kalman filter steps. ">
<polygon fill="none" stroke="#000000" points="339.5,-255 339.5,-274 444.5,-274 444.5,-255 339.5,-255"/>
<text text-anchor="middle" x="392" y="-262" font-family="FreeSans" font-size="10.00" fill="#000000">KalmanFilter::predict</text>
</a>
</g>
</g>
<!-- Node195&#45;&gt;Node210 -->
<g id="edge16" class="edge">
<title>Node195&#45;&gt;Node210</title>
<path fill="none" stroke="#191970" d="M270.1285,-389.9425C276.7014,-387.4175 283.2686,-384.3035 289,-380.5 328.9955,-353.958 363.2256,-308.1471 380.3319,-282.7631"/>
<polygon fill="#191970" stroke="#191970" points="383.4487,-284.3939 386.0259,-274.1173 377.6026,-280.5438 383.4487,-284.3939"/>
</g>
<!-- Node197 -->
<g id="node4" class="node">
<title>Node197</title>
<g id="a_node4"><a xlink:href="../../d9/db7/classSMatrix.html#a5b825aefb91608b827fbb652501eaecc" target="_top" xlink:title="SMatrix::getABCt">
<polygon fill="none" stroke="#000000" points="515.5,-312 515.5,-331 606.5,-331 606.5,-312 515.5,-312"/>
<text text-anchor="middle" x="561" y="-319" font-family="FreeSans" font-size="10.00" fill="#000000">SMatrix::getABCt</text>
</a>
</g>
</g>
<!-- Node196&#45;&gt;Node197 -->
<g id="edge3" class="edge">
<title>Node196&#45;&gt;Node197</title>
<path fill="none" stroke="#191970" d="M393.8194,-541.8027C400.6011,-508.4079 427.5705,-397.1208 495,-340.5 498.2873,-337.7397 501.9552,-335.3799 505.8317,-333.3627"/>
<polygon fill="#191970" stroke="#191970" points="507.4319,-336.4825 515.1744,-329.2502 504.6117,-330.0757 507.4319,-336.4825"/>
</g>
<!-- Node198 -->
<g id="node5" class="node">
<title>Node198</title>
<g id="a_node5"><a xlink:href="../../d9/db7/classSMatrix.html#a03a7887eb40e088b798124c6cc6fe526" target="_top" xlink:title="SMatrix::getABtC">
<polygon fill="none" stroke="#000000" points="515.5,-464 515.5,-483 606.5,-483 606.5,-464 515.5,-464"/>
<text text-anchor="middle" x="561" y="-471" font-family="FreeSans" font-size="10.00" fill="#000000">SMatrix::getABtC</text>
</a>
</g>
</g>
<!-- Node196&#45;&gt;Node198 -->
<g id="edge4" class="edge">
<title>Node196&#45;&gt;Node198</title>
<path fill="none" stroke="#191970" d="M427.385,-541.9771C437.9891,-538.3068 449.3548,-533.5154 459,-527.5 477.9347,-515.691 475.699,-503.7003 495,-492.5 498.7127,-490.3455 502.6864,-488.4213 506.7742,-486.7051"/>
<polygon fill="#191970" stroke="#191970" points="508.3215,-489.8626 516.4506,-483.0678 505.8585,-483.3102 508.3215,-489.8626"/>
</g>
<!-- Node199 -->
<g id="node6" class="node">
<title>Node199</title>
<g id="a_node6"><a xlink:href="../../d9/db7/classSMatrix.html#a92895b3c0152de2335f0c60b6ccdc60e" target="_top" xlink:title="SMatrix::getAtBC">
<polygon fill="none" stroke="#000000" points="515.5,-654 515.5,-673 606.5,-673 606.5,-654 515.5,-654"/>
<text text-anchor="middle" x="561" y="-661" font-family="FreeSans" font-size="10.00" fill="#000000">SMatrix::getAtBC</text>
</a>
</g>
</g>
<!-- Node196&#45;&gt;Node199 -->
<g id="edge5" class="edge">
<title>Node196&#45;&gt;Node199</title>
<path fill="none" stroke="#191970" d="M402.3581,-561.0831C427.4126,-584.2314 489.6303,-641.515 495,-644.5 498.9765,-646.7105 503.2339,-648.6842 507.6,-650.4425"/>
<polygon fill="#191970" stroke="#191970" points="506.671,-653.8289 517.2651,-653.9561 509.0627,-647.2501 506.671,-653.8289"/>
</g>
<!-- Node196&#45;&gt;Node200 -->
<g id="edge6" class="edge">
<title>Node196&#45;&gt;Node200</title>
<path fill="none" stroke="#191970" d="M398.4652,-561.2299C410.6363,-579.634 437.6477,-620.893 459,-656.5 475.7841,-684.489 469.4064,-700.2503 495,-720.5 498.622,-723.3657 502.6589,-725.7992 506.9022,-727.8657"/>
<polygon fill="#191970" stroke="#191970" points="505.8629,-731.2239 516.4405,-731.8285 508.5487,-724.7596 505.8629,-731.2239"/>
</g>
<!-- Node196&#45;&gt;Node201 -->
<g id="edge7" class="edge">
<title>Node196&#45;&gt;Node201</title>
<path fill="none" stroke="#191970" d="M395.6204,-561.2042C409.6262,-598.2776 461.1552,-730.2987 495,-758.5 497.0439,-760.2031 499.2329,-761.7537 501.5262,-763.1653"/>
<polygon fill="#191970" stroke="#191970" points="500.3102,-766.4763 510.802,-767.9505 503.5195,-760.2553 500.3102,-766.4763"/>
</g>
<!-- Node196&#45;&gt;Node202 -->
<g id="edge8" class="edge">
<title>Node196&#45;&gt;Node202</title>
<path fill="none" stroke="#191970" d="M404.8363,-561.1454C419.3143,-572.4939 442.93,-592.4709 459,-613.5 480.0023,-640.9836 468.2154,-660.6133 495,-682.5 497.0601,-684.1834 499.2625,-685.7177 501.5668,-687.1161"/>
<polygon fill="#191970" stroke="#191970" points="500.375,-690.4373 510.8733,-691.864 503.5561,-684.2018 500.375,-690.4373"/>
</g>
<!-- Node203 -->
<g id="node10" class="node">
<title>Node203</title>
<g id="a_node10"><a xlink:href="../../df/dd0/classNode.html#a49001f3ff76ccd0091837d333f8698f8" target="_top" xlink:title="Gets. ">
<polygon fill="none" stroke="#000000" points="512,-388 512,-407 610,-407 610,-388 512,-388"/>
<text text-anchor="middle" x="561" y="-395" font-family="FreeSans" font-size="10.00" fill="#000000">Node::getPredicted</text>
</a>
</g>
</g>
<!-- Node196&#45;&gt;Node203 -->
<g id="edge9" class="edge">
<title>Node196&#45;&gt;Node203</title>
<path fill="none" stroke="#191970" d="M396.5153,-541.9845C408.722,-517.3037 444.8669,-450.774 495,-416.5 497.9437,-414.4875 501.1004,-412.6859 504.3801,-411.0734"/>
<polygon fill="#191970" stroke="#191970" points="506.0568,-414.163 513.8739,-407.0116 503.3033,-407.7272 506.0568,-414.163"/>
</g>
<!-- Node196&#45;&gt;Node204 -->
<g id="edge10" class="edge">
<title>Node196&#45;&gt;Node204</title>
<path fill="none" stroke="#191970" d="M434.0479,-541.9957C443.0093,-538.5269 451.8998,-533.8325 459,-527.5 485.9976,-503.4216 467.2497,-477.7069 495,-454.5 497.6883,-452.2518 500.6292,-450.2695 503.7294,-448.5215"/>
<polygon fill="#191970" stroke="#191970" points="505.2914,-451.6542 512.8102,-444.1898 502.2776,-445.3362 505.2914,-451.6542"/>
</g>
<!-- Node205 -->
<g id="node12" class="node">
<title>Node205</title>
<g id="a_node12"><a xlink:href="../../d9/db7/classSMatrix.html#ac07d7810681bd4683b433c29187d7a5a" target="_top" xlink:title="SMatrix::invertMatrix">
<polygon fill="none" stroke="#000000" points="509,-616 509,-635 613,-635 613,-616 509,-616"/>
<text text-anchor="middle" x="561" y="-623" font-family="FreeSans" font-size="10.00" fill="#000000">SMatrix::invertMatrix</text>
</a>
</g>
</g>
<!-- Node196&#45;&gt;Node205 -->
<g id="edge11" class="edge">
<title>Node196&#45;&gt;Node205</title>
<path fill="none" stroke="#191970" d="M407.5552,-561.1453C427.3008,-573.0706 462.6901,-593.393 495,-606.5 500.8008,-608.8532 506.9981,-611.0403 513.1854,-613.0304"/>
<polygon fill="#191970" stroke="#191970" points="512.2548,-616.4059 522.8415,-615.9913 514.3069,-609.7134 512.2548,-616.4059"/>
</g>
<!-- Node206 -->
<g id="node13" class="node">
<title>Node206</title>
<g id="a_node13"><a xlink:href="../../df/dd0/classNode.html#a35fb6b17a2553e4ff684f9cbd1e9a72c" target="_top" xlink:title="Node::isFilterDone">
<polygon fill="none" stroke="#000000" points="513.5,-578 513.5,-597 608.5,-597 608.5,-578 513.5,-578"/>
<text text-anchor="middle" x="561" y="-585" font-family="FreeSans" font-size="10.00" fill="#000000">Node::isFilterDone</text>
</a>
</g>
</g>
<!-- Node196&#45;&gt;Node206 -->
<g id="edge12" class="edge">
<title>Node196&#45;&gt;Node206</title>
<path fill="none" stroke="#191970" d="M436.8452,-561.0528C458.13,-565.5869 483.756,-571.0457 506.1854,-575.8235"/>
<polygon fill="#191970" stroke="#191970" points="505.7289,-579.3047 516.2387,-577.9651 507.1874,-572.4583 505.7289,-579.3047"/>
</g>
<!-- Node207 -->
<g id="node14" class="node">
<title>Node207</title>
<g id="a_node14"><a xlink:href="../../df/dd0/classNode.html#a85c7247d8b700b6e836479d7666467e4" target="_top" xlink:title="Node::isPredictionDone">
<polygon fill="none" stroke="#000000" points="503,-350 503,-369 619,-369 619,-350 503,-350"/>
<text text-anchor="middle" x="561" y="-357" font-family="FreeSans" font-size="10.00" fill="#000000">Node::isPredictionDone</text>
</a>
</g>
</g>
<!-- Node196&#45;&gt;Node207 -->
<g id="edge13" class="edge">
<title>Node196&#45;&gt;Node207</title>
<path fill="none" stroke="#191970" d="M394.8822,-541.9362C404.1936,-512.7004 436.3239,-423.7613 495,-378.5 497.3455,-376.6907 499.8574,-375.0536 502.4813,-373.5724"/>
<polygon fill="#191970" stroke="#191970" points="504.2594,-376.6011 511.7546,-369.1129 501.2256,-370.2926 504.2594,-376.6011"/>
</g>
<!-- Node208 -->
<g id="node15" class="node">
<title>Node208</title>
<g id="a_node15"><a xlink:href="../../df/dd0/classNode.html#a84513468a161f558e0722ad6585e7d2e" target="_top" xlink:title="Node::setChisq">
<polygon fill="none" stroke="#000000" points="521,-540 521,-559 601,-559 601,-540 521,-540"/>
<text text-anchor="middle" x="561" y="-547" font-family="FreeSans" font-size="10.00" fill="#000000">Node::setChisq</text>
</a>
</g>
</g>
<!-- Node196&#45;&gt;Node208 -->
<g id="edge14" class="edge">
<title>Node196&#45;&gt;Node208</title>
<path fill="none" stroke="#191970" d="M439.0759,-550.9429C461.351,-550.6793 487.974,-550.3642 510.6515,-550.0958"/>
<polygon fill="#191970" stroke="#191970" points="510.8056,-553.5944 520.7635,-549.9762 510.7227,-546.5948 510.8056,-553.5944"/>
</g>
<!-- Node209 -->
<g id="node16" class="node">
<title>Node209</title>
<g id="a_node16"><a xlink:href="../../df/dd0/classNode.html#a4beaaa953c5b36787c115a33b8b22b08" target="_top" xlink:title="Node::setFilterDone">
<polygon fill="none" stroke="#000000" points="510.5,-502 510.5,-521 611.5,-521 611.5,-502 510.5,-502"/>
<text text-anchor="middle" x="561" y="-509" font-family="FreeSans" font-size="10.00" fill="#000000">Node::setFilterDone</text>
</a>
</g>
</g>
<!-- Node196&#45;&gt;Node209 -->
<g id="edge15" class="edge">
<title>Node196&#45;&gt;Node209</title>
<path fill="none" stroke="#191970" d="M432.4797,-541.919C455.996,-536.353 485.8231,-529.2934 510.8219,-523.3765"/>
<polygon fill="#191970" stroke="#191970" points="511.9256,-526.712 520.8506,-521.0028 510.3133,-519.9002 511.9256,-526.712"/>
</g>
<!-- Node210&#45;&gt;Node197 -->
<g id="edge18" class="edge">
<title>Node210&#45;&gt;Node197</title>
<path fill="none" stroke="#191970" d="M416.3803,-274.0678C437.1403,-282.0764 467.8332,-293.5915 495,-302.5 501.8547,-304.7478 509.1556,-306.9943 516.3091,-309.1146"/>
<polygon fill="#191970" stroke="#191970" points="515.3366,-312.4768 525.9165,-311.916 517.2961,-305.7566 515.3366,-312.4768"/>
</g>
<!-- Node210&#45;&gt;Node203 -->
<g id="edge22" class="edge">
<title>Node210&#45;&gt;Node203</title>
<path fill="none" stroke="#191970" d="M397.9226,-274.0929C411.9629,-296.0211 449.5236,-350.1042 495,-378.5 498.374,-380.6067 501.9893,-382.487 505.7259,-384.1641"/>
<polygon fill="#191970" stroke="#191970" points="504.6095,-387.4867 515.1951,-387.9277 507.195,-380.9816 504.6095,-387.4867"/>
</g>
<!-- Node210&#45;&gt;Node207 -->
<g id="edge26" class="edge">
<title>Node210&#45;&gt;Node207</title>
<path fill="none" stroke="#191970" d="M402.2908,-274.0827C419.9478,-290.0426 457.726,-322.1257 495,-340.5 499.6272,-342.781 504.5755,-344.8337 509.6042,-346.6701"/>
<polygon fill="#191970" stroke="#191970" points="508.7165,-350.0642 519.3105,-349.9381 510.9502,-343.4301 508.7165,-350.0642"/>
</g>
<!-- Node211 -->
<g id="node18" class="node">
<title>Node211</title>
<g id="a_node18"><a xlink:href="../../d1/d3d/classGenFitExtrapolator.html#a7b1a68079d56beae96151d18c5166526" target="_top" xlink:title="GenFitExtrapolator\l::extrapolateTo">
<polygon fill="none" stroke="#000000" points="512.5,-98.5 512.5,-128.5 609.5,-128.5 609.5,-98.5 512.5,-98.5"/>
<text text-anchor="start" x="520.5" y="-116.5" font-family="FreeSans" font-size="10.00" fill="#000000">GenFitExtrapolator</text>
<text text-anchor="middle" x="561" y="-105.5" font-family="FreeSans" font-size="10.00" fill="#000000">::extrapolateTo</text>
</a>
</g>
</g>
<!-- Node210&#45;&gt;Node211 -->
<g id="edge17" class="edge">
<title>Node210&#45;&gt;Node211</title>
<path fill="none" stroke="#191970" d="M444.8282,-255.0247C450.0244,-252.5413 454.8861,-249.4202 459,-245.5 495.3242,-210.8866 460.193,-174.6387 495,-138.5 497.619,-135.7808 500.5637,-133.3539 503.7178,-131.1885"/>
<polygon fill="#191970" stroke="#191970" points="505.6248,-134.1276 512.4757,-126.0458 502.0802,-128.0913 505.6248,-134.1276"/>
</g>
<!-- Node212 -->
<g id="node19" class="node">
<title>Node212</title>
<g id="a_node19"><a xlink:href="../../d1/d3d/classGenFitExtrapolator.html#af0f921bf2fe387759c642a9b7c348109" target="_top" xlink:title="Get the final state parameters and covariance. ">
<polygon fill="none" stroke="#000000" points="503.5,-49.5 503.5,-79.5 618.5,-79.5 618.5,-49.5 503.5,-49.5"/>
<text text-anchor="start" x="511.5" y="-67.5" font-family="FreeSans" font-size="10.00" fill="#000000">GenFitExtrapolator</text>
<text text-anchor="middle" x="561" y="-56.5" font-family="FreeSans" font-size="10.00" fill="#000000">::getFinalStateWithCov</text>
</a>
</g>
</g>
<!-- Node210&#45;&gt;Node212 -->
<g id="edge19" class="edge">
<title>Node210&#45;&gt;Node212</title>
<path fill="none" stroke="#191970" d="M444.5707,-255.7453C449.9453,-253.1411 454.9188,-249.7945 459,-245.5 508.3156,-193.6068 447.596,-142.1451 495,-88.5 495.8629,-87.5235 496.7687,-86.5868 497.7124,-85.6881"/>
<polygon fill="#191970" stroke="#191970" points="499.8826,-88.4342 505.6051,-79.5177 495.5712,-82.9194 499.8826,-88.4342"/>
</g>
<!-- Node215 -->
<g id="node22" class="node">
<title>Node215</title>
<g id="a_node22"><a xlink:href="../../d1/d3d/classGenFitExtrapolator.html#ac013889a915dded109c6b9fd236b31dd" target="_top" xlink:title="Get the propagator. ">
<polygon fill="none" stroke="#000000" points="512.5,-.5 512.5,-30.5 609.5,-30.5 609.5,-.5 512.5,-.5"/>
<text text-anchor="start" x="520.5" y="-18.5" font-family="FreeSans" font-size="10.00" fill="#000000">GenFitExtrapolator</text>
<text text-anchor="middle" x="561" y="-7.5" font-family="FreeSans" font-size="10.00" fill="#000000">::getPropagator</text>
</a>
</g>
</g>
<!-- Node210&#45;&gt;Node215 -->
<g id="edge23" class="edge">
<title>Node210&#45;&gt;Node215</title>
<path fill="none" stroke="#191970" d="M444.794,-255.9521C450.1295,-253.3116 455.0327,-249.8999 459,-245.5 521.2395,-176.4734 435.3011,-110.7352 495,-39.5 497.5697,-36.4338 500.5649,-33.7593 503.8344,-31.4265"/>
<polygon fill="#191970" stroke="#191970" points="505.6381,-34.426 512.4401,-26.303 502.0571,-28.4112 505.6381,-34.426"/>
</g>
<!-- Node216 -->
<g id="node23" class="node">
<title>Node216</title>
<g id="a_node23"><a xlink:href="../../df/dd0/classNode.html#aea3d844fd090737d8981ac1f6bbca3a7" target="_top" xlink:title="Node::getPropagator">
<polygon fill="none" stroke="#000000" points="509,-274 509,-293 613,-293 613,-274 509,-274"/>
<text text-anchor="middle" x="561" y="-281" font-family="FreeSans" font-size="10.00" fill="#000000">Node::getPropagator</text>
</a>
</g>
</g>
<!-- Node210&#45;&gt;Node216 -->
<g id="edge24" class="edge">
<title>Node210&#45;&gt;Node216</title>
<path fill="none" stroke="#191970" d="M444.5463,-270.4076C461.6369,-272.329 480.7728,-274.4804 498.5164,-276.4752"/>
<polygon fill="#191970" stroke="#191970" points="498.4482,-279.9895 508.7767,-277.6287 499.2303,-273.0333 498.4482,-279.9895"/>
</g>
<!-- Node217 -->
<g id="node24" class="node">
<title>Node217</title>
<g id="a_node24"><a xlink:href="../../df/dd0/classNode.html#ab26d80e97604621eab868ebacda71304" target="_top" xlink:title="Node::getZ">
<polygon fill="none" stroke="#000000" points="529.5,-236 529.5,-255 592.5,-255 592.5,-236 529.5,-236"/>
<text text-anchor="middle" x="561" y="-243" font-family="FreeSans" font-size="10.00" fill="#000000">Node::getZ</text>
</a>
</g>
</g>
<!-- Node210&#45;&gt;Node217 -->
<g id="edge25" class="edge">
<title>Node210&#45;&gt;Node217</title>
<path fill="none" stroke="#191970" d="M444.5463,-258.5924C468.6618,-255.8812 496.8494,-252.7122 519.4519,-250.1711"/>
<polygon fill="#191970" stroke="#191970" points="519.8628,-253.647 529.4091,-249.0516 519.0806,-246.6909 519.8628,-253.647"/>
</g>
<!-- Node218 -->
<g id="node25" class="node">
<title>Node218</title>
<g id="a_node25"><a xlink:href="../../d1/d3d/classGenFitExtrapolator.html#af4266f5d426d735721763e75e530cd48" target="_top" xlink:title="Set input initial state parameters. ">
<polygon fill="none" stroke="#000000" points="503,-186.5 503,-216.5 619,-216.5 619,-186.5 503,-186.5"/>
<text text-anchor="start" x="511" y="-204.5" font-family="FreeSans" font-size="10.00" fill="#000000">GenFitExtrapolator</text>
<text text-anchor="middle" x="561" y="-193.5" font-family="FreeSans" font-size="10.00" fill="#000000">::setInitialStateWithCov</text>
</a>
</g>
</g>
<!-- Node210&#45;&gt;Node218 -->
<g id="edge27" class="edge">
<title>Node210&#45;&gt;Node218</title>
<path fill="none" stroke="#191970" d="M431.0806,-254.9047C440.3585,-252.2205 450.1332,-249.0515 459,-245.5 475.7945,-238.7731 478.5093,-233.9407 495,-226.5 499.628,-224.4118 504.487,-222.3447 509.3809,-220.3464"/>
<polygon fill="#191970" stroke="#191970" points="510.7888,-223.5531 518.7838,-216.6012 508.1985,-217.05 510.7888,-223.5531"/>
</g>
<!-- Node222 -->
<g id="node29" class="node">
<title>Node222</title>
<g id="a_node29"><a xlink:href="../../df/dd0/classNode.html#a10e8167a975add910020702519aaadb0" target="_top" xlink:title="Node::setPredictionDone">
<polygon fill="none" stroke="#000000" points="500,-148 500,-167 622,-167 622,-148 500,-148"/>
<text text-anchor="middle" x="561" y="-155" font-family="FreeSans" font-size="10.00" fill="#000000">Node::setPredictionDone</text>
</a>
</g>
</g>
<!-- Node210&#45;&gt;Node222 -->
<g id="edge31" class="edge">
<title>Node210&#45;&gt;Node222</title>
<path fill="none" stroke="#191970" d="M442.8817,-254.9494C448.6813,-252.4877 454.2174,-249.3922 459,-245.5 485.828,-223.6665 468.2154,-198.3867 495,-176.5 497.0601,-174.8166 499.2625,-173.2823 501.5668,-171.8839"/>
<polygon fill="#191970" stroke="#191970" points="503.5561,-174.7982 510.8733,-167.136 500.375,-168.5627 503.5561,-174.7982"/>
</g>
<!-- Node213 -->
<g id="node20" class="node">
<title>Node213</title>
<g id="a_node20"><a xlink:href="../../d1/d3d/classGenFitExtrapolator.html#a555c962eb4a305b009e3a37069a57c63" target="_top" xlink:title="GenFitExtrapolator\l::convertMPtoSV">
<polygon fill="none" stroke="#000000" points="663,-69.5 663,-99.5 760,-99.5 760,-69.5 663,-69.5"/>
<text text-anchor="start" x="671" y="-87.5" font-family="FreeSans" font-size="10.00" fill="#000000">GenFitExtrapolator</text>
<text text-anchor="middle" x="711.5" y="-76.5" font-family="FreeSans" font-size="10.00" fill="#000000">::convertMPtoSV</text>
</a>
</g>
</g>
<!-- Node212&#45;&gt;Node213 -->
<g id="edge20" class="edge">
<title>Node212&#45;&gt;Node213</title>
<path fill="none" stroke="#191970" d="M618.7568,-72.1753C629.9268,-73.6597 641.6412,-75.2164 652.8397,-76.7046"/>
<polygon fill="#191970" stroke="#191970" points="652.5747,-80.2001 662.9486,-78.048 653.4969,-73.2611 652.5747,-80.2001"/>
</g>
<!-- Node214 -->
<g id="node21" class="node">
<title>Node214</title>
<g id="a_node21"><a xlink:href="../../d1/d3d/classGenFitExtrapolator.html#af89a02f2ed82e4444bae4662f07b1682" target="_top" xlink:title="GenFitExtrapolator\l::TRSCSD">
<polygon fill="none" stroke="#000000" points="663,-20.5 663,-50.5 760,-50.5 760,-20.5 663,-20.5"/>
<text text-anchor="start" x="671" y="-38.5" font-family="FreeSans" font-size="10.00" fill="#000000">GenFitExtrapolator</text>
<text text-anchor="middle" x="711.5" y="-27.5" font-family="FreeSans" font-size="10.00" fill="#000000">::TRSCSD</text>
</a>
</g>
</g>
<!-- Node212&#45;&gt;Node214 -->
<g id="edge21" class="edge">
<title>Node212&#45;&gt;Node214</title>
<path fill="none" stroke="#191970" d="M618.7568,-53.3708C629.9268,-51.2184 641.6412,-48.9612 652.8397,-46.8033"/>
<polygon fill="#191970" stroke="#191970" points="653.7915,-50.1844 662.9486,-44.8554 652.467,-43.3108 653.7915,-50.1844"/>
</g>
<!-- Node219 -->
<g id="node26" class="node">
<title>Node219</title>
<g id="a_node26"><a xlink:href="../../d1/d3d/classGenFitExtrapolator.html#a665990fee41ea5f21f14b8b8be2123e7" target="_top" xlink:title="Transformation between the state vector and the mom/pos. ">
<polygon fill="none" stroke="#000000" points="663,-137.5 663,-167.5 760,-167.5 760,-137.5 663,-137.5"/>
<text text-anchor="start" x="671" y="-155.5" font-family="FreeSans" font-size="10.00" fill="#000000">GenFitExtrapolator</text>
<text text-anchor="middle" x="711.5" y="-144.5" font-family="FreeSans" font-size="10.00" fill="#000000">::convertSVtoMP</text>
</a>
</g>
</g>
<!-- Node218&#45;&gt;Node219 -->
<g id="edge28" class="edge">
<title>Node218&#45;&gt;Node219</title>
<path fill="none" stroke="#191970" d="M607.383,-186.3986C622.6175,-181.4385 639.7126,-175.8726 655.5781,-170.7071"/>
<polygon fill="#191970" stroke="#191970" points="656.845,-173.9756 665.2702,-167.5516 654.6779,-167.3195 656.845,-173.9756"/>
</g>
<!-- Node220 -->
<g id="node27" class="node">
<title>Node220</title>
<g id="a_node27"><a xlink:href="../../d1/d3d/classGenFitExtrapolator.html#a9dac444d8a4c8632bf60968fa5b929c3" target="_top" xlink:title="Set particle type. ">
<polygon fill="none" stroke="#000000" points="663,-235.5 663,-265.5 760,-265.5 760,-235.5 663,-235.5"/>
<text text-anchor="start" x="671" y="-253.5" font-family="FreeSans" font-size="10.00" fill="#000000">GenFitExtrapolator</text>
<text text-anchor="middle" x="711.5" y="-242.5" font-family="FreeSans" font-size="10.00" fill="#000000">::setParticleType</text>
</a>
</g>
</g>
<!-- Node218&#45;&gt;Node220 -->
<g id="edge29" class="edge">
<title>Node218&#45;&gt;Node220</title>
<path fill="none" stroke="#191970" d="M607.383,-216.6014C622.6175,-221.5615 639.7126,-227.1274 655.5781,-232.2929"/>
<polygon fill="#191970" stroke="#191970" points="654.6779,-235.6805 665.2702,-235.4484 656.845,-229.0244 654.6779,-235.6805"/>
</g>
<!-- Node221 -->
<g id="node28" class="node">
<title>Node221</title>
<g id="a_node28"><a xlink:href="../../d1/d3d/classGenFitExtrapolator.html#a96d70bf901dbf71f4772873a3b1df1b5" target="_top" xlink:title="GenFitExtrapolator\l::TRSDSC">
<polygon fill="none" stroke="#000000" points="663,-186.5 663,-216.5 760,-216.5 760,-186.5 663,-186.5"/>
<text text-anchor="start" x="671" y="-204.5" font-family="FreeSans" font-size="10.00" fill="#000000">GenFitExtrapolator</text>
<text text-anchor="middle" x="711.5" y="-193.5" font-family="FreeSans" font-size="10.00" fill="#000000">::TRSDSC</text>
</a>
</g>
</g>
<!-- Node218&#45;&gt;Node221 -->
<g id="edge30" class="edge">
<title>Node218&#45;&gt;Node221</title>
<path fill="none" stroke="#191970" d="M619.1872,-201.5C630.0941,-201.5 641.5059,-201.5 652.439,-201.5"/>
<polygon fill="#191970" stroke="#191970" points="652.7426,-205.0001 662.7425,-201.5 652.7425,-198.0001 652.7426,-205.0001"/>
</g>
<!-- Node226 -->
<g id="node33" class="node">
<title>Node226</title>
<g id="a_node33"><a xlink:href="../../d6/d2a/classKalmanFilter.html#ae44df2d206d9c7a7083b1a0313f20a73" target="_top" xlink:title="Real constructor. ">
<polygon fill="none" stroke="#000000" points="326.5,-217 326.5,-236 457.5,-236 457.5,-217 326.5,-217"/>
<text text-anchor="middle" x="392" y="-224" font-family="FreeSans" font-size="10.00" fill="#000000">KalmanFilter::KalmanFilter</text>
</a>
</g>
</g>
<!-- Node225&#45;&gt;Node226 -->
<g id="edge39" class="edge">
<title>Node225&#45;&gt;Node226</title>
<path fill="none" stroke="#191970" d="M275.151,-351.8976C280.2349,-349.4438 285.0248,-346.3643 289,-342.5 321.9724,-310.4471 291.2246,-276.7057 325,-245.5 326.6956,-243.9334 328.511,-242.4948 330.4189,-241.1738"/>
<polygon fill="#191970" stroke="#191970" points="332.3461,-244.1037 339.2916,-236.103 328.8728,-238.0262 332.3461,-244.1037"/>
</g>
<!-- Node227&#45;&gt;Node200 -->
<g id="edge41" class="edge">
<title>Node227&#45;&gt;Node200</title>
<path fill="none" stroke="#191970" d="M459.2789,-732.2772C474.835,-733.3818 491.2043,-734.5441 506.1552,-735.6057"/>
<polygon fill="#191970" stroke="#191970" points="506.0289,-739.1054 516.2517,-736.3226 506.5247,-732.123 506.0289,-739.1054"/>
</g>
</g>
</svg>
