<?xml version="1.0" encoding="UTF-8" standalone="no"?>
<!DOCTYPE svg PUBLIC "-//W3C//DTD SVG 1.1//EN"
 "http://www.w3.org/Graphics/SVG/1.1/DTD/svg11.dtd">
<!-- Generated by graphviz version 2.30.1 (20200930.0103)
 -->
<!-- Title: /dev/shm/kenichi/update&#45;github&#45;e1039&#45;doc/e1039&#45;core/simulation/g4main/PHG4VtxPointv1.h Pages: 1 -->
<svg width="1035pt" height="152pt"
 viewBox="0.00 0.00 1035.00 152.00" xmlns="http://www.w3.org/2000/svg" xmlns:xlink="http://www.w3.org/1999/xlink">
<g id="graph0" class="graph" transform="scale(1 1) rotate(0) translate(4 148)">
<title>/dev/shm/kenichi/update&#45;github&#45;e1039&#45;doc/e1039&#45;core/simulation/g4main/PHG4VtxPointv1.h</title>
<!-- Node1 -->
<g id="node1" class="node"><title>Node1</title>
<polygon fill="#bfbfbf" stroke="black" points="444.5,-91 444.5,-143 567.5,-143 567.5,-91 444.5,-91"/>
<text text-anchor="start" x="452.5" y="-131" font-family="FreeSans" font-size="10.00">/dev/shm/kenichi/update</text>
<text text-anchor="start" x="452.5" y="-120" font-family="FreeSans" font-size="10.00">&#45;github&#45;e1039&#45;doc/e1039</text>
<text text-anchor="start" x="452.5" y="-109" font-family="FreeSans" font-size="10.00">&#45;core/simulation/g4main</text>
<text text-anchor="middle" x="506" y="-98" font-family="FreeSans" font-size="10.00">/PHG4VtxPointv1.h</text>
</g>
<!-- Node2 -->
<g id="node2" class="node"><title>Node2</title>
<g id="a_node2"><a xlink:href="../../d8/d06/PHG4DSTReader_8cc.html" target="_top" xlink:title="/dev/shm/kenichi/update\l&#45;github&#45;e1039&#45;doc/e1039\l&#45;core/simulation/g4eval\l/PHG4DSTReader.cc">
<polygon fill="none" stroke="black" points="-0.5,-1 -0.5,-53 122.5,-53 122.5,-1 -0.5,-1"/>
<text text-anchor="start" x="7.5" y="-41" font-family="FreeSans" font-size="10.00">/dev/shm/kenichi/update</text>
<text text-anchor="start" x="7.5" y="-30" font-family="FreeSans" font-size="10.00">&#45;github&#45;e1039&#45;doc/e1039</text>
<text text-anchor="start" x="7.5" y="-19" font-family="FreeSans" font-size="10.00">&#45;core/simulation/g4eval</text>
<text text-anchor="middle" x="61" y="-8" font-family="FreeSans" font-size="10.00">/PHG4DSTReader.cc</text>
</a>
</g>
</g>
<!-- Node1&#45;&gt;Node2 -->
<g id="edge1" class="edge"><title>Node1&#45;&gt;Node2</title>
<path fill="none" stroke="midnightblue" d="M434.217,-108.284C358.095,-99.141 234.758,-81.5734 131,-54 128.244,-53.2675 125.444,-52.4689 122.629,-51.6209"/>
<polygon fill="midnightblue" stroke="midnightblue" points="433.836,-111.763 444.179,-109.465 434.66,-104.812 433.836,-111.763"/>
</g>
<!-- Node3 -->
<g id="node3" class="node"><title>Node3</title>
<g id="a_node3"><a xlink:href="../../dd/d67/PHG4InEvent_8cc.html" target="_top" xlink:title="/dev/shm/kenichi/update\l&#45;github&#45;e1039&#45;doc/e1039\l&#45;core/simulation/g4main\l/PHG4InEvent.cc">
<polygon fill="none" stroke="black" points="140.5,-1 140.5,-53 263.5,-53 263.5,-1 140.5,-1"/>
<text text-anchor="start" x="148.5" y="-41" font-family="FreeSans" font-size="10.00">/dev/shm/kenichi/update</text>
<text text-anchor="start" x="148.5" y="-30" font-family="FreeSans" font-size="10.00">&#45;github&#45;e1039&#45;doc/e1039</text>
<text text-anchor="start" x="148.5" y="-19" font-family="FreeSans" font-size="10.00">&#45;core/simulation/g4main</text>
<text text-anchor="middle" x="202" y="-8" font-family="FreeSans" font-size="10.00">/PHG4InEvent.cc</text>
</a>
</g>
</g>
<!-- Node1&#45;&gt;Node3 -->
<g id="edge2" class="edge"><title>Node1&#45;&gt;Node3</title>
<path fill="none" stroke="midnightblue" d="M434.294,-98.7149C387.968,-87.1072 326.555,-70.8928 273,-54 269.995,-53.0523 266.93,-52.0538 263.842,-51.0223"/>
<polygon fill="midnightblue" stroke="midnightblue" points="433.689,-102.171 444.239,-101.194 435.383,-95.3791 433.689,-102.171"/>
</g>
<!-- Node4 -->
<g id="node4" class="node"><title>Node4</title>
<g id="a_node4"><a xlink:href="../../dd/d2d/PHG4InEventReadBack_8cc.html" target="_top" xlink:title="/dev/shm/kenichi/update\l&#45;github&#45;e1039&#45;doc/e1039\l&#45;core/simulation/g4main\l/PHG4InEventReadBack.cc">
<polygon fill="none" stroke="black" points="282,-1 282,-53 418,-53 418,-1 282,-1"/>
<text text-anchor="start" x="290" y="-41" font-family="FreeSans" font-size="10.00">/dev/shm/kenichi/update</text>
<text text-anchor="start" x="290" y="-30" font-family="FreeSans" font-size="10.00">&#45;github&#45;e1039&#45;doc/e1039</text>
<text text-anchor="start" x="290" y="-19" font-family="FreeSans" font-size="10.00">&#45;core/simulation/g4main</text>
<text text-anchor="middle" x="350" y="-8" font-family="FreeSans" font-size="10.00">/PHG4InEventReadBack.cc</text>
</a>
</g>
</g>
<!-- Node1&#45;&gt;Node4 -->
<g id="edge3" class="edge"><title>Node1&#45;&gt;Node4</title>
<path fill="none" stroke="midnightblue" d="M452.491,-85.8154C433.575,-75.1451 412.521,-63.2684 394.44,-53.0687"/>
<polygon fill="midnightblue" stroke="midnightblue" points="450.867,-88.9179 461.297,-90.7827 454.307,-82.821 450.867,-88.9179"/>
</g>
<!-- Node5 -->
<g id="node5" class="node"><title>Node5</title>
<g id="a_node5"><a xlink:href="../../d7/d02/PHG4TruthInfoContainer_8cc.html" target="_top" xlink:title="/dev/shm/kenichi/update\l&#45;github&#45;e1039&#45;doc/e1039\l&#45;core/simulation/g4main\l/PHG4TruthInfoContainer.cc">
<polygon fill="none" stroke="black" points="436.5,-1 436.5,-53 575.5,-53 575.5,-1 436.5,-1"/>
<text text-anchor="start" x="444.5" y="-41" font-family="FreeSans" font-size="10.00">/dev/shm/kenichi/update</text>
<text text-anchor="start" x="444.5" y="-30" font-family="FreeSans" font-size="10.00">&#45;github&#45;e1039&#45;doc/e1039</text>
<text text-anchor="start" x="444.5" y="-19" font-family="FreeSans" font-size="10.00">&#45;core/simulation/g4main</text>
<text text-anchor="middle" x="506" y="-8" font-family="FreeSans" font-size="10.00">/PHG4TruthInfoContainer.cc</text>
</a>
</g>
</g>
<!-- Node1&#45;&gt;Node5 -->
<g id="edge4" class="edge"><title>Node1&#45;&gt;Node5</title>
<path fill="none" stroke="midnightblue" d="M506,-80.4892C506,-71.3088 506,-61.616 506,-53.0921"/>
<polygon fill="midnightblue" stroke="midnightblue" points="502.5,-80.5467 506,-90.5468 509.5,-80.5468 502.5,-80.5467"/>
</g>
<!-- Node6 -->
<g id="node6" class="node"><title>Node6</title>
<g id="a_node6"><a xlink:href="../../d3/d11/PHG4TruthSubsystem_8cc.html" target="_top" xlink:title="/dev/shm/kenichi/update\l&#45;github&#45;e1039&#45;doc/e1039\l&#45;core/simulation/g4main\l/PHG4TruthSubsystem.cc">
<polygon fill="none" stroke="black" points="594,-1 594,-53 722,-53 722,-1 594,-1"/>
<text text-anchor="start" x="602" y="-41" font-family="FreeSans" font-size="10.00">/dev/shm/kenichi/update</text>
<text text-anchor="start" x="602" y="-30" font-family="FreeSans" font-size="10.00">&#45;github&#45;e1039&#45;doc/e1039</text>
<text text-anchor="start" x="602" y="-19" font-family="FreeSans" font-size="10.00">&#45;core/simulation/g4main</text>
<text text-anchor="middle" x="658" y="-8" font-family="FreeSans" font-size="10.00">/PHG4TruthSubsystem.cc</text>
</a>
</g>
</g>
<!-- Node1&#45;&gt;Node6 -->
<g id="edge5" class="edge"><title>Node1&#45;&gt;Node6</title>
<path fill="none" stroke="midnightblue" d="M558.387,-85.6704C576.753,-75.0376 597.162,-63.2222 614.7,-53.0687"/>
<polygon fill="midnightblue" stroke="midnightblue" points="556.458,-82.7433 549.557,-90.7827 559.965,-88.8013 556.458,-82.7433"/>
</g>
<!-- Node7 -->
<g id="node7" class="node"><title>Node7</title>
<g id="a_node7"><a xlink:href="../../d2/d1e/PHG4TruthTrackingAction_8cc.html" target="_top" xlink:title="/dev/shm/kenichi/update\l&#45;github&#45;e1039&#45;doc/e1039\l&#45;core/simulation/g4main\l/PHG4TruthTrackingAction.cc">
<polygon fill="none" stroke="black" points="740,-1 740,-53 886,-53 886,-1 740,-1"/>
<text text-anchor="start" x="748" y="-41" font-family="FreeSans" font-size="10.00">/dev/shm/kenichi/update</text>
<text text-anchor="start" x="748" y="-30" font-family="FreeSans" font-size="10.00">&#45;github&#45;e1039&#45;doc/e1039</text>
<text text-anchor="start" x="748" y="-19" font-family="FreeSans" font-size="10.00">&#45;core/simulation/g4main</text>
<text text-anchor="middle" x="813" y="-8" font-family="FreeSans" font-size="10.00">/PHG4TruthTrackingAction.cc</text>
</a>
</g>
</g>
<!-- Node1&#45;&gt;Node7 -->
<g id="edge6" class="edge"><title>Node1&#45;&gt;Node7</title>
<path fill="none" stroke="midnightblue" d="M577.586,-97.0219C621.896,-85.0898 679.893,-69.1379 731,-54 733.864,-53.1517 736.781,-52.2773 739.725,-51.386"/>
<polygon fill="midnightblue" stroke="midnightblue" points="576.526,-93.6826 567.777,-99.658 578.343,-100.443 576.526,-93.6826"/>
</g>
<!-- Node8 -->
<g id="node8" class="node"><title>Node8</title>
<g id="a_node8"><a xlink:href="../../d8/d62/PHG4VtxPointv1_8cc.html" target="_top" xlink:title="/dev/shm/kenichi/update\l&#45;github&#45;e1039&#45;doc/e1039\l&#45;core/simulation/g4main\l/PHG4VtxPointv1.cc">
<polygon fill="none" stroke="black" points="904.5,-1 904.5,-53 1027.5,-53 1027.5,-1 904.5,-1"/>
<text text-anchor="start" x="912.5" y="-41" font-family="FreeSans" font-size="10.00">/dev/shm/kenichi/update</text>
<text text-anchor="start" x="912.5" y="-30" font-family="FreeSans" font-size="10.00">&#45;github&#45;e1039&#45;doc/e1039</text>
<text text-anchor="start" x="912.5" y="-19" font-family="FreeSans" font-size="10.00">&#45;core/simulation/g4main</text>
<text text-anchor="middle" x="966" y="-8" font-family="FreeSans" font-size="10.00">/PHG4VtxPointv1.cc</text>
</a>
</g>
</g>
<!-- Node1&#45;&gt;Node8 -->
<g id="edge7" class="edge"><title>Node1&#45;&gt;Node8</title>
<path fill="none" stroke="midnightblue" d="M578.022,-108.736C656.757,-99.8219 786.214,-82.3046 895,-54 898.049,-53.2067 901.15,-52.3336 904.267,-51.4027"/>
<polygon fill="midnightblue" stroke="midnightblue" points="577.28,-105.297 567.73,-109.884 578.056,-112.253 577.28,-105.297"/>
</g>
</g>
</svg>
