<?xml version="1.0" encoding="UTF-8" standalone="no"?>
<!DOCTYPE svg PUBLIC "-//W3C//DTD SVG 1.1//EN"
 "http://www.w3.org/Graphics/SVG/1.1/DTD/svg11.dtd">
<!-- Generated by graphviz version 2.30.1 (20200930.0103)
 -->
<!-- Title: SQDimuonVector::size Pages: 1 -->
<svg width="296pt" height="381pt"
 viewBox="0.00 0.00 296.00 381.00" xmlns="http://www.w3.org/2000/svg" xmlns:xlink="http://www.w3.org/1999/xlink">
<g id="graph0" class="graph" transform="scale(1 1) rotate(0) translate(4 377)">
<title>SQDimuonVector::size</title>
<!-- Node1 -->
<g id="node1" class="node"><title>Node1</title>
<polygon fill="#bfbfbf" stroke="black" points="0.5,-176.5 0.5,-195.5 113.5,-195.5 113.5,-176.5 0.5,-176.5"/>
<text text-anchor="middle" x="57" y="-183.5" font-family="FreeSans" font-size="10.00">SQDimuonVector::size</text>
</g>
<!-- Node2 -->
<g id="node2" class="node"><title>Node2</title>
<g id="a_node2"><a xlink:href="../../da/d3f/classTracePHG4Particle.html#a443cc661f69ee7ee01c90062afc7dd98" target="_top" xlink:title="TracePHG4Particle::\lprocess_event">
<polygon fill="none" stroke="black" points="166.5,-343 166.5,-373 271.5,-373 271.5,-343 166.5,-343"/>
<text text-anchor="start" x="174.5" y="-361" font-family="FreeSans" font-size="10.00">TracePHG4Particle::</text>
<text text-anchor="middle" x="219" y="-350" font-family="FreeSans" font-size="10.00">process_event</text>
</a>
</g>
</g>
<!-- Node1&#45;&gt;Node2 -->
<g id="edge1" class="edge"><title>Node1&#45;&gt;Node2</title>
<path fill="none" stroke="midnightblue" d="M65.2919,-205.463C77.9173,-236.648 106.72,-297.862 150,-333 154.882,-336.964 160.452,-340.333 166.253,-343.189"/>
<polygon fill="midnightblue" stroke="midnightblue" points="68.4057,-203.816 61.5036,-195.778 61.8866,-206.366 68.4057,-203.816"/>
</g>
<!-- Node3 -->
<g id="node3" class="node"><title>Node3</title>
<g id="a_node3"><a xlink:href="../../d4/d8e/classSubsysRecoSignal.html#a023c927af2d203e52b156711e260d277" target="_top" xlink:title="SubsysRecoSignal::process\l_event">
<polygon fill="none" stroke="black" points="152,-294 152,-324 286,-324 286,-294 152,-294"/>
<text text-anchor="start" x="160" y="-312" font-family="FreeSans" font-size="10.00">SubsysRecoSignal::process</text>
<text text-anchor="middle" x="219" y="-301" font-family="FreeSans" font-size="10.00">_event</text>
</a>
</g>
</g>
<!-- Node1&#45;&gt;Node3 -->
<g id="edge2" class="edge"><title>Node1&#45;&gt;Node3</title>
<path fill="none" stroke="midnightblue" d="M70.7929,-204.096C86.984,-225.808 116.796,-262.025 150,-284 155.664,-287.749 161.964,-291.028 168.38,-293.87"/>
<polygon fill="midnightblue" stroke="midnightblue" points="73.4369,-201.782 64.7175,-195.763 67.7805,-205.906 73.4369,-201.782"/>
</g>
<!-- Node4 -->
<g id="node4" class="node"><title>Node4</title>
<g id="a_node4"><a xlink:href="../../d1/d9e/classAnaSimDst.html#a2cf8cb92aa16247867fe679f439e01ee" target="_top" xlink:title="AnaSimDst::process\l_event">
<polygon fill="none" stroke="black" points="167.5,-245 167.5,-275 270.5,-275 270.5,-245 167.5,-245"/>
<text text-anchor="start" x="175.5" y="-263" font-family="FreeSans" font-size="10.00">AnaSimDst::process</text>
<text text-anchor="middle" x="219" y="-252" font-family="FreeSans" font-size="10.00">_event</text>
</a>
</g>
</g>
<!-- Node1&#45;&gt;Node4 -->
<g id="edge3" class="edge"><title>Node1&#45;&gt;Node4</title>
<path fill="none" stroke="midnightblue" d="M83.1084,-200.578C101.345,-210.866 126.792,-224.612 150,-235 157.692,-238.443 166.015,-241.796 174.113,-244.871"/>
<polygon fill="midnightblue" stroke="midnightblue" points="84.7007,-197.457 74.2791,-195.549 81.2362,-203.539 84.7007,-197.457"/>
</g>
<!-- Node5 -->
<g id="node5" class="node"><title>Node5</title>
<g id="a_node5"><a xlink:href="../../d2/de6/classAnaEmbeddedData.html#a8e1eeccd8b4d4b05a79fc4c5b599a879" target="_top" xlink:title="AnaEmbeddedData::process\l_event">
<polygon fill="none" stroke="black" points="150.5,-196 150.5,-226 287.5,-226 287.5,-196 150.5,-196"/>
<text text-anchor="start" x="158.5" y="-214" font-family="FreeSans" font-size="10.00">AnaEmbeddedData::process</text>
<text text-anchor="middle" x="219" y="-203" font-family="FreeSans" font-size="10.00">_event</text>
</a>
</g>
</g>
<!-- Node1&#45;&gt;Node5 -->
<g id="edge4" class="edge"><title>Node1&#45;&gt;Node5</title>
<path fill="none" stroke="midnightblue" d="M123.44,-196.225C132.349,-197.617 141.508,-199.048 150.454,-200.446"/>
<polygon fill="midnightblue" stroke="midnightblue" points="123.932,-192.759 113.511,-194.674 122.851,-199.676 123.932,-192.759"/>
</g>
<!-- Node6 -->
<g id="node6" class="node"><title>Node6</title>
<g id="a_node6"><a xlink:href="../../d1/d07/classAnaSimDimuon.html#a1e8c1159cbd93f2068d72d799594b4f4" target="_top" xlink:title="AnaSimDimuon::process\l_event">
<polygon fill="none" stroke="black" points="158,-147 158,-177 280,-177 280,-147 158,-147"/>
<text text-anchor="start" x="166" y="-165" font-family="FreeSans" font-size="10.00">AnaSimDimuon::process</text>
<text text-anchor="middle" x="219" y="-154" font-family="FreeSans" font-size="10.00">_event</text>
</a>
</g>
</g>
<!-- Node1&#45;&gt;Node6 -->
<g id="edge5" class="edge"><title>Node1&#45;&gt;Node6</title>
<path fill="none" stroke="midnightblue" d="M123.42,-176.187C134.844,-174.473 146.678,-172.698 157.948,-171.008"/>
<polygon fill="midnightblue" stroke="midnightblue" points="122.881,-172.729 113.511,-177.673 123.92,-179.651 122.881,-172.729"/>
</g>
<!-- Node7 -->
<g id="node7" class="node"><title>Node7</title>
<g id="a_node7"><a xlink:href="../../d8/d20/classSQTruthVertexing.html#a6a575557b10800326ed193fa397229bd" target="_top" xlink:title="SQTruthVertexing::process\l_event">
<polygon fill="none" stroke="black" points="153.5,-98 153.5,-128 284.5,-128 284.5,-98 153.5,-98"/>
<text text-anchor="start" x="161.5" y="-116" font-family="FreeSans" font-size="10.00">SQTruthVertexing::process</text>
<text text-anchor="middle" x="219" y="-105" font-family="FreeSans" font-size="10.00">_event</text>
</a>
</g>
</g>
<!-- Node1&#45;&gt;Node7 -->
<g id="edge6" class="edge"><title>Node1&#45;&gt;Node7</title>
<path fill="none" stroke="midnightblue" d="M83.4778,-171.578C101.708,-161.539 126.992,-148.181 150,-138 157.822,-134.539 166.286,-131.153 174.499,-128.046"/>
<polygon fill="midnightblue" stroke="midnightblue" points="81.6781,-168.573 74.6371,-176.49 85.0783,-174.692 81.6781,-168.573"/>
</g>
<!-- Node8 -->
<g id="node8" class="node"><title>Node8</title>
<g id="a_node8"><a xlink:href="../../d2/d1b/classDoEmbedding.html#a08f06aee61f980a00108c593ad864913" target="_top" xlink:title="DoEmbedding::process\l_event">
<polygon fill="none" stroke="black" points="162,-49 162,-79 276,-79 276,-49 162,-49"/>
<text text-anchor="start" x="170" y="-67" font-family="FreeSans" font-size="10.00">DoEmbedding::process</text>
<text text-anchor="middle" x="219" y="-56" font-family="FreeSans" font-size="10.00">_event</text>
</a>
</g>
</g>
<!-- Node1&#45;&gt;Node8 -->
<g id="edge7" class="edge"><title>Node1&#45;&gt;Node8</title>
<path fill="none" stroke="midnightblue" d="M70.8342,-168.095C87.0666,-146.612 116.919,-110.772 150,-89 155.779,-85.1968 162.213,-81.8738 168.755,-79.0003"/>
<polygon fill="midnightblue" stroke="midnightblue" points="67.8695,-166.218 64.7417,-176.341 73.4994,-170.378 67.8695,-166.218"/>
</g>
<!-- Node9 -->
<g id="node9" class="node"><title>Node9</title>
<g id="a_node9"><a xlink:href="../../d8/d3e/classSimpleTree.html#a5b31087274e5e810e670395c811fd358" target="_top" xlink:title="SimpleTree::process\l_event">
<polygon fill="none" stroke="black" points="167,-0 167,-30 271,-30 271,-0 167,-0"/>
<text text-anchor="start" x="175" y="-18" font-family="FreeSans" font-size="10.00">SimpleTree::process</text>
<text text-anchor="middle" x="219" y="-7" font-family="FreeSans" font-size="10.00">_event</text>
</a>
</g>
</g>
<!-- Node1&#45;&gt;Node9 -->
<g id="edge8" class="edge"><title>Node1&#45;&gt;Node9</title>
<path fill="none" stroke="midnightblue" d="M65.3281,-166.669C78.0045,-135.698 106.878,-74.9007 150,-40 155.084,-35.8852 160.908,-32.4106 166.963,-29.4858"/>
<polygon fill="midnightblue" stroke="midnightblue" points="61.9466,-165.703 61.523,-176.289 68.4559,-168.277 61.9466,-165.703"/>
</g>
</g>
</svg>
