<?xml version="1.0" encoding="UTF-8" standalone="no"?>
<!DOCTYPE svg PUBLIC "-//W3C//DTD SVG 1.1//EN"
 "http://www.w3.org/Graphics/SVG/1.1/DTD/svg11.dtd">
<!-- Generated by graphviz version 2.30.1 (20200930.0103)
 -->
<!-- Title: KalmanFilter::instance Pages: 1 -->
<svg width="1568pt" height="464pt"
 viewBox="0.00 0.00 1568.00 464.00" xmlns="http://www.w3.org/2000/svg" xmlns:xlink="http://www.w3.org/1999/xlink">
<g id="graph0" class="graph" transform="scale(1 1) rotate(0) translate(4 460)">
<title>KalmanFilter::instance</title>
<!-- Node1 -->
<g id="node1" class="node"><title>Node1</title>
<polygon fill="#bfbfbf" stroke="black" points="0,-329.5 0,-348.5 112,-348.5 112,-329.5 0,-329.5"/>
<text text-anchor="middle" x="56" y="-336.5" font-family="FreeSans" font-size="10.00">KalmanFilter::instance</text>
</g>
<!-- Node2 -->
<g id="node2" class="node"><title>Node2</title>
<g id="a_node2"><a xlink:href="../../d9/dc3/classKalmanTrack.html#a659fdf3a875fa693371de5b2559f9aa0" target="_top" xlink:title="KalmanTrack::addHit">
<polygon fill="none" stroke="black" points="165.5,-436.5 165.5,-455.5 272.5,-455.5 272.5,-436.5 165.5,-436.5"/>
<text text-anchor="middle" x="219" y="-443.5" font-family="FreeSans" font-size="10.00">KalmanTrack::addHit</text>
</a>
</g>
</g>
<!-- Node1&#45;&gt;Node2 -->
<g id="edge1" class="edge"><title>Node1&#45;&gt;Node2</title>
<path fill="none" stroke="midnightblue" d="M70.7933,-356.563C87.1703,-376.258 116.287,-407.817 148,-426 155.456,-430.275 163.89,-433.69 172.256,-436.4"/>
<polygon fill="midnightblue" stroke="midnightblue" points="73.4133,-354.237 64.3927,-348.68 67.9791,-358.649 73.4133,-354.237"/>
</g>
<!-- Node3 -->
<g id="node3" class="node"><title>Node3</title>
<g id="a_node3"><a xlink:href="../../d9/dc3/classKalmanTrack.html#a142008cf7b877085eefefd71119fcb15" target="_top" xlink:title="Get the rough vertex momentum. ">
<polygon fill="none" stroke="black" points="148.5,-387 148.5,-417 289.5,-417 289.5,-387 148.5,-387"/>
<text text-anchor="start" x="156.5" y="-405" font-family="FreeSans" font-size="10.00">KalmanTrack::getMomentum</text>
<text text-anchor="middle" x="219" y="-394" font-family="FreeSans" font-size="10.00">Vertex</text>
</a>
</g>
</g>
<!-- Node1&#45;&gt;Node3 -->
<g id="edge2" class="edge"><title>Node1&#45;&gt;Node3</title>
<path fill="none" stroke="midnightblue" d="M88.6076,-352.679C106.036,-360.1 128.113,-369.303 148,-377 156.545,-380.307 165.734,-383.703 174.553,-386.884"/>
<polygon fill="midnightblue" stroke="midnightblue" points="89.5056,-349.256 78.935,-348.54 86.7519,-355.692 89.5056,-349.256"/>
</g>
<!-- Node4 -->
<g id="node4" class="node"><title>Node4</title>
<g id="a_node4"><a xlink:href="../../d1/d13/classVertexFit.html#a818383ba3a5c7c386c5c8bb3328aa0a3" target="_top" xlink:title="VertexFit::InitRun">
<polygon fill="none" stroke="black" points="174,-348.5 174,-367.5 264,-367.5 264,-348.5 174,-348.5"/>
<text text-anchor="middle" x="219" y="-355.5" font-family="FreeSans" font-size="10.00">VertexFit::InitRun</text>
</a>
</g>
</g>
<!-- Node1&#45;&gt;Node4 -->
<g id="edge3" class="edge"><title>Node1&#45;&gt;Node4</title>
<path fill="none" stroke="midnightblue" d="M122.463,-346.725C139.774,-348.768 158.047,-350.925 173.925,-352.799"/>
<polygon fill="midnightblue" stroke="midnightblue" points="122.748,-343.235 112.407,-345.539 121.928,-350.187 122.748,-343.235"/>
</g>
<!-- Node5 -->
<g id="node5" class="node"><title>Node5</title>
<g id="a_node5"><a xlink:href="../../d3/dc9/classKalmanFitter.html#abd097a105c435566065e6822178122e0" target="_top" xlink:title="KalmanFitter::KalmanFitter">
<polygon fill="none" stroke="black" points="153,-310.5 153,-329.5 285,-329.5 285,-310.5 153,-310.5"/>
<text text-anchor="middle" x="219" y="-317.5" font-family="FreeSans" font-size="10.00">KalmanFitter::KalmanFitter</text>
</a>
</g>
</g>
<!-- Node1&#45;&gt;Node5 -->
<g id="edge4" class="edge"><title>Node1&#45;&gt;Node5</title>
<path fill="none" stroke="midnightblue" d="M122.634,-331.254C132.583,-330.08 142.846,-328.869 152.785,-327.696"/>
<polygon fill="midnightblue" stroke="midnightblue" points="121.928,-327.813 112.407,-332.461 122.748,-334.765 121.928,-327.813"/>
</g>
<!-- Node6 -->
<g id="node6" class="node"><title>Node6</title>
<g id="a_node6"><a xlink:href="../../d9/dc3/classKalmanTrack.html#a9fb8d93bf5fe086a495e801421f605db" target="_top" xlink:title="Propagate the track to a designated position. ">
<polygon fill="none" stroke="black" points="152.5,-272.5 152.5,-291.5 285.5,-291.5 285.5,-272.5 152.5,-272.5"/>
<text text-anchor="middle" x="219" y="-279.5" font-family="FreeSans" font-size="10.00">KalmanTrack::propagateTo</text>
</a>
</g>
</g>
<!-- Node1&#45;&gt;Node6 -->
<g id="edge5" class="edge"><title>Node1&#45;&gt;Node6</title>
<path fill="none" stroke="midnightblue" d="M86.8497,-325.376C104.431,-317.645 127.23,-308.121 148,-301 158.006,-297.569 168.982,-294.344 179.214,-291.559"/>
<polygon fill="midnightblue" stroke="midnightblue" points="85.3802,-322.199 77.6649,-329.46 88.2244,-328.595 85.3802,-322.199"/>
</g>
<!-- Node7 -->
<g id="node7" class="node"><title>Node7</title>
<g id="a_node7"><a xlink:href="../../d6/db1/classSRecTrack.html#a4e6933a5892c3e5fd593046ac3ee94a5" target="_top" xlink:title="SRecTrack::setZVertex">
<polygon fill="none" stroke="black" points="161,-234.5 161,-253.5 277,-253.5 277,-234.5 161,-234.5"/>
<text text-anchor="middle" x="219" y="-241.5" font-family="FreeSans" font-size="10.00">SRecTrack::setZVertex</text>
</a>
</g>
</g>
<!-- Node1&#45;&gt;Node7 -->
<g id="edge6" class="edge"><title>Node1&#45;&gt;Node7</title>
<path fill="none" stroke="midnightblue" d="M72.785,-322.07C89.785,-304.805 118.399,-278.427 148,-263 155.37,-259.159 163.593,-256.036 171.739,-253.515"/>
<polygon fill="midnightblue" stroke="midnightblue" points="70.2474,-319.66 65.8297,-329.29 75.2885,-324.517 70.2474,-319.66"/>
</g>
<!-- Node8 -->
<g id="node8" class="node"><title>Node8</title>
<g id="a_node8"><a xlink:href="../../d6/db1/classSRecTrack.html#ad6b6be2adfcd60d2442306cda12cdc0c" target="_top" xlink:title="SRecTrack::updateVtxHypothesis">
<polygon fill="none" stroke="black" points="326.5,-193.5 326.5,-212.5 485.5,-212.5 485.5,-193.5 326.5,-193.5"/>
<text text-anchor="middle" x="406" y="-200.5" font-family="FreeSans" font-size="10.00">SRecTrack::updateVtxHypothesis</text>
</a>
</g>
</g>
<!-- Node7&#45;&gt;Node8 -->
<g id="edge7" class="edge"><title>Node7&#45;&gt;Node8</title>
<path fill="none" stroke="midnightblue" d="M273.003,-232.253C301.216,-226.001 335.465,-218.411 362.005,-212.529"/>
<polygon fill="midnightblue" stroke="midnightblue" points="271.914,-228.91 262.908,-234.491 273.428,-235.744 271.914,-228.91"/>
</g>
<!-- Node23 -->
<g id="node23" class="node"><title>Node23</title>
<g id="a_node23"><a xlink:href="../../d1/d13/classVertexFit.html#a080d08ef76e4108261aaf89373c07211" target="_top" xlink:title="Set the SRecEvent, main external call the use vertex fit. ">
<polygon fill="none" stroke="black" points="905.5,-252.5 905.5,-271.5 1018.5,-271.5 1018.5,-252.5 905.5,-252.5"/>
<text text-anchor="middle" x="962" y="-259.5" font-family="FreeSans" font-size="10.00">VertexFit::setRecEvent</text>
</a>
</g>
</g>
<!-- Node7&#45;&gt;Node23 -->
<g id="edge31" class="edge"><title>Node7&#45;&gt;Node23</title>
<path fill="none" stroke="midnightblue" d="M287.319,-245.635C432.307,-249.157 771.766,-257.403 905.471,-260.651"/>
<polygon fill="midnightblue" stroke="midnightblue" points="287.303,-242.134 277.221,-245.39 287.133,-249.132 287.303,-242.134"/>
</g>
<!-- Node9 -->
<g id="node9" class="node"><title>Node9</title>
<g id="a_node9"><a xlink:href="../../d6/db1/classSRecTrack.html#ac4816a2258e2eb44694715d20b9127ab" target="_top" xlink:title="Simple swim to vertex. ">
<polygon fill="none" stroke="black" points="522,-173.5 522,-192.5 652,-192.5 652,-173.5 522,-173.5"/>
<text text-anchor="middle" x="587" y="-180.5" font-family="FreeSans" font-size="10.00">SRecTrack::swimToVertex</text>
</a>
</g>
</g>
<!-- Node8&#45;&gt;Node9 -->
<g id="edge8" class="edge"><title>Node8&#45;&gt;Node9</title>
<path fill="none" stroke="midnightblue" d="M495.495,-193.112C504.358,-192.122 513.235,-191.13 521.777,-190.176"/>
<polygon fill="midnightblue" stroke="midnightblue" points="495.061,-189.639 485.512,-194.228 495.839,-196.596 495.061,-189.639"/>
</g>
<!-- Node10 -->
<g id="node10" class="node"><title>Node10</title>
<g id="a_node10"><a xlink:href="../../d2/d26/classTracklet.html#aa0ca7e43f4d1359b0068c35299a70db5" target="_top" xlink:title="Tracklet::getSRecTrack">
<polygon fill="none" stroke="black" points="705.5,-91.5 705.5,-110.5 824.5,-110.5 824.5,-91.5 705.5,-91.5"/>
<text text-anchor="middle" x="765" y="-98.5" font-family="FreeSans" font-size="10.00">Tracklet::getSRecTrack</text>
</a>
</g>
</g>
<!-- Node9&#45;&gt;Node10 -->
<g id="edge9" class="edge"><title>Node9&#45;&gt;Node10</title>
<path fill="none" stroke="midnightblue" d="M608.345,-167.451C627.831,-153.24 658.544,-132.578 688,-120 696.755,-116.261 706.405,-113.146 715.805,-110.594"/>
<polygon fill="midnightblue" stroke="midnightblue" points="606.172,-164.705 600.226,-173.474 610.343,-170.327 606.172,-164.705"/>
</g>
<!-- Node20 -->
<g id="node20" class="node"><title>Node20</title>
<g id="a_node20"><a xlink:href="../../d9/dc3/classKalmanTrack.html#a38e275864291b276a96abd8c50de4282" target="_top" xlink:title="Output to SRecTrack. ">
<polygon fill="none" stroke="black" points="694.5,-129.5 694.5,-148.5 835.5,-148.5 835.5,-129.5 694.5,-129.5"/>
<text text-anchor="middle" x="765" y="-136.5" font-family="FreeSans" font-size="10.00">KalmanTrack::getSRecTrack</text>
</a>
</g>
</g>
<!-- Node9&#45;&gt;Node20 -->
<g id="edge21" class="edge"><title>Node9&#45;&gt;Node20</title>
<path fill="none" stroke="midnightblue" d="M636.247,-170.938C664.474,-163.882 699.61,-155.098 725.885,-148.529"/>
<polygon fill="midnightblue" stroke="midnightblue" points="635.042,-167.632 626.189,-173.453 636.74,-174.423 635.042,-167.632"/>
</g>
<!-- Node22 -->
<g id="node22" class="node"><title>Node22</title>
<g id="a_node22"><a xlink:href="../../d1/d13/classVertexFit.html#a19eb69c177fa675e1e63e8a054a5c645" target="_top" xlink:title="VertexFit::findDimuonVertexFast">
<polygon fill="none" stroke="black" points="688.5,-217.5 688.5,-236.5 841.5,-236.5 841.5,-217.5 688.5,-217.5"/>
<text text-anchor="middle" x="765" y="-224.5" font-family="FreeSans" font-size="10.00">VertexFit::findDimuonVertexFast</text>
</a>
</g>
</g>
<!-- Node9&#45;&gt;Node22 -->
<g id="edge26" class="edge"><title>Node9&#45;&gt;Node22</title>
<path fill="none" stroke="midnightblue" d="M636.247,-195.062C664.474,-202.118 699.61,-210.902 725.885,-217.471"/>
<polygon fill="midnightblue" stroke="midnightblue" points="636.74,-191.577 626.189,-192.547 635.042,-198.368 636.74,-191.577"/>
</g>
<!-- Node25 -->
<g id="node25" class="node"><title>Node25</title>
<g id="a_node25"><a xlink:href="../../d2/d6b/classSQGenFit_1_1GFTrack.html#a4c47a82cf378aae1787e2dc4d168b658" target="_top" xlink:title="SQGenFit::GFTrack::\lgetSRecTrack">
<polygon fill="none" stroke="black" points="711.5,-168 711.5,-198 818.5,-198 818.5,-168 711.5,-168"/>
<text text-anchor="start" x="719.5" y="-186" font-family="FreeSans" font-size="10.00">SQGenFit::GFTrack::</text>
<text text-anchor="middle" x="765" y="-175" font-family="FreeSans" font-size="10.00">getSRecTrack</text>
</a>
</g>
</g>
<!-- Node9&#45;&gt;Node25 -->
<g id="edge29" class="edge"><title>Node9&#45;&gt;Node25</title>
<path fill="none" stroke="midnightblue" d="M662.201,-183C678.695,-183 695.853,-183 711.278,-183"/>
<polygon fill="midnightblue" stroke="midnightblue" points="662.038,-179.5 652.038,-183 662.038,-186.5 662.038,-179.5"/>
</g>
<!-- Node11 -->
<g id="node11" class="node"><title>Node11</title>
<g id="a_node11"><a xlink:href="../../d3/d46/classKalmanFastTracking.html#ac0b6441647d023db04c618a35fd2a8cd" target="_top" xlink:title="Track fitting stuff. ">
<polygon fill="none" stroke="black" points="908.5,-106 908.5,-136 1015.5,-136 1015.5,-106 908.5,-106"/>
<text text-anchor="start" x="916.5" y="-124" font-family="FreeSans" font-size="10.00">KalmanFastTracking</text>
<text text-anchor="middle" x="962" y="-113" font-family="FreeSans" font-size="10.00">::processOneTracklet</text>
</a>
</g>
</g>
<!-- Node10&#45;&gt;Node11 -->
<g id="edge10" class="edge"><title>Node10&#45;&gt;Node11</title>
<path fill="none" stroke="midnightblue" d="M834.674,-108.044C858.815,-110.52 885.547,-113.261 908.18,-115.583"/>
<polygon fill="midnightblue" stroke="midnightblue" points="834.811,-104.539 824.506,-107.001 834.097,-111.503 834.811,-104.539"/>
</g>
<!-- Node16 -->
<g id="node16" class="node"><title>Node16</title>
<g id="a_node16"><a xlink:href="../../db/daa/classKalmanDSTrk.html#ace95cba717e2c3b24dfb46e8d458f61a" target="_top" xlink:title="Track fitting stuff. ">
<polygon fill="none" stroke="black" points="878,-49.5 878,-68.5 1046,-68.5 1046,-49.5 878,-49.5"/>
<text text-anchor="middle" x="962" y="-56.5" font-family="FreeSans" font-size="10.00">KalmanDSTrk::processOneTracklet</text>
</a>
</g>
</g>
<!-- Node10&#45;&gt;Node16 -->
<g id="edge16" class="edge"><title>Node10&#45;&gt;Node16</title>
<path fill="none" stroke="midnightblue" d="M820.252,-89.3149C850.611,-82.7761 887.985,-74.7262 916.589,-68.5653"/>
<polygon fill="midnightblue" stroke="midnightblue" points="819.287,-85.9424 810.249,-91.4695 820.761,-92.7854 819.287,-85.9424"/>
</g>
<!-- Node12 -->
<g id="node12" class="node"><title>Node12</title>
<g id="a_node12"><a xlink:href="../../d3/d46/classKalmanFastTracking.html#a53c93bc5e58b3560d1cfb42e84bbe95c" target="_top" xlink:title="KalmanFastTracking\l::buildGlobalTracks">
<polygon fill="none" stroke="black" points="1094,-88 1094,-118 1200,-118 1200,-88 1094,-88"/>
<text text-anchor="start" x="1102" y="-106" font-family="FreeSans" font-size="10.00">KalmanFastTracking</text>
<text text-anchor="middle" x="1147" y="-95" font-family="FreeSans" font-size="10.00">::buildGlobalTracks</text>
</a>
</g>
</g>
<!-- Node11&#45;&gt;Node12 -->
<g id="edge11" class="edge"><title>Node11&#45;&gt;Node12</title>
<path fill="none" stroke="midnightblue" d="M1025.91,-114.812C1048.04,-112.635 1072.66,-110.213 1093.82,-108.132"/>
<polygon fill="midnightblue" stroke="midnightblue" points="1025.54,-111.331 1015.93,-115.794 1026.23,-118.298 1025.54,-111.331"/>
</g>
<!-- Node13 -->
<g id="node13" class="node"><title>Node13</title>
<g id="a_node13"><a xlink:href="../../d3/d46/classKalmanFastTracking.html#ada493cf8d995c42b9e78a53b891ce72b" target="_top" xlink:title="KalmanFastTracking\l::setRawEvent">
<polygon fill="none" stroke="black" points="1264,-126 1264,-156 1370,-156 1370,-126 1264,-126"/>
<text text-anchor="start" x="1272" y="-144" font-family="FreeSans" font-size="10.00">KalmanFastTracking</text>
<text text-anchor="middle" x="1317" y="-133" font-family="FreeSans" font-size="10.00">::setRawEvent</text>
</a>
</g>
</g>
<!-- Node11&#45;&gt;Node13 -->
<g id="edge15" class="edge"><title>Node11&#45;&gt;Node13</title>
<path fill="none" stroke="midnightblue" d="M1025.98,-124.568C1093.86,-128.414 1200.64,-134.464 1263.94,-138.051"/>
<polygon fill="midnightblue" stroke="midnightblue" points="1026.03,-121.066 1015.85,-123.994 1025.63,-128.054 1026.03,-121.066"/>
</g>
<!-- Node12&#45;&gt;Node13 -->
<g id="edge12" class="edge"><title>Node12&#45;&gt;Node13</title>
<path fill="none" stroke="midnightblue" d="M1210.4,-117.114C1227.97,-121.088 1246.89,-125.368 1263.8,-129.192"/>
<polygon fill="midnightblue" stroke="midnightblue" points="1210.76,-113.608 1200.24,-114.815 1209.22,-120.435 1210.76,-113.608"/>
</g>
<!-- Node14 -->
<g id="node14" class="node"><title>Node14</title>
<g id="a_node14"><a xlink:href="../../dd/d62/classSQTrackletReco.html#a8da2377e83fb17bc8189b89175833872" target="_top" xlink:title="SQTrackletReco::process\l_event">
<polygon fill="none" stroke="black" points="1428,-126 1428,-156 1554,-156 1554,-126 1428,-126"/>
<text text-anchor="start" x="1436" y="-144" font-family="FreeSans" font-size="10.00">SQTrackletReco::process</text>
<text text-anchor="middle" x="1491" y="-133" font-family="FreeSans" font-size="10.00">_event</text>
</a>
</g>
</g>
<!-- Node13&#45;&gt;Node14 -->
<g id="edge13" class="edge"><title>Node13&#45;&gt;Node14</title>
<path fill="none" stroke="midnightblue" d="M1380.09,-141C1395.62,-141 1412.27,-141 1427.81,-141"/>
<polygon fill="midnightblue" stroke="midnightblue" points="1380.07,-137.5 1370.07,-141 1380.07,-144.5 1380.07,-137.5"/>
</g>
<!-- Node15 -->
<g id="node15" class="node"><title>Node15</title>
<g id="a_node15"><a xlink:href="../../df/df2/classSQReco.html#a4d308ea90b8cd7c24a235f32debd6ddb" target="_top" xlink:title="SQReco::process_event">
<polygon fill="none" stroke="black" points="1431.5,-175.5 1431.5,-194.5 1550.5,-194.5 1550.5,-175.5 1431.5,-175.5"/>
<text text-anchor="middle" x="1491" y="-182.5" font-family="FreeSans" font-size="10.00">SQReco::process_event</text>
</a>
</g>
</g>
<!-- Node13&#45;&gt;Node15 -->
<g id="edge14" class="edge"><title>Node13&#45;&gt;Node15</title>
<path fill="none" stroke="midnightblue" d="M1379.98,-156.854C1404.38,-163.097 1431.59,-170.057 1452.84,-175.495"/>
<polygon fill="midnightblue" stroke="midnightblue" points="1380.63,-153.408 1370.07,-154.321 1378.89,-160.19 1380.63,-153.408"/>
</g>
<!-- Node17 -->
<g id="node17" class="node"><title>Node17</title>
<g id="a_node17"><a xlink:href="../../db/daa/classKalmanDSTrk.html#adf4981f081f2606bf3412851eaa62eb0" target="_top" xlink:title="KalmanDSTrk::buildGlobal\lTracks">
<polygon fill="none" stroke="black" points="1082,-0 1082,-30 1212,-30 1212,-0 1082,-0"/>
<text text-anchor="start" x="1090" y="-18" font-family="FreeSans" font-size="10.00">KalmanDSTrk::buildGlobal</text>
<text text-anchor="middle" x="1147" y="-7" font-family="FreeSans" font-size="10.00">Tracks</text>
</a>
</g>
</g>
<!-- Node16&#45;&gt;Node17 -->
<g id="edge17" class="edge"><title>Node16&#45;&gt;Node17</title>
<path fill="none" stroke="midnightblue" d="M1012.72,-47.045C1034.49,-41.8108 1060.28,-35.6107 1083.34,-30.0654"/>
<polygon fill="midnightblue" stroke="midnightblue" points="1011.61,-43.7118 1002.71,-49.4527 1013.25,-50.5179 1011.61,-43.7118"/>
</g>
<!-- Node18 -->
<g id="node18" class="node"><title>Node18</title>
<g id="a_node18"><a xlink:href="../../db/daa/classKalmanDSTrk.html#a58ceb0cdcf685588b2a543d7a9c2bf9d" target="_top" xlink:title="KalmanDSTrk::setRawEvent\lWorker">
<polygon fill="none" stroke="black" points="1248.5,-22 1248.5,-52 1385.5,-52 1385.5,-22 1248.5,-22"/>
<text text-anchor="start" x="1256.5" y="-40" font-family="FreeSans" font-size="10.00">KalmanDSTrk::setRawEvent</text>
<text text-anchor="middle" x="1317" y="-29" font-family="FreeSans" font-size="10.00">Worker</text>
</a>
</g>
</g>
<!-- Node16&#45;&gt;Node18 -->
<g id="edge20" class="edge"><title>Node16&#45;&gt;Node18</title>
<path fill="none" stroke="midnightblue" d="M1056.51,-53.1723C1116.87,-49.4105 1193.99,-44.6038 1248.42,-41.2115"/>
<polygon fill="midnightblue" stroke="midnightblue" points="1055.97,-49.6988 1046.21,-53.8142 1056.41,-56.6853 1055.97,-49.6988"/>
</g>
<!-- Node17&#45;&gt;Node18 -->
<g id="edge18" class="edge"><title>Node17&#45;&gt;Node18</title>
<path fill="none" stroke="midnightblue" d="M1222.49,-24.7552C1231.1,-25.8825 1239.85,-27.0275 1248.36,-28.1419"/>
<polygon fill="midnightblue" stroke="midnightblue" points="1222.84,-21.271 1212.47,-23.4429 1221.93,-28.2118 1222.84,-21.271"/>
</g>
<!-- Node19 -->
<g id="node19" class="node"><title>Node19</title>
<g id="a_node19"><a xlink:href="../../db/daa/classKalmanDSTrk.html#a67f1b61fbc3fbba52e10f4b06d4f8794" target="_top" xlink:title="KalmanDSTrk::setRawEvent">
<polygon fill="none" stroke="black" points="1422.5,-27.5 1422.5,-46.5 1559.5,-46.5 1559.5,-27.5 1422.5,-27.5"/>
<text text-anchor="middle" x="1491" y="-34.5" font-family="FreeSans" font-size="10.00">KalmanDSTrk::setRawEvent</text>
</a>
</g>
</g>
<!-- Node18&#45;&gt;Node19 -->
<g id="edge19" class="edge"><title>Node18&#45;&gt;Node19</title>
<path fill="none" stroke="midnightblue" d="M1396.13,-37C1404.85,-37 1413.67,-37 1422.23,-37"/>
<polygon fill="midnightblue" stroke="midnightblue" points="1395.98,-33.5001 1385.98,-37 1395.98,-40.5001 1395.98,-33.5001"/>
</g>
<!-- Node20&#45;&gt;Node11 -->
<g id="edge22" class="edge"><title>Node20&#45;&gt;Node11</title>
<path fill="none" stroke="midnightblue" d="M845.807,-131.633C866.875,-129.688 889.084,-127.638 908.319,-125.863"/>
<polygon fill="midnightblue" stroke="midnightblue" points="845.21,-128.173 835.574,-132.578 845.853,-135.144 845.21,-128.173"/>
</g>
<!-- Node21 -->
<g id="node21" class="node"><title>Node21</title>
<g id="a_node21"><a xlink:href="../../df/df2/classSQReco.html#a2d24deb38cf514e80e9b53199f2c81a9" target="_top" xlink:title="SQReco::fitTrackCand">
<polygon fill="none" stroke="black" points="1260.5,-175.5 1260.5,-194.5 1373.5,-194.5 1373.5,-175.5 1260.5,-175.5"/>
<text text-anchor="middle" x="1317" y="-182.5" font-family="FreeSans" font-size="10.00">SQReco::fitTrackCand</text>
</a>
</g>
</g>
<!-- Node20&#45;&gt;Node21 -->
<g id="edge23" class="edge"><title>Node20&#45;&gt;Node21</title>
<path fill="none" stroke="midnightblue" d="M845.962,-145.688C958.874,-155.131 1162.18,-172.135 1260.18,-180.331"/>
<polygon fill="midnightblue" stroke="midnightblue" points="845.915,-142.172 835.658,-144.826 845.331,-149.147 845.915,-142.172"/>
</g>
<!-- Node20&#45;&gt;Node16 -->
<g id="edge25" class="edge"><title>Node20&#45;&gt;Node16</title>
<path fill="none" stroke="midnightblue" d="M824.695,-126.498C830.637,-124.591 836.502,-122.432 842,-120 859.586,-112.221 861.158,-105.281 878,-96 897.068,-85.492 919.697,-75.5611 936.507,-68.6387"/>
<polygon fill="midnightblue" stroke="midnightblue" points="823.264,-123.272 814.675,-129.474 825.257,-129.982 823.264,-123.272"/>
</g>
<!-- Node21&#45;&gt;Node15 -->
<g id="edge24" class="edge"><title>Node21&#45;&gt;Node15</title>
<path fill="none" stroke="midnightblue" d="M1383.97,-185C1399.61,-185 1416.19,-185 1431.48,-185"/>
<polygon fill="midnightblue" stroke="midnightblue" points="1383.84,-181.5 1373.84,-185 1383.84,-188.5 1383.84,-181.5"/>
</g>
<!-- Node22&#45;&gt;Node23 -->
<g id="edge27" class="edge"><title>Node22&#45;&gt;Node23</title>
<path fill="none" stroke="midnightblue" d="M828.971,-238.303C854.472,-242.88 883.592,-248.106 907.984,-252.484"/>
<polygon fill="midnightblue" stroke="midnightblue" points="829.488,-234.839 819.027,-236.518 828.251,-241.729 829.488,-234.839"/>
</g>
<!-- Node24 -->
<g id="node24" class="node"><title>Node24</title>
<g id="a_node24"><a xlink:href="../../d1/d13/classVertexFit.html#a056c9f1aa5805bfd6f92e833722dd25e" target="_top" xlink:title="VertexFit::process\l_event">
<polygon fill="none" stroke="black" points="1101,-247 1101,-277 1193,-277 1193,-247 1101,-247"/>
<text text-anchor="start" x="1109" y="-265" font-family="FreeSans" font-size="10.00">VertexFit::process</text>
<text text-anchor="middle" x="1147" y="-254" font-family="FreeSans" font-size="10.00">_event</text>
</a>
</g>
</g>
<!-- Node23&#45;&gt;Node24 -->
<g id="edge28" class="edge"><title>Node23&#45;&gt;Node24</title>
<path fill="none" stroke="midnightblue" d="M1028.95,-262C1052.81,-262 1079.19,-262 1100.86,-262"/>
<polygon fill="midnightblue" stroke="midnightblue" points="1028.9,-258.5 1018.9,-262 1028.9,-265.5 1028.9,-258.5"/>
</g>
<!-- Node26 -->
<g id="node26" class="node"><title>Node26</title>
<g id="a_node26"><a xlink:href="../../df/df2/classSQReco.html#a32bb088e7896b2ecdb5b9aa4df1f6a50" target="_top" xlink:title="SQReco::fitTrackCand">
<polygon fill="none" stroke="black" points="905.5,-213.5 905.5,-232.5 1018.5,-232.5 1018.5,-213.5 905.5,-213.5"/>
<text text-anchor="middle" x="962" y="-220.5" font-family="FreeSans" font-size="10.00">SQReco::fitTrackCand</text>
</a>
</g>
</g>
<!-- Node25&#45;&gt;Node26 -->
<g id="edge30" class="edge"><title>Node25&#45;&gt;Node26</title>
<path fill="none" stroke="midnightblue" d="M828.561,-195.833C856.427,-201.549 888.682,-208.166 914.383,-213.438"/>
<polygon fill="midnightblue" stroke="midnightblue" points="829.012,-192.353 818.513,-193.772 827.606,-199.21 829.012,-192.353"/>
</g>
</g>
</svg>
