<?xml version="1.0" encoding="UTF-8" standalone="no"?>
<!DOCTYPE svg PUBLIC "-//W3C//DTD SVG 1.1//EN"
 "http://www.w3.org/Graphics/SVG/1.1/DTD/svg11.dtd">
<!-- Generated by graphviz version 2.30.1 (20180413.0232)
 -->
<!-- Title: SQMCHit_v1::SQMCHit_v1 Pages: 1 -->
<svg width="280pt" height="66pt"
 viewBox="0.00 0.00 280.00 66.00" xmlns="http://www.w3.org/2000/svg" xmlns:xlink="http://www.w3.org/1999/xlink">
<g id="graph0" class="graph" transform="scale(1 1) rotate(0) translate(4 62)">
<title>SQMCHit_v1::SQMCHit_v1</title>
<!-- Node1 -->
<g id="node1" class="node"><title>Node1</title>
<polygon fill="#bfbfbf" stroke="black" points="0,-19.5 0,-38.5 134,-38.5 134,-19.5 0,-19.5"/>
<text text-anchor="middle" x="67" y="-26.5" font-family="FreeSans" font-size="10.00">SQMCHit_v1::SQMCHit_v1</text>
</g>
<!-- Node2 -->
<g id="node2" class="node"><title>Node2</title>
<g id="a_node2"><a xlink:href="../../d1/d5f/classSQMCHit__v1.html#a07ede4bf309f7eb7abb2b6127b84cff2" target="_top" xlink:title="SQMCHit_v1::Clone">
<polygon fill="none" stroke="black" points="170,-38.5 170,-57.5 272,-57.5 272,-38.5 170,-38.5"/>
<text text-anchor="middle" x="221" y="-45.5" font-family="FreeSans" font-size="10.00">SQMCHit_v1::Clone</text>
</a>
</g>
</g>
<!-- Node1&#45;&gt;Node2 -->
<g id="edge1" class="edge"><title>Node1&#45;&gt;Node2</title>
<path fill="none" stroke="midnightblue" d="M144.404,-38.5505C153.093,-39.6366 161.775,-40.7219 169.996,-41.7495"/>
<polygon fill="midnightblue" stroke="midnightblue" points="144.584,-35.0459 134.227,-37.2784 143.716,-41.9918 144.584,-35.0459"/>
</g>
<!-- Node3 -->
<g id="node3" class="node"><title>Node3</title>
<g id="a_node3"><a xlink:href="../../d1/d5f/classSQMCHit__v1.html#a416ea9b1428f640e75cdda1ad04c8044" target="_top" xlink:title="Clear Event. ">
<polygon fill="none" stroke="black" points="170,-0.5 170,-19.5 272,-19.5 272,-0.5 170,-0.5"/>
<text text-anchor="middle" x="221" y="-7.5" font-family="FreeSans" font-size="10.00">SQMCHit_v1::Reset</text>
</a>
</g>
</g>
<!-- Node1&#45;&gt;Node3 -->
<g id="edge2" class="edge"><title>Node1&#45;&gt;Node3</title>
<path fill="none" stroke="midnightblue" d="M144.404,-19.4495C153.093,-18.3634 161.775,-17.2781 169.996,-16.2505"/>
<polygon fill="midnightblue" stroke="midnightblue" points="143.716,-16.0082 134.227,-20.7216 144.584,-22.9541 143.716,-16.0082"/>
</g>
</g>
</svg>
