<?xml version="1.0" encoding="UTF-8" standalone="no"?>
<!DOCTYPE svg PUBLIC "-//W3C//DTD SVG 1.1//EN"
 "http://www.w3.org/Graphics/SVG/1.1/DTD/svg11.dtd">
<!-- Generated by graphviz version 2.36.0 (20140111.2315)
 -->
<!-- Title: PHHepMCGenEvent::identify Pages: 1 -->
<svg width="342pt" height="66pt"
 viewBox="0.00 0.00 342.00 66.00" xmlns="http://www.w3.org/2000/svg" xmlns:xlink="http://www.w3.org/1999/xlink">
<g id="graph0" class="graph" transform="scale(1 1) rotate(0) translate(4 62)">
<title>PHHepMCGenEvent::identify</title>
<!-- Node1 -->
<g id="node1" class="node"><title>Node1</title>
<polygon fill="#bfbfbf" stroke="black" points="0,-19.5 0,-38.5 142,-38.5 142,-19.5 0,-19.5"/>
<text text-anchor="middle" x="71" y="-26.5" font-family="FreeSans" font-size="10.00">PHHepMCGenEvent::identify</text>
</g>
<!-- Node2 -->
<g id="node2" class="node"><title>Node2</title>
<g id="a_node2"><a xlink:href="../../d7/d7b/classPHHepMCGenEvent.html#a0938cf5d7c7183d1d56642748985fb1e" target="_top" xlink:title="PHHepMCGenEvent::size">
<polygon fill="none" stroke="black" points="192,-38.5 192,-57.5 320,-57.5 320,-38.5 192,-38.5"/>
<text text-anchor="middle" x="256" y="-45.5" font-family="FreeSans" font-size="10.00">PHHepMCGenEvent::size</text>
</a>
</g>
</g>
<!-- Node1&#45;&gt;Node2 -->
<g id="edge1" class="edge"><title>Node1&#45;&gt;Node2</title>
<path fill="none" stroke="midnightblue" d="M142.229,-36.2916C155.114,-37.6293 168.594,-39.0289 181.569,-40.376"/>
<polygon fill="midnightblue" stroke="midnightblue" points="181.538,-43.8915 191.846,-41.443 182.261,-36.9289 181.538,-43.8915"/>
</g>
<!-- Node3 -->
<g id="node3" class="node"><title>Node3</title>
<g id="a_node3"><a xlink:href="../../d7/d7b/classPHHepMCGenEvent.html#a0d1a7a89d4f44f0c78a32af3de38b21d" target="_top" xlink:title="PHHepMCGenEvent::vertexSize">
<polygon fill="none" stroke="black" points="178,-0.5 178,-19.5 334,-19.5 334,-0.5 178,-0.5"/>
<text text-anchor="middle" x="256" y="-7.5" font-family="FreeSans" font-size="10.00">PHHepMCGenEvent::vertexSize</text>
</a>
</g>
</g>
<!-- Node1&#45;&gt;Node3 -->
<g id="edge2" class="edge"><title>Node1&#45;&gt;Node3</title>
<path fill="none" stroke="midnightblue" d="M142.229,-21.7084C150.633,-20.8359 159.29,-19.9371 167.895,-19.0436"/>
<polygon fill="midnightblue" stroke="midnightblue" points="168.37,-22.5133 177.955,-17.9992 167.647,-15.5507 168.37,-22.5133"/>
</g>
</g>
</svg>
