<?xml version="1.0" encoding="UTF-8" standalone="no"?>
<!DOCTYPE svg PUBLIC "-//W3C//DTD SVG 1.1//EN"
 "http://www.w3.org/Graphics/SVG/1.1/DTD/svg11.dtd">
<!-- Generated by graphviz version 2.30.1 (20200930.0103)
 -->
<!-- Title: PHG4Utils::GetLengthForRapidityCoverage Pages: 1 -->
<svg width="358pt" height="234pt"
 viewBox="0.00 0.00 358.00 234.00" xmlns="http://www.w3.org/2000/svg" xmlns:xlink="http://www.w3.org/1999/xlink">
<g id="graph0" class="graph" transform="scale(1 1) rotate(0) translate(4 230)">
<title>PHG4Utils::GetLengthForRapidityCoverage</title>
<!-- Node1 -->
<g id="node1" class="node"><title>Node1</title>
<polygon fill="#bfbfbf" stroke="black" points="0,-98 0,-128 160,-128 160,-98 0,-98"/>
<text text-anchor="start" x="8" y="-116" font-family="FreeSans" font-size="10.00">PHG4Utils::GetLengthForRapidity</text>
<text text-anchor="middle" x="80" y="-105" font-family="FreeSans" font-size="10.00">Coverage</text>
</g>
<!-- Node2 -->
<g id="node2" class="node"><title>Node2</title>
<g id="a_node2"><a xlink:href="../../d9/df7/classPHG4BNLTargetCoilSubsystem.html#a51eacfee4ecd504d8a424baa292de510" target="_top" xlink:title="init runwise stuff ">
<polygon fill="none" stroke="black" points="196.5,-196 196.5,-226 349.5,-226 349.5,-196 196.5,-196"/>
<text text-anchor="start" x="204.5" y="-214" font-family="FreeSans" font-size="10.00">PHG4BNLTargetCoilSubsystem</text>
<text text-anchor="middle" x="273" y="-203" font-family="FreeSans" font-size="10.00">::InitRunSubsystem</text>
</a>
</g>
</g>
<!-- Node1&#45;&gt;Node2 -->
<g id="edge1" class="edge"><title>Node1&#45;&gt;Node2</title>
<path fill="none" stroke="midnightblue" d="M109.731,-134.076C132.323,-149.934 165.048,-171.364 196,-186 203.66,-189.622 211.984,-192.937 220.222,-195.886"/>
<polygon fill="midnightblue" stroke="midnightblue" points="111.477,-131.023 101.297,-128.084 107.422,-136.729 111.477,-131.023"/>
</g>
<!-- Node3 -->
<g id="node3" class="node"><title>Node3</title>
<g id="a_node3"><a xlink:href="../../db/ddf/classPHG4TargetCoilV2Subsystem.html#a90105993fc507bc86e1605a1ea0f5b28" target="_top" xlink:title="init runwise stuff ">
<polygon fill="none" stroke="black" points="200,-147 200,-177 346,-177 346,-147 200,-147"/>
<text text-anchor="start" x="208" y="-165" font-family="FreeSans" font-size="10.00">PHG4TargetCoilV2Subsystem</text>
<text text-anchor="middle" x="273" y="-154" font-family="FreeSans" font-size="10.00">::InitRunSubsystem</text>
</a>
</g>
</g>
<!-- Node1&#45;&gt;Node3 -->
<g id="edge2" class="edge"><title>Node1&#45;&gt;Node3</title>
<path fill="none" stroke="midnightblue" d="M149.408,-130.55C170.383,-135.931 193.257,-141.799 213.506,-146.994"/>
<polygon fill="midnightblue" stroke="midnightblue" points="150.16,-127.129 139.604,-128.035 148.421,-133.91 150.16,-127.129"/>
</g>
<!-- Node4 -->
<g id="node4" class="node"><title>Node4</title>
<g id="a_node4"><a xlink:href="../../d8/d86/classPHG4TargetCoilSubsystem.html#ab2523afc854bd0070f5de6bd2448664e" target="_top" xlink:title="init runwise stuff ">
<polygon fill="none" stroke="black" points="206,-98 206,-128 340,-128 340,-98 206,-98"/>
<text text-anchor="start" x="214" y="-116" font-family="FreeSans" font-size="10.00">PHG4TargetCoilSubsystem</text>
<text text-anchor="middle" x="273" y="-105" font-family="FreeSans" font-size="10.00">::InitRunSubsystem</text>
</a>
</g>
</g>
<!-- Node1&#45;&gt;Node4 -->
<g id="edge3" class="edge"><title>Node1&#45;&gt;Node4</title>
<path fill="none" stroke="midnightblue" d="M170.099,-113C182.101,-113 194.238,-113 205.748,-113"/>
<polygon fill="midnightblue" stroke="midnightblue" points="170.066,-109.5 160.066,-113 170.066,-116.5 170.066,-109.5"/>
</g>
<!-- Node5 -->
<g id="node5" class="node"><title>Node5</title>
<g id="a_node5"><a xlink:href="../../d6/d12/classPHG4PolyconSubsystem.html#aaeebd3d4f0dc15785098c0dcb44b6740" target="_top" xlink:title="init runwise stuff ">
<polygon fill="none" stroke="black" points="210.5,-49 210.5,-79 335.5,-79 335.5,-49 210.5,-49"/>
<text text-anchor="start" x="218.5" y="-67" font-family="FreeSans" font-size="10.00">PHG4PolyconSubsystem</text>
<text text-anchor="middle" x="273" y="-56" font-family="FreeSans" font-size="10.00">::InitRunSubsystem</text>
</a>
</g>
</g>
<!-- Node1&#45;&gt;Node5 -->
<g id="edge4" class="edge"><title>Node1&#45;&gt;Node5</title>
<path fill="none" stroke="midnightblue" d="M149.408,-95.4502C170.383,-90.0694 193.257,-84.201 213.506,-79.0062"/>
<polygon fill="midnightblue" stroke="midnightblue" points="148.421,-92.0901 139.604,-97.9654 150.16,-98.8706 148.421,-92.0901"/>
</g>
<!-- Node6 -->
<g id="node6" class="node"><title>Node6</title>
<g id="a_node6"><a xlink:href="../../db/dc5/classPHG4CylinderSubsystem.html#a034cd0c643ec03070dcaf5f3bae175e0" target="_top" xlink:title="init runwise stuff ">
<polygon fill="none" stroke="black" points="210.5,-0 210.5,-30 335.5,-30 335.5,-0 210.5,-0"/>
<text text-anchor="start" x="218.5" y="-18" font-family="FreeSans" font-size="10.00">PHG4CylinderSubsystem</text>
<text text-anchor="middle" x="273" y="-7" font-family="FreeSans" font-size="10.00">::InitRunSubsystem</text>
</a>
</g>
</g>
<!-- Node1&#45;&gt;Node6 -->
<g id="edge5" class="edge"><title>Node1&#45;&gt;Node6</title>
<path fill="none" stroke="midnightblue" d="M109.731,-91.9242C132.323,-76.0661 165.048,-54.636 196,-40 203.66,-36.378 211.984,-33.0627 220.222,-30.1135"/>
<polygon fill="midnightblue" stroke="midnightblue" points="107.422,-89.2709 101.297,-97.9159 111.477,-94.9773 107.422,-89.2709"/>
</g>
</g>
</svg>
