<?xml version="1.0" encoding="UTF-8" standalone="no"?>
<!DOCTYPE svg PUBLIC "-//W3C//DTD SVG 1.1//EN"
 "http://www.w3.org/Graphics/SVG/1.1/DTD/svg11.dtd">
<!-- Generated by graphviz version 2.36.0 (20140111.2315)
 -->
<!-- Title: seaquest&#45;offline/fun4all/phool/recoConsts.h Pages: 1 -->
<svg width="1556pt" height="108pt"
 viewBox="0.00 0.00 1556.00 108.00" xmlns="http://www.w3.org/2000/svg" xmlns:xlink="http://www.w3.org/1999/xlink">
<g id="graph0" class="graph" transform="scale(1 1) rotate(0) translate(4 104)">
<title>seaquest&#45;offline/fun4all/phool/recoConsts.h</title>
<!-- Node1 -->
<g id="node1" class="node"><title>Node1</title>
<polygon fill="#bfbfbf" stroke="black" points="797,-69 797,-99 913,-99 913,-69 797,-69"/>
<text text-anchor="start" x="805" y="-87" font-family="FreeSans" font-size="10.00">seaquest&#45;offline/fun4all</text>
<text text-anchor="middle" x="855" y="-76" font-family="FreeSans" font-size="10.00">/phool/recoConsts.h</text>
</g>
<!-- Node2 -->
<g id="node2" class="node"><title>Node2</title>
<g id="a_node2"><a xlink:href="../../d3/d53/Fun4AllDstInputManager_8cc.html" target="_top" xlink:title="seaquest&#45;offline/fun4all\l/fun4all/Fun4AllDstInputManager.cc">
<polygon fill="none" stroke="black" points="-0.5,-1 -0.5,-31 170.5,-31 170.5,-1 -0.5,-1"/>
<text text-anchor="start" x="7.5" y="-19" font-family="FreeSans" font-size="10.00">seaquest&#45;offline/fun4all</text>
<text text-anchor="middle" x="85" y="-8" font-family="FreeSans" font-size="10.00">/fun4all/Fun4AllDstInputManager.cc</text>
</a>
</g>
</g>
<!-- Node1&#45;&gt;Node2 -->
<g id="edge1" class="edge"><title>Node1&#45;&gt;Node2</title>
<path fill="none" stroke="midnightblue" d="M786.651,-79.7217C664.432,-73.4413 400.486,-57.9813 179,-32 176.21,-31.6727 173.376,-31.3227 170.516,-30.9545"/>
<polygon fill="midnightblue" stroke="midnightblue" points="786.807,-83.234 796.972,-80.2474 787.163,-76.2431 786.807,-83.234"/>
</g>
<!-- Node3 -->
<g id="node3" class="node"><title>Node3</title>
<g id="a_node3"><a xlink:href="../../dd/dec/Fun4AllDummyInputManager_8cc.html" target="_top" xlink:title="seaquest&#45;offline/fun4all\l/fun4all/Fun4AllDummyInputManager.cc">
<polygon fill="none" stroke="black" points="188.5,-1 188.5,-31 377.5,-31 377.5,-1 188.5,-1"/>
<text text-anchor="start" x="196.5" y="-19" font-family="FreeSans" font-size="10.00">seaquest&#45;offline/fun4all</text>
<text text-anchor="middle" x="283" y="-8" font-family="FreeSans" font-size="10.00">/fun4all/Fun4AllDummyInputManager.cc</text>
</a>
</g>
</g>
<!-- Node1&#45;&gt;Node3 -->
<g id="edge2" class="edge"><title>Node1&#45;&gt;Node3</title>
<path fill="none" stroke="midnightblue" d="M786.716,-76.3084C695.501,-67.1981 528.902,-49.9596 387,-32 383.923,-31.6106 380.797,-31.2068 377.64,-30.7922"/>
<polygon fill="midnightblue" stroke="midnightblue" points="786.623,-79.8163 796.921,-77.325 787.317,-72.8508 786.623,-79.8163"/>
</g>
<!-- Node4 -->
<g id="node4" class="node"><title>Node4</title>
<g id="a_node4"><a xlink:href="../../df/d24/Fun4AllHistoManager_8cc.html" target="_top" xlink:title="seaquest&#45;offline/fun4all\l/fun4all/Fun4AllHistoManager.cc">
<polygon fill="none" stroke="black" points="396,-1 396,-31 554,-31 554,-1 396,-1"/>
<text text-anchor="start" x="404" y="-19" font-family="FreeSans" font-size="10.00">seaquest&#45;offline/fun4all</text>
<text text-anchor="middle" x="475" y="-8" font-family="FreeSans" font-size="10.00">/fun4all/Fun4AllHistoManager.cc</text>
</a>
</g>
</g>
<!-- Node1&#45;&gt;Node4 -->
<g id="edge3" class="edge"><title>Node1&#45;&gt;Node4</title>
<path fill="none" stroke="midnightblue" d="M786.687,-71.1351C721.392,-59.7944 622.995,-42.7044 554.277,-30.7692"/>
<polygon fill="midnightblue" stroke="midnightblue" points="786.421,-74.6412 796.873,-72.9042 787.619,-67.7445 786.421,-74.6412"/>
</g>
<!-- Node5 -->
<g id="node5" class="node"><title>Node5</title>
<g id="a_node5"><a xlink:href="../../da/d7b/Fun4AllPrdfInputManager_8cc.html" target="_top" xlink:title="seaquest&#45;offline/fun4all\l/fun4all/Fun4AllPrdfInputManager.cc">
<polygon fill="none" stroke="black" points="572,-1 572,-31 746,-31 746,-1 572,-1"/>
<text text-anchor="start" x="580" y="-19" font-family="FreeSans" font-size="10.00">seaquest&#45;offline/fun4all</text>
<text text-anchor="middle" x="659" y="-8" font-family="FreeSans" font-size="10.00">/fun4all/Fun4AllPrdfInputManager.cc</text>
</a>
</g>
</g>
<!-- Node1&#45;&gt;Node5 -->
<g id="edge4" class="edge"><title>Node1&#45;&gt;Node5</title>
<path fill="none" stroke="midnightblue" d="M803.302,-65.5916C771.25,-54.7984 730.616,-41.1157 700.641,-31.0218"/>
<polygon fill="midnightblue" stroke="midnightblue" points="802.359,-68.967 812.953,-68.8413 804.593,-62.333 802.359,-68.967"/>
</g>
<!-- Node6 -->
<g id="node6" class="node"><title>Node6</title>
<g id="a_node6"><a xlink:href="../../d8/d3b/Fun4AllPrdfOutputManager_8cc.html" target="_top" xlink:title="seaquest&#45;offline/fun4all\l/fun4all/Fun4AllPrdfOutputManager.cc">
<polygon fill="none" stroke="black" points="764,-1 764,-31 946,-31 946,-1 764,-1"/>
<text text-anchor="start" x="772" y="-19" font-family="FreeSans" font-size="10.00">seaquest&#45;offline/fun4all</text>
<text text-anchor="middle" x="855" y="-8" font-family="FreeSans" font-size="10.00">/fun4all/Fun4AllPrdfOutputManager.cc</text>
</a>
</g>
</g>
<!-- Node1&#45;&gt;Node6 -->
<g id="edge5" class="edge"><title>Node1&#45;&gt;Node6</title>
<path fill="none" stroke="midnightblue" d="M855,-58.5322C855,-49.3606 855,-39.2449 855,-31.2931"/>
<polygon fill="midnightblue" stroke="midnightblue" points="851.5,-58.6789 855,-68.679 858.5,-58.679 851.5,-58.6789"/>
</g>
<!-- Node7 -->
<g id="node7" class="node"><title>Node7</title>
<g id="a_node7"><a xlink:href="../../d8/d7a/Fun4AllServer_8cc.html" target="_top" xlink:title="seaquest&#45;offline/fun4all\l/fun4all/Fun4AllServer.cc">
<polygon fill="none" stroke="black" points="964.5,-1 964.5,-31 1089.5,-31 1089.5,-1 964.5,-1"/>
<text text-anchor="start" x="972.5" y="-19" font-family="FreeSans" font-size="10.00">seaquest&#45;offline/fun4all</text>
<text text-anchor="middle" x="1027" y="-8" font-family="FreeSans" font-size="10.00">/fun4all/Fun4AllServer.cc</text>
</a>
</g>
</g>
<!-- Node1&#45;&gt;Node7 -->
<g id="edge6" class="edge"><title>Node1&#45;&gt;Node7</title>
<path fill="none" stroke="midnightblue" d="M901.462,-65.1715C929.416,-54.4451 964.493,-40.9852 990.458,-31.0218"/>
<polygon fill="midnightblue" stroke="midnightblue" points="899.981,-61.9911 891.898,-68.8413 902.488,-68.5265 899.981,-61.9911"/>
</g>
<!-- Node8 -->
<g id="node8" class="node"><title>Node8</title>
<g id="a_node8"><a xlink:href="../../df/d03/Fun4AllSyncManager_8cc.html" target="_top" xlink:title="seaquest&#45;offline/fun4all\l/fun4all/Fun4AllSyncManager.cc">
<polygon fill="none" stroke="black" points="1108,-1 1108,-31 1264,-31 1264,-1 1108,-1"/>
<text text-anchor="start" x="1116" y="-19" font-family="FreeSans" font-size="10.00">seaquest&#45;offline/fun4all</text>
<text text-anchor="middle" x="1186" y="-8" font-family="FreeSans" font-size="10.00">/fun4all/Fun4AllSyncManager.cc</text>
</a>
</g>
</g>
<!-- Node1&#45;&gt;Node8 -->
<g id="edge7" class="edge"><title>Node1&#45;&gt;Node8</title>
<path fill="none" stroke="midnightblue" d="M922.901,-69.4609C979.135,-58.248 1058.76,-42.3712 1115.66,-31.026"/>
<polygon fill="midnightblue" stroke="midnightblue" points="922.157,-66.0402 913.035,-71.4282 923.526,-72.905 922.157,-66.0402"/>
</g>
<!-- Node9 -->
<g id="node9" class="node"><title>Node9</title>
<g id="a_node9"><a xlink:href="../../d4/d30/PHRandomSeed_8cc.html" target="_top" xlink:title="seaquest&#45;offline/fun4all\l/phool/PHRandomSeed.cc">
<polygon fill="none" stroke="black" points="1282.5,-1 1282.5,-31 1413.5,-31 1413.5,-1 1282.5,-1"/>
<text text-anchor="start" x="1290.5" y="-19" font-family="FreeSans" font-size="10.00">seaquest&#45;offline/fun4all</text>
<text text-anchor="middle" x="1348" y="-8" font-family="FreeSans" font-size="10.00">/phool/PHRandomSeed.cc</text>
</a>
</g>
</g>
<!-- Node1&#45;&gt;Node9 -->
<g id="edge8" class="edge"><title>Node1&#45;&gt;Node9</title>
<path fill="none" stroke="midnightblue" d="M923.057,-76.3023C1005.97,-67.773 1150.18,-51.745 1273,-32 1276.02,-31.5152 1279.09,-30.9965 1282.2,-30.4538"/>
<polygon fill="midnightblue" stroke="midnightblue" points="922.6,-72.8306 913.008,-77.3301 923.312,-79.7943 922.6,-72.8306"/>
</g>
<!-- Node10 -->
<g id="node10" class="node"><title>Node10</title>
<g id="a_node10"><a xlink:href="../../d7/df1/recoConsts_8cc.html" target="_top" xlink:title="seaquest&#45;offline/fun4all\l/phool/recoConsts.cc">
<polygon fill="none" stroke="black" points="1432,-1 1432,-31 1548,-31 1548,-1 1432,-1"/>
<text text-anchor="start" x="1440" y="-19" font-family="FreeSans" font-size="10.00">seaquest&#45;offline/fun4all</text>
<text text-anchor="middle" x="1490" y="-8" font-family="FreeSans" font-size="10.00">/phool/recoConsts.cc</text>
</a>
</g>
</g>
<!-- Node1&#45;&gt;Node10 -->
<g id="edge9" class="edge"><title>Node1&#45;&gt;Node10</title>
<path fill="none" stroke="midnightblue" d="M923.254,-79.6751C1030.1,-73.8379 1243.16,-59.6521 1422,-32 1425.23,-31.5012 1428.53,-30.9408 1431.85,-30.3373"/>
<polygon fill="midnightblue" stroke="midnightblue" points="923.047,-76.1811 913.249,-80.2141 923.423,-83.1709 923.047,-76.1811"/>
</g>
</g>
</svg>
