<?xml version="1.0" encoding="UTF-8" standalone="no"?>
<!DOCTYPE svg PUBLIC "-//W3C//DTD SVG 1.1//EN"
 "http://www.w3.org/Graphics/SVG/1.1/DTD/svg11.dtd">
<!-- Generated by graphviz version 2.36.0 (20140111.2315)
 -->
<!-- Title: PHG4OuterHcalDetector::ConstructHcalScintillatorAssembly Pages: 1 -->
<svg width="462pt" height="48pt"
 viewBox="0.00 0.00 462.00 48.00" xmlns="http://www.w3.org/2000/svg" xmlns:xlink="http://www.w3.org/1999/xlink">
<g id="graph0" class="graph" transform="scale(1 1) rotate(0) translate(4 44)">
<title>PHG4OuterHcalDetector::ConstructHcalScintillatorAssembly</title>
<!-- Node1 -->
<g id="node1" class="node"><title>Node1</title>
<polygon fill="#bfbfbf" stroke="black" points="0.5,0.5 0.5,-40.5 129.5,-40.5 129.5,0.5 0.5,0.5"/>
<text text-anchor="start" x="8.5" y="-28.5" font-family="FreeSans" font-size="10.00">PHG4OuterHcalDetector</text>
<text text-anchor="start" x="8.5" y="-17.5" font-family="FreeSans" font-size="10.00">::ConstructHcalScintillator</text>
<text text-anchor="middle" x="65" y="-6.5" font-family="FreeSans" font-size="10.00">Assembly</text>
</g>
<!-- Node2 -->
<g id="node2" class="node"><title>Node2</title>
<g id="a_node2"><a xlink:href="../../df/d74/classPHG4OuterHcalDetector.html#a7791a8bc9629b00efcd33f59f134e27a" target="_top" xlink:title="PHG4OuterHcalDetector\l::ConstructOuterHcal">
<polygon fill="none" stroke="black" points="166.5,-5 166.5,-35 291.5,-35 291.5,-5 166.5,-5"/>
<text text-anchor="start" x="174.5" y="-23" font-family="FreeSans" font-size="10.00">PHG4OuterHcalDetector</text>
<text text-anchor="middle" x="229" y="-12" font-family="FreeSans" font-size="10.00">::ConstructOuterHcal</text>
</a>
</g>
</g>
<!-- Node1&#45;&gt;Node2 -->
<g id="edge1" class="edge"><title>Node1&#45;&gt;Node2</title>
<path fill="none" stroke="midnightblue" d="M139.623,-20C148.601,-20 157.702,-20 166.478,-20"/>
<polygon fill="midnightblue" stroke="midnightblue" points="139.562,-16.5001 129.562,-20 139.562,-23.5001 139.562,-16.5001"/>
</g>
<!-- Node3 -->
<g id="node3" class="node"><title>Node3</title>
<g id="a_node3"><a xlink:href="../../df/d74/classPHG4OuterHcalDetector.html#aef9b9ce668aac4fcf7f27671e967fc04" target="_top" xlink:title="construct ">
<polygon fill="none" stroke="black" points="328.5,-5 328.5,-35 453.5,-35 453.5,-5 328.5,-5"/>
<text text-anchor="start" x="336.5" y="-23" font-family="FreeSans" font-size="10.00">PHG4OuterHcalDetector</text>
<text text-anchor="middle" x="391" y="-12" font-family="FreeSans" font-size="10.00">::Construct</text>
</a>
</g>
</g>
<!-- Node2&#45;&gt;Node3 -->
<g id="edge2" class="edge"><title>Node2&#45;&gt;Node3</title>
<path fill="none" stroke="midnightblue" d="M302.061,-20C310.822,-20 319.712,-20 328.304,-20"/>
<polygon fill="midnightblue" stroke="midnightblue" points="301.86,-16.5001 291.86,-20 301.86,-23.5001 301.86,-16.5001"/>
</g>
</g>
</svg>
