<?xml version="1.0" encoding="UTF-8" standalone="no"?>
<!DOCTYPE svg PUBLIC "-//W3C//DTD SVG 1.1//EN"
 "http://www.w3.org/Graphics/SVG/1.1/DTD/svg11.dtd">
<!-- Generated by graphviz version 2.30.1 (20200930.0103)
 -->
<!-- Title: Tracklet::getExpPosErrorY Pages: 1 -->
<svg width="1424pt" height="1011pt"
 viewBox="0.00 0.00 1424.00 1010.75" xmlns="http://www.w3.org/2000/svg" xmlns:xlink="http://www.w3.org/1999/xlink">
<g id="graph0" class="graph" transform="scale(1 1) rotate(0) translate(4 1006.75)">
<title>Tracklet::getExpPosErrorY</title>
<!-- Node1 -->
<g id="node1" class="node"><title>Node1</title>
<polygon fill="#bfbfbf" stroke="black" points="0.5,-538.045 0.5,-557.045 129.5,-557.045 129.5,-538.045 0.5,-538.045"/>
<text text-anchor="middle" x="65" y="-545.045" font-family="FreeSans" font-size="10.00">Tracklet::getExpPosErrorY</text>
</g>
<!-- Node2 -->
<g id="node2" class="node"><title>Node2</title>
<g id="a_node2"><a xlink:href="../../d3/d46/classKalmanFastTracking.html#a34696f18730ace99b63e9ec40abb3f2c" target="_top" xlink:title="KalmanFastTracking\l::getExtrapoWindowsInSt1">
<polygon fill="none" stroke="black" points="185,-863.545 185,-893.545 313,-893.545 313,-863.545 185,-863.545"/>
<text text-anchor="start" x="193" y="-881.545" font-family="FreeSans" font-size="10.00">KalmanFastTracking</text>
<text text-anchor="middle" x="249" y="-870.545" font-family="FreeSans" font-size="10.00">::getExtrapoWindowsInSt1</text>
</a>
</g>
</g>
<!-- Node1&#45;&gt;Node2 -->
<g id="edge1" class="edge"><title>Node1&#45;&gt;Node2</title>
<path fill="none" stroke="midnightblue" d="M76.1804,-566.06C108.703,-625.208 209.708,-808.905 239.591,-863.251"/>
<polygon fill="midnightblue" stroke="midnightblue" points="79.1358,-564.17 71.2506,-557.094 73.0019,-567.543 79.1358,-564.17"/>
</g>
<!-- Node7 -->
<g id="node7" class="node"><title>Node7</title>
<g id="a_node7"><a xlink:href="../../db/daa/classKalmanDSTrk.html#acbf1658718f2fbe59d795d6f41a20027" target="_top" xlink:title="KalmanDSTrk::getExtrapoWindows\lInSt1">
<polygon fill="none" stroke="black" points="166,-429.545 166,-459.545 332,-459.545 332,-429.545 166,-429.545"/>
<text text-anchor="start" x="174" y="-447.545" font-family="FreeSans" font-size="10.00">KalmanDSTrk::getExtrapoWindows</text>
<text text-anchor="middle" x="249" y="-436.545" font-family="FreeSans" font-size="10.00">InSt1</text>
</a>
</g>
</g>
<!-- Node1&#45;&gt;Node7 -->
<g id="edge6" class="edge"><title>Node1&#45;&gt;Node7</title>
<path fill="none" stroke="midnightblue" d="M91.7428,-532.976C126.074,-513.547 186.551,-479.321 221.341,-459.632"/>
<polygon fill="midnightblue" stroke="midnightblue" points="89.775,-530.068 82.7959,-538.039 93.2227,-536.16 89.775,-530.068"/>
</g>
<!-- Node11 -->
<g id="node11" class="node"><title>Node11</title>
<g id="a_node11"><a xlink:href="../../d2/d26/classTracklet.html#aa0ca7e43f4d1359b0068c35299a70db5" target="_top" xlink:title="Tracklet::getSRecTrack">
<polygon fill="none" stroke="black" points="543.5,-654.045 543.5,-673.045 662.5,-673.045 662.5,-654.045 543.5,-654.045"/>
<text text-anchor="middle" x="603" y="-661.045" font-family="FreeSans" font-size="10.00">Tracklet::getSRecTrack</text>
</a>
</g>
</g>
<!-- Node1&#45;&gt;Node11 -->
<g id="edge10" class="edge"><title>Node1&#45;&gt;Node11</title>
<path fill="none" stroke="midnightblue" d="M122.138,-559.145C203.996,-576.136 360.872,-608.987 494,-638.545 516.358,-643.509 541.267,-649.26 561.524,-653.994"/>
<polygon fill="midnightblue" stroke="midnightblue" points="122.796,-555.707 112.294,-557.103 121.374,-562.561 122.796,-555.707"/>
</g>
<!-- Node14 -->
<g id="node14" class="node"><title>Node14</title>
<g id="a_node14"><a xlink:href="../../d3/d46/classKalmanFastTracking.html#a2ba7e37a8c501ba0e84a3036b292c0d7" target="_top" xlink:title="KalmanFastTracking\l::hodoMask">
<polygon fill="none" stroke="black" points="378,-729.545 378,-759.545 484,-759.545 484,-729.545 378,-729.545"/>
<text text-anchor="start" x="386" y="-747.545" font-family="FreeSans" font-size="10.00">KalmanFastTracking</text>
<text text-anchor="middle" x="431" y="-736.545" font-family="FreeSans" font-size="10.00">::hodoMask</text>
</a>
</g>
</g>
<!-- Node1&#45;&gt;Node14 -->
<g id="edge17" class="edge"><title>Node1&#45;&gt;Node14</title>
<path fill="none" stroke="midnightblue" d="M77.899,-565.624C94.7486,-589.875 127.798,-632.752 166,-657.545 232.388,-700.629 322.062,-724.217 377.941,-735.606"/>
<polygon fill="midnightblue" stroke="midnightblue" points="80.7715,-563.624 72.2575,-557.318 74.9808,-567.557 80.7715,-563.624"/>
</g>
<!-- Node19 -->
<g id="node19" class="node"><title>Node19</title>
<g id="a_node19"><a xlink:href="../../db/daa/classKalmanDSTrk.html#ad56551b49302a8483ec62d2e5b830085" target="_top" xlink:title="KalmanDSTrk::hodoMask">
<polygon fill="none" stroke="black" points="368,-108.045 368,-127.045 494,-127.045 494,-108.045 368,-108.045"/>
<text text-anchor="middle" x="431" y="-115.045" font-family="FreeSans" font-size="10.00">KalmanDSTrk::hodoMask</text>
</a>
</g>
</g>
<!-- Node1&#45;&gt;Node19 -->
<g id="edge28" class="edge"><title>Node1&#45;&gt;Node19</title>
<path fill="none" stroke="midnightblue" d="M70.5319,-527.965C81.3357,-484.328 111.83,-377.149 166,-303.545 235.046,-209.728 265.446,-191.787 368,-136.545 374.938,-132.808 382.717,-129.694 390.359,-127.141"/>
<polygon fill="midnightblue" stroke="midnightblue" points="67.0895,-527.311 68.1555,-537.852 73.8956,-528.947 67.0895,-527.311"/>
</g>
<!-- Node23 -->
<g id="node23" class="node"><title>Node23</title>
<g id="a_node23"><a xlink:href="../../d3/d46/classKalmanFastTracking.html#ab9097108e13ba257954b854f2bc2e45b" target="_top" xlink:title="KalmanFastTracking\l::muonID_hodoAid">
<polygon fill="none" stroke="black" points="196,-618.545 196,-648.545 302,-648.545 302,-618.545 196,-618.545"/>
<text text-anchor="start" x="204" y="-636.545" font-family="FreeSans" font-size="10.00">KalmanFastTracking</text>
<text text-anchor="middle" x="249" y="-625.545" font-family="FreeSans" font-size="10.00">::muonID_hodoAid</text>
</a>
</g>
</g>
<!-- Node1&#45;&gt;Node23 -->
<g id="edge38" class="edge"><title>Node1&#45;&gt;Node23</title>
<path fill="none" stroke="midnightblue" d="M95.3315,-561.405C128.417,-577.039 182.042,-602.378 216.135,-618.488"/>
<polygon fill="midnightblue" stroke="midnightblue" points="96.7093,-558.185 86.1726,-557.077 93.7187,-564.514 96.7093,-558.185"/>
</g>
<!-- Node25 -->
<g id="node25" class="node"><title>Node25</title>
<g id="a_node25"><a xlink:href="../../db/daa/classKalmanDSTrk.html#a4b3c56c9abbdcc00ab0c79205b9aa82b" target="_top" xlink:title="KalmanDSTrk::muonID\l_hodoAid">
<polygon fill="none" stroke="black" points="191,-313.545 191,-343.545 307,-343.545 307,-313.545 191,-313.545"/>
<text text-anchor="start" x="199" y="-331.545" font-family="FreeSans" font-size="10.00">KalmanDSTrk::muonID</text>
<text text-anchor="middle" x="249" y="-320.545" font-family="FreeSans" font-size="10.00">_hodoAid</text>
</a>
</g>
</g>
<!-- Node1&#45;&gt;Node25 -->
<g id="edge41" class="edge"><title>Node1&#45;&gt;Node25</title>
<path fill="none" stroke="midnightblue" d="M79.4486,-529.521C98.2956,-504.453 133.867,-457.826 166,-419.545 188.97,-392.18 217.107,-361.541 233.736,-343.71"/>
<polygon fill="midnightblue" stroke="midnightblue" points="76.4958,-527.625 73.299,-537.726 82.0972,-531.823 76.4958,-527.625"/>
</g>
<!-- Node27 -->
<g id="node27" class="node"><title>Node27</title>
<g id="a_node27"><a xlink:href="../../d2/d26/classTracklet.html#ae35d72a1a17879f996f97a31df948db4" target="_top" xlink:title="Tracklet::print">
<polygon fill="none" stroke="black" points="393.5,-496.045 393.5,-515.045 468.5,-515.045 468.5,-496.045 393.5,-496.045"/>
<text text-anchor="middle" x="431" y="-503.045" font-family="FreeSans" font-size="10.00">Tracklet::print</text>
</a>
</g>
</g>
<!-- Node1&#45;&gt;Node27 -->
<g id="edge44" class="edge"><title>Node1&#45;&gt;Node27</title>
<path fill="none" stroke="midnightblue" d="M139.939,-539.013C216.947,-530.128 334.418,-516.574 393.448,-509.762"/>
<polygon fill="midnightblue" stroke="midnightblue" points="139.353,-535.558 129.82,-540.181 140.156,-542.512 139.353,-535.558"/>
</g>
<!-- Node3 -->
<g id="node3" class="node"><title>Node3</title>
<g id="a_node3"><a xlink:href="../../d3/d46/classKalmanFastTracking.html#a53c93bc5e58b3560d1cfb42e84bbe95c" target="_top" xlink:title="KalmanFastTracking\l::buildGlobalTracks">
<polygon fill="none" stroke="black" points="939,-824.545 939,-854.545 1045,-854.545 1045,-824.545 939,-824.545"/>
<text text-anchor="start" x="947" y="-842.545" font-family="FreeSans" font-size="10.00">KalmanFastTracking</text>
<text text-anchor="middle" x="992" y="-831.545" font-family="FreeSans" font-size="10.00">::buildGlobalTracks</text>
</a>
</g>
</g>
<!-- Node2&#45;&gt;Node3 -->
<g id="edge2" class="edge"><title>Node2&#45;&gt;Node3</title>
<path fill="none" stroke="midnightblue" d="M288.854,-897.998C390.868,-946.194 672.755,-1060.66 880,-966.545 931.459,-943.177 968.417,-882.86 983.491,-854.588"/>
<polygon fill="midnightblue" stroke="midnightblue" points="290.083,-894.706 279.551,-893.55 287.063,-901.021 290.083,-894.706"/>
</g>
<!-- Node4 -->
<g id="node4" class="node"><title>Node4</title>
<g id="a_node4"><a xlink:href="../../d3/d46/classKalmanFastTracking.html#ada493cf8d995c42b9e78a53b891ce72b" target="_top" xlink:title="KalmanFastTracking\l::setRawEvent">
<polygon fill="none" stroke="black" points="1120,-792.545 1120,-822.545 1226,-822.545 1226,-792.545 1120,-792.545"/>
<text text-anchor="start" x="1128" y="-810.545" font-family="FreeSans" font-size="10.00">KalmanFastTracking</text>
<text text-anchor="middle" x="1173" y="-799.545" font-family="FreeSans" font-size="10.00">::setRawEvent</text>
</a>
</g>
</g>
<!-- Node3&#45;&gt;Node4 -->
<g id="edge3" class="edge"><title>Node3&#45;&gt;Node4</title>
<path fill="none" stroke="midnightblue" d="M1055.12,-828.44C1076.28,-824.657 1099.7,-820.469 1119.99,-816.843"/>
<polygon fill="midnightblue" stroke="midnightblue" points="1054.48,-824.998 1045.26,-830.203 1055.72,-831.889 1054.48,-824.998"/>
</g>
<!-- Node5 -->
<g id="node5" class="node"><title>Node5</title>
<g id="a_node5"><a xlink:href="../../dd/d62/classSQTrackletReco.html#a8da2377e83fb17bc8189b89175833872" target="_top" xlink:title="SQTrackletReco::process\l_event">
<polygon fill="none" stroke="black" points="1284,-814.545 1284,-844.545 1410,-844.545 1410,-814.545 1284,-814.545"/>
<text text-anchor="start" x="1292" y="-832.545" font-family="FreeSans" font-size="10.00">SQTrackletReco::process</text>
<text text-anchor="middle" x="1347" y="-821.545" font-family="FreeSans" font-size="10.00">_event</text>
</a>
</g>
</g>
<!-- Node4&#45;&gt;Node5 -->
<g id="edge4" class="edge"><title>Node4&#45;&gt;Node5</title>
<path fill="none" stroke="midnightblue" d="M1236.09,-815.487C1251.62,-817.473 1268.27,-819.603 1283.81,-821.59"/>
<polygon fill="midnightblue" stroke="midnightblue" points="1236.44,-812.002 1226.07,-814.205 1235.55,-818.946 1236.44,-812.002"/>
</g>
<!-- Node6 -->
<g id="node6" class="node"><title>Node6</title>
<g id="a_node6"><a xlink:href="../../df/df2/classSQReco.html#a4d308ea90b8cd7c24a235f32debd6ddb" target="_top" xlink:title="SQReco::process_event">
<polygon fill="none" stroke="black" points="1287.5,-776.045 1287.5,-795.045 1406.5,-795.045 1406.5,-776.045 1287.5,-776.045"/>
<text text-anchor="middle" x="1347" y="-783.045" font-family="FreeSans" font-size="10.00">SQReco::process_event</text>
</a>
</g>
</g>
<!-- Node4&#45;&gt;Node6 -->
<g id="edge5" class="edge"><title>Node4&#45;&gt;Node6</title>
<path fill="none" stroke="midnightblue" d="M1236.28,-799.578C1252.99,-797.442 1270.99,-795.139 1287.49,-793.029"/>
<polygon fill="midnightblue" stroke="midnightblue" points="1235.55,-796.144 1226.07,-800.884 1236.44,-803.087 1235.55,-796.144"/>
</g>
<!-- Node8 -->
<g id="node8" class="node"><title>Node8</title>
<g id="a_node8"><a xlink:href="../../db/daa/classKalmanDSTrk.html#adf4981f081f2606bf3412851eaa62eb0" target="_top" xlink:title="KalmanDSTrk::buildGlobal\lTracks">
<polygon fill="none" stroke="black" points="927,-266.545 927,-296.545 1057,-296.545 1057,-266.545 927,-266.545"/>
<text text-anchor="start" x="935" y="-284.545" font-family="FreeSans" font-size="10.00">KalmanDSTrk::buildGlobal</text>
<text text-anchor="middle" x="992" y="-273.545" font-family="FreeSans" font-size="10.00">Tracks</text>
</a>
</g>
</g>
<!-- Node7&#45;&gt;Node8 -->
<g id="edge7" class="edge"><title>Node7&#45;&gt;Node8</title>
<path fill="none" stroke="midnightblue" d="M272.982,-422.45C328.547,-369.623 470.004,-238.81 530,-217.545 556.537,-208.139 855.177,-215.006 880,-221.545 913.893,-230.473 948.779,-251.679 970.178,-266.327"/>
<polygon fill="midnightblue" stroke="midnightblue" points="270.55,-419.933 265.729,-429.367 275.381,-424.999 270.55,-419.933"/>
</g>
<!-- Node9 -->
<g id="node9" class="node"><title>Node9</title>
<g id="a_node9"><a xlink:href="../../db/daa/classKalmanDSTrk.html#a58ceb0cdcf685588b2a543d7a9c2bf9d" target="_top" xlink:title="KalmanDSTrk::setRawEvent\lWorker">
<polygon fill="none" stroke="black" points="1104.5,-303.545 1104.5,-333.545 1241.5,-333.545 1241.5,-303.545 1104.5,-303.545"/>
<text text-anchor="start" x="1112.5" y="-321.545" font-family="FreeSans" font-size="10.00">KalmanDSTrk::setRawEvent</text>
<text text-anchor="middle" x="1173" y="-310.545" font-family="FreeSans" font-size="10.00">Worker</text>
</a>
</g>
</g>
<!-- Node8&#45;&gt;Node9 -->
<g id="edge8" class="edge"><title>Node8&#45;&gt;Node9</title>
<path fill="none" stroke="midnightblue" d="M1066.96,-296.832C1079.36,-299.395 1092.17,-302.044 1104.4,-304.572"/>
<polygon fill="midnightblue" stroke="midnightblue" points="1067.62,-293.395 1057.12,-294.798 1066.2,-300.25 1067.62,-293.395"/>
</g>
<!-- Node10 -->
<g id="node10" class="node"><title>Node10</title>
<g id="a_node10"><a xlink:href="../../db/daa/classKalmanDSTrk.html#a67f1b61fbc3fbba52e10f4b06d4f8794" target="_top" xlink:title="KalmanDSTrk::setRawEvent">
<polygon fill="none" stroke="black" points="1278.5,-309.045 1278.5,-328.045 1415.5,-328.045 1415.5,-309.045 1278.5,-309.045"/>
<text text-anchor="middle" x="1347" y="-316.045" font-family="FreeSans" font-size="10.00">KalmanDSTrk::setRawEvent</text>
</a>
</g>
</g>
<!-- Node9&#45;&gt;Node10 -->
<g id="edge9" class="edge"><title>Node9&#45;&gt;Node10</title>
<path fill="none" stroke="midnightblue" d="M1252.13,-318.545C1260.85,-318.545 1269.67,-318.545 1278.23,-318.545"/>
<polygon fill="midnightblue" stroke="midnightblue" points="1251.98,-315.045 1241.98,-318.545 1251.98,-322.045 1251.98,-315.045"/>
</g>
<!-- Node12 -->
<g id="node12" class="node"><title>Node12</title>
<g id="a_node12"><a xlink:href="../../d3/d46/classKalmanFastTracking.html#ac0b6441647d023db04c618a35fd2a8cd" target="_top" xlink:title="Track fitting stuff. ">
<polygon fill="none" stroke="black" points="742.5,-742.545 742.5,-772.545 849.5,-772.545 849.5,-742.545 742.5,-742.545"/>
<text text-anchor="start" x="750.5" y="-760.545" font-family="FreeSans" font-size="10.00">KalmanFastTracking</text>
<text text-anchor="middle" x="796" y="-749.545" font-family="FreeSans" font-size="10.00">::processOneTracklet</text>
</a>
</g>
</g>
<!-- Node11&#45;&gt;Node12 -->
<g id="edge11" class="edge"><title>Node11&#45;&gt;Node12</title>
<path fill="none" stroke="midnightblue" d="M632.654,-677.647C668.04,-695.062 727.989,-724.566 764.294,-742.433"/>
<polygon fill="midnightblue" stroke="midnightblue" points="633.883,-674.351 623.365,-673.075 630.792,-680.631 633.883,-674.351"/>
</g>
<!-- Node13 -->
<g id="node13" class="node"><title>Node13</title>
<g id="a_node13"><a xlink:href="../../db/daa/classKalmanDSTrk.html#ace95cba717e2c3b24dfb46e8d458f61a" target="_top" xlink:title="Track fitting stuff. ">
<polygon fill="none" stroke="black" points="712,-540.045 712,-559.045 880,-559.045 880,-540.045 712,-540.045"/>
<text text-anchor="middle" x="796" y="-547.045" font-family="FreeSans" font-size="10.00">KalmanDSTrk::processOneTracklet</text>
</a>
</g>
</g>
<!-- Node11&#45;&gt;Node13 -->
<g id="edge14" class="edge"><title>Node11&#45;&gt;Node13</title>
<path fill="none" stroke="midnightblue" d="M628.763,-648.765C668.544,-625.021 745.593,-579.034 778.955,-559.121"/>
<polygon fill="midnightblue" stroke="midnightblue" points="626.749,-645.891 619.956,-654.021 630.337,-651.902 626.749,-645.891"/>
</g>
<!-- Node12&#45;&gt;Node3 -->
<g id="edge12" class="edge"><title>Node12&#45;&gt;Node3</title>
<path fill="none" stroke="midnightblue" d="M850.854,-776.199C860.614,-779.81 870.656,-783.677 880,-787.545 907.724,-799.021 938.581,-813.63 960.71,-824.44"/>
<polygon fill="midnightblue" stroke="midnightblue" points="851.818,-772.826 841.224,-772.684 849.418,-779.401 851.818,-772.826"/>
</g>
<!-- Node12&#45;&gt;Node4 -->
<g id="edge13" class="edge"><title>Node12&#45;&gt;Node4</title>
<path fill="none" stroke="midnightblue" d="M859.508,-765.879C932.424,-775.601 1051.65,-791.498 1119.82,-800.587"/>
<polygon fill="midnightblue" stroke="midnightblue" points="859.912,-762.402 849.537,-764.55 858.987,-769.341 859.912,-762.402"/>
</g>
<!-- Node13&#45;&gt;Node8 -->
<g id="edge15" class="edge"><title>Node13&#45;&gt;Node8</title>
<path fill="none" stroke="midnightblue" d="M873.521,-535.181C875.784,-533.771 877.952,-532.229 880,-530.545 956.767,-467.412 982.282,-340.301 988.972,-296.659"/>
<polygon fill="midnightblue" stroke="midnightblue" points="871.602,-532.236 864.39,-539.997 874.868,-538.428 871.602,-532.236"/>
</g>
<!-- Node13&#45;&gt;Node9 -->
<g id="edge16" class="edge"><title>Node13&#45;&gt;Node9</title>
<path fill="none" stroke="midnightblue" d="M862.9,-537.066C868.786,-535.175 874.568,-533.013 880,-530.545 997.205,-477.286 1114.4,-372.924 1156.08,-333.822"/>
<polygon fill="midnightblue" stroke="midnightblue" points="861.541,-533.818 852.937,-540 863.518,-540.533 861.541,-533.818"/>
</g>
<!-- Node15 -->
<g id="node15" class="node"><title>Node15</title>
<g id="a_node15"><a xlink:href="../../d3/d46/classKalmanFastTracking.html#a3e34ec4cc289246ef9842e3482e0b1cc" target="_top" xlink:title="KalmanFastTracking\l::acceptTracklet">
<polygon fill="none" stroke="black" points="550,-887.545 550,-917.545 656,-917.545 656,-887.545 550,-887.545"/>
<text text-anchor="start" x="558" y="-905.545" font-family="FreeSans" font-size="10.00">KalmanFastTracking</text>
<text text-anchor="middle" x="603" y="-894.545" font-family="FreeSans" font-size="10.00">::acceptTracklet</text>
</a>
</g>
</g>
<!-- Node14&#45;&gt;Node15 -->
<g id="edge18" class="edge"><title>Node14&#45;&gt;Node15</title>
<path fill="none" stroke="midnightblue" d="M445.041,-768.446C461.525,-796.707 492.342,-843.554 530,-872.545 537.618,-878.41 546.549,-883.329 555.479,-887.376"/>
<polygon fill="midnightblue" stroke="midnightblue" points="448.006,-766.58 440.011,-759.628 441.925,-770.048 448.006,-766.58"/>
</g>
<!-- Node16 -->
<g id="node16" class="node"><title>Node16</title>
<g id="a_node16"><a xlink:href="../../d3/d46/classKalmanFastTracking.html#a53e313d5cd40faa789fbe1dbe716f192" target="_top" xlink:title="KalmanFastTracking\l::buildBackPartialTracks">
<polygon fill="none" stroke="black" points="931.5,-654.545 931.5,-684.545 1052.5,-684.545 1052.5,-654.545 931.5,-654.545"/>
<text text-anchor="start" x="939.5" y="-672.545" font-family="FreeSans" font-size="10.00">KalmanFastTracking</text>
<text text-anchor="middle" x="992" y="-661.545" font-family="FreeSans" font-size="10.00">::buildBackPartialTracks</text>
</a>
</g>
</g>
<!-- Node14&#45;&gt;Node16 -->
<g id="edge26" class="edge"><title>Node14&#45;&gt;Node16</title>
<path fill="none" stroke="midnightblue" d="M493.852,-729.274C564.808,-711.69 671.978,-684.905 676,-682.545 696.065,-670.771 690.629,-653.737 712,-644.545 780.591,-615.042 805.791,-636.291 880,-644.545 898.258,-646.576 917.9,-650.43 935.51,-654.515"/>
<polygon fill="midnightblue" stroke="midnightblue" points="492.96,-725.889 484.095,-731.69 494.643,-732.684 492.96,-725.889"/>
</g>
<!-- Node14&#45;&gt;Node3 -->
<g id="edge27" class="edge"><title>Node14&#45;&gt;Node3</title>
<path fill="none" stroke="midnightblue" d="M436.974,-769.379C446.698,-810.535 472.514,-891.779 530,-926.545 663.109,-1007.05 733.239,-980.116 880,-928.545 921.713,-913.887 959.362,-876.214 978.236,-854.878"/>
<polygon fill="midnightblue" stroke="midnightblue" points="440.385,-768.597 434.79,-759.6 433.553,-770.123 440.385,-768.597"/>
</g>
<!-- Node15&#45;&gt;Node16 -->
<g id="edge19" class="edge"><title>Node15&#45;&gt;Node16</title>
<path fill="none" stroke="midnightblue" d="M616.353,-878.41C638.414,-836.213 684.812,-751.687 712,-732.545 716.536,-729.351 850.762,-699.902 931.356,-682.42"/>
<polygon fill="midnightblue" stroke="midnightblue" points="613.162,-876.961 611.662,-887.449 619.375,-880.185 613.162,-876.961"/>
</g>
<!-- Node15&#45;&gt;Node3 -->
<g id="edge22" class="edge"><title>Node15&#45;&gt;Node3</title>
<path fill="none" stroke="midnightblue" d="M665.916,-913.723C722.727,-921.641 808.638,-927.666 880,-907.545 916.325,-897.303 952.493,-871.486 973.252,-854.773"/>
<polygon fill="midnightblue" stroke="midnightblue" points="666.407,-910.258 656.007,-912.282 665.399,-917.185 666.407,-910.258"/>
</g>
<!-- Node18 -->
<g id="node18" class="node"><title>Node18</title>
<g id="a_node18"><a xlink:href="../../d3/d46/classKalmanFastTracking.html#a4aab1bd454f44de3a3ed2569efeca4b7" target="_top" xlink:title="Tracklet finding stuff. ">
<polygon fill="none" stroke="black" points="736,-868.545 736,-898.545 856,-898.545 856,-868.545 736,-868.545"/>
<text text-anchor="start" x="744" y="-886.545" font-family="FreeSans" font-size="10.00">KalmanFastTracking</text>
<text text-anchor="middle" x="796" y="-875.545" font-family="FreeSans" font-size="10.00">::buildTrackletsInStation</text>
</a>
</g>
</g>
<!-- Node15&#45;&gt;Node18 -->
<g id="edge23" class="edge"><title>Node15&#45;&gt;Node18</title>
<path fill="none" stroke="midnightblue" d="M666.243,-896.353C688.589,-894.13 713.711,-891.631 735.793,-889.435"/>
<polygon fill="midnightblue" stroke="midnightblue" points="665.796,-892.88 656.192,-897.353 666.489,-899.846 665.796,-892.88"/>
</g>
<!-- Node17 -->
<g id="node17" class="node"><title>Node17</title>
<g id="a_node17"><a xlink:href="../../de/d12/classKalmanFastTrackletting.html#a50cdc1c3dc3759b451c16124fb7541df" target="_top" xlink:title="KalmanFastTrackletting\l::setRawEvent">
<polygon fill="none" stroke="black" points="1113.5,-654.545 1113.5,-684.545 1232.5,-684.545 1232.5,-654.545 1113.5,-654.545"/>
<text text-anchor="start" x="1121.5" y="-672.545" font-family="FreeSans" font-size="10.00">KalmanFastTrackletting</text>
<text text-anchor="middle" x="1173" y="-661.545" font-family="FreeSans" font-size="10.00">::setRawEvent</text>
</a>
</g>
</g>
<!-- Node16&#45;&gt;Node17 -->
<g id="edge20" class="edge"><title>Node16&#45;&gt;Node17</title>
<path fill="none" stroke="midnightblue" d="M1062.84,-669.545C1079.52,-669.545 1097.15,-669.545 1113.26,-669.545"/>
<polygon fill="midnightblue" stroke="midnightblue" points="1062.6,-666.045 1052.6,-669.545 1062.6,-673.045 1062.6,-666.045"/>
</g>
<!-- Node16&#45;&gt;Node4 -->
<g id="edge21" class="edge"><title>Node16&#45;&gt;Node4</title>
<path fill="none" stroke="midnightblue" d="M1020.74,-690.932C1057.29,-719.111 1120.67,-767.969 1152.53,-792.532"/>
<polygon fill="midnightblue" stroke="midnightblue" points="1022.55,-687.91 1012.5,-684.576 1018.28,-693.454 1022.55,-687.91"/>
</g>
<!-- Node18&#45;&gt;Node3 -->
<g id="edge24" class="edge"><title>Node18&#45;&gt;Node3</title>
<path fill="none" stroke="midnightblue" d="M866.032,-867.888C890.058,-862.439 916.588,-856.422 939,-851.339"/>
<polygon fill="midnightblue" stroke="midnightblue" points="865.239,-864.479 856.261,-870.104 866.787,-871.306 865.239,-864.479"/>
</g>
<!-- Node18&#45;&gt;Node4 -->
<g id="edge25" class="edge"><title>Node18&#45;&gt;Node4</title>
<path fill="none" stroke="midnightblue" d="M866.236,-886.316C921.848,-886.68 1001.38,-882.976 1068,-863.545 1098.51,-854.645 1130.2,-835.993 1150.46,-822.661"/>
<polygon fill="midnightblue" stroke="midnightblue" points="866.177,-882.815 856.139,-886.203 866.099,-889.814 866.177,-882.815"/>
</g>
<!-- Node20 -->
<g id="node20" class="node"><title>Node20</title>
<g id="a_node20"><a xlink:href="../../db/daa/classKalmanDSTrk.html#ac07dbe14e15a8c5fbbca52c118865d33" target="_top" xlink:title="KalmanDSTrk::acceptTracklet">
<polygon fill="none" stroke="black" points="530,-152.045 530,-171.045 676,-171.045 676,-152.045 530,-152.045"/>
<text text-anchor="middle" x="603" y="-159.045" font-family="FreeSans" font-size="10.00">KalmanDSTrk::acceptTracklet</text>
</a>
</g>
</g>
<!-- Node19&#45;&gt;Node20 -->
<g id="edge29" class="edge"><title>Node19&#45;&gt;Node20</title>
<path fill="none" stroke="midnightblue" d="M478.602,-129.607C505.867,-136.663 539.805,-145.447 565.185,-152.016"/>
<polygon fill="midnightblue" stroke="midnightblue" points="479.445,-126.21 468.887,-127.092 477.691,-132.986 479.445,-126.21"/>
</g>
<!-- Node21 -->
<g id="node21" class="node"><title>Node21</title>
<g id="a_node21"><a xlink:href="../../db/daa/classKalmanDSTrk.html#a1d246a6aacb8828783f887e82bb74cd1" target="_top" xlink:title="KalmanDSTrk::buildBackPartial\lTracks">
<polygon fill="none" stroke="black" points="916,-70.5449 916,-100.545 1068,-100.545 1068,-70.5449 916,-70.5449"/>
<text text-anchor="start" x="924" y="-88.5449" font-family="FreeSans" font-size="10.00">KalmanDSTrk::buildBackPartial</text>
<text text-anchor="middle" x="992" y="-77.5449" font-family="FreeSans" font-size="10.00">Tracks</text>
</a>
</g>
</g>
<!-- Node19&#45;&gt;Node21 -->
<g id="edge36" class="edge"><title>Node19&#45;&gt;Node21</title>
<path fill="none" stroke="midnightblue" d="M445.728,-99.8591C462.872,-79.371 494.324,-46.7422 530,-33.5449 675.893,20.4245 728.162,0.258165 880,-33.5449 911.781,-40.6202 945.222,-57.8123 966.987,-70.5013"/>
<polygon fill="midnightblue" stroke="midnightblue" points="442.865,-97.8325 439.286,-107.804 448.302,-102.241 442.865,-97.8325"/>
</g>
<!-- Node19&#45;&gt;Node8 -->
<g id="edge37" class="edge"><title>Node19&#45;&gt;Node8</title>
<path fill="none" stroke="midnightblue" d="M504.369,-106.999C596.866,-97.0115 759.437,-91.4377 880,-152.545 930.599,-178.191 967.737,-237.93 983.144,-266.197"/>
<polygon fill="midnightblue" stroke="midnightblue" points="503.813,-103.539 494.267,-108.137 504.597,-110.495 503.813,-103.539"/>
</g>
<!-- Node20&#45;&gt;Node21 -->
<g id="edge30" class="edge"><title>Node20&#45;&gt;Node21</title>
<path fill="none" stroke="midnightblue" d="M662.684,-150.02C730.334,-136.735 841.687,-114.867 915.678,-100.337"/>
<polygon fill="midnightblue" stroke="midnightblue" points="661.76,-146.635 652.622,-151.996 663.109,-153.504 661.76,-146.635"/>
</g>
<!-- Node20&#45;&gt;Node8 -->
<g id="edge32" class="edge"><title>Node20&#45;&gt;Node8</title>
<path fill="none" stroke="midnightblue" d="M686.418,-155.678C743.014,-154.721 818.691,-159.631 880,-185.545 922.477,-203.499 960.377,-244.055 978.938,-266.277"/>
<polygon fill="midnightblue" stroke="midnightblue" points="685.995,-152.187 676.08,-155.922 686.159,-159.185 685.995,-152.187"/>
</g>
<!-- Node22 -->
<g id="node22" class="node"><title>Node22</title>
<g id="a_node22"><a xlink:href="../../db/daa/classKalmanDSTrk.html#ab77ac8dc274c5df2658d12c96494d29e" target="_top" xlink:title="Tracklet finding stuff. ">
<polygon fill="none" stroke="black" points="725,-414.545 725,-444.545 867,-444.545 867,-414.545 725,-414.545"/>
<text text-anchor="start" x="733" y="-432.545" font-family="FreeSans" font-size="10.00">KalmanDSTrk::buildTracklets</text>
<text text-anchor="middle" x="796" y="-421.545" font-family="FreeSans" font-size="10.00">InStation</text>
</a>
</g>
</g>
<!-- Node20&#45;&gt;Node22 -->
<g id="edge33" class="edge"><title>Node20&#45;&gt;Node22</title>
<path fill="none" stroke="midnightblue" d="M617.739,-179.166C632.413,-198.102 656.229,-229.173 676,-256.545 717.409,-313.875 764.397,-383.665 784.728,-414.106"/>
<polygon fill="midnightblue" stroke="midnightblue" points="620.407,-176.894 611.508,-171.145 614.879,-181.189 620.407,-176.894"/>
</g>
<!-- Node21&#45;&gt;Node9 -->
<g id="edge31" class="edge"><title>Node21&#45;&gt;Node9</title>
<path fill="none" stroke="midnightblue" d="M1011.04,-109.024C1047.71,-156.757 1130.05,-263.943 1160.44,-303.504"/>
<polygon fill="midnightblue" stroke="midnightblue" points="1013.61,-106.63 1004.74,-100.833 1008.06,-110.895 1013.61,-106.63"/>
</g>
<!-- Node22&#45;&gt;Node8 -->
<g id="edge34" class="edge"><title>Node22&#45;&gt;Node8</title>
<path fill="none" stroke="midnightblue" d="M860.114,-410.337C867.059,-407.182 873.838,-403.594 880,-399.545 923.718,-370.815 962.505,-321.542 980.447,-296.744"/>
<polygon fill="midnightblue" stroke="midnightblue" points="858.424,-407.252 850.582,-414.376 861.155,-413.697 858.424,-407.252"/>
</g>
<!-- Node22&#45;&gt;Node9 -->
<g id="edge35" class="edge"><title>Node22&#45;&gt;Node9</title>
<path fill="none" stroke="midnightblue" d="M857.968,-411.498C931.206,-389.82 1052.73,-353.848 1121.15,-333.597"/>
<polygon fill="midnightblue" stroke="midnightblue" points="856.56,-408.265 847.964,-414.459 858.547,-414.977 856.56,-408.265"/>
</g>
<!-- Node24 -->
<g id="node24" class="node"><title>Node24</title>
<g id="a_node24"><a xlink:href="../../d3/d46/classKalmanFastTracking.html#ae2301f2d29aa4ca6c8af4d91a43ba909" target="_top" xlink:title="KalmanFastTracking\l::muonID_search">
<polygon fill="none" stroke="black" points="378,-648.545 378,-678.545 484,-678.545 484,-648.545 378,-648.545"/>
<text text-anchor="start" x="386" y="-666.545" font-family="FreeSans" font-size="10.00">KalmanFastTracking</text>
<text text-anchor="middle" x="431" y="-655.545" font-family="FreeSans" font-size="10.00">::muonID_search</text>
</a>
</g>
</g>
<!-- Node23&#45;&gt;Node24 -->
<g id="edge39" class="edge"><title>Node23&#45;&gt;Node24</title>
<path fill="none" stroke="midnightblue" d="M312.036,-643.884C333.444,-647.452 357.195,-651.411 377.742,-654.835"/>
<polygon fill="midnightblue" stroke="midnightblue" points="312.503,-640.414 302.063,-642.222 311.352,-647.319 312.503,-640.414"/>
</g>
<!-- Node24&#45;&gt;Node15 -->
<g id="edge40" class="edge"><title>Node24&#45;&gt;Node15</title>
<path fill="none" stroke="midnightblue" d="M462.788,-685.001C474.156,-694.383 486.163,-706.28 494,-719.545 529.535,-779.689 484.808,-819.275 530,-872.545 535.431,-878.947 542.455,-884.008 549.981,-888.002"/>
<polygon fill="midnightblue" stroke="midnightblue" points="464.716,-682.064 454.692,-678.63 460.387,-687.565 464.716,-682.064"/>
</g>
<!-- Node26 -->
<g id="node26" class="node"><title>Node26</title>
<g id="a_node26"><a xlink:href="../../db/daa/classKalmanDSTrk.html#ad5e83ecd7c597cedf5dab19a73aeb1f5" target="_top" xlink:title="KalmanDSTrk::muonID\l_search">
<polygon fill="none" stroke="black" points="373,-146.545 373,-176.545 489,-176.545 489,-146.545 373,-146.545"/>
<text text-anchor="start" x="381" y="-164.545" font-family="FreeSans" font-size="10.00">KalmanDSTrk::muonID</text>
<text text-anchor="middle" x="431" y="-153.545" font-family="FreeSans" font-size="10.00">_search</text>
</a>
</g>
</g>
<!-- Node25&#45;&gt;Node26 -->
<g id="edge42" class="edge"><title>Node25&#45;&gt;Node26</title>
<path fill="none" stroke="midnightblue" d="M265.881,-304.697C286.554,-275.089 325.142,-224.48 368,-191.545 375.396,-185.862 384.04,-180.857 392.486,-176.644"/>
<polygon fill="midnightblue" stroke="midnightblue" points="262.837,-302.946 260.055,-313.169 268.605,-306.912 262.837,-302.946"/>
</g>
<!-- Node26&#45;&gt;Node20 -->
<g id="edge43" class="edge"><title>Node26&#45;&gt;Node20</title>
<path fill="none" stroke="midnightblue" d="M499.084,-161.545C509.228,-161.545 519.73,-161.545 529.974,-161.545"/>
<polygon fill="midnightblue" stroke="midnightblue" points="499.08,-158.045 489.08,-161.545 499.08,-165.045 499.08,-158.045"/>
</g>
<!-- Node27&#45;&gt;Node16 -->
<g id="edge45" class="edge"><title>Node27&#45;&gt;Node16</title>
<path fill="none" stroke="midnightblue" d="M461.018,-519.257C480.263,-527.956 506.253,-538.961 530,-546.545 681.91,-595.058 727.639,-578.465 880,-625.545 906.342,-633.684 935.273,-645.243 956.993,-654.47"/>
<polygon fill="midnightblue" stroke="midnightblue" points="462.434,-516.056 451.885,-515.073 459.519,-522.42 462.434,-516.056"/>
</g>
<!-- Node27&#45;&gt;Node3 -->
<g id="edge46" class="edge"><title>Node27&#45;&gt;Node3</title>
<path fill="none" stroke="midnightblue" d="M441.92,-524.201C455.114,-549.55 478.561,-596.536 494,-638.545 514.829,-695.219 486.757,-727.404 530,-769.545 587.251,-825.337 830.547,-836.707 938.752,-838.99"/>
<polygon fill="midnightblue" stroke="midnightblue" points="445,-522.537 437.251,-515.312 438.803,-525.793 445,-522.537"/>
</g>
<!-- Node28 -->
<g id="node28" class="node"><title>Node28</title>
<g id="a_node28"><a xlink:href="../../d3/d46/classKalmanFastTracking.html#a85b3cc71d34ec9adabb6956b0a279821" target="_top" xlink:title="KalmanFastTracking\l::resolveLeftRight">
<polygon fill="none" stroke="black" points="550,-364.545 550,-394.545 656,-394.545 656,-364.545 550,-364.545"/>
<text text-anchor="start" x="558" y="-382.545" font-family="FreeSans" font-size="10.00">KalmanFastTracking</text>
<text text-anchor="middle" x="603" y="-371.545" font-family="FreeSans" font-size="10.00">::resolveLeftRight</text>
</a>
</g>
</g>
<!-- Node27&#45;&gt;Node28 -->
<g id="edge47" class="edge"><title>Node27&#45;&gt;Node28</title>
<path fill="none" stroke="midnightblue" d="M446.16,-488.079C463.911,-467.108 496.142,-431.968 530,-409.545 538.694,-403.788 548.671,-398.78 558.374,-394.591"/>
<polygon fill="midnightblue" stroke="midnightblue" points="443.385,-485.942 439.682,-495.869 448.767,-490.418 443.385,-485.942"/>
</g>
<!-- Node29 -->
<g id="node29" class="node"><title>Node29</title>
<g id="a_node29"><a xlink:href="../../d3/d46/classKalmanFastTracking.html#ac550362b5ae3fca6231ae3f0e5259a62" target="_top" xlink:title="KalmanFastTracking\l::resolveSingleLeftRight">
<polygon fill="none" stroke="black" points="544.5,-730.545 544.5,-760.545 661.5,-760.545 661.5,-730.545 544.5,-730.545"/>
<text text-anchor="start" x="552.5" y="-748.545" font-family="FreeSans" font-size="10.00">KalmanFastTracking</text>
<text text-anchor="middle" x="603" y="-737.545" font-family="FreeSans" font-size="10.00">::resolveSingleLeftRight</text>
</a>
</g>
</g>
<!-- Node27&#45;&gt;Node29 -->
<g id="edge48" class="edge"><title>Node27&#45;&gt;Node29</title>
<path fill="none" stroke="midnightblue" d="M439.945,-524.688C454.592,-558.649 488.21,-630.741 530,-682.545 544.913,-701.031 565.631,-718.523 581.016,-730.362"/>
<polygon fill="midnightblue" stroke="midnightblue" points="442.995,-522.916 435.869,-515.075 436.55,-525.648 442.995,-522.916"/>
</g>
<!-- Node30 -->
<g id="node30" class="node"><title>Node30</title>
<g id="a_node30"><a xlink:href="../../d3/d46/classKalmanFastTracking.html#a1f8aefdf54827f85127e60787ac08053" target="_top" xlink:title="KalmanFastTracking\l::removeBadHits">
<polygon fill="none" stroke="black" points="743,-654.545 743,-684.545 849,-684.545 849,-654.545 743,-654.545"/>
<text text-anchor="start" x="751" y="-672.545" font-family="FreeSans" font-size="10.00">KalmanFastTracking</text>
<text text-anchor="middle" x="796" y="-661.545" font-family="FreeSans" font-size="10.00">::removeBadHits</text>
</a>
</g>
</g>
<!-- Node27&#45;&gt;Node30 -->
<g id="edge53" class="edge"><title>Node27&#45;&gt;Node30</title>
<path fill="none" stroke="midnightblue" d="M451.767,-521.979C464.234,-532.609 480.477,-546.953 494,-560.545 511.103,-577.736 509.336,-588.855 530,-601.545 548.138,-612.683 670.798,-641.562 742.716,-657.877"/>
<polygon fill="midnightblue" stroke="midnightblue" points="453.717,-519.045 443.818,-515.268 449.201,-524.393 453.717,-519.045"/>
</g>
<!-- Node27&#45;&gt;Node18 -->
<g id="edge54" class="edge"><title>Node27&#45;&gt;Node18</title>
<path fill="none" stroke="midnightblue" d="M442.461,-524.015C456.263,-549.155 480.392,-595.908 494,-638.545 520.928,-722.92 467.41,-771.88 530,-834.545 558.228,-862.807 666.693,-875.167 735.802,-880.265"/>
<polygon fill="midnightblue" stroke="midnightblue" points="445.481,-522.243 437.56,-515.206 439.364,-525.646 445.481,-522.243"/>
</g>
<!-- Node27&#45;&gt;Node21 -->
<g id="edge55" class="edge"><title>Node27&#45;&gt;Node21</title>
<path fill="none" stroke="midnightblue" d="M434.612,-485.727C444.058,-417.085 478.615,-191.039 530,-142.545 633.81,-44.5737 814.448,-54.8299 916.049,-70.4896"/>
<polygon fill="midnightblue" stroke="midnightblue" points="431.095,-485.617 433.226,-495.995 438.032,-486.553 431.095,-485.617"/>
</g>
<!-- Node27&#45;&gt;Node8 -->
<g id="edge56" class="edge"><title>Node27&#45;&gt;Node8</title>
<path fill="none" stroke="midnightblue" d="M454.11,-490.351C473.451,-477.583 502.65,-459.548 530,-447.545 592.058,-420.31 611.91,-425.577 676,-403.545 778.324,-368.369 896.773,-320.527 954.955,-296.547"/>
<polygon fill="midnightblue" stroke="midnightblue" points="452.072,-487.504 445.709,-495.976 455.966,-493.32 452.072,-487.504"/>
</g>
<!-- Node31 -->
<g id="node31" class="node"><title>Node31</title>
<g id="a_node31"><a xlink:href="../../db/daa/classKalmanDSTrk.html#aaeca9d42cf00a9eec5c106f44bab986c" target="_top" xlink:title="KalmanDSTrk::resolveLeft\lRight">
<polygon fill="none" stroke="black" points="539,-315.545 539,-345.545 667,-345.545 667,-315.545 539,-315.545"/>
<text text-anchor="start" x="547" y="-333.545" font-family="FreeSans" font-size="10.00">KalmanDSTrk::resolveLeft</text>
<text text-anchor="middle" x="603" y="-322.545" font-family="FreeSans" font-size="10.00">Right</text>
</a>
</g>
</g>
<!-- Node27&#45;&gt;Node31 -->
<g id="edge57" class="edge"><title>Node27&#45;&gt;Node31</title>
<path fill="none" stroke="midnightblue" d="M439.473,-486.278C452.832,-454.307 483.806,-390.28 530,-354.545 534.377,-351.159 539.256,-348.238 544.354,-345.72"/>
<polygon fill="midnightblue" stroke="midnightblue" points="436.125,-485.222 435.621,-495.805 442.614,-487.846 436.125,-485.222"/>
</g>
<!-- Node32 -->
<g id="node32" class="node"><title>Node32</title>
<g id="a_node32"><a xlink:href="../../db/daa/classKalmanDSTrk.html#a21fe29527e13bd2493781fc87c8c3a61" target="_top" xlink:title="KalmanDSTrk::resolveSingle\lLeftRight">
<polygon fill="none" stroke="black" points="533.5,-266.545 533.5,-296.545 672.5,-296.545 672.5,-266.545 533.5,-266.545"/>
<text text-anchor="start" x="541.5" y="-284.545" font-family="FreeSans" font-size="10.00">KalmanDSTrk::resolveSingle</text>
<text text-anchor="middle" x="603" y="-273.545" font-family="FreeSans" font-size="10.00">LeftRight</text>
</a>
</g>
</g>
<!-- Node27&#45;&gt;Node32 -->
<g id="edge58" class="edge"><title>Node27&#45;&gt;Node32</title>
<path fill="none" stroke="midnightblue" d="M436.209,-486.02C445.782,-446.261 472.917,-355.456 530,-305.545 533.968,-302.076 538.453,-299.105 543.198,-296.561"/>
<polygon fill="midnightblue" stroke="midnightblue" points="432.742,-485.48 433.92,-496.009 439.565,-487.043 432.742,-485.48"/>
</g>
<!-- Node33 -->
<g id="node33" class="node"><title>Node33</title>
<g id="a_node33"><a xlink:href="../../db/daa/classKalmanDSTrk.html#a3f6e88dab44e27eebd46211c27a144ec" target="_top" xlink:title="KalmanDSTrk::removeBadHits">
<polygon fill="none" stroke="black" points="722.5,-231.045 722.5,-250.045 869.5,-250.045 869.5,-231.045 722.5,-231.045"/>
<text text-anchor="middle" x="796" y="-238.045" font-family="FreeSans" font-size="10.00">KalmanDSTrk::removeBadHits</text>
</a>
</g>
</g>
<!-- Node27&#45;&gt;Node33 -->
<g id="edge63" class="edge"><title>Node27&#45;&gt;Node33</title>
<path fill="none" stroke="midnightblue" d="M432.988,-485.886C436.593,-437.45 453.264,-312.268 530,-256.545 596.944,-207.932 700.295,-219.625 756.085,-230.954"/>
<polygon fill="midnightblue" stroke="midnightblue" points="429.488,-485.779 432.349,-495.981 436.474,-486.222 429.488,-485.779"/>
</g>
<!-- Node27&#45;&gt;Node22 -->
<g id="edge64" class="edge"><title>Node27&#45;&gt;Node22</title>
<path fill="none" stroke="midnightblue" d="M477.225,-493.408C493.776,-489.125 512.688,-484.415 530,-480.545 595.726,-465.851 671.195,-451.578 724.742,-441.887"/>
<polygon fill="midnightblue" stroke="midnightblue" points="476.051,-490.097 467.259,-496.008 477.819,-496.87 476.051,-490.097"/>
</g>
<!-- Node34 -->
<g id="node34" class="node"><title>Node34</title>
<g id="a_node34"><a xlink:href="../../d2/d6b/classSQGenFit_1_1GFTrack.html#a11e6a9fba368ce5f8116ad4d660e4c52" target="_top" xlink:title="SQGenFit::GFTrack::\lprint">
<polygon fill="none" stroke="black" points="549.5,-490.545 549.5,-520.545 656.5,-520.545 656.5,-490.545 549.5,-490.545"/>
<text text-anchor="start" x="557.5" y="-508.545" font-family="FreeSans" font-size="10.00">SQGenFit::GFTrack::</text>
<text text-anchor="middle" x="603" y="-497.545" font-family="FreeSans" font-size="10.00">print</text>
</a>
</g>
</g>
<!-- Node27&#45;&gt;Node34 -->
<g id="edge65" class="edge"><title>Node27&#45;&gt;Node34</title>
<path fill="none" stroke="midnightblue" d="M478.921,-505.545C500.774,-505.545 526.86,-505.545 549.381,-505.545"/>
<polygon fill="midnightblue" stroke="midnightblue" points="478.888,-502.045 468.887,-505.545 478.887,-509.045 478.888,-502.045"/>
</g>
<!-- Node36 -->
<g id="node36" class="node"><title>Node36</title>
<g id="a_node36"><a xlink:href="../../db/d86/test__minimum_8cxx.html#a0ddf1224851353fc92bfbff6f499fa97" target="_top" xlink:title="main">
<polygon fill="none" stroke="black" points="777,-502.045 777,-521.045 815,-521.045 815,-502.045 777,-502.045"/>
<text text-anchor="middle" x="796" y="-509.045" font-family="FreeSans" font-size="10.00">main</text>
</a>
</g>
</g>
<!-- Node27&#45;&gt;Node36 -->
<g id="edge68" class="edge"><title>Node27&#45;&gt;Node36</title>
<path fill="none" stroke="midnightblue" d="M472.837,-517.87C490.272,-522.523 510.956,-527.247 530,-529.545 594.422,-537.318 611.294,-534.411 676,-529.545 712.046,-526.834 753.719,-519.567 776.952,-515.139"/>
<polygon fill="midnightblue" stroke="midnightblue" points="473.553,-514.437 462.983,-515.157 471.695,-521.186 473.553,-514.437"/>
</g>
<!-- Node29&#45;&gt;Node3 -->
<g id="edge49" class="edge"><title>Node29&#45;&gt;Node3</title>
<path fill="none" stroke="midnightblue" d="M655.104,-763.94C672.966,-770.006 693.242,-776.487 712,-781.545 790.219,-802.634 882.526,-820.475 938.894,-830.594"/>
<polygon fill="midnightblue" stroke="midnightblue" points="656.048,-760.564 645.454,-760.624 653.774,-767.184 656.048,-760.564"/>
</g>
<!-- Node29&#45;&gt;Node30 -->
<g id="edge50" class="edge"><title>Node29&#45;&gt;Node30</title>
<path fill="none" stroke="midnightblue" d="M649.943,-726.591C658.614,-722.96 667.596,-719.162 676,-715.545 692.082,-708.622 695.756,-706.08 712,-699.545 724.651,-694.455 738.537,-689.278 751.271,-684.69"/>
<polygon fill="midnightblue" stroke="midnightblue" points="648.579,-723.367 640.698,-730.449 651.275,-729.827 648.579,-723.367"/>
</g>
<!-- Node30&#45;&gt;Node16 -->
<g id="edge51" class="edge"><title>Node30&#45;&gt;Node16</title>
<path fill="none" stroke="midnightblue" d="M859.292,-669.545C882.422,-669.545 908.584,-669.545 931.462,-669.545"/>
<polygon fill="midnightblue" stroke="midnightblue" points="859.244,-666.045 849.244,-669.545 859.244,-673.045 859.244,-666.045"/>
</g>
<!-- Node30&#45;&gt;Node3 -->
<g id="edge52" class="edge"><title>Node30&#45;&gt;Node3</title>
<path fill="none" stroke="midnightblue" d="M826.842,-690.874C842.945,-702.709 862.957,-717.95 880,-732.545 916.189,-763.534 955.717,-803.159 976.444,-824.429"/>
<polygon fill="midnightblue" stroke="midnightblue" points="828.484,-687.74 818.342,-684.675 824.359,-693.396 828.484,-687.74"/>
</g>
<!-- Node32&#45;&gt;Node8 -->
<g id="edge59" class="edge"><title>Node32&#45;&gt;Node8</title>
<path fill="none" stroke="midnightblue" d="M683.108,-281.545C755.04,-281.545 859.876,-281.545 926.755,-281.545"/>
<polygon fill="midnightblue" stroke="midnightblue" points="682.742,-278.045 672.742,-281.545 682.742,-285.045 682.742,-278.045"/>
</g>
<!-- Node32&#45;&gt;Node33 -->
<g id="edge60" class="edge"><title>Node32&#45;&gt;Node33</title>
<path fill="none" stroke="midnightblue" d="M682.55,-264.683C705.803,-259.692 730.441,-254.403 750.71,-250.052"/>
<polygon fill="midnightblue" stroke="midnightblue" points="681.728,-261.28 672.686,-266.801 683.197,-268.124 681.728,-261.28"/>
</g>
<!-- Node33&#45;&gt;Node21 -->
<g id="edge61" class="edge"><title>Node33&#45;&gt;Node21</title>
<path fill="none" stroke="midnightblue" d="M817.34,-224.294C855.048,-194.166 935.295,-130.051 971.983,-100.739"/>
<polygon fill="midnightblue" stroke="midnightblue" points="814.763,-221.872 809.136,-230.849 819.133,-227.341 814.763,-221.872"/>
</g>
<!-- Node33&#45;&gt;Node8 -->
<g id="edge62" class="edge"><title>Node33&#45;&gt;Node8</title>
<path fill="none" stroke="midnightblue" d="M852.043,-252.178C875.318,-257.097 902.585,-262.859 926.771,-267.971"/>
<polygon fill="midnightblue" stroke="midnightblue" points="852.503,-248.698 841.995,-250.054 851.055,-255.546 852.503,-248.698"/>
</g>
<!-- Node35 -->
<g id="node35" class="node"><title>Node35</title>
<g id="a_node35"><a xlink:href="../../df/df2/classSQReco.html#a32bb088e7896b2ecdb5b9aa4df1f6a50" target="_top" xlink:title="SQReco::fitTrackCand">
<polygon fill="none" stroke="black" points="739.5,-464.045 739.5,-483.045 852.5,-483.045 852.5,-464.045 739.5,-464.045"/>
<text text-anchor="middle" x="796" y="-471.045" font-family="FreeSans" font-size="10.00">SQReco::fitTrackCand</text>
</a>
</g>
</g>
<!-- Node34&#45;&gt;Node35 -->
<g id="edge66" class="edge"><title>Node34&#45;&gt;Node35</title>
<path fill="none" stroke="midnightblue" d="M666.57,-495.062C690.087,-491.122 716.64,-486.673 739.473,-482.848"/>
<polygon fill="midnightblue" stroke="midnightblue" points="665.981,-491.612 656.697,-496.716 667.138,-498.515 665.981,-491.612"/>
</g>
<!-- Node34&#45;&gt;Node36 -->
<g id="edge67" class="edge"><title>Node34&#45;&gt;Node36</title>
<path fill="none" stroke="midnightblue" d="M666.768,-507.517C705.127,-508.722 751.501,-510.178 776.636,-510.968"/>
<polygon fill="midnightblue" stroke="midnightblue" points="666.802,-504.016 656.697,-507.2 666.582,-511.013 666.802,-504.016"/>
</g>
</g>
</svg>
