<?xml version="1.0" encoding="UTF-8" standalone="no"?>
<!DOCTYPE svg PUBLIC "-//W3C//DTD SVG 1.1//EN"
 "http://www.w3.org/Graphics/SVG/1.1/DTD/svg11.dtd">
<!-- Generated by graphviz version 2.44.0 (0)
 -->
<!-- Title: Tracklet::getXZInfoInSt1 Pages: 1 -->
<svg width="1502pt" height="935pt"
 viewBox="0.00 0.00 1502.00 934.50" xmlns="http://www.w3.org/2000/svg" xmlns:xlink="http://www.w3.org/1999/xlink">
<g id="graph0" class="graph" transform="scale(1 1) rotate(0) translate(4 930.5)">
<title>Tracklet::getXZInfoInSt1</title>
<!-- Node1 -->
<g id="node1" class="node">
<title>Node1</title>
<g id="a_node1"><a xlink:title=" ">
<polygon fill="#bfbfbf" stroke="black" points="1360,-263 1360,-282 1494,-282 1494,-263 1360,-263"/>
<text text-anchor="middle" x="1427" y="-270" font-family="FreeSans" font-size="10.00">Tracklet::getXZInfoInSt1</text>
</a>
</g>
</g>
<!-- Node2 -->
<g id="node2" class="node">
<title>Node2</title>
<g id="a_node2"><a xlink:href="../../d2/d26/classTracklet.html#af4572336b769b0e1f0b2d679887bab5d" target="_top" xlink:title=" ">
<polygon fill="none" stroke="black" points="1196,-475 1196,-494 1303,-494 1303,-475 1196,-475"/>
<text text-anchor="middle" x="1249.5" y="-482" font-family="FreeSans" font-size="10.00">Tracklet::calcChisq</text>
</a>
</g>
</g>
<!-- Node1&#45;&gt;Node2 -->
<g id="edge1" class="edge">
<title>Node1&#45;&gt;Node2</title>
<path fill="none" stroke="midnightblue" d="M1411.5,-290.02C1376.06,-332.83 1285.97,-441.66 1258.54,-474.78"/>
<polygon fill="midnightblue" stroke="midnightblue" points="1414.32,-292.1 1418,-282.16 1408.93,-287.63 1414.32,-292.1"/>
</g>
<!-- Node28 -->
<g id="node28" class="node">
<title>Node28</title>
<g id="a_node28"><a xlink:href="../../d3/d46/classKalmanFastTracking.html#a85b3cc71d34ec9adabb6956b0a279821" target="_top" xlink:title=" ">
<polygon fill="none" stroke="black" points="818,-98.5 818,-128.5 932,-128.5 932,-98.5 818,-98.5"/>
<text text-anchor="start" x="826" y="-116.5" font-family="FreeSans" font-size="10.00">KalmanFastTracking</text>
<text text-anchor="middle" x="875" y="-105.5" font-family="FreeSans" font-size="10.00">::resolveLeftRight</text>
</a>
</g>
</g>
<!-- Node1&#45;&gt;Node28 -->
<g id="edge64" class="edge">
<title>Node1&#45;&gt;Node28</title>
<path fill="none" stroke="midnightblue" d="M1383.09,-260.1C1283.38,-231.27 1036.31,-159.84 928.13,-128.57"/>
<polygon fill="midnightblue" stroke="midnightblue" points="1382.25,-263.5 1392.83,-262.91 1384.2,-256.77 1382.25,-263.5"/>
</g>
<!-- Node29 -->
<g id="node29" class="node">
<title>Node29</title>
<g id="a_node29"><a xlink:href="../../db/daa/classKalmanDSTrk.html#aaeca9d42cf00a9eec5c106f44bab986c" target="_top" xlink:title=" ">
<polygon fill="none" stroke="black" points="804,-0.5 804,-30.5 946,-30.5 946,-0.5 804,-0.5"/>
<text text-anchor="start" x="812" y="-18.5" font-family="FreeSans" font-size="10.00">KalmanDSTrk::resolveLeft</text>
<text text-anchor="middle" x="875" y="-7.5" font-family="FreeSans" font-size="10.00">Right</text>
</a>
</g>
</g>
<!-- Node1&#45;&gt;Node29 -->
<g id="edge65" class="edge">
<title>Node1&#45;&gt;Node29</title>
<path fill="none" stroke="midnightblue" d="M1405.07,-256.68C1384.65,-241.4 1352.59,-217.8 1324,-198.5 1243.57,-144.2 1228.21,-120.72 1139,-82.5 1076.2,-55.6 1000.17,-37.67 946.04,-27.19"/>
<polygon fill="midnightblue" stroke="midnightblue" points="1403.22,-259.67 1413.32,-262.87 1407.42,-254.07 1403.22,-259.67"/>
</g>
<!-- Node32 -->
<g id="node32" class="node">
<title>Node32</title>
<g id="a_node32"><a xlink:href="../../d2/d26/classTracklet.html#a258c7dfdeebe6f7508ca0884b208feff" target="_top" xlink:title=" ">
<polygon fill="none" stroke="black" points="1175,-263 1175,-282 1324,-282 1324,-263 1175,-263"/>
<text text-anchor="middle" x="1249.5" y="-270" font-family="FreeSans" font-size="10.00">Tracklet::getMomentumSt1</text>
</a>
</g>
</g>
<!-- Node1&#45;&gt;Node32 -->
<g id="edge50" class="edge">
<title>Node1&#45;&gt;Node32</title>
<path fill="none" stroke="midnightblue" d="M1349.52,-272.5C1341.15,-272.5 1332.63,-272.5 1324.29,-272.5"/>
<polygon fill="midnightblue" stroke="midnightblue" points="1349.65,-276 1359.65,-272.5 1349.65,-269 1349.65,-276"/>
</g>
<!-- Node36 -->
<g id="node36" class="node">
<title>Node36</title>
<g id="a_node36"><a xlink:href="../../d2/d26/classTracklet.html#aa0ca7e43f4d1359b0068c35299a70db5" target="_top" xlink:title=" ">
<polygon fill="none" stroke="black" points="812,-639 812,-658 938,-658 938,-639 812,-639"/>
<text text-anchor="middle" x="875" y="-646" font-family="FreeSans" font-size="10.00">Tracklet::getSRecTrack</text>
</a>
</g>
</g>
<!-- Node1&#45;&gt;Node36 -->
<g id="edge57" class="edge">
<title>Node1&#45;&gt;Node36</title>
<path fill="none" stroke="midnightblue" d="M1422.9,-292.03C1414.88,-336.23 1389.28,-444.61 1324,-503.5 1213.22,-603.44 1032.71,-634.58 938.19,-644.22"/>
<polygon fill="midnightblue" stroke="midnightblue" points="1426.38,-292.47 1424.62,-282.03 1419.48,-291.29 1426.38,-292.47"/>
</g>
<!-- Node3 -->
<g id="node3" class="node">
<title>Node3</title>
<g id="a_node3"><a xlink:href="../../d2/d26/classTracklet.html#a476e4e0cd1490e5ed9f20fd5e1adc0d9" target="_top" xlink:title=" ">
<polygon fill="none" stroke="black" points="1022.5,-871 1022.5,-890 1104.5,-890 1104.5,-871 1022.5,-871"/>
<text text-anchor="middle" x="1063.5" y="-878" font-family="FreeSans" font-size="10.00">Tracklet::Eval</text>
</a>
</g>
</g>
<!-- Node2&#45;&gt;Node3 -->
<g id="edge2" class="edge">
<title>Node2&#45;&gt;Node3</title>
<path fill="none" stroke="midnightblue" d="M1245.94,-504.1C1238.09,-558.35 1210.39,-713.41 1139,-818.5 1123.59,-841.19 1097.6,-860.12 1080.75,-870.88"/>
<polygon fill="midnightblue" stroke="midnightblue" points="1249.42,-504.49 1247.32,-494.11 1242.48,-503.53 1249.42,-504.49"/>
</g>
<!-- Node6 -->
<g id="node6" class="node">
<title>Node6</title>
<g id="a_node6"><a xlink:href="../../d2/d26/classTracklet.html#a5fd7cf0057f0ede1d41e8472e665cf42" target="_top" xlink:title=" ">
<polygon fill="none" stroke="black" points="1019.5,-437 1019.5,-456 1107.5,-456 1107.5,-437 1019.5,-437"/>
<text text-anchor="middle" x="1063.5" y="-444" font-family="FreeSans" font-size="10.00">Tracklet::Eval4</text>
</a>
</g>
</g>
<!-- Node2&#45;&gt;Node6 -->
<g id="edge5" class="edge">
<title>Node2&#45;&gt;Node6</title>
<path fill="none" stroke="midnightblue" d="M1191.94,-472.82C1164.84,-467.22 1132.89,-460.62 1107.76,-455.43"/>
<polygon fill="midnightblue" stroke="midnightblue" points="1191.57,-476.32 1202.07,-474.91 1192.98,-469.46 1191.57,-476.32"/>
</g>
<!-- Node7 -->
<g id="node7" class="node">
<title>Node7</title>
<g id="a_node7"><a xlink:href="../../d2/d26/classTracklet.html#aee5b5f15d7f0485b9bb3897defcea876" target="_top" xlink:title=" ">
<polygon fill="none" stroke="black" points="624.5,-469 624.5,-488 716.5,-488 716.5,-469 624.5,-469"/>
<text text-anchor="middle" x="670.5" y="-476" font-family="FreeSans" font-size="10.00">Tracklet::merge</text>
</a>
</g>
</g>
<!-- Node2&#45;&gt;Node7 -->
<g id="edge6" class="edge">
<title>Node2&#45;&gt;Node7</title>
<path fill="none" stroke="midnightblue" d="M1226.62,-499.95C1205.38,-513.93 1171.64,-533.51 1139,-541.5 1073.81,-557.45 1054.79,-548.08 988,-541.5 961.31,-538.87 797.44,-504.92 716.57,-487.98"/>
<polygon fill="midnightblue" stroke="midnightblue" points="1228.86,-502.66 1235.19,-494.16 1224.94,-496.86 1228.86,-502.66"/>
</g>
<!-- Node15 -->
<g id="node15" class="node">
<title>Node15</title>
<g id="a_node15"><a xlink:href="../../d2/d26/classTracklet.html#a6220b2f88fe4c76c3726daa1634e49a9" target="_top" xlink:title=" ">
<polygon fill="none" stroke="black" points="1010,-513 1010,-532 1117,-532 1117,-513 1010,-513"/>
<text text-anchor="middle" x="1063.5" y="-520" font-family="FreeSans" font-size="10.00">Tracklet::operator*</text>
</a>
</g>
</g>
<!-- Node2&#45;&gt;Node15 -->
<g id="edge14" class="edge">
<title>Node2&#45;&gt;Node15</title>
<path fill="none" stroke="midnightblue" d="M1191.94,-496.18C1165.85,-501.57 1135.26,-507.89 1110.6,-512.98"/>
<polygon fill="midnightblue" stroke="midnightblue" points="1192.98,-499.54 1202.07,-494.09 1191.57,-492.68 1192.98,-499.54"/>
</g>
<!-- Node16 -->
<g id="node16" class="node">
<title>Node16</title>
<g id="a_node16"><a xlink:href="../../d2/d26/classTracklet.html#ad34c0ec9a434b7728d8e838370c0e22e" target="_top" xlink:title=" ">
<polygon fill="none" stroke="black" points="1008.5,-475 1008.5,-494 1118.5,-494 1118.5,-475 1008.5,-475"/>
<text text-anchor="middle" x="1063.5" y="-482" font-family="FreeSans" font-size="10.00">Tracklet::operator+</text>
</a>
</g>
</g>
<!-- Node2&#45;&gt;Node16 -->
<g id="edge15" class="edge">
<title>Node2&#45;&gt;Node16</title>
<path fill="none" stroke="midnightblue" d="M1185.61,-484.5C1163.8,-484.5 1139.55,-484.5 1118.51,-484.5"/>
<polygon fill="midnightblue" stroke="midnightblue" points="1185.77,-488 1195.77,-484.5 1185.77,-481 1185.77,-488"/>
</g>
<!-- Node17 -->
<g id="node17" class="node">
<title>Node17</title>
<g id="a_node17"><a xlink:href="../../d2/d26/classTracklet.html#ae35d72a1a17879f996f97a31df948db4" target="_top" xlink:title=" ">
<polygon fill="none" stroke="black" points="1022,-371 1022,-390 1105,-390 1105,-371 1022,-371"/>
<text text-anchor="middle" x="1063.5" y="-378" font-family="FreeSans" font-size="10.00">Tracklet::print</text>
</a>
</g>
</g>
<!-- Node2&#45;&gt;Node17 -->
<g id="edge16" class="edge">
<title>Node2&#45;&gt;Node17</title>
<path fill="none" stroke="midnightblue" d="M1222.52,-469.82C1184.24,-448.18 1113.72,-408.32 1081.44,-390.07"/>
<polygon fill="midnightblue" stroke="midnightblue" points="1221.09,-473.03 1231.52,-474.9 1224.54,-466.93 1221.09,-473.03"/>
</g>
<!-- Node26 -->
<g id="node26" class="node">
<title>Node26</title>
<g id="a_node26"><a xlink:href="../../d3/d46/classKalmanFastTracking.html#a1f8aefdf54827f85127e60787ac08053" target="_top" xlink:title=" ">
<polygon fill="none" stroke="black" points="613.5,-721.5 613.5,-751.5 727.5,-751.5 727.5,-721.5 613.5,-721.5"/>
<text text-anchor="start" x="621.5" y="-739.5" font-family="FreeSans" font-size="10.00">KalmanFastTracking</text>
<text text-anchor="middle" x="670.5" y="-728.5" font-family="FreeSans" font-size="10.00">::removeBadHits</text>
</a>
</g>
</g>
<!-- Node2&#45;&gt;Node26 -->
<g id="edge48" class="edge">
<title>Node2&#45;&gt;Node26</title>
<path fill="none" stroke="midnightblue" d="M1235.71,-502.42C1198.72,-552.45 1085.74,-693.31 952,-743.5 878.23,-771.18 785.7,-761.09 727.57,-749.9"/>
<polygon fill="midnightblue" stroke="midnightblue" points="1238.65,-504.31 1241.72,-494.17 1233,-500.19 1238.65,-504.31"/>
</g>
<!-- Node27 -->
<g id="node27" class="node">
<title>Node27</title>
<g id="a_node27"><a xlink:href="../../db/daa/classKalmanDSTrk.html#a3f6e88dab44e27eebd46211c27a144ec" target="_top" xlink:title=" ">
<polygon fill="none" stroke="black" points="588.5,-305 588.5,-324 752.5,-324 752.5,-305 588.5,-305"/>
<text text-anchor="middle" x="670.5" y="-312" font-family="FreeSans" font-size="10.00">KalmanDSTrk::removeBadHits</text>
</a>
</g>
</g>
<!-- Node2&#45;&gt;Node27 -->
<g id="edge49" class="edge">
<title>Node2&#45;&gt;Node27</title>
<path fill="none" stroke="midnightblue" d="M1237.92,-466.1C1220.92,-438.4 1184.75,-386.57 1139,-361.5 1013.99,-293 841.81,-296.12 745.11,-305"/>
<polygon fill="midnightblue" stroke="midnightblue" points="1234.98,-468.01 1243.11,-474.81 1240.99,-464.43 1234.98,-468.01"/>
</g>
<!-- Node4 -->
<g id="node4" class="node">
<title>Node4</title>
<g id="a_node4"><a xlink:href="../../db/daa/classKalmanDSTrk.html#a2fb58f43f56bcfd897927d4b4464e390" target="_top" xlink:title=" ">
<polygon fill="none" stroke="black" points="798.5,-907 798.5,-926 951.5,-926 951.5,-907 798.5,-907"/>
<text text-anchor="middle" x="875" y="-914" font-family="FreeSans" font-size="10.00">KalmanDSTrk::KalmanDSTrk</text>
</a>
</g>
</g>
<!-- Node3&#45;&gt;Node4 -->
<g id="edge3" class="edge">
<title>Node3&#45;&gt;Node4</title>
<path fill="none" stroke="midnightblue" d="M1012.46,-890.16C985.42,-895.38 952.15,-901.8 925.24,-907"/>
<polygon fill="midnightblue" stroke="midnightblue" points="1013.34,-893.55 1022.49,-888.22 1012.01,-886.68 1013.34,-893.55"/>
</g>
<!-- Node5 -->
<g id="node5" class="node">
<title>Node5</title>
<g id="a_node5"><a xlink:href="../../d3/d46/classKalmanFastTracking.html#a1f0655a7ab5073c08fe0bfa15930dc8c" target="_top" xlink:title=" ">
<polygon fill="none" stroke="black" points="815,-857.5 815,-887.5 935,-887.5 935,-857.5 815,-857.5"/>
<text text-anchor="start" x="823" y="-875.5" font-family="FreeSans" font-size="10.00">KalmanFastTracking</text>
<text text-anchor="middle" x="875" y="-864.5" font-family="FreeSans" font-size="10.00">::KalmanFastTracking</text>
</a>
</g>
</g>
<!-- Node3&#45;&gt;Node5 -->
<g id="edge4" class="edge">
<title>Node3&#45;&gt;Node5</title>
<path fill="none" stroke="midnightblue" d="M1012.27,-878.35C988.48,-877.32 959.9,-876.1 935.07,-875.03"/>
<polygon fill="midnightblue" stroke="midnightblue" points="1012.35,-881.85 1022.49,-878.78 1012.65,-874.86 1012.35,-881.85"/>
</g>
<!-- Node8 -->
<g id="node8" class="node">
<title>Node8</title>
<g id="a_node8"><a xlink:href="../../d3/d46/classKalmanFastTracking.html#a53c93bc5e58b3560d1cfb42e84bbe95c" target="_top" xlink:title=" ">
<polygon fill="none" stroke="black" points="402.5,-589.5 402.5,-619.5 516.5,-619.5 516.5,-589.5 402.5,-589.5"/>
<text text-anchor="start" x="410.5" y="-607.5" font-family="FreeSans" font-size="10.00">KalmanFastTracking</text>
<text text-anchor="middle" x="459.5" y="-596.5" font-family="FreeSans" font-size="10.00">::buildGlobalTracks</text>
</a>
</g>
</g>
<!-- Node7&#45;&gt;Node8 -->
<g id="edge7" class="edge">
<title>Node7&#45;&gt;Node8</title>
<path fill="none" stroke="midnightblue" d="M614.22,-485.29C602.2,-488.07 589.84,-491.98 579,-497.5 533.54,-520.63 492.21,-565.79 472.56,-589.36"/>
<polygon fill="midnightblue" stroke="midnightblue" points="615.12,-488.68 624.19,-483.21 613.69,-481.82 615.12,-488.68"/>
</g>
<!-- Node12 -->
<g id="node12" class="node">
<title>Node12</title>
<g id="a_node12"><a xlink:href="../../db/daa/classKalmanDSTrk.html#adf4981f081f2606bf3412851eaa62eb0" target="_top" xlink:title=" ">
<polygon fill="none" stroke="black" points="388,-387.5 388,-417.5 531,-417.5 531,-387.5 388,-387.5"/>
<text text-anchor="start" x="396" y="-405.5" font-family="FreeSans" font-size="10.00">KalmanDSTrk::buildGlobal</text>
<text text-anchor="middle" x="459.5" y="-394.5" font-family="FreeSans" font-size="10.00">Tracks</text>
</a>
</g>
</g>
<!-- Node7&#45;&gt;Node12 -->
<g id="edge11" class="edge">
<title>Node7&#45;&gt;Node12</title>
<path fill="none" stroke="midnightblue" d="M618.38,-466.42C605.42,-462.95 591.59,-458.9 579,-454.5 548.46,-443.82 514.78,-428.7 491.16,-417.52"/>
<polygon fill="midnightblue" stroke="midnightblue" points="617.54,-469.81 628.1,-468.95 619.3,-463.04 617.54,-469.81"/>
</g>
<!-- Node9 -->
<g id="node9" class="node">
<title>Node9</title>
<g id="a_node9"><a xlink:href="../../d3/d46/classKalmanFastTracking.html#ada493cf8d995c42b9e78a53b891ce72b" target="_top" xlink:title=" ">
<polygon fill="none" stroke="black" points="207,-611.5 207,-641.5 321,-641.5 321,-611.5 207,-611.5"/>
<text text-anchor="start" x="215" y="-629.5" font-family="FreeSans" font-size="10.00">KalmanFastTracking</text>
<text text-anchor="middle" x="264" y="-618.5" font-family="FreeSans" font-size="10.00">::setRawEvent</text>
</a>
</g>
</g>
<!-- Node8&#45;&gt;Node9 -->
<g id="edge8" class="edge">
<title>Node8&#45;&gt;Node9</title>
<path fill="none" stroke="midnightblue" d="M392.18,-612.04C369.02,-614.67 343.27,-617.6 321.03,-620.13"/>
<polygon fill="midnightblue" stroke="midnightblue" points="392.73,-615.5 402.27,-610.89 391.94,-608.55 392.73,-615.5"/>
</g>
<!-- Node10 -->
<g id="node10" class="node">
<title>Node10</title>
<g id="a_node10"><a xlink:href="../../df/df2/classSQReco.html#a4d308ea90b8cd7c24a235f32debd6ddb" target="_top" xlink:title=" ">
<polygon fill="none" stroke="black" points="10.5,-639 10.5,-658 141.5,-658 141.5,-639 10.5,-639"/>
<text text-anchor="middle" x="76" y="-646" font-family="FreeSans" font-size="10.00">SQReco::process_event</text>
</a>
</g>
</g>
<!-- Node9&#45;&gt;Node10 -->
<g id="edge9" class="edge">
<title>Node9&#45;&gt;Node10</title>
<path fill="none" stroke="midnightblue" d="M196.87,-634.32C178.96,-636.44 159.6,-638.73 141.76,-640.84"/>
<polygon fill="midnightblue" stroke="midnightblue" points="197.42,-637.78 206.94,-633.13 196.6,-630.83 197.42,-637.78"/>
</g>
<!-- Node11 -->
<g id="node11" class="node">
<title>Node11</title>
<g id="a_node11"><a xlink:href="../../dd/d62/classSQTrackletReco.html#a8da2377e83fb17bc8189b89175833872" target="_top" xlink:title=" ">
<polygon fill="none" stroke="black" points="8,-589.5 8,-619.5 144,-619.5 144,-589.5 8,-589.5"/>
<text text-anchor="start" x="16" y="-607.5" font-family="FreeSans" font-size="10.00">SQTrackletReco::process</text>
<text text-anchor="middle" x="76" y="-596.5" font-family="FreeSans" font-size="10.00">_event</text>
</a>
</g>
</g>
<!-- Node9&#45;&gt;Node11 -->
<g id="edge10" class="edge">
<title>Node9&#45;&gt;Node11</title>
<path fill="none" stroke="midnightblue" d="M197.01,-618.69C179.84,-616.66 161.32,-614.47 144.09,-612.44"/>
<polygon fill="midnightblue" stroke="midnightblue" points="196.6,-622.17 206.94,-619.87 197.42,-615.22 196.6,-622.17"/>
</g>
<!-- Node13 -->
<g id="node13" class="node">
<title>Node13</title>
<g id="a_node13"><a xlink:href="../../db/daa/classKalmanDSTrk.html#a58ceb0cdcf685588b2a543d7a9c2bf9d" target="_top" xlink:title=" ">
<polygon fill="none" stroke="black" points="188,-365.5 188,-395.5 340,-395.5 340,-365.5 188,-365.5"/>
<text text-anchor="start" x="196" y="-383.5" font-family="FreeSans" font-size="10.00">KalmanDSTrk::setRawEvent</text>
<text text-anchor="middle" x="264" y="-372.5" font-family="FreeSans" font-size="10.00">Worker</text>
</a>
</g>
</g>
<!-- Node12&#45;&gt;Node13 -->
<g id="edge12" class="edge">
<title>Node12&#45;&gt;Node13</title>
<path fill="none" stroke="midnightblue" d="M377.87,-393.33C365.34,-391.91 352.44,-390.44 340.05,-389.03"/>
<polygon fill="midnightblue" stroke="midnightblue" points="377.49,-396.81 387.82,-394.46 378.28,-389.86 377.49,-396.81"/>
</g>
<!-- Node14 -->
<g id="node14" class="node">
<title>Node14</title>
<g id="a_node14"><a xlink:href="../../db/daa/classKalmanDSTrk.html#a67f1b61fbc3fbba52e10f4b06d4f8794" target="_top" xlink:title=" ">
<polygon fill="none" stroke="black" points="0,-371 0,-390 152,-390 152,-371 0,-371"/>
<text text-anchor="middle" x="76" y="-378" font-family="FreeSans" font-size="10.00">KalmanDSTrk::setRawEvent</text>
</a>
</g>
</g>
<!-- Node13&#45;&gt;Node14 -->
<g id="edge13" class="edge">
<title>Node13&#45;&gt;Node14</title>
<path fill="none" stroke="midnightblue" d="M177.85,-380.5C169.26,-380.5 160.57,-380.5 152.1,-380.5"/>
<polygon fill="midnightblue" stroke="midnightblue" points="177.88,-384 187.88,-380.5 177.88,-377 177.88,-384"/>
</g>
<!-- Node17&#45;&gt;Node8 -->
<g id="edge22" class="edge">
<title>Node17&#45;&gt;Node8</title>
<path fill="none" stroke="midnightblue" d="M1031.32,-394.9C1016.7,-402.87 999.91,-413.92 988,-427.5 962.82,-456.2 979.45,-478.96 952,-505.5 886.12,-569.18 851.2,-564.55 762,-585.5 678.14,-605.2 577.77,-607.44 516.61,-606.52"/>
<polygon fill="midnightblue" stroke="midnightblue" points="1033.27,-397.82 1040.54,-390.11 1030.05,-391.61 1033.27,-397.82"/>
</g>
<!-- Node17&#45;&gt;Node12 -->
<g id="edge23" class="edge">
<title>Node17&#45;&gt;Node12</title>
<path fill="none" stroke="midnightblue" d="M1037.04,-394.83C1015.24,-406.23 982.61,-421.26 952,-427.5 804.66,-457.53 627.6,-434.45 531.33,-417.1"/>
<polygon fill="midnightblue" stroke="midnightblue" points="1038.8,-397.85 1045.96,-390.05 1035.5,-391.68 1038.8,-397.85"/>
</g>
<!-- Node18 -->
<g id="node18" class="node">
<title>Node18</title>
<g id="a_node18"><a xlink:href="../../d3/d46/classKalmanFastTracking.html#a53e313d5cd40faa789fbe1dbe716f192" target="_top" xlink:title=" ">
<polygon fill="none" stroke="black" points="393.5,-721.5 393.5,-751.5 525.5,-751.5 525.5,-721.5 393.5,-721.5"/>
<text text-anchor="start" x="401.5" y="-739.5" font-family="FreeSans" font-size="10.00">KalmanFastTracking</text>
<text text-anchor="middle" x="459.5" y="-728.5" font-family="FreeSans" font-size="10.00">::buildBackPartialTracks</text>
</a>
</g>
</g>
<!-- Node17&#45;&gt;Node18 -->
<g id="edge17" class="edge">
<title>Node17&#45;&gt;Node18</title>
<path fill="none" stroke="midnightblue" d="M1027.1,-394.54C1012.61,-402.11 997.14,-412.95 988,-427.5 950.42,-487.35 1002.45,-694 952,-743.5 826.82,-866.32 585.9,-787.45 495.72,-751.55"/>
<polygon fill="midnightblue" stroke="midnightblue" points="1028.93,-397.54 1036.39,-390.02 1025.87,-391.24 1028.93,-397.54"/>
</g>
<!-- Node20 -->
<g id="node20" class="node">
<title>Node20</title>
<g id="a_node20"><a xlink:href="../../db/daa/classKalmanDSTrk.html#a1d246a6aacb8828783f887e82bb74cd1" target="_top" xlink:title=" ">
<polygon fill="none" stroke="black" points="376,-299.5 376,-329.5 543,-329.5 543,-299.5 376,-299.5"/>
<text text-anchor="start" x="384" y="-317.5" font-family="FreeSans" font-size="10.00">KalmanDSTrk::buildBackPartial</text>
<text text-anchor="middle" x="459.5" y="-306.5" font-family="FreeSans" font-size="10.00">Tracks</text>
</a>
</g>
</g>
<!-- Node17&#45;&gt;Node20 -->
<g id="edge20" class="edge">
<title>Node17&#45;&gt;Node20</title>
<path fill="none" stroke="midnightblue" d="M1035.18,-366.26C1013.23,-355.35 981.32,-340.64 952,-331.5 793.01,-281.91 745.02,-282.27 579,-295.5 567.37,-296.43 555.16,-297.86 543.17,-299.53"/>
<polygon fill="midnightblue" stroke="midnightblue" points="1033.73,-369.45 1044.24,-370.83 1036.89,-363.2 1033.73,-369.45"/>
</g>
<!-- Node21 -->
<g id="node21" class="node">
<title>Node21</title>
<g id="a_node21"><a xlink:href="../../db/daa/classKalmanDSTrk.html#ab77ac8dc274c5df2658d12c96494d29e" target="_top" xlink:title="Tracklet finding stuff.">
<polygon fill="none" stroke="black" points="593,-343.5 593,-373.5 748,-373.5 748,-343.5 593,-343.5"/>
<text text-anchor="start" x="601" y="-361.5" font-family="FreeSans" font-size="10.00">KalmanDSTrk::buildTracklets</text>
<text text-anchor="middle" x="670.5" y="-350.5" font-family="FreeSans" font-size="10.00">InStation</text>
</a>
</g>
</g>
<!-- Node17&#45;&gt;Node21 -->
<g id="edge24" class="edge">
<title>Node17&#45;&gt;Node21</title>
<path fill="none" stroke="midnightblue" d="M1011.46,-377.63C944.45,-373.86 826.2,-367.2 748.34,-362.82"/>
<polygon fill="midnightblue" stroke="midnightblue" points="1011.58,-381.14 1021.76,-378.21 1011.98,-374.15 1011.58,-381.14"/>
</g>
<!-- Node22 -->
<g id="node22" class="node">
<title>Node22</title>
<g id="a_node22"><a xlink:href="../../d3/d46/classKalmanFastTracking.html#a4aab1bd454f44de3a3ed2569efeca4b7" target="_top" xlink:title="Tracklet finding stuff.">
<polygon fill="none" stroke="black" points="603.5,-545.5 603.5,-575.5 737.5,-575.5 737.5,-545.5 603.5,-545.5"/>
<text text-anchor="start" x="611.5" y="-563.5" font-family="FreeSans" font-size="10.00">KalmanFastTracking</text>
<text text-anchor="middle" x="670.5" y="-552.5" font-family="FreeSans" font-size="10.00">::buildTrackletsInStation</text>
</a>
</g>
</g>
<!-- Node17&#45;&gt;Node22 -->
<g id="edge27" class="edge">
<title>Node17&#45;&gt;Node22</title>
<path fill="none" stroke="midnightblue" d="M1036.34,-395.43C1021.69,-404.17 1003.35,-415.77 988,-427.5 970.75,-440.68 970.4,-448.99 952,-460.5 875.03,-508.64 848.1,-506.71 762,-535.5 751.64,-538.96 740.51,-542.33 729.71,-545.4"/>
<polygon fill="midnightblue" stroke="midnightblue" points="1038.51,-398.22 1045.36,-390.13 1034.96,-392.18 1038.51,-398.22"/>
</g>
<!-- Node23 -->
<g id="node23" class="node">
<title>Node23</title>
<g id="a_node23"><a xlink:href="../../db/d86/test__minimum_8cxx.html#a0ddf1224851353fc92bfbff6f499fa97" target="_top" xlink:title=" ">
<polygon fill="none" stroke="black" points="650,-153 650,-172 691,-172 691,-153 650,-153"/>
<text text-anchor="middle" x="670.5" y="-160" font-family="FreeSans" font-size="10.00">main</text>
</a>
</g>
</g>
<!-- Node17&#45;&gt;Node23 -->
<g id="edge30" class="edge">
<title>Node17&#45;&gt;Node23</title>
<path fill="none" stroke="midnightblue" d="M1049.08,-362.71C1029.94,-338.43 992.58,-294.9 952,-268.5 863.41,-210.87 738.94,-177.99 691.2,-166.84"/>
<polygon fill="midnightblue" stroke="midnightblue" points="1046.39,-364.96 1055.28,-370.72 1051.93,-360.67 1046.39,-364.96"/>
</g>
<!-- Node24 -->
<g id="node24" class="node">
<title>Node24</title>
<g id="a_node24"><a xlink:href="../../d2/d6b/classSQGenFit_1_1GFTrack.html#a11e6a9fba368ce5f8116ad4d660e4c52" target="_top" xlink:title=" ">
<polygon fill="none" stroke="black" points="819,-147.5 819,-177.5 931,-177.5 931,-147.5 819,-147.5"/>
<text text-anchor="start" x="827" y="-165.5" font-family="FreeSans" font-size="10.00">SQGenFit::GFTrack::</text>
<text text-anchor="middle" x="875" y="-154.5" font-family="FreeSans" font-size="10.00">print</text>
</a>
</g>
</g>
<!-- Node17&#45;&gt;Node24 -->
<g id="edge31" class="edge">
<title>Node17&#45;&gt;Node24</title>
<path fill="none" stroke="midnightblue" d="M1050.75,-362.11C1031.68,-332.87 992.08,-274.58 952,-230.5 934.13,-210.85 911.11,-190.88 895.11,-177.71"/>
<polygon fill="midnightblue" stroke="midnightblue" points="1048.03,-364.36 1056.4,-370.85 1053.91,-360.56 1048.03,-364.36"/>
</g>
<!-- Node17&#45;&gt;Node26 -->
<g id="edge34" class="edge">
<title>Node17&#45;&gt;Node26</title>
<path fill="none" stroke="midnightblue" d="M1027.17,-394.58C1012.69,-402.16 997.21,-412.99 988,-427.5 953.19,-482.32 999.18,-672.88 952,-717.5 920.84,-746.97 800.26,-744.93 727.72,-740.76"/>
<polygon fill="midnightblue" stroke="midnightblue" points="1028.99,-397.58 1036.45,-390.06 1025.93,-391.29 1028.99,-397.58"/>
</g>
<!-- Node17&#45;&gt;Node27 -->
<g id="edge37" class="edge">
<title>Node17&#45;&gt;Node27</title>
<path fill="none" stroke="midnightblue" d="M1011.98,-371.77C993.15,-368.52 971.6,-364.83 952,-361.5 874.72,-348.38 785.42,-333.46 728.73,-324.02"/>
<polygon fill="midnightblue" stroke="midnightblue" points="1011.39,-375.22 1021.84,-373.47 1012.58,-368.32 1011.39,-375.22"/>
</g>
<!-- Node17&#45;&gt;Node28 -->
<g id="edge40" class="edge">
<title>Node17&#45;&gt;Node28</title>
<path fill="none" stroke="midnightblue" d="M1059.02,-360.63C1049.95,-314.74 1021.31,-200.54 952,-138.5 946.2,-133.31 939.31,-129.2 932.07,-125.94"/>
<polygon fill="midnightblue" stroke="midnightblue" points="1055.59,-361.34 1060.88,-370.53 1062.47,-360.05 1055.59,-361.34"/>
</g>
<!-- Node17&#45;&gt;Node29 -->
<g id="edge41" class="edge">
<title>Node17&#45;&gt;Node29</title>
<path fill="none" stroke="midnightblue" d="M1057.24,-360.75C1038.65,-291.6 975.95,-63.27 952,-39.5 948.56,-36.09 944.64,-33.16 940.44,-30.65"/>
<polygon fill="midnightblue" stroke="midnightblue" points="1053.95,-362 1059.92,-370.76 1060.71,-360.19 1053.95,-362"/>
</g>
<!-- Node30 -->
<g id="node30" class="node">
<title>Node30</title>
<g id="a_node30"><a xlink:href="../../d3/d46/classKalmanFastTracking.html#ac550362b5ae3fca6231ae3f0e5259a62" target="_top" xlink:title=" ">
<polygon fill="none" stroke="black" points="809,-677.5 809,-707.5 941,-707.5 941,-677.5 809,-677.5"/>
<text text-anchor="start" x="817" y="-695.5" font-family="FreeSans" font-size="10.00">KalmanFastTracking</text>
<text text-anchor="middle" x="875" y="-684.5" font-family="FreeSans" font-size="10.00">::resolveSingleLeftRight</text>
</a>
</g>
</g>
<!-- Node17&#45;&gt;Node30 -->
<g id="edge42" class="edge">
<title>Node17&#45;&gt;Node30</title>
<path fill="none" stroke="midnightblue" d="M1027.34,-394.69C1012.9,-402.3 997.4,-413.11 988,-427.5 929.03,-517.81 1021.56,-585.07 952,-667.5 948.78,-671.32 944.95,-674.56 940.77,-677.31"/>
<polygon fill="midnightblue" stroke="midnightblue" points="1029.16,-397.7 1036.6,-390.15 1026.08,-391.41 1029.16,-397.7"/>
</g>
<!-- Node31 -->
<g id="node31" class="node">
<title>Node31</title>
<g id="a_node31"><a xlink:href="../../db/daa/classKalmanDSTrk.html#a21fe29527e13bd2493781fc87c8c3a61" target="_top" xlink:title=" ">
<polygon fill="none" stroke="black" points="798,-387.5 798,-417.5 952,-417.5 952,-387.5 798,-387.5"/>
<text text-anchor="start" x="806" y="-405.5" font-family="FreeSans" font-size="10.00">KalmanDSTrk::resolveSingle</text>
<text text-anchor="middle" x="875" y="-394.5" font-family="FreeSans" font-size="10.00">LeftRight</text>
</a>
</g>
</g>
<!-- Node17&#45;&gt;Node31 -->
<g id="edge45" class="edge">
<title>Node17&#45;&gt;Node31</title>
<path fill="none" stroke="midnightblue" d="M1011.43,-386.52C993.13,-388.68 972.09,-391.16 952.14,-393.52"/>
<polygon fill="midnightblue" stroke="midnightblue" points="1012.05,-389.98 1021.57,-385.33 1011.23,-383.02 1012.05,-389.98"/>
</g>
<!-- Node18&#45;&gt;Node9 -->
<g id="edge18" class="edge">
<title>Node18&#45;&gt;Node9</title>
<path fill="none" stroke="midnightblue" d="M422.83,-716.22C384.82,-694.62 325.55,-660.92 291.49,-641.56"/>
<polygon fill="midnightblue" stroke="midnightblue" points="421.58,-719.54 432,-721.44 425.04,-713.45 421.58,-719.54"/>
</g>
<!-- Node19 -->
<g id="node19" class="node">
<title>Node19</title>
<g id="a_node19"><a xlink:href="../../de/d12/classKalmanFastTrackletting.html#a50cdc1c3dc3759b451c16124fb7541df" target="_top" xlink:title=" ">
<polygon fill="none" stroke="black" points="198.5,-721.5 198.5,-751.5 329.5,-751.5 329.5,-721.5 198.5,-721.5"/>
<text text-anchor="start" x="206.5" y="-739.5" font-family="FreeSans" font-size="10.00">KalmanFastTrackletting</text>
<text text-anchor="middle" x="264" y="-728.5" font-family="FreeSans" font-size="10.00">::setRawEvent</text>
</a>
</g>
</g>
<!-- Node18&#45;&gt;Node19 -->
<g id="edge19" class="edge">
<title>Node18&#45;&gt;Node19</title>
<path fill="none" stroke="midnightblue" d="M383.01,-736.5C365.37,-736.5 346.74,-736.5 329.63,-736.5"/>
<polygon fill="midnightblue" stroke="midnightblue" points="383.26,-740 393.26,-736.5 383.26,-733 383.26,-740"/>
</g>
<!-- Node20&#45;&gt;Node13 -->
<g id="edge21" class="edge">
<title>Node20&#45;&gt;Node13</title>
<path fill="none" stroke="midnightblue" d="M404.61,-332.88C374.53,-343.14 337.54,-355.76 309.19,-365.43"/>
<polygon fill="midnightblue" stroke="midnightblue" points="405.77,-336.18 414.11,-329.64 403.51,-329.56 405.77,-336.18"/>
</g>
<!-- Node21&#45;&gt;Node12 -->
<g id="edge25" class="edge">
<title>Node21&#45;&gt;Node12</title>
<path fill="none" stroke="midnightblue" d="M588.14,-375.63C569.33,-379.59 549.47,-383.77 531.17,-387.62"/>
<polygon fill="midnightblue" stroke="midnightblue" points="589.09,-379 598.16,-373.52 587.65,-372.15 589.09,-379"/>
</g>
<!-- Node21&#45;&gt;Node13 -->
<g id="edge26" class="edge">
<title>Node21&#45;&gt;Node13</title>
<path fill="none" stroke="midnightblue" d="M582.52,-363.23C510.39,-367.15 408.89,-372.67 340.22,-376.41"/>
<polygon fill="midnightblue" stroke="midnightblue" points="583.15,-366.7 592.94,-362.66 582.77,-359.71 583.15,-366.7"/>
</g>
<!-- Node22&#45;&gt;Node8 -->
<g id="edge28" class="edge">
<title>Node22&#45;&gt;Node8</title>
<path fill="none" stroke="midnightblue" d="M593.42,-576.52C568.06,-581.86 540.29,-587.7 516.71,-592.67"/>
<polygon fill="midnightblue" stroke="midnightblue" points="594.31,-579.91 603.37,-574.42 592.86,-573.06 594.31,-579.91"/>
</g>
<!-- Node22&#45;&gt;Node9 -->
<g id="edge29" class="edge">
<title>Node22&#45;&gt;Node9</title>
<path fill="none" stroke="midnightblue" d="M593.19,-558.97C533.36,-559.38 448.39,-563.52 376,-580.5 347.16,-587.27 316.16,-600.68 294.27,-611.28"/>
<polygon fill="midnightblue" stroke="midnightblue" points="593.33,-562.47 603.32,-558.94 593.3,-555.47 593.33,-562.47"/>
</g>
<!-- Node24&#45;&gt;Node23 -->
<g id="edge33" class="edge">
<title>Node24&#45;&gt;Node23</title>
<path fill="none" stroke="midnightblue" d="M808.76,-162.5C767.93,-162.5 718.1,-162.5 691.13,-162.5"/>
<polygon fill="midnightblue" stroke="midnightblue" points="808.93,-166 818.93,-162.5 808.93,-159 808.93,-166"/>
</g>
<!-- Node25 -->
<g id="node25" class="node">
<title>Node25</title>
<g id="a_node25"><a xlink:href="../../df/df2/classSQReco.html#a32bb088e7896b2ecdb5b9aa4df1f6a50" target="_top" xlink:title=" ">
<polygon fill="none" stroke="black" points="610.5,-107 610.5,-126 730.5,-126 730.5,-107 610.5,-107"/>
<text text-anchor="middle" x="670.5" y="-114" font-family="FreeSans" font-size="10.00">SQReco::fitTrackCand</text>
</a>
</g>
</g>
<!-- Node24&#45;&gt;Node25 -->
<g id="edge32" class="edge">
<title>Node24&#45;&gt;Node25</title>
<path fill="none" stroke="midnightblue" d="M808.97,-147.73C777.63,-140.61 740.96,-132.28 713.38,-126.01"/>
<polygon fill="midnightblue" stroke="midnightblue" points="808.41,-151.19 818.93,-149.99 809.96,-144.36 808.41,-151.19"/>
</g>
<!-- Node26&#45;&gt;Node8 -->
<g id="edge36" class="edge">
<title>Node26&#45;&gt;Node8</title>
<path fill="none" stroke="midnightblue" d="M604.07,-718.23C595.41,-714.84 586.83,-710.93 579,-706.5 536.49,-682.42 495.17,-641.77 474.39,-619.76"/>
<polygon fill="midnightblue" stroke="midnightblue" points="602.88,-721.53 613.47,-721.73 605.32,-714.96 602.88,-721.53"/>
</g>
<!-- Node26&#45;&gt;Node18 -->
<g id="edge35" class="edge">
<title>Node26&#45;&gt;Node18</title>
<path fill="none" stroke="midnightblue" d="M603.42,-736.5C578.56,-736.5 550.32,-736.5 525.55,-736.5"/>
<polygon fill="midnightblue" stroke="midnightblue" points="603.49,-740 613.49,-736.5 603.49,-733 603.49,-740"/>
</g>
<!-- Node27&#45;&gt;Node12 -->
<g id="edge39" class="edge">
<title>Node27&#45;&gt;Node12</title>
<path fill="none" stroke="midnightblue" d="M603.78,-326.55C595.32,-328.81 586.87,-331.45 579,-334.5 543.16,-348.37 505.23,-371.91 482.2,-387.34"/>
<polygon fill="midnightblue" stroke="midnightblue" points="604.83,-329.89 613.67,-324.05 603.12,-323.1 604.83,-329.89"/>
</g>
<!-- Node27&#45;&gt;Node20 -->
<g id="edge38" class="edge">
<title>Node27&#45;&gt;Node20</title>
<path fill="none" stroke="midnightblue" d="M578.25,-314.5C566.62,-314.5 554.77,-314.5 543.28,-314.5"/>
<polygon fill="midnightblue" stroke="midnightblue" points="578.4,-318 588.4,-314.5 578.4,-311 578.4,-318"/>
</g>
<!-- Node30&#45;&gt;Node8 -->
<g id="edge43" class="edge">
<title>Node30&#45;&gt;Node8</title>
<path fill="none" stroke="midnightblue" d="M798.64,-697.05C738,-698.5 651.28,-695.53 579,-673.5 540.97,-661.91 502.13,-636.08 479.72,-619.52"/>
<polygon fill="midnightblue" stroke="midnightblue" points="799,-700.54 808.89,-696.76 798.8,-693.55 799,-700.54"/>
</g>
<!-- Node30&#45;&gt;Node26 -->
<g id="edge44" class="edge">
<title>Node30&#45;&gt;Node26</title>
<path fill="none" stroke="midnightblue" d="M798.86,-708.83C775.3,-713.95 749.72,-719.5 727.71,-724.29"/>
<polygon fill="midnightblue" stroke="midnightblue" points="799.78,-712.21 808.81,-706.66 798.3,-705.37 799.78,-712.21"/>
</g>
<!-- Node31&#45;&gt;Node12 -->
<g id="edge46" class="edge">
<title>Node31&#45;&gt;Node12</title>
<path fill="none" stroke="midnightblue" d="M787.64,-402.5C711.58,-402.5 602.17,-402.5 531.2,-402.5"/>
<polygon fill="midnightblue" stroke="midnightblue" points="787.68,-406 797.68,-402.5 787.68,-399 787.68,-406"/>
</g>
<!-- Node31&#45;&gt;Node27 -->
<g id="edge47" class="edge">
<title>Node31&#45;&gt;Node27</title>
<path fill="none" stroke="midnightblue" d="M845.16,-381.33C823.33,-366.24 792.06,-346.56 762,-334.5 751.4,-330.25 739.71,-326.81 728.37,-324.07"/>
<polygon fill="midnightblue" stroke="midnightblue" points="843.43,-384.39 853.62,-387.28 847.45,-378.67 843.43,-384.39"/>
</g>
<!-- Node32&#45;&gt;Node17 -->
<g id="edge56" class="edge">
<title>Node32&#45;&gt;Node17</title>
<path fill="none" stroke="midnightblue" d="M1223.18,-287.36C1184.79,-309.89 1112.95,-352.06 1080.79,-370.94"/>
<polygon fill="midnightblue" stroke="midnightblue" points="1225.32,-290.16 1232.17,-282.08 1221.78,-284.13 1225.32,-290.16"/>
</g>
<!-- Node33 -->
<g id="node33" class="node">
<title>Node33</title>
<g id="a_node33"><a xlink:href="../../d2/d26/classTracklet.html#a6ff731cb1218e246832ab79bb2258009" target="_top" xlink:title=" ">
<polygon fill="none" stroke="black" points="988,-92 988,-111 1139,-111 1139,-92 988,-92"/>
<text text-anchor="middle" x="1063.5" y="-99" font-family="FreeSans" font-size="10.00">Tracklet::getExpMomentum</text>
</a>
</g>
</g>
<!-- Node32&#45;&gt;Node33 -->
<g id="edge51" class="edge">
<title>Node32&#45;&gt;Node33</title>
<path fill="none" stroke="midnightblue" d="M1230.31,-255.6C1192.15,-220.13 1104.77,-138.92 1074.81,-111.08"/>
<polygon fill="midnightblue" stroke="midnightblue" points="1228.37,-258.57 1238.08,-262.82 1233.14,-253.44 1228.37,-258.57"/>
</g>
<!-- Node34 -->
<g id="node34" class="node">
<title>Node34</title>
<g id="a_node34"><a xlink:href="../../d2/d6b/classSQGenFit_1_1GFTrack.html#aa12a74dbecdfcb395e1e3b44859ce6b8" target="_top" xlink:title=" ">
<polygon fill="none" stroke="black" points="819,-49.5 819,-79.5 931,-79.5 931,-49.5 819,-49.5"/>
<text text-anchor="start" x="827" y="-67.5" font-family="FreeSans" font-size="10.00">SQGenFit::GFTrack::</text>
<text text-anchor="middle" x="875" y="-56.5" font-family="FreeSans" font-size="10.00">setTracklet</text>
</a>
</g>
</g>
<!-- Node33&#45;&gt;Node34 -->
<g id="edge52" class="edge">
<title>Node33&#45;&gt;Node34</title>
<path fill="none" stroke="midnightblue" d="M1004.35,-89.96C980.99,-85.33 954.18,-80.01 931.13,-75.44"/>
<polygon fill="midnightblue" stroke="midnightblue" points="1003.98,-93.46 1014.47,-91.97 1005.34,-86.59 1003.98,-93.46"/>
</g>
<!-- Node34&#45;&gt;Node23 -->
<g id="edge55" class="edge">
<title>Node34&#45;&gt;Node23</title>
<path fill="none" stroke="midnightblue" d="M809.76,-82.49C805.64,-84.58 801.68,-86.92 798,-89.5 776.75,-104.42 783.45,-120.88 762,-135.5 740.46,-150.18 710.77,-157.04 691.36,-160.13"/>
<polygon fill="midnightblue" stroke="midnightblue" points="811.35,-85.61 818.97,-78.25 808.43,-79.25 811.35,-85.61"/>
</g>
<!-- Node34&#45;&gt;Node25 -->
<g id="edge53" class="edge">
<title>Node34&#45;&gt;Node25</title>
<path fill="none" stroke="midnightblue" d="M808.86,-81.23C775.71,-89.74 736.62,-99.78 708.64,-106.96"/>
<polygon fill="midnightblue" stroke="midnightblue" points="810.12,-84.52 818.93,-78.64 808.38,-77.74 810.12,-84.52"/>
</g>
<!-- Node35 -->
<g id="node35" class="node">
<title>Node35</title>
<g id="a_node35"><a xlink:href="../../d2/d6b/classSQGenFit_1_1GFTrack.html#ad19776af235dcd4b0ab059f3e582d0d4" target="_top" xlink:title=" ">
<polygon fill="none" stroke="black" points="614.5,-49.5 614.5,-79.5 726.5,-79.5 726.5,-49.5 614.5,-49.5"/>
<text text-anchor="start" x="622.5" y="-67.5" font-family="FreeSans" font-size="10.00">SQGenFit::GFTrack::</text>
<text text-anchor="middle" x="670.5" y="-56.5" font-family="FreeSans" font-size="10.00">GFTrack</text>
</a>
</g>
</g>
<!-- Node34&#45;&gt;Node35 -->
<g id="edge54" class="edge">
<title>Node34&#45;&gt;Node35</title>
<path fill="none" stroke="midnightblue" d="M808.61,-64.5C782.12,-64.5 751.89,-64.5 726.56,-64.5"/>
<polygon fill="midnightblue" stroke="midnightblue" points="808.93,-68 818.93,-64.5 808.93,-61 808.93,-68"/>
</g>
<!-- Node37 -->
<g id="node37" class="node">
<title>Node37</title>
<g id="a_node37"><a xlink:href="../../d3/d46/classKalmanFastTracking.html#ac0b6441647d023db04c618a35fd2a8cd" target="_top" xlink:title="Track fitting stuff.">
<polygon fill="none" stroke="black" points="611.5,-633.5 611.5,-663.5 729.5,-663.5 729.5,-633.5 611.5,-633.5"/>
<text text-anchor="start" x="619.5" y="-651.5" font-family="FreeSans" font-size="10.00">KalmanFastTracking</text>
<text text-anchor="middle" x="670.5" y="-640.5" font-family="FreeSans" font-size="10.00">::processOneTracklet</text>
</a>
</g>
</g>
<!-- Node36&#45;&gt;Node37 -->
<g id="edge58" class="edge">
<title>Node36&#45;&gt;Node37</title>
<path fill="none" stroke="midnightblue" d="M801.56,-648.5C777.98,-648.5 752.12,-648.5 729.71,-648.5"/>
<polygon fill="midnightblue" stroke="midnightblue" points="801.87,-652 811.87,-648.5 801.87,-645 801.87,-652"/>
</g>
<!-- Node38 -->
<g id="node38" class="node">
<title>Node38</title>
<g id="a_node38"><a xlink:href="../../db/daa/classKalmanDSTrk.html#ace95cba717e2c3b24dfb46e8d458f61a" target="_top" xlink:title="Track fitting stuff.">
<polygon fill="none" stroke="black" points="579,-507 579,-526 762,-526 762,-507 579,-507"/>
<text text-anchor="middle" x="670.5" y="-514" font-family="FreeSans" font-size="10.00">KalmanDSTrk::processOneTracklet</text>
</a>
</g>
</g>
<!-- Node36&#45;&gt;Node38 -->
<g id="edge61" class="edge">
<title>Node36&#45;&gt;Node38</title>
<path fill="none" stroke="midnightblue" d="M813.01,-634.78C807.56,-631.97 802.43,-628.58 798,-624.5 766.91,-595.88 794.32,-563.72 762,-536.5 756.95,-532.25 751.2,-528.85 745.1,-526.13"/>
<polygon fill="midnightblue" stroke="midnightblue" points="811.88,-638.11 822.44,-638.99 814.73,-631.72 811.88,-638.11"/>
</g>
<!-- Node37&#45;&gt;Node8 -->
<g id="edge59" class="edge">
<title>Node37&#45;&gt;Node8</title>
<path fill="none" stroke="midnightblue" d="M601.37,-634.16C573.94,-628.38 542.69,-621.8 516.6,-616.31"/>
<polygon fill="midnightblue" stroke="midnightblue" points="600.78,-637.61 611.28,-636.24 602.22,-630.76 600.78,-637.61"/>
</g>
<!-- Node37&#45;&gt;Node9 -->
<g id="edge60" class="edge">
<title>Node37&#45;&gt;Node9</title>
<path fill="none" stroke="midnightblue" d="M600.8,-644.76C521.97,-640.48 394.19,-633.53 321.09,-629.55"/>
<polygon fill="midnightblue" stroke="midnightblue" points="600.94,-648.28 611.11,-645.32 601.32,-641.29 600.94,-648.28"/>
</g>
<!-- Node38&#45;&gt;Node12 -->
<g id="edge62" class="edge">
<title>Node38&#45;&gt;Node12</title>
<path fill="none" stroke="midnightblue" d="M594.63,-503.84C589.23,-502.01 583.97,-499.9 579,-497.5 560.25,-488.43 559.18,-480.61 543,-467.5 521.61,-450.17 496.75,-430.67 479.96,-417.59"/>
<polygon fill="midnightblue" stroke="midnightblue" points="593.85,-507.27 604.44,-506.87 595.91,-500.58 593.85,-507.27"/>
</g>
<!-- Node38&#45;&gt;Node13 -->
<g id="edge63" class="edge">
<title>Node38&#45;&gt;Node13</title>
<path fill="none" stroke="midnightblue" d="M608.64,-504.82C598.68,-502.59 588.52,-500.13 579,-497.5 487.01,-472.09 465.1,-461.68 376,-427.5 349.82,-417.46 320.63,-405.05 298.76,-395.51"/>
<polygon fill="midnightblue" stroke="midnightblue" points="607.98,-508.25 618.49,-506.96 609.47,-501.41 607.98,-508.25"/>
</g>
</g>
</svg>
