<?xml version="1.0" encoding="UTF-8" standalone="no"?>
<!DOCTYPE svg PUBLIC "-//W3C//DTD SVG 1.1//EN"
 "http://www.w3.org/Graphics/SVG/1.1/DTD/svg11.dtd">
<!-- Generated by graphviz version 2.30.1 (20200930.0103)
 -->
<!-- Title: Tracklet::operator+ Pages: 1 -->
<svg width="604pt" height="218pt"
 viewBox="0.00 0.00 604.00 218.00" xmlns="http://www.w3.org/2000/svg" xmlns:xlink="http://www.w3.org/1999/xlink">
<g id="graph0" class="graph" transform="scale(1 1) rotate(0) translate(4 214)">
<title>Tracklet::operator+</title>
<!-- Node1 -->
<g id="node1" class="node"><title>Node1</title>
<polygon fill="#bfbfbf" stroke="black" points="0,-76.5 0,-95.5 98,-95.5 98,-76.5 0,-76.5"/>
<text text-anchor="middle" x="49" y="-83.5" font-family="FreeSans" font-size="10.00">Tracklet::operator+</text>
</g>
<!-- Node2 -->
<g id="node2" class="node"><title>Node2</title>
<g id="a_node2"><a xlink:href="../../d2/d26/classTracklet.html#af4572336b769b0e1f0b2d679887bab5d" target="_top" target="_top" target="_top" xlink:title="Tracklet::calcChisq">
<polygon fill="none" stroke="black" points="145,-114.5 145,-133.5 243,-133.5 243,-114.5 145,-114.5"/>
<text text-anchor="middle" x="194" y="-121.5" font-family="FreeSans" font-size="10.00">Tracklet::calcChisq</text>
</a>
</g>
</g>
<!-- Node1&#45;&gt;Node2 -->
<g id="edge1" class="edge"><title>Node1&#45;&gt;Node2</title>
<path fill="none" stroke="midnightblue" d="M86.0849,-95.589C104.63,-100.517 127.426,-106.575 147.199,-111.829"/>
<polygon fill="midnightblue" stroke="midnightblue" points="146.363,-115.228 156.927,-114.414 148.161,-108.463 146.363,-115.228"/>
</g>
<!-- Node9 -->
<g id="node9" class="node"><title>Node9</title>
<g id="a_node9"><a xlink:href="../../d2/d26/classTracklet.html#a766bdd8c80191d06012bb3d0b7d8c889" target="_top" target="_top" target="_top" xlink:title="Tracklet::getMomentum">
<polygon fill="none" stroke="black" points="134.5,-38.5 134.5,-57.5 253.5,-57.5 253.5,-38.5 134.5,-38.5"/>
<text text-anchor="middle" x="194" y="-45.5" font-family="FreeSans" font-size="10.00">Tracklet::getMomentum</text>
</a>
</g>
</g>
<!-- Node1&#45;&gt;Node9 -->
<g id="edge8" class="edge"><title>Node1&#45;&gt;Node9</title>
<path fill="none" stroke="midnightblue" d="M86.0849,-76.411C104.63,-71.4831 127.426,-65.4251 147.199,-60.1709"/>
<polygon fill="midnightblue" stroke="midnightblue" points="148.161,-63.5368 156.927,-57.5859 146.363,-56.7716 148.161,-63.5368"/>
</g>
<!-- Node3 -->
<g id="node3" class="node"><title>Node3</title>
<g id="a_node3"><a xlink:href="../../d0/da0/classGeomSvc.html#ad1bef3d2b84f7192189c915646b24509" target="_top" target="_top" target="_top" xlink:title="GeomSvc::getDCA">
<polygon fill="none" stroke="black" points="315,-190.5 315,-209.5 413,-209.5 413,-190.5 315,-190.5"/>
<text text-anchor="middle" x="364" y="-197.5" font-family="FreeSans" font-size="10.00">GeomSvc::getDCA</text>
</a>
</g>
</g>
<!-- Node2&#45;&gt;Node3 -->
<g id="edge2" class="edge"><title>Node2&#45;&gt;Node3</title>
<path fill="none" stroke="midnightblue" d="M208.193,-133.595C225.967,-146.118 258.965,-167.969 290,-181 295.785,-183.429 301.96,-185.614 308.179,-187.562"/>
<polygon fill="midnightblue" stroke="midnightblue" points="307.354,-190.967 317.935,-190.427 309.327,-184.251 307.354,-190.967"/>
</g>
<!-- Node5 -->
<g id="node5" class="node"><title>Node5</title>
<g id="a_node5"><a xlink:href="../../d0/da0/classGeomSvc.html#ab24b24f8545dab241ef926371741ac71" target="_top" target="_top" target="_top" xlink:title="GeomSvc::getPlaneResolution">
<polygon fill="none" stroke="black" points="290.5,-152.5 290.5,-171.5 437.5,-171.5 437.5,-152.5 290.5,-152.5"/>
<text text-anchor="middle" x="364" y="-159.5" font-family="FreeSans" font-size="10.00">GeomSvc::getPlaneResolution</text>
</a>
</g>
</g>
<!-- Node2&#45;&gt;Node5 -->
<g id="edge4" class="edge"><title>Node2&#45;&gt;Node5</title>
<path fill="none" stroke="midnightblue" d="M237.393,-133.589C259.763,-138.649 287.398,-144.9 311.047,-150.249"/>
<polygon fill="midnightblue" stroke="midnightblue" points="310.386,-153.687 320.911,-152.48 311.93,-146.86 310.386,-153.687"/>
</g>
<!-- Node6 -->
<g id="node6" class="node"><title>Node6</title>
<g id="a_node6"><a xlink:href="../../d0/da0/classGeomSvc.html#a1284823fe2bb9b927568ff82dde606fa" target="_top" target="_top" target="_top" xlink:title="GeomSvc::getPlaneSpacing">
<polygon fill="none" stroke="black" points="295.5,-114.5 295.5,-133.5 432.5,-133.5 432.5,-114.5 295.5,-114.5"/>
<text text-anchor="middle" x="364" y="-121.5" font-family="FreeSans" font-size="10.00">GeomSvc::getPlaneSpacing</text>
</a>
</g>
</g>
<!-- Node2&#45;&gt;Node6 -->
<g id="edge5" class="edge"><title>Node2&#45;&gt;Node6</title>
<path fill="none" stroke="midnightblue" d="M243.142,-124C256.25,-124 270.792,-124 285.097,-124"/>
<polygon fill="midnightblue" stroke="midnightblue" points="285.447,-127.5 295.447,-124 285.447,-120.5 285.447,-127.5"/>
</g>
<!-- Node7 -->
<g id="node7" class="node"><title>Node7</title>
<g id="a_node7"><a xlink:href="../../d2/d26/classTracklet.html#a9ae781e516e3bf7fedee44bcac81a5b6" target="_top" target="_top" target="_top" xlink:title="Tracklet::getXZInfoInSt1">
<polygon fill="none" stroke="black" points="303,-76.5 303,-95.5 425,-95.5 425,-76.5 303,-76.5"/>
<text text-anchor="middle" x="364" y="-83.5" font-family="FreeSans" font-size="10.00">Tracklet::getXZInfoInSt1</text>
</a>
</g>
</g>
<!-- Node2&#45;&gt;Node7 -->
<g id="edge6" class="edge"><title>Node2&#45;&gt;Node7</title>
<path fill="none" stroke="midnightblue" d="M237.393,-114.411C259.763,-109.351 287.398,-103.1 311.047,-97.7512"/>
<polygon fill="midnightblue" stroke="midnightblue" points="311.93,-101.14 320.911,-95.5201 310.386,-94.3125 311.93,-101.14"/>
</g>
<!-- Node4 -->
<g id="node4" class="node"><title>Node4</title>
<g id="a_node4"><a xlink:href="../../d0/da0/classGeomSvc.html#a631d2a6b362ac1c735920cb16f056945" target="_top" target="_top" target="_top" xlink:title="GeomSvc::getEndPoints">
<polygon fill="none" stroke="black" points="474.5,-190.5 474.5,-209.5 595.5,-209.5 595.5,-190.5 474.5,-190.5"/>
<text text-anchor="middle" x="535" y="-197.5" font-family="FreeSans" font-size="10.00">GeomSvc::getEndPoints</text>
</a>
</g>
</g>
<!-- Node3&#45;&gt;Node4 -->
<g id="edge3" class="edge"><title>Node3&#45;&gt;Node4</title>
<path fill="none" stroke="midnightblue" d="M413.429,-200C429.179,-200 446.989,-200 463.991,-200"/>
<polygon fill="midnightblue" stroke="midnightblue" points="464.448,-203.5 474.448,-200 464.448,-196.5 464.448,-203.5"/>
</g>
<!-- Node8 -->
<g id="node8" class="node"><title>Node8</title>
<g id="a_node8"><a xlink:href="../../d2/d26/classTracklet.html#a1f2be06375c110356dabc35f1033ea73" target="_top" target="_top" target="_top" xlink:title="Return the charge (+1 or &#45;1) of this tracklet. ">
<polygon fill="none" stroke="black" points="484.5,-38.5 484.5,-57.5 585.5,-57.5 585.5,-38.5 484.5,-38.5"/>
<text text-anchor="middle" x="535" y="-45.5" font-family="FreeSans" font-size="10.00">Tracklet::getCharge</text>
</a>
</g>
</g>
<!-- Node7&#45;&gt;Node8 -->
<g id="edge7" class="edge"><title>Node7&#45;&gt;Node8</title>
<path fill="none" stroke="midnightblue" d="M407.646,-76.411C430.148,-71.3513 457.948,-65.1004 481.738,-59.7512"/>
<polygon fill="midnightblue" stroke="midnightblue" points="482.672,-63.1286 491.661,-57.5201 481.137,-56.2991 482.672,-63.1286"/>
</g>
<!-- Node9&#45;&gt;Node8 -->
<g id="edge9" class="edge"><title>Node9&#45;&gt;Node8</title>
<path fill="none" stroke="midnightblue" d="M253.662,-48C315.414,-48 412.117,-48 474.268,-48"/>
<polygon fill="midnightblue" stroke="midnightblue" points="474.315,-51.5001 484.315,-48 474.315,-44.5001 474.315,-51.5001"/>
</g>
<!-- Node10 -->
<g id="node10" class="node"><title>Node10</title>
<g id="a_node10"><a xlink:href="../../d2/d26/classTracklet.html#a34dc65d53a8d13dd4f2cf35ee7f24573" target="_top" target="_top" target="_top" xlink:title="Tracklet::getExpPositionX">
<polygon fill="none" stroke="black" points="300.5,-0.5 300.5,-19.5 427.5,-19.5 427.5,-0.5 300.5,-0.5"/>
<text text-anchor="middle" x="364" y="-7.5" font-family="FreeSans" font-size="10.00">Tracklet::getExpPositionX</text>
</a>
</g>
</g>
<!-- Node9&#45;&gt;Node10 -->
<g id="edge10" class="edge"><title>Node9&#45;&gt;Node10</title>
<path fill="none" stroke="midnightblue" d="M237.393,-38.411C259.763,-33.3513 287.398,-27.1004 311.047,-21.7512"/>
<polygon fill="midnightblue" stroke="midnightblue" points="311.93,-25.1401 320.911,-19.5201 310.386,-18.3125 311.93,-25.1401"/>
</g>
<!-- Node10&#45;&gt;Node8 -->
<g id="edge11" class="edge"><title>Node10&#45;&gt;Node8</title>
<path fill="none" stroke="midnightblue" d="M407.646,-19.589C430.148,-24.6487 457.948,-30.8996 481.738,-36.2488"/>
<polygon fill="midnightblue" stroke="midnightblue" points="481.137,-39.7009 491.661,-38.4799 482.672,-32.8714 481.137,-39.7009"/>
</g>
</g>
</svg>
