<?xml version="1.0" encoding="UTF-8" standalone="no"?>
<!DOCTYPE svg PUBLIC "-//W3C//DTD SVG 1.1//EN"
 "http://www.w3.org/Graphics/SVG/1.1/DTD/svg11.dtd">
<!-- Generated by graphviz version 2.30.1 (20200930.0103)
 -->
<!-- Title: Fun4AllDstOutputManager::Write Pages: 1 -->
<svg width="618pt" height="298pt"
 viewBox="0.00 0.00 618.00 298.00" xmlns="http://www.w3.org/2000/svg" xmlns:xlink="http://www.w3.org/1999/xlink">
<g id="graph0" class="graph" transform="scale(1 1) rotate(0) translate(4 294)">
<title>Fun4AllDstOutputManager::Write</title>
<!-- Node1 -->
<g id="node1" class="node"><title>Node1</title>
<polygon fill="#bfbfbf" stroke="black" points="0.5,-115 0.5,-145 131.5,-145 131.5,-115 0.5,-115"/>
<text text-anchor="start" x="8.5" y="-133" font-family="FreeSans" font-size="10.00">Fun4AllDstOutputManager</text>
<text text-anchor="middle" x="66" y="-122" font-family="FreeSans" font-size="10.00">::Write</text>
</g>
<!-- Node2 -->
<g id="node2" class="node"><title>Node2</title>
<g id="a_node2"><a xlink:href="../../d5/d07/classPHNodeIterator.html#aea98bf8619af59b1212a94fb32106baa" target="_top" xlink:title="PHNodeIterator::findFirst">
<polygon fill="none" stroke="black" points="174,-251.5 174,-270.5 296,-270.5 296,-251.5 174,-251.5"/>
<text text-anchor="middle" x="235" y="-258.5" font-family="FreeSans" font-size="10.00">PHNodeIterator::findFirst</text>
</a>
</g>
</g>
<!-- Node1&#45;&gt;Node2 -->
<g id="edge1" class="edge"><title>Node1&#45;&gt;Node2</title>
<path fill="none" stroke="midnightblue" d="M76.519,-145.142C92.471,-169.269 126.925,-216.326 168,-242 171.373,-244.108 174.988,-245.99 178.724,-247.668"/>
<polygon fill="midnightblue" stroke="midnightblue" points="177.606,-250.99 188.192,-251.433 180.193,-244.485 177.606,-250.99"/>
</g>
<!-- Node5 -->
<g id="node5" class="node"><title>Node5</title>
<g id="a_node5"><a xlink:href="../../da/d29/classFun4AllServer.html#a3e55156f91b2c94bb6c4ef33ffce587a" target="_top" xlink:title="Fun4AllServer::instance">
<polygon fill="none" stroke="black" points="176,-213.5 176,-232.5 294,-232.5 294,-213.5 176,-213.5"/>
<text text-anchor="middle" x="235" y="-220.5" font-family="FreeSans" font-size="10.00">Fun4AllServer::instance</text>
</a>
</g>
</g>
<!-- Node1&#45;&gt;Node5 -->
<g id="edge5" class="edge"><title>Node1&#45;&gt;Node5</title>
<path fill="none" stroke="midnightblue" d="M84.088,-145.106C103.302,-161.406 136.013,-187.151 168,-203 173.361,-205.656 179.143,-208.037 184.979,-210.15"/>
<polygon fill="midnightblue" stroke="midnightblue" points="184.19,-213.577 194.784,-213.452 186.424,-206.944 184.19,-213.577"/>
</g>
<!-- Node6 -->
<g id="node6" class="node"><title>Node6</title>
<g id="a_node6"><a xlink:href="../../da/d29/classFun4AllServer.html#ac9e5b55796d46d41f6f0ec9e3422959a" target="_top" xlink:title="Fun4AllServer::MakeNodes\lPersistent">
<polygon fill="none" stroke="black" points="168.5,-164 168.5,-194 301.5,-194 301.5,-164 168.5,-164"/>
<text text-anchor="start" x="176.5" y="-182" font-family="FreeSans" font-size="10.00">Fun4AllServer::MakeNodes</text>
<text text-anchor="middle" x="235" y="-171" font-family="FreeSans" font-size="10.00">Persistent</text>
</a>
</g>
</g>
<!-- Node1&#45;&gt;Node6 -->
<g id="edge6" class="edge"><title>Node1&#45;&gt;Node6</title>
<path fill="none" stroke="midnightblue" d="M118.468,-145.101C135.692,-150.155 155.059,-155.838 172.942,-161.085"/>
<polygon fill="midnightblue" stroke="midnightblue" points="172.121,-164.491 182.702,-163.948 174.092,-157.774 172.121,-164.491"/>
</g>
<!-- Node10 -->
<g id="node10" class="node"><title>Node10</title>
<g id="a_node10"><a xlink:href="../../da/d29/classFun4AllServer.html#a92c6fe0e0c19c48d2b1f9d0f63c12bbe" target="_top" xlink:title="Fun4AllServer::MakeNodes\lTransient">
<polygon fill="none" stroke="black" points="168.5,-115 168.5,-145 301.5,-145 301.5,-115 168.5,-115"/>
<text text-anchor="start" x="176.5" y="-133" font-family="FreeSans" font-size="10.00">Fun4AllServer::MakeNodes</text>
<text text-anchor="middle" x="235" y="-122" font-family="FreeSans" font-size="10.00">Transient</text>
</a>
</g>
</g>
<!-- Node1&#45;&gt;Node10 -->
<g id="edge10" class="edge"><title>Node1&#45;&gt;Node10</title>
<path fill="none" stroke="midnightblue" d="M131.567,-130C140.209,-130 149.136,-130 157.952,-130"/>
<polygon fill="midnightblue" stroke="midnightblue" points="158.227,-133.5 168.227,-130 158.227,-126.5 158.227,-133.5"/>
</g>
<!-- Node11 -->
<g id="node11" class="node"><title>Node11</title>
<g id="a_node11"><a xlink:href="../../dc/d82/classPHNode.html#ad5c0a3b8418667e0b16c0581435b0aff" target="_top" xlink:title="PHNode::makePersistent">
<polygon fill="none" stroke="black" points="173,-76.5 173,-95.5 297,-95.5 297,-76.5 173,-76.5"/>
<text text-anchor="middle" x="235" y="-83.5" font-family="FreeSans" font-size="10.00">PHNode::makePersistent</text>
</a>
</g>
</g>
<!-- Node1&#45;&gt;Node11 -->
<g id="edge12" class="edge"><title>Node1&#45;&gt;Node11</title>
<path fill="none" stroke="midnightblue" d="M124.005,-114.981C144.86,-109.486 168.175,-103.343 187.953,-98.1321"/>
<polygon fill="midnightblue" stroke="midnightblue" points="188.868,-101.511 197.646,-95.5783 187.084,-94.7416 188.868,-101.511"/>
</g>
<!-- Node12 -->
<g id="node12" class="node"><title>Node12</title>
<g id="a_node12"><a xlink:href="../../dc/d82/classPHNode.html#a6202404549f6c053f3a3485ab28a968e" target="_top" xlink:title="PHNode::makeTransient">
<polygon fill="none" stroke="black" points="174.5,-38.5 174.5,-57.5 295.5,-57.5 295.5,-38.5 174.5,-38.5"/>
<text text-anchor="middle" x="235" y="-45.5" font-family="FreeSans" font-size="10.00">PHNode::makeTransient</text>
</a>
</g>
</g>
<!-- Node1&#45;&gt;Node12 -->
<g id="edge13" class="edge"><title>Node1&#45;&gt;Node12</title>
<path fill="none" stroke="midnightblue" d="M87.3337,-114.944C107.088,-100.905 138.361,-80.2007 168,-67 173.303,-64.6381 178.976,-62.4873 184.687,-60.5529"/>
<polygon fill="midnightblue" stroke="midnightblue" points="185.807,-63.8697 194.275,-57.5024 183.684,-57.1992 185.807,-63.8697"/>
</g>
<!-- Node13 -->
<g id="node13" class="node"><title>Node13</title>
<g id="a_node13"><a xlink:href="../../d7/d4d/classPHNodeIOManager.html#a436c3a21a9c6ea54a33ffcc9f2480949" target="_top" xlink:title="PHNodeIOManager::write">
<polygon fill="none" stroke="black" points="172.5,-0.5 172.5,-19.5 297.5,-19.5 297.5,-0.5 172.5,-0.5"/>
<text text-anchor="middle" x="235" y="-7.5" font-family="FreeSans" font-size="10.00">PHNodeIOManager::write</text>
</a>
</g>
</g>
<!-- Node1&#45;&gt;Node13 -->
<g id="edge14" class="edge"><title>Node1&#45;&gt;Node13</title>
<path fill="none" stroke="midnightblue" d="M77.9722,-114.944C94.8576,-92.849 129.338,-51.8006 168,-29 171.64,-26.8535 175.536,-24.9372 179.549,-23.2285"/>
<polygon fill="midnightblue" stroke="midnightblue" points="180.957,-26.4375 189.057,-19.6076 178.466,-19.8958 180.957,-26.4375"/>
</g>
<!-- Node3 -->
<g id="node3" class="node"><title>Node3</title>
<g id="a_node3"><a xlink:href="../../dc/d82/classPHNode.html#a4ab1f90aed955a652813bfe377087bda" target="_top" xlink:title="PHNode::getType">
<polygon fill="none" stroke="black" points="354,-270.5 354,-289.5 446,-289.5 446,-270.5 354,-270.5"/>
<text text-anchor="middle" x="400" y="-277.5" font-family="FreeSans" font-size="10.00">PHNode::getType</text>
</a>
</g>
</g>
<!-- Node2&#45;&gt;Node3 -->
<g id="edge2" class="edge"><title>Node2&#45;&gt;Node3</title>
<path fill="none" stroke="midnightblue" d="M296.232,-268.021C311.706,-269.825 328.279,-271.756 343.501,-273.531"/>
<polygon fill="midnightblue" stroke="midnightblue" points="343.455,-277.049 353.793,-274.731 344.266,-270.096 343.455,-277.049"/>
</g>
<!-- Node4 -->
<g id="node4" class="node"><title>Node4</title>
<g id="a_node4"><a xlink:href="../../dc/d82/classPHNode.html#aca3576f926a4401eddc3d88bf0ce0de3" target="_top" xlink:title="PHNode::getName">
<polygon fill="none" stroke="black" points="352,-232.5 352,-251.5 448,-251.5 448,-232.5 352,-232.5"/>
<text text-anchor="middle" x="400" y="-239.5" font-family="FreeSans" font-size="10.00">PHNode::getName</text>
</a>
</g>
</g>
<!-- Node2&#45;&gt;Node4 -->
<g id="edge3" class="edge"><title>Node2&#45;&gt;Node4</title>
<path fill="none" stroke="midnightblue" d="M296.232,-253.979C311.116,-252.244 327.018,-250.391 341.756,-248.673"/>
<polygon fill="midnightblue" stroke="midnightblue" points="342.218,-252.143 351.746,-247.508 341.408,-245.19 342.218,-252.143"/>
</g>
<!-- Node2&#45;&gt;Node2 -->
<g id="edge4" class="edge"><title>Node2&#45;&gt;Node2</title>
<path fill="none" stroke="midnightblue" d="M209.723,-270.757C197.426,-279.565 205.852,-289 235,-289 254.584,-289 264.814,-284.741 265.689,-279.275"/>
<polygon fill="midnightblue" stroke="midnightblue" points="268.594,-277.321 260.277,-270.757 262.686,-281.075 268.594,-277.321"/>
</g>
<!-- Node7 -->
<g id="node7" class="node"><title>Node7</title>
<g id="a_node7"><a xlink:href="../../d5/d07/classPHNodeIterator.html#a110a5b87a02a22deecae334f32387ffa" target="_top" xlink:title="PHNodeIterator::ls">
<polygon fill="none" stroke="black" points="352.5,-144.5 352.5,-163.5 447.5,-163.5 447.5,-144.5 352.5,-144.5"/>
<text text-anchor="middle" x="400" y="-151.5" font-family="FreeSans" font-size="10.00">PHNodeIterator::ls</text>
</a>
</g>
</g>
<!-- Node6&#45;&gt;Node7 -->
<g id="edge7" class="edge"><title>Node6&#45;&gt;Node7</title>
<path fill="none" stroke="midnightblue" d="M301.828,-168.904C315.215,-166.851 329.187,-164.708 342.226,-162.708"/>
<polygon fill="midnightblue" stroke="midnightblue" points="343.101,-166.115 352.454,-161.139 342.039,-159.195 343.101,-166.115"/>
</g>
<!-- Node8 -->
<g id="node8" class="node"><title>Node8</title>
<g id="a_node8"><a xlink:href="../../d6/d86/classPHPointerList.html#a560c9339d74f28f604d07dcb10a2e0be" target="_top" xlink:title="PHPointerList::clear">
<polygon fill="none" stroke="black" points="503.5,-163.5 503.5,-182.5 604.5,-182.5 604.5,-163.5 503.5,-163.5"/>
<text text-anchor="middle" x="554" y="-170.5" font-family="FreeSans" font-size="10.00">PHPointerList::clear</text>
</a>
</g>
</g>
<!-- Node7&#45;&gt;Node8 -->
<g id="edge8" class="edge"><title>Node7&#45;&gt;Node8</title>
<path fill="none" stroke="midnightblue" d="M447.845,-159.856C462.162,-161.645 478.105,-163.638 493.161,-165.52"/>
<polygon fill="midnightblue" stroke="midnightblue" points="493.055,-169.034 503.412,-166.801 493.923,-162.088 493.055,-169.034"/>
</g>
<!-- Node9 -->
<g id="node9" class="node"><title>Node9</title>
<g id="a_node9"><a xlink:href="../../d6/d86/classPHPointerList.html#af5fc4e6958b5b90c57bfb497566f503c" target="_top" xlink:title="PHPointerList::append">
<polygon fill="none" stroke="black" points="498,-125.5 498,-144.5 610,-144.5 610,-125.5 498,-125.5"/>
<text text-anchor="middle" x="554" y="-132.5" font-family="FreeSans" font-size="10.00">PHPointerList::append</text>
</a>
</g>
</g>
<!-- Node7&#45;&gt;Node9 -->
<g id="edge9" class="edge"><title>Node7&#45;&gt;Node9</title>
<path fill="none" stroke="midnightblue" d="M447.845,-148.144C460.427,-146.572 474.265,-144.842 487.652,-143.168"/>
<polygon fill="midnightblue" stroke="midnightblue" points="488.286,-146.617 497.774,-141.903 487.417,-139.671 488.286,-146.617"/>
</g>
<!-- Node10&#45;&gt;Node7 -->
<g id="edge11" class="edge"><title>Node10&#45;&gt;Node7</title>
<path fill="none" stroke="midnightblue" d="M301.828,-139.693C315.215,-141.663 329.187,-143.721 342.226,-145.641"/>
<polygon fill="midnightblue" stroke="midnightblue" points="342.051,-149.153 352.454,-147.147 343.071,-142.227 342.051,-149.153"/>
</g>
<!-- Node14 -->
<g id="node14" class="node"><title>Node14</title>
<g id="a_node14"><a xlink:href="../../d5/dca/classPHCompositeNode.html#a774f54eea4fcb26e8b98f537efc1c6d9" target="_top" xlink:title="PHCompositeNode::write">
<polygon fill="none" stroke="black" points="338.5,-0.5 338.5,-19.5 461.5,-19.5 461.5,-0.5 338.5,-0.5"/>
<text text-anchor="middle" x="400" y="-7.5" font-family="FreeSans" font-size="10.00">PHCompositeNode::write</text>
</a>
</g>
</g>
<!-- Node13&#45;&gt;Node14 -->
<g id="edge15" class="edge"><title>Node13&#45;&gt;Node14</title>
<path fill="none" stroke="midnightblue" d="M297.623,-10C307.63,-10 318.063,-10 328.267,-10"/>
<polygon fill="midnightblue" stroke="midnightblue" points="328.37,-13.5001 338.37,-10 328.37,-6.5001 328.37,-13.5001"/>
</g>
<!-- Node15 -->
<g id="node15" class="node"><title>Node15</title>
<g id="a_node15"><a xlink:href="../../dc/d82/classPHNode.html#a82ef8bef92f7d2cc470bccb042ab57cc" target="_top" xlink:title="PHNode::write">
<polygon fill="none" stroke="black" points="515.5,-0.5 515.5,-19.5 592.5,-19.5 592.5,-0.5 515.5,-0.5"/>
<text text-anchor="middle" x="554" y="-7.5" font-family="FreeSans" font-size="10.00">PHNode::write</text>
</a>
</g>
</g>
<!-- Node14&#45;&gt;Node15 -->
<g id="edge16" class="edge"><title>Node14&#45;&gt;Node15</title>
<path fill="none" stroke="midnightblue" d="M461.511,-10C476.025,-10 491.326,-10 505.173,-10"/>
<polygon fill="midnightblue" stroke="midnightblue" points="505.442,-13.5001 515.442,-10 505.442,-6.5001 505.442,-13.5001"/>
</g>
</g>
</svg>
