<?xml version="1.0" encoding="UTF-8" standalone="no"?>
<!DOCTYPE svg PUBLIC "-//W3C//DTD SVG 1.1//EN"
 "http://www.w3.org/Graphics/SVG/1.1/DTD/svg11.dtd">
<!-- Generated by graphviz version 2.36.0 (20140111.2315)
 -->
<!-- Title: /home/yuhw/GitHub/SeaQuest/seaquest&#45;offline/database/PHParameter/PHParameters.h Pages: 1 -->
<svg width="847pt" height="128pt"
 viewBox="0.00 0.00 847.00 128.00" xmlns="http://www.w3.org/2000/svg" xmlns:xlink="http://www.w3.org/1999/xlink">
<g id="graph0" class="graph" transform="scale(1 1) rotate(0) translate(4 124)">
<title>/home/yuhw/GitHub/SeaQuest/seaquest&#45;offline/database/PHParameter/PHParameters.h</title>
<!-- Node1 -->
<g id="node1" class="node"><title>Node1</title>
<polygon fill="#bfbfbf" stroke="black" points="367,-78.5 367,-119.5 521,-119.5 521,-78.5 367,-78.5"/>
<text text-anchor="start" x="375" y="-107.5" font-family="FreeSans" font-size="10.00">/home/yuhw/GitHub/SeaQuest</text>
<text text-anchor="start" x="375" y="-96.5" font-family="FreeSans" font-size="10.00">/seaquest&#45;offline/database</text>
<text text-anchor="middle" x="444" y="-85.5" font-family="FreeSans" font-size="10.00">/PHParameter/PHParameters.h</text>
</g>
<!-- Node2 -->
<g id="node2" class="node"><title>Node2</title>
<g id="a_node2"><a xlink:href="../../dd/d09/PHParameterContainerInterface_8cc.html" target="_top" xlink:title="/home/yuhw/GitHub/SeaQuest\l/seaquest&#45;offline/database\l/PHParameter/PHParameterContainerInterface.cc">
<polygon fill="none" stroke="black" points="-0.5,-0.5 -0.5,-41.5 232.5,-41.5 232.5,-0.5 -0.5,-0.5"/>
<text text-anchor="start" x="7.5" y="-29.5" font-family="FreeSans" font-size="10.00">/home/yuhw/GitHub/SeaQuest</text>
<text text-anchor="start" x="7.5" y="-18.5" font-family="FreeSans" font-size="10.00">/seaquest&#45;offline/database</text>
<text text-anchor="middle" x="116" y="-7.5" font-family="FreeSans" font-size="10.00">/PHParameter/PHParameterContainerInterface.cc</text>
</a>
</g>
</g>
<!-- Node1&#45;&gt;Node2 -->
<g id="edge1" class="edge"><title>Node1&#45;&gt;Node2</title>
<path fill="none" stroke="midnightblue" d="M356.836,-77.8034C308.35,-66.569 248.289,-52.6523 200.275,-41.5272"/>
<polygon fill="midnightblue" stroke="midnightblue" points="356.152,-81.2376 366.684,-80.0853 357.732,-74.4183 356.152,-81.2376"/>
</g>
<!-- Node3 -->
<g id="node3" class="node"><title>Node3</title>
<g id="a_node3"><a xlink:href="../../dc/d65/PHParameterInterface_8cc.html" target="_top" xlink:title="/home/yuhw/GitHub/SeaQuest\l/seaquest&#45;offline/database\l/PHParameter/PHParameterInterface.cc">
<polygon fill="none" stroke="black" points="251,-0.5 251,-41.5 443,-41.5 443,-0.5 251,-0.5"/>
<text text-anchor="start" x="259" y="-29.5" font-family="FreeSans" font-size="10.00">/home/yuhw/GitHub/SeaQuest</text>
<text text-anchor="start" x="259" y="-18.5" font-family="FreeSans" font-size="10.00">/seaquest&#45;offline/database</text>
<text text-anchor="middle" x="347" y="-7.5" font-family="FreeSans" font-size="10.00">/PHParameter/PHParameterInterface.cc</text>
</a>
</g>
</g>
<!-- Node1&#45;&gt;Node3 -->
<g id="edge2" class="edge"><title>Node1&#45;&gt;Node3</title>
<path fill="none" stroke="midnightblue" d="M410.898,-72.0648C398.126,-62.0574 383.764,-50.8045 371.895,-41.5056"/>
<polygon fill="midnightblue" stroke="midnightblue" points="408.99,-75.0157 419.02,-78.4281 413.307,-69.5055 408.99,-75.0157"/>
</g>
<!-- Node4 -->
<g id="node4" class="node"><title>Node4</title>
<g id="a_node4"><a xlink:href="../../dc/d1c/PHParameters_8cc.html" target="_top" xlink:title="/home/yuhw/GitHub/SeaQuest\l/seaquest&#45;offline/database\l/PHParameter/PHParameters.cc">
<polygon fill="none" stroke="black" points="461.5,-0.5 461.5,-41.5 620.5,-41.5 620.5,-0.5 461.5,-0.5"/>
<text text-anchor="start" x="469.5" y="-29.5" font-family="FreeSans" font-size="10.00">/home/yuhw/GitHub/SeaQuest</text>
<text text-anchor="start" x="469.5" y="-18.5" font-family="FreeSans" font-size="10.00">/seaquest&#45;offline/database</text>
<text text-anchor="middle" x="541" y="-7.5" font-family="FreeSans" font-size="10.00">/PHParameter/PHParameters.cc</text>
</a>
</g>
</g>
<!-- Node1&#45;&gt;Node4 -->
<g id="edge3" class="edge"><title>Node1&#45;&gt;Node4</title>
<path fill="none" stroke="midnightblue" d="M477.102,-72.0648C489.874,-62.0574 504.236,-50.8045 516.105,-41.5056"/>
<polygon fill="midnightblue" stroke="midnightblue" points="474.693,-69.5055 468.98,-78.4281 479.01,-75.0157 474.693,-69.5055"/>
</g>
<!-- Node5 -->
<g id="node5" class="node"><title>Node5</title>
<g id="a_node5"><a xlink:href="../../d6/d89/PHParametersContainer_8cc.html" target="_top" xlink:title="/home/yuhw/GitHub/SeaQuest\l/seaquest&#45;offline/database\l/PHParameter/PHParametersContainer.cc">
<polygon fill="none" stroke="black" points="639,-0.5 639,-41.5 839,-41.5 839,-0.5 639,-0.5"/>
<text text-anchor="start" x="647" y="-29.5" font-family="FreeSans" font-size="10.00">/home/yuhw/GitHub/SeaQuest</text>
<text text-anchor="start" x="647" y="-18.5" font-family="FreeSans" font-size="10.00">/seaquest&#45;offline/database</text>
<text text-anchor="middle" x="739" y="-7.5" font-family="FreeSans" font-size="10.00">/PHParameter/PHParametersContainer.cc</text>
</a>
</g>
</g>
<!-- Node1&#45;&gt;Node5 -->
<g id="edge4" class="edge"><title>Node1&#45;&gt;Node5</title>
<path fill="none" stroke="midnightblue" d="M529.686,-75.925C571.944,-65.0381 622.467,-52.0222 663.288,-41.5056"/>
<polygon fill="midnightblue" stroke="midnightblue" points="528.78,-72.5439 519.97,-78.4281 530.527,-79.3226 528.78,-72.5439"/>
</g>
</g>
</svg>
