<?xml version="1.0" encoding="UTF-8" standalone="no"?>
<!DOCTYPE svg PUBLIC "-//W3C//DTD SVG 1.1//EN"
 "http://www.w3.org/Graphics/SVG/1.1/DTD/svg11.dtd">
<!-- Generated by graphviz version 2.36.0 (20140111.2315)
 -->
<!-- Title: SQHit_v1::set_drift_distance Pages: 1 -->
<svg width="422pt" height="131pt"
 viewBox="0.00 0.00 422.00 131.00" xmlns="http://www.w3.org/2000/svg" xmlns:xlink="http://www.w3.org/1999/xlink">
<g id="graph0" class="graph" transform="scale(1 1) rotate(0) translate(4 127)">
<title>SQHit_v1::set_drift_distance</title>
<!-- Node1 -->
<g id="node1" class="node"><title>Node1</title>
<polygon fill="#bfbfbf" stroke="black" points="0.5,-49 0.5,-79 99.5,-79 99.5,-49 0.5,-49"/>
<text text-anchor="start" x="8.5" y="-67" font-family="FreeSans" font-size="10.00">SQHit_v1::set_drift</text>
<text text-anchor="middle" x="50" y="-56" font-family="FreeSans" font-size="10.00">_distance</text>
</g>
<!-- Node2 -->
<g id="node2" class="node"><title>Node2</title>
<g id="a_node2"><a xlink:href="../../d6/d98/classDPDigitizer.html#a9bf0122395ac7fcf5c832e78e52f4880" target="_top" xlink:title="main external call, fill the digi hit vector ">
<polygon fill="none" stroke="black" points="155.5,-98.5 155.5,-117.5 254.5,-117.5 254.5,-98.5 155.5,-98.5"/>
<text text-anchor="middle" x="205" y="-105.5" font-family="FreeSans" font-size="10.00">DPDigitizer::digitize</text>
</a>
</g>
</g>
<!-- Node1&#45;&gt;Node2 -->
<g id="edge1" class="edge"><title>Node1&#45;&gt;Node2</title>
<path fill="none" stroke="midnightblue" d="M109.492,-80.8214C130.177,-86.77 152.725,-93.2541 170.607,-98.3967"/>
<polygon fill="midnightblue" stroke="midnightblue" points="110.409,-77.4431 99.8308,-78.0428 108.474,-84.1704 110.409,-77.4431"/>
</g>
<!-- Node4 -->
<g id="node4" class="node"><title>Node4</title>
<g id="a_node4"><a xlink:href="../../d9/d0c/classRndmEmbed.html#aab52cc2c180db26dd572a3556c8d6d9e" target="_top" xlink:title="RndmEmbed::process\l_event">
<polygon fill="none" stroke="black" points="149.5,-49 149.5,-79 260.5,-79 260.5,-49 149.5,-49"/>
<text text-anchor="start" x="157.5" y="-67" font-family="FreeSans" font-size="10.00">RndmEmbed::process</text>
<text text-anchor="middle" x="205" y="-56" font-family="FreeSans" font-size="10.00">_event</text>
</a>
</g>
</g>
<!-- Node1&#45;&gt;Node4 -->
<g id="edge3" class="edge"><title>Node1&#45;&gt;Node4</title>
<path fill="none" stroke="midnightblue" d="M110.003,-64C122.913,-64 136.525,-64 149.26,-64"/>
<polygon fill="midnightblue" stroke="midnightblue" points="109.831,-60.5001 99.8308,-64 109.831,-67.5001 109.831,-60.5001"/>
</g>
<!-- Node5 -->
<g id="node5" class="node"><title>Node5</title>
<g id="a_node5"><a xlink:href="../../d4/d36/classSRawEventEmbed.html#a0041b344c23d0d679125dbb74aa1652b" target="_top" xlink:title="SRawEventEmbed::process\l_event">
<polygon fill="none" stroke="black" points="136.5,-0 136.5,-30 273.5,-30 273.5,-0 136.5,-0"/>
<text text-anchor="start" x="144.5" y="-18" font-family="FreeSans" font-size="10.00">SRawEventEmbed::process</text>
<text text-anchor="middle" x="205" y="-7" font-family="FreeSans" font-size="10.00">_event</text>
</a>
</g>
</g>
<!-- Node1&#45;&gt;Node5 -->
<g id="edge4" class="edge"><title>Node1&#45;&gt;Node5</title>
<path fill="none" stroke="midnightblue" d="M108.013,-45.7409C124.15,-40.5727 141.527,-35.0076 157.002,-30.0516"/>
<polygon fill="midnightblue" stroke="midnightblue" points="106.609,-42.5152 98.1535,-48.8986 108.745,-49.1817 106.609,-42.5152"/>
</g>
<!-- Node3 -->
<g id="node3" class="node"><title>Node3</title>
<g id="a_node3"><a xlink:href="../../d6/d98/classDPDigitizer.html#a2d585e16710f9dc114334772f104869f" target="_top" xlink:title="event processing ">
<polygon fill="none" stroke="black" points="310,-93 310,-123 414,-123 414,-93 310,-93"/>
<text text-anchor="start" x="318" y="-111" font-family="FreeSans" font-size="10.00">DPDigitizer::process</text>
<text text-anchor="middle" x="362" y="-100" font-family="FreeSans" font-size="10.00">_event</text>
</a>
</g>
</g>
<!-- Node2&#45;&gt;Node3 -->
<g id="edge2" class="edge"><title>Node2&#45;&gt;Node3</title>
<path fill="none" stroke="midnightblue" d="M264.721,-108C279.582,-108 295.424,-108 309.876,-108"/>
<polygon fill="midnightblue" stroke="midnightblue" points="264.618,-104.5 254.618,-108 264.618,-111.5 264.618,-104.5"/>
</g>
</g>
</svg>
