<?xml version="1.0" encoding="UTF-8" standalone="no"?>
<!DOCTYPE svg PUBLIC "-//W3C//DTD SVG 1.1//EN"
 "http://www.w3.org/Graphics/SVG/1.1/DTD/svg11.dtd">
<!-- Generated by graphviz version 2.30.1 (20180413.0232)
 -->
<!-- Title: /dev/shm/kenichi/update&#45;github&#45;e1039&#45;doc/e1039&#45;core/framework/phool/PHNodeReset.cc Pages: 1 -->
<svg width="737pt" height="498pt"
 viewBox="0.00 0.00 737.00 498.00" xmlns="http://www.w3.org/2000/svg" xmlns:xlink="http://www.w3.org/1999/xlink">
<g id="graph0" class="graph" transform="scale(1 1) rotate(0) translate(4 494)">
<title>/dev/shm/kenichi/update&#45;github&#45;e1039&#45;doc/e1039&#45;core/framework/phool/PHNodeReset.cc</title>
<!-- Node1 -->
<g id="node1" class="node"><title>Node1</title>
<polygon fill="#bfbfbf" stroke="black" points="480.5,-448.5 480.5,-489.5 669.5,-489.5 669.5,-448.5 480.5,-448.5"/>
<text text-anchor="start" x="488.5" y="-477.5" font-family="FreeSans" font-size="10.00">/dev/shm/kenichi/update</text>
<text text-anchor="start" x="488.5" y="-466.5" font-family="FreeSans" font-size="10.00">&#45;github&#45;e1039&#45;doc/e1039</text>
<text text-anchor="middle" x="575" y="-455.5" font-family="FreeSans" font-size="10.00">&#45;core/framework/phool/PHNodeReset.cc</text>
</g>
<!-- Node2 -->
<g id="node2" class="node"><title>Node2</title>
<g id="a_node2"><a xlink:href="../../df/dcd/PHNodeReset_8h.html" target="_top" xlink:title="PHNodeReset.h">
<polygon fill="none" stroke="black" points="92.5,-392.5 92.5,-411.5 177.5,-411.5 177.5,-392.5 92.5,-392.5"/>
<text text-anchor="middle" x="135" y="-399.5" font-family="FreeSans" font-size="10.00">PHNodeReset.h</text>
</a>
</g>
</g>
<!-- Node1&#45;&gt;Node2 -->
<g id="edge1" class="edge"><title>Node1&#45;&gt;Node2</title>
<path fill="none" stroke="midnightblue" d="M480.339,-454.016C390.906,-440.804 260.005,-421.467 187.766,-410.795"/>
<polygon fill="midnightblue" stroke="midnightblue" points="187.95,-407.284 177.546,-409.285 186.927,-414.209 187.95,-407.284"/>
</g>
<!-- Node4 -->
<g id="node4" class="node"><title>Node4</title>
<g id="a_node4"><a xlink:href="../../dd/d9b/PHDataNode_8h.html" target="_top" xlink:title="PHDataNode.h">
<polygon fill="none" stroke="black" points="581,-224.5 581,-243.5 661,-243.5 661,-224.5 581,-224.5"/>
<text text-anchor="middle" x="621" y="-231.5" font-family="FreeSans" font-size="10.00">PHDataNode.h</text>
</a>
</g>
</g>
<!-- Node1&#45;&gt;Node4 -->
<g id="edge3" class="edge"><title>Node1&#45;&gt;Node4</title>
<path fill="none" stroke="midnightblue" d="M577.11,-448.194C580.042,-422.264 585.914,-375.466 594,-336 599.994,-306.745 609.436,-273.375 615.418,-253.263"/>
<polygon fill="midnightblue" stroke="midnightblue" points="618.806,-254.149 618.342,-243.565 612.104,-252.129 618.806,-254.149"/>
</g>
<!-- Node10 -->
<g id="node10" class="node"><title>Node10</title>
<g id="a_node10"><a xlink:href="../../d3/d79/PHIODataNode_8h.html" target="_top" xlink:title="PHIODataNode.h">
<polygon fill="none" stroke="black" points="321.5,-392.5 321.5,-411.5 412.5,-411.5 412.5,-392.5 321.5,-392.5"/>
<text text-anchor="middle" x="367" y="-399.5" font-family="FreeSans" font-size="10.00">PHIODataNode.h</text>
</a>
</g>
</g>
<!-- Node1&#45;&gt;Node10 -->
<g id="edge10" class="edge"><title>Node1&#45;&gt;Node10</title>
<path fill="none" stroke="midnightblue" d="M512.593,-448.498C477.222,-437.444 434.166,-423.99 404.088,-414.59"/>
<polygon fill="midnightblue" stroke="midnightblue" points="405.003,-411.209 394.415,-411.567 402.915,-417.891 405.003,-411.209"/>
</g>
<!-- Node21 -->
<g id="node21" class="node"><title>Node21</title>
<g id="a_node21"><a xlink:href="../../df/d32/PHObject_8h.html" target="_top" xlink:title="PHObject.h">
<polygon fill="none" stroke="black" points="603,-392.5 603,-411.5 669,-411.5 669,-392.5 603,-392.5"/>
<text text-anchor="middle" x="636" y="-399.5" font-family="FreeSans" font-size="10.00">PHObject.h</text>
</a>
</g>
</g>
<!-- Node1&#45;&gt;Node21 -->
<g id="edge35" class="edge"><title>Node1&#45;&gt;Node21</title>
<path fill="none" stroke="midnightblue" d="M593.302,-448.498C602.115,-439.107 612.555,-427.983 620.905,-419.085"/>
<polygon fill="midnightblue" stroke="midnightblue" points="623.589,-421.34 627.88,-411.652 618.485,-416.549 623.589,-421.34"/>
</g>
<!-- Node7 -->
<g id="node7" class="node"><title>Node7</title>
<polygon fill="none" stroke="#bfbfbf" points="602.5,-0.5 602.5,-19.5 655.5,-19.5 655.5,-0.5 602.5,-0.5"/>
<text text-anchor="middle" x="629" y="-7.5" font-family="FreeSans" font-size="10.00">iostream</text>
</g>
<!-- Node1&#45;&gt;Node7 -->
<g id="edge38" class="edge"><title>Node1&#45;&gt;Node7</title>
<path fill="none" stroke="midnightblue" d="M634.1,-448.433C677.529,-429.901 729,-397.322 729,-347 729,-347 729,-347 729,-121 729,-76.9843 684.62,-42.7956 654.99,-24.875"/>
<polygon fill="midnightblue" stroke="midnightblue" points="656.369,-21.6286 645.964,-19.6363 652.856,-27.683 656.369,-21.6286"/>
</g>
<!-- Node3 -->
<g id="node3" class="node"><title>Node3</title>
<g id="a_node3"><a xlink:href="../../d0/d82/PHNodeOperation_8h.html" target="_top" xlink:title="PHNodeOperation.h">
<polygon fill="none" stroke="black" points="0,-336.5 0,-355.5 102,-355.5 102,-336.5 0,-336.5"/>
<text text-anchor="middle" x="51" y="-343.5" font-family="FreeSans" font-size="10.00">PHNodeOperation.h</text>
</a>
</g>
</g>
<!-- Node2&#45;&gt;Node3 -->
<g id="edge2" class="edge"><title>Node2&#45;&gt;Node3</title>
<path fill="none" stroke="midnightblue" d="M121.504,-392.324C108.4,-383.9 88.2881,-370.971 72.8931,-361.074"/>
<polygon fill="midnightblue" stroke="midnightblue" points="74.767,-358.118 64.4626,-355.655 70.9817,-364.006 74.767,-358.118"/>
</g>
<!-- Node5 -->
<g id="node5" class="node"><title>Node5</title>
<g id="a_node5"><a xlink:href="../../d3/d62/PHNode_8h.html" target="_top" xlink:title="PHNode.h">
<polygon fill="none" stroke="black" points="497,-112.5 497,-131.5 557,-131.5 557,-112.5 497,-112.5"/>
<text text-anchor="middle" x="527" y="-119.5" font-family="FreeSans" font-size="10.00">PHNode.h</text>
</a>
</g>
</g>
<!-- Node4&#45;&gt;Node5 -->
<g id="edge4" class="edge"><title>Node4&#45;&gt;Node5</title>
<path fill="none" stroke="midnightblue" d="M613.624,-224.368C597.974,-206.055 561.224,-163.049 540.982,-139.362"/>
<polygon fill="midnightblue" stroke="midnightblue" points="543.499,-136.92 534.342,-131.591 538.177,-141.468 543.499,-136.92"/>
</g>
<!-- Node4&#45;&gt;Node7 -->
<g id="edge9" class="edge"><title>Node4&#45;&gt;Node7</title>
<path fill="none" stroke="midnightblue" d="M621.314,-224.297C622.491,-191.633 626.662,-75.8661 628.317,-29.9573"/>
<polygon fill="midnightblue" stroke="midnightblue" points="631.817,-30.0033 628.68,-19.8837 624.822,-29.7512 631.817,-30.0033"/>
</g>
<!-- Node6 -->
<g id="node6" class="node"><title>Node6</title>
<g id="a_node6"><a xlink:href="../../d5/d6f/phool_8h.html" target="_top" xlink:title="phool.h">
<polygon fill="none" stroke="black" points="445.5,-56.5 445.5,-75.5 492.5,-75.5 492.5,-56.5 445.5,-56.5"/>
<text text-anchor="middle" x="469" y="-63.5" font-family="FreeSans" font-size="10.00">phool.h</text>
</a>
</g>
</g>
<!-- Node5&#45;&gt;Node6 -->
<g id="edge5" class="edge"><title>Node5&#45;&gt;Node6</title>
<path fill="none" stroke="midnightblue" d="M517.681,-112.324C509.107,-104.341 496.188,-92.3128 485.812,-82.6529"/>
<polygon fill="midnightblue" stroke="midnightblue" points="488.192,-80.0865 478.488,-75.8339 483.422,-85.2098 488.192,-80.0865"/>
</g>
<!-- Node8 -->
<g id="node8" class="node"><title>Node8</title>
<polygon fill="none" stroke="#bfbfbf" points="511,-56.5 511,-75.5 555,-75.5 555,-56.5 511,-56.5"/>
<text text-anchor="middle" x="533" y="-63.5" font-family="FreeSans" font-size="10.00">iosfwd</text>
</g>
<!-- Node5&#45;&gt;Node8 -->
<g id="edge7" class="edge"><title>Node5&#45;&gt;Node8</title>
<path fill="none" stroke="midnightblue" d="M527.991,-112.083C528.786,-104.927 529.929,-94.6353 530.923,-85.6911"/>
<polygon fill="midnightblue" stroke="midnightblue" points="534.402,-86.0765 532.028,-75.7511 527.445,-85.3034 534.402,-86.0765"/>
</g>
<!-- Node9 -->
<g id="node9" class="node"><title>Node9</title>
<polygon fill="none" stroke="#bfbfbf" points="177,-56.5 177,-75.5 217,-75.5 217,-56.5 177,-56.5"/>
<text text-anchor="middle" x="197" y="-63.5" font-family="FreeSans" font-size="10.00">string</text>
</g>
<!-- Node5&#45;&gt;Node9 -->
<g id="edge8" class="edge"><title>Node5&#45;&gt;Node9</title>
<path fill="none" stroke="midnightblue" d="M496.84,-116.065C434.119,-105.801 290.243,-82.2579 227.355,-71.9672"/>
<polygon fill="midnightblue" stroke="midnightblue" points="227.719,-68.4803 217.285,-70.3193 226.588,-75.3884 227.719,-68.4803"/>
</g>
<!-- Node6&#45;&gt;Node7 -->
<g id="edge6" class="edge"><title>Node6&#45;&gt;Node7</title>
<path fill="none" stroke="midnightblue" d="M492.609,-57.0321C519.434,-47.9784 563.472,-33.1156 594.228,-22.7356"/>
<polygon fill="midnightblue" stroke="midnightblue" points="595.353,-26.05 603.708,-19.536 593.114,-19.4176 595.353,-26.05"/>
</g>
<!-- Node10&#45;&gt;Node4 -->
<g id="edge11" class="edge"><title>Node10&#45;&gt;Node4</title>
<path fill="none" stroke="midnightblue" d="M395.416,-392.417C418.43,-384.768 451.157,-372.27 477,-356 519.606,-329.177 522.154,-312.027 561,-280 573.809,-269.439 588.743,-258.236 600.507,-249.649"/>
<polygon fill="midnightblue" stroke="midnightblue" points="602.749,-252.347 608.797,-243.647 598.645,-246.676 602.749,-252.347"/>
</g>
<!-- Node11 -->
<g id="node11" class="node"><title>Node11</title>
<g id="a_node11"><a xlink:href="../../d9/d53/PHIOManager_8h.html" target="_top" xlink:title="PHIOManager.h">
<polygon fill="none" stroke="black" points="279,-112.5 279,-131.5 365,-131.5 365,-112.5 279,-112.5"/>
<text text-anchor="middle" x="322" y="-119.5" font-family="FreeSans" font-size="10.00">PHIOManager.h</text>
</a>
</g>
</g>
<!-- Node10&#45;&gt;Node11 -->
<g id="edge12" class="edge"><title>Node10&#45;&gt;Node11</title>
<path fill="none" stroke="midnightblue" d="M360.882,-392.349C348.792,-374.377 323,-331.314 323,-291 323,-291 323,-291 323,-233 323,-200.947 322.57,-163.642 322.274,-141.748"/>
<polygon fill="midnightblue" stroke="midnightblue" points="325.771,-141.507 322.131,-131.558 318.772,-141.606 325.771,-141.507"/>
</g>
<!-- Node12 -->
<g id="node12" class="node"><title>Node12</title>
<g id="a_node12"><a xlink:href="../../dd/de7/PHNodeIOManager_8h.html" target="_top" xlink:title="PHNodeIOManager.h">
<polygon fill="none" stroke="black" points="187,-168.5 187,-187.5 295,-187.5 295,-168.5 187,-168.5"/>
<text text-anchor="middle" x="241" y="-175.5" font-family="FreeSans" font-size="10.00">PHNodeIOManager.h</text>
</a>
</g>
</g>
<!-- Node10&#45;&gt;Node12 -->
<g id="edge15" class="edge"><title>Node10&#45;&gt;Node12</title>
<path fill="none" stroke="midnightblue" d="M351.78,-392.454C338.833,-384.5 320.551,-371.551 309,-356 271.436,-305.429 252.034,-231.557 244.632,-197.48"/>
<polygon fill="midnightblue" stroke="midnightblue" points="248.028,-196.622 242.572,-187.54 241.174,-198.042 248.028,-196.622"/>
</g>
<!-- Node14 -->
<g id="node14" class="node"><title>Node14</title>
<g id="a_node14"><a xlink:href="../../db/d17/PHTypedNodeIterator_8h.html" target="_top" xlink:title="PHTypedNodeIterator.h">
<polygon fill="none" stroke="black" points="351.5,-336.5 351.5,-355.5 468.5,-355.5 468.5,-336.5 351.5,-336.5"/>
<text text-anchor="middle" x="410" y="-343.5" font-family="FreeSans" font-size="10.00">PHTypedNodeIterator.h</text>
</a>
</g>
</g>
<!-- Node10&#45;&gt;Node14 -->
<g id="edge19" class="edge"><title>Node10&#45;&gt;Node14</title>
<path fill="none" stroke="midnightblue" d="M374.101,-392.083C380.237,-384.377 389.27,-373.033 396.739,-363.653"/>
<polygon fill="midnightblue" stroke="midnightblue" points="399.54,-365.754 403.032,-355.751 394.064,-361.394 399.54,-365.754"/>
</g>
<!-- Node19 -->
<g id="node19" class="node"><title>Node19</title>
<g id="a_node19"><a xlink:href="../../de/da7/phooldefs_8h.html" target="_top" xlink:title="phooldefs.h">
<polygon fill="none" stroke="black" points="74.5,-280.5 74.5,-299.5 139.5,-299.5 139.5,-280.5 74.5,-280.5"/>
<text text-anchor="middle" x="107" y="-287.5" font-family="FreeSans" font-size="10.00">phooldefs.h</text>
</a>
</g>
</g>
<!-- Node10&#45;&gt;Node19 -->
<g id="edge31" class="edge"><title>Node10&#45;&gt;Node19</title>
<path fill="none" stroke="midnightblue" d="M321.423,-400.69C275.669,-398.358 204.858,-389.065 154,-356 136.356,-344.529 123.164,-323.949 115.317,-309.013"/>
<polygon fill="midnightblue" stroke="midnightblue" points="118.313,-307.174 110.75,-299.755 112.036,-310.272 118.313,-307.174"/>
</g>
<!-- Node20 -->
<g id="node20" class="node"><title>Node20</title>
<polygon fill="none" stroke="#bfbfbf" points="603.5,-336.5 603.5,-355.5 662.5,-355.5 662.5,-336.5 603.5,-336.5"/>
<text text-anchor="middle" x="633" y="-343.5" font-family="FreeSans" font-size="10.00">TObject.h</text>
</g>
<!-- Node10&#45;&gt;Node20 -->
<g id="edge33" class="edge"><title>Node10&#45;&gt;Node20</title>
<path fill="none" stroke="midnightblue" d="M409.148,-392.444C459.752,-382.171 543.966,-365.075 593.406,-355.038"/>
<polygon fill="midnightblue" stroke="midnightblue" points="594.299,-358.428 603.403,-353.008 592.907,-351.568 594.299,-358.428"/>
</g>
<!-- Node10&#45;&gt;Node9 -->
<g id="edge34" class="edge"><title>Node10&#45;&gt;Node9</title>
<path fill="none" stroke="midnightblue" d="M348.183,-392.38C332.266,-384.466 309.481,-371.616 293,-356 227.317,-293.765 204.751,-274.44 178,-188 166.993,-152.433 179.93,-108.916 189.207,-84.9616"/>
<polygon fill="midnightblue" stroke="midnightblue" points="192.449,-86.2822 192.996,-75.7015 185.97,-83.6314 192.449,-86.2822"/>
</g>
<!-- Node11&#45;&gt;Node6 -->
<g id="edge13" class="edge"><title>Node11&#45;&gt;Node6</title>
<path fill="none" stroke="midnightblue" d="M345.293,-112.444C369.807,-103.438 408.596,-89.1891 436.2,-79.049"/>
<polygon fill="midnightblue" stroke="midnightblue" points="437.637,-82.25 445.816,-75.5164 435.223,-75.6793 437.637,-82.25"/>
</g>
<!-- Node11&#45;&gt;Node9 -->
<g id="edge14" class="edge"><title>Node11&#45;&gt;Node9</title>
<path fill="none" stroke="midnightblue" d="M302.193,-112.444C281.713,-103.596 249.517,-89.6875 226.135,-79.5865"/>
<polygon fill="midnightblue" stroke="midnightblue" points="227.282,-76.2692 216.714,-75.5164 224.506,-82.6953 227.282,-76.2692"/>
</g>
<!-- Node12&#45;&gt;Node11 -->
<g id="edge16" class="edge"><title>Node12&#45;&gt;Node11</title>
<path fill="none" stroke="midnightblue" d="M254.014,-168.324C266.532,-159.979 285.682,-147.212 300.471,-137.352"/>
<polygon fill="midnightblue" stroke="midnightblue" points="302.639,-140.114 309.018,-131.655 298.756,-134.289 302.639,-140.114"/>
</g>
<!-- Node12&#45;&gt;Node9 -->
<g id="edge17" class="edge"><title>Node12&#45;&gt;Node9</title>
<path fill="none" stroke="midnightblue" d="M235.415,-168.328C229.9,-159.474 221.512,-145.194 216,-132 209.627,-116.745 204.522,-98.6357 201.215,-85.4114"/>
<polygon fill="midnightblue" stroke="midnightblue" points="204.604,-84.5325 198.872,-75.6218 197.796,-86.1619 204.604,-84.5325"/>
</g>
<!-- Node13 -->
<g id="node13" class="node"><title>Node13</title>
<polygon fill="none" stroke="#bfbfbf" points="225.5,-112.5 225.5,-131.5 260.5,-131.5 260.5,-112.5 225.5,-112.5"/>
<text text-anchor="middle" x="243" y="-119.5" font-family="FreeSans" font-size="10.00">map</text>
</g>
<!-- Node12&#45;&gt;Node13 -->
<g id="edge18" class="edge"><title>Node12&#45;&gt;Node13</title>
<path fill="none" stroke="midnightblue" d="M241.33,-168.083C241.592,-161.006 241.968,-150.861 242.297,-141.986"/>
<polygon fill="midnightblue" stroke="midnightblue" points="245.803,-141.874 242.676,-131.751 238.808,-141.615 245.803,-141.874"/>
</g>
<!-- Node15 -->
<g id="node15" class="node"><title>Node15</title>
<g id="a_node15"><a xlink:href="../../d8/dfd/PHNodeIterator_8h.html" target="_top" xlink:title="PHNodeIterator.h">
<polygon fill="none" stroke="black" points="417.5,-280.5 417.5,-299.5 508.5,-299.5 508.5,-280.5 417.5,-280.5"/>
<text text-anchor="middle" x="463" y="-287.5" font-family="FreeSans" font-size="10.00">PHNodeIterator.h</text>
</a>
</g>
</g>
<!-- Node14&#45;&gt;Node15 -->
<g id="edge20" class="edge"><title>Node14&#45;&gt;Node15</title>
<path fill="none" stroke="midnightblue" d="M418.752,-336.083C426.47,-328.22 437.905,-316.569 447.217,-307.081"/>
<polygon fill="midnightblue" stroke="midnightblue" points="449.904,-309.34 454.411,-299.751 444.908,-304.436 449.904,-309.34"/>
</g>
<!-- Node18 -->
<g id="node18" class="node"><title>Node18</title>
<polygon fill="none" stroke="#bfbfbf" points="351,-280.5 351,-299.5 399,-299.5 399,-280.5 351,-280.5"/>
<text text-anchor="middle" x="375" y="-287.5" font-family="FreeSans" font-size="10.00">cstddef</text>
</g>
<!-- Node14&#45;&gt;Node18 -->
<g id="edge30" class="edge"><title>Node14&#45;&gt;Node18</title>
<path fill="none" stroke="midnightblue" d="M404.22,-336.083C399.328,-328.534 392.173,-317.495 386.167,-308.23"/>
<polygon fill="midnightblue" stroke="midnightblue" points="389.048,-306.239 380.672,-299.751 383.174,-310.046 389.048,-306.239"/>
</g>
<!-- Node15&#45;&gt;Node6 -->
<g id="edge21" class="edge"><title>Node15&#45;&gt;Node6</title>
<path fill="none" stroke="midnightblue" d="M483.328,-280.465C498.786,-272.988 519.467,-260.7 532,-244 563.225,-202.393 558.362,-183.457 566,-132 567.305,-123.207 570.783,-119.492 566,-112 558.592,-100.397 527.21,-87.1342 502.119,-78.0295"/>
<polygon fill="midnightblue" stroke="midnightblue" points="503.126,-74.673 492.531,-74.6372 500.791,-81.2721 503.126,-74.673"/>
</g>
<!-- Node16 -->
<g id="node16" class="node"><title>Node16</title>
<g id="a_node16"><a xlink:href="../../d8/d30/PHCompositeNode_8h.html" target="_top" xlink:title="PHCompositeNode.h">
<polygon fill="none" stroke="black" points="417,-224.5 417,-243.5 523,-243.5 523,-224.5 417,-224.5"/>
<text text-anchor="middle" x="470" y="-231.5" font-family="FreeSans" font-size="10.00">PHCompositeNode.h</text>
</a>
</g>
</g>
<!-- Node15&#45;&gt;Node16 -->
<g id="edge22" class="edge"><title>Node15&#45;&gt;Node16</title>
<path fill="none" stroke="midnightblue" d="M464.156,-280.083C465.084,-272.927 466.418,-262.635 467.577,-253.691"/>
<polygon fill="midnightblue" stroke="midnightblue" points="471.051,-254.118 468.866,-243.751 464.109,-253.218 471.051,-254.118"/>
</g>
<!-- Node17 -->
<g id="node17" class="node"><title>Node17</title>
<g id="a_node17"><a xlink:href="../../db/dd5/PHPointerList_8h.html" target="_top" xlink:title="PHPointerList.h">
<polygon fill="none" stroke="black" points="357.5,-168.5 357.5,-187.5 440.5,-187.5 440.5,-168.5 357.5,-168.5"/>
<text text-anchor="middle" x="399" y="-175.5" font-family="FreeSans" font-size="10.00">PHPointerList.h</text>
</a>
</g>
</g>
<!-- Node15&#45;&gt;Node17 -->
<g id="edge29" class="edge"><title>Node15&#45;&gt;Node17</title>
<path fill="none" stroke="midnightblue" d="M446.921,-280.389C434.151,-272.646 416.995,-260.031 408,-244 400.073,-229.873 398.176,-211.387 398.055,-197.742"/>
<polygon fill="midnightblue" stroke="midnightblue" points="401.557,-197.696 398.278,-187.621 394.558,-197.541 401.557,-197.696"/>
</g>
<!-- Node16&#45;&gt;Node6 -->
<g id="edge23" class="edge"><title>Node16&#45;&gt;Node6</title>
<path fill="none" stroke="midnightblue" d="M469.946,-224.075C469.789,-197.945 469.327,-121.211 469.112,-85.577"/>
<polygon fill="midnightblue" stroke="midnightblue" points="472.612,-85.5468 469.052,-75.5681 465.612,-85.589 472.612,-85.5468"/>
</g>
<!-- Node16&#45;&gt;Node5 -->
<g id="edge24" class="edge"><title>Node16&#45;&gt;Node5</title>
<path fill="none" stroke="midnightblue" d="M474.473,-224.368C483.796,-206.376 505.469,-164.55 517.866,-140.627"/>
<polygon fill="midnightblue" stroke="midnightblue" points="521.055,-142.081 522.548,-131.591 514.84,-138.86 521.055,-142.081"/>
</g>
<!-- Node16&#45;&gt;Node17 -->
<g id="edge25" class="edge"><title>Node16&#45;&gt;Node17</title>
<path fill="none" stroke="midnightblue" d="M458.593,-224.324C447.891,-216.185 431.659,-203.839 418.837,-194.087"/>
<polygon fill="midnightblue" stroke="midnightblue" points="420.693,-191.102 410.615,-187.834 416.456,-196.673 420.693,-191.102"/>
</g>
<!-- Node17&#45;&gt;Node6 -->
<g id="edge26" class="edge"><title>Node17&#45;&gt;Node6</title>
<path fill="none" stroke="midnightblue" d="M404.493,-168.368C415.994,-150.296 442.797,-108.176 457.986,-84.3074"/>
<polygon fill="midnightblue" stroke="midnightblue" points="461.117,-85.9071 463.533,-75.5914 455.211,-82.149 461.117,-85.9071"/>
</g>
<!-- Node17&#45;&gt;Node5 -->
<g id="edge27" class="edge"><title>Node17&#45;&gt;Node5</title>
<path fill="none" stroke="midnightblue" d="M419.282,-168.444C440.347,-159.557 473.517,-145.563 497.486,-135.451"/>
<polygon fill="midnightblue" stroke="midnightblue" points="498.96,-138.628 506.813,-131.516 496.239,-132.179 498.96,-138.628"/>
</g>
<!-- Node17&#45;&gt;Node7 -->
<g id="edge28" class="edge"><title>Node17&#45;&gt;Node7</title>
<path fill="none" stroke="midnightblue" d="M398.899,-168.492C399.127,-146.419 402.937,-86.8971 436,-56 458.354,-35.1104 542.798,-21.5269 592.272,-15.1803"/>
<polygon fill="midnightblue" stroke="midnightblue" points="592.773,-18.645 602.264,-13.9358 591.908,-11.6987 592.773,-18.645"/>
</g>
<!-- Node19&#45;&gt;Node9 -->
<g id="edge32" class="edge"><title>Node19&#45;&gt;Node9</title>
<path fill="none" stroke="midnightblue" d="M106.974,-280.193C107.273,-253.095 111.06,-169.338 145,-112 152.222,-99.7997 163.932,-89.2353 174.414,-81.4142"/>
<polygon fill="midnightblue" stroke="midnightblue" points="176.637,-84.1296 182.803,-75.5141 172.61,-78.4038 176.637,-84.1296"/>
</g>
<!-- Node21&#45;&gt;Node20 -->
<g id="edge36" class="edge"><title>Node21&#45;&gt;Node20</title>
<path fill="none" stroke="midnightblue" d="M635.505,-392.083C635.111,-385.006 634.548,-374.861 634.055,-365.986"/>
<polygon fill="midnightblue" stroke="midnightblue" points="637.536,-365.542 633.486,-355.751 630.546,-365.93 637.536,-365.542"/>
</g>
<!-- Node21&#45;&gt;Node7 -->
<g id="edge37" class="edge"><title>Node21&#45;&gt;Node7</title>
<path fill="none" stroke="midnightblue" d="M644.287,-392.364C652.141,-383.762 663.782,-369.872 671,-356 684.951,-329.187 691,-321.225 691,-291 691,-291 691,-291 691,-121 691,-83.6216 663.496,-47.2368 645.125,-27.1037"/>
<polygon fill="midnightblue" stroke="midnightblue" points="647.569,-24.5945 638.148,-19.7474 642.49,-29.4116 647.569,-24.5945"/>
</g>
</g>
</svg>
