<?xml version="1.0" encoding="UTF-8" standalone="no"?>
<!DOCTYPE svg PUBLIC "-//W3C//DTD SVG 1.1//EN"
 "http://www.w3.org/Graphics/SVG/1.1/DTD/svg11.dtd">
<!-- Generated by graphviz version 2.30.1 (20200930.0103)
 -->
<!-- Title: EventDispUI::ViewSide Pages: 1 -->
<svg width="308pt" height="115pt"
 viewBox="0.00 0.00 308.00 115.00" xmlns="http://www.w3.org/2000/svg" xmlns:xlink="http://www.w3.org/1999/xlink">
<g id="graph0" class="graph" transform="scale(1 1) rotate(0) translate(4 111)">
<title>EventDispUI::ViewSide</title>
<!-- Node1 -->
<g id="node1" class="node"><title>Node1</title>
<polygon fill="#bfbfbf" stroke="black" points="0.5,-49.5 0.5,-68.5 113.5,-68.5 113.5,-49.5 0.5,-49.5"/>
<text text-anchor="middle" x="57" y="-56.5" font-family="FreeSans" font-size="10.00">EventDispUI::ViewSide</text>
</g>
<!-- Node2 -->
<g id="node2" class="node"><title>Node2</title>
<g id="a_node2"><a xlink:href="../../da/d29/classFun4AllServer.html#ac6d47a2b3bc98933a03fd63bb75d624a" target="_top" xlink:title="Fun4AllServer::getSubsysReco">
<polygon fill="none" stroke="black" points="150.5,-87.5 150.5,-106.5 299.5,-106.5 299.5,-87.5 150.5,-87.5"/>
<text text-anchor="middle" x="225" y="-94.5" font-family="FreeSans" font-size="10.00">Fun4AllServer::getSubsysReco</text>
</a>
</g>
</g>
<!-- Node1&#45;&gt;Node2 -->
<g id="edge1" class="edge"><title>Node1&#45;&gt;Node2</title>
<path fill="none" stroke="midnightblue" d="M99.8888,-68.589C121.893,-73.6261 149.055,-79.8438 172.352,-85.1771"/>
<polygon fill="midnightblue" stroke="midnightblue" points="171.884,-88.6602 182.412,-87.4799 173.446,-81.8367 171.884,-88.6602"/>
</g>
<!-- Node3 -->
<g id="node3" class="node"><title>Node3</title>
<g id="a_node3"><a xlink:href="../../da/d29/classFun4AllServer.html#a3e55156f91b2c94bb6c4ef33ffce587a" target="_top" xlink:title="Fun4AllServer::instance">
<polygon fill="none" stroke="black" points="166,-49.5 166,-68.5 284,-68.5 284,-49.5 166,-49.5"/>
<text text-anchor="middle" x="225" y="-56.5" font-family="FreeSans" font-size="10.00">Fun4AllServer::instance</text>
</a>
</g>
</g>
<!-- Node1&#45;&gt;Node3 -->
<g id="edge2" class="edge"><title>Node1&#45;&gt;Node3</title>
<path fill="none" stroke="midnightblue" d="M113.737,-59C127.228,-59 141.801,-59 155.793,-59"/>
<polygon fill="midnightblue" stroke="midnightblue" points="155.856,-62.5001 165.856,-59 155.856,-55.5001 155.856,-62.5001"/>
</g>
<!-- Node4 -->
<g id="node4" class="node"><title>Node4</title>
<g id="a_node4"><a xlink:href="../../d1/dce/classPHEventDisplay.html#a436014b347f622e847eb2bbdbdd4dbf3" target="_top" xlink:title="PHEventDisplay::set\l_view_side">
<polygon fill="none" stroke="black" points="174,-0 174,-30 276,-30 276,-0 174,-0"/>
<text text-anchor="start" x="182" y="-18" font-family="FreeSans" font-size="10.00">PHEventDisplay::set</text>
<text text-anchor="middle" x="225" y="-7" font-family="FreeSans" font-size="10.00">_view_side</text>
</a>
</g>
</g>
<!-- Node1&#45;&gt;Node4 -->
<g id="edge3" class="edge"><title>Node1&#45;&gt;Node4</title>
<path fill="none" stroke="midnightblue" d="M94.0195,-49.4527C114.461,-44.0343 140.572,-37.1134 164.021,-30.8981"/>
<polygon fill="midnightblue" stroke="midnightblue" points="165.114,-34.2294 173.883,-28.284 163.32,-27.463 165.114,-34.2294"/>
</g>
</g>
</svg>
