<?xml version="1.0" encoding="UTF-8" standalone="no"?>
<!DOCTYPE svg PUBLIC "-//W3C//DTD SVG 1.1//EN"
 "http://www.w3.org/Graphics/SVG/1.1/DTD/svg11.dtd">
<!-- Generated by graphviz version 2.40.1 (20161225.0304)
 -->
<!-- Title: boost::shared_ptr::swap Pages: 1 -->
<svg width="444pt" height="209pt"
 viewBox="0.00 0.00 444.00 208.50" xmlns="http://www.w3.org/2000/svg" xmlns:xlink="http://www.w3.org/1999/xlink">
<g id="graph0" class="graph" transform="scale(1 1) rotate(0) translate(4 204.5)">
<title>boost::shared_ptr::swap</title>
<!-- Node70 -->
<g id="node1" class="node">
<title>Node70</title>
<polygon fill="#bfbfbf" stroke="#000000" points="0,-66.5 0,-85.5 116,-85.5 116,-66.5 0,-66.5"/>
<text text-anchor="middle" x="58" y="-73.5" font-family="FreeSans" font-size="10.00" fill="#000000">boost::shared_ptr::swap</text>
</g>
<!-- Node71 -->
<g id="node2" class="node">
<title>Node71</title>
<g id="a_node2"><a xlink:href="../../d4/da9/namespaceboost.html#a8940021c293d75b997d0a2fd57fb97f4" target="_top" xlink:title="boost::atomic_compare\l_exchange">
<polygon fill="none" stroke="#000000" points="158,-167 158,-197 274,-197 274,-167 158,-167"/>
<text text-anchor="start" x="166" y="-185" font-family="FreeSans" font-size="10.00" fill="#000000">boost::atomic_compare</text>
<text text-anchor="middle" x="216" y="-174" font-family="FreeSans" font-size="10.00" fill="#000000">_exchange</text>
</a>
</g>
</g>
<!-- Node70&#45;&gt;Node71 -->
<g id="edge1" class="edge">
<title>Node70&#45;&gt;Node71</title>
<path fill="none" stroke="#191970" d="M74.7442,-92.7894C92.6638,-110.0742 122.512,-136.9587 152,-155 159.2008,-159.4056 167.2488,-163.4206 175.1423,-166.9292"/>
<polygon fill="#191970" stroke="#191970" points="76.9872,-90.0871 67.3944,-85.5895 72.0887,-95.0876 76.9872,-90.0871"/>
</g>
<!-- Node73 -->
<g id="node4" class="node">
<title>Node73</title>
<g id="a_node4"><a xlink:href="../../d4/da9/namespaceboost.html#a6d367cd4931325d822c116faf5d8b6a5" target="_top" xlink:title="boost::atomic_exchange">
<polygon fill="none" stroke="#000000" points="156,-126.5 156,-145.5 276,-145.5 276,-126.5 156,-126.5"/>
<text text-anchor="middle" x="216" y="-133.5" font-family="FreeSans" font-size="10.00" fill="#000000">boost::atomic_exchange</text>
</a>
</g>
</g>
<!-- Node70&#45;&gt;Node73 -->
<g id="edge3" class="edge">
<title>Node70&#45;&gt;Node73</title>
<path fill="none" stroke="#191970" d="M87.1606,-89.8233C105.5347,-98.256 129.8836,-108.9284 152,-117 161.2548,-120.3776 171.4194,-123.6069 180.8695,-126.4141"/>
<polygon fill="#191970" stroke="#191970" points="88.4251,-86.5518 77.8805,-85.5218 85.4813,-92.9027 88.4251,-86.5518"/>
</g>
<!-- Node75 -->
<g id="node6" class="node">
<title>Node75</title>
<g id="a_node6"><a xlink:href="../../d4/da9/namespaceboost.html#a8ad2de7e358794f915f6324942ff57d7" target="_top" xlink:title="boost::atomic_store">
<polygon fill="none" stroke="#000000" points="166,-88.5 166,-107.5 266,-107.5 266,-88.5 166,-88.5"/>
<text text-anchor="middle" x="216" y="-95.5" font-family="FreeSans" font-size="10.00" fill="#000000">boost::atomic_store</text>
</a>
</g>
</g>
<!-- Node70&#45;&gt;Node75 -->
<g id="edge5" class="edge">
<title>Node70&#45;&gt;Node75</title>
<path fill="none" stroke="#191970" d="M126.4243,-85.5274C139.6898,-87.3745 153.3605,-89.278 165.9035,-91.0245"/>
<polygon fill="#191970" stroke="#191970" points="126.7716,-82.0421 116.3845,-84.1295 125.8062,-88.9752 126.7716,-82.0421"/>
</g>
<!-- Node77 -->
<g id="node8" class="node">
<title>Node77</title>
<g id="a_node8"><a xlink:href="../../da/d18/classboost_1_1shared__ptr.html#ae0a4cd2532b75eb9b58f9a699b534a3d" target="_top" xlink:title="boost::shared_ptr\&lt;\l boost::thread \&gt;::operator=">
<polygon fill="none" stroke="#000000" points="152,-39 152,-69 280,-69 280,-39 152,-39"/>
<text text-anchor="start" x="160" y="-57" font-family="FreeSans" font-size="10.00" fill="#000000">boost::shared_ptr&lt;</text>
<text text-anchor="middle" x="216" y="-46" font-family="FreeSans" font-size="10.00" fill="#000000"> boost::thread &gt;::operator=</text>
</a>
</g>
</g>
<!-- Node70&#45;&gt;Node77 -->
<g id="edge7" class="edge">
<title>Node70&#45;&gt;Node77</title>
<path fill="none" stroke="#191970" d="M126.5024,-66.4617C134.8838,-65.2947 143.4256,-64.1053 151.7416,-62.9474"/>
<polygon fill="#191970" stroke="#191970" points="125.8062,-63.0248 116.3845,-67.8705 126.7716,-69.9579 125.8062,-63.0248"/>
</g>
<!-- Node78 -->
<g id="node9" class="node">
<title>Node78</title>
<g id="a_node9"><a xlink:href="../../d4/da9/namespaceboost.html#a51f2976f1c5b8cf202f9b843361c56d0" target="_top" xlink:title="boost::swap">
<polygon fill="none" stroke="#000000" points="183,-.5 183,-19.5 249,-19.5 249,-.5 183,-.5"/>
<text text-anchor="middle" x="216" y="-7.5" font-family="FreeSans" font-size="10.00" fill="#000000">boost::swap</text>
</a>
</g>
</g>
<!-- Node70&#45;&gt;Node78 -->
<g id="edge8" class="edge">
<title>Node70&#45;&gt;Node78</title>
<path fill="none" stroke="#191970" d="M74.2528,-60.2274C92.6829,-47.5767 123.836,-31.1225 152,-20 161.81,-16.1259 172.7326,-12.6052 182.7373,-10.0805"/>
<polygon fill="#191970" stroke="#191970" points="72.0389,-57.5114 66.0769,-66.2696 76.1993,-63.141 72.0389,-57.5114"/>
</g>
<!-- Node72 -->
<g id="node3" class="node">
<title>Node72</title>
<g id="a_node3"><a xlink:href="../../d4/da9/namespaceboost.html#a469f2906c0424b86520ecf5d00d6aa1f" target="_top" xlink:title="boost::atomic_compare\l_exchange_explicit">
<polygon fill="none" stroke="#000000" points="318,-170 318,-200 434,-200 434,-170 318,-170"/>
<text text-anchor="start" x="326" y="-188" font-family="FreeSans" font-size="10.00" fill="#000000">boost::atomic_compare</text>
<text text-anchor="middle" x="376" y="-177" font-family="FreeSans" font-size="10.00" fill="#000000">_exchange_explicit</text>
</a>
</g>
</g>
<!-- Node71&#45;&gt;Node72 -->
<g id="edge2" class="edge">
<title>Node71&#45;&gt;Node72</title>
<path fill="none" stroke="#191970" d="M284.3434,-183.2814C295.4931,-183.4905 306.9515,-183.7053 317.8271,-183.9093"/>
<polygon fill="#191970" stroke="#191970" points="284.2802,-179.7797 274.2163,-183.0916 284.1489,-186.7785 284.2802,-179.7797"/>
</g>
<!-- Node74 -->
<g id="node5" class="node">
<title>Node74</title>
<g id="a_node5"><a xlink:href="../../d4/da9/namespaceboost.html#a7ec0dbdf68fd610df03b2336c97c0a9d" target="_top" xlink:title="boost::atomic_exchange\l_explicit">
<polygon fill="none" stroke="#000000" points="316,-121 316,-151 436,-151 436,-121 316,-121"/>
<text text-anchor="start" x="324" y="-139" font-family="FreeSans" font-size="10.00" fill="#000000">boost::atomic_exchange</text>
<text text-anchor="middle" x="376" y="-128" font-family="FreeSans" font-size="10.00" fill="#000000">_explicit</text>
</a>
</g>
</g>
<!-- Node73&#45;&gt;Node74 -->
<g id="edge4" class="edge">
<title>Node73&#45;&gt;Node74</title>
<path fill="none" stroke="#191970" d="M286.2398,-136C296.1289,-136 306.22,-136 315.8964,-136"/>
<polygon fill="#191970" stroke="#191970" points="286.0333,-132.5001 276.0333,-136 286.0333,-139.5001 286.0333,-132.5001"/>
</g>
<!-- Node76 -->
<g id="node7" class="node">
<title>Node76</title>
<g id="a_node7"><a xlink:href="../../d4/da9/namespaceboost.html#a4502baaa62095798a53105d9455aa791" target="_top" xlink:title="boost::atomic_store\l_explicit">
<polygon fill="none" stroke="#000000" points="326,-72 326,-102 426,-102 426,-72 326,-72"/>
<text text-anchor="start" x="334" y="-90" font-family="FreeSans" font-size="10.00" fill="#000000">boost::atomic_store</text>
<text text-anchor="middle" x="376" y="-79" font-family="FreeSans" font-size="10.00" fill="#000000">_explicit</text>
</a>
</g>
</g>
<!-- Node75&#45;&gt;Node76 -->
<g id="edge6" class="edge">
<title>Node75&#45;&gt;Node76</title>
<path fill="none" stroke="#191970" d="M276.2218,-93.8598C292.6287,-92.7318 310.2197,-91.5224 325.9921,-90.438"/>
<polygon fill="#191970" stroke="#191970" points="275.9224,-90.372 266.186,-94.5497 276.4025,-97.3555 275.9224,-90.372"/>
</g>
<!-- Node78&#45;&gt;Node70 -->
<g id="edge9" class="edge">
<title>Node78&#45;&gt;Node70</title>
<path fill="none" stroke="#191970" d="M194.3858,-23.2748C181.8299,-27.7914 165.8122,-32.5453 152,-38 130.6174,-46.4443 107.512,-57.962 89.5595,-66.4089"/>
<polygon fill="#191970" stroke="#191970" points="195.9499,-26.4216 203.994,-19.5265 193.4058,-19.9002 195.9499,-26.4216"/>
</g>
</g>
</svg>
