<?xml version="1.0" encoding="UTF-8" standalone="no"?>
<!DOCTYPE svg PUBLIC "-//W3C//DTD SVG 1.1//EN"
 "http://www.w3.org/Graphics/SVG/1.1/DTD/svg11.dtd">
<!-- Generated by graphviz version 2.30.1 (20180413.0232)
 -->
<!-- Title: KalmanDSTrk::buildPropSegments Pages: 1 -->
<svg width="786pt" height="229pt"
 viewBox="0.00 0.00 786.00 229.00" xmlns="http://www.w3.org/2000/svg" xmlns:xlink="http://www.w3.org/1999/xlink">
<g id="graph0" class="graph" transform="scale(1 1) rotate(0) translate(4 225)">
<title>KalmanDSTrk::buildPropSegments</title>
<!-- Node1 -->
<g id="node1" class="node"><title>Node1</title>
<polygon fill="#bfbfbf" stroke="black" points="0,-106.5 0,-125.5 166,-125.5 166,-106.5 0,-106.5"/>
<text text-anchor="middle" x="83" y="-113.5" font-family="FreeSans" font-size="10.00">KalmanDSTrk::buildPropSegments</text>
</g>
<!-- Node2 -->
<g id="node2" class="node"><title>Node2</title>
<g id="a_node2"><a xlink:href="../../d0/d1e/classPropSegment.html#a50efd15badce32c007c6e1178b2ce977" target="_top" xlink:title="PropSegment::fit">
<polygon fill="none" stroke="black" points="220,-87.5 220,-106.5 308,-106.5 308,-87.5 220,-87.5"/>
<text text-anchor="middle" x="264" y="-94.5" font-family="FreeSans" font-size="10.00">PropSegment::fit</text>
</a>
</g>
</g>
<!-- Node1&#45;&gt;Node2 -->
<g id="edge1" class="edge"><title>Node1&#45;&gt;Node2</title>
<path fill="none" stroke="midnightblue" d="M166.166,-107.279C180.96,-105.708 196.023,-104.109 209.723,-102.655"/>
<polygon fill="midnightblue" stroke="midnightblue" points="210.333,-106.11 219.908,-101.574 209.594,-99.1492 210.333,-106.11"/>
</g>
<!-- Node9 -->
<g id="node9" class="node"><title>Node9</title>
<g id="a_node9"><a xlink:href="../../d5/d83/classSRawEvent.html#a33468312a0fdd8ebe82ce5f56ce0f1c8" target="_top" xlink:title="SRawEvent::getPartialHit\lPairsInSuperDetector">
<polygon fill="none" stroke="black" points="202,-19 202,-49 326,-49 326,-19 202,-19"/>
<text text-anchor="start" x="210" y="-37" font-family="FreeSans" font-size="10.00">SRawEvent::getPartialHit</text>
<text text-anchor="middle" x="264" y="-26" font-family="FreeSans" font-size="10.00">PairsInSuperDetector</text>
</a>
</g>
</g>
<!-- Node1&#45;&gt;Node9 -->
<g id="edge8" class="edge"><title>Node1&#45;&gt;Node9</title>
<path fill="none" stroke="midnightblue" d="M104.884,-106.433C133.16,-93.4799 184.271,-70.0659 220.729,-53.3645"/>
<polygon fill="midnightblue" stroke="midnightblue" points="222.491,-56.4071 230.125,-49.0602 219.576,-50.043 222.491,-56.4071"/>
</g>
<!-- Node11 -->
<g id="node11" class="node"><title>Node11</title>
<g id="a_node11"><a xlink:href="../../d0/d1e/classPropSegment.html#a611e23de53072596ca60acbdfd397345" target="_top" xlink:title="isValid returns non zero if object contains vailid data ">
<polygon fill="none" stroke="black" points="210,-125.5 210,-144.5 318,-144.5 318,-125.5 210,-125.5"/>
<text text-anchor="middle" x="264" y="-132.5" font-family="FreeSans" font-size="10.00">PropSegment::isValid</text>
</a>
</g>
</g>
<!-- Node1&#45;&gt;Node11 -->
<g id="edge10" class="edge"><title>Node1&#45;&gt;Node11</title>
<path fill="none" stroke="midnightblue" d="M166.166,-124.721C177.448,-125.919 188.888,-127.133 199.76,-128.287"/>
<polygon fill="midnightblue" stroke="midnightblue" points="199.673,-131.798 209.987,-129.373 200.412,-124.837 199.673,-131.798"/>
</g>
<!-- Node13 -->
<g id="node13" class="node"><title>Node13</title>
<g id="a_node13"><a xlink:href="../../d0/d1e/classPropSegment.html#a04dbc4d41941e680c639e94c335768c6" target="_top" xlink:title="PropSegment::print">
<polygon fill="none" stroke="black" points="214.5,-163.5 214.5,-182.5 313.5,-182.5 313.5,-163.5 214.5,-163.5"/>
<text text-anchor="middle" x="264" y="-170.5" font-family="FreeSans" font-size="10.00">PropSegment::print</text>
</a>
</g>
</g>
<!-- Node1&#45;&gt;Node13 -->
<g id="edge13" class="edge"><title>Node1&#45;&gt;Node13</title>
<path fill="none" stroke="midnightblue" d="M113.556,-125.605C137.408,-133.335 171.839,-144.447 202,-154 208.607,-156.093 215.623,-158.296 222.455,-160.431"/>
<polygon fill="midnightblue" stroke="midnightblue" points="221.674,-163.854 232.263,-163.489 223.758,-157.171 221.674,-163.854"/>
</g>
<!-- Node3 -->
<g id="node3" class="node"><title>Node3</title>
<g id="a_node3"><a xlink:href="../../d0/d1e/classPropSegment.html#a9642b31a718683d585cc9f92e0e372c5" target="_top" xlink:title="PropSegment::getNHits">
<polygon fill="none" stroke="black" points="375.5,-125.5 375.5,-144.5 492.5,-144.5 492.5,-125.5 375.5,-125.5"/>
<text text-anchor="middle" x="434" y="-132.5" font-family="FreeSans" font-size="10.00">PropSegment::getNHits</text>
</a>
</g>
</g>
<!-- Node2&#45;&gt;Node3 -->
<g id="edge2" class="edge"><title>Node2&#45;&gt;Node3</title>
<path fill="none" stroke="midnightblue" d="M307.393,-106.589C329.763,-111.649 357.398,-117.9 381.047,-123.249"/>
<polygon fill="midnightblue" stroke="midnightblue" points="380.386,-126.687 390.911,-125.48 381.93,-119.86 380.386,-126.687"/>
</g>
<!-- Node4 -->
<g id="node4" class="node"><title>Node4</title>
<g id="a_node4"><a xlink:href="../../d0/d1e/classPropSegment.html#ad850340623d574dc60447e572794b798" target="_top" xlink:title="PropSegment::fit_2hits">
<polygon fill="none" stroke="black" points="377.5,-87.5 377.5,-106.5 490.5,-106.5 490.5,-87.5 377.5,-87.5"/>
<text text-anchor="middle" x="434" y="-94.5" font-family="FreeSans" font-size="10.00">PropSegment::fit_2hits</text>
</a>
</g>
</g>
<!-- Node2&#45;&gt;Node4 -->
<g id="edge3" class="edge"><title>Node2&#45;&gt;Node4</title>
<path fill="none" stroke="midnightblue" d="M308.264,-97C326.147,-97 347.279,-97 367.019,-97"/>
<polygon fill="midnightblue" stroke="midnightblue" points="367.19,-100.5 377.19,-97 367.19,-93.5001 367.19,-100.5"/>
</g>
<!-- Node5 -->
<g id="node5" class="node"><title>Node5</title>
<g id="a_node5"><a xlink:href="../../d0/d1e/classPropSegment.html#aca28cdf1a12ff0d4a0c58a5fbd595dff" target="_top" xlink:title="PropSegment::fit_34hits">
<polygon fill="none" stroke="black" points="374.5,-49.5 374.5,-68.5 493.5,-68.5 493.5,-49.5 374.5,-49.5"/>
<text text-anchor="middle" x="434" y="-56.5" font-family="FreeSans" font-size="10.00">PropSegment::fit_34hits</text>
</a>
</g>
</g>
<!-- Node2&#45;&gt;Node5 -->
<g id="edge4" class="edge"><title>Node2&#45;&gt;Node5</title>
<path fill="none" stroke="midnightblue" d="M307.393,-87.411C329.763,-82.3513 357.398,-76.1004 381.047,-70.7512"/>
<polygon fill="midnightblue" stroke="midnightblue" points="381.93,-74.1401 390.911,-68.5201 380.386,-67.3125 381.93,-74.1401"/>
</g>
<!-- Node6 -->
<g id="node6" class="node"><title>Node6</title>
<g id="a_node6"><a xlink:href="../../d0/d1e/classPropSegment.html#a81e4f482e41368e5d21508ec8f4a765f" target="_top" xlink:title="PropSegment::resolveLR">
<polygon fill="none" stroke="black" points="542,-71.5 542,-90.5 664,-90.5 664,-71.5 542,-71.5"/>
<text text-anchor="middle" x="603" y="-78.5" font-family="FreeSans" font-size="10.00">PropSegment::resolveLR</text>
</a>
</g>
</g>
<!-- Node5&#45;&gt;Node6 -->
<g id="edge5" class="edge"><title>Node5&#45;&gt;Node6</title>
<path fill="none" stroke="midnightblue" d="M493.878,-66.7564C506.178,-68.3768 519.261,-70.1003 531.922,-71.7682"/>
<polygon fill="midnightblue" stroke="midnightblue" points="531.59,-75.2546 541.962,-73.0908 532.505,-68.3146 531.59,-75.2546"/>
</g>
<!-- Node7 -->
<g id="node7" class="node"><title>Node7</title>
<g id="a_node7"><a xlink:href="../../d0/d1e/classPropSegment.html#aff06825f6828f0eb58be0ea6ae8ec805" target="_top" xlink:title="PropSegment::linearFit\l_simple">
<polygon fill="none" stroke="black" points="545.5,-22 545.5,-52 660.5,-52 660.5,-22 545.5,-22"/>
<text text-anchor="start" x="553.5" y="-40" font-family="FreeSans" font-size="10.00">PropSegment::linearFit</text>
<text text-anchor="middle" x="603" y="-29" font-family="FreeSans" font-size="10.00">_simple</text>
</a>
</g>
</g>
<!-- Node5&#45;&gt;Node7 -->
<g id="edge6" class="edge"><title>Node5&#45;&gt;Node7</title>
<path fill="none" stroke="midnightblue" d="M493.878,-51.2436C507.198,-49.4889 521.436,-47.6132 535.061,-45.8183"/>
<polygon fill="midnightblue" stroke="midnightblue" points="535.879,-49.2409 545.336,-44.4647 534.964,-42.3009 535.879,-49.2409"/>
</g>
<!-- Node8 -->
<g id="node8" class="node"><title>Node8</title>
<g id="a_node8"><a xlink:href="../../de/d45/classSignedHit.html#aa752a613465f50fc640689c0b3eb99b5" target="_top" xlink:title="SignedHit::pos">
<polygon fill="none" stroke="black" points="700,-27.5 700,-46.5 778,-46.5 778,-27.5 700,-27.5"/>
<text text-anchor="middle" x="739" y="-34.5" font-family="FreeSans" font-size="10.00">SignedHit::pos</text>
</a>
</g>
</g>
<!-- Node7&#45;&gt;Node8 -->
<g id="edge7" class="edge"><title>Node7&#45;&gt;Node8</title>
<path fill="none" stroke="midnightblue" d="M660.828,-37C670.364,-37 680.182,-37 689.484,-37"/>
<polygon fill="midnightblue" stroke="midnightblue" points="689.724,-40.5001 699.724,-37 689.724,-33.5001 689.724,-40.5001"/>
</g>
<!-- Node10 -->
<g id="node10" class="node"><title>Node10</title>
<g id="a_node10"><a xlink:href="../../d5/d83/classSRawEvent.html#acf9e10bcf22a77325de8cfc82dc772e0" target="_top" xlink:title="Gets. ">
<polygon fill="none" stroke="black" points="368,-0 368,-30 500,-30 500,-0 368,-0"/>
<text text-anchor="start" x="376" y="-18" font-family="FreeSans" font-size="10.00">SRawEvent::getHitsIndexIn</text>
<text text-anchor="middle" x="434" y="-7" font-family="FreeSans" font-size="10.00">Detector</text>
</a>
</g>
</g>
<!-- Node9&#45;&gt;Node10 -->
<g id="edge9" class="edge"><title>Node9&#45;&gt;Node10</title>
<path fill="none" stroke="midnightblue" d="M326.127,-27.0868C336.436,-25.9209 347.243,-24.6987 357.859,-23.4981"/>
<polygon fill="midnightblue" stroke="midnightblue" points="358.412,-26.9579 367.956,-22.3562 357.626,-20.0022 358.412,-26.9579"/>
</g>
<!-- Node11&#45;&gt;Node3 -->
<g id="edge11" class="edge"><title>Node11&#45;&gt;Node3</title>
<path fill="none" stroke="midnightblue" d="M318.156,-135C333.06,-135 349.469,-135 365.104,-135"/>
<polygon fill="midnightblue" stroke="midnightblue" points="365.243,-138.5 375.243,-135 365.243,-131.5 365.243,-138.5"/>
</g>
<!-- Node12 -->
<g id="node12" class="node"><title>Node12</title>
<g id="a_node12"><a xlink:href="../../d0/d1e/classPropSegment.html#ac9d12f6f1989c4165c36e82622932a12" target="_top" xlink:title="PropSegment::getNPlanes">
<polygon fill="none" stroke="black" points="369,-163.5 369,-182.5 499,-182.5 499,-163.5 369,-163.5"/>
<text text-anchor="middle" x="434" y="-170.5" font-family="FreeSans" font-size="10.00">PropSegment::getNPlanes</text>
</a>
</g>
</g>
<!-- Node11&#45;&gt;Node12 -->
<g id="edge12" class="edge"><title>Node11&#45;&gt;Node12</title>
<path fill="none" stroke="midnightblue" d="M307.393,-144.589C329.763,-149.649 357.398,-155.9 381.047,-161.249"/>
<polygon fill="midnightblue" stroke="midnightblue" points="380.386,-164.687 390.911,-163.48 381.93,-157.86 380.386,-164.687"/>
</g>
<!-- Node13&#45;&gt;Node3 -->
<g id="edge14" class="edge"><title>Node13&#45;&gt;Node3</title>
<path fill="none" stroke="midnightblue" d="M307.393,-163.411C329.763,-158.351 357.398,-152.1 381.047,-146.751"/>
<polygon fill="midnightblue" stroke="midnightblue" points="381.93,-150.14 390.911,-144.52 380.386,-143.313 381.93,-150.14"/>
</g>
<!-- Node13&#45;&gt;Node12 -->
<g id="edge15" class="edge"><title>Node13&#45;&gt;Node12</title>
<path fill="none" stroke="midnightblue" d="M313.593,-173C327.608,-173 343.233,-173 358.44,-173"/>
<polygon fill="midnightblue" stroke="midnightblue" points="358.876,-176.5 368.876,-173 358.876,-169.5 358.876,-176.5"/>
</g>
<!-- Node14 -->
<g id="node14" class="node"><title>Node14</title>
<g id="a_node14"><a xlink:href="../../d0/d1e/classPropSegment.html#a33d7789b109a4815fc5c76d391003df9" target="_top" xlink:title="PropSegment::getExpPosition">
<polygon fill="none" stroke="black" points="362,-201.5 362,-220.5 506,-220.5 506,-201.5 362,-201.5"/>
<text text-anchor="middle" x="434" y="-208.5" font-family="FreeSans" font-size="10.00">PropSegment::getExpPosition</text>
</a>
</g>
</g>
<!-- Node13&#45;&gt;Node14 -->
<g id="edge16" class="edge"><title>Node13&#45;&gt;Node14</title>
<path fill="none" stroke="midnightblue" d="M307.393,-182.589C329.763,-187.649 357.398,-193.9 381.047,-199.249"/>
<polygon fill="midnightblue" stroke="midnightblue" points="380.386,-202.687 390.911,-201.48 381.93,-195.86 380.386,-202.687"/>
</g>
</g>
</svg>
