<?xml version="1.0" encoding="UTF-8" standalone="no"?>
<!DOCTYPE svg PUBLIC "-//W3C//DTD SVG 1.1//EN"
 "http://www.w3.org/Graphics/SVG/1.1/DTD/svg11.dtd">
<!-- Generated by graphviz version 2.44.0 (0)
 -->
<!-- Title: PHFieldUtility::BuildFieldMap Pages: 1 -->
<svg width="329pt" height="568pt"
 viewBox="0.00 0.00 329.00 567.50" xmlns="http://www.w3.org/2000/svg" xmlns:xlink="http://www.w3.org/1999/xlink">
<g id="graph0" class="graph" transform="scale(1 1) rotate(0) translate(4 563.5)">
<title>PHFieldUtility::BuildFieldMap</title>
<!-- Node1 -->
<g id="node1" class="node">
<title>Node1</title>
<g id="a_node1"><a xlink:title="Build or build field map with a configuration object.">
<polygon fill="#bfbfbf" stroke="black" points="0,-264.5 0,-283.5 158,-283.5 158,-264.5 0,-264.5"/>
<text text-anchor="middle" x="79" y="-271.5" font-family="FreeSans" font-size="10.00">PHFieldUtility::BuildFieldMap</text>
</a>
</g>
</g>
<!-- Node2 -->
<g id="node2" class="node">
<title>Node2</title>
<g id="a_node2"><a xlink:href="../../d9/d8c/classPHFieldConfig.html#a7a8e66f05f919c2331254aa948aa55eb" target="_top" xlink:title=" ">
<polygon fill="none" stroke="black" points="204.5,-529 204.5,-559 310.5,-559 310.5,-529 204.5,-529"/>
<text text-anchor="start" x="212.5" y="-547" font-family="FreeSans" font-size="10.00">PHFieldConfig::get</text>
<text text-anchor="middle" x="257.5" y="-536" font-family="FreeSans" font-size="10.00">_field_config</text>
</a>
</g>
</g>
<!-- Node1&#45;&gt;Node2 -->
<g id="edge1" class="edge">
<title>Node1&#45;&gt;Node2</title>
<path fill="none" stroke="midnightblue" d="M81.74,-283.52C88.8,-319.62 118.7,-449.6 194,-520 195.26,-521.17 196.57,-522.29 197.94,-523.36"/>
<polygon fill="midnightblue" stroke="midnightblue" points="196.01,-526.28 206.28,-528.89 199.89,-520.44 196.01,-526.28"/>
</g>
<!-- Node3 -->
<g id="node3" class="node">
<title>Node3</title>
<g id="a_node3"><a xlink:href="../../d9/d8c/classPHFieldConfig.html#a6b32d9cb8297ecaef3b017882520389c" target="_top" xlink:title="field value in Tesla for uniform field model ONLY for PHFieldConfig_v2">
<polygon fill="none" stroke="black" points="204.5,-480 204.5,-510 310.5,-510 310.5,-480 204.5,-480"/>
<text text-anchor="start" x="212.5" y="-498" font-family="FreeSans" font-size="10.00">PHFieldConfig::get</text>
<text text-anchor="middle" x="257.5" y="-487" font-family="FreeSans" font-size="10.00">_field_mag_x</text>
</a>
</g>
</g>
<!-- Node1&#45;&gt;Node3 -->
<g id="edge2" class="edge">
<title>Node1&#45;&gt;Node3</title>
<path fill="none" stroke="midnightblue" d="M83,-283.74C93.23,-315.33 129.67,-416.11 194,-471 195.49,-472.27 197.06,-473.48 198.68,-474.63"/>
<polygon fill="midnightblue" stroke="midnightblue" points="196.87,-477.63 207.22,-479.88 200.54,-471.66 196.87,-477.63"/>
</g>
<!-- Node4 -->
<g id="node4" class="node">
<title>Node4</title>
<g id="a_node4"><a xlink:href="../../d9/d8c/classPHFieldConfig.html#ac4a3209c21a80e40c050e92aef8b46f4" target="_top" xlink:title="field value in Tesla for uniform field model ONLY for PHFieldConfig_v2">
<polygon fill="none" stroke="black" points="204.5,-431 204.5,-461 310.5,-461 310.5,-431 204.5,-431"/>
<text text-anchor="start" x="212.5" y="-449" font-family="FreeSans" font-size="10.00">PHFieldConfig::get</text>
<text text-anchor="middle" x="257.5" y="-438" font-family="FreeSans" font-size="10.00">_field_mag_y</text>
</a>
</g>
</g>
<!-- Node1&#45;&gt;Node4 -->
<g id="edge3" class="edge">
<title>Node1&#45;&gt;Node4</title>
<path fill="none" stroke="midnightblue" d="M85.01,-283.78C98.86,-309.87 140.17,-381.88 194,-422 195.86,-423.38 197.8,-424.7 199.81,-425.94"/>
<polygon fill="midnightblue" stroke="midnightblue" points="198.5,-429.22 208.95,-430.98 201.88,-423.09 198.5,-429.22"/>
</g>
<!-- Node5 -->
<g id="node5" class="node">
<title>Node5</title>
<g id="a_node5"><a xlink:href="../../d9/d8c/classPHFieldConfig.html#a72e13b512c4fc3ba3f4d1423a71655e8" target="_top" xlink:title="field value in Tesla for uniform field model ONLY for PHFieldConfig_v2">
<polygon fill="none" stroke="black" points="204.5,-382 204.5,-412 310.5,-412 310.5,-382 204.5,-382"/>
<text text-anchor="start" x="212.5" y="-400" font-family="FreeSans" font-size="10.00">PHFieldConfig::get</text>
<text text-anchor="middle" x="257.5" y="-389" font-family="FreeSans" font-size="10.00">_field_mag_z</text>
</a>
</g>
</g>
<!-- Node1&#45;&gt;Node5 -->
<g id="edge4" class="edge">
<title>Node1&#45;&gt;Node5</title>
<path fill="none" stroke="midnightblue" d="M88.87,-283.7C106.97,-303.02 150.18,-346.68 194,-373 196.65,-374.59 199.43,-376.12 202.28,-377.56"/>
<polygon fill="midnightblue" stroke="midnightblue" points="201.01,-380.84 211.55,-381.93 204,-374.5 201.01,-380.84"/>
</g>
<!-- Node6 -->
<g id="node6" class="node">
<title>Node6</title>
<g id="a_node6"><a xlink:href="../../d9/d8c/classPHFieldConfig.html#a9fc48cfedc908ea15991f6db140fbba1" target="_top" xlink:title=" ">
<polygon fill="none" stroke="black" points="204.5,-333 204.5,-363 310.5,-363 310.5,-333 204.5,-333"/>
<text text-anchor="start" x="212.5" y="-351" font-family="FreeSans" font-size="10.00">PHFieldConfig::get</text>
<text text-anchor="middle" x="257.5" y="-340" font-family="FreeSans" font-size="10.00">_filename</text>
</a>
</g>
</g>
<!-- Node1&#45;&gt;Node6 -->
<g id="edge5" class="edge">
<title>Node1&#45;&gt;Node6</title>
<path fill="none" stroke="midnightblue" d="M100.89,-283.51C123.65,-293.8 161.22,-310.53 194,-324 198.16,-325.71 202.5,-327.45 206.86,-329.18"/>
<polygon fill="midnightblue" stroke="midnightblue" points="205.79,-332.52 216.38,-332.91 208.35,-326 205.79,-332.52"/>
</g>
<!-- Node7 -->
<g id="node7" class="node">
<title>Node7</title>
<g id="a_node7"><a xlink:href="../../d9/d8c/classPHFieldConfig.html#aa9ae5a0f632fb45bb5e244e24e6a2ebf" target="_top" xlink:title="field value in Tesla for target field model ONLY for PHFieldConfig_v3">
<polygon fill="none" stroke="black" points="204.5,-284 204.5,-314 310.5,-314 310.5,-284 204.5,-284"/>
<text text-anchor="start" x="212.5" y="-302" font-family="FreeSans" font-size="10.00">PHFieldConfig::get</text>
<text text-anchor="middle" x="257.5" y="-291" font-family="FreeSans" font-size="10.00">_filename1</text>
</a>
</g>
</g>
<!-- Node1&#45;&gt;Node7 -->
<g id="edge6" class="edge">
<title>Node1&#45;&gt;Node7</title>
<path fill="none" stroke="midnightblue" d="M147.23,-283.52C162.59,-285.7 178.84,-288 193.99,-290.15"/>
<polygon fill="midnightblue" stroke="midnightblue" points="193.89,-293.67 204.28,-291.6 194.87,-286.74 193.89,-293.67"/>
</g>
<!-- Node8 -->
<g id="node8" class="node">
<title>Node8</title>
<g id="a_node8"><a xlink:href="../../d9/d8c/classPHFieldConfig.html#a876cddc427106323204e4e4b842251b9" target="_top" xlink:title=" ">
<polygon fill="none" stroke="black" points="204.5,-235 204.5,-265 310.5,-265 310.5,-235 204.5,-235"/>
<text text-anchor="start" x="212.5" y="-253" font-family="FreeSans" font-size="10.00">PHFieldConfig::get</text>
<text text-anchor="middle" x="257.5" y="-242" font-family="FreeSans" font-size="10.00">_filename2</text>
</a>
</g>
</g>
<!-- Node1&#45;&gt;Node8 -->
<g id="edge7" class="edge">
<title>Node1&#45;&gt;Node8</title>
<path fill="none" stroke="midnightblue" d="M150.01,-264.48C164.57,-262.5 179.82,-260.43 194.09,-258.49"/>
<polygon fill="midnightblue" stroke="midnightblue" points="194.84,-261.92 204.28,-257.1 193.9,-254.98 194.84,-261.92"/>
</g>
<!-- Node9 -->
<g id="node9" class="node">
<title>Node9</title>
<g id="a_node9"><a xlink:href="../../d9/d8c/classPHFieldConfig.html#a7ab382138c9789c497ed6633233f17cf" target="_top" xlink:title=" ">
<polygon fill="none" stroke="black" points="204.5,-186 204.5,-216 310.5,-216 310.5,-186 204.5,-186"/>
<text text-anchor="start" x="212.5" y="-204" font-family="FreeSans" font-size="10.00">PHFieldConfig::get</text>
<text text-anchor="middle" x="257.5" y="-193" font-family="FreeSans" font-size="10.00">_magfield_rescale</text>
</a>
</g>
</g>
<!-- Node1&#45;&gt;Node9 -->
<g id="edge8" class="edge">
<title>Node1&#45;&gt;Node9</title>
<path fill="none" stroke="midnightblue" d="M102.23,-264.5C125.17,-254.73 162.02,-239.13 194,-226 198.81,-224.03 203.83,-221.98 208.86,-219.95"/>
<polygon fill="midnightblue" stroke="midnightblue" points="210.48,-223.07 218.45,-216.09 207.86,-216.58 210.48,-223.07"/>
</g>
<!-- Node10 -->
<g id="node10" class="node">
<title>Node10</title>
<g id="a_node10"><a xlink:href="../../d9/d8c/classPHFieldConfig.html#a44dc167d37b1d519edda6210659de5a9" target="_top" xlink:title="field value in Tesla for uniform field model ONLY for PHFieldConfig_v3">
<polygon fill="none" stroke="black" points="202,-137 202,-167 313,-167 313,-137 202,-137"/>
<text text-anchor="start" x="210" y="-155" font-family="FreeSans" font-size="10.00">PHFieldConfig::get</text>
<text text-anchor="middle" x="257.5" y="-144" font-family="FreeSans" font-size="10.00">_magfield_rescale1</text>
</a>
</g>
</g>
<!-- Node1&#45;&gt;Node10 -->
<g id="edge9" class="edge">
<title>Node1&#45;&gt;Node10</title>
<path fill="none" stroke="midnightblue" d="M89.22,-264.27C107.62,-245.32 150.83,-203.04 194,-177 197.34,-174.99 200.87,-173.07 204.48,-171.27"/>
<polygon fill="midnightblue" stroke="midnightblue" points="206.01,-174.42 213.58,-167.01 203.04,-168.08 206.01,-174.42"/>
</g>
<!-- Node11 -->
<g id="node11" class="node">
<title>Node11</title>
<g id="a_node11"><a xlink:href="../../d9/d8c/classPHFieldConfig.html#abb44169d1762a50a8f0ea9ca359c171f" target="_top" xlink:title="field value in Tesla for uniform field model ONLY for PHFieldConfig_v3">
<polygon fill="none" stroke="black" points="202,-88 202,-118 313,-118 313,-88 202,-88"/>
<text text-anchor="start" x="210" y="-106" font-family="FreeSans" font-size="10.00">PHFieldConfig::get</text>
<text text-anchor="middle" x="257.5" y="-95" font-family="FreeSans" font-size="10.00">_magfield_rescale2</text>
</a>
</g>
</g>
<!-- Node1&#45;&gt;Node11 -->
<g id="edge10" class="edge">
<title>Node1&#45;&gt;Node11</title>
<path fill="none" stroke="midnightblue" d="M85.08,-264.39C99.09,-238.76 140.77,-167.98 194,-128 196.44,-126.16 199.04,-124.44 201.73,-122.83"/>
<polygon fill="midnightblue" stroke="midnightblue" points="203.45,-125.88 210.59,-118.05 200.13,-119.72 203.45,-125.88"/>
</g>
<!-- Node12 -->
<g id="node12" class="node">
<title>Node12</title>
<g id="a_node12"><a xlink:href="../../d9/d8c/classPHFieldConfig.html#a02d2612b8a3d3b0dfb8597c3afb50939" target="_top" xlink:title="field value in Tesla for target field model ONLY for PHFieldConfig_v3">
<polygon fill="none" stroke="black" points="204.5,-39 204.5,-69 310.5,-69 310.5,-39 204.5,-39"/>
<text text-anchor="start" x="212.5" y="-57" font-family="FreeSans" font-size="10.00">PHFieldConfig::get</text>
<text text-anchor="middle" x="257.5" y="-46" font-family="FreeSans" font-size="10.00">_taregetmag_y</text>
</a>
</g>
</g>
<!-- Node1&#45;&gt;Node12 -->
<g id="edge11" class="edge">
<title>Node1&#45;&gt;Node12</title>
<path fill="none" stroke="midnightblue" d="M83.06,-264.4C93.48,-233.24 130.42,-133.77 194,-79 195.94,-77.33 198,-75.77 200.15,-74.3"/>
<polygon fill="midnightblue" stroke="midnightblue" points="202.04,-77.24 208.82,-69.1 198.44,-71.24 202.04,-77.24"/>
</g>
<!-- Node13 -->
<g id="node13" class="node">
<title>Node13</title>
<g id="a_node13"><a xlink:href="../../d9/d8c/classPHFieldConfig.html#a23b0f32643333428d0bde631c904aae5" target="_top" xlink:title=" ">
<polygon fill="none" stroke="black" points="194,-0.5 194,-19.5 321,-19.5 321,-0.5 194,-0.5"/>
<text text-anchor="middle" x="257.5" y="-7.5" font-family="FreeSans" font-size="10.00">PHFieldConfig::identify</text>
</a>
</g>
</g>
<!-- Node1&#45;&gt;Node13 -->
<g id="edge12" class="edge">
<title>Node1&#45;&gt;Node13</title>
<path fill="none" stroke="midnightblue" d="M81.64,-264.42C88.35,-228.12 117.13,-97.65 194,-30 196.48,-27.82 199.2,-25.87 202.07,-24.14"/>
<polygon fill="midnightblue" stroke="midnightblue" points="203.75,-27.21 211.07,-19.55 200.57,-20.98 203.75,-27.21"/>
</g>
</g>
</svg>
