<?xml version="1.0" encoding="UTF-8" standalone="no"?>
<!DOCTYPE svg PUBLIC "-//W3C//DTD SVG 1.1//EN"
 "http://www.w3.org/Graphics/SVG/1.1/DTD/svg11.dtd">
<!-- Generated by graphviz version 2.30.1 (20200930.0103)
 -->
<!-- Title: /dev/shm/kenichi/update&#45;github&#45;e1039&#45;doc/e1039&#45;core/packages/UtilAna/UtilDimuon.h Pages: 1 -->
<svg width="801pt" height="140pt"
 viewBox="0.00 0.00 801.00 140.00" xmlns="http://www.w3.org/2000/svg" xmlns:xlink="http://www.w3.org/1999/xlink">
<g id="graph0" class="graph" transform="scale(1 1) rotate(0) translate(4 136)">
<title>/dev/shm/kenichi/update&#45;github&#45;e1039&#45;doc/e1039&#45;core/packages/UtilAna/UtilDimuon.h</title>
<!-- Node1 -->
<g id="node1" class="node"><title>Node1</title>
<polygon fill="#bfbfbf" stroke="black" points="350.5,-90.5 350.5,-131.5 525.5,-131.5 525.5,-90.5 350.5,-90.5"/>
<text text-anchor="start" x="358.5" y="-119.5" font-family="FreeSans" font-size="10.00">/dev/shm/kenichi/update</text>
<text text-anchor="start" x="358.5" y="-108.5" font-family="FreeSans" font-size="10.00">&#45;github&#45;e1039&#45;doc/e1039</text>
<text text-anchor="middle" x="438" y="-97.5" font-family="FreeSans" font-size="10.00">&#45;core/packages/UtilAna/UtilDimuon.h</text>
</g>
<!-- Node2 -->
<g id="node2" class="node"><title>Node2</title>
<g id="a_node2"><a xlink:href="../../d5/d5f/SQPrimaryParticleGen_8C.html" target="_top" xlink:title="/dev/shm/kenichi/update\l&#45;github&#45;e1039&#45;doc/e1039\l&#45;core/generators/E906LegacyGen\l/SQPrimaryParticleGen.C">
<polygon fill="none" stroke="black" points="0,-1 0,-53 160,-53 160,-1 0,-1"/>
<text text-anchor="start" x="8" y="-41" font-family="FreeSans" font-size="10.00">/dev/shm/kenichi/update</text>
<text text-anchor="start" x="8" y="-30" font-family="FreeSans" font-size="10.00">&#45;github&#45;e1039&#45;doc/e1039</text>
<text text-anchor="start" x="8" y="-19" font-family="FreeSans" font-size="10.00">&#45;core/generators/E906LegacyGen</text>
<text text-anchor="middle" x="80" y="-8" font-family="FreeSans" font-size="10.00">/SQPrimaryParticleGen.C</text>
</a>
</g>
</g>
<!-- Node1&#45;&gt;Node2 -->
<g id="edge1" class="edge"><title>Node1&#45;&gt;Node2</title>
<path fill="none" stroke="midnightblue" d="M340.303,-91.5921C289.072,-81.453 225.405,-68.0868 169,-54 166.189,-53.2979 163.333,-52.5661 160.453,-51.812"/>
<polygon fill="midnightblue" stroke="midnightblue" points="339.889,-95.0779 350.377,-93.5762 341.242,-88.2098 339.889,-95.0779"/>
</g>
<!-- Node3 -->
<g id="node3" class="node"><title>Node3</title>
<g id="a_node3"><a xlink:href="../../d4/d8d/UtilDimuon_8cc.html" target="_top" xlink:title="/dev/shm/kenichi/update\l&#45;github&#45;e1039&#45;doc/e1039\l&#45;core/packages/UtilAna/UtilDimuon.cc">
<polygon fill="none" stroke="black" points="178,-6.5 178,-47.5 358,-47.5 358,-6.5 178,-6.5"/>
<text text-anchor="start" x="186" y="-35.5" font-family="FreeSans" font-size="10.00">/dev/shm/kenichi/update</text>
<text text-anchor="start" x="186" y="-24.5" font-family="FreeSans" font-size="10.00">&#45;github&#45;e1039&#45;doc/e1039</text>
<text text-anchor="middle" x="268" y="-13.5" font-family="FreeSans" font-size="10.00">&#45;core/packages/UtilAna/UtilDimuon.cc</text>
</a>
</g>
</g>
<!-- Node1&#45;&gt;Node3 -->
<g id="edge2" class="edge"><title>Node1&#45;&gt;Node3</title>
<path fill="none" stroke="midnightblue" d="M388.21,-85.9838C362.911,-73.7808 332.558,-59.1396 308.681,-47.6227"/>
<polygon fill="midnightblue" stroke="midnightblue" points="386.753,-89.1668 397.281,-90.359 389.794,-82.8619 386.753,-89.1668"/>
</g>
<!-- Node4 -->
<g id="node4" class="node"><title>Node4</title>
<g id="a_node4"><a xlink:href="../../d4/db3/AnaSimDst_8cc.html" target="_top" xlink:title="/dev/shm/kenichi/update\l&#45;github&#45;e1039&#45;doc/e1039\l&#45;analysis/AnaSimDst/src\l/AnaSimDst.cc">
<polygon fill="none" stroke="black" points="376.5,-1 376.5,-53 499.5,-53 499.5,-1 376.5,-1"/>
<text text-anchor="start" x="384.5" y="-41" font-family="FreeSans" font-size="10.00">/dev/shm/kenichi/update</text>
<text text-anchor="start" x="384.5" y="-30" font-family="FreeSans" font-size="10.00">&#45;github&#45;e1039&#45;doc/e1039</text>
<text text-anchor="start" x="384.5" y="-19" font-family="FreeSans" font-size="10.00">&#45;analysis/AnaSimDst/src</text>
<text text-anchor="middle" x="438" y="-8" font-family="FreeSans" font-size="10.00">/AnaSimDst.cc</text>
</a>
</g>
</g>
<!-- Node1&#45;&gt;Node4 -->
<g id="edge3" class="edge"><title>Node1&#45;&gt;Node4</title>
<path fill="none" stroke="midnightblue" d="M438,-79.9378C438,-71.1758 438,-61.6949 438,-53.2613"/>
<polygon fill="midnightblue" stroke="midnightblue" points="434.5,-80.1501 438,-90.1501 441.5,-80.1501 434.5,-80.1501"/>
</g>
<!-- Node5 -->
<g id="node5" class="node"><title>Node5</title>
<g id="a_node5"><a xlink:href="../../d9/dc9/SubsysRecoSignal_8cc.html" target="_top" xlink:title="/dev/shm/kenichi/update\l&#45;github&#45;e1039&#45;doc/e1039\l&#45;analysis/GenRoadset/src\l/SubsysRecoSignal.cc">
<polygon fill="none" stroke="black" points="517.5,-1 517.5,-53 642.5,-53 642.5,-1 517.5,-1"/>
<text text-anchor="start" x="525.5" y="-41" font-family="FreeSans" font-size="10.00">/dev/shm/kenichi/update</text>
<text text-anchor="start" x="525.5" y="-30" font-family="FreeSans" font-size="10.00">&#45;github&#45;e1039&#45;doc/e1039</text>
<text text-anchor="start" x="525.5" y="-19" font-family="FreeSans" font-size="10.00">&#45;analysis/GenRoadset/src</text>
<text text-anchor="middle" x="580" y="-8" font-family="FreeSans" font-size="10.00">/SubsysRecoSignal.cc</text>
</a>
</g>
</g>
<!-- Node1&#45;&gt;Node5 -->
<g id="edge4" class="edge"><title>Node1&#45;&gt;Node5</title>
<path fill="none" stroke="midnightblue" d="M480.943,-85.2018C498.555,-75.0317 518.911,-63.2767 536.572,-53.0779"/>
<polygon fill="midnightblue" stroke="midnightblue" points="478.922,-82.3272 472.013,-90.359 482.423,-88.3891 478.922,-82.3272"/>
</g>
<!-- Node6 -->
<g id="node6" class="node"><title>Node6</title>
<g id="a_node6"><a xlink:href="../../db/d39/AnaEmbeddedData_8cc.html" target="_top" xlink:title="/dev/shm/kenichi/update\l&#45;github&#45;e1039&#45;doc/e1039\l&#45;analysis/HitEmbedding/src\l/AnaEmbeddedData.cc">
<polygon fill="none" stroke="black" points="661,-1 661,-53 793,-53 793,-1 661,-1"/>
<text text-anchor="start" x="669" y="-41" font-family="FreeSans" font-size="10.00">/dev/shm/kenichi/update</text>
<text text-anchor="start" x="669" y="-30" font-family="FreeSans" font-size="10.00">&#45;github&#45;e1039&#45;doc/e1039</text>
<text text-anchor="start" x="669" y="-19" font-family="FreeSans" font-size="10.00">&#45;analysis/HitEmbedding/src</text>
<text text-anchor="middle" x="727" y="-8" font-family="FreeSans" font-size="10.00">/AnaEmbeddedData.cc</text>
</a>
</g>
</g>
<!-- Node1&#45;&gt;Node6 -->
<g id="edge5" class="edge"><title>Node1&#45;&gt;Node6</title>
<path fill="none" stroke="midnightblue" d="M527.845,-87.9194C565.997,-78.1456 610.848,-66.1288 651,-54 654.204,-53.0322 657.475,-52.0173 660.773,-50.9728"/>
<polygon fill="midnightblue" stroke="midnightblue" points="526.612,-84.622 517.786,-90.4843 528.341,-91.4049 526.612,-84.622"/>
</g>
</g>
</svg>
