<?xml version="1.0" encoding="UTF-8" standalone="no"?>
<!DOCTYPE svg PUBLIC "-//W3C//DTD SVG 1.1//EN"
 "http://www.w3.org/Graphics/SVG/1.1/DTD/svg11.dtd">
<!-- Generated by graphviz version 2.40.1 (20161225.0304)
 -->
<!-- Title: PHG4InEvent::AddEmbeddedParticle Pages: 1 -->
<svg width="943pt" height="298pt"
 viewBox="0.00 0.00 943.00 298.22" xmlns="http://www.w3.org/2000/svg" xmlns:xlink="http://www.w3.org/1999/xlink">
<g id="graph0" class="graph" transform="scale(1 1) rotate(0) translate(4 294.2174)">
<title>PHG4InEvent::AddEmbeddedParticle</title>
<!-- Node15 -->
<g id="node1" class="node">
<title>Node15</title>
<polygon fill="#bfbfbf" stroke="#000000" points="0,-136.7174 0,-166.7174 143,-166.7174 143,-136.7174 0,-136.7174"/>
<text text-anchor="start" x="8" y="-154.7174" font-family="FreeSans" font-size="10.00" fill="#000000">PHG4InEvent::AddEmbedded</text>
<text text-anchor="middle" x="71.5" y="-143.7174" font-family="FreeSans" font-size="10.00" fill="#000000">Particle</text>
</g>
<!-- Node16 -->
<g id="node2" class="node">
<title>Node16</title>
<g id="a_node2"><a xlink:href="../../d9/d78/classPHG4ParticleGeneratorD0.html#a0d5fb0589e341d72f767844ead51039a" target="_top" xlink:title="PHG4ParticleGeneratorD0\l::process_event">
<polygon fill="none" stroke="#000000" points="362.5,-259.7174 362.5,-289.7174 493.5,-289.7174 493.5,-259.7174 362.5,-259.7174"/>
<text text-anchor="start" x="370.5" y="-277.7174" font-family="FreeSans" font-size="10.00" fill="#000000">PHG4ParticleGeneratorD0</text>
<text text-anchor="middle" x="428" y="-266.7174" font-family="FreeSans" font-size="10.00" fill="#000000">::process_event</text>
</a>
</g>
</g>
<!-- Node15&#45;&gt;Node16 -->
<g id="edge1" class="edge">
<title>Node15&#45;&gt;Node16</title>
<path fill="none" stroke="#191970" d="M96.77,-173.5854C117.5086,-190.3776 148.3508,-212.81 179,-225.7174 238.2825,-250.6833 310.9347,-263.1101 362.4248,-269.1798"/>
<polygon fill="#191970" stroke="#191970" points="98.7401,-170.6733 88.8004,-167.0056 94.2834,-176.0713 98.7401,-170.6733"/>
</g>
<!-- Node18 -->
<g id="node4" class="node">
<title>Node18</title>
<g id="a_node4"><a xlink:href="../../d7/dc3/classPHG4ParticleGeneratorVectorMeson.html#a31f17c8146593b2d946cc4c2762d25ed" target="_top" xlink:title="PHG4ParticleGeneratorVector\lMeson::process_event">
<polygon fill="none" stroke="#000000" points="355,-210.7174 355,-240.7174 501,-240.7174 501,-210.7174 355,-210.7174"/>
<text text-anchor="start" x="363" y="-228.7174" font-family="FreeSans" font-size="10.00" fill="#000000">PHG4ParticleGeneratorVector</text>
<text text-anchor="middle" x="428" y="-217.7174" font-family="FreeSans" font-size="10.00" fill="#000000">Meson::process_event</text>
</a>
</g>
</g>
<!-- Node15&#45;&gt;Node18 -->
<g id="edge3" class="edge">
<title>Node15&#45;&gt;Node18</title>
<path fill="none" stroke="#191970" d="M106.4357,-171.6606C126.923,-182.4009 153.6822,-194.827 179,-201.7174 236.8293,-217.4561 304.6679,-223.2006 354.92,-225.1525"/>
<polygon fill="#191970" stroke="#191970" points="107.9595,-168.5064 97.4917,-166.8705 104.6546,-174.6771 107.9595,-168.5064"/>
</g>
<!-- Node20 -->
<g id="node6" class="node">
<title>Node20</title>
<g id="a_node6"><a xlink:href="../../d5/df3/classPHG4SimpleEventGenerator.html#a4a7065a5083bd5b21c3743f8e224065b" target="_top" xlink:title="PHG4SimpleEventGenerator\l::process_event">
<polygon fill="none" stroke="#000000" points="179,-63.7174 179,-93.7174 319,-93.7174 319,-63.7174 179,-63.7174"/>
<text text-anchor="start" x="187" y="-81.7174" font-family="FreeSans" font-size="10.00" fill="#000000">PHG4SimpleEventGenerator</text>
<text text-anchor="middle" x="249" y="-70.7174" font-family="FreeSans" font-size="10.00" fill="#000000">::process_event</text>
</a>
</g>
</g>
<!-- Node15&#45;&gt;Node20 -->
<g id="edge5" class="edge">
<title>Node15&#45;&gt;Node20</title>
<path fill="none" stroke="#191970" d="M113.0352,-132.2757C132.8534,-123.2304 156.992,-112.5457 179,-103.7174 187.3838,-100.3544 196.4165,-96.9613 205.1164,-93.806"/>
<polygon fill="#191970" stroke="#191970" points="111.3098,-129.2166 103.6816,-136.5692 114.23,-135.5784 111.3098,-129.2166"/>
</g>
<!-- Node22 -->
<g id="node8" class="node">
<title>Node22</title>
<g id="a_node8"><a xlink:href="../../de/d76/classPHG4PSScanGenerator.html#a7da87ee5f9d1dc005871a8df83145c63" target="_top" xlink:title="PHG4PSScanGenerator\l::process_event">
<polygon fill="none" stroke="#000000" points="188,-112.7174 188,-142.7174 310,-142.7174 310,-112.7174 188,-112.7174"/>
<text text-anchor="start" x="196" y="-130.7174" font-family="FreeSans" font-size="10.00" fill="#000000">PHG4PSScanGenerator</text>
<text text-anchor="middle" x="249" y="-119.7174" font-family="FreeSans" font-size="10.00" fill="#000000">::process_event</text>
</a>
</g>
</g>
<!-- Node15&#45;&gt;Node22 -->
<g id="edge7" class="edge">
<title>Node15&#45;&gt;Node22</title>
<path fill="none" stroke="#191970" d="M153.3369,-140.6522C164.9594,-139.0807 176.7409,-137.4877 187.8777,-135.9819"/>
<polygon fill="#191970" stroke="#191970" points="152.6252,-137.2165 143.1844,-142.0249 153.5632,-144.1533 152.6252,-137.2165"/>
</g>
<!-- Node24 -->
<g id="node10" class="node">
<title>Node24</title>
<g id="a_node10"><a xlink:href="../../db/d6c/classHepMCNodeReader.html#aa71e336f1ee6610de412c61a1de37470" target="_top" xlink:title="HepMCNodeReader::process\l_event">
<polygon fill="none" stroke="#000000" points="179,-14.7174 179,-44.7174 319,-44.7174 319,-14.7174 179,-14.7174"/>
<text text-anchor="start" x="187" y="-32.7174" font-family="FreeSans" font-size="10.00" fill="#000000">HepMCNodeReader::process</text>
<text text-anchor="middle" x="249" y="-21.7174" font-family="FreeSans" font-size="10.00" fill="#000000">_event</text>
</a>
</g>
</g>
<!-- Node15&#45;&gt;Node24 -->
<g id="edge9" class="edge">
<title>Node15&#45;&gt;Node24</title>
<path fill="none" stroke="#191970" d="M91.5062,-129.13C111.725,-107.48 144.7898,-75.1572 179,-54.7174 185.2036,-51.0109 192.0428,-47.7297 198.9425,-44.8651"/>
<polygon fill="#191970" stroke="#191970" points="88.8482,-126.8497 84.66,-136.5816 94.003,-131.5856 88.8482,-126.8497"/>
</g>
<!-- Node25 -->
<g id="node11" class="node">
<title>Node25</title>
<g id="a_node11"><a xlink:href="../../d8/d78/classPHG4ParticleGeneratorBase.html#a809a8ffdabce2e45789c96023769462e" target="_top" xlink:title="PHG4ParticleGeneratorBase\l::SetParticleId">
<polygon fill="none" stroke="#000000" points="179,-161.7174 179,-191.7174 319,-191.7174 319,-161.7174 179,-161.7174"/>
<text text-anchor="start" x="187" y="-179.7174" font-family="FreeSans" font-size="10.00" fill="#000000">PHG4ParticleGeneratorBase</text>
<text text-anchor="middle" x="249" y="-168.7174" font-family="FreeSans" font-size="10.00" fill="#000000">::SetParticleId</text>
</a>
</g>
</g>
<!-- Node15&#45;&gt;Node25 -->
<g id="edge10" class="edge">
<title>Node15&#45;&gt;Node25</title>
<path fill="none" stroke="#191970" d="M153.1677,-163.2199C161.7229,-164.4249 170.3664,-165.6423 178.7776,-166.827"/>
<polygon fill="#191970" stroke="#191970" points="153.5748,-159.7428 143.1844,-161.8138 152.5985,-166.6744 153.5748,-159.7428"/>
</g>
<!-- Node17 -->
<g id="node3" class="node">
<title>Node17</title>
<g id="a_node3"><a xlink:href="../../d9/d78/classPHG4ParticleGeneratorD0.html#a138e05dd3393900da0328dc560233fb5" target="_top" xlink:title="PHG4ParticleGeneratorD0\l::~PHG4ParticleGeneratorD0">
<polygon fill="none" stroke="#000000" points="573.5,-259.7174 573.5,-289.7174 713.5,-289.7174 713.5,-259.7174 573.5,-259.7174"/>
<text text-anchor="start" x="581.5" y="-277.7174" font-family="FreeSans" font-size="10.00" fill="#000000">PHG4ParticleGeneratorD0</text>
<text text-anchor="middle" x="643.5" y="-266.7174" font-family="FreeSans" font-size="10.00" fill="#000000">::~PHG4ParticleGeneratorD0</text>
</a>
</g>
</g>
<!-- Node16&#45;&gt;Node17 -->
<g id="edge2" class="edge">
<title>Node16&#45;&gt;Node17</title>
<path fill="none" stroke="#191970" d="M503.7783,-274.7174C526.4255,-274.7174 551.1448,-274.7174 573.41,-274.7174"/>
<polygon fill="#191970" stroke="#191970" points="503.5349,-271.2175 493.5348,-274.7174 503.5348,-278.2175 503.5349,-271.2175"/>
</g>
<!-- Node19 -->
<g id="node5" class="node">
<title>Node19</title>
<g id="a_node5"><a xlink:href="../../d7/dc3/classPHG4ParticleGeneratorVectorMeson.html#ae069f79322dc5ba734e7e85c89478dae" target="_top" xlink:title="PHG4ParticleGeneratorVector\lMeson::~PHG4ParticleGeneratorVectorMeson">
<polygon fill="none" stroke="#000000" points="537,-210.7174 537,-240.7174 750,-240.7174 750,-210.7174 537,-210.7174"/>
<text text-anchor="start" x="545" y="-228.7174" font-family="FreeSans" font-size="10.00" fill="#000000">PHG4ParticleGeneratorVector</text>
<text text-anchor="middle" x="643.5" y="-217.7174" font-family="FreeSans" font-size="10.00" fill="#000000">Meson::~PHG4ParticleGeneratorVectorMeson</text>
</a>
</g>
</g>
<!-- Node18&#45;&gt;Node19 -->
<g id="edge4" class="edge">
<title>Node18&#45;&gt;Node19</title>
<path fill="none" stroke="#191970" d="M511.3372,-225.7174C519.6955,-225.7174 528.2605,-225.7174 536.8166,-225.7174"/>
<polygon fill="#191970" stroke="#191970" points="511.2592,-222.2175 501.2592,-225.7174 511.2591,-229.2175 511.2592,-222.2175"/>
</g>
<!-- Node21 -->
<g id="node7" class="node">
<title>Node21</title>
<g id="a_node7"><a xlink:href="../../d5/df3/classPHG4SimpleEventGenerator.html#aade43f838d564ec3aedcaea2bb2584f9" target="_top" xlink:title="PHG4SimpleEventGenerator\l::~PHG4SimpleEventGenerator">
<polygon fill="none" stroke="#000000" points="786,-22.7174 786,-52.7174 935,-52.7174 935,-22.7174 786,-22.7174"/>
<text text-anchor="start" x="794" y="-40.7174" font-family="FreeSans" font-size="10.00" fill="#000000">PHG4SimpleEventGenerator</text>
<text text-anchor="middle" x="860.5" y="-29.7174" font-family="FreeSans" font-size="10.00" fill="#000000">::~PHG4SimpleEventGenerator</text>
</a>
</g>
</g>
<!-- Node20&#45;&gt;Node21 -->
<g id="edge6" class="edge">
<title>Node20&#45;&gt;Node21</title>
<path fill="none" stroke="#191970" d="M308.6251,-59.6484C312.1825,-58.0888 315.6668,-56.4438 319,-54.7174 336.5254,-45.6405 336.2208,-34.7898 355,-28.7174 504.4949,19.6223 692.0729,-4.0382 791.3881,-22.6448"/>
<polygon fill="#191970" stroke="#191970" points="307.005,-56.5304 299.0913,-63.5748 309.6707,-63.003 307.005,-56.5304"/>
</g>
<!-- Node23 -->
<g id="node9" class="node">
<title>Node23</title>
<g id="a_node9"><a xlink:href="../../de/d76/classPHG4PSScanGenerator.html#a11820bdc87f553a5d7d337e5320f28ec" target="_top" xlink:title="PHG4PSScanGenerator\l::~PHG4PSScanGenerator">
<polygon fill="none" stroke="#000000" points="795,-91.7174 795,-121.7174 926,-121.7174 926,-91.7174 795,-91.7174"/>
<text text-anchor="start" x="803" y="-109.7174" font-family="FreeSans" font-size="10.00" fill="#000000">PHG4PSScanGenerator</text>
<text text-anchor="middle" x="860.5" y="-98.7174" font-family="FreeSans" font-size="10.00" fill="#000000">::~PHG4PSScanGenerator</text>
</a>
</g>
</g>
<!-- Node22&#45;&gt;Node23 -->
<g id="edge8" class="edge">
<title>Node22&#45;&gt;Node23</title>
<path fill="none" stroke="#191970" d="M312.6115,-107.9501C314.8232,-106.6245 316.9618,-105.2152 319,-103.7174 340.7762,-87.7153 330.8893,-66.9218 355,-54.7174 433.3162,-15.0751 664.3364,-35.5685 750,-54.7174 781.6579,-61.7941 814.9445,-78.986 836.6051,-91.6745"/>
<polygon fill="#191970" stroke="#191970" points="310.956,-104.8663 303.7772,-112.6584 314.2483,-111.0438 310.956,-104.8663"/>
</g>
<!-- Node25&#45;&gt;Node16 -->
<g id="edge18" class="edge">
<title>Node25&#45;&gt;Node16</title>
<path fill="none" stroke="#191970" d="M275.0774,-198.1763C295.7425,-214.3529 325.8871,-236.1647 355,-250.7174 361.5632,-253.9982 368.6758,-256.9771 375.7988,-259.6323"/>
<polygon fill="#191970" stroke="#191970" points="277.1111,-195.322 267.1031,-191.8447 272.7582,-200.8041 277.1111,-195.322"/>
</g>
<!-- Node25&#45;&gt;Node18 -->
<g id="edge19" class="edge">
<title>Node25&#45;&gt;Node18</title>
<path fill="none" stroke="#191970" d="M313.8362,-194.4659C333.2363,-199.7765 354.3133,-205.5462 373.0157,-210.6659"/>
<polygon fill="#191970" stroke="#191970" points="314.7358,-191.0834 304.1665,-191.8189 312.8875,-197.835 314.7358,-191.0834"/>
</g>
<!-- Node26 -->
<g id="node12" class="node">
<title>Node26</title>
<g id="a_node12"><a xlink:href="../../dd/d68/classPHG4ParticleGenerator.html#a1292dcb1c73496ea30769a4b8c355780" target="_top" xlink:title="PHG4ParticleGenerator\l::process_event">
<polygon fill="none" stroke="#000000" points="368.5,-161.7174 368.5,-191.7174 487.5,-191.7174 487.5,-161.7174 368.5,-161.7174"/>
<text text-anchor="start" x="376.5" y="-179.7174" font-family="FreeSans" font-size="10.00" fill="#000000">PHG4ParticleGenerator</text>
<text text-anchor="middle" x="428" y="-168.7174" font-family="FreeSans" font-size="10.00" fill="#000000">::process_event</text>
</a>
</g>
</g>
<!-- Node25&#45;&gt;Node26 -->
<g id="edge11" class="edge">
<title>Node25&#45;&gt;Node26</title>
<path fill="none" stroke="#191970" d="M329.618,-176.7174C342.6635,-176.7174 355.9632,-176.7174 368.3936,-176.7174"/>
<polygon fill="#191970" stroke="#191970" points="329.2318,-173.2175 319.2318,-176.7174 329.2318,-180.2175 329.2318,-173.2175"/>
</g>
<!-- Node28 -->
<g id="node14" class="node">
<title>Node28</title>
<g id="a_node14"><a xlink:href="../../d8/d78/classPHG4ParticleGeneratorBase.html#a62fcef8efebba3b31d4b504c3c1db6b7" target="_top" xlink:title="PHG4ParticleGeneratorBase\l::get_seed">
<polygon fill="none" stroke="#000000" points="358,-112.7174 358,-142.7174 498,-142.7174 498,-112.7174 358,-112.7174"/>
<text text-anchor="start" x="366" y="-130.7174" font-family="FreeSans" font-size="10.00" fill="#000000">PHG4ParticleGeneratorBase</text>
<text text-anchor="middle" x="428" y="-119.7174" font-family="FreeSans" font-size="10.00" fill="#000000">::get_seed</text>
</a>
</g>
</g>
<!-- Node25&#45;&gt;Node28 -->
<g id="edge13" class="edge">
<title>Node25&#45;&gt;Node28</title>
<path fill="none" stroke="#191970" d="M313.8362,-158.969C333.2363,-153.6583 354.3133,-147.8887 373.0157,-142.769"/>
<polygon fill="#191970" stroke="#191970" points="312.8875,-155.5998 304.1665,-161.616 314.7358,-162.3514 312.8875,-155.5998"/>
</g>
<!-- Node31 -->
<g id="node17" class="node">
<title>Node31</title>
<g id="a_node17"><a xlink:href="../../dd/d13/classPHG4ParticleGun.html#a6a76fa0b061c94d8ce36da48fd41d274" target="_top" xlink:title="PHG4ParticleGun::process\l_event">
<polygon fill="none" stroke="#000000" points="362.5,-63.7174 362.5,-93.7174 493.5,-93.7174 493.5,-63.7174 362.5,-63.7174"/>
<text text-anchor="start" x="370.5" y="-81.7174" font-family="FreeSans" font-size="10.00" fill="#000000">PHG4ParticleGun::process</text>
<text text-anchor="middle" x="428" y="-70.7174" font-family="FreeSans" font-size="10.00" fill="#000000">_event</text>
</a>
</g>
</g>
<!-- Node25&#45;&gt;Node31 -->
<g id="edge20" class="edge">
<title>Node25&#45;&gt;Node31</title>
<path fill="none" stroke="#191970" d="M312.6115,-156.9501C314.8232,-155.6245 316.9618,-154.2152 319,-152.7174 340.7762,-136.7153 333.221,-119.7157 355,-103.7174 360.1823,-99.9107 365.9876,-96.6526 372.0001,-93.8712"/>
<polygon fill="#191970" stroke="#191970" points="310.956,-153.8663 303.7772,-161.6584 314.2483,-160.0438 310.956,-153.8663"/>
</g>
<!-- Node27 -->
<g id="node13" class="node">
<title>Node27</title>
<g id="a_node13"><a xlink:href="../../dd/d68/classPHG4ParticleGenerator.html#a2e4bf8cceee101428c03b4f987a623eb" target="_top" xlink:title="PHG4ParticleGenerator\l::~PHG4ParticleGenerator">
<polygon fill="none" stroke="#000000" points="579.5,-161.7174 579.5,-191.7174 707.5,-191.7174 707.5,-161.7174 579.5,-161.7174"/>
<text text-anchor="start" x="587.5" y="-179.7174" font-family="FreeSans" font-size="10.00" fill="#000000">PHG4ParticleGenerator</text>
<text text-anchor="middle" x="643.5" y="-168.7174" font-family="FreeSans" font-size="10.00" fill="#000000">::~PHG4ParticleGenerator</text>
</a>
</g>
</g>
<!-- Node26&#45;&gt;Node27 -->
<g id="edge12" class="edge">
<title>Node26&#45;&gt;Node27</title>
<path fill="none" stroke="#191970" d="M497.986,-176.7174C524.2052,-176.7174 553.8397,-176.7174 579.4907,-176.7174"/>
<polygon fill="#191970" stroke="#191970" points="497.7426,-173.2175 487.7426,-176.7174 497.7425,-180.2175 497.7426,-173.2175"/>
</g>
<!-- Node29 -->
<g id="node15" class="node">
<title>Node29</title>
<g id="a_node15"><a xlink:href="../../de/d76/classPHG4PSScanGenerator.html#a910e9a4a0228a5185e97b5466b256ec6" target="_top" xlink:title="PHG4PSScanGenerator\l::InitRun">
<polygon fill="none" stroke="#000000" points="582.5,-112.7174 582.5,-142.7174 704.5,-142.7174 704.5,-112.7174 582.5,-112.7174"/>
<text text-anchor="start" x="590.5" y="-130.7174" font-family="FreeSans" font-size="10.00" fill="#000000">PHG4PSScanGenerator</text>
<text text-anchor="middle" x="643.5" y="-119.7174" font-family="FreeSans" font-size="10.00" fill="#000000">::InitRun</text>
</a>
</g>
</g>
<!-- Node28&#45;&gt;Node29 -->
<g id="edge14" class="edge">
<title>Node28&#45;&gt;Node29</title>
<path fill="none" stroke="#191970" d="M508.2707,-127.7174C532.7945,-127.7174 559.3534,-127.7174 582.3886,-127.7174"/>
<polygon fill="#191970" stroke="#191970" points="508.2646,-124.2175 498.2646,-127.7174 508.2645,-131.2175 508.2646,-124.2175"/>
</g>
<!-- Node30 -->
<g id="node16" class="node">
<title>Node30</title>
<g id="a_node16"><a xlink:href="../../d5/df3/classPHG4SimpleEventGenerator.html#a54f0db778c3a2a4154b76b30e75baf44" target="_top" xlink:title="PHG4SimpleEventGenerator\l::InitRun">
<polygon fill="none" stroke="#000000" points="573.5,-63.7174 573.5,-93.7174 713.5,-93.7174 713.5,-63.7174 573.5,-63.7174"/>
<text text-anchor="start" x="581.5" y="-81.7174" font-family="FreeSans" font-size="10.00" fill="#000000">PHG4SimpleEventGenerator</text>
<text text-anchor="middle" x="643.5" y="-70.7174" font-family="FreeSans" font-size="10.00" fill="#000000">::InitRun</text>
</a>
</g>
</g>
<!-- Node28&#45;&gt;Node30 -->
<g id="edge16" class="edge">
<title>Node28&#45;&gt;Node30</title>
<path fill="none" stroke="#191970" d="M503.9005,-110.4593C527.9127,-104.9995 554.2435,-99.0124 577.5034,-93.7236"/>
<polygon fill="#191970" stroke="#191970" points="503.0967,-107.0527 494.1216,-112.6828 504.6488,-113.8784 503.0967,-107.0527"/>
</g>
<!-- Node29&#45;&gt;Node23 -->
<g id="edge15" class="edge">
<title>Node29&#45;&gt;Node23</title>
<path fill="none" stroke="#191970" d="M714.5976,-120.837C740.3594,-118.344 769.3265,-115.5407 794.6197,-113.093"/>
<polygon fill="#191970" stroke="#191970" points="714.1404,-117.3648 704.5241,-121.8119 714.8147,-124.3323 714.1404,-117.3648"/>
</g>
<!-- Node30&#45;&gt;Node21 -->
<g id="edge17" class="edge">
<title>Node30&#45;&gt;Node21</title>
<path fill="none" stroke="#191970" d="M723.5137,-63.5996C743.8619,-59.755 765.6486,-55.6387 785.7248,-51.8455"/>
<polygon fill="#191970" stroke="#191970" points="722.8303,-60.1667 713.654,-65.4625 724.13,-67.0451 722.8303,-60.1667"/>
</g>
</g>
</svg>
