<?xml version="1.0" encoding="UTF-8" standalone="no"?>
<!DOCTYPE svg PUBLIC "-//W3C//DTD SVG 1.1//EN"
 "http://www.w3.org/Graphics/SVG/1.1/DTD/svg11.dtd">
<!-- Generated by graphviz version 2.30.1 (20200930.0103)
 -->
<!-- Title: /dev/shm/kenichi/update&#45;github&#45;e1039&#45;doc/e1039&#45;core/packages/jobopts_svc/JobOptsSvc.h Pages: 1 -->
<svg width="2029pt" height="242pt"
 viewBox="0.00 0.00 2029.00 242.00" xmlns="http://www.w3.org/2000/svg" xmlns:xlink="http://www.w3.org/1999/xlink">
<g id="graph0" class="graph" transform="scale(1 1) rotate(0) translate(4 238)">
<title>/dev/shm/kenichi/update&#45;github&#45;e1039&#45;doc/e1039&#45;core/packages/jobopts_svc/JobOptsSvc.h</title>
<!-- Node1 -->
<g id="node1" class="node"><title>Node1</title>
<polygon fill="#bfbfbf" stroke="black" points="1023,-181 1023,-233 1159,-233 1159,-181 1023,-181"/>
<text text-anchor="start" x="1031" y="-221" font-family="FreeSans" font-size="10.00">/dev/shm/kenichi/update</text>
<text text-anchor="start" x="1031" y="-210" font-family="FreeSans" font-size="10.00">&#45;github&#45;e1039&#45;doc/e1039</text>
<text text-anchor="start" x="1031" y="-199" font-family="FreeSans" font-size="10.00">&#45;core/packages/jobopts_svc</text>
<text text-anchor="middle" x="1091" y="-188" font-family="FreeSans" font-size="10.00">/JobOptsSvc.h</text>
</g>
<!-- Node2 -->
<g id="node2" class="node"><title>Node2</title>
<g id="a_node2"><a xlink:href="../../db/d3a/DetectorConstructionWrapper_8h.html" target="_top" xlink:title="/dev/shm/kenichi/update\l&#45;github&#45;e1039&#45;doc/e1039\l&#45;core/packages/db2g4/DetectorConstruction\lWrapper.h">
<polygon fill="none" stroke="black" points="0,-91 0,-143 206,-143 206,-91 0,-91"/>
<text text-anchor="start" x="8" y="-131" font-family="FreeSans" font-size="10.00">/dev/shm/kenichi/update</text>
<text text-anchor="start" x="8" y="-120" font-family="FreeSans" font-size="10.00">&#45;github&#45;e1039&#45;doc/e1039</text>
<text text-anchor="start" x="8" y="-109" font-family="FreeSans" font-size="10.00">&#45;core/packages/db2g4/DetectorConstruction</text>
<text text-anchor="middle" x="103" y="-98" font-family="FreeSans" font-size="10.00">Wrapper.h</text>
</a>
</g>
</g>
<!-- Node1&#45;&gt;Node2 -->
<g id="edge1" class="edge"><title>Node1&#45;&gt;Node2</title>
<path fill="none" stroke="midnightblue" d="M1012.44,-204.579C858.562,-200.884 506.996,-187.946 215,-144 212.039,-143.554 209.041,-143.072 206.019,-142.558"/>
<polygon fill="midnightblue" stroke="midnightblue" points="1012.65,-208.085 1022.73,-204.819 1012.81,-201.087 1012.65,-208.085"/>
</g>
<!-- Node4 -->
<g id="node4" class="node"><title>Node4</title>
<g id="a_node4"><a xlink:href="../../d0/df9/Settings_8cc.html" target="_top" xlink:title="/dev/shm/kenichi/update\l&#45;github&#45;e1039&#45;doc/e1039\l&#45;core/packages/db2g4/Settings.cc">
<polygon fill="none" stroke="black" points="224.5,-96.5 224.5,-137.5 387.5,-137.5 387.5,-96.5 224.5,-96.5"/>
<text text-anchor="start" x="232.5" y="-125.5" font-family="FreeSans" font-size="10.00">/dev/shm/kenichi/update</text>
<text text-anchor="start" x="232.5" y="-114.5" font-family="FreeSans" font-size="10.00">&#45;github&#45;e1039&#45;doc/e1039</text>
<text text-anchor="middle" x="306" y="-103.5" font-family="FreeSans" font-size="10.00">&#45;core/packages/db2g4/Settings.cc</text>
</a>
</g>
</g>
<!-- Node1&#45;&gt;Node4 -->
<g id="edge3" class="edge"><title>Node1&#45;&gt;Node4</title>
<path fill="none" stroke="midnightblue" d="M1012.62,-203.91C883.201,-199.366 617.136,-185.407 396,-144 386.888,-142.294 377.372,-140.058 368.083,-137.614"/>
<polygon fill="midnightblue" stroke="midnightblue" points="1012.72,-207.415 1022.83,-204.258 1012.95,-200.419 1012.72,-207.415"/>
</g>
<!-- Node5 -->
<g id="node5" class="node"><title>Node5</title>
<g id="a_node5"><a xlink:href="../../d1/d34/GeomSvc_8cxx.html" target="_top" xlink:title="/dev/shm/kenichi/update\l&#45;github&#45;e1039&#45;doc/e1039\l&#45;core/packages/geom_svc\l/GeomSvc.cxx">
<polygon fill="none" stroke="black" points="405.5,-91 405.5,-143 534.5,-143 534.5,-91 405.5,-91"/>
<text text-anchor="start" x="413.5" y="-131" font-family="FreeSans" font-size="10.00">/dev/shm/kenichi/update</text>
<text text-anchor="start" x="413.5" y="-120" font-family="FreeSans" font-size="10.00">&#45;github&#45;e1039&#45;doc/e1039</text>
<text text-anchor="start" x="413.5" y="-109" font-family="FreeSans" font-size="10.00">&#45;core/packages/geom_svc</text>
<text text-anchor="middle" x="470" y="-98" font-family="FreeSans" font-size="10.00">/GeomSvc.cxx</text>
</a>
</g>
</g>
<!-- Node1&#45;&gt;Node5 -->
<g id="edge4" class="edge"><title>Node1&#45;&gt;Node5</title>
<path fill="none" stroke="midnightblue" d="M1012.74,-202.664C905.715,-196.852 708.246,-181.656 544,-144 540.947,-143.3 537.846,-142.516 534.729,-141.669"/>
<polygon fill="midnightblue" stroke="midnightblue" points="1012.64,-206.163 1022.81,-203.197 1013.01,-199.173 1012.64,-206.163"/>
</g>
<!-- Node6 -->
<g id="node6" class="node"><title>Node6</title>
<g id="a_node6"><a xlink:href="../../dd/d23/JobOptsSvc_8cxx.html" target="_top" xlink:title="/dev/shm/kenichi/update\l&#45;github&#45;e1039&#45;doc/e1039\l&#45;core/packages/jobopts_svc\l/JobOptsSvc.cxx">
<polygon fill="none" stroke="black" points="553,-91 553,-143 689,-143 689,-91 553,-91"/>
<text text-anchor="start" x="561" y="-131" font-family="FreeSans" font-size="10.00">/dev/shm/kenichi/update</text>
<text text-anchor="start" x="561" y="-120" font-family="FreeSans" font-size="10.00">&#45;github&#45;e1039&#45;doc/e1039</text>
<text text-anchor="start" x="561" y="-109" font-family="FreeSans" font-size="10.00">&#45;core/packages/jobopts_svc</text>
<text text-anchor="middle" x="621" y="-98" font-family="FreeSans" font-size="10.00">/JobOptsSvc.cxx</text>
</a>
</g>
</g>
<!-- Node1&#45;&gt;Node6 -->
<g id="edge5" class="edge"><title>Node1&#45;&gt;Node6</title>
<path fill="none" stroke="midnightblue" d="M1012.87,-197.625C933.004,-188.145 805.744,-170.487 698,-144 695.123,-143.293 692.199,-142.526 689.257,-141.716"/>
<polygon fill="midnightblue" stroke="midnightblue" points="1012.51,-201.107 1022.85,-198.797 1013.33,-194.155 1012.51,-201.107"/>
</g>
<!-- Node7 -->
<g id="node7" class="node"><title>Node7</title>
<g id="a_node7"><a xlink:href="../../d0/d06/FastTracklet_8cxx.html" target="_top" xlink:title="/dev/shm/kenichi/update\l&#45;github&#45;e1039&#45;doc/e1039\l&#45;core/packages/reco/interface\l/FastTracklet.cxx">
<polygon fill="none" stroke="black" points="707.5,-91 707.5,-143 852.5,-143 852.5,-91 707.5,-91"/>
<text text-anchor="start" x="715.5" y="-131" font-family="FreeSans" font-size="10.00">/dev/shm/kenichi/update</text>
<text text-anchor="start" x="715.5" y="-120" font-family="FreeSans" font-size="10.00">&#45;github&#45;e1039&#45;doc/e1039</text>
<text text-anchor="start" x="715.5" y="-109" font-family="FreeSans" font-size="10.00">&#45;core/packages/reco/interface</text>
<text text-anchor="middle" x="780" y="-98" font-family="FreeSans" font-size="10.00">/FastTracklet.cxx</text>
</a>
</g>
</g>
<!-- Node1&#45;&gt;Node7 -->
<g id="edge6" class="edge"><title>Node1&#45;&gt;Node7</title>
<path fill="none" stroke="midnightblue" d="M1012.92,-185.934C968.285,-174.217 911.336,-158.854 861,-144 858.309,-143.206 855.571,-142.386 852.808,-141.549"/>
<polygon fill="midnightblue" stroke="midnightblue" points="1012.27,-189.381 1022.83,-188.528 1014.04,-182.609 1012.27,-189.381"/>
</g>
<!-- Node8 -->
<g id="node8" class="node"><title>Node8</title>
<g id="a_node8"><a xlink:href="../../d5/dc2/KalmanFilter_8cxx.html" target="_top" xlink:title="/dev/shm/kenichi/update\l&#45;github&#45;e1039&#45;doc/e1039\l&#45;core/packages/reco/kfitter\l/KalmanFilter.cxx">
<polygon fill="none" stroke="black" points="870.5,-91 870.5,-143 1001.5,-143 1001.5,-91 870.5,-91"/>
<text text-anchor="start" x="878.5" y="-131" font-family="FreeSans" font-size="10.00">/dev/shm/kenichi/update</text>
<text text-anchor="start" x="878.5" y="-120" font-family="FreeSans" font-size="10.00">&#45;github&#45;e1039&#45;doc/e1039</text>
<text text-anchor="start" x="878.5" y="-109" font-family="FreeSans" font-size="10.00">&#45;core/packages/reco/kfitter</text>
<text text-anchor="middle" x="936" y="-98" font-family="FreeSans" font-size="10.00">/KalmanFilter.cxx</text>
</a>
</g>
</g>
<!-- Node1&#45;&gt;Node8 -->
<g id="edge7" class="edge"><title>Node1&#45;&gt;Node8</title>
<path fill="none" stroke="midnightblue" d="M1037.83,-175.815C1019.04,-165.145 998.12,-153.268 980.155,-143.069"/>
<polygon fill="midnightblue" stroke="midnightblue" points="1036.16,-178.889 1046.58,-180.783 1039.62,-172.802 1036.16,-178.889"/>
</g>
<!-- Node9 -->
<g id="node9" class="node"><title>Node9</title>
<g id="a_node9"><a xlink:href="../../dc/d5a/EventReducer_8h.html" target="_top" xlink:title="/dev/shm/kenichi/update\l&#45;github&#45;e1039&#45;doc/e1039\l&#45;core/packages/reco/ktracker\l/EventReducer.h">
<polygon fill="none" stroke="black" points="1019.5,-91 1019.5,-143 1162.5,-143 1162.5,-91 1019.5,-91"/>
<text text-anchor="start" x="1027.5" y="-131" font-family="FreeSans" font-size="10.00">/dev/shm/kenichi/update</text>
<text text-anchor="start" x="1027.5" y="-120" font-family="FreeSans" font-size="10.00">&#45;github&#45;e1039&#45;doc/e1039</text>
<text text-anchor="start" x="1027.5" y="-109" font-family="FreeSans" font-size="10.00">&#45;core/packages/reco/ktracker</text>
<text text-anchor="middle" x="1091" y="-98" font-family="FreeSans" font-size="10.00">/EventReducer.h</text>
</a>
</g>
</g>
<!-- Node1&#45;&gt;Node9 -->
<g id="edge8" class="edge"><title>Node1&#45;&gt;Node9</title>
<path fill="none" stroke="midnightblue" d="M1091,-170.489C1091,-161.309 1091,-151.616 1091,-143.092"/>
<polygon fill="midnightblue" stroke="midnightblue" points="1087.5,-170.547 1091,-180.547 1094.5,-170.547 1087.5,-170.547"/>
</g>
<!-- Node13 -->
<g id="node13" class="node"><title>Node13</title>
<g id="a_node13"><a xlink:href="../../db/db6/KalmanFastTracking_8h.html" target="_top" xlink:title="/dev/shm/kenichi/update\l&#45;github&#45;e1039&#45;doc/e1039\l&#45;core/packages/reco/ktracker\l/KalmanFastTracking.h">
<polygon fill="none" stroke="black" points="1180.5,-91 1180.5,-143 1323.5,-143 1323.5,-91 1180.5,-91"/>
<text text-anchor="start" x="1188.5" y="-131" font-family="FreeSans" font-size="10.00">/dev/shm/kenichi/update</text>
<text text-anchor="start" x="1188.5" y="-120" font-family="FreeSans" font-size="10.00">&#45;github&#45;e1039&#45;doc/e1039</text>
<text text-anchor="start" x="1188.5" y="-109" font-family="FreeSans" font-size="10.00">&#45;core/packages/reco/ktracker</text>
<text text-anchor="middle" x="1252" y="-98" font-family="FreeSans" font-size="10.00">/KalmanFastTracking.h</text>
</a>
</g>
</g>
<!-- Node1&#45;&gt;Node13 -->
<g id="edge12" class="edge"><title>Node1&#45;&gt;Node13</title>
<path fill="none" stroke="midnightblue" d="M1145.96,-175.96C1165.55,-165.253 1187.39,-153.315 1206.14,-143.069"/>
<polygon fill="midnightblue" stroke="midnightblue" points="1144.23,-172.915 1137.14,-180.783 1147.59,-179.058 1144.23,-172.915"/>
</g>
<!-- Node16 -->
<g id="node16" class="node"><title>Node16</title>
<g id="a_node16"><a xlink:href="../../d3/dfc/TriggerAnalyzer_8cxx.html" target="_top" xlink:title="/dev/shm/kenichi/update\l&#45;github&#45;e1039&#45;doc/e1039\l&#45;core/packages/reco/ktracker\l/TriggerAnalyzer.cxx">
<polygon fill="none" stroke="black" points="1380.5,-91 1380.5,-143 1523.5,-143 1523.5,-91 1380.5,-91"/>
<text text-anchor="start" x="1388.5" y="-131" font-family="FreeSans" font-size="10.00">/dev/shm/kenichi/update</text>
<text text-anchor="start" x="1388.5" y="-120" font-family="FreeSans" font-size="10.00">&#45;github&#45;e1039&#45;doc/e1039</text>
<text text-anchor="start" x="1388.5" y="-109" font-family="FreeSans" font-size="10.00">&#45;core/packages/reco/ktracker</text>
<text text-anchor="middle" x="1452" y="-98" font-family="FreeSans" font-size="10.00">/TriggerAnalyzer.cxx</text>
</a>
</g>
</g>
<!-- Node1&#45;&gt;Node16 -->
<g id="edge17" class="edge"><title>Node1&#45;&gt;Node16</title>
<path fill="none" stroke="midnightblue" d="M1169.21,-189.932C1224.44,-178.203 1300.06,-161.376 1366,-144 1370.68,-142.768 1375.48,-141.453 1380.31,-140.093"/>
<polygon fill="midnightblue" stroke="midnightblue" points="1168.2,-186.568 1159.14,-192.062 1169.65,-193.417 1168.2,-186.568"/>
</g>
<!-- Node17 -->
<g id="node17" class="node"><title>Node17</title>
<g id="a_node17"><a xlink:href="../../db/df0/VertexFit_8cxx.html" target="_top" xlink:title="/dev/shm/kenichi/update\l&#45;github&#45;e1039&#45;doc/e1039\l&#45;core/packages/reco/ktracker\l/VertexFit.cxx">
<polygon fill="none" stroke="black" points="1541.5,-91 1541.5,-143 1684.5,-143 1684.5,-91 1541.5,-91"/>
<text text-anchor="start" x="1549.5" y="-131" font-family="FreeSans" font-size="10.00">/dev/shm/kenichi/update</text>
<text text-anchor="start" x="1549.5" y="-120" font-family="FreeSans" font-size="10.00">&#45;github&#45;e1039&#45;doc/e1039</text>
<text text-anchor="start" x="1549.5" y="-109" font-family="FreeSans" font-size="10.00">&#45;core/packages/reco/ktracker</text>
<text text-anchor="middle" x="1613" y="-98" font-family="FreeSans" font-size="10.00">/VertexFit.cxx</text>
</a>
</g>
</g>
<!-- Node1&#45;&gt;Node17 -->
<g id="edge18" class="edge"><title>Node1&#45;&gt;Node17</title>
<path fill="none" stroke="midnightblue" d="M1169.26,-199.077C1258,-190.286 1406.64,-172.71 1532,-144 1535.02,-143.308 1538.1,-142.554 1541.19,-141.753"/>
<polygon fill="midnightblue" stroke="midnightblue" points="1168.89,-195.597 1159.27,-200.054 1169.57,-202.563 1168.89,-195.597"/>
</g>
<!-- Node18 -->
<g id="node18" class="node"><title>Node18</title>
<g id="a_node18"><a xlink:href="../../d5/d75/KalmanDSTrk_8h.html" target="_top" xlink:title="/dev/shm/kenichi/update\l&#45;github&#45;e1039&#45;doc/e1039\l&#45;core/packages/reco/patterndb\l/KalmanDSTrk.h">
<polygon fill="none" stroke="black" points="1703,-91 1703,-143 1851,-143 1851,-91 1703,-91"/>
<text text-anchor="start" x="1711" y="-131" font-family="FreeSans" font-size="10.00">/dev/shm/kenichi/update</text>
<text text-anchor="start" x="1711" y="-120" font-family="FreeSans" font-size="10.00">&#45;github&#45;e1039&#45;doc/e1039</text>
<text text-anchor="start" x="1711" y="-109" font-family="FreeSans" font-size="10.00">&#45;core/packages/reco/patterndb</text>
<text text-anchor="middle" x="1777" y="-98" font-family="FreeSans" font-size="10.00">/KalmanDSTrk.h</text>
</a>
</g>
</g>
<!-- Node1&#45;&gt;Node18 -->
<g id="edge19" class="edge"><title>Node1&#45;&gt;Node18</title>
<path fill="none" stroke="midnightblue" d="M1169.55,-202.861C1285.2,-197.126 1507.64,-181.846 1693,-144 1696.14,-143.359 1699.33,-142.648 1702.54,-141.883"/>
<polygon fill="midnightblue" stroke="midnightblue" points="1169.19,-199.374 1159.37,-203.354 1169.53,-206.365 1169.19,-199.374"/>
</g>
<!-- Node15 -->
<g id="node15" class="node"><title>Node15</title>
<g id="a_node15"><a xlink:href="../../db/d86/test__minimum_8cxx.html" target="_top" xlink:title="/dev/shm/kenichi/update\l&#45;github&#45;e1039&#45;doc/e1039\l&#45;core/packages/reco/SQGenFit\l/test/test_minimum.cxx">
<polygon fill="none" stroke="black" points="1430.5,-1 1430.5,-53 1581.5,-53 1581.5,-1 1430.5,-1"/>
<text text-anchor="start" x="1438.5" y="-41" font-family="FreeSans" font-size="10.00">/dev/shm/kenichi/update</text>
<text text-anchor="start" x="1438.5" y="-30" font-family="FreeSans" font-size="10.00">&#45;github&#45;e1039&#45;doc/e1039</text>
<text text-anchor="start" x="1438.5" y="-19" font-family="FreeSans" font-size="10.00">&#45;core/packages/reco/SQGenFit</text>
<text text-anchor="middle" x="1506" y="-8" font-family="FreeSans" font-size="10.00">/test/test_minimum.cxx</text>
</a>
</g>
</g>
<!-- Node1&#45;&gt;Node15 -->
<g id="edge21" class="edge"><title>Node1&#45;&gt;Node15</title>
<path fill="none" stroke="midnightblue" d="M1169.38,-199.558C1219.48,-192.296 1283.83,-176.851 1332,-144 1356.46,-127.319 1348.13,-108.797 1371,-90 1389.43,-74.8526 1412.17,-62.557 1433.69,-53.0299"/>
<polygon fill="midnightblue" stroke="midnightblue" points="1168.68,-196.122 1159.24,-200.945 1169.63,-203.057 1168.68,-196.122"/>
</g>
<!-- Node20 -->
<g id="node20" class="node"><title>Node20</title>
<g id="a_node20"><a xlink:href="../../d2/d3a/Fun4TrkDev_8C.html" target="_top" xlink:title="/dev/shm/kenichi/update\l&#45;github&#45;e1039&#45;doc/e1039\l&#45;analysis/TrkDev/Fun4TrkDev.C">
<polygon fill="none" stroke="black" points="1869,-96.5 1869,-137.5 2021,-137.5 2021,-96.5 1869,-96.5"/>
<text text-anchor="start" x="1877" y="-125.5" font-family="FreeSans" font-size="10.00">/dev/shm/kenichi/update</text>
<text text-anchor="start" x="1877" y="-114.5" font-family="FreeSans" font-size="10.00">&#45;github&#45;e1039&#45;doc/e1039</text>
<text text-anchor="middle" x="1945" y="-103.5" font-family="FreeSans" font-size="10.00">&#45;analysis/TrkDev/Fun4TrkDev.C</text>
</a>
</g>
</g>
<!-- Node1&#45;&gt;Node20 -->
<g id="edge22" class="edge"><title>Node1&#45;&gt;Node20</title>
<path fill="none" stroke="midnightblue" d="M1169.23,-205.258C1309.08,-202.702 1610.68,-191.6 1860,-144 1868.79,-142.322 1877.96,-140.069 1886.89,-137.589"/>
<polygon fill="midnightblue" stroke="midnightblue" points="1168.97,-201.762 1159.03,-205.435 1169.09,-208.761 1168.97,-201.762"/>
</g>
<!-- Node3 -->
<g id="node3" class="node"><title>Node3</title>
<g id="a_node3"><a xlink:href="../../d1/d32/DetectorConstructionWrapper_8cxx.html" target="_top" xlink:title="/dev/shm/kenichi/update\l&#45;github&#45;e1039&#45;doc/e1039\l&#45;core/packages/db2g4/DetectorConstruction\lWrapper.cxx">
<polygon fill="none" stroke="black" points="0,-1 0,-53 206,-53 206,-1 0,-1"/>
<text text-anchor="start" x="8" y="-41" font-family="FreeSans" font-size="10.00">/dev/shm/kenichi/update</text>
<text text-anchor="start" x="8" y="-30" font-family="FreeSans" font-size="10.00">&#45;github&#45;e1039&#45;doc/e1039</text>
<text text-anchor="start" x="8" y="-19" font-family="FreeSans" font-size="10.00">&#45;core/packages/db2g4/DetectorConstruction</text>
<text text-anchor="middle" x="103" y="-8" font-family="FreeSans" font-size="10.00">Wrapper.cxx</text>
</a>
</g>
</g>
<!-- Node2&#45;&gt;Node3 -->
<g id="edge2" class="edge"><title>Node2&#45;&gt;Node3</title>
<path fill="none" stroke="midnightblue" d="M103,-80.4892C103,-71.3088 103,-61.616 103,-53.0921"/>
<polygon fill="midnightblue" stroke="midnightblue" points="99.5001,-80.5467 103,-90.5468 106.5,-80.5468 99.5001,-80.5467"/>
</g>
<!-- Node10 -->
<g id="node10" class="node"><title>Node10</title>
<g id="a_node10"><a xlink:href="../../db/d35/EventReducer_8cxx.html" target="_top" xlink:title="/dev/shm/kenichi/update\l&#45;github&#45;e1039&#45;doc/e1039\l&#45;core/packages/reco/ktracker\l/EventReducer.cxx">
<polygon fill="none" stroke="black" points="768.5,-1 768.5,-53 911.5,-53 911.5,-1 768.5,-1"/>
<text text-anchor="start" x="776.5" y="-41" font-family="FreeSans" font-size="10.00">/dev/shm/kenichi/update</text>
<text text-anchor="start" x="776.5" y="-30" font-family="FreeSans" font-size="10.00">&#45;github&#45;e1039&#45;doc/e1039</text>
<text text-anchor="start" x="776.5" y="-19" font-family="FreeSans" font-size="10.00">&#45;core/packages/reco/ktracker</text>
<text text-anchor="middle" x="840" y="-8" font-family="FreeSans" font-size="10.00">/EventReducer.cxx</text>
</a>
</g>
</g>
<!-- Node9&#45;&gt;Node10 -->
<g id="edge9" class="edge"><title>Node9&#45;&gt;Node10</title>
<path fill="none" stroke="midnightblue" d="M1009.76,-87.5157C978.169,-76.4416 942.293,-63.8637 911.686,-53.1328"/>
<polygon fill="midnightblue" stroke="midnightblue" points="1008.81,-90.8948 1019.41,-90.9005 1011.13,-84.289 1008.81,-90.8948"/>
</g>
<!-- Node11 -->
<g id="node11" class="node"><title>Node11</title>
<g id="a_node11"><a xlink:href="../../d8/d66/KalmanFastTrackingWrapper_8cxx.html" target="_top" xlink:title="/dev/shm/kenichi/update\l&#45;github&#45;e1039&#45;doc/e1039\l&#45;core/packages/reco/ktracker\l/KalmanFastTrackingWrapper.cxx">
<polygon fill="none" stroke="black" points="1090.5,-1 1090.5,-53 1251.5,-53 1251.5,-1 1090.5,-1"/>
<text text-anchor="start" x="1098.5" y="-41" font-family="FreeSans" font-size="10.00">/dev/shm/kenichi/update</text>
<text text-anchor="start" x="1098.5" y="-30" font-family="FreeSans" font-size="10.00">&#45;github&#45;e1039&#45;doc/e1039</text>
<text text-anchor="start" x="1098.5" y="-19" font-family="FreeSans" font-size="10.00">&#45;core/packages/reco/ktracker</text>
<text text-anchor="middle" x="1171" y="-8" font-family="FreeSans" font-size="10.00">/KalmanFastTrackingWrapper.cxx</text>
</a>
</g>
</g>
<!-- Node9&#45;&gt;Node11 -->
<g id="edge10" class="edge"><title>Node9&#45;&gt;Node11</title>
<path fill="none" stroke="midnightblue" d="M1120.87,-83.1386C1129.91,-73.1958 1139.69,-62.4408 1148.19,-53.0921"/>
<polygon fill="midnightblue" stroke="midnightblue" points="1118.28,-80.793 1114.14,-90.5468 1123.46,-85.5017 1118.28,-80.793"/>
</g>
<!-- Node12 -->
<g id="node12" class="node"><title>Node12</title>
<g id="a_node12"><a xlink:href="../../d0/d98/SQReco_8cxx.html" target="_top" xlink:title="/dev/shm/kenichi/update\l&#45;github&#45;e1039&#45;doc/e1039\l&#45;core/packages/reco/ktracker\l/SQReco.cxx">
<polygon fill="none" stroke="black" points="929.5,-1 929.5,-53 1072.5,-53 1072.5,-1 929.5,-1"/>
<text text-anchor="start" x="937.5" y="-41" font-family="FreeSans" font-size="10.00">/dev/shm/kenichi/update</text>
<text text-anchor="start" x="937.5" y="-30" font-family="FreeSans" font-size="10.00">&#45;github&#45;e1039&#45;doc/e1039</text>
<text text-anchor="start" x="937.5" y="-19" font-family="FreeSans" font-size="10.00">&#45;core/packages/reco/ktracker</text>
<text text-anchor="middle" x="1001" y="-8" font-family="FreeSans" font-size="10.00">/SQReco.cxx</text>
</a>
</g>
</g>
<!-- Node9&#45;&gt;Node12 -->
<g id="edge11" class="edge"><title>Node9&#45;&gt;Node12</title>
<path fill="none" stroke="midnightblue" d="M1057.69,-83.4308C1047.44,-73.4069 1036.32,-62.5325 1026.66,-53.0921"/>
<polygon fill="midnightblue" stroke="midnightblue" points="1055.37,-86.0581 1064.97,-90.5468 1060.27,-81.053 1055.37,-86.0581"/>
</g>
<!-- Node14 -->
<g id="node14" class="node"><title>Node14</title>
<g id="a_node14"><a xlink:href="../../d0/d4a/KalmanFastTracking_8cxx.html" target="_top" xlink:title="/dev/shm/kenichi/update\l&#45;github&#45;e1039&#45;doc/e1039\l&#45;core/packages/reco/ktracker\l/KalmanFastTracking.cxx">
<polygon fill="none" stroke="black" points="1269.5,-1 1269.5,-53 1412.5,-53 1412.5,-1 1269.5,-1"/>
<text text-anchor="start" x="1277.5" y="-41" font-family="FreeSans" font-size="10.00">/dev/shm/kenichi/update</text>
<text text-anchor="start" x="1277.5" y="-30" font-family="FreeSans" font-size="10.00">&#45;github&#45;e1039&#45;doc/e1039</text>
<text text-anchor="start" x="1277.5" y="-19" font-family="FreeSans" font-size="10.00">&#45;core/packages/reco/ktracker</text>
<text text-anchor="middle" x="1341" y="-8" font-family="FreeSans" font-size="10.00">/KalmanFastTracking.cxx</text>
</a>
</g>
</g>
<!-- Node13&#45;&gt;Node14 -->
<g id="edge13" class="edge"><title>Node13&#45;&gt;Node14</title>
<path fill="none" stroke="midnightblue" d="M1284.94,-83.4308C1295.08,-73.4069 1306.08,-62.5325 1315.62,-53.0921"/>
<polygon fill="midnightblue" stroke="midnightblue" points="1282.39,-81.0269 1277.74,-90.5468 1287.31,-86.0045 1282.39,-81.0269"/>
</g>
<!-- Node13&#45;&gt;Node11 -->
<g id="edge14" class="edge"><title>Node13&#45;&gt;Node11</title>
<path fill="none" stroke="midnightblue" d="M1221.75,-83.1386C1212.6,-73.1958 1202.7,-62.4408 1194.1,-53.0921"/>
<polygon fill="midnightblue" stroke="midnightblue" points="1219.22,-85.5594 1228.57,-90.5468 1224.37,-80.8187 1219.22,-85.5594"/>
</g>
<!-- Node13&#45;&gt;Node12 -->
<g id="edge15" class="edge"><title>Node13&#45;&gt;Node12</title>
<path fill="none" stroke="midnightblue" d="M1170.76,-87.5157C1139.17,-76.4416 1103.29,-63.8637 1072.69,-53.1328"/>
<polygon fill="midnightblue" stroke="midnightblue" points="1169.81,-90.8948 1180.41,-90.9005 1172.13,-84.289 1169.81,-90.8948"/>
</g>
<!-- Node13&#45;&gt;Node15 -->
<g id="edge16" class="edge"><title>Node13&#45;&gt;Node15</title>
<path fill="none" stroke="midnightblue" d="M1333.59,-87.7334C1365.73,-76.5982 1402.34,-63.9149 1433.53,-53.1082"/>
<polygon fill="midnightblue" stroke="midnightblue" points="1332.07,-84.5547 1323.77,-91.1356 1334.36,-91.169 1332.07,-84.5547"/>
</g>
<!-- Node19 -->
<g id="node19" class="node"><title>Node19</title>
<g id="a_node19"><a xlink:href="../../df/d8d/KalmanDSTrk_8cxx.html" target="_top" xlink:title="/dev/shm/kenichi/update\l&#45;github&#45;e1039&#45;doc/e1039\l&#45;core/packages/reco/patterndb\l/KalmanDSTrk.cxx">
<polygon fill="none" stroke="black" points="1703,-1 1703,-53 1851,-53 1851,-1 1703,-1"/>
<text text-anchor="start" x="1711" y="-41" font-family="FreeSans" font-size="10.00">/dev/shm/kenichi/update</text>
<text text-anchor="start" x="1711" y="-30" font-family="FreeSans" font-size="10.00">&#45;github&#45;e1039&#45;doc/e1039</text>
<text text-anchor="start" x="1711" y="-19" font-family="FreeSans" font-size="10.00">&#45;core/packages/reco/patterndb</text>
<text text-anchor="middle" x="1777" y="-8" font-family="FreeSans" font-size="10.00">/KalmanDSTrk.cxx</text>
</a>
</g>
</g>
<!-- Node18&#45;&gt;Node19 -->
<g id="edge20" class="edge"><title>Node18&#45;&gt;Node19</title>
<path fill="none" stroke="midnightblue" d="M1777,-80.4892C1777,-71.3088 1777,-61.616 1777,-53.0921"/>
<polygon fill="midnightblue" stroke="midnightblue" points="1773.5,-80.5467 1777,-90.5468 1780.5,-80.5468 1773.5,-80.5467"/>
</g>
</g>
</svg>
