<?xml version="1.0" encoding="UTF-8" standalone="no"?>
<!DOCTYPE svg PUBLIC "-//W3C//DTD SVG 1.1//EN"
 "http://www.w3.org/Graphics/SVG/1.1/DTD/svg11.dtd">
<!-- Generated by graphviz version 2.36.0 (20140111.2315)
 -->
<!-- Title: GeomSvc::getCostheta Pages: 1 -->
<svg width="298pt" height="252pt"
 viewBox="0.00 0.00 298.00 252.00" xmlns="http://www.w3.org/2000/svg" xmlns:xlink="http://www.w3.org/1999/xlink">
<g id="graph0" class="graph" transform="scale(1 1) rotate(0) translate(4 248)">
<title>GeomSvc::getCostheta</title>
<!-- Node1 -->
<g id="node1" class="node"><title>Node1</title>
<polygon fill="#bfbfbf" stroke="black" points="0.5,-117.5 0.5,-136.5 117.5,-136.5 117.5,-117.5 0.5,-117.5"/>
<text text-anchor="middle" x="59" y="-124.5" font-family="FreeSans" font-size="10.00">GeomSvc::getCostheta</text>
</g>
<!-- Node2 -->
<g id="node2" class="node"><title>Node2</title>
<g id="a_node2"><a xlink:href="../../d9/dc3/classKalmanTrack.html#a130df9a64175b4854a25f0de3120cf91" target="_top" xlink:title="KalmanTrack::getAlignment">
<polygon fill="none" stroke="black" points="154,-224.5 154,-243.5 290,-243.5 290,-224.5 154,-224.5"/>
<text text-anchor="middle" x="222" y="-231.5" font-family="FreeSans" font-size="10.00">KalmanTrack::getAlignment</text>
</a>
</g>
</g>
<!-- Node1&#45;&gt;Node2 -->
<g id="edge1" class="edge"><title>Node1&#45;&gt;Node2</title>
<path fill="none" stroke="midnightblue" d="M74.0588,-144.453C90.9954,-164.352 121.28,-196.509 154,-215 160.737,-218.807 168.292,-221.898 175.837,-224.393"/>
<polygon fill="midnightblue" stroke="midnightblue" points="76.5372,-141.96 67.4522,-136.509 71.155,-146.435 76.5372,-141.96"/>
</g>
<!-- Node3 -->
<g id="node3" class="node"><title>Node3</title>
<g id="a_node3"><a xlink:href="../../d2/d26/classTracklet.html#ab125c1619403036725588cd05b653407" target="_top" xlink:title="Tracklet::getExpPositionW">
<polygon fill="none" stroke="black" points="157,-186.5 157,-205.5 287,-205.5 287,-186.5 157,-186.5"/>
<text text-anchor="middle" x="222" y="-193.5" font-family="FreeSans" font-size="10.00">Tracklet::getExpPositionW</text>
</a>
</g>
</g>
<!-- Node1&#45;&gt;Node3 -->
<g id="edge2" class="edge"><title>Node1&#45;&gt;Node3</title>
<path fill="none" stroke="midnightblue" d="M84.9097,-141.652C103.507,-152.175 129.782,-166.178 154,-176 163.674,-179.924 174.41,-183.468 184.402,-186.446"/>
<polygon fill="midnightblue" stroke="midnightblue" points="86.6046,-138.589 76.1881,-136.653 83.1238,-144.662 86.6046,-138.589"/>
</g>
<!-- Node4 -->
<g id="node4" class="node"><title>Node4</title>
<g id="a_node4"><a xlink:href="../../d9/dc3/classKalmanTrack.html#ac73a7ff611d9b0a7cf77eb1775901036" target="_top" xlink:title="KalmanTrack::getSagittaIn\lSuperDetector">
<polygon fill="none" stroke="black" points="156.5,-137 156.5,-167 287.5,-167 287.5,-137 156.5,-137"/>
<text text-anchor="start" x="164.5" y="-155" font-family="FreeSans" font-size="10.00">KalmanTrack::getSagittaIn</text>
<text text-anchor="middle" x="222" y="-144" font-family="FreeSans" font-size="10.00">SuperDetector</text>
</a>
</g>
</g>
<!-- Node1&#45;&gt;Node4 -->
<g id="edge3" class="edge"><title>Node1&#45;&gt;Node4</title>
<path fill="none" stroke="midnightblue" d="M127.809,-137.529C137.264,-138.997 146.957,-140.503 156.351,-141.961"/>
<polygon fill="midnightblue" stroke="midnightblue" points="128.089,-134.031 117.67,-135.955 127.014,-140.948 128.089,-134.031"/>
</g>
<!-- Node5 -->
<g id="node5" class="node"><title>Node5</title>
<g id="a_node5"><a xlink:href="../../d3/d46/classKalmanFastTracking.html#a1f0655a7ab5073c08fe0bfa15930dc8c" target="_top" xlink:title="KalmanFastTracking\l::KalmanFastTracking">
<polygon fill="none" stroke="black" points="166.5,-88 166.5,-118 277.5,-118 277.5,-88 166.5,-88"/>
<text text-anchor="start" x="174.5" y="-106" font-family="FreeSans" font-size="10.00">KalmanFastTracking</text>
<text text-anchor="middle" x="222" y="-95" font-family="FreeSans" font-size="10.00">::KalmanFastTracking</text>
</a>
</g>
</g>
<!-- Node1&#45;&gt;Node5 -->
<g id="edge4" class="edge"><title>Node1&#45;&gt;Node5</title>
<path fill="none" stroke="midnightblue" d="M127.866,-116.883C140.729,-114.966 154.034,-112.982 166.423,-111.136"/>
<polygon fill="midnightblue" stroke="midnightblue" points="127.045,-113.467 117.67,-118.403 128.077,-120.391 127.045,-113.467"/>
</g>
<!-- Node6 -->
<g id="node6" class="node"><title>Node6</title>
<g id="a_node6"><a xlink:href="../../df/dd0/classNode.html#a00929e56ab55604a35b278d93c95d934" target="_top" xlink:title="constructor from a Hit to a Node ">
<polygon fill="none" stroke="black" points="188,-49.5 188,-68.5 256,-68.5 256,-49.5 188,-49.5"/>
<text text-anchor="middle" x="222" y="-56.5" font-family="FreeSans" font-size="10.00">Node::Node</text>
</a>
</g>
</g>
<!-- Node1&#45;&gt;Node6 -->
<g id="edge5" class="edge"><title>Node1&#45;&gt;Node6</title>
<path fill="none" stroke="midnightblue" d="M85.285,-112.495C103.88,-102.225 129.991,-88.6203 154,-79 164.817,-74.6655 176.944,-70.7694 187.876,-67.5924"/>
<polygon fill="midnightblue" stroke="midnightblue" points="83.5697,-109.444 76.5498,-117.379 86.9862,-115.553 83.5697,-109.444"/>
</g>
<!-- Node7 -->
<g id="node7" class="node"><title>Node7</title>
<g id="a_node7"><a xlink:href="../../d6/d20/classTestSimAnalyzer.html#ad3f64f51531f83e2af581ba312ca6abc" target="_top" xlink:title="TestSimAnalyzer::process\l_event">
<polygon fill="none" stroke="black" points="157.5,-0 157.5,-30 286.5,-30 286.5,-0 157.5,-0"/>
<text text-anchor="start" x="165.5" y="-18" font-family="FreeSans" font-size="10.00">TestSimAnalyzer::process</text>
<text text-anchor="middle" x="222" y="-7" font-family="FreeSans" font-size="10.00">_event</text>
</a>
</g>
</g>
<!-- Node1&#45;&gt;Node7 -->
<g id="edge6" class="edge"><title>Node1&#45;&gt;Node7</title>
<path fill="none" stroke="midnightblue" d="M74.9122,-109.61C92.2377,-90.3306 122.497,-59.3989 154,-40 160.026,-36.2894 166.69,-32.9918 173.409,-30.1072"/>
<polygon fill="midnightblue" stroke="midnightblue" points="72.0954,-107.513 68.1082,-117.329 77.3465,-112.142 72.0954,-107.513"/>
</g>
</g>
</svg>
