<?xml version="1.0" encoding="UTF-8" standalone="no"?>
<!DOCTYPE svg PUBLIC "-//W3C//DTD SVG 1.1//EN"
 "http://www.w3.org/Graphics/SVG/1.1/DTD/svg11.dtd">
<!-- Generated by graphviz version 2.36.0 (20140111.2315)
 -->
<!-- Title: GeomSvc::getInterception Pages: 1 -->
<svg width="1494pt" height="693pt"
 viewBox="0.00 0.00 1494.00 693.25" xmlns="http://www.w3.org/2000/svg" xmlns:xlink="http://www.w3.org/1999/xlink">
<g id="graph0" class="graph" transform="scale(1 1) rotate(0) translate(4 689.246)">
<title>GeomSvc::getInterception</title>
<!-- Node1 -->
<g id="node1" class="node"><title>Node1</title>
<polygon fill="#bfbfbf" stroke="black" points="0.5,-551.746 0.5,-570.746 129.5,-570.746 129.5,-551.746 0.5,-551.746"/>
<text text-anchor="middle" x="65" y="-558.746" font-family="FreeSans" font-size="10.00">GeomSvc::getInterception</text>
</g>
<!-- Node2 -->
<g id="node2" class="node"><title>Node2</title>
<g id="a_node2"><a xlink:href="../../d2/d26/classTracklet.html#af4572336b769b0e1f0b2d679887bab5d" target="_top" xlink:title="Tracklet::calcChisq">
<polygon fill="none" stroke="black" points="166.5,-551.746 166.5,-570.746 265.5,-570.746 265.5,-551.746 166.5,-551.746"/>
<text text-anchor="middle" x="216" y="-558.746" font-family="FreeSans" font-size="10.00">Tracklet::calcChisq</text>
</a>
</g>
</g>
<!-- Node1&#45;&gt;Node2 -->
<g id="edge1" class="edge"><title>Node1&#45;&gt;Node2</title>
<path fill="none" stroke="midnightblue" d="M139.806,-561.246C148.857,-561.246 157.922,-561.246 166.466,-561.246"/>
<polygon fill="midnightblue" stroke="midnightblue" points="139.622,-557.746 129.622,-561.246 139.622,-564.746 139.622,-557.746"/>
</g>
<!-- Node3 -->
<g id="node3" class="node"><title>Node3</title>
<g id="a_node3"><a xlink:href="../../d2/d26/classTracklet.html#a0e6fb425d4423914f238597eef32ca60" target="_top" xlink:title="Tracklet::operator+">
<polygon fill="none" stroke="black" points="302,-665.746 302,-684.746 400,-684.746 400,-665.746 302,-665.746"/>
<text text-anchor="middle" x="351" y="-672.746" font-family="FreeSans" font-size="10.00">Tracklet::operator+</text>
</a>
</g>
</g>
<!-- Node2&#45;&gt;Node3 -->
<g id="edge2" class="edge"><title>Node2&#45;&gt;Node3</title>
<path fill="none" stroke="midnightblue" d="M229.151,-579.295C244.106,-600.308 271.322,-634.855 302,-656.246 307.367,-659.988 313.576,-663.141 319.71,-665.737"/>
<polygon fill="midnightblue" stroke="midnightblue" points="231.926,-577.156 223.345,-570.943 226.178,-581.152 231.926,-577.156"/>
</g>
<!-- Node4 -->
<g id="node4" class="node"><title>Node4</title>
<g id="a_node4"><a xlink:href="../../d2/d26/classTracklet.html#a78f7ac6a09d7778af318fcb72f73a13d" target="_top" xlink:title="Tracklet::operator*">
<polygon fill="none" stroke="black" points="303.5,-627.746 303.5,-646.746 398.5,-646.746 398.5,-627.746 303.5,-627.746"/>
<text text-anchor="middle" x="351" y="-634.746" font-family="FreeSans" font-size="10.00">Tracklet::operator*</text>
</a>
</g>
</g>
<!-- Node2&#45;&gt;Node4 -->
<g id="edge3" class="edge"><title>Node2&#45;&gt;Node4</title>
<path fill="none" stroke="midnightblue" d="M237.886,-577.098C254.629,-589.344 279.041,-606.182 302,-618.246 308.585,-621.707 315.946,-624.92 322.887,-627.684"/>
<polygon fill="midnightblue" stroke="midnightblue" points="239.547,-573.973 229.43,-570.827 235.377,-579.596 239.547,-573.973"/>
</g>
<!-- Node5 -->
<g id="node5" class="node"><title>Node5</title>
<g id="a_node5"><a xlink:href="../../d2/d26/classTracklet.html#aee5b5f15d7f0485b9bb3897defcea876" target="_top" xlink:title="Tracklet::merge">
<polygon fill="none" stroke="black" points="649.5,-387.746 649.5,-406.746 732.5,-406.746 732.5,-387.746 649.5,-387.746"/>
<text text-anchor="middle" x="691" y="-394.746" font-family="FreeSans" font-size="10.00">Tracklet::merge</text>
</a>
</g>
</g>
<!-- Node2&#45;&gt;Node5 -->
<g id="edge4" class="edge"><title>Node2&#45;&gt;Node5</title>
<path fill="none" stroke="midnightblue" d="M234.865,-544.642C270.128,-513.031 352.524,-444.815 436,-416.246 507.961,-391.618 597.884,-391.507 649.148,-394.086"/>
<polygon fill="midnightblue" stroke="midnightblue" points="232.365,-542.184 227.317,-551.499 237.072,-547.365 232.365,-542.184"/>
</g>
<!-- Node12 -->
<g id="node12" class="node"><title>Node12</title>
<g id="a_node12"><a xlink:href="../../d2/d26/classTracklet.html#a476e4e0cd1490e5ed9f20fd5e1adc0d9" target="_top" xlink:title="Tracklet::Eval">
<polygon fill="none" stroke="black" points="313.5,-589.746 313.5,-608.746 388.5,-608.746 388.5,-589.746 313.5,-589.746"/>
<text text-anchor="middle" x="351" y="-596.746" font-family="FreeSans" font-size="10.00">Tracklet::Eval</text>
</a>
</g>
</g>
<!-- Node2&#45;&gt;Node12 -->
<g id="edge11" class="edge"><title>Node2&#45;&gt;Node12</title>
<path fill="none" stroke="midnightblue" d="M260.367,-573.637C278.581,-578.841 299.439,-584.8 316.449,-589.66"/>
<polygon fill="midnightblue" stroke="midnightblue" points="261.138,-570.217 250.562,-570.835 259.215,-576.948 261.138,-570.217"/>
</g>
<!-- Node15 -->
<g id="node15" class="node"><title>Node15</title>
<g id="a_node15"><a xlink:href="../../d2/d26/classTracklet.html#a3449deb3aafaabda3dc37d1e0419b4bf" target="_top" xlink:title="Tracklet::print">
<polygon fill="none" stroke="black" points="313.5,-273.746 313.5,-292.746 388.5,-292.746 388.5,-273.746 313.5,-273.746"/>
<text text-anchor="middle" x="351" y="-280.746" font-family="FreeSans" font-size="10.00">Tracklet::print</text>
</a>
</g>
</g>
<!-- Node2&#45;&gt;Node15 -->
<g id="edge14" class="edge"><title>Node2&#45;&gt;Node15</title>
<path fill="none" stroke="midnightblue" d="M225.998,-542.371C241.498,-509.864 274.245,-441.219 302,-383.246 317.883,-350.071 336.785,-310.734 345.36,-292.897"/>
<polygon fill="midnightblue" stroke="midnightblue" points="222.745,-541.063 221.6,-551.596 229.063,-544.075 222.745,-541.063"/>
</g>
<!-- Node19 -->
<g id="node19" class="node"><title>Node19</title>
<g id="a_node19"><a xlink:href="../../db/daa/classKalmanDSTrk.html#a3f6e88dab44e27eebd46211c27a144ec" target="_top" xlink:title="KalmanDSTrk::removeBadHits">
<polygon fill="none" stroke="black" points="616.5,-100.746 616.5,-119.746 765.5,-119.746 765.5,-100.746 616.5,-100.746"/>
<text text-anchor="middle" x="691" y="-107.746" font-family="FreeSans" font-size="10.00">KalmanDSTrk::removeBadHits</text>
</a>
</g>
</g>
<!-- Node2&#45;&gt;Node19 -->
<g id="edge41" class="edge"><title>Node2&#45;&gt;Node19</title>
<path fill="none" stroke="midnightblue" d="M217.533,-541.304C220.962,-459.155 246.456,-146.219 436,-38.2463 491.61,-6.56831 518.668,-19.9588 580,-38.2463 621.34,-50.5728 661.595,-83.9427 679.835,-100.565"/>
<polygon fill="midnightblue" stroke="midnightblue" points="214.021,-541.582 217.17,-551.698 221.017,-541.826 214.021,-541.582"/>
</g>
<!-- Node24 -->
<g id="node24" class="node"><title>Node24</title>
<g id="a_node24"><a xlink:href="../../d3/d46/classKalmanFastTracking.html#a1f8aefdf54827f85127e60787ac08053" target="_top" xlink:title="KalmanFastTracking\l::removeBadHits">
<polygon fill="none" stroke="black" points="637.5,-464.246 637.5,-494.246 744.5,-494.246 744.5,-464.246 637.5,-464.246"/>
<text text-anchor="start" x="645.5" y="-482.246" font-family="FreeSans" font-size="10.00">KalmanFastTracking</text>
<text text-anchor="middle" x="691" y="-471.246" font-family="FreeSans" font-size="10.00">::removeBadHits</text>
</a>
</g>
</g>
<!-- Node2&#45;&gt;Node24 -->
<g id="edge42" class="edge"><title>Node2&#45;&gt;Node24</title>
<path fill="none" stroke="midnightblue" d="M275.931,-551.03C369.004,-534.895 548.565,-503.766 637.479,-488.351"/>
<polygon fill="midnightblue" stroke="midnightblue" points="275.093,-547.623 265.838,-552.78 276.289,-554.52 275.093,-547.623"/>
</g>
<!-- Node6 -->
<g id="node6" class="node"><title>Node6</title>
<g id="a_node6"><a xlink:href="../../db/daa/classKalmanDSTrk.html#adf4981f081f2606bf3412851eaa62eb0" target="_top" xlink:title="KalmanDSTrk::buildGlobal\lTracks">
<polygon fill="none" stroke="black" points="813,-180.246 813,-210.246 943,-210.246 943,-180.246 813,-180.246"/>
<text text-anchor="start" x="821" y="-198.246" font-family="FreeSans" font-size="10.00">KalmanDSTrk::buildGlobal</text>
<text text-anchor="middle" x="878" y="-187.246" font-family="FreeSans" font-size="10.00">Tracks</text>
</a>
</g>
</g>
<!-- Node5&#45;&gt;Node6 -->
<g id="edge5" class="edge"><title>Node5&#45;&gt;Node6</title>
<path fill="none" stroke="midnightblue" d="M714.585,-381.814C729.893,-370.828 750.144,-355.231 766,-339.246 808.236,-296.668 848.922,-237.97 867.093,-210.535"/>
<polygon fill="midnightblue" stroke="midnightblue" points="712.368,-379.095 706.214,-387.719 716.403,-384.815 712.368,-379.095"/>
</g>
<!-- Node10 -->
<g id="node10" class="node"><title>Node10</title>
<g id="a_node10"><a xlink:href="../../d3/d46/classKalmanFastTracking.html#a53c93bc5e58b3560d1cfb42e84bbe95c" target="_top" xlink:title="KalmanFastTracking\l::buildGlobalTracks">
<polygon fill="none" stroke="black" points="824.5,-382.246 824.5,-412.246 931.5,-412.246 931.5,-382.246 824.5,-382.246"/>
<text text-anchor="start" x="832.5" y="-400.246" font-family="FreeSans" font-size="10.00">KalmanFastTracking</text>
<text text-anchor="middle" x="878" y="-389.246" font-family="FreeSans" font-size="10.00">::buildGlobalTracks</text>
</a>
</g>
</g>
<!-- Node5&#45;&gt;Node10 -->
<g id="edge9" class="edge"><title>Node5&#45;&gt;Node10</title>
<path fill="none" stroke="midnightblue" d="M742.729,-397.246C768.03,-397.246 798.608,-397.246 824.189,-397.246"/>
<polygon fill="midnightblue" stroke="midnightblue" points="742.599,-393.746 732.599,-397.246 742.599,-400.746 742.599,-393.746"/>
</g>
<!-- Node7 -->
<g id="node7" class="node"><title>Node7</title>
<g id="a_node7"><a xlink:href="../../db/daa/classKalmanDSTrk.html#a58ceb0cdcf685588b2a543d7a9c2bf9d" target="_top" xlink:title="KalmanDSTrk::setRawEvent\lWorker">
<polygon fill="none" stroke="black" points="990,-180.246 990,-210.246 1130,-210.246 1130,-180.246 990,-180.246"/>
<text text-anchor="start" x="998" y="-198.246" font-family="FreeSans" font-size="10.00">KalmanDSTrk::setRawEvent</text>
<text text-anchor="middle" x="1060" y="-187.246" font-family="FreeSans" font-size="10.00">Worker</text>
</a>
</g>
</g>
<!-- Node6&#45;&gt;Node7 -->
<g id="edge6" class="edge"><title>Node6&#45;&gt;Node7</title>
<path fill="none" stroke="midnightblue" d="M953.293,-195.246C965.416,-195.246 977.932,-195.246 989.923,-195.246"/>
<polygon fill="midnightblue" stroke="midnightblue" points="953.222,-191.746 943.222,-195.246 953.222,-198.746 953.222,-191.746"/>
</g>
<!-- Node8 -->
<g id="node8" class="node"><title>Node8</title>
<g id="a_node8"><a xlink:href="../../db/daa/classKalmanDSTrk.html#a67f1b61fbc3fbba52e10f4b06d4f8794" target="_top" xlink:title="KalmanDSTrk::setRawEvent">
<polygon fill="none" stroke="black" points="1166,-185.746 1166,-204.746 1306,-204.746 1306,-185.746 1166,-185.746"/>
<text text-anchor="middle" x="1236" y="-192.746" font-family="FreeSans" font-size="10.00">KalmanDSTrk::setRawEvent</text>
</a>
</g>
</g>
<!-- Node7&#45;&gt;Node8 -->
<g id="edge7" class="edge"><title>Node7&#45;&gt;Node8</title>
<path fill="none" stroke="midnightblue" d="M1140.03,-195.246C1148.62,-195.246 1157.32,-195.246 1165.78,-195.246"/>
<polygon fill="midnightblue" stroke="midnightblue" points="1140.02,-191.746 1130.02,-195.246 1140.02,-198.746 1140.02,-191.746"/>
</g>
<!-- Node9 -->
<g id="node9" class="node"><title>Node9</title>
<g id="a_node9"><a xlink:href="../../d4/dff/classKalmanFastTrackingWrapper.html#a5edc61b3b9a06f6486b1f22e44f7d63e" target="_top" xlink:title="KalmanFastTrackingWrapper\l::process_event">
<polygon fill="none" stroke="black" points="1342.5,-180.246 1342.5,-210.246 1485.5,-210.246 1485.5,-180.246 1342.5,-180.246"/>
<text text-anchor="start" x="1350.5" y="-198.246" font-family="FreeSans" font-size="10.00">KalmanFastTrackingWrapper</text>
<text text-anchor="middle" x="1414" y="-187.246" font-family="FreeSans" font-size="10.00">::process_event</text>
</a>
</g>
</g>
<!-- Node8&#45;&gt;Node9 -->
<g id="edge8" class="edge"><title>Node8&#45;&gt;Node9</title>
<path fill="none" stroke="midnightblue" d="M1316.23,-195.246C1324.95,-195.246 1333.8,-195.246 1342.41,-195.246"/>
<polygon fill="midnightblue" stroke="midnightblue" points="1316.05,-191.746 1306.05,-195.246 1316.05,-198.746 1316.05,-191.746"/>
</g>
<!-- Node11 -->
<g id="node11" class="node"><title>Node11</title>
<g id="a_node11"><a xlink:href="../../d3/d46/classKalmanFastTracking.html#ada493cf8d995c42b9e78a53b891ce72b" target="_top" xlink:title="KalmanFastTracking\l::setRawEvent">
<polygon fill="none" stroke="black" points="1006.5,-382.246 1006.5,-412.246 1113.5,-412.246 1113.5,-382.246 1006.5,-382.246"/>
<text text-anchor="start" x="1014.5" y="-400.246" font-family="FreeSans" font-size="10.00">KalmanFastTracking</text>
<text text-anchor="middle" x="1060" y="-389.246" font-family="FreeSans" font-size="10.00">::setRawEvent</text>
</a>
</g>
</g>
<!-- Node10&#45;&gt;Node11 -->
<g id="edge10" class="edge"><title>Node10&#45;&gt;Node11</title>
<path fill="none" stroke="midnightblue" d="M941.709,-397.246C962.817,-397.246 986.138,-397.246 1006.39,-397.246"/>
<polygon fill="midnightblue" stroke="midnightblue" points="941.547,-393.746 931.547,-397.246 941.547,-400.746 941.547,-393.746"/>
</g>
<!-- Node13 -->
<g id="node13" class="node"><title>Node13</title>
<g id="a_node13"><a xlink:href="../../db/daa/classKalmanDSTrk.html#afdf1667c71921df9f97b5e0a1dce98e9" target="_top" xlink:title="KalmanDSTrk::KalmanDSTrk">
<polygon fill="none" stroke="black" points="436.5,-589.746 436.5,-608.746 579.5,-608.746 579.5,-589.746 436.5,-589.746"/>
<text text-anchor="middle" x="508" y="-596.746" font-family="FreeSans" font-size="10.00">KalmanDSTrk::KalmanDSTrk</text>
</a>
</g>
</g>
<!-- Node12&#45;&gt;Node13 -->
<g id="edge12" class="edge"><title>Node12&#45;&gt;Node13</title>
<path fill="none" stroke="midnightblue" d="M398.833,-599.246C410.702,-599.246 423.715,-599.246 436.473,-599.246"/>
<polygon fill="midnightblue" stroke="midnightblue" points="398.733,-595.746 388.733,-599.246 398.733,-602.746 398.733,-595.746"/>
</g>
<!-- Node14 -->
<g id="node14" class="node"><title>Node14</title>
<g id="a_node14"><a xlink:href="../../d3/d46/classKalmanFastTracking.html#a1f0655a7ab5073c08fe0bfa15930dc8c" target="_top" xlink:title="KalmanFastTracking\l::KalmanFastTracking">
<polygon fill="none" stroke="black" points="452.5,-628.246 452.5,-658.246 563.5,-658.246 563.5,-628.246 452.5,-628.246"/>
<text text-anchor="start" x="460.5" y="-646.246" font-family="FreeSans" font-size="10.00">KalmanFastTracking</text>
<text text-anchor="middle" x="508" y="-635.246" font-family="FreeSans" font-size="10.00">::KalmanFastTracking</text>
</a>
</g>
</g>
<!-- Node12&#45;&gt;Node14 -->
<g id="edge13" class="edge"><title>Node12&#45;&gt;Node14</title>
<path fill="none" stroke="midnightblue" d="M395.371,-611.558C413.54,-616.716 434.836,-622.761 453.929,-628.181"/>
<polygon fill="midnightblue" stroke="midnightblue" points="396.208,-608.158 385.633,-608.794 394.297,-614.892 396.208,-608.158"/>
</g>
<!-- Node15&#45;&gt;Node6 -->
<g id="edge17" class="edge"><title>Node15&#45;&gt;Node6</title>
<path fill="none" stroke="midnightblue" d="M366.478,-266.185C381.809,-249.504 407.673,-225.083 436,-214.246 502.923,-188.646 707.386,-190.308 812.743,-193.064"/>
<polygon fill="midnightblue" stroke="midnightblue" points="363.862,-263.86 359.834,-273.659 369.094,-268.511 363.862,-263.86"/>
</g>
<!-- Node15&#45;&gt;Node10 -->
<g id="edge30" class="edge"><title>Node15&#45;&gt;Node10</title>
<path fill="none" stroke="midnightblue" d="M380.893,-297.12C396.839,-304.305 417.172,-312.709 436,-318.246 454.585,-323.712 711.39,-368.526 824.334,-388.127"/>
<polygon fill="midnightblue" stroke="midnightblue" points="382.133,-293.838 371.585,-292.84 379.208,-300.197 382.133,-293.838"/>
</g>
<!-- Node16 -->
<g id="node16" class="node"><title>Node16</title>
<g id="a_node16"><a xlink:href="../../db/daa/classKalmanDSTrk.html#a1d246a6aacb8828783f887e82bb74cd1" target="_top" xlink:title="KalmanDSTrk::buildBackPartial\lTracks">
<polygon fill="none" stroke="black" points="802,-95.2463 802,-125.246 954,-125.246 954,-95.2463 802,-95.2463"/>
<text text-anchor="start" x="810" y="-113.246" font-family="FreeSans" font-size="10.00">KalmanDSTrk::buildBackPartial</text>
<text text-anchor="middle" x="878" y="-102.246" font-family="FreeSans" font-size="10.00">Tracks</text>
</a>
</g>
</g>
<!-- Node15&#45;&gt;Node16 -->
<g id="edge15" class="edge"><title>Node15&#45;&gt;Node16</title>
<path fill="none" stroke="midnightblue" d="M351.749,-263.722C352.324,-215.647 361.308,-91.5981 436,-38.2463 568.881,56.6686 781.404,-53.1877 852.752,-95.2365"/>
<polygon fill="midnightblue" stroke="midnightblue" points="348.249,-263.742 351.744,-273.744 355.249,-263.746 348.249,-263.742"/>
</g>
<!-- Node17 -->
<g id="node17" class="node"><title>Node17</title>
<g id="a_node17"><a xlink:href="../../db/daa/classKalmanDSTrk.html#aaeca9d42cf00a9eec5c106f44bab986c" target="_top" xlink:title="KalmanDSTrk::resolveLeft\lRight">
<polygon fill="none" stroke="black" points="442.5,-224.246 442.5,-254.246 573.5,-254.246 573.5,-224.246 442.5,-224.246"/>
<text text-anchor="start" x="450.5" y="-242.246" font-family="FreeSans" font-size="10.00">KalmanDSTrk::resolveLeft</text>
<text text-anchor="middle" x="508" y="-231.246" font-family="FreeSans" font-size="10.00">Right</text>
</a>
</g>
</g>
<!-- Node15&#45;&gt;Node17 -->
<g id="edge18" class="edge"><title>Node15&#45;&gt;Node17</title>
<path fill="none" stroke="midnightblue" d="M395.371,-270.935C413.54,-265.777 434.836,-259.732 453.929,-254.312"/>
<polygon fill="midnightblue" stroke="midnightblue" points="394.297,-267.601 385.633,-273.699 396.208,-274.335 394.297,-267.601"/>
</g>
<!-- Node18 -->
<g id="node18" class="node"><title>Node18</title>
<g id="a_node18"><a xlink:href="../../db/daa/classKalmanDSTrk.html#a21fe29527e13bd2493781fc87c8c3a61" target="_top" xlink:title="KalmanDSTrk::resolveSingle\lLeftRight">
<polygon fill="none" stroke="black" points="438,-136.246 438,-166.246 578,-166.246 578,-136.246 438,-136.246"/>
<text text-anchor="start" x="446" y="-154.246" font-family="FreeSans" font-size="10.00">KalmanDSTrk::resolveSingle</text>
<text text-anchor="middle" x="508" y="-143.246" font-family="FreeSans" font-size="10.00">LeftRight</text>
</a>
</g>
</g>
<!-- Node15&#45;&gt;Node18 -->
<g id="edge19" class="edge"><title>Node15&#45;&gt;Node18</title>
<path fill="none" stroke="midnightblue" d="M363.106,-264.932C377.482,-242.551 404.463,-204.768 436,-181.246 443.83,-175.406 452.968,-170.457 462.031,-166.366"/>
<polygon fill="midnightblue" stroke="midnightblue" points="360.085,-263.161 357.74,-273.494 366.016,-266.879 360.085,-263.161"/>
</g>
<!-- Node15&#45;&gt;Node19 -->
<g id="edge24" class="edge"><title>Node15&#45;&gt;Node19</title>
<path fill="none" stroke="midnightblue" d="M355.967,-263.868C364.159,-229.398 386.487,-158.067 436,-126.246 499.189,-85.6358 590.464,-91.9055 644.658,-100.701"/>
<polygon fill="midnightblue" stroke="midnightblue" points="352.542,-263.146 353.788,-273.667 359.375,-264.666 352.542,-263.146"/>
</g>
<!-- Node20 -->
<g id="node20" class="node"><title>Node20</title>
<g id="a_node20"><a xlink:href="../../db/daa/classKalmanDSTrk.html#ab77ac8dc274c5df2658d12c96494d29e" target="_top" xlink:title="Tracklet finding stuff. ">
<polygon fill="none" stroke="black" points="619.5,-224.246 619.5,-254.246 762.5,-254.246 762.5,-224.246 619.5,-224.246"/>
<text text-anchor="start" x="627.5" y="-242.246" font-family="FreeSans" font-size="10.00">KalmanDSTrk::buildTracklets</text>
<text text-anchor="middle" x="691" y="-231.246" font-family="FreeSans" font-size="10.00">InStation</text>
</a>
</g>
</g>
<!-- Node15&#45;&gt;Node20 -->
<g id="edge25" class="edge"><title>Node15&#45;&gt;Node20</title>
<path fill="none" stroke="midnightblue" d="M398.921,-280.88C445.162,-278.138 517.733,-272.731 580,-263.246 595.556,-260.877 612.205,-257.625 627.722,-254.279"/>
<polygon fill="midnightblue" stroke="midnightblue" points="398.679,-277.388 388.896,-281.458 399.081,-284.377 398.679,-277.388"/>
</g>
<!-- Node21 -->
<g id="node21" class="node"><title>Node21</title>
<g id="a_node21"><a xlink:href="../../d3/d46/classKalmanFastTracking.html#a53e313d5cd40faa789fbe1dbe716f192" target="_top" xlink:title="KalmanFastTracking\l::buildBackPartialTracks">
<polygon fill="none" stroke="black" points="817,-464.246 817,-494.246 939,-494.246 939,-464.246 817,-464.246"/>
<text text-anchor="start" x="825" y="-482.246" font-family="FreeSans" font-size="10.00">KalmanFastTracking</text>
<text text-anchor="middle" x="878" y="-471.246" font-family="FreeSans" font-size="10.00">::buildBackPartialTracks</text>
</a>
</g>
</g>
<!-- Node15&#45;&gt;Node21 -->
<g id="edge28" class="edge"><title>Node15&#45;&gt;Node21</title>
<path fill="none" stroke="midnightblue" d="M353.033,-303.285C356.481,-346.949 371.417,-450.431 436,-496.246 560.671,-584.689 758.851,-524.961 840.257,-494.289"/>
<polygon fill="midnightblue" stroke="midnightblue" points="356.511,-302.842 352.356,-293.095 349.526,-303.305 356.511,-302.842"/>
</g>
<!-- Node22 -->
<g id="node22" class="node"><title>Node22</title>
<g id="a_node22"><a xlink:href="../../d3/d46/classKalmanFastTracking.html#a85b3cc71d34ec9adabb6956b0a279821" target="_top" xlink:title="KalmanFastTracking\l::resolveLeftRight">
<polygon fill="none" stroke="black" points="454.5,-48.2463 454.5,-78.2463 561.5,-78.2463 561.5,-48.2463 454.5,-48.2463"/>
<text text-anchor="start" x="462.5" y="-66.2463" font-family="FreeSans" font-size="10.00">KalmanFastTracking</text>
<text text-anchor="middle" x="508" y="-55.2463" font-family="FreeSans" font-size="10.00">::resolveLeftRight</text>
</a>
</g>
</g>
<!-- Node15&#45;&gt;Node22 -->
<g id="edge31" class="edge"><title>Node15&#45;&gt;Node22</title>
<path fill="none" stroke="midnightblue" d="M355.738,-263.276C363.825,-225.289 386.368,-142.067 436,-93.2463 442.106,-87.2407 449.596,-82.3628 457.397,-78.4242"/>
<polygon fill="midnightblue" stroke="midnightblue" points="352.217,-263.031 353.678,-273.525 359.08,-264.411 352.217,-263.031"/>
</g>
<!-- Node23 -->
<g id="node23" class="node"><title>Node23</title>
<g id="a_node23"><a xlink:href="../../d3/d46/classKalmanFastTracking.html#ac550362b5ae3fca6231ae3f0e5259a62" target="_top" xlink:title="KalmanFastTracking\l::resolveSingleLeftRight">
<polygon fill="none" stroke="black" points="448.5,-426.246 448.5,-456.246 567.5,-456.246 567.5,-426.246 448.5,-426.246"/>
<text text-anchor="start" x="456.5" y="-444.246" font-family="FreeSans" font-size="10.00">KalmanFastTracking</text>
<text text-anchor="middle" x="508" y="-433.246" font-family="FreeSans" font-size="10.00">::resolveSingleLeftRight</text>
</a>
</g>
</g>
<!-- Node15&#45;&gt;Node23 -->
<g id="edge32" class="edge"><title>Node15&#45;&gt;Node23</title>
<path fill="none" stroke="midnightblue" d="M367.503,-300.423C384.152,-318.735 411.52,-348.449 436,-373.246 454.346,-391.83 476.123,-412.49 490.678,-426.106"/>
<polygon fill="midnightblue" stroke="midnightblue" points="369.966,-297.929 360.656,-292.87 364.78,-302.63 369.966,-297.929"/>
</g>
<!-- Node15&#45;&gt;Node24 -->
<g id="edge37" class="edge"><title>Node15&#45;&gt;Node24</title>
<path fill="none" stroke="midnightblue" d="M354.495,-302.962C360.556,-341.673 379.932,-427.157 436,-465.246 495.547,-505.699 582.239,-500.313 637.367,-491.062"/>
<polygon fill="midnightblue" stroke="midnightblue" points="357.945,-302.361 353.067,-292.956 351.015,-303.35 357.945,-302.361"/>
</g>
<!-- Node25 -->
<g id="node25" class="node"><title>Node25</title>
<g id="a_node25"><a xlink:href="../../d3/d46/classKalmanFastTracking.html#a3e8f77a6532d69cf9f470ebf16b7fa14" target="_top" xlink:title="Tracklet finding stuff. ">
<polygon fill="none" stroke="black" points="630.5,-300.246 630.5,-330.246 751.5,-330.246 751.5,-300.246 630.5,-300.246"/>
<text text-anchor="start" x="638.5" y="-318.246" font-family="FreeSans" font-size="10.00">KalmanFastTracking</text>
<text text-anchor="middle" x="691" y="-307.246" font-family="FreeSans" font-size="10.00">::buildTrackletsInStation</text>
</a>
</g>
</g>
<!-- Node15&#45;&gt;Node25 -->
<g id="edge38" class="edge"><title>Node15&#45;&gt;Node25</title>
<path fill="none" stroke="midnightblue" d="M398.623,-291.821C410.759,-293.832 423.842,-295.806 436,-297.246 502.29,-305.102 578.749,-309.953 630.318,-312.61"/>
<polygon fill="midnightblue" stroke="midnightblue" points="399.137,-288.358 388.692,-290.134 397.965,-295.259 399.137,-288.358"/>
</g>
<!-- Node16&#45;&gt;Node7 -->
<g id="edge16" class="edge"><title>Node16&#45;&gt;Node7</title>
<path fill="none" stroke="midnightblue" d="M919.989,-129.602C952.428,-144.92 997.088,-166.01 1026.95,-180.11"/>
<polygon fill="midnightblue" stroke="midnightblue" points="921.303,-126.352 910.766,-125.247 918.314,-132.682 921.303,-126.352"/>
</g>
<!-- Node18&#45;&gt;Node6 -->
<g id="edge20" class="edge"><title>Node18&#45;&gt;Node6</title>
<path fill="none" stroke="midnightblue" d="M587.954,-160.271C638.805,-166.131 706.321,-174 766,-181.246 781.136,-183.084 797.427,-185.111 812.741,-187.039"/>
<polygon fill="midnightblue" stroke="midnightblue" points="588.348,-156.794 578.013,-159.127 587.547,-163.748 588.348,-156.794"/>
</g>
<!-- Node18&#45;&gt;Node19 -->
<g id="edge21" class="edge"><title>Node18&#45;&gt;Node19</title>
<path fill="none" stroke="midnightblue" d="M585.132,-134.001C606.586,-129.141 629.145,-124.031 647.821,-119.801"/>
<polygon fill="midnightblue" stroke="midnightblue" points="584.35,-130.589 575.37,-136.212 585.896,-137.416 584.35,-130.589"/>
</g>
<!-- Node19&#45;&gt;Node6 -->
<g id="edge23" class="edge"><title>Node19&#45;&gt;Node6</title>
<path fill="none" stroke="midnightblue" d="M726.49,-123.607C739.018,-128.623 753.23,-134.504 766,-140.246 794.245,-152.948 825.836,-168.763 848.071,-180.169"/>
<polygon fill="midnightblue" stroke="midnightblue" points="727.448,-120.222 716.862,-119.788 724.868,-126.729 727.448,-120.222"/>
</g>
<!-- Node19&#45;&gt;Node16 -->
<g id="edge22" class="edge"><title>Node19&#45;&gt;Node16</title>
<path fill="none" stroke="midnightblue" d="M775.765,-110.246C784.439,-110.246 793.217,-110.246 801.789,-110.246"/>
<polygon fill="midnightblue" stroke="midnightblue" points="775.649,-106.746 765.648,-110.246 775.648,-113.746 775.649,-106.746"/>
</g>
<!-- Node20&#45;&gt;Node6 -->
<g id="edge27" class="edge"><title>Node20&#45;&gt;Node6</title>
<path fill="none" stroke="midnightblue" d="M765.062,-221.869C781.184,-218.035 798.13,-214.005 813.822,-210.273"/>
<polygon fill="midnightblue" stroke="midnightblue" points="764.068,-218.508 755.149,-224.227 765.688,-225.318 764.068,-218.508"/>
</g>
<!-- Node20&#45;&gt;Node7 -->
<g id="edge26" class="edge"><title>Node20&#45;&gt;Node7</title>
<path fill="none" stroke="midnightblue" d="M772.817,-236.181C824.787,-233.446 893.639,-228.397 954,-219.246 969.16,-216.948 985.381,-213.66 1000.43,-210.251"/>
<polygon fill="midnightblue" stroke="midnightblue" points="772.465,-232.694 762.656,-236.698 772.821,-239.685 772.465,-232.694"/>
</g>
<!-- Node21&#45;&gt;Node11 -->
<g id="edge29" class="edge"><title>Node21&#45;&gt;Node11</title>
<path fill="none" stroke="midnightblue" d="M921.122,-460.058C953.077,-445.5 996.393,-425.767 1025.89,-412.33"/>
<polygon fill="midnightblue" stroke="midnightblue" points="919.664,-456.875 912.015,-464.206 922.566,-463.246 919.664,-456.875"/>
</g>
<!-- Node23&#45;&gt;Node10 -->
<g id="edge33" class="edge"><title>Node23&#45;&gt;Node10</title>
<path fill="none" stroke="midnightblue" d="M577.656,-435.93C629.511,-431.585 702.373,-424.775 766,-416.246 785.087,-413.688 805.919,-410.285 824.327,-407.067"/>
<polygon fill="midnightblue" stroke="midnightblue" points="577.251,-432.452 567.574,-436.766 577.829,-439.428 577.251,-432.452"/>
</g>
<!-- Node23&#45;&gt;Node24 -->
<g id="edge34" class="edge"><title>Node23&#45;&gt;Node24</title>
<path fill="none" stroke="midnightblue" d="M577.644,-455.658C597.424,-459.81 618.685,-464.274 637.333,-468.189"/>
<polygon fill="midnightblue" stroke="midnightblue" points="578.271,-452.213 567.766,-453.584 576.833,-459.064 578.271,-452.213"/>
</g>
<!-- Node24&#45;&gt;Node10 -->
<g id="edge36" class="edge"><title>Node24&#45;&gt;Node10</title>
<path fill="none" stroke="midnightblue" d="M739.596,-460.384C748.409,-456.769 757.51,-452.953 766,-449.246 793.304,-437.326 823.942,-422.892 846.1,-412.258"/>
<polygon fill="midnightblue" stroke="midnightblue" points="738.13,-457.202 730.188,-464.214 740.769,-463.685 738.13,-457.202"/>
</g>
<!-- Node24&#45;&gt;Node21 -->
<g id="edge35" class="edge"><title>Node24&#45;&gt;Node21</title>
<path fill="none" stroke="midnightblue" d="M754.792,-479.246C774.845,-479.246 796.983,-479.246 816.844,-479.246"/>
<polygon fill="midnightblue" stroke="midnightblue" points="754.519,-475.746 744.519,-479.246 754.519,-482.746 754.519,-475.746"/>
</g>
<!-- Node25&#45;&gt;Node10 -->
<g id="edge40" class="edge"><title>Node25&#45;&gt;Node10</title>
<path fill="none" stroke="midnightblue" d="M739.596,-334.108C748.409,-337.724 757.51,-341.54 766,-345.246 793.304,-357.167 823.942,-371.601 846.1,-382.234"/>
<polygon fill="midnightblue" stroke="midnightblue" points="740.769,-330.807 730.188,-330.279 738.13,-337.291 740.769,-330.807"/>
</g>
<!-- Node25&#45;&gt;Node11 -->
<g id="edge39" class="edge"><title>Node25&#45;&gt;Node11</title>
<path fill="none" stroke="midnightblue" d="M761.586,-329.999C814.431,-341.296 888.868,-357.409 954,-372.246 971.083,-376.138 989.694,-380.522 1006.44,-384.519"/>
<polygon fill="midnightblue" stroke="midnightblue" points="762.156,-326.542 751.646,-327.876 760.694,-333.387 762.156,-326.542"/>
</g>
</g>
</svg>
