<?xml version="1.0" encoding="UTF-8" standalone="no"?>
<!DOCTYPE svg PUBLIC "-//W3C//DTD SVG 1.1//EN"
 "http://www.w3.org/Graphics/SVG/1.1/DTD/svg11.dtd">
<!-- Generated by graphviz version 2.36.0 (20140111.2315)
 -->
<!-- Title: GeomSvc::getPlanePosition Pages: 1 -->
<svg width="1630pt" height="832pt"
 viewBox="0.00 0.00 1630.00 832.00" xmlns="http://www.w3.org/2000/svg" xmlns:xlink="http://www.w3.org/1999/xlink">
<g id="graph0" class="graph" transform="scale(1 1) rotate(0) translate(4 828)">
<title>GeomSvc::getPlanePosition</title>
<!-- Node1 -->
<g id="node1" class="node"><title>Node1</title>
<polygon fill="#bfbfbf" stroke="black" points="0,-389.5 0,-408.5 138,-408.5 138,-389.5 0,-389.5"/>
<text text-anchor="middle" x="69" y="-396.5" font-family="FreeSans" font-size="10.00">GeomSvc::getPlanePosition</text>
</g>
<!-- Node2 -->
<g id="node2" class="node"><title>Node2</title>
<g id="a_node2"><a xlink:href="../../d0/d1e/classPropSegment.html#a50efd15badce32c007c6e1178b2ce977" target="_top" xlink:title="PropSegment::fit">
<polygon fill="none" stroke="black" points="580,-717.5 580,-736.5 668,-736.5 668,-717.5 580,-717.5"/>
<text text-anchor="middle" x="624" y="-724.5" font-family="FreeSans" font-size="10.00">PropSegment::fit</text>
</a>
</g>
</g>
<!-- Node1&#45;&gt;Node2 -->
<g id="edge1" class="edge"><title>Node1&#45;&gt;Node2</title>
<path fill="none" stroke="midnightblue" d="M73.002,-418.834C83.5265,-485.485 121.004,-699.5 174,-740 305.979,-840.86 529.169,-764.883 600.423,-736.514"/>
<polygon fill="midnightblue" stroke="midnightblue" points="76.4385,-418.154 71.4483,-408.808 69.5211,-419.226 76.4385,-418.154"/>
</g>
<!-- Node11 -->
<g id="node11" class="node"><title>Node11</title>
<g id="a_node11"><a xlink:href="../../d0/d1e/classPropSegment.html#ad850340623d574dc60447e572794b798" target="_top" xlink:title="PropSegment::fit_2hits">
<polygon fill="none" stroke="black" points="389,-717.5 389,-736.5 503,-736.5 503,-717.5 389,-717.5"/>
<text text-anchor="middle" x="446" y="-724.5" font-family="FreeSans" font-size="10.00">PropSegment::fit_2hits</text>
</a>
</g>
</g>
<!-- Node1&#45;&gt;Node11 -->
<g id="edge14" class="edge"><title>Node1&#45;&gt;Node11</title>
<path fill="none" stroke="midnightblue" d="M69.801,-418.925C70.4379,-474.986 80.7173,-634.691 174,-707 241.115,-759.025 347.828,-747.778 405.273,-736.514"/>
<polygon fill="midnightblue" stroke="midnightblue" points="73.3006,-418.598 69.7851,-408.604 66.3007,-418.609 73.3006,-418.598"/>
</g>
<!-- Node12 -->
<g id="node12" class="node"><title>Node12</title>
<g id="a_node12"><a xlink:href="../../d2/d26/classTracklet.html#ab125c1619403036725588cd05b653407" target="_top" xlink:title="Tracklet::getExpPositionW">
<polygon fill="none" stroke="black" points="190,-515.5 190,-534.5 320,-534.5 320,-515.5 190,-515.5"/>
<text text-anchor="middle" x="255" y="-522.5" font-family="FreeSans" font-size="10.00">Tracklet::getExpPositionW</text>
</a>
</g>
</g>
<!-- Node1&#45;&gt;Node12 -->
<g id="edge16" class="edge"><title>Node1&#45;&gt;Node12</title>
<path fill="none" stroke="midnightblue" d="M82.4474,-416.795C100.054,-440.592 134.52,-482.398 174,-505 181.579,-509.339 190.088,-512.746 198.654,-515.418"/>
<polygon fill="midnightblue" stroke="midnightblue" points="85.2437,-414.689 76.5497,-408.634 79.5701,-418.789 85.2437,-414.689"/>
</g>
<!-- Node13 -->
<g id="node13" class="node"><title>Node13</title>
<g id="a_node13"><a xlink:href="../../d9/dc3/classKalmanTrack.html#ac73a7ff611d9b0a7cf77eb1775901036" target="_top" xlink:title="KalmanTrack::getSagittaIn\lSuperDetector">
<polygon fill="none" stroke="black" points="189.5,-466 189.5,-496 320.5,-496 320.5,-466 189.5,-466"/>
<text text-anchor="start" x="197.5" y="-484" font-family="FreeSans" font-size="10.00">KalmanTrack::getSagittaIn</text>
<text text-anchor="middle" x="255" y="-473" font-family="FreeSans" font-size="10.00">SuperDetector</text>
</a>
</g>
</g>
<!-- Node1&#45;&gt;Node13 -->
<g id="edge17" class="edge"><title>Node1&#45;&gt;Node13</title>
<path fill="none" stroke="midnightblue" d="M94.0981,-414.002C114.749,-426.415 145.575,-443.911 174,-456 182.436,-459.588 191.565,-462.924 200.535,-465.915"/>
<polygon fill="midnightblue" stroke="midnightblue" points="95.7336,-410.9 85.371,-408.694 92.0959,-416.881 95.7336,-410.9"/>
</g>
<!-- Node14 -->
<g id="node14" class="node"><title>Node14</title>
<g id="a_node14"><a xlink:href="../../d2/d26/classTracklet.html#a1eb7549294ffda15dd00f8671cb17096" target="_top" xlink:title="Tracklet::getSRecTrack">
<polygon fill="none" stroke="black" points="564.5,-591.5 564.5,-610.5 683.5,-610.5 683.5,-591.5 564.5,-591.5"/>
<text text-anchor="middle" x="624" y="-598.5" font-family="FreeSans" font-size="10.00">Tracklet::getSRecTrack</text>
</a>
</g>
</g>
<!-- Node1&#45;&gt;Node14 -->
<g id="edge18" class="edge"><title>Node1&#45;&gt;Node14</title>
<path fill="none" stroke="midnightblue" d="M75.0662,-418.623C85.9574,-456.334 115.493,-538.344 174,-574 237.934,-612.963 457.997,-608.706 564.431,-604.114"/>
<polygon fill="midnightblue" stroke="midnightblue" points="78.4017,-417.552 72.376,-408.838 71.6522,-419.408 78.4017,-417.552"/>
</g>
<!-- Node15 -->
<g id="node15" class="node"><title>Node15</title>
<g id="a_node15"><a xlink:href="../../d3/d46/classKalmanFastTracking.html#ac0b6441647d023db04c618a35fd2a8cd" target="_top" xlink:title="Track fitting stuff. ">
<polygon fill="none" stroke="black" points="872.5,-608 872.5,-638 981.5,-638 981.5,-608 872.5,-608"/>
<text text-anchor="start" x="880.5" y="-626" font-family="FreeSans" font-size="10.00">KalmanFastTracking</text>
<text text-anchor="middle" x="927" y="-615" font-family="FreeSans" font-size="10.00">::processOneTracklet</text>
</a>
</g>
</g>
<!-- Node1&#45;&gt;Node15 -->
<g id="edge35" class="edge"><title>Node1&#45;&gt;Node15</title>
<path fill="none" stroke="midnightblue" d="M73.7201,-418.758C82.7082,-460.506 109.788,-557.574 174,-603 273.191,-673.172 323.497,-639 445,-639 445,-639 445,-639 625,-639 711.738,-639 812.338,-632.293 872.489,-627.564"/>
<polygon fill="midnightblue" stroke="midnightblue" points="77.1087,-417.857 71.6895,-408.753 70.2485,-419.249 77.1087,-417.857"/>
</g>
<!-- Node16 -->
<g id="node16" class="node"><title>Node16</title>
<g id="a_node16"><a xlink:href="../../d5/dda/classEventReducer.html#ae3e92e9415e867a14780af5c1d2ad78c" target="_top" xlink:title="EventReducer::initHodoMaskLUT">
<polygon fill="none" stroke="black" points="174.5,-427.5 174.5,-446.5 335.5,-446.5 335.5,-427.5 174.5,-427.5"/>
<text text-anchor="middle" x="255" y="-434.5" font-family="FreeSans" font-size="10.00">EventReducer::initHodoMaskLUT</text>
</a>
</g>
</g>
<!-- Node1&#45;&gt;Node16 -->
<g id="edge22" class="edge"><title>Node1&#45;&gt;Node16</title>
<path fill="none" stroke="midnightblue" d="M126.561,-410.681C152.654,-416.07 183.238,-422.386 207.903,-427.48"/>
<polygon fill="midnightblue" stroke="midnightblue" points="126.932,-407.184 116.431,-408.589 125.516,-414.039 126.932,-407.184"/>
</g>
<!-- Node18 -->
<g id="node18" class="node"><title>Node18</title>
<g id="a_node18"><a xlink:href="../../d9/dc3/classKalmanTrack.html#ac7e41743680505a0c0951c730921f0a9" target="_top" xlink:title="Check if the seed goes to station 3+ or station 3&#45;. ">
<polygon fill="none" stroke="black" points="189.5,-389.5 189.5,-408.5 320.5,-408.5 320.5,-389.5 189.5,-389.5"/>
<text text-anchor="middle" x="255" y="-396.5" font-family="FreeSans" font-size="10.00">KalmanTrack::isInStation3</text>
</a>
</g>
</g>
<!-- Node1&#45;&gt;Node18 -->
<g id="edge24" class="edge"><title>Node1&#45;&gt;Node18</title>
<path fill="none" stroke="midnightblue" d="M148.53,-399C162.097,-399 176.064,-399 189.215,-399"/>
<polygon fill="midnightblue" stroke="midnightblue" points="148.253,-395.5 138.253,-399 148.253,-402.5 148.253,-395.5"/>
</g>
<!-- Node19 -->
<g id="node19" class="node"><title>Node19</title>
<g id="a_node19"><a xlink:href="../../d3/d46/classKalmanFastTracking.html#a1f0655a7ab5073c08fe0bfa15930dc8c" target="_top" xlink:title="KalmanFastTracking\l::KalmanFastTracking">
<polygon fill="none" stroke="black" points="199.5,-340 199.5,-370 310.5,-370 310.5,-340 199.5,-340"/>
<text text-anchor="start" x="207.5" y="-358" font-family="FreeSans" font-size="10.00">KalmanFastTracking</text>
<text text-anchor="middle" x="255" y="-347" font-family="FreeSans" font-size="10.00">::KalmanFastTracking</text>
</a>
</g>
</g>
<!-- Node1&#45;&gt;Node19 -->
<g id="edge25" class="edge"><title>Node1&#45;&gt;Node19</title>
<path fill="none" stroke="midnightblue" d="M119.792,-387.093C144.436,-381.2 174.239,-374.073 199.494,-368.034"/>
<polygon fill="midnightblue" stroke="midnightblue" points="118.837,-383.723 109.925,-389.453 120.465,-390.531 118.837,-383.723"/>
</g>
<!-- Node20 -->
<g id="node20" class="node"><title>Node20</title>
<g id="a_node20"><a xlink:href="../../d9/dc3/classKalmanTrack.html#a1781fbc1ebabbda4a1fc16fe4ab38ecb" target="_top" xlink:title="KalmanTrack::KalmanTrack">
<polygon fill="none" stroke="black" points="186.5,-301.5 186.5,-320.5 323.5,-320.5 323.5,-301.5 186.5,-301.5"/>
<text text-anchor="middle" x="255" y="-308.5" font-family="FreeSans" font-size="10.00">KalmanTrack::KalmanTrack</text>
</a>
</g>
</g>
<!-- Node1&#45;&gt;Node20 -->
<g id="edge26" class="edge"><title>Node1&#45;&gt;Node20</title>
<path fill="none" stroke="midnightblue" d="M89.7861,-383.145C109.896,-367.759 142.489,-344.772 174,-331 183.707,-326.757 194.487,-323.296 204.909,-320.52"/>
<polygon fill="midnightblue" stroke="midnightblue" points="87.4639,-380.518 81.7227,-389.422 91.7637,-386.041 87.4639,-380.518"/>
</g>
<!-- Node21 -->
<g id="node21" class="node"><title>Node21</title>
<g id="a_node21"><a xlink:href="../../d0/d1e/classPropSegment.html#a067c6fdcf39b89aad070673feb429266" target="_top" xlink:title="PropSegment::linearFit\l_iterative">
<polygon fill="none" stroke="black" points="197.5,-252 197.5,-282 312.5,-282 312.5,-252 197.5,-252"/>
<text text-anchor="start" x="205.5" y="-270" font-family="FreeSans" font-size="10.00">PropSegment::linearFit</text>
<text text-anchor="middle" x="255" y="-259" font-family="FreeSans" font-size="10.00">_iterative</text>
</a>
</g>
</g>
<!-- Node1&#45;&gt;Node21 -->
<g id="edge27" class="edge"><title>Node1&#45;&gt;Node21</title>
<path fill="none" stroke="midnightblue" d="M82.6038,-381.363C100.389,-357.715 135.06,-315.942 174,-292 181.19,-287.58 189.228,-283.879 197.361,-280.799"/>
<polygon fill="midnightblue" stroke="midnightblue" points="79.7501,-379.336 76.6403,-389.464 85.3873,-383.486 79.7501,-379.336"/>
</g>
<!-- Node22 -->
<g id="node22" class="node"><title>Node22</title>
<g id="a_node22"><a xlink:href="../../d0/d1e/classPropSegment.html#aff06825f6828f0eb58be0ea6ae8ec805" target="_top" xlink:title="PropSegment::linearFit\l_simple">
<polygon fill="none" stroke="black" points="197.5,-668 197.5,-698 312.5,-698 312.5,-668 197.5,-668"/>
<text text-anchor="start" x="205.5" y="-686" font-family="FreeSans" font-size="10.00">PropSegment::linearFit</text>
<text text-anchor="middle" x="255" y="-675" font-family="FreeSans" font-size="10.00">_simple</text>
</a>
</g>
</g>
<!-- Node1&#45;&gt;Node22 -->
<g id="edge28" class="edge"><title>Node1&#45;&gt;Node22</title>
<path fill="none" stroke="midnightblue" d="M72.6254,-418.643C79.9175,-465.65 104.663,-585.703 174,-653 180.599,-659.405 188.695,-664.468 197.174,-668.462"/>
<polygon fill="midnightblue" stroke="midnightblue" points="76.0642,-417.968 71.1624,-408.575 69.137,-418.975 76.0642,-417.968"/>
</g>
<!-- Node24 -->
<g id="node24" class="node"><title>Node24</title>
<g id="a_node24"><a xlink:href="../../df/dd0/classNode.html#a00929e56ab55604a35b278d93c95d934" target="_top" xlink:title="constructor from a Hit to a Node ">
<polygon fill="none" stroke="black" points="221,-213.5 221,-232.5 289,-232.5 289,-213.5 221,-213.5"/>
<text text-anchor="middle" x="255" y="-220.5" font-family="FreeSans" font-size="10.00">Node::Node</text>
</a>
</g>
</g>
<!-- Node1&#45;&gt;Node24 -->
<g id="edge31" class="edge"><title>Node1&#45;&gt;Node24</title>
<path fill="none" stroke="midnightblue" d="M77.398,-379.602C91.1338,-346.283 123.822,-278.361 174,-243 187.692,-233.351 205.579,-228.344 220.966,-225.752"/>
<polygon fill="midnightblue" stroke="midnightblue" points="74.0562,-378.533 73.6062,-389.119 80.5591,-381.125 74.0562,-378.533"/>
</g>
<!-- Node25 -->
<g id="node25" class="node"><title>Node25</title>
<g id="a_node25"><a xlink:href="../../d3/d46/classKalmanFastTracking.html#ada315a710df996c08316934282df9060" target="_top" xlink:title="KalmanFastTracking\l::printAtDetectorBack">
<polygon fill="none" stroke="black" points="200.5,-164 200.5,-194 309.5,-194 309.5,-164 200.5,-164"/>
<text text-anchor="start" x="208.5" y="-182" font-family="FreeSans" font-size="10.00">KalmanFastTracking</text>
<text text-anchor="middle" x="255" y="-171" font-family="FreeSans" font-size="10.00">::printAtDetectorBack</text>
</a>
</g>
</g>
<!-- Node1&#45;&gt;Node25 -->
<g id="edge32" class="edge"><title>Node1&#45;&gt;Node25</title>
<path fill="none" stroke="midnightblue" d="M75.0544,-379.307C86.1416,-340.062 116.329,-251.778 174,-204 181.62,-197.687 190.836,-192.964 200.263,-189.432"/>
<polygon fill="midnightblue" stroke="midnightblue" points="71.6094,-378.639 72.3738,-389.206 78.366,-380.468 71.6094,-378.639"/>
</g>
<!-- Node26 -->
<g id="node26" class="node"><title>Node26</title>
<g id="a_node26"><a xlink:href="../../d6/d20/classTestSimAnalyzer.html#ad3f64f51531f83e2af581ba312ca6abc" target="_top" xlink:title="TestSimAnalyzer::process\l_event">
<polygon fill="none" stroke="black" points="190.5,-115 190.5,-145 319.5,-145 319.5,-115 190.5,-115"/>
<text text-anchor="start" x="198.5" y="-133" font-family="FreeSans" font-size="10.00">TestSimAnalyzer::process</text>
<text text-anchor="middle" x="255" y="-122" font-family="FreeSans" font-size="10.00">_event</text>
</a>
</g>
</g>
<!-- Node1&#45;&gt;Node26 -->
<g id="edge33" class="edge"><title>Node1&#45;&gt;Node26</title>
<path fill="none" stroke="midnightblue" d="M72.7345,-379.265C80.1737,-333.12 105.058,-217.369 174,-155 178.856,-150.607 184.477,-146.986 190.443,-144.001"/>
<polygon fill="midnightblue" stroke="midnightblue" points="69.2332,-379.012 71.2029,-389.422 76.1549,-380.056 69.2332,-379.012"/>
</g>
<!-- Node27 -->
<g id="node27" class="node"><title>Node27</title>
<g id="a_node27"><a xlink:href="../../de/d2f/classTrkEval.html#a0c626d9ee4c94abf889fa5408f1f49d1" target="_top" xlink:title="TrkEval::process_event">
<polygon fill="none" stroke="black" points="196,-76.5 196,-95.5 314,-95.5 314,-76.5 196,-76.5"/>
<text text-anchor="middle" x="255" y="-83.5" font-family="FreeSans" font-size="10.00">TrkEval::process_event</text>
</a>
</g>
</g>
<!-- Node1&#45;&gt;Node27 -->
<g id="edge34" class="edge"><title>Node1&#45;&gt;Node27</title>
<path fill="none" stroke="midnightblue" d="M70.8668,-379.384C74.2922,-326.735 91.1732,-181.227 174,-106 180.253,-100.321 187.872,-96.1975 195.897,-93.2139"/>
<polygon fill="midnightblue" stroke="midnightblue" points="67.3701,-379.23 70.3094,-389.409 74.3593,-379.619 67.3701,-379.23"/>
</g>
<!-- Node28 -->
<g id="node28" class="node"><title>Node28</title>
<g id="a_node28"><a xlink:href="../../d5/dda/classEventReducer.html#a3fe6db13e06a16f8145307b110c15225" target="_top" xlink:title="EventReducer::sagittaReducer">
<polygon fill="none" stroke="black" points="372.5,-553.5 372.5,-572.5 519.5,-572.5 519.5,-553.5 372.5,-553.5"/>
<text text-anchor="middle" x="446" y="-560.5" font-family="FreeSans" font-size="10.00">EventReducer::sagittaReducer</text>
</a>
</g>
</g>
<!-- Node1&#45;&gt;Node28 -->
<g id="edge36" class="edge"><title>Node1&#45;&gt;Node28</title>
<path fill="none" stroke="midnightblue" d="M77.4012,-418.364C90.976,-450.871 123.212,-515.638 174,-544 239.886,-580.793 329.274,-579.016 387.049,-572.51"/>
<polygon fill="midnightblue" stroke="midnightblue" points="80.4857,-416.653 73.513,-408.676 73.9893,-419.26 80.4857,-416.653"/>
</g>
<!-- Node30 -->
<g id="node30" class="node"><title>Node30</title>
<g id="a_node30"><a xlink:href="../../db/d19/classSeed.html#abd6a6b474153e7200e2ccad2b9a8a813" target="_top" xlink:title="Seed::similarity">
<polygon fill="none" stroke="black" points="214,-38.5 214,-57.5 296,-57.5 296,-38.5 214,-38.5"/>
<text text-anchor="middle" x="255" y="-45.5" font-family="FreeSans" font-size="10.00">Seed::similarity</text>
</a>
</g>
</g>
<!-- Node1&#45;&gt;Node30 -->
<g id="edge39" class="edge"><title>Node1&#45;&gt;Node30</title>
<path fill="none" stroke="midnightblue" d="M69.8786,-379.095C70.6673,-321.534 81.1957,-153.491 174,-67 184.756,-56.9754 199.808,-51.9417 213.957,-49.5056"/>
<polygon fill="midnightblue" stroke="midnightblue" points="66.3776,-379.34 69.8306,-389.356 73.3775,-379.373 66.3776,-379.34"/>
</g>
<!-- Node31 -->
<g id="node31" class="node"><title>Node31</title>
<g id="a_node31"><a xlink:href="../../d5/d72/classTriggerRoad.html#a1c747a90cfbae04f3aa25355563c108e" target="_top" xlink:title="TriggerRoad::TriggerRoad">
<polygon fill="none" stroke="black" points="192,-0.5 192,-19.5 318,-19.5 318,-0.5 192,-0.5"/>
<text text-anchor="middle" x="255" y="-7.5" font-family="FreeSans" font-size="10.00">TriggerRoad::TriggerRoad</text>
</a>
</g>
</g>
<!-- Node1&#45;&gt;Node31 -->
<g id="edge40" class="edge"><title>Node1&#45;&gt;Node31</title>
<path fill="none" stroke="midnightblue" d="M72.8804,-379.273C83.3879,-309.967 121.791,-79.1191 174,-29 179.149,-24.057 185.338,-20.3201 191.966,-17.5067"/>
<polygon fill="midnightblue" stroke="midnightblue" points="69.4004,-378.88 71.3873,-389.287 76.3238,-379.912 69.4004,-378.88"/>
</g>
<!-- Node3 -->
<g id="node3" class="node"><title>Node3</title>
<g id="a_node3"><a xlink:href="../../d3/d46/classKalmanFastTracking.html#ae2301f2d29aa4ca6c8af4d91a43ba909" target="_top" xlink:title="KalmanFastTracking\l::muonID_search">
<polygon fill="none" stroke="black" points="728.5,-711 728.5,-741 835.5,-741 835.5,-711 728.5,-711"/>
<text text-anchor="start" x="736.5" y="-729" font-family="FreeSans" font-size="10.00">KalmanFastTracking</text>
<text text-anchor="middle" x="782" y="-718" font-family="FreeSans" font-size="10.00">::muonID_search</text>
</a>
</g>
</g>
<!-- Node2&#45;&gt;Node3 -->
<g id="edge2" class="edge"><title>Node2&#45;&gt;Node3</title>
<path fill="none" stroke="midnightblue" d="M678.397,-726.658C694.551,-726.554 712.274,-726.441 728.377,-726.337"/>
<polygon fill="midnightblue" stroke="midnightblue" points="678.018,-723.16 668.041,-726.724 678.063,-730.16 678.018,-723.16"/>
</g>
<!-- Node10 -->
<g id="node10" class="node"><title>Node10</title>
<g id="a_node10"><a xlink:href="../../d3/d46/classKalmanFastTracking.html#aa85f2e38eff0fe4a53d365feedb112d1" target="_top" xlink:title="KalmanFastTracking\l::buildPropSegments">
<polygon fill="none" stroke="black" points="1025.5,-794 1025.5,-824 1132.5,-824 1132.5,-794 1025.5,-794"/>
<text text-anchor="start" x="1033.5" y="-812" font-family="FreeSans" font-size="10.00">KalmanFastTracking</text>
<text text-anchor="middle" x="1079" y="-801" font-family="FreeSans" font-size="10.00">::buildPropSegments</text>
</a>
</g>
</g>
<!-- Node2&#45;&gt;Node10 -->
<g id="edge12" class="edge"><title>Node2&#45;&gt;Node10</title>
<path fill="none" stroke="midnightblue" d="M675.583,-738.852C692.238,-742.606 710.876,-746.647 728,-750 833.072,-770.573 956.744,-790.398 1025.37,-801.013"/>
<polygon fill="midnightblue" stroke="midnightblue" points="676.027,-735.364 665.5,-736.561 674.476,-742.19 676.027,-735.364"/>
</g>
<!-- Node4 -->
<g id="node4" class="node"><title>Node4</title>
<g id="a_node4"><a xlink:href="../../d3/d46/classKalmanFastTracking.html#a3e34ec4cc289246ef9842e3482e0b1cc" target="_top" xlink:title="KalmanFastTracking\l::acceptTracklet">
<polygon fill="none" stroke="black" points="873.5,-709 873.5,-739 980.5,-739 980.5,-709 873.5,-709"/>
<text text-anchor="start" x="881.5" y="-727" font-family="FreeSans" font-size="10.00">KalmanFastTracking</text>
<text text-anchor="middle" x="927" y="-716" font-family="FreeSans" font-size="10.00">::acceptTracklet</text>
</a>
</g>
</g>
<!-- Node3&#45;&gt;Node4 -->
<g id="edge3" class="edge"><title>Node3&#45;&gt;Node4</title>
<path fill="none" stroke="midnightblue" d="M846.036,-725.118C855.165,-724.991 864.48,-724.86 873.376,-724.736"/>
<polygon fill="midnightblue" stroke="midnightblue" points="845.792,-721.621 835.842,-725.261 845.89,-728.621 845.792,-721.621"/>
</g>
<!-- Node5 -->
<g id="node5" class="node"><title>Node5</title>
<g id="a_node5"><a xlink:href="../../d3/d46/classKalmanFastTracking.html#a53e313d5cd40faa789fbe1dbe716f192" target="_top" xlink:title="KalmanFastTracking\l::buildBackPartialTracks">
<polygon fill="none" stroke="black" points="1176,-750 1176,-780 1298,-780 1298,-750 1176,-750"/>
<text text-anchor="start" x="1184" y="-768" font-family="FreeSans" font-size="10.00">KalmanFastTracking</text>
<text text-anchor="middle" x="1237" y="-757" font-family="FreeSans" font-size="10.00">::buildBackPartialTracks</text>
</a>
</g>
</g>
<!-- Node4&#45;&gt;Node5 -->
<g id="edge4" class="edge"><title>Node4&#45;&gt;Node5</title>
<path fill="none" stroke="midnightblue" d="M990.456,-739.741C999.653,-741.718 1009.04,-743.551 1018,-745 1070.9,-753.557 1131.66,-758.755 1175.57,-761.698"/>
<polygon fill="midnightblue" stroke="midnightblue" points="991.104,-736.299 980.583,-737.55 989.588,-743.133 991.104,-736.299"/>
</g>
<!-- Node8 -->
<g id="node8" class="node"><title>Node8</title>
<g id="a_node8"><a xlink:href="../../d3/d46/classKalmanFastTracking.html#a53c93bc5e58b3560d1cfb42e84bbe95c" target="_top" xlink:title="KalmanFastTracking\l::buildGlobalTracks">
<polygon fill="none" stroke="black" points="1183.5,-662 1183.5,-692 1290.5,-692 1290.5,-662 1183.5,-662"/>
<text text-anchor="start" x="1191.5" y="-680" font-family="FreeSans" font-size="10.00">KalmanFastTracking</text>
<text text-anchor="middle" x="1237" y="-669" font-family="FreeSans" font-size="10.00">::buildGlobalTracks</text>
</a>
</g>
</g>
<!-- Node4&#45;&gt;Node8 -->
<g id="edge7" class="edge"><title>Node4&#45;&gt;Node8</title>
<path fill="none" stroke="midnightblue" d="M981.713,-705.978C993.555,-702.542 1006.11,-699.304 1018,-697 1073.78,-686.187 1138.76,-681.183 1183.17,-678.89"/>
<polygon fill="midnightblue" stroke="midnightblue" points="980.541,-702.675 971.964,-708.894 982.548,-709.381 980.541,-702.675"/>
</g>
<!-- Node9 -->
<g id="node9" class="node"><title>Node9</title>
<g id="a_node9"><a xlink:href="../../d3/d46/classKalmanFastTracking.html#a3e8f77a6532d69cf9f470ebf16b7fa14" target="_top" xlink:title="Tracklet finding stuff. ">
<polygon fill="none" stroke="black" points="1018.5,-706 1018.5,-736 1139.5,-736 1139.5,-706 1018.5,-706"/>
<text text-anchor="start" x="1026.5" y="-724" font-family="FreeSans" font-size="10.00">KalmanFastTracking</text>
<text text-anchor="middle" x="1079" y="-713" font-family="FreeSans" font-size="10.00">::buildTrackletsInStation</text>
</a>
</g>
</g>
<!-- Node4&#45;&gt;Node9 -->
<g id="edge9" class="edge"><title>Node4&#45;&gt;Node9</title>
<path fill="none" stroke="midnightblue" d="M991.009,-722.74C1000.09,-722.558 1009.42,-722.372 1018.43,-722.191"/>
<polygon fill="midnightblue" stroke="midnightblue" points="990.812,-719.243 980.884,-722.942 990.952,-726.242 990.812,-719.243"/>
</g>
<!-- Node6 -->
<g id="node6" class="node"><title>Node6</title>
<g id="a_node6"><a xlink:href="../../d3/d46/classKalmanFastTracking.html#ada493cf8d995c42b9e78a53b891ce72b" target="_top" xlink:title="KalmanFastTracking\l::setRawEvent">
<polygon fill="none" stroke="black" points="1334.5,-684 1334.5,-714 1441.5,-714 1441.5,-684 1334.5,-684"/>
<text text-anchor="start" x="1342.5" y="-702" font-family="FreeSans" font-size="10.00">KalmanFastTracking</text>
<text text-anchor="middle" x="1388" y="-691" font-family="FreeSans" font-size="10.00">::setRawEvent</text>
</a>
</g>
</g>
<!-- Node5&#45;&gt;Node6 -->
<g id="edge5" class="edge"><title>Node5&#45;&gt;Node6</title>
<path fill="none" stroke="midnightblue" d="M1281.62,-745.679C1304.38,-735.598 1331.81,-723.448 1352.98,-714.071"/>
<polygon fill="midnightblue" stroke="midnightblue" points="1279.91,-742.608 1272.18,-749.858 1282.74,-749.008 1279.91,-742.608"/>
</g>
<!-- Node7 -->
<g id="node7" class="node"><title>Node7</title>
<g id="a_node7"><a xlink:href="../../d4/dff/classKalmanFastTrackingWrapper.html#a5edc61b3b9a06f6486b1f22e44f7d63e" target="_top" xlink:title="KalmanFastTrackingWrapper\l::process_event">
<polygon fill="none" stroke="black" points="1478.5,-616 1478.5,-646 1621.5,-646 1621.5,-616 1478.5,-616"/>
<text text-anchor="start" x="1486.5" y="-634" font-family="FreeSans" font-size="10.00">KalmanFastTrackingWrapper</text>
<text text-anchor="middle" x="1550" y="-623" font-family="FreeSans" font-size="10.00">::process_event</text>
</a>
</g>
</g>
<!-- Node6&#45;&gt;Node7 -->
<g id="edge6" class="edge"><title>Node6&#45;&gt;Node7</title>
<path fill="none" stroke="midnightblue" d="M1433.86,-679.934C1459.07,-669.218 1490.1,-656.032 1513.59,-646.049"/>
<polygon fill="midnightblue" stroke="midnightblue" points="1432.34,-676.776 1424.51,-683.909 1435.08,-683.218 1432.34,-676.776"/>
</g>
<!-- Node8&#45;&gt;Node6 -->
<g id="edge8" class="edge"><title>Node8&#45;&gt;Node6</title>
<path fill="none" stroke="midnightblue" d="M1300.71,-686.259C1311.94,-687.917 1323.53,-689.629 1334.44,-691.24"/>
<polygon fill="midnightblue" stroke="midnightblue" points="1300.94,-682.755 1290.53,-684.756 1299.91,-689.68 1300.94,-682.755"/>
</g>
<!-- Node9&#45;&gt;Node6 -->
<g id="edge10" class="edge"><title>Node9&#45;&gt;Node6</title>
<path fill="none" stroke="midnightblue" d="M1149.76,-716.001C1205.8,-711.985 1283.31,-706.431 1334.27,-702.779"/>
<polygon fill="midnightblue" stroke="midnightblue" points="1149.28,-712.526 1139.56,-716.732 1149.78,-719.508 1149.28,-712.526"/>
</g>
<!-- Node9&#45;&gt;Node8 -->
<g id="edge11" class="edge"><title>Node9&#45;&gt;Node8</title>
<path fill="none" stroke="midnightblue" d="M1143.26,-703.157C1156.54,-699.412 1170.41,-695.5 1183.25,-691.877"/>
<polygon fill="midnightblue" stroke="midnightblue" points="1141.92,-699.898 1133.25,-705.981 1143.82,-706.635 1141.92,-699.898"/>
</g>
<!-- Node10&#45;&gt;Node6 -->
<g id="edge13" class="edge"><title>Node10&#45;&gt;Node6</title>
<path fill="none" stroke="midnightblue" d="M1143.1,-814.372C1188.32,-815.629 1249.54,-811.888 1298,-789 1333.37,-772.296 1362.58,-735.309 1377.1,-714.322"/>
<polygon fill="midnightblue" stroke="midnightblue" points="1142.96,-810.865 1132.84,-813.994 1142.7,-817.86 1142.96,-810.865"/>
</g>
<!-- Node11&#45;&gt;Node2 -->
<g id="edge15" class="edge"><title>Node11&#45;&gt;Node2</title>
<path fill="none" stroke="midnightblue" d="M513.257,-727C535.56,-727 559.851,-727 579.897,-727"/>
<polygon fill="midnightblue" stroke="midnightblue" points="513.171,-723.5 503.171,-727 513.171,-730.5 513.171,-723.5"/>
</g>
<!-- Node14&#45;&gt;Node15 -->
<g id="edge19" class="edge"><title>Node14&#45;&gt;Node15</title>
<path fill="none" stroke="midnightblue" d="M693.971,-606.041C748.197,-610.004 822.649,-615.446 872.447,-619.086"/>
<polygon fill="midnightblue" stroke="midnightblue" points="693.979,-602.532 683.75,-605.294 693.469,-609.514 693.979,-602.532"/>
</g>
<!-- Node15&#45;&gt;Node6 -->
<g id="edge20" class="edge"><title>Node15&#45;&gt;Node6</title>
<path fill="none" stroke="midnightblue" d="M991.973,-619.926C1067,-618.188 1194.31,-621.111 1298,-653 1321.44,-660.209 1346.06,-673.431 1363.45,-683.856"/>
<polygon fill="midnightblue" stroke="midnightblue" points="991.644,-616.433 981.741,-620.199 991.831,-623.431 991.644,-616.433"/>
</g>
<!-- Node15&#45;&gt;Node8 -->
<g id="edge21" class="edge"><title>Node15&#45;&gt;Node8</title>
<path fill="none" stroke="midnightblue" d="M991.582,-634.148C1048.31,-644.094 1130.39,-658.485 1183.48,-667.792"/>
<polygon fill="midnightblue" stroke="midnightblue" points="992.104,-630.686 981.65,-632.406 990.895,-637.58 992.104,-630.686"/>
</g>
<!-- Node17 -->
<g id="node17" class="node"><title>Node17</title>
<g id="a_node17"><a xlink:href="../../d5/dda/classEventReducer.html#a561a06dc56cee12696d12ba18d207433" target="_top" xlink:title="EventReducer::EventReducer">
<polygon fill="none" stroke="black" points="374.5,-427.5 374.5,-446.5 517.5,-446.5 517.5,-427.5 374.5,-427.5"/>
<text text-anchor="middle" x="446" y="-434.5" font-family="FreeSans" font-size="10.00">EventReducer::EventReducer</text>
</a>
</g>
</g>
<!-- Node16&#45;&gt;Node17 -->
<g id="edge23" class="edge"><title>Node16&#45;&gt;Node17</title>
<path fill="none" stroke="midnightblue" d="M345.652,-437C355.332,-437 365.08,-437 374.489,-437"/>
<polygon fill="midnightblue" stroke="midnightblue" points="345.605,-433.5 335.605,-437 345.605,-440.5 345.605,-433.5"/>
</g>
<!-- Node23 -->
<g id="node23" class="node"><title>Node23</title>
<g id="a_node23"><a xlink:href="../../d0/d1e/classPropSegment.html#aca28cdf1a12ff0d4a0c58a5fbd595dff" target="_top" xlink:title="PropSegment::fit_34hits">
<polygon fill="none" stroke="black" points="386.5,-676.5 386.5,-695.5 505.5,-695.5 505.5,-676.5 386.5,-676.5"/>
<text text-anchor="middle" x="446" y="-683.5" font-family="FreeSans" font-size="10.00">PropSegment::fit_34hits</text>
</a>
</g>
</g>
<!-- Node22&#45;&gt;Node23 -->
<g id="edge29" class="edge"><title>Node22&#45;&gt;Node23</title>
<path fill="none" stroke="midnightblue" d="M322.72,-684.059C343.48,-684.389 366.204,-684.749 386.368,-685.069"/>
<polygon fill="midnightblue" stroke="midnightblue" points="322.761,-680.559 312.706,-683.9 322.649,-687.558 322.761,-680.559"/>
</g>
<!-- Node23&#45;&gt;Node2 -->
<g id="edge30" class="edge"><title>Node23&#45;&gt;Node2</title>
<path fill="none" stroke="midnightblue" d="M497.778,-697.829C524.551,-704.066 556.958,-711.615 582.097,-717.471"/>
<polygon fill="midnightblue" stroke="midnightblue" points="498.354,-694.369 487.82,-695.509 496.765,-701.187 498.354,-694.369"/>
</g>
<!-- Node29 -->
<g id="node29" class="node"><title>Node29</title>
<g id="a_node29"><a xlink:href="../../d5/dda/classEventReducer.html#af72954cea31bb7b3b3f122c3067b632c" target="_top" xlink:title="EventReducer::reduceEvent">
<polygon fill="none" stroke="black" points="556,-553.5 556,-572.5 692,-572.5 692,-553.5 556,-553.5"/>
<text text-anchor="middle" x="624" y="-560.5" font-family="FreeSans" font-size="10.00">EventReducer::reduceEvent</text>
</a>
</g>
</g>
<!-- Node28&#45;&gt;Node29 -->
<g id="edge37" class="edge"><title>Node28&#45;&gt;Node29</title>
<path fill="none" stroke="midnightblue" d="M529.822,-563C538.572,-563 547.391,-563 555.93,-563"/>
<polygon fill="midnightblue" stroke="midnightblue" points="529.602,-559.5 519.602,-563 529.602,-566.5 529.602,-559.5"/>
</g>
<!-- Node29&#45;&gt;Node7 -->
<g id="edge38" class="edge"><title>Node29&#45;&gt;Node7</title>
<path fill="none" stroke="midnightblue" d="M702.528,-563C763.317,-563 850.049,-563 926,-563 926,-563 926,-563 1238,-563 1336.38,-563 1448.31,-595.875 1507.38,-615.909"/>
<polygon fill="midnightblue" stroke="midnightblue" points="702.245,-559.5 692.245,-563 702.245,-566.5 702.245,-559.5"/>
</g>
</g>
</svg>
