<?xml version="1.0" encoding="UTF-8" standalone="no"?>
<!DOCTYPE svg PUBLIC "-//W3C//DTD SVG 1.1//EN"
 "http://www.w3.org/Graphics/SVG/1.1/DTD/svg11.dtd">
<!-- Generated by graphviz version 2.30.1 (20180413.0232)
 -->
<!-- Title: PHTimer::stop Pages: 1 -->
<svg width="510pt" height="82pt"
 viewBox="0.00 0.00 510.00 82.00" xmlns="http://www.w3.org/2000/svg" xmlns:xlink="http://www.w3.org/1999/xlink">
<g id="graph0" class="graph" transform="scale(1 1) rotate(0) translate(4 78)">
<title>PHTimer::stop</title>
<!-- Node1 -->
<g id="node1" class="node"><title>Node1</title>
<polygon fill="#bfbfbf" stroke="black" points="0.5,-30.5 0.5,-49.5 77.5,-49.5 77.5,-30.5 0.5,-30.5"/>
<text text-anchor="middle" x="39" y="-37.5" font-family="FreeSans" font-size="10.00">PHTimer::stop</text>
</g>
<!-- Node2 -->
<g id="node2" class="node"><title>Node2</title>
<g id="a_node2"><a xlink:href="../../d0/d5e/classPHTimer.html#a976738876ad978116fdc4549a3765685" target="_top" xlink:title="retrieve elapsed value since last restart (in ms) ">
<polygon fill="none" stroke="black" points="114,-11.5 114,-30.5 206,-30.5 206,-11.5 114,-11.5"/>
<text text-anchor="middle" x="160" y="-18.5" font-family="FreeSans" font-size="10.00">PHTimer::elapsed</text>
</a>
</g>
</g>
<!-- Node1&#45;&gt;Node2 -->
<g id="edge1" class="edge"><title>Node1&#45;&gt;Node2</title>
<path fill="none" stroke="midnightblue" d="M77.6523,-33.9883C85.9639,-32.6612 94.9359,-31.2287 103.781,-29.8165"/>
<polygon fill="midnightblue" stroke="midnightblue" points="104.349,-33.2703 113.672,-28.2373 103.245,-26.3578 104.349,-33.2703"/>
</g>
<!-- Node3 -->
<g id="node3" class="node"><title>Node3</title>
<g id="a_node3"><a xlink:href="../../d0/d5e/classPHTimer.html#aa92e3fe4a0a1799f39743eda9ef9d497" target="_top" xlink:title="gets time from cpu clock counts ">
<polygon fill="none" stroke="black" points="251.5,-44 251.5,-74 352.5,-74 352.5,-44 251.5,-44"/>
<text text-anchor="start" x="259.5" y="-62" font-family="FreeSans" font-size="10.00">PHTimer::get_clock</text>
<text text-anchor="middle" x="302" y="-51" font-family="FreeSans" font-size="10.00">_counts</text>
</a>
</g>
</g>
<!-- Node1&#45;&gt;Node3 -->
<g id="edge5" class="edge"><title>Node1&#45;&gt;Node3</title>
<path fill="none" stroke="midnightblue" d="M77.6729,-42.7425C120.464,-45.8575 190.863,-50.9824 241.183,-54.6455"/>
<polygon fill="midnightblue" stroke="midnightblue" points="241.054,-58.1453 251.282,-55.3806 241.562,-51.1637 241.054,-58.1453"/>
</g>
<!-- Node2&#45;&gt;Node3 -->
<g id="edge2" class="edge"><title>Node2&#45;&gt;Node3</title>
<path fill="none" stroke="midnightblue" d="M196.328,-30.589C210.016,-34.3044 226.071,-38.6621 241.439,-42.8335"/>
<polygon fill="midnightblue" stroke="midnightblue" points="240.84,-46.2973 251.407,-45.5391 242.673,-39.5418 240.84,-46.2973"/>
</g>
<!-- Node4 -->
<g id="node4" class="node"><title>Node4</title>
<g id="a_node4"><a xlink:href="../../d0/d5e/classPHTimer.html#aa75ff2c27aba40e7ef0a934f9a3355c2" target="_top" xlink:title="returns difference between to time ">
<polygon fill="none" stroke="black" points="242.5,-5.5 242.5,-24.5 361.5,-24.5 361.5,-5.5 242.5,-5.5"/>
<text text-anchor="middle" x="302" y="-12.5" font-family="FreeSans" font-size="10.00">PHTimer::get_difference</text>
</a>
</g>
</g>
<!-- Node2&#45;&gt;Node4 -->
<g id="edge3" class="edge"><title>Node2&#45;&gt;Node4</title>
<path fill="none" stroke="midnightblue" d="M206.068,-19.0685C214.489,-18.7076 223.464,-18.323 232.408,-17.9397"/>
<polygon fill="midnightblue" stroke="midnightblue" points="232.621,-21.4338 242.462,-17.5088 232.322,-14.4402 232.621,-21.4338"/>
</g>
<!-- Node5 -->
<g id="node5" class="node"><title>Node5</title>
<g id="a_node5"><a xlink:href="../../d2/db1/classPHTimer_1_1Frequency.html#a023a2d706df9a8bd303810a9ed017f61" target="_top" xlink:title="period accessor ">
<polygon fill="none" stroke="black" points="398,-0 398,-30 502,-30 502,-0 398,-0"/>
<text text-anchor="start" x="406" y="-18" font-family="FreeSans" font-size="10.00">PHTimer::Frequency</text>
<text text-anchor="middle" x="450" y="-7" font-family="FreeSans" font-size="10.00">::period</text>
</a>
</g>
</g>
<!-- Node4&#45;&gt;Node5 -->
<g id="edge4" class="edge"><title>Node4&#45;&gt;Node5</title>
<path fill="none" stroke="midnightblue" d="M361.543,-15C370.21,-15 379.16,-15 387.878,-15"/>
<polygon fill="midnightblue" stroke="midnightblue" points="387.975,-18.5001 397.975,-15 387.975,-11.5001 387.975,-18.5001"/>
</g>
</g>
</svg>
