<?xml version="1.0" encoding="UTF-8" standalone="no"?>
<!DOCTYPE svg PUBLIC "-//W3C//DTD SVG 1.1//EN"
 "http://www.w3.org/Graphics/SVG/1.1/DTD/svg11.dtd">
<!-- Generated by graphviz version 2.40.1 (20161225.0304)
 -->
<!-- Title: Fun4AllDstInputManager::fileclose Pages: 1 -->
<svg width="944pt" height="160pt"
 viewBox="0.00 0.00 944.00 159.50" xmlns="http://www.w3.org/2000/svg" xmlns:xlink="http://www.w3.org/1999/xlink">
<g id="graph0" class="graph" transform="scale(1 1) rotate(0) translate(4 155.5)">
<title>Fun4AllDstInputManager::fileclose</title>
<!-- Node9 -->
<g id="node1" class="node">
<title>Node9</title>
<polygon fill="#bfbfbf" stroke="#000000" points="0,-61.5 0,-91.5 123,-91.5 123,-61.5 0,-61.5"/>
<text text-anchor="start" x="8" y="-79.5" font-family="FreeSans" font-size="10.00" fill="#000000">Fun4AllDstInputManager</text>
<text text-anchor="middle" x="61.5" y="-68.5" font-family="FreeSans" font-size="10.00" fill="#000000">::fileclose</text>
</g>
<!-- Node10 -->
<g id="node2" class="node">
<title>Node10</title>
<g id="a_node2"><a xlink:href="../../d7/d0b/classFun4AllDstInputManager.html#a4d32eadb9f77d41387656b87377ef14f" target="_top" xlink:title="Fun4AllDstInputManager\l::fileopen">
<polygon fill="none" stroke="#000000" points="159,-83.5 159,-113.5 282,-113.5 282,-83.5 159,-83.5"/>
<text text-anchor="start" x="167" y="-101.5" font-family="FreeSans" font-size="10.00" fill="#000000">Fun4AllDstInputManager</text>
<text text-anchor="middle" x="220.5" y="-90.5" font-family="FreeSans" font-size="10.00" fill="#000000">::fileopen</text>
</a>
</g>
</g>
<!-- Node9&#45;&gt;Node10 -->
<g id="edge1" class="edge">
<title>Node9&#45;&gt;Node10</title>
<path fill="none" stroke="#191970" d="M133.5919,-86.475C141.9898,-87.637 150.499,-88.8143 158.7402,-89.9546"/>
<polygon fill="#191970" stroke="#191970" points="133.8142,-82.9725 123.4288,-85.0688 132.8547,-89.9064 133.8142,-82.9725"/>
</g>
<!-- Node12 -->
<g id="node4" class="node">
<title>Node12</title>
<g id="a_node4"><a xlink:href="../../d7/d0b/classFun4AllDstInputManager.html#aeafa0248f9050c13fdae1bcb93336d7a" target="_top" xlink:title="Fun4AllDstInputManager::run">
<polygon fill="none" stroke="#000000" points="477,-132 477,-151 618,-151 618,-132 477,-132"/>
<text text-anchor="middle" x="547.5" y="-139" font-family="FreeSans" font-size="10.00" fill="#000000">Fun4AllDstInputManager::run</text>
</a>
</g>
</g>
<!-- Node9&#45;&gt;Node12 -->
<g id="edge10" class="edge">
<title>Node9&#45;&gt;Node12</title>
<path fill="none" stroke="#191970" d="M94.4977,-96.5334C112.8128,-106.5728 136.4026,-117.7842 159,-123.5 267.3343,-150.9019 397.9662,-150.397 476.7882,-146.6154"/>
<polygon fill="#191970" stroke="#191970" points="96.1275,-93.4344 85.6967,-91.5775 92.6929,-99.5339 96.1275,-93.4344"/>
</g>
<!-- Node13 -->
<g id="node5" class="node">
<title>Node13</title>
<g id="a_node5"><a xlink:href="../../d7/d0b/classFun4AllDstInputManager.html#ade26017b627e0e1f1ec0dec62ac7fd52" target="_top" xlink:title="Fun4AllDstInputManager\l::ReadNextEventSyncObject">
<polygon fill="none" stroke="#000000" points="479,-41.5 479,-71.5 616,-71.5 616,-41.5 479,-41.5"/>
<text text-anchor="start" x="487" y="-59.5" font-family="FreeSans" font-size="10.00" fill="#000000">Fun4AllDstInputManager</text>
<text text-anchor="middle" x="547.5" y="-48.5" font-family="FreeSans" font-size="10.00" fill="#000000">::ReadNextEventSyncObject</text>
</a>
</g>
</g>
<!-- Node9&#45;&gt;Node13 -->
<g id="edge9" class="edge">
<title>Node9&#45;&gt;Node13</title>
<path fill="none" stroke="#191970" d="M133.2101,-73.549C226.147,-69.7244 387.0972,-63.1009 478.6256,-59.3343"/>
<polygon fill="#191970" stroke="#191970" points="132.8998,-70.0587 123.0522,-73.967 133.1877,-77.0528 132.8998,-70.0587"/>
</g>
<!-- Node14 -->
<g id="node6" class="node">
<title>Node14</title>
<g id="a_node6"><a xlink:href="../../d7/d0b/classFun4AllDstInputManager.html#a0244c2edbaa2350038304b09f352c2d0" target="_top" xlink:title="Fun4AllDstInputManager\l::SyncIt">
<polygon fill="none" stroke="#000000" points="654,-.5 654,-30.5 777,-30.5 777,-.5 654,-.5"/>
<text text-anchor="start" x="662" y="-18.5" font-family="FreeSans" font-size="10.00" fill="#000000">Fun4AllDstInputManager</text>
<text text-anchor="middle" x="715.5" y="-7.5" font-family="FreeSans" font-size="10.00" fill="#000000">::SyncIt</text>
</a>
</g>
</g>
<!-- Node9&#45;&gt;Node14 -->
<g id="edge11" class="edge">
<title>Node9&#45;&gt;Node14</title>
<path fill="none" stroke="#191970" d="M133.2255,-66.6689C141.9042,-65.5584 150.6492,-64.4766 159,-63.5 300.0856,-47 335.4494,-43.3668 477,-31.5 536.9637,-26.473 605.5144,-22.0076 653.6873,-19.0803"/>
<polygon fill="#191970" stroke="#191970" points="132.563,-63.2253 123.0955,-67.9809 133.4622,-70.1673 132.563,-63.2253"/>
</g>
<!-- Node11 -->
<g id="node3" class="node">
<title>Node11</title>
<g id="a_node3"><a xlink:href="../../d7/d0b/classFun4AllDstInputManager.html#ae4e92b95ae50ab72856d06c99b043496" target="_top" xlink:title="Fun4AllDstInputManager\l::OpenNextFile">
<polygon fill="none" stroke="#000000" points="318,-83.5 318,-113.5 441,-113.5 441,-83.5 318,-83.5"/>
<text text-anchor="start" x="326" y="-101.5" font-family="FreeSans" font-size="10.00" fill="#000000">Fun4AllDstInputManager</text>
<text text-anchor="middle" x="379.5" y="-90.5" font-family="FreeSans" font-size="10.00" fill="#000000">::OpenNextFile</text>
</a>
</g>
</g>
<!-- Node10&#45;&gt;Node11 -->
<g id="edge2" class="edge">
<title>Node10&#45;&gt;Node11</title>
<path fill="none" stroke="#191970" d="M292.5919,-98.5C300.9898,-98.5 309.499,-98.5 317.7402,-98.5"/>
<polygon fill="#191970" stroke="#191970" points="292.4289,-95.0001 282.4288,-98.5 292.4288,-102.0001 292.4289,-95.0001"/>
</g>
<!-- Node11&#45;&gt;Node12 -->
<g id="edge3" class="edge">
<title>Node11&#45;&gt;Node12</title>
<path fill="none" stroke="#191970" d="M448.2236,-116.09C469.4594,-121.5253 492.0431,-127.3057 510.2968,-131.9777"/>
<polygon fill="#191970" stroke="#191970" points="448.8138,-112.6283 438.2582,-113.5393 447.0781,-119.4097 448.8138,-112.6283"/>
</g>
<!-- Node11&#45;&gt;Node13 -->
<g id="edge4" class="edge">
<title>Node11&#45;&gt;Node13</title>
<path fill="none" stroke="#191970" d="M449.644,-80.964C462.2132,-77.8217 475.208,-74.573 487.4606,-71.5098"/>
<polygon fill="#191970" stroke="#191970" points="448.5299,-77.6347 439.6773,-83.4557 450.2277,-84.4257 448.5299,-77.6347"/>
</g>
<!-- Node15 -->
<g id="node7" class="node">
<title>Node15</title>
<g id="a_node7"><a xlink:href="../../d7/d0b/classFun4AllDstInputManager.html#a33ba8ba9d1dac601d13b03a5f19dead7" target="_top" xlink:title="Fun4AllDstInputManager\l::isOpen">
<polygon fill="none" stroke="#000000" points="813,-44.5 813,-74.5 936,-74.5 936,-44.5 813,-44.5"/>
<text text-anchor="start" x="821" y="-62.5" font-family="FreeSans" font-size="10.00" fill="#000000">Fun4AllDstInputManager</text>
<text text-anchor="middle" x="874.5" y="-51.5" font-family="FreeSans" font-size="10.00" fill="#000000">::isOpen</text>
</a>
</g>
</g>
<!-- Node11&#45;&gt;Node15 -->
<g id="edge8" class="edge">
<title>Node11&#45;&gt;Node15</title>
<path fill="none" stroke="#191970" d="M451.625,-94.7883C531.341,-90.4095 663.4908,-82.332 777,-71.5 788.6297,-70.3902 801.0165,-69.0151 812.9226,-67.5962"/>
<polygon fill="#191970" stroke="#191970" points="451.0061,-91.3168 441.2113,-95.3557 451.3869,-98.3064 451.0061,-91.3168"/>
</g>
<!-- Node13&#45;&gt;Node14 -->
<g id="edge5" class="edge">
<title>Node13&#45;&gt;Node14</title>
<path fill="none" stroke="#191970" d="M619.16,-39.0116C630.7233,-36.1895 642.6056,-33.2897 653.9044,-30.5323"/>
<polygon fill="#191970" stroke="#191970" points="617.9881,-35.6947 609.103,-41.4659 619.6478,-42.4952 617.9881,-35.6947"/>
</g>
<!-- Node13&#45;&gt;Node15 -->
<g id="edge7" class="edge">
<title>Node13&#45;&gt;Node15</title>
<path fill="none" stroke="#191970" d="M626.1576,-57.2216C683.4799,-57.7475 760.0477,-58.45 812.9375,-58.9352"/>
<polygon fill="#191970" stroke="#191970" points="626.0816,-53.7209 616.0499,-57.1289 626.0174,-60.7206 626.0816,-53.7209"/>
</g>
<!-- Node14&#45;&gt;Node15 -->
<g id="edge6" class="edge">
<title>Node14&#45;&gt;Node15</title>
<path fill="none" stroke="#191970" d="M779.4719,-33.2029C792.9733,-36.9392 807.0965,-40.8475 820.2008,-44.4738"/>
<polygon fill="#191970" stroke="#191970" points="780.3454,-29.8131 769.7741,-30.5192 778.4784,-36.5596 780.3454,-29.8131"/>
</g>
</g>
</svg>
